P2
100 100
255
129 149 167 179 180 168 145 116 89 72 65 70 85 110 140 164 178 180 170 147 116 86 64 51 47 48 55 68 86 109 131 148 157 157 152 141 127 113 100 91 85 81 81 84 91 104 120 136 150 158 159 152 138 118 98 82 71 63 60 60 65 75 90 107 124 138 149 157 162 164 160 152 143 134 127 120 113 106 96 86 77 68 60 54 50 49 54 66 87 117 147 169 179 177 164 145 125 111 108 114 
160 174 185 189 182 163 133 100 73 57 52 56 71 95 126 154 172 176 167 146 117 89 68 56 52 55 62 75 92 110 127 138 142 141 135 128 121 116 113 111 108 105 101 98 96 97 103 112 124 134 143 146 144 136 126 114 102 92 83 76 72 72 76 83 93 103 115 129 143 156 165 170 170 168 164 158 148 134 115 94 75 60 50 44 41 41 47 59 81 110 141 164 176 178 170 157 145 138 139 147 
183 193 198 196 184 159 124 89 63 48 44 48 62 86 117 148 168 176 170 153 127 102 82 71 68 72 80 92 105 117 125 127 125 120 115 112 114 119 127 135 138 137 130 120 107 96 90 90 97 108 122 136 147 154 154 150 141 130 116 100 86 75 69 67 69 75 86 101 123 146 167 181 189 193 192 188 178 161 136 107 80 60 48 42 40 42 49 62 84 111 139 159 170 171 167 160 155 155 161 172 
195 203 205 201 186 158 120 83 58 45 42 46 60 84 116 148 170 179 176 163 144 123 107 98 96 101 110 119 126 129 126 118 107 98 94 95 104 120 140 157 167 168 161 145 123 100 83 74 75 84 100 123 147 166 176 180 176 166 149 127 103 81 66 58 55 57 65 82 107 137 166 187 200 206 208 205 196 180 153 120 89 66 53 47 47 51 61 76 96 119 139 152 157 156 152 149 150 158 170 183 
198 207 209 203 186 157 118 82 58 46 44 50 65 91 123 153 174 183 183 174 161 147 136 131 132 137 144 150 150 143 128 109 91 79 74 78 93 117 146 172 187 191 185 168 140 108 81 64 59 65 82 109 142 171 190 198 199 191 175 150 119 89 67 54 48 48 55 71 97 131 164 189 204 212 214 212 205 189 164 132 100 77 64 60 63 71 84 100 117 132 141 143 139 132 127 126 132 146 165 184 
194 205 208 202 185 156 118 83 60 50 50 59 77 104 135 161 179 186 186 181 172 164 160 160 164 170 175 176 170 155 130 102 78 63 58 63 80 110 147 178 198 205 201 185 156 118 83 60 50 53 68 97 135 171 195 207 210 204 189 163 128 94 69 54 47 46 53 69 95 129 163 188 203 210 213 211 204 190 168 140 112 91 82 82 90 102 117 132 143 147 144 133 118 105 97 96 105 124 150 175 
185 200 204 199 182 153 117 85 65 58 61 74 95 122 148 169 181 185 183 178 173 170 171 176 183 190 194 193 184 163 132 97 70 53 47 52 69 100 141 179 202 212 210 197 169 129 89 60 47 47 60 88 128 167 195 209 213 208 193 166 131 96 71 56 50 51 59 75 100 131 161 183 196 203 204 202 195 182 163 141 121 108 106 112 125 140 154 164 167 162 146 123 99 80 70 70 79 99 129 160 
174 192 197 192 175 146 114 87 72 69 77 94 117 141 161 173 177 174 169 163 159 161 167 178 189 198 203 201 191 169 134 95 65 47 40 44 60 91 133 174 201 214 215 204 179 140 98 65 48 46 57 84 123 163 192 206 210 204 187 160 126 95 73 62 60 64 74 91 113 138 159 175 183 186 186 182 175 164 150 136 126 124 130 143 158 173 184 189 186 172 147 114 84 63 52 51 59 79 109 144 
162 182 188 181 163 136 108 88 79 83 97 117 139 157 168 170 164 154 143 135 133 137 150 166 183 196 204 203 194 172 137 97 65 45 38 40 54 83 125 168 198 213 216 208 187 151 109 74 54 49 59 84 121 159 187 200 201 192 173 146 116 91 77 73 77 87 100 115 132 147 157 162 163 161 157 151 145 137 130 125 127 135 150 167 183 195 203 204 197 179 147 108 74 52 42 41 48 65 94 130 
153 172 177 168 148 123 101 88 87 98 117 139 157 168 169 160 144 126 110 101 99 106 122 144 168 187 198 201 194 174 142 103 70 49 40 41 53 79 118 161 192 209 214 209 192 161 122 87 65 59 68 90 124 157 180 189 186 173 151 125 102 87 83 89 102 117 132 145 153 157 154 147 137 128 120 115 110 108 107 112 123 140 161 181 197 207 213 212 203 181 146 104 69 47 38 36 43 59 87 121 
149 165 166 153 132 109 92 87 95 113 136 157 171 173 164 144 120 96 79 70 69 76 93 118 146 172 189 196 192 177 149 115 83 61 50 49 58 80 115 154 185 203 210 207 194 169 136 104 83 76 83 103 130 156 171 174 165 147 124 102 88 84 91 108 130 150 164 172 173 166 151 132 113 98 88 83 82 84 89 100 117 141 165 187 202 212 216 214 204 181 144 101 66 46 37 37 44 61 88 120 
151 161 157 139 117 96 86 88 103 127 152 171 179 174 155 127 97 72 57 49 49 56 71 94 124 153 175 187 188 179 159 131 103 82 69 65 71 88 116 148 175 192 200 200 191 173 148 122 105 98 104 120 140 156 162 157 141 119 98 82 76 82 100 127 155 176 189 192 187 173 150 122 96 78 68 65 66 70 79 92 112 137 163 185 201 211 215 212 202 178 141 99 65 47 39 41 50 69 96 127 
158 161 150 129 105 87 82 90 111 139 165 181 184 172 146 112 79 57 44 39 39 45 58 79 106 136 160 175 182 179 168 151 131 113 100 93 94 103 120 141 161 176 184 185 181 170 154 138 127 123 128 138 149 155 152 139 118 95 77 67 68 81 106 140 172 193 204 204 196 178 150 117 88 70 61 59 62 68 77 90 108 130 154 176 193 204 208 207 196 173 137 97 66 49 44 48 61 83 112 140 
167 163 146 121 96 81 80 94 120 150 175 188 187 170 139 102 69 48 38 35 37 44 55 73 96 121 144 161 171 175 173 167 158 147 137 129 124 123 126 133 142 150 157 161 161 159 153 147 144 144 148 153 157 154 143 124 100 79 64 58 63 80 110 147 180 200 209 209 199 180 151 118 90 73 65 65 69 75 82 92 104 121 140 160 177 190 196 196 186 164 131 95 68 54 51 58 75 101 131 155 
174 165 142 114 90 78 80 98 128 160 183 194 189 170 136 97 65 47 39 38 42 50 61 76 93 111 129 143 155 165 172 176 177 175 170 162 152 141 130 122 118 119 122 128 133 139 144 148 152 156 160 162 159 151 135 113 90 71 59 56 62 81 111 147 179 199 207 207 197 179 153 124 100 86 81 83 87 92 95 97 102 109 121 137 153 167 177 179 172 153 124 93 71 60 60 72 93 122 150 169 
178 163 137 107 85 75 81 102 134 166 189 197 191 171 137 98 68 51 45 47 55 65 77 88 98 107 114 123 133 147 162 176 187 192 192 186 173 153 130 109 95 88 88 94 103 116 130 143 153 160 164 163 157 146 129 108 88 72 63 60 66 82 109 141 169 188 197 196 188 173 153 131 115 107 106 110 113 114 111 105 99 97 101 110 123 138 151 158 155 141 118 94 76 68 72 87 112 140 165 178 
177 158 129 100 79 72 80 103 136 169 190 198 192 173 140 105 77 62 60 66 78 91 102 109 109 106 102 102 108 123 144 167 186 199 203 198 183 158 126 95 75 65 63 68 79 96 115 135 149 158 160 157 149 138 124 109 95 83 76 73 77 87 106 129 151 167 174 175 170 160 148 138 131 131 135 140 142 138 128 112 97 86 82 85 95 109 125 136 139 132 116 98 85 81 87 104 129 155 174 182 
173 150 120 92 73 68 77 100 132 165 187 195 191 173 146 115 92 82 84 95 111 126 134 133 123 106 91 83 84 96 120 150 178 197 205 202 186 156 118 83 60 49 47 52 64 83 106 128 144 151 151 145 137 129 121 115 109 104 99 96 95 97 104 115 126 136 141 143 142 140 138 140 145 153 161 167 166 157 140 116 93 77 68 68 75 88 105 121 130 129 121 109 100 98 105 122 144 165 179 182 
167 143 112 84 67 63 71 92 122 153 176 186 184 171 150 127 111 107 115 130 148 160 164 155 134 107 82 67 64 73 96 130 164 190 202 199 182 149 108 73 51 41 40 46 60 80 105 127 141 144 140 131 123 119 119 123 128 131 131 127 121 113 107 103 101 102 104 106 109 115 126 140 155 169 180 184 181 168 144 115 88 69 59 58 64 77 96 116 131 136 134 126 120 119 125 139 157 172 181 180 
163 137 106 80 63 58 64 81 107 135 157 170 171 163 150 137 130 134 146 162 178 186 185 170 141 105 75 56 50 56 76 110 149 180 195 194 175 140 99 65 45 38 39 48 64 88 114 134 143 140 129 116 107 107 116 131 147 159 163 160 150 133 114 96 82 75 73 75 81 94 113 137 161 179 190 193 187 169 142 110 82 63 54 54 61 77 99 122 141 151 152 147 142 140 145 155 167 178 182 178 
163 138 107 80 63 56 59 70 89 111 132 146 151 150 145 142 145 154 169 185 196 201 195 176 142 101 68 48 41 46 64 96 136 170 187 186 166 131 90 60 43 39 43 57 79 106 132 148 150 139 121 102 93 96 111 136 161 180 188 186 175 153 124 94 72 59 53 55 63 80 106 137 165 185 195 195 185 164 133 101 75 59 53 55 65 85 110 137 157 167 170 166 162 159 160 167 175 182 184 178 
168 145 116 88 68 58 56 61 73 89 105 118 127 132 136 143 153 167 183 196 205 207 198 175 138 96 63 44 37 42 58 89 129 163 181 180 159 123 85 58 45 45 55 75 103 133 157 167 162 142 115 92 80 84 103 135 168 191 203 204 193 170 136 98 68 51 44 45 55 74 104 139 169 188 196 193 178 153 120 89 67 56 53 59 74 98 127 154 172 182 183 179 174 169 169 173 179 185 186 182 
177 159 132 104 80 65 57 57 62 72 83 95 105 116 127 140 157 174 189 201 207 206 195 170 132 91 60 43 38 43 60 91 130 162 179 176 154 119 84 61 52 57 74 101 134 163 181 185 174 147 113 84 70 73 93 128 167 195 210 213 205 183 147 104 70 49 41 43 53 75 108 145 174 190 194 187 167 138 106 79 61 54 56 66 86 114 144 168 183 189 188 182 175 170 168 172 178 185 189 187 
187 174 153 126 99 78 65 59 59 63 71 80 92 105 121 139 157 175 189 199 203 200 187 161 124 87 60 46 44 52 72 103 139 168 180 175 153 119 87 68 63 75 99 133 165 189 201 200 184 152 112 78 61 62 81 117 159 193 212 217 211 191 156 112 74 51 43 45 57 82 117 153 179 191 190 177 153 122 92 70 58 55 61 76 100 129 156 176 186 188 182 173 164 157 156 160 170 180 188 191 
194 188 173 150 124 98 79 68 63 64 69 78 90 104 121 140 158 173 185 193 194 189 175 149 117 86 65 56 58 70 93 124 155 177 185 177 153 121 92 77 78 96 127 162 190 208 214 209 191 156 112 74 55 53 69 102 146 185 208 217 213 196 163 120 81 56 47 50 65 93 128 161 182 189 183 166 138 107 81 64 58 60 70 89 114 142 164 177 180 175 164 151 139 131 131 138 152 168 182 192 
196 196 188 171 148 122 99 83 75 75 79 88 100 114 130 145 158 169 176 180 178 171 156 135 110 88 76 73 81 98 122 150 174 188 189 178 153 122 97 86 93 116 151 183 206 219 222 215 195 159 112 72 50 45 58 87 130 172 200 213 212 198 168 127 88 63 54 59 76 105 139 167 183 185 174 151 122 94 74 63 62 69 84 105 129 151 165 169 163 151 134 118 105 98 98 108 125 147 170 187 
191 198 196 185 167 143 121 104 95 94 100 109 121 133 144 153 159 162 162 160 154 145 133 117 102 93 91 97 112 132 154 175 190 196 192 176 150 120 97 90 102 129 164 195 214 224 225 218 197 161 112 70 47 40 48 73 112 156 189 206 208 196 170 132 95 71 63 69 88 116 147 170 179 176 160 136 109 86 73 69 73 85 103 124 144 157 161 155 140 120 100 83 72 67 68 77 95 121 149 174 
178 191 195 189 176 158 139 125 119 120 127 137 148 156 161 162 159 152 143 133 124 115 106 99 95 98 108 125 144 164 181 194 201 200 190 170 141 111 92 88 102 131 167 196 215 224 225 218 198 161 112 70 45 37 42 61 96 139 176 197 202 192 169 135 101 79 72 79 98 125 150 167 171 163 145 122 100 85 79 82 93 109 128 146 159 163 157 140 116 92 72 57 49 45 47 54 69 93 124 154 
159 177 185 183 174 161 148 139 138 144 154 164 173 177 176 169 156 139 121 105 94 86 82 82 89 103 124 148 170 187 199 205 206 199 183 157 126 97 81 79 93 121 157 188 209 219 222 215 196 161 114 72 46 36 39 54 84 124 161 185 193 186 165 135 105 86 81 88 106 129 148 159 157 146 129 110 96 90 93 104 120 138 155 167 173 169 154 129 99 73 54 42 35 33 34 40 51 71 99 130 
135 156 166 167 160 151 144 143 148 160 172 183 190 191 186 173 152 126 101 82 70 64 63 69 82 105 134 163 186 200 208 210 205 193 170 139 107 81 67 66 78 102 136 169 194 208 213 209 192 160 116 76 51 40 40 52 77 113 149 174 183 177 159 132 107 91 87 95 110 128 141 146 141 130 116 104 100 103 115 131 150 166 179 185 185 175 155 125 92 65 46 36 30 28 29 33 41 56 79 107 
115 133 142 142 137 131 129 134 146 163 180 192 199 199 191 173 146 114 85 65 54 50 51 60 77 105 140 171 194 206 211 209 199 181 153 118 87 65 54 53 62 80 108 140 168 188 198 197 184 157 120 84 59 48 48 58 80 111 143 165 173 167 150 128 107 94 92 99 111 123 131 132 126 116 108 105 110 122 140 158 175 188 195 197 193 181 159 129 96 68 50 38 33 30 30 33 39 50 68 91 
103 115 119 116 110 106 107 116 134 156 177 192 200 199 190 169 139 104 75 56 46 42 45 54 74 104 141 174 196 206 209 203 189 165 132 98 70 53 45 44 49 61 81 108 135 159 174 179 173 153 125 96 75 64 63 73 92 118 143 160 165 158 142 121 104 94 94 100 109 118 122 120 115 109 108 113 125 143 163 180 192 200 204 203 197 186 167 140 110 83 64 52 44 40 39 41 46 55 69 86 
104 108 105 97 89 84 85 96 115 140 164 183 193 193 184 162 131 97 70 52 43 40 44 54 74 105 142 174 194 203 203 193 174 145 111 80 58 46 40 39 41 49 62 80 103 126 144 156 157 148 131 112 97 89 90 98 114 134 151 161 160 150 133 115 100 93 94 99 107 113 115 113 110 109 114 125 143 162 180 193 201 204 204 201 196 186 172 154 131 110 92 79 70 64 61 62 66 73 83 95 
118 114 104 90 78 70 70 78 94 118 143 164 177 180 172 152 124 94 70 55 47 45 49 59 80 110 144 173 190 196 193 179 155 124 92 67 51 43 39 38 40 44 52 63 79 97 116 131 140 141 137 130 124 121 124 131 143 155 163 165 158 144 126 108 96 91 93 99 106 111 113 113 113 116 125 140 158 175 188 196 199 198 195 190 185 179 173 164 154 142 130 120 111 104 100 99 101 105 111 117 
142 130 114 94 77 66 62 66 78 96 118 139 153 158 154 140 120 97 78 65 59 58 62 73 93 120 149 171 184 186 178 160 134 104 78 60 49 44 43 44 46 49 53 59 69 81 95 110 123 134 141 145 148 152 157 163 169 174 175 170 157 139 120 103 92 89 93 99 107 112 115 117 120 126 138 152 168 180 188 190 187 180 172 165 161 160 163 167 170 171 168 163 157 152 147 145 144 145 147 147 
165 151 132 109 88 72 64 62 67 78 94 110 124 132 134 129 118 106 94 86 82 82 87 97 114 135 155 170 176 172 159 138 112 87 68 57 52 52 55 59 63 66 68 70 73 78 86 97 110 124 139 152 164 173 179 184 187 187 183 173 156 135 114 98 90 89 93 101 110 116 121 125 129 137 147 159 170 176 177 171 161 148 136 127 125 131 143 160 176 188 193 195 193 189 186 183 180 179 177 173 
181 169 151 130 107 88 74 66 65 68 76 86 97 107 115 120 122 121 120 118 117 118 122 129 140 152 162 167 165 154 137 115 92 74 63 59 61 68 77 87 94 97 97 95 91 87 87 91 100 114 132 151 168 181 190 194 196 193 185 172 153 131 110 96 90 91 97 106 115 122 128 132 137 143 151 158 163 162 155 142 125 108 94 86 87 96 117 145 172 193 206 211 212 210 207 203 199 196 193 188 
186 179 168 151 132 111 93 79 70 66 66 70 78 88 101 116 130 141 148 152 154 156 157 160 163 166 166 161 151 134 114 94 77 66 62 66 77 93 110 125 135 140 138 131 120 107 96 91 93 103 120 140 160 177 188 194 194 190 181 165 146 125 107 96 93 96 104 114 123 129 134 136 139 143 147 149 147 139 126 108 89 73 61 55 57 68 91 125 161 190 208 216 218 216 212 207 202 197 194 190 
180 180 177 169 156 139 119 100 83 71 64 63 67 77 94 116 139 159 172 180 183 184 184 182 178 173 164 152 135 115 95 78 67 63 66 78 98 122 146 164 175 179 176 166 150 130 109 94 88 92 104 123 144 163 176 182 183 178 168 153 135 118 106 100 101 107 116 125 132 136 137 137 136 136 135 133 126 114 98 80 63 50 41 37 39 50 71 106 147 182 203 213 215 211 205 197 189 182 179 179 
161 171 178 180 176 165 148 126 103 83 69 62 63 73 91 118 148 172 188 197 201 200 197 192 183 172 157 139 118 98 81 68 62 63 73 93 121 150 175 192 202 205 201 191 174 149 121 98 84 82 90 105 124 142 155 162 162 157 147 134 121 111 107 108 114 123 132 140 143 143 139 133 127 123 119 113 105 92 77 62 49 39 32 30 32 41 60 92 133 169 192 202 202 195 183 170 158 150 149 153 
134 154 173 185 189 184 172 152 126 100 79 67 65 73 93 122 154 180 197 205 207 205 199 191 179 164 145 125 105 87 74 66 64 69 85 110 141 171 194 208 215 217 213 204 186 159 128 101 83 77 81 92 106 120 130 134 133 128 120 112 106 105 110 119 131 142 151 155 154 148 137 126 115 108 102 96 89 79 68 56 45 37 32 30 32 40 57 86 122 155 176 183 178 165 148 130 116 108 109 117 
106 135 163 184 195 197 189 173 149 120 94 77 71 78 97 126 157 182 198 204 205 200 192 180 165 149 131 113 97 84 75 71 72 81 100 127 158 185 203 214 219 220 215 205 187 161 130 103 85 78 80 87 96 104 108 108 104 98 93 91 93 101 115 133 150 163 170 170 164 151 134 117 103 94 89 85 82 77 69 61 52 45 40 39 41 48 63 88 117 143 157 158 146 128 107 89 76 70 73 85 
85 118 153 181 197 203 200 188 166 138 110 89 80 84 101 128 156 179 192 196 194 186 174 160 145 130 117 106 97 90 86 85 89 100 119 144 170 191 206 214 216 215 209 197 178 153 127 104 92 88 90 95 100 100 97 90 82 76 72 74 82 99 122 147 167 180 185 183 172 154 131 108 92 83 80 82 84 85 83 79 72 65 60 58 60 67 80 99 120 135 139 131 114 93 73 59 50 47 50 63 
74 107 145 176 196 205 204 196 178 153 125 102 90 91 104 126 149 168 177 178 173 161 147 133 121 112 107 106 106 106 107 109 114 124 139 159 178 193 202 207 206 202 192 178 160 139 120 108 104 106 112 117 116 110 97 83 70 61 59 63 75 98 128 158 181 193 196 191 177 155 127 101 84 77 78 86 96 105 109 109 106 100 95 92 93 98 108 120 131 134 127 110 89 69 53 43 37 36 41 52 
71 102 139 171 192 202 204 198 183 162 136 113 99 97 105 120 137 149 154 152 143 130 116 106 100 100 105 114 122 129 134 137 141 148 157 169 180 188 193 192 187 178 165 149 132 119 112 113 121 132 142 147 143 130 109 85 66 54 51 55 70 97 133 167 190 202 203 197 180 154 123 95 79 75 81 96 114 131 142 147 146 143 138 135 134 137 141 145 145 137 120 98 76 58 45 38 35 35 40 51 
75 102 135 164 184 195 197 193 182 164 141 120 105 100 102 110 120 126 126 120 110 99 89 85 87 96 111 128 144 154 161 163 165 166 169 172 176 178 176 169 159 144 128 113 102 98 104 119 140 159 173 177 172 154 126 94 68 52 47 51 67 96 135 171 195 206 207 199 180 151 118 92 77 76 88 109 134 156 171 178 180 178 175 172 170 169 169 166 157 142 119 94 72 56 46 41 40 42 47 57 
86 106 131 154 171 181 184 181 173 158 140 122 108 100 98 100 103 103 99 92 84 76 72 74 84 101 124 146 164 175 180 180 178 174 171 168 165 160 152 140 125 108 92 81 77 82 98 126 156 181 196 200 194 176 144 106 72 52 45 48 65 95 136 173 197 207 207 197 177 147 114 89 78 81 97 123 151 174 189 197 199 198 195 192 190 187 183 176 164 145 120 95 75 62 55 53 53 57 62 71 
100 111 125 139 150 158 162 161 156 146 133 119 107 99 94 91 89 85 80 74 68 65 66 74 90 113 140 163 179 187 189 186 179 171 162 155 147 138 126 111 95 79 66 59 60 71 95 131 168 195 210 215 209 192 159 117 78 54 45 47 63 94 135 172 196 206 204 193 170 140 109 88 80 87 107 135 163 184 196 202 203 201 199 195 192 189 184 176 163 144 122 101 84 75 72 73 77 81 86 92 
117 116 117 120 124 129 133 135 135 131 124 115 106 98 91 86 81 75 70 65 62 63 69 83 104 130 156 176 187 191 188 179 168 155 144 134 125 116 105 91 76 62 52 48 51 65 93 134 175 203 218 222 217 201 170 126 84 57 46 48 64 94 134 170 192 200 197 183 160 131 104 88 86 96 118 144 168 185 193 196 194 191 187 183 180 178 174 167 156 141 124 109 100 96 98 104 110 115 118 118 
131 118 107 100 98 100 104 109 114 117 117 113 108 101 93 86 79 73 69 66 66 70 81 98 122 148 169 183 188 185 176 161 145 130 118 111 105 100 92 82 69 58 49 45 48 62 91 133 175 205 220 225 220 204 174 131 89 61 49 52 68 97 134 167 186 192 186 170 146 120 100 91 93 107 129 151 169 179 181 178 172 166 160 157 156 155 154 151 145 137 127 120 118 122 129 138 146 150 149 142 
140 117 97 84 77 77 82 90 100 109 115 117 115 109 101 93 85 79 75 74 77 85 99 119 141 163 177 184 182 171 154 134 115 101 92 90 91 93 92 86 76 64 53 47 49 61 88 128 170 200 217 222 218 202 173 132 92 66 56 60 77 105 138 164 178 179 169 151 129 109 97 96 104 121 140 157 166 167 161 151 140 130 124 123 124 128 132 135 135 134 132 133 137 146 157 167 174 177 172 159 
143 114 88 72 64 64 70 82 96 110 121 127 128 123 116 107 99 93 89 89 94 104 120 139 158 173 180 179 169 150 127 104 86 75 72 76 85 95 103 102 94 80 66 56 53 61 82 118 157 189 207 213 209 194 166 129 94 73 66 74 92 119 145 163 169 164 149 130 112 100 97 104 118 136 152 161 161 152 137 120 105 95 90 91 97 106 116 124 130 134 138 144 153 164 176 186 191 192 184 168 
141 109 82 65 59 60 69 84 103 121 136 144 146 142 135 127 119 112 109 110 115 126 140 156 169 178 178 170 152 127 100 78 64 58 60 70 87 107 123 129 123 107 88 70 61 62 76 104 138 168 188 195 191 176 151 121 95 82 82 94 114 137 155 164 160 147 128 109 96 93 99 115 134 152 164 165 156 138 115 94 78 70 68 73 82 95 109 122 131 138 145 153 163 175 186 194 199 198 189 170 
138 105 79 64 59 63 76 96 118 139 155 163 165 162 155 147 139 133 129 130 134 143 154 165 174 177 173 159 136 107 81 62 51 49 56 71 97 125 148 159 155 139 115 90 72 65 71 88 114 140 159 166 163 150 130 109 95 93 102 120 140 158 167 164 151 130 108 92 85 89 104 127 150 167 174 170 154 128 101 78 64 58 60 67 80 96 113 127 137 144 150 157 167 178 188 196 200 198 188 168 
133 101 78 65 64 73 90 114 139 160 173 180 180 177 171 163 155 148 144 143 146 152 160 168 173 173 166 149 124 95 70 54 46 47 57 78 109 144 171 184 183 168 143 113 87 71 68 76 92 110 124 130 127 118 106 97 96 105 123 145 164 175 176 164 142 116 92 79 77 88 111 139 164 179 183 174 153 124 94 72 60 57 62 72 88 106 123 135 143 147 150 155 164 175 185 194 197 195 184 163 
128 99 78 69 72 85 108 135 160 178 188 192 191 186 179 170 162 154 149 146 147 151 156 163 167 167 160 143 119 92 69 54 48 50 62 87 123 160 187 200 200 188 165 134 103 80 70 70 77 87 95 98 95 90 85 86 96 116 142 166 182 187 181 161 133 103 80 70 73 89 117 149 174 187 188 177 154 124 94 74 64 64 71 84 102 119 133 140 143 142 142 146 154 166 178 188 192 190 179 157 
122 96 78 73 80 98 125 154 177 191 198 198 194 187 178 168 157 148 142 138 137 140 146 153 159 161 156 144 123 99 77 62 55 57 70 97 134 170 196 208 209 199 179 150 118 92 77 72 73 76 78 78 75 71 72 79 97 124 154 178 191 192 180 155 122 91 71 64 70 91 122 155 179 191 191 178 155 125 98 80 73 75 85 99 115 128 136 137 134 128 125 128 137 152 168 180 186 184 172 150 
115 91 77 75 85 107 137 166 187 198 202 199 192 181 168 155 142 132 124 120 119 123 130 140 150 157 157 150 135 114 92 75 66 67 80 105 140 174 197 208 210 202 185 160 131 107 90 83 80 80 78 73 68 65 66 76 98 128 160 183 194 190 173 144 109 80 63 59 68 91 123 156 180 190 188 175 153 126 103 89 85 89 99 112 123 129 129 124 115 107 103 106 118 136 156 172 180 178 165 142 
106 84 73 73 86 110 141 170 190 199 201 195 184 168 150 133 119 108 101 98 99 104 114 128 143 156 162 161 151 134 113 94 81 79 88 110 141 171 192 202 204 198 184 164 142 122 109 103 100 97 91 83 74 68 68 78 100 130 161 182 189 182 161 129 95 69 56 56 67 89 121 152 174 183 180 167 147 125 107 98 97 103 111 119 123 122 115 104 93 84 81 86 101 124 148 166 175 172 158 133 
96 76 66 68 81 105 136 166 187 196 195 186 170 149 126 107 93 84 79 79 82 90 103 121 141 158 169 172 167 154 134 113 96 89 93 109 134 160 179 189 191 186 176 161 147 136 131 129 129 125 117 105 91 80 77 84 103 131 158 176 180 170 146 113 82 61 52 54 65 87 116 145 164 170 166 153 136 120 109 106 108 114 120 121 117 108 96 83 72 66 66 74 93 119 146 165 173 168 151 124 
87 67 59 60 72 95 126 157 179 189 187 175 153 127 102 84 72 65 63 65 71 82 99 121 145 164 177 183 180 169 150 127 107 94 93 103 121 141 158 168 170 167 160 153 147 147 150 155 158 156 148 133 114 98 90 93 108 131 153 168 169 156 130 99 73 56 51 54 66 87 112 134 148 152 146 134 121 112 108 111 117 123 125 121 110 95 80 67 58 55 59 72 95 124 151 170 175 166 145 115 
78 59 51 52 62 82 112 144 168 179 177 162 137 108 83 67 57 53 54 58 67 81 102 128 152 172 185 190 187 176 157 133 110 94 89 93 105 120 133 142 145 143 141 140 143 151 163 173 180 180 173 158 138 118 105 104 114 132 150 161 159 145 120 92 70 57 54 60 72 90 109 125 132 130 122 112 105 103 107 116 125 131 130 121 104 86 70 59 53 54 63 82 108 139 164 179 180 167 140 107 
71 52 44 45 53 71 99 131 157 170 168 152 125 96 72 57 49 48 50 57 69 88 112 139 163 180 190 193 188 175 154 129 106 89 82 83 90 101 111 118 121 121 122 126 136 151 168 182 191 194 188 174 155 134 119 114 121 135 150 158 155 141 119 95 76 67 66 73 85 99 112 119 118 111 101 93 90 95 106 120 134 140 137 125 105 85 69 60 58 64 79 103 132 160 180 189 186 168 137 101 
66 48 40 40 48 64 91 122 150 164 163 147 120 91 68 53 47 47 51 61 77 100 127 153 174 187 192 191 182 166 143 118 96 81 75 76 82 91 99 104 106 107 109 116 130 148 168 183 193 196 191 178 160 140 126 122 128 140 153 160 158 147 128 109 94 88 89 96 107 117 122 120 110 97 86 80 81 90 107 127 143 151 148 134 114 94 79 72 74 86 106 132 159 182 196 199 191 170 135 96 
63 46 39 39 47 63 89 121 149 165 164 149 123 94 70 56 50 50 57 70 90 116 144 167 183 190 191 184 170 150 126 103 85 75 72 75 83 92 99 104 105 105 106 113 126 143 162 177 186 187 182 169 153 136 125 124 133 146 159 167 167 159 146 132 122 119 122 129 137 141 138 127 109 91 78 72 77 91 112 136 154 163 160 148 130 112 99 96 102 117 139 163 184 199 207 206 195 170 133 93 
62 46 41 42 51 69 97 128 155 170 170 157 133 104 79 63 57 58 67 84 108 135 160 178 188 190 185 172 152 129 106 87 76 72 74 82 93 104 113 117 116 114 113 117 125 138 152 163 169 168 161 149 134 122 117 121 135 152 167 176 178 174 167 159 153 153 156 162 166 165 156 138 114 91 76 71 78 96 121 146 165 174 173 163 149 134 125 125 134 150 169 187 202 210 213 208 194 167 129 90 
64 51 48 52 63 84 112 142 166 179 179 168 146 118 93 76 69 71 82 102 127 153 174 186 190 186 174 155 131 107 87 75 70 73 83 97 113 127 136 139 137 132 127 125 127 133 140 144 145 141 132 120 108 102 103 114 133 155 173 183 188 187 183 179 178 179 183 186 188 183 171 149 122 97 80 76 85 105 132 157 175 183 182 174 163 153 147 149 159 173 188 201 209 213 212 205 188 161 124 89 
70 61 62 70 85 107 134 160 178 188 187 177 159 134 111 94 87 90 102 123 147 168 183 190 188 178 159 134 109 87 73 67 69 80 97 118 138 153 161 163 159 152 143 135 130 128 127 124 119 111 101 91 84 82 89 106 130 155 175 187 192 193 191 190 190 193 196 199 199 194 181 159 131 105 90 87 97 118 144 167 181 187 185 178 169 161 158 161 170 182 193 202 206 207 203 193 175 149 117 88 
80 78 85 97 115 136 158 177 189 194 192 184 169 148 128 113 107 111 124 143 163 179 188 190 182 166 141 113 89 72 63 63 72 90 114 140 162 176 182 182 176 167 155 143 133 124 115 107 97 87 77 69 66 68 78 97 124 152 173 185 190 191 189 189 190 193 198 201 201 196 184 164 139 116 102 101 113 133 156 174 184 186 181 173 162 155 152 156 164 174 183 189 191 189 183 171 154 131 108 90 
94 102 114 130 147 164 178 189 195 196 193 185 173 156 140 129 125 130 143 159 175 186 190 187 174 152 123 95 73 61 57 62 77 101 131 160 180 191 195 192 185 174 160 146 132 120 107 95 83 72 63 57 55 59 70 90 117 144 165 176 180 178 175 174 175 180 185 190 192 188 178 162 142 125 116 118 130 148 165 177 181 178 168 156 144 135 132 135 142 151 158 162 162 158 150 139 125 111 99 93 
111 127 144 160 174 184 191 195 195 193 188 180 169 157 145 137 136 143 155 169 181 189 189 182 164 138 107 80 62 54 54 63 82 111 144 173 191 199 200 195 186 173 158 142 128 115 103 90 78 67 59 53 52 56 67 86 110 135 152 160 159 154 148 145 146 151 159 166 170 170 164 153 141 131 129 134 146 160 171 175 172 162 147 130 116 106 103 105 110 116 121 123 122 117 111 103 96 92 92 98 
126 148 166 180 189 193 194 193 189 184 177 168 158 148 140 136 138 146 158 172 182 188 186 176 156 127 95 70 55 50 52 63 85 116 151 179 195 201 199 191 179 163 147 132 120 110 101 91 81 71 62 57 55 59 69 85 105 124 136 138 132 122 113 107 107 113 121 130 137 141 140 137 134 134 138 147 158 168 172 169 158 141 120 101 87 79 75 76 80 84 87 87 86 82 79 76 76 80 89 105 
137 160 177 187 192 192 189 183 176 167 158 149 140 132 127 126 130 140 153 167 178 184 183 172 150 120 90 66 52 47 50 62 84 117 152 180 195 199 194 182 166 147 130 117 110 105 102 97 90 81 73 67 65 68 76 90 105 117 122 117 105 92 81 74 73 77 84 92 100 107 112 117 123 132 143 156 166 172 170 159 141 118 95 77 65 59 57 58 61 64 66 66 65 63 62 63 67 76 91 112 
141 161 175 182 183 180 173 165 155 145 135 126 118 112 108 109 114 124 139 154 168 177 178 169 150 121 90 67 52 47 49 60 81 113 148 175 190 193 186 170 149 128 111 101 99 101 105 106 104 99 91 85 82 84 90 101 111 117 115 104 88 73 61 54 51 53 58 64 72 79 88 98 112 128 145 160 170 171 163 146 122 97 76 61 52 49 49 52 56 59 62 63 62 62 62 64 70 80 97 118 
138 152 161 164 162 157 149 140 131 122 114 106 99 94 90 90 95 104 118 136 153 167 173 169 154 128 99 74 57 49 49 58 77 106 139 167 182 185 176 158 134 110 94 88 90 98 109 118 122 121 116 109 106 106 110 118 124 124 117 103 85 67 54 46 43 43 45 49 55 62 71 85 102 124 145 161 169 167 155 133 106 82 64 53 48 49 52 58 65 71 75 77 78 78 78 80 85 93 106 122 
130 134 136 135 132 127 121 115 110 105 100 94 88 82 77 75 77 84 96 114 135 155 169 172 163 142 115 88 67 55 51 56 71 97 128 157 174 178 169 149 123 99 84 79 85 98 115 130 140 143 141 136 132 131 133 137 140 139 130 114 94 76 61 51 45 43 43 45 48 54 63 78 97 121 144 161 167 162 145 121 94 72 59 52 53 58 67 78 89 98 105 109 110 110 109 109 110 113 117 123 
117 112 108 104 101 98 97 98 99 99 98 93 86 78 70 65 63 67 76 93 117 143 164 175 174 161 138 110 85 66 57 57 68 89 118 146 166 172 165 146 121 97 81 77 84 100 121 141 155 161 161 158 154 151 152 154 156 155 148 134 117 98 82 69 60 55 51 50 51 55 63 77 97 122 144 159 163 155 137 111 87 69 60 59 66 78 93 110 126 138 146 150 151 150 147 144 139 134 128 122 
104 92 84 79 77 79 84 92 100 107 108 105 95 83 70 61 55 55 62 76 100 131 160 179 185 180 163 137 109 84 67 61 66 83 109 138 160 170 166 150 126 103 87 82 88 105 127 149 165 173 174 171 166 163 162 164 167 168 165 158 146 131 115 101 89 79 72 66 63 64 70 83 102 125 146 158 160 150 130 106 85 72 68 74 87 107 129 149 165 176 183 185 185 183 179 173 164 151 135 119 
93 77 68 64 65 72 83 98 113 125 130 126 114 97 78 62 52 49 52 64 87 121 156 182 195 195 185 164 136 106 82 69 68 80 102 131 156 169 170 158 138 115 98 92 97 112 134 155 170 178 178 174 168 163 162 164 169 174 177 177 172 165 154 142 130 116 104 93 85 81 84 95 112 132 150 159 159 147 128 105 88 79 81 94 115 140 163 182 194 202 205 206 205 202 197 189 177 160 138 114 
86 70 62 59 64 75 92 113 134 150 156 153 139 118 92 70 55 47 47 56 78 112 151 183 201 206 201 187 162 131 101 80 73 79 98 125 152 169 174 167 151 131 114 106 108 121 140 159 172 178 177 170 161 154 150 152 160 170 179 186 190 189 185 178 168 156 141 126 113 105 104 111 125 142 155 162 159 147 128 108 94 90 98 116 141 166 187 201 209 213 214 213 210 207 201 193 180 160 136 109 
85 71 64 64 71 86 108 133 156 173 180 177 165 142 113 84 62 49 46 52 72 105 146 182 204 213 212 202 183 154 121 94 79 80 95 120 147 167 177 174 162 145 129 120 120 130 145 161 171 174 170 160 147 136 130 131 140 154 170 185 195 201 202 200 194 185 172 156 141 130 125 129 139 152 162 166 162 149 132 114 103 102 113 134 159 182 198 208 212 213 211 208 203 198 193 184 172 154 131 107 
92 81 76 78 87 103 126 152 174 189 196 195 185 165 136 103 75 57 49 52 68 98 139 178 203 215 218 212 196 171 138 106 86 81 91 113 140 162 174 176 168 154 139 130 129 136 148 161 168 168 161 146 129 114 105 105 114 130 151 171 188 199 206 208 205 199 189 175 160 148 142 143 151 160 168 170 165 154 137 121 111 112 123 143 165 184 197 203 203 201 195 189 183 177 171 165 156 144 127 108 
108 100 97 99 108 122 142 163 182 195 202 203 198 183 158 126 94 69 56 54 65 91 130 170 198 213 219 215 204 181 149 115 91 81 87 105 129 152 166 170 165 154 142 133 132 138 148 158 163 161 151 133 113 95 84 81 88 102 123 147 169 186 197 202 203 199 191 179 166 155 150 151 158 166 172 174 170 159 144 128 118 117 125 141 158 173 181 183 180 173 164 155 147 142 139 138 137 133 126 117 
130 128 125 126 130 138 150 165 179 191 199 204 203 194 177 150 117 87 67 59 64 84 118 157 188 207 215 214 205 185 154 119 93 80 82 95 116 137 152 157 154 146 135 128 128 134 143 152 157 154 142 123 101 82 70 65 68 78 95 116 139 159 174 184 187 186 179 170 160 151 148 151 159 168 174 177 173 163 150 134 123 118 120 129 139 148 151 149 142 132 121 111 105 102 104 111 119 127 132 133 
156 156 154 150 147 146 148 154 164 175 186 195 200 199 189 169 140 108 81 66 64 77 104 139 172 194 206 208 200 181 152 119 92 78 77 86 103 120 134 140 138 131 123 117 118 124 134 144 149 147 136 118 98 79 66 59 58 63 73 88 106 124 140 151 158 159 155 149 142 138 138 144 154 165 173 176 175 167 154 139 126 116 112 112 114 115 113 108 99 90 80 73 70 71 78 92 110 128 143 152 
178 179 175 167 156 144 135 132 136 146 161 176 189 196 195 183 160 129 97 75 66 70 88 117 148 174 190 194 188 171 144 113 89 75 73 80 92 106 117 121 119 113 107 103 105 112 122 133 140 140 133 119 102 85 71 62 58 57 61 68 78 91 103 113 120 123 123 121 119 119 123 131 144 156 167 173 173 168 158 144 129 116 105 97 91 86 80 73 66 59 53 50 50 55 66 85 111 137 158 172 
194 194 188 175 156 134 115 103 102 110 126 147 169 185 193 189 173 146 113 85 68 65 74 95 121 147 165 173 169 154 131 106 86 75 73 78 88 98 105 108 105 99 93 90 92 99 109 121 131 135 134 126 114 100 87 76 68 63 60 60 63 68 75 81 87 92 95 96 97 100 106 116 129 143 155 164 168 167 161 150 136 120 104 89 77 67 59 52 47 42 40 39 42 50 66 90 120 150 174 188 
203 202 193 177 152 121 95 78 72 76 90 114 141 167 184 189 181 159 127 96 73 63 64 76 96 118 136 146 145 135 117 99 85 78 78 83 91 98 103 102 97 90 84 81 82 88 98 110 123 132 137 137 131 123 112 101 90 80 71 64 60 59 61 64 69 74 78 81 84 87 93 101 112 125 138 150 158 163 163 157 146 130 111 92 75 61 50 43 39 36 36 38 44 55 75 102 135 164 186 198 
205 203 193 174 145 110 80 60 52 53 63 84 113 145 171 184 183 167 139 107 80 64 60 65 78 94 110 120 123 118 107 96 88 86 88 95 102 108 109 105 98 89 82 78 78 82 91 104 118 132 142 149 151 148 142 133 121 107 92 80 70 64 62 63 66 71 75 79 81 83 85 89 95 105 117 130 144 155 163 164 159 146 128 106 84 66 52 44 39 38 39 44 53 68 90 119 150 175 193 202 
201 198 188 168 138 102 72 52 42 41 47 63 90 124 157 177 183 173 150 120 91 71 62 62 69 80 93 103 108 107 104 99 98 100 106 113 120 124 122 116 106 95 85 80 79 82 90 102 118 134 149 160 167 170 168 163 153 139 122 105 91 81 77 76 79 84 88 91 90 87 83 81 81 86 95 109 126 145 161 171 173 166 151 130 105 82 65 53 47 46 49 56 68 86 109 135 160 179 192 199 
188 186 178 161 133 100 71 51 40 37 40 53 76 109 144 170 181 178 161 135 107 84 72 67 70 78 87 96 103 107 108 110 113 120 128 136 142 143 139 130 117 104 93 87 85 88 95 107 123 139 155 168 177 183 185 182 176 165 150 134 120 109 104 104 107 112 115 114 109 98 87 77 71 71 76 89 108 133 158 176 184 184 175 157 134 110 88 73 65 64 68 78 91 108 127 145 161 173 181 185 
164 166 163 152 132 104 78 57 45 39 41 50 71 102 138 166 181 183 171 151 126 103 87 79 79 84 91 100 108 114 120 126 133 141 150 157 161 160 154 143 129 115 103 97 95 99 107 119 133 147 161 172 181 186 189 189 185 178 168 157 147 140 138 139 143 147 149 145 133 115 94 76 64 59 61 72 92 121 152 178 193 198 194 183 164 142 120 103 94 92 97 106 118 130 140 147 152 155 157 160 
131 139 145 144 133 114 92 71 56 48 47 55 74 104 139 167 184 188 182 167 146 124 106 96 92 94 100 108 117 126 135 143 152 160 167 172 174 171 163 150 135 121 111 107 108 114 123 134 146 157 167 174 179 181 182 181 179 175 171 166 164 164 166 171 176 179 179 173 157 133 103 77 60 51 51 59 78 108 145 177 197 206 207 200 188 171 153 138 129 127 131 138 145 148 146 140 133 126 123 125 
97 111 126 137 139 129 112 92 74 63 60 67 85 113 146 172 188 194 190 179 162 142 124 110 104 104 109 117 127 138 149 158 167 174 179 181 179 173 162 148 133 121 114 113 119 128 140 151 161 168 171 172 171 167 163 160 157 156 157 160 167 175 183 191 197 200 199 192 175 147 112 79 57 46 44 50 67 97 136 172 197 209 213 210 202 190 177 165 159 158 160 164 164 158 145 127 109 95 88 89 
71 89 112 134 146 147 135 117 97 83 77 83 100 127 157 180 193 198 196 187 172 153 133 118 109 108 112 121 133 146 158 169 177 182 184 183 178 168 153 137 123 113 110 114 125 139 154 166 174 177 175 168 158 146 135 127 123 124 130 141 156 173 188 200 208 211 211 204 187 157 119 82 57 44 40 45 59 86 125 163 191 207 212 211 205 197 187 180 177 177 179 180 175 162 140 112 87 70 62 62 
57 77 105 134 155 162 156 140 120 103 96 100 117 142 167 187 198 201 198 189 173 153 132 115 105 102 107 117 131 147 162 174 182 186 185 181 171 156 138 120 106 99 100 109 125 145 163 176 183 183 177 164 145 124 106 93 88 89 97 113 135 160 183 200 210 215 215 209 193 164 124 85 58 43 38 41 54 77 112 150 180 197 204 203 198 191 184 180 180 183 187 187 180 163 134 101 73 54 46 47 
53 74 105 138 163 173 169 155 135 117 108 112 128 151 174 191 200 201 197 185 167 143 120 102 92 89 94 105 122 141 160 174 183 186 183 175 161 142 120 102 89 84 87 99 119 143 165 181 188 187 178 159 133 106 83 68 61 62 70 86 111 142 171 193 207 214 215 209 195 168 130 91 62 46 40 42 51 70 99 132 160 178 185 184 179 172 167 167 172 179 186 188 181 162 132 96 67 48 41 42 
58 81 113 145 169 178 173 158 137 119 110 114 129 152 174 190 198 199 192 177 154 127 102 84 75 73 78 91 109 132 154 171 180 183 179 168 150 128 105 87 75 72 76 89 110 136 161 179 188 188 178 157 127 96 71 55 47 47 53 66 89 120 153 180 198 207 210 206 193 170 136 100 71 54 47 47 53 67 88 113 135 148 153 151 145 139 137 141 152 166 179 185 180 164 134 99 70 51 43 46 
72 96 127 155 173 178 169 150 127 109 100 104 120 144 168 185 194 194 184 165 138 108 83 67 59 59 65 77 97 121 146 165 175 178 173 160 140 117 96 79 69 66 70 81 101 126 151 171 183 184 176 156 127 95 70 53 44 42 46 56 74 101 132 160 181 193 198 197 188 170 144 114 88 71 62 60 63 71 82 96 108 115 115 111 105 100 101 110 127 148 168 180 180 167 142 110 81 63 55 58 
97 120 146 167 177 174 159 135 109 91 83 87 103 128 155 176 187 187 176 154 124 93 70 56 50 50 57 69 89 113 138 157 168 170 164 151 133 113 94 80 72 68 71 79 94 114 137 157 170 175 170 155 131 103 79 62 52 47 48 54 66 85 109 134 155 170 178 181 178 168 152 132 113 99 90 85 83 83 85 87 87 86 82 76 71 68 71 83 103 130 156 174 180 173 153 127 101 83 77 82 
