P2
100 100
255
144 175 201 216 219 207 177 129 81 49 37 39 59 98 148 189 211 217 208 181 136 85 47 28 21 22 28 42 65 99 134 160 173 174 166 149 127 103 83 70 63 60 60 62 70 83 102 122 139 150 153 146 130 108 86 67 53 42 34 31 32 39 53 75 101 130 158 181 197 205 204 194 177 157 135 113 92 72 55 42 34 29 26 25 26 30 39 59 90 132 170 194 203 196 175 145 116 100 101 116 
182 203 218 224 220 201 163 111 65 38 28 30 47 83 132 178 205 213 206 181 139 91 55 36 29 30 36 47 65 87 109 126 133 132 124 113 101 93 90 91 93 93 89 83 77 75 78 87 99 112 124 134 137 133 123 109 92 74 57 43 35 32 36 46 61 83 111 143 173 195 206 209 204 194 181 162 138 109 78 53 36 25 19 16 16 18 26 41 69 109 151 180 193 192 179 160 144 137 143 160 
207 220 227 228 218 192 146 93 52 29 22 25 40 73 123 171 201 212 207 188 153 111 77 58 50 51 57 66 76 85 92 95 94 89 84 80 82 90 106 122 134 137 131 115 95 76 64 61 66 78 97 122 145 160 165 159 144 122 94 67 46 33 28 29 36 49 72 104 143 179 203 215 219 218 211 199 179 148 110 72 45 29 20 16 15 17 24 38 63 98 136 164 178 179 172 162 158 162 174 191 
220 229 232 228 214 181 130 77 41 24 18 22 38 71 120 169 200 213 211 198 173 141 113 96 89 90 95 100 101 97 87 76 66 59 55 58 69 92 124 154 174 181 173 152 119 85 60 47 45 55 77 111 149 180 196 199 190 170 139 100 65 40 28 23 23 30 46 75 117 162 197 217 226 229 227 221 206 180 141 97 61 39 27 22 22 26 34 49 71 99 128 147 155 153 149 146 152 167 187 206 
223 232 233 227 208 170 116 65 35 21 18 24 42 76 125 172 202 214 215 206 191 172 155 144 141 143 146 146 137 118 93 68 51 41 38 44 61 94 138 178 202 210 204 182 145 99 62 40 34 40 62 100 149 190 213 222 219 205 176 133 86 51 30 21 18 22 33 58 100 150 191 215 228 233 233 230 220 200 166 124 84 57 43 38 40 47 59 75 94 113 127 131 127 119 113 115 129 154 183 207 
220 231 232 224 202 159 104 57 31 21 21 30 51 88 136 178 203 214 214 209 201 192 185 183 185 188 190 186 172 143 105 68 44 31 28 35 55 94 146 191 217 226 222 203 167 116 69 40 29 32 52 91 146 193 221 232 233 223 200 158 105 61 35 23 18 20 31 54 94 144 187 213 226 231 232 229 222 207 182 147 112 87 74 71 77 88 103 118 131 137 133 118 100 84 76 79 96 128 166 199 
213 227 229 220 194 149 94 53 31 24 28 41 67 106 150 184 202 207 206 202 198 196 198 203 210 215 216 212 196 165 119 73 42 27 23 29 50 91 147 195 223 233 231 216 183 132 78 43 28 28 46 84 140 191 222 235 238 230 210 171 117 69 40 26 22 25 37 61 100 148 186 209 220 224 223 220 213 202 184 162 139 123 117 120 130 143 157 167 171 163 142 110 80 58 48 50 66 98 143 185 
204 221 225 214 186 139 87 51 34 32 41 61 92 130 164 185 193 190 184 179 178 183 193 206 217 225 228 225 211 180 132 80 44 25 20 26 46 86 144 194 223 235 235 223 195 147 91 50 30 28 43 80 136 188 219 234 236 229 210 172 120 73 45 33 31 38 53 80 118 158 188 203 208 207 203 197 190 181 172 163 157 156 161 170 181 192 200 205 200 183 150 105 66 42 31 32 44 73 118 168 
192 214 218 206 175 128 82 52 42 46 63 90 123 153 174 179 173 159 146 137 138 150 170 192 212 225 231 230 219 192 145 91 50 27 20 24 42 81 138 191 221 235 236 227 204 162 107 62 38 33 46 81 134 184 215 228 230 221 199 161 113 73 51 44 48 61 83 113 145 173 189 193 188 178 166 155 147 143 143 149 161 175 190 203 213 221 225 225 217 195 153 101 58 33 22 22 31 55 98 150 
182 206 210 195 162 117 78 57 55 69 95 126 155 174 177 165 143 117 98 88 90 105 131 165 195 217 228 230 222 200 160 106 61 35 24 26 43 79 134 185 218 232 235 229 211 175 126 79 52 44 56 88 136 180 208 218 216 203 177 138 98 70 58 61 75 98 125 152 174 187 189 179 159 137 117 103 96 96 105 124 151 180 203 219 229 235 237 234 224 198 152 95 51 27 17 16 24 45 84 136 
173 197 199 181 146 106 76 65 74 99 132 163 183 187 175 146 110 78 57 48 50 64 90 128 169 201 220 227 224 208 175 128 81 50 35 34 48 81 130 179 211 227 232 228 214 187 145 103 74 65 75 104 143 178 197 202 193 173 143 109 80 66 67 83 110 141 168 187 198 198 187 162 128 96 72 59 54 58 71 96 133 173 204 224 234 240 241 237 225 196 146 88 46 24 15 14 22 41 77 128 
167 188 186 163 128 94 74 76 97 132 167 192 202 195 169 126 82 50 33 26 27 37 58 92 136 177 205 220 222 213 191 154 112 78 58 53 62 88 129 170 200 216 222 221 211 192 162 129 105 97 105 127 154 175 183 177 159 133 103 78 63 62 77 107 144 177 200 211 213 205 184 148 105 68 46 34 32 35 48 72 111 157 196 221 234 240 241 236 221 189 136 80 41 21 14 14 22 41 77 125 
166 180 171 143 109 82 73 86 119 159 192 210 213 198 162 111 64 34 20 15 16 23 38 64 103 147 184 207 216 215 203 180 149 118 96 85 87 102 128 157 180 195 202 204 199 188 171 152 137 133 138 151 164 170 164 146 120 93 70 55 51 60 86 126 169 200 218 224 221 209 183 142 95 58 36 26 23 26 36 56 91 136 180 210 227 235 236 231 214 178 124 70 36 20 14 16 26 47 84 129 
168 173 155 123 90 70 71 93 134 178 207 221 218 198 157 102 55 28 15 11 12 17 27 46 75 114 154 185 204 211 210 199 182 162 142 127 119 118 125 137 149 159 166 170 171 170 167 163 161 163 167 171 172 163 144 117 88 64 48 41 44 60 92 137 180 209 224 228 223 210 185 145 100 63 41 30 26 27 32 46 72 111 154 189 212 224 227 221 202 164 110 62 33 19 16 21 34 60 98 140 
173 167 141 104 73 60 66 95 141 186 214 225 221 199 157 100 54 27 16 13 14 18 25 37 56 85 120 154 181 198 207 209 204 194 182 167 150 133 120 112 110 111 115 121 129 139 150 162 172 180 184 183 174 155 127 96 68 49 39 36 43 60 93 137 179 206 220 223 220 209 189 156 117 83 60 47 39 36 36 43 58 86 121 157 185 203 210 206 187 149 99 57 33 22 22 30 49 80 120 156 
180 164 128 88 60 50 59 90 138 184 214 225 221 201 161 107 62 35 24 21 22 25 29 36 47 64 88 117 147 174 194 207 213 213 206 193 172 142 111 87 74 68 69 74 85 103 126 151 172 185 190 185 171 147 115 85 62 48 41 41 47 63 91 128 164 189 203 209 209 203 191 171 145 119 97 80 67 55 47 44 49 64 87 116 145 169 182 184 169 136 94 59 39 32 35 49 74 110 148 174 
187 161 119 77 50 42 51 79 125 173 206 220 219 203 169 123 80 54 42 39 41 43 44 45 46 52 63 82 108 139 170 196 212 219 218 207 183 145 102 68 49 40 39 43 54 74 102 136 164 182 186 179 162 137 109 85 69 60 56 57 61 71 88 112 137 157 171 179 184 187 187 182 173 160 145 128 109 87 66 52 45 48 59 78 102 127 148 158 153 131 101 73 57 53 60 80 111 146 176 191 
193 161 113 69 43 34 41 64 104 150 187 207 212 202 179 145 111 88 77 75 77 77 73 65 55 49 48 56 73 101 138 175 202 217 220 211 185 142 93 56 35 26 24 28 38 58 88 124 156 173 176 166 148 126 106 93 88 87 87 88 87 87 90 95 104 114 123 133 146 160 175 187 193 193 187 175 154 124 90 62 45 39 41 50 67 90 116 137 145 138 121 102 90 90 101 124 153 180 199 204 
198 162 112 66 39 29 32 48 78 118 156 183 196 197 186 168 148 134 129 129 131 129 118 97 73 53 42 40 48 69 105 149 187 210 218 210 183 136 85 47 28 20 19 23 35 55 87 122 150 163 161 147 129 113 106 108 116 126 132 132 126 113 98 85 76 74 77 85 101 126 157 185 203 213 214 207 189 156 112 72 47 34 31 35 47 68 98 128 149 156 151 142 136 138 150 168 188 205 215 213 
202 167 115 67 38 26 26 35 54 82 116 146 169 182 186 184 180 177 178 182 184 180 164 134 96 62 40 31 33 47 78 124 170 201 213 206 178 129 78 43 25 19 20 27 42 67 99 132 152 156 144 125 107 99 104 121 145 165 176 176 166 144 113 82 60 48 45 50 66 95 137 178 207 222 227 223 207 173 125 78 47 31 26 28 39 60 94 132 162 177 181 179 178 180 188 200 211 220 224 219 
208 175 125 75 41 26 22 25 35 53 76 104 133 159 179 191 199 205 210 215 217 212 196 163 116 71 42 28 25 36 62 107 157 193 208 201 172 123 73 41 25 22 27 40 62 93 126 152 162 153 131 104 86 84 99 129 164 191 206 207 197 171 131 87 54 35 28 31 45 75 122 172 207 226 232 228 212 177 126 76 44 29 24 27 39 63 102 145 178 196 203 203 203 204 209 216 222 227 229 224 
213 186 140 89 50 29 21 20 24 33 47 69 98 133 166 191 208 218 225 230 232 228 212 179 128 77 43 27 23 32 56 100 151 189 204 198 168 119 71 42 29 30 41 63 95 131 161 177 176 155 121 88 69 69 89 128 172 204 221 224 215 191 148 96 54 31 22 23 35 64 113 168 206 226 232 227 207 169 116 69 40 27 23 29 44 74 117 160 191 207 212 212 211 211 214 219 224 229 230 226 
219 198 160 110 67 39 24 19 18 22 31 47 74 112 155 188 210 223 231 236 236 231 214 180 128 77 43 27 25 35 61 106 156 191 205 196 166 118 72 45 37 44 65 98 137 172 193 200 189 160 116 77 56 55 76 118 168 206 226 232 225 204 163 108 60 32 21 21 33 62 112 167 206 225 229 219 194 151 98 57 34 25 25 34 55 90 135 174 199 209 210 206 202 200 203 209 217 224 228 227 
222 209 181 138 91 55 34 23 19 20 25 39 64 103 149 187 211 224 231 234 233 225 205 169 118 72 43 31 32 47 78 124 169 198 208 197 166 118 75 52 49 64 96 139 177 204 217 216 200 164 114 69 46 44 62 102 155 199 224 233 230 212 175 120 68 37 23 23 35 65 115 169 206 222 222 207 174 126 78 46 29 25 30 44 71 110 151 182 197 199 192 182 173 170 173 183 197 210 221 225 
223 217 199 166 123 81 51 34 26 25 30 43 69 109 153 188 210 222 226 226 221 208 184 146 100 64 44 39 47 70 107 151 188 208 212 199 165 119 78 59 62 87 129 173 206 224 231 226 207 168 112 65 39 34 48 84 136 187 218 231 231 217 185 133 79 43 28 27 40 71 120 172 204 217 211 189 149 100 60 37 28 29 39 60 93 131 165 184 186 176 158 139 125 120 124 139 161 185 205 218 
218 221 212 190 156 115 80 57 45 42 48 63 91 128 166 194 210 216 215 209 197 177 149 113 79 56 48 54 73 105 144 181 206 218 216 199 163 116 79 64 73 106 154 196 223 236 238 232 211 170 112 61 34 27 37 65 114 169 208 227 230 220 192 144 90 51 34 33 46 77 125 172 201 208 197 167 123 78 48 33 31 39 57 85 120 153 174 178 165 140 112 89 74 69 73 88 114 146 179 204 
205 217 217 206 183 151 117 92 78 75 83 101 128 158 184 201 207 204 194 178 157 132 105 79 60 52 57 76 108 145 180 206 221 225 217 195 155 109 75 64 79 117 167 207 230 240 242 234 213 171 111 59 31 22 27 50 93 149 195 220 228 221 197 153 100 60 40 38 52 82 126 169 193 196 180 145 101 65 43 37 42 59 85 118 151 173 179 167 138 102 71 50 38 34 37 49 70 103 143 180 
183 205 214 211 198 177 153 133 122 122 132 149 169 188 201 205 200 185 162 135 108 84 65 52 47 52 72 105 145 182 208 223 230 228 215 186 142 96 66 59 76 116 167 208 231 241 242 235 214 172 111 58 29 18 21 39 76 130 182 213 224 220 199 159 107 66 46 43 55 83 123 160 181 182 163 128 90 63 50 52 66 91 123 155 179 189 182 155 114 73 44 27 19 16 18 26 41 67 105 148 
152 182 199 203 198 187 174 164 161 166 176 189 201 210 212 206 188 159 123 90 65 48 38 35 40 57 90 135 178 208 225 233 234 226 207 171 122 79 54 49 66 103 155 199 226 238 240 233 213 171 112 59 29 17 18 32 65 117 171 205 220 218 198 160 110 70 49 45 55 79 114 147 167 167 150 122 93 75 71 82 104 134 164 188 201 201 184 147 99 57 30 17 11 9 10 15 25 43 73 112 
117 149 170 180 181 177 174 174 180 191 202 213 220 222 217 202 173 131 89 57 38 27 24 27 39 66 110 160 200 223 234 237 233 220 193 149 99 61 41 38 52 84 132 180 212 229 234 229 210 170 113 62 32 19 20 32 63 112 165 201 216 213 194 155 107 69 49 45 53 73 102 132 152 157 147 128 111 103 108 124 149 175 196 211 215 209 187 145 94 51 26 14 9 7 8 11 18 30 51 81 
87 113 132 142 146 148 152 162 177 194 210 221 227 226 217 195 156 107 64 37 23 17 17 24 41 76 128 179 214 231 238 237 228 208 172 123 76 45 30 29 39 63 103 150 189 213 223 221 204 168 116 68 39 27 27 41 72 119 168 200 212 208 186 146 100 64 47 42 49 65 91 120 142 153 153 146 140 141 151 167 187 204 216 223 223 214 191 151 100 57 31 18 13 11 11 13 18 26 40 61 
71 86 97 102 104 106 114 130 153 179 201 216 224 223 212 185 140 88 49 27 16 13 15 25 47 89 144 193 221 234 237 232 217 189 145 95 56 33 23 22 28 45 74 115 156 186 202 205 193 163 120 80 54 43 46 63 95 138 178 202 210 201 174 132 88 57 42 39 45 60 83 112 139 157 165 168 170 176 186 198 210 219 225 228 225 217 197 163 117 75 47 32 25 22 21 23 26 32 42 55 
73 77 77 73 70 70 76 91 116 147 176 198 210 211 199 170 124 76 42 23 15 13 17 30 58 104 159 202 225 234 232 222 199 161 113 69 40 24 18 18 22 33 52 81 116 148 170 179 174 155 126 98 79 74 81 100 131 165 193 207 208 193 160 116 75 49 38 36 43 57 81 112 143 166 180 188 194 200 207 213 219 223 225 225 222 215 201 177 142 107 79 61 51 47 45 46 48 53 59 67 
96 88 77 64 53 48 49 59 78 105 136 164 182 187 178 151 111 71 42 26 19 19 26 43 75 124 174 208 225 228 221 203 171 127 82 49 29 20 17 17 21 28 40 58 83 108 130 143 147 142 131 120 115 118 129 148 171 192 207 212 205 183 145 100 64 43 35 35 43 60 86 119 152 177 192 201 206 210 213 215 216 215 214 212 210 206 200 188 169 147 126 110 99 93 90 90 91 94 97 98 
134 117 96 72 53 41 36 39 50 68 92 118 140 151 149 132 103 74 51 38 33 35 45 66 102 147 187 211 220 216 201 173 134 91 57 35 24 19 19 22 26 31 39 49 63 78 94 107 117 125 132 140 150 161 175 189 202 213 218 215 201 172 130 86 55 39 35 38 49 68 96 131 162 185 198 206 208 209 207 203 197 191 186 183 183 185 189 190 188 181 173 164 157 153 149 148 148 148 147 143 
174 155 128 97 68 48 36 32 34 43 58 76 95 110 118 116 104 89 75 66 63 67 80 104 137 172 197 210 209 196 170 134 94 61 39 27 23 24 28 34 41 47 52 56 60 65 71 79 91 107 127 151 173 191 204 214 220 224 222 213 194 160 116 77 52 41 40 47 61 83 112 144 170 187 196 199 198 192 184 172 160 148 139 135 138 149 165 182 195 202 205 204 202 200 198 196 194 193 190 185 
202 187 163 131 97 67 47 34 30 31 37 48 62 79 95 109 117 118 115 112 112 117 130 150 172 192 203 202 189 164 130 93 62 40 29 26 29 37 48 61 73 81 84 82 76 68 64 64 72 89 116 149 180 203 217 224 227 226 220 207 182 146 105 73 55 50 54 65 83 106 132 155 172 181 183 179 171 159 143 125 108 94 84 81 87 103 130 162 191 210 220 224 225 224 223 221 219 217 214 210 
215 207 191 167 135 100 70 48 35 29 29 34 44 61 85 113 137 153 161 164 167 171 179 189 199 204 201 187 161 126 89 60 40 29 27 32 44 62 84 107 124 133 133 124 107 86 69 59 60 74 100 137 173 199 215 222 223 219 209 191 164 130 97 75 67 70 80 96 115 134 150 161 165 162 155 144 130 113 95 78 63 52 45 43 49 65 95 137 178 207 224 231 234 233 231 228 225 222 220 218 
215 214 208 195 172 141 106 75 51 36 30 30 37 54 84 123 159 185 198 204 206 208 211 213 212 207 191 164 127 89 58 39 28 26 32 46 70 101 133 160 177 185 183 170 146 114 83 62 55 62 83 116 153 182 200 207 206 199 185 164 138 112 93 85 89 102 119 137 152 162 164 159 148 134 118 102 87 72 58 46 36 28 24 23 28 42 69 112 160 198 219 229 232 230 225 220 215 212 211 213 
201 210 214 211 200 179 148 113 80 54 39 33 38 55 89 134 177 205 219 225 227 227 226 223 215 200 174 137 96 62 40 28 26 31 46 71 107 146 179 202 214 219 215 203 178 141 101 70 55 55 69 94 125 152 170 176 172 162 145 126 107 95 92 102 120 141 161 175 183 182 171 151 126 102 82 67 55 45 37 29 23 19 16 16 19 30 53 91 140 182 207 218 219 214 205 195 186 182 184 191 
174 196 212 219 217 206 186 155 118 83 57 44 45 61 95 143 187 215 229 234 235 234 230 222 209 186 152 110 72 46 32 28 32 45 70 107 149 185 211 226 233 235 231 219 197 162 118 82 61 55 62 78 99 118 129 131 124 112 98 85 78 81 95 121 151 176 194 203 203 192 170 137 102 75 56 45 38 33 29 25 21 18 16 16 19 28 46 78 120 160 184 193 191 180 164 149 136 132 137 153 
137 173 202 219 225 223 212 190 158 120 84 62 55 68 100 146 189 216 230 235 234 231 224 213 194 165 128 89 59 42 35 37 48 71 105 146 184 211 228 237 240 240 235 224 204 172 132 96 73 64 66 75 85 92 93 88 79 69 60 55 57 72 101 140 176 201 214 218 213 196 164 122 83 56 42 35 33 32 31 30 28 26 25 24 27 34 49 73 105 134 151 154 146 129 110 92 81 78 85 105 
100 145 187 214 228 231 227 214 190 155 115 83 68 74 100 140 180 207 221 226 224 218 208 192 169 140 107 78 58 49 50 59 79 109 145 181 208 226 235 239 240 237 231 219 201 173 140 111 93 86 86 89 89 84 74 62 51 42 37 37 46 68 107 155 193 216 226 226 216 194 155 107 68 45 36 34 37 41 46 48 49 48 46 46 47 53 64 80 97 111 116 110 96 79 62 49 41 40 47 66 
73 120 170 206 226 234 234 227 210 182 142 104 80 76 92 123 158 184 198 202 199 190 176 158 136 113 93 78 71 72 81 98 122 152 181 206 222 232 236 236 232 226 216 203 185 163 142 127 120 120 122 121 113 96 74 54 38 29 25 28 40 67 113 165 204 224 231 229 216 188 144 95 59 41 36 41 51 64 76 85 88 88 87 86 86 89 94 99 102 98 88 74 59 45 33 25 21 21 27 43 
57 101 153 196 221 233 236 232 220 196 159 117 86 73 78 97 123 144 157 160 155 144 130 116 103 94 90 92 99 110 126 145 166 188 206 219 227 230 229 224 215 203 188 171 155 142 137 140 149 158 164 162 149 124 90 59 37 25 21 24 38 68 118 172 210 228 233 229 213 181 133 85 53 41 43 56 77 101 122 136 143 144 143 141 139 138 136 130 117 98 75 55 39 28 20 16 14 14 19 32 
50 87 136 181 211 226 231 229 220 199 164 121 85 66 63 70 84 97 105 106 101 93 84 79 79 86 100 118 136 154 170 185 198 209 217 221 222 219 211 199 183 163 142 124 113 113 125 147 171 189 198 198 185 157 115 73 42 26 20 23 37 70 123 177 213 229 233 227 207 171 121 77 51 45 55 79 112 144 169 184 190 192 191 188 186 182 175 161 138 107 75 49 32 23 17 14 14 15 19 29 
49 78 118 161 192 210 218 218 210 190 157 115 80 58 50 50 54 59 62 61 58 55 53 58 70 91 120 148 172 188 200 207 212 214 214 211 205 194 179 158 135 111 91 77 74 85 111 149 184 208 220 221 211 185 142 91 51 29 21 23 39 73 127 180 214 229 231 222 200 160 110 71 52 53 73 107 147 180 202 213 217 218 217 215 212 208 200 185 159 122 84 54 36 26 21 20 20 22 25 33 
55 73 100 133 162 181 192 195 188 171 141 105 73 53 42 38 37 38 38 37 35 36 40 52 75 108 144 175 196 208 213 213 210 205 197 186 172 154 133 109 85 66 52 45 48 64 99 147 191 219 232 234 227 206 165 110 62 34 23 25 41 77 132 183 215 228 227 215 189 146 99 67 56 65 93 134 174 202 218 225 226 226 224 223 221 218 212 199 176 141 103 70 50 39 35 35 36 38 41 45 
68 73 84 102 121 138 151 157 155 144 123 96 71 53 42 35 32 29 28 27 27 31 41 60 91 131 168 195 209 214 211 204 192 178 162 145 127 107 87 68 51 39 31 28 34 52 90 143 192 223 237 240 235 217 181 126 73 40 27 29 47 85 139 187 214 224 221 205 173 130 89 65 63 81 115 157 191 212 221 224 222 220 218 217 216 216 213 204 188 161 129 99 79 69 66 67 69 71 71 69 
91 79 73 75 82 92 103 113 119 119 111 96 79 64 52 43 36 31 28 27 29 37 52 79 116 156 187 205 211 207 196 178 157 136 116 99 84 70 58 46 36 28 23 22 28 45 82 136 188 222 238 242 238 223 190 137 82 47 33 36 57 97 148 191 213 219 211 189 154 113 80 67 74 100 137 174 200 212 215 211 205 199 196 196 198 202 204 202 194 179 158 137 122 115 115 118 121 122 116 105 
117 88 67 57 55 58 67 80 94 107 113 112 103 91 77 64 52 43 38 37 41 53 76 108 146 179 200 208 204 189 166 138 111 89 74 63 56 52 47 42 35 29 24 23 27 42 74 125 178 215 234 240 236 222 190 140 88 54 42 48 73 115 161 195 210 210 195 167 130 95 75 73 90 122 158 187 202 205 199 186 172 161 156 157 164 175 185 193 194 191 182 173 167 165 168 172 175 174 164 145 
139 97 65 46 39 40 49 65 88 113 132 142 141 133 118 101 84 69 60 58 64 81 109 143 174 197 207 205 189 162 127 95 70 54 47 45 47 51 54 54 50 42 34 29 29 39 65 109 160 200 222 231 228 213 183 137 91 63 56 68 97 138 175 198 205 196 173 140 105 81 73 83 110 145 177 196 201 193 174 149 126 111 105 108 119 137 157 174 187 194 197 197 198 201 205 209 211 209 199 176 
151 102 63 41 33 34 45 67 99 134 162 177 181 177 165 148 127 108 94 90 97 117 145 173 196 208 208 196 169 130 90 60 43 35 35 41 53 68 81 86 82 70 55 43 36 39 56 88 132 173 199 210 208 193 164 125 90 72 74 94 127 162 188 199 195 175 144 110 82 70 75 98 134 168 193 202 197 178 146 111 83 67 62 66 78 98 123 149 172 189 200 208 214 219 223 227 229 226 216 192 
154 101 61 39 31 35 51 82 123 162 190 206 211 209 201 187 167 146 129 123 130 149 173 194 208 213 206 185 148 102 64 40 29 27 33 48 72 100 123 134 131 115 90 66 49 42 48 68 99 133 159 172 171 157 133 105 86 83 97 125 157 183 197 196 179 149 113 82 64 64 81 116 156 188 205 207 194 165 122 82 55 42 38 42 52 69 92 120 148 173 192 207 217 224 230 234 235 232 222 197 
147 95 56 37 32 41 64 104 150 189 212 224 228 226 220 208 190 169 151 142 148 165 186 204 213 214 203 177 133 85 49 30 23 26 38 62 99 139 169 183 180 163 134 99 69 51 45 52 69 90 110 121 121 111 96 84 81 93 120 153 181 198 200 187 158 120 84 60 52 61 89 133 175 203 215 212 193 157 109 67 42 31 29 32 39 51 69 92 119 147 173 194 211 222 230 235 236 232 220 193 
134 84 50 35 35 49 81 128 175 208 226 234 235 233 225 212 192 169 148 139 144 162 184 203 213 213 202 173 128 79 45 28 23 29 46 79 127 172 202 215 214 200 173 136 96 65 49 45 49 59 69 75 75 71 66 66 77 102 138 173 196 204 196 171 132 91 61 45 44 61 97 146 189 214 222 216 194 155 105 64 40 30 28 30 35 42 53 68 89 114 142 171 195 213 225 232 233 229 214 183 
117 71 43 33 37 57 96 148 193 221 233 238 237 231 220 201 175 146 124 114 120 141 169 193 208 212 202 176 133 85 50 32 27 34 55 94 147 193 220 231 230 221 200 167 125 87 61 48 43 44 47 48 48 46 47 55 75 110 152 185 203 203 185 150 106 67 44 35 40 61 102 154 196 219 225 218 196 156 107 67 44 34 32 32 35 38 43 51 62 80 106 138 172 199 217 226 229 222 204 167 
98 58 36 31 38 63 107 162 204 227 236 238 233 222 203 175 140 108 86 78 86 109 144 178 201 210 206 186 148 102 63 40 33 39 61 102 155 199 225 235 236 229 215 189 154 115 84 63 51 45 42 39 37 36 39 51 76 116 160 190 202 195 168 126 81 49 32 28 36 59 101 154 196 218 224 217 195 157 111 74 52 42 38 37 37 37 37 39 43 53 73 104 144 181 207 220 223 214 190 148 
80 47 30 28 38 64 112 167 208 228 235 233 224 205 174 136 98 69 52 47 56 79 118 161 194 210 211 198 169 126 83 54 42 44 63 101 151 194 219 231 233 230 220 203 177 146 116 92 75 63 53 45 39 36 40 53 81 123 165 191 198 184 149 103 62 36 25 24 33 55 95 146 187 210 216 208 187 152 113 81 62 53 48 45 41 37 33 31 31 36 51 79 121 165 197 214 217 205 176 129 
66 38 25 25 35 62 109 165 205 226 231 225 208 178 136 94 60 39 29 27 36 58 98 148 188 211 217 210 189 152 107 71 51 48 61 91 135 176 203 218 223 223 218 208 193 174 153 132 114 97 81 65 53 47 48 62 91 132 169 190 192 172 132 85 49 29 21 22 31 51 85 129 168 190 196 188 168 140 110 88 75 68 63 56 48 40 32 27 25 28 40 66 109 157 192 210 212 196 161 111 
55 31 21 21 31 56 101 156 199 220 223 213 187 145 98 60 35 22 16 17 26 48 88 142 187 213 223 220 205 174 130 87 59 49 55 75 108 145 174 193 203 207 208 206 201 193 183 172 158 142 122 100 81 68 67 79 107 144 175 191 188 164 123 77 45 27 21 23 31 47 74 107 138 157 161 153 137 119 103 94 92 90 85 74 61 46 35 27 24 27 40 67 111 159 193 210 209 189 149 97 
48 26 18 18 27 49 91 145 189 211 213 197 162 114 68 37 21 13 11 13 24 47 89 144 190 217 227 227 215 188 145 98 65 49 48 58 79 107 133 155 171 182 190 197 201 203 202 200 193 182 164 141 116 98 93 103 128 159 184 195 189 165 125 82 51 34 28 30 36 49 66 87 106 116 116 110 101 95 95 102 112 118 115 102 82 61 44 34 30 35 51 82 127 171 201 213 209 185 140 87 
43 24 16 16 24 44 82 134 179 202 203 182 140 89 49 25 14 9 9 14 27 53 99 154 197 221 230 229 218 191 149 101 65 46 41 45 57 74 94 114 133 151 167 182 194 204 210 214 213 206 193 172 148 127 120 128 149 175 193 201 195 175 141 102 72 54 47 48 53 60 69 77 81 81 77 72 70 75 90 112 134 148 149 136 113 86 64 51 48 56 77 112 154 190 211 218 210 183 135 81 
40 22 15 15 22 41 77 128 173 196 195 171 126 76 39 20 11 9 11 19 36 68 118 169 206 225 231 227 213 185 141 94 60 43 37 39 46 57 71 87 104 124 145 166 185 200 210 217 218 214 204 186 163 144 137 145 165 186 202 208 205 191 166 136 109 92 84 83 85 87 86 80 71 61 53 49 52 65 90 124 156 176 181 171 150 122 98 83 81 92 117 151 184 209 222 224 212 182 131 77 
39 22 15 16 24 44 81 130 173 195 193 168 123 73 39 20 13 12 17 29 52 92 142 186 214 226 228 220 200 167 122 81 53 40 37 39 46 56 68 81 96 114 134 155 175 191 203 210 212 208 197 179 158 142 139 150 171 193 208 215 215 207 193 174 156 144 137 135 133 128 117 98 76 57 44 40 46 65 98 140 176 197 203 197 182 160 140 127 126 139 161 187 208 223 230 227 213 180 127 74 
39 23 18 21 32 55 94 143 181 200 198 175 131 82 46 27 19 20 29 47 78 122 168 202 220 225 220 205 177 138 97 64 46 39 41 49 61 75 88 100 111 123 137 152 166 178 187 192 191 185 171 153 134 122 124 140 167 192 210 220 222 220 213 204 195 189 185 183 180 171 153 125 93 65 47 42 51 74 113 157 191 210 216 213 203 189 175 166 168 178 194 211 224 231 233 228 211 175 122 71 
40 27 25 32 48 77 119 163 195 209 206 187 149 102 63 41 33 36 50 76 114 156 192 213 222 219 206 180 144 104 70 49 40 42 53 71 92 112 127 138 144 148 152 155 157 160 161 160 155 145 130 112 97 91 98 120 153 185 208 221 226 227 224 221 218 215 214 213 210 202 184 154 117 84 63 57 67 95 135 174 203 217 222 219 212 202 193 188 190 199 210 221 229 233 232 224 203 165 114 68 
43 36 40 53 77 111 152 187 209 219 216 201 171 129 90 65 56 63 83 116 153 187 210 220 220 208 183 146 106 71 49 38 38 49 71 102 133 157 172 179 180 176 169 159 147 136 127 118 109 98 85 72 64 62 72 96 132 170 200 217 225 228 228 227 226 226 226 226 223 217 202 177 144 111 89 85 97 125 160 190 210 219 221 216 208 198 190 187 191 199 209 218 224 226 222 211 187 149 102 65 
52 53 65 87 118 152 184 208 222 227 224 212 190 156 120 96 89 100 125 157 187 209 221 222 214 191 154 110 72 46 34 31 39 60 94 136 172 195 207 210 206 197 181 159 134 111 93 80 70 61 52 45 41 42 51 73 107 148 183 205 216 221 222 222 222 222 223 224 222 217 207 189 164 140 124 122 134 157 182 202 213 215 210 201 188 176 166 164 168 177 188 198 204 205 200 185 160 125 89 63 
66 79 102 132 162 189 209 223 230 231 228 218 200 174 145 125 122 136 161 188 209 222 226 221 204 171 125 79 47 30 24 28 42 71 116 164 200 219 226 226 220 207 185 153 117 88 67 54 46 40 35 31 29 31 39 56 84 120 156 181 195 201 203 202 202 203 205 206 206 203 197 186 173 161 155 158 169 184 198 207 208 201 188 170 151 134 123 120 124 134 146 157 164 166 159 145 123 98 76 65 
85 111 142 172 196 213 224 230 233 232 227 217 200 177 153 138 139 156 181 204 219 227 227 218 194 153 100 58 32 21 19 26 44 80 132 182 215 230 235 233 225 208 179 140 99 69 50 40 34 30 28 26 25 27 33 45 65 92 121 144 158 163 164 162 162 162 164 167 169 170 169 168 167 169 174 182 192 201 206 204 193 175 151 125 102 86 76 73 77 85 95 105 111 113 109 99 86 74 67 70 
105 139 173 199 215 225 230 232 231 226 218 205 185 161 140 129 135 155 182 205 221 227 226 214 186 139 85 45 24 16 17 25 45 84 140 191 221 234 237 233 222 200 165 121 81 54 40 33 31 29 29 28 28 29 33 41 54 71 89 104 111 113 111 108 105 105 107 110 114 119 124 133 146 162 179 194 203 207 204 191 169 139 108 81 61 49 43 41 44 49 56 63 68 70 69 65 61 59 64 79 
119 156 187 208 220 226 227 226 221 213 199 179 154 129 109 102 111 134 165 194 214 223 223 211 181 132 79 41 22 15 15 24 44 84 141 192 221 234 236 230 214 185 143 98 64 44 35 33 34 36 38 38 39 40 43 48 55 63 71 75 75 71 66 61 58 57 58 60 64 69 78 93 116 145 174 195 205 205 194 171 137 100 70 49 36 29 26 26 29 33 37 42 46 49 50 50 51 55 66 87 
123 156 184 202 211 214 214 210 201 187 167 141 113 89 74 69 78 101 135 170 198 214 218 209 182 136 83 44 23 15 15 23 42 80 135 187 218 231 231 222 201 165 118 76 50 38 35 39 46 53 59 62 64 65 66 68 70 71 70 65 58 49 41 35 32 30 30 31 33 38 46 61 88 124 162 189 201 197 178 144 104 69 45 31 24 21 22 24 28 33 38 43 47 50 51 53 55 61 72 93 
116 140 161 176 184 186 185 179 168 150 127 100 75 57 46 43 50 68 99 138 175 201 212 209 188 148 97 55 30 19 17 22 39 73 125 178 211 225 225 213 186 143 95 59 41 36 41 53 68 84 96 103 106 107 107 106 103 98 89 77 62 48 36 28 22 19 18 17 19 22 28 42 67 106 148 179 191 184 158 118 78 49 32 24 22 24 28 34 42 50 58 65 70 73 75 75 74 76 82 95 
100 111 123 132 138 141 140 136 127 112 92 71 52 38 30 28 32 44 67 103 146 183 205 210 197 166 121 76 45 27 21 23 36 65 113 166 202 219 219 204 172 125 79 50 38 41 54 77 103 127 144 153 157 157 155 152 148 139 126 108 86 65 48 35 26 20 16 14 14 16 21 33 57 95 138 170 181 170 138 97 61 38 27 25 28 36 47 61 76 89 101 110 116 119 118 114 108 100 95 94 
83 80 82 85 89 92 95 96 95 88 75 60 45 33 25 22 22 29 45 75 118 164 196 210 207 188 152 108 69 43 29 26 35 59 101 153 192 211 213 197 164 116 74 49 43 53 76 109 144 170 186 194 196 195 193 190 186 179 167 150 127 102 78 58 43 31 24 19 16 17 22 33 57 93 135 166 174 158 123 83 52 35 29 33 44 62 84 107 128 145 157 166 170 171 168 161 147 129 109 92 
68 56 52 51 53 58 66 75 83 85 81 69 55 40 29 22 19 22 32 55 94 144 186 210 216 207 183 146 104 68 44 34 36 54 91 140 182 205 209 195 163 119 80 59 57 74 106 144 178 200 212 216 216 213 211 209 207 204 198 187 171 150 125 100 77 58 44 34 28 26 31 43 67 104 142 168 172 153 117 78 50 38 38 49 71 101 133 161 181 195 203 208 210 209 204 195 179 153 120 89 
59 43 35 33 36 44 57 75 94 106 109 100 82 62 43 29 22 20 25 42 76 127 177 209 222 221 208 182 144 102 67 47 42 53 83 128 172 199 207 197 171 134 99 80 82 103 138 174 201 216 223 223 220 216 212 211 211 213 213 210 203 191 174 152 128 103 82 64 53 49 52 66 92 126 158 177 177 156 119 81 56 46 52 73 106 145 179 202 216 224 228 230 229 227 223 214 196 167 127 87 
56 38 29 28 33 45 65 93 122 144 152 145 126 98 68 44 29 22 23 35 64 112 167 206 225 230 225 209 180 140 97 65 50 54 77 117 162 193 205 202 183 155 127 111 115 136 166 194 213 222 223 219 211 203 197 196 199 206 213 218 219 216 208 195 178 157 134 113 97 89 91 104 128 156 179 190 186 165 130 92 67 60 70 98 139 178 207 224 233 237 237 237 235 232 227 219 202 172 131 88 
60 42 33 33 40 57 86 123 158 182 192 189 172 142 104 68 42 28 24 32 55 100 156 201 225 235 235 226 207 173 129 87 61 56 72 106 149 184 202 205 194 175 154 142 146 163 185 205 216 220 215 204 189 174 163 161 168 182 197 211 220 224 224 220 211 198 181 164 149 140 140 149 166 184 198 203 197 178 145 109 83 75 87 117 158 194 218 230 235 236 235 233 230 226 222 214 199 172 133 92 
75 57 48 49 59 80 114 153 187 208 218 217 205 181 144 99 61 37 28 30 49 88 144 193 223 236 240 236 222 196 154 107 72 58 66 94 134 171 195 203 199 186 171 162 164 176 192 205 212 210 198 178 153 130 115 112 121 140 164 188 206 219 225 227 224 218 209 198 187 180 179 184 194 204 211 213 207 190 162 129 101 89 97 123 159 190 211 221 225 224 220 216 211 207 203 198 188 168 138 104 
104 88 79 79 89 110 142 176 203 220 229 230 224 207 177 132 86 51 34 31 44 77 129 181 217 234 241 240 230 208 170 120 79 58 59 79 114 151 179 193 193 185 173 164 164 173 185 195 198 191 173 144 112 86 70 66 73 91 118 148 176 198 212 219 222 221 216 210 203 199 198 201 207 213 218 218 213 200 178 147 117 99 98 114 140 165 183 193 195 192 186 179 173 170 170 171 170 163 148 126 
143 131 123 120 126 140 161 185 205 220 229 232 231 221 199 161 112 69 42 33 40 65 111 164 205 228 238 239 232 212 175 125 80 56 52 64 91 125 154 171 174 167 156 147 146 153 163 172 174 165 143 111 79 55 42 37 41 53 74 101 131 159 180 195 203 206 205 202 198 195 196 200 206 213 218 219 217 208 190 162 130 104 91 94 106 122 135 142 142 137 130 122 117 117 124 136 150 160 161 154 
180 175 167 161 157 159 166 178 192 206 217 225 228 225 211 182 137 89 54 37 37 54 91 141 187 216 231 234 228 208 171 120 76 51 44 51 70 97 122 139 142 136 125 116 114 119 129 139 143 136 117 89 62 42 30 25 26 32 44 61 84 109 132 150 163 170 172 172 170 170 173 180 190 200 209 215 216 211 198 174 142 108 84 73 72 77 82 84 83 78 72 67 65 69 81 103 132 159 176 182 
207 205 198 188 175 162 153 153 161 174 190 205 216 221 215 195 158 111 70 45 37 46 71 113 159 195 215 221 216 195 157 109 68 46 39 43 56 74 93 105 107 100 90 82 79 83 94 106 115 115 103 83 62 44 32 25 23 24 29 38 50 66 83 98 111 119 123 124 124 126 132 142 157 174 190 203 210 211 203 184 153 116 82 60 50 46 45 44 42 39 36 34 34 40 56 84 124 163 190 203 
223 221 214 200 178 151 127 114 114 126 146 171 193 208 212 202 176 134 89 57 41 40 55 85 124 161 187 197 193 173 137 95 61 43 37 41 50 63 75 81 80 72 63 56 54 58 68 83 99 108 108 96 79 62 47 37 30 26 26 28 34 41 50 60 68 74 77 78 78 80 85 95 112 133 158 181 198 207 206 193 167 129 90 60 41 31 26 24 22 20 18 18 21 28 46 78 125 171 202 217 
231 229 220 202 171 131 95 74 68 76 95 125 158 187 203 205 189 156 113 74 50 40 44 61 88 120 146 160 160 144 115 83 59 46 44 48 56 65 72 72 66 57 48 42 40 45 56 75 98 118 129 126 115 97 79 63 49 40 34 32 32 34 38 43 48 50 51 51 49 49 51 58 70 91 118 150 178 198 206 201 182 150 109 72 46 30 21 17 14 13 13 14 17 27 46 82 133 180 211 225 
233 230 220 197 159 111 70 47 38 41 55 82 120 161 191 204 199 178 141 99 66 46 41 46 61 82 103 118 123 115 99 81 67 61 63 69 77 84 85 78 66 53 43 37 36 41 56 81 112 141 159 164 158 144 125 104 84 68 56 48 45 44 46 48 50 50 48 44 39 36 34 36 43 57 81 115 153 184 203 207 198 174 138 98 64 41 27 19 15 14 14 16 20 31 53 91 142 187 215 229 
230 227 215 189 145 95 55 32 23 23 32 53 90 137 179 202 208 196 169 130 90 60 44 40 45 56 70 84 95 99 98 94 91 93 99 107 115 118 113 97 77 58 44 37 38 46 66 98 135 168 188 196 195 186 171 151 130 109 92 81 75 73 74 75 75 72 66 56 45 36 29 27 29 37 54 84 125 167 197 211 211 197 171 135 98 67 45 32 25 22 22 24 30 41 64 101 148 188 214 226 
218 215 203 176 133 84 48 27 18 16 22 39 72 121 170 202 214 211 193 161 120 81 54 41 38 43 53 66 83 99 112 122 130 137 146 155 161 159 147 123 94 67 50 43 45 59 86 123 162 191 208 216 216 211 201 187 169 152 137 127 122 121 122 123 122 117 105 88 67 48 34 25 23 26 38 61 100 148 188 211 219 215 200 175 142 109 81 61 49 43 41 42 47 58 77 108 146 179 202 214 
193 193 184 160 122 80 48 28 19 16 20 34 65 115 168 203 220 222 212 188 151 107 70 47 38 38 46 61 84 112 138 157 171 181 189 195 197 192 176 147 110 77 57 51 58 78 112 152 186 208 221 225 225 221 213 202 190 178 170 166 167 170 173 176 176 170 156 133 103 71 45 29 22 21 28 46 80 128 176 209 224 227 220 206 184 158 131 108 92 82 77 76 77 81 92 110 133 156 174 187 
152 158 156 143 116 83 54 35 24 20 23 36 67 117 171 207 225 229 224 207 176 131 86 56 41 38 46 64 95 132 165 188 202 210 216 218 217 210 191 159 119 84 64 60 73 102 140 177 204 220 227 228 225 218 209 198 188 182 181 186 193 201 208 212 213 209 199 177 143 101 63 37 23 19 22 35 63 109 162 202 223 232 231 225 213 197 179 161 147 137 129 124 118 111 106 105 110 120 131 142 
103 116 127 128 116 94 69 48 34 27 29 43 75 126 178 212 229 234 231 218 191 148 99 62 44 40 48 70 107 150 186 209 221 227 229 229 226 215 194 159 117 83 66 68 88 124 164 197 217 226 228 226 218 205 189 173 163 160 167 182 198 213 223 229 232 231 224 208 177 132 84 47 27 19 19 28 50 90 143 189 218 231 235 233 228 220 210 200 192 185 179 171 159 140 118 98 85 81 83 91 
64 83 105 122 126 115 93 68 49 38 38 52 86 137 186 217 232 237 234 223 198 155 104 65 44 40 49 73 115 163 199 220 230 234 235 233 226 212 185 147 105 76 64 72 99 140 180 209 223 229 227 219 203 180 154 131 119 119 133 157 184 208 224 234 239 240 236 225 200 159 105 60 33 20 18 24 40 72 120 169 204 223 231 233 231 228 223 219 216 213 209 202 187 161 126 90 65 52 48 53 
44 66 98 128 145 143 124 95 68 51 48 62 96 146 192 220 233 237 234 223 196 152 100 61 42 37 47 73 117 167 204 225 234 237 236 231 221 201 168 125 87 63 58 70 102 147 188 214 226 228 223 209 183 148 112 85 73 74 90 118 155 189 215 231 239 242 240 232 214 178 126 75 41 24 18 21 32 56 95 141 179 204 216 221 223 222 222 222 223 224 222 217 202 174 131 85 52 35 29 32 
39 65 104 144 168 172 154 122 87 63 56 68 101 150 194 221 233 236 232 218 187 140 89 53 36 33 43 68 112 163 202 224 234 236 234 226 211 184 144 101 68 51 50 66 99 145 187 213 224 225 217 196 161 117 77 52 41 42 54 79 117 159 195 219 232 239 240 235 221 192 146 93 53 31 22 21 28 44 70 106 142 169 185 193 198 201 205 211 217 222 225 222 209 181 135 85 48 29 22 25 
46 78 123 164 189 193 176 141 99 69 58 68 99 146 190 218 230 233 227 209 173 122 74 43 29 28 37 60 101 152 194 219 230 232 228 217 196 162 120 80 54 42 44 59 91 135 177 205 217 218 208 183 143 96 58 35 26 25 33 51 81 121 163 196 217 229 234 233 223 202 164 116 73 46 32 27 28 37 52 74 98 120 135 145 152 159 169 183 198 211 220 220 211 185 141 90 51 31 24 29 
66 104 149 185 205 205 186 147 102 68 55 61 89 134 180 211 225 228 220 198 157 104 59 34 24 23 31 51 87 136 180 208 220 223 217 203 177 140 99 66 47 39 41 54 80 118 158 187 203 205 196 171 131 87 53 33 23 21 24 34 54 84 123 160 190 210 221 225 221 208 182 143 103 72 52 41 37 37 42 51 63 73 82 88 94 103 117 139 165 190 208 215 210 190 151 103 64 42 36 44 
100 139 177 203 215 209 185 142 95 61 46 51 74 117 165 201 219 222 213 187 143 90 50 28 20 20 27 44 74 117 159 188 203 205 198 180 153 119 86 62 49 44 45 54 72 100 131 159 176 183 177 159 127 91 62 42 31 25 24 28 38 56 83 116 149 176 196 209 213 210 196 171 141 111 87 69 57 48 43 41 42 43 45 47 50 56 69 92 125 161 190 206 208 194 164 123 86 65 61 73 
