P2
100 100
255
129 145 160 169 169 158 139 115 93 80 75 80 94 115 139 159 171 172 162 144 118 93 73 62 57 58 65 76 93 112 130 144 152 153 148 139 128 116 105 97 91 87 87 89 96 107 121 136 148 156 157 151 138 120 102 87 76 70 68 70 76 86 99 113 126 137 145 151 155 155 152 147 140 132 126 121 115 109 102 94 86 78 70 64 60 59 63 74 93 118 144 163 171 170 159 143 127 115 112 117 
156 167 176 178 171 154 129 101 79 66 62 67 80 102 127 150 164 168 160 143 119 95 77 66 62 64 71 83 98 114 128 137 141 140 136 130 124 119 116 113 111 107 104 101 100 102 107 116 127 136 143 146 143 135 125 114 104 95 89 85 83 84 88 94 100 108 116 127 138 148 157 162 163 162 159 154 145 133 118 101 84 71 61 54 51 51 57 69 88 114 139 159 169 171 164 154 144 138 138 145 
175 184 188 185 174 152 122 92 70 58 54 59 72 93 119 144 161 167 162 148 127 106 89 80 77 79 87 97 109 120 127 130 128 124 120 117 118 122 128 133 136 134 128 119 109 101 96 98 104 114 126 137 145 149 149 144 137 128 117 106 95 87 81 79 79 83 91 104 121 141 159 173 181 185 184 180 171 156 135 111 88 70 59 52 50 52 59 72 91 115 138 155 164 166 162 156 152 152 157 165 
186 193 195 190 176 152 120 89 67 55 52 57 70 91 118 144 162 169 167 157 141 124 111 103 101 105 112 120 127 130 128 122 113 106 102 103 110 123 139 152 160 161 155 141 123 104 90 83 84 92 107 125 144 159 168 170 167 159 146 129 110 92 78 70 66 67 73 87 108 134 160 179 191 198 199 196 188 173 150 122 96 76 63 57 57 61 70 84 102 121 138 149 154 153 150 147 148 154 164 175 
189 197 199 193 178 153 120 89 67 56 54 60 74 96 123 148 165 174 173 166 156 144 135 131 131 136 141 146 147 141 130 114 99 88 84 87 99 120 144 166 179 183 177 162 138 111 87 73 69 74 90 113 140 164 180 188 188 182 168 147 122 97 78 65 59 58 64 78 101 130 159 181 196 203 206 203 196 181 159 132 105 85 73 70 72 80 91 105 120 132 140 142 139 133 128 127 132 144 159 176 
185 195 198 193 178 153 121 92 71 62 61 69 85 108 133 155 170 177 177 172 165 159 155 155 158 163 167 168 164 151 131 108 87 73 68 72 87 113 144 172 190 196 193 178 152 120 89 68 60 63 77 101 133 164 185 196 199 194 180 158 129 101 78 64 57 57 63 77 100 129 158 180 195 202 204 202 195 182 162 137 114 97 89 89 96 107 120 132 141 145 142 133 121 110 103 102 110 125 146 168 
177 190 194 190 175 151 122 95 77 70 73 83 101 123 145 162 172 175 174 170 166 164 165 169 175 181 185 184 176 158 133 103 78 63 57 61 76 104 139 172 194 203 202 189 164 129 94 68 56 56 68 93 127 161 185 198 202 196 182 159 130 101 79 66 60 61 68 83 105 131 157 176 188 194 196 193 186 174 157 138 121 111 109 115 126 139 151 159 162 157 143 124 103 88 79 78 86 104 128 155 
166 182 187 183 168 146 119 97 84 81 88 101 120 139 155 165 169 167 163 158 155 156 162 171 180 188 193 191 182 163 134 101 73 56 50 53 67 95 132 168 194 206 206 196 174 139 102 72 57 55 65 89 123 157 182 195 198 192 177 153 125 99 81 72 69 73 82 97 115 136 154 168 176 179 179 175 168 158 145 133 124 123 128 140 154 167 177 181 178 166 143 116 89 71 61 60 68 85 111 141 
155 172 178 172 158 136 114 98 91 93 104 120 138 153 161 163 159 151 142 135 133 137 146 160 175 186 193 193 185 166 136 102 73 55 47 49 61 87 124 162 190 204 207 200 180 149 111 80 63 59 68 90 121 154 177 189 189 181 163 140 115 96 84 81 85 93 104 117 131 143 152 156 157 156 153 148 142 135 128 124 124 131 144 159 175 187 194 195 188 171 143 110 80 61 51 50 57 73 98 128 
147 163 167 160 144 124 107 97 96 105 120 138 153 162 162 155 143 128 115 106 104 110 123 141 161 177 188 191 185 168 140 107 78 59 50 50 60 83 118 155 184 200 206 200 184 157 123 92 74 68 76 96 124 152 171 179 176 163 144 122 104 92 90 96 107 120 132 142 149 151 148 142 135 128 122 117 114 111 110 113 121 135 153 171 187 197 203 202 193 174 142 106 75 55 46 45 52 68 92 121 
144 157 157 146 129 111 99 95 101 116 135 152 163 166 158 142 122 103 88 79 78 84 97 118 142 163 178 185 182 169 146 117 90 70 59 57 65 85 115 149 177 194 200 198 185 163 134 107 89 84 90 107 130 151 164 166 158 141 122 104 92 90 97 112 131 148 160 166 165 158 145 129 114 102 95 91 90 92 96 104 117 135 156 176 191 201 206 204 195 174 141 103 73 54 46 46 54 69 93 121 
146 154 149 135 116 100 92 93 106 125 146 163 170 166 151 128 102 81 67 60 59 65 78 98 122 147 166 176 178 170 154 132 108 89 77 73 78 92 116 143 167 183 191 191 182 166 144 123 108 103 109 122 139 152 157 152 138 119 100 87 82 88 104 128 152 171 181 184 178 164 144 120 99 85 77 75 77 81 89 99 114 133 154 174 189 199 204 203 193 171 139 102 73 55 49 50 60 78 102 127 
153 155 145 126 106 92 87 94 111 134 156 170 174 164 143 115 87 66 54 49 49 55 67 85 108 132 152 166 171 170 161 147 131 116 105 99 99 106 120 137 155 168 175 177 173 163 149 136 126 124 128 138 147 152 149 138 120 100 83 75 75 87 110 139 167 186 195 195 186 169 144 116 93 78 71 71 75 81 88 98 111 128 147 166 181 192 198 197 187 167 136 102 75 59 54 59 71 92 116 139 
161 157 142 120 100 87 86 97 118 143 165 177 176 163 137 106 77 58 48 45 47 53 65 81 100 121 140 153 162 165 165 161 154 145 137 130 125 123 125 131 138 146 152 156 156 154 149 143 140 141 144 149 153 151 142 126 106 87 73 67 71 87 113 145 174 192 200 199 190 171 145 117 95 81 76 77 82 88 95 102 110 121 135 151 166 178 186 186 178 160 132 102 78 65 63 70 86 109 134 153 
168 159 140 116 96 85 87 101 125 151 172 182 179 162 134 101 74 56 49 48 52 60 71 85 100 115 128 139 148 156 163 168 170 169 166 159 150 140 130 123 120 120 123 128 133 138 142 145 147 151 154 156 155 148 136 118 98 80 69 65 71 87 114 145 173 191 199 198 188 171 147 122 103 92 90 93 98 103 106 107 109 112 120 132 145 158 168 171 166 150 127 102 82 72 73 83 103 127 150 165 
172 159 137 112 92 84 88 105 131 158 177 186 181 163 135 102 76 61 55 57 65 75 87 98 107 113 118 123 131 141 154 168 178 184 185 180 168 151 131 113 100 95 95 100 109 119 130 140 148 154 156 156 152 143 130 114 96 81 72 69 74 88 112 139 164 181 189 189 180 166 147 128 115 109 110 115 120 122 120 114 107 103 103 110 121 134 145 152 151 140 122 103 88 81 84 98 119 143 162 173 
170 155 131 106 88 82 88 107 134 161 180 187 182 165 138 107 84 71 69 75 86 99 111 118 118 114 109 107 110 121 139 159 178 190 195 191 178 156 128 102 83 74 72 77 88 103 119 134 145 151 153 150 145 137 126 114 101 90 83 80 83 92 109 129 149 163 170 170 165 155 143 133 128 129 133 139 143 141 132 119 104 93 88 90 98 110 123 134 137 132 121 106 95 92 97 112 132 154 169 175 
166 148 123 99 83 79 86 105 132 159 178 185 181 166 142 116 96 88 90 100 115 130 138 139 130 115 100 91 90 99 119 145 171 189 197 194 180 154 121 91 70 59 57 63 75 92 111 129 141 146 145 141 135 129 123 118 112 107 102 99 98 100 107 117 128 136 142 143 141 138 135 136 139 146 154 160 161 154 140 120 100 85 77 75 81 93 108 121 129 130 123 114 106 104 110 124 143 160 171 174 
160 140 115 92 78 74 82 100 125 151 170 178 176 164 145 125 112 109 116 130 146 159 163 156 139 115 92 76 72 79 98 128 159 182 194 192 177 149 113 81 60 51 50 56 70 89 110 128 138 140 136 128 122 120 121 124 128 130 129 125 119 113 109 106 106 108 110 112 114 118 125 135 147 159 169 173 171 161 142 118 95 78 69 67 72 84 101 117 129 134 132 126 121 119 124 136 150 164 171 170 
155 134 110 88 74 70 76 91 113 137 155 165 165 157 145 133 127 130 141 157 171 180 179 167 143 112 83 65 58 64 81 111 145 173 187 186 170 140 104 73 54 47 48 57 73 95 117 134 140 137 127 116 110 110 118 131 144 153 157 153 144 130 114 99 89 83 82 84 90 100 115 134 152 167 177 180 175 161 138 112 89 73 64 64 71 84 103 122 137 145 146 142 137 135 138 146 157 166 170 167 
154 134 109 88 73 67 70 81 98 118 135 146 149 146 141 137 139 147 160 175 187 192 187 171 141 106 76 57 50 54 70 99 134 164 180 179 162 131 96 68 52 47 51 64 85 110 133 146 147 137 121 105 98 100 114 135 157 172 180 178 167 148 123 98 79 68 64 66 73 88 109 133 156 173 181 182 173 155 131 104 82 69 63 65 75 91 113 134 150 159 160 157 152 149 151 156 163 169 171 167 
158 139 116 94 77 68 67 73 84 98 112 123 130 133 134 138 145 158 172 185 194 196 189 169 137 100 70 52 46 50 65 93 128 158 174 173 155 124 91 66 53 52 61 80 106 133 153 162 157 140 117 96 87 90 107 135 163 184 195 195 184 163 133 100 75 60 54 56 65 83 108 136 160 176 182 179 167 146 120 95 77 66 64 70 83 103 127 149 164 172 173 169 163 159 159 162 167 172 174 170 
167 151 129 106 87 74 68 69 74 83 94 104 112 119 127 136 148 163 177 189 195 195 185 163 130 95 67 51 46 51 68 95 129 157 171 169 150 120 89 68 59 63 78 103 132 158 175 178 168 144 115 89 77 80 98 129 163 189 202 205 196 175 143 106 75 57 50 53 64 84 111 141 165 178 181 174 158 134 108 86 72 66 67 77 94 117 141 162 174 180 178 173 167 162 160 163 168 174 177 175 
176 165 147 125 103 86 75 70 70 75 83 91 101 111 122 135 149 164 178 187 192 189 177 155 123 91 68 55 53 60 78 105 137 161 173 168 149 120 92 74 69 79 100 130 159 182 193 192 177 149 114 84 69 70 87 119 157 187 204 209 202 183 151 112 79 59 52 55 67 90 119 149 170 180 179 167 147 122 98 79 69 67 73 86 106 130 152 169 178 179 175 168 160 154 152 156 163 172 178 180 
184 178 165 146 124 103 87 77 74 75 81 89 98 110 122 136 150 163 174 181 183 179 167 145 118 92 73 65 66 77 97 123 150 170 176 169 149 122 97 83 83 98 125 156 182 199 206 201 184 153 113 80 62 61 76 107 146 180 201 209 205 188 157 119 84 63 56 60 75 99 129 156 173 179 173 158 135 110 89 75 70 72 81 97 118 140 158 169 173 170 162 151 141 135 134 140 151 164 175 183 
187 187 179 164 144 122 104 91 84 84 88 96 106 117 129 140 151 160 167 170 170 164 152 134 113 95 84 81 87 101 122 146 167 179 180 170 150 124 102 92 97 117 146 176 198 210 214 207 189 155 113 77 57 53 65 93 131 169 194 206 204 189 161 124 91 70 63 68 85 111 139 162 175 175 165 147 123 101 84 75 74 80 92 109 129 146 158 163 159 150 137 124 113 107 108 115 130 148 166 180 
183 189 186 176 160 140 122 108 101 100 105 113 122 132 140 147 152 155 155 154 150 143 134 121 109 101 99 104 115 131 150 168 181 186 183 169 147 122 103 97 106 129 159 187 206 216 217 210 191 157 113 76 54 48 56 79 116 155 184 199 200 188 162 128 97 77 71 78 96 121 146 165 172 168 155 135 113 95 84 80 84 94 108 124 140 151 155 151 140 124 108 93 83 79 80 88 104 126 149 170 
173 184 186 180 168 152 136 125 120 121 127 135 144 150 154 155 152 147 140 133 126 119 113 107 105 107 115 127 143 159 174 185 191 190 181 163 139 115 99 96 107 131 162 189 207 216 217 210 191 157 114 76 53 45 50 69 101 140 172 189 193 183 161 130 102 84 80 87 105 128 149 162 164 157 142 123 105 93 89 91 100 113 128 141 151 154 150 137 119 99 81 68 60 56 58 65 80 101 127 153 
156 171 177 175 166 154 143 136 135 140 148 157 164 168 167 161 151 138 124 111 102 95 92 94 100 111 128 147 165 179 189 195 195 188 174 152 126 103 89 88 99 123 153 181 200 211 213 207 189 157 115 78 54 45 48 63 90 126 158 178 184 176 157 130 106 91 88 96 112 131 147 155 153 143 128 113 102 97 100 109 122 137 150 159 163 159 147 127 103 81 64 52 45 43 44 50 61 80 105 132 
136 153 161 160 154 146 140 139 143 153 164 173 179 181 176 165 148 127 107 91 81 76 75 81 93 112 136 159 178 191 197 198 194 182 162 137 110 89 77 76 86 106 135 163 185 199 204 200 184 156 117 82 59 49 50 62 85 117 147 167 174 167 150 128 108 96 94 102 116 130 141 143 138 128 116 107 104 107 117 131 147 160 170 175 173 165 148 124 97 73 56 45 39 37 37 41 50 65 86 112 
118 133 140 140 135 129 127 131 142 156 170 182 188 188 181 166 143 117 93 76 66 62 63 71 87 111 139 165 184 195 199 197 188 171 147 118 93 74 64 63 70 86 110 137 161 179 188 188 176 153 121 90 68 58 58 68 87 114 141 159 164 158 143 124 108 99 98 105 116 126 132 131 125 116 109 106 111 122 138 154 169 179 185 187 182 171 153 128 100 76 58 47 41 38 37 40 47 59 76 97 
108 118 121 118 113 109 109 117 132 150 168 182 189 189 180 163 137 109 84 66 57 54 56 65 83 109 139 166 185 195 197 191 178 156 129 100 78 62 55 53 58 68 85 108 131 151 165 170 165 150 126 102 83 74 73 82 98 120 140 154 157 150 136 120 107 100 101 107 115 121 124 121 115 109 107 112 123 139 157 173 184 191 194 193 187 177 160 138 113 90 72 59 51 47 46 48 53 63 77 93 
109 113 110 103 95 90 91 100 116 137 158 174 183 183 175 156 131 103 79 63 54 51 54 64 82 108 138 165 182 191 190 182 165 140 111 86 67 55 49 48 50 56 67 83 102 122 138 149 151 145 132 117 104 97 97 104 117 133 146 153 152 144 130 116 105 101 102 107 113 117 118 114 110 108 111 121 137 155 172 185 193 196 196 192 187 178 166 150 132 113 97 84 75 69 67 67 71 79 90 101 
122 118 108 96 85 78 78 85 100 120 141 159 169 171 164 148 125 100 79 65 57 55 59 69 86 111 139 163 178 184 181 169 149 123 97 75 61 52 48 47 49 52 58 68 82 98 114 128 137 140 137 132 127 125 126 132 140 149 155 156 151 139 125 112 103 100 102 107 113 116 116 113 112 113 120 133 150 167 180 189 192 191 188 183 177 172 166 160 152 142 131 121 113 106 102 101 103 108 114 120 
141 131 116 100 85 75 71 75 86 102 121 138 150 154 149 138 121 102 86 75 69 68 72 81 97 119 142 161 172 175 168 154 132 108 85 69 59 54 53 53 54 57 60 66 74 84 97 111 124 133 140 144 147 149 153 157 162 165 165 160 150 136 121 108 101 99 102 108 113 117 117 117 117 122 131 144 159 172 181 184 181 176 168 161 156 156 158 163 166 167 165 160 154 149 144 142 142 143 145 145 
161 148 131 111 93 80 73 72 78 88 102 115 126 132 133 128 119 109 100 93 90 90 94 102 115 132 148 160 165 163 153 136 116 95 78 68 63 62 64 67 70 72 74 75 78 83 91 101 113 126 139 150 159 166 171 175 177 176 172 163 149 133 117 105 99 99 103 110 116 120 122 123 125 131 140 151 162 169 172 168 159 148 136 128 125 130 141 156 171 182 188 189 187 183 180 176 174 173 171 168 
174 163 147 128 109 93 82 76 76 79 87 95 104 112 117 121 122 122 121 120 120 121 124 129 137 146 154 158 157 149 136 119 101 85 75 71 72 77 85 92 98 100 100 98 95 93 93 98 106 118 133 148 161 172 179 183 184 181 174 162 147 129 114 103 99 100 105 112 119 124 127 129 132 137 144 152 157 158 154 143 128 113 99 91 91 99 117 142 168 187 199 204 205 203 199 195 192 189 185 181 
178 171 161 146 130 113 99 88 81 78 78 81 87 95 105 117 128 137 144 149 151 153 154 155 157 158 158 154 146 134 119 103 88 79 75 77 86 99 113 126 134 138 136 130 121 110 102 98 101 109 122 139 155 168 177 182 183 179 170 158 142 125 111 103 100 103 110 117 124 129 132 133 135 138 142 145 145 140 129 114 96 80 68 62 63 73 94 125 158 184 201 209 211 209 204 199 194 189 186 183 
172 171 168 161 151 137 121 106 92 82 76 74 77 85 98 116 135 152 164 172 176 177 176 174 170 165 157 147 134 119 104 90 80 75 78 87 104 124 144 159 169 172 170 161 148 130 114 101 96 99 109 124 141 156 166 172 173 169 160 148 134 120 110 105 105 110 117 125 131 134 135 134 134 134 134 133 128 119 105 88 72 58 49 44 46 56 76 108 145 176 196 205 207 203 197 189 181 175 172 171 
155 163 169 171 168 159 145 128 109 92 79 73 73 81 96 117 142 163 178 187 191 191 188 182 174 164 152 138 122 106 92 81 75 75 83 99 122 147 169 184 193 196 193 184 168 147 123 104 93 91 97 109 124 138 149 155 156 152 144 134 124 115 110 110 114 121 129 135 138 138 135 131 128 125 122 118 111 100 87 71 58 47 40 37 39 47 66 95 132 164 185 194 194 187 176 163 153 146 144 148 
131 149 165 175 179 176 166 149 128 106 88 77 74 81 97 120 147 170 186 194 197 195 190 181 170 157 142 127 111 97 86 78 76 80 91 111 137 163 185 199 206 208 205 195 179 155 129 106 91 85 88 97 108 120 129 133 133 129 123 117 112 111 113 119 127 136 143 147 146 142 134 126 118 113 109 104 98 89 77 65 54 45 39 37 39 47 63 90 122 152 170 176 171 159 143 127 115 108 109 117 
107 132 156 175 185 187 180 166 145 121 99 84 79 84 100 123 149 172 186 193 194 190 182 171 158 144 130 117 105 95 87 82 82 89 103 124 150 174 192 204 210 211 207 197 180 156 129 106 91 85 86 93 101 108 112 112 110 106 102 100 101 107 118 130 143 153 158 159 155 145 132 119 108 101 98 95 92 86 79 70 60 53 48 46 48 55 70 92 119 141 153 153 143 126 107 90 79 75 78 88 
90 118 148 172 187 192 189 178 159 135 112 94 87 90 104 125 149 168 181 185 183 176 166 153 140 129 119 111 105 100 96 94 96 103 117 137 159 179 194 203 207 206 200 189 172 149 126 107 96 92 94 99 103 105 102 97 91 86 84 85 92 106 124 142 158 169 173 171 162 147 129 112 99 92 90 91 93 94 91 86 79 72 67 65 67 74 86 104 122 135 139 131 115 96 78 64 56 54 58 69 
80 109 141 168 186 194 193 184 168 146 123 105 95 96 107 124 144 159 168 169 164 155 143 130 120 114 111 111 112 112 113 113 116 122 133 148 165 179 190 196 197 193 185 172 155 136 119 108 105 107 112 116 117 112 103 91 80 73 71 74 86 105 129 153 172 182 185 180 168 149 126 106 92 86 88 94 102 109 113 113 109 104 99 96 97 103 112 123 132 135 129 114 95 76 60 50 45 44 49 60 
79 106 137 164 182 191 192 185 172 153 132 114 103 102 109 121 135 145 149 147 139 128 117 108 103 104 109 117 125 131 135 137 138 142 148 157 167 175 181 182 179 171 160 146 131 119 112 112 119 129 137 142 140 129 112 92 75 65 62 67 80 104 133 161 181 191 193 186 171 149 123 101 88 84 89 101 117 131 140 145 144 141 138 135 135 137 141 145 145 138 124 105 84 67 54 47 44 44 49 60 
84 108 134 158 175 184 185 181 170 154 136 120 109 105 108 115 122 127 127 121 112 102 94 91 93 101 114 129 142 152 157 158 158 157 158 161 164 166 166 161 153 142 128 115 105 101 105 118 135 152 164 169 165 150 126 99 76 61 57 61 77 103 136 166 187 197 197 189 172 147 120 98 86 85 94 112 133 151 165 172 174 173 170 167 166 165 164 162 155 142 124 102 82 66 57 51 50 52 58 68 
95 112 131 149 163 171 173 170 162 150 135 122 112 106 106 107 109 109 106 99 91 84 80 82 91 105 124 143 159 169 173 173 170 165 161 158 156 152 146 137 125 111 97 87 83 87 101 124 150 173 187 191 186 169 141 108 79 60 54 58 74 101 136 168 189 199 198 188 170 144 117 96 86 88 102 123 146 167 180 188 190 190 188 185 182 180 176 170 160 144 124 103 86 73 66 64 65 68 74 82 
109 117 127 137 145 151 154 153 149 141 131 121 112 106 103 101 98 95 90 84 78 75 76 83 96 116 138 157 172 179 181 178 171 164 156 149 143 136 126 114 100 86 74 68 68 77 98 129 162 187 202 206 201 184 154 117 83 61 53 56 72 100 135 167 188 197 195 184 165 139 113 95 89 94 110 133 156 174 186 192 194 192 190 187 184 180 176 169 158 143 125 108 94 86 84 85 88 92 97 102 
122 121 120 121 124 127 130 132 132 130 125 118 112 106 100 96 91 86 81 77 74 74 79 91 108 130 151 168 179 182 180 172 162 152 142 134 127 120 110 98 85 72 62 57 60 72 97 132 168 195 210 214 209 193 163 124 88 64 54 57 72 99 134 165 184 192 188 176 156 131 109 96 93 102 119 141 161 175 183 186 185 182 178 174 172 169 165 159 150 138 125 114 107 105 107 112 117 122 124 124 
133 121 111 105 103 104 107 112 117 119 120 117 113 107 101 95 90 84 80 77 77 81 90 104 124 144 162 174 179 177 169 157 143 131 121 115 111 108 101 92 80 68 59 54 57 69 95 132 169 197 212 216 212 196 167 129 92 67 57 60 75 101 134 161 178 183 177 163 143 122 106 98 100 111 128 147 161 170 172 170 164 158 153 150 149 148 147 144 139 133 126 121 121 125 132 140 147 150 149 143 
138 119 102 90 85 85 90 97 106 114 118 120 117 113 106 100 94 89 85 84 86 93 105 121 140 157 170 175 173 164 150 133 117 106 99 97 99 102 101 96 86 74 63 57 57 68 92 127 164 193 208 213 209 194 166 130 95 72 63 67 83 108 136 158 170 171 162 147 129 113 103 102 110 123 138 151 159 159 154 146 136 127 122 120 121 124 128 130 130 129 128 130 134 143 153 162 169 171 166 155 
139 114 93 80 73 74 80 90 103 115 123 127 127 123 117 110 104 99 96 97 101 110 122 138 153 165 172 171 162 146 127 107 92 83 80 84 93 103 110 110 102 89 75 65 62 68 87 118 153 181 198 204 200 185 159 127 97 79 73 80 96 119 141 156 161 156 144 129 114 105 103 109 121 136 148 155 155 147 134 119 106 97 93 94 99 106 114 121 126 129 133 138 146 156 167 176 182 182 175 161 
136 110 87 74 68 70 79 92 108 123 134 140 140 137 131 124 118 114 112 113 118 127 138 151 162 169 170 163 148 127 104 85 72 66 68 78 94 112 126 131 126 112 94 78 69 70 82 106 136 163 180 187 183 169 146 120 98 87 88 98 116 134 149 156 153 141 126 111 101 99 105 118 134 149 158 159 151 136 116 98 84 77 75 79 87 99 111 121 129 134 139 145 154 164 175 183 187 186 178 161 
133 106 85 72 69 73 85 102 120 137 149 155 155 152 146 140 134 130 128 129 133 140 149 158 165 168 165 154 135 111 88 70 60 57 63 77 100 125 146 156 153 139 118 95 79 73 78 93 115 138 154 160 157 145 128 111 99 98 106 121 138 152 159 156 145 128 110 97 92 96 109 128 147 161 167 162 149 128 105 85 72 67 68 75 87 102 116 128 136 141 145 150 157 167 176 184 188 186 176 158 
130 104 85 74 73 81 97 117 137 154 164 169 169 165 159 153 147 143 140 140 142 147 153 159 164 164 159 146 125 101 79 63 55 55 63 82 109 140 164 176 176 163 141 115 92 78 76 82 96 112 124 129 126 118 108 100 100 109 125 143 159 168 167 157 138 116 97 86 85 95 115 138 158 171 174 166 148 124 99 80 69 67 71 81 96 112 126 137 143 145 147 150 156 165 174 181 185 183 173 155 
127 103 86 79 81 93 112 134 154 169 177 180 178 173 167 160 154 149 145 143 144 146 150 154 158 158 153 141 122 100 79 64 57 58 68 89 120 153 178 190 191 181 160 133 106 87 78 78 84 93 99 101 99 94 90 92 101 118 141 161 175 179 173 156 131 105 87 79 82 97 120 146 166 178 178 168 148 123 99 82 73 73 80 93 109 124 136 143 145 143 142 143 149 158 168 176 180 179 169 151 
124 102 88 84 90 105 126 150 168 180 186 186 182 175 167 159 151 145 141 138 137 138 141 145 150 152 150 141 126 106 87 72 65 65 76 98 129 161 185 197 199 190 172 146 119 97 84 80 81 84 86 85 82 79 79 86 102 125 151 172 184 184 173 151 122 96 79 73 80 98 124 151 171 180 179 168 148 124 102 87 82 84 93 106 120 133 140 141 138 133 130 130 136 147 159 170 175 174 164 146 
119 100 88 86 95 113 137 160 177 187 189 187 180 170 160 149 141 134 129 125 124 125 129 135 142 148 150 146 135 119 101 86 77 76 86 106 135 165 186 198 199 192 177 154 130 109 96 90 89 89 87 82 77 73 74 84 103 129 156 177 186 183 168 142 112 87 72 70 78 98 125 152 171 179 176 164 145 124 106 95 92 97 106 117 127 133 134 130 123 115 111 112 120 134 150 163 170 169 159 141 
113 95 85 85 96 115 140 164 180 188 188 183 172 159 145 132 123 116 111 108 108 110 116 125 136 147 153 154 148 136 119 103 91 88 94 111 136 162 181 192 193 187 175 157 137 122 112 108 107 105 99 91 83 77 76 85 104 130 157 175 182 177 158 131 101 78 67 66 77 97 124 149 166 172 169 157 140 122 109 103 103 108 116 123 127 126 121 112 102 94 91 95 106 124 143 158 166 164 153 134 
104 87 79 80 91 111 137 161 177 185 183 175 160 143 126 112 102 96 93 92 94 99 108 120 135 149 159 164 161 152 137 119 105 97 100 112 131 153 169 179 181 176 166 153 141 133 130 130 131 129 122 111 98 87 84 90 106 130 154 170 174 166 145 117 90 71 63 65 76 96 121 143 157 161 156 145 131 118 111 109 112 117 122 124 121 114 103 92 82 76 76 83 98 119 141 157 165 161 148 126 
95 78 70 71 82 102 127 152 170 178 175 164 146 125 106 92 83 79 78 79 84 92 104 120 138 154 166 172 172 164 149 131 114 103 100 107 121 138 152 160 162 159 152 145 140 141 145 151 155 155 148 134 118 103 96 98 110 129 149 162 164 153 132 105 82 67 62 65 77 96 117 135 145 146 140 129 119 112 111 114 119 124 126 122 113 101 87 76 68 65 69 80 99 123 146 162 167 160 143 118 
86 69 61 62 72 90 115 141 161 169 166 153 133 110 90 77 69 67 68 72 80 92 107 126 145 161 172 178 177 169 154 135 116 102 96 99 108 120 132 139 141 139 136 134 137 144 155 166 173 175 169 156 138 120 109 107 115 130 145 155 155 143 122 99 79 68 65 70 82 99 115 127 132 129 122 113 107 106 110 118 126 130 129 121 108 92 78 67 62 63 71 87 110 135 157 170 171 160 138 111 
78 61 54 55 63 80 104 131 152 162 159 145 124 100 80 68 62 61 64 71 82 97 116 136 154 168 177 180 177 167 150 130 111 97 90 91 97 106 114 120 122 121 121 123 131 144 160 174 183 186 181 169 151 133 120 115 120 132 144 152 150 139 120 100 84 76 75 82 93 107 118 123 121 114 106 99 97 101 110 122 133 137 134 123 107 90 76 68 66 71 84 105 130 154 172 180 177 162 136 105 
73 56 49 49 57 73 97 124 146 158 156 143 121 97 77 65 59 60 64 74 89 107 128 148 164 175 180 179 172 158 140 120 102 90 84 85 90 98 105 110 111 111 112 116 126 142 159 174 184 187 183 172 155 138 125 121 126 136 147 153 152 142 127 111 98 93 94 102 112 121 125 123 115 104 94 88 90 98 112 128 140 146 142 130 114 97 84 78 80 90 107 130 154 174 187 190 183 164 134 100 
70 54 47 48 56 72 96 123 146 158 158 146 124 100 80 67 62 63 69 82 100 121 142 160 172 179 179 173 161 144 125 106 92 83 81 84 91 99 106 110 111 110 110 114 124 138 154 168 177 179 175 164 149 134 125 123 130 141 152 159 159 152 141 129 121 118 121 128 136 140 137 128 114 98 87 83 87 99 117 136 150 155 153 142 126 111 101 98 104 117 136 157 177 191 198 197 186 164 132 97 
69 55 49 51 60 77 102 129 151 164 164 153 133 110 89 75 69 70 79 94 114 136 156 170 178 179 174 163 146 127 108 93 83 80 82 90 100 110 118 121 121 119 117 118 124 134 146 156 162 162 156 146 133 123 118 122 132 146 159 167 169 165 158 151 147 147 150 156 160 159 151 136 117 98 85 82 88 103 124 144 159 165 163 154 142 130 122 123 131 145 163 180 193 201 204 200 186 162 129 95 
72 60 56 60 71 90 115 141 161 171 172 162 144 122 102 87 80 82 92 108 129 150 167 177 180 176 165 149 129 109 93 82 78 81 89 102 116 128 136 139 138 133 128 126 126 130 136 140 141 138 130 121 111 106 107 116 132 150 165 174 178 176 173 169 168 170 173 177 179 175 164 145 122 102 89 86 94 111 132 153 167 173 171 164 154 146 142 144 153 166 180 192 200 204 203 196 181 156 125 94 
78 70 70 77 91 110 133 155 171 179 179 170 155 135 116 102 95 97 108 124 144 161 174 180 178 169 154 133 112 93 81 76 78 86 101 119 136 149 157 158 155 149 141 134 130 127 126 123 119 112 104 96 90 89 95 110 130 151 168 178 183 183 181 179 180 182 186 190 190 184 172 152 129 108 95 94 103 121 142 160 172 176 174 168 160 153 151 155 164 175 185 193 198 198 194 185 169 146 119 94 
88 86 91 102 117 135 153 169 180 184 183 175 162 146 129 117 111 114 124 139 156 170 178 179 173 160 140 117 96 81 73 73 81 95 116 137 156 168 174 174 169 161 151 141 132 125 117 110 101 92 83 76 73 76 85 103 126 149 167 177 181 181 180 179 180 184 188 192 192 186 175 156 135 116 105 105 115 132 151 166 174 175 171 163 155 149 148 152 160 169 177 182 183 181 175 165 149 131 112 96 
101 107 118 130 145 158 170 179 184 185 182 175 164 151 138 129 125 128 138 151 164 174 179 177 166 148 125 102 83 72 68 73 85 105 130 153 171 181 184 182 175 166 155 143 132 122 112 102 91 80 71 65 64 68 79 97 121 144 161 170 173 171 168 166 168 172 178 183 184 180 171 155 138 123 116 118 128 144 158 168 172 169 160 150 140 134 132 136 142 149 155 158 157 152 145 135 124 113 104 100 
115 129 143 156 167 175 181 184 184 181 177 170 161 150 141 135 134 138 147 159 169 176 178 172 158 137 112 89 74 66 66 74 90 114 141 165 180 188 188 184 175 164 152 140 130 120 110 99 87 76 67 62 61 65 76 94 116 136 151 157 155 150 144 142 143 148 156 162 166 165 159 148 137 128 126 130 141 153 163 167 165 156 143 129 118 111 109 111 116 121 124 125 122 117 111 105 99 97 98 104 
128 146 162 173 180 183 184 181 177 172 165 158 151 143 137 134 136 141 151 161 170 176 175 167 151 128 102 81 67 62 64 74 93 120 148 171 184 189 187 179 168 155 142 132 124 117 110 101 90 80 71 65 64 68 78 94 112 129 138 139 133 123 115 110 110 115 123 132 138 141 140 136 132 130 133 141 151 160 164 162 154 139 122 106 94 87 85 86 89 93 94 94 91 87 83 81 81 86 96 110 
137 156 170 179 183 182 178 172 164 157 149 142 136 131 128 127 131 138 147 158 167 172 171 163 146 122 97 76 64 59 62 74 94 121 149 171 183 186 181 170 156 141 128 120 116 114 112 107 99 90 81 75 73 76 85 98 112 123 126 122 111 98 87 81 80 84 91 100 108 114 118 120 124 129 138 148 158 163 163 155 140 120 101 85 75 69 68 69 72 74 75 75 73 70 69 69 74 82 97 116 
140 157 168 174 174 171 164 156 147 138 131 124 120 116 115 116 120 127 137 149 160 167 168 160 144 122 97 76 64 59 61 72 91 118 146 168 179 180 173 159 141 124 113 107 108 111 114 115 112 105 97 91 88 90 97 107 117 122 120 110 96 81 69 62 60 62 67 74 82 90 97 105 115 127 140 153 161 163 158 145 125 104 85 71 63 60 60 63 66 69 71 71 70 69 69 71 76 87 102 120 
138 149 156 158 156 151 144 135 127 120 114 110 106 103 101 102 105 112 122 135 149 159 164 160 148 127 103 82 67 60 61 69 87 112 139 161 172 173 164 148 128 110 99 96 100 109 118 125 127 124 118 111 108 108 113 120 126 127 121 108 92 75 63 55 52 52 55 60 66 74 83 94 108 125 141 154 161 161 152 134 112 91 74 63 59 59 62 67 74 79 82 84 84 83 83 85 90 98 110 124 
130 134 136 134 131 126 121 116 112 108 105 101 97 93 90 89 90 95 104 118 134 150 160 162 155 138 116 93 76 65 62 68 82 104 130 152 165 167 158 141 120 102 91 89 95 107 122 134 140 141 138 133 129 128 131 135 139 138 130 116 99 82 68 59 54 52 53 56 60 67 76 89 105 123 141 154 160 156 144 125 102 83 70 63 62 66 74 84 94 103 108 111 112 111 110 110 112 115 119 125 
120 116 112 108 105 103 102 103 104 105 104 101 97 90 84 79 77 79 87 100 119 140 157 166 165 154 135 112 90 74 67 68 78 97 121 144 159 163 156 140 119 101 89 87 94 108 125 141 151 155 154 150 146 145 145 148 151 150 144 132 117 100 86 75 68 63 61 61 63 68 76 88 105 124 142 153 157 151 137 117 96 80 71 69 73 83 97 112 125 136 143 146 147 146 144 141 137 133 129 124 
109 99 91 87 86 87 92 98 106 111 113 111 104 94 83 73 68 67 73 85 105 130 153 170 175 170 156 134 110 89 75 71 76 91 113 137 154 162 158 144 125 107 94 91 97 111 129 146 158 164 164 161 156 154 154 156 159 160 158 151 141 128 115 103 94 86 80 76 74 76 82 94 109 127 143 153 154 147 132 112 94 82 78 81 92 108 127 145 159 169 175 177 177 175 172 166 158 148 135 122 
99 86 77 74 75 81 91 104 117 126 131 128 118 103 87 73 63 60 62 73 93 121 150 173 185 185 176 158 133 108 88 77 77 88 108 131 151 162 162 153 136 118 104 99 103 115 132 149 161 167 167 164 159 154 153 155 160 165 168 168 164 157 149 139 129 118 108 100 93 91 94 103 117 132 146 153 153 144 129 111 96 88 89 98 115 136 156 173 185 192 195 196 195 192 188 181 170 156 137 117 
94 79 72 70 74 84 99 117 134 146 152 149 137 119 97 78 64 56 56 65 84 113 147 175 191 196 192 178 156 129 103 86 80 87 104 127 148 163 167 161 148 131 117 110 112 121 136 151 162 167 166 160 153 147 144 146 153 161 170 176 180 180 177 171 163 152 140 128 117 111 110 116 127 139 150 155 153 144 129 113 101 97 103 117 137 159 177 191 199 203 204 203 200 197 192 184 173 156 135 113 
93 80 74 74 81 94 113 133 152 165 171 169 157 138 113 88 69 58 55 61 78 107 143 174 195 203 203 193 174 148 119 97 85 87 100 122 145 162 169 167 157 143 129 121 120 128 139 152 161 164 161 153 142 133 129 130 137 149 163 175 185 191 193 191 186 178 166 152 139 129 126 128 136 147 155 158 155 145 131 117 108 107 115 132 153 173 188 197 202 202 200 197 193 189 183 176 166 150 131 111 
98 89 84 86 95 109 128 149 166 179 185 183 174 156 131 104 80 64 57 60 74 102 137 171 194 206 208 202 187 163 133 107 90 87 97 116 138 157 167 168 161 149 137 128 127 132 142 152 158 159 154 143 129 117 110 109 116 130 147 164 179 190 196 198 196 190 180 167 153 142 137 138 145 153 160 162 158 149 136 123 115 115 124 140 159 175 187 193 193 190 185 179 173 168 164 159 152 141 127 112 
111 105 103 105 113 125 141 158 173 184 191 191 185 172 151 124 97 76 64 62 73 96 130 164 190 205 210 206 194 172 143 114 94 87 93 109 129 148 159 163 158 148 138 131 129 134 142 151 155 154 146 133 117 102 92 90 95 106 124 144 163 178 188 193 194 189 181 169 157 147 142 143 149 157 164 166 162 153 141 128 120 119 126 139 154 166 174 176 172 165 157 148 141 137 135 135 134 132 126 118 
129 127 126 127 131 138 148 159 171 181 188 192 191 183 168 144 117 92 75 68 73 90 120 153 181 198 206 205 195 175 148 118 96 87 89 101 118 135 147 151 148 141 132 127 127 131 139 147 151 149 141 126 108 92 81 76 78 86 100 118 137 155 168 176 179 177 170 161 150 143 140 143 150 159 166 168 165 157 145 133 123 120 123 131 140 147 149 147 140 130 119 110 105 103 106 112 120 126 130 131 
150 151 149 147 145 144 145 150 157 166 176 184 189 188 180 163 139 112 89 75 73 84 107 137 166 186 197 198 190 172 146 118 96 85 85 94 107 122 132 136 134 128 122 118 119 125 134 142 146 145 137 123 106 90 77 70 69 72 81 94 109 125 139 148 153 154 150 143 136 132 132 138 147 157 165 168 167 160 149 136 126 119 116 118 120 121 118 112 103 94 84 78 75 77 84 97 112 127 139 147 
170 171 168 161 152 142 134 131 134 142 154 168 179 186 186 176 157 131 105 84 75 79 94 118 145 167 180 184 178 163 139 114 94 84 83 89 99 110 118 121 119 114 109 107 110 116 125 134 140 140 135 124 109 94 82 73 68 67 70 76 86 96 107 116 122 124 124 121 118 118 121 129 140 151 161 166 166 161 152 140 128 118 111 105 101 96 90 82 74 67 61 57 58 63 74 92 113 135 152 164 
184 184 179 168 152 134 118 107 105 111 124 143 162 177 185 183 170 147 119 94 78 74 81 98 121 142 158 164 161 148 129 109 93 84 83 88 96 104 109 110 107 102 98 97 100 106 115 125 133 136 135 128 118 107 95 86 78 73 70 70 72 77 83 89 94 98 100 101 102 105 110 119 130 142 152 159 161 159 153 144 133 121 109 98 88 79 71 63 57 52 49 48 52 60 75 96 122 147 166 178 
192 191 184 170 148 123 100 85 78 82 94 114 139 163 178 183 176 158 131 103 82 72 72 82 99 117 132 141 140 132 118 104 93 87 88 92 99 104 106 105 101 95 91 90 92 98 106 117 126 133 136 136 132 125 116 107 98 88 80 74 70 69 71 74 78 83 87 90 93 96 101 108 118 128 139 148 153 156 154 149 140 128 114 100 85 73 62 55 49 46 46 48 54 66 84 108 135 159 177 188 
194 192 183 167 142 113 87 69 60 61 70 89 116 144 167 179 178 164 140 112 88 73 69 73 83 97 111 120 122 118 110 102 96 95 97 102 108 111 111 108 101 95 89 87 88 93 100 110 121 131 139 144 146 145 141 134 124 112 100 88 79 73 71 72 75 80 85 89 91 93 96 99 105 113 122 132 142 149 154 155 150 141 127 110 93 76 63 55 50 48 49 54 64 78 99 123 148 168 183 191 
190 187 178 162 136 106 80 61 51 50 56 71 96 126 154 171 176 167 147 121 96 79 71 71 77 87 98 106 110 110 108 105 104 106 111 118 122 124 122 116 108 99 93 89 89 92 99 108 119 131 142 151 158 162 163 159 151 140 125 110 97 88 83 83 86 90 95 98 99 97 94 92 93 97 104 114 127 141 153 161 162 157 146 129 109 90 74 63 57 57 60 67 79 96 116 137 156 172 182 188 
177 176 169 155 133 105 79 60 50 46 50 62 83 112 142 164 173 169 154 132 108 89 79 76 79 86 94 102 107 110 111 113 116 122 128 135 139 140 136 128 118 108 100 95 94 96 102 111 122 134 146 157 166 173 176 176 171 162 149 135 121 111 106 105 108 113 117 117 114 106 97 88 83 82 86 96 112 131 150 166 174 174 167 152 133 112 94 81 74 73 78 87 100 116 131 146 157 166 172 175 
156 158 156 148 132 109 86 67 55 49 50 60 78 106 136 159 172 172 162 144 123 105 93 88 88 93 99 106 111 116 120 125 131 138 145 151 154 153 148 139 128 117 109 104 103 105 111 119 128 139 150 161 169 176 180 182 179 173 164 153 143 136 133 134 137 142 144 142 133 119 102 86 75 70 72 81 97 120 146 168 182 187 184 174 159 139 120 106 98 98 103 112 124 134 142 147 149 150 151 153 
128 135 141 142 134 119 99 80 66 58 57 65 81 107 135 159 173 176 170 156 139 123 110 103 101 103 108 114 120 125 131 138 145 152 159 163 165 162 155 145 134 123 116 113 113 117 123 131 139 147 155 162 167 172 175 175 174 171 166 161 157 155 157 160 165 169 170 165 153 133 109 86 70 62 61 68 85 110 141 168 187 196 197 191 179 164 147 134 127 126 131 138 145 148 147 141 133 126 122 123 
100 113 127 137 139 132 117 100 84 73 70 76 91 115 141 163 176 181 177 167 153 138 125 116 113 113 117 122 128 135 142 149 156 163 168 170 169 164 155 144 133 124 119 118 122 129 137 145 151 156 159 161 161 160 159 157 156 155 155 156 159 165 171 179 185 188 188 183 168 145 115 87 67 56 54 59 75 100 134 165 188 200 203 200 192 180 167 157 151 151 155 159 160 156 145 129 112 99 93 93 
79 95 115 135 146 147 137 122 105 92 87 91 105 127 151 170 181 186 183 175 162 148 134 124 118 117 120 125 132 141 149 157 164 169 172 172 167 159 148 136 125 118 116 119 127 138 149 157 163 165 163 159 151 143 135 130 127 127 131 139 150 163 176 187 195 200 200 193 178 153 120 89 65 53 49 53 67 91 125 158 184 198 203 201 195 186 176 169 166 167 170 171 168 158 140 116 94 78 70 70 
66 85 110 135 152 159 154 141 124 110 104 107 120 140 160 176 186 189 186 178 165 149 133 121 114 112 115 121 131 141 152 162 169 172 173 169 161 150 136 122 112 106 107 114 127 142 156 167 172 172 167 156 141 124 110 100 96 96 103 115 132 153 173 189 199 204 205 199 184 159 125 91 66 52 47 50 62 83 114 147 174 189 195 195 189 181 174 169 169 172 176 177 172 158 134 106 81 64 56 57 
63 82 110 138 158 167 164 152 136 122 115 118 130 148 167 181 188 190 186 175 160 141 124 110 102 100 103 111 123 137 151 162 170 173 171 164 153 138 121 107 97 93 96 106 122 141 159 172 178 177 169 154 132 109 90 77 71 71 78 91 112 137 163 183 197 203 205 199 186 162 129 95 70 55 49 50 60 77 103 133 157 173 179 177 171 164 159 158 161 168 175 177 172 157 132 102 76 59 51 52 
67 88 115 143 162 169 166 153 137 123 116 119 132 150 168 181 188 188 182 169 150 128 108 93 86 84 88 98 112 129 146 160 168 171 168 159 144 127 109 94 84 81 85 96 114 135 156 171 179 179 170 153 128 101 79 64 57 56 62 74 94 120 149 172 188 197 200 196 184 163 134 103 78 63 56 55 62 75 95 117 136 148 152 149 143 136 134 136 145 158 169 175 172 158 134 105 79 61 54 56 
80 101 127 150 164 168 160 145 127 113 107 111 124 143 163 177 184 184 176 159 137 112 91 77 71 70 75 86 102 121 141 156 165 167 163 152 137 119 101 87 78 75 79 89 105 126 148 165 175 177 170 153 128 101 78 62 53 51 55 65 81 105 132 156 174 185 189 187 178 162 140 114 93 78 70 68 71 79 90 103 114 119 119 115 109 104 104 111 125 143 160 171 171 161 141 114 89 72 65 68 
102 121 142 159 167 163 150 131 111 97 91 96 110 131 152 169 178 178 168 150 125 99 79 66 60 61 66 78 95 115 135 151 160 161 157 146 132 115 100 88 80 77 79 86 99 116 136 153 165 170 166 153 132 108 86 69 60 56 57 63 75 93 115 136 153 164 171 172 169 160 146 130 114 102 94 90 89 90 93 95 96 94 90 84 79 76 79 89 106 129 151 166 172 166 150 128 107 91 86 89 
