P2
100 100
255
131 136 140 142 140 134 126 118 111 107 107 111 118 127 136 142 146 146 142 135 126 116 108 101 98 97 100 106 113 121 129 134 137 137 135 132 127 123 119 115 112 110 110 111 113 118 125 132 138 142 143 140 134 125 116 108 102 100 101 104 109 115 121 126 129 132 134 135 136 137 136 135 132 129 126 123 121 118 116 114 112 109 105 102 99 99 101 107 115 124 133 140 144 144 141 136 130 126 125 127 
140 144 146 146 141 133 123 113 105 101 100 104 112 121 130 138 142 143 140 134 126 117 109 104 101 101 103 109 115 122 128 132 134 134 132 129 127 125 123 121 119 118 116 114 114 116 119 124 130 135 138 138 136 131 125 119 114 111 110 111 113 115 117 118 119 121 122 125 129 133 137 140 142 141 139 136 132 128 122 117 111 106 101 97 95 95 98 104 113 122 132 139 143 144 143 139 136 134 134 136 
147 151 152 150 144 134 123 111 102 97 97 100 107 117 126 134 140 142 140 135 129 122 115 110 108 108 111 115 120 125 128 130 130 128 127 125 125 126 127 129 129 128 125 122 118 115 115 117 121 126 131 135 136 136 134 130 127 124 122 120 118 116 114 112 110 110 112 116 123 131 139 145 150 152 151 148 143 137 129 121 113 106 100 96 95 96 99 105 114 123 131 137 141 143 142 140 138 138 140 143 
151 155 156 153 146 136 124 112 102 97 96 99 106 115 124 133 139 142 141 139 134 129 124 120 119 119 121 124 126 128 128 127 124 121 120 120 122 126 132 137 140 140 137 131 124 117 112 111 112 117 123 130 135 139 141 141 139 136 133 128 123 117 112 107 103 102 104 110 119 129 140 150 156 160 160 157 152 144 135 125 116 109 103 100 99 101 105 111 118 125 131 136 138 138 138 137 137 138 142 147 
152 156 157 155 148 138 126 114 105 99 98 101 107 116 125 133 139 143 144 142 139 136 133 131 131 131 132 133 133 132 128 123 118 114 111 112 117 125 134 143 149 151 148 141 131 120 111 106 105 108 115 124 133 141 146 149 148 146 141 134 126 118 110 103 99 97 100 107 117 129 141 152 160 164 165 162 156 148 139 129 120 113 108 106 107 109 114 119 124 129 132 133 133 132 130 130 131 135 140 146 
150 155 157 155 149 139 128 117 108 103 102 105 111 119 128 135 141 144 145 145 144 142 141 141 141 142 143 142 140 135 128 120 112 106 103 105 111 122 134 146 155 159 157 150 138 125 112 103 100 101 108 118 130 140 148 153 153 151 145 137 127 117 108 101 97 96 100 107 117 130 142 153 161 165 165 162 156 149 140 131 123 118 115 115 117 121 125 129 132 133 133 130 127 123 121 120 123 128 135 143 
146 152 155 153 148 139 129 120 112 108 108 111 117 124 131 137 142 144 145 145 144 144 145 146 148 149 150 149 145 139 129 118 108 100 96 98 105 117 132 147 158 164 164 157 145 130 115 103 97 98 104 114 127 139 148 153 154 151 145 136 126 116 108 102 99 99 103 110 120 132 143 152 158 161 160 157 152 145 138 130 125 122 122 124 128 132 137 140 140 138 133 126 119 114 110 110 113 119 128 137 
141 148 151 149 144 137 128 121 116 113 115 118 124 130 135 139 141 142 142 141 141 141 143 146 149 152 154 153 149 141 130 118 106 97 92 93 100 113 129 145 158 166 167 161 150 134 118 105 98 97 102 112 125 137 146 151 152 148 141 132 123 114 108 104 103 105 110 117 125 134 142 148 152 153 152 149 144 138 133 128 125 125 127 132 138 143 147 149 147 141 133 123 113 105 100 100 103 111 121 132 
137 143 145 144 139 133 126 120 118 118 120 125 130 135 138 139 139 137 135 133 132 133 136 141 146 150 153 154 150 143 132 120 107 97 91 91 97 109 125 142 156 165 167 163 152 138 122 109 101 100 104 113 125 136 144 148 147 143 135 127 119 113 109 109 110 114 120 125 131 136 140 142 143 142 140 137 134 130 127 125 125 127 132 138 145 151 155 155 152 144 132 119 107 98 93 92 97 105 115 127 
133 139 140 138 133 127 122 119 118 121 125 130 135 138 139 138 134 129 125 122 121 122 126 132 139 145 150 152 150 144 135 123 111 100 94 93 97 107 122 138 152 161 164 162 153 141 127 115 107 105 109 117 127 136 142 144 142 136 128 120 114 111 111 114 119 125 130 135 137 138 137 135 133 130 128 126 124 122 121 122 124 128 135 142 150 156 160 160 155 145 132 117 103 93 89 89 93 102 113 124 
132 136 136 132 126 121 117 116 118 123 129 134 139 140 138 134 127 120 114 110 109 110 115 122 130 138 144 148 148 145 138 128 117 107 100 98 101 108 120 134 146 155 159 158 152 142 131 121 114 113 116 122 130 137 141 140 136 129 121 114 111 111 114 121 129 136 141 143 143 139 134 129 123 119 117 116 116 116 117 120 123 128 135 144 152 158 162 161 155 145 131 115 102 92 88 88 94 103 114 124 
134 135 133 127 121 115 113 113 118 124 131 137 141 140 136 129 120 111 104 99 98 100 105 113 122 131 138 144 146 144 140 133 125 117 110 107 108 112 120 131 141 148 153 153 149 142 134 126 121 121 123 128 134 138 139 137 130 122 115 109 108 111 117 127 137 145 150 151 147 141 132 124 117 112 110 110 112 114 116 119 123 128 135 142 150 157 160 160 155 144 131 116 102 94 90 92 98 108 118 128 
137 136 131 124 117 112 110 112 118 126 134 140 142 139 133 123 113 103 96 92 92 94 100 108 117 125 133 139 142 143 141 138 133 127 122 118 117 118 122 128 135 141 145 146 144 140 135 130 128 128 130 134 137 139 138 133 126 117 110 105 105 111 120 132 143 152 156 156 151 142 131 121 113 109 108 109 112 115 118 121 123 127 132 138 146 152 156 156 152 143 130 117 105 98 95 98 105 115 125 133 
141 138 131 122 115 110 109 112 120 128 137 142 143 139 130 119 108 98 92 89 90 94 100 107 115 122 129 134 138 140 141 141 140 137 134 131 128 126 125 127 129 133 135 137 137 136 134 133 132 132 134 137 139 139 136 130 122 113 106 103 104 111 121 134 146 155 159 158 152 143 131 121 114 110 110 113 116 120 122 123 123 125 128 132 139 145 149 151 148 141 130 119 109 103 102 106 114 123 132 139 
144 139 131 122 114 109 109 114 122 132 140 144 144 139 129 117 106 97 92 91 93 98 105 111 117 122 126 129 132 136 139 142 145 145 144 142 137 133 128 125 124 124 126 128 130 131 132 133 134 135 136 138 138 137 133 127 119 111 105 102 104 110 121 134 146 155 159 157 152 142 132 123 117 115 116 119 123 126 126 125 123 122 122 125 130 136 141 144 143 138 130 121 113 109 109 114 122 131 139 144 
146 140 131 121 114 110 111 117 125 135 143 147 145 139 129 117 106 99 96 97 101 107 114 119 123 124 125 125 126 130 135 141 146 151 152 150 145 138 130 123 118 116 116 119 122 126 129 132 134 135 136 136 136 134 130 125 118 111 106 103 105 111 120 132 142 150 154 153 149 141 132 125 121 121 123 127 131 132 130 127 122 118 116 117 121 127 133 137 138 135 129 123 117 114 116 121 129 137 144 147 
145 139 130 121 114 111 113 119 128 138 145 148 146 140 130 119 109 104 103 106 112 119 125 129 129 127 123 120 119 122 128 137 146 152 156 155 149 140 130 119 112 108 108 110 115 121 126 130 132 133 133 133 132 130 128 124 119 114 110 107 108 112 119 127 136 143 146 146 143 137 132 128 126 127 131 134 137 136 133 126 119 113 109 109 113 119 125 130 133 132 129 124 120 119 121 126 133 140 146 148 
143 136 128 119 113 111 113 120 129 139 146 149 147 140 131 122 114 111 112 117 124 131 136 137 134 128 120 114 112 114 121 131 142 152 157 156 150 140 127 115 105 101 100 104 110 117 124 128 131 131 130 129 128 127 126 124 122 119 116 114 113 114 117 122 128 133 136 136 135 132 130 129 130 133 136 140 141 138 133 125 116 109 104 104 107 113 120 126 130 131 129 126 123 122 124 129 135 141 145 146 
140 133 125 117 111 110 112 119 128 137 144 147 145 140 133 125 120 119 122 128 136 142 145 144 137 127 117 108 104 106 113 125 138 149 155 155 149 137 123 110 100 95 95 99 107 116 123 128 130 130 127 125 123 123 124 126 127 127 125 123 120 118 117 118 120 122 124 125 126 126 127 129 132 136 140 142 142 138 131 122 112 105 101 100 104 110 117 124 129 131 130 128 126 125 127 130 135 140 143 143 
137 130 122 115 109 108 110 116 124 133 139 143 142 139 133 128 125 126 130 137 144 149 150 146 137 125 112 102 97 99 107 119 133 146 152 153 146 134 119 105 95 91 92 98 107 117 126 130 131 129 125 121 120 120 124 128 133 136 136 134 130 124 119 114 112 111 112 114 116 119 123 128 133 138 141 143 141 136 128 118 109 102 99 99 103 110 118 125 130 133 132 131 129 128 129 132 136 139 141 141 
135 129 121 114 108 106 107 112 119 126 133 137 138 136 133 130 130 132 137 144 150 153 152 146 134 120 106 96 92 94 102 115 130 142 149 149 142 129 114 101 92 89 92 100 111 122 131 135 134 130 124 118 116 118 123 131 139 145 147 145 140 131 122 113 107 103 103 105 109 114 121 128 134 139 142 142 139 132 124 115 107 101 99 101 106 113 122 129 134 136 136 135 133 132 132 134 137 140 141 139 
136 130 122 115 108 105 105 108 113 119 125 129 132 132 132 131 133 136 141 147 152 153 150 142 130 116 102 93 89 92 101 114 128 140 147 146 139 126 112 99 92 91 95 105 117 129 138 141 139 132 123 116 112 114 121 131 143 151 156 155 149 138 126 113 103 98 96 98 104 111 120 128 135 140 141 140 136 129 121 112 106 102 101 104 110 118 127 134 139 141 140 139 137 135 135 137 139 141 142 140 
139 134 126 118 111 106 104 105 108 113 118 123 126 128 130 132 135 139 144 148 151 151 147 138 126 112 100 92 90 94 103 116 129 140 146 144 136 124 111 100 94 95 102 113 127 139 147 148 144 134 123 113 108 110 117 130 144 156 162 162 157 145 130 115 103 95 93 96 102 111 121 130 137 141 141 139 133 126 118 111 106 104 105 109 116 124 132 138 143 144 144 142 140 138 138 139 141 143 144 143 
144 139 133 125 117 110 106 105 106 109 113 118 122 125 129 132 136 140 144 148 149 148 143 134 123 111 101 95 94 99 108 120 133 142 146 143 135 124 112 103 99 102 111 124 138 149 156 156 149 137 122 110 104 104 112 126 142 156 165 167 162 150 134 118 104 95 93 96 103 113 124 134 140 142 141 137 131 123 116 110 107 106 109 114 121 128 136 141 145 146 145 142 140 139 139 140 142 145 147 147 
149 146 140 132 124 117 111 108 107 108 112 116 120 125 129 133 136 140 144 146 146 144 139 131 122 112 105 102 103 108 117 128 138 145 147 143 135 124 114 107 106 111 121 135 148 159 164 162 153 139 122 108 99 98 106 120 138 154 164 168 164 153 137 120 106 97 95 99 107 118 129 137 143 144 141 136 129 121 115 111 109 109 113 118 124 131 137 142 144 143 142 139 137 135 135 137 141 144 148 149 
151 150 146 140 132 125 118 113 111 111 114 117 122 126 130 134 137 140 142 143 142 139 135 129 122 116 112 111 113 119 127 136 143 148 148 143 135 125 117 112 113 119 130 144 157 166 169 166 156 140 122 105 95 93 100 113 131 148 161 166 163 153 139 122 108 100 98 103 111 122 133 141 144 144 140 134 126 120 115 112 111 113 117 122 127 133 137 139 139 138 135 131 128 127 127 130 135 140 146 150 
151 152 150 146 139 132 125 120 118 117 119 122 126 130 133 136 138 139 139 138 136 134 130 126 123 120 120 121 125 131 138 144 148 150 147 142 134 125 119 116 118 125 137 150 162 170 172 168 158 141 121 104 93 89 94 107 124 142 155 161 160 152 138 123 111 103 102 107 116 127 136 142 144 142 137 131 124 118 115 114 115 118 121 126 130 133 135 135 133 129 124 120 116 115 115 119 125 132 140 146 
147 150 151 148 143 137 131 127 125 125 126 129 132 135 137 138 138 137 135 132 130 127 125 123 123 124 127 131 136 142 147 150 151 150 146 139 131 123 118 117 120 128 139 151 162 170 172 168 157 141 122 104 92 88 91 102 118 135 148 156 156 149 137 124 113 107 106 111 120 129 137 142 142 139 133 127 121 118 117 118 120 123 127 130 132 133 132 130 125 119 113 107 103 101 102 105 112 121 131 140 
140 145 147 146 142 138 134 131 130 131 134 137 139 141 141 140 137 133 129 125 122 119 118 119 122 126 132 138 144 149 152 154 152 148 142 134 126 119 115 114 118 125 136 148 158 165 168 164 155 140 123 106 94 89 91 100 114 129 142 149 150 145 135 123 114 109 110 115 122 130 136 138 137 133 128 122 119 118 120 123 127 131 134 136 136 134 131 126 119 111 103 96 91 89 89 93 100 109 120 131 
132 138 140 140 138 135 133 132 133 136 139 143 145 146 144 141 136 129 123 117 113 111 111 114 119 126 134 142 149 153 155 154 150 144 136 127 119 113 109 109 112 119 128 139 149 156 160 158 151 139 124 110 99 93 94 101 112 126 137 144 145 140 132 123 115 112 112 117 123 129 133 134 131 127 122 119 118 120 125 130 135 139 142 142 141 137 132 125 116 107 98 90 84 81 81 84 90 100 111 122 
125 130 132 132 130 128 128 129 133 137 142 146 149 149 146 141 133 125 117 110 105 103 104 108 115 124 134 143 150 154 155 152 147 139 129 120 112 106 102 102 104 110 118 127 136 144 149 150 146 138 127 115 105 100 100 105 114 125 134 140 141 137 130 122 116 114 115 118 123 127 129 128 125 121 118 117 119 124 131 138 144 148 150 149 146 141 135 127 118 108 98 89 83 79 78 81 87 95 106 116 
121 124 125 123 121 120 120 124 129 135 142 147 150 149 146 139 131 121 112 104 100 98 99 104 112 122 132 142 149 152 152 149 142 133 123 113 105 99 96 95 96 100 106 114 122 131 137 140 140 136 129 121 114 110 109 113 119 127 134 138 138 134 128 122 117 115 116 120 123 125 126 124 120 117 116 117 122 130 139 146 152 155 156 154 150 145 139 132 123 114 104 95 88 84 83 85 90 97 106 115 
122 123 120 117 113 112 113 117 123 131 138 144 147 147 143 137 128 118 109 102 97 95 97 102 110 120 130 140 146 150 149 144 137 127 117 107 100 94 91 90 91 93 97 103 110 118 125 131 134 134 132 127 123 120 119 122 126 131 135 137 136 132 127 122 118 117 118 120 123 124 123 121 118 116 116 120 127 136 145 153 158 160 159 156 152 148 143 138 131 124 116 108 101 96 94 95 100 106 113 118 
127 125 120 114 109 106 106 110 117 125 133 139 142 143 139 133 126 117 109 103 99 97 99 104 111 120 130 138 144 146 145 140 132 122 113 104 97 93 90 89 89 90 93 97 102 109 116 123 129 132 134 133 131 130 129 131 133 135 137 137 135 131 127 122 119 119 120 122 123 123 122 120 117 117 119 124 132 142 150 156 159 159 157 153 149 146 144 142 140 136 131 125 119 115 112 113 115 120 124 127 
136 130 123 115 108 104 103 106 112 119 126 132 136 136 134 130 124 118 112 107 105 104 106 110 116 123 131 137 141 143 141 135 128 119 110 103 97 94 92 91 91 92 94 96 100 105 112 118 125 131 134 136 137 137 138 138 139 140 140 138 135 131 126 122 120 120 121 123 124 124 123 121 119 120 123 129 137 145 151 155 155 153 148 144 141 140 141 144 147 148 146 143 139 135 133 132 133 136 138 138 
144 137 129 120 112 106 104 105 109 114 120 125 128 129 128 126 123 120 117 115 114 114 116 119 123 128 133 137 139 139 136 131 124 117 109 104 100 99 98 99 99 100 101 102 103 106 111 116 123 129 134 138 140 142 143 143 143 143 141 139 135 130 125 122 120 120 121 123 125 125 125 123 122 123 126 132 139 145 149 149 146 141 135 130 127 129 134 142 149 155 158 158 156 153 151 149 149 149 149 148 
149 143 135 126 118 112 109 108 109 112 115 118 120 122 123 123 124 124 125 126 126 127 128 130 132 134 136 137 137 136 132 127 121 115 110 107 105 106 108 110 112 113 113 112 112 112 114 117 121 126 131 136 140 143 144 145 145 144 142 138 134 129 124 121 120 120 122 124 126 127 127 126 125 126 129 133 138 141 142 139 133 125 117 112 111 115 124 135 148 158 164 167 166 164 162 159 158 157 156 154 
151 146 140 134 127 121 117 114 112 112 112 113 114 115 118 121 125 129 133 136 138 140 140 140 140 139 138 137 135 132 127 123 118 113 111 110 112 115 120 124 127 129 128 126 123 120 118 118 120 123 128 132 137 140 143 144 144 143 141 137 132 127 123 120 119 120 122 125 127 128 128 128 127 128 129 132 134 134 132 126 117 108 100 95 95 101 112 127 143 156 165 169 169 167 164 161 158 157 155 154 
147 146 143 140 135 131 126 122 117 114 111 109 109 111 114 120 127 134 140 145 148 150 149 148 145 142 139 135 132 127 123 118 115 112 111 113 118 124 131 138 143 145 144 140 135 129 123 120 118 120 123 127 131 135 139 141 141 140 138 134 130 126 122 120 119 121 123 126 129 130 130 129 128 127 128 128 128 126 121 113 104 94 86 82 83 90 102 118 136 151 161 165 166 163 158 154 150 148 148 147 
139 142 144 144 143 140 135 130 123 117 112 108 106 108 113 120 128 137 145 151 155 155 154 151 147 142 137 133 128 123 119 115 112 111 113 117 123 132 141 149 155 157 156 152 144 136 127 121 117 116 117 121 125 129 133 135 136 136 134 131 127 124 121 120 121 123 126 128 130 131 130 129 127 125 124 123 122 118 112 104 95 86 79 76 77 84 96 112 129 144 154 157 156 152 146 140 136 134 134 136 
129 135 141 146 147 147 143 137 129 121 114 108 106 107 112 120 130 140 148 154 157 157 154 150 145 140 134 129 124 120 116 113 111 111 114 120 128 138 148 157 162 165 163 158 150 139 129 121 115 113 113 116 120 124 127 129 130 130 128 126 124 123 122 122 124 126 129 131 133 132 130 127 124 122 120 119 117 113 107 100 92 84 78 76 78 84 95 110 125 137 145 147 144 137 129 123 118 116 118 123 
119 128 138 145 150 151 149 143 134 125 116 110 107 108 113 122 131 141 148 153 154 153 150 145 140 135 130 126 122 119 116 114 113 114 117 123 131 141 151 159 165 167 165 159 150 139 129 120 114 111 111 113 117 119 122 123 123 123 122 121 121 122 123 126 129 132 134 136 135 133 130 126 122 118 116 115 114 111 107 102 95 89 85 83 85 91 100 112 124 133 137 136 131 122 114 106 102 101 104 110 
111 123 134 144 150 153 151 146 138 129 119 113 110 111 116 123 132 140 146 148 148 146 142 137 132 129 126 124 122 121 119 118 117 118 121 126 134 142 151 158 163 164 161 155 146 136 126 119 114 112 113 115 117 118 119 118 117 116 115 116 118 121 126 130 135 138 141 141 139 135 129 124 119 115 114 113 114 114 112 109 105 101 98 97 98 103 110 119 126 131 132 128 120 111 102 95 91 91 94 101 
108 120 132 142 149 153 152 147 140 131 122 116 113 114 118 124 131 137 141 142 140 136 132 128 125 123 123 124 125 125 125 125 124 125 126 130 136 142 149 154 157 156 153 147 139 130 123 118 116 117 118 120 121 121 118 115 112 109 109 111 115 121 128 135 141 146 147 146 142 136 129 122 116 113 112 114 117 119 121 121 119 117 115 114 116 119 123 128 131 132 129 122 114 104 96 89 86 87 91 98 
108 119 130 140 147 150 150 147 140 132 125 119 116 117 120 125 129 133 134 133 130 126 122 119 119 120 123 126 129 132 133 133 133 132 132 134 137 141 144 147 147 146 141 136 129 124 120 119 121 124 127 129 129 126 121 114 108 104 103 106 112 120 130 140 148 152 153 151 145 137 128 120 115 112 113 116 121 127 131 134 135 134 133 133 133 134 136 137 136 134 128 120 111 102 95 90 88 89 93 99 
112 121 129 137 143 146 146 144 139 133 126 122 119 119 121 124 127 128 127 125 121 117 114 113 115 119 124 130 136 139 141 142 140 139 138 137 137 138 139 139 137 133 129 124 119 117 118 121 127 134 139 141 140 134 125 115 106 100 98 101 108 120 132 144 152 157 157 154 146 137 127 119 114 112 115 120 127 134 141 145 147 148 147 147 146 145 145 143 140 135 128 120 112 105 99 96 95 97 100 105 
118 123 128 134 138 140 141 140 136 132 127 123 121 120 121 122 123 123 121 117 114 111 109 111 114 120 128 135 142 146 148 147 146 143 140 138 136 135 133 130 126 122 116 112 110 111 116 124 134 144 150 153 150 142 130 117 105 97 94 97 106 118 133 146 155 160 159 155 146 136 126 118 114 114 118 124 132 140 147 152 154 155 154 153 152 150 148 145 140 135 128 121 115 110 107 106 106 108 110 114 
124 125 127 129 132 133 134 134 132 130 127 124 122 120 120 120 119 118 115 112 109 108 108 111 117 124 133 140 146 150 151 149 147 143 140 137 134 131 127 123 118 112 107 103 103 107 115 127 140 152 160 163 159 150 136 120 105 95 92 95 104 117 133 146 156 160 159 153 144 134 124 118 115 116 121 128 137 144 150 153 154 154 153 152 150 148 146 142 138 133 127 122 118 116 116 116 118 120 121 123 
128 126 124 124 124 126 127 128 128 128 126 124 122 120 119 117 116 114 112 109 108 108 110 115 121 129 137 144 148 150 149 147 143 139 135 132 129 127 123 118 112 106 101 98 99 104 114 128 144 157 166 169 165 155 140 122 106 95 91 94 103 117 132 145 154 157 155 149 140 131 123 118 117 120 125 132 139 145 148 149 149 148 146 144 143 141 139 137 133 129 126 123 122 122 124 127 129 131 131 130 
130 125 120 118 117 118 120 123 125 126 125 124 122 120 118 116 114 112 110 109 109 111 115 120 127 135 141 146 148 147 144 140 135 130 127 125 124 123 120 116 111 104 99 96 96 102 113 128 144 159 168 171 168 157 142 124 108 97 93 96 105 117 131 143 150 152 149 143 135 127 121 118 119 123 129 135 140 143 143 142 139 136 134 132 132 131 131 130 128 126 125 124 125 127 131 135 138 139 138 135 
130 122 116 112 110 112 115 118 122 125 125 125 123 121 118 116 114 112 112 112 113 116 121 127 133 139 143 145 145 141 136 129 124 119 117 117 119 120 120 117 113 107 101 96 96 101 111 125 141 156 165 169 165 156 141 125 110 100 97 100 108 119 131 140 145 145 142 135 129 123 120 120 123 128 133 138 140 140 137 133 128 124 121 120 121 122 124 125 125 125 125 126 128 132 136 141 144 144 142 137 
128 119 112 107 105 107 111 116 121 125 127 127 126 123 121 118 116 115 115 116 119 122 127 133 138 142 144 144 140 133 126 118 112 108 108 110 114 119 122 122 118 112 106 100 98 100 108 121 135 149 158 162 159 151 138 124 112 105 103 106 114 123 132 138 140 138 133 128 123 120 120 122 127 133 137 140 139 136 130 123 117 112 110 110 113 116 120 123 125 126 127 128 131 135 140 144 147 147 144 137 
127 117 109 104 103 105 110 116 123 128 130 131 130 127 125 122 120 120 120 122 124 128 132 137 141 144 144 141 135 126 117 108 102 99 100 105 112 120 126 128 127 121 113 106 101 101 106 115 127 139 147 151 149 142 132 122 114 110 110 115 122 129 134 136 135 131 125 120 117 117 120 125 132 137 141 141 138 132 124 116 109 105 104 105 110 115 120 125 128 129 130 132 134 138 142 146 148 148 144 136 
126 116 108 103 103 106 112 119 126 132 135 136 135 132 130 127 126 125 126 127 129 132 136 139 142 143 142 138 131 121 111 102 96 94 96 103 112 123 132 137 136 131 123 113 106 103 104 110 119 128 135 138 137 132 125 119 115 115 119 125 131 135 137 136 131 125 119 115 114 116 122 129 136 141 143 142 137 129 120 111 105 102 102 105 111 118 124 129 132 134 134 135 137 140 144 147 149 148 143 135 
126 116 109 105 105 109 115 123 131 137 140 141 140 138 135 133 131 130 130 131 132 134 136 139 141 141 140 135 128 119 109 100 94 93 96 104 115 128 138 145 146 141 132 121 112 106 104 107 112 119 123 126 125 121 118 116 117 121 127 134 140 142 141 136 128 120 114 110 111 116 123 132 139 144 145 142 135 126 117 109 104 102 104 109 116 123 130 134 137 137 137 137 138 141 144 147 148 147 143 135 
126 117 111 108 109 113 121 129 136 142 145 145 144 142 139 137 135 134 133 133 133 134 135 136 137 138 137 134 128 120 110 102 96 95 98 107 119 132 144 151 153 148 140 128 118 110 106 106 109 113 115 116 115 113 111 113 117 125 134 142 147 148 144 136 126 116 110 108 110 117 125 134 141 145 144 140 133 125 116 110 106 106 109 114 121 128 134 137 139 138 137 137 137 140 143 146 147 146 142 135 
127 119 113 111 113 118 126 134 141 146 148 148 146 143 140 138 136 135 134 133 132 131 131 132 133 135 135 134 130 123 115 108 102 100 103 111 123 136 148 155 157 153 145 134 123 114 110 109 110 111 112 111 109 107 107 110 117 128 138 147 152 151 145 135 123 113 107 106 110 118 127 136 142 145 143 138 131 123 116 111 109 111 114 120 126 131 135 137 137 135 134 133 134 137 140 144 146 145 141 135 
126 119 114 113 116 122 130 138 145 148 150 148 145 142 138 136 134 133 131 130 128 127 126 127 129 132 134 135 133 129 122 115 109 106 108 115 126 138 148 155 157 154 146 137 127 119 115 114 114 115 114 111 107 105 105 109 117 129 140 150 154 152 144 133 120 110 105 105 110 118 128 136 141 143 140 135 128 121 116 113 113 115 119 123 128 131 132 132 131 129 127 127 129 133 137 142 144 144 140 134 
124 118 113 113 117 123 132 140 146 149 149 146 142 137 134 131 129 128 127 125 124 122 122 124 127 131 135 137 138 135 129 123 116 113 113 118 126 137 146 152 154 151 145 137 129 124 122 122 122 122 120 116 110 106 105 109 117 129 140 149 153 150 141 129 117 107 103 104 110 119 128 136 139 139 136 131 125 120 117 116 117 119 122 125 126 127 126 124 122 119 118 120 123 128 135 140 143 142 139 132 
121 114 110 110 115 122 131 139 145 147 146 142 136 131 126 123 122 121 120 120 119 119 119 122 125 131 136 140 141 140 135 129 122 117 116 119 125 133 141 146 148 146 141 135 130 128 128 130 132 132 129 124 117 111 108 110 118 128 139 147 149 146 137 125 113 105 102 104 110 119 128 134 136 135 131 126 122 119 118 118 120 122 123 124 123 121 118 114 111 110 110 113 119 126 133 139 142 141 136 129 
116 109 105 106 111 119 128 137 142 144 142 137 130 124 119 115 114 114 114 115 116 117 119 122 127 132 138 142 144 143 139 132 125 119 116 117 122 128 135 139 140 139 135 131 129 130 133 138 141 142 139 133 125 117 113 113 118 127 137 143 145 141 132 121 111 103 101 104 111 119 127 132 133 130 126 122 119 118 119 121 123 124 124 123 119 115 110 106 103 103 105 110 117 126 134 140 142 140 134 125 
111 103 99 100 105 114 124 133 139 141 139 133 125 118 112 109 107 108 110 112 115 117 121 125 130 135 141 144 146 144 139 132 124 118 115 115 118 123 128 132 133 132 129 127 128 131 137 143 148 150 148 141 132 123 118 116 120 127 135 140 141 137 129 118 109 104 103 107 113 121 127 129 129 126 122 118 117 118 120 123 126 127 125 122 117 111 105 101 99 100 104 111 120 130 138 143 144 140 132 121 
106 97 93 94 99 109 120 130 137 139 137 131 123 115 108 104 103 104 107 111 115 120 125 129 134 139 143 145 145 142 136 129 122 116 112 112 114 119 123 126 127 126 125 124 126 131 138 145 152 154 152 146 137 128 122 120 122 128 134 139 139 135 127 118 111 107 107 111 117 123 127 128 126 122 118 115 115 118 122 126 129 129 127 122 116 110 104 101 101 103 109 118 127 137 145 148 147 141 130 117 
102 93 88 90 95 105 117 128 135 138 137 131 123 114 107 103 102 103 107 112 118 124 130 135 139 143 144 144 142 138 131 124 117 112 109 110 113 117 121 124 125 124 123 123 125 130 137 145 151 154 153 147 139 131 125 122 125 129 135 139 139 135 129 121 116 113 114 118 123 128 129 128 124 119 115 113 115 119 124 129 132 133 130 125 119 113 108 106 107 111 118 128 138 146 152 154 150 142 129 115 
100 91 87 88 94 104 116 128 136 140 139 134 126 117 110 105 103 104 108 114 122 129 135 140 144 145 145 142 138 132 125 118 112 109 108 110 114 119 123 126 127 125 124 123 124 128 135 141 147 149 148 143 136 130 125 124 127 132 137 141 141 138 133 127 123 122 124 128 131 133 133 129 123 117 113 112 115 120 126 132 136 136 134 129 124 118 115 115 117 122 130 139 148 155 159 158 153 143 128 113 
100 91 88 90 96 106 118 130 139 143 143 138 131 123 115 110 107 108 112 118 126 133 140 145 147 146 144 139 132 125 118 112 108 107 108 112 117 123 128 131 131 129 127 125 125 127 131 136 140 141 139 135 130 125 123 124 129 134 140 144 144 142 138 135 132 133 135 138 140 140 137 131 123 117 113 112 116 122 129 135 139 140 138 134 129 125 124 125 128 134 142 149 156 161 163 160 154 142 128 113 
102 95 93 95 102 112 123 134 142 147 147 143 137 129 121 116 113 113 116 122 130 137 144 147 148 146 141 134 126 118 112 108 106 107 111 116 123 129 134 137 137 135 132 128 127 126 128 129 131 130 128 125 121 119 119 123 129 137 143 147 148 147 144 142 141 142 145 147 148 146 141 133 125 118 113 114 118 124 132 138 141 142 140 137 134 132 131 133 137 143 149 155 160 163 163 159 151 140 127 113 
106 102 101 104 111 120 130 139 146 149 150 147 141 134 127 122 118 118 121 126 133 140 146 148 148 144 137 129 120 113 107 105 105 109 115 122 130 136 141 143 143 140 136 132 128 126 125 123 122 120 117 114 111 111 115 121 129 138 145 149 150 150 148 146 147 149 151 154 154 151 144 136 126 119 115 116 120 127 134 140 143 143 141 138 136 135 135 138 142 147 152 156 158 159 157 152 145 135 125 114 
112 111 112 116 122 130 137 144 148 151 151 148 144 138 132 127 123 123 125 130 136 142 146 148 146 140 132 123 115 108 104 104 107 113 120 129 136 143 146 148 147 143 139 135 130 126 123 119 115 111 107 104 103 105 110 118 128 137 145 149 150 149 148 147 148 150 154 156 156 152 145 137 128 121 118 119 124 131 137 141 143 142 140 137 134 134 135 138 142 145 148 150 151 149 146 142 136 129 122 116 
118 120 124 129 134 139 144 147 149 150 149 146 143 139 134 130 127 127 128 133 138 143 146 146 143 136 128 118 110 105 103 104 109 117 126 134 142 147 149 149 148 144 140 135 131 127 122 117 112 106 101 98 97 100 107 116 126 136 143 146 147 145 143 142 143 146 150 153 153 150 144 136 128 123 121 123 128 134 139 142 142 140 136 132 129 129 130 132 135 138 139 139 138 136 132 128 124 121 118 117 
124 129 135 140 144 146 148 148 147 146 144 142 140 137 134 131 129 129 131 134 139 143 145 144 139 132 123 114 107 103 102 106 112 121 131 139 145 149 150 148 145 142 138 134 131 127 123 117 111 105 99 96 95 98 105 114 125 134 139 141 140 137 134 133 134 137 141 145 146 144 140 134 128 125 124 127 132 137 141 142 140 135 130 125 122 121 122 124 126 127 127 126 124 121 117 115 114 114 116 119 
129 136 143 147 150 150 149 146 143 141 138 136 135 133 132 130 130 130 132 135 139 142 143 142 137 129 120 111 104 101 102 107 115 124 134 141 146 148 147 144 141 137 134 131 130 127 124 120 114 108 102 98 97 100 106 115 124 131 135 135 131 127 122 120 121 124 129 133 136 136 133 130 126 125 127 131 136 140 142 141 136 130 123 117 113 112 112 114 116 116 116 114 111 108 106 105 106 109 114 121 
131 140 146 150 151 149 146 142 137 134 131 130 129 129 129 128 129 130 132 135 139 141 142 140 134 126 117 109 103 100 102 108 116 126 135 142 146 146 143 139 135 131 128 127 127 127 126 123 119 113 107 103 102 104 109 117 124 129 131 128 123 116 110 107 107 110 115 120 124 125 125 125 124 126 129 134 138 142 142 139 133 125 116 110 106 104 104 106 108 108 108 106 104 101 100 100 102 107 114 123 
132 140 145 147 147 145 140 136 131 127 125 124 124 125 125 126 127 128 131 134 138 140 141 139 133 125 116 108 102 100 102 108 116 126 135 141 144 143 139 134 128 124 122 122 124 127 128 127 125 120 115 111 109 110 114 120 125 129 128 124 116 108 101 97 97 99 104 109 113 116 118 120 122 125 130 135 140 142 141 136 129 119 111 104 100 99 100 102 104 106 106 105 103 101 100 101 104 109 116 124 
131 136 139 141 140 137 133 129 125 122 121 120 121 121 122 122 123 125 128 131 135 138 140 138 134 126 118 109 103 100 102 107 114 124 132 139 141 140 136 130 124 119 117 118 121 126 129 131 130 127 123 119 117 117 120 124 128 130 128 122 114 105 97 93 91 93 96 101 106 110 113 116 120 125 131 136 140 141 139 133 125 115 107 101 98 98 100 103 106 109 110 110 109 108 108 109 111 115 120 125 
128 130 131 131 130 128 125 123 121 120 119 119 119 119 119 118 119 120 122 126 131 136 138 139 136 129 121 113 106 102 102 105 112 121 129 136 139 139 135 129 122 117 115 115 119 124 130 133 135 133 130 127 125 124 126 129 132 132 130 124 115 107 99 94 92 93 95 99 103 107 110 115 120 125 131 136 140 140 136 130 121 113 106 101 100 101 105 109 114 117 120 121 121 121 120 120 121 122 124 126 
125 123 121 120 120 119 119 119 120 120 120 120 120 118 116 114 113 113 116 120 126 132 137 140 139 134 127 119 110 105 102 104 109 117 126 133 138 139 136 130 123 118 114 115 118 123 130 135 137 137 136 133 131 130 131 133 135 136 133 128 121 114 107 102 99 98 100 102 104 107 111 115 120 126 132 136 138 137 133 126 119 111 106 104 105 108 114 119 125 129 133 134 135 135 134 133 132 131 129 127 
121 116 113 111 112 113 116 118 121 123 124 124 122 119 114 110 108 107 108 113 120 128 136 141 143 141 135 127 117 110 105 104 107 114 123 131 137 140 138 134 127 121 117 116 118 123 129 135 138 139 139 136 134 133 134 136 137 139 138 135 130 124 119 114 111 109 109 109 110 111 114 118 122 128 133 136 137 135 131 124 117 112 109 109 112 118 125 131 137 142 145 147 148 148 147 145 142 137 132 126 
117 111 107 106 107 111 116 121 126 129 130 129 126 120 114 108 103 100 101 106 114 124 134 143 148 148 144 136 126 116 109 105 106 112 120 129 137 141 142 138 132 126 121 118 119 123 129 134 138 140 139 138 135 134 134 136 138 140 141 141 139 136 133 129 126 124 121 119 118 117 118 121 125 130 134 137 137 134 129 123 117 114 113 116 121 128 135 142 148 151 154 155 156 155 154 152 147 141 133 125 
115 108 105 104 107 112 119 126 132 136 137 135 130 123 115 107 100 96 96 100 109 120 133 145 152 155 153 146 136 124 114 108 106 110 117 127 136 142 144 142 137 131 125 121 121 124 129 134 137 139 139 137 134 132 132 133 136 139 142 145 146 146 145 143 141 137 133 129 126 123 123 125 128 132 136 138 137 134 129 123 118 116 118 122 129 137 144 150 154 156 157 158 157 157 156 153 148 141 133 124 
115 109 106 107 111 117 124 132 138 142 143 141 135 127 118 108 100 95 94 97 105 117 132 145 156 161 161 155 145 133 121 112 108 109 115 125 134 141 145 144 140 134 129 124 123 125 129 133 137 138 137 135 132 129 128 128 131 135 140 145 149 152 153 153 151 147 142 137 132 128 127 128 131 135 138 140 139 135 129 124 120 119 122 128 135 143 149 153 155 156 155 153 153 152 151 149 145 139 131 123 
117 113 111 113 117 123 131 138 143 147 148 145 140 132 123 113 104 97 94 96 103 115 130 145 157 164 166 161 152 140 126 115 109 109 114 122 131 139 143 144 141 136 130 126 125 126 130 134 136 137 136 133 129 125 122 122 124 128 134 141 147 152 156 157 156 152 147 140 134 130 128 129 133 137 140 142 140 137 131 126 122 122 125 131 138 145 149 152 151 149 146 144 142 141 141 140 138 135 129 123 
122 120 119 121 125 130 136 141 146 149 149 148 144 138 130 120 111 103 98 98 103 113 127 142 155 164 167 164 156 144 131 119 111 109 112 119 127 135 139 140 138 134 130 127 126 127 131 134 136 137 135 131 126 121 117 115 117 120 126 133 140 147 152 155 154 152 146 140 134 130 128 130 134 138 142 144 143 139 133 128 124 124 127 132 137 142 145 145 142 138 133 130 128 128 129 130 131 130 128 125 
128 128 128 130 132 135 139 142 144 147 148 148 147 144 138 130 121 112 105 102 104 112 124 138 151 160 165 163 157 146 133 121 113 109 111 116 123 129 133 135 133 130 127 125 125 128 131 134 136 136 134 129 124 118 113 110 110 112 117 123 130 137 143 147 148 146 141 136 131 127 126 129 133 139 143 145 144 141 135 130 126 125 126 130 134 137 137 135 130 125 119 115 113 114 117 121 125 128 129 129 
136 137 137 137 138 138 138 138 139 140 143 145 147 147 145 140 132 122 113 107 106 110 119 130 143 153 158 158 153 144 132 121 113 110 110 113 119 124 127 128 127 125 123 122 124 127 130 134 136 136 133 129 123 117 111 108 106 106 109 113 119 126 131 136 137 137 134 130 126 124 124 127 132 138 143 146 145 142 137 131 127 125 125 126 128 129 127 124 118 111 106 102 102 104 109 115 122 128 132 134 
143 144 144 142 140 137 133 131 130 131 134 139 145 149 150 148 142 132 122 113 108 108 113 122 133 142 148 150 146 139 130 121 114 110 110 112 116 119 121 121 120 119 118 118 121 125 129 133 135 135 133 129 124 118 113 108 105 104 104 106 110 115 119 123 126 127 125 123 121 120 121 125 131 137 142 145 145 142 137 132 127 124 123 122 122 121 117 112 106 100 96 94 95 99 106 114 123 130 136 141 
149 149 148 145 140 133 127 121 118 119 123 131 140 148 153 153 149 140 129 118 109 106 107 113 122 130 137 139 138 133 126 119 114 112 111 113 115 117 117 117 115 114 114 115 118 122 127 130 133 134 133 130 126 122 117 113 109 106 104 104 105 107 110 114 116 118 119 118 117 118 119 123 128 134 139 142 142 141 137 132 128 124 122 119 117 114 109 104 98 94 91 90 93 99 107 117 126 135 142 146 
152 152 149 144 137 128 119 111 107 107 112 121 132 143 152 155 152 145 133 121 111 104 103 106 113 120 126 129 129 127 123 118 115 114 114 115 117 117 116 115 113 111 111 112 115 120 124 128 130 132 132 131 129 127 125 121 117 113 109 106 104 104 105 108 111 113 115 116 116 117 118 121 125 130 134 137 139 138 136 133 129 126 122 119 115 110 105 99 94 91 90 92 96 103 112 122 132 140 146 150 
153 152 148 142 134 123 112 103 98 97 102 111 124 137 147 153 152 146 135 123 112 104 101 103 107 113 118 121 122 122 120 118 117 117 118 120 121 120 118 116 113 111 110 112 114 118 121 125 128 130 131 132 133 134 133 131 128 123 118 112 108 106 105 107 109 112 115 116 117 117 118 119 121 124 128 131 133 135 135 134 132 130 126 121 116 110 104 98 94 92 93 96 102 110 119 129 137 144 149 152 
150 149 145 139 131 120 109 99 93 91 95 104 116 130 142 149 150 145 136 125 114 106 102 102 105 110 114 117 119 119 119 119 120 122 124 125 126 125 123 119 116 113 112 113 114 117 120 123 125 128 131 134 137 139 141 141 139 135 129 122 116 112 110 110 112 115 118 120 120 119 118 117 117 118 120 123 127 131 134 136 137 135 132 127 121 114 107 102 98 97 99 104 111 119 127 134 140 145 148 149 
144 143 141 136 129 119 108 99 92 89 92 99 111 124 136 144 146 143 136 127 117 110 107 106 108 111 114 117 118 119 120 121 123 126 129 131 132 131 128 124 120 117 115 115 116 118 120 122 125 127 131 135 139 144 147 149 148 144 139 132 125 120 118 117 119 122 124 125 124 122 118 115 112 111 112 116 121 127 133 139 142 142 140 136 129 121 114 109 105 105 108 113 120 127 133 137 140 142 143 143 
135 136 136 134 129 121 112 103 96 92 93 99 109 120 131 139 143 142 137 130 122 117 113 113 114 116 118 119 120 121 122 124 127 130 134 136 137 136 133 129 125 122 120 119 120 121 122 124 126 128 131 135 140 145 150 152 152 150 145 139 134 129 126 126 128 130 132 132 130 125 119 113 107 105 105 108 114 123 132 141 147 150 149 145 138 131 123 118 115 115 118 123 128 133 136 137 136 135 134 134 
125 128 131 132 131 126 118 110 103 98 98 102 110 120 130 137 142 142 139 134 128 124 121 120 120 121 122 123 124 124 125 128 131 134 137 139 140 139 136 132 128 125 123 123 123 125 126 127 129 130 133 136 140 144 148 150 151 150 147 143 139 136 134 135 137 140 141 140 136 129 121 111 104 99 98 101 109 119 131 142 151 155 156 153 147 140 132 127 124 125 128 131 135 137 136 134 130 126 124 123 
115 121 127 132 133 131 126 119 112 107 105 108 114 122 131 138 142 144 142 138 134 131 128 127 126 126 126 126 127 127 128 131 134 137 139 141 141 139 136 133 129 127 125 125 127 129 131 132 133 134 135 136 138 140 142 144 144 144 142 141 139 139 140 142 145 148 149 147 142 133 122 111 101 95 93 96 103 115 128 142 152 158 160 158 153 146 140 135 133 133 136 138 140 139 135 129 122 116 113 112 
108 115 124 132 136 137 133 127 121 116 114 115 120 127 135 141 145 146 145 142 139 135 132 130 129 128 127 127 128 129 131 133 136 138 140 141 140 138 134 131 127 125 125 126 129 132 135 137 138 138 138 137 135 134 133 133 133 133 133 134 136 139 142 147 151 154 155 152 146 137 124 111 100 93 90 92 99 111 125 139 151 158 161 159 155 149 143 140 138 139 141 143 143 139 133 124 115 107 103 103 
103 112 122 132 138 140 138 133 127 123 121 122 126 133 139 145 149 150 148 145 141 137 132 129 127 126 125 126 127 129 132 135 137 139 140 140 138 134 130 126 123 122 122 125 129 133 138 141 143 143 141 137 132 127 123 120 119 119 121 124 129 135 142 149 154 158 159 156 150 139 126 113 101 93 89 91 97 108 121 135 146 154 157 156 152 147 143 140 140 142 144 145 144 139 131 121 110 102 98 98 
103 112 123 133 139 142 140 136 130 126 124 126 130 137 143 148 152 152 150 146 141 135 129 124 121 120 120 121 124 128 132 135 138 140 140 138 134 130 125 121 118 117 118 121 127 133 139 144 147 147 143 138 130 122 114 109 106 106 108 114 121 130 139 148 154 158 160 157 151 141 129 115 104 95 91 91 96 105 117 129 139 146 148 148 144 141 138 137 138 141 144 146 144 139 130 119 108 100 96 97 
106 115 125 134 139 141 139 134 129 125 124 126 131 138 145 150 153 153 150 145 138 130 123 117 113 112 113 116 120 126 131 136 139 140 139 136 131 126 121 116 112 111 113 117 123 131 138 144 148 149 145 138 129 118 108 101 97 96 99 105 114 124 135 144 152 156 158 156 150 142 131 119 108 100 95 94 98 104 113 123 131 135 137 136 133 130 129 130 133 138 142 145 145 140 132 121 110 103 99 100 
112 120 129 136 139 139 135 130 124 121 120 123 129 137 144 150 152 152 148 142 133 124 116 109 105 104 106 110 116 123 130 135 139 140 138 134 129 123 117 112 109 108 109 113 119 127 135 142 147 149 146 139 130 118 107 98 93 92 94 100 109 119 130 139 146 151 152 151 148 141 133 124 115 107 103 101 102 106 112 118 122 125 125 123 120 118 118 121 126 133 139 144 145 141 134 125 116 109 105 107 
121 127 134 138 139 136 131 124 117 114 114 117 124 132 141 147 150 149 145 138 129 119 110 103 100 99 101 107 114 122 129 135 138 139 137 133 128 122 117 112 109 107 107 110 115 122 130 138 144 147 145 140 131 120 110 101 95 93 95 100 108 116 125 133 139 142 144 144 143 139 135 129 123 117 113 111 110 111 113 115 115 115 113 111 108 107 109 113 120 128 136 142 145 143 138 130 123 117 115 116 
