P2
100 100
255
140 171 197 213 217 205 175 128 82 51 38 41 61 98 146 187 209 214 204 176 131 82 47 29 22 23 30 44 67 100 134 159 172 173 164 147 125 102 84 71 65 62 62 65 72 86 105 125 141 151 154 147 131 109 87 69 55 44 36 33 34 42 56 77 103 131 157 179 194 201 200 189 173 153 134 115 96 77 60 47 38 32 29 27 27 30 39 57 87 128 167 192 201 194 174 144 116 100 100 114 
179 200 215 221 217 198 160 110 65 39 29 32 48 82 131 175 202 210 202 176 134 88 54 36 30 31 38 50 67 90 112 128 135 133 125 114 103 95 93 94 95 95 91 85 79 77 81 90 101 114 127 136 139 135 125 111 94 77 60 46 38 35 39 48 64 85 111 141 169 191 202 205 201 192 180 163 141 114 84 58 39 28 21 18 17 19 26 41 68 108 149 179 192 191 179 160 144 137 142 158 
205 218 225 226 215 189 144 91 51 30 22 26 41 73 121 168 198 209 204 183 148 107 75 57 51 52 59 69 80 90 97 100 98 93 87 83 85 94 109 126 137 139 132 117 96 78 66 64 69 81 100 124 146 161 165 160 146 125 98 71 50 36 31 32 38 51 72 102 140 175 199 212 217 216 211 200 181 152 115 77 48 31 21 17 16 18 25 39 63 98 136 164 178 179 172 163 158 161 173 189 
218 227 230 227 212 179 128 76 41 24 19 23 39 71 119 167 198 210 208 194 168 137 110 94 89 91 98 104 106 102 93 81 70 62 58 61 73 96 127 157 176 182 174 152 120 87 61 48 47 57 79 112 150 180 196 199 191 172 142 104 69 44 30 25 25 32 46 73 114 159 193 214 224 228 227 221 207 183 145 101 64 40 28 23 23 27 35 50 73 102 130 149 157 155 150 147 152 166 185 204 
222 230 232 226 207 169 115 66 35 22 19 25 43 76 124 171 200 212 212 203 187 168 151 141 139 143 148 149 141 124 99 73 54 44 41 46 64 97 141 180 203 210 204 182 145 100 63 42 35 42 63 101 149 189 213 221 219 206 179 137 90 54 33 23 20 23 34 57 97 146 188 213 226 231 233 229 220 201 168 126 86 58 44 39 41 48 60 77 97 117 130 134 130 121 115 116 129 153 181 205 
219 229 231 223 201 159 104 58 32 22 22 31 53 89 136 177 202 212 212 207 198 189 182 180 183 188 190 188 174 147 109 72 47 33 30 37 57 96 147 191 216 225 221 202 166 115 69 41 30 33 52 91 145 192 219 231 232 224 201 161 109 65 38 24 20 22 31 53 92 141 184 210 224 230 231 229 222 207 182 147 111 85 72 70 76 88 104 120 134 140 136 122 103 87 78 80 96 127 164 197 
211 225 228 219 194 149 96 54 33 26 30 44 70 109 151 184 201 206 204 200 195 193 196 201 208 213 216 212 197 167 121 75 44 28 24 31 51 92 147 195 222 232 230 215 182 131 78 43 28 29 46 84 139 189 220 234 237 230 210 173 120 73 43 28 24 27 37 60 98 145 183 207 218 222 223 219 213 201 183 159 136 120 114 118 128 142 157 168 172 165 145 113 82 60 50 51 66 97 140 183 
201 220 223 213 185 139 89 53 36 34 43 64 95 132 165 186 192 190 183 177 175 180 190 203 215 223 227 224 210 180 133 81 45 26 21 26 46 86 143 193 222 234 234 222 194 146 91 50 31 29 43 79 134 185 218 232 235 229 209 173 122 76 48 35 33 39 54 80 116 155 185 201 207 206 202 196 189 180 170 159 152 151 156 166 178 190 199 204 201 184 151 107 68 44 33 32 44 72 116 165 
190 212 216 205 174 129 83 54 44 49 66 93 126 156 175 180 173 159 145 136 136 147 167 190 210 223 230 228 217 190 144 90 49 28 20 24 42 81 137 189 220 233 235 226 203 161 106 62 38 33 46 80 131 181 213 227 228 220 198 161 114 75 53 46 50 63 84 112 143 170 186 191 186 176 165 155 147 142 141 146 156 170 186 199 211 219 224 224 216 195 154 102 59 34 23 22 31 55 96 148 
179 204 208 193 161 117 79 59 57 71 97 129 157 175 178 166 144 118 98 88 89 103 129 162 193 215 226 228 220 198 157 104 60 34 24 26 42 78 131 183 216 231 234 228 210 174 125 79 51 44 55 87 133 178 205 216 214 201 175 138 99 71 60 63 78 100 126 152 172 184 185 175 157 135 116 103 96 96 104 121 147 175 199 216 227 233 236 233 223 198 153 97 53 29 18 17 25 45 83 135 
172 195 197 179 145 105 76 66 76 100 133 164 183 188 175 147 111 79 58 49 51 63 89 127 167 199 218 225 222 205 172 124 79 49 35 34 48 79 128 177 209 226 231 227 213 185 144 102 73 64 74 102 140 175 195 199 191 170 141 108 81 67 69 86 113 143 169 187 196 195 183 158 125 95 73 60 56 59 71 95 130 170 201 221 233 238 240 236 224 196 147 90 48 25 16 15 23 41 77 127 
167 187 184 162 126 93 74 76 97 132 167 191 201 194 168 126 83 51 34 27 28 38 58 92 135 176 204 218 220 210 187 150 108 76 57 52 62 87 127 168 198 215 221 220 210 191 161 128 104 95 103 124 151 172 180 174 157 131 102 78 64 64 80 110 147 179 200 211 212 202 180 144 102 67 46 36 33 37 49 73 111 156 194 219 232 238 239 235 221 190 138 82 43 23 15 16 24 43 78 126 
167 180 170 142 108 81 73 86 118 158 191 209 211 196 160 110 64 35 21 16 17 24 39 65 103 147 183 205 214 212 200 176 145 115 94 84 86 101 127 156 179 194 202 203 198 187 169 150 135 130 136 149 162 168 162 144 119 92 69 55 52 62 89 130 171 202 218 223 220 206 179 138 92 57 36 28 25 29 38 58 92 137 179 208 225 233 235 230 214 179 126 73 38 21 16 18 28 50 87 132 
170 174 155 123 90 70 71 93 134 176 206 219 217 196 155 100 54 28 16 13 14 19 29 48 78 116 155 184 202 209 206 196 179 159 140 127 119 119 126 137 149 159 166 170 171 170 166 162 159 160 164 169 170 162 143 116 88 64 48 41 45 61 94 140 183 211 224 227 222 208 181 140 96 61 41 32 29 30 36 50 76 113 155 188 210 222 226 220 202 165 113 65 35 21 18 23 37 63 102 143 
175 169 142 105 74 60 67 95 141 185 213 224 219 197 154 98 53 28 17 14 16 20 27 40 60 88 122 154 179 196 204 206 201 192 180 166 151 135 122 114 111 112 116 122 130 139 150 161 170 178 182 181 173 155 128 96 69 50 39 37 44 62 96 140 181 208 220 223 219 206 184 151 113 81 61 49 43 40 41 47 62 89 123 157 183 200 208 204 186 150 101 60 35 24 24 33 52 84 124 159 
181 165 129 89 61 51 61 92 140 185 214 224 220 198 157 103 59 34 24 22 24 28 33 40 51 68 91 118 146 172 192 205 211 211 205 193 173 145 114 90 76 70 70 76 87 104 126 150 170 183 188 184 170 147 117 87 63 49 42 42 49 65 94 131 167 192 204 209 207 200 186 165 139 116 97 83 72 61 53 50 54 67 89 116 144 166 180 181 167 136 96 61 40 33 37 51 77 114 151 176 
187 162 119 78 51 43 53 82 129 176 207 220 218 200 165 117 76 52 42 41 44 47 50 51 52 57 67 84 108 137 168 193 210 218 217 207 184 148 105 71 51 42 40 45 55 75 103 135 163 180 184 178 162 138 111 87 71 61 57 58 62 73 91 116 141 160 172 179 182 183 182 176 167 156 145 132 115 95 74 58 50 52 61 78 100 124 145 155 150 130 100 73 57 53 61 81 112 148 177 191 
191 160 113 70 44 36 44 69 110 156 191 209 212 200 174 138 105 84 76 77 81 84 81 73 62 54 52 58 73 100 135 172 200 216 220 211 187 145 96 58 37 27 25 29 39 59 89 124 154 171 174 165 147 127 108 96 90 88 88 88 88 89 92 99 108 117 125 134 144 156 170 181 188 189 186 177 160 132 99 69 50 42 43 51 67 89 114 134 142 136 119 100 89 88 100 122 152 179 198 203 
195 160 110 66 40 31 35 53 85 126 163 187 197 195 181 161 141 128 125 129 135 135 126 107 81 59 45 42 48 68 102 146 184 209 217 210 184 139 87 49 29 21 20 24 36 57 87 122 149 161 158 145 128 114 108 110 118 127 132 132 126 114 100 87 79 77 79 85 99 122 151 179 199 210 213 208 192 162 120 79 51 37 33 36 47 68 96 126 146 153 148 139 133 135 146 165 186 203 213 211 
199 163 113 66 39 28 28 39 60 91 124 153 172 181 182 178 173 171 174 180 185 184 170 143 104 68 44 33 34 47 76 121 167 199 212 205 178 131 80 44 26 19 20 28 43 68 100 131 151 154 142 123 107 100 106 124 146 165 176 176 165 144 114 84 62 50 46 50 64 92 131 172 202 219 225 223 208 177 131 83 51 34 28 29 40 61 93 130 160 175 178 176 174 176 184 196 208 218 221 217 
204 171 121 73 42 27 24 29 41 59 84 111 136 158 175 185 193 199 206 213 217 214 200 169 122 76 44 29 26 35 60 103 153 190 206 200 172 124 75 42 26 23 27 41 63 94 126 151 160 152 129 103 86 85 100 131 165 192 205 207 196 170 131 87 55 36 29 31 44 72 117 166 203 223 230 227 212 179 130 80 47 31 25 28 40 64 102 144 176 194 200 200 200 201 205 212 220 225 226 221 
210 182 136 87 51 31 23 23 28 38 53 74 101 132 162 186 202 214 222 228 231 228 214 182 132 80 45 27 23 31 54 96 147 186 202 196 168 120 73 43 30 31 42 64 96 131 161 176 174 154 120 87 69 70 91 129 173 204 220 223 214 190 147 96 55 32 23 23 35 62 110 163 203 224 230 225 207 169 118 71 42 28 25 30 46 76 118 161 191 206 211 210 208 208 211 216 221 226 227 223 
216 194 156 109 67 40 26 21 21 26 35 50 75 110 149 182 205 219 228 233 235 230 215 182 131 79 45 28 25 34 59 101 151 187 202 195 165 118 73 46 38 45 66 99 138 172 193 199 188 158 115 76 56 56 78 120 169 206 226 231 224 203 161 107 60 33 21 22 33 61 109 164 203 223 227 218 193 151 100 59 36 26 27 36 57 93 137 175 199 208 209 205 200 198 200 206 214 221 225 225 
220 206 178 136 91 57 36 25 21 22 28 41 64 100 143 180 205 220 228 232 232 224 206 171 121 74 44 32 32 45 75 119 164 195 205 196 165 118 76 53 50 65 97 139 177 204 216 216 199 163 113 69 47 45 64 104 157 200 224 233 229 211 173 119 68 37 24 24 36 65 114 167 204 220 220 205 173 126 79 47 31 26 31 46 74 113 154 184 198 200 193 182 172 168 171 181 194 208 218 223 
221 215 197 165 123 82 53 36 29 27 32 45 68 105 147 182 205 218 224 224 220 208 185 148 104 67 45 39 47 68 103 146 184 205 210 197 165 119 79 60 64 88 130 174 206 224 230 226 206 167 112 65 40 35 50 86 138 188 218 231 230 216 183 131 78 43 29 28 42 72 121 171 203 215 210 187 148 100 61 38 29 30 41 62 95 134 167 185 187 177 159 140 126 120 123 137 159 183 203 216 
216 219 211 189 156 116 82 58 47 44 49 64 89 124 160 188 205 212 212 207 197 179 151 117 83 59 50 54 72 102 140 177 203 216 214 197 162 117 80 66 75 108 155 196 223 235 238 231 210 169 111 62 35 28 38 67 116 170 208 226 229 219 190 142 88 52 35 34 49 81 128 174 201 207 195 166 122 79 49 35 32 40 59 87 122 155 175 178 166 142 114 91 76 70 73 88 113 145 178 203 
205 217 217 205 182 150 118 92 79 76 83 100 125 153 179 195 202 200 191 177 158 135 108 83 64 55 60 78 107 143 177 203 218 223 216 194 155 110 77 66 81 119 168 207 230 240 241 233 213 171 111 60 32 23 29 52 95 150 195 219 227 219 195 151 99 60 42 41 56 87 132 172 194 195 178 143 101 65 45 39 44 61 87 120 151 173 179 167 139 104 73 52 40 35 38 49 71 104 143 180 
184 205 213 210 197 176 151 132 121 122 131 147 166 184 197 201 196 181 159 134 109 87 69 56 50 56 75 107 146 181 206 221 228 226 213 185 142 97 68 61 78 118 168 208 231 240 241 234 213 171 111 59 30 19 22 40 77 130 181 211 223 218 197 157 107 67 48 47 61 90 130 165 183 180 160 125 89 63 51 54 69 93 125 156 179 188 181 154 114 74 46 29 20 18 20 27 42 69 106 149 
154 184 199 202 197 185 171 161 159 164 174 187 199 207 209 203 185 156 122 90 67 51 41 38 44 61 94 137 178 207 224 232 232 225 206 170 123 80 55 51 68 106 156 199 225 237 239 232 212 171 112 60 30 18 19 33 65 116 169 203 218 215 196 158 110 72 53 50 62 88 122 153 168 165 145 117 89 74 72 84 106 135 165 188 200 199 182 145 98 57 31 18 12 10 11 16 26 45 75 115 
121 152 172 180 179 175 171 171 177 188 200 211 218 220 215 200 171 129 88 58 39 29 26 29 42 69 113 162 200 223 233 236 232 219 192 149 100 62 42 40 54 86 133 180 212 228 233 228 209 170 113 62 32 20 20 33 62 110 162 198 213 211 191 154 108 72 54 51 61 82 111 137 152 152 139 120 105 99 107 125 150 175 196 210 214 207 184 143 92 51 27 15 10 8 9 12 19 32 53 84 
91 117 135 143 145 146 149 158 174 192 208 220 225 225 216 194 155 106 64 38 24 19 19 26 44 79 130 180 213 231 237 236 227 207 171 123 76 46 31 30 40 64 104 150 188 212 222 219 203 167 116 69 40 27 28 40 70 115 163 196 209 205 183 145 101 68 52 49 57 74 99 123 140 146 143 136 132 136 148 167 187 204 216 222 222 212 189 148 98 57 32 19 14 12 12 14 19 28 42 64 
75 90 100 104 104 105 112 128 151 178 200 216 223 223 211 184 140 89 50 28 17 14 16 26 49 90 145 192 221 233 236 231 216 188 144 95 56 34 24 23 29 46 74 114 154 184 201 203 192 163 121 80 54 43 46 61 91 133 173 198 206 197 172 132 90 61 48 46 52 68 90 114 135 148 154 157 162 170 183 197 209 219 225 227 224 214 194 159 115 75 48 33 26 23 22 24 28 34 44 59 
77 81 80 76 71 70 75 90 115 147 176 199 211 212 200 171 126 78 43 24 16 14 18 31 58 104 158 200 224 232 231 221 198 160 113 70 41 25 19 19 23 33 52 81 115 146 168 177 173 155 126 98 80 73 79 97 126 160 188 203 203 189 158 116 78 54 43 42 49 64 86 113 138 157 170 179 186 195 204 212 218 222 224 224 220 213 198 174 140 106 79 62 53 48 46 47 50 55 62 70 
99 92 80 66 55 49 50 59 79 107 138 166 184 189 180 154 114 73 44 27 20 20 26 42 74 121 171 206 223 227 220 202 170 127 83 50 30 21 18 18 22 28 40 58 82 107 129 143 147 142 132 121 115 117 127 144 166 188 203 208 201 179 142 100 66 47 40 41 50 66 89 118 146 168 184 194 201 207 212 214 215 214 213 210 208 204 197 185 166 145 126 110 100 94 91 91 92 95 99 101 
136 120 98 74 55 42 38 40 51 70 95 122 143 155 152 135 107 76 53 39 34 35 44 64 99 143 184 209 218 215 201 173 134 92 58 36 25 21 21 23 27 32 39 50 63 78 94 107 118 127 134 141 150 160 172 186 199 209 214 211 197 169 128 87 58 43 39 43 54 73 99 129 157 178 192 200 205 207 206 203 197 191 185 181 180 182 186 187 186 180 172 165 158 153 150 149 149 149 148 145 
174 155 129 98 70 49 37 33 36 45 61 80 99 115 122 119 107 91 76 66 62 66 78 100 132 167 194 207 207 195 170 135 96 63 41 29 25 26 30 36 43 48 53 57 61 66 72 81 93 109 129 152 173 190 202 212 218 221 219 210 190 157 115 78 54 44 44 52 66 87 114 142 166 182 192 196 196 192 184 173 161 148 138 133 136 145 161 179 193 201 204 204 202 200 197 196 194 193 190 185 
200 186 163 132 98 69 48 36 32 33 40 51 66 82 99 112 118 118 115 111 110 115 127 145 168 188 200 200 188 164 131 95 64 42 31 28 31 39 51 64 75 83 86 83 77 70 66 66 75 92 119 151 180 202 215 222 225 224 218 204 180 144 105 74 57 53 57 69 86 108 131 153 168 177 181 179 172 161 146 128 110 95 85 81 85 101 127 159 188 208 219 224 225 224 222 220 218 215 213 209 
213 205 190 166 135 101 72 50 37 31 31 36 46 63 86 113 137 153 160 163 164 168 175 185 195 201 199 186 161 127 92 62 42 31 29 34 46 65 87 109 126 135 135 126 109 89 71 62 63 77 103 138 173 199 214 221 222 218 208 190 163 129 97 76 68 71 82 98 116 134 149 158 162 161 156 147 134 118 100 82 66 53 45 43 48 64 93 134 176 206 223 231 233 232 230 226 223 220 218 216 
211 211 206 193 171 141 107 76 53 38 31 31 39 55 84 122 158 183 196 202 204 206 208 210 210 204 190 164 128 91 61 41 30 28 33 48 72 104 136 162 179 186 184 171 148 116 86 65 58 64 85 118 153 182 199 206 206 199 185 164 138 112 94 86 90 102 118 135 150 159 161 157 147 134 121 107 92 77 62 49 38 30 25 24 28 41 67 110 158 197 219 228 231 229 224 218 212 209 208 209 
197 206 211 209 199 178 149 114 81 55 40 34 39 55 88 132 174 203 217 223 225 225 224 220 213 199 173 137 98 64 42 30 27 32 47 73 109 148 181 203 215 219 216 203 179 143 103 72 57 57 70 96 126 153 170 176 173 162 146 127 109 96 93 102 119 140 158 172 179 178 167 148 125 104 86 72 60 50 40 32 25 20 17 16 20 30 52 91 139 181 207 217 218 213 203 192 183 178 179 186 
168 191 208 216 215 205 185 155 118 83 58 44 45 60 94 141 185 213 227 232 233 232 228 220 207 185 152 112 75 49 34 29 33 45 70 107 149 185 211 226 233 234 230 219 197 162 119 83 62 56 63 79 100 119 130 132 126 114 100 88 80 83 97 121 150 174 191 199 199 188 166 135 103 77 60 50 43 37 32 27 23 19 17 16 19 28 47 79 121 161 186 194 191 180 163 146 133 127 132 146 
131 167 197 216 223 221 211 189 157 119 84 61 55 67 99 145 187 215 228 233 233 229 222 210 192 164 128 91 62 44 37 38 49 70 103 144 183 210 227 236 239 239 234 223 204 172 131 95 73 64 67 76 86 94 95 90 81 71 62 57 60 74 102 140 175 199 212 215 209 192 160 120 83 59 45 39 37 36 35 33 30 27 25 25 27 35 50 75 108 138 155 158 148 130 110 91 78 74 81 100 
96 140 183 211 226 230 225 212 189 153 114 83 68 74 100 140 180 207 220 224 222 216 205 189 167 139 108 80 61 52 52 60 78 106 142 178 206 224 234 238 239 236 229 218 199 171 138 109 91 85 86 89 90 86 76 64 53 44 39 39 48 70 109 155 192 214 223 223 213 190 151 106 69 48 39 38 41 46 50 52 51 49 47 46 48 54 66 83 102 117 121 115 99 81 63 49 41 39 45 63 
71 117 167 204 224 232 233 225 208 180 141 104 81 77 94 125 160 185 199 202 198 188 173 155 134 113 94 80 74 75 82 97 120 149 178 203 220 230 234 234 231 225 215 200 182 159 138 123 117 117 120 121 114 98 77 56 40 31 27 30 42 70 115 166 203 222 229 226 213 185 141 94 60 43 40 45 56 69 81 89 91 90 87 85 86 90 96 103 108 105 95 80 63 47 35 26 22 21 26 41 
57 99 151 194 219 231 234 230 218 194 158 118 88 76 82 102 127 148 159 161 155 143 128 114 102 94 91 94 101 112 126 144 164 184 202 216 224 227 227 222 213 201 185 168 151 137 131 135 144 155 162 161 149 125 92 61 39 27 23 26 40 70 120 173 209 227 231 227 210 178 131 84 54 43 46 61 83 107 127 140 145 145 142 140 138 138 138 134 123 105 82 60 43 30 22 17 15 15 20 32 
51 87 136 180 209 224 229 228 218 197 163 122 88 70 67 76 89 102 109 108 102 93 84 78 79 87 101 119 138 155 169 183 195 205 213 218 219 216 209 197 180 161 140 121 110 109 120 142 167 186 196 197 185 158 117 75 44 27 21 24 39 72 124 177 212 228 232 225 205 169 120 77 53 48 59 84 117 149 173 186 191 192 190 187 184 181 175 164 143 112 80 53 36 25 19 16 15 16 20 30 
52 80 120 161 191 209 217 216 208 189 157 117 83 63 54 55 59 64 66 64 60 56 54 58 70 92 121 149 172 188 199 205 209 211 211 208 202 192 176 156 133 109 89 76 72 82 107 145 181 206 219 220 211 186 144 93 53 31 22 25 40 74 127 180 213 228 230 221 198 158 110 71 53 56 76 110 150 183 203 213 217 217 215 213 210 207 199 185 161 125 87 57 38 28 23 22 22 24 28 36 
59 77 104 135 162 180 190 192 186 169 141 107 77 57 46 42 42 42 41 39 37 37 41 53 75 108 145 175 196 207 212 211 208 202 194 183 170 152 131 108 85 66 52 45 47 63 97 145 189 217 230 233 226 206 166 112 64 36 25 26 42 78 131 182 214 226 226 214 187 145 99 68 57 67 95 136 175 202 217 224 225 224 222 220 218 216 210 197 174 141 103 71 51 41 37 38 39 42 45 50 
74 78 89 105 123 138 149 154 152 142 122 97 74 57 46 39 35 32 30 29 29 33 42 61 92 131 168 194 208 213 210 202 190 176 160 143 126 107 88 69 52 40 32 29 34 52 89 142 191 222 236 240 235 217 181 127 74 41 28 30 47 84 137 185 213 223 220 204 172 130 89 66 64 82 116 157 190 211 220 222 220 217 215 213 213 212 209 200 183 157 125 97 78 69 67 70 73 76 76 75 
97 84 78 78 84 92 102 111 116 117 110 97 81 67 55 46 39 34 30 29 31 39 54 80 117 156 187 204 210 206 194 177 156 134 115 99 84 72 59 48 38 30 24 23 29 46 82 136 188 221 237 242 238 222 189 137 83 48 34 36 56 95 146 188 211 217 209 188 153 113 81 68 75 100 136 172 197 210 212 208 202 195 192 191 193 196 198 196 188 172 152 132 119 114 115 120 125 126 122 111 
123 93 71 59 56 59 67 78 92 104 111 110 103 92 78 66 54 46 40 39 43 55 77 109 146 178 199 207 203 188 165 137 111 89 74 64 58 54 50 45 38 32 26 24 28 43 75 126 179 215 233 239 236 221 190 140 88 54 42 48 71 112 158 192 208 208 193 166 130 96 76 74 90 121 156 184 199 201 194 181 167 156 150 152 158 168 179 185 187 183 175 167 162 162 166 172 177 177 168 150 
143 101 68 49 41 41 49 64 86 110 129 139 139 131 118 101 85 71 62 60 67 83 110 142 173 195 205 203 187 160 127 95 70 55 48 47 50 55 59 59 54 46 37 31 31 41 67 111 161 200 222 230 227 213 182 136 91 63 55 66 94 134 172 195 202 193 171 139 105 82 74 85 110 144 174 192 196 187 168 143 121 106 100 104 115 132 151 168 180 187 190 191 193 197 202 208 211 210 200 178 
153 105 66 43 34 35 46 66 97 130 157 173 178 174 163 147 127 109 96 92 99 118 145 172 194 205 206 193 166 128 90 61 44 36 36 43 56 72 86 92 88 75 59 45 38 41 58 91 134 174 199 210 208 193 163 124 90 72 74 92 124 159 185 196 192 173 143 109 83 71 77 100 133 167 190 198 192 171 139 105 79 65 61 65 78 97 121 146 168 183 194 202 209 215 221 225 228 226 216 193 
154 103 62 40 33 37 52 81 121 159 187 202 208 206 198 184 166 146 131 125 132 149 172 192 206 210 203 182 145 101 63 40 30 28 35 50 75 105 129 140 136 119 94 69 51 44 50 70 102 135 161 173 172 158 133 106 87 83 96 123 155 181 195 194 177 147 112 82 66 65 83 117 156 187 202 203 189 158 116 78 53 42 40 44 55 72 96 123 149 171 189 202 212 221 227 231 233 231 220 196 
147 96 58 38 34 43 66 104 149 186 209 221 225 223 217 205 189 169 152 145 150 165 185 201 210 211 199 172 130 83 49 31 24 27 39 64 102 143 173 186 184 166 137 101 70 52 47 54 71 93 113 123 123 113 98 85 82 94 120 152 180 196 199 186 157 119 84 61 54 63 92 134 175 202 213 208 188 150 103 65 42 33 32 36 45 59 77 100 125 149 171 191 206 218 227 232 233 230 218 192 
134 85 52 37 37 52 83 129 175 207 224 231 233 230 223 210 191 169 151 142 146 162 182 200 209 209 197 168 124 78 45 29 24 30 48 81 129 174 204 216 215 201 174 136 96 66 50 46 52 62 72 78 78 73 68 68 79 104 139 173 196 204 196 172 133 93 62 46 46 63 100 148 189 212 219 212 189 149 101 62 41 33 33 36 43 52 64 79 97 119 143 168 191 209 221 228 230 226 212 181 
117 72 45 35 40 61 100 151 194 219 232 236 234 229 217 199 175 148 127 117 122 141 167 190 204 207 197 171 129 84 50 33 28 35 56 96 148 193 220 230 230 220 199 165 124 86 61 49 45 47 50 51 50 49 49 57 77 112 153 186 203 204 187 152 108 70 46 37 42 63 104 156 196 218 223 215 191 151 104 67 47 39 38 40 44 49 54 62 72 86 107 135 166 193 212 223 225 220 201 166 
99 60 39 33 42 67 112 165 204 226 235 236 231 220 201 174 141 111 90 82 88 110 142 174 196 206 201 181 145 100 64 42 35 41 63 104 156 199 224 234 235 228 212 186 150 112 82 63 53 48 45 42 39 38 41 53 79 118 161 191 203 197 171 129 84 52 34 30 38 62 104 156 197 217 222 213 190 153 109 75 56 48 46 47 47 47 47 48 51 59 75 102 138 175 201 216 219 211 188 148 
82 49 33 31 41 69 116 170 208 227 234 232 222 202 172 135 99 71 55 50 58 80 116 157 189 205 207 194 166 125 85 57 44 47 66 104 153 194 219 230 232 228 217 199 173 142 113 91 76 66 57 48 42 39 42 55 83 124 165 192 198 185 152 106 65 39 27 26 35 59 99 149 189 210 214 205 183 149 112 83 67 60 57 55 51 47 42 39 37 41 52 77 115 158 191 209 213 202 174 129 
68 40 28 27 39 66 114 167 206 225 229 223 206 176 135 94 62 42 32 30 38 59 96 144 184 206 214 207 187 152 110 75 55 51 65 95 137 177 203 216 221 220 214 204 188 169 149 131 115 100 85 70 57 50 51 64 92 131 168 190 191 172 133 87 51 31 23 24 33 54 89 133 171 191 195 186 165 137 110 91 81 76 73 67 58 48 40 33 30 31 41 64 103 149 186 205 208 194 160 112 
57 33 23 24 34 60 105 158 199 218 221 211 184 143 98 61 37 24 19 20 28 49 87 139 183 209 220 218 204 175 133 92 64 54 59 79 112 146 174 191 200 203 203 200 195 188 179 170 159 145 127 106 85 71 68 80 106 142 173 189 186 163 122 78 46 29 23 25 33 51 79 113 143 159 162 152 136 118 104 97 97 97 93 83 69 53 40 31 27 29 40 65 105 152 188 206 206 188 149 99 
50 29 20 20 30 52 93 146 188 209 211 195 160 112 68 39 22 15 13 16 25 48 89 142 187 214 225 225 214 188 148 103 69 53 52 62 83 109 134 154 167 177 184 189 194 197 198 197 193 184 168 145 120 101 93 101 125 155 179 191 185 161 122 80 50 34 29 31 39 53 72 94 111 120 119 111 101 95 96 104 115 123 120 107 87 64 47 36 32 36 51 80 122 166 196 210 206 184 141 89 
45 25 18 18 26 46 83 134 178 200 200 179 138 89 49 26 15 11 11 16 29 55 99 153 195 219 228 228 217 192 152 105 69 50 45 49 61 77 96 113 129 144 158 173 187 198 206 211 212 207 195 175 150 128 118 124 144 169 188 196 190 169 135 98 69 53 47 49 55 64 75 83 87 86 80 74 71 76 90 112 135 150 151 137 113 86 63 50 47 55 75 109 150 186 208 216 209 183 136 83 
42 24 16 16 24 42 77 127 170 193 192 169 124 76 40 21 13 11 13 21 38 70 118 168 204 223 229 226 212 185 143 98 65 47 40 42 49 60 73 86 100 116 135 156 176 193 206 214 217 214 204 187 164 144 134 140 159 180 196 203 200 185 160 130 104 89 83 84 88 91 91 86 77 66 56 51 53 66 90 124 155 175 179 168 145 117 93 79 77 89 114 147 181 206 220 222 211 182 132 79 
41 23 17 17 25 44 80 128 170 192 190 166 122 74 40 22 15 14 19 31 55 93 142 185 212 225 226 218 199 167 124 84 57 43 40 43 50 60 70 81 92 106 124 144 166 185 199 207 211 207 197 180 159 141 135 145 165 187 203 211 210 202 187 168 150 139 134 134 135 132 121 103 80 60 46 42 47 65 97 138 173 194 200 193 176 153 132 120 121 134 158 184 206 221 228 227 213 180 129 76 
40 25 19 22 32 54 92 139 178 197 195 172 130 83 48 29 21 22 31 49 81 124 168 201 218 223 218 203 176 138 98 67 49 42 44 53 65 78 90 99 108 117 128 142 158 172 184 190 191 185 172 154 134 121 121 136 162 188 206 216 218 215 208 199 190 184 182 182 180 173 156 129 96 67 49 43 51 74 112 155 188 207 213 209 197 182 167 159 162 174 192 209 222 230 233 227 211 176 124 73 
42 29 26 32 48 76 116 159 191 206 204 185 148 102 65 43 35 38 52 78 115 157 191 212 220 217 203 178 142 104 72 51 43 45 56 74 96 115 129 137 141 143 144 147 151 156 159 160 156 146 132 114 99 91 97 118 150 182 205 218 223 224 221 217 214 212 212 212 210 202 185 156 118 84 62 56 66 93 132 172 200 215 219 216 207 196 187 183 186 196 209 220 228 232 231 223 203 166 116 70 
45 38 41 53 75 109 148 183 206 216 214 199 170 129 91 67 58 65 85 117 154 186 208 219 218 205 181 144 105 72 50 40 41 52 75 106 136 159 173 178 177 172 164 154 144 135 128 121 112 101 88 75 65 63 72 96 131 169 198 215 223 226 225 224 223 223 224 224 223 216 202 176 142 108 86 81 93 121 156 188 208 217 218 213 205 195 187 184 189 198 209 218 224 225 222 211 188 150 105 67 
54 55 66 87 116 150 181 205 219 224 222 211 188 156 121 98 91 101 125 156 186 207 219 220 211 189 152 109 72 47 35 33 42 63 98 139 174 196 206 208 204 194 179 158 134 113 97 84 74 65 55 48 43 44 53 75 110 150 184 205 215 219 220 220 220 221 222 223 222 217 206 187 161 135 118 116 128 152 179 199 211 213 209 199 186 174 165 163 168 178 189 199 204 205 200 185 161 126 91 65 
68 81 103 131 160 186 207 220 227 229 226 217 199 173 146 126 123 136 161 187 207 220 224 219 202 168 123 78 48 31 26 30 45 74 120 167 200 218 225 224 218 205 184 154 121 92 72 59 50 43 37 33 31 33 41 59 88 125 159 183 195 200 201 200 200 202 204 206 206 203 196 185 169 155 148 151 163 179 195 205 206 200 187 169 150 134 124 122 127 137 149 159 166 166 160 145 124 99 78 67 
88 113 143 171 194 211 222 228 230 229 225 215 199 176 154 140 141 157 180 202 218 225 225 215 191 149 99 57 33 23 21 28 47 84 135 184 215 229 233 231 223 206 179 143 104 75 56 45 38 34 31 28 27 29 35 49 70 99 127 149 160 164 163 161 160 161 164 168 170 171 170 167 164 164 168 176 187 197 203 202 192 175 152 126 104 87 78 76 80 88 98 107 113 114 110 100 87 76 69 73 
108 141 173 198 214 223 228 229 228 224 216 203 184 161 141 132 137 156 181 204 219 225 223 211 182 135 83 45 25 18 19 27 48 88 143 192 220 233 235 231 220 199 165 124 86 60 46 39 35 33 32 30 30 32 36 45 59 78 96 110 115 115 111 107 105 106 109 113 117 122 127 134 145 159 175 189 199 204 202 190 169 140 109 83 63 51 45 44 46 52 58 65 69 71 69 66 62 61 66 82 
123 158 188 208 219 224 225 223 218 210 196 177 154 130 111 105 114 136 165 193 212 221 220 208 178 129 77 41 23 16 17 26 48 88 144 192 221 232 233 227 211 183 143 101 68 50 41 39 39 40 41 41 41 42 45 51 59 69 77 80 78 73 67 61 58 58 60 63 67 73 82 96 117 144 171 192 203 203 193 170 138 102 72 51 38 31 28 28 31 35 39 44 47 49 50 50 52 57 69 91 
127 159 185 201 209 212 210 206 197 184 164 139 113 91 76 72 81 103 135 169 196 212 216 206 179 132 81 44 24 17 17 25 45 83 138 187 217 229 229 219 197 162 117 79 54 43 41 45 52 58 62 65 65 66 68 71 74 76 75 69 61 51 42 36 33 31 31 33 36 41 49 64 90 125 162 188 199 196 178 145 106 71 47 33 26 23 23 26 29 34 39 43 47 50 51 53 56 62 75 97 
121 144 163 176 182 183 181 174 163 147 124 99 76 59 48 46 53 70 100 137 173 199 210 206 185 145 95 55 31 21 19 24 41 76 127 178 210 223 222 209 181 139 94 61 44 41 47 60 75 90 100 105 106 106 106 106 105 101 92 79 64 49 37 29 23 20 19 19 21 24 31 45 71 109 150 180 191 184 159 120 80 51 34 26 23 25 29 36 43 51 58 65 69 72 73 74 75 78 86 100 
106 116 126 133 137 138 137 132 124 110 91 71 54 41 33 30 34 46 68 103 145 181 202 207 194 164 119 76 46 29 22 25 38 68 115 166 201 216 215 199 166 120 77 51 41 46 61 84 110 132 146 153 155 154 152 150 147 139 126 108 87 66 48 35 27 21 18 16 16 18 24 36 61 98 141 172 182 171 140 99 63 40 29 26 29 37 48 62 76 89 100 109 114 117 116 113 108 103 99 100 
88 85 85 87 89 91 93 95 93 87 76 62 48 36 28 24 24 31 46 75 117 161 193 208 205 185 150 108 70 44 31 28 37 61 103 153 191 209 209 192 157 111 71 49 45 57 82 116 149 173 186 192 192 191 188 186 183 177 165 148 126 101 78 58 43 33 25 21 18 19 24 36 60 97 138 167 175 159 125 85 54 37 31 35 46 63 85 107 128 144 156 164 168 169 166 159 147 131 113 97 
72 60 54 53 54 59 66 75 84 87 83 73 58 43 32 24 21 23 33 55 93 142 184 208 214 205 182 145 104 69 46 35 38 56 92 140 180 202 205 189 157 113 76 58 58 76 109 148 180 200 210 213 212 209 206 205 203 201 195 185 169 148 124 100 78 60 46 36 30 28 33 45 70 106 144 168 172 154 118 80 52 40 40 51 73 103 134 160 180 194 202 206 208 207 203 194 178 154 123 94 
62 45 38 35 38 45 59 77 96 109 112 104 86 65 46 31 23 21 27 43 76 126 175 207 221 220 207 181 144 103 68 48 43 54 84 128 171 196 203 192 165 127 94 77 81 103 138 174 200 215 220 219 215 211 207 206 207 209 210 208 201 189 173 152 129 105 83 66 55 50 53 67 92 126 158 176 175 155 119 82 58 49 55 76 109 146 179 202 215 223 227 228 228 226 221 212 195 167 129 91 
58 40 32 30 35 46 67 96 125 147 155 149 129 101 71 47 31 23 24 36 64 112 165 204 224 229 224 208 180 140 98 66 52 56 78 118 161 191 202 197 178 148 120 106 111 133 164 192 211 219 220 215 206 197 191 190 195 202 210 216 217 214 207 195 178 158 135 114 97 89 90 103 126 153 176 188 183 163 128 92 69 62 74 102 142 180 207 224 232 235 236 235 234 231 226 217 200 172 132 90 
62 43 35 35 42 59 88 125 160 183 194 190 174 145 107 71 44 29 25 33 56 100 155 200 224 234 234 225 205 172 128 87 63 58 74 108 150 184 201 202 190 169 147 135 139 158 181 202 213 216 211 200 183 167 157 156 164 178 195 209 219 223 223 219 210 198 181 163 147 137 137 146 162 180 194 199 193 174 142 108 84 78 91 122 162 196 218 230 235 235 234 232 228 224 219 211 196 170 133 93 
76 58 50 50 60 82 116 154 187 208 218 217 206 183 145 101 63 39 29 32 50 89 143 192 222 235 239 234 221 195 153 107 73 60 69 96 135 172 194 201 195 181 165 155 158 171 188 202 209 206 195 174 148 124 110 108 118 138 163 187 206 218 225 227 224 218 208 197 185 177 175 180 189 200 207 209 202 186 158 126 101 92 102 129 164 193 212 221 224 223 219 214 209 205 200 194 184 164 136 103 
103 88 80 80 90 111 142 176 202 219 228 230 224 207 177 134 87 53 35 32 45 78 129 181 216 233 240 238 229 207 169 120 80 60 62 82 117 153 180 192 191 181 168 159 159 169 182 193 196 189 170 141 109 83 68 64 73 91 118 149 177 198 212 219 222 220 215 208 201 195 194 197 203 210 214 215 209 196 173 143 116 101 102 120 146 170 186 194 195 191 185 177 171 166 165 166 165 158 143 123 
141 131 123 121 126 139 160 184 204 218 227 231 230 220 199 161 114 71 44 35 41 66 111 164 205 227 237 238 231 211 175 125 81 58 54 68 95 128 156 172 174 166 154 145 143 150 162 172 174 165 143 111 79 55 42 38 42 55 76 103 133 160 181 195 202 205 204 200 195 192 193 196 203 209 214 216 213 203 184 157 128 105 95 99 112 128 139 144 143 137 129 121 115 114 119 130 143 154 156 151 
178 173 166 160 156 157 164 175 190 203 215 223 227 224 210 182 138 91 56 39 39 56 92 141 186 215 229 233 226 207 170 121 77 53 47 55 74 101 126 142 145 137 126 116 114 119 130 141 146 139 120 92 64 44 32 27 28 34 46 64 87 111 134 152 163 170 171 170 168 168 171 178 187 198 206 212 212 207 193 169 138 108 86 77 77 82 86 87 85 79 73 67 64 67 78 99 127 154 171 179 
205 203 197 186 173 159 150 149 157 171 188 203 215 219 214 195 159 113 71 46 39 47 72 113 159 194 214 220 215 194 157 110 70 48 41 46 59 79 98 110 111 104 93 84 81 86 97 110 119 120 108 88 65 47 35 28 25 26 31 40 53 68 85 100 112 119 123 124 124 126 131 141 156 172 188 200 207 207 198 179 149 114 83 63 53 49 48 46 44 40 36 34 34 40 54 81 120 159 186 201 
221 220 213 198 175 147 123 110 111 123 143 168 191 206 211 202 176 135 90 58 42 41 56 85 124 161 186 197 193 172 137 95 62 44 39 43 53 67 80 87 85 77 67 60 57 61 72 87 103 113 112 101 84 66 51 40 33 29 28 31 36 43 52 61 69 75 78 79 80 81 87 97 113 134 158 180 195 203 201 188 162 126 89 61 43 33 28 25 23 21 19 19 22 29 46 78 123 168 199 215 
229 227 219 200 168 128 93 72 66 74 93 122 155 184 201 203 188 156 113 75 50 41 45 62 89 121 147 161 160 143 115 83 59 47 45 49 59 69 76 78 72 62 52 45 43 47 59 78 101 121 131 129 118 101 83 67 53 43 37 34 33 36 39 44 48 52 53 53 52 52 54 61 74 93 120 150 177 195 202 197 178 146 107 72 46 31 23 18 15 14 14 15 19 28 48 84 133 179 209 224 
232 229 218 196 157 109 69 46 38 41 54 80 117 158 188 202 198 176 139 98 65 47 41 47 62 83 105 119 124 116 99 80 66 61 62 69 79 87 89 83 72 58 47 40 38 44 57 81 111 140 158 164 160 147 129 109 89 72 59 50 46 45 46 48 50 51 50 47 42 39 37 40 47 61 84 116 152 182 200 204 194 171 136 97 64 41 28 20 16 15 15 17 22 34 56 95 144 188 214 227 
228 225 213 187 145 95 55 33 24 24 32 52 87 133 175 199 205 194 166 128 89 60 45 41 47 58 73 87 96 99 96 91 88 89 95 105 115 119 116 102 82 63 49 41 40 48 66 96 132 164 185 194 194 187 173 155 134 113 96 83 76 72 72 73 74 73 68 59 49 40 33 30 32 40 57 86 125 165 194 208 208 194 169 133 97 66 45 33 26 23 23 26 32 45 69 106 152 190 213 225 
216 214 202 176 133 86 49 28 19 17 23 38 70 117 166 198 211 208 190 159 118 81 56 43 41 46 56 70 85 99 110 117 124 132 141 151 158 158 149 127 99 73 55 46 48 60 84 119 156 186 204 213 214 210 201 188 172 154 139 127 121 119 119 121 121 117 107 92 72 53 38 29 26 29 40 63 101 147 186 209 217 213 198 173 140 107 80 61 49 44 42 45 51 63 84 115 151 181 202 212 
191 191 183 160 124 83 50 30 20 17 21 34 63 111 163 200 217 219 209 186 149 107 72 50 42 42 50 65 87 112 135 152 165 175 183 190 193 190 176 149 115 83 63 55 60 78 109 146 180 203 216 222 222 219 212 202 190 179 171 166 165 167 170 173 173 169 158 137 108 76 50 33 24 23 30 47 80 128 175 207 222 225 219 204 182 155 129 106 91 82 78 79 82 88 99 117 138 159 174 185 
149 156 155 144 119 87 58 38 26 22 24 37 66 114 167 204 222 227 221 205 175 132 89 60 46 43 51 69 98 132 162 183 197 205 211 214 214 207 190 161 123 90 69 65 76 102 137 172 199 215 222 224 222 215 206 196 187 181 180 184 191 198 205 209 211 208 199 180 148 106 67 40 26 21 24 37 64 109 161 201 222 230 230 223 211 195 176 159 145 135 130 126 122 118 114 112 115 122 131 140 
101 114 126 129 120 99 75 53 38 30 31 44 75 124 174 209 226 232 229 217 191 150 103 68 49 45 53 75 110 151 184 205 216 222 225 225 222 212 192 159 120 88 72 73 91 124 162 192 212 222 224 221 213 201 185 170 161 159 166 179 196 210 220 227 230 230 224 209 180 136 88 50 29 21 21 30 51 91 143 189 217 230 234 232 226 218 207 197 189 183 178 171 161 145 124 103 89 83 83 90 
63 82 105 124 130 121 100 75 54 42 41 54 87 136 183 214 230 235 232 222 198 158 109 71 50 45 54 79 118 163 197 217 226 230 231 229 222 208 182 146 107 79 69 76 102 140 178 205 220 225 223 214 198 175 149 128 117 118 131 155 182 205 222 232 237 239 235 225 201 160 108 62 34 22 19 25 41 74 122 170 205 223 231 232 230 226 221 216 213 210 207 201 188 164 129 93 67 53 48 52 
43 65 97 129 148 149 131 103 75 57 52 65 98 146 190 218 231 235 233 221 196 154 105 67 47 42 52 77 119 166 202 222 230 233 232 227 216 196 163 123 88 66 61 74 105 148 186 211 223 225 219 204 178 142 107 83 71 73 89 117 153 187 213 229 237 241 239 232 213 178 126 75 41 25 19 22 34 58 98 144 182 205 217 221 221 220 219 219 220 221 220 215 201 174 132 87 53 36 29 32 
38 64 102 143 169 175 160 130 95 69 61 72 104 151 193 219 231 234 230 216 187 142 93 58 40 37 46 71 113 162 200 221 230 232 230 222 205 178 139 98 68 53 53 69 102 146 186 211 222 222 213 192 156 112 74 51 41 42 54 79 116 158 194 218 231 238 238 234 219 190 143 91 52 31 23 22 30 46 74 111 146 172 187 194 197 198 202 207 213 219 222 219 207 179 134 85 48 29 22 25 
44 75 119 162 188 194 180 147 107 76 64 72 102 147 189 216 228 231 225 207 172 123 76 46 33 31 40 62 101 151 191 216 226 228 224 212 190 156 114 77 53 43 46 62 93 136 177 203 216 216 205 179 139 92 56 35 26 26 34 51 81 121 163 196 217 228 233 231 221 199 161 112 71 44 32 28 30 39 56 79 104 125 139 146 151 156 165 178 193 207 216 218 208 183 140 90 51 31 24 28 
64 100 144 182 203 205 187 151 107 74 59 65 92 135 179 209 223 226 217 195 154 103 61 36 26 25 33 53 87 134 177 204 217 219 213 198 171 134 95 65 47 40 43 57 83 120 159 187 202 204 194 168 129 86 52 33 24 22 25 35 55 86 124 162 191 210 220 223 219 205 177 138 99 69 51 42 39 40 46 56 68 78 86 91 95 101 113 133 159 185 204 212 208 188 150 102 64 42 36 43 
97 134 172 200 212 208 185 144 98 64 50 53 76 117 164 199 216 220 210 183 139 88 50 29 22 22 29 46 75 116 157 186 200 202 194 177 149 116 84 62 50 45 47 56 75 102 133 160 177 183 177 158 127 91 62 43 32 27 26 29 40 58 86 118 151 177 196 207 211 206 191 166 136 108 86 70 60 52 47 46 46 47 48 49 51 56 67 88 120 156 186 203 205 192 162 122 86 65 61 72 
