P2
100 100
255
134 162 187 203 207 195 167 125 84 57 45 48 66 100 143 179 199 204 192 164 121 78 48 33 27 29 36 50 72 102 133 156 168 169 160 144 124 104 87 77 71 68 68 71 79 93 111 130 146 156 158 150 134 112 91 73 59 49 43 40 42 50 66 87 111 135 156 173 185 189 186 175 160 145 130 117 104 89 74 60 50 43 37 33 32 33 39 54 82 120 158 185 195 190 172 144 118 102 99 111 
173 192 206 213 208 188 151 105 66 43 34 37 52 83 127 168 192 199 190 163 123 82 53 39 34 37 44 57 75 97 119 133 139 137 129 119 109 102 100 101 101 100 96 90 85 84 89 98 110 122 134 141 142 137 127 114 99 83 68 55 47 44 48 58 72 90 112 136 160 179 190 193 190 184 176 164 148 125 98 71 50 37 29 24 22 23 29 43 68 105 145 175 189 189 178 161 145 137 140 153 
199 211 218 218 207 180 137 88 52 33 26 30 44 74 117 161 189 199 192 170 136 99 72 57 53 57 66 77 90 102 110 112 109 103 96 93 95 104 118 132 141 142 134 119 101 84 74 72 77 90 108 129 149 161 165 160 148 130 106 81 60 46 40 41 46 57 74 100 132 164 188 203 209 210 207 200 185 161 127 89 59 39 28 22 21 23 30 44 68 101 138 165 178 179 173 164 158 160 170 184 
213 221 225 221 205 173 124 76 44 28 23 28 43 73 116 161 190 201 198 183 157 127 104 91 89 94 103 112 117 116 108 96 84 74 69 72 84 106 135 161 177 181 172 152 122 91 67 55 54 64 85 116 151 178 193 197 191 175 149 115 80 54 39 33 32 37 50 73 108 149 184 206 218 223 223 219 208 187 153 110 72 47 33 28 28 32 41 57 80 108 135 153 160 158 153 150 153 164 181 199 
216 225 227 221 202 166 115 68 39 26 24 30 48 79 124 166 193 205 204 194 177 158 143 135 136 142 149 153 150 136 113 87 66 54 50 56 74 106 146 181 201 207 200 180 145 102 67 47 41 47 67 103 148 186 208 217 216 206 182 146 102 65 42 30 27 29 38 58 93 139 179 206 220 227 229 227 219 201 171 130 90 62 47 42 45 53 66 84 105 124 137 141 136 127 120 120 130 151 176 200 
213 224 226 219 198 159 107 64 38 28 28 38 59 94 137 174 197 206 206 199 189 180 174 173 177 183 188 188 178 155 120 83 56 41 37 44 64 101 149 190 213 221 217 199 164 116 72 44 34 37 55 91 141 186 214 227 229 221 202 166 119 75 46 32 26 27 35 55 89 134 176 204 219 226 228 226 219 205 180 145 109 84 71 70 78 91 108 125 139 146 143 129 110 93 83 84 98 124 159 191 
204 219 223 215 192 151 101 61 40 33 37 52 78 114 153 182 197 202 199 193 188 185 187 193 201 208 212 209 196 169 127 82 51 34 29 35 56 94 146 191 218 228 226 211 179 130 80 46 31 32 47 83 134 183 214 229 232 227 209 175 127 81 51 35 30 32 42 62 95 137 175 200 213 218 219 217 210 198 178 153 128 112 107 112 125 141 157 169 174 168 149 119 88 66 55 55 67 95 135 175 
193 213 217 209 184 142 96 61 44 42 52 73 104 138 167 185 190 187 180 172 169 173 183 196 208 217 222 219 207 178 133 84 49 30 25 30 48 86 139 188 217 229 230 218 190 144 91 52 33 31 44 78 128 179 211 227 230 224 206 172 126 83 55 42 40 45 59 81 112 147 176 193 200 201 199 194 187 177 164 150 140 138 144 156 171 185 196 202 199 184 153 111 73 48 36 36 46 70 111 157 
181 204 210 200 173 131 90 62 52 57 75 102 133 160 177 180 173 159 144 135 133 142 160 182 202 217 224 223 211 185 140 89 51 30 23 27 44 79 132 182 214 229 231 222 199 158 106 63 40 35 47 77 126 174 206 220 222 214 193 159 116 81 60 54 58 70 88 112 138 161 176 181 179 172 164 155 148 141 136 136 143 156 172 189 203 213 219 220 213 193 155 105 63 38 27 25 34 55 92 140 
171 196 200 187 158 119 84 65 64 79 104 135 161 177 179 167 145 120 100 89 89 101 125 156 186 208 220 222 214 190 150 99 59 35 26 28 43 75 125 176 210 226 230 224 206 171 123 79 53 45 55 84 128 170 198 210 208 194 169 135 100 76 67 72 86 107 129 150 166 175 175 165 149 132 117 107 100 99 103 115 137 163 187 206 219 227 231 229 219 196 153 100 57 33 22 21 28 47 81 129 
165 187 189 172 141 105 79 71 80 104 136 165 183 187 174 147 113 83 63 53 53 65 88 122 161 192 211 218 214 196 162 116 75 48 36 35 48 77 122 170 203 220 226 223 209 181 141 101 73 64 73 98 134 168 188 192 183 163 135 105 82 72 76 95 121 148 170 184 190 187 172 148 119 93 75 66 62 65 74 94 124 160 191 213 226 232 235 232 220 194 149 95 53 30 21 20 27 45 79 124 
164 181 177 155 122 92 76 78 98 131 164 188 197 190 165 126 86 56 38 31 32 41 60 91 132 170 197 210 212 201 176 140 101 73 57 53 62 85 122 162 193 210 217 216 207 187 157 125 101 92 99 119 145 166 174 169 151 125 98 77 66 68 87 118 153 182 200 208 206 194 170 134 96 67 50 42 41 45 56 77 110 151 186 211 225 232 234 230 218 189 142 88 49 29 21 21 30 49 83 127 
167 177 165 138 105 81 73 85 115 154 186 203 205 190 156 109 66 39 26 21 22 29 43 68 105 145 178 198 206 203 189 165 136 110 92 84 87 101 125 152 175 190 198 200 195 183 165 146 131 125 131 143 156 163 158 142 117 90 68 56 54 67 95 136 176 203 217 220 214 198 169 127 86 57 41 34 34 38 48 67 97 136 174 201 218 227 229 225 211 180 132 81 46 28 22 25 36 59 95 137 
173 173 154 122 90 71 71 92 130 170 200 213 210 189 149 98 56 32 21 18 19 25 36 55 84 119 154 179 194 199 196 186 170 153 137 126 120 121 127 137 148 158 165 169 170 168 163 157 154 154 158 163 165 159 143 117 89 65 50 44 48 66 101 146 186 211 223 224 217 200 170 129 89 60 45 39 39 41 48 62 85 118 153 182 203 215 219 215 200 168 120 74 43 29 26 31 47 75 114 151 
179 170 143 107 77 64 69 96 139 180 208 218 212 189 146 93 53 30 21 20 22 28 37 50 71 97 126 153 173 187 195 197 194 187 178 166 153 139 126 118 114 115 119 125 132 140 149 157 165 171 175 176 169 154 130 101 73 54 43 40 47 67 102 146 185 209 219 221 214 198 172 138 103 78 64 58 56 55 57 63 76 97 124 152 175 192 200 198 183 152 109 69 43 32 32 42 64 97 136 167 
184 167 132 94 66 57 66 96 141 184 210 219 213 190 147 96 57 36 28 28 32 39 47 55 66 81 100 121 143 164 183 197 204 206 203 193 176 151 122 97 81 75 75 80 91 107 127 148 166 177 181 178 167 148 121 93 70 54 46 45 52 70 100 138 172 195 205 207 202 191 173 149 126 109 98 92 87 81 73 69 69 78 94 115 137 157 170 174 163 138 102 69 48 40 44 59 87 124 159 181 
186 162 122 83 57 50 61 91 136 180 207 218 213 192 153 107 70 50 44 47 54 62 68 71 71 73 78 89 107 132 159 185 204 213 215 207 187 154 114 79 57 47 45 50 61 80 106 135 159 174 178 173 159 139 116 94 78 67 61 61 66 77 98 123 148 166 176 179 178 174 168 160 152 146 142 138 130 115 97 79 67 63 68 79 97 117 136 147 145 129 103 78 62 57 65 85 117 152 179 192 
187 156 113 73 50 44 53 81 123 167 197 210 208 192 161 124 93 77 74 82 93 102 104 98 85 72 64 65 75 96 128 164 194 211 217 211 190 152 104 66 42 32 30 34 45 64 93 125 151 165 167 159 145 129 114 103 97 93 91 90 90 92 98 107 117 126 132 137 141 147 155 164 172 178 181 179 170 150 120 89 66 53 50 54 66 85 107 127 136 131 116 99 88 87 97 120 149 177 195 199 
187 153 107 68 45 38 45 67 103 144 176 194 197 188 168 143 123 115 118 130 143 150 147 131 104 77 57 48 51 67 97 138 178 204 214 209 186 145 95 56 34 25 24 29 41 62 91 123 146 156 152 140 126 116 113 116 123 130 133 132 125 115 103 93 88 85 86 90 98 114 137 162 184 198 206 206 196 173 136 96 65 47 39 41 50 67 93 120 139 146 141 132 125 126 136 155 177 196 205 204 
188 153 107 66 43 34 38 53 79 113 144 166 176 176 169 159 153 154 163 176 187 191 183 160 123 83 53 38 36 46 72 114 160 193 208 204 180 136 86 49 30 23 24 32 48 73 104 132 148 149 137 119 106 102 110 128 149 166 174 173 162 142 115 88 68 57 53 55 65 86 119 157 189 209 218 218 208 182 141 96 61 42 34 35 44 63 93 126 153 167 169 166 162 163 171 184 197 208 212 207 
192 158 113 71 45 33 33 41 57 80 106 129 145 156 162 168 174 183 194 205 213 215 205 179 135 87 52 33 28 35 57 96 145 183 201 198 172 127 79 46 30 26 31 44 67 97 128 151 157 147 124 101 86 87 104 134 167 191 202 203 191 166 129 89 59 41 34 35 46 69 107 154 191 213 223 221 209 180 136 89 56 38 31 34 46 69 104 142 172 187 192 191 188 188 192 200 208 214 216 210 
198 169 127 84 53 37 31 33 41 55 72 91 110 130 150 168 185 199 211 220 226 225 213 185 139 87 50 31 25 31 51 88 137 177 196 192 166 121 76 46 33 34 45 67 98 133 161 175 171 149 117 86 70 73 95 133 174 203 218 220 210 185 144 96 57 36 27 27 37 61 103 153 193 215 223 219 202 168 121 77 48 34 31 37 53 83 122 161 188 201 205 203 199 197 199 204 211 216 217 213 
205 183 147 104 68 45 34 31 33 39 49 64 83 108 137 165 188 205 218 226 229 226 213 183 135 84 49 31 26 33 54 92 140 178 195 190 163 119 76 50 41 48 68 100 138 171 191 196 185 154 113 76 58 60 82 124 171 205 223 227 220 198 157 105 61 35 25 25 36 61 105 156 195 215 220 211 188 148 102 64 41 32 33 43 65 100 142 177 198 206 205 200 194 190 191 196 204 212 216 215 
211 197 170 132 92 62 43 34 31 33 39 51 69 96 130 163 189 207 218 224 226 220 204 172 125 79 48 34 32 43 68 108 153 185 198 190 162 119 79 56 53 68 99 139 176 201 214 212 195 160 111 70 49 49 69 109 160 200 222 230 225 206 168 115 67 39 27 27 40 67 113 162 197 213 214 199 168 125 82 51 36 32 38 54 82 120 158 186 198 199 192 181 170 164 165 173 186 200 210 215 
214 208 191 161 123 87 60 45 38 37 41 52 70 98 132 165 189 205 213 217 215 206 187 153 111 73 50 42 47 64 94 134 172 196 203 192 162 120 83 65 68 92 131 173 204 221 227 222 203 164 111 66 43 39 55 92 143 189 217 228 227 211 177 126 76 45 32 33 47 77 123 169 199 210 204 182 145 101 65 43 35 36 48 70 102 139 170 186 188 179 163 144 129 121 123 135 155 178 197 210 
212 214 206 185 154 118 87 65 54 52 56 68 88 115 145 171 189 199 202 201 194 180 158 127 94 69 57 58 72 97 131 166 193 208 208 193 160 119 85 72 81 113 156 195 220 232 235 228 207 167 111 63 38 32 43 73 122 173 208 224 226 213 183 136 86 53 39 40 56 89 134 174 198 203 190 162 121 82 54 40 39 47 65 93 126 157 175 179 168 146 121 98 82 75 77 90 114 145 175 199 
202 213 212 201 179 149 119 95 83 81 87 101 121 143 164 180 187 188 182 172 159 141 119 96 77 67 69 83 108 138 169 194 211 216 210 190 154 113 82 73 88 125 170 206 228 237 238 230 209 168 111 62 35 27 34 57 100 153 195 217 222 213 188 144 96 62 47 49 66 100 141 176 193 191 173 140 101 69 51 46 51 67 92 123 152 171 176 165 140 109 80 59 47 42 44 55 75 107 145 179 
185 204 210 206 192 171 147 129 120 120 129 143 159 174 184 188 183 170 153 133 114 97 81 69 64 69 86 114 146 176 199 214 222 220 208 182 142 101 74 69 86 124 170 207 228 237 238 231 210 169 111 61 33 23 27 45 82 133 180 208 217 211 189 149 104 70 55 58 75 107 143 171 182 176 154 121 89 67 58 61 76 99 128 155 176 183 175 150 114 78 51 35 26 23 25 33 48 74 112 152 
159 185 198 199 191 178 163 153 152 158 169 181 192 198 199 192 175 148 119 93 74 61 53 50 56 74 105 143 178 203 218 226 227 219 200 167 123 84 61 58 75 111 158 198 222 233 236 229 209 169 112 62 33 22 23 38 68 116 165 198 211 207 187 151 109 77 62 65 81 109 139 161 167 158 136 109 87 75 77 90 112 139 165 185 195 192 174 139 96 59 36 23 17 15 16 21 32 51 82 121 
128 157 173 178 175 167 161 161 168 180 193 204 211 213 208 192 164 126 89 62 46 38 35 39 53 80 122 166 199 219 228 231 226 213 187 146 101 66 48 46 60 91 135 178 208 224 229 224 205 167 114 65 36 24 24 36 63 107 155 189 204 201 182 148 109 80 67 69 83 106 130 146 149 141 124 107 96 96 108 128 152 176 194 205 208 199 175 135 89 52 30 19 14 13 14 17 24 38 61 93 
101 125 140 145 143 140 140 149 165 184 202 214 220 219 210 189 152 107 68 44 31 26 26 34 52 87 135 180 211 226 232 230 221 201 166 121 78 50 36 35 45 68 105 147 183 206 216 215 199 165 117 72 44 31 31 42 67 108 153 184 197 193 173 140 104 79 67 69 81 99 118 130 134 129 121 115 117 127 144 165 186 202 212 217 215 204 179 140 94 57 35 23 18 16 16 19 24 34 50 74 
86 100 108 109 105 103 108 122 145 172 195 212 219 219 208 182 140 93 55 34 23 20 23 32 54 94 145 189 216 228 231 226 211 183 141 95 59 37 28 27 33 49 75 111 148 177 194 198 187 161 122 84 58 47 47 59 85 122 159 184 192 185 162 129 96 74 65 67 76 91 107 118 125 126 128 133 143 158 176 193 206 216 221 222 218 207 185 151 110 74 50 37 30 27 27 28 32 40 52 68 
87 91 89 83 75 72 76 90 114 145 175 197 209 210 199 172 129 84 50 31 22 20 23 35 60 102 154 195 218 227 226 215 193 157 112 72 44 29 23 23 27 36 53 79 110 139 161 172 169 154 128 102 83 75 78 92 116 146 173 188 189 176 149 115 85 67 61 63 72 86 100 113 124 132 142 153 167 183 197 208 215 219 220 218 214 205 190 166 135 105 81 66 57 53 51 51 54 60 69 78 
107 100 88 73 61 53 53 63 82 111 143 170 187 192 183 158 120 80 50 33 26 25 30 44 72 115 162 198 216 221 215 198 168 127 85 53 35 25 22 22 25 31 42 58 79 103 124 139 146 144 135 124 117 116 123 136 155 174 189 194 187 167 135 101 75 61 57 61 71 85 100 116 130 144 158 172 185 197 205 211 212 211 209 205 201 196 189 177 161 143 126 113 104 98 95 94 96 99 104 107 
140 125 104 81 61 48 43 46 58 78 104 131 151 161 159 142 114 83 60 45 38 38 45 62 92 133 172 199 211 210 197 172 136 96 63 41 30 26 26 28 31 36 42 51 63 78 93 108 121 130 138 144 150 157 167 177 189 198 202 198 184 158 123 90 67 57 56 62 74 89 106 124 141 157 171 183 193 200 202 201 196 189 181 176 173 174 177 180 180 177 171 165 160 155 151 149 149 149 149 147 
173 156 131 102 75 55 44 40 44 54 71 91 110 125 130 126 113 96 81 70 65 67 76 94 122 154 182 198 201 191 169 137 101 69 47 35 31 32 36 42 48 53 57 60 64 69 76 86 99 115 135 154 172 186 196 204 210 212 210 200 180 148 112 82 64 57 59 68 82 99 117 135 151 165 177 185 190 190 185 175 162 148 137 130 130 138 153 171 187 197 202 202 201 199 196 193 191 190 187 183 
196 182 160 132 101 74 55 44 40 42 49 61 76 92 106 117 121 120 116 112 110 112 121 136 156 175 189 192 184 164 134 101 71 50 38 35 38 47 59 71 82 88 90 88 82 76 72 74 83 100 125 153 179 198 210 216 219 217 210 196 171 138 104 79 65 63 69 81 97 114 130 145 157 166 172 175 173 165 152 135 116 99 86 80 83 96 121 152 183 204 216 221 223 222 219 216 214 211 208 203 
205 198 184 163 135 105 78 58 45 39 39 44 55 70 91 115 136 150 156 159 160 162 167 175 184 190 190 180 160 131 99 70 50 39 36 41 54 73 96 117 132 140 139 130 115 96 79 70 72 85 109 141 172 195 209 215 216 212 202 184 158 127 99 81 74 78 88 102 118 132 143 150 154 156 156 152 143 129 111 91 73 58 48 45 48 62 89 129 170 202 219 228 230 229 226 222 218 214 211 209 
201 202 198 187 168 142 112 83 60 46 38 38 45 60 85 119 152 176 189 196 198 199 200 201 200 196 183 162 131 99 70 50 38 35 41 55 80 111 142 166 181 187 185 173 152 123 94 74 66 72 91 121 153 179 195 202 202 195 182 162 138 114 96 89 92 102 116 131 143 150 152 149 143 136 129 120 107 92 75 59 45 34 28 26 29 41 66 106 154 193 215 225 228 225 219 212 205 200 198 199 
183 195 202 202 193 176 150 118 86 61 46 39 43 57 86 126 166 194 210 217 219 218 216 212 205 192 170 139 105 74 51 39 34 39 52 78 113 151 182 203 214 218 214 203 181 147 110 80 64 63 76 99 127 151 168 174 172 163 149 131 113 101 97 103 117 133 149 161 167 165 155 141 125 111 99 88 77 65 52 41 31 24 20 18 21 31 52 89 137 179 204 215 215 209 198 185 174 167 166 172 
153 177 197 207 209 201 183 155 120 86 61 48 47 61 91 134 176 204 220 226 227 225 220 212 200 180 151 117 84 59 43 37 38 50 72 107 148 184 209 223 230 232 228 217 196 163 123 88 67 61 67 82 102 120 132 134 130 120 107 96 88 90 101 121 144 165 179 186 184 174 154 129 105 87 74 66 58 51 43 35 29 23 20 19 21 30 48 80 122 162 186 194 190 177 159 140 125 117 119 131 
116 152 185 207 216 216 206 186 155 117 84 63 57 67 96 138 179 207 221 226 226 222 214 202 185 161 130 99 72 54 45 44 52 70 100 139 177 205 223 232 236 235 230 220 200 169 130 96 74 66 69 78 89 97 100 96 88 79 71 66 69 82 107 139 169 189 201 203 196 178 149 116 87 69 59 54 51 49 45 41 36 32 28 27 29 37 53 79 113 144 161 162 151 131 109 89 75 68 72 88 
86 128 171 202 218 224 220 207 183 148 111 82 69 75 99 137 175 201 214 218 216 208 196 180 160 136 111 88 72 62 59 64 78 101 134 168 198 217 228 233 234 231 225 213 193 164 132 104 88 83 85 90 93 91 83 71 61 52 47 48 57 79 114 154 187 206 214 213 201 178 142 104 74 57 51 52 55 59 62 61 57 53 49 47 49 56 70 90 112 129 133 125 107 86 66 51 41 38 42 57 
67 109 158 196 217 226 226 218 201 172 135 102 82 81 98 128 161 184 196 198 192 180 165 147 128 112 98 89 84 84 88 98 115 139 166 191 210 221 227 228 225 219 209 193 173 150 128 114 109 111 116 119 115 102 83 63 48 38 35 38 51 78 120 166 198 216 221 218 203 175 134 93 65 52 51 59 71 84 94 98 97 93 88 85 86 91 101 112 120 121 111 94 73 54 40 30 25 23 28 40 
58 97 146 188 213 225 227 223 210 186 152 117 92 84 92 112 135 154 162 161 152 138 122 108 99 95 96 101 109 118 128 140 155 172 189 204 214 218 219 215 206 194 178 160 141 127 120 123 133 146 156 158 149 128 98 68 46 33 29 33 47 78 125 173 205 221 225 219 202 170 126 85 60 52 58 74 97 120 137 146 148 145 141 137 136 138 141 141 136 121 99 75 54 38 28 22 19 19 23 35 
56 91 136 177 204 218 222 220 210 189 158 123 95 81 81 90 104 114 118 114 105 93 83 77 79 88 105 124 142 156 168 177 186 194 201 206 208 207 200 189 174 154 134 115 103 100 110 130 156 177 190 193 183 159 122 81 50 33 27 31 46 79 128 177 209 224 226 218 198 163 118 79 58 56 69 95 128 158 178 188 191 189 186 182 180 178 176 168 153 127 96 67 46 33 26 22 21 22 26 36 
61 88 125 161 187 203 209 208 199 182 154 121 93 76 70 71 75 79 78 74 67 60 57 60 72 94 122 150 172 186 194 199 200 201 200 197 192 183 169 150 129 106 87 74 69 77 100 136 172 199 213 216 208 186 146 98 59 36 27 30 46 80 130 179 210 224 225 215 192 154 109 75 59 63 84 118 156 185 203 212 214 213 210 207 205 202 196 185 165 135 99 69 48 36 31 29 30 32 37 45 
73 89 113 139 161 175 183 184 178 163 140 113 88 71 62 58 56 55 53 49 45 43 46 57 78 109 144 174 193 203 206 205 199 192 184 174 162 147 128 107 86 67 53 46 48 62 93 139 182 212 226 230 224 204 166 115 68 40 29 31 47 81 132 180 210 222 221 209 183 143 101 72 63 73 100 138 175 200 214 220 220 219 216 213 211 208 203 192 172 142 108 78 59 49 46 47 50 53 57 63 
91 93 101 112 124 135 143 147 145 138 123 104 85 70 59 53 48 44 41 38 37 40 48 66 94 131 166 191 204 208 205 196 183 168 153 139 124 108 91 73 57 44 36 32 37 54 89 139 187 218 232 236 232 215 180 128 77 45 32 33 50 85 135 180 208 218 214 199 169 130 93 71 69 85 117 154 186 205 214 215 213 210 206 204 202 201 197 189 173 149 121 97 81 75 76 80 86 90 92 91 
113 99 90 86 88 93 100 107 112 113 110 101 89 77 66 57 50 44 40 38 40 46 60 84 118 154 183 200 206 202 190 172 151 131 114 100 88 78 67 56 46 36 30 28 33 50 84 136 186 218 234 238 234 219 187 136 84 50 36 38 57 93 140 181 204 211 203 183 151 115 86 73 79 100 133 166 190 201 203 199 192 185 180 178 179 181 182 179 170 155 138 123 115 114 119 127 134 138 136 127 
134 105 82 67 62 62 68 77 89 101 108 110 105 96 85 73 62 54 49 48 52 63 82 111 145 175 194 202 198 184 162 136 111 91 77 70 66 65 62 57 49 40 33 30 33 47 79 128 178 213 230 236 232 218 186 138 89 56 44 48 69 106 149 183 199 200 187 162 130 100 81 79 93 119 150 175 188 190 182 169 155 144 138 138 142 150 158 164 164 160 155 150 150 155 164 173 180 181 175 159 
148 109 76 55 46 46 52 65 83 104 122 132 133 128 116 102 88 77 69 68 74 89 113 141 169 189 199 197 182 157 126 96 74 60 54 54 60 68 74 74 68 57 46 38 37 46 72 114 163 200 220 228 224 209 179 134 91 64 56 65 90 125 161 185 192 185 164 136 107 86 80 90 112 140 166 181 183 173 153 130 110 97 92 95 104 117 133 147 158 164 168 172 178 186 195 203 208 208 200 180 
153 108 71 49 40 40 50 68 94 123 147 162 167 164 154 140 124 110 100 98 105 121 144 168 187 198 198 186 161 127 92 65 48 41 42 51 67 86 102 108 103 88 69 53 44 47 64 96 138 176 199 209 206 190 161 123 90 73 73 90 118 149 175 186 183 165 137 108 86 77 83 104 134 162 181 186 178 155 124 94 73 62 60 64 76 93 114 134 152 165 175 184 193 203 211 218 221 220 211 190 
151 105 67 46 39 43 57 83 117 150 175 189 195 193 186 174 159 143 132 129 135 149 168 185 197 201 193 173 139 100 66 45 35 33 40 57 85 116 141 153 148 130 103 76 57 50 56 77 108 140 164 175 173 158 134 107 88 85 96 120 149 173 186 186 170 142 110 84 70 72 90 121 155 181 194 192 174 141 103 71 52 44 44 51 63 82 103 126 145 161 174 186 198 208 217 223 226 224 214 190 
144 98 63 45 42 51 73 107 145 178 199 210 213 211 205 194 180 165 153 148 152 163 179 192 200 199 188 162 123 83 52 35 29 32 44 70 108 149 178 191 189 171 142 106 75 57 52 61 79 101 119 129 127 117 101 89 86 97 121 150 176 191 193 181 154 118 86 65 60 71 98 137 174 197 204 197 173 135 93 61 44 39 41 49 62 80 99 119 136 150 164 178 192 205 215 222 225 222 210 185 
132 88 58 45 46 62 92 133 172 199 215 221 222 219 212 200 185 168 154 147 150 161 176 189 197 196 183 156 117 77 49 34 30 35 52 84 130 174 203 215 214 200 173 135 97 68 54 52 59 70 81 86 85 79 74 73 84 108 141 173 194 201 194 171 135 96 67 52 53 71 106 151 187 207 211 201 175 135 92 61 46 42 46 55 68 82 97 110 121 131 142 158 176 194 208 217 221 217 204 175 
118 78 53 45 51 73 111 156 192 213 224 227 225 219 208 192 172 151 135 127 129 142 160 178 190 192 182 158 122 83 54 39 34 41 61 98 147 190 216 226 226 216 194 160 120 85 63 54 52 55 59 60 58 56 56 64 84 117 156 186 203 204 188 157 115 76 52 43 49 72 112 158 194 212 215 204 178 138 97 68 54 51 56 65 75 85 92 97 100 104 112 129 152 176 197 210 215 210 194 162 
103 67 48 44 55 81 124 170 203 221 227 227 221 210 193 169 143 119 102 95 98 113 136 162 181 190 186 168 137 100 69 50 43 48 68 106 154 195 219 229 229 222 205 177 142 106 81 66 60 57 55 52 48 46 48 60 85 123 163 192 204 199 176 137 94 60 42 37 46 71 112 160 195 212 214 203 178 141 103 77 65 64 69 75 81 84 84 81 77 76 82 97 124 156 184 202 208 202 182 146 
88 58 43 42 54 84 129 175 207 222 227 223 212 193 166 134 105 82 68 63 68 85 112 145 173 189 192 182 159 126 92 67 55 56 74 108 152 190 214 224 225 220 207 187 160 131 108 92 83 75 68 60 52 48 49 62 88 127 166 191 199 188 158 116 75 47 34 33 43 68 108 154 189 205 207 195 171 139 108 87 79 79 82 85 85 80 73 65 58 54 58 73 102 139 173 195 202 194 169 130 
75 49 37 38 51 80 125 172 204 219 222 214 196 168 132 97 70 52 43 42 48 65 95 133 169 192 201 197 181 153 118 87 68 63 74 102 140 175 199 210 213 210 202 189 172 155 140 128 119 110 98 83 69 60 58 69 95 131 166 187 190 173 139 96 60 39 30 31 41 64 100 142 174 189 189 177 156 130 108 96 93 95 97 94 86 75 63 52 44 41 45 61 91 132 169 191 198 187 158 115 
65 42 32 33 45 72 114 162 196 212 213 201 175 138 97 65 45 33 29 30 37 55 87 130 170 197 209 209 198 175 142 105 79 67 71 89 118 148 172 186 191 192 188 183 177 172 168 164 160 152 138 119 98 81 75 82 104 136 166 182 180 160 123 83 52 35 29 31 42 62 92 125 150 162 160 148 131 114 104 102 107 112 112 104 89 71 55 43 37 36 43 62 95 137 173 194 197 182 148 103 
58 36 28 28 38 61 100 147 184 202 202 186 152 109 71 45 30 24 22 25 34 55 90 136 177 203 215 217 208 188 155 116 84 67 64 73 92 115 136 150 159 163 166 169 174 180 186 190 191 186 174 155 130 108 97 100 118 144 168 179 175 153 117 80 52 38 34 38 48 64 86 108 124 128 123 112 101 96 98 108 121 130 129 116 95 72 54 42 37 39 51 76 113 153 185 200 199 180 142 95 
53 32 24 24 33 52 87 133 172 192 191 171 133 89 54 33 23 19 20 25 38 63 102 148 186 209 219 220 211 191 157 117 83 63 57 60 71 86 101 114 122 130 138 150 165 180 194 203 207 206 197 179 155 132 117 117 132 154 173 181 176 156 124 90 65 53 50 54 64 76 90 99 102 97 88 80 76 80 93 114 135 148 148 133 109 82 61 49 47 54 73 103 141 176 200 209 204 180 138 89 
49 30 22 22 29 47 79 123 163 184 183 161 121 78 46 29 21 19 22 30 47 78 121 165 197 214 220 218 206 183 147 108 76 58 51 53 60 70 80 89 97 105 116 133 153 175 193 205 212 211 204 188 166 143 129 130 143 163 180 187 184 169 144 116 95 83 81 86 94 102 105 102 91 77 65 59 60 71 94 124 151 167 168 155 130 103 81 70 71 84 108 141 173 199 214 217 208 181 135 85 
47 29 22 22 30 47 79 123 162 182 182 160 120 78 47 30 23 22 28 40 64 100 144 182 206 217 218 210 193 164 127 92 66 53 50 53 60 70 79 85 91 97 107 123 144 167 186 199 205 204 195 179 158 139 129 133 149 170 187 196 195 186 170 152 136 128 128 132 137 138 132 115 93 70 55 49 53 70 100 136 167 184 187 176 156 132 112 104 108 125 150 177 200 216 224 222 210 180 133 82 
47 30 24 26 35 56 90 132 168 187 187 167 130 87 55 36 29 30 39 58 88 128 168 196 211 215 210 195 170 136 101 73 57 51 54 63 75 88 97 103 105 108 113 124 139 157 173 183 186 182 171 154 135 120 116 127 149 173 193 203 206 202 194 184 176 173 174 177 178 174 161 136 104 74 55 49 56 77 112 151 181 198 201 194 179 161 147 142 148 164 184 203 218 226 229 224 208 176 128 79 
48 34 31 36 49 74 111 151 182 197 196 179 147 106 71 51 43 46 60 85 120 157 188 206 213 209 195 171 138 104 76 58 51 54 65 84 104 121 132 137 136 133 131 133 138 146 153 157 155 147 134 117 102 93 96 113 142 172 195 208 213 213 210 206 203 202 204 206 206 200 184 157 120 86 64 58 67 93 130 167 193 206 209 204 193 180 171 169 176 189 204 216 225 229 228 220 201 167 120 76 
52 43 45 56 75 105 141 174 197 208 207 193 166 130 96 73 65 71 90 119 153 183 203 212 210 198 173 140 104 74 55 47 49 61 84 113 141 161 171 174 170 163 154 145 137 133 129 124 117 106 93 80 71 68 76 97 130 165 192 208 215 217 216 215 214 215 217 219 218 212 198 173 138 104 82 76 88 115 150 181 201 210 210 204 194 183 176 176 183 195 206 215 221 222 219 208 186 152 110 74 
61 61 70 88 113 143 172 196 210 216 214 204 183 154 124 102 96 104 126 154 181 201 212 213 203 181 146 107 74 52 41 41 50 73 106 144 175 193 201 202 196 186 171 153 135 119 106 94 84 73 63 54 49 50 60 82 116 153 184 202 210 212 212 211 212 214 216 218 218 213 202 181 152 124 106 103 117 142 170 192 204 207 203 193 180 168 161 162 169 180 191 199 203 203 197 183 161 130 97 73 
76 87 106 130 155 179 198 211 219 221 218 209 193 170 146 129 125 136 157 181 200 212 216 211 193 161 119 79 52 37 33 38 54 85 127 169 198 213 218 217 210 197 178 154 128 105 87 73 62 53 46 40 38 40 50 70 100 136 167 185 194 195 194 193 193 196 200 203 205 202 194 179 159 141 131 133 147 166 185 197 200 196 184 167 150 135 127 127 134 144 155 164 167 166 159 145 125 103 85 75 
96 118 144 168 188 203 213 219 222 221 216 207 192 173 153 142 142 155 175 195 210 217 216 206 182 143 97 60 38 29 29 37 58 94 142 185 211 223 226 222 214 198 175 146 116 91 73 61 52 45 39 35 34 37 45 61 86 116 142 158 164 162 158 155 155 158 164 169 173 174 171 164 156 150 150 158 171 184 193 195 188 173 152 129 108 93 86 85 90 98 107 114 118 116 111 101 90 80 76 81 
116 146 173 194 207 215 219 220 218 214 206 194 178 160 143 136 140 156 177 197 211 217 214 201 173 129 82 49 31 25 26 36 59 99 150 192 216 226 227 221 209 189 162 130 101 79 65 56 50 45 41 38 37 39 46 58 77 98 115 124 124 118 111 106 104 107 113 119 126 130 134 136 141 149 161 174 186 193 194 185 167 142 114 88 70 58 53 52 56 61 67 72 74 74 71 68 65 66 73 90 
131 162 187 203 212 215 215 212 206 198 186 169 150 132 118 113 121 139 164 187 204 212 211 197 168 123 77 45 28 23 25 35 58 99 150 192 216 225 224 215 198 172 140 108 83 69 61 58 56 54 51 49 47 49 54 63 76 88 95 95 88 79 69 63 61 62 66 72 78 85 92 103 119 140 163 181 192 195 187 168 140 107 79 58 44 37 35 35 38 42 46 49 51 52 52 52 54 62 76 100 
136 165 185 197 202 202 199 193 184 171 154 134 114 97 86 83 91 110 137 166 189 203 206 195 168 125 80 47 30 23 25 34 55 94 144 187 211 220 218 205 182 149 114 85 68 62 62 67 71 73 73 71 69 70 73 80 87 91 90 82 69 56 46 39 36 36 38 41 46 52 61 75 98 128 158 181 192 190 175 147 111 78 54 39 32 29 29 32 35 40 44 47 49 51 52 54 58 67 83 107 
132 152 166 174 176 174 169 161 150 136 119 99 81 67 59 57 64 79 104 136 167 190 200 195 174 137 93 58 37 27 26 33 51 85 133 177 204 214 210 193 163 125 90 67 58 59 69 83 96 104 108 107 105 104 105 109 111 110 102 87 69 53 40 32 27 25 25 27 29 34 42 57 81 116 152 177 188 182 159 125 88 59 41 32 29 30 34 40 48 55 61 66 69 71 72 73 76 83 94 111 
119 127 133 135 135 132 128 123 115 105 91 76 62 50 43 41 44 54 74 105 141 173 193 197 185 156 116 78 50 35 29 33 47 76 120 165 194 206 201 182 148 107 74 56 53 63 82 105 127 142 148 149 146 144 144 145 144 140 128 110 88 67 50 38 31 26 24 23 24 27 34 48 72 108 146 172 181 171 144 106 72 48 36 32 35 42 52 65 79 91 100 107 111 112 112 110 108 107 108 112 
101 97 94 92 91 90 91 92 92 89 81 70 57 46 37 33 33 38 52 78 115 155 185 199 196 178 146 107 73 49 37 35 44 68 107 151 184 198 195 175 139 99 68 54 56 71 99 131 158 175 182 182 180 177 175 175 174 170 160 143 122 98 77 60 47 38 32 28 26 28 33 47 71 107 144 169 175 161 131 93 63 45 38 41 50 67 87 108 127 142 153 159 162 162 159 154 145 134 121 110 
85 71 64 60 59 62 69 78 88 93 92 83 69 54 41 33 29 30 39 59 93 137 177 200 207 199 177 143 105 72 51 42 45 63 97 139 174 192 192 174 140 102 73 60 65 86 118 153 180 196 201 201 197 193 191 191 192 191 187 177 161 142 120 100 81 65 53 43 38 37 41 54 79 113 147 168 171 155 123 87 61 48 47 58 78 105 133 158 177 190 197 201 202 200 196 188 175 156 131 105 
73 55 46 42 44 51 64 83 102 117 121 114 98 76 55 39 30 27 32 47 78 123 169 201 214 214 202 177 142 104 72 53 49 61 89 129 166 188 192 179 150 116 88 76 82 105 138 171 194 206 209 206 200 194 191 191 195 199 201 199 193 183 168 150 130 109 90 74 62 57 60 72 96 127 156 172 171 153 122 88 65 57 63 83 113 147 177 198 211 219 222 223 222 220 215 207 192 167 135 100 
67 48 39 37 42 53 74 102 131 152 161 156 137 110 79 53 37 29 29 40 67 111 162 199 219 224 219 203 176 138 99 70 57 61 84 120 159 185 194 186 165 136 111 99 104 126 156 183 201 208 207 200 190 180 174 175 182 192 202 208 211 209 202 192 177 159 138 118 101 91 91 102 122 148 169 179 176 157 126 96 75 71 83 111 147 180 205 220 228 231 232 231 228 225 220 211 195 169 134 96 
68 50 42 42 49 67 95 130 162 185 194 192 176 149 112 76 49 34 30 37 59 101 153 196 220 229 229 220 200 168 127 89 67 64 80 112 150 180 194 193 179 156 135 123 127 145 169 189 202 204 198 185 167 151 142 142 153 170 188 204 214 219 219 216 208 196 181 162 145 133 130 137 152 169 183 188 182 164 136 107 89 87 102 132 168 197 216 226 231 231 229 226 223 218 212 203 188 164 131 96 
79 64 56 57 67 88 120 156 186 206 215 215 204 182 146 104 67 44 34 36 54 91 143 189 218 231 234 229 216 189 150 107 77 66 76 102 139 171 190 194 186 170 152 141 143 156 174 190 197 195 183 162 136 114 101 101 112 134 160 184 203 216 222 223 221 215 205 191 178 167 163 166 175 186 194 196 189 173 148 121 103 100 113 141 172 197 212 219 221 219 214 208 202 196 191 184 173 155 130 103 
103 90 84 85 95 115 143 173 199 215 224 225 220 204 175 134 91 58 40 37 50 81 130 179 212 229 235 233 223 201 164 119 83 67 70 91 123 156 179 187 184 172 157 146 146 156 170 182 187 181 163 136 105 80 67 65 74 93 121 151 178 198 210 217 219 216 210 201 191 183 180 182 188 196 201 201 195 181 160 135 115 107 114 133 157 177 190 195 193 188 180 171 163 157 154 153 151 145 134 118 
136 129 124 122 126 138 157 178 198 212 221 226 225 216 196 161 117 76 50 41 47 71 113 163 201 223 232 233 225 205 170 124 85 64 63 77 104 135 159 171 170 160 147 137 136 144 156 167 171 163 143 113 83 60 46 43 48 61 82 109 138 163 182 194 200 201 198 192 186 180 179 182 189 197 202 203 199 188 170 146 123 109 106 113 127 139 147 149 145 137 127 117 110 107 109 118 129 139 144 142 
171 169 163 157 152 152 157 167 181 195 208 217 221 219 207 181 141 97 63 46 45 61 95 141 183 211 224 227 221 201 167 121 82 60 55 65 85 111 134 146 146 138 125 116 114 121 133 145 151 145 127 101 73 52 40 34 35 42 54 72 94 118 138 154 163 168 168 165 161 159 161 167 177 188 196 201 200 193 178 156 130 108 94 89 91 94 96 95 90 82 74 67 63 65 73 90 115 140 159 169 
198 198 191 181 166 152 142 140 148 162 179 196 208 214 210 194 161 118 78 53 45 52 76 114 156 189 209 215 209 189 155 111 75 55 50 56 71 90 108 119 118 110 99 91 89 95 107 120 130 131 120 100 77 58 45 37 34 35 39 48 61 75 91 104 114 121 123 123 122 124 129 139 153 168 182 192 196 194 184 165 139 111 88 72 64 60 57 53 49 44 40 37 37 41 54 78 112 149 176 192 
215 214 207 192 168 140 116 103 104 115 136 160 184 201 207 199 176 138 96 64 47 46 60 87 124 158 182 192 188 169 136 98 68 52 48 52 64 79 92 98 95 87 77 70 68 73 84 100 115 124 123 112 95 78 63 51 43 39 37 39 43 49 57 66 73 79 82 84 85 87 93 104 119 138 158 175 187 192 188 174 151 121 91 67 51 41 35 31 28 26 24 23 26 33 49 79 120 162 192 208 
224 222 213 194 162 123 89 69 64 71 89 116 149 178 196 200 187 157 116 78 54 45 49 65 91 121 145 158 157 142 115 86 65 53 52 58 68 79 88 89 84 74 64 57 55 59 70 88 109 126 136 135 126 111 95 80 66 55 47 42 40 41 43 48 52 56 59 60 61 62 65 73 86 104 127 150 171 185 190 184 166 139 106 75 52 37 28 23 20 19 18 20 24 34 54 89 134 176 204 218 
226 223 213 190 152 107 69 47 39 41 54 77 112 151 182 196 193 173 137 98 67 49 45 51 67 87 108 122 125 116 100 82 69 64 66 74 85 94 98 95 84 71 59 51 49 53 65 85 111 137 154 162 160 151 138 121 102 85 70 58 51 48 47 49 52 55 56 56 54 51 51 53 61 74 94 121 150 174 189 192 183 162 131 97 67 46 32 25 21 19 20 23 30 43 67 104 148 186 210 222 
222 219 207 183 142 95 58 36 27 26 34 52 84 126 167 191 198 186 159 122 86 61 48 47 53 66 80 93 101 101 96 89 85 86 93 104 114 121 121 111 95 77 62 53 50 55 69 93 122 152 173 185 188 185 176 162 145 125 106 90 78 72 70 71 73 75 74 70 62 54 47 44 46 53 68 93 125 159 185 198 198 186 163 131 97 68 48 36 30 28 29 33 42 58 83 119 159 190 210 219 
210 207 196 172 134 89 54 33 23 21 25 39 67 109 156 188 202 199 180 149 112 80 59 50 50 56 67 79 91 100 105 109 114 121 131 142 151 154 149 133 111 87 69 59 58 65 82 109 140 168 188 200 205 204 199 190 177 161 145 130 119 113 111 112 114 115 111 102 86 68 53 42 38 40 50 70 102 142 178 201 209 206 192 168 137 106 79 61 51 47 48 53 63 79 102 131 160 183 198 206 
183 184 178 160 128 90 58 37 26 22 24 36 61 103 152 188 206 209 198 175 141 106 77 60 53 56 64 78 95 112 127 139 149 159 169 177 182 181 172 152 125 99 79 70 71 82 103 131 160 184 199 208 211 210 206 200 191 181 171 163 159 157 159 161 164 164 158 144 121 92 65 46 35 33 38 53 83 125 169 200 215 219 213 198 177 150 124 103 89 83 83 88 95 106 119 134 149 162 171 179 
142 150 152 145 126 98 69 48 34 28 29 39 64 106 155 192 211 217 211 195 167 132 97 73 61 60 68 84 106 131 152 169 180 189 196 200 201 196 183 161 132 105 87 80 87 104 129 156 180 197 206 210 209 205 199 192 185 180 178 179 183 188 194 199 202 202 197 183 157 120 81 52 35 29 31 42 67 108 157 195 217 225 225 218 205 188 168 151 138 132 130 132 133 133 131 128 126 126 129 135 
96 111 125 133 129 113 90 67 49 39 38 49 75 117 164 198 216 222 220 208 185 152 114 84 68 65 73 91 119 149 174 191 201 208 211 212 209 200 183 157 128 103 89 88 102 125 153 178 196 206 209 207 200 189 176 165 158 157 162 173 187 200 211 218 223 224 220 208 184 145 98 60 37 27 26 34 55 93 142 186 214 226 230 227 220 210 199 188 180 176 174 172 166 155 136 115 97 86 83 87 
62 80 105 128 139 135 118 93 70 56 52 62 90 132 175 205 221 226 224 214 194 161 122 89 70 66 74 95 127 160 187 204 213 217 218 215 208 194 171 142 113 92 84 91 111 141 171 193 206 211 209 200 183 162 140 123 115 117 129 149 174 197 214 225 231 233 231 222 201 163 113 68 40 27 24 29 46 78 124 171 204 221 228 228 224 218 212 207 203 202 201 197 187 167 136 101 73 56 50 52 
43 65 96 130 154 159 147 123 95 74 67 77 105 146 185 210 223 227 225 214 193 159 118 85 66 61 70 92 126 163 191 209 218 220 219 213 201 180 151 119 92 76 74 87 114 149 180 202 212 213 206 190 163 130 100 80 72 75 89 114 147 180 206 223 232 235 234 227 210 175 125 76 44 28 23 26 39 64 104 150 186 207 216 218 216 213 210 209 209 211 212 209 197 172 133 91 58 39 31 33 
38 62 99 140 170 180 171 146 115 89 79 87 114 153 189 212 223 226 222 209 183 145 104 73 56 53 61 83 117 157 189 208 218 220 217 207 189 161 127 94 71 61 63 79 109 147 181 203 213 212 202 179 144 104 71 51 43 45 56 79 113 153 189 213 226 233 234 228 213 184 137 87 52 33 26 27 35 54 84 122 156 179 190 194 192 191 191 194 201 208 212 211 200 175 133 86 51 32 24 26 
44 72 113 155 184 193 184 158 124 94 81 88 113 151 187 210 221 223 216 198 167 124 84 57 44 42 50 70 103 144 180 203 214 216 211 197 174 141 104 74 56 50 54 70 100 138 174 198 209 208 196 170 130 88 56 37 30 30 37 54 82 121 162 193 214 224 228 225 214 189 150 103 66 43 33 32 36 48 67 93 118 137 147 150 149 149 153 163 178 194 205 209 201 177 137 90 54 34 26 30 
61 93 135 172 195 199 186 157 119 88 74 78 102 139 177 203 216 217 208 185 147 103 66 44 34 34 41 59 89 128 166 192 205 207 201 184 157 123 89 64 50 46 50 64 89 124 158 184 197 199 188 163 125 85 54 36 28 26 29 40 60 90 128 164 190 207 216 217 210 193 163 125 89 65 51 46 46 50 58 71 83 92 97 97 96 97 105 120 144 171 192 202 200 181 146 102 66 45 38 43 
92 125 161 189 202 199 179 144 104 73 60 63 84 121 161 192 208 210 199 172 130 86 53 35 28 29 36 51 77 113 150 177 190 192 184 167 141 110 83 65 54 51 54 63 81 107 136 161 177 182 176 157 127 93 66 47 37 32 31 35 46 66 93 125 154 177 192 201 201 194 176 150 123 100 84 74 67 63 60 59 60 60 58 56 55 56 63 80 108 143 175 194 198 187 159 122 88 68 62 71 
