P2
100 100
255
131 138 144 147 146 139 128 116 106 100 99 104 113 125 137 147 152 152 147 137 124 111 100 91 87 87 91 99 109 119 129 136 140 141 138 134 128 122 116 111 107 105 104 105 109 116 124 133 141 146 147 143 135 124 112 102 95 92 92 96 102 109 117 124 129 133 136 138 140 140 139 137 134 130 126 122 119 116 113 110 106 102 97 92 89 89 92 99 110 123 136 146 151 150 146 138 130 124 122 125 
144 149 153 153 147 137 124 110 98 92 91 95 105 117 130 141 147 149 145 136 125 112 102 94 91 91 95 102 111 121 128 134 136 136 133 130 127 124 121 119 117 115 112 111 111 112 117 123 130 136 140 141 138 132 124 117 111 107 105 105 107 109 112 114 116 118 121 125 130 136 141 145 147 146 144 141 135 129 121 113 105 97 91 86 83 84 88 96 107 121 134 144 150 151 148 143 138 135 135 138 
154 159 160 158 150 138 122 106 94 87 86 90 99 111 125 137 144 147 145 138 129 118 109 103 100 101 105 111 118 124 128 130 130 128 126 124 124 126 128 130 130 129 125 120 115 112 111 113 118 124 131 136 139 139 137 133 129 125 121 117 114 111 108 105 104 104 107 113 122 132 143 152 158 161 160 156 150 141 130 119 107 97 90 85 83 84 89 97 109 121 133 142 147 148 147 144 142 142 144 149 
160 165 166 162 153 139 123 106 93 86 84 88 97 109 123 135 144 148 147 143 136 128 121 116 115 116 119 123 126 129 129 126 123 119 116 116 120 126 133 140 144 144 140 133 123 114 107 104 106 112 120 129 138 144 147 148 145 141 136 129 121 113 105 98 94 94 97 104 116 130 145 157 166 170 171 168 161 151 138 125 112 101 93 89 88 91 96 104 114 124 133 139 142 142 141 140 140 142 147 154 
162 167 168 165 156 142 125 108 96 88 87 91 99 111 124 136 145 149 150 148 143 138 134 131 131 132 134 136 136 134 129 122 114 108 105 107 113 124 137 148 156 159 155 146 132 118 105 98 96 100 109 122 135 146 154 158 158 154 147 137 126 114 103 94 89 87 91 99 113 129 146 160 170 175 176 173 167 156 143 130 117 107 100 97 98 102 108 116 123 130 134 136 135 133 130 130 132 137 145 154 
159 166 168 165 156 143 127 112 100 93 92 97 105 117 129 139 147 151 152 151 149 146 144 144 145 147 148 148 146 139 130 118 107 98 95 97 105 120 137 153 164 169 167 157 142 123 106 94 89 92 100 114 130 146 157 163 165 161 153 141 128 114 101 92 87 86 90 99 113 130 146 160 170 175 176 173 166 157 145 132 121 113 109 109 112 118 124 130 134 136 135 131 126 120 117 116 120 127 138 149 
154 162 165 162 155 143 128 115 105 100 100 105 114 124 134 143 149 151 152 151 150 149 149 151 154 157 158 157 153 144 130 115 101 91 86 88 98 114 134 154 168 175 174 166 150 129 109 94 86 87 95 109 127 144 157 165 166 162 153 141 126 112 101 93 89 90 94 104 117 132 146 158 166 170 170 167 161 152 142 132 124 119 119 122 128 134 140 144 145 142 135 126 116 108 103 102 106 115 128 142 
147 156 160 157 150 139 127 117 110 107 109 115 123 132 140 145 148 148 147 145 144 145 148 152 157 161 163 162 157 147 132 114 98 86 80 82 91 108 129 151 168 177 178 171 156 135 114 97 87 86 93 106 124 141 155 162 163 159 149 136 123 110 101 96 95 98 103 112 123 134 145 153 158 159 159 155 150 143 135 129 125 124 127 134 142 149 155 157 154 147 135 121 107 96 90 89 94 104 118 134 
141 150 153 150 143 134 124 116 113 113 118 125 132 139 144 145 144 141 137 134 133 135 139 145 153 159 163 164 159 149 134 116 99 86 79 79 87 103 124 147 165 176 179 173 160 141 119 102 91 89 95 108 124 140 152 158 157 151 141 129 117 108 103 102 105 109 116 124 131 137 142 145 146 145 143 140 136 131 127 124 124 127 134 143 152 160 165 166 161 150 135 116 100 88 81 81 86 96 111 127 
136 144 146 142 135 126 119 114 114 118 125 132 139 144 145 142 136 130 123 119 118 120 125 134 144 153 159 161 159 150 137 120 103 90 82 81 87 101 120 142 160 172 176 172 161 145 126 109 99 96 101 112 126 140 149 152 149 142 131 120 111 107 106 110 117 124 131 136 140 140 139 136 133 129 126 124 121 119 118 119 122 129 138 148 159 167 172 171 165 152 134 113 95 83 76 76 82 93 108 123 
135 140 140 134 126 118 113 111 114 121 130 138 144 146 143 136 127 117 108 103 101 104 111 121 132 143 152 157 156 151 140 126 111 98 90 87 91 102 118 137 154 165 170 169 160 147 131 117 108 106 110 119 131 140 146 146 141 131 120 111 106 106 110 119 129 139 146 149 148 143 136 128 121 115 112 110 110 111 113 116 121 129 139 150 161 169 174 173 166 152 133 112 94 81 76 76 83 94 109 124 
136 139 136 128 119 111 108 109 115 124 134 143 147 146 140 129 116 104 95 89 88 91 98 109 121 134 144 151 153 150 143 133 121 110 102 98 100 107 118 133 146 157 162 162 157 147 136 125 118 117 120 128 136 142 143 140 132 121 111 104 101 105 114 127 141 152 158 159 155 146 134 122 112 105 102 102 104 107 111 115 121 128 138 149 159 167 172 171 164 151 133 112 95 83 79 81 88 100 115 128 
141 140 134 124 114 107 104 107 116 127 138 146 149 145 135 122 107 94 85 80 80 84 91 102 114 126 137 144 148 149 146 140 133 125 118 114 113 115 121 130 139 147 152 153 151 145 138 131 127 127 130 135 140 142 141 135 124 113 103 98 98 105 118 134 149 161 167 166 159 148 133 119 108 101 99 101 104 108 112 116 121 126 134 144 153 162 167 167 161 149 132 113 98 88 85 88 97 110 124 135 
146 142 133 122 111 104 103 108 118 131 142 149 150 144 132 116 101 88 80 77 78 83 91 101 112 122 131 138 142 145 146 146 143 140 135 131 127 125 125 127 131 135 139 141 142 140 137 135 133 134 137 140 142 142 138 130 119 107 98 94 96 105 119 137 153 165 171 169 162 149 134 119 109 103 103 105 110 114 117 119 121 124 128 136 144 152 158 159 155 146 131 115 102 94 93 98 108 121 134 143 
150 144 133 121 110 104 104 110 122 135 146 152 152 144 130 113 98 86 80 79 82 88 97 106 114 121 127 131 135 140 144 148 151 152 150 146 141 134 129 125 123 123 125 128 131 133 134 135 136 138 140 142 142 140 134 126 115 104 96 93 96 105 119 137 153 164 170 168 161 149 135 122 113 109 110 114 119 122 124 122 121 120 121 125 132 140 147 150 148 141 130 117 107 101 102 108 119 132 143 150 
152 145 133 120 109 104 106 114 126 140 150 155 154 145 130 114 99 89 85 86 92 100 108 116 120 123 124 125 127 132 139 147 154 159 161 158 151 141 131 121 114 111 112 115 120 125 130 134 137 139 140 140 139 136 131 123 114 104 98 95 97 105 118 133 148 159 164 163 157 146 135 125 119 118 121 125 129 131 130 125 119 114 112 114 120 128 135 140 141 137 129 119 112 108 110 117 128 140 149 154 
152 143 131 118 108 104 107 116 129 143 153 157 155 146 132 116 103 96 94 98 106 115 123 128 128 125 121 117 117 121 130 142 153 162 166 165 157 145 130 116 105 100 99 103 110 118 125 131 135 137 137 136 135 132 128 122 115 108 103 100 101 107 116 128 139 148 153 153 148 141 134 128 126 127 131 136 139 138 134 126 117 109 104 104 109 116 124 131 134 133 128 121 116 114 116 124 134 144 152 155 
148 139 127 115 107 104 107 117 130 143 153 157 155 146 134 120 110 105 107 113 123 132 138 140 135 127 117 109 106 110 120 134 149 161 168 167 159 144 127 110 97 90 89 94 102 112 122 129 133 134 133 131 129 127 125 123 120 116 113 110 109 110 115 121 128 134 138 139 137 134 131 130 131 135 140 144 145 142 135 124 113 103 97 97 100 108 117 125 130 131 128 124 120 119 121 128 137 146 151 153 
144 135 123 112 104 102 106 115 128 141 150 154 153 146 135 125 118 116 120 129 139 147 151 148 139 126 112 101 96 99 109 125 143 158 166 165 157 141 121 103 89 83 83 88 98 110 121 129 132 132 129 125 123 123 124 126 127 127 126 123 119 116 115 115 117 119 121 123 124 125 126 130 134 140 146 149 148 143 134 121 109 99 93 92 96 104 113 123 129 131 130 127 124 123 126 131 138 145 149 149 
140 131 119 109 101 99 103 111 122 134 144 148 148 143 136 129 125 126 132 142 151 157 158 152 140 122 105 92 87 89 100 117 136 153 162 162 153 136 115 97 84 78 80 87 99 112 124 132 133 131 125 120 117 118 122 129 135 140 141 138 132 125 117 111 107 105 105 107 111 116 122 129 137 144 149 150 148 141 130 117 105 95 90 91 95 104 115 124 132 135 135 132 130 129 130 134 139 144 147 146 
139 129 118 107 100 97 99 105 115 125 134 139 141 138 134 131 131 135 142 151 159 163 161 152 137 117 99 86 80 83 93 111 131 148 157 157 147 130 110 92 81 77 80 90 104 119 131 138 137 131 123 115 112 114 121 132 143 151 155 153 146 134 121 109 99 94 93 95 101 109 118 129 138 146 150 150 145 137 125 112 101 94 90 92 99 108 119 130 137 141 141 139 136 134 135 138 141 145 146 144 
140 131 120 109 101 96 96 100 107 115 123 129 132 132 132 132 135 140 148 156 162 164 160 149 132 112 94 81 77 80 91 108 128 145 154 153 143 126 106 90 81 79 85 98 114 130 142 146 143 133 121 111 106 108 118 132 148 160 166 165 158 144 127 109 96 87 85 88 95 105 117 130 140 147 150 148 142 132 120 108 99 94 93 96 104 115 127 137 144 147 147 145 142 140 140 141 144 147 148 146 
145 137 126 115 105 99 96 97 101 107 113 119 124 127 129 132 137 143 151 158 162 162 156 144 127 108 91 81 77 82 93 110 129 144 152 150 140 123 105 91 84 85 94 110 128 144 154 156 150 137 121 107 100 102 113 130 149 165 174 174 167 153 133 112 95 85 81 84 93 105 119 133 143 149 150 146 138 127 116 105 98 95 96 102 111 122 134 144 150 153 152 149 146 144 143 144 147 150 151 150 
151 145 135 124 113 105 99 97 98 102 107 113 118 123 127 132 138 145 151 157 159 158 151 139 123 106 92 84 83 88 100 117 134 147 152 149 139 123 107 95 91 95 107 124 143 158 166 165 156 140 120 103 94 95 106 125 147 165 177 179 173 159 138 115 97 85 81 85 95 108 124 137 147 151 149 143 134 123 112 104 99 98 101 108 118 129 139 148 153 154 152 149 145 143 142 144 148 151 154 154 
157 153 145 135 124 114 106 101 100 101 105 110 116 122 127 133 139 145 150 153 154 152 145 134 121 107 97 92 93 100 112 127 141 151 154 150 139 124 110 101 100 107 121 139 157 170 176 173 162 142 120 100 89 88 98 117 140 162 175 180 176 162 142 119 100 88 84 89 99 114 130 142 150 152 148 140 130 119 110 103 100 101 106 114 123 133 142 148 151 151 148 143 139 137 137 139 144 150 155 158 
160 159 154 145 135 124 115 108 105 106 108 113 119 124 130 135 140 144 147 148 148 145 139 130 120 111 106 104 107 115 126 139 149 155 156 150 139 125 114 107 109 118 134 152 168 179 183 179 165 144 119 97 84 82 90 108 132 155 171 178 175 163 144 122 103 92 89 94 106 121 135 146 152 151 146 136 126 116 108 104 103 106 112 119 128 136 142 145 145 142 137 131 127 124 124 128 135 143 151 158 
159 161 159 153 144 134 124 118 114 114 116 120 125 130 135 138 140 142 142 142 139 136 131 126 121 117 116 118 123 131 141 150 156 159 156 148 137 125 116 112 115 126 142 160 175 184 186 181 167 145 119 96 81 77 83 100 122 146 164 172 171 161 144 124 106 96 94 100 112 126 139 148 151 148 141 131 122 114 109 107 108 113 118 125 132 136 139 138 135 129 122 115 110 107 108 113 121 132 143 153 
154 159 159 155 148 140 132 126 123 124 126 130 135 138 141 142 141 139 136 133 129 126 123 121 120 122 125 131 138 146 153 159 161 160 154 145 133 122 114 112 117 129 145 161 175 184 186 181 167 145 119 96 80 75 79 93 114 137 155 165 165 157 142 124 109 101 100 106 117 130 141 147 147 143 135 126 118 113 111 112 116 121 127 132 136 137 136 131 124 115 106 98 92 90 91 96 105 117 131 144 
144 152 154 152 148 141 136 132 131 133 137 141 145 147 147 145 140 135 128 122 118 115 113 115 118 124 132 141 149 156 162 164 163 158 149 138 127 116 110 109 114 125 140 156 170 179 181 177 165 145 121 98 82 76 79 90 108 129 147 157 158 152 139 124 111 104 105 111 121 131 139 143 141 135 127 120 115 114 116 120 126 132 137 140 141 139 134 126 116 104 94 85 79 76 76 81 90 102 117 132 
133 142 145 145 141 137 134 133 135 139 144 149 153 154 152 146 139 129 120 112 106 103 103 107 114 124 135 146 156 162 166 165 161 153 142 129 117 108 102 101 106 116 130 145 158 168 172 170 160 143 123 102 88 81 82 91 106 124 140 150 151 146 135 123 113 108 108 114 122 130 135 136 133 127 120 116 115 117 123 131 138 144 148 149 148 143 135 124 112 99 87 77 71 67 67 71 79 91 105 120 
124 131 134 134 131 128 127 129 134 141 148 154 158 158 154 146 136 124 112 102 96 93 95 100 109 122 136 148 158 164 166 163 156 146 133 119 107 98 93 92 96 104 115 129 142 153 159 159 154 142 125 109 96 89 89 96 108 123 136 144 146 141 132 122 114 110 111 116 122 128 130 129 125 119 115 114 117 124 133 142 150 156 158 158 154 148 139 127 114 100 87 77 70 66 65 68 75 86 99 112 
119 124 124 122 119 117 118 122 129 138 148 155 159 158 154 145 132 119 106 95 89 87 88 95 105 119 134 147 157 162 163 158 150 137 123 110 98 90 85 84 86 92 100 111 123 135 143 147 146 139 129 117 107 101 101 106 115 126 135 141 141 137 129 121 115 112 113 117 122 125 125 123 118 114 113 115 122 132 143 153 161 165 166 164 159 153 144 133 121 108 96 85 77 72 71 73 79 88 99 110 
120 121 118 114 109 106 108 113 121 132 143 151 156 155 151 141 129 115 102 92 86 84 86 93 103 117 132 145 154 159 158 152 142 129 115 102 91 84 80 78 79 83 89 97 107 118 127 134 138 137 132 126 119 116 115 118 124 131 137 140 139 134 127 121 116 114 115 118 121 123 122 119 115 113 114 119 129 140 152 161 167 170 169 166 161 155 148 141 132 122 112 102 94 88 86 87 91 99 107 115 
127 124 117 110 103 99 100 104 113 124 135 144 149 149 145 136 125 113 102 93 88 87 89 95 105 118 131 143 151 154 152 146 135 122 109 97 88 82 79 77 77 79 83 89 96 105 115 124 130 134 135 134 131 130 129 131 135 139 141 141 138 133 126 120 116 115 117 119 122 122 121 118 115 115 118 125 136 147 158 165 169 168 165 161 156 153 150 147 143 138 132 125 117 112 109 109 112 117 122 126 
137 131 122 111 102 97 96 99 106 116 125 134 139 140 137 131 123 114 106 100 96 95 97 103 111 122 132 142 148 149 146 139 129 116 105 95 88 84 82 81 81 82 84 88 93 99 108 116 125 132 136 139 140 141 141 143 144 145 145 142 138 132 125 120 116 116 118 120 122 123 122 119 118 119 123 131 141 151 159 163 163 160 154 149 145 144 146 149 152 153 152 148 144 139 136 134 135 138 140 140 
148 140 129 118 107 100 97 98 102 109 116 123 128 130 129 126 122 118 114 110 109 109 111 115 121 128 136 141 144 144 140 132 123 112 103 96 92 90 90 91 92 92 93 94 97 100 106 113 121 129 136 141 145 148 149 150 151 150 148 143 137 130 124 119 116 116 118 121 124 125 124 123 122 124 128 135 144 151 155 155 151 144 136 130 127 129 136 146 155 163 167 167 165 162 159 156 156 155 155 153 
156 148 138 127 116 108 103 101 102 105 109 113 117 120 121 122 123 124 124 124 125 126 128 130 133 136 139 141 141 139 133 126 117 109 102 99 98 99 102 106 108 109 109 108 107 107 109 113 118 125 132 139 145 149 152 154 154 152 148 143 136 129 122 118 116 116 119 122 125 127 127 126 126 128 131 137 142 146 145 141 133 122 113 107 105 111 122 137 153 166 175 178 178 176 173 169 167 165 164 161 
157 152 145 136 127 119 113 108 106 105 105 106 108 111 115 120 125 131 135 139 142 143 144 144 144 143 142 140 137 132 126 119 112 106 103 103 106 112 118 124 129 131 130 127 122 118 115 114 116 121 127 134 141 146 150 152 153 151 147 141 134 127 121 117 115 117 120 124 127 129 129 129 129 129 132 135 137 136 132 124 113 101 91 86 86 93 107 126 147 164 176 181 182 180 176 172 168 165 163 161 
153 152 149 144 139 132 125 118 112 107 103 102 102 105 111 118 128 137 146 152 155 157 156 154 151 147 143 138 132 126 119 113 108 104 104 108 115 124 134 143 149 152 151 146 138 129 122 116 114 116 120 126 133 139 144 147 148 146 143 137 131 124 119 116 116 118 122 126 129 131 131 130 129 129 129 130 129 125 118 108 96 84 75 71 72 79 94 115 138 158 171 177 178 175 169 163 158 155 154 153 
143 147 149 150 148 144 138 130 121 112 105 100 99 102 108 118 131 143 153 160 164 165 163 159 153 147 140 134 127 120 114 108 105 103 106 113 123 135 148 158 165 168 166 160 150 139 127 117 112 110 113 118 124 131 136 139 140 139 136 132 127 122 119 118 119 122 126 129 132 132 131 129 127 125 124 123 120 115 107 96 85 74 67 63 65 73 87 107 130 149 162 168 167 161 153 146 139 136 136 139 
129 138 147 152 155 153 148 140 129 118 108 101 99 101 108 120 133 146 157 164 167 166 163 157 151 143 136 129 122 116 110 106 104 104 109 117 129 143 157 168 175 177 175 168 157 143 129 117 110 106 107 111 117 122 127 130 131 130 128 125 122 120 120 121 124 127 131 134 135 134 131 127 123 120 118 116 113 108 101 91 81 72 66 64 66 73 86 104 124 141 151 154 151 142 132 123 116 114 115 121 
116 129 142 152 158 160 156 148 137 124 112 104 101 103 110 121 135 147 157 163 164 162 157 151 144 136 130 124 119 114 110 108 106 108 113 122 134 148 161 171 178 180 177 169 158 143 129 116 108 105 105 108 113 117 120 121 121 120 119 118 118 119 122 126 131 135 139 140 139 135 130 124 119 115 113 111 110 106 101 94 86 79 74 72 74 80 92 107 123 135 141 140 133 122 111 101 95 93 96 104 
106 122 137 151 159 163 161 154 143 130 117 108 104 106 112 123 135 146 153 157 157 153 147 140 134 128 124 121 119 117 115 113 113 114 119 127 138 150 161 170 175 176 172 164 153 139 126 115 109 107 108 111 113 115 115 114 112 110 109 110 113 118 125 133 139 145 147 147 143 137 129 121 115 110 109 109 110 110 108 104 98 93 89 88 89 95 104 115 126 133 134 129 118 106 94 85 80 80 84 93 
101 117 134 148 158 163 162 156 146 134 122 113 109 110 115 124 133 142 147 148 145 140 134 128 123 121 120 121 122 123 123 123 122 123 127 132 140 150 158 164 167 166 161 153 143 131 122 115 113 113 116 119 120 119 115 110 105 101 101 103 109 118 129 139 148 154 156 153 147 138 128 118 111 107 107 110 114 117 119 119 117 114 111 110 111 115 121 127 132 133 129 121 109 96 85 78 74 74 79 88 
102 116 132 145 155 160 160 155 147 136 126 118 113 113 117 124 130 135 137 136 132 126 120 116 115 116 119 124 129 132 134 134 134 134 135 137 142 147 152 155 155 152 146 138 130 122 118 117 119 124 129 132 131 126 119 109 100 95 93 96 105 117 132 145 156 162 163 159 151 139 127 116 109 106 108 113 121 128 134 137 137 136 135 134 134 135 138 139 139 136 128 117 105 93 84 78 75 76 81 89 
106 118 131 142 150 155 155 152 145 137 128 121 117 116 118 122 126 128 127 124 119 114 109 108 110 115 122 130 137 142 145 146 144 143 141 141 142 143 144 143 140 135 129 121 116 113 114 120 128 137 144 147 145 137 125 111 98 90 87 91 101 116 134 150 161 168 168 162 152 139 126 114 107 106 110 118 128 138 146 152 154 155 154 152 152 151 150 148 144 138 128 117 105 96 88 84 83 85 89 96 
114 121 130 137 143 147 148 146 141 135 128 123 119 118 118 120 121 120 118 113 109 104 103 104 109 117 127 137 146 151 154 154 151 148 145 142 140 138 135 132 126 119 112 106 103 105 112 124 137 150 160 163 159 149 133 114 98 87 83 87 98 115 134 152 164 170 170 163 152 138 124 113 108 108 114 124 135 146 155 161 164 164 163 162 160 158 155 151 146 138 128 118 109 102 97 96 96 98 102 107 
122 124 127 131 134 137 138 138 135 132 127 123 120 118 117 116 115 113 110 106 102 100 101 105 112 122 134 144 152 157 158 156 153 148 143 139 136 132 127 121 114 106 99 94 94 99 111 127 145 161 172 175 171 159 140 118 99 86 81 84 96 113 134 152 164 170 168 161 149 135 122 113 109 111 119 129 141 151 158 163 165 164 163 161 159 156 153 149 143 135 127 120 114 110 109 110 112 115 117 119 
128 125 124 123 124 126 128 129 129 128 126 123 120 118 115 113 111 108 105 102 100 100 103 109 118 129 140 150 156 158 157 153 148 142 137 133 129 126 121 114 106 98 91 87 88 95 109 129 150 168 179 183 178 165 145 122 101 86 81 84 95 113 133 150 162 166 164 156 144 131 120 113 112 116 124 134 144 151 156 158 158 156 154 151 149 147 145 141 137 131 126 122 119 119 121 125 128 131 131 130 
131 124 119 115 114 115 117 121 123 124 124 123 120 118 115 112 109 106 104 102 102 104 109 117 127 137 146 152 155 154 150 144 137 131 126 124 122 120 117 112 104 96 89 84 85 93 108 129 151 170 181 185 181 168 148 124 103 88 83 86 97 114 132 147 157 160 156 148 137 126 118 114 116 121 129 138 145 149 150 148 145 141 138 136 135 134 134 132 130 127 125 123 124 127 132 137 141 143 142 138 
132 121 113 107 104 105 109 114 119 123 124 124 122 119 116 113 110 107 106 106 108 111 118 126 135 143 149 152 151 147 139 130 122 116 114 113 115 117 117 114 107 99 91 86 86 92 106 125 147 166 178 182 178 166 147 125 105 92 88 91 102 116 132 144 151 151 146 138 129 121 116 116 120 127 134 141 144 144 141 135 129 124 120 119 120 122 124 125 125 125 125 126 129 134 140 146 150 151 148 141 
130 118 107 100 98 99 104 111 118 123 127 127 126 123 119 116 113 112 111 112 115 120 126 134 141 147 151 150 145 137 126 115 107 102 101 104 110 116 120 120 115 107 98 91 88 92 103 120 140 157 169 174 170 160 143 124 108 98 95 100 110 122 134 142 144 142 135 127 121 116 116 120 126 134 140 143 143 138 131 122 114 108 105 106 109 113 118 122 124 126 127 130 134 139 146 152 156 155 151 142 
128 115 103 96 94 97 103 111 120 127 131 133 132 129 125 122 120 118 118 120 123 128 134 140 146 149 150 146 138 127 114 102 94 91 92 98 108 118 127 130 127 119 109 99 93 93 99 112 129 145 156 160 158 149 135 121 110 104 105 111 120 130 137 140 138 132 125 118 114 113 117 124 132 140 145 145 141 133 122 112 103 97 96 99 104 111 118 124 127 130 131 134 138 143 149 155 157 157 151 141 
126 113 102 96 94 98 106 115 125 133 138 140 139 136 132 129 127 126 126 127 130 134 138 143 147 149 147 142 132 119 105 94 86 84 87 96 109 123 135 142 141 133 122 109 99 95 97 105 118 130 139 143 141 135 125 117 111 111 116 124 133 139 142 140 133 125 116 110 108 112 119 129 138 146 149 147 139 129 116 105 97 93 93 98 105 114 123 129 133 135 136 138 141 145 151 155 157 156 150 140 
126 113 103 98 98 102 111 122 133 141 145 147 146 143 139 136 134 133 132 133 134 137 140 143 145 146 144 138 128 115 102 91 84 82 87 97 113 130 144 153 153 147 134 120 107 99 97 101 108 117 123 126 124 120 115 112 113 118 127 136 144 148 147 140 130 118 109 104 105 112 122 133 143 150 151 147 138 126 113 103 96 94 96 102 111 121 130 136 139 140 140 140 142 145 150 154 156 155 149 139 
126 114 105 101 103 109 119 130 140 148 152 153 151 148 144 141 139 137 136 135 135 136 137 139 141 142 141 136 127 116 103 93 86 85 90 101 118 136 152 161 163 157 145 129 115 104 99 99 103 108 111 112 110 108 106 107 113 124 136 147 154 156 151 140 126 113 104 101 104 112 124 137 147 152 152 146 136 124 112 103 98 98 102 110 119 128 136 140 141 141 139 139 140 143 148 152 154 153 148 138 
126 116 108 105 108 116 126 138 147 154 157 156 154 150 146 142 139 137 136 134 133 132 133 134 136 138 138 136 130 120 109 99 93 91 96 107 123 141 157 166 168 163 151 137 122 110 104 102 103 105 106 105 102 100 100 104 114 127 142 154 160 160 152 139 123 109 100 98 103 113 127 139 149 153 151 144 134 123 113 106 103 105 110 117 125 133 138 139 139 136 134 133 135 139 144 149 152 151 146 137 
125 116 109 108 112 121 132 143 152 157 159 157 153 148 143 139 136 134 132 130 128 127 127 128 131 135 137 138 134 128 118 109 102 99 103 112 127 143 158 166 168 164 154 141 127 117 111 109 109 109 108 104 100 97 97 103 114 129 145 157 162 160 150 135 119 105 97 96 103 114 128 140 148 151 148 140 131 121 114 109 109 111 116 123 128 133 134 133 131 127 125 125 127 133 140 146 150 149 145 136 
123 114 108 108 113 122 134 145 154 158 158 154 148 142 136 131 128 126 124 123 121 120 121 123 128 133 138 141 140 136 128 119 111 107 109 116 128 142 154 162 164 160 152 141 131 123 120 119 120 119 116 110 104 99 98 103 114 129 145 156 160 157 146 130 114 101 94 95 103 114 128 139 145 146 142 135 127 120 115 113 114 117 121 125 127 128 126 122 118 115 113 115 120 127 136 144 148 147 142 133 
118 109 104 104 110 121 133 144 152 156 154 149 141 133 126 121 118 117 116 115 115 115 117 121 126 134 140 145 146 143 137 128 119 113 112 117 126 137 147 154 156 153 146 138 132 128 128 130 133 132 129 121 113 105 102 106 115 129 142 153 156 151 140 124 108 97 92 95 103 114 127 136 141 140 136 129 123 118 116 116 118 121 124 124 123 120 115 110 105 102 102 106 114 124 135 143 147 146 139 129 
112 102 97 98 104 115 128 140 149 152 149 142 133 124 116 110 108 107 107 108 110 112 116 121 128 136 143 149 151 148 142 133 123 116 113 115 121 130 138 143 145 143 138 134 131 132 136 141 145 146 142 134 124 114 109 109 116 128 139 148 150 145 133 118 104 95 92 95 104 115 125 133 135 133 129 123 118 116 117 119 122 124 125 123 118 112 105 99 95 93 96 103 113 125 136 145 148 145 136 124 
105 95 90 90 97 109 122 135 144 147 144 137 126 116 107 101 99 99 101 104 108 112 118 125 132 140 147 152 153 150 143 133 123 115 111 111 116 122 129 133 134 133 130 128 129 133 140 149 155 157 153 145 134 123 115 114 119 127 137 144 144 139 128 114 102 95 94 98 107 116 125 129 130 126 121 117 114 115 118 122 126 127 126 122 115 106 98 92 90 90 96 105 117 131 142 149 150 145 133 119 
99 88 82 83 90 102 116 130 140 144 141 133 122 111 102 96 93 94 97 102 109 116 123 131 138 145 150 153 152 148 140 130 120 112 107 107 111 116 121 125 126 125 123 123 126 133 142 152 160 162 160 152 141 129 121 118 121 128 136 141 141 136 126 114 105 99 100 105 112 120 126 127 125 120 115 112 111 114 120 125 130 131 128 122 114 105 97 92 91 94 102 114 128 141 151 156 154 146 131 114 
94 83 77 78 85 97 112 127 138 143 141 133 122 110 100 94 92 93 97 104 112 121 130 138 144 149 152 152 148 142 133 123 114 107 104 104 108 113 118 122 122 121 120 121 124 132 142 152 159 162 160 153 143 132 125 122 124 130 137 141 141 136 128 119 111 108 110 115 121 127 129 127 122 116 110 108 109 115 122 129 134 135 132 126 117 109 102 99 100 105 115 128 141 153 161 163 159 147 130 111 
92 80 75 77 84 96 112 127 139 144 143 137 126 114 104 96 94 95 100 108 118 128 137 145 150 152 152 149 143 134 125 115 107 103 102 104 109 115 120 123 124 123 121 121 124 130 138 147 154 157 155 148 139 131 125 124 127 134 140 144 144 141 134 127 122 121 123 128 132 135 134 129 121 113 108 106 109 116 125 133 139 140 138 131 124 116 111 110 113 121 131 144 155 165 169 169 162 148 129 109 
92 81 77 79 86 99 115 130 142 148 148 142 132 120 110 102 99 100 105 113 124 135 144 150 154 154 150 144 135 125 115 107 102 100 102 107 114 121 126 129 130 128 125 124 124 128 134 140 144 146 143 138 131 125 122 124 129 137 144 149 150 147 142 138 135 135 138 142 145 144 140 132 122 113 107 106 110 118 128 137 143 145 143 138 131 126 123 124 128 136 147 157 166 172 174 171 162 147 128 108 
94 86 83 86 94 107 121 136 147 153 153 148 139 128 118 110 106 106 111 120 130 140 149 154 155 153 146 137 126 116 107 102 99 101 105 113 121 129 135 138 138 135 131 128 126 127 129 131 133 132 129 124 119 116 117 122 130 140 148 153 155 153 150 148 147 148 151 154 155 153 146 136 124 114 108 108 113 122 132 141 147 149 147 143 138 134 133 135 141 149 157 165 171 174 174 169 159 144 126 108 
99 94 93 98 106 118 131 143 152 157 157 152 145 135 125 118 114 114 118 126 136 145 152 155 155 150 141 130 118 108 101 98 99 103 111 121 131 139 145 147 146 142 137 132 129 126 125 123 121 118 113 109 106 106 110 118 129 141 150 156 158 157 155 154 154 157 160 162 163 159 151 139 127 116 111 111 117 126 136 145 149 151 148 144 141 138 139 142 147 154 161 166 169 170 167 161 151 138 123 110 
106 105 107 113 121 131 141 150 156 159 158 154 148 140 131 125 121 121 125 132 140 148 153 155 152 145 134 122 111 102 97 97 101 108 119 130 140 148 153 154 152 147 142 136 131 126 122 117 112 106 101 97 95 98 104 115 128 140 150 156 158 157 155 154 155 158 162 165 165 161 152 141 129 119 115 116 122 131 140 147 150 150 147 142 139 137 138 141 146 151 156 159 159 157 153 147 139 129 120 112 
115 118 123 130 137 144 150 155 157 158 156 153 148 141 135 129 126 127 130 136 143 149 153 153 148 139 128 115 104 97 95 97 104 114 126 138 148 155 158 157 154 149 143 137 132 126 120 114 107 100 93 89 89 92 100 112 126 138 148 152 153 151 149 148 149 153 157 161 161 158 150 140 130 122 119 122 128 136 143 148 149 146 141 136 132 130 131 134 138 141 144 144 143 139 135 129 124 119 115 114 
123 130 137 144 150 153 156 156 156 154 151 148 144 139 135 131 130 130 134 139 145 150 152 150 144 134 121 109 100 94 94 99 108 120 133 145 153 158 158 156 152 146 141 136 131 126 121 114 106 98 91 87 86 90 98 110 123 135 143 146 144 140 136 135 136 140 145 150 151 150 144 137 129 125 124 127 134 141 146 147 145 140 133 126 121 119 119 121 124 127 127 126 123 119 115 112 110 110 112 116 
129 139 148 154 157 158 157 154 150 147 143 140 138 135 133 131 131 132 136 140 145 149 150 147 140 129 116 105 96 92 93 100 111 124 137 148 155 157 156 152 146 140 135 132 129 126 122 116 109 101 94 89 88 92 99 110 122 132 137 137 132 126 120 117 118 122 128 134 137 138 135 131 127 126 128 132 139 144 147 146 140 132 123 115 109 106 106 108 110 112 111 109 106 102 99 98 99 103 110 119 
133 144 152 157 158 157 153 148 143 138 134 132 130 129 129 128 129 132 135 140 145 148 148 145 137 126 113 102 94 91 93 100 112 126 139 149 154 155 151 145 138 132 128 126 126 126 124 121 115 108 101 96 94 97 104 113 122 129 131 128 121 112 105 101 100 104 110 116 121 124 124 124 124 126 130 136 142 146 147 143 135 124 113 104 98 96 96 98 100 101 100 98 96 93 91 92 95 101 110 121 
134 144 150 154 153 150 145 139 133 129 125 124 123 123 124 124 126 129 133 137 142 146 146 143 136 125 112 101 93 90 92 100 111 125 138 147 152 151 146 138 130 123 120 119 122 124 126 126 123 117 111 106 104 105 110 118 124 128 127 121 112 102 93 88 87 89 95 101 106 111 114 117 121 126 132 139 144 147 145 139 128 116 105 96 91 89 90 93 95 97 97 96 94 93 92 93 97 104 113 123 
133 139 143 145 143 140 135 130 125 121 119 118 118 118 118 119 120 123 127 132 138 143 145 143 136 126 114 103 95 91 92 98 109 122 134 144 148 147 141 133 124 117 113 114 118 123 128 131 130 127 122 117 115 115 119 124 128 130 127 119 109 97 88 82 80 82 86 91 97 102 107 112 118 125 133 140 145 146 142 134 123 110 100 92 88 88 91 94 99 102 103 103 103 102 101 102 106 111 117 125 
129 131 132 132 130 127 124 121 118 117 116 116 115 115 114 113 114 116 119 125 132 139 143 143 139 131 120 108 98 93 92 96 106 118 130 140 145 145 139 130 121 113 109 110 115 122 129 134 136 135 132 128 125 125 127 131 133 134 130 122 111 100 91 84 81 81 84 88 93 98 103 110 117 125 133 140 144 143 138 129 118 106 97 92 90 92 97 103 109 114 117 118 118 118 118 118 119 121 123 126 
124 121 119 118 116 116 115 115 116 117 117 117 115 113 110 108 106 107 110 116 125 134 141 145 144 138 128 116 105 97 94 95 102 113 125 136 143 144 140 132 122 114 109 109 113 121 129 136 140 141 139 136 134 133 134 136 138 139 136 129 120 110 101 94 90 89 90 92 95 99 104 110 118 126 134 140 142 141 135 125 114 105 98 95 97 102 109 117 125 131 135 137 138 137 136 135 133 131 129 126 
118 112 108 106 106 107 110 114 118 121 122 122 119 114 108 103 99 98 100 107 116 128 139 147 150 148 139 128 115 104 97 96 100 109 121 133 141 145 142 136 127 118 112 111 114 121 129 137 142 144 144 141 139 137 138 140 142 143 142 138 132 125 117 111 106 103 102 101 102 104 108 113 120 128 135 140 141 138 131 122 113 105 102 102 107 115 124 134 142 148 152 154 155 155 153 150 146 140 133 125 
113 105 100 98 100 104 110 117 124 129 130 129 124 117 108 100 93 90 92 98 109 123 138 150 157 157 152 141 127 114 103 98 99 106 117 130 140 146 146 141 133 124 117 114 116 122 129 137 143 145 145 143 140 138 138 140 142 145 147 147 145 141 136 131 127 122 118 115 113 112 114 118 124 131 137 140 140 136 129 121 113 108 107 111 119 129 140 149 157 162 165 166 166 165 163 159 153 145 134 123 
110 102 97 96 99 106 115 124 132 138 140 138 132 122 111 100 91 86 86 91 102 118 136 152 162 166 163 154 140 125 111 102 100 105 115 127 139 147 150 147 140 131 123 119 119 123 130 137 142 145 144 141 138 135 134 136 139 144 148 152 154 154 153 150 146 141 135 129 124 121 121 123 128 134 139 142 141 136 129 121 115 112 114 121 130 141 152 160 166 169 170 170 169 167 165 161 154 145 134 121 
110 102 99 99 104 112 122 133 141 147 149 147 140 129 116 103 92 85 83 87 98 114 134 153 166 173 172 165 152 136 119 107 102 104 112 124 137 146 151 150 144 136 129 124 123 125 131 137 141 143 142 138 134 130 128 129 132 138 145 152 158 162 164 163 160 155 148 140 133 128 126 128 132 137 142 144 142 137 130 123 118 117 120 128 139 149 158 164 167 168 167 165 163 161 159 155 150 142 131 120 
113 107 105 107 112 121 131 140 149 154 156 154 147 137 124 110 97 88 84 86 96 111 132 152 167 176 178 173 161 145 127 113 104 104 110 121 133 143 149 149 145 139 132 127 125 127 132 137 141 142 139 135 129 123 120 119 122 129 137 146 155 162 166 168 166 162 155 146 138 132 129 131 135 140 144 146 144 139 132 125 121 120 125 133 142 152 158 162 162 159 156 152 149 147 146 144 141 136 129 121 
119 116 116 118 123 130 138 145 152 157 159 158 154 145 134 120 107 96 89 89 95 109 128 148 165 176 179 176 166 150 133 117 107 104 108 117 128 138 144 145 142 137 131 127 126 128 133 137 140 140 137 131 124 117 112 110 112 117 125 135 146 155 161 165 165 161 154 146 138 132 130 132 136 142 147 149 147 142 135 128 123 123 126 133 141 148 152 153 150 144 138 133 130 129 130 131 132 131 128 123 
128 128 128 130 132 137 141 146 150 154 157 158 157 153 144 133 120 107 97 93 96 106 123 141 159 171 176 175 166 152 135 119 108 104 106 113 122 131 136 138 136 132 128 125 125 128 133 137 140 139 136 129 121 113 106 103 102 106 113 122 132 142 149 154 155 153 148 141 134 129 128 131 136 143 148 150 149 144 137 130 125 124 126 130 136 140 141 138 133 125 118 113 110 111 114 119 124 127 129 129 
139 140 140 140 140 140 140 141 143 146 150 154 157 157 153 145 133 120 108 100 98 104 116 132 148 161 168 168 162 150 135 120 109 104 104 109 116 123 128 129 128 125 122 121 123 126 131 136 139 138 135 128 120 111 104 99 97 98 102 108 117 125 133 139 141 140 137 132 127 124 125 129 135 142 148 151 150 146 139 132 126 123 123 125 127 128 126 121 114 106 100 95 94 97 103 111 120 127 133 137 
149 150 149 147 143 138 134 131 130 133 138 146 153 158 159 155 146 133 119 107 100 101 108 121 135 148 156 158 154 144 132 119 109 104 104 107 112 117 120 121 119 117 116 116 119 123 129 134 137 137 134 129 121 114 106 100 97 95 96 99 104 110 117 122 125 126 125 122 120 119 121 126 133 140 146 150 149 146 140 133 127 123 121 120 119 116 112 106 98 91 86 84 85 90 98 109 121 131 140 146 
157 158 155 150 143 134 125 118 115 116 123 133 145 155 161 161 155 143 128 113 102 98 101 109 121 133 141 145 143 136 127 117 110 106 105 108 111 114 115 115 113 111 110 111 114 119 125 130 134 135 134 130 125 119 113 107 102 98 96 95 97 100 104 108 111 114 115 114 114 115 117 122 129 136 142 146 147 145 140 134 129 123 119 116 112 107 101 94 88 82 79 79 82 89 100 112 126 138 147 154 
162 162 158 150 140 127 115 105 100 100 107 119 134 148 159 163 159 149 134 117 104 97 95 100 109 118 127 131 131 127 121 115 111 109 109 111 113 114 114 112 109 107 106 107 111 115 121 126 130 132 133 132 130 127 123 118 113 107 102 98 96 95 97 100 103 106 109 110 111 112 115 119 124 130 136 140 142 142 140 136 131 126 121 115 109 102 95 88 82 79 78 80 85 94 106 120 133 145 154 159 
163 161 157 148 136 121 106 95 88 87 93 106 122 139 153 160 159 151 137 121 106 97 93 95 101 108 116 120 122 121 118 115 113 113 114 117 118 118 117 114 110 107 106 106 109 113 117 122 126 130 133 135 136 136 135 132 128 121 114 107 101 98 97 98 101 105 108 110 112 113 114 116 119 123 127 132 135 138 139 138 135 132 126 119 111 103 94 87 83 80 81 86 93 103 115 128 140 150 157 161 
159 158 153 145 132 117 102 89 81 80 84 95 111 130 145 155 157 151 139 124 110 99 94 94 98 104 110 114 117 117 116 116 117 119 122 124 125 125 122 118 114 110 108 107 109 112 116 120 124 128 132 137 141 144 146 146 142 137 129 120 112 106 103 104 106 109 113 115 116 115 114 112 112 114 117 122 127 133 138 141 142 140 135 128 119 109 99 92 88 87 90 96 104 115 125 136 144 151 156 158 
151 150 147 141 130 116 102 89 80 77 80 90 104 122 138 149 153 149 140 127 115 105 100 99 101 105 110 113 116 117 118 119 122 125 129 132 133 132 129 125 119 115 112 111 112 114 117 120 124 128 133 139 145 150 154 156 154 149 142 133 125 118 114 114 116 119 122 124 123 119 114 110 106 105 107 112 119 128 137 144 148 149 146 139 130 119 109 102 98 98 101 108 117 126 134 140 144 147 149 150 
139 140 140 137 130 119 106 94 85 80 82 89 101 117 132 144 149 148 142 132 122 113 108 107 108 111 114 117 118 120 122 124 128 132 136 139 140 139 136 131 125 121 117 116 116 118 120 123 126 129 134 140 146 152 157 160 160 156 150 143 136 130 127 127 129 132 134 134 131 125 116 107 101 97 97 102 110 122 135 147 155 158 157 152 143 132 122 115 111 111 115 121 128 135 139 140 140 138 138 138 
125 129 133 135 132 125 115 103 94 88 88 93 103 117 131 142 148 149 145 138 130 123 119 117 117 118 120 122 123 124 126 129 133 138 142 144 145 144 140 135 129 125 122 121 122 123 125 128 130 133 136 141 145 150 155 157 158 156 152 147 143 139 138 140 143 146 147 145 140 130 118 106 96 90 89 93 103 117 133 148 159 166 166 162 155 145 135 128 125 125 129 134 138 141 140 136 131 126 123 122 
111 119 127 133 135 132 125 115 106 99 97 100 109 121 133 143 150 151 149 144 138 132 128 125 124 124 125 126 127 128 131 134 138 142 145 147 147 145 140 135 130 126 125 125 126 129 132 134 136 138 139 141 143 145 146 148 148 147 146 144 143 144 146 150 154 157 158 155 148 136 121 105 93 85 83 86 96 111 129 147 161 169 172 169 163 154 146 139 136 137 140 143 145 143 138 130 120 112 107 107 
101 111 122 133 139 140 135 127 118 111 108 110 117 127 138 147 153 155 153 149 143 138 133 130 128 127 127 128 129 131 134 137 141 144 147 147 146 142 137 132 127 124 124 125 129 133 138 141 143 143 143 141 138 136 134 133 132 132 133 135 138 143 149 156 162 165 166 163 154 141 124 106 91 82 79 82 91 106 125 144 159 169 172 171 165 158 151 145 144 145 147 149 149 144 135 123 110 100 95 95 
94 106 120 133 142 145 143 136 128 121 118 119 125 134 144 152 157 159 157 152 146 139 133 129 125 124 124 125 128 131 135 139 143 146 147 146 143 138 132 126 121 119 120 123 129 135 142 147 149 149 146 141 134 127 121 116 114 114 117 122 129 138 148 158 165 170 171 167 158 144 126 108 92 82 77 79 87 101 119 138 153 163 167 166 161 155 149 146 146 148 151 152 150 144 132 118 103 92 87 87 
93 105 120 134 144 148 146 140 132 126 123 125 131 140 149 156 160 161 158 152 145 136 128 122 118 117 117 120 124 129 135 140 144 146 146 143 138 132 124 118 113 112 113 118 126 135 144 150 154 153 149 141 131 119 109 101 97 97 101 108 118 131 144 156 165 170 172 168 160 146 129 111 95 84 79 80 86 98 114 130 144 153 157 155 151 146 142 141 142 146 151 153 151 143 131 116 101 90 84 85 
96 108 123 136 145 147 145 139 131 125 123 126 132 141 150 158 161 161 157 150 140 130 120 113 108 106 108 112 118 126 134 140 145 146 145 141 134 126 118 111 106 105 107 112 121 132 142 151 156 156 151 142 129 115 102 92 86 85 89 97 109 123 138 151 161 167 169 166 159 147 132 115 101 90 84 84 88 97 109 122 133 139 141 140 136 132 129 131 135 142 148 152 151 144 132 117 103 92 87 89 
105 116 128 139 145 145 140 133 125 119 118 121 129 139 149 156 160 159 154 146 134 122 111 102 97 96 99 105 113 123 132 139 144 145 143 138 131 122 114 107 102 100 102 107 116 126 138 148 154 156 152 143 130 114 100 89 82 81 84 91 102 116 131 143 153 159 161 160 155 146 134 121 109 100 94 92 94 100 107 115 121 124 124 121 118 115 115 118 126 135 144 150 151 146 136 123 110 100 96 97 
117 126 136 142 145 142 134 125 116 110 109 113 122 133 144 152 157 156 150 141 128 115 103 94 90 89 93 100 109 120 130 138 143 144 141 136 129 121 113 107 102 100 100 104 111 121 132 142 149 153 151 144 132 118 104 92 85 83 85 91 100 112 123 134 142 148 150 150 148 144 137 129 121 114 108 105 105 106 108 111 112 111 108 105 101 100 101 107 117 128 139 148 151 148 141 130 120 112 108 110 
