P2
100 100
255
130 140 148 152 151 143 130 115 103 95 93 98 108 123 138 150 156 157 151 139 123 107 93 84 79 80 84 93 105 118 129 138 143 144 141 135 128 120 113 107 103 100 99 101 106 114 124 134 143 149 150 146 136 123 110 98 90 86 86 89 96 104 113 122 129 134 138 141 143 143 142 139 135 130 126 122 118 115 111 107 102 96 90 85 81 81 84 93 106 122 138 150 156 155 149 140 130 122 120 123 
147 154 159 159 153 141 124 107 93 85 83 88 99 113 129 143 151 153 148 138 123 108 95 87 83 84 89 97 108 119 129 135 138 137 134 130 126 123 120 118 115 112 110 108 108 110 115 122 130 137 142 142 139 133 124 116 108 104 101 100 102 104 107 109 112 115 119 125 131 139 145 149 151 151 148 144 138 130 121 110 100 91 83 77 74 75 79 89 102 119 135 148 155 156 152 146 140 136 136 140 
160 165 167 165 156 141 121 102 88 79 77 82 92 107 124 138 148 152 149 140 128 115 104 97 94 95 100 107 116 123 128 131 130 128 125 123 123 125 128 130 131 130 126 120 114 109 107 109 115 122 130 137 141 142 139 135 130 125 120 115 110 106 102 99 98 99 103 110 121 134 147 157 164 167 167 163 156 145 132 117 103 90 81 76 74 75 81 91 104 120 134 145 151 153 151 147 145 144 147 153 
167 172 174 169 159 142 122 102 86 77 75 80 90 105 122 137 148 153 152 146 137 127 119 113 111 113 117 122 127 129 129 126 121 116 113 113 118 125 135 143 148 148 144 135 123 111 103 99 100 107 117 129 140 148 152 153 151 146 138 129 119 108 99 91 87 87 90 100 114 131 148 163 173 178 179 176 168 157 141 124 108 94 85 80 80 83 90 99 112 124 135 142 145 145 143 142 142 145 151 159 
169 175 176 172 161 144 124 104 88 80 78 83 93 107 124 139 150 155 156 152 146 140 134 131 131 133 136 138 139 136 130 121 111 104 100 102 110 123 139 153 162 165 161 150 134 116 101 91 89 94 104 119 136 150 161 166 166 161 153 140 125 110 97 87 81 80 84 94 110 129 149 166 177 183 185 182 174 163 147 130 114 101 93 90 92 97 104 113 123 131 136 137 136 133 130 130 132 139 148 159 
166 174 176 172 162 146 126 107 93 85 84 90 100 114 130 143 152 157 158 156 153 149 147 147 148 151 153 153 150 142 130 116 102 92 88 91 101 118 139 158 171 177 174 163 145 122 102 87 81 84 94 111 131 150 164 172 174 170 160 146 128 111 96 85 79 78 83 93 110 130 149 166 177 183 184 181 174 163 149 133 119 109 104 104 108 115 123 131 136 138 137 132 125 118 114 113 117 127 140 154 
160 169 173 170 160 145 127 111 99 93 94 100 111 124 137 147 154 157 157 156 154 153 153 156 160 163 165 164 159 148 131 113 95 83 78 81 92 111 135 159 175 183 182 172 154 129 105 87 78 78 87 105 127 148 164 174 176 171 161 145 127 110 95 86 81 82 88 98 114 131 149 162 172 177 177 174 167 157 145 133 123 117 116 120 127 136 143 148 150 146 137 125 113 103 96 96 101 112 128 145 
152 163 167 164 155 141 126 113 104 101 104 112 123 134 144 150 153 153 151 149 147 148 151 156 163 168 171 170 164 151 133 111 92 78 72 73 84 104 130 156 175 186 187 178 161 136 110 90 78 77 85 102 124 145 162 171 173 167 156 140 123 107 96 90 88 91 98 108 121 134 147 156 162 165 164 160 154 146 137 129 124 123 127 135 145 154 161 163 161 152 137 119 102 89 82 81 87 99 116 135 
144 155 159 156 147 135 122 113 108 109 115 124 134 143 148 150 148 144 139 135 133 135 141 149 158 166 171 172 166 153 135 113 92 77 70 70 80 98 124 151 172 184 187 181 166 143 117 96 83 81 88 103 123 143 158 166 165 158 146 131 116 105 98 97 100 105 113 122 131 138 144 147 149 148 146 142 137 132 127 123 123 128 136 147 158 167 173 174 168 156 137 114 94 80 72 72 78 90 107 127 
139 148 151 146 137 126 116 111 110 115 124 134 143 148 149 145 138 130 122 116 115 118 125 136 148 159 166 169 165 155 138 117 97 81 73 72 79 96 119 145 167 180 184 180 168 148 125 105 92 89 95 108 126 143 154 159 156 147 134 120 109 103 102 107 114 123 131 138 142 142 141 137 133 129 125 122 119 117 116 117 122 130 141 154 166 175 180 180 173 158 136 111 90 75 68 67 74 86 103 122 
137 144 143 137 127 116 109 107 111 120 131 142 149 151 147 138 126 113 103 97 95 99 107 120 134 148 158 164 163 155 142 124 106 90 81 79 84 97 117 140 160 173 179 177 167 151 132 115 103 100 105 117 131 143 150 151 144 133 120 109 102 102 107 118 130 141 149 153 152 146 138 128 119 112 108 106 105 106 109 113 120 130 143 156 169 178 183 182 174 158 135 110 88 73 67 68 75 88 105 123 
139 142 138 129 118 108 103 105 112 124 137 147 152 151 142 129 113 98 87 81 80 84 93 106 121 137 149 157 159 155 146 133 118 105 96 92 94 103 117 135 152 164 170 170 163 152 138 124 116 114 118 127 137 144 147 143 133 120 108 99 96 101 112 128 144 157 164 166 160 150 136 121 109 100 96 96 98 101 106 111 119 129 141 154 167 176 181 180 172 157 134 110 89 75 70 72 81 95 112 128 
144 143 136 124 112 103 100 104 114 128 142 152 155 150 137 120 102 87 76 71 71 76 85 97 112 127 140 149 153 153 149 142 133 123 115 110 109 112 120 131 143 152 158 159 156 149 140 132 127 126 130 136 142 145 143 135 123 110 98 92 92 100 116 135 154 168 174 174 166 153 135 118 104 95 92 94 97 102 107 112 118 126 137 148 160 169 175 175 168 154 133 111 92 80 77 80 91 106 122 136 
150 146 135 121 108 100 98 105 117 133 147 156 156 149 133 114 95 80 71 68 69 75 84 96 109 122 133 141 147 150 151 149 146 141 136 131 127 124 125 128 133 138 142 145 145 143 140 137 135 136 139 142 145 144 139 129 116 102 92 87 90 100 118 139 159 173 179 178 169 154 136 118 105 98 96 99 104 109 113 116 119 123 130 139 149 158 165 166 161 149 132 112 96 87 85 91 103 119 135 146 
155 148 135 120 106 99 99 108 122 138 152 160 158 148 131 110 92 78 71 70 74 81 90 101 111 120 127 133 138 143 149 153 156 157 154 150 143 136 129 124 122 123 125 128 132 134 136 138 139 141 143 145 145 142 135 124 111 98 89 86 89 100 118 139 158 172 178 176 168 154 137 121 110 105 105 110 115 119 121 120 118 118 120 126 135 144 152 155 153 144 130 114 101 94 95 103 116 132 146 154 
157 148 134 118 105 99 101 111 127 144 157 163 160 149 131 111 93 81 77 78 84 94 103 112 118 121 123 124 128 134 142 152 161 166 167 164 156 144 131 119 111 107 108 111 117 124 130 135 139 142 144 144 142 138 131 121 110 99 91 88 91 101 116 135 153 165 171 170 163 151 138 125 118 116 118 123 128 130 128 123 117 112 110 113 119 128 137 143 143 138 128 116 106 102 104 113 127 141 153 159 
157 146 131 116 104 99 103 114 130 147 160 165 162 150 133 114 98 89 88 92 101 112 121 126 127 124 119 115 115 121 132 146 160 170 174 172 163 148 130 113 100 93 92 97 105 114 124 132 137 140 141 140 137 133 128 120 112 104 98 95 96 103 114 128 142 152 158 158 153 145 136 129 126 127 132 137 140 140 134 125 114 105 100 100 105 114 124 132 135 133 126 118 111 109 112 122 134 147 157 160 
153 142 127 112 101 98 103 114 131 147 160 165 162 151 136 119 107 101 102 110 121 132 139 141 135 125 114 105 102 107 119 137 155 169 176 175 165 148 126 105 90 82 81 86 95 108 120 129 135 137 136 133 130 127 125 122 118 114 110 107 106 108 113 120 128 135 139 140 138 135 132 131 132 137 143 148 149 146 137 124 110 99 92 91 95 104 114 124 130 131 127 122 117 116 119 127 139 149 156 158 
148 136 121 107 98 95 100 112 128 144 155 161 159 150 138 125 116 114 119 129 141 151 155 151 140 124 107 95 89 93 106 125 147 164 174 173 163 143 120 97 81 74 73 80 91 105 119 129 134 134 130 126 123 122 123 125 127 128 126 123 119 115 113 113 114 116 119 120 122 123 126 131 137 144 151 154 154 147 136 121 106 94 87 85 90 99 110 121 129 132 131 127 123 122 125 132 141 149 154 154 
143 131 117 104 95 92 96 106 121 135 147 153 152 147 138 130 125 127 134 145 156 164 164 157 141 120 100 85 79 82 94 115 138 158 169 169 158 137 113 90 75 69 70 79 92 108 123 132 135 132 125 119 115 116 121 129 137 143 144 141 135 126 116 108 102 99 100 102 106 112 120 130 140 149 155 157 154 145 132 116 101 90 84 84 89 99 112 124 133 137 137 134 131 130 131 136 143 149 152 150 
142 130 116 102 93 89 92 100 111 124 135 141 143 140 136 132 132 137 146 157 166 171 168 157 138 115 93 78 71 74 87 107 131 152 164 163 152 131 106 85 72 68 72 83 99 117 132 140 140 132 122 113 108 110 119 133 146 157 161 159 151 137 121 106 94 87 85 88 94 104 116 130 142 152 157 157 152 141 126 110 97 87 83 85 93 104 118 131 140 145 145 143 139 137 138 141 146 150 152 149 
144 133 119 105 95 89 89 93 102 112 121 128 132 133 132 133 137 144 153 163 171 173 168 154 133 109 87 73 68 71 84 104 128 148 159 159 146 125 102 83 73 71 78 92 112 131 145 150 146 135 120 107 101 104 115 133 152 167 174 174 165 149 128 107 90 80 76 79 87 100 115 131 145 154 158 155 147 135 120 105 94 87 85 90 99 112 127 140 149 153 153 151 147 144 144 146 149 152 154 151 
150 140 127 113 101 92 89 90 94 102 109 116 121 125 128 133 139 147 157 165 171 171 164 149 127 104 84 72 68 73 86 106 129 148 157 155 143 122 101 85 77 78 89 107 128 148 160 162 154 138 119 102 94 96 109 130 153 172 182 183 175 159 135 110 89 77 73 76 85 100 118 135 148 156 157 152 142 129 114 101 92 88 89 96 107 121 136 148 156 159 159 155 151 148 147 149 152 155 157 156 
157 150 138 124 111 100 93 90 91 96 101 108 114 120 126 132 140 149 157 164 167 166 158 143 123 102 86 76 74 80 94 114 134 150 158 154 141 122 103 89 85 90 104 125 147 164 174 173 162 142 118 98 87 88 101 124 150 172 185 188 182 165 141 114 91 78 73 77 88 104 123 140 152 158 156 149 137 122 109 98 92 90 94 103 115 129 143 153 159 161 159 154 150 146 145 147 152 157 160 161 
164 159 150 138 124 111 101 95 93 95 100 105 112 119 126 133 141 148 155 160 162 159 150 137 120 103 91 85 86 94 108 126 143 156 160 155 141 124 107 96 95 104 121 143 164 179 185 182 168 145 118 94 81 80 92 114 142 167 183 189 184 169 146 118 95 81 76 81 93 111 130 146 156 158 154 144 131 117 105 97 93 94 100 110 122 135 146 154 157 156 152 146 141 137 137 140 146 154 160 164 
168 166 160 150 137 124 112 104 100 101 104 109 116 123 129 136 142 147 151 153 153 149 142 131 119 108 100 98 102 112 125 140 154 161 162 155 142 125 111 103 105 117 137 158 177 189 192 187 172 147 117 91 76 73 83 104 132 159 178 186 183 170 148 122 99 85 82 87 101 119 137 151 158 157 150 139 125 112 103 97 96 100 107 117 128 138 146 149 149 145 138 131 124 121 121 126 135 145 156 164 
166 169 166 159 148 135 124 115 111 111 113 118 125 131 136 140 143 145 145 144 142 138 132 125 119 114 112 115 121 131 143 154 163 166 163 154 140 125 113 108 113 127 147 167 184 194 196 190 174 148 117 90 73 68 75 94 121 149 170 180 179 168 148 124 103 91 88 95 108 126 142 153 156 153 144 132 120 109 103 101 103 108 116 125 133 140 143 142 137 129 119 110 104 100 101 107 118 131 146 158 
159 166 166 162 153 143 133 126 122 123 126 131 137 141 144 144 143 141 137 133 129 125 121 118 117 119 123 130 140 149 158 165 169 168 161 150 135 121 111 109 115 129 149 169 185 194 196 190 174 149 118 90 72 66 71 86 111 138 160 172 173 164 146 125 107 96 95 102 115 130 143 151 152 146 136 125 115 108 106 107 112 119 127 134 139 141 139 133 123 112 100 91 84 81 82 88 99 114 131 147 
148 157 160 158 152 144 137 133 132 134 139 144 149 152 152 149 143 135 127 120 114 110 109 110 115 122 132 143 153 162 169 172 171 166 156 142 127 113 105 104 110 125 144 163 179 188 191 186 172 148 119 92 74 67 70 82 104 129 150 163 165 158 143 125 109 101 100 107 119 132 142 146 144 137 127 118 112 110 112 118 125 133 140 144 146 143 137 126 113 99 86 76 69 66 67 72 82 97 115 133 
134 145 149 148 144 139 135 134 137 142 149 155 159 160 158 151 141 129 117 107 100 97 97 101 110 122 136 150 162 170 174 174 169 160 147 131 116 103 96 95 101 114 131 150 166 177 181 178 167 147 121 97 79 71 73 83 101 123 142 154 157 151 138 123 111 104 105 111 121 131 137 138 134 127 119 114 112 115 122 131 140 148 153 155 154 148 138 124 108 92 78 68 61 58 58 62 71 84 101 119 
123 132 136 135 132 128 127 130 136 144 153 161 165 165 161 151 138 122 108 96 88 85 87 93 104 120 137 152 165 172 174 172 164 152 136 119 104 92 86 84 89 99 113 130 147 159 167 167 160 145 124 104 89 81 81 89 103 121 137 148 150 145 134 122 112 107 108 114 121 128 131 129 124 118 113 112 115 123 134 145 155 162 165 165 161 153 142 127 110 94 79 68 61 57 57 60 67 78 93 109 
116 123 124 121 118 115 115 120 129 141 153 162 166 166 160 149 134 116 100 88 80 78 80 87 100 117 135 152 164 171 171 167 156 142 124 107 93 83 77 75 78 85 96 110 125 138 148 153 151 142 128 113 101 94 94 100 111 124 137 144 145 140 130 120 113 110 111 115 121 124 125 122 117 113 111 114 122 133 146 158 167 172 173 172 167 159 148 134 119 103 89 78 70 65 63 65 71 81 93 106 
118 119 116 111 105 102 103 109 120 133 147 157 162 162 156 145 129 112 96 84 77 75 78 85 98 115 133 149 161 167 166 160 148 131 114 98 85 76 71 70 71 75 82 93 105 118 129 137 141 139 132 124 116 111 111 115 123 132 139 143 142 136 128 119 113 111 113 116 120 122 121 118 113 111 113 119 130 144 157 168 174 177 176 173 168 161 153 143 132 120 108 97 88 82 80 81 86 93 103 112 
126 122 115 107 99 94 94 100 110 123 137 148 154 155 150 139 125 110 96 86 80 78 81 88 100 116 133 147 157 161 159 151 138 122 106 91 81 74 70 69 69 71 76 82 92 102 114 124 132 136 136 134 131 129 129 132 136 141 144 144 141 134 126 118 113 112 114 117 120 121 120 116 114 113 118 126 139 152 164 172 175 175 172 167 162 158 154 150 146 140 132 124 116 110 106 106 109 114 120 125 
138 131 120 108 98 91 90 93 101 113 125 135 142 143 140 133 122 111 101 93 89 88 91 97 108 121 134 146 153 155 151 142 129 114 100 89 81 76 74 73 74 75 77 81 87 95 105 115 124 132 138 141 142 143 145 146 149 150 149 146 140 132 124 117 113 113 115 118 121 122 121 118 117 119 124 134 145 157 165 169 169 165 158 152 148 147 149 153 156 157 156 152 147 142 138 136 137 139 141 142 
151 142 130 116 104 95 91 91 96 104 113 122 128 130 130 127 122 116 110 106 104 104 107 112 120 129 138 145 149 148 143 133 121 108 97 89 84 83 83 84 86 87 88 89 91 96 102 110 119 128 137 143 149 152 155 157 157 156 153 148 140 131 122 116 113 113 116 119 122 124 123 122 122 125 130 139 148 156 160 159 154 145 136 129 126 129 137 149 160 169 173 174 172 168 165 162 161 160 159 157 
160 152 140 127 114 104 98 95 96 99 104 109 114 118 120 122 123 123 123 123 124 125 127 130 134 138 142 145 145 141 134 124 114 104 96 92 92 94 98 102 105 107 107 105 104 104 105 109 116 124 133 141 149 155 159 161 161 159 154 147 138 129 120 114 112 113 116 121 124 126 127 126 127 129 134 140 146 149 148 142 132 120 109 102 101 107 121 139 157 173 182 186 186 184 181 177 174 172 170 166 
163 157 149 139 128 118 109 103 100 98 99 100 103 107 113 119 125 132 137 142 144 146 146 147 147 146 145 143 139 133 125 116 107 100 96 97 101 109 117 125 130 133 132 128 122 116 112 111 113 118 126 135 144 151 157 160 160 157 152 145 135 126 118 114 112 114 118 123 127 129 130 130 130 131 134 137 139 138 132 122 109 96 85 79 79 87 103 126 150 170 183 190 191 189 184 180 175 172 169 167 
158 157 154 148 141 133 124 116 108 101 97 95 96 100 107 117 129 141 150 157 161 162 161 159 155 151 146 140 133 125 116 108 101 98 98 103 112 124 137 148 155 158 156 150 141 130 120 113 110 112 118 126 135 143 149 153 154 152 147 140 131 123 117 114 114 116 121 126 129 131 132 131 130 130 130 131 129 124 115 103 89 77 67 63 64 72 89 113 140 163 178 186 187 183 177 170 164 160 158 158 
146 151 154 155 153 148 140 129 118 107 99 93 93 96 105 118 133 147 159 167 171 172 169 165 158 151 143 135 126 117 109 102 98 97 101 109 122 138 153 165 173 176 174 167 155 141 126 114 107 106 109 116 124 132 139 143 144 142 138 132 126 121 117 116 117 121 126 130 133 133 132 130 127 125 124 122 119 112 102 90 77 66 59 55 57 65 80 104 130 153 169 175 174 168 159 150 143 138 138 141 
129 141 151 158 161 159 153 142 129 115 103 95 92 96 105 119 136 152 164 172 175 174 170 163 155 146 137 128 120 112 105 100 97 98 104 115 131 148 164 176 184 186 184 176 163 147 129 115 105 101 102 108 115 122 127 131 132 130 127 124 120 118 118 120 124 129 133 136 137 135 131 127 122 119 117 114 110 104 95 84 74 64 58 55 57 65 79 100 123 144 157 160 156 147 135 123 115 112 113 120 
113 130 146 158 165 167 162 153 139 123 109 99 95 98 107 121 138 153 164 171 172 169 164 156 147 138 130 123 116 110 105 102 101 103 110 122 137 154 169 180 187 189 186 177 164 147 129 114 104 100 100 104 109 114 118 119 119 117 115 114 114 117 121 127 133 139 143 144 142 137 130 123 117 112 110 108 106 102 96 87 79 71 66 64 66 73 85 103 121 137 144 144 136 123 109 97 90 88 91 100 
101 121 140 156 166 170 168 160 147 131 116 105 100 102 110 123 138 151 160 164 163 159 152 143 135 128 123 119 116 113 111 109 109 111 118 128 142 157 170 179 184 184 180 171 158 142 126 113 105 103 104 107 111 113 112 110 107 105 104 105 109 116 125 135 144 150 153 152 147 139 129 119 111 106 105 105 106 106 104 99 93 87 83 81 83 89 99 112 125 133 135 129 117 103 89 79 73 72 76 86 
96 115 136 153 165 171 170 163 151 137 122 111 105 106 113 124 135 146 152 153 150 144 136 128 122 119 118 119 120 121 121 121 121 123 127 135 145 156 166 172 175 174 168 158 146 132 121 113 110 111 114 118 119 117 112 106 99 95 93 96 104 115 129 143 154 161 163 160 152 141 127 115 107 102 103 106 111 116 118 118 115 111 108 106 108 112 119 126 132 134 130 119 105 90 78 69 65 65 70 80 
96 114 133 150 162 168 168 163 153 140 127 116 111 111 115 123 131 137 140 138 133 126 119 114 112 113 117 122 128 132 135 135 135 135 137 141 147 153 159 162 161 157 150 140 130 121 116 115 119 125 130 134 133 127 117 105 94 87 85 89 99 114 132 150 162 170 171 166 156 141 126 112 103 101 103 110 120 129 136 139 140 138 136 134 134 136 139 141 141 137 128 115 100 86 75 69 66 67 72 82 
101 116 132 146 156 162 163 159 151 140 129 120 115 114 116 121 125 128 127 123 117 111 106 103 105 111 120 130 138 145 148 149 148 146 145 145 146 148 149 148 144 137 128 120 113 110 111 119 129 141 149 153 150 140 125 108 92 82 79 83 95 113 135 154 168 176 176 169 157 141 124 110 102 101 106 117 129 142 151 157 160 160 158 157 156 155 154 152 148 140 128 114 100 88 80 75 74 76 81 89 
110 120 130 140 148 152 154 151 146 138 130 122 117 115 116 117 118 118 115 110 104 99 97 98 104 114 126 139 149 156 159 158 156 152 148 145 143 141 138 133 125 117 108 101 98 100 109 123 140 156 167 171 167 154 135 112 92 79 75 79 92 112 135 157 171 178 177 170 157 139 122 109 102 103 111 123 138 151 162 168 171 171 170 168 166 164 161 156 150 140 128 115 104 95 90 88 88 91 95 102 
119 123 128 132 137 140 142 141 138 134 128 123 118 115 114 113 112 109 105 101 96 94 94 99 108 121 134 147 157 163 164 162 157 152 146 141 137 133 127 120 111 101 92 87 87 93 107 127 150 168 180 184 179 166 144 118 94 79 73 77 89 110 134 156 171 177 176 167 153 136 120 109 104 107 116 130 144 157 166 171 173 172 170 168 165 163 159 154 146 137 127 118 110 105 103 104 107 110 113 116 
127 125 123 123 124 126 128 129 130 128 125 122 118 115 112 110 107 103 100 96 94 94 97 105 116 129 143 154 161 164 163 158 152 145 138 133 129 125 119 111 101 91 83 79 80 89 106 130 155 176 188 192 187 173 150 122 97 80 73 76 89 109 133 154 168 173 170 161 147 131 117 109 107 112 122 135 148 157 163 165 165 163 160 157 155 152 149 145 140 133 126 120 117 116 119 123 127 129 131 130 
132 124 117 112 111 112 115 119 122 123 123 122 119 116 112 108 105 101 98 96 96 99 105 114 126 139 150 158 161 160 155 147 139 131 125 122 120 118 114 108 99 89 80 76 77 86 104 129 156 178 190 195 190 176 153 125 99 82 75 79 91 110 132 151 162 166 162 152 138 125 115 110 112 119 129 140 148 154 155 153 150 145 142 139 138 137 136 135 132 128 125 123 124 127 133 139 144 146 144 140 
134 121 110 103 99 100 104 110 116 121 123 123 121 118 114 110 106 103 101 101 103 107 115 125 136 147 154 158 157 151 142 131 121 114 110 110 112 114 114 110 103 93 84 78 78 85 102 126 152 174 187 192 187 174 152 126 102 86 81 85 97 114 133 148 155 156 150 140 129 119 113 113 118 126 135 143 147 147 144 137 130 124 120 119 120 122 124 125 126 125 125 126 130 136 144 151 156 157 153 145 
132 117 104 95 91 93 98 106 115 122 126 127 126 123 119 114 111 109 108 109 112 118 126 135 144 152 156 155 149 139 126 113 103 97 96 100 106 114 118 118 113 103 92 84 81 85 98 119 143 164 178 183 179 167 147 124 104 92 89 94 106 121 135 145 148 145 137 128 119 114 113 117 125 134 142 146 145 140 131 121 112 105 102 102 106 111 117 121 124 126 128 131 136 143 151 158 162 162 157 147 
130 113 99 90 87 90 97 107 117 126 132 134 133 130 126 122 119 117 117 118 122 128 135 143 150 154 155 150 141 127 112 98 88 84 86 93 104 117 127 131 128 118 105 93 86 86 95 111 131 149 162 168 164 154 138 120 107 100 100 108 119 131 140 144 141 134 125 116 110 110 114 123 133 142 148 148 143 133 121 108 98 92 90 93 99 108 116 123 127 130 133 136 141 148 155 161 165 164 157 146 
127 111 97 89 88 92 101 112 124 134 140 143 142 139 135 131 128 127 126 128 131 135 141 146 151 153 151 145 133 117 101 87 79 76 80 91 106 124 138 145 144 135 121 106 94 89 92 102 117 132 143 147 145 137 126 115 108 108 113 123 134 142 146 144 136 125 114 107 104 108 117 129 141 149 153 150 142 128 114 100 90 86 87 92 101 111 121 129 134 136 138 140 144 150 156 162 165 163 156 144 
126 110 98 92 91 97 108 121 134 144 150 152 151 147 143 140 137 135 134 135 136 139 142 146 149 150 147 140 128 112 96 83 76 74 80 93 111 132 149 159 159 151 136 119 103 93 91 96 105 115 123 126 125 119 113 109 109 116 126 138 148 153 152 144 131 117 106 100 100 108 120 134 147 155 157 151 140 125 110 97 89 87 90 97 108 119 129 136 140 141 141 142 145 150 155 161 163 161 154 142 
126 112 101 96 98 105 117 131 144 153 158 159 157 153 149 145 142 140 138 137 137 138 140 143 145 146 144 137 126 112 98 85 78 77 84 98 118 140 159 169 171 163 149 130 112 99 93 94 98 104 108 109 107 104 102 103 110 122 137 151 160 162 156 144 127 111 100 95 98 109 124 139 152 159 158 151 139 124 109 98 92 92 97 106 117 128 137 142 143 142 140 140 142 146 152 158 160 159 152 141 
126 113 104 101 104 113 127 141 153 160 164 163 160 155 150 146 142 139 137 135 134 134 134 136 139 141 141 137 129 117 104 93 85 84 90 104 124 146 164 175 176 170 157 139 121 107 99 96 98 100 101 100 97 94 94 100 111 127 144 159 167 166 158 142 123 106 95 92 97 110 126 142 154 159 158 150 137 123 110 101 98 100 106 115 125 134 139 141 140 137 134 133 135 141 147 154 157 156 150 139 
124 113 105 104 109 119 133 147 158 165 166 164 159 153 146 141 137 134 132 129 127 126 127 129 133 137 140 140 135 126 115 104 96 93 98 110 129 148 165 175 177 171 160 144 128 115 107 104 104 104 103 99 94 91 91 98 111 129 148 162 169 166 155 137 117 100 91 90 97 111 127 143 154 157 154 146 134 121 111 106 105 108 114 122 129 134 135 134 130 125 122 122 126 133 142 150 154 154 148 137 
121 110 103 103 110 121 136 150 160 165 165 161 154 145 138 132 127 124 122 120 119 118 120 123 129 136 141 144 143 137 127 116 107 103 105 115 130 147 161 170 172 167 157 145 132 123 118 117 117 116 112 106 99 93 93 99 112 130 148 161 166 162 150 131 111 95 87 88 96 111 127 141 150 152 148 140 129 120 113 110 111 115 120 125 128 128 126 121 115 110 108 110 117 126 137 147 152 151 145 134 
115 104 98 99 106 119 134 149 159 163 161 155 145 135 126 119 115 112 111 110 110 112 115 120 128 136 144 149 150 146 138 127 116 110 110 116 127 141 153 160 162 158 151 141 134 129 129 131 133 132 127 119 109 101 98 102 113 129 145 157 161 155 141 123 104 90 85 87 96 110 126 138 145 145 140 132 124 117 114 114 117 121 124 125 123 119 113 106 100 96 96 101 110 123 136 146 151 149 141 129 
108 96 91 92 99 113 129 144 154 158 155 147 136 124 113 106 102 101 101 102 104 108 113 121 130 140 148 154 156 152 144 133 122 113 110 113 121 132 141 147 149 146 141 136 133 133 138 144 148 149 144 135 123 112 105 106 115 128 142 151 153 147 133 115 99 88 84 88 97 111 124 134 138 136 131 124 118 115 115 118 122 125 125 123 117 109 101 93 88 86 89 97 109 124 138 148 152 148 138 123 
100 88 82 83 91 104 121 137 148 152 149 140 127 114 103 95 92 91 93 97 102 108 116 125 135 144 153 158 159 155 146 134 122 113 108 109 114 122 129 134 136 134 131 129 130 135 144 153 160 162 158 148 135 122 114 112 117 128 139 146 147 140 127 111 97 88 86 91 101 113 123 129 130 127 121 116 112 113 116 121 126 128 127 122 113 103 93 86 82 83 89 100 115 132 146 154 155 149 135 117 
93 80 75 75 83 96 113 130 143 148 145 136 122 108 96 89 85 86 89 95 103 112 121 132 141 150 156 159 158 152 142 130 118 109 103 103 107 114 120 124 125 124 122 123 127 135 146 158 166 169 166 157 144 130 121 117 121 129 138 143 143 136 124 111 99 93 93 99 108 117 124 127 124 119 113 109 108 111 117 125 130 132 130 122 112 101 92 86 84 88 97 111 128 144 156 162 160 150 132 112 
88 75 69 70 78 91 109 126 140 146 144 135 122 107 95 87 83 85 89 97 107 118 130 140 149 155 158 158 154 146 135 122 111 103 99 100 104 110 115 119 120 119 118 119 124 134 146 157 166 169 166 158 146 134 125 122 124 131 139 144 143 137 127 116 108 104 106 111 119 125 128 127 121 113 107 103 105 111 120 129 136 138 135 127 116 105 97 93 94 101 113 128 144 159 168 170 165 151 131 108 
86 73 67 68 76 90 108 126 141 148 147 139 126 111 98 89 86 87 93 102 114 127 139 148 155 159 158 154 147 136 124 113 104 98 97 99 105 111 117 121 121 120 118 119 123 131 142 152 160 162 160 152 142 132 125 124 128 135 143 147 148 143 135 127 122 120 123 128 133 136 135 129 120 110 103 101 104 112 123 134 141 144 141 133 124 114 108 107 110 119 132 147 161 172 177 177 168 152 130 106 
86 74 69 71 79 93 112 130 145 152 152 145 132 118 105 96 92 93 99 109 122 135 147 155 160 160 156 148 137 125 113 104 97 95 97 103 110 118 125 128 128 126 123 122 124 129 136 144 149 150 146 140 131 124 121 123 130 139 147 153 154 151 146 141 137 138 141 145 148 148 143 133 121 109 102 100 105 115 128 139 147 150 147 141 133 126 122 123 129 138 151 163 174 181 183 179 169 151 128 105 
88 78 75 79 88 102 120 137 151 158 158 152 141 127 114 105 100 101 107 117 130 143 153 160 161 158 151 140 127 114 104 97 94 96 101 110 120 129 136 139 138 135 131 127 126 127 130 133 135 133 129 123 117 113 114 120 130 142 152 158 160 159 156 153 152 153 157 160 161 158 150 138 124 111 103 103 109 120 133 144 152 154 152 147 141 136 135 137 144 153 163 173 179 183 182 177 165 147 126 105 
94 88 87 92 102 116 132 146 157 163 162 157 147 135 123 114 110 110 116 126 138 149 157 161 160 154 144 131 117 105 96 92 93 99 109 120 132 142 148 150 148 144 138 133 129 126 125 123 120 116 111 105 102 102 107 116 130 143 155 162 164 164 161 160 160 163 167 170 170 165 156 142 127 114 107 107 114 125 138 148 155 157 154 150 145 142 142 145 152 160 167 174 177 178 175 167 156 140 122 106 
102 100 103 110 120 132 144 155 162 165 164 159 151 141 131 123 119 119 124 133 144 153 159 161 157 149 136 121 107 97 91 91 96 105 118 132 144 153 158 159 156 151 144 137 131 126 121 115 109 103 96 91 90 92 99 112 128 143 155 162 164 163 161 160 162 165 169 172 172 167 158 144 130 118 112 113 120 131 143 151 156 156 152 147 142 140 140 144 150 156 162 165 166 164 159 152 141 130 118 108 
112 116 122 130 139 148 155 161 164 165 163 158 151 143 135 129 126 127 132 139 148 155 159 158 153 142 127 112 100 91 88 91 100 112 127 142 154 161 164 163 159 153 146 139 132 125 119 111 103 95 87 83 82 86 95 108 125 140 151 157 158 156 153 152 154 158 163 167 167 163 155 143 131 122 118 120 128 138 147 153 154 151 146 139 134 131 132 135 139 144 147 148 146 143 137 131 124 117 113 111 
121 130 139 147 154 159 162 163 162 160 157 153 147 142 136 132 130 132 136 143 150 156 158 155 147 135 119 105 93 87 87 93 104 119 135 150 160 165 166 163 157 150 143 137 131 125 119 111 102 93 85 80 79 83 93 106 122 136 145 149 147 143 138 136 138 142 148 153 156 154 148 139 131 125 124 128 135 143 150 152 150 144 135 127 120 117 117 119 123 126 127 126 123 118 114 109 107 106 109 114 
129 141 151 159 163 164 163 160 157 152 148 144 140 137 134 132 132 134 139 145 151 155 156 152 142 129 113 99 89 85 86 94 107 123 140 154 162 165 163 158 151 143 137 132 128 125 120 113 105 96 88 83 82 85 94 107 120 132 138 138 133 126 119 115 116 121 127 134 138 139 137 132 128 126 128 134 141 148 151 150 144 134 123 113 105 102 101 103 106 107 107 105 102 98 95 93 94 99 106 117 
134 147 157 163 165 163 159 153 147 142 137 134 131 130 129 128 130 133 138 144 150 153 153 149 139 125 109 96 86 83 85 94 108 125 142 154 161 162 158 151 142 133 128 125 124 124 122 118 112 104 96 91 89 92 99 110 120 128 131 127 119 109 100 95 95 99 105 112 118 122 123 123 124 126 132 139 145 150 151 146 136 124 111 100 92 89 89 91 93 94 94 92 89 86 85 85 89 96 107 120 
136 147 155 159 159 155 149 143 136 130 126 124 122 122 122 123 125 129 134 140 146 150 151 147 137 124 109 95 86 82 85 93 107 124 140 152 158 158 152 142 132 123 118 117 119 122 125 124 121 115 108 102 100 102 107 115 123 127 126 119 108 96 87 81 80 82 87 94 101 106 111 115 120 126 134 142 148 151 148 140 128 114 100 90 84 81 82 85 88 90 91 90 88 86 85 87 91 99 110 123 
134 142 146 148 146 142 137 130 125 120 118 116 115 115 115 116 118 121 127 133 141 146 149 146 139 126 112 98 88 83 84 91 104 120 136 148 154 153 146 135 124 115 110 110 114 121 127 130 130 126 121 116 113 114 117 123 128 130 126 117 104 92 81 75 72 73 77 83 89 95 102 108 116 125 135 143 148 149 145 134 121 106 93 85 80 80 83 87 92 96 98 98 98 96 96 98 101 107 116 125 
130 132 133 132 130 127 123 119 117 115 113 112 111 110 109 108 109 111 116 124 133 141 147 147 143 132 119 104 92 85 84 89 100 115 130 143 150 149 143 132 120 110 105 105 111 119 128 135 138 137 133 129 126 126 128 132 135 135 130 121 108 95 84 77 73 73 75 79 84 90 97 105 115 125 135 143 148 147 140 129 115 101 90 84 83 85 91 98 105 111 115 116 117 116 116 116 117 119 123 126 
123 120 118 115 114 113 112 112 113 114 114 114 112 108 105 101 100 101 105 113 123 135 145 150 149 142 130 115 101 91 87 88 97 110 125 138 146 148 143 133 121 111 104 104 109 118 129 138 143 144 143 139 136 135 136 139 141 141 137 130 119 107 97 89 84 82 82 84 87 91 98 106 115 126 136 143 146 143 136 124 111 99 91 89 91 97 106 116 125 132 137 139 140 139 138 136 134 132 129 126 
116 109 104 101 101 103 106 111 115 119 120 119 116 110 103 96 92 90 94 101 114 128 143 153 156 153 143 129 113 100 91 89 94 105 119 134 144 148 146 137 126 115 108 106 110 119 129 139 146 149 148 145 142 141 141 143 146 147 146 141 134 125 116 109 103 99 96 95 95 98 102 109 118 128 137 143 144 140 132 120 109 100 96 97 103 113 125 136 146 154 158 160 161 160 158 154 149 142 134 125 
110 100 94 92 94 99 106 114 122 128 131 129 123 114 103 93 86 82 84 91 105 122 141 156 164 165 158 145 128 112 99 93 94 102 115 130 143 150 150 144 134 123 115 111 113 120 130 140 147 150 150 147 144 142 141 143 146 150 152 152 149 145 139 133 127 121 116 111 108 108 110 115 123 131 139 143 143 138 130 119 109 104 103 108 118 130 144 155 164 170 173 174 174 172 169 165 157 147 135 122 
106 96 90 89 93 101 111 123 133 140 143 140 133 121 107 94 83 78 78 84 97 117 139 158 170 175 171 160 144 125 109 98 95 100 112 127 142 151 154 150 142 131 122 117 117 123 131 140 146 149 149 146 141 138 136 138 142 148 153 158 160 161 159 156 151 144 137 129 123 119 118 122 128 135 142 145 144 138 129 119 112 109 111 119 132 145 158 168 175 178 179 179 177 175 172 167 159 148 134 120 
106 97 92 93 98 108 120 133 144 152 154 152 144 131 115 99 85 77 75 80 92 112 136 158 174 182 181 173 158 138 119 104 98 100 109 124 139 150 155 154 147 138 129 123 122 126 132 140 145 148 146 142 136 131 128 129 133 141 149 158 165 169 172 171 167 161 153 143 135 128 126 128 133 139 145 147 145 139 130 122 116 114 119 129 142 155 166 173 177 177 176 174 171 168 165 161 154 144 131 118 
109 103 100 102 108 118 130 143 153 160 163 161 154 141 125 108 92 81 76 79 90 109 133 157 175 185 187 181 168 149 128 111 101 100 107 120 135 147 153 154 149 141 133 127 125 128 134 140 144 145 143 137 129 122 118 117 121 129 139 151 161 169 175 176 175 169 161 151 141 134 131 132 137 143 148 150 148 142 133 125 119 119 124 134 146 158 166 170 170 168 163 159 155 152 150 148 144 137 128 118 
117 113 113 115 121 129 139 149 157 164 167 166 161 152 137 120 104 90 82 81 89 105 128 152 172 184 188 185 173 156 135 116 103 100 104 115 128 140 148 149 146 140 133 128 127 129 135 140 144 144 139 132 123 114 108 105 108 114 125 137 150 161 169 173 172 168 161 152 142 135 132 134 139 145 150 153 151 145 136 128 123 122 126 135 145 153 158 159 155 150 143 137 132 131 131 132 132 131 127 122 
128 127 127 129 132 137 143 149 155 161 165 167 166 160 150 135 119 103 92 87 90 102 122 145 165 179 185 183 174 158 138 119 105 99 102 110 121 132 139 141 139 134 129 125 126 129 134 139 142 142 137 129 118 108 100 96 96 101 109 121 133 145 154 160 162 159 153 145 137 132 130 133 139 146 152 155 153 147 139 131 125 123 125 131 137 142 143 141 134 126 118 112 108 109 112 117 123 127 129 129 
141 142 142 142 141 141 141 143 146 151 157 162 165 165 160 150 135 118 103 94 92 99 114 133 153 168 176 176 169 155 137 119 106 99 100 106 114 123 129 131 129 125 122 120 122 126 132 137 141 140 136 127 117 107 98 92 90 91 96 105 115 125 135 141 144 144 140 134 129 125 126 130 137 145 152 155 154 149 141 133 126 122 122 124 126 127 125 119 111 103 95 90 89 92 98 107 118 127 135 139 
154 155 154 150 145 140 134 131 131 135 142 151 160 166 166 161 149 133 116 101 94 95 105 120 137 153 162 165 160 149 133 117 105 99 99 103 109 116 120 121 119 116 114 114 117 122 128 134 138 138 135 128 119 109 101 94 89 88 89 93 99 107 114 120 124 126 124 122 119 118 121 126 134 143 150 154 153 149 143 135 127 122 119 117 115 112 107 100 92 85 79 76 77 82 92 105 119 132 143 150 
164 164 161 155 145 134 123 115 112 115 123 135 149 161 168 167 159 144 126 109 96 92 96 106 121 135 145 149 147 139 127 115 105 101 100 103 108 112 114 113 111 108 107 108 111 116 123 129 134 136 134 130 124 116 109 102 96 92 89 89 90 94 98 103 107 110 111 111 111 112 116 122 129 138 145 149 150 148 143 136 129 123 117 112 107 101 94 86 79 74 70 70 74 81 93 108 125 140 152 160 
170 169 164 155 142 126 111 100 94 95 103 118 135 152 164 168 164 152 134 114 99 90 89 95 106 118 128 133 133 128 121 112 106 104 104 107 110 112 112 110 107 104 103 103 106 112 118 124 129 133 134 133 131 127 122 116 109 103 97 92 89 89 90 93 97 100 103 105 107 109 112 117 123 130 137 142 145 145 143 138 133 126 119 112 104 95 87 79 73 69 68 71 77 87 101 117 134 148 159 167 
171 169 164 153 137 119 102 88 80 80 87 101 120 141 157 165 165 155 138 119 102 91 86 89 96 105 114 120 122 120 116 112 109 109 111 114 116 117 115 112 108 104 102 102 104 108 114 120 125 130 134 137 138 138 137 133 127 120 111 103 96 92 90 92 95 99 102 105 107 108 110 112 116 121 127 132 137 140 142 141 138 133 126 117 107 96 87 79 73 71 73 77 86 97 112 127 142 155 163 169 
167 165 159 149 133 114 96 82 73 71 76 89 108 129 148 159 162 155 141 123 106 94 88 88 93 100 107 112 115 115 114 114 114 116 120 123 125 125 122 118 112 107 104 103 104 108 112 117 123 129 134 140 145 149 150 149 145 138 128 118 109 102 98 98 101 105 108 111 112 111 110 108 109 111 115 121 128 135 141 145 146 144 138 128 117 104 93 85 80 79 82 89 98 111 124 137 148 156 162 166 
157 157 153 144 131 114 96 81 72 68 72 82 99 119 139 153 158 154 143 128 113 101 94 93 96 101 106 111 114 115 116 118 121 125 129 133 135 134 131 125 119 113 109 108 108 110 113 118 123 129 135 142 149 156 160 161 159 153 144 134 124 116 112 111 113 117 121 122 121 117 111 105 101 100 102 108 117 128 140 149 154 155 151 143 131 118 106 96 92 92 96 103 113 124 134 142 148 152 154 156 
143 144 144 140 131 117 101 87 76 71 73 81 95 114 133 148 155 154 146 134 122 111 104 102 103 107 111 114 117 119 121 124 128 133 138 142 144 142 138 132 126 120 116 114 114 115 118 121 126 131 137 144 151 158 163 166 165 161 154 146 138 131 128 128 130 134 136 136 132 124 113 103 95 91 91 97 107 122 138 152 162 166 164 158 147 134 122 112 108 108 113 120 128 135 140 142 142 141 141 141 
125 130 135 137 133 124 111 98 86 80 79 85 97 114 132 146 154 155 150 142 132 123 116 114 114 115 118 120 122 124 127 131 136 141 146 149 150 148 143 137 131 125 121 119 120 122 125 128 131 135 140 145 150 155 160 162 162 160 156 151 146 143 142 144 147 151 152 150 143 131 116 101 90 83 82 87 98 115 135 153 167 174 175 170 161 150 138 129 125 125 129 135 141 143 142 138 132 126 122 122 
108 117 127 135 137 133 124 112 100 93 90 94 104 119 135 148 156 158 155 149 141 133 127 124 122 123 124 125 127 130 133 137 142 146 150 152 152 149 144 137 131 126 124 124 126 129 133 136 139 141 143 145 147 148 150 151 151 150 148 147 147 148 152 156 161 165 166 162 153 138 120 101 86 77 75 79 90 108 130 152 168 178 181 178 170 161 151 143 139 140 143 147 149 147 140 130 118 109 103 103 
95 107 121 134 141 142 136 126 115 107 103 106 114 127 141 153 160 162 160 155 148 140 133 129 126 126 126 128 130 133 137 141 146 150 152 153 151 146 140 133 127 123 122 124 129 134 140 145 147 148 147 144 141 138 135 133 132 132 133 136 141 148 156 164 170 175 175 171 161 144 123 102 84 74 70 73 84 102 125 148 166 177 181 179 173 165 157 151 148 150 153 155 154 148 136 121 106 94 88 88 
87 101 118 134 145 149 146 138 127 119 115 117 124 136 148 158 164 166 164 158 150 142 134 128 124 122 123 125 129 133 139 144 149 152 153 151 147 140 133 125 119 116 117 121 129 137 145 151 155 154 151 144 135 126 118 113 110 110 113 120 130 142 154 165 174 179 180 176 165 148 126 103 85 73 69 71 80 96 118 141 159 171 175 174 169 162 155 151 151 153 157 158 156 147 133 115 98 85 78 79 
85 99 118 135 148 153 151 143 134 126 122 124 131 142 153 162 167 168 165 158 148 138 128 120 115 113 115 118 124 131 138 145 150 152 152 148 141 133 124 115 110 107 109 116 125 136 147 155 160 159 154 144 131 117 104 95 91 90 95 104 116 132 148 163 173 179 181 177 167 150 129 107 88 76 70 71 79 92 111 131 148 159 163 161 156 150 146 144 146 151 156 159 156 147 131 112 94 81 75 76 
89 103 121 138 149 153 150 142 133 125 122 125 133 144 155 164 168 168 163 154 143 129 117 108 103 101 104 109 117 127 136 144 150 152 150 145 136 126 116 107 101 99 102 109 119 132 145 156 162 162 156 145 129 112 96 85 78 77 82 91 105 122 140 156 168 175 177 174 165 151 132 112 94 82 76 76 81 91 106 121 134 142 145 142 138 133 130 132 137 145 153 157 156 148 133 114 97 84 78 80 
98 112 128 141 149 150 145 136 126 118 116 119 128 140 152 162 166 166 160 149 135 120 106 96 91 90 93 100 110 122 134 143 149 150 148 141 132 121 111 102 96 94 96 103 113 126 140 152 160 161 157 146 130 111 94 81 74 72 76 84 97 113 131 147 159 166 169 167 161 150 135 119 105 94 87 86 88 94 103 112 120 124 123 120 116 112 112 116 125 137 147 155 156 150 137 121 105 93 88 90 
113 125 137 146 150 146 138 126 114 107 105 109 119 133 146 157 162 161 155 143 127 111 97 87 82 82 86 94 106 119 131 141 147 148 145 138 130 120 110 102 96 94 95 100 108 120 133 145 153 157 155 146 132 115 99 86 78 75 77 84 94 107 122 135 145 152 155 156 153 147 139 129 119 110 104 101 101 102 105 107 108 107 104 100 96 94 96 102 114 128 142 152 156 153 143 130 117 107 103 105 
