P2
100 100
255
136 165 191 207 211 199 170 127 83 54 42 45 64 99 144 182 203 208 197 168 124 79 47 31 25 26 33 47 70 101 133 158 170 171 162 145 124 103 85 74 68 66 66 69 76 90 109 128 144 154 156 149 133 111 89 71 58 47 40 37 39 47 62 83 108 133 156 175 188 194 191 181 165 148 132 116 101 84 68 55 45 38 34 31 29 31 38 55 83 123 161 188 198 192 173 144 117 100 99 112 
175 195 210 216 212 193 155 107 66 41 32 34 50 83 128 171 196 204 194 168 126 83 53 37 32 34 42 54 72 95 116 131 138 135 127 117 106 99 97 98 99 98 94 88 83 82 86 95 106 119 131 139 141 137 126 113 97 81 65 51 43 40 44 54 68 88 112 138 163 183 195 198 194 187 177 164 146 121 93 66 46 33 25 21 20 21 28 42 68 106 147 177 191 190 179 161 144 136 141 155 
202 214 221 221 211 184 139 89 52 32 25 28 43 73 118 164 193 203 197 175 140 101 72 56 52 55 63 74 87 98 105 107 104 99 93 89 91 100 115 130 140 141 134 119 99 82 71 68 74 86 105 127 148 162 166 161 148 128 103 77 56 42 36 37 43 54 73 101 135 168 193 206 212 212 209 200 184 158 123 85 55 36 25 20 19 21 28 42 66 100 137 165 178 180 173 164 158 160 171 186 
215 224 227 223 208 175 126 76 42 26 21 26 41 72 117 163 193 205 202 187 161 130 105 92 89 93 101 109 114 112 103 91 78 69 65 67 79 103 133 160 177 182 173 153 122 89 64 52 51 61 82 115 151 179 195 198 191 174 147 111 76 50 35 29 29 35 48 73 110 153 188 209 220 225 225 220 209 186 150 107 69 44 31 26 26 30 39 54 77 105 133 152 159 157 152 149 153 165 183 201 
218 227 229 223 204 167 115 67 37 24 22 28 45 78 124 168 196 208 207 198 181 161 145 137 137 143 149 152 147 132 108 82 62 50 46 52 70 103 145 181 202 209 202 181 145 101 65 44 38 45 65 102 148 187 210 219 218 206 182 143 98 61 38 27 24 26 36 58 94 141 182 209 223 229 231 228 220 202 170 129 88 60 45 41 43 51 64 81 102 121 135 139 134 125 118 119 130 151 178 202 
215 226 228 221 199 159 106 61 36 25 26 35 56 92 137 176 199 209 209 202 193 183 177 176 180 185 190 188 177 153 116 79 52 38 34 41 61 99 149 191 215 223 219 200 165 116 70 43 32 35 54 91 143 189 217 229 231 223 202 165 115 71 43 29 23 25 33 54 90 137 179 206 221 228 230 228 221 206 181 146 110 84 71 70 77 90 106 123 138 144 141 126 107 91 81 83 97 125 161 193 
207 222 225 217 193 150 99 58 37 30 34 48 75 112 153 183 199 204 201 196 191 189 191 196 204 210 213 211 197 169 125 80 48 31 27 33 54 93 147 193 219 230 227 212 180 130 79 45 30 30 47 83 136 186 217 231 234 228 210 175 125 78 47 32 27 30 40 61 96 140 178 202 215 220 221 218 211 199 180 155 131 114 109 114 126 141 157 169 174 168 148 117 86 64 53 53 66 95 137 178 
196 216 220 211 185 141 92 57 41 39 48 69 100 136 167 186 192 188 181 174 172 175 186 199 211 220 224 221 208 179 133 83 47 28 23 28 47 86 141 190 219 231 231 220 192 145 91 51 32 30 44 78 130 181 214 229 233 226 208 173 125 80 52 39 37 43 57 80 114 150 179 196 203 203 200 195 188 178 166 153 145 143 149 160 173 187 198 203 200 185 153 110 71 46 35 34 45 71 112 160 
185 208 213 202 173 130 87 59 49 54 71 99 131 159 177 181 173 159 145 135 134 144 163 185 205 219 226 225 214 187 142 89 50 29 22 26 43 79 133 185 217 231 233 224 201 159 106 62 39 34 46 78 128 177 209 223 225 216 195 160 116 79 57 51 55 67 87 112 140 164 180 185 182 174 164 155 148 141 138 140 148 161 177 193 206 216 221 222 215 194 155 104 62 36 25 24 32 54 93 143 
175 199 204 190 159 118 82 62 61 75 101 133 160 177 179 167 145 120 99 88 89 101 126 158 189 211 223 225 216 193 152 101 58 34 25 27 42 76 128 179 212 228 232 226 207 172 123 79 52 44 55 84 129 173 201 212 211 197 172 136 100 74 64 68 83 104 128 151 169 179 179 169 152 133 117 105 99 98 103 117 140 168 192 210 222 230 233 231 221 197 154 99 55 31 21 19 26 46 82 131 
168 191 193 175 142 105 78 69 78 103 135 165 184 187 175 147 112 81 61 51 52 64 88 124 163 195 214 221 217 200 165 119 76 48 35 34 47 78 124 172 206 223 228 225 211 183 142 101 73 64 73 99 136 170 191 195 186 166 137 106 81 70 74 91 118 147 170 186 193 190 177 152 121 93 74 63 59 62 73 94 127 164 195 216 229 235 237 234 222 196 149 93 51 28 19 18 25 43 78 125 
165 184 180 158 124 92 75 77 98 131 166 190 199 192 167 126 84 54 36 29 30 39 59 91 133 173 200 214 215 205 180 143 103 73 56 52 61 86 124 165 195 212 219 218 208 188 158 126 102 93 100 120 147 168 176 171 153 127 100 77 65 67 84 115 152 181 200 209 208 197 174 137 98 67 48 39 38 42 53 75 111 153 190 214 228 235 237 232 219 190 141 86 46 26 18 19 27 47 81 127 
167 178 167 140 106 81 73 85 117 156 188 206 208 193 158 109 65 37 24 19 20 27 41 67 104 146 180 201 210 207 193 169 139 112 92 84 86 101 126 154 177 192 200 201 196 185 167 147 132 127 132 145 158 165 160 142 117 90 68 55 53 65 93 134 175 203 217 222 217 201 173 131 88 56 39 31 30 34 44 63 95 137 176 205 222 230 232 227 212 180 130 78 43 25 19 22 33 55 92 135 
172 174 155 122 90 71 71 92 131 173 203 216 213 192 151 98 55 30 19 15 17 22 33 52 81 118 155 182 197 203 201 190 173 155 138 126 120 120 127 138 149 159 165 169 171 169 164 159 156 156 160 166 167 160 143 117 88 64 49 43 47 64 99 144 185 211 223 225 219 203 174 133 91 60 43 36 34 36 43 57 81 116 154 185 206 218 222 218 201 167 117 70 40 26 22 28 43 70 109 148 
178 170 143 106 76 62 68 96 140 183 210 221 215 192 148 94 52 29 19 17 19 25 33 46 66 94 125 154 176 191 199 201 197 189 179 166 152 138 125 116 113 114 118 124 131 140 149 159 167 174 178 178 171 154 129 99 71 52 41 39 46 65 100 145 184 209 220 222 216 201 177 142 106 79 62 54 50 49 50 56 70 94 124 154 179 195 203 201 185 151 106 65 39 29 28 38 59 92 132 164 
183 166 131 92 64 54 64 95 141 185 212 222 216 193 151 98 57 35 26 25 29 34 41 49 60 76 96 120 145 167 186 200 207 208 204 194 175 149 119 94 79 73 73 78 89 105 126 149 168 180 184 181 169 147 119 90 67 52 44 44 51 68 98 136 171 194 205 208 204 194 177 155 131 111 98 89 81 73 65 61 63 74 92 116 140 161 174 177 165 137 99 65 45 37 41 56 83 120 156 179 
187 162 121 80 55 47 58 88 134 179 208 219 215 195 157 110 71 50 43 44 50 56 61 63 63 66 74 87 108 134 163 188 206 215 216 207 187 152 111 76 55 45 43 47 58 78 105 135 161 176 181 175 160 139 114 91 75 64 60 59 64 76 95 121 146 164 175 179 180 177 173 166 158 150 144 136 125 108 88 70 60 58 65 79 98 120 139 150 147 129 101 75 59 55 63 83 115 150 179 192 
189 158 113 71 47 40 50 76 118 164 196 211 210 195 166 129 96 78 74 79 88 95 95 88 76 65 59 62 74 97 131 167 196 213 218 211 189 149 101 63 40 30 28 32 42 62 91 125 152 168 170 161 146 128 112 100 94 91 90 90 89 91 96 104 114 123 130 135 141 150 160 170 178 183 184 179 167 144 113 82 60 49 47 53 66 86 109 129 138 132 117 99 88 87 98 120 150 178 196 201 
190 156 108 66 42 35 41 62 96 138 172 192 198 191 173 149 129 119 121 130 140 145 140 122 96 70 52 45 50 67 99 141 180 206 215 210 186 142 92 53 32 23 22 27 39 60 90 122 147 158 155 142 127 115 111 114 121 129 133 132 126 115 102 91 85 82 83 88 98 116 142 168 190 203 209 207 195 170 131 90 60 43 37 39 48 67 94 122 141 148 143 134 128 129 140 159 181 199 209 207 
193 157 109 66 41 31 34 47 72 105 137 162 175 178 174 166 160 160 167 178 186 189 179 155 116 77 50 36 35 46 73 116 162 195 209 205 179 134 84 47 28 22 22 30 46 71 102 131 149 151 139 121 106 101 108 127 148 166 175 174 164 143 115 86 66 54 50 53 64 87 123 163 194 213 221 221 209 181 138 92 57 39 31 32 42 62 93 128 155 170 173 170 167 168 176 189 202 212 216 211 
197 163 116 71 43 31 29 36 51 72 98 122 142 157 167 174 181 189 199 209 215 215 204 176 131 83 49 31 27 35 57 98 148 186 203 199 172 126 78 44 28 24 29 43 65 96 127 151 158 149 126 101 86 86 103 133 167 192 204 205 193 168 130 88 57 39 32 33 44 69 110 158 196 217 226 224 211 180 134 86 52 35 29 31 43 67 103 143 174 190 195 195 193 194 198 205 213 219 220 215 
203 174 130 84 51 34 28 29 36 48 64 84 107 131 154 175 192 205 216 224 228 226 214 185 137 85 48 29 24 30 51 91 141 180 199 194 167 121 74 45 32 32 44 66 97 132 161 175 172 151 118 86 70 71 93 132 174 204 219 221 212 187 145 96 56 34 25 25 36 61 105 157 197 219 226 222 204 169 120 75 46 32 28 34 50 80 121 161 189 203 207 206 203 202 204 209 215 220 222 217 
210 188 151 106 67 43 31 27 28 34 43 58 79 108 141 172 195 211 222 229 232 228 214 184 135 83 47 29 25 33 55 95 144 181 198 192 164 118 75 48 40 46 67 100 138 171 192 198 186 156 113 76 57 58 81 122 170 206 224 229 222 200 159 105 60 34 23 23 34 61 106 159 198 218 223 214 190 150 101 62 39 30 30 40 62 97 140 176 198 207 207 202 196 193 195 200 208 216 220 219 
215 201 173 133 92 59 40 30 27 29 34 46 66 97 134 169 196 212 222 228 228 222 206 172 124 77 47 33 32 43 70 111 157 189 201 192 163 119 78 55 52 67 99 139 177 203 215 214 197 161 112 70 48 47 67 107 159 200 223 231 227 208 170 116 67 38 26 26 38 66 113 164 200 216 217 202 171 125 81 49 34 30 35 51 79 117 157 185 199 200 192 181 171 165 167 176 190 203 214 218 
217 211 194 163 123 85 57 41 34 33 37 48 69 100 137 171 196 210 218 220 217 208 187 152 109 71 48 41 46 65 97 139 176 200 206 194 163 119 81 63 66 91 131 173 205 223 229 224 204 165 111 65 41 38 53 89 141 189 218 230 228 213 179 127 76 44 30 31 44 75 122 170 201 212 207 184 146 101 63 41 32 34 45 67 100 138 169 186 188 178 161 143 127 120 123 135 156 180 200 213 
214 216 208 187 155 118 85 62 51 48 53 66 88 118 150 178 195 204 206 204 195 180 156 123 90 65 54 57 72 99 134 170 197 211 211 195 161 118 83 69 79 111 156 196 221 234 236 229 209 168 111 63 37 30 41 71 120 172 208 225 227 216 186 138 87 52 37 38 53 86 132 174 199 205 192 163 121 80 52 38 36 44 62 91 125 156 176 179 167 145 118 95 79 72 75 89 113 145 176 200 
204 215 214 203 181 150 118 94 81 78 85 100 122 147 170 186 193 193 186 174 158 139 115 91 72 62 65 81 107 140 172 198 214 219 213 192 155 111 80 71 85 123 170 207 229 238 239 232 211 169 111 61 33 25 32 55 98 152 195 218 224 216 191 147 97 61 45 46 62 95 138 175 194 193 175 141 101 67 48 43 48 64 90 122 152 173 178 166 140 107 77 56 44 39 41 52 73 105 144 180 
185 205 212 208 194 173 149 130 120 121 130 145 162 178 189 193 188 175 155 133 112 93 76 64 58 64 82 111 146 178 202 217 224 223 210 183 142 99 71 65 83 122 170 208 229 239 240 232 211 170 111 60 32 22 25 43 79 132 180 209 220 214 192 152 105 69 53 54 70 101 139 170 183 178 156 122 88 64 55 58 73 97 127 156 177 186 177 152 114 76 49 32 24 21 23 30 45 72 110 151 
157 185 199 201 194 181 166 157 155 160 171 183 194 202 203 196 179 151 120 92 71 56 48 45 51 69 101 141 178 205 221 228 229 222 203 168 123 82 59 55 72 109 158 199 223 235 237 230 210 170 112 61 32 20 22 35 67 116 166 200 214 211 191 154 109 75 59 59 74 102 134 159 168 160 139 111 87 74 74 87 110 138 165 186 197 195 177 141 96 58 34 21 15 13 14 19 29 48 79 119 
126 155 173 179 177 170 165 165 172 184 196 207 214 216 211 195 166 127 88 60 43 34 31 35 48 76 118 165 200 220 230 233 229 216 189 147 100 64 45 43 57 89 134 179 210 226 231 226 207 168 113 64 35 22 22 34 62 107 157 192 207 205 186 151 109 77 62 62 75 98 124 144 151 145 129 111 98 97 107 127 151 176 195 207 210 202 179 138 90 51 29 17 12 11 12 15 22 35 58 90 
98 122 138 144 144 142 144 152 169 188 205 216 222 222 213 191 153 106 66 41 28 22 23 30 49 84 133 181 212 228 234 233 224 204 168 122 77 48 34 33 43 66 104 148 185 208 219 217 201 166 117 71 42 29 29 41 68 110 156 189 202 198 178 143 104 75 61 61 72 90 111 128 136 135 128 122 121 129 145 166 186 203 214 219 218 207 183 143 95 56 33 21 16 14 14 17 22 31 47 70 
82 97 105 107 105 104 109 124 147 174 198 214 221 221 209 183 140 91 53 31 21 17 20 30 52 92 145 191 218 231 233 228 213 185 142 95 58 36 26 25 31 47 75 112 150 180 197 200 189 162 121 82 56 45 46 59 86 125 164 189 198 190 166 130 94 69 58 58 67 82 101 117 128 134 137 141 149 162 178 194 208 217 223 224 220 210 189 154 111 74 49 35 28 25 25 26 30 37 49 64 
83 87 86 80 73 71 75 90 115 146 176 198 210 211 200 172 128 81 47 28 19 17 21 33 59 103 156 197 220 229 228 218 195 159 113 71 43 28 21 21 25 35 53 79 112 142 164 174 171 154 128 100 82 74 78 93 119 151 178 194 195 181 152 115 82 62 54 55 63 77 95 113 129 141 152 162 174 187 199 210 217 221 222 221 217 209 193 169 136 105 80 64 55 51 49 50 53 58 66 75 
104 97 85 70 58 51 52 61 81 109 141 169 186 191 182 157 118 77 48 31 23 22 28 43 72 117 166 201 219 224 218 200 169 127 84 52 33 23 20 21 24 30 41 58 80 104 126 141 147 143 134 123 116 116 124 139 159 179 194 200 193 172 138 101 71 55 50 53 62 77 96 117 136 153 167 180 191 201 208 212 214 213 210 207 204 199 192 180 163 144 126 112 103 97 94 93 95 98 102 105 
138 123 102 78 58 45 41 44 55 75 101 128 149 160 157 140 111 81 57 43 36 36 44 62 94 137 177 203 214 212 199 173 135 94 61 39 28 24 23 26 29 34 41 50 63 78 93 108 120 129 136 143 150 158 169 181 193 202 207 204 189 162 125 88 63 51 49 54 66 83 104 126 147 165 179 190 198 203 204 202 197 190 183 178 176 177 180 183 182 178 172 165 159 154 151 149 149 149 149 146 
173 156 130 100 73 52 41 37 40 51 67 87 106 121 128 124 111 94 79 68 64 66 76 96 125 159 187 202 204 193 170 137 99 66 44 32 28 29 34 40 46 51 55 59 63 68 74 84 97 113 133 154 172 187 199 207 213 216 214 204 184 152 113 80 59 52 53 61 75 94 116 138 157 172 183 190 192 191 185 175 162 148 137 131 132 141 156 174 189 199 203 203 202 199 197 194 193 191 189 184 
198 184 162 132 100 72 52 40 36 38 45 57 72 88 104 115 120 120 115 111 109 113 122 139 160 180 193 196 186 164 133 99 68 47 35 32 35 43 55 68 79 87 89 86 80 74 69 71 79 97 123 152 180 200 212 219 222 220 214 199 175 141 104 76 62 59 64 76 92 112 131 148 161 171 176 177 173 164 150 133 114 97 85 80 83 97 123 155 185 206 217 222 224 223 221 218 215 213 210 206 
208 201 187 164 135 103 75 54 41 35 35 41 51 67 89 114 136 151 158 160 161 164 170 179 188 194 193 182 160 129 96 67 46 35 33 38 51 70 92 114 130 138 138 129 113 93 76 67 68 82 107 140 173 197 211 218 219 215 205 187 160 128 98 79 72 75 85 100 117 133 145 153 157 158 156 150 140 125 107 88 70 56 47 44 48 62 90 130 172 203 221 229 231 230 228 224 220 216 214 212 
205 206 201 190 169 141 110 80 57 42 35 35 42 58 85 120 154 179 192 198 200 202 203 205 204 199 186 163 130 95 66 46 35 32 37 52 77 108 140 165 181 187 185 173 151 121 91 70 63 69 89 120 153 180 197 204 204 197 183 163 138 113 95 88 91 102 117 133 146 154 155 152 145 136 126 115 102 86 70 55 42 32 26 25 28 41 66 107 156 194 217 227 229 227 221 215 208 203 202 203 
189 199 206 205 196 177 149 116 84 59 43 37 41 56 86 128 170 198 213 220 221 221 219 216 209 195 172 139 102 70 47 35 31 36 50 76 112 150 182 203 215 219 215 203 180 146 107 77 61 61 74 98 127 152 169 175 173 163 148 129 111 99 96 103 118 136 153 166 172 170 160 144 125 108 94 82 70 59 48 37 29 22 18 17 20 30 52 90 138 180 205 216 217 211 200 188 177 171 171 178 
158 182 201 211 212 203 184 155 119 85 59 46 46 60 91 136 179 208 223 229 230 228 223 216 203 182 152 115 80 54 39 33 36 47 71 107 148 185 210 225 232 233 229 218 197 163 121 85 65 59 65 81 102 120 131 134 128 118 105 92 85 87 99 121 147 169 184 192 190 180 159 131 104 83 69 59 52 45 38 32 26 22 19 18 20 29 47 79 122 162 186 195 191 178 161 142 127 120 123 136 
121 158 190 211 219 218 208 187 156 118 84 62 56 67 97 141 183 210 224 229 229 225 217 206 188 162 130 96 68 50 41 41 50 70 101 141 179 208 225 234 237 237 232 222 202 170 130 95 73 65 68 77 88 96 98 94 85 76 67 63 65 79 105 140 171 193 205 208 201 183 153 117 85 64 53 48 45 44 41 38 34 30 27 26 28 36 52 78 112 142 159 161 150 131 109 89 76 70 75 92 
89 132 176 206 222 226 222 209 185 150 112 82 69 75 100 139 177 204 217 221 219 211 200 184 163 137 110 85 67 57 56 62 77 103 137 173 201 220 231 235 236 233 227 215 195 167 134 105 89 83 85 90 92 89 80 69 57 49 44 44 53 75 112 155 189 209 218 217 206 183 146 104 72 53 46 46 50 54 57 57 55 51 48 47 48 55 68 87 109 125 129 121 105 84 65 50 40 38 43 58 
68 112 161 199 220 229 229 221 204 175 138 103 82 80 97 128 161 185 198 200 195 184 168 150 131 112 97 85 80 80 85 97 117 142 171 196 214 225 230 231 228 221 211 196 176 153 131 117 111 113 118 120 114 101 81 60 45 35 31 34 47 74 118 166 200 219 225 221 207 179 137 93 63 48 46 53 65 79 89 95 95 92 88 85 86 91 99 109 116 116 106 89 69 52 38 28 23 22 27 40 
57 98 148 190 216 227 230 226 213 190 155 117 90 81 88 108 133 152 162 162 154 140 125 110 100 94 94 99 106 116 127 142 159 177 195 209 218 222 222 218 209 197 181 163 145 130 124 127 137 149 158 159 149 127 96 65 43 30 26 30 44 75 123 173 207 224 228 222 206 173 128 84 58 48 53 69 92 116 134 144 147 145 141 138 137 138 140 139 132 116 93 69 49 35 26 20 17 17 22 33 
54 89 136 178 206 221 226 223 213 193 161 123 93 77 76 85 98 110 115 112 104 93 83 77 78 88 103 122 140 156 168 179 189 199 206 211 213 211 204 192 176 157 136 117 105 103 113 134 160 181 193 195 184 159 120 79 48 31 25 28 43 76 127 177 210 226 228 221 201 165 119 78 56 52 65 91 125 155 177 188 191 190 187 184 182 180 176 167 149 122 90 62 42 30 23 19 18 20 24 34 
57 85 123 161 189 205 212 212 203 185 155 120 89 71 64 64 69 73 73 70 64 58 55 59 71 93 122 150 172 187 196 201 204 205 205 202 196 186 172 153 130 107 88 74 70 78 102 139 176 202 216 218 210 186 146 96 57 34 25 28 43 77 129 180 212 226 227 218 195 156 109 73 57 60 81 116 154 185 204 213 215 215 212 209 207 204 198 186 164 131 95 64 44 33 28 26 27 29 33 41 
67 84 110 138 161 177 186 187 181 166 141 111 84 65 55 51 50 50 48 45 42 41 44 55 77 109 145 175 195 205 209 207 203 196 188 178 165 149 129 107 85 66 52 45 47 62 94 141 185 214 228 232 225 205 167 114 67 38 27 29 45 80 132 181 211 224 223 211 185 144 100 70 60 70 98 138 176 202 216 222 223 221 219 216 214 211 205 194 173 141 105 75 55 46 42 43 46 49 52 57 
84 87 96 109 124 136 145 150 148 139 122 101 80 64 54 47 42 39 37 34 34 37 45 63 93 131 167 192 206 210 207 198 186 171 156 140 124 107 89 71 55 42 34 31 36 53 88 140 189 219 234 238 233 216 181 128 76 43 30 32 48 84 136 182 210 220 217 201 171 130 91 69 67 84 116 156 188 208 216 218 216 213 210 208 206 205 202 193 177 152 122 96 79 72 72 76 81 84 86 85 
107 94 85 83 87 93 100 108 113 114 109 99 86 72 61 52 45 40 36 34 36 43 57 82 117 155 185 202 208 204 192 174 153 132 114 99 86 75 64 53 42 33 28 26 31 48 83 136 187 220 235 240 236 221 188 136 83 49 35 37 56 93 142 184 207 213 206 185 152 114 84 71 77 100 134 169 193 205 207 202 196 189 184 183 184 187 188 185 176 161 142 125 115 113 117 124 131 134 131 121 
130 101 78 64 59 61 67 77 89 101 109 109 104 94 82 70 59 50 45 44 48 59 80 110 145 176 196 204 200 186 163 136 111 90 76 67 63 60 57 52 44 37 30 28 31 46 77 127 179 214 232 237 234 219 188 139 88 55 43 48 70 108 152 186 203 203 190 164 130 98 79 77 92 120 152 178 192 194 187 173 159 148 142 143 148 157 166 172 173 169 162 156 154 158 165 173 179 180 173 157 
147 106 73 53 44 44 50 64 83 105 124 134 135 129 117 102 87 74 66 65 71 87 111 142 171 192 202 199 184 158 126 96 72 58 51 51 56 62 68 68 62 52 42 35 35 44 70 113 163 201 221 229 226 211 180 135 91 63 55 65 91 128 165 189 196 188 167 137 106 84 78 87 111 142 169 185 188 178 158 134 114 100 95 98 107 123 140 155 166 173 176 179 184 190 198 205 210 209 201 180 
154 108 69 47 37 38 48 67 94 125 150 166 171 168 158 143 125 109 98 96 103 120 144 170 190 201 201 189 163 127 91 63 46 39 40 48 63 81 96 102 97 83 65 50 42 45 61 94 137 176 200 210 207 191 162 124 90 72 73 90 120 153 179 190 187 168 139 108 85 75 81 102 133 164 184 191 183 161 129 97 75 63 60 65 76 95 117 139 158 172 182 191 199 208 215 221 224 223 214 192 
153 104 65 44 36 40 55 82 118 153 180 195 200 199 191 179 162 145 132 128 134 149 169 188 201 204 197 176 141 99 65 43 32 31 38 55 81 112 137 149 144 127 100 74 55 48 54 74 106 139 163 175 173 158 134 107 88 84 96 121 151 176 190 189 173 144 111 83 68 69 87 119 156 183 197 196 179 147 107 73 52 43 42 48 60 78 101 125 147 165 180 193 204 213 221 227 229 227 217 193 
145 97 61 42 38 47 70 106 147 181 203 214 218 217 210 199 184 167 153 147 151 164 181 196 204 204 192 166 125 82 51 33 27 30 42 68 106 147 177 190 187 170 140 104 73 55 50 58 76 98 117 127 126 116 100 87 84 96 120 151 177 193 196 183 155 119 85 63 57 68 96 136 174 199 208 201 179 140 96 62 43 37 38 44 56 72 91 112 132 151 167 183 198 210 220 226 228 226 214 188 
133 87 56 42 42 58 89 132 173 203 219 226 227 224 217 205 188 169 153 145 149 161 179 194 202 201 189 160 119 76 47 31 27 33 50 84 130 175 204 216 215 201 174 136 96 67 52 50 56 67 77 83 82 77 72 71 82 107 141 173 195 203 195 172 135 95 65 50 50 68 104 150 188 209 215 206 181 140 95 61 44 39 41 48 58 71 84 99 112 127 143 162 182 200 213 222 225 221 207 178 
117 76 50 41 47 68 107 154 193 216 227 231 229 223 212 195 173 150 132 123 127 142 163 183 196 198 188 163 124 82 52 36 32 38 59 97 148 192 218 228 228 218 196 162 121 85 62 51 49 52 55 56 55 53 53 61 81 115 155 187 203 204 188 155 112 74 50 41 46 68 109 158 196 215 219 208 183 143 99 67 51 47 49 55 63 71 77 83 89 97 111 131 157 183 203 215 219 214 197 163 
101 64 44 39 49 76 120 168 204 223 231 231 226 214 196 171 142 115 97 89 94 111 138 166 187 196 192 173 139 99 66 46 39 45 67 106 156 197 221 231 232 224 208 181 145 108 81 65 57 53 51 48 44 43 46 57 83 121 163 192 204 198 174 134 90 57 39 34 43 67 110 159 196 215 218 207 183 145 105 76 62 58 60 64 68 70 69 68 67 69 79 99 129 163 191 207 213 206 185 147 
85 54 38 37 49 78 124 174 208 225 230 227 216 197 169 135 102 77 62 58 64 82 113 149 179 196 198 187 161 125 89 62 50 52 71 107 153 193 216 226 228 223 211 192 165 135 109 91 80 71 63 55 48 44 46 59 86 126 166 192 199 187 156 112 71 44 31 30 40 64 105 153 189 208 210 199 176 143 109 86 75 72 73 74 72 67 61 55 50 49 56 74 106 146 180 200 206 197 171 129 
72 45 33 33 46 75 121 171 205 222 225 218 201 171 133 95 66 48 38 36 43 62 95 137 175 198 206 201 183 153 115 82 62 58 71 99 139 176 201 213 217 214 207 195 178 160 143 129 118 106 93 78 65 56 55 67 93 131 167 188 190 173 137 92 56 35 27 28 38 60 96 139 173 190 192 181 160 133 109 94 89 89 88 84 76 65 54 44 38 37 43 61 95 138 175 197 202 190 159 114 
62 38 28 29 40 67 111 161 198 215 217 205 179 140 97 63 41 29 24 25 33 52 87 133 176 202 213 213 201 175 138 100 73 62 66 86 116 148 173 188 195 196 194 190 184 178 172 166 160 149 134 114 93 77 72 81 105 138 168 184 182 161 122 80 49 32 26 28 38 57 87 121 148 162 161 150 133 115 104 101 104 107 106 97 82 65 50 39 33 33 41 62 98 142 179 198 201 184 149 101 
54 33 24 25 35 58 98 147 186 205 206 190 155 110 69 42 27 20 18 21 30 52 89 138 181 208 219 220 211 189 153 111 78 61 59 69 89 113 136 152 162 168 172 177 182 187 191 193 192 186 172 152 127 105 95 100 120 148 172 184 179 156 118 79 51 36 32 35 44 60 81 103 120 126 122 112 101 95 97 106 119 128 127 114 93 70 51 39 35 38 51 77 116 158 189 204 202 182 142 93 
50 29 22 22 30 49 85 133 174 195 195 174 135 88 52 30 20 16 16 21 34 59 101 150 190 213 223 223 214 192 156 113 78 58 52 56 67 83 99 113 124 134 145 158 173 187 199 206 209 207 197 178 154 131 117 119 136 159 178 187 181 161 128 92 66 52 48 52 60 72 84 94 97 93 85 78 74 78 92 114 136 150 150 136 111 83 62 49 47 54 73 105 144 180 203 212 206 181 137 87 
46 27 20 20 27 45 78 124 166 188 187 164 122 77 43 25 17 15 18 26 43 74 120 166 200 218 224 222 209 184 146 104 72 53 47 48 55 66 77 87 97 108 122 140 161 182 198 209 214 213 204 188 165 143 131 133 149 169 186 194 190 175 149 121 98 85 81 85 92 98 100 96 86 73 62 55 57 68 92 123 153 170 173 160 136 108 85 72 73 85 110 143 176 202 216 219 209 182 135 83 
45 27 20 20 28 46 79 124 165 186 185 162 121 76 43 26 19 19 24 36 60 97 143 183 209 220 222 214 196 166 127 89 62 49 46 49 56 66 75 83 90 99 111 130 152 173 191 202 207 206 197 180 159 140 131 137 155 176 193 202 201 192 176 157 141 132 130 133 136 136 128 111 88 66 51 46 50 67 98 137 169 188 192 183 164 139 119 109 112 128 153 180 203 218 226 224 211 181 132 80 
44 28 22 24 34 55 90 134 172 191 190 169 130 85 51 33 26 27 36 54 85 126 168 198 214 219 214 198 172 137 100 71 54 47 50 59 71 84 94 101 105 110 117 129 145 163 177 186 188 184 172 154 135 120 117 130 153 179 198 208 211 207 200 190 182 177 177 179 179 174 160 134 101 71 52 46 53 75 111 152 184 201 206 200 186 169 154 148 153 168 187 206 220 228 230 226 210 176 127 77 
45 32 29 34 48 74 112 154 185 201 199 182 147 104 68 47 39 42 56 82 118 157 190 209 216 213 199 174 140 104 74 55 48 50 62 80 101 119 131 137 137 136 135 137 142 149 155 158 156 148 133 116 101 92 96 115 144 176 199 212 217 217 214 210 207 206 207 208 208 201 185 157 120 85 63 56 66 92 130 169 196 210 213 209 199 186 177 174 180 192 206 218 226 230 229 222 203 167 119 74 
49 41 43 54 75 106 143 177 201 211 210 196 168 130 94 70 62 68 88 118 153 185 205 215 213 201 176 141 104 73 53 44 45 58 81 111 140 161 172 176 173 166 157 148 140 134 129 123 116 105 92 78 69 66 74 96 131 167 195 211 219 220 220 219 218 219 220 221 220 214 200 174 139 105 82 77 89 117 152 184 204 213 214 208 198 188 180 179 185 196 207 217 222 224 220 209 187 152 108 71 
58 58 68 87 114 145 176 199 214 220 218 207 186 155 123 101 94 103 126 155 183 204 215 216 207 184 148 107 72 50 38 37 47 69 104 143 175 195 204 204 199 189 174 155 135 117 103 91 80 70 60 52 47 48 57 79 114 152 184 203 212 215 215 215 215 217 219 220 220 215 204 183 156 127 109 107 120 145 173 195 207 210 205 196 183 171 163 162 169 179 191 199 204 204 198 185 161 129 95 70 
73 84 104 130 157 182 201 215 222 224 222 212 196 172 146 128 125 137 159 183 203 216 219 214 197 164 120 78 50 35 30 34 50 81 125 169 200 216 221 220 214 201 181 155 126 100 81 68 58 49 42 37 35 37 46 65 96 132 164 185 195 198 197 196 196 198 202 204 205 203 195 181 163 146 137 139 152 171 189 200 203 198 185 168 150 135 126 125 131 142 153 162 167 166 159 145 125 102 82 72 
93 116 143 169 191 206 217 223 225 224 220 210 195 175 154 141 142 156 178 198 213 221 220 210 186 145 97 58 36 26 25 33 53 90 140 185 213 226 229 226 218 202 177 145 112 85 66 54 46 40 36 32 31 34 41 56 80 110 137 155 163 163 160 158 157 160 164 169 172 173 171 165 159 155 157 165 177 189 197 198 190 174 152 128 106 91 82 81 86 94 104 112 116 116 110 101 89 78 74 78 
113 144 173 195 210 218 223 224 222 218 210 198 181 161 143 135 139 157 179 200 214 220 218 205 176 131 82 47 28 22 23 32 55 95 148 193 218 229 231 226 214 194 164 128 95 72 57 49 44 40 37 35 34 36 42 53 70 90 108 119 121 117 111 106 104 106 111 117 123 127 131 136 142 153 166 180 191 198 197 187 168 141 112 86 67 55 49 49 52 57 64 69 72 73 71 67 64 64 71 87 
128 161 188 205 215 219 219 217 211 203 190 173 152 131 115 110 118 138 165 190 207 216 215 202 171 125 76 43 26 20 22 31 54 95 148 193 218 228 228 220 204 177 141 105 78 61 53 50 49 48 47 46 45 46 50 58 69 80 88 90 85 76 68 62 60 60 63 68 74 80 88 100 118 142 166 186 197 198 190 169 139 105 76 55 41 34 32 32 35 39 43 47 49 51 51 51 53 60 73 96 
134 163 186 199 205 206 204 198 189 176 158 136 114 94 82 79 87 107 137 168 193 207 210 200 172 128 80 46 27 20 21 30 51 89 142 187 214 224 223 211 188 154 115 83 62 54 53 58 63 67 69 69 68 68 71 76 82 85 84 77 66 54 44 38 34 34 35 38 42 47 56 71 95 127 160 184 195 193 176 146 109 75 51 37 29 26 26 29 33 37 42 45 48 50 51 53 57 65 80 104 
129 150 166 175 179 178 174 166 155 140 121 99 79 63 54 52 59 75 102 137 170 194 204 200 178 140 94 56 34 24 22 29 47 81 131 178 207 218 215 200 170 130 91 64 52 52 60 74 88 99 105 106 105 105 106 108 109 106 98 84 67 51 39 30 25 23 23 24 26 30 37 52 77 113 151 179 190 183 159 123 85 55 38 29 26 28 32 38 46 53 60 65 69 71 72 73 76 81 91 108 
115 123 130 135 136 134 131 126 118 106 91 74 58 46 38 36 39 50 71 104 142 176 197 201 189 159 117 77 48 32 26 29 43 73 118 165 197 210 207 189 155 112 75 54 48 56 73 98 121 139 148 151 150 148 147 147 145 139 127 109 87 66 49 37 29 24 21 20 20 23 29 43 68 104 144 173 182 171 142 103 68 45 33 30 32 40 51 64 77 90 100 107 112 114 113 111 108 106 105 108 
97 92 91 90 90 90 91 92 92 88 79 67 53 41 33 29 29 35 50 76 115 157 188 203 200 181 148 107 71 47 34 32 41 65 105 152 187 203 200 181 146 102 68 51 51 65 92 126 155 175 184 187 185 182 180 179 177 173 162 145 123 99 77 59 46 36 29 25 23 24 29 42 66 103 142 168 175 161 129 90 59 41 35 38 48 65 86 108 127 143 154 161 164 165 162 156 146 133 118 105 
80 67 60 57 57 60 67 77 86 91 88 79 65 50 37 29 25 27 36 57 93 139 180 204 210 201 179 144 105 71 48 39 42 60 95 139 177 196 197 180 146 105 73 58 62 82 115 152 181 198 206 206 203 200 197 196 196 195 190 180 165 144 122 100 80 63 50 40 34 33 37 50 75 110 146 169 172 154 121 84 57 44 44 55 76 104 134 159 178 191 199 203 204 203 199 191 177 155 128 101 
69 51 42 39 41 48 62 80 100 114 118 110 93 72 51 36 27 24 29 45 77 124 172 203 217 217 204 179 143 103 70 51 47 58 87 129 168 191 196 184 155 119 89 75 81 104 138 173 197 210 214 212 206 201 197 197 200 203 205 203 197 185 170 151 129 108 87 71 59 54 57 70 94 126 157 174 173 154 121 86 62 54 60 80 112 147 178 200 213 221 224 225 225 222 218 209 193 168 133 97 
63 45 36 34 39 50 71 100 129 151 159 154 135 107 76 51 34 26 27 38 66 111 163 201 221 226 221 205 177 139 98 68 55 59 82 120 160 187 197 190 169 140 113 100 106 128 159 187 205 213 213 206 196 186 180 181 187 196 205 211 214 211 204 193 178 159 137 116 99 90 90 101 123 150 172 183 179 159 127 94 72 68 80 108 146 181 206 222 230 233 234 233 231 227 222 213 197 170 133 94 
65 47 39 39 46 64 92 128 162 185 195 192 176 148 110 74 47 32 28 35 58 100 154 197 222 232 231 222 203 170 127 88 65 61 77 110 150 182 197 196 183 160 138 127 131 149 174 195 207 210 204 191 173 157 147 147 157 173 191 206 216 221 221 217 209 197 181 163 146 134 132 140 155 174 188 193 186 168 138 107 87 83 98 129 166 198 218 228 232 233 231 229 225 221 215 206 191 166 132 94 
77 61 54 54 64 86 118 156 187 208 217 216 206 183 147 104 66 42 32 34 52 90 143 191 220 233 236 232 218 192 151 107 75 64 73 100 138 172 192 197 190 174 156 146 148 161 180 195 202 200 188 166 140 117 103 102 114 135 161 186 205 217 223 225 222 216 206 194 181 171 167 171 181 192 200 201 194 178 151 122 102 97 110 137 170 196 213 220 222 221 216 211 205 200 194 188 177 158 132 102 
102 89 82 83 93 113 143 175 200 217 226 227 222 206 177 135 90 56 38 35 48 80 129 180 214 231 237 236 226 204 167 120 82 64 67 87 121 156 180 190 187 175 161 151 151 161 175 187 191 185 166 137 106 80 66 64 73 92 120 150 178 198 211 218 220 218 212 204 195 188 186 188 194 201 206 207 201 187 164 137 115 104 110 129 154 175 189 195 194 190 182 174 166 161 158 157 156 150 137 120 
138 130 123 121 126 138 158 180 200 215 224 228 227 218 197 162 116 74 48 38 44 69 113 163 203 225 234 235 228 208 172 125 84 62 59 73 101 133 159 172 172 163 150 140 138 146 159 169 173 164 143 112 81 57 44 40 45 58 79 107 137 163 182 195 201 203 201 196 190 186 185 188 195 202 207 209 205 194 175 150 124 107 102 108 122 135 145 148 145 138 128 119 112 109 112 122 134 144 148 145 
174 170 164 158 154 153 159 171 185 199 211 220 224 221 209 182 140 95 60 43 42 58 93 141 184 213 227 230 223 204 168 121 80 57 52 61 81 108 132 145 147 138 126 116 114 120 132 144 149 143 125 97 69 48 36 31 32 38 51 69 92 115 137 153 164 169 169 167 164 163 165 172 182 192 201 205 205 198 183 161 133 108 91 85 86 90 92 92 88 81 73 67 63 65 74 93 119 145 164 173 
201 200 194 183 169 154 145 144 151 165 183 199 211 216 212 194 161 116 75 50 42 50 74 114 157 191 211 217 212 192 156 111 73 52 46 52 66 86 105 116 116 108 97 88 86 91 103 117 126 127 116 95 72 54 41 33 30 31 36 45 57 73 88 102 113 120 123 124 123 125 130 140 154 170 185 195 201 199 189 170 142 112 85 68 59 55 53 50 47 43 38 36 35 40 54 79 115 152 180 196 
218 217 209 194 171 142 118 105 106 118 138 163 187 203 208 200 176 137 93 61 45 44 58 86 124 160 184 194 190 171 136 97 66 48 44 48 60 74 88 94 92 84 73 66 63 68 79 95 111 120 119 108 91 73 58 47 39 35 34 35 40 47 55 64 71 77 80 82 83 85 90 101 117 137 158 177 190 196 193 180 155 123 90 64 47 38 32 29 26 23 22 21 24 31 48 78 121 164 195 211 
226 224 215 196 164 125 90 70 64 71 90 118 151 181 198 201 187 156 114 76 52 43 47 64 90 121 146 160 159 143 115 85 62 50 48 54 64 75 84 85 80 70 59 52 50 54 65 83 105 124 134 133 123 108 91 75 61 50 43 38 37 38 42 46 50 54 56 57 57 58 61 68 81 99 124 150 173 189 195 189 171 141 106 73 49 34 26 21 18 17 16 18 22 32 52 86 133 177 206 221 
229 226 215 192 154 107 69 46 38 40 53 78 114 153 184 198 195 174 138 97 66 48 43 50 65 86 107 121 125 116 99 80 67 62 64 71 82 91 95 91 80 66 54 47 44 49 61 83 111 138 156 163 161 150 135 116 97 80 65 55 49 46 46 48 51 53 53 52 49 46 45 47 55 68 90 119 151 177 193 197 188 165 133 97 66 44 30 23 19 17 18 20 27 39 62 100 147 187 212 225 
225 222 210 185 143 95 56 34 25 25 33 51 84 128 169 194 200 189 162 124 87 60 47 44 51 63 78 91 99 100 95 89 85 86 93 103 114 121 119 108 91 72 57 48 46 52 67 93 126 156 178 189 191 186 175 160 141 121 102 87 77 72 70 71 73 74 71 65 57 48 41 38 40 47 63 90 125 162 189 202 202 189 165 131 96 67 47 34 28 25 26 30 38 52 78 115 157 191 212 222 
213 210 199 174 134 88 52 31 21 19 24 38 67 112 159 192 205 202 184 153 115 81 58 47 46 52 63 76 89 99 107 112 117 124 134 145 153 156 149 132 107 82 64 54 53 62 82 112 146 175 195 205 209 207 201 190 175 159 142 129 119 115 114 115 117 116 110 98 81 62 46 36 33 35 46 67 102 144 182 204 213 209 194 170 138 106 79 61 50 45 46 50 58 73 95 125 157 183 200 209 
187 187 180 160 126 87 55 34 24 20 23 35 61 106 156 193 210 213 203 179 145 106 75 56 49 50 59 73 92 112 130 144 155 164 174 182 187 185 174 152 122 93 73 64 66 80 105 137 168 192 206 214 216 214 209 201 191 181 171 164 161 161 163 166 168 166 159 142 116 86 59 40 31 29 34 51 82 126 172 203 218 221 215 201 179 152 125 104 90 82 81 84 90 99 112 128 146 161 173 181 
145 152 153 145 123 93 65 44 31 25 27 38 64 109 159 197 216 221 216 200 171 132 94 68 55 53 61 78 103 132 156 174 187 195 202 206 206 201 187 162 129 99 80 74 82 103 132 162 188 204 213 216 214 209 202 193 186 180 179 181 186 192 198 203 206 205 198 183 154 115 76 47 31 26 28 40 66 109 159 198 219 228 227 220 208 191 171 154 141 133 130 130 130 128 125 123 122 125 130 137 
98 112 125 132 126 108 84 61 45 35 35 47 75 120 168 203 220 227 224 212 188 152 110 78 60 56 65 85 116 150 178 197 208 214 217 218 214 205 187 159 125 97 82 82 97 125 157 184 202 212 216 213 205 193 179 167 159 157 164 176 191 204 215 222 226 226 222 209 183 142 94 56 34 24 24 32 54 92 143 188 215 228 232 229 223 214 202 192 184 179 175 172 165 152 132 111 94 85 83 88 
62 80 104 126 136 130 111 87 64 50 48 59 89 134 179 209 224 230 228 218 196 161 117 82 62 57 66 89 124 162 191 209 219 223 223 221 214 200 176 143 111 87 78 85 108 141 174 198 212 217 215 206 189 166 143 124 115 117 129 151 177 200 218 228 234 236 233 223 201 163 111 65 37 24 22 27 44 76 124 171 205 222 229 230 227 221 216 211 207 205 204 199 188 166 134 98 71 55 49 51 
43 64 96 130 152 156 142 116 87 67 61 72 102 146 187 214 227 231 228 218 195 158 113 78 58 53 62 86 124 165 196 214 223 226 225 219 207 186 155 120 90 72 69 82 111 149 183 206 217 218 212 195 168 134 102 80 71 74 88 115 149 183 209 226 234 238 237 229 211 177 126 76 43 26 21 25 37 62 102 148 185 207 217 220 218 216 214 213 214 215 216 211 199 173 133 89 56 37 30 32 
37 62 100 141 170 179 168 141 108 82 72 81 110 153 191 215 227 230 225 212 185 144 100 66 49 46 55 78 116 159 193 214 223 225 222 213 195 167 131 95 69 57 59 75 106 147 183 206 217 217 206 184 148 106 71 50 42 43 55 79 114 155 191 215 229 235 236 231 216 186 140 89 52 32 24 25 33 51 80 118 153 177 190 194 194 194 195 199 206 213 216 215 203 177 133 86 50 30 23 25 
43 72 115 158 186 194 183 155 118 87 74 81 109 150 188 213 224 226 220 202 169 124 81 53 39 37 46 67 103 147 185 208 219 221 216 203 180 146 107 75 55 47 51 67 97 138 175 200 212 211 200 173 133 89 55 36 28 28 36 53 82 121 162 195 215 226 230 228 217 193 154 106 67 43 32 30 34 45 63 88 113 133 144 149 150 152 158 169 184 199 210 212 204 180 138 90 53 32 25 29 
62 95 138 176 198 202 187 155 115 83 68 73 98 138 178 206 219 221 212 189 150 103 64 40 31 30 38 56 88 131 171 197 210 212 206 190 162 127 91 64 48 43 47 61 87 123 159 185 199 201 190 165 126 85 53 35 26 24 27 38 58 88 126 163 191 208 218 220 214 198 168 129 92 66 51 44 43 46 54 65 77 87 93 95 95 98 108 125 150 176 197 206 203 184 147 102 65 43 37 42 
94 128 165 193 206 203 182 145 102 70 56 59 81 119 162 195 211 214 203 176 133 86 51 32 25 26 33 49 76 114 153 181 195 196 188 170 143 112 83 63 52 49 51 60 79 105 135 161 177 183 176 157 126 92 64 46 35 30 29 33 43 62 90 123 153 177 194 203 205 199 182 156 127 102 85 72 64 59 55 54 54 55 54 53 53 55 64 83 112 148 179 198 201 189 160 122 87 66 61 70 
