P2
100 100
255
130 143 155 162 161 151 134 115 97 86 83 87 100 119 139 155 165 165 157 141 120 99 82 71 66 67 73 83 98 114 130 142 148 149 145 137 128 118 109 101 96 93 92 94 100 110 122 135 147 153 155 149 137 121 105 91 82 76 75 78 84 94 106 118 128 136 142 146 149 150 148 143 137 132 126 121 117 112 106 100 93 86 79 73 68 68 72 82 98 120 141 157 165 164 155 142 128 119 116 120 
152 162 169 170 163 148 126 103 85 73 70 75 88 107 128 147 159 161 155 140 121 101 84 74 70 72 78 89 102 116 128 137 140 139 135 130 125 121 118 115 112 109 106 104 103 105 111 119 128 137 143 145 142 134 124 114 105 99 94 92 91 93 96 101 106 111 118 125 135 144 151 156 158 157 155 150 142 132 119 105 91 79 70 63 60 61 66 77 94 116 138 154 163 165 160 151 142 137 137 143 
169 176 179 177 166 147 122 96 77 66 63 68 80 99 121 142 155 160 156 144 128 110 96 87 84 86 92 102 112 122 128 131 129 126 122 120 121 124 128 132 134 132 127 119 111 104 101 103 109 118 128 137 144 146 145 140 134 127 119 110 102 95 90 88 87 90 96 106 121 138 154 166 174 178 177 173 165 152 134 114 94 79 68 61 59 61 68 80 97 117 137 151 159 160 157 153 149 149 153 160 
178 185 187 182 169 148 120 94 74 64 61 66 78 97 119 141 156 162 161 152 139 125 114 107 105 108 114 121 127 130 129 124 117 111 107 108 114 124 137 148 155 156 150 138 123 107 95 89 91 98 111 127 142 154 161 163 160 154 143 129 114 99 87 79 75 75 80 92 110 133 155 172 184 190 191 188 180 166 146 123 101 83 72 66 66 70 78 91 106 123 137 146 150 150 147 145 146 150 159 169 
181 188 190 185 171 149 122 95 76 66 64 69 82 101 123 144 159 166 166 160 152 142 135 131 131 134 139 143 143 139 130 117 105 95 91 93 104 121 142 160 172 175 170 157 136 113 93 80 77 82 96 116 138 158 172 179 179 173 162 145 124 103 86 74 68 67 72 85 104 130 155 175 188 195 197 195 187 174 154 131 109 92 82 78 80 87 96 109 121 132 138 140 138 133 130 129 132 142 155 169 
177 187 189 185 172 150 124 98 80 71 71 78 91 110 131 150 162 168 169 166 160 155 152 152 154 158 161 162 158 148 131 112 94 81 76 80 93 115 142 166 182 189 185 172 149 121 94 76 68 71 84 105 132 158 177 187 189 184 172 153 129 105 86 73 66 65 71 84 104 129 154 174 188 195 197 194 187 174 156 135 116 102 95 96 101 110 121 132 139 142 140 132 123 113 107 107 113 126 144 162 
170 182 186 182 169 149 124 102 87 80 82 91 105 123 141 156 164 168 167 164 161 159 160 163 169 174 177 176 169 154 132 107 85 71 65 69 82 107 138 167 187 196 194 183 160 129 98 76 64 65 76 98 127 155 177 188 191 186 174 153 129 105 86 74 69 70 76 89 108 131 153 170 182 187 189 186 178 167 152 135 121 113 112 117 126 138 148 155 157 152 141 124 107 94 86 85 92 107 128 151 
160 174 179 175 163 144 123 104 93 90 95 106 121 137 150 159 162 162 158 154 152 153 157 165 173 180 184 183 175 158 134 105 81 65 58 61 74 98 131 163 186 198 199 189 169 138 105 79 65 63 73 94 123 152 174 186 188 182 168 147 124 103 87 79 77 81 89 101 118 135 151 163 170 173 173 169 162 153 141 131 124 123 128 138 150 162 170 174 171 160 141 117 95 78 70 69 76 91 113 138 
150 165 170 165 153 136 118 105 99 100 109 122 137 149 156 158 155 148 141 135 133 136 144 156 168 178 184 185 177 161 136 106 81 64 56 57 68 91 124 158 183 197 200 193 174 146 114 87 71 67 76 95 122 149 169 179 180 171 156 136 116 100 90 88 91 98 108 119 131 141 148 152 153 152 150 146 140 134 127 123 123 129 140 154 168 179 186 187 180 165 140 111 86 68 59 58 65 80 102 127 
143 157 160 154 141 125 111 103 103 110 122 137 149 156 157 151 141 129 118 111 109 113 124 139 155 170 179 182 177 162 139 111 86 68 58 58 68 88 118 151 177 192 197 193 178 153 124 97 81 77 84 101 125 148 164 170 167 156 139 121 106 97 95 100 110 121 132 140 145 147 145 140 134 128 123 119 116 114 113 115 121 132 147 164 178 189 194 193 185 167 139 108 80 63 54 54 61 75 96 121 
141 151 151 142 128 113 103 100 106 118 133 148 157 159 154 141 124 107 94 87 85 90 101 118 138 157 170 176 174 164 144 120 96 78 68 65 72 89 115 145 170 186 192 189 178 158 133 110 95 91 97 111 130 148 158 159 152 138 121 105 96 95 101 115 131 145 156 161 159 153 142 128 116 106 100 97 97 98 101 108 118 132 150 167 182 192 197 196 186 167 138 106 79 61 54 54 62 77 98 121 
143 149 144 132 116 103 96 98 108 125 142 156 162 159 147 128 107 88 75 68 67 73 84 101 122 142 158 168 170 164 151 132 112 96 85 80 84 96 116 139 160 175 183 182 175 160 141 123 111 108 113 124 138 149 153 148 136 119 103 92 88 93 108 128 149 165 175 176 171 158 140 120 103 91 85 84 86 90 96 104 116 131 148 165 180 190 195 194 184 165 137 105 79 63 57 59 68 85 106 128 
149 150 141 125 108 96 92 98 112 131 150 162 165 158 141 117 93 75 63 57 58 63 74 90 110 130 147 158 163 163 156 145 132 119 109 103 103 108 120 135 149 161 168 170 166 157 146 134 126 125 129 137 145 149 147 137 121 104 89 81 82 93 113 138 162 179 187 187 178 162 140 116 97 85 80 81 85 90 97 105 114 127 142 158 172 183 188 188 180 162 135 106 82 68 63 67 79 98 119 138 
157 153 139 121 103 92 91 100 117 138 157 168 168 157 135 109 84 67 57 54 55 62 72 87 104 121 136 148 155 159 159 156 151 144 137 130 126 124 125 129 136 143 148 151 152 149 145 140 138 138 142 146 150 149 141 128 110 93 81 75 79 92 115 143 168 185 192 191 181 164 141 117 99 88 84 87 92 98 103 108 114 122 132 145 159 170 177 178 171 156 132 106 86 74 72 79 94 114 135 150 
163 155 138 118 100 91 92 103 123 145 163 172 170 156 133 105 81 65 57 56 60 68 79 92 105 118 128 136 144 150 157 162 164 164 161 155 147 138 129 123 121 121 124 128 133 136 139 142 144 146 149 151 151 146 136 121 104 88 77 73 78 92 115 143 167 184 191 189 180 164 143 121 105 97 96 100 106 111 113 114 113 115 120 129 140 152 161 164 160 148 129 107 91 82 83 92 109 130 149 161 
166 155 136 115 98 90 94 107 129 152 169 176 172 157 133 106 83 69 64 66 73 83 94 105 113 118 121 124 129 138 149 161 171 177 178 174 163 148 131 116 105 100 100 105 113 122 131 138 144 149 151 151 148 141 131 117 102 89 80 77 81 93 114 138 160 175 182 181 173 160 143 127 116 112 114 119 124 127 124 119 112 107 106 111 119 131 142 148 148 139 125 109 96 90 93 105 123 143 159 167 
165 151 131 111 95 89 95 110 132 155 171 178 174 159 136 110 90 78 76 82 93 105 116 122 123 119 114 110 112 121 136 154 171 182 187 184 172 153 129 106 90 82 81 85 95 108 121 133 142 146 147 146 141 135 127 117 106 96 89 86 88 97 111 129 146 159 165 165 160 151 140 131 127 128 133 138 142 141 134 122 109 99 93 94 101 111 123 133 136 133 123 112 103 100 104 116 134 151 164 169 
160 145 125 105 91 87 93 110 132 154 170 177 173 160 139 117 100 93 95 105 118 131 140 141 133 120 107 97 95 102 119 141 164 181 189 187 175 152 124 97 78 68 67 72 83 99 115 129 138 142 141 137 133 128 124 120 115 110 105 102 101 103 109 118 128 136 141 142 140 137 134 133 136 142 149 154 156 151 139 122 105 91 83 82 87 97 110 122 129 130 125 117 111 109 114 126 141 155 165 167 
154 138 118 99 87 83 90 105 127 148 164 171 169 158 142 125 113 111 117 130 144 156 160 155 140 119 99 84 79 85 101 127 154 175 186 185 172 147 116 88 69 60 59 65 78 96 114 129 136 137 133 127 122 121 122 125 128 129 128 124 119 114 110 109 110 112 114 116 118 121 125 133 142 152 160 165 164 155 139 120 100 85 76 75 80 90 105 119 129 133 131 126 122 120 125 134 146 157 164 163 
149 133 113 95 83 79 85 98 117 137 152 160 160 153 142 131 126 128 138 152 165 174 174 164 143 116 90 73 66 71 86 112 142 167 180 180 166 139 107 80 62 55 56 65 81 101 120 133 138 135 126 117 112 113 120 130 141 149 151 148 140 128 115 103 94 90 89 92 97 105 117 132 146 159 167 170 166 154 136 114 94 80 72 72 78 91 107 123 135 141 142 138 134 132 135 141 150 158 162 159 
148 131 112 94 81 77 79 89 104 121 135 144 147 144 139 135 135 142 154 167 178 184 180 166 140 110 83 65 58 62 76 102 133 159 174 173 158 131 100 75 60 55 59 71 91 113 132 143 144 135 121 108 102 105 116 134 152 166 172 170 160 143 122 101 85 75 72 75 82 95 112 132 150 163 171 171 164 149 129 107 89 77 72 73 82 97 115 133 146 153 154 151 146 144 144 149 155 160 162 159 
152 136 117 98 84 77 76 82 92 105 117 126 131 133 133 135 141 151 164 176 185 187 180 163 135 103 77 60 54 58 72 97 128 154 168 167 152 125 95 72 60 59 67 84 108 132 150 157 153 138 118 101 92 96 111 134 159 177 187 186 177 157 131 103 81 67 63 65 74 90 111 134 153 167 172 169 158 141 120 99 84 75 73 78 90 107 127 145 158 164 164 161 156 152 152 154 159 163 165 161 
159 146 128 109 93 82 77 78 83 91 101 110 117 122 127 134 144 156 168 179 185 185 176 157 129 98 74 59 55 60 75 99 129 153 166 163 147 121 94 74 66 68 82 104 130 154 169 172 162 142 116 95 84 86 103 130 159 182 195 196 188 168 139 107 81 65 59 62 72 90 114 139 158 169 171 165 151 132 111 93 80 75 77 85 100 119 139 156 167 171 170 166 160 156 154 156 161 166 168 167 
168 158 143 124 106 92 82 78 79 84 91 99 107 115 123 133 145 157 169 177 182 180 169 150 123 96 75 63 61 68 84 109 136 157 166 162 146 121 96 80 75 83 101 128 154 175 185 184 171 146 115 89 76 77 93 121 154 181 197 201 194 176 147 113 84 66 60 63 76 96 121 145 162 170 169 159 142 122 102 87 79 77 82 93 110 130 148 163 170 172 169 163 156 151 150 153 159 166 171 172 
176 170 159 142 123 106 93 85 82 84 89 96 105 114 124 134 145 156 166 172 174 171 160 142 119 97 80 73 74 83 101 124 147 164 169 163 146 123 101 88 88 100 123 151 175 191 198 194 178 150 115 85 69 68 82 110 145 176 195 202 197 181 152 118 88 70 64 68 83 105 130 152 166 170 165 152 133 113 96 84 80 81 89 102 120 138 153 163 167 165 158 150 141 136 136 140 149 160 169 175 
179 178 171 158 141 123 107 97 91 91 95 102 110 119 129 138 146 154 160 163 163 158 148 133 116 101 91 88 93 106 123 144 161 172 173 164 146 124 106 97 100 117 142 169 190 202 206 200 182 152 115 82 64 61 72 97 132 166 189 198 196 182 156 123 94 76 70 76 92 114 139 158 168 168 159 143 124 106 92 85 84 89 99 113 128 143 153 157 155 148 138 127 118 113 114 121 132 147 162 173 
177 181 178 169 155 138 123 111 105 105 109 115 123 131 138 144 148 150 151 150 147 141 133 124 114 107 105 109 118 131 147 162 173 178 175 163 144 123 108 102 109 128 154 179 198 208 209 203 184 153 115 81 61 55 64 85 118 153 179 192 192 180 156 126 99 82 78 85 101 123 145 160 165 162 150 134 116 101 92 89 92 100 111 125 137 146 149 147 139 127 113 101 92 88 89 97 110 129 148 165 
167 176 178 172 162 148 135 125 121 122 126 133 140 146 149 150 148 144 139 133 128 122 117 113 111 113 119 129 142 155 167 177 182 181 173 158 138 118 104 101 110 131 157 181 198 208 209 202 184 154 115 81 60 53 58 76 105 139 167 183 185 175 154 128 103 89 86 94 110 130 147 158 159 152 139 124 109 100 96 98 105 116 127 138 146 148 145 135 121 105 89 77 70 66 68 75 88 107 129 151 
153 165 170 168 160 150 140 134 134 137 144 151 158 161 160 156 148 137 125 115 107 102 100 101 107 117 130 145 160 172 181 185 185 179 167 148 127 108 96 95 104 124 150 174 192 202 205 199 182 153 116 83 62 53 56 71 96 127 155 172 176 168 150 127 107 95 93 101 116 132 145 151 149 140 128 115 106 103 105 113 123 135 145 152 155 152 142 126 107 88 73 61 55 52 53 58 69 87 109 133 
136 150 156 155 150 143 138 136 140 148 157 165 171 172 168 159 145 128 112 98 89 85 85 90 101 117 137 156 171 182 188 188 184 173 156 134 112 95 85 84 92 109 133 158 178 190 195 192 177 152 119 88 67 57 59 70 92 119 145 162 167 160 145 125 109 99 99 106 118 131 139 141 136 127 117 109 107 111 119 131 144 155 163 166 165 157 143 123 101 81 65 54 47 45 45 49 58 73 92 115 
120 133 139 138 133 129 127 130 139 151 163 173 178 178 172 160 141 120 100 85 75 71 73 81 95 115 138 160 176 186 189 187 178 163 142 118 97 81 73 72 78 91 111 134 155 171 180 179 170 150 122 96 76 67 67 76 94 117 139 154 158 152 139 123 109 102 103 109 119 127 132 130 124 117 110 108 112 122 136 150 163 172 177 178 173 164 148 127 104 83 66 55 48 45 45 48 55 66 83 102 
112 120 123 120 115 111 112 118 130 146 162 173 180 179 172 157 136 112 91 75 66 63 66 75 90 112 137 160 176 185 186 181 169 150 127 103 84 71 64 62 66 75 89 108 128 146 158 163 159 146 127 107 91 82 82 89 104 122 139 149 151 145 133 120 109 104 106 111 118 123 124 121 115 110 108 112 122 136 152 167 177 184 186 184 179 169 155 136 115 95 79 66 58 54 52 54 60 70 83 99 
113 116 113 106 99 95 96 104 118 136 153 167 174 175 167 152 130 107 86 72 63 61 64 73 89 111 136 158 173 181 180 172 157 136 112 90 74 64 58 56 58 64 73 86 103 119 134 144 147 142 132 120 109 103 103 109 120 132 143 149 147 140 129 117 109 106 107 112 117 120 119 116 111 109 111 120 134 150 166 178 185 189 188 185 179 171 160 147 132 116 102 89 80 74 71 72 77 85 95 105 
124 120 111 101 91 85 85 91 104 121 139 154 163 164 158 144 125 104 86 74 66 65 68 77 92 113 136 156 169 174 172 161 144 122 100 82 69 61 57 56 56 59 65 74 85 99 113 126 134 138 137 133 129 127 128 132 139 146 150 151 146 136 125 115 108 106 108 112 116 118 117 115 112 113 118 130 145 160 174 182 186 185 182 176 171 166 161 156 149 141 132 123 114 107 103 103 105 110 117 122 
140 131 118 103 90 82 79 83 93 107 123 137 146 149 146 136 121 106 92 82 77 76 80 88 102 119 138 154 164 166 161 149 131 111 92 77 68 63 61 61 62 64 67 71 79 88 100 112 124 133 139 143 145 147 150 153 156 158 158 154 145 134 122 112 107 106 108 113 117 119 119 117 117 120 127 139 153 166 174 178 177 171 164 157 153 152 154 159 162 163 161 157 152 146 142 140 140 142 144 144 
157 146 130 113 98 86 80 80 86 95 107 118 127 132 132 127 120 112 104 99 96 96 99 106 117 130 143 153 158 157 149 135 118 101 86 77 72 71 72 74 76 78 79 81 83 88 95 105 116 128 138 147 155 160 164 167 169 168 164 156 145 132 119 110 105 106 109 114 119 122 122 122 123 127 135 145 156 164 167 165 157 147 136 128 125 129 139 153 167 177 182 183 181 178 174 171 169 168 167 163 
168 158 144 128 111 98 89 84 84 88 94 102 109 114 119 121 122 122 122 122 122 123 125 129 135 142 148 152 151 146 135 122 107 93 84 80 80 84 90 96 101 103 103 101 99 97 98 103 110 121 133 145 156 165 171 174 174 172 165 155 143 129 117 108 105 106 111 116 122 125 127 128 129 133 139 147 152 155 152 143 130 116 103 96 95 102 118 141 164 182 193 198 198 196 192 188 185 182 179 175 
172 165 155 143 129 115 104 95 89 87 87 90 94 101 108 117 126 135 141 146 148 150 151 152 152 153 152 149 143 134 122 109 97 88 84 86 93 103 115 126 133 136 134 129 121 113 106 104 106 113 124 137 150 161 168 173 173 170 162 152 139 125 114 108 106 108 113 120 125 129 131 132 133 135 139 142 143 140 131 117 102 86 75 68 69 78 97 125 155 179 194 202 203 201 197 192 187 183 179 176 
166 165 162 156 147 135 123 110 99 90 85 83 85 92 102 116 132 147 158 166 170 171 170 168 164 159 152 144 134 122 110 98 89 85 86 94 107 124 141 155 163 167 164 157 145 130 117 106 102 105 113 125 138 150 159 164 165 162 155 144 133 121 113 109 109 113 119 125 130 133 133 133 132 132 133 132 129 122 110 94 79 65 56 51 53 62 81 110 143 171 189 198 199 196 189 181 174 169 166 166 
151 158 163 164 161 154 143 129 113 99 88 82 81 87 100 117 137 156 170 179 183 183 180 175 168 158 148 136 124 112 100 91 85 85 91 103 122 143 162 177 186 188 186 177 163 144 125 109 99 97 102 111 124 135 144 150 151 148 142 133 125 118 113 113 115 121 127 132 135 136 134 131 128 125 123 120 115 106 93 79 65 54 47 43 45 54 71 98 131 160 179 187 186 180 169 158 148 143 141 145 
130 145 159 168 171 169 160 146 128 110 94 85 82 87 100 119 142 162 177 185 188 187 182 174 164 152 140 128 115 104 95 88 85 88 97 113 134 157 176 190 198 200 197 188 173 152 129 110 97 92 94 101 111 121 128 132 133 130 125 120 116 114 115 119 126 132 138 141 142 138 133 126 120 116 113 109 104 96 85 73 62 52 46 44 46 54 69 93 123 148 165 170 165 154 139 125 114 109 110 118 
110 131 152 168 177 178 173 161 143 122 103 91 86 90 103 122 144 163 177 184 185 182 174 165 153 141 130 120 110 102 95 91 90 95 105 123 144 165 183 195 201 202 199 189 173 152 129 109 96 91 92 97 104 110 114 115 114 111 108 107 107 112 119 129 138 146 151 152 148 141 131 121 112 106 103 101 98 93 86 77 68 60 55 52 54 62 76 96 120 139 150 149 140 124 107 93 83 79 83 93 
94 119 144 165 179 183 181 170 154 133 113 99 92 95 106 124 144 161 172 176 175 169 160 149 138 128 120 114 110 106 103 101 102 106 117 132 151 169 184 193 198 198 192 182 166 146 125 109 99 96 98 102 106 108 107 103 99 94 93 94 100 110 124 139 152 160 164 162 155 143 129 115 104 99 97 98 99 99 96 91 85 78 73 71 73 80 91 107 123 135 137 130 116 98 82 69 62 60 65 76 
87 112 139 162 177 184 183 175 161 142 122 107 100 101 109 124 140 153 161 162 158 150 139 129 121 116 114 114 115 116 117 117 118 122 130 141 156 169 180 186 188 185 178 166 151 134 120 110 107 108 113 116 118 114 107 97 88 82 80 84 93 109 129 149 164 173 175 171 161 145 126 110 98 93 94 100 107 112 115 115 111 107 103 100 102 106 115 125 132 135 129 116 99 81 67 57 52 52 57 68 
86 109 135 158 174 181 182 176 164 147 129 115 106 106 112 122 133 142 145 143 136 127 117 110 107 108 112 119 126 132 135 136 137 138 142 149 157 165 171 173 171 165 156 143 130 119 113 113 118 126 134 138 137 128 114 97 83 74 71 76 88 109 133 157 174 182 184 178 164 145 124 106 94 91 95 105 118 130 139 142 143 140 137 135 135 137 140 143 144 138 126 109 91 74 62 55 52 53 58 69 
92 111 133 153 167 174 176 171 161 148 133 120 111 109 112 118 124 127 127 122 114 106 99 96 98 105 116 129 141 149 153 154 153 152 152 153 156 158 158 155 149 140 128 117 108 104 108 118 132 147 158 162 159 146 126 102 82 70 66 70 84 107 136 162 180 188 189 181 166 145 122 103 93 92 100 114 131 147 159 166 168 168 165 163 162 161 160 158 152 142 126 107 90 75 66 61 59 61 67 77 
102 116 131 145 156 163 164 162 155 144 133 122 114 111 110 112 114 113 110 104 97 90 87 89 96 109 125 141 155 163 167 167 164 159 155 152 150 147 142 135 125 113 102 93 89 92 104 123 146 166 179 183 178 163 139 110 84 68 62 66 81 106 136 164 182 191 190 181 164 142 119 101 93 95 106 123 143 160 173 180 183 183 181 178 176 173 170 165 156 143 127 109 94 82 76 74 74 77 83 91 
114 120 128 135 142 146 148 148 144 137 129 121 115 111 108 106 105 101 97 91 86 83 84 90 101 118 136 153 165 172 174 171 166 159 152 146 140 134 127 117 104 92 82 75 75 83 102 128 157 180 193 198 193 177 150 117 87 68 61 64 79 104 135 163 181 189 187 177 160 138 116 101 95 100 113 131 151 167 178 184 185 184 182 179 176 173 169 162 153 141 126 113 102 95 92 93 96 100 104 109 
125 123 122 122 124 127 129 131 131 129 125 120 115 110 106 102 99 94 89 85 82 82 87 97 112 130 148 162 171 175 173 167 158 149 140 134 128 122 114 104 92 80 70 65 67 78 100 131 163 188 202 206 201 185 158 123 91 70 61 64 79 104 134 161 178 184 181 170 152 131 113 101 99 106 120 138 155 168 175 177 177 174 171 167 164 162 158 153 145 136 126 117 112 110 112 117 122 126 128 127 
133 123 114 108 106 107 110 115 119 121 121 119 116 111 106 101 97 92 88 85 85 88 96 109 125 142 157 167 172 170 163 153 141 131 123 118 116 113 107 99 88 77 67 62 64 76 99 131 164 190 204 208 203 188 162 127 94 73 64 67 82 105 133 157 172 176 171 158 141 124 110 103 105 115 128 143 155 163 165 163 158 153 148 145 144 143 142 139 135 130 125 122 122 126 133 140 146 149 148 142 
136 120 105 95 91 92 96 103 111 117 121 121 119 115 110 104 99 95 92 92 94 99 109 123 138 153 163 168 166 159 147 132 119 109 104 103 105 108 107 103 93 82 71 65 65 75 96 127 160 185 200 205 201 186 161 128 97 77 70 74 88 110 134 154 164 164 157 144 129 116 108 107 113 124 137 147 154 154 150 142 133 126 121 119 120 123 125 127 128 127 126 128 132 140 149 158 164 165 161 151 
136 115 98 86 81 82 88 97 108 118 125 127 126 123 117 112 107 103 102 102 106 113 124 137 149 160 165 164 157 143 126 110 96 89 87 91 99 108 114 114 107 95 82 72 69 75 92 118 149 175 190 196 192 178 154 125 100 84 80 86 100 120 138 151 155 151 141 128 116 109 107 113 123 135 145 151 151 144 133 120 108 100 96 97 101 108 115 121 125 127 130 134 141 150 160 169 174 174 168 155 
133 111 92 80 76 78 86 99 112 125 133 137 137 134 128 123 118 115 114 116 120 127 137 147 157 163 163 158 145 127 107 90 78 73 75 84 98 114 127 132 127 115 99 84 76 76 87 108 134 157 173 179 176 163 143 120 102 92 93 102 117 133 145 150 147 138 125 113 105 104 109 120 134 146 153 154 148 135 118 102 90 83 81 85 92 102 113 121 128 132 136 141 148 157 166 174 178 177 169 154 
130 108 90 79 76 81 91 106 122 136 145 149 149 146 141 136 131 128 127 129 132 138 145 153 159 162 159 150 134 114 93 77 67 65 70 83 102 125 143 152 150 138 119 100 85 79 83 97 116 135 149 155 152 142 127 112 103 102 109 122 136 148 153 151 141 126 111 101 97 101 113 128 144 156 161 157 146 128 108 91 80 75 76 82 93 106 118 128 135 139 141 145 151 159 168 175 178 176 168 152 
128 107 90 82 81 88 102 119 136 149 158 161 160 157 152 146 142 139 137 138 140 143 148 153 157 158 154 143 126 106 86 72 63 62 70 86 110 136 158 169 169 159 139 116 97 84 82 88 100 113 123 128 125 118 110 104 104 112 126 141 155 162 161 151 135 116 100 92 92 101 117 136 154 164 166 160 145 124 104 87 78 75 79 88 101 115 128 137 142 144 144 146 151 158 166 172 176 173 165 149 
126 107 93 86 88 98 114 133 150 162 169 171 169 164 158 153 148 144 142 141 141 142 145 149 152 153 149 139 124 105 87 73 66 66 74 92 119 147 170 182 183 174 156 132 108 92 84 84 90 97 103 105 102 98 95 96 105 120 139 157 169 172 166 151 129 108 92 85 89 102 122 143 160 170 170 161 144 123 103 88 81 81 88 99 113 126 137 143 145 143 142 142 146 152 161 168 172 170 161 146 
125 107 95 91 96 109 127 146 162 172 176 176 172 166 159 153 147 143 140 137 136 136 138 141 145 147 146 139 127 111 95 81 73 73 82 100 127 155 176 188 190 182 166 143 120 101 90 87 88 91 92 91 88 85 85 91 106 126 149 167 177 177 167 147 123 100 86 81 87 103 125 147 164 172 170 160 143 123 105 93 89 91 99 111 123 134 140 142 140 135 132 132 136 144 154 162 167 166 158 143 
122 106 96 94 101 116 136 155 169 177 180 177 171 162 154 146 139 134 131 128 126 126 128 132 138 143 145 143 135 123 108 94 85 83 91 108 132 158 178 189 190 184 170 150 129 111 101 96 96 95 93 89 84 80 81 90 106 129 153 171 179 177 163 141 115 93 80 78 86 104 126 148 164 170 167 156 140 122 108 100 98 102 110 120 129 134 136 133 127 120 116 117 123 134 146 157 163 162 154 139 
117 102 93 93 102 119 139 158 172 178 179 173 164 153 142 132 125 120 117 114 113 114 118 124 133 141 148 150 146 137 123 109 98 94 99 113 133 155 173 183 185 179 167 151 135 122 115 112 111 110 105 98 90 84 83 91 107 130 153 170 176 171 155 131 105 85 75 75 85 103 126 146 159 164 160 149 135 121 111 106 107 112 118 125 128 128 124 116 108 102 99 102 111 125 140 153 160 159 150 134 
109 95 87 88 98 115 136 156 169 175 174 166 154 139 126 115 108 103 101 101 102 105 111 120 131 143 152 157 157 150 138 123 110 103 104 113 129 147 162 171 173 168 159 148 137 131 129 130 132 131 125 115 103 93 90 95 109 130 150 165 169 162 144 120 96 79 72 74 85 102 123 141 152 154 149 139 127 118 112 111 114 119 123 125 123 117 108 98 90 85 84 91 103 121 138 152 159 156 145 128 
101 86 79 80 90 107 128 149 163 169 167 156 141 124 109 98 91 88 88 90 93 99 108 120 134 147 158 164 165 159 148 132 118 108 105 110 121 135 147 155 156 153 147 140 137 137 142 148 152 153 147 135 120 107 100 101 112 129 146 158 160 151 133 110 89 75 71 75 86 102 120 135 142 142 135 127 118 113 112 116 120 125 126 123 115 105 93 83 76 73 77 87 103 123 142 156 160 155 141 121 
92 77 70 71 80 96 118 139 155 162 159 147 130 111 95 85 79 77 79 83 90 99 111 125 140 153 164 169 169 163 151 135 119 107 102 103 111 121 130 137 138 136 133 131 133 140 150 161 168 170 165 153 137 121 111 109 116 129 142 151 151 142 124 104 86 76 74 79 90 105 119 129 131 128 121 114 109 109 113 119 126 130 128 121 110 96 84 75 70 71 78 92 112 134 152 163 165 155 137 114 
84 69 62 63 71 87 108 131 148 156 153 141 123 103 87 77 72 71 75 81 91 104 118 134 148 160 168 171 169 161 147 131 114 102 96 96 101 109 117 122 123 122 121 123 129 140 154 167 176 179 175 164 148 132 120 116 120 130 141 148 147 138 122 104 90 83 83 89 100 112 121 125 123 116 109 103 102 105 114 123 132 135 132 123 109 95 82 75 73 78 89 107 129 150 165 173 170 157 134 108 
79 64 57 58 65 80 102 125 144 153 151 139 121 101 85 74 69 70 75 84 97 112 129 145 157 166 170 170 164 153 138 121 106 95 91 91 96 103 110 114 115 114 114 117 125 138 153 167 177 180 176 166 152 136 125 121 125 134 143 149 148 140 127 113 102 97 99 106 115 123 127 125 118 108 99 95 96 104 116 129 138 142 139 129 114 100 89 84 85 94 109 129 150 168 179 182 176 159 132 103 
76 61 55 56 64 79 101 124 144 154 153 143 125 105 88 77 72 73 79 91 106 124 141 155 165 170 170 165 155 141 125 109 97 89 88 91 97 105 111 115 116 115 114 116 123 135 149 161 170 172 168 159 146 133 125 123 129 138 148 154 154 148 138 128 121 119 122 128 135 138 137 129 116 103 94 91 94 105 120 135 146 150 147 138 125 112 103 101 106 117 134 153 170 183 190 189 179 159 131 100 
76 62 57 59 68 84 106 130 149 159 159 150 133 113 96 84 79 80 87 101 118 136 152 164 170 171 166 156 142 126 110 97 89 86 89 95 104 114 121 125 125 122 120 120 124 132 142 151 156 157 152 143 132 123 119 122 131 143 154 161 162 159 153 146 142 142 146 151 155 154 148 135 118 103 93 90 96 109 126 142 154 158 156 148 137 128 122 122 130 142 158 173 185 193 196 192 179 158 129 99 
78 67 64 67 78 95 117 139 157 166 166 158 143 125 107 95 89 90 98 112 130 147 161 169 172 168 159 145 128 111 97 88 85 87 94 105 118 129 136 139 138 134 129 126 126 129 133 137 138 136 130 121 114 109 110 118 131 146 159 167 170 169 165 162 161 162 166 170 171 168 158 142 123 106 95 93 100 115 133 149 160 165 163 156 148 141 138 141 149 161 173 184 192 196 195 188 175 153 125 99 
84 77 77 83 95 113 133 151 165 172 172 165 152 136 119 107 102 103 111 125 141 156 167 172 171 163 149 132 114 98 88 83 84 92 104 119 134 146 153 155 152 147 140 134 129 127 125 123 120 114 107 100 95 94 100 113 130 148 162 171 175 175 173 171 172 174 178 181 181 176 165 148 128 111 100 100 108 123 140 155 165 168 166 160 153 148 147 151 159 169 178 186 190 190 187 178 164 144 120 99 
94 92 96 105 118 134 150 163 172 176 175 169 158 144 130 120 115 116 124 136 150 162 170 171 167 155 138 119 101 88 81 81 87 100 117 135 151 162 167 167 163 156 148 139 132 125 119 112 105 96 89 82 80 82 91 107 127 147 162 171 174 174 172 171 172 176 180 184 184 179 167 151 132 117 108 108 117 132 147 160 166 167 163 156 149 145 145 149 156 164 171 175 176 174 169 159 146 130 114 101 
106 111 120 130 142 154 164 172 176 177 174 168 159 148 137 129 125 128 135 146 157 166 170 169 160 146 126 107 90 80 77 81 91 108 129 148 164 173 176 174 168 160 151 141 132 124 115 106 96 86 78 72 71 75 85 102 123 143 157 165 167 164 162 160 162 166 172 176 177 173 164 150 135 122 116 119 128 141 153 162 164 161 154 145 137 133 132 136 142 148 152 154 152 148 142 133 124 115 108 104 
118 130 142 153 162 169 173 175 175 172 168 162 155 146 139 134 132 135 142 152 161 167 169 165 154 136 116 96 82 75 75 82 96 116 139 158 172 178 179 175 167 158 148 139 131 123 114 104 93 83 74 69 68 73 83 99 119 137 149 154 152 147 142 139 141 146 153 159 162 161 154 144 134 126 124 129 138 149 157 161 158 151 140 128 119 114 113 115 119 123 126 125 122 117 112 106 102 101 103 109 
129 144 158 167 173 176 175 172 168 163 157 152 146 140 136 133 134 138 145 154 162 166 166 160 147 128 107 89 77 71 73 83 99 122 145 164 175 179 177 170 160 149 140 132 126 121 115 107 97 87 78 72 71 75 85 100 116 130 138 139 133 124 116 112 113 118 125 133 139 141 139 134 130 128 131 137 146 154 159 157 149 137 122 109 99 93 92 94 97 99 100 99 95 91 88 86 86 91 100 113 
136 152 165 172 175 174 170 164 157 150 143 138 134 130 128 128 130 136 143 152 159 164 163 156 143 123 102 85 73 69 72 82 100 123 146 164 174 176 171 161 149 137 128 122 120 119 117 112 105 96 87 81 79 83 91 103 116 126 129 124 114 102 92 87 86 90 97 105 113 118 120 122 124 128 135 144 152 157 157 151 138 122 105 91 82 77 77 78 81 83 83 82 79 77 75 76 80 88 101 118 
138 153 163 168 168 164 157 150 141 134 128 124 121 119 118 119 123 128 136 145 154 159 160 154 141 122 102 84 73 68 71 81 98 121 144 161 170 170 163 151 136 123 115 112 113 117 120 120 116 110 102 96 93 95 101 111 120 125 123 115 101 87 76 70 68 70 76 83 90 97 104 110 117 127 137 148 155 158 154 143 127 108 91 79 71 69 69 72 75 78 79 79 77 76 75 77 82 92 105 122 
136 146 152 154 152 147 140 133 126 120 115 112 110 109 108 109 111 117 125 135 145 153 157 154 143 127 107 88 76 69 70 79 94 116 138 155 164 164 156 142 126 112 104 102 107 114 123 128 129 125 119 113 110 111 115 122 127 129 124 112 97 82 70 62 60 60 64 69 76 83 91 101 112 125 138 149 156 156 149 135 116 98 82 72 67 67 70 75 81 86 89 90 89 88 88 90 94 102 112 124 
130 133 135 134 131 126 122 117 113 111 108 106 104 101 99 98 99 103 110 121 134 146 154 156 149 136 117 98 83 73 71 77 90 109 130 148 158 159 151 136 120 105 97 96 102 113 125 135 140 139 136 131 127 127 129 134 137 136 130 118 103 87 74 66 61 60 62 65 70 77 85 96 110 124 139 149 154 152 143 127 108 91 78 72 70 74 81 90 99 106 111 113 114 113 112 112 114 117 121 126 
122 118 115 111 109 107 106 107 108 109 109 107 104 99 93 89 87 89 95 106 121 137 151 159 158 148 132 113 94 81 75 76 86 102 123 141 153 156 150 136 120 105 96 95 101 113 127 140 148 150 149 145 142 140 141 144 146 146 141 131 117 103 90 80 74 70 69 70 73 78 85 96 110 125 139 149 152 148 137 120 103 88 79 77 80 89 100 113 125 134 140 143 144 143 141 139 136 133 129 125 
112 103 97 93 92 94 98 104 110 115 117 115 109 101 92 83 78 77 81 92 109 129 149 162 167 163 151 132 111 93 82 78 84 97 116 136 150 156 152 141 125 110 100 98 103 114 129 143 152 157 157 154 150 148 148 150 153 154 152 147 138 127 115 105 97 91 87 84 83 86 91 101 114 128 140 148 150 144 132 116 101 90 85 88 96 110 126 141 154 163 168 171 171 169 166 161 154 145 135 123 
104 92 85 82 83 89 98 108 119 127 131 128 121 108 94 82 73 69 71 81 98 121 146 166 176 177 169 152 131 109 92 83 84 94 111 131 148 157 157 149 135 120 109 104 108 117 131 145 154 159 159 156 152 148 148 150 154 158 161 161 158 152 145 137 128 120 112 105 100 99 101 109 120 132 143 149 149 142 129 115 102 95 95 102 116 133 151 166 176 183 187 188 187 184 180 174 165 152 137 120 
99 87 79 78 82 91 104 119 133 144 148 145 135 120 102 84 72 65 65 73 89 115 143 168 183 188 184 171 151 127 105 91 86 92 107 127 146 158 161 156 145 131 119 113 114 122 134 146 155 159 158 154 148 143 141 143 148 155 163 169 172 172 169 165 158 149 139 129 120 114 114 119 127 138 146 151 149 141 129 116 106 102 106 118 135 153 169 182 189 193 194 193 191 188 184 177 167 153 135 116 
98 87 82 82 88 100 116 133 149 159 164 161 151 134 113 92 75 65 63 68 84 109 140 168 187 195 194 185 167 144 119 99 90 92 104 123 142 157 163 161 153 141 129 122 121 126 136 146 153 156 154 148 139 132 128 129 135 145 157 168 177 182 184 183 179 171 161 149 137 129 126 128 135 143 150 153 151 143 131 119 111 110 117 130 148 165 179 188 192 193 191 188 184 180 176 170 160 148 131 114 
103 95 91 93 101 113 129 146 161 171 176 174 165 150 128 105 85 71 65 67 80 104 135 165 187 198 200 194 179 157 131 108 94 93 101 118 137 153 161 162 156 145 135 128 126 130 138 146 152 153 149 140 129 119 113 113 118 129 143 158 172 182 188 190 188 182 172 160 148 138 134 135 141 148 154 157 154 146 135 124 117 117 124 137 153 168 178 184 184 181 176 171 166 162 158 154 148 139 128 115 
113 109 107 109 116 127 140 154 167 176 181 181 175 163 145 122 99 81 71 70 79 100 129 160 183 197 201 198 186 165 139 115 98 92 98 112 129 145 154 157 153 144 135 129 128 132 139 146 150 149 143 133 120 107 99 97 100 110 124 141 157 171 180 185 185 181 173 162 150 141 137 138 144 152 158 160 157 149 139 128 121 120 126 137 150 161 167 169 165 159 151 143 137 134 133 133 133 131 126 120 
129 127 127 128 132 138 146 155 164 172 178 182 180 174 160 140 118 97 82 75 80 95 121 150 175 191 198 196 186 168 143 118 100 92 94 105 120 134 144 147 144 138 131 126 126 130 137 144 147 146 139 127 113 100 90 85 86 92 104 119 136 151 163 170 172 170 163 154 144 137 135 138 145 153 159 162 160 153 142 132 124 121 124 131 139 145 147 144 137 128 118 110 106 105 108 114 121 126 129 130 
146 147 146 145 143 143 144 147 152 160 168 175 179 179 172 157 137 115 95 83 81 90 110 136 161 179 188 189 181 165 142 118 100 91 91 99 111 122 131 134 132 127 122 119 120 126 133 140 144 143 136 125 111 97 86 79 77 80 87 98 111 125 137 146 150 149 145 139 133 129 129 134 142 152 159 163 161 155 145 135 126 121 119 121 123 124 122 115 107 97 88 82 80 83 90 101 114 127 137 143 
163 164 162 157 149 141 134 131 132 138 149 161 171 178 178 170 154 132 110 92 83 86 98 119 142 161 173 176 171 156 136 115 99 90 90 95 104 113 119 121 119 115 111 110 113 119 127 134 139 140 135 126 114 101 90 82 77 76 78 83 91 101 110 118 123 125 124 121 118 118 121 128 137 148 156 160 160 156 147 137 128 120 114 111 108 103 98 90 82 74 68 65 65 71 81 97 115 133 148 158 
176 176 172 163 149 134 120 110 108 112 123 139 157 171 178 177 166 146 122 100 86 82 87 102 120 139 152 158 155 144 128 111 98 91 91 95 101 107 111 111 108 105 102 102 105 111 119 127 134 136 135 129 121 111 101 93 86 81 78 78 80 84 89 95 100 103 105 106 106 108 113 120 130 140 149 155 157 154 148 140 131 121 113 105 97 89 81 73 66 60 57 57 60 69 82 101 123 144 160 170 
183 182 176 164 146 125 105 91 85 87 98 116 138 158 173 177 172 156 133 108 89 79 79 87 101 117 130 137 137 130 119 108 99 95 95 99 104 108 109 107 103 99 96 96 98 104 112 120 128 133 135 135 131 126 119 111 103 95 87 82 78 77 79 82 86 90 94 96 99 102 106 113 121 130 139 145 150 151 149 144 136 127 117 105 93 82 72 64 59 55 54 57 63 75 91 112 135 155 170 179 
185 183 175 161 140 116 93 77 68 68 77 94 118 143 163 173 173 161 140 115 94 80 76 79 88 100 112 119 122 119 113 106 102 101 104 108 112 114 113 109 104 98 95 93 95 100 107 115 123 131 137 141 142 142 139 134 126 116 105 94 86 81 79 80 83 88 92 96 98 100 102 106 111 117 125 133 140 145 148 148 145 138 127 114 99 85 73 64 59 57 59 64 73 87 105 125 146 163 175 182 
180 178 171 156 135 110 86 69 60 58 64 78 101 127 151 167 170 162 145 122 100 85 78 78 83 92 101 109 112 112 111 109 109 111 115 120 124 125 122 117 110 103 98 95 96 99 105 112 121 130 138 146 152 156 157 155 149 139 127 114 102 94 89 89 92 96 101 104 105 104 102 100 100 103 109 117 127 138 147 153 155 151 142 129 113 96 82 72 66 66 69 76 88 103 120 137 153 165 174 179 
169 168 162 151 132 109 86 69 58 55 58 70 89 115 141 159 167 163 149 130 110 94 85 83 86 92 99 106 110 112 113 115 118 123 129 134 137 137 133 127 118 110 104 101 100 103 107 114 122 131 141 150 159 166 169 170 166 159 148 135 122 113 108 107 110 114 118 119 117 111 103 96 91 90 94 102 114 130 145 158 165 166 160 148 132 115 99 87 81 81 86 95 107 120 133 145 154 160 164 167 
150 152 151 145 132 113 92 75 63 58 59 68 85 109 135 154 164 164 155 139 122 107 98 94 95 99 104 110 114 117 120 124 129 136 142 147 150 148 144 136 127 118 112 108 108 110 114 120 127 135 144 153 161 168 173 175 174 169 160 150 141 134 130 131 134 138 140 139 133 122 107 94 84 79 80 87 101 121 142 161 174 178 176 168 154 137 121 109 102 102 107 116 126 136 142 146 147 146 146 148 
127 133 139 140 134 121 104 88 74 67 66 73 88 110 134 153 165 167 161 150 135 122 113 108 107 109 113 117 121 125 129 134 140 147 153 157 158 156 150 141 132 124 118 116 116 119 124 129 135 141 147 154 160 165 168 170 170 167 162 157 152 150 150 153 157 161 162 159 149 133 112 93 78 70 69 76 90 112 138 162 179 187 188 182 172 158 143 132 126 126 130 137 144 147 145 140 132 126 122 122 
103 114 127 136 139 133 121 105 91 81 78 83 97 116 138 156 168 171 168 159 148 136 126 120 118 118 120 124 128 132 138 143 149 155 160 162 161 157 150 141 132 125 121 121 124 129 135 141 145 149 152 153 154 155 155 155 154 153 152 152 154 157 163 169 175 179 179 174 162 142 117 93 75 64 62 67 81 103 132 160 180 191 194 191 183 172 160 151 146 146 150 154 156 152 143 130 115 103 97 97 
85 100 118 135 144 145 137 124 110 99 94 98 109 127 146 162 172 176 173 166 156 144 134 127 122 122 123 127 131 137 143 150 156 161 163 163 160 153 145 135 126 120 119 122 128 136 145 152 156 157 156 152 147 141 135 132 130 130 132 137 146 156 167 177 185 190 190 184 171 149 121 94 73 61 57 61 74 96 125 154 177 190 194 193 186 177 168 161 158 159 162 164 162 154 138 119 99 84 77 77 
74 91 113 135 150 155 151 140 126 115 109 112 122 138 155 168 177 179 176 169 158 146 134 125 119 117 119 123 130 138 146 153 159 163 164 161 155 145 134 124 115 111 112 118 128 140 151 160 164 164 160 150 138 125 114 106 102 102 107 117 131 148 165 179 189 194 195 190 176 154 125 96 74 60 55 58 69 89 116 145 168 182 188 186 181 173 166 161 161 164 168 169 165 153 134 110 88 72 65 65 
71 89 113 137 154 161 158 149 136 124 119 121 131 146 161 173 180 181 177 168 155 140 126 115 108 106 109 115 124 134 145 154 161 163 162 157 148 136 122 111 102 99 102 110 123 139 154 165 170 170 163 149 132 113 96 85 79 79 85 96 113 135 157 175 187 194 195 190 178 157 129 100 77 63 57 58 67 83 107 132 154 167 172 171 165 158 153 151 154 161 167 169 165 153 132 106 83 68 60 62 
76 94 118 140 156 162 159 149 136 124 119 122 133 148 163 174 180 180 174 162 146 129 112 100 93 92 95 103 114 128 142 153 160 162 160 152 141 126 112 100 92 89 92 102 116 134 151 165 172 172 164 149 128 106 86 73 66 65 69 81 98 121 145 166 180 188 191 187 176 158 133 106 85 70 64 63 69 82 99 119 136 146 149 147 141 135 132 134 141 152 162 167 165 154 133 109 86 71 64 65 
88 106 127 146 158 160 154 141 127 116 111 115 127 143 159 171 177 176 169 155 136 115 98 85 79 78 83 92 105 121 137 150 158 160 156 147 135 120 105 93 86 83 86 95 109 126 144 160 169 171 164 150 129 105 84 70 62 59 63 72 88 109 131 152 168 177 181 179 171 157 137 116 97 84 77 75 78 85 96 107 117 122 121 117 112 107 107 113 125 140 154 164 165 156 139 117 96 81 74 77 
107 123 140 153 159 156 144 128 112 101 97 102 114 132 150 164 171 171 162 147 126 104 87 75 69 69 75 85 99 116 133 146 154 156 152 143 131 117 104 94 87 84 85 91 103 118 134 150 160 165 162 150 132 111 91 76 67 63 65 71 83 99 118 136 150 159 164 165 162 154 143 129 116 105 98 94 94 95 98 101 102 100 96 91 86 83 86 94 109 128 147 160 165 160 147 129 111 98 93 96 
