P2
100 100
255
130 140 149 154 152 144 131 115 102 93 91 96 107 122 138 151 158 158 152 139 123 106 91 82 77 77 82 91 104 117 130 139 144 145 141 136 128 120 113 106 102 99 98 100 105 113 123 134 144 150 151 146 136 123 109 97 89 84 84 88 94 103 112 121 129 134 139 142 144 144 143 140 135 131 126 122 118 114 110 106 100 94 88 83 79 79 82 91 105 122 138 151 157 157 150 140 129 122 119 123 
148 155 160 160 154 142 124 106 92 83 81 86 97 112 129 144 153 154 149 138 123 107 94 85 81 82 87 96 107 119 129 135 138 138 135 130 126 123 120 117 115 112 109 107 107 109 114 121 130 137 142 143 140 133 124 115 108 103 100 99 100 102 105 108 111 115 119 125 132 139 146 150 152 152 149 145 139 130 121 110 99 89 81 75 72 72 77 87 101 119 136 149 156 157 153 147 140 136 136 141 
161 167 169 167 157 142 121 101 86 77 75 79 90 106 123 139 149 153 150 141 128 115 103 95 92 94 99 106 115 123 128 131 130 128 125 123 123 125 128 131 132 130 126 120 113 108 106 108 114 122 130 137 141 142 140 136 131 125 120 114 109 104 100 97 96 97 102 110 121 135 148 159 166 169 168 165 157 146 132 117 101 89 79 73 71 73 79 89 103 119 135 146 153 154 152 148 145 145 148 154 
169 174 176 171 161 143 121 100 84 75 73 78 88 104 121 138 149 154 153 147 137 127 118 112 110 112 116 122 127 129 129 126 120 115 112 113 117 125 135 144 149 150 145 135 123 111 101 97 99 106 116 128 140 149 154 155 152 147 139 129 118 107 97 90 85 85 89 98 113 131 149 164 175 180 181 178 170 158 142 124 107 93 83 78 77 81 88 98 111 124 135 143 146 146 144 142 143 146 153 161 
171 177 179 174 163 145 123 102 86 78 76 80 91 106 124 140 151 157 157 153 147 140 134 131 131 133 136 139 140 137 130 120 110 102 99 101 109 123 139 154 164 166 162 151 134 116 99 90 87 92 103 119 136 152 162 168 168 163 154 141 125 109 95 85 79 78 82 92 109 129 150 167 179 185 187 184 177 165 148 130 113 100 91 88 90 95 103 113 123 131 136 138 136 133 130 129 132 139 149 161 
168 176 178 174 164 146 126 106 91 83 82 88 99 114 130 144 154 159 160 158 154 150 148 148 149 152 154 155 151 143 131 115 101 90 86 89 100 117 139 159 173 179 176 164 145 122 100 85 79 82 92 110 131 151 166 175 176 172 162 147 128 110 94 83 77 76 81 92 109 129 150 167 179 185 186 183 176 165 150 133 119 108 103 103 107 114 123 131 137 139 137 132 124 117 113 112 117 127 140 155 
161 171 175 172 161 146 127 109 97 91 92 99 110 124 138 149 156 159 159 157 155 154 154 157 161 165 167 166 160 149 131 112 94 81 76 79 90 110 136 160 177 185 184 174 155 129 104 85 76 76 86 104 127 149 166 176 178 174 163 147 127 109 94 84 79 80 86 97 113 131 149 164 173 178 179 176 169 159 146 133 122 116 116 120 127 136 144 149 151 147 138 125 112 101 95 94 100 112 128 146 
153 164 169 166 156 142 126 111 102 100 103 111 123 134 145 152 155 154 152 150 148 149 152 158 164 170 173 172 166 152 133 110 90 76 69 71 82 103 130 157 177 188 189 180 162 137 110 88 76 75 83 101 123 146 164 173 175 169 158 141 123 107 95 88 87 90 97 107 120 135 147 157 163 166 165 162 156 147 138 129 124 123 127 135 145 155 162 165 162 153 138 119 101 88 80 79 85 98 116 136 
145 157 161 157 148 135 122 111 107 108 114 124 134 143 149 151 149 144 139 135 133 136 141 150 160 168 173 174 168 155 135 112 90 75 67 68 78 97 124 152 174 186 189 183 167 143 117 94 81 79 86 102 123 144 160 168 168 160 148 132 116 104 97 96 98 104 112 122 131 139 145 148 149 149 146 143 138 132 127 123 123 128 136 148 159 169 175 176 170 157 137 114 93 78 70 69 76 88 107 127 
139 150 152 147 137 126 115 109 109 114 124 134 144 149 150 146 139 130 121 115 114 117 125 136 149 160 168 171 167 156 138 116 95 79 70 69 77 94 119 146 168 182 187 182 169 149 125 103 90 87 93 107 126 143 156 161 157 148 134 120 109 102 101 106 114 123 132 138 142 143 141 138 133 129 125 122 119 117 116 117 121 130 142 155 168 177 183 182 175 159 136 111 88 73 65 65 71 84 102 122 
137 145 144 138 127 116 108 106 110 120 131 143 150 152 148 138 126 113 102 95 94 97 106 120 135 149 160 166 165 157 142 123 104 88 79 76 82 96 116 140 161 175 181 179 169 152 132 114 102 99 104 116 131 144 152 152 146 134 120 108 101 100 106 117 130 142 150 154 153 147 138 128 118 111 106 104 104 105 108 112 120 130 144 158 171 180 185 184 176 159 135 109 86 71 65 65 73 86 104 123 
139 143 139 130 118 107 102 104 112 124 138 149 154 152 143 129 112 97 85 79 78 82 91 105 121 137 150 158 160 156 147 133 117 104 94 90 92 102 117 136 153 166 172 172 165 153 138 124 115 113 117 126 137 145 148 144 134 120 107 98 95 100 111 128 145 158 166 167 162 151 136 121 108 99 94 94 96 99 104 110 118 129 142 156 169 178 183 182 174 158 135 109 87 73 68 70 79 93 111 128 
145 144 137 124 111 102 98 103 114 129 143 153 156 151 138 120 101 85 74 69 69 74 83 96 112 128 141 150 155 155 150 143 133 122 114 109 108 112 120 132 144 153 159 161 158 151 141 132 127 126 130 136 142 146 144 136 123 109 97 90 90 99 115 136 155 169 176 176 168 154 136 118 103 94 91 92 96 100 106 111 118 126 137 150 162 171 177 177 170 155 133 110 90 78 74 78 89 105 122 137 
151 147 136 121 107 99 97 104 117 134 149 157 158 150 134 113 93 78 69 65 67 73 82 94 108 122 133 142 148 151 152 150 147 142 136 131 126 124 125 128 133 139 143 146 146 144 141 137 135 136 139 143 146 145 140 129 115 101 90 85 88 99 117 140 160 175 181 180 171 156 137 118 104 96 94 97 102 107 111 115 118 123 130 140 150 160 167 168 163 150 132 111 95 85 83 89 102 118 135 147 
156 149 136 119 105 98 98 107 122 139 154 161 160 150 131 110 90 76 69 68 71 79 89 100 110 120 127 133 139 144 150 154 157 158 156 151 144 136 129 124 122 122 125 128 132 135 137 138 140 142 144 146 146 143 135 124 110 97 87 84 87 99 118 140 160 174 180 179 170 156 138 121 109 104 104 108 114 118 120 119 117 117 120 126 136 145 153 157 154 144 130 113 100 93 93 101 115 132 146 155 
159 149 134 118 104 98 100 111 127 145 159 165 162 150 132 110 91 79 75 76 83 92 102 111 117 121 123 124 128 134 143 153 162 168 169 166 157 145 131 118 110 106 107 110 117 124 130 136 140 143 145 145 143 139 131 120 108 97 89 86 89 100 116 135 154 167 173 172 165 153 138 126 117 115 118 123 128 130 128 123 116 111 109 112 119 129 138 144 144 138 127 115 105 100 103 112 126 142 154 160 
158 147 131 115 103 98 102 113 131 148 162 167 164 152 133 113 97 87 86 91 100 111 120 126 127 123 118 114 115 121 133 147 162 172 176 174 165 149 130 112 98 91 91 95 103 113 124 132 138 141 142 140 138 133 127 120 111 103 96 93 95 102 114 128 143 153 159 159 154 146 136 129 126 127 132 137 141 140 134 124 113 104 99 99 105 114 124 132 135 133 126 117 110 108 111 121 134 148 158 162 
154 142 126 111 100 96 101 114 131 148 161 166 163 152 136 119 106 100 101 109 121 132 140 141 135 125 113 104 101 106 119 137 156 171 178 177 167 148 126 104 88 80 79 84 94 106 119 129 135 137 136 134 131 128 125 122 118 113 109 106 105 107 112 120 128 135 140 141 139 135 132 131 133 138 144 149 150 146 137 124 109 98 91 90 94 103 114 123 130 130 127 121 116 115 118 127 139 150 158 159 
149 136 121 106 96 94 99 111 127 144 157 162 160 151 138 125 116 114 119 129 141 151 156 152 140 123 106 93 88 92 105 126 148 166 176 175 164 144 119 96 79 71 71 77 89 104 118 129 134 134 131 126 123 122 123 125 127 128 126 123 119 115 113 112 113 116 118 120 121 123 126 131 138 145 152 156 155 148 136 121 105 92 85 84 88 97 109 121 129 132 131 127 123 122 125 132 142 150 156 155 
144 131 116 102 93 90 94 105 120 136 148 154 154 147 138 130 125 127 135 146 158 165 166 158 141 120 98 83 77 80 93 114 139 160 171 171 159 138 112 89 73 67 68 76 90 107 122 133 136 132 125 119 115 116 121 130 138 144 145 142 136 126 116 107 101 98 98 100 105 111 120 130 141 150 157 159 156 147 132 116 100 88 82 82 87 98 111 124 133 138 138 135 131 130 132 137 144 150 153 152 
142 130 115 101 91 87 90 98 110 124 135 142 144 141 136 133 133 138 147 159 168 173 170 159 139 114 91 75 69 72 85 106 132 153 165 165 153 131 105 84 70 66 70 81 98 116 132 140 140 133 122 112 107 109 119 133 147 158 163 161 152 138 121 105 92 85 83 86 92 102 116 130 143 153 159 159 154 142 127 110 95 86 82 83 91 103 117 131 141 146 146 144 140 138 139 142 147 151 153 150 
145 133 118 104 93 87 87 92 100 111 121 128 132 133 132 133 137 145 155 165 173 175 170 155 133 108 85 71 65 69 82 103 128 149 161 160 147 125 101 81 71 69 76 91 111 131 146 151 147 135 120 106 100 102 115 133 153 168 176 176 167 150 128 106 88 78 74 77 85 98 114 132 146 156 160 157 149 136 120 104 92 85 83 88 98 111 127 140 150 155 155 152 148 145 145 147 151 154 155 152 
151 141 127 112 99 91 87 88 93 100 108 115 121 125 128 133 140 149 159 167 173 173 166 150 127 103 83 70 66 71 84 105 129 149 159 157 143 122 100 83 75 77 88 107 129 149 161 164 156 139 118 101 92 95 108 130 154 173 184 185 177 160 136 109 88 75 70 73 83 98 117 135 150 158 159 154 144 129 113 100 90 86 87 94 106 121 136 149 158 161 160 157 152 149 148 150 153 157 159 157 
159 151 139 124 110 98 91 88 90 94 100 107 113 119 125 132 141 150 159 166 170 168 159 144 123 101 84 74 72 78 93 113 135 151 159 156 142 122 102 88 83 89 104 125 148 166 176 175 163 143 118 97 85 86 100 123 151 173 187 190 184 167 142 114 90 76 71 74 86 103 123 141 154 160 158 150 138 122 108 96 90 88 92 101 114 129 144 155 161 163 160 156 151 147 146 148 153 158 162 163 
166 161 151 138 124 110 100 94 92 93 98 104 111 118 126 133 141 150 157 162 164 160 152 137 120 102 89 83 84 92 107 126 144 157 161 156 142 123 106 95 94 103 121 144 166 181 187 184 170 146 117 93 79 78 90 114 143 169 185 191 186 171 147 118 94 79 74 79 92 110 130 147 158 160 156 145 131 116 104 95 91 92 98 109 122 135 147 155 158 157 153 147 141 137 137 140 147 155 162 166 
169 168 162 151 138 123 111 103 99 99 102 108 115 122 129 136 142 148 152 155 155 151 143 131 118 107 99 97 101 111 125 141 155 163 164 156 142 125 110 102 105 117 137 160 179 191 195 189 174 148 117 90 74 71 81 103 132 160 180 188 186 172 149 122 98 84 80 86 99 118 137 152 159 159 152 139 125 111 101 95 95 98 106 116 128 139 147 151 150 145 138 130 123 120 120 125 134 146 157 165 
168 171 168 160 149 136 124 115 110 110 113 118 124 131 136 140 143 145 146 145 143 139 132 125 118 113 111 114 121 131 144 156 164 168 165 155 141 125 112 107 112 127 148 169 186 196 198 192 176 149 117 88 71 66 73 93 121 150 171 182 182 170 149 124 103 89 87 93 107 125 142 154 158 155 145 132 119 108 101 99 101 107 115 125 134 140 144 142 137 128 118 109 102 99 100 106 117 131 146 159 
160 167 168 163 154 144 133 126 122 123 126 132 137 142 145 145 144 141 137 133 129 124 120 118 117 118 123 130 140 150 160 167 171 170 163 151 136 121 110 107 114 130 150 171 187 196 198 192 176 149 117 88 70 63 69 85 110 138 161 174 175 166 147 125 106 95 93 101 114 130 144 152 153 147 137 125 114 107 104 106 111 119 127 134 140 142 140 133 123 111 99 89 82 78 80 86 97 113 131 148 
149 158 162 160 153 145 138 133 132 135 140 146 150 153 153 150 144 136 127 119 113 109 108 109 113 121 132 143 154 164 171 174 173 168 157 143 127 113 104 102 109 125 145 165 181 191 193 188 173 149 118 91 72 64 67 80 102 128 151 164 167 159 144 125 109 100 99 106 119 132 142 147 145 137 127 118 111 109 111 117 125 133 141 146 147 145 137 126 112 97 84 73 67 64 65 70 80 95 114 133 
135 146 150 150 145 140 135 134 137 143 150 157 161 162 159 152 142 129 116 106 98 95 95 100 109 121 136 151 163 172 176 176 172 162 148 132 115 102 94 93 99 113 131 151 168 179 184 181 169 147 121 95 77 69 70 81 99 122 143 155 158 152 139 124 111 104 104 111 121 131 137 138 134 127 119 113 111 114 121 131 141 149 155 157 155 149 138 124 107 90 76 66 59 56 56 60 69 82 99 118 
122 132 136 136 132 128 127 130 136 145 155 163 167 167 162 153 138 122 107 94 86 83 85 91 103 119 137 154 166 174 177 174 166 153 137 119 103 90 84 82 87 98 113 131 148 161 169 169 161 145 124 103 87 78 78 87 102 121 138 148 151 146 135 122 112 107 108 113 121 128 131 130 124 118 113 111 115 123 134 146 156 163 167 167 163 155 143 127 109 92 77 66 59 55 55 58 65 76 91 108 
116 122 124 121 117 114 115 120 130 142 154 163 168 168 162 150 134 116 99 86 78 75 78 85 98 116 135 153 166 173 174 169 158 143 125 107 91 81 75 73 76 83 95 109 125 139 150 154 152 142 128 112 100 92 92 98 110 124 137 145 146 140 131 120 112 109 110 115 120 124 125 122 117 112 110 113 122 134 147 159 169 174 176 174 169 160 149 134 118 102 87 76 68 63 61 64 69 79 92 105 
117 119 116 110 105 101 102 109 120 134 148 158 164 164 158 146 129 111 95 82 75 73 75 83 97 114 133 151 163 169 168 162 149 132 114 97 83 74 69 68 69 73 81 91 104 118 130 138 142 139 132 123 115 110 110 114 122 132 140 144 143 137 128 119 113 110 112 116 120 122 121 117 113 111 112 119 130 145 158 169 176 179 178 175 169 163 154 144 132 119 107 96 87 81 78 79 84 92 101 111 
125 122 115 106 97 92 93 98 109 123 137 149 155 156 151 140 125 109 95 84 78 76 79 87 99 115 133 148 159 163 161 153 139 122 105 90 79 72 68 66 67 69 74 81 90 102 114 124 132 136 136 134 130 129 129 132 137 142 145 145 141 134 125 118 113 111 113 116 119 121 119 116 113 113 118 127 140 153 165 173 177 177 173 169 164 159 155 151 146 140 132 124 116 109 106 106 108 114 120 124 
139 131 120 108 97 90 88 91 100 112 124 135 142 144 141 133 122 110 100 92 87 86 89 96 107 121 135 147 155 157 153 143 130 114 99 87 79 74 72 71 72 73 75 80 86 94 104 114 124 132 138 141 143 144 145 147 150 151 151 147 141 132 124 116 112 112 114 117 120 121 120 118 117 119 124 134 146 158 167 171 170 166 159 153 149 148 150 154 157 158 157 153 148 142 138 137 137 140 142 142 
152 143 130 115 103 93 89 90 95 103 112 121 128 131 130 127 121 115 109 105 103 103 106 111 119 129 139 146 150 150 144 134 121 107 95 87 82 81 81 83 84 85 86 88 90 94 101 109 119 128 137 144 150 153 156 158 159 158 155 149 140 131 122 115 112 112 115 119 122 123 123 122 122 125 131 140 149 157 161 160 154 146 136 129 126 129 138 149 161 170 175 176 173 170 166 163 162 161 161 158 
162 153 141 127 114 103 96 93 94 98 103 108 113 117 120 122 123 123 123 123 124 125 127 130 134 139 143 146 146 142 134 124 113 102 94 90 90 92 97 101 105 106 106 105 103 103 104 108 115 123 133 142 150 156 161 163 163 161 156 148 139 129 120 114 111 112 116 120 124 126 127 127 127 130 135 141 147 150 149 142 132 120 109 101 100 106 120 139 159 174 184 188 188 186 183 179 176 174 171 168 
164 158 150 139 128 117 109 102 98 97 97 99 102 106 112 119 126 132 138 142 145 146 147 147 148 147 146 144 140 133 125 115 105 98 95 95 100 108 117 125 131 133 132 128 122 116 111 110 112 118 126 135 145 153 158 162 162 159 154 146 136 126 118 113 111 113 117 122 126 129 130 130 130 132 135 138 140 138 132 121 108 94 83 77 77 85 102 125 151 172 185 192 193 191 187 182 177 174 171 168 
159 158 155 150 142 133 124 115 106 100 95 93 94 99 107 117 129 141 151 158 162 164 163 160 157 152 147 141 133 125 115 107 100 96 96 102 111 124 138 149 156 159 157 151 141 130 119 112 109 111 117 126 135 144 151 155 156 153 148 140 132 123 116 113 113 116 120 125 129 131 132 131 130 130 131 131 129 124 115 102 88 75 65 61 62 70 87 112 140 164 180 188 189 185 179 172 166 162 160 159 
146 152 155 157 154 149 140 129 117 106 97 92 91 95 104 118 133 149 161 169 173 174 171 166 160 152 144 135 126 117 108 101 96 95 99 108 122 139 155 167 175 178 176 168 157 141 126 114 106 104 108 115 124 133 140 144 145 143 139 133 126 120 116 115 117 121 126 130 133 134 132 130 127 125 124 122 118 111 101 88 75 64 56 53 55 63 79 103 130 154 170 177 176 170 161 151 144 139 139 141 
130 141 152 160 163 161 154 143 129 114 102 94 91 94 104 119 137 153 166 174 177 176 172 165 157 147 138 128 119 111 104 98 95 97 103 115 131 149 166 179 186 189 186 178 165 148 129 114 104 100 101 107 114 122 127 131 132 130 127 123 120 118 118 120 124 129 134 137 138 136 132 127 122 119 116 113 109 103 94 83 72 62 56 53 55 63 77 99 123 145 158 162 158 148 135 123 115 111 113 119 
113 130 147 160 167 169 164 154 140 123 108 98 94 97 106 121 139 154 166 173 174 171 165 157 148 138 130 122 115 109 104 100 99 102 109 122 138 156 171 183 189 191 188 179 165 148 129 113 103 98 99 103 109 114 117 119 118 116 114 113 113 116 121 127 134 140 144 145 143 138 130 123 116 111 109 107 105 101 94 86 77 69 64 62 64 71 84 102 121 137 145 145 136 123 109 96 89 86 89 99 
100 120 141 158 168 172 170 161 148 131 115 104 99 101 109 123 138 152 162 166 165 160 153 144 135 128 122 118 115 112 110 108 108 111 117 129 143 159 172 181 186 187 182 173 159 142 126 112 104 102 103 106 110 112 112 109 106 103 102 103 107 115 125 135 145 151 155 153 148 140 129 118 110 105 104 104 105 105 103 98 92 86 81 79 81 87 98 111 125 134 135 129 117 102 88 77 71 70 74 84 
94 115 136 155 167 173 172 165 153 137 122 110 105 105 112 124 136 147 153 154 151 144 136 128 122 118 117 118 119 120 120 120 120 122 127 136 147 158 168 175 177 176 170 160 147 133 121 113 110 111 114 117 119 117 111 104 97 93 91 94 102 114 129 144 155 163 165 161 153 141 127 114 105 101 101 105 111 115 118 117 114 111 107 105 107 111 118 126 133 134 130 119 104 89 76 67 63 63 68 78 
94 113 133 151 164 170 170 165 154 141 127 116 110 110 115 123 131 138 141 139 134 126 119 113 111 112 116 122 128 132 135 135 135 136 138 142 148 155 161 163 163 158 151 141 130 121 115 115 118 125 131 134 133 127 116 104 92 85 83 87 97 113 133 151 164 172 173 168 157 142 126 111 102 99 102 110 120 129 136 140 140 138 136 135 135 136 139 142 142 137 128 114 98 84 73 66 63 65 70 79 
100 115 132 147 158 164 165 161 152 141 130 120 114 113 116 120 125 128 127 123 117 110 104 102 104 110 119 129 139 145 149 150 148 147 146 146 148 149 150 149 144 137 128 119 112 109 111 118 130 142 151 154 151 141 125 107 91 80 77 81 93 112 135 155 170 178 178 171 159 142 124 109 101 100 105 116 130 142 152 159 161 161 160 158 157 156 155 153 148 140 128 113 98 86 77 73 71 73 79 87 
109 119 130 141 149 154 155 153 147 139 130 122 117 115 115 116 118 117 114 109 103 98 95 97 103 113 126 139 150 157 160 160 157 153 149 146 144 142 138 133 125 116 107 100 96 99 108 123 141 158 169 173 168 156 135 112 91 77 73 77 90 111 135 158 173 180 180 172 158 140 122 108 101 102 110 123 139 153 163 170 173 173 172 170 168 165 162 158 151 140 128 114 102 93 88 85 86 89 93 100 
119 123 128 133 137 141 143 142 139 134 128 122 118 115 113 112 111 108 104 99 95 92 93 98 107 120 135 148 158 164 166 163 159 153 147 142 138 133 127 119 110 99 91 85 85 91 106 128 151 170 182 186 182 168 145 117 93 77 71 74 88 109 135 157 173 179 178 169 154 136 119 107 103 106 116 130 145 158 168 173 175 174 172 170 167 164 160 155 147 138 127 117 109 104 102 103 105 108 112 115 
127 125 123 123 124 126 128 130 130 128 125 122 118 114 111 109 106 102 98 94 92 92 96 104 115 129 144 155 163 166 164 159 153 145 139 133 129 124 118 110 100 90 81 76 78 87 105 130 156 178 190 194 190 175 151 122 96 78 71 74 87 108 133 155 170 175 172 162 148 131 117 108 106 111 122 136 149 159 165 167 167 165 162 159 156 154 151 146 140 133 126 120 116 116 118 122 126 129 130 129 
133 124 117 112 110 111 114 118 121 123 123 121 119 115 111 107 104 100 97 95 94 97 103 113 126 139 151 159 163 162 156 148 139 131 125 121 119 117 113 106 97 87 78 74 75 85 103 130 157 180 193 197 192 178 154 125 98 81 73 77 90 110 132 152 164 167 163 153 139 125 114 109 111 118 129 140 149 155 157 155 151 147 143 140 139 138 137 135 132 128 125 123 124 127 133 139 144 146 145 140 
134 121 109 101 98 99 103 109 115 120 123 123 121 117 113 109 105 102 100 99 101 106 114 124 136 147 156 160 158 152 143 131 121 113 109 109 111 113 113 109 101 91 82 76 76 83 101 126 153 176 189 194 190 176 153 126 101 85 79 83 95 114 133 148 157 157 151 141 129 118 113 112 117 126 136 144 148 148 145 138 131 124 120 119 120 122 124 126 126 125 125 127 131 137 145 152 157 158 155 146 
133 116 103 93 90 91 97 105 114 121 126 127 126 123 118 114 110 108 107 108 111 117 125 135 145 153 157 157 151 140 126 113 102 96 95 98 105 113 118 118 112 102 91 82 79 83 97 119 144 166 180 185 181 168 148 124 104 91 88 93 105 121 136 146 149 146 138 128 118 113 112 117 125 134 142 147 146 141 132 121 111 104 101 101 105 110 116 121 124 126 128 131 137 144 152 160 164 164 159 148 
130 113 98 89 86 88 95 106 117 126 132 135 134 131 126 122 119 117 116 118 122 128 135 143 151 155 156 151 141 127 111 97 87 82 84 91 103 117 127 131 128 118 104 92 85 85 93 110 131 151 164 169 166 155 138 120 106 98 99 107 119 131 141 145 142 135 125 115 110 109 113 122 133 143 149 149 144 134 120 107 97 90 89 92 98 107 115 122 127 130 133 137 142 149 157 163 167 166 159 147 
128 110 96 88 86 90 99 111 124 134 141 144 143 140 136 132 129 127 126 128 131 136 141 147 152 155 153 145 133 117 100 86 77 74 79 89 106 124 139 146 145 136 121 105 93 87 90 101 117 132 144 149 146 138 126 114 107 107 113 123 134 143 147 145 136 125 114 106 103 107 116 129 141 150 154 151 142 128 113 99 89 84 85 90 100 110 121 129 134 137 138 141 145 151 158 164 167 165 158 145 
126 110 97 90 90 96 107 121 134 145 151 153 152 149 144 140 137 135 135 135 137 140 143 147 150 151 148 140 127 111 95 82 74 72 78 91 111 133 151 161 161 152 137 118 102 92 90 94 104 115 123 127 125 119 112 108 109 115 126 139 149 155 153 145 132 117 105 98 99 107 120 135 148 156 158 153 141 125 109 95 87 85 88 96 107 119 129 137 141 142 142 143 146 151 157 162 165 163 156 143 
126 111 100 94 96 104 117 131 145 154 160 161 159 155 150 146 143 140 139 138 138 139 141 143 146 147 144 138 126 111 96 83 76 75 82 97 118 141 160 171 173 165 150 130 112 98 92 92 97 103 107 108 106 103 101 102 109 122 138 152 161 163 158 145 128 111 98 94 97 108 123 140 153 160 160 153 140 124 108 96 90 90 96 105 116 128 137 142 143 142 141 140 142 147 154 159 162 161 154 141 
126 112 102 99 103 113 127 141 154 162 166 165 162 157 152 147 143 140 138 136 134 134 135 137 140 142 142 138 129 117 103 91 83 82 89 103 124 147 166 177 179 172 158 140 121 106 98 95 96 98 100 98 95 93 93 98 110 127 145 160 168 168 159 143 123 105 93 90 96 109 126 143 156 161 160 151 138 123 109 100 97 99 105 114 125 134 139 141 140 137 134 133 135 141 148 155 159 158 151 140 
124 112 104 102 108 119 134 149 160 167 168 166 161 154 147 142 137 134 131 129 127 126 127 130 134 138 141 140 135 126 114 102 94 92 97 110 129 150 167 177 179 173 161 145 128 114 106 103 103 103 101 97 92 89 90 97 110 129 149 164 170 168 157 138 117 99 89 88 95 110 127 144 155 159 156 147 135 122 111 105 104 107 114 122 129 134 135 134 129 125 121 121 126 133 143 151 156 155 149 138 
120 109 102 102 108 121 137 151 162 167 167 163 155 146 138 132 127 124 121 119 118 118 119 123 129 136 142 145 143 137 127 115 106 101 104 114 130 148 163 172 174 169 159 146 132 123 117 116 116 115 111 105 97 92 91 97 111 130 149 163 168 164 150 131 110 94 85 86 95 110 127 142 152 154 150 141 130 120 113 110 111 115 120 125 128 128 125 120 114 109 107 109 116 126 138 148 153 152 146 134 
115 103 97 97 105 118 135 150 160 165 163 156 146 136 126 118 114 111 110 109 109 111 114 120 128 137 145 151 151 147 138 126 116 109 109 115 127 142 154 162 164 160 152 142 134 129 129 131 133 132 127 119 108 100 97 101 112 129 146 158 162 156 142 122 103 89 83 85 94 109 125 138 146 146 141 133 124 117 114 114 117 120 124 125 123 119 112 105 98 94 94 99 109 122 136 147 152 150 142 129 
107 95 89 90 98 112 129 144 155 160 157 148 136 124 113 105 100 99 99 100 103 107 112 120 130 141 150 156 157 154 145 133 121 113 110 113 121 132 142 148 150 147 142 136 133 134 138 144 149 149 145 135 122 111 105 106 114 128 142 152 154 148 133 114 97 86 82 86 96 109 123 134 138 137 131 124 118 115 115 117 121 125 125 123 117 109 100 91 86 84 87 95 108 124 139 150 153 149 138 123 
99 86 80 81 89 103 120 137 149 154 151 141 128 113 102 94 90 89 91 95 100 107 115 125 135 146 154 160 160 156 147 134 122 112 107 108 113 121 129 135 136 134 131 129 130 136 145 154 161 163 159 149 135 122 113 112 117 128 139 147 148 140 126 109 95 86 84 89 99 111 122 129 131 127 121 115 112 112 116 121 126 128 127 121 112 102 92 84 80 81 87 99 115 132 147 156 157 150 135 117 
92 79 72 73 81 95 113 130 144 149 146 137 122 107 95 87 83 84 87 93 101 110 121 132 142 152 158 161 160 154 143 130 117 108 102 102 106 113 119 124 125 124 122 123 127 136 147 159 167 170 167 158 144 131 121 117 121 129 138 144 144 136 124 110 98 92 92 97 107 117 124 127 124 119 112 108 107 110 117 125 131 133 130 123 112 100 90 84 82 86 96 110 128 145 158 164 162 151 133 111 
87 73 67 68 76 89 107 126 141 147 145 136 122 106 93 85 81 82 87 95 106 117 130 141 150 157 160 160 155 147 135 122 110 102 98 98 103 109 115 118 119 118 117 119 124 134 147 159 167 171 168 159 147 134 125 121 124 132 140 145 144 138 127 116 107 103 105 111 118 125 128 126 120 112 105 102 104 110 119 129 136 138 135 127 116 104 96 91 93 100 112 128 145 160 170 172 167 152 131 107 
84 71 65 66 74 88 107 126 141 149 148 139 125 110 96 87 84 85 91 100 113 126 139 149 157 160 160 156 148 137 124 112 103 97 95 98 104 110 116 120 120 119 118 119 123 132 143 154 161 164 161 153 143 132 125 123 128 135 143 148 148 144 136 127 121 120 122 128 134 137 135 129 119 109 101 99 103 111 123 134 142 145 142 134 124 114 107 106 109 119 132 148 163 174 179 179 170 153 130 105 
84 72 67 69 77 92 111 130 145 153 153 146 133 117 104 94 90 91 97 108 121 135 148 157 161 161 157 149 138 125 113 103 96 94 96 102 110 118 124 128 128 125 123 122 124 130 137 145 150 151 147 140 131 124 121 123 130 139 148 154 155 152 147 141 138 138 142 146 149 149 144 133 120 108 100 99 104 114 127 140 148 151 149 142 134 126 122 123 129 139 152 165 176 183 185 181 171 152 128 104 
87 77 73 77 86 101 120 138 152 159 159 153 141 127 113 103 98 99 106 117 130 144 154 161 163 160 152 141 127 114 103 95 92 94 100 109 120 129 136 139 138 135 130 127 126 128 131 134 135 134 129 123 116 113 114 120 131 143 153 160 162 160 157 154 153 155 158 162 163 160 152 139 123 110 102 101 107 119 133 145 153 156 154 149 142 137 135 138 145 154 165 175 182 185 184 178 166 148 126 104 
92 86 85 91 101 116 132 147 158 164 164 158 148 135 123 113 108 109 115 126 138 150 159 163 162 156 145 131 116 104 95 91 92 98 108 120 132 142 149 151 149 144 139 133 129 126 125 123 120 116 110 105 101 101 106 116 130 144 156 163 166 165 163 162 162 165 168 171 171 167 157 143 127 114 106 106 113 125 138 149 156 158 156 151 146 142 142 146 153 161 169 175 179 180 177 169 157 141 122 105 
101 99 102 110 120 132 145 156 164 167 166 161 152 142 131 122 118 119 124 134 145 154 161 162 159 150 136 121 106 96 90 89 94 104 118 132 145 154 159 160 157 151 144 137 131 126 120 115 109 102 95 90 88 90 98 111 127 143 156 163 165 165 163 162 163 167 171 174 174 169 159 145 130 118 112 113 120 131 143 153 157 158 154 149 143 141 141 145 151 158 163 167 168 166 161 153 142 130 117 107 
111 115 122 130 140 149 157 163 166 167 164 160 152 144 136 129 126 127 132 140 149 157 161 160 154 142 127 111 98 90 87 90 98 112 128 143 155 163 166 165 160 154 147 139 132 125 118 110 102 93 86 81 80 84 93 107 124 141 152 158 159 157 155 153 155 159 164 168 169 165 157 144 132 122 118 120 128 138 148 154 156 153 147 140 134 131 132 135 140 145 148 149 147 143 138 131 124 117 112 110 
121 130 140 148 155 161 164 165 164 162 159 154 148 142 137 132 131 132 137 144 152 157 159 157 148 135 119 104 92 85 85 91 103 118 136 151 162 167 168 165 159 151 144 137 131 125 118 110 100 91 83 78 77 82 91 105 122 136 146 150 148 143 139 137 138 143 149 154 157 155 149 140 131 125 124 128 135 144 151 154 151 145 136 127 120 117 116 119 122 125 127 126 123 118 113 109 106 105 108 113 
129 142 152 160 165 166 165 162 158 154 149 145 141 137 134 132 132 135 140 146 152 157 157 153 143 129 112 98 87 83 84 92 106 123 141 155 164 167 166 160 152 144 137 132 128 124 119 112 104 94 86 81 80 84 93 106 120 131 138 138 133 125 119 115 116 120 127 134 138 139 137 133 128 127 129 134 142 149 152 151 145 135 123 112 104 101 100 102 104 106 106 104 101 97 93 92 93 97 105 116 
135 148 158 164 166 165 161 155 149 143 138 134 132 130 128 128 130 133 139 145 151 155 155 150 139 125 108 94 84 81 83 92 107 125 142 156 163 164 160 152 143 134 128 124 123 123 122 118 111 103 95 89 87 90 98 109 120 128 130 127 118 108 99 94 94 97 104 111 117 121 123 123 124 127 132 139 146 151 152 147 137 123 110 98 91 87 87 89 91 92 92 91 88 85 83 84 87 95 106 120 
136 148 156 160 160 157 151 144 137 131 126 124 122 121 121 122 125 129 134 141 147 152 152 148 138 124 108 93 84 80 82 91 105 123 141 154 160 160 153 143 132 123 117 116 118 121 124 124 120 114 107 101 99 101 106 115 123 127 126 119 107 95 85 79 78 80 86 92 99 105 110 114 119 126 134 142 149 152 149 141 128 113 99 88 82 79 80 83 86 88 89 88 86 84 84 85 90 98 109 123 
135 142 147 149 147 143 137 131 125 120 117 115 114 114 114 115 117 121 126 134 141 147 150 148 139 126 111 96 86 81 82 89 102 119 136 149 155 155 148 136 124 114 109 109 113 120 126 130 130 126 121 115 112 113 117 123 128 130 126 116 103 90 79 73 70 71 75 81 87 94 100 107 116 125 135 144 150 150 145 135 120 105 92 83 78 78 81 85 90 94 96 97 96 95 95 96 100 107 115 125 
130 132 133 133 130 127 123 119 116 114 113 111 110 109 108 107 107 110 116 124 133 142 148 149 144 133 118 103 91 84 82 87 98 114 130 144 151 151 144 133 120 109 104 104 109 118 128 135 138 137 134 129 126 126 128 132 135 135 130 120 107 94 83 75 71 71 73 77 82 88 95 104 114 125 136 144 149 147 140 128 114 99 89 82 81 84 89 97 104 110 114 116 116 115 115 115 116 119 122 126 
123 120 117 115 113 112 111 111 112 113 113 113 110 107 103 100 98 99 103 112 123 135 146 151 150 143 130 115 100 89 85 87 95 108 124 139 147 149 144 133 121 110 103 103 108 118 129 138 144 145 144 140 137 136 137 140 142 142 138 130 119 106 96 87 82 80 80 82 85 89 96 104 115 126 136 144 147 144 136 123 109 97 89 87 89 96 105 115 125 132 137 140 141 140 139 137 135 132 129 126 
115 108 103 100 99 101 105 109 114 118 120 119 115 108 101 94 89 88 92 100 113 129 144 154 158 155 144 130 113 99 90 88 93 104 119 134 145 150 147 138 126 115 107 105 109 118 129 140 147 150 149 147 144 142 142 144 147 148 147 142 134 125 116 108 102 98 95 93 94 96 101 108 118 128 138 144 145 141 132 120 108 98 94 95 102 112 125 137 147 155 160 162 162 161 159 155 150 143 134 124 
109 99 93 91 92 97 105 113 122 128 131 129 123 113 102 91 84 80 82 90 104 122 142 157 166 167 160 146 129 111 98 91 92 101 115 131 144 151 151 145 134 123 114 110 112 120 130 140 148 151 151 149 145 143 142 144 147 151 153 153 150 146 140 134 127 121 115 110 107 106 109 114 122 132 140 144 144 139 130 118 108 102 102 107 117 131 145 157 166 172 175 176 176 174 171 166 159 148 136 122 
105 95 89 88 91 99 110 122 133 141 144 141 133 121 106 92 82 76 76 82 96 116 139 159 172 177 173 162 145 125 108 97 94 99 111 127 142 152 155 151 142 131 122 117 117 123 131 140 147 151 150 147 142 138 137 139 143 149 155 160 162 163 161 157 152 145 137 129 122 118 118 121 128 136 142 146 144 138 129 119 111 108 110 119 132 147 160 170 177 181 182 181 180 177 174 168 160 149 134 119 
105 95 91 91 97 107 119 133 145 153 156 153 145 131 114 98 84 75 73 78 91 112 137 160 176 184 183 175 159 139 119 103 96 99 109 124 139 151 157 155 148 138 129 123 122 126 133 141 146 149 147 142 136 131 128 129 134 141 150 159 167 172 174 173 169 163 154 144 135 128 126 128 133 140 146 148 146 140 131 121 115 114 119 129 143 157 168 176 179 180 178 176 173 170 167 162 155 144 131 117 
108 102 99 101 107 117 130 143 154 162 165 163 156 143 126 107 91 79 75 77 88 108 133 158 177 187 189 183 170 150 128 110 100 98 106 120 135 148 155 155 150 142 133 127 125 128 134 141 145 147 143 137 129 122 117 116 121 129 140 152 163 171 177 179 177 171 163 153 142 135 131 132 137 144 149 151 149 142 133 125 119 119 124 135 147 159 168 172 173 170 165 161 157 154 152 149 144 138 128 118 
116 113 112 114 120 129 139 150 159 166 169 169 164 153 139 121 103 89 80 80 87 104 128 154 174 186 190 187 175 157 135 115 102 98 103 115 129 141 149 151 147 140 133 128 127 130 135 141 144 144 140 132 122 113 106 104 106 114 125 138 151 162 171 175 175 170 163 153 143 136 133 134 140 146 152 154 151 145 137 128 122 122 126 135 145 154 159 160 157 151 144 138 133 131 131 132 132 131 127 122 
128 127 127 129 132 137 143 150 157 163 167 169 168 162 151 136 119 102 90 85 88 101 122 145 166 181 187 185 176 160 139 118 104 98 101 109 121 132 140 142 140 134 129 126 126 129 135 140 143 143 137 129 118 107 99 94 95 99 108 120 134 146 156 162 163 161 155 147 138 132 131 134 140 147 153 156 154 148 140 131 125 123 125 131 138 143 144 141 135 126 118 111 108 108 111 117 122 127 129 129 
142 143 143 142 141 141 142 144 147 152 158 164 167 167 162 151 135 118 102 92 90 97 113 134 154 170 178 179 171 157 138 119 105 98 98 105 114 123 129 131 129 126 122 120 122 126 132 138 141 141 136 127 116 105 96 90 88 89 95 104 114 125 135 142 145 145 141 135 129 126 126 131 138 146 153 156 155 150 142 133 126 122 122 124 126 127 124 119 111 102 94 89 87 90 97 106 117 127 135 140 
155 156 155 151 146 140 134 131 131 135 143 152 162 167 168 162 150 133 115 100 92 94 104 120 138 154 164 167 162 150 134 117 104 98 98 102 109 115 119 121 119 116 114 113 116 121 128 134 138 138 135 128 118 108 99 92 88 86 87 92 98 106 114 120 124 126 124 122 119 118 121 126 135 143 151 155 154 150 143 135 127 122 118 116 114 111 106 99 90 83 77 74 75 81 90 103 118 132 144 151 
166 166 163 156 146 134 123 115 111 114 123 136 150 163 169 169 160 145 126 107 95 90 94 106 121 135 146 151 148 139 127 114 104 99 99 102 107 111 113 113 111 108 106 107 110 116 123 129 134 136 134 130 123 116 108 101 95 90 87 87 89 92 97 102 106 109 110 110 110 112 115 121 129 138 145 150 151 149 144 137 129 123 117 111 105 99 92 84 77 71 68 68 71 79 92 107 125 141 153 161 
172 171 166 157 143 126 110 98 93 94 102 117 136 153 166 170 165 153 134 113 97 89 88 94 105 118 128 134 134 129 120 112 105 102 103 106 109 111 112 110 107 103 102 102 105 110 117 124 129 133 134 133 131 127 121 115 108 102 95 90 88 87 88 91 95 99 102 104 106 108 111 116 123 130 137 143 146 146 143 139 133 126 119 111 102 93 84 77 71 67 66 69 75 85 99 116 134 149 161 169 
173 171 165 154 138 119 100 86 78 78 85 100 120 141 158 167 166 156 139 118 101 89 85 87 95 105 114 120 122 120 115 111 108 108 110 113 115 116 115 112 107 103 100 100 103 107 113 119 125 130 134 137 139 139 137 133 127 119 110 101 94 90 89 90 93 97 101 104 106 107 109 111 115 121 127 132 137 141 143 142 139 134 126 117 106 95 84 76 71 69 70 75 84 96 111 127 143 156 165 171 
169 167 161 150 134 114 95 80 71 69 74 87 106 129 148 160 163 156 142 123 105 93 86 86 91 98 106 112 115 115 114 113 113 116 119 122 125 125 122 117 112 107 103 102 103 106 111 117 123 129 135 141 146 150 151 150 146 138 128 117 108 100 97 97 99 103 107 110 111 110 109 107 107 110 114 120 128 135 142 146 147 145 138 128 116 103 91 83 78 77 80 87 97 109 123 137 149 158 164 168 
159 158 154 145 131 113 94 79 69 66 69 80 97 119 139 154 159 156 144 128 112 100 93 91 94 99 105 110 113 115 116 118 120 125 129 133 135 135 131 125 119 113 109 107 107 109 113 117 123 129 136 144 151 157 161 162 160 154 145 134 124 116 111 110 113 117 120 122 120 116 110 104 100 99 101 107 117 128 140 150 156 157 152 144 131 117 104 95 90 90 94 102 112 124 134 143 149 153 156 158 
144 146 145 141 131 116 100 85 74 69 71 79 94 113 133 149 156 155 147 135 122 110 103 101 102 106 110 114 116 119 121 124 128 134 139 143 145 143 139 133 126 120 115 113 113 114 117 121 126 131 138 145 153 160 165 167 167 162 155 147 138 131 128 128 131 134 137 136 132 123 112 101 93 89 89 95 106 121 138 153 163 168 166 159 148 135 122 112 107 107 112 119 128 136 141 143 143 142 141 142 
125 131 136 137 133 124 110 96 85 78 77 83 96 113 132 147 156 157 152 143 132 122 116 113 113 114 117 120 122 124 127 131 136 142 147 150 151 149 144 138 131 125 121 119 120 122 125 128 132 136 141 146 152 157 161 164 164 161 157 152 147 144 143 145 149 152 154 152 144 132 116 100 88 81 80 85 97 114 135 155 169 176 177 172 163 151 139 130 125 125 130 136 141 144 143 138 132 126 122 122 
107 117 127 135 137 133 123 111 99 91 88 93 103 119 135 149 158 160 157 150 142 133 127 123 122 122 123 125 127 130 133 138 143 148 152 154 153 150 145 138 131 126 123 123 125 129 133 137 140 142 144 146 148 149 151 151 151 151 149 148 148 150 153 158 163 167 168 164 155 139 119 100 84 75 73 77 89 107 131 153 170 180 183 180 172 162 152 144 140 141 144 148 150 148 141 130 118 108 102 102 
93 106 121 134 142 143 137 126 114 106 102 105 114 127 142 154 162 164 162 157 149 141 134 129 126 125 126 128 130 134 138 143 147 151 154 154 152 147 141 133 127 123 122 124 129 135 141 146 149 149 148 146 142 138 135 133 131 131 133 136 142 149 157 166 173 177 178 173 162 145 123 100 83 72 68 71 82 101 125 149 168 179 183 181 175 167 158 152 150 151 154 156 155 149 137 121 105 93 86 86 
85 99 117 134 146 150 147 138 127 118 114 116 124 136 149 160 166 168 166 160 151 142 134 127 123 122 122 125 129 134 140 145 150 153 154 153 148 141 133 125 119 116 116 121 128 138 146 153 156 156 152 145 136 126 118 112 109 109 112 119 130 142 156 168 177 182 183 178 167 149 126 102 83 71 66 69 78 95 118 141 161 173 177 176 171 163 157 153 152 155 158 160 157 148 133 114 96 83 76 77 
82 98 117 136 149 154 152 144 134 126 122 124 131 143 154 164 169 170 167 159 149 138 127 119 114 112 114 118 124 131 139 146 151 154 153 149 142 133 124 115 109 106 108 115 125 137 148 157 161 161 155 145 131 116 103 94 89 89 93 102 116 133 150 165 176 182 183 179 169 151 129 106 86 74 68 69 77 91 110 131 149 160 164 163 158 152 147 145 148 153 158 160 157 148 131 111 93 79 73 74 
86 102 121 138 150 154 151 143 133 125 122 125 133 144 156 165 170 170 165 156 143 129 117 107 102 100 102 108 117 127 137 146 151 153 151 146 137 126 115 106 100 98 100 108 119 133 146 157 163 163 158 146 129 111 94 83 76 75 80 89 104 122 141 158 170 177 179 176 167 152 132 111 93 80 74 74 79 90 105 121 134 143 145 143 138 133 130 132 138 146 154 159 157 148 133 114 95 82 76 77 
97 111 128 142 151 152 146 137 126 118 115 119 128 141 153 163 168 167 161 150 135 119 105 95 89 88 92 99 110 122 134 144 150 152 149 142 133 121 110 101 95 92 94 101 112 126 141 153 161 163 158 147 130 110 93 80 72 70 74 82 95 113 131 148 160 168 171 169 162 151 136 119 104 92 86 84 86 93 102 112 119 123 123 120 115 111 111 116 125 137 149 156 157 151 138 120 103 91 86 88 
112 125 138 147 151 148 139 126 114 106 104 108 119 133 147 158 163 163 156 144 127 110 95 85 80 80 84 93 105 118 131 142 148 149 146 139 130 119 109 101 95 92 93 98 107 119 133 145 155 158 156 147 132 115 98 84 76 73 75 82 92 106 121 135 146 153 157 157 154 148 139 129 118 110 103 100 100 101 104 106 107 106 103 98 94 92 94 101 113 128 143 153 157 154 144 130 116 105 101 103 
