P2
100 100
255
129 151 171 184 186 175 150 118 88 68 60 64 80 108 140 167 183 186 174 150 116 83 59 46 41 43 50 63 82 107 131 150 159 160 154 142 126 111 97 88 81 78 78 81 88 101 118 135 150 158 160 153 137 117 96 80 68 60 55 55 59 69 84 103 121 138 151 161 167 169 165 156 146 136 127 120 112 103 92 81 71 62 54 49 45 44 49 61 84 116 149 173 183 181 166 145 123 109 105 113 
163 179 190 195 188 169 137 100 70 53 47 51 65 91 125 157 176 181 172 149 117 85 63 51 47 50 58 71 88 108 125 137 142 140 134 126 119 113 110 109 107 104 100 96 93 94 100 109 121 132 141 146 144 137 126 114 102 90 80 71 66 65 69 77 88 101 115 130 146 160 170 174 175 172 167 160 150 134 112 90 69 54 44 38 35 36 41 54 77 108 142 167 180 181 173 159 146 138 139 149 
187 198 203 202 190 164 126 88 59 44 39 43 57 82 117 150 173 181 175 156 128 100 78 67 64 68 77 89 103 115 123 125 122 117 111 109 110 117 126 135 140 139 132 120 106 93 86 86 92 104 119 135 148 156 157 153 144 130 114 96 80 68 61 60 63 71 83 100 124 150 171 186 194 197 196 192 181 162 135 104 75 55 43 36 34 37 44 57 79 109 139 161 173 174 169 162 156 157 164 175 
200 208 211 206 191 161 120 81 53 40 36 41 55 81 116 151 174 184 181 168 146 123 105 95 94 99 108 118 126 128 124 114 103 93 88 90 100 118 140 159 170 172 164 147 123 98 79 69 69 79 97 122 148 169 181 184 180 169 151 126 98 75 59 51 49 52 61 79 106 139 170 192 205 211 212 209 200 183 155 119 85 61 47 41 41 46 56 71 92 117 139 153 159 157 153 150 151 160 173 187 
203 212 214 208 191 159 117 78 52 40 38 44 60 88 123 156 179 189 188 179 164 149 137 131 133 139 146 152 151 143 126 105 86 73 68 73 88 115 147 175 191 196 189 171 142 107 77 59 54 60 78 108 143 175 195 204 204 196 178 150 116 84 61 48 42 43 50 67 95 132 168 193 208 216 219 217 209 193 167 132 98 73 59 55 58 66 79 96 115 131 141 144 139 132 125 124 132 147 168 188 
199 210 213 207 189 157 115 78 54 44 44 53 72 101 135 165 184 192 191 185 176 168 163 163 167 173 179 180 173 156 129 98 73 58 53 58 76 108 148 182 202 210 206 189 158 118 80 55 45 48 64 95 136 175 200 213 216 210 194 165 127 90 63 48 41 41 48 65 93 130 165 191 207 215 217 216 209 195 172 141 110 89 78 78 86 99 115 131 143 148 144 133 117 102 93 93 103 124 152 179 
190 205 210 203 185 153 114 79 59 51 55 68 91 120 150 173 186 189 187 182 176 173 175 180 188 195 199 198 188 166 132 94 65 48 42 47 65 99 143 182 206 216 215 201 172 129 86 56 42 42 56 86 129 171 200 215 219 214 198 170 131 93 66 51 45 46 54 71 98 132 164 187 200 207 209 206 199 187 167 143 121 108 105 111 124 140 155 166 170 164 147 122 96 76 66 65 75 97 130 164 
178 197 203 197 178 146 110 81 65 62 71 89 114 141 163 177 181 178 172 165 162 163 171 182 194 203 208 206 195 171 134 92 60 42 36 40 56 89 135 178 206 218 219 208 182 141 95 61 44 41 53 81 124 167 197 212 216 210 193 164 127 92 69 57 55 59 70 88 112 139 163 179 187 190 190 186 179 168 153 139 128 126 132 145 161 176 187 193 190 176 149 113 81 59 48 46 55 76 108 146 
166 187 194 186 166 136 104 82 73 77 92 114 139 159 171 173 167 156 144 135 132 138 152 170 188 202 209 209 199 175 137 94 60 41 33 36 51 81 126 171 202 217 220 212 190 153 108 70 50 45 55 81 121 163 192 205 207 198 178 149 116 89 73 68 73 83 97 114 133 149 161 166 166 163 159 153 146 138 131 127 129 138 154 172 188 200 208 209 202 183 149 107 71 48 38 36 43 62 92 131 
157 178 183 173 151 122 97 82 81 93 115 139 159 171 172 162 145 125 108 97 96 104 122 146 172 192 204 207 199 178 143 101 66 45 36 37 49 77 119 164 197 214 219 213 196 164 122 84 61 55 64 88 124 160 184 194 192 178 155 127 101 84 79 85 98 115 132 146 156 160 158 150 139 129 120 113 108 105 106 112 125 144 167 187 203 213 218 217 207 185 148 103 65 43 33 32 39 55 84 122 
153 170 171 157 134 108 89 83 91 111 137 160 175 177 167 145 118 93 75 65 64 73 91 118 149 177 194 201 198 181 151 114 79 56 45 44 54 78 116 158 190 208 214 211 198 173 137 103 80 72 79 101 130 158 175 179 170 151 126 102 86 81 88 106 129 151 167 176 177 170 156 135 113 96 85 79 77 79 85 98 118 144 171 193 208 218 221 219 209 185 146 99 63 41 32 32 39 56 85 121 
154 166 161 143 117 95 83 85 101 128 156 176 184 178 158 127 94 68 52 44 44 51 67 93 126 157 181 193 194 184 162 132 102 78 65 61 68 87 117 151 180 197 205 205 195 177 150 123 103 96 102 119 140 158 165 159 143 120 97 80 73 78 97 125 156 179 193 197 192 178 154 123 95 74 63 59 59 64 73 88 111 140 169 192 207 216 220 218 206 182 142 97 61 42 34 35 45 64 93 127 
161 165 154 130 104 85 79 88 112 143 170 187 190 177 148 111 76 52 39 34 34 41 54 76 106 138 164 181 188 185 173 153 131 111 97 90 92 102 121 144 165 180 188 190 185 174 157 140 127 123 128 139 151 157 154 139 117 93 74 63 64 77 104 140 174 197 208 209 201 183 154 118 87 66 55 52 54 60 70 84 105 132 159 183 200 210 214 212 201 176 136 93 61 44 38 42 55 77 109 140 
169 166 148 121 94 78 77 93 122 155 182 195 193 175 141 100 65 43 33 30 32 39 50 68 93 121 147 166 177 181 179 171 160 148 137 128 123 122 126 134 144 153 159 163 164 161 156 150 146 146 150 155 159 155 143 122 97 75 60 54 59 77 108 148 183 204 214 214 204 185 155 120 89 69 60 58 61 67 74 85 100 120 143 165 183 196 202 201 190 166 129 90 62 47 44 51 69 96 128 155 
176 167 143 112 87 74 77 97 130 165 190 200 195 174 138 95 61 42 34 33 37 44 55 70 88 109 129 146 159 170 177 181 181 178 172 164 153 141 129 121 117 118 122 127 133 140 145 151 155 160 164 165 162 152 134 110 86 66 54 51 58 77 109 148 182 203 212 211 202 184 157 126 99 83 76 76 80 83 87 90 96 107 122 140 158 173 182 184 175 153 121 88 64 52 53 64 87 117 148 170 
180 165 137 104 80 70 77 100 136 171 195 203 197 175 138 96 64 46 40 42 49 59 70 81 92 102 112 123 135 151 167 181 191 196 195 189 175 154 129 106 91 85 85 90 100 114 129 144 156 164 168 167 160 146 127 105 84 67 58 56 62 79 107 141 171 191 200 200 192 178 157 134 116 106 104 106 108 108 104 98 94 93 99 110 126 142 155 161 157 140 114 88 69 61 65 80 107 138 165 180 
180 160 128 96 74 66 75 100 137 172 196 204 198 177 143 103 74 58 55 61 72 85 96 102 102 99 97 99 108 124 147 171 191 203 207 201 186 158 124 92 70 60 58 63 74 91 113 135 152 162 164 161 152 139 123 106 91 79 72 70 73 85 104 129 152 168 176 177 172 163 152 141 135 134 137 141 141 136 123 107 91 81 79 83 94 110 126 138 140 131 113 93 79 74 81 100 127 155 177 186 
176 152 118 87 67 62 71 96 132 167 191 200 196 178 148 115 90 79 81 92 108 122 130 128 116 100 85 78 81 95 121 153 182 201 209 205 188 156 115 79 56 44 42 47 59 78 103 127 146 154 155 148 139 129 120 112 106 101 97 94 93 96 103 114 125 134 140 142 141 140 141 144 150 158 166 171 169 158 138 112 88 72 64 64 72 86 104 121 130 129 120 106 96 94 102 121 145 169 184 187 
172 144 110 79 61 56 65 87 119 154 179 190 189 175 153 129 112 107 115 130 148 160 163 153 130 101 77 62 60 71 95 131 168 194 206 203 184 149 105 69 46 36 35 41 54 75 101 126 142 147 142 133 123 118 118 122 128 131 132 128 122 114 106 101 98 99 100 102 106 114 126 143 161 176 186 190 186 171 145 113 84 64 54 53 60 74 94 116 132 138 135 127 120 119 126 142 161 178 187 186 
169 140 105 75 57 52 58 75 102 132 157 172 174 167 153 140 133 137 149 166 181 189 187 170 139 101 70 51 46 53 74 110 151 183 199 197 177 140 96 61 41 33 34 43 60 84 111 134 144 142 130 116 106 106 115 131 148 161 166 164 153 135 114 94 79 71 68 69 76 91 113 141 167 186 197 200 193 174 143 108 77 58 49 49 56 73 97 123 143 154 155 151 146 145 150 161 174 185 189 185 
169 142 107 77 58 50 52 63 82 106 129 144 151 151 148 146 150 160 175 190 201 205 199 178 142 98 64 44 37 42 61 95 137 173 191 190 168 130 88 56 39 35 40 53 76 104 132 149 152 141 121 101 91 93 110 136 163 183 192 191 179 157 125 93 68 54 48 49 58 76 104 139 171 192 202 203 192 169 135 98 70 53 47 49 60 81 109 138 161 172 175 172 167 165 167 174 183 190 192 186 
175 150 117 86 64 52 49 54 66 82 99 114 124 132 138 147 159 174 190 203 211 212 203 179 139 94 59 40 33 38 55 87 130 166 185 183 161 123 83 55 42 41 52 73 102 134 158 169 164 144 115 90 77 81 101 135 170 195 208 208 198 174 138 97 65 46 39 40 49 70 102 141 175 195 203 200 185 157 121 86 62 50 47 53 69 94 126 156 177 187 189 185 180 176 176 180 187 192 194 189 
184 164 135 103 77 59 51 50 55 64 76 88 100 113 128 144 163 181 196 207 213 212 200 174 133 89 56 39 34 39 57 90 131 166 183 179 156 119 82 58 49 54 72 101 136 166 184 189 177 149 112 81 66 69 90 127 168 199 214 217 209 187 149 104 67 45 36 37 48 71 106 147 179 197 201 193 173 141 104 74 56 48 50 60 81 111 144 171 188 194 193 187 180 174 173 177 184 191 195 194 
193 180 157 127 97 74 59 53 52 56 63 73 86 102 121 142 163 182 197 206 210 206 192 165 125 85 57 42 40 48 69 102 141 171 185 179 155 119 85 64 61 73 99 135 169 193 205 203 187 154 111 76 57 58 78 115 160 195 215 221 215 195 159 112 72 48 38 40 52 78 115 155 184 197 197 183 157 122 89 64 52 49 55 71 96 128 158 180 190 192 186 176 166 159 158 163 173 185 194 197 
199 193 177 153 124 96 75 62 57 57 62 72 85 102 122 143 164 180 192 199 200 195 179 152 116 83 61 52 54 67 91 125 158 182 189 181 156 121 90 74 76 95 129 165 194 212 218 213 194 158 111 72 51 49 65 100 146 187 211 220 217 200 167 121 79 53 43 45 60 89 127 163 187 195 189 170 140 105 76 58 51 53 64 84 112 142 166 180 183 177 165 150 137 129 128 137 152 170 186 197 
200 201 193 175 150 121 96 79 70 69 73 83 97 113 131 149 164 175 182 185 183 175 158 134 107 84 71 69 78 96 123 153 178 193 194 182 155 122 94 82 90 116 153 187 211 223 226 219 199 161 111 69 46 42 54 84 129 173 203 216 216 202 172 128 87 60 50 54 71 101 138 170 187 190 178 154 122 91 68 57 56 63 79 102 129 153 168 172 165 151 132 113 99 92 93 103 122 147 171 190 
194 202 200 190 170 145 120 102 92 91 97 107 120 135 148 158 165 167 166 163 156 146 131 114 97 87 86 94 110 133 157 179 195 201 197 180 151 118 94 86 99 129 167 199 218 228 229 221 201 163 111 68 43 36 44 69 110 156 191 210 212 201 174 134 94 68 58 64 83 113 147 172 183 180 164 137 107 82 67 62 68 81 101 124 146 161 165 158 140 118 95 77 65 60 62 71 90 117 149 176 
181 195 199 194 180 161 141 125 119 120 128 139 150 160 166 167 163 155 144 133 122 111 101 93 89 92 104 122 145 167 186 199 207 206 195 173 141 109 87 83 98 130 169 200 219 228 229 221 201 163 112 67 42 33 38 57 93 138 177 200 206 197 174 138 101 76 68 74 94 122 150 169 174 166 147 121 97 80 73 77 89 107 129 149 163 168 161 142 115 88 66 51 43 39 41 48 64 89 121 155 
160 180 189 187 178 164 151 142 141 147 158 169 177 182 181 174 160 140 120 102 89 80 75 75 81 97 120 148 172 192 204 211 212 205 188 160 125 94 76 73 88 119 158 191 213 224 226 219 200 163 113 69 43 32 35 50 80 122 163 189 198 191 170 138 105 83 76 83 102 126 148 160 160 149 130 109 93 86 89 101 119 139 158 172 179 174 158 130 97 68 48 36 30 28 29 35 46 66 95 129 
135 157 169 170 164 154 147 146 152 164 178 189 196 197 192 178 154 125 98 77 64 57 56 62 76 100 132 165 190 206 214 216 211 198 175 141 105 77 62 60 73 100 136 172 198 213 218 213 196 162 115 73 46 35 36 48 73 111 150 177 188 183 164 135 107 89 83 90 106 125 141 147 143 131 116 103 98 101 113 131 151 169 183 191 191 181 159 126 90 61 42 31 26 24 25 28 37 51 74 104 
112 132 142 143 138 132 131 136 150 168 186 198 205 205 196 177 147 112 81 59 48 43 45 53 71 101 139 174 199 212 217 215 206 186 156 119 84 61 49 48 57 77 108 142 172 193 203 202 188 159 119 80 55 43 42 53 76 109 144 169 178 173 155 130 106 91 87 94 106 120 130 132 127 117 109 105 110 123 141 161 178 192 200 203 199 187 164 130 94 64 45 34 28 26 26 29 35 46 64 87 
99 112 117 115 109 105 106 117 136 160 182 198 206 205 195 173 139 101 70 50 39 36 39 49 69 102 142 178 201 213 215 210 195 169 134 97 67 49 40 39 44 58 80 108 138 163 179 184 177 156 124 93 70 59 58 68 89 117 146 165 171 163 145 123 102 91 88 94 104 114 120 120 116 110 109 115 128 146 166 184 197 205 209 208 203 191 171 142 109 80 60 48 40 37 36 37 42 51 64 82 
100 105 102 94 86 80 82 93 114 141 168 187 198 199 188 165 131 94 64 46 37 35 38 48 70 104 144 179 200 210 209 200 179 148 111 77 54 41 35 34 37 45 59 79 104 128 148 160 160 150 131 110 93 85 86 96 113 135 155 166 166 155 136 114 97 88 88 93 102 109 113 113 111 112 117 129 147 166 184 197 205 208 209 206 200 191 176 156 132 108 89 76 67 61 59 59 63 70 80 91 
116 111 100 86 73 66 65 74 91 117 144 167 181 184 175 155 124 91 65 49 41 39 43 55 76 110 148 179 197 203 199 184 159 125 90 63 46 38 34 34 36 40 49 61 78 98 117 133 141 142 137 129 122 120 123 132 145 158 168 171 164 148 127 106 92 85 86 92 100 107 111 113 115 119 130 145 163 180 193 200 203 202 198 194 189 183 176 167 155 142 130 118 109 103 99 98 99 104 110 115 
142 130 112 91 73 61 57 61 73 92 116 138 154 161 157 142 119 94 73 60 53 52 57 69 91 121 153 178 191 193 183 164 134 102 74 54 44 39 38 40 42 45 50 57 66 79 94 109 123 133 140 145 149 153 159 166 174 179 181 176 163 142 119 99 87 83 85 93 101 109 114 118 123 131 143 158 173 185 192 193 189 183 174 168 164 163 166 170 173 172 169 164 158 153 149 146 146 147 148 147 
167 153 132 107 85 68 58 56 61 73 89 107 122 132 134 129 118 104 91 82 78 78 83 95 114 138 161 176 182 177 162 138 109 82 62 51 46 47 50 55 59 62 65 67 70 75 83 94 107 123 139 154 166 176 184 190 193 194 189 179 161 137 113 94 84 82 86 95 105 114 120 126 133 142 153 165 175 180 179 173 162 148 136 127 125 132 145 163 179 190 196 197 195 192 189 186 183 182 180 176 
185 172 154 130 106 84 69 60 58 61 69 80 93 104 114 120 122 121 119 116 115 116 121 129 142 156 168 173 170 157 137 112 87 68 56 53 55 63 73 83 91 95 96 93 89 85 83 87 96 111 131 152 171 185 195 200 202 199 192 177 157 132 108 92 84 84 91 101 112 121 128 134 140 147 156 163 166 164 155 141 123 106 92 84 85 95 117 146 175 196 209 214 215 214 210 207 203 200 197 192 
191 184 172 154 133 110 90 74 64 59 59 64 72 84 99 116 131 143 150 154 156 157 159 163 167 171 171 166 153 134 111 88 70 59 55 60 71 88 107 124 135 140 139 131 119 105 92 86 88 99 117 141 164 182 194 200 201 196 186 170 149 125 105 92 88 92 100 111 122 130 135 139 142 146 149 151 148 138 123 105 85 69 57 52 54 66 90 125 164 193 211 219 222 220 216 211 206 202 198 195 
184 185 182 174 159 140 118 96 78 64 57 56 61 72 91 116 142 163 177 184 187 188 188 186 183 178 169 154 134 111 89 71 59 55 59 72 94 121 146 166 178 182 179 169 152 129 106 89 83 87 101 123 147 167 181 188 189 183 172 156 136 117 104 97 98 105 115 126 134 138 140 139 138 137 135 131 123 110 93 75 58 46 37 34 36 47 69 106 149 184 206 216 218 215 209 201 193 186 183 183 
165 176 184 186 180 168 149 125 99 77 63 56 57 68 89 120 152 178 194 202 205 205 202 197 189 177 161 140 116 93 74 61 55 57 68 89 120 152 178 196 206 209 205 195 176 149 119 94 79 77 86 103 125 144 158 165 165 159 148 134 120 109 104 106 114 124 135 143 147 146 141 134 127 121 116 109 100 87 72 57 44 35 29 26 29 38 57 91 134 172 196 206 206 199 187 174 162 154 152 156 
137 158 178 190 194 189 175 153 125 97 74 62 60 69 91 124 159 186 203 210 212 210 205 196 184 168 147 124 101 81 66 58 57 64 81 109 143 175 199 213 220 221 218 208 189 161 127 97 79 73 77 89 105 120 130 135 133 126 117 108 102 102 108 120 134 147 157 162 160 152 140 126 113 104 97 91 83 73 62 51 41 33 29 27 29 37 54 84 122 157 179 186 182 169 151 132 117 109 109 119 
107 137 168 189 201 202 194 177 150 119 91 72 67 74 96 128 162 189 204 210 210 206 197 185 170 151 131 110 92 77 68 64 66 78 99 130 163 190 209 219 224 224 220 209 191 163 130 101 82 75 77 84 94 102 106 105 100 94 88 85 87 97 114 135 154 169 177 178 171 156 137 116 99 88 82 79 75 71 64 56 48 41 37 35 37 45 60 85 117 144 159 160 148 129 107 88 75 69 71 83 
84 119 156 186 203 209 205 193 171 140 109 87 77 81 100 129 161 185 198 202 199 191 179 164 148 131 116 102 92 84 79 79 85 99 121 149 177 198 212 219 221 219 213 201 182 156 127 104 90 86 88 94 98 98 93 85 77 70 66 67 76 94 121 149 172 187 192 190 179 158 132 106 87 77 74 75 78 80 79 74 68 62 57 55 57 64 77 97 119 135 139 131 113 91 71 56 47 44 47 60 
71 106 147 181 202 210 210 202 184 157 127 101 88 88 103 127 153 172 183 184 177 166 151 135 122 112 105 102 101 101 102 106 113 126 145 166 186 200 209 212 211 206 197 182 163 141 121 108 104 107 113 117 116 108 94 78 64 55 52 56 69 93 127 161 186 199 203 198 183 159 127 98 79 71 72 80 91 101 107 107 104 98 93 90 91 96 106 119 129 132 125 107 86 66 50 39 34 32 36 48 
67 100 140 175 197 208 210 204 190 167 139 114 97 94 102 119 137 151 157 155 145 131 117 105 99 98 103 111 120 127 133 138 144 152 164 177 188 196 199 198 192 182 168 151 134 119 112 114 123 135 145 150 145 130 106 81 61 49 45 49 65 93 132 169 194 207 209 202 185 157 123 92 74 69 76 92 111 130 142 148 147 143 139 135 134 137 141 145 144 135 117 93 71 53 41 34 30 31 35 46 
70 99 135 167 189 201 204 200 189 170 145 121 103 96 98 107 118 125 125 119 109 97 87 82 84 94 110 128 144 156 163 166 169 172 176 180 184 185 182 174 162 146 129 113 101 97 104 121 143 163 177 182 175 156 126 91 63 47 41 46 62 92 134 174 199 211 212 204 184 154 118 88 72 71 84 107 134 158 174 182 183 181 178 174 172 172 171 167 158 140 115 88 66 50 41 36 35 36 41 52 
80 102 130 156 175 186 190 188 179 164 143 122 105 95 93 95 98 98 95 88 80 72 68 70 80 99 123 148 166 178 184 185 183 180 177 174 171 165 156 142 125 107 90 78 74 79 98 127 160 186 201 205 199 179 146 104 69 48 40 43 60 91 135 175 201 212 212 202 181 148 113 85 73 76 94 122 153 178 194 201 203 202 199 196 193 191 187 179 165 144 116 89 68 55 48 46 47 50 56 65 
94 107 123 140 153 162 167 166 161 150 135 118 104 93 87 84 82 79 74 68 62 59 61 69 87 112 141 166 183 192 194 190 184 175 167 159 150 140 126 110 92 75 62 55 56 68 94 132 172 200 215 219 214 196 162 117 76 50 40 43 59 91 134 174 200 210 209 197 174 141 107 84 76 84 105 136 166 189 201 207 208 206 203 200 197 194 189 180 166 145 119 96 78 69 66 67 70 75 80 86 
112 112 114 119 125 130 135 137 137 132 124 113 102 93 85 79 74 68 63 59 56 57 64 78 101 130 158 180 192 196 192 183 171 158 145 135 125 114 101 86 71 57 47 43 47 61 92 135 178 207 222 227 222 205 173 127 82 54 42 44 60 91 134 172 196 205 202 188 163 131 102 84 81 93 117 147 173 190 199 201 199 196 192 188 186 183 179 172 160 143 123 106 95 91 93 99 105 110 113 113 
128 115 104 98 96 98 102 107 112 115 115 111 104 96 88 80 73 67 62 59 59 64 76 95 121 149 173 188 193 190 179 164 146 130 117 108 101 95 86 76 63 52 43 40 44 59 89 134 178 209 224 229 224 209 178 132 87 58 45 48 64 95 135 170 191 197 190 173 148 119 97 86 90 105 129 155 174 184 187 183 177 170 165 162 160 160 160 156 150 139 128 120 117 120 127 136 144 149 148 140 
140 115 94 80 73 73 78 86 96 106 113 115 112 106 98 89 80 73 69 68 71 79 95 117 142 166 182 189 186 175 156 134 114 98 89 85 85 86 85 79 69 58 48 43 45 57 85 128 173 204 221 226 222 207 177 134 91 63 52 56 74 104 140 168 183 184 174 154 129 107 93 92 101 120 142 160 171 172 165 154 142 133 126 125 127 131 136 139 140 137 135 135 140 148 159 169 177 179 174 161 
145 113 86 68 60 59 65 77 92 108 121 128 128 124 116 106 96 89 85 85 90 101 118 140 161 177 185 184 172 152 127 102 83 71 67 71 79 90 97 97 89 75 61 51 49 57 80 117 160 192 211 217 213 198 169 130 93 70 63 71 90 119 148 168 175 169 153 131 110 96 93 100 117 137 155 165 165 156 139 121 105 94 89 91 97 106 117 127 134 138 143 149 158 169 181 190 196 197 189 172 
144 109 79 61 54 55 64 79 99 120 137 147 150 146 139 129 119 111 107 107 113 125 141 159 173 183 183 174 154 127 98 75 60 54 56 66 83 104 120 126 120 104 84 66 57 58 73 102 139 171 192 199 196 180 154 121 94 79 79 92 114 139 159 169 165 151 130 108 94 89 96 112 134 154 167 170 160 140 115 92 76 67 65 69 79 93 109 123 134 142 150 159 169 181 192 201 205 204 195 175 
141 105 76 59 54 58 71 92 117 141 158 168 171 168 162 153 143 135 130 130 135 145 157 170 179 183 177 162 136 105 77 57 47 45 52 68 95 125 149 160 156 139 113 87 68 61 67 86 113 141 161 169 166 152 131 108 93 91 100 119 142 161 171 169 155 133 108 89 81 85 101 126 152 171 179 174 157 130 99 75 60 54 55 63 76 93 111 127 138 147 154 163 173 185 195 203 207 205 195 173 
135 100 74 60 58 67 86 112 140 164 179 187 188 185 178 170 160 152 147 145 148 155 164 173 179 179 170 151 123 91 66 49 42 43 53 76 110 146 174 187 186 170 143 111 84 67 64 72 89 108 124 131 128 118 105 94 93 103 123 146 167 179 180 169 145 116 90 75 73 84 108 139 167 184 188 179 157 125 92 68 55 52 56 67 83 102 120 133 142 148 152 160 170 181 192 201 204 202 191 168 
129 96 73 63 66 80 105 135 163 183 195 199 198 194 186 177 167 158 151 148 149 153 161 168 173 173 164 145 117 88 64 49 43 46 59 86 125 164 192 205 205 192 168 134 101 77 65 65 73 83 92 95 93 87 82 83 93 114 142 168 185 191 185 165 134 101 77 65 68 85 115 150 178 193 194 183 158 125 92 69 59 58 66 79 96 114 128 137 140 141 142 147 158 171 185 195 199 197 185 161 
121 91 72 66 73 93 123 155 181 197 204 205 202 195 185 173 161 150 141 137 137 141 149 158 165 167 161 146 122 94 71 55 49 52 68 97 137 175 201 213 214 204 183 152 118 90 73 67 68 71 74 74 71 67 68 75 94 123 155 181 195 196 183 156 121 88 66 58 65 86 120 156 184 197 197 184 159 127 96 76 68 70 79 93 109 123 131 132 129 124 122 127 139 156 173 187 193 190 177 153 
112 85 70 68 79 103 136 168 192 204 208 206 199 188 174 158 143 130 120 116 116 121 131 144 156 163 163 153 134 110 86 69 60 62 77 105 144 179 203 214 215 207 190 164 133 106 87 78 75 74 72 68 63 60 62 72 95 128 162 186 197 194 175 144 106 75 57 53 63 86 121 158 184 196 195 182 158 129 102 86 80 84 94 106 117 124 124 118 109 101 98 103 117 139 161 178 186 184 169 143 
102 78 66 66 79 105 140 173 195 206 207 202 191 174 154 133 116 103 94 91 93 100 113 131 149 162 168 165 152 132 108 88 75 73 85 110 144 176 198 208 210 203 190 169 145 123 108 100 96 92 86 78 69 63 64 74 97 130 163 185 193 185 162 127 91 64 51 50 61 84 119 154 179 190 187 174 152 127 107 95 94 99 107 115 119 116 109 98 86 77 75 82 99 125 152 172 181 177 160 133 
91 69 59 61 74 100 135 169 192 202 202 193 176 153 127 104 87 77 71 70 74 84 101 123 146 165 176 178 171 154 131 108 90 83 89 108 136 164 184 195 197 192 182 167 152 139 132 129 127 123 114 101 86 75 72 80 101 131 160 179 183 172 145 110 77 55 46 47 59 82 113 145 167 176 172 159 140 122 108 103 106 111 117 118 114 104 90 77 66 59 60 70 90 120 149 170 179 173 152 122 
81 61 52 53 65 90 124 159 183 195 194 181 158 129 101 79 65 57 55 56 62 75 96 122 150 171 185 189 185 171 149 123 101 89 89 100 121 144 162 172 175 172 166 158 153 151 153 157 159 156 147 131 112 95 87 90 107 132 156 171 172 157 129 95 67 51 45 48 60 81 108 133 150 155 149 137 123 112 107 109 116 122 124 119 107 91 75 61 53 50 54 68 93 125 155 175 180 170 146 112 
73 53 45 46 56 77 109 145 172 185 183 167 140 108 80 61 50 46 46 49 58 75 99 129 158 179 192 197 193 180 158 131 105 89 84 89 102 119 134 144 148 147 145 144 148 157 167 177 183 183 175 159 138 117 104 103 114 134 153 164 162 146 119 88 65 52 49 54 66 84 105 122 131 131 123 112 104 101 104 114 125 132 130 120 103 83 66 54 48 50 60 79 108 141 168 184 185 170 141 104 
66 47 39 39 48 66 96 131 160 175 173 156 127 94 67 51 42 40 42 49 61 82 110 141 168 187 197 200 194 180 156 128 101 84 76 78 86 98 109 117 120 122 123 129 141 157 174 187 196 197 191 177 156 134 118 114 122 138 154 162 159 143 118 92 72 62 61 68 80 94 108 116 116 109 98 90 87 91 103 119 134 142 139 126 105 83 66 56 54 61 77 102 133 163 185 194 191 172 138 98 
62 43 35 36 43 60 87 122 152 169 168 150 120 88 62 47 40 39 43 53 70 95 126 156 179 194 199 198 188 170 145 116 92 76 70 71 77 86 95 100 103 105 109 118 133 153 173 189 198 200 195 181 162 141 126 123 130 144 158 165 163 150 130 109 93 85 86 94 104 114 120 117 107 93 81 74 75 86 104 126 145 154 151 137 116 94 77 70 72 84 106 134 163 186 200 204 196 173 136 94 
59 41 34 35 42 59 86 121 151 168 168 152 122 90 64 49 42 43 49 62 84 113 144 171 189 197 198 190 176 153 126 100 81 70 67 70 78 87 95 99 101 101 104 113 128 147 167 182 191 192 186 172 154 137 125 125 135 150 165 173 172 164 150 135 124 120 122 129 137 141 138 125 106 87 72 66 71 86 109 136 157 167 166 153 134 114 100 95 102 118 141 166 189 204 212 211 199 173 133 90 
58 42 36 38 47 65 94 128 158 174 174 159 132 100 73 56 50 51 60 77 103 134 163 183 194 197 191 177 156 130 105 84 71 67 70 78 89 101 109 113 113 112 112 116 127 141 156 168 173 172 164 150 134 121 116 121 136 156 172 182 184 180 172 164 158 157 160 165 169 168 158 138 112 87 71 65 72 91 119 148 169 180 179 169 154 138 128 127 136 153 173 192 206 215 217 213 198 170 129 88 
60 47 43 47 59 81 111 143 169 183 183 170 146 116 88 70 62 65 77 98 126 155 178 192 196 192 179 158 132 106 84 71 65 69 79 94 112 126 135 138 136 131 127 125 128 135 142 147 148 142 132 119 107 100 101 113 135 158 177 189 194 193 189 185 183 184 188 191 193 188 175 152 122 94 76 71 80 102 131 160 180 189 189 181 169 158 151 153 163 177 192 205 214 218 217 209 192 163 124 86 
65 57 57 66 82 106 135 162 183 192 192 181 161 134 107 89 81 85 99 122 149 172 188 196 194 183 162 135 107 84 68 62 64 75 94 118 139 155 164 166 161 153 144 136 131 129 127 124 119 110 99 88 80 79 86 103 130 157 179 192 198 199 197 196 196 198 202 205 205 199 186 162 132 104 86 83 94 117 145 170 187 193 192 185 175 166 162 164 174 186 197 206 211 212 208 197 179 150 115 85 
75 74 81 94 114 137 161 181 194 200 198 189 172 150 127 110 104 109 124 146 168 185 195 196 187 169 142 111 85 66 57 58 67 86 113 142 166 181 187 187 181 171 158 145 133 123 114 104 94 84 73 65 61 63 73 94 123 153 176 190 196 196 195 194 195 199 203 206 206 201 189 168 141 116 101 100 112 134 159 178 189 192 187 178 167 158 155 158 166 177 186 193 195 193 187 175 156 131 106 86 
90 98 112 130 149 167 183 194 201 202 199 191 178 160 142 129 125 131 146 164 181 193 197 193 178 153 121 90 68 55 51 56 72 98 131 163 185 197 201 198 191 179 164 148 132 117 104 91 79 68 59 53 51 54 65 86 114 144 167 180 184 183 180 178 180 184 189 194 196 193 183 166 146 127 117 119 132 151 169 182 186 183 173 159 145 135 131 134 141 150 158 163 164 160 152 140 125 109 96 89 
108 125 145 162 177 189 196 201 202 200 195 187 175 161 147 138 138 146 160 176 188 196 196 188 168 138 104 75 56 47 47 56 76 108 145 177 197 206 207 202 192 178 161 144 127 111 98 85 73 62 54 49 47 51 62 81 106 132 152 161 161 156 150 147 148 153 160 168 172 172 166 156 144 134 132 138 150 165 176 180 177 165 149 130 114 103 99 100 106 113 119 122 121 117 111 102 95 89 88 95 
124 148 169 184 194 199 201 200 196 191 184 174 163 151 141 137 139 149 163 178 189 195 193 182 159 126 91 64 49 43 45 56 79 113 152 183 201 208 206 199 186 169 150 132 117 105 95 84 74 65 57 52 50 54 64 80 100 120 133 136 131 121 112 106 106 111 119 128 135 139 140 138 136 136 142 152 164 173 177 173 161 142 119 99 83 74 70 70 74 78 82 84 83 80 76 73 73 76 86 102 
136 161 180 192 197 198 195 190 183 174 164 153 142 132 125 124 129 140 156 172 184 191 189 178 154 120 85 60 46 41 44 55 79 114 153 184 201 206 202 190 173 152 131 115 105 99 94 90 83 76 68 62 60 63 71 84 100 112 117 113 102 89 77 71 69 73 79 87 96 103 109 115 123 134 147 161 172 177 174 162 141 116 91 72 60 53 51 52 55 58 61 62 61 60 59 59 63 72 87 110 
141 163 178 186 188 185 179 171 161 150 139 128 117 109 104 104 110 122 139 157 173 183 185 175 153 121 87 61 46 41 43 53 75 109 148 179 196 200 193 178 156 131 110 97 93 94 97 99 98 94 87 81 78 80 86 96 107 112 110 100 84 68 56 49 47 48 52 58 65 73 82 93 109 128 148 165 175 176 166 147 120 93 70 55 47 43 44 46 50 54 57 58 59 58 58 61 66 77 94 116 
138 153 163 167 165 160 153 144 134 124 114 104 95 88 83 83 88 98 115 136 157 172 179 175 158 130 97 69 51 43 43 51 70 101 139 170 188 192 184 165 139 112 92 83 83 91 102 113 119 118 114 108 105 105 109 116 121 122 115 99 81 63 50 42 38 38 40 43 48 55 64 78 98 123 147 166 174 171 156 131 102 76 58 47 43 43 47 53 60 66 71 74 75 75 75 77 82 91 104 120 
129 134 136 136 132 127 121 116 110 104 97 90 81 74 69 66 69 76 91 112 136 159 174 177 168 145 115 85 63 50 45 50 65 92 127 159 179 184 176 155 127 99 80 73 78 91 109 127 140 144 143 138 134 133 135 139 141 139 130 113 92 73 57 47 41 38 38 39 42 47 56 71 92 119 146 164 171 165 146 118 89 66 52 47 48 53 63 74 86 96 104 108 110 110 109 108 109 111 116 122 
115 110 106 102 98 96 95 95 96 96 94 88 79 70 62 57 55 59 70 89 116 145 169 181 179 165 140 109 82 62 52 51 62 84 116 148 170 178 171 151 123 95 77 71 78 94 118 141 157 165 166 163 159 156 156 158 160 158 150 136 117 97 80 66 57 50 46 44 45 48 56 70 92 119 145 162 167 158 136 108 81 63 54 54 61 74 92 110 126 139 148 152 154 153 150 146 141 134 127 121 
100 88 79 74 73 74 80 88 97 104 105 100 90 76 63 53 48 48 55 71 98 132 164 184 191 185 166 139 108 81 63 56 61 78 106 138 163 175 171 154 128 101 82 76 83 101 126 151 169 179 180 177 173 169 168 170 172 173 170 162 149 133 116 101 87 76 67 60 57 57 63 76 97 123 147 162 163 152 129 102 79 66 63 69 85 106 130 152 168 180 187 189 190 187 183 177 167 153 135 117 
89 72 63 59 60 66 78 94 111 124 129 125 111 92 72 56 46 43 46 59 84 121 159 187 200 200 190 168 138 106 80 65 63 75 99 131 158 174 174 162 139 114 95 87 93 110 135 159 176 184 185 181 175 169 167 169 174 180 183 182 177 169 157 144 130 115 101 88 79 75 78 90 109 131 152 163 162 149 126 102 82 74 77 91 115 142 167 186 199 206 210 211 210 207 202 194 181 162 138 111 
82 65 56 54 58 69 88 111 134 151 159 155 140 117 90 66 50 42 42 52 75 112 154 187 206 211 206 191 166 133 100 77 69 75 95 124 154 173 179 171 154 131 112 103 106 121 143 164 178 185 184 177 167 158 154 156 164 175 185 192 195 194 190 182 171 157 141 125 111 102 101 109 124 143 158 166 163 149 128 105 90 86 95 115 143 171 192 207 215 218 219 218 215 212 206 197 184 163 136 107 
81 66 58 58 66 81 105 133 159 177 185 182 169 144 113 82 58 45 41 48 68 104 148 186 208 217 217 207 187 157 122 92 76 76 91 118 148 171 181 178 166 147 129 119 120 132 150 167 178 181 176 165 151 138 131 132 142 158 175 190 200 206 207 205 199 189 175 158 142 130 126 130 141 155 166 170 166 152 132 112 100 99 111 135 162 187 204 214 218 218 216 213 209 204 198 189 176 156 131 104 
89 76 71 73 82 100 125 153 177 194 202 201 191 170 139 104 73 53 44 47 64 96 140 181 207 220 222 217 202 176 140 106 83 77 88 111 140 165 178 180 172 157 141 131 130 139 153 167 174 174 165 149 130 112 103 103 113 131 153 175 192 204 211 212 210 204 193 179 164 152 146 147 155 165 173 175 170 157 139 121 110 110 122 144 168 189 202 208 209 206 201 194 188 182 176 169 160 146 127 107 
106 98 94 96 105 121 143 166 186 201 208 210 204 189 163 129 93 66 51 49 61 89 130 172 202 218 223 220 209 186 153 116 89 78 83 102 128 153 169 174 169 158 144 135 134 141 152 163 169 166 153 133 110 90 79 76 84 100 123 149 172 190 201 207 208 204 196 185 172 161 156 157 164 172 178 180 175 163 146 129 117 115 124 141 160 175 184 187 184 177 168 159 151 145 142 140 139 135 127 117 
131 128 125 125 129 138 152 168 184 197 206 210 209 201 182 153 117 84 62 54 60 81 117 159 192 212 220 220 210 190 158 120 91 76 77 91 114 137 154 161 158 149 138 130 129 135 146 156 160 156 143 121 97 76 64 59 63 74 92 115 140 161 177 187 191 190 185 176 166 158 154 157 165 174 180 182 178 168 153 136 122 116 118 127 138 147 152 150 144 134 123 112 105 102 104 111 120 128 133 134 
160 159 156 152 148 147 149 157 168 180 192 201 206 205 194 173 141 106 77 61 59 73 102 140 175 199 211 213 205 186 155 119 89 73 72 81 99 119 135 142 140 132 123 117 117 124 134 145 150 147 135 115 92 72 59 52 52 57 68 84 104 123 140 153 160 161 158 153 146 142 143 149 159 170 178 182 180 172 158 142 126 114 108 108 110 111 110 105 97 88 78 71 67 69 76 90 109 130 146 156 
183 184 179 170 158 145 135 133 138 149 165 181 194 201 199 186 161 127 93 70 60 65 85 116 151 178 195 200 194 176 146 113 85 70 68 74 88 103 116 121 120 113 105 101 102 108 119 131 139 140 132 116 97 79 65 56 52 52 55 63 74 87 100 111 119 123 123 121 119 119 124 133 146 159 170 177 178 173 163 148 131 114 101 91 85 80 74 68 62 55 49 46 46 51 62 82 110 139 162 177 
200 200 193 179 159 135 114 102 101 110 127 150 172 189 197 192 175 145 110 80 63 60 70 93 122 150 169 178 174 158 132 104 81 69 67 72 83 94 103 106 103 97 90 86 87 93 104 117 128 134 133 124 110 95 82 71 62 57 54 55 58 63 70 77 84 88 91 93 94 97 103 114 128 143 157 167 172 172 166 155 138 119 100 84 70 60 53 47 41 38 35 35 38 45 61 86 120 153 178 193 
209 207 199 181 154 121 92 74 69 74 89 113 143 170 188 192 183 159 125 91 68 58 60 73 94 118 138 149 148 137 117 96 80 72 71 77 86 95 100 100 95 87 80 76 76 82 92 106 120 132 138 137 131 121 109 97 85 74 65 58 55 54 56 60 64 69 73 76 78 82 87 95 107 121 137 150 161 168 168 162 150 131 110 88 69 54 44 38 33 31 31 33 38 50 69 99 135 167 191 204 
211 209 199 178 146 108 76 56 47 49 60 81 112 146 174 187 186 169 139 104 76 60 56 61 75 92 109 121 123 117 105 92 83 80 83 90 98 105 107 103 95 86 77 72 71 76 85 99 116 133 145 152 153 150 142 132 118 103 88 75 65 59 57 58 62 66 70 73 75 76 77 81 88 99 113 129 145 159 168 170 164 150 129 104 80 60 47 38 34 32 34 38 47 61 85 116 150 179 198 208 
207 204 193 172 139 100 68 47 37 36 43 60 88 124 158 180 186 176 152 119 89 68 58 58 65 77 90 101 106 106 101 96 94 96 102 111 119 124 123 115 104 91 81 74 72 76 85 99 117 137 153 165 172 174 171 164 152 137 119 102 88 78 74 74 77 81 85 86 84 80 75 72 73 79 89 106 126 148 167 177 179 171 154 130 103 78 60 48 42 41 44 50 62 80 104 133 161 183 197 204 
193 192 183 164 134 98 66 46 35 32 36 48 72 108 146 174 186 183 165 137 107 82 68 63 65 73 83 93 101 105 107 108 112 119 127 137 144 146 142 132 117 102 89 81 79 82 91 106 124 144 161 175 184 188 189 185 177 165 150 133 119 109 104 104 108 112 114 112 105 93 79 69 63 63 70 84 107 135 162 182 191 190 179 160 135 108 85 69 61 59 63 72 85 102 123 144 162 176 185 191 
168 170 167 155 131 101 73 52 40 34 36 46 67 101 140 171 187 189 178 156 128 103 84 75 73 78 86 96 105 113 120 127 135 144 153 161 165 165 158 146 129 112 99 92 90 95 105 119 137 154 169 180 188 192 194 192 187 180 169 159 149 143 142 144 147 151 152 146 132 111 88 69 57 53 56 67 89 121 156 183 199 204 199 187 167 144 120 102 92 89 93 102 114 126 138 146 153 157 161 165 
133 141 146 145 132 111 87 66 51 43 42 50 70 103 141 173 190 195 189 173 150 125 104 91 86 87 94 104 116 127 138 148 157 166 173 178 180 176 167 153 136 119 107 102 104 111 123 138 152 165 175 182 185 187 186 184 181 177 173 169 168 169 173 177 182 185 184 176 159 131 99 72 54 46 46 55 75 108 147 181 202 212 212 205 192 175 156 140 130 128 131 137 143 147 145 139 132 126 124 127 
96 110 126 137 138 127 108 87 69 57 54 62 81 113 149 178 195 201 198 186 168 145 122 106 97 97 103 113 127 141 154 165 174 181 186 188 186 179 167 150 133 118 110 109 116 128 142 156 168 176 180 180 177 172 166 161 158 157 158 163 171 181 190 198 204 207 205 197 179 148 109 75 52 41 39 46 64 95 137 176 202 214 218 215 207 195 182 171 164 162 164 167 166 159 145 125 106 93 86 87 
68 86 110 133 146 146 133 113 92 77 72 78 98 128 161 186 200 205 203 194 177 155 132 113 102 100 106 117 133 149 165 177 185 190 192 191 184 173 157 138 121 109 105 110 123 140 158 172 181 184 182 175 163 149 135 126 121 122 129 142 160 178 195 207 214 217 216 209 191 160 118 78 52 39 35 40 55 84 125 166 195 211 217 216 211 202 194 187 183 183 185 185 179 164 140 110 84 66 58 58 
52 73 102 133 156 163 156 138 116 98 90 96 115 143 172 193 204 208 205 195 178 155 130 110 98 95 100 113 131 150 168 182 190 194 193 188 177 161 140 119 103 94 95 105 123 146 167 182 190 190 183 169 148 124 103 89 83 85 94 112 137 165 189 206 216 221 221 214 197 167 124 83 54 39 34 37 50 74 111 151 182 201 208 208 203 197 191 187 187 190 193 193 185 165 134 98 68 50 41 42 
48 70 103 138 165 176 172 155 133 113 103 108 126 152 178 196 206 208 203 191 171 144 117 96 84 82 87 101 121 145 166 182 191 194 191 182 166 145 120 99 84 78 82 95 118 145 169 186 194 193 183 163 135 104 79 63 56 57 66 83 111 144 176 199 213 219 220 215 200 171 130 89 58 42 36 37 47 66 96 131 161 180 187 187 182 176 172 173 178 186 192 194 186 165 132 93 62 43 36 37 
53 77 111 147 172 182 177 160 136 115 105 109 127 153 178 195 204 205 198 182 157 126 98 78 68 66 72 86 108 134 159 178 188 191 186 174 154 129 103 83 70 66 71 85 108 137 165 184 193 193 182 159 127 93 66 50 42 42 48 63 87 120 156 184 203 212 215 211 198 174 138 99 68 51 43 43 49 63 84 109 133 148 153 152 146 141 140 145 157 172 185 190 185 167 135 96 65 46 38 40 
68 94 127 159 178 183 174 153 127 105 95 99 117 143 170 190 199 199 190 169 139 106 79 61 53 53 59 73 94 122 150 170 182 185 179 165 143 117 93 74 64 60 65 77 98 126 153 175 187 188 179 158 126 92 65 48 40 37 41 51 70 98 131 162 184 198 203 202 193 175 147 114 86 68 59 56 59 66 77 91 103 111 112 108 102 98 100 110 129 152 173 185 185 171 143 108 77 57 50 53 
95 120 149 172 183 180 164 137 108 87 78 82 99 127 157 180 192 192 181 157 124 90 65 50 44 44 51 64 85 112 140 161 173 175 168 154 134 111 91 76 67 64 66 75 91 113 137 158 172 177 172 156 130 101 75 58 47 43 43 49 61 80 106 133 156 173 182 186 184 174 156 135 114 98 87 82 79 79 80 81 82 80 76 71 66 64 68 80 102 132 160 179 184 176 155 125 97 79 73 78 
