P2
100 100
255
130 132 132 132 130 128 125 122 120 120 121 123 126 129 132 133 134 134 133 131 128 125 122 120 118 117 118 120 123 125 128 130 130 130 129 128 126 125 124 123 122 122 121 121 122 124 126 128 131 133 133 132 130 127 123 120 117 117 117 119 122 124 126 128 129 129 130 130 131 131 131 130 129 128 126 125 124 123 123 122 122 121 120 119 119 119 119 121 123 126 129 131 132 133 132 131 129 128 128 129 
133 134 134 133 131 128 125 121 119 118 119 121 124 127 130 132 133 132 132 130 128 126 123 121 120 119 120 121 123 126 128 129 130 129 128 127 126 126 125 125 125 124 123 122 122 123 124 126 129 131 132 132 131 129 126 123 121 120 121 122 123 124 125 125 125 126 126 127 128 129 131 132 132 131 130 129 128 126 125 124 122 121 119 118 118 118 119 120 122 125 128 130 132 132 132 131 131 130 131 132 
134 135 136 135 132 129 125 122 119 118 118 120 123 126 128 130 131 131 131 130 129 127 125 124 123 122 122 123 125 126 128 128 128 128 127 126 126 126 127 128 128 127 126 125 123 123 123 124 126 128 130 131 131 130 129 127 126 125 124 124 125 124 124 123 122 122 122 124 126 128 131 133 135 135 134 133 132 130 128 125 123 122 120 119 118 118 119 120 122 125 127 129 131 132 132 132 131 131 132 133 
135 136 136 136 133 130 126 123 120 118 118 120 122 125 127 129 130 131 131 131 130 129 128 127 126 126 125 126 126 127 127 127 126 125 125 125 126 127 129 130 131 131 130 128 126 124 122 122 123 125 127 129 131 131 131 130 129 129 128 127 126 125 123 121 120 119 119 121 124 128 132 135 137 138 138 137 135 132 130 127 125 123 121 120 120 120 121 122 124 126 127 129 130 131 131 131 131 131 132 133 
134 136 137 136 134 131 128 124 121 119 119 120 122 124 127 129 130 131 132 132 132 132 131 131 130 129 129 128 128 127 126 125 124 123 122 123 124 127 130 133 135 135 134 132 129 125 123 121 121 122 125 127 130 131 132 132 132 131 130 129 127 124 122 119 118 117 118 120 124 128 133 137 139 140 140 139 137 134 131 129 126 124 123 122 122 122 123 124 126 127 128 129 129 129 129 129 129 130 131 133 
133 135 136 136 134 132 129 125 122 121 120 121 122 125 127 129 130 131 132 133 133 133 133 133 133 132 132 131 130 128 126 124 122 120 120 120 123 126 130 134 137 139 138 136 132 127 123 121 120 120 122 125 128 131 132 133 133 132 131 129 127 124 121 119 117 117 118 121 125 129 134 138 140 141 141 140 137 135 132 129 127 125 124 124 125 126 127 128 128 129 129 128 128 127 126 126 127 127 129 131 
132 134 135 135 134 132 129 126 124 122 121 122 123 125 127 129 131 132 132 133 133 134 134 134 134 134 134 133 131 129 127 124 121 119 117 118 120 124 129 134 138 141 141 138 134 129 125 121 119 119 120 123 126 130 132 133 133 132 130 128 126 123 121 119 118 118 119 122 126 131 135 138 140 141 140 138 136 134 131 129 127 126 126 126 128 129 130 131 131 130 129 127 126 124 123 123 124 125 127 129 
130 133 134 134 133 131 129 126 124 123 123 123 125 127 128 130 131 131 132 132 132 133 133 134 134 135 135 134 133 131 128 124 121 118 116 116 119 123 128 133 138 141 142 140 136 131 126 121 119 118 120 122 126 129 131 132 132 131 129 127 124 122 120 119 119 120 122 125 129 132 135 137 139 139 138 136 134 131 129 128 127 127 127 129 130 132 133 134 133 131 129 126 124 121 120 120 121 122 125 128 
129 131 132 132 131 130 128 126 125 124 124 125 126 128 129 130 130 130 130 130 130 130 131 132 133 134 135 135 134 132 129 125 122 118 116 116 118 121 126 132 137 140 141 140 137 132 127 123 120 119 120 123 126 129 131 131 131 129 127 125 123 121 121 121 122 123 126 128 131 133 135 136 136 135 134 132 130 129 128 127 127 127 129 130 132 134 136 136 134 132 129 125 121 118 117 117 118 121 124 127 
129 130 131 130 129 128 126 125 125 125 125 127 128 129 130 130 129 128 127 126 126 126 127 128 130 132 134 135 135 133 131 127 124 120 118 117 118 121 125 130 135 138 140 139 137 133 128 124 122 121 122 124 127 130 131 131 130 127 125 123 121 121 121 123 125 127 129 131 132 133 133 133 132 131 129 128 127 127 126 126 127 128 129 132 134 136 137 137 135 132 128 123 119 116 115 115 117 120 123 126 
129 130 130 128 127 125 124 124 124 125 127 128 129 130 130 129 127 126 124 122 122 122 123 124 127 130 132 134 134 134 132 129 126 123 120 119 119 121 124 128 132 136 137 137 136 133 129 126 124 124 125 127 129 131 131 131 129 126 123 121 120 121 122 125 128 130 132 133 133 133 131 130 128 127 126 125 125 125 125 126 127 128 130 132 135 137 138 138 136 132 127 122 118 115 114 114 117 120 124 127 
129 129 128 127 125 123 122 123 124 125 127 129 130 130 129 128 125 123 120 119 118 118 119 121 124 127 130 132 133 134 133 131 129 126 124 122 122 123 125 128 131 133 135 135 134 132 130 128 126 126 127 129 131 132 132 130 128 125 122 120 120 121 123 127 130 133 135 135 134 132 130 127 125 123 123 123 124 125 126 126 127 128 130 132 134 136 138 137 135 132 127 122 118 115 114 115 118 121 125 128 
130 129 128 125 123 121 121 122 124 126 128 130 130 130 128 126 123 120 117 116 115 116 117 119 122 125 128 130 132 133 133 132 131 129 127 126 125 125 126 127 129 131 132 133 132 131 130 129 128 128 129 131 132 132 132 130 127 124 121 119 120 121 124 128 132 135 136 136 134 132 128 125 123 122 122 123 124 126 127 127 127 128 129 131 133 135 136 136 135 132 128 123 119 116 116 117 120 124 127 129 
131 130 127 124 122 120 120 121 124 126 129 130 131 130 127 124 121 118 116 114 114 115 117 119 122 124 126 128 130 131 132 132 132 132 131 130 128 128 127 127 128 129 130 130 130 130 130 129 129 129 130 131 132 132 131 129 126 123 121 119 119 121 125 129 133 136 137 136 134 131 128 125 123 122 123 124 126 127 128 128 127 127 127 128 130 132 134 135 134 132 128 124 121 119 119 120 123 126 129 131 
132 130 127 124 122 120 120 122 124 127 130 131 131 129 127 123 120 117 116 115 116 117 119 121 123 124 126 127 128 129 130 131 132 133 133 132 131 130 128 127 126 126 127 128 128 129 129 129 129 129 130 131 131 131 130 128 125 123 120 119 120 122 125 129 133 135 137 136 134 131 128 125 124 124 125 126 128 129 129 128 127 126 125 125 127 129 131 133 133 131 129 126 123 122 122 123 126 129 131 132 
133 131 128 124 122 121 121 123 125 128 130 132 131 129 126 123 120 118 117 117 118 120 123 124 125 126 126 125 126 126 128 130 132 134 135 134 133 131 129 126 125 124 124 125 126 127 128 129 129 129 129 129 129 129 128 127 125 123 121 120 120 122 125 128 132 134 135 135 133 131 128 126 126 126 127 129 130 131 130 128 126 124 122 122 124 126 129 131 131 131 129 127 125 124 125 126 128 131 133 133 
133 131 128 125 123 122 122 124 126 129 131 132 131 129 126 123 121 119 119 120 122 125 127 128 128 127 126 124 124 124 126 128 131 134 135 135 134 131 128 125 123 122 122 123 124 126 127 128 128 128 128 128 127 127 127 126 125 123 122 121 121 122 124 127 130 132 133 133 132 130 129 127 127 128 129 131 132 131 130 127 124 121 120 120 121 123 126 129 130 130 130 128 127 126 127 128 130 132 133 134 
132 130 128 125 123 122 123 125 127 130 132 133 132 130 127 124 122 121 122 124 126 129 131 131 130 128 125 123 122 122 124 127 130 133 135 136 134 131 127 124 121 119 119 121 123 125 127 128 128 127 127 126 126 126 126 126 125 125 123 122 122 122 123 125 127 129 130 131 130 129 128 128 128 129 131 132 132 131 129 126 122 119 118 118 119 122 125 127 129 130 129 128 128 127 128 129 130 132 133 133 
132 130 127 125 124 123 123 125 127 130 132 133 132 130 128 126 124 124 125 127 130 132 134 133 132 128 125 121 120 120 122 125 129 133 135 135 133 130 126 122 119 117 118 119 122 124 127 128 128 127 126 125 125 125 126 126 127 127 126 125 124 123 123 123 124 126 127 127 128 127 127 128 128 130 131 131 131 130 127 124 121 118 117 117 119 121 124 127 128 129 129 128 128 127 128 129 130 132 133 133 
131 129 127 125 123 123 123 125 127 129 131 132 132 131 129 127 126 126 127 129 132 134 135 134 131 127 123 120 118 118 121 124 129 132 134 134 132 129 124 120 117 116 116 119 122 125 127 128 128 127 126 125 124 125 126 128 129 130 129 128 126 124 123 122 122 122 123 124 125 125 126 127 128 129 130 130 130 128 125 122 119 117 116 117 119 122 124 127 128 129 128 128 128 128 128 129 130 131 132 132 
130 128 126 124 123 122 122 123 125 127 129 131 131 131 130 128 128 128 129 131 133 134 134 133 130 125 121 118 116 117 120 124 128 132 134 134 131 127 123 119 116 115 116 119 122 126 129 130 130 128 126 125 124 125 126 129 131 133 133 132 129 126 124 121 120 120 120 121 122 123 124 126 127 128 129 129 128 126 124 121 119 117 117 118 121 123 126 127 129 129 129 128 128 128 128 129 130 131 131 131 
130 128 126 124 122 121 121 122 123 125 127 129 130 130 130 129 129 129 130 132 133 134 133 131 127 123 119 116 115 117 120 124 129 132 134 133 130 126 122 118 116 115 117 120 124 128 131 132 131 129 127 125 124 124 126 130 133 135 136 135 132 129 125 121 119 118 118 119 120 122 124 125 127 128 129 128 127 125 123 120 119 118 119 120 122 125 127 129 129 129 129 129 128 129 129 130 130 131 131 131 
130 129 127 125 122 121 120 120 121 123 125 127 129 130 130 130 130 131 131 132 133 133 131 129 125 121 118 116 115 117 120 125 129 132 133 132 129 125 121 118 116 116 119 122 127 131 133 134 133 130 127 124 123 123 126 129 133 137 138 138 135 131 126 122 119 117 116 117 119 121 124 126 127 128 128 128 127 125 123 121 119 119 120 122 124 127 129 130 130 130 130 129 129 130 130 131 131 132 132 131 
132 130 128 126 124 122 120 120 120 121 123 125 127 129 130 131 131 131 132 132 132 132 130 127 124 121 118 116 117 119 122 126 130 132 133 132 129 125 121 119 117 118 121 125 129 133 136 136 134 131 127 123 121 121 124 128 133 137 140 140 137 133 128 123 119 117 116 117 119 122 124 127 128 129 129 128 127 125 123 121 121 121 122 124 126 128 129 130 131 131 130 130 130 130 131 132 132 133 133 133 
133 132 130 128 126 123 121 120 120 121 123 124 127 128 130 131 132 132 132 132 132 131 129 127 124 121 119 119 119 121 125 128 131 133 133 131 129 125 122 120 119 121 124 128 132 136 138 138 135 131 126 122 119 119 121 126 131 136 139 140 138 134 129 124 120 117 117 118 120 123 126 128 130 130 130 129 127 125 124 122 122 122 123 125 127 128 130 130 131 131 130 130 130 130 131 132 132 133 133 134 
134 134 133 131 128 126 124 122 122 122 123 125 126 128 130 131 132 132 132 132 132 131 129 127 125 123 122 122 123 125 128 130 132 133 132 131 128 125 123 121 121 123 126 130 135 138 140 139 136 132 126 121 118 117 119 123 129 134 138 140 139 135 130 125 120 118 117 119 122 125 128 130 131 131 130 129 127 126 124 123 123 123 124 126 127 128 129 130 130 129 129 129 129 129 129 130 131 132 133 134 
134 135 134 133 131 129 127 125 124 124 124 126 127 129 130 131 132 132 132 132 131 130 129 127 126 126 125 126 127 129 131 132 133 133 132 130 128 125 123 122 123 125 128 132 136 139 141 140 137 132 126 121 117 115 116 121 126 132 136 138 138 135 130 125 121 118 118 120 123 126 129 131 132 131 130 129 127 126 125 125 125 125 126 126 127 128 128 128 128 127 127 126 126 126 126 127 128 130 131 133 
133 134 135 134 133 131 129 128 127 126 127 127 129 130 131 131 131 131 131 130 129 129 128 127 127 128 128 129 131 132 133 134 134 133 131 129 127 125 123 123 124 126 129 132 136 139 140 140 137 132 126 121 116 115 115 119 124 130 134 137 136 134 129 125 121 119 119 121 124 127 130 131 131 131 129 128 126 126 125 126 126 127 127 127 128 128 127 127 126 125 124 123 122 121 121 122 124 126 128 131 
131 133 134 134 133 132 131 130 129 129 129 130 130 131 131 131 131 130 129 128 127 126 126 126 127 129 130 132 134 135 135 135 133 132 129 127 125 124 123 123 124 125 128 131 135 137 139 138 136 132 127 122 118 115 116 119 123 128 132 135 135 132 128 124 121 119 120 122 125 128 130 131 130 129 127 126 125 125 126 127 128 129 129 129 129 128 127 126 125 123 121 119 117 116 116 117 119 121 125 128 
128 130 131 132 132 131 131 130 130 130 131 131 132 132 132 131 130 129 127 125 124 124 124 125 126 128 131 133 135 136 136 134 132 130 127 125 123 122 121 121 122 124 126 129 132 134 136 136 135 132 128 123 120 117 117 119 123 127 131 133 133 131 128 124 121 120 120 122 125 127 129 129 128 126 125 124 124 125 127 129 130 131 132 131 130 129 128 126 124 122 119 116 114 112 112 112 115 118 121 125 
126 128 129 129 129 129 129 129 130 131 132 133 133 133 132 131 129 127 125 123 121 121 121 122 124 127 130 133 135 136 135 134 131 128 125 123 121 119 119 119 120 121 123 125 128 130 132 133 133 131 129 125 122 120 120 121 124 128 130 132 132 130 127 124 122 121 121 123 125 127 127 127 126 124 123 123 124 126 128 131 133 134 134 133 132 131 129 127 125 122 119 115 112 110 110 110 113 116 119 123 
125 126 126 125 125 125 126 127 128 130 132 133 133 133 132 130 128 126 123 121 119 118 119 120 123 126 129 132 134 135 134 132 129 126 123 120 118 117 117 117 117 118 119 121 123 126 128 130 131 131 129 127 125 124 123 124 126 128 130 131 131 129 127 124 122 122 122 123 125 126 126 126 124 123 122 122 124 127 130 134 136 137 136 135 134 132 131 129 127 124 121 117 114 111 111 111 113 116 120 123 
125 125 124 123 122 122 122 124 126 128 131 132 133 132 131 130 127 125 122 120 118 117 118 119 122 125 128 131 133 133 133 131 128 124 121 118 116 115 114 114 115 115 116 117 119 122 124 127 128 129 130 129 128 127 126 126 127 129 130 131 131 129 127 125 123 123 123 124 125 126 126 124 123 122 122 123 125 129 133 136 138 138 138 136 135 133 132 131 129 127 124 121 118 115 115 115 117 120 123 125 
128 126 124 122 120 119 120 121 124 126 129 131 131 131 130 129 127 124 122 120 119 118 118 120 122 125 127 130 132 132 132 130 127 123 120 117 115 114 113 113 113 114 114 115 117 119 121 124 127 129 130 130 130 129 129 129 129 130 131 131 130 129 127 126 124 124 124 125 126 126 125 124 123 122 122 124 127 131 135 137 139 138 137 136 134 133 133 133 132 131 129 127 124 122 121 121 123 125 127 128 
131 129 125 122 119 118 118 120 122 125 127 129 129 130 129 128 126 125 123 122 121 120 121 122 124 126 128 130 131 131 131 129 126 123 120 118 115 114 114 113 114 114 114 115 116 118 120 123 125 128 130 131 131 131 130 130 130 131 131 131 130 129 128 126 125 125 125 126 126 126 125 124 123 123 124 126 129 132 135 137 138 137 135 133 132 131 132 134 135 135 134 132 130 129 128 128 130 131 132 132 
134 131 127 124 121 119 119 120 121 123 125 127 127 127 127 127 126 125 125 124 124 124 125 125 126 128 129 130 131 131 130 128 126 124 121 119 117 116 115 115 116 116 117 117 118 119 120 122 125 127 129 131 131 131 131 131 131 131 131 130 130 129 128 126 126 125 126 126 127 127 126 125 124 124 125 127 130 133 135 135 135 133 130 128 127 128 130 133 136 137 138 137 136 135 134 134 135 136 137 136 
136 133 130 126 123 122 121 121 122 123 124 125 125 125 125 125 126 126 127 127 128 128 129 129 130 130 130 131 131 130 129 128 126 124 122 120 119 118 118 119 120 120 121 121 121 121 122 123 125 127 129 130 131 131 131 131 131 131 131 130 129 128 127 126 126 126 126 127 127 127 126 126 125 125 126 128 130 132 133 132 130 127 124 122 121 123 126 131 135 138 140 140 140 139 138 138 138 139 139 138 
137 134 132 129 127 125 124 124 123 123 123 123 123 123 124 124 126 127 129 130 132 132 133 133 133 132 132 131 130 129 129 127 126 125 123 122 121 122 122 124 125 126 126 126 125 125 124 124 125 127 128 129 130 131 131 131 131 131 130 130 129 128 127 126 125 125 126 127 127 127 127 126 126 126 126 127 129 129 129 128 125 121 117 115 115 118 122 128 133 138 140 141 141 140 139 138 138 138 138 138 
135 134 133 131 130 129 127 126 125 124 123 122 121 121 122 124 126 128 130 133 134 135 136 135 135 133 132 131 129 128 127 126 125 124 124 124 124 125 126 128 130 131 131 131 129 128 126 126 125 126 127 128 129 129 130 130 130 130 130 129 128 127 126 125 125 125 126 127 128 128 128 127 126 126 126 126 127 126 125 123 119 115 112 110 111 113 118 125 131 135 139 140 139 138 136 135 135 135 135 135 
131 132 132 132 132 132 131 129 127 125 123 121 120 120 121 123 126 129 132 134 136 137 137 136 135 133 132 130 128 127 126 125 124 124 124 125 126 127 130 132 134 136 136 135 133 130 128 126 125 125 125 126 127 127 128 129 129 129 129 129 128 127 126 125 125 125 126 127 128 128 128 127 126 125 125 124 124 123 122 119 116 112 109 107 108 111 116 122 128 133 136 136 136 134 132 130 129 129 130 130 
127 129 131 133 134 134 133 131 129 126 123 121 120 120 121 123 126 130 132 135 136 137 137 136 134 132 131 129 127 126 125 124 124 124 124 125 127 129 132 135 137 139 139 137 135 131 128 126 124 123 124 124 125 126 127 127 128 128 128 128 127 126 126 125 125 126 127 128 129 129 129 127 126 124 123 123 122 121 120 117 114 111 108 107 108 111 116 121 127 131 133 133 131 129 126 124 123 123 124 125 
124 127 130 132 134 135 134 132 130 126 123 121 120 120 122 124 127 130 133 134 135 135 135 134 132 131 129 128 127 125 125 124 124 124 124 126 128 130 133 136 138 140 139 138 135 131 128 125 123 123 123 123 124 125 125 126 126 127 127 127 127 126 126 126 126 127 128 130 130 130 129 128 126 124 122 122 121 120 119 118 115 113 111 110 111 114 118 122 126 129 130 129 127 124 121 119 118 118 119 121 
121 125 128 132 134 135 135 133 130 127 123 121 120 121 122 125 128 130 132 133 133 133 132 131 130 129 128 128 127 126 125 125 125 125 125 126 128 131 133 136 138 139 138 136 133 130 127 124 123 122 123 123 124 124 124 124 125 125 125 125 126 126 127 127 128 129 130 131 132 131 130 128 125 123 122 121 121 121 121 120 119 117 116 116 117 119 121 124 127 128 128 127 124 121 118 116 115 115 116 118 
120 124 128 131 133 134 134 132 130 127 124 122 121 122 124 126 128 130 131 131 131 130 129 128 128 128 128 128 128 128 128 127 127 126 127 127 129 131 133 135 136 136 136 134 131 128 125 124 123 123 124 124 125 125 124 123 123 123 123 124 125 126 127 129 130 132 133 133 133 132 130 128 125 123 122 122 122 123 124 124 124 123 123 123 123 124 126 127 128 128 127 126 123 120 117 115 114 114 115 117 
121 124 127 130 132 133 133 132 129 127 124 123 122 123 125 126 128 129 130 129 128 127 126 125 126 127 128 129 130 130 130 130 130 129 129 129 129 130 132 133 133 133 132 130 128 126 125 124 124 125 126 127 127 126 125 123 121 121 121 122 123 126 128 130 133 134 135 135 134 132 130 127 125 123 122 123 124 125 127 128 129 129 129 129 129 129 130 130 130 129 127 125 122 120 118 116 116 116 117 119 
123 125 127 129 131 132 132 131 129 127 125 124 123 124 125 127 128 128 128 127 125 124 123 123 125 126 129 131 132 133 133 133 132 132 131 130 130 130 130 130 130 129 128 127 125 124 124 125 126 128 130 131 130 128 126 123 120 119 118 120 122 125 129 132 135 136 137 136 135 132 129 127 125 123 123 124 126 128 130 132 133 133 134 133 133 133 132 132 131 129 127 125 123 121 120 119 119 119 120 121 
125 126 127 128 129 130 130 129 128 127 126 125 124 125 125 126 127 127 126 124 123 122 122 122 124 127 130 132 134 135 135 135 134 133 132 131 130 130 129 128 127 126 125 123 123 123 124 126 129 132 134 134 133 131 127 123 119 117 116 118 121 125 129 133 136 138 138 137 134 132 129 126 124 124 124 126 128 130 132 134 135 135 135 135 135 134 133 132 131 129 127 125 124 123 122 122 123 123 123 124 
126 126 126 127 127 128 128 128 128 127 126 125 125 125 125 125 125 125 124 123 122 121 121 123 125 128 131 133 135 136 136 136 135 134 132 131 130 129 127 126 124 123 122 121 121 122 124 127 131 135 137 138 137 133 129 123 119 116 115 116 120 124 129 134 137 139 138 136 134 130 128 125 124 125 126 128 130 132 133 134 135 135 135 134 134 133 132 131 130 128 126 125 124 124 125 125 126 127 127 126 
127 126 125 125 125 126 127 127 127 127 126 126 125 124 124 124 124 123 123 122 121 121 122 124 126 129 131 133 135 135 135 134 133 132 131 130 129 127 126 124 122 121 119 119 119 121 124 128 132 136 139 140 139 135 130 124 119 116 114 116 119 124 129 134 137 138 137 135 132 129 127 125 125 126 127 129 131 132 133 133 133 132 132 131 131 131 130 129 128 127 126 125 125 126 127 128 129 129 129 128 
127 125 124 123 123 124 125 126 127 127 126 126 125 124 123 123 123 122 122 122 122 123 124 126 128 130 132 133 134 133 132 131 130 129 128 128 127 126 125 123 121 120 118 117 118 120 123 127 132 136 140 141 139 136 131 125 120 116 115 116 119 124 129 133 136 137 136 133 130 128 126 125 125 127 129 130 132 132 132 131 129 128 127 127 127 127 128 127 127 126 126 125 126 127 128 129 130 131 130 129 
126 124 122 121 121 122 123 125 126 127 127 126 125 124 123 122 122 122 122 122 123 124 126 128 130 131 132 133 132 130 129 127 126 125 124 124 125 124 124 123 122 120 118 117 117 119 122 126 131 135 138 139 138 135 131 125 120 117 116 117 120 125 129 132 134 134 133 131 128 126 125 125 127 128 130 132 132 131 130 128 126 124 123 123 124 125 126 126 126 126 126 126 127 128 129 131 131 131 131 129 
126 123 121 120 120 121 122 124 126 127 127 127 126 124 123 123 122 122 123 124 125 127 128 130 131 132 133 132 130 128 125 123 121 121 121 121 122 123 124 124 123 121 119 118 117 118 120 124 128 132 135 137 136 134 130 125 121 119 118 119 122 126 129 131 132 132 130 128 126 125 125 126 128 130 132 132 132 131 128 125 123 121 120 120 121 123 125 126 127 127 127 127 128 129 130 131 132 132 131 129 
126 123 120 119 119 120 122 124 126 127 128 128 127 126 125 124 124 124 124 125 127 128 130 131 133 133 132 131 129 126 123 120 118 117 118 119 121 123 125 126 125 124 122 120 118 118 119 122 125 129 132 133 133 131 128 125 123 121 121 122 125 127 129 130 130 129 127 126 124 124 125 127 129 131 133 133 132 130 127 123 121 119 118 119 121 123 125 127 128 129 129 129 129 130 131 132 133 132 131 129 
126 123 120 119 119 120 122 125 127 128 129 129 128 127 126 126 125 125 126 127 128 129 131 132 133 133 132 131 128 125 121 118 116 115 116 118 121 124 126 128 128 127 125 122 120 118 119 120 123 125 128 129 129 128 126 125 123 123 124 126 127 129 129 129 128 126 125 123 123 124 126 128 130 132 133 133 131 128 125 122 120 118 118 119 122 124 127 129 130 130 130 130 131 131 132 133 133 133 131 129 
126 123 121 119 119 121 123 125 128 130 130 131 130 129 129 128 127 127 128 128 129 130 131 132 132 132 132 130 128 125 121 118 116 115 116 118 121 125 128 131 131 130 128 125 122 119 119 119 121 123 125 126 126 125 124 124 124 125 127 129 130 131 130 129 127 124 123 122 122 124 126 129 131 132 133 132 130 127 124 122 120 119 119 121 123 126 128 130 131 132 132 131 131 132 133 134 134 134 132 129 
127 124 121 120 120 122 124 127 129 131 132 132 132 131 130 130 129 129 129 129 129 129 130 130 131 131 131 130 128 126 123 120 117 116 117 119 122 126 130 133 134 133 130 127 123 121 120 120 121 122 123 123 123 122 122 123 124 127 129 132 133 133 131 129 125 123 121 121 122 124 127 130 131 132 132 130 128 126 123 121 120 120 121 123 125 127 129 131 132 132 132 131 132 132 133 134 134 134 132 130 
127 124 122 121 121 123 125 128 130 132 133 133 133 132 131 131 130 130 129 129 128 128 128 128 129 130 130 130 129 127 125 122 119 118 118 120 123 128 132 135 136 135 132 129 125 123 121 121 122 122 123 122 121 121 121 122 124 128 131 134 135 134 132 128 125 122 120 121 122 125 128 130 131 131 130 128 126 124 122 121 121 122 123 124 126 128 129 131 131 131 131 131 131 131 133 134 134 134 132 130 
127 124 122 121 122 124 126 129 131 133 133 133 133 132 131 131 130 130 129 128 128 127 126 127 127 128 129 130 130 129 127 124 122 120 120 121 124 128 132 135 136 135 133 130 126 124 123 123 124 124 124 123 121 120 120 121 124 128 132 135 136 135 132 128 124 121 120 120 123 125 128 130 130 130 128 126 124 123 122 122 122 123 124 125 126 127 128 129 129 129 129 129 129 130 132 133 134 133 132 130 
126 124 122 121 122 124 127 129 131 133 133 132 132 131 130 129 129 129 128 128 127 126 125 125 126 127 129 130 131 130 129 127 124 122 121 122 125 128 132 134 135 135 132 130 127 125 125 126 127 127 126 125 122 120 119 120 123 128 132 136 137 136 132 128 123 121 120 121 123 126 128 130 130 128 126 124 123 122 122 122 123 124 124 125 125 125 126 126 126 126 126 127 127 129 131 132 133 133 131 129 
125 122 121 121 122 124 127 130 131 132 132 131 130 128 127 127 127 127 127 127 126 125 125 125 125 127 129 130 132 132 130 128 125 123 122 122 124 127 131 133 134 133 131 129 127 126 127 128 130 130 130 127 124 121 119 120 123 127 132 135 136 135 132 127 123 120 119 121 123 126 129 129 129 127 125 123 122 122 122 123 124 124 124 124 124 123 123 123 123 123 124 125 126 128 130 131 132 132 130 128 
123 121 119 119 121 124 127 129 131 131 131 129 127 126 125 124 124 125 125 126 125 125 125 125 126 127 129 131 132 132 131 129 126 123 122 122 124 126 129 131 132 131 130 128 127 127 128 131 133 134 133 130 126 123 121 121 123 127 131 134 136 134 131 126 122 120 119 121 124 127 129 129 128 126 124 123 122 122 123 124 125 125 124 123 122 121 120 120 120 121 122 123 125 128 130 131 132 131 129 126 
121 118 117 118 120 123 126 129 131 131 130 127 125 123 122 122 122 123 124 125 125 126 126 126 127 128 130 131 132 132 131 128 126 123 122 121 123 125 127 129 130 129 128 127 126 127 129 132 135 136 135 133 129 125 122 122 123 127 131 134 134 133 130 125 122 120 120 122 125 127 129 129 128 126 124 123 122 123 124 125 126 126 124 123 121 120 119 119 119 120 122 124 126 128 131 132 132 131 128 125 
119 116 115 116 118 122 125 128 130 130 129 127 124 122 120 120 120 121 123 125 126 127 127 128 129 130 131 132 132 131 130 127 125 122 121 121 122 124 126 128 129 128 127 126 126 127 130 133 136 137 137 134 131 127 124 123 124 127 131 133 134 132 129 125 122 121 121 123 126 128 129 128 127 125 123 123 123 124 126 127 127 127 125 123 121 120 119 119 120 121 123 125 128 130 132 134 133 131 128 123 
118 115 113 114 117 120 125 128 130 131 129 127 124 122 120 119 120 121 123 125 126 128 129 130 131 131 132 132 131 130 128 126 124 122 120 121 122 124 126 128 128 128 127 126 126 127 129 132 135 137 137 135 131 128 125 124 125 128 131 133 134 132 129 126 123 122 123 125 127 129 129 128 126 124 123 123 124 125 127 128 129 128 126 124 122 121 121 121 122 123 125 128 131 133 135 135 134 132 127 123 
117 114 112 113 116 120 124 128 130 131 131 129 126 124 122 120 120 121 123 125 127 129 131 132 133 133 132 131 130 128 126 124 122 121 120 121 122 124 127 128 129 129 128 127 126 127 128 131 133 135 135 134 131 128 126 125 127 129 132 134 134 132 130 127 126 125 126 128 129 130 130 128 126 124 123 123 124 126 128 129 130 129 128 126 124 123 123 124 125 126 128 131 133 136 137 137 136 132 128 122 
117 114 113 113 116 120 125 128 131 133 132 131 129 126 124 123 122 122 124 126 128 130 132 133 134 133 132 130 128 126 124 122 121 120 120 122 124 126 128 130 131 130 129 128 127 126 127 129 131 132 132 131 129 127 126 126 127 130 133 134 134 133 131 129 128 128 129 131 132 132 131 128 126 124 122 123 124 127 129 130 131 130 129 128 126 126 126 127 128 130 132 134 136 138 139 138 136 132 128 122 
118 115 114 115 118 121 126 129 132 134 134 133 132 129 127 125 124 124 125 126 128 131 133 134 134 133 131 128 126 123 121 120 120 120 121 123 125 128 130 132 133 132 131 129 127 126 126 127 127 128 128 127 126 125 125 126 128 131 133 135 135 134 133 132 131 132 133 134 135 134 132 129 126 124 123 123 125 127 129 131 131 131 130 129 128 128 129 130 131 132 134 135 137 138 139 138 136 132 127 122 
119 117 117 118 121 124 127 131 133 135 135 135 134 132 130 128 126 125 125 127 129 131 133 134 134 133 130 127 124 121 119 119 119 121 122 125 127 130 132 133 134 134 132 130 128 126 125 125 124 124 124 123 122 122 123 125 128 131 134 135 136 135 134 133 133 134 135 137 137 135 133 129 126 124 123 124 126 128 130 131 131 130 130 129 129 129 130 131 132 133 134 135 136 137 137 136 134 131 127 123 
121 121 121 122 124 127 130 132 134 135 136 135 135 133 132 130 128 126 126 127 129 131 133 134 134 132 128 125 122 119 118 118 120 122 124 127 129 131 133 135 135 134 133 131 129 127 125 123 122 121 120 119 119 120 121 124 127 131 133 135 135 134 134 133 134 135 137 138 138 136 133 130 127 125 124 125 127 129 130 131 131 130 129 128 128 129 130 131 132 133 133 133 134 134 133 132 131 128 126 123 
123 124 125 127 129 130 132 133 134 134 134 135 134 133 132 130 128 127 127 128 129 131 133 134 133 130 127 123 120 118 117 118 120 123 126 128 131 132 134 135 135 134 133 131 129 127 125 123 121 119 118 117 117 118 120 123 127 130 133 134 134 133 132 132 133 134 136 137 137 136 133 130 127 125 125 126 128 130 131 131 130 129 128 127 127 127 128 129 130 130 130 130 130 129 129 128 127 125 124 124 
125 127 129 131 133 133 133 133 133 132 132 132 133 132 131 130 129 127 127 128 129 131 132 133 132 129 126 122 119 118 118 119 121 124 127 130 131 133 133 134 134 133 132 131 129 128 126 124 121 119 117 116 115 116 119 122 126 129 132 132 132 130 129 129 130 131 133 135 135 134 131 129 127 126 126 128 130 131 132 131 130 128 126 125 124 125 126 127 127 127 127 126 125 125 124 123 123 123 123 124 
127 130 133 134 135 135 134 133 131 130 130 130 130 130 130 129 128 127 127 128 129 131 132 132 131 128 125 121 119 118 118 120 123 126 128 130 132 132 132 132 132 131 131 130 129 128 127 125 123 120 118 116 116 117 119 122 126 129 130 130 129 127 125 125 125 127 129 131 132 131 129 127 126 126 127 129 131 132 132 131 129 126 124 122 122 122 123 123 124 124 124 123 122 121 120 119 120 120 122 124 
128 131 134 136 136 135 134 131 129 128 127 127 128 128 128 128 128 127 127 128 130 131 132 132 130 127 124 121 119 118 119 121 124 127 129 131 131 131 131 130 129 129 128 128 128 128 128 127 125 122 120 118 117 118 120 123 126 128 129 128 126 123 121 120 121 122 125 127 128 127 127 126 125 126 128 130 132 133 133 131 128 125 122 120 119 119 120 121 121 122 121 121 120 118 118 117 118 119 122 125 
128 132 134 135 135 134 132 130 127 126 125 125 126 126 127 127 127 127 127 128 130 131 132 131 129 127 124 121 119 118 119 121 124 127 129 130 131 130 129 128 127 126 126 127 127 128 129 128 127 125 123 121 120 120 122 124 127 128 129 127 124 121 118 117 117 118 120 123 124 124 124 124 124 126 128 130 132 133 133 131 128 124 121 119 118 118 118 119 120 121 121 120 119 119 118 118 118 120 122 125 
128 130 132 133 133 132 130 128 126 125 124 125 125 126 126 126 126 126 127 128 130 131 131 131 129 127 124 121 119 119 120 121 124 126 129 130 130 130 128 127 125 125 124 125 126 128 129 130 129 128 125 123 122 122 123 126 128 129 128 126 123 119 116 115 115 116 118 120 121 122 122 123 124 126 128 130 132 133 132 130 127 124 121 119 118 118 118 120 121 122 122 122 122 121 121 120 121 122 124 126 
127 128 129 129 129 128 127 126 125 125 125 125 125 126 126 125 125 126 126 127 129 130 131 131 129 127 124 122 120 119 119 121 123 125 128 129 130 129 128 127 125 124 123 124 125 127 129 130 131 130 128 126 125 124 125 127 129 129 129 126 123 119 116 115 114 116 117 119 120 121 122 123 124 126 128 130 132 132 131 129 126 123 121 119 118 119 120 121 123 124 125 125 125 125 125 125 125 125 125 126 
126 126 126 125 125 125 125 125 126 126 126 126 126 126 125 125 124 124 125 126 127 129 130 130 130 128 125 123 121 120 119 120 122 124 126 128 130 130 129 128 126 124 123 123 125 127 129 130 131 131 129 128 126 126 127 128 129 130 130 128 125 121 119 117 117 117 119 120 121 122 122 123 125 126 128 130 131 131 130 128 125 123 121 120 120 121 122 124 126 127 128 129 130 130 130 130 129 128 128 127 
125 124 122 122 122 123 124 125 126 127 128 128 127 126 125 123 122 122 122 124 126 128 130 131 131 129 128 125 123 121 120 120 121 122 125 127 130 131 131 130 128 126 124 124 124 126 128 130 131 131 130 129 128 127 128 129 130 131 131 129 127 125 123 121 121 121 122 123 123 124 124 125 126 127 129 130 130 130 129 127 125 123 122 122 122 124 125 127 129 130 132 133 134 134 134 134 133 131 129 127 
124 122 120 120 120 122 124 126 128 129 130 129 128 126 124 122 120 119 120 121 123 126 129 131 132 132 130 128 125 123 121 119 120 121 124 127 130 132 133 132 130 128 125 124 124 125 127 129 131 131 130 129 128 128 128 129 130 131 131 131 130 128 127 126 126 126 126 126 126 125 126 126 127 128 130 130 130 129 128 126 124 123 123 124 125 127 129 130 132 133 134 135 136 136 137 136 135 133 131 127 
124 121 119 119 120 122 125 128 130 131 131 130 128 126 123 120 118 117 117 118 121 125 128 131 134 134 134 132 129 125 122 120 119 120 122 126 129 132 134 134 132 129 127 125 125 125 127 129 130 131 130 129 128 128 128 128 129 131 131 132 132 132 131 131 131 130 130 129 128 127 127 127 128 130 131 131 131 129 127 126 124 124 124 126 127 129 131 133 133 134 135 135 136 137 137 137 136 134 131 127 
124 122 120 120 122 124 127 130 132 133 132 131 129 126 123 120 117 116 115 117 120 123 128 132 135 137 137 135 132 128 124 121 119 119 121 125 129 132 134 134 133 130 128 126 125 125 127 129 130 130 130 129 128 127 127 127 128 130 131 132 133 134 134 134 134 133 132 130 129 128 127 128 129 131 132 132 131 130 128 126 125 125 125 127 129 131 133 134 134 134 133 133 134 134 135 135 135 133 130 127 
125 123 122 123 125 127 130 132 133 134 133 131 129 126 123 120 118 116 115 116 119 123 127 132 136 139 139 138 135 131 126 122 120 119 121 124 127 131 133 134 132 130 128 126 125 126 127 129 130 130 130 129 128 127 126 126 127 128 129 131 133 134 135 136 136 135 133 131 129 127 127 128 129 131 133 133 132 131 129 127 125 125 126 128 130 132 133 133 133 131 130 130 130 130 131 132 132 131 130 127 
126 125 125 126 128 130 132 133 134 134 133 131 130 127 125 122 120 118 117 117 119 122 127 132 136 139 140 139 137 132 128 123 121 119 120 123 126 129 131 132 131 129 127 126 126 126 127 129 130 130 130 129 127 126 125 124 125 125 127 129 131 133 134 135 135 134 132 130 127 126 126 127 129 132 133 134 134 132 130 128 126 126 127 129 130 132 132 132 130 128 127 125 125 126 127 128 129 129 129 128 
128 128 129 130 131 132 133 133 133 133 132 131 130 129 128 126 124 121 119 119 119 122 126 130 134 138 139 139 137 133 129 124 121 120 120 122 124 127 128 129 128 127 126 125 126 127 128 129 130 131 130 129 127 126 124 123 123 123 124 126 128 130 132 133 133 132 130 128 126 125 125 126 129 132 134 135 134 133 131 128 127 126 127 128 130 130 130 129 127 125 123 121 121 121 123 125 127 128 128 128 
130 131 131 132 133 133 133 132 131 130 130 130 131 131 131 130 128 126 123 121 120 122 124 128 132 135 137 137 135 132 128 125 122 120 120 121 123 124 125 126 125 125 124 125 125 127 128 130 131 131 130 129 127 125 124 123 122 121 122 123 124 126 128 130 130 130 128 126 124 123 124 126 128 131 134 135 135 133 131 129 127 126 126 127 128 128 128 126 124 121 119 118 118 119 121 123 126 128 129 130 
132 133 133 134 133 133 131 130 128 127 128 129 131 133 134 134 133 130 126 123 121 121 122 125 128 131 133 134 133 130 128 125 122 121 121 121 122 123 123 123 123 122 123 124 125 127 129 130 131 131 130 129 127 126 124 123 121 121 120 120 121 123 125 126 127 127 126 125 123 123 123 125 128 131 133 134 134 133 131 129 127 126 126 126 126 126 125 123 121 119 117 116 116 117 120 123 126 128 130 131 
134 134 134 134 133 131 129 126 124 124 124 127 130 134 136 137 136 133 129 125 122 120 120 122 124 127 129 130 129 128 126 124 123 122 122 122 122 122 122 121 121 121 121 123 125 127 128 130 130 130 129 129 128 126 125 124 122 121 120 119 120 121 122 124 125 125 125 124 123 123 123 125 127 130 132 133 133 133 131 129 127 126 125 125 125 124 123 121 119 117 115 115 116 118 121 124 127 130 132 133 
134 134 134 133 131 128 125 122 120 120 121 124 129 133 137 138 137 135 130 126 122 119 119 119 121 123 125 126 126 125 125 124 123 123 123 123 123 123 122 121 120 120 121 122 124 126 128 129 129 129 129 128 128 128 127 126 125 123 121 120 119 120 121 122 123 124 125 125 124 124 124 125 126 128 130 131 132 131 130 129 127 126 125 124 124 123 121 119 117 116 115 116 117 120 123 126 129 131 133 134 
134 134 133 132 129 126 123 119 117 117 118 122 127 132 135 137 137 135 130 126 122 119 118 118 120 121 123 123 124 124 123 123 124 124 125 125 125 124 123 121 120 120 121 122 124 126 127 128 128 128 128 128 129 129 130 129 128 126 124 122 121 120 120 122 123 124 125 125 125 125 124 125 125 126 127 128 129 129 129 129 128 127 126 125 124 122 120 119 117 116 116 117 120 122 126 129 131 133 134 134 
133 133 132 130 128 125 121 118 115 115 116 120 124 129 133 135 135 133 130 126 122 119 118 119 120 121 122 123 123 123 123 123 124 125 126 127 127 126 124 123 121 121 121 122 124 125 126 127 127 127 128 129 130 131 132 132 132 130 128 125 123 122 122 122 124 125 126 127 126 126 125 124 124 124 124 125 127 128 128 129 129 129 128 127 125 123 121 119 118 117 118 120 122 125 128 130 132 133 133 133 
131 131 130 129 127 124 121 118 115 115 116 119 123 127 131 133 133 132 129 126 123 121 120 120 121 122 123 123 123 123 123 124 125 126 128 128 128 127 126 124 123 122 122 123 124 125 126 127 127 127 128 129 130 132 134 135 135 134 131 129 126 125 124 124 125 126 128 128 127 126 125 123 122 121 121 122 124 126 128 130 131 131 130 129 127 125 123 121 120 119 120 122 124 127 129 131 132 132 132 132 
129 129 129 129 127 125 122 119 117 116 117 119 122 126 129 131 131 130 128 126 124 123 123 123 124 124 124 124 124 124 124 125 126 127 129 130 130 129 128 126 125 124 123 124 125 126 126 127 127 127 128 129 131 133 135 137 137 136 134 132 129 127 126 126 127 128 129 129 128 127 125 122 120 119 119 120 122 125 128 130 132 133 133 132 130 128 125 123 122 122 123 125 127 129 130 131 131 130 129 129 
126 127 128 128 128 127 125 122 120 119 119 120 122 125 128 130 130 130 129 128 127 126 126 126 126 126 126 126 125 125 125 125 126 128 129 130 131 130 129 127 126 125 125 125 126 126 127 127 127 128 128 129 131 133 135 136 137 136 135 133 131 129 129 129 129 130 131 131 129 127 124 121 119 117 116 118 120 124 127 131 134 136 136 135 133 130 128 126 125 125 126 127 128 130 130 129 128 127 126 126 
123 125 127 129 129 129 127 125 123 122 121 122 123 126 128 130 131 131 130 130 129 128 128 128 128 128 128 127 126 126 126 126 127 128 129 130 131 130 129 128 127 126 126 126 127 128 128 129 129 129 129 130 131 132 133 134 135 135 134 133 132 131 130 130 131 132 132 132 130 128 125 121 118 116 115 116 119 122 127 131 135 137 137 137 135 132 130 128 127 127 128 129 130 130 129 128 126 124 123 122 
121 124 126 129 130 131 130 128 126 124 124 124 125 127 129 131 132 133 132 132 131 130 130 129 129 128 127 127 126 126 126 127 128 129 129 130 130 130 129 128 127 126 126 127 128 129 130 130 131 131 130 130 130 130 130 131 131 131 131 131 131 131 131 132 133 134 134 133 132 129 125 121 118 115 114 115 118 121 126 130 134 136 137 137 135 133 131 130 130 130 131 131 131 131 129 126 124 121 120 120 
120 123 126 129 131 131 131 129 127 126 125 126 127 129 131 133 134 134 134 134 132 131 130 129 127 127 126 126 126 126 127 127 128 129 129 129 129 129 128 127 126 126 126 127 128 129 131 132 132 132 132 130 129 128 127 126 126 126 127 127 129 130 131 133 134 135 135 135 133 130 126 122 119 116 114 115 117 120 125 129 132 135 136 135 134 133 131 131 131 131 132 133 133 131 129 125 122 120 118 118 
120 123 126 129 131 131 130 129 127 126 126 127 128 130 133 134 136 136 136 134 133 131 129 127 125 124 124 124 125 126 127 128 129 129 129 129 128 127 126 126 125 125 125 126 128 130 131 133 134 134 133 131 128 126 123 122 121 121 122 124 126 128 131 133 135 136 136 136 134 131 128 124 120 117 115 115 117 120 123 127 130 132 133 133 132 131 130 130 131 132 133 134 133 132 129 125 122 119 118 118 
122 124 127 129 130 130 129 128 126 125 126 127 129 131 134 135 137 137 136 134 132 129 127 124 122 121 121 122 124 125 127 129 129 130 129 128 127 126 125 124 123 123 124 125 126 129 131 133 134 135 134 131 128 124 121 118 117 117 118 120 123 127 130 132 134 136 136 136 135 132 129 126 122 119 117 117 117 119 122 124 127 128 129 129 128 128 128 128 129 131 133 134 134 132 130 126 123 121 119 120 
124 126 129 130 130 129 127 126 124 124 124 126 128 131 134 136 137 136 135 133 131 128 124 122 120 119 119 120 123 125 127 129 130 130 129 128 127 125 124 123 122 122 122 123 125 127 130 132 134 135 134 132 128 124 120 117 115 115 116 118 122 125 128 131 133 135 135 135 134 133 130 127 124 122 120 119 119 120 121 123 124 125 125 125 124 124 125 126 128 130 132 133 133 132 130 128 125 123 122 123 
127 129 130 131 130 128 126 124 122 121 122 124 127 130 133 135 136 135 134 132 129 126 123 120 118 117 118 120 122 125 128 130 130 130 129 128 126 125 123 122 122 121 121 122 123 125 128 131 133 134 134 132 129 125 121 117 115 115 116 118 121 124 127 130 131 132 133 133 133 132 131 129 127 125 123 122 121 121 121 122 122 122 122 121 121 121 122 123 125 128 130 132 133 133 131 129 127 126 125 126 
