P2
100 100
255
130 141 150 155 154 145 131 115 101 92 90 95 106 122 138 152 159 159 153 139 122 104 89 79 75 75 81 90 103 117 130 139 145 145 142 136 128 120 112 105 101 98 97 99 104 112 123 135 144 150 152 147 137 123 108 96 87 83 82 86 92 101 111 121 129 135 139 143 145 145 144 140 136 131 126 122 118 114 110 105 99 93 86 81 77 76 80 89 103 121 139 152 159 158 151 140 129 121 119 122 
149 156 162 162 156 143 125 106 90 81 79 84 95 111 129 144 154 156 150 138 122 106 92 83 79 80 85 95 106 118 129 136 138 138 135 130 126 122 119 117 114 111 109 106 106 108 113 121 129 137 142 143 140 133 124 115 107 102 99 98 98 101 104 107 110 114 119 125 132 140 147 151 153 153 150 146 139 131 120 109 97 87 78 73 69 70 75 85 100 118 136 150 157 159 155 148 141 136 137 141 
163 169 171 169 159 143 121 100 84 75 72 77 88 104 123 139 150 154 151 142 128 114 102 94 91 92 98 106 115 123 128 131 130 127 124 122 122 125 128 131 132 130 126 119 113 107 105 107 113 121 130 137 142 143 141 137 131 126 119 113 108 103 98 96 95 96 101 109 121 135 149 160 167 171 170 166 159 147 132 116 100 87 77 71 69 71 77 87 102 119 135 147 154 155 153 149 146 146 149 155 
171 176 178 173 162 144 121 99 82 73 71 75 86 102 121 138 150 156 154 148 138 127 117 111 109 111 116 122 127 130 129 125 120 115 111 112 116 125 135 145 150 151 146 136 123 110 100 96 97 104 115 128 140 150 155 156 154 148 140 129 117 105 95 88 83 83 87 97 112 131 150 166 177 182 183 180 172 160 143 124 106 91 81 76 75 79 86 97 110 124 135 143 147 147 145 143 143 147 154 162 
173 179 181 176 165 146 123 101 84 75 73 78 89 105 124 140 152 158 159 155 148 140 134 131 131 133 137 140 140 137 130 120 109 101 97 99 108 123 140 155 165 168 164 152 135 115 98 88 85 90 102 118 137 153 164 170 170 165 155 142 125 108 93 83 77 76 80 91 108 129 151 169 181 187 189 186 179 166 150 130 112 98 89 86 88 93 102 112 122 131 137 138 137 133 130 129 132 140 151 162 
170 178 181 176 165 147 125 104 89 81 80 86 97 113 130 145 156 161 162 159 155 151 149 148 150 153 156 156 153 144 131 115 99 89 84 87 98 117 140 161 175 181 178 166 146 122 99 84 77 79 91 109 132 153 168 177 179 174 164 148 128 109 92 81 75 74 79 90 108 129 151 168 180 187 188 185 178 167 151 134 118 107 101 101 106 114 123 131 137 140 138 132 124 117 112 111 116 127 141 157 
163 173 177 173 163 146 126 108 95 89 90 97 109 124 138 150 157 161 161 158 156 155 155 158 162 167 169 168 162 150 132 111 92 79 74 77 89 110 136 161 179 188 186 176 156 129 103 83 73 74 84 102 127 150 168 178 181 176 165 148 128 108 92 82 77 78 84 95 112 131 150 165 175 180 181 178 171 160 147 133 122 116 115 119 127 136 145 151 152 148 138 125 111 100 93 92 98 111 128 147 
154 166 171 167 157 142 125 110 101 98 102 110 122 135 146 153 156 156 153 150 149 150 153 159 166 172 175 174 167 153 133 109 88 74 67 69 81 102 130 158 179 190 191 182 163 137 109 86 74 73 81 99 123 147 166 176 178 172 160 142 123 106 93 86 85 88 95 106 120 135 148 158 165 167 167 163 157 148 138 130 124 123 127 136 146 156 164 167 164 154 138 119 100 86 78 77 83 96 115 136 
146 158 162 159 149 135 121 110 105 106 113 124 135 144 151 152 150 145 139 135 133 136 142 151 161 170 175 176 170 156 135 111 88 73 65 66 76 96 124 153 176 188 191 185 168 144 116 93 79 76 84 100 123 145 162 170 170 162 149 132 116 103 96 94 97 103 112 121 131 139 145 149 150 149 147 143 138 132 127 123 123 128 137 149 161 171 177 178 172 159 138 113 91 76 68 67 73 87 106 127 
140 151 153 148 138 126 115 108 108 114 124 135 145 151 152 147 139 130 121 115 113 116 124 137 150 162 170 173 169 157 138 115 93 77 68 67 75 93 119 147 170 184 189 184 171 150 124 102 88 85 91 106 125 144 157 162 159 149 135 120 108 101 100 105 113 123 132 139 143 144 142 138 133 129 125 121 118 116 115 116 121 130 143 157 170 180 185 184 177 161 137 110 87 71 63 63 69 82 101 122 
138 146 146 138 127 115 107 105 110 119 132 144 151 153 149 139 125 112 101 94 92 96 105 119 135 151 162 168 166 158 143 123 103 86 77 74 80 94 116 141 163 177 183 181 171 153 132 113 101 97 103 115 131 145 153 154 147 135 120 108 100 99 105 117 130 143 151 155 154 148 139 128 118 110 105 103 103 104 106 111 119 131 145 160 173 183 187 186 178 161 136 108 85 69 63 63 70 84 103 122 
140 144 140 130 117 107 101 103 111 124 138 150 156 154 144 129 111 95 83 77 76 80 90 104 121 138 152 160 162 158 147 133 116 102 92 88 91 100 117 136 154 167 174 174 167 154 139 124 114 112 116 126 137 146 149 144 134 120 106 97 94 98 111 128 146 160 168 169 164 152 137 121 107 97 93 92 94 98 103 109 118 129 143 158 171 180 185 184 176 159 135 108 86 71 66 68 77 92 110 128 
145 145 137 124 110 101 97 102 113 129 144 155 158 152 138 119 99 83 72 67 67 72 81 95 111 128 142 152 157 156 151 143 132 122 113 108 107 111 120 132 145 155 161 163 159 152 142 133 127 126 129 136 143 146 144 136 123 108 95 88 89 98 115 136 156 171 179 178 170 156 137 117 102 92 89 90 93 99 104 110 117 127 138 151 164 174 179 179 172 156 134 109 89 76 72 76 87 103 122 137 
152 148 137 121 106 97 96 103 117 135 150 159 160 151 134 112 91 76 66 63 65 70 80 93 107 122 134 143 149 152 153 151 148 142 136 131 126 124 125 128 134 139 144 147 147 145 141 138 136 136 140 144 147 146 140 129 114 99 88 83 86 98 117 140 162 177 183 182 173 157 138 118 103 94 92 95 100 106 110 113 117 122 130 141 152 162 169 170 165 151 132 111 93 83 81 87 100 118 135 147 
158 150 136 119 104 96 97 106 122 141 156 163 162 151 132 109 88 74 67 65 69 77 87 98 110 119 127 134 140 145 151 156 159 159 157 152 145 137 129 124 122 122 125 128 132 135 137 139 140 143 145 147 147 143 135 123 109 95 85 82 86 98 117 140 161 176 182 181 172 157 139 121 109 103 103 107 112 117 119 118 117 117 120 127 136 146 155 158 155 145 129 112 98 91 91 99 114 131 147 156 
160 151 135 117 103 96 99 110 127 146 160 167 164 152 132 109 90 77 72 74 81 90 101 110 117 120 122 124 128 135 144 155 164 170 171 167 158 146 131 118 109 105 105 109 116 123 130 136 141 144 146 146 144 139 131 120 107 96 87 84 88 98 115 136 155 168 175 174 166 154 139 126 117 114 117 122 127 129 127 122 115 110 109 112 119 129 138 144 145 138 127 114 103 99 101 111 126 142 155 162 
159 148 131 114 101 96 100 113 131 150 163 169 166 153 134 113 96 86 84 89 99 110 120 125 126 123 117 114 114 121 133 148 163 174 178 176 166 150 130 111 97 89 89 93 102 112 123 133 139 142 143 141 138 134 127 119 110 102 95 92 94 101 113 128 143 155 160 160 155 147 137 129 126 127 132 137 141 140 134 124 113 103 98 98 104 113 124 132 135 133 126 116 109 106 110 120 134 149 159 163 
155 143 126 110 98 95 100 113 131 150 163 168 165 154 137 119 105 98 100 108 120 132 140 141 135 124 112 102 100 105 119 138 158 173 180 179 168 149 125 102 86 77 76 81 92 105 118 129 136 138 137 134 131 128 125 121 117 113 108 105 104 106 112 120 128 136 140 141 139 136 132 131 133 138 145 150 151 147 137 124 109 96 89 88 93 102 113 123 129 130 127 120 115 114 118 127 139 151 159 161 
150 137 120 105 94 92 97 110 127 145 158 164 162 153 139 125 115 113 118 129 142 152 157 153 141 123 105 91 86 90 104 126 149 168 178 177 166 145 118 94 77 69 69 75 87 102 117 129 135 135 131 126 123 121 123 125 127 128 127 123 119 115 112 111 113 115 117 119 121 123 126 131 138 146 154 158 157 150 137 120 104 91 83 82 87 96 108 120 129 132 131 127 123 122 125 133 142 152 157 157 
145 132 115 101 91 88 93 104 119 136 149 155 155 148 139 130 125 127 135 147 159 167 168 159 142 119 97 81 75 78 92 114 140 161 173 172 160 138 111 87 71 64 66 74 88 106 122 133 136 133 126 118 114 115 121 130 139 145 147 144 136 126 115 106 100 97 96 99 103 110 119 130 142 152 159 161 158 148 133 115 99 86 80 80 86 96 110 123 133 138 138 135 132 130 132 138 145 152 155 153 
143 130 114 100 89 85 88 96 109 123 135 142 144 141 137 133 133 138 148 160 170 175 172 160 139 113 89 73 67 70 83 106 132 154 167 167 154 131 104 82 68 63 67 79 96 116 132 141 141 133 122 111 106 108 118 133 148 160 165 163 154 139 121 104 91 83 81 83 90 101 115 130 144 155 161 161 155 143 127 109 94 84 80 82 89 102 117 131 142 147 148 145 141 139 140 143 148 153 155 152 
146 133 118 103 91 85 85 90 99 110 120 128 132 133 133 134 138 146 157 167 175 177 172 157 134 107 84 69 63 67 80 102 128 150 162 161 148 125 100 80 68 67 74 90 110 131 146 152 148 136 119 105 98 101 114 133 154 170 178 178 169 152 129 105 87 76 72 74 83 96 114 132 147 158 162 160 151 137 120 103 91 83 81 86 96 111 127 141 152 157 157 154 150 147 146 148 152 156 157 154 
153 141 127 111 98 89 85 86 91 98 107 114 120 124 128 133 140 150 160 170 175 175 168 151 128 102 81 68 64 68 82 104 129 149 160 158 144 122 99 81 73 75 87 106 129 150 163 165 157 139 118 100 91 93 107 130 155 175 186 188 180 162 136 109 86 73 68 71 81 97 117 136 151 160 162 156 145 130 113 98 88 84 85 92 105 120 137 151 159 163 162 159 154 150 149 151 155 159 161 159 
161 152 139 124 109 97 89 86 88 92 98 105 112 119 125 133 141 151 161 168 172 170 161 145 123 100 82 72 70 76 91 112 135 152 160 157 143 122 101 86 81 87 103 126 149 168 178 177 165 143 117 95 83 84 98 123 151 175 189 193 186 169 143 114 89 74 69 72 84 102 122 142 156 162 160 152 138 122 107 95 88 86 90 100 113 129 145 156 163 164 162 157 152 148 147 149 154 159 164 164 
168 163 153 139 124 109 98 92 90 92 96 103 110 117 125 133 142 151 158 164 166 162 153 138 119 101 88 81 82 90 106 125 145 158 163 157 143 123 105 94 93 102 122 146 168 183 189 186 171 147 117 91 77 76 89 113 143 170 187 193 189 173 148 118 93 77 72 77 90 109 130 148 159 162 158 147 132 116 102 93 89 90 97 107 121 136 148 157 160 159 154 147 141 137 137 140 147 156 163 168 
171 170 164 153 138 123 111 102 98 98 101 107 114 122 129 136 143 149 154 156 156 152 144 132 118 106 97 95 99 110 125 141 156 165 166 158 143 125 109 101 104 117 138 162 181 193 197 192 176 149 116 88 72 69 79 102 132 161 182 190 188 174 150 122 97 82 78 84 98 117 138 153 161 161 153 140 125 110 99 93 93 96 105 116 128 140 148 152 151 146 138 130 123 119 119 125 134 146 158 167 
169 173 170 162 150 136 123 114 109 109 112 118 124 131 136 141 144 146 147 146 144 139 133 125 117 112 110 113 120 131 144 157 166 170 167 157 141 124 111 106 112 127 149 171 188 198 201 194 178 150 116 87 69 64 71 91 120 150 173 184 184 172 151 125 102 88 85 92 106 125 143 155 159 156 146 133 118 107 99 97 99 106 115 125 134 141 145 143 137 128 118 108 100 97 98 104 115 131 147 160 
162 169 170 165 156 144 134 126 122 122 126 132 138 143 145 146 145 142 138 133 128 124 120 117 116 117 122 130 140 151 161 169 173 172 165 152 136 120 109 106 114 130 152 173 189 199 200 194 178 150 117 87 68 61 66 83 109 139 163 176 177 167 149 126 106 94 92 99 113 130 145 153 154 148 137 125 113 106 103 105 110 118 127 135 141 143 141 133 123 110 97 86 79 76 77 84 95 112 130 148 
149 160 163 161 154 146 138 133 132 135 141 147 152 154 154 151 144 136 127 119 112 108 106 108 112 120 131 144 156 166 173 176 176 170 159 144 127 112 102 101 109 125 146 167 183 193 196 190 175 150 118 89 70 62 65 78 101 128 152 166 169 161 145 125 108 99 98 105 118 132 143 147 145 138 127 117 110 108 110 116 125 134 141 147 149 146 138 126 111 95 81 71 64 61 62 68 78 93 113 133 
135 146 151 151 146 140 136 135 138 144 151 158 163 164 161 154 142 129 116 104 97 93 93 98 107 121 136 152 165 174 178 179 174 164 150 132 115 100 92 91 98 112 132 152 170 181 186 183 170 148 120 94 75 67 68 79 98 122 143 157 160 154 140 124 110 103 103 110 120 131 138 139 135 127 118 112 110 114 121 131 141 150 156 159 157 151 139 124 106 88 74 63 56 53 54 58 67 80 98 118 
122 132 137 136 132 128 127 130 137 146 156 165 169 169 164 154 139 122 105 92 84 81 82 89 101 118 137 155 168 176 179 177 169 155 138 119 102 89 81 80 85 96 113 131 149 163 171 171 163 146 124 101 85 76 76 85 100 120 138 149 152 147 135 122 111 106 107 113 121 128 131 130 124 118 112 111 114 123 134 147 157 165 169 169 165 157 144 127 108 90 75 64 57 53 52 56 63 74 90 107 
115 122 124 121 117 114 114 120 130 143 155 165 171 170 164 152 134 115 97 84 76 73 75 83 97 115 136 154 168 175 176 171 160 144 125 106 90 79 73 71 74 82 94 109 126 140 151 156 153 143 128 111 98 90 90 96 109 124 137 145 147 141 131 120 112 108 109 114 120 124 125 122 117 112 110 113 122 134 148 161 170 176 178 176 171 162 150 135 118 101 86 74 66 61 59 62 68 77 90 104 
116 118 115 110 104 100 101 108 119 134 149 160 166 166 160 147 129 110 93 80 73 70 73 81 95 114 134 152 165 171 171 164 150 133 113 95 81 72 67 65 67 71 79 90 104 118 131 139 143 140 132 123 114 109 109 113 122 132 140 145 143 137 128 119 112 109 111 115 119 121 120 117 113 110 112 119 131 146 160 171 178 181 180 177 171 164 155 144 132 119 106 94 85 80 77 78 83 90 100 110 
125 122 114 105 96 91 91 97 108 123 138 150 157 158 152 141 125 108 93 82 76 74 77 85 98 115 133 150 161 165 163 154 140 122 104 88 77 70 66 64 65 67 72 79 89 101 114 125 132 136 136 134 130 128 129 132 137 142 146 146 142 135 125 117 112 110 112 116 119 120 119 116 113 113 118 127 140 155 167 175 179 178 175 170 165 160 156 152 147 140 132 123 115 109 105 105 108 113 119 124 
139 131 120 107 95 88 86 90 99 111 124 136 143 145 142 134 122 109 98 90 85 84 87 94 106 120 135 148 156 158 154 144 130 113 97 85 77 72 70 69 70 71 74 78 84 93 103 114 124 133 138 141 143 145 146 148 151 153 152 148 142 133 123 116 111 111 113 117 120 121 120 118 117 119 125 135 148 159 168 172 171 167 160 154 150 149 151 155 158 159 158 154 148 143 139 137 138 140 142 142 
153 143 130 115 102 92 87 88 93 101 111 121 128 131 131 127 121 115 108 104 102 102 104 110 119 129 139 148 152 151 145 134 120 106 94 85 80 79 79 81 83 84 85 86 89 93 100 108 118 128 137 145 151 155 158 160 161 160 156 150 141 131 121 114 111 111 114 118 121 123 123 122 122 125 132 141 150 158 162 161 155 146 136 129 126 129 138 150 162 172 176 177 175 171 168 165 163 163 162 159 
163 154 141 127 113 102 95 92 92 96 101 107 113 117 120 122 122 123 123 123 123 124 126 130 134 139 144 147 147 142 135 124 112 100 92 88 88 91 96 100 104 106 105 104 102 101 103 107 114 123 133 143 151 158 163 165 165 163 158 150 140 129 119 113 110 111 115 119 124 126 127 127 128 130 136 142 148 151 149 143 132 119 108 100 99 106 120 139 160 176 186 190 190 188 185 181 178 175 173 169 
166 160 151 140 128 117 108 101 97 95 95 97 101 105 111 118 126 133 139 143 146 147 148 148 148 148 147 145 140 133 124 114 104 96 93 94 99 107 117 125 131 134 132 128 122 115 110 109 111 117 126 136 146 154 160 164 164 161 155 147 136 126 117 112 110 112 117 122 126 129 130 130 131 132 135 139 140 139 132 121 107 93 81 75 76 84 101 125 151 173 187 194 195 193 189 184 179 175 173 170 
160 159 156 151 143 134 124 114 105 98 93 91 93 97 106 117 130 142 153 160 164 165 164 162 158 153 148 141 133 124 114 105 98 94 94 100 111 124 138 150 158 161 159 152 142 130 119 111 108 110 116 125 136 145 152 157 157 155 149 141 132 123 116 112 112 115 120 125 129 132 132 131 131 131 131 131 129 124 114 100 86 73 63 59 60 69 86 112 141 166 182 190 191 187 181 174 168 163 161 160 
147 153 157 158 156 150 141 129 117 105 95 90 89 94 103 118 134 150 163 171 175 176 173 168 161 153 145 135 125 116 106 99 94 93 97 107 122 140 156 169 177 180 178 170 158 142 126 113 105 103 107 114 124 133 141 145 146 144 139 133 126 120 116 115 117 121 126 131 133 134 132 130 127 125 124 122 118 110 99 86 73 62 54 51 53 61 77 102 130 155 172 179 178 172 163 153 144 140 139 142 
130 142 153 161 164 162 155 144 129 114 100 92 89 93 103 119 138 155 168 176 179 178 174 167 158 148 138 128 119 110 102 96 94 95 102 115 132 151 168 181 188 191 188 180 166 148 129 113 102 98 100 106 113 121 128 131 132 130 127 123 119 117 117 120 124 130 134 138 138 136 132 127 122 118 115 113 108 102 92 81 70 60 54 51 53 61 76 98 123 145 159 163 159 149 136 124 115 111 112 119 
112 130 148 161 169 170 166 155 140 123 107 97 92 95 106 121 139 156 168 175 176 173 167 159 149 139 130 122 114 108 102 99 98 100 108 122 139 158 174 185 192 193 190 181 167 148 129 112 101 97 98 102 108 113 117 118 117 115 113 112 112 115 121 127 135 141 145 146 144 138 130 122 115 110 108 106 104 99 93 84 75 67 62 60 62 69 82 101 121 138 146 146 137 123 108 96 87 85 88 97 
99 120 141 159 170 175 172 163 149 132 115 103 97 100 109 123 139 154 164 168 167 162 154 145 136 128 122 117 114 111 108 107 107 110 117 129 145 161 174 184 189 189 184 175 160 143 126 112 103 101 102 106 109 111 111 108 105 102 100 101 106 114 125 136 146 153 156 155 149 140 129 118 109 104 102 103 104 104 101 97 90 84 80 78 80 86 97 111 124 134 136 130 117 101 87 75 69 68 72 83 
93 114 137 156 169 175 174 167 154 138 122 110 104 105 112 124 137 148 154 156 152 145 137 128 122 118 117 117 119 120 120 120 120 122 128 137 148 160 170 177 179 178 171 161 147 133 120 112 109 110 114 117 118 116 110 103 96 91 89 92 100 113 129 145 157 165 167 163 155 142 127 114 104 100 100 104 110 115 117 117 114 110 106 105 106 110 117 126 133 134 130 118 103 87 74 65 61 61 66 76 
93 113 134 152 166 172 172 167 156 142 127 116 109 109 114 123 132 139 142 140 134 126 119 113 110 111 115 121 128 132 135 136 135 136 138 143 150 157 162 165 164 160 152 141 130 120 115 114 118 125 131 135 134 127 116 103 91 83 81 85 96 113 133 152 166 174 175 170 158 143 125 110 101 98 101 109 119 129 137 140 141 139 136 135 135 136 139 142 142 137 127 113 97 82 71 64 61 62 67 77 
98 115 132 148 159 166 167 163 154 142 130 120 114 112 115 120 125 128 127 123 116 109 103 101 103 109 119 129 139 146 150 151 149 148 147 147 149 151 152 150 145 138 128 119 111 108 110 118 130 143 152 156 153 142 125 106 89 78 75 79 91 111 135 157 172 180 180 173 160 142 123 108 99 98 104 116 130 143 154 160 163 162 161 159 158 157 156 154 149 140 127 112 97 84 75 70 69 71 76 85 
107 119 131 142 150 156 157 154 148 140 130 122 116 114 114 116 117 116 113 108 102 97 94 95 102 112 126 139 151 158 161 161 158 154 150 147 145 143 139 133 125 116 106 98 95 97 107 123 142 159 171 175 170 157 136 111 90 76 71 75 88 110 136 159 175 182 182 174 159 140 121 107 99 100 109 123 139 154 165 172 175 175 174 172 169 167 164 159 152 141 128 114 101 91 85 83 84 87 91 98 
118 122 128 133 138 142 144 143 140 135 128 122 117 114 112 111 110 107 103 98 93 90 91 96 106 120 135 149 160 166 167 165 160 154 148 143 138 133 127 119 109 98 89 83 83 90 105 128 152 172 185 189 184 169 146 117 92 75 69 72 86 108 135 159 174 181 180 170 155 137 119 106 101 105 115 130 146 160 170 175 177 176 174 172 169 166 162 156 149 139 127 116 107 102 100 101 104 107 110 114 
127 125 123 123 124 126 128 130 130 128 125 121 117 114 111 108 104 101 97 93 90 90 94 102 115 130 144 157 165 168 166 161 154 146 139 133 129 124 117 109 98 88 79 74 76 85 104 130 158 180 193 197 192 177 153 122 95 76 69 72 86 108 133 156 171 177 174 164 149 131 116 107 105 110 122 136 150 160 167 169 169 166 163 160 158 155 152 148 141 134 126 119 115 115 117 121 125 129 130 129 
133 124 116 111 109 110 114 117 121 123 123 121 118 114 110 106 102 98 95 93 93 96 102 112 126 140 152 161 165 163 158 149 140 131 125 121 119 116 112 105 95 85 76 71 73 83 102 130 159 182 195 199 195 180 156 126 98 79 72 75 88 109 133 153 165 169 164 154 139 125 113 108 110 117 129 141 151 156 158 156 152 148 144 141 140 139 138 136 133 129 125 123 123 127 133 139 145 147 146 141 
134 121 109 100 97 98 102 108 115 120 123 123 121 117 113 108 104 101 98 98 100 105 113 124 137 148 157 161 160 154 143 132 121 112 108 108 110 112 112 108 100 89 80 74 73 82 100 126 154 178 192 196 192 178 155 126 100 83 77 81 94 113 133 149 158 159 152 141 129 118 112 111 117 126 136 144 149 149 145 139 131 125 120 119 120 122 124 126 126 126 125 127 131 137 145 153 158 160 156 147 
133 116 102 92 88 89 95 104 113 121 126 127 126 123 118 114 110 107 106 107 110 116 125 135 146 154 159 158 152 140 126 112 101 94 93 97 104 112 117 117 111 101 89 80 77 82 96 119 145 168 182 187 183 170 149 125 103 89 86 92 104 121 136 147 150 147 138 128 118 112 111 116 125 134 143 147 147 141 132 121 111 103 100 101 104 110 116 121 124 126 128 132 138 145 154 161 166 166 160 149 
131 112 97 87 84 86 94 104 116 126 132 135 134 131 127 122 119 116 116 118 121 128 135 144 152 157 157 153 142 127 110 95 85 80 82 90 102 116 127 131 128 117 103 90 83 83 92 110 132 152 166 171 168 157 139 120 105 97 98 106 118 131 141 146 143 135 125 115 109 108 113 122 133 143 150 150 145 134 120 106 95 89 87 90 97 106 115 122 127 131 133 137 143 150 159 165 169 168 161 148 
128 110 95 86 84 88 98 110 124 135 142 145 144 141 137 132 129 127 127 128 131 136 142 148 154 156 154 146 133 116 99 84 75 72 77 88 105 124 140 148 146 136 120 104 91 86 89 100 116 133 145 150 147 138 126 114 107 106 112 123 135 144 148 146 137 125 113 105 102 106 115 129 142 151 155 152 143 128 112 97 87 82 83 89 98 110 120 129 134 137 139 142 146 153 160 166 169 167 160 146 
127 109 96 88 88 94 106 120 134 145 152 155 154 150 146 142 138 136 135 136 137 140 144 148 152 153 149 141 127 110 93 80 72 70 76 90 111 133 152 162 163 154 137 118 101 91 88 93 103 115 123 127 125 119 112 107 108 115 126 139 150 156 155 146 132 117 104 97 98 106 119 135 149 158 160 154 142 125 108 94 85 83 86 94 106 118 129 137 141 142 142 143 147 152 159 164 167 165 157 144 
126 110 98 93 95 103 116 132 146 156 161 163 161 156 152 147 144 141 139 138 138 139 142 144 147 148 145 138 126 110 94 81 74 73 80 96 118 142 162 173 175 167 151 131 111 97 90 91 95 102 106 108 106 102 99 101 109 122 138 153 163 165 159 146 128 110 97 92 95 107 123 141 155 162 162 154 140 123 107 95 89 89 94 104 116 128 137 142 144 143 141 141 143 148 155 161 164 162 155 142 
125 111 101 98 102 112 127 142 155 164 168 167 164 159 153 148 144 141 138 136 135 134 135 138 141 143 142 138 129 116 101 89 81 80 87 103 125 149 168 179 181 174 160 140 120 105 96 93 95 97 98 97 94 91 91 97 109 127 146 162 170 170 161 144 123 104 92 89 94 108 126 144 157 163 161 153 139 123 108 99 95 97 104 114 125 134 140 142 140 136 133 133 135 142 149 156 160 159 153 141 
124 111 102 101 107 119 134 150 162 169 171 168 162 156 149 143 138 134 131 129 127 126 127 130 134 139 142 141 135 125 113 101 92 90 96 109 130 151 169 179 181 175 163 146 128 114 105 102 102 102 100 96 91 87 88 95 110 129 150 165 172 170 158 138 116 98 87 86 94 108 127 145 157 161 158 149 136 122 110 104 103 106 113 121 129 134 136 134 129 124 121 121 125 133 143 152 157 156 150 138 
120 107 100 100 107 121 137 153 164 169 169 165 157 148 139 132 127 123 121 119 117 117 119 123 130 137 143 146 144 137 126 114 104 100 103 114 131 149 165 174 176 171 160 147 133 122 117 115 115 114 110 103 96 90 90 96 110 130 150 164 170 165 151 131 109 92 83 84 93 108 127 143 153 156 152 143 131 120 112 109 110 114 120 125 128 128 125 120 113 108 105 108 115 126 138 149 154 154 146 134 
114 101 95 96 104 118 135 151 162 167 165 158 148 136 126 118 113 110 108 108 108 110 113 120 129 138 147 152 152 147 138 126 115 108 108 115 128 143 156 164 165 161 153 143 135 130 129 131 133 132 127 118 107 99 95 100 112 129 147 159 163 157 142 122 101 87 81 83 93 108 125 139 147 148 143 134 125 117 113 113 116 120 124 125 123 118 111 103 97 92 92 97 108 122 137 148 153 151 143 129 
106 93 87 88 96 111 129 145 157 161 159 150 137 124 112 103 99 97 97 98 101 105 112 120 131 142 151 157 159 155 145 133 121 112 109 112 121 133 143 150 151 148 143 137 134 134 139 145 150 150 145 135 122 110 104 105 114 128 143 153 155 148 133 113 96 84 80 83 94 108 123 134 139 138 132 125 118 114 114 117 121 125 126 123 117 108 98 90 84 82 85 93 107 124 140 151 155 150 139 122 
98 84 78 79 87 102 120 138 150 155 152 142 128 113 100 92 88 87 89 93 98 105 114 125 136 147 156 161 162 157 148 135 121 111 106 107 113 121 130 135 136 135 131 129 131 137 146 155 162 164 160 150 136 122 113 111 117 128 140 148 148 140 126 108 93 84 82 87 98 110 122 129 131 127 121 115 111 111 115 121 126 129 127 121 112 101 90 82 78 79 85 97 114 132 148 157 158 151 135 116 
90 77 70 71 79 93 112 130 144 150 148 137 122 106 93 85 81 81 85 91 99 109 120 132 143 153 160 163 161 155 144 130 117 107 101 101 105 112 119 123 124 123 122 123 127 137 149 161 169 172 169 159 145 131 121 117 121 129 139 145 144 137 124 109 96 90 90 96 105 116 123 126 124 118 112 107 106 109 116 124 131 133 130 123 111 99 89 82 80 84 94 110 128 146 159 166 163 152 133 111 
85 71 65 66 74 88 106 126 141 148 146 137 121 105 92 83 79 80 85 93 104 117 129 141 151 158 162 162 157 148 136 122 110 101 96 97 101 108 114 117 118 118 117 119 125 135 148 160 169 173 170 161 148 135 125 121 125 132 140 145 145 138 127 115 106 102 104 110 118 125 128 126 120 112 104 101 102 109 119 129 137 139 136 127 115 104 94 90 91 98 111 128 146 161 171 174 168 154 131 106 
82 69 63 64 72 86 105 126 142 150 149 140 125 109 95 85 81 83 88 99 112 126 139 150 158 162 162 157 149 138 124 112 101 95 94 97 102 109 115 119 120 118 117 118 123 132 144 155 163 166 163 154 143 132 125 123 128 136 144 149 149 144 136 127 121 119 122 128 134 137 135 129 119 108 100 98 101 110 122 134 143 146 143 135 124 114 107 105 109 119 133 149 164 176 182 181 172 154 130 104 
82 70 65 67 75 90 110 130 146 154 154 146 133 117 102 92 88 89 95 106 121 135 148 158 163 163 159 150 139 125 112 102 95 92 94 100 109 117 124 127 127 125 122 121 124 130 138 146 151 152 148 141 132 124 121 123 130 140 149 155 156 153 148 142 139 139 142 147 150 150 144 134 120 107 99 97 102 113 127 140 149 152 150 143 134 126 122 123 129 140 153 166 177 185 187 183 172 153 128 103 
85 75 72 75 85 100 119 138 153 160 160 154 141 126 112 102 97 98 104 116 130 144 156 163 165 161 153 141 127 113 102 94 91 93 99 109 119 129 136 139 138 135 130 127 126 128 131 134 136 134 129 122 116 112 113 120 131 143 154 161 163 162 159 155 154 156 160 163 164 161 153 139 123 109 101 100 106 118 133 146 154 158 156 150 143 138 136 138 145 156 167 177 184 187 187 180 168 149 126 103 
91 84 84 89 100 115 132 148 160 166 165 160 149 135 122 112 107 108 114 125 139 151 160 165 164 157 146 131 116 103 93 89 91 97 107 120 133 143 150 152 150 145 139 133 129 126 125 123 120 115 110 104 100 99 105 115 130 145 157 165 168 167 165 163 164 167 170 173 173 169 159 144 127 113 105 105 112 124 138 151 158 160 158 153 147 143 143 147 154 163 171 177 181 182 179 171 158 141 122 104 
99 98 101 109 120 133 146 158 165 169 168 162 153 142 131 122 117 118 124 134 146 156 162 164 160 151 137 120 105 94 88 88 93 103 117 133 146 156 161 161 158 152 145 138 131 125 120 114 108 101 94 89 86 89 97 110 127 144 157 165 167 166 164 164 165 168 173 176 176 171 161 146 131 118 111 112 119 131 144 154 159 159 156 150 145 141 142 146 152 159 165 168 169 167 162 154 143 130 117 106 
110 114 121 130 140 150 158 164 168 169 166 161 154 145 136 129 126 127 133 141 151 158 163 162 155 143 127 111 97 88 85 88 97 111 128 144 157 165 168 167 162 155 147 140 132 125 118 109 101 92 84 79 78 82 92 106 124 141 153 160 161 159 156 155 156 161 166 170 171 167 158 145 132 122 117 120 128 139 149 155 157 154 148 141 135 132 132 135 140 145 149 150 148 144 139 131 124 117 111 109 
120 130 140 149 157 162 166 167 166 164 160 156 150 143 137 132 131 133 138 146 153 159 161 158 149 135 118 102 90 83 83 89 101 118 136 152 164 169 170 166 160 153 145 138 131 125 117 109 99 89 81 76 76 80 90 104 121 136 147 150 149 144 139 137 139 143 150 155 158 156 150 141 132 125 124 128 136 145 152 155 153 146 137 127 120 116 116 118 122 125 127 126 123 118 113 108 105 104 107 112 
129 142 153 162 166 168 167 164 160 156 151 146 142 138 134 132 132 135 141 148 154 159 159 154 144 129 111 96 85 80 82 90 105 123 142 157 166 170 168 162 154 145 138 132 128 124 119 111 103 93 85 79 78 82 91 104 119 131 138 138 133 125 118 114 115 120 127 134 138 140 137 133 129 127 129 135 143 150 153 152 146 135 123 112 103 99 98 100 103 105 105 103 100 96 92 91 92 96 104 116 
135 149 159 166 168 166 162 156 150 144 139 135 132 130 128 128 130 134 140 146 153 156 156 151 140 124 107 92 82 78 81 90 106 124 143 158 165 167 162 154 144 134 128 124 123 122 121 117 110 101 93 88 86 89 97 108 119 128 130 126 117 107 98 93 92 96 103 110 117 121 123 123 124 127 133 140 147 152 153 147 137 123 109 97 89 85 85 87 89 91 91 89 86 83 81 82 86 93 105 119 
137 149 157 162 161 158 152 145 137 131 127 124 122 121 121 122 124 129 135 142 149 153 154 149 139 123 107 92 82 78 80 89 104 123 141 155 162 162 155 145 133 123 117 115 117 121 123 123 120 113 106 100 98 99 105 114 122 127 125 118 106 94 83 77 76 78 84 91 98 104 109 113 119 126 135 143 150 153 150 141 128 112 98 86 80 77 78 81 84 86 87 86 84 83 82 84 88 97 109 123 
135 143 148 150 148 144 138 131 125 120 117 115 114 113 113 114 116 120 126 134 142 148 151 149 140 126 110 95 84 78 80 87 101 119 137 150 157 156 149 137 124 114 108 107 112 119 126 130 130 126 120 115 112 113 117 123 128 129 125 116 102 88 77 71 68 69 73 78 85 92 99 106 115 125 136 145 151 151 146 135 119 103 90 81 76 76 79 83 89 93 95 96 95 94 94 95 99 106 115 125 
130 132 134 133 130 127 123 119 116 113 112 111 109 108 106 105 106 109 115 123 133 142 149 150 145 133 118 102 89 82 80 85 97 113 130 145 152 152 145 133 120 109 102 103 108 117 127 135 138 138 134 130 126 126 128 132 135 135 130 120 106 93 81 73 69 69 71 75 80 86 94 103 113 125 136 145 150 148 141 128 113 98 87 80 79 82 88 95 103 109 113 115 116 115 114 115 116 119 122 126 
123 120 117 114 112 111 110 111 111 112 113 112 109 106 101 98 96 97 102 111 123 136 147 152 152 144 130 114 99 88 83 85 93 107 124 139 149 151 145 134 120 109 102 101 107 117 128 138 145 146 145 141 138 137 138 141 143 143 138 130 118 106 94 86 81 78 78 79 82 87 94 103 114 126 137 145 148 145 136 123 108 96 88 85 87 94 104 115 125 133 138 141 141 141 139 137 135 132 129 126 
115 107 102 99 98 100 104 108 113 117 119 118 114 107 99 92 87 86 90 98 112 129 144 156 160 156 146 130 113 98 88 86 91 103 119 134 146 151 148 139 126 114 106 104 108 117 129 140 148 151 151 148 145 143 143 145 148 149 148 143 135 126 116 108 101 96 93 91 92 94 99 107 117 128 138 145 146 142 132 119 106 97 92 94 101 112 125 138 149 157 161 164 164 163 160 156 151 143 134 124 
108 98 91 89 90 95 103 113 121 128 131 129 122 112 100 90 82 78 80 88 102 122 142 159 168 169 161 147 129 111 97 90 91 99 114 131 145 152 152 145 134 122 113 109 111 119 130 141 149 153 153 150 146 144 143 145 149 152 154 154 152 147 141 134 127 121 115 109 106 105 107 113 122 132 140 145 145 139 130 118 107 101 100 106 117 131 146 158 168 174 178 179 178 176 173 168 160 149 136 121 
104 93 87 86 90 98 109 122 133 141 144 142 134 121 105 91 80 74 73 80 95 116 140 161 174 179 175 164 146 126 107 95 92 98 111 127 143 153 156 152 143 131 121 116 116 122 132 141 149 152 152 148 143 139 138 139 144 150 156 161 164 164 162 159 153 146 137 129 122 118 117 121 128 136 143 147 145 139 129 118 110 107 110 119 132 148 162 172 179 183 184 184 182 179 176 170 161 149 135 119 
103 94 89 90 95 106 119 133 146 154 157 155 146 132 114 96 82 73 71 76 90 111 137 161 178 186 185 177 161 140 119 103 95 97 108 124 140 152 158 156 149 139 129 123 122 126 133 142 148 150 148 143 137 131 128 129 134 142 152 161 169 174 176 175 171 164 155 145 135 129 126 128 133 141 146 149 147 140 131 121 114 113 118 129 144 158 170 178 182 182 181 178 175 172 169 163 156 145 131 117 
107 100 97 99 106 117 130 144 155 164 167 165 157 144 126 107 90 78 73 75 87 107 134 160 179 189 191 185 172 151 129 110 99 97 105 119 135 149 156 156 151 142 133 127 126 129 135 142 147 148 144 138 129 121 116 116 120 129 141 153 165 173 179 181 179 173 165 154 143 135 132 133 138 144 150 152 150 143 134 124 119 118 124 135 148 161 170 174 175 172 168 163 158 155 153 150 145 138 128 117 
116 112 111 113 119 128 139 150 160 168 171 171 166 155 140 121 102 87 78 78 86 104 129 155 176 188 193 189 177 159 136 115 101 97 102 114 129 142 150 152 148 141 133 128 127 130 136 142 145 145 141 132 122 112 105 103 105 113 125 139 152 164 172 177 177 173 165 155 144 137 133 135 140 147 153 155 153 146 137 128 122 121 126 136 146 156 161 162 159 152 145 139 134 132 132 132 133 131 127 121 
128 127 127 129 132 137 144 151 158 164 169 172 170 164 153 137 118 101 88 83 87 100 121 146 168 183 189 188 178 161 139 118 103 97 99 108 121 133 140 143 140 135 129 126 126 129 135 141 144 143 138 128 117 106 97 93 93 98 108 120 134 147 157 163 165 163 156 148 139 133 131 134 141 148 154 157 155 149 140 131 125 122 125 131 138 143 145 142 135 127 118 111 107 107 111 116 122 127 129 129 
143 144 143 143 142 142 142 144 148 154 160 166 170 169 164 152 136 117 101 90 88 96 112 134 155 172 180 181 173 158 139 119 104 97 97 104 113 123 129 132 130 126 122 120 121 126 132 138 142 141 136 127 115 104 94 88 86 88 93 103 114 125 135 143 146 146 142 136 130 126 127 131 139 147 154 157 156 151 143 134 126 122 121 123 126 126 124 118 110 101 93 87 86 89 95 105 117 127 135 140 
157 158 156 152 147 140 134 131 131 136 144 154 163 169 170 164 151 133 114 98 91 92 103 120 139 155 166 168 163 151 134 117 103 97 96 101 108 115 119 121 119 116 113 113 115 121 128 134 138 139 135 127 117 107 97 90 86 84 86 90 97 105 113 120 124 125 124 122 119 118 121 127 135 144 152 156 156 151 144 135 127 121 117 115 113 110 104 97 89 81 75 72 73 79 89 102 118 133 144 152 
168 168 165 157 147 134 122 114 111 114 123 137 152 164 171 170 161 145 125 106 93 89 93 105 120 136 147 152 149 140 127 114 103 98 97 101 106 110 113 113 110 107 105 106 109 115 122 129 134 136 134 130 123 115 107 99 93 88 86 85 87 91 95 101 105 108 109 109 110 111 115 121 130 139 146 151 152 150 145 137 130 122 116 110 104 97 90 82 75 69 66 66 69 77 90 106 124 141 154 163 
174 173 168 158 143 126 109 97 91 92 101 117 136 154 167 171 167 153 133 112 96 87 86 93 104 117 128 134 134 129 120 111 104 101 101 104 108 111 111 109 106 103 100 101 104 109 116 123 129 133 134 134 131 126 121 114 107 100 94 89 86 85 86 89 93 97 100 103 104 107 110 116 123 130 138 143 146 147 144 140 134 127 119 110 101 91 82 74 68 65 64 66 72 83 98 116 134 150 163 171 
175 174 167 155 138 118 99 84 76 76 84 99 120 141 159 168 167 157 139 118 99 87 83 86 93 104 113 120 122 120 115 110 107 107 109 112 115 116 115 111 106 102 99 99 101 106 112 118 125 130 135 138 139 139 137 133 127 118 109 100 93 88 87 88 91 95 99 102 104 106 108 110 115 120 126 132 138 142 144 143 140 135 126 116 104 93 82 74 69 67 68 73 81 94 110 127 143 157 167 173 
171 169 163 151 134 113 93 77 68 67 72 85 105 128 149 162 165 157 142 123 104 91 85 85 90 97 105 111 114 114 113 112 112 115 118 122 125 125 122 117 111 106 102 101 102 105 110 116 122 129 135 142 147 151 153 151 147 138 128 117 107 99 95 95 98 102 106 109 110 109 107 106 106 109 113 120 128 136 143 147 149 146 139 128 115 102 90 81 75 75 78 85 95 108 123 137 149 159 166 170 
161 160 156 146 131 112 93 77 67 64 67 78 96 118 140 155 161 157 145 129 112 99 91 90 92 98 104 109 113 114 115 117 120 124 129 133 136 135 131 126 119 112 108 105 106 108 112 117 122 129 137 145 152 159 163 164 161 155 145 134 123 115 110 110 112 116 120 121 120 115 109 102 98 97 100 106 116 129 141 152 158 158 154 144 131 117 103 93 88 88 93 101 111 123 134 143 150 154 158 160 
145 147 146 142 131 116 98 83 72 67 68 77 92 113 134 150 158 157 149 136 122 110 102 100 101 104 109 113 116 118 121 124 129 134 139 144 145 144 140 134 126 119 115 112 112 114 117 121 126 132 139 147 154 161 166 169 168 164 156 147 139 132 128 129 131 135 138 137 132 123 112 100 91 87 88 94 105 121 139 155 165 170 168 161 149 135 121 111 106 106 111 119 128 136 141 144 144 143 142 143 
126 131 136 138 133 123 109 94 83 76 75 81 94 113 132 148 157 159 154 144 133 122 115 112 112 113 116 119 122 125 128 132 137 143 148 151 152 150 145 138 131 125 120 118 119 121 124 128 132 137 142 147 153 158 163 165 165 163 158 153 148 145 144 147 150 154 155 153 145 132 115 99 86 79 78 83 95 114 136 156 171 178 179 174 164 152 140 130 125 125 130 136 142 144 143 139 132 126 122 122 
107 116 127 135 138 133 123 110 97 89 86 91 102 118 136 150 159 162 159 152 143 134 127 123 121 121 123 125 128 130 134 139 144 149 153 155 155 151 146 139 132 126 123 123 125 129 133 138 141 143 146 147 149 150 152 152 152 151 150 149 149 151 155 160 166 169 170 166 156 140 119 98 82 73 70 75 87 107 131 154 172 182 185 182 174 164 153 145 141 142 145 149 151 149 141 130 117 107 101 101 
92 105 120 134 142 143 137 126 114 104 100 103 113 127 143 156 164 166 164 158 150 141 134 128 125 125 125 127 130 134 139 144 149 153 156 156 154 148 141 134 127 122 121 124 129 135 142 147 150 151 150 147 143 139 135 133 131 131 133 136 142 150 159 168 175 179 180 175 164 146 122 99 81 70 66 69 81 100 125 150 169 181 185 184 177 169 160 154 151 153 156 158 157 150 137 121 104 91 84 85 
83 98 116 134 147 151 148 138 127 118 113 115 124 137 150 161 168 170 168 161 153 143 134 127 123 121 122 125 129 135 141 147 152 155 156 154 149 142 133 125 118 115 116 120 128 138 147 154 158 157 153 146 136 126 117 111 107 108 111 119 130 143 157 170 179 184 185 180 169 150 126 101 81 69 64 66 76 94 117 142 162 174 179 178 173 165 158 154 154 156 160 162 159 149 133 113 94 81 74 74 
80 96 116 136 150 155 153 145 134 125 121 123 131 143 156 166 171 172 169 161 150 138 127 119 113 111 113 117 124 132 140 148 153 156 155 151 143 134 123 114 107 105 107 114 125 137 149 158 163 162 157 146 131 116 102 92 87 87 91 101 115 133 151 167 178 184 186 181 170 152 129 104 84 71 66 67 75 90 110 132 150 162 166 165 159 153 148 146 149 154 159 162 159 149 131 110 91 77 70 71 
84 100 120 139 151 156 153 144 134 125 122 124 133 145 157 167 172 172 167 157 144 129 116 106 100 99 101 107 116 127 138 147 153 155 153 147 138 126 115 105 98 96 99 106 118 133 147 158 165 165 159 146 129 110 93 81 74 73 78 87 103 122 142 159 172 179 182 178 169 153 132 110 91 78 72 72 77 88 104 120 135 143 146 144 139 133 131 132 138 147 155 160 159 149 133 113 93 80 73 75 
95 110 127 143 152 153 148 137 126 117 115 118 128 141 154 164 170 169 162 151 135 118 104 93 87 86 90 98 109 122 135 145 151 153 150 143 133 121 109 99 93 91 93 100 112 126 142 154 163 164 159 147 129 109 91 78 70 68 71 80 94 112 131 148 162 170 173 171 164 152 136 118 102 91 84 82 85 91 101 111 119 123 123 119 114 111 110 115 125 138 150 157 159 152 138 120 102 89 84 86 
111 124 138 148 152 149 140 126 114 105 103 107 118 133 147 159 165 164 157 144 127 109 94 83 78 78 82 91 104 118 132 143 149 150 147 140 130 119 108 99 93 91 92 97 106 119 133 146 156 160 157 148 132 114 96 83 74 71 73 80 90 105 121 135 147 154 158 159 156 149 140 129 118 109 102 99 98 100 103 105 106 105 102 97 92 90 92 100 112 128 144 155 159 155 145 130 115 104 99 102 
