P2
100 100
255
129 150 170 182 184 173 148 117 88 69 62 66 82 108 140 166 182 184 173 149 116 84 60 48 43 45 52 65 84 107 131 149 158 159 153 141 126 111 98 89 83 79 79 82 89 102 119 136 150 158 160 152 137 117 97 81 69 61 57 57 61 71 86 104 122 138 150 160 166 167 163 155 145 135 127 120 113 104 94 83 73 64 56 50 46 46 50 63 85 116 148 172 182 179 166 145 124 110 106 113 
162 177 189 193 186 167 135 100 71 54 48 53 67 93 125 156 175 180 170 148 117 86 64 52 49 51 59 72 89 108 126 138 142 140 135 127 120 114 111 109 108 105 101 97 94 95 101 110 122 133 142 146 144 137 126 114 102 91 81 73 68 67 72 79 90 102 115 130 145 159 168 173 173 171 166 160 149 134 113 91 71 56 46 40 37 38 43 56 78 109 142 166 179 180 172 159 145 138 139 148 
186 196 202 200 188 163 126 88 60 45 41 45 59 83 117 150 172 179 173 155 128 100 79 68 65 69 78 90 104 116 124 126 123 118 113 110 112 118 127 135 139 138 131 120 106 94 87 88 94 105 120 135 148 155 156 152 143 130 115 98 82 70 64 63 65 72 83 101 123 148 170 184 193 196 195 190 180 162 135 105 77 57 44 38 36 38 45 59 81 110 139 161 172 173 168 161 156 156 163 174 
198 206 209 204 189 160 120 81 55 41 38 43 57 82 116 150 173 183 180 166 145 123 105 96 95 100 109 118 126 128 124 115 104 95 90 92 102 119 140 158 169 171 163 146 123 99 80 71 71 80 98 122 148 168 180 183 179 168 150 126 100 77 62 53 51 54 62 80 106 139 169 190 203 209 211 208 199 182 154 119 87 63 49 43 43 48 57 73 94 118 139 153 158 157 153 150 151 159 172 186 
201 210 212 206 189 158 117 79 54 42 40 46 62 89 123 155 177 187 186 178 163 148 136 131 132 138 146 151 151 143 127 106 88 75 70 75 90 116 147 174 190 194 188 170 141 107 78 61 56 62 79 108 143 173 193 202 202 195 177 150 117 85 63 50 44 45 52 68 96 132 166 192 207 215 217 215 208 192 166 132 99 74 61 56 59 68 81 97 115 131 141 144 139 132 126 125 132 147 167 187 
198 209 212 205 188 157 116 80 56 46 46 55 74 102 135 164 182 190 190 184 175 167 162 162 166 172 177 178 172 156 130 100 75 60 55 60 78 109 147 181 201 208 204 188 158 118 81 57 47 50 66 96 136 173 199 211 214 208 192 165 128 92 65 50 43 43 50 66 93 129 164 190 206 213 216 214 207 193 170 140 111 89 80 80 87 100 116 131 143 148 144 133 117 103 94 94 104 124 151 178 
189 203 208 202 184 153 115 81 61 54 57 70 92 121 150 172 184 188 186 180 175 172 174 179 186 193 197 196 186 165 132 95 66 49 44 49 67 99 142 181 205 215 213 199 171 129 87 57 44 44 57 87 129 170 199 213 217 212 196 169 131 94 67 53 47 48 56 73 99 132 163 186 199 206 207 205 198 185 166 143 121 108 105 111 124 140 155 165 169 163 147 122 97 78 67 67 77 98 129 163 
177 195 201 195 177 146 111 83 67 65 73 91 115 141 162 175 180 177 171 164 161 162 170 181 192 202 206 205 194 170 134 93 62 44 37 41 58 89 134 177 204 217 218 207 181 141 96 62 45 42 54 82 123 166 195 210 214 208 191 163 127 93 70 59 56 61 72 89 112 138 161 177 186 189 189 185 178 167 152 138 127 125 131 144 160 175 186 192 189 175 148 114 82 60 49 48 56 77 108 146 
165 186 192 185 165 136 106 84 75 79 93 115 139 158 170 172 166 155 144 135 132 138 151 169 186 200 207 207 197 174 137 95 62 42 35 37 52 82 126 170 201 216 219 211 189 152 108 71 51 46 56 82 121 162 190 204 205 196 177 148 116 90 74 70 74 84 98 114 132 148 160 165 165 162 158 152 146 138 131 126 128 137 152 170 186 199 206 207 200 181 148 107 72 49 39 38 45 63 93 131 
156 176 181 171 150 122 98 84 83 95 116 139 159 170 171 161 145 125 109 99 97 105 122 146 171 191 202 205 197 177 142 101 67 46 37 38 51 78 119 163 195 212 217 212 195 163 122 85 63 56 65 89 124 159 183 193 190 176 154 127 102 85 81 86 100 116 132 146 155 159 157 149 139 128 120 113 109 106 106 112 124 143 165 185 201 211 216 215 206 184 147 103 66 44 35 33 40 57 85 122 
151 169 169 156 133 108 90 84 92 112 137 159 173 176 166 145 119 94 76 67 66 74 91 118 148 175 192 200 196 180 151 114 80 58 47 46 56 79 116 156 188 206 213 210 197 172 137 103 81 73 81 101 130 158 174 177 168 149 125 102 86 82 89 106 129 150 166 175 176 169 154 134 113 97 86 80 79 80 86 98 118 143 169 191 206 216 220 218 207 184 145 100 64 43 34 34 41 58 86 121 
153 165 160 142 117 95 84 86 102 127 154 174 182 177 157 127 95 69 53 46 46 53 68 93 125 156 179 191 192 182 161 132 102 79 66 62 69 87 117 150 178 196 204 203 194 176 149 123 103 97 103 119 140 157 164 159 142 120 97 80 74 79 98 126 155 178 192 195 191 176 152 123 95 75 65 61 61 66 75 90 111 139 167 189 205 215 218 216 205 181 142 97 63 43 36 37 47 65 94 127 
160 164 153 130 104 85 80 89 111 141 169 185 188 175 148 111 77 53 40 35 36 42 55 77 106 137 163 179 186 183 171 152 131 111 98 91 93 103 121 143 164 178 186 188 184 173 156 139 127 123 128 139 150 157 153 139 117 94 75 64 65 78 105 140 173 196 206 208 199 181 152 118 87 67 57 54 57 63 72 86 106 131 158 181 197 208 212 210 199 175 137 95 63 46 40 44 57 79 110 140 
168 165 148 121 95 79 78 93 121 154 180 193 191 174 141 100 66 45 35 32 34 40 52 70 94 121 146 164 175 179 177 170 159 148 137 128 123 122 126 134 143 152 159 163 163 161 155 149 145 145 149 155 158 155 143 123 98 76 61 55 60 78 109 148 182 203 212 212 203 184 154 119 89 70 62 61 64 70 77 87 102 121 142 164 181 194 200 200 189 165 130 92 64 49 46 54 71 98 129 155 
176 166 143 113 88 75 78 98 129 163 188 198 193 173 137 96 63 43 35 34 38 46 57 72 90 110 129 145 158 168 176 180 180 177 172 163 153 141 130 121 118 118 122 127 133 140 145 150 154 159 162 164 161 152 134 111 87 68 56 53 59 78 110 148 181 201 210 210 201 183 156 125 99 84 78 79 82 86 89 93 98 108 122 139 156 171 181 183 174 153 122 90 66 55 55 67 89 119 149 170 
180 164 137 105 82 72 78 101 135 170 193 201 195 174 138 97 65 48 42 44 51 61 72 84 94 103 113 123 135 149 165 180 190 195 194 188 174 153 129 107 92 86 86 91 101 114 129 144 155 163 166 165 159 146 128 106 85 69 60 57 64 80 108 141 171 190 199 199 191 176 155 133 115 106 104 107 110 110 107 101 96 95 100 110 125 141 154 160 156 140 116 90 71 63 67 83 108 139 165 180 
179 159 129 97 75 68 77 101 137 171 194 202 196 176 142 104 75 59 57 63 74 87 98 104 104 101 99 100 108 124 146 170 189 202 205 200 185 158 124 93 72 61 59 64 76 93 114 135 151 160 163 159 151 139 123 107 92 80 73 71 74 86 105 129 151 168 176 177 172 162 150 140 133 133 136 141 142 137 125 109 93 83 80 84 95 110 126 137 140 131 114 95 81 76 83 101 128 155 176 185 
175 152 119 88 69 64 73 97 132 166 190 199 194 176 147 115 91 80 82 93 109 123 131 130 119 102 87 80 82 96 121 152 181 200 208 204 187 156 116 80 57 46 44 49 61 80 104 128 145 153 153 147 139 129 121 113 107 102 98 95 94 96 103 114 126 135 140 142 142 140 140 143 149 157 164 169 168 158 139 114 90 73 65 65 73 87 104 121 130 129 120 107 97 95 103 121 145 168 182 185 
170 144 110 81 63 58 67 88 120 154 178 189 187 174 152 128 111 107 115 130 148 160 163 154 132 103 78 64 61 71 95 130 167 193 204 202 184 149 106 70 48 38 37 43 56 77 103 126 142 146 141 132 123 118 118 122 128 131 131 128 121 114 106 101 99 100 101 103 107 114 126 142 159 174 184 188 184 170 145 114 85 66 56 55 61 75 95 116 131 137 134 127 120 119 126 141 160 176 185 184 
167 139 105 77 59 54 60 77 104 133 158 171 173 166 152 139 132 135 148 165 180 188 186 170 140 102 71 53 47 54 75 110 151 182 198 196 176 140 97 62 42 35 36 44 61 85 112 134 144 141 130 116 107 106 115 131 148 160 165 162 152 135 114 94 80 72 69 71 78 92 113 139 165 184 195 198 191 173 143 108 79 60 51 50 58 74 98 123 143 153 154 150 145 143 148 159 172 182 187 183 
167 140 107 78 59 52 54 65 85 108 130 145 151 151 147 145 148 158 173 188 200 204 198 178 142 99 65 45 38 43 62 95 137 172 190 189 168 130 88 57 41 36 41 54 77 105 132 149 152 141 121 102 91 94 110 136 163 182 191 190 178 156 125 93 69 55 50 51 59 77 105 138 169 190 200 200 190 167 134 99 71 55 49 51 62 82 109 138 159 171 173 170 165 163 165 172 180 187 189 183 
173 148 117 87 65 54 51 57 68 84 101 115 125 132 137 145 157 172 187 201 209 210 201 178 139 95 60 41 34 39 56 88 129 165 184 182 160 123 84 56 43 42 53 73 102 134 158 169 163 144 115 90 78 82 102 135 169 194 206 207 196 173 137 97 66 48 41 42 51 71 103 141 173 193 201 198 183 156 121 87 64 52 49 55 71 96 127 155 176 185 187 183 178 174 174 178 184 190 191 187 
182 162 134 103 78 61 53 53 58 67 78 90 102 114 127 143 160 178 194 205 211 210 198 173 133 89 57 40 35 41 58 90 130 164 181 178 156 119 83 59 50 55 72 101 135 165 183 187 176 148 113 82 67 70 91 128 168 198 213 216 208 186 148 104 68 46 38 39 50 72 107 146 177 195 199 191 171 140 105 76 58 50 52 62 83 112 144 170 186 193 191 186 178 173 172 175 182 189 193 191 
191 178 155 127 98 75 61 55 54 58 66 76 88 103 121 141 161 180 194 204 208 204 191 164 125 86 58 44 41 49 70 102 140 170 183 178 154 119 85 65 61 73 99 134 168 192 204 202 186 154 112 76 59 59 79 116 160 195 214 220 214 194 158 112 73 49 39 41 54 79 116 154 182 195 195 181 156 122 90 66 54 51 57 73 97 128 158 179 189 190 185 175 165 158 157 162 172 183 192 195 
197 191 176 152 124 97 76 64 59 59 65 74 86 103 122 142 162 178 190 197 198 193 178 151 116 84 62 53 55 68 92 124 157 180 188 179 155 121 91 75 76 96 128 164 193 210 217 212 193 158 111 72 52 50 66 101 146 186 210 219 216 199 166 120 79 54 44 47 62 90 127 162 185 193 187 169 139 106 77 60 53 55 66 86 113 142 165 179 182 176 165 150 137 129 129 137 152 169 185 195 
199 199 191 174 149 122 97 80 72 71 75 85 98 114 131 148 162 173 180 183 182 174 158 134 108 85 72 70 79 96 122 152 177 191 193 181 155 122 95 83 91 116 152 186 209 221 224 218 198 160 111 70 47 43 55 85 129 173 202 215 215 201 171 128 87 61 51 55 73 103 138 169 186 188 177 153 122 92 70 59 58 65 81 103 129 152 167 171 165 151 133 115 101 94 95 104 123 147 171 189 
193 201 199 188 169 145 121 103 93 92 98 108 121 134 147 156 163 165 165 162 156 146 132 115 99 89 87 95 111 132 156 178 193 200 195 179 151 119 95 88 100 129 166 197 217 227 228 220 200 162 112 68 44 37 46 70 111 156 191 208 211 200 173 133 94 69 60 65 85 114 147 171 182 179 162 137 108 83 69 64 69 82 102 124 146 160 164 157 140 119 97 79 67 62 64 73 92 118 149 175 
180 194 198 192 179 160 140 125 119 120 128 138 149 159 164 166 162 154 144 133 123 113 103 95 91 94 105 123 145 166 184 198 205 204 194 172 141 110 89 85 99 130 168 199 218 227 228 220 200 162 112 68 43 34 39 58 94 138 177 199 205 196 172 137 101 77 69 76 95 123 150 168 173 165 146 121 98 81 75 79 90 108 129 148 162 166 160 141 116 89 68 53 44 41 43 50 66 90 122 155 
159 179 188 186 177 163 150 141 140 146 156 167 176 180 180 173 159 140 120 103 91 82 77 77 84 99 122 148 172 190 203 209 210 203 186 159 125 95 77 75 90 120 158 190 212 222 224 218 199 162 113 70 44 34 36 51 81 122 162 188 196 189 168 137 105 84 78 85 103 127 148 160 159 148 129 109 94 88 91 102 119 139 157 171 177 173 157 130 98 70 50 38 32 30 31 36 48 67 96 129 
135 157 168 169 163 153 146 145 151 163 176 187 194 195 190 176 154 125 99 78 66 59 59 64 78 102 133 165 189 204 212 214 209 196 173 141 106 78 63 62 75 101 136 171 196 211 216 212 194 161 116 74 48 36 37 49 75 112 150 176 186 181 162 134 107 89 85 92 107 126 141 147 142 131 116 104 98 102 114 131 151 168 182 189 189 179 157 126 91 62 43 33 27 25 26 30 38 53 76 105 
113 132 142 143 138 132 130 135 149 167 184 196 203 203 194 176 147 112 82 61 50 45 47 55 73 102 139 173 197 210 215 213 204 185 155 119 85 62 51 50 59 78 108 142 171 191 201 200 187 159 119 82 56 45 44 54 77 110 144 167 177 171 154 129 106 92 89 95 108 122 131 132 126 117 108 105 110 123 141 160 177 191 199 201 197 185 162 130 95 66 46 35 30 27 27 30 36 47 65 88 
101 113 118 115 109 105 106 116 135 159 180 196 204 203 193 172 139 102 71 52 41 38 41 50 70 103 142 177 200 211 213 208 193 168 133 97 68 50 42 40 46 59 80 108 137 162 178 183 175 155 125 94 71 60 60 70 90 117 145 163 169 162 144 122 103 92 90 96 106 116 121 120 115 110 108 114 127 145 165 182 195 203 207 206 201 189 169 141 109 81 61 49 42 38 37 39 43 52 66 83 
102 106 103 95 87 81 83 94 114 141 167 186 196 197 187 164 131 95 66 48 39 37 40 50 71 104 144 177 198 208 207 198 178 147 111 78 55 42 36 35 38 46 60 79 103 128 147 158 159 149 131 111 95 86 87 96 113 135 153 164 164 153 135 114 98 90 90 95 104 111 114 113 111 111 116 128 145 165 182 195 204 207 207 204 199 190 175 155 132 109 90 77 67 62 59 60 64 71 81 92 
117 112 101 87 75 67 67 75 92 117 144 166 180 183 174 154 124 92 67 51 43 41 45 56 77 110 146 177 195 201 197 183 157 124 91 65 48 39 36 35 37 42 50 62 78 98 117 132 141 142 137 129 123 120 123 132 144 157 166 169 162 147 126 107 93 87 89 95 102 109 112 113 114 118 128 143 161 178 191 199 202 201 197 192 187 182 175 166 155 142 130 119 110 103 99 98 100 104 110 116 
142 130 112 92 75 63 59 62 74 93 117 138 154 160 156 141 119 95 75 62 55 54 59 71 91 121 152 176 189 191 182 162 134 103 75 56 45 41 40 41 43 46 51 58 67 80 94 109 123 133 140 145 149 153 158 165 172 178 179 174 161 141 119 100 89 85 88 95 103 110 115 118 122 129 141 156 171 183 190 192 188 182 174 167 163 162 165 169 172 172 169 164 158 153 148 146 145 146 148 147 
166 152 132 108 86 69 60 58 63 75 91 108 123 132 134 129 118 104 92 84 79 79 84 96 114 137 159 174 180 176 161 138 110 84 64 53 48 49 52 56 60 63 66 68 71 76 84 95 108 123 139 153 165 175 183 188 191 191 187 177 159 137 114 96 86 84 89 97 107 115 121 126 131 140 151 163 173 179 179 172 161 148 136 127 125 131 145 162 178 189 195 196 195 191 188 185 182 181 179 175 
183 171 153 130 106 85 71 62 60 64 71 82 94 105 114 120 122 121 119 117 115 116 121 129 141 155 166 171 168 156 137 113 89 70 59 55 57 65 75 84 92 96 96 93 89 85 84 88 97 112 131 152 170 184 193 199 200 197 189 176 155 131 109 93 86 87 93 103 113 122 128 133 139 146 154 161 165 163 155 141 124 107 93 85 85 96 117 146 174 195 208 213 214 212 209 206 202 199 195 191 
189 182 170 153 132 110 91 76 66 61 61 66 74 85 100 116 131 142 149 153 155 157 159 162 166 169 169 164 152 134 112 90 72 61 58 62 73 90 108 124 135 140 138 131 119 105 94 88 90 100 118 141 163 180 192 198 199 194 184 169 148 125 106 94 90 93 102 112 122 130 135 138 141 145 149 150 147 139 124 106 87 70 59 53 55 66 90 125 163 192 210 218 220 219 215 210 205 200 197 193 
183 183 180 172 158 140 119 97 79 66 59 58 63 74 92 116 141 161 175 183 186 187 186 185 182 177 167 153 134 112 91 73 62 58 61 74 95 121 146 165 177 181 178 168 151 129 107 91 84 88 102 123 146 166 179 186 187 182 171 155 136 118 104 98 99 106 115 125 133 138 139 138 137 136 135 132 124 111 95 77 60 47 39 35 37 48 70 106 148 184 205 215 217 214 208 199 191 185 182 181 
164 174 182 184 179 167 148 125 100 79 65 58 59 70 90 119 150 176 192 201 204 203 200 195 187 175 160 139 117 94 76 63 57 59 70 91 120 151 177 195 205 207 204 194 176 149 120 95 81 79 88 104 124 144 157 164 164 158 148 134 120 110 105 107 114 124 134 142 146 145 140 134 127 122 117 111 101 89 74 59 46 36 30 27 30 39 58 91 133 171 194 204 204 197 186 173 161 153 151 155 
136 157 176 188 192 187 174 153 125 98 76 63 61 71 92 124 157 184 201 209 211 208 203 194 182 166 147 124 102 83 69 60 59 66 82 109 143 174 197 211 218 220 216 206 188 160 128 99 80 74 78 90 105 120 130 134 133 127 118 110 104 103 109 119 133 145 155 159 158 151 139 126 114 105 99 93 85 75 64 52 42 35 30 28 30 38 55 84 122 157 178 185 181 168 150 131 117 109 109 118 
106 136 166 188 199 200 193 176 150 119 92 74 68 75 96 127 161 187 202 208 209 204 195 183 168 150 131 111 94 80 70 66 68 79 99 129 161 189 207 218 223 223 218 208 190 162 130 101 83 76 78 85 95 103 107 106 101 95 90 87 89 98 114 134 153 167 174 175 169 155 136 116 100 90 84 81 78 73 66 57 49 43 38 36 38 46 61 86 117 144 159 159 148 129 107 88 75 69 72 84 
84 118 155 184 201 207 203 191 169 140 110 87 78 82 100 129 159 183 196 200 197 190 178 163 147 131 116 104 93 86 82 81 87 99 121 148 175 196 210 217 220 218 212 200 181 155 127 104 90 86 89 94 98 99 94 87 78 72 68 69 78 96 121 148 171 184 190 187 176 157 132 107 89 79 76 78 80 82 80 76 69 63 58 56 58 65 78 98 119 135 139 131 113 92 72 57 48 45 48 60 
72 106 146 179 200 209 208 200 182 156 126 102 89 89 103 126 151 171 181 182 176 164 150 134 121 112 106 103 103 103 104 107 113 125 143 164 183 198 207 211 210 205 195 181 162 140 120 108 104 107 112 117 116 109 95 79 66 57 54 58 71 95 127 160 184 197 201 196 181 157 127 99 81 73 74 82 93 102 108 108 104 99 93 90 91 97 107 119 130 133 125 108 87 67 51 40 35 34 38 49 
68 101 140 174 196 206 208 202 188 166 138 113 98 95 103 119 137 151 156 154 144 131 117 105 99 99 104 112 121 128 133 138 143 151 162 174 186 194 197 196 191 181 167 150 133 119 112 113 122 134 144 149 144 130 107 82 62 50 47 51 66 94 132 168 193 205 207 201 184 156 123 93 76 71 78 93 112 130 142 147 147 143 138 135 134 137 141 145 145 136 118 95 72 54 42 35 32 32 37 48 
72 100 135 166 188 199 202 198 186 168 144 121 104 97 100 108 118 125 126 120 109 97 88 83 85 95 110 128 144 155 162 165 167 170 173 178 181 182 180 173 161 146 129 113 101 98 104 120 142 162 176 180 174 156 126 92 65 48 43 47 63 94 135 173 198 210 211 202 183 153 118 89 74 73 85 107 134 157 173 181 182 180 177 174 172 171 170 167 158 141 116 90 67 52 42 38 36 38 43 53 
82 104 130 155 174 185 188 186 177 162 142 122 106 97 95 96 99 100 97 90 81 73 69 71 82 100 123 147 166 177 183 183 181 178 175 172 169 164 155 141 125 107 91 79 75 80 98 127 159 184 199 204 197 178 145 105 70 49 41 45 61 93 135 174 200 211 211 201 180 148 113 86 74 78 95 123 153 177 192 200 202 201 198 195 192 190 186 178 165 144 118 91 70 57 51 48 49 52 58 67 
96 109 124 139 152 161 165 165 159 149 134 119 105 95 90 87 84 81 76 70 64 61 62 71 88 113 141 165 182 190 192 189 182 174 165 157 149 139 126 110 93 76 64 56 57 69 94 132 170 198 214 218 212 194 161 117 77 52 42 44 60 92 134 174 198 209 207 196 173 141 108 85 77 85 106 136 165 187 200 205 206 205 202 199 196 192 187 179 165 145 120 97 80 71 68 69 72 77 82 88 
114 113 115 119 125 130 134 136 136 132 124 114 104 95 87 81 76 71 66 61 58 59 66 80 102 130 158 179 190 194 191 182 170 157 145 134 125 115 102 88 72 59 49 45 48 63 92 135 177 206 221 225 220 204 172 126 83 55 43 45 61 92 134 171 195 203 200 186 162 131 103 85 83 94 117 146 171 188 197 199 198 194 190 187 184 181 177 170 158 142 124 107 97 93 95 100 107 112 115 115 
129 116 105 99 97 98 103 108 113 116 115 112 105 98 90 82 75 69 64 61 61 66 77 96 122 149 172 186 191 188 178 163 146 130 117 109 102 96 88 78 65 54 45 41 45 60 90 134 177 207 223 227 223 207 177 132 88 59 47 49 65 96 135 169 189 195 189 172 147 120 98 88 91 106 129 153 172 182 185 182 175 169 163 160 159 159 158 155 148 138 128 120 118 121 128 137 145 149 148 141 
140 116 95 81 75 74 79 87 97 107 114 116 113 107 99 90 82 75 71 70 73 81 96 118 142 165 180 187 185 173 156 134 114 99 90 86 87 88 87 82 71 60 50 44 46 58 86 128 172 203 220 225 221 205 176 133 91 64 53 57 75 104 139 167 182 183 172 153 129 108 95 93 102 120 141 159 169 170 164 153 142 132 126 124 126 130 135 138 138 136 134 134 139 147 158 169 176 178 174 160 
144 113 87 69 61 61 67 78 93 109 121 128 128 124 116 106 97 90 86 86 91 102 119 140 160 176 184 182 171 151 127 102 84 72 69 72 81 92 99 99 91 77 63 53 50 58 81 117 159 191 210 216 212 197 168 129 93 71 64 71 91 119 147 166 173 167 151 131 111 97 94 102 117 137 154 164 164 155 139 120 105 94 90 91 97 106 117 126 132 137 141 147 156 167 179 189 195 195 188 171 
143 109 80 63 55 57 65 81 100 121 137 146 148 145 138 128 119 111 108 108 114 125 141 158 172 181 182 173 154 127 99 76 61 55 57 67 85 105 121 127 121 105 85 68 58 59 74 103 139 170 190 198 194 179 153 121 94 80 80 93 114 138 158 167 164 149 129 109 94 90 97 113 134 154 166 168 159 140 115 93 76 68 66 70 80 94 109 122 133 141 148 157 167 179 190 199 203 202 193 174 
140 105 77 60 55 60 73 93 117 140 157 166 169 166 159 151 142 134 130 130 135 144 156 168 178 181 176 161 136 106 78 59 48 46 53 69 95 125 149 159 156 139 114 88 70 63 68 87 114 141 160 168 165 151 130 109 94 91 101 119 141 160 170 168 154 132 108 90 82 86 102 126 151 169 177 173 156 129 100 76 61 55 57 64 77 94 112 127 138 146 153 161 171 182 193 201 205 203 192 171 
134 101 75 62 60 69 87 113 140 162 177 184 185 182 176 167 159 151 146 144 147 154 163 171 177 177 169 150 123 93 67 51 43 44 54 76 110 146 173 186 185 170 143 112 85 69 65 73 90 109 124 130 128 118 105 95 94 104 123 146 166 178 179 167 144 116 91 76 74 86 109 139 166 182 186 177 156 124 93 69 57 54 58 69 85 103 121 134 142 147 152 158 168 179 190 198 202 200 189 167 
128 97 75 65 68 82 106 135 162 182 193 197 196 191 184 175 165 157 150 147 148 153 159 167 171 171 163 145 118 89 65 50 44 47 60 86 124 163 190 203 203 191 167 134 101 78 67 67 74 84 93 96 94 88 83 84 94 115 142 167 184 190 183 164 133 102 78 67 70 87 116 149 177 191 192 181 157 124 93 71 60 60 67 81 98 116 130 138 141 141 142 147 156 169 182 192 197 195 183 160 
121 93 74 69 76 95 124 155 180 195 202 203 199 192 183 171 160 149 142 137 137 141 148 156 163 165 160 145 122 96 73 57 51 54 68 97 136 174 199 211 212 202 182 152 118 90 74 68 69 73 75 75 72 69 69 76 95 123 155 180 194 195 182 156 121 89 67 60 67 88 120 156 182 195 195 182 158 126 97 77 70 72 81 95 111 125 133 134 131 126 123 127 138 154 171 184 191 188 176 152 
113 87 72 70 81 104 136 167 190 202 206 204 197 186 172 157 142 130 122 117 117 122 131 142 154 161 161 152 134 111 88 71 62 64 78 105 143 178 201 212 213 206 189 163 132 106 88 80 77 76 74 70 65 61 63 74 96 128 161 185 196 193 175 144 107 77 59 55 65 88 122 157 183 194 193 180 156 128 102 87 82 86 96 108 119 126 126 120 111 103 99 104 117 138 159 176 184 182 168 143 
103 80 68 68 81 107 140 172 193 204 205 200 188 172 152 133 117 104 97 93 95 101 114 130 147 160 166 163 152 132 110 90 77 75 86 110 143 174 196 206 208 202 188 167 144 123 108 101 97 94 88 80 71 65 65 76 98 130 162 184 192 184 162 128 92 66 53 52 63 86 119 154 177 188 185 172 150 126 107 96 95 100 109 116 120 118 111 100 88 80 77 83 100 124 150 170 179 176 160 133 
93 72 62 63 76 102 136 168 190 200 200 191 174 152 127 105 89 79 74 73 76 86 101 122 145 163 174 176 169 154 132 109 92 85 91 109 135 162 182 193 195 190 180 165 150 138 131 129 128 124 115 102 88 77 74 81 102 131 159 178 182 171 145 111 79 57 48 49 61 84 114 145 166 174 170 157 139 121 109 104 107 112 118 119 115 105 92 79 68 61 62 71 91 119 148 169 177 171 152 123 
83 63 54 55 68 91 125 158 182 193 191 179 157 129 101 80 67 60 57 59 65 77 97 122 148 169 182 187 183 170 150 125 103 91 90 101 121 143 161 171 174 171 164 156 151 149 152 156 159 156 147 132 113 96 88 91 107 131 155 170 171 157 129 97 69 52 47 50 62 83 109 134 150 154 148 136 122 112 108 110 116 122 124 119 108 92 76 63 54 52 56 70 94 125 154 173 178 169 145 113 
74 55 47 48 58 79 110 144 170 183 181 166 139 108 81 63 52 48 48 52 61 77 100 128 156 177 190 194 191 179 158 131 107 91 85 90 103 120 134 143 147 146 143 143 147 155 166 176 182 182 174 159 138 117 104 103 114 133 152 163 161 146 119 90 66 54 50 55 68 86 106 123 132 131 123 112 104 101 105 115 125 132 130 120 103 84 67 55 50 51 61 80 108 140 167 182 183 169 141 105 
68 49 41 41 50 68 97 131 159 173 172 155 126 94 69 53 45 43 45 51 64 84 111 140 167 185 195 197 192 178 156 128 103 86 78 79 88 99 110 117 121 121 123 128 139 155 172 186 194 196 190 176 156 134 119 114 122 137 152 160 158 143 119 93 74 64 63 69 81 96 109 117 117 109 99 91 88 92 104 120 134 141 139 125 105 84 67 57 55 62 77 102 133 162 183 193 189 171 138 99 
63 45 37 37 45 61 88 122 152 167 166 149 120 89 64 49 42 42 46 56 72 96 126 155 177 191 197 195 186 169 144 117 93 78 72 72 79 88 96 102 104 105 109 117 132 151 171 187 197 199 194 180 161 141 126 122 129 143 156 163 161 149 129 109 93 86 87 94 105 115 120 118 108 95 83 76 77 87 105 127 144 153 150 136 115 94 78 71 73 85 106 133 162 185 199 203 195 172 135 95 
60 43 36 36 44 60 87 121 151 167 167 151 123 91 66 51 45 45 52 65 86 114 144 170 187 195 195 188 174 152 126 101 82 71 69 72 79 88 96 101 102 102 105 113 127 146 165 180 189 191 185 172 154 136 125 125 134 149 163 171 171 162 149 134 123 119 122 129 137 141 138 126 107 88 74 68 73 87 110 136 156 166 164 152 132 113 99 95 102 118 140 165 187 202 210 209 198 172 133 91 
59 43 38 39 48 67 95 128 157 173 173 159 132 101 75 59 52 53 62 80 105 134 162 182 192 195 189 175 155 130 105 85 73 68 71 79 91 102 111 114 114 112 112 116 126 140 155 166 172 171 163 150 134 121 116 121 136 154 170 180 182 178 170 162 156 155 159 164 168 167 157 138 113 89 72 67 74 93 119 147 168 178 177 167 152 137 127 126 135 152 172 190 205 213 216 211 197 169 129 89 
61 48 45 49 61 82 111 143 168 181 182 170 146 117 90 72 65 67 79 99 126 154 176 190 194 190 177 157 132 106 85 72 67 70 80 95 112 126 136 139 136 132 127 125 128 134 141 146 147 142 132 119 107 100 102 114 134 157 176 187 192 191 187 183 181 183 186 190 191 187 174 151 122 95 77 73 82 103 131 159 178 187 186 179 167 156 150 152 161 176 191 204 212 216 215 208 191 162 124 87 
67 58 59 67 83 106 135 162 181 191 190 180 160 134 108 90 83 87 100 122 148 171 187 194 192 181 161 135 107 85 70 64 66 77 95 118 139 155 163 165 161 153 144 136 131 129 127 124 119 110 100 89 81 80 87 104 130 157 178 191 196 197 195 194 194 196 200 203 203 197 184 161 132 105 87 84 95 117 145 169 185 191 190 183 173 164 160 163 173 185 196 205 210 210 206 196 178 150 116 86 
77 75 82 95 114 137 160 179 192 198 196 187 171 149 127 111 105 110 124 145 166 183 193 194 186 168 142 112 86 68 59 59 69 87 114 142 165 179 185 185 179 169 157 144 133 123 114 105 95 85 75 67 63 65 75 95 123 152 175 188 194 194 193 192 194 197 201 204 204 199 187 166 140 116 101 100 112 134 158 177 187 190 185 176 165 157 154 157 166 176 185 192 194 192 186 173 155 131 106 87 
91 99 113 130 148 166 181 192 199 200 197 189 176 159 141 129 125 131 145 163 179 190 195 191 177 153 122 92 69 57 53 58 73 99 131 162 184 195 199 196 189 177 163 147 132 118 105 92 80 69 60 54 52 56 67 87 115 144 166 179 182 181 178 177 178 183 188 193 195 191 181 165 145 126 117 119 131 150 168 180 184 181 171 158 145 135 132 134 142 150 158 163 163 159 151 140 125 110 97 90 
109 126 144 162 176 187 195 199 200 198 193 185 173 159 146 138 137 145 158 173 186 193 194 186 167 138 105 76 58 49 49 58 78 109 145 176 195 204 205 200 190 176 160 143 127 113 99 87 75 64 55 50 49 53 64 83 108 133 152 160 160 155 149 146 147 152 160 167 171 171 166 155 143 133 131 137 149 163 174 179 175 164 148 130 115 104 100 102 107 114 119 122 121 117 111 103 95 90 90 96 
125 148 168 183 192 197 199 197 194 189 181 172 161 150 141 136 139 148 162 176 187 193 191 180 158 126 93 66 51 45 47 58 81 115 152 182 199 206 204 196 183 167 149 132 118 107 97 87 77 67 59 53 52 56 65 82 102 122 134 137 131 121 112 107 107 111 120 129 136 140 140 138 135 135 141 150 162 172 176 172 160 141 120 100 84 75 72 72 76 80 84 85 84 81 77 74 74 77 87 103 
137 161 179 190 195 196 193 188 180 172 162 152 141 132 126 124 129 140 155 170 182 189 187 176 153 120 87 62 48 43 46 58 81 115 153 182 199 203 199 188 170 150 131 116 107 101 97 92 85 77 70 64 62 65 73 86 102 114 119 114 103 90 78 72 71 74 81 89 97 104 110 116 123 133 146 159 170 175 173 161 141 116 93 74 62 55 53 54 57 60 62 63 63 61 60 60 64 73 89 111 
141 162 177 185 186 183 177 169 159 148 138 127 118 110 105 105 111 123 139 156 172 181 182 173 152 121 88 63 48 43 45 56 77 111 148 178 194 197 191 175 153 130 110 99 95 96 100 102 101 96 89 83 79 81 88 98 108 114 112 101 86 70 58 51 48 50 54 60 67 75 84 95 110 128 147 163 173 174 165 147 121 94 72 57 49 45 46 48 52 56 58 60 60 59 60 62 67 78 95 117 
138 153 162 166 164 159 151 142 133 123 114 105 96 90 86 85 90 100 116 136 156 171 177 173 157 129 97 71 53 45 45 54 72 103 139 169 186 190 181 163 137 111 93 84 85 94 105 115 120 119 115 109 105 105 109 116 122 123 116 101 82 64 51 43 40 39 41 45 50 57 67 80 100 123 147 164 173 170 156 132 103 78 59 49 45 45 49 55 61 68 72 75 76 76 76 78 83 91 104 121 
129 134 137 136 132 127 121 115 110 104 98 91 83 77 71 69 71 79 92 112 136 158 172 175 166 144 115 86 64 51 47 52 67 94 127 158 177 182 173 153 125 99 81 75 80 93 111 128 140 144 142 137 133 132 134 138 141 139 130 113 93 74 58 48 43 40 39 41 44 49 58 73 94 120 145 163 170 164 146 119 91 68 54 49 49 55 64 75 87 97 104 108 110 110 109 108 109 112 116 122 
116 111 106 102 99 96 95 96 97 97 95 90 82 73 65 59 58 62 72 90 116 144 167 179 178 164 139 110 83 63 53 53 64 85 116 147 169 176 169 149 122 96 78 73 80 96 119 141 157 164 165 161 157 154 155 157 159 157 150 135 117 97 80 67 58 52 48 46 47 50 58 72 94 120 145 161 166 157 136 109 83 65 56 56 63 75 92 110 126 139 147 152 153 152 149 145 140 134 128 121 
102 89 81 76 74 76 81 89 98 105 106 102 92 78 66 56 50 51 57 73 99 132 163 183 189 183 165 138 108 82 64 58 63 79 107 138 162 173 169 153 127 101 84 78 85 102 127 151 168 177 178 175 170 167 166 168 171 172 169 161 148 132 116 101 88 77 68 62 59 59 65 78 99 124 147 161 162 151 130 104 81 68 64 71 86 107 130 151 167 179 185 188 188 186 182 175 166 152 135 117 
90 74 64 60 62 68 80 95 112 124 130 125 112 94 74 58 48 45 48 61 85 121 158 185 198 199 188 167 137 106 80 66 65 76 100 131 157 172 173 161 139 114 96 89 94 111 134 157 174 182 183 179 173 167 165 167 172 178 181 180 176 167 156 144 130 116 102 90 81 77 80 91 110 132 151 162 161 148 127 103 84 76 78 92 115 141 166 185 197 205 208 209 208 205 200 192 180 162 138 112 
83 67 58 56 60 71 89 112 134 151 158 155 140 117 91 67 51 43 44 53 76 112 153 186 204 210 205 190 165 132 101 78 70 76 96 125 153 172 177 170 153 131 113 104 107 121 142 162 176 182 181 174 165 157 153 155 163 173 183 190 193 193 188 181 170 157 141 125 111 103 102 110 125 142 157 164 162 148 128 106 91 87 96 116 142 169 191 205 213 217 218 216 214 210 205 196 182 162 136 107 
83 68 60 60 67 83 106 133 158 175 183 181 167 144 113 82 60 46 43 50 69 104 147 184 207 216 215 206 186 156 122 93 77 77 93 119 148 170 179 177 165 147 129 119 120 131 148 165 175 179 174 163 149 137 130 132 142 157 173 188 198 204 206 203 197 187 174 158 142 130 126 130 140 154 165 169 164 151 132 113 101 100 112 134 161 185 202 212 216 217 215 211 207 202 196 188 175 156 131 105 
90 78 73 74 84 101 126 153 176 192 200 199 189 168 138 103 74 54 46 49 65 97 140 180 206 218 221 215 200 174 139 106 84 79 89 112 140 164 177 179 170 156 141 131 130 138 152 165 172 172 164 148 129 113 104 104 113 131 152 174 191 203 209 211 209 202 192 178 163 151 144 146 154 164 171 174 169 156 138 121 110 110 122 144 167 187 200 206 207 204 199 193 186 180 174 168 159 145 127 107 
106 99 95 97 106 121 142 165 185 199 206 208 202 187 162 128 94 67 53 51 62 90 130 171 201 216 222 219 207 185 151 116 89 79 84 103 129 153 168 173 168 156 143 134 133 140 151 161 167 164 152 133 111 92 80 78 85 101 123 148 171 188 200 205 206 202 195 183 170 159 154 155 161 170 176 178 173 161 145 129 118 116 125 141 159 174 183 186 183 176 167 158 149 144 141 139 138 134 127 117 
131 128 125 125 129 138 151 167 182 195 204 208 207 199 180 152 117 85 64 55 61 82 118 158 191 210 218 218 208 188 156 120 91 77 79 93 115 137 153 160 157 148 137 129 129 135 145 155 159 156 142 122 98 78 66 61 64 75 93 116 140 161 176 186 190 189 183 174 164 155 152 155 163 172 178 180 176 166 152 135 122 117 119 128 139 148 151 150 143 133 122 112 105 102 104 110 119 128 133 133 
158 158 155 151 148 146 149 156 166 178 190 199 204 203 193 172 141 106 78 62 61 74 102 139 174 197 209 211 204 185 154 119 90 75 73 83 100 120 134 141 139 132 123 117 117 124 134 144 150 147 135 116 94 75 61 55 54 59 70 85 104 124 140 152 159 160 157 151 145 141 141 147 157 168 176 180 178 170 157 141 126 115 110 109 111 113 111 106 98 88 79 72 68 69 77 90 109 129 145 155 
182 182 178 169 157 144 135 132 137 148 164 180 193 199 198 185 161 127 95 71 62 67 86 117 150 177 193 198 192 174 146 113 87 72 69 76 89 104 116 121 120 113 106 102 103 110 120 132 139 140 132 117 99 81 67 58 54 53 57 65 76 88 101 112 119 123 123 121 119 119 123 133 145 158 169 176 176 172 161 147 130 115 102 93 87 82 76 70 63 56 50 47 47 52 63 83 110 138 161 175 
198 198 191 178 158 134 114 102 101 110 127 149 171 188 195 191 175 145 111 82 65 61 72 93 122 149 168 176 172 157 132 105 83 71 69 74 84 96 104 107 104 97 91 87 89 95 106 118 129 135 133 125 112 97 84 73 64 59 56 56 59 65 72 79 85 90 92 94 95 98 104 115 128 143 156 166 171 170 164 153 137 119 101 85 73 63 55 48 43 39 37 36 39 47 63 87 120 152 177 191 
207 205 197 180 153 121 93 75 69 74 89 113 142 169 187 191 182 159 126 93 69 59 61 74 95 118 137 148 147 136 117 97 81 74 73 79 88 96 101 101 96 88 81 78 78 84 94 107 121 132 138 137 131 122 110 98 87 76 67 60 57 56 58 61 66 70 74 77 80 84 89 97 109 123 137 150 160 166 166 160 148 131 110 89 71 56 46 39 35 33 32 35 40 52 71 100 135 167 189 202 
209 207 197 177 146 109 77 57 49 50 61 82 112 146 173 186 185 168 139 105 77 61 57 62 75 93 109 121 123 117 106 93 85 82 85 91 100 106 108 104 96 87 79 74 73 78 87 101 117 132 144 151 152 149 142 132 119 104 89 76 67 61 59 60 63 68 72 75 77 78 80 84 91 101 114 129 145 158 167 168 162 149 128 104 81 62 48 40 35 34 35 40 49 63 86 117 150 178 196 206 
205 202 192 171 139 101 69 48 39 38 44 61 88 124 158 179 185 175 151 120 90 69 59 59 66 78 91 102 107 106 102 97 95 97 103 112 119 124 123 116 105 92 82 76 74 78 86 100 118 136 152 163 170 173 170 164 153 137 120 103 89 79 75 74 77 82 86 88 86 82 78 75 76 81 91 107 126 147 165 175 177 169 153 130 104 80 61 50 44 43 45 52 64 82 106 134 160 182 195 203 
191 190 181 163 133 98 68 48 37 33 37 50 74 108 145 173 184 181 164 136 107 83 69 64 67 74 84 94 101 105 107 109 112 119 128 136 143 145 141 131 117 103 91 83 81 84 93 106 124 142 159 172 181 186 187 184 177 165 150 134 119 109 104 104 107 112 114 113 106 95 82 71 66 66 72 86 107 134 161 180 189 188 178 159 135 109 86 70 62 61 65 74 87 104 124 145 162 175 184 189 
167 169 166 154 131 102 74 54 41 36 37 47 68 101 139 169 185 187 176 154 127 103 85 76 75 80 88 97 106 114 120 127 134 143 152 160 164 163 157 145 129 113 101 93 92 96 106 119 135 152 166 178 186 190 192 191 187 179 169 158 148 142 140 142 146 150 151 146 133 113 90 71 59 55 57 69 90 121 155 181 197 202 198 185 166 143 120 103 92 90 95 104 116 128 139 147 152 156 160 163 
132 140 146 144 133 112 88 67 52 44 44 52 71 103 140 171 188 193 186 171 149 125 105 93 88 90 96 106 116 127 137 146 155 164 171 176 178 175 166 152 135 120 109 104 105 112 123 136 150 162 172 179 183 185 185 183 180 176 172 168 167 167 170 175 180 183 182 175 158 132 101 74 56 47 47 56 76 108 147 180 201 210 210 204 191 174 155 139 130 127 131 138 144 147 146 140 132 126 124 126 
96 110 126 137 138 128 109 88 70 59 56 63 82 113 148 176 193 199 195 184 166 144 123 108 100 99 105 115 127 140 152 163 172 179 184 186 184 177 165 150 133 119 111 111 117 128 142 155 165 173 177 177 175 170 165 161 158 156 158 162 170 179 188 196 202 205 203 196 178 148 110 76 54 43 41 47 65 96 137 175 200 213 216 213 205 193 180 169 162 160 163 166 165 159 145 126 107 93 87 88 
69 87 111 133 146 146 134 114 94 79 74 80 99 128 159 184 198 203 201 192 176 154 133 115 105 103 108 118 133 148 162 174 182 188 190 188 182 171 156 138 121 110 107 111 124 140 157 170 178 182 180 173 161 148 135 126 122 123 129 142 158 177 193 204 212 216 215 207 190 159 118 80 54 40 37 42 57 85 125 165 194 210 215 214 209 201 192 184 181 181 183 183 178 164 140 111 85 67 59 60 
54 74 103 134 155 163 156 139 118 100 92 97 115 143 170 191 202 206 203 193 177 154 131 111 100 97 102 114 131 149 166 179 187 191 191 186 175 159 139 119 104 96 96 106 124 146 166 180 188 188 181 167 147 124 104 91 85 86 95 112 137 164 187 204 215 219 219 212 196 166 124 83 55 40 35 39 51 75 111 151 182 199 207 206 202 195 189 185 185 188 191 191 183 165 134 99 70 51 43 44 
49 71 104 138 164 175 171 155 133 114 105 109 127 152 177 194 204 206 201 189 169 144 118 98 87 84 90 102 121 144 164 179 188 191 188 180 164 143 120 100 86 80 83 96 118 144 168 184 192 191 181 162 134 104 80 64 58 59 67 84 111 143 174 197 211 218 219 213 198 170 130 89 60 43 37 39 48 67 97 131 161 179 187 186 181 175 171 171 176 184 190 192 184 164 132 94 64 45 37 39 
54 78 112 146 171 181 176 159 137 117 107 111 128 153 177 194 202 203 196 180 156 126 99 80 70 68 74 88 108 133 157 175 185 188 184 172 153 128 104 84 72 68 72 86 109 137 163 182 192 191 181 159 127 94 67 51 44 43 50 64 88 120 155 183 201 211 213 209 197 172 137 99 69 52 44 44 50 64 85 111 133 148 153 151 146 140 139 144 155 170 183 188 184 166 134 97 66 47 40 42 
69 95 127 157 177 181 172 152 127 106 97 101 118 144 169 188 198 198 188 168 139 107 80 63 55 55 61 74 95 122 148 168 180 182 177 163 142 117 94 76 65 62 66 78 99 126 153 174 185 187 178 157 126 93 67 50 41 39 42 53 71 99 131 161 183 196 202 201 192 173 146 114 87 69 60 57 60 67 79 93 105 112 113 109 103 99 100 110 128 151 171 183 183 170 143 108 78 59 52 55 
95 120 148 170 181 178 162 136 109 88 80 84 101 127 156 178 190 191 179 156 124 91 66 52 46 46 53 66 86 112 139 160 171 173 167 153 133 112 92 77 69 65 68 76 92 113 137 158 172 177 171 156 130 102 76 59 49 44 45 50 62 82 107 134 156 172 181 185 182 172 155 134 113 98 88 83 80 80 81 83 84 82 78 73 68 66 69 81 103 131 159 177 183 175 154 126 99 80 74 79 
