P2
100 100
255
130 154 176 190 192 181 155 119 86 64 55 59 76 105 140 171 188 191 179 153 116 80 55 41 37 38 45 59 79 105 132 152 162 163 156 142 126 108 94 84 78 75 75 78 86 99 116 134 149 158 160 152 136 116 95 78 65 56 51 50 54 63 79 98 119 137 153 165 172 175 170 161 149 138 128 119 110 100 87 75 65 56 49 44 40 40 45 58 82 116 151 176 187 184 168 145 122 106 103 112 
166 182 195 200 194 175 141 101 68 49 42 46 61 88 125 159 181 187 177 152 117 83 59 46 43 45 53 66 84 105 124 137 142 140 133 124 116 111 108 107 106 103 99 94 91 92 97 106 118 130 140 145 144 138 127 114 101 88 76 66 60 59 63 71 83 98 114 132 150 165 176 180 179 175 170 162 150 132 109 85 64 49 39 33 31 31 37 50 73 107 143 170 183 184 175 160 146 138 139 150 
191 202 208 207 195 169 129 87 56 40 35 38 52 79 116 153 178 186 180 159 129 98 75 63 60 64 73 86 100 112 120 122 119 113 108 105 107 114 125 135 141 140 133 120 104 90 82 82 88 100 116 134 149 158 160 155 146 131 112 92 74 61 55 54 58 66 80 100 126 153 176 191 199 201 200 195 183 163 134 100 70 50 38 32 30 32 39 53 76 107 139 163 175 176 171 163 157 158 166 178 
204 213 215 211 195 165 121 78 50 36 32 36 51 78 116 153 179 190 186 172 148 123 104 93 92 98 107 117 124 126 120 110 98 88 83 85 96 116 140 161 173 175 167 149 123 96 75 65 65 74 93 120 149 172 185 189 184 172 151 123 93 69 53 45 43 47 57 76 106 142 174 196 209 215 216 213 204 185 155 117 82 57 43 37 37 41 51 67 89 115 138 154 160 158 154 150 152 161 176 191 
207 216 218 212 194 161 116 74 48 35 33 40 56 85 123 159 184 194 193 184 168 151 138 132 133 140 148 153 152 142 124 101 81 67 63 68 84 113 148 177 195 200 193 174 143 105 74 55 49 56 74 106 145 178 199 209 209 200 181 150 112 78 55 42 37 38 46 64 94 133 171 197 212 220 222 220 213 197 169 132 95 69 55 51 53 62 75 93 112 130 141 143 139 131 124 123 131 148 170 192 
203 215 218 211 192 158 113 73 49 39 39 48 68 99 136 168 188 197 196 190 180 171 166 166 170 177 182 183 176 157 127 94 68 53 48 54 73 106 149 185 206 214 209 192 160 117 77 51 41 44 61 94 138 178 205 218 220 214 197 167 126 86 58 43 36 36 44 61 91 130 168 195 211 219 221 220 213 199 175 142 110 86 75 75 83 97 113 130 143 148 145 132 115 99 90 90 101 124 154 183 
195 210 214 207 188 153 110 74 53 45 49 63 87 119 152 176 190 194 191 185 180 177 178 184 192 199 203 202 191 167 131 91 60 43 38 43 62 97 144 185 210 220 218 204 174 129 84 53 38 38 53 84 130 175 205 220 224 218 202 172 131 90 61 46 40 42 50 68 97 133 167 191 204 211 212 210 203 191 171 146 122 108 104 111 124 140 156 168 172 166 148 121 94 73 62 62 72 96 131 167 
183 202 208 201 180 146 106 75 58 56 65 85 112 141 165 180 184 181 174 167 164 166 174 186 198 208 213 211 199 174 134 90 56 38 32 36 53 88 136 181 209 222 222 211 185 142 94 58 40 37 50 79 124 170 202 217 221 215 197 167 127 90 65 53 50 55 66 85 111 141 166 183 191 194 193 189 182 171 156 141 131 128 135 148 164 179 190 196 193 179 150 113 78 55 44 43 52 73 108 149 
171 193 199 191 168 135 100 76 66 71 87 111 138 160 174 176 169 157 144 134 132 139 154 173 192 207 214 213 203 178 138 92 57 37 30 33 48 80 127 174 206 221 224 215 193 154 107 68 46 41 52 79 122 166 196 211 212 203 183 152 117 86 69 64 68 79 94 113 134 152 165 170 170 166 160 154 147 139 132 129 132 143 159 176 192 204 212 213 206 186 151 107 68 45 34 32 40 59 91 133 
161 183 188 177 153 121 93 77 76 89 112 138 161 174 175 164 145 124 105 95 93 102 122 149 176 197 209 212 204 182 144 99 63 41 32 34 47 76 121 168 201 218 223 217 199 166 122 82 58 51 60 86 124 163 189 199 197 183 160 130 101 82 76 81 95 113 132 147 159 165 163 154 142 129 119 111 106 103 105 112 127 149 173 193 208 217 222 221 212 189 150 102 63 40 29 28 35 52 83 124 
156 175 177 162 136 107 86 79 88 109 137 162 178 181 169 146 116 90 71 61 60 70 89 119 153 181 200 207 203 185 154 113 77 53 41 41 52 77 117 161 194 212 218 215 202 175 138 102 77 69 77 99 131 161 179 183 174 154 128 103 84 78 84 103 127 151 168 179 181 175 160 138 114 95 82 75 72 74 81 96 119 149 177 199 214 222 226 223 213 188 147 98 60 38 29 28 35 52 82 121 
157 171 166 146 118 93 80 82 100 129 159 180 189 182 160 126 91 63 47 40 40 48 64 92 127 161 186 199 200 189 166 133 100 75 61 58 66 86 118 155 184 202 209 209 199 180 152 123 102 94 100 118 141 160 168 162 145 121 97 78 70 75 94 124 156 181 196 201 197 183 158 126 94 71 59 53 53 58 67 85 111 143 174 198 213 222 225 222 210 185 143 94 58 38 30 31 40 59 90 127 
163 169 157 132 104 83 76 87 112 146 175 193 195 181 151 110 72 47 34 29 30 37 50 73 105 140 169 187 193 190 177 156 132 110 95 88 90 102 122 147 168 183 191 193 189 177 160 141 128 123 128 140 152 159 155 140 116 92 71 60 60 74 102 140 175 199 211 213 206 188 158 120 85 62 50 46 48 53 63 79 103 133 164 189 206 215 219 217 204 178 136 90 56 39 33 36 49 72 105 139 
171 169 150 121 92 76 75 92 124 160 188 201 198 179 143 98 61 39 29 26 28 34 46 64 90 121 149 170 182 186 184 175 163 149 137 128 122 122 127 135 145 154 161 165 166 164 158 152 148 148 152 158 161 157 143 120 94 71 56 50 55 73 106 148 185 207 217 217 209 190 159 121 87 65 55 52 54 59 67 78 96 120 147 171 190 202 208 206 194 167 127 86 56 41 38 45 62 90 125 155 
178 169 144 111 83 70 74 97 133 170 196 206 201 179 139 94 58 38 29 28 32 39 50 64 83 106 128 148 164 175 183 186 185 181 174 165 154 141 129 120 117 117 121 127 133 140 147 153 158 163 167 168 164 153 133 107 82 62 50 47 54 74 107 148 184 205 215 215 206 188 161 128 99 80 72 71 73 75 78 83 91 105 123 144 163 178 188 189 178 154 118 82 57 46 46 57 80 112 146 170 
182 166 136 101 76 66 73 99 138 176 200 209 202 180 140 95 61 42 36 38 44 53 63 74 85 96 109 122 138 154 171 186 196 200 198 191 176 154 127 104 88 81 82 87 97 112 129 145 159 168 172 170 162 147 126 101 79 63 54 52 59 76 105 141 173 193 202 203 196 181 161 137 118 106 102 102 103 101 96 90 87 89 98 111 129 146 159 165 159 140 111 82 62 54 58 74 101 135 164 182 
183 161 126 92 68 61 71 98 138 176 200 209 203 181 145 103 71 55 51 57 67 79 89 94 94 92 92 96 107 126 150 175 195 207 210 204 187 158 121 88 66 55 53 58 70 88 111 135 154 165 168 164 154 139 121 103 87 75 68 67 71 82 102 128 152 169 177 178 174 166 155 145 138 137 138 140 139 132 117 100 85 76 75 82 94 111 128 140 141 130 110 88 73 68 76 95 124 155 178 188 
180 153 116 82 61 56 66 92 130 169 194 204 200 182 151 116 89 77 78 89 104 117 124 121 109 93 79 74 79 95 123 156 186 205 212 208 189 156 112 75 51 40 38 42 54 73 99 127 147 158 158 152 141 129 119 110 104 99 95 93 92 95 102 112 123 133 138 141 141 142 144 149 156 164 171 174 171 158 135 107 82 66 59 61 69 85 104 122 131 130 118 104 93 91 100 120 146 171 187 191 
176 146 108 75 55 50 59 81 116 153 180 193 192 179 156 131 113 108 115 130 147 159 161 149 124 95 71 58 57 69 95 133 171 197 209 205 186 148 102 65 42 32 31 37 50 71 98 125 143 149 145 135 124 117 117 121 127 131 132 129 123 114 105 99 96 95 96 98 103 113 128 148 167 183 193 196 190 173 144 109 79 59 49 49 56 71 93 116 133 140 136 128 120 120 128 145 166 183 193 191 
174 143 105 72 52 46 52 69 96 129 156 172 176 170 157 144 137 140 152 169 183 191 187 169 136 96 65 47 42 50 73 110 153 186 202 200 178 139 93 57 37 30 31 39 56 80 109 133 145 144 132 116 106 104 114 131 149 163 169 167 156 137 114 92 76 66 63 65 72 88 113 144 173 193 204 206 198 178 144 105 73 53 44 44 52 69 95 124 146 158 159 155 150 149 155 167 181 192 197 192 
176 146 108 74 53 44 46 57 76 100 124 142 151 153 151 151 155 166 180 195 205 209 202 180 141 95 60 40 34 39 59 94 139 176 194 192 170 130 85 53 36 32 36 50 73 102 131 150 154 143 121 100 89 91 108 136 165 186 196 195 183 160 126 92 65 50 44 45 53 72 104 143 177 199 209 209 198 173 136 96 66 48 42 44 55 77 108 140 164 177 180 178 174 172 175 182 190 197 199 193 
182 155 119 84 60 47 44 48 59 75 92 108 121 131 141 152 165 181 196 208 216 217 207 182 140 92 56 36 30 35 53 87 131 169 188 186 163 122 80 52 39 39 49 71 101 134 159 171 166 146 115 88 74 78 99 134 172 198 211 212 202 178 140 96 62 43 35 35 45 66 101 144 180 202 210 206 190 161 121 83 58 45 42 48 64 91 126 158 181 192 194 191 186 182 183 187 194 200 201 197 
190 169 138 103 74 55 46 44 48 57 68 81 95 111 129 149 169 188 203 213 218 217 205 177 134 87 54 36 31 36 55 89 133 169 186 183 158 119 80 55 46 52 71 101 137 168 187 191 179 151 112 79 63 66 88 127 170 201 218 221 213 190 152 104 65 42 32 33 44 67 105 149 184 203 208 199 178 143 103 71 51 43 44 55 77 108 144 174 192 198 197 191 184 179 178 183 190 198 202 200 
199 185 160 128 96 70 54 47 46 49 56 67 81 99 122 147 170 189 203 212 215 211 197 168 126 83 54 39 37 46 67 103 143 175 189 183 157 119 83 62 58 71 99 136 171 196 208 207 190 156 111 73 54 55 75 114 160 197 218 224 218 199 162 113 70 44 34 35 48 74 114 157 188 203 202 189 161 123 86 60 46 43 49 65 92 126 159 183 194 195 188 178 167 160 159 166 177 189 199 203 
204 198 182 156 124 93 70 57 51 51 56 65 80 100 123 148 170 187 199 205 206 199 182 153 115 80 57 48 51 65 91 126 162 186 194 184 158 121 88 71 73 94 130 168 198 215 221 216 197 160 111 69 48 46 62 98 146 188 213 223 220 204 170 122 77 50 39 41 56 85 126 165 191 200 194 174 141 103 72 53 45 47 59 80 110 142 168 183 186 178 165 149 134 126 126 136 152 172 190 201 
204 205 197 179 152 121 93 75 65 63 68 78 93 113 134 154 171 182 188 190 187 177 159 133 103 79 66 65 75 95 124 156 182 197 199 185 157 121 91 79 88 116 155 190 214 226 229 222 202 163 111 67 43 38 50 81 127 174 205 219 219 206 175 130 86 57 46 49 66 98 137 172 191 194 182 156 122 87 63 51 50 58 75 100 129 155 171 175 167 150 129 109 94 86 88 99 119 146 173 193 
197 206 205 194 173 147 120 100 89 88 94 105 120 136 152 163 171 173 171 166 158 145 129 110 92 81 81 91 109 134 160 184 200 206 201 183 152 117 90 83 96 128 169 202 222 231 232 224 204 164 111 65 40 33 41 65 107 156 193 212 216 205 178 137 94 65 55 59 78 110 146 174 187 184 167 138 105 78 61 57 62 76 98 124 148 165 169 160 140 115 91 72 59 54 56 66 85 114 148 177 
183 199 203 198 184 164 143 126 119 120 128 140 153 164 171 173 168 159 146 133 120 108 96 86 82 86 99 120 145 170 190 204 211 211 200 176 142 106 83 79 95 129 170 203 223 231 232 225 204 165 112 65 39 30 34 53 89 137 178 203 210 202 178 141 101 74 64 69 89 119 150 171 177 169 149 121 94 75 68 72 85 105 129 151 168 173 165 144 115 85 61 46 37 34 35 43 59 84 119 154 
160 182 192 191 182 168 154 145 144 150 161 173 182 187 187 179 164 142 119 99 84 74 68 68 74 90 117 147 175 195 209 216 217 210 192 162 125 91 71 69 84 117 159 194 216 227 229 222 203 165 113 67 39 29 31 46 76 120 163 192 202 196 175 142 106 81 72 79 97 123 147 162 163 151 131 108 91 83 85 98 117 139 161 177 184 180 163 132 96 65 44 32 26 24 25 30 41 61 91 127 
134 158 171 173 167 158 151 150 156 169 183 194 201 202 197 182 157 125 94 72 58 51 50 55 69 94 130 166 193 210 219 221 216 203 179 143 104 73 57 56 69 97 136 174 201 217 222 217 199 164 115 70 43 31 31 43 70 109 151 181 193 188 169 139 108 86 79 85 101 122 139 148 145 133 117 103 96 99 112 130 152 172 187 196 196 186 163 128 89 57 38 27 22 20 21 25 33 47 70 101 
110 131 142 144 140 134 133 139 154 173 191 204 210 210 201 181 149 110 76 54 42 37 39 47 65 97 139 177 203 217 222 220 211 191 159 119 82 57 45 43 53 74 107 144 176 197 207 206 192 161 118 78 51 39 38 49 72 108 146 173 184 179 160 133 106 88 82 88 101 116 128 132 128 119 110 106 111 123 142 163 181 196 205 208 204 192 168 132 93 61 41 30 25 23 23 25 31 42 59 83 
96 109 115 113 108 104 106 117 138 163 186 203 211 210 199 176 140 98 65 44 34 31 33 43 64 99 143 182 207 218 221 215 200 174 136 96 64 45 36 35 41 55 78 109 141 168 184 189 180 157 124 90 66 54 54 64 86 117 148 170 177 169 150 124 101 86 83 88 98 110 118 120 117 113 112 118 131 149 169 187 200 209 213 213 208 196 175 144 108 78 57 44 37 34 33 34 39 47 60 78 
97 101 98 91 82 77 80 92 114 143 171 191 202 203 192 168 131 91 60 41 32 30 33 44 66 103 147 184 206 216 215 205 184 151 111 75 51 37 31 30 33 42 57 78 105 131 152 163 163 151 130 107 90 81 83 93 113 137 159 172 172 160 139 114 94 83 81 86 95 104 111 113 113 115 122 134 152 171 188 201 208 212 213 210 205 195 180 158 132 107 87 73 64 58 56 57 60 67 76 87 
114 109 97 82 69 61 61 70 88 115 144 169 184 187 179 156 123 88 60 44 36 34 38 50 74 110 152 185 203 209 205 189 162 125 88 60 42 33 30 30 32 37 46 60 78 99 119 135 143 143 137 128 120 118 122 132 147 162 174 177 170 153 129 104 87 79 79 85 93 102 109 113 117 124 136 151 169 185 197 204 206 205 202 197 192 187 180 170 157 142 129 117 108 102 98 97 98 103 108 113 
141 129 110 88 69 57 52 56 68 88 113 137 154 162 158 143 118 91 69 55 48 47 53 66 90 123 158 184 197 198 188 167 135 100 70 50 39 35 34 36 38 42 47 54 65 78 94 109 122 133 140 145 149 155 161 169 178 185 187 182 168 146 120 96 81 75 77 85 95 104 112 119 127 136 150 165 179 189 195 196 192 185 177 170 166 166 169 173 175 174 170 165 159 154 150 147 147 148 149 147 
169 154 132 106 82 64 54 51 56 67 84 103 119 131 134 129 117 102 88 78 73 74 80 93 115 142 167 183 188 182 165 139 107 78 57 45 41 42 46 51 56 59 62 65 68 73 81 91 105 121 138 154 168 179 188 194 198 199 196 185 166 140 112 90 78 75 79 88 99 110 120 128 137 147 159 170 179 183 181 174 162 148 136 128 126 133 147 165 181 193 198 199 198 195 191 188 186 184 182 178 
188 175 156 131 104 81 65 55 52 55 63 75 88 101 112 119 122 121 118 115 113 114 120 130 145 161 174 179 174 160 137 109 82 62 50 47 50 58 69 80 89 93 94 91 87 82 80 83 92 108 130 153 174 190 200 206 208 205 198 183 161 133 107 88 78 78 85 96 108 119 129 137 144 152 160 167 169 165 155 140 121 103 90 82 83 95 117 148 177 199 211 217 218 216 214 210 207 204 200 196 
195 188 176 157 133 109 86 69 58 52 53 58 67 80 97 115 132 145 152 155 157 158 161 166 172 176 177 170 155 134 108 83 64 52 49 54 66 84 105 123 135 141 139 131 118 102 89 81 83 95 115 141 167 186 199 205 206 202 192 175 151 125 103 89 84 88 97 109 121 130 137 141 145 149 152 152 147 137 121 101 82 65 54 49 51 64 89 126 165 196 214 222 225 223 220 215 210 205 202 199 
189 190 187 178 162 141 116 92 72 58 51 50 55 68 89 117 145 167 181 188 191 191 191 190 188 183 173 157 134 108 83 64 52 49 53 67 90 118 146 167 180 184 182 171 152 128 103 85 78 82 98 122 149 171 186 193 193 188 176 158 137 116 101 95 96 104 115 127 136 141 142 141 139 137 134 129 120 106 88 70 54 42 34 31 33 44 68 105 150 187 209 219 222 219 212 204 197 190 187 187 
170 181 189 191 185 171 150 123 95 72 57 50 52 64 88 121 156 183 199 207 210 209 207 202 194 182 164 140 113 87 67 53 48 51 63 86 118 152 180 199 209 212 209 198 178 149 117 90 75 73 83 102 125 147 162 168 168 161 149 133 118 107 102 105 114 127 139 148 152 151 144 135 127 119 112 104 94 81 66 52 40 31 26 24 26 35 55 90 135 174 199 209 209 202 191 177 165 157 155 160 
140 163 183 195 199 193 178 154 124 93 70 57 55 66 90 126 164 192 208 216 217 215 210 201 189 172 149 122 96 74 59 51 51 59 78 108 145 179 202 217 224 225 221 211 192 162 126 95 75 69 74 87 104 120 131 135 132 125 115 105 98 98 106 120 137 152 163 168 167 158 143 126 111 99 91 84 76 67 56 46 37 30 26 24 26 34 52 82 122 159 182 189 185 172 153 134 119 110 111 121 
108 141 172 195 206 207 198 180 152 118 88 69 63 71 95 131 167 195 210 216 215 211 202 190 174 154 131 107 86 70 60 57 61 75 99 132 167 196 214 224 228 228 223 213 194 165 130 99 79 72 74 82 93 101 104 102 97 89 83 79 82 93 112 136 159 175 184 185 178 162 139 115 96 83 76 72 69 64 58 51 44 38 34 32 34 42 58 83 116 145 160 161 149 130 108 88 74 68 70 83 
83 120 160 191 208 214 210 197 174 143 109 84 74 79 99 132 165 190 203 207 205 196 184 169 151 132 115 99 86 77 73 74 82 99 124 155 184 205 218 224 226 223 217 205 185 158 128 103 89 84 87 92 96 96 90 81 72 64 60 61 70 90 119 151 177 193 199 197 185 164 134 105 83 71 68 69 72 74 74 71 65 59 54 52 54 61 75 95 117 134 139 130 112 90 70 54 45 41 45 58 
69 106 150 185 207 216 216 207 189 162 129 101 86 86 101 127 156 177 187 188 182 170 154 138 123 111 103 99 97 96 98 103 113 129 150 173 193 207 215 218 216 210 200 185 165 143 122 109 105 107 113 117 116 107 91 73 59 50 46 50 63 89 125 163 190 205 209 204 189 163 129 96 75 65 66 74 86 97 104 105 102 96 91 88 89 94 105 117 128 130 122 104 83 62 47 36 30 29 33 45 
63 99 142 179 202 214 216 210 196 173 143 114 96 91 100 118 138 153 160 157 147 133 118 105 98 97 101 109 118 125 132 138 147 158 171 185 196 203 206 203 197 186 171 153 135 121 113 115 125 138 148 152 147 130 104 77 56 44 39 44 59 89 130 171 198 212 215 208 190 161 123 90 70 64 71 87 108 128 142 148 148 144 139 135 135 137 141 145 143 133 113 89 66 48 37 30 27 27 31 42 
66 97 135 170 194 207 210 207 195 176 149 122 101 92 94 103 115 123 124 118 108 95 85 80 82 92 108 127 144 156 164 169 174 178 183 188 191 192 187 179 165 148 130 113 101 97 104 123 146 167 181 185 178 158 125 88 59 42 37 41 57 88 133 175 203 215 217 209 189 156 117 85 68 67 80 104 133 159 176 184 186 184 180 177 175 174 173 168 158 138 111 82 60 45 36 31 30 32 36 46 
74 98 129 158 179 192 196 194 186 169 147 122 102 91 87 89 92 93 91 84 76 68 64 66 77 97 123 149 169 181 187 189 188 186 184 181 177 170 160 144 126 106 89 76 72 78 97 129 163 190 205 209 202 182 146 103 66 44 36 39 55 88 134 177 204 216 216 206 184 150 111 82 68 72 91 122 155 181 197 205 207 206 203 200 197 194 190 182 166 142 112 84 62 49 43 41 42 44 50 59 
88 103 121 140 156 166 172 172 166 154 137 117 100 88 81 77 75 72 68 62 57 54 56 65 84 111 142 169 187 196 198 195 188 180 171 163 153 141 126 108 89 72 59 52 53 65 93 134 175 204 219 223 217 199 164 117 74 47 36 39 55 88 134 176 203 214 213 201 177 142 105 80 71 80 104 137 170 193 206 211 212 210 207 204 202 198 193 184 168 144 116 91 72 63 60 61 64 68 73 79 
107 107 111 117 125 132 137 140 139 133 124 111 98 87 78 71 66 61 57 52 50 51 59 74 99 130 161 184 196 200 196 187 175 161 147 135 124 112 98 82 66 53 43 40 43 59 90 136 181 211 226 230 225 209 175 127 81 51 38 40 56 89 134 175 200 209 206 191 165 131 99 80 77 90 117 149 177 195 204 206 204 200 196 193 191 188 184 177 163 144 122 103 91 86 88 93 100 105 107 108 
125 111 100 95 94 96 101 106 111 114 113 108 100 91 82 73 66 60 55 52 53 58 71 92 120 151 176 192 197 194 183 166 148 130 115 105 97 90 81 70 58 47 39 36 40 55 87 135 181 212 228 232 228 212 181 134 86 55 42 44 61 94 136 173 195 201 194 176 149 118 93 82 86 103 130 158 179 189 192 188 181 174 169 166 165 166 165 162 154 143 130 120 116 118 125 134 142 147 145 138 
139 113 91 76 70 69 74 82 93 104 111 113 110 103 94 84 75 68 63 62 65 74 91 115 143 169 186 193 190 178 158 135 113 96 85 80 79 80 78 73 63 52 43 39 41 54 83 128 175 207 224 230 226 210 180 135 90 60 49 53 72 104 142 172 188 189 178 156 130 105 90 88 99 119 144 164 176 177 170 158 145 135 129 128 130 136 141 145 145 142 139 138 142 150 161 171 179 181 176 162 
147 112 83 64 55 55 60 72 88 106 120 128 129 125 116 104 94 85 80 80 85 98 117 140 163 181 190 188 176 154 127 100 80 67 63 66 74 84 91 91 83 70 57 47 45 54 77 117 161 195 214 221 217 202 172 131 92 67 60 68 89 120 151 173 180 173 156 132 109 93 89 97 115 138 158 169 170 160 142 122 105 94 89 91 97 108 120 131 139 144 148 154 163 174 185 195 201 201 193 175 
148 109 77 57 49 50 59 75 97 120 139 151 154 151 143 132 120 111 105 105 111 124 142 161 178 187 188 178 156 127 96 71 56 50 51 61 79 100 116 122 116 100 80 62 53 55 70 101 139 173 195 203 199 184 156 122 92 77 77 91 114 142 163 174 170 155 131 108 91 85 92 110 134 157 171 174 164 143 116 91 74 64 62 67 77 92 109 125 137 147 156 165 176 187 198 206 211 209 200 180 
144 104 73 55 49 53 67 89 116 143 163 174 178 176 169 158 147 137 131 130 135 146 160 174 185 188 182 165 137 103 73 53 43 41 48 65 92 123 148 159 155 137 111 84 65 58 64 83 112 142 163 172 169 154 132 108 92 88 99 119 143 164 176 174 159 135 108 87 77 81 98 125 153 174 183 179 161 132 99 72 56 50 51 59 72 90 109 126 140 150 159 169 180 192 202 209 213 211 201 179 
138 99 70 55 53 62 82 111 142 168 185 193 196 193 186 177 166 156 149 146 150 158 169 179 185 185 175 154 122 88 61 44 37 39 50 74 110 148 177 190 188 172 143 110 81 64 60 69 86 107 123 131 128 118 104 93 91 101 122 148 170 183 185 172 148 116 89 72 69 80 106 139 169 188 193 184 161 126 91 65 51 48 52 62 78 97 116 131 141 148 155 164 175 188 199 207 211 208 197 174 
130 94 68 58 60 75 102 135 166 188 201 206 206 202 194 184 172 161 152 148 150 156 165 174 180 179 169 147 116 84 59 44 38 42 57 86 127 168 196 209 208 195 170 135 99 74 62 61 69 79 89 93 91 85 80 80 90 113 142 170 188 195 188 167 135 100 73 61 63 81 113 151 181 198 200 188 163 126 91 66 54 53 60 73 90 107 122 132 137 139 142 149 162 177 191 202 206 203 191 166 
120 87 66 60 67 88 121 156 185 202 211 212 209 202 192 179 164 151 140 135 136 142 152 163 171 174 166 148 120 90 65 50 44 49 65 97 140 180 206 218 218 208 187 154 118 88 69 62 63 66 69 69 67 64 64 72 91 121 156 183 198 199 186 157 120 84 62 54 60 82 118 158 188 202 203 190 164 129 95 73 63 64 73 87 102 115 124 126 123 119 119 126 141 161 180 193 200 197 182 156 
109 80 63 61 72 97 134 170 196 210 215 213 206 195 180 161 143 127 116 110 111 119 132 148 162 170 168 156 134 106 81 63 55 58 74 106 147 185 208 219 220 212 195 168 135 105 85 74 70 69 67 63 59 56 58 69 92 127 163 189 200 196 177 143 103 71 53 48 57 82 119 159 188 202 201 188 164 131 102 83 76 79 88 100 110 116 116 110 102 94 93 100 117 142 167 185 193 189 173 144 
98 72 58 58 72 100 138 175 199 211 214 209 197 180 157 133 113 97 87 83 86 95 112 134 155 169 175 169 154 130 103 82 69 68 81 109 147 181 203 213 215 209 195 174 148 124 107 97 92 87 81 73 64 58 59 70 95 130 164 187 195 187 162 125 86 59 45 44 55 80 116 155 183 195 194 180 158 130 106 93 90 94 102 109 112 109 101 90 79 71 70 78 98 127 157 178 187 182 163 132 
86 63 52 53 67 95 134 171 196 208 209 200 182 157 128 102 82 69 62 61 66 78 98 125 152 172 183 183 174 154 128 102 84 77 85 107 137 168 189 200 202 198 187 173 157 143 133 128 125 119 110 96 82 71 68 77 99 131 162 182 186 173 144 106 72 50 41 42 54 77 110 145 170 180 178 164 144 123 108 101 103 108 113 114 108 98 84 70 60 54 55 66 89 121 154 176 184 177 154 120 
76 55 46 47 59 85 122 160 188 200 200 187 163 131 99 74 58 50 46 48 54 69 93 124 155 179 192 195 189 173 148 119 95 83 84 98 121 146 165 177 180 178 172 165 159 156 157 159 160 156 145 128 108 91 83 88 106 133 159 174 174 158 127 91 62 45 39 42 54 75 104 132 151 158 153 140 125 112 106 107 114 120 122 116 103 86 70 56 48 45 50 65 92 127 159 180 185 174 147 110 
68 48 39 40 51 73 107 146 176 190 189 173 144 108 77 55 44 39 38 41 51 68 96 131 163 186 199 203 198 183 158 128 100 83 78 85 100 119 135 146 150 151 150 150 155 163 172 181 186 185 176 159 136 115 102 101 114 136 157 168 166 148 118 85 60 47 44 48 60 78 100 119 130 131 123 112 103 99 102 112 124 132 131 119 101 80 62 50 44 46 56 77 108 144 173 189 189 174 142 102 
62 43 34 35 43 62 93 131 164 180 179 160 128 92 63 45 36 33 35 41 54 76 107 143 174 194 204 206 200 184 157 126 97 78 71 73 82 95 107 116 120 123 126 133 146 163 179 192 200 201 194 179 157 134 118 114 124 141 158 167 163 146 119 90 69 59 57 63 75 89 104 112 113 106 96 87 83 87 100 118 135 144 142 127 105 82 63 53 51 58 75 102 135 167 189 199 195 175 138 96 
58 39 31 31 38 55 84 122 155 173 172 153 120 84 57 41 34 33 36 46 63 90 124 159 185 200 206 204 194 175 146 115 88 71 64 65 72 81 90 97 101 103 109 120 137 158 179 194 203 204 198 184 164 142 127 124 132 148 163 171 168 154 133 109 92 84 84 91 101 111 116 114 103 89 77 69 70 81 101 126 147 158 156 141 118 94 77 68 71 83 106 135 166 190 205 208 200 176 136 92 
55 37 30 31 38 55 83 121 154 172 172 154 122 86 59 43 36 36 42 56 78 110 145 175 194 203 204 197 181 157 127 98 77 65 62 65 73 82 90 95 97 99 103 114 131 152 172 187 195 196 189 175 156 137 126 126 138 155 170 179 178 170 155 139 126 121 123 130 137 141 137 124 103 82 67 61 65 81 106 136 160 172 171 159 138 117 101 96 102 119 143 170 192 208 216 215 203 176 133 88 
55 38 32 34 43 62 92 129 160 178 178 162 131 96 67 50 43 44 53 72 99 133 165 188 200 203 197 183 160 132 104 81 67 62 65 74 85 97 106 110 110 109 110 117 129 145 161 172 178 176 167 152 135 121 115 122 139 160 177 188 190 186 178 169 163 161 164 169 172 171 160 138 110 83 66 60 67 87 117 149 173 185 185 176 160 143 131 130 138 156 176 195 210 219 221 217 202 172 129 85 
56 43 39 43 56 78 110 145 173 187 187 173 146 113 83 64 56 59 71 94 124 156 181 196 202 197 184 162 134 105 81 67 61 64 75 92 110 125 135 138 136 131 127 126 130 137 145 150 150 144 133 119 105 97 99 113 136 162 182 195 199 199 195 191 189 190 193 196 197 192 179 154 122 91 72 66 76 98 130 162 184 194 195 188 176 163 156 157 166 181 196 209 218 222 221 213 196 165 123 83 
61 52 53 62 79 105 136 165 187 197 197 185 163 133 104 84 76 81 96 121 150 176 193 201 199 187 165 136 106 80 64 57 60 71 92 117 140 157 167 168 164 156 146 138 133 130 128 125 119 109 97 86 77 75 83 101 130 160 183 197 203 204 203 202 202 204 207 209 209 204 190 166 134 103 84 80 91 115 146 174 191 199 198 191 180 171 166 168 177 189 201 210 215 215 212 201 181 151 114 82 
71 70 77 92 113 138 164 185 199 205 203 194 176 151 126 108 101 108 125 148 172 190 200 201 192 172 143 110 81 62 52 52 62 82 112 144 169 185 192 191 185 175 161 147 134 122 112 102 92 81 70 62 57 59 69 90 121 154 179 194 200 201 200 199 200 203 207 210 210 205 193 172 144 117 101 99 112 135 162 182 194 197 192 183 171 161 157 159 168 178 188 195 198 197 190 178 158 131 103 82 
86 95 110 130 150 170 187 199 206 208 205 197 182 163 143 129 125 133 149 169 187 199 203 198 183 155 120 87 62 49 45 51 67 95 131 166 190 203 207 204 197 184 168 150 131 115 100 86 74 64 55 49 47 50 61 81 111 143 168 182 187 187 184 183 184 188 193 197 199 196 187 170 149 130 120 122 135 155 174 187 191 187 177 162 147 136 130 132 140 149 158 164 166 162 155 142 125 108 93 85 
104 124 145 164 181 193 202 207 208 207 202 193 180 164 149 140 139 149 165 182 195 203 203 193 172 139 101 70 50 41 41 50 71 105 145 180 202 212 213 208 199 184 166 145 125 107 92 78 67 57 49 45 43 47 57 75 101 129 150 161 162 158 153 149 150 155 162 169 173 173 168 159 147 138 136 142 155 170 181 185 181 168 150 130 113 101 95 96 101 109 116 120 121 117 111 102 93 86 85 91 
122 148 170 187 198 204 206 206 203 198 191 180 168 154 142 137 140 152 168 184 196 202 200 188 163 126 88 59 43 37 39 50 73 110 153 187 207 214 213 206 193 175 153 132 113 99 87 77 68 59 52 47 46 49 58 74 94 115 129 134 129 120 111 106 105 110 117 126 133 138 139 138 137 140 147 158 170 179 182 177 163 142 118 96 79 69 64 65 68 73 78 80 80 78 75 71 70 73 82 99 
135 162 183 196 202 203 201 197 190 181 171 158 145 132 124 121 127 141 159 177 191 198 196 183 157 120 82 55 40 35 38 49 73 110 153 187 206 212 209 198 180 157 133 113 99 91 86 81 76 70 63 58 56 59 66 79 94 107 112 109 98 85 75 68 66 69 75 83 91 98 104 112 122 135 151 167 178 182 178 164 141 113 87 68 55 48 46 47 49 53 56 58 58 57 56 57 60 69 84 107 
141 164 181 190 192 190 185 177 167 156 143 129 116 105 99 98 105 119 139 160 178 189 191 181 157 121 84 56 41 35 37 47 69 105 148 182 201 206 201 186 163 135 111 94 86 85 88 91 92 89 83 78 75 77 82 92 102 107 105 95 80 65 53 46 43 44 48 53 59 67 76 88 106 128 151 170 180 180 169 147 118 88 65 50 42 39 39 41 45 49 52 55 55 55 56 58 63 74 91 114 
138 154 165 169 169 164 157 148 138 127 115 102 91 81 76 75 80 93 112 136 160 178 185 181 162 131 95 65 46 38 37 45 65 97 138 173 193 199 192 173 145 114 90 78 76 83 94 106 114 116 113 108 104 104 107 114 119 119 111 96 77 60 46 38 34 34 35 38 42 48 57 72 94 121 149 170 179 175 158 130 98 71 52 42 38 39 43 49 56 62 68 71 73 73 74 75 80 88 101 119 
127 133 136 136 133 128 122 117 110 103 95 85 75 67 60 58 61 69 85 109 137 163 180 183 172 148 115 83 59 45 40 45 60 88 125 161 184 191 183 162 131 100 77 68 71 84 103 123 138 145 145 141 137 135 137 140 142 139 129 112 90 70 54 44 37 34 33 34 36 41 49 64 87 117 147 167 175 167 146 115 84 60 47 42 43 49 59 71 84 94 102 107 109 110 109 108 108 110 114 120 
112 107 103 99 96 93 93 93 94 94 90 83 73 63 54 49 48 52 64 85 115 148 174 186 185 169 142 109 79 58 47 46 56 79 113 149 175 184 178 157 126 94 73 66 71 88 113 139 159 169 171 168 164 161 161 163 164 162 153 138 118 97 78 64 53 46 42 39 39 41 49 63 86 116 146 165 170 159 135 104 76 57 49 50 58 72 90 109 127 140 149 154 156 155 152 148 142 134 126 118 
96 83 75 70 68 70 76 85 94 101 102 96 84 70 56 47 42 42 50 67 96 133 168 189 196 189 170 140 107 78 59 51 56 73 103 139 167 180 177 159 130 100 78 71 77 97 125 153 173 184 187 184 179 175 174 175 178 178 175 166 152 135 117 100 85 73 62 55 51 50 56 70 92 121 148 164 166 153 128 98 74 60 58 66 83 106 131 154 171 183 190 193 193 191 187 180 169 154 135 114 
84 67 57 53 55 61 74 91 109 123 128 123 108 88 67 51 41 38 41 55 82 121 162 191 205 205 194 171 139 105 77 61 59 70 96 130 161 178 179 166 141 113 92 83 89 108 136 163 182 191 192 188 182 176 173 175 180 185 188 188 182 173 160 146 130 114 98 84 74 69 72 84 105 131 153 166 165 150 125 98 77 69 73 89 115 144 170 190 203 211 214 215 214 211 206 198 185 164 137 109 
77 60 51 48 53 64 83 109 134 153 161 156 141 115 87 62 45 37 38 48 72 111 156 191 210 216 211 195 169 135 100 75 65 71 91 123 155 177 183 175 156 132 111 101 105 122 146 169 185 192 190 183 173 164 159 161 169 180 190 197 200 199 194 185 174 159 141 123 108 98 97 106 123 144 161 170 166 151 127 102 86 82 92 115 145 174 197 211 219 223 223 222 220 216 211 202 187 165 135 104 
77 61 53 53 61 77 102 132 161 180 189 186 172 147 113 80 55 41 37 44 65 103 150 189 212 222 221 212 192 161 123 91 73 72 88 117 149 174 185 183 169 149 130 119 121 135 154 173 185 188 182 170 154 140 133 134 145 161 179 194 205 210 211 209 202 192 177 160 143 131 126 131 143 159 171 175 170 155 133 111 97 96 110 135 165 191 208 218 222 223 221 218 213 208 202 193 180 159 131 102 
86 72 66 68 77 96 124 154 181 198 207 206 196 174 142 104 71 50 41 44 61 95 141 184 211 223 226 221 206 180 143 106 81 74 84 109 140 167 182 184 176 160 144 133 133 143 159 173 181 180 170 152 130 112 101 101 112 131 155 178 196 208 215 216 214 208 197 183 168 156 150 152 160 171 179 181 175 161 141 120 108 107 121 144 171 192 206 212 213 210 205 199 192 186 180 173 163 148 127 105 
105 95 91 93 102 119 143 169 191 206 214 215 209 194 167 131 93 64 48 45 57 87 130 175 205 222 227 225 214 191 156 117 87 74 79 99 127 155 173 179 174 161 147 137 136 144 157 169 174 170 156 133 108 86 74 72 80 98 122 150 174 193 205 211 212 208 201 190 178 168 162 164 170 178 184 186 180 167 149 130 116 113 122 140 161 177 187 190 188 181 172 163 154 148 145 143 141 137 128 116 
133 128 125 124 128 138 153 171 188 202 211 216 215 206 187 156 117 82 58 50 55 78 116 160 195 215 224 224 215 195 162 122 89 73 73 88 112 137 156 164 162 152 140 131 130 137 149 159 164 159 143 119 92 71 58 54 58 70 89 114 140 163 180 190 194 194 189 181 172 164 161 164 171 180 186 188 184 173 157 138 122 114 115 124 136 146 151 151 145 135 124 114 106 103 105 111 121 130 136 136 
163 162 158 153 149 148 151 160 171 185 197 206 211 210 199 176 141 103 73 56 55 69 100 140 178 203 215 218 211 191 159 120 87 69 67 77 96 117 135 144 142 134 124 117 116 123 134 145 151 148 133 111 87 66 53 47 47 52 64 81 101 122 140 153 161 164 161 156 150 147 148 154 164 175 183 187 185 177 163 145 127 112 105 103 105 107 106 102 95 86 77 70 66 67 74 89 110 132 149 159 
188 188 183 174 160 146 136 134 140 153 169 186 199 206 203 189 162 125 89 64 55 61 82 116 152 182 199 205 199 180 149 112 82 66 62 69 83 100 114 121 120 113 104 98 98 105 117 129 138 138 129 112 91 73 59 50 46 46 50 59 70 84 97 109 118 122 123 122 120 121 125 135 148 162 174 181 183 179 168 152 132 113 97 86 78 73 69 64 58 51 46 43 42 47 59 80 109 141 166 181 
205 205 198 183 161 135 113 101 101 111 129 153 176 193 200 195 176 144 106 75 58 55 67 91 122 152 173 182 178 162 134 102 77 64 61 66 77 90 100 104 102 94 86 81 82 88 99 113 126 132 131 121 107 91 76 65 57 51 49 50 53 59 66 74 80 85 88 90 91 94 101 111 126 142 157 169 176 178 172 160 141 119 97 78 64 54 47 41 37 33 31 31 33 41 57 83 119 155 182 198 
214 212 203 185 156 121 90 72 66 72 88 114 144 172 190 195 184 159 122 87 63 53 56 70 93 119 140 152 151 138 117 93 75 66 65 71 81 91 97 97 92 84 75 70 70 75 86 101 117 131 138 137 130 119 106 93 80 69 59 53 50 50 52 55 60 64 68 71 73 76 81 89 102 117 134 151 164 173 174 168 154 133 108 83 63 49 39 33 29 27 27 28 34 45 65 96 135 170 195 209 
216 214 203 182 148 107 73 52 44 46 57 79 112 147 176 190 188 170 138 102 73 56 52 58 72 91 109 121 124 117 103 89 78 75 77 85 94 102 105 102 93 82 72 66 65 69 79 95 114 133 148 155 156 151 142 130 114 98 83 70 60 55 53 55 58 62 66 68 69 69 70 73 81 92 108 127 147 164 174 177 170 153 129 101 75 55 42 33 29 28 29 33 41 56 79 113 150 182 202 213 
212 209 198 176 140 98 64 43 33 32 39 56 85 124 160 183 190 179 154 120 87 65 55 54 61 74 87 99 105 104 99 93 90 92 99 108 117 123 122 115 102 88 76 68 66 69 79 96 118 140 158 171 177 178 174 165 151 134 116 98 84 75 71 72 75 78 81 81 78 73 67 64 65 71 83 102 126 151 172 184 185 175 156 130 101 75 56 44 38 36 38 45 56 73 98 130 161 186 201 210 
199 197 187 167 134 95 62 42 31 28 32 45 70 107 148 178 191 187 169 140 107 81 65 59 61 68 79 89 98 103 106 107 111 118 127 137 145 148 144 133 116 98 84 75 73 77 88 105 127 150 169 182 190 193 193 188 178 165 149 132 119 109 105 106 109 112 114 110 100 86 72 61 56 56 64 80 105 137 167 188 197 195 183 163 135 107 83 66 57 55 58 66 79 96 118 142 163 179 190 196 
173 175 170 156 131 98 68 47 35 30 32 42 64 100 142 176 193 195 184 161 132 103 82 70 68 72 80 91 102 113 121 129 138 147 157 165 170 170 162 148 129 110 94 86 85 91 103 121 142 161 177 188 195 198 198 195 189 181 170 160 152 147 146 148 152 155 154 147 130 107 82 62 50 46 50 63 87 122 160 188 204 209 204 191 170 145 121 102 90 87 90 98 109 122 134 144 153 159 164 169 
135 143 148 145 131 108 82 60 45 38 38 46 68 103 144 178 197 202 196 180 155 127 103 86 79 80 87 99 114 128 141 153 163 172 179 185 186 182 172 156 136 116 103 97 99 109 124 142 159 173 184 190 192 192 190 187 182 178 174 172 172 175 179 184 188 191 189 180 160 129 95 66 48 40 41 50 72 108 150 186 207 216 216 209 197 179 160 143 132 128 131 136 142 144 143 137 131 127 125 128 
95 110 125 136 136 124 104 81 63 52 49 57 79 114 153 184 202 208 205 193 173 147 121 101 90 89 95 108 125 143 159 172 182 189 193 195 193 185 171 153 132 115 105 104 113 127 145 162 175 184 188 188 183 176 168 162 158 157 160 166 176 187 197 204 210 212 210 202 182 148 107 71 48 37 35 42 61 94 139 179 206 218 222 219 211 200 187 176 168 166 167 169 167 159 143 123 104 91 85 86 
65 84 108 131 145 144 130 108 87 71 66 73 95 129 165 192 207 212 210 200 183 158 130 108 94 91 98 112 132 153 171 184 193 198 200 198 191 179 161 139 119 105 100 106 120 141 162 178 188 192 190 182 168 152 136 124 119 120 129 144 164 184 201 213 220 223 221 213 195 161 117 75 48 35 31 36 52 82 125 168 199 215 221 220 215 208 199 193 189 189 190 189 182 166 139 108 80 62 54 55 
49 69 100 133 156 163 155 136 111 92 84 91 112 144 176 198 210 214 211 201 183 157 128 103 89 86 92 108 130 154 175 190 198 202 201 195 184 165 142 118 99 89 89 100 121 147 171 188 196 197 190 174 151 124 101 86 79 81 92 112 140 170 195 212 222 226 225 219 202 170 124 80 50 35 30 33 46 71 109 151 184 203 211 212 208 202 197 194 194 197 199 198 189 168 134 96 65 46 38 39 
44 67 101 139 167 178 173 155 129 107 97 102 123 153 182 201 211 214 209 197 175 145 114 90 76 73 80 96 120 148 172 190 199 202 199 189 172 148 121 96 80 73 76 91 115 146 173 191 200 199 189 167 136 102 75 58 51 53 62 82 111 147 180 203 217 224 225 219 204 175 132 87 55 38 32 34 43 62 93 129 161 181 189 190 186 181 178 179 185 192 199 199 190 168 132 91 58 39 31 33 
49 74 111 149 176 186 180 161 134 111 99 104 124 153 181 200 210 211 203 187 159 125 94 72 61 59 66 81 106 136 165 185 196 198 193 180 159 131 102 79 65 61 65 80 106 138 168 188 198 198 186 162 127 91 62 45 38 38 44 59 85 121 158 187 207 217 220 216 203 178 140 99 66 47 39 39 45 58 79 106 130 146 153 152 147 143 143 149 162 178 191 196 190 170 135 94 61 41 34 36 
65 93 129 162 183 189 178 155 126 101 89 94 113 143 173 194 204 205 195 174 141 104 74 56 47 47 53 68 92 123 154 177 189 191 185 170 146 118 91 71 59 56 60 73 96 125 155 178 190 192 182 159 125 89 61 44 35 33 37 47 67 96 131 163 187 201 208 207 199 180 150 116 86 66 56 53 55 61 72 86 98 106 108 105 100 97 100 112 132 157 178 190 189 174 144 106 73 53 46 49 
93 121 152 177 189 186 169 139 107 83 73 76 95 125 158 183 197 198 186 161 125 88 60 45 39 39 46 60 82 112 142 165 178 180 173 157 135 110 88 72 63 60 62 71 88 111 137 160 174 179 174 156 129 98 72 54 44 39 39 44 56 76 102 131 157 175 186 191 189 179 161 138 115 97 86 79 76 74 74 75 76 74 71 67 62 61 65 79 103 134 164 183 189 179 156 124 94 75 69 75 
