P2
100 100
255
130 154 177 192 194 183 156 120 86 63 54 57 74 104 141 172 190 193 181 154 116 79 53 40 35 37 44 57 78 105 132 152 163 164 156 143 125 108 93 83 77 74 74 77 85 98 116 134 149 158 160 152 136 115 94 77 64 55 50 49 52 61 77 97 118 137 153 166 174 177 172 163 150 138 128 119 110 98 86 73 63 54 47 42 39 39 44 57 82 117 152 178 188 185 169 145 121 106 102 111 
167 184 197 202 196 176 142 101 68 48 41 44 59 88 125 160 182 188 178 153 118 83 58 45 41 44 52 65 83 104 123 136 141 139 133 124 115 110 107 106 105 103 99 94 90 91 96 105 117 129 139 145 144 138 127 114 101 88 75 65 58 56 61 69 82 97 114 132 151 167 177 181 180 177 171 163 150 132 108 83 62 47 38 32 29 30 36 49 72 107 143 171 184 185 175 160 146 138 139 150 
192 203 210 209 197 170 130 87 56 39 33 37 51 78 116 154 179 188 181 161 130 98 74 62 59 63 72 85 99 111 119 121 118 112 106 103 105 113 124 135 141 141 133 120 104 90 81 80 87 99 115 133 149 159 161 156 146 131 112 91 72 59 53 52 56 65 79 100 126 155 178 192 200 202 201 196 184 163 133 99 69 48 36 30 29 31 38 51 74 106 139 163 175 177 171 163 157 158 166 179 
205 214 217 212 197 166 121 78 49 34 30 35 50 77 116 154 181 191 188 173 149 123 103 93 92 97 106 116 124 125 119 108 96 86 81 83 94 115 139 161 174 176 168 149 123 95 74 63 63 73 92 120 149 173 186 190 185 173 151 122 92 67 51 43 42 46 56 76 106 143 175 197 210 216 217 214 205 186 155 116 80 55 41 35 35 40 49 65 87 114 138 154 160 159 154 150 152 162 176 192 
209 217 219 213 196 162 116 73 46 34 32 38 55 84 123 160 185 196 195 185 169 152 138 132 134 140 148 153 152 142 123 99 79 66 61 66 83 112 148 178 196 201 194 175 143 105 73 54 48 54 73 105 145 179 201 210 210 201 181 150 111 76 53 40 35 37 45 63 94 134 172 198 213 221 223 222 214 198 170 132 94 68 53 49 52 61 74 92 111 129 141 143 138 130 124 123 131 148 171 193 
205 216 219 212 193 158 112 72 47 37 37 47 67 98 136 169 190 198 198 191 181 172 167 166 171 178 183 184 176 157 127 93 67 51 46 52 72 106 149 186 207 215 211 193 161 117 76 50 40 43 60 93 138 180 206 219 222 215 198 167 125 85 56 41 35 35 43 60 90 131 169 196 212 220 222 221 214 200 175 143 110 86 75 74 82 96 112 129 142 148 145 132 114 99 89 89 101 124 154 184 
196 211 215 209 189 153 109 72 51 44 47 62 86 119 152 177 191 195 192 187 181 178 180 185 193 200 205 203 192 168 130 90 59 42 37 42 61 97 144 186 211 221 219 205 175 129 83 52 37 37 52 84 131 176 206 221 225 220 203 173 131 89 60 44 39 40 49 67 96 133 168 192 205 212 213 211 204 192 172 147 123 108 104 110 124 140 156 168 172 167 148 121 93 72 61 60 71 96 131 168 
184 204 209 202 181 145 105 73 56 54 63 83 111 141 166 181 185 182 175 168 164 167 175 188 200 209 214 212 200 175 134 89 55 37 31 35 53 87 136 182 211 223 224 212 186 142 93 57 39 36 49 79 125 171 203 219 222 216 199 168 127 89 63 51 49 53 65 84 111 141 167 184 192 195 194 190 183 172 157 142 132 129 136 149 165 180 191 197 194 180 151 113 77 54 43 41 51 73 108 150 
172 194 201 192 169 134 99 74 64 69 85 110 137 161 174 177 170 157 144 134 132 139 154 175 194 208 215 215 204 179 138 91 56 36 29 32 47 79 128 175 207 222 225 216 194 155 107 67 45 40 51 79 122 167 198 212 214 205 185 153 117 86 68 63 67 78 93 113 134 153 166 172 171 167 161 154 147 140 133 130 133 144 160 178 194 206 213 214 207 187 152 106 68 44 33 31 39 58 91 134 
162 185 190 179 154 121 92 75 74 88 111 138 161 174 175 165 145 123 105 94 93 102 122 150 177 199 211 213 205 183 145 99 62 40 31 33 46 75 121 169 202 219 224 218 200 167 122 82 57 50 59 85 125 164 190 201 198 185 161 130 101 81 74 80 94 112 131 148 160 166 164 156 143 129 119 111 105 103 104 112 128 151 174 195 210 219 223 222 213 190 150 102 62 39 28 27 34 51 82 124 
157 177 178 163 136 106 85 78 87 108 137 163 179 182 170 146 116 89 69 60 59 69 89 119 154 183 201 208 204 187 155 113 76 52 40 40 51 77 118 162 195 213 220 217 203 176 139 101 76 68 76 99 131 162 180 184 175 156 129 103 84 77 83 102 127 151 169 180 183 177 162 139 114 94 81 73 71 73 80 96 120 150 179 201 216 224 227 225 214 189 148 98 59 37 27 27 34 51 82 122 
158 172 168 147 119 93 79 81 100 129 160 181 190 183 161 126 90 62 46 38 39 46 64 92 128 163 188 200 201 191 167 134 100 75 61 57 65 85 119 156 185 203 211 210 200 181 153 123 101 94 100 118 141 161 169 163 146 122 97 78 69 74 93 123 156 181 196 202 198 184 159 126 94 71 57 52 51 56 66 84 111 144 176 200 215 223 226 223 212 186 143 94 56 36 29 29 38 58 89 127 
164 170 159 133 104 82 76 86 113 147 177 194 196 182 151 109 71 46 33 28 29 35 49 72 105 141 170 188 195 192 179 157 132 110 94 87 89 101 122 147 169 184 193 194 190 178 161 142 128 123 128 140 153 159 155 140 116 91 71 59 59 73 101 140 176 200 212 214 207 189 159 121 85 61 49 45 46 51 61 77 102 134 165 191 208 217 221 218 205 178 136 89 55 37 31 35 47 70 104 139 
171 170 151 121 92 75 74 92 124 161 189 202 200 181 144 98 60 38 28 25 27 33 44 63 89 121 150 171 184 188 186 177 164 149 137 127 122 122 127 136 146 155 162 166 167 164 159 153 149 149 153 158 161 157 143 120 93 70 55 49 54 72 106 148 185 208 218 219 210 191 160 122 87 64 53 50 52 56 64 76 95 120 148 173 191 204 209 207 195 168 127 84 54 39 36 43 60 88 124 155 
179 169 144 110 82 69 74 96 134 172 198 208 202 180 140 93 57 36 28 27 31 37 48 62 82 105 128 149 165 177 184 187 186 182 175 165 154 141 129 120 116 117 121 126 133 140 147 153 159 164 168 169 165 153 133 106 80 61 49 46 53 73 107 148 184 206 216 216 207 190 162 129 99 80 71 69 70 73 75 80 89 104 123 145 165 180 189 190 179 154 117 80 55 44 44 55 78 110 145 170 
183 166 135 100 74 64 72 99 138 177 202 211 204 181 141 95 60 41 35 36 42 51 61 72 82 94 107 122 138 156 173 187 197 201 199 191 176 153 127 103 87 81 81 86 96 111 128 146 160 170 173 171 163 147 125 100 78 62 53 51 58 75 105 141 173 194 203 204 197 183 162 139 118 106 101 101 101 99 94 88 85 88 97 112 130 147 161 166 160 140 110 80 60 52 56 72 99 133 164 182 
183 161 126 90 67 59 69 97 138 177 201 210 204 183 146 103 71 54 50 55 66 77 86 91 91 90 90 95 107 126 151 177 196 208 211 204 187 158 120 87 65 54 52 57 68 86 110 135 155 166 170 165 155 139 121 102 86 74 67 66 70 82 102 127 152 169 177 179 175 167 157 147 140 138 139 140 138 130 115 97 83 75 74 81 94 112 129 141 142 130 109 87 71 67 74 93 123 155 179 189 
181 154 116 81 60 54 64 90 130 169 195 206 202 183 152 117 89 76 77 88 103 116 122 118 106 90 77 73 78 95 123 157 187 206 213 208 190 155 112 74 50 39 36 41 53 72 99 126 148 159 159 153 142 129 118 109 103 98 95 92 92 94 101 111 123 132 138 140 141 142 145 150 158 166 172 175 171 157 134 105 80 65 58 60 69 85 104 122 132 130 118 103 92 90 99 120 147 172 189 192 
178 147 108 74 54 49 57 80 115 152 180 194 193 180 158 132 114 108 115 130 147 158 159 147 122 93 69 56 56 68 95 133 172 198 210 206 186 148 101 63 41 31 30 35 48 70 97 125 144 150 146 135 124 117 116 120 126 131 133 130 123 114 105 98 95 94 95 97 102 113 129 149 169 185 194 197 192 174 144 108 77 57 48 47 55 70 93 117 134 140 137 128 121 120 129 147 167 185 195 193 
176 144 104 71 51 44 50 67 94 127 155 172 176 171 159 146 139 142 154 170 184 191 187 169 135 95 63 46 41 49 73 111 154 187 203 200 179 139 92 56 36 29 30 38 55 79 108 133 146 144 132 117 106 104 113 131 150 164 170 168 157 138 114 91 74 65 61 63 71 87 114 146 175 195 206 208 200 179 144 104 72 51 43 42 51 68 95 124 147 159 161 156 152 151 157 169 183 194 199 194 
178 147 108 73 52 43 44 55 73 98 122 140 150 153 153 153 158 168 182 196 207 210 203 180 140 94 59 39 33 38 58 94 140 177 195 193 170 129 84 52 35 31 35 49 72 101 131 150 154 143 122 100 88 90 108 136 165 187 197 196 185 161 127 91 64 49 42 43 52 72 104 144 179 201 211 211 200 174 136 95 64 47 40 42 54 76 107 140 165 179 182 180 176 174 177 184 193 200 202 196 
184 157 120 84 58 45 42 46 57 72 90 106 120 131 142 154 168 183 198 210 217 218 208 183 140 91 55 35 29 34 52 87 132 170 190 187 163 122 80 51 38 38 49 70 101 134 160 172 167 146 115 88 74 77 99 134 172 199 212 213 203 179 140 96 62 42 33 34 43 65 101 145 182 204 212 208 192 162 121 83 56 43 40 46 62 90 125 159 182 193 196 192 188 184 185 190 196 202 204 199 
192 171 139 103 73 53 44 42 46 55 66 79 94 111 130 151 172 190 205 215 220 218 206 178 134 87 53 35 30 36 55 89 133 170 188 184 159 119 79 54 45 51 70 101 137 168 188 192 180 151 112 79 62 65 87 126 170 202 218 222 214 192 152 104 64 41 31 32 42 66 105 150 186 205 209 201 179 144 103 70 49 41 42 53 75 108 144 174 193 200 199 193 186 181 180 185 192 200 204 202 
200 187 162 129 95 69 53 45 43 47 54 64 79 99 123 148 172 192 205 214 217 213 198 169 126 82 53 38 36 45 67 103 144 176 190 184 158 119 82 61 57 71 99 137 172 197 209 208 191 156 111 73 54 54 74 113 160 198 219 225 219 200 163 113 70 44 33 34 46 73 114 158 189 204 204 190 162 123 85 58 45 41 48 64 91 126 159 183 195 196 189 178 168 161 160 167 178 191 200 204 
205 199 183 156 124 92 69 55 49 49 54 63 78 99 124 150 173 190 201 207 207 200 183 153 115 79 56 47 50 64 91 127 163 187 195 185 158 120 87 70 73 94 130 169 199 216 222 217 198 161 111 69 47 45 61 97 145 188 214 224 221 205 171 122 77 49 38 40 54 84 125 166 192 201 196 175 142 103 71 51 44 46 57 79 109 142 169 184 186 179 165 148 134 125 126 135 153 173 191 202 
205 207 198 180 152 120 93 73 64 62 66 77 92 113 135 156 173 184 190 192 188 178 159 132 102 78 65 64 74 95 125 157 184 199 200 186 158 121 90 78 87 115 155 191 215 227 230 223 202 163 111 66 42 37 49 80 126 174 206 220 220 207 176 131 86 56 45 48 65 96 137 172 192 195 183 157 122 87 62 49 48 56 73 99 129 155 172 175 167 150 128 108 92 85 86 97 118 146 173 194 
198 207 206 195 174 147 120 99 88 87 93 104 120 137 153 165 173 175 172 167 158 145 128 108 90 79 79 90 109 134 161 185 201 208 203 184 153 116 89 81 95 128 169 203 223 232 233 225 205 165 111 65 39 32 40 64 106 156 193 213 217 206 180 138 94 65 53 58 77 109 146 174 188 185 167 138 104 76 60 55 61 75 97 124 149 166 170 161 140 114 89 70 57 52 54 64 84 113 147 178 
183 200 204 199 185 165 143 126 119 120 128 141 154 165 173 175 170 160 147 133 119 106 94 84 80 83 97 119 146 171 191 206 213 212 201 177 142 106 82 77 94 128 170 204 224 232 233 226 205 166 112 65 38 29 33 52 88 136 179 204 211 203 180 142 101 73 63 68 87 117 149 171 178 170 149 121 93 74 67 70 83 104 129 152 169 175 167 145 114 84 60 44 36 32 34 41 57 83 118 154 
160 183 193 193 184 170 155 146 145 151 162 174 183 189 188 181 165 143 119 98 83 72 66 65 72 88 115 147 175 197 210 217 218 211 193 163 124 90 70 67 83 117 159 195 217 228 230 223 204 165 113 66 38 28 30 44 75 120 164 192 203 198 177 143 106 81 71 77 95 121 147 162 163 152 131 108 90 81 84 96 116 139 161 178 186 182 164 133 96 64 43 30 24 22 24 29 40 60 90 127 
133 158 171 174 168 159 152 151 158 170 184 196 203 204 198 183 158 125 94 70 56 49 48 53 67 93 129 166 194 212 220 222 218 205 180 143 103 72 56 54 68 96 136 175 202 218 223 218 200 164 115 70 42 30 30 42 68 109 152 182 194 190 171 140 108 85 77 83 99 120 139 148 146 134 118 103 96 99 111 130 152 173 188 197 198 188 165 129 88 56 36 26 21 19 20 24 31 46 69 100 
109 130 142 144 140 135 133 140 155 174 192 205 212 211 202 182 149 109 75 52 40 36 37 45 63 96 138 178 204 218 224 222 213 193 160 119 82 56 43 42 52 73 107 144 177 199 209 207 193 162 118 77 50 37 37 47 71 107 146 174 185 181 162 134 105 87 80 86 99 115 127 132 129 120 111 107 111 124 142 163 182 197 206 209 206 194 170 133 93 61 40 29 24 22 22 24 30 41 58 82 
94 108 114 113 107 104 106 118 139 165 188 204 212 211 201 177 140 98 64 43 32 29 32 42 63 98 144 183 208 220 222 217 202 175 137 95 63 43 34 33 39 54 78 109 142 169 185 190 181 158 123 89 65 53 53 63 86 117 150 171 179 171 151 125 100 85 80 85 96 108 117 120 118 114 113 119 132 150 170 188 201 210 214 214 209 197 176 145 108 77 56 43 36 33 32 34 38 46 59 76 
96 100 97 90 81 76 79 91 114 143 171 192 203 204 193 169 131 90 58 39 30 28 31 42 65 103 148 186 208 217 217 207 185 152 111 75 50 36 30 29 32 41 56 78 106 132 153 165 164 152 130 106 89 80 82 93 113 138 161 174 174 162 140 114 93 81 78 83 93 102 110 113 114 117 123 136 153 172 189 202 210 213 214 211 206 197 182 159 132 106 86 72 63 58 55 56 59 66 75 86 
113 108 96 81 68 60 60 69 88 115 144 169 184 188 179 157 123 87 59 42 34 33 37 49 73 111 153 186 205 211 206 191 163 126 88 59 41 32 29 29 31 36 45 59 78 99 120 135 143 143 136 127 120 118 122 133 148 164 175 179 172 154 129 104 85 76 76 82 91 100 108 113 119 126 138 154 171 186 198 205 207 206 203 198 194 188 181 171 157 142 128 117 108 101 97 96 98 102 108 112 
141 128 109 87 68 56 51 55 67 87 112 136 154 162 159 143 117 90 68 54 47 46 51 65 90 124 160 186 199 200 190 167 135 99 69 49 38 33 33 34 37 41 46 54 64 78 93 109 122 133 140 145 150 155 162 170 179 186 189 184 170 147 120 95 79 73 75 82 92 103 112 120 128 139 152 167 181 191 196 196 192 185 177 171 167 167 170 174 176 174 170 165 159 154 150 148 147 148 149 147 
170 154 132 105 81 62 52 49 54 65 82 101 118 130 134 129 117 101 87 77 72 73 79 93 115 143 168 185 190 183 166 138 106 77 56 44 40 41 44 50 54 58 61 64 67 72 80 91 104 120 138 154 169 180 189 196 200 201 198 187 168 141 112 89 76 72 76 86 97 109 120 129 139 149 161 172 181 184 182 174 162 148 136 128 127 134 148 166 182 193 199 200 198 195 192 189 187 185 183 179 
189 176 157 131 104 80 63 53 50 53 61 73 87 100 111 119 122 121 118 114 112 114 120 131 146 163 176 181 176 160 136 108 81 60 48 45 48 56 67 79 88 93 94 91 86 81 79 82 91 107 129 153 175 191 201 207 209 207 199 185 162 134 106 86 77 76 83 94 107 119 129 138 146 154 162 168 169 165 155 139 121 103 89 82 83 95 118 148 178 200 212 218 219 217 214 211 208 205 201 197 
196 189 177 158 134 108 85 67 56 50 51 56 65 78 96 115 133 146 153 156 157 159 162 167 173 178 178 172 156 133 106 81 62 50 47 52 64 83 103 122 135 141 139 131 118 102 87 80 82 94 115 141 167 188 200 207 208 203 193 176 152 126 102 88 83 86 96 108 120 130 137 142 146 150 153 152 147 136 120 100 80 64 53 48 51 63 89 126 166 197 215 223 225 224 221 216 211 207 203 200 
191 191 188 179 163 141 116 91 71 56 49 48 54 67 88 117 146 168 182 189 192 192 192 192 190 185 175 158 134 107 81 62 50 47 51 65 89 118 146 167 180 185 182 171 152 127 102 83 76 81 97 122 149 172 187 194 195 189 177 159 137 116 101 94 95 104 115 127 137 142 143 142 140 137 134 128 119 104 87 69 53 41 33 30 33 44 67 105 151 188 210 220 223 220 213 206 198 192 189 189 
172 183 191 192 186 172 150 122 94 71 55 49 51 63 87 122 157 184 201 209 211 211 208 203 195 183 165 140 112 85 64 51 46 49 61 85 118 152 181 200 210 213 210 199 179 149 116 88 73 72 82 102 126 147 163 169 169 161 149 133 118 106 102 105 115 127 140 149 154 152 146 136 126 118 111 103 92 79 64 50 39 30 25 23 25 34 55 90 135 175 199 210 210 203 192 178 166 158 156 161 
141 165 185 197 200 194 179 154 123 92 68 55 54 65 90 127 165 194 210 217 219 216 211 203 190 173 149 122 94 72 57 49 49 57 77 108 146 179 204 218 225 226 222 212 193 163 126 94 74 68 73 86 104 120 131 135 132 124 114 104 97 97 105 120 138 154 165 171 169 160 144 126 110 98 89 82 74 65 54 44 36 29 25 23 25 33 51 82 122 160 183 190 186 172 154 135 119 111 111 122 
109 142 174 196 207 208 199 181 152 118 87 68 62 71 95 132 169 196 211 217 217 212 204 192 176 155 131 106 84 68 58 55 60 74 99 133 169 197 215 225 229 229 225 214 195 166 130 98 78 71 73 82 92 100 104 102 96 88 81 77 80 91 111 137 160 177 186 187 180 164 140 115 94 81 74 70 66 62 57 50 43 37 33 31 33 41 57 83 116 145 161 161 150 130 108 88 74 68 70 83 
83 121 161 192 209 215 212 199 176 143 109 84 73 78 99 132 167 192 205 209 206 198 186 170 152 133 114 97 84 75 71 73 81 99 125 157 186 207 219 225 227 225 218 206 186 159 129 103 88 84 87 92 96 95 89 80 70 62 58 59 68 88 118 152 178 195 201 199 187 165 135 105 82 69 65 67 70 73 72 69 64 58 53 51 53 60 74 94 117 134 138 129 111 89 69 54 44 40 44 57 
68 106 150 187 208 217 217 209 191 163 130 101 85 85 101 128 156 178 189 190 183 171 156 139 124 111 103 98 95 95 97 102 113 130 152 176 196 209 217 219 217 212 201 186 166 144 123 109 105 108 114 118 116 106 90 72 57 48 45 48 61 87 125 163 191 206 211 206 191 164 129 96 73 64 64 72 84 96 103 104 101 96 90 87 88 94 104 117 127 129 121 103 81 61 46 35 29 28 32 44 
62 98 142 180 204 215 218 212 198 175 144 115 95 90 99 117 138 154 160 158 148 133 118 105 98 96 100 108 117 124 131 138 148 160 174 188 199 206 208 205 198 187 172 154 136 121 114 116 126 139 149 153 147 130 103 76 54 42 38 42 57 87 130 171 200 213 216 209 192 162 123 89 68 62 69 86 107 128 142 148 148 144 139 136 135 137 141 145 142 131 111 87 64 47 35 29 25 26 30 41 
64 96 135 171 196 208 212 209 197 178 150 122 101 91 93 102 114 122 124 118 107 95 84 79 81 91 108 127 144 157 165 170 175 180 186 191 194 194 189 180 166 149 130 113 101 97 105 123 147 169 182 187 179 158 125 87 58 41 35 39 55 87 132 176 204 217 218 210 190 157 117 84 66 65 78 103 133 159 177 185 187 185 181 177 175 174 173 169 157 137 109 81 58 43 34 30 29 30 35 45 
72 97 128 159 181 193 198 196 188 171 148 122 101 89 85 86 90 92 89 83 74 67 63 65 76 97 123 149 169 182 188 190 190 188 186 183 179 172 161 145 126 106 88 76 71 77 97 130 164 191 206 210 203 183 147 102 65 43 35 38 54 87 133 177 205 217 218 208 186 151 111 81 67 71 90 122 155 182 198 206 208 207 204 201 198 195 191 183 167 142 111 82 60 47 41 39 40 43 48 57 
86 101 120 140 157 168 173 173 168 155 137 117 99 86 78 75 73 70 66 60 55 52 54 64 83 111 142 170 188 197 199 196 190 182 173 164 154 142 126 108 89 71 58 51 52 65 93 134 176 205 220 224 218 200 164 116 73 46 35 38 54 87 133 177 204 215 214 202 178 142 104 79 70 79 103 138 170 194 207 213 213 211 209 206 203 200 195 185 169 144 115 89 71 61 58 59 62 66 71 77 
105 106 110 117 125 132 138 140 140 134 123 110 96 84 76 69 64 59 54 50 48 50 57 73 98 130 162 185 197 201 198 188 176 162 148 136 124 111 96 80 65 51 42 38 42 58 90 136 182 212 227 231 226 210 176 128 80 50 37 39 55 88 134 175 201 210 207 192 166 131 98 79 76 90 117 150 178 197 205 207 205 201 198 195 192 190 186 178 165 145 122 102 89 85 86 91 98 103 105 106 
124 110 99 94 93 96 100 106 111 114 112 107 99 89 80 71 64 58 53 50 51 57 69 91 120 151 177 193 199 195 184 167 148 130 115 104 96 88 79 68 56 45 38 35 39 55 87 135 182 213 229 233 229 213 182 134 86 54 41 43 60 93 136 174 196 202 196 177 149 118 92 81 85 103 130 159 180 191 193 189 183 176 170 168 167 168 167 164 156 144 131 120 115 117 124 133 142 146 144 137 
139 112 90 75 68 68 73 82 92 103 110 113 110 102 93 82 73 66 61 60 63 73 90 115 143 169 187 194 191 179 159 135 112 95 84 79 78 78 76 70 61 51 42 37 40 53 83 128 175 208 225 231 227 212 181 136 90 60 48 52 71 104 143 174 190 191 179 157 130 104 89 87 98 119 144 166 177 178 171 159 147 136 130 129 131 137 143 147 147 144 141 140 143 151 161 171 179 181 176 162 
147 112 82 63 54 53 59 71 87 105 120 128 130 125 116 104 93 84 79 78 84 96 116 140 164 182 191 189 177 154 127 100 79 66 62 64 72 82 89 89 81 68 55 46 44 53 77 117 162 196 215 222 218 203 173 132 92 67 59 67 89 120 152 174 181 175 157 133 109 92 88 96 115 138 159 171 172 161 143 123 106 94 89 91 98 109 121 133 141 146 150 156 165 176 187 196 202 202 195 176 
148 109 76 56 48 48 57 74 96 120 140 152 156 153 144 133 121 110 104 104 110 124 142 162 179 189 189 179 157 127 95 70 55 48 50 60 77 98 115 121 115 98 78 61 52 53 69 100 139 174 196 204 200 185 157 122 92 76 76 90 115 142 165 175 172 156 132 108 90 84 91 109 134 157 172 176 166 145 117 91 73 64 62 67 77 92 109 126 139 149 158 167 178 190 200 208 212 211 202 182 
145 104 72 54 47 52 65 88 116 144 164 176 180 178 171 160 149 138 131 130 135 147 162 176 186 190 184 166 137 103 72 52 41 40 47 64 91 123 148 159 155 137 110 83 64 57 63 82 112 142 163 172 169 155 132 108 91 88 98 119 144 165 177 176 161 136 108 87 76 80 97 124 153 175 185 181 162 132 99 72 55 49 50 58 71 89 108 126 140 151 161 171 182 194 204 211 215 213 203 181 
139 99 69 54 52 61 81 110 142 169 187 196 198 195 189 179 168 157 149 147 150 159 170 180 187 186 176 155 122 87 60 43 36 38 50 74 110 149 177 190 188 172 143 109 80 63 59 68 85 106 123 131 128 118 103 92 90 100 122 148 171 184 186 174 149 117 88 71 67 79 105 139 170 189 195 186 162 127 91 64 50 46 50 60 76 95 114 130 141 149 156 166 177 190 201 209 213 210 199 175 
130 93 67 56 58 73 101 135 167 190 203 208 208 204 197 186 174 162 153 148 150 157 167 176 182 181 171 148 116 83 57 42 37 41 56 85 127 169 197 210 209 196 170 135 99 73 61 60 67 78 88 92 90 84 79 79 90 112 142 170 189 196 189 168 135 99 72 60 62 80 112 151 182 199 202 190 164 127 90 65 53 52 58 71 87 105 120 130 135 138 142 150 164 179 194 204 208 205 193 167 
120 86 65 58 65 86 120 157 186 204 213 214 211 205 194 181 166 151 140 134 135 142 153 165 174 176 168 149 120 89 64 48 43 47 64 97 141 182 208 219 219 209 188 155 118 87 68 61 61 65 68 68 66 63 63 71 90 121 156 184 199 200 186 158 119 83 60 52 58 81 117 158 189 204 205 192 166 130 95 72 62 63 71 84 99 112 121 123 121 118 118 126 142 162 182 196 202 199 184 156 
108 78 61 58 69 95 133 170 197 211 216 215 209 197 181 162 143 126 114 108 110 118 133 150 164 172 171 158 134 105 79 61 53 56 73 106 148 186 210 220 221 213 196 169 135 105 84 73 69 67 65 62 57 54 56 67 91 126 163 189 201 197 177 142 102 69 51 47 56 80 118 160 190 204 203 190 165 132 102 82 74 77 86 97 107 113 113 107 99 92 91 99 118 143 169 187 195 191 174 144 
96 70 56 56 69 98 137 175 201 213 216 211 200 182 158 134 111 95 84 80 83 94 112 135 157 172 177 171 154 129 102 79 67 67 80 109 148 182 205 215 216 210 197 176 150 125 107 97 91 86 79 71 62 57 58 69 94 129 165 188 196 187 162 124 85 57 44 43 53 78 115 155 184 197 196 183 159 131 106 92 88 92 100 107 109 107 98 87 76 69 68 77 98 128 159 180 189 184 164 132 
85 61 50 51 65 93 133 171 198 210 211 202 184 158 129 101 80 67 60 58 63 76 97 126 154 175 185 185 175 154 127 100 82 76 84 106 138 169 190 201 204 199 189 175 159 144 134 128 124 118 108 95 80 69 67 76 98 131 163 183 186 173 144 105 70 48 39 40 52 75 109 145 171 182 179 166 146 124 108 101 101 107 111 112 106 95 82 68 58 52 53 65 89 122 155 178 186 178 154 119 
75 53 44 45 57 83 121 161 189 202 202 189 165 132 99 73 56 47 44 45 52 67 92 125 157 181 194 197 191 174 147 118 93 81 82 97 120 146 166 178 182 180 174 167 161 158 158 160 160 156 145 127 107 90 82 87 105 133 160 175 175 158 127 90 61 44 38 41 52 73 102 131 152 159 154 141 126 112 106 107 113 119 121 115 102 85 68 55 46 44 49 65 92 128 161 182 187 175 147 109 
67 46 38 39 49 71 106 146 177 192 191 175 145 108 76 54 42 36 36 39 48 66 95 131 165 189 202 205 200 184 158 126 98 81 76 83 99 118 135 147 151 152 151 152 157 165 174 182 187 185 176 159 136 114 101 101 115 137 158 170 167 148 117 84 59 46 42 47 58 76 98 118 130 131 123 112 102 98 102 112 124 131 130 119 100 79 61 49 43 45 55 77 109 145 174 190 191 174 142 101 
61 41 33 33 42 61 92 132 165 182 180 162 129 91 61 43 34 31 33 39 51 74 107 144 176 196 207 208 201 185 158 125 95 76 69 71 81 94 106 115 120 123 127 135 148 165 181 194 201 202 194 179 157 134 118 115 125 143 160 169 165 147 119 90 68 57 56 62 73 88 102 111 112 105 95 86 82 86 99 117 135 144 142 128 105 81 63 52 51 57 74 102 136 168 191 200 196 176 138 95 
57 38 30 30 37 54 84 122 156 175 174 154 120 83 55 39 32 31 34 43 61 88 124 160 187 202 208 206 196 176 147 114 86 69 63 64 70 80 89 96 100 103 109 121 139 160 180 195 204 205 199 185 164 142 127 124 134 150 165 173 170 156 134 110 92 83 83 90 100 110 115 112 102 88 75 68 69 80 100 125 147 159 157 143 119 95 77 68 70 83 106 136 167 191 206 210 201 177 136 91 
54 36 29 29 37 54 83 121 155 173 173 155 121 85 57 41 34 34 40 53 76 108 145 176 196 205 206 199 183 158 127 97 75 63 60 63 71 80 88 94 96 98 103 114 132 154 174 189 197 197 190 176 156 137 126 127 139 157 172 181 181 172 157 140 127 122 124 130 138 141 137 123 102 81 65 59 63 79 105 136 161 174 173 161 140 118 102 96 103 120 144 171 193 209 217 216 204 176 133 88 
53 37 31 33 42 61 91 129 161 179 179 162 131 95 66 48 41 42 51 70 98 132 165 189 202 205 199 184 161 133 103 80 65 61 63 72 84 96 105 109 110 109 110 117 130 146 162 174 179 177 167 152 135 120 115 122 140 161 179 190 192 188 180 171 164 162 165 170 173 171 160 138 109 82 64 58 65 85 116 149 174 187 188 178 162 145 133 131 139 157 177 197 211 220 222 218 203 173 129 85 
55 41 38 42 55 77 110 145 174 188 188 174 146 112 81 62 54 57 70 93 124 156 182 198 203 199 186 163 134 105 81 65 59 63 74 91 109 125 134 138 136 131 127 127 131 138 146 151 151 145 133 119 105 97 99 113 137 163 184 196 201 201 197 193 191 191 194 198 198 194 180 154 121 90 70 65 74 97 130 163 185 196 197 190 178 165 158 158 167 182 197 210 219 223 222 214 196 165 123 82 
60 51 52 61 79 105 136 166 188 198 198 186 163 132 103 83 75 79 95 121 151 177 195 202 201 189 166 136 105 79 63 56 58 70 91 117 141 158 167 169 165 156 147 139 133 130 128 125 118 109 97 85 76 74 82 101 130 161 185 199 205 206 205 203 203 205 208 211 211 205 191 167 134 103 83 79 90 115 147 175 193 200 200 193 182 172 167 169 178 190 202 211 216 217 213 202 182 151 114 80 
69 68 76 91 113 139 165 186 200 206 205 195 177 152 126 107 101 107 125 149 173 192 202 203 194 174 143 109 80 60 51 51 60 81 111 144 170 186 193 193 187 176 163 148 134 122 111 101 91 80 69 61 56 58 68 89 120 154 180 195 202 203 202 201 202 205 208 211 211 207 194 173 145 118 101 99 112 136 163 184 196 198 194 184 172 162 157 160 168 179 189 196 199 198 191 179 158 131 102 80 
84 94 110 130 151 172 189 201 208 210 207 199 184 164 143 129 125 133 151 171 189 201 205 200 184 156 120 85 61 47 43 49 65 93 131 166 191 204 208 206 198 186 170 151 131 114 98 85 73 62 54 48 45 49 59 80 110 142 168 183 188 188 185 184 185 189 194 198 200 197 188 171 150 131 121 123 136 156 175 188 192 188 178 163 147 136 130 132 139 149 158 164 166 163 155 142 125 107 92 83 
103 123 145 165 182 195 203 208 210 209 204 195 182 166 150 140 140 150 166 184 197 205 205 195 173 139 100 68 48 39 39 48 69 103 145 181 203 213 215 210 201 186 167 145 124 105 89 76 65 56 48 43 42 45 55 74 100 128 150 161 163 159 153 150 151 155 162 169 173 174 169 160 148 139 137 144 157 171 182 186 182 169 151 130 112 100 94 95 100 108 115 119 120 117 111 102 93 86 84 89 
122 148 171 188 199 206 208 208 205 200 193 182 169 155 143 137 140 152 169 186 198 204 202 190 164 126 87 57 41 35 37 48 71 109 153 188 208 216 215 208 195 177 154 132 112 96 84 74 66 57 51 46 45 48 57 72 92 113 128 133 129 120 111 105 105 109 117 125 132 137 138 138 138 141 148 160 172 181 184 178 164 142 117 95 78 67 63 63 67 72 76 79 79 77 74 71 69 72 81 98 
135 163 184 197 203 205 203 199 192 183 173 160 146 132 123 120 126 141 160 179 193 200 198 185 158 120 81 53 38 33 36 47 71 109 153 188 207 214 211 200 182 159 134 113 98 88 83 79 74 68 62 57 55 57 64 77 91 104 110 107 97 85 74 67 65 68 74 81 89 96 103 111 122 136 153 168 180 184 179 164 141 113 86 66 53 46 44 45 48 51 54 56 57 56 55 56 59 68 83 106 
140 165 182 191 194 192 187 179 169 158 144 130 116 104 97 96 103 118 139 161 180 191 193 183 158 122 83 55 39 33 35 45 68 104 147 183 203 208 203 188 165 137 111 93 84 82 85 88 89 87 82 77 74 75 81 90 100 105 104 93 78 63 52 45 42 43 46 51 57 65 74 87 105 128 152 172 182 182 170 147 117 87 64 48 40 37 37 40 44 48 51 53 54 55 55 57 62 73 90 114 
137 154 165 170 170 165 158 150 139 128 115 102 89 79 73 73 78 91 111 136 161 179 187 183 164 132 95 64 45 36 36 43 63 95 137 174 195 201 194 175 147 115 90 76 73 80 91 103 112 114 112 108 104 104 107 113 118 118 110 95 76 58 45 37 33 32 33 36 40 46 55 70 92 121 150 171 180 176 158 129 96 69 50 40 37 38 42 48 55 61 67 70 72 73 73 75 79 87 100 118 
126 132 136 136 133 128 123 117 111 103 94 84 73 64 58 56 58 67 84 108 138 164 181 185 174 149 115 82 57 43 39 43 58 86 125 162 185 193 186 164 133 100 76 66 68 81 100 121 137 145 145 142 138 136 137 141 143 140 129 111 90 70 54 43 36 33 32 32 34 39 47 61 85 116 147 168 176 168 145 114 82 59 45 40 42 48 58 70 83 94 102 107 110 110 109 108 108 110 113 119 
111 106 102 98 95 93 92 93 94 93 89 81 71 60 52 46 46 50 62 84 115 148 175 188 186 170 142 108 78 56 45 44 55 78 112 150 176 186 180 159 127 95 72 64 69 86 112 139 159 170 172 170 166 163 163 164 165 163 154 139 118 97 78 63 52 45 40 37 37 39 46 61 84 115 146 166 171 160 135 102 74 55 47 48 57 71 89 109 127 141 150 155 157 156 153 149 142 134 126 117 
95 82 73 68 67 69 75 83 93 100 100 94 82 67 54 44 40 40 48 66 96 134 169 191 198 191 171 141 107 77 58 50 54 72 102 139 168 181 179 160 131 99 77 69 76 95 124 153 175 186 189 186 182 178 176 177 180 180 177 168 153 136 117 100 85 72 61 53 49 48 54 67 90 120 148 165 167 154 127 97 72 58 56 65 82 106 132 155 172 184 191 194 195 193 188 181 170 154 134 113 
83 66 56 52 53 60 72 90 108 122 127 122 107 86 66 49 39 36 40 54 81 121 163 193 206 206 195 172 140 105 76 60 57 69 95 130 161 179 181 168 142 113 91 82 88 108 136 164 184 193 195 191 184 178 176 177 182 187 190 189 184 174 161 146 130 113 97 83 72 68 70 82 104 130 154 167 166 151 125 96 76 67 72 88 115 145 171 191 204 212 215 216 215 212 208 199 186 165 137 108 
76 58 49 47 51 63 82 108 134 153 161 157 141 115 86 61 44 36 36 47 71 111 157 192 211 217 212 197 170 135 100 74 64 69 90 123 156 178 184 177 157 132 110 100 104 122 147 171 187 194 193 185 175 166 161 163 170 181 192 199 202 200 195 186 174 159 141 123 107 97 96 105 123 144 162 171 168 152 127 101 84 80 91 114 145 175 198 213 221 224 225 224 221 218 212 203 189 166 135 103 
76 59 52 51 59 75 101 132 161 181 190 187 173 147 113 79 54 40 36 43 64 102 150 190 213 223 222 213 193 162 124 91 72 71 87 116 149 175 186 184 170 150 130 119 121 136 156 175 187 190 185 172 156 141 133 135 146 162 180 196 206 212 213 210 203 192 178 160 143 131 126 131 144 160 172 177 172 156 133 110 96 95 109 135 166 192 210 219 224 224 222 219 215 210 204 195 181 159 131 101 
85 71 65 66 76 95 123 155 182 200 208 207 197 175 142 104 71 49 40 43 60 94 142 185 212 225 227 222 208 181 144 106 80 73 83 108 140 168 183 186 177 161 144 134 134 144 160 175 183 182 172 153 131 111 101 101 112 132 156 179 197 209 216 218 215 209 198 185 170 157 151 154 162 173 181 183 177 162 141 120 107 106 120 144 171 193 207 213 214 212 207 200 194 188 182 175 164 149 128 105 
104 95 90 92 101 118 143 169 192 207 215 217 211 196 169 131 92 63 47 44 56 86 130 175 207 223 228 226 215 193 157 117 86 73 78 98 127 155 174 180 175 163 148 138 137 146 159 170 176 172 157 133 107 85 73 71 79 97 122 150 175 194 206 212 213 210 202 192 180 170 164 166 172 181 187 188 182 169 150 130 116 113 122 140 161 178 188 191 189 182 173 164 155 149 146 144 142 138 129 116 
133 128 125 124 128 138 154 172 189 203 213 217 216 208 188 157 117 81 57 48 54 77 116 161 196 217 225 225 217 196 163 122 88 72 72 86 111 137 157 165 163 153 141 132 131 138 150 160 165 159 143 118 91 69 56 52 56 68 88 114 140 163 180 191 195 195 190 183 173 166 163 166 174 182 188 190 186 175 158 139 122 113 114 123 135 146 151 151 145 135 124 114 106 103 105 112 122 131 136 137 
164 163 159 154 150 148 152 161 173 186 199 208 213 211 200 177 141 102 71 54 53 68 99 140 178 204 217 219 212 193 160 120 86 68 65 75 94 117 135 144 143 135 124 117 116 123 134 146 151 148 133 110 85 64 51 45 45 51 63 80 101 122 140 154 162 164 162 157 152 148 149 156 166 177 185 189 187 179 165 146 127 112 103 101 103 105 105 101 94 85 76 69 65 66 74 89 110 132 150 161 
190 190 185 175 161 147 137 135 141 154 171 187 200 207 204 190 162 124 87 63 54 60 81 116 153 183 201 206 200 182 150 112 81 64 60 67 82 99 114 121 120 112 103 97 97 104 115 128 137 138 128 111 90 71 57 48 44 45 49 57 69 83 97 109 117 122 123 122 120 121 126 135 149 163 175 183 185 181 170 153 133 112 95 84 76 72 67 62 56 50 45 42 41 46 58 79 110 142 167 183 
206 206 199 184 162 136 114 101 101 111 130 154 177 194 201 196 176 143 104 73 56 54 66 90 122 153 175 184 180 163 134 102 76 62 59 64 76 89 100 104 101 93 85 80 80 86 97 112 124 132 130 120 105 89 75 63 55 50 47 48 52 57 65 72 79 84 87 89 90 93 100 110 125 142 158 170 178 179 174 161 142 119 96 77 62 52 45 40 36 32 30 30 32 40 56 83 119 156 184 200 
215 214 205 186 157 121 90 71 66 71 88 114 145 173 191 196 185 158 121 86 62 52 55 69 93 119 141 153 152 139 116 92 73 64 63 69 79 89 96 97 91 83 74 69 68 73 84 99 116 130 138 137 130 118 105 91 78 67 58 52 48 48 50 54 59 63 67 69 71 74 79 87 100 116 134 151 165 174 176 170 156 134 107 82 61 47 37 31 27 26 25 27 32 43 63 95 134 171 196 210 
218 215 205 183 148 107 72 51 43 45 57 79 111 148 177 191 189 170 138 101 71 55 51 57 71 90 109 121 124 117 103 88 77 73 76 83 93 101 104 101 92 81 71 64 62 67 77 94 114 134 148 156 157 151 142 129 113 97 81 68 59 54 52 54 57 61 64 66 67 66 67 71 78 90 106 126 147 165 176 179 171 154 129 101 74 54 40 32 28 26 28 31 39 54 78 112 150 182 203 214 
214 210 199 177 140 98 63 42 32 31 38 56 85 124 161 184 191 180 154 120 87 64 53 53 60 72 87 98 104 104 98 92 89 91 98 107 117 123 122 115 101 87 74 66 64 67 78 95 118 141 160 173 179 179 174 165 151 133 115 97 83 75 71 71 74 78 80 80 76 70 64 61 63 69 81 101 126 152 174 186 187 177 157 130 100 74 54 42 36 35 37 43 54 71 97 129 161 187 203 211 
200 198 189 168 134 94 61 40 30 27 31 44 69 107 149 179 192 189 171 141 108 81 64 57 59 66 77 88 97 103 105 107 111 118 128 138 146 149 145 133 116 97 82 73 71 75 87 105 128 152 171 184 192 195 194 188 179 165 148 132 118 109 106 106 109 113 113 109 99 84 69 59 53 54 62 78 105 138 169 189 198 196 184 163 136 107 82 65 56 54 57 64 77 94 116 141 163 180 191 198 
174 176 172 157 130 97 67 46 34 29 31 41 63 100 143 177 195 197 186 163 133 103 81 69 66 69 78 89 101 112 122 130 139 148 158 166 172 171 164 149 129 109 93 84 83 89 103 122 144 164 180 191 197 200 199 196 190 181 171 161 153 148 147 150 154 156 155 147 130 105 80 60 48 44 48 61 86 122 161 190 206 210 205 192 171 146 121 102 90 86 89 97 108 120 132 143 153 160 165 170 
136 144 149 145 131 107 80 59 44 36 36 45 67 103 146 180 199 204 198 182 157 128 102 85 77 78 85 98 113 128 143 155 165 174 181 187 188 184 174 157 135 115 101 95 98 108 124 143 161 176 187 193 195 194 191 187 183 179 175 173 174 176 181 186 190 192 190 180 160 129 93 64 46 39 39 49 71 108 151 187 209 218 218 211 198 180 161 144 133 129 131 136 141 143 141 136 131 127 126 129 
95 110 125 136 135 123 102 79 61 50 48 56 78 114 154 186 204 210 207 195 175 148 120 99 87 86 93 106 125 144 161 175 184 191 196 197 195 187 173 153 132 114 103 103 111 127 146 164 178 187 191 190 185 178 169 162 158 157 160 167 178 189 199 206 212 214 212 203 182 148 106 69 46 35 34 41 60 94 139 180 207 220 223 220 213 202 189 177 170 167 168 169 167 159 143 122 103 90 84 86 
64 83 108 131 144 143 129 107 85 69 64 72 94 129 166 194 209 214 212 203 185 159 130 105 91 88 95 110 131 154 173 187 196 201 202 200 193 181 162 139 118 103 98 104 119 141 163 180 190 195 192 184 170 153 136 124 118 119 128 145 165 186 203 215 221 224 223 215 196 162 116 74 47 34 30 35 51 81 125 169 200 216 222 221 217 209 201 195 191 191 191 190 183 166 139 107 79 61 54 55 
48 69 99 132 156 163 155 134 110 90 82 89 111 144 177 200 212 216 213 203 185 157 127 101 86 83 90 106 130 155 177 192 201 205 204 198 186 167 143 118 98 87 87 99 120 148 172 190 198 199 192 176 152 125 101 85 78 80 91 112 141 171 196 213 223 227 227 220 203 170 125 80 49 34 29 32 45 70 109 151 185 204 212 213 209 203 198 196 196 199 201 199 190 168 134 95 64 45 37 38 
43 66 101 139 167 179 173 154 128 105 95 101 122 153 183 203 213 216 211 198 176 145 113 88 74 71 78 94 120 149 175 192 201 204 201 191 174 149 121 96 78 71 74 89 115 146 174 193 202 201 190 169 137 102 74 57 50 51 61 81 111 148 181 205 219 225 226 221 205 176 132 87 55 37 31 32 42 61 92 129 161 181 190 190 187 182 179 181 187 195 201 201 192 169 132 90 57 38 30 32 
48 74 111 150 177 187 181 161 133 109 97 102 123 153 182 202 211 212 205 188 160 125 93 70 59 57 64 80 106 137 167 187 198 201 196 183 161 132 102 78 64 59 64 79 105 138 168 190 200 199 187 163 127 90 61 44 36 36 43 59 85 121 158 188 208 218 221 217 205 180 141 99 66 47 38 38 44 57 78 104 129 145 152 152 147 144 144 151 164 180 193 198 192 171 135 93 60 40 33 35 
64 92 129 164 185 190 180 155 125 100 87 92 112 142 173 195 206 207 197 175 142 104 73 54 45 45 52 67 92 124 155 179 191 193 187 172 147 118 90 69 58 54 59 72 95 125 156 179 191 193 183 159 125 89 60 43 34 32 36 46 65 95 130 163 188 202 209 209 200 182 152 116 86 66 55 51 53 60 70 84 97 105 107 104 100 97 101 113 133 158 180 192 191 175 144 105 72 52 44 48 
92 121 153 178 191 188 170 140 107 82 71 75 93 124 158 185 198 199 188 162 125 87 59 43 37 38 44 59 81 112 143 167 179 182 174 158 136 110 87 71 62 58 61 70 87 111 137 160 175 180 174 157 129 98 71 53 43 38 38 43 54 74 101 131 156 175 187 192 191 181 163 139 116 97 85 79 75 73 73 73 74 73 69 65 61 60 65 79 103 135 165 185 190 180 157 124 94 74 68 74 
