P2
100 100
255
131 133 134 134 132 129 125 121 118 117 117 120 124 129 133 136 137 137 135 132 128 123 119 116 114 113 114 117 120 124 128 131 132 132 131 129 127 125 123 121 120 119 119 119 120 122 126 129 133 135 136 134 131 126 121 117 114 113 114 116 119 122 125 127 129 130 131 131 132 132 132 131 130 128 126 125 123 122 121 120 119 118 117 115 114 114 116 118 122 126 130 133 135 135 134 132 130 128 128 129 
135 136 137 136 133 129 124 119 116 114 115 118 122 126 130 133 135 135 134 131 128 124 120 117 115 115 116 118 122 125 128 130 131 130 129 128 127 125 125 124 123 122 121 121 120 121 123 126 129 132 134 134 132 129 125 122 119 118 118 119 121 122 124 124 124 124 125 126 128 130 132 134 134 134 132 131 129 126 124 122 120 117 115 114 113 113 114 117 120 125 129 132 134 135 134 133 132 131 132 133 
137 139 139 138 135 130 125 119 115 113 114 116 120 124 128 131 133 134 133 131 129 126 123 121 119 119 120 121 124 126 128 129 129 128 127 126 126 126 127 128 128 127 126 124 122 121 121 123 125 128 130 132 132 132 130 128 126 124 124 123 123 123 122 121 120 119 120 122 125 129 133 136 138 139 138 136 134 131 128 124 121 118 116 114 113 113 115 117 121 124 128 131 133 134 134 133 133 133 134 135 
139 140 141 139 136 131 126 120 116 114 114 115 119 123 126 130 132 133 133 133 131 129 127 126 125 124 124 125 126 127 127 127 126 125 124 124 125 127 129 132 133 133 132 129 125 122 120 120 121 124 127 130 132 133 133 132 131 130 129 127 125 123 121 118 116 115 116 119 123 128 134 138 142 143 143 141 138 135 131 127 123 120 117 116 115 116 117 119 122 125 128 130 132 132 132 132 132 133 134 136 
138 140 141 140 137 133 127 122 118 115 115 116 119 122 126 129 132 134 134 134 134 133 132 131 130 130 130 129 129 128 127 125 123 121 120 120 123 126 131 135 138 139 137 134 129 124 120 118 118 119 123 127 130 133 135 136 135 134 132 130 126 123 119 116 113 113 114 117 122 129 135 140 144 146 146 144 141 137 133 129 125 122 120 119 119 120 121 123 125 127 129 130 130 130 129 129 130 131 133 136 
137 140 141 140 138 134 129 124 120 117 116 117 120 123 127 130 132 134 135 136 136 135 135 135 135 135 134 133 132 130 127 123 120 117 116 117 120 125 131 137 141 143 142 139 133 127 121 117 115 116 119 124 128 133 136 137 137 136 134 130 126 122 118 115 113 112 114 118 123 130 136 141 145 147 147 145 142 138 133 129 126 124 123 122 123 125 126 128 129 130 129 129 127 126 125 125 126 128 130 134 
135 138 139 139 137 134 129 125 121 119 119 120 122 125 128 131 133 134 135 136 136 136 137 137 137 138 137 136 134 131 127 122 118 114 113 113 117 123 130 137 143 146 146 143 137 129 122 117 114 114 117 121 127 131 135 137 137 136 133 130 125 121 118 115 113 114 116 120 125 131 137 141 144 146 145 143 140 136 132 129 127 125 125 126 128 130 131 133 133 132 130 127 124 122 120 120 121 124 127 131 
133 136 137 137 136 133 129 125 123 121 121 122 125 127 130 132 133 134 134 134 134 135 136 137 138 139 139 138 136 133 128 123 117 113 111 111 114 120 128 136 143 147 148 145 139 132 124 118 114 114 116 120 126 131 134 136 136 134 131 127 124 120 117 116 116 117 120 123 128 133 137 140 142 142 141 139 136 133 130 128 127 126 127 129 132 134 136 137 136 133 130 125 121 118 116 115 117 120 124 129 
131 134 135 135 133 131 128 125 123 123 124 125 127 129 131 132 132 132 131 131 130 131 132 134 136 138 139 139 137 134 130 124 119 114 111 110 113 119 126 134 141 146 147 145 140 133 126 120 116 115 117 121 126 130 134 135 134 132 128 125 122 119 118 118 119 121 124 128 131 134 136 137 137 137 135 133 131 129 128 126 126 127 129 132 135 138 140 140 138 134 129 123 118 114 111 111 113 117 122 127 
130 132 133 132 130 128 125 124 123 124 125 127 129 131 132 131 130 129 127 125 125 125 127 129 132 135 137 138 138 136 132 127 121 116 113 112 113 118 124 132 138 143 145 144 140 134 128 122 119 118 120 123 127 131 133 134 132 129 125 122 120 119 119 121 123 126 129 132 134 134 134 134 132 131 129 128 127 126 125 125 126 128 130 134 137 140 142 142 140 135 129 122 116 111 109 109 111 116 121 126 
129 131 131 129 127 124 123 122 123 125 127 129 131 132 131 130 127 125 122 120 119 119 121 124 127 131 134 137 137 136 133 129 124 120 116 115 115 118 123 130 135 140 142 142 139 135 130 125 122 122 123 126 129 132 133 133 130 126 123 120 118 118 121 124 128 131 134 136 136 134 132 130 127 125 124 123 123 123 124 125 126 128 131 135 138 141 143 143 140 135 128 121 114 110 108 108 111 116 121 126 
130 131 129 127 124 121 120 121 122 125 128 131 132 132 131 128 124 120 117 114 113 114 116 119 123 128 131 134 136 136 135 132 128 124 121 119 119 120 124 128 133 136 139 139 137 134 131 127 125 125 127 129 132 133 133 132 128 124 120 118 117 119 122 127 132 136 138 138 137 134 130 126 123 121 120 121 121 123 124 125 126 128 131 134 137 141 142 142 140 135 128 121 114 110 109 110 113 118 123 128 
131 131 128 125 122 119 118 119 122 126 129 132 133 132 129 125 121 116 113 110 110 111 113 117 121 125 129 132 134 135 135 134 131 129 127 125 123 124 125 127 130 133 135 135 135 133 131 129 128 128 129 131 133 134 133 131 127 122 119 116 116 119 123 129 134 139 141 140 138 134 129 124 121 119 119 120 122 124 125 126 127 128 129 132 135 138 140 141 139 134 128 122 116 112 111 113 117 122 126 130 
133 131 128 124 120 118 118 119 123 126 130 133 133 132 128 123 118 114 110 109 109 110 113 117 120 124 127 129 131 133 134 134 134 133 132 130 128 127 127 127 128 129 131 132 132 132 131 130 130 130 131 132 133 134 132 129 125 121 118 116 116 119 124 130 136 140 142 141 138 134 128 124 121 120 120 122 124 126 127 127 127 127 127 129 132 135 137 138 137 134 129 123 118 116 115 117 121 126 130 133 
135 132 128 124 120 118 118 120 124 128 131 134 134 131 127 122 117 113 110 109 111 113 116 119 122 124 126 127 129 130 132 134 135 136 136 134 133 130 128 127 126 126 127 128 129 129 130 130 130 131 131 132 133 132 131 128 124 120 117 115 116 119 124 130 136 140 142 141 138 133 129 125 122 122 123 125 127 129 129 128 126 125 124 125 128 131 133 135 135 133 129 125 121 119 119 121 125 129 133 135 
136 133 128 124 120 118 119 121 125 129 133 135 134 131 127 122 117 113 112 112 115 118 121 123 125 125 125 125 126 127 129 132 135 137 138 138 136 132 129 126 123 122 123 124 125 127 128 129 130 130 130 131 131 130 129 126 123 120 117 116 117 119 124 129 134 138 140 139 137 133 129 126 125 125 127 129 131 131 130 128 125 122 121 121 123 126 130 132 133 132 130 127 124 122 123 125 129 132 135 136 
136 133 128 124 121 119 120 123 127 131 134 135 135 132 127 122 118 116 115 117 120 124 127 128 128 127 125 123 123 124 126 130 134 138 140 140 137 133 129 124 121 119 119 120 123 125 127 128 129 129 129 129 128 128 127 126 124 121 119 118 118 119 123 127 131 134 136 136 135 132 129 127 127 128 130 132 133 133 131 127 123 119 117 117 119 122 126 129 131 131 130 128 126 125 125 128 131 134 136 137 
135 132 128 124 121 120 121 124 128 132 135 136 135 132 128 124 120 119 119 122 126 130 132 133 131 128 125 121 119 120 123 128 133 137 140 140 138 133 127 122 118 115 115 117 120 123 126 128 128 128 127 127 126 126 126 126 125 123 122 120 120 120 122 124 127 130 132 132 131 130 129 128 128 130 132 133 134 133 130 125 121 117 115 114 116 120 124 127 129 130 129 128 127 126 127 129 132 134 136 136 
133 131 127 123 121 120 121 124 128 132 134 136 135 132 129 125 123 122 124 127 131 134 136 136 133 128 123 119 116 117 120 125 131 136 139 140 137 132 125 119 115 112 113 115 119 123 126 128 128 127 126 125 124 125 125 126 127 127 126 124 123 122 121 122 123 125 126 127 127 127 127 128 129 131 133 134 133 131 128 123 119 115 113 113 115 119 123 126 129 129 129 128 127 127 128 129 132 134 135 135 
132 129 126 123 120 119 120 123 126 130 133 134 134 132 130 127 126 126 128 131 135 137 138 137 133 127 121 116 113 114 117 123 130 135 138 138 135 130 123 117 112 110 111 114 119 123 127 129 129 128 126 124 123 124 126 128 130 131 131 129 127 124 122 120 120 120 121 122 123 124 125 127 129 131 132 133 132 129 126 121 117 114 112 113 116 119 123 126 129 130 129 129 128 128 128 130 131 133 134 134 
131 128 125 122 120 118 119 121 124 127 130 132 133 132 130 129 128 129 131 133 136 138 138 136 131 124 118 113 111 112 116 122 129 134 137 137 134 128 121 115 111 109 111 115 120 125 129 131 131 128 126 123 122 123 126 129 133 135 136 134 131 127 123 119 117 116 116 118 119 121 124 126 128 130 131 132 130 127 124 119 116 114 113 114 117 121 125 128 130 130 130 129 129 128 129 130 131 133 133 133 
131 128 125 122 119 118 117 119 121 124 127 129 131 131 130 130 130 131 133 135 137 138 137 133 128 121 115 111 109 111 116 122 129 134 137 136 132 126 119 114 110 110 112 117 123 128 132 134 133 130 126 123 121 122 125 130 135 139 140 139 136 131 125 120 116 113 113 114 117 120 123 126 128 130 131 130 129 126 122 119 116 114 115 117 120 123 127 130 131 132 131 131 130 130 130 131 132 133 133 133 
132 130 127 123 120 118 117 117 118 121 124 126 128 130 130 131 131 132 134 136 137 136 135 131 125 119 114 110 110 112 117 123 129 134 136 135 131 125 119 114 111 111 115 120 127 132 136 137 135 131 126 122 120 120 124 130 136 141 144 143 140 134 127 120 115 112 111 113 116 119 123 126 129 131 131 130 128 125 121 119 117 116 117 119 122 126 129 131 133 133 133 132 131 131 132 133 134 134 134 134 
134 132 129 126 122 119 117 116 117 119 121 124 126 128 130 131 132 133 135 136 136 135 133 129 124 119 114 112 112 115 119 125 131 135 136 134 130 125 119 115 113 114 118 124 131 137 140 140 138 132 126 120 117 118 121 128 135 141 145 146 143 137 129 122 115 112 111 112 116 120 124 128 131 132 131 130 127 124 121 119 118 118 119 122 125 128 131 133 134 134 133 133 132 132 133 134 135 135 136 136 
136 135 132 129 125 122 119 118 117 118 120 123 125 128 130 132 133 134 135 135 135 134 131 128 123 119 116 115 116 119 123 128 133 135 136 134 130 125 120 117 116 118 123 129 136 141 144 143 140 133 126 119 115 114 118 125 133 140 145 147 144 138 131 123 116 113 112 114 117 122 127 130 132 133 132 130 127 124 122 120 119 120 121 123 126 129 131 133 133 133 133 132 132 132 132 133 134 136 137 137 
138 137 135 133 129 126 123 120 119 120 121 123 126 128 130 132 133 134 135 134 134 132 130 127 124 122 120 120 121 124 128 132 135 136 136 133 130 125 121 119 119 122 127 133 139 144 147 145 141 134 125 118 113 111 114 121 129 137 143 146 144 139 132 124 117 114 113 115 119 124 129 132 134 134 132 130 127 125 122 121 121 122 123 125 127 129 131 131 132 131 130 130 129 129 129 130 132 134 136 137 
138 138 138 136 133 130 126 124 123 122 123 125 127 129 131 132 133 134 134 133 132 131 129 127 126 125 124 125 127 130 132 135 136 137 135 132 129 125 122 121 122 125 130 136 142 146 148 146 142 134 125 117 111 109 112 118 126 134 141 144 143 138 131 124 118 115 115 117 122 127 131 134 135 134 132 129 127 124 123 123 123 124 125 126 128 129 129 129 129 128 126 125 124 124 124 125 128 130 133 136 
136 138 138 137 135 132 130 128 126 126 127 128 129 131 132 133 133 133 132 131 129 128 127 127 126 127 128 130 132 134 136 137 137 136 134 131 127 124 122 122 123 126 131 136 142 146 147 146 141 134 126 117 111 109 110 115 123 131 137 141 141 137 131 124 119 116 116 119 123 128 132 134 134 132 130 127 125 124 124 124 125 126 127 128 128 129 128 127 126 124 122 120 118 117 117 119 121 125 129 133 
133 135 136 136 135 133 131 130 129 129 130 131 132 133 133 133 132 131 129 128 126 125 125 125 126 128 131 133 136 138 139 139 137 135 132 128 125 123 121 121 122 125 130 135 140 143 145 144 140 134 126 118 112 110 110 115 121 129 135 138 138 135 130 124 119 117 117 120 124 128 131 132 132 130 127 125 124 124 125 126 128 129 130 130 130 129 128 126 123 120 117 114 112 110 110 111 115 119 124 129 
129 132 133 133 133 132 131 131 131 132 133 134 135 135 134 133 131 129 126 124 122 121 121 122 125 128 132 135 138 140 140 139 136 133 129 125 122 120 119 119 120 123 127 131 135 139 141 141 138 134 127 121 115 112 112 116 121 127 133 136 136 133 128 124 120 118 119 121 125 128 130 130 129 127 124 123 123 124 127 129 132 133 134 133 132 130 128 126 122 119 114 110 107 105 104 106 109 114 119 124 
125 128 129 129 129 129 129 129 131 132 134 135 136 136 135 133 130 127 123 120 118 117 117 119 123 127 131 135 138 140 139 137 134 130 126 122 119 116 115 115 117 119 122 125 129 133 136 137 136 133 128 123 119 116 116 118 122 127 131 134 134 131 128 123 120 119 120 122 125 127 128 127 126 123 122 122 123 126 129 133 136 137 137 137 135 133 130 127 123 119 114 110 105 103 102 103 106 111 116 121 
124 125 126 125 124 124 125 126 129 131 134 136 137 136 135 132 129 125 121 117 115 114 115 117 120 125 130 134 137 138 138 136 132 127 122 118 115 113 112 112 112 114 116 119 123 126 130 132 133 132 129 126 123 121 120 122 124 128 131 133 133 130 127 124 121 120 121 123 125 126 126 125 123 121 120 121 124 128 132 137 140 141 141 139 137 135 132 130 126 122 117 112 108 105 104 105 108 112 117 121 
125 125 123 122 120 119 120 122 125 129 132 135 136 135 134 131 127 123 119 116 113 113 113 115 119 124 128 133 136 137 136 133 129 125 120 116 112 110 109 109 109 110 112 114 117 120 124 127 130 131 130 129 127 125 125 125 127 130 131 132 132 130 127 124 122 122 122 123 125 125 125 123 122 120 120 122 126 131 136 140 142 143 143 141 139 137 135 133 130 127 123 118 114 111 110 110 113 117 120 123 
128 126 123 120 117 116 117 119 122 126 130 132 134 134 132 130 126 123 119 116 114 114 114 116 120 124 128 132 134 135 134 132 128 123 118 114 111 109 108 107 108 108 109 111 113 116 120 124 127 130 131 131 130 129 129 129 130 131 132 132 132 130 127 125 123 123 123 124 125 125 125 123 121 121 121 124 128 133 138 142 143 143 142 140 138 136 136 135 134 133 130 126 123 120 119 119 121 124 127 128 
132 129 125 120 117 115 115 117 120 123 127 129 131 131 130 128 126 123 120 118 117 117 118 119 122 125 128 131 133 134 133 130 127 122 118 114 111 110 109 108 108 109 109 111 112 115 118 122 125 129 131 132 132 132 132 132 132 132 133 132 131 129 127 125 124 124 124 125 126 126 125 123 122 122 123 126 130 135 139 142 142 141 138 136 134 134 135 136 138 138 137 135 132 130 129 129 130 132 134 134 
137 133 128 123 119 116 116 117 119 122 124 126 127 128 127 126 125 124 123 122 122 122 123 124 126 128 130 132 133 133 131 129 126 122 119 115 113 112 111 112 112 112 113 113 114 116 118 121 125 128 130 132 133 134 134 133 133 133 133 132 131 129 127 126 125 124 125 126 126 126 126 124 124 124 125 128 132 135 138 139 138 135 131 129 127 128 131 135 139 142 143 142 141 139 138 138 138 139 140 139 
139 136 131 126 122 119 118 118 119 121 122 123 124 124 125 125 125 126 126 127 128 128 129 129 130 131 132 132 132 131 130 128 125 122 119 117 116 116 116 117 118 118 119 119 119 119 120 122 124 127 130 132 133 134 134 134 134 133 133 132 130 129 127 125 124 125 125 126 127 127 127 126 125 125 126 129 132 134 135 134 131 127 123 120 119 121 126 132 138 143 146 147 146 145 143 143 143 143 143 142 
140 137 134 130 127 124 122 122 121 121 121 121 121 121 122 124 125 127 130 132 133 134 135 135 134 134 133 132 131 130 128 127 124 122 120 119 119 120 122 124 125 126 126 126 125 124 123 123 124 126 128 130 131 132 133 133 133 133 132 131 130 128 126 125 124 124 125 126 127 128 127 127 126 126 127 128 130 131 130 127 123 118 113 111 111 114 120 128 135 142 146 148 147 146 144 143 143 143 142 142 
138 137 135 133 131 129 127 125 124 122 121 119 119 119 120 123 126 129 133 135 138 139 139 138 137 135 134 132 130 128 127 125 123 122 121 121 122 125 127 130 133 134 134 133 131 128 126 124 124 125 126 127 129 130 131 132 132 132 131 130 129 127 125 124 124 124 125 127 128 128 128 127 126 126 126 126 127 126 124 121 116 110 106 103 104 108 115 123 132 139 144 146 145 143 141 139 138 138 138 138 
133 134 135 135 134 133 132 129 127 123 121 118 117 117 119 122 126 131 135 138 140 141 141 140 138 135 133 131 128 126 125 123 122 121 122 123 125 128 132 136 139 140 140 138 135 132 128 125 123 123 124 125 126 128 129 130 130 130 130 129 128 126 125 124 124 125 126 127 129 129 129 128 126 125 124 124 124 122 120 116 111 106 101 99 100 104 111 120 128 135 140 141 140 138 135 132 131 130 131 132 
128 131 133 136 137 137 135 133 129 125 121 118 117 117 119 123 127 132 136 139 141 141 141 139 137 134 131 129 127 125 123 122 121 121 122 124 127 131 135 140 143 144 144 142 138 133 129 125 122 121 121 122 124 125 127 128 128 128 128 128 127 126 125 125 125 126 127 129 130 130 129 127 126 124 123 122 121 119 117 113 109 104 101 100 101 105 111 119 126 132 135 136 134 130 127 124 122 121 123 125 
123 127 132 135 138 138 137 135 131 126 122 118 117 117 120 123 128 132 136 138 139 139 138 136 134 132 130 128 126 124 123 122 121 122 123 125 128 132 137 141 144 146 145 143 138 133 128 124 121 120 120 121 122 124 125 125 126 126 126 126 126 125 125 126 127 128 130 131 131 131 129 127 125 123 121 120 119 118 117 114 111 107 105 104 105 108 114 120 126 130 132 131 128 124 119 116 114 114 115 118 
119 124 130 134 137 139 138 136 132 127 123 119 118 118 121 124 128 132 135 136 137 136 134 132 131 129 128 127 126 125 124 124 123 123 124 126 129 133 137 141 143 144 143 141 136 131 127 123 121 120 120 121 122 123 123 123 123 123 123 124 124 125 126 128 129 131 132 133 133 132 130 127 124 122 120 119 119 119 119 118 116 114 112 111 112 115 119 123 127 129 129 127 123 119 114 111 109 109 111 114 
118 123 128 133 137 138 138 136 132 128 123 121 119 120 122 125 129 131 133 133 133 131 129 128 127 127 127 127 127 128 127 127 126 126 127 128 130 133 136 139 141 141 140 137 133 129 125 123 122 122 122 123 124 124 123 122 121 120 120 121 123 125 127 130 133 135 136 136 135 133 130 126 123 121 120 120 121 122 123 123 123 122 121 121 122 123 125 128 129 129 128 125 121 116 112 109 108 108 110 113 
118 123 128 132 135 137 137 135 132 128 124 122 121 122 124 126 128 130 131 130 128 126 125 124 124 125 127 129 130 131 131 131 130 130 130 130 131 133 134 136 136 136 134 132 129 126 124 123 123 125 126 127 127 126 124 121 119 117 117 118 121 124 129 133 136 138 139 138 136 133 130 126 123 121 120 121 123 126 128 129 130 130 130 130 130 131 131 132 131 130 127 124 120 116 113 111 110 110 112 114 
121 124 127 131 133 135 135 133 131 128 125 123 122 123 124 126 128 128 128 126 124 122 121 121 123 125 128 131 133 135 135 135 134 133 132 132 132 132 132 132 132 130 128 126 124 123 123 124 126 129 132 133 132 129 125 121 117 114 114 115 119 124 130 135 139 141 142 140 137 133 129 125 122 121 121 123 126 129 132 135 136 137 137 136 136 136 135 134 133 130 127 124 121 118 116 114 114 114 116 118 
123 125 127 129 131 132 132 132 130 128 126 124 123 124 124 125 126 126 125 123 121 120 119 120 122 125 129 133 136 138 138 138 137 136 134 133 132 131 130 129 127 125 123 121 120 120 122 126 130 134 137 138 137 133 128 122 116 112 111 113 117 123 130 136 141 143 143 141 137 133 128 125 122 122 123 126 129 132 135 138 139 140 140 139 139 138 137 135 133 130 127 124 122 120 119 119 119 120 121 122 
126 126 126 127 128 129 130 129 129 127 126 125 124 124 124 124 124 123 122 120 119 118 119 120 123 127 131 135 137 139 139 139 138 136 134 132 131 129 128 125 123 121 118 117 117 118 122 127 133 138 142 143 142 137 130 122 116 111 110 112 116 123 130 137 141 143 143 140 136 131 127 124 123 123 125 128 131 134 137 138 139 139 139 138 137 137 135 134 131 129 127 125 123 123 123 124 125 125 126 126 
127 126 125 125 125 126 127 127 127 127 126 125 124 124 123 123 122 121 120 119 118 118 120 122 125 129 133 136 138 138 138 137 135 134 132 130 129 127 125 123 120 118 115 114 115 117 122 128 135 141 145 147 145 139 132 123 116 111 109 111 116 123 130 136 141 142 141 138 134 130 126 124 123 124 127 130 133 135 136 137 136 135 135 134 133 133 132 131 129 127 126 125 124 125 126 128 129 130 129 128 
127 125 123 122 122 123 124 125 126 127 126 125 124 123 122 121 121 120 119 119 119 120 122 125 128 131 134 136 137 136 135 133 131 129 128 127 126 125 124 122 119 117 114 113 113 116 121 127 135 141 146 148 146 140 133 124 117 112 110 111 116 123 130 135 139 140 139 135 131 128 125 124 124 126 129 132 134 134 134 133 131 130 129 128 128 128 128 128 127 126 125 125 126 127 129 131 132 133 132 130 
127 123 121 119 119 120 122 124 125 126 126 126 125 123 122 121 120 120 120 120 121 123 125 128 131 133 135 135 135 133 130 128 125 124 123 123 123 123 123 122 120 117 114 113 113 115 119 126 133 140 144 146 145 140 133 125 118 113 112 113 118 123 129 134 137 137 135 132 128 126 124 124 126 128 131 133 134 133 132 129 126 124 123 122 123 124 125 126 126 126 126 126 127 129 131 133 134 134 133 130 
126 122 119 117 117 118 120 123 125 127 127 127 126 124 123 122 121 121 121 122 124 126 128 131 133 135 135 134 132 129 125 122 119 118 118 119 121 122 123 123 122 119 116 114 113 114 118 123 130 136 140 142 141 137 131 125 119 116 115 117 120 125 129 133 134 133 131 128 125 124 124 125 128 131 133 134 134 132 129 125 121 119 118 118 119 122 124 125 126 127 127 127 128 130 132 134 135 135 133 130 
126 121 118 116 115 117 120 123 126 128 129 128 127 126 124 123 123 123 123 124 126 128 131 133 134 135 135 133 130 126 121 117 114 113 114 116 119 122 125 126 125 123 120 117 114 114 116 120 126 131 135 137 136 133 129 124 121 119 119 121 124 127 130 131 131 129 127 124 123 123 124 127 130 133 135 135 133 130 126 122 118 116 115 116 118 121 124 127 128 129 129 129 130 132 133 135 136 136 134 130 
126 121 117 115 115 117 120 123 127 129 130 131 130 128 127 126 125 125 126 127 128 130 132 134 135 135 134 132 128 124 119 115 112 110 111 114 119 123 127 130 130 128 124 120 117 115 115 118 122 126 129 131 131 129 126 123 122 122 123 125 128 130 131 130 128 126 123 121 121 122 125 128 132 134 135 135 132 129 124 120 117 115 115 116 119 123 126 129 131 131 131 131 132 133 135 136 137 136 134 130 
126 122 118 116 116 118 121 125 129 131 133 133 132 131 130 129 128 128 128 129 130 131 132 133 134 134 133 131 128 124 119 114 111 110 111 114 119 125 130 133 134 132 128 124 119 116 115 117 119 122 124 126 125 124 123 122 122 124 127 130 132 133 132 130 127 123 120 119 120 122 126 130 133 135 135 134 131 127 123 119 116 115 116 118 122 125 129 131 133 133 133 133 133 134 135 136 137 136 134 131 
127 122 119 117 118 120 123 127 131 133 135 135 134 133 132 131 130 130 130 130 130 130 131 131 132 133 132 131 128 125 120 116 113 111 112 116 121 127 133 137 138 136 132 127 122 118 117 117 118 120 121 122 121 120 120 121 123 126 130 134 136 136 134 130 125 121 119 118 120 123 127 131 133 135 134 132 129 125 122 119 117 117 118 121 124 128 131 133 134 134 133 133 133 134 135 136 137 137 134 131 
127 123 120 119 119 122 125 129 132 135 136 136 136 135 133 132 132 131 130 130 129 129 129 129 130 131 131 131 129 127 123 119 116 114 115 118 123 129 135 139 140 139 135 130 125 121 119 118 119 120 120 120 119 118 118 119 123 128 133 137 139 138 135 130 124 120 117 117 120 123 128 131 133 134 132 130 127 124 121 119 119 119 121 123 126 129 131 132 133 132 132 132 132 133 134 136 137 136 135 131 
127 123 121 120 121 123 127 131 134 136 137 136 135 134 133 132 131 131 130 129 128 127 126 127 127 129 130 131 131 129 126 122 119 117 117 120 124 130 136 139 141 139 136 131 126 123 121 121 122 122 122 120 118 116 116 118 122 128 134 138 140 139 135 129 123 119 116 117 120 124 128 131 133 132 130 128 125 122 121 120 120 121 122 124 126 128 129 130 130 129 129 129 130 131 133 135 136 136 134 131 
126 122 120 120 121 124 128 132 134 136 136 135 134 132 131 130 129 129 128 127 126 125 124 125 126 128 130 132 132 132 129 126 122 120 119 121 125 130 135 138 140 138 135 131 128 125 124 125 126 126 125 123 120 117 116 118 122 128 134 139 140 139 134 128 122 118 116 117 120 125 128 131 132 130 128 125 123 121 121 121 121 122 123 124 125 126 126 126 125 125 125 125 127 129 132 134 135 135 133 130 
124 121 119 119 121 124 128 132 134 135 135 133 131 129 127 126 126 126 126 125 125 124 123 124 125 127 130 133 134 134 132 128 125 122 121 121 124 128 133 136 137 136 133 130 128 127 127 129 131 131 130 127 122 119 117 118 122 127 133 138 139 138 133 127 121 117 116 117 121 125 129 130 130 129 126 124 122 121 121 122 123 123 124 124 123 123 122 121 120 120 121 122 125 128 131 133 134 134 132 128 
122 118 116 116 119 123 127 131 133 134 133 131 128 125 123 122 122 123 123 124 124 123 123 124 126 128 131 133 135 135 133 130 126 123 121 121 123 126 130 133 134 133 131 129 127 128 129 132 135 136 134 131 126 121 119 119 122 127 133 137 138 136 131 125 120 116 116 118 121 125 128 130 129 127 124 122 121 121 122 123 124 124 124 123 121 120 118 117 117 117 118 121 124 127 131 133 134 133 130 126 
119 115 113 114 116 121 126 130 132 133 131 128 125 122 120 119 119 120 121 122 123 124 125 126 127 130 132 134 135 135 133 129 126 122 120 120 121 124 127 130 131 130 129 127 127 128 131 135 138 139 138 135 130 124 121 120 123 127 132 135 136 134 130 124 119 116 116 119 122 126 128 129 128 125 123 121 121 122 123 125 126 126 124 122 120 118 116 115 115 116 118 121 125 129 132 135 135 133 129 124 
116 112 110 111 114 119 124 129 132 132 131 127 124 120 118 116 117 118 120 122 124 125 127 128 130 132 133 134 135 134 131 128 124 121 119 119 120 123 126 128 129 128 127 126 126 128 131 136 139 141 141 137 132 127 123 122 124 127 132 134 135 133 129 124 120 118 118 121 124 127 129 128 127 124 122 121 121 123 125 127 128 127 125 123 120 118 116 115 115 117 120 123 128 132 135 137 136 133 128 122 
114 110 107 108 112 117 123 128 131 132 131 128 124 120 117 116 116 117 119 122 125 127 129 131 133 134 134 134 133 132 129 125 122 119 118 118 120 122 125 127 128 128 126 125 126 127 131 135 139 141 140 138 133 128 125 124 125 128 132 134 135 133 129 125 122 120 121 124 127 129 129 128 126 123 121 121 122 124 127 129 129 129 127 124 122 119 118 117 118 121 124 128 132 136 139 140 138 134 128 121 
113 108 106 107 111 116 122 128 132 133 132 130 126 122 119 117 117 118 120 123 126 129 132 134 135 135 135 133 131 129 126 123 120 118 117 118 120 123 126 128 129 128 127 126 126 127 130 133 136 138 138 136 132 128 126 125 127 130 133 135 136 134 131 127 125 124 126 128 130 131 131 128 125 122 121 121 122 125 128 130 131 131 129 126 124 122 121 122 123 126 129 133 137 140 142 142 140 135 128 120 
113 109 107 108 111 117 123 129 133 135 135 133 129 126 122 120 119 119 121 124 128 131 134 136 137 136 134 132 129 125 122 120 118 117 118 119 122 126 128 131 131 131 129 127 126 126 128 130 133 134 134 132 129 126 125 125 128 131 134 136 137 135 133 131 129 129 131 132 134 134 132 129 125 122 121 121 123 126 129 131 132 132 131 129 127 126 126 126 128 131 134 137 141 143 144 143 140 135 128 120 
114 110 109 110 114 119 125 131 135 137 137 136 133 130 126 123 122 122 123 126 129 133 135 137 137 136 133 130 126 122 119 117 116 117 119 121 125 128 131 133 134 133 131 129 127 126 126 127 128 129 128 126 125 123 123 125 128 132 135 138 138 137 135 134 133 134 135 137 138 137 134 130 126 122 121 121 124 127 130 132 133 133 132 130 129 129 129 130 132 135 137 140 142 144 144 143 139 134 127 120 
117 114 113 115 118 123 128 133 136 138 139 138 136 133 130 127 125 124 125 127 130 133 136 137 137 135 131 127 123 119 117 116 116 118 121 124 128 131 134 136 136 135 133 131 128 126 125 124 124 123 122 121 120 120 121 124 128 132 136 138 139 138 137 136 136 137 139 140 141 139 135 131 126 123 122 122 125 128 131 133 134 133 132 131 130 130 131 133 135 136 138 140 141 142 141 140 136 132 126 121 
119 118 119 121 124 128 131 134 137 138 139 138 137 135 132 129 127 126 126 128 130 134 136 137 136 133 129 125 120 117 115 115 117 119 123 127 131 134 136 138 138 137 135 132 129 127 124 122 121 119 117 116 115 116 119 123 128 132 136 138 139 138 137 136 137 138 140 142 142 140 136 131 127 124 123 124 126 129 132 133 133 132 131 130 129 130 131 133 134 136 137 137 137 137 136 134 132 128 125 122 
122 123 125 127 130 132 134 136 137 137 138 137 136 135 132 130 128 127 127 128 131 134 136 136 135 132 127 122 118 115 114 115 118 121 125 129 133 136 137 138 138 137 135 132 130 127 124 122 119 116 114 112 112 113 117 121 127 132 135 137 137 136 134 134 135 137 139 141 141 139 135 131 127 125 124 126 128 131 133 133 133 131 129 128 127 128 129 130 131 132 133 132 132 131 129 128 126 124 123 122 
125 128 131 133 135 136 136 136 136 135 135 135 134 133 132 130 129 128 128 129 131 133 135 135 133 130 125 120 117 114 114 116 119 124 128 131 134 136 137 137 136 135 134 132 130 128 125 122 119 116 113 111 111 112 116 121 126 131 133 134 134 132 130 130 131 133 135 137 138 136 133 130 127 125 126 128 130 133 134 133 132 129 126 124 124 124 125 126 127 127 127 126 125 124 122 121 120 121 121 123 
127 131 135 137 138 138 137 135 134 132 131 131 131 131 130 129 128 128 128 129 131 133 134 134 132 128 124 119 116 114 115 117 121 125 129 133 135 135 135 135 133 132 131 130 129 128 126 124 121 117 114 112 111 113 116 121 126 130 132 131 130 127 125 124 124 127 129 132 133 132 130 128 126 126 127 129 132 134 135 133 131 127 124 121 120 120 120 121 122 123 122 121 119 118 116 116 116 118 120 123 
129 133 137 139 140 138 136 133 131 129 128 128 128 128 128 128 128 128 128 130 132 133 134 133 131 127 123 118 115 114 115 118 122 126 130 133 134 134 133 132 130 129 128 128 128 128 128 126 124 120 117 114 113 115 118 122 126 129 130 128 126 122 119 117 118 120 123 125 127 127 126 125 125 126 128 131 133 135 135 133 129 125 121 118 116 116 117 118 119 119 119 117 116 114 113 113 114 116 120 124 
129 133 136 138 138 136 134 131 128 126 125 125 126 126 127 127 127 127 128 130 131 133 134 133 130 127 122 118 115 114 116 118 122 127 130 133 133 133 131 129 127 126 125 126 127 128 129 128 127 124 121 118 117 118 120 123 127 129 129 126 122 118 114 112 112 114 117 120 122 123 123 123 124 126 128 131 134 135 135 132 128 123 119 116 114 114 114 116 117 118 118 117 116 115 114 114 115 117 121 125 
129 132 134 135 134 133 131 128 126 124 124 124 124 125 125 126 126 126 127 129 131 132 133 132 130 127 122 119 116 115 116 118 122 126 129 132 133 132 130 127 125 123 123 124 126 128 130 130 130 127 125 122 121 121 123 125 128 129 128 125 121 116 112 109 109 111 113 116 118 120 121 122 123 125 129 132 134 135 134 131 127 122 118 115 113 113 114 116 118 119 119 119 119 118 118 118 119 120 123 126 
128 129 130 130 129 128 127 126 124 124 124 124 124 124 124 124 124 125 126 127 129 131 132 132 131 127 124 120 117 115 116 118 121 124 128 131 132 131 130 127 124 122 122 122 124 127 130 131 132 130 128 126 124 124 125 127 129 130 129 126 121 117 112 110 109 110 112 115 117 118 120 121 123 126 129 132 133 134 132 129 125 121 117 115 114 115 117 119 121 123 124 124 124 124 124 124 124 124 125 126 
126 125 125 124 124 124 124 124 124 125 125 125 125 124 123 123 122 122 123 125 127 130 132 132 132 129 126 122 119 116 116 117 119 123 126 129 131 132 131 128 126 123 122 122 123 126 129 131 133 132 131 129 127 127 128 129 131 131 130 128 124 120 116 113 113 113 115 116 118 119 120 122 124 126 129 131 133 132 131 128 124 120 118 117 117 118 120 123 125 128 129 130 131 131 131 131 130 129 128 127 
124 122 120 120 120 121 122 124 125 127 127 127 126 125 123 121 119 119 119 121 124 128 131 133 133 132 129 125 122 118 116 116 118 121 124 128 131 133 133 131 128 125 123 122 123 125 128 131 133 133 132 130 129 128 129 130 132 132 132 130 128 124 122 120 119 119 119 120 120 121 122 123 125 127 130 131 132 131 129 126 123 121 119 119 120 122 125 128 131 133 134 136 137 137 137 136 135 133 130 127 
123 119 117 117 118 120 122 125 128 129 130 129 127 125 122 119 116 115 116 118 121 126 130 133 135 135 133 130 125 121 118 116 117 119 123 127 131 134 135 133 131 127 125 123 123 125 128 130 132 133 132 131 130 129 129 130 132 133 133 133 132 130 128 127 126 125 125 124 124 124 124 125 127 129 131 132 132 130 128 125 123 121 121 122 124 127 130 133 135 137 138 139 140 141 141 140 138 135 131 127 
122 118 116 116 117 120 124 127 130 132 132 131 129 125 121 117 114 112 112 114 118 124 129 134 138 139 138 135 130 125 120 117 116 118 121 126 131 134 136 136 133 130 127 124 124 125 127 130 132 132 132 131 129 129 128 129 131 132 134 135 135 135 134 134 133 132 130 129 127 126 126 127 128 130 132 133 132 130 128 125 123 122 123 125 128 131 134 136 138 139 139 140 141 141 141 141 139 136 131 127 
122 119 117 117 120 123 127 130 133 135 135 133 130 126 121 117 113 111 110 112 116 122 129 135 140 142 142 140 135 129 123 119 117 117 120 125 130 134 136 137 135 131 128 126 125 125 127 129 131 132 132 130 129 128 127 128 129 131 133 135 136 138 138 138 138 136 134 132 129 128 127 128 130 132 133 134 133 131 128 126 124 123 125 127 130 134 136 138 138 138 138 137 138 138 139 138 137 134 131 126 
123 121 120 121 123 127 130 133 136 136 136 134 131 127 123 118 114 111 110 112 115 121 128 135 141 144 145 143 139 133 126 121 117 117 119 123 128 133 135 136 134 132 128 126 125 126 127 129 131 132 131 130 128 126 125 125 126 128 130 133 136 138 140 140 140 138 136 133 130 128 127 128 130 132 134 135 134 132 129 127 125 125 126 129 132 135 137 137 136 135 133 132 132 133 133 134 134 132 130 126 
125 124 124 125 128 130 133 135 136 137 136 135 132 129 126 122 118 114 113 113 115 120 127 134 140 145 147 145 141 135 128 122 118 117 118 122 126 130 133 133 132 130 128 126 126 126 128 130 131 132 131 129 127 125 123 123 123 124 127 130 133 136 138 140 139 138 135 132 129 127 126 128 130 133 135 136 136 134 131 128 126 126 127 129 132 134 135 134 133 130 128 126 125 126 127 129 130 130 129 127 
128 128 129 130 131 133 135 135 136 136 135 134 133 132 130 126 123 119 116 115 116 120 125 132 138 143 145 145 141 136 129 124 119 117 118 121 124 127 129 130 129 128 126 125 125 127 129 130 132 132 131 129 127 124 122 121 120 121 123 125 128 132 134 136 136 135 133 130 127 125 125 127 130 133 136 137 137 135 132 129 127 126 127 129 131 132 132 131 128 125 121 119 119 120 122 124 127 128 129 129 
132 132 133 134 134 134 134 134 133 133 133 133 134 134 134 132 129 125 121 118 117 119 123 128 134 139 142 142 139 135 129 124 120 118 118 120 122 124 126 126 125 125 124 124 125 127 129 131 132 132 131 129 126 124 121 119 118 118 119 121 123 126 129 131 132 131 129 127 124 123 124 126 129 133 136 138 137 136 133 130 127 126 126 127 128 129 128 126 123 119 116 114 114 115 118 122 125 128 130 131 
135 135 136 136 135 134 132 130 128 128 129 131 134 136 138 137 135 131 126 121 118 118 120 124 129 133 136 137 136 132 128 124 121 119 119 119 121 122 123 122 122 121 122 122 124 126 129 131 132 132 131 129 127 124 122 120 118 117 117 117 119 121 124 126 127 127 126 124 123 122 123 125 128 132 135 137 137 135 133 130 127 126 125 125 126 125 124 121 118 115 112 111 111 113 117 121 125 129 131 133 
137 138 137 136 134 132 128 125 123 122 124 127 132 137 140 141 139 135 129 124 119 117 117 120 124 128 130 132 131 129 126 123 121 120 120 120 121 121 121 120 119 119 120 121 123 126 128 130 131 131 130 129 127 126 124 122 120 118 116 116 116 118 119 121 123 124 124 123 122 122 122 124 127 131 133 135 136 134 132 130 127 126 124 124 123 122 120 117 114 112 110 109 111 114 118 123 127 131 134 136 
138 138 137 135 132 128 124 120 117 117 119 123 129 135 140 142 141 137 131 125 119 116 115 116 119 122 125 127 127 126 124 123 122 121 121 122 122 121 120 119 118 118 118 120 122 125 127 129 130 130 130 129 128 128 127 125 123 121 119 117 116 116 117 119 121 122 123 123 122 122 123 124 126 128 131 133 133 133 131 130 128 126 125 123 122 120 118 115 112 110 110 110 113 116 121 125 130 133 136 137 
138 138 136 134 130 126 120 116 113 112 115 120 126 133 138 141 141 137 132 125 120 116 114 115 117 119 122 123 123 123 123 122 122 123 124 124 124 123 121 120 118 118 118 120 122 124 126 128 128 129 129 129 130 130 130 130 128 126 123 120 118 117 117 118 120 122 123 124 123 123 123 123 124 126 127 129 130 131 130 130 129 127 126 124 122 120 117 114 112 111 111 113 116 120 124 129 132 135 137 138 
137 136 135 132 128 124 118 114 110 110 112 116 123 130 135 139 139 136 131 125 120 116 115 115 116 118 120 121 122 122 122 122 123 125 126 127 126 125 124 122 120 119 119 120 122 124 125 126 127 128 128 129 131 133 134 134 133 131 128 125 122 120 119 120 121 123 125 125 125 124 123 122 122 122 124 125 127 128 130 130 130 130 129 127 124 121 118 115 114 113 114 116 120 124 128 131 134 136 136 137 
134 133 132 131 127 123 118 114 110 109 110 114 120 127 132 135 136 134 130 126 122 118 117 117 118 120 121 122 122 122 122 123 125 126 128 129 129 128 126 124 122 121 121 121 122 124 125 126 126 127 128 130 132 135 137 138 138 136 133 130 126 124 123 123 124 126 127 127 127 125 123 121 120 119 119 121 123 126 129 131 133 133 132 131 128 124 121 118 116 116 118 120 124 127 130 132 134 134 134 134 
130 130 130 130 128 124 120 116 112 111 111 114 119 125 129 133 134 133 130 127 124 122 121 121 121 122 123 123 123 123 123 124 126 128 130 131 131 130 129 127 125 123 123 123 124 125 125 126 126 127 128 130 133 136 138 140 141 139 137 134 130 128 126 126 127 129 130 130 129 127 123 120 117 116 116 117 120 124 129 133 135 137 137 135 132 128 125 122 120 120 122 124 127 130 131 132 132 131 130 130 
125 127 128 129 129 127 123 120 116 114 114 116 120 124 128 131 133 132 131 129 127 125 125 125 125 125 125 125 125 125 125 126 127 129 131 132 133 132 130 128 127 125 125 125 125 126 127 127 128 128 129 131 133 135 138 140 140 140 138 135 133 131 130 130 131 132 133 132 131 128 124 119 115 113 112 114 117 122 128 133 137 140 140 139 136 132 129 126 125 125 126 128 130 131 131 130 129 127 125 125 
121 124 127 129 130 130 127 124 121 118 118 119 121 125 129 131 133 133 133 131 130 129 128 128 128 128 127 127 126 126 126 127 128 130 132 133 133 132 131 129 127 126 126 126 127 128 129 129 130 130 130 131 132 134 135 137 137 137 136 135 133 132 132 133 134 135 136 135 133 129 124 119 114 111 110 111 115 121 127 133 138 142 142 141 139 135 132 130 128 129 130 131 132 132 131 128 125 122 120 120 
118 122 126 129 132 132 130 128 125 122 121 122 124 127 130 133 135 135 135 134 133 131 130 130 129 128 128 127 127 127 127 128 129 131 132 132 132 131 130 129 127 126 126 127 128 130 131 132 132 132 132 131 131 131 131 131 132 132 132 132 132 132 133 135 136 138 138 137 135 131 125 119 114 110 109 110 113 119 126 132 138 141 143 142 140 137 134 132 131 132 133 134 134 132 130 126 122 118 116 116 
117 121 125 130 132 133 132 130 127 125 124 125 127 130 133 135 137 138 137 136 134 132 131 129 128 127 126 126 126 127 128 129 130 131 131 131 131 130 128 127 126 125 125 127 128 130 132 134 135 135 134 132 130 128 126 125 125 125 126 127 129 131 133 136 138 140 140 139 137 132 127 120 115 111 109 109 112 117 124 130 135 139 140 140 138 136 134 133 133 133 135 135 135 133 129 124 120 116 114 114 
117 121 126 130 133 133 132 130 128 126 126 127 129 132 135 138 139 139 139 137 134 132 129 126 125 123 123 123 125 126 128 129 131 131 131 131 129 128 126 125 124 123 124 125 127 130 133 135 137 137 135 132 129 125 122 119 118 118 119 122 125 128 132 136 139 141 141 140 138 134 128 122 117 112 110 110 112 116 122 127 132 135 136 136 134 133 132 131 132 134 135 136 136 133 129 124 119 115 113 114 
118 122 127 130 132 132 131 129 126 125 125 127 129 133 136 139 140 140 139 137 133 130 126 123 121 119 119 121 123 125 128 130 131 132 131 130 128 126 124 122 121 121 121 123 126 129 133 136 137 138 136 133 128 123 118 114 112 112 114 117 121 126 131 135 138 140 141 140 138 134 130 124 119 115 112 112 113 116 120 124 127 130 131 130 129 128 128 129 130 133 135 136 136 134 130 125 120 117 115 116 
122 125 129 131 132 131 129 126 124 123 123 125 129 133 136 139 140 140 138 135 131 127 123 119 117 116 116 118 121 125 128 130 132 132 131 129 127 125 122 121 119 119 119 121 123 127 131 134 137 138 137 134 129 123 117 113 110 109 111 114 119 124 129 133 136 138 139 139 137 134 131 127 122 119 116 115 115 117 119 121 124 125 125 124 123 123 123 125 127 130 133 135 136 134 131 127 123 120 119 119 
126 129 131 132 132 130 127 123 121 120 120 123 127 131 135 138 139 139 137 133 129 125 120 116 114 113 114 117 120 124 128 131 132 132 131 129 127 124 122 120 119 118 118 119 121 125 128 132 135 137 137 134 130 124 118 113 110 110 111 114 118 123 127 130 133 135 135 136 135 134 132 129 126 123 121 119 118 119 119 120 121 121 120 119 118 118 119 121 124 128 132 134 135 135 133 130 126 124 123 124 
