P2
100 100
255
139 170 196 212 215 204 174 128 82 52 39 42 61 98 146 186 208 213 203 175 130 81 47 29 23 24 30 44 68 100 134 159 172 173 164 147 125 102 84 72 66 63 63 66 73 87 106 125 142 152 154 147 131 109 87 69 55 45 37 34 35 42 57 78 104 131 157 178 193 200 198 188 171 152 133 115 97 78 62 48 39 33 30 28 27 30 38 56 86 127 166 191 200 194 174 144 116 100 99 114 
179 199 214 221 216 197 159 109 65 39 29 32 48 82 130 174 201 209 200 174 132 87 53 36 30 32 39 51 68 91 113 129 135 134 126 114 103 96 93 95 96 96 92 86 80 78 82 91 102 115 127 136 139 135 125 111 95 78 61 47 39 36 40 49 64 85 111 140 168 189 201 203 199 191 179 163 142 115 86 59 41 29 22 19 18 20 26 41 68 107 148 178 192 191 179 160 144 136 142 157 
205 217 225 225 215 188 143 91 51 30 23 26 41 73 120 167 197 208 202 181 146 105 74 56 51 53 60 70 81 92 99 101 99 94 88 84 86 95 110 127 137 140 133 117 97 79 67 64 70 82 101 124 147 161 166 160 147 125 99 72 51 37 32 33 39 51 72 102 139 174 198 211 216 215 210 200 182 154 116 79 50 32 22 18 17 19 26 39 64 99 136 165 178 179 172 163 158 161 172 189 
218 227 230 226 211 178 128 76 42 25 20 24 39 71 118 166 197 209 207 192 166 135 109 93 89 92 98 105 108 104 95 83 72 63 60 62 74 97 129 158 176 182 174 153 121 87 62 49 48 58 79 113 150 180 196 199 191 173 143 106 70 45 31 25 26 32 47 73 113 157 192 213 223 227 226 221 208 184 146 102 65 41 29 23 23 27 36 51 73 102 131 150 157 156 150 148 152 166 185 203 
221 230 231 225 206 169 115 66 36 22 19 26 43 77 124 170 199 211 211 202 186 166 150 140 139 143 148 149 143 126 100 75 56 45 42 47 65 98 142 180 203 210 203 182 145 100 63 42 36 42 63 101 149 189 212 221 219 206 179 138 92 55 34 24 21 24 34 57 97 145 187 212 225 231 232 229 220 201 169 126 86 58 44 39 41 49 61 78 98 118 131 135 131 122 116 117 129 152 180 205 
218 229 230 223 201 159 104 59 33 23 23 32 53 90 136 177 202 212 212 206 197 187 181 179 182 187 190 188 175 149 111 74 48 34 31 38 58 97 148 191 216 225 221 202 166 116 69 41 30 33 53 91 144 191 219 231 232 223 201 162 110 66 39 25 20 22 32 53 91 140 183 210 223 230 231 229 222 207 182 147 111 85 72 70 76 88 104 121 135 141 137 123 104 88 79 81 96 126 164 197 
211 225 227 218 194 150 96 55 33 27 30 44 71 109 151 184 201 206 204 199 194 192 195 200 207 213 215 212 197 167 122 76 45 29 25 31 52 92 147 194 221 232 229 214 182 131 79 44 29 29 46 83 138 189 220 234 236 230 211 173 121 74 44 29 24 27 38 60 98 144 182 206 218 222 222 219 213 201 182 158 135 119 113 117 127 142 157 168 173 166 145 114 83 61 50 51 66 96 140 182 
200 219 223 212 185 140 89 54 37 35 44 65 96 133 166 186 192 190 183 176 174 179 189 202 214 223 226 223 210 180 133 81 45 27 21 27 46 86 142 192 222 234 233 222 194 146 91 50 31 29 43 79 133 185 217 232 235 228 209 173 123 77 48 36 34 40 55 80 116 154 183 200 206 206 202 196 189 180 169 158 151 150 155 165 177 189 199 204 201 184 152 108 69 44 33 33 44 71 115 164 
189 211 216 204 174 129 84 55 45 49 67 94 127 157 175 180 173 159 145 136 136 147 166 189 209 223 229 228 217 190 143 90 49 28 21 25 42 80 136 188 219 233 235 226 203 160 106 62 38 33 46 79 131 180 212 226 228 219 198 161 115 76 54 47 51 64 85 112 142 169 185 189 185 176 165 155 147 142 141 144 154 169 184 198 210 218 224 224 216 195 155 103 60 34 23 22 31 54 95 147 
179 203 207 193 161 117 79 59 58 72 98 130 158 176 179 166 144 118 98 88 89 103 129 162 192 214 226 228 220 197 156 103 59 34 24 26 42 77 131 182 215 230 234 228 209 174 124 79 51 44 55 86 133 177 205 216 214 200 174 138 99 72 61 64 79 101 127 151 172 183 184 174 156 135 116 104 97 96 104 121 146 174 198 215 226 232 235 233 223 198 153 97 53 29 19 18 25 45 83 134 
171 194 196 178 144 105 76 67 76 101 134 164 184 188 175 147 111 79 59 49 51 63 89 126 166 198 217 224 221 204 170 123 78 48 35 34 48 79 127 176 209 225 230 226 213 185 144 102 73 64 74 101 139 174 194 199 190 170 140 108 81 68 70 87 114 144 169 187 196 194 182 157 124 94 73 61 56 59 71 95 130 169 200 220 232 238 239 236 224 196 148 91 48 26 17 16 23 42 77 127 
167 186 184 161 126 93 74 76 97 132 167 191 201 194 168 126 83 52 34 27 28 38 58 92 135 175 203 217 219 209 186 148 107 75 57 52 61 87 126 168 198 214 221 220 210 190 160 127 103 94 102 123 150 171 179 174 156 130 101 77 64 64 81 111 148 180 200 210 211 201 179 143 101 67 46 37 34 38 50 74 111 155 193 218 231 238 239 234 221 190 139 83 43 23 16 16 24 44 79 126 
167 180 170 142 107 81 73 86 118 158 191 209 211 195 160 110 64 36 22 17 18 24 39 65 104 147 182 204 213 211 198 174 144 114 94 84 86 101 127 156 179 194 201 203 198 187 169 149 135 130 135 148 161 167 162 144 118 91 69 55 52 63 90 131 172 202 218 223 219 205 178 136 91 56 37 28 26 30 39 59 93 137 178 208 225 233 235 229 213 179 127 74 39 22 16 19 29 51 88 132 
170 174 155 122 90 70 71 93 133 176 206 219 216 196 154 100 54 28 17 13 14 20 30 49 78 117 155 184 201 208 205 195 178 158 140 126 119 119 126 137 149 159 166 170 171 170 166 161 158 159 164 168 169 162 143 116 88 64 48 42 45 62 95 141 183 211 224 227 221 207 179 139 95 61 41 32 30 31 37 51 77 114 155 188 210 221 225 220 202 166 114 66 36 22 19 24 38 65 104 144 
176 169 142 105 74 61 67 96 141 185 213 223 218 196 152 97 52 28 17 15 16 21 28 41 61 90 123 154 179 195 203 205 200 192 180 166 151 136 122 114 111 113 117 123 130 139 150 160 170 177 181 181 173 155 128 97 69 50 40 37 44 63 97 141 182 208 220 223 218 205 183 149 111 81 61 50 44 42 42 49 64 90 123 156 183 200 207 204 186 150 102 60 35 25 25 34 53 86 126 160 
182 165 130 90 62 52 62 92 140 186 214 224 219 197 156 102 59 34 24 23 25 29 35 42 53 69 92 119 146 171 191 204 210 211 205 193 174 146 115 91 76 70 71 76 87 104 126 150 170 183 187 183 170 147 117 87 64 49 42 42 49 66 95 132 168 192 205 208 206 198 184 163 138 115 97 84 74 64 55 52 56 68 90 116 143 165 179 180 167 136 96 62 41 34 37 52 78 115 152 177 
187 162 120 78 52 44 54 84 130 177 208 220 217 199 163 116 75 51 42 41 45 49 52 53 54 58 68 85 108 137 167 192 209 217 217 207 185 149 106 72 52 42 41 45 56 75 103 135 163 179 184 177 161 138 111 88 71 62 58 58 63 73 92 117 142 161 173 179 182 182 180 174 165 155 145 133 117 97 77 60 52 53 62 78 100 124 144 154 150 130 100 74 57 53 61 81 112 148 177 192 
191 159 113 70 45 37 45 70 112 158 192 210 211 199 172 136 103 82 75 77 82 86 84 76 65 56 53 58 73 99 134 171 199 215 219 211 187 146 97 59 37 28 26 29 40 60 89 124 154 170 173 164 147 127 109 97 91 89 89 89 88 89 93 100 109 118 126 134 143 155 168 179 186 188 186 178 161 135 101 72 52 43 44 52 67 88 113 133 141 135 118 100 88 88 99 122 151 179 198 203 
194 159 110 66 40 32 37 55 87 128 165 188 197 194 180 158 138 126 124 129 136 137 129 110 84 61 47 42 49 68 101 145 184 208 217 210 184 139 88 50 30 21 20 25 36 57 88 122 149 161 158 145 128 114 108 111 119 127 133 132 126 114 100 88 80 78 79 86 99 121 149 177 197 208 212 208 193 164 122 81 53 38 33 37 47 67 95 125 145 152 147 138 132 134 145 164 185 203 212 211 
198 162 112 66 39 28 29 41 63 94 127 155 172 180 180 175 170 169 173 180 186 185 172 145 106 70 45 33 34 46 75 119 166 198 211 205 179 132 81 45 26 20 21 28 44 68 100 131 151 153 142 123 107 100 106 124 147 166 176 176 165 144 114 84 63 51 47 51 64 91 130 171 201 218 225 222 209 178 132 85 52 35 28 30 40 61 93 130 159 174 177 175 173 175 183 195 207 217 221 216 
203 169 120 73 42 28 25 30 42 62 87 113 138 158 173 183 191 197 205 212 216 214 201 171 124 77 45 29 26 35 59 102 152 189 205 200 172 125 75 42 27 23 28 41 63 94 127 151 160 151 128 103 86 85 101 131 166 192 205 206 195 170 131 88 55 37 30 32 44 71 115 165 202 222 229 227 212 180 131 82 48 32 26 29 41 65 102 144 176 193 199 199 198 200 204 211 218 224 225 220 
209 180 135 86 51 31 24 24 29 40 55 76 102 132 160 184 200 212 221 227 230 228 214 183 133 81 46 28 23 31 53 95 146 185 202 196 167 120 73 43 30 31 42 65 96 131 161 176 174 153 119 87 69 70 91 130 173 204 220 223 214 189 147 96 55 32 23 23 35 62 108 162 202 223 229 225 206 170 119 72 43 29 26 31 47 77 119 161 191 205 210 209 207 207 209 215 220 225 226 222 
215 193 155 108 67 40 27 22 23 27 36 52 76 110 148 180 203 218 227 233 234 230 215 183 132 80 45 28 25 34 58 100 149 186 201 194 165 118 73 47 38 45 66 99 138 172 193 199 188 158 115 76 56 57 79 120 169 206 225 231 224 202 161 106 60 33 22 22 33 61 108 163 202 222 226 217 193 151 100 59 36 27 27 37 58 94 137 176 199 208 209 204 199 197 199 205 213 220 225 224 
219 205 177 136 91 57 36 26 22 23 29 42 64 99 141 178 204 219 227 231 231 224 206 171 122 75 45 32 32 45 74 117 163 194 204 195 165 119 76 53 50 66 98 139 177 204 216 215 199 163 113 69 47 45 64 105 157 200 224 232 228 210 173 118 68 37 24 24 36 65 114 167 203 219 220 205 173 126 79 47 31 27 32 47 75 114 154 184 198 200 193 182 172 168 170 180 193 207 218 222 
220 215 197 165 123 83 54 37 30 28 33 45 68 103 145 180 203 216 222 224 220 208 186 149 105 67 46 40 47 67 102 144 182 204 209 197 164 119 80 61 64 89 130 174 206 224 230 225 206 166 112 65 40 36 51 86 139 188 218 231 230 215 182 130 77 43 29 29 42 73 121 171 203 215 209 187 148 100 61 39 29 31 42 63 96 135 167 185 187 177 160 141 126 120 123 137 158 182 203 216 
216 219 210 189 156 116 82 59 47 45 50 64 89 122 158 186 203 210 211 207 196 179 152 118 84 60 51 55 72 101 139 175 202 215 214 197 162 117 81 66 76 109 155 196 222 235 237 231 210 169 111 62 35 29 39 68 117 170 208 226 229 218 189 141 88 52 35 35 50 82 129 174 200 207 195 165 122 79 49 35 33 41 59 88 123 155 175 179 166 142 115 92 76 70 74 88 113 145 178 202 
205 216 216 205 182 150 118 93 79 76 84 100 124 152 177 194 201 199 190 176 158 135 110 85 65 57 61 78 107 143 176 202 218 222 215 193 155 110 77 67 82 120 168 207 230 240 241 233 212 170 111 60 32 23 29 52 95 150 195 219 226 219 194 150 98 60 43 42 57 89 133 173 194 195 177 143 101 65 45 39 45 61 87 120 152 173 179 167 139 104 74 53 40 36 39 50 71 104 144 180 
184 205 213 210 196 175 151 131 121 121 131 146 165 183 195 199 194 180 158 134 110 88 70 57 52 57 76 108 146 180 205 221 227 226 213 185 142 97 68 62 79 119 169 208 230 240 241 234 213 171 111 59 30 20 23 40 77 131 181 211 222 217 196 156 106 68 49 48 63 93 132 166 183 180 159 124 88 63 52 55 69 94 125 156 179 188 180 154 114 75 46 29 21 18 20 27 43 69 107 149 
155 184 199 202 196 184 170 160 158 163 174 186 198 206 208 201 184 155 121 91 67 52 43 40 45 63 95 138 178 207 223 231 232 224 205 170 123 80 56 52 68 106 156 199 225 237 239 232 212 171 112 60 30 19 20 34 65 116 168 203 217 214 195 157 110 73 54 52 65 91 125 154 168 164 144 115 89 73 72 84 107 136 165 188 200 199 181 145 97 57 32 18 12 11 12 17 27 45 76 115 
122 153 172 180 179 174 169 170 176 187 200 210 217 219 214 199 170 129 88 58 40 30 27 30 43 70 114 163 200 222 233 236 231 218 191 148 100 62 43 40 54 86 133 179 211 228 233 228 209 169 113 63 33 21 21 33 62 109 161 197 212 210 190 154 109 73 55 53 64 85 114 139 152 150 137 118 103 99 107 125 150 176 196 209 213 206 183 142 92 51 27 15 10 9 10 13 20 32 54 85 
93 118 135 144 145 145 148 157 173 191 208 219 225 224 215 193 155 106 65 38 25 19 19 27 45 80 131 180 213 230 236 235 226 206 171 122 77 46 32 30 40 64 104 149 187 211 221 219 203 167 116 69 40 28 28 40 69 114 162 194 208 203 182 145 102 70 54 51 60 77 101 124 140 144 140 132 129 134 147 166 187 204 216 222 221 211 188 147 97 57 32 20 14 12 13 15 20 28 43 65 
76 91 101 104 104 105 112 127 151 177 200 215 223 222 211 184 140 89 51 28 18 15 17 27 49 90 145 192 220 233 236 231 216 187 144 95 56 34 24 23 30 46 75 114 153 183 200 203 191 163 121 81 55 44 45 60 90 131 171 196 204 196 171 131 91 63 50 48 55 70 92 115 134 145 151 154 159 169 182 196 209 219 224 226 223 214 193 158 114 74 48 33 26 23 23 24 28 35 45 60 
78 82 81 76 71 70 75 90 115 147 176 199 211 212 200 171 126 79 44 25 17 15 19 31 58 103 158 200 223 232 231 220 198 160 113 70 41 26 19 19 23 34 52 80 114 146 167 177 173 155 127 99 80 73 79 96 124 158 186 201 202 187 157 116 79 55 45 45 52 67 88 113 136 154 166 175 184 193 203 212 218 222 224 223 220 212 197 173 139 105 79 63 53 48 47 48 51 56 63 71 
100 93 81 67 55 49 50 60 79 107 139 167 185 190 181 155 115 74 44 28 21 20 26 42 73 120 170 205 222 226 220 202 170 127 83 50 31 21 18 19 22 29 40 58 81 106 128 142 147 143 132 121 115 116 126 143 165 186 201 206 199 178 142 100 67 48 42 43 52 68 91 118 144 165 180 191 199 206 211 214 215 214 212 210 207 203 196 184 166 145 126 111 101 95 92 91 93 96 99 101 
136 120 98 75 55 43 38 41 52 71 97 123 145 156 153 136 108 77 54 40 34 35 44 64 98 142 182 208 218 215 200 173 135 93 58 37 25 21 21 23 27 33 40 50 63 78 94 108 119 127 134 141 150 160 172 185 198 208 213 210 196 167 127 87 59 45 41 45 56 75 100 128 155 176 190 198 204 206 206 202 197 191 185 180 179 181 185 187 185 180 172 165 158 154 150 149 149 149 148 145 
174 155 129 98 70 50 38 34 37 46 62 81 101 116 123 120 108 92 77 67 63 66 77 99 131 166 193 206 207 195 170 135 97 64 41 29 25 26 31 37 43 49 54 58 61 66 73 82 94 110 130 152 173 189 202 211 217 220 218 209 189 156 114 78 55 45 46 53 68 88 114 141 164 180 190 195 196 192 185 174 161 148 138 133 135 144 160 178 192 200 204 204 202 200 197 195 194 192 190 184 
200 186 163 132 98 69 49 37 32 34 41 52 67 83 100 112 119 119 115 111 110 114 126 144 166 186 199 199 188 164 131 95 64 43 32 28 31 40 52 65 76 84 86 84 78 71 66 67 75 93 119 151 180 201 215 222 225 224 217 203 179 143 104 74 58 54 58 70 87 109 131 152 167 176 180 178 172 162 147 129 111 96 85 81 85 100 126 158 188 208 219 224 225 224 222 220 217 215 212 208 
212 204 189 166 135 102 72 51 38 32 32 37 47 64 87 114 137 152 159 162 164 167 174 184 194 200 198 185 161 127 92 63 43 32 29 34 47 66 88 110 127 136 136 127 110 90 72 63 64 78 104 139 173 198 214 220 222 217 207 189 162 129 97 77 69 72 83 98 116 134 148 157 161 161 156 147 135 119 101 83 66 54 46 43 48 63 92 133 175 205 223 230 233 232 229 226 222 220 217 215 
210 210 205 192 171 141 108 77 54 39 32 32 39 56 84 121 157 182 195 201 203 205 207 209 209 203 189 164 129 92 62 42 31 29 34 49 73 104 137 163 179 187 184 172 148 117 87 66 59 65 86 118 154 182 199 206 206 198 185 164 138 113 94 86 90 102 118 135 149 158 160 156 146 135 122 108 94 79 64 50 39 30 25 24 28 41 67 109 158 196 218 228 231 228 223 217 212 208 207 208 
195 205 210 208 198 178 149 114 81 56 40 35 39 55 87 132 174 202 216 223 224 224 223 220 212 198 173 138 98 65 43 31 28 33 47 73 109 148 181 203 215 219 216 203 179 144 104 73 58 58 71 96 126 153 170 176 173 163 147 128 109 96 94 102 119 139 157 171 178 176 166 147 125 105 88 74 62 52 42 33 26 20 17 16 20 30 52 90 139 181 207 217 218 212 203 191 182 176 177 184 
166 189 207 215 215 205 185 155 118 83 58 45 45 60 93 140 184 212 226 232 233 231 227 219 207 185 152 112 76 49 35 30 33 46 70 107 149 185 211 226 233 234 230 219 197 162 120 83 62 57 63 80 101 119 130 132 126 115 101 89 81 83 97 121 149 173 190 198 197 187 165 134 103 78 62 52 44 39 33 28 24 20 17 17 20 28 47 79 122 161 186 195 191 179 163 145 132 126 130 144 
129 165 196 215 223 221 210 189 157 118 84 61 55 67 98 144 186 214 227 232 232 228 221 210 191 164 129 92 63 45 37 39 49 70 103 144 182 210 227 236 239 238 234 223 203 171 131 95 73 64 67 76 87 94 96 91 82 72 63 58 61 75 103 140 174 198 211 214 208 190 159 119 84 60 47 41 38 37 36 34 31 28 26 25 28 35 50 76 109 139 156 158 148 130 109 91 78 73 79 98 
94 139 181 210 225 229 225 212 188 153 114 83 69 74 100 140 179 206 220 224 222 215 204 188 166 138 108 81 62 53 52 60 78 106 141 177 205 224 233 238 238 235 229 217 198 170 137 108 90 84 86 89 91 87 77 65 54 45 40 40 49 71 110 155 192 213 222 222 212 189 150 105 69 49 40 39 43 47 51 53 52 49 47 46 48 54 66 84 104 119 123 116 101 81 63 49 40 38 44 62 
70 116 166 203 223 232 232 225 208 179 140 103 81 78 95 126 160 185 199 202 197 187 173 154 134 113 94 81 75 75 83 97 119 147 177 201 219 229 233 234 230 224 214 200 180 158 136 121 115 116 120 120 114 98 77 57 41 32 28 31 43 71 116 166 202 222 228 226 212 184 140 94 60 44 41 47 58 71 83 90 92 90 87 85 86 90 97 105 110 108 98 82 64 48 36 27 22 21 26 41 
57 99 151 193 219 230 233 229 217 193 158 118 88 77 83 103 128 149 160 161 155 142 128 113 101 94 92 95 102 113 126 143 163 183 201 215 223 227 226 221 213 200 185 167 149 136 130 133 143 154 161 161 149 125 93 62 40 27 23 27 41 71 121 173 209 226 231 226 210 177 130 84 55 44 48 62 85 109 129 141 146 145 142 139 138 138 138 135 125 107 84 62 44 31 23 18 15 16 20 32 
52 88 136 180 209 224 229 227 217 196 163 123 89 71 69 77 91 103 110 109 102 93 83 78 79 87 102 120 138 155 169 182 194 204 212 217 218 215 208 196 180 160 139 121 109 107 118 140 165 185 196 196 185 158 118 76 45 28 22 25 40 73 125 177 212 228 231 224 205 169 120 77 53 48 60 85 119 150 174 186 191 191 189 186 184 181 176 165 144 114 82 55 37 26 20 17 16 17 21 31 
53 81 121 161 191 208 216 216 207 188 157 118 84 64 56 56 61 66 67 66 61 56 54 58 70 92 121 149 172 188 198 205 208 210 210 207 201 191 176 156 132 109 89 75 72 81 106 144 180 205 218 220 211 186 144 94 54 31 23 25 41 75 128 180 213 228 229 220 197 158 110 72 54 56 77 112 151 183 203 213 217 217 215 212 210 206 199 186 161 126 89 58 39 29 24 23 23 25 29 37 
61 78 105 136 162 180 190 192 185 169 141 108 78 58 48 44 43 43 42 40 38 38 42 53 75 108 145 175 196 207 211 211 207 201 193 182 169 152 131 108 85 66 52 45 47 63 96 144 188 216 230 233 226 206 166 112 64 36 25 27 43 78 131 182 213 226 226 214 187 145 99 68 58 68 96 136 175 202 217 223 225 224 222 220 218 215 209 196 174 141 103 72 52 42 38 39 41 43 46 51 
76 80 90 106 123 138 148 153 152 141 122 98 75 58 47 40 36 34 32 30 30 33 43 61 92 131 168 194 208 212 209 201 189 175 159 143 125 107 88 69 53 40 32 29 34 52 89 142 191 221 236 239 234 217 181 127 74 42 28 30 47 84 137 184 212 222 219 203 172 130 90 67 64 82 116 157 190 210 219 221 219 217 214 212 212 211 207 199 182 156 124 97 78 70 68 71 75 78 78 77 
99 86 79 79 84 92 102 110 116 116 109 97 82 68 56 47 40 35 31 30 32 39 54 80 117 156 186 204 210 206 194 176 155 134 115 99 85 72 60 49 39 30 25 24 29 47 83 136 188 221 237 241 237 222 189 137 83 48 34 36 56 95 145 187 210 216 209 187 153 113 82 69 75 100 136 172 197 209 211 207 200 194 190 189 191 195 196 194 185 170 150 131 118 113 115 121 126 128 124 114 
124 95 73 60 57 59 67 78 91 103 110 110 103 92 79 66 55 46 41 40 44 56 77 109 146 178 199 206 202 188 165 137 111 89 74 65 59 55 51 46 39 33 27 25 29 43 76 126 179 215 233 239 235 221 190 140 88 55 42 48 71 111 157 191 207 207 193 166 130 96 76 74 90 121 155 183 198 200 193 180 165 154 149 150 156 166 176 183 184 180 172 164 160 161 166 173 177 177 170 151 
144 102 69 50 41 42 49 64 85 109 128 138 138 131 118 102 85 72 63 61 67 84 110 142 173 195 204 202 187 160 126 95 71 56 48 47 51 56 60 61 56 47 38 32 32 42 67 111 162 201 222 230 227 212 182 136 91 63 55 66 94 133 170 194 201 192 170 138 105 82 75 85 110 143 173 191 195 186 166 141 119 105 99 102 113 130 149 166 178 184 187 188 191 196 202 207 211 210 200 179 
153 106 66 44 35 36 46 66 96 129 156 172 177 173 162 146 127 109 96 93 100 118 145 172 193 205 205 192 166 128 90 61 44 37 37 44 57 74 88 94 89 77 60 46 39 42 58 91 135 175 200 210 208 193 163 124 90 72 73 92 123 157 184 195 191 172 142 109 83 72 78 100 133 166 189 197 190 169 137 103 78 64 61 65 77 96 120 145 166 181 192 200 207 213 220 224 227 225 215 193 
154 103 63 41 33 37 53 81 120 158 185 201 206 205 197 183 165 146 131 126 132 149 171 192 205 209 202 181 144 100 64 41 30 29 35 51 77 106 131 142 138 121 95 70 52 45 51 71 102 136 162 174 172 158 134 106 87 83 96 123 154 180 194 193 176 147 112 82 66 66 84 118 156 186 202 202 187 155 114 77 53 42 40 45 56 74 97 123 149 170 187 200 211 219 226 231 233 230 220 196 
147 96 58 39 35 44 67 105 149 185 208 220 224 222 216 204 188 169 152 145 150 165 184 200 209 209 198 171 128 83 49 31 25 28 40 65 103 144 174 187 185 167 137 102 71 52 47 55 72 94 114 124 124 114 99 86 83 94 120 152 179 196 198 185 157 119 84 62 54 64 92 135 175 201 212 207 186 148 102 64 42 34 33 38 47 61 80 102 126 150 171 189 205 217 225 231 233 229 218 191 
134 85 52 38 38 53 84 130 175 206 223 230 232 229 222 209 191 170 151 142 147 162 182 199 208 208 195 167 123 77 45 29 25 31 48 82 129 175 204 216 215 201 174 136 96 66 50 47 53 63 73 79 79 74 69 69 79 105 140 173 196 204 196 172 134 93 62 47 47 64 100 148 189 212 219 211 188 147 99 62 42 34 34 39 46 55 68 83 100 121 143 167 189 207 220 227 229 225 211 180 
117 73 46 36 41 62 101 152 194 219 231 235 234 228 217 199 175 149 128 118 123 141 166 189 203 206 196 170 128 83 50 33 29 36 57 96 148 193 219 230 230 220 198 165 123 86 61 49 46 48 51 52 51 49 50 58 78 113 153 186 203 204 187 153 109 70 46 37 43 64 105 156 196 217 222 214 190 149 103 67 47 40 40 43 48 53 59 66 75 89 108 135 164 191 210 221 224 219 201 165 
99 61 40 34 43 69 113 165 205 226 234 235 230 219 200 173 141 112 91 83 89 110 141 173 195 204 199 179 143 100 64 43 36 42 64 105 157 199 224 234 234 227 212 185 149 111 82 63 54 49 46 43 40 39 42 54 79 119 161 191 203 197 172 130 86 53 35 31 39 63 106 157 197 217 221 212 189 151 108 75 57 50 49 50 51 51 51 52 54 61 76 101 136 172 199 214 218 210 188 147 
82 50 34 32 43 71 118 171 208 227 233 231 221 201 172 135 100 72 56 51 59 80 115 155 187 204 205 193 165 125 85 58 45 48 67 105 153 194 218 229 231 227 216 198 171 140 112 91 77 67 58 50 43 40 43 56 84 124 165 192 198 185 153 107 66 40 28 27 36 60 100 150 189 209 213 204 182 148 111 84 69 63 60 59 55 51 46 42 40 42 53 76 113 155 189 208 212 201 173 129 
68 41 29 28 40 68 115 168 206 224 229 222 205 175 135 94 63 43 33 31 39 59 96 142 182 205 212 206 186 152 111 76 56 53 66 96 138 177 203 216 220 219 213 202 186 167 148 130 116 101 87 72 59 51 52 64 92 131 168 189 191 172 134 88 52 32 24 24 34 55 91 135 171 191 195 185 164 136 110 91 82 79 76 70 61 51 42 35 31 32 41 63 101 147 184 204 207 193 160 112 
58 34 24 25 35 61 106 159 199 218 221 210 183 143 98 61 38 25 20 20 29 49 87 138 182 208 219 217 203 175 134 93 66 55 60 81 113 147 174 191 199 202 202 198 193 186 178 169 159 146 128 107 87 73 69 80 106 141 172 188 185 162 122 78 46 29 23 25 34 52 80 115 144 160 162 152 135 117 104 98 98 99 96 86 71 55 42 33 28 30 40 64 104 150 186 204 205 187 149 99 
51 29 21 21 30 53 94 146 188 209 210 194 159 112 68 39 23 16 14 16 26 48 89 141 186 213 224 224 213 189 149 105 71 55 53 64 84 110 135 153 166 175 181 187 192 195 197 196 193 184 169 147 122 102 93 101 124 153 178 189 184 160 121 80 50 35 30 32 40 54 74 96 113 121 119 111 101 95 96 104 116 124 122 109 88 66 48 36 32 36 51 79 121 164 195 209 206 184 141 90 
46 26 18 18 26 46 83 134 177 199 199 179 138 88 50 27 16 12 12 17 30 56 100 152 194 218 227 227 216 192 153 107 71 52 46 50 62 78 97 113 128 141 155 170 184 196 205 210 211 207 195 176 151 129 118 123 142 167 186 194 188 168 134 96 68 52 47 49 56 66 77 85 89 87 81 75 72 76 90 113 136 150 151 137 113 85 63 50 47 55 75 108 149 185 207 215 208 182 136 84 
43 24 17 17 24 43 78 126 169 192 191 168 124 76 41 22 14 12 14 22 39 71 118 168 203 222 228 225 212 185 144 99 66 48 42 43 50 61 73 86 99 114 132 152 173 191 205 213 216 214 204 187 165 144 134 139 157 178 194 201 198 183 157 128 103 88 82 84 88 93 93 88 79 67 57 52 54 66 91 124 155 174 178 167 144 115 91 77 76 88 113 146 180 205 219 222 211 182 133 80 
42 24 17 18 26 45 79 127 169 191 189 165 121 74 40 23 16 15 20 32 56 94 142 185 212 224 225 217 199 167 125 85 58 44 41 44 51 61 71 81 92 104 121 141 163 182 197 207 210 207 197 180 159 141 134 143 163 185 201 209 208 200 185 166 149 137 133 134 135 133 123 105 82 61 47 42 47 65 97 138 172 193 198 191 173 150 129 117 119 133 157 183 206 221 228 226 212 181 130 77 
41 25 20 22 32 54 92 138 177 196 194 172 130 83 48 29 22 23 32 50 81 124 168 200 217 222 217 202 175 138 99 68 50 43 46 54 66 79 91 100 107 115 125 139 155 170 182 189 190 185 172 154 134 121 120 135 160 186 205 215 217 214 207 197 189 183 181 181 180 173 157 130 97 68 49 44 51 74 111 154 187 206 212 207 195 179 164 157 160 173 191 208 222 230 232 227 211 176 125 74 
42 29 27 32 48 75 115 158 190 205 203 184 148 103 65 43 36 39 53 79 116 157 191 212 219 216 202 177 142 104 72 52 44 46 57 76 97 116 129 137 140 141 142 145 149 155 159 160 156 147 132 115 99 91 97 117 149 181 204 217 222 222 220 216 213 211 211 211 209 202 185 156 118 84 62 56 66 92 132 171 199 214 218 214 206 195 185 181 185 195 208 220 228 232 231 223 203 167 117 71 
46 38 41 53 75 108 147 182 205 215 213 198 169 129 91 67 59 66 85 117 154 186 208 218 217 205 180 144 105 72 50 41 42 53 76 107 137 160 173 178 176 171 163 153 143 135 128 121 113 102 89 76 66 64 73 96 131 169 198 214 222 225 224 223 222 222 223 224 222 216 201 176 142 107 85 80 92 120 155 187 207 217 217 212 203 193 185 183 188 198 208 218 223 225 222 211 188 150 105 68 
55 55 66 87 115 149 180 204 218 223 221 210 188 155 122 98 92 102 125 156 186 207 218 220 210 188 151 108 72 48 36 34 43 64 99 140 174 196 206 207 203 193 178 157 134 114 98 86 76 66 56 48 44 45 54 76 110 151 184 205 215 219 219 219 219 220 221 222 221 217 206 186 160 133 116 114 127 151 178 198 210 213 208 198 186 173 165 163 168 178 190 199 204 205 199 185 161 127 92 66 
69 81 103 130 159 185 206 219 226 228 225 216 198 173 146 127 124 137 160 186 207 219 223 218 201 168 122 78 48 32 27 31 46 76 121 167 200 218 224 224 218 205 184 154 122 94 74 61 52 44 38 34 32 34 42 60 90 127 160 184 195 200 200 200 200 201 203 205 206 203 196 184 168 153 146 148 160 178 194 204 206 200 187 169 150 134 124 122 127 138 150 160 166 166 160 146 124 100 79 68 
89 113 143 171 194 210 221 227 230 229 224 214 198 176 154 140 141 157 180 202 217 224 224 214 190 148 98 57 33 23 22 29 48 85 136 184 214 228 233 230 222 206 179 143 106 77 58 47 40 35 31 29 28 30 37 50 72 101 129 150 161 164 162 160 160 161 164 168 171 172 170 167 163 162 166 174 185 195 202 201 192 175 152 127 104 88 79 77 81 89 99 108 114 115 110 100 88 76 70 74 
109 142 173 197 213 222 227 228 227 223 215 202 183 161 142 132 138 156 181 203 218 224 223 210 181 134 83 45 26 18 19 28 50 90 144 192 220 232 235 230 219 198 165 125 88 62 48 40 37 34 33 31 31 32 37 47 61 80 99 111 116 115 111 107 105 106 109 113 118 123 128 134 144 158 173 187 198 203 201 190 169 140 110 83 64 52 46 45 47 53 59 66 70 71 70 66 62 61 67 83 
124 159 188 207 218 223 224 222 217 208 195 176 153 130 112 106 114 136 165 192 211 220 219 207 177 128 77 41 23 17 18 27 49 89 144 193 220 231 232 226 210 182 143 102 70 52 43 41 41 42 42 42 42 43 46 52 61 71 79 82 80 74 67 62 59 58 60 64 68 74 83 96 117 144 170 191 202 202 192 170 138 103 73 51 38 31 28 29 31 35 40 44 48 49 50 50 52 57 70 92 
129 160 185 201 208 211 209 204 196 182 163 139 113 91 77 74 82 104 136 169 196 211 215 205 177 131 81 44 25 17 18 26 46 84 138 187 216 228 228 218 196 160 117 79 55 45 43 47 54 60 64 65 66 66 68 72 75 78 77 71 62 52 43 36 33 32 32 34 37 42 50 66 91 126 161 187 198 195 177 145 107 72 48 33 26 23 24 26 30 35 39 44 47 50 51 53 56 63 76 99 
123 145 164 176 181 182 179 173 162 145 124 99 77 59 49 47 54 71 100 137 173 198 209 205 183 144 95 55 32 21 19 25 42 77 128 178 209 222 221 207 179 137 93 61 46 43 50 63 78 92 101 105 106 106 106 106 106 102 93 80 64 49 37 29 24 21 20 20 22 25 32 46 72 110 150 180 191 184 159 120 81 52 34 26 24 25 30 36 44 51 59 65 69 72 73 74 75 79 87 102 
108 118 127 134 137 138 136 131 122 109 91 72 54 41 34 31 35 46 69 103 144 180 201 206 193 163 119 76 46 29 23 26 39 69 116 166 200 215 214 197 164 118 76 51 42 47 63 87 113 134 147 153 154 153 151 150 146 139 127 108 87 66 48 36 27 22 18 17 17 19 25 38 62 99 142 172 182 171 140 100 64 41 30 27 30 38 49 62 76 89 100 108 114 116 116 113 108 103 100 101 
90 86 86 87 89 91 93 94 93 87 77 63 49 37 29 25 25 31 47 75 116 160 193 207 204 185 150 107 70 45 31 29 38 61 103 152 190 207 207 190 155 109 70 49 46 59 84 118 150 173 186 191 191 189 187 185 182 176 165 148 125 101 78 58 44 33 26 21 19 20 25 37 61 98 139 167 175 160 126 86 55 38 32 35 46 63 85 107 128 144 156 163 167 168 165 158 147 131 114 99 
74 61 55 54 55 59 66 75 84 88 84 74 59 45 33 25 22 24 34 56 93 142 183 207 213 205 181 145 104 69 46 36 39 57 93 140 180 201 203 187 154 111 75 57 59 77 110 149 180 200 209 212 210 207 205 203 202 200 194 184 168 147 124 100 78 60 46 36 30 29 33 46 71 107 144 168 172 154 119 81 53 41 41 52 74 103 134 160 180 193 201 206 207 206 202 193 178 154 124 95 
63 47 38 36 38 46 59 77 97 110 114 105 88 66 47 32 24 22 27 43 76 125 174 206 220 219 206 181 144 103 69 49 44 55 85 128 170 195 202 190 163 125 92 76 80 103 138 174 200 214 219 218 214 209 205 204 206 208 209 207 200 189 172 152 129 105 84 67 55 51 54 67 92 126 157 176 175 155 120 83 58 50 56 77 110 147 179 201 215 223 226 228 227 225 220 212 195 168 130 92 
59 41 32 31 35 47 68 96 126 148 156 150 131 102 72 47 31 24 25 37 65 112 165 204 223 229 223 208 179 140 98 67 52 56 79 118 161 190 201 196 176 146 118 104 109 132 163 191 210 218 219 213 204 195 189 188 193 201 209 215 217 214 206 195 178 158 135 114 98 89 90 102 125 152 175 187 182 162 128 93 69 63 75 104 143 180 207 223 232 235 236 235 233 230 225 216 200 172 132 90 
62 44 36 35 43 60 89 125 160 184 194 191 175 146 108 71 44 30 26 33 56 100 155 199 224 234 233 225 205 172 128 88 63 59 74 108 150 183 200 201 188 167 145 133 138 156 180 200 212 215 210 198 181 165 155 154 162 177 194 209 218 223 223 219 210 198 181 163 147 137 136 144 161 179 193 198 192 173 141 108 84 79 93 124 163 197 218 230 234 235 234 231 228 224 219 210 195 169 132 93 
76 59 51 51 61 83 116 155 187 208 218 217 206 183 146 102 64 40 29 32 50 89 143 192 222 235 238 234 221 194 153 107 73 61 69 97 136 172 194 200 194 180 163 153 155 169 186 201 208 205 193 172 146 123 108 106 117 137 162 187 206 218 225 226 224 217 208 196 184 176 174 178 188 198 206 207 201 184 157 125 101 93 103 131 165 194 212 221 224 222 219 214 208 204 199 193 182 163 135 103 
103 88 80 80 90 112 142 175 202 219 228 229 223 207 177 134 88 54 36 33 46 78 129 181 215 233 239 238 228 207 169 120 80 61 63 83 117 154 180 192 190 180 167 157 157 167 181 192 195 188 170 141 108 82 67 64 72 91 119 149 177 198 212 219 221 220 215 208 200 194 192 195 201 208 213 213 208 194 171 142 115 101 104 122 147 171 187 194 195 191 184 176 170 165 164 164 163 156 142 122 
140 130 123 121 126 139 160 183 203 218 227 231 229 220 199 162 114 71 45 35 42 67 112 164 204 227 237 238 230 211 174 125 82 58 55 69 96 129 157 172 174 166 153 144 142 149 161 171 174 165 143 111 79 55 42 38 43 55 76 104 134 161 182 195 202 205 203 199 194 191 191 195 201 208 213 215 211 201 183 156 127 105 96 101 114 129 140 145 144 138 129 120 114 113 117 128 141 152 154 150 
177 173 166 160 156 156 163 174 189 203 214 223 226 224 210 182 139 92 57 40 39 56 92 141 186 215 229 232 226 207 170 121 78 54 47 56 76 103 128 143 145 138 126 116 114 119 131 142 147 140 121 93 65 45 33 28 29 35 47 65 88 112 134 152 164 170 171 170 168 167 170 177 186 197 205 211 211 205 191 167 137 107 87 78 79 83 87 88 85 80 73 67 64 67 77 97 125 152 170 177 
204 203 196 186 172 158 149 148 156 170 187 202 214 219 214 195 160 113 72 47 39 47 73 113 159 193 213 220 214 194 157 110 70 48 42 47 61 80 100 111 113 105 94 85 82 87 98 111 121 121 110 89 67 48 36 29 26 27 32 41 54 69 85 100 112 120 123 124 124 126 131 141 155 172 187 199 206 206 197 177 148 113 83 64 54 50 49 47 44 41 37 34 35 40 54 81 119 158 185 200 
220 219 212 197 174 146 122 109 109 122 142 167 190 205 210 201 176 135 91 58 42 42 56 85 124 161 186 196 192 172 137 95 63 45 40 44 55 69 82 88 86 78 68 61 58 62 73 89 104 114 113 102 85 67 52 41 34 30 29 32 36 44 52 62 69 75 78 80 80 82 87 98 114 135 158 179 195 202 200 187 161 126 89 61 44 34 29 26 23 21 20 20 22 29 46 78 123 168 199 215 
229 227 218 199 168 127 92 72 66 73 92 121 155 184 201 203 188 156 113 75 50 41 45 62 90 121 147 161 160 143 115 83 60 48 45 50 60 70 78 79 73 64 54 47 44 49 60 79 102 122 132 130 119 103 85 68 55 45 38 35 34 36 40 44 49 52 54 53 53 53 55 62 75 94 120 150 176 194 201 195 177 145 107 72 47 32 23 18 16 14 14 15 19 29 48 84 133 179 209 224 
231 228 218 195 156 109 69 46 38 40 54 79 117 157 187 201 197 175 139 98 65 47 42 48 63 84 105 120 124 116 99 80 66 60 62 69 79 87 90 85 73 60 48 41 39 44 58 81 111 140 158 164 160 148 130 110 91 73 60 51 46 45 46 48 50 51 50 47 44 40 39 41 48 62 85 117 152 181 198 202 193 170 135 97 64 42 28 21 17 15 15 18 23 35 57 96 145 188 214 227 
228 224 213 187 144 94 55 33 24 24 32 52 87 132 174 198 204 193 165 127 88 60 45 42 48 59 74 88 97 100 96 91 87 88 95 105 114 120 116 104 84 65 50 42 41 48 66 95 130 162 183 193 194 187 174 156 135 115 97 84 76 72 72 73 74 73 68 61 51 41 35 32 33 41 58 87 125 165 193 207 207 194 168 133 97 66 46 33 26 24 24 27 33 46 70 108 153 190 213 224 
216 213 201 175 133 86 50 29 19 17 23 38 69 116 165 197 210 207 189 158 118 81 56 44 42 47 57 71 86 99 109 116 122 130 139 150 157 158 149 128 101 75 56 48 49 60 83 117 154 184 202 211 213 210 201 189 173 155 140 128 121 118 118 120 120 117 108 93 74 54 39 30 27 30 41 64 101 146 185 208 216 212 197 172 140 107 80 61 49 44 43 46 52 65 86 117 152 182 201 212 
190 191 182 160 124 84 51 31 21 18 21 34 63 110 162 198 215 218 208 184 148 107 72 51 43 44 52 67 88 112 134 150 163 173 181 189 192 189 176 150 117 85 65 57 61 79 108 144 177 201 214 220 221 218 211 202 191 180 171 165 164 166 169 172 172 169 158 138 110 78 51 34 26 24 31 48 81 128 174 206 221 224 218 203 181 155 128 106 91 82 79 80 83 90 102 119 140 159 174 184 
148 155 155 144 120 88 59 39 27 22 24 37 65 113 165 202 221 226 220 204 174 132 90 61 47 45 53 71 99 132 161 182 195 203 209 213 212 206 190 161 125 92 71 67 77 102 136 170 197 213 221 223 220 214 205 195 187 181 180 183 190 197 204 208 210 208 199 181 149 108 69 42 27 22 25 37 65 109 161 200 222 230 230 223 211 194 175 158 144 135 130 127 124 120 116 115 117 123 131 140 
100 114 126 130 121 101 76 54 39 31 32 44 75 123 173 208 225 231 228 216 191 150 105 70 51 47 55 77 111 151 183 203 215 221 224 224 221 211 191 159 121 90 74 75 92 124 161 191 210 220 223 220 212 199 184 170 160 159 165 179 195 209 219 226 229 229 223 209 181 137 89 51 30 21 21 30 52 91 143 189 217 230 234 232 226 217 207 196 188 182 177 172 162 146 126 105 90 83 83 89 
63 81 104 124 132 123 103 77 56 44 42 55 87 135 183 213 229 234 232 221 198 158 111 73 52 47 56 80 119 163 196 216 225 229 230 227 220 206 181 145 108 81 70 78 103 140 178 204 218 224 222 213 196 173 148 127 116 117 131 154 181 205 221 232 237 238 235 224 201 161 108 63 35 22 19 25 42 74 122 171 205 223 230 232 229 225 220 215 212 210 207 201 188 164 130 94 68 53 48 52 
43 65 97 129 149 151 134 106 77 59 54 66 99 146 190 217 231 235 232 221 196 155 107 69 49 44 54 79 120 166 201 220 229 232 231 226 214 194 162 122 88 67 63 76 106 148 186 210 222 224 218 202 176 140 106 82 71 73 89 116 152 187 213 228 237 240 239 231 213 178 126 75 41 25 20 23 34 59 99 145 183 206 217 221 221 219 218 218 219 220 219 215 201 174 132 87 54 36 29 32 
37 63 102 143 170 176 162 132 97 72 63 74 106 151 193 218 230 233 229 215 187 142 94 59 42 39 48 72 114 161 199 220 229 231 228 220 203 175 137 97 68 54 54 70 103 146 185 210 221 221 212 190 154 111 73 50 41 42 54 79 116 157 193 217 231 237 238 233 219 190 143 91 52 31 23 23 30 47 75 112 148 173 188 194 196 198 200 205 212 218 221 219 206 179 134 85 49 29 22 25 
44 75 118 161 188 194 181 149 109 78 66 74 104 148 189 215 228 230 224 206 171 123 77 47 34 32 41 63 102 150 190 214 225 227 223 211 188 154 113 77 53 44 47 63 94 136 176 203 215 215 204 178 137 92 56 35 26 26 34 52 81 121 163 196 217 228 232 231 221 198 159 111 70 44 32 28 31 40 57 81 106 127 140 147 151 155 163 176 191 206 215 217 208 183 140 90 52 31 24 28 
63 99 143 181 202 204 187 152 109 75 61 67 93 136 179 209 223 225 216 194 153 103 61 37 27 26 34 53 88 134 176 203 216 218 212 196 170 133 94 64 47 41 44 58 84 121 159 187 201 203 193 168 128 85 52 33 24 22 25 36 55 86 125 162 191 209 220 223 218 203 175 136 97 68 51 42 40 41 48 58 70 80 87 91 95 100 112 132 157 183 202 211 207 187 149 102 64 42 36 43 
97 133 171 199 211 207 184 144 98 65 51 54 77 118 164 198 215 219 209 182 138 88 50 30 22 23 30 46 75 116 156 185 199 201 193 175 148 115 84 62 50 46 48 57 75 103 134 160 177 183 177 158 127 91 63 44 33 27 26 30 40 59 87 119 151 177 195 206 210 205 189 164 134 106 86 71 60 53 49 47 48 49 49 50 51 55 66 87 118 154 185 202 205 191 162 122 86 65 61 71 
