P2
100 100
255
130 142 153 160 159 150 134 115 98 87 84 89 102 119 139 154 163 164 156 141 121 100 84 73 68 69 75 85 99 115 130 141 147 148 144 137 128 118 110 102 97 94 93 95 101 111 123 135 146 153 154 148 137 122 106 92 83 78 77 80 86 96 107 118 128 136 141 145 148 148 146 142 137 131 126 121 117 112 107 101 95 88 81 75 71 70 74 84 100 120 141 156 163 162 154 142 129 119 116 120 
151 160 167 168 161 147 126 104 86 75 73 78 90 108 128 146 157 160 154 140 121 102 86 76 72 74 80 90 103 117 128 136 140 139 135 130 125 121 118 115 113 110 107 104 104 106 111 120 129 137 143 144 141 134 124 114 106 99 95 93 93 95 98 102 107 112 118 125 134 143 150 155 157 156 154 149 142 132 120 106 93 81 72 66 62 63 68 79 96 117 137 153 162 163 158 150 142 137 137 143 
167 174 177 175 164 146 121 97 79 68 66 70 82 100 122 141 154 159 155 144 128 111 97 88 85 87 94 103 113 122 128 131 130 127 123 121 121 124 128 132 133 132 127 119 111 105 102 104 110 119 128 137 143 145 144 139 133 126 119 111 104 97 92 90 89 91 97 107 121 137 152 165 172 176 176 171 163 151 134 114 96 81 70 64 62 64 70 82 98 118 136 150 158 159 156 152 148 148 152 159 
176 183 184 180 167 147 121 95 76 66 64 68 80 98 120 140 154 160 159 151 139 126 115 108 106 109 114 121 127 130 129 124 118 112 108 109 114 124 137 147 154 154 149 137 123 108 96 91 93 100 112 127 142 153 160 161 159 152 142 129 115 101 89 81 77 77 82 93 111 132 154 171 182 188 189 186 178 164 146 123 102 85 74 69 68 72 80 92 107 123 137 146 150 149 147 144 145 149 157 167 
179 186 188 183 170 148 122 97 78 68 66 72 84 102 123 143 157 164 164 159 151 142 135 131 131 134 138 142 143 139 130 118 106 97 92 95 105 122 141 159 170 174 169 155 136 113 94 82 79 84 97 116 138 157 170 177 177 171 160 144 124 104 88 76 70 69 74 86 105 130 154 173 186 193 195 193 185 172 153 131 110 93 84 80 82 88 98 109 121 132 138 140 138 133 130 129 132 141 154 167 
175 185 187 183 170 149 124 100 83 74 73 80 93 111 131 149 161 167 167 164 159 154 151 151 153 157 160 161 157 147 131 112 95 83 78 82 94 116 141 165 181 187 183 170 148 121 95 78 70 73 85 106 132 157 175 184 186 182 170 152 129 106 87 75 68 67 73 85 105 129 153 173 186 193 194 192 185 172 155 135 117 103 97 97 102 111 122 132 139 142 139 132 123 114 108 108 114 126 143 161 
168 180 183 180 167 148 125 104 89 82 84 92 106 123 141 154 163 166 165 163 160 158 159 162 167 172 175 174 167 153 132 108 87 73 67 71 84 107 137 165 185 194 192 181 159 129 100 77 67 67 78 99 127 154 175 186 189 184 171 152 128 106 88 76 71 72 78 91 109 131 152 169 180 186 187 184 176 165 150 135 122 114 113 117 126 137 147 154 156 151 140 124 108 95 88 87 94 108 128 150 
159 172 177 173 161 144 123 106 95 92 97 107 122 136 149 157 161 160 157 153 151 152 156 163 171 178 182 181 173 157 133 106 83 67 60 63 75 99 131 162 185 196 197 187 167 138 106 81 68 66 75 95 123 151 172 183 185 179 166 146 124 103 89 81 79 82 90 103 118 135 150 162 169 172 171 168 161 152 141 130 124 123 128 137 149 160 169 172 169 158 140 117 96 80 72 71 77 92 114 138 
149 163 168 164 152 136 119 106 100 102 110 123 136 147 155 156 153 147 141 135 133 136 144 154 166 176 182 182 175 160 136 108 83 66 58 59 70 93 124 156 181 195 198 191 173 146 114 88 73 70 78 96 122 148 167 177 177 169 154 135 116 100 92 90 93 100 109 120 131 140 147 151 153 152 149 145 140 133 127 123 123 129 139 152 166 177 184 185 178 163 140 112 87 70 61 60 67 81 103 127 
142 155 158 152 140 125 112 104 104 111 123 136 148 155 156 150 141 129 119 112 110 114 124 138 154 168 177 180 175 161 139 112 88 70 61 60 69 89 118 150 175 190 195 191 176 152 124 98 83 79 86 102 125 147 162 168 165 154 138 121 106 98 96 101 111 122 132 140 145 146 144 139 134 128 124 120 117 114 113 115 121 132 146 162 176 186 192 191 183 165 139 108 82 65 56 56 63 77 98 122 
140 150 149 141 128 114 104 102 107 118 133 147 156 158 152 140 124 109 96 88 87 92 102 119 137 155 168 174 172 162 144 121 98 80 70 68 74 90 115 144 168 183 190 187 176 157 133 111 96 92 98 112 131 147 157 158 151 137 120 106 97 96 102 115 130 145 155 159 158 152 141 128 116 107 101 99 98 100 103 109 118 132 148 165 179 190 194 193 184 166 138 106 80 63 56 56 64 79 99 122 
142 148 143 131 117 104 98 99 109 124 141 154 161 158 147 128 108 90 77 70 70 74 85 102 122 141 157 166 168 162 150 132 113 97 86 82 86 97 116 138 159 173 180 180 173 159 141 123 112 109 114 125 138 148 152 147 135 120 104 93 89 95 108 128 148 164 173 175 169 156 139 120 104 93 87 86 88 92 98 106 116 130 147 163 177 188 193 191 182 164 136 106 81 65 59 61 70 87 107 128 
148 149 140 125 109 97 94 99 112 131 148 160 163 157 140 118 95 77 65 60 60 65 76 91 110 129 146 157 162 161 155 145 132 120 110 104 104 109 120 134 148 159 166 168 164 156 145 134 127 125 129 137 144 149 146 137 122 105 91 83 84 94 113 137 160 177 185 184 176 160 139 117 98 87 82 83 87 92 99 106 115 127 141 156 170 180 186 186 178 160 135 107 84 70 66 70 81 99 120 138 
156 151 138 121 104 94 92 101 117 137 155 165 166 155 135 110 86 69 59 56 58 64 74 89 105 121 136 146 153 157 157 155 150 143 137 130 126 124 125 129 135 142 147 150 151 148 144 140 137 138 141 146 149 148 141 128 111 95 82 77 81 94 116 142 166 183 190 189 179 162 140 117 100 89 87 89 94 100 105 110 115 122 132 144 157 168 175 176 170 155 132 108 88 76 74 81 96 115 135 150 
162 154 138 118 101 92 93 104 123 144 161 170 168 155 133 106 83 67 60 59 63 70 81 94 107 118 128 136 143 149 155 160 163 163 160 154 147 138 129 123 121 121 124 128 133 136 139 141 143 145 148 150 150 145 136 121 105 90 79 76 80 94 116 142 166 182 189 187 178 162 142 121 106 99 98 102 108 113 115 115 114 115 120 128 139 150 159 163 159 147 129 109 93 84 85 94 111 130 148 160 
165 154 136 116 99 92 95 108 128 150 167 174 170 156 133 107 85 71 66 68 75 85 96 106 114 118 121 124 129 137 148 159 169 175 176 172 162 148 131 116 106 101 102 106 113 122 131 138 144 147 149 149 147 141 131 118 103 91 82 79 83 95 114 137 159 173 180 179 172 158 142 126 116 112 115 120 125 127 125 120 113 108 107 111 119 130 141 147 147 139 126 110 98 93 96 107 124 143 158 166 
163 150 131 112 97 91 96 111 132 154 169 176 172 157 135 111 91 80 78 84 94 106 117 123 124 120 115 111 113 121 135 152 169 180 185 182 171 152 129 108 92 84 83 87 97 109 122 133 141 145 146 144 141 135 127 117 107 98 90 87 90 98 112 129 145 158 164 164 159 150 139 130 126 127 132 138 142 141 134 123 110 100 94 95 101 112 123 132 136 133 124 113 104 101 106 117 134 151 163 168 
159 145 125 106 93 89 95 110 132 153 169 175 171 158 138 117 102 94 96 106 119 132 140 141 134 121 108 98 96 103 119 141 162 179 187 185 173 151 124 98 80 71 69 74 85 100 116 129 138 141 140 136 132 128 124 120 116 111 106 103 102 104 110 119 128 136 141 142 140 137 133 132 135 141 148 153 155 150 139 123 106 92 85 83 88 98 111 122 129 130 126 118 112 111 115 126 141 154 164 166 
153 138 118 100 89 86 92 106 127 147 163 169 167 157 141 125 114 111 117 130 144 155 159 155 141 120 100 86 81 86 102 126 153 173 184 183 170 146 117 89 71 62 61 68 81 98 115 129 136 137 133 127 122 121 122 125 128 129 127 124 119 114 111 109 110 112 115 117 119 121 126 132 141 151 159 163 162 154 139 120 101 86 78 76 81 92 105 119 129 133 131 126 122 121 125 133 145 156 162 161 
148 132 113 96 85 82 87 99 117 136 151 159 159 152 141 131 126 128 137 151 164 172 172 162 143 117 92 75 68 72 88 113 142 166 178 178 164 139 108 82 65 57 59 67 83 102 120 133 138 134 126 117 113 113 120 130 141 148 150 147 139 127 115 103 96 92 91 94 99 107 118 131 145 157 165 168 164 152 135 114 95 82 74 74 80 92 107 123 135 140 141 137 133 132 134 140 149 156 160 158 
147 131 112 95 84 79 82 91 105 122 135 144 146 143 138 134 135 141 153 166 176 181 178 164 140 111 84 67 60 64 78 103 133 158 172 172 157 131 101 76 62 57 61 73 92 114 132 143 143 134 121 109 103 106 117 134 151 164 170 168 159 142 122 102 86 77 74 77 84 96 113 131 148 161 168 169 162 147 128 108 90 78 74 76 84 98 115 132 145 151 152 149 145 142 143 147 153 158 160 157 
150 135 117 99 86 79 78 84 94 106 118 127 131 133 133 135 140 150 162 174 182 184 178 161 135 104 78 62 56 60 74 98 128 153 167 166 151 125 96 74 62 61 69 86 108 132 149 156 151 137 118 102 94 97 112 134 157 175 185 184 175 156 130 103 82 69 65 67 76 91 112 133 152 164 169 166 156 140 120 100 86 77 75 80 91 108 127 144 156 162 162 159 154 151 150 153 157 161 163 159 
157 145 128 109 94 83 79 80 85 93 103 111 118 123 127 134 143 154 166 177 183 183 174 155 128 99 75 61 57 62 77 100 129 152 164 162 146 121 95 76 67 70 83 104 130 153 167 170 161 141 117 96 85 88 104 130 158 180 193 194 186 167 139 107 82 67 61 64 74 92 115 138 156 167 169 163 149 131 111 94 82 77 79 87 101 119 138 155 165 169 168 164 159 154 153 155 159 164 166 165 
166 157 142 124 107 93 84 81 82 86 93 101 108 116 124 133 144 155 167 175 179 177 167 148 123 97 76 65 63 70 86 109 135 156 165 161 145 121 97 81 77 84 102 127 153 173 184 183 170 145 116 91 78 79 94 122 154 180 195 199 192 174 146 113 85 68 62 66 78 97 122 144 161 168 167 157 141 122 104 89 81 79 84 95 111 130 147 161 168 170 167 161 155 150 149 152 157 164 169 170 
174 168 157 141 123 107 94 87 84 86 91 98 106 115 124 134 144 155 164 170 172 168 158 141 119 98 82 75 76 85 102 124 147 162 168 162 145 123 102 90 89 101 123 149 173 189 196 192 176 149 115 87 71 70 84 111 144 174 193 200 195 179 151 118 89 72 66 71 84 106 130 151 164 168 163 151 133 114 98 87 82 84 91 104 120 137 152 161 165 163 157 149 141 137 136 141 149 159 168 173 
177 176 169 157 140 123 108 98 93 93 97 103 111 120 129 137 145 153 158 161 161 156 147 133 117 102 93 90 95 107 124 143 160 170 171 162 145 125 107 98 101 117 141 167 188 200 204 198 181 151 115 84 66 63 74 98 132 165 187 196 194 180 154 123 95 77 72 78 93 115 138 156 166 166 157 143 124 107 94 87 86 91 100 114 128 142 152 156 154 148 138 128 120 115 115 122 133 147 161 172 
175 179 176 167 153 138 123 112 106 106 110 116 123 131 138 143 147 149 150 149 146 141 133 124 115 108 106 110 118 131 146 161 172 176 173 161 143 124 109 103 110 128 153 177 195 205 207 201 183 153 115 82 63 57 66 87 119 152 178 190 190 178 155 126 100 84 80 87 103 124 144 159 164 160 149 133 117 103 94 91 94 101 112 125 136 145 148 146 138 127 114 103 94 90 91 99 112 129 148 164 
166 175 176 170 160 147 134 125 121 122 126 133 140 145 148 149 147 144 139 133 128 123 118 114 112 114 120 129 141 154 166 175 180 179 171 156 137 119 106 103 111 131 156 179 196 205 207 200 183 153 116 82 62 55 60 78 106 139 166 181 183 173 153 127 104 90 87 95 111 130 147 157 158 151 139 124 110 101 98 100 107 116 127 137 144 147 144 135 121 106 91 80 72 69 70 77 90 108 130 150 
152 164 168 166 159 149 140 134 133 137 143 150 156 159 159 154 147 137 126 116 109 104 102 103 108 118 131 145 159 170 179 183 183 177 165 147 127 109 98 96 105 124 149 172 190 200 203 197 181 152 117 85 64 55 58 72 97 128 154 171 174 166 149 127 107 96 94 102 116 132 145 150 148 140 127 116 107 104 107 114 124 135 144 151 153 150 141 126 108 90 75 64 57 54 55 61 72 88 110 133 
135 149 155 154 149 142 137 136 139 147 156 164 169 170 166 158 144 128 113 100 91 87 87 92 103 118 137 155 170 180 185 186 181 171 154 134 113 96 87 86 94 110 133 156 176 188 193 189 176 151 119 89 69 60 61 72 93 120 145 161 165 158 144 125 109 100 100 107 119 131 139 141 136 127 117 110 108 111 120 131 143 154 161 164 163 156 142 123 102 83 67 56 50 47 47 51 60 74 94 116 
121 133 138 137 133 129 127 130 138 149 161 171 176 176 170 158 141 120 101 87 77 74 76 83 97 116 138 159 174 183 187 184 176 161 141 119 98 83 75 74 80 93 112 133 154 169 177 177 168 149 123 97 78 69 69 78 96 118 139 153 156 151 138 123 110 103 104 110 119 128 132 130 124 117 111 109 113 122 136 149 161 170 175 175 171 162 147 127 105 85 69 57 50 47 46 49 57 68 85 104 
113 121 123 120 115 112 112 119 130 145 160 171 177 177 170 156 135 113 93 78 69 66 68 77 92 113 137 158 174 182 184 178 167 148 126 104 85 73 66 64 68 76 90 108 127 144 156 161 158 146 127 108 93 84 84 91 105 122 138 148 150 144 133 120 110 105 107 112 118 123 124 121 116 110 109 112 122 136 151 165 176 182 184 182 177 167 153 136 116 97 80 68 60 55 54 56 62 72 85 100 
114 116 113 107 100 96 98 105 118 135 152 165 172 172 165 150 130 108 88 74 66 63 66 75 90 112 135 156 171 178 178 170 155 135 112 92 76 66 60 59 60 65 74 87 103 119 133 143 146 142 132 121 111 105 104 110 120 132 142 148 146 139 128 118 110 107 108 113 117 120 120 116 112 109 111 119 133 149 164 176 184 187 186 183 177 169 159 146 132 117 103 91 81 75 73 74 78 86 96 107 
124 120 112 102 92 86 86 93 105 122 139 153 161 163 156 143 125 105 88 76 69 67 70 79 94 113 135 154 167 172 169 160 143 122 101 83 71 63 59 58 58 61 67 75 86 100 113 125 134 137 137 133 129 127 128 132 138 145 149 149 145 136 125 115 109 107 109 113 117 119 118 115 112 113 118 129 144 159 172 180 184 183 180 175 170 165 160 155 149 141 132 123 114 108 104 103 106 111 117 123 
140 131 119 104 92 83 81 85 94 108 123 137 146 148 145 135 122 107 94 84 79 78 81 90 103 120 137 153 162 164 159 148 131 111 93 79 70 65 63 63 64 65 68 73 80 89 101 113 124 133 139 143 145 146 149 152 155 157 156 152 144 134 122 113 108 107 110 114 118 120 119 117 117 119 127 138 152 164 173 177 175 170 163 157 152 151 154 158 161 162 161 156 151 145 141 139 139 141 143 144 
156 145 130 114 99 88 82 82 88 97 108 119 127 131 131 127 121 113 106 100 97 97 101 107 117 130 142 152 156 155 148 135 119 102 88 79 74 73 74 76 78 79 80 82 85 89 96 106 117 128 138 147 154 159 163 165 167 166 162 154 144 131 120 111 107 107 110 115 120 122 123 122 123 127 134 144 155 162 166 164 157 147 136 128 126 129 139 152 166 176 181 182 180 176 172 169 167 167 165 162 
167 157 143 127 112 99 90 86 86 90 96 103 110 115 119 121 122 122 122 122 122 123 126 130 135 142 147 151 150 145 135 122 108 95 86 82 82 86 92 97 102 104 103 102 99 98 99 104 111 122 133 145 155 163 169 172 172 169 163 154 142 129 117 109 106 107 112 117 122 126 127 127 129 132 138 145 151 154 151 143 131 117 104 97 96 103 119 140 163 180 191 196 196 194 190 187 183 180 178 174 
170 164 154 142 129 116 105 96 91 89 89 92 96 102 109 118 126 134 141 145 148 149 150 151 151 152 151 148 142 134 123 110 99 90 86 88 94 104 116 126 132 135 134 129 121 114 107 105 107 114 125 137 149 159 166 170 171 167 161 150 138 126 115 109 107 109 114 120 126 129 131 131 132 134 138 141 142 139 131 118 103 88 76 70 71 80 98 125 154 178 193 200 201 199 195 190 185 181 178 174 
164 164 160 154 146 135 123 111 101 92 87 85 87 93 103 116 131 146 157 164 168 170 169 166 162 157 151 143 134 123 111 100 92 87 89 96 108 124 140 154 162 165 163 156 144 130 117 108 104 106 114 125 137 149 157 162 163 160 153 143 132 122 114 110 110 113 119 125 130 132 133 132 132 132 132 132 129 122 111 96 81 67 58 53 54 64 82 110 142 170 187 196 197 194 187 180 173 168 165 164 
150 156 161 163 160 153 142 129 114 100 90 84 83 89 100 117 137 155 168 177 181 181 179 173 166 157 147 136 124 113 102 93 87 87 92 104 122 142 161 175 184 186 184 175 162 144 125 110 101 99 103 112 124 135 143 148 150 147 141 133 125 118 114 113 116 121 127 132 135 135 133 130 127 125 124 121 116 107 95 81 67 56 49 45 47 55 73 99 131 159 177 185 184 178 168 157 147 142 141 144 
130 144 157 166 170 167 159 146 129 111 96 86 84 89 101 119 141 160 174 183 186 184 180 172 162 151 139 128 116 106 97 90 87 90 98 113 134 155 174 188 195 198 195 186 171 151 129 110 98 94 95 102 112 121 128 132 132 130 126 121 117 115 116 120 125 131 137 140 141 138 133 126 121 117 113 110 105 97 87 75 64 54 48 46 48 55 71 94 123 148 163 168 164 153 139 125 114 110 111 118 
110 131 151 166 175 176 171 159 142 122 104 92 88 91 103 122 143 162 175 182 183 180 173 163 152 141 130 120 111 104 97 93 92 96 106 122 143 163 181 192 199 200 196 187 172 151 129 110 98 93 93 98 105 111 115 116 115 112 110 108 109 113 120 128 137 145 149 150 147 140 131 121 113 108 104 102 100 95 88 79 70 62 56 54 56 64 77 97 120 139 149 148 139 124 107 93 84 81 84 94 
96 119 144 164 176 181 178 169 152 133 114 100 94 96 107 123 142 159 170 174 173 167 158 148 137 128 121 115 111 107 104 102 103 107 117 131 149 167 181 191 196 195 190 180 164 145 125 110 100 97 99 103 107 109 108 105 100 96 95 96 102 111 124 138 150 158 162 160 154 142 129 116 106 100 98 99 101 100 98 93 86 80 75 73 75 81 93 108 124 135 137 130 116 99 83 71 64 62 66 77 
88 112 138 161 175 182 181 173 159 141 122 108 101 102 110 124 139 152 159 161 157 149 139 129 121 116 115 115 116 117 118 118 118 122 129 140 154 167 177 184 186 183 176 165 150 134 120 110 107 109 113 117 118 115 108 99 90 84 83 86 95 110 129 148 162 171 173 169 159 144 127 111 100 95 96 101 107 113 116 115 112 108 103 101 103 107 115 125 133 135 130 117 100 83 69 59 54 54 59 70 
88 110 135 157 172 179 179 173 162 146 129 115 107 107 112 122 133 141 144 142 136 127 118 111 107 108 113 120 127 132 135 136 136 138 141 147 155 163 169 171 170 164 155 143 130 120 113 113 118 126 133 137 136 128 114 99 85 76 74 78 90 110 133 155 172 180 181 176 163 145 124 107 96 93 97 106 118 130 138 142 142 140 137 135 135 137 140 143 143 138 127 110 92 76 64 57 54 55 60 71 
93 112 133 151 165 172 173 169 159 146 132 120 112 110 113 118 124 127 127 122 115 107 100 97 99 106 117 129 140 148 152 153 152 151 150 151 154 156 156 154 148 139 128 117 109 105 108 118 132 146 156 161 157 145 126 103 84 72 68 72 86 108 136 160 178 186 186 179 164 144 122 104 94 93 101 114 131 146 158 164 167 166 164 162 161 160 159 157 152 141 126 109 91 77 68 63 62 64 69 79 
103 116 131 144 155 161 162 160 153 143 132 122 115 111 111 113 114 114 111 105 98 92 89 91 98 110 125 141 154 162 166 165 162 158 154 151 148 146 141 135 125 114 103 94 90 93 105 123 145 164 177 181 176 162 138 110 85 70 64 68 83 107 136 162 180 188 188 179 163 142 120 103 95 96 106 123 142 159 171 178 181 181 179 177 174 172 168 163 155 142 127 110 96 85 78 76 77 80 85 93 
115 121 128 135 141 145 147 146 143 137 129 122 116 111 109 108 106 103 98 93 88 85 85 91 103 118 136 152 164 171 172 170 164 157 151 145 140 134 127 117 106 94 83 77 77 85 103 128 156 178 191 195 190 175 149 117 88 70 63 66 81 105 135 162 180 187 185 176 159 137 117 102 97 101 113 131 150 165 176 181 183 182 180 177 174 171 167 161 152 140 127 114 103 97 94 95 98 102 106 110 
126 124 122 122 124 126 129 131 131 129 125 120 116 111 107 104 100 96 91 87 84 84 89 98 112 130 147 161 170 173 171 165 157 148 140 134 128 123 115 105 93 82 72 68 69 80 101 131 162 186 199 204 199 183 157 123 92 71 63 66 80 105 134 160 176 182 179 168 151 131 114 103 101 107 121 137 154 166 173 175 175 172 169 166 163 160 157 151 144 135 126 118 113 111 114 118 123 127 128 128 
133 123 115 109 107 108 111 116 119 122 122 120 116 112 107 103 98 94 90 87 87 90 98 110 125 141 156 166 170 168 162 152 141 131 124 119 116 114 109 101 90 79 69 65 67 78 100 131 163 188 202 206 201 186 160 127 95 74 66 69 83 106 133 156 170 174 169 157 141 124 111 105 107 115 129 143 154 161 163 161 157 152 147 144 143 142 141 139 135 130 125 122 123 126 133 140 146 149 147 142 
136 120 106 97 92 93 98 104 112 118 121 122 120 116 111 105 101 97 94 93 95 101 110 123 138 151 162 166 165 158 146 132 120 110 105 104 106 109 109 104 95 84 73 67 67 77 97 126 158 184 198 203 199 184 159 127 98 79 72 76 90 111 134 152 162 163 156 143 129 116 109 108 114 125 137 147 152 153 149 141 133 125 121 119 120 122 125 127 127 126 126 128 132 139 148 157 162 164 160 150 
135 116 99 87 83 84 90 99 109 119 125 127 126 123 118 112 108 104 103 104 107 114 124 136 148 158 163 163 156 143 126 110 98 90 88 92 100 109 115 115 108 97 84 74 71 77 93 119 148 173 188 194 190 176 153 125 100 85 81 87 101 120 138 150 154 150 140 128 117 109 108 114 123 135 145 150 150 143 132 120 109 101 97 98 102 108 115 121 124 127 129 134 140 149 159 167 172 172 166 153 
132 111 93 82 78 80 88 100 113 125 133 137 136 133 128 123 118 115 115 116 120 127 136 146 155 161 162 156 144 127 108 91 80 75 77 86 99 115 127 132 127 115 100 86 78 78 88 108 133 156 171 177 174 161 142 120 102 94 94 103 117 132 144 149 146 137 125 113 106 105 110 121 134 145 152 153 147 134 119 103 91 84 83 86 93 103 113 122 128 132 135 140 146 155 164 172 176 175 167 152 
130 108 91 81 78 83 93 107 123 136 144 148 148 144 140 135 130 128 127 128 132 137 144 152 158 160 158 149 134 114 95 79 69 67 71 84 103 125 142 151 149 137 119 101 87 81 85 97 116 135 148 154 151 141 126 113 104 103 110 122 136 147 152 149 140 126 112 102 98 102 113 128 144 155 159 156 145 128 109 93 82 77 78 84 94 107 119 128 135 138 141 144 150 157 166 172 176 174 165 150 
127 107 92 83 83 90 103 119 135 148 156 159 159 155 150 145 141 138 137 137 139 142 147 152 156 157 153 143 127 107 88 74 65 64 71 87 110 136 157 168 168 157 139 117 98 86 83 89 101 114 123 127 125 118 110 105 105 112 126 141 154 160 159 150 134 116 101 93 93 102 118 136 152 163 165 158 144 125 105 89 80 77 81 90 102 116 128 137 142 143 144 146 150 156 164 170 173 171 163 147 
126 108 94 88 90 100 115 133 149 161 167 169 166 162 157 151 147 144 141 140 140 142 144 148 151 151 148 139 125 107 89 75 68 67 76 93 118 146 168 180 181 172 154 131 109 93 86 86 91 98 104 105 103 99 96 98 106 121 139 156 167 170 164 149 129 108 93 87 91 103 122 142 159 168 168 159 143 123 104 90 83 83 89 100 114 127 137 143 145 143 141 142 145 151 159 166 170 168 160 145 
125 108 97 93 98 110 127 145 160 170 174 174 170 164 158 151 146 142 139 137 136 136 137 140 144 146 145 139 128 112 96 83 75 75 83 101 126 153 174 186 188 180 164 142 120 102 92 89 90 93 94 93 89 87 87 93 106 126 148 166 175 175 165 146 123 101 87 83 89 104 125 146 162 169 168 158 142 123 106 95 90 93 100 111 124 134 140 142 140 136 132 132 136 143 153 161 165 164 156 142 
122 107 98 96 103 117 135 153 167 175 177 175 169 161 152 145 139 134 131 128 126 126 127 131 137 142 144 143 135 123 109 96 87 85 92 108 131 156 175 186 188 182 168 149 128 112 102 98 97 97 95 91 86 82 83 91 107 129 152 170 177 175 162 140 115 94 82 80 88 105 127 147 162 167 164 154 139 122 109 101 99 103 111 120 129 134 136 133 127 121 118 118 123 134 145 156 161 161 153 139 
118 103 95 95 104 119 139 157 170 176 176 171 162 151 141 132 126 121 118 116 114 115 118 124 132 140 146 149 146 137 124 111 100 96 100 113 132 154 171 180 182 177 165 150 134 122 115 113 112 111 107 99 91 85 85 92 108 130 152 168 174 170 154 131 106 87 77 78 87 105 126 145 158 162 158 147 134 120 111 107 108 112 119 125 128 128 124 117 110 103 101 103 112 125 140 152 158 157 149 134 
111 97 89 90 99 116 136 155 168 173 172 164 152 138 126 116 109 105 103 103 103 106 111 120 130 141 151 156 156 149 138 124 112 105 105 114 129 146 161 169 171 167 158 147 137 130 129 130 132 131 125 115 104 95 91 96 110 129 149 163 167 161 144 120 97 81 74 76 87 104 124 140 151 152 147 138 127 117 112 112 115 119 123 125 123 117 109 100 91 87 86 92 104 121 138 151 157 155 144 128 
102 88 81 82 91 108 128 148 162 167 164 155 140 124 110 99 93 91 90 92 95 101 109 120 133 146 156 163 163 158 147 133 119 109 106 110 121 134 146 153 155 152 146 139 136 136 141 147 152 152 146 135 121 108 101 102 112 129 145 156 158 150 133 111 91 78 73 77 88 104 121 134 141 141 135 126 118 114 113 116 121 125 126 123 116 106 95 85 78 76 79 88 104 123 142 154 159 154 140 121 
93 79 72 73 82 98 118 139 154 160 157 146 129 112 97 86 81 80 82 86 92 101 112 125 139 152 162 167 167 161 150 135 120 108 103 104 111 121 130 136 138 136 132 131 132 139 149 159 167 168 163 152 137 121 111 109 116 129 142 150 151 141 125 105 88 78 76 81 92 106 120 129 131 128 121 114 110 110 113 120 126 129 128 121 110 98 86 76 72 73 80 93 112 133 151 162 163 154 137 114 
86 71 64 65 73 88 109 131 147 154 152 140 123 104 89 79 74 74 77 84 93 105 119 133 147 158 166 169 167 159 146 131 115 103 97 97 102 110 117 122 123 122 121 122 128 139 152 165 174 177 173 163 148 132 120 116 120 130 140 147 146 137 122 105 92 85 85 91 101 113 122 125 123 117 109 104 103 107 114 124 131 135 132 123 110 96 84 77 75 79 90 108 128 149 164 171 168 156 134 108 
81 66 59 60 67 82 103 125 143 152 150 139 121 102 86 76 72 73 78 86 99 114 129 144 156 164 168 168 162 152 137 121 107 97 92 93 98 104 111 115 116 115 115 117 125 137 152 165 175 178 175 165 151 136 125 121 125 133 142 148 147 139 127 113 103 99 100 107 116 124 127 125 118 109 101 96 98 105 117 129 138 141 138 128 115 101 90 85 87 95 110 129 149 166 177 180 174 157 132 104 
78 63 57 58 66 81 102 125 143 153 152 142 125 106 90 79 74 75 82 93 108 124 141 154 163 168 168 163 153 140 125 110 98 91 89 92 98 106 112 116 117 116 115 117 123 134 147 160 168 171 167 158 145 133 125 123 128 138 147 152 152 147 138 128 121 119 122 128 134 138 136 129 117 105 96 92 96 106 121 135 145 149 146 137 125 112 104 102 107 118 134 152 169 181 188 187 177 158 131 101 
77 64 59 61 70 85 107 130 148 158 158 149 133 114 98 86 81 82 90 102 118 136 151 162 168 169 164 155 141 126 111 99 91 88 90 97 106 115 122 125 125 123 120 120 124 131 141 149 155 155 151 142 132 123 120 122 131 142 153 159 161 157 151 145 141 142 145 150 154 153 147 135 119 104 94 92 98 110 126 142 152 157 154 147 137 127 122 122 129 141 156 171 183 191 194 190 178 157 128 100 
80 69 66 69 80 96 118 139 156 164 165 157 143 125 109 97 91 92 100 113 130 146 160 168 170 167 158 144 128 112 99 90 86 89 96 106 118 129 136 139 138 134 130 126 126 129 133 136 138 135 130 122 114 110 111 119 131 146 158 166 168 167 164 160 159 161 165 168 170 166 157 141 123 107 96 95 102 116 133 148 159 163 161 155 147 140 138 140 148 159 172 182 190 194 193 186 173 152 125 100 
86 79 79 85 97 113 133 151 164 171 170 163 151 136 120 109 103 104 112 125 140 155 165 170 169 161 148 132 114 99 89 85 86 93 105 120 134 145 152 154 152 146 140 133 129 127 125 123 120 114 107 101 96 96 101 113 130 147 161 170 173 173 171 169 170 172 176 179 179 174 163 147 128 111 102 101 109 123 140 154 163 166 164 158 151 147 146 150 158 167 176 184 188 188 185 176 162 143 121 100 
95 94 98 106 119 134 149 162 171 174 173 167 156 143 130 120 115 117 124 136 149 161 168 170 165 154 138 119 102 89 83 82 89 101 117 134 149 160 165 166 162 155 147 139 131 125 119 113 106 98 90 84 82 84 93 108 127 146 161 169 172 172 170 169 170 174 178 182 182 177 166 150 132 117 109 109 118 132 146 158 164 165 161 155 148 144 144 148 155 163 169 174 175 172 167 158 145 130 115 102 
107 112 120 130 142 153 163 170 174 175 172 166 157 147 137 129 125 127 134 144 155 164 168 167 159 145 127 108 92 82 79 83 93 109 129 147 162 171 174 172 167 159 150 141 132 124 116 107 97 88 79 74 73 77 87 103 123 142 156 164 165 163 160 159 161 165 170 175 176 172 162 149 134 122 117 119 128 140 152 160 162 159 153 144 137 132 132 136 141 147 151 153 151 147 141 133 124 115 109 106 
119 130 141 152 161 167 171 173 173 170 166 160 153 145 138 133 132 135 141 150 159 165 167 163 152 136 116 98 84 77 77 84 98 117 138 157 170 176 177 172 165 156 147 139 131 123 115 105 95 85 76 71 70 74 85 101 119 137 148 153 151 146 141 139 140 145 152 158 161 159 153 143 133 126 124 128 137 148 156 159 157 150 139 128 119 114 113 116 120 124 126 125 122 118 112 107 103 102 104 110 
129 144 157 166 171 174 173 170 166 161 156 150 145 139 135 133 133 137 144 152 160 164 165 159 146 128 108 91 79 74 76 85 101 122 144 162 173 177 174 168 158 148 139 132 127 122 116 108 98 88 80 74 73 77 86 101 117 131 138 139 133 125 117 113 113 118 126 133 139 141 138 134 130 128 130 137 145 153 157 156 148 137 123 110 100 95 94 95 98 101 101 100 96 92 89 87 88 92 101 114 
136 152 163 171 173 172 168 162 155 148 142 137 133 130 128 128 130 135 142 150 157 162 162 155 142 124 104 87 76 71 74 84 102 124 146 163 172 174 169 159 148 136 128 123 121 120 118 114 106 97 89 83 81 84 92 104 117 126 129 125 115 104 94 88 88 92 99 107 114 119 121 122 124 128 134 143 151 156 156 150 138 122 106 93 84 80 79 80 83 85 85 84 81 78 77 77 81 89 102 118 
138 152 161 166 166 162 156 148 140 133 128 124 121 120 119 120 123 128 136 144 152 158 158 153 141 123 103 86 75 71 73 83 100 121 143 160 168 168 161 149 135 123 115 113 114 118 121 121 117 111 103 97 94 96 102 112 121 126 124 115 103 89 78 71 70 72 78 85 92 99 105 111 118 126 137 146 154 156 153 143 127 109 93 81 74 71 71 74 77 80 81 81 79 77 77 79 84 93 106 122 
136 145 151 153 151 146 140 132 125 120 116 113 111 110 109 110 113 118 125 134 144 152 155 153 143 126 108 90 78 72 73 81 96 116 138 154 162 162 154 140 125 112 105 104 108 116 123 128 129 125 119 114 110 111 116 122 128 129 124 113 98 84 72 64 62 62 66 72 78 85 93 102 113 125 138 148 154 155 148 135 117 99 84 74 70 69 72 78 83 88 90 91 91 90 90 91 96 103 113 125 
130 133 134 133 131 126 122 118 114 111 109 107 105 103 101 100 101 104 111 122 134 145 153 154 148 135 117 99 84 75 74 79 92 110 130 147 157 157 149 136 120 106 98 98 104 114 126 135 139 139 135 131 127 127 129 133 137 136 130 119 104 89 76 68 63 62 64 68 73 79 88 98 111 125 138 148 153 151 142 127 109 93 80 74 73 76 83 91 100 107 112 114 114 113 113 113 114 117 121 126 
122 118 115 112 110 108 107 108 109 110 110 108 105 101 95 91 89 91 97 107 121 137 150 157 156 147 132 113 96 83 77 78 88 104 123 141 152 155 149 136 120 106 97 96 103 114 127 139 147 149 148 144 141 139 140 143 145 145 140 131 118 104 91 82 76 72 71 73 75 80 88 98 111 125 139 148 151 147 137 121 104 90 82 79 82 90 101 114 125 134 140 143 143 142 141 138 136 133 129 125 
113 104 98 95 94 95 99 105 111 115 117 116 111 103 94 86 81 80 84 94 109 129 148 161 165 161 149 131 112 94 83 80 86 99 117 135 149 154 151 140 126 111 102 99 104 115 129 142 151 155 155 152 149 146 147 149 151 153 151 146 137 126 115 106 98 92 88 86 85 88 93 102 115 128 140 147 149 143 132 117 102 92 87 89 98 110 125 140 152 161 166 169 169 167 164 160 153 145 135 123 
105 94 86 83 85 90 99 110 120 127 131 129 121 109 96 84 75 71 73 82 99 121 145 164 174 175 167 151 131 110 93 85 86 95 112 131 147 156 156 148 135 121 110 106 109 118 131 144 153 158 158 155 150 147 146 149 152 156 159 159 156 151 144 136 128 120 113 106 102 100 103 110 120 132 142 148 148 141 129 116 103 96 96 103 116 133 149 164 174 181 184 185 185 182 179 173 164 151 136 120 
100 88 81 80 84 93 106 120 133 143 147 144 135 120 103 86 74 67 67 75 91 115 143 166 181 186 181 169 150 127 106 92 88 94 108 127 145 157 160 155 145 131 120 114 115 122 133 144 153 157 156 152 147 142 140 142 147 154 161 167 170 170 168 163 157 148 139 129 120 115 115 119 127 137 145 150 148 141 129 117 107 103 107 118 134 152 167 179 187 191 192 191 189 186 182 175 165 152 135 117 
100 89 84 84 90 102 117 133 148 158 162 160 150 134 113 93 77 67 65 70 85 110 139 166 184 193 192 183 166 143 119 100 91 94 105 123 142 156 162 160 152 140 129 122 121 126 135 145 152 155 152 146 139 132 128 129 135 145 156 166 175 180 182 181 177 169 159 148 137 129 126 128 134 143 149 152 150 142 131 120 112 111 117 130 147 163 177 185 189 190 188 185 182 178 174 168 159 147 131 115 
104 96 93 95 102 114 129 146 159 169 173 172 163 148 128 105 86 72 67 69 82 105 135 164 185 196 198 192 177 156 130 108 96 94 102 118 137 152 160 160 154 145 134 127 126 130 137 145 151 152 147 139 129 120 114 113 119 129 143 157 170 180 186 188 185 180 170 158 147 138 133 134 140 147 153 155 153 145 134 124 117 117 124 137 152 166 176 181 182 179 174 169 164 160 157 153 147 139 128 115 
114 109 108 110 117 127 140 153 165 174 178 178 173 161 143 122 100 83 73 72 81 101 129 158 181 195 199 196 184 164 138 115 99 94 99 112 129 144 153 155 151 143 135 129 128 131 138 145 149 148 143 133 120 109 101 98 101 111 124 140 156 169 178 183 183 179 171 160 149 140 136 137 143 150 156 158 156 148 138 128 121 121 126 137 149 160 166 167 164 157 149 142 136 133 133 133 133 131 127 120 
129 127 127 128 132 138 145 154 163 170 176 179 178 171 158 139 118 98 83 77 81 96 121 149 173 189 196 194 184 166 142 118 101 93 96 106 120 134 143 146 143 137 130 126 126 130 136 143 147 145 139 128 114 101 91 87 87 94 105 119 135 150 161 168 170 168 161 152 143 136 134 137 144 152 158 161 158 152 142 132 124 122 124 131 139 145 147 144 137 128 118 111 106 106 109 114 121 126 129 130 
145 146 145 144 143 142 143 146 151 158 166 173 177 176 170 156 137 115 97 85 83 92 111 135 159 177 186 187 179 163 141 118 101 92 93 100 111 123 130 133 131 126 122 119 121 126 133 139 143 142 136 126 112 99 88 82 80 82 89 99 112 125 137 145 149 148 144 138 132 128 128 133 141 151 158 161 160 154 145 134 126 121 120 122 124 125 122 116 108 98 89 84 82 84 91 102 115 127 137 143 
161 162 160 155 149 141 134 131 132 138 147 159 169 176 176 168 153 132 111 94 85 87 99 119 141 160 171 174 169 155 136 116 100 92 91 97 105 113 119 121 119 115 112 111 113 119 127 134 139 139 135 126 115 103 92 84 79 78 80 85 93 102 111 118 123 125 124 121 119 118 121 127 137 147 155 159 159 154 146 137 128 120 115 112 109 105 99 92 83 75 69 66 67 73 83 98 116 133 147 156 
173 174 170 161 149 134 121 111 108 112 123 139 155 169 176 175 165 146 123 102 88 83 89 102 120 138 151 156 153 143 128 112 100 93 92 96 102 108 111 111 109 105 103 103 106 112 120 128 134 136 135 129 122 112 103 94 88 83 80 80 82 86 91 96 101 104 106 107 107 109 113 120 130 140 148 154 156 153 147 139 130 122 114 106 99 91 83 75 68 62 59 59 63 71 84 103 123 143 158 169 
181 180 174 162 145 125 106 92 86 88 99 116 137 157 171 176 170 155 133 109 91 81 81 89 102 117 130 136 136 130 119 108 100 96 97 100 105 108 109 108 104 100 97 97 100 105 113 121 128 133 135 134 131 126 119 112 104 96 89 83 80 79 81 84 88 92 95 98 100 103 107 113 121 130 138 145 149 150 148 143 136 127 117 106 95 85 75 67 61 58 57 59 66 77 93 113 134 154 168 177 
182 180 173 160 140 116 94 78 70 70 79 95 118 143 162 172 171 160 139 116 95 82 78 81 90 101 112 119 122 119 113 107 103 103 105 109 112 114 113 110 105 99 96 95 97 101 108 116 124 131 136 140 142 141 139 134 126 117 106 96 88 83 81 82 85 90 94 98 100 102 104 107 112 118 125 133 139 144 147 147 144 137 127 114 100 87 75 67 61 59 61 66 75 88 106 126 145 161 173 180 
178 176 169 155 135 111 88 71 62 60 66 80 102 128 151 165 169 161 144 122 101 86 79 79 85 93 102 109 113 113 111 110 110 112 116 121 124 125 122 117 110 104 99 97 97 101 106 113 121 129 138 145 151 155 156 154 149 139 127 115 103 95 91 90 93 98 102 105 106 105 103 102 102 105 110 118 127 137 146 152 153 150 141 129 113 97 84 74 69 68 71 79 90 104 121 137 152 164 172 176 
167 166 161 149 132 110 88 71 60 57 60 72 91 116 141 158 165 161 148 129 110 95 87 85 88 94 101 107 111 113 114 116 119 123 129 134 137 137 133 126 118 111 105 102 102 104 108 115 122 130 140 149 157 164 168 168 165 158 147 135 123 113 109 108 110 115 118 120 118 112 105 98 93 92 95 103 115 129 144 156 163 164 158 147 132 115 100 89 83 83 87 96 108 121 134 144 153 159 163 165 
149 151 150 144 131 114 94 77 65 60 61 70 87 110 134 153 163 162 153 138 122 108 99 95 96 100 106 110 114 117 120 124 129 135 141 146 148 147 143 135 127 119 113 109 109 111 115 120 126 134 142 151 159 167 172 174 172 167 159 150 140 133 130 130 133 137 140 139 133 122 109 95 86 81 82 89 102 121 142 160 171 176 174 166 153 136 121 109 103 103 108 117 127 136 142 145 146 145 145 146 
126 133 138 139 134 122 106 89 77 69 68 75 89 110 133 152 163 165 159 148 135 122 113 109 108 110 114 118 121 125 129 134 139 146 151 155 156 154 149 141 132 124 119 117 117 120 124 129 134 140 146 152 158 163 167 169 169 166 161 156 151 148 148 151 155 159 160 157 148 132 113 94 80 73 72 78 91 112 137 160 177 185 186 180 170 156 142 131 126 126 130 137 143 146 145 140 132 126 122 122 
104 115 127 136 138 133 121 106 93 83 80 85 98 117 138 155 165 169 165 157 146 135 126 121 119 119 121 124 128 132 137 142 148 154 158 160 160 156 149 141 132 125 122 122 124 129 135 140 144 147 150 152 153 154 154 154 154 153 152 151 152 156 161 167 172 176 177 172 161 141 118 94 77 67 64 69 82 104 132 158 178 189 192 189 181 170 158 149 145 145 149 153 155 151 143 130 116 104 98 98 
87 101 119 134 144 145 137 125 111 100 96 99 110 127 145 160 170 173 171 164 154 144 134 127 123 122 124 127 131 136 142 148 154 159 161 161 158 152 144 134 126 121 120 122 128 136 144 150 154 155 154 151 146 140 135 132 130 130 132 137 145 155 165 175 183 187 187 182 169 148 122 95 75 63 59 63 75 97 125 153 175 188 192 190 184 175 166 159 156 157 161 163 161 153 138 119 100 86 79 79 
77 93 114 135 149 154 150 140 127 116 110 113 123 138 154 167 174 177 174 167 157 145 134 125 120 118 120 124 130 137 145 152 157 161 162 159 153 145 134 124 116 112 113 118 128 139 150 158 163 162 158 149 138 125 115 107 103 104 108 117 131 147 163 177 186 192 193 187 175 153 125 97 75 62 57 60 71 90 116 144 166 180 186 184 179 171 164 159 159 162 166 167 163 152 134 111 90 74 67 68 
74 91 114 137 153 160 157 148 135 125 119 122 131 145 160 171 177 179 175 166 154 139 126 116 110 108 110 115 124 134 144 152 159 161 160 155 147 135 123 112 104 101 103 111 124 138 152 163 168 168 161 148 132 113 98 87 81 81 86 97 114 134 155 173 185 192 193 188 176 156 129 101 79 65 59 60 69 85 108 132 153 166 171 169 164 157 152 150 153 159 165 167 164 152 132 107 85 70 63 64 
78 96 118 140 155 161 157 148 135 125 120 123 133 147 161 172 178 178 172 161 146 129 113 102 95 94 97 104 115 128 141 151 158 160 158 151 140 126 112 101 93 91 94 103 117 134 150 163 170 170 163 149 129 107 88 75 68 67 71 82 99 121 144 164 178 186 188 185 174 157 133 107 86 72 66 65 71 83 100 119 135 145 148 146 140 134 131 133 140 150 160 165 163 153 133 110 88 73 66 68 
89 107 127 145 156 158 152 140 127 116 112 116 127 142 158 169 175 174 167 154 136 116 99 87 81 80 85 93 106 122 137 149 156 158 155 146 134 120 106 95 88 85 88 96 109 126 144 158 167 169 163 149 129 106 86 72 64 62 65 74 89 109 131 151 166 175 179 177 169 156 137 117 99 86 79 77 80 87 97 108 117 122 122 118 112 108 108 113 125 139 153 162 163 155 139 118 97 83 77 79 
108 123 139 152 157 154 143 128 113 102 99 103 115 132 149 163 170 169 161 146 126 106 88 77 71 72 77 86 100 117 133 145 153 154 150 142 131 118 105 95 89 86 87 93 104 118 134 149 159 163 160 150 132 112 92 78 69 65 67 74 85 101 119 135 149 158 163 163 160 153 142 129 116 106 99 96 95 96 99 102 103 102 98 92 88 85 87 96 110 128 146 159 163 159 147 129 112 100 94 97 
