P2
100 100
255
132 158 183 199 202 190 163 123 85 59 48 52 69 101 142 176 195 199 187 159 118 78 50 35 30 32 39 52 74 103 132 155 166 167 159 144 124 105 90 79 73 71 70 73 81 95 113 132 147 157 159 151 135 113 92 75 61 52 46 43 46 55 70 91 114 136 155 170 180 184 180 170 156 142 129 118 106 93 79 66 55 47 41 37 34 35 41 55 81 118 156 182 193 188 171 145 119 103 100 111 
170 189 203 209 203 184 147 103 66 45 36 39 55 85 126 164 188 195 185 159 120 81 55 41 37 39 47 60 79 100 121 135 140 138 131 121 112 106 103 103 103 101 97 92 87 87 92 101 113 125 136 143 143 138 127 114 100 85 71 59 51 49 53 62 76 93 113 135 156 174 185 188 186 181 174 164 149 129 103 76 55 41 32 27 25 26 31 45 70 106 144 173 187 188 177 161 145 137 140 152 
197 208 215 215 203 176 134 87 53 35 29 32 47 75 117 158 185 194 188 166 133 98 72 59 56 59 68 81 94 106 114 116 113 107 101 97 100 108 121 134 141 142 134 120 102 86 77 75 81 93 111 131 149 161 164 159 148 131 109 85 65 51 45 45 50 60 76 100 129 160 184 198 205 207 205 198 185 163 130 94 63 43 31 25 24 26 33 47 70 103 138 164 177 179 173 164 158 159 168 182 
210 219 222 217 202 170 123 76 45 30 26 30 45 74 116 158 186 197 194 179 153 125 103 92 90 95 104 114 120 121 114 102 89 79 74 77 88 110 138 162 176 179 171 151 123 92 70 58 58 67 88 118 150 176 191 194 189 174 150 118 85 59 44 37 36 41 52 74 107 146 180 202 215 220 221 217 207 187 154 113 76 50 36 31 31 35 44 60 83 111 137 154 160 159 153 150 153 163 179 196 
213 222 224 218 200 164 115 70 42 29 27 33 50 81 123 164 190 201 200 190 174 155 141 134 135 141 149 154 151 139 117 92 72 59 54 60 78 109 147 180 199 205 198 178 144 103 69 49 43 50 70 104 147 183 206 215 214 204 183 148 106 70 46 34 30 32 40 60 93 136 176 203 218 225 227 225 217 200 171 131 92 64 49 45 48 56 69 87 108 127 139 142 137 128 122 121 130 150 174 197 
210 221 223 216 196 159 109 67 42 31 32 41 62 96 137 173 194 203 203 196 186 176 171 170 175 181 186 187 178 156 123 88 60 45 41 47 67 103 149 188 211 219 215 197 162 116 73 47 36 39 57 92 140 184 211 224 226 219 201 167 122 79 50 35 29 30 38 57 89 132 173 201 216 223 226 224 218 203 178 144 109 84 72 72 79 93 110 127 141 148 144 130 112 95 86 86 99 124 157 188 
201 216 220 213 191 152 104 65 44 37 41 56 81 116 153 181 195 199 197 191 185 182 184 190 198 205 209 207 195 169 129 85 54 37 32 38 58 95 145 189 215 225 223 208 177 130 81 48 34 34 49 83 133 180 211 226 230 224 207 175 129 85 54 39 33 35 44 64 95 135 172 196 210 216 217 215 208 195 176 150 125 109 105 111 124 140 157 169 174 168 149 120 90 68 57 57 69 95 133 172 
189 209 214 206 183 144 99 66 49 47 57 77 107 140 167 184 189 185 178 171 167 170 179 192 205 214 219 217 204 177 133 86 51 33 27 32 50 86 138 185 215 227 227 216 188 143 92 54 35 33 46 78 127 176 208 224 227 221 204 171 127 86 58 46 43 48 61 82 112 145 172 189 197 199 197 193 185 175 161 147 136 134 140 153 168 183 194 200 197 183 152 112 75 50 39 38 47 71 109 154 
177 200 206 197 171 133 93 67 57 62 79 105 135 161 176 179 172 158 144 134 133 141 158 179 199 213 220 220 209 182 139 90 52 32 25 29 45 79 130 179 211 226 229 220 197 157 106 64 42 37 48 78 124 171 203 217 219 210 190 157 117 83 63 57 62 73 90 112 136 158 172 177 176 170 163 155 148 141 135 133 138 151 167 184 199 210 217 218 211 191 154 106 65 40 29 28 35 55 91 138 
168 191 196 184 156 120 87 69 68 82 107 136 162 176 178 166 145 122 102 91 90 101 123 153 182 204 216 219 210 187 147 99 59 37 28 30 44 75 123 173 207 223 228 222 204 169 122 80 54 47 56 84 126 168 195 206 204 190 166 133 101 78 70 75 90 109 130 149 164 172 171 161 146 131 118 108 102 100 103 114 133 157 182 202 215 224 228 227 217 194 152 101 59 35 25 23 30 48 81 127 
162 183 185 169 139 105 81 73 83 106 137 164 182 185 173 147 114 85 65 55 55 66 88 121 158 188 207 214 210 192 159 115 75 49 37 37 49 77 120 166 200 218 224 220 207 179 140 101 74 65 73 98 133 165 185 189 180 160 133 104 83 74 79 98 124 150 170 183 187 183 168 144 116 93 77 69 66 68 77 94 122 156 186 208 222 229 232 229 218 193 149 96 55 33 23 22 30 47 80 123 
162 178 173 152 121 92 77 79 99 130 163 186 195 188 164 126 87 58 41 34 34 43 61 91 130 167 193 207 208 197 172 137 100 73 58 54 63 85 121 160 190 207 215 214 204 185 155 124 101 92 99 118 143 163 172 166 149 124 97 77 67 71 89 120 155 182 199 206 203 190 165 130 95 68 53 46 45 49 60 80 110 148 182 207 221 229 231 228 216 188 143 91 52 32 24 24 33 53 86 127 
166 174 163 136 104 81 74 86 114 151 182 200 202 187 154 109 68 42 28 23 24 31 45 70 105 143 175 194 202 199 185 162 134 110 93 85 88 101 124 150 173 188 196 198 193 181 164 144 129 124 129 141 155 161 157 141 116 90 69 57 56 69 98 138 176 202 215 218 212 195 164 124 85 58 44 38 38 43 53 71 99 135 171 197 214 223 226 223 209 180 134 84 49 32 26 29 41 64 99 138 
173 172 153 121 91 72 72 92 128 167 196 209 206 186 147 97 57 34 23 20 22 28 39 58 86 120 152 176 190 195 192 182 167 151 137 127 121 121 127 137 148 157 164 168 169 167 161 155 151 152 156 161 164 158 143 118 91 67 52 46 50 69 103 147 186 210 221 222 214 196 166 126 88 61 48 43 44 47 55 68 89 119 151 179 198 210 215 212 198 168 123 78 48 33 30 36 52 81 118 153 
179 170 143 108 79 66 71 96 137 177 204 214 208 185 143 93 54 32 24 22 25 32 41 55 75 101 127 151 170 183 191 193 191 185 176 166 154 140 127 119 115 116 120 125 132 140 148 156 163 168 172 173 168 154 131 103 76 56 45 42 50 69 104 148 185 208 218 219 211 195 168 134 101 78 66 62 61 62 64 70 81 100 124 149 171 187 196 195 182 153 112 73 48 37 37 47 69 103 140 168 
184 167 134 96 69 59 68 97 140 181 207 216 210 186 144 95 58 37 30 31 36 44 53 62 73 87 103 121 141 161 179 193 201 204 202 193 176 152 124 99 84 77 77 83 93 109 128 147 163 174 178 176 166 148 123 96 73 57 48 47 54 72 102 140 173 195 205 206 200 187 168 144 122 107 99 96 93 88 82 77 76 82 95 113 134 153 166 171 162 138 105 73 53 45 48 64 92 128 162 182 
185 161 124 85 61 54 64 93 137 179 206 215 209 188 150 105 69 51 46 50 59 69 76 79 80 80 83 92 107 129 156 181 201 211 213 206 188 156 117 82 60 50 48 52 64 82 108 135 157 171 175 170 158 139 118 97 81 70 64 63 67 79 99 126 150 168 177 179 177 171 163 154 147 142 141 139 134 122 105 87 73 68 70 80 96 115 133 144 144 129 105 81 65 61 68 88 119 153 179 191 
185 155 114 76 53 48 58 85 126 168 197 209 206 188 157 120 90 76 75 84 97 108 112 107 94 80 70 68 76 95 126 161 191 209 216 210 190 153 108 69 45 34 32 36 48 67 95 125 150 163 164 156 144 129 116 106 99 95 93 91 91 93 99 109 120 129 135 138 141 144 150 158 166 173 178 178 171 154 127 97 72 58 53 56 67 84 106 124 134 130 117 100 89 87 98 119 148 175 192 197 
183 150 107 70 48 42 50 72 108 148 179 195 196 185 163 138 118 111 117 130 145 154 153 139 113 84 62 51 53 67 96 136 175 202 212 208 187 146 98 59 37 27 26 31 44 65 94 124 145 153 149 138 125 117 114 118 125 131 133 131 124 115 104 96 91 89 90 93 100 113 133 156 178 193 201 203 195 174 141 102 70 51 43 43 51 68 92 118 137 143 139 130 123 123 133 152 173 191 201 200 
183 149 105 68 46 38 43 59 86 120 150 170 177 174 164 153 146 149 159 173 186 192 186 165 128 88 57 41 38 47 72 112 157 191 206 203 180 137 88 52 32 25 26 34 50 75 105 132 147 147 135 118 105 103 111 129 150 165 173 171 160 140 115 89 71 60 56 58 67 86 116 152 183 203 214 215 205 182 143 100 66 46 37 38 46 65 93 125 150 164 166 162 158 158 165 178 192 203 207 202 
186 154 110 71 47 37 37 46 64 88 114 134 148 155 158 161 167 176 189 202 211 213 205 180 138 90 54 35 30 36 57 95 142 181 199 196 172 128 81 48 32 28 32 46 69 99 129 151 156 145 123 100 87 88 106 135 167 190 201 200 189 164 128 90 61 44 37 38 48 69 105 149 186 208 218 218 205 178 136 92 59 41 35 37 49 72 105 141 169 184 188 186 183 182 186 194 202 209 210 204 
192 164 123 83 55 40 35 38 48 62 80 98 115 131 146 162 177 192 206 216 223 222 212 185 140 89 52 32 26 32 51 87 135 174 193 190 165 122 77 48 35 35 46 68 99 133 160 174 169 148 116 87 71 74 96 134 173 202 216 217 207 183 142 96 59 38 29 29 39 62 102 149 188 211 219 215 198 166 121 79 51 38 34 40 57 86 124 160 186 198 201 199 195 192 194 199 205 210 212 207 
200 178 143 103 70 48 38 35 38 45 56 70 87 109 133 159 181 199 213 222 226 223 210 182 135 86 50 32 27 34 54 90 137 175 192 187 161 119 77 51 43 49 69 101 138 170 190 195 183 153 112 77 60 62 84 125 171 204 221 225 218 195 155 104 62 37 27 28 38 63 105 153 191 211 216 208 185 147 102 66 44 35 36 47 69 103 143 176 196 204 203 197 190 186 187 192 199 207 211 210 
207 193 166 130 93 65 47 38 36 39 45 56 73 97 126 156 182 201 213 220 222 218 202 171 126 80 50 35 33 43 67 105 149 181 195 188 160 119 80 58 55 69 99 138 175 200 212 211 194 158 111 71 51 51 71 111 160 200 221 228 223 204 166 114 68 41 29 30 42 69 113 160 194 210 210 196 166 124 83 54 39 36 42 58 86 123 159 185 197 198 191 180 169 162 163 171 183 196 206 211 
211 205 188 159 123 89 64 49 42 41 46 56 73 98 128 158 182 198 208 213 212 204 186 154 113 76 53 44 48 64 92 131 168 193 200 189 161 120 84 67 70 93 131 171 202 219 226 221 201 163 111 67 44 41 57 94 144 189 216 227 225 209 174 124 76 46 34 35 50 80 124 168 196 207 201 180 144 102 67 46 38 40 51 73 105 141 170 186 188 179 164 146 131 122 124 135 154 176 195 207 
209 211 203 183 154 119 89 68 58 56 60 71 89 113 140 164 182 193 198 197 192 180 159 130 97 72 60 60 73 96 128 162 189 204 205 190 159 120 87 74 84 114 156 194 218 230 233 226 205 165 111 64 40 34 46 76 124 173 207 223 224 211 181 134 86 54 41 43 60 92 135 174 196 200 188 160 121 83 57 44 42 50 68 95 127 157 174 178 168 148 124 102 86 79 80 93 115 145 174 197 
201 211 210 199 177 148 119 97 85 83 89 102 120 140 159 174 181 182 178 170 159 143 123 101 83 72 73 86 108 136 166 191 207 213 207 188 154 114 85 77 91 126 170 205 226 235 236 228 208 167 111 63 36 29 36 60 103 154 194 216 220 211 184 141 95 63 49 52 71 104 143 176 191 189 171 139 102 72 54 49 55 70 94 123 151 170 174 164 140 111 84 63 51 46 48 58 78 109 146 179 
184 202 208 204 190 169 146 128 119 120 129 142 157 170 179 182 177 166 150 133 116 101 87 76 70 75 91 116 146 174 196 211 218 217 205 180 142 103 77 72 89 126 171 206 227 236 236 229 208 168 111 62 35 25 29 48 84 134 179 206 215 208 185 146 103 71 58 62 81 112 147 172 181 174 152 121 90 69 61 65 79 101 128 154 173 180 172 148 114 80 54 38 30 27 28 36 51 78 114 153 
160 185 196 197 188 174 160 150 149 155 166 178 188 194 195 187 170 146 118 95 77 65 58 56 63 80 109 145 177 201 215 223 223 216 198 166 124 86 65 62 78 114 159 197 220 232 234 227 207 167 112 64 35 24 26 40 71 117 165 196 208 203 183 148 108 78 66 70 88 115 143 162 166 155 134 108 88 78 80 92 114 139 164 182 191 188 170 136 95 61 38 26 20 18 19 24 35 55 85 124 
131 158 173 177 172 164 157 156 164 176 190 201 208 210 204 188 161 125 91 65 50 42 40 44 58 85 125 166 197 216 225 228 223 210 184 145 102 68 51 49 63 93 136 177 206 222 227 222 203 166 114 67 38 26 26 38 65 107 154 186 200 197 177 145 109 82 71 75 90 113 134 147 148 137 121 105 96 97 109 129 152 175 192 202 204 195 171 132 88 54 33 22 17 15 16 19 27 41 64 96 
104 128 141 145 142 137 137 145 161 180 198 211 217 216 207 186 151 108 71 47 34 29 30 38 57 91 137 180 208 223 229 227 218 198 164 120 79 52 39 38 47 70 106 146 181 203 213 212 197 164 117 74 46 33 33 44 68 107 150 180 192 188 169 138 105 82 73 76 89 107 123 132 132 125 116 111 114 125 143 165 184 200 210 214 212 200 175 137 93 58 37 25 20 18 18 21 26 36 53 77 
89 104 111 110 106 103 107 120 142 169 193 209 217 216 205 180 140 95 59 37 27 24 26 36 58 96 145 187 213 225 228 222 207 180 139 95 60 40 30 29 36 51 76 110 146 174 191 195 185 160 123 86 61 49 49 60 85 119 155 179 187 179 157 127 98 79 72 75 85 99 112 119 121 120 120 126 137 154 174 191 205 214 218 219 214 203 182 148 109 75 52 39 32 29 29 30 34 42 55 71 
91 95 93 86 78 73 77 90 114 144 174 196 207 208 197 171 130 86 53 34 25 23 26 38 62 102 151 191 214 223 222 212 190 155 112 73 46 32 26 25 29 38 54 78 108 137 158 169 167 153 129 104 85 77 79 92 114 142 167 182 183 170 145 114 89 73 68 72 82 94 105 113 119 125 133 145 161 178 194 205 213 217 218 216 211 202 187 163 133 105 83 68 60 55 53 53 56 62 71 82 
109 103 91 77 63 56 56 65 84 113 144 170 186 191 182 158 121 83 54 37 29 27 32 46 72 113 158 193 212 217 212 195 166 126 86 55 37 28 25 25 27 33 43 58 78 101 122 138 145 144 135 125 118 116 122 134 152 170 183 188 181 161 132 102 79 67 65 70 80 92 104 115 125 135 148 163 179 193 203 208 210 209 206 202 198 193 186 174 159 143 127 115 106 100 96 95 97 100 105 109 
140 126 106 83 64 51 46 49 61 82 108 134 153 162 159 143 115 86 63 48 42 41 47 63 90 129 167 194 207 206 194 170 136 97 65 44 33 29 28 30 33 38 44 52 63 78 93 108 121 131 139 144 150 156 165 174 185 193 197 193 178 153 121 92 72 64 64 71 82 95 109 122 135 148 162 176 188 196 200 199 194 187 180 174 171 171 174 177 178 176 171 165 160 155 151 149 148 149 149 147 
172 155 131 103 77 58 47 44 48 59 76 95 114 127 132 128 115 98 83 73 68 69 76 93 118 149 176 193 197 188 168 138 103 72 50 38 34 35 39 45 51 55 59 62 65 70 77 88 101 118 136 155 171 184 194 201 206 208 205 195 175 145 112 85 69 63 66 75 89 103 118 132 146 158 170 180 186 188 184 175 162 148 136 129 128 136 151 169 185 196 201 202 200 197 195 192 190 188 186 181 
193 180 159 132 102 77 58 47 44 46 54 66 80 95 109 118 122 121 117 112 110 112 120 133 151 170 183 187 181 163 135 104 75 54 42 39 42 50 62 74 84 90 92 89 84 78 75 77 86 103 127 153 177 195 207 213 215 213 206 191 168 136 105 82 70 68 75 86 101 116 130 142 152 161 168 172 172 166 154 137 118 100 87 81 83 95 119 150 181 202 215 220 221 220 217 214 211 208 205 201 
202 194 181 161 134 106 81 61 49 43 43 49 59 74 93 115 135 148 155 158 159 161 165 172 179 185 185 177 158 132 102 75 55 43 40 45 58 77 99 119 133 140 139 131 116 98 83 74 76 88 112 141 170 192 206 212 213 209 199 181 156 126 100 83 78 81 91 105 119 131 140 147 151 154 155 152 145 133 115 95 76 61 50 46 49 62 88 127 169 200 218 226 228 227 224 220 215 211 208 205 
197 198 194 184 166 142 113 86 64 50 42 42 48 62 86 118 149 173 187 193 195 196 197 197 196 191 180 160 133 102 74 54 43 39 45 59 84 114 144 167 181 187 184 173 152 125 97 77 70 76 94 122 152 176 192 199 199 193 180 161 138 115 98 91 93 103 116 129 140 146 148 146 142 137 131 124 113 98 80 63 48 37 30 27 30 42 66 106 153 191 213 223 226 223 217 210 202 197 194 195 
178 190 197 198 191 174 150 120 89 65 49 43 46 59 86 124 162 190 206 214 216 215 213 209 201 189 168 140 108 78 56 43 39 42 56 81 115 152 182 202 213 216 213 202 180 149 113 83 68 67 78 100 126 150 166 172 171 163 149 132 115 103 99 104 116 131 145 156 161 159 151 139 126 114 104 95 83 71 57 45 34 26 22 20 23 32 53 89 136 177 202 213 213 207 196 183 171 163 162 167 
147 171 192 203 206 198 182 155 121 89 64 51 50 62 90 131 171 200 216 223 224 222 217 209 196 177 151 119 88 64 48 41 42 52 74 107 147 182 207 221 228 230 226 215 195 163 124 90 69 63 69 84 103 120 132 135 131 122 110 99 92 93 103 121 141 160 173 180 178 168 150 128 107 92 81 72 65 56 48 39 31 25 22 20 23 31 49 81 122 161 185 193 188 175 157 138 122 114 115 127 
112 148 180 203 213 213 204 184 154 118 85 64 58 68 95 135 175 203 218 223 223 218 210 198 181 158 131 102 77 60 50 48 55 71 99 137 174 202 220 229 233 233 228 218 198 168 130 96 76 68 71 79 90 98 101 98 91 83 75 71 73 86 109 138 165 185 195 197 189 172 145 115 90 74 65 60 57 54 50 45 39 34 30 29 31 38 54 81 114 144 161 162 151 131 108 88 74 68 71 85 
84 125 167 198 215 220 217 204 180 146 110 82 71 76 99 135 172 198 211 215 212 204 192 176 157 135 112 92 77 67 64 67 79 100 130 164 193 213 225 230 231 229 222 210 190 162 130 103 88 83 86 91 94 92 85 75 64 56 51 52 61 83 116 153 183 202 209 207 196 172 139 104 77 62 57 58 61 65 66 64 60 55 51 49 51 58 71 92 114 131 136 127 109 87 67 52 42 38 42 56 
67 107 154 192 214 223 223 215 197 168 133 101 83 83 99 128 159 182 193 195 189 177 161 143 126 112 100 93 89 88 91 99 114 135 160 185 204 217 223 225 222 216 206 191 170 147 125 111 107 110 115 118 115 104 86 67 51 42 38 42 55 82 122 165 196 212 217 213 198 170 132 94 68 57 57 64 77 89 98 101 99 94 89 86 87 92 102 114 124 125 116 98 77 57 42 32 26 25 29 41 
59 97 144 185 209 221 224 219 205 182 149 116 93 86 95 114 137 154 162 160 151 136 120 107 98 95 98 104 112 121 129 139 152 167 183 198 208 214 214 211 203 191 176 157 139 124 117 120 130 143 153 156 148 129 100 71 49 37 32 36 51 82 127 173 203 218 222 215 198 166 125 86 63 56 62 79 102 124 140 148 148 145 140 136 135 137 141 143 139 126 105 80 58 42 31 25 21 22 26 37 
59 93 136 175 201 214 218 216 205 185 155 123 98 86 86 96 108 118 121 116 106 94 83 77 79 89 106 125 143 157 167 174 181 188 195 200 203 202 196 186 171 152 132 114 102 98 107 127 152 174 187 190 182 159 123 84 53 36 30 34 50 82 130 177 207 221 223 215 195 161 117 81 61 60 73 99 131 159 178 187 189 187 184 180 178 177 175 169 155 132 102 73 51 37 29 25 24 25 30 40 
66 92 127 160 185 199 205 203 195 178 152 122 97 82 76 78 82 84 83 78 70 63 59 62 74 95 123 150 171 185 192 195 196 195 194 191 187 178 166 148 127 106 87 74 70 77 99 133 169 196 211 214 207 185 147 100 61 39 30 33 49 83 132 179 208 221 222 212 190 153 110 77 62 66 87 120 156 185 202 210 212 210 208 205 202 199 194 185 166 138 104 74 53 41 35 33 34 36 41 50 
78 94 116 140 159 172 179 180 174 160 139 115 93 77 69 65 63 61 58 54 49 47 49 60 80 110 144 172 191 201 204 201 196 188 179 170 159 145 127 107 86 68 55 48 49 63 93 137 180 209 224 228 222 203 166 116 70 43 31 33 49 83 133 179 207 219 219 206 181 143 102 75 66 75 101 138 174 198 212 217 218 216 213 210 208 205 199 189 171 143 111 83 64 54 51 52 55 59 63 69 
97 99 105 114 125 134 141 144 143 136 123 106 90 76 66 59 54 50 46 43 42 43 51 68 96 131 164 188 202 206 202 193 180 165 151 137 123 109 93 76 60 47 38 35 39 55 89 138 185 215 230 235 230 213 179 128 78 47 34 35 52 86 134 178 205 215 212 196 168 130 95 74 71 87 117 153 183 202 210 212 210 206 203 200 198 196 193 184 169 147 121 99 84 79 80 85 91 95 98 97 
118 104 94 89 90 94 100 106 111 113 111 103 93 82 72 63 55 49 45 43 44 50 64 87 119 153 181 197 203 199 188 170 150 130 114 101 91 82 72 61 50 40 33 31 35 51 85 135 184 216 232 236 232 217 185 135 85 52 38 40 58 93 138 178 201 207 200 181 151 116 88 76 81 101 132 163 186 197 199 195 188 181 176 174 174 175 175 172 164 150 134 121 115 115 121 130 138 142 140 132 
137 109 85 70 64 64 70 79 90 101 109 111 107 99 88 77 67 59 54 53 56 67 85 113 144 173 191 199 196 182 161 136 111 92 80 73 71 70 68 62 54 44 37 33 36 50 80 128 177 211 229 234 230 215 184 137 89 57 45 50 70 105 146 179 195 196 184 160 130 101 84 82 95 119 147 171 184 185 177 165 151 140 134 133 137 144 151 156 156 153 148 145 147 153 163 173 180 182 176 161 
148 110 78 58 49 49 54 67 84 104 120 130 132 126 116 103 90 79 73 72 78 92 114 141 167 187 196 194 180 156 126 98 76 62 57 58 65 74 80 80 73 62 50 41 40 49 74 115 163 199 219 226 222 207 177 133 91 65 57 66 89 123 157 180 188 181 161 134 108 89 83 92 113 139 163 177 178 168 148 126 108 95 90 92 101 113 127 140 150 156 160 165 172 182 192 201 206 206 198 179 
152 109 73 52 43 43 52 70 94 121 143 157 162 159 150 137 122 110 102 101 107 122 143 166 184 194 195 183 159 126 93 67 51 44 45 55 71 92 108 114 108 93 73 56 47 49 66 98 139 176 198 207 204 188 159 123 91 74 74 90 116 146 171 182 178 161 135 108 88 80 86 106 134 160 177 182 172 150 120 92 73 62 60 65 76 92 112 130 146 158 167 177 187 197 207 214 218 217 208 187 
149 105 69 49 42 46 60 85 116 147 170 184 189 187 180 168 155 141 132 129 135 148 165 181 193 196 189 170 138 101 69 48 37 36 43 60 88 120 145 156 152 133 107 79 60 52 59 79 110 141 164 174 172 157 133 107 89 86 97 120 147 170 183 182 166 139 109 85 73 75 93 123 155 179 190 187 169 137 100 71 53 46 46 53 67 85 106 126 143 157 168 180 191 202 212 218 222 220 209 187 
142 98 65 49 46 55 76 108 144 174 194 204 207 205 199 189 176 162 152 148 151 162 175 187 194 194 183 158 122 84 55 38 32 34 46 71 109 149 179 192 189 172 143 107 77 59 55 64 82 103 121 130 128 117 102 90 88 98 121 149 174 188 191 178 152 117 86 67 63 74 101 138 172 194 200 192 168 131 91 62 46 42 45 54 68 87 106 124 138 150 160 172 186 199 210 217 220 218 206 181 
131 90 62 49 51 67 96 134 170 196 210 216 217 213 206 195 181 166 154 148 150 159 172 184 191 190 178 152 116 79 52 37 32 37 53 85 130 173 201 214 213 199 172 135 97 70 56 55 62 74 84 89 87 81 76 76 86 110 142 172 192 199 193 170 135 97 69 55 57 75 109 151 185 204 208 197 170 131 91 62 49 46 51 62 77 93 108 120 128 134 142 154 170 188 202 212 216 213 199 172 
119 81 58 50 57 79 115 157 190 210 219 222 220 213 203 188 169 151 137 130 132 142 157 173 183 185 176 154 120 85 58 42 38 43 62 98 145 187 213 224 224 213 192 158 119 85 65 56 56 59 62 63 61 58 59 67 86 119 156 186 202 203 188 158 117 79 55 47 53 75 114 159 192 209 211 199 173 134 96 69 57 56 63 74 86 98 106 109 109 110 115 127 147 170 191 204 210 206 190 159 
105 72 53 50 61 87 128 171 201 217 223 222 216 205 188 166 143 122 107 100 103 115 135 156 174 182 179 163 135 102 73 54 47 51 70 106 152 192 215 226 226 218 201 174 139 105 82 69 63 61 59 56 52 49 52 63 88 125 164 191 203 198 177 140 97 64 45 41 50 75 115 160 193 209 210 198 173 137 102 79 69 70 76 86 94 98 98 93 87 83 85 97 120 150 177 195 203 198 179 145 
91 62 48 47 61 90 133 176 205 219 222 218 207 189 163 134 107 87 75 70 74 88 112 141 166 182 186 177 157 127 96 72 59 60 76 109 151 187 210 220 222 216 203 182 155 128 107 94 86 80 73 64 56 51 53 65 91 128 166 190 198 188 160 119 79 51 38 37 47 72 111 155 187 202 203 190 166 136 107 89 83 85 91 95 97 93 85 75 66 60 62 74 99 134 166 188 196 190 167 130 
79 53 42 43 57 86 129 172 202 216 218 210 192 164 130 98 74 58 50 48 54 69 95 130 163 185 194 192 178 154 122 93 73 68 78 104 139 173 196 207 210 206 197 183 166 150 137 128 121 114 102 88 74 64 62 72 96 131 165 185 189 173 141 100 64 42 33 34 45 69 104 144 173 187 186 173 152 127 108 98 97 100 104 103 96 85 71 59 50 45 48 62 89 127 163 186 193 183 156 117 
69 46 37 38 50 76 118 162 194 208 209 197 171 135 98 68 49 39 35 35 43 60 89 128 165 190 203 204 195 175 144 111 85 73 76 92 119 148 170 183 188 187 182 176 170 166 163 162 160 154 141 123 102 85 78 84 105 135 163 179 178 159 125 86 55 38 32 35 46 67 96 128 151 161 158 145 128 113 105 104 110 115 116 109 95 77 61 48 40 39 45 62 93 132 168 189 193 179 148 106 
61 40 32 32 42 65 103 147 181 198 198 181 149 109 72 48 35 28 27 30 40 59 92 134 172 197 210 212 205 187 157 121 90 73 69 78 95 117 136 149 156 158 159 162 166 173 181 187 189 186 176 157 133 111 98 100 116 141 163 175 171 151 117 81 55 41 37 41 52 69 92 113 127 130 123 112 102 96 99 109 122 131 130 118 97 75 57 44 39 41 53 76 110 149 180 196 196 178 142 97 
56 36 28 28 36 55 89 132 169 188 187 167 131 89 57 37 27 24 25 30 43 67 104 146 182 204 214 215 208 189 158 121 88 69 62 65 75 89 104 114 121 126 133 143 157 173 188 199 205 204 196 180 156 133 117 116 128 148 167 176 171 152 121 90 66 54 52 57 67 81 95 105 106 101 91 82 78 82 96 116 135 147 146 131 107 81 61 50 48 55 73 102 139 173 196 206 201 179 138 92 
52 33 25 25 32 50 81 123 160 180 179 158 121 80 50 33 25 23 27 35 53 82 122 163 193 210 216 214 202 180 147 111 81 63 56 57 64 74 84 92 97 103 112 127 146 168 188 201 209 209 202 187 165 143 128 127 139 157 173 181 178 163 139 113 93 83 82 87 97 106 110 107 96 82 69 62 63 74 96 124 150 164 163 149 125 98 78 68 70 83 107 138 171 196 211 214 205 179 136 88 
50 32 25 25 32 50 80 121 158 179 178 158 121 80 50 34 27 27 32 45 69 104 144 179 202 212 213 206 189 162 127 94 70 57 54 57 65 74 83 88 92 96 104 118 138 161 181 195 202 201 194 178 158 138 127 130 144 164 181 189 189 180 164 146 132 125 126 131 137 140 134 119 97 75 59 53 57 73 102 136 164 180 181 170 149 125 107 100 105 122 147 174 198 213 221 220 208 179 133 85 
49 33 27 28 38 57 90 130 165 184 184 165 130 90 59 41 34 35 44 63 92 130 167 193 208 211 206 191 166 135 102 76 60 55 58 67 79 91 100 105 107 107 111 120 135 152 168 179 183 180 170 154 135 120 115 124 144 168 187 198 200 196 188 179 171 168 170 174 177 174 161 137 106 77 58 52 59 80 113 150 178 193 195 187 172 154 140 136 144 161 181 201 215 224 226 222 206 175 129 82 
51 37 34 38 51 75 110 148 178 193 193 177 146 108 75 55 47 50 63 88 122 157 186 203 209 205 191 168 136 104 77 61 54 57 69 87 106 123 133 137 136 132 129 129 134 142 150 154 154 146 134 118 103 95 97 113 139 168 190 203 208 208 205 201 198 198 200 203 203 198 183 156 121 88 66 60 70 94 130 165 190 202 204 198 186 174 165 164 172 186 201 214 222 226 226 218 200 167 122 79 
55 46 48 58 76 104 138 171 193 204 203 190 165 131 99 77 69 74 92 120 152 181 200 208 207 194 170 138 104 76 58 50 52 65 87 115 141 160 170 172 168 160 150 142 135 132 129 125 118 108 95 82 73 70 78 98 130 163 189 205 211 213 212 210 210 211 214 216 215 210 196 171 136 103 82 77 88 115 148 179 198 206 206 200 189 179 172 173 181 193 205 214 219 220 217 206 185 152 111 76 
64 64 72 89 113 141 169 192 206 212 211 201 181 153 125 104 98 105 125 152 178 198 208 209 199 178 145 107 76 55 45 45 54 76 109 145 173 191 198 198 192 182 167 151 135 120 108 98 87 76 65 57 52 53 63 85 118 154 182 199 207 208 208 207 208 210 213 216 216 211 199 178 149 121 103 101 114 139 167 189 201 204 199 190 177 166 160 161 169 180 190 198 202 201 195 182 160 130 99 76 
79 90 107 129 153 176 194 207 215 217 214 205 190 168 145 129 125 135 155 177 196 208 212 206 189 159 119 81 55 41 37 42 58 88 129 169 196 210 215 213 205 193 175 153 130 109 92 78 67 57 49 43 41 44 54 74 105 139 168 185 192 192 191 189 190 193 198 202 203 200 191 176 155 136 126 128 141 162 181 193 197 193 182 166 149 135 128 129 136 146 157 164 167 165 157 144 126 105 88 78 
99 120 144 167 186 200 209 215 217 216 211 202 188 170 152 141 141 153 172 191 205 212 212 202 178 141 98 63 42 33 33 41 62 98 144 184 208 219 222 218 209 193 172 146 120 98 80 67 57 49 43 38 37 40 49 66 92 122 146 160 164 161 156 153 153 157 163 170 174 174 170 162 152 145 144 152 165 179 189 192 186 172 152 130 110 96 89 89 94 102 111 117 119 117 111 101 91 82 79 84 
118 147 172 192 204 211 215 215 213 209 201 190 175 158 143 137 141 155 174 193 206 212 210 196 169 127 84 52 35 28 30 41 64 104 152 191 213 222 222 216 204 184 159 131 106 87 73 64 57 50 45 41 40 42 50 64 83 105 121 128 126 119 111 105 104 108 114 122 129 133 136 137 140 145 155 168 180 188 190 182 166 142 115 91 73 62 57 57 60 65 71 75 76 75 72 69 67 68 76 93 
133 163 186 201 209 211 210 207 201 192 180 166 149 132 120 117 123 140 162 184 200 207 206 192 164 121 78 48 32 27 29 40 63 103 152 191 213 221 219 209 192 167 137 110 90 77 70 67 64 60 56 52 50 52 58 69 82 95 102 101 92 81 71 65 63 64 69 76 83 89 97 107 120 139 158 176 187 190 184 167 140 109 82 61 48 41 38 39 42 46 49 52 53 53 53 53 56 64 79 103 
139 165 184 195 199 198 194 187 178 165 150 133 115 100 90 89 96 114 138 164 186 199 201 190 164 123 81 50 33 27 29 38 60 98 146 186 208 216 212 198 175 144 112 88 75 70 72 76 79 79 77 73 71 72 76 84 92 98 96 87 73 59 48 41 38 39 41 45 50 57 66 80 101 128 156 177 188 187 173 147 114 82 58 43 35 32 32 35 38 43 47 49 51 52 53 55 60 69 86 110 
135 153 166 173 174 170 164 156 145 132 117 100 84 72 65 63 69 84 107 136 165 186 195 190 170 134 93 60 40 30 29 37 56 90 135 176 201 209 203 186 156 120 90 71 64 68 79 92 103 109 110 107 104 103 106 110 114 114 105 90 72 55 42 34 29 28 28 30 34 39 47 62 86 118 151 175 185 179 159 127 91 63 44 35 32 33 37 43 50 57 63 68 70 71 72 74 77 85 97 115 
123 130 134 136 134 130 125 120 113 104 92 79 66 56 49 46 49 59 78 106 139 169 188 192 180 153 115 79 53 38 33 36 51 80 122 164 191 201 195 174 141 103 74 60 59 70 90 113 132 144 147 146 142 140 141 143 144 140 128 110 88 68 51 40 33 29 27 26 28 31 39 53 78 112 147 171 179 170 145 109 76 52 39 35 37 44 55 67 80 92 101 107 110 111 110 109 108 108 110 115 
106 101 97 95 92 91 91 92 92 90 84 74 63 51 43 38 38 43 56 80 114 152 181 195 192 175 144 108 75 52 40 39 48 72 109 151 181 193 189 168 133 96 69 58 61 78 105 135 159 173 178 177 174 171 170 170 170 167 158 141 120 97 77 61 49 41 35 31 30 32 38 52 77 111 145 168 174 161 133 97 67 49 42 43 53 68 88 108 127 142 152 158 160 159 157 152 144 134 123 113 
89 76 68 63 62 65 71 80 90 96 96 88 75 60 46 37 33 34 42 61 94 136 174 197 203 196 174 142 106 74 53 45 48 66 99 139 172 188 186 168 136 100 74 63 69 90 121 154 179 192 196 195 191 187 185 185 187 187 183 173 158 139 119 100 82 68 56 47 42 41 46 59 83 116 148 167 170 154 125 91 65 52 51 61 80 105 133 157 175 188 195 198 199 197 193 186 173 155 132 109 
77 59 50 46 47 54 67 85 105 119 124 118 102 80 59 43 33 30 35 49 79 122 167 198 211 211 199 175 141 104 74 56 52 64 91 129 164 184 187 174 146 114 88 78 84 106 137 168 190 201 203 200 194 187 184 185 189 194 197 195 190 179 165 148 130 111 93 77 66 61 64 76 99 129 155 170 169 152 123 92 69 61 67 85 114 146 175 195 209 216 220 221 220 217 212 204 189 166 136 103 
70 52 43 41 45 57 77 105 132 153 161 157 139 112 82 56 39 31 32 43 68 111 160 197 216 222 216 201 174 137 99 71 59 65 86 121 158 182 190 182 161 134 110 99 104 124 152 178 196 203 201 194 184 173 168 169 177 188 198 205 207 205 199 190 176 159 140 120 103 93 93 103 122 146 166 176 172 155 126 98 79 75 87 113 147 179 202 217 225 228 229 228 226 222 217 208 193 168 135 99 
71 54 46 46 53 70 97 131 162 184 193 191 176 148 113 77 51 36 32 39 61 101 152 194 217 227 227 217 198 166 125 90 69 67 83 114 150 178 191 189 175 153 132 121 124 140 163 184 196 199 193 179 162 146 137 139 149 167 185 201 211 216 217 214 206 195 180 162 144 132 128 134 148 165 178 183 178 160 134 108 92 90 105 134 168 196 214 224 228 229 227 224 220 215 209 200 185 162 131 98 
81 66 60 61 71 91 121 156 185 204 213 212 202 180 145 104 69 46 36 39 56 92 142 188 216 229 232 227 213 186 147 107 78 69 79 105 140 170 187 191 182 166 148 137 138 151 168 184 192 190 178 158 133 112 100 100 112 133 158 182 201 213 220 221 219 213 202 189 175 163 158 161 170 181 189 190 184 168 145 120 104 103 117 143 172 196 210 217 218 216 211 205 199 193 187 180 169 152 129 103 
103 92 86 88 97 116 143 172 196 212 221 222 217 201 173 133 92 60 43 40 52 83 130 177 210 227 233 231 220 198 162 119 85 69 73 94 125 156 177 185 180 168 153 143 142 151 165 177 182 177 161 134 105 82 69 67 76 95 121 151 177 196 209 215 217 214 207 198 187 178 173 175 182 189 195 196 190 176 155 132 115 109 118 137 159 178 189 193 192 186 178 168 160 154 150 149 147 142 131 117 
135 129 124 123 127 138 155 176 194 209 218 223 222 213 193 159 117 78 53 43 50 73 115 162 199 221 230 230 222 202 167 123 86 67 66 81 107 136 159 169 168 157 144 135 134 141 154 165 169 162 143 115 86 63 50 46 51 64 85 111 139 164 182 193 199 199 195 189 181 175 173 176 183 191 196 198 194 182 164 142 122 111 110 118 131 143 149 150 145 137 126 116 108 105 107 115 125 135 140 140 
168 166 162 156 151 150 155 164 178 192 204 214 218 216 205 180 141 99 66 49 48 63 96 141 181 208 222 224 217 198 164 121 84 63 59 69 89 114 135 146 145 137 125 116 115 122 134 146 151 147 130 105 78 57 44 38 39 45 57 75 97 120 139 154 163 167 166 162 157 155 156 163 173 183 192 196 195 187 172 151 129 110 98 95 96 99 100 98 92 84 75 68 64 65 73 89 112 137 155 166 
195 195 189 178 164 149 139 138 145 159 176 192 205 211 208 192 162 121 82 57 48 55 78 115 155 187 206 212 206 186 153 112 78 59 54 60 75 94 111 120 119 111 101 94 92 99 111 124 134 134 124 105 83 63 50 41 38 39 43 52 64 78 93 106 116 121 123 123 122 122 127 137 151 166 179 188 192 188 178 160 136 111 91 77 69 64 61 57 52 47 42 39 38 43 55 78 111 145 173 188 
212 211 204 189 166 138 114 102 102 113 133 158 181 198 205 198 176 140 99 67 51 49 62 88 123 156 179 189 185 166 135 100 71 56 52 57 69 83 95 101 98 90 81 74 73 78 90 105 119 128 126 116 100 83 68 56 48 43 41 42 46 53 60 68 75 81 84 86 87 90 96 106 122 140 158 173 183 187 182 169 147 120 93 71 55 45 39 35 31 28 26 26 28 35 52 80 119 159 189 205 
221 219 210 191 160 122 89 70 64 71 88 115 147 176 194 198 186 157 118 81 57 47 51 67 92 120 144 156 156 141 116 89 68 57 56 62 72 84 92 93 87 78 68 61 60 65 76 92 112 128 137 136 128 115 100 85 71 60 51 46 43 43 46 50 55 59 62 64 65 67 71 79 92 109 130 151 169 181 184 178 162 136 106 78 56 41 32 26 23 21 21 23 27 38 58 91 134 174 201 215 
223 220 210 187 150 106 70 48 40 42 54 78 112 149 179 194 191 172 137 99 68 51 47 53 68 89 108 122 125 117 101 84 72 67 70 77 88 97 101 98 88 75 64 57 54 58 70 88 112 135 152 160 159 152 140 125 107 90 74 62 54 50 49 51 54 57 59 60 59 57 57 60 68 81 99 123 149 170 184 187 178 159 130 98 70 49 35 27 23 22 23 26 33 47 71 107 150 185 208 219 
219 216 204 180 141 96 60 38 29 28 35 53 84 125 164 188 195 184 157 121 86 62 50 49 56 68 83 96 102 102 96 90 86 88 94 105 115 122 122 113 98 81 67 58 56 60 72 93 120 147 168 180 184 183 176 164 148 129 110 93 80 73 70 70 73 76 76 74 68 61 54 51 52 59 73 96 126 156 180 193 194 182 160 130 98 70 50 38 32 30 32 37 47 63 89 124 160 189 207 216 
206 204 193 171 134 91 57 36 26 23 27 41 67 108 152 184 198 195 176 146 110 80 61 53 53 60 71 83 94 101 105 108 112 119 129 140 149 152 147 134 113 92 75 65 63 69 83 106 134 161 181 194 200 201 197 190 178 163 146 131 118 111 108 109 112 114 112 105 92 75 60 49 44 46 55 73 103 140 174 196 205 202 189 166 136 106 80 63 53 49 51 58 69 85 108 135 162 182 196 203 
180 181 175 159 129 93 62 41 29 24 27 37 61 101 148 183 201 204 193 170 138 104 78 63 59 61 70 83 98 112 124 135 144 154 164 172 178 177 169 151 127 103 85 76 76 85 103 127 153 175 191 201 206 206 204 198 191 181 171 162 156 153 154 156 160 161 157 146 125 98 71 51 40 37 42 56 84 124 166 196 212 215 210 196 174 148 122 102 89 84 85 91 101 112 125 139 151 161 169 175 
140 147 151 145 128 101 74 52 38 31 32 41 65 104 151 187 206 212 206 190 163 130 99 78 68 67 75 90 109 130 148 162 174 183 190 195 196 191 180 160 134 110 93 87 91 105 127 150 172 188 198 203 203 201 196 190 184 180 177 177 179 183 188 193 197 198 195 183 159 124 86 57 40 33 34 45 69 108 154 192 214 222 222 215 202 185 165 148 136 130 131 134 137 138 136 132 128 126 128 132 
96 110 125 134 132 117 95 72 54 44 42 51 76 116 160 193 211 218 215 203 182 151 117 91 76 73 81 98 122 147 169 184 194 201 205 206 203 195 179 156 130 108 95 95 106 126 150 172 188 198 202 200 194 184 173 163 158 157 161 171 183 196 206 214 218 220 217 207 184 147 102 64 41 30 29 37 57 93 141 184 211 224 227 225 218 207 195 184 176 172 172 171 167 157 140 119 100 88 83 86 
62 81 106 129 142 139 123 99 77 61 57 66 92 131 171 200 216 221 219 210 191 161 126 96 79 75 83 102 129 158 181 197 206 211 212 209 202 188 167 141 115 97 90 97 115 141 168 188 200 204 202 193 178 158 138 123 116 118 128 147 170 193 210 221 227 230 228 219 199 163 114 70 42 29 26 31 48 79 125 171 203 219 226 225 221 215 208 202 199 197 197 194 186 167 137 104 75 58 51 52 
45 66 97 131 155 162 151 128 102 81 73 82 108 145 182 206 219 223 220 210 190 159 122 92 74 70 78 98 128 160 186 202 211 214 213 207 195 175 147 118 94 81 80 92 117 148 177 197 206 208 200 184 158 127 100 82 74 77 89 113 144 177 202 219 229 233 232 225 207 174 125 78 46 30 25 29 41 67 106 151 186 206 215 216 213 209 205 203 204 206 208 205 194 171 134 92 60 41 33 34 
39 63 99 140 169 180 173 151 121 96 86 93 118 154 187 209 220 222 218 205 181 145 108 79 63 60 68 88 118 154 183 202 211 214 210 201 183 156 124 94 74 65 68 83 112 147 178 199 208 208 197 174 140 102 72 53 46 47 58 80 113 151 186 210 224 230 231 225 210 180 135 87 52 34 27 29 38 57 88 125 159 180 191 193 190 187 186 189 195 203 208 207 197 172 132 88 53 34 26 28 
45 72 112 153 181 191 184 160 128 101 88 94 117 152 185 207 217 219 212 194 164 125 88 62 50 48 56 74 104 141 174 196 207 210 205 191 168 136 103 75 59 53 58 74 102 138 172 194 205 205 193 167 129 88 57 40 32 32 39 56 83 121 160 192 212 222 225 222 210 185 146 101 65 44 35 34 39 52 72 98 123 141 150 151 149 147 149 158 172 188 200 204 197 175 136 91 56 36 29 31 
62 92 132 169 191 196 184 157 122 93 80 84 106 141 176 200 212 213 203 181 145 103 69 48 39 38 45 62 90 126 162 187 199 202 195 179 153 120 89 66 53 49 53 67 92 124 158 182 195 197 186 161 125 86 56 39 30 28 32 42 62 92 129 164 190 206 213 214 206 188 158 120 87 65 53 48 49 54 64 76 89 98 101 100 97 97 102 116 139 165 187 198 196 179 145 103 68 47 40 45 
92 123 158 185 198 195 176 143 105 77 64 68 88 122 160 189 204 206 194 168 128 86 55 38 32 32 39 54 79 112 147 173 186 188 180 163 138 110 84 67 57 54 56 66 84 109 137 161 176 181 175 157 128 95 68 50 39 34 34 38 49 69 97 128 156 177 190 197 197 189 170 145 119 98 84 76 70 67 65 65 66 65 63 60 57 57 63 79 105 139 171 190 195 184 158 123 90 70 64 71 
