P2
100 100
255
137 166 192 208 212 201 171 127 83 54 41 44 63 99 144 183 204 209 198 170 126 79 47 30 24 25 32 46 69 101 134 158 170 171 162 146 124 102 85 74 68 65 65 68 76 89 108 127 144 154 156 149 132 110 89 71 57 47 39 36 38 45 60 82 107 133 157 176 190 196 193 182 166 149 132 116 100 83 67 53 43 37 33 30 29 31 38 55 84 123 162 188 198 193 173 144 117 100 99 112 
176 196 211 218 213 194 156 107 65 41 31 34 50 82 129 172 197 205 196 169 128 84 53 37 32 34 41 53 71 94 115 131 137 135 127 116 105 98 96 97 99 98 94 88 82 81 85 94 105 118 130 138 141 136 126 113 97 80 64 50 42 39 43 52 67 87 111 138 165 185 196 199 196 188 178 164 145 120 91 64 45 32 25 21 19 21 27 41 68 106 147 177 191 191 179 161 144 136 141 156 
203 215 222 222 212 185 140 90 52 31 24 27 42 73 119 165 194 204 198 177 141 102 72 56 52 54 62 73 85 96 104 106 103 97 91 88 90 99 114 129 139 141 134 118 99 81 70 67 73 85 104 127 148 162 166 161 148 128 102 76 55 41 35 36 42 53 73 101 136 170 194 208 213 213 209 200 184 157 121 83 53 35 24 19 18 20 27 41 65 100 137 165 178 180 173 163 158 160 171 187 
216 225 228 224 209 176 126 76 42 26 21 25 40 71 117 164 194 206 204 188 162 131 106 92 89 93 100 108 112 110 101 89 77 68 63 66 78 101 132 160 177 182 174 153 122 89 64 51 50 60 82 114 151 179 195 198 191 174 146 110 74 49 34 28 28 34 48 73 111 154 189 210 221 225 225 220 208 186 149 106 68 43 30 25 25 29 38 53 76 105 133 152 159 157 152 149 153 165 183 201 
219 228 230 223 205 167 115 66 37 24 21 27 45 78 124 169 197 209 209 199 182 163 146 138 138 143 149 152 146 131 106 80 60 48 45 51 69 102 144 181 202 209 202 181 145 101 65 44 38 44 65 102 149 188 211 220 218 206 181 142 96 59 37 26 23 25 35 57 95 142 183 210 223 230 231 229 220 202 170 128 88 60 45 40 43 50 63 80 101 120 134 138 133 124 118 118 129 152 179 203 
216 227 229 221 200 159 105 60 35 25 25 34 56 91 137 176 200 210 209 203 194 184 178 177 180 186 190 188 177 152 115 78 51 37 33 40 61 99 149 191 215 224 219 201 165 116 70 42 31 35 53 91 143 189 217 229 231 223 202 164 114 70 42 28 23 24 33 54 90 137 180 207 222 228 230 228 221 206 181 146 110 84 71 70 77 89 105 123 137 144 140 126 107 90 81 82 97 125 162 194 
208 223 226 217 193 150 98 57 36 29 33 47 74 112 152 183 200 204 202 197 192 190 192 197 205 211 214 211 197 168 124 79 47 31 26 33 53 93 147 193 220 230 228 213 180 130 79 45 30 30 46 83 137 187 218 232 235 229 210 174 124 77 46 32 27 29 39 61 96 141 179 203 216 221 221 218 212 200 181 156 132 115 110 114 126 141 157 169 174 167 147 116 85 63 52 53 66 96 137 179 
197 216 221 211 185 141 92 56 40 38 47 68 99 135 167 186 192 189 181 175 172 176 187 200 212 221 225 222 209 180 133 82 46 28 22 28 47 86 141 191 220 232 232 220 192 145 91 51 32 29 44 78 131 182 215 230 233 227 208 173 124 79 51 38 36 42 56 80 114 151 180 197 204 204 201 196 188 179 167 155 146 145 150 161 174 188 198 203 200 185 153 110 71 46 34 34 45 71 113 161 
186 209 214 202 174 130 86 58 47 52 70 97 130 159 176 181 173 159 145 135 135 145 163 186 206 220 227 226 215 188 142 89 50 28 21 25 43 80 134 186 217 231 233 224 201 159 106 62 39 33 46 78 128 178 210 224 226 217 196 160 116 78 56 50 54 67 86 112 141 166 181 186 183 174 165 155 148 142 139 141 149 163 179 194 207 216 222 223 215 194 155 104 61 36 25 23 32 54 94 144 
176 200 204 191 160 118 81 61 60 74 101 132 160 177 179 167 144 119 99 88 89 102 127 159 190 212 223 226 217 194 153 101 59 34 25 27 42 76 128 180 213 229 232 226 208 173 124 79 52 44 55 85 130 174 202 213 211 198 172 137 100 74 63 67 82 104 128 151 170 180 181 170 153 133 117 105 98 97 103 118 142 169 194 212 223 230 233 232 222 197 154 99 55 30 20 19 26 45 82 132 
169 192 194 176 143 105 77 68 78 102 135 165 184 188 175 147 112 81 60 51 52 64 88 125 164 196 215 222 218 201 167 120 76 48 35 34 47 78 125 173 206 223 229 225 211 183 143 101 73 64 73 99 137 171 191 196 187 167 138 107 81 69 73 90 117 146 170 186 194 191 178 153 122 93 74 63 59 61 72 94 127 165 197 218 230 236 238 234 223 196 149 92 50 27 18 17 24 43 78 126 
166 185 181 159 124 92 75 77 98 132 166 190 200 193 167 126 84 53 36 29 30 39 59 91 133 173 201 215 216 206 182 144 104 73 56 52 61 86 125 166 196 213 220 218 209 189 159 126 102 93 100 121 147 169 177 172 154 128 100 77 65 66 83 114 151 181 200 209 209 198 175 139 99 67 48 39 37 41 52 75 111 154 191 215 229 236 237 233 220 190 140 85 46 25 18 18 26 46 81 127 
167 179 168 140 106 81 73 86 117 156 189 207 209 194 158 109 65 37 23 18 19 26 41 66 104 146 181 202 211 208 195 170 140 112 93 84 86 101 126 154 178 193 200 202 197 185 168 148 133 128 133 146 159 165 160 143 117 90 68 55 53 64 92 133 174 203 218 222 217 202 174 132 88 56 38 30 29 33 43 62 94 137 177 206 222 231 233 228 213 180 129 77 42 24 19 21 32 54 91 134 
172 174 155 122 90 70 71 93 132 174 204 216 214 193 152 99 55 29 18 15 16 22 32 51 81 118 155 182 198 205 202 191 174 156 139 126 120 120 127 138 149 159 166 170 171 169 165 160 156 157 161 166 168 161 143 116 88 64 49 42 46 64 98 143 185 211 224 226 220 204 175 134 92 60 43 35 33 35 41 55 80 116 154 186 207 219 223 218 201 167 117 69 39 25 21 27 41 69 108 147 
177 170 142 106 75 62 68 96 140 184 211 221 216 193 149 95 52 28 19 17 19 24 32 45 65 93 125 154 177 192 200 202 198 190 179 166 152 137 124 116 113 114 118 123 131 140 149 159 168 175 179 179 171 155 129 98 71 51 41 38 45 65 99 144 184 209 220 222 216 202 178 144 107 79 62 53 49 47 48 54 69 93 124 155 180 197 204 202 185 151 105 64 38 28 27 37 57 90 130 163 
183 166 131 91 63 54 63 94 141 185 213 223 217 194 152 99 57 34 26 25 28 33 39 47 58 74 95 120 145 168 188 201 208 209 204 194 175 148 118 94 78 72 72 78 89 105 126 149 168 180 185 181 169 147 119 90 66 51 44 43 50 67 97 135 170 194 205 208 205 195 179 157 133 112 98 88 79 71 63 59 61 72 91 116 141 162 175 178 165 137 98 64 44 36 40 54 82 118 155 179 
187 162 120 80 54 46 57 87 133 179 208 220 216 196 159 111 72 50 42 43 49 54 58 60 61 64 72 87 108 135 164 189 207 216 216 207 186 151 110 75 54 44 42 47 58 77 104 135 161 177 181 176 161 139 113 90 74 64 59 59 64 75 95 120 145 164 174 179 180 179 175 168 160 151 144 135 123 105 85 68 58 57 64 79 99 121 140 151 148 129 101 75 59 54 62 83 114 150 178 192 
189 158 113 71 46 39 48 75 117 162 195 210 210 196 168 130 98 79 74 79 87 93 92 85 73 63 58 61 74 98 132 168 197 214 219 211 189 148 100 62 39 29 27 31 42 61 91 124 153 168 171 162 146 128 111 99 93 91 90 89 89 91 95 103 113 122 129 135 142 151 162 173 180 184 184 179 166 142 110 79 58 47 46 53 66 87 110 130 139 133 117 99 88 87 98 121 150 178 197 202 
192 156 108 66 42 34 40 60 94 136 171 192 198 192 175 152 131 121 122 130 139 143 137 119 93 67 51 45 49 67 99 142 181 206 216 210 185 142 91 52 31 22 21 26 38 59 89 122 148 159 155 143 127 115 110 113 121 129 133 132 126 115 102 90 84 81 82 87 98 117 143 171 192 204 210 208 195 168 129 88 58 42 36 38 48 67 94 122 142 149 144 135 129 130 141 160 182 200 210 208 
194 158 109 66 40 31 33 46 70 102 135 160 174 179 176 168 163 163 169 178 186 188 178 152 114 75 48 35 35 46 74 117 163 196 210 205 179 134 83 47 28 21 22 30 45 70 102 131 150 151 139 121 106 101 108 126 148 166 175 175 164 143 114 86 65 53 49 52 64 88 125 165 196 214 222 221 209 181 137 90 56 37 30 32 41 62 93 128 156 171 174 171 168 170 178 190 204 213 217 212 
199 165 117 72 43 30 28 34 48 70 95 120 141 157 169 177 184 192 201 210 215 215 203 175 130 82 48 31 27 35 58 99 149 187 204 199 172 126 77 44 28 24 29 42 65 95 127 151 159 149 126 102 86 86 102 133 167 192 204 205 194 169 130 88 57 39 31 33 44 69 111 160 197 219 227 225 211 180 133 85 51 34 28 31 42 66 103 143 174 191 197 196 195 195 200 207 215 220 222 216 
205 176 131 85 51 33 27 27 34 46 62 82 105 131 156 177 194 207 217 225 229 227 214 185 136 84 48 29 24 30 52 92 142 181 199 195 167 121 74 44 32 32 43 65 97 132 161 176 173 151 118 87 69 71 93 131 173 204 219 222 212 188 146 96 56 33 24 25 35 61 106 158 198 220 227 223 205 169 120 74 45 31 28 33 49 79 120 161 190 204 208 207 204 203 206 211 217 222 223 219 
211 189 152 106 67 42 30 25 27 32 41 56 78 108 143 174 197 213 223 230 232 229 215 183 134 82 47 29 25 33 56 96 145 183 199 193 164 118 74 48 39 46 67 100 138 171 192 198 186 156 114 76 57 58 80 122 170 206 225 229 222 200 159 106 60 34 23 23 34 61 107 160 199 219 224 215 191 150 101 61 38 29 29 39 61 96 139 176 199 207 207 203 197 194 196 202 210 217 221 220 
216 202 174 134 92 59 39 29 26 27 33 45 66 97 136 172 198 214 224 229 229 223 206 172 124 77 46 32 32 44 71 113 158 190 202 193 163 119 77 54 51 67 98 139 177 203 215 214 197 161 112 69 48 47 66 107 159 200 224 231 227 209 171 117 67 38 25 25 37 66 113 165 201 217 217 203 171 126 80 49 33 29 34 50 77 116 156 185 199 200 192 181 171 166 168 177 191 204 215 219 
218 212 194 163 123 84 57 40 33 31 36 47 68 101 139 174 198 212 219 221 218 208 187 151 108 70 48 41 46 65 98 140 178 201 207 195 164 119 81 62 66 90 131 173 205 223 229 224 205 165 111 65 41 37 52 89 141 188 218 230 229 214 180 128 77 44 30 30 44 75 122 170 202 213 207 185 147 101 63 40 31 33 44 66 99 137 169 186 188 178 161 142 127 120 123 136 157 180 201 214 
214 217 208 188 155 117 84 61 50 47 52 65 88 119 152 180 197 206 208 204 196 180 155 122 88 64 53 56 72 99 135 171 198 212 211 195 161 118 82 68 78 111 156 196 222 234 236 230 209 168 111 62 36 30 40 70 119 171 208 225 228 216 187 139 87 52 37 37 52 85 131 174 200 205 193 164 122 80 51 37 35 43 62 90 124 156 176 179 167 144 118 94 78 72 75 88 113 145 177 201 
204 215 215 203 181 150 118 94 80 78 85 100 122 148 172 188 195 194 187 175 158 138 114 89 70 61 64 80 107 141 173 199 215 220 213 192 155 111 79 70 84 122 169 207 229 239 240 232 211 170 111 61 33 25 31 54 97 151 195 218 225 217 191 147 97 61 44 45 61 94 137 175 194 194 175 141 101 67 47 42 48 64 89 121 152 173 178 166 140 106 76 55 43 38 41 51 73 105 144 180 
185 205 212 208 195 174 150 130 120 121 130 145 163 179 191 195 190 176 156 133 111 92 75 62 57 62 80 110 146 179 203 218 225 223 211 184 142 99 70 64 82 121 170 208 230 239 240 232 212 170 111 60 31 21 24 42 79 131 180 210 220 215 193 153 105 69 52 52 68 99 138 169 183 178 156 123 88 64 54 57 72 96 126 156 178 186 178 152 114 76 48 31 23 20 22 29 45 71 109 151 
157 185 199 201 194 182 167 158 155 161 172 184 195 203 204 197 180 152 120 91 70 55 46 44 49 67 99 140 178 205 221 229 230 222 203 169 123 82 58 54 71 108 157 199 224 235 238 231 211 170 112 61 31 20 21 35 66 116 167 201 215 212 192 155 110 74 58 58 72 99 132 158 168 161 140 112 87 74 74 86 109 137 165 187 198 196 178 142 97 58 33 20 14 12 13 18 29 48 78 118 
125 155 173 179 177 171 166 166 173 185 197 208 215 217 212 196 167 127 88 59 42 33 30 34 47 74 117 164 200 221 231 234 230 216 190 148 100 64 45 42 56 88 134 179 210 226 231 226 207 169 113 64 34 22 22 34 62 108 158 193 209 206 187 152 109 76 60 60 72 95 121 143 151 146 131 112 99 97 107 126 151 176 196 208 211 203 180 139 90 51 28 17 12 10 11 14 21 34 57 89 
96 121 138 144 144 143 145 154 170 189 205 217 223 223 213 191 154 106 66 40 27 22 22 29 47 83 133 181 213 229 235 234 225 204 169 122 77 47 33 32 42 66 104 149 186 209 219 217 201 166 116 70 41 29 29 40 68 111 158 190 203 199 179 143 103 74 59 59 69 87 109 127 137 137 131 124 123 130 146 166 186 203 215 220 219 208 184 144 96 56 33 21 15 14 14 16 21 30 46 69 
80 95 104 106 105 104 110 125 148 175 198 214 222 221 210 183 140 91 52 30 20 17 19 29 51 92 145 191 219 231 234 229 214 185 143 95 57 35 25 24 31 47 75 113 151 181 198 201 190 162 121 82 56 45 46 59 87 127 166 191 200 191 167 131 93 68 56 56 64 79 98 117 130 137 140 144 151 164 179 195 208 218 223 224 221 211 190 155 112 74 49 35 28 25 24 26 30 37 48 63 
82 86 84 79 73 70 75 90 115 146 176 198 210 212 200 172 128 81 46 27 18 16 20 33 59 103 156 198 221 230 229 219 196 159 113 70 42 27 21 20 24 34 53 80 112 143 165 175 171 154 127 100 81 74 78 94 120 153 180 196 197 183 153 115 81 60 51 52 60 75 93 113 131 144 155 166 177 189 200 210 217 221 222 221 218 209 194 170 137 105 80 64 55 50 48 49 52 58 65 74 
103 96 84 69 57 51 51 61 80 109 141 168 186 191 182 157 117 76 47 30 23 22 27 43 72 118 167 202 220 225 218 201 169 127 84 51 32 23 20 20 23 30 41 58 80 105 127 141 147 143 133 122 116 116 124 140 160 181 196 201 194 173 139 100 70 53 48 50 60 75 95 117 138 156 171 183 193 202 209 213 214 213 211 208 205 200 193 181 164 144 126 112 102 96 93 93 94 97 101 104 
138 122 101 77 58 45 40 43 54 74 100 127 148 159 156 139 110 80 56 42 35 36 44 63 95 138 178 204 215 213 199 173 135 94 60 38 27 23 23 25 29 34 41 50 63 78 94 108 120 129 136 142 150 159 169 182 194 204 209 205 191 163 125 88 62 49 47 52 63 81 103 127 149 168 182 192 199 203 204 202 197 190 183 179 177 178 182 184 183 178 172 165 159 154 151 149 149 149 149 146 
174 156 130 100 72 52 40 36 39 49 66 85 105 120 127 123 111 94 78 68 63 65 76 96 127 161 188 203 205 194 170 136 98 66 43 31 27 28 33 39 45 51 55 59 62 67 74 83 96 112 132 153 173 188 200 208 214 217 215 206 185 153 113 79 58 50 51 59 73 93 116 139 159 174 185 191 193 191 185 175 162 148 137 131 133 141 157 175 190 199 203 203 202 199 197 195 193 191 189 184 
198 184 162 132 99 71 51 39 35 37 44 56 71 87 103 114 120 119 115 111 109 113 123 140 162 182 195 197 186 164 133 98 67 46 34 31 34 42 54 67 79 86 88 86 80 73 69 70 78 96 122 152 180 200 213 220 222 221 215 200 176 141 104 76 61 57 63 74 91 111 131 149 163 172 177 177 173 164 149 132 113 97 85 80 84 98 123 156 185 206 218 223 224 223 221 218 216 213 211 206 
209 202 187 165 135 103 74 53 40 34 34 40 50 66 89 114 137 151 158 161 162 165 171 180 190 196 195 183 160 129 95 66 45 34 32 37 49 69 91 113 129 138 138 129 112 92 75 66 67 81 106 140 173 197 212 219 220 215 205 187 161 128 98 78 71 74 85 100 117 133 146 154 158 159 156 149 139 124 106 87 69 55 47 44 48 62 90 131 173 204 221 229 232 231 228 224 220 217 215 213 
207 207 202 190 170 141 109 79 56 41 34 34 41 57 84 120 155 180 193 199 201 202 204 206 205 200 187 163 130 95 65 45 34 31 37 51 76 107 139 164 181 187 185 173 150 120 90 69 61 68 88 120 153 181 198 205 204 197 184 163 138 113 95 87 91 102 117 133 147 155 157 153 145 135 125 113 100 84 69 54 41 32 26 24 28 41 66 108 156 195 217 227 229 227 222 215 209 204 203 204 
190 201 207 206 196 177 149 116 83 58 42 36 40 56 87 129 171 199 214 220 222 222 220 217 210 196 172 138 101 68 46 34 30 35 49 75 111 150 182 203 215 219 215 203 180 145 107 76 60 60 73 97 127 153 169 175 173 163 148 129 111 98 95 103 118 137 154 167 173 172 161 144 125 107 92 80 68 57 46 36 28 22 18 17 20 30 52 90 138 180 206 216 217 211 201 189 178 172 172 179 
160 184 203 212 212 203 184 155 119 84 59 46 45 60 92 137 181 209 224 230 231 229 224 217 204 183 152 114 79 53 38 32 35 47 71 107 148 185 210 225 232 233 229 219 197 163 121 85 64 58 65 81 101 120 131 133 128 117 104 91 84 86 99 121 147 170 186 193 192 181 160 132 104 82 67 57 50 43 37 31 26 21 18 17 20 29 47 79 122 162 186 195 191 179 161 143 128 121 125 138 
123 160 192 212 220 219 209 188 156 118 83 62 56 67 97 142 184 211 225 230 230 226 218 207 189 163 129 95 66 48 40 41 50 70 102 142 180 208 225 234 238 237 233 222 202 170 131 95 73 65 68 77 88 95 97 93 85 75 66 61 64 78 105 140 172 195 207 210 203 185 155 118 85 63 51 46 43 42 40 37 33 29 27 26 28 36 51 77 111 141 159 160 150 131 109 90 76 71 76 93 
90 134 177 207 222 227 223 210 186 151 112 82 69 74 100 139 178 205 218 222 219 212 201 185 164 138 109 84 66 56 55 61 77 104 138 174 203 221 232 236 237 234 227 215 196 168 134 106 89 84 85 90 92 88 79 68 56 48 43 43 52 74 111 155 190 210 219 219 208 184 147 104 71 52 45 44 48 52 56 56 54 51 48 46 48 55 68 87 108 124 128 120 104 83 64 50 40 38 43 59 
68 113 162 200 221 230 230 222 205 176 138 103 81 79 96 127 161 185 198 200 195 185 169 151 132 112 96 84 78 78 85 97 117 144 172 197 215 226 231 232 229 222 212 197 177 154 132 118 112 114 118 120 114 100 80 59 44 34 30 33 46 73 118 166 201 220 226 223 209 180 138 93 62 47 45 51 63 77 88 93 94 91 88 85 86 91 99 108 115 114 104 87 68 51 37 28 23 22 27 40 
57 98 149 191 216 228 231 227 214 191 156 118 90 80 87 107 132 151 162 162 154 141 125 111 100 94 94 98 105 115 127 142 160 179 197 211 220 224 223 219 210 198 182 164 146 131 125 128 138 150 159 160 150 127 95 64 42 30 25 29 43 74 123 173 208 224 229 223 207 174 128 84 57 47 52 67 90 114 133 144 147 145 142 138 137 138 139 138 130 114 91 67 48 34 25 19 17 17 21 33 
53 89 136 179 207 221 226 224 214 194 162 123 92 76 74 83 97 108 114 112 104 93 83 77 78 87 103 122 140 156 169 180 191 200 208 213 214 212 205 193 177 157 137 118 106 104 114 136 161 182 194 195 184 159 119 78 47 30 24 27 42 75 126 177 211 226 229 222 202 166 119 78 55 51 64 90 123 154 176 187 191 191 188 185 182 180 176 166 148 120 88 60 40 29 22 19 18 19 23 33 
56 84 123 161 190 206 213 213 204 186 156 120 88 69 62 62 67 71 72 69 63 58 55 59 71 93 121 150 172 188 197 202 205 207 206 203 197 188 173 153 131 108 88 74 70 79 103 140 177 203 216 219 210 186 145 96 56 33 25 27 43 77 129 180 212 226 228 218 195 156 109 73 56 59 80 115 154 185 204 213 216 215 213 210 208 204 198 186 163 130 93 62 42 32 27 25 26 28 32 40 
65 83 108 137 162 178 187 189 182 167 141 110 82 63 53 49 48 48 46 44 41 40 43 55 76 109 145 175 195 206 209 208 204 198 189 179 166 150 130 107 85 66 52 45 47 62 95 141 186 215 229 232 225 205 166 113 66 38 26 28 44 79 132 181 212 224 224 212 185 144 100 69 60 70 98 138 176 202 216 222 223 222 219 217 215 212 206 194 173 141 105 74 54 45 41 42 44 47 51 56 
82 86 95 109 124 137 146 151 149 140 122 100 79 63 52 45 41 38 35 33 33 36 45 63 93 131 167 193 207 211 208 199 187 172 157 141 124 107 89 71 54 42 33 30 35 53 89 140 189 220 234 238 233 216 181 128 76 43 30 31 48 84 136 183 210 221 217 201 171 130 91 68 66 83 116 156 189 208 217 219 217 214 211 209 208 207 203 195 178 153 122 96 79 71 71 75 79 83 84 83 
105 92 84 82 86 93 101 108 114 114 109 98 85 71 60 51 43 38 35 33 35 42 57 82 117 155 185 203 208 204 192 175 154 133 114 99 86 74 63 52 41 33 27 25 31 48 83 136 187 220 236 240 236 221 188 137 83 49 35 37 56 93 143 185 208 214 207 186 152 114 83 70 76 100 135 170 194 206 208 204 197 190 186 185 186 189 190 187 179 163 144 127 116 113 117 123 130 132 129 120 
129 100 77 63 59 60 67 77 90 102 109 109 104 93 81 69 58 49 44 43 47 58 79 110 145 177 197 205 201 186 164 137 111 90 75 67 62 59 55 50 43 36 30 27 31 45 77 127 179 214 232 238 234 220 188 139 88 55 43 48 70 108 153 188 204 204 190 164 130 98 78 76 91 120 153 179 194 196 188 175 161 150 144 144 150 159 168 175 176 171 164 158 156 158 165 173 179 179 172 155 
146 106 72 52 43 43 50 64 84 106 125 135 136 129 117 102 86 74 65 64 70 86 111 142 171 193 202 200 185 159 126 95 72 57 50 50 54 61 66 66 60 51 41 34 34 44 69 113 163 201 222 229 226 211 181 135 91 63 55 65 92 129 166 190 198 189 168 137 106 84 77 87 111 142 170 187 190 180 160 136 115 101 96 99 109 124 142 158 169 176 179 181 185 192 199 206 210 209 201 180 
154 107 69 46 37 37 47 66 95 126 152 167 173 169 159 144 126 109 98 95 102 120 144 170 191 202 202 190 164 127 90 62 46 38 39 47 61 79 94 100 95 81 64 49 41 44 61 94 137 175 200 210 207 192 163 124 90 72 73 91 121 154 180 192 188 169 140 109 84 74 80 102 133 164 185 192 185 163 131 99 75 63 60 65 77 95 118 141 160 175 185 193 201 209 216 222 225 223 214 192 
153 104 65 43 35 39 54 82 118 154 181 196 202 200 193 180 163 145 132 127 133 149 170 189 202 206 199 177 142 100 64 42 32 30 37 54 80 111 136 147 143 125 99 73 54 47 53 73 105 138 163 175 173 158 134 107 87 84 96 121 152 177 191 190 174 145 111 83 68 68 86 119 156 184 198 198 181 149 108 74 52 42 42 47 59 77 100 125 148 167 182 195 205 215 222 228 230 228 218 194 
146 97 60 41 38 46 69 105 147 182 204 216 220 218 212 201 185 168 153 147 151 165 182 197 206 205 194 167 126 82 50 33 26 29 42 67 106 146 176 189 187 169 139 104 73 54 49 57 75 97 116 126 126 115 100 87 84 95 120 151 178 194 197 184 156 119 85 63 56 67 95 136 175 200 209 203 180 142 97 62 43 36 37 43 54 69 89 110 131 150 168 185 199 212 221 227 230 227 215 189 
133 86 55 41 41 56 88 131 174 203 220 227 228 225 218 206 189 169 153 145 148 162 179 195 204 203 190 162 120 76 46 31 27 32 50 83 130 175 204 216 215 201 174 136 96 66 51 49 55 66 76 82 82 76 71 71 81 106 141 173 195 203 196 172 135 94 64 49 50 67 103 149 188 210 216 207 182 141 96 61 43 38 39 46 55 67 80 95 110 125 143 163 183 202 215 223 226 222 208 178 
117 75 49 40 45 67 106 154 193 217 228 232 230 224 213 196 174 150 131 122 126 141 164 184 198 200 190 165 125 82 51 35 31 38 59 97 148 192 218 229 229 218 197 163 121 85 61 51 48 51 54 55 54 52 53 60 81 115 155 187 203 204 188 155 112 73 49 40 45 67 108 157 196 216 220 210 185 144 100 67 50 45 47 52 59 66 72 79 86 95 110 132 159 185 205 217 221 216 198 164 
100 63 43 38 48 74 118 168 204 224 232 232 227 216 197 172 142 114 95 87 93 111 139 168 189 198 194 174 140 99 66 45 38 44 66 106 156 198 222 232 232 225 209 182 146 109 81 64 56 52 49 47 43 42 45 56 82 121 162 192 204 198 174 133 89 56 38 33 42 66 109 159 197 216 219 209 184 147 106 76 60 56 57 61 63 65 65 64 64 67 78 99 131 165 193 209 214 207 185 147 
84 53 37 35 47 76 123 173 208 225 231 228 218 198 170 135 102 76 61 56 62 81 113 151 181 198 200 188 162 125 88 61 49 51 70 106 153 193 217 227 229 224 213 193 166 136 110 91 79 70 62 54 47 43 45 58 86 126 166 192 199 187 155 111 70 43 30 29 39 63 104 152 189 208 211 201 177 144 110 85 73 70 70 70 68 63 57 51 47 47 55 74 107 148 182 202 208 198 172 129 
71 44 32 32 44 73 119 170 206 223 226 219 202 172 133 95 65 46 36 35 42 61 95 139 177 200 208 203 184 152 114 80 61 57 69 99 139 177 201 214 218 216 209 197 180 162 144 129 117 105 91 77 63 54 54 66 93 131 167 188 191 173 136 91 55 34 26 27 37 59 95 138 173 191 193 182 161 134 109 94 87 86 85 81 72 62 51 42 36 36 43 62 96 140 177 199 203 191 159 113 
61 37 27 28 39 65 110 160 198 216 218 207 180 141 97 62 40 28 23 24 32 51 87 134 177 204 215 214 201 175 137 98 71 60 65 84 115 148 174 189 196 198 196 192 186 180 173 167 160 149 133 112 92 76 71 81 105 139 169 185 183 161 122 79 48 31 25 28 37 56 85 119 147 161 161 151 133 116 104 100 102 105 104 95 79 62 48 37 32 32 41 63 99 144 180 200 202 185 149 101 
53 32 23 24 33 56 97 147 187 206 207 191 156 111 69 41 26 19 17 19 29 51 89 139 182 209 221 221 212 189 152 110 77 60 58 68 88 113 136 152 163 169 174 179 184 189 192 194 192 185 172 150 126 104 95 100 121 149 174 185 180 157 119 79 50 36 31 34 43 58 79 101 118 125 121 112 101 95 96 106 118 127 126 113 92 69 50 39 34 37 51 77 117 159 191 205 203 182 142 92 
49 29 21 21 29 49 85 133 175 196 196 176 136 88 51 29 19 15 15 20 33 58 100 151 191 214 224 224 215 192 155 111 76 56 50 54 66 82 99 113 125 136 147 161 176 189 200 207 210 207 196 178 153 130 117 120 137 161 180 189 183 162 129 93 66 52 48 51 59 70 82 91 95 92 84 77 73 77 91 113 136 150 150 136 111 84 62 49 47 54 74 106 145 181 204 213 207 182 137 86 
46 27 19 19 26 44 78 125 167 189 188 165 123 76 43 24 16 14 17 25 42 73 119 167 201 219 225 223 210 185 146 103 70 52 45 47 54 65 76 87 97 109 124 143 164 184 200 210 215 213 204 188 165 143 131 134 151 172 188 196 192 177 151 122 99 85 81 85 91 97 99 94 84 72 61 54 56 68 91 123 153 171 174 162 138 110 86 74 73 86 111 144 177 203 217 220 210 182 134 82 
44 26 19 19 27 45 79 125 166 187 186 163 121 75 43 25 18 18 23 35 59 96 143 184 210 221 223 215 197 166 126 88 61 48 44 48 55 64 74 82 90 100 113 132 154 176 193 204 208 206 197 180 159 140 132 138 157 179 195 203 203 194 178 159 143 133 131 133 136 136 127 110 87 65 50 45 49 67 98 137 170 189 194 185 166 142 121 111 114 129 153 180 204 219 226 225 212 181 131 79 
43 27 21 23 33 54 90 135 173 192 191 170 130 85 51 32 25 26 34 53 84 126 168 199 215 220 215 199 173 138 100 70 53 46 49 58 70 83 93 100 105 111 119 132 148 164 178 187 189 184 172 154 135 120 118 131 155 181 200 210 213 209 201 192 183 179 178 180 180 174 159 133 100 70 51 45 52 75 111 152 185 203 207 202 189 171 157 150 155 169 188 206 220 229 231 226 210 176 126 76 
44 31 28 34 48 74 113 155 187 202 200 182 147 104 67 46 38 41 55 81 118 157 190 210 217 214 200 174 140 104 73 54 47 49 61 79 100 118 131 137 138 137 137 139 144 151 156 159 156 147 133 116 100 92 96 115 145 177 200 213 219 219 216 212 209 208 208 209 208 201 185 157 119 84 62 56 66 92 130 169 197 211 214 210 200 189 179 176 181 193 206 218 227 231 230 222 203 167 118 73 
48 40 42 54 75 106 144 179 202 212 211 196 168 130 93 70 62 68 87 118 153 185 206 216 214 202 177 142 104 72 52 43 44 57 80 110 139 161 172 176 174 167 159 149 141 134 129 123 115 104 91 78 68 65 74 96 131 168 196 212 220 222 221 220 219 220 221 222 221 215 200 175 140 105 83 78 90 117 153 184 205 214 215 209 200 189 182 180 186 196 208 217 223 224 221 210 187 151 107 70 
57 57 68 87 114 146 177 200 215 221 219 208 186 155 123 100 93 103 126 156 184 205 216 217 208 185 149 107 72 49 38 37 46 68 103 142 175 195 204 205 200 190 175 156 135 116 101 90 79 69 59 51 46 47 56 78 113 152 184 204 213 216 216 216 216 217 219 221 220 216 204 184 157 129 111 108 122 146 174 196 208 211 206 196 184 171 163 162 168 179 190 199 204 205 199 185 161 128 94 69 
72 84 104 130 157 183 202 216 223 225 223 213 197 172 146 128 125 137 159 184 204 217 220 215 198 165 120 78 49 34 29 33 49 80 124 169 200 216 222 221 215 202 182 155 125 99 79 66 56 48 41 36 34 36 45 64 94 131 164 185 195 198 198 197 197 199 202 205 206 203 195 182 164 148 139 141 154 173 190 201 204 198 186 169 150 135 125 124 130 141 152 162 167 167 160 145 125 101 81 71 
92 115 143 170 192 207 218 224 227 226 221 211 196 175 154 141 142 157 178 199 214 222 221 211 187 146 97 58 35 25 24 32 52 89 139 185 213 227 230 227 219 203 178 145 111 83 64 52 45 39 35 32 30 33 40 54 78 107 135 154 162 163 161 158 158 160 164 169 172 173 170 166 160 157 159 167 179 191 198 199 191 174 152 128 106 90 81 80 85 93 103 111 116 116 110 101 89 78 73 77 
112 144 173 196 211 219 224 225 224 219 212 199 181 161 143 134 139 157 180 201 215 222 219 206 178 132 82 46 28 21 22 31 53 94 147 193 219 230 232 227 215 195 164 127 93 69 55 47 42 39 36 34 33 35 40 51 68 88 106 117 120 117 111 106 105 106 110 116 121 126 130 135 143 154 168 182 193 199 198 188 168 141 111 85 66 54 48 48 51 56 62 68 72 72 70 67 63 63 70 86 
127 161 188 206 216 220 220 218 213 204 192 174 152 131 115 109 117 138 165 191 208 217 216 203 173 126 76 42 25 19 21 30 53 93 147 193 219 229 229 222 206 178 142 105 76 58 50 47 47 47 46 45 44 45 49 57 67 78 86 88 83 76 68 62 59 60 63 67 72 78 87 99 118 142 167 187 198 200 190 169 139 105 75 54 41 33 31 31 34 38 42 46 49 50 51 51 53 59 72 95 
133 163 186 200 206 207 205 200 191 178 159 137 113 93 80 77 86 106 136 168 193 208 211 201 173 129 80 45 27 20 20 29 50 88 141 188 215 225 224 213 190 156 116 82 61 51 51 55 61 65 68 68 67 68 70 75 80 83 82 75 65 54 44 37 34 33 34 37 40 46 54 69 94 127 160 185 196 194 177 146 109 75 50 36 28 25 26 28 32 37 41 45 48 50 51 53 57 65 79 103 
127 149 165 175 179 179 175 168 157 141 121 99 78 62 53 51 57 74 102 137 171 195 205 201 180 141 94 56 33 23 22 28 46 80 130 178 207 219 217 202 173 132 92 63 50 49 57 71 86 97 104 106 106 105 106 107 108 105 97 83 66 51 38 30 25 23 22 23 25 28 36 50 76 112 151 179 190 183 159 122 84 54 37 28 26 27 31 38 45 53 60 65 69 71 72 73 76 80 90 106 
113 122 130 134 136 135 132 127 119 107 91 73 57 45 37 35 38 49 71 104 143 177 198 202 190 160 117 76 47 31 25 28 42 72 117 166 198 211 209 191 157 113 75 53 47 53 71 95 119 138 148 151 151 149 148 147 145 139 127 109 87 66 49 36 28 23 20 19 19 22 28 41 66 103 144 173 182 171 142 102 67 44 32 29 32 39 50 63 77 90 100 108 112 114 114 112 108 105 104 106 
95 91 90 89 89 90 91 93 92 88 78 65 52 40 32 28 28 34 49 76 116 158 190 204 201 182 148 107 71 46 33 31 40 64 105 152 188 204 202 183 148 104 69 51 50 64 90 124 154 175 185 188 187 184 182 181 179 173 163 146 124 100 77 59 45 35 28 24 22 23 28 41 65 102 141 168 175 161 128 89 58 40 34 37 48 65 86 108 127 143 155 162 165 165 163 157 147 133 117 104 
79 66 59 56 56 60 67 76 85 90 87 78 63 48 36 28 24 26 36 57 93 140 181 205 211 202 179 144 105 70 48 38 41 59 94 139 178 197 198 182 148 106 73 58 61 81 114 151 181 199 207 208 205 202 199 198 198 196 191 181 166 145 122 100 79 62 49 39 33 32 36 49 74 109 145 169 172 154 120 83 56 43 43 54 76 104 134 160 179 192 200 204 205 204 200 191 177 155 127 100 
67 50 41 38 40 48 61 80 99 113 117 109 92 70 50 35 26 24 29 45 77 124 172 204 218 217 205 179 143 103 70 50 46 57 86 129 169 193 198 185 157 120 89 75 80 104 139 173 198 211 215 213 208 203 199 199 201 204 206 204 198 186 170 151 129 107 86 70 58 53 56 69 93 126 157 174 174 154 120 85 61 53 59 80 112 147 178 200 214 221 225 226 225 223 218 210 194 168 132 96 
62 44 35 33 38 50 70 99 128 150 158 153 134 106 75 50 33 26 26 38 65 111 164 202 222 227 222 206 178 139 98 68 54 58 81 119 160 188 198 192 171 141 114 101 106 129 160 188 207 215 214 208 198 189 183 183 188 197 206 212 214 212 205 194 178 158 137 116 99 89 90 102 124 150 173 184 180 159 127 93 72 66 79 107 145 181 207 222 230 234 234 233 231 228 223 214 198 171 133 93 
64 46 38 38 45 63 91 127 162 185 195 192 176 147 110 73 46 31 27 35 57 100 154 198 222 232 232 223 203 170 128 88 65 61 77 110 150 182 198 197 184 162 140 128 132 151 175 196 208 211 205 193 175 159 149 148 158 174 192 207 217 222 222 218 210 197 181 163 146 135 133 141 157 175 189 194 188 169 139 107 86 82 97 128 166 198 218 229 233 234 232 229 226 222 216 207 192 167 132 94 
77 60 53 54 64 85 118 155 187 208 217 217 206 183 147 103 65 41 31 34 52 90 143 191 220 234 237 232 219 192 152 107 75 63 72 99 137 172 192 198 191 175 158 148 150 163 181 196 204 201 189 168 141 118 104 103 114 135 161 186 205 217 224 225 223 217 207 194 182 172 169 173 183 194 201 203 196 179 153 123 101 96 108 136 169 196 213 221 223 221 217 212 206 201 196 189 178 160 133 102 
102 89 82 82 92 113 143 175 201 218 226 228 222 206 177 135 89 55 37 35 47 79 129 180 214 232 238 236 227 205 167 120 82 63 66 86 120 155 180 190 188 176 162 152 152 162 176 188 192 186 167 138 106 80 66 64 73 92 119 150 178 198 212 219 221 218 213 205 197 190 187 190 196 203 208 208 203 189 166 138 115 104 108 127 152 174 189 195 195 190 183 174 167 162 159 159 158 151 138 120 
138 130 123 121 126 139 159 181 201 216 225 229 228 219 198 162 115 73 47 37 44 68 112 164 203 225 235 236 228 209 173 125 83 61 58 72 100 132 159 172 173 164 151 141 139 147 159 170 173 165 143 112 80 56 43 40 44 57 79 106 136 162 182 195 202 203 201 197 191 187 187 190 197 203 209 210 206 196 177 151 125 106 100 106 120 134 144 147 145 138 128 119 112 110 114 123 136 146 150 146 
175 171 165 159 154 154 160 171 186 200 212 221 225 222 209 182 140 94 59 42 41 58 93 141 185 213 227 231 224 205 169 121 79 56 51 59 80 106 131 145 146 138 126 116 114 120 132 144 149 143 124 96 68 47 35 30 31 37 50 68 91 115 136 153 164 169 170 168 165 164 166 173 183 193 202 207 207 200 185 162 134 107 90 83 84 88 91 91 87 81 73 67 64 65 75 94 120 147 165 174 
202 201 194 184 169 155 146 145 152 167 184 200 212 217 213 195 160 115 74 49 41 49 74 114 158 192 212 218 212 192 156 110 72 51 45 50 65 85 104 115 116 108 96 87 85 90 102 115 125 126 114 94 71 52 39 32 29 30 35 44 56 72 88 102 113 120 123 124 123 125 130 140 154 170 185 196 202 201 191 172 144 112 85 67 58 54 52 49 46 42 38 35 35 40 54 79 116 154 181 197 
218 217 210 195 172 143 119 106 107 119 139 164 187 204 209 201 176 136 93 60 44 43 57 86 124 160 185 195 191 171 136 96 65 48 43 47 58 73 86 93 91 82 72 64 62 66 77 93 109 119 118 107 89 72 57 45 38 34 32 34 39 46 54 63 71 77 80 81 82 84 90 100 116 136 158 177 192 198 195 182 157 123 89 63 46 37 31 28 25 23 21 21 23 31 47 78 121 165 196 212 
227 225 216 197 165 125 91 70 65 72 90 119 152 181 199 201 187 156 114 76 52 42 47 63 90 121 146 160 159 143 115 84 61 50 47 53 63 74 82 84 78 68 58 51 48 52 64 82 104 124 134 132 122 107 89 73 59 49 41 37 36 38 41 45 50 54 56 56 56 56 59 66 79 98 123 150 174 190 196 191 172 142 106 73 49 34 25 20 17 16 16 17 21 31 51 86 133 178 207 222 
229 227 216 193 155 108 69 46 38 40 53 78 114 154 185 199 195 174 138 98 66 48 43 49 64 86 107 121 124 116 99 80 67 61 63 71 81 90 94 90 78 65 53 45 43 48 60 82 111 138 157 164 161 150 134 115 96 78 64 54 48 46 46 48 51 53 53 51 47 44 43 46 53 67 89 118 151 178 195 198 189 167 133 97 65 43 30 22 18 17 17 20 26 38 61 99 147 187 213 225 
226 222 211 185 143 95 56 34 25 24 32 51 85 129 171 195 201 190 163 125 87 60 46 44 50 62 77 90 99 100 96 89 85 87 93 103 114 120 119 107 89 70 55 46 45 51 67 93 127 158 179 190 192 186 175 159 140 119 101 86 77 72 71 72 73 74 71 64 55 46 39 36 38 46 62 89 125 163 190 204 203 191 166 132 96 67 46 34 27 25 25 29 37 51 76 113 156 191 212 223 
213 211 199 174 134 87 51 30 21 19 23 38 68 113 160 193 207 204 186 154 115 81 57 46 45 51 61 74 88 99 107 113 118 125 135 146 154 157 149 131 106 80 62 52 52 62 82 113 148 177 197 207 210 208 201 190 175 158 142 128 120 116 115 116 118 116 110 97 79 60 44 35 31 34 44 66 101 145 183 205 214 210 195 170 138 106 79 61 50 45 45 49 57 71 93 123 156 183 200 210 
188 188 181 160 126 86 54 33 23 19 22 34 62 107 157 194 212 214 204 181 146 107 74 55 47 48 57 71 91 112 131 145 157 166 176 184 188 186 174 152 121 91 71 62 65 80 106 139 170 194 209 216 217 215 209 201 191 180 171 165 162 162 165 167 169 167 159 141 115 84 57 39 29 28 33 50 81 127 172 204 219 222 216 201 179 153 126 104 90 82 80 83 88 97 109 126 144 161 173 182 
146 153 154 144 122 92 64 43 30 24 26 38 65 110 161 198 217 222 217 201 172 132 94 66 53 51 59 76 102 132 158 176 189 197 204 208 208 202 188 162 128 97 78 72 81 102 133 164 190 207 215 218 216 211 203 194 186 180 179 182 187 194 200 204 207 206 199 182 153 113 74 46 30 25 27 39 66 109 159 198 220 228 228 221 208 192 172 155 141 134 130 129 128 126 123 121 121 124 130 138 
98 112 125 131 125 106 82 60 43 34 34 46 74 120 169 204 222 228 225 213 189 152 109 76 58 54 62 83 115 150 180 199 210 216 219 219 216 207 188 159 124 95 80 80 96 125 158 186 205 215 218 215 207 195 180 167 159 158 164 177 192 206 216 223 227 227 222 209 183 141 93 55 33 23 23 32 53 92 143 188 216 229 232 230 224 214 204 193 185 179 176 172 164 150 131 110 93 85 83 88 
62 81 104 126 135 129 109 84 62 49 46 58 88 134 180 210 226 231 229 219 197 160 116 79 59 54 63 86 123 162 193 211 220 224 225 223 216 201 177 144 110 85 76 83 106 141 175 200 214 219 217 208 191 168 144 125 115 117 130 152 178 202 219 229 235 236 233 224 202 162 110 65 37 24 21 27 43 76 123 171 205 223 230 230 227 222 217 212 209 207 204 199 188 166 133 97 70 54 49 51 
43 64 96 130 152 155 140 113 85 65 59 71 101 146 188 215 228 232 229 218 195 157 112 75 55 51 60 84 123 165 197 216 225 228 226 221 209 188 157 120 89 71 67 80 109 148 184 207 218 220 213 197 170 136 103 81 71 73 88 115 150 184 210 226 235 239 237 230 212 177 126 76 42 26 21 24 36 61 101 147 184 207 217 220 219 217 215 214 215 217 217 212 200 173 133 88 55 37 30 32 
37 62 100 142 170 178 167 139 105 79 69 79 109 152 191 216 228 231 226 213 186 144 98 65 47 44 53 77 115 160 195 215 225 227 224 215 198 169 132 95 69 56 57 74 105 147 184 207 218 218 208 185 149 107 72 50 41 43 55 79 115 156 191 216 229 236 236 231 217 187 140 89 52 31 24 24 32 50 79 117 152 176 189 194 195 195 197 201 208 214 218 216 204 177 134 85 49 30 23 25 
43 73 116 159 187 194 183 153 116 85 72 80 108 149 188 213 225 227 221 203 170 124 80 51 38 36 44 66 102 148 186 210 221 223 218 205 182 148 108 75 54 46 50 66 96 137 176 201 212 212 201 175 134 89 55 36 27 27 35 52 82 121 162 195 216 227 231 229 218 194 155 107 68 43 32 29 33 43 61 86 111 131 143 148 150 153 159 171 186 201 211 214 205 180 138 90 52 32 25 28 
62 96 139 177 199 203 188 155 114 81 66 71 97 137 178 206 220 222 213 190 151 103 63 39 30 29 37 55 88 132 172 199 212 214 207 191 164 128 91 64 48 43 46 60 86 122 159 186 200 202 191 165 126 85 53 34 25 23 27 37 57 88 126 163 191 209 218 221 215 199 170 131 93 66 51 44 42 45 52 63 75 85 91 94 95 99 109 127 152 178 198 208 204 185 148 102 64 43 36 42 
94 129 167 195 208 204 183 145 101 69 54 58 80 119 163 196 213 215 205 178 134 86 51 32 24 25 32 48 76 115 154 182 196 198 190 172 145 112 83 63 52 48 50 60 78 105 135 161 177 183 176 157 126 92 64 45 34 29 28 32 42 62 89 122 153 177 194 204 206 200 184 158 129 103 85 72 63 57 53 52 52 53 53 52 52 55 65 84 114 150 181 199 202 189 161 122 87 66 61 70 
