P2
100 100
255
131 134 136 136 134 130 125 120 116 114 114 118 123 128 134 138 140 139 137 133 127 122 116 112 109 109 110 114 118 124 128 132 133 133 132 130 127 124 122 120 118 117 116 117 118 121 125 130 134 137 138 136 132 126 120 114 111 109 110 113 116 120 124 127 129 130 131 132 133 133 133 132 131 129 126 124 122 121 120 119 117 116 114 112 110 110 112 115 120 125 131 135 137 138 136 133 130 128 127 128 
136 138 139 139 135 130 124 118 113 111 111 114 119 125 130 135 137 137 136 132 127 122 117 113 111 111 112 116 120 124 128 131 132 131 130 128 127 125 124 123 122 121 120 119 119 120 122 125 129 133 135 135 133 130 125 121 118 116 116 117 119 121 122 123 123 123 124 126 128 131 134 135 136 136 134 132 129 127 124 120 117 114 111 109 108 108 110 113 118 124 129 134 137 138 137 135 133 132 132 134 
140 142 143 141 137 131 124 117 112 109 109 112 116 122 128 132 135 136 135 133 129 125 121 118 116 116 117 120 123 125 128 129 129 128 127 126 126 126 127 128 128 127 126 123 121 119 119 121 124 128 131 133 134 133 131 128 126 124 123 122 122 121 120 118 117 117 118 120 124 129 134 139 141 143 142 140 136 132 128 123 119 115 111 109 108 108 110 114 119 124 129 133 135 136 136 135 134 134 136 138 
142 144 145 143 139 133 125 118 112 109 109 111 115 120 126 131 134 136 136 134 132 129 127 124 123 123 123 125 126 127 127 127 125 124 123 123 124 127 130 133 135 135 133 129 125 121 118 117 119 122 126 130 133 135 135 135 133 132 130 127 125 122 118 115 112 112 113 116 122 128 135 141 146 148 148 146 142 137 132 126 121 117 113 111 111 112 114 117 121 125 129 132 133 134 134 133 133 134 136 139 
142 145 146 144 140 134 127 120 114 111 110 112 116 120 126 130 134 136 137 136 135 134 132 131 130 130 130 130 130 129 127 124 121 119 118 118 121 126 132 137 141 142 140 136 130 123 118 115 114 116 121 126 131 135 138 139 139 137 134 131 126 122 117 112 109 108 110 114 121 129 137 144 149 151 151 149 145 140 134 129 124 119 117 115 116 117 119 122 125 128 130 131 131 130 130 129 130 132 135 139 
141 144 145 144 141 135 129 122 117 113 113 114 118 122 127 131 134 137 138 138 138 137 137 137 137 137 136 136 134 131 127 122 118 114 112 113 117 124 132 140 145 148 147 142 135 126 119 113 111 112 116 122 129 135 139 141 142 140 137 132 127 121 115 111 108 108 110 115 122 130 138 145 150 152 152 150 146 141 135 130 125 122 121 120 122 124 126 128 130 131 130 129 127 125 124 124 125 128 132 136 
138 142 144 143 140 135 129 124 119 116 116 118 121 125 129 132 135 137 138 138 138 139 139 140 140 141 141 140 137 133 128 121 115 110 108 109 114 121 131 140 147 151 151 147 139 130 120 113 109 110 113 119 127 133 139 141 142 140 136 131 125 120 115 111 109 110 112 117 124 131 139 144 148 150 149 147 143 139 134 129 126 124 124 126 128 130 133 134 135 133 131 127 123 120 118 117 119 122 127 133 
135 139 141 141 138 134 129 124 121 119 120 121 124 128 131 134 135 136 136 136 136 137 138 139 141 142 143 142 140 135 129 122 114 109 105 106 110 118 128 139 147 152 153 150 142 132 123 114 110 109 112 118 125 132 138 140 140 138 134 129 123 118 115 113 112 114 117 122 127 133 138 142 145 145 144 142 138 134 131 128 126 126 128 130 134 137 139 140 139 135 130 125 119 114 111 111 113 117 123 129 
132 136 138 137 135 131 127 124 122 122 123 125 128 131 133 134 134 133 132 131 131 132 133 136 138 141 143 143 141 137 131 123 115 109 105 105 109 116 126 136 145 151 153 150 144 135 125 117 112 111 113 119 126 132 136 138 138 135 130 125 121 117 115 115 117 119 123 127 131 135 137 139 139 138 137 135 132 129 127 126 126 127 130 134 138 142 144 144 142 137 130 122 115 109 106 106 109 114 120 127 
131 134 135 134 131 127 124 122 122 123 125 128 131 133 134 133 131 129 126 125 124 125 127 130 134 138 141 142 141 138 133 126 118 112 107 106 109 115 123 133 142 148 151 149 144 136 128 120 116 114 117 121 127 132 136 136 135 131 126 121 118 117 117 119 122 126 130 133 135 135 135 134 132 131 129 127 126 125 124 124 125 128 132 136 141 145 147 147 144 138 129 120 112 106 103 103 106 112 119 125 
130 132 132 130 127 123 121 120 121 124 127 131 133 134 133 131 127 123 120 117 116 117 119 123 128 133 137 140 140 139 135 129 123 116 112 110 111 116 122 131 138 144 147 147 143 137 130 124 120 119 121 125 130 134 135 135 132 127 122 118 116 116 119 123 128 133 136 138 138 136 133 129 126 124 122 121 121 121 122 123 125 128 132 137 142 146 148 148 144 138 129 119 111 105 102 103 106 112 119 126 
131 132 130 127 123 120 118 119 121 125 129 132 134 134 132 128 123 118 113 110 109 110 113 117 123 128 133 137 139 138 136 132 127 122 118 116 116 118 123 129 135 140 142 143 141 136 131 127 124 124 126 129 132 135 135 133 129 124 119 115 114 116 121 127 133 138 141 142 140 136 131 126 121 119 118 118 119 120 122 123 125 128 132 136 141 145 147 147 144 137 129 119 111 105 103 105 109 115 122 128 
133 132 129 125 120 117 116 117 121 125 130 134 135 134 130 125 119 113 108 105 105 106 109 114 119 125 130 133 136 137 137 135 132 129 125 123 122 122 124 127 131 135 137 138 137 135 132 129 128 128 130 132 134 135 134 131 127 121 116 113 113 117 122 130 137 142 145 145 141 136 130 123 119 116 116 117 119 122 123 125 126 127 130 134 138 142 145 145 142 137 129 120 113 108 107 109 114 120 126 131 
135 133 129 123 119 116 115 117 122 127 132 135 136 133 129 122 115 109 105 103 103 106 109 114 119 123 127 130 133 135 136 136 136 134 132 130 128 127 126 127 128 130 132 133 133 133 132 131 130 131 132 134 135 135 133 130 124 119 114 112 113 117 123 131 139 144 147 146 142 136 129 123 119 117 118 120 122 124 126 126 126 126 127 130 134 138 141 142 140 136 129 122 116 112 111 114 119 125 131 134 
137 134 129 123 118 115 115 118 123 129 134 136 136 133 128 121 114 108 105 104 106 109 113 117 121 124 126 128 130 132 134 136 138 139 138 136 134 131 128 126 125 125 126 128 129 130 130 131 131 132 133 134 134 134 131 128 123 118 114 112 113 117 123 131 138 144 146 146 142 136 129 124 121 120 121 124 126 128 128 127 125 124 124 125 128 132 136 138 137 134 130 124 119 116 117 119 124 130 135 137 
138 135 129 123 118 116 117 120 125 131 135 138 137 133 127 120 114 109 107 108 111 115 119 122 124 125 125 125 126 128 131 135 138 141 142 141 138 134 129 125 122 121 121 123 125 127 129 130 131 131 132 132 132 131 129 126 122 118 114 113 113 117 123 130 136 141 144 143 140 135 130 126 124 124 126 129 131 132 130 128 124 121 119 120 122 126 130 133 134 133 130 126 122 120 121 124 129 134 138 139 
138 134 129 123 119 117 118 122 127 133 137 139 138 134 128 121 116 112 112 114 118 122 126 129 129 127 125 122 122 123 127 132 137 142 144 144 141 135 129 123 118 116 116 118 121 124 127 129 130 130 130 130 129 129 127 125 122 119 116 115 115 117 122 127 132 137 139 139 137 133 130 127 127 128 130 133 134 134 131 127 122 118 115 115 117 121 126 130 132 132 130 127 124 123 124 127 131 136 139 140 
137 133 128 123 119 118 119 123 128 134 138 139 138 134 129 123 119 117 117 121 125 130 133 134 132 128 123 119 117 118 122 128 135 141 145 145 141 135 127 120 114 111 111 114 118 122 125 128 129 129 128 127 127 126 126 125 124 122 120 119 118 118 121 124 128 131 133 133 132 131 129 128 129 131 133 135 136 134 131 125 119 114 112 111 114 118 123 127 130 130 129 127 126 125 126 129 133 136 139 139 
135 131 126 122 118 117 119 123 128 133 137 139 138 135 130 125 122 121 123 127 132 137 139 138 134 128 121 116 113 114 118 125 133 140 144 144 140 133 125 117 111 108 108 111 116 121 125 128 129 128 126 125 124 124 125 126 127 127 126 124 122 121 120 121 122 124 126 127 127 127 127 128 130 132 134 136 136 133 129 123 117 112 109 109 112 116 121 126 129 130 129 128 127 126 127 130 133 136 137 137 
133 129 125 121 117 116 118 121 126 131 135 137 136 134 131 127 125 126 128 133 137 141 142 139 134 126 118 112 109 109 114 122 131 138 142 142 138 131 122 113 107 105 106 110 116 122 127 129 130 128 125 123 122 123 125 128 131 132 132 130 127 124 121 119 118 118 119 120 121 123 125 127 130 133 135 135 134 131 126 120 115 110 108 109 112 117 122 126 129 130 130 129 128 128 128 130 132 135 136 135 
132 128 124 120 116 115 116 118 123 127 131 133 134 133 131 129 128 129 132 136 140 142 142 138 132 123 115 108 105 107 112 120 129 137 141 141 136 128 119 111 105 103 105 111 117 124 130 132 132 129 125 122 121 122 125 130 134 138 139 137 134 128 123 118 114 113 113 114 116 120 123 126 130 132 134 134 132 129 124 118 113 110 109 111 114 119 124 128 131 132 132 131 130 129 130 131 133 134 135 134 
132 129 124 120 116 114 114 116 119 123 127 129 131 131 131 130 131 132 135 138 141 142 140 136 128 120 112 106 104 106 111 120 129 136 139 139 134 126 117 110 105 104 107 113 121 129 134 136 134 130 125 121 119 120 124 130 137 142 145 144 140 133 125 118 112 109 108 110 113 117 122 126 130 133 134 133 130 126 122 117 113 111 111 113 117 122 127 131 133 134 134 133 132 131 132 133 134 135 136 135 
134 131 126 122 118 115 113 114 116 119 122 125 128 129 130 131 132 134 136 139 141 140 138 133 125 117 110 105 104 107 113 121 129 136 139 138 133 125 117 110 106 107 111 118 127 134 139 140 138 132 125 119 116 117 122 130 138 145 149 149 145 137 128 119 112 107 106 108 112 117 123 127 131 133 133 132 129 125 120 116 114 113 114 116 120 125 130 133 135 136 136 135 134 133 133 134 136 137 137 136 
137 134 130 125 121 117 114 113 114 116 119 122 125 128 130 132 133 135 137 139 139 138 135 130 123 116 111 107 107 110 116 124 131 137 139 137 132 125 117 111 109 111 116 124 133 140 145 145 141 134 125 118 114 114 119 127 137 146 151 152 148 140 130 120 112 107 106 108 112 118 124 130 133 134 134 132 128 124 120 117 115 115 116 119 123 128 132 135 136 137 136 135 134 134 134 135 137 138 139 139 
140 138 134 130 125 121 117 115 114 116 118 121 124 127 130 132 134 136 137 138 138 136 133 128 123 117 113 111 112 116 122 128 134 138 139 137 131 125 119 114 113 116 122 130 139 146 150 149 143 135 125 116 110 110 115 123 134 144 151 153 150 142 132 122 113 108 107 109 114 121 127 132 135 136 134 131 128 124 120 118 117 117 119 122 126 129 133 135 136 136 135 134 133 133 133 134 136 138 140 140 
142 141 138 135 130 125 121 118 117 117 119 122 125 128 130 133 134 136 137 137 136 134 131 128 124 120 118 117 119 123 128 133 137 139 139 136 131 125 120 117 117 121 128 136 144 150 153 151 145 136 124 114 108 106 110 119 130 141 148 152 150 143 133 123 115 110 109 112 117 124 130 135 137 137 134 131 127 123 120 119 119 119 121 124 127 130 132 133 134 133 132 130 129 128 129 131 133 136 139 141 
141 142 141 138 135 130 126 123 121 121 122 124 127 129 132 133 135 135 135 134 133 131 129 127 125 123 123 124 127 130 134 138 140 140 139 135 130 125 121 120 121 125 132 140 147 153 155 153 146 136 124 113 106 104 107 115 125 136 145 149 148 142 133 124 116 112 111 114 120 127 132 136 137 136 133 130 126 123 121 120 121 122 124 126 128 130 131 131 130 128 126 124 122 121 122 124 127 131 135 139 
139 141 141 140 137 134 130 127 126 126 126 128 130 132 134 134 134 134 133 131 130 128 127 126 126 126 128 130 133 137 139 141 141 140 137 133 128 124 121 120 122 127 133 141 148 153 154 152 146 136 125 114 106 103 105 112 121 132 141 145 145 140 132 124 117 113 113 117 122 128 133 136 136 134 131 127 124 123 122 123 124 126 127 128 129 130 129 128 126 123 119 116 114 112 113 115 119 124 130 135 
135 138 139 139 137 135 132 130 130 130 131 132 134 135 135 135 134 132 129 127 125 124 123 124 125 128 131 135 138 141 143 143 141 138 134 130 125 122 119 119 121 125 131 138 145 150 152 150 145 136 125 115 107 104 105 110 119 129 137 141 141 137 131 124 118 115 115 119 124 129 133 134 133 131 127 125 123 123 124 126 128 130 131 132 131 130 129 126 122 118 114 109 106 104 104 106 110 116 123 129 
129 133 135 135 134 133 132 131 132 133 134 136 137 138 137 135 133 129 125 122 120 118 119 120 123 128 132 137 141 143 144 143 140 136 131 126 121 118 116 116 118 122 127 133 139 144 146 146 142 135 126 118 111 107 107 112 119 127 134 138 138 135 129 123 118 116 117 120 124 128 131 131 129 127 124 122 122 123 126 130 133 135 136 136 134 132 129 125 121 115 110 105 100 98 97 99 104 110 117 124 
125 129 130 130 129 128 128 129 131 134 136 138 140 139 138 135 131 126 122 117 115 113 114 116 121 126 132 137 141 144 144 141 137 132 126 121 117 113 112 112 113 116 120 126 131 136 139 140 139 134 128 121 115 112 112 115 120 127 132 136 136 133 128 123 119 117 118 121 124 127 128 128 125 123 121 120 122 125 130 134 138 140 141 140 138 135 131 127 122 116 110 104 99 96 95 97 101 107 113 120 
123 125 125 125 123 123 123 125 129 132 136 139 140 140 138 134 129 124 118 114 111 109 110 113 118 124 130 136 140 142 142 139 134 128 122 117 112 109 107 107 108 110 113 118 122 127 131 134 135 133 129 125 121 118 117 119 123 128 132 134 134 131 127 123 120 119 120 122 124 126 126 125 122 120 119 120 123 128 134 139 143 145 145 143 141 138 134 130 125 120 114 107 102 99 97 99 102 108 114 119 
124 124 123 120 118 117 118 121 125 129 134 137 139 139 136 132 127 122 116 112 109 108 109 112 117 123 129 135 138 140 139 136 131 125 119 113 109 106 104 103 104 105 108 111 115 120 124 128 131 132 131 129 126 124 123 124 127 130 133 134 133 131 127 124 121 120 121 123 124 125 124 123 120 119 119 121 126 132 138 144 147 148 147 145 142 140 137 134 131 126 121 115 110 107 105 106 109 114 118 122 
128 126 122 118 115 113 114 116 121 126 131 134 136 136 134 131 126 121 116 112 110 109 110 113 117 123 128 133 137 138 137 134 129 123 117 111 107 104 103 102 102 103 104 107 110 114 119 124 128 130 132 132 131 130 129 129 131 132 134 134 133 130 127 124 122 122 122 124 125 125 124 122 120 119 120 124 129 136 142 146 148 148 146 144 141 139 138 137 136 134 130 126 122 118 117 117 119 123 126 128 
133 129 124 119 114 112 112 114 118 122 127 130 132 132 131 128 125 121 118 115 114 113 114 117 120 124 129 133 135 136 135 132 127 121 116 111 107 105 104 103 103 104 105 106 109 112 116 121 125 129 132 133 134 134 133 133 134 134 135 134 132 130 127 125 123 123 123 125 125 125 124 123 121 121 123 127 132 138 143 146 146 144 141 138 136 135 137 138 140 141 140 137 134 132 130 130 131 133 135 135 
139 134 128 122 117 113 112 114 116 120 123 126 128 128 127 126 125 123 121 120 120 120 121 123 125 128 131 133 134 134 133 130 125 121 116 112 110 108 108 108 108 109 109 110 111 113 116 120 124 128 131 134 135 136 136 136 136 136 135 134 132 129 127 125 123 123 124 125 126 126 125 124 123 123 125 129 134 138 141 142 140 137 132 129 128 129 132 137 142 146 147 147 145 143 141 141 141 142 143 142 
142 138 132 126 121 117 116 116 117 118 120 122 123 124 124 124 125 125 126 127 127 128 129 130 131 132 133 133 133 133 131 128 124 120 117 114 113 113 114 115 116 117 117 117 117 117 118 120 123 127 130 133 135 136 137 137 137 136 135 134 131 129 126 124 123 123 124 126 127 127 127 126 125 125 127 130 133 136 137 135 132 126 121 118 117 120 125 133 141 147 151 153 152 150 149 147 147 147 147 145 
143 140 136 131 127 123 121 119 119 119 119 119 119 120 121 123 125 128 130 133 135 136 136 136 136 135 134 134 132 131 128 126 123 120 118 117 117 119 121 124 126 127 127 126 124 123 122 122 123 125 128 131 133 134 136 136 136 136 135 133 130 128 125 124 123 123 125 126 127 128 128 127 126 126 127 129 131 132 131 127 122 115 110 106 106 110 118 127 138 146 152 154 154 152 150 148 147 147 146 145 
140 139 137 135 132 129 127 124 122 120 118 117 116 117 119 122 126 130 135 138 141 142 142 141 139 137 135 133 130 128 126 123 121 119 119 119 121 124 128 132 135 137 137 135 132 128 125 123 123 123 125 127 130 132 133 134 134 134 133 131 129 127 124 123 123 123 125 127 128 129 129 128 127 126 126 127 127 126 124 119 112 106 100 97 98 103 111 122 133 142 149 151 151 149 146 143 142 141 141 141 
135 136 137 137 137 135 133 130 126 122 118 115 114 115 117 121 127 132 138 142 144 145 145 143 140 137 134 131 128 126 123 121 119 119 119 121 125 129 135 139 143 145 145 142 138 133 128 124 122 121 122 124 126 128 130 131 132 132 131 130 128 126 124 123 123 124 126 128 129 130 129 128 126 125 124 124 123 121 118 113 106 100 95 92 93 98 107 118 129 138 144 146 145 142 138 134 132 131 132 133 
128 132 136 138 140 139 137 134 129 124 119 115 114 114 117 122 128 134 139 143 145 146 144 142 139 136 132 129 126 124 121 120 119 118 120 123 127 133 139 144 148 150 150 146 141 135 129 124 120 119 119 121 123 125 127 128 129 129 128 127 126 125 124 124 124 126 128 129 130 130 129 128 125 123 122 121 120 118 114 110 104 98 94 92 94 99 106 116 126 134 138 139 137 132 127 123 121 120 121 124 
122 128 133 138 141 142 140 137 132 126 120 116 114 115 118 123 129 134 139 142 144 143 141 139 136 133 130 127 125 123 121 120 119 119 121 124 129 135 141 146 150 152 151 147 142 135 128 123 119 118 118 119 121 122 124 125 125 125 125 125 124 124 125 126 127 129 131 132 132 132 130 127 124 121 120 119 118 116 114 111 106 102 99 98 99 103 110 118 125 131 133 132 129 123 118 113 110 110 112 116 
117 124 131 137 141 143 142 139 133 127 122 117 116 116 119 124 129 134 138 140 140 138 136 134 131 129 127 126 125 124 123 122 122 122 123 126 130 135 141 146 149 150 149 145 139 133 127 122 119 118 118 119 121 122 122 122 122 121 121 122 123 124 126 128 131 133 135 135 135 133 130 126 123 120 118 118 118 118 117 115 113 110 108 107 108 112 116 122 127 130 130 127 122 116 111 106 104 104 106 111 
115 122 129 135 140 142 142 139 134 128 123 119 118 118 121 125 129 133 135 136 135 132 130 128 126 126 126 126 127 127 127 126 126 126 127 128 131 135 139 143 145 145 143 140 135 129 125 122 120 120 121 122 123 123 122 120 118 117 117 118 121 124 128 131 135 138 139 139 137 134 130 125 121 119 118 118 120 121 122 122 122 121 120 119 120 122 125 128 130 130 128 124 119 113 107 103 101 102 104 109 
116 122 128 134 138 140 140 138 134 129 124 121 120 120 122 126 129 131 132 131 129 126 124 123 123 124 126 128 130 131 132 132 131 131 130 131 133 135 137 139 139 139 136 133 129 125 123 122 123 125 127 128 128 126 123 119 116 114 113 115 118 123 129 135 139 142 143 142 139 134 129 124 121 119 118 120 123 126 129 131 131 131 131 131 131 132 133 133 133 131 128 123 118 112 108 105 103 104 106 110 
118 123 128 132 136 138 138 136 133 129 125 123 121 122 123 126 127 128 128 126 123 121 119 119 120 123 127 131 134 136 137 137 136 135 134 133 133 134 134 134 133 131 129 125 123 121 121 123 127 130 133 135 134 131 125 119 114 110 109 111 116 123 130 137 143 146 146 144 140 134 129 124 120 119 120 122 126 131 134 137 139 140 140 139 139 139 138 137 135 132 128 123 118 114 111 109 109 109 111 114 
122 124 127 130 133 134 135 134 132 129 126 124 123 123 124 125 125 125 124 121 119 117 116 117 120 124 129 134 137 140 141 141 140 138 136 134 133 132 131 129 127 124 121 119 117 118 121 125 131 137 141 142 141 136 128 120 113 108 106 109 114 122 131 139 145 148 148 145 140 134 128 123 120 120 122 125 130 134 139 142 143 144 144 143 142 141 140 138 135 131 127 124 120 118 116 115 116 117 118 120 
125 126 126 128 129 130 131 131 130 128 126 124 123 123 123 123 123 122 120 118 116 115 116 118 121 126 131 136 140 142 143 142 140 138 136 134 132 130 128 125 122 118 115 113 113 115 120 127 135 142 147 149 147 140 132 122 113 107 105 107 113 121 131 139 145 148 147 144 138 132 126 122 121 121 124 128 133 137 140 142 143 143 143 142 141 140 138 136 133 130 127 124 122 121 121 122 123 124 125 125 
127 126 125 124 125 126 127 128 128 127 126 125 124 123 122 121 120 119 118 116 116 116 117 120 124 129 134 138 141 142 141 140 138 135 133 131 129 127 125 122 118 115 111 110 110 113 119 128 137 146 151 153 151 144 134 123 113 106 104 106 112 121 131 139 144 147 145 141 136 130 125 122 122 123 126 130 134 138 139 140 140 139 138 137 136 135 134 132 130 128 126 124 124 124 126 128 129 130 130 129 
128 125 122 121 120 121 123 125 126 126 126 125 124 122 121 120 119 118 117 116 117 118 120 124 128 132 136 139 140 139 137 135 132 130 128 127 126 125 123 120 117 113 110 108 108 112 118 127 137 146 152 155 152 145 135 124 114 107 105 107 113 121 130 137 142 143 142 138 132 127 124 122 123 126 129 133 135 137 137 135 134 132 130 129 129 129 129 128 127 126 125 125 125 127 130 132 134 135 134 131 
128 123 119 117 117 118 120 122 125 126 126 126 124 123 121 120 118 118 117 118 119 121 124 128 131 135 137 138 137 135 132 128 125 123 121 121 122 122 122 121 118 114 111 108 108 111 117 125 135 144 150 153 151 144 135 125 115 109 107 110 115 122 130 136 139 139 137 133 129 125 123 123 125 128 132 135 136 135 133 130 127 124 122 122 122 123 125 126 126 126 125 126 127 129 132 135 137 137 135 132 
127 121 117 114 114 115 118 121 124 126 127 127 126 124 122 120 119 119 119 120 122 125 128 131 134 137 138 137 134 130 125 121 117 115 115 116 119 121 123 123 121 118 113 110 109 110 115 122 131 139 145 148 146 141 133 124 117 112 111 114 119 124 130 134 135 134 131 128 125 123 123 125 128 131 134 136 135 133 129 125 120 117 115 116 117 120 123 125 126 127 127 128 129 131 134 137 139 138 136 132 
126 120 115 112 112 114 117 121 125 128 129 129 128 126 124 123 122 122 122 124 126 128 131 134 136 138 137 135 131 126 120 115 111 109 110 113 117 122 125 127 126 123 118 114 111 110 113 119 126 133 138 141 140 136 130 124 119 116 116 119 123 128 131 133 132 130 126 123 121 121 123 126 130 134 136 137 135 131 126 120 116 113 112 113 116 120 123 126 128 129 129 130 131 133 136 138 139 139 136 132 
126 120 115 112 112 114 118 122 127 130 132 132 131 129 128 126 125 125 126 127 129 131 133 135 137 137 136 134 129 123 117 111 107 106 107 111 117 123 128 131 131 129 124 118 114 111 112 116 121 126 131 133 132 130 126 122 120 120 122 125 129 132 133 132 129 125 122 120 119 121 124 128 133 136 137 137 134 129 123 118 113 111 111 113 117 121 126 129 131 132 132 133 133 135 137 139 140 139 136 131 
126 120 115 113 113 115 120 125 129 133 135 135 134 133 131 130 129 128 129 129 130 132 133 135 136 136 135 132 128 122 116 110 106 105 106 111 118 126 132 137 137 135 129 123 117 113 112 114 117 121 124 126 125 123 121 120 121 123 127 131 134 136 135 131 127 122 118 117 118 121 125 130 134 137 138 136 132 127 121 116 113 112 113 116 120 125 129 132 134 135 134 134 135 136 138 139 140 139 136 132 
127 121 117 115 115 118 122 127 132 136 138 138 137 136 134 133 132 131 131 131 131 131 132 133 134 134 134 132 128 123 118 112 108 106 108 113 120 129 136 141 142 140 134 127 121 116 114 114 116 118 120 120 119 118 117 118 121 126 131 136 139 139 136 131 125 120 116 115 117 121 126 132 135 137 137 134 130 125 120 116 114 114 116 119 123 128 132 134 135 135 135 134 134 135 137 139 140 139 137 132 
127 122 118 117 117 121 125 130 135 138 140 139 138 137 135 134 133 132 131 131 130 129 129 130 131 132 132 132 130 126 121 116 112 110 111 116 123 131 138 143 145 143 137 131 124 119 116 116 116 118 118 117 116 115 115 117 121 128 134 140 143 142 138 131 124 118 114 114 117 122 127 132 136 137 135 132 128 123 120 117 116 117 119 122 126 129 132 134 134 133 133 132 133 134 136 138 139 139 136 132 
127 122 119 118 119 123 128 133 137 139 140 140 138 136 134 133 132 131 130 129 128 127 126 127 128 130 131 132 132 129 125 121 116 114 115 118 125 132 139 144 145 143 139 133 127 122 120 119 120 120 120 118 115 113 113 116 121 128 136 142 144 143 138 130 122 116 113 114 117 123 128 133 135 135 133 129 125 122 119 118 118 119 121 124 127 129 130 131 130 129 129 129 130 132 134 137 138 138 136 132 
126 121 118 118 120 124 129 134 137 139 139 138 136 133 131 130 129 129 128 127 126 124 124 124 126 128 131 133 134 133 129 125 121 118 118 120 125 132 138 142 144 142 138 133 128 125 124 124 125 125 124 121 117 114 113 115 121 128 136 142 144 142 136 128 121 115 112 113 118 123 128 132 134 133 130 127 123 121 119 119 120 121 123 124 125 126 126 125 124 123 123 124 126 129 133 136 137 137 135 131 
123 119 116 116 119 123 129 134 137 138 138 135 132 129 127 126 125 125 125 124 123 122 122 123 125 128 132 135 136 135 133 129 124 121 119 121 124 130 135 139 140 139 135 132 128 127 128 129 131 132 130 126 121 117 114 116 120 128 135 140 142 140 134 126 119 114 112 114 118 123 128 131 132 130 127 124 122 120 120 121 122 123 124 124 123 122 121 119 118 118 118 120 123 127 131 135 136 136 133 128 
120 115 113 113 117 122 127 133 136 137 135 132 128 125 122 120 120 121 121 121 122 122 122 123 126 129 133 136 137 137 135 130 126 122 119 120 123 127 131 134 135 134 132 129 128 128 131 134 137 138 136 132 126 120 117 117 121 127 134 139 140 138 132 124 117 113 112 114 119 124 128 130 130 128 125 122 120 120 121 122 124 124 124 123 121 118 116 114 113 113 115 118 122 127 132 135 136 135 131 126 
117 111 109 110 113 119 125 131 134 135 133 129 125 121 118 116 116 117 118 120 121 122 124 125 128 131 134 137 138 137 134 130 125 121 119 118 120 124 128 130 131 131 129 127 127 129 132 137 141 142 141 137 130 124 120 119 122 127 133 137 138 135 129 123 117 113 113 115 120 125 128 129 128 126 123 120 120 121 122 124 126 126 125 122 119 116 113 111 110 111 114 118 124 129 134 137 137 135 130 123 
113 108 105 106 110 116 123 129 133 134 132 128 123 119 115 113 113 114 116 119 122 124 126 129 131 134 136 137 137 136 133 128 123 119 117 117 119 122 125 127 128 128 126 125 126 129 133 138 143 145 144 140 134 127 123 121 123 127 132 136 136 134 128 122 117 115 115 118 122 126 128 128 126 124 121 119 120 121 124 127 128 128 126 123 119 115 113 111 111 113 117 122 128 133 138 140 139 135 129 121 
111 105 102 103 107 114 121 128 132 134 132 129 124 119 115 112 112 113 116 119 123 127 130 132 135 136 137 137 136 133 129 125 121 117 116 116 118 121 124 127 127 127 125 125 125 128 132 138 142 145 144 140 135 129 125 123 125 129 133 136 136 134 129 124 120 118 119 122 126 128 129 128 125 122 120 119 120 123 126 129 130 130 128 124 121 117 115 114 115 118 122 128 134 139 143 144 141 136 128 119 
109 103 100 101 106 113 121 128 133 135 134 131 126 121 117 114 113 114 117 121 125 129 133 136 137 138 137 136 133 129 125 121 118 115 115 116 119 122 126 128 129 128 126 125 125 127 131 135 139 141 141 138 133 129 125 125 127 130 134 137 137 135 131 127 125 124 125 128 130 132 131 129 125 121 119 118 120 124 128 131 132 132 130 127 124 121 120 120 121 125 129 135 140 144 147 147 143 137 128 118 
109 104 101 102 107 114 122 129 135 137 137 134 130 125 121 117 116 116 119 123 127 132 136 138 140 139 137 134 130 125 121 117 115 114 115 117 121 125 128 131 131 130 129 127 126 127 129 132 134 136 135 133 129 126 124 125 128 132 136 138 139 137 135 132 130 130 132 134 136 136 133 130 125 121 118 119 121 125 129 133 134 134 132 130 127 126 125 126 128 132 136 141 145 148 150 148 144 137 128 118 
111 106 104 106 111 117 125 132 137 140 140 138 134 130 125 121 119 119 121 125 129 134 138 140 140 139 135 131 126 121 117 114 113 114 116 120 124 129 132 135 135 134 131 129 127 126 127 128 129 129 128 126 124 122 122 124 128 133 138 140 141 140 138 136 135 136 138 140 141 139 136 131 125 121 119 119 122 126 131 134 136 135 134 132 130 129 130 131 134 137 141 144 147 149 149 147 143 136 127 118 
114 110 110 112 116 122 129 134 139 141 142 140 137 133 129 125 123 122 124 127 131 135 139 140 140 137 133 127 122 117 114 113 113 115 119 123 128 133 136 138 138 137 134 131 128 126 125 124 123 122 121 119 117 117 119 123 128 134 139 141 142 141 140 139 139 140 142 144 144 142 138 132 126 122 120 121 124 128 132 135 136 136 134 133 132 131 132 134 137 140 142 145 146 147 146 143 139 133 126 119 
117 116 117 120 124 128 133 137 140 142 142 141 139 136 132 128 126 125 126 128 132 136 139 140 139 135 130 124 119 114 112 112 114 117 122 127 132 136 139 141 140 139 136 133 129 126 124 121 119 117 114 112 112 113 116 121 128 134 139 141 142 141 140 139 140 142 144 146 146 143 139 133 127 123 122 123 126 130 133 135 136 135 133 132 131 131 132 134 136 138 140 141 141 141 139 136 133 128 124 120 
121 123 125 128 131 134 137 139 140 141 141 140 138 136 133 130 128 127 127 129 133 136 138 139 137 133 127 121 116 112 111 112 115 120 125 131 135 139 141 141 141 139 136 133 130 127 124 120 117 113 110 108 108 110 114 120 127 133 137 140 140 138 137 136 137 140 142 144 144 142 138 132 127 124 123 125 128 132 135 136 135 133 131 129 128 128 129 131 133 134 135 134 133 132 130 128 126 123 122 121 
125 128 132 135 137 139 140 139 139 138 138 137 136 134 132 130 129 128 128 130 133 136 138 137 135 131 125 119 114 111 111 113 117 123 128 133 137 139 140 140 139 137 135 133 130 128 125 121 117 113 109 107 106 108 113 119 126 132 135 136 135 133 131 130 132 134 137 139 140 138 135 131 127 125 125 127 131 134 136 136 134 131 127 125 123 123 124 125 127 128 127 126 125 123 121 119 118 119 120 122 
128 133 137 140 142 142 140 138 136 134 133 133 132 132 131 130 129 128 129 131 133 136 137 136 133 128 123 117 113 111 111 114 119 125 131 135 138 139 139 137 135 134 132 131 130 128 126 123 119 115 110 108 107 109 113 119 125 130 133 132 130 127 124 123 123 126 129 132 134 133 131 128 126 126 127 130 133 136 137 135 132 128 123 120 118 117 118 119 121 121 120 119 117 115 113 113 113 115 118 123 
130 135 139 142 143 141 139 136 133 130 129 128 128 128 128 128 128 128 129 131 133 135 136 135 132 127 121 116 112 111 112 115 121 126 132 135 137 137 136 134 131 129 128 128 128 128 128 126 122 118 114 111 110 111 115 120 125 129 130 129 125 120 116 115 115 117 121 124 126 127 126 125 125 126 128 131 135 137 137 135 130 125 120 116 113 113 113 115 116 116 116 114 112 111 109 109 111 114 118 124 
130 135 139 141 141 139 136 132 129 126 125 125 125 126 126 127 127 128 129 131 133 135 136 134 131 126 121 115 112 111 112 116 121 126 131 135 136 135 133 130 127 125 124 125 126 128 129 128 126 123 119 116 115 115 118 122 126 129 128 126 121 115 111 108 108 110 113 117 119 121 122 122 123 125 129 132 136 137 137 133 128 122 117 112 110 110 110 112 114 114 114 113 112 111 110 110 112 115 119 125 
129 133 135 136 136 134 131 128 126 124 123 123 123 124 124 125 125 126 127 130 132 134 135 134 131 127 121 116 112 111 112 115 120 125 130 134 135 134 131 128 125 122 121 122 125 127 130 131 130 127 124 121 120 120 122 125 128 129 128 124 119 113 108 105 104 105 108 112 115 117 119 120 122 125 129 133 136 137 135 132 126 120 115 111 109 109 110 113 115 116 117 117 116 115 115 115 116 119 122 126 
128 129 130 130 129 128 127 125 123 123 122 123 123 123 123 123 123 123 125 127 130 133 134 134 132 128 123 118 114 112 112 114 118 124 128 132 134 133 131 127 124 121 120 121 123 126 130 132 132 131 129 126 124 124 126 128 130 131 129 125 120 114 109 105 104 105 107 110 113 115 117 119 122 126 129 133 135 135 134 130 124 119 114 111 110 111 113 116 119 121 123 123 123 123 123 123 123 124 125 126 
125 124 124 123 123 123 123 123 123 123 124 124 124 123 122 120 120 120 121 124 127 130 133 134 133 131 126 121 116 113 112 113 117 121 126 131 133 134 132 129 125 122 120 120 122 126 129 132 134 134 132 130 128 128 128 130 132 132 131 128 123 118 113 110 109 109 110 112 114 116 118 120 123 126 130 133 134 134 131 127 123 118 115 113 113 115 118 122 125 128 130 131 132 132 132 132 131 129 128 127 
123 120 118 117 118 119 121 123 124 126 126 126 125 123 120 118 116 115 116 119 123 128 132 135 136 134 131 126 120 116 113 113 115 119 124 129 133 135 134 132 128 124 121 120 122 125 129 132 134 135 134 132 130 130 130 132 133 134 134 131 128 124 121 118 116 116 116 117 118 119 120 122 124 127 130 133 133 132 130 126 122 118 116 116 118 121 125 129 132 135 137 139 140 140 140 139 137 134 131 127 
121 117 114 114 115 117 121 124 127 129 130 129 127 124 120 116 113 111 112 114 119 125 131 136 139 139 136 132 126 120 115 113 114 117 122 128 133 136 137 135 131 127 124 122 122 124 128 131 134 135 134 133 131 130 130 132 133 135 135 135 134 132 129 127 126 125 124 123 122 122 123 124 126 129 132 133 133 131 128 125 121 119 119 120 123 127 131 135 138 141 142 144 145 145 145 143 141 137 132 126 
120 115 113 113 115 118 123 127 131 133 134 132 129 125 119 114 110 108 108 110 116 123 130 137 142 144 142 138 132 125 119 115 114 116 120 126 132 137 138 138 134 130 126 124 123 125 127 131 133 134 134 132 131 130 129 130 132 134 136 137 138 138 137 136 135 133 131 129 127 126 125 126 128 131 133 134 134 131 128 125 122 121 121 124 128 132 137 140 142 143 144 145 145 146 145 144 142 137 132 126 
120 116 114 115 117 121 126 131 135 137 137 135 131 126 120 114 109 106 106 108 113 121 129 138 144 148 148 144 138 130 122 117 114 115 119 125 131 136 139 139 136 132 128 125 124 125 128 130 133 134 133 132 130 128 127 128 129 132 135 138 140 142 143 143 141 139 136 133 130 128 127 128 130 132 135 135 135 132 129 125 123 122 124 127 132 136 140 142 143 143 142 142 142 142 142 141 139 136 131 125 
122 119 118 119 122 126 130 135 138 139 139 137 133 128 123 117 111 107 106 107 112 119 128 138 145 150 151 149 142 134 126 119 115 115 118 123 129 134 138 138 136 133 129 126 125 126 128 130 132 133 132 131 128 126 124 124 126 128 131 135 139 142 144 145 144 142 139 135 131 128 127 128 131 134 136 137 136 134 130 126 124 124 126 129 133 137 140 141 140 139 137 135 135 135 136 136 135 133 130 125 
124 123 123 124 127 130 134 137 139 140 140 138 135 132 127 121 116 111 108 109 112 118 127 136 145 150 152 151 145 137 129 121 116 115 117 121 126 131 135 135 134 131 128 126 126 127 129 131 133 133 132 130 127 124 122 121 121 123 127 131 135 139 142 144 144 142 138 134 130 127 127 128 131 134 137 139 138 135 132 128 126 125 127 130 133 136 138 137 135 132 129 127 126 126 128 129 130 130 129 127 
128 128 129 130 132 134 136 137 138 139 139 138 137 135 132 127 122 117 113 111 113 117 125 133 142 148 151 150 146 138 130 123 117 115 116 119 124 128 130 131 130 128 126 125 125 127 129 132 133 133 132 129 126 122 120 118 117 119 121 125 129 133 137 139 139 138 135 131 128 125 125 127 131 135 138 140 139 137 133 129 126 126 127 129 132 133 134 132 128 124 121 118 117 118 121 123 126 128 129 129 
133 133 134 135 135 135 135 135 135 135 135 136 137 138 137 134 130 124 119 115 114 116 122 129 137 143 146 146 143 137 130 123 118 116 116 118 121 124 126 126 126 124 124 123 125 127 129 132 133 133 132 129 126 122 119 116 115 115 116 119 122 126 130 132 133 133 130 127 125 123 124 126 130 134 138 140 140 137 134 130 127 126 126 127 128 129 128 125 121 117 113 111 110 112 116 120 124 128 130 132 
137 138 138 138 137 135 132 130 129 129 130 133 137 140 141 140 137 131 125 119 116 115 118 123 130 136 140 141 139 134 129 123 119 116 116 117 119 121 122 122 121 121 120 121 123 126 129 131 133 133 132 129 126 123 119 117 115 113 113 114 116 119 122 125 127 127 126 124 122 121 122 125 129 133 137 139 139 137 134 130 127 125 125 125 125 124 122 119 115 111 107 106 107 109 114 119 125 129 133 135 
140 141 140 139 136 132 128 124 122 121 124 128 134 140 143 144 142 136 129 122 117 114 115 118 123 128 132 134 133 130 126 122 119 118 117 118 119 120 120 119 118 117 118 119 122 125 128 130 132 132 131 129 127 125 122 119 117 115 113 112 113 115 117 119 121 122 122 122 121 121 122 124 128 131 135 137 138 136 134 130 127 125 124 123 122 120 117 114 110 107 104 104 106 110 115 121 127 132 136 139 
142 142 141 138 134 128 123 118 114 114 117 123 130 138 143 146 144 139 132 124 117 113 112 114 117 122 125 127 127 126 124 121 120 119 119 120 120 120 119 118 116 116 116 118 120 123 126 129 130 131 130 130 129 128 126 124 122 119 116 114 113 113 114 116 118 120 121 121 121 121 121 123 126 129 132 134 135 134 133 130 128 126 124 122 120 117 114 111 107 105 104 105 108 113 118 125 130 135 139 141 
142 142 140 136 131 125 118 112 109 108 111 117 126 134 141 145 144 140 133 125 118 113 110 111 114 117 120 122 123 123 122 121 121 121 122 123 123 122 120 118 117 116 116 117 120 122 125 127 128 129 130 130 131 131 131 130 128 125 121 118 115 114 114 115 117 119 121 122 122 122 122 122 123 125 128 130 131 132 132 131 130 128 126 124 121 117 113 110 107 106 106 108 112 117 123 129 134 137 140 142 
140 139 137 134 129 123 116 109 105 104 107 113 121 130 137 142 142 139 133 125 118 114 111 111 113 116 118 120 121 121 121 122 122 124 125 126 126 125 123 121 119 117 117 118 120 122 124 125 127 128 129 131 133 134 136 136 135 132 128 124 120 118 117 117 119 121 123 124 124 123 122 121 121 121 123 125 127 129 131 132 132 131 130 127 123 119 115 112 109 109 110 113 117 122 128 132 136 138 139 140 
136 136 135 132 128 122 116 109 105 103 105 110 118 126 133 138 139 137 132 126 120 116 114 114 115 117 119 120 121 121 122 123 124 126 128 130 130 129 127 124 121 120 119 120 121 122 124 125 126 127 129 131 134 137 140 141 141 139 135 130 126 123 121 121 123 125 126 127 126 125 122 119 118 117 117 119 123 126 130 133 135 136 135 132 128 123 119 115 113 113 115 118 123 127 131 134 135 136 136 136 
131 132 132 131 128 124 118 112 108 105 106 110 116 123 130 135 136 135 132 128 123 120 119 118 119 121 122 122 122 122 123 124 126 129 131 132 133 132 130 127 125 123 122 122 123 124 125 125 126 127 129 131 135 138 142 144 144 142 139 135 131 128 126 126 127 129 130 131 129 126 122 118 115 113 113 115 119 124 130 135 139 140 140 138 134 129 124 121 119 119 121 124 127 131 133 133 133 132 131 131 
125 127 129 130 129 127 122 117 112 110 110 112 117 123 129 133 135 135 133 130 127 125 124 124 124 124 125 125 124 124 125 126 128 131 133 134 135 134 132 129 127 125 124 124 125 126 127 127 128 129 130 132 135 138 141 143 144 143 141 137 134 132 131 131 132 134 135 134 132 128 123 117 112 109 108 110 115 121 129 136 141 144 145 143 139 134 130 126 124 125 126 129 131 133 133 131 129 127 125 124 
120 123 127 130 131 130 127 123 118 115 114 116 119 124 129 133 136 136 135 133 131 129 128 128 127 127 127 127 126 126 127 128 130 132 134 135 135 134 132 130 128 126 126 126 127 128 129 130 131 131 131 132 134 136 137 139 139 139 138 136 135 134 134 135 137 138 139 138 135 130 124 117 111 106 105 107 112 119 127 136 142 146 147 146 143 138 134 131 129 130 131 133 134 134 132 128 124 120 118 118 
115 120 125 130 133 133 131 128 124 121 119 120 123 127 132 135 137 138 138 136 134 132 131 130 129 128 128 127 127 127 128 129 131 133 134 135 134 133 131 129 127 126 126 127 128 130 132 133 134 134 133 133 132 132 132 132 132 132 132 132 133 134 136 138 140 142 143 142 138 132 125 117 110 105 103 105 109 117 125 134 141 146 148 147 144 140 136 134 133 134 135 136 136 134 131 125 120 115 113 113 
113 118 125 130 134 135 134 131 127 124 123 124 127 131 135 138 140 141 140 138 136 134 131 129 128 126 126 126 126 127 128 130 132 133 134 134 133 131 129 127 125 124 125 126 129 131 134 136 137 137 135 133 130 128 125 124 123 123 124 126 129 132 136 139 142 145 145 144 140 134 127 118 111 106 103 104 108 115 123 131 138 143 145 144 142 139 136 135 135 136 137 138 137 135 130 123 117 112 109 110 
113 119 125 131 134 136 134 132 128 126 125 126 129 133 137 141 143 143 142 139 136 133 129 126 124 123 122 123 124 126 129 131 132 133 133 132 131 128 126 124 122 121 122 124 127 131 135 138 139 139 137 134 129 124 120 116 114 114 116 119 124 129 134 139 143 146 146 145 142 136 128 120 113 107 104 104 107 113 120 127 134 138 140 139 137 135 133 133 134 136 138 139 138 135 130 123 116 111 109 109 
115 120 126 131 134 135 133 130 127 125 125 127 130 134 139 142 144 144 142 139 135 130 125 121 119 117 118 119 122 125 129 131 133 134 133 131 129 126 123 120 119 118 119 121 125 129 134 138 140 141 139 135 129 122 116 111 108 108 110 114 119 126 132 137 142 145 146 145 142 137 130 123 116 111 107 107 109 113 118 124 128 131 132 132 130 129 128 129 131 134 137 139 138 135 130 124 118 113 111 112 
119 124 129 132 134 133 130 127 124 122 122 125 129 134 138 142 144 143 141 137 132 126 121 117 114 113 113 116 120 124 128 132 134 134 133 131 128 124 121 118 116 116 116 119 122 127 132 137 140 141 140 135 129 122 114 108 105 104 106 110 116 123 129 135 139 142 143 142 140 136 131 126 120 116 112 111 111 114 117 120 123 125 125 124 123 122 122 124 127 131 135 138 138 136 132 127 121 117 115 116 
125 129 132 134 134 131 127 123 120 118 119 121 126 132 137 140 142 142 139 135 129 123 117 113 110 109 111 114 118 124 128 132 134 134 133 130 127 124 121 118 116 115 115 117 120 124 129 134 138 140 139 136 130 123 116 110 106 105 106 110 115 121 127 131 135 137 138 138 137 135 132 129 125 122 119 117 116 116 117 119 119 119 118 117 116 115 116 119 123 128 133 136 138 137 134 130 126 122 121 122 
