P2
100 100
255
131 137 143 145 143 137 127 117 108 102 102 106 115 126 137 145 150 150 145 136 125 113 103 95 91 91 95 101 110 120 129 135 139 139 137 133 128 122 117 112 109 107 106 107 111 117 124 133 140 145 145 142 135 125 114 104 98 95 95 99 105 111 118 124 129 133 135 137 138 139 138 136 133 130 126 123 120 117 115 112 108 104 100 96 93 93 95 102 112 124 135 144 148 148 144 137 130 125 123 126 
143 147 151 150 145 136 124 111 101 95 94 99 107 118 130 140 146 147 143 135 125 114 104 98 94 95 98 105 113 121 128 133 135 135 133 130 127 124 122 120 118 116 114 112 112 114 118 124 130 136 139 140 137 131 124 117 112 108 107 108 109 112 114 116 117 119 121 125 130 135 140 143 145 145 143 139 134 128 122 115 107 100 94 90 87 88 91 99 109 121 133 142 147 148 146 142 137 135 135 138 
152 156 157 155 148 136 122 108 97 91 90 94 102 113 125 136 143 145 143 137 129 120 111 106 103 104 107 112 118 124 128 130 130 128 126 125 125 126 128 129 130 128 125 121 116 113 112 114 119 125 131 136 138 138 136 132 128 124 121 118 116 113 110 108 106 106 109 114 122 132 142 150 155 157 157 154 148 140 130 119 109 100 93 89 87 88 93 100 110 122 132 140 145 146 145 143 141 140 142 147 
157 161 162 159 151 138 123 108 97 90 88 92 100 111 123 134 142 145 145 141 135 128 122 118 116 117 119 123 126 128 128 126 123 120 117 118 121 126 133 139 142 143 139 132 123 115 109 106 108 113 121 129 137 142 145 145 143 140 135 129 122 114 107 101 98 97 99 106 117 130 143 154 162 167 167 164 158 148 137 125 113 104 97 93 92 94 99 107 116 125 132 138 141 141 140 139 139 141 145 151 
158 163 164 161 153 140 125 110 99 92 91 94 102 113 124 135 143 147 148 146 142 138 134 131 131 132 134 135 135 133 129 122 116 110 108 109 115 124 136 146 153 156 152 144 132 119 108 101 99 103 111 122 134 144 151 155 154 151 145 136 126 115 105 97 92 91 94 102 114 129 144 157 166 171 172 169 163 153 142 129 118 109 103 101 101 105 110 117 124 129 133 135 134 132 130 130 132 136 143 151 
156 162 164 161 154 142 127 114 103 97 96 100 107 117 128 138 145 149 150 149 147 145 143 143 144 145 146 146 143 138 129 119 109 101 98 100 108 120 136 151 161 166 163 155 141 124 108 98 93 95 103 116 130 144 154 160 161 157 150 140 127 115 104 95 91 90 94 102 115 130 145 158 167 171 172 169 163 154 143 132 122 115 111 111 114 119 124 130 134 135 134 131 126 121 118 118 121 127 137 147 
151 158 161 159 152 141 129 117 108 103 103 108 115 124 133 141 146 149 149 149 148 147 148 149 152 154 155 154 150 142 130 116 104 94 90 92 100 115 133 151 165 171 171 163 148 129 111 97 90 90 98 111 127 142 154 160 162 158 150 139 126 114 103 96 92 93 98 106 118 132 145 156 163 167 167 163 158 149 140 131 124 120 120 123 128 134 139 143 143 141 134 126 117 110 105 105 109 117 128 140 
145 153 156 154 148 139 128 118 112 109 111 116 124 131 138 143 146 146 145 144 143 144 146 150 154 158 160 159 154 145 131 116 101 90 85 86 94 109 129 149 165 173 174 168 154 135 115 100 91 90 96 109 124 140 152 158 159 155 146 135 123 112 104 99 98 100 106 114 124 134 144 151 155 157 156 153 148 141 134 128 125 124 127 133 140 147 152 154 152 145 134 121 109 99 94 93 98 107 119 133 
139 147 150 148 142 133 125 118 115 115 119 125 132 138 142 143 142 139 136 134 133 134 138 144 150 156 160 160 156 147 133 117 102 90 83 83 91 105 125 145 162 172 175 169 157 140 120 104 95 93 98 110 124 138 149 154 154 148 139 128 118 110 105 104 107 111 117 124 131 137 141 144 145 144 142 139 135 131 127 124 124 127 133 141 150 157 162 162 158 148 134 117 102 91 85 85 90 99 113 127 
135 142 144 141 134 127 120 116 116 119 125 132 138 142 143 140 136 130 124 120 119 121 126 133 142 150 156 158 156 148 136 121 106 93 86 85 90 103 121 140 157 168 172 169 158 143 126 111 102 99 104 114 127 138 146 149 147 140 130 120 112 108 108 112 118 124 131 136 139 139 138 136 133 130 127 124 122 120 119 120 123 128 137 146 156 163 167 167 161 149 133 115 98 86 81 81 86 96 110 124 
134 139 138 133 126 119 114 113 116 122 129 137 142 144 141 135 127 118 110 105 104 106 112 121 131 141 149 154 153 149 139 127 113 101 93 91 94 104 119 136 151 162 166 165 157 145 131 118 110 108 112 120 131 139 144 144 139 130 121 112 108 107 112 120 129 138 144 147 146 142 135 128 122 117 114 112 112 113 114 117 122 129 138 148 158 165 169 169 162 150 132 113 97 85 80 81 87 98 111 124 
135 138 135 128 120 113 109 110 116 124 133 141 145 144 138 129 117 107 98 93 92 94 101 110 122 133 142 148 150 148 142 133 123 113 105 102 103 109 119 132 144 154 159 159 154 145 135 125 119 118 121 128 135 141 142 139 131 122 112 106 104 107 116 127 139 149 155 156 152 144 133 123 114 108 105 105 107 110 113 117 121 128 137 146 156 163 168 167 161 149 132 113 98 87 83 85 92 103 116 128 
139 139 133 124 115 108 106 109 116 126 136 144 146 143 135 122 109 97 89 84 84 88 95 104 115 126 135 142 146 146 144 139 133 126 120 116 114 116 122 129 137 145 149 150 148 143 137 131 127 127 130 135 139 141 140 134 125 115 106 100 101 107 118 133 147 158 163 162 156 146 133 120 110 104 102 104 107 111 115 118 122 127 133 142 150 158 163 163 158 147 131 115 100 91 88 92 100 112 124 134 
144 141 132 122 112 106 105 110 119 130 140 147 147 142 131 117 103 92 84 81 82 87 94 103 113 122 130 136 141 143 144 144 142 139 135 131 127 125 125 127 130 134 138 140 140 139 136 134 133 134 136 139 141 141 137 130 120 109 101 97 99 107 120 136 151 162 167 165 158 147 133 120 110 106 105 108 112 116 119 121 122 124 128 134 142 150 155 156 153 144 131 117 105 97 96 101 110 122 133 141 
148 142 133 121 111 106 106 112 122 134 144 149 149 142 130 115 101 90 84 83 86 92 100 108 115 122 127 131 134 138 142 146 149 149 148 145 139 134 128 125 123 124 126 128 131 132 134 134 135 137 139 140 141 139 134 126 116 107 99 96 99 107 120 136 150 161 166 164 157 146 134 122 114 111 112 116 121 124 125 124 122 120 121 125 131 139 145 148 146 140 130 119 109 104 104 110 120 132 142 148 
150 143 132 120 111 106 108 115 126 138 148 152 151 142 130 115 102 93 89 90 95 102 110 117 121 123 124 125 127 131 137 145 151 156 157 155 149 140 130 122 116 113 113 116 121 125 130 133 135 137 138 139 138 135 131 124 115 107 101 98 100 107 119 133 146 156 160 159 154 144 134 125 120 119 122 126 130 132 130 126 120 116 114 115 120 127 134 139 140 136 129 121 114 110 112 118 128 139 147 151 
149 141 130 119 110 107 109 117 129 141 150 154 152 143 131 117 105 99 97 101 108 117 124 128 129 126 122 118 118 122 129 140 151 159 163 161 154 143 130 117 108 103 102 106 112 119 125 131 134 136 136 135 134 131 128 123 117 110 105 103 104 109 117 128 138 146 151 150 146 140 133 128 126 127 131 135 138 138 133 126 118 110 106 106 110 117 125 131 134 133 128 122 117 116 118 124 134 143 150 152 
146 138 127 117 109 106 110 118 130 142 150 154 152 144 133 121 112 107 109 115 123 132 138 139 135 127 118 111 108 111 120 133 147 158 164 163 156 143 127 111 100 94 93 97 105 114 122 129 132 133 132 130 129 127 125 123 121 117 114 111 110 112 116 122 128 134 137 138 136 133 130 129 130 134 138 142 144 141 134 125 114 105 100 99 103 110 118 125 130 131 128 124 121 120 122 128 136 144 149 150 
142 134 124 114 107 105 108 117 128 139 148 152 150 144 134 125 119 117 121 128 138 145 149 147 139 126 113 103 99 101 110 125 141 154 162 162 154 140 122 105 93 87 87 92 101 112 122 129 132 131 128 125 123 123 124 126 127 127 126 123 120 117 116 116 118 120 122 124 124 125 127 129 133 139 143 146 146 141 133 121 110 101 95 95 99 106 115 123 129 131 130 127 125 124 126 131 137 143 147 147 
139 130 120 111 104 102 105 113 123 134 142 146 146 141 135 129 125 126 132 140 149 155 156 150 139 123 108 96 90 92 102 118 135 150 158 159 150 135 117 100 88 83 84 91 102 114 125 131 133 130 125 120 118 119 123 129 134 138 139 136 131 124 118 112 109 107 108 110 113 117 122 129 135 141 146 147 145 139 129 117 106 98 93 94 98 106 116 125 131 134 134 132 129 128 130 133 138 143 145 144 
137 129 119 110 103 100 102 108 116 126 134 138 139 137 134 131 130 134 140 148 155 159 158 150 136 118 102 89 84 86 96 112 130 146 154 154 146 130 112 95 85 81 84 93 106 120 131 137 136 131 123 116 113 115 122 131 141 149 152 150 143 133 121 110 102 97 96 99 104 111 119 128 137 143 147 147 143 135 125 113 103 96 94 95 101 110 120 129 136 139 139 137 135 133 134 136 140 143 144 143 
139 131 121 111 104 99 99 103 109 117 124 129 132 132 132 132 134 139 145 153 158 160 157 147 131 113 97 85 81 84 94 110 128 143 151 151 141 126 108 93 85 83 89 100 115 130 140 144 141 133 122 113 108 110 119 132 146 157 163 162 155 142 126 111 98 91 89 91 98 107 118 129 138 144 147 145 140 131 120 110 102 97 96 99 106 116 127 136 142 145 145 143 140 138 138 140 142 145 146 144 
143 136 126 116 108 101 99 100 103 109 115 121 125 127 129 132 136 141 148 154 158 158 153 142 126 109 94 85 82 86 97 112 129 143 150 148 139 124 107 94 88 89 97 111 127 142 151 153 147 136 121 109 103 105 115 130 147 161 170 170 163 150 132 113 98 88 86 88 96 107 120 132 141 146 147 143 136 127 116 107 101 98 99 104 113 123 133 142 147 149 149 147 144 142 141 142 145 147 148 147 
149 143 134 124 115 107 102 100 101 104 109 114 119 124 128 132 137 143 149 153 156 154 148 137 123 108 95 88 87 92 103 118 133 145 150 147 137 123 109 98 94 97 108 124 141 155 162 162 154 139 121 106 98 98 108 125 145 162 173 175 169 156 137 116 99 89 86 89 98 110 124 136 144 148 146 141 133 123 114 106 102 101 104 110 119 129 138 145 150 151 150 147 144 141 141 143 146 149 151 152 
154 150 143 134 124 115 108 103 102 104 107 112 118 123 128 133 138 143 147 151 151 149 143 133 121 109 100 96 97 103 114 127 140 149 151 147 137 124 112 103 102 108 121 138 154 166 172 169 159 141 120 103 92 92 101 118 139 159 172 176 172 159 140 119 102 91 88 92 102 115 129 141 147 149 146 139 129 120 112 106 103 104 108 115 124 133 140 146 148 148 145 142 138 136 136 139 143 148 152 155 
157 156 151 143 134 124 116 110 107 108 110 115 120 125 130 135 139 142 145 146 146 143 137 129 121 113 108 107 110 117 127 138 147 153 153 147 137 125 115 109 110 118 132 149 164 175 178 174 162 143 120 100 88 86 93 110 132 153 167 174 171 160 142 122 105 95 92 97 108 121 134 144 149 149 143 135 126 117 111 107 106 109 114 120 128 134 140 143 143 140 136 131 127 125 126 129 135 142 149 155 
156 158 156 150 142 133 125 119 115 115 117 121 126 130 134 137 139 141 141 140 138 135 131 126 121 118 117 119 124 131 140 148 153 155 153 146 136 125 117 113 116 126 140 156 170 179 182 177 164 144 120 99 85 81 87 102 123 144 161 169 167 158 142 123 108 99 97 103 114 127 138 146 149 146 140 131 122 115 111 110 111 114 120 125 131 135 137 137 134 129 123 117 112 110 111 115 122 132 142 151 
151 156 156 153 146 139 132 127 124 124 126 130 134 137 139 140 140 138 136 133 129 126 124 122 121 123 126 131 137 144 151 156 158 156 151 143 133 123 116 114 118 128 143 158 171 179 181 176 164 144 120 99 84 79 83 96 115 136 153 162 162 154 140 124 110 103 102 108 118 130 140 145 145 141 134 126 119 115 113 114 118 122 127 131 134 136 134 131 125 117 109 102 96 94 95 99 107 119 131 143 
143 149 152 150 146 140 135 132 131 132 135 139 143 145 145 143 139 134 129 123 119 116 115 116 120 125 132 140 147 154 158 160 159 154 147 137 126 117 112 111 115 125 139 153 166 174 176 173 161 143 121 101 86 80 83 93 110 129 145 154 155 149 137 124 112 106 106 112 121 131 138 141 140 134 128 121 117 115 117 121 126 132 136 138 139 137 133 126 117 107 97 89 83 80 81 85 93 105 118 132 
133 140 143 143 140 136 134 133 134 138 143 147 150 151 149 144 138 129 121 114 109 106 106 110 116 125 135 145 153 159 162 161 157 150 140 129 118 110 105 104 108 117 129 143 155 164 168 166 157 142 123 105 91 85 86 94 108 125 139 148 149 144 134 123 114 109 110 115 123 130 135 135 132 127 121 117 116 119 124 130 137 142 146 147 145 141 134 124 113 102 91 82 75 72 72 76 83 94 107 121 
124 131 134 133 131 128 128 129 134 140 146 151 154 154 151 144 135 124 114 105 99 97 98 103 112 123 135 146 155 160 162 159 153 143 132 120 109 101 96 96 99 106 116 128 140 150 155 156 151 140 126 111 99 93 93 99 111 124 135 143 144 139 131 122 115 111 112 117 123 128 130 129 125 120 116 115 118 124 132 141 148 153 155 154 151 145 137 127 115 103 91 81 74 70 70 73 79 89 101 114 
120 124 125 123 120 118 119 122 129 137 146 152 155 155 151 143 132 120 108 99 93 91 92 98 108 120 133 145 154 159 159 155 147 136 123 111 101 93 89 88 90 95 102 112 123 133 141 145 144 138 129 119 110 104 104 108 116 126 135 140 140 136 129 121 116 113 115 118 122 125 125 123 119 115 114 116 122 131 141 151 158 161 162 160 156 150 142 133 122 110 99 89 81 76 75 77 83 91 101 112 
121 121 119 115 111 108 109 114 122 132 141 149 153 152 148 139 128 116 105 96 90 88 90 96 106 118 131 143 151 155 155 149 140 128 116 104 94 88 84 83 83 86 92 99 108 118 126 133 136 136 132 126 121 117 117 119 125 131 137 139 138 134 127 121 117 115 116 119 122 123 122 119 116 114 115 119 128 139 150 158 164 166 165 162 158 152 146 140 132 123 113 104 96 91 89 90 94 101 109 116 
127 124 118 111 105 102 102 106 114 124 134 142 146 147 143 135 125 115 105 97 92 91 93 98 107 119 131 141 148 151 150 144 134 122 110 99 91 86 83 81 81 83 86 91 98 106 115 123 130 134 134 133 131 130 129 131 134 137 140 140 137 132 126 121 117 116 118 120 122 123 121 118 116 115 118 125 134 145 155 162 165 165 162 158 154 150 148 145 142 138 132 125 118 113 110 110 113 118 123 126 
137 131 122 113 105 99 98 102 108 117 126 133 138 139 136 131 123 115 108 102 99 98 100 105 113 122 132 140 145 147 144 138 128 117 107 98 91 87 85 85 85 86 88 91 95 101 109 117 125 131 136 138 139 140 140 141 142 143 143 141 137 131 125 121 118 117 119 121 123 123 122 120 118 119 123 130 139 149 156 160 161 157 152 147 144 143 144 147 150 151 150 147 142 138 135 134 135 137 139 139 
147 139 129 118 109 102 99 101 105 111 118 124 128 129 129 126 123 119 115 112 111 111 113 116 122 128 135 140 143 142 139 132 123 114 105 99 95 93 93 93 94 95 96 97 99 102 108 114 121 129 135 140 143 145 147 148 148 147 145 142 136 130 124 120 118 118 120 122 124 125 124 123 122 123 127 134 142 149 153 153 149 143 135 130 127 129 135 144 153 160 164 164 162 159 156 154 153 153 153 151 
153 146 137 126 117 109 105 104 105 108 111 115 118 120 122 123 123 124 124 125 126 126 128 130 132 135 138 140 140 137 133 126 119 111 105 102 101 102 104 107 110 111 111 110 109 109 111 114 119 126 132 138 143 147 149 151 151 149 146 141 135 129 123 119 117 118 120 123 126 127 127 126 126 127 130 135 141 144 144 140 133 123 114 109 107 112 123 137 151 163 171 174 174 172 169 166 164 162 161 158 
155 150 143 135 127 120 114 110 108 107 107 108 110 113 116 120 125 130 134 138 141 142 142 142 142 142 141 139 136 132 127 120 114 109 106 106 108 113 119 124 128 130 129 127 123 119 116 116 118 122 127 133 139 144 147 149 150 148 145 139 133 127 121 118 117 118 121 124 127 129 129 128 128 129 131 134 136 136 132 125 114 103 94 89 89 96 109 126 145 161 172 177 178 176 172 168 165 162 160 158 
151 150 147 143 137 132 125 120 114 110 106 104 105 107 112 119 127 136 144 149 153 154 154 152 149 145 141 137 132 127 121 115 110 107 107 110 116 124 133 141 147 149 148 144 137 129 122 118 116 117 121 126 132 138 142 145 145 144 141 136 130 125 120 118 117 119 122 126 129 130 130 129 128 128 129 129 129 126 119 110 98 88 79 75 76 83 97 116 137 155 167 173 174 170 165 160 155 153 151 151 
141 145 147 148 146 142 137 130 122 114 107 103 102 104 110 119 130 141 150 157 161 161 160 156 151 145 139 133 127 121 116 111 107 106 108 114 123 134 145 155 162 164 163 157 148 138 127 119 114 112 115 119 125 130 135 138 139 138 135 131 127 123 120 119 120 122 125 129 131 132 131 129 127 125 124 123 121 116 109 99 88 78 71 68 69 76 90 109 129 147 159 164 163 158 151 143 138 135 136 138 
129 137 145 150 152 151 146 139 129 119 110 104 101 103 110 120 132 144 154 160 163 163 160 155 149 142 135 129 123 117 113 109 107 107 111 118 129 141 154 164 170 173 171 165 155 142 129 119 112 109 109 113 118 123 127 130 131 130 128 126 123 121 121 121 124 127 130 133 134 133 131 127 124 121 119 117 115 110 103 94 85 76 70 68 70 77 89 106 124 140 149 152 148 140 131 123 117 115 116 122 
117 129 141 150 155 157 153 146 136 125 114 106 103 105 111 121 133 145 154 159 161 159 155 149 142 136 130 125 120 116 113 110 109 110 114 122 133 145 157 167 173 175 173 166 155 142 129 118 110 107 107 110 114 118 120 122 122 121 120 119 119 120 123 126 130 134 137 138 137 135 130 125 120 116 114 113 111 108 103 97 89 82 78 76 78 84 95 109 123 134 140 139 132 122 112 103 97 96 99 106 
108 122 136 148 156 159 157 151 141 129 118 110 106 108 113 123 134 143 150 154 154 150 145 139 133 128 125 122 120 118 116 115 114 116 120 127 136 147 158 166 171 171 168 161 150 138 126 117 111 109 110 112 115 116 117 116 114 112 112 112 115 119 125 132 138 142 145 145 142 136 129 122 116 112 111 111 111 111 109 106 101 96 92 91 93 98 106 116 126 132 133 128 119 108 97 88 84 83 87 96 
103 118 133 146 155 159 158 153 144 133 122 114 110 111 116 124 133 140 144 145 143 139 133 128 124 122 121 122 123 124 124 123 123 124 126 131 139 147 154 160 163 163 158 151 141 131 122 116 114 114 117 119 120 119 116 112 108 104 104 106 111 119 128 138 146 151 153 151 145 138 128 120 113 109 109 111 115 118 120 120 118 115 113 112 113 116 122 127 132 133 129 121 111 99 89 82 78 78 83 91 
104 117 131 143 152 156 156 152 144 135 125 118 114 115 118 124 130 134 136 135 131 126 121 117 116 117 121 125 129 132 134 134 133 133 134 136 140 145 149 152 152 150 144 137 129 123 118 118 120 124 128 131 130 126 119 111 103 98 97 100 107 118 131 143 153 158 159 156 149 138 127 118 111 108 110 114 121 127 133 136 136 136 134 133 134 135 137 139 138 135 128 118 107 96 88 82 80 81 85 93 
109 119 130 140 147 152 152 149 143 135 127 121 118 117 119 123 126 128 127 124 120 115 111 110 112 116 123 130 137 141 144 144 143 141 140 140 140 141 142 142 139 135 129 122 117 114 115 120 128 136 142 145 143 136 125 112 101 93 91 95 104 117 133 148 158 164 164 159 150 139 126 116 110 108 112 119 128 137 144 149 152 152 151 150 150 149 148 146 143 137 128 118 108 99 92 88 87 89 93 100 
115 122 129 136 141 144 145 143 139 134 128 123 120 119 119 121 121 121 119 115 110 107 105 106 111 118 127 136 144 149 152 151 149 146 143 140 139 137 135 131 126 120 113 108 106 107 113 124 136 148 156 159 156 147 132 115 100 90 87 91 101 116 134 150 161 167 166 160 150 137 125 115 110 110 115 124 134 144 152 158 160 161 160 159 157 155 153 149 144 137 128 119 111 105 101 99 100 102 105 110 
122 125 127 130 133 136 137 136 134 131 127 123 120 119 118 118 117 115 112 108 105 103 103 107 114 123 133 143 150 154 155 154 151 146 142 138 135 132 127 122 115 108 102 98 97 102 112 127 143 158 168 171 167 156 139 119 101 89 85 88 99 115 133 150 161 166 165 158 147 135 123 115 111 113 119 129 139 148 155 159 161 161 160 158 156 153 150 146 141 134 127 121 116 113 112 112 114 117 119 121 
128 126 124 123 124 126 127 129 129 128 126 123 121 118 117 115 113 110 108 105 103 103 106 111 120 129 139 147 153 155 154 151 146 141 136 133 129 126 122 116 109 101 95 91 92 98 111 129 148 164 175 178 174 162 143 122 102 89 84 88 98 114 132 148 159 163 161 153 143 131 121 115 114 117 124 133 142 149 153 155 155 153 151 149 147 145 143 140 135 131 126 122 120 120 122 126 129 131 131 130 
131 124 119 116 115 116 118 121 124 125 125 123 121 119 116 113 111 108 106 105 105 107 111 118 127 136 144 150 152 152 148 142 136 131 127 124 123 121 118 113 107 99 92 88 89 96 110 128 149 166 177 180 176 164 146 124 105 91 86 90 100 115 132 146 154 157 154 146 136 126 119 116 117 122 129 137 143 147 147 146 143 139 137 135 134 133 133 131 129 127 125 124 125 127 132 137 140 142 141 137 
131 122 114 108 107 108 111 116 120 123 125 124 123 120 117 114 111 109 108 108 110 113 119 126 134 142 147 150 149 145 138 130 123 118 115 115 116 118 118 115 109 102 95 90 89 95 107 125 145 162 174 177 174 162 145 125 107 95 91 94 104 118 132 143 149 149 145 137 129 122 118 118 121 127 134 140 143 142 139 134 129 124 121 119 120 122 124 125 125 125 125 126 129 133 139 144 148 149 146 140 
130 118 109 103 100 102 107 113 119 124 127 127 126 123 120 117 114 113 113 114 116 121 127 133 140 146 148 148 143 135 126 116 109 104 104 106 112 117 121 121 117 109 101 94 92 95 105 120 138 154 165 170 166 156 141 124 109 100 98 102 111 122 133 140 143 140 135 128 121 118 117 121 127 133 139 142 141 137 130 122 115 110 107 107 110 114 119 122 125 126 127 129 133 138 144 149 152 152 148 140 
128 115 105 99 97 100 106 113 121 127 131 132 131 128 125 122 120 119 119 121 124 128 133 139 144 147 147 144 137 127 115 105 97 94 95 101 109 119 126 129 127 120 111 101 96 96 102 113 128 143 153 157 155 146 134 121 111 106 107 112 121 130 136 139 137 132 125 119 115 115 118 124 132 139 143 144 140 133 123 113 105 100 99 101 106 112 119 124 128 130 131 133 136 141 147 152 154 153 148 139 
126 114 104 98 97 101 108 117 126 133 137 138 137 135 131 129 127 126 126 127 130 133 137 142 145 147 145 140 131 120 107 97 90 87 90 98 110 123 134 140 139 133 122 111 102 98 100 107 118 129 138 141 140 134 125 118 113 113 117 124 132 138 140 138 132 125 117 112 110 113 120 129 137 144 147 145 139 129 118 107 100 96 96 101 107 116 123 129 133 135 136 137 139 143 148 152 154 153 147 138 
126 114 105 100 100 105 113 123 132 139 143 145 143 141 138 135 133 132 132 132 134 136 138 141 143 144 142 137 128 117 104 94 87 86 90 99 113 129 142 150 151 144 133 120 109 101 99 103 110 117 123 126 124 120 116 113 114 119 127 136 143 146 145 138 129 119 111 107 107 113 122 133 142 148 149 145 137 126 115 105 99 97 99 105 113 122 130 135 138 139 139 139 140 144 148 151 153 152 146 137 
126 115 107 104 105 111 119 130 139 146 149 150 148 145 142 139 137 136 135 135 135 135 136 138 140 141 139 135 128 117 106 96 90 88 93 103 118 135 149 158 159 154 143 129 116 106 101 102 105 109 113 113 112 109 108 109 115 124 135 145 152 153 148 138 126 114 106 103 106 114 125 136 145 150 149 144 135 124 114 106 101 101 105 111 120 128 135 139 140 140 139 138 139 142 146 150 152 151 146 137 
126 117 110 107 110 117 126 136 145 151 154 153 151 147 144 141 138 136 135 134 132 132 132 133 135 137 137 135 130 122 112 102 96 94 98 108 123 139 153 162 164 159 149 135 122 112 106 104 105 107 108 107 104 102 102 106 115 127 141 151 157 156 149 137 123 110 103 101 106 115 127 138 146 150 148 142 133 123 114 108 105 107 111 118 126 132 137 139 138 136 134 133 135 138 143 147 150 149 144 136 
126 117 111 110 113 121 131 141 149 154 155 154 150 145 141 138 135 133 132 130 128 127 126 128 130 134 136 137 134 128 120 111 105 102 105 113 126 141 154 162 164 160 151 139 127 118 113 111 111 111 110 107 103 100 100 105 115 129 143 154 159 157 148 134 119 107 100 100 105 116 128 139 146 148 145 138 130 121 115 111 110 113 117 123 128 132 134 133 131 128 126 126 128 133 139 144 148 147 143 135 
123 115 110 110 114 123 133 143 151 154 154 151 146 140 135 131 129 127 125 124 122 121 121 123 127 132 137 140 139 136 129 121 113 109 110 117 127 140 151 159 160 157 149 139 130 124 120 120 121 120 117 112 106 102 101 105 115 129 143 154 158 154 144 130 115 103 97 98 105 116 128 138 143 144 140 134 126 120 115 114 115 118 121 125 127 127 126 123 119 116 115 117 121 128 136 142 146 146 141 133 
119 111 106 107 112 121 132 142 150 152 151 146 139 132 126 122 119 118 118 117 116 116 118 121 126 132 139 143 145 142 136 128 120 115 114 118 126 136 145 151 153 150 144 137 131 128 128 130 132 132 129 122 114 107 105 107 116 128 141 150 154 149 139 124 110 100 96 98 105 116 127 135 139 138 134 128 122 118 116 117 119 121 124 124 123 120 116 111 107 105 105 109 116 125 134 141 145 144 138 129 
113 105 100 101 107 117 128 139 146 149 146 140 132 124 117 112 110 110 110 111 112 114 117 121 128 135 141 146 148 146 141 133 124 117 114 116 122 129 137 142 143 141 137 133 130 131 135 140 144 145 141 134 124 115 110 111 117 127 138 146 148 143 133 119 106 98 95 99 106 117 126 132 134 132 128 123 119 117 117 120 122 124 125 123 119 113 107 101 98 97 99 105 115 125 136 143 146 143 135 125 
107 97 93 94 100 110 123 134 142 145 142 135 126 116 109 104 102 102 104 107 110 114 119 125 131 138 145 149 150 148 141 133 124 116 112 113 116 122 128 132 134 132 130 128 128 132 139 147 152 154 151 144 133 123 116 115 119 127 136 142 143 138 128 116 105 98 97 101 109 118 125 129 129 126 122 117 115 116 119 122 126 127 126 122 115 108 101 96 93 94 99 107 118 130 141 147 148 143 133 120 
101 91 86 87 93 104 118 130 139 142 139 132 122 112 104 99 97 98 101 106 111 117 124 130 137 143 147 150 149 145 138 130 120 113 109 109 112 117 122 126 127 126 124 124 126 132 141 150 157 160 157 150 140 129 121 119 122 128 135 140 140 135 126 116 107 102 102 107 114 121 126 128 125 121 116 113 113 116 120 126 129 130 128 122 115 107 100 95 95 98 105 115 127 139 149 153 152 144 131 115 
97 86 81 82 89 100 114 127 137 141 139 132 122 112 103 97 95 97 101 107 114 122 130 137 143 147 149 149 146 140 132 123 115 109 106 106 110 115 119 123 123 123 121 121 124 131 140 149 156 159 158 151 142 132 125 122 124 130 136 140 140 136 128 120 113 110 111 116 122 127 129 127 123 117 112 110 111 116 123 129 133 134 132 126 118 110 104 101 102 107 116 128 140 151 158 160 156 145 130 112 
95 84 79 80 87 99 113 127 138 143 142 136 126 115 106 100 97 98 103 110 119 128 136 143 148 150 149 146 141 133 125 116 109 105 104 106 111 116 121 124 125 124 122 122 124 129 137 145 151 154 152 146 138 130 125 124 127 133 139 143 143 140 134 127 123 121 123 128 132 135 133 129 122 115 110 108 111 117 125 133 138 139 136 131 124 117 113 112 115 121 131 142 153 161 166 165 159 146 129 110 
95 85 81 83 90 102 116 130 141 146 146 141 132 121 112 105 102 103 107 115 125 134 142 148 151 151 148 142 134 125 116 109 104 103 104 109 115 122 127 130 130 128 126 124 125 128 133 139 143 144 142 137 130 125 122 124 129 136 143 147 148 145 141 137 134 134 137 140 143 143 139 132 123 114 109 108 112 120 129 137 142 143 141 136 130 126 123 124 128 136 145 154 163 168 170 167 159 145 128 110 
97 89 86 89 97 108 122 135 145 151 151 146 138 128 119 112 108 109 113 121 130 139 147 152 153 150 144 136 126 117 109 104 102 103 107 114 122 129 135 138 138 135 131 128 126 127 128 131 132 131 128 124 120 117 118 122 130 138 146 151 152 151 148 145 145 146 149 152 153 151 144 135 124 115 110 110 115 123 132 140 145 146 144 141 136 133 132 135 140 147 154 162 167 170 170 165 156 143 126 110 
102 97 96 100 108 119 131 142 150 154 154 150 143 135 126 119 115 115 119 126 135 143 150 153 152 147 139 129 119 110 103 100 101 105 113 121 131 138 144 146 145 142 137 132 129 126 125 123 121 118 115 111 108 108 112 119 129 140 148 154 155 154 153 151 151 154 157 159 159 156 148 138 127 117 113 113 118 127 136 143 147 148 146 142 139 137 138 141 146 152 158 162 165 166 163 158 149 137 124 111 
108 107 109 114 122 131 140 148 153 156 155 152 146 139 132 125 122 122 125 131 138 146 151 152 150 143 134 123 112 104 100 99 103 110 119 130 139 146 151 152 150 146 141 135 130 126 122 118 113 108 103 100 98 100 106 116 128 139 148 154 155 154 152 152 153 156 159 162 161 158 150 139 128 120 116 117 123 131 139 145 148 147 144 140 137 136 137 140 145 149 153 156 156 155 151 145 138 129 120 113 
116 119 124 129 136 142 148 152 154 155 154 151 146 140 134 129 127 127 129 135 141 147 150 150 146 138 128 116 107 100 98 100 106 115 126 137 146 152 155 154 152 147 142 137 131 126 121 115 109 102 96 92 92 95 102 113 126 138 146 150 151 149 147 146 147 151 155 158 158 155 148 139 129 123 120 122 128 135 142 146 146 144 139 134 131 130 131 133 137 140 142 142 141 138 134 129 124 120 116 115 
123 130 137 143 147 151 153 153 153 151 149 146 142 138 134 131 129 130 133 137 143 147 149 148 142 133 122 111 102 97 97 101 109 120 132 142 150 154 155 153 150 145 140 135 131 127 121 115 108 101 94 90 89 93 101 112 124 135 142 144 143 139 135 134 135 139 144 148 150 148 143 136 129 124 124 127 133 139 144 145 143 138 132 126 121 120 120 122 125 127 127 126 123 120 116 113 111 111 113 117 
129 138 146 151 154 155 154 151 148 144 142 139 137 134 132 131 130 131 134 139 143 147 148 145 139 129 117 107 99 95 97 103 112 124 136 146 152 154 153 149 144 139 135 132 129 127 123 118 111 103 97 92 91 95 102 112 123 131 136 136 132 126 121 118 119 123 128 134 137 137 134 130 127 126 127 132 138 143 145 144 139 131 123 116 111 108 109 110 112 113 113 111 108 104 102 100 101 105 111 120 
133 142 150 154 156 154 150 146 141 136 133 131 130 129 129 128 129 131 134 138 142 145 146 143 136 126 115 104 97 94 96 103 113 126 137 146 151 152 148 143 137 131 128 126 126 126 125 122 117 110 103 99 97 99 106 114 123 129 131 128 121 114 107 103 103 106 112 118 122 124 125 124 124 126 130 135 141 145 145 141 134 124 114 106 101 99 99 101 103 104 103 101 98 96 94 94 97 103 111 122 
134 142 148 151 151 148 143 138 132 128 125 124 123 124 124 125 126 128 132 136 141 144 144 141 135 125 114 104 97 94 96 103 113 125 137 145 149 148 143 137 129 124 121 121 123 125 127 127 123 118 112 108 106 107 112 118 125 128 128 122 114 104 96 91 90 93 98 104 109 113 116 118 121 125 131 137 143 145 144 138 129 118 107 99 94 93 94 96 99 100 100 99 97 96 95 96 99 106 114 124 
132 138 142 143 142 139 134 129 125 122 120 119 119 119 120 120 122 124 127 132 137 141 143 141 135 126 116 105 98 94 95 101 111 123 134 142 146 145 139 132 124 118 115 115 119 124 129 131 130 127 122 118 116 116 119 124 128 130 127 120 110 100 91 86 84 86 89 95 100 105 109 114 119 125 132 139 143 144 141 134 123 112 102 95 92 92 94 98 101 104 106 106 105 104 104 105 107 112 118 125 
129 131 132 131 130 127 124 122 119 118 117 117 117 116 116 115 115 117 121 126 132 137 141 142 138 130 120 110 101 96 95 100 108 119 130 138 143 142 137 130 121 115 111 112 116 123 129 134 136 135 131 128 125 125 127 130 133 133 130 123 113 103 94 88 85 85 88 92 96 101 106 112 118 125 133 139 142 142 138 129 119 109 100 95 94 96 100 105 111 115 118 119 119 119 119 119 120 121 124 126 
124 122 120 119 118 117 117 117 117 118 118 118 117 115 112 110 109 109 112 118 125 133 140 143 142 137 128 117 107 100 97 99 105 115 126 135 141 142 138 131 123 115 111 111 115 122 129 136 139 140 138 135 133 132 133 135 137 137 135 129 120 111 103 97 93 92 93 95 98 102 107 112 119 126 133 139 141 139 134 126 116 107 101 99 100 104 111 118 125 130 134 136 137 137 136 135 133 131 129 126 
119 114 110 108 108 109 112 116 119 122 123 123 120 116 111 106 102 101 103 109 118 128 138 145 148 145 138 127 116 106 100 99 103 111 122 132 140 143 141 135 127 119 114 113 115 122 129 136 141 143 142 139 137 136 136 138 140 141 140 137 131 124 118 112 108 106 104 104 105 107 110 115 121 128 134 139 140 137 131 123 115 108 104 105 109 116 124 133 140 146 150 152 152 152 151 148 144 139 133 126 
115 107 102 101 102 106 112 119 125 129 130 129 125 118 110 103 97 94 95 101 111 123 137 147 154 154 149 139 127 115 105 101 102 108 118 130 139 144 145 140 133 125 119 116 117 122 129 136 141 143 143 141 138 136 136 138 141 143 145 145 143 139 135 131 127 123 119 117 115 114 116 119 124 130 136 139 139 136 129 122 115 110 109 113 120 129 138 147 153 158 161 162 162 162 160 156 151 143 134 124 
112 104 100 99 102 108 116 125 132 137 139 137 131 122 112 102 94 89 89 94 105 119 135 149 159 162 160 151 139 125 112 104 102 107 116 127 138 145 148 145 139 131 124 120 120 123 129 135 140 143 142 140 137 134 133 135 138 142 146 149 151 151 150 148 144 140 134 129 125 122 122 124 128 133 138 140 139 135 129 122 116 114 115 121 130 140 149 156 161 164 165 165 165 164 161 158 152 144 133 122 
112 105 101 102 106 114 123 132 140 145 147 145 138 128 117 105 95 88 87 91 100 115 133 150 163 169 168 161 149 134 120 109 104 106 113 124 136 145 149 148 143 136 129 124 123 125 130 135 140 141 140 137 133 129 128 128 132 137 143 149 155 158 160 160 157 152 146 139 133 128 126 128 132 136 140 142 141 136 130 123 119 118 121 128 137 147 155 160 163 163 162 161 159 158 156 153 148 141 131 121 
114 109 108 109 114 122 131 140 147 151 153 151 145 135 123 111 99 91 88 90 98 113 131 149 164 172 174 169 158 143 127 114 106 106 111 121 132 142 147 147 144 138 131 127 125 127 131 136 139 140 138 134 129 124 121 120 123 129 136 144 152 158 163 164 163 158 152 144 137 131 129 130 134 139 143 145 143 138 132 126 121 121 125 132 141 149 155 158 158 156 152 149 146 145 144 143 140 136 129 121 
120 117 117 119 124 130 137 144 150 154 155 154 150 143 132 120 108 98 92 92 98 110 128 146 162 172 175 172 162 148 132 117 108 106 109 118 128 137 142 144 141 136 131 127 126 128 132 136 139 139 136 131 125 118 114 112 114 118 126 134 144 152 158 161 161 158 151 144 136 131 129 131 135 141 145 147 145 141 134 128 124 123 126 133 140 146 150 150 147 142 137 132 129 129 129 131 131 131 128 124 
128 128 128 130 132 136 140 144 148 151 154 155 153 149 142 132 120 109 100 97 99 108 123 140 156 167 172 171 163 150 134 120 110 106 108 114 122 130 135 137 135 131 128 125 125 128 132 136 139 138 135 129 122 115 109 105 105 108 114 122 131 140 147 152 153 150 145 139 133 128 127 130 135 141 146 149 147 143 137 130 126 124 126 130 135 139 140 137 132 125 118 113 111 112 115 120 124 127 129 129 
138 138 139 139 139 139 139 140 141 144 147 151 153 154 150 143 133 121 110 103 101 106 117 131 146 158 165 165 159 148 134 120 111 106 106 111 117 123 127 129 127 125 122 122 123 126 131 135 138 138 134 129 121 113 107 102 100 101 104 110 118 125 132 138 140 139 136 131 127 124 124 128 134 141 146 149 148 144 138 132 127 124 124 126 128 129 127 122 116 108 102 98 97 100 105 113 121 128 133 136 
147 148 147 145 142 138 134 131 130 132 137 143 150 155 156 153 144 133 120 109 103 103 110 121 134 146 153 155 151 142 131 120 111 106 106 109 114 118 120 121 120 118 116 117 119 124 129 133 136 136 134 129 122 115 109 103 100 98 99 102 106 112 118 122 125 126 125 123 120 119 121 125 132 139 145 148 148 145 139 133 127 123 121 121 120 118 114 108 101 95 90 87 88 93 101 111 121 131 139 144 
154 155 153 148 142 134 126 119 116 117 123 132 143 152 158 158 153 142 128 115 105 101 103 111 121 132 139 143 141 135 126 118 111 108 108 110 113 115 116 115 114 112 111 112 116 120 126 130 133 134 133 130 125 120 115 109 105 101 99 98 99 102 106 110 113 115 116 116 115 116 118 123 129 135 141 144 145 143 139 134 128 124 120 117 114 110 104 98 91 86 83 83 86 93 102 114 126 137 145 151 
158 158 155 148 139 128 116 107 102 103 109 120 133 147 156 160 157 147 134 119 107 99 98 102 110 119 126 130 130 127 122 116 112 111 111 113 114 115 115 113 111 109 108 109 112 117 122 127 130 132 133 132 130 127 124 119 115 109 105 101 99 98 100 103 106 109 111 112 113 114 116 120 125 130 135 139 141 141 138 135 130 126 121 117 111 105 98 92 87 83 82 84 89 97 108 121 133 143 151 156 
159 158 154 146 135 122 109 98 92 91 96 108 123 138 151 158 157 149 137 122 108 99 96 98 103 110 116 121 122 121 118 116 114 115 116 118 119 119 117 114 111 108 107 108 111 115 119 123 127 130 132 134 135 135 134 132 128 122 115 109 104 101 100 101 104 107 110 112 114 114 115 117 120 123 127 131 135 137 137 137 134 131 126 120 113 105 98 91 87 85 86 89 96 106 117 128 139 148 154 158 
156 154 150 143 132 118 104 93 85 84 88 98 113 130 144 153 154 149 138 124 111 102 97 97 101 106 111 115 117 118 117 117 118 120 122 125 126 125 122 119 114 111 109 109 111 114 117 121 125 128 132 136 139 143 144 144 141 136 129 121 113 108 106 106 108 112 115 117 117 116 115 114 114 115 118 123 127 132 136 139 140 138 134 128 120 111 102 96 92 91 93 99 107 116 126 135 143 149 153 155 
148 148 145 139 130 117 104 92 84 82 84 93 107 122 137 147 150 147 139 127 116 107 102 101 104 107 111 115 117 118 119 120 122 126 129 132 133 132 129 124 120 116 113 113 113 115 118 121 124 128 132 137 143 148 152 153 152 148 141 133 125 119 116 115 117 120 123 124 123 120 116 112 108 107 109 113 120 127 135 142 146 147 144 138 130 120 111 104 101 101 104 110 118 126 133 139 143 145 147 148 
137 139 139 136 130 120 108 97 89 85 86 92 104 118 132 142 147 146 140 131 122 115 110 109 110 113 115 118 119 120 122 124 127 131 135 138 139 138 135 130 125 121 118 117 118 119 121 123 126 129 133 138 144 150 154 157 157 154 149 142 135 130 127 127 129 131 134 134 131 125 117 109 103 100 100 104 112 122 134 144 152 155 154 149 141 132 123 116 112 113 116 122 128 134 138 139 139 137 136 136 
125 129 132 134 132 125 116 106 97 92 91 96 105 118 130 140 146 146 143 136 129 123 119 118 118 119 121 122 123 124 126 129 132 136 140 143 143 142 138 134 129 125 123 122 122 124 126 128 130 132 135 139 143 148 152 155 155 154 150 146 141 138 137 138 141 143 145 143 139 130 119 108 99 93 92 96 105 117 132 146 156 162 163 159 152 143 134 128 125 125 128 133 137 139 139 135 131 126 123 123 
113 119 127 133 135 132 125 116 108 102 100 103 111 121 132 141 147 148 146 142 136 131 128 126 125 125 126 126 127 128 130 133 136 140 143 145 145 143 139 134 130 127 125 125 126 129 131 133 135 136 138 139 141 143 145 146 147 146 145 143 142 142 144 147 151 154 155 152 146 135 121 107 96 89 86 90 99 112 129 145 158 165 168 165 159 151 143 138 135 136 138 141 143 142 137 129 121 114 109 109 
103 112 123 132 138 139 134 127 119 113 110 112 118 127 137 145 150 152 150 147 142 137 133 130 128 127 127 128 129 130 133 136 139 142 144 145 144 141 136 132 127 125 124 126 129 133 137 140 141 142 141 139 137 135 134 133 133 133 133 135 137 142 147 153 158 161 162 159 151 139 124 108 95 86 83 85 94 108 125 142 156 165 168 167 161 155 148 143 142 143 145 147 146 142 134 123 112 103 98 98 
97 108 121 133 141 143 141 135 128 122 119 120 126 134 142 149 154 155 154 150 144 138 133 129 126 125 125 126 128 130 134 138 141 143 144 143 141 136 131 126 122 120 121 124 129 135 141 145 147 147 144 139 133 127 122 118 116 116 118 123 129 137 146 154 161 166 166 163 155 142 126 110 95 86 81 83 91 104 120 137 151 160 163 162 158 152 147 144 143 145 148 150 148 142 132 119 106 96 91 91 
96 108 121 134 142 146 144 138 132 126 124 125 131 139 147 153 157 158 155 150 143 136 129 123 119 118 118 120 124 129 134 138 142 144 144 141 137 131 125 119 115 114 115 119 126 134 142 148 151 151 147 140 130 120 111 104 100 100 103 110 119 131 142 153 161 166 167 164 157 145 129 112 98 88 83 84 90 101 115 130 142 150 154 153 149 144 140 139 141 144 148 150 148 142 131 117 104 93 88 89 
100 111 124 135 143 145 143 137 130 125 124 126 132 140 148 155 158 158 155 148 139 130 121 114 110 108 110 113 119 126 133 138 142 144 143 139 133 126 119 113 109 107 109 114 122 131 141 148 153 153 149 141 129 116 104 95 90 89 93 100 111 123 137 148 157 163 165 162 156 145 131 117 103 93 88 88 92 100 111 122 132 138 140 138 135 131 129 130 134 140 146 149 148 143 132 119 106 96 91 93 
107 117 128 137 143 143 138 132 125 120 119 122 129 138 147 154 157 157 152 144 134 123 113 105 100 99 102 107 114 123 131 138 142 143 141 137 130 123 115 109 105 103 104 109 117 127 137 146 152 153 150 142 130 116 102 92 86 84 87 94 105 117 130 142 151 156 158 157 152 144 134 122 111 103 97 95 97 102 109 116 121 124 124 122 119 116 116 119 126 134 142 148 148 144 135 124 112 103 99 101 
118 127 135 141 143 140 133 124 116 111 111 115 123 133 143 150 154 154 149 140 128 116 106 98 93 93 96 102 111 121 130 137 141 142 140 135 129 121 115 109 104 102 103 106 113 121 131 140 147 150 149 143 132 119 106 95 89 86 88 94 103 113 124 134 141 146 148 148 146 142 136 129 121 115 110 107 107 108 110 112 113 112 110 107 104 102 104 109 118 128 138 146 149 146 140 130 121 114 111 112 
