P2
100 100
255
131 135 138 139 137 132 126 119 113 110 110 114 120 128 135 140 143 143 140 134 127 119 112 106 103 103 105 110 116 122 128 133 135 135 134 131 127 124 120 117 115 114 113 114 116 120 125 131 136 139 140 138 133 126 118 111 106 104 105 108 113 118 123 126 129 131 133 134 134 135 135 133 131 129 126 124 121 120 118 116 115 112 109 107 105 105 107 111 117 125 132 138 141 141 138 134 130 127 126 128 
138 141 143 142 138 132 124 115 109 106 106 109 115 123 130 136 140 140 138 133 127 120 113 109 106 106 108 112 118 123 128 131 133 133 131 129 127 125 123 122 121 119 118 117 116 118 121 125 130 134 136 137 134 130 125 120 116 113 113 114 116 118 120 121 121 122 123 126 129 132 135 138 139 139 137 134 131 127 123 119 114 110 106 103 101 101 104 109 115 123 131 136 140 141 140 137 134 133 133 135 
144 146 147 145 140 132 123 114 107 103 103 106 112 119 127 133 137 139 138 134 129 123 118 114 112 112 114 117 121 125 128 129 129 128 127 126 126 126 127 128 129 128 125 122 119 117 117 119 123 127 131 134 135 134 132 129 126 124 122 121 120 119 117 115 114 114 115 118 124 130 137 142 146 147 147 144 140 134 128 122 116 110 106 103 101 102 105 110 116 123 130 135 138 139 139 138 136 136 138 140 
147 150 150 148 142 134 124 115 107 103 102 105 110 118 125 132 136 139 138 136 133 129 125 123 121 121 122 124 126 128 128 127 125 123 121 121 123 127 131 135 137 137 135 130 124 119 115 114 116 119 124 130 134 137 138 138 136 134 131 128 124 120 115 111 108 107 109 113 120 129 138 146 151 154 154 152 147 141 133 126 119 113 108 106 105 106 109 114 119 125 130 134 136 136 136 135 135 136 139 143 
147 151 152 150 144 136 126 117 109 105 104 106 111 118 125 132 136 139 140 139 137 135 133 131 131 131 131 132 132 130 128 124 120 116 114 115 119 125 133 140 145 146 144 138 130 122 115 110 109 112 118 125 132 138 142 144 143 141 137 132 126 120 113 108 104 103 105 110 119 129 139 148 155 158 158 156 151 144 137 129 122 116 113 111 111 113 116 120 125 128 131 132 132 131 130 130 131 133 137 142 
146 150 151 150 145 137 128 120 113 108 108 110 114 121 127 133 137 140 141 141 141 140 139 139 139 139 139 139 137 133 128 121 115 110 108 109 114 123 133 143 150 154 152 146 137 126 115 108 105 107 112 120 129 137 143 147 147 145 141 134 127 119 112 106 103 102 105 111 120 130 140 149 155 158 159 156 151 145 137 130 124 120 118 118 119 122 125 129 131 132 131 130 127 124 122 122 124 128 133 140 
142 147 149 148 144 137 129 122 116 113 112 115 119 125 130 135 138 140 141 141 141 141 142 143 144 145 145 144 141 136 128 120 112 105 102 103 109 119 131 144 153 158 158 152 142 130 117 108 103 104 108 117 127 136 143 147 148 145 140 133 125 118 111 106 104 104 108 114 122 132 141 148 153 155 155 152 148 142 136 130 126 123 123 125 128 132 135 137 137 135 132 127 121 117 114 113 116 121 128 135 
138 144 146 145 141 135 129 123 118 117 117 120 124 129 133 136 138 139 139 138 138 139 140 143 145 147 148 147 144 138 130 120 110 103 99 99 105 115 129 142 153 159 160 155 146 133 120 110 104 103 107 115 125 135 142 146 146 143 137 130 123 116 111 108 108 110 114 119 126 134 140 145 148 149 148 145 141 136 132 128 126 126 128 131 136 140 143 144 143 138 132 124 116 109 106 105 108 114 122 130 
134 140 142 141 137 132 127 122 120 120 122 125 129 133 135 137 136 135 134 132 132 133 135 138 142 146 148 148 146 140 132 121 111 103 98 98 103 112 125 139 151 158 160 157 148 136 124 113 107 105 109 116 125 134 140 143 142 139 133 126 120 115 112 112 114 117 121 126 131 135 138 140 141 140 139 136 133 130 127 125 125 127 131 136 142 147 150 150 147 140 131 121 111 103 99 99 103 109 118 127 
132 136 137 136 132 127 123 121 120 122 125 129 133 136 136 135 133 129 126 123 122 123 126 131 136 141 145 147 146 141 134 124 115 106 101 99 103 111 123 135 147 155 158 155 149 138 127 117 111 110 113 119 127 134 139 140 138 133 127 121 116 114 114 117 121 126 130 134 136 137 136 135 133 130 128 126 125 123 123 123 125 128 133 139 145 151 154 153 149 141 130 118 108 100 96 96 100 107 116 125 
131 134 134 131 126 122 119 118 120 123 128 132 136 137 136 132 127 122 117 114 112 114 117 122 129 135 141 144 144 142 136 128 120 112 106 104 106 112 121 132 142 150 153 152 147 139 130 122 117 116 119 124 130 135 138 137 134 128 122 116 113 113 117 122 128 134 139 141 140 138 134 129 125 122 120 119 118 119 120 121 124 128 134 140 147 152 155 154 150 141 130 117 106 98 95 95 100 108 117 125 
132 133 131 127 122 118 115 116 119 124 130 135 137 137 134 128 121 114 108 105 104 105 109 115 122 129 136 140 142 141 138 133 126 120 114 112 112 115 122 130 138 144 148 148 145 139 133 127 123 122 125 129 133 137 137 135 130 123 117 112 111 113 119 127 135 142 146 146 144 138 132 125 119 115 114 114 115 117 119 121 124 128 133 139 145 151 154 153 149 141 130 117 107 99 97 98 104 111 120 128 
135 134 130 124 118 114 113 115 119 126 132 137 138 137 132 124 116 108 102 99 98 100 105 111 118 125 131 136 139 140 139 136 133 128 124 121 119 120 123 128 133 138 141 142 141 137 133 130 128 128 130 133 136 137 136 132 126 119 113 109 109 114 121 131 140 147 151 150 146 139 130 122 116 113 112 113 116 119 121 123 124 127 131 136 142 147 150 151 147 140 130 119 109 103 101 103 109 117 125 132 
138 135 130 123 117 113 112 115 120 127 134 138 139 136 130 121 112 104 98 96 96 100 104 111 117 123 128 132 135 137 139 139 138 136 133 130 128 126 126 127 129 131 134 135 135 135 133 132 131 132 133 135 137 137 135 130 123 116 110 107 108 114 122 132 142 150 153 152 147 139 130 122 116 114 114 116 120 122 124 125 125 125 127 131 136 141 145 146 144 138 130 121 113 108 107 110 116 124 132 137 
140 137 130 122 116 112 112 116 123 130 137 140 140 136 128 119 110 102 98 97 99 103 109 114 119 123 126 128 131 134 136 139 141 142 141 139 136 132 128 126 125 125 126 128 130 131 131 132 132 133 134 136 136 135 132 127 121 114 109 107 108 114 122 132 142 149 153 152 147 139 131 123 119 117 119 122 125 127 128 126 124 123 123 125 129 134 138 141 140 136 130 123 116 113 113 117 123 131 137 141 
142 137 130 122 116 113 114 118 125 133 139 142 141 136 128 119 110 104 101 102 106 111 116 121 124 125 125 125 126 129 133 138 142 146 147 145 142 136 130 124 120 118 119 121 124 126 129 131 132 133 134 134 134 133 130 125 120 115 110 108 109 114 121 130 139 146 149 148 144 138 131 125 122 122 125 128 131 132 131 127 123 119 117 118 122 127 132 135 136 134 130 124 120 117 118 123 129 135 141 143 
142 137 129 122 116 114 115 120 127 135 141 144 142 137 129 120 112 108 107 110 115 121 126 129 129 127 124 121 121 123 127 134 141 147 150 149 145 138 129 121 115 112 112 114 118 122 126 129 131 132 132 131 131 129 127 124 121 117 113 111 111 114 120 127 134 140 143 143 140 135 131 127 126 127 130 134 135 135 132 127 121 115 112 112 115 120 126 130 132 132 129 126 122 121 122 127 132 138 142 144 
140 135 128 121 116 114 116 121 129 136 142 144 142 137 130 122 116 114 115 119 125 131 135 136 133 128 122 117 115 116 121 130 139 146 151 151 146 138 127 117 110 106 106 109 114 120 125 128 130 130 129 128 127 126 126 125 123 121 118 116 115 116 119 123 128 132 134 135 134 131 129 128 129 131 135 137 138 136 132 125 118 111 108 107 110 115 121 127 130 131 129 127 124 124 125 129 134 139 142 143 
137 132 126 119 115 114 116 121 128 135 140 143 142 137 131 125 121 120 122 128 134 139 142 141 136 128 119 112 108 110 115 125 135 144 150 150 145 135 124 113 105 101 101 105 111 118 124 128 129 129 127 125 124 124 125 126 127 127 125 123 121 119 119 119 121 123 125 126 126 126 127 128 131 134 137 139 139 136 130 122 115 108 105 105 108 113 119 125 129 130 130 128 126 126 127 130 134 138 140 140 
135 130 124 118 113 112 114 119 125 132 137 140 139 136 132 128 125 126 129 135 141 145 146 143 136 125 115 107 103 104 110 120 132 142 147 148 142 132 120 109 101 98 99 104 111 120 126 130 130 128 125 122 121 122 124 128 132 134 134 132 128 124 120 117 115 115 115 117 119 121 124 128 131 135 138 139 137 133 127 119 112 106 104 104 108 113 120 126 130 132 131 130 128 128 129 131 134 137 139 138 
134 129 122 117 112 110 112 115 121 127 132 135 136 134 132 130 129 131 135 140 145 148 147 142 133 122 111 102 98 100 107 118 129 139 145 145 139 129 117 106 99 96 99 105 114 123 130 133 133 129 124 120 118 120 124 130 136 141 143 141 136 130 122 115 110 108 108 109 113 117 122 127 132 135 138 138 135 130 124 117 110 106 104 106 110 116 123 128 132 134 134 133 131 130 131 132 135 137 138 137 
134 129 123 117 112 110 109 112 116 121 126 129 131 132 131 131 132 134 138 143 146 148 145 139 129 118 107 99 96 99 106 117 128 138 143 143 136 126 114 104 98 97 101 109 119 129 136 138 136 131 124 118 115 117 123 131 140 147 150 149 144 136 125 115 108 103 102 104 109 114 121 127 132 136 137 136 133 128 121 115 109 106 106 109 114 120 127 132 136 137 137 136 134 133 133 135 136 138 139 137 
137 132 126 120 114 111 109 109 112 116 120 124 127 129 130 131 133 136 140 144 146 146 142 135 126 115 105 99 97 100 108 118 129 138 142 141 134 124 114 105 100 101 106 116 127 137 143 144 141 133 124 116 112 113 120 130 141 150 156 156 151 141 129 117 107 101 100 102 107 114 122 129 134 137 137 135 131 125 119 114 110 108 109 113 118 124 131 136 139 140 140 138 137 136 136 137 138 140 141 140 
141 137 131 125 119 114 110 109 110 113 116 120 124 127 129 132 134 138 141 143 144 143 139 132 123 114 106 101 101 105 112 122 132 139 142 140 134 124 114 107 104 106 113 124 135 145 150 150 145 135 124 114 109 109 116 127 140 151 158 159 155 145 132 119 108 101 99 102 108 116 124 132 136 138 137 134 129 124 118 114 111 111 113 117 122 128 134 138 140 141 140 139 137 136 137 138 140 141 143 143 
144 142 137 131 125 119 114 111 111 112 115 118 122 126 129 132 135 138 140 142 142 140 136 130 122 115 109 107 107 112 119 128 136 141 143 140 133 125 116 111 109 113 121 132 144 153 157 155 148 137 123 112 105 104 110 122 136 149 158 160 157 148 135 121 110 103 101 104 111 119 128 135 139 140 138 133 128 122 118 114 113 113 116 120 125 130 135 138 140 140 138 137 135 134 134 136 138 141 144 145 
146 145 142 137 131 125 120 116 114 114 116 119 123 127 130 133 136 138 139 140 139 137 133 128 123 118 115 114 116 121 128 135 140 144 143 140 133 125 119 115 115 120 129 140 151 158 162 159 151 138 123 110 101 100 105 116 131 145 155 159 156 148 136 123 111 105 104 107 114 123 132 138 141 140 137 132 127 122 118 115 115 116 119 123 127 131 134 136 137 135 133 131 129 128 128 130 134 138 142 145 
146 147 146 142 137 131 126 122 119 119 121 123 126 130 133 135 136 137 137 136 135 133 130 127 124 122 121 123 126 131 136 141 144 145 143 138 132 125 120 118 119 125 134 145 155 162 164 161 152 139 123 109 99 96 100 111 125 139 150 155 154 147 136 123 113 107 107 111 118 127 134 139 141 139 135 130 125 121 118 117 118 120 123 126 129 131 133 133 131 129 125 122 119 118 119 121 126 132 138 143 
143 146 146 144 140 135 131 127 125 125 126 129 131 134 135 136 136 135 134 132 130 128 126 125 124 125 127 131 135 139 143 146 146 145 141 136 130 124 120 119 121 127 136 146 155 161 163 160 152 139 123 109 99 95 98 107 120 133 145 150 150 144 135 124 115 110 110 114 121 129 135 139 139 136 132 127 123 120 119 120 122 125 127 129 131 131 131 129 125 121 116 112 108 107 107 110 115 123 130 137 
137 142 143 142 140 136 133 131 130 131 132 134 137 138 138 137 135 133 129 126 123 121 121 121 124 127 132 137 141 145 148 148 147 143 138 132 126 120 117 117 120 125 134 143 151 157 160 157 150 138 124 110 101 96 98 105 116 129 139 145 146 141 133 123 116 112 112 117 123 130 134 136 135 132 128 124 121 121 122 124 127 130 132 134 134 132 130 126 121 115 109 103 99 96 96 99 105 113 122 130 
131 135 138 138 136 134 132 132 132 134 137 139 141 142 141 138 134 129 124 120 116 115 115 117 121 127 133 140 145 148 150 148 145 140 133 127 120 115 113 112 115 120 128 136 144 150 153 152 147 137 125 114 105 100 101 106 116 126 135 141 141 138 131 123 117 114 115 118 124 129 132 132 130 127 123 121 120 122 126 130 134 137 139 139 137 135 130 125 119 111 104 97 92 89 89 91 97 105 114 123 
125 129 131 131 130 128 128 129 132 135 139 142 144 144 142 138 132 126 119 114 110 108 109 112 118 125 133 140 146 149 149 147 142 135 128 120 114 110 107 107 109 113 119 126 134 140 144 145 142 136 127 118 110 106 106 110 117 126 133 138 138 135 129 123 118 116 116 120 124 127 129 128 125 122 119 119 121 125 131 136 141 144 145 144 142 138 133 127 120 112 104 96 91 87 86 88 93 101 110 118 
122 125 125 124 122 121 122 124 129 134 139 143 145 144 142 137 130 122 115 109 105 104 105 109 115 123 131 139 145 147 147 144 138 130 122 115 109 104 102 101 102 105 110 116 122 129 134 137 137 135 129 123 117 114 113 116 121 127 133 136 136 133 128 123 119 117 118 121 124 126 126 124 121 118 117 119 123 129 136 143 148 150 150 149 146 142 137 131 124 117 109 101 95 91 90 91 96 102 110 117 
123 123 122 119 116 114 115 119 124 130 136 141 143 143 140 135 128 120 113 107 103 102 103 107 113 121 130 137 142 145 144 140 134 126 118 110 104 100 98 97 97 99 102 107 113 119 125 129 132 133 131 128 125 122 122 123 126 130 134 135 135 132 127 123 120 119 120 122 124 124 124 122 119 117 117 121 127 134 142 148 152 154 153 151 147 144 140 136 131 125 119 112 106 101 99 101 104 110 115 120 
128 125 121 116 112 110 110 113 119 125 132 137 139 139 137 132 126 119 113 108 104 103 105 108 114 121 129 136 140 142 141 137 130 123 115 108 102 98 96 95 95 96 98 102 106 112 118 123 128 131 133 132 131 130 129 130 132 134 135 136 134 131 127 123 121 120 121 123 124 124 123 121 119 118 120 124 131 139 146 151 154 154 152 148 145 143 141 140 138 135 131 126 121 116 114 115 117 121 125 128 
134 130 124 117 111 108 108 110 115 121 126 131 134 134 132 129 124 120 115 111 109 109 110 113 118 124 130 135 138 139 138 133 127 120 113 107 102 99 98 97 97 98 99 101 104 109 114 120 125 130 133 135 136 136 135 136 136 137 137 136 134 130 127 123 122 121 122 124 125 125 124 122 120 120 123 128 134 141 147 151 151 149 145 141 139 138 139 141 143 144 143 140 137 133 131 131 132 134 136 137 
141 136 128 121 114 110 108 109 113 117 122 125 128 128 128 126 124 122 119 118 117 117 118 121 124 128 132 135 137 137 135 130 125 119 113 108 105 103 103 103 104 104 105 106 107 110 113 118 123 128 133 136 138 139 139 139 140 139 138 136 133 130 126 123 122 122 123 124 126 126 125 124 123 123 126 130 136 141 145 146 143 139 134 129 128 129 133 139 146 150 153 153 151 148 146 145 145 146 146 145 
146 140 134 126 120 115 112 112 113 115 118 120 122 123 123 124 124 125 125 126 127 128 128 130 131 133 134 135 135 134 131 127 123 118 113 111 109 109 111 112 114 115 115 114 114 114 116 119 122 127 131 135 137 139 140 141 141 140 138 136 133 129 125 123 121 122 123 125 127 127 127 126 125 126 128 131 135 138 139 137 132 126 119 115 114 117 125 134 144 153 158 160 159 157 155 153 152 152 151 150 
147 143 138 132 127 122 119 117 116 115 115 116 116 118 119 122 125 128 132 134 137 138 138 138 138 137 136 135 134 131 128 124 120 117 114 113 114 117 120 124 126 128 127 126 124 121 120 120 122 124 128 131 135 137 139 140 140 139 138 135 131 128 124 122 121 122 124 126 127 128 128 127 127 127 128 130 132 133 131 127 119 112 105 100 101 105 115 127 140 151 158 162 162 160 157 155 153 152 151 149 
144 143 140 137 134 130 126 123 120 117 115 113 113 114 116 121 126 132 137 142 144 146 146 144 142 140 137 134 131 128 124 121 118 116 115 116 120 124 130 135 139 141 140 138 133 129 124 122 121 122 124 127 130 133 136 137 138 137 135 133 130 126 123 121 121 122 124 127 128 129 129 128 127 127 127 128 128 126 122 116 108 100 93 89 90 96 106 120 134 147 155 159 159 156 152 149 146 145 144 144 
137 139 140 141 140 137 134 130 125 120 115 112 110 111 115 121 128 135 141 146 149 150 149 147 144 140 136 132 128 124 121 118 116 115 116 119 124 131 138 144 149 151 150 147 141 134 128 122 119 118 120 122 125 129 131 133 134 134 132 130 128 125 123 122 122 123 126 128 130 130 130 128 127 125 124 124 122 120 115 108 100 92 86 84 85 91 101 115 129 141 149 152 151 147 142 137 134 132 133 135 
128 134 138 142 144 143 140 136 129 123 116 112 110 111 115 121 129 137 144 148 151 151 149 146 142 138 133 129 125 122 119 116 115 115 117 121 127 135 143 150 155 158 157 152 146 137 129 122 118 116 116 118 121 124 127 128 129 129 128 127 125 124 123 123 124 126 128 130 131 131 130 127 125 123 121 120 118 115 111 105 98 91 86 84 85 91 101 113 125 136 142 143 140 135 128 123 119 118 120 123 
120 128 136 142 145 146 145 140 133 125 118 113 111 112 116 122 130 137 144 147 149 148 146 142 138 134 130 127 124 121 119 117 116 117 119 123 130 138 146 153 158 159 158 153 146 137 129 121 117 114 115 116 119 121 123 124 124 124 124 123 123 123 124 126 128 130 132 134 134 132 130 126 123 120 118 117 116 114 111 106 101 95 92 90 92 97 105 115 125 132 135 134 130 123 115 110 106 105 108 113 
114 123 133 140 146 148 147 142 136 128 121 115 113 113 117 123 130 137 142 144 144 142 139 135 132 129 127 125 124 122 121 120 120 120 122 126 132 139 146 152 156 157 155 150 143 135 127 120 116 115 116 117 119 120 120 120 119 119 118 119 120 123 126 129 133 136 138 138 137 134 130 125 121 118 116 116 116 116 115 112 109 105 103 102 103 107 113 120 127 130 131 127 121 113 106 100 97 97 100 106 
111 121 130 139 145 147 147 143 137 130 123 118 115 116 119 125 130 135 138 139 137 134 131 128 126 125 124 125 126 126 126 126 125 125 126 129 133 139 144 148 151 151 148 143 137 130 124 120 118 118 120 121 122 122 120 118 115 113 113 115 118 122 128 133 138 142 143 142 140 135 129 124 119 116 115 116 118 120 122 122 121 119 117 117 118 120 124 128 131 131 129 123 116 108 101 96 94 94 97 103 
112 121 129 137 142 145 145 142 137 131 125 120 118 118 121 125 129 132 133 132 129 126 123 121 121 122 124 127 130 132 133 133 132 131 131 132 135 138 141 143 143 142 139 134 129 124 121 121 122 124 127 129 128 126 122 117 112 109 108 110 115 122 130 137 143 147 148 146 142 136 129 122 118 115 116 118 122 126 130 132 133 133 132 132 132 133 134 135 135 132 128 122 114 107 101 97 96 96 100 105 
115 122 128 135 139 142 142 140 136 131 126 122 120 120 122 125 127 128 127 125 122 119 117 116 118 121 126 130 135 138 139 139 138 137 136 135 135 136 136 136 135 132 129 125 121 119 120 122 127 132 136 138 137 132 125 117 110 105 104 106 112 121 131 140 148 151 152 149 143 136 128 121 117 116 117 121 127 132 137 141 143 144 144 143 143 142 141 140 137 133 128 122 115 110 105 103 102 103 106 110 
120 124 128 132 135 137 138 137 134 130 126 123 122 121 122 123 124 124 122 119 116 114 113 114 117 122 128 134 139 143 144 144 143 140 138 136 135 133 132 130 127 123 119 116 114 115 118 125 132 140 146 148 145 139 129 119 109 102 100 103 110 120 132 142 150 154 154 150 143 135 127 121 117 117 120 125 131 137 143 147 149 149 149 148 147 146 144 141 138 133 128 122 118 114 111 111 111 112 114 117 
124 125 127 128 130 132 133 132 131 129 126 124 122 122 122 122 121 120 118 115 113 112 112 115 119 125 132 138 143 146 147 146 144 141 138 135 133 130 128 124 120 115 111 108 108 111 118 127 137 147 154 156 153 145 134 120 109 101 98 101 108 119 132 143 151 154 153 149 141 133 126 120 118 119 123 128 134 140 145 148 149 149 148 147 146 144 142 139 136 131 127 123 120 119 119 119 121 122 123 124 
128 126 124 124 125 126 127 128 128 127 126 124 123 121 120 119 118 117 115 113 112 112 114 117 123 129 136 141 144 146 145 143 140 137 134 132 129 127 124 120 116 111 106 104 104 109 117 128 141 152 159 161 158 150 137 122 110 101 98 100 108 119 131 142 149 152 150 145 138 130 124 120 119 121 126 131 137 141 144 145 144 143 142 140 139 138 137 134 132 129 126 124 123 123 125 127 129 131 131 129 
129 125 121 119 119 120 122 124 125 126 126 124 123 121 120 118 116 115 114 113 113 114 117 122 128 133 138 142 144 143 141 137 133 130 128 126 125 124 122 118 114 109 104 102 102 107 116 128 141 153 160 163 160 151 138 124 111 102 99 101 109 119 131 140 146 148 145 140 134 127 123 121 121 125 129 134 138 140 140 139 136 134 132 131 130 130 130 129 128 126 125 124 125 127 130 134 136 137 136 133 
129 123 117 114 113 115 117 121 123 125 126 125 124 122 120 118 116 115 115 115 116 119 122 127 132 137 140 142 141 138 134 129 124 121 119 119 120 121 121 119 115 111 106 102 102 106 114 125 138 150 158 161 158 150 138 124 113 105 102 105 112 121 130 138 142 142 139 134 129 124 122 122 124 128 133 136 138 137 135 131 127 124 121 121 121 123 124 125 125 125 125 126 128 131 134 138 140 141 139 134 
127 120 114 110 109 111 114 119 123 126 127 127 126 124 121 119 118 117 117 118 120 124 128 132 136 139 141 140 137 132 126 119 115 112 111 113 117 120 122 122 120 115 110 105 103 105 112 121 133 144 152 155 153 146 135 124 114 108 107 110 116 124 131 136 137 136 132 128 124 121 121 124 128 132 136 138 137 134 130 124 119 115 113 113 115 118 121 124 125 126 127 128 130 133 137 141 143 143 140 134 
126 118 112 108 107 109 114 119 124 128 130 130 129 127 124 122 121 121 121 123 125 128 132 136 139 141 140 138 133 126 119 112 106 104 105 109 114 121 125 128 126 122 116 110 106 106 109 117 127 136 143 146 144 139 131 123 116 113 113 117 123 128 133 134 133 130 126 122 119 119 122 126 131 136 139 139 136 132 125 118 112 109 108 109 113 117 122 125 128 129 130 131 133 136 139 142 144 143 140 134 
126 118 111 108 107 110 115 121 126 131 133 134 133 131 129 127 125 125 126 127 129 131 134 137 139 140 139 136 130 122 114 107 101 100 101 107 115 123 130 134 134 130 123 116 110 107 108 113 120 127 133 135 135 131 125 121 118 118 120 125 130 134 135 134 130 125 120 117 116 118 123 128 134 138 140 139 135 129 122 115 109 106 106 109 114 120 125 129 132 133 133 134 135 137 140 143 144 143 140 133 
126 118 112 109 109 112 118 124 130 135 137 138 137 135 133 131 130 129 130 130 131 133 135 137 138 139 137 134 128 121 112 105 100 99 101 107 116 127 135 141 141 138 131 122 114 109 108 110 115 120 124 125 125 122 120 118 119 122 127 133 137 139 138 133 127 121 116 114 114 118 124 131 137 140 141 139 134 127 119 113 109 107 108 112 118 124 129 133 135 136 136 136 136 138 141 143 144 143 139 133 
126 119 114 111 112 116 121 128 134 139 141 142 140 138 136 135 133 132 132 132 132 132 133 134 135 136 135 133 128 122 114 107 102 101 103 110 119 130 140 146 147 144 137 128 119 113 110 110 112 115 117 118 117 115 114 116 119 125 133 139 143 143 140 133 125 118 113 111 114 119 126 133 138 141 141 137 132 125 118 113 110 110 112 117 122 128 133 136 137 137 136 135 136 138 140 142 144 143 139 133 
127 120 116 114 115 119 126 132 138 142 144 144 142 140 138 136 135 133 133 132 131 130 130 131 132 133 134 133 130 125 118 112 107 105 107 113 123 133 143 149 151 148 141 132 123 117 113 112 113 114 115 114 112 111 111 114 119 128 136 144 147 146 141 133 123 115 111 110 113 120 127 134 139 140 139 135 129 123 118 114 113 114 117 121 126 130 134 135 136 135 133 133 133 135 138 141 143 142 139 134 
127 121 117 115 118 122 129 135 141 144 145 144 142 139 136 134 133 132 131 130 128 127 126 127 129 131 133 134 133 129 124 118 113 110 111 117 125 135 144 150 151 149 143 135 127 121 118 117 117 118 117 114 111 109 109 112 119 129 138 146 149 147 141 131 121 113 109 109 114 121 128 134 138 139 136 132 126 121 118 116 116 117 120 124 127 130 131 131 131 129 128 128 129 132 136 139 141 141 138 133 
125 119 116 116 118 124 130 137 142 144 144 142 139 135 132 130 129 128 127 126 125 123 123 124 126 129 133 135 136 134 130 124 119 115 115 119 126 134 142 147 149 147 141 135 129 124 123 123 124 124 122 118 114 110 109 112 119 128 138 145 148 146 139 129 119 111 108 109 114 121 128 134 136 136 133 128 124 120 118 118 118 120 122 124 126 126 126 125 123 122 121 122 125 129 134 138 140 140 137 131 
122 117 113 113 117 123 130 136 141 143 142 138 134 130 127 125 123 123 123 122 121 121 121 122 125 129 134 137 139 138 134 129 123 119 118 120 125 131 138 143 144 142 138 133 129 127 128 130 132 132 130 125 119 114 111 113 119 128 137 144 146 143 136 126 116 109 107 109 114 121 128 133 134 133 129 125 122 119 119 119 121 122 124 124 123 121 119 117 115 114 114 117 121 127 132 137 139 138 135 129 
118 112 109 110 114 120 128 135 139 140 139 134 129 124 120 118 117 117 118 118 119 119 121 123 126 131 135 139 141 140 137 131 125 120 118 119 122 127 133 137 138 137 134 130 129 129 132 136 139 140 138 132 125 119 115 115 120 127 135 141 143 139 132 123 114 108 107 109 115 122 128 131 131 129 126 122 120 119 120 121 123 124 124 123 120 116 113 110 108 108 110 114 120 127 133 138 139 137 133 126 
114 107 104 105 109 116 125 132 137 138 136 131 125 119 115 112 112 112 114 116 118 120 122 125 129 133 137 140 142 140 137 131 125 120 117 117 119 123 128 131 132 131 129 127 127 130 134 140 145 146 144 139 131 124 119 118 121 127 134 139 140 136 129 121 113 108 108 111 117 123 127 129 128 126 122 119 118 119 121 124 126 126 125 122 118 113 109 106 105 106 109 115 122 130 136 140 141 137 131 122 
109 102 99 100 105 112 121 129 135 136 134 129 123 117 112 109 108 109 112 115 119 122 125 129 133 136 139 141 141 139 134 129 123 117 115 114 117 120 124 127 128 127 126 125 126 130 135 142 147 150 148 143 136 128 122 120 123 128 133 137 138 134 128 120 114 111 111 115 120 125 128 128 126 123 119 117 118 120 123 126 128 128 126 123 118 113 108 106 106 108 113 120 128 135 141 144 143 138 129 119 
106 98 95 96 101 109 119 128 134 136 135 130 123 117 111 108 107 108 111 116 121 125 130 134 137 139 141 141 139 135 130 124 119 115 112 113 115 119 123 126 126 126 124 124 125 129 135 141 147 149 148 144 137 130 125 123 125 129 134 137 137 134 129 123 118 116 117 120 125 128 129 128 125 120 117 116 117 121 125 129 131 131 129 125 120 115 112 110 111 115 120 128 136 143 147 149 146 139 129 117 
104 97 93 94 100 108 118 128 135 138 137 132 126 119 113 110 108 109 113 118 123 129 134 138 141 142 141 139 135 131 125 120 115 112 111 113 116 120 124 127 128 127 125 124 125 128 133 138 143 145 144 141 135 129 125 124 127 131 136 139 139 136 132 127 124 123 125 128 131 133 132 129 124 119 116 115 118 122 127 132 134 134 132 128 124 120 117 117 119 124 130 137 144 150 153 153 148 140 128 116 
105 97 94 96 101 110 120 130 137 140 140 136 131 124 118 114 112 112 115 121 127 133 138 142 143 143 140 136 131 125 119 115 112 110 112 115 119 124 128 131 131 130 128 126 125 127 130 134 137 138 137 134 130 126 124 125 128 133 138 141 142 140 136 133 131 131 133 136 138 138 135 130 124 119 116 116 118 124 129 134 137 137 135 132 128 126 124 125 128 133 139 145 151 155 156 154 149 140 128 115 
107 101 98 100 106 114 124 133 139 143 143 141 136 129 123 119 116 116 119 124 130 136 141 144 144 142 138 132 126 120 114 111 110 110 113 118 124 129 133 136 136 134 132 129 127 126 127 129 130 130 128 125 122 120 121 124 129 135 140 144 145 143 141 139 138 139 141 144 144 143 139 132 125 119 116 117 120 125 131 136 138 139 137 135 132 130 131 132 136 140 145 150 154 156 156 153 147 138 127 116 
110 106 105 108 114 121 129 137 142 145 146 144 139 134 128 124 121 120 122 127 132 138 142 144 144 141 135 128 121 115 111 109 109 112 117 123 129 135 139 141 141 139 135 132 128 126 125 124 123 121 119 116 114 114 117 122 129 136 142 145 146 145 144 143 143 144 147 149 149 146 141 134 126 121 118 118 122 128 133 137 139 139 138 135 134 133 134 136 140 143 147 150 152 153 151 148 142 134 125 117 
115 113 115 118 123 129 135 140 144 146 146 145 141 137 132 127 125 124 125 129 134 139 142 144 142 138 131 124 117 111 108 108 110 115 121 128 134 139 143 144 144 141 138 134 130 126 123 120 117 114 111 108 107 109 113 120 128 136 142 145 146 145 144 143 144 146 149 151 151 148 142 135 127 122 120 121 125 130 135 138 139 139 136 134 132 132 134 136 139 142 144 146 146 145 143 139 134 129 123 118 
120 121 125 128 133 137 140 143 145 145 145 143 141 137 133 130 127 127 128 131 135 139 142 142 140 135 127 120 113 109 107 108 112 118 125 132 138 143 145 145 144 142 138 134 131 127 123 119 114 110 106 103 103 105 110 118 127 134 140 143 143 142 140 139 140 143 146 149 149 146 141 134 128 124 122 124 128 133 137 139 139 136 133 130 128 128 129 132 134 136 137 137 136 134 131 128 125 122 120 119 
124 129 133 138 141 143 144 144 143 142 141 140 138 136 133 131 129 128 130 132 136 139 141 141 137 131 124 116 110 107 107 110 115 122 129 136 141 144 145 144 142 139 137 134 131 127 124 119 114 109 104 101 101 103 109 117 125 133 137 139 138 135 133 132 133 136 139 142 143 141 137 132 127 125 125 127 131 136 138 139 137 133 129 125 122 122 123 125 126 127 127 126 124 122 119 117 116 116 118 121 
128 134 140 144 146 146 144 142 140 137 136 134 133 132 131 130 129 129 131 133 136 139 140 139 135 129 121 114 109 106 107 111 117 125 132 138 142 143 143 141 138 135 133 131 130 128 125 121 116 111 106 103 102 104 110 117 125 131 134 134 131 127 123 121 122 125 129 133 135 134 132 129 126 125 127 130 134 138 139 138 134 129 123 118 116 115 115 117 118 119 118 116 114 111 109 109 109 112 116 122 
131 137 143 146 147 145 142 139 135 132 130 129 129 129 128 128 128 129 131 133 136 138 139 137 133 127 119 112 107 106 107 112 118 126 133 139 141 142 140 136 133 130 128 128 128 128 127 125 121 116 111 107 106 108 112 118 125 129 131 129 124 118 113 111 111 114 118 122 125 126 126 125 124 126 128 132 137 139 139 137 132 125 118 113 109 108 109 110 112 112 112 110 108 106 104 105 106 110 116 123 
131 137 142 144 144 142 138 134 130 127 125 124 125 125 126 126 127 128 130 132 135 138 138 136 132 126 119 112 107 105 107 112 118 126 133 138 140 139 136 132 128 125 123 124 125 127 129 128 125 121 117 113 112 113 116 121 126 129 128 125 119 112 106 103 102 104 108 113 116 119 120 121 123 125 129 134 138 140 139 135 128 121 114 108 105 104 105 107 109 110 110 109 107 106 105 106 108 112 118 124 
130 134 137 138 138 135 132 128 125 123 122 122 122 123 123 124 124 125 128 130 134 136 137 136 132 126 119 113 108 106 107 111 117 125 131 136 138 137 134 129 124 121 119 120 123 127 130 131 130 127 124 120 118 119 121 125 128 129 128 123 116 109 102 99 97 99 102 106 110 113 116 118 121 125 130 135 138 139 137 132 125 118 111 106 104 104 105 108 111 113 113 113 113 112 111 112 114 117 121 125 
128 130 130 130 130 128 126 124 122 121 121 121 121 121 121 121 121 122 124 127 131 134 136 136 134 129 122 115 110 107 107 110 115 122 129 134 137 136 133 128 123 119 117 118 121 126 130 133 134 132 129 126 124 124 126 129 131 131 129 124 118 110 104 100 98 99 101 105 108 111 114 117 121 125 130 135 137 138 135 130 123 116 110 106 105 106 109 113 116 119 121 122 122 122 122 122 122 123 125 126 
125 124 123 122 121 121 121 121 121 122 122 122 122 121 119 117 116 117 118 122 126 131 135 137 136 132 127 120 113 109 107 109 113 119 126 132 136 136 134 129 124 120 117 117 120 125 130 133 136 135 134 131 129 129 130 132 133 134 132 128 122 116 110 106 104 104 105 107 109 112 114 118 122 126 131 134 136 136 132 127 121 115 110 109 109 112 116 121 125 129 131 133 134 134 133 133 131 130 128 127 
122 118 116 114 115 116 118 121 123 125 125 125 124 121 118 114 112 111 112 116 122 128 134 138 139 138 133 126 119 113 109 108 111 116 123 130 135 137 136 133 128 122 119 118 120 124 129 133 136 137 136 134 132 131 132 134 135 136 136 133 129 124 120 116 114 113 113 113 114 115 117 120 123 128 132 134 135 134 130 125 120 115 113 113 115 119 125 130 135 138 141 143 144 144 143 142 139 136 131 126 
119 114 111 110 111 114 118 123 126 129 130 129 126 122 117 112 108 106 107 110 116 125 133 139 143 144 140 134 126 118 112 109 110 114 121 128 135 139 139 137 132 126 122 120 121 124 128 133 136 137 137 135 133 132 132 134 136 137 138 138 136 134 131 128 126 124 122 121 120 120 121 123 126 130 133 135 135 133 129 124 119 116 116 118 122 128 133 139 143 146 148 149 150 150 150 148 144 139 133 126 
117 112 109 108 111 115 121 127 131 134 135 134 130 124 117 110 105 102 102 105 112 121 132 141 147 150 148 142 134 124 116 111 110 113 119 127 134 139 141 140 136 131 126 123 122 124 128 132 135 137 136 135 132 131 131 132 134 137 139 141 142 142 141 140 138 135 132 129 126 124 124 126 128 132 135 136 135 133 128 124 120 118 119 123 128 135 140 145 148 150 151 151 151 151 151 149 145 139 132 125 
117 113 110 111 114 119 125 132 136 139 140 138 133 127 119 111 105 100 99 102 109 119 130 142 150 154 154 150 141 131 121 114 111 112 117 125 133 139 142 142 138 133 128 125 124 125 128 132 135 136 135 133 131 128 127 128 130 133 137 141 144 147 148 148 146 143 139 135 131 128 127 128 130 134 136 138 137 134 129 125 122 121 123 127 133 139 144 148 149 149 148 148 147 147 146 145 142 137 131 124 
119 116 115 116 119 125 131 136 141 143 143 141 137 130 123 115 107 102 100 102 107 117 129 141 151 157 159 155 147 137 126 117 112 112 116 122 130 137 140 141 139 134 130 126 125 126 129 132 134 135 134 132 128 125 123 123 125 128 133 138 143 147 150 151 150 147 143 138 133 129 128 129 132 135 138 139 138 135 131 126 123 123 125 130 136 141 145 146 146 144 141 139 138 138 138 138 137 134 129 124 
123 121 121 123 126 130 135 139 142 144 145 143 140 135 128 121 113 107 103 103 107 116 127 139 150 157 160 158 151 141 130 120 114 112 114 120 127 133 137 138 136 133 129 126 126 127 130 132 135 135 133 130 126 122 119 118 119 122 126 132 138 143 147 149 149 147 142 137 132 128 127 129 132 136 140 141 140 137 132 128 125 124 127 131 135 139 142 141 139 135 131 128 127 127 128 130 131 130 128 126 
128 128 129 130 132 135 137 140 141 142 143 143 142 139 135 128 121 114 109 107 109 115 124 135 146 154 158 157 151 142 131 122 115 112 113 118 123 128 132 133 132 129 127 125 125 127 130 133 135 135 133 129 125 120 116 114 114 115 119 124 130 135 140 143 144 142 138 133 129 126 126 128 132 137 141 143 142 139 134 130 126 125 126 129 133 135 136 133 129 124 120 116 115 116 119 122 126 128 129 129 
134 135 136 136 137 137 137 137 137 137 139 141 142 143 141 137 131 123 116 111 110 113 120 130 140 148 152 152 148 141 131 122 116 113 113 116 120 124 126 127 126 124 123 123 124 127 130 133 135 135 133 129 124 120 115 112 110 111 112 116 121 126 130 134 135 135 132 128 125 123 124 127 131 136 141 143 143 140 135 131 127 125 125 127 128 129 128 124 120 114 109 106 106 108 112 118 123 128 131 133 
140 141 141 140 138 136 133 131 129 130 132 136 141 144 146 144 139 132 123 116 112 112 116 123 131 139 144 145 143 137 129 122 116 113 113 115 118 120 121 122 121 120 119 120 122 125 129 132 134 134 132 129 125 121 116 113 110 109 109 110 113 117 121 124 126 127 126 124 122 121 122 125 130 135 139 142 142 140 136 131 127 125 124 124 124 123 120 116 111 106 102 100 101 104 110 117 124 130 135 138 
145 145 144 142 138 133 127 123 120 120 123 129 137 144 148 149 145 138 129 120 113 110 111 116 122 129 134 136 135 132 126 121 117 115 114 116 117 118 118 118 116 116 116 117 120 124 127 130 132 133 132 130 127 123 120 116 113 110 109 108 109 111 114 116 119 120 121 120 119 119 120 124 128 133 137 140 140 138 135 131 128 125 123 121 120 117 114 109 104 100 97 97 99 104 111 119 127 134 139 143 
147 147 145 141 135 128 121 114 111 110 114 122 131 141 147 150 148 142 133 122 114 109 107 110 115 121 125 128 128 126 123 120 118 117 117 118 119 119 118 116 114 113 114 115 118 122 125 128 130 131 131 130 129 127 125 123 119 116 112 110 108 108 110 112 114 116 118 118 118 119 120 122 125 129 133 136 137 136 134 132 129 126 123 121 118 114 110 105 101 98 97 98 102 108 115 123 131 138 142 146 
147 147 144 139 132 124 115 108 103 103 106 114 125 136 144 149 148 143 134 124 115 108 106 107 110 115 119 122 123 122 121 120 119 119 120 121 122 121 119 117 115 113 113 114 117 120 123 126 128 129 130 131 132 132 132 131 128 124 120 115 112 110 110 111 113 116 118 119 119 119 120 120 122 125 128 130 132 133 133 133 131 129 126 123 118 114 109 104 101 99 99 102 107 114 121 129 135 141 144 147 
145 144 141 137 130 121 112 104 99 98 101 108 119 130 139 145 146 142 134 125 116 110 107 107 109 113 116 119 120 120 120 120 121 123 125 126 126 125 123 120 117 115 115 115 117 120 122 124 126 128 130 132 135 137 139 139 137 133 128 123 118 115 113 114 116 118 120 122 122 121 120 119 119 119 121 124 127 130 132 134 134 133 131 127 122 117 111 107 104 103 105 108 114 121 127 133 138 141 143 145 
140 139 138 134 128 121 112 104 98 96 99 105 114 125 134 141 143 140 134 126 119 113 110 110 112 114 117 118 120 120 121 122 124 126 129 130 131 130 127 124 121 118 117 117 119 120 122 124 125 127 130 133 137 140 143 145 144 141 137 131 126 122 119 119 121 123 125 126 125 123 120 117 115 114 115 118 122 127 132 136 138 139 137 134 128 122 117 112 109 109 112 116 121 127 132 135 138 139 139 140 
133 134 134 132 129 123 115 107 102 99 100 105 112 122 131 137 140 138 134 129 123 118 116 116 117 118 120 121 121 122 123 124 127 130 132 134 135 134 131 128 125 122 121 120 121 122 124 125 126 128 130 133 137 142 146 148 148 146 142 137 132 128 126 126 128 130 131 131 130 126 121 115 111 109 109 111 116 123 131 138 143 145 144 141 136 130 124 119 117 117 119 123 128 132 134 135 135 134 133 132 
125 127 130 131 130 126 120 114 108 104 104 107 113 121 129 135 138 138 136 132 128 124 122 122 122 123 124 124 124 124 125 127 129 132 135 137 137 136 134 131 128 125 124 124 124 125 126 127 128 129 131 134 137 141 144 147 147 146 144 140 136 134 133 133 135 137 138 137 134 129 122 114 108 104 103 106 112 120 130 139 146 150 150 148 143 137 131 127 124 125 127 130 133 135 135 133 130 126 124 124 
117 122 127 131 132 131 127 121 115 111 110 112 117 123 130 136 139 140 138 136 133 130 128 127 127 127 127 126 126 127 127 129 132 134 137 138 138 137 134 131 129 127 126 126 127 128 130 131 132 132 133 134 136 138 140 141 142 142 140 139 137 136 137 139 141 143 144 143 138 132 123 114 106 101 99 101 108 117 128 139 147 152 154 152 148 142 137 133 131 131 133 136 137 136 134 129 123 118 115 115 
112 118 125 131 134 135 132 127 122 118 117 118 122 127 133 138 141 142 141 139 136 134 132 130 129 128 128 127 127 128 129 131 133 135 137 138 137 135 133 130 127 126 126 127 129 131 133 135 136 136 135 135 134 133 133 132 132 133 133 133 134 136 139 142 146 148 149 147 142 134 125 114 105 99 97 98 104 114 125 137 146 152 154 153 149 144 140 137 136 136 138 139 139 137 132 125 117 111 108 108 
108 115 124 131 136 138 136 132 127 124 122 123 126 132 137 141 144 145 144 142 139 135 132 129 127 126 126 126 127 128 130 132 134 136 137 137 135 133 130 127 124 123 124 126 129 132 136 139 140 140 138 135 131 128 124 122 121 121 122 125 129 133 139 144 148 151 152 150 145 137 127 116 106 99 96 97 102 111 122 133 142 148 151 150 147 143 139 137 137 139 140 142 141 137 130 122 114 107 103 104 
108 115 124 132 137 139 137 134 129 126 125 126 130 135 140 144 147 147 146 143 138 134 129 125 123 121 121 122 124 127 130 133 135 136 136 135 133 129 126 122 120 119 120 123 127 132 137 141 143 143 140 136 130 123 117 112 110 110 112 116 122 129 137 143 149 152 153 151 146 139 129 118 108 101 97 98 102 109 118 128 136 142 144 143 141 138 135 135 136 138 141 142 141 137 130 121 112 106 102 103 
110 118 126 133 137 138 136 132 128 125 124 126 131 136 142 146 148 148 146 142 136 130 124 119 116 115 115 117 121 125 130 133 136 137 136 134 130 126 122 118 116 115 116 119 124 130 136 141 144 145 142 137 129 120 112 106 102 102 104 109 117 125 133 141 147 150 152 150 146 139 131 121 112 105 101 100 103 108 116 123 129 133 135 134 132 130 128 129 132 136 140 142 141 138 131 123 114 108 105 106 
116 122 129 134 136 136 133 128 124 121 121 124 129 135 141 146 148 148 145 139 133 125 118 113 110 108 110 113 118 124 129 134 136 137 136 133 128 124 119 115 113 112 113 116 120 127 133 140 144 145 143 137 129 120 110 103 99 98 100 105 113 121 130 137 143 146 148 147 144 139 132 125 118 111 107 106 107 110 114 119 123 125 125 123 121 120 120 123 127 132 137 141 141 139 133 126 118 113 110 111 
123 128 133 136 136 134 129 123 118 116 116 119 125 132 139 144 146 146 142 136 129 121 114 108 105 104 106 110 116 123 129 133 136 136 135 132 128 123 119 115 112 111 111 113 117 123 130 136 141 143 142 138 131 122 113 105 100 99 101 105 111 119 126 132 137 140 141 141 140 137 134 129 124 120 116 114 113 114 115 117 117 117 116 114 112 111 112 116 121 128 135 139 141 140 136 130 124 120 118 119 
