P2
100 100
255
134 163 188 205 208 197 168 126 84 56 44 47 65 100 143 180 201 205 194 165 122 78 47 32 26 28 35 49 71 102 133 157 169 169 161 145 124 103 87 76 70 67 67 70 78 92 110 130 145 155 157 150 133 112 90 72 59 49 42 39 41 49 64 85 110 134 156 174 186 191 188 177 162 146 131 117 103 88 72 58 48 41 36 33 31 32 39 54 82 121 159 186 196 191 172 144 117 101 99 111 
173 193 208 214 209 190 153 106 66 42 33 36 51 83 127 169 194 201 191 165 124 82 53 38 34 36 43 56 74 96 118 133 138 136 128 118 108 101 99 100 101 99 95 89 85 83 88 97 109 121 133 140 142 137 127 113 98 82 67 54 45 43 47 56 71 89 112 137 161 180 191 194 192 185 176 164 147 124 96 69 49 36 27 23 21 23 29 42 68 105 146 176 190 190 178 161 144 137 140 154 
200 212 220 219 208 182 138 88 52 33 26 29 44 74 118 162 190 200 194 172 137 100 72 57 53 56 65 76 89 101 108 110 107 101 95 92 94 103 117 132 141 142 134 119 100 83 73 70 76 88 107 129 149 162 165 160 148 129 105 80 59 45 39 39 45 56 74 100 133 165 190 204 210 211 208 200 185 160 125 88 57 38 27 22 20 22 29 43 67 101 137 165 178 180 173 164 158 160 170 185 
213 222 226 221 206 174 125 76 43 27 23 27 42 72 117 161 191 203 200 184 158 128 104 91 89 94 102 111 116 115 107 94 82 72 68 70 82 105 135 161 177 181 173 152 122 90 66 54 53 63 84 116 151 178 194 197 191 175 148 113 79 53 38 31 31 36 49 73 109 150 185 207 219 223 224 220 208 187 152 109 71 46 33 27 27 31 40 56 79 107 135 153 160 158 153 149 153 164 182 199 
217 226 228 221 203 166 115 68 39 26 23 30 47 79 124 167 194 206 205 195 178 159 144 136 136 142 149 153 149 135 111 85 65 52 49 54 72 105 146 181 202 208 201 180 145 102 66 46 40 46 67 103 148 186 209 218 217 206 182 145 100 64 41 29 26 28 37 58 94 139 180 207 221 228 230 227 219 202 171 129 89 61 46 42 44 52 65 83 104 123 137 140 135 126 119 119 130 151 177 201 
213 225 227 219 198 159 107 63 37 27 27 37 58 93 137 175 198 207 207 200 191 181 175 174 178 184 189 188 178 154 119 82 55 40 36 43 63 101 149 190 214 222 218 199 164 116 71 44 33 36 55 91 142 187 215 228 229 222 202 166 118 74 45 31 25 26 35 54 89 135 177 205 219 226 229 227 220 205 180 145 110 84 71 70 77 90 107 125 139 146 142 128 109 92 83 84 97 124 160 192 
205 220 224 215 192 151 100 60 39 32 36 51 77 114 153 182 198 202 200 194 189 186 188 194 202 209 212 210 197 169 126 81 50 33 29 35 55 94 146 192 218 228 226 211 179 130 80 46 31 31 47 83 135 184 215 230 233 227 210 175 126 80 50 34 29 31 41 62 96 138 176 201 213 219 220 217 211 198 179 153 129 112 107 113 125 141 157 169 174 168 148 118 87 65 54 54 67 95 135 176 
194 214 218 209 184 142 95 60 43 41 51 72 102 137 167 185 191 188 180 173 170 174 184 197 209 218 223 220 207 179 133 84 48 30 24 29 48 86 140 189 218 230 230 219 191 144 91 52 33 31 44 78 129 180 212 228 231 225 207 173 126 82 54 41 39 44 58 81 113 148 177 194 201 202 200 195 187 177 164 151 142 140 146 157 172 186 197 202 199 184 153 111 72 47 36 35 46 70 111 158 
183 205 211 200 173 131 89 61 51 56 74 101 132 160 177 180 173 159 144 135 133 143 161 183 204 218 224 224 212 186 141 89 50 30 23 26 43 79 132 183 215 229 231 223 200 158 106 63 40 34 46 78 126 175 207 221 223 215 194 159 116 80 59 53 57 69 88 112 139 162 177 183 180 173 164 155 148 141 137 138 145 158 174 190 204 214 220 221 214 193 155 105 63 38 26 25 33 54 92 141 
173 197 201 188 158 118 83 64 63 77 103 134 161 177 179 167 145 120 100 89 89 101 125 157 187 209 221 223 215 191 150 100 58 35 25 28 43 75 126 177 210 227 231 225 206 171 123 79 52 45 55 84 128 171 199 211 209 195 170 135 100 76 66 71 85 106 129 150 167 177 176 167 150 132 117 106 100 98 103 116 138 164 189 208 220 228 231 230 220 196 153 100 57 32 22 20 27 46 81 130 
166 189 190 173 141 105 79 70 79 104 136 165 183 187 174 147 113 82 62 52 53 64 88 123 161 193 212 219 215 197 163 117 75 48 35 35 48 77 123 170 204 221 227 223 209 182 142 101 73 64 73 98 135 169 189 193 185 164 136 106 82 71 75 94 120 148 170 185 191 188 174 149 119 93 75 65 61 64 74 94 125 161 193 214 227 233 235 232 221 195 149 94 52 29 20 19 26 44 78 125 
164 182 178 156 123 92 75 77 98 131 165 189 198 191 166 126 85 55 38 31 31 40 59 91 132 171 198 212 213 202 178 141 102 73 56 53 62 85 123 163 193 211 218 217 207 187 157 125 101 92 99 119 145 166 175 169 152 126 99 77 65 68 86 117 153 182 200 208 207 195 171 135 97 67 49 41 40 44 55 77 110 151 188 212 226 233 235 231 218 190 142 87 48 28 20 20 29 48 83 127 
167 177 166 138 105 81 73 85 116 154 187 204 206 191 157 109 66 39 25 20 21 28 42 68 104 145 179 199 207 204 190 166 137 111 92 84 87 101 125 153 176 191 199 200 195 184 166 146 131 126 131 144 157 164 159 142 117 90 68 55 54 66 95 136 175 203 217 221 215 199 170 128 86 56 40 33 33 37 47 65 96 136 175 203 219 228 230 226 212 180 131 80 45 27 21 24 35 58 94 136 
172 174 154 122 90 71 71 92 130 171 201 214 211 190 150 98 55 31 20 17 18 24 35 54 83 119 154 180 195 201 198 187 171 154 138 126 120 120 127 137 149 158 165 169 170 168 163 158 154 155 159 164 166 160 143 117 89 65 50 43 48 66 100 145 186 211 223 225 218 201 171 130 89 60 44 38 37 40 46 60 84 117 153 183 204 216 220 216 200 167 119 73 42 28 24 30 46 74 112 150 
179 170 143 107 77 63 69 96 139 181 209 219 213 190 147 94 52 30 21 19 21 27 35 49 69 96 126 153 174 189 196 198 195 188 178 166 153 139 126 117 114 115 119 124 131 140 149 158 166 172 176 176 170 154 129 100 73 53 42 40 47 67 101 146 185 209 220 221 214 199 174 139 104 78 63 57 54 53 54 60 74 96 124 153 177 193 201 199 184 152 108 67 42 31 31 41 62 96 135 166 
184 166 132 93 65 56 65 95 141 184 211 220 214 191 149 97 57 35 27 27 31 37 45 53 64 79 99 121 143 165 184 198 205 207 203 193 176 150 121 96 81 74 74 80 90 106 127 148 166 178 182 179 168 148 120 92 69 53 45 45 52 69 99 138 172 195 205 207 203 192 174 151 128 110 98 91 85 78 71 66 67 76 93 115 138 158 172 175 164 137 101 67 47 39 43 58 86 123 158 180 
187 162 122 82 56 49 60 90 135 180 208 218 213 193 155 108 70 50 44 46 53 60 66 68 69 71 77 89 107 132 160 186 204 214 215 207 187 154 113 78 56 46 44 49 60 79 105 135 160 175 179 173 160 139 115 93 77 66 61 60 65 77 97 123 148 166 176 179 179 175 169 162 154 148 143 137 128 113 94 76 64 61 67 79 97 118 137 148 146 129 102 77 61 56 64 85 116 151 179 192 
188 157 113 73 49 43 52 79 121 166 197 210 209 193 163 125 94 77 74 81 91 99 101 94 82 70 62 64 75 97 129 165 195 212 218 211 190 151 103 65 42 31 29 33 44 64 92 125 152 166 168 160 145 128 113 102 96 93 91 90 90 92 97 106 116 125 131 136 141 148 157 166 174 180 182 179 169 148 118 87 64 52 49 54 66 85 108 127 136 132 116 99 88 86 97 120 149 177 195 200 
188 154 107 67 44 37 44 65 101 142 175 194 198 189 170 145 125 116 119 130 142 149 145 128 101 74 55 47 51 67 97 139 179 204 215 209 186 144 94 55 33 24 23 28 40 61 91 123 147 156 153 141 127 116 112 115 123 130 133 132 125 115 103 93 87 84 85 89 98 115 138 164 186 200 207 206 196 172 135 94 63 45 38 40 49 67 93 120 140 146 142 133 126 127 138 157 179 197 206 205 
190 154 107 66 42 33 37 51 77 110 142 165 176 177 171 162 155 156 164 176 187 190 182 159 121 81 52 38 36 46 72 114 161 194 208 204 180 135 85 49 30 23 23 31 47 72 103 132 148 149 137 120 106 102 109 128 149 166 174 173 163 142 115 87 67 56 52 54 65 87 121 159 191 210 219 219 208 182 141 95 60 41 33 34 43 63 93 127 154 168 171 167 164 165 173 185 199 209 213 208 
194 160 114 71 44 32 32 39 55 78 103 126 144 156 164 170 176 185 196 207 214 215 205 178 134 86 51 33 28 35 57 97 146 184 202 198 172 127 79 45 29 25 30 44 66 97 128 151 158 147 125 101 86 87 104 134 167 191 203 203 192 167 129 89 58 41 34 35 45 69 108 155 193 215 224 223 209 180 135 88 55 37 30 33 45 68 104 143 172 188 193 192 190 190 194 202 210 216 217 211 
200 171 128 84 52 36 30 32 39 52 69 89 109 130 151 170 187 201 213 222 227 225 214 185 138 87 49 30 24 30 51 89 138 178 197 193 166 121 75 46 33 33 44 67 98 133 161 175 171 150 117 86 70 72 94 132 174 203 218 220 210 186 144 96 57 35 26 26 36 61 103 154 194 216 224 220 203 168 121 76 47 33 30 36 52 82 122 161 188 202 205 204 200 199 201 206 212 217 219 214 
207 185 148 105 68 44 33 29 31 37 47 62 82 108 138 167 191 207 219 227 230 227 213 183 135 84 48 30 26 33 54 93 141 179 196 191 163 118 75 49 41 47 68 100 138 171 192 197 185 155 113 76 58 59 82 123 171 206 224 228 221 199 158 105 61 35 24 24 35 61 105 157 196 216 221 212 189 149 101 63 40 31 32 42 64 99 141 177 198 206 206 201 195 191 192 198 206 213 218 216 
213 199 171 132 92 61 42 33 30 32 38 49 68 96 131 165 191 209 220 226 227 221 205 172 125 79 48 33 32 43 69 109 154 186 199 191 162 119 78 56 53 68 99 139 176 202 214 213 196 160 111 70 49 48 68 109 159 200 223 230 226 207 169 115 67 38 27 27 39 67 113 163 198 214 215 200 169 125 81 51 35 31 37 53 81 119 158 186 199 199 192 181 170 164 166 174 187 201 212 216 
215 209 192 162 123 86 59 43 36 35 40 51 70 99 134 167 191 206 215 218 216 207 187 153 110 72 50 42 47 64 95 136 174 198 204 193 162 120 82 64 67 92 131 173 204 222 228 223 203 164 111 66 42 39 54 91 142 189 217 229 227 212 178 126 76 45 31 32 46 77 123 169 200 211 205 183 146 101 64 42 34 35 47 69 101 139 170 186 188 179 162 144 128 121 123 135 155 178 198 211 
213 215 206 186 155 118 86 64 53 50 55 67 88 116 147 173 191 201 204 202 194 180 157 125 92 67 56 58 72 98 132 167 195 209 209 193 161 118 84 71 81 112 156 196 221 233 235 228 208 167 111 63 37 31 42 73 121 172 208 224 226 214 184 136 86 52 38 39 55 88 133 174 198 203 191 162 121 81 53 39 38 46 64 92 126 157 176 179 168 146 120 97 81 74 77 90 113 145 176 199 
203 214 213 202 180 149 119 95 82 80 86 101 121 144 166 182 189 189 183 173 159 140 118 95 75 65 68 82 108 139 170 196 212 217 211 190 154 112 82 72 87 124 170 207 228 237 238 231 210 169 111 61 34 26 33 57 100 153 195 217 223 214 189 145 96 61 46 48 65 98 140 175 193 192 174 140 101 69 50 44 50 66 91 122 152 172 177 165 140 108 79 58 46 41 43 54 75 107 145 179 
185 204 211 207 193 172 148 129 120 121 130 144 160 175 186 189 185 172 153 133 113 95 79 67 62 67 85 113 146 177 200 215 223 221 209 182 142 100 73 67 85 123 170 207 229 238 239 231 210 169 111 61 33 23 26 44 81 133 180 208 218 212 190 150 104 70 55 56 74 105 142 171 183 176 154 122 89 66 57 60 75 98 127 156 176 184 176 151 114 77 50 34 25 22 24 32 47 74 111 152 
158 185 198 200 192 179 164 154 153 159 170 182 193 199 201 193 176 149 119 92 73 59 51 49 55 72 103 142 178 204 219 227 227 220 201 168 123 83 60 57 74 111 158 198 223 234 236 229 209 169 112 62 33 22 23 37 68 116 166 199 212 208 188 152 109 76 61 63 79 107 138 160 167 158 137 110 87 75 76 89 111 138 165 185 196 193 175 140 96 59 35 22 16 14 16 20 31 50 81 120 
127 157 173 178 175 168 162 162 169 181 194 205 212 214 209 193 165 126 89 61 45 36 34 38 51 79 121 165 199 219 229 232 227 214 187 147 101 65 47 45 59 90 135 178 208 225 230 225 206 168 114 65 36 23 23 35 63 107 156 190 205 202 183 149 109 79 65 66 80 103 128 145 150 142 126 108 97 96 107 127 152 176 195 206 209 200 176 136 89 52 30 19 14 12 13 16 23 37 60 92 
100 124 139 145 143 140 141 150 166 185 203 215 221 220 211 189 152 107 67 43 30 24 25 33 51 86 134 181 211 227 233 231 222 202 167 121 78 49 35 34 44 67 105 148 184 207 217 215 199 166 117 71 43 30 30 41 67 109 154 186 199 195 175 141 104 77 65 66 78 96 116 130 135 131 123 117 118 127 145 166 186 202 213 218 216 205 181 141 94 57 34 22 17 15 16 18 23 33 49 72 
84 99 107 108 105 104 108 122 146 173 196 212 220 219 208 182 140 92 55 33 22 19 22 31 54 93 145 190 217 229 232 227 212 183 141 95 58 37 27 26 33 48 75 112 149 178 195 199 188 161 122 83 58 46 47 59 85 123 161 186 194 186 163 129 95 72 62 64 73 88 105 118 126 129 131 135 145 159 177 193 207 216 221 222 219 208 187 152 110 74 50 36 29 27 26 28 32 39 51 66 
86 90 88 82 75 71 76 90 114 146 176 198 210 211 199 172 129 83 49 30 21 19 22 34 60 102 154 195 219 228 227 216 194 158 112 71 44 29 22 22 26 36 53 79 110 140 162 173 170 154 128 101 83 75 78 92 117 148 175 190 191 177 150 115 84 65 58 60 69 83 99 113 125 135 145 156 170 184 198 208 216 220 221 219 215 207 191 167 135 105 81 66 57 52 50 51 54 60 68 77 
106 99 87 72 60 52 53 62 82 110 142 170 187 192 183 158 119 79 49 32 25 24 29 43 72 116 164 199 217 222 216 199 168 127 85 53 34 25 21 22 25 31 41 58 79 103 125 140 146 143 134 124 116 116 123 137 156 176 191 196 189 168 136 101 74 59 55 58 68 82 99 116 132 147 161 174 187 198 206 211 213 212 209 206 202 197 190 178 162 143 126 113 104 98 94 94 95 99 103 106 
139 124 103 80 60 47 42 45 57 77 103 130 151 161 158 141 113 82 59 44 38 38 45 62 93 134 174 201 212 211 198 172 135 95 62 40 29 25 25 27 30 35 42 51 63 78 93 108 121 130 137 143 150 158 167 178 190 199 204 200 186 159 123 89 66 55 54 59 71 87 105 125 143 159 174 186 195 201 203 201 196 189 182 177 174 175 178 181 181 177 172 165 159 155 151 149 149 149 149 147 
173 156 131 101 74 54 43 39 43 53 70 90 109 124 130 126 113 96 80 70 65 66 75 94 123 156 184 199 202 192 170 137 100 68 46 34 30 31 35 41 47 52 56 60 63 68 75 85 98 115 134 154 172 186 197 205 211 213 211 201 181 150 113 81 62 55 57 66 80 97 117 136 153 168 179 187 191 190 185 175 162 148 137 130 131 139 154 172 188 198 202 203 201 199 196 194 192 190 188 183 
196 183 161 132 101 73 54 42 38 40 48 60 75 91 105 116 121 120 116 111 109 112 121 137 157 177 190 193 184 164 134 100 70 49 37 34 37 46 57 70 81 88 90 87 81 75 71 73 81 99 124 153 179 198 210 217 220 218 211 197 173 139 104 78 64 62 67 79 95 113 131 146 158 167 173 175 173 165 152 134 115 98 86 80 83 96 121 153 183 205 217 222 223 222 220 217 214 211 209 204 
206 199 185 163 135 104 77 56 44 38 38 43 53 69 90 115 136 150 157 159 160 163 168 176 185 191 191 181 160 130 98 69 49 38 35 40 53 72 95 116 131 139 139 130 114 95 78 69 71 84 108 141 172 195 210 216 217 213 203 185 159 127 99 80 73 77 87 102 118 132 143 151 155 157 156 151 142 128 110 90 72 57 48 44 48 62 89 129 171 202 220 228 230 229 226 222 218 215 212 210 
203 203 199 188 168 142 111 82 59 44 37 37 44 59 85 119 153 177 190 196 199 200 201 202 202 197 184 162 131 97 69 48 37 34 40 54 79 110 141 166 181 188 185 173 151 122 93 72 65 71 91 120 153 179 196 203 203 196 183 163 138 114 96 89 92 102 117 132 144 151 153 150 144 136 128 118 105 90 73 57 44 34 27 25 29 41 66 107 155 193 216 226 228 226 220 213 206 201 199 200 
185 196 203 203 194 176 150 117 86 60 45 39 42 57 86 127 167 196 211 218 220 219 217 214 206 193 171 139 104 72 50 37 33 37 51 77 113 151 182 203 214 218 215 203 181 147 109 79 63 63 75 98 127 152 168 175 172 163 148 130 113 100 97 103 117 134 151 163 168 166 157 142 125 110 97 86 75 63 51 40 30 24 19 18 21 31 52 89 137 179 205 215 216 209 199 186 175 168 168 174 
154 179 198 209 210 202 183 155 120 86 60 47 47 60 91 134 177 206 221 227 228 226 221 214 201 181 152 116 82 57 42 35 37 49 72 107 148 184 209 224 231 232 228 218 197 163 122 87 66 60 66 82 102 120 132 134 129 119 106 94 87 89 100 121 145 166 181 188 187 176 156 130 105 86 72 63 56 49 41 34 28 23 19 18 21 29 48 80 122 162 186 194 190 177 160 141 126 118 120 133 
118 154 187 208 217 217 207 186 155 118 84 62 56 67 96 139 180 208 222 227 227 223 215 203 186 161 130 98 71 53 44 43 51 70 101 140 178 206 224 233 236 236 231 220 201 169 130 95 74 66 69 78 89 97 99 95 87 78 70 65 68 81 106 139 169 191 202 205 198 180 151 116 87 67 57 52 49 47 44 40 35 31 28 27 29 37 52 79 113 143 160 162 151 131 109 89 75 69 73 89 
87 129 173 203 220 225 221 208 184 149 111 82 69 75 99 138 176 202 215 219 217 209 197 181 161 136 111 87 70 60 58 63 78 102 135 170 199 218 229 234 235 232 225 213 194 165 132 105 88 83 85 90 93 90 82 70 59 51 46 46 56 78 113 154 187 207 215 214 203 179 143 104 73 56 49 50 53 58 60 60 57 52 49 47 49 56 69 89 111 128 132 124 106 85 66 50 41 38 42 57 
67 110 159 197 218 227 227 219 202 173 136 102 82 81 98 128 161 185 197 199 193 181 166 148 129 112 98 88 82 82 87 98 116 140 167 193 211 223 228 229 226 220 209 194 174 151 129 115 110 112 117 119 115 102 82 62 47 37 33 36 49 77 120 166 199 217 223 219 205 176 135 93 64 51 50 57 69 82 92 97 96 92 88 85 86 91 100 111 119 119 109 92 72 54 39 29 24 23 27 40 
57 97 147 188 214 226 228 224 211 187 153 117 91 83 90 111 134 153 162 162 153 139 123 109 99 94 95 100 108 117 128 141 156 174 191 206 215 220 220 216 207 195 179 161 142 128 121 124 135 147 156 158 149 128 97 67 45 32 28 32 46 77 125 173 206 222 226 220 203 171 126 85 59 51 56 72 95 119 136 146 148 145 141 138 136 138 140 141 135 120 97 73 52 37 27 21 18 19 23 34 
55 90 136 177 205 219 223 221 211 191 159 123 95 80 79 88 102 113 117 114 105 93 83 77 79 88 104 123 141 156 168 178 187 196 203 208 210 208 202 190 174 155 134 116 104 101 111 132 157 178 191 193 184 159 121 80 50 32 26 30 45 78 128 177 210 224 227 219 199 164 118 79 57 55 68 94 127 157 177 188 191 190 186 183 181 179 176 168 152 126 94 65 45 32 25 21 20 21 25 35 
60 87 124 161 188 204 210 209 201 183 154 121 92 74 68 69 73 77 77 73 66 59 56 60 72 94 122 150 172 187 195 200 202 202 201 199 193 184 170 151 129 107 87 74 70 78 101 137 174 200 214 217 209 186 146 98 58 35 27 29 45 79 130 179 211 224 226 216 193 155 109 74 58 62 83 117 155 185 204 212 214 213 211 208 205 202 197 186 165 134 98 67 46 35 30 28 29 31 35 44 
71 88 112 138 161 176 184 185 179 164 140 112 87 69 59 55 54 53 51 48 44 42 46 56 78 109 144 174 194 204 207 206 201 194 185 175 163 148 128 107 85 67 53 46 48 62 94 139 183 212 227 230 224 204 167 114 68 40 28 30 46 81 132 180 210 222 222 210 184 143 101 71 62 72 99 138 175 201 215 220 221 219 217 214 212 209 204 192 172 142 107 77 58 48 45 46 48 52 56 61 
89 91 99 111 124 136 144 148 146 138 123 103 83 68 57 51 46 43 39 37 36 39 47 65 94 131 166 191 205 209 206 197 184 169 154 139 124 107 90 72 56 43 35 32 37 53 88 139 187 218 233 237 232 215 180 128 77 44 31 33 49 85 135 181 208 218 215 199 170 130 92 70 68 84 117 155 187 206 215 216 214 211 208 205 204 202 199 190 174 150 121 97 81 74 74 79 84 88 90 89 
111 97 88 85 88 93 100 107 112 113 109 100 88 75 64 55 48 42 39 37 38 45 59 84 118 154 183 201 206 202 191 173 152 131 114 99 88 77 66 55 44 35 29 27 32 49 84 136 186 219 234 239 235 220 187 136 84 50 36 38 56 93 141 182 205 212 204 184 152 114 85 72 78 100 134 167 191 202 204 200 193 186 182 180 181 183 184 181 172 157 139 124 115 114 118 126 133 137 134 125 
133 104 80 66 61 62 68 77 89 101 108 110 105 95 84 72 61 53 48 47 51 62 82 111 145 175 195 203 199 185 163 136 111 91 77 69 65 63 60 55 47 39 32 29 32 47 78 128 179 213 231 237 233 218 187 139 89 56 43 48 69 106 150 184 201 201 188 163 130 99 80 78 92 119 150 176 190 191 183 170 156 145 139 139 144 152 161 166 167 163 157 152 152 156 164 173 179 181 175 158 
148 108 75 55 46 45 51 64 83 104 122 133 134 128 116 102 88 76 68 67 73 88 112 141 170 190 200 198 183 158 126 96 73 59 53 53 58 66 72 72 66 55 44 37 36 46 71 114 163 200 221 228 225 210 179 135 91 63 55 65 90 126 163 186 194 186 165 136 106 86 79 89 112 141 167 182 185 175 155 131 111 98 93 95 105 119 135 150 161 167 170 174 180 188 196 204 209 208 200 180 
154 108 71 48 39 40 49 67 94 123 148 163 168 165 155 141 125 110 100 97 104 121 144 168 188 199 199 187 162 127 91 64 48 40 41 50 66 84 100 106 101 86 68 52 44 46 63 96 138 176 200 209 206 191 161 124 90 73 73 90 118 151 176 188 184 166 138 108 86 76 82 103 134 163 182 188 179 157 125 95 74 62 60 64 76 94 115 136 154 167 177 186 195 204 213 219 222 221 212 190 
152 104 66 45 38 42 57 83 117 151 176 191 197 195 188 176 160 144 132 128 134 149 168 186 198 202 195 174 140 100 66 44 34 32 40 57 84 115 140 151 147 129 102 75 56 49 55 76 107 140 164 175 173 158 134 107 88 84 96 120 149 174 188 187 171 143 110 83 69 71 89 121 155 182 195 193 176 143 104 72 52 43 43 50 62 81 103 126 146 163 176 188 200 210 218 224 227 225 215 191 
144 97 62 44 41 50 72 106 146 179 200 211 215 213 207 196 182 166 153 147 152 164 179 193 201 201 189 163 124 82 52 35 28 31 44 69 107 148 178 191 188 171 141 105 74 56 52 60 78 100 119 128 127 116 101 88 85 97 121 150 176 192 194 182 154 118 85 64 59 70 98 137 174 197 205 198 175 137 94 61 44 38 40 48 60 77 97 117 135 150 165 179 194 207 217 223 226 223 212 186 
132 88 57 44 45 60 91 133 173 201 216 223 224 221 214 202 186 168 154 146 149 161 177 191 199 198 185 157 117 77 48 33 29 34 51 84 130 175 203 216 214 201 174 136 96 68 53 51 58 69 79 85 84 79 73 73 83 108 141 173 194 202 195 172 135 96 66 51 52 70 106 150 187 208 213 203 177 136 93 61 45 41 44 53 65 78 93 106 118 129 143 159 178 196 210 219 222 219 205 176 
118 77 52 44 50 72 110 155 192 215 225 228 226 220 209 193 172 151 134 125 129 142 161 180 192 194 184 160 122 83 53 38 33 40 60 98 147 190 216 227 227 217 195 161 120 85 62 53 51 54 57 58 57 55 55 63 83 117 156 187 203 204 188 156 114 76 51 42 48 71 111 158 195 213 216 206 180 140 97 67 53 50 54 62 71 80 87 92 96 102 112 129 153 179 199 212 216 212 195 162 
102 66 47 43 53 80 123 170 204 222 229 228 223 212 194 170 143 118 100 93 97 113 137 163 183 192 188 170 138 100 68 49 42 47 68 106 155 196 220 230 230 223 206 179 143 107 81 66 59 56 53 50 47 45 47 59 84 123 163 192 204 199 176 136 93 59 41 36 45 70 111 160 196 213 216 204 179 142 104 77 64 62 66 72 77 79 79 76 74 74 81 98 125 158 186 204 210 204 183 146 
87 56 41 40 52 82 128 175 207 223 228 224 214 195 167 135 104 80 66 61 67 84 112 146 175 192 194 184 160 125 91 65 53 55 73 108 153 191 214 225 226 221 209 189 162 132 108 92 82 74 66 58 51 46 48 61 88 127 166 191 199 187 158 115 74 46 33 32 42 67 107 154 189 206 208 197 173 140 108 87 77 77 79 81 81 76 69 61 55 52 57 73 103 141 175 197 203 195 170 130 
74 47 36 36 49 78 124 172 205 220 223 216 198 169 132 96 68 51 41 40 46 64 95 135 171 194 203 199 182 153 117 85 66 61 73 101 140 176 199 211 215 212 204 191 174 156 141 129 119 109 96 82 68 58 57 68 94 131 166 187 190 173 138 95 59 37 29 30 40 63 99 141 174 190 190 178 157 131 109 95 92 93 94 91 83 72 60 49 42 39 45 61 92 134 171 193 199 188 158 115 
64 40 31 32 43 70 113 161 197 213 215 203 177 138 97 64 43 32 27 28 36 54 87 131 172 198 210 210 199 175 140 104 77 65 69 88 117 148 173 187 193 193 190 185 180 174 169 165 160 151 137 117 96 80 74 82 104 137 167 183 181 160 123 82 51 34 28 30 41 60 90 123 150 162 160 149 131 115 104 102 106 110 110 102 87 69 53 42 35 35 42 62 96 138 175 195 198 183 148 103 
56 35 27 27 37 60 99 147 185 203 204 187 153 110 70 44 29 22 20 23 33 54 90 137 178 204 217 218 209 189 155 115 82 65 62 72 91 115 136 151 160 164 168 172 177 182 187 191 191 186 174 154 129 107 96 100 118 145 169 181 176 154 117 79 52 37 33 37 46 63 84 107 122 127 122 112 101 95 97 107 120 129 128 116 95 72 53 41 36 39 51 76 114 155 186 202 200 181 142 94 
51 31 23 23 32 51 87 133 173 193 193 172 134 89 53 32 22 18 19 24 36 61 101 149 188 211 221 221 212 191 157 116 81 62 55 59 70 85 101 113 123 131 140 153 167 182 195 204 208 206 197 179 155 131 117 118 133 155 175 183 178 158 125 91 65 52 49 53 62 75 88 97 100 96 87 79 75 79 93 114 136 149 149 134 109 83 61 49 47 54 73 104 142 177 201 210 204 181 138 88 
48 29 21 21 28 46 79 124 164 185 185 162 122 77 45 27 20 18 20 29 46 77 120 165 198 216 222 219 207 183 147 107 75 56 50 51 58 68 79 89 97 105 118 135 156 177 195 207 213 212 204 188 166 143 130 131 145 165 182 190 186 171 145 118 95 84 81 86 93 101 104 100 89 76 64 57 59 70 93 124 152 168 170 156 132 104 82 71 71 84 109 141 174 200 215 218 208 181 135 85 
46 28 21 21 29 47 79 123 163 184 183 161 120 77 45 28 21 21 26 39 63 99 144 182 207 218 219 212 194 165 127 91 65 52 48 51 59 68 77 84 90 97 108 125 147 169 188 200 206 205 196 180 159 139 129 134 151 172 189 198 197 188 172 153 138 129 128 132 137 138 131 114 91 69 54 48 52 69 99 136 168 185 189 179 158 134 114 105 109 126 151 178 201 217 224 223 210 180 132 82 
46 29 24 25 35 55 90 133 170 189 188 167 130 86 54 35 28 29 38 57 87 128 168 197 213 217 211 196 171 137 101 73 56 50 53 62 74 86 96 102 105 108 114 125 141 159 174 184 187 183 172 154 135 120 117 128 150 175 194 205 208 204 196 186 178 174 175 177 179 174 161 135 103 73 54 48 55 76 112 151 182 199 203 196 181 164 149 144 150 165 185 204 218 227 229 225 209 176 127 79 
47 33 30 35 49 74 111 152 183 198 197 180 147 105 70 49 42 45 58 84 119 157 189 207 214 210 196 172 139 104 75 57 50 52 64 82 103 120 132 137 136 134 133 134 139 147 154 157 155 147 134 117 101 93 96 114 143 173 196 209 215 214 211 207 204 204 205 207 206 200 185 157 120 85 63 57 67 92 130 167 194 208 210 205 195 182 173 171 177 190 204 217 225 229 228 221 202 167 120 75 
51 43 44 55 75 105 141 175 198 209 208 194 167 130 95 72 64 70 89 119 153 183 204 213 211 199 174 140 104 74 54 46 48 60 83 112 140 161 172 175 171 164 155 146 138 133 129 124 117 106 93 80 70 67 75 97 130 166 193 209 216 218 217 216 216 216 218 220 219 213 199 173 138 104 82 76 88 116 151 182 202 211 211 205 196 185 178 177 184 195 207 216 221 223 219 208 187 152 109 73 
60 60 69 88 113 144 173 197 211 217 216 205 184 154 123 102 95 104 126 154 182 202 213 214 204 182 147 107 73 51 40 40 49 71 106 144 175 194 202 203 197 187 172 154 135 118 105 93 83 72 62 53 48 49 59 81 115 153 184 202 211 213 213 212 213 215 217 219 219 214 202 182 153 125 107 104 118 143 171 193 205 208 204 194 181 169 162 162 169 180 191 199 204 204 197 184 161 129 96 72 
75 86 105 130 156 180 199 212 220 222 219 210 194 171 146 128 125 136 158 182 201 213 217 212 194 162 119 79 51 36 32 37 53 83 127 169 199 214 219 218 211 198 179 154 127 103 85 71 61 52 45 39 37 39 49 68 99 135 166 185 194 196 195 194 194 197 200 204 205 202 194 180 161 143 133 135 148 168 186 198 201 196 184 168 150 135 127 126 133 143 155 163 167 166 159 145 125 103 84 74 
95 117 144 169 189 204 215 221 223 222 217 208 193 173 154 142 142 156 176 196 211 218 218 207 183 143 97 59 37 28 27 36 56 93 142 185 212 224 227 224 215 199 176 146 115 89 71 59 50 43 38 34 33 36 44 59 84 114 140 157 163 163 159 156 156 159 164 169 173 174 171 164 157 152 153 160 173 186 194 196 189 174 152 129 108 92 84 84 88 97 106 114 117 116 111 101 90 80 75 80 
115 145 173 194 208 216 220 221 220 215 208 196 179 160 143 135 140 156 178 198 212 218 216 203 174 129 82 48 30 23 25 35 58 98 149 192 217 227 228 223 211 191 162 129 99 76 62 54 48 43 40 37 36 38 44 56 74 95 113 122 123 118 111 106 104 107 112 119 125 129 133 136 142 150 163 176 188 195 195 186 167 141 113 88 69 57 52 51 54 60 66 71 74 74 71 67 64 65 72 89 
130 162 188 204 213 216 216 214 208 200 187 171 151 131 117 112 120 139 164 188 205 213 212 199 169 123 76 44 27 22 24 34 57 97 149 192 217 226 225 217 200 174 140 107 81 66 58 55 54 52 50 48 46 48 53 62 73 85 93 93 87 78 69 63 60 61 65 70 76 83 91 102 119 141 164 183 194 196 188 169 139 107 78 57 43 36 34 34 37 41 45 48 51 51 51 52 54 61 75 98 
136 164 185 198 203 204 201 195 186 173 156 135 114 96 84 82 90 109 137 167 191 205 207 197 169 126 80 47 29 22 23 32 54 92 143 187 212 222 219 207 184 151 114 84 66 59 59 64 68 71 72 70 69 69 72 78 85 89 88 80 68 56 45 39 36 35 37 40 44 50 59 74 97 127 159 182 193 191 175 147 111 77 53 38 31 28 28 31 34 39 43 47 49 50 52 54 58 67 82 106 
131 151 166 175 177 175 171 163 152 137 119 99 80 66 57 55 62 78 104 136 168 191 201 197 176 138 93 57 36 26 25 31 49 84 132 177 205 215 212 195 166 127 90 66 56 57 66 80 93 103 107 107 105 104 105 108 111 109 100 86 68 52 40 31 27 25 24 26 28 32 40 55 80 115 152 178 188 182 159 124 87 58 40 31 28 29 33 40 47 54 61 66 69 71 72 73 76 82 93 110 
118 126 132 135 135 133 129 124 116 105 91 75 60 49 41 39 42 53 73 104 141 174 194 198 186 157 116 77 49 34 28 31 46 75 119 165 195 207 203 184 150 108 74 55 52 60 79 103 126 141 148 149 147 145 145 145 145 139 128 109 87 66 50 38 30 25 23 22 23 25 32 46 71 107 145 173 181 171 143 105 70 47 35 31 34 41 52 65 78 90 100 107 111 113 112 110 108 106 107 111 
100 95 93 91 90 90 91 92 92 88 81 69 56 44 36 31 31 37 51 77 115 156 186 200 198 179 147 107 72 48 36 34 43 67 107 152 185 200 197 177 141 100 68 53 54 69 97 129 157 175 183 184 181 179 177 176 175 171 161 144 122 99 77 60 47 37 31 27 25 26 32 45 70 105 143 169 175 161 130 92 61 43 37 40 50 66 86 108 127 143 153 160 163 163 160 155 146 134 120 108 
83 70 62 59 59 62 68 77 87 92 91 82 68 53 40 31 27 29 38 58 93 138 178 202 208 200 177 144 105 72 50 41 44 62 96 139 175 194 193 176 142 103 73 60 64 84 117 153 181 197 203 203 199 196 193 193 193 192 188 178 163 143 121 100 81 64 52 42 36 35 40 53 77 112 147 168 171 155 122 86 60 47 46 57 77 105 133 159 178 190 198 202 203 201 197 189 176 156 130 104 
71 54 45 41 43 50 63 82 102 116 120 113 96 74 54 38 29 26 31 46 77 123 170 202 215 215 203 178 143 104 71 52 48 60 88 129 167 189 193 180 152 116 88 75 81 104 138 172 195 208 211 208 202 196 193 193 196 200 202 201 194 184 168 150 130 109 89 73 61 56 59 71 95 127 156 173 172 153 121 87 64 56 62 82 113 147 177 198 212 219 223 224 223 221 216 207 192 167 134 99 
65 47 38 36 40 52 73 101 130 152 160 155 137 109 78 53 36 28 28 40 66 111 162 200 220 225 220 204 176 138 99 69 56 61 83 120 159 186 195 188 166 137 111 99 105 127 157 185 202 210 209 202 192 182 176 177 184 193 203 209 212 209 203 192 177 159 138 117 100 91 91 102 123 148 170 181 177 157 126 95 74 70 82 110 146 181 205 220 228 232 232 231 229 226 221 212 196 170 134 95 
67 49 41 41 48 66 94 129 162 185 195 192 177 148 111 75 48 33 29 36 59 101 153 196 221 230 230 221 201 169 127 89 66 63 79 112 150 181 195 194 180 158 136 124 128 146 170 191 204 206 200 187 169 153 143 144 154 171 189 204 215 220 220 216 209 197 181 163 145 133 130 138 153 171 185 190 184 165 137 107 88 86 101 131 167 197 217 227 231 232 230 227 223 219 213 204 189 165 131 95 
78 63 55 56 66 87 119 156 187 207 216 215 205 182 146 104 67 43 33 35 53 91 143 190 219 232 235 230 216 190 150 107 76 65 75 102 139 171 191 195 187 171 153 143 144 158 176 191 199 197 185 163 137 115 102 101 113 134 160 185 204 216 222 224 221 215 205 192 179 168 164 168 177 188 196 198 191 174 149 122 102 99 112 140 171 197 212 220 221 219 215 209 203 198 192 185 174 156 131 102 
102 90 84 84 94 114 143 174 199 216 224 226 220 205 176 134 90 57 40 37 49 81 130 179 213 230 236 234 224 202 165 120 83 66 69 89 122 156 179 188 185 173 158 148 148 157 172 184 188 182 164 136 105 80 66 64 73 93 120 151 178 198 211 217 219 217 211 202 193 185 182 184 190 198 203 203 197 183 161 135 115 106 113 132 156 177 190 195 194 189 181 172 164 158 155 154 153 147 135 119 
137 129 123 122 126 138 157 179 198 213 222 227 226 217 196 161 116 75 49 40 46 70 113 163 202 224 233 234 226 206 171 124 85 63 61 76 103 134 159 171 171 161 148 138 137 144 157 168 172 164 143 113 82 59 46 42 47 60 81 108 138 163 182 195 201 202 199 194 187 182 181 184 191 198 204 205 201 190 171 147 124 108 104 112 125 138 147 149 145 137 127 118 110 107 110 119 131 141 145 143 
172 169 164 157 153 152 158 168 182 197 209 218 222 220 208 181 141 96 62 45 44 60 94 141 183 211 225 228 222 202 167 121 81 59 54 63 84 110 133 146 147 138 126 116 114 121 133 145 150 145 126 99 72 51 38 33 34 40 53 71 93 117 138 153 164 168 168 166 162 160 162 169 179 189 198 202 202 194 180 157 131 108 93 88 89 93 95 94 89 82 74 67 63 65 74 91 116 142 161 170 
199 198 192 181 167 152 143 141 149 163 180 197 209 215 211 194 161 117 77 52 44 51 75 114 157 190 209 216 210 190 155 111 74 54 48 54 69 89 107 118 118 110 98 90 88 94 105 119 129 130 119 98 76 57 43 36 33 33 38 47 60 74 90 104 114 121 123 123 123 124 129 139 153 169 183 193 198 196 186 167 140 111 87 71 62 58 55 52 48 44 39 36 36 41 54 78 113 150 178 193 
216 215 208 193 169 141 117 104 104 116 136 161 185 201 207 200 176 138 95 63 46 45 59 87 124 159 183 193 189 169 136 98 67 51 46 51 63 77 90 97 94 86 76 68 66 71 82 98 114 123 122 111 94 76 61 50 42 37 36 37 42 48 57 65 73 78 82 83 84 86 92 103 118 138 158 176 188 193 190 176 152 121 90 66 50 40 34 30 27 25 23 23 25 32 49 78 120 163 193 210 
224 223 214 194 163 123 89 69 64 71 89 117 150 179 197 200 187 156 115 78 53 44 48 65 91 121 146 159 158 142 115 86 64 52 51 56 66 78 87 88 82 72 62 55 53 57 68 86 107 126 135 134 125 110 94 78 64 53 45 41 39 40 43 47 52 55 58 59 59 60 64 71 84 102 126 150 172 186 191 186 168 140 106 74 51 36 27 22 19 18 18 19 23 33 53 88 134 176 205 219 
227 224 214 191 153 107 69 47 38 41 53 78 113 152 182 197 194 173 137 98 66 49 44 51 66 87 108 122 125 116 99 81 68 63 65 73 84 93 97 93 83 69 57 50 47 52 64 84 111 137 155 162 160 151 137 119 101 83 68 57 50 47 47 49 52 54 55 54 52 50 49 51 59 72 93 120 150 175 190 194 185 163 132 97 67 45 32 24 20 19 19 22 29 41 65 103 148 187 211 223 
223 220 208 183 143 95 57 35 26 26 33 52 84 127 167 192 199 187 160 123 86 61 48 46 52 65 80 93 100 101 95 89 85 86 93 103 114 121 120 110 93 75 60 51 49 54 68 93 123 153 175 186 189 185 176 161 143 123 104 89 78 72 70 71 73 74 73 68 60 52 45 42 43 51 66 92 125 160 186 199 199 187 163 131 97 68 48 35 29 27 28 32 40 56 81 118 158 190 210 220 
211 208 197 173 134 89 53 32 23 20 25 39 67 110 157 189 203 200 182 150 113 80 59 49 48 55 65 78 90 100 106 110 115 122 132 143 152 155 149 133 109 86 67 58 56 64 82 110 142 171 191 202 206 205 200 190 177 160 144 129 119 113 112 113 115 115 111 100 84 66 50 40 36 38 48 69 102 143 179 202 210 207 192 168 137 106 79 61 51 46 47 52 62 77 100 129 159 183 199 207 
184 185 179 160 127 89 57 36 25 21 24 35 61 104 153 190 208 210 200 176 143 106 76 58 52 54 62 76 94 112 128 140 151 161 170 179 184 182 172 152 124 97 77 68 69 81 104 133 163 186 202 210 213 212 207 200 191 181 171 164 159 158 160 163 165 165 159 144 120 90 63 44 34 31 37 52 82 126 170 201 216 220 214 199 177 151 124 103 89 83 82 86 94 104 117 132 148 161 172 180 
143 150 153 145 125 96 68 47 33 27 28 39 64 107 157 193 213 218 213 197 169 132 96 71 59 57 65 82 105 131 154 171 182 191 198 202 203 198 185 161 131 103 84 78 85 103 130 158 183 199 209 212 211 207 200 192 185 180 178 180 184 190 195 200 203 203 198 183 156 118 79 50 34 28 30 41 67 109 157 196 218 226 226 219 206 189 169 152 139 132 130 131 132 132 129 126 125 126 129 135 
97 111 125 133 128 111 88 65 48 38 37 48 75 118 165 200 218 224 221 210 187 152 113 82 65 62 70 89 118 149 175 193 204 210 213 214 211 202 184 158 127 101 87 86 100 125 154 180 198 208 211 209 202 190 177 165 158 157 163 174 188 202 212 220 224 225 221 209 184 144 97 58 36 26 25 34 55 92 142 187 214 227 231 228 221 212 200 189 181 177 174 172 166 154 135 114 96 86 83 87 
62 80 105 127 138 134 116 91 68 54 50 61 89 133 176 206 222 227 225 216 195 161 120 87 67 63 71 93 126 161 189 206 215 219 220 217 210 196 173 143 112 90 82 89 110 141 172 195 208 213 211 202 185 163 141 123 115 117 129 150 175 198 215 226 232 234 232 222 201 163 112 67 39 26 23 29 45 77 124 171 204 222 228 229 225 220 213 208 205 203 202 198 187 167 135 100 72 56 49 51 
43 64 96 130 153 158 146 120 92 72 65 75 104 146 186 211 224 229 226 215 194 158 116 82 63 59 67 90 125 163 193 211 220 222 221 215 203 182 152 119 91 75 72 85 113 149 181 203 214 215 208 192 165 131 101 80 72 74 88 114 148 181 207 224 233 236 235 228 210 176 126 76 44 27 22 26 38 64 104 149 185 207 216 219 217 214 211 210 211 213 213 210 198 173 133 90 57 38 31 32 
38 62 100 141 170 180 170 145 112 87 76 85 113 153 190 213 225 227 223 210 184 145 102 70 54 50 59 81 117 157 190 210 220 222 219 209 191 163 128 94 70 59 61 78 108 147 182 204 214 214 203 181 145 104 71 51 43 44 56 79 114 154 189 213 227 234 234 229 214 184 138 88 52 32 25 26 34 53 83 121 155 178 190 194 193 192 192 196 203 210 214 212 201 175 133 86 51 31 24 26 
43 72 113 156 185 194 184 157 122 92 79 85 112 151 187 211 222 224 217 200 168 124 83 56 43 41 49 69 103 145 182 205 216 218 213 199 176 142 105 74 56 49 53 69 99 138 174 198 210 209 197 171 131 88 56 37 29 29 37 54 82 121 162 194 214 225 229 226 215 191 151 104 66 43 33 31 35 47 66 91 117 136 146 150 150 150 155 165 180 196 207 210 202 178 137 90 53 33 26 29 
61 94 136 174 196 200 187 156 118 86 72 77 101 139 177 204 217 218 209 186 148 103 65 43 33 32 40 58 88 129 168 194 207 209 202 186 159 124 90 64 49 45 49 63 88 123 159 185 198 200 189 164 125 85 54 36 27 25 29 39 59 89 127 163 191 208 216 218 212 195 165 126 90 65 51 45 45 49 57 69 81 91 96 96 96 98 106 122 146 172 193 204 201 182 147 102 66 44 38 43 
93 126 163 191 204 201 180 144 103 72 58 62 83 120 162 193 209 212 200 174 131 86 52 34 27 28 35 50 77 114 151 178 192 194 186 168 141 111 83 64 54 50 53 62 80 107 136 161 177 182 176 157 127 93 65 47 36 31 30 34 45 64 92 124 154 177 193 201 203 195 178 152 124 101 84 73 66 61 58 58 58 58 57 55 54 56 64 81 110 145 176 195 199 187 160 122 88 67 62 70 
