P2
100 100
255
145 176 202 217 220 208 177 129 80 49 36 39 59 98 148 190 212 218 209 183 137 86 48 28 21 21 28 41 65 98 133 160 173 175 166 150 127 103 83 70 63 60 59 62 69 83 101 122 139 149 152 146 130 108 85 67 52 41 34 30 31 38 53 74 100 130 158 181 198 207 206 196 179 158 135 113 91 71 54 41 33 28 26 25 26 30 40 59 92 133 171 195 203 196 175 145 116 101 101 117 
183 204 218 225 221 202 164 111 65 38 27 30 47 83 133 179 206 214 207 183 141 93 56 36 29 30 36 47 64 86 108 125 133 132 124 112 101 93 89 90 92 92 88 82 76 74 77 86 98 111 123 133 137 133 123 108 92 73 56 43 34 32 35 45 61 83 111 143 174 196 207 210 205 195 181 162 137 107 77 52 35 24 19 16 16 18 26 42 70 110 151 181 194 192 179 160 144 137 144 161 
208 221 228 228 218 193 147 93 52 29 21 24 40 73 123 172 202 213 209 189 155 113 78 58 50 51 56 64 74 84 91 94 93 88 83 79 81 89 104 121 133 137 130 114 94 75 63 60 65 77 97 121 144 160 164 158 144 121 93 66 45 33 28 29 36 49 72 105 144 180 204 216 220 218 212 199 178 147 108 71 44 28 19 15 15 17 24 38 63 98 136 164 177 178 171 162 158 162 175 192 
220 229 232 229 214 182 131 77 41 23 18 22 38 71 120 170 201 214 212 199 174 143 115 97 89 90 95 99 99 95 85 74 65 58 54 57 68 91 123 154 174 180 173 151 119 85 59 46 45 54 76 110 149 180 196 199 190 170 138 99 63 39 27 22 23 30 46 75 118 164 198 217 227 229 227 221 206 179 140 96 61 38 26 22 21 25 34 48 70 99 127 146 154 153 148 146 152 167 187 206 
224 232 234 227 209 171 116 65 34 21 18 24 41 76 125 173 202 215 216 208 192 173 156 145 141 143 146 145 135 116 91 67 49 40 37 43 60 93 137 178 202 210 204 182 145 99 61 40 34 40 61 100 149 190 214 222 219 204 175 132 85 50 30 20 18 22 33 58 100 151 192 216 228 233 233 230 219 199 166 123 84 57 43 38 40 47 58 74 93 112 126 130 125 118 112 115 129 154 183 208 
221 231 232 224 202 160 104 57 31 20 20 29 50 87 136 178 204 214 215 210 202 193 187 184 186 189 190 186 171 142 103 67 43 31 28 34 55 93 145 191 217 226 222 203 167 116 68 40 29 32 52 91 146 193 221 232 233 223 199 157 104 60 34 22 18 20 30 54 95 146 188 213 226 231 232 230 222 207 181 147 113 87 74 72 77 88 102 118 131 136 132 117 99 83 76 79 96 128 167 200 
214 227 229 220 195 149 94 52 31 24 27 41 67 106 149 184 202 208 206 202 199 197 199 204 210 215 217 212 196 164 118 72 41 26 22 29 50 91 147 195 223 233 231 216 183 132 78 43 28 28 46 85 141 192 222 235 238 231 210 170 116 68 39 26 22 25 36 61 101 149 187 210 220 224 223 220 213 202 185 162 140 125 119 121 130 143 157 167 171 163 141 109 79 58 48 50 66 99 143 186 
204 222 225 214 186 138 87 50 34 31 40 60 91 129 163 185 193 191 185 179 178 184 194 207 218 226 229 225 211 180 132 80 44 25 20 25 45 86 144 195 224 235 235 224 195 147 91 50 30 28 44 81 136 188 220 234 237 230 210 171 119 72 44 32 31 37 53 80 119 159 189 204 209 208 203 197 190 181 172 164 159 158 163 171 181 192 201 205 200 183 149 104 66 42 31 32 44 73 119 169 
193 215 219 206 175 128 81 52 41 45 62 89 122 153 173 179 173 159 146 138 139 150 170 193 213 225 232 230 219 192 146 91 50 27 20 24 43 82 139 191 222 235 237 228 205 162 107 62 38 33 46 82 135 185 215 229 230 221 199 160 112 72 50 43 47 61 83 113 146 174 190 194 189 178 166 155 147 143 144 150 162 177 191 204 214 221 226 225 217 194 153 100 57 32 22 21 31 55 98 151 
182 206 210 196 162 117 78 57 55 68 94 125 155 173 177 165 142 117 97 88 90 105 132 166 196 217 229 231 223 201 161 107 62 35 24 26 43 79 134 186 218 233 236 230 211 176 126 79 52 44 56 89 137 181 208 219 217 203 177 139 98 69 57 60 74 97 125 152 175 188 190 180 160 137 117 102 95 96 105 125 152 181 204 220 229 235 237 235 224 198 151 95 51 27 17 16 24 45 84 137 
173 198 199 182 147 106 76 65 74 99 132 162 182 187 175 146 109 77 57 48 50 64 90 129 169 201 220 228 224 209 176 129 82 51 35 35 48 81 131 180 212 227 232 228 214 187 146 103 75 66 76 105 144 179 198 202 194 173 143 109 80 65 66 82 109 140 168 187 198 199 188 163 129 96 72 59 54 57 71 96 133 173 205 224 235 240 241 237 225 196 146 88 45 23 15 14 21 40 77 128 
168 188 186 164 128 94 75 76 97 132 167 192 202 195 169 126 82 50 32 25 27 37 58 92 136 177 206 220 223 214 192 156 113 79 59 53 62 89 129 171 200 216 223 221 212 192 163 130 106 97 106 128 155 175 183 177 160 133 104 78 63 62 76 106 143 177 199 211 214 206 185 150 106 69 46 34 31 35 47 72 111 158 197 221 234 240 241 236 221 189 136 79 40 21 14 14 22 41 76 125 
165 180 171 144 109 82 73 86 119 160 193 211 213 198 162 111 64 34 20 15 16 23 37 64 102 147 184 207 217 216 204 181 150 119 96 85 87 102 128 157 181 195 202 204 199 188 171 152 138 134 139 152 165 171 164 147 121 93 70 55 51 60 85 125 168 200 217 224 222 210 184 144 96 58 36 25 23 26 35 55 90 136 180 210 227 235 237 231 214 178 123 69 35 19 14 16 25 46 83 129 
167 173 155 123 90 70 71 93 134 178 208 221 219 199 158 102 55 27 15 11 12 17 27 45 75 114 154 185 204 212 210 200 183 162 143 127 119 118 125 137 149 159 166 170 171 170 167 164 162 163 168 172 172 164 144 117 88 64 48 41 44 59 91 136 180 209 224 228 224 211 186 147 101 63 40 29 25 26 31 45 72 111 154 190 212 224 228 222 202 164 110 61 32 19 16 20 33 59 97 139 
172 167 141 104 73 60 66 94 141 186 214 226 221 200 158 101 54 28 16 13 13 17 24 36 55 84 120 154 181 199 208 210 205 195 182 167 150 133 119 111 109 111 115 121 129 139 151 162 173 181 185 184 175 156 127 95 68 49 39 36 42 60 92 136 178 206 220 224 221 210 190 158 119 84 60 46 38 34 35 41 57 85 121 157 185 203 210 206 187 149 99 57 32 22 22 30 48 79 119 155 
179 163 128 88 60 50 59 89 137 184 214 225 222 202 162 109 62 35 24 20 21 24 28 35 45 62 87 117 147 174 195 208 214 213 206 193 171 142 110 87 73 68 68 74 85 102 126 151 172 186 190 186 171 146 115 85 61 47 41 41 47 62 90 126 163 189 203 209 209 204 192 172 146 120 97 79 65 53 45 43 48 63 86 116 146 169 183 184 169 136 94 59 39 31 35 48 74 109 147 173 
187 161 119 77 50 41 50 78 123 172 205 220 219 204 171 125 82 55 42 39 40 41 42 43 44 50 62 81 108 140 171 196 212 219 218 206 182 144 101 68 48 40 38 43 54 73 102 136 165 182 187 180 162 137 108 84 68 59 56 56 61 70 87 111 136 156 170 179 185 189 189 184 174 161 145 127 107 84 64 50 44 47 58 77 102 128 149 159 154 132 101 73 57 53 60 80 110 146 175 190 
193 161 114 69 43 34 40 63 102 148 186 206 212 203 181 147 113 89 78 75 76 75 71 62 53 47 47 55 73 102 139 176 203 218 220 211 185 141 92 55 34 25 24 27 38 57 88 124 156 174 176 166 148 126 106 93 87 86 87 87 87 87 89 94 103 113 123 133 146 162 177 189 194 194 187 174 153 122 87 60 44 38 40 50 67 91 117 138 146 139 121 103 91 91 102 124 153 180 199 204 
198 163 112 66 39 28 32 47 76 115 154 182 196 197 188 170 151 136 130 130 130 127 115 94 71 51 40 39 48 69 105 150 188 211 218 210 182 135 84 47 27 19 18 23 34 55 86 122 151 164 161 147 129 113 105 107 115 125 132 132 125 113 97 84 75 73 76 85 102 128 159 187 205 213 214 207 187 153 109 70 45 33 30 35 47 69 99 129 150 157 152 143 137 139 151 169 189 206 215 214 
203 168 116 68 38 25 25 33 52 80 113 144 168 183 188 186 182 179 179 182 183 178 162 131 93 60 39 31 33 48 79 125 171 202 213 206 177 129 77 42 24 18 19 27 42 66 99 132 153 157 145 125 107 98 103 121 144 164 176 176 166 144 113 82 59 47 44 50 66 97 139 180 208 223 228 223 206 172 123 76 46 30 25 28 39 60 94 133 163 178 182 181 179 181 189 201 212 221 225 220 
209 176 126 75 41 25 21 24 34 50 74 102 132 160 180 193 201 206 211 215 217 212 195 161 114 69 41 27 25 36 63 108 158 194 208 201 172 123 73 40 25 22 26 39 62 92 126 152 162 154 131 105 86 83 98 128 164 191 206 208 197 171 131 87 53 35 28 31 45 76 123 173 208 226 232 228 211 176 124 75 44 28 23 26 38 63 102 145 178 197 203 204 204 205 210 217 223 228 229 224 
214 187 141 89 50 29 20 19 23 31 46 68 98 134 168 193 209 220 226 231 232 227 211 177 126 75 42 26 23 32 57 101 153 190 205 198 168 119 71 41 29 30 41 63 95 131 161 177 176 156 122 89 69 69 89 127 171 204 221 225 216 191 148 96 54 31 22 23 35 65 115 169 207 227 232 227 207 168 115 68 39 26 23 28 44 73 116 160 191 207 213 213 212 212 215 220 225 229 231 227 
220 199 161 111 67 38 24 18 17 21 30 46 74 113 156 190 212 225 232 236 237 231 214 179 127 76 43 27 25 36 62 107 157 192 205 197 166 118 72 45 37 44 65 98 137 171 193 200 190 160 117 77 56 55 76 117 167 206 226 232 226 205 164 108 60 32 21 21 33 62 112 168 207 225 229 220 194 150 98 57 34 24 25 34 54 89 134 174 199 209 210 206 202 201 204 210 218 224 229 228 
223 210 182 138 91 55 33 22 18 19 25 38 64 104 151 189 212 225 232 235 233 225 205 168 117 71 42 31 32 48 79 125 171 200 208 198 166 118 75 51 48 64 96 138 177 204 217 217 200 165 114 70 46 43 62 102 155 199 224 234 230 213 176 121 69 37 23 23 35 65 115 170 206 222 222 207 174 126 78 45 29 25 29 43 70 109 151 182 197 199 192 182 174 170 174 184 198 211 221 226 
223 218 200 167 123 81 51 34 26 24 29 43 70 110 155 190 212 223 227 227 221 208 183 144 99 63 43 39 48 71 108 152 189 209 213 199 166 119 78 58 61 86 128 173 206 225 231 227 207 168 113 65 39 34 48 83 136 186 218 232 232 218 186 133 79 43 28 27 40 70 120 171 205 217 212 189 149 100 60 36 27 28 39 59 92 131 164 183 186 175 158 139 125 120 125 140 161 185 206 219 
218 221 212 191 156 115 80 56 44 41 47 64 92 130 168 196 211 217 216 209 197 177 148 112 78 55 47 53 73 105 145 182 207 219 217 199 163 116 78 63 73 106 153 196 223 236 238 232 212 170 112 61 34 27 36 65 114 169 208 227 231 221 193 145 90 51 34 32 45 76 124 172 201 208 197 167 123 78 47 33 30 38 56 84 119 153 174 177 164 140 112 89 74 68 73 88 114 147 179 204 
205 217 218 206 183 151 117 91 77 75 83 101 129 159 186 202 208 205 195 178 157 131 104 77 59 51 56 76 108 146 181 207 222 225 218 195 155 108 74 64 78 116 166 207 230 241 242 234 214 171 111 59 31 21 27 49 92 149 195 220 228 222 198 154 100 59 40 37 50 80 124 168 193 196 180 146 102 65 43 36 42 58 84 117 150 173 179 166 138 102 71 49 38 34 37 49 70 103 143 180 
183 205 214 211 198 177 153 133 122 122 132 149 170 189 202 206 201 186 162 135 108 83 64 51 45 51 71 105 145 182 208 224 230 228 215 186 142 95 65 58 75 115 166 208 231 241 242 235 214 172 111 58 29 18 21 38 75 130 182 213 225 221 200 159 107 66 45 41 53 80 120 159 181 182 164 129 91 63 50 52 66 90 123 155 179 189 182 155 114 73 44 27 19 16 18 26 41 67 104 147 
152 182 199 203 198 187 174 164 162 166 177 190 202 210 213 207 189 160 124 90 65 48 38 34 39 56 89 134 177 208 225 234 234 227 207 171 122 78 53 49 65 103 154 199 226 238 240 233 213 171 112 59 29 17 18 32 65 117 171 206 221 218 199 160 110 69 48 43 53 76 111 145 166 168 152 124 94 76 72 82 104 133 164 188 201 201 184 148 99 57 30 17 10 9 10 15 24 42 72 111 
116 148 170 180 181 178 174 175 181 191 203 213 220 222 218 203 174 132 89 57 37 27 23 26 38 65 109 160 200 223 235 238 234 221 193 150 99 61 41 38 51 84 132 180 213 230 235 229 210 170 113 61 31 19 20 33 63 113 166 202 217 214 194 156 107 68 48 43 50 70 99 131 152 158 149 131 113 104 108 124 149 175 196 211 216 209 187 146 94 52 26 14 9 7 8 11 17 29 50 80 
86 112 131 142 146 148 153 163 178 195 210 221 227 226 218 196 157 107 64 37 22 16 16 23 41 76 127 179 214 232 238 237 229 209 172 123 76 45 30 28 38 63 103 151 190 214 223 221 204 168 116 68 39 27 27 42 73 121 169 201 213 209 186 146 99 63 45 40 46 63 88 118 143 156 156 149 143 143 152 168 187 204 217 223 223 215 192 152 101 58 31 18 12 10 11 13 17 26 39 60 
70 85 96 101 103 107 115 131 154 180 202 217 224 223 212 185 140 88 49 26 16 12 15 24 47 88 144 193 222 235 238 233 218 189 145 95 56 33 22 21 28 45 74 115 156 187 203 205 193 163 120 79 53 43 46 64 96 140 180 204 211 202 175 132 87 56 41 37 43 57 81 112 141 160 169 172 173 178 187 198 210 220 226 228 226 217 198 164 118 76 47 32 24 21 21 22 26 32 41 54 
72 76 76 73 69 70 76 91 116 147 176 198 210 211 199 169 124 76 41 23 14 13 17 30 58 104 160 202 225 234 233 222 199 161 113 69 40 24 18 17 22 33 52 82 117 149 171 179 174 155 126 97 79 74 81 101 132 167 194 209 209 194 161 116 74 48 36 34 41 55 80 112 145 169 183 191 196 201 207 214 219 223 225 225 223 216 202 178 143 107 79 61 51 46 45 45 48 53 59 66 
95 87 76 63 53 47 49 59 77 105 136 163 181 186 177 150 110 70 41 26 19 19 26 43 76 124 174 209 225 229 221 203 171 127 82 49 29 20 16 17 20 28 40 58 83 109 130 144 147 141 130 120 115 118 130 149 172 194 209 213 206 184 145 99 63 42 33 34 41 58 85 119 154 179 195 203 208 212 214 216 216 215 214 212 210 207 201 189 170 147 126 110 99 92 89 89 91 93 96 97 
133 117 95 72 53 41 36 39 49 67 91 117 138 149 147 130 102 73 51 38 33 35 45 67 103 148 188 212 220 217 201 173 133 91 56 34 23 19 19 21 25 31 39 49 63 78 94 107 117 124 131 139 150 162 175 190 203 214 219 216 202 173 130 86 54 38 33 37 47 66 96 131 164 187 200 207 209 209 207 203 197 191 186 183 183 186 190 191 189 182 173 164 157 152 149 148 148 148 147 143 
173 154 127 96 68 47 35 31 34 42 57 75 94 109 116 114 103 88 75 66 63 67 81 105 138 173 198 210 209 196 170 133 94 61 38 27 23 24 28 34 40 46 52 56 60 65 71 79 90 106 126 150 173 191 205 215 221 225 223 214 195 161 116 76 51 40 39 46 60 82 112 144 171 189 198 200 198 192 183 172 159 147 139 135 139 150 166 183 196 203 205 204 202 200 198 196 195 193 190 185 
202 187 163 131 97 67 46 34 29 30 36 47 61 78 94 108 116 117 115 112 112 118 131 151 174 193 204 203 190 164 129 92 61 40 29 25 28 36 48 61 72 80 83 81 75 68 63 63 71 88 115 149 180 203 217 225 228 227 221 207 183 146 105 73 54 49 53 64 82 106 132 156 173 182 183 179 171 158 142 124 107 93 84 82 88 104 131 163 191 210 220 225 225 225 223 221 219 217 215 210 
215 207 192 167 135 100 70 48 35 29 28 33 43 60 84 112 137 154 162 165 168 172 180 190 200 205 202 187 161 125 89 59 39 29 26 31 43 61 84 106 123 132 133 123 106 86 68 58 59 73 100 136 173 199 215 223 224 220 210 192 164 130 97 75 67 69 80 96 115 134 151 162 165 163 155 143 129 112 94 77 62 51 44 43 49 66 96 138 179 208 224 232 234 233 231 228 225 223 221 219 
216 215 209 195 172 141 106 74 51 36 29 29 37 54 84 123 160 185 198 204 207 209 212 214 213 207 192 164 127 88 58 38 28 26 31 46 69 100 132 159 177 184 182 169 145 113 82 61 54 61 82 116 153 182 200 207 207 199 185 164 138 112 93 85 89 102 119 137 152 162 165 160 149 133 117 101 85 70 57 45 35 28 24 23 28 42 69 112 161 198 220 229 232 230 226 220 216 213 212 214 
203 211 215 212 200 179 148 113 79 54 39 33 38 55 89 135 178 206 220 226 228 228 227 223 216 201 174 136 95 61 39 28 25 31 45 71 107 146 179 202 214 218 215 202 177 141 100 70 54 54 68 94 125 152 169 175 172 161 145 125 107 94 92 102 120 142 161 176 184 183 172 151 126 101 81 66 54 44 36 28 23 18 16 16 19 30 53 92 140 182 207 218 219 214 205 195 187 183 186 193 
176 198 213 219 217 207 186 155 118 83 57 44 45 61 96 144 188 216 229 235 236 234 230 223 210 187 152 110 71 45 31 27 31 45 70 107 149 185 211 226 233 235 231 219 197 161 118 81 60 55 61 78 99 118 128 130 124 112 97 85 77 80 95 121 152 177 195 204 204 194 171 138 102 74 55 44 37 32 28 24 21 18 16 16 19 28 46 78 120 159 184 193 190 180 165 149 138 134 139 155 
139 174 203 220 226 223 212 191 159 120 84 62 55 68 100 147 190 217 230 235 235 232 225 214 195 166 128 89 58 41 34 37 48 71 105 147 184 212 228 237 240 240 235 225 205 173 132 96 73 64 66 75 85 92 92 87 78 68 59 54 57 71 100 140 177 202 215 219 214 197 165 122 83 56 41 34 32 31 30 29 28 26 24 24 27 34 49 73 104 133 150 153 145 129 110 93 81 79 87 107 
102 147 188 215 228 232 227 214 191 156 116 83 68 74 99 140 180 207 221 226 225 219 209 193 170 140 106 77 57 49 50 59 79 109 146 182 209 226 236 240 240 237 231 220 201 174 141 112 94 87 87 89 89 84 74 61 50 41 36 36 45 67 107 155 193 216 226 227 217 195 156 108 68 45 35 33 35 40 45 47 48 47 46 45 47 53 63 78 96 109 113 108 94 78 62 49 41 40 48 67 
74 121 171 207 227 235 235 227 211 182 143 104 79 75 91 122 157 183 198 202 199 191 177 159 137 114 92 77 70 72 81 98 123 153 183 207 223 232 236 236 233 227 217 204 186 165 144 129 122 121 123 121 113 96 74 53 38 29 25 27 39 67 113 165 204 224 232 229 217 189 145 95 58 40 35 39 49 62 74 83 87 88 87 86 86 89 93 98 99 96 86 72 58 44 33 25 21 21 27 43 
58 101 154 196 221 233 236 232 220 197 160 117 85 72 77 96 121 143 156 159 155 145 131 116 103 94 90 91 98 110 126 145 167 189 207 220 227 230 229 224 216 204 189 172 156 144 139 142 150 159 165 162 149 123 89 58 36 25 20 24 37 68 118 172 210 228 234 229 214 182 133 85 53 40 42 54 75 99 120 135 142 144 143 141 139 138 135 128 115 95 73 53 38 27 20 15 13 14 19 32 
50 87 136 182 211 226 232 230 220 199 164 120 84 65 61 69 82 95 103 105 100 92 84 79 79 86 100 117 136 154 170 185 198 209 217 222 223 219 212 200 183 163 143 125 115 115 127 149 172 190 199 198 185 156 114 72 42 25 19 22 37 70 122 177 213 230 233 227 208 172 122 77 51 44 54 77 110 143 168 183 190 192 191 189 186 182 175 160 137 105 73 48 32 22 17 14 13 14 19 29 
48 77 118 160 192 211 219 219 211 191 157 115 79 57 48 48 53 58 61 61 58 54 53 57 70 91 119 148 171 188 200 208 213 215 215 212 206 195 179 159 135 111 91 78 75 86 113 150 186 209 220 221 211 185 142 91 51 29 21 23 38 73 127 180 214 229 232 223 200 160 110 70 51 52 71 105 145 179 201 213 217 218 217 215 213 209 201 185 158 121 83 53 35 25 21 19 19 21 25 32 
53 71 99 132 162 182 193 195 189 171 141 104 72 51 41 37 36 37 37 36 35 35 40 52 74 107 144 175 196 208 213 214 211 206 198 187 173 155 133 109 85 66 52 45 48 65 100 148 192 219 232 234 227 206 165 110 62 34 23 25 41 77 132 184 215 228 228 216 189 146 99 66 55 64 93 133 173 202 218 225 227 226 225 223 222 219 213 200 176 142 103 70 50 39 35 34 36 37 40 44 
67 71 83 101 121 139 151 157 156 144 123 95 70 52 41 34 31 28 27 26 27 30 40 60 91 131 168 195 209 214 212 204 193 179 163 146 127 108 87 68 51 38 30 28 34 52 90 144 193 223 237 241 235 218 181 126 73 40 27 29 47 85 139 187 215 225 222 205 174 130 89 65 62 80 115 157 191 212 222 224 223 221 219 218 218 217 214 206 189 163 130 100 79 69 65 66 68 70 69 67 
89 77 71 74 82 92 103 113 120 120 111 96 79 63 51 42 35 30 27 26 29 36 52 79 116 156 188 206 212 208 196 178 158 136 116 99 84 70 57 45 35 27 23 22 28 45 82 136 189 222 238 242 238 223 190 137 82 47 33 36 57 98 149 191 214 219 212 190 154 112 80 67 74 100 138 175 200 213 216 212 206 201 197 197 200 204 206 204 196 181 160 139 124 116 115 117 120 120 114 103 
115 86 66 56 54 58 67 80 95 108 114 112 103 91 77 63 51 43 37 36 41 53 75 108 146 180 201 209 205 190 166 138 111 89 73 63 56 51 46 41 35 28 24 22 26 41 73 125 178 215 234 240 237 222 191 141 88 54 42 49 74 116 162 196 211 211 196 168 130 95 74 73 90 122 159 188 203 207 200 188 174 163 158 159 166 177 187 195 197 193 185 176 169 167 168 172 175 173 163 143 
138 96 64 46 39 40 49 66 89 114 134 143 142 133 119 101 83 69 59 57 64 81 108 143 175 197 208 205 190 162 127 95 70 54 46 44 46 50 53 53 48 41 33 28 29 39 64 108 159 200 222 231 228 213 183 137 91 63 56 68 98 139 176 199 206 197 174 140 105 80 72 83 111 146 178 197 202 195 176 152 128 112 106 109 121 138 158 176 189 196 199 199 200 202 206 209 211 209 198 175 
151 102 63 41 32 34 45 67 100 136 163 178 182 178 166 148 127 107 93 89 97 116 145 174 196 208 209 197 169 130 90 60 43 34 34 40 52 66 79 84 80 69 54 42 36 39 55 88 131 172 198 210 208 193 164 124 90 72 75 95 128 163 189 200 196 176 145 110 82 69 75 98 134 169 193 204 199 180 148 113 85 68 63 66 78 98 123 150 173 190 202 209 215 220 224 228 229 227 216 192 
153 101 60 38 31 35 51 82 123 164 192 207 212 210 202 187 168 146 129 122 129 148 173 195 209 214 207 186 149 103 64 40 28 26 32 47 70 98 121 132 129 113 89 65 48 42 48 67 98 132 158 171 171 157 132 105 86 83 97 125 158 184 198 197 180 149 113 82 64 63 81 115 156 189 206 209 196 167 125 84 56 42 38 41 51 67 91 119 148 174 194 208 218 226 231 235 236 233 222 197 
147 94 56 36 32 40 64 104 151 189 213 225 229 227 221 208 190 169 150 142 148 165 186 204 214 215 205 178 134 86 49 30 23 25 37 61 98 138 168 182 179 162 133 99 69 50 45 51 68 89 109 120 120 110 96 83 80 93 120 153 182 198 200 187 158 120 84 60 52 61 89 132 175 204 216 213 195 159 111 68 43 31 28 30 37 49 66 89 117 146 173 195 212 223 231 235 237 233 221 193 
134 83 49 34 34 48 80 127 175 209 227 234 236 233 226 212 193 169 148 138 144 162 185 204 214 215 203 175 129 80 45 28 23 28 45 78 126 172 202 215 213 200 173 135 96 65 49 44 49 58 68 74 74 70 65 65 76 102 138 173 196 204 196 171 132 91 60 44 44 60 96 146 189 214 223 217 196 157 107 64 40 29 26 28 32 39 50 65 86 112 142 171 197 215 226 233 234 229 214 183 
117 70 43 32 36 56 95 148 193 221 234 238 237 232 220 201 175 146 123 113 119 141 169 194 210 213 204 178 135 86 50 31 26 33 54 93 146 192 219 231 231 221 200 167 126 88 61 47 43 44 46 47 47 45 46 54 74 109 151 185 202 203 185 149 105 67 43 34 39 60 101 153 196 219 226 219 197 158 108 67 43 33 30 30 32 35 40 47 59 78 105 139 173 201 218 228 229 223 204 168 
98 57 36 30 37 61 106 161 204 227 237 238 234 223 203 175 140 107 85 77 85 109 145 179 202 212 207 187 150 102 63 40 33 39 60 101 155 199 225 235 236 230 215 190 155 116 84 63 51 45 41 38 36 35 38 50 75 115 159 190 202 195 168 125 80 48 32 28 35 58 100 153 196 219 225 217 196 158 112 73 50 40 36 34 34 34 34 36 41 52 72 105 146 183 209 221 224 215 191 149 
80 46 30 27 37 63 110 166 207 228 236 234 224 205 175 136 97 68 51 46 55 79 118 162 195 211 213 199 170 126 83 53 41 43 62 100 151 194 220 231 234 230 221 204 179 148 117 92 75 62 52 44 38 35 39 52 81 122 164 191 197 183 148 102 61 36 24 23 32 54 94 145 187 210 216 209 188 153 113 80 61 51 45 42 38 34 31 29 29 35 50 80 123 168 199 215 218 206 176 129 
65 37 25 24 34 61 108 164 205 226 231 226 209 179 137 94 60 39 28 27 35 58 99 149 190 212 218 211 190 152 107 70 50 47 60 90 134 175 203 218 224 224 219 210 195 176 154 133 114 96 79 64 52 46 48 62 91 132 169 191 192 172 132 85 48 28 21 21 30 50 83 128 167 190 196 188 169 140 110 87 73 66 60 53 45 37 30 25 24 27 40 67 111 159 194 211 213 197 162 111 
54 30 21 21 30 55 100 156 199 220 224 214 188 146 98 59 35 21 16 17 26 48 89 143 188 214 224 221 205 174 129 86 58 48 54 74 107 144 174 193 204 209 210 208 203 195 184 172 158 141 121 99 79 67 66 79 108 145 176 192 189 165 123 77 44 27 21 22 30 46 72 105 137 156 161 153 138 119 103 93 90 87 82 71 58 44 33 26 23 27 40 68 113 161 195 211 210 190 149 97 
47 26 18 18 26 49 90 144 189 211 214 198 163 114 68 37 20 12 10 13 23 46 89 145 191 218 228 227 215 187 144 96 63 47 46 57 78 106 133 155 172 184 193 199 203 204 204 200 193 182 163 140 115 97 93 104 130 161 185 196 190 166 126 83 51 34 28 29 36 47 65 85 104 114 115 110 101 95 95 101 110 116 113 100 80 60 43 33 30 35 52 83 129 173 202 214 209 185 140 87 
42 23 15 15 23 43 81 134 179 203 204 183 141 90 49 25 13 9 9 13 26 53 99 155 198 222 231 230 218 191 147 99 63 45 40 44 56 73 94 115 135 153 170 185 197 206 212 214 213 206 192 171 147 127 120 129 151 176 195 202 197 177 143 104 73 55 47 47 52 59 67 75 79 79 76 72 70 75 89 111 134 148 149 136 113 86 64 51 48 56 78 113 155 191 212 219 211 183 134 80 
40 21 14 15 22 41 77 128 173 197 196 172 127 76 39 19 11 8 11 18 35 68 117 170 207 225 231 228 214 184 140 93 59 42 36 37 44 56 70 87 106 127 149 170 188 202 212 217 219 214 203 185 163 145 138 147 167 188 204 210 206 193 168 138 111 93 85 83 85 86 84 78 69 60 52 49 52 65 90 125 157 176 181 172 151 124 99 84 82 94 118 152 185 209 222 224 212 182 130 76 
38 21 15 16 24 44 81 131 174 196 194 169 124 74 38 20 13 12 16 28 52 91 142 187 214 227 228 220 201 167 122 80 52 39 36 38 45 55 67 81 98 117 138 159 178 193 204 211 212 208 196 179 158 143 140 152 173 195 210 217 216 209 195 176 158 145 138 135 133 127 115 96 74 55 43 39 46 65 98 140 176 198 204 199 184 163 142 129 128 141 162 187 209 224 230 228 213 180 127 73 
38 23 18 20 32 55 95 144 182 201 199 175 132 82 46 26 19 20 28 46 78 122 168 202 220 226 221 205 177 138 96 64 45 38 40 48 60 74 87 100 113 126 141 155 169 180 188 192 191 184 171 152 134 122 125 142 168 194 212 221 223 221 214 205 197 190 186 184 180 171 152 124 92 64 47 42 51 75 114 158 192 211 217 215 205 191 177 169 170 180 195 211 224 232 234 228 211 175 121 70 
39 27 25 31 48 78 120 164 196 210 207 188 149 102 63 40 32 35 49 76 114 156 192 214 222 220 206 181 144 104 70 49 40 41 52 69 91 111 127 138 145 150 154 157 160 161 162 160 154 144 129 112 97 91 99 121 154 186 209 222 227 228 226 222 219 216 215 214 210 202 183 154 117 84 63 57 68 96 136 175 203 218 223 221 213 204 194 190 192 200 211 221 229 233 232 224 203 165 113 67 
43 36 39 53 77 112 153 188 210 219 217 202 171 129 89 64 56 62 83 115 153 187 210 221 220 209 184 147 106 71 48 37 38 48 70 101 132 157 172 179 181 178 171 160 148 136 126 118 108 97 84 72 63 62 72 96 132 171 200 217 226 229 229 228 227 226 226 226 224 217 202 177 144 112 91 86 98 126 161 191 211 220 221 217 209 199 191 188 191 199 209 218 224 226 222 211 187 148 102 64 
51 53 65 88 118 153 185 209 222 227 225 213 190 156 120 96 89 99 124 157 187 209 221 223 214 192 155 111 72 46 33 31 38 59 93 135 172 195 207 210 207 198 182 159 133 110 92 79 69 60 51 44 40 41 51 72 107 147 182 205 216 221 223 223 223 223 224 224 222 218 207 189 165 141 126 124 137 159 184 203 213 215 211 201 189 176 167 164 168 177 188 198 204 205 200 185 160 124 88 62 
65 79 102 132 163 190 210 223 230 232 229 219 201 174 145 124 121 135 161 188 209 222 226 222 205 172 126 80 47 30 24 27 41 70 115 164 199 219 226 227 221 208 185 153 116 86 65 53 45 39 34 30 28 30 38 54 82 119 154 180 195 201 203 203 203 204 205 206 206 203 197 187 174 163 157 160 171 186 200 208 208 201 188 170 151 134 123 120 124 133 145 157 164 165 159 145 123 97 75 64 
84 110 142 173 197 214 225 231 233 232 227 217 200 177 153 138 139 156 181 204 220 228 228 219 195 154 101 58 32 21 19 25 43 79 131 182 215 230 235 233 225 208 179 139 98 67 48 38 33 29 27 25 25 26 32 43 63 90 119 143 157 163 164 163 162 162 164 166 168 169 169 168 168 170 176 184 194 202 207 204 194 175 151 125 102 85 75 72 76 84 94 104 111 113 109 99 86 73 66 69 
104 138 173 199 216 226 231 233 231 227 219 205 185 161 139 129 134 155 182 206 221 228 227 215 187 140 85 45 24 16 16 24 44 83 139 190 221 235 238 234 223 201 165 120 79 53 38 32 29 28 28 27 27 29 32 40 52 69 87 102 110 112 111 108 106 105 107 110 113 118 124 133 146 163 181 195 205 208 205 192 169 139 107 80 61 48 42 41 43 48 55 62 67 70 69 65 61 59 63 78 
118 155 187 209 221 227 228 227 222 214 200 180 155 128 109 101 110 134 165 194 214 224 224 212 182 134 79 41 21 14 15 23 43 83 140 191 222 234 236 230 215 186 143 97 62 42 34 32 33 35 36 38 39 40 42 47 53 61 69 73 73 70 65 61 58 57 57 59 63 68 77 92 116 145 174 196 206 206 195 171 137 100 69 48 35 28 25 26 28 32 37 42 46 49 50 50 51 55 65 86 
121 155 183 202 211 215 215 211 202 189 168 142 113 89 73 69 77 100 134 171 199 215 219 210 183 137 83 44 23 15 15 22 41 79 134 187 218 231 232 223 202 166 118 76 48 36 34 37 44 51 57 61 64 65 66 67 69 70 69 64 57 49 41 35 31 30 29 30 32 37 45 60 87 124 162 189 201 197 178 144 104 69 45 31 23 21 21 24 28 32 38 43 47 50 52 53 55 60 71 91 
114 138 160 176 184 187 186 180 169 152 128 101 75 56 45 43 49 67 98 138 176 202 213 210 189 149 97 55 30 19 16 22 38 72 125 178 212 226 226 215 188 144 96 59 40 35 39 51 66 82 95 103 106 107 107 106 103 98 89 76 61 47 36 28 22 19 17 17 18 21 27 41 66 105 148 179 191 184 157 117 77 48 31 24 21 23 28 34 42 50 58 65 70 74 75 75 74 75 81 93 
98 110 122 132 139 142 142 137 128 113 93 71 52 38 30 27 31 43 67 103 147 184 206 210 198 167 122 76 45 27 20 22 35 64 113 166 203 219 220 206 174 127 80 49 37 39 52 75 101 125 143 153 158 158 156 153 148 139 126 107 86 65 48 35 25 19 16 14 13 15 20 32 56 94 137 170 181 169 137 96 60 37 27 24 28 35 47 61 75 89 101 110 117 119 119 115 108 100 93 92 
81 79 81 85 89 92 96 97 95 88 75 59 44 33 25 21 22 29 45 75 118 164 197 211 208 188 153 108 69 42 29 26 34 58 101 153 193 212 214 199 166 119 75 49 42 51 74 107 142 169 186 194 197 196 194 191 187 179 168 150 128 102 78 58 42 31 23 18 16 16 21 33 56 92 135 165 173 158 123 82 51 34 29 32 44 61 83 107 128 145 158 166 171 172 169 161 147 128 107 90 
66 55 51 50 53 58 66 75 83 85 80 68 54 40 29 22 19 21 32 55 94 145 187 211 217 208 184 146 104 68 44 33 36 54 91 140 183 206 210 197 166 122 82 59 57 73 104 143 177 200 212 217 217 215 212 210 208 205 199 188 172 150 125 100 77 58 43 33 27 26 30 43 67 103 142 168 172 153 116 77 50 37 37 49 71 101 133 161 181 195 204 208 210 209 205 196 179 152 119 88 
58 42 34 33 36 43 57 75 93 105 107 98 81 60 42 29 21 19 25 42 77 127 177 209 223 222 209 182 144 102 67 46 41 52 83 128 172 200 208 199 173 136 101 82 83 104 138 174 201 217 223 224 221 217 214 212 213 214 214 211 204 192 174 152 128 103 81 64 53 48 52 66 92 126 158 177 177 156 119 81 55 45 51 72 105 144 178 202 217 225 229 230 230 228 223 214 196 167 126 86 
55 37 29 28 32 44 64 92 122 143 150 144 124 96 67 44 28 21 23 35 64 113 167 206 226 231 226 209 181 140 97 65 50 53 76 117 162 193 206 203 185 157 129 113 117 137 167 195 213 223 224 220 213 205 199 198 201 207 214 218 219 216 208 196 178 157 134 112 97 89 91 105 128 156 180 191 187 166 130 92 67 59 69 97 137 178 207 224 233 237 238 237 235 233 228 219 202 173 130 87 
60 41 33 32 40 57 85 122 157 181 191 188 171 141 103 67 41 27 24 31 55 100 156 201 226 235 235 227 207 173 129 86 61 56 71 106 149 185 203 206 196 177 157 145 148 164 187 206 217 220 216 206 191 176 166 163 170 183 198 211 220 225 224 220 211 198 181 164 149 140 141 150 167 185 199 204 198 179 146 110 83 74 85 115 156 193 217 230 236 237 236 233 230 227 222 214 199 173 134 92 
75 57 48 48 58 80 113 153 186 208 217 217 205 181 143 99 61 37 27 30 49 88 144 193 223 237 240 236 223 196 154 106 71 58 66 93 133 171 195 204 200 188 173 164 166 178 193 206 212 210 199 180 155 132 117 114 122 141 164 188 206 219 225 227 225 218 209 198 188 181 180 186 195 205 212 214 208 192 164 130 101 88 95 121 157 189 210 221 225 224 221 216 212 208 204 199 189 170 139 105 
104 88 78 78 88 110 142 176 203 220 229 230 224 207 176 132 85 51 33 31 43 76 128 181 217 235 241 240 231 209 170 120 78 58 59 78 113 151 179 193 194 186 174 166 166 174 186 196 199 192 174 145 113 87 71 67 74 91 118 148 176 197 212 219 222 221 217 211 204 200 199 202 208 215 219 220 215 202 179 148 118 98 96 111 137 164 182 192 194 192 186 180 174 171 171 173 172 165 149 127 
144 132 123 120 126 140 162 186 206 220 229 233 231 221 199 160 111 68 42 33 39 65 111 164 206 229 239 240 232 213 175 124 79 55 51 63 90 124 153 170 174 168 157 148 147 153 164 173 174 165 143 111 79 55 42 37 41 53 73 100 130 158 180 194 203 206 205 202 199 196 197 201 207 214 219 221 218 209 191 164 131 104 90 92 104 120 134 141 141 137 130 123 118 118 125 138 152 162 163 156 
181 175 168 161 158 160 167 179 193 207 218 225 229 225 211 181 136 88 54 37 37 54 91 141 187 216 231 234 228 208 171 120 75 50 43 50 69 95 121 137 142 136 125 116 114 119 129 139 143 135 116 88 61 41 30 25 26 32 43 60 83 108 131 150 163 170 172 172 171 171 174 181 191 201 210 216 217 212 199 176 143 109 83 72 71 75 81 83 82 78 72 67 66 70 82 105 134 161 178 183 
208 205 199 188 176 163 155 154 162 175 191 206 217 221 215 195 158 110 69 44 37 45 71 113 159 195 215 222 216 196 157 109 68 45 38 42 55 73 91 103 105 99 89 81 79 83 93 105 114 113 102 82 61 43 31 25 22 23 28 37 49 65 82 98 110 118 123 124 124 126 132 142 157 174 191 204 211 212 204 186 155 116 82 60 49 45 44 43 41 38 35 33 34 41 56 85 125 165 191 204 
223 222 215 201 179 152 128 115 115 127 147 172 194 209 212 202 176 134 89 56 40 40 55 84 124 161 187 198 193 173 137 94 61 43 37 40 49 62 73 79 78 71 62 55 53 57 67 82 97 107 106 95 78 61 46 36 29 26 25 28 33 41 50 59 68 73 76 77 78 79 85 95 111 133 158 181 199 208 207 194 168 130 90 59 40 31 26 23 21 19 18 18 20 28 46 79 126 172 203 218 
231 229 221 202 172 132 96 75 69 77 96 126 159 188 204 205 189 157 113 74 49 40 44 61 88 119 146 160 160 144 115 83 59 46 43 47 55 64 70 70 65 56 47 41 39 44 55 74 98 118 128 125 113 96 78 61 48 39 33 31 31 34 38 43 47 50 51 50 48 48 50 57 70 90 118 150 179 199 207 202 184 151 110 72 45 30 21 16 14 13 12 13 17 26 46 82 133 180 211 226 
233 231 220 198 159 111 71 47 38 41 56 83 121 162 192 205 200 178 142 100 66 46 40 46 60 81 102 117 122 115 100 82 68 62 63 69 77 83 83 76 65 52 42 36 35 41 56 81 112 141 159 164 158 144 124 103 83 66 54 47 44 44 46 48 50 50 47 43 38 35 33 35 42 56 81 115 153 185 204 208 199 175 139 98 64 41 27 19 15 13 13 15 20 30 52 90 141 187 215 229 
230 227 215 189 146 95 55 32 23 23 32 54 91 138 180 203 208 197 170 131 90 60 44 39 44 55 69 83 94 99 98 95 92 94 100 108 116 118 111 96 75 56 43 36 37 46 67 99 137 169 189 197 195 186 170 150 128 108 91 81 75 73 74 75 75 72 65 55 44 35 28 26 28 36 54 84 125 167 198 212 211 198 172 136 98 67 45 32 25 22 21 23 29 40 62 99 147 188 214 226 
219 216 204 176 133 84 47 27 18 16 22 39 73 122 172 203 215 212 194 162 121 81 54 40 37 42 51 65 82 99 113 123 132 140 148 157 162 160 146 122 92 65 48 41 45 59 87 125 164 193 210 217 217 212 201 186 169 151 136 126 122 121 123 124 123 117 105 86 66 46 32 24 22 25 37 61 100 148 189 212 220 216 201 175 143 109 81 61 49 43 40 41 46 56 75 106 144 178 202 214 
194 194 184 160 122 79 47 28 18 16 20 34 66 116 169 205 221 223 213 189 151 106 69 46 37 37 45 60 84 112 139 159 173 183 191 196 198 192 176 145 108 75 56 50 57 78 113 153 188 210 222 226 226 221 213 202 190 178 170 167 167 171 174 177 176 170 156 132 101 69 44 28 21 20 27 45 79 128 177 209 224 227 221 206 185 158 132 109 93 82 77 75 75 79 89 107 131 155 174 187 
152 159 157 142 115 81 53 34 23 19 22 36 67 118 172 208 226 230 225 208 176 130 85 54 40 37 44 63 94 132 166 190 204 212 217 220 219 211 192 159 117 82 62 59 72 102 141 179 206 221 228 229 226 219 210 198 188 182 181 186 194 202 209 213 213 210 198 176 142 99 61 36 23 18 22 35 63 109 162 202 224 232 232 225 214 198 180 162 148 137 129 123 116 109 104 103 109 119 131 142 
103 117 127 127 115 92 67 46 33 26 28 43 75 127 179 213 230 235 232 219 191 147 97 61 42 38 46 68 106 150 187 210 222 228 230 230 227 216 195 159 116 82 65 67 87 124 165 198 218 227 230 227 219 206 190 174 163 161 168 182 199 213 224 230 232 231 224 207 177 131 82 46 27 18 19 28 50 90 143 189 218 231 235 234 228 220 211 201 193 185 179 170 158 139 116 96 84 80 83 91 
65 84 105 122 125 113 91 66 47 37 37 51 86 137 187 218 233 237 235 224 198 154 102 63 43 38 47 72 114 163 200 221 231 235 236 234 227 213 186 147 105 74 63 70 98 140 181 210 225 230 228 220 205 182 155 133 120 120 134 157 185 208 225 235 239 240 236 225 200 158 105 59 32 20 17 23 40 72 119 169 204 223 231 233 232 228 224 220 217 214 210 202 187 161 125 89 64 51 48 53 
44 67 98 128 144 141 121 92 65 49 46 60 95 146 192 221 234 238 235 223 196 151 98 60 40 36 46 72 116 167 205 226 235 238 237 232 222 202 169 126 87 63 57 69 101 147 188 215 227 229 224 210 185 150 114 87 73 75 90 119 155 190 215 231 239 242 240 233 214 178 126 75 41 24 18 21 32 55 93 139 178 203 216 222 223 223 223 223 224 224 223 217 202 174 130 85 52 35 29 32 
39 66 105 144 168 170 152 119 84 61 54 66 100 149 194 221 233 237 232 218 187 139 87 52 35 32 41 67 111 163 203 225 234 237 235 227 212 186 146 102 68 51 49 65 98 145 187 213 225 226 218 198 163 119 79 53 41 42 54 80 117 159 195 219 232 239 240 235 221 193 146 94 54 31 22 21 27 43 69 104 140 168 184 193 198 202 206 212 218 223 226 222 209 181 135 85 48 29 22 25 
46 79 124 165 189 192 174 138 97 67 57 66 98 145 190 218 231 234 227 209 173 122 73 42 28 27 36 59 100 152 195 220 231 233 229 219 198 165 121 81 54 42 43 58 90 134 177 205 218 219 209 185 144 97 58 36 26 25 33 51 81 121 163 196 217 229 234 233 224 203 166 118 74 46 32 26 28 36 50 72 96 118 134 144 152 160 170 184 199 212 221 221 211 186 142 90 51 31 24 29 
67 105 150 186 205 205 185 146 100 67 53 60 88 134 180 211 226 229 221 199 157 104 59 33 23 22 30 50 87 136 181 209 221 224 218 204 179 142 101 67 47 39 41 54 80 118 158 187 203 206 196 172 132 88 53 32 23 20 24 34 53 84 122 160 190 210 221 225 222 209 183 145 105 72 52 41 36 36 41 50 61 72 81 88 94 104 119 141 167 192 209 216 211 191 152 103 64 42 36 44 
102 140 178 204 215 210 185 142 94 60 45 50 74 116 165 201 220 223 214 189 144 90 50 28 20 20 27 44 74 117 159 189 204 206 199 182 155 120 87 63 49 43 45 54 71 99 131 158 176 183 178 159 128 92 62 42 31 25 24 27 37 55 82 115 148 176 197 209 214 211 197 173 142 112 87 69 56 47 42 40 40 42 44 46 50 57 70 94 127 163 192 207 209 195 164 123 86 66 62 74 
