P2
100 100
255
135 129 118 126 139 125 133 124 121 134 115 119 122 128 131 136 138 116 124 135 121 128 132 123 128 119 131 117 135 126 116 139 126 135 115 115 119 128 121 119 130 122 119 135 123 115 139 137 121 115 129 135 123 116 121 116 117 122 124 117 137 132 134 115 122 137 139 125 119 138 118 123 138 121 120 116 132 117 123 126 118 126 119 116 138 119 127 132 140 123 131 119 137 121 128 121 133 138 139 133 
136 119 137 123 136 135 116 125 118 127 136 126 136 132 123 129 118 139 122 139 122 121 139 124 121 137 118 123 138 130 119 138 124 115 133 117 138 132 131 122 135 115 118 123 126 137 116 125 121 132 140 139 138 130 134 125 135 128 116 124 135 124 132 115 119 121 120 138 126 122 115 137 119 135 123 137 134 131 128 125 137 137 127 121 127 132 130 116 129 123 119 138 119 119 129 135 116 139 129 129 
125 133 118 126 136 138 118 122 126 125 136 123 138 117 122 133 128 124 139 115 136 129 138 135 127 135 116 115 140 122 126 119 133 133 116 117 136 135 134 120 138 119 121 138 128 116 122 134 119 120 126 133 122 131 122 125 116 129 124 123 122 130 118 121 139 132 138 134 125 138 139 130 123 130 138 134 118 134 115 117 128 126 131 133 134 119 134 125 115 126 132 121 129 124 124 134 128 130 135 124 
115 138 139 139 133 116 118 124 126 121 128 137 122 139 119 124 126 136 126 139 119 118 121 123 131 122 127 117 130 120 136 134 129 131 130 116 134 127 118 118 128 133 124 131 117 120 133 137 135 129 136 130 119 138 125 136 133 117 121 115 119 138 120 130 117 116 120 118 115 129 120 125 131 129 131 124 123 127 138 126 128 124 116 122 126 136 127 117 119 136 117 131 139 131 119 130 140 122 132 138 
136 130 135 125 123 124 138 126 115 129 129 119 132 127 135 123 121 126 136 122 134 129 136 129 128 118 137 120 137 130 124 124 121 129 119 121 127 134 126 131 119 139 125 140 128 122 118 127 127 117 135 127 126 129 139 134 118 131 132 138 134 126 121 139 120 116 135 140 120 132 136 119 127 135 119 136 132 122 136 138 115 132 137 132 127 122 125 131 138 120 136 116 135 126 134 129 123 123 116 129 
138 116 124 129 124 139 133 127 139 118 117 121 122 135 125 135 127 123 131 114 133 127 132 136 128 122 137 127 117 123 127 136 123 117 134 136 119 136 138 131 127 132 132 124 133 134 114 130 121 125 132 115 119 133 130 127 133 139 119 124 131 131 128 128 125 118 122 125 137 130 130 139 134 138 137 132 124 126 116 135 137 125 117 122 134 137 140 114 125 127 132 122 116 128 133 124 125 130 135 117 
123 115 133 137 125 139 128 115 119 125 120 117 135 126 139 136 131 130 121 124 139 116 140 134 117 136 131 137 136 120 130 117 117 128 119 137 126 117 139 128 134 137 139 137 132 133 136 117 137 117 136 127 115 117 119 131 123 118 136 129 129 131 129 115 131 120 139 121 119 136 116 135 131 134 140 133 127 129 139 137 119 123 122 118 126 118 139 121 117 131 140 134 132 139 118 137 116 135 117 121 
116 134 120 137 115 129 137 136 126 128 138 125 118 136 116 114 126 136 127 123 127 121 133 135 129 119 121 119 123 133 131 116 140 131 126 118 137 128 122 128 116 122 139 123 117 137 134 131 128 116 126 138 127 126 133 137 136 130 124 132 119 116 130 131 116 125 119 125 117 126 139 139 120 132 136 133 119 124 139 130 124 135 118 130 134 125 132 117 128 131 127 133 118 127 117 139 131 118 126 138 
120 136 130 118 137 132 134 139 121 135 121 121 115 121 122 122 133 140 125 126 134 137 118 136 126 125 121 139 125 116 134 122 130 138 115 116 128 127 129 139 115 124 122 138 136 132 121 122 133 131 130 136 118 115 124 119 120 136 121 123 123 129 120 129 124 125 139 129 134 124 129 139 139 115 133 136 124 129 135 124 133 129 118 118 124 139 135 119 123 126 122 134 131 120 124 119 127 137 121 127 
127 135 131 130 122 119 123 118 128 129 123 132 129 129 136 114 130 133 128 133 124 131 129 136 136 132 126 139 131 125 134 125 139 125 119 115 116 115 135 135 126 126 134 133 136 115 129 117 118 129 121 116 134 123 124 115 134 137 116 120 123 135 124 115 131 139 117 131 116 125 138 135 128 118 127 127 138 118 121 139 130 134 118 137 133 120 139 134 125 135 124 129 135 127 114 133 122 125 135 124 
138 136 127 114 129 134 128 124 114 130 134 116 138 137 138 122 120 131 131 122 120 130 118 116 118 130 130 139 115 135 124 128 139 125 123 117 127 128 123 117 139 139 118 133 122 128 136 135 115 127 135 136 134 131 131 120 118 136 119 116 117 124 121 135 123 138 122 135 130 138 138 136 129 119 123 120 119 130 131 122 131 126 134 128 116 125 131 138 125 131 133 119 120 130 128 121 115 136 123 131 
127 125 136 120 123 116 125 132 124 115 133 116 126 135 115 123 119 127 127 124 124 118 121 127 119 139 135 126 132 121 123 118 139 134 121 119 127 139 125 121 137 139 136 136 129 126 139 120 133 134 115 124 120 139 138 139 120 120 117 122 136 139 121 129 118 136 132 118 119 139 125 136 115 132 126 133 135 140 116 115 124 118 130 139 136 128 134 128 135 120 118 116 134 124 117 122 127 133 124 137 
119 135 129 123 125 132 124 122 137 132 135 125 120 133 120 130 116 137 138 117 132 115 116 129 128 128 136 127 131 129 137 131 118 135 140 129 139 127 118 125 120 126 134 117 130 136 120 122 123 133 130 123 136 134 129 137 139 119 130 121 129 132 128 115 127 140 137 119 134 138 131 127 116 135 128 129 117 136 130 123 139 124 139 138 129 135 137 129 132 133 126 128 128 131 116 116 124 116 127 135 
122 137 126 121 125 114 131 123 129 123 139 125 116 136 122 125 128 130 135 130 116 120 126 122 116 116 131 118 135 123 115 139 122 125 128 136 117 137 134 133 121 116 121 131 126 136 135 122 128 137 131 123 123 124 135 123 138 134 119 117 128 135 134 116 134 135 127 135 131 115 129 115 130 138 116 130 136 131 135 137 133 124 119 127 126 127 131 123 122 133 114 120 117 117 116 124 139 124 125 118 
126 129 133 124 122 138 127 120 129 120 130 126 128 117 136 121 118 130 120 114 128 116 138 117 134 128 119 120 127 132 138 119 130 125 139 137 124 123 120 136 138 120 130 120 132 118 126 119 139 125 134 135 120 116 124 136 132 117 129 130 120 126 119 132 116 139 115 128 118 127 123 120 136 138 119 121 119 135 126 122 119 121 127 119 124 118 123 136 133 124 130 132 121 128 136 138 127 127 133 119 
118 137 130 128 117 122 133 128 122 127 135 139 137 116 134 127 118 139 119 115 129 132 132 124 140 138 119 125 124 132 137 131 121 120 120 122 121 138 132 114 128 135 114 140 139 127 138 140 117 120 138 130 129 137 123 127 118 135 138 120 115 117 122 131 131 123 139 128 131 115 129 125 134 127 116 129 117 136 122 135 139 136 118 122 116 129 115 135 132 126 124 131 125 136 137 134 133 119 117 131 
124 129 137 127 118 126 127 121 131 116 122 116 136 137 136 118 139 115 122 115 137 125 122 129 125 131 129 128 119 137 126 123 123 116 118 137 139 133 125 118 138 135 123 131 116 129 131 132 117 117 132 131 121 121 116 119 130 115 121 124 114 136 125 136 120 135 140 117 115 128 126 130 136 121 137 127 120 122 131 134 114 124 134 120 131 135 129 118 124 140 139 131 126 125 135 134 126 131 139 128 
120 121 133 127 120 124 125 124 121 129 127 133 116 116 120 117 118 115 120 125 138 123 132 127 116 121 117 118 122 117 133 129 134 125 137 140 129 133 127 139 124 117 124 121 124 115 132 128 117 115 138 127 118 126 125 118 132 117 119 122 134 124 139 125 121 133 119 134 122 129 130 137 139 132 115 127 137 135 135 134 121 114 118 119 135 126 122 130 125 137 130 118 131 123 124 121 126 139 122 137 
126 135 125 129 136 125 131 137 120 127 123 137 126 125 138 134 125 139 123 136 131 133 122 135 128 126 131 117 126 118 129 133 114 137 126 127 116 124 115 126 138 115 115 138 115 136 134 136 121 125 133 133 116 136 137 114 135 138 129 139 130 125 133 120 129 118 125 139 136 137 126 126 120 136 130 133 124 115 134 127 124 135 130 115 129 130 124 133 129 129 139 132 130 117 117 130 132 123 139 118 
136 126 136 132 117 117 138 120 124 134 127 119 132 136 120 123 126 129 124 125 134 136 131 115 122 132 130 128 128 114 136 120 138 132 126 120 126 130 136 115 116 120 116 135 135 137 133 123 120 126 116 138 117 137 125 131 139 133 130 117 119 123 133 120 121 124 122 132 136 135 119 136 134 128 118 130 117 137 124 126 131 118 116 127 116 127 121 119 117 116 115 133 124 118 125 115 121 126 132 114 
131 136 137 119 119 115 138 122 136 128 127 118 136 129 129 135 138 116 114 118 125 129 123 125 135 137 133 128 131 115 132 128 115 126 136 127 118 121 118 138 139 118 125 130 117 114 123 138 133 134 131 136 115 124 126 123 134 134 127 126 125 123 133 116 138 117 117 118 137 137 116 115 120 131 125 117 118 133 130 123 123 122 118 132 120 132 140 122 125 128 129 127 136 134 137 133 116 136 129 124 
137 132 124 127 119 133 138 133 136 120 120 137 122 117 128 135 131 139 138 123 133 130 136 119 128 138 131 118 138 125 123 123 137 133 128 131 119 130 124 128 124 118 125 136 116 121 137 123 119 132 137 139 124 119 120 139 122 128 119 122 135 121 125 118 139 116 121 119 122 120 119 124 122 122 116 139 135 126 119 123 115 131 138 117 136 139 133 122 121 125 115 130 135 124 139 133 124 115 139 121 
125 120 134 118 123 131 129 123 126 117 131 132 131 131 133 117 126 124 122 124 135 131 124 136 133 127 115 115 134 115 130 123 120 134 133 128 128 121 137 125 133 120 122 121 133 134 127 132 121 128 139 126 131 125 138 119 120 139 135 134 115 133 129 124 118 136 129 120 120 126 125 118 120 127 125 134 124 118 136 114 116 117 134 129 134 116 136 122 132 136 126 131 122 136 136 134 125 139 136 133 
115 130 117 135 118 123 118 138 135 118 117 129 127 128 136 133 124 117 138 119 122 134 120 123 115 122 138 119 116 124 118 127 134 124 128 119 131 131 132 120 132 121 139 123 114 135 120 137 116 119 124 121 116 118 123 122 138 118 136 135 137 138 118 138 133 125 132 124 129 119 124 117 136 118 134 131 132 132 118 135 129 117 116 124 133 136 117 138 115 132 119 120 125 119 125 120 121 131 119 138 
128 120 126 114 125 129 123 123 130 128 132 121 115 136 122 133 135 131 135 129 130 120 115 124 116 121 134 130 119 117 116 133 140 134 122 118 135 128 115 127 125 122 118 135 135 128 139 115 131 134 134 126 121 123 139 130 137 116 136 119 125 116 115 119 118 124 119 133 135 119 133 132 133 132 133 115 128 127 125 121 122 119 124 133 134 133 120 133 137 117 125 136 123 134 119 115 139 125 129 136 
124 133 137 139 134 116 132 123 120 117 131 139 132 127 116 124 123 120 125 139 133 126 121 129 127 136 121 125 121 135 136 127 133 130 125 132 132 123 123 117 114 139 117 137 125 115 121 125 124 136 136 135 137 115 120 117 133 138 127 139 128 118 127 129 127 126 135 130 123 120 115 128 125 137 133 125 114 131 124 131 128 134 119 122 130 119 119 119 120 135 131 129 118 132 138 136 127 114 117 140 
123 138 117 136 121 132 118 118 130 114 139 136 134 123 134 137 138 118 138 124 123 128 139 131 119 123 133 115 135 118 136 125 119 127 139 115 128 128 122 120 121 122 128 131 125 140 124 122 133 130 125 121 135 120 122 139 129 131 125 135 136 137 118 136 115 126 115 117 131 129 136 116 133 125 131 132 139 124 124 135 129 117 130 119 131 119 115 134 139 137 128 131 122 128 128 134 137 117 134 138 
120 120 136 130 129 138 137 124 121 122 131 115 136 130 126 128 117 136 139 129 135 137 133 139 118 125 119 139 129 124 132 122 117 140 115 118 119 115 138 117 124 131 129 139 134 139 140 128 132 135 129 126 124 121 131 118 129 115 135 132 129 136 121 137 128 129 128 125 131 129 123 120 133 131 118 117 119 128 120 122 120 137 135 135 131 117 138 125 118 116 129 129 122 133 116 121 138 136 116 126 
137 118 136 137 138 125 133 119 137 125 120 137 137 114 118 125 126 123 122 138 131 125 121 131 136 138 133 140 117 133 137 137 130 137 119 118 139 127 126 129 125 121 116 121 115 120 129 128 124 126 126 132 120 115 116 125 116 139 134 125 116 127 133 128 121 130 116 117 116 124 134 135 115 127 139 122 122 133 131 134 134 130 119 133 118 115 135 131 133 116 138 138 117 124 139 135 117 135 121 130 
132 135 133 115 134 117 139 133 132 115 125 119 134 130 122 136 118 134 136 131 120 117 136 131 135 136 124 125 119 131 131 128 132 131 114 132 128 135 124 120 125 129 128 119 122 139 129 137 116 133 116 117 136 128 119 134 117 129 124 127 122 139 140 128 116 115 131 130 138 139 123 124 139 117 116 131 116 134 138 127 119 126 134 115 130 129 134 121 117 123 136 130 115 118 120 122 121 115 123 118 
125 128 117 132 119 127 133 136 129 135 119 121 140 135 139 140 122 115 122 118 120 115 119 132 135 123 119 124 135 117 122 138 119 120 115 128 117 133 132 124 116 128 122 131 120 131 115 135 128 125 130 120 120 134 124 118 133 123 136 118 131 132 120 116 118 121 124 119 118 114 132 123 130 116 120 117 139 117 115 135 131 135 128 120 117 136 138 132 135 128 120 115 115 128 123 115 118 132 128 137 
136 131 140 121 116 118 138 137 128 125 125 131 136 116 138 136 118 131 137 129 132 115 120 120 124 123 126 134 132 116 136 133 121 118 124 138 140 119 125 121 128 139 121 127 115 130 132 130 136 132 133 122 138 129 138 139 127 120 137 128 117 133 133 133 126 118 119 131 135 121 134 122 137 123 119 136 137 129 133 115 118 134 130 138 135 129 124 121 123 120 126 116 127 130 130 136 115 126 120 119 
131 117 115 115 134 120 120 129 139 132 115 125 117 133 118 134 123 115 131 117 122 131 129 128 133 121 115 135 132 140 138 128 129 116 122 125 131 127 116 116 127 124 129 117 118 129 126 133 126 132 137 125 139 139 118 124 128 138 125 126 126 137 120 121 120 119 134 121 121 119 137 139 129 133 125 122 138 128 120 138 132 138 121 138 119 133 129 130 122 129 123 124 133 126 127 122 118 120 128 123 
130 127 124 127 114 127 128 115 127 139 131 115 128 133 139 124 118 135 136 127 121 133 124 118 116 115 133 137 130 125 136 120 114 132 134 119 125 115 116 123 115 123 128 115 118 134 118 123 123 114 127 136 125 129 118 119 123 121 127 135 134 137 138 129 115 124 135 138 121 124 117 118 116 122 117 123 127 126 117 123 124 126 127 135 130 116 120 137 135 137 134 119 125 119 115 134 129 117 136 118 
131 121 135 120 126 132 119 135 123 133 117 135 124 124 126 138 125 131 121 126 135 133 119 128 121 133 126 120 134 133 132 129 129 115 124 123 120 127 117 132 119 120 126 115 129 117 126 118 117 128 115 118 119 138 134 135 132 126 127 120 116 119 132 123 135 132 138 116 136 134 133 130 125 120 127 120 128 121 117 136 138 129 119 140 136 130 120 123 137 139 129 137 118 130 133 117 136 138 135 138 
137 137 127 131 116 134 130 129 118 127 129 135 132 122 127 139 119 120 131 138 137 129 115 123 139 122 121 134 139 116 120 125 122 121 121 120 115 124 120 116 127 132 129 120 119 135 135 114 132 119 135 131 125 120 122 129 137 132 120 134 123 117 127 137 123 126 128 120 139 125 133 132 116 135 122 132 135 138 136 136 122 120 138 118 116 128 136 126 125 122 117 137 134 130 139 127 127 121 123 138 
122 133 129 121 126 116 127 119 137 117 127 121 117 119 132 124 118 133 117 136 124 139 137 122 138 139 115 127 127 129 117 139 122 139 123 129 132 134 127 118 125 128 132 135 129 115 126 132 133 133 130 125 137 127 119 131 121 116 139 138 127 125 140 126 139 123 126 121 115 124 116 122 121 138 121 114 123 138 115 138 135 117 139 135 124 115 115 138 139 129 123 132 133 117 128 137 115 133 128 137 
115 128 128 139 115 134 119 122 125 117 133 120 139 117 131 128 127 133 115 128 115 132 128 134 138 137 136 118 117 132 119 140 126 116 135 132 116 117 126 114 117 117 127 119 132 129 123 115 120 139 124 123 121 124 115 136 138 125 130 128 127 127 114 137 126 136 122 128 128 132 115 123 138 127 133 136 120 116 130 129 135 122 132 128 119 119 124 132 138 123 139 133 123 138 131 137 125 116 138 138 
126 139 140 127 132 116 123 130 129 134 120 127 133 124 119 134 119 123 118 136 125 126 131 138 130 128 134 119 139 138 119 132 126 139 124 126 127 133 136 121 129 128 134 138 135 116 130 117 122 134 137 135 117 135 137 129 138 128 118 137 116 136 116 117 118 124 122 120 134 128 121 116 134 137 116 136 118 122 121 138 127 115 120 115 116 130 127 130 134 132 127 115 138 125 116 135 133 131 137 131 
119 134 116 130 128 138 136 122 117 123 137 119 126 120 135 134 130 116 133 124 125 128 130 126 116 124 122 136 123 133 122 127 131 135 124 139 115 129 138 118 123 124 135 116 131 123 122 122 122 133 126 130 137 121 121 116 122 130 123 132 136 124 133 124 126 119 135 129 118 120 116 117 134 139 138 122 121 134 125 132 114 119 116 126 115 129 123 128 131 117 123 120 135 137 125 139 116 130 126 120 
129 115 119 138 130 131 130 137 124 134 137 115 138 120 124 126 124 140 131 127 128 117 137 132 132 122 129 132 123 139 115 121 137 134 118 118 123 121 135 124 135 118 128 119 126 135 138 129 123 130 119 128 127 139 121 136 133 120 128 139 121 120 132 121 121 138 137 121 133 132 138 130 117 124 116 116 123 115 129 119 117 120 135 115 127 120 117 132 136 139 130 117 121 130 119 123 135 128 123 132 
136 116 115 137 131 130 125 125 128 117 137 116 129 121 127 124 134 126 132 134 135 128 117 121 139 126 133 139 123 125 127 133 115 129 128 138 130 130 124 136 124 127 137 123 127 134 122 136 132 129 136 114 119 127 126 128 122 120 119 115 126 138 123 129 136 132 129 136 137 136 137 139 125 133 116 131 123 128 119 128 117 127 136 131 121 120 116 115 125 128 136 134 128 119 139 124 122 138 132 117 
121 125 136 119 127 128 129 139 125 137 120 130 115 125 128 126 119 129 122 129 137 120 128 138 135 137 125 117 126 114 139 132 118 117 120 139 132 134 114 131 135 139 128 139 134 129 122 128 135 118 133 116 124 120 132 129 120 125 134 134 136 134 117 136 136 123 115 128 126 127 127 129 122 125 120 128 138 125 115 126 135 120 135 119 115 131 119 120 126 136 121 117 119 122 120 124 126 119 120 116 
126 137 134 136 130 130 125 117 125 129 119 116 131 131 117 130 117 135 126 134 116 135 139 139 127 133 116 124 134 123 138 132 132 123 114 119 116 130 124 122 123 135 132 134 128 116 119 136 120 116 127 128 124 132 117 138 117 126 137 125 126 120 119 124 124 121 138 128 137 116 120 135 119 115 118 122 127 131 130 125 122 115 136 121 125 126 138 128 129 137 124 125 136 137 117 116 116 124 137 123 
116 122 121 118 131 122 126 135 123 121 115 130 127 126 127 116 117 136 132 122 134 133 137 134 119 115 136 129 129 127 130 126 123 123 134 131 134 136 122 136 130 126 117 133 120 120 116 127 115 118 132 129 136 134 120 119 125 140 130 128 139 130 126 117 121 135 116 131 136 117 132 124 131 124 128 139 122 123 130 126 131 121 121 130 120 114 135 136 121 135 129 132 130 134 122 138 116 139 125 126 
125 128 122 135 131 138 115 123 131 116 135 123 119 138 133 130 130 128 126 124 122 118 115 127 119 123 129 139 139 136 122 117 123 136 122 136 126 129 123 137 131 133 134 136 129 124 128 131 115 130 130 133 134 122 118 125 131 132 118 133 134 116 115 133 133 139 122 134 136 126 122 126 135 137 121 120 130 129 115 133 133 132 120 121 136 122 122 135 119 126 127 115 118 135 117 119 116 136 130 116 
120 125 132 137 115 119 126 138 137 116 133 133 121 123 135 135 122 134 135 137 122 125 131 117 128 117 139 124 139 132 138 135 137 137 123 136 125 125 118 115 131 119 116 127 126 123 124 128 137 139 115 136 134 125 118 133 119 126 117 115 125 134 128 124 137 115 119 140 125 131 130 136 117 135 129 131 126 128 126 116 139 137 124 133 131 129 139 137 116 118 116 136 133 129 122 129 115 129 116 135 
133 139 131 120 116 127 134 138 130 116 118 124 134 118 121 127 123 116 133 118 139 116 124 124 124 134 127 130 138 115 114 132 123 132 130 121 121 126 122 134 131 116 115 139 121 139 118 115 124 123 130 124 127 134 131 117 120 118 115 117 139 124 137 140 127 121 126 131 117 131 132 131 128 139 121 130 122 122 127 117 133 136 119 136 138 126 128 124 123 130 123 117 122 127 135 139 134 123 127 123 
136 128 131 137 126 120 128 127 124 132 137 125 129 122 131 121 126 115 130 128 118 122 122 115 138 132 133 133 140 130 134 133 128 122 134 132 139 130 115 123 137 125 136 129 124 129 133 135 139 139 131 133 122 126 126 133 127 117 134 123 120 116 132 132 139 136 135 121 137 137 126 118 137 123 138 116 136 131 132 138 117 125 123 117 132 128 133 126 129 124 115 133 138 133 122 125 132 132 127 131 
122 116 119 124 122 114 134 122 117 132 121 129 125 122 124 131 130 116 132 135 126 137 129 135 132 138 117 128 117 138 129 134 128 122 137 136 135 130 115 129 123 115 134 117 118 116 130 122 128 134 126 138 119 133 130 121 128 139 120 116 122 125 135 128 121 138 139 137 137 115 124 117 121 117 116 120 121 136 135 136 120 129 128 120 130 128 124 136 131 125 120 127 121 130 117 132 125 123 121 117 
135 133 127 116 131 128 127 117 131 126 135 114 135 127 116 129 125 131 114 117 129 139 121 130 131 132 121 139 119 121 119 130 128 139 118 125 133 118 139 121 136 124 128 125 130 134 134 121 139 117 135 127 117 128 139 133 139 124 119 137 117 124 130 136 138 127 117 118 138 136 138 131 122 131 135 131 121 131 134 114 127 128 116 126 122 117 129 127 127 119 134 139 137 131 116 134 128 135 119 117 
138 134 122 132 117 118 131 118 131 134 135 136 139 121 116 121 128 136 135 138 121 118 114 130 131 119 126 130 133 117 118 114 133 118 130 117 121 120 139 120 115 133 119 122 119 120 119 118 126 117 137 128 118 116 136 118 132 119 124 116 133 117 139 128 131 123 137 116 125 115 134 119 136 123 129 121 130 115 135 118 139 124 131 120 132 123 122 133 130 117 135 122 124 121 126 120 120 139 131 119 
118 120 117 118 135 130 124 115 130 115 123 123 121 121 125 120 123 115 126 128 124 126 124 134 126 133 129 129 123 134 115 126 132 121 114 119 116 131 125 124 122 117 120 130 136 129 114 121 121 136 123 128 117 139 119 125 125 121 121 138 115 129 131 120 118 119 129 122 135 134 116 123 129 136 138 135 127 122 135 125 124 119 116 132 121 127 136 129 129 121 128 129 134 125 129 123 123 131 138 124 
133 126 120 128 116 128 139 132 120 128 134 120 127 117 134 136 129 117 128 138 139 135 125 134 121 127 129 140 137 117 121 120 132 120 123 135 120 116 136 136 123 128 122 128 116 122 131 132 117 138 114 131 125 131 137 127 125 119 136 134 121 128 132 127 135 137 124 128 122 114 119 136 128 133 125 133 124 116 138 139 118 123 126 122 129 118 118 136 128 139 117 134 129 130 127 134 130 123 136 127 
122 128 128 119 130 132 129 128 130 127 133 118 122 136 130 135 135 124 120 131 117 127 131 122 135 132 136 131 133 132 134 135 115 129 129 118 135 118 137 115 128 118 125 132 124 115 137 127 123 114 121 135 138 129 121 122 134 133 117 126 121 118 133 116 115 129 137 116 128 115 136 134 135 125 121 115 129 134 140 119 117 125 127 139 119 120 122 139 138 125 129 128 126 117 135 119 132 136 121 116 
128 124 130 132 137 121 129 124 123 114 123 115 136 130 117 134 118 127 130 138 131 115 128 118 136 116 130 128 117 117 123 121 136 124 134 118 139 122 133 139 122 136 136 129 117 122 122 133 128 133 131 121 115 127 124 125 123 134 123 138 120 138 138 129 133 124 129 137 115 135 117 136 128 129 137 135 119 133 125 123 121 123 121 125 138 127 128 123 115 116 130 129 133 126 135 139 134 139 130 116 
136 134 116 114 121 130 126 118 119 139 132 138 128 139 140 120 140 121 125 137 124 138 133 139 117 127 134 120 136 133 119 122 139 134 119 123 115 128 114 123 139 130 127 132 136 122 134 115 132 132 127 138 115 129 125 120 130 127 132 115 116 128 140 127 133 115 135 132 133 118 129 130 118 138 119 136 115 121 118 125 120 126 122 120 139 122 138 131 123 129 125 139 137 124 124 116 120 128 129 134 
125 122 132 129 120 138 117 125 117 139 119 128 129 133 122 125 126 129 117 116 115 129 137 130 114 124 118 135 124 134 138 118 128 115 125 121 124 119 134 125 125 129 126 136 129 126 117 116 115 116 122 134 122 136 115 123 124 137 131 137 135 114 127 124 133 130 126 115 130 139 130 132 130 127 117 122 135 117 122 131 128 127 123 121 130 128 136 128 122 122 134 137 116 117 137 137 115 124 136 133 
132 119 117 114 129 121 134 117 128 139 126 130 116 138 132 132 116 124 123 123 122 121 138 137 122 130 132 115 129 137 122 130 119 126 133 116 127 128 130 115 139 137 122 118 139 123 121 124 130 135 127 140 119 128 116 119 128 134 131 140 138 134 115 122 125 139 118 126 136 119 123 118 139 124 126 128 138 116 128 121 140 135 125 127 117 115 132 132 131 123 124 139 138 137 134 136 128 130 135 133 
124 120 120 114 120 130 132 135 137 127 127 128 133 119 120 134 125 135 133 129 118 137 132 115 130 120 134 132 125 139 125 120 117 135 115 128 120 126 132 115 117 121 132 136 117 120 140 133 136 119 135 128 125 128 122 116 124 139 136 132 133 119 130 121 123 120 116 116 121 123 122 117 115 140 118 121 119 115 138 117 121 126 139 127 130 118 115 115 136 124 123 116 140 119 116 117 133 139 119 122 
122 127 122 136 127 131 128 121 136 121 120 130 139 121 134 114 131 119 132 131 139 138 116 129 125 125 125 135 116 131 132 125 119 130 127 138 128 120 138 132 133 121 116 134 126 120 125 136 120 134 118 130 139 122 126 120 114 117 127 127 129 116 129 140 127 121 135 116 128 138 139 136 119 115 133 117 127 121 128 122 135 131 121 127 122 119 125 127 130 116 116 115 131 118 119 138 131 127 118 134 
116 119 137 125 127 120 128 114 120 124 123 115 133 123 139 135 134 128 124 123 134 133 136 122 115 115 128 131 134 117 125 127 118 124 124 127 130 117 134 133 138 133 129 116 115 138 120 138 125 126 124 139 138 122 134 115 132 137 117 136 136 127 130 128 137 121 132 129 121 133 134 128 122 131 126 138 126 117 114 119 129 120 138 117 119 128 131 136 138 119 138 134 128 135 132 120 134 131 130 128 
115 131 138 128 121 131 134 126 133 124 123 134 136 118 115 137 126 137 124 124 122 127 128 138 124 132 132 132 130 127 127 132 120 119 131 132 139 124 137 139 118 133 120 135 118 137 122 135 128 127 137 116 131 127 115 124 131 131 132 140 124 139 118 134 138 120 125 138 138 129 130 118 139 138 135 122 131 117 135 134 135 117 119 122 118 117 115 127 125 131 135 118 125 123 138 137 116 125 130 117 
138 121 123 117 117 124 118 120 135 131 121 118 131 118 119 123 117 122 132 116 128 126 117 139 123 115 134 130 122 140 136 139 115 128 115 122 122 116 124 125 125 129 135 130 116 131 138 124 122 123 132 123 130 124 133 123 115 131 117 135 115 136 130 118 127 130 116 131 116 132 132 128 125 116 117 122 137 125 127 127 131 128 120 136 117 127 139 137 130 115 137 136 128 128 126 118 139 139 126 128 
132 131 121 123 118 126 126 135 134 134 139 132 125 125 116 132 118 126 138 120 129 140 131 126 136 121 139 127 123 119 133 130 122 137 123 122 120 120 130 116 117 135 125 138 117 129 126 120 132 130 137 137 131 131 125 136 132 138 136 127 134 139 137 115 133 117 120 138 126 115 135 124 116 119 116 139 129 137 120 123 129 138 118 121 135 121 133 128 132 116 132 125 133 121 128 123 131 130 118 129 
115 132 139 129 130 122 140 128 137 123 132 121 122 116 140 131 123 119 133 126 118 136 120 126 138 115 133 126 126 124 126 127 124 119 124 134 127 118 126 120 125 139 133 130 118 122 134 123 136 138 139 115 121 118 118 132 125 128 119 134 123 116 127 137 119 129 139 130 121 125 133 131 136 118 134 126 121 131 137 125 118 121 132 115 138 124 121 116 126 119 139 139 122 138 132 136 126 119 118 115 
119 125 115 119 117 121 132 121 127 132 132 139 124 139 128 130 136 135 122 128 130 124 136 121 118 137 125 124 126 126 137 124 124 117 132 119 124 138 139 137 127 132 131 136 140 117 132 124 126 118 116 136 135 137 114 120 124 130 118 123 134 138 131 127 132 119 115 138 119 138 131 130 133 130 120 114 131 135 140 124 116 138 127 133 118 127 120 135 123 122 124 128 119 124 126 129 135 137 125 128 
122 117 120 116 124 114 138 118 122 125 131 138 133 120 124 134 115 120 135 124 118 137 130 133 136 132 136 121 117 119 120 116 135 129 132 124 127 117 121 138 121 124 128 136 120 137 132 127 118 119 129 133 132 138 124 126 118 139 139 127 136 132 138 128 115 128 133 115 136 136 134 139 115 124 138 125 119 121 123 123 128 132 135 116 132 131 121 123 134 123 123 132 116 132 139 134 129 124 125 137 
115 133 117 133 125 120 133 120 139 128 122 130 126 119 127 139 128 139 136 133 132 121 118 134 125 116 135 129 125 131 124 122 122 115 135 128 129 134 124 121 134 124 129 128 125 122 115 127 127 124 135 114 117 119 115 136 129 125 139 130 131 114 135 138 137 129 130 134 136 119 135 115 128 120 120 122 121 135 121 139 129 117 135 124 129 136 121 131 135 139 115 128 135 122 126 138 130 136 119 128 
137 133 126 122 139 118 122 138 117 129 135 121 130 139 128 115 137 116 128 119 122 130 129 134 130 128 128 134 121 117 119 114 131 135 123 124 130 135 137 123 123 134 129 129 118 127 133 114 117 135 117 137 137 137 120 135 117 137 136 125 120 117 125 118 125 139 139 136 134 131 118 126 130 129 118 129 128 135 118 121 131 122 134 130 121 140 129 137 130 131 131 119 134 125 131 137 129 114 126 136 
126 132 120 140 137 123 129 121 139 135 129 130 118 134 137 131 138 135 123 120 132 122 135 135 139 118 132 116 115 133 124 134 129 130 122 131 125 133 127 116 122 137 136 138 127 132 122 131 117 135 120 115 120 127 132 127 130 116 123 124 135 120 135 129 134 132 130 139 132 123 114 137 123 120 135 136 138 133 125 133 135 120 139 120 124 139 119 132 122 132 128 126 120 132 127 126 125 115 125 127 
128 117 134 138 126 129 124 138 139 131 118 122 137 135 124 135 130 132 133 125 125 117 118 137 139 126 129 117 133 120 115 129 114 140 115 137 115 125 126 133 123 123 138 121 137 117 119 131 130 133 122 115 117 116 118 116 138 116 133 131 132 129 132 127 126 120 126 134 115 136 140 129 117 138 133 139 120 120 121 125 124 124 124 122 123 115 125 123 122 118 122 130 116 116 135 128 128 116 124 118 
123 129 139 135 130 131 118 115 140 138 126 136 119 115 139 124 135 117 115 114 128 128 115 135 125 123 134 132 119 116 127 135 128 116 124 131 127 138 119 130 118 134 132 127 130 120 132 137 114 139 139 120 125 120 119 130 115 131 138 116 128 136 120 116 115 123 123 119 130 121 125 120 125 133 136 134 127 133 128 134 121 116 123 115 115 123 132 132 115 139 135 128 119 120 123 130 139 119 135 126 
118 125 138 135 122 132 138 117 139 124 120 126 129 125 119 125 129 119 136 120 121 135 135 139 134 117 121 129 123 138 115 124 129 120 125 130 116 139 138 133 126 120 135 134 137 133 131 122 134 118 130 132 127 127 126 116 126 131 138 126 137 131 115 135 131 133 115 125 133 133 136 137 129 126 115 136 133 125 138 125 125 138 125 116 116 138 123 126 127 116 133 117 117 140 114 127 124 117 126 123 
120 131 133 130 124 125 117 123 129 126 118 127 133 120 120 130 121 130 138 133 127 136 131 137 122 123 119 116 116 133 138 139 116 117 131 139 115 130 133 122 130 129 128 118 118 138 128 119 116 136 138 123 125 129 121 128 129 132 134 117 122 115 121 119 133 119 134 136 118 132 121 117 134 115 123 136 123 119 124 137 122 125 137 130 123 138 128 118 134 132 115 115 139 133 133 124 124 130 119 115 
126 126 125 129 135 136 136 115 125 119 123 120 128 137 127 135 134 135 117 121 127 133 122 120 119 129 118 123 139 131 117 121 117 138 129 115 122 133 123 114 129 122 126 121 117 127 126 118 125 122 115 136 121 132 136 139 123 128 136 120 121 125 132 118 126 119 129 115 129 137 120 115 125 117 126 122 119 140 126 131 123 130 138 120 120 120 116 126 121 134 134 128 133 127 121 120 119 128 137 131 
131 123 135 119 134 121 124 117 130 138 122 124 134 116 115 118 123 131 123 133 135 128 123 123 134 121 115 138 119 125 123 123 126 132 128 128 135 131 114 138 118 126 134 118 123 119 139 135 125 138 116 136 124 121 127 115 124 132 122 130 133 125 127 115 131 119 135 115 138 122 127 122 122 125 130 134 137 132 139 133 115 130 132 131 125 127 133 122 127 125 125 128 121 122 122 137 131 134 118 128 
136 122 131 121 121 119 134 139 128 123 136 138 126 139 133 139 136 116 115 126 134 134 134 136 129 138 121 132 133 116 139 135 126 116 132 119 117 139 117 123 133 119 137 133 136 137 132 128 133 135 114 115 129 131 132 130 133 126 126 125 136 121 136 126 118 115 127 137 131 128 126 124 119 123 136 139 116 114 117 137 126 135 131 117 119 131 132 135 117 115 127 131 135 121 124 118 123 135 124 129 
127 122 136 129 136 118 118 135 135 127 128 131 133 121 131 115 129 117 118 121 122 115 126 120 118 131 116 121 137 119 120 137 115 123 120 120 139 139 130 137 128 121 130 119 128 128 118 131 128 137 130 135 120 115 114 126 120 129 130 120 137 119 125 136 126 125 128 128 118 127 133 119 126 135 139 136 116 119 133 120 129 129 128 117 116 132 122 116 119 139 131 123 134 136 138 137 131 139 138 131 
119 126 124 116 131 123 121 137 137 136 132 124 116 125 128 134 122 137 117 118 139 123 135 134 118 126 120 136 125 115 124 131 120 134 116 125 136 133 120 126 134 125 133 118 118 122 119 121 130 129 131 120 119 136 137 131 114 125 121 139 120 122 116 126 129 129 135 125 131 127 128 129 135 136 117 139 132 134 117 116 118 139 131 121 123 122 129 139 128 122 130 137 124 119 115 139 140 116 117 132 
125 134 139 121 124 122 131 132 124 114 137 125 117 123 127 128 133 121 132 131 120 135 123 132 138 132 127 138 124 130 117 123 123 123 124 123 117 117 131 130 133 137 121 128 118 118 139 135 122 135 114 127 138 137 115 136 134 127 130 139 140 135 123 133 121 134 128 129 139 131 114 125 138 138 137 130 118 116 125 120 139 134 124 121 131 129 135 119 127 140 131 133 123 123 139 133 139 117 122 132 
117 131 116 117 114 121 129 130 120 136 135 123 121 130 132 129 134 114 123 115 129 117 136 132 119 116 131 130 137 118 128 121 116 135 135 119 134 134 115 128 136 126 128 117 130 126 136 138 138 129 135 116 118 129 127 119 131 139 130 116 123 124 120 133 129 117 131 129 136 138 117 118 132 139 129 137 117 116 134 136 115 134 139 123 121 130 136 129 117 122 128 116 123 137 122 129 133 130 129 129 
129 136 129 121 135 130 125 125 133 136 125 130 121 122 114 124 130 121 124 115 118 123 132 118 133 125 133 115 136 129 117 136 118 122 123 128 126 136 116 139 120 138 134 128 117 139 133 117 134 118 123 131 133 130 137 119 117 125 127 124 129 123 122 127 125 135 123 127 119 120 116 115 115 140 138 133 123 133 126 134 116 127 120 127 115 132 126 126 137 137 132 131 133 129 133 116 119 126 125 130 
136 126 129 130 127 127 137 122 139 134 116 117 129 121 125 126 128 126 120 132 121 129 125 138 129 137 127 125 137 139 129 122 129 125 118 118 131 126 134 119 122 122 136 122 120 116 126 123 115 135 129 137 118 137 132 118 128 120 121 139 135 134 135 135 134 117 139 124 124 129 131 123 114 136 135 134 131 118 135 138 128 136 126 131 121 137 132 117 124 129 119 123 115 114 117 122 117 134 131 129 
121 120 134 127 137 139 123 129 122 123 115 136 124 138 121 136 119 119 130 128 116 117 139 134 124 123 128 138 129 134 127 122 133 126 120 123 119 126 124 138 125 123 131 130 119 124 114 135 119 119 130 119 139 119 137 133 127 119 119 132 125 128 120 130 139 138 122 128 121 119 127 131 115 120 123 133 136 135 119 121 123 137 139 127 130 122 131 120 133 129 119 125 118 134 116 137 139 139 119 128 
137 121 132 138 138 139 130 128 128 139 136 122 128 139 138 139 137 116 129 128 122 120 131 115 129 121 137 115 126 129 120 134 116 137 127 120 130 116 121 121 132 134 129 127 125 133 134 139 139 123 127 127 119 126 135 118 136 115 139 120 140 125 131 129 117 127 116 129 128 132 137 118 116 119 125 134 124 117 135 135 122 116 134 121 117 124 135 126 121 118 120 117 136 133 136 118 128 129 139 122 
134 132 121 119 131 128 117 127 130 135 126 130 127 124 122 124 129 128 137 126 128 138 115 134 119 128 119 131 120 136 125 120 121 129 117 125 134 116 132 124 119 116 115 127 131 128 127 136 139 123 124 130 128 135 122 130 136 126 116 117 122 119 116 127 133 127 120 134 139 124 139 131 134 136 140 125 139 139 123 115 121 134 128 120 129 124 128 129 126 132 138 126 119 128 118 133 129 121 125 139 
117 117 117 135 139 133 135 123 115 121 121 133 126 125 132 130 116 125 132 137 128 120 120 129 129 118 124 138 118 122 129 133 123 116 137 136 118 115 137 115 132 118 123 119 117 130 120 137 136 134 123 120 120 131 126 119 126 121 117 127 125 135 128 132 117 122 129 119 123 129 136 119 115 129 117 139 131 122 128 117 138 129 127 131 129 119 118 139 116 125 116 119 121 128 120 123 116 137 115 128 
127 139 118 125 126 129 129 117 124 117 116 120 133 140 134 132 124 133 137 127 138 121 132 121 121 137 129 118 121 119 130 118 121 126 124 122 131 123 126 140 120 121 120 119 135 126 121 120 119 135 120 121 137 127 134 123 135 140 130 124 137 130 118 130 117 138 119 120 130 121 136 126 138 132 127 132 116 125 131 129 122 132 136 130 116 118 134 126 117 129 121 122 128 134 116 138 121 136 119 128 
127 136 124 134 118 139 127 127 133 131 116 124 138 119 123 137 134 122 130 115 115 116 130 116 115 126 124 127 133 127 115 127 138 135 123 127 118 123 132 118 121 140 121 135 138 136 124 121 133 120 134 137 123 128 133 132 126 130 126 118 123 132 125 120 130 139 124 133 117 133 132 119 124 124 127 125 115 136 134 135 137 122 121 122 128 130 132 118 120 121 125 116 132 137 118 134 132 122 136 138 
136 130 116 139 118 116 127 115 131 115 118 128 126 118 129 138 139 134 131 121 115 132 133 138 117 123 137 118 128 115 127 138 117 120 128 136 137 121 129 116 116 137 124 124 138 126 135 135 130 115 134 137 133 120 127 133 133 135 127 118 134 123 130 139 123 125 134 115 118 127 130 120 123 127 121 119 117 117 128 125 125 115 119 130 132 127 123 139 128 134 133 129 123 135 118 134 135 133 125 130 
135 125 138 131 120 134 129 131 116 119 137 129 139 117 119 115 123 119 123 125 118 124 128 118 126 139 126 124 127 122 121 132 116 133 126 138 124 117 121 125 117 136 128 131 133 122 115 131 127 117 119 125 117 124 134 125 129 131 126 121 121 139 116 118 122 127 130 139 119 130 119 114 139 127 132 121 135 121 138 136 120 123 116 128 132 121 123 137 128 135 129 122 131 120 130 136 122 132 124 118 
133 116 122 136 126 129 114 128 122 121 121 138 137 115 133 138 138 117 119 138 122 126 136 136 116 119 134 128 115 130 119 121 116 138 129 124 135 135 134 138 136 122 124 116 118 127 125 114 131 132 122 137 122 137 134 128 130 131 124 137 133 132 118 126 135 121 139 134 127 139 134 124 117 115 131 125 137 121 138 131 127 124 132 138 117 127 124 127 122 117 123 125 115 126 134 123 127 135 128 120 
122 116 123 119 122 131 127 139 123 138 129 119 135 122 124 120 129 135 121 121 134 130 129 131 132 131 117 137 125 138 124 134 120 120 121 116 130 119 122 131 114 122 121 122 135 118 128 134 139 129 128 132 128 139 116 138 138 119 136 127 131 133 127 126 130 134 139 117 137 118 130 121 130 124 122 115 125 121 118 127 132 131 135 119 138 128 134 128 117 114 117 139 115 138 117 117 116 117 123 137 
134 135 138 130 120 120 130 139 125 134 125 120 127 116 122 125 138 127 133 131 138 124 129 127 119 136 122 128 125 136 135 123 134 118 133 121 118 117 132 138 122 122 128 132 125 115 133 129 124 127 139 125 122 130 125 132 128 127 121 126 138 133 124 133 116 130 130 135 114 127 127 123 123 119 130 130 134 135 121 118 139 138 130 135 128 119 126 130 121 130 121 125 138 133 128 138 133 127 120 131 
132 138 127 135 131 127 139 126 117 139 133 117 116 137 133 132 119 136 138 131 123 126 127 139 120 137 122 139 127 130 118 120 124 118 135 128 117 137 136 134 122 117 124 135 135 115 128 138 139 122 130 131 127 117 121 127 135 125 121 126 138 129 115 133 127 116 138 116 123 130 128 136 127 116 116 115 120 133 118 120 116 130 137 136 122 118 136 124 138 133 126 124 125 127 129 124 136 133 114 122 
133 132 123 139 118 135 118 138 116 115 134 119 135 136 130 137 116 137 130 134 120 124 129 116 117 120 127 121 123 122 131 129 129 134 130 123 138 125 128 116 134 128 131 123 136 122 119 135 137 122 139 136 126 114 134 123 137 122 130 122 123 119 115 132 134 117 134 116 137 120 130 126 133 131 117 119 118 126 127 117 130 139 121 131 136 127 132 123 127 136 131 125 125 138 137 135 118 131 120 117 
121 130 124 125 114 122 124 114 138 136 116 129 138 120 138 117 134 136 129 132 123 132 126 126 126 117 124 126 120 115 125 124 129 119 121 135 126 117 135 116 131 121 137 129 122 139 126 116 138 121 119 124 134 121 136 116 128 131 122 130 123 126 136 131 132 132 123 135 134 125 135 128 117 130 126 133 137 134 123 121 121 116 135 134 133 133 132 136 117 127 138 132 130 137 115 132 134 115 118 116 
123 119 133 126 124 138 135 117 133 137 117 126 116 131 120 133 118 136 139 123 136 135 117 125 138 136 127 116 118 121 133 127 124 139 115 136 135 126 129 120 130 119 123 117 136 134 135 126 128 116 129 139 135 136 119 116 139 129 134 123 127 130 132 129 138 117 118 127 115 129 136 138 117 121 129 134 126 117 125 129 123 127 127 116 119 117 115 119 119 139 129 137 136 125 120 118 133 125 128 121 
137 135 122 130 129 122 126 134 115 132 126 116 132 136 133 136 128 119 116 134 135 129 125 117 124 120 140 125 123 129 135 135 131 137 117 137 116 119 132 125 136 129 137 125 129 127 122 127 133 136 120 120 136 128 117 120 130 132 119 114 117 133 125 133 133 129 139 139 129 124 137 138 131 116 119 126 132 129 123 140 136 115 115 125 118 134 120 123 124 132 127 139 118 136 115 127 137 138 117 121 
