P2
100 100
255
130 144 157 165 165 155 136 115 95 83 79 84 97 117 139 157 167 168 160 142 119 96 77 66 61 62 69 80 95 113 130 143 150 151 146 138 128 117 107 99 93 90 89 92 98 109 122 136 148 155 156 150 138 121 104 89 79 73 72 74 80 90 103 116 127 137 144 149 152 152 150 145 138 132 126 121 116 111 104 97 90 82 75 68 64 63 67 78 96 119 142 160 168 167 157 143 128 117 114 118 
154 164 172 174 167 151 127 102 82 70 66 71 84 104 128 148 161 164 157 141 120 98 80 70 66 68 75 86 100 115 128 137 141 140 136 130 125 120 117 114 111 108 105 102 101 103 109 118 128 137 143 145 142 135 124 114 104 97 92 88 87 89 92 97 103 110 117 126 136 146 154 159 161 160 157 152 144 133 119 103 88 75 65 59 55 56 61 73 91 115 139 157 166 168 162 153 143 138 138 144 
172 180 184 181 170 149 122 94 74 62 59 63 76 96 120 143 158 163 159 146 127 108 92 83 80 83 90 100 111 121 128 130 129 125 121 119 119 123 128 133 135 133 128 119 110 102 99 100 106 116 127 137 145 148 147 142 135 127 118 108 99 91 86 83 83 87 93 105 121 139 156 169 178 181 181 177 168 154 135 112 91 75 63 57 55 57 64 76 94 116 137 153 161 163 160 154 150 150 155 163 
182 189 191 186 173 150 120 91 70 59 56 61 74 94 119 142 159 166 164 154 140 125 112 105 103 106 113 121 127 130 129 123 115 108 104 105 112 124 138 150 158 158 152 140 123 105 92 86 87 95 109 126 143 157 165 167 164 156 145 129 112 96 83 74 70 71 77 90 109 133 157 176 188 194 195 192 184 169 148 123 98 79 67 62 61 66 74 87 104 122 138 148 152 152 149 146 147 152 161 172 
185 192 194 189 175 151 121 92 72 61 59 65 78 99 123 146 162 170 169 163 154 143 135 131 131 135 140 144 145 140 130 116 102 92 87 90 102 121 143 163 175 179 174 159 137 112 90 77 73 78 93 114 139 161 176 183 184 178 165 146 123 100 82 70 63 63 68 81 103 130 157 178 192 199 202 199 191 177 157 131 107 88 77 74 76 83 94 107 120 132 139 141 138 133 129 128 132 143 157 172 
181 191 194 189 175 152 122 95 76 67 66 73 88 109 132 152 166 172 173 169 163 157 153 153 156 161 164 165 161 150 131 110 90 77 72 76 90 114 143 169 186 193 189 175 151 120 92 72 64 67 80 103 133 161 181 192 194 189 176 155 129 103 82 68 61 61 67 80 102 129 156 177 191 198 201 198 191 178 159 136 115 100 92 93 99 109 121 132 140 144 141 133 122 111 105 105 111 125 145 165 
173 186 190 186 172 150 123 99 82 75 77 87 103 123 143 159 168 172 171 167 164 162 162 166 172 177 181 180 172 156 132 105 82 67 61 65 79 105 139 170 190 200 198 186 162 129 96 72 60 60 72 95 127 158 181 193 197 192 178 156 129 103 83 70 65 65 72 86 106 131 155 173 185 191 192 189 182 170 154 136 121 112 110 116 126 138 149 157 159 154 142 124 105 91 82 82 89 105 128 153 
163 178 183 179 166 145 121 101 89 86 91 104 120 138 153 162 166 165 161 156 154 155 160 168 177 184 188 187 179 161 134 103 77 61 54 57 70 96 132 166 190 202 203 193 171 139 103 76 61 59 69 91 123 154 178 191 193 187 172 150 124 101 84 75 73 77 86 99 116 135 153 165 173 176 176 172 165 155 143 132 124 122 128 139 152 164 174 178 175 163 142 116 92 75 65 64 72 88 112 139 
153 169 174 169 155 136 116 101 95 97 107 121 137 151 159 161 157 150 142 135 133 137 145 158 171 182 189 189 181 163 136 104 77 59 51 53 65 89 124 160 186 201 204 196 177 147 113 83 67 63 72 92 122 151 173 184 184 176 160 138 115 98 87 85 88 96 106 118 131 142 150 154 155 154 151 147 141 134 128 123 124 130 142 156 171 183 190 191 184 168 142 110 83 64 55 54 61 76 100 128 
145 160 163 157 142 125 109 100 100 108 121 137 151 159 160 153 142 128 116 109 107 112 123 140 158 173 183 186 181 165 140 109 82 63 54 54 64 86 118 153 181 197 202 197 181 155 123 95 77 72 80 99 124 150 167 174 171 159 142 122 105 94 93 98 108 121 132 141 147 149 146 141 134 128 123 118 115 112 111 114 121 133 150 167 182 193 199 198 189 170 141 107 78 59 50 50 56 71 94 121 
142 154 154 144 128 112 101 98 103 117 134 150 160 162 156 142 123 105 91 83 81 87 99 118 140 160 174 180 178 166 145 119 93 74 63 61 69 87 115 147 173 190 196 194 182 161 134 109 92 87 94 109 130 150 161 163 155 139 121 104 94 92 99 113 131 147 158 163 162 155 143 129 115 104 97 94 94 95 99 106 118 134 153 171 186 197 201 200 190 170 140 105 76 58 50 50 58 73 96 121 
145 151 147 133 116 102 94 96 107 125 144 159 166 163 149 128 105 85 71 64 63 69 81 99 122 144 162 172 174 167 152 132 110 92 81 77 81 94 116 141 164 179 187 186 178 163 143 123 110 106 111 123 138 150 155 150 137 119 102 89 85 91 106 128 150 168 178 180 174 161 142 120 101 88 81 80 82 86 92 102 115 132 151 169 184 195 200 198 189 168 138 104 76 59 53 55 64 81 104 127 
151 152 143 125 107 94 90 96 111 133 153 166 169 161 142 116 90 70 58 53 53 59 70 87 109 131 149 162 167 166 158 146 131 118 107 101 101 107 120 136 152 164 172 173 169 160 147 135 126 124 129 137 146 151 148 137 121 102 86 78 79 90 111 139 164 182 191 191 182 165 142 116 95 82 76 76 80 86 93 102 113 128 144 162 176 187 193 192 183 164 135 104 78 63 59 63 75 95 118 139 
159 155 141 121 102 90 88 98 117 141 161 172 172 160 136 107 81 63 52 49 51 58 68 84 102 121 138 150 158 162 162 158 152 145 137 130 125 123 125 130 137 144 150 154 154 151 147 142 139 139 143 148 151 150 142 127 108 90 77 71 75 90 114 144 171 189 196 195 186 168 143 117 97 84 80 82 87 93 99 105 112 121 134 148 162 174 181 182 175 158 132 104 82 70 67 75 90 112 134 152 
166 157 139 117 98 88 89 102 124 148 168 177 174 159 133 103 77 61 53 52 56 64 75 89 103 117 128 138 146 153 160 165 167 167 163 157 149 139 130 123 120 121 124 128 133 137 140 143 146 148 151 153 153 147 136 119 101 84 73 69 74 90 114 144 170 187 195 194 184 167 145 122 104 95 93 97 103 107 110 111 111 114 120 130 143 155 164 168 163 149 128 105 86 77 78 88 106 129 150 163 
169 157 136 114 95 87 91 106 130 155 173 181 177 160 134 104 79 65 59 61 69 79 91 102 110 116 120 124 130 139 152 164 175 181 182 177 166 150 131 114 102 97 98 103 111 120 131 139 146 151 153 153 150 142 131 115 99 85 76 73 78 91 113 139 162 178 186 185 177 163 145 127 115 110 112 117 123 125 122 116 110 105 105 110 120 132 143 150 149 140 124 106 92 86 89 102 121 143 161 170 
168 153 131 109 92 86 92 109 133 158 176 183 178 162 137 109 87 75 73 78 89 102 114 120 121 117 112 109 111 121 137 157 174 186 191 187 175 155 129 104 87 78 76 81 92 105 120 134 143 149 150 148 143 136 126 115 104 93 86 83 85 94 110 129 147 161 168 168 162 153 141 132 127 128 133 139 143 141 133 121 107 96 91 92 99 111 123 133 137 133 122 109 99 96 101 114 133 153 167 172 
163 146 124 102 87 83 90 108 132 157 174 181 177 163 140 116 98 90 92 103 117 131 139 140 132 118 104 94 92 101 119 143 167 185 193 191 177 153 123 94 74 64 62 67 79 95 113 129 140 144 143 139 134 128 123 119 114 109 104 100 99 102 108 118 128 136 142 143 141 138 135 134 137 144 151 157 158 152 140 122 103 88 80 79 84 95 109 122 129 130 124 116 109 107 113 125 142 158 168 170 
157 139 116 96 82 79 86 103 126 150 167 175 172 161 143 125 113 110 116 130 145 157 162 156 140 117 95 80 75 82 100 127 156 179 190 189 174 148 114 84 64 55 54 61 74 92 112 129 137 139 134 128 122 120 121 125 128 129 128 124 119 114 109 107 108 110 112 114 116 119 125 134 145 155 164 169 167 158 141 119 98 81 72 71 76 87 103 118 129 134 132 126 121 120 124 135 148 160 167 167 
152 133 111 91 78 75 80 94 115 137 154 163 163 155 143 132 126 129 139 154 168 177 177 165 143 114 87 69 62 67 84 112 144 170 184 183 168 140 106 76 58 51 52 61 77 98 119 134 139 136 127 117 111 112 119 131 143 151 154 151 142 129 114 101 92 87 86 88 93 103 116 133 149 163 172 175 170 157 137 113 92 76 68 68 75 87 105 123 136 143 143 140 135 133 136 144 153 162 166 163 
151 132 111 91 77 72 75 85 101 119 135 145 148 145 140 136 137 144 157 171 183 188 184 168 141 108 79 61 54 58 73 100 133 162 177 176 160 131 98 71 56 51 55 68 88 112 132 145 145 136 121 107 100 103 115 134 154 169 176 174 164 145 122 99 82 71 68 70 78 91 110 132 153 168 176 176 168 152 130 106 86 73 67 69 78 94 114 133 148 156 157 154 149 146 147 152 159 164 166 162 
155 138 116 96 81 73 72 77 88 102 115 125 131 133 134 136 143 154 168 181 189 192 184 166 136 102 73 56 50 54 69 95 128 156 171 170 153 124 93 69 57 55 64 82 107 132 152 159 155 139 117 99 89 93 109 134 161 181 191 191 181 160 132 101 78 63 58 60 69 86 109 135 157 171 177 174 163 143 120 97 80 71 69 74 86 105 127 147 161 168 168 165 160 156 155 158 163 167 169 165 
163 148 128 108 90 78 72 73 79 87 98 107 115 121 127 135 146 159 173 184 190 190 181 160 129 96 70 55 50 55 71 97 129 155 169 166 149 121 92 71 62 65 80 103 131 156 172 175 165 143 115 92 80 83 101 129 161 185 199 201 192 172 141 106 78 61 55 57 68 87 113 140 161 174 176 170 154 133 110 90 76 70 72 81 97 118 140 159 171 175 174 170 163 159 157 160 164 170 172 171 
172 162 145 125 105 89 78 74 75 80 87 95 104 113 123 134 147 160 173 182 187 184 173 152 123 94 71 59 57 64 81 107 136 159 169 165 147 120 94 77 72 81 101 129 157 178 189 188 174 148 115 87 72 73 90 120 156 184 201 205 199 180 149 112 81 62 56 59 71 93 120 147 166 175 174 163 145 122 100 83 74 72 77 90 108 130 150 166 174 176 172 165 158 152 151 154 161 169 175 176 
180 174 162 144 123 104 90 81 78 80 85 92 102 112 123 135 147 159 170 177 179 175 163 143 118 94 77 69 70 80 99 124 149 167 173 166 148 122 99 85 85 99 124 153 179 195 202 198 181 151 114 83 66 64 79 108 145 178 198 205 201 184 155 118 86 67 60 64 79 102 130 154 170 175 169 155 134 112 93 80 75 77 85 100 119 139 156 166 170 167 160 150 141 136 135 140 150 162 172 179 
183 183 175 161 143 123 106 94 88 88 92 99 108 118 129 139 148 157 163 166 166 161 150 134 115 98 88 85 90 103 123 145 164 175 177 167 148 124 104 94 99 117 144 172 194 206 210 204 186 154 114 80 60 57 68 95 132 167 192 202 200 186 158 124 92 73 66 72 88 113 139 160 171 171 162 145 124 103 88 80 79 84 96 111 129 145 156 160 157 149 138 126 116 110 111 118 131 148 164 177 
180 185 182 173 157 139 122 110 103 103 107 114 123 131 139 145 150 152 153 152 149 142 134 123 112 104 102 106 116 131 149 165 177 182 179 166 146 123 105 99 107 128 157 183 202 212 213 206 188 155 114 78 57 52 60 82 117 154 182 196 196 184 159 127 98 79 74 81 99 122 146 162 169 165 152 134 114 98 88 85 88 97 110 124 138 148 152 149 139 125 111 97 88 83 85 93 107 127 149 168 
170 180 182 176 165 150 136 125 120 121 127 134 142 148 152 152 150 146 140 133 127 121 115 110 108 110 117 128 142 157 170 181 186 185 177 161 139 117 102 99 109 131 159 185 203 212 213 206 188 156 114 78 56 49 54 72 103 140 170 186 189 179 157 129 103 86 83 91 108 129 148 160 162 154 140 123 107 97 92 95 103 114 127 140 148 151 147 136 120 102 85 73 65 61 63 70 84 104 128 152 
154 168 174 171 163 152 142 135 134 139 146 154 161 164 164 159 149 137 124 113 105 99 96 98 103 114 129 146 162 176 185 190 190 184 170 150 127 106 93 91 102 124 151 177 196 207 209 203 186 155 116 80 58 49 52 67 93 127 157 175 180 172 153 129 106 93 90 98 114 132 146 153 151 141 128 114 104 100 103 111 123 136 147 156 159 155 144 127 105 85 68 57 50 47 48 54 65 83 107 133 
136 151 158 158 152 144 139 137 142 150 160 169 175 176 172 162 147 128 109 95 85 80 80 86 97 115 136 158 175 186 192 193 189 177 159 135 111 92 81 80 89 108 134 160 182 195 200 196 181 154 118 85 63 53 54 66 88 118 146 165 170 164 148 127 108 97 96 104 117 131 140 142 137 128 117 108 105 109 118 131 145 157 166 171 169 161 145 123 99 77 60 49 43 41 41 45 54 69 89 113 
119 133 139 139 134 129 127 131 140 153 167 177 183 183 176 163 142 119 97 80 70 66 68 76 91 113 139 162 180 190 194 192 183 167 144 118 95 78 69 67 74 89 111 135 158 175 184 184 173 151 122 93 72 62 62 72 91 116 140 156 161 155 141 124 109 101 101 107 118 127 132 131 125 116 109 107 112 122 137 152 166 176 181 182 178 167 150 127 102 79 62 51 44 41 41 44 51 63 80 100 
110 119 122 119 114 110 111 118 131 148 165 178 184 184 176 160 137 110 87 71 62 58 61 70 87 111 138 163 180 190 191 186 173 153 128 102 81 66 59 58 62 72 87 108 129 148 162 167 162 148 127 104 87 78 77 85 101 121 140 151 154 147 135 120 108 103 103 109 117 122 124 121 115 109 108 112 122 138 155 170 181 188 190 189 183 173 157 137 114 92 75 63 55 50 49 51 57 66 80 96 
111 114 111 104 97 93 94 102 117 136 156 171 179 179 171 154 130 105 82 67 59 56 59 68 85 109 137 161 178 186 185 177 161 138 112 88 70 59 54 52 54 60 70 85 102 120 136 146 149 144 132 118 107 100 100 107 118 132 145 151 150 142 129 116 107 103 105 110 115 119 118 115 111 108 111 120 135 152 169 181 189 192 192 189 183 174 163 149 132 115 99 87 78 72 69 70 74 82 92 103 
123 119 110 98 88 81 81 88 102 121 140 157 166 168 161 146 125 102 83 69 62 60 63 73 89 112 137 159 173 179 176 165 146 123 98 78 65 57 53 51 52 56 62 71 83 98 114 127 135 139 137 133 128 126 127 132 139 147 153 153 148 138 125 113 106 103 105 110 115 117 117 114 112 113 119 131 147 164 177 185 189 188 185 180 174 169 164 158 150 142 132 122 113 106 102 102 104 109 116 121 
141 131 117 101 87 78 75 79 89 105 122 138 148 151 147 137 121 104 89 79 73 72 76 85 99 119 140 157 168 170 165 151 131 109 89 73 64 59 57 57 58 60 63 68 76 86 99 112 124 133 140 144 146 148 151 155 159 162 161 157 147 135 121 110 104 103 106 111 115 118 118 117 117 120 129 142 156 169 178 181 179 174 166 159 155 154 156 161 164 165 163 159 153 147 143 141 141 142 144 145 
159 147 131 112 95 83 77 76 82 92 104 117 127 132 132 128 120 111 102 96 93 93 97 104 116 131 145 156 162 160 151 136 117 98 82 72 67 67 68 71 73 75 76 78 81 86 93 103 115 127 139 149 157 163 168 171 173 172 168 159 147 132 118 108 102 102 106 112 117 121 122 123 124 129 137 148 159 167 169 166 158 147 136 128 125 129 140 155 169 180 185 186 184 181 177 174 172 170 169 166 
171 160 146 128 110 96 85 80 80 84 91 99 106 113 118 121 122 122 121 121 121 122 125 129 136 144 151 155 154 148 136 120 104 89 80 75 76 81 88 94 99 102 101 99 97 95 96 100 108 120 133 147 159 168 175 179 179 176 170 159 144 129 115 106 102 103 108 115 121 125 127 128 131 135 142 149 155 157 153 143 129 114 101 93 93 101 118 142 166 185 196 201 202 199 196 192 188 185 182 178 
175 168 158 145 129 114 101 91 85 82 83 86 91 98 107 117 127 136 143 147 150 151 152 153 155 155 155 151 145 134 121 106 93 83 80 82 89 101 114 126 134 137 135 129 121 112 104 101 103 111 123 138 152 164 173 177 178 174 166 155 140 125 113 105 103 106 112 119 125 129 131 132 134 137 140 144 144 140 130 116 99 83 71 65 66 76 96 125 156 182 198 205 207 205 201 196 190 186 183 179 
169 168 165 159 149 136 122 108 96 86 80 79 81 88 100 116 133 149 161 169 173 174 173 171 167 162 155 145 134 121 107 94 85 80 82 91 106 124 142 157 166 170 167 159 146 130 115 104 99 102 111 124 139 153 163 168 169 165 157 146 133 121 112 107 107 111 118 125 130 133 134 133 133 133 133 133 129 120 107 91 75 62 52 48 49 59 78 109 144 173 193 202 203 200 193 185 178 172 169 168 
153 160 166 168 164 156 144 128 111 95 84 77 77 84 98 117 139 159 174 183 187 187 184 179 171 161 150 137 123 109 96 86 80 80 87 101 122 145 166 181 190 192 190 181 166 146 124 106 96 94 99 110 124 137 147 152 153 150 143 134 124 116 112 112 115 121 128 133 137 137 134 131 128 125 123 119 113 103 90 75 61 50 43 40 42 50 68 97 131 162 182 191 190 183 173 161 150 144 143 146 
131 147 162 172 175 172 163 148 128 108 91 81 78 84 98 120 144 166 181 190 192 191 186 177 167 155 141 127 114 101 91 83 81 84 94 112 136 160 180 194 202 204 201 192 176 154 129 108 94 89 91 99 110 120 128 133 133 130 124 119 114 113 114 119 126 134 140 144 144 140 133 126 119 115 111 107 101 93 81 69 58 49 43 40 42 50 66 91 122 150 168 173 168 157 141 126 114 109 110 117 
108 131 154 171 181 183 177 163 144 122 101 88 83 87 101 122 147 167 182 189 190 186 178 168 156 143 130 118 108 99 91 87 86 92 104 123 147 170 188 200 206 207 203 193 177 154 129 108 94 88 89 95 102 109 113 114 112 109 105 103 105 110 119 130 140 149 155 155 151 143 131 120 110 104 101 98 95 90 82 73 64 56 51 49 51 58 73 94 119 140 152 151 141 125 107 91 81 77 80 91 
92 118 146 169 183 188 185 174 156 134 112 97 90 92 105 124 146 164 176 181 179 173 163 151 139 128 120 113 107 103 99 98 99 105 117 134 155 174 189 198 202 202 196 185 169 147 126 108 97 94 96 100 105 106 105 100 95 90 88 90 96 108 124 141 155 164 168 166 158 145 129 113 102 95 94 95 96 96 94 88 82 75 70 68 70 77 89 105 123 135 138 131 115 97 80 67 59 57 61 72 
83 110 140 165 182 189 188 180 165 144 123 106 98 98 108 124 142 156 164 166 161 152 141 130 121 115 112 113 114 115 115 115 117 122 131 145 160 174 185 191 192 189 181 169 153 135 119 109 106 108 112 116 117 113 105 94 84 77 75 79 90 107 129 151 168 177 180 175 164 147 126 108 95 90 91 97 105 111 114 114 110 105 101 98 100 105 113 124 132 135 129 115 97 79 64 54 49 48 53 64 
83 108 136 161 178 186 187 181 168 150 130 114 105 104 110 121 134 143 147 145 138 127 117 109 105 106 111 118 126 132 135 137 138 140 145 153 162 170 176 178 175 168 158 145 131 119 112 112 118 127 136 140 138 129 113 95 79 69 67 71 84 106 133 159 177 187 188 182 168 147 124 104 91 88 93 104 117 130 140 144 143 141 137 135 135 137 141 144 144 138 125 107 87 70 58 51 48 49 54 64 
88 110 134 155 171 179 181 176 166 151 134 120 110 107 110 116 123 127 127 122 113 104 97 93 95 103 115 129 141 150 155 156 156 155 155 157 159 162 162 158 151 141 128 116 106 103 106 118 134 150 161 166 162 148 126 100 79 65 61 66 80 105 136 164 183 193 193 185 169 146 121 101 89 88 97 113 132 149 162 169 171 170 168 165 164 163 162 160 154 142 125 105 86 71 61 56 55 57 62 72 
98 114 131 147 159 167 169 166 158 147 134 122 113 109 108 110 112 111 108 101 94 87 84 86 93 107 125 142 157 166 170 170 167 162 158 155 153 149 144 136 125 112 99 90 86 89 102 124 148 169 183 187 182 166 140 109 81 64 58 62 77 103 136 166 186 195 194 185 167 143 118 99 90 92 104 123 145 163 177 184 187 186 184 182 179 177 173 167 158 144 126 106 90 78 71 69 70 73 78 87 
111 119 127 136 143 149 151 150 146 139 130 121 114 108 105 104 102 98 93 87 82 79 80 86 99 117 137 155 169 176 177 174 168 161 154 147 141 135 127 115 102 89 78 71 71 80 100 129 159 183 198 202 197 180 152 117 85 65 57 60 75 102 135 165 185 193 191 181 162 138 115 98 92 97 111 132 153 171 182 188 189 188 186 183 180 177 172 165 155 142 126 110 98 91 88 89 92 96 101 106 
124 122 121 122 124 127 130 132 132 129 125 119 113 108 103 99 95 90 85 81 78 78 83 94 110 130 149 165 175 178 176 169 160 150 141 134 128 121 112 101 88 76 66 61 63 75 99 132 166 191 206 210 205 189 161 124 89 67 57 60 75 101 134 163 181 188 185 173 154 131 111 99 96 104 120 139 158 171 179 182 181 178 174 171 168 165 161 156 147 137 125 116 109 107 110 115 120 124 126 126 
133 122 113 107 104 105 109 114 118 120 121 118 114 109 104 98 93 88 84 81 81 85 93 106 124 143 160 171 175 173 166 155 142 131 122 117 114 110 105 96 84 72 63 58 60 73 97 131 167 193 208 212 208 192 165 128 93 70 60 64 78 103 133 159 175 179 174 161 142 123 108 101 103 113 128 145 158 166 168 166 161 156 151 148 146 145 144 142 137 131 125 122 122 125 132 140 147 150 149 143 
137 119 104 93 88 88 93 100 108 115 120 121 118 114 108 102 97 92 89 88 90 96 107 122 139 155 166 172 170 162 148 133 118 107 102 100 102 105 105 99 90 78 67 61 61 71 94 127 162 189 205 210 205 190 163 129 96 74 67 71 86 109 135 156 167 168 160 145 129 114 106 105 112 124 137 149 156 157 152 144 134 126 121 120 121 123 126 128 129 128 127 129 133 141 151 160 166 168 164 153 
137 115 96 83 77 78 84 94 106 116 124 127 127 123 117 111 105 101 99 100 104 112 123 137 151 162 168 168 159 145 126 108 94 86 84 88 96 106 112 112 105 92 79 68 65 72 89 118 151 178 195 200 196 182 157 126 98 81 76 83 98 119 140 154 158 154 143 128 115 107 105 111 122 135 147 153 153 145 133 120 107 99 95 95 100 107 114 121 125 128 131 136 143 153 164 173 178 178 172 158 
135 110 90 77 72 74 83 95 110 124 134 138 139 135 130 123 118 114 113 115 119 127 137 149 159 166 167 160 147 127 106 87 75 70 72 81 96 113 127 132 127 113 96 81 72 73 85 107 135 160 177 183 179 166 144 120 100 90 90 100 116 134 147 153 150 140 125 112 103 101 107 119 134 147 156 156 149 135 117 100 87 80 78 82 90 100 112 121 128 133 137 143 151 160 170 178 183 182 173 157 
131 107 87 76 72 77 88 104 121 137 147 152 152 149 143 138 132 129 128 129 133 139 147 155 162 165 162 152 134 112 90 73 63 61 66 80 101 125 144 154 151 138 118 98 82 76 80 95 115 136 151 158 154 143 127 111 101 100 108 121 137 150 156 153 143 127 110 99 94 99 111 128 146 158 164 160 147 128 106 88 76 71 72 79 90 104 117 128 135 140 143 147 154 163 172 179 183 181 172 155 
129 105 87 78 77 85 99 118 136 151 161 165 164 161 155 149 144 141 139 139 141 145 150 156 160 161 156 144 126 104 83 67 59 59 67 84 110 138 161 173 173 161 140 116 94 81 79 85 98 112 124 128 126 118 109 102 102 110 125 142 157 165 164 154 136 116 98 89 89 98 116 137 156 167 170 163 146 124 101 84 73 71 75 85 98 114 127 137 142 144 145 148 153 161 170 177 180 178 169 152 
126 105 90 83 85 96 113 133 152 166 173 175 173 168 162 156 151 146 144 142 142 144 147 151 155 155 151 140 123 103 83 69 61 62 71 91 119 150 174 186 187 177 158 132 107 89 81 81 87 95 101 103 101 96 93 94 103 119 140 159 172 176 169 153 130 107 89 82 85 99 121 144 163 174 174 164 146 123 101 85 77 77 84 96 111 125 137 143 145 144 142 143 147 155 164 172 176 174 165 148 
124 105 92 88 93 107 127 148 165 176 181 181 177 170 163 156 149 144 140 138 136 137 139 143 147 149 148 140 127 109 91 77 69 69 79 99 128 158 181 193 195 186 169 145 119 99 87 84 85 88 89 88 85 82 82 89 104 126 150 170 181 181 170 149 123 98 82 77 84 100 124 149 167 176 174 164 145 123 103 90 85 88 96 109 122 133 140 142 139 135 131 131 136 145 156 166 171 170 161 145 
121 103 92 91 98 115 136 157 173 182 184 182 175 166 156 147 140 134 130 127 125 125 128 133 140 145 148 145 135 121 105 90 81 80 88 107 134 161 182 193 195 188 173 152 129 110 99 93 92 92 90 86 80 77 78 87 104 129 155 174 183 180 166 142 114 90 76 74 82 101 126 150 167 174 171 160 142 123 107 97 95 99 108 119 128 134 135 132 125 118 114 115 122 134 148 160 166 165 156 140 
115 98 89 90 99 117 140 161 176 183 183 178 168 156 143 132 124 118 114 112 111 112 117 125 134 144 150 152 147 136 121 106 95 91 96 112 135 159 177 187 189 183 171 154 136 122 113 110 109 107 102 95 86 80 80 88 106 130 155 173 179 174 157 131 103 82 71 71 81 100 125 148 163 168 164 153 137 121 110 104 105 110 117 124 128 127 122 114 105 98 95 98 109 124 141 156 163 161 151 134 
107 91 83 84 95 113 137 158 173 180 178 170 157 141 126 113 105 100 97 97 98 102 109 120 133 146 156 161 159 151 137 122 108 100 102 113 130 150 166 175 177 172 163 150 139 132 129 130 132 130 123 113 100 90 87 93 108 130 152 167 171 164 145 119 93 75 67 69 81 99 122 142 154 157 152 142 129 118 111 110 113 118 123 125 122 115 106 95 86 80 80 87 101 120 140 155 162 159 146 127 
98 82 75 76 86 104 128 151 167 173 171 160 144 125 107 95 87 84 83 85 89 96 106 120 136 150 162 168 168 161 148 132 116 105 103 108 121 136 149 157 159 156 149 143 138 139 143 149 154 154 147 135 119 105 98 100 111 129 148 160 162 152 132 108 85 71 66 70 82 99 119 135 143 144 137 128 119 113 112 115 120 125 126 123 114 103 90 79 72 69 73 83 101 123 144 159 163 157 142 120 
89 73 66 67 76 93 117 140 158 165 162 150 131 110 93 81 74 72 74 78 85 95 109 125 142 157 168 174 173 166 152 135 118 105 99 101 109 121 131 138 140 138 134 132 135 142 153 163 171 172 167 154 137 121 110 108 115 129 144 153 153 142 123 101 83 72 69 75 86 102 117 128 132 129 122 114 108 107 111 119 126 130 129 121 109 94 81 71 66 67 74 90 111 134 155 166 168 158 138 112 
81 65 58 59 67 83 106 131 150 159 156 143 123 101 84 72 67 66 69 76 87 100 117 135 151 164 173 176 173 164 149 131 113 100 93 93 99 107 116 121 123 122 121 123 130 142 157 170 180 182 178 167 150 132 120 116 120 131 143 150 148 138 121 102 87 79 79 85 97 109 119 124 122 115 107 101 99 103 112 123 132 136 133 123 108 92 79 71 69 74 87 106 129 152 169 177 174 159 135 106 
76 60 53 53 61 77 99 124 145 155 153 141 121 99 81 70 64 65 70 79 93 110 129 146 161 170 175 174 168 156 139 120 104 93 87 88 93 101 108 112 113 113 113 117 126 140 156 171 180 184 180 169 154 137 125 121 125 135 145 151 150 141 127 112 100 95 97 104 113 122 126 124 116 106 97 92 93 101 114 128 139 144 140 129 114 98 87 81 83 92 108 129 152 171 183 186 179 161 133 102 
73 57 51 52 60 75 98 124 145 156 156 144 125 103 84 72 67 68 74 86 103 122 142 158 169 174 174 169 158 142 125 108 94 86 84 87 94 102 109 113 114 112 112 115 124 136 151 165 173 176 172 161 148 134 125 123 129 140 150 156 156 150 140 129 121 118 122 128 135 139 137 128 115 101 90 87 91 102 118 135 148 153 150 140 125 112 102 99 105 117 135 155 174 187 194 193 183 162 131 99 
73 58 53 55 64 80 104 129 150 161 161 151 133 112 93 80 74 75 83 97 116 136 154 167 174 175 170 159 144 127 109 95 86 83 86 93 102 112 119 123 123 121 118 119 124 133 144 153 159 159 154 144 133 123 119 122 132 144 156 164 165 162 155 149 144 144 148 153 157 157 150 136 118 100 89 86 92 106 125 143 156 162 159 151 139 128 122 122 130 144 160 176 189 197 200 196 183 160 129 97 
75 63 60 64 75 93 116 140 159 169 169 160 144 123 105 91 85 86 95 110 129 148 164 173 176 172 162 147 129 110 95 85 82 84 92 104 117 129 136 139 138 134 129 126 126 129 134 138 140 137 130 121 112 108 109 117 132 148 162 171 174 173 169 166 164 166 170 174 175 171 161 144 123 104 92 90 97 113 133 151 163 169 167 160 151 143 140 143 151 164 177 188 196 200 199 192 178 155 125 96 
81 74 73 80 93 111 133 153 168 176 175 168 153 135 118 105 99 100 110 125 142 159 170 176 174 166 151 132 113 96 84 79 81 89 103 119 135 148 155 157 154 148 140 134 129 127 125 123 119 113 105 98 92 92 98 111 130 149 165 175 179 179 177 175 176 178 182 185 185 180 168 150 128 109 98 97 106 122 141 158 168 172 170 164 156 150 149 153 161 172 182 189 194 194 191 182 166 145 120 97 
91 89 94 103 118 134 152 166 176 180 179 172 160 145 130 118 113 115 124 138 153 166 174 175 170 157 139 118 98 84 77 77 84 97 116 136 153 165 170 170 166 158 149 140 132 125 118 111 103 94 86 79 77 79 88 105 126 148 164 174 178 177 176 175 176 180 184 188 188 182 171 154 133 116 106 107 116 132 149 163 170 171 167 160 152 147 147 151 158 167 174 179 180 178 172 162 148 130 113 99 
103 109 119 130 143 156 167 175 180 181 178 171 161 149 137 129 125 128 136 148 161 170 175 173 163 147 126 104 87 76 73 77 88 107 129 151 167 177 180 178 172 163 153 142 132 123 114 104 93 83 74 69 67 71 82 100 122 143 159 168 170 167 164 163 165 169 175 180 181 177 167 153 136 122 116 118 128 142 156 165 168 165 157 148 139 133 132 136 142 149 154 156 155 150 143 134 124 114 106 102 
117 129 142 155 164 172 177 179 179 177 172 166 157 148 140 134 133 137 145 155 165 172 173 168 156 137 114 93 78 70 70 78 93 115 140 162 176 183 183 179 171 161 150 140 130 122 112 102 90 80 71 65 64 69 80 97 117 137 150 155 154 149 143 140 142 147 154 161 164 163 157 146 135 127 125 130 139 151 160 164 161 153 141 129 118 112 111 113 117 122 125 125 122 117 111 105 101 99 100 107 
128 145 160 170 177 179 179 177 173 167 161 155 148 142 136 134 135 140 148 157 166 171 171 164 149 128 105 85 72 66 69 78 96 121 147 167 180 184 182 174 164 152 141 132 125 119 113 104 94 83 74 69 67 71 81 97 114 130 138 139 133 124 116 111 111 117 124 133 139 141 139 135 131 129 132 139 149 157 161 160 151 138 122 107 97 90 89 90 93 96 97 96 93 89 85 83 84 89 98 112 
136 154 168 176 179 178 174 168 160 153 146 140 135 131 128 128 131 137 145 155 163 168 167 160 144 123 100 81 69 64 67 78 97 122 148 168 179 181 176 165 152 139 128 121 118 117 115 110 102 93 84 78 76 79 88 101 114 125 128 123 113 100 90 84 83 87 94 103 110 116 119 121 124 129 136 146 155 160 160 153 139 121 103 88 78 73 72 74 76 79 79 78 76 73 72 72 77 85 99 117 
139 155 166 171 171 167 161 152 144 136 129 124 120 118 117 118 121 128 137 147 157 163 164 157 143 122 99 80 68 63 66 76 95 120 145 164 174 175 168 155 138 124 114 109 110 114 117 118 114 108 100 93 90 92 99 109 118 124 122 113 99 84 73 66 64 66 72 79 86 94 101 108 116 127 139 150 158 161 156 144 126 106 88 75 67 64 65 67 71 74 75 75 74 72 72 74 79 89 103 121 
137 147 154 156 154 149 142 134 126 120 115 111 108 106 105 105 108 114 124 135 147 156 160 157 145 127 105 85 71 65 66 74 91 114 138 158 168 169 160 145 127 111 101 99 103 112 120 126 128 124 118 112 109 110 114 121 127 128 123 110 94 79 66 59 55 56 59 65 71 79 87 98 110 125 140 152 158 158 150 135 114 94 78 68 63 63 66 71 77 82 86 87 86 86 86 88 92 100 111 124 
130 134 135 134 131 126 121 117 112 109 107 104 101 98 95 94 95 99 107 120 134 148 157 159 152 137 117 96 79 69 67 72 86 107 130 150 162 163 154 139 120 104 94 93 99 110 123 134 140 140 137 132 128 128 130 134 138 137 130 117 101 84 71 62 58 56 57 61 65 72 81 93 107 124 140 152 157 154 143 126 105 87 74 67 66 70 78 87 96 104 110 112 113 112 111 111 113 116 120 125 
121 117 113 110 107 105 104 105 106 107 106 104 100 95 89 84 82 84 91 103 120 138 154 162 161 151 133 112 92 78 71 72 82 100 122 143 156 159 153 138 119 103 93 91 98 111 126 140 149 153 151 148 144 142 143 146 148 148 142 131 117 102 88 78 71 67 65 66 68 73 81 93 108 125 140 151 155 150 137 119 100 84 75 73 77 86 99 112 125 135 142 145 146 144 142 140 137 133 129 125 
111 101 94 90 89 91 95 101 108 113 115 113 107 97 87 78 73 72 77 89 107 129 151 166 171 167 153 133 111 91 78 74 80 94 115 136 152 159 155 143 125 109 97 94 100 113 129 144 155 160 160 157 153 151 151 153 156 157 155 149 139 127 115 104 95 88 83 80 79 81 87 97 112 128 142 151 152 146 132 114 98 86 81 84 94 109 126 143 156 166 171 174 174 172 169 164 156 147 135 122 
102 89 81 78 79 85 94 106 118 127 131 128 119 106 91 77 68 64 67 77 95 121 148 169 180 181 172 155 132 108 90 80 80 91 109 131 149 160 160 151 135 119 107 102 105 116 132 147 158 163 163 160 155 151 150 152 157 161 164 164 161 155 147 138 128 119 110 102 97 95 98 106 118 132 144 151 151 143 129 113 99 92 92 100 116 134 153 169 181 188 191 192 191 188 184 178 168 154 137 119 
96 83 76 74 78 88 102 118 134 145 150 147 136 119 99 81 68 61 61 69 87 114 145 171 187 192 188 174 153 128 104 88 83 90 106 127 147 160 164 159 146 131 118 112 113 122 135 148 158 162 162 157 150 145 142 144 150 158 166 172 176 176 173 168 160 151 140 128 119 113 112 117 127 138 148 153 151 142 129 115 104 100 104 117 136 156 173 186 194 198 199 198 196 192 188 180 170 154 135 115 
96 84 78 78 85 97 114 133 150 162 168 165 154 136 113 90 72 61 59 65 81 108 141 171 191 199 199 189 171 146 119 98 88 90 102 122 143 159 166 164 155 142 129 121 121 127 138 149 157 160 157 150 141 133 128 130 136 147 160 172 181 186 189 187 182 174 163 150 138 129 126 128 136 145 153 156 153 144 131 118 110 108 116 131 150 169 183 193 197 198 196 193 189 185 180 173 163 149 131 112 
101 92 88 90 98 111 129 147 164 175 180 179 170 153 130 104 82 67 61 64 77 103 136 168 191 202 204 198 183 160 132 107 92 90 99 117 138 155 164 165 158 147 136 128 126 131 140 149 155 156 151 141 129 118 111 111 117 129 145 161 176 186 192 194 192 186 176 163 150 140 135 136 143 150 157 159 156 147 135 123 116 116 124 139 156 172 183 188 189 186 181 175 169 165 161 156 150 140 127 113 
112 107 105 107 115 126 141 156 170 180 186 186 180 168 148 123 98 78 67 66 76 98 129 162 187 201 206 202 190 169 141 114 96 90 96 110 129 146 157 160 155 146 137 130 129 133 140 148 153 152 145 133 118 105 96 93 97 108 124 142 160 175 184 189 190 185 177 165 153 144 139 141 147 154 160 163 159 151 140 128 121 120 126 138 152 164 171 172 169 162 154 146 139 136 134 134 134 131 126 119 
129 127 126 128 131 138 147 157 167 176 183 187 186 178 164 142 117 94 78 71 76 93 120 151 178 195 202 201 191 172 145 118 98 89 92 103 119 135 145 149 146 139 131 126 126 131 138 145 149 148 140 127 111 96 85 80 82 89 102 119 137 153 165 173 176 173 167 157 147 140 137 140 147 156 162 165 162 155 144 132 124 121 124 131 140 146 148 146 139 129 119 110 105 104 107 113 120 126 130 130 
148 149 148 146 144 143 145 148 155 163 172 180 184 183 176 160 138 113 92 79 77 87 109 137 163 183 193 194 186 168 144 118 98 88 88 96 109 122 131 135 133 127 122 119 120 125 133 141 145 144 137 124 109 94 82 75 73 76 84 96 110 125 138 147 152 152 148 141 134 130 130 136 145 154 162 165 164 157 147 136 126 120 118 119 122 123 120 114 105 95 86 80 78 80 87 99 113 127 138 145 
166 167 165 159 151 142 134 131 133 140 151 164 175 182 182 173 156 132 107 88 79 82 96 118 143 164 177 180 174 160 138 115 97 87 86 92 102 111 118 121 119 114 110 109 111 117 126 134 140 140 135 125 112 98 86 78 73 72 74 80 88 99 109 117 122 125 124 121 118 118 121 128 139 149 158 163 163 158 149 139 128 119 113 108 104 100 94 86 78 70 64 61 62 67 78 94 114 134 150 161 
180 180 175 165 151 134 119 109 106 111 124 141 159 174 182 180 168 147 121 97 82 78 84 100 120 140 155 161 158 146 129 110 96 88 87 91 99 105 110 110 108 103 100 99 102 109 117 126 133 136 135 129 120 109 99 89 82 77 74 74 76 80 86 92 97 101 103 103 104 106 111 119 130 141 151 157 159 157 151 142 132 121 111 102 93 84 76 68 61 56 53 53 56 64 79 99 122 145 163 174 
188 187 180 167 147 124 103 88 82 84 96 115 138 160 175 180 174 157 132 106 86 76 76 85 100 117 131 139 139 131 119 106 96 91 92 96 101 106 108 106 102 97 94 93 95 101 109 119 127 133 136 135 131 125 118 109 100 92 84 78 74 73 75 78 82 86 90 93 96 99 104 111 119 129 139 147 152 153 151 146 138 128 116 103 90 78 67 59 54 51 50 52 59 70 87 110 135 157 173 183 
189 187 179 164 141 114 90 73 64 65 74 91 117 143 165 176 175 162 140 113 91 77 72 76 86 99 111 119 122 118 112 104 99 98 101 105 110 113 112 108 103 97 92 90 92 96 104 113 122 131 138 142 144 143 140 134 125 114 102 91 83 77 75 76 79 84 88 92 95 97 99 103 108 115 124 132 141 147 151 151 147 139 127 112 96 81 68 59 54 52 54 59 68 82 102 124 147 166 179 187 
185 183 174 159 136 108 83 65 55 54 60 75 98 127 153 169 173 165 146 121 98 82 74 74 80 89 100 107 111 111 109 107 106 109 113 119 123 124 122 116 109 101 95 92 92 96 102 110 120 130 140 149 155 159 160 157 150 140 126 112 100 91 86 86 89 93 98 101 102 100 98 96 97 100 106 116 127 139 150 157 158 154 144 129 111 93 78 67 62 61 64 72 84 99 118 137 155 168 178 183 
173 172 166 153 132 107 83 65 54 50 54 66 86 114 142 162 170 166 152 131 109 92 82 79 82 89 97 104 109 111 112 114 117 122 129 135 138 138 135 127 118 109 102 98 97 100 105 112 122 132 143 154 162 169 173 173 169 160 148 135 122 112 107 106 109 113 117 118 116 109 100 92 87 86 90 99 113 130 148 162 169 170 163 150 133 114 96 84 77 77 82 91 104 118 133 145 156 163 168 171 
153 155 154 147 132 111 89 71 59 53 55 64 82 107 135 157 168 168 158 141 122 106 95 91 92 96 102 108 113 116 120 124 130 137 144 149 152 151 146 137 127 118 110 106 105 108 112 119 127 137 147 156 165 172 177 178 177 171 162 152 142 135 131 132 135 140 142 140 133 121 105 90 80 75 76 84 99 121 144 165 178 183 180 171 156 138 121 107 100 100 105 114 125 135 142 147 148 148 148 150 
127 134 140 141 134 120 102 84 70 62 62 69 84 108 134 156 169 171 165 153 137 122 111 105 104 106 111 116 120 125 130 136 142 149 156 160 161 159 152 143 133 124 117 114 115 118 124 130 137 144 151 158 163 168 172 173 172 169 164 159 154 152 153 156 161 165 166 162 151 133 111 90 74 66 65 72 87 111 139 165 183 192 192 187 175 161 145 133 126 126 131 138 144 147 146 140 133 126 122 123 
102 113 127 137 139 133 119 102 87 77 74 80 94 115 140 160 172 176 172 163 150 137 126 118 115 116 119 123 128 134 140 146 153 159 164 166 165 160 153 143 133 125 120 120 123 129 136 142 148 152 155 157 158 158 157 156 155 154 153 154 156 161 167 174 180 184 184 178 165 143 116 90 71 60 58 63 78 102 133 162 184 196 199 196 187 176 164 154 148 148 152 156 158 154 144 129 114 101 95 95 
82 97 117 135 145 146 137 123 107 96 91 95 107 127 148 166 177 180 178 170 159 146 134 125 120 119 122 126 132 139 146 153 160 165 168 167 163 156 146 135 126 119 117 120 128 137 147 154 159 161 159 155 149 142 135 131 128 129 132 138 148 159 172 182 190 195 195 189 175 151 121 91 69 57 53 57 70 93 125 156 180 194 199 197 191 182 172 165 162 163 166 168 165 156 139 117 96 81 73 74 
70 88 112 135 151 157 153 140 125 113 107 110 121 139 158 172 181 184 181 173 161 147 134 123 117 115 117 122 130 139 149 157 164 168 168 165 158 148 135 123 113 109 109 116 127 141 154 163 168 168 163 153 139 125 112 103 99 99 105 116 131 150 169 184 194 199 200 194 180 156 125 93 70 56 51 54 65 86 115 146 171 186 192 191 185 177 170 165 165 168 172 173 168 155 134 108 84 68 60 61 
67 86 111 137 156 164 161 150 136 123 117 120 131 147 164 177 184 185 181 171 157 141 125 112 105 103 106 113 123 136 148 158 165 168 167 161 150 137 122 109 100 96 99 108 123 140 156 168 174 173 166 151 132 111 93 81 75 75 81 94 113 136 160 179 192 199 200 195 182 159 129 98 73 59 53 54 63 80 105 133 156 170 176 174 168 161 156 154 158 164 171 173 169 155 132 104 80 63 56 57 
71 91 117 141 159 166 162 151 136 124 118 121 132 149 165 177 184 184 178 165 148 128 110 97 90 88 92 101 113 129 144 156 164 166 164 155 142 126 110 97 88 85 89 99 115 135 153 168 175 176 167 151 128 104 83 68 61 60 65 77 96 121 147 169 184 193 195 191 180 160 133 105 81 66 59 59 66 78 97 118 136 147 151 148 142 136 133 135 143 155 165 171 168 156 134 107 82 66 59 61 
84 103 127 148 161 164 157 143 127 115 109 113 126 143 161 174 180 180 172 157 136 114 95 81 75 74 79 89 104 121 139 153 161 163 159 150 136 119 103 90 82 79 82 92 107 126 146 162 172 174 167 152 129 103 81 66 57 55 59 68 85 107 132 154 171 181 185 183 175 160 138 115 95 81 73 71 74 82 93 105 115 121 120 116 110 106 106 112 125 141 157 167 168 159 140 116 93 77 70 72 
104 122 141 156 163 160 147 130 112 99 95 99 112 131 151 167 175 174 165 148 125 102 83 70 65 65 71 81 97 116 134 148 157 158 154 144 131 116 102 91 83 80 82 89 101 117 135 151 163 167 164 152 132 109 88 73 63 59 61 67 79 96 116 136 151 162 167 169 165 157 144 129 115 104 96 92 91 93 95 98 99 97 93 88 82 80 82 91 107 128 149 163 168 163 149 129 109 95 89 93 
