P2
100 100
255
131 136 141 142 141 135 126 117 110 106 105 110 117 127 136 143 147 147 143 135 126 116 107 100 96 96 99 105 113 121 129 134 137 138 136 132 128 123 118 115 111 109 109 110 113 118 125 132 138 142 143 140 134 125 115 107 101 99 99 103 108 114 120 125 129 132 134 136 137 137 137 135 132 129 126 123 120 118 116 114 111 108 104 100 98 98 100 106 114 124 134 141 145 145 142 136 130 126 125 126 
141 145 147 147 142 134 123 113 104 99 99 103 111 120 130 138 143 144 141 134 126 117 108 102 99 99 102 108 115 122 128 132 134 134 132 129 127 124 123 121 119 117 115 114 114 115 119 124 130 135 138 139 136 131 125 118 113 110 110 110 112 114 116 118 119 120 122 125 129 134 138 141 142 142 140 137 133 128 122 116 110 104 99 95 93 93 97 103 112 122 132 140 144 145 143 140 136 134 134 137 
148 152 153 151 145 135 123 111 101 96 95 99 106 116 126 135 140 142 141 136 129 121 114 109 107 107 110 114 120 125 128 130 130 128 127 125 125 126 128 129 129 128 125 121 118 115 114 116 121 126 131 135 137 136 134 131 127 124 122 120 118 115 113 111 109 109 111 116 123 131 139 146 151 153 153 150 144 137 129 121 112 105 99 95 93 94 98 104 113 122 131 138 142 143 142 140 139 139 140 144 
153 156 157 154 147 136 124 111 101 95 94 97 104 114 124 133 139 142 142 139 134 129 124 120 118 119 121 123 126 128 128 127 124 121 119 119 122 126 132 137 140 140 137 131 124 117 111 110 111 116 123 130 136 140 142 142 140 137 133 128 123 117 111 105 102 101 103 109 118 129 141 151 158 162 162 159 153 145 135 125 116 108 102 98 97 99 103 110 117 125 131 136 139 139 138 137 137 139 143 148 
154 158 159 156 149 139 126 113 103 98 96 99 106 115 125 134 140 144 144 143 140 137 134 131 131 131 133 134 134 132 128 123 117 113 110 112 117 125 135 144 150 152 149 142 131 120 110 105 104 107 114 123 133 142 147 150 150 147 142 135 126 117 109 102 97 96 99 105 116 129 142 153 162 166 167 164 158 150 140 129 120 112 107 105 106 108 113 118 124 129 132 134 133 132 130 130 131 135 141 147 
152 157 159 156 150 140 128 116 107 102 101 104 110 119 128 136 142 145 146 146 144 143 142 141 142 143 143 143 141 136 129 120 111 105 102 104 110 121 135 147 157 161 159 151 139 125 111 102 98 100 107 118 130 141 149 154 155 152 146 137 127 117 107 100 96 95 98 106 117 130 143 154 162 166 167 164 158 150 140 131 123 117 114 114 116 120 125 129 132 134 133 130 126 123 120 120 122 128 135 144 
147 154 156 155 149 140 129 119 111 107 107 111 117 124 132 138 143 145 146 146 145 145 145 147 149 150 151 150 146 139 129 118 107 99 95 96 104 117 133 148 160 166 165 158 146 130 114 102 96 96 102 113 127 139 149 155 156 153 146 137 126 115 106 100 97 98 102 109 120 132 143 152 159 162 162 159 153 146 138 131 125 121 121 124 128 133 137 140 141 138 133 126 119 113 109 108 112 118 128 138 
142 149 152 151 145 137 128 120 115 113 114 118 124 130 136 140 142 143 142 142 141 142 144 147 150 153 155 154 150 142 131 117 105 95 90 91 99 112 129 146 160 168 169 163 151 134 117 104 96 95 101 111 125 138 148 153 154 150 142 133 123 114 107 103 102 104 109 116 125 134 142 148 152 154 153 150 145 139 133 128 125 125 127 132 138 144 148 150 148 142 133 122 112 103 99 98 102 110 120 132 
137 144 147 145 140 133 126 120 117 117 120 125 130 135 139 140 140 138 135 133 132 134 137 141 147 152 155 155 152 144 133 119 106 95 89 89 96 108 125 143 157 166 169 164 154 138 122 108 100 98 103 112 125 137 145 150 149 144 136 127 118 112 108 108 110 114 119 125 131 136 140 142 143 143 141 138 134 130 127 125 125 127 132 139 146 153 157 157 153 145 133 119 106 96 91 91 95 103 115 127 
134 140 141 138 133 127 121 118 118 120 125 131 136 139 140 138 134 130 125 122 120 122 126 132 139 146 151 153 151 145 135 122 109 99 92 91 96 106 121 138 153 163 166 163 154 141 126 114 106 104 108 116 127 137 143 145 143 137 129 120 114 111 111 114 119 125 131 135 137 138 137 135 133 130 128 125 123 122 121 121 124 128 135 143 151 158 162 161 156 146 132 116 102 92 87 87 92 101 112 124 
133 137 136 132 126 120 116 115 117 122 129 135 139 141 139 134 127 120 113 109 108 109 114 122 130 139 146 149 150 146 138 127 116 106 99 96 99 107 120 134 147 157 161 160 153 143 131 120 113 112 115 122 130 138 142 141 137 129 121 114 110 110 114 121 129 136 142 144 144 140 135 129 123 119 116 115 115 115 117 119 123 128 136 145 153 160 163 163 157 146 131 115 101 90 86 87 92 102 113 124 
134 136 133 127 120 115 112 113 117 124 132 138 141 141 136 129 119 110 102 98 97 99 104 112 122 131 139 145 147 145 140 133 124 116 109 106 106 111 120 131 141 150 154 154 150 143 134 126 121 120 123 128 134 139 140 137 131 122 114 108 107 110 117 127 138 146 151 152 148 141 133 123 116 111 109 109 111 113 116 119 123 128 135 143 151 158 162 162 156 145 131 115 101 92 88 90 97 107 118 128 
137 137 132 124 116 111 109 111 118 126 134 141 143 140 133 123 112 102 94 90 90 93 99 107 116 125 133 139 143 144 142 138 133 127 122 118 116 118 122 129 136 142 146 147 145 141 135 130 128 127 130 134 138 140 138 133 125 116 109 104 104 110 120 132 144 153 158 157 152 143 132 121 113 108 107 108 111 114 117 120 123 127 132 139 147 153 158 158 153 144 131 116 104 96 94 96 104 114 125 133 
141 138 131 122 114 109 108 112 119 129 137 143 144 140 131 119 107 97 90 87 88 92 98 106 115 122 129 134 138 141 142 142 140 138 134 131 128 126 125 127 130 133 136 138 138 137 135 133 132 133 135 137 139 139 136 130 121 112 105 101 103 110 121 134 147 157 161 160 154 143 132 121 113 109 109 112 115 119 121 122 123 125 128 133 139 146 151 152 149 142 131 118 108 102 101 105 113 123 133 139 
145 140 131 122 113 108 109 113 122 132 141 145 145 139 129 117 104 95 90 89 91 97 103 111 117 122 126 130 133 136 140 143 146 146 145 142 138 133 128 125 124 124 126 128 130 132 133 133 134 135 137 138 139 137 133 127 118 110 104 101 103 110 121 134 147 156 160 159 153 143 132 123 116 114 115 119 123 125 126 125 123 121 122 125 130 137 142 145 144 139 130 120 112 108 108 113 122 131 140 145 
147 141 131 121 113 109 110 116 125 136 144 148 147 140 129 116 105 97 94 95 99 106 113 119 122 124 124 125 126 130 135 142 148 152 153 151 146 138 130 123 117 115 116 118 122 126 129 132 134 135 136 137 136 134 130 124 117 110 105 102 104 110 120 132 143 152 156 155 150 142 133 125 121 120 123 127 130 132 130 126 121 117 115 116 121 127 133 137 138 135 129 122 116 113 115 120 129 138 145 148 
146 139 130 120 113 110 112 118 128 138 146 150 148 141 130 118 108 103 101 105 111 118 125 128 129 126 123 120 119 122 129 138 147 154 157 156 150 141 130 119 111 107 106 109 114 120 126 130 133 134 134 133 132 131 128 123 118 113 109 106 107 111 118 127 137 144 147 147 144 138 132 128 126 127 131 135 137 137 133 126 119 112 109 109 112 118 125 131 133 132 129 124 120 118 120 125 133 141 147 149 
144 137 128 119 112 110 112 119 129 139 147 150 148 141 132 121 114 110 111 116 124 132 137 138 134 128 120 114 111 113 121 132 143 153 158 158 152 141 127 114 104 99 99 102 109 116 123 129 131 132 131 129 128 127 126 124 122 119 116 113 112 114 117 122 128 133 136 137 135 133 130 129 130 133 137 140 141 139 133 125 116 108 103 102 106 112 119 126 130 131 129 125 122 122 124 129 135 142 146 147 
140 133 124 116 110 109 111 118 128 137 145 148 147 141 133 125 120 118 121 128 136 143 146 144 138 127 116 107 103 105 113 125 139 150 157 157 150 138 123 109 98 93 93 98 106 115 123 128 131 130 128 125 123 123 124 126 127 127 125 123 120 118 117 117 119 121 123 125 125 126 127 129 132 137 141 143 143 139 131 122 112 104 99 99 102 109 117 124 129 131 130 128 125 125 126 130 136 141 144 144 
137 130 122 114 108 106 109 115 124 133 140 144 143 139 134 128 125 126 131 138 145 151 152 147 137 124 111 100 95 97 105 119 134 147 154 154 147 134 118 104 93 89 90 96 106 116 125 131 132 129 125 121 119 120 124 129 133 136 137 134 130 124 118 114 111 110 111 113 115 119 123 128 134 139 142 144 142 137 128 118 109 101 98 98 102 109 118 125 131 133 133 131 129 128 129 132 136 140 142 141 
136 129 120 113 107 105 106 111 118 126 133 137 138 136 133 130 130 132 138 145 151 155 153 147 135 120 105 95 90 92 101 114 130 143 151 150 143 130 114 100 90 87 90 98 110 121 131 135 135 130 124 118 115 117 123 131 139 146 148 146 140 132 122 112 105 102 101 103 107 113 120 128 134 140 143 143 140 133 124 115 106 100 98 100 105 113 121 129 134 137 137 135 133 132 132 135 138 140 141 140 
137 130 122 114 107 104 104 107 112 119 125 129 132 132 132 131 133 137 142 148 153 155 152 143 130 115 101 91 87 90 99 113 128 141 148 147 139 126 111 98 90 89 94 104 117 130 138 142 139 132 123 115 111 113 121 132 143 153 158 157 150 139 126 113 102 96 94 97 102 110 119 128 136 141 143 141 137 129 121 112 105 101 100 103 109 118 127 134 139 142 141 140 138 136 136 137 140 142 143 141 
140 134 126 118 110 105 103 104 107 112 117 122 126 128 130 132 135 139 145 150 153 153 148 139 126 111 99 91 88 92 101 115 129 141 147 145 137 124 110 99 93 93 101 113 127 140 148 150 145 135 122 112 107 108 117 130 145 157 164 164 158 146 131 115 102 94 91 94 101 110 121 131 138 142 143 140 134 126 118 110 105 102 103 108 115 123 132 139 144 145 145 143 141 139 139 140 142 144 145 144 
145 140 133 125 116 110 105 104 105 108 112 117 121 125 128 132 136 141 145 149 151 149 144 135 123 110 100 94 93 97 107 120 133 143 147 144 136 124 111 102 98 101 110 124 139 151 157 157 150 137 122 109 102 103 111 126 143 158 167 169 163 151 135 117 103 94 91 94 102 113 124 134 141 144 143 138 131 123 115 109 106 105 107 113 120 128 136 142 146 147 146 143 141 139 139 141 143 146 148 148 
150 147 141 133 124 116 110 107 106 107 111 115 120 124 128 133 137 141 144 147 147 145 140 131 121 112 104 100 101 107 116 128 138 146 148 144 136 124 114 106 105 110 121 135 150 161 166 164 154 139 122 106 97 97 105 120 138 155 166 170 166 154 138 120 105 96 93 97 106 117 129 138 144 145 142 136 129 121 114 109 107 108 112 117 124 132 138 143 145 145 143 140 137 135 136 138 141 145 149 151 
153 152 147 141 133 125 118 113 110 111 113 117 121 126 130 134 138 140 142 143 143 140 135 129 122 115 111 110 112 119 127 136 144 149 149 144 136 125 116 111 112 119 131 145 159 168 172 168 158 141 121 104 93 91 98 113 131 149 162 168 165 155 139 122 108 99 97 101 111 122 133 142 146 145 141 134 126 119 114 111 110 112 116 121 127 133 137 140 140 138 135 131 128 126 127 130 135 141 146 151 
152 154 152 147 140 132 125 120 117 117 119 122 126 130 133 136 138 139 139 139 137 134 130 126 122 120 119 121 125 131 138 145 150 151 149 143 134 125 118 115 117 125 138 151 164 172 175 170 159 142 121 103 91 87 93 106 124 142 156 163 162 153 139 123 110 102 101 106 116 127 137 143 145 143 138 131 124 118 114 113 114 117 121 126 130 133 135 135 133 129 124 119 115 113 114 118 124 132 140 147 
148 152 152 149 144 137 131 127 124 124 126 129 133 136 138 139 138 137 135 132 130 127 125 123 123 124 127 131 136 142 148 151 153 151 147 140 131 123 118 116 119 128 140 153 164 172 174 170 159 142 121 103 90 86 89 101 117 135 149 157 157 150 138 124 112 106 105 111 120 130 138 142 143 139 133 127 121 117 116 117 120 123 127 130 133 134 133 130 125 119 112 106 101 99 100 104 111 120 131 140 
140 146 148 147 143 138 134 131 130 132 134 137 140 142 142 141 138 134 129 125 121 119 118 119 121 126 132 139 145 150 154 155 154 150 143 135 126 119 114 113 117 125 137 149 160 167 170 166 157 141 122 105 92 87 89 98 113 129 143 151 151 146 135 123 114 109 109 114 122 130 137 139 138 133 128 122 119 118 119 123 127 131 134 136 137 135 131 126 119 110 102 95 89 87 87 91 98 108 120 131 
132 138 141 141 138 135 133 132 134 136 140 144 146 147 145 142 136 129 123 116 112 110 110 113 118 126 134 143 150 155 157 156 152 145 137 128 119 112 108 108 111 118 128 140 150 158 162 160 153 140 124 109 97 91 92 99 111 125 138 145 146 141 132 123 115 111 112 117 123 129 133 134 131 127 122 119 118 120 125 130 136 140 143 143 142 138 132 125 116 106 96 88 82 79 79 82 89 99 110 122 
124 130 133 132 130 128 128 129 133 138 143 148 150 150 147 142 134 125 116 109 104 102 103 107 114 124 134 144 151 156 156 154 148 140 130 120 111 105 101 100 103 109 117 127 137 145 151 151 147 138 126 114 104 99 99 104 113 125 135 140 141 137 130 122 116 113 114 118 123 127 129 128 125 121 117 117 119 124 131 139 145 149 151 150 147 142 135 127 117 107 96 87 81 77 76 79 85 94 105 116 
121 124 125 123 121 119 120 123 129 136 143 148 151 151 147 140 131 121 111 103 98 96 98 103 111 121 132 143 150 154 154 150 143 133 123 112 104 98 94 93 95 99 105 114 123 131 138 141 141 137 129 121 113 108 108 112 119 127 134 138 138 134 128 122 117 115 116 119 123 125 126 123 120 117 115 117 122 130 139 147 154 157 157 155 152 146 140 132 123 113 103 94 87 82 81 83 88 96 105 114 
122 122 120 116 113 111 112 116 123 131 139 145 149 148 144 137 128 118 108 100 95 94 95 101 109 119 131 140 148 151 150 145 137 127 116 107 99 93 90 88 89 92 96 102 110 118 126 131 135 135 132 127 123 119 119 121 126 131 135 137 136 133 127 122 118 117 118 120 123 124 123 120 117 115 116 120 127 137 146 154 159 161 160 157 153 149 144 138 132 124 115 107 100 95 93 94 98 105 112 118 
127 125 119 113 108 105 105 109 116 125 133 140 143 144 140 134 125 116 108 101 97 96 98 103 110 120 130 139 145 147 146 141 132 122 112 103 96 91 88 87 87 88 91 96 101 108 116 123 129 133 134 133 131 130 129 131 133 136 138 138 136 132 127 122 119 118 119 121 123 123 122 119 117 116 119 124 133 142 151 158 161 161 158 154 150 147 145 143 141 137 131 125 119 114 112 112 115 119 124 127 
136 130 123 114 107 103 102 105 111 118 126 132 136 137 135 130 124 117 111 106 103 103 104 109 115 123 131 138 142 144 141 136 128 119 109 102 96 92 90 90 90 91 92 95 99 104 111 118 125 131 135 137 138 138 138 139 140 141 140 139 135 131 126 122 119 119 120 122 124 124 123 121 119 119 123 129 137 146 153 156 157 154 149 145 142 141 142 145 147 148 147 144 140 136 133 132 134 136 138 138 
144 138 129 119 111 105 103 104 108 114 119 124 128 129 128 126 123 120 117 115 113 114 115 118 123 128 133 138 140 140 137 131 124 116 109 103 99 97 97 97 98 99 99 100 102 105 110 116 122 129 134 138 141 143 144 144 144 144 142 139 135 130 125 121 119 119 121 123 125 125 124 123 122 123 127 132 139 146 150 150 147 141 135 130 127 129 135 142 150 156 159 160 157 155 152 150 150 150 150 149 
150 144 135 126 118 112 108 107 108 111 114 117 120 121 122 123 124 124 125 125 126 127 128 130 132 134 136 138 138 136 132 127 120 114 109 105 104 105 107 109 111 112 112 112 111 111 113 116 121 126 132 137 141 144 145 146 146 145 143 139 134 129 124 121 119 120 122 124 126 127 127 126 125 126 129 134 138 142 142 139 133 124 117 111 110 114 123 136 149 159 166 169 168 166 163 161 159 158 157 155 
152 147 141 134 127 121 116 113 111 111 111 112 113 115 117 121 125 129 133 137 139 140 141 141 140 140 139 137 135 132 127 122 117 112 109 109 111 115 119 124 127 129 129 126 123 120 118 118 119 123 127 133 137 141 144 145 146 144 141 137 132 127 123 120 119 120 122 125 127 129 129 128 127 128 130 132 134 135 132 126 117 107 98 94 94 100 111 127 143 157 167 171 171 169 166 162 160 158 156 155 
148 147 144 140 136 131 126 121 117 113 110 108 108 110 114 120 127 134 141 146 149 151 150 149 146 143 139 136 132 127 122 118 114 111 110 113 117 124 132 139 144 146 145 141 135 129 123 119 118 119 122 127 132 136 139 142 142 141 139 135 130 125 122 119 119 120 123 126 129 130 130 129 128 127 128 128 128 126 121 112 102 92 85 80 81 88 101 118 136 152 162 167 168 165 160 155 151 149 148 148 
140 142 144 145 143 140 136 130 123 116 111 107 105 107 112 120 129 138 146 153 156 157 155 152 148 143 138 133 128 123 118 114 111 110 112 116 123 133 142 151 156 159 158 153 145 136 127 120 116 115 117 120 125 130 133 136 137 136 134 131 127 124 121 120 121 123 126 128 130 131 130 129 127 125 124 123 122 118 112 103 93 84 77 74 75 82 95 111 129 145 155 159 158 153 147 141 136 134 134 137 
129 136 142 147 149 148 144 138 129 121 113 107 105 106 112 120 130 141 149 155 158 158 155 151 146 140 134 129 124 119 115 112 110 110 113 119 128 139 149 158 164 167 165 160 151 140 129 120 114 112 112 115 119 123 127 129 130 130 128 126 124 122 122 122 124 126 129 132 133 132 130 127 124 122 120 118 116 112 106 99 90 82 76 74 76 82 94 109 125 138 146 148 145 138 130 123 118 116 118 122 
118 129 138 146 151 152 150 144 135 125 116 109 106 107 113 122 132 142 149 154 156 154 151 146 140 135 130 125 122 118 115 113 112 113 116 123 132 142 153 161 167 169 167 161 151 140 129 119 113 110 110 113 116 119 121 123 123 122 122 121 121 121 123 126 129 132 135 136 136 134 130 125 121 118 116 114 113 111 106 101 94 88 83 81 83 89 99 111 124 133 138 137 131 122 113 105 101 100 103 109 
110 123 135 145 152 154 153 147 139 129 119 112 109 110 115 123 132 141 147 150 150 147 143 137 133 129 125 123 122 120 119 117 117 118 121 126 134 143 153 160 165 166 163 156 147 137 126 118 113 111 112 114 116 118 118 118 116 115 115 115 117 121 125 131 135 139 142 142 139 135 129 123 118 115 113 113 113 113 112 108 104 100 96 95 97 102 109 118 126 131 132 128 120 110 100 93 89 89 93 100 
107 119 132 143 151 154 153 149 141 131 122 116 112 113 117 124 131 138 142 142 141 137 132 128 125 123 123 123 124 125 125 124 124 124 126 130 136 143 150 155 158 158 154 148 139 131 123 118 116 116 118 120 121 120 118 114 111 108 108 110 114 120 128 136 142 147 148 147 143 136 129 121 115 112 112 113 116 119 121 121 119 117 115 114 115 118 123 128 131 132 129 122 113 103 94 88 84 85 89 96 
107 119 130 140 148 152 152 148 141 133 125 119 116 116 119 124 130 133 135 134 130 126 122 119 118 119 122 126 129 132 133 133 133 132 133 134 138 142 145 148 149 147 142 136 129 123 120 119 121 124 128 130 129 126 120 113 107 103 102 104 111 120 131 141 149 154 155 152 146 137 128 120 114 111 112 116 121 127 132 134 135 135 134 133 133 134 136 137 137 134 128 120 110 101 93 88 86 87 91 98 
112 120 129 138 144 147 148 145 140 133 127 121 119 119 121 124 127 128 127 125 121 117 114 113 114 118 124 130 136 140 142 142 141 139 138 138 138 139 140 139 137 134 129 123 119 116 117 121 127 134 140 142 140 134 125 114 105 98 96 99 107 119 132 145 154 159 159 155 147 137 127 118 113 111 114 120 127 135 141 146 148 149 148 147 147 146 145 144 141 135 128 120 111 103 98 94 93 95 98 104 
117 123 129 134 139 141 142 140 137 132 127 123 121 120 121 122 123 122 120 117 113 110 108 110 114 120 128 136 142 147 149 148 147 144 141 139 137 135 133 130 126 121 116 111 109 110 115 124 135 145 152 154 152 143 131 117 104 95 92 96 105 118 133 147 157 161 161 156 147 136 126 117 113 113 117 124 133 141 148 153 155 156 156 155 153 151 149 146 141 135 128 121 114 109 105 104 104 106 109 113 
123 125 127 129 132 134 135 135 133 130 127 124 121 120 120 119 119 117 114 111 108 106 107 110 116 124 133 141 147 151 152 151 148 144 140 137 134 131 127 123 117 111 106 102 102 106 114 127 141 153 162 165 161 151 136 119 104 94 90 93 103 117 133 147 157 161 160 154 145 134 124 117 114 116 121 129 137 145 151 154 156 156 155 153 152 150 147 143 139 133 127 122 118 115 115 116 117 119 121 122 
128 126 124 124 124 126 127 128 128 128 126 124 122 120 118 117 115 113 111 108 107 107 109 114 121 129 138 145 149 151 151 148 144 139 135 132 129 126 123 118 112 105 99 96 97 103 113 128 145 159 168 171 167 157 141 122 105 94 90 93 102 116 132 146 155 158 156 150 141 131 122 117 116 119 125 132 140 146 149 151 150 149 147 145 144 142 140 137 134 130 126 123 121 122 124 126 129 131 131 130 
130 125 120 117 116 118 120 122 124 125 125 124 122 120 117 115 113 111 109 108 108 110 114 120 127 135 142 147 149 148 145 140 135 131 127 125 124 122 120 116 110 103 97 94 95 101 112 128 145 160 170 173 170 159 143 124 107 96 91 94 103 117 131 143 151 153 150 144 135 127 121 118 119 123 129 136 141 144 144 143 140 137 135 133 132 132 131 130 129 127 125 124 125 127 131 135 139 140 139 135 
130 122 115 111 109 111 114 118 122 124 125 125 123 121 118 115 113 112 111 111 112 116 120 127 133 140 144 146 146 142 136 129 123 119 117 117 118 119 119 117 112 106 99 95 94 99 110 125 142 157 167 171 167 157 142 125 109 99 95 99 107 119 131 141 146 146 142 136 129 123 119 119 123 128 134 138 141 140 137 133 128 124 121 120 121 122 124 125 125 125 125 126 128 132 137 142 145 145 143 137 
129 119 111 106 104 106 110 115 121 125 127 127 126 123 120 118 116 115 115 116 118 122 127 133 139 143 145 144 141 134 126 118 111 107 107 109 114 118 121 121 118 112 105 99 96 99 107 121 136 150 160 164 161 152 139 124 111 103 102 105 113 123 132 138 140 138 134 128 122 119 119 122 127 133 138 140 140 136 130 123 116 112 109 110 112 116 120 123 125 126 127 129 132 136 141 146 148 148 145 138 
127 117 108 103 101 104 109 116 122 128 131 131 130 128 125 122 120 120 120 121 124 128 133 137 142 144 145 141 135 126 117 107 101 98 99 104 111 120 126 129 127 121 113 105 100 100 105 115 128 140 149 152 150 143 133 122 113 109 110 114 122 129 135 137 135 131 125 120 117 117 120 125 132 138 141 142 139 132 124 115 108 104 102 104 109 114 120 125 128 129 131 132 135 139 143 148 150 149 145 137 
126 115 107 102 101 105 111 118 126 132 135 136 135 133 130 128 126 125 126 127 129 132 136 140 143 144 143 138 131 121 110 101 94 92 95 102 112 123 132 137 137 131 122 113 105 102 103 109 119 128 136 139 137 132 125 119 115 115 118 124 131 136 138 136 131 125 118 114 113 115 121 129 136 142 144 142 137 129 119 110 104 100 101 104 110 117 124 129 132 134 135 136 138 141 145 148 150 149 144 136 
126 116 108 104 104 108 115 123 131 137 141 142 141 138 136 133 132 131 131 131 133 135 137 139 141 142 140 136 128 118 108 99 93 91 94 103 115 128 139 146 147 142 132 121 111 105 103 106 112 118 123 126 124 121 117 115 116 120 127 134 140 143 142 136 128 120 113 110 110 115 123 132 140 145 146 142 136 126 117 108 103 101 103 108 115 123 130 134 137 138 138 138 139 141 145 148 149 148 143 136 
126 117 110 107 108 113 120 129 137 143 146 146 145 142 140 137 136 134 134 133 133 134 135 136 138 139 138 134 128 119 109 101 95 93 97 106 119 133 145 153 154 150 140 128 117 109 105 105 108 112 115 115 114 112 111 112 117 125 134 143 148 149 145 136 126 116 109 107 109 116 125 135 142 146 146 141 134 124 116 109 105 105 108 114 121 128 134 138 139 139 138 137 138 140 143 147 148 147 143 135 
127 118 112 110 112 118 126 135 142 147 150 149 147 144 141 139 137 135 134 133 132 131 131 132 134 135 136 134 130 123 115 106 101 99 102 110 123 137 149 157 159 155 146 134 123 114 109 108 109 110 111 110 108 106 106 109 117 128 139 148 153 152 146 135 123 113 106 105 109 117 127 136 143 146 144 139 131 123 115 110 109 110 114 119 126 131 136 137 137 136 134 133 134 137 141 145 147 146 142 135 
126 119 114 112 115 122 130 139 146 150 151 149 146 143 139 136 134 133 131 130 128 127 126 127 130 132 135 136 134 129 122 114 108 105 107 115 126 138 150 157 159 155 148 137 127 119 115 113 114 114 113 110 106 104 104 108 117 129 141 151 155 153 145 133 120 109 104 104 109 118 128 137 142 144 141 135 128 121 116 113 113 115 118 123 128 131 133 132 131 128 127 127 129 133 138 142 145 145 141 134 
124 117 113 112 116 123 132 141 147 150 150 147 143 138 134 131 129 128 126 125 123 122 122 123 127 131 135 138 138 135 129 122 116 112 112 118 127 137 147 154 156 153 146 137 130 124 121 121 122 122 119 115 109 105 104 108 117 129 141 150 154 151 142 130 116 106 102 103 109 118 128 136 140 140 137 131 125 120 116 115 116 119 122 125 127 127 126 124 121 119 118 119 123 128 135 140 143 143 139 132 
121 113 109 110 114 122 131 140 146 148 147 143 137 131 126 123 121 120 120 119 119 118 119 121 126 131 136 141 142 140 135 129 122 117 115 118 125 134 142 148 149 147 142 135 130 128 128 130 132 132 129 123 116 110 107 110 117 128 139 148 150 147 138 125 113 104 100 102 109 118 128 134 137 136 132 127 122 119 117 118 120 122 124 124 123 121 117 114 111 109 109 112 118 126 133 139 143 142 137 129 
115 108 104 105 110 118 128 137 143 145 143 138 131 124 118 115 113 113 113 114 115 116 118 122 127 133 139 143 145 144 139 132 125 119 116 117 122 128 135 140 141 139 136 132 130 130 134 138 142 143 140 133 125 117 112 112 118 127 137 144 146 142 133 121 110 102 100 103 110 119 127 132 133 131 127 122 119 118 118 120 123 124 124 123 119 114 109 105 102 101 104 109 117 126 134 141 143 141 134 125 
110 101 97 98 104 113 124 133 140 142 139 133 125 118 111 107 106 107 108 111 114 117 120 125 130 136 141 145 147 145 140 132 124 118 114 114 118 123 128 132 133 132 129 128 128 131 137 144 149 151 149 142 132 123 117 116 120 127 135 141 142 137 129 118 108 103 102 105 112 120 126 129 129 126 122 118 117 117 120 123 126 127 125 122 116 110 104 100 98 99 103 110 120 130 139 144 145 141 132 121 
105 96 91 92 98 108 119 130 137 140 137 131 123 114 107 103 102 103 106 110 114 119 124 130 135 140 144 146 146 143 137 129 121 115 111 111 114 118 123 126 127 126 125 124 126 131 138 146 153 155 154 147 138 129 122 119 122 128 134 139 139 135 127 118 110 106 106 110 117 123 127 128 126 122 117 115 115 117 121 126 129 130 127 122 116 109 103 100 99 102 108 117 127 138 146 149 148 141 130 117 
101 91 87 88 94 104 116 128 136 139 137 131 123 114 106 102 100 102 105 111 117 124 130 135 140 144 146 145 143 138 132 124 117 111 109 109 112 117 121 124 125 124 123 122 125 130 138 146 152 155 154 148 140 131 125 122 125 130 135 139 139 135 128 121 115 112 114 118 123 127 129 128 124 118 114 113 114 118 124 129 133 133 130 125 119 112 107 105 106 110 118 128 138 147 153 155 152 142 129 114 
99 89 85 86 92 103 115 128 136 141 140 134 126 117 109 104 102 103 107 113 121 129 136 141 145 146 146 143 138 132 125 118 112 108 107 109 113 118 123 126 126 125 123 123 124 129 135 142 148 150 149 144 137 130 125 124 127 132 138 141 141 138 133 127 123 122 124 128 132 134 133 129 123 117 112 111 114 119 126 132 136 137 134 129 124 118 115 114 116 122 130 140 149 157 161 160 154 143 129 113 
99 90 86 88 95 105 118 130 139 144 144 139 131 122 114 109 106 107 111 118 126 134 141 145 148 147 145 139 133 125 118 111 107 106 107 111 117 123 128 130 131 129 127 125 125 127 132 136 140 142 140 136 130 125 123 124 129 135 141 144 145 143 139 135 133 133 135 139 141 141 137 131 123 116 112 111 115 121 129 136 140 140 138 134 129 125 124 125 128 134 142 151 158 163 165 162 155 143 128 112 
101 94 91 94 101 111 123 134 143 147 148 144 137 129 121 115 112 112 116 122 130 138 144 148 149 147 142 134 126 118 111 107 105 106 110 116 123 129 134 137 137 135 132 128 127 126 128 130 131 131 128 125 121 118 119 123 129 137 144 148 149 148 145 143 142 143 146 148 149 147 142 134 125 117 113 113 117 124 132 138 142 143 141 138 134 132 132 134 138 144 151 157 162 165 164 160 152 141 127 113 
105 101 100 103 110 120 130 140 147 151 151 148 142 134 127 121 118 117 121 126 134 141 146 149 149 144 138 129 120 112 106 104 104 108 114 122 130 137 142 144 143 140 136 132 128 126 125 123 122 119 116 113 111 111 114 120 129 138 146 150 152 151 149 148 148 150 153 155 155 152 145 136 126 119 115 115 120 127 135 141 144 144 142 139 137 135 136 139 143 148 153 157 160 161 159 154 146 136 124 114 
111 110 111 116 122 130 138 145 150 152 152 149 144 138 132 126 123 122 125 130 137 143 147 149 147 141 133 123 114 107 103 103 106 112 120 129 137 143 147 149 147 144 140 135 130 126 122 119 115 111 106 103 102 104 109 118 128 138 146 150 151 150 149 148 149 152 155 157 157 153 146 137 128 121 118 119 124 131 137 142 144 143 141 138 135 134 135 138 142 146 149 151 152 151 147 143 136 129 121 115 
118 120 124 129 135 140 145 148 150 151 150 147 144 139 134 130 127 127 129 133 138 144 147 147 143 137 128 118 109 104 102 103 109 117 126 135 143 148 151 151 149 145 140 136 131 127 122 117 111 105 100 97 96 99 106 115 126 136 144 147 148 146 144 143 144 147 151 154 154 151 145 137 129 123 121 123 128 134 140 143 143 141 137 133 130 129 130 133 136 138 140 140 139 136 133 129 124 121 118 117 
124 129 135 141 145 147 149 149 149 147 145 143 140 137 134 131 129 129 131 135 140 144 146 145 140 132 123 113 106 101 101 105 112 121 131 140 146 150 151 149 146 143 139 135 131 127 122 117 111 104 98 95 94 97 104 114 125 134 140 142 141 137 134 133 134 138 142 146 147 145 140 134 128 125 124 127 132 138 142 143 141 136 130 125 122 120 121 123 126 127 127 126 124 120 117 114 113 113 115 119 
129 137 143 148 151 151 150 147 144 141 139 137 135 133 132 130 130 130 133 136 140 143 144 142 137 129 119 110 103 100 101 106 114 124 134 142 148 150 149 146 142 137 134 132 129 127 124 119 113 107 101 97 96 99 105 114 124 131 135 135 132 126 122 120 120 124 129 133 136 136 133 130 127 125 127 131 136 141 143 141 137 130 123 117 113 111 111 113 115 116 115 113 110 107 105 104 105 108 113 121 
132 140 147 151 152 150 147 143 138 134 132 130 129 129 129 128 129 130 133 136 140 142 143 140 135 126 117 108 101 99 101 107 116 126 136 143 147 147 145 140 135 131 128 127 127 127 126 123 118 112 106 102 101 103 108 116 124 129 131 128 123 116 110 106 106 109 114 120 123 125 125 124 124 126 129 134 139 142 143 139 133 125 116 109 104 103 103 105 106 107 107 105 102 100 98 99 101 106 113 122 
133 140 146 148 148 145 141 136 131 127 125 124 124 124 125 125 126 128 131 135 138 141 142 139 134 125 116 107 101 99 101 106 115 126 135 142 145 144 140 135 129 124 122 122 124 126 128 127 124 120 114 110 108 109 114 120 125 129 128 123 116 107 100 96 95 98 102 107 112 115 118 119 122 125 130 136 141 143 142 137 129 119 110 103 99 98 99 101 103 104 105 103 102 100 99 100 103 108 115 124 
131 137 140 141 140 137 133 129 125 122 120 120 120 121 121 122 123 125 127 131 136 139 140 139 134 126 117 108 102 99 100 105 114 124 133 140 142 141 137 130 124 119 117 118 121 125 129 131 130 127 123 119 117 117 120 124 128 130 128 122 113 104 96 91 90 91 95 100 104 108 112 116 120 125 131 137 141 142 139 133 124 115 106 100 97 97 99 102 105 108 109 109 108 107 107 108 110 114 119 125 
129 130 131 131 130 128 125 123 121 119 119 119 119 118 118 118 118 119 122 126 131 136 139 139 136 130 121 112 105 100 100 104 111 120 130 137 140 140 135 129 122 116 114 115 118 124 130 134 135 134 130 127 125 125 126 129 132 132 130 123 115 106 98 93 90 91 93 97 101 105 109 114 119 125 132 137 140 140 136 130 121 112 104 100 98 100 104 108 113 117 119 120 120 120 120 120 121 122 124 126 
124 123 121 120 119 119 118 119 119 120 120 120 119 117 115 113 112 112 115 120 126 132 138 140 140 135 127 118 110 104 101 103 108 117 126 134 139 139 136 130 123 117 114 114 117 123 130 135 138 138 136 133 131 130 132 134 136 136 134 128 121 113 106 100 98 97 98 100 103 106 110 115 120 126 132 137 139 138 133 126 118 110 105 103 104 107 113 119 125 130 133 135 135 135 135 134 132 131 129 127 
120 115 112 111 111 112 115 118 121 123 124 124 122 118 114 109 106 105 107 112 119 128 136 142 144 142 136 127 117 109 104 103 106 113 122 131 138 140 139 134 127 121 116 115 117 123 129 135 139 140 139 137 135 134 134 136 138 139 138 135 130 124 119 114 110 109 108 108 109 110 113 117 122 128 133 137 138 136 131 124 117 111 108 108 112 117 125 132 138 143 146 148 149 149 148 146 142 138 132 126 
116 110 106 105 106 110 115 120 125 129 130 129 126 120 113 106 101 99 100 105 113 124 135 144 149 150 145 137 126 116 108 104 105 111 119 129 137 142 142 139 133 126 120 118 119 123 129 134 139 141 140 138 136 135 135 136 138 141 142 142 140 137 133 130 126 123 121 118 117 117 118 121 125 130 135 137 137 134 129 123 117 113 112 115 121 128 136 143 149 153 155 157 157 157 156 153 148 142 133 125 
114 107 103 103 106 111 118 126 132 136 137 135 131 123 114 106 99 95 95 99 108 120 134 146 154 157 155 147 137 124 114 107 106 109 117 127 136 143 145 143 138 131 125 121 121 124 129 134 138 140 140 137 135 133 132 133 136 140 143 146 147 147 146 144 142 138 134 129 125 123 123 125 128 133 136 138 138 134 129 123 118 116 117 122 129 137 145 152 156 158 159 159 159 158 157 154 149 142 133 123 
114 108 105 106 110 116 124 132 139 143 144 142 136 128 117 107 99 93 92 95 104 117 132 147 157 163 163 157 146 133 120 111 107 108 115 125 134 142 146 145 141 135 129 124 123 125 129 134 137 139 138 135 132 129 128 128 131 135 141 146 150 153 155 155 153 149 143 137 132 128 126 128 131 135 139 140 139 135 130 124 120 119 122 128 135 144 150 155 157 157 156 155 154 153 152 150 146 139 131 122 
117 112 111 112 116 123 131 138 144 148 149 147 141 133 123 112 103 96 93 95 102 114 130 146 159 166 168 163 153 140 126 115 109 108 113 122 131 140 144 145 142 136 130 126 125 127 130 134 137 138 136 133 129 124 122 122 124 128 135 142 148 154 157 159 157 154 148 141 135 130 128 130 133 137 141 142 141 137 131 126 122 122 125 131 139 146 151 153 153 151 148 145 143 142 142 141 139 135 129 123 
121 119 119 121 125 130 136 142 147 150 151 150 146 139 130 120 110 102 97 97 102 113 127 143 157 166 169 166 158 145 131 118 110 108 111 119 127 135 140 141 139 135 130 127 126 128 131 134 137 137 135 131 125 120 116 115 116 120 126 133 141 148 153 156 156 153 147 141 134 130 128 130 134 139 143 145 143 139 134 128 124 124 127 132 138 143 146 146 143 139 134 130 128 128 129 130 131 130 128 125 
128 128 128 130 132 136 139 142 145 148 149 150 148 145 139 130 120 111 104 101 103 111 123 138 152 162 166 165 158 147 133 121 112 108 110 115 123 129 134 135 134 130 127 125 125 128 131 135 137 137 134 129 123 117 112 109 109 111 116 123 131 138 144 148 149 147 142 136 131 127 127 129 134 139 144 146 145 141 136 130 126 125 126 130 134 137 138 136 131 125 119 115 113 114 117 121 125 128 129 129 
136 137 137 138 138 138 138 139 139 141 144 147 149 149 146 141 132 122 113 106 105 109 118 131 144 154 160 160 154 145 133 121 113 109 109 113 118 123 127 128 127 125 123 122 123 127 131 134 136 136 134 129 123 116 110 106 104 105 108 113 119 126 132 136 138 137 134 130 126 124 124 127 133 139 144 147 146 142 137 131 127 124 124 126 128 129 127 123 117 111 105 101 101 103 108 115 122 128 132 135 
144 145 145 143 140 137 134 131 130 131 135 140 146 150 152 149 142 132 121 112 107 107 112 122 133 143 149 151 147 140 130 120 113 109 109 112 115 119 121 121 120 118 117 118 121 124 129 133 135 135 133 129 124 118 112 107 104 103 103 105 109 114 119 123 126 127 125 123 121 120 121 125 131 137 142 145 145 142 138 132 127 124 122 122 122 120 117 112 105 99 94 92 93 98 105 113 122 131 137 141 
150 151 149 146 140 133 126 121 118 118 123 131 140 149 154 154 150 140 129 117 108 105 106 113 122 131 137 140 139 133 126 119 114 111 111 112 114 116 117 116 115 113 113 114 117 122 126 130 133 134 133 130 126 121 117 112 108 105 103 102 103 106 109 113 116 117 118 117 117 117 119 123 128 134 139 142 143 141 137 133 128 124 121 119 116 113 108 103 97 92 89 89 91 97 106 116 126 135 143 147 
154 153 151 145 137 128 118 110 106 106 111 120 132 144 153 156 153 145 133 120 110 103 102 106 112 120 126 129 130 127 122 118 115 113 114 115 116 117 116 114 112 111 110 112 115 119 123 127 130 132 132 131 130 127 124 121 117 112 108 105 103 103 104 107 109 112 114 115 115 116 118 121 125 130 134 138 139 139 137 133 130 126 122 118 114 109 103 97 92 89 88 90 94 102 111 122 132 141 147 152 
154 153 150 143 134 123 111 102 96 96 100 110 124 137 148 154 153 147 136 123 111 103 100 101 106 112 117 121 122 122 119 118 116 117 118 119 120 120 118 115 112 110 110 111 113 117 121 124 127 130 131 133 134 134 133 131 128 123 117 112 107 105 104 105 108 111 114 115 116 116 117 118 121 124 128 131 134 135 136 135 133 130 126 121 115 109 102 97 93 91 91 95 101 109 119 129 137 145 150 153 
151 150 146 140 131 119 108 97 91 89 93 102 116 130 142 150 151 146 136 125 113 105 101 101 104 109 113 117 118 119 119 119 119 121 123 125 126 125 122 119 115 113 111 112 114 116 119 122 125 128 131 134 137 140 142 142 139 135 129 122 115 111 109 109 111 114 117 119 119 118 117 116 116 117 120 123 127 131 135 137 137 136 133 127 121 113 106 100 97 96 98 103 110 118 127 134 141 146 149 151 
145 144 142 137 129 119 107 97 90 88 90 98 110 124 136 144 147 144 137 127 117 110 106 105 107 110 114 116 118 119 120 121 123 126 129 131 132 131 128 124 120 117 115 115 116 118 120 122 125 127 131 135 140 145 148 150 149 145 139 132 125 120 117 117 119 121 124 125 124 122 118 114 111 110 111 115 121 127 134 139 143 143 141 136 129 121 113 108 104 104 107 113 119 126 133 138 141 143 144 144 
135 136 137 134 129 121 111 101 94 90 91 97 108 120 132 140 144 143 137 130 122 116 113 112 113 115 117 119 120 121 122 124 127 131 134 136 137 136 133 129 125 121 119 119 119 120 122 124 126 128 132 136 141 146 151 153 153 151 146 140 134 129 127 126 128 131 133 133 130 125 119 112 106 103 104 107 114 123 133 142 148 151 150 146 139 131 123 117 114 114 118 123 128 133 136 137 137 136 135 135 
125 128 131 133 131 126 118 109 101 97 96 101 109 119 130 138 143 143 140 134 128 124 121 120 120 121 122 123 123 124 126 128 131 135 138 140 141 139 136 132 128 125 123 123 123 124 126 127 129 131 133 137 141 145 149 151 152 151 148 143 139 136 135 136 138 140 142 141 137 129 120 111 103 98 97 100 108 119 131 143 152 157 158 154 148 140 133 127 124 125 128 132 135 137 137 134 130 126 123 123 
115 120 127 132 134 132 126 118 111 106 104 107 113 122 131 139 144 145 143 139 135 131 128 126 126 126 126 126 127 127 129 131 134 137 140 142 142 140 137 133 129 127 125 125 127 129 131 132 134 135 136 137 139 141 143 144 145 144 143 141 140 140 141 143 147 149 150 148 143 134 122 110 100 94 92 95 102 114 129 142 153 160 162 160 154 147 141 135 133 134 136 139 140 139 136 129 122 116 112 111 
107 115 124 132 137 137 134 127 120 115 113 115 120 127 135 142 146 148 146 143 139 136 132 130 128 128 127 127 128 129 131 134 136 139 141 142 141 138 135 131 127 125 125 126 129 132 135 138 139 139 138 137 136 134 133 133 133 133 133 134 136 139 143 148 153 156 157 154 148 137 124 111 99 91 88 91 98 110 125 140 152 160 162 161 156 150 144 140 139 140 142 144 143 140 133 124 114 106 102 102 
102 111 122 132 139 141 139 134 128 122 120 121 126 133 140 146 150 151 150 146 142 137 133 129 127 125 125 126 127 129 132 135 138 140 141 141 138 135 130 126 123 121 122 125 129 134 139 142 144 144 141 137 132 127 123 120 118 118 120 124 129 136 143 150 156 160 160 158 151 140 126 112 100 91 87 89 95 107 121 135 147 155 158 157 153 148 144 141 141 142 145 146 145 140 131 120 109 100 96 96 
101 111 122 133 140 143 141 136 131 126 124 126 130 137 144 150 153 153 151 147 141 135 129 124 121 119 119 121 124 128 132 136 139 141 141 139 135 130 125 120 117 116 117 121 127 133 140 145 148 148 144 138 130 121 113 108 104 104 107 113 121 130 140 149 156 160 161 159 152 142 129 115 102 93 89 89 95 104 116 129 140 147 150 149 145 141 138 137 139 142 145 147 145 140 130 119 107 99 94 95 
104 114 124 134 140 142 140 135 129 125 124 126 132 139 146 151 154 154 151 145 138 130 122 116 113 111 112 115 120 126 131 136 140 141 140 137 132 126 120 115 112 110 112 116 123 131 139 145 149 150 146 139 129 118 107 99 95 94 97 104 113 124 135 145 153 158 159 157 152 143 131 119 107 98 93 93 96 103 113 123 131 136 138 136 134 130 129 130 133 138 143 146 145 141 132 120 109 101 97 98 
111 119 129 136 140 140 136 130 124 120 120 123 129 137 145 151 153 153 149 142 133 124 115 108 104 103 105 109 116 123 130 136 140 141 139 135 130 123 117 112 108 107 108 112 118 127 135 143 148 150 147 140 130 117 106 97 91 90 93 99 108 119 130 140 147 152 154 153 149 142 133 123 114 106 101 100 101 105 111 117 122 125 125 123 120 118 118 121 126 133 140 145 145 142 134 125 115 107 104 105 
120 127 134 139 140 137 131 124 117 113 113 117 124 133 141 148 151 150 146 138 129 118 109 102 98 98 100 106 113 121 129 135 139 140 138 134 128 122 116 111 108 106 106 109 115 122 130 138 145 148 146 141 131 120 109 99 93 91 93 99 106 116 125 133 139 143 145 145 143 140 135 129 123 117 113 110 109 110 112 114 115 114 113 110 107 106 108 112 119 128 137 143 145 144 138 130 122 116 114 115 
