P2
100 100
255
131 137 141 143 141 135 127 117 109 104 104 108 116 126 136 144 148 148 144 136 126 115 105 98 95 94 98 104 112 121 129 135 138 138 136 132 128 123 118 114 111 109 108 109 112 118 124 132 139 143 144 141 134 125 115 106 100 97 98 102 107 113 120 125 129 132 134 136 137 138 137 135 133 129 126 123 120 118 116 113 110 106 102 99 96 96 99 104 113 124 134 142 146 146 142 136 130 126 124 126 
141 146 148 148 143 135 123 112 103 98 97 102 110 120 130 139 144 145 142 135 126 116 107 101 98 98 101 107 114 122 128 133 135 134 132 130 127 124 122 120 119 117 115 113 113 115 119 124 130 135 139 139 136 131 125 118 113 110 109 109 111 114 116 117 118 120 122 125 129 134 139 142 143 143 141 138 133 128 122 116 109 103 98 93 91 92 95 102 111 122 132 140 145 146 144 140 137 134 134 137 
149 153 154 152 146 135 122 110 100 94 93 97 105 115 126 135 141 143 141 136 129 121 113 108 106 106 109 114 119 124 128 130 130 128 126 125 125 126 128 129 129 128 125 121 117 114 114 116 120 126 131 135 137 137 135 131 127 124 121 119 117 115 112 110 108 108 111 115 123 131 140 147 152 155 154 151 145 138 129 120 111 103 97 93 91 92 96 103 112 122 131 139 143 144 143 141 139 139 141 145 
154 158 159 156 148 137 123 110 100 94 92 96 103 113 124 133 140 143 143 140 134 128 123 119 118 118 120 123 126 128 128 127 124 121 119 119 121 126 132 138 141 141 138 131 124 116 111 109 110 115 122 130 136 141 143 143 141 138 134 128 122 116 110 104 101 100 102 108 118 129 142 152 159 163 164 161 155 146 136 125 115 106 100 96 96 98 102 109 117 125 132 137 139 140 139 138 138 140 144 149 
155 160 161 158 150 139 126 112 102 96 95 98 105 114 125 134 141 145 146 144 141 137 134 131 131 131 133 134 134 132 128 123 117 112 110 111 116 125 135 145 151 153 150 142 131 120 110 103 102 106 113 123 133 142 148 151 151 148 143 135 126 116 108 100 96 94 97 104 115 129 143 155 163 168 168 166 160 151 140 129 119 111 106 104 104 107 112 118 124 129 132 134 133 132 130 130 131 135 141 149 
153 159 160 158 151 140 128 115 106 100 99 103 109 118 128 136 143 146 147 147 145 143 142 142 142 143 144 144 142 136 129 120 111 104 101 102 109 121 135 148 158 162 160 152 139 124 110 101 96 98 106 117 130 142 151 156 157 154 147 138 127 116 106 98 94 93 97 105 116 130 144 155 163 168 168 166 160 151 141 131 122 116 113 113 116 120 125 129 133 134 133 130 126 122 119 119 122 127 136 145 
149 155 158 156 150 140 129 118 110 106 106 110 116 124 132 139 144 146 147 147 146 146 146 148 150 152 153 151 147 140 130 117 106 97 93 95 103 116 133 149 162 168 167 160 146 130 113 100 94 94 101 112 127 140 151 157 158 155 147 137 126 115 105 99 96 96 100 108 119 132 144 153 160 163 163 160 155 147 139 131 125 121 121 123 128 133 138 141 142 139 134 126 118 112 108 107 111 118 128 139 
143 150 153 152 146 138 128 120 114 112 113 117 124 131 137 141 143 144 143 142 142 142 144 148 151 155 157 156 151 143 131 117 104 93 88 89 97 111 129 147 162 170 171 164 152 134 117 102 94 93 99 110 125 138 149 155 155 151 144 133 123 113 106 102 101 103 108 115 124 134 143 149 153 155 154 151 146 140 133 128 125 125 127 133 139 145 150 151 149 143 133 122 111 102 97 97 101 109 120 132 
138 145 148 146 140 133 125 119 116 116 120 125 131 136 140 141 140 138 136 133 133 134 137 142 148 153 156 157 153 145 133 118 104 93 87 87 94 107 125 143 159 168 171 166 155 139 121 107 98 96 101 112 125 137 147 151 150 145 137 127 118 111 107 107 109 113 119 125 131 136 140 143 144 143 141 138 134 130 127 124 124 127 132 140 147 154 158 159 155 146 133 118 105 95 89 89 93 102 114 127 
134 140 142 139 133 127 121 117 117 120 125 131 136 140 141 139 135 130 125 121 120 122 126 133 140 147 153 155 153 146 135 122 108 97 90 89 94 105 121 139 154 164 168 165 156 142 126 113 104 102 107 115 127 137 144 147 144 138 129 120 113 110 110 113 119 125 131 135 138 139 138 135 133 130 127 125 123 121 120 121 123 128 135 144 153 160 164 163 158 147 132 116 101 90 85 85 90 99 111 124 
133 137 137 133 126 120 116 115 117 122 129 136 140 142 140 134 127 119 112 108 106 108 114 121 131 140 147 151 151 147 138 127 115 104 97 95 98 106 119 135 148 158 163 161 155 144 131 120 112 111 114 122 130 138 142 142 137 130 121 113 109 109 113 120 129 137 143 145 144 141 135 128 123 118 115 114 114 115 116 118 123 129 136 146 154 162 165 165 159 147 132 114 99 89 84 85 90 100 112 124 
134 136 134 127 120 114 111 112 117 124 132 139 142 142 137 129 119 109 101 96 95 97 103 112 122 132 140 146 148 146 141 133 124 115 108 104 105 111 120 131 142 151 156 156 151 143 134 126 120 119 122 128 135 139 141 138 131 122 113 107 106 109 117 127 138 147 153 153 150 142 133 123 115 110 108 108 109 112 115 118 122 128 135 144 153 160 164 163 158 147 131 115 100 90 86 88 95 105 117 128 
138 137 132 124 116 110 108 111 117 126 135 142 144 141 134 123 111 100 92 88 88 91 97 106 116 126 134 140 144 145 143 139 133 127 121 117 116 117 122 129 136 143 147 148 146 141 136 131 127 127 130 134 138 140 139 134 125 116 108 103 103 109 119 132 145 155 160 159 153 144 132 120 112 107 105 107 110 113 116 119 122 127 133 140 148 155 159 159 155 145 131 116 103 95 92 95 103 113 125 133 
142 139 132 122 113 108 107 111 119 129 138 144 145 140 131 118 106 95 88 85 86 90 97 105 114 122 129 135 139 142 143 143 141 138 135 131 127 125 125 127 130 133 137 138 139 137 135 133 132 133 135 138 140 140 136 130 121 111 104 100 102 109 121 135 148 158 163 162 155 144 132 120 112 108 108 111 115 118 121 122 123 124 128 133 140 147 152 153 150 142 131 118 107 100 99 103 112 123 133 140 
146 141 132 121 113 108 108 113 122 133 142 147 146 140 129 116 103 94 88 87 90 95 102 110 117 122 126 130 133 137 141 144 147 147 146 143 138 133 128 125 124 124 126 128 130 132 133 134 134 136 137 139 139 138 134 127 118 109 102 99 101 109 121 135 148 158 162 161 154 144 133 122 116 113 114 118 122 125 126 124 122 121 122 125 131 137 143 146 145 139 130 120 111 107 107 112 121 131 140 146 
148 141 132 121 112 108 109 116 126 136 145 149 148 141 129 116 104 96 92 93 98 105 112 118 122 124 124 125 126 130 136 143 149 153 155 152 147 139 130 122 117 114 115 118 122 126 129 132 134 136 137 137 137 135 130 124 117 109 103 101 103 109 119 132 144 153 157 156 151 143 133 125 121 120 123 127 130 132 130 126 121 117 115 116 121 127 133 138 139 136 129 122 115 112 114 120 129 138 146 149 
147 140 130 120 112 109 111 118 128 139 147 151 149 141 130 118 107 101 100 103 110 118 124 128 129 126 122 119 119 122 129 138 148 155 159 158 152 142 130 118 110 105 105 108 114 120 126 130 133 134 135 134 133 131 128 123 118 112 108 105 106 110 118 128 137 145 148 148 145 139 132 128 126 127 131 135 137 137 133 126 118 112 108 108 111 118 125 131 133 133 129 123 119 117 119 125 133 142 148 150 
145 137 128 118 111 109 112 119 129 140 148 151 149 142 132 121 113 109 110 116 124 132 137 138 135 128 119 113 110 113 120 132 144 155 160 160 153 141 127 113 103 97 97 101 108 116 123 129 132 132 131 130 128 127 125 124 121 118 115 113 112 113 117 122 128 133 136 137 136 133 130 129 130 133 137 141 142 140 134 125 115 107 102 101 105 111 119 126 130 131 129 125 122 121 123 129 136 142 147 148 
141 134 124 115 109 107 110 118 128 138 146 149 148 142 133 125 119 118 121 128 137 144 147 145 138 127 115 106 101 104 112 125 139 152 158 158 151 139 123 108 97 91 91 96 104 114 123 129 131 130 128 125 123 123 124 126 127 127 125 123 120 118 117 117 119 121 123 124 125 126 127 129 133 137 142 144 144 140 132 122 111 103 98 98 101 108 116 124 129 131 130 128 125 124 126 131 136 142 145 145 
138 130 121 113 107 105 108 115 124 133 141 144 144 140 134 128 125 126 131 138 146 152 153 148 138 124 110 99 94 96 104 118 134 148 155 155 148 134 118 102 92 87 88 95 105 116 125 131 132 130 125 121 119 120 123 129 134 137 137 135 130 124 118 113 110 109 110 112 115 118 123 128 134 139 143 145 143 137 128 118 108 100 96 97 101 108 117 125 131 133 133 131 129 128 129 133 137 141 143 142 
136 129 120 112 106 103 105 110 118 126 133 137 138 137 133 131 130 133 138 146 152 156 155 148 135 119 104 93 88 90 99 114 130 144 152 152 144 130 113 98 89 85 88 97 109 121 131 136 135 130 123 117 115 116 122 131 140 147 149 147 141 132 121 112 104 100 100 102 106 113 120 128 135 141 144 144 141 134 124 114 105 99 97 98 104 112 121 129 135 138 138 136 134 132 133 135 138 141 142 141 
137 130 122 113 106 102 102 105 111 118 125 129 132 132 132 132 133 137 143 150 155 157 153 144 131 114 100 89 85 88 98 112 128 142 149 148 140 126 110 96 88 87 92 103 116 130 139 143 140 132 123 114 110 112 120 132 144 154 159 158 152 140 126 112 101 95 93 95 101 109 119 129 137 142 144 142 138 130 120 111 104 99 99 102 108 117 127 135 140 143 143 141 138 137 137 138 141 143 144 142 
141 135 126 117 110 104 102 102 106 111 117 122 125 128 130 132 135 140 146 151 155 155 150 140 126 111 97 89 86 90 100 114 129 142 148 146 137 124 109 97 91 92 99 112 127 141 149 151 146 135 122 111 106 107 116 130 146 158 166 166 160 147 131 114 100 92 89 92 99 109 121 131 139 143 144 141 134 126 117 109 104 101 102 107 114 123 132 140 145 147 146 144 142 140 140 141 143 145 146 145 
146 141 133 124 116 109 104 102 104 107 111 116 121 125 128 132 136 141 146 150 152 151 145 136 123 109 98 92 91 96 106 119 133 143 148 145 136 123 110 100 97 100 109 124 139 152 159 159 151 138 122 108 101 101 110 126 144 159 169 171 165 153 135 117 102 92 89 93 101 112 124 135 142 145 144 139 132 123 115 108 104 104 106 112 120 128 137 143 147 148 147 145 142 140 140 141 144 147 149 149 
151 148 142 133 124 116 109 106 105 106 110 114 119 124 128 133 137 142 145 148 149 146 141 132 121 111 103 99 100 105 115 127 139 147 149 145 136 124 113 105 104 109 121 136 151 162 168 165 156 140 121 105 96 95 104 119 139 156 168 172 168 156 139 120 104 94 92 96 105 117 129 139 145 146 143 137 129 121 113 108 106 107 111 117 124 132 139 144 146 146 144 140 137 136 136 138 142 146 150 152 
154 153 149 142 133 124 117 112 109 110 112 116 121 126 130 134 138 141 143 144 144 141 136 129 121 115 110 109 112 118 127 137 145 150 150 145 136 125 116 111 111 119 131 146 160 170 174 170 159 141 121 103 92 89 97 112 131 150 164 170 167 156 140 122 107 97 95 100 110 122 134 142 147 146 142 134 126 119 113 109 109 111 115 121 127 134 138 141 141 139 135 131 128 126 127 130 135 141 147 152 
153 155 153 148 141 132 125 120 117 116 118 122 126 130 134 137 139 140 140 139 137 134 131 126 122 119 118 120 125 131 139 146 151 152 150 144 135 125 118 114 117 125 138 153 166 174 177 172 161 142 121 101 89 85 91 105 124 143 158 165 164 155 140 123 109 101 100 105 115 127 137 144 146 144 138 131 123 117 113 112 113 116 121 125 130 134 136 136 133 129 124 118 114 112 113 117 124 132 141 148 
149 153 153 150 145 138 131 127 124 124 126 129 133 136 138 139 139 137 135 132 129 127 124 123 122 123 126 131 137 143 149 153 154 153 148 141 132 123 117 115 119 128 141 154 166 174 176 172 160 142 121 102 88 83 87 99 117 135 150 159 159 151 138 124 112 105 104 110 119 130 138 143 144 140 134 126 120 116 115 116 119 123 127 131 133 134 133 130 125 118 111 105 100 97 98 102 110 120 131 141 
141 147 149 148 144 139 134 131 131 132 135 138 141 143 143 141 138 134 129 124 120 118 117 118 121 126 132 139 146 151 155 157 155 151 144 135 126 118 113 112 116 125 137 150 162 169 172 168 158 142 122 104 90 85 87 97 112 129 143 152 153 147 136 123 113 108 108 113 122 131 137 140 138 134 128 122 118 117 119 122 127 131 135 137 137 136 132 126 118 109 100 93 87 85 85 89 97 107 119 131 
132 139 142 141 139 136 133 132 134 137 141 145 147 148 147 143 137 129 122 116 111 109 109 112 118 126 135 143 151 156 158 157 154 147 138 128 119 111 107 106 110 118 129 141 152 160 164 162 154 141 124 107 95 89 90 98 110 125 138 146 147 142 133 123 114 110 111 116 123 130 134 134 132 127 122 118 117 120 124 130 136 141 144 144 143 139 133 125 115 105 94 86 80 77 76 80 87 97 109 122 
124 130 133 132 130 128 128 129 133 138 144 149 151 151 148 142 134 125 115 108 102 100 101 106 114 124 134 145 152 157 158 156 150 141 130 120 110 103 99 99 102 108 117 127 138 147 152 153 148 139 126 113 103 97 97 103 113 124 135 141 142 138 130 122 116 113 114 118 123 128 130 128 125 120 117 116 119 124 132 139 146 150 152 152 148 143 136 127 117 105 95 85 79 75 74 77 83 92 104 115 
120 124 125 123 120 119 120 123 129 136 144 149 152 152 148 141 131 120 110 102 96 94 96 101 110 121 133 143 151 156 156 152 144 134 123 112 103 96 93 92 93 98 104 113 123 132 139 142 142 137 129 120 112 107 107 111 118 127 134 139 139 135 128 122 117 115 116 119 123 125 125 123 120 116 115 117 122 131 140 148 155 158 159 157 153 148 141 132 123 112 102 92 85 80 79 81 86 94 104 113 
121 122 120 116 112 110 111 115 122 131 140 146 150 150 146 138 128 117 107 99 94 92 94 99 108 119 131 141 149 152 152 147 138 128 116 106 97 91 88 86 87 90 95 101 109 118 126 132 135 135 132 127 122 119 118 121 125 131 136 138 137 133 127 122 118 116 117 120 122 124 123 120 117 115 115 120 128 137 147 156 161 163 162 159 155 150 145 139 132 124 115 106 99 94 92 93 97 103 111 117 
127 124 119 113 107 104 104 108 116 125 133 140 144 145 141 134 125 116 107 100 95 94 96 101 109 119 130 139 146 149 147 142 133 122 111 102 94 89 86 85 85 87 90 94 100 108 116 123 129 133 134 133 131 130 130 131 133 136 138 139 136 132 126 122 118 118 119 121 123 123 122 119 117 116 118 124 133 143 152 159 162 162 159 155 151 148 146 144 141 137 132 125 119 114 111 111 114 119 123 127 
136 130 123 114 106 102 101 104 110 118 126 133 137 137 135 130 124 117 110 105 102 101 103 108 114 123 131 138 143 145 142 136 128 118 109 100 95 91 89 88 88 89 91 93 98 103 110 118 125 131 135 137 138 138 139 140 141 141 141 139 136 131 126 121 119 119 120 122 123 124 122 120 119 119 123 129 138 147 154 158 158 155 150 146 142 141 143 146 148 149 148 145 141 136 134 133 134 136 138 139 
145 138 129 119 110 104 102 103 107 113 119 124 128 129 129 126 123 119 116 114 113 113 114 118 122 128 134 138 141 141 137 131 124 115 107 101 98 96 96 96 97 98 98 99 101 105 109 115 122 129 134 139 142 144 145 145 146 145 143 140 135 130 125 121 119 119 121 123 125 125 124 123 122 123 127 133 140 147 151 151 148 142 135 130 127 129 135 143 151 158 161 161 159 156 153 151 151 151 151 149 
151 145 136 126 118 111 107 106 107 110 113 117 119 121 122 123 124 124 125 125 126 127 128 130 132 135 137 138 138 136 132 127 120 113 108 104 103 104 106 109 111 112 112 111 110 111 112 115 120 126 132 137 141 145 147 148 148 146 144 140 134 129 124 120 118 119 121 124 126 127 127 126 125 127 130 134 139 142 143 139 133 124 116 110 109 114 123 136 149 160 168 171 170 168 165 162 161 159 158 156 
153 148 142 134 127 121 116 112 110 110 110 111 112 114 117 121 125 129 134 137 139 141 141 141 141 140 139 138 135 132 127 122 116 111 108 108 110 114 119 124 128 129 129 126 123 120 117 117 119 122 127 133 138 142 145 147 147 145 142 138 133 127 122 119 118 119 122 125 127 129 129 128 128 128 130 133 135 135 132 125 116 106 97 92 92 98 110 127 144 158 168 173 174 171 168 164 161 159 158 156 
149 148 145 141 136 131 126 121 116 112 109 107 107 109 113 119 127 135 142 147 150 152 151 150 147 144 140 136 132 127 122 117 112 110 109 112 117 124 132 139 145 147 146 142 136 129 123 119 117 118 122 127 132 137 140 143 143 142 139 135 130 125 121 119 118 120 123 126 129 130 130 129 128 128 128 129 128 126 120 112 101 91 83 79 80 87 100 117 136 153 164 169 170 166 162 157 153 150 149 149 
140 143 145 146 144 141 136 130 123 116 109 105 104 106 111 119 129 139 148 154 157 158 157 153 149 144 138 133 128 122 117 113 110 109 111 115 123 133 143 152 158 161 159 154 146 137 127 120 115 114 116 120 125 130 134 136 137 137 134 131 127 123 121 120 120 122 125 129 131 131 130 129 127 125 124 123 121 117 111 102 91 82 75 72 73 80 93 110 129 146 156 161 160 155 148 142 137 135 135 137 
129 136 143 148 150 149 145 138 129 120 112 106 104 105 111 120 131 142 151 157 160 160 157 152 147 141 135 129 124 119 114 111 109 109 112 119 128 139 151 160 166 169 167 161 152 141 129 120 113 111 111 114 119 123 127 129 130 130 128 126 124 122 121 122 124 127 130 132 133 133 130 127 124 121 120 118 116 112 105 97 88 80 74 72 74 80 92 108 125 139 147 149 146 139 130 123 117 116 117 122 
118 129 139 147 153 154 151 144 135 125 115 108 105 107 112 121 132 143 151 156 157 156 152 147 141 135 130 125 121 118 114 112 111 112 116 122 132 143 154 163 169 171 169 162 153 141 129 119 112 109 109 112 115 119 121 122 123 122 121 120 120 121 123 126 129 133 136 137 136 134 130 125 121 117 115 114 112 110 105 99 92 86 81 79 81 87 98 110 123 134 138 137 131 122 113 104 100 98 101 108 
110 122 135 146 153 156 154 148 139 129 119 111 108 109 115 123 133 141 148 151 151 148 143 138 133 128 125 123 121 119 118 117 116 117 120 126 135 145 154 162 167 168 165 158 148 137 126 118 112 111 111 113 116 117 118 117 116 114 114 114 117 120 125 131 136 140 143 143 140 135 129 123 117 114 112 112 113 112 111 108 103 99 95 94 95 100 108 118 126 132 132 128 120 109 99 92 87 87 91 99 
106 119 132 144 152 156 155 150 142 132 122 115 112 112 117 124 132 138 142 143 141 137 133 128 124 123 122 123 124 125 125 124 124 124 126 131 137 144 151 157 160 159 156 149 140 131 123 117 115 116 118 120 121 120 117 114 110 107 106 108 113 120 128 137 143 148 150 148 144 137 129 121 115 111 111 113 116 119 120 120 119 116 114 113 114 117 122 128 132 132 129 122 112 102 92 86 82 83 87 95 
106 118 131 141 149 153 153 149 142 134 125 119 115 116 119 124 130 134 135 134 131 126 122 118 117 119 122 125 129 132 133 134 133 133 133 135 138 143 147 149 150 148 143 136 129 123 119 118 120 124 128 130 130 126 120 113 106 101 100 103 110 119 131 142 150 155 156 153 147 138 128 119 113 110 111 115 121 127 132 135 136 135 134 133 133 134 136 138 137 134 128 119 109 100 92 86 84 85 89 96 
111 120 130 138 145 149 149 146 141 134 127 121 118 118 120 123 126 128 127 125 120 116 113 112 113 118 124 130 136 140 143 143 142 140 139 138 139 140 140 140 138 134 129 123 118 116 117 121 127 135 140 143 141 135 125 114 103 97 95 98 106 118 133 146 155 160 161 156 148 138 127 118 112 111 113 119 127 136 142 147 149 150 149 148 148 147 146 145 141 136 128 119 110 102 96 92 91 93 97 103 
117 123 129 135 139 142 143 141 138 133 127 123 120 119 120 121 122 122 120 116 112 109 107 109 113 119 128 136 143 147 150 149 147 145 142 139 137 136 134 131 126 121 115 110 108 109 115 124 135 146 153 156 153 144 131 116 103 94 91 94 103 117 133 148 158 163 163 157 148 137 125 117 112 112 116 124 133 142 149 154 157 158 157 156 154 153 150 147 142 136 128 120 113 107 104 103 103 105 108 112 
123 125 127 130 132 134 136 135 133 130 127 124 121 120 119 119 118 116 114 110 107 105 106 109 115 124 133 141 148 152 153 152 149 145 141 137 134 131 127 123 117 110 104 101 100 104 114 127 142 155 164 167 163 153 137 119 103 92 88 92 101 116 133 148 158 163 162 155 146 134 124 116 113 115 120 129 138 146 152 156 158 158 156 155 153 151 148 144 139 134 127 121 117 114 114 115 116 118 120 122 
128 126 124 124 124 126 127 128 129 128 126 124 121 119 118 116 114 112 110 107 105 106 108 113 120 129 138 146 151 153 152 149 145 140 136 132 129 126 122 117 111 104 98 95 95 101 113 129 146 161 170 173 169 158 142 122 104 93 88 91 101 116 132 147 156 160 158 151 141 131 122 116 115 118 125 133 140 147 151 152 152 150 148 146 145 143 141 138 134 130 126 123 121 121 123 126 129 131 131 130 
130 125 120 117 116 117 119 122 124 125 125 124 122 119 117 115 112 110 108 107 107 109 113 119 127 135 143 148 150 149 146 141 135 131 127 125 123 122 119 115 109 102 96 92 93 99 111 128 146 162 172 176 172 161 144 124 106 94 90 93 102 116 131 144 152 154 151 144 135 127 120 117 118 123 129 136 141 145 145 144 141 138 135 133 133 132 132 131 129 127 125 124 125 127 132 136 139 140 139 136 
130 122 115 110 109 110 113 117 121 124 125 125 123 120 118 115 113 111 110 110 112 115 120 126 134 140 145 148 147 143 137 130 123 119 116 116 118 119 119 116 111 104 98 93 93 98 109 125 143 159 169 173 169 159 143 125 108 98 94 97 106 118 131 141 147 147 143 136 129 122 119 119 122 128 134 139 141 141 138 133 128 124 121 120 120 122 124 125 125 125 125 126 128 133 138 143 146 147 144 138 
129 119 110 105 103 105 109 115 120 125 127 127 126 123 120 117 115 114 114 115 118 122 127 133 139 144 146 145 141 134 126 117 110 106 106 108 113 118 121 121 118 111 103 97 95 98 106 120 137 151 162 166 163 153 139 124 111 102 100 104 113 123 132 139 141 139 134 128 122 119 119 122 127 133 138 141 140 137 130 123 116 111 109 109 112 115 119 123 125 126 127 129 132 137 142 147 150 150 146 139 
127 116 107 102 100 103 108 115 122 127 131 131 130 128 125 122 120 119 120 121 124 128 133 138 142 145 145 142 136 126 116 107 100 97 98 103 111 119 126 129 127 121 112 104 99 98 104 114 128 141 150 154 152 144 133 122 113 108 109 114 121 129 135 137 136 131 125 120 116 116 119 125 132 138 142 142 139 132 124 115 107 103 101 103 108 114 120 124 128 129 131 132 135 140 144 149 151 150 146 138 
126 115 106 101 100 103 110 118 126 132 136 137 136 133 131 128 126 125 126 127 129 133 136 140 143 145 143 139 131 120 109 100 93 91 93 101 111 123 133 138 138 132 122 112 104 100 102 109 118 129 136 140 138 133 125 118 114 114 118 124 131 137 139 137 132 125 118 113 112 115 121 129 136 142 145 143 138 129 119 109 102 99 99 103 109 117 124 129 133 134 135 136 138 142 146 149 151 150 145 137 
126 115 107 103 103 107 114 123 131 138 142 143 142 139 136 134 132 131 131 132 133 135 137 140 142 143 141 136 128 118 107 97 91 89 93 102 114 128 140 147 148 143 133 121 110 104 102 105 111 118 123 126 124 121 117 115 115 120 127 135 141 144 143 137 128 119 112 109 109 115 123 132 140 146 147 143 136 126 116 107 102 100 102 107 114 122 130 135 137 138 138 138 139 142 146 149 151 149 144 136 
126 116 109 106 107 112 120 129 138 144 147 148 146 143 140 138 136 135 134 134 134 134 135 137 139 139 138 135 128 119 108 99 93 92 96 105 118 133 146 154 156 151 141 129 117 108 104 104 107 111 114 115 113 111 110 111 116 124 134 143 149 150 146 137 126 115 108 106 108 115 125 135 143 147 147 142 134 124 115 108 104 104 107 113 121 128 134 138 140 139 138 137 138 141 144 148 149 148 144 136 
127 118 112 109 111 117 126 135 143 148 151 150 148 145 142 139 137 136 134 133 132 131 131 132 134 136 136 135 130 123 114 105 99 97 101 110 123 138 150 158 160 156 147 135 122 113 108 107 108 109 110 109 107 105 105 108 116 127 139 149 154 154 147 136 123 112 105 104 108 116 127 137 144 147 145 140 132 123 115 110 108 109 113 119 126 132 136 138 138 136 134 133 134 137 142 145 148 147 143 136 
126 118 113 112 115 121 130 140 147 151 152 151 147 143 140 137 135 133 131 130 128 127 126 128 130 133 135 136 134 129 121 113 107 104 107 114 126 139 151 159 161 157 149 138 127 119 114 113 113 113 112 109 105 102 103 107 116 129 142 152 156 154 146 134 120 109 102 102 108 117 128 137 143 145 142 136 129 121 115 112 112 114 118 123 128 131 133 133 131 128 126 126 129 133 138 143 146 146 142 135 
124 116 112 112 115 123 132 141 148 151 151 148 144 139 134 131 129 127 126 124 123 122 122 123 127 131 136 138 138 135 129 122 115 111 112 117 127 138 149 155 157 154 147 138 130 124 121 121 122 121 119 114 109 104 103 107 116 129 142 151 155 152 143 130 116 105 100 101 108 118 128 137 141 141 138 132 125 120 116 115 116 118 122 125 127 127 126 124 121 118 117 118 122 128 135 141 144 144 140 133 
120 113 108 109 113 122 132 141 147 150 148 144 138 132 126 123 121 120 119 119 118 118 119 121 126 131 137 141 143 141 136 128 121 116 115 118 125 134 143 149 150 148 142 136 131 128 128 130 132 132 129 123 116 109 106 109 117 128 140 149 151 148 138 125 112 103 99 101 108 118 127 135 138 137 133 127 122 118 117 118 119 122 124 124 123 121 117 113 110 108 108 111 117 125 134 140 143 142 137 129 
115 107 103 103 109 118 128 138 144 146 144 139 131 124 118 114 112 112 112 113 114 116 118 122 127 133 140 144 146 145 140 132 124 118 115 117 122 129 136 140 142 140 136 132 130 130 134 139 142 143 140 133 124 116 111 112 118 127 138 145 147 142 133 120 109 101 99 102 109 118 126 132 133 131 127 122 119 117 118 120 123 124 124 123 119 114 109 104 101 100 102 108 116 126 135 141 144 141 135 125 
109 100 96 97 103 112 123 134 141 143 140 134 126 117 110 106 105 105 107 110 113 116 120 125 131 137 142 146 148 146 140 132 124 117 114 114 117 123 128 132 133 132 129 128 128 132 138 145 150 152 149 142 133 123 117 116 120 127 135 141 142 138 128 117 107 101 100 104 111 119 126 129 129 126 122 118 116 117 119 123 126 127 126 122 116 109 103 99 96 97 102 109 119 130 139 145 146 141 132 120 
103 94 90 91 97 107 119 130 138 140 138 131 122 113 106 102 100 101 104 108 113 119 124 130 135 141 145 147 147 144 137 129 121 114 111 110 113 118 123 126 127 126 124 124 126 131 139 148 154 157 155 148 139 129 122 119 122 128 135 139 140 135 127 117 109 105 105 109 116 122 127 128 126 121 117 114 114 117 121 126 129 130 128 122 116 108 102 98 98 101 107 116 127 138 147 151 149 142 130 116 
99 89 85 86 92 103 115 128 136 140 138 132 123 113 105 100 99 100 104 109 116 123 130 136 141 145 147 147 144 139 132 124 116 110 108 108 111 116 120 123 124 123 122 122 125 130 138 147 154 157 155 149 140 131 125 122 124 130 136 139 140 135 128 121 114 112 113 117 123 127 129 128 123 118 114 112 113 117 123 129 133 133 131 125 118 111 106 104 105 109 117 128 139 148 155 157 153 143 129 114 
97 87 83 84 91 102 115 127 137 141 140 135 126 116 108 103 100 102 106 112 120 128 136 142 146 147 147 144 139 132 125 117 111 107 106 108 112 118 122 125 126 125 123 122 124 129 136 143 149 152 150 145 137 130 125 124 127 132 138 142 142 139 133 127 123 122 124 128 132 134 133 129 122 116 112 110 113 119 126 133 137 138 135 130 124 118 114 113 116 122 130 141 150 158 162 162 156 144 129 112 
97 88 84 86 93 104 117 130 140 145 144 139 131 122 114 107 105 106 110 117 125 134 141 146 149 149 146 140 133 125 117 111 106 105 106 110 116 122 127 130 131 129 126 125 125 127 132 137 141 142 141 136 130 125 123 124 129 135 141 145 146 144 140 136 133 133 136 139 142 141 138 131 123 116 111 110 114 121 129 136 140 141 139 135 130 126 123 124 128 135 143 152 159 165 166 164 156 144 128 111 
100 92 90 92 99 110 123 135 144 148 149 145 137 129 120 114 111 111 115 122 130 138 145 149 150 148 142 135 126 118 111 106 104 105 109 115 123 129 135 137 137 135 131 128 126 126 128 130 131 131 128 124 120 118 119 123 129 137 144 149 150 149 146 144 143 144 147 149 150 148 143 134 125 116 112 112 116 124 132 139 143 144 142 139 135 132 132 134 139 145 152 159 164 166 166 162 154 141 126 112 
104 99 99 102 110 119 130 140 148 152 152 149 142 135 127 120 117 117 120 126 134 142 147 150 150 145 138 129 119 111 105 103 103 107 114 122 130 137 142 144 144 141 136 132 128 126 125 123 122 119 116 112 110 110 113 120 129 139 146 151 153 152 150 149 149 151 154 156 156 153 146 137 126 118 114 115 119 127 135 141 145 145 143 140 137 136 136 139 144 149 155 159 162 162 160 155 147 136 124 113 
110 109 111 115 122 130 138 146 151 153 153 150 145 138 132 126 123 122 125 130 137 144 148 150 148 142 133 123 113 106 102 102 105 111 120 129 138 144 148 150 148 145 140 135 130 126 122 118 114 110 105 102 101 103 108 117 128 138 146 151 152 152 150 149 150 153 156 159 158 155 147 138 128 121 117 118 123 131 138 143 145 144 142 138 136 135 136 139 143 147 151 153 153 152 149 143 137 129 121 114 
117 120 124 129 135 141 146 149 152 152 151 148 144 139 134 130 127 127 129 134 139 145 148 148 144 137 128 117 108 103 100 102 108 116 126 136 144 149 152 152 150 146 141 136 131 126 122 116 110 104 99 95 95 98 105 115 126 137 144 148 149 147 145 144 145 148 152 155 156 152 146 137 129 123 121 123 128 135 140 144 144 141 137 133 130 129 130 133 136 139 141 141 139 137 133 129 124 120 118 116 
124 130 136 141 146 149 150 150 150 148 147 144 141 138 134 131 129 129 132 136 141 145 147 146 141 133 123 113 105 100 100 104 111 121 131 141 147 151 152 151 147 143 139 135 131 127 122 116 110 103 97 93 93 96 103 113 124 134 140 143 141 138 135 133 134 138 143 146 148 146 141 135 128 125 124 127 133 138 142 143 141 137 131 125 122 120 121 123 125 127 127 126 123 120 117 114 112 112 114 118 
129 137 144 149 152 152 151 148 145 142 140 138 136 134 132 130 130 131 133 137 141 144 145 143 137 129 119 109 102 99 100 105 114 124 135 143 149 151 150 147 142 138 134 132 129 127 124 119 113 106 99 95 94 97 104 113 123 131 136 135 132 126 122 119 120 124 129 133 136 136 134 130 127 125 127 131 137 141 143 142 138 131 123 116 112 110 110 112 114 115 114 112 109 106 104 103 104 107 113 120 
132 141 148 152 153 152 148 144 139 135 132 130 129 129 129 128 129 130 133 137 141 143 144 141 135 126 116 107 100 98 99 106 115 126 136 144 148 149 146 141 136 131 128 127 127 127 126 123 118 111 105 101 99 102 107 115 123 129 131 128 122 115 109 105 105 108 114 119 123 125 125 124 124 126 129 134 140 143 143 140 133 124 115 108 103 101 102 103 105 106 106 104 101 99 97 97 100 105 113 122 
133 141 146 149 149 146 142 137 132 128 125 124 124 124 125 125 126 128 131 135 139 142 142 140 134 125 115 106 100 97 99 105 115 125 136 143 146 145 141 135 129 124 121 121 123 126 128 127 124 119 114 109 107 109 113 119 125 129 128 123 115 106 99 94 94 96 101 106 111 115 117 119 122 125 131 136 141 143 142 137 129 119 109 102 97 96 97 99 102 103 103 102 100 99 98 99 102 107 115 124 
132 137 141 142 141 138 134 129 125 122 120 120 120 120 121 121 122 124 127 132 136 140 141 140 134 126 117 107 101 97 99 104 113 123 133 140 143 142 138 131 124 118 116 117 120 125 129 131 130 127 123 119 116 117 120 124 128 130 127 121 112 103 94 89 88 89 93 98 103 107 111 115 120 125 131 137 142 143 140 133 124 114 105 98 95 95 97 101 104 107 108 108 107 106 106 107 109 113 119 125 
129 130 131 131 130 128 125 122 120 119 118 118 118 118 117 117 117 119 122 126 131 136 140 140 137 130 121 111 104 99 99 103 110 120 130 137 141 141 136 129 122 116 113 114 118 124 130 134 135 134 131 127 125 125 127 130 132 133 130 123 114 105 96 91 89 89 92 95 100 104 108 113 119 125 132 138 141 141 137 130 120 111 103 98 97 99 103 108 112 116 119 120 120 120 119 120 120 122 124 126 
124 122 121 120 119 118 118 118 119 119 119 119 118 117 114 112 111 111 114 119 126 133 138 141 140 135 127 118 109 102 100 101 107 116 126 134 139 140 137 131 123 116 113 113 117 123 129 135 138 139 137 134 132 131 132 134 136 136 134 129 121 112 105 99 96 95 96 99 102 105 109 114 120 126 133 137 140 138 134 126 117 109 104 101 102 106 112 119 125 130 133 135 136 136 135 134 133 131 129 126 
120 115 111 110 110 111 114 117 120 123 124 123 121 117 113 108 105 104 106 111 119 128 137 143 145 143 136 127 117 108 102 102 105 113 122 132 138 141 140 134 127 120 115 114 117 122 129 135 139 141 140 138 136 135 135 137 139 140 139 136 131 124 118 113 110 108 107 107 108 109 112 116 122 128 133 137 138 136 131 124 116 110 107 107 111 117 124 132 139 144 147 149 150 150 149 146 143 138 132 126 
116 109 105 103 105 109 114 120 125 129 130 129 125 119 112 105 100 97 98 103 112 124 135 145 151 151 146 138 126 115 107 103 104 110 119 129 138 143 143 139 133 125 120 117 118 123 129 135 139 141 141 139 137 135 135 137 139 142 143 143 141 138 134 130 126 123 120 118 116 116 117 120 125 130 135 138 138 135 129 122 116 112 111 114 120 128 137 144 150 155 157 159 159 158 157 154 149 142 134 125 
114 106 102 102 105 110 118 125 132 136 138 136 131 123 114 104 97 93 93 97 107 120 134 147 156 159 156 149 137 124 113 106 105 108 117 127 137 144 146 144 138 131 125 121 121 124 129 134 139 141 140 138 135 133 133 134 137 140 144 147 148 149 148 146 142 138 134 129 125 123 122 124 128 133 137 139 138 135 129 122 117 115 117 122 129 138 146 153 158 160 161 161 161 160 158 155 150 143 133 123 
113 107 104 104 109 115 124 132 139 144 145 143 137 128 117 106 97 92 90 94 103 116 132 148 159 165 164 158 147 133 120 110 106 108 114 125 135 143 147 146 142 135 129 124 123 125 129 134 138 140 139 136 132 129 128 128 131 136 141 147 152 155 157 156 154 150 144 138 132 128 126 128 131 136 139 141 140 136 130 124 120 119 121 128 136 145 152 157 159 159 158 157 156 155 153 151 146 140 131 122 
116 111 110 111 116 123 131 139 145 149 150 148 142 134 123 112 102 94 91 93 101 114 130 147 160 168 170 165 155 141 126 115 108 107 113 122 132 140 145 146 142 137 131 126 125 127 130 135 138 139 137 133 129 124 121 121 124 128 135 142 149 155 159 160 159 155 149 142 135 131 129 130 133 138 142 143 142 137 132 126 122 122 125 131 139 147 152 155 154 152 149 146 144 143 143 142 139 135 129 122 
121 119 118 120 124 130 137 143 148 151 152 151 147 140 131 120 109 101 95 95 101 112 127 144 158 168 171 168 159 146 131 118 110 107 111 118 127 136 141 142 140 135 130 127 126 128 131 135 138 138 136 131 125 120 115 114 115 119 126 134 142 149 155 158 158 154 149 142 135 130 129 130 134 139 144 145 144 140 134 128 124 124 126 132 139 144 147 147 145 140 135 131 128 128 129 131 131 131 128 125 
128 128 128 130 132 136 139 143 146 149 151 151 150 146 140 131 120 110 103 99 102 110 123 139 153 163 168 167 160 148 133 120 111 107 109 115 123 130 134 136 134 131 127 125 125 128 131 135 137 137 135 129 123 116 111 108 108 110 115 123 131 139 145 149 150 148 143 137 131 128 127 129 134 140 145 147 146 142 136 130 126 124 126 130 134 138 138 136 131 125 119 114 112 113 116 121 125 128 129 129 
137 137 138 138 138 138 139 139 140 142 145 148 150 150 148 141 132 122 112 105 104 108 118 131 144 155 161 161 156 146 133 121 112 108 108 112 118 123 127 128 127 125 123 122 123 127 131 135 137 137 134 129 122 115 109 105 103 104 107 112 118 126 132 136 139 138 135 130 126 124 124 128 133 139 145 147 147 143 137 131 127 124 124 126 128 129 127 123 117 110 104 100 99 102 107 114 121 128 132 135 
145 146 145 144 141 137 134 131 130 131 135 141 147 152 153 150 143 132 121 111 106 106 112 122 133 144 150 152 149 141 130 120 112 108 108 111 115 118 121 121 120 118 117 118 120 124 129 133 135 136 133 129 123 117 111 106 103 101 102 104 108 113 119 123 126 126 125 123 121 120 121 125 131 138 143 146 146 143 138 132 127 124 122 122 121 119 116 110 104 98 93 91 92 96 103 112 122 131 138 142 
151 152 150 146 141 133 126 120 117 118 123 131 141 150 155 156 151 141 128 116 107 104 105 112 122 131 138 141 139 134 126 119 113 110 110 111 114 116 117 116 114 113 112 114 117 121 126 130 133 134 133 130 126 121 116 111 107 104 102 101 102 105 108 112 115 117 117 117 116 117 119 123 128 135 140 143 144 142 138 133 128 124 121 118 116 112 107 101 95 90 87 87 90 96 105 115 126 136 143 149 
155 155 152 146 138 128 118 109 105 105 110 120 133 145 154 157 155 146 133 120 109 102 101 104 111 119 126 130 130 127 122 117 114 112 113 114 116 116 116 114 112 110 109 111 114 118 123 127 130 132 132 131 130 127 124 120 116 111 107 103 101 101 103 105 108 111 113 114 115 115 117 120 125 130 135 138 140 139 137 134 130 126 122 118 113 108 102 96 91 87 86 88 93 100 110 121 132 141 149 153 
156 155 151 144 134 122 111 101 95 94 99 109 123 138 149 155 155 148 136 122 110 102 99 100 105 111 117 121 122 121 119 117 116 116 117 119 120 120 118 115 112 110 109 110 112 116 120 124 127 130 132 133 134 134 134 131 128 123 117 111 106 103 103 104 107 110 113 114 115 116 116 118 120 124 128 131 134 136 136 135 133 130 126 121 115 108 101 95 91 89 89 93 99 108 118 129 138 146 151 154 
153 151 148 141 131 119 106 96 89 88 92 101 115 130 143 151 152 147 137 124 113 104 100 100 103 108 113 116 118 118 118 118 119 121 123 125 126 125 122 119 115 112 111 111 113 116 119 122 125 128 131 134 138 141 143 143 140 135 129 121 115 110 108 108 110 114 116 118 119 118 117 115 115 117 119 123 127 132 135 138 138 137 133 127 120 112 105 99 95 94 96 101 109 117 126 135 142 147 150 152 
146 145 143 138 129 118 106 96 88 86 88 96 109 123 136 145 148 145 137 127 117 109 105 104 106 109 113 116 117 118 119 121 123 126 129 131 132 131 128 124 120 117 114 114 115 117 119 122 124 127 131 136 141 146 149 151 150 146 140 132 125 120 117 116 118 121 124 125 124 121 117 113 110 109 111 114 120 127 134 140 144 144 142 137 129 121 113 106 103 103 106 112 119 126 133 138 141 143 145 145 
136 137 137 135 129 121 110 100 92 88 90 96 106 119 132 141 145 144 138 130 122 116 112 111 112 114 117 118 120 121 122 124 127 131 134 137 138 137 134 129 125 121 119 118 119 120 122 124 126 128 132 137 142 147 152 155 155 152 147 141 134 129 127 126 128 131 133 133 130 125 118 111 105 102 102 106 113 123 133 142 149 152 151 147 140 131 123 117 114 114 117 122 128 133 137 138 137 136 135 135 
125 128 132 133 131 126 117 108 100 95 95 99 108 119 130 139 144 144 140 135 129 124 120 119 119 121 122 123 123 124 126 128 131 135 139 141 142 140 137 133 129 125 123 122 123 124 126 127 129 131 134 137 142 146 150 153 153 152 148 144 140 137 136 136 139 141 143 142 137 130 120 110 101 96 95 99 107 118 131 144 153 158 159 156 149 141 133 127 124 125 128 132 136 138 138 135 130 126 123 123 
114 120 127 132 134 132 126 118 110 105 103 106 113 122 132 140 145 146 144 140 135 131 128 126 126 126 126 126 127 127 129 132 135 138 141 143 143 141 138 134 130 127 125 125 127 129 131 133 134 135 136 138 139 141 144 145 146 145 144 142 140 140 142 145 148 151 152 149 144 134 122 109 99 92 90 93 101 114 129 143 155 162 164 162 156 149 141 136 134 134 137 140 141 140 136 129 122 115 111 111 
106 114 123 132 137 138 134 127 120 114 112 114 119 127 136 143 148 149 148 144 140 136 132 130 128 128 127 128 128 129 132 134 137 140 142 143 142 139 135 131 127 125 125 126 129 132 136 138 140 140 139 138 136 135 134 133 133 133 133 134 136 140 144 150 154 158 158 156 149 138 124 110 98 89 86 89 97 109 125 141 153 161 164 163 158 152 146 141 140 141 143 145 144 141 133 124 114 105 101 101 
100 110 122 132 139 142 140 134 128 122 120 121 126 133 141 147 151 152 151 147 143 137 133 129 127 125 125 126 127 130 133 136 139 141 142 141 139 135 131 126 123 121 122 124 129 134 139 143 145 145 142 138 133 127 122 119 117 117 119 123 129 136 144 151 157 161 162 160 152 141 126 111 98 89 85 87 94 106 121 136 148 157 160 159 155 150 145 142 142 143 146 147 146 141 131 120 108 99 94 95 
99 110 122 133 141 144 142 137 131 126 124 126 131 138 145 151 154 155 153 148 142 135 129 124 120 119 119 121 124 128 133 137 140 142 141 139 136 130 125 120 117 115 117 120 126 134 141 146 149 149 145 139 130 121 113 106 103 103 106 112 120 130 141 150 158 162 163 161 154 143 129 114 101 92 87 87 93 103 116 129 141 148 151 150 146 142 139 138 139 143 146 148 146 140 131 118 106 97 92 93 
103 113 124 134 141 143 141 136 130 125 124 126 132 139 147 152 156 155 152 146 138 130 122 116 112 110 111 115 120 126 132 137 140 142 141 137 132 126 120 114 111 109 111 115 122 131 139 146 151 151 147 140 129 117 106 98 93 93 96 103 112 124 136 146 154 159 161 159 153 143 131 118 106 97 92 91 95 102 112 122 131 137 138 137 134 131 129 130 134 139 144 147 146 141 132 120 108 99 95 96 
110 119 128 136 141 141 137 131 124 120 119 123 129 137 145 152 155 154 150 143 133 123 114 107 103 102 104 109 115 123 131 137 140 141 140 136 130 123 116 111 107 105 107 111 118 127 136 144 149 151 148 141 130 117 105 95 89 88 91 97 107 118 130 140 148 153 155 154 150 143 133 123 113 105 100 98 100 104 110 117 122 124 124 122 119 117 117 120 126 134 141 146 146 143 135 124 114 106 102 104 
120 127 134 139 141 138 132 124 117 113 112 116 123 133 142 148 152 151 147 139 129 118 108 101 97 96 99 105 112 121 129 136 140 140 138 134 128 122 116 110 107 105 105 108 114 122 131 139 145 148 147 141 132 120 108 98 92 90 92 97 105 115 125 133 140 144 146 146 144 141 135 129 122 116 112 109 108 109 111 113 114 114 112 109 106 105 106 111 119 128 137 144 146 145 139 130 122 115 113 114 
