P2
100 100
255
129 129 129 129 129 128 126 125 125 125 126 127 128 129 129 129 128 128 128 128 128 128 128 127 126 125 125 125 126 127 129 129 129 127 126 125 125 126 126 126 125 125 125 126 126 126 126 127 127 128 129 130 129 127 125 124 123 122 123 124 125 126 127 128 128 129 129 129 129 129 129 128 127 126 126 127 127 127 127 126 125 124 124 124 124 124 125 125 126 127 128 128 127 126 126 128 129 130 131 130 
131 130 130 130 129 128 126 125 124 125 126 127 129 129 129 128 128 128 128 128 128 128 128 127 127 126 125 126 127 128 129 129 128 126 125 125 125 126 126 126 125 125 125 125 125 125 126 126 127 128 130 130 130 128 127 125 123 123 123 123 125 126 126 126 127 127 128 128 128 128 128 128 127 127 127 127 127 127 127 127 126 126 125 126 126 126 126 125 125 126 127 127 126 126 127 128 130 131 132 131 
131 131 131 131 130 128 126 124 124 125 126 128 129 129 129 128 128 127 127 128 128 129 129 128 127 126 126 126 127 128 129 128 127 126 125 125 126 127 127 127 126 126 126 125 125 125 125 126 127 128 130 130 130 129 128 126 125 124 124 124 125 126 126 125 125 126 126 127 128 128 128 128 128 128 128 128 128 128 127 127 127 127 127 127 128 128 127 126 125 125 126 126 126 127 127 129 130 131 131 131 
129 130 130 130 130 128 126 125 124 124 126 127 128 129 129 128 128 127 127 128 128 129 129 129 128 126 126 126 127 127 128 127 126 125 125 126 127 128 129 129 128 128 127 127 126 126 125 126 127 128 129 129 130 129 129 128 127 126 126 126 127 127 126 125 124 124 125 126 127 128 128 129 130 130 130 129 129 128 128 128 127 127 127 128 128 128 127 126 125 126 126 127 127 128 128 129 129 129 129 129 
127 128 129 130 130 129 127 125 124 124 125 126 127 128 128 128 128 127 127 127 128 129 129 129 128 127 126 126 126 127 127 127 126 125 126 127 128 129 130 130 130 130 130 129 128 127 126 126 126 127 127 128 128 129 129 129 129 128 128 128 128 127 126 125 124 124 124 125 127 128 129 130 131 132 131 131 130 129 129 128 128 127 127 127 128 128 128 126 126 126 127 128 128 128 128 128 128 128 127 127 
126 127 128 130 130 130 129 127 125 124 124 125 126 127 128 128 128 128 127 128 128 129 130 130 129 128 127 127 126 126 126 126 126 125 126 127 128 129 130 130 131 131 131 131 130 129 127 126 126 126 126 126 126 127 128 129 130 130 129 129 129 128 127 125 124 124 124 125 127 128 130 132 133 133 132 131 130 130 130 129 128 126 126 126 127 128 127 127 126 127 128 129 129 129 128 128 127 126 125 125 
125 126 128 129 130 130 130 128 126 125 124 124 125 127 127 128 128 128 128 128 129 129 130 130 130 129 128 127 127 126 126 126 126 125 125 126 127 128 129 130 130 131 132 132 131 130 128 127 126 126 126 125 125 125 127 128 129 129 129 128 128 127 126 125 124 124 124 125 127 129 131 133 133 133 132 131 130 130 130 129 128 126 125 125 126 127 127 127 127 127 128 129 129 129 128 127 126 126 125 125 
126 127 128 129 130 130 130 129 127 125 124 124 125 126 127 128 128 128 128 128 129 129 130 130 130 129 128 128 127 127 127 127 126 125 124 124 125 126 128 129 130 131 132 132 131 130 128 127 126 126 125 125 125 125 126 127 128 127 127 126 126 126 125 125 125 125 125 126 127 130 132 133 133 132 131 130 130 130 130 129 128 126 125 125 126 127 128 128 127 128 129 129 129 128 127 126 126 126 126 126 
128 128 128 128 128 129 129 128 127 126 125 125 125 126 127 127 128 129 129 129 128 128 129 129 129 129 129 129 128 128 128 127 127 126 124 123 123 125 126 128 129 130 131 131 131 129 128 126 126 126 126 126 125 125 126 126 126 126 125 124 124 125 125 125 125 126 126 127 129 130 132 132 132 130 129 128 128 129 129 129 128 126 126 126 127 129 129 129 128 128 128 128 127 126 125 125 126 126 127 128 
130 129 129 127 127 127 127 127 127 126 126 126 126 126 126 127 128 128 129 128 127 126 126 127 128 129 130 129 129 128 128 128 128 126 124 123 123 124 126 127 129 130 131 131 130 129 127 126 126 126 126 127 127 127 127 127 126 125 123 123 123 124 125 126 127 127 128 129 130 131 132 131 130 128 127 127 127 128 128 128 128 127 127 128 129 130 130 130 129 128 127 127 126 124 124 124 125 127 128 129 
130 130 128 127 125 125 125 126 126 127 127 127 127 126 126 127 127 128 128 127 125 124 124 125 127 129 130 130 129 129 129 129 128 127 125 124 124 125 126 127 128 129 130 130 130 129 127 126 126 126 127 128 128 129 129 128 127 125 123 123 123 124 126 127 128 129 129 130 130 131 131 130 129 127 126 126 127 127 128 128 128 128 128 129 131 132 132 131 130 128 126 125 124 123 122 123 124 126 128 130 
130 130 128 126 124 124 124 125 126 127 128 128 127 126 126 126 127 128 127 126 123 122 122 123 126 128 129 130 129 129 129 129 129 128 127 126 126 126 127 127 128 129 129 130 130 129 128 127 127 127 128 129 130 130 131 130 128 126 124 123 124 125 127 128 129 130 130 130 130 130 130 129 128 127 126 126 127 128 128 128 128 128 129 130 131 132 132 131 130 128 125 124 122 122 122 123 124 126 127 129 
129 129 127 126 124 124 124 126 127 128 128 128 128 127 126 126 126 127 126 125 123 121 121 123 125 127 128 129 129 129 129 129 129 129 128 128 128 128 128 128 128 128 128 129 129 129 128 128 127 128 129 129 130 131 131 131 129 127 125 124 125 126 127 128 129 130 130 129 128 128 128 128 127 126 126 126 127 128 129 129 128 128 128 129 130 131 131 131 129 127 125 123 122 122 123 124 124 125 127 128 
127 128 127 126 125 124 125 126 127 128 128 128 128 127 126 126 126 126 125 124 123 122 122 124 125 127 127 128 128 128 128 128 128 128 129 129 129 129 129 128 127 127 127 128 129 129 129 128 128 128 129 129 129 130 130 130 129 127 125 124 125 125 127 128 129 130 129 128 127 126 126 127 127 126 126 126 127 129 129 129 128 127 127 127 128 128 129 130 129 128 126 124 124 124 125 126 126 126 126 127 
127 127 127 126 125 125 125 126 127 128 128 128 128 127 126 125 125 124 124 124 124 124 124 125 126 126 126 126 127 127 128 128 128 128 128 129 130 130 129 128 127 126 127 127 128 129 129 128 128 128 128 128 128 128 128 128 127 126 125 124 124 125 126 128 129 129 128 127 126 125 126 126 127 127 126 126 127 129 129 129 128 126 125 125 125 126 128 129 129 129 128 127 126 127 128 128 128 127 127 127 
127 128 127 126 125 125 125 125 126 127 128 128 128 127 126 125 124 124 124 124 125 126 127 127 127 126 125 125 126 127 127 127 127 127 128 129 130 130 129 128 127 126 126 127 128 129 128 128 127 127 127 127 126 126 126 126 126 125 124 124 124 125 126 128 128 129 128 127 126 126 127 128 128 128 127 127 127 129 130 129 127 125 124 123 124 125 127 128 129 130 129 129 128 128 129 130 130 129 127 127 
128 128 128 127 126 125 125 125 126 126 127 128 128 127 126 125 124 123 124 125 126 128 128 128 127 126 125 124 125 126 127 127 127 127 128 129 129 129 129 128 126 125 125 126 127 128 128 127 126 126 126 126 125 125 124 125 125 125 125 124 124 125 126 127 128 128 128 128 127 128 129 129 130 129 127 127 127 129 129 129 127 125 123 122 123 125 126 128 129 130 130 129 129 129 129 129 129 129 128 128 
129 129 128 127 126 125 125 126 126 126 127 127 128 128 127 126 124 124 124 126 127 129 129 128 127 126 125 124 124 125 126 127 127 128 128 128 128 128 128 127 125 124 124 125 127 128 128 127 126 126 126 126 125 125 125 126 126 126 126 125 125 126 126 127 127 127 128 128 129 130 130 131 130 129 128 127 127 128 129 128 126 124 123 123 124 125 126 127 128 129 129 129 128 128 128 128 128 128 128 128 
129 129 129 127 126 126 126 127 127 127 127 127 128 128 128 127 125 125 125 127 128 129 130 129 128 127 126 125 124 125 126 127 128 128 128 128 127 127 126 125 124 123 123 125 126 128 128 127 127 127 127 127 126 126 126 127 128 128 127 127 126 126 126 126 126 126 127 128 129 130 130 130 129 128 127 127 127 128 128 127 125 124 123 123 125 126 126 126 127 127 128 128 127 127 126 126 127 127 128 129 
130 130 128 127 126 127 127 128 128 127 127 127 128 128 129 128 127 126 126 127 129 129 130 129 129 128 127 126 125 125 126 127 128 129 128 127 126 126 125 125 124 123 123 124 126 127 128 128 128 128 128 128 127 127 127 128 129 130 129 128 127 126 126 125 125 125 126 127 128 129 128 128 127 126 126 126 127 127 127 126 124 123 123 125 126 127 127 126 125 126 126 127 127 127 126 126 126 127 128 129 
130 129 128 126 126 127 128 129 128 128 127 127 128 129 129 129 128 127 127 128 128 129 129 129 129 129 128 126 125 125 125 127 128 129 128 127 126 126 125 125 124 124 124 124 126 127 128 128 128 129 129 128 127 127 127 129 130 130 129 128 127 126 125 124 124 124 125 126 126 126 125 124 124 125 125 126 127 127 126 124 123 123 124 126 128 128 128 126 125 125 126 127 128 128 127 127 127 128 129 129 
129 128 127 125 125 126 128 129 128 127 127 127 128 129 130 129 129 128 127 127 128 128 128 128 128 128 128 126 124 124 125 127 128 129 129 128 127 126 126 126 125 124 124 125 126 127 127 128 128 129 129 128 127 126 126 128 130 130 130 128 127 126 125 124 124 124 124 125 124 124 123 122 123 124 126 127 127 126 125 123 122 123 124 127 129 130 129 127 125 125 126 127 128 129 129 128 128 128 129 129 
129 127 126 125 125 125 127 127 127 127 126 127 128 129 129 129 128 128 127 127 127 127 126 126 126 127 126 125 123 123 124 127 129 130 129 128 127 127 126 126 126 125 125 126 127 127 127 127 128 129 129 128 126 125 126 127 129 130 130 129 127 126 125 125 125 125 125 124 124 123 122 122 124 125 127 128 127 126 125 123 122 123 125 128 130 130 129 127 126 125 126 127 128 129 129 129 128 128 129 129 
128 127 126 125 124 125 126 126 126 126 126 127 128 129 129 129 128 128 128 128 127 126 125 124 124 125 124 123 123 123 125 127 129 130 129 128 127 127 126 125 125 125 126 127 127 127 127 127 128 128 128 127 126 125 125 127 129 131 131 129 128 126 125 125 125 125 125 125 124 123 123 124 126 127 129 129 128 127 125 123 123 123 125 127 129 129 129 127 126 126 126 127 128 128 128 128 128 128 128 128 
128 127 127 126 125 125 125 125 125 125 126 127 128 129 128 128 128 128 129 129 128 126 125 124 124 124 124 123 123 124 126 128 129 129 129 128 126 126 125 124 124 125 127 128 128 128 127 127 128 129 129 127 126 124 125 127 129 131 131 130 128 127 126 125 125 126 126 126 125 125 125 126 127 129 129 129 128 127 125 124 124 124 125 127 127 128 127 127 127 127 127 127 127 128 128 128 128 128 128 128 
128 128 128 128 127 126 125 124 124 125 126 128 129 129 128 128 128 129 130 130 129 128 127 126 125 125 125 124 125 126 127 129 129 129 128 126 125 124 124 123 124 125 127 128 129 129 128 128 129 129 129 127 125 124 124 126 129 131 131 131 129 128 126 126 125 126 126 126 126 126 127 127 128 129 129 128 128 127 126 126 126 126 126 126 126 126 126 126 127 128 128 128 128 128 128 128 128 128 128 128 
129 130 130 130 129 128 127 125 124 125 126 128 129 129 128 128 128 129 130 131 131 130 129 128 128 127 127 126 126 127 128 129 129 128 126 125 125 124 123 123 123 125 127 128 129 130 129 129 129 129 128 127 125 124 124 125 128 130 131 131 130 129 127 126 125 125 125 126 126 127 127 128 128 128 128 127 127 127 127 127 127 127 126 126 125 125 125 126 127 128 128 128 128 128 128 128 128 128 128 128 
129 130 131 131 131 130 128 127 126 125 126 128 129 129 128 127 128 129 130 131 131 130 130 130 130 129 129 128 128 129 129 129 128 127 126 125 125 125 124 123 124 125 126 128 129 130 130 130 129 129 128 126 124 123 123 124 126 128 130 130 130 130 128 126 125 124 124 125 126 127 128 128 127 127 126 126 126 127 128 128 128 128 127 126 125 125 126 127 127 128 128 127 127 127 127 127 127 127 127 128 
129 130 131 131 131 131 130 128 127 126 127 128 129 129 128 128 127 128 128 129 129 129 130 130 131 130 129 129 129 129 130 129 128 126 125 125 126 126 125 125 124 125 126 127 128 129 130 130 129 128 127 125 124 123 123 124 125 127 129 130 130 130 128 126 124 123 123 124 126 127 128 127 127 125 125 125 125 127 128 129 129 129 128 127 126 126 126 127 127 127 126 126 125 125 125 125 125 125 126 127 
128 129 129 129 129 130 130 130 128 127 127 127 129 129 129 128 127 127 127 126 126 127 128 129 129 129 129 129 129 129 129 129 127 125 125 126 127 127 127 126 125 125 125 125 127 128 129 130 129 128 127 126 125 124 124 125 125 127 128 129 130 129 128 125 123 122 122 123 125 127 128 127 126 125 124 125 126 127 128 129 129 129 128 128 127 127 127 127 127 126 125 124 123 123 123 123 123 124 125 127 
127 127 126 126 127 128 130 130 129 128 127 127 128 129 129 128 127 126 125 125 124 124 125 126 127 127 128 128 129 130 130 128 126 125 125 126 127 127 127 126 125 124 124 124 125 127 128 129 129 129 128 127 127 127 126 126 126 127 128 128 129 129 127 125 123 121 122 123 126 127 128 127 126 125 124 125 126 127 128 128 129 129 129 129 128 128 128 128 127 125 124 123 122 122 122 122 122 123 124 126 
127 126 125 124 124 126 128 130 130 128 127 127 128 129 130 129 127 126 125 124 123 123 123 123 124 125 127 128 130 130 130 128 126 124 124 125 126 126 125 124 124 123 123 123 124 125 127 128 128 129 129 129 129 129 128 128 127 127 128 128 129 128 127 125 123 122 123 124 126 128 128 127 126 125 125 125 126 127 127 128 128 129 130 129 129 129 128 128 127 126 124 123 123 122 122 122 122 123 125 126 
127 126 124 122 122 124 127 129 129 128 127 127 128 129 129 129 128 127 126 125 124 124 123 123 123 124 126 128 130 131 130 128 125 124 123 124 124 124 123 123 123 123 123 123 123 124 125 126 127 128 128 129 129 129 129 128 128 127 128 128 128 128 128 126 125 124 125 126 127 128 128 127 126 125 125 125 126 127 127 128 129 129 130 130 129 129 128 128 128 127 126 125 124 124 124 123 124 124 126 127 
129 127 125 123 122 124 126 128 128 128 127 127 127 128 129 128 128 127 127 127 127 126 124 124 124 125 126 128 130 131 129 127 125 123 123 123 123 122 121 121 122 122 123 123 123 123 124 125 126 126 127 128 129 129 128 128 128 128 127 128 128 128 128 128 127 127 127 127 128 128 127 126 125 125 125 125 126 127 128 128 129 130 130 129 129 128 128 129 129 129 128 127 126 126 126 125 126 126 128 129 
131 129 126 124 123 123 125 126 127 127 126 126 127 127 128 128 127 127 128 128 129 128 127 126 126 126 127 128 129 130 128 127 125 123 123 123 122 121 121 121 122 123 124 124 124 123 123 124 125 126 126 127 127 128 128 128 128 128 127 127 128 128 128 128 128 128 128 128 128 127 126 126 125 125 125 126 126 127 128 129 130 130 130 128 127 127 128 129 130 130 130 129 128 128 128 127 127 128 130 131 
132 130 128 126 124 124 124 125 126 126 126 126 126 127 127 127 127 127 128 129 129 130 129 129 128 128 128 128 128 128 128 127 125 125 124 123 123 122 121 121 122 124 125 125 125 124 123 124 125 126 127 127 127 127 127 128 128 128 128 128 127 127 128 128 129 129 128 127 127 126 125 125 126 126 126 126 127 128 129 130 130 130 129 127 126 126 127 129 131 131 131 130 130 129 129 129 129 130 131 132 
132 131 129 127 126 125 124 125 125 126 126 126 126 126 126 126 126 126 127 128 129 130 130 130 130 129 129 128 128 127 127 127 127 126 126 125 124 123 122 122 123 125 126 127 126 125 124 124 125 127 127 127 127 127 127 128 128 129 128 128 127 127 127 127 128 128 127 126 125 124 124 125 126 127 127 127 127 128 129 130 129 128 127 125 124 124 126 129 131 131 131 130 130 130 130 130 130 130 131 132 
131 130 129 128 127 126 125 125 125 126 126 126 126 126 126 126 126 125 126 127 128 129 130 131 131 130 129 128 127 127 127 128 128 128 128 127 126 125 124 124 124 126 127 127 127 126 125 125 126 128 129 128 128 127 127 128 129 129 129 128 127 126 126 126 126 126 126 125 124 124 124 125 127 128 128 127 127 127 128 128 128 126 124 123 122 123 126 128 130 131 130 130 129 130 130 130 130 130 131 131 
129 129 129 128 128 127 127 126 126 126 126 126 126 126 126 126 126 126 126 126 127 128 130 131 131 130 129 128 127 127 128 128 129 129 129 128 127 126 125 125 125 126 128 128 127 126 126 126 127 128 129 129 128 127 127 128 128 128 128 128 127 126 126 126 126 126 126 125 125 125 125 126 127 128 128 127 126 126 126 126 125 124 122 121 121 122 125 128 130 130 129 129 128 129 129 129 130 130 129 129 
127 127 128 129 129 129 129 128 128 127 127 126 126 126 126 127 127 127 127 127 127 128 129 130 130 130 129 128 127 127 128 128 129 129 129 128 128 127 126 126 126 127 128 128 128 127 127 127 128 128 129 128 128 127 127 127 127 127 128 128 127 126 126 126 126 127 127 127 127 127 127 127 128 127 127 125 124 124 124 124 124 123 122 120 120 121 124 127 129 129 128 128 127 127 128 128 129 128 128 127 
125 125 127 129 130 130 130 129 128 127 127 126 126 125 126 127 127 128 128 128 128 128 129 130 130 129 128 128 127 127 127 127 127 127 127 128 128 127 127 127 128 129 129 129 129 128 127 127 127 128 128 127 127 126 126 126 126 127 127 128 128 127 126 126 127 128 129 129 129 129 128 128 127 126 125 124 124 123 123 123 123 123 122 121 120 121 123 126 128 128 128 127 126 126 126 127 127 127 126 125 
124 125 126 128 130 130 130 129 128 127 126 125 125 125 125 126 127 128 129 129 129 130 130 130 130 129 128 127 127 127 127 126 126 126 126 127 127 128 128 129 129 130 130 130 129 128 127 127 127 127 127 126 126 126 125 125 126 127 128 128 128 128 127 127 127 129 130 131 131 130 129 128 126 125 124 124 123 123 124 124 124 124 123 122 121 122 123 126 128 128 128 127 126 125 125 125 126 125 125 124 
124 125 126 128 129 130 129 128 127 126 125 124 124 124 125 126 127 128 129 130 130 130 130 130 130 129 128 128 128 127 127 126 125 125 125 126 127 128 128 129 130 131 131 130 129 127 126 125 125 125 126 126 126 125 125 125 126 127 128 129 129 128 127 126 127 128 129 130 130 130 129 127 126 125 124 124 124 124 125 125 125 125 124 123 123 123 124 126 128 128 128 127 126 125 124 124 124 124 124 124 
124 125 127 128 129 129 128 127 126 125 124 124 124 125 125 126 127 128 129 129 130 130 129 129 129 128 128 128 129 128 127 126 125 125 126 126 127 128 128 129 130 131 131 130 128 126 124 124 124 125 126 126 126 126 125 125 126 127 128 129 129 127 126 126 126 127 128 129 129 129 128 127 126 125 125 125 125 125 126 126 126 126 126 125 125 125 126 127 128 128 128 127 126 125 124 124 124 124 124 124 
125 126 127 128 128 128 127 127 126 124 124 124 125 125 126 127 127 128 129 129 128 128 127 127 127 127 128 129 130 130 129 128 127 126 127 127 127 127 128 128 129 130 130 129 127 125 123 123 124 125 127 127 127 127 126 125 126 126 127 128 128 127 126 126 126 127 127 128 129 128 128 127 127 126 126 126 126 126 127 127 127 127 127 127 127 127 128 128 128 127 127 127 126 126 125 124 124 124 124 125 
126 127 128 128 128 127 127 127 126 125 125 125 126 126 127 127 127 128 128 128 127 126 125 125 126 127 129 130 131 131 130 129 128 128 128 128 128 127 127 127 128 128 128 127 126 124 124 124 125 127 128 129 128 127 126 125 125 125 126 126 127 127 127 127 127 127 128 128 128 128 128 128 128 127 127 127 127 127 127 128 128 128 128 128 128 129 129 128 127 126 126 126 126 127 126 126 125 125 125 126 
127 128 128 127 127 127 127 127 127 126 126 126 126 127 127 127 127 127 127 127 126 124 124 124 125 127 130 131 132 132 131 130 130 130 130 129 128 127 126 126 126 127 127 127 126 125 125 126 127 129 130 130 129 128 126 125 124 123 123 124 125 127 128 129 129 129 129 129 129 129 129 129 128 128 128 127 127 127 128 128 128 128 128 129 129 130 130 128 126 125 124 125 127 127 127 127 126 126 126 127 
128 128 128 127 126 126 127 127 127 127 127 127 127 127 126 126 126 127 127 126 125 124 124 124 126 128 130 132 132 131 131 130 131 131 131 130 129 127 126 125 125 126 126 126 126 126 127 128 129 130 131 130 129 128 126 125 124 123 122 123 124 127 129 131 131 131 130 130 130 129 129 128 128 127 127 127 127 128 128 128 128 128 128 128 129 130 129 128 126 124 124 125 127 128 128 128 127 127 127 127 
127 127 127 126 125 125 126 127 128 128 128 127 127 126 125 125 125 126 126 126 126 125 125 126 127 129 130 131 130 130 129 129 130 131 131 130 129 127 126 125 125 125 126 126 126 126 127 129 130 131 131 130 129 128 127 126 125 123 122 122 124 127 130 132 133 132 131 131 130 129 128 128 127 127 126 126 127 128 128 129 128 127 127 127 128 129 129 128 126 125 125 126 127 128 128 128 127 127 127 127 
127 126 125 124 124 124 125 126 127 128 128 128 127 125 124 124 124 125 126 127 126 126 126 127 128 130 130 130 128 127 127 127 128 129 129 129 128 127 126 125 125 125 125 125 125 126 127 128 129 130 130 129 128 128 128 127 126 124 123 122 124 127 130 132 132 132 131 130 129 128 127 127 126 126 126 126 127 128 129 128 127 126 125 125 126 127 128 127 126 126 126 127 127 128 128 127 127 127 127 127 
126 125 124 124 123 124 125 126 127 128 128 127 126 125 124 124 124 125 126 127 127 127 127 128 129 130 130 128 127 125 125 125 126 127 127 127 127 126 126 125 125 124 124 124 124 125 126 127 128 128 128 128 128 128 128 128 127 125 124 123 124 126 129 131 131 130 129 128 128 127 127 126 126 126 126 127 128 128 129 128 127 125 124 124 125 126 127 128 127 127 127 127 128 127 127 127 127 127 127 127 
126 125 124 124 124 124 125 126 127 127 127 127 126 125 124 124 125 126 127 128 128 127 127 128 129 130 129 128 126 124 123 123 124 124 125 125 125 125 126 125 125 124 124 123 123 124 124 125 126 127 127 127 127 127 128 128 127 126 124 124 124 126 128 129 129 128 127 126 126 126 126 127 127 128 128 128 128 129 129 128 126 124 123 123 124 126 127 128 128 128 128 128 128 127 127 127 127 128 127 127 
126 124 124 124 125 126 126 126 126 126 126 126 126 125 125 125 126 127 127 128 128 128 128 128 129 130 130 129 127 125 123 123 123 123 123 124 124 125 126 126 125 124 124 124 123 123 124 124 125 126 126 126 127 127 128 128 127 126 125 124 125 126 127 128 128 127 126 125 125 125 126 127 129 129 129 129 129 129 128 127 125 124 123 123 124 126 127 128 128 128 128 128 128 127 127 127 128 128 128 127 
126 125 125 125 126 127 127 126 126 126 126 126 126 126 127 127 127 127 128 128 128 128 128 128 129 130 130 129 128 126 125 124 124 124 124 124 124 125 126 127 126 126 125 125 124 124 124 124 125 126 126 127 127 127 127 127 127 126 126 125 125 126 127 128 128 127 126 125 125 125 126 128 130 130 130 129 128 128 127 126 125 124 123 124 125 126 127 128 128 128 128 128 128 128 128 128 129 129 129 127 
127 125 125 126 127 127 127 126 126 125 126 126 127 128 128 128 128 127 127 128 128 128 128 128 128 129 130 129 129 127 126 126 125 125 124 124 125 126 127 128 128 128 127 127 126 125 124 124 125 126 127 127 127 126 126 126 127 127 127 127 126 127 127 128 128 128 127 126 125 126 127 129 130 130 130 129 128 127 126 125 124 124 124 125 126 127 128 128 128 128 129 129 129 128 128 129 129 130 129 128 
127 126 125 125 126 127 127 126 126 126 126 127 129 129 130 129 128 127 127 127 128 128 128 128 128 128 129 129 129 128 127 127 126 126 125 124 125 126 127 128 129 129 129 128 127 125 125 124 125 126 127 127 127 126 125 125 126 128 128 128 128 128 128 128 128 128 127 127 126 127 128 129 130 130 129 127 126 126 125 125 124 124 125 126 127 128 128 128 128 128 129 129 129 129 129 129 129 130 130 129 
127 126 125 125 125 126 126 126 126 126 127 129 130 130 130 129 127 126 125 126 127 128 128 128 127 127 127 128 129 128 128 127 126 126 125 124 124 125 126 128 129 130 130 129 127 126 125 125 125 126 127 127 126 125 124 125 126 129 130 130 129 128 128 128 128 128 127 127 127 127 128 128 129 128 127 126 125 124 124 125 125 125 126 126 127 128 128 128 127 128 128 129 130 129 129 129 129 130 130 129 
127 125 124 124 124 126 126 127 127 127 128 129 130 130 130 128 126 125 125 125 127 128 128 127 126 126 127 128 128 128 128 127 126 125 124 124 124 125 126 127 129 129 129 129 127 126 125 125 126 127 128 128 126 124 123 124 126 129 131 131 130 128 127 127 127 126 126 126 126 127 127 128 127 127 126 125 124 123 124 125 126 127 127 127 127 127 127 127 127 127 128 129 129 129 129 129 129 130 130 129 
126 124 123 123 124 125 127 127 127 128 128 129 130 130 129 128 126 125 125 126 127 128 128 127 126 125 126 127 128 128 127 126 125 124 124 124 125 125 126 127 128 128 128 128 127 126 125 126 126 128 128 128 126 124 122 123 125 129 131 132 130 129 127 126 126 125 125 125 126 126 127 127 127 126 125 124 123 123 124 125 127 128 127 126 125 125 125 126 126 126 127 128 128 128 128 128 129 129 129 128 
125 123 123 123 124 126 127 127 127 128 128 128 128 129 128 128 127 126 126 127 128 129 128 127 125 125 126 127 129 128 127 125 124 124 124 125 126 127 127 128 128 128 127 126 126 126 126 127 128 129 129 129 127 124 122 123 125 128 131 132 131 129 127 126 125 125 125 125 126 127 127 127 126 126 125 124 123 123 124 126 127 128 127 125 124 124 124 125 126 126 126 126 127 127 127 128 129 129 128 127 
125 124 124 124 125 126 127 127 127 127 127 127 127 127 128 128 128 127 128 128 129 129 128 127 125 125 126 128 129 129 127 125 124 124 125 126 127 128 129 129 128 127 126 126 125 126 127 128 129 129 130 130 128 125 123 123 125 128 130 131 130 129 128 127 126 125 125 126 127 128 128 128 127 126 125 124 124 124 125 126 127 127 126 124 123 123 124 125 126 126 126 126 126 127 127 128 129 128 128 126 
125 125 125 125 125 126 127 127 127 126 126 126 126 126 126 127 127 128 128 129 129 129 128 127 126 126 127 128 129 129 128 126 125 124 125 126 127 128 129 129 129 128 126 126 125 126 127 128 129 130 130 130 128 126 124 123 125 127 130 131 130 130 129 128 127 126 126 127 128 129 129 128 127 126 126 125 125 125 126 126 127 126 125 123 122 123 125 126 127 127 127 127 127 127 128 128 129 128 127 126 
126 125 125 125 125 126 126 127 127 127 126 125 125 125 125 126 126 127 127 128 129 129 128 127 126 126 127 129 130 130 128 127 125 125 125 125 126 127 128 128 128 128 127 126 126 126 127 128 129 130 130 130 129 127 125 124 125 127 129 130 130 130 129 128 127 126 127 127 129 130 130 129 127 126 126 126 127 127 127 127 127 126 124 123 123 124 126 127 128 128 128 128 128 128 128 129 129 128 127 126 
126 125 125 125 125 125 127 128 129 129 128 126 125 124 124 125 125 126 126 127 128 128 128 128 127 127 128 129 129 129 129 127 126 125 124 124 125 125 126 127 128 128 128 127 127 127 128 128 129 130 130 130 129 127 126 125 126 128 129 130 130 130 129 128 127 126 126 127 128 129 129 128 127 126 126 127 128 128 128 128 127 126 124 124 123 124 126 127 128 129 128 128 128 128 129 129 129 128 127 126 
125 125 124 124 124 125 127 129 130 130 129 128 126 125 124 125 125 126 126 127 127 128 128 128 128 128 128 128 129 128 128 127 126 125 124 124 124 124 125 127 128 129 129 129 128 127 127 128 129 130 130 130 129 127 126 126 126 128 129 130 130 130 129 128 126 125 125 127 128 129 129 128 126 125 125 126 128 129 129 128 127 126 125 124 124 125 126 127 128 128 128 128 128 129 129 130 129 128 126 125 
124 123 123 122 123 124 126 129 130 131 130 129 127 126 125 126 126 126 126 127 127 128 128 129 129 128 128 127 127 127 126 126 125 125 124 124 124 125 126 127 128 130 130 130 129 127 127 127 128 129 129 129 128 127 126 126 127 128 129 130 130 130 129 128 126 125 126 127 128 129 129 128 126 125 125 126 127 128 129 128 128 127 126 126 126 126 126 126 127 127 127 127 128 129 130 130 129 128 126 125 
123 123 122 122 122 123 125 128 130 131 130 129 128 127 127 127 128 128 127 127 127 128 129 129 129 129 128 126 125 125 125 125 125 125 126 126 126 126 127 127 129 130 131 130 129 127 126 126 126 127 128 129 128 127 126 126 127 128 129 130 130 130 129 128 127 127 127 128 130 130 129 128 126 124 124 125 126 127 128 128 128 127 127 127 127 127 127 127 127 127 127 127 128 129 131 131 130 128 126 124 
124 123 123 122 122 123 125 127 129 130 130 129 129 128 129 129 129 129 128 127 127 128 129 130 130 129 128 126 124 123 123 124 125 126 127 127 128 128 128 128 129 130 130 130 128 126 125 124 125 126 127 127 127 127 126 126 127 129 130 130 130 130 129 129 129 129 130 130 131 131 129 127 126 124 124 125 126 127 127 128 128 128 128 128 128 128 128 128 128 127 127 127 128 129 131 131 131 128 126 125 
125 125 125 124 124 124 125 127 129 129 129 129 129 129 130 131 130 129 128 127 126 127 129 130 131 130 128 125 123 122 122 123 125 126 128 128 129 128 128 128 128 129 130 129 128 126 124 123 124 125 126 126 126 126 126 126 128 129 129 130 129 129 129 129 130 131 131 132 132 131 129 127 126 125 125 126 126 127 127 127 128 128 128 129 129 129 129 129 129 128 127 127 127 129 130 131 130 128 126 125 
126 127 128 128 127 127 127 128 129 130 129 129 129 130 131 131 131 129 127 125 125 127 129 131 131 130 128 125 123 122 122 124 125 127 128 128 129 128 128 128 128 129 130 129 128 126 124 124 124 125 125 125 124 124 124 125 127 128 129 129 129 128 128 129 130 131 132 132 131 130 128 127 126 126 127 128 128 128 127 127 127 127 127 127 128 128 129 129 129 128 127 126 126 128 129 130 129 127 126 125 
127 129 130 130 130 129 129 129 130 130 129 129 129 129 130 131 130 128 126 124 124 126 129 131 131 130 127 125 123 122 123 124 125 126 127 128 128 128 128 127 128 129 130 130 129 127 125 125 125 125 125 124 123 123 123 124 126 128 129 129 128 127 127 128 129 130 131 131 130 129 128 127 127 128 129 130 130 129 128 127 126 126 125 125 126 127 128 129 128 127 126 125 125 126 128 128 127 126 125 125 
126 129 131 132 131 130 129 129 130 130 129 128 128 128 129 130 129 127 125 124 124 126 129 131 131 129 126 124 123 123 124 125 125 126 127 127 128 128 128 127 128 129 130 130 129 128 127 126 126 126 126 124 123 122 122 124 126 128 129 129 128 127 126 126 127 128 129 129 129 128 128 127 128 129 130 131 131 130 128 127 125 124 123 123 123 125 126 127 127 126 125 125 125 125 126 126 125 124 123 124 
126 129 131 132 132 130 129 128 128 128 127 127 126 127 128 129 128 127 125 124 125 127 129 130 129 127 125 124 124 124 125 125 125 126 126 127 128 128 128 127 128 128 129 130 129 128 127 127 127 127 126 125 123 122 123 124 126 128 129 128 127 126 125 124 125 125 127 128 128 128 127 127 127 128 130 131 131 130 128 127 126 124 123 122 122 123 125 126 126 126 125 124 124 125 125 125 124 123 123 123 
125 128 131 132 131 129 128 127 127 126 126 125 125 126 127 127 127 127 126 126 127 128 130 130 128 126 124 124 124 125 126 126 126 125 126 127 127 128 128 127 127 127 128 128 128 128 127 128 128 128 127 126 125 124 124 125 127 128 129 128 127 125 124 123 123 124 125 127 127 127 126 126 126 127 128 130 130 130 129 128 127 126 124 123 123 123 124 125 126 126 125 125 125 125 125 125 124 123 123 123 
126 128 130 130 129 128 126 126 125 125 125 125 125 126 126 127 127 127 127 127 128 130 130 129 127 125 123 124 125 126 127 127 126 125 126 126 127 128 127 127 126 126 127 127 127 127 127 127 128 128 127 127 126 125 126 127 128 129 129 128 126 125 123 123 123 123 125 126 127 126 125 124 124 125 127 128 129 129 129 129 128 127 126 125 124 124 125 125 126 126 126 126 126 125 125 125 125 124 124 124 
127 128 129 129 128 127 126 125 126 126 126 126 126 126 127 127 127 127 127 128 129 130 130 128 126 124 123 124 126 127 127 127 126 125 126 126 127 128 127 126 126 125 125 126 126 127 127 128 128 127 127 127 126 126 127 127 128 129 129 128 126 125 123 123 123 124 125 127 127 126 124 123 123 124 126 127 128 128 129 129 129 129 128 126 125 125 125 126 126 126 126 127 126 126 126 126 126 126 126 126 
128 128 128 128 127 126 126 127 127 128 128 127 127 127 127 127 127 126 126 127 128 129 129 128 126 124 124 125 126 127 127 127 126 125 126 126 127 128 127 127 126 126 125 125 126 127 127 128 128 128 127 126 126 126 127 127 128 128 128 128 126 125 124 123 124 125 126 127 127 126 124 123 124 125 127 128 128 127 128 129 129 129 128 127 125 125 125 125 126 127 127 127 127 127 127 128 128 128 128 127 
128 128 127 126 126 126 127 128 130 130 130 129 128 128 128 128 127 125 125 126 127 128 129 128 126 125 125 125 126 127 126 126 125 125 125 126 127 128 128 128 127 126 126 125 126 127 128 129 129 128 127 126 125 126 126 127 127 128 128 128 127 126 125 124 125 126 127 128 128 127 125 125 126 128 129 129 127 126 126 127 128 129 128 126 125 125 125 126 126 127 128 128 128 128 129 129 130 130 129 129 
128 127 126 125 124 125 127 129 131 131 130 129 128 128 128 127 126 125 124 124 126 128 128 128 127 126 126 126 126 126 125 124 124 124 125 126 127 128 129 129 128 127 126 125 125 126 128 130 130 129 127 126 125 125 126 126 127 128 128 128 128 127 126 125 126 127 128 129 129 128 127 127 129 131 131 130 127 125 124 125 127 128 127 126 125 125 126 126 127 128 128 129 129 129 130 130 131 130 130 129 
127 126 125 124 123 125 127 130 131 131 130 128 127 127 127 127 126 124 123 123 125 127 128 128 128 127 127 127 127 126 125 124 123 123 124 126 127 129 129 130 129 128 127 125 125 126 128 130 130 129 128 126 126 126 126 127 127 128 128 129 128 127 126 126 127 128 129 130 129 128 127 128 130 133 133 131 127 124 123 124 126 127 127 126 125 126 127 128 128 129 129 129 129 129 130 130 130 130 129 128 
127 126 125 123 123 124 127 129 131 130 129 126 125 125 126 126 126 124 123 123 124 126 128 129 129 128 128 128 127 126 125 123 123 123 124 125 127 128 129 130 130 129 127 125 125 126 128 129 130 129 128 127 127 127 127 127 127 128 128 129 128 128 127 127 128 129 129 129 128 127 126 127 130 133 133 131 128 124 124 125 127 128 127 126 126 127 128 129 129 129 129 128 128 128 129 129 129 129 128 128 
127 126 125 125 124 125 127 129 130 129 127 125 124 124 125 126 125 124 122 122 124 126 128 129 129 129 129 129 129 127 126 124 123 123 124 125 126 128 129 130 130 129 127 125 125 125 127 129 129 128 128 127 128 128 128 127 127 127 128 128 129 128 128 128 128 129 129 129 127 125 124 125 128 131 133 131 128 126 125 126 127 128 128 127 127 127 128 129 129 129 128 127 127 127 127 128 128 128 128 127 
128 127 127 127 127 127 128 129 129 128 127 125 124 125 125 126 125 124 122 122 123 125 127 129 129 130 130 130 130 129 127 125 124 124 124 125 125 127 128 129 130 129 127 126 125 125 127 128 128 128 127 127 128 129 128 127 126 126 127 128 128 129 129 129 129 129 129 128 126 124 123 123 126 129 131 131 129 127 126 127 128 129 128 127 127 127 128 129 129 128 127 126 125 125 126 127 127 128 128 128 
129 128 129 129 129 130 130 130 129 128 127 126 125 126 127 127 126 124 123 123 123 125 127 128 129 129 130 131 131 130 128 126 125 124 124 124 125 126 127 128 128 128 127 126 125 126 127 128 128 127 127 127 128 129 128 127 126 125 126 127 128 129 129 129 129 129 128 127 126 124 123 123 125 128 130 131 130 129 128 128 128 129 128 127 127 127 128 128 127 126 125 124 124 124 125 126 127 128 129 129 
129 129 129 130 131 132 131 130 129 128 127 127 127 128 128 128 127 126 125 124 124 125 127 127 128 128 129 130 130 129 128 127 125 125 124 124 124 125 126 126 127 127 126 125 125 126 127 128 128 127 127 127 128 128 128 127 125 124 125 126 127 128 129 129 128 128 127 127 126 125 124 124 125 127 129 131 130 129 128 128 128 128 128 127 127 126 127 127 126 125 124 123 123 124 125 126 128 129 129 129 
128 128 129 131 132 132 131 129 128 127 127 128 128 129 130 130 129 128 127 126 126 126 126 126 126 127 128 128 128 128 127 126 125 125 124 124 124 124 125 125 125 125 124 124 125 127 128 129 129 128 127 127 127 128 128 127 125 124 124 125 126 127 128 128 127 127 127 127 127 127 126 126 126 127 129 130 130 129 128 128 128 128 127 127 126 126 126 126 125 124 123 123 123 124 125 127 128 128 129 128 
127 127 128 130 131 131 130 128 126 125 126 127 129 130 131 131 130 130 129 128 127 126 125 125 125 125 126 126 127 126 126 126 125 125 125 125 124 124 124 124 124 123 124 124 126 127 129 130 129 128 127 127 127 128 128 127 126 125 124 124 125 126 127 126 126 126 126 126 127 128 128 128 127 128 129 130 129 129 128 127 127 127 127 126 126 125 125 125 125 124 123 123 124 125 126 127 128 128 128 128 
127 127 127 129 130 130 128 126 124 124 124 126 128 130 131 131 131 130 129 128 127 125 125 124 124 125 125 125 125 125 125 125 125 126 126 126 125 124 124 123 123 123 124 125 126 128 129 130 129 128 127 127 127 128 129 128 127 126 125 125 125 126 126 126 125 125 125 126 127 128 129 128 128 128 128 128 128 128 127 127 127 127 127 126 126 125 125 125 125 124 124 124 124 125 126 127 128 128 128 128 
128 127 127 128 128 128 126 124 122 122 123 125 128 129 130 131 131 130 129 127 126 125 124 124 124 124 125 124 124 124 124 125 126 127 127 127 126 125 124 124 123 124 125 126 127 129 129 129 128 127 127 127 127 128 129 129 129 127 126 125 125 126 126 126 125 125 125 126 127 128 128 128 127 127 127 127 127 127 127 127 127 127 126 126 126 126 126 126 125 125 124 125 125 126 127 128 128 129 129 128 
128 128 127 127 127 127 125 123 122 122 123 125 127 128 129 130 130 129 127 126 124 124 124 124 125 125 125 124 124 123 124 125 126 127 128 128 127 126 125 124 124 125 126 127 128 128 128 128 127 127 126 127 128 129 130 130 130 128 127 126 126 126 126 126 126 126 126 126 126 127 127 126 126 126 125 126 126 127 127 127 127 126 126 125 126 126 127 127 126 126 125 125 126 127 128 129 129 129 129 129 
129 128 128 127 127 126 125 124 123 123 124 125 127 128 128 128 128 127 126 124 124 124 125 125 126 126 126 125 124 124 124 125 126 127 128 128 128 127 126 125 125 126 127 128 128 128 127 127 126 126 126 127 128 129 130 131 131 129 128 127 127 127 127 127 127 128 128 127 127 126 126 125 125 124 124 125 126 127 128 128 127 126 126 125 126 127 127 127 127 126 125 126 126 127 128 129 129 129 129 129 
128 128 127 127 126 126 125 125 124 125 125 126 126 127 127 127 127 126 125 124 124 125 126 127 127 127 127 126 126 125 125 125 126 127 127 128 128 127 127 126 126 126 127 127 127 127 126 126 126 126 127 127 128 129 130 131 131 130 129 128 128 127 127 127 128 129 129 129 128 127 126 125 124 124 124 125 126 127 128 128 128 127 126 126 127 127 127 127 126 125 125 125 126 127 128 128 128 128 128 128 
128 128 128 127 126 126 126 126 126 127 127 127 126 126 126 127 127 127 126 126 126 127 128 128 128 128 128 128 127 126 126 125 125 126 126 127 127 127 127 126 126 126 126 125 125 125 126 126 127 128 128 128 128 129 130 130 131 130 129 129 128 128 128 128 128 129 130 129 128 127 126 125 124 123 123 124 126 127 128 128 128 128 128 128 128 128 127 126 125 124 124 125 126 127 127 128 127 127 127 127 
127 128 128 128 127 127 127 128 128 128 127 127 126 126 126 127 128 128 128 128 128 128 128 129 128 128 128 128 128 127 126 125 125 125 125 126 127 127 127 127 126 125 125 125 125 125 126 127 129 129 129 129 128 128 129 129 130 130 129 129 129 128 128 128 128 129 129 129 128 127 126 125 124 123 123 124 125 126 127 128 129 130 130 130 130 128 127 126 125 124 124 125 126 127 128 127 126 126 125 126 
127 128 129 128 128 128 128 129 129 128 128 127 126 126 127 128 129 130 130 130 129 129 128 128 128 128 128 128 128 127 127 126 125 125 125 126 126 127 127 127 126 125 125 125 125 126 127 129 130 130 130 129 128 127 128 128 129 129 129 128 128 128 128 127 128 128 128 128 128 127 127 125 124 123 123 123 124 125 126 127 129 130 132 132 131 129 128 126 126 125 126 127 128 128 128 128 126 125 124 125 
126 128 129 129 128 128 128 128 128 128 127 126 126 127 128 129 130 131 131 131 130 128 127 126 126 126 126 126 126 126 126 126 126 126 126 126 127 127 128 127 127 126 126 126 127 127 128 129 130 131 130 129 128 127 127 127 128 128 128 128 127 127 127 127 127 127 127 127 127 127 127 126 125 124 123 123 124 124 125 126 128 130 131 132 131 129 128 127 127 127 128 129 130 130 129 128 126 124 124 125 
125 127 128 128 128 127 128 128 127 127 126 126 127 128 129 130 131 131 131 131 129 128 126 125 125 125 125 125 125 125 126 127 127 127 127 127 127 128 128 127 127 127 127 128 128 129 129 130 130 130 130 129 127 126 126 126 127 127 127 127 127 127 128 128 128 127 127 127 127 128 128 128 126 124 124 124 124 125 125 125 126 128 129 130 129 128 127 127 128 129 130 131 131 131 129 128 126 124 123 124 
125 126 127 127 127 127 127 127 126 126 126 126 127 128 129 130 131 131 131 130 129 127 126 125 124 124 124 123 124 125 126 127 128 128 128 127 127 127 127 127 127 127 128 128 129 129 129 129 129 129 129 128 127 126 125 125 126 126 126 126 127 127 128 129 129 128 128 128 128 129 129 128 127 125 125 125 125 125 125 125 125 126 127 127 127 126 126 127 129 130 132 132 131 130 129 127 126 125 124 124 
125 126 127 127 127 127 127 126 126 125 125 126 127 128 129 130 130 130 130 130 129 127 126 125 125 124 124 123 124 125 127 128 129 128 127 127 127 127 126 126 126 127 127 128 129 129 129 128 128 128 128 128 127 126 125 124 125 125 125 125 126 128 129 129 130 129 129 129 129 130 130 129 127 126 125 126 126 126 126 125 124 124 124 125 124 125 125 126 128 130 131 131 130 129 128 127 127 126 125 125 
127 127 128 128 128 127 126 126 125 125 125 126 127 129 129 129 129 129 129 129 129 128 127 126 125 125 124 124 125 126 128 129 129 128 127 126 126 126 126 126 126 126 126 127 128 128 128 127 127 128 129 129 128 126 125 124 123 123 124 125 126 127 128 129 130 130 129 129 130 130 129 129 127 126 126 126 127 127 126 125 124 124 124 124 124 124 124 125 127 129 130 130 128 127 127 127 128 128 128 128 
