P2
100 100
255
129 148 165 177 177 166 144 116 90 73 67 72 87 111 140 163 177 179 168 146 117 87 66 53 49 50 57 69 88 109 131 147 156 157 151 140 127 113 101 92 86 83 82 85 92 104 120 136 149 158 159 152 138 118 99 83 72 65 61 62 67 78 92 109 124 138 148 156 161 162 158 151 142 134 127 120 114 106 98 88 79 70 62 56 52 51 55 67 88 117 146 168 178 176 163 144 125 112 108 115 
159 173 183 186 180 161 132 100 74 59 54 58 72 96 126 153 170 174 166 145 117 90 69 58 54 56 64 76 93 111 127 138 142 141 135 128 122 117 113 111 109 106 102 98 96 98 104 113 124 135 143 146 144 136 125 114 102 93 84 78 74 75 79 86 94 104 115 128 142 154 163 168 169 167 163 157 148 134 116 95 77 62 52 46 42 43 49 61 82 111 141 163 175 176 169 157 145 138 139 147 
182 191 196 194 182 158 124 89 64 50 46 50 64 87 118 147 167 174 168 151 127 102 83 73 70 73 82 93 106 118 126 128 126 121 116 113 115 120 128 134 138 136 130 119 107 97 91 92 98 109 123 136 147 153 153 148 140 129 116 101 88 77 71 69 71 77 87 102 122 145 165 179 188 191 191 186 177 160 136 108 82 62 50 44 42 44 51 64 85 112 139 158 169 170 166 159 154 154 160 170 
193 201 203 199 184 156 120 84 60 47 43 48 62 86 117 147 168 177 174 162 143 123 107 99 97 102 110 119 127 129 126 119 109 100 95 97 105 121 140 156 165 167 159 144 123 101 84 76 76 85 102 124 146 164 175 178 174 165 149 128 104 84 69 60 57 59 67 83 107 137 165 186 198 205 206 203 195 178 153 121 91 68 55 49 49 53 63 77 97 119 139 152 157 156 152 149 150 157 168 182 
196 205 207 201 185 156 118 83 59 48 46 52 67 92 123 152 172 181 181 173 160 146 136 131 132 137 144 149 149 143 129 110 93 81 76 80 94 118 146 171 185 190 183 167 140 109 82 66 61 67 83 110 142 169 188 196 197 190 174 149 119 91 69 56 50 50 57 72 98 131 163 188 202 210 213 211 203 188 163 132 101 78 66 62 65 73 85 101 117 132 141 143 139 133 127 126 132 145 164 182 
193 203 206 200 184 155 118 85 63 52 52 61 79 104 134 160 177 185 184 179 171 163 159 159 163 168 173 174 169 154 131 103 80 65 60 65 82 111 146 177 197 204 200 184 155 119 84 61 52 55 70 98 135 169 193 205 208 202 188 162 129 96 71 56 49 48 55 70 96 129 162 186 201 209 211 210 202 189 167 139 112 93 83 84 91 103 118 132 142 147 143 133 119 106 98 97 106 124 149 174 
184 198 202 197 181 153 118 87 68 61 64 76 96 122 148 168 179 183 181 176 171 169 170 175 182 188 192 191 182 162 132 99 71 55 49 54 70 101 141 177 201 210 209 195 168 129 90 62 48 48 62 89 128 166 193 207 211 206 191 165 131 97 72 58 52 53 61 77 101 131 160 182 195 201 203 200 193 181 162 140 121 109 106 113 125 139 153 163 166 161 145 123 100 82 72 71 80 100 129 159 
172 190 196 190 173 146 115 89 74 72 79 95 117 140 160 171 175 173 168 162 158 160 166 176 187 196 201 199 189 168 134 96 66 49 42 46 61 91 133 173 200 212 213 202 178 140 98 66 50 47 59 85 123 162 190 204 208 201 185 159 126 96 75 64 62 66 76 92 113 137 158 173 182 185 185 181 174 163 149 135 126 124 130 142 157 172 183 187 184 171 146 114 85 64 54 53 61 80 109 143 
161 180 186 180 162 136 110 90 82 85 98 118 139 156 167 169 163 154 143 135 133 137 149 165 182 194 202 202 192 171 137 98 66 47 39 42 56 84 125 167 196 211 214 206 186 151 109 75 56 51 61 85 121 158 185 198 199 190 171 145 116 92 79 75 79 88 101 116 131 146 156 161 162 160 156 151 144 137 130 125 126 134 148 165 181 194 201 203 196 177 146 108 75 54 44 42 49 67 95 129 
152 170 175 166 147 123 102 90 89 99 118 139 157 167 167 159 144 126 111 102 100 107 122 144 166 185 196 199 192 173 141 104 72 51 42 43 54 80 118 160 191 208 213 207 190 161 122 88 67 61 69 91 124 156 178 187 184 171 150 125 102 88 85 90 103 118 132 144 152 155 153 146 137 128 121 115 111 108 108 112 122 139 159 179 195 206 211 210 201 180 145 104 70 49 39 38 45 61 88 121 
148 163 164 152 131 109 94 89 96 113 136 156 169 172 163 144 120 98 81 72 71 78 94 118 145 170 187 193 190 175 149 115 84 62 51 50 59 81 115 153 183 201 208 205 192 168 136 105 84 77 84 104 130 155 170 173 164 146 124 103 89 85 92 109 130 149 164 171 171 164 150 132 113 99 90 85 84 85 90 101 117 139 163 184 200 210 214 212 202 180 143 101 67 47 39 38 46 62 89 120 
150 160 155 138 116 97 87 89 103 126 151 169 177 172 155 127 98 74 59 51 51 58 72 95 124 152 173 185 186 177 158 131 104 83 70 67 72 89 116 147 174 191 199 198 189 172 147 122 105 99 105 120 139 155 161 156 140 119 98 83 77 83 101 127 154 175 188 191 185 171 148 121 97 79 70 67 68 72 81 94 112 136 161 183 199 208 213 211 200 177 141 99 67 48 41 43 52 71 97 127 
157 160 149 128 105 88 83 91 111 138 163 179 182 171 146 112 81 58 46 40 41 47 60 80 107 135 158 173 180 177 167 150 131 113 101 94 95 104 120 141 160 174 182 184 179 169 153 138 126 123 128 138 149 155 152 139 118 96 78 68 69 82 107 140 171 192 202 203 194 176 148 117 89 71 63 61 64 70 79 91 108 130 153 174 191 201 206 205 194 172 137 98 68 51 46 50 63 85 113 140 
166 162 145 120 97 82 81 94 119 149 173 186 185 169 139 102 71 50 40 37 39 45 57 74 97 121 143 159 169 173 172 166 157 147 137 129 124 123 126 133 141 149 156 160 160 158 152 147 143 143 147 152 156 153 143 124 101 80 66 60 65 82 111 147 179 199 208 207 198 178 150 118 91 74 67 68 72 78 85 94 105 121 139 158 175 187 194 194 185 163 131 96 70 56 53 61 78 103 132 155 
173 164 142 115 91 79 82 99 127 158 181 191 187 168 136 98 67 49 41 40 44 52 63 78 95 112 129 142 154 163 170 175 176 174 169 162 152 141 130 122 119 119 123 128 133 139 144 148 151 155 159 160 158 150 135 114 92 73 61 58 64 82 111 147 178 197 206 205 196 178 152 124 100 87 83 85 89 94 97 100 103 110 121 135 151 165 175 178 171 152 124 95 73 62 63 74 95 123 150 168 
177 162 137 108 86 77 82 103 133 165 186 195 189 169 136 99 69 53 47 49 57 67 79 90 100 108 115 123 133 146 160 175 185 191 191 185 172 153 130 110 96 89 90 95 104 117 130 142 152 159 162 161 156 145 129 109 90 74 64 62 68 84 109 141 168 187 195 195 187 172 152 131 115 107 107 111 115 116 113 107 101 98 101 110 123 137 150 157 154 141 119 96 78 71 75 89 113 141 164 177 
176 158 130 101 81 74 82 104 136 167 188 196 190 171 140 105 78 64 62 68 79 93 104 111 111 108 103 103 109 122 143 165 185 197 201 197 182 158 126 97 76 66 65 70 81 97 116 135 148 156 158 155 148 138 125 110 96 85 77 74 78 88 106 129 151 166 174 174 169 159 147 137 131 131 135 140 143 139 129 114 98 88 83 86 96 109 124 135 139 132 117 100 87 83 89 106 130 155 173 181 
171 150 121 93 75 70 79 101 132 164 185 193 189 172 145 115 93 83 85 96 112 127 135 135 124 108 93 84 85 97 120 149 177 195 204 200 185 156 119 85 62 51 49 54 66 85 107 128 143 150 150 144 137 129 122 115 110 104 100 96 95 98 105 115 127 136 141 143 142 139 138 139 144 152 160 165 165 157 140 117 95 78 70 69 76 89 105 121 130 130 122 110 101 99 106 122 144 164 178 180 
165 142 112 86 69 65 73 94 123 153 175 185 183 170 148 126 111 107 115 130 147 160 164 156 136 109 84 69 65 74 96 129 163 188 200 198 181 149 109 75 53 43 42 48 62 82 106 127 140 143 139 130 123 119 119 123 128 131 130 127 121 113 107 103 102 103 105 107 110 116 125 138 153 167 177 182 179 166 144 116 90 71 61 60 66 79 97 116 130 136 133 126 120 119 125 139 156 171 179 178 
161 137 107 81 65 61 67 83 108 135 157 169 170 162 149 136 129 133 145 161 176 185 184 170 142 107 76 58 51 58 77 110 148 179 194 192 174 140 100 67 47 39 40 49 66 89 114 134 142 139 128 116 108 108 117 131 147 158 162 159 149 133 114 96 84 77 75 77 83 95 114 137 159 177 187 190 184 168 141 110 83 65 56 56 63 78 100 122 140 149 150 146 141 139 143 153 165 175 180 176 
161 137 108 82 65 58 61 72 91 113 133 146 151 149 144 141 143 153 167 183 194 199 194 175 142 102 69 50 43 47 65 96 136 169 186 185 166 131 91 61 45 40 45 58 80 107 132 148 150 139 120 103 94 97 112 136 160 178 186 185 173 152 124 95 73 60 55 57 65 81 106 136 163 183 192 192 183 162 133 101 76 61 55 57 67 86 111 136 155 166 168 164 160 157 158 164 172 179 181 176 
166 144 116 89 70 60 58 64 75 91 107 119 128 132 136 141 151 165 181 194 203 205 196 174 138 97 64 45 39 43 59 90 129 162 180 178 158 123 86 60 47 46 56 76 104 133 156 166 161 142 116 93 81 85 104 135 167 190 202 202 192 169 135 98 69 52 46 47 57 76 105 138 167 186 193 190 176 151 120 91 69 58 55 61 76 99 127 153 171 180 181 177 171 167 167 171 177 182 184 179 
175 157 132 104 81 66 59 59 65 74 85 97 107 116 127 139 155 171 187 198 205 204 193 169 131 91 61 44 39 45 62 92 129 161 177 174 154 120 85 62 53 58 74 102 134 162 180 184 173 147 113 85 71 74 94 128 166 194 209 212 203 181 146 105 71 51 43 44 55 77 109 144 172 188 192 184 166 137 106 80 64 57 58 68 88 114 143 167 182 187 186 181 173 168 167 170 176 183 186 184 
185 172 152 126 100 80 67 61 61 66 73 83 94 106 121 138 156 173 187 197 201 198 185 160 124 88 62 48 45 53 73 103 138 166 179 174 152 119 88 69 65 75 99 132 164 188 199 198 182 152 112 79 63 63 82 117 159 192 210 216 209 190 155 112 75 53 44 47 59 84 117 152 177 189 188 175 152 122 93 72 60 58 64 78 101 129 156 175 185 186 181 172 163 156 155 160 168 178 186 189 
192 186 171 149 124 99 81 70 65 66 72 80 92 105 121 139 156 171 183 190 192 187 173 149 117 87 67 58 59 71 93 123 154 176 183 175 153 121 93 78 79 97 127 161 189 206 213 208 190 156 112 75 56 54 70 103 146 184 207 215 211 194 162 120 81 58 49 52 67 94 128 160 180 187 182 164 137 107 82 66 60 62 72 91 115 141 163 175 179 174 164 151 139 132 131 138 151 167 181 190 
194 194 186 170 147 122 100 85 77 76 81 90 101 115 129 144 157 167 174 178 177 170 156 135 110 90 77 75 82 98 122 149 172 186 188 176 153 123 98 87 93 117 150 182 205 217 220 214 194 158 112 73 51 47 59 88 130 172 199 212 210 196 167 126 88 64 56 61 78 106 139 166 181 183 172 150 123 96 76 66 64 71 86 106 129 150 164 168 163 151 135 119 106 99 100 109 126 148 169 185 
189 196 194 183 165 143 121 105 97 96 101 110 121 133 143 152 158 160 161 158 153 145 133 118 104 94 93 99 112 132 153 174 188 194 190 175 149 120 99 92 103 129 163 193 213 222 224 216 196 160 112 71 48 41 50 74 113 156 188 205 207 195 168 131 95 72 64 71 89 117 147 169 178 174 159 136 110 88 75 71 75 87 104 124 143 156 160 154 140 121 102 85 74 69 71 80 97 122 149 173 
177 190 193 187 174 156 138 125 119 120 127 137 147 155 160 161 157 151 142 133 124 116 108 101 98 100 110 125 144 163 180 192 199 198 189 169 141 112 93 89 103 131 166 195 214 223 224 216 196 160 113 71 47 38 44 63 97 139 175 195 200 191 167 134 101 80 73 81 100 126 150 166 170 161 144 122 101 86 81 84 94 110 128 145 157 161 155 139 117 93 73 59 51 47 49 56 71 95 125 154 
158 176 183 181 172 159 147 139 138 143 153 163 171 175 174 168 155 139 122 107 95 88 84 85 91 105 125 148 169 186 197 203 204 197 181 156 126 99 82 80 94 121 156 187 207 218 220 213 195 160 114 73 48 38 41 56 85 124 161 184 191 184 163 134 105 87 82 90 107 129 148 158 156 146 129 111 97 92 95 105 120 138 154 166 171 167 152 128 100 74 56 44 37 35 36 42 53 72 100 131 
136 155 165 165 159 150 143 142 147 158 171 181 188 189 184 171 151 126 102 84 72 66 66 71 85 107 135 163 184 199 206 208 203 191 169 139 107 82 69 68 79 103 136 168 192 206 211 207 190 159 116 77 52 41 42 54 79 114 149 173 181 175 157 131 107 92 89 96 111 128 141 145 141 129 116 105 100 104 115 131 149 165 177 183 182 173 153 124 93 66 48 38 32 30 30 34 43 58 80 108 
115 133 142 142 137 131 129 133 145 162 178 190 197 197 189 172 145 115 87 67 56 52 54 62 79 106 140 170 192 204 209 206 197 179 151 118 88 67 56 55 63 82 109 140 167 186 196 195 183 156 120 85 61 50 49 60 81 111 142 164 171 165 149 127 107 95 93 100 112 124 132 132 126 116 108 105 110 122 139 158 174 186 193 195 191 179 158 129 97 70 51 40 34 31 31 34 40 52 70 92 
104 116 119 117 111 106 107 116 133 155 175 190 198 197 188 168 138 105 77 58 48 44 47 57 76 105 141 172 194 204 206 201 187 163 131 98 72 55 47 45 51 63 82 108 135 157 172 177 171 153 125 97 76 66 65 74 93 118 143 159 163 156 140 121 105 96 95 101 111 119 122 120 115 109 107 112 125 142 162 178 191 199 202 201 195 184 165 139 110 85 66 53 46 42 40 42 47 56 70 87 
105 109 106 98 90 85 87 96 115 139 163 181 191 191 182 161 131 98 71 54 45 42 46 56 75 106 141 172 192 201 200 191 172 144 111 81 60 47 41 40 43 50 63 81 102 125 143 154 156 148 131 113 98 91 91 99 115 133 150 159 159 149 132 115 101 95 96 101 109 114 116 114 110 109 113 124 141 161 178 191 199 203 203 200 194 185 171 153 131 111 93 80 71 65 62 63 67 74 84 96 
119 115 105 91 79 72 71 79 95 118 143 163 176 178 170 151 124 95 72 57 49 47 51 61 81 110 143 171 188 194 190 177 154 124 93 69 53 44 41 40 42 46 53 64 79 97 115 130 139 141 137 131 125 122 124 132 142 153 161 163 157 143 125 109 98 93 95 101 107 112 114 113 112 115 124 138 156 173 187 195 198 197 193 188 183 178 171 164 154 142 131 120 111 104 100 99 101 106 112 117 
142 131 114 95 79 68 64 68 79 97 119 139 152 158 153 140 120 98 79 67 61 60 64 75 94 119 147 169 182 184 176 159 133 105 79 61 51 46 45 46 48 50 54 61 70 81 95 110 123 134 141 145 148 152 156 162 168 172 173 168 156 139 120 104 94 92 95 101 108 113 116 117 119 125 136 151 166 179 186 189 186 179 171 164 160 160 162 167 170 170 167 163 157 151 147 144 144 145 147 146 
164 151 131 109 89 74 65 64 69 80 95 111 124 132 134 129 119 107 96 88 84 84 88 98 114 134 154 168 174 170 158 138 113 89 70 59 54 54 57 61 64 67 69 71 74 79 87 97 111 125 139 152 163 171 178 183 185 185 181 170 155 135 115 100 92 91 96 103 111 117 121 124 128 135 146 158 168 175 176 171 161 148 136 127 125 130 143 160 175 187 192 194 192 188 185 181 179 178 176 172 
180 168 150 129 107 89 76 68 67 70 78 88 99 108 116 120 122 122 120 118 117 118 122 129 139 151 160 165 163 153 137 116 94 76 65 61 63 70 79 88 94 98 98 95 92 88 88 92 101 115 132 150 166 179 188 192 193 191 183 170 151 130 111 98 92 93 99 107 116 123 128 131 136 142 149 157 162 161 155 142 126 109 95 87 87 97 117 144 172 192 204 210 211 209 205 202 198 195 191 187 
185 177 166 150 131 112 94 81 72 68 68 72 80 90 102 116 129 140 147 151 154 155 157 159 162 164 164 160 150 134 115 96 79 69 65 68 79 94 111 125 135 139 137 131 120 108 97 92 94 104 120 140 159 175 186 191 192 188 179 164 145 125 108 98 94 98 105 114 123 129 133 136 138 142 146 148 147 140 127 109 91 74 62 56 58 69 91 125 161 189 207 215 217 215 211 206 200 196 192 189 
178 178 175 168 155 139 120 101 85 73 66 65 69 79 95 116 138 157 171 178 182 183 182 180 177 171 163 151 134 116 97 80 69 65 68 80 99 123 145 163 174 178 175 166 150 130 110 95 90 93 105 124 144 161 174 181 181 176 166 152 135 119 107 101 102 107 116 125 132 136 137 136 136 135 135 133 126 115 99 81 65 51 43 39 41 51 72 106 147 181 202 211 213 210 203 195 187 181 178 177 
160 169 176 178 174 164 147 126 104 85 71 64 65 74 92 118 146 170 186 195 199 198 195 190 182 171 156 139 119 100 83 71 65 66 75 94 121 150 174 191 200 203 200 190 173 148 121 99 86 84 91 106 124 141 154 160 161 156 146 134 122 112 107 108 114 122 131 138 142 142 138 133 127 123 120 114 106 94 79 64 51 40 34 31 33 42 61 93 133 168 191 200 200 193 182 169 157 150 148 151 
133 153 171 183 187 183 171 151 127 101 81 69 67 75 94 122 153 178 194 203 205 203 198 189 177 162 145 126 106 89 76 68 66 71 86 110 141 170 192 206 214 215 212 202 185 159 128 102 85 79 82 93 106 120 130 134 133 128 121 113 108 107 111 119 130 141 149 153 152 146 137 126 116 109 104 98 91 81 70 58 47 39 33 31 33 41 58 86 122 155 175 182 177 164 147 130 116 108 108 117 
106 134 162 182 193 195 188 172 148 120 95 78 73 79 97 125 156 180 195 202 203 198 190 178 164 148 131 114 99 86 77 73 74 83 101 127 156 183 201 212 218 218 214 204 186 160 130 103 86 80 81 88 97 105 109 109 105 100 95 93 95 102 116 133 148 160 167 168 162 150 134 117 104 95 90 87 84 79 71 62 54 47 42 40 42 49 65 88 118 143 157 157 146 127 107 89 77 71 74 85 
86 118 152 179 195 201 198 186 165 138 110 90 81 85 102 127 155 177 189 194 192 184 172 159 144 130 117 107 99 92 88 87 90 101 118 143 168 189 203 212 215 213 207 195 177 153 126 105 92 88 91 96 100 101 98 91 84 78 75 76 84 100 122 146 165 178 183 180 170 152 130 109 93 85 83 84 86 87 85 80 73 67 62 59 61 68 81 100 121 135 139 131 114 93 74 60 51 48 52 64 
75 107 144 175 194 203 202 193 176 152 125 103 91 92 105 125 148 166 175 177 171 160 146 132 121 112 108 107 107 107 108 110 114 123 138 156 175 190 200 205 205 200 191 177 159 138 120 108 104 106 112 116 117 110 98 84 72 64 61 65 77 99 128 157 179 191 194 189 175 153 126 102 86 79 80 87 97 106 110 110 106 101 96 93 94 99 109 121 131 134 127 111 90 70 55 44 39 38 42 54 
73 103 138 169 190 200 201 195 181 160 135 113 100 98 105 120 136 148 153 151 142 129 116 106 100 101 106 114 123 130 134 137 141 146 155 166 177 186 190 190 186 177 164 148 132 119 111 112 120 131 141 146 142 130 109 86 68 56 53 58 72 99 133 166 188 200 201 194 178 153 123 97 81 77 83 97 114 131 142 146 146 142 138 135 134 137 141 145 145 137 121 99 77 59 47 40 36 37 42 53 
77 103 135 163 182 193 195 191 179 162 140 120 106 101 104 111 120 126 126 120 110 99 90 86 88 97 112 128 143 154 160 162 163 164 166 170 174 175 174 168 158 144 128 114 103 99 104 119 139 158 171 176 170 153 126 95 69 54 48 53 69 98 135 170 194 204 205 197 178 151 119 93 79 78 89 110 134 155 170 177 179 177 174 171 169 168 168 165 157 142 120 95 74 58 48 43 42 44 49 59 
88 107 131 153 169 179 182 179 171 157 139 122 109 101 100 102 104 104 101 94 85 78 74 76 85 102 124 145 163 174 179 179 176 172 169 166 163 158 151 139 125 108 93 82 78 83 99 125 155 179 194 199 193 175 144 106 74 54 46 50 66 96 136 172 195 206 205 196 176 146 115 90 79 82 98 123 150 173 187 195 197 196 194 191 188 185 182 175 163 145 121 97 77 64 57 55 56 59 64 73 
102 113 125 138 149 157 160 160 155 145 133 120 108 100 96 93 91 87 82 76 70 67 68 76 91 114 139 162 178 186 188 184 177 169 161 154 146 138 126 112 96 80 68 61 61 72 96 131 167 194 209 213 208 190 159 117 79 56 46 49 65 95 135 171 194 204 202 191 169 140 110 89 82 89 108 134 161 182 194 200 201 200 197 194 191 187 183 175 162 144 123 102 87 78 75 76 79 84 89 94 
118 117 118 120 124 129 132 134 134 131 124 116 107 100 93 88 83 78 72 68 65 65 71 84 105 130 155 174 186 189 186 178 167 155 144 134 126 117 106 92 77 64 54 50 53 66 94 134 173 202 217 221 216 199 168 126 85 58 47 50 66 95 134 169 191 199 195 182 159 131 105 90 87 97 118 144 167 183 191 194 192 189 185 182 179 176 172 165 155 140 124 110 101 98 100 106 112 117 119 119 
131 119 108 101 99 100 104 110 114 117 117 114 109 102 95 88 82 76 71 68 68 72 83 100 122 147 168 181 186 184 174 161 145 130 119 112 106 101 94 84 72 60 50 46 50 63 92 133 174 203 219 223 219 203 173 131 89 62 51 53 69 98 134 166 184 190 184 168 146 121 101 92 95 108 129 150 167 177 179 176 171 164 159 156 154 154 153 150 144 136 127 121 119 122 130 139 146 150 149 142 
139 117 98 85 79 79 83 91 101 110 116 118 115 110 102 95 87 81 77 76 79 86 100 119 141 161 176 182 180 170 153 134 116 102 94 91 93 95 94 88 78 66 55 49 50 62 88 128 169 199 215 220 216 201 172 132 92 67 57 61 78 105 137 163 177 178 168 150 129 110 98 97 106 121 140 155 164 166 160 150 139 130 124 122 124 127 131 134 134 132 131 132 137 145 156 166 173 176 171 159 
142 114 89 73 66 66 72 83 97 111 122 127 128 123 116 108 100 94 91 91 96 106 121 139 157 171 179 178 167 149 127 104 87 77 74 78 87 97 104 104 96 82 68 58 55 62 83 118 157 187 205 211 207 192 164 128 95 74 68 75 93 119 144 162 168 162 148 130 112 101 98 105 119 136 151 160 160 151 136 120 105 95 91 92 97 106 115 123 129 133 137 143 151 162 174 184 190 190 183 167 
140 109 83 67 61 62 71 85 104 122 135 143 145 141 134 126 118 112 110 110 116 126 140 155 168 176 177 169 151 127 101 79 65 60 62 72 89 108 124 130 124 108 89 72 62 64 77 104 138 167 186 194 190 175 150 120 96 83 83 95 115 136 154 162 159 146 127 110 97 94 100 115 134 152 162 164 155 138 115 95 79 71 69 74 83 96 109 121 131 137 144 151 161 172 183 192 197 196 187 168 
137 105 80 65 61 65 78 97 119 139 153 161 163 160 153 145 138 132 129 130 134 142 153 164 172 175 171 158 135 108 82 63 53 51 57 73 97 125 148 158 155 139 116 91 74 67 72 89 114 140 158 165 162 149 129 109 96 94 103 120 140 156 165 163 150 130 109 93 86 90 105 127 149 166 173 168 153 128 101 79 66 60 61 69 81 97 114 127 137 143 149 156 165 176 186 194 198 196 186 166 
132 102 79 67 66 74 91 115 139 159 171 177 178 174 168 161 153 147 143 143 145 151 158 166 171 171 164 148 124 96 72 56 48 48 58 79 109 143 170 182 181 167 143 113 88 73 70 77 93 110 124 130 127 118 106 97 96 106 124 145 163 174 174 163 141 116 93 80 79 90 112 139 163 178 181 172 152 124 95 74 62 59 63 74 90 107 124 136 143 146 149 154 162 173 183 191 195 193 182 161 
128 100 80 71 74 87 109 135 159 176 186 189 188 183 176 168 160 153 148 146 146 150 155 161 165 165 158 143 120 94 71 56 50 51 63 87 122 158 185 198 199 187 164 133 103 81 71 71 78 88 95 98 96 90 86 87 97 116 141 165 181 186 179 160 132 103 81 72 75 91 118 148 172 185 186 175 153 123 95 75 66 66 73 86 103 120 134 141 143 143 142 145 153 164 176 185 190 188 177 156 
122 97 80 75 82 100 125 153 175 189 195 196 192 185 176 166 156 148 142 138 137 140 145 151 157 159 155 143 124 100 79 64 57 59 71 97 133 168 194 206 207 198 178 149 118 93 78 73 74 78 80 79 76 73 73 80 98 124 153 177 190 191 179 154 122 92 72 66 72 92 122 154 178 189 188 176 153 125 99 81 75 77 87 101 116 129 137 138 135 130 126 128 137 151 166 178 184 182 171 149 
116 93 79 77 87 108 137 165 185 196 199 197 190 179 167 154 142 132 125 121 121 123 130 139 148 155 156 149 135 115 94 77 68 69 81 106 139 172 195 206 208 200 184 159 131 107 92 84 82 81 79 75 70 66 68 78 99 129 159 182 192 189 172 144 110 81 65 61 70 92 123 155 178 188 186 173 151 126 104 90 86 91 101 113 124 130 131 126 117 109 105 107 118 136 155 170 178 176 164 142 
108 87 76 76 88 111 141 169 188 197 198 193 182 166 149 133 119 110 103 100 101 106 115 128 142 154 160 159 150 134 114 96 83 81 89 110 140 169 190 200 202 196 182 163 141 122 110 104 102 99 93 85 76 70 70 80 101 130 160 181 188 181 161 129 96 71 58 58 69 91 122 152 173 181 178 165 145 124 108 99 98 104 112 120 124 123 116 106 95 86 83 88 102 124 147 165 173 171 157 134 
98 78 69 70 83 106 137 165 185 194 193 184 168 148 126 108 95 87 82 81 84 92 104 121 140 156 167 171 166 153 135 114 98 91 95 110 134 158 177 187 189 184 174 160 146 135 130 129 129 126 118 106 92 81 78 85 104 131 157 175 179 169 146 114 84 63 54 56 67 89 117 144 162 169 164 151 135 119 109 106 109 115 120 122 118 110 98 85 74 68 68 76 94 119 145 164 171 167 150 124 
88 69 61 62 74 96 126 156 177 186 184 172 152 127 103 85 74 68 66 68 73 84 100 121 143 162 175 181 178 168 150 128 108 96 95 104 121 141 157 166 169 165 159 151 146 145 149 154 157 156 148 133 115 99 91 94 108 130 153 167 168 155 131 100 74 58 53 56 68 88 113 135 148 151 144 133 121 112 109 112 118 124 125 121 111 96 81 69 60 57 61 74 96 124 150 168 173 165 144 116 
79 61 53 54 64 84 112 143 166 177 175 160 136 109 85 69 60 56 57 61 69 83 103 127 151 170 182 187 185 175 156 133 111 96 90 94 105 120 133 141 144 142 139 138 142 150 161 172 179 179 172 158 138 119 106 104 114 132 149 160 158 145 120 93 72 59 56 62 74 91 110 125 132 130 122 113 105 103 107 116 125 131 130 121 105 87 71 60 55 56 65 83 109 138 163 177 178 165 140 108 
72 54 46 47 55 73 100 131 156 168 166 150 125 97 73 59 52 50 53 60 71 89 113 138 161 178 187 190 186 173 154 129 107 91 83 84 92 102 112 118 121 121 121 125 135 150 166 181 190 192 187 173 154 134 119 115 121 135 149 156 154 141 119 96 78 69 68 75 86 101 113 120 119 112 102 94 92 96 107 121 133 140 137 124 106 86 71 61 59 65 80 103 131 159 179 188 184 167 137 101 
67 49 42 42 50 66 92 123 149 163 162 146 120 92 70 56 50 49 54 63 79 101 127 152 172 184 190 188 180 164 143 118 97 83 77 78 84 92 100 105 107 108 110 116 129 147 166 182 191 194 189 177 159 140 126 122 127 139 152 159 157 146 128 109 95 89 90 97 108 118 123 121 111 99 87 81 83 92 108 127 143 150 146 133 114 94 80 73 75 87 106 132 158 180 194 198 190 169 135 97 
64 47 40 41 49 65 91 122 149 163 163 149 123 95 72 58 52 52 59 72 92 117 144 166 181 188 188 182 168 149 126 103 86 76 74 77 84 93 101 105 106 106 107 113 125 142 160 175 184 186 180 168 152 136 125 124 132 145 158 165 165 158 145 132 122 119 122 129 136 141 138 127 110 93 80 74 79 92 113 136 153 161 159 147 129 112 99 96 102 117 138 162 183 198 205 204 193 169 132 94 
63 48 42 44 53 71 98 128 154 169 169 156 133 105 81 66 59 60 69 86 109 135 159 177 186 188 182 170 151 129 106 88 77 73 76 84 95 106 114 118 117 115 114 117 125 137 151 162 168 167 160 148 134 122 117 121 134 150 165 174 176 172 165 157 152 151 155 161 165 164 155 138 115 93 78 74 80 97 121 146 164 172 171 161 147 133 124 124 133 149 168 186 200 208 211 207 193 166 129 91 
66 53 49 53 65 85 113 142 165 177 178 166 145 119 95 79 71 73 84 103 128 152 172 184 188 184 172 153 130 107 88 76 72 75 84 98 114 127 136 139 137 132 127 125 127 132 139 144 144 140 131 120 109 103 104 115 133 154 171 182 186 185 181 177 176 177 181 185 186 182 170 149 122 98 82 78 87 106 132 156 173 181 180 172 161 151 146 148 158 172 187 199 208 211 210 203 187 160 124 90 
71 63 63 71 86 108 134 159 177 186 186 176 158 135 112 95 88 91 103 123 146 167 181 188 186 176 158 134 109 88 75 69 71 81 98 118 138 152 160 162 158 151 142 135 130 128 126 124 119 111 101 92 85 84 90 106 130 154 174 186 190 191 189 188 188 191 194 197 197 192 179 157 131 106 91 88 98 119 143 165 180 185 183 176 167 159 156 160 169 181 192 200 205 205 202 192 174 148 117 90 
81 80 86 98 115 136 157 175 187 192 190 182 167 148 128 114 108 111 124 142 162 177 186 188 181 164 141 114 90 74 65 65 74 91 115 140 161 174 180 180 175 165 154 143 133 124 116 107 98 88 78 71 67 69 79 98 124 151 172 184 189 189 187 187 188 191 196 199 199 194 182 162 138 116 103 102 113 133 155 172 182 184 179 171 161 154 152 155 164 174 182 188 190 188 181 170 153 131 109 91 
95 103 115 130 147 163 177 187 193 194 191 183 171 155 140 129 125 130 142 158 173 184 188 185 172 151 123 96 75 63 59 64 79 102 131 158 178 189 193 190 183 172 159 145 132 120 108 97 85 74 65 59 57 61 72 92 118 144 164 175 178 177 174 172 174 178 184 189 190 187 177 161 141 125 116 118 130 147 164 175 179 176 167 155 143 135 132 135 142 150 157 161 161 157 149 138 125 111 100 94 
112 127 144 160 172 182 189 192 193 191 186 178 167 155 144 137 136 142 153 167 179 186 187 180 163 138 108 82 65 56 56 65 83 111 144 171 189 197 198 193 183 171 156 142 129 116 104 92 80 69 60 55 54 58 69 88 112 135 152 159 158 153 147 144 145 151 158 165 169 169 163 152 140 131 128 133 145 159 169 174 171 161 146 130 116 107 104 106 111 117 122 123 122 117 111 103 97 93 93 100 
126 147 166 179 187 191 192 191 187 181 174 166 156 147 139 136 138 145 157 170 180 185 184 174 155 127 97 72 58 52 54 65 86 117 151 178 193 199 197 189 176 161 146 132 121 112 103 93 83 72 64 58 57 61 71 87 107 125 136 138 132 122 113 108 108 113 121 130 137 141 140 137 133 133 137 146 157 166 171 168 157 141 121 102 88 80 77 78 82 86 88 89 87 83 80 77 77 81 91 106 
137 159 176 186 190 190 186 181 173 165 156 147 139 132 127 126 130 139 152 165 176 182 180 170 149 121 91 68 54 50 53 64 86 118 152 178 192 196 191 180 164 145 129 118 111 107 104 99 92 83 74 68 66 69 78 91 107 119 123 118 107 93 82 76 74 78 85 94 102 109 114 118 123 131 142 154 164 170 168 158 141 118 96 79 67 61 59 60 63 66 68 68 67 65 63 64 68 77 92 113 
141 160 174 180 181 178 171 163 153 143 134 126 118 113 110 110 115 125 138 153 166 175 176 167 148 121 92 68 54 49 52 62 83 114 147 174 188 190 183 168 147 127 111 102 101 103 107 108 106 100 92 86 83 85 92 102 112 118 116 105 90 74 62 55 53 55 60 66 74 81 90 100 112 128 144 159 168 170 162 146 123 98 77 63 54 51 51 54 58 61 64 64 64 63 63 65 71 82 98 119 
138 152 160 163 161 155 148 139 130 122 114 107 101 96 93 93 97 106 119 136 152 165 171 167 152 128 100 75 59 51 52 60 79 107 139 166 180 183 174 156 132 110 95 89 92 101 111 120 123 121 116 110 106 106 111 118 124 125 118 104 86 69 56 48 44 44 47 51 57 64 74 87 104 124 144 160 168 166 154 133 107 83 66 55 50 51 54 60 66 72 76 78 79 79 79 81 86 94 107 122 
130 134 136 135 132 126 121 115 110 106 101 95 90 84 80 78 80 86 98 115 135 154 167 170 161 142 115 89 69 57 53 59 74 98 129 156 172 175 166 147 122 100 85 81 87 100 116 131 141 143 140 135 131 130 132 137 140 138 130 114 95 77 62 52 47 45 45 47 51 57 66 80 99 122 144 159 165 161 145 122 96 75 61 54 54 59 68 79 90 99 106 109 110 110 109 109 110 113 118 124 
118 113 109 105 102 99 98 99 100 100 99 95 88 80 73 68 66 69 78 95 117 142 163 173 172 159 137 110 86 68 59 59 70 90 118 146 165 170 163 145 120 97 83 79 86 102 122 141 154 160 160 156 152 150 150 153 155 154 147 134 116 98 82 70 62 56 53 52 53 58 66 79 99 122 144 158 162 155 137 113 89 71 62 61 67 79 94 111 126 138 146 149 150 149 147 143 139 134 128 123 
105 93 85 81 79 81 86 93 101 107 110 106 97 85 73 63 58 58 64 78 101 131 159 177 183 178 161 137 109 85 69 63 68 84 110 138 159 168 164 149 126 103 88 84 90 106 128 148 163 171 172 169 164 161 160 162 165 166 164 156 145 130 115 102 90 81 73 68 65 66 73 85 104 126 145 157 159 150 131 108 87 74 70 75 88 107 128 148 164 175 181 184 184 182 178 171 163 150 135 119 
94 79 70 66 67 73 84 99 114 125 130 127 115 98 80 64 55 51 54 66 88 121 155 180 193 193 183 163 136 107 83 71 70 81 104 131 155 168 168 157 137 116 100 93 98 113 133 154 168 175 176 172 166 161 160 162 167 172 175 175 171 163 153 142 129 117 105 94 86 83 87 97 113 132 149 158 157 147 128 107 89 81 83 95 115 139 162 180 192 200 203 204 203 200 195 188 176 159 138 115 
88 72 63 61 66 76 93 114 134 149 156 152 139 118 93 72 56 49 49 58 79 112 150 181 199 204 200 185 161 131 102 81 74 81 99 126 151 168 173 166 151 131 115 106 109 121 139 157 170 175 174 168 160 152 149 151 158 168 177 184 188 187 183 177 167 155 141 127 114 106 106 112 125 141 154 160 158 146 128 109 96 92 99 116 140 165 185 199 207 211 212 211 208 205 199 191 178 160 136 110 
87 73 66 66 73 88 109 133 156 171 178 176 163 141 113 85 63 51 48 54 73 105 146 180 202 211 210 201 181 153 120 94 80 81 96 120 147 166 175 173 161 145 129 120 120 129 144 159 169 172 168 158 146 135 129 131 140 153 169 183 193 199 200 198 193 184 171 156 141 130 125 129 139 151 160 164 160 149 132 115 104 103 113 133 158 180 196 206 210 211 209 206 201 197 191 183 171 153 131 107 
93 82 78 79 88 105 127 151 172 187 194 192 183 163 135 103 76 58 50 53 69 99 139 176 201 213 216 210 195 169 137 106 87 82 92 114 139 161 173 174 166 153 139 129 128 135 147 159 166 166 159 146 129 115 106 106 114 130 150 170 186 198 204 206 204 197 187 173 159 147 141 142 149 159 166 168 164 153 137 122 112 112 123 142 164 182 195 201 202 199 193 187 181 175 170 164 155 143 127 109 
108 101 98 101 109 123 142 162 180 193 200 201 195 181 157 126 95 71 57 55 67 92 130 169 197 212 217 214 202 179 148 115 91 82 88 106 129 151 165 168 164 153 141 132 131 137 147 156 162 160 150 133 113 96 85 83 89 103 123 146 168 184 195 201 201 197 189 177 164 153 148 149 156 164 170 172 168 158 143 128 119 117 125 140 157 171 180 182 179 172 163 154 146 141 138 137 136 133 126 117 
130 127 126 126 130 138 150 164 177 189 197 202 200 192 175 149 117 88 68 60 66 86 119 156 187 205 213 213 203 183 152 119 93 81 83 96 116 137 151 156 153 145 135 128 128 133 142 151 156 153 142 124 103 84 72 67 70 80 96 117 139 158 173 182 186 184 178 168 158 149 146 149 157 166 172 175 171 162 149 134 123 118 121 129 140 148 151 149 142 132 121 111 105 102 104 111 119 127 131 132 
155 155 153 149 146 145 147 153 162 173 184 193 198 197 187 168 140 109 83 68 66 78 104 139 171 193 204 206 198 179 151 118 93 79 78 88 104 121 133 139 137 130 122 118 118 124 134 143 148 146 136 119 99 81 68 61 60 64 74 89 106 124 140 151 157 158 154 148 141 136 137 143 152 163 171 175 173 165 153 139 126 117 113 113 115 116 114 109 100 90 81 74 71 72 80 93 110 128 142 151 
177 177 174 166 155 143 135 132 135 145 159 175 187 194 193 182 159 129 99 77 68 72 89 117 148 173 188 192 186 169 143 113 90 77 75 82 94 107 117 121 119 113 107 104 106 113 123 133 140 140 134 120 103 87 73 64 60 59 63 70 80 92 104 114 120 124 123 121 119 118 122 131 143 155 165 171 172 167 157 143 129 116 106 99 93 88 82 75 68 60 54 51 51 56 68 86 111 136 157 170 
192 192 186 174 156 134 115 104 102 110 125 146 167 184 191 188 173 146 115 87 70 67 76 95 121 146 164 171 168 153 131 106 87 77 75 80 89 99 106 108 105 99 94 92 94 100 110 122 131 136 134 127 115 101 89 78 70 65 62 62 65 70 76 83 89 93 96 97 98 101 107 117 129 143 155 163 167 165 159 149 135 120 105 91 79 70 61 54 49 44 41 41 44 52 68 91 121 150 172 186 
201 200 192 176 151 122 96 79 73 77 91 114 141 166 183 188 180 159 128 97 75 64 66 77 96 117 135 145 144 134 118 100 86 80 80 85 92 100 103 103 98 91 86 83 84 90 100 112 124 133 137 137 132 123 113 102 92 81 72 66 62 61 63 66 71 75 79 83 86 89 95 103 113 126 138 149 157 161 161 155 145 130 112 94 77 63 53 45 41 38 38 40 46 57 76 104 135 163 184 196 
203 201 191 173 144 110 81 62 53 54 65 85 114 145 170 183 182 167 140 108 82 66 62 67 79 95 110 120 123 118 108 97 90 88 90 96 103 108 109 106 98 90 83 80 80 84 93 105 119 132 142 148 150 148 142 133 122 108 94 81 72 66 64 65 68 73 77 81 83 85 87 91 97 107 118 131 143 154 161 162 157 145 128 107 86 68 55 46 41 39 41 46 55 70 92 120 149 174 191 200 
199 196 186 167 138 103 73 53 44 42 49 65 91 125 156 176 181 172 150 120 92 73 64 64 71 82 94 103 108 108 104 100 99 101 107 114 121 124 122 116 106 96 87 82 81 84 92 104 118 133 147 158 165 168 167 162 153 139 123 106 92 83 78 78 81 85 90 92 92 89 85 83 84 88 97 110 127 144 159 169 170 164 150 130 106 84 67 55 49 48 51 59 71 88 110 135 159 178 190 196 
185 184 176 160 133 101 73 53 42 38 42 54 77 110 144 169 180 176 159 134 107 85 73 69 72 79 89 98 104 107 109 110 114 120 128 136 141 143 139 130 118 105 95 88 87 89 97 108 122 138 153 165 175 181 183 181 175 164 150 134 120 110 104 104 107 112 115 115 110 100 89 79 73 73 78 90 109 133 156 174 182 182 173 157 134 110 89 75 67 66 70 80 93 110 128 146 160 171 179 183 
162 164 162 152 132 105 79 59 47 41 42 52 72 103 137 165 179 180 169 149 125 103 88 81 81 85 93 101 108 114 120 125 132 140 149 156 160 159 153 142 129 115 104 98 97 100 108 119 132 145 159 170 178 184 187 187 184 177 167 156 146 139 137 138 142 146 148 144 133 116 96 78 66 61 64 74 93 121 151 176 191 196 192 181 163 141 120 104 95 93 98 108 120 131 141 148 151 154 156 159 
130 138 144 143 134 115 93 73 58 50 49 57 75 104 138 166 182 186 179 164 144 124 107 97 94 96 102 110 118 126 134 142 150 158 166 171 172 169 161 149 135 122 112 108 109 114 123 133 145 155 164 171 176 179 181 180 178 174 170 165 162 162 164 169 173 177 177 171 156 133 104 79 62 53 53 61 79 109 144 175 195 204 205 198 186 169 152 137 128 127 131 138 145 148 147 141 133 126 123 124 
98 111 126 137 139 130 113 93 76 65 62 68 86 113 145 171 186 191 188 177 160 141 124 112 106 106 111 118 128 138 147 156 165 172 177 179 177 171 161 147 133 122 115 114 119 129 139 150 159 165 169 170 169 166 162 159 157 156 157 160 165 173 181 188 195 198 197 190 174 147 112 81 59 48 46 52 69 98 135 171 195 208 211 208 200 188 175 164 157 156 159 163 164 158 145 128 109 96 89 90 
73 90 113 134 146 147 136 118 99 85 79 85 101 127 155 178 191 196 193 184 170 152 133 119 111 110 114 122 133 145 156 166 174 180 182 181 176 166 152 137 123 114 111 115 125 139 153 164 171 174 172 166 157 146 135 128 124 125 130 140 155 171 186 197 205 209 209 202 185 157 119 83 58 45 42 46 61 87 125 162 190 205 211 209 203 195 185 178 174 175 177 178 174 162 140 113 88 71 63 64 
59 78 106 134 155 162 156 140 121 105 98 102 118 141 166 185 195 199 196 187 171 152 132 116 107 105 108 118 131 146 160 171 179 183 183 178 169 155 138 121 107 100 101 110 125 144 162 174 181 181 175 162 144 124 106 95 89 90 98 113 134 159 181 198 208 213 213 207 191 163 124 86 59 45 40 43 55 78 112 149 179 196 202 202 197 189 182 178 178 181 185 185 178 162 134 102 74 56 48 49 
55 76 106 138 162 172 168 154 135 118 110 114 129 151 173 189 197 199 195 183 165 143 121 104 94 91 96 107 122 141 158 172 180 183 181 173 159 141 120 103 90 85 89 101 120 143 164 179 186 185 176 158 133 106 84 70 63 64 71 87 111 141 169 191 205 212 213 207 193 166 129 92 64 48 42 43 53 72 100 132 160 177 184 183 177 170 165 165 169 177 184 186 179 161 132 97 69 50 43 44 
59 82 113 145 167 176 172 157 137 120 111 115 130 152 173 189 196 197 190 175 153 127 103 86 77 75 80 92 110 131 152 168 178 181 177 166 149 127 106 88 77 74 78 91 111 136 160 178 187 186 176 156 127 97 72 57 49 48 54 68 90 120 152 179 196 205 208 204 191 168 135 100 73 56 49 48 55 69 89 114 135 149 153 151 145 138 136 140 151 164 177 183 179 162 134 100 71 53 45 47 
74 97 127 154 171 176 167 149 127 110 102 106 121 144 167 184 192 192 183 164 138 109 85 69 62 61 67 79 98 121 145 163 173 176 171 158 140 118 97 81 71 68 72 83 102 126 151 170 181 183 175 155 127 96 71 55 46 44 47 57 75 101 132 159 180 192 197 195 186 168 143 114 89 72 64 62 64 72 84 98 109 116 116 112 105 101 102 110 126 147 166 178 178 166 142 111 83 64 57 60 
98 120 145 165 175 172 157 134 110 92 85 89 105 129 154 174 185 185 175 153 124 94 71 58 52 52 58 71 90 113 137 155 166 168 162 150 133 113 95 82 73 70 72 80 95 115 137 156 169 174 169 155 131 104 80 63 53 49 50 56 68 87 111 135 155 169 177 179 176 167 151 132 113 99 90 86 84 85 86 88 89 88 83 78 72 70 73 84 104 130 155 173 178 171 153 127 102 85 79 83 
