P2
100 100
255
131 135 138 139 137 133 126 118 112 109 110 113 120 127 135 141 144 144 140 134 127 118 111 105 102 102 104 109 115 122 128 133 135 136 134 131 127 123 120 117 114 113 112 113 115 119 125 131 136 140 141 138 133 126 117 110 105 103 104 107 112 117 122 126 129 131 133 134 135 135 135 134 132 129 126 123 121 119 118 116 114 111 108 105 104 103 105 110 117 125 132 138 142 142 139 135 130 127 126 127 
139 142 144 143 139 132 123 115 108 104 104 108 115 122 130 137 140 141 138 133 127 119 112 107 105 105 107 111 117 123 128 132 133 133 131 129 127 125 123 122 120 119 117 116 116 117 120 125 130 134 137 137 135 130 125 119 115 113 112 113 115 117 119 120 121 122 123 126 129 132 136 138 140 139 137 135 131 127 123 118 113 109 105 101 100 100 103 108 115 123 131 137 141 142 140 138 135 133 133 135 
145 147 148 146 141 133 123 114 106 102 101 105 111 119 127 134 138 139 138 134 129 123 118 113 111 111 113 117 121 125 128 129 129 128 127 126 125 126 127 129 129 128 125 122 119 117 117 119 122 127 131 134 135 135 132 129 126 124 122 121 120 118 116 115 113 113 114 118 123 130 137 143 147 148 148 145 141 135 129 122 115 109 104 101 100 101 104 109 116 123 130 136 139 140 140 138 137 137 138 141 
148 151 151 149 143 135 124 114 106 102 101 104 109 117 125 132 137 139 139 137 133 129 125 122 121 121 122 124 126 128 128 127 125 122 121 121 123 126 131 135 138 138 135 130 124 118 114 113 115 119 124 130 134 138 139 138 137 134 131 128 124 119 114 110 107 106 108 112 120 129 138 147 152 155 156 153 148 141 134 126 118 112 107 104 104 105 108 113 119 125 130 134 136 137 136 135 135 137 140 144 
148 152 153 151 145 137 126 116 108 104 103 105 110 118 125 132 137 140 141 140 138 135 133 131 131 131 132 132 132 131 128 124 119 116 114 115 119 125 133 141 146 147 145 139 131 121 114 109 108 111 117 125 132 139 143 145 145 142 138 133 126 119 112 107 103 102 104 110 118 129 140 149 156 159 160 157 152 145 137 129 121 116 112 110 110 112 116 120 124 128 131 132 132 131 130 130 131 134 138 143 
147 151 153 151 146 138 128 119 112 107 106 109 114 120 127 133 138 141 142 142 141 140 140 139 139 140 140 140 138 134 128 121 114 109 107 108 114 123 133 144 152 155 153 147 137 125 115 107 104 106 111 120 129 138 145 148 149 146 142 135 127 119 111 105 101 101 104 110 119 130 141 150 157 160 160 157 152 146 138 130 124 119 117 117 119 122 125 129 131 132 132 130 127 124 122 122 123 128 134 140 
143 148 151 149 145 138 129 121 115 112 111 114 119 124 130 135 139 141 142 142 142 142 142 143 145 146 146 145 142 136 129 120 111 104 101 102 108 119 132 144 154 159 159 153 143 130 117 107 102 102 107 116 127 137 144 149 149 147 141 134 126 117 110 105 103 103 107 113 122 132 141 149 154 157 156 154 149 143 136 130 125 123 123 125 128 132 135 138 138 136 132 127 121 116 113 113 115 120 128 136 
139 145 147 146 142 136 129 122 118 116 117 120 124 129 134 137 139 140 139 139 139 139 141 143 146 148 149 149 145 139 130 119 109 101 97 98 104 115 129 143 154 161 162 157 147 133 120 109 102 102 106 115 125 135 143 147 147 144 138 131 123 116 110 107 107 109 113 119 126 134 140 146 149 150 149 146 142 137 132 128 126 125 128 131 136 141 144 145 144 139 132 123 115 108 104 104 107 113 122 131 
135 140 143 141 138 132 126 122 119 119 121 125 129 133 136 137 137 136 134 132 132 133 135 139 143 147 149 149 147 141 132 121 110 101 96 96 101 112 125 140 152 160 162 158 149 137 123 112 105 104 108 115 125 134 141 144 144 140 133 126 119 114 112 111 113 116 121 126 131 135 139 141 141 141 139 136 133 130 127 125 125 127 131 137 143 148 151 151 148 141 131 120 110 102 98 98 101 108 117 127 
132 137 138 136 132 127 123 120 120 122 125 129 133 136 137 136 133 129 126 123 122 123 126 131 137 142 146 148 147 142 134 124 114 105 99 98 102 110 122 136 148 156 159 157 150 139 127 117 110 109 112 119 127 135 140 141 139 134 127 121 116 113 114 116 120 125 130 134 136 137 136 135 133 130 128 126 124 123 122 123 124 128 133 140 147 152 155 155 150 142 131 118 107 98 94 94 98 106 115 125 
131 135 134 131 126 122 119 118 119 123 128 133 136 138 136 133 127 121 116 113 111 113 117 122 129 136 142 145 145 142 137 128 119 111 105 103 105 111 121 132 143 151 155 154 148 140 130 122 116 115 118 123 130 136 139 138 134 128 121 116 113 113 116 122 128 135 139 141 141 138 134 129 125 121 119 118 118 118 119 121 124 128 134 141 148 153 156 156 151 142 130 117 105 97 93 94 99 107 116 125 
133 134 132 127 122 117 115 115 119 124 130 135 138 138 134 128 121 114 107 103 102 104 108 115 122 130 136 141 143 142 139 133 126 119 113 110 111 114 121 130 138 145 149 149 146 140 133 127 123 122 124 129 134 137 138 135 130 123 116 112 110 113 119 127 135 143 147 147 145 139 132 124 118 115 113 113 115 116 119 121 124 128 133 140 146 152 155 155 150 142 130 117 106 98 95 97 102 111 120 128 
135 134 130 124 118 114 112 114 119 126 132 137 139 137 132 124 115 107 101 97 96 99 104 110 118 125 132 137 140 141 140 137 133 128 124 120 119 120 123 128 133 138 142 143 141 138 134 130 128 128 130 133 136 138 137 132 126 119 112 108 108 113 121 131 141 148 152 152 147 140 131 122 115 112 111 112 115 118 120 122 124 127 131 137 143 148 152 152 148 141 130 118 108 102 100 102 108 117 125 132 
138 136 130 123 116 112 111 114 120 128 135 139 140 137 130 120 111 103 97 94 95 98 103 110 116 123 128 132 136 138 139 139 138 136 134 131 128 126 126 127 129 132 134 136 136 135 133 132 131 132 133 136 137 137 135 130 123 115 109 106 107 113 122 133 143 151 155 154 148 140 130 122 116 113 113 116 119 122 123 124 124 125 127 131 137 142 146 147 145 139 130 120 112 107 106 109 116 124 132 137 
141 137 130 122 116 112 112 116 122 130 137 141 141 136 128 118 109 101 97 96 98 102 108 113 119 123 126 129 131 134 137 140 142 143 142 140 136 132 128 126 124 125 126 128 130 131 132 132 133 134 135 136 137 136 133 127 121 114 108 106 107 113 122 133 143 151 154 153 148 140 131 123 118 117 118 121 125 127 127 126 124 122 123 125 129 134 139 142 141 137 130 122 116 112 112 116 123 131 138 141 
143 138 130 122 116 112 113 118 125 133 140 143 142 137 128 118 109 103 100 101 105 110 116 120 123 125 125 125 126 129 133 138 143 147 148 147 142 136 130 124 120 118 118 120 123 126 129 131 132 133 134 135 134 133 130 125 120 114 109 107 108 113 121 131 140 147 150 150 145 139 131 125 122 122 124 128 131 132 130 127 123 119 117 118 121 127 132 136 137 134 130 124 119 117 118 122 129 136 142 144 
143 137 129 122 116 113 115 120 128 136 142 145 143 137 129 120 112 107 106 109 114 120 126 129 129 127 124 121 120 122 128 135 142 148 151 151 146 138 129 121 114 111 111 113 117 122 126 129 131 132 132 132 131 130 127 124 120 116 112 110 111 114 120 127 135 141 144 144 141 136 131 127 126 127 130 134 136 135 132 127 120 115 112 111 114 120 125 130 133 132 129 125 122 121 122 126 132 139 143 145 
141 135 128 121 115 113 115 121 129 137 143 145 143 138 130 122 116 113 114 118 125 131 135 136 134 128 122 116 114 116 121 130 140 148 152 152 147 138 127 117 109 105 105 108 113 119 124 128 130 130 129 128 127 126 126 125 123 120 118 116 115 116 119 123 128 132 135 135 134 132 129 128 129 132 135 138 139 137 132 125 117 111 107 106 109 115 121 126 130 131 129 126 124 123 125 129 134 139 143 143 
138 132 125 119 114 113 115 120 128 135 141 144 143 138 132 125 121 120 122 128 134 140 143 142 136 128 119 111 107 109 115 125 136 145 151 151 146 136 124 112 104 100 100 104 110 118 124 128 130 129 127 125 124 124 125 126 127 127 125 123 121 119 118 119 121 123 124 126 126 126 127 128 131 134 138 140 139 136 130 122 114 107 104 104 107 112 119 125 129 130 130 128 126 125 127 130 134 138 141 141 
135 130 123 117 113 111 113 118 125 132 138 140 140 137 132 128 125 126 129 135 142 146 147 144 136 125 114 106 101 103 109 120 132 143 149 149 143 133 120 108 100 96 97 102 110 119 126 130 131 129 125 122 121 121 124 128 132 134 135 132 129 124 119 116 114 114 115 116 118 121 124 128 132 136 139 140 138 134 127 119 111 105 102 103 107 113 120 126 130 132 132 130 128 128 129 131 135 138 139 139 
134 129 122 116 111 109 111 114 120 127 132 135 136 135 132 130 129 131 135 141 146 149 148 143 133 121 110 101 97 99 106 117 130 140 146 146 140 129 116 105 97 95 97 104 113 123 130 134 133 129 124 120 118 119 124 130 137 142 144 142 137 130 122 115 109 107 106 108 112 116 122 127 132 136 139 139 136 131 124 116 109 105 103 105 109 115 122 129 133 135 134 133 131 131 131 133 135 138 138 137 
135 129 123 117 112 109 108 111 115 121 126 129 131 132 131 131 132 135 139 144 148 149 147 140 129 117 106 98 95 97 105 116 128 139 144 143 137 126 114 103 97 96 100 108 119 129 136 139 137 131 124 118 115 116 122 131 140 148 152 151 145 136 125 115 107 102 101 103 107 114 121 127 133 137 138 137 133 128 121 114 109 105 105 108 113 120 127 132 136 138 138 136 135 134 134 135 137 139 139 138 
137 133 126 120 114 110 108 108 111 115 120 124 127 129 130 131 134 137 141 145 147 147 143 136 126 114 104 97 95 99 107 118 129 139 143 142 135 124 113 104 99 99 105 115 127 137 144 145 141 133 124 115 111 113 119 130 142 152 157 157 152 142 129 116 106 100 98 100 106 113 122 129 135 138 138 136 131 125 119 113 109 107 108 112 117 124 131 136 140 141 141 139 137 136 136 137 139 141 141 140 
141 137 132 125 118 113 109 108 109 112 115 119 123 126 129 132 135 138 141 144 145 144 140 133 123 113 105 100 99 103 111 122 132 140 143 141 134 124 114 106 103 105 113 124 136 146 152 152 146 135 123 113 107 108 115 127 140 152 160 161 157 146 133 119 107 100 98 100 107 115 124 132 137 139 138 135 130 123 118 113 110 110 112 116 122 128 134 139 141 142 141 140 138 137 137 138 140 142 144 143 
145 142 138 131 125 118 113 111 110 111 114 118 122 126 129 132 136 139 141 143 143 141 137 130 122 114 108 105 106 111 119 128 136 142 144 141 134 125 116 110 109 113 121 133 145 154 158 157 149 137 123 111 103 103 109 121 136 150 159 162 159 149 135 121 109 101 99 103 110 119 128 135 140 141 138 134 128 122 117 113 112 112 115 120 125 131 135 139 141 141 139 137 135 134 135 136 139 142 145 146 
148 147 143 138 132 125 119 115 113 114 116 119 123 127 130 134 136 138 140 140 140 137 133 128 123 117 114 113 116 121 128 135 141 144 144 140 134 125 118 114 114 120 129 141 152 160 163 161 152 138 123 109 100 98 104 115 131 145 156 160 158 149 137 122 111 104 102 106 114 123 132 138 142 141 138 133 127 121 117 115 114 116 119 123 127 132 135 137 137 136 134 131 129 128 128 130 134 139 143 146 
147 148 147 143 137 131 126 121 119 119 120 123 126 130 133 135 137 137 137 137 135 133 130 127 124 122 121 122 126 131 136 142 145 146 144 139 133 125 120 117 119 125 135 146 156 164 166 163 153 139 123 108 98 95 99 110 125 140 151 157 155 148 136 123 113 106 106 110 118 127 135 140 142 140 136 130 125 120 117 117 117 119 122 126 129 132 133 133 132 129 125 122 119 117 118 121 126 132 138 144 
144 147 147 145 141 136 131 127 125 125 126 129 131 134 136 137 137 136 134 132 130 127 126 124 124 125 127 131 135 140 144 147 148 146 142 137 130 124 119 118 121 127 137 147 157 163 165 162 153 139 123 108 97 93 96 106 119 134 145 152 151 145 135 124 114 109 109 113 121 129 136 139 140 137 132 127 123 120 119 120 122 124 127 129 131 132 131 129 125 121 116 111 107 105 106 109 115 122 130 138 
138 142 144 143 140 137 133 131 130 131 133 135 137 139 139 138 136 133 129 126 123 121 120 121 123 127 132 137 142 146 149 149 148 144 139 132 126 120 117 116 119 125 134 144 153 159 162 159 151 139 124 109 99 94 96 104 116 129 140 146 147 142 133 123 115 111 112 116 123 130 135 137 136 132 128 123 121 120 121 124 127 130 133 134 134 133 130 126 120 114 107 101 97 94 95 98 104 112 121 130 
131 136 138 138 136 134 132 132 133 135 137 140 142 143 142 139 134 129 124 119 116 114 114 116 121 127 134 140 146 149 151 150 146 141 134 127 120 115 112 112 114 120 128 137 145 152 155 154 148 138 125 113 103 98 99 105 115 126 136 142 142 138 131 123 116 113 114 118 124 129 132 133 130 127 123 120 120 122 125 130 134 138 139 140 138 135 131 125 118 110 103 95 90 87 87 90 95 104 113 123 
125 129 131 131 130 128 128 129 132 136 140 143 145 145 143 138 132 126 119 113 109 107 108 112 117 125 133 141 147 150 150 148 143 136 128 120 114 109 106 106 108 112 119 126 134 141 145 146 143 136 127 117 109 105 105 109 117 126 134 138 139 135 129 122 117 115 116 119 124 127 129 128 125 122 119 118 120 125 131 137 142 145 146 145 143 139 133 127 119 111 102 95 89 85 84 87 92 100 109 118 
122 125 125 124 122 121 122 124 129 134 140 144 146 146 143 137 130 122 114 108 104 102 103 108 114 123 132 140 145 149 148 145 139 131 122 114 108 103 100 100 101 104 109 115 122 129 135 138 138 135 129 123 117 113 112 115 121 127 133 136 136 133 128 122 118 117 118 120 123 126 126 124 121 118 117 118 123 129 137 144 149 151 152 150 147 142 137 131 124 116 108 100 93 89 88 90 94 101 109 116 
123 123 121 118 115 114 115 118 124 130 137 142 144 144 141 135 128 120 112 106 102 100 102 106 113 121 130 138 143 146 145 141 134 126 118 110 103 99 96 95 96 98 101 106 112 119 125 130 133 133 131 128 124 122 121 123 126 131 134 136 135 132 127 123 120 118 119 121 123 124 124 121 119 117 117 121 127 135 143 149 154 155 154 152 148 145 141 136 131 125 118 111 105 100 98 99 103 109 115 120 
128 125 121 116 111 109 109 113 118 125 132 137 140 140 137 132 126 118 112 106 103 102 103 107 113 121 129 136 141 143 142 137 131 122 114 107 101 97 95 94 94 95 97 101 105 111 117 123 128 132 133 132 131 130 129 130 132 134 136 136 134 131 127 123 121 120 121 122 124 124 123 121 118 118 119 124 131 139 147 152 155 155 153 149 146 144 142 140 139 135 131 126 120 116 114 114 117 121 125 127 
135 130 123 116 111 107 107 109 114 120 126 131 134 135 133 129 124 119 114 110 108 108 109 112 117 124 130 135 139 140 138 134 127 120 112 106 101 98 96 96 96 97 98 100 103 108 113 119 125 130 134 135 136 136 136 136 137 138 138 137 134 130 127 123 121 121 122 123 124 125 123 121 120 120 123 128 135 142 148 152 152 150 146 142 139 138 140 142 144 145 144 141 137 134 132 131 133 135 137 137 
142 136 128 120 114 109 107 109 112 116 121 125 128 129 128 126 124 121 119 117 116 117 118 120 124 128 132 135 137 137 135 131 125 118 112 107 104 102 102 102 103 103 104 105 106 109 113 118 123 128 133 136 138 139 140 140 140 140 139 137 134 130 126 123 121 121 123 124 125 126 125 123 123 123 126 131 137 142 146 146 144 139 134 129 128 129 134 140 147 152 154 154 152 149 147 146 146 147 147 145 
147 141 134 126 119 114 112 111 112 115 117 120 121 122 123 124 124 125 125 126 127 127 128 130 131 133 135 136 136 134 132 127 122 117 113 110 108 109 110 112 113 114 114 114 114 114 115 118 122 127 131 135 138 140 141 142 142 141 139 136 133 129 125 122 121 121 123 125 126 127 127 126 125 126 128 132 136 139 140 138 132 125 119 114 113 117 124 135 145 154 159 162 161 159 157 155 154 153 152 150 
148 144 139 133 127 122 118 116 115 115 115 115 116 117 119 122 125 129 132 135 137 138 139 139 138 138 137 136 134 131 128 124 120 116 113 113 114 116 120 124 127 128 128 126 124 121 120 120 121 124 128 132 135 138 140 141 141 140 138 135 131 127 124 121 121 121 123 126 127 128 128 127 127 127 129 131 133 133 131 126 119 111 103 99 99 104 114 127 141 152 160 164 164 162 159 156 154 153 152 150 
145 143 141 138 134 130 126 123 119 116 114 112 112 113 116 121 126 132 138 142 145 147 146 145 143 140 137 134 131 128 124 120 117 115 114 116 119 124 130 136 140 142 141 138 134 129 124 121 120 121 124 127 131 134 136 138 138 138 136 133 130 126 123 121 121 122 124 126 128 129 129 128 127 127 127 128 128 126 122 115 107 98 91 88 89 94 105 120 135 148 156 160 160 158 154 150 147 145 145 145 
138 140 141 141 140 138 134 130 124 119 114 111 109 111 114 120 128 135 142 148 151 152 151 148 144 140 136 132 128 124 121 117 115 114 115 118 124 131 139 145 150 153 152 148 142 135 128 122 119 118 119 122 125 129 132 134 134 134 133 130 127 125 122 121 122 123 126 128 130 130 130 128 127 125 124 124 122 119 114 107 99 91 85 82 83 89 100 114 129 142 150 153 152 148 143 138 134 133 133 135 
128 134 139 143 144 144 141 136 129 122 116 111 109 110 114 121 129 137 145 150 152 152 150 147 143 138 133 129 125 122 118 116 114 114 116 121 127 136 144 152 157 159 158 154 147 138 129 122 117 115 116 118 121 124 127 129 129 129 128 127 125 124 123 123 124 126 129 131 132 131 130 127 125 122 121 119 118 115 110 104 96 89 84 82 84 89 99 112 125 136 142 144 141 135 129 123 119 118 119 123 
120 128 136 143 147 148 145 141 133 125 118 112 110 111 115 122 130 138 145 149 150 149 146 143 138 134 130 126 123 121 118 116 115 116 118 123 130 139 147 154 159 161 160 155 147 138 129 121 116 114 114 116 118 121 123 124 124 124 123 123 123 123 124 126 128 131 133 134 134 133 130 126 122 120 118 116 115 113 110 105 99 94 90 88 90 95 104 114 124 132 136 135 130 123 115 109 105 104 107 112 
113 123 133 141 147 149 148 143 136 128 120 115 112 113 117 123 131 137 142 145 145 143 140 136 132 129 126 125 123 122 121 120 119 120 122 126 132 140 147 153 157 159 156 151 144 135 127 120 116 114 115 117 118 120 120 120 119 118 118 118 120 122 126 129 133 136 138 139 137 134 130 125 120 117 115 115 115 115 114 112 108 104 102 101 102 106 113 120 127 131 131 128 121 113 105 99 96 95 99 105 
111 121 131 139 146 149 148 144 138 130 123 117 115 115 119 124 130 135 138 139 138 135 131 128 125 124 124 125 125 126 126 125 125 125 126 129 134 139 145 150 152 152 149 144 137 130 124 120 118 118 119 121 122 121 120 117 114 113 112 114 117 122 128 134 139 142 144 143 140 135 129 123 118 115 115 116 118 120 121 122 120 119 117 116 117 120 124 128 131 131 129 123 116 107 100 95 92 92 96 102 
111 120 129 137 143 146 146 143 138 131 125 120 118 118 121 125 129 132 133 132 130 126 123 121 120 121 124 127 130 132 133 133 132 132 132 133 135 138 141 144 144 143 140 135 129 124 121 120 121 124 127 129 129 126 122 116 111 108 107 109 114 122 130 138 144 148 149 147 143 136 129 122 117 115 115 118 122 126 130 133 133 133 133 132 132 133 135 135 135 133 128 121 114 106 100 96 94 95 98 104 
115 122 129 135 140 143 143 141 137 131 126 122 120 120 122 125 127 128 127 125 122 119 116 116 117 121 125 130 135 138 140 140 139 137 136 136 136 136 137 137 135 133 129 124 121 119 119 122 127 132 137 139 137 133 125 117 109 104 102 105 111 121 131 141 149 153 153 150 144 136 128 121 116 115 117 121 127 133 138 142 144 145 144 144 143 143 142 141 138 134 128 121 115 108 104 101 100 102 104 109 
120 124 128 132 136 138 139 137 134 130 127 123 122 121 122 123 124 124 122 119 116 113 112 113 117 122 128 135 140 144 145 145 143 141 139 137 135 134 132 130 127 123 118 115 113 114 118 125 133 141 147 149 147 140 130 118 108 101 99 102 109 120 132 143 151 155 155 151 144 135 127 120 116 116 119 125 131 138 144 148 150 151 150 149 148 147 145 142 138 133 128 122 117 113 110 109 110 111 113 116 
124 125 127 129 130 132 133 133 131 129 126 124 122 121 121 121 121 119 117 114 112 111 111 114 119 125 132 139 144 147 148 147 144 141 138 135 133 130 128 124 119 115 110 107 107 110 117 127 138 148 155 158 155 146 134 120 108 100 97 99 107 119 132 144 152 155 154 150 142 133 125 120 117 118 122 128 135 141 146 149 150 150 149 148 147 145 143 140 136 132 127 123 120 118 118 119 120 122 123 124 
128 126 124 124 124 126 127 128 128 127 126 124 122 121 120 119 118 116 114 112 111 111 113 117 123 129 136 142 145 147 146 144 141 138 134 132 129 127 124 120 115 110 105 102 103 107 116 128 141 153 161 163 160 151 137 122 109 100 96 99 107 118 131 143 150 153 151 146 139 130 124 120 119 121 126 131 137 142 145 146 145 144 143 141 140 139 137 135 132 129 126 123 123 123 125 127 129 131 131 130 
129 125 121 119 118 119 121 124 125 126 126 124 123 121 119 117 116 114 113 112 112 114 117 122 127 134 139 143 145 144 142 138 134 130 128 126 125 123 121 118 113 108 103 100 101 106 115 128 142 154 162 165 162 153 139 124 110 101 97 100 108 119 131 141 147 149 146 141 134 127 122 120 121 124 129 134 138 141 141 139 137 134 132 131 131 130 130 129 128 126 125 124 125 127 131 134 137 137 136 133 
129 122 117 114 113 114 117 120 123 125 126 125 124 122 119 117 116 114 114 114 115 118 122 127 132 137 141 143 142 139 134 129 124 121 119 119 120 121 121 119 115 110 104 101 101 105 113 125 139 151 160 163 160 151 139 124 112 104 101 104 111 120 130 138 143 143 140 134 129 124 121 121 124 128 133 137 138 138 135 131 127 124 121 121 121 123 124 125 125 125 125 126 128 131 135 139 141 142 139 135 
128 120 114 110 109 110 114 118 123 126 127 127 126 123 121 119 117 117 117 118 120 123 127 132 137 140 142 141 138 132 126 119 114 111 111 113 116 120 122 122 119 114 109 104 102 104 111 121 134 145 153 156 154 147 136 124 114 107 106 109 116 124 131 136 138 136 133 128 123 121 121 123 127 132 136 138 138 135 130 124 118 114 112 112 115 118 121 124 125 126 127 128 130 134 138 142 144 144 141 135 
126 118 111 107 106 108 113 118 124 128 130 130 129 127 124 122 121 120 121 122 125 128 132 136 139 141 141 139 133 126 118 111 105 103 104 108 114 120 126 128 126 122 115 109 105 105 109 117 127 137 144 147 145 140 131 123 116 112 113 117 122 128 133 135 134 130 126 122 119 119 121 126 131 136 139 139 137 132 125 118 112 108 107 108 112 117 121 125 128 129 130 131 133 136 140 143 145 144 141 134 
126 117 111 107 106 109 114 120 126 131 134 134 133 131 129 127 126 125 126 127 129 132 135 138 140 141 140 136 130 122 113 105 100 98 100 106 114 123 130 135 134 130 123 115 109 106 107 112 120 127 133 136 135 131 125 120 117 117 120 125 130 134 135 134 130 125 120 117 116 118 122 129 135 139 141 140 136 129 121 114 108 105 105 108 113 119 125 129 132 133 134 134 136 138 141 144 145 144 140 134 
126 118 111 108 108 111 117 124 130 135 138 139 138 136 133 132 130 130 130 130 132 133 135 137 139 139 138 134 128 120 112 104 99 97 100 106 116 127 136 142 142 138 131 122 114 109 107 109 114 119 124 125 125 122 119 118 118 122 127 133 138 140 138 134 127 121 115 113 114 118 124 131 137 141 142 139 134 127 119 112 108 106 107 111 117 124 129 134 136 136 136 136 137 139 141 144 145 144 140 134 
126 119 113 110 111 115 121 128 135 140 142 142 141 139 137 135 134 133 132 132 132 133 133 135 136 137 136 133 128 121 113 106 101 99 102 109 119 131 141 147 149 145 137 128 119 112 109 109 111 115 117 117 116 115 114 115 119 125 133 140 144 144 141 134 125 117 112 111 113 118 126 133 139 142 141 138 132 125 118 112 109 109 111 116 122 128 133 136 137 137 136 136 136 138 141 143 144 144 140 134 
127 120 115 113 115 119 126 133 139 143 145 145 143 141 138 136 135 134 133 132 131 130 130 131 132 134 134 133 130 124 118 111 106 104 106 113 123 134 144 151 152 149 142 133 123 116 112 111 112 114 114 113 111 110 110 113 119 128 137 144 148 147 142 133 123 115 110 109 113 119 127 135 140 141 140 135 129 123 117 113 112 113 116 121 126 131 134 136 136 135 134 133 134 136 139 142 143 143 140 134 
127 120 116 115 117 122 129 136 141 145 146 145 142 140 137 135 133 132 131 130 128 127 126 127 129 131 133 134 133 129 123 117 112 109 111 116 125 135 145 151 153 150 143 135 127 120 117 116 117 117 116 114 110 108 108 112 119 129 139 147 150 148 142 132 121 113 108 108 113 120 128 135 139 140 137 132 127 121 117 115 115 117 120 123 127 130 132 132 131 129 128 128 129 132 136 140 142 142 139 133 
125 119 115 115 118 124 131 137 143 145 145 143 139 136 133 131 129 128 127 126 124 123 123 124 126 130 133 136 136 134 129 124 118 115 115 119 126 135 143 148 150 148 142 135 129 124 123 123 124 124 122 118 113 109 108 111 119 129 139 146 149 147 139 129 118 110 107 108 113 121 128 134 137 137 134 129 124 120 118 117 118 120 122 124 126 127 126 125 123 121 120 121 124 129 134 138 141 140 137 132 
122 116 113 113 116 123 130 137 142 144 143 139 135 130 127 124 123 123 122 122 121 120 121 122 125 130 134 138 139 138 134 129 123 118 117 119 125 132 139 143 145 143 139 134 129 127 128 130 132 132 130 125 118 113 111 112 119 128 137 144 147 144 136 126 115 108 106 108 113 121 128 133 135 133 130 125 122 119 118 119 121 122 124 124 123 121 119 116 114 113 113 116 120 126 132 137 140 139 135 129 
118 111 108 109 113 120 128 135 140 141 139 135 130 124 120 117 116 117 117 118 118 119 120 123 126 131 136 140 142 141 137 131 125 120 118 118 122 128 133 137 138 137 134 131 129 129 132 136 140 141 138 133 125 118 114 115 119 127 136 142 143 140 132 122 113 107 105 108 114 121 127 131 132 129 126 122 119 119 119 121 123 124 124 123 120 116 112 109 107 107 109 113 119 126 133 138 140 138 133 125 
113 106 103 103 108 116 124 132 137 139 136 131 125 119 114 111 111 111 113 115 117 119 122 125 129 134 138 141 143 141 137 131 125 119 116 116 119 123 128 131 132 131 129 127 127 130 135 141 145 147 145 139 132 124 118 117 121 127 134 139 140 136 129 120 112 107 107 110 116 122 127 129 129 126 122 119 118 119 121 124 126 126 125 122 117 113 108 105 104 105 108 114 122 130 136 141 141 138 131 122 
108 101 97 98 103 112 121 129 135 137 135 130 123 116 111 108 107 108 111 114 118 122 125 129 133 137 140 142 142 140 135 129 122 117 114 114 116 120 124 127 128 127 125 125 126 130 136 143 148 151 149 144 136 128 122 120 123 128 133 137 138 134 128 120 113 110 110 114 119 124 128 128 126 123 119 117 117 119 123 126 128 129 127 123 117 112 108 105 105 107 112 119 128 136 142 145 144 138 129 119 
105 97 93 94 100 108 119 128 134 137 135 130 123 116 110 107 106 107 110 115 120 125 130 134 137 140 142 142 140 136 131 124 118 114 112 112 115 119 123 125 126 125 124 123 125 129 135 142 148 150 149 145 137 130 125 123 125 129 134 137 138 135 129 122 117 115 116 120 124 128 129 128 124 120 117 115 117 120 125 129 131 132 129 125 120 114 111 109 110 114 120 128 136 143 148 150 147 140 129 116 
103 95 92 93 98 107 118 128 135 138 137 133 126 119 113 109 107 108 112 117 123 129 134 139 141 142 142 140 136 131 125 119 114 111 111 112 116 120 124 127 127 126 125 124 125 128 133 139 144 146 145 141 135 129 125 124 127 131 136 139 139 137 132 127 124 123 124 128 131 133 132 129 124 119 115 115 117 121 127 132 134 135 132 128 124 119 117 117 119 123 130 137 145 151 154 154 149 140 128 115 
104 96 93 94 100 109 120 130 137 141 141 137 131 124 117 113 111 111 115 120 126 133 138 142 144 144 141 137 131 125 119 114 111 110 111 114 119 124 128 131 131 130 128 126 125 127 130 134 138 139 138 134 130 126 124 125 128 133 139 142 142 140 137 134 131 132 134 136 138 138 136 130 124 118 115 115 118 123 129 134 137 138 136 132 128 126 124 125 128 133 139 146 152 156 158 156 150 140 128 115 
105 99 97 99 105 114 124 133 140 144 144 141 136 129 123 118 115 115 118 123 130 136 141 145 145 143 139 133 126 119 114 110 109 110 113 118 124 129 134 136 136 134 132 129 127 126 127 129 130 130 128 125 122 120 120 124 129 135 141 144 145 144 142 140 139 140 142 144 145 144 139 132 125 119 116 116 119 125 131 136 139 140 138 135 132 131 131 133 136 141 146 151 155 158 158 154 148 138 127 115 
109 105 104 107 113 121 129 137 143 146 147 144 140 134 128 123 120 120 122 127 132 138 143 145 145 141 135 128 121 114 110 108 108 111 116 123 129 135 139 141 141 139 135 132 128 126 125 124 122 121 118 115 114 114 116 122 129 136 142 146 147 146 145 143 144 145 148 150 150 147 142 134 126 120 117 118 122 128 133 138 140 140 139 136 134 133 134 137 140 144 148 152 154 154 153 149 143 134 125 116 
114 113 114 118 123 129 136 141 145 147 147 145 142 137 132 127 124 124 125 129 134 139 143 145 143 138 131 124 116 110 107 107 109 114 121 128 135 140 144 145 144 142 138 134 130 126 123 120 117 113 110 107 106 108 112 119 128 136 142 146 147 146 145 144 145 147 150 152 152 149 143 135 128 122 119 121 125 130 135 139 140 139 137 135 133 133 134 136 140 143 145 147 147 146 144 140 135 129 123 117 
119 121 124 129 133 137 141 144 146 146 146 144 141 137 133 130 127 127 128 131 136 140 143 143 140 135 127 119 112 108 106 107 112 118 126 133 139 144 146 146 145 142 139 135 131 127 123 118 114 109 105 102 101 104 109 117 126 135 141 144 144 142 141 140 141 144 147 150 150 147 142 135 128 123 122 124 128 133 137 140 139 137 134 131 129 128 130 132 134 136 138 138 136 134 131 128 125 122 120 119 
124 129 134 138 141 144 145 145 144 143 142 140 138 136 133 131 129 129 130 133 137 140 142 141 138 132 124 116 110 106 106 109 114 122 130 137 142 145 146 145 143 140 137 134 131 127 123 119 113 108 103 100 99 102 108 116 125 133 138 139 138 135 133 132 133 136 140 143 144 142 138 132 128 125 125 127 132 136 139 139 137 134 129 125 122 122 123 124 126 127 127 126 124 121 119 117 115 116 117 120 
128 135 141 144 147 147 145 143 140 138 136 135 134 133 131 130 129 129 131 134 137 140 141 139 135 129 121 113 108 105 106 110 117 125 132 139 143 144 144 142 139 136 133 131 130 128 125 121 116 110 105 102 101 103 109 116 124 131 134 134 131 127 123 121 122 125 129 133 135 135 132 129 126 125 127 130 135 138 140 139 135 129 123 118 115 114 115 116 118 118 118 116 113 111 109 108 108 111 116 122 
131 138 143 147 148 146 143 139 135 132 130 129 129 129 128 128 128 129 131 134 137 139 140 138 133 127 119 112 106 104 106 111 118 126 134 139 142 143 140 137 133 130 128 127 128 128 127 124 120 115 110 106 105 107 111 118 125 129 131 128 124 118 113 110 110 113 117 122 125 126 126 125 124 126 129 133 137 140 140 137 132 125 118 112 108 107 108 109 111 111 111 109 107 105 103 103 105 110 116 123 
131 138 142 145 145 142 139 134 130 127 125 124 125 125 126 126 127 128 130 133 136 138 139 137 132 126 118 111 106 104 106 111 118 126 133 139 141 140 137 132 128 125 123 123 125 127 128 128 125 121 116 113 111 112 116 121 126 129 128 124 118 111 105 101 101 103 107 112 116 118 120 121 122 125 130 134 138 140 139 135 128 121 113 107 104 103 104 106 108 109 109 108 106 105 104 105 107 111 117 124 
131 135 138 139 138 136 132 129 125 123 122 121 122 122 123 123 124 125 128 131 134 137 138 137 133 126 119 112 107 104 106 110 117 124 132 137 139 138 134 129 124 120 119 120 123 126 129 131 130 127 123 120 118 118 121 125 128 130 128 123 116 108 101 97 96 98 101 105 109 112 115 118 121 125 130 135 138 140 138 132 125 117 110 105 102 102 104 107 110 112 113 113 112 111 111 111 113 116 120 125 
128 130 131 131 130 128 126 124 122 121 120 120 121 121 120 120 120 121 123 127 131 134 137 137 134 129 122 115 109 106 105 109 115 122 129 135 137 137 133 128 123 118 117 117 121 125 130 133 134 132 130 127 125 124 126 129 131 132 129 124 117 109 103 98 97 97 100 103 107 110 113 117 121 125 131 135 138 138 135 130 122 115 109 105 104 105 108 112 116 119 121 122 122 122 121 121 122 123 124 126 
125 123 122 121 121 121 120 121 121 121 122 122 121 120 118 117 116 116 118 121 126 131 136 138 137 133 127 119 113 108 106 108 112 119 126 132 136 137 134 130 124 119 117 117 120 124 130 134 136 136 134 132 130 129 130 132 134 134 132 128 122 115 109 105 103 102 104 106 108 111 114 117 121 126 131 135 137 136 133 127 120 114 110 107 108 111 115 120 125 129 132 133 134 134 134 133 132 130 128 127 
122 118 115 114 114 115 118 120 122 124 125 125 123 120 117 113 111 110 111 115 121 128 134 139 140 138 133 126 118 112 108 107 110 116 123 130 136 138 137 133 127 122 118 118 119 124 129 134 137 138 137 135 133 132 132 134 136 137 136 133 129 124 119 116 113 112 112 112 113 114 116 119 123 128 132 135 136 134 130 125 119 114 112 112 115 119 125 130 135 139 142 144 145 145 144 143 140 136 131 126 
119 113 110 109 110 113 117 122 126 129 130 129 126 122 116 111 107 105 105 109 116 124 133 140 144 145 141 134 126 118 111 108 109 114 121 128 135 139 140 137 132 126 122 120 120 124 128 133 136 138 137 136 134 133 133 134 136 138 139 139 137 134 131 129 126 124 122 121 120 119 120 122 126 130 133 135 135 133 129 124 119 116 115 117 122 128 134 139 144 147 149 151 151 152 151 149 145 139 133 125 
117 111 108 107 110 114 120 126 131 135 136 134 130 124 117 109 104 101 101 104 111 121 132 142 148 151 149 143 134 124 116 110 109 112 119 127 134 140 142 140 136 131 125 122 122 124 128 132 136 137 137 135 133 131 131 132 134 137 140 142 143 143 142 141 138 136 132 129 126 124 124 125 128 132 135 136 136 133 128 124 120 118 119 123 129 135 141 146 149 151 152 153 153 153 152 150 146 140 133 124 
117 112 109 110 113 119 125 132 137 140 141 138 134 127 119 110 104 99 98 101 108 119 131 142 151 156 156 151 142 131 121 113 110 111 117 125 133 139 143 142 139 134 128 125 124 125 128 132 135 136 136 134 131 129 127 128 130 134 138 142 146 148 149 149 147 144 140 135 131 128 127 128 130 134 137 138 137 134 129 125 121 121 123 127 134 140 145 149 150 151 150 149 148 148 147 146 143 138 131 124 
119 115 114 115 119 124 131 137 141 144 144 142 138 131 123 114 106 101 99 100 106 117 129 142 153 159 160 157 148 138 126 117 112 111 115 122 130 137 141 142 139 135 130 126 125 126 129 132 135 136 135 132 128 125 123 123 125 128 133 139 144 148 151 152 152 148 144 138 133 129 128 129 132 136 139 140 139 135 131 126 123 123 125 130 136 142 146 147 147 145 142 140 139 139 139 139 137 134 129 124 
123 121 121 122 126 130 135 140 143 145 146 144 141 135 128 120 113 106 102 102 106 115 127 140 151 159 162 159 152 142 130 120 113 111 114 120 127 133 137 138 137 133 129 126 126 127 130 133 135 135 134 130 126 122 119 118 118 121 126 132 138 144 148 150 150 148 143 138 132 129 127 129 133 137 140 142 141 137 133 128 125 124 127 131 136 140 142 142 140 136 132 128 127 127 128 130 131 130 128 126 
128 128 129 130 132 135 138 140 142 143 144 144 143 140 135 129 121 114 108 106 108 114 124 136 147 156 159 158 152 143 132 121 114 111 113 117 123 129 132 133 132 129 127 125 125 127 130 133 135 135 133 129 125 120 116 113 113 115 118 124 130 136 141 144 144 143 139 134 129 126 126 128 132 137 141 143 142 139 134 130 126 125 126 129 133 136 136 134 130 124 119 116 115 116 119 122 126 128 129 129 
135 135 136 136 137 137 137 137 137 138 140 142 143 144 142 138 131 123 116 111 109 112 120 130 140 149 154 154 149 141 131 122 115 112 112 115 120 124 126 127 126 124 123 123 124 127 130 133 135 135 133 129 124 119 114 111 109 109 112 115 120 126 131 134 136 135 132 129 125 123 124 127 131 137 141 144 143 140 136 131 127 125 125 127 128 129 128 124 119 113 108 105 105 107 112 117 123 128 131 133 
141 142 142 141 139 136 133 131 129 130 132 137 142 145 147 145 140 132 123 115 111 111 115 123 132 140 145 146 143 137 129 122 116 113 112 114 117 120 121 121 120 119 119 120 122 125 129 132 134 134 133 129 125 120 115 112 109 107 108 109 112 116 121 124 126 127 126 123 121 121 122 125 130 135 140 143 143 140 136 131 127 125 123 123 123 122 119 115 110 104 100 98 99 103 109 116 123 130 135 139 
146 146 145 142 138 133 127 122 120 120 123 130 137 145 149 150 146 139 129 119 112 109 110 115 122 129 135 137 136 132 126 121 116 114 114 115 117 118 118 117 116 115 115 117 119 123 127 130 133 133 132 130 127 123 119 116 112 109 108 107 108 110 113 116 118 120 120 119 119 119 120 123 128 133 137 140 141 139 136 132 128 125 122 121 119 116 113 108 103 98 96 96 98 103 110 118 127 134 140 143 
148 148 146 142 136 128 120 114 110 110 114 121 131 141 148 151 149 143 133 122 113 108 106 109 114 120 126 128 128 126 123 120 117 116 116 117 118 118 117 116 114 113 113 114 117 121 125 128 130 131 131 131 129 127 125 122 119 115 112 109 107 107 109 111 113 116 117 118 118 118 119 122 125 129 133 136 137 137 135 132 129 126 123 120 117 113 108 104 99 96 95 97 101 107 115 123 131 138 143 147 
149 148 145 140 133 124 115 107 102 101 105 113 125 136 145 150 149 144 134 124 114 107 105 106 110 114 119 122 123 122 121 119 119 119 120 121 121 121 119 117 114 113 112 114 116 120 123 126 128 129 130 131 132 133 132 131 128 124 119 115 111 109 109 110 112 115 117 118 119 119 119 120 122 125 128 130 133 134 134 133 131 129 126 122 118 113 108 103 99 97 98 101 106 113 121 129 136 141 145 148 
146 145 142 137 130 121 111 103 97 96 99 107 118 130 140 146 147 143 135 125 116 109 106 106 108 112 116 118 120 120 120 120 121 122 124 126 126 125 123 120 117 115 114 115 116 119 122 124 126 128 130 132 135 137 139 139 137 134 128 123 118 114 113 113 115 118 120 121 121 121 119 118 118 119 121 124 127 130 133 134 135 134 131 127 122 116 110 106 102 102 103 107 113 120 127 133 138 142 144 146 
141 140 138 135 129 120 111 103 97 95 97 104 114 125 135 141 143 141 134 126 119 113 110 109 111 113 116 118 119 120 121 122 124 126 129 131 131 130 127 124 121 118 117 117 118 120 122 123 125 127 130 133 137 141 144 146 145 142 137 131 126 121 119 119 121 123 125 126 125 123 120 117 114 113 114 117 121 127 132 136 139 140 138 134 129 122 116 111 108 108 111 115 121 127 132 136 138 140 140 141 
133 134 134 133 129 122 114 106 100 97 98 103 112 122 131 138 140 139 135 129 123 118 115 115 116 118 119 120 121 122 123 124 127 130 133 135 135 134 132 128 125 122 120 120 121 122 123 125 126 128 130 134 138 143 147 149 149 147 143 138 133 129 126 126 128 130 132 132 130 126 120 115 110 108 108 111 116 123 131 138 144 146 145 142 136 130 124 119 116 116 119 123 128 132 135 136 135 134 133 133 
125 128 130 132 130 126 120 113 106 103 102 106 113 121 129 136 139 139 136 132 128 124 122 121 122 123 123 124 124 124 125 127 130 133 136 137 138 137 134 131 128 125 124 123 124 125 126 127 128 130 132 134 138 142 145 148 148 147 144 141 137 134 133 133 135 137 139 138 135 129 121 114 107 103 102 105 111 120 130 139 147 151 152 149 144 137 131 127 124 125 127 130 134 135 135 133 130 126 124 123 
117 122 127 131 133 131 126 120 114 110 109 111 116 123 130 136 140 141 139 136 133 130 128 127 127 127 127 126 126 127 128 129 132 135 137 139 139 137 135 132 129 127 126 126 127 129 130 131 132 133 134 135 136 138 140 142 143 142 141 139 138 137 138 139 142 144 145 144 139 132 123 113 105 99 98 100 107 116 128 139 148 154 155 153 149 143 137 133 131 132 134 136 138 137 134 129 123 118 115 114 
111 117 124 131 135 135 132 127 122 118 116 117 121 127 134 139 142 143 142 140 137 134 132 130 129 128 128 127 127 128 129 131 134 136 138 138 138 136 133 130 127 126 125 127 129 131 134 136 137 137 136 135 134 133 133 133 133 133 133 133 135 137 140 143 147 149 150 148 143 135 125 114 104 98 95 97 103 113 125 137 147 153 156 154 151 146 141 137 136 137 139 140 140 137 132 125 117 110 107 107 
107 115 123 131 137 138 137 132 127 123 122 123 126 132 137 142 145 146 145 143 139 135 132 129 127 126 126 126 127 128 130 133 135 137 138 137 136 133 130 127 124 123 123 125 129 133 136 139 141 140 139 135 132 128 124 122 120 121 122 125 129 134 139 145 150 153 154 151 146 137 127 115 105 98 94 96 101 110 122 133 143 150 152 151 148 144 140 138 138 139 141 142 141 137 130 122 113 106 102 103 
107 114 124 132 137 139 138 134 130 126 125 126 130 135 141 145 148 149 147 143 139 134 129 125 122 121 121 122 124 127 130 133 136 137 137 136 133 129 125 122 119 119 120 122 127 132 137 142 144 144 141 136 130 123 116 112 109 109 111 116 122 129 137 144 150 154 155 153 147 139 129 117 107 100 96 96 100 108 118 128 137 143 145 144 142 138 136 135 136 139 142 143 142 138 130 121 112 104 101 102 
109 117 125 133 137 139 137 133 128 125 124 126 131 137 143 147 149 149 147 142 136 130 124 119 116 114 115 117 121 125 130 134 136 137 137 134 130 126 121 118 115 114 115 119 124 130 137 142 145 146 143 137 129 120 111 105 101 100 103 108 116 125 134 142 148 152 153 151 147 140 131 121 111 104 100 99 102 108 115 123 130 134 135 134 132 130 129 129 132 136 140 143 142 138 131 122 113 107 103 104 
115 122 129 134 137 137 133 129 124 121 121 124 129 136 142 147 149 149 145 140 133 125 118 112 109 108 109 112 118 124 129 134 137 137 136 133 129 124 119 115 112 111 112 115 120 127 134 140 145 146 144 138 129 119 110 102 97 96 99 104 112 121 130 137 143 147 149 148 145 139 132 125 117 111 106 105 106 109 114 119 122 125 125 123 121 120 120 122 127 132 138 141 142 139 133 126 118 112 109 110 
123 128 133 137 137 134 129 123 118 115 116 119 125 132 139 144 147 146 143 137 129 121 113 107 104 103 105 109 116 122 129 134 137 137 135 132 128 123 118 114 112 110 110 113 117 123 130 136 142 144 143 139 131 121 112 104 99 97 99 104 111 118 126 132 137 140 142 142 140 138 134 129 124 119 115 113 112 113 115 116 117 117 115 113 111 110 112 115 121 128 135 140 142 141 136 130 124 119 117 119 
