P2
100 100
255
131 157 181 197 200 189 161 122 85 60 50 53 70 102 141 175 194 197 186 158 118 78 50 36 31 33 40 54 75 103 132 154 165 166 158 143 125 106 91 80 74 71 71 74 82 96 114 133 148 157 159 151 135 114 93 75 62 53 47 45 47 56 72 92 115 136 155 169 179 182 178 168 154 141 129 118 107 95 81 68 57 49 43 38 35 36 41 55 81 118 155 181 192 187 170 145 120 104 101 111 
169 187 201 207 202 182 146 103 67 45 37 41 56 85 126 163 187 193 183 157 119 81 55 42 38 40 48 62 80 101 121 135 141 138 131 122 113 107 104 104 104 102 97 92 88 88 93 102 114 126 137 143 144 138 127 114 100 86 72 60 53 51 55 64 77 94 113 134 155 172 183 186 185 180 173 164 150 129 104 78 57 42 33 28 26 27 32 46 70 106 144 173 187 187 177 161 145 137 140 152 
196 207 214 213 202 175 133 87 54 36 30 33 48 76 116 157 184 193 186 165 132 98 73 60 56 60 69 82 95 108 115 117 114 108 102 99 101 110 122 134 141 141 134 120 103 87 78 76 82 95 112 132 149 160 163 158 147 131 110 87 67 53 47 47 51 61 77 100 129 159 182 197 204 206 204 198 185 163 131 95 64 44 32 27 25 27 34 48 71 104 138 164 177 178 172 164 158 159 168 181 
209 218 221 216 201 169 122 77 46 31 27 31 46 75 116 157 185 196 193 177 152 125 103 92 90 96 105 115 121 122 115 103 91 81 76 78 90 111 138 162 176 179 170 151 123 93 71 59 59 69 89 118 150 176 190 193 188 174 151 119 87 61 45 38 37 42 53 74 107 145 179 201 214 219 220 217 207 187 155 114 77 51 37 32 32 36 46 61 84 111 137 154 160 159 154 150 153 163 179 195 
212 221 223 217 199 164 115 71 43 30 28 34 51 82 123 163 189 200 199 189 172 154 140 133 135 141 149 154 152 140 119 94 73 60 56 61 79 110 148 180 199 204 197 177 144 104 70 50 44 51 70 104 146 182 204 214 213 204 182 148 107 71 48 36 31 33 41 61 93 136 175 202 217 224 226 224 217 200 171 131 92 65 50 46 49 57 71 88 109 127 140 143 138 129 122 121 131 149 174 196 
208 220 222 215 196 159 110 68 43 33 33 43 63 96 137 172 193 202 201 195 185 175 170 169 174 180 186 186 178 157 124 89 62 47 42 48 68 104 149 188 210 218 214 196 162 116 74 47 37 40 57 92 139 183 210 223 225 219 200 167 123 80 52 37 31 31 39 57 89 132 172 200 215 223 225 223 217 202 178 144 109 84 73 72 80 93 110 128 141 148 144 131 112 96 87 87 99 124 156 187 
200 215 219 212 190 152 105 67 45 39 43 57 82 117 153 180 194 198 196 190 184 181 183 189 197 204 208 206 194 169 129 86 55 38 33 39 58 96 145 188 214 224 222 208 177 130 82 49 34 34 50 83 132 179 210 225 229 223 206 175 130 86 56 40 35 36 45 64 95 135 171 195 209 215 216 214 207 195 175 149 125 109 105 111 124 140 157 169 174 168 149 120 91 69 58 58 69 95 132 171 
188 208 213 205 182 144 100 67 51 49 58 79 108 140 167 183 188 185 177 170 167 169 178 191 204 213 218 216 203 176 133 86 52 34 28 32 50 86 137 185 214 226 226 215 188 143 92 55 36 34 46 78 126 175 207 223 226 220 203 171 127 86 60 47 45 50 62 83 111 144 171 188 196 198 196 192 185 174 160 146 135 133 139 152 167 182 194 199 197 182 152 112 75 51 40 39 48 71 109 153 
176 199 205 196 171 133 95 68 59 63 81 107 136 161 176 179 171 158 144 134 132 140 157 178 198 212 219 219 208 182 139 90 53 33 26 29 45 79 129 178 210 225 228 219 196 156 106 65 42 37 48 78 124 170 202 216 218 209 189 156 117 84 64 59 63 74 91 112 136 157 171 176 174 169 162 155 148 140 134 132 137 149 165 183 198 209 216 217 210 190 153 106 66 41 30 28 36 56 91 137 
166 190 195 183 156 120 88 71 70 83 108 137 162 176 177 166 145 122 103 92 91 101 123 152 181 203 215 217 209 186 147 99 60 37 28 30 44 75 123 172 206 222 227 221 203 169 122 80 55 47 57 84 126 167 194 205 203 189 165 132 101 79 71 76 91 110 131 149 163 170 169 160 145 130 118 109 103 101 104 113 132 156 180 200 214 223 227 226 216 193 152 101 60 36 25 24 31 49 82 126 
161 182 183 167 138 106 82 74 84 107 137 164 181 184 172 147 115 86 66 56 56 66 88 120 157 187 206 213 209 191 158 114 75 50 38 38 49 77 120 165 199 217 223 220 206 179 140 101 75 66 74 98 132 164 184 188 179 159 132 104 83 74 80 99 124 150 170 182 186 181 166 143 116 93 78 70 67 69 77 95 122 154 185 207 220 228 231 228 217 192 149 96 56 33 24 23 31 48 80 123 
161 176 172 151 120 92 77 80 99 130 162 185 194 187 163 126 88 59 42 35 35 44 62 91 129 166 192 205 206 195 171 136 100 73 58 55 63 85 120 159 189 206 214 213 203 184 155 124 101 93 99 118 143 163 171 165 148 123 97 77 67 71 90 121 155 182 198 205 202 189 164 129 95 69 54 47 46 51 61 81 110 147 181 205 220 228 230 227 215 188 143 91 53 33 25 26 34 54 87 127 
165 173 162 135 104 81 74 86 114 150 181 199 201 186 153 109 69 43 29 24 25 32 46 70 105 143 174 193 200 197 183 160 133 109 93 86 88 101 123 150 172 187 195 197 192 181 163 143 129 124 129 141 154 161 157 141 116 90 69 57 57 70 99 138 176 202 215 217 211 193 163 123 85 59 45 40 40 45 55 72 100 135 169 196 213 222 225 222 208 180 134 86 51 33 27 30 42 65 100 138 
172 172 152 121 91 73 73 92 127 166 194 207 205 185 146 97 58 35 24 21 23 29 40 59 87 120 152 175 189 193 190 181 166 151 137 127 121 121 127 136 147 156 163 167 168 166 161 155 151 151 155 160 163 158 143 119 91 68 52 46 51 70 104 148 186 210 221 221 213 195 164 125 87 62 49 45 46 49 57 70 90 119 150 177 197 209 214 211 197 168 124 80 49 34 31 38 54 83 120 153 
179 170 144 109 80 66 71 96 136 176 202 213 207 184 142 93 54 33 25 24 27 33 43 57 77 102 128 151 169 182 189 192 190 184 176 166 154 140 128 119 115 116 120 126 132 140 148 155 162 167 171 172 167 154 131 104 77 57 46 43 50 70 105 148 185 208 218 218 210 194 167 132 100 78 67 64 64 65 67 72 83 101 124 148 170 186 194 194 181 153 114 75 50 38 38 49 71 105 141 169 
184 167 134 97 70 61 69 97 140 181 206 215 208 185 144 95 58 38 31 32 38 46 55 64 75 89 104 122 140 159 177 192 200 203 201 192 176 153 125 100 85 78 78 83 94 109 128 147 163 173 177 175 165 148 123 97 74 58 49 48 55 73 103 140 173 195 205 206 199 186 167 143 121 107 100 97 95 91 85 79 78 84 96 113 133 151 165 170 161 139 106 75 54 46 50 66 94 130 162 182 
185 161 124 87 62 55 65 94 137 179 205 214 208 187 149 104 69 51 47 51 61 71 79 82 83 82 85 93 107 129 155 180 200 210 213 206 188 157 118 83 61 51 49 53 65 83 108 135 157 170 173 169 157 139 119 98 82 71 64 63 68 80 100 126 151 168 177 179 176 170 161 152 145 141 140 140 135 124 108 90 76 69 71 80 95 114 132 143 143 129 106 82 67 62 69 90 120 154 179 191 
184 155 114 77 55 49 59 86 127 169 197 208 205 187 156 119 90 76 76 85 98 110 115 110 97 82 72 69 76 95 125 160 190 209 215 210 190 154 109 70 46 35 33 37 49 68 96 126 149 162 163 156 143 129 116 107 100 96 93 91 91 93 100 110 121 130 136 139 141 144 149 156 164 171 176 177 171 155 129 99 74 59 54 57 67 84 105 124 133 130 117 101 89 88 98 119 148 174 192 196 
182 150 107 71 49 44 52 74 110 149 180 195 196 184 162 136 117 110 116 130 145 156 155 141 115 86 64 52 53 67 96 135 174 201 212 208 186 147 99 60 38 28 27 32 45 66 95 124 145 153 148 137 125 117 115 119 125 131 133 131 124 115 104 96 92 90 91 94 100 113 132 154 175 191 200 202 194 174 142 103 72 52 44 44 52 69 92 118 136 143 138 129 122 122 132 150 172 190 200 198 
182 148 105 68 47 40 44 61 88 122 152 170 177 173 163 151 144 147 158 172 186 192 187 166 130 90 59 42 39 48 72 112 156 190 205 202 179 138 89 53 33 26 27 35 51 76 106 132 147 146 134 118 105 103 112 130 150 165 172 170 159 140 115 90 72 61 57 59 68 86 115 151 181 202 212 213 204 181 144 101 67 47 38 39 47 66 94 125 150 162 165 161 156 156 163 176 190 201 205 200 
184 152 110 72 48 38 39 48 66 91 116 136 149 155 157 159 164 174 187 201 210 213 204 180 139 91 55 36 30 36 57 95 142 180 198 195 171 129 82 49 33 28 33 47 69 99 130 150 156 145 123 100 87 89 106 135 166 189 200 199 188 164 128 90 62 45 38 39 49 70 105 148 184 207 217 216 204 177 136 93 60 42 36 38 50 73 106 141 168 183 187 185 181 180 184 191 200 207 208 202 
190 162 122 83 56 41 37 40 50 65 82 100 116 131 145 160 175 190 204 215 221 221 211 184 140 90 53 33 27 32 51 87 134 173 193 190 165 122 78 48 36 36 47 69 100 133 160 173 169 147 116 87 72 75 97 134 173 201 215 216 206 182 142 96 59 39 30 30 40 63 101 148 187 209 217 213 197 165 121 80 52 39 36 42 58 87 124 160 185 197 200 197 193 190 192 196 203 208 210 205 
198 176 142 103 70 50 39 37 40 48 58 72 89 109 132 157 179 197 211 220 224 222 210 181 135 86 51 33 28 34 54 90 136 173 191 187 161 119 78 52 43 49 69 101 138 170 189 194 182 153 112 77 60 62 85 125 170 204 221 225 217 195 155 104 62 38 28 28 39 64 105 153 190 210 214 206 183 146 102 67 45 37 38 48 71 104 143 176 195 203 202 196 189 185 185 190 198 205 210 208 
205 191 165 130 94 66 48 40 38 40 47 58 74 97 125 154 179 198 211 219 221 217 201 171 126 81 50 36 34 44 67 105 148 180 194 187 160 119 80 59 55 70 99 138 174 199 211 210 193 158 111 71 51 51 71 111 160 199 221 227 222 203 165 114 68 41 30 31 43 70 113 160 193 209 209 194 165 124 83 55 40 37 43 59 87 123 159 185 197 198 191 180 169 162 162 170 182 195 205 209 
210 204 187 158 123 90 65 50 44 43 48 58 74 98 127 156 180 196 207 212 211 203 185 154 113 76 53 45 48 64 92 130 167 191 199 188 160 120 85 67 71 93 131 171 201 219 225 220 200 162 111 67 45 42 58 94 144 189 216 226 224 208 174 124 76 47 35 36 51 81 124 167 195 205 200 179 143 102 68 47 39 41 53 75 106 141 170 185 188 179 164 146 131 123 124 135 153 175 194 206 
208 210 202 183 153 120 90 70 59 57 62 73 90 113 139 162 180 191 196 196 191 180 159 130 99 74 61 61 73 96 127 161 188 203 204 189 159 120 88 75 84 114 156 193 218 230 232 225 205 165 111 65 40 35 46 77 125 174 207 222 223 210 180 133 85 54 42 44 61 93 136 173 195 199 187 159 121 84 58 45 44 52 69 96 128 156 174 177 168 148 125 103 88 80 82 94 116 145 174 196 
200 210 209 198 177 148 119 97 86 84 90 103 120 139 158 171 179 180 177 169 159 144 125 103 84 74 75 87 108 136 165 189 206 212 206 187 154 115 86 78 92 127 170 205 225 235 235 228 207 166 111 63 37 29 37 61 104 155 194 215 220 210 183 140 95 63 50 54 72 105 144 175 190 188 170 139 103 73 55 50 56 71 95 124 151 169 173 163 140 112 85 65 52 47 49 59 80 110 146 179 
184 202 207 203 189 168 145 127 119 120 129 142 156 169 178 180 176 165 149 133 117 102 89 78 73 77 92 117 146 173 195 210 217 216 204 179 142 103 78 73 90 127 171 206 226 235 236 228 207 167 111 63 36 26 30 49 85 135 179 206 214 207 184 145 102 72 59 63 82 113 147 172 180 173 151 121 91 70 62 66 80 102 128 154 172 179 171 147 114 81 56 40 31 28 30 37 53 79 115 154 
160 184 196 196 187 173 159 149 148 154 165 177 187 193 193 186 169 145 118 96 79 67 60 59 65 82 111 145 177 200 214 222 222 215 197 165 124 87 66 63 79 115 159 196 220 231 233 226 206 167 112 64 36 25 27 41 72 118 164 195 207 202 181 146 107 79 67 72 90 117 144 162 165 154 133 108 88 78 81 93 114 139 163 181 190 187 169 136 95 61 39 27 21 19 20 25 36 56 86 124 
131 158 173 176 171 163 156 155 162 175 189 200 207 208 203 187 160 125 91 66 51 44 42 46 60 87 126 166 197 215 224 226 222 209 183 145 102 69 52 50 64 94 136 176 205 221 226 221 203 166 114 67 39 27 27 39 66 108 153 185 199 195 176 144 108 83 73 77 93 115 136 148 147 136 120 104 96 97 109 129 152 174 191 201 203 193 169 131 88 54 33 23 18 16 17 20 28 42 65 97 
106 128 142 145 141 137 136 144 159 179 197 209 216 215 206 185 150 108 72 48 36 31 32 40 58 92 137 179 208 222 228 226 217 197 163 120 80 53 40 39 48 71 106 146 180 202 212 211 196 164 118 74 47 34 34 44 69 107 149 178 191 186 167 137 105 83 75 79 92 109 124 132 131 123 114 110 113 125 143 164 184 199 209 213 210 198 174 136 93 59 37 26 21 19 19 22 27 37 54 78 
91 105 112 111 106 103 106 119 141 168 192 208 216 215 204 179 140 95 60 38 28 25 27 37 59 96 144 186 212 224 227 221 206 179 138 95 61 40 31 30 36 51 76 110 145 173 189 194 184 159 123 86 62 50 50 61 85 119 153 177 185 177 156 126 98 80 74 78 88 102 113 119 120 118 118 124 136 153 173 190 204 213 217 218 213 202 180 147 109 75 53 40 33 30 29 31 35 43 56 73 
92 96 94 87 78 74 77 90 114 144 173 195 206 207 196 170 130 87 54 35 26 24 27 39 63 102 150 190 213 222 221 211 189 154 112 73 47 33 26 26 29 39 55 78 107 136 157 168 167 153 129 104 86 78 80 92 114 141 166 180 181 168 144 114 90 75 71 75 85 96 106 113 118 122 130 143 159 177 193 205 212 216 217 215 210 201 185 162 133 105 84 69 60 55 53 54 57 63 72 83 
110 105 93 78 65 57 57 66 85 113 144 170 186 190 181 158 122 84 55 38 30 29 33 46 72 112 157 192 210 216 211 194 165 126 86 56 38 29 26 26 28 34 43 58 78 101 122 137 145 143 136 126 118 117 122 134 150 168 181 185 178 159 132 103 81 70 68 73 83 94 105 114 123 133 146 161 177 191 201 208 210 209 206 201 197 192 185 174 159 143 127 115 106 100 96 95 97 101 106 110 
141 127 107 84 65 52 47 51 63 83 109 134 154 163 159 143 116 87 64 50 43 42 48 63 90 128 165 192 205 205 193 170 136 98 66 45 34 30 29 31 34 38 44 52 64 78 93 109 122 132 139 144 150 156 164 173 183 192 195 191 176 152 121 93 74 66 67 74 84 97 110 121 133 146 160 174 186 195 199 198 194 187 179 173 170 170 173 177 177 175 171 165 160 155 151 149 148 149 149 147 
171 155 131 104 78 59 48 45 49 60 77 97 115 128 133 128 116 99 84 74 69 69 77 93 118 148 174 191 195 187 168 138 104 73 51 40 35 36 41 46 51 56 59 62 66 70 78 88 102 118 137 155 170 183 193 200 205 206 203 193 173 144 112 86 70 65 69 78 91 105 119 131 144 156 168 178 185 187 183 175 162 148 136 128 128 135 150 168 184 195 200 201 200 197 194 191 189 187 185 181 
192 179 158 132 103 77 59 49 45 48 56 68 82 97 109 118 122 121 117 113 111 113 120 132 150 168 181 186 179 162 136 105 76 55 44 40 43 52 63 75 85 91 92 89 84 79 76 78 87 104 127 153 177 194 205 212 214 212 204 190 166 136 105 83 71 70 77 88 102 117 130 141 150 159 167 171 171 166 154 137 119 101 88 81 83 95 119 150 180 202 214 219 221 219 217 214 211 208 204 200 
200 193 180 160 134 107 82 63 51 45 45 50 60 75 94 115 134 147 154 157 158 160 164 170 178 183 183 175 158 132 103 76 56 45 42 47 60 79 100 120 134 140 139 131 117 99 84 76 77 90 112 141 170 191 205 211 212 208 197 180 155 126 101 84 79 82 92 105 119 131 140 146 150 153 154 152 146 134 116 96 77 61 51 46 49 62 88 127 168 199 217 225 228 226 223 219 214 210 207 204 
195 196 193 183 165 142 114 87 66 51 44 43 49 63 87 118 149 172 185 192 195 195 196 196 195 190 179 160 133 103 76 56 44 41 46 61 85 115 144 167 181 187 184 173 152 126 98 79 71 77 95 122 151 175 191 198 198 192 179 161 138 115 99 92 94 103 116 129 139 145 147 145 141 137 132 125 114 99 82 64 49 38 31 28 31 42 66 106 152 190 213 223 225 222 216 209 201 195 193 193 
176 188 196 197 190 174 150 120 91 66 51 44 47 60 86 123 161 189 205 212 215 214 212 207 200 187 167 140 109 80 58 45 40 44 57 82 116 152 182 202 212 215 212 201 180 149 113 85 69 68 79 100 126 149 165 172 171 163 149 132 116 104 100 104 115 130 144 154 159 157 149 138 126 115 106 97 86 73 59 46 35 27 22 21 23 33 53 89 136 177 202 212 213 206 195 182 169 162 160 166 
146 170 190 202 204 197 181 155 122 89 65 52 51 63 90 130 170 199 215 221 223 220 215 207 195 176 151 120 90 66 50 43 44 53 75 108 147 182 206 221 227 229 225 215 195 163 125 91 70 64 70 84 103 120 131 135 131 122 111 100 93 94 103 120 141 159 171 177 176 166 148 127 108 93 83 75 67 58 49 40 32 26 22 21 23 32 49 81 122 161 184 192 188 175 156 137 121 113 114 125 
111 146 179 201 212 212 203 183 153 118 86 65 59 69 95 134 174 201 216 222 221 217 209 197 180 158 131 103 79 62 52 50 56 72 99 136 173 201 219 229 232 232 227 217 198 167 130 97 76 69 71 80 91 99 102 99 92 84 76 72 75 87 110 138 164 183 193 194 187 170 144 115 91 75 67 62 60 56 52 46 40 34 31 29 31 39 55 81 115 145 161 162 151 131 108 88 74 67 70 85 
84 123 165 197 214 219 216 203 179 145 110 83 71 76 99 135 171 196 210 213 211 203 190 175 156 134 113 93 78 69 66 69 79 99 129 162 191 212 224 229 230 228 221 209 189 161 130 103 88 83 86 91 94 93 86 76 66 57 53 54 63 84 117 153 182 200 207 205 194 171 138 104 78 64 59 60 64 67 68 66 61 56 51 49 51 58 72 92 115 132 137 128 110 88 68 52 42 39 43 56 
67 107 153 191 212 221 222 213 196 167 132 101 84 83 100 128 159 181 192 194 187 175 159 142 126 111 101 94 90 90 93 100 113 133 158 183 202 215 222 223 221 215 205 190 169 146 125 111 106 109 115 118 115 104 87 68 53 43 40 43 56 83 123 165 195 211 216 211 197 169 131 94 69 58 58 66 79 91 99 102 99 94 89 86 87 93 103 115 125 126 117 99 78 58 43 33 27 26 30 42 
60 97 144 183 208 220 222 217 204 180 148 115 94 87 96 115 137 154 162 160 150 135 120 106 98 95 98 105 114 122 130 139 151 165 181 195 206 212 213 210 202 190 175 156 138 123 116 119 129 142 152 155 148 129 101 72 50 38 34 38 53 83 128 172 202 217 220 214 197 165 124 87 64 58 64 81 103 125 140 148 148 145 140 136 135 137 141 144 140 128 107 82 60 43 32 25 22 22 27 38 
60 93 135 174 200 213 217 214 203 183 154 123 99 87 88 97 110 119 122 117 106 94 83 78 80 90 106 126 143 157 166 173 180 186 193 198 201 200 194 184 170 151 131 114 101 98 106 126 151 173 186 190 181 159 124 85 54 37 31 35 51 83 131 177 206 220 222 214 194 160 117 82 63 61 74 100 132 159 178 187 189 187 183 180 177 176 174 169 156 133 104 75 53 38 30 26 25 26 31 41 
67 93 127 160 184 198 203 202 193 176 151 122 98 83 78 80 84 86 85 79 71 64 60 63 74 95 123 150 171 184 191 194 194 194 192 190 185 177 164 147 127 106 87 74 70 77 98 132 168 195 210 213 206 184 147 101 62 40 31 34 50 84 132 178 208 220 221 211 189 152 110 78 63 67 88 120 156 184 201 209 211 210 207 204 201 198 194 184 166 139 106 76 55 42 36 35 35 38 43 51 
80 96 117 140 159 171 178 178 172 159 139 115 94 79 71 67 65 63 60 55 51 48 50 60 81 110 143 172 191 200 203 200 194 186 178 169 158 144 127 107 87 69 56 48 50 63 93 136 179 208 223 227 221 202 166 116 71 43 32 34 50 84 133 178 207 218 218 205 180 142 103 75 67 76 102 138 173 197 211 216 217 215 212 209 207 204 198 188 170 144 112 84 65 55 52 53 56 60 65 71 
99 101 106 115 125 133 140 143 142 135 123 107 91 78 68 62 57 52 48 45 43 45 53 69 96 131 164 188 201 205 201 192 179 164 150 137 123 109 94 77 61 48 39 35 40 56 89 137 184 215 230 234 229 212 178 128 79 48 35 36 53 87 134 178 204 214 211 195 167 130 96 75 72 87 117 152 182 201 209 211 209 205 202 199 197 195 191 183 168 146 121 100 86 80 81 86 92 97 100 100 
120 106 95 91 91 94 100 106 111 113 111 104 94 84 74 65 57 51 47 45 46 52 65 88 119 153 180 196 202 198 187 169 150 130 114 102 92 83 74 62 51 41 34 31 36 52 86 135 184 215 231 236 232 216 184 135 85 52 39 41 58 93 138 177 200 206 199 180 150 116 89 77 82 102 132 162 184 196 198 194 187 180 175 172 172 173 173 170 162 149 133 121 115 116 122 131 139 143 141 133 
137 110 86 72 65 65 70 79 90 101 109 111 107 99 89 78 68 60 55 54 58 68 86 113 144 172 190 198 195 182 160 135 112 93 81 74 72 72 70 64 56 46 38 34 37 50 81 128 177 211 228 233 229 215 184 137 89 58 46 50 70 104 145 178 194 195 183 159 130 102 85 83 95 119 147 169 182 183 176 163 150 139 133 132 136 142 149 153 154 151 146 144 146 153 162 172 180 182 176 161 
148 111 79 59 50 50 55 68 85 104 120 130 131 126 116 103 91 80 74 74 80 93 115 141 167 186 195 193 179 156 126 98 76 63 58 60 66 76 82 82 75 63 51 42 41 50 74 116 162 198 218 225 221 206 176 133 91 65 57 66 89 122 156 179 186 179 160 134 108 90 84 93 113 139 162 175 177 166 147 125 107 95 90 92 100 112 126 138 147 153 157 163 170 180 191 200 205 205 197 179 
151 109 74 53 44 45 53 71 95 121 142 156 160 157 149 136 122 110 102 101 108 123 143 165 183 193 193 182 159 126 94 68 52 45 46 56 73 93 110 116 110 94 74 57 48 50 67 99 139 175 198 206 203 187 159 123 91 74 75 90 116 145 169 180 177 160 134 108 88 81 87 107 134 159 176 180 171 149 119 92 73 62 60 65 76 92 111 129 144 155 165 174 185 196 205 213 217 216 207 186 
148 105 70 50 43 47 61 85 116 146 169 182 187 185 178 166 153 140 132 130 135 148 164 180 191 195 188 169 138 101 69 49 38 37 44 61 89 121 146 157 153 134 107 80 61 53 60 80 110 142 164 174 171 156 133 107 90 86 97 119 146 169 181 180 165 138 109 85 73 76 94 123 154 178 189 185 167 136 100 71 53 46 47 54 68 86 106 126 142 155 166 177 189 200 210 217 220 218 208 185 
141 98 66 50 47 56 77 109 144 173 192 202 205 203 196 186 174 161 151 148 151 161 174 186 193 192 181 157 122 85 56 39 33 35 47 72 109 149 178 191 189 172 143 108 78 60 56 65 83 104 122 130 128 117 103 91 88 99 121 149 173 188 189 177 151 117 87 68 64 75 102 139 172 193 199 191 167 130 91 62 47 43 46 56 70 89 108 126 139 150 159 171 184 197 208 215 218 216 204 180 
131 91 63 51 53 68 97 135 170 194 208 214 215 211 204 193 179 165 154 148 150 159 171 182 189 188 176 151 116 80 53 38 33 38 54 85 129 172 200 213 212 198 172 135 98 71 57 56 64 75 85 89 88 82 76 76 87 110 142 172 192 199 192 170 135 98 70 56 58 76 110 151 185 203 206 195 169 130 90 63 50 47 53 64 80 96 111 123 130 135 142 153 169 185 200 210 214 211 198 171 
119 82 59 52 59 81 116 157 189 209 218 220 218 211 201 186 169 151 138 131 133 142 156 171 181 183 174 153 120 86 59 44 39 44 63 97 144 186 212 223 223 212 191 157 118 86 66 57 57 61 64 64 62 60 60 68 87 119 156 185 201 202 188 158 117 80 57 48 54 77 115 159 192 208 210 198 171 133 95 69 58 58 65 76 90 102 110 113 112 112 116 127 145 168 188 202 208 204 189 159 
106 73 55 52 63 89 130 171 200 216 222 221 215 203 187 166 143 123 109 102 105 116 134 155 172 180 177 162 135 103 74 56 48 53 71 106 151 190 214 224 225 217 200 173 138 105 82 70 65 63 61 57 53 50 53 64 89 125 164 191 202 198 177 141 99 65 47 42 51 76 116 160 193 208 209 196 171 136 102 79 70 72 79 89 97 102 102 97 90 85 87 98 119 148 175 193 201 196 178 145 
92 64 50 49 63 92 134 176 204 218 221 217 205 187 162 134 108 89 77 73 77 90 112 139 164 179 184 176 156 127 97 74 61 62 77 109 150 186 209 219 221 215 202 181 154 127 107 94 87 81 74 66 58 53 54 66 91 129 166 190 197 188 161 121 81 53 39 38 49 73 112 155 186 201 201 188 165 134 107 90 84 87 93 99 100 97 88 78 68 62 63 75 99 132 164 186 195 188 166 131 
80 55 44 45 59 88 130 172 201 214 216 208 190 163 130 99 75 60 52 50 56 70 96 129 161 182 192 191 178 154 123 95 75 70 80 104 139 172 194 206 208 204 195 181 164 148 136 128 122 115 104 90 75 65 63 73 97 131 164 185 188 173 142 101 66 44 35 36 47 70 105 144 173 186 184 171 150 127 108 99 98 102 106 105 99 87 74 61 51 47 49 63 89 125 161 184 191 182 156 117 
70 48 38 39 52 78 118 162 193 207 207 195 170 134 98 69 51 41 37 38 45 61 89 127 163 188 201 203 194 175 145 113 87 75 77 93 120 148 169 182 186 185 180 174 168 164 162 162 160 154 142 124 103 86 79 85 105 134 162 178 178 159 125 87 56 39 34 36 47 68 98 129 152 161 157 144 128 113 105 105 111 117 118 111 97 79 63 50 42 40 46 63 93 131 166 187 191 178 148 107 
63 42 33 34 44 67 104 147 180 197 196 180 148 108 73 49 36 30 29 32 42 61 93 133 170 195 208 211 204 186 157 122 92 75 71 79 96 117 136 148 154 156 157 159 164 171 179 186 189 186 176 158 134 112 99 100 115 140 162 174 170 150 117 82 56 42 38 42 53 71 93 114 128 130 123 112 102 97 100 110 123 131 130 118 98 76 57 45 40 42 53 76 110 148 179 195 195 177 142 98 
57 37 29 29 37 57 90 132 168 186 185 166 130 90 58 38 29 26 27 32 45 69 104 146 181 202 213 214 206 188 158 122 90 71 63 66 77 91 104 115 121 125 131 141 155 171 186 198 204 204 196 180 157 133 117 115 127 147 165 174 169 150 121 89 67 55 53 58 69 83 97 106 108 102 92 83 79 83 96 116 135 146 145 130 106 81 62 51 49 56 73 102 138 171 195 204 200 178 139 93 
53 34 26 26 33 51 81 122 159 179 178 157 121 81 51 34 27 25 28 37 54 83 123 162 191 208 214 212 201 179 147 111 82 64 57 59 66 75 85 93 98 103 111 125 144 166 186 200 208 208 201 187 165 143 128 126 137 155 171 179 176 161 137 112 92 83 82 88 98 107 111 108 98 83 71 63 64 75 97 124 149 163 162 148 123 97 78 68 70 83 107 138 170 195 210 213 204 179 136 88 
51 33 26 26 33 50 81 121 157 177 177 157 121 81 52 35 29 28 34 47 71 105 145 179 201 211 212 204 187 161 127 95 71 59 55 59 66 76 84 90 93 97 104 117 137 159 179 193 201 200 193 178 157 138 127 129 143 162 179 187 187 178 162 145 131 124 125 131 138 140 135 120 98 76 60 54 58 75 103 136 164 178 179 167 146 123 105 99 104 121 146 174 197 212 220 219 207 178 133 85 
50 34 28 29 39 58 90 130 164 183 183 164 130 91 60 42 35 37 46 64 94 131 166 192 206 210 204 189 165 134 102 77 62 56 59 68 80 92 101 106 107 108 111 119 133 150 167 178 182 180 169 153 135 120 115 124 143 166 185 196 198 194 186 177 169 167 169 173 176 173 161 138 107 78 60 54 60 81 114 150 177 192 193 185 169 151 138 135 143 160 180 200 214 223 225 221 206 175 129 82 
52 38 35 39 52 76 110 147 177 192 192 176 146 109 77 57 49 52 65 89 122 157 185 202 208 204 190 166 136 104 78 62 55 59 70 88 107 123 134 137 136 132 128 129 133 141 149 154 153 146 134 118 103 95 97 113 138 167 189 202 207 206 203 199 196 196 199 201 202 197 182 156 121 88 67 61 71 95 130 164 189 201 203 196 184 172 163 163 171 185 200 213 222 226 225 217 199 166 122 80 
56 48 49 58 77 104 138 170 192 203 202 189 165 132 100 78 70 75 93 120 152 180 199 207 205 193 169 138 104 77 59 51 54 66 88 115 141 160 169 171 167 159 149 141 135 131 129 125 118 108 95 83 74 71 79 99 130 163 188 203 210 211 210 209 208 210 213 215 214 209 195 170 136 103 82 77 89 115 148 178 197 205 205 198 188 177 171 172 180 192 204 213 218 219 216 205 184 152 112 77 
65 65 73 90 113 140 168 191 205 211 209 199 180 153 125 105 98 106 125 151 177 196 207 208 198 177 144 108 77 56 46 46 56 78 110 145 173 190 197 197 191 180 166 150 134 121 109 99 88 77 66 58 53 54 64 86 119 154 182 198 205 207 206 206 207 209 212 215 215 210 198 177 148 120 102 100 113 138 166 188 200 203 198 188 176 165 159 161 169 180 190 198 202 201 194 181 159 130 100 77 
80 91 108 129 153 175 193 206 213 215 212 204 188 167 145 129 125 135 154 176 194 206 210 205 188 158 119 82 56 42 38 44 60 90 130 168 195 209 213 211 204 191 174 152 130 110 94 80 68 58 50 44 42 45 55 75 106 140 168 184 191 191 189 188 189 192 197 201 202 200 191 175 154 135 124 126 140 160 179 192 196 192 181 165 149 136 129 130 137 147 157 164 167 165 157 144 126 105 89 80 
100 121 144 166 185 199 208 213 215 214 210 201 187 169 152 141 141 152 171 189 203 210 210 200 177 140 98 64 43 34 34 43 64 100 145 183 207 218 220 216 207 192 171 146 121 100 83 70 59 51 44 40 38 41 51 68 94 123 147 160 163 160 156 152 153 157 163 169 174 174 170 162 151 144 143 150 163 177 187 190 185 171 152 130 110 97 90 90 96 104 112 117 119 117 111 101 91 83 80 86 
119 147 172 191 203 210 213 214 211 207 199 188 173 157 143 137 141 154 173 191 204 210 208 195 168 127 84 53 36 30 32 43 66 105 152 190 212 221 221 214 202 182 158 131 107 89 76 67 59 52 46 42 41 44 52 66 86 107 123 129 127 119 111 105 104 108 115 123 130 134 137 137 139 144 154 166 178 186 188 181 165 142 116 92 74 63 58 58 62 67 72 76 77 76 73 69 67 69 77 94 
133 163 186 200 207 210 209 205 199 190 179 164 148 132 121 118 124 140 162 183 198 206 204 191 162 121 78 49 33 28 31 42 65 105 152 190 212 219 217 207 190 165 137 111 92 80 73 70 66 62 57 53 51 53 60 71 85 98 104 102 93 82 72 65 63 65 70 77 84 91 98 108 121 138 157 174 185 189 183 166 140 110 83 62 49 42 40 40 43 47 50 53 54 54 53 54 57 65 80 104 
139 165 184 194 198 197 192 185 176 163 149 132 115 101 92 90 98 115 138 163 184 197 199 188 162 123 81 51 35 28 30 40 62 100 146 185 207 214 210 196 172 142 112 89 77 73 75 79 82 81 78 74 72 73 77 86 94 100 98 89 74 60 49 42 39 40 42 47 52 59 68 81 102 128 155 176 187 186 172 147 114 83 59 44 36 33 33 36 40 44 48 50 52 53 53 55 60 70 87 111 
136 154 166 172 173 169 163 154 144 131 116 100 86 74 67 65 71 85 108 136 164 184 193 189 168 134 94 61 41 32 31 38 57 91 136 176 199 207 201 183 154 119 89 72 66 71 82 95 106 111 110 107 104 103 106 111 115 115 107 91 73 56 43 35 30 29 30 32 35 40 49 64 87 119 151 174 184 179 159 127 92 64 46 36 33 34 38 44 51 58 64 68 70 71 72 74 78 85 98 115 
124 130 135 136 134 130 125 119 112 104 93 80 68 58 51 48 51 61 79 106 139 168 186 190 179 152 115 80 54 39 34 38 53 82 123 163 190 199 193 172 139 102 75 61 62 73 93 115 134 144 147 145 141 139 140 142 143 140 129 110 89 68 52 40 34 30 28 28 29 33 41 55 79 113 147 171 178 170 145 110 77 54 41 36 38 45 55 68 81 92 101 107 110 110 110 109 108 109 111 117 
107 102 98 95 93 91 91 92 93 91 85 76 65 53 45 40 39 45 58 81 114 151 179 193 191 174 144 108 76 53 41 40 50 73 110 150 180 192 187 165 132 95 70 59 63 80 107 136 159 173 177 175 172 169 168 169 169 166 157 141 120 97 77 61 50 42 36 33 32 34 40 54 78 112 145 168 173 161 133 98 69 50 43 45 54 69 88 109 127 141 151 157 159 159 156 151 144 134 124 114 
91 77 69 64 63 66 72 81 90 97 97 89 76 61 48 39 34 35 44 62 94 135 173 195 202 194 174 142 106 75 54 46 50 68 100 139 171 186 184 166 134 100 74 65 71 91 122 154 178 191 195 193 189 184 183 183 185 185 181 172 157 138 119 100 83 69 57 49 44 43 48 61 85 117 148 167 169 154 125 92 67 53 52 61 80 105 132 156 175 187 194 197 198 196 192 185 173 155 133 110 
78 61 51 47 49 56 68 86 106 120 125 119 103 82 61 45 35 32 36 50 79 122 166 196 210 210 198 175 141 104 74 57 53 65 92 129 164 183 186 172 145 113 89 79 85 106 137 167 189 199 201 198 191 185 182 183 187 192 195 194 188 178 164 148 130 112 94 79 68 63 65 78 100 129 155 169 169 152 123 93 71 63 68 86 114 146 174 195 208 215 219 220 219 216 211 203 188 166 136 105 
72 54 44 42 47 58 79 105 133 153 161 157 140 113 83 57 41 32 33 44 69 111 159 196 215 220 215 200 173 136 99 72 60 66 87 122 157 181 189 181 160 133 110 99 104 123 151 177 194 201 199 192 181 171 166 168 175 186 196 203 206 204 198 189 176 159 140 121 104 94 94 103 122 146 165 175 171 154 127 99 80 76 88 113 146 178 202 216 224 227 228 227 225 221 216 207 192 168 135 100 
72 55 47 47 54 71 98 131 162 183 193 190 175 148 113 78 52 37 33 40 62 102 152 193 217 226 226 216 197 165 125 90 70 68 84 114 150 177 190 188 174 152 132 120 123 139 161 182 194 197 191 178 160 145 136 138 148 166 184 199 210 215 216 213 206 194 179 161 144 132 128 133 147 164 177 182 176 159 134 109 92 91 106 135 167 195 213 223 227 228 226 223 218 214 208 199 184 162 131 99 
82 68 61 62 72 92 122 156 184 203 212 211 201 179 145 104 69 46 37 39 57 93 142 187 215 228 231 226 211 185 147 106 79 70 80 106 140 170 186 190 181 165 147 136 137 149 166 182 190 188 177 157 132 112 100 100 112 132 158 182 200 213 219 220 218 212 201 188 173 162 156 159 168 179 187 189 182 167 144 120 105 104 118 143 172 195 210 216 217 215 210 204 198 192 186 179 168 151 128 103 
103 93 87 89 98 117 143 171 195 211 219 221 215 200 172 133 92 60 44 41 53 84 130 177 209 226 232 230 219 197 161 118 85 70 74 95 126 156 176 184 179 167 152 141 141 150 164 176 181 176 160 134 106 82 70 68 77 95 122 151 177 196 208 214 216 213 206 196 185 176 171 173 179 187 193 194 188 174 154 132 115 110 119 138 160 178 189 193 191 185 177 167 159 153 149 148 146 141 131 117 
134 129 124 123 127 138 155 175 193 207 217 221 220 212 192 159 117 79 54 45 51 74 115 162 198 220 229 229 221 201 166 123 87 68 68 82 108 137 158 168 167 156 143 134 133 140 153 164 168 161 143 116 87 64 51 48 52 65 85 112 140 164 182 193 198 198 194 187 179 173 170 174 181 189 194 196 192 180 163 141 122 111 111 119 132 143 150 150 145 136 126 115 108 104 106 114 124 134 139 139 
167 166 161 155 151 150 154 163 177 190 203 212 217 215 204 179 142 100 67 50 49 64 97 141 181 207 220 223 216 197 163 121 84 64 61 71 90 115 135 145 145 136 125 116 115 122 134 146 151 147 131 106 80 59 46 40 40 47 59 76 98 120 139 154 163 166 165 161 156 153 154 161 171 182 190 194 193 185 170 150 128 110 99 96 98 101 101 99 92 84 75 68 64 65 73 89 111 135 154 164 
194 193 188 177 163 149 139 137 144 157 174 191 204 210 207 192 162 121 83 58 49 56 79 115 155 186 204 210 205 185 152 112 79 60 55 62 77 96 112 120 120 112 102 94 94 100 112 125 135 135 125 106 84 65 51 43 39 40 45 53 65 79 94 107 116 121 123 123 121 122 127 137 151 165 178 187 190 186 176 158 135 111 92 78 71 66 62 58 53 48 43 39 39 44 56 78 110 144 171 187 
210 210 203 188 165 137 114 102 102 113 132 157 180 197 204 198 176 141 101 69 52 50 63 89 123 155 178 188 184 166 135 100 72 57 54 59 70 85 96 102 99 91 82 75 75 80 92 107 121 129 128 117 101 84 69 58 50 45 43 44 47 54 61 69 76 82 85 86 88 91 97 107 123 140 158 173 182 185 180 167 146 120 93 72 57 47 41 36 32 29 27 26 29 36 52 80 119 158 187 204 
219 218 209 190 159 121 89 70 64 71 88 115 147 175 194 198 186 158 119 82 58 48 52 67 92 120 143 156 155 140 116 89 69 59 58 64 74 85 93 94 88 79 70 63 62 67 78 94 113 129 137 136 128 115 101 86 73 61 53 47 44 44 47 51 55 60 63 65 67 69 73 81 94 111 131 151 168 179 182 176 160 136 106 79 57 42 33 27 24 22 22 24 28 39 59 92 134 173 200 214 
222 219 209 186 150 106 70 49 41 43 55 78 111 149 179 193 191 171 138 99 69 52 48 54 69 89 109 122 125 117 101 85 73 68 71 79 89 98 102 99 89 77 66 58 56 60 71 90 113 135 151 159 158 152 140 126 109 92 76 64 55 51 50 51 54 58 60 61 61 60 60 63 70 83 101 124 148 169 182 185 177 158 130 99 71 50 36 28 24 23 24 27 35 49 73 108 150 185 207 218 
218 215 203 179 141 96 60 39 29 29 36 53 84 124 163 187 194 183 156 120 86 62 51 50 57 69 84 96 103 102 97 90 87 88 95 105 116 122 122 114 99 83 69 60 57 62 74 94 119 145 166 178 183 182 175 164 149 130 111 94 81 73 70 70 73 76 77 75 70 63 57 53 55 62 75 97 126 155 179 191 192 181 160 130 98 71 51 39 33 31 33 38 48 65 91 125 161 189 206 215 
205 203 192 170 134 92 58 37 27 24 28 41 67 108 151 183 196 193 175 144 109 80 62 54 55 62 73 84 95 101 105 107 111 119 128 139 148 151 147 134 114 93 77 67 65 70 84 106 133 159 179 191 198 199 197 190 178 164 147 131 118 111 108 108 111 114 113 106 93 77 62 51 46 48 56 74 104 140 173 195 203 201 188 165 136 106 81 63 53 50 52 59 71 88 110 137 162 182 195 202 
179 180 175 158 129 94 63 42 30 25 27 38 62 101 146 182 200 202 191 168 136 104 79 65 60 63 72 85 99 112 124 133 143 152 162 171 176 176 167 151 128 105 87 78 77 86 102 125 150 173 189 199 204 205 203 198 191 181 171 162 155 152 152 155 158 160 157 146 127 100 73 54 42 39 43 58 85 124 164 195 210 214 209 195 174 148 122 102 89 85 86 93 102 114 127 140 152 161 168 174 
139 146 150 145 129 103 76 54 40 32 33 42 65 104 149 185 204 210 204 188 162 130 100 80 70 70 78 92 110 130 147 160 171 180 188 193 194 190 178 159 135 111 95 89 93 106 126 149 169 185 196 201 201 199 195 189 184 179 176 176 178 182 187 192 196 197 194 182 159 125 88 59 41 34 35 46 69 108 154 191 213 221 221 214 201 184 164 147 135 130 131 134 138 139 138 133 129 126 127 131 
95 110 125 135 133 119 97 74 56 45 43 52 76 115 158 191 210 216 213 201 180 150 118 93 79 77 84 100 123 146 167 182 192 199 203 204 201 193 177 155 130 109 97 97 107 126 149 170 186 195 199 198 192 182 172 163 158 157 161 170 182 194 204 212 217 219 216 206 184 147 103 65 42 31 30 38 58 93 140 183 210 223 226 224 216 206 194 182 175 171 171 171 167 158 141 120 101 88 84 86 
63 81 106 130 142 140 125 101 79 63 59 68 92 131 170 199 214 220 218 208 189 160 127 99 82 78 86 104 130 157 179 195 204 208 209 207 200 187 166 140 116 98 92 98 116 141 167 186 198 202 200 191 176 156 137 123 116 118 128 146 169 191 208 220 226 229 227 218 198 163 115 71 43 30 27 32 48 80 125 170 202 219 225 224 220 214 206 200 197 196 196 193 185 167 138 104 76 59 51 53 
45 66 98 131 155 162 152 130 104 83 76 84 109 145 180 205 217 221 219 209 189 158 123 94 77 73 81 100 128 159 184 200 209 212 211 205 193 173 146 118 95 82 82 94 118 148 176 195 205 206 198 182 157 126 100 82 75 77 90 113 143 175 201 218 227 231 231 224 206 173 125 78 47 31 26 29 42 67 107 151 186 206 214 215 212 208 204 202 202 205 206 204 193 170 134 93 61 42 34 35 
40 64 100 139 169 180 173 152 123 99 88 95 119 154 186 207 218 221 216 203 179 145 109 81 66 63 70 89 119 152 181 199 209 211 208 198 181 154 123 94 75 66 69 85 112 147 177 198 207 206 195 173 139 102 72 54 47 48 59 80 112 150 185 209 223 229 230 224 209 179 134 87 53 35 28 30 39 58 89 126 159 181 190 192 189 186 184 187 193 201 206 206 196 172 132 88 54 35 27 29 
45 72 111 152 180 190 183 161 130 103 90 96 119 152 184 206 216 217 210 193 163 125 89 64 52 50 58 75 104 140 172 194 205 208 202 189 166 135 102 76 60 55 59 75 103 138 171 193 204 203 191 166 128 88 58 41 33 33 40 56 84 121 160 191 211 221 224 221 209 184 144 100 65 45 36 35 40 53 73 100 125 142 150 151 148 146 148 156 170 186 198 203 196 174 136 92 57 37 29 32 
62 92 131 167 189 195 183 156 123 95 82 86 108 141 175 199 211 211 202 179 144 103 70 49 40 40 47 63 90 125 160 185 197 200 193 177 151 119 89 67 54 50 55 68 92 125 157 181 194 196 185 161 125 87 57 40 31 29 33 43 63 93 129 164 189 205 212 213 205 187 156 119 87 65 53 49 50 55 65 78 91 100 103 101 98 97 102 115 138 163 185 197 195 178 145 104 69 48 41 46 
92 122 156 183 196 193 175 142 106 78 66 70 89 123 160 188 203 204 193 166 127 86 56 39 33 33 40 55 79 112 146 171 184 186 179 162 137 110 85 68 58 55 58 67 84 109 137 161 176 181 175 157 128 96 69 50 40 35 35 39 51 70 98 128 156 176 190 196 196 187 169 144 118 98 85 76 71 69 67 67 68 67 65 61 58 58 64 79 105 138 169 189 194 183 158 123 91 71 65 72 
