P2
100 100
255
135 164 190 206 209 198 169 126 84 55 43 46 64 99 144 181 202 206 195 167 123 78 47 31 26 27 34 48 70 101 133 157 169 170 161 145 124 103 86 75 69 67 66 69 77 91 110 129 145 155 157 149 133 111 90 72 58 48 41 38 40 48 63 84 109 134 156 175 187 193 189 179 163 147 131 117 102 86 70 57 47 40 35 32 30 32 38 54 83 122 160 187 197 191 172 144 117 101 99 111 
174 194 209 215 211 191 154 106 66 41 32 35 51 83 128 170 195 202 193 166 125 83 53 38 33 35 42 55 73 96 117 132 138 136 128 117 107 100 98 99 100 99 95 89 84 82 87 96 108 120 132 140 142 137 127 113 98 82 66 53 44 42 45 55 70 89 112 137 162 182 193 196 193 186 177 164 147 123 94 68 47 34 26 22 20 22 28 42 68 106 146 176 190 190 178 161 144 136 140 155 
201 213 220 220 210 183 139 89 52 32 25 28 43 73 118 163 191 202 195 173 138 100 72 57 52 56 64 75 88 99 107 109 106 100 94 90 93 102 116 131 140 142 134 119 100 82 72 69 75 87 106 128 149 162 165 161 148 129 104 79 57 44 38 38 44 55 73 100 134 167 191 205 211 211 208 200 185 159 124 86 56 37 26 21 20 22 28 42 66 100 137 165 178 180 173 164 158 160 170 185 
214 223 226 222 207 174 125 76 43 27 22 26 41 72 117 162 192 204 201 185 159 129 105 92 89 93 102 110 115 113 105 92 80 71 66 69 81 104 134 161 177 181 173 153 122 90 65 53 52 62 83 115 151 179 194 198 191 175 147 112 77 51 37 30 30 36 49 73 109 152 186 208 219 224 224 220 209 186 151 108 70 45 32 26 26 30 39 55 78 106 134 152 159 158 152 149 153 165 182 200 
218 226 228 222 203 166 115 67 38 25 22 29 46 78 124 167 195 207 206 197 180 160 144 137 137 142 149 153 148 133 110 84 63 51 47 53 71 104 145 181 202 208 201 181 145 102 66 45 39 45 66 103 148 187 210 219 218 206 182 144 99 62 39 28 25 27 37 58 94 140 181 208 222 228 230 228 220 202 171 129 89 61 46 41 44 52 65 82 103 122 136 139 134 126 119 119 130 151 178 201 
214 225 227 220 199 159 106 62 36 26 26 36 57 93 137 175 199 208 208 201 192 182 176 175 179 185 189 188 178 153 118 80 54 39 35 42 62 100 149 191 214 223 218 200 164 116 71 43 32 36 54 91 142 188 216 228 230 222 202 165 116 72 44 30 24 25 34 54 89 136 178 205 220 227 229 227 220 206 181 146 110 84 71 70 77 90 107 124 138 145 141 127 108 91 82 83 97 125 160 193 
206 221 224 216 193 151 100 59 38 31 35 49 76 113 153 183 199 203 201 195 190 187 189 195 203 210 213 210 197 169 126 81 49 32 28 34 54 94 147 192 219 229 227 212 180 130 79 45 30 31 47 83 135 185 216 231 234 228 210 175 126 79 49 33 28 30 40 61 96 139 177 202 214 219 220 218 211 199 179 154 130 113 108 113 125 141 157 169 174 168 148 118 87 64 53 53 67 95 136 177 
195 215 219 210 184 142 93 58 42 40 50 71 101 137 167 185 191 188 181 174 171 175 185 198 210 219 223 221 208 179 133 83 47 29 23 29 48 86 140 189 219 231 231 219 191 144 91 52 32 30 44 78 130 180 213 228 232 226 207 173 125 81 53 40 38 44 57 80 113 149 178 195 202 203 200 195 188 178 165 152 143 141 147 159 173 186 197 203 200 184 153 110 72 47 35 35 45 70 112 159 
184 207 212 201 173 131 88 60 50 55 72 100 131 159 177 181 173 159 145 135 134 143 162 184 205 219 225 224 213 186 141 89 50 29 22 26 43 79 133 184 216 230 232 223 200 159 106 62 39 34 46 78 127 176 208 222 224 216 195 159 116 79 58 52 56 68 87 112 139 163 179 184 181 173 164 155 148 141 138 139 146 160 176 191 205 215 221 222 214 194 155 105 62 37 26 24 33 54 93 142 
174 198 202 189 159 118 83 63 62 76 102 133 161 177 179 167 145 120 100 89 89 101 126 157 188 210 222 224 215 192 151 100 58 34 25 27 42 76 127 178 211 227 231 225 207 172 123 79 52 45 55 84 129 172 200 212 210 196 171 136 100 75 65 69 84 105 129 151 168 178 178 168 151 133 117 106 99 98 103 117 139 166 191 209 221 229 232 230 221 197 153 99 56 32 21 20 27 46 82 130 
167 190 191 174 142 105 78 69 79 103 136 165 183 187 175 147 112 82 61 52 52 64 88 123 162 194 213 220 216 198 164 118 75 48 35 35 48 77 124 171 205 222 227 224 210 182 142 101 73 64 73 98 135 170 190 194 185 165 137 106 82 70 75 93 119 147 170 185 192 189 175 150 120 93 74 64 60 63 73 94 126 163 194 215 228 234 236 233 222 195 149 93 51 29 19 19 26 44 78 125 
165 183 179 157 123 92 75 77 98 131 165 189 199 191 166 126 85 54 37 30 31 40 59 91 133 172 199 213 214 203 179 142 103 73 56 52 61 85 123 164 194 211 218 217 208 188 158 125 101 93 100 120 146 167 176 170 152 127 99 77 65 67 85 116 152 182 200 209 208 196 172 136 97 67 49 40 39 43 54 76 111 152 189 213 227 234 236 232 219 190 141 87 47 27 19 20 28 48 82 127 
167 178 167 139 106 81 73 85 116 155 187 205 207 192 157 109 66 38 24 19 20 27 42 67 104 146 179 200 208 206 192 168 138 111 92 84 86 101 125 153 177 192 199 201 196 184 167 147 132 126 132 144 158 164 159 142 117 90 68 55 53 66 94 135 175 203 217 221 216 200 171 130 87 56 39 32 31 35 45 64 96 136 175 204 220 229 231 227 212 180 131 79 44 26 20 23 34 57 93 135 
172 174 155 122 90 71 71 92 131 172 202 215 212 191 150 98 55 30 19 16 18 23 34 53 82 119 154 181 196 202 199 189 172 154 138 126 120 120 127 137 149 158 165 169 170 168 164 158 155 155 160 165 166 160 143 117 88 65 49 43 47 65 99 145 186 211 223 225 218 202 173 131 90 60 44 37 36 38 45 58 82 117 154 184 205 217 221 217 201 167 118 71 41 27 23 29 44 72 111 149 
178 170 143 106 76 62 69 96 140 182 209 220 214 191 148 94 52 29 20 18 20 26 34 48 68 95 126 153 175 190 198 199 196 188 178 166 153 138 125 117 113 114 118 124 131 140 149 158 167 173 177 177 170 154 129 99 72 52 42 39 46 66 101 145 184 209 220 221 215 200 175 141 105 78 63 55 52 51 52 58 72 95 124 154 178 194 202 200 184 152 107 66 41 30 30 39 60 94 133 165 
183 166 132 92 65 55 65 95 141 185 212 221 215 192 150 98 57 35 27 26 30 36 43 51 62 78 97 120 144 166 185 199 206 208 204 194 176 149 120 95 80 73 74 79 90 106 127 149 167 179 183 180 168 147 120 91 68 52 45 44 51 69 99 137 172 194 205 208 203 193 176 153 129 110 98 90 83 75 68 63 65 75 93 115 139 159 173 176 164 137 100 66 46 38 42 57 84 121 157 180 
187 162 121 81 55 48 59 89 135 180 208 219 214 194 156 109 71 50 43 45 51 58 63 65 66 68 75 88 107 133 162 187 205 215 215 207 187 153 112 77 56 46 44 48 59 78 105 135 160 175 180 174 160 139 115 92 76 65 60 60 65 76 96 122 147 165 175 179 179 176 171 164 156 149 143 137 126 110 91 73 62 60 66 79 98 119 138 149 146 129 102 76 60 56 63 84 115 151 179 192 
188 157 113 72 48 41 51 78 120 165 196 211 210 194 164 127 95 78 74 80 90 97 98 91 79 67 61 63 74 97 130 166 195 213 218 211 189 150 102 64 41 30 28 32 43 63 92 125 152 167 169 161 146 128 112 101 95 92 91 90 90 91 96 105 115 124 130 136 141 149 158 168 176 181 183 179 168 146 115 84 62 50 48 53 66 86 109 128 137 132 117 99 88 86 98 120 150 178 196 200 
189 155 108 67 43 36 43 63 98 140 174 193 198 190 171 147 127 118 120 130 141 147 142 125 99 72 54 46 50 67 98 140 179 205 215 209 186 143 93 54 33 24 22 27 39 60 90 123 147 157 154 141 127 116 111 115 122 129 133 132 126 115 103 92 86 83 84 88 98 116 140 166 188 202 208 207 196 171 133 92 61 44 37 39 49 67 93 121 141 147 143 133 127 128 139 158 180 198 208 206 
191 156 108 66 41 32 35 49 74 107 140 163 176 178 172 164 158 158 166 177 187 190 181 157 118 79 51 37 35 46 73 115 161 195 209 204 180 135 84 48 29 22 23 31 46 71 102 132 149 150 138 120 106 101 109 127 149 166 175 174 163 143 115 87 66 55 51 53 64 87 122 161 193 212 220 220 208 182 139 93 59 40 32 33 42 62 93 127 155 169 172 169 165 167 175 187 201 211 215 210 
196 162 115 71 44 31 30 37 53 75 100 124 143 156 165 172 179 187 198 208 215 215 204 177 132 84 50 32 27 35 57 97 147 185 202 198 172 127 78 45 29 25 30 43 66 96 128 151 158 148 125 101 86 86 103 134 167 191 203 204 193 168 130 89 58 40 33 34 45 69 109 157 194 216 225 223 210 180 135 87 53 36 30 32 44 68 104 143 173 189 194 194 192 192 196 204 212 217 219 213 
202 172 129 84 52 35 29 30 38 50 67 86 108 130 153 173 189 203 214 223 227 226 214 185 138 86 49 30 24 30 51 90 139 179 198 194 167 121 75 45 32 33 44 66 98 132 161 175 172 150 117 86 70 72 94 132 174 204 219 221 211 186 145 96 57 34 25 26 36 61 104 155 196 217 225 221 203 169 121 76 47 32 29 35 51 81 121 161 189 203 206 205 202 200 203 208 214 219 220 216 
208 186 149 105 68 44 32 28 30 35 45 60 81 108 140 169 193 209 221 228 231 228 214 183 135 83 48 30 25 33 55 94 142 180 197 191 163 118 75 49 40 47 67 100 138 171 192 197 186 155 113 76 57 59 81 123 171 206 224 229 221 199 158 105 60 34 24 24 35 61 106 158 197 217 222 213 190 149 101 62 40 30 31 41 63 98 141 177 198 207 206 201 196 192 194 199 207 215 219 218 
214 200 172 133 92 60 41 31 28 30 36 48 67 97 133 167 193 211 221 227 228 222 205 173 125 78 47 33 32 43 69 110 155 188 200 192 163 119 78 55 52 67 99 139 177 202 214 213 197 161 111 70 48 48 67 108 159 200 223 231 226 207 169 116 67 38 26 26 38 67 113 164 199 215 216 201 170 125 81 50 34 30 36 52 80 118 157 186 199 200 192 181 171 165 167 175 189 202 213 217 
216 210 193 162 123 86 58 42 35 34 38 49 69 99 136 169 193 208 216 219 217 207 187 152 109 72 49 41 47 65 96 137 175 199 205 193 163 120 82 63 67 91 131 173 204 222 228 223 204 165 111 66 42 38 54 90 142 189 218 229 228 212 178 127 76 44 31 31 45 76 123 170 200 211 206 184 146 101 64 41 33 35 46 68 101 138 169 186 188 179 162 143 128 120 123 135 156 179 199 212 
213 216 207 187 155 118 85 63 52 49 54 67 88 117 149 175 193 202 205 203 195 180 156 124 91 66 55 57 72 98 133 169 196 210 210 194 161 118 84 70 80 112 156 196 221 233 236 229 208 167 111 63 37 31 42 72 121 172 208 225 227 215 185 137 86 52 38 39 54 87 132 174 199 204 192 163 121 81 52 39 37 45 63 91 125 157 176 179 167 145 119 96 80 73 76 89 113 145 176 200 
203 214 214 202 180 150 118 94 82 79 86 100 121 145 168 184 191 191 185 174 159 140 117 93 73 64 66 82 107 139 171 197 213 218 212 191 155 112 81 71 86 123 170 207 228 238 239 231 210 169 111 61 34 26 32 56 99 152 195 218 224 215 190 146 96 61 46 47 64 97 139 175 193 193 174 141 101 68 49 43 49 65 91 122 152 172 177 166 140 108 78 57 45 40 42 53 74 106 145 180 
185 205 211 207 194 172 149 129 120 121 130 144 161 176 187 191 186 173 154 133 113 94 78 66 60 65 83 112 146 177 201 216 223 222 210 183 142 100 72 66 84 122 170 208 229 238 239 232 211 169 111 61 32 22 26 44 80 132 180 209 219 213 191 151 105 69 54 55 72 103 141 170 183 177 155 122 88 65 56 59 74 98 127 156 177 185 177 151 114 77 50 33 25 22 23 31 46 73 110 151 
158 185 198 200 193 180 165 156 154 160 170 183 194 201 202 195 177 150 119 92 72 58 49 47 53 70 102 142 178 204 220 228 228 221 202 168 123 83 60 56 73 110 158 198 223 235 237 230 210 169 112 61 32 21 22 36 67 116 166 199 213 210 190 153 109 76 60 61 77 104 136 160 168 159 138 110 87 74 75 88 110 138 165 186 196 194 176 141 96 58 34 21 15 14 15 20 30 49 80 120 
127 156 173 179 176 169 164 163 170 182 195 206 213 215 210 194 165 127 89 61 44 35 33 36 50 77 120 165 200 220 230 232 228 215 188 147 100 65 46 44 58 89 135 178 209 225 230 225 207 168 114 64 35 23 23 34 62 107 157 191 206 204 185 150 109 78 63 64 77 100 126 145 150 143 127 109 97 96 107 127 152 176 195 207 210 201 178 137 90 52 29 18 13 12 12 16 23 36 59 91 
99 123 139 145 144 141 143 151 167 187 204 216 222 221 212 190 153 106 67 42 29 23 24 31 50 85 134 181 212 228 233 232 223 203 168 121 78 48 35 33 43 67 105 148 185 208 218 216 200 166 117 71 42 30 29 41 67 109 155 187 200 197 176 142 104 76 63 64 75 93 113 129 135 133 126 119 119 128 145 166 186 203 214 219 217 206 182 142 95 57 34 22 17 15 15 17 22 32 48 71 
83 98 106 107 105 104 109 123 146 173 197 213 221 220 209 183 140 92 54 32 22 18 21 30 53 93 145 190 218 230 233 227 212 184 142 95 58 36 27 25 32 48 75 112 150 179 196 199 189 162 122 83 57 45 46 59 86 124 162 188 196 188 165 130 95 71 60 61 70 85 103 118 127 131 134 138 147 161 178 194 207 217 222 223 219 209 188 153 111 74 49 36 29 26 25 27 31 38 50 65 
84 89 87 81 74 71 75 90 114 146 176 198 210 211 200 172 129 82 48 29 20 18 22 34 59 103 155 196 220 229 228 217 195 158 112 71 43 28 22 21 25 35 53 79 111 141 163 173 171 154 128 101 82 74 78 93 118 149 176 192 193 179 151 115 83 64 56 58 66 80 97 113 127 138 148 159 172 186 199 209 216 220 221 220 216 208 192 168 136 105 81 65 56 51 50 50 53 59 67 76 
105 98 86 71 59 52 52 62 81 110 142 169 187 192 183 157 119 78 48 32 24 23 28 43 72 116 165 200 218 223 217 199 169 127 84 52 33 24 21 21 24 30 41 58 80 104 125 140 146 143 134 123 116 116 123 138 158 178 193 198 191 170 137 101 73 57 52 56 65 80 98 116 134 150 164 177 189 200 207 212 213 212 210 207 203 198 191 179 162 143 126 113 103 97 94 93 95 98 103 106 
139 124 102 79 59 46 41 44 56 76 102 129 150 160 158 140 112 81 58 43 37 37 44 62 93 135 175 202 213 212 198 172 135 95 61 40 28 24 24 26 30 35 41 51 63 78 93 108 120 130 137 143 150 158 168 179 191 201 205 202 188 161 124 89 65 53 51 57 68 85 105 125 145 162 176 188 196 202 203 201 196 189 182 177 175 176 179 182 181 178 172 165 159 154 151 149 149 149 149 147 
173 156 130 101 73 53 42 38 41 52 68 88 108 122 129 125 112 95 80 69 64 66 76 95 124 158 185 201 203 192 170 137 100 67 45 33 29 30 34 40 47 52 56 59 63 68 75 84 97 114 133 154 172 187 198 206 212 215 212 203 183 151 113 81 61 53 55 63 77 96 116 137 155 170 181 188 192 191 185 175 162 148 137 131 131 140 155 173 188 198 202 203 201 199 196 194 192 191 188 183 
197 183 161 132 100 73 53 41 37 39 47 58 73 89 104 116 121 120 116 111 109 112 122 138 159 179 192 194 185 164 134 99 69 48 36 33 36 44 56 69 80 87 89 87 81 74 70 72 80 98 123 153 179 199 211 218 221 219 212 198 174 140 104 77 63 60 66 78 94 112 131 147 160 169 175 176 173 164 151 133 115 98 86 80 83 97 122 154 184 205 217 222 223 222 220 217 215 212 209 205 
207 200 186 164 135 104 76 55 43 37 37 42 52 68 90 114 136 151 157 160 161 164 169 178 187 193 192 182 160 130 97 68 48 36 34 39 52 71 94 115 131 139 138 129 113 94 77 68 69 83 108 140 172 196 210 217 218 214 204 186 159 127 98 79 73 76 86 101 117 132 144 152 156 158 156 151 141 127 108 89 71 57 47 44 48 62 90 130 172 203 220 229 231 230 227 223 219 216 213 211 
204 204 200 189 169 142 110 81 58 43 36 36 43 58 85 120 154 178 191 197 200 201 202 203 203 198 185 162 131 96 67 47 36 33 38 53 78 109 140 165 181 188 185 173 151 121 92 71 64 70 90 120 153 180 196 204 203 196 183 163 138 114 96 88 91 102 117 132 145 152 154 151 144 136 127 116 104 88 72 56 43 33 27 25 29 41 66 107 155 194 216 226 229 226 221 214 207 202 201 202 
187 198 204 204 195 177 150 117 85 59 44 38 41 57 86 128 168 197 212 219 221 220 218 215 208 194 171 139 103 71 49 36 32 36 51 76 112 151 182 203 215 218 215 203 180 146 108 78 62 62 74 98 127 152 168 175 173 163 148 130 112 99 96 103 117 135 152 164 170 168 158 143 125 109 96 84 72 61 49 38 30 23 19 18 21 31 52 90 138 180 205 216 216 210 200 187 176 169 169 176 
156 180 200 210 211 202 184 155 120 85 60 47 46 60 91 135 178 207 222 228 229 227 222 215 202 182 152 116 81 56 40 34 37 48 71 107 148 184 210 224 231 233 229 218 197 163 122 86 65 59 66 82 102 120 131 134 129 118 105 93 86 88 100 121 146 167 182 190 189 178 157 130 104 84 71 61 54 47 40 33 27 22 19 18 21 29 47 80 122 162 186 194 190 178 160 141 126 119 121 135 
120 156 188 209 218 218 207 187 155 118 84 62 56 67 97 140 182 209 223 228 228 224 216 205 187 162 130 97 69 51 43 42 51 70 101 140 179 207 224 233 237 236 232 221 201 170 130 95 73 66 68 77 88 96 98 94 86 77 68 64 66 80 106 139 170 192 204 206 200 182 152 117 86 66 55 50 47 45 43 39 35 30 27 26 29 36 52 78 112 143 160 161 150 131 109 89 75 69 74 90 
88 131 174 205 221 225 221 208 184 150 112 82 69 75 99 138 177 203 216 220 218 210 199 183 162 137 110 86 68 59 57 63 77 102 136 171 200 219 230 235 235 233 226 214 194 166 133 105 88 83 85 90 92 89 81 70 58 50 45 45 54 76 113 155 188 208 217 216 205 181 144 104 72 55 48 48 51 56 59 58 56 52 48 47 49 56 69 88 110 126 131 123 105 85 65 50 41 38 42 58 
67 111 160 198 219 228 228 220 203 174 137 102 82 80 97 128 161 185 197 199 194 182 167 149 130 112 97 86 81 81 86 98 116 141 169 194 213 224 229 230 227 221 210 195 175 152 130 115 110 113 117 119 115 101 81 61 46 36 32 35 48 76 119 166 200 218 224 220 206 178 136 93 63 50 48 55 67 80 91 96 96 92 88 85 86 91 100 110 118 118 108 90 71 53 39 29 24 22 27 40 
57 97 147 189 215 226 229 225 212 189 154 117 91 82 89 109 134 153 162 162 153 139 124 110 99 94 95 99 107 116 128 141 157 176 193 207 217 221 221 217 208 196 180 162 143 129 122 125 136 148 157 159 149 128 97 66 44 31 27 31 45 76 124 173 207 223 227 221 204 172 127 85 58 49 55 71 94 117 135 145 148 145 141 138 137 138 140 140 133 118 95 71 51 36 26 21 18 18 22 33 
55 90 136 178 206 220 225 222 212 192 160 123 94 78 77 87 100 111 116 113 104 93 83 77 78 88 104 123 141 156 168 179 188 197 205 210 212 209 203 191 175 156 135 117 104 102 112 133 158 180 192 194 184 159 121 79 49 32 25 29 44 77 127 177 210 225 228 220 200 165 118 78 57 54 66 93 126 156 177 188 191 190 187 184 181 179 176 168 151 124 92 64 43 31 24 20 19 20 25 34 
59 86 124 161 189 205 211 211 202 184 155 120 91 72 66 66 71 75 75 71 65 59 56 59 71 93 122 150 172 187 196 201 203 204 203 200 195 185 171 152 130 107 87 74 70 78 102 138 175 201 215 218 209 186 146 97 57 35 26 28 44 78 130 180 211 225 226 217 194 155 109 74 58 61 82 117 155 185 204 212 215 214 212 209 206 203 197 186 164 133 96 65 45 34 29 27 28 30 34 42 
69 86 111 138 161 177 185 186 180 165 141 111 85 67 57 53 52 51 49 46 43 42 45 56 77 109 144 174 194 205 208 207 202 195 187 177 164 148 129 107 85 66 53 46 47 62 94 140 184 213 228 231 225 205 167 114 67 39 28 29 45 80 132 181 211 223 223 210 184 144 100 71 61 71 99 138 176 201 215 221 222 220 218 215 213 210 204 193 172 142 106 76 57 47 44 44 47 50 54 59 
86 89 98 110 124 136 145 149 147 139 123 102 82 66 55 49 44 41 38 36 35 37 46 64 94 131 166 192 206 210 206 198 185 170 155 140 124 107 90 72 56 43 34 31 36 53 88 140 188 219 234 238 233 216 180 128 76 44 31 32 49 85 135 182 209 219 216 200 170 130 92 70 67 84 117 155 187 207 215 217 215 212 209 206 205 204 200 192 175 151 122 96 80 73 73 77 82 86 88 87 
109 96 87 84 87 93 100 107 113 114 109 99 87 74 63 54 46 41 37 36 37 44 58 83 118 155 184 201 207 203 191 173 153 132 114 99 87 76 65 54 43 34 28 27 32 49 84 136 187 219 235 239 235 220 187 136 84 49 35 38 56 93 141 183 206 213 205 185 152 114 84 72 77 100 134 168 192 203 205 201 194 188 183 181 182 185 186 183 174 159 141 124 115 113 118 125 132 135 133 123 
132 103 79 65 60 61 67 77 89 101 108 109 104 95 83 71 60 52 47 45 49 60 81 111 145 176 196 203 200 185 163 136 111 90 76 68 64 61 58 53 46 38 31 28 32 46 78 128 179 214 231 237 233 219 188 139 88 56 43 48 69 107 151 185 202 202 189 163 130 99 80 78 92 119 151 177 191 193 185 172 158 147 141 141 146 155 163 169 170 166 159 154 153 157 164 173 179 181 174 158 
147 107 74 54 45 44 51 64 83 105 123 133 135 128 117 102 87 75 67 66 72 87 112 142 170 191 201 198 184 158 126 96 73 58 52 52 57 64 70 70 64 54 43 36 35 45 70 114 163 200 221 228 225 210 180 135 91 63 55 65 91 127 164 188 195 187 166 136 106 85 78 88 111 141 168 184 187 176 156 133 112 99 94 96 106 121 137 153 163 170 173 177 182 189 197 205 209 209 201 180 
154 108 70 47 38 39 48 67 94 124 149 164 170 167 157 142 125 109 99 97 104 120 144 169 189 200 200 188 162 127 91 63 47 40 41 49 64 83 98 104 99 85 67 51 43 45 62 95 138 176 200 209 207 191 162 124 90 73 73 90 119 152 177 189 185 167 139 108 85 75 81 103 133 163 183 189 181 159 127 96 74 62 60 64 76 94 116 138 156 170 180 189 197 206 214 220 223 222 213 191 
152 104 66 44 37 41 56 82 117 152 178 193 199 197 190 177 161 145 132 128 134 149 169 187 200 203 196 175 140 99 65 43 33 32 39 56 82 114 139 150 146 128 101 74 55 48 55 75 106 139 164 175 173 158 134 107 88 84 96 121 150 175 189 188 172 143 110 83 69 70 88 120 156 183 196 195 177 145 105 72 52 43 43 49 61 79 102 125 147 164 178 190 202 211 220 225 228 226 216 192 
145 97 61 43 40 48 71 106 146 180 202 213 217 215 209 198 183 167 153 147 151 164 180 195 203 202 191 164 124 82 51 34 28 30 43 69 107 148 177 191 188 171 141 105 74 55 51 59 77 99 118 128 127 116 101 88 85 96 120 150 177 193 195 182 155 119 85 64 58 69 97 137 174 198 206 200 177 138 95 62 44 37 39 46 58 75 94 115 134 151 166 181 196 208 218 225 227 224 213 187 
133 87 56 43 44 59 90 132 173 202 217 224 226 223 215 203 187 169 153 146 149 161 178 192 200 200 187 159 118 76 47 32 28 33 51 84 131 175 204 216 215 201 174 136 96 67 53 50 57 68 78 84 83 78 72 72 83 107 141 173 195 202 195 172 135 95 65 50 51 69 105 150 188 209 214 204 179 138 94 61 45 40 43 50 61 75 89 102 115 128 143 160 180 198 212 220 224 220 206 177 
118 76 51 42 48 70 108 155 193 215 226 229 228 222 211 194 173 150 133 124 128 142 162 181 194 196 186 161 123 83 53 37 32 39 60 98 148 191 217 228 227 217 196 161 120 85 62 52 50 53 56 57 56 54 54 62 82 116 155 187 203 204 188 156 113 75 50 41 47 69 110 158 195 214 218 207 181 141 98 67 52 48 51 58 67 75 82 88 93 99 111 130 155 181 201 213 218 213 196 163 
101 65 45 41 51 78 121 169 204 222 230 230 224 213 195 170 142 117 98 91 95 112 138 165 185 194 190 171 138 100 67 47 41 46 67 106 156 197 221 230 231 223 207 180 144 108 81 65 58 54 52 49 46 44 47 58 83 122 163 192 204 198 175 135 91 58 40 35 44 68 111 159 196 214 217 206 181 144 105 76 63 60 63 68 72 74 74 72 70 72 80 98 127 160 188 205 211 205 184 146 
86 55 40 38 51 80 126 174 208 224 229 226 215 196 168 135 103 79 64 59 65 83 113 148 177 194 196 185 160 125 90 64 52 54 72 107 153 192 215 226 227 222 210 190 163 134 109 92 81 73 65 57 49 45 47 60 87 126 166 191 199 187 157 113 72 45 32 31 41 66 106 153 189 207 209 198 174 142 109 86 76 74 76 78 76 72 65 58 52 51 56 74 104 143 178 198 205 196 171 129 
73 46 34 35 47 76 122 171 205 221 224 217 199 170 133 96 67 49 40 38 45 63 95 136 173 196 204 200 183 153 116 84 64 60 72 100 140 176 200 212 216 213 206 193 176 158 142 129 118 107 95 80 66 57 56 68 94 131 167 188 190 173 137 94 58 36 28 29 39 62 98 140 173 190 191 180 158 132 109 95 90 91 91 88 80 68 57 47 40 38 44 61 94 136 173 195 200 189 158 114 
63 39 30 30 42 68 112 161 197 214 216 204 178 139 97 64 42 31 26 26 34 53 87 132 174 200 212 212 200 175 139 102 75 63 68 87 117 148 173 188 194 195 192 188 182 176 171 166 160 150 135 116 95 79 73 81 104 137 167 184 182 160 123 81 50 33 27 29 39 59 88 122 149 162 161 149 132 115 104 101 105 109 108 99 84 67 52 40 34 34 42 62 97 140 177 197 199 184 148 102 
55 34 25 26 36 59 99 147 186 204 205 188 154 110 70 43 28 21 19 22 32 53 89 137 180 206 218 219 210 189 154 113 80 63 61 71 90 114 136 151 161 166 170 174 179 184 189 192 192 186 173 153 128 106 95 100 119 146 171 182 177 155 118 79 51 37 32 36 45 61 83 105 121 126 122 112 101 95 97 107 120 128 127 115 94 71 52 40 35 38 51 76 115 156 188 203 201 181 142 93 
50 30 22 22 31 50 86 133 173 194 194 173 134 88 52 31 21 17 17 22 35 60 101 150 189 212 222 222 213 192 156 114 80 60 53 57 68 84 100 113 124 132 143 155 170 185 197 205 209 206 197 179 154 131 117 119 134 157 176 185 180 159 126 91 66 52 49 52 61 73 86 95 98 95 86 78 74 78 92 114 136 149 149 135 110 83 62 49 47 54 73 104 143 179 202 211 205 181 138 88 
47 28 21 20 28 45 79 124 165 187 186 163 122 77 44 26 18 16 19 27 45 76 120 166 199 217 223 220 208 184 147 105 73 55 48 50 57 67 78 88 97 106 120 137 159 180 196 208 213 212 204 188 166 143 130 132 147 167 184 192 188 173 147 119 96 84 81 85 93 99 102 98 88 75 63 56 58 69 92 123 152 169 171 158 134 106 83 71 72 85 109 142 175 201 215 219 209 181 135 84 
46 27 20 21 28 46 79 124 164 185 184 161 120 76 44 27 20 20 25 38 61 98 143 183 208 219 220 213 195 165 127 90 64 50 47 50 58 67 76 84 90 98 110 127 149 171 189 201 207 205 196 180 159 139 130 135 153 174 191 200 199 190 174 155 140 131 129 132 137 137 130 113 90 68 53 47 51 68 99 136 168 187 190 181 161 137 117 107 111 127 152 179 202 218 225 224 211 180 132 81 
45 28 23 25 34 55 90 134 171 190 189 168 130 86 52 34 27 28 37 55 86 127 168 198 214 218 212 197 171 137 101 72 55 49 51 60 73 85 95 101 105 109 116 127 143 161 175 185 188 184 172 154 135 120 117 129 152 177 196 207 209 206 198 188 180 176 176 178 179 175 160 135 102 72 53 47 54 76 111 152 183 200 204 198 184 166 151 146 151 167 186 205 219 227 230 225 209 176 127 78 
46 33 30 35 49 74 112 153 184 199 198 181 147 105 69 48 40 44 57 83 119 157 189 208 215 212 198 173 139 104 74 56 49 51 63 81 102 120 131 137 137 135 134 136 141 148 155 158 156 148 134 117 101 93 96 114 144 174 198 211 216 216 213 209 206 205 206 208 207 201 185 157 120 85 63 57 66 92 130 168 195 209 212 207 197 184 175 172 178 191 205 217 226 230 229 221 202 167 119 75 
50 42 44 54 75 105 142 176 200 210 209 195 167 130 95 71 63 69 88 118 153 184 205 214 212 200 175 141 104 73 53 45 47 59 82 112 140 161 172 175 172 165 156 147 139 133 129 124 116 105 92 79 69 67 75 97 130 167 194 210 217 219 219 217 217 218 219 221 220 214 199 174 139 104 82 77 89 116 151 183 203 212 213 207 197 186 179 178 185 196 207 216 222 223 220 209 187 152 109 72 
59 59 69 87 114 144 174 198 213 219 217 206 185 155 123 101 95 104 126 155 183 203 214 215 205 183 147 107 73 50 39 38 48 70 105 143 175 194 203 204 198 188 173 154 135 118 104 92 82 71 61 52 47 48 58 80 114 153 184 203 212 214 214 214 214 216 218 220 219 215 203 183 154 126 108 106 119 144 172 194 206 209 205 195 182 170 162 162 169 179 191 199 204 204 198 184 161 129 95 71 
74 85 105 130 156 181 200 214 221 223 220 211 195 171 146 128 125 136 158 183 202 215 218 213 195 163 120 79 50 35 31 36 51 82 126 169 199 215 220 219 212 200 180 154 127 102 83 70 59 51 43 38 36 38 47 67 97 134 165 185 195 197 196 195 195 198 201 204 205 203 195 180 162 144 135 137 150 169 187 199 202 197 185 168 150 135 126 125 132 142 154 163 167 166 159 145 125 102 83 73 
94 117 144 169 190 205 216 222 224 223 219 209 194 174 154 141 142 156 177 197 212 219 219 209 184 144 97 59 37 27 26 34 55 92 141 185 212 225 228 225 216 201 177 146 114 87 69 57 48 42 37 33 32 35 42 58 82 112 139 156 163 163 160 157 157 159 164 169 173 174 171 165 158 153 155 163 175 187 196 197 190 174 152 128 107 92 83 82 87 96 105 113 117 116 110 101 89 79 74 79 
114 145 173 195 209 217 222 223 221 217 209 197 180 160 143 135 140 156 179 199 213 219 217 204 175 130 82 47 29 22 24 34 56 96 149 192 218 228 230 224 213 192 163 129 97 74 60 51 46 42 38 36 35 37 43 55 72 93 110 121 122 117 111 106 104 107 111 118 124 128 132 136 142 152 165 178 189 196 196 187 168 141 112 87 68 56 51 50 53 58 65 70 73 73 71 67 64 64 71 88 
129 162 188 205 214 218 218 215 210 201 189 172 151 131 116 111 119 139 165 189 206 215 214 200 170 124 76 43 27 21 23 33 55 96 149 193 218 227 227 219 202 175 141 106 79 63 55 52 51 50 49 47 46 47 51 60 71 83 91 91 86 77 69 63 60 61 64 69 75 81 90 101 119 141 165 184 195 197 189 169 139 106 77 56 42 35 33 33 36 40 44 48 50 51 51 51 54 60 74 97 
135 164 186 199 204 205 202 196 187 174 157 136 114 95 83 80 89 108 137 167 192 206 209 198 171 127 80 46 28 21 22 31 52 91 142 187 213 223 221 209 186 153 115 83 64 56 56 61 66 69 70 69 68 69 72 77 83 87 86 79 67 55 45 38 35 34 36 39 43 49 57 72 96 127 159 183 194 192 176 146 110 76 52 37 30 27 27 30 34 38 42 46 49 50 51 53 57 66 81 105 
130 150 166 175 178 177 172 165 154 139 120 99 80 65 56 54 60 76 103 136 169 192 203 198 177 139 93 57 35 25 23 30 48 83 132 178 206 216 213 198 168 129 91 65 54 54 63 77 91 101 106 106 105 104 105 108 110 108 99 85 68 52 39 31 26 24 24 25 27 31 39 53 78 114 152 178 189 183 159 124 86 56 39 30 27 28 33 39 46 54 60 65 69 71 72 73 76 82 92 109 
116 124 131 135 135 134 130 125 117 106 91 74 59 47 40 37 41 52 72 104 142 175 195 200 187 158 117 77 49 33 27 30 44 74 119 165 196 209 205 186 152 110 74 54 50 58 76 100 124 140 148 150 149 147 146 146 145 139 128 109 87 66 49 37 29 25 22 21 21 24 31 44 69 106 145 173 182 171 143 104 69 46 34 30 33 40 51 64 78 90 100 107 111 113 113 111 108 106 106 109 
98 94 92 91 90 90 91 92 92 88 80 68 54 43 34 30 30 36 50 77 115 156 187 201 199 180 147 107 72 48 35 33 42 66 106 152 186 201 199 179 143 101 68 52 53 67 94 127 156 175 184 185 183 181 179 178 176 172 162 145 123 99 77 59 46 36 30 26 24 25 31 44 68 104 142 169 175 161 129 91 60 42 36 39 49 66 86 108 127 143 154 160 164 164 161 155 146 133 119 107 
82 68 61 58 58 61 68 77 86 92 90 80 66 51 38 30 26 28 37 58 93 139 179 203 209 201 178 144 105 71 49 40 43 61 95 139 176 195 195 178 144 104 73 59 63 83 116 153 181 198 204 204 201 198 195 195 195 194 189 179 164 144 121 100 80 64 51 41 35 34 38 52 76 111 146 169 172 155 122 85 58 46 45 56 77 104 134 159 178 191 198 202 203 202 198 190 176 156 129 102 
70 52 43 40 42 49 63 81 101 115 119 112 95 73 52 37 28 25 30 46 77 124 171 203 216 216 203 178 143 103 71 52 47 59 88 129 167 190 195 182 153 118 88 75 81 104 138 172 196 209 212 210 204 199 195 195 198 202 204 202 196 185 169 150 130 108 88 72 60 55 58 70 95 127 156 173 173 154 121 87 63 55 61 81 113 147 178 199 212 220 224 225 224 222 217 208 193 168 133 98 
64 46 37 35 39 51 72 101 130 151 160 154 136 108 77 52 35 27 28 39 66 111 163 201 220 226 221 205 177 139 98 69 55 60 82 120 159 186 196 189 168 138 112 99 105 127 158 186 204 212 211 204 194 184 178 179 185 195 204 210 213 210 204 193 178 159 138 117 100 90 90 101 123 149 171 182 178 158 127 94 73 69 81 109 146 181 206 221 229 232 233 232 230 227 222 213 197 170 133 94 
66 48 40 40 47 65 93 129 162 185 195 192 176 148 111 75 48 33 28 36 58 100 154 197 221 231 231 222 202 169 127 89 66 62 78 111 150 181 196 195 181 159 137 125 129 148 172 193 205 208 202 189 171 155 145 145 155 172 190 205 215 220 221 217 209 197 181 163 146 134 131 139 154 172 186 191 185 166 137 107 87 84 100 130 167 198 217 228 232 232 231 228 224 220 214 205 190 166 131 95 
78 62 54 55 65 87 119 156 187 207 216 216 205 183 147 104 66 42 32 35 53 90 143 190 219 232 236 231 217 191 151 107 76 65 74 101 138 172 191 196 188 172 155 144 146 159 178 193 201 198 186 165 139 116 102 102 113 134 161 185 204 217 223 224 222 216 206 193 180 170 166 170 179 190 198 200 193 176 150 122 102 98 111 138 170 196 213 220 222 220 216 210 204 199 193 187 176 157 131 102 
102 90 83 84 93 114 143 174 200 217 225 227 221 205 176 135 90 57 39 36 48 80 129 179 213 230 237 235 225 203 166 120 82 65 68 88 122 156 179 189 186 174 159 149 149 159 173 185 190 183 165 137 105 80 66 64 73 92 120 151 178 198 211 218 220 217 212 203 194 187 184 186 192 200 205 205 199 185 163 136 115 105 111 130 155 176 189 195 194 189 181 173 165 159 157 156 154 148 136 119 
137 129 123 121 126 138 158 180 199 214 223 228 226 218 197 162 116 75 48 39 45 70 113 163 202 224 234 235 227 207 172 125 84 63 60 75 102 134 159 172 172 162 149 139 138 145 158 169 172 164 143 113 81 58 45 41 46 59 80 108 137 163 182 195 201 203 200 195 189 184 183 186 193 200 205 207 203 192 173 149 124 107 103 110 123 137 146 148 145 137 128 118 111 108 111 120 132 143 147 144 
173 170 164 158 153 153 158 170 183 198 210 219 223 221 208 182 141 95 61 44 43 59 94 141 184 212 226 229 223 203 168 121 81 58 53 62 82 109 132 146 147 138 126 116 114 121 133 144 150 144 126 98 71 50 37 32 33 39 52 70 93 116 137 153 164 169 169 166 163 162 164 170 180 191 199 204 203 196 182 159 132 108 92 86 87 91 94 93 88 81 74 67 63 65 74 92 117 143 162 172 
200 199 193 182 168 153 144 142 150 164 181 198 210 216 212 194 161 117 76 51 43 50 75 114 157 191 210 217 211 191 155 111 74 53 47 53 68 88 106 117 117 109 98 89 87 92 104 118 128 128 117 97 74 55 42 34 31 32 37 46 59 74 89 103 114 120 123 123 123 124 129 139 154 169 184 194 199 198 188 168 141 111 86 69 61 57 54 51 48 43 39 36 36 41 54 78 114 151 179 194 
217 216 209 193 170 142 117 105 105 117 137 162 186 202 208 200 176 137 94 62 46 45 58 87 124 159 183 194 189 170 136 97 66 50 45 50 61 76 89 95 93 85 74 67 65 69 81 96 112 121 120 109 92 75 60 48 40 36 35 36 41 48 56 64 72 78 81 82 83 85 91 102 117 137 158 176 189 195 191 178 154 122 90 65 48 39 33 30 27 24 22 22 24 32 48 78 121 163 194 210 
225 224 215 195 164 124 90 70 64 71 89 118 151 180 198 201 187 156 115 77 53 43 48 64 91 121 146 159 158 142 115 85 63 51 49 55 65 77 85 87 81 71 61 53 51 55 67 85 106 125 135 134 124 109 92 76 63 52 44 39 38 39 42 46 51 55 57 58 58 59 62 70 82 101 125 150 173 188 193 187 169 140 106 74 50 35 27 22 19 17 17 18 23 32 52 87 134 177 205 220 
228 225 214 192 153 107 69 46 38 41 53 78 113 153 183 197 194 173 138 98 66 48 44 50 65 86 107 121 125 116 99 81 68 62 64 72 83 92 96 92 81 68 56 48 46 50 63 84 111 137 156 163 160 151 136 118 99 81 67 56 50 47 47 48 51 54 54 53 50 48 47 49 57 70 91 120 150 176 192 195 186 164 132 97 66 44 31 23 19 18 18 21 27 40 64 101 148 187 212 224 
224 221 209 184 143 95 57 35 26 25 33 52 84 128 168 193 199 188 161 123 87 60 47 45 51 64 79 92 100 100 95 89 85 86 93 103 114 121 120 109 92 73 58 49 47 53 68 93 125 155 176 188 190 186 176 161 142 122 103 88 77 72 70 71 73 74 72 67 59 50 43 40 42 49 65 91 125 161 188 201 201 188 164 131 97 68 47 35 28 26 27 31 39 54 79 116 157 191 211 221 
212 209 198 173 134 88 53 32 22 20 24 38 67 111 158 191 204 201 183 152 114 80 58 48 47 53 64 77 90 100 106 111 116 123 133 144 153 155 149 132 108 84 66 56 55 63 82 111 144 173 193 204 208 206 200 190 176 160 143 129 119 114 113 114 116 116 110 99 82 64 48 38 34 37 47 68 102 144 181 203 211 208 193 169 138 106 79 61 50 46 46 51 60 75 97 127 158 183 199 208 
186 186 179 160 127 88 56 35 24 20 23 35 61 105 154 191 209 212 201 178 144 106 76 57 50 52 60 75 93 112 129 142 153 163 172 180 185 184 173 152 123 95 75 66 68 81 104 135 165 189 204 212 214 213 208 201 191 181 171 164 160 160 162 165 167 166 159 143 118 88 61 42 32 30 36 52 82 126 171 202 217 220 214 200 178 151 125 103 89 83 82 85 92 101 114 130 147 161 172 180 
144 151 153 145 124 95 67 45 32 26 27 38 64 108 158 195 214 220 214 198 170 132 95 69 57 55 63 80 104 131 155 173 185 193 200 204 205 200 186 162 130 101 82 76 84 103 131 160 185 202 211 214 213 208 201 193 185 180 178 180 185 191 197 202 205 204 198 183 155 117 78 49 33 27 29 41 66 109 158 197 218 227 226 220 207 190 170 153 140 133 130 130 131 130 127 124 124 125 130 136 
97 111 125 132 127 110 86 63 46 37 36 47 75 119 167 201 219 225 223 211 188 152 112 80 63 59 67 87 117 150 177 195 206 212 215 216 213 204 186 158 126 99 84 84 99 125 156 182 200 210 214 211 204 192 178 166 158 157 163 175 190 203 214 221 225 225 221 209 184 143 95 57 35 25 25 33 54 92 143 187 215 228 231 229 222 213 201 191 183 178 175 172 165 153 134 112 95 86 83 87 
62 80 105 127 137 132 114 89 66 52 49 60 89 133 178 208 223 229 227 217 196 161 119 84 65 60 68 91 125 161 190 208 217 221 222 219 212 198 174 143 111 89 80 87 109 141 173 197 210 215 213 204 187 165 142 124 115 117 129 150 176 199 216 227 233 235 232 223 201 163 112 66 38 25 22 28 44 77 124 171 205 222 229 229 226 221 215 210 206 204 203 198 188 166 134 99 71 55 49 51 
43 64 96 130 153 157 144 118 90 70 63 74 103 146 186 213 226 230 227 217 194 158 115 80 60 56 65 88 124 164 195 213 221 224 223 217 205 184 154 119 90 73 71 84 112 149 182 204 215 217 210 193 166 133 101 80 71 74 88 114 148 182 208 225 234 237 236 229 211 176 126 76 43 27 22 25 37 63 103 149 185 207 217 219 218 215 212 212 212 214 214 211 198 173 133 89 56 38 30 32 
37 62 100 141 170 179 169 143 110 84 74 83 112 153 190 214 226 229 224 211 185 145 101 68 51 48 57 79 116 158 192 212 221 224 220 211 193 165 129 94 70 58 60 76 107 147 183 205 215 215 205 182 146 105 71 50 42 44 56 79 114 155 190 214 228 234 235 230 215 185 139 88 51 32 25 25 34 52 82 119 154 178 190 194 194 193 194 198 204 211 215 214 202 176 133 86 50 31 24 26 
43 72 114 157 185 194 184 156 120 90 77 83 110 150 188 212 223 225 219 201 168 124 82 54 41 39 47 68 103 146 183 206 217 219 214 201 178 144 106 75 55 48 52 68 98 138 175 199 211 210 198 172 132 89 55 36 28 28 36 53 82 121 162 194 215 226 230 227 216 192 152 105 66 43 33 30 35 46 64 89 115 134 145 149 150 151 156 167 182 197 208 211 203 179 138 90 53 33 26 29 
61 94 137 175 197 201 187 156 116 84 70 75 99 138 178 205 218 220 210 188 149 103 64 42 32 31 39 57 88 130 169 196 209 211 204 188 161 125 90 64 49 44 48 62 88 123 159 185 199 200 190 164 126 85 53 35 26 24 28 38 58 89 127 163 191 208 217 219 213 196 167 128 91 65 51 45 44 47 55 67 79 89 94 96 96 98 107 123 148 174 195 205 202 183 147 102 65 44 37 43 
93 127 164 192 205 202 181 144 102 71 57 61 82 120 162 194 210 213 202 175 132 86 52 33 26 27 34 49 76 114 152 179 193 195 187 169 142 111 83 63 53 49 52 61 79 106 136 161 177 182 176 157 127 93 65 46 35 30 29 33 44 63 91 123 154 177 193 202 204 197 180 154 126 102 84 73 65 60 57 56 56 56 56 54 53 55 64 82 111 146 178 197 200 188 160 122 88 67 61 70 
