P2
100 100
255
131 139 146 150 148 141 129 116 104 97 96 101 111 124 137 148 154 154 149 138 124 109 96 88 83 84 88 96 107 118 129 137 142 142 140 134 128 121 115 109 105 102 102 103 108 115 124 134 142 147 148 144 136 124 111 100 93 89 89 93 99 107 115 123 129 134 137 139 141 141 140 138 134 130 126 122 119 116 112 109 104 99 94 89 85 85 88 96 108 123 137 148 153 153 147 139 130 123 121 124 
145 152 156 156 150 139 124 108 96 88 87 92 102 115 130 142 149 151 146 137 124 110 99 91 87 88 92 100 110 120 129 134 137 136 134 130 126 123 121 118 116 114 111 109 109 111 116 122 130 137 141 142 139 132 124 116 110 105 103 103 104 107 109 112 114 117 120 125 131 137 143 147 149 148 146 142 137 129 121 112 103 94 87 81 79 79 84 92 105 120 134 146 152 153 150 145 139 136 136 139 
157 162 164 161 153 139 122 104 91 83 81 86 96 109 124 137 146 149 147 139 128 117 107 100 97 98 102 109 117 124 128 131 130 128 126 124 124 125 128 130 131 129 125 120 115 110 109 111 116 123 130 136 140 140 138 134 129 125 120 116 112 108 105 102 101 101 105 112 121 133 145 154 161 164 163 160 153 143 131 118 105 94 86 80 78 80 85 94 107 121 134 143 149 150 149 146 143 143 146 151 
163 168 169 166 156 141 122 104 90 82 80 84 94 107 122 136 146 150 149 144 136 127 120 115 113 114 118 122 127 129 129 126 122 118 115 115 119 126 134 142 146 146 142 134 123 113 105 102 103 109 119 129 139 146 150 150 148 144 137 129 120 110 102 95 91 90 94 102 115 130 146 160 169 174 175 172 165 154 140 124 110 98 89 85 84 87 93 102 113 124 134 140 144 144 142 141 141 144 149 156 
165 171 172 168 158 143 124 106 92 84 83 87 96 109 124 137 147 152 153 150 145 139 134 131 131 132 135 137 138 135 129 121 113 106 103 105 112 124 138 150 159 162 158 148 133 117 103 95 93 97 107 121 135 148 157 162 162 158 150 139 126 112 100 91 85 84 87 97 111 129 147 163 173 179 180 177 170 159 145 130 115 104 97 94 95 100 106 115 123 130 135 136 135 133 130 130 132 138 147 156 
162 170 172 168 159 144 127 110 97 90 89 93 103 115 129 141 150 154 155 154 151 148 146 145 147 149 151 151 148 141 130 117 105 95 91 94 103 119 138 155 168 173 170 160 143 123 104 91 85 88 97 113 131 148 161 168 169 165 156 143 128 112 99 89 83 82 87 97 111 130 148 163 173 179 180 177 170 160 147 133 120 111 107 107 110 116 124 130 135 137 136 131 125 119 115 115 119 127 139 151 
157 166 169 166 157 144 128 113 102 97 97 103 112 124 136 145 151 154 155 153 152 151 151 154 157 160 162 161 156 145 131 114 98 87 82 84 95 112 135 156 172 179 178 169 152 129 107 90 82 82 91 107 127 146 161 169 171 167 157 143 127 111 98 89 85 86 91 101 115 131 147 160 169 173 174 170 164 154 143 132 123 118 118 121 127 135 142 146 147 144 136 126 114 105 100 99 104 114 128 143 
149 159 163 161 153 140 127 115 107 104 107 114 123 133 142 148 150 151 149 147 146 146 149 154 160 164 167 166 160 149 132 113 95 82 76 78 88 106 130 154 172 181 182 175 158 136 112 93 83 82 89 104 124 143 158 167 168 163 152 138 123 109 99 93 92 94 101 110 122 134 146 154 160 162 161 158 152 144 136 129 124 124 127 134 143 151 158 160 157 149 136 120 105 93 86 85 91 102 117 134 
142 152 156 153 145 134 123 115 110 111 116 124 133 141 146 147 146 142 138 134 133 135 140 147 155 163 167 167 162 151 134 114 95 81 74 75 83 101 124 149 169 180 183 177 163 142 118 99 87 85 91 105 124 142 155 162 161 155 143 130 117 107 101 100 102 108 115 123 131 138 143 146 147 147 144 141 136 131 127 124 124 127 135 145 155 164 169 170 165 153 135 115 97 84 77 76 82 93 109 127 
137 146 148 144 136 126 118 113 112 117 124 133 141 146 147 144 137 130 123 118 116 119 125 135 146 156 163 165 162 152 137 118 100 85 77 76 83 98 120 143 163 176 180 176 164 146 125 107 95 93 98 110 126 141 151 155 152 144 132 120 110 105 104 108 115 124 131 137 140 141 140 137 133 129 126 123 120 118 117 118 122 129 139 151 162 171 176 175 169 155 135 112 93 79 72 72 78 90 106 123 
136 142 141 136 127 117 111 109 113 121 131 140 146 148 145 137 126 115 106 100 98 102 109 120 133 146 155 160 159 153 141 125 108 94 85 83 87 99 117 138 156 169 174 173 164 149 132 116 106 103 108 118 131 142 148 148 142 132 120 110 104 104 109 118 130 140 148 151 150 145 137 128 120 114 110 108 108 109 111 114 121 129 141 153 165 173 178 177 170 155 134 111 91 77 71 72 79 91 107 123 
138 141 137 129 118 110 106 107 113 124 135 145 150 148 141 129 115 101 91 85 84 88 96 108 121 135 146 153 156 153 145 133 120 108 99 95 97 105 118 134 149 160 166 166 160 149 137 125 117 115 119 127 136 143 145 141 133 121 109 101 99 103 113 128 142 154 161 162 157 148 135 122 110 103 99 99 101 104 108 113 120 128 139 151 163 171 176 175 168 154 133 111 92 79 74 76 85 98 113 128 
142 142 135 124 113 105 102 106 115 127 140 149 152 147 136 121 105 90 81 76 76 80 88 100 113 127 138 146 151 151 148 141 133 124 117 112 111 114 121 130 141 149 155 156 153 147 139 132 127 126 130 135 141 144 142 135 124 111 101 95 95 103 117 134 151 164 170 170 163 150 134 119 106 99 96 97 101 105 110 114 120 126 135 146 156 165 171 171 164 151 133 112 95 84 81 84 94 108 123 136 
148 144 134 121 109 102 101 106 118 132 144 152 153 146 133 115 98 84 76 72 74 79 88 98 110 122 132 139 144 147 148 148 145 141 136 131 127 125 125 128 132 137 141 143 143 142 139 136 134 135 138 141 144 143 139 129 117 105 95 91 93 103 119 138 156 169 175 173 165 152 135 119 107 100 99 102 107 112 115 118 120 123 129 137 146 155 161 163 158 147 131 114 99 91 89 95 106 120 134 144 
152 146 134 120 108 101 102 109 122 137 149 156 155 146 131 112 95 82 76 74 78 85 94 104 113 121 127 132 137 141 146 150 153 154 152 148 142 135 129 124 122 123 125 128 131 134 135 136 138 139 142 143 144 141 135 125 113 101 93 89 92 102 119 138 156 168 174 172 164 151 136 122 112 107 108 112 117 121 122 121 119 119 121 126 133 142 149 153 151 143 130 116 104 98 98 105 118 132 144 152 
155 146 133 119 107 102 104 112 126 141 153 159 157 147 131 112 96 85 81 82 88 97 106 114 119 122 123 125 127 133 140 149 157 163 164 161 153 143 131 120 113 109 110 113 119 125 130 135 138 140 142 142 141 137 131 122 112 102 94 92 94 103 117 134 150 162 167 166 160 149 136 125 119 117 120 124 129 131 129 124 118 113 111 114 120 128 136 141 142 137 128 118 109 105 107 115 127 141 151 156 
154 144 131 117 106 102 105 115 130 145 156 161 158 148 132 115 101 93 91 95 104 114 122 127 128 125 120 116 116 121 131 144 157 166 170 168 160 146 130 114 103 97 96 100 107 116 125 132 136 138 139 138 136 132 128 121 114 106 101 98 99 105 115 128 141 150 155 155 151 143 135 128 126 127 131 136 140 139 134 125 115 107 102 102 107 115 124 131 134 133 127 120 114 112 115 123 134 146 154 157 
151 140 127 114 104 101 105 116 130 145 156 161 158 149 135 120 108 103 105 112 122 132 139 140 135 126 115 107 104 108 119 135 152 165 172 171 162 146 126 107 93 86 85 90 99 110 121 129 134 135 134 132 130 127 125 122 119 115 111 108 107 109 114 121 128 135 139 140 138 134 131 130 132 136 141 146 147 144 136 124 112 101 95 94 98 106 116 124 130 131 128 123 118 117 120 128 138 147 154 155 
146 135 122 110 101 99 103 114 128 142 153 157 156 148 136 125 117 115 120 129 140 149 153 150 140 125 109 98 93 96 107 125 145 161 170 169 160 142 121 100 86 78 78 84 95 108 120 129 133 133 129 126 123 122 123 125 127 127 126 123 119 116 114 114 115 118 120 122 123 124 126 130 136 142 148 151 151 145 135 121 107 96 90 89 93 101 112 122 129 132 130 127 124 123 125 132 140 147 152 151 
142 131 118 106 98 96 100 109 122 135 145 150 150 145 137 129 125 127 133 143 154 161 161 155 140 121 103 89 83 85 97 116 137 155 165 165 155 137 114 94 80 74 75 83 96 110 124 132 134 131 125 119 116 117 122 129 136 141 142 140 133 125 116 109 104 102 103 105 109 114 121 129 138 146 152 154 151 143 131 116 103 93 87 87 92 102 113 124 132 136 136 133 130 129 131 135 141 147 149 148 
140 129 117 105 97 93 95 103 113 125 134 140 142 139 135 132 131 136 144 154 162 167 165 155 137 116 96 82 76 78 90 109 131 150 160 160 150 130 108 89 77 72 76 86 102 118 132 139 138 132 122 114 110 112 120 132 145 154 158 156 148 136 121 107 97 91 89 92 97 106 117 129 140 148 153 153 148 139 126 111 99 91 87 89 96 106 119 130 139 143 143 141 138 136 136 139 143 147 149 147 
142 132 119 107 98 93 93 97 104 114 122 129 132 133 132 133 136 142 150 159 166 168 164 151 132 110 90 77 72 76 87 106 128 147 156 156 145 126 104 87 77 75 82 95 113 130 143 148 145 134 121 109 104 106 117 133 150 163 170 169 161 146 127 108 93 84 81 83 91 102 116 130 142 150 154 152 145 133 120 107 96 90 89 93 102 114 127 138 146 150 150 148 144 142 142 143 147 150 151 148 
147 138 126 114 103 96 92 93 98 104 111 118 123 126 129 132 138 145 154 161 166 166 160 146 127 106 88 77 73 77 90 108 129 146 155 153 141 123 103 88 80 82 92 108 128 146 157 159 152 137 120 105 97 99 111 130 151 168 178 179 171 155 134 111 92 81 77 80 89 103 118 134 146 152 153 149 140 128 115 103 95 92 93 99 109 122 135 146 153 156 155 152 148 146 145 146 149 152 154 152 
154 147 137 124 112 102 96 94 95 99 104 110 116 121 127 132 139 146 154 160 163 162 154 140 123 104 89 80 79 85 97 115 134 148 155 152 140 122 105 92 88 92 106 125 145 161 170 169 159 141 119 101 91 92 104 124 148 168 181 184 177 162 140 115 94 81 77 81 91 106 123 139 149 154 153 146 135 123 110 101 95 94 98 105 116 129 141 150 156 157 155 152 147 145 144 146 150 154 157 157 
161 156 148 136 124 112 103 98 97 98 102 108 114 120 127 133 140 146 152 157 158 155 147 135 120 105 94 89 90 97 110 126 142 153 157 152 140 124 108 99 97 105 121 141 161 174 180 177 165 144 119 97 85 84 95 116 141 164 179 185 180 166 144 119 97 84 80 85 96 113 130 144 153 155 151 142 130 118 107 100 97 98 103 112 123 134 144 151 154 153 150 145 140 137 137 140 145 152 158 161 
164 163 157 148 136 124 113 106 103 103 106 111 117 123 130 135 141 145 149 151 150 147 140 131 120 110 103 101 105 113 126 139 151 158 159 152 140 125 112 105 107 117 135 155 172 184 188 183 169 146 118 94 80 77 87 106 132 157 175 182 179 166 146 122 101 89 85 91 103 120 136 148 155 154 148 138 126 114 106 101 100 103 110 118 128 137 144 147 147 143 137 131 126 123 123 127 135 144 154 161 
163 165 163 156 146 134 124 117 113 112 115 119 125 130 135 139 142 143 144 143 141 137 132 126 120 115 114 116 122 131 142 152 159 162 159 151 139 125 114 110 114 126 144 163 179 189 191 186 171 147 118 93 77 73 79 97 122 147 167 176 175 164 146 124 105 94 91 98 110 126 141 150 154 151 143 132 121 112 106 104 106 111 117 125 132 138 141 140 136 129 121 113 107 104 105 110 120 132 144 155 
156 162 163 158 151 141 133 126 123 123 126 131 136 140 142 143 142 140 137 133 129 125 122 120 119 120 124 131 139 148 156 162 165 164 157 147 134 122 113 111 116 129 147 165 180 189 191 185 170 147 119 93 76 70 75 90 112 137 158 168 169 160 144 125 108 98 97 104 116 130 142 149 149 144 136 125 116 111 108 110 114 120 127 133 137 139 137 132 124 114 103 95 88 85 86 92 102 116 131 145 
146 154 157 155 150 143 136 132 131 134 138 143 147 149 149 146 142 135 128 121 116 113 111 113 116 123 132 142 151 159 165 168 167 162 152 140 127 115 107 106 112 125 142 160 174 183 186 181 168 146 120 95 78 71 74 86 106 129 148 160 162 154 141 124 110 103 103 109 120 132 140 144 142 136 127 119 114 112 114 119 126 132 138 142 143 141 135 126 114 102 90 80 74 71 72 77 86 100 116 132 
134 143 147 146 143 138 134 134 136 141 147 152 156 157 154 149 140 129 119 110 103 100 100 104 112 123 136 148 159 166 170 169 165 156 144 130 117 105 99 98 103 115 130 147 162 172 177 174 163 145 122 100 84 76 77 87 104 123 141 152 154 148 137 123 112 106 107 113 122 131 136 137 133 127 120 115 113 116 122 131 139 146 150 152 150 145 136 124 110 95 83 73 66 63 63 67 75 87 103 120 
123 132 135 134 131 128 127 129 135 143 151 158 161 161 157 149 137 123 110 99 92 89 91 97 107 121 136 150 161 168 170 167 160 149 134 119 106 95 89 88 92 101 114 129 144 156 163 163 157 143 125 106 92 85 85 93 106 122 137 146 148 143 133 122 113 109 110 115 122 128 130 129 125 119 114 113 116 123 133 143 152 159 162 161 158 150 140 127 112 97 83 73 65 61 61 64 71 82 96 111 
118 123 124 122 118 116 117 121 129 140 150 158 162 162 157 147 133 118 103 92 85 82 84 91 103 118 134 149 160 166 167 162 153 139 124 108 96 86 81 80 82 88 98 110 124 136 145 150 148 140 128 115 104 98 98 103 113 125 136 142 143 138 130 121 114 111 112 116 121 125 125 122 118 113 112 114 122 132 144 155 164 168 170 168 163 156 146 134 120 106 93 82 73 69 67 69 75 84 96 108 
119 120 117 112 107 104 106 111 121 133 145 154 159 159 153 143 129 113 99 88 82 80 82 89 101 116 132 147 158 163 162 156 145 130 114 100 88 80 76 74 75 79 86 95 106 118 128 136 139 138 132 125 118 114 113 117 124 132 138 142 140 135 127 120 115 113 114 117 121 122 121 118 114 112 113 119 129 142 154 164 171 173 172 169 164 158 151 142 132 121 110 99 91 85 83 84 89 96 105 113 
126 123 116 108 101 97 97 102 111 123 136 146 151 152 147 138 125 112 99 90 84 83 85 92 103 117 132 145 154 158 156 148 137 122 107 94 85 78 74 73 73 75 79 86 94 104 114 124 131 135 135 134 131 129 129 132 136 140 143 143 139 133 126 119 115 114 115 118 121 122 120 117 114 114 118 126 137 150 161 168 172 172 169 164 159 155 152 149 145 139 132 124 117 111 108 107 110 115 121 125 
138 131 121 110 100 94 93 96 104 114 125 134 140 142 139 132 123 113 103 97 92 92 94 100 110 121 133 144 150 152 149 141 129 115 102 92 84 80 78 77 77 79 81 84 90 97 106 116 125 132 137 140 141 142 143 145 146 147 147 144 139 132 124 118 115 114 116 119 122 122 121 119 117 119 124 132 143 154 162 166 166 162 156 151 147 145 147 151 154 155 154 150 145 140 137 135 136 138 141 141 
150 141 129 117 105 97 94 95 99 107 115 122 128 130 130 127 122 117 112 108 107 107 109 114 120 129 137 143 147 146 141 133 122 110 100 92 88 86 86 87 89 90 90 92 94 98 104 112 120 129 136 142 147 150 152 153 154 153 150 145 138 131 123 117 115 115 117 120 123 124 124 122 122 124 129 137 146 153 157 157 152 145 136 129 127 129 137 147 158 166 170 171 168 165 162 159 158 158 157 155 
158 150 139 127 115 106 100 98 99 102 107 112 116 119 121 122 123 123 124 124 125 126 127 130 133 137 141 143 143 140 134 125 115 106 99 95 95 97 100 104 107 108 108 107 106 105 107 111 117 125 133 140 147 152 155 157 157 155 151 145 137 129 121 116 114 115 118 122 125 126 127 126 126 128 133 138 144 147 147 142 132 121 111 105 103 109 121 138 155 169 178 182 182 180 177 173 171 169 167 163 
160 154 147 137 127 118 111 106 103 102 102 103 106 109 114 119 125 131 136 140 143 144 145 145 145 145 144 142 138 133 126 118 110 103 100 100 104 110 118 125 130 132 131 127 122 117 114 112 115 120 127 134 142 149 153 156 156 154 149 143 135 126 120 115 114 115 119 123 127 129 129 129 129 130 133 136 138 137 132 123 111 98 88 82 82 90 105 126 148 167 180 186 187 184 180 176 172 169 166 164 
155 154 151 146 140 133 125 117 110 104 100 98 99 103 109 118 128 139 148 154 158 159 159 156 153 149 144 139 133 126 118 111 105 101 101 105 114 124 136 145 152 155 153 148 139 130 121 115 112 114 119 126 134 141 147 150 151 149 145 138 131 124 118 115 115 117 121 126 129 131 131 130 129 129 130 130 129 125 117 105 92 80 71 67 68 76 92 114 139 160 175 181 182 179 173 167 161 158 156 156 
144 149 152 152 150 146 139 129 119 110 102 97 96 99 107 118 132 145 156 164 168 168 166 162 156 149 142 134 127 119 112 105 101 100 103 111 123 137 150 162 169 172 170 163 153 140 127 116 110 108 111 117 124 131 137 141 142 141 137 132 126 121 118 117 118 121 126 129 132 133 132 129 127 125 124 123 120 114 105 93 81 70 63 59 61 69 84 105 130 151 165 171 171 165 156 148 141 137 137 140 
129 139 149 155 158 156 150 141 129 117 106 98 96 98 107 119 134 149 160 168 171 170 166 160 153 145 136 129 121 114 108 103 101 102 107 116 130 146 160 172 179 182 179 172 160 145 129 116 107 104 105 110 116 122 127 130 131 130 128 124 121 119 119 121 124 128 132 135 136 134 131 127 123 120 117 115 112 106 98 88 77 68 62 59 61 69 83 102 124 142 154 157 153 144 133 123 116 113 114 120 
115 129 144 155 162 163 159 150 138 124 111 102 98 100 108 121 136 150 160 167 168 166 160 153 145 137 130 123 118 112 108 105 104 106 111 122 136 151 165 176 182 184 181 173 161 145 129 115 106 102 103 106 111 116 119 120 120 119 117 116 116 118 122 126 132 137 140 142 140 136 130 124 118 114 111 110 108 104 98 91 82 75 70 68 70 77 89 105 122 136 143 142 134 123 110 99 92 90 94 102 
104 121 139 153 163 166 164 157 145 130 117 107 102 104 111 123 136 148 157 160 160 156 149 142 134 128 123 120 117 115 113 111 111 113 118 128 140 153 165 174 179 180 176 168 155 140 126 114 107 105 106 109 112 114 114 112 110 108 107 108 111 117 125 134 141 147 150 149 145 138 129 120 113 109 107 107 108 108 106 101 96 90 86 84 86 92 102 114 125 133 134 129 118 104 92 82 76 76 80 89 
98 116 135 151 162 167 166 159 149 135 122 112 107 108 114 124 134 143 149 150 147 142 135 128 123 120 119 120 121 122 122 122 122 123 127 134 143 153 162 168 171 170 165 156 144 132 121 114 111 112 115 118 119 118 114 108 102 98 97 100 106 117 129 141 151 157 159 156 150 139 128 117 109 105 105 108 113 117 119 119 116 113 110 108 109 113 120 127 132 134 130 120 107 93 82 73 69 70 74 84 
99 115 132 148 158 164 164 159 150 138 126 117 112 112 116 123 131 136 139 137 133 126 120 115 113 114 118 123 128 132 134 135 134 134 136 139 144 150 155 158 158 154 148 139 130 122 117 116 119 124 129 133 132 127 118 107 97 91 89 93 102 116 132 147 159 166 167 162 153 140 126 114 106 103 106 112 120 128 135 138 138 137 135 134 134 136 138 140 140 136 128 116 102 90 80 73 71 72 77 86 
104 117 131 144 153 158 159 155 148 138 128 121 116 115 117 121 126 128 127 124 118 112 108 106 108 113 121 130 138 144 147 147 146 144 143 143 144 145 146 145 142 136 128 121 114 111 113 119 129 139 147 150 148 139 125 109 95 86 83 87 98 115 134 152 165 171 172 166 155 140 125 112 105 104 108 117 129 140 149 154 157 157 156 155 154 153 152 150 146 139 128 116 103 92 84 80 79 80 85 93 
112 121 130 139 145 149 151 148 143 136 129 122 118 116 117 118 119 119 116 112 106 102 100 101 107 115 127 138 147 153 156 156 153 150 146 143 141 139 137 132 126 118 110 104 100 102 110 123 139 153 163 167 163 152 134 113 95 83 79 83 95 113 135 154 168 174 174 167 154 139 123 111 105 106 112 123 137 149 158 164 167 168 167 165 163 161 158 154 148 139 128 117 107 99 94 92 92 95 99 105 
121 124 128 132 135 138 140 139 137 133 128 123 119 117 116 115 114 111 108 103 99 97 98 102 110 121 134 146 154 160 161 159 155 150 145 140 136 132 127 121 112 103 96 91 90 96 109 127 147 165 176 179 175 162 142 118 96 82 77 81 93 112 134 154 168 173 172 164 151 136 121 111 107 109 117 129 142 154 162 167 169 168 167 164 162 159 156 151 144 136 127 119 112 108 107 107 110 112 115 118 
128 125 124 123 124 126 128 129 129 128 126 122 119 116 114 112 109 106 103 99 97 97 100 107 117 129 142 152 158 161 160 156 150 143 138 133 129 125 120 113 104 95 87 83 84 92 108 129 153 172 184 187 183 169 148 122 99 83 77 80 92 111 133 152 165 169 167 158 145 131 119 111 110 114 123 134 145 154 160 162 161 159 157 154 152 150 147 143 138 132 126 121 118 118 120 124 127 130 131 130 
132 124 118 114 112 113 116 120 122 124 124 122 120 117 113 110 107 104 101 99 99 102 107 116 126 138 148 155 158 157 152 146 138 131 126 123 121 119 116 110 102 92 85 80 81 90 106 129 153 173 186 190 185 172 151 125 101 85 79 82 94 112 132 149 160 163 159 150 138 126 117 112 114 120 129 138 146 151 152 151 147 143 140 137 136 136 135 133 131 127 125 123 124 127 133 138 143 144 143 139 
133 121 111 105 102 103 107 112 118 122 124 124 122 119 115 111 108 105 104 103 105 109 116 125 135 145 152 155 154 149 140 131 122 115 112 112 113 115 115 112 105 96 88 82 82 89 104 126 150 170 183 187 183 170 150 125 104 89 84 88 99 115 132 146 153 153 148 139 129 120 115 115 119 127 135 142 146 146 142 136 130 124 120 119 120 122 124 125 125 125 125 126 130 135 142 149 153 154 151 143 
131 117 105 98 95 96 101 109 116 123 126 127 126 123 119 115 112 110 110 111 114 119 126 134 143 150 153 152 147 138 126 114 105 100 99 102 108 115 119 119 114 105 95 87 84 88 100 119 141 161 173 178 175 163 145 124 106 95 92 97 108 122 134 143 146 143 136 127 120 115 115 119 126 134 141 144 144 139 131 122 113 107 104 104 107 112 117 121 124 126 127 130 135 141 148 155 159 159 154 144 
129 114 101 93 91 94 100 109 119 127 132 133 132 129 126 122 119 118 118 119 123 128 134 141 148 152 152 148 139 127 113 100 91 87 89 96 106 118 127 130 127 119 107 96 90 90 97 112 130 147 159 164 161 151 136 121 108 102 103 109 120 130 138 142 140 133 125 117 112 112 116 123 133 141 146 147 142 133 122 110 100 95 93 96 102 109 117 123 127 130 132 135 139 145 152 158 161 160 154 143 
127 112 100 93 91 95 103 114 125 134 139 141 140 137 134 130 128 126 126 128 130 134 139 145 149 151 149 143 132 118 103 91 83 80 84 93 108 124 137 143 142 134 121 107 97 92 95 104 117 131 141 145 143 136 125 116 110 110 115 124 133 141 144 142 134 125 115 108 106 110 118 129 139 147 151 148 141 129 115 103 94 90 90 95 103 113 122 129 133 136 137 139 142 147 153 158 161 159 153 142 
126 112 101 95 95 100 110 122 133 142 147 149 148 145 141 138 135 134 133 134 135 138 141 144 147 148 146 139 128 114 99 87 80 78 83 95 112 131 147 156 156 149 135 119 105 96 94 98 107 116 123 126 124 120 114 110 111 117 127 137 146 151 149 142 130 118 108 102 103 110 121 134 145 152 154 149 139 126 112 100 93 90 93 100 110 120 130 136 139 140 140 141 143 147 153 157 160 158 151 140 
126 113 103 99 100 107 118 131 142 150 155 156 154 150 146 143 140 138 137 136 136 137 139 141 143 144 142 136 127 114 101 89 82 81 87 99 118 138 155 165 167 160 147 130 114 102 96 96 100 106 110 111 109 106 104 105 112 123 136 149 157 159 153 142 127 112 102 98 101 111 124 138 149 155 155 149 138 124 111 101 95 95 100 108 118 128 136 141 142 141 140 139 141 145 150 155 157 156 150 139 
126 114 106 103 106 115 126 139 150 157 160 160 157 152 148 144 141 138 136 135 134 133 133 135 137 139 140 136 129 119 107 96 89 88 93 105 124 144 160 170 172 166 154 138 121 109 101 99 100 103 103 102 99 97 97 102 112 127 143 156 163 163 155 140 123 107 98 95 100 112 126 141 151 156 154 147 135 123 111 104 101 102 108 116 125 133 138 140 139 137 134 133 135 140 146 151 155 154 148 138 
125 114 107 106 110 120 133 145 155 161 162 160 156 150 144 140 136 134 132 130 128 126 127 129 132 136 139 139 135 127 117 107 99 96 100 111 128 146 161 170 172 167 157 142 127 116 109 107 107 107 105 102 97 94 94 100 113 129 146 159 165 163 153 136 118 103 94 93 100 112 128 142 151 154 151 143 132 121 113 108 107 110 115 122 129 133 135 134 130 126 124 123 127 133 141 148 152 151 146 137 
122 112 106 106 111 122 135 148 157 161 161 157 151 143 137 131 128 125 123 122 120 119 120 123 128 134 140 143 142 136 128 118 109 105 107 115 129 144 158 166 168 164 154 143 131 123 119 118 118 118 114 108 102 96 96 101 113 129 146 158 163 160 148 130 112 98 91 92 100 113 127 140 148 149 145 137 128 120 114 112 113 116 121 125 128 128 126 122 117 113 111 113 118 127 137 145 150 149 143 134 
117 107 101 102 108 120 134 146 155 159 157 152 143 134 126 120 117 115 114 113 113 113 116 120 127 135 142 147 148 145 137 127 118 112 111 116 126 139 150 157 159 155 148 140 133 129 128 131 133 132 128 120 111 103 100 104 114 129 144 155 158 153 141 123 106 94 89 91 100 113 126 137 143 143 138 131 123 118 115 115 118 121 124 125 123 120 114 108 102 99 99 104 112 124 135 144 149 147 140 129 
110 99 94 95 102 114 129 142 151 155 152 145 134 124 114 108 105 104 104 105 107 110 115 121 129 138 146 151 153 150 143 133 123 115 112 114 121 131 140 145 147 144 140 135 132 133 137 142 147 147 143 134 123 113 107 108 116 128 141 150 152 146 133 117 101 91 88 92 101 113 125 133 136 135 130 123 118 116 116 118 122 124 125 123 118 111 103 96 91 90 92 100 111 125 137 146 150 146 137 124 
103 91 86 87 94 106 122 136 146 150 147 138 127 115 105 98 95 95 97 101 105 110 117 125 133 142 150 155 156 152 144 134 123 114 110 110 115 122 129 134 135 133 130 128 129 134 142 151 157 159 156 147 135 123 115 113 118 128 138 145 146 139 127 112 100 92 90 95 104 115 124 129 130 127 121 116 113 114 117 122 126 128 126 122 114 105 96 89 86 87 92 103 116 131 144 152 153 147 134 118 
96 84 79 79 87 99 115 130 141 146 143 134 122 110 99 92 90 90 94 99 106 114 122 131 140 147 153 156 155 150 141 130 119 110 106 105 109 115 121 124 126 125 123 123 127 134 144 155 163 166 163 154 142 130 121 118 121 129 137 142 142 136 125 112 102 97 97 102 110 119 125 127 125 120 114 110 110 113 119 125 130 132 129 122 113 103 94 89 88 91 100 112 128 142 154 159 157 148 132 113 
91 79 73 74 81 94 111 127 139 144 143 134 122 109 98 91 88 89 93 101 110 120 130 139 146 152 155 155 151 144 134 123 113 105 102 102 106 112 117 120 121 120 119 120 124 133 143 154 162 166 163 156 145 133 125 122 124 131 138 143 142 137 128 118 110 106 108 113 120 126 129 127 121 115 109 106 107 113 121 129 135 137 133 126 117 107 99 96 97 103 114 128 143 156 164 167 162 149 130 109 
89 76 71 72 80 93 110 127 140 146 145 138 126 112 101 93 90 91 96 105 116 127 138 146 152 155 155 151 145 135 124 114 106 100 99 102 107 113 119 122 123 121 120 120 124 131 140 150 157 159 157 150 141 131 125 124 127 134 141 146 146 142 135 127 122 120 123 128 133 136 134 129 120 112 105 103 107 114 124 134 140 142 139 132 124 115 110 108 112 120 132 145 158 168 173 173 165 150 129 107 
89 77 73 75 83 96 113 130 143 150 150 143 132 119 107 99 95 96 102 111 123 135 145 153 157 157 153 146 136 125 114 106 100 98 100 105 112 120 126 129 129 127 124 123 124 129 135 142 146 148 145 139 131 125 122 123 129 138 146 151 152 149 144 139 136 136 139 143 146 146 141 133 121 111 104 103 108 117 128 138 145 147 145 139 132 126 122 123 128 137 149 160 170 176 178 175 165 149 128 106 
91 82 79 82 91 105 121 137 149 155 155 150 140 128 116 107 103 104 109 119 130 142 151 157 158 155 148 138 127 115 106 99 97 98 103 112 121 129 136 139 138 135 131 128 126 127 130 132 134 132 129 123 118 115 116 121 130 141 150 156 157 156 153 150 149 151 154 157 158 156 148 137 124 113 106 105 111 121 132 143 149 152 150 145 139 135 134 136 142 151 160 169 175 179 178 173 162 146 126 107 
97 91 90 95 104 117 131 145 155 160 160 155 146 135 124 116 112 112 117 126 137 147 155 158 157 152 142 130 117 106 99 95 96 101 110 121 132 141 146 149 147 143 138 133 129 126 125 123 121 117 112 107 104 104 108 117 130 142 152 159 161 160 158 157 157 160 163 166 166 162 153 140 127 115 109 109 115 126 137 146 152 154 151 147 143 140 140 143 149 157 164 170 173 174 171 164 153 139 123 108 
104 103 106 112 121 132 143 152 159 162 161 157 150 140 131 124 120 120 125 132 142 150 156 158 155 147 135 122 109 100 94 94 98 107 118 131 142 151 155 156 154 149 143 137 131 126 121 116 111 105 99 94 93 95 102 113 128 142 152 159 161 160 158 157 158 162 166 168 168 164 155 142 129 119 114 115 121 131 141 149 153 153 149 145 140 138 139 143 148 154 159 162 162 161 156 149 140 129 119 110 
113 117 123 130 138 146 153 158 161 161 159 155 149 142 135 129 126 127 131 137 145 152 156 155 150 140 127 114 102 94 92 94 102 113 127 140 151 158 161 160 156 151 144 138 132 126 119 113 105 97 91 86 85 89 97 110 125 139 150 155 156 153 151 150 151 155 160 164 164 160 153 142 131 122 119 121 128 137 145 150 151 149 143 137 133 130 131 134 139 143 145 146 144 141 136 130 124 118 114 112 
122 130 138 146 152 156 159 160 159 157 154 150 146 140 136 132 130 131 135 141 147 152 155 152 145 134 120 107 97 91 91 96 106 119 134 147 156 161 162 159 154 148 142 136 131 126 120 112 104 95 88 84 83 87 95 108 123 136 144 147 146 141 137 135 137 141 147 151 153 152 146 138 130 125 124 127 134 142 148 150 148 142 134 126 121 118 118 121 124 126 127 126 123 119 114 111 108 108 110 115 
129 140 149 156 160 161 160 157 153 149 146 142 139 136 133 131 131 133 137 142 148 152 153 149 141 129 115 102 93 89 90 97 109 124 139 151 158 161 160 155 148 142 136 132 129 126 121 115 107 99 91 86 85 89 97 109 121 132 137 137 133 126 120 117 117 122 128 134 138 138 136 132 128 126 128 133 140 146 149 148 142 133 123 114 107 104 104 106 108 109 109 107 104 100 97 96 97 101 108 118 
134 145 154 160 161 160 156 150 145 140 136 133 131 129 129 128 130 132 137 142 147 150 151 146 138 125 111 99 90 87 89 97 110 125 140 151 158 158 155 148 140 133 128 125 125 125 123 120 114 106 99 93 92 94 101 111 121 129 131 127 120 110 103 98 98 101 108 114 120 123 124 124 124 126 131 137 144 148 149 144 135 124 112 102 95 93 92 94 96 98 97 95 93 90 88 88 92 99 108 121 
135 145 153 156 156 153 147 141 135 129 126 124 123 123 123 124 126 129 133 139 144 148 149 145 136 124 110 98 90 86 89 96 109 124 139 150 155 154 149 140 131 123 119 118 120 123 126 125 122 116 109 104 102 104 109 117 124 128 127 120 110 99 90 85 83 86 91 98 104 109 113 116 120 126 133 140 146 149 147 139 128 115 103 93 88 85 86 89 92 94 94 93 91 89 89 90 94 101 111 123 
134 140 145 146 145 141 136 130 125 121 118 117 117 117 117 118 119 122 127 133 139 144 147 144 137 126 113 100 91 87 88 95 106 121 135 146 151 150 144 134 124 116 111 112 116 122 127 131 130 127 121 117 114 114 118 124 128 130 126 118 107 95 85 78 76 78 82 87 93 99 104 110 117 125 134 141 146 147 143 134 122 108 97 88 84 84 87 91 95 99 101 101 100 99 99 100 104 109 117 125 
129 132 133 132 130 127 124 120 118 116 115 114 113 113 112 111 111 114 118 125 132 140 145 145 141 132 119 106 96 89 88 93 103 116 130 141 147 147 141 131 120 112 107 108 113 121 129 135 137 136 132 128 126 125 128 131 134 134 130 121 110 98 88 81 77 77 80 84 89 94 100 108 116 125 134 142 146 145 139 129 116 104 94 88 87 89 94 101 107 112 116 117 118 117 117 117 118 120 123 126 
123 121 119 117 115 114 114 114 115 115 116 115 114 111 108 105 103 104 108 115 124 134 143 147 146 140 129 116 103 94 90 92 100 111 125 137 144 146 141 132 121 112 107 107 111 120 129 137 142 143 141 138 135 134 135 138 140 140 136 129 119 109 99 92 87 85 86 88 91 95 101 108 117 126 135 141 144 142 135 125 113 102 95 92 94 99 107 116 125 131 136 138 139 138 137 136 134 132 129 126 
117 111 106 104 103 105 108 112 117 120 121 121 117 112 106 100 95 94 97 104 115 128 141 150 153 150 141 128 114 102 94 93 97 107 120 133 143 146 144 137 126 117 110 109 112 120 129 138 144 146 146 143 140 139 139 141 144 145 144 140 133 125 117 110 105 101 99 98 99 101 105 111 119 128 136 141 143 139 132 121 111 103 99 100 105 114 125 135 144 151 155 157 158 157 155 152 147 141 133 125 
112 103 97 95 97 101 108 116 123 128 131 129 124 116 106 97 90 87 88 95 107 123 139 153 160 161 155 143 128 113 101 95 97 104 116 130 142 148 148 143 134 124 116 113 115 121 130 138 145 148 147 145 142 140 139 141 144 147 149 149 147 143 138 132 127 122 117 113 111 110 112 117 123 131 138 142 142 137 129 120 111 106 105 110 118 130 142 152 160 166 169 170 170 169 166 162 155 146 135 123 
108 99 94 93 96 103 113 123 133 139 141 139 132 122 109 97 87 82 82 88 100 118 137 155 166 170 167 157 142 125 110 100 98 103 113 127 140 149 152 148 141 131 123 118 118 123 130 138 144 147 146 143 140 136 135 137 141 146 151 155 157 157 156 153 148 143 136 129 123 120 120 123 128 135 140 143 142 137 129 120 113 111 113 120 131 143 155 164 170 173 174 174 173 171 168 164 156 146 134 121 
108 100 96 96 101 110 121 133 143 149 152 149 142 130 115 101 89 81 79 84 95 113 135 155 170 177 177 169 155 137 119 106 100 102 111 124 138 148 153 152 146 137 129 123 122 125 131 138 143 145 144 140 135 130 128 129 133 139 147 155 161 166 167 167 164 158 150 142 134 128 126 128 132 138 143 145 144 138 130 122 117 116 120 128 140 152 162 169 172 172 171 169 167 164 162 158 152 143 131 119 
111 105 103 105 110 120 130 141 151 157 159 157 150 139 124 109 95 85 80 83 93 110 132 154 171 181 182 177 164 147 128 112 103 102 108 120 134 145 151 152 147 140 132 127 125 128 133 138 142 143 141 136 129 123 119 118 122 129 138 148 158 166 170 172 170 165 158 149 140 133 130 131 136 141 146 148 146 140 133 125 120 120 124 133 144 154 162 166 166 163 159 155 152 150 148 146 143 137 129 120 
118 115 114 116 122 129 138 147 155 160 163 162 157 148 136 120 105 93 86 85 92 107 128 150 168 180 184 180 170 153 134 116 105 102 106 116 128 139 146 147 144 138 132 128 126 129 134 139 142 142 138 132 123 116 110 108 110 116 125 136 148 158 165 169 168 165 158 149 140 134 131 133 137 144 149 151 149 143 136 128 123 122 126 134 143 150 155 156 152 147 140 135 131 130 130 132 132 131 127 123 
128 128 128 129 132 137 142 148 153 157 161 163 161 156 147 134 119 105 95 90 93 104 122 143 162 175 180 179 170 155 137 119 107 102 104 111 122 131 138 140 137 133 128 125 125 128 133 138 141 141 136 129 120 111 104 100 100 103 111 121 132 143 152 157 159 156 150 143 136 130 129 132 138 144 150 152 151 146 138 131 125 123 126 131 137 141 142 139 133 126 118 112 109 110 113 118 123 127 129 129 
140 141 141 141 140 140 141 142 145 148 153 158 161 161 157 147 134 119 106 97 95 101 115 133 151 165 172 172 166 153 136 120 107 101 102 107 115 123 128 130 128 125 122 121 122 126 132 137 140 139 135 128 119 109 101 96 93 95 99 107 116 125 134 140 143 142 138 133 128 125 125 129 136 144 150 153 152 147 140 133 126 123 123 125 127 128 126 120 113 105 97 93 92 94 101 109 119 127 134 138 
151 152 151 149 144 139 134 131 131 134 140 148 156 162 163 158 148 133 117 104 97 98 106 120 136 150 159 161 157 146 132 118 107 102 102 105 111 116 120 121 119 117 115 115 118 122 128 134 137 137 134 128 120 112 104 97 93 92 93 96 102 109 115 121 125 126 125 122 120 119 121 126 133 141 148 151 151 148 141 134 127 122 120 118 117 114 110 103 95 88 83 80 81 86 95 107 120 132 141 148 
160 161 158 152 144 134 124 117 114 116 123 134 147 158 164 164 157 144 127 111 99 95 98 108 121 134 143 147 145 137 127 116 108 103 103 106 109 113 114 114 112 110 108 109 113 118 124 130 134 135 134 130 124 118 111 105 99 95 93 92 94 97 101 106 109 112 113 113 113 114 117 122 129 137 143 148 149 146 141 135 129 123 118 114 109 104 98 90 83 78 75 74 78 85 97 110 125 139 149 157 
166 165 161 153 141 127 113 102 97 98 105 118 135 150 161 165 162 150 134 116 102 93 92 98 107 118 127 132 132 128 121 114 109 106 107 109 112 113 113 111 108 106 104 105 109 114 119 125 130 133 133 133 130 127 122 117 111 105 100 95 93 92 94 96 100 103 106 108 109 111 114 118 124 130 136 141 143 143 141 137 132 126 120 114 106 99 91 84 78 74 73 75 81 91 103 118 133 146 156 163 
167 165 160 150 137 120 104 91 84 84 90 103 121 140 155 163 162 153 138 120 104 94 90 92 98 107 115 120 122 120 117 113 111 111 113 115 117 118 116 113 109 105 104 104 106 111 116 121 126 130 133 135 137 137 136 133 127 120 113 105 99 95 94 95 98 102 105 108 110 111 112 114 117 122 127 132 136 139 140 139 137 132 126 118 109 100 91 83 78 76 77 82 89 100 114 128 141 152 160 165 
163 161 156 147 133 116 99 85 77 75 80 92 110 129 146 157 159 153 140 124 108 97 91 91 95 102 108 113 116 116 116 115 116 118 121 124 125 125 122 118 113 109 106 105 107 110 114 119 124 128 133 138 143 146 148 147 144 137 128 119 110 104 101 101 103 107 111 113 114 113 112 111 111 112 116 121 128 134 139 143 144 141 136 128 118 107 96 89 84 83 86 92 101 113 125 136 146 154 159 162 
154 153 150 142 130 115 99 85 76 73 76 86 102 121 138 151 155 152 142 128 114 103 97 96 98 103 108 112 115 116 117 119 121 125 129 133 134 133 130 125 119 114 111 109 110 112 115 119 123 128 134 140 147 153 157 158 156 151 143 133 124 117 113 113 115 118 121 123 122 118 113 108 104 103 105 110 118 128 138 146 151 152 148 141 130 119 108 99 95 95 99 106 115 125 134 141 146 150 152 153 
141 142 142 139 130 118 104 90 81 76 77 85 98 116 133 146 152 151 144 133 122 112 106 105 106 109 112 115 118 119 121 124 128 133 137 141 142 141 137 132 126 120 117 115 115 117 119 122 126 130 135 142 149 155 160 163 162 159 152 144 137 131 127 127 130 133 135 135 131 124 115 105 98 94 94 99 109 122 136 149 158 162 161 155 145 133 122 114 109 110 114 121 128 135 139 141 141 140 139 139 
125 130 134 136 133 124 113 100 90 84 84 89 100 116 131 144 151 152 147 140 131 123 117 115 115 117 119 121 123 124 127 130 134 139 144 147 147 146 141 136 130 125 122 120 121 123 125 128 131 134 138 143 148 153 157 160 160 158 154 149 144 141 140 142 145 148 150 148 141 131 117 104 93 86 85 90 100 116 134 150 163 170 170 166 158 147 137 129 125 125 129 135 139 142 141 137 131 126 122 122 
110 118 127 134 136 133 124 113 103 96 94 97 107 120 134 146 153 155 152 146 139 132 127 124 123 124 125 126 127 129 132 135 140 144 148 150 149 147 142 136 131 126 124 124 126 129 132 135 138 139 141 143 144 146 148 149 149 149 147 146 145 146 149 153 157 161 162 159 151 137 120 103 90 81 79 83 93 110 130 150 165 174 176 173 166 157 148 141 138 138 142 145 147 145 139 130 119 111 105 105 
98 109 122 133 140 141 136 127 117 109 106 108 116 127 139 150 156 158 157 152 145 139 133 129 127 126 127 128 129 132 135 139 143 147 149 150 148 144 139 133 127 124 123 125 129 134 139 143 145 146 145 142 140 137 135 133 132 132 133 135 140 145 152 160 166 170 171 167 157 142 123 104 88 78 74 78 87 104 125 146 163 173 177 175 169 161 153 148 146 147 150 152 151 146 136 122 108 97 91 92 
91 103 119 134 144 147 144 137 128 120 116 118 125 135 146 155 160 162 160 155 148 140 134 128 125 123 124 125 128 132 137 142 146 149 150 148 145 139 132 125 120 118 118 122 129 136 144 149 152 152 148 142 135 127 120 115 112 112 115 121 129 140 151 161 170 174 175 171 162 146 126 106 89 77 73 75 84 99 119 139 156 167 171 170 165 158 152 148 148 150 154 155 153 145 132 116 100 89 83 83 
89 102 119 135 146 150 148 142 133 126 123 125 131 141 151 159 164 164 161 155 146 137 128 121 117 115 116 119 124 130 137 142 147 149 149 145 140 132 124 117 112 110 112 117 126 136 145 153 157 156 151 143 131 118 107 99 94 94 98 106 117 132 146 159 169 175 176 173 163 148 129 109 92 80 75 75 82 95 112 131 146 156 160 158 154 148 144 142 144 149 153 156 153 145 131 114 98 86 80 81 
92 106 122 137 147 150 147 140 132 125 123 125 133 143 153 160 165 165 160 152 141 130 119 111 106 104 106 111 118 126 135 142 147 149 147 142 135 126 117 109 104 102 104 111 120 132 144 153 158 159 154 143 129 113 99 88 82 82 85 94 107 123 139 153 164 171 173 170 162 149 132 114 98 86 80 80 85 94 107 121 133 141 143 141 137 132 130 131 136 143 150 154 153 146 133 116 100 88 83 84 
102 114 128 140 147 147 143 134 125 119 117 120 129 140 151 159 163 162 157 147 134 121 108 99 94 93 96 103 112 122 133 141 146 148 145 140 131 122 112 104 99 97 99 105 114 126 139 150 157 159 154 144 130 113 97 85 78 76 80 88 100 115 131 145 156 162 165 163 158 148 135 120 107 97 91 89 91 97 105 114 120 124 124 121 117 114 113 117 125 136 146 152 153 148 137 122 107 97 92 94 
115 126 136 144 147 144 136 125 115 108 107 111 121 133 145 154 159 159 153 142 128 113 100 91 86 86 90 97 108 119 131 139 145 146 143 137 129 120 112 104 99 97 98 102 110 120 132 143 151 155 153 145 132 117 101 89 82 79 81 87 97 109 123 134 144 150 153 153 150 145 138 129 120 112 106 103 103 104 107 109 110 109 106 102 99 97 99 105 115 128 141 150 153 151 142 130 118 109 105 108 
