P2
100 100
255
130 142 152 158 157 148 133 115 99 89 86 91 103 120 138 153 162 162 155 140 121 102 85 75 70 71 77 87 100 116 130 141 146 147 144 137 128 119 110 103 98 95 94 97 102 111 123 135 145 152 153 148 137 122 107 94 84 80 79 82 88 98 109 119 128 135 141 144 147 147 145 142 137 131 126 121 117 113 108 102 96 89 83 77 73 72 76 85 101 121 140 155 162 161 153 141 129 120 117 121 
150 159 165 166 159 145 125 104 87 77 75 80 92 109 129 146 156 158 152 139 122 103 88 79 75 76 82 92 104 117 129 136 139 139 135 130 126 122 118 116 113 110 107 105 105 107 112 120 129 137 143 144 141 134 124 115 106 100 96 95 95 97 100 104 108 113 118 125 133 142 149 154 156 155 152 148 141 132 120 107 94 83 74 68 65 65 70 81 97 117 137 152 160 162 157 149 142 137 137 142 
166 172 175 173 162 145 121 98 81 70 68 73 84 102 122 140 153 157 154 143 128 112 99 90 87 89 95 104 113 122 128 131 130 127 124 121 122 124 128 132 133 131 126 119 112 106 103 105 111 119 129 137 143 145 143 138 133 126 119 112 105 99 95 92 91 93 98 108 121 136 151 163 171 174 174 170 162 149 133 115 97 83 72 66 64 66 72 84 100 118 136 149 156 158 155 151 147 147 151 158 
174 181 182 178 166 146 121 96 78 68 66 71 82 100 120 139 153 159 157 150 138 126 116 109 107 110 115 121 127 130 129 125 119 113 109 110 115 125 136 147 153 153 148 137 123 108 98 93 94 102 113 128 141 152 158 160 157 151 141 129 116 103 91 83 79 79 84 95 111 132 152 169 180 186 187 184 176 163 145 124 103 87 77 71 71 74 82 94 108 123 136 145 149 148 146 144 144 148 156 166 
177 184 185 180 168 148 122 98 80 71 69 74 86 103 123 142 155 162 162 158 150 141 135 131 131 134 138 141 142 138 130 119 107 98 94 97 106 122 141 158 169 172 167 154 135 114 96 84 81 86 99 117 137 156 168 174 174 169 159 143 124 106 90 78 72 71 76 88 106 130 153 172 185 191 193 191 183 170 152 131 111 95 86 82 84 90 99 110 122 131 137 139 137 133 130 129 132 141 153 166 
174 182 185 181 168 149 124 101 85 76 76 82 94 112 131 147 159 165 165 162 158 153 150 150 152 156 159 159 155 146 131 113 97 85 80 84 96 116 141 163 179 185 181 169 148 121 97 80 73 75 87 107 132 155 172 182 184 179 168 150 129 107 89 77 70 70 75 87 106 129 153 171 184 191 192 190 182 170 153 135 117 105 99 99 104 112 122 131 138 141 139 132 123 115 110 109 115 126 142 159 
166 178 181 177 166 148 125 105 91 85 86 94 107 124 140 153 161 164 164 161 158 157 158 161 165 170 173 172 165 152 132 109 89 75 69 73 86 108 137 164 183 192 190 179 158 129 101 79 69 69 80 100 127 153 172 183 186 181 169 151 128 106 89 78 73 74 80 92 110 131 152 168 178 184 185 182 175 163 149 134 122 114 113 118 127 137 146 153 154 150 139 125 109 97 90 89 95 109 128 149 
157 170 175 171 160 143 124 107 97 94 98 108 122 136 148 156 159 159 156 152 150 151 155 162 169 176 180 179 171 156 133 107 85 69 63 65 77 100 131 161 183 194 195 186 166 138 107 83 70 68 77 97 123 150 170 181 183 177 164 145 123 104 90 83 81 84 92 104 119 135 150 161 167 170 170 166 160 150 140 130 124 123 127 137 148 159 167 170 167 157 139 118 97 82 74 73 79 94 114 137 
148 161 166 162 151 135 120 108 102 104 111 123 136 146 153 155 152 147 140 135 133 136 143 153 164 174 180 180 173 158 135 109 85 68 60 61 72 94 124 155 179 193 196 189 171 145 115 90 75 72 80 98 122 147 165 175 175 167 152 134 116 101 93 91 94 101 110 120 131 140 147 150 152 151 148 144 139 133 127 123 123 128 138 151 164 175 182 182 176 162 139 112 89 72 64 63 69 83 104 127 
142 154 156 151 139 125 113 106 105 112 123 136 147 153 154 149 140 129 119 113 111 115 124 138 153 166 175 177 173 160 139 113 89 72 63 63 71 90 118 149 174 188 193 189 174 151 124 100 85 81 87 104 125 146 161 166 163 153 137 121 107 99 98 103 112 122 132 139 144 145 143 139 133 128 124 120 117 115 114 115 121 131 145 160 174 184 189 189 181 164 138 109 83 67 59 58 65 79 99 122 
139 148 148 140 127 114 105 103 108 119 133 146 154 156 151 140 125 110 98 90 89 93 103 119 137 153 166 172 170 161 144 121 99 82 72 70 76 92 116 143 166 181 188 185 174 156 133 112 98 94 100 113 131 146 156 156 149 136 120 107 98 97 103 116 130 144 154 158 157 150 140 128 117 108 103 100 100 101 104 110 119 131 147 163 177 187 192 191 182 164 137 107 82 65 58 59 66 81 100 122 
142 146 142 131 117 105 99 100 110 124 140 153 159 156 146 129 109 92 79 73 72 76 87 103 121 140 155 164 166 161 149 132 114 99 88 84 87 98 116 138 157 171 178 178 171 157 140 124 113 110 115 125 138 147 151 146 135 120 105 94 91 96 109 128 147 162 171 173 167 155 138 120 105 94 89 88 90 94 99 107 117 130 145 161 175 185 190 189 180 162 136 107 82 67 61 63 73 88 108 128 
147 148 139 125 109 98 95 100 113 130 147 158 162 155 140 118 96 79 67 62 62 67 78 92 111 129 144 155 160 159 154 144 132 120 111 106 105 110 120 133 147 158 165 166 163 154 144 133 127 125 129 137 144 148 146 136 122 106 92 85 86 95 114 137 159 175 183 182 174 159 138 117 99 89 85 85 89 95 101 107 116 127 140 154 168 178 184 184 176 159 134 107 85 72 68 72 83 101 121 138 
154 150 138 121 105 95 93 101 117 136 153 163 164 154 135 111 88 71 62 58 60 66 76 90 106 122 135 145 152 155 156 154 149 143 137 130 126 124 125 129 135 141 146 149 149 147 143 139 137 137 141 145 148 147 141 128 112 96 84 79 82 95 116 142 165 181 188 186 177 161 139 118 101 91 89 91 96 102 107 111 116 122 131 143 155 166 173 174 168 153 132 109 89 79 77 83 97 116 135 149 
160 153 137 119 102 94 94 105 123 143 159 168 166 154 132 107 85 69 62 61 65 73 83 95 108 119 128 135 142 148 154 159 162 162 159 154 146 137 129 124 121 122 124 128 132 136 138 140 142 144 147 149 149 145 136 122 106 92 81 78 82 95 116 141 164 180 186 185 176 160 141 121 107 100 100 104 109 114 116 116 115 116 120 128 138 149 158 161 158 146 129 110 94 86 87 96 112 131 148 159 
163 153 135 116 101 94 96 109 128 149 164 171 168 155 132 107 86 73 68 70 77 87 98 108 115 119 122 124 129 136 147 158 167 173 175 170 161 147 131 117 107 102 103 107 114 122 131 137 143 146 148 148 146 140 131 119 105 92 84 81 84 96 115 137 157 172 178 178 170 157 141 126 116 113 115 121 126 128 126 121 114 109 107 111 119 130 140 146 146 139 126 112 100 95 97 108 125 143 157 165 
162 150 131 112 98 93 97 111 132 152 167 173 170 156 135 111 93 82 80 85 96 108 118 124 125 121 116 112 113 121 134 151 167 178 183 180 169 151 129 109 93 86 85 89 98 110 122 133 140 144 145 143 140 135 127 118 108 99 92 89 91 99 112 129 145 157 163 163 158 149 138 130 126 127 132 138 142 141 134 123 111 101 96 96 102 112 123 132 136 133 125 114 106 103 107 118 134 150 162 166 
158 144 126 107 95 91 97 111 132 152 167 173 169 157 138 118 103 96 98 107 119 132 140 141 134 122 109 100 97 104 119 140 161 177 185 183 171 151 125 100 82 73 72 77 88 102 117 129 137 140 139 136 132 128 124 120 116 111 107 103 102 105 110 119 128 136 141 142 140 136 133 132 134 140 147 152 153 149 138 123 107 94 86 85 90 99 112 123 129 130 126 119 113 112 116 126 140 153 162 164 
152 137 119 102 91 88 94 108 127 147 161 168 165 155 140 125 114 112 118 130 143 154 159 154 141 121 102 88 82 87 103 126 151 171 182 181 169 146 117 91 73 64 64 70 83 99 116 129 136 136 132 127 122 121 122 125 128 128 127 123 119 114 111 110 111 113 116 118 119 122 126 132 140 149 157 161 160 152 138 120 102 88 80 78 83 93 106 119 129 133 131 126 122 121 125 133 144 154 160 160 
147 132 114 98 87 84 89 101 118 136 150 158 157 151 140 130 126 128 137 150 162 170 171 161 142 117 94 77 70 74 89 113 141 164 176 176 163 139 109 83 67 60 61 70 85 103 121 133 137 134 126 118 113 114 120 130 140 147 149 146 138 127 115 104 97 93 93 95 100 108 118 131 144 155 163 165 162 151 134 115 97 83 76 76 82 94 108 123 134 140 140 137 133 131 133 139 147 155 158 156 
146 131 113 97 86 81 84 93 107 122 135 143 145 143 138 134 134 140 151 164 174 179 176 163 140 111 86 69 62 66 80 104 132 157 170 170 156 131 102 78 64 59 63 75 94 114 132 142 142 134 121 110 104 107 117 134 150 163 168 166 157 141 121 102 88 79 77 79 86 98 113 131 147 159 166 166 159 146 128 108 91 80 76 78 86 99 116 132 144 150 151 148 144 141 142 146 151 156 158 155 
149 135 117 101 88 81 81 86 95 107 119 127 131 133 133 134 139 148 160 172 180 182 176 160 134 105 80 64 58 62 76 100 128 152 165 164 150 125 98 76 64 63 71 87 109 132 148 155 150 137 119 103 95 98 112 134 156 174 182 182 173 154 130 104 84 71 67 70 78 93 112 133 150 162 167 164 154 139 120 101 87 79 77 82 93 109 127 143 155 160 160 157 153 149 149 151 155 159 161 157 
156 143 127 110 95 85 81 82 87 95 104 112 118 123 128 133 142 153 164 174 180 180 172 154 128 100 77 63 59 64 78 102 129 151 163 161 146 122 96 78 69 72 84 105 130 152 166 168 160 141 117 97 87 90 105 130 157 179 190 192 184 165 138 108 84 69 64 66 77 94 115 137 154 164 166 160 148 131 112 96 84 80 81 89 102 120 138 153 163 167 166 162 157 153 152 154 158 162 164 163 
164 155 141 124 108 94 86 83 84 88 95 102 110 117 124 133 143 154 165 173 177 175 165 147 123 98 78 67 65 72 88 110 135 155 163 160 144 121 98 83 78 85 102 127 152 171 182 181 168 145 116 92 80 81 96 122 153 178 193 197 190 173 145 113 86 70 64 68 80 99 122 144 159 166 164 155 140 122 105 91 83 82 86 97 112 130 146 159 167 168 165 160 154 149 148 151 156 162 167 168 
172 166 156 140 123 108 96 89 86 88 93 100 107 116 124 134 144 153 162 168 170 166 156 140 119 99 84 77 78 87 103 125 146 161 166 160 144 123 103 91 90 101 122 148 171 187 194 190 175 148 116 88 73 72 85 111 144 173 191 198 193 177 150 118 91 74 68 73 86 107 130 150 163 166 161 149 132 115 99 89 84 86 93 105 121 137 151 160 163 162 156 149 141 137 136 141 148 158 166 172 
175 174 167 155 140 123 109 99 95 95 98 105 112 121 129 137 145 151 157 160 159 155 146 132 117 103 94 92 96 108 124 142 158 168 169 161 145 125 107 99 102 117 140 165 185 198 201 196 179 150 116 85 68 65 76 100 132 164 185 194 192 178 153 123 96 79 74 80 95 116 138 155 164 164 156 142 125 108 96 89 88 93 102 114 128 141 150 155 153 147 138 129 121 116 117 123 133 147 160 170 
173 177 174 165 152 137 123 113 107 107 110 116 124 131 137 142 146 148 149 148 145 140 133 124 116 109 108 111 119 131 146 160 170 174 171 160 143 124 109 104 110 128 152 175 193 203 205 199 181 152 115 84 65 60 67 88 119 152 176 188 188 176 153 125 100 85 81 88 104 124 144 157 162 159 148 133 117 104 96 93 96 103 113 125 135 143 147 145 138 127 115 104 96 92 94 101 113 130 148 163 
165 173 174 169 159 146 134 125 121 122 126 133 139 144 147 148 146 143 138 133 128 123 118 115 113 115 121 130 141 153 164 173 177 176 169 155 137 119 107 104 112 130 154 177 194 203 205 198 181 152 116 84 64 57 62 79 107 139 165 179 181 171 151 127 104 91 89 97 112 130 146 155 157 150 138 124 111 103 100 102 108 117 127 136 143 146 143 134 122 107 93 82 74 71 73 79 92 109 130 150 
151 163 167 164 157 148 139 134 133 136 142 149 155 158 157 153 146 136 126 117 110 105 103 105 110 119 131 145 158 169 177 181 180 174 163 146 127 110 99 98 106 124 148 170 188 198 200 195 179 152 117 86 66 57 60 74 99 128 154 169 172 165 148 126 107 97 96 103 117 132 144 149 147 139 127 116 108 105 108 115 124 134 143 149 152 149 140 126 109 92 77 66 59 56 57 63 74 90 111 133 
135 148 154 153 148 141 137 135 139 146 154 162 167 168 165 156 144 129 114 101 93 89 89 94 104 119 137 154 168 178 183 183 179 168 153 133 114 98 89 88 95 111 132 155 174 186 191 187 174 150 120 91 71 62 63 74 95 121 144 159 163 157 142 125 109 101 101 108 120 131 139 140 136 127 118 111 109 112 120 131 143 152 159 162 161 154 141 124 104 85 69 58 52 49 49 54 62 76 95 116 
121 133 138 137 133 129 127 130 138 148 160 169 174 174 168 157 140 121 103 89 80 76 78 85 98 117 138 157 172 181 184 182 173 159 140 119 99 85 77 76 82 94 112 133 152 167 175 175 166 148 123 98 80 71 72 80 97 119 139 152 155 149 137 122 110 104 105 111 120 128 131 130 124 117 111 109 113 123 135 148 160 168 173 173 169 160 146 127 106 87 71 59 52 49 48 51 59 70 86 105 
114 121 123 120 116 112 113 119 130 144 158 169 175 175 168 154 135 114 94 80 71 68 71 79 94 114 136 157 172 180 181 176 164 147 126 104 87 75 68 66 70 78 91 108 127 143 155 159 156 145 127 109 94 86 86 93 106 123 138 147 149 143 132 120 111 106 107 113 119 124 125 121 116 111 109 112 122 135 150 164 174 180 182 180 175 165 152 135 116 98 82 70 62 57 56 58 64 74 87 101 
115 117 114 108 101 98 99 106 119 135 151 163 170 170 163 149 130 109 90 76 68 66 69 77 92 112 135 155 169 176 175 168 154 134 113 93 78 68 62 61 62 67 76 88 103 119 132 141 145 141 132 121 112 106 106 111 121 132 142 147 145 138 128 118 110 108 109 113 118 121 120 116 112 109 112 119 132 148 163 174 182 185 184 181 175 167 158 146 132 117 104 92 83 77 74 75 80 88 98 108 
124 121 113 103 93 88 88 94 106 122 138 152 160 161 155 142 125 106 90 78 71 69 72 81 95 114 135 153 165 170 167 158 142 122 102 85 73 65 61 60 61 63 68 76 87 100 113 125 133 137 137 133 130 128 128 132 138 144 148 148 144 135 125 116 110 108 110 114 118 119 118 115 112 113 118 128 142 158 170 179 182 182 178 173 168 163 159 154 148 141 132 123 115 108 104 104 106 112 118 123 
140 131 119 105 93 85 83 86 96 109 124 136 145 147 144 135 122 108 95 86 81 80 83 91 104 120 137 151 160 162 158 146 130 112 95 81 72 67 65 65 66 67 70 75 81 90 101 113 124 133 139 142 144 146 148 151 154 155 155 151 143 133 123 114 109 108 111 115 119 120 119 118 117 119 126 137 150 162 171 175 174 169 162 156 151 150 153 157 160 161 160 156 150 145 140 138 139 141 143 143 
155 144 130 114 100 89 84 84 89 98 109 120 127 131 131 127 121 113 107 102 99 99 102 108 118 130 141 150 155 154 147 135 119 103 90 81 76 75 76 78 79 81 82 83 86 91 98 107 117 128 138 146 153 157 161 164 165 164 160 153 143 131 120 112 108 108 112 116 120 122 123 122 123 126 133 143 153 161 165 163 156 147 136 129 126 129 139 152 165 174 179 180 178 175 171 168 166 165 164 161 
166 156 143 127 112 100 92 88 88 92 98 105 111 116 119 121 122 123 122 122 122 124 126 130 135 141 146 149 149 144 135 123 109 97 88 84 84 88 93 98 102 104 104 102 100 99 101 105 112 122 133 144 154 161 167 169 170 167 161 152 141 129 118 111 107 109 113 118 123 126 127 127 128 132 137 144 150 153 151 143 131 118 106 98 97 104 119 140 162 179 189 194 194 192 188 185 181 179 176 172 
169 162 153 141 128 116 106 98 93 91 91 94 98 103 110 118 126 134 140 144 147 149 149 150 150 151 150 147 142 134 123 111 101 92 89 90 96 105 116 125 132 135 133 128 121 114 108 106 109 115 125 136 148 157 164 168 168 165 159 149 137 126 116 110 108 110 115 121 126 129 130 131 132 134 137 140 142 139 131 119 104 90 78 72 72 81 99 125 153 176 191 198 199 197 193 188 183 179 176 173 
163 162 159 153 145 134 123 112 102 94 89 87 89 95 104 117 131 144 155 163 167 168 167 165 161 156 150 142 133 123 112 102 94 90 91 97 109 124 140 152 161 164 161 154 143 130 118 109 105 107 115 125 137 148 156 160 161 158 152 143 132 122 114 111 111 114 119 125 130 132 133 132 131 131 132 132 129 123 112 97 82 69 60 55 56 65 83 111 142 168 186 194 195 192 185 178 171 166 164 163 
149 155 160 161 158 152 142 129 115 102 92 86 85 90 101 117 136 153 166 175 179 179 177 171 164 156 146 136 125 114 103 95 90 89 94 105 122 141 159 173 182 184 182 174 160 143 125 111 102 100 104 113 124 134 142 147 148 146 141 133 125 119 115 114 116 121 126 131 134 135 133 130 127 125 124 121 117 108 96 83 69 58 51 47 49 57 74 100 131 158 175 183 182 176 166 155 146 141 140 143 
130 143 156 164 168 165 158 145 129 112 97 88 86 90 102 119 140 158 172 180 184 182 178 170 161 150 139 128 117 107 99 92 89 91 99 114 133 154 172 185 193 195 192 184 169 150 129 111 100 95 97 103 112 121 128 132 132 130 126 122 118 116 116 120 125 131 136 139 140 137 132 126 121 117 114 111 106 99 89 77 66 56 50 47 49 57 72 96 123 147 162 167 162 151 138 124 115 110 111 118 
111 130 150 164 173 174 169 158 141 123 105 94 89 93 104 122 142 160 173 179 181 177 171 161 151 140 130 121 112 105 99 95 94 98 107 122 141 161 178 190 197 198 194 185 170 150 129 111 99 94 95 100 106 112 116 117 116 113 111 109 110 114 120 128 136 143 148 149 146 139 131 121 114 109 106 104 101 96 89 80 71 64 58 56 58 65 79 98 120 138 148 147 138 124 108 94 85 82 85 95 
97 119 143 162 174 179 176 167 151 132 114 101 95 97 107 123 141 157 168 172 171 165 157 147 137 128 121 116 112 109 106 104 104 108 117 131 148 165 179 189 193 193 188 178 163 144 125 110 101 98 100 104 108 110 109 106 102 98 97 98 103 112 125 138 149 157 160 159 152 142 129 116 107 101 100 101 102 102 99 94 87 81 76 74 76 83 94 109 124 134 137 130 116 100 84 72 65 64 68 79 
90 113 138 159 173 180 179 171 157 140 122 108 102 103 111 124 138 150 158 159 155 148 138 129 121 117 115 116 117 118 118 118 119 122 129 139 152 164 175 181 184 181 175 164 149 133 120 111 108 109 113 117 118 115 109 100 92 86 85 88 97 112 129 147 160 169 171 167 158 143 127 112 101 97 97 102 108 114 116 116 113 108 104 103 104 108 116 125 133 135 130 118 101 84 71 61 56 56 61 72 
89 111 135 155 170 177 177 171 160 144 128 115 108 107 113 122 132 140 143 141 135 127 118 111 108 109 114 120 127 132 135 136 136 137 140 146 153 161 167 169 168 163 154 142 130 120 114 114 118 126 133 137 135 128 115 100 87 78 76 80 92 111 133 154 170 178 179 173 161 144 125 108 98 94 98 107 119 130 138 141 142 139 137 135 135 137 140 143 143 138 127 111 94 78 67 59 56 57 63 73 
95 113 133 150 163 170 171 167 158 145 131 120 113 111 113 119 124 127 127 122 115 107 101 98 100 107 118 129 140 147 152 152 151 150 149 150 152 154 155 153 147 139 128 118 110 106 109 118 131 145 155 159 156 144 125 104 86 74 70 75 88 109 135 159 176 184 184 177 163 143 123 106 96 95 102 115 131 145 156 163 165 165 163 161 160 159 158 156 151 141 127 110 93 80 70 65 64 66 72 81 
105 117 131 143 153 159 161 158 151 142 131 122 115 112 112 114 115 115 112 106 99 94 91 92 99 111 125 140 153 161 164 164 161 157 153 150 147 145 141 134 125 114 104 95 92 95 105 123 144 162 175 179 174 160 137 110 87 72 66 71 85 108 136 161 179 186 186 177 162 141 120 104 96 98 107 123 141 157 169 176 179 179 177 175 173 170 167 162 154 142 127 111 97 87 81 78 79 82 87 95 
116 122 128 134 140 144 146 145 142 136 129 122 116 112 110 109 107 104 100 94 89 87 87 93 104 119 136 151 163 169 171 168 163 156 150 144 139 134 127 118 107 95 85 79 79 87 103 128 154 176 189 193 188 173 148 117 90 72 65 68 82 106 135 161 178 185 184 174 157 137 117 104 98 102 114 131 148 163 174 179 181 180 178 175 173 169 165 159 151 140 127 114 105 99 96 97 100 104 108 112 
126 124 122 122 124 126 129 130 130 129 125 121 116 112 108 105 102 98 93 89 86 86 91 100 113 130 146 159 168 171 169 164 156 147 140 134 128 123 116 106 95 84 75 70 72 82 102 131 160 184 197 201 196 181 155 123 93 73 65 68 82 106 134 158 174 180 177 167 150 131 114 104 102 108 121 137 152 164 171 173 173 170 167 164 161 158 155 150 143 135 126 118 114 113 115 119 124 127 129 128 
133 123 115 110 108 109 112 116 120 122 122 120 117 113 108 104 100 95 92 89 89 92 99 111 125 141 155 164 168 167 160 151 141 131 124 120 117 115 110 102 92 81 72 67 69 79 101 130 161 186 200 204 199 184 159 126 96 76 68 71 85 107 133 155 168 172 168 156 140 124 112 106 108 116 129 142 153 160 161 159 155 150 146 143 142 141 140 138 134 129 125 122 123 127 133 140 145 148 147 141 
135 120 107 98 94 95 99 106 113 118 122 122 120 116 111 106 102 98 95 95 97 102 111 124 137 150 160 165 163 156 145 132 120 111 106 106 108 110 110 105 97 86 76 69 69 78 98 126 157 182 196 201 196 182 158 127 99 80 74 78 91 112 134 151 161 161 154 142 129 117 110 109 115 125 136 146 151 152 147 140 132 125 121 119 120 122 125 126 127 126 126 127 132 139 147 155 161 162 159 149 
134 116 100 89 84 86 92 101 111 119 125 127 126 123 118 113 108 105 104 105 108 115 125 136 148 157 162 161 154 142 126 111 99 91 90 94 102 110 116 116 109 98 86 76 73 78 94 119 147 171 186 192 188 174 152 125 101 87 83 89 102 120 137 149 153 149 140 128 117 110 109 114 124 135 144 149 149 143 132 120 109 102 98 99 103 109 115 121 124 127 129 133 139 148 157 165 170 170 164 152 
132 111 94 84 80 82 90 102 114 125 133 136 136 132 127 123 118 116 115 117 121 127 136 146 154 160 160 155 143 127 109 93 82 77 79 87 100 115 127 132 127 116 101 87 79 80 90 109 133 155 170 175 172 160 141 120 103 95 96 104 118 132 143 148 145 136 125 114 107 106 111 121 133 145 151 152 146 134 119 104 92 86 84 87 95 104 114 122 127 131 134 139 145 153 162 170 173 172 165 151 
129 109 92 83 80 85 95 108 123 135 143 147 146 143 139 134 130 128 127 128 132 137 144 151 156 159 156 148 134 115 96 81 71 69 73 85 104 124 141 150 148 137 120 102 88 83 86 98 116 134 147 152 150 140 126 113 105 104 111 122 135 146 151 148 139 125 112 103 99 104 114 129 143 154 158 155 144 128 110 94 83 78 79 86 96 108 119 129 134 138 140 143 149 156 164 170 173 172 163 149 
127 108 93 85 85 91 104 119 135 147 155 158 157 153 149 144 140 137 136 137 138 142 146 151 154 155 152 142 127 108 90 76 67 66 73 88 110 135 155 166 166 156 138 117 99 88 85 91 102 114 123 127 125 118 111 105 106 113 126 140 152 159 158 149 134 116 102 94 95 103 118 136 151 161 163 157 143 125 106 91 81 79 83 91 103 117 129 137 141 143 143 145 149 155 162 168 171 169 161 146 
126 108 96 90 92 101 115 132 148 159 165 166 164 160 155 150 146 143 141 140 140 141 143 146 149 150 147 139 125 108 91 77 70 69 77 94 118 145 166 178 179 170 153 131 110 94 87 87 93 99 105 106 104 100 97 99 107 121 139 155 166 169 163 148 128 109 95 89 92 104 122 142 157 166 166 157 142 123 105 92 85 85 91 101 114 127 137 143 144 143 141 141 144 150 158 164 168 166 158 144 
125 109 98 95 99 111 127 144 159 168 172 172 168 162 156 150 145 142 139 137 135 135 136 139 142 145 144 139 128 114 98 85 77 77 84 101 126 152 172 184 186 178 163 142 120 103 93 90 91 94 95 94 91 88 88 94 107 126 147 164 174 173 164 145 123 102 89 85 91 105 125 146 160 167 166 156 141 123 107 96 92 94 102 112 124 134 140 142 140 136 133 132 136 143 151 159 164 163 155 142 
123 108 99 98 104 118 135 152 165 173 175 172 166 159 151 144 139 134 131 128 126 126 127 131 136 141 143 142 135 124 110 97 89 87 93 108 131 154 173 184 186 180 166 148 128 113 103 99 99 99 97 93 87 84 85 93 108 129 151 168 176 173 160 140 116 95 84 82 90 106 127 146 160 165 162 152 138 122 109 102 100 104 112 121 129 134 136 133 128 122 119 119 124 133 145 154 160 159 152 139 
118 105 97 97 105 120 138 155 168 174 174 169 160 150 140 132 126 122 119 117 115 116 118 124 131 139 145 148 145 137 125 112 102 97 101 113 132 152 169 178 180 175 164 149 134 122 116 114 113 112 108 101 93 87 86 94 109 130 151 167 173 168 153 131 107 89 79 80 89 106 126 144 156 160 156 146 133 120 111 107 108 113 119 125 128 128 125 118 111 105 102 105 113 125 139 151 157 156 148 134 
112 98 91 92 101 116 136 153 166 171 169 162 151 138 126 116 110 107 105 104 105 107 112 120 130 140 149 155 155 149 138 125 113 106 106 114 128 145 159 167 169 165 156 145 136 130 129 131 132 131 126 116 105 96 93 97 110 129 149 162 166 159 143 121 99 83 76 78 89 105 124 140 149 151 146 136 126 117 113 112 115 120 124 125 123 118 110 101 93 88 88 94 106 121 137 150 156 154 144 128 
103 90 83 84 93 109 128 147 160 165 162 153 139 124 110 101 95 93 93 94 97 102 110 120 132 144 154 161 162 157 147 133 119 110 107 111 121 134 145 152 154 151 145 139 135 136 140 146 151 151 146 135 121 109 102 103 113 128 144 155 157 149 133 112 92 80 75 79 90 105 122 134 140 140 134 126 118 114 113 116 121 125 126 123 116 106 96 86 80 78 81 90 105 124 141 153 157 153 140 122 
95 81 74 75 84 99 119 139 153 158 155 145 129 112 98 88 83 82 84 88 94 102 113 125 138 150 160 165 166 160 149 135 120 109 104 105 112 121 130 136 137 135 132 130 132 138 148 158 165 167 162 151 136 122 112 110 116 128 141 149 150 141 125 106 90 80 78 83 94 108 121 129 131 128 121 115 110 110 114 120 126 129 128 121 111 99 87 78 74 75 82 95 113 133 150 160 161 153 136 115 
88 73 66 67 75 90 110 131 146 153 150 139 122 105 90 81 76 76 80 86 95 107 119 133 146 156 164 167 165 158 146 130 116 105 99 99 103 111 118 122 124 123 121 122 128 138 151 164 173 176 172 162 147 131 120 117 120 130 140 146 145 137 123 107 93 86 86 93 103 114 122 126 124 117 110 105 104 108 115 124 131 134 131 123 110 97 85 78 77 81 92 108 128 148 162 169 167 154 134 109 
82 67 61 62 69 84 104 125 142 150 149 138 121 103 88 78 74 75 80 89 101 115 129 143 154 162 166 166 160 150 137 122 108 98 94 94 99 106 112 116 117 116 115 118 125 136 150 164 173 176 173 164 150 135 125 121 125 133 142 147 146 139 127 114 104 100 101 108 116 124 127 126 119 110 102 98 100 107 117 129 137 141 137 128 115 102 92 87 88 96 110 129 148 165 175 178 172 156 132 105 
79 65 59 60 68 83 103 125 143 152 151 141 125 107 92 81 77 78 84 95 109 125 140 153 161 166 166 161 152 139 124 110 99 92 91 94 100 107 113 117 118 117 116 117 123 134 146 158 166 169 165 157 145 133 125 123 128 137 146 151 151 146 137 128 121 119 122 128 134 138 136 129 117 106 97 94 98 108 121 135 144 148 145 136 124 113 105 103 107 118 133 151 167 179 186 185 176 157 130 102 
79 66 61 63 72 87 108 130 147 157 157 148 133 115 99 88 83 84 92 104 119 136 150 161 166 167 162 153 140 126 111 100 92 89 92 98 107 116 122 126 126 124 121 121 124 131 140 148 153 154 150 142 132 124 120 122 131 141 151 158 159 156 150 144 141 141 144 149 153 152 146 134 119 105 96 94 99 111 126 141 151 155 153 146 136 127 122 122 129 141 155 170 181 189 191 187 176 155 128 101 
82 71 68 71 81 98 118 139 155 163 163 156 142 126 110 98 93 94 102 114 130 146 158 166 168 165 156 143 128 112 100 91 88 90 97 107 119 129 136 139 138 134 130 127 126 128 132 136 137 135 129 122 115 111 112 119 131 145 157 164 167 165 162 159 157 159 163 167 168 165 155 140 123 107 98 97 103 117 133 147 157 161 159 153 146 139 137 140 147 158 170 180 188 192 191 184 171 151 125 101 
88 81 80 86 98 114 132 150 162 169 169 162 150 136 121 110 105 106 113 125 140 153 163 168 167 160 147 131 115 100 91 86 88 94 106 120 133 145 151 153 151 146 139 133 129 126 125 123 120 115 108 102 97 97 102 114 130 146 160 168 171 171 169 167 168 170 174 177 177 172 162 146 128 112 103 102 110 124 139 153 161 164 162 156 150 146 145 149 156 166 175 182 186 186 183 174 161 142 121 102 
97 95 99 107 119 133 148 160 169 173 171 165 155 143 130 121 116 117 124 135 148 159 166 168 163 153 137 120 103 91 85 84 90 102 117 134 148 159 164 164 161 154 146 138 131 125 120 113 106 99 91 86 83 86 94 109 127 145 159 168 171 170 168 167 169 172 177 180 180 175 164 149 131 117 109 110 118 132 146 157 163 163 159 153 147 143 143 147 154 161 168 172 173 171 165 156 144 130 115 104 
108 113 121 130 141 152 161 168 172 172 170 164 156 146 136 129 126 127 134 143 154 162 166 165 158 144 127 109 94 84 81 84 94 110 128 146 160 169 172 170 165 158 149 140 132 125 117 108 98 89 81 76 75 79 89 104 124 142 155 162 164 162 159 157 159 163 169 173 174 170 161 148 133 122 117 119 128 140 151 158 161 158 151 143 136 132 132 135 141 146 150 152 150 146 140 132 124 116 110 107 
119 130 141 151 159 165 169 171 170 168 164 159 152 145 138 133 131 134 140 148 157 163 165 161 151 136 117 99 86 79 79 86 99 117 138 155 168 174 174 170 164 155 146 138 131 124 116 107 96 86 78 73 72 76 86 102 120 137 148 152 150 146 141 138 140 145 151 157 160 158 152 143 133 126 124 128 137 147 154 158 155 148 138 128 120 115 114 117 121 124 126 125 122 118 112 107 104 103 105 110 
129 143 156 164 170 172 171 168 164 159 154 149 144 139 135 133 133 137 143 150 158 162 163 157 145 128 109 93 81 76 78 87 102 122 143 160 171 174 172 166 157 147 139 132 127 123 117 109 100 90 81 76 75 79 88 102 118 131 138 139 133 125 117 113 114 119 126 133 139 140 138 134 129 127 130 136 144 152 156 155 147 136 123 110 101 96 95 97 100 102 103 101 98 93 90 88 89 94 102 115 
135 151 162 169 171 170 166 160 153 147 141 136 133 130 128 128 130 135 141 149 156 160 160 154 141 124 105 89 78 74 77 86 103 124 145 161 170 171 166 157 146 136 128 123 122 121 119 115 108 99 90 84 83 86 94 106 118 127 130 125 116 105 95 90 89 93 100 108 115 119 122 122 124 127 134 142 150 155 155 149 138 123 107 94 86 82 81 82 85 87 87 85 83 80 78 79 83 91 103 119 
138 151 160 165 165 161 155 147 139 133 127 124 121 120 120 121 124 128 135 143 151 156 157 152 140 123 104 88 77 73 76 85 101 122 142 158 166 166 159 148 134 123 116 113 115 119 122 122 118 111 104 98 95 97 104 113 121 126 124 116 104 90 80 73 72 74 80 87 94 101 106 112 118 126 136 145 152 155 152 142 127 110 95 83 76 73 74 76 80 82 83 83 81 79 79 80 85 94 107 122 
136 145 150 152 150 145 139 132 125 120 116 114 112 111 111 111 114 118 125 134 143 151 154 151 142 126 108 92 80 74 75 83 98 117 137 153 161 160 152 139 125 113 106 105 109 117 124 129 129 126 120 114 111 112 116 122 128 129 125 114 100 85 74 66 64 65 68 74 81 88 95 104 114 125 137 147 153 153 147 135 118 101 86 77 72 72 75 80 85 89 92 93 92 91 91 93 97 104 114 125 
130 133 134 133 130 127 122 118 115 112 110 108 107 105 103 102 103 106 113 122 133 144 151 153 147 134 118 100 86 77 76 81 93 111 130 146 155 156 148 135 120 107 100 100 105 115 126 135 139 139 135 130 127 126 129 133 136 136 130 119 105 90 78 70 65 65 66 70 75 82 90 100 111 125 137 147 152 150 142 128 111 95 83 76 75 78 84 93 101 108 112 114 115 114 113 114 115 118 122 126 
122 119 116 113 111 109 108 109 110 110 111 109 107 102 98 94 92 93 99 108 122 137 149 155 155 146 131 113 97 84 79 81 90 105 124 140 151 153 147 135 120 107 99 98 104 115 128 139 146 148 147 143 140 138 140 142 145 144 140 130 118 104 92 83 77 74 74 75 78 83 90 100 112 126 138 147 150 146 136 122 106 92 84 81 84 91 102 114 125 134 139 142 143 142 140 138 135 132 129 126 
114 105 99 96 95 97 101 106 112 116 118 117 112 104 96 88 83 82 86 95 110 129 146 159 163 160 148 131 112 95 85 82 87 100 117 135 148 153 150 140 126 112 103 101 106 116 129 141 150 154 154 151 147 145 145 148 150 152 150 145 136 126 116 107 99 94 90 88 88 90 95 104 115 128 139 146 148 143 132 118 104 93 89 91 99 111 125 139 151 160 165 167 167 166 163 159 152 144 134 124 
106 95 88 85 87 92 101 111 120 128 131 129 121 110 97 86 77 74 76 84 100 122 144 162 172 173 165 150 130 110 94 86 87 97 113 131 146 154 155 147 135 121 111 107 110 118 131 143 152 156 156 153 149 146 145 147 151 155 157 157 155 149 143 135 128 120 113 107 103 102 105 111 121 132 141 147 147 141 129 116 105 98 98 104 116 132 148 162 172 179 182 183 182 180 177 171 162 151 136 121 
102 90 83 82 86 95 107 121 133 142 146 143 135 120 104 88 76 69 69 77 92 115 142 164 179 183 179 167 148 126 106 93 89 95 109 127 144 155 159 154 144 131 120 115 115 122 133 143 151 155 155 151 145 141 139 141 146 153 159 165 168 168 166 162 155 147 138 129 121 116 116 120 128 137 145 148 147 140 129 117 108 105 108 118 133 150 165 177 184 188 189 188 187 184 180 173 164 151 135 117 
101 91 85 86 92 103 117 133 147 157 161 158 149 133 114 94 79 69 67 72 87 110 139 165 182 191 190 181 164 142 119 101 93 95 106 123 141 155 161 159 151 140 129 122 121 126 135 144 150 153 151 145 138 132 128 129 135 144 154 164 173 178 180 179 175 168 158 147 136 129 126 128 134 142 148 151 149 141 131 120 113 112 117 130 146 162 174 183 187 188 186 183 180 176 172 166 158 146 131 115 
105 97 94 96 103 115 130 145 158 167 171 169 161 147 127 106 87 74 69 71 84 106 135 163 183 194 196 190 175 154 130 109 97 95 103 119 136 151 159 159 153 144 134 127 126 129 136 144 149 150 146 139 129 120 115 114 119 129 142 156 168 178 183 185 183 177 168 157 146 137 133 134 139 146 152 154 151 144 134 124 118 117 124 136 151 164 174 179 179 177 172 167 162 158 155 152 147 139 128 116 
115 110 109 111 118 128 140 152 163 172 176 176 171 159 142 121 101 84 75 74 83 102 129 157 179 193 197 193 181 162 138 115 100 95 100 113 129 143 152 154 150 143 134 129 127 131 137 144 148 147 142 132 121 110 102 100 103 111 124 140 155 168 176 181 181 177 169 158 147 139 135 137 142 149 155 157 155 148 138 128 122 121 126 136 148 158 164 165 162 156 148 141 135 133 132 133 133 131 127 121 
129 127 127 128 132 138 145 153 161 168 174 177 175 169 156 139 118 99 85 79 83 98 121 148 171 187 193 192 182 164 141 118 102 94 97 107 120 133 142 145 142 136 130 126 126 130 136 142 146 145 139 128 115 103 93 89 89 95 106 120 135 149 160 167 169 166 160 151 142 135 133 136 143 150 157 159 157 151 141 131 124 122 125 131 139 144 146 143 136 127 118 111 106 106 109 115 121 126 129 130 
145 145 145 144 143 142 143 146 150 157 164 170 174 174 168 155 136 116 98 87 85 93 111 135 158 175 184 185 177 162 140 118 102 94 94 101 112 123 130 133 131 126 122 120 121 126 133 139 143 142 136 126 113 101 90 84 82 84 90 100 113 125 136 144 148 147 143 137 131 127 128 132 141 149 157 160 159 153 144 134 126 121 120 122 125 125 123 117 108 99 91 85 83 86 93 103 115 127 136 142 
160 161 159 154 148 141 134 131 132 137 146 157 167 174 174 167 152 133 112 95 87 89 100 119 140 158 169 172 167 154 135 116 101 94 93 98 106 114 119 121 119 115 112 111 114 120 127 134 139 139 135 127 116 104 94 86 81 80 82 87 94 103 112 119 124 125 124 121 119 118 121 127 136 146 154 158 158 153 146 136 127 121 116 113 110 107 101 93 85 77 71 68 69 75 85 100 117 133 146 155 
171 172 168 160 148 134 121 112 109 113 123 138 154 167 175 174 164 146 124 103 90 85 90 103 120 137 150 155 152 142 128 112 101 95 94 98 104 109 112 112 109 106 104 104 107 113 121 128 134 136 135 130 122 113 104 96 89 85 82 81 83 87 92 98 102 106 107 108 108 110 114 121 130 139 148 153 154 152 146 139 130 122 114 107 100 93 85 77 70 65 61 61 65 73 86 104 124 142 157 167 
178 178 172 161 144 125 107 94 88 90 99 116 137 156 170 174 169 155 133 110 93 83 83 90 103 117 129 136 136 130 120 109 102 98 98 102 106 109 110 108 105 101 98 98 101 107 114 122 128 133 135 134 131 126 120 113 105 98 91 85 82 81 83 86 90 94 97 100 102 104 108 114 122 130 138 144 148 149 146 142 135 127 118 108 97 87 77 69 63 60 59 62 68 79 94 114 134 152 166 175 
180 178 171 158 139 117 96 80 72 72 80 96 119 142 161 171 170 159 139 116 97 84 79 82 91 102 113 120 122 119 114 108 105 104 106 110 113 115 114 110 105 100 97 96 98 103 109 117 124 130 136 139 141 141 138 134 126 117 107 97 90 85 83 84 87 91 96 99 102 103 105 108 113 119 126 133 139 143 146 146 142 136 127 115 102 89 78 69 64 62 63 68 77 90 107 126 145 160 171 178 
176 173 167 154 134 112 90 73 64 62 68 82 103 128 150 164 167 160 143 122 102 88 81 81 86 95 103 110 113 113 112 111 111 113 117 121 124 125 122 117 110 104 100 98 99 102 108 114 122 129 137 144 150 154 155 153 148 139 128 115 104 96 92 92 95 99 103 106 107 106 105 103 103 106 111 119 127 137 145 150 152 148 141 129 114 99 86 76 71 70 73 81 92 106 121 137 151 162 170 174 
165 164 159 148 132 111 90 73 63 59 63 74 93 117 140 157 164 160 147 129 111 96 88 86 89 95 102 108 111 113 114 116 119 124 129 134 136 136 132 126 119 111 106 103 103 105 110 115 122 130 139 147 155 162 166 167 164 157 147 134 123 114 109 108 111 115 119 120 118 113 106 99 95 94 97 104 115 129 143 155 161 162 157 146 132 116 101 90 85 85 89 98 109 122 134 144 152 157 161 163 
147 149 149 143 131 114 96 79 68 62 64 72 89 111 134 152 161 160 152 137 122 108 100 97 98 102 107 111 115 118 120 124 129 135 141 145 147 146 142 135 127 119 113 110 110 112 115 120 126 133 141 150 158 165 170 172 171 166 158 149 140 133 129 129 132 136 139 138 133 122 110 97 88 83 84 91 103 121 141 158 169 174 172 164 151 136 121 110 104 104 109 118 127 136 142 145 145 144 144 145 
126 132 137 139 134 122 107 91 79 71 71 77 91 111 133 151 161 163 157 147 134 122 114 110 109 111 115 118 121 125 128 133 139 145 150 154 155 153 147 140 132 124 119 117 118 120 124 129 134 139 144 150 156 162 165 168 167 165 160 155 150 147 147 150 154 157 159 156 147 132 114 96 82 75 74 79 93 113 137 159 175 183 183 178 168 155 141 131 125 126 130 137 143 146 144 139 132 126 122 122 
105 115 127 136 138 133 122 108 94 85 83 87 99 117 137 153 163 166 163 155 145 135 126 121 119 120 122 125 128 131 136 141 147 152 156 159 158 154 148 140 132 126 122 122 125 129 134 139 143 146 148 150 152 153 153 154 153 152 151 150 151 154 159 164 170 174 175 170 159 141 118 96 79 69 66 71 84 105 132 157 176 187 190 187 179 168 157 148 143 144 148 152 153 151 142 130 116 105 99 99 
88 102 119 134 143 144 137 125 112 102 97 101 111 127 144 159 168 171 169 162 153 143 134 127 124 123 124 127 131 136 141 147 152 157 159 159 157 151 143 134 127 122 120 123 128 136 143 149 153 154 152 149 145 140 135 132 130 130 132 137 144 153 163 173 180 185 185 180 168 148 122 97 77 65 61 65 77 98 125 152 173 185 190 188 182 173 164 157 155 156 159 161 159 152 138 120 101 88 81 81 
79 95 115 135 148 153 149 139 127 116 111 114 123 137 152 165 172 174 172 165 155 144 134 126 121 119 121 124 129 136 143 150 155 159 160 157 152 144 134 124 117 113 114 119 128 139 149 157 161 161 156 148 137 126 115 108 105 105 109 118 130 145 161 174 184 189 190 185 173 152 125 99 77 65 60 62 73 91 117 143 165 178 183 182 177 169 162 157 157 160 164 165 162 151 133 112 91 76 69 70 
76 93 115 136 152 158 156 147 135 125 120 122 131 145 158 169 175 176 173 164 152 139 127 117 111 109 111 116 124 133 142 151 157 159 158 154 145 135 123 112 105 102 105 112 124 138 151 161 166 166 160 148 131 114 99 89 83 83 88 99 114 134 154 171 183 189 190 186 174 155 129 102 81 67 61 63 71 87 108 132 152 164 169 168 162 156 150 149 151 157 163 166 162 151 132 108 87 72 65 66 
80 97 119 139 154 159 156 147 135 125 121 123 133 146 160 170 176 176 170 160 145 129 114 103 97 95 98 105 115 128 140 150 156 158 156 149 139 126 113 102 95 93 96 104 117 133 149 161 168 168 162 148 129 108 90 77 70 69 74 84 100 121 143 162 176 184 186 183 172 155 132 108 88 74 68 67 73 85 102 120 135 145 148 145 140 134 131 133 140 149 158 164 162 151 133 111 90 75 69 70 
91 108 127 144 155 157 151 139 126 117 113 117 127 142 156 168 173 172 166 153 135 117 101 89 83 82 86 95 107 122 136 147 154 156 153 145 134 120 107 96 89 87 90 97 110 126 143 157 166 167 162 149 129 107 88 74 66 64 67 76 91 110 131 150 165 173 177 175 167 154 137 117 100 87 80 78 81 88 98 109 118 123 122 118 113 109 109 114 125 139 152 160 162 154 139 118 99 85 79 81 
109 123 139 151 156 152 142 127 113 103 100 105 116 132 149 161 168 167 160 145 126 107 90 79 74 74 79 88 102 117 132 144 151 153 149 141 130 118 106 97 90 87 89 94 104 118 134 148 158 162 159 149 132 113 94 79 71 67 69 76 87 102 119 135 148 157 161 162 159 152 141 129 117 107 100 97 96 98 100 103 104 103 99 94 89 87 89 97 111 128 145 157 162 158 146 130 113 101 96 99 
