P2
100 100
255
129 146 163 173 173 162 141 115 92 76 71 76 90 113 139 161 174 175 165 145 117 90 69 57 53 54 61 73 90 111 131 146 154 155 149 140 127 115 103 95 88 85 84 87 94 106 121 136 149 157 158 152 138 119 100 85 74 67 65 66 72 82 96 111 126 137 147 154 158 158 155 149 141 133 126 121 115 108 100 91 82 74 66 60 56 55 59 71 91 118 145 165 175 173 161 144 126 114 110 116 
158 170 180 182 176 158 130 100 77 62 58 62 76 99 127 151 167 171 163 144 118 92 73 62 58 60 67 79 95 112 128 138 142 140 136 129 123 118 115 112 110 107 103 100 98 100 106 115 126 136 143 146 143 136 125 114 103 94 87 81 79 79 83 90 97 106 116 127 140 151 160 165 166 165 161 156 147 134 117 98 81 66 56 50 47 47 53 65 85 112 140 161 172 174 167 156 145 138 139 146 
179 187 192 190 178 155 123 91 67 54 50 55 68 90 119 146 164 170 165 150 127 104 86 76 73 76 84 95 108 119 127 129 127 123 118 116 117 121 128 134 137 135 129 119 108 99 94 95 101 112 124 137 146 151 151 146 139 129 117 104 92 82 76 74 75 80 89 103 122 143 162 176 184 188 188 183 174 158 136 109 85 66 54 48 46 48 55 68 88 113 138 157 166 168 164 158 153 153 159 168 
190 197 199 195 180 154 120 86 63 51 48 53 66 88 117 145 165 173 171 159 142 124 109 101 99 103 111 120 127 130 127 120 111 103 98 100 108 122 139 154 163 164 157 143 123 102 87 79 80 89 104 124 145 162 172 174 171 162 148 128 107 88 73 65 61 63 70 85 108 135 162 182 195 201 203 200 191 175 151 122 93 72 59 53 53 57 66 81 100 120 139 151 155 154 151 148 149 155 166 179 
193 201 203 197 182 154 119 86 63 52 50 56 71 94 123 150 169 178 177 170 158 145 135 131 132 136 143 148 148 142 129 112 96 84 80 83 97 119 145 168 182 186 180 164 139 110 85 69 65 71 86 111 141 167 184 192 193 186 171 149 121 94 73 60 54 54 60 75 99 131 161 185 199 207 209 207 199 185 161 132 103 82 69 66 68 76 88 103 119 132 141 142 139 133 128 127 132 145 162 179 
189 200 202 197 181 154 120 88 67 57 57 65 82 106 133 158 173 181 181 176 168 161 157 157 160 166 170 171 166 153 131 106 84 69 64 69 85 112 145 175 193 200 196 181 154 119 86 65 56 59 73 100 134 167 189 201 204 198 184 160 129 98 74 60 53 52 59 73 98 129 160 183 198 206 208 206 199 185 164 138 113 95 86 86 93 105 119 132 142 146 143 133 120 108 100 100 108 125 148 171 
180 194 199 193 178 152 120 91 73 65 68 80 98 122 146 165 176 179 178 173 169 166 167 172 178 185 188 187 179 161 132 101 75 59 53 57 73 102 140 175 197 207 205 192 166 129 92 65 52 52 65 91 127 163 189 203 206 201 187 162 130 99 76 62 56 57 65 80 103 131 158 179 192 198 199 197 190 177 159 139 121 110 108 114 125 139 152 161 164 159 144 123 101 85 75 75 83 102 129 157 
169 186 192 187 171 146 117 93 79 77 83 98 118 140 157 168 172 170 165 160 157 158 164 173 184 192 197 196 186 165 134 99 70 52 46 49 64 93 133 171 197 209 210 199 176 140 100 69 53 51 62 87 123 159 186 200 203 197 181 156 125 97 78 68 66 70 79 94 114 136 156 171 179 182 182 178 171 160 147 134 125 123 129 141 156 169 180 184 181 168 145 115 87 68 58 56 64 82 110 142 
158 176 182 176 160 136 112 94 86 89 101 119 138 154 164 166 161 153 143 135 133 137 148 163 178 191 198 198 189 168 136 100 70 51 43 45 58 85 124 164 193 208 211 203 183 150 110 78 59 55 64 87 121 156 181 193 194 185 167 142 116 94 81 78 82 91 103 116 131 144 154 159 159 158 154 150 143 136 129 124 125 132 146 162 178 190 198 199 192 174 145 109 77 57 47 46 53 70 96 129 
149 167 171 163 146 124 104 93 93 102 119 139 155 164 165 157 143 127 113 104 102 108 122 142 163 181 192 195 188 170 141 105 75 55 46 46 57 81 118 157 187 204 209 204 188 159 123 90 70 65 73 94 124 154 174 183 180 167 147 123 103 90 87 93 105 119 132 143 150 153 150 144 136 128 121 116 112 110 109 112 122 137 156 175 191 202 207 206 197 177 144 105 72 52 43 42 48 64 90 121 
146 160 160 149 130 110 96 92 99 115 135 154 166 169 160 143 121 100 84 75 74 81 96 118 143 166 182 189 186 172 148 116 87 66 55 54 62 83 115 151 180 198 204 202 189 166 135 106 87 80 87 106 130 153 167 169 161 144 123 103 90 87 95 111 130 149 162 168 168 161 147 130 114 100 92 88 87 88 93 102 117 137 160 180 196 206 210 208 198 177 142 102 70 50 42 42 50 66 91 121 
148 157 152 136 116 98 89 91 104 126 149 166 173 169 153 127 100 78 63 55 55 61 75 96 123 149 170 181 182 174 156 131 106 86 74 70 75 91 116 145 170 187 195 194 186 169 146 123 107 101 107 121 139 153 159 154 139 119 99 85 80 85 102 127 153 173 185 187 182 168 146 120 98 82 74 71 72 77 85 96 113 134 157 178 194 204 209 207 196 174 140 101 70 52 45 46 56 74 100 127 
155 157 147 127 105 90 85 92 111 136 160 175 178 167 144 114 84 62 50 44 45 51 63 82 107 133 155 170 175 173 164 149 131 115 103 96 97 105 120 139 157 171 179 180 176 166 151 137 126 123 128 138 148 153 150 138 119 98 81 71 72 85 109 140 169 189 199 199 190 172 146 116 91 75 67 66 69 75 84 95 110 129 150 170 186 197 202 201 191 169 136 100 71 55 50 54 67 88 115 140 
164 160 144 120 98 85 83 95 118 146 169 181 181 166 138 104 74 54 44 41 43 49 61 77 99 121 141 156 165 169 168 163 155 146 137 129 124 123 126 132 140 148 154 158 158 156 150 145 142 142 146 151 154 152 143 125 104 83 69 64 68 84 112 146 176 196 204 203 194 175 148 118 93 78 72 72 77 83 90 98 108 121 137 155 171 183 190 190 182 162 131 99 74 60 58 65 82 106 133 154 
171 162 141 115 94 82 84 100 126 155 177 186 183 165 135 99 70 52 44 44 48 56 67 82 98 114 128 141 151 160 167 171 173 172 168 160 151 140 130 122 119 120 123 128 133 138 143 146 149 153 156 158 157 149 136 116 95 77 65 61 67 84 113 146 175 194 203 202 192 174 149 123 101 89 86 89 94 99 102 104 106 111 121 133 148 162 171 174 168 151 126 98 78 67 68 79 99 125 150 167 
174 161 137 110 89 80 85 104 132 161 182 190 185 166 135 100 73 57 51 53 60 71 83 94 104 111 117 123 132 143 157 171 182 188 188 182 170 152 131 111 98 92 92 98 106 118 130 142 150 156 159 159 154 144 130 112 93 78 68 65 71 86 110 140 167 184 192 192 184 169 149 129 115 108 109 113 118 120 117 111 104 101 102 110 121 135 148 154 152 140 121 99 83 76 80 94 116 142 164 175 
173 156 131 104 85 78 85 105 135 164 184 192 186 168 139 106 81 67 65 71 83 96 108 114 115 111 106 105 109 122 141 162 181 194 198 194 180 157 127 99 80 70 68 73 84 100 118 134 147 154 155 153 147 137 125 112 99 87 80 77 80 90 108 129 150 165 172 172 167 157 145 135 129 129 134 140 143 140 131 116 102 91 86 88 97 110 124 135 138 132 119 103 91 87 93 109 131 154 171 178 
169 149 122 96 79 74 82 103 133 162 182 189 185 169 143 115 94 85 87 98 114 128 137 137 128 112 97 87 87 98 119 147 174 192 200 197 183 155 120 88 66 55 53 58 70 88 109 129 142 148 147 142 136 129 122 117 111 106 101 98 97 99 106 116 127 136 142 143 142 139 137 137 141 149 157 163 163 156 140 119 98 82 73 72 79 91 106 121 129 130 123 112 104 102 108 123 143 162 175 177 
162 141 114 89 74 70 78 97 124 152 173 182 179 167 147 126 111 108 115 130 147 160 164 156 138 112 88 73 69 77 97 128 161 185 197 195 179 149 111 78 56 47 46 52 66 85 108 128 139 142 137 129 123 119 120 124 128 130 130 126 120 113 108 105 104 105 107 109 112 117 125 137 150 163 173 178 175 164 143 117 93 75 65 63 69 81 99 117 130 135 133 126 120 119 125 137 153 167 175 174 
158 135 108 84 70 65 71 87 111 136 156 167 168 160 147 134 128 131 143 159 174 183 182 169 142 109 80 61 55 60 79 111 147 176 191 190 172 140 102 70 51 43 44 53 70 92 116 134 141 138 128 116 109 109 117 131 145 156 159 156 146 131 114 98 86 80 78 80 86 98 114 135 156 172 182 185 180 164 140 111 86 69 60 60 67 81 101 122 139 147 148 144 139 137 141 150 161 171 175 171 
158 135 108 85 69 63 66 77 94 115 134 146 150 148 142 139 141 150 164 179 191 196 191 173 142 104 73 53 46 50 67 97 135 166 183 182 164 131 93 64 48 43 48 61 83 109 132 147 148 138 120 104 96 98 113 135 158 175 183 181 170 150 123 96 76 64 59 61 69 85 107 135 160 178 187 187 178 159 132 103 79 65 59 61 71 89 112 135 153 162 164 161 156 153 154 160 167 174 176 171 
162 142 116 91 73 64 62 68 80 95 110 122 129 132 135 139 148 161 176 190 199 201 192 171 137 98 67 49 42 46 62 91 128 160 177 176 157 124 88 63 50 49 58 78 105 133 155 164 159 141 116 94 84 88 106 135 165 187 198 199 188 166 134 99 72 56 50 51 61 79 106 137 164 181 188 185 172 149 120 93 73 62 60 65 79 101 127 151 168 176 177 173 167 163 163 166 172 177 179 174 
171 154 130 105 84 70 64 64 69 79 90 100 110 118 127 138 151 167 182 194 200 200 189 166 131 93 64 48 43 48 65 93 129 159 174 172 152 120 87 65 56 60 76 102 133 160 177 181 170 146 114 87 74 77 96 129 164 192 206 208 200 178 144 105 73 54 46 48 59 80 110 143 169 183 187 179 162 136 107 83 68 61 63 73 91 116 142 164 178 184 182 177 170 165 163 166 172 178 182 180 
181 169 149 125 102 83 71 65 66 70 78 87 97 109 121 136 152 168 182 192 197 194 181 157 124 90 65 51 49 56 75 104 137 164 176 171 150 120 90 71 67 77 100 131 162 185 196 195 180 150 113 82 66 67 85 118 158 189 207 212 206 186 153 112 77 56 48 50 63 87 118 150 173 184 183 171 150 122 95 75 65 62 68 82 104 130 154 172 181 183 178 170 161 155 154 158 166 175 182 185 
188 182 168 148 124 101 84 73 70 71 76 84 95 108 122 137 153 167 178 186 188 183 170 147 117 89 70 61 62 74 95 123 152 173 180 172 151 122 95 80 81 97 126 158 186 203 209 205 187 154 113 78 59 57 73 105 146 182 204 212 208 191 160 119 83 60 52 56 71 97 129 158 177 183 177 161 136 109 86 71 65 67 77 94 116 141 160 172 176 172 163 151 140 133 133 139 151 166 178 186 
190 191 183 167 146 122 102 88 81 80 85 93 104 116 129 142 154 163 170 174 173 167 154 134 112 92 81 78 85 100 122 147 169 183 184 173 151 123 100 89 95 117 148 179 201 214 217 211 191 157 112 75 54 50 62 90 131 170 197 209 207 193 164 125 89 67 59 64 81 108 139 164 178 179 169 149 123 98 80 70 69 76 89 108 129 148 161 165 161 151 136 122 110 103 104 112 128 148 168 183 
186 192 190 180 163 142 121 107 99 98 103 111 122 132 142 149 155 157 158 156 152 144 133 120 107 98 96 101 114 131 152 171 185 190 187 172 148 121 101 94 104 129 161 190 209 219 221 213 194 158 113 73 51 45 53 77 114 156 186 202 203 191 165 130 96 74 68 74 93 119 147 167 175 171 157 135 111 91 79 76 80 90 106 124 142 153 157 152 140 123 105 89 79 74 75 84 101 124 149 172 
175 187 189 184 171 154 137 125 119 121 127 136 145 153 157 158 155 149 141 133 125 118 110 104 101 104 112 126 143 161 177 189 195 194 185 166 140 114 96 93 105 131 164 192 210 219 221 213 194 159 113 73 50 42 47 66 99 139 173 193 197 187 164 132 101 82 76 84 103 127 150 164 167 159 143 122 103 90 85 88 97 112 128 143 154 158 152 138 118 96 77 64 55 52 53 61 75 98 126 154 
157 174 180 178 169 157 145 137 136 142 150 160 167 171 171 165 153 138 123 109 99 92 88 89 95 108 127 147 167 182 193 199 199 193 178 154 126 101 86 84 97 122 155 184 204 214 217 210 192 158 114 75 51 41 44 59 88 125 160 181 188 180 160 132 105 89 85 93 110 130 148 156 155 144 128 112 100 95 97 107 121 137 152 162 167 163 149 128 102 78 60 48 41 39 40 46 57 76 102 132 
136 154 163 163 157 148 141 140 145 155 167 177 184 185 180 168 150 127 105 87 76 71 71 76 89 110 136 161 181 195 202 203 198 186 166 138 109 85 73 72 82 105 135 165 189 203 208 204 187 157 117 80 55 45 46 58 82 115 148 170 177 171 154 130 107 94 91 99 114 130 141 144 140 129 116 106 102 106 116 131 148 163 173 179 178 169 150 124 95 70 52 41 35 33 34 38 46 61 83 110 
117 133 141 141 136 130 128 132 143 159 174 186 192 192 185 169 144 116 90 72 61 57 58 67 83 109 139 168 188 200 204 202 193 175 149 118 90 70 60 59 67 84 109 138 164 183 192 192 180 155 121 87 65 54 53 64 84 113 141 161 168 162 146 126 107 97 96 103 114 125 132 131 125 116 108 106 110 122 138 156 171 183 189 191 187 175 155 128 98 73 55 43 37 34 34 37 44 55 73 95 
106 117 120 118 112 108 108 117 132 153 172 186 193 193 184 165 138 107 80 62 52 49 52 61 79 107 140 169 189 200 202 196 182 160 130 99 75 59 51 49 54 65 84 108 133 154 169 174 168 151 126 99 80 70 69 78 96 119 142 156 160 153 138 121 106 98 98 104 113 120 123 120 115 109 107 112 124 141 159 176 188 195 198 197 191 180 163 138 111 87 69 56 48 44 43 45 50 60 73 90 
107 111 108 101 92 88 89 98 116 138 161 178 187 187 178 159 131 100 75 58 49 47 50 60 79 107 140 168 187 196 195 186 168 142 111 83 63 51 45 44 46 53 65 82 102 123 141 152 154 146 132 115 101 94 94 102 116 133 148 156 155 146 131 115 103 98 99 104 111 116 117 114 110 108 112 123 139 158 175 188 196 199 199 196 190 181 168 151 132 112 95 82 73 67 64 65 69 76 87 98 
120 116 106 94 82 75 75 82 98 119 142 161 173 175 167 150 125 98 75 61 53 51 55 65 83 110 141 167 183 189 186 173 151 123 95 72 57 48 44 44 45 49 56 66 80 97 114 129 138 140 137 131 126 123 125 132 141 151 158 159 153 141 125 110 100 97 99 104 110 114 115 113 112 114 122 136 153 170 184 192 195 194 191 186 180 175 169 162 153 142 131 121 112 105 101 100 102 107 113 119 
141 131 115 98 82 71 68 72 83 100 120 138 151 156 151 139 120 100 83 71 65 64 68 78 95 119 144 165 177 179 172 156 133 106 82 65 55 50 49 49 51 53 57 63 71 83 96 111 123 134 140 145 148 151 154 160 165 169 169 164 153 137 120 106 98 96 99 105 111 115 117 117 118 123 133 147 163 175 184 186 184 178 170 163 158 158 160 165 168 168 166 161 156 150 146 143 143 144 146 146 
162 149 131 110 91 77 69 68 73 84 99 113 125 132 133 128 119 108 98 91 87 87 91 100 115 133 151 164 170 167 156 137 114 92 74 63 59 58 61 64 67 69 71 73 76 81 89 99 112 126 139 151 161 169 175 179 181 181 176 166 152 134 116 103 96 95 100 107 114 119 122 123 127 133 143 154 165 172 174 169 160 148 136 127 125 130 142 158 173 185 190 191 189 186 182 179 177 175 174 170 
177 165 149 129 108 91 79 72 71 75 82 92 101 110 116 120 122 122 120 119 118 120 123 129 138 148 157 161 160 151 137 117 97 81 70 66 68 74 82 90 96 99 99 97 93 91 91 95 104 117 133 149 164 175 183 188 189 186 178 166 149 130 112 100 95 96 102 110 118 124 127 130 134 139 147 154 160 160 154 143 127 111 97 89 89 98 117 143 170 190 202 207 208 206 203 199 195 192 188 184 
181 174 163 148 131 113 97 84 76 73 73 77 84 93 104 116 128 138 146 150 152 154 155 157 159 161 161 157 148 134 117 99 84 74 70 73 82 97 112 126 135 138 137 130 120 109 100 95 98 107 121 139 157 172 182 187 187 183 174 161 143 125 110 100 97 100 107 116 124 129 132 135 137 140 144 147 146 140 128 112 93 77 65 59 60 71 93 125 159 187 204 212 214 212 208 203 197 193 189 186 
175 175 172 164 153 138 121 104 89 77 71 69 73 82 96 116 136 154 168 175 179 180 179 177 173 168 160 149 134 118 100 85 75 70 73 84 101 123 145 161 172 175 172 164 149 130 112 98 93 96 107 124 142 158 170 176 177 173 163 150 134 119 108 103 104 109 117 125 131 135 136 135 135 135 135 133 128 117 102 85 68 55 46 41 43 53 74 107 146 178 199 208 210 207 200 192 184 178 175 174 
157 166 173 175 171 161 146 127 107 88 75 69 69 77 94 118 144 167 182 191 195 195 192 186 178 167 154 138 121 103 88 76 70 71 79 97 121 148 171 188 197 200 197 187 171 148 122 102 89 87 94 107 124 139 151 158 158 154 145 134 123 114 109 109 114 122 130 136 140 140 136 132 128 124 121 116 109 97 83 68 54 43 37 34 36 45 63 94 132 166 188 197 197 190 179 166 155 148 146 150 
132 151 168 179 183 179 168 150 127 103 84 73 70 78 95 121 150 174 190 198 201 199 194 185 174 160 144 126 109 94 81 73 71 76 89 111 139 167 188 203 210 212 208 199 182 157 129 104 88 82 85 95 107 120 129 134 133 129 122 115 110 109 112 119 129 138 146 150 149 144 135 126 117 111 106 101 95 85 74 61 50 42 36 34 36 44 61 88 122 153 173 179 174 162 145 128 115 108 109 117 
107 133 159 179 189 191 184 169 147 120 97 81 76 82 98 124 153 176 191 198 198 194 186 175 161 146 130 116 102 91 82 78 78 86 102 125 153 178 197 208 214 215 210 200 183 158 130 105 89 82 84 90 99 106 110 111 108 103 99 96 98 105 117 131 146 157 163 163 158 147 133 118 106 98 94 91 88 83 75 66 57 50 45 43 45 52 67 90 118 142 155 155 144 126 107 90 78 73 76 87 
88 118 150 176 191 197 194 182 162 136 111 92 84 88 102 126 152 172 185 190 188 180 169 156 142 129 118 109 102 96 92 91 93 102 118 139 163 184 199 207 211 210 204 192 174 151 126 106 94 90 92 97 102 103 100 94 88 82 79 81 88 103 123 144 162 173 178 175 166 150 130 110 96 89 87 88 90 90 88 83 76 69 64 62 64 71 84 102 121 135 139 131 115 94 76 62 53 51 55 66 
78 108 142 171 190 198 198 189 172 149 124 104 93 94 106 125 146 163 172 173 168 157 144 131 120 113 110 109 109 110 110 112 115 123 135 152 170 185 195 200 201 197 188 174 157 137 119 108 104 107 112 116 117 111 101 88 76 68 66 70 81 102 129 155 175 186 189 184 171 151 126 104 89 83 84 91 100 108 112 111 108 102 97 95 96 101 110 122 132 135 128 113 93 73 57 47 42 41 45 57 
76 104 138 167 186 196 197 190 177 156 133 113 102 100 107 121 135 147 151 149 140 129 116 107 102 102 108 116 124 131 135 137 140 144 151 161 172 180 185 186 182 174 162 147 131 119 112 112 119 130 139 144 141 129 110 89 71 61 57 62 76 101 133 164 185 196 197 190 175 151 123 99 84 80 86 99 116 131 141 146 145 142 138 135 134 137 141 145 145 138 123 102 81 63 50 43 40 40 45 56 
81 106 134 160 178 188 190 186 175 158 138 120 108 103 106 113 121 127 126 121 111 101 92 88 90 99 113 129 143 153 158 160 160 161 162 165 169 171 170 165 155 143 128 114 104 100 105 118 137 155 168 172 168 152 126 97 72 57 52 57 73 100 136 168 190 201 201 193 175 149 119 95 82 81 92 111 133 153 167 175 176 175 172 169 167 167 166 163 156 142 122 99 78 62 52 47 46 48 53 64 
91 110 131 151 166 175 177 175 166 153 137 122 110 104 103 105 107 107 103 96 88 81 77 79 88 104 124 144 161 171 176 176 173 169 165 162 159 155 149 138 125 109 95 85 80 85 100 125 153 176 190 195 190 172 143 107 76 57 50 54 70 99 136 170 192 202 202 192 173 145 116 93 83 85 100 123 148 170 184 191 194 193 191 188 185 183 179 173 162 145 123 100 81 69 62 59 60 63 69 78 
106 115 126 138 147 154 157 156 152 143 132 120 110 103 99 97 95 91 86 80 74 71 72 79 94 115 138 160 175 183 184 181 174 166 158 151 144 137 126 113 98 83 71 64 64 75 97 130 164 191 205 210 204 187 157 117 81 58 49 53 68 97 135 169 191 200 199 188 167 139 112 92 85 91 109 134 159 178 190 196 197 196 193 190 187 184 179 172 160 143 124 105 91 82 79 80 84 88 93 98 
120 119 119 121 124 128 131 133 133 130 124 117 110 103 97 92 87 82 77 72 69 70 75 87 106 130 153 171 182 186 183 175 165 153 143 134 126 118 108 95 81 68 58 53 56 69 95 133 171 198 213 218 213 196 166 125 86 61 50 53 69 97 134 167 188 195 192 179 158 131 107 93 90 100 118 142 164 179 187 190 189 185 181 178 175 172 168 162 152 139 125 112 104 101 104 109 115 119 122 122 
132 120 110 103 101 102 106 111 115 118 118 116 111 105 98 92 86 80 75 72 72 76 86 102 123 146 165 178 183 180 172 159 144 131 120 113 109 105 98 88 76 64 54 50 53 66 93 132 172 200 215 220 215 200 170 130 90 64 54 57 72 100 134 164 181 186 181 166 145 122 104 95 97 110 129 148 164 173 176 173 168 161 156 153 151 151 150 147 141 134 126 121 120 124 131 139 147 150 149 143 
139 118 100 88 82 82 86 94 103 112 117 119 116 111 105 97 91 85 81 80 83 90 103 120 140 159 173 179 177 167 152 134 117 104 96 94 96 98 98 92 82 70 59 53 54 65 90 128 167 196 212 217 213 197 169 131 93 69 60 64 80 106 136 161 173 174 165 149 129 112 101 100 108 122 139 153 162 162 157 148 137 128 123 121 122 126 129 132 132 131 129 131 135 144 154 164 171 173 169 157 
140 114 91 76 70 70 76 87 100 113 123 127 127 123 116 109 102 96 94 94 99 108 121 138 155 168 175 174 165 148 127 106 89 80 77 81 90 100 107 107 99 86 71 61 58 65 85 118 155 185 202 208 204 189 162 127 96 76 70 77 95 119 142 159 164 159 146 129 113 103 101 107 120 136 150 157 157 149 135 119 106 96 92 93 98 106 115 122 127 131 135 140 148 159 171 180 186 186 179 164 
138 109 85 70 64 66 75 89 106 122 135 141 142 139 132 125 118 113 111 112 117 126 139 153 165 172 173 166 150 127 103 82 68 63 65 75 91 110 125 131 125 110 91 75 66 66 80 105 137 165 183 190 186 172 148 120 97 85 86 97 115 135 152 159 156 143 127 110 99 96 103 117 134 150 160 161 153 137 116 96 82 74 72 76 85 97 110 121 129 136 141 148 157 168 179 188 192 191 182 164 
135 105 82 69 65 69 81 99 120 138 151 158 159 156 150 142 136 131 129 129 134 141 151 161 169 172 168 156 135 109 85 67 56 54 60 75 99 125 147 157 154 139 117 93 76 70 75 91 115 139 156 163 159 147 129 110 98 96 104 120 139 154 162 160 147 129 109 95 89 93 107 128 148 163 170 165 151 128 103 82 69 63 65 72 84 99 115 127 136 142 147 153 161 171 181 189 193 191 181 162 
131 103 82 71 70 78 94 116 138 156 168 173 173 169 163 157 150 145 142 141 144 149 155 162 167 168 162 147 125 99 76 60 52 52 61 80 109 142 167 180 179 165 142 114 90 75 72 80 94 111 124 129 127 118 107 99 98 107 124 144 161 171 171 160 140 115 95 83 82 93 113 138 160 174 177 169 150 124 97 77 66 63 67 78 93 110 125 137 143 146 148 152 159 169 178 186 190 188 177 158 
127 101 83 75 78 90 110 135 157 173 182 184 183 178 171 164 157 151 147 145 145 148 152 158 161 162 156 142 121 97 75 60 53 55 66 88 121 156 181 195 195 184 162 133 104 84 74 74 81 90 97 100 97 92 88 89 99 117 141 163 178 183 176 158 132 104 84 75 78 94 119 147 169 182 182 172 150 123 97 78 70 69 77 90 106 122 135 142 144 143 142 144 151 161 172 181 185 183 173 153 
123 100 84 80 86 102 126 151 172 185 191 191 187 180 171 162 154 147 141 138 137 139 143 148 153 155 152 142 125 103 83 68 61 62 74 98 131 165 189 202 203 194 175 148 118 95 81 77 78 81 83 82 79 76 76 83 100 125 152 175 187 188 176 153 122 94 76 70 76 95 123 152 174 185 184 172 150 124 100 84 78 81 90 104 119 131 139 140 137 132 128 129 136 149 162 174 179 178 167 148 
118 96 84 82 91 111 137 162 181 191 194 192 185 175 163 151 141 133 127 123 122 124 129 137 145 151 153 148 135 117 98 82 73 72 83 106 137 168 191 202 204 196 180 157 130 108 94 87 86 85 83 79 73 70 71 81 101 129 158 179 189 186 170 143 111 84 68 65 74 95 124 154 174 183 181 169 148 125 105 93 89 94 104 115 126 132 133 128 120 112 108 110 119 135 152 166 174 172 161 141 
110 91 80 81 92 113 141 166 184 193 193 188 177 163 147 133 121 113 107 105 105 108 116 126 139 150 157 157 149 135 117 99 87 84 92 111 138 165 186 196 198 192 178 159 139 122 111 106 104 102 96 88 79 73 73 82 102 130 158 178 185 179 160 130 99 75 63 62 73 94 123 151 170 177 173 161 142 123 108 101 101 106 114 122 126 125 119 109 99 90 87 92 104 124 145 161 170 167 155 134 
101 83 74 75 87 109 137 163 181 189 188 179 164 145 126 110 98 91 88 87 89 95 106 120 137 152 163 167 164 153 136 117 102 94 97 111 132 155 173 183 185 180 170 156 143 134 130 130 130 128 120 108 95 84 81 88 105 130 155 172 177 167 145 116 87 67 58 60 72 93 119 144 160 165 160 148 133 119 110 108 111 116 122 123 120 112 101 89 78 72 72 80 96 119 143 160 168 164 149 126 
92 74 65 67 78 99 127 154 174 182 180 168 149 126 105 88 78 73 72 74 79 88 102 120 140 158 170 176 175 166 150 130 111 100 98 106 121 139 154 163 166 162 155 148 143 143 147 152 156 155 148 134 117 101 93 96 109 130 151 164 166 154 131 103 78 63 57 61 73 92 115 135 146 148 142 131 120 112 110 113 119 124 126 122 112 99 84 72 64 61 65 77 97 123 148 165 170 163 143 117 
83 65 57 58 68 87 114 142 163 173 170 157 134 109 87 73 64 61 62 67 75 88 105 126 148 165 177 183 181 172 155 134 114 99 94 97 107 120 132 140 142 141 137 136 139 147 158 169 176 177 171 157 138 119 107 106 114 131 147 157 156 144 121 96 75 63 61 66 78 95 113 126 132 130 122 113 106 105 109 117 126 131 130 121 106 90 74 64 58 59 68 85 109 137 160 173 175 163 139 109 
75 58 50 51 59 76 102 131 154 165 163 148 124 98 77 63 57 55 58 65 77 93 114 137 158 173 182 185 181 170 152 130 109 94 87 88 94 104 113 119 121 121 121 124 133 147 163 177 187 189 184 171 153 133 119 115 121 133 146 154 152 140 120 98 81 72 72 78 90 104 116 122 120 113 104 97 94 99 109 122 133 138 135 124 106 88 73 64 62 68 82 104 130 156 175 184 181 165 136 103 
70 53 45 46 53 69 94 123 148 160 159 144 120 94 73 60 54 54 59 69 84 104 128 150 168 179 185 184 176 161 141 119 100 86 81 81 87 95 103 108 109 109 110 116 128 144 162 178 188 191 186 175 157 139 126 121 126 138 149 156 154 144 127 110 97 91 92 100 110 119 124 122 113 101 91 85 86 95 110 128 142 148 144 132 114 96 82 76 78 88 107 131 156 177 190 194 186 166 134 98 
67 50 44 44 52 68 93 122 147 161 161 147 124 98 76 63 57 58 64 77 96 119 143 163 176 183 183 177 165 147 125 105 89 80 77 81 88 96 104 108 109 108 109 114 124 140 157 172 180 183 178 166 150 135 125 124 131 143 155 162 162 155 143 130 121 118 121 129 136 140 138 128 112 95 83 79 83 96 115 136 151 158 156 144 128 111 100 97 103 117 137 160 180 194 202 201 190 167 132 95 
66 51 46 47 57 74 100 129 153 166 167 155 133 107 85 70 64 65 74 90 111 136 158 173 182 184 178 166 149 128 107 91 80 77 79 87 97 108 116 120 119 117 115 117 124 136 148 159 165 165 158 147 133 122 117 121 133 148 162 170 172 169 161 154 149 149 153 158 162 161 153 137 116 95 82 78 84 100 123 145 161 169 167 158 144 131 123 123 132 147 165 183 196 205 208 203 190 164 129 93 
69 56 53 57 68 88 114 141 163 174 175 164 145 121 98 83 76 78 88 106 128 151 169 181 184 180 169 151 130 108 91 79 75 78 87 100 115 128 136 139 137 133 128 125 127 131 137 142 143 139 131 120 110 104 106 116 133 152 168 178 182 180 177 173 172 173 177 181 182 178 167 147 122 100 85 82 90 109 132 154 170 177 175 168 158 148 144 146 156 169 183 196 204 208 207 200 184 158 125 92 
74 66 67 74 88 109 134 157 174 182 182 173 157 135 114 99 92 94 106 124 145 164 178 184 182 173 156 134 110 91 78 72 74 84 99 118 137 151 159 160 157 150 142 135 130 127 126 124 119 112 103 94 87 86 93 108 130 153 171 182 187 187 185 183 184 187 190 194 194 188 176 155 130 107 93 91 101 120 143 163 176 181 179 172 163 156 154 158 166 178 189 197 201 202 198 188 172 147 118 92 
84 83 88 100 116 135 155 172 183 188 187 179 165 147 129 115 109 113 124 141 159 173 182 184 177 162 140 115 93 77 69 69 77 93 115 139 158 171 177 177 172 163 152 142 132 124 117 109 100 90 81 74 70 73 82 101 125 150 169 181 185 185 183 183 184 188 192 195 195 190 178 159 136 116 104 103 114 132 153 169 178 180 175 167 158 151 150 154 162 171 180 185 187 185 178 167 151 131 110 94 
98 105 116 130 146 161 174 183 189 190 187 179 168 153 139 129 125 129 140 154 169 179 183 181 169 150 124 99 79 67 64 69 82 104 131 156 175 185 188 186 179 169 157 144 132 121 110 99 88 77 68 62 60 64 75 95 119 144 163 173 175 174 171 169 171 175 181 186 187 184 174 158 139 124 116 118 129 145 161 172 175 172 164 152 142 134 132 136 142 150 156 159 159 155 147 137 124 112 102 97 
113 128 144 158 170 179 185 188 188 186 181 174 164 153 142 136 135 140 150 163 174 181 182 176 161 137 110 86 69 61 61 69 87 113 143 168 185 192 193 188 179 167 154 141 129 118 107 96 84 73 64 58 57 62 73 91 114 136 151 158 157 152 146 143 144 149 157 164 168 167 161 150 138 129 127 132 143 156 166 170 168 158 145 130 117 109 106 108 113 119 123 124 122 117 111 104 98 95 96 102 
127 147 164 176 184 187 188 186 182 176 170 162 153 145 138 135 137 143 154 165 175 180 180 171 153 127 99 77 62 57 59 70 90 119 150 174 189 194 192 184 172 158 144 132 123 115 107 97 87 76 67 62 60 64 74 90 110 127 137 139 132 123 114 109 109 114 122 131 138 141 140 136 132 131 135 143 154 163 168 165 156 140 121 104 91 84 81 82 86 89 91 91 89 85 81 79 79 83 93 108 
137 157 173 182 186 186 182 176 169 161 152 145 137 131 127 127 130 138 149 161 171 177 176 166 148 121 94 72 59 54 57 69 90 120 151 175 188 191 186 175 159 143 129 119 114 111 108 103 96 86 78 72 70 73 81 95 110 121 125 120 109 95 84 78 77 81 88 97 105 111 116 119 123 130 140 151 161 167 165 157 140 119 99 82 71 65 63 65 67 70 72 71 70 67 66 67 71 80 94 114 
140 159 171 177 178 174 168 159 150 141 132 125 119 115 112 113 118 126 138 151 163 171 172 164 146 121 94 72 59 54 56 67 87 116 147 171 183 185 178 163 144 125 112 105 104 107 111 112 109 103 95 88 85 87 94 105 115 120 118 108 93 78 66 59 56 58 63 70 78 86 94 103 114 128 142 155 164 166 160 145 124 101 81 67 59 55 56 58 62 65 67 68 67 66 66 68 74 84 100 120 
138 150 158 160 159 153 146 137 129 121 114 108 103 99 97 97 101 109 121 136 150 162 167 164 150 127 101 79 63 56 56 65 83 109 139 163 176 178 169 152 130 110 97 93 96 105 115 123 125 123 117 111 107 107 112 119 125 126 120 106 89 72 59 51 48 48 51 56 62 69 78 91 106 125 143 157 165 163 153 134 110 87 70 59 54 54 58 64 70 75 79 81 81 81 81 83 88 96 108 123 
130 134 136 135 131 126 121 115 111 107 103 98 94 89 85 83 85 91 101 117 135 152 163 166 158 140 116 91 72 61 58 63 78 101 129 154 169 171 162 144 121 101 88 85 91 104 119 133 141 142 139 134 130 129 132 136 139 138 130 115 97 79 65 56 50 48 49 51 55 62 71 84 102 123 142 157 163 159 145 123 99 79 65 59 58 63 71 81 92 101 107 110 111 111 110 110 111 114 119 124 
119 115 111 107 103 101 100 101 102 102 102 98 93 85 78 73 72 74 83 98 118 141 160 169 168 157 136 111 88 71 63 63 74 94 120 145 162 167 159 142 120 99 86 83 90 105 124 141 153 158 157 153 149 147 148 151 153 152 145 133 117 99 84 72 64 60 57 57 58 63 71 84 102 123 143 156 160 153 137 115 93 76 66 65 70 81 95 111 126 137 144 148 149 148 145 142 138 133 129 124 
107 96 88 84 82 84 89 96 103 109 111 108 101 89 78 68 63 62 68 81 103 130 156 173 179 174 159 135 109 87 72 67 72 88 112 137 156 165 161 146 126 105 91 87 94 108 128 147 161 167 168 164 160 157 157 159 162 163 161 154 143 129 115 103 92 83 76 72 70 71 78 89 107 127 144 155 157 148 131 110 91 78 74 78 90 108 128 146 161 172 178 181 181 179 175 169 160 149 135 121 
97 83 74 70 71 77 88 101 115 126 130 127 117 101 84 69 59 55 58 69 91 121 152 176 189 189 180 160 134 107 85 74 73 85 106 131 153 165 165 155 137 117 102 96 101 114 133 151 164 171 172 168 162 158 156 159 163 168 171 171 167 160 151 140 129 118 107 97 90 87 91 100 115 132 147 156 155 145 128 109 93 85 86 97 115 137 159 176 189 196 200 200 199 196 192 184 173 157 138 116 
91 76 67 66 70 80 96 115 134 148 154 151 138 118 95 75 60 52 52 62 82 113 149 178 195 201 196 182 158 130 102 84 77 84 101 126 150 165 170 164 149 131 116 108 110 121 137 154 165 171 170 164 156 150 147 149 155 165 174 180 184 184 180 174 165 154 141 127 116 109 108 114 126 140 152 158 155 145 129 111 98 94 101 117 139 162 181 195 203 207 208 207 204 201 196 188 175 158 136 112 
90 76 70 70 77 91 111 133 154 168 175 172 160 139 113 86 66 54 51 57 75 106 144 177 198 207 207 197 178 150 120 95 83 84 98 121 146 164 172 170 159 144 129 120 120 128 142 155 164 168 164 155 144 134 129 130 138 151 166 179 189 195 197 195 190 181 168 154 140 129 125 129 137 149 158 161 158 147 132 116 106 105 114 133 155 176 192 202 206 207 205 202 197 193 187 179 168 152 131 109 
96 86 81 83 92 107 128 150 169 183 189 188 178 160 133 104 78 61 54 57 72 100 138 174 198 210 212 206 191 166 135 106 88 85 95 115 139 159 170 171 163 151 138 129 127 134 144 155 162 163 156 144 129 116 108 108 115 130 148 167 183 194 200 202 200 194 183 170 156 144 139 140 147 156 163 165 161 151 136 122 113 113 123 141 161 179 191 197 198 195 189 183 177 172 167 161 153 142 127 111 
109 103 101 103 111 124 142 160 177 189 195 196 190 176 154 125 96 73 60 59 70 94 130 167 194 208 213 210 198 176 145 115 93 85 91 107 129 149 162 165 161 150 139 131 130 135 144 153 158 157 148 133 115 99 89 86 92 105 124 145 165 181 192 197 198 193 185 173 160 150 145 146 152 160 167 169 165 155 142 128 119 118 126 140 156 169 177 179 176 169 160 151 144 139 137 136 135 132 126 118 
130 127 126 127 131 138 149 161 174 185 193 197 196 188 171 147 117 90 71 64 69 88 119 155 184 202 210 209 199 179 150 119 95 84 86 99 117 136 149 154 151 143 134 127 127 132 141 149 154 151 141 125 106 88 77 72 74 83 98 117 138 157 171 179 182 181 174 164 154 146 143 146 153 162 169 171 168 159 147 133 123 119 122 130 140 147 150 148 141 131 120 111 105 103 105 111 119 126 131 131 
153 153 151 148 146 145 146 152 160 170 180 189 194 193 184 166 139 110 86 72 70 81 106 138 168 190 201 202 194 176 148 118 94 82 82 91 106 121 133 137 135 129 122 118 119 125 134 143 147 146 136 121 103 85 73 66 64 68 77 91 108 125 139 150 155 156 152 145 138 134 134 140 149 160 168 171 170 162 151 138 126 118 115 116 118 119 116 111 102 92 83 76 73 75 82 94 111 127 141 149 
173 174 171 163 153 143 134 131 134 143 157 171 183 190 189 179 158 130 102 81 71 75 92 118 146 170 184 188 182 166 141 114 92 81 79 85 97 109 118 121 119 114 108 106 108 114 124 134 140 141 134 122 106 91 78 69 64 63 66 73 83 94 105 115 121 124 124 121 118 118 122 130 141 153 163 168 169 164 154 142 129 117 108 102 97 92 86 79 71 63 57 54 54 60 71 89 112 136 155 167 
188 188 183 171 154 134 116 106 103 110 125 144 165 181 188 185 171 147 117 90 74 70 78 97 121 144 161 168 164 151 130 108 90 80 79 84 93 102 107 109 106 101 96 94 97 103 113 124 132 136 135 128 117 104 92 82 74 69 66 66 68 73 79 86 92 96 98 99 100 103 109 118 130 142 153 161 164 162 156 146 134 120 107 95 84 74 66 59 53 48 45 45 48 56 71 94 121 148 169 182 
197 195 188 173 150 122 98 82 76 79 92 114 140 164 181 186 178 158 130 100 78 68 69 80 97 117 134 143 142 133 118 102 90 84 84 89 96 102 105 104 99 93 88 86 88 94 103 114 125 133 137 136 132 124 115 105 95 85 76 70 66 65 67 70 74 79 83 86 89 93 98 106 116 127 139 148 155 158 157 152 142 129 113 97 81 68 57 50 45 42 41 44 50 62 80 106 135 161 181 192 
199 196 187 170 143 112 84 65 57 58 67 87 115 145 169 181 180 165 140 110 85 69 65 70 81 96 110 120 122 118 109 100 93 91 94 99 106 110 110 107 100 92 86 83 84 89 97 108 120 131 140 146 148 146 142 134 123 110 97 85 75 69 67 68 72 76 81 85 87 89 92 95 101 110 120 132 142 152 157 158 154 143 128 109 89 72 59 50 45 44 45 50 59 74 95 122 149 171 187 196 
194 192 182 164 137 105 76 57 47 46 52 68 93 125 155 174 179 170 148 120 94 76 67 67 74 84 96 105 109 109 106 103 102 104 109 116 122 124 122 116 107 97 90 85 85 88 95 106 119 132 144 155 162 165 165 161 152 139 124 108 95 85 80 80 83 88 92 95 95 93 90 88 89 93 100 112 127 142 156 165 166 161 148 129 108 87 70 59 53 52 55 63 75 92 113 136 158 175 186 192 
181 180 173 158 133 103 76 56 46 42 46 58 80 111 143 166 176 173 157 133 107 87 76 72 75 83 92 100 106 108 110 112 115 121 128 135 140 141 137 129 118 107 97 92 90 93 100 109 122 136 149 161 171 177 180 179 173 163 150 134 121 110 105 104 108 112 116 116 112 103 93 84 78 78 82 93 110 132 153 170 178 178 170 155 134 111 91 77 70 69 74 83 97 113 130 146 159 169 175 179 
159 161 159 150 132 107 83 63 50 45 46 56 75 104 136 162 176 176 166 146 124 104 90 84 84 89 96 103 110 115 120 125 131 139 147 153 157 156 150 141 128 116 107 101 100 103 109 119 130 142 154 165 174 180 184 185 182 175 166 155 145 138 135 136 139 144 146 143 134 118 99 82 71 66 68 77 95 120 149 172 187 192 188 178 161 140 120 105 96 95 101 110 122 133 142 148 150 152 153 156 
129 137 143 143 134 117 96 77 62 54 53 61 78 105 137 162 177 181 174 160 142 123 108 100 98 100 105 112 119 126 132 140 147 155 162 167 168 165 158 147 134 123 114 110 111 116 123 132 141 151 159 166 172 176 178 178 176 173 168 163 160 159 160 164 169 173 173 168 155 133 107 83 66 58 57 65 82 109 142 172 191 200 201 195 183 167 149 135 127 126 131 138 145 148 147 141 133 126 122 124 
99 112 126 137 139 131 115 97 80 69 66 72 88 114 143 167 181 186 182 172 157 140 125 114 110 110 114 120 128 136 144 153 160 167 172 174 173 167 158 146 133 123 117 116 121 129 138 147 155 160 164 165 165 163 161 158 157 156 156 158 162 168 176 183 190 193 193 187 171 146 114 84 63 52 50 56 72 99 134 168 192 204 207 204 196 184 171 160 154 154 157 161 162 157 145 128 111 98 91 91 
76 92 114 134 146 147 137 120 102 89 83 88 103 127 153 174 186 191 188 180 166 150 134 122 115 114 117 124 133 143 153 162 169 174 177 176 171 162 150 136 124 116 113 117 126 139 151 161 167 169 168 162 154 144 135 129 126 126 131 139 152 167 181 193 200 205 204 198 182 155 120 86 62 49 45 50 64 89 125 160 187 202 207 205 199 190 181 173 170 171 174 175 171 160 140 115 91 74 66 67 
62 81 108 135 154 160 155 141 123 108 101 105 119 141 163 181 191 194 191 182 168 150 133 119 111 109 112 120 131 143 156 166 174 178 178 174 165 152 137 121 109 103 104 112 126 143 159 171 177 177 171 159 142 124 108 98 93 93 100 114 133 156 177 193 204 209 209 203 188 161 124 89 63 48 43 46 58 81 113 148 176 193 199 198 193 185 178 174 173 177 180 181 175 160 134 104 78 60 52 53 
58 79 108 138 160 169 166 153 136 120 113 116 130 150 170 185 193 195 190 179 163 142 122 107 98 96 100 109 123 139 154 167 175 178 176 169 156 139 121 105 93 89 92 103 121 142 161 175 182 181 173 156 133 108 87 73 67 67 74 89 111 139 166 187 201 208 209 203 189 164 129 93 67 51 45 47 56 74 102 133 159 175 181 180 174 167 162 161 165 173 179 182 176 159 132 100 72 54 47 48 
63 85 114 144 165 173 169 155 137 122 114 117 131 151 171 185 192 193 186 172 151 127 105 90 81 80 84 95 111 130 149 164 173 176 172 162 146 127 107 91 81 77 82 93 112 136 158 174 183 183 173 154 128 99 76 60 53 52 58 71 92 120 150 175 192 201 204 200 188 166 134 101 75 59 52 52 58 72 92 115 136 148 153 150 144 137 135 138 148 161 173 179 175 160 134 102 75 57 50 52 
77 99 127 152 168 172 164 147 127 112 104 108 123 144 165 180 188 188 179 162 137 110 88 73 66 66 71 82 100 121 142 159 169 171 167 155 138 118 99 84 74 72 75 86 103 126 149 168 178 180 172 154 128 99 74 58 50 47 51 61 78 103 132 158 177 188 193 191 182 165 141 114 91 75 67 65 68 75 87 100 112 118 118 113 107 102 103 110 125 145 163 174 175 164 141 112 86 68 61 64 
100 121 144 162 171 168 153 132 110 94 88 93 108 130 153 172 181 181 171 152 124 97 75 62 56 56 62 74 92 114 136 153 163 165 159 148 132 114 98 85 77 73 75 83 97 115 136 155 167 172 168 154 132 106 83 66 56 52 53 59 72 90 113 135 154 167 174 176 172 163 148 131 114 101 92 88 86 87 90 92 93 91 87 81 76 73 76 86 105 129 153 169 175 169 151 128 104 88 82 86 
