P2
100 100
255
129 147 164 175 175 164 143 115 91 75 69 74 89 112 139 162 175 177 167 145 117 89 68 55 51 52 59 71 89 110 131 146 155 156 150 140 127 114 102 93 87 84 83 86 93 105 120 136 149 157 159 152 138 119 100 84 73 66 63 64 70 80 94 110 125 138 148 155 159 160 157 150 142 133 127 120 114 107 99 90 81 72 64 58 54 53 57 69 89 117 146 167 176 174 162 144 126 113 109 115 
159 172 181 184 178 159 131 100 75 61 56 60 74 98 126 152 169 173 164 145 118 91 71 60 56 58 66 78 94 112 127 138 142 141 136 129 122 117 114 112 109 106 102 99 97 99 105 114 125 135 143 146 144 136 125 114 103 93 85 80 77 77 81 88 96 105 116 128 141 153 162 166 168 166 162 156 147 134 116 97 79 64 54 48 44 45 50 63 84 112 140 162 174 175 168 156 145 138 139 146 
180 189 194 192 180 156 123 90 66 52 48 52 66 89 118 146 165 172 167 150 127 103 85 74 71 75 83 94 107 119 126 129 126 122 117 115 116 121 128 134 137 136 130 119 108 98 93 93 100 110 123 137 147 152 152 147 139 129 116 103 90 80 74 72 73 78 88 102 122 144 164 178 186 190 189 185 175 159 136 109 83 64 52 46 44 46 53 66 87 113 138 158 168 169 165 159 154 154 159 169 
192 199 202 197 182 155 120 85 61 49 45 50 64 87 117 146 166 175 173 161 143 123 108 100 98 103 110 120 127 130 127 119 110 101 97 98 107 121 139 155 164 165 158 143 123 102 85 77 78 87 103 124 146 163 173 176 173 163 148 128 106 86 71 62 59 61 69 84 107 136 163 184 197 203 205 202 193 177 152 121 92 70 57 51 51 55 64 79 98 120 139 151 156 155 151 148 149 156 167 180 
195 203 205 199 183 155 119 85 61 50 48 54 69 93 123 151 171 180 179 171 159 146 135 131 132 137 143 148 149 142 129 111 94 83 78 82 95 118 146 169 184 188 182 165 139 109 83 67 63 69 85 111 141 168 186 194 195 188 173 149 120 92 71 58 52 52 59 74 99 131 162 186 201 208 211 209 201 186 162 132 102 80 68 64 66 74 87 102 118 132 141 143 139 133 127 126 132 145 163 181 
191 201 204 199 183 155 119 86 65 55 55 63 80 105 134 159 175 183 182 177 170 162 158 158 162 167 172 173 168 154 131 105 82 67 62 67 83 111 146 176 195 202 198 182 155 119 85 63 54 57 72 99 134 168 191 203 206 200 186 161 129 97 72 58 51 50 57 72 97 129 161 185 200 207 210 208 201 187 166 139 112 94 85 85 92 104 118 132 142 146 143 133 119 107 99 99 107 125 148 172 
182 196 201 195 179 152 119 89 70 63 66 78 97 122 147 166 177 181 179 175 170 167 169 173 180 186 190 189 181 162 132 100 73 57 51 55 72 102 141 176 199 209 207 194 167 129 91 63 50 50 63 90 128 165 191 205 209 204 189 164 131 98 74 60 54 55 63 78 102 131 159 180 193 200 201 199 192 179 161 140 121 109 107 113 125 139 153 162 165 160 145 123 100 83 74 73 82 101 129 158 
171 188 194 188 172 146 116 91 77 74 81 97 118 140 158 170 174 172 166 161 158 159 165 175 186 194 199 198 188 166 134 98 68 50 44 47 63 92 133 172 198 211 212 201 177 140 99 68 51 49 60 86 123 161 188 202 205 199 183 157 126 97 76 66 64 68 78 93 114 137 157 172 180 184 183 180 172 162 148 135 125 123 129 142 157 171 181 186 183 170 146 115 86 66 56 55 63 81 110 143 
159 178 184 178 161 136 111 92 84 87 100 118 139 155 165 167 162 153 143 135 133 137 148 164 180 193 200 200 190 169 137 99 68 49 41 43 57 84 125 166 195 210 213 205 184 150 110 76 57 53 63 86 121 157 183 195 196 187 169 143 116 93 80 76 80 89 102 116 131 145 155 160 161 159 155 150 144 136 129 125 125 133 147 164 180 192 199 201 194 176 145 108 76 55 45 44 51 68 95 129 
151 169 173 165 146 124 103 91 91 101 119 139 156 166 166 158 144 127 112 103 101 107 122 143 165 183 194 197 190 172 141 105 73 53 44 44 56 80 118 159 189 206 211 206 189 160 122 89 69 63 71 93 124 155 176 185 182 169 148 124 103 89 86 92 104 118 132 144 151 154 152 145 136 128 121 116 112 109 108 112 122 138 158 177 193 204 209 208 199 178 144 104 71 50 41 40 47 63 89 121 
147 162 162 150 131 110 95 90 97 114 136 155 168 170 162 144 121 99 83 74 72 79 95 118 144 168 184 191 188 174 148 116 85 64 53 52 61 82 115 152 182 199 206 203 191 167 135 105 85 79 86 105 130 154 168 171 162 145 123 103 89 86 93 110 130 149 163 170 170 162 149 131 113 100 91 86 85 87 92 102 117 138 161 182 198 208 212 210 200 178 143 102 69 49 40 40 48 64 90 120 
149 158 153 137 116 98 88 90 104 126 150 168 175 171 154 127 99 76 61 53 53 59 73 96 123 151 171 183 184 175 157 131 105 85 72 68 74 90 116 146 172 189 197 196 188 170 146 123 106 100 106 121 139 154 160 155 140 119 99 84 78 84 101 127 154 174 186 189 184 169 147 121 97 81 72 69 70 75 83 95 113 135 159 180 196 206 211 209 198 176 140 100 68 50 43 44 54 72 99 127 
156 159 148 127 105 89 84 91 111 137 162 177 180 169 145 113 82 60 48 42 43 49 61 81 107 134 157 172 177 175 165 149 131 114 101 95 96 104 120 140 159 172 180 182 178 167 152 137 126 123 128 138 148 154 151 138 119 97 79 70 71 83 108 140 170 190 200 201 192 174 147 116 90 73 65 64 67 73 81 93 109 129 151 172 188 199 204 203 193 171 136 99 70 53 48 52 65 86 114 140 
165 161 145 120 98 84 82 95 119 147 171 184 183 167 138 103 72 52 42 39 41 47 59 76 98 121 142 158 167 171 170 165 156 146 137 129 124 123 126 132 140 149 155 159 159 157 151 146 142 142 146 152 155 153 143 125 102 82 67 62 66 83 112 147 177 197 206 205 196 177 149 118 92 76 70 70 74 81 88 96 107 121 138 156 173 185 192 192 183 162 131 98 72 58 55 63 80 105 132 154 
172 163 142 115 92 81 83 99 127 156 179 189 185 167 135 99 69 50 42 42 46 54 65 80 96 113 129 142 152 161 168 173 175 173 168 161 151 140 130 122 119 119 123 128 133 139 143 147 150 154 157 159 158 150 135 115 93 75 63 60 66 83 112 147 177 196 204 203 194 176 151 123 101 88 84 87 92 97 100 102 105 111 121 134 150 163 173 176 169 152 125 97 75 65 65 76 97 124 150 167 
175 162 137 109 88 79 84 103 133 163 184 193 187 168 136 100 71 55 49 51 59 69 81 92 102 110 116 123 132 145 159 173 184 189 189 184 171 152 130 110 97 91 91 96 105 117 130 142 151 158 161 160 155 145 129 110 91 76 66 64 69 85 110 140 168 186 194 193 185 170 150 130 115 108 108 112 116 118 115 109 103 100 102 110 122 136 149 155 153 141 120 97 81 73 77 92 115 142 164 176 
174 157 130 103 83 76 83 105 135 166 186 194 188 170 139 106 79 66 63 70 81 95 106 113 113 109 105 104 109 122 142 164 183 195 200 195 181 157 127 98 78 68 66 71 82 98 117 134 148 155 157 154 147 138 125 111 97 86 78 76 79 89 107 129 150 165 173 173 168 158 146 136 130 130 134 140 143 140 130 115 100 89 85 87 96 110 124 135 138 132 118 102 89 85 91 107 131 155 172 180 
170 149 121 95 77 72 81 102 133 163 183 191 187 170 144 115 93 84 86 97 113 128 136 136 126 110 95 86 86 97 119 148 175 194 202 199 184 156 119 86 64 53 51 56 68 86 108 128 143 149 148 143 136 129 122 116 110 105 100 97 96 99 105 116 127 136 141 143 142 139 137 138 143 150 158 164 164 156 140 118 96 80 72 71 77 90 106 121 129 130 122 111 102 100 107 123 144 163 176 179 
164 141 113 87 71 67 75 95 124 153 174 183 181 168 148 126 111 108 115 130 147 160 164 156 137 110 86 71 67 75 97 129 162 187 199 197 180 149 110 76 54 45 44 50 63 84 107 128 140 143 138 130 123 119 120 124 128 131 130 126 120 113 107 104 103 104 106 108 111 116 125 138 152 165 175 180 177 165 144 117 91 73 63 61 67 80 98 116 130 135 133 126 120 119 125 138 154 169 177 176 
160 136 108 83 67 63 69 85 109 136 157 168 169 161 148 135 129 132 144 160 175 184 183 169 142 108 78 59 53 59 78 110 148 177 192 191 173 140 101 68 49 41 42 51 68 91 115 134 142 139 128 116 108 108 117 131 146 157 161 157 148 132 114 97 85 78 76 78 85 96 114 136 157 174 185 188 182 166 141 111 85 67 58 58 65 80 101 122 139 148 149 145 140 138 142 151 163 173 177 173 
159 136 108 83 67 60 63 74 93 114 133 146 150 148 143 140 142 151 166 181 193 198 192 174 142 103 71 51 44 49 66 97 135 168 185 184 165 131 92 63 47 42 46 60 81 108 132 147 149 138 120 104 95 98 112 135 159 177 185 183 172 151 123 96 74 62 57 59 67 83 107 135 161 180 190 190 180 160 132 102 78 63 57 59 69 87 111 136 154 164 166 163 158 155 156 162 170 176 179 174 
164 143 116 90 72 62 60 66 77 93 108 121 128 132 135 140 150 163 179 192 201 203 194 173 138 97 65 47 40 45 61 90 128 161 178 177 157 124 87 61 48 47 57 77 104 133 155 165 160 141 116 94 83 86 105 135 166 189 200 200 190 167 135 99 71 54 48 49 59 77 105 138 166 184 191 187 174 150 120 92 71 60 57 63 78 100 127 152 169 178 179 175 169 165 165 168 174 179 181 177 
173 155 131 105 83 68 62 62 67 76 88 98 108 117 127 138 153 169 184 196 203 202 191 167 131 92 62 46 41 46 63 92 129 160 176 173 153 120 86 63 55 59 75 102 133 161 179 182 171 146 114 86 72 75 95 129 165 193 207 210 201 180 145 105 72 52 45 46 57 78 109 143 170 186 189 182 164 137 107 82 66 59 60 71 89 115 143 166 180 186 184 179 172 166 165 168 174 180 184 182 
183 170 151 126 101 81 69 63 63 68 76 85 96 107 121 137 154 171 185 195 199 196 183 159 124 89 63 50 47 55 74 104 138 165 177 172 151 120 89 70 66 76 100 132 163 186 198 197 181 151 113 80 64 65 84 118 158 191 209 214 208 188 154 112 76 54 46 48 61 85 118 151 175 187 186 173 151 122 94 74 62 60 66 80 102 129 155 174 183 185 180 171 162 156 154 159 167 177 184 187 
190 184 170 149 124 100 82 71 67 69 74 82 93 107 122 138 154 169 181 188 190 185 172 148 117 88 68 59 61 72 94 123 153 174 181 174 152 122 94 79 80 97 126 160 187 205 211 206 188 155 112 76 57 56 72 104 146 183 206 214 210 193 161 119 82 59 50 54 69 95 129 159 179 185 179 163 137 108 84 69 62 64 75 92 116 141 162 174 177 173 163 151 140 133 132 139 151 166 180 188 
192 192 184 169 146 122 101 86 79 78 83 91 102 115 129 143 155 165 172 176 175 168 155 135 111 91 79 76 83 99 122 148 171 184 186 175 152 123 99 88 94 117 149 180 203 216 219 212 193 158 112 74 52 48 60 89 131 171 198 210 209 194 165 126 89 65 57 62 80 107 139 165 180 181 170 150 123 97 78 68 67 73 87 107 129 149 162 166 162 151 136 120 108 101 102 111 127 148 168 184 
188 194 192 182 164 142 121 106 98 97 102 111 122 133 143 151 156 159 159 157 153 145 133 119 105 96 94 100 113 131 153 172 186 192 188 173 149 121 100 93 103 129 162 192 211 221 222 215 195 159 112 72 49 43 51 75 114 156 187 203 205 193 167 130 95 73 66 72 91 118 147 168 176 173 158 135 111 90 77 73 78 89 105 124 142 155 159 153 140 122 103 87 76 71 73 82 99 123 149 172 
176 188 191 186 173 155 138 125 119 120 127 137 146 154 158 159 156 150 142 133 125 117 109 103 100 102 111 126 144 162 178 190 197 196 187 167 140 113 95 91 104 131 165 194 212 221 222 215 195 160 113 72 48 40 45 64 98 139 174 194 198 189 166 133 101 81 75 83 101 126 150 165 168 160 143 122 102 88 83 86 96 111 128 144 156 160 154 139 117 95 75 61 53 50 51 59 73 96 125 154 
158 175 182 180 171 158 146 138 137 143 152 161 169 173 172 166 154 139 122 108 97 90 86 87 93 107 126 148 168 184 195 201 202 195 180 155 126 100 84 82 95 122 155 185 206 216 218 212 193 159 114 74 49 40 42 57 86 125 160 183 189 182 162 133 105 88 83 91 109 130 148 157 156 145 128 111 98 93 96 106 121 138 153 164 169 165 151 128 101 76 57 46 39 37 38 44 55 74 101 131 
136 155 164 164 158 149 142 141 146 157 169 179 186 187 182 170 150 126 103 86 74 69 68 74 87 108 135 162 183 197 204 205 201 188 167 138 108 84 71 70 81 104 135 167 190 205 210 205 189 158 117 78 54 43 44 56 80 115 149 171 179 173 155 130 107 93 90 98 113 129 141 145 140 129 116 105 101 105 116 131 148 164 175 181 180 171 152 124 94 68 50 39 34 31 32 36 45 59 82 109 
116 133 141 141 136 130 128 133 144 160 176 188 195 194 187 170 145 115 89 70 59 54 56 64 81 108 139 169 190 202 206 204 195 177 150 118 89 69 58 57 65 83 109 139 166 185 194 194 181 156 120 86 63 52 51 62 83 112 142 162 169 164 147 126 107 96 95 102 113 125 132 132 125 116 108 105 110 122 139 157 173 184 191 193 189 177 157 128 97 71 53 42 36 33 33 36 42 54 71 94 
105 116 120 117 111 107 108 117 133 154 174 188 196 195 186 167 138 106 78 60 50 47 49 59 77 106 140 171 191 202 204 199 185 161 130 99 73 57 49 47 52 64 83 108 134 156 171 176 170 152 125 98 78 68 67 76 94 119 142 158 162 155 139 121 105 97 97 103 112 119 123 120 115 109 107 112 124 142 160 177 189 197 200 199 193 182 164 139 111 86 67 55 47 43 42 44 49 58 72 89 
106 110 107 100 91 86 88 97 115 139 162 180 189 189 180 160 131 99 73 56 47 45 48 58 77 106 140 170 189 198 198 189 170 143 111 82 62 49 43 42 45 52 64 81 102 124 142 153 155 147 132 114 100 92 93 101 115 133 149 158 157 147 132 115 102 96 97 103 110 115 116 114 110 109 113 123 140 159 177 190 198 201 201 198 192 183 170 152 132 111 94 81 72 66 63 64 68 75 86 97 
120 116 105 92 81 73 73 81 97 119 143 162 174 176 169 151 124 97 74 59 51 49 53 63 82 110 142 169 185 191 188 175 153 123 94 70 55 46 42 42 43 47 54 65 80 97 115 129 138 141 137 131 125 123 125 132 142 152 160 161 155 142 125 110 99 95 97 103 109 113 114 113 112 115 123 137 155 172 185 193 197 196 192 187 182 176 170 163 153 142 131 120 111 105 100 99 101 106 113 118 
141 131 115 97 80 70 66 70 81 99 119 139 152 157 152 139 120 99 81 69 63 62 66 76 94 119 146 167 179 182 174 158 133 105 81 63 53 48 47 48 49 52 56 62 70 82 96 110 123 134 140 145 148 151 155 161 166 170 171 166 154 138 120 105 96 94 97 103 110 114 116 117 119 124 135 149 164 177 185 187 185 178 171 163 159 159 161 166 169 169 167 162 156 151 146 144 143 145 146 146 
163 150 131 110 90 75 67 66 71 82 97 112 125 132 134 129 119 107 97 89 85 85 90 99 114 133 152 166 172 169 157 137 113 90 72 61 56 56 59 62 66 68 70 72 75 80 88 98 111 125 139 152 162 170 176 181 183 183 178 168 153 134 115 101 94 93 98 105 112 118 121 124 127 134 144 156 167 174 175 170 160 148 136 127 125 130 142 159 174 186 191 192 191 187 183 180 178 176 175 171 
178 166 150 129 108 90 77 70 69 73 80 90 100 109 116 120 122 122 120 119 118 119 123 129 139 149 159 163 161 152 137 117 96 79 68 64 66 72 80 89 95 98 98 96 92 90 89 94 102 116 132 150 165 177 186 190 191 188 181 168 150 130 112 99 93 94 100 109 117 123 127 131 135 140 148 156 161 161 154 142 126 110 96 88 88 97 117 144 171 191 203 208 209 207 204 200 197 193 190 185 
183 176 165 149 131 112 96 83 74 70 71 75 82 91 103 116 129 139 146 151 153 154 156 158 161 163 162 158 149 134 116 98 82 71 67 71 81 95 111 125 135 139 137 130 120 108 99 94 96 105 121 140 158 173 184 189 190 186 177 162 144 125 109 99 96 99 106 115 123 129 133 135 138 141 145 148 146 140 127 110 92 76 64 58 59 70 92 125 160 188 205 213 215 213 209 204 199 194 191 187 
176 176 173 166 154 138 120 102 87 75 69 67 71 80 96 116 137 156 169 177 181 182 181 178 175 170 161 150 134 117 98 83 72 68 71 82 100 123 145 162 173 176 174 165 149 130 111 97 91 95 106 124 143 160 172 179 179 175 165 151 135 119 108 102 103 108 116 125 131 135 136 136 135 135 135 133 127 116 101 83 66 53 44 40 42 52 73 107 146 179 200 210 212 208 202 194 186 179 176 176 
158 168 175 177 173 162 147 127 105 86 73 66 67 76 93 118 145 168 184 193 197 197 194 188 180 169 155 138 120 101 85 74 67 68 77 95 121 149 173 189 199 201 198 189 172 148 122 100 88 86 93 107 124 140 152 159 159 155 146 134 122 113 108 109 114 122 130 137 141 141 137 132 128 124 120 116 108 96 81 66 52 42 35 32 34 43 62 93 132 167 189 199 199 192 180 167 156 149 147 150 
133 152 169 181 185 181 169 151 127 102 83 71 69 76 94 121 151 176 192 201 203 201 196 187 175 161 144 126 108 92 79 71 68 73 87 111 140 168 190 205 212 214 210 201 183 158 128 103 86 80 84 94 107 120 129 134 133 128 121 114 109 108 111 119 129 140 148 152 151 145 136 126 117 110 105 100 93 83 72 59 49 40 35 33 35 43 59 87 122 154 174 180 176 163 146 129 115 108 109 117 
106 133 160 180 191 193 186 170 147 120 96 80 74 80 98 125 154 178 193 200 201 196 188 176 162 147 131 115 100 89 80 75 76 84 101 126 155 180 199 210 216 216 212 202 184 159 130 104 87 81 82 89 98 106 110 110 106 101 97 94 96 104 116 132 147 158 165 166 160 149 133 118 105 97 92 89 86 81 73 64 55 48 43 41 43 51 66 89 118 142 156 156 145 127 107 89 77 72 75 86 
87 118 151 177 193 199 196 184 164 137 111 91 83 86 102 126 153 174 187 192 190 182 171 157 143 129 118 108 100 94 90 89 92 101 118 141 166 187 201 209 213 211 205 194 176 152 126 105 93 89 92 97 101 102 99 93 86 80 77 79 86 102 123 145 164 175 180 178 168 151 130 110 95 87 85 86 88 89 86 81 75 68 63 61 62 69 83 101 121 135 139 131 114 94 75 61 52 49 53 65 
76 108 143 173 192 200 200 191 174 150 124 103 92 93 105 125 147 164 174 175 169 159 145 132 120 113 109 108 108 109 109 111 115 123 137 154 172 187 197 202 203 198 189 176 158 137 119 108 104 107 112 116 117 111 100 86 74 66 63 67 79 101 129 156 177 189 192 187 173 152 126 103 87 81 82 89 99 107 111 111 107 101 96 94 95 100 110 121 131 134 128 112 91 72 56 46 40 39 44 55 
74 104 138 168 188 198 199 193 179 158 134 113 101 99 106 120 136 147 152 150 141 129 116 106 101 102 107 115 124 130 134 137 140 145 153 164 175 183 188 188 184 175 163 148 132 119 111 112 120 131 140 145 142 130 110 88 70 58 55 60 74 100 133 165 187 198 199 192 176 152 123 98 83 79 85 98 115 131 141 146 146 142 138 135 134 137 141 145 145 138 122 101 79 61 49 41 38 39 43 54 
79 105 134 162 180 190 193 188 177 160 139 120 107 102 105 112 121 126 126 121 111 100 91 87 89 98 112 129 143 153 159 161 162 162 164 167 171 173 172 166 157 143 128 114 103 99 104 118 138 156 169 174 169 153 126 96 71 56 50 55 71 99 136 169 192 203 203 195 177 150 119 94 81 80 91 110 133 154 168 176 178 176 173 170 168 168 167 164 157 142 121 97 76 60 50 45 44 46 51 61 
89 109 131 152 168 177 180 177 168 155 138 122 109 103 101 103 105 106 102 95 87 79 75 77 87 103 124 145 162 173 177 177 174 170 167 164 161 157 150 139 125 109 94 83 79 84 99 125 154 178 192 197 191 174 143 106 75 55 48 52 68 98 136 171 194 204 204 194 174 146 115 92 81 84 99 123 149 171 186 193 196 195 192 189 187 184 180 174 162 145 122 99 79 66 59 57 58 61 67 76 
104 114 126 138 148 155 159 158 153 144 132 120 109 102 98 95 93 89 84 78 72 69 70 77 93 114 139 161 176 184 186 183 176 168 160 152 145 137 126 112 97 81 69 62 63 73 96 130 166 192 207 212 206 189 158 117 80 57 48 51 67 96 135 170 193 202 201 189 168 140 111 91 84 90 108 134 160 180 192 198 199 198 195 192 189 186 181 173 161 144 123 104 89 80 77 78 81 86 91 96 
119 118 118 121 124 128 132 134 134 130 124 117 109 101 95 90 85 80 75 70 67 67 73 86 106 130 154 173 184 187 185 177 166 154 143 134 126 118 107 94 79 66 56 51 54 68 95 133 172 200 215 219 214 198 167 125 85 59 49 51 67 96 134 168 189 197 194 181 158 131 106 91 89 98 118 143 165 181 189 192 190 187 183 180 177 174 170 164 153 140 125 111 103 100 102 107 113 118 121 121 
132 119 109 102 100 101 105 110 115 118 118 115 110 104 97 90 84 78 73 70 70 74 84 101 123 146 166 180 185 182 173 160 144 130 120 112 108 103 96 86 74 62 52 48 51 65 93 133 173 202 217 222 217 201 172 130 90 63 52 55 71 99 134 165 183 188 182 167 145 121 102 94 96 109 129 149 166 175 178 175 169 163 158 154 153 152 151 148 143 135 127 121 119 123 130 139 147 150 149 143 
139 118 99 86 80 80 85 93 102 111 116 118 116 110 103 96 89 83 79 78 81 88 101 120 141 160 174 181 178 168 152 134 116 103 95 93 94 96 96 90 80 68 57 51 52 64 89 128 168 198 214 219 214 199 170 131 93 68 59 63 79 106 137 162 175 176 167 150 129 111 100 98 107 122 139 154 163 164 158 149 138 129 123 121 123 126 130 133 133 131 130 131 136 145 155 165 172 174 170 158 
141 114 90 75 68 68 74 85 99 112 122 127 127 123 116 108 101 95 92 93 97 107 121 139 156 170 177 176 166 149 127 105 88 78 75 79 88 99 106 106 97 84 70 59 56 64 84 118 156 186 204 210 206 190 163 128 95 75 69 76 94 119 143 160 166 161 147 129 113 102 99 106 120 136 150 159 158 150 136 120 105 96 91 92 98 106 115 123 128 132 136 141 150 161 172 182 188 188 181 165 
139 109 84 69 62 64 73 87 105 122 135 142 143 140 133 126 118 113 110 111 117 126 139 154 166 174 175 167 151 127 102 81 67 61 63 73 90 109 125 130 124 109 90 73 64 65 79 105 137 166 185 192 188 173 149 120 96 84 84 96 115 136 153 160 157 145 127 110 98 95 102 116 134 151 161 163 154 137 116 95 81 72 71 75 84 96 110 121 130 136 142 150 159 170 181 190 194 193 184 166 
136 105 81 67 63 67 80 98 119 138 152 159 161 157 151 144 137 131 129 129 134 142 152 162 170 174 170 157 135 109 83 65 54 52 58 74 98 125 147 158 154 139 116 92 75 68 73 90 115 139 157 164 161 148 129 110 97 95 104 120 139 155 163 161 149 129 109 94 87 92 106 127 149 165 171 167 152 128 102 81 67 62 63 70 83 98 114 127 136 143 148 154 163 173 183 191 195 193 183 164 
131 102 80 69 68 76 93 115 138 157 170 175 176 172 166 159 152 146 143 142 144 150 157 164 169 169 163 148 124 98 74 58 50 50 59 79 109 143 168 181 180 166 142 114 89 74 71 79 94 111 124 130 127 118 106 98 97 107 124 145 162 172 172 161 140 115 94 82 81 91 112 138 162 176 179 171 151 124 96 75 64 61 65 76 91 109 125 136 143 146 149 153 161 171 181 189 192 190 180 160 
127 100 81 73 76 88 110 135 158 174 184 187 185 180 174 166 158 152 147 145 146 149 154 159 163 163 157 142 120 95 73 58 51 53 64 88 122 157 183 196 197 186 163 133 104 83 73 73 80 89 96 99 97 91 87 88 98 117 141 164 179 184 178 159 132 104 83 73 77 92 118 148 171 184 184 173 152 123 96 77 68 68 75 88 105 121 134 142 144 143 142 145 152 162 174 183 188 185 175 154 
123 98 82 77 84 101 126 152 173 187 193 193 189 182 173 164 155 147 142 138 137 139 144 149 155 157 154 143 124 102 81 66 59 60 73 97 132 167 192 204 205 196 176 148 118 94 80 75 76 79 81 81 78 74 74 82 99 124 153 176 189 189 177 153 122 93 74 68 74 93 123 153 176 187 186 174 152 124 99 83 76 79 88 102 117 130 138 139 136 131 127 129 137 150 164 176 182 180 169 149 
117 95 82 80 89 110 137 163 183 194 197 194 187 177 165 152 142 133 126 122 121 124 129 138 146 153 154 148 135 116 96 80 70 71 82 106 138 170 193 204 206 198 182 158 131 107 93 86 84 83 81 77 72 68 69 79 100 129 159 181 191 188 171 143 110 83 67 63 72 94 124 154 176 186 183 171 150 125 104 91 88 92 102 114 125 131 132 127 119 111 106 109 119 135 154 168 176 174 163 142 
109 89 78 78 90 112 141 167 186 195 196 190 179 164 148 133 120 111 106 103 103 107 115 127 140 152 158 158 150 135 116 98 85 82 91 111 139 167 188 198 200 194 180 161 140 122 110 105 103 100 95 86 77 71 71 81 102 130 159 179 187 180 160 130 97 73 61 60 71 93 122 151 171 179 176 163 144 124 108 100 100 105 114 121 125 124 118 108 97 88 85 90 103 124 146 163 171 169 156 134 
100 81 71 73 85 108 137 164 183 191 191 182 166 146 126 109 97 89 85 84 87 93 105 121 138 154 165 169 165 153 135 116 100 92 96 110 133 157 175 185 187 182 172 158 144 135 130 130 130 127 119 107 94 83 80 86 104 130 156 173 178 168 146 115 85 65 56 58 70 91 118 144 161 167 162 150 134 119 110 107 110 116 121 123 119 111 99 87 76 70 70 78 95 119 144 162 170 165 149 125 
90 71 63 64 76 98 126 155 175 184 182 170 150 126 104 87 76 71 69 71 76 86 101 121 142 160 173 178 177 167 150 129 110 98 96 105 121 140 156 165 167 164 157 149 144 144 148 153 157 156 148 134 116 100 92 95 109 130 152 165 167 155 131 102 76 60 55 58 71 90 114 135 147 149 143 132 120 112 109 112 118 124 126 121 111 97 83 70 62 59 63 75 96 123 149 166 172 164 144 116 
81 63 55 56 66 85 113 143 165 175 173 158 135 109 86 71 62 59 59 64 72 85 104 127 149 168 180 185 183 173 156 134 112 98 92 95 106 120 133 141 143 141 138 137 140 148 159 170 177 178 172 157 138 119 107 105 114 131 148 158 157 144 121 95 73 61 58 64 76 93 112 126 132 130 122 113 106 104 108 117 126 131 130 121 106 88 73 62 56 58 66 84 109 137 161 175 176 164 140 109 
74 56 48 49 57 75 101 131 155 167 164 149 124 97 75 61 54 53 55 62 74 91 114 138 159 175 185 188 184 172 153 130 108 92 85 86 93 103 113 119 121 121 121 125 134 148 165 179 188 191 185 172 153 134 119 115 121 134 147 155 153 140 119 97 79 70 70 76 88 102 114 121 120 112 103 95 93 97 108 121 133 139 136 124 106 87 72 63 61 67 81 103 131 157 177 186 183 166 137 102 
68 51 44 44 51 68 93 123 148 162 160 145 120 93 71 58 52 52 56 66 82 103 128 151 170 182 187 186 178 163 142 119 99 85 79 80 85 94 101 106 108 108 110 116 128 145 164 180 190 192 188 176 158 139 126 121 127 138 150 157 155 145 128 109 96 90 91 99 109 119 124 121 112 100 89 83 84 94 109 128 142 149 145 132 114 95 81 74 76 87 106 131 157 179 192 196 188 167 134 98 
65 49 42 43 50 67 92 122 148 162 162 148 124 97 74 60 54 55 62 75 94 118 143 164 179 186 186 179 166 148 125 104 88 78 76 79 86 95 102 106 107 107 108 113 125 141 159 173 182 184 179 167 151 135 125 124 131 144 156 164 163 156 144 131 122 119 122 129 136 140 138 127 111 94 81 77 81 94 114 136 152 160 157 145 128 111 100 96 102 117 138 161 181 196 203 203 192 168 132 94 
65 50 44 46 55 72 99 129 154 167 168 155 133 106 83 68 62 63 72 88 110 135 158 175 184 186 180 168 150 128 107 89 79 75 78 85 96 107 115 119 118 116 115 117 125 136 149 160 166 166 159 147 134 122 117 121 133 149 163 172 174 170 163 155 151 150 154 159 164 163 154 137 115 94 80 76 82 99 122 145 163 171 169 159 146 132 124 124 132 148 167 184 198 207 209 205 191 165 129 92 
67 54 51 55 67 86 113 141 164 176 176 165 145 120 97 81 74 76 86 105 128 152 171 182 186 182 170 152 130 108 90 78 73 76 85 99 114 128 136 139 137 133 128 125 127 132 138 143 143 140 131 120 110 103 105 115 133 153 169 180 184 183 179 175 174 175 179 183 184 180 168 148 122 99 84 80 89 107 132 155 172 179 178 170 159 150 145 147 157 170 185 197 206 210 209 202 186 159 124 91 
73 65 65 72 87 108 134 158 175 184 184 175 157 135 113 97 90 93 105 123 145 165 179 186 184 174 157 134 110 90 76 71 73 82 99 118 137 152 160 161 158 150 142 135 130 128 126 124 119 111 102 93 86 85 92 107 130 153 172 184 189 189 187 186 186 189 192 196 196 190 177 156 130 106 92 90 99 119 143 164 178 183 181 174 165 158 155 159 168 179 190 199 203 204 200 190 173 148 118 91 
83 81 87 99 116 136 156 174 185 190 189 180 166 147 128 114 109 112 124 142 160 175 184 186 179 163 141 115 92 75 67 67 75 92 115 139 159 173 179 178 173 164 153 142 132 124 116 108 99 89 79 72 69 71 81 99 125 151 171 182 187 187 185 185 186 190 194 197 197 192 180 161 137 116 103 103 114 133 154 170 180 182 177 169 159 153 151 155 163 173 181 187 188 186 180 169 152 131 109 92 
97 104 116 130 146 162 175 185 191 192 189 181 169 154 139 129 125 129 141 156 171 181 186 183 171 150 124 98 77 65 62 67 80 103 131 157 176 187 191 188 181 171 158 145 132 121 109 98 86 75 66 60 59 63 74 93 119 144 164 174 177 175 172 171 172 177 183 187 189 185 175 159 140 124 116 118 129 146 162 173 177 174 165 154 142 135 132 135 142 150 157 160 160 156 148 137 125 112 101 96 
113 128 144 159 171 181 187 190 191 188 183 176 166 154 143 136 135 141 152 165 176 184 185 178 162 137 109 84 67 59 59 67 85 112 143 170 187 195 195 190 181 169 155 142 129 117 106 94 82 71 62 57 56 60 71 89 113 136 152 159 158 152 147 143 145 150 158 165 169 168 162 151 139 130 127 133 144 157 168 172 169 160 145 130 117 108 105 107 112 118 122 124 122 117 111 104 97 94 95 101 
127 147 165 177 185 189 190 188 184 179 172 164 155 146 139 135 137 144 155 167 177 183 182 173 154 127 98 75 60 54 57 67 88 118 150 176 191 196 194 186 174 160 145 132 122 113 105 95 85 74 66 60 59 63 73 89 108 126 137 138 132 122 113 108 108 114 122 131 138 141 140 137 133 132 136 145 155 165 169 167 156 140 121 103 90 82 79 80 84 87 90 90 88 84 80 78 78 82 92 107 
137 158 174 184 188 188 184 178 171 163 154 146 138 132 127 126 130 139 151 163 174 179 178 168 148 121 92 70 57 52 55 67 88 119 151 176 190 194 189 177 161 144 129 119 113 109 106 101 94 85 76 70 68 71 80 93 108 120 124 119 108 94 83 77 76 79 87 95 103 110 115 119 123 131 141 153 163 168 167 157 140 119 98 80 69 63 61 62 65 68 70 70 68 66 65 65 69 78 93 114 
141 159 172 179 180 176 169 161 151 142 133 125 119 114 111 112 116 126 138 152 165 173 174 166 147 121 93 70 57 51 54 65 85 115 147 172 186 188 180 165 146 126 111 104 103 105 109 110 108 101 94 87 84 86 93 103 114 119 117 107 91 76 64 57 55 57 62 68 76 84 92 101 113 128 143 157 166 168 161 146 124 100 79 65 56 53 53 56 60 63 65 66 65 64 64 67 72 83 99 119 
138 151 159 162 160 154 147 138 129 121 114 107 102 98 95 95 99 107 120 136 151 164 169 166 151 128 101 77 61 53 54 62 81 108 139 164 178 180 171 154 131 110 96 91 94 103 113 121 124 122 116 110 106 107 112 119 125 126 119 105 87 70 57 49 46 46 49 53 59 67 76 89 105 124 143 158 166 165 154 134 109 85 68 57 52 52 56 62 68 74 78 80 80 80 80 82 87 95 107 123 
130 134 136 135 131 126 121 115 111 106 102 97 92 87 82 81 82 88 99 116 135 153 165 168 159 141 116 90 71 59 56 61 76 100 129 155 170 173 164 145 122 100 87 83 89 102 118 132 141 143 140 135 131 130 132 136 140 138 130 115 96 78 64 54 49 47 47 49 53 59 68 82 101 122 143 158 164 160 145 122 98 77 63 56 56 61 70 80 91 100 106 110 111 110 109 109 111 113 118 124 
118 114 110 106 103 100 99 100 101 101 100 97 91 83 76 71 69 72 81 96 118 141 161 171 170 158 137 111 87 69 61 61 72 92 119 145 163 168 161 143 120 98 85 81 88 103 123 141 154 159 158 155 150 148 149 152 154 153 146 133 116 99 83 71 63 58 55 54 56 60 68 82 101 123 143 157 161 154 137 114 91 74 64 63 69 80 95 111 126 137 145 149 150 148 146 142 138 134 128 123 
106 95 87 82 81 82 87 94 102 108 111 107 99 87 75 66 60 60 66 80 102 130 157 175 181 176 160 136 109 86 70 65 70 86 111 137 158 166 162 147 126 104 90 85 92 107 128 148 162 169 170 167 162 159 158 161 164 165 162 155 144 130 115 102 91 82 75 70 67 69 75 87 105 126 145 156 158 149 131 109 89 76 72 77 89 107 128 147 163 173 180 182 182 180 176 170 162 150 135 120 
96 81 72 68 69 75 86 100 115 126 130 127 116 100 82 67 57 53 56 68 90 121 154 178 191 191 181 162 135 107 84 72 72 83 105 131 154 166 167 156 137 116 101 95 99 113 133 152 166 173 174 170 164 160 158 160 165 170 173 173 169 162 152 141 129 117 106 95 88 85 89 98 114 132 148 157 156 146 128 108 91 83 84 96 115 138 160 178 190 198 201 202 201 198 193 186 175 158 138 115 
89 74 65 64 68 78 95 115 134 148 155 151 139 118 94 73 58 50 51 60 80 113 150 180 197 203 198 183 160 130 102 83 76 82 100 126 151 167 171 165 150 131 115 107 110 121 138 155 168 173 172 166 158 151 148 150 157 166 175 182 186 185 182 175 166 155 141 127 115 107 107 113 126 141 153 159 157 146 128 110 97 93 100 116 140 164 183 197 205 209 210 209 206 203 197 189 177 159 136 111 
88 75 68 68 75 89 110 133 155 170 177 174 162 140 113 85 65 52 49 56 74 106 145 179 200 209 208 199 180 151 120 95 82 83 97 121 146 165 174 171 160 144 129 120 120 129 143 157 167 170 166 157 145 135 129 131 139 152 167 181 191 197 199 197 191 182 170 155 140 130 125 129 138 149 159 163 159 148 132 115 105 104 114 133 157 178 194 204 208 209 207 204 199 195 189 181 169 153 131 108 
95 84 79 81 90 106 127 150 171 185 191 190 181 161 134 103 77 59 52 55 70 100 139 175 200 212 214 208 193 168 136 106 88 84 94 114 139 160 171 172 165 152 138 129 128 134 146 157 164 165 158 145 129 115 107 107 115 130 149 168 185 196 202 204 202 196 185 172 157 146 140 141 148 157 164 167 162 152 137 122 113 113 123 142 163 181 193 199 200 197 191 185 179 173 168 162 154 143 127 110 
109 102 99 102 110 124 142 161 178 191 198 199 193 179 155 125 95 72 59 57 68 93 130 168 195 210 215 212 200 178 147 115 92 84 89 106 129 150 163 167 162 152 140 132 131 136 146 155 160 158 149 133 114 98 87 85 90 104 123 146 166 183 194 199 199 195 187 175 162 152 146 148 154 162 169 171 166 156 142 128 119 118 126 140 157 170 178 180 177 170 161 152 145 140 137 137 136 132 126 118 
130 127 126 126 130 138 149 163 176 187 195 199 198 190 173 148 117 89 70 62 67 87 119 155 185 204 212 211 201 181 151 119 94 83 85 98 117 136 150 155 152 144 134 128 127 133 142 150 155 152 141 124 104 86 74 70 72 81 97 117 139 158 172 181 184 182 176 166 156 148 145 147 155 164 171 173 170 161 148 134 123 119 122 130 140 148 151 148 141 131 120 111 105 102 105 111 119 127 131 132 
154 154 152 149 146 145 147 152 161 171 182 191 196 195 186 167 140 110 84 70 68 80 105 138 169 191 202 204 196 178 149 118 93 81 80 89 105 121 133 138 136 130 122 118 119 125 134 143 148 146 136 120 101 83 70 63 62 66 76 90 107 125 140 150 156 157 153 147 140 135 136 141 151 161 169 173 171 164 152 138 126 117 114 114 117 118 115 110 101 91 82 75 72 73 81 94 110 128 142 150 
175 176 172 165 154 143 135 131 135 144 158 173 185 192 191 180 159 130 100 79 69 73 90 117 147 171 186 190 184 168 142 114 91 79 77 84 95 108 117 121 119 114 108 105 107 113 123 133 140 141 134 121 105 89 76 67 62 61 64 71 81 93 104 114 121 124 123 121 118 118 122 130 142 154 164 170 170 165 155 142 129 117 107 100 95 90 84 77 69 62 56 53 53 58 69 88 111 136 156 169 
190 190 184 173 155 134 116 105 103 110 125 145 166 182 190 187 172 147 116 89 72 69 77 96 121 145 162 169 166 152 130 107 88 79 77 82 91 100 107 108 105 100 95 93 95 102 112 123 132 136 134 127 116 103 91 80 72 67 64 64 67 71 78 84 90 94 97 98 99 102 108 117 129 143 154 162 165 164 158 147 134 120 106 93 82 72 64 57 50 46 43 43 46 54 69 92 121 149 170 184 
199 198 190 174 150 122 97 80 74 78 92 114 141 165 182 187 179 159 129 99 76 66 67 79 97 117 134 144 143 134 118 101 88 82 82 87 94 101 104 103 98 92 87 85 86 92 102 113 124 133 137 136 132 124 114 104 93 83 74 68 64 63 65 68 72 77 81 84 87 91 96 104 115 127 139 149 156 160 159 153 143 129 113 95 79 65 55 48 43 40 40 42 48 59 78 105 135 162 182 194 
201 199 189 171 144 111 82 63 55 56 66 86 114 145 170 182 181 166 140 109 83 68 63 68 80 95 110 120 122 118 108 98 91 89 92 98 105 109 110 106 99 91 85 81 82 87 95 107 119 131 141 147 149 147 142 134 122 109 96 83 73 68 65 66 70 74 79 83 85 87 89 93 100 108 119 131 143 153 159 160 155 144 128 108 88 70 57 48 43 41 43 48 57 72 94 121 149 173 189 198 
196 194 184 166 137 104 75 55 45 44 51 66 92 125 155 175 180 171 149 120 93 74 65 65 72 83 95 104 109 109 105 102 100 103 108 115 121 124 122 116 107 97 88 84 83 86 94 105 118 133 146 156 163 167 166 161 152 139 123 107 94 84 79 79 82 86 91 94 94 91 88 86 86 90 99 111 127 143 158 167 168 162 149 130 107 85 68 57 51 50 53 61 73 90 112 136 158 176 188 194 
183 182 175 159 133 102 74 55 44 40 44 56 79 110 143 168 178 174 158 133 107 86 74 71 74 81 90 99 105 108 109 111 114 120 128 136 141 142 138 129 118 106 96 90 89 91 98 109 122 137 151 163 173 179 181 180 174 164 150 134 120 110 105 104 107 112 116 116 111 102 91 81 76 75 80 92 110 132 155 172 180 180 172 156 134 111 90 76 69 68 72 82 95 111 129 146 160 170 177 181 
160 163 161 151 132 106 81 61 49 43 44 54 74 103 137 164 177 178 167 148 124 104 89 83 83 87 94 102 109 115 120 125 132 140 148 155 158 157 152 141 128 116 106 100 98 102 108 118 131 144 156 167 176 182 186 186 183 176 166 155 145 138 136 137 141 145 147 144 133 117 98 80 69 64 66 75 94 121 150 174 189 194 190 179 162 141 120 104 96 94 99 109 121 132 141 148 151 153 155 157 
130 137 143 143 134 116 95 75 60 52 51 59 77 105 137 164 179 183 177 162 143 123 108 99 96 98 104 111 118 126 133 141 149 157 164 169 170 167 159 148 135 122 113 109 110 115 123 133 143 153 162 169 174 177 179 179 177 174 169 164 161 160 162 166 171 175 175 170 156 133 106 81 64 55 55 63 81 109 143 173 193 202 203 197 184 168 151 136 128 126 131 138 145 148 147 141 133 126 123 124 
98 111 126 137 139 131 114 95 78 67 64 70 87 114 144 169 184 188 185 174 158 140 124 113 108 108 112 119 128 137 146 155 162 169 174 176 175 169 159 146 133 122 116 115 120 129 139 148 157 163 166 167 167 164 162 159 157 156 156 159 163 170 178 186 192 196 195 189 173 146 113 82 61 50 48 54 70 98 135 169 193 206 209 206 198 186 173 162 156 155 158 162 163 158 145 128 110 97 90 90 
74 91 113 134 146 147 136 119 101 87 81 86 102 127 154 176 189 193 191 182 168 151 134 121 113 112 115 123 133 144 154 164 172 177 179 178 173 164 151 137 124 115 112 116 126 139 152 162 169 172 170 164 155 145 135 128 125 126 130 140 153 169 183 195 203 207 206 200 184 156 119 85 60 47 43 48 62 88 125 161 188 203 209 207 201 192 183 176 172 173 175 177 173 161 140 114 90 73 65 65 
61 80 107 134 154 161 155 141 122 106 99 103 118 141 165 183 193 196 193 184 170 151 133 118 109 107 110 119 131 145 158 169 176 180 180 176 167 153 137 121 108 102 103 111 126 144 160 172 179 179 173 160 143 124 107 96 91 92 99 113 134 157 179 196 206 211 211 205 189 162 124 88 61 47 42 45 57 80 113 149 177 194 201 200 195 187 180 176 176 179 183 183 177 161 134 103 76 58 50 51 
56 77 107 138 161 170 167 154 136 119 111 115 129 150 171 187 195 197 192 181 164 142 121 105 96 94 98 108 122 140 156 169 177 180 178 171 158 140 121 104 92 87 91 102 120 142 163 177 184 183 174 157 133 107 86 72 65 65 73 88 111 140 168 189 203 210 211 205 191 165 129 92 65 49 43 45 54 73 101 132 159 176 182 181 176 169 164 163 167 175 181 184 177 160 132 99 70 52 44 46 
61 83 114 144 166 174 170 156 137 121 113 116 131 151 172 187 194 195 188 173 152 127 104 88 79 78 82 94 111 131 151 166 175 178 174 164 148 127 106 89 79 75 80 92 112 136 159 176 185 185 175 155 128 98 74 58 51 50 56 69 91 120 151 177 194 203 206 202 189 167 135 101 74 57 50 50 57 70 91 114 135 148 153 150 144 138 135 139 149 163 175 181 177 161 134 101 73 55 47 49 
75 98 127 153 170 174 166 148 127 111 103 107 122 144 166 182 190 190 181 163 137 110 86 71 64 63 69 81 99 121 143 161 171 174 169 157 139 118 98 82 73 70 73 84 103 126 150 169 180 182 173 155 127 98 73 56 48 46 49 59 77 102 132 159 178 190 195 193 184 167 142 114 90 74 65 63 66 74 86 99 110 117 117 112 106 102 102 110 126 146 165 176 177 165 141 112 84 66 59 62 
99 120 144 164 173 170 155 133 110 93 86 91 106 129 154 173 183 183 173 152 124 96 73 60 54 54 60 73 91 114 136 154 164 166 161 149 132 114 96 83 75 72 74 82 96 115 136 155 168 173 168 154 131 105 82 65 55 50 51 57 70 88 112 135 154 168 175 178 174 165 150 131 113 100 91 87 85 86 88 90 91 89 85 79 74 71 74 85 104 129 154 171 177 170 152 127 103 87 80 85 
