P2
100 100
255
130 141 151 157 155 147 132 115 100 90 88 93 105 121 138 152 160 161 154 140 122 103 87 77 73 73 79 88 101 116 130 140 146 146 143 136 128 119 111 104 99 96 96 98 103 112 123 135 145 151 152 147 137 122 107 95 86 81 81 84 90 99 110 120 128 135 140 143 146 146 145 141 136 131 126 122 117 113 109 104 98 91 85 79 75 74 78 87 102 121 139 153 160 160 152 141 129 121 118 121 
149 158 163 164 158 144 125 105 89 79 77 82 93 110 129 145 155 157 151 139 122 104 90 81 77 78 84 93 105 118 129 136 139 138 135 130 126 122 119 116 114 111 108 106 105 108 113 121 129 137 142 144 141 133 124 115 107 101 98 96 97 99 102 105 109 113 119 125 133 141 148 152 154 154 151 147 140 131 120 108 96 85 76 70 67 68 73 83 99 118 136 151 159 160 156 149 141 137 137 142 
164 170 173 171 161 144 121 99 82 73 70 75 86 103 122 140 152 156 152 142 128 113 100 92 89 91 96 105 114 123 128 131 130 127 124 122 122 124 128 131 132 131 126 119 112 107 104 106 112 120 129 137 142 144 142 138 132 126 119 113 106 101 96 94 93 94 99 108 121 136 150 162 169 172 172 168 160 148 133 115 99 85 75 69 67 68 75 86 101 119 135 148 155 157 154 150 147 146 150 156 
172 178 180 176 164 145 121 98 80 71 68 73 84 101 121 139 151 157 156 149 138 126 116 110 108 110 115 121 127 130 129 125 119 114 110 111 116 125 136 146 151 152 147 136 123 109 99 94 96 103 114 128 141 151 157 158 155 150 141 129 117 104 93 85 81 81 86 96 112 132 151 168 178 184 185 182 174 161 144 124 104 89 79 74 73 76 84 95 109 123 136 144 148 148 145 143 144 148 155 164 
175 181 183 178 166 147 123 99 82 73 71 76 88 104 124 141 154 160 161 156 149 141 135 131 131 134 137 141 141 138 130 119 108 100 96 98 107 122 140 156 167 170 165 153 135 114 97 86 83 88 100 118 137 154 166 172 172 167 157 142 125 107 92 81 74 73 78 89 107 129 152 170 183 189 191 188 181 168 151 131 111 97 88 84 86 92 100 111 122 131 137 139 137 133 130 129 132 140 152 164 
172 180 183 178 167 148 125 103 87 79 78 84 96 112 130 146 157 163 163 161 156 152 149 149 151 154 157 158 154 145 131 114 98 87 82 85 97 117 140 162 177 183 179 167 147 122 98 82 75 77 89 108 132 154 170 179 181 177 166 149 129 108 91 79 73 72 77 89 107 129 152 170 182 189 190 188 180 168 152 134 118 106 100 100 105 113 122 131 138 140 138 132 124 116 111 110 115 126 142 158 
165 175 179 175 164 147 126 107 93 87 88 96 108 124 139 151 159 162 162 160 157 156 157 160 164 168 171 170 164 151 132 110 91 77 72 75 87 109 137 163 181 190 188 177 157 129 102 81 71 71 82 101 127 152 170 181 184 179 167 149 128 107 91 80 75 76 82 94 111 131 151 166 177 182 183 180 173 162 148 134 122 115 114 119 127 137 146 152 153 149 139 125 110 98 91 91 97 110 128 148 
156 168 173 169 159 143 125 109 99 96 100 109 122 135 147 154 158 157 155 151 150 150 154 160 168 174 177 176 169 155 133 108 86 71 65 67 79 101 131 160 181 192 193 184 165 137 108 85 72 70 79 98 123 148 168 178 180 174 162 143 123 105 92 85 83 86 94 105 119 135 149 159 166 169 168 165 158 149 139 130 124 123 127 136 147 158 165 169 166 156 139 118 98 84 76 75 81 95 115 137 
147 160 164 160 150 135 120 109 104 105 112 123 135 145 152 154 151 146 140 135 134 136 143 152 163 172 178 178 172 157 135 110 86 70 63 63 74 95 124 154 177 191 193 187 170 144 116 91 77 74 82 99 123 146 164 172 172 165 151 133 116 102 95 93 96 102 111 121 131 139 146 150 151 150 148 144 139 133 127 123 123 128 138 150 163 173 179 180 174 160 138 113 90 74 66 65 71 85 105 127 
141 152 155 150 139 125 114 107 107 113 123 135 146 152 153 148 140 129 120 114 112 115 124 137 151 164 173 175 171 159 139 114 91 74 65 65 73 92 119 148 172 186 191 186 173 150 124 101 87 83 89 105 125 145 159 164 161 151 136 120 107 100 99 104 112 122 132 139 143 144 142 138 133 128 124 121 118 116 115 116 121 131 144 158 172 182 187 187 179 162 137 109 85 69 61 60 67 81 100 122 
139 147 147 139 127 115 106 104 109 119 132 145 153 155 150 139 125 111 99 92 90 95 104 119 136 152 164 170 168 159 143 122 101 84 74 72 78 93 116 142 164 179 185 183 173 155 133 112 99 96 101 114 131 145 154 155 148 135 120 107 99 98 104 116 130 143 153 157 155 149 139 128 117 109 104 102 101 102 105 110 119 131 146 161 175 185 190 189 180 162 137 108 83 67 60 61 68 82 102 122 
141 145 141 130 117 106 100 102 110 124 139 151 157 155 145 129 110 94 81 75 74 78 88 103 121 139 153 162 164 159 148 132 115 100 90 86 89 99 116 137 156 169 176 176 169 156 139 124 114 111 115 126 137 146 150 145 134 120 106 95 92 97 110 128 146 161 169 171 165 154 138 120 106 96 91 90 92 96 101 108 117 130 144 159 173 183 188 187 178 161 135 107 84 69 64 66 75 90 109 128 
146 146 138 124 110 99 96 101 113 129 146 157 160 154 139 119 98 81 70 64 64 70 79 94 111 128 143 153 158 158 153 144 132 121 112 107 106 110 120 133 146 156 163 164 161 153 143 133 127 125 129 136 143 147 145 136 122 107 94 87 87 97 114 137 158 173 181 180 172 157 137 117 101 90 87 87 91 97 102 109 117 127 139 153 166 176 182 181 174 158 134 108 87 74 70 74 85 102 121 137 
153 149 137 121 106 96 95 102 117 135 152 161 162 152 134 111 90 73 64 61 62 68 78 92 107 122 134 144 151 154 154 153 148 143 136 131 126 124 125 129 134 140 145 148 148 146 142 138 136 137 140 144 147 146 140 128 113 98 86 81 84 96 117 141 163 179 186 184 175 159 138 118 102 93 91 93 98 104 108 112 116 122 131 142 153 164 171 172 166 152 132 110 91 81 79 85 99 117 135 148 
159 151 137 119 103 95 96 106 122 142 157 166 164 152 132 108 86 72 64 63 67 75 85 97 109 119 128 135 141 147 152 157 160 160 158 153 145 137 129 124 121 122 125 128 132 135 138 139 141 143 146 148 148 144 136 123 108 93 83 80 84 96 117 141 163 178 184 183 174 159 140 121 108 101 101 105 111 115 117 117 116 116 120 127 137 148 156 160 156 146 129 111 96 89 89 98 113 131 147 158 
162 152 135 117 102 95 98 109 128 147 162 169 166 153 132 108 88 75 70 72 79 89 99 109 116 120 122 124 128 135 145 156 166 172 173 169 160 146 131 117 108 104 104 108 115 123 130 137 142 145 147 147 145 140 131 119 106 94 86 82 86 97 115 136 156 170 176 176 168 155 140 126 117 114 116 121 127 129 127 121 115 109 108 111 119 129 139 145 145 139 127 113 102 97 99 110 125 142 156 163 
161 149 131 113 100 95 99 112 131 151 165 171 168 154 134 112 94 84 82 87 97 109 119 125 125 122 117 113 114 121 134 150 165 176 181 178 168 151 130 110 95 88 87 91 100 111 123 133 140 143 144 142 139 134 127 119 109 100 93 90 92 100 113 129 144 156 162 162 156 148 138 130 126 127 132 138 141 140 134 124 112 102 97 97 103 113 123 132 136 133 125 115 107 105 109 119 134 149 160 165 
156 143 126 109 97 93 98 112 131 151 165 171 167 155 137 118 104 97 99 108 120 132 140 141 135 123 110 101 99 104 119 139 159 175 182 181 170 150 125 101 84 75 74 79 90 103 118 129 137 139 138 135 131 128 124 121 117 112 108 104 103 105 111 119 128 136 140 141 140 136 133 132 134 139 146 151 152 148 138 123 108 95 88 86 91 101 112 123 129 130 126 120 114 113 117 127 140 152 161 162 
151 137 120 103 93 90 95 109 127 146 160 166 164 154 139 125 115 112 118 129 143 153 158 153 141 122 103 89 84 89 103 126 150 170 180 179 167 145 118 93 75 67 66 73 85 101 117 129 135 135 131 126 123 121 122 125 127 128 127 123 119 114 112 111 112 114 116 118 120 122 126 132 139 148 155 159 158 151 138 120 103 89 82 80 85 95 107 120 129 132 131 127 122 121 125 133 143 153 159 158 
146 132 115 99 89 86 91 102 119 136 149 156 156 149 140 130 125 127 136 148 161 169 169 160 142 118 95 79 73 76 90 114 140 162 174 174 162 138 110 85 69 62 63 72 87 105 122 133 137 133 126 118 114 115 121 130 139 146 148 145 137 127 115 105 98 95 95 97 102 109 119 131 143 154 161 163 160 149 134 115 98 85 78 78 84 95 109 123 134 139 139 136 132 131 133 139 146 153 157 155 
145 130 114 98 88 83 86 95 108 123 135 143 145 142 137 133 134 139 150 162 172 177 174 161 139 112 88 71 64 68 81 105 132 156 168 168 155 131 103 80 66 61 65 77 95 115 132 142 142 134 121 110 105 108 118 133 149 161 167 165 155 140 121 103 89 81 79 81 88 99 114 131 146 157 164 164 157 145 127 109 93 82 78 80 88 101 116 132 143 149 149 146 142 140 141 144 150 155 156 153 
147 134 118 102 90 83 83 88 97 108 119 127 132 133 133 134 139 147 158 169 177 180 174 158 134 106 82 66 61 64 78 101 128 151 164 163 149 125 99 78 66 65 73 88 110 131 147 154 149 136 119 104 97 100 113 134 155 172 180 180 171 153 129 105 85 74 70 72 81 95 113 132 149 160 164 162 153 138 120 102 89 81 79 84 95 110 127 142 153 158 159 155 151 148 147 150 154 157 159 156 
154 142 127 111 97 87 83 84 89 97 105 113 119 124 128 133 141 151 162 172 178 178 170 153 128 101 79 66 61 66 80 103 129 150 161 159 145 122 97 79 71 73 85 105 129 151 164 167 158 140 118 98 89 91 106 130 156 177 188 190 182 163 137 108 85 71 66 69 79 95 116 137 153 162 164 158 146 130 112 97 86 82 83 91 103 120 137 152 161 165 164 160 155 152 150 152 156 160 162 161 
163 154 140 124 108 96 88 85 86 90 97 104 111 118 125 133 142 152 163 170 174 172 163 146 123 99 80 70 67 74 89 111 135 153 162 158 143 121 100 85 80 86 103 126 151 170 180 179 167 144 117 94 82 83 97 123 152 177 191 195 188 171 144 113 88 72 66 70 82 100 122 143 157 164 162 154 139 122 106 93 85 84 88 98 113 129 145 158 165 166 164 158 153 149 147 150 155 161 165 166 
170 165 154 140 124 109 97 90 88 90 95 101 109 117 125 134 143 152 160 166 168 164 155 139 119 100 86 79 80 88 104 125 145 160 164 159 144 123 104 92 91 102 122 147 170 185 192 188 173 147 116 90 75 74 87 112 144 172 189 195 191 175 149 118 92 75 70 75 88 108 130 149 161 164 159 148 132 115 101 91 87 88 95 106 121 136 149 158 162 160 155 148 141 137 137 141 148 157 165 170 
173 172 166 154 139 123 110 101 96 96 100 106 113 121 129 137 144 150 155 158 158 153 145 132 118 104 96 94 98 109 124 142 157 166 167 159 144 125 108 100 103 117 139 163 183 196 199 194 177 150 116 87 70 67 77 101 132 163 183 192 190 176 152 122 96 81 76 82 96 117 138 154 162 162 154 141 125 109 98 91 90 95 103 115 128 140 149 153 152 147 138 129 122 118 118 124 134 147 159 169 
171 175 172 164 151 137 123 113 108 108 111 117 124 131 137 142 145 147 148 147 144 140 133 125 116 111 109 112 120 131 145 158 168 172 169 158 142 124 110 105 111 127 150 173 191 201 203 196 179 151 116 85 67 62 69 90 120 151 175 186 186 174 152 125 101 87 83 90 105 125 143 156 161 157 147 133 118 105 98 95 98 104 114 125 135 142 146 144 138 128 117 106 98 95 96 102 114 130 147 162 
163 171 172 167 157 145 134 126 122 122 126 132 138 143 146 147 146 142 138 133 128 124 119 116 115 116 121 130 141 152 163 171 175 174 167 154 136 120 108 105 113 130 153 175 192 201 203 196 179 151 116 85 66 59 64 81 108 139 164 177 179 169 150 126 105 92 90 98 113 130 145 154 155 149 138 124 112 104 101 103 109 118 127 136 142 144 142 134 122 108 95 84 77 74 75 81 93 110 130 149 
150 161 165 163 156 147 139 133 133 136 141 148 153 156 156 152 145 136 127 118 111 107 105 106 111 120 131 144 157 167 175 179 178 172 161 145 127 111 101 99 107 124 147 169 186 195 198 192 177 151 118 87 68 60 63 76 100 128 153 168 171 163 146 126 108 98 97 104 118 132 143 148 146 138 127 117 109 107 109 115 124 134 142 148 150 147 139 126 110 94 79 69 62 59 60 65 76 92 112 133 
135 147 153 152 147 141 136 135 138 145 153 160 165 166 163 155 143 129 115 103 95 91 91 96 106 120 136 153 166 176 181 181 176 166 151 133 114 99 90 89 97 112 132 154 172 184 188 185 172 149 120 92 73 64 66 77 96 121 144 158 162 155 141 124 110 102 102 109 120 131 138 140 135 127 118 112 110 113 121 131 142 151 158 161 159 152 140 124 105 86 72 61 54 51 52 56 64 78 97 117 
122 133 137 136 132 128 127 130 137 147 158 167 172 172 166 155 139 121 104 91 82 79 80 87 100 118 138 156 170 179 182 179 171 157 139 119 100 87 79 78 83 95 112 132 151 165 173 173 165 147 123 100 82 74 74 83 99 119 138 151 154 148 136 122 111 105 106 112 120 128 131 130 124 117 112 110 114 123 135 148 159 167 171 171 167 158 145 127 107 88 73 62 54 51 50 53 61 72 88 106 
114 122 123 121 116 113 114 119 130 143 157 167 173 173 166 153 135 114 96 82 74 71 73 81 95 115 136 156 170 177 179 174 162 146 125 105 88 77 70 69 72 80 93 109 126 142 153 158 155 144 128 110 96 88 88 95 107 123 138 146 148 142 132 120 111 107 108 113 119 124 125 122 116 111 109 113 122 135 149 162 172 178 180 178 173 164 151 135 117 99 84 72 64 59 58 60 66 75 88 102 
115 118 115 109 103 99 100 107 119 134 150 162 168 168 162 148 130 109 91 78 70 68 71 79 93 113 134 153 167 173 173 166 152 133 113 94 80 70 65 63 65 69 78 89 104 118 131 140 144 140 132 122 113 108 107 112 121 132 141 146 144 138 128 118 111 109 110 114 119 121 120 117 112 110 112 119 132 147 161 173 180 183 182 179 173 166 156 145 132 118 105 93 84 78 76 76 81 89 99 109 
125 121 114 104 95 89 89 95 107 122 138 151 158 159 154 142 125 107 91 80 73 72 75 83 96 114 134 151 163 167 165 156 141 122 103 87 75 67 64 62 63 65 70 78 88 101 113 125 133 137 136 133 130 128 128 132 137 143 147 147 143 135 125 117 111 109 111 115 118 120 119 115 113 113 118 128 141 156 169 177 181 180 177 172 166 162 158 153 148 141 132 123 115 109 105 104 107 112 119 123 
139 131 119 106 94 87 84 88 97 110 124 136 144 146 143 134 122 109 97 88 83 82 85 93 105 120 136 150 158 160 156 145 130 113 96 83 74 70 68 67 68 69 72 76 83 92 102 114 124 133 138 142 144 145 147 150 152 154 153 150 143 133 123 115 110 110 112 116 119 121 120 118 117 119 125 136 149 161 170 174 173 168 161 155 150 149 152 156 159 160 159 155 149 144 140 138 138 140 142 143 
154 144 130 115 101 91 86 86 91 100 110 120 127 131 131 127 121 114 108 103 100 100 103 109 118 129 140 149 153 152 146 134 120 105 92 83 78 77 78 79 81 82 83 85 87 92 99 108 118 128 138 145 152 156 159 162 163 162 158 151 142 131 121 113 109 110 113 117 121 123 123 122 123 126 132 142 152 160 163 162 156 146 136 129 126 129 138 151 164 173 178 179 177 173 169 166 165 164 163 160 
164 155 142 127 113 101 93 90 90 94 100 106 112 116 120 121 122 123 123 123 123 124 126 130 135 140 145 148 148 143 135 123 110 99 90 86 86 89 94 99 103 105 105 103 101 100 102 106 113 123 133 143 152 160 164 167 167 165 159 151 140 129 119 112 109 110 114 119 123 126 127 127 128 131 136 143 149 152 150 143 131 118 107 99 98 105 119 140 161 177 188 192 192 190 187 183 180 177 174 171 
167 161 152 141 128 116 107 99 95 93 93 95 99 104 111 118 126 133 139 144 146 148 149 149 149 149 149 146 141 133 124 113 102 94 91 92 97 106 116 125 132 134 133 128 122 115 109 107 110 116 125 136 147 156 162 166 166 163 157 148 137 126 117 111 109 111 116 121 126 129 130 130 131 133 136 140 141 139 132 120 105 91 80 74 74 83 100 125 152 175 189 196 197 195 191 186 181 177 174 171 
162 161 158 152 144 134 124 113 104 96 91 89 91 96 105 117 130 143 154 161 165 167 166 163 159 155 149 142 133 124 113 103 96 92 93 99 110 124 139 151 159 162 160 153 143 130 118 110 107 109 115 125 136 146 154 158 159 156 150 142 132 122 115 111 111 115 120 125 130 132 132 132 131 131 132 132 129 123 113 99 84 71 61 57 58 67 85 111 141 167 184 192 193 190 183 176 169 165 162 162 
148 154 158 159 157 151 141 129 116 103 94 88 87 92 102 117 135 151 165 173 177 177 175 170 163 155 145 135 125 115 105 97 92 91 96 106 122 140 158 171 179 182 180 172 159 143 126 112 103 102 106 114 124 134 141 146 147 145 140 133 126 119 115 114 116 121 126 131 134 134 133 130 127 125 124 122 117 109 98 85 71 60 52 49 51 59 76 101 130 157 174 181 180 174 164 154 145 140 140 143 
130 143 155 163 166 164 156 144 129 113 99 90 87 92 103 119 139 156 170 178 181 180 176 168 159 149 139 128 118 109 100 94 92 93 101 114 132 152 170 183 191 193 190 182 168 149 129 112 101 97 98 104 113 121 128 131 132 130 127 122 118 116 117 120 125 130 135 138 139 137 132 127 121 118 115 112 107 100 90 79 68 58 52 49 51 59 74 97 123 146 161 165 161 150 137 124 115 110 112 119 
111 130 149 163 171 172 167 157 141 123 106 95 91 94 105 121 141 158 170 177 179 175 169 160 150 140 130 121 113 106 101 97 96 99 108 122 140 159 176 188 194 196 192 183 169 149 129 112 100 95 96 101 107 112 116 117 117 114 112 111 111 114 120 128 135 142 146 147 145 139 130 122 115 110 107 105 102 98 91 82 73 65 60 58 60 67 81 100 121 138 147 147 138 123 108 95 86 83 87 96 
98 120 142 161 172 177 174 165 150 132 115 102 96 98 108 123 140 155 166 170 169 164 155 146 136 128 122 117 113 110 107 105 105 109 117 130 146 163 176 186 191 191 186 176 162 144 125 111 102 99 101 105 108 110 110 107 103 100 98 100 105 113 125 137 147 155 158 157 151 141 129 117 108 103 101 102 103 103 100 95 89 83 78 76 78 84 95 110 124 134 136 130 117 101 85 74 67 66 70 81 
91 113 137 158 171 177 176 169 156 139 122 109 103 104 111 124 137 149 156 157 154 146 137 129 122 117 116 117 118 119 119 119 119 122 128 138 150 162 173 179 182 179 173 162 148 133 120 111 108 110 113 117 118 116 110 102 94 89 87 90 99 112 129 146 159 167 169 165 156 142 127 113 103 98 99 103 109 114 117 116 113 109 105 104 105 109 117 126 133 135 130 118 102 86 72 63 59 59 63 74 
91 112 134 154 168 174 175 169 158 143 128 115 109 108 113 122 132 139 142 141 135 127 118 112 109 110 115 121 127 132 135 136 136 136 139 144 152 159 165 167 166 161 153 142 130 120 114 114 118 125 132 136 135 128 115 101 89 81 78 83 94 112 133 153 168 176 177 171 160 143 125 109 99 96 100 108 119 129 137 141 141 139 136 135 135 137 140 142 142 138 127 112 95 80 69 62 59 60 65 75 
97 114 132 149 161 168 169 165 156 144 131 120 113 112 114 119 125 128 127 123 116 108 102 100 102 108 118 129 139 147 151 151 150 149 148 148 150 152 153 151 146 138 128 118 110 107 109 118 131 144 153 157 154 143 125 105 87 76 72 77 90 110 135 158 174 182 182 175 161 143 123 107 98 97 103 115 130 144 155 162 164 164 162 160 159 158 157 155 150 141 127 111 95 82 73 68 67 69 74 83 
106 118 131 143 152 157 159 156 150 141 131 122 116 113 113 115 116 116 112 107 101 95 92 94 100 112 126 140 152 159 163 163 160 155 151 148 146 144 140 134 125 115 105 97 93 96 106 123 143 161 173 177 172 159 137 111 88 74 68 73 86 109 136 160 177 184 184 175 160 141 121 105 98 99 108 123 140 156 167 174 177 177 175 173 171 169 165 160 153 141 127 113 99 89 83 81 81 84 89 96 
117 122 128 134 139 143 145 144 141 135 129 122 117 113 111 110 109 106 101 96 91 88 89 95 105 119 135 150 161 167 169 166 161 155 149 143 139 133 127 118 108 97 87 81 81 88 104 128 153 174 187 191 186 171 147 117 91 73 67 70 84 107 135 160 176 183 182 172 156 137 118 105 100 103 115 130 147 162 172 177 179 178 176 174 171 168 164 158 150 139 127 115 106 100 98 99 102 105 109 113 
127 124 123 123 124 126 128 130 130 129 125 121 117 113 110 106 103 99 95 91 88 88 92 101 114 130 145 158 166 169 168 162 155 147 139 134 129 124 117 108 97 86 77 72 74 84 103 130 159 182 195 199 194 179 154 123 94 75 67 70 84 107 134 157 173 179 176 165 149 131 115 105 104 109 121 136 151 162 169 171 171 168 165 162 159 157 154 149 142 134 126 119 114 114 116 120 125 128 129 129 
133 124 116 110 109 110 113 117 120 122 123 121 118 114 109 105 101 97 93 91 91 94 101 111 125 140 153 162 166 165 159 150 140 131 124 120 118 116 111 104 94 83 74 69 71 81 101 130 160 184 197 202 197 182 157 126 97 77 70 73 86 108 133 154 167 171 166 155 140 124 113 107 109 117 129 141 152 158 160 158 154 149 145 142 141 140 139 137 133 129 125 123 123 127 133 140 145 148 146 141 
135 120 108 99 95 96 100 107 114 119 122 122 120 117 112 107 103 99 97 96 98 104 112 124 137 149 159 163 162 155 144 132 120 112 107 107 109 111 111 107 98 88 78 71 71 80 99 126 156 180 194 199 194 180 156 127 100 82 75 79 93 112 133 150 159 160 153 142 129 117 111 110 116 125 136 145 150 151 146 139 132 125 120 119 120 122 124 126 126 126 126 127 131 138 146 154 160 161 157 148 
134 116 101 90 86 88 93 102 112 120 126 127 126 123 118 113 109 106 105 106 109 116 125 136 147 156 160 160 153 141 126 112 100 93 92 95 103 111 117 117 110 99 87 78 75 80 95 119 146 169 184 189 185 172 150 125 102 88 84 90 103 120 137 148 151 148 139 128 117 111 110 115 124 135 143 148 148 142 132 120 110 103 99 100 103 109 116 121 124 126 129 132 138 146 155 163 168 168 162 150 
131 112 96 85 82 84 92 103 115 126 133 136 135 132 127 122 119 116 116 117 121 127 136 145 153 158 159 154 143 127 109 94 83 79 81 89 101 116 127 132 128 117 102 89 81 81 91 109 132 153 168 173 170 158 140 120 104 96 97 105 118 132 142 147 144 136 125 114 108 107 112 122 133 144 151 151 145 134 119 105 94 87 86 89 96 105 114 122 127 131 134 138 144 152 160 167 171 170 163 149 
129 109 94 84 82 87 96 109 123 135 143 146 145 142 138 133 129 127 127 128 131 136 143 149 155 157 155 147 133 115 97 82 73 71 75 87 104 124 140 149 147 136 120 103 90 84 88 99 116 133 146 151 148 139 126 113 106 105 111 123 135 145 149 147 138 125 113 104 101 105 115 129 142 153 157 154 144 128 111 96 85 80 81 87 97 109 120 129 134 137 140 143 147 154 162 168 171 169 162 147 
127 108 94 87 86 93 105 120 135 146 154 156 155 152 147 143 139 137 136 136 138 141 145 150 153 154 150 142 127 109 92 78 70 68 75 89 110 134 154 164 164 155 138 118 100 89 87 92 102 114 123 127 125 119 111 106 107 114 126 140 151 157 156 147 133 117 103 96 96 104 119 135 150 159 161 155 142 125 107 92 83 81 84 93 105 118 129 137 141 142 143 144 148 153 160 166 169 167 159 145 
126 109 97 91 93 102 116 132 147 157 163 165 162 158 153 149 145 142 140 139 139 140 142 145 148 149 146 138 125 109 93 79 72 71 79 95 118 143 164 175 177 169 152 131 110 96 89 89 94 101 106 107 105 101 98 100 108 121 138 154 164 167 161 147 128 109 96 90 94 105 123 141 156 164 164 156 141 123 106 93 87 87 92 103 115 127 137 143 144 143 141 141 144 149 156 162 166 164 157 143 
125 110 100 96 100 111 127 143 157 166 170 169 166 160 154 149 145 141 138 136 135 135 136 138 141 144 143 138 128 115 100 87 79 79 86 102 125 150 170 181 183 176 161 141 120 104 95 92 93 96 97 96 92 90 90 96 108 127 147 163 172 172 162 144 123 103 90 87 93 107 126 145 159 165 163 154 140 123 108 97 94 96 103 113 124 134 140 142 140 136 133 132 135 142 150 158 162 161 154 141 
123 110 101 99 105 118 135 151 164 171 173 170 164 157 150 143 138 134 131 129 127 126 127 130 135 140 143 141 135 125 112 99 91 88 94 109 130 153 171 182 184 178 164 147 128 113 104 101 100 100 98 94 89 86 86 94 109 129 150 167 174 171 159 139 116 97 86 84 92 107 127 146 158 163 160 150 137 122 110 103 102 105 112 121 129 134 136 133 129 123 120 120 125 133 144 153 158 158 151 138 
119 106 99 99 106 120 138 154 166 172 172 167 159 149 140 132 126 123 120 118 116 116 119 124 131 138 144 147 144 137 125 113 103 99 102 114 131 151 167 176 178 173 162 148 133 122 116 114 114 113 109 102 94 89 88 95 110 130 150 165 171 167 152 131 108 90 81 82 91 107 126 144 155 158 154 144 132 120 112 108 109 114 119 125 128 128 125 119 112 106 104 106 114 126 139 150 156 155 147 134 
113 100 93 94 102 117 135 152 164 169 167 160 149 137 126 117 112 108 107 106 106 108 113 120 129 139 148 153 153 148 138 125 114 107 107 115 128 144 157 165 167 163 155 144 135 130 129 131 132 132 126 117 106 97 94 98 111 129 148 161 165 158 143 121 100 85 78 81 91 107 125 139 148 149 144 135 125 117 113 113 116 120 124 125 123 118 111 102 95 90 90 96 107 122 137 149 155 153 143 129 
105 91 85 86 95 110 129 146 158 163 161 151 138 124 111 102 97 95 95 96 99 104 111 120 131 143 153 159 160 156 146 133 120 111 108 112 121 133 144 151 152 150 144 138 134 135 140 146 150 151 145 135 122 109 103 104 113 128 144 154 156 149 133 113 94 82 78 81 92 107 122 134 140 139 133 125 118 114 114 117 121 125 126 123 116 107 97 88 82 80 83 92 106 124 140 152 156 152 139 122 
96 83 76 77 86 100 119 138 151 157 154 143 128 113 99 90 86 85 87 90 96 104 113 125 137 149 158 163 164 159 148 135 121 110 105 106 112 121 130 135 137 135 132 130 131 137 147 157 164 166 161 151 136 122 112 110 117 128 140 149 149 141 125 107 92 82 80 85 96 109 121 129 131 128 121 115 111 111 114 120 126 129 128 121 111 100 89 80 76 77 83 96 114 132 149 158 160 152 136 115 
89 75 68 69 77 92 111 130 145 152 149 138 122 106 92 83 79 79 82 89 97 108 120 133 145 155 162 165 163 156 145 130 116 106 100 100 104 111 118 123 124 123 122 122 128 137 150 162 171 174 170 160 146 131 120 117 121 129 139 145 145 137 123 108 95 88 88 94 104 115 123 126 124 118 111 106 105 109 116 124 131 134 131 123 111 98 87 80 78 83 93 109 128 147 161 167 165 153 133 110 
84 69 63 64 71 86 105 126 142 149 147 137 121 104 90 81 77 77 82 91 102 116 129 142 153 160 164 164 159 149 136 122 109 99 95 96 100 107 113 117 118 117 116 118 125 136 149 162 171 174 171 162 149 135 125 121 125 132 141 146 145 138 127 115 105 101 103 109 117 124 128 126 119 111 103 99 101 108 118 129 137 140 136 127 115 103 93 88 90 97 111 128 147 163 173 176 170 155 132 106 
81 67 61 62 70 84 104 125 142 151 150 141 125 108 93 83 79 80 86 97 110 125 140 152 160 164 164 159 150 138 124 111 100 94 92 95 101 108 114 118 119 117 116 118 123 133 145 156 164 167 164 156 144 132 125 123 128 136 145 150 150 145 137 128 121 119 122 128 134 137 136 129 118 107 99 96 100 109 122 134 144 147 144 135 124 113 106 104 108 118 133 150 166 177 184 183 174 156 130 103 
81 68 63 65 73 89 109 130 147 155 155 147 133 116 101 90 85 87 93 105 120 136 149 159 165 165 161 152 140 126 112 101 93 91 93 99 108 116 123 127 126 124 122 121 124 130 139 147 152 153 149 141 132 124 120 123 130 141 150 156 158 155 149 143 140 140 143 148 152 151 145 134 120 106 97 95 101 112 127 141 150 154 151 144 135 127 122 123 129 140 154 168 179 187 189 185 174 154 128 102 
83 73 70 73 83 99 119 138 154 162 162 155 142 126 111 100 95 96 103 115 130 145 157 164 166 163 155 142 127 113 101 93 90 91 98 108 119 129 136 139 138 135 130 127 126 128 132 135 136 134 129 122 115 111 112 119 131 144 155 163 165 164 160 157 156 158 161 165 166 163 154 140 123 108 99 98 105 117 133 147 156 159 157 152 144 138 136 139 146 157 168 178 186 190 189 182 170 150 126 102 
89 82 82 88 99 114 132 149 161 167 167 161 150 136 122 111 106 107 114 125 139 152 162 166 165 158 147 131 115 102 92 88 89 96 106 120 133 144 150 152 150 145 139 133 129 126 125 123 120 115 109 103 98 98 103 115 130 146 158 166 169 169 167 165 166 168 172 175 175 171 160 145 127 112 104 104 111 124 139 152 160 162 160 154 149 144 144 148 155 164 173 180 183 184 181 173 160 142 121 103 
98 97 100 108 119 133 147 159 167 171 169 164 154 142 131 121 117 118 124 135 147 157 164 166 162 152 137 120 104 93 86 86 91 102 117 133 147 157 162 163 159 153 146 138 131 125 120 114 107 100 93 87 85 87 96 110 127 145 158 166 169 168 166 165 167 170 175 178 178 173 162 147 131 117 110 111 119 132 145 155 161 161 157 151 146 142 143 147 153 160 166 170 171 169 164 155 144 130 116 105 
109 113 121 130 141 151 160 166 170 170 168 163 155 145 136 129 126 127 133 142 152 160 164 163 156 144 127 110 95 86 83 86 96 110 128 145 158 167 170 168 163 156 148 140 132 125 117 109 100 90 83 78 76 80 90 105 124 141 154 161 162 160 157 156 158 162 167 171 172 168 159 147 133 122 117 120 128 139 150 157 159 156 150 142 135 132 132 135 141 146 150 151 149 145 139 132 124 116 110 108 
120 130 141 150 158 164 167 169 168 166 162 157 151 144 137 133 131 133 139 147 155 161 163 160 150 135 118 101 88 81 81 87 100 118 137 154 166 171 172 168 162 154 146 138 131 124 117 108 98 88 80 75 74 78 88 103 121 137 147 151 150 145 140 138 139 144 150 156 159 157 151 142 132 125 124 128 136 146 153 156 154 147 138 128 120 116 115 117 121 125 126 126 122 118 113 108 104 104 106 111 
129 143 155 163 168 170 169 166 162 157 152 148 143 138 135 132 133 136 142 149 156 160 161 156 145 129 110 94 83 78 80 88 103 123 142 159 168 172 170 164 155 146 138 132 128 123 118 110 101 92 83 78 76 80 90 103 118 131 138 138 133 125 118 114 114 119 126 134 139 140 138 133 129 127 129 135 143 151 155 153 147 136 123 111 102 98 97 99 101 103 104 102 99 95 91 89 90 95 103 115 
135 150 161 167 170 168 164 158 152 145 140 136 132 130 128 128 130 134 140 148 154 158 158 152 141 124 106 90 80 76 79 88 104 124 144 159 168 169 164 156 145 135 128 124 122 122 120 116 109 100 92 86 84 87 95 107 119 127 130 126 117 106 96 91 91 95 101 109 116 120 122 123 124 127 133 141 149 154 154 148 137 123 108 96 88 83 83 85 87 89 89 87 84 82 80 80 84 92 104 119 
137 150 159 163 163 159 153 146 138 132 127 124 122 121 120 121 124 129 135 143 150 155 155 150 139 123 105 90 79 75 78 87 103 122 142 157 164 164 157 146 134 123 116 114 116 120 123 122 119 112 105 99 96 98 104 113 122 126 125 117 105 92 81 75 74 76 82 89 96 102 107 113 119 126 135 144 151 154 151 142 128 111 96 85 78 75 76 78 82 84 85 84 83 81 80 82 87 96 108 122 
135 144 149 151 149 144 138 131 125 120 116 114 113 112 112 113 115 119 126 134 143 150 153 150 141 126 109 93 82 76 77 85 99 118 137 152 159 158 151 138 124 113 107 106 111 118 125 129 129 126 120 115 111 112 116 123 128 129 125 115 101 87 76 68 66 67 71 76 83 90 97 105 114 125 136 146 152 152 147 135 119 102 88 79 74 74 77 82 87 91 93 94 93 92 92 94 98 105 114 125 
130 133 134 133 130 127 122 118 115 113 111 110 108 106 105 104 104 107 114 123 133 143 150 151 146 134 118 101 88 80 78 83 95 112 130 146 154 154 147 134 120 108 101 101 107 116 127 135 139 138 134 130 127 126 129 133 136 136 130 120 106 91 79 71 67 67 69 72 78 84 92 101 112 125 137 146 151 149 141 128 112 96 85 78 77 80 86 94 102 108 113 115 115 114 114 114 115 118 122 126 
122 119 116 114 111 110 109 110 110 111 112 111 108 104 99 96 94 95 100 110 122 136 148 154 153 145 131 114 98 86 81 83 91 106 124 140 150 152 146 134 120 108 100 100 105 116 128 139 145 147 146 142 139 138 139 141 144 143 139 130 118 105 93 85 79 76 76 77 80 85 92 101 113 126 137 146 149 146 136 122 107 94 86 83 86 93 103 114 125 133 139 141 142 141 140 138 135 132 129 126 
114 106 100 97 97 98 102 107 113 117 119 117 113 106 97 90 85 84 88 97 111 129 145 157 162 158 147 130 112 97 87 84 89 101 118 135 147 152 149 139 126 113 104 102 107 117 129 141 149 153 152 149 146 144 144 146 149 150 149 144 136 126 116 107 100 95 92 90 90 92 97 105 116 128 139 146 147 142 132 118 105 95 91 92 100 111 125 139 150 158 163 165 166 164 162 157 152 144 134 124 
107 96 90 87 89 94 102 112 121 128 131 129 122 111 99 88 79 76 78 86 101 122 143 160 170 171 163 149 130 110 96 88 89 98 113 131 145 153 153 146 134 122 112 108 111 119 130 142 150 154 154 151 148 145 144 146 150 154 156 156 153 148 142 135 128 121 114 108 105 103 106 112 121 132 141 146 146 140 130 117 106 99 99 105 117 132 147 160 170 176 180 181 180 178 175 169 161 150 136 121 
103 92 85 84 88 96 108 121 133 142 145 143 134 121 104 89 78 71 71 78 94 116 141 163 176 181 177 165 147 126 107 94 91 97 110 127 144 154 157 153 143 131 121 115 116 122 132 142 150 154 153 149 144 140 138 140 145 151 158 163 166 166 164 160 154 147 138 129 121 117 116 120 128 136 144 147 146 140 129 118 109 106 109 119 133 149 164 175 182 186 187 186 184 182 178 172 163 150 135 118 
102 92 87 88 94 104 118 133 146 155 159 156 147 132 114 95 80 71 69 74 88 111 138 163 180 188 188 179 162 141 119 102 94 96 107 124 141 153 159 158 150 139 129 122 121 126 134 143 149 152 150 144 137 131 128 129 134 143 153 163 171 176 178 177 173 166 157 146 136 129 126 128 134 141 147 150 148 141 131 121 114 112 118 129 145 160 172 180 184 185 183 181 177 174 170 165 157 146 131 116 
106 99 96 98 105 116 130 144 157 165 169 167 159 145 126 106 88 76 71 73 85 107 134 161 181 192 194 187 173 153 129 109 98 96 104 119 136 150 157 158 152 143 134 127 126 129 136 143 148 149 145 138 129 121 115 115 120 129 141 154 166 176 181 183 181 175 166 155 144 136 132 133 139 145 151 153 150 144 134 124 118 118 124 136 150 163 172 177 177 174 170 165 160 157 154 151 146 138 128 117 
115 111 110 112 119 128 140 151 162 170 174 173 168 157 141 121 101 86 77 76 84 103 129 156 178 191 195 191 179 160 137 115 101 96 101 113 129 142 151 153 149 142 134 128 127 130 136 143 147 146 141 132 121 111 104 101 104 112 125 139 154 166 174 179 179 175 167 156 146 138 134 136 141 148 154 156 154 147 137 128 122 121 126 136 147 157 163 164 160 154 146 140 135 132 132 133 133 131 127 121 
128 127 127 129 132 138 144 152 160 166 172 174 173 167 155 138 118 100 87 81 85 99 121 147 170 185 191 190 180 163 140 118 102 96 98 108 121 133 141 144 141 136 130 126 126 129 135 141 145 144 138 128 116 104 95 91 91 97 107 120 134 148 158 165 167 164 158 149 140 134 132 135 142 149 156 158 156 150 141 131 124 122 125 131 138 144 145 142 136 127 118 111 107 107 110 115 122 127 129 130 
144 144 144 143 142 142 143 145 149 155 162 168 172 172 166 153 136 117 99 89 87 95 112 135 157 173 182 183 175 160 139 119 103 95 96 102 113 123 130 132 130 126 122 120 121 126 132 139 142 142 136 126 114 102 92 86 84 86 92 101 113 125 136 143 147 147 143 136 130 127 127 132 140 148 155 159 157 152 143 134 126 122 121 123 125 126 123 118 109 100 92 86 84 87 94 104 116 127 136 141 
158 159 158 153 147 140 134 131 132 136 145 156 165 172 172 165 152 133 113 97 89 91 101 119 139 157 167 170 165 152 135 116 102 95 95 99 107 114 119 121 119 115 113 112 115 120 127 134 138 139 135 127 117 106 96 88 83 82 84 88 95 104 112 119 124 125 124 121 119 118 121 127 136 145 153 157 157 152 145 136 127 121 117 114 112 108 103 95 87 79 73 70 71 77 87 101 117 133 145 154 
169 170 166 159 147 134 122 113 110 113 123 137 153 166 173 172 163 146 125 105 91 87 92 104 120 137 148 153 151 141 127 113 102 96 96 99 105 110 112 112 110 107 105 105 108 114 121 129 134 136 135 130 123 114 105 98 91 86 84 83 85 89 94 99 104 107 108 109 109 110 114 121 130 139 147 152 153 151 145 138 130 122 115 109 102 95 87 80 72 67 64 63 67 75 88 105 124 142 156 165 
176 175 170 159 144 126 108 95 89 91 100 117 136 155 168 173 168 154 133 111 94 85 84 91 104 117 129 135 135 129 120 110 103 100 100 103 107 110 111 109 105 102 99 100 103 108 115 123 129 133 135 134 131 126 120 114 106 99 92 87 84 83 85 88 92 95 99 101 103 106 109 115 122 130 138 144 147 148 145 141 134 127 118 109 99 89 80 72 66 62 61 64 70 81 96 115 134 151 164 173 
178 176 169 157 139 117 97 82 74 74 82 98 119 142 160 169 169 158 139 117 98 86 81 84 92 103 113 120 122 119 114 109 106 105 107 111 114 115 114 111 106 101 98 98 100 104 111 118 124 130 135 138 140 140 138 133 127 118 108 99 91 86 85 86 89 93 97 101 103 105 107 109 114 119 126 133 138 143 145 144 141 135 127 116 103 91 80 72 66 64 66 71 79 92 108 127 144 159 169 175 
173 171 165 152 134 112 91 75 66 64 70 84 104 128 150 163 166 159 143 123 103 90 83 83 88 96 104 110 114 114 113 111 112 114 118 122 124 125 122 117 111 105 101 99 100 104 109 115 122 129 136 143 148 152 154 152 147 139 128 116 106 98 94 94 96 100 105 108 109 108 106 105 105 107 112 119 127 136 144 149 150 147 140 129 115 100 88 78 73 72 76 83 93 107 122 137 150 161 168 172 
163 162 157 147 131 111 91 75 65 61 65 76 94 117 140 156 162 158 146 129 111 98 90 88 91 97 103 108 112 114 115 117 120 124 129 134 136 136 132 126 119 112 107 104 104 107 111 116 122 130 138 146 154 160 164 165 163 156 146 134 123 115 110 109 112 116 119 121 119 114 108 101 97 95 98 105 116 129 142 153 159 160 155 145 132 116 102 92 87 86 91 99 110 122 134 144 151 156 159 161 
146 148 148 142 131 115 97 81 70 65 66 74 90 112 134 151 159 159 150 137 122 109 101 98 99 103 108 112 115 118 121 124 129 134 140 144 146 145 141 134 126 119 114 111 111 113 116 121 126 133 140 148 156 163 168 170 169 165 157 148 139 132 129 129 132 136 138 138 132 123 111 99 90 85 86 92 104 121 140 156 167 172 170 162 150 135 121 111 105 105 110 118 128 136 141 144 144 144 143 144 
126 132 137 138 134 123 108 93 81 74 73 79 93 112 133 149 159 161 155 145 133 122 115 111 110 112 116 119 122 125 128 132 138 144 149 153 154 151 146 139 131 125 120 118 118 121 124 128 133 138 143 149 155 160 164 166 166 164 159 154 149 146 146 148 152 156 157 154 146 132 114 97 84 77 76 81 94 113 136 157 173 180 181 176 166 153 140 130 125 126 130 136 142 145 144 139 132 126 122 122 
106 116 127 135 138 133 122 109 96 87 84 89 101 118 136 152 161 164 161 154 144 134 127 122 120 121 122 125 128 131 135 140 145 150 155 157 156 153 147 139 132 126 123 122 125 129 134 138 142 145 147 149 150 151 152 153 153 152 150 150 150 153 157 162 168 172 172 168 158 140 118 97 81 71 68 73 86 106 131 156 174 184 187 184 177 166 155 147 142 143 146 151 152 150 142 130 117 106 100 100 
90 103 120 134 143 144 137 125 113 103 99 102 112 127 143 157 166 169 166 160 151 142 134 128 125 124 125 127 131 135 140 145 151 155 157 158 155 150 142 134 127 122 121 123 129 135 142 148 151 152 151 148 144 139 135 132 131 131 133 137 143 152 161 170 178 182 182 178 166 147 122 98 79 67 64 67 79 99 125 151 171 183 188 186 180 171 162 155 153 154 157 159 158 151 137 120 103 89 82 83 
81 96 116 134 147 152 148 139 127 117 112 115 124 137 151 163 170 172 170 163 154 144 134 126 122 120 121 124 129 135 142 148 154 157 158 156 151 143 133 124 117 114 115 120 128 138 148 155 159 159 155 147 137 126 116 109 106 106 110 118 130 144 159 172 181 187 188 183 171 151 126 100 79 67 62 64 74 93 117 143 163 176 181 180 175 167 160 156 155 158 162 163 160 150 133 113 93 78 71 72 
78 95 116 136 151 157 154 146 135 125 121 123 131 144 157 167 173 174 171 163 151 139 127 118 112 110 112 117 124 132 141 149 155 157 157 152 144 134 123 113 106 104 106 113 124 138 150 160 165 164 158 147 131 115 100 90 85 85 90 100 115 133 152 169 180 187 188 184 172 154 129 103 83 69 64 65 73 88 109 132 151 163 168 166 161 154 149 147 150 156 161 164 160 150 131 109 89 74 68 69 
82 99 120 139 152 157 154 145 134 125 121 124 133 146 159 169 174 174 168 158 144 129 115 105 99 97 100 106 116 127 139 148 154 157 154 148 138 126 114 103 97 94 97 105 118 133 148 160 166 167 160 147 129 109 91 79 72 71 76 86 102 121 142 161 174 182 184 180 171 154 132 109 90 76 70 70 75 87 103 120 135 144 147 144 139 134 131 133 139 148 157 162 160 150 133 112 92 77 71 73 
93 109 127 143 153 155 149 138 126 117 114 118 128 142 155 166 171 171 164 152 135 118 102 91 85 84 88 96 108 122 135 146 153 155 152 144 133 121 108 98 91 89 91 99 111 126 142 156 164 166 161 148 129 108 89 76 68 66 69 78 92 111 131 149 163 171 175 173 166 153 136 118 101 89 82 80 83 90 100 110 119 123 123 119 114 110 110 115 125 138 151 159 160 153 138 119 101 87 81 83 
110 124 138 150 154 151 141 127 113 104 101 106 117 132 148 160 166 166 158 145 127 108 92 81 76 76 80 90 103 118 132 143 150 152 148 141 130 118 107 98 92 89 90 96 105 119 133 147 157 161 158 148 132 113 95 81 72 69 71 78 89 104 120 135 147 155 160 160 157 150 140 129 117 108 101 98 97 99 102 104 105 104 100 95 91 89 91 98 112 128 144 156 160 157 145 130 114 103 98 101 
