P2
100 100
255
131 155 179 194 196 185 158 121 86 62 52 56 73 103 141 173 191 194 182 155 117 79 52 39 34 35 43 56 77 104 132 153 164 164 157 143 125 107 92 82 76 73 73 76 84 98 115 134 149 158 159 152 136 115 94 76 63 55 49 47 50 60 75 95 117 137 154 167 176 178 174 164 152 139 128 119 109 97 84 72 61 52 46 41 38 38 43 56 82 117 153 179 189 186 169 145 121 105 102 111 
168 185 198 204 198 178 143 102 67 47 40 43 58 87 125 161 184 190 180 155 118 82 57 44 40 43 51 64 82 103 123 136 141 139 132 123 115 109 106 106 105 103 98 93 90 90 95 104 116 128 138 144 144 138 127 114 100 87 74 63 56 54 59 68 80 96 113 133 152 169 179 183 182 178 172 163 150 131 107 82 60 46 36 31 28 29 35 48 72 106 143 171 185 186 176 160 145 137 140 151 
193 205 211 210 199 172 131 87 55 38 32 36 50 77 116 155 181 190 183 162 130 98 74 61 58 62 71 84 98 110 118 120 117 111 105 102 104 112 124 135 141 141 133 120 103 89 80 79 85 97 114 133 149 159 162 157 147 131 111 90 70 57 51 50 55 64 78 100 127 156 179 194 201 204 202 196 184 163 133 98 67 47 35 29 27 29 36 50 73 105 139 164 176 178 172 163 158 159 167 180 
207 215 218 214 198 167 122 77 48 33 29 34 48 76 116 155 182 193 190 174 150 124 103 92 91 97 106 116 123 124 118 107 94 84 79 82 93 114 139 161 174 177 169 150 123 94 73 62 62 71 91 119 150 174 188 191 186 173 151 121 90 65 49 42 40 44 55 75 106 143 176 199 211 217 218 215 205 186 155 116 79 54 40 34 34 39 48 64 86 113 138 154 160 159 154 150 152 162 177 193 
210 219 221 215 197 162 116 72 45 33 30 37 54 83 123 161 186 197 196 186 170 152 139 133 134 140 148 154 152 141 121 97 77 64 59 64 82 111 148 179 197 202 195 176 143 104 72 53 47 53 72 105 145 180 202 211 211 202 182 149 110 75 51 39 34 35 44 62 94 134 173 199 215 222 224 223 215 198 170 132 94 67 52 48 51 59 73 91 110 129 140 143 138 130 123 122 131 149 172 194 
206 217 220 213 194 158 111 70 46 35 36 45 66 98 137 170 191 200 199 192 183 173 168 167 172 179 184 185 177 157 126 92 65 50 45 51 70 105 149 186 208 216 212 194 161 117 75 49 39 42 59 93 139 181 208 221 223 217 199 167 124 83 55 39 33 34 41 59 90 131 170 197 213 221 223 222 215 201 176 143 109 85 74 74 81 95 112 129 142 148 145 131 114 98 88 88 100 124 155 185 
197 213 217 210 189 153 108 70 49 42 46 60 85 118 152 178 192 196 193 188 182 179 181 187 194 202 206 204 193 168 130 89 57 40 35 41 60 96 144 187 212 222 220 206 175 129 83 51 36 36 51 84 131 177 208 223 226 221 205 174 130 88 58 43 37 39 48 66 96 134 169 193 207 213 214 212 205 193 173 147 123 108 104 111 124 140 156 168 173 167 149 121 92 71 60 59 71 95 131 169 
185 205 211 203 181 145 103 71 54 52 62 82 110 141 166 182 186 183 176 169 165 168 176 189 201 211 215 213 201 175 134 88 54 36 30 34 52 87 137 183 212 224 225 213 186 142 93 56 38 35 48 78 125 173 204 220 224 218 200 169 127 88 62 50 47 52 64 84 111 142 168 185 194 196 195 191 183 173 158 143 133 130 137 150 166 181 192 198 195 181 151 112 77 53 42 40 50 72 108 151 
173 196 202 193 170 134 97 72 62 67 84 109 137 161 175 178 171 158 144 134 132 139 155 176 195 209 217 216 205 180 138 91 55 35 28 31 46 79 128 176 208 223 226 217 195 155 106 66 44 39 50 78 123 168 199 213 215 206 186 154 117 85 67 61 65 76 93 113 135 154 168 173 172 168 161 155 147 140 133 131 134 146 162 180 195 207 214 215 208 188 152 106 67 43 32 30 38 57 91 135 
164 187 192 180 154 121 90 74 73 86 110 138 161 175 176 165 145 123 104 93 92 102 122 151 179 200 212 215 206 184 145 99 61 39 30 32 45 75 122 170 203 220 225 219 201 167 122 81 56 49 58 85 125 165 191 202 200 186 162 131 101 80 73 79 93 112 131 148 161 167 166 157 144 130 118 110 105 102 104 113 129 152 176 197 211 220 225 223 214 191 151 102 61 38 27 26 33 50 82 125 
159 179 180 165 137 106 84 77 85 108 137 163 180 183 171 146 116 88 68 59 58 68 89 120 155 184 203 210 206 188 156 113 76 51 39 39 50 77 118 163 196 214 221 218 204 177 139 101 76 67 75 98 132 163 182 186 177 157 130 103 83 76 82 101 126 150 169 180 184 178 163 140 115 94 80 72 69 72 79 95 120 151 181 203 217 225 228 226 215 190 148 97 58 35 26 26 33 50 81 122 
159 174 169 149 119 93 79 81 99 129 160 183 191 185 162 126 89 61 44 37 37 45 63 92 128 164 189 202 203 192 168 134 100 74 60 56 64 85 119 157 186 204 212 211 202 182 154 123 101 93 100 118 142 161 169 164 147 122 97 77 69 73 92 123 156 182 197 203 199 186 161 127 94 70 56 50 50 54 64 82 111 145 177 202 217 225 228 225 213 186 143 93 55 35 27 28 37 56 88 127 
164 171 160 134 104 82 75 86 113 148 178 196 198 184 152 109 70 45 32 27 28 34 48 72 105 141 171 190 197 194 180 158 132 109 94 87 89 101 123 148 170 186 194 195 191 179 162 142 128 123 128 140 153 160 156 140 116 91 70 59 58 72 100 139 176 201 213 215 208 191 160 121 85 60 47 43 44 49 59 75 101 134 167 192 209 219 222 219 207 179 135 88 54 36 30 33 45 69 103 139 
172 171 151 121 92 74 74 92 125 163 191 204 202 182 144 98 60 37 26 23 25 31 43 62 89 121 151 173 185 190 187 178 165 150 137 127 122 122 127 136 146 156 162 167 167 165 160 153 149 149 153 159 162 157 143 120 93 69 54 48 53 71 105 148 185 209 219 220 211 193 162 123 87 63 52 48 50 54 61 74 93 120 149 174 193 206 211 209 196 168 126 83 53 38 35 41 58 87 122 154 
179 170 144 110 82 68 73 96 134 173 199 209 204 181 141 93 56 35 27 26 29 36 46 61 80 104 128 149 166 178 186 189 188 183 175 166 154 141 128 120 116 117 120 126 133 140 147 154 160 165 169 170 166 153 132 105 79 59 48 45 52 72 106 148 185 207 216 217 208 191 164 130 99 79 70 67 68 70 72 77 87 103 124 146 166 182 191 191 180 154 116 79 53 42 42 53 76 109 144 170 
183 167 135 99 73 63 71 98 139 178 203 212 206 182 142 95 59 40 34 35 41 49 59 69 80 92 106 122 139 157 174 189 198 202 200 192 176 153 126 102 86 80 80 85 96 110 128 146 161 171 175 173 164 147 125 99 77 60 51 50 57 75 104 141 173 194 204 204 198 184 164 140 119 106 101 100 99 96 91 85 83 86 97 112 131 149 162 167 160 139 108 78 58 50 54 70 97 132 164 182 
184 161 125 89 65 58 68 96 138 177 203 212 206 184 147 103 70 53 49 54 64 75 84 88 88 87 88 94 107 127 152 178 197 209 211 205 188 157 120 86 64 53 51 56 67 85 109 135 155 168 171 167 156 139 120 101 84 73 66 65 69 81 101 127 151 168 177 179 175 168 158 148 141 139 139 140 137 128 113 95 80 73 73 81 95 112 130 141 142 130 108 85 70 65 72 92 122 154 179 190 
182 154 115 80 58 52 62 89 129 169 196 207 203 185 154 117 89 76 77 87 101 114 120 116 103 87 75 71 77 95 124 158 188 207 214 209 190 155 111 72 49 38 35 40 51 71 98 126 148 160 161 154 142 129 117 108 102 98 94 92 92 94 101 111 122 131 137 140 141 143 146 152 160 167 174 176 171 157 132 103 78 63 57 59 68 84 104 123 132 130 118 102 91 89 99 119 147 173 190 193 
179 148 108 73 52 47 55 78 113 151 180 194 194 182 159 134 115 109 115 130 146 158 158 145 120 90 67 55 55 68 95 134 172 199 210 207 186 148 100 62 40 30 29 34 47 68 96 125 144 151 147 136 125 117 116 120 126 131 133 130 124 114 105 98 94 93 93 96 102 113 130 151 171 187 196 199 193 174 143 107 75 56 47 46 54 70 93 117 135 141 137 128 121 121 130 148 169 187 196 195 
178 145 105 70 49 43 48 65 92 125 154 171 177 172 160 147 141 143 155 171 185 192 187 168 133 93 62 44 40 49 72 111 155 188 204 201 179 138 91 55 35 28 29 37 53 78 107 133 146 145 133 117 106 104 113 130 150 164 171 169 158 139 114 91 73 64 60 62 70 87 114 147 177 198 208 210 202 180 144 103 70 50 41 41 50 67 94 124 148 160 162 158 153 153 159 171 185 196 201 196 
180 149 108 73 50 41 42 52 71 96 120 139 150 154 154 155 160 170 184 198 208 211 203 180 140 93 58 38 32 38 58 94 140 178 196 194 171 129 83 51 34 30 35 48 71 101 130 150 155 144 122 100 88 90 107 136 166 188 198 197 186 162 127 91 63 47 41 42 51 71 104 145 180 203 213 213 201 175 136 94 63 45 39 41 52 75 107 140 166 180 184 181 178 176 179 187 195 202 204 198 
186 158 121 84 57 44 40 44 54 70 87 104 119 131 143 156 170 185 200 212 219 219 209 183 140 91 54 35 28 33 52 87 132 171 191 188 164 122 79 50 37 37 48 70 100 133 160 172 168 147 115 87 73 76 98 134 172 200 213 215 204 180 141 96 61 41 32 33 42 64 101 146 183 205 214 210 194 163 121 82 55 42 39 45 61 89 125 159 183 195 197 194 189 186 187 192 199 204 206 201 
194 173 140 103 72 52 42 40 44 52 63 77 92 110 131 153 174 192 207 217 222 220 207 179 135 87 52 34 29 35 54 89 134 171 189 185 160 119 79 53 45 50 70 101 137 169 188 193 181 152 112 78 61 64 86 126 170 203 219 223 215 193 153 104 63 40 30 31 41 65 105 151 187 206 211 203 181 145 103 68 48 39 41 52 73 107 144 175 194 201 200 194 187 182 182 186 194 202 206 204 
202 188 163 129 95 68 51 43 42 45 51 62 77 98 123 150 175 194 207 216 218 214 199 169 126 82 52 37 35 44 67 103 145 178 191 185 159 119 82 60 57 70 99 137 173 198 210 208 192 157 111 72 53 53 73 113 160 198 219 226 220 201 164 113 69 43 32 33 45 72 113 158 191 206 206 192 163 123 85 57 43 40 46 62 89 125 160 184 195 196 190 179 168 161 161 168 179 192 202 206 
207 201 184 157 124 92 68 53 47 47 52 61 77 99 125 152 175 192 203 208 208 201 184 154 114 78 55 46 49 64 91 128 164 189 196 186 159 120 86 69 72 94 130 169 200 217 223 218 199 161 111 68 46 44 60 96 145 189 215 225 222 206 172 123 77 48 37 38 53 83 125 166 193 203 197 176 142 103 70 50 42 44 56 77 108 142 169 184 187 179 165 148 133 124 125 135 153 174 192 204 
206 208 200 181 153 120 92 72 62 60 65 75 92 113 136 158 175 186 192 193 189 179 160 132 101 77 64 63 74 95 125 158 185 200 201 187 158 120 89 77 86 115 155 192 216 228 231 224 203 164 111 66 42 36 48 79 126 174 206 221 221 208 178 132 86 56 44 47 64 95 136 173 193 197 185 158 121 86 60 48 46 55 72 98 128 156 173 176 167 149 127 106 91 83 84 96 117 145 173 195 
199 208 207 196 175 147 120 99 87 86 92 104 120 138 154 167 175 177 174 168 158 145 127 106 88 78 78 89 108 135 162 187 203 209 204 185 153 116 88 80 94 128 169 203 224 233 234 226 205 165 111 64 39 31 39 63 106 155 194 214 218 208 181 139 94 64 52 56 75 107 145 175 189 186 168 138 104 75 58 53 59 74 97 124 150 167 171 162 140 113 88 68 56 50 52 62 82 112 147 178 
183 200 206 201 187 166 144 127 119 120 129 141 155 166 174 176 172 162 148 133 119 105 92 82 77 81 96 119 146 171 192 207 214 213 202 178 142 105 81 76 92 128 170 204 224 233 234 226 206 166 111 64 37 28 32 51 87 136 179 204 212 205 181 143 102 73 62 66 86 116 149 171 179 171 150 121 92 73 65 69 82 103 129 153 170 176 168 146 114 83 58 43 34 31 32 40 55 81 117 154 
160 183 194 194 185 171 156 147 146 152 163 175 185 190 190 182 166 143 119 97 81 71 64 63 69 86 114 146 176 198 212 219 220 213 195 164 124 89 68 66 82 116 159 195 218 229 231 224 204 166 112 65 38 27 29 43 74 119 164 193 204 199 178 144 107 80 70 75 93 120 146 162 164 153 132 108 89 80 83 95 116 139 162 179 187 183 166 134 96 63 41 29 23 21 22 28 39 58 89 126 
133 158 172 174 169 160 153 152 159 172 186 197 204 205 200 185 158 125 93 69 55 47 46 50 64 91 128 166 195 213 222 224 219 206 181 144 103 71 54 53 66 96 136 175 203 219 224 219 201 165 114 69 41 29 29 41 67 108 152 183 196 192 172 141 108 85 76 81 97 118 138 148 146 135 118 103 96 98 110 130 152 173 189 199 200 190 167 130 88 56 35 25 20 18 19 22 30 44 68 99 
108 130 142 144 140 135 134 141 157 176 194 207 213 213 204 183 149 109 74 51 39 34 35 43 62 94 138 178 205 220 225 223 214 194 161 120 81 55 42 41 51 73 106 145 178 200 210 209 194 163 118 76 49 36 36 46 70 107 147 176 187 183 164 135 105 86 79 83 96 113 126 132 130 121 112 108 111 124 143 164 183 198 207 211 208 195 171 134 93 60 39 28 23 21 21 23 29 40 57 81 
93 107 113 112 107 103 106 118 140 166 189 205 213 213 202 178 140 97 62 41 31 28 30 40 61 98 144 184 210 221 224 218 203 176 137 95 62 42 33 32 38 53 77 109 143 170 187 191 182 158 123 88 64 52 52 63 85 118 151 173 181 173 153 125 100 83 78 83 93 106 116 120 118 115 115 120 133 151 171 189 202 211 215 215 211 199 178 145 108 76 55 42 35 32 31 33 37 45 58 75 
94 99 96 89 80 76 78 91 114 143 172 193 205 205 195 169 131 89 57 38 29 27 30 41 64 102 149 187 210 219 218 208 187 153 111 74 49 35 28 28 31 40 56 78 106 134 155 166 165 152 130 106 88 79 81 92 113 139 162 176 176 164 141 114 92 79 76 81 90 100 109 113 115 118 125 138 155 174 190 203 211 214 215 213 207 198 183 160 132 106 85 71 62 57 55 55 58 65 74 85 
112 107 95 80 67 59 59 68 87 114 144 170 185 189 180 157 123 86 58 41 33 31 36 48 73 111 154 188 207 213 208 192 164 126 87 58 40 31 28 28 30 35 45 59 78 100 120 136 144 143 136 127 119 117 122 133 149 165 177 181 174 156 130 103 84 74 73 79 88 98 107 114 120 128 140 156 173 188 199 206 208 207 204 199 195 190 182 172 158 142 128 116 107 101 97 96 98 102 107 111 
141 128 108 86 67 54 50 53 65 85 111 136 154 163 159 143 117 89 66 52 45 45 50 64 90 125 162 188 201 202 191 168 135 99 68 47 36 32 32 33 36 40 45 53 64 78 93 109 122 132 140 145 150 155 163 171 181 188 191 187 172 149 120 94 77 71 72 79 90 101 111 120 130 141 154 169 183 192 197 197 193 186 178 171 168 168 171 175 176 175 171 165 160 154 150 148 147 148 149 147 
170 155 132 105 80 61 51 48 52 64 80 100 117 130 134 129 116 100 86 76 71 71 78 93 116 144 170 187 192 185 167 138 106 76 54 42 38 39 43 48 53 58 61 63 67 72 79 90 103 120 137 154 169 181 190 197 202 203 200 189 170 142 112 88 74 70 74 83 95 108 119 130 140 151 163 174 182 185 183 174 162 148 136 128 127 134 148 167 183 194 199 200 199 196 193 190 188 186 184 179 
190 177 157 131 104 79 62 52 49 51 59 71 85 99 111 119 122 121 117 114 112 113 120 131 147 164 178 182 177 161 136 107 79 59 47 43 46 55 66 78 87 92 93 90 85 80 78 80 90 106 128 153 175 192 203 209 211 209 201 187 164 134 106 85 75 74 81 92 105 118 129 139 147 156 163 169 170 165 155 139 120 102 89 81 83 95 118 149 179 200 213 218 219 218 215 212 209 206 202 198 
198 191 178 159 134 108 84 66 54 49 49 54 63 77 95 115 133 146 153 156 158 159 163 168 175 180 180 173 157 133 105 79 60 48 45 50 63 81 102 121 135 141 139 131 117 101 86 79 80 92 114 141 168 189 202 208 209 205 195 177 153 126 102 86 81 85 94 107 120 130 138 143 148 151 153 152 147 135 118 99 79 63 52 48 50 63 88 126 167 198 216 224 226 225 221 217 212 208 205 202 
192 193 190 180 164 141 115 90 69 55 47 46 52 66 88 117 147 169 183 190 193 193 194 193 192 187 176 158 133 105 80 60 48 45 50 64 87 117 145 167 180 186 183 172 153 127 101 82 74 80 97 122 150 173 189 196 196 190 178 160 137 116 100 93 95 103 115 128 137 143 144 143 140 137 133 127 117 103 85 67 52 40 32 29 32 43 67 105 151 189 211 221 223 221 214 207 199 193 190 190 
173 184 192 194 187 172 150 122 93 69 54 47 49 62 87 122 159 186 202 210 212 212 209 205 197 185 166 140 111 83 62 49 44 47 60 84 117 152 181 201 211 214 211 200 179 149 115 87 72 70 81 101 126 148 163 170 169 162 149 133 117 105 101 105 115 128 141 151 156 154 147 137 126 117 109 101 90 77 63 49 38 29 24 22 24 34 54 90 135 175 200 211 211 204 193 179 167 159 158 163 
143 166 187 199 202 195 180 155 123 91 67 54 53 64 90 128 167 195 212 219 220 218 213 204 192 174 150 121 93 70 54 47 47 56 76 108 146 180 205 219 226 227 223 213 193 163 125 93 73 66 72 85 103 120 131 135 132 124 113 102 96 96 105 120 139 155 167 173 171 162 146 127 109 96 87 79 72 63 53 43 35 28 24 22 25 33 51 81 122 160 183 191 186 173 155 136 120 111 112 123 
109 143 175 198 209 209 201 182 153 118 87 67 61 70 95 132 171 198 213 219 219 214 206 194 177 156 131 105 83 66 56 53 58 73 99 134 170 199 217 226 230 230 226 215 196 166 130 98 78 70 72 81 91 100 103 101 94 87 79 76 78 90 111 137 161 179 188 190 182 166 142 115 93 79 71 67 64 60 55 49 42 36 32 31 33 40 56 82 115 145 161 162 150 130 108 88 74 67 70 84 
83 122 163 194 211 216 213 200 177 144 109 83 72 78 99 133 168 193 207 211 208 200 187 172 153 133 114 96 82 73 69 71 81 99 126 159 188 208 221 227 228 226 219 207 187 160 129 103 88 84 86 92 95 94 88 78 68 60 56 57 66 87 118 152 180 197 203 201 190 167 136 104 81 68 63 64 68 71 71 68 63 57 53 50 52 59 73 94 116 133 138 129 111 89 69 53 43 40 43 57 
68 106 151 188 210 219 219 211 193 164 130 101 85 85 101 128 157 179 190 191 185 173 157 140 124 111 102 96 93 93 95 101 113 131 154 178 198 211 219 221 219 213 203 188 167 144 123 110 105 108 114 118 116 105 89 71 56 46 43 46 60 86 124 164 193 208 213 208 193 166 130 95 72 62 62 70 82 94 102 103 101 95 90 87 88 93 104 116 126 128 120 102 80 60 45 34 29 27 31 43 
62 98 143 181 205 217 219 214 200 177 145 115 95 89 98 116 138 154 161 159 149 134 119 106 98 96 100 107 116 124 131 139 149 161 176 190 201 208 210 207 199 188 173 155 136 122 115 117 127 140 150 154 147 130 103 75 53 40 36 41 56 86 129 172 201 215 218 211 194 163 124 88 67 61 67 84 106 127 141 148 148 144 139 136 135 137 141 144 142 130 110 85 63 45 34 27 24 24 29 40 
63 95 135 172 197 210 214 210 199 180 152 122 100 90 91 100 112 121 123 118 107 94 84 79 81 91 107 126 144 157 165 171 177 182 188 193 196 196 191 182 167 150 131 113 101 97 105 124 148 170 184 188 180 158 124 86 57 40 34 38 54 86 132 176 205 218 220 211 191 158 117 83 65 64 77 102 133 159 177 186 188 185 182 178 176 175 174 169 157 136 107 79 56 41 33 29 27 29 33 43 
71 96 128 159 182 195 200 198 189 173 149 122 100 87 83 84 88 90 88 82 73 66 62 64 76 96 123 149 170 183 189 192 191 190 188 185 181 174 162 146 126 106 88 75 71 77 98 130 166 192 207 211 204 183 147 102 64 42 33 36 53 86 133 178 206 218 219 209 187 151 111 80 66 70 89 121 156 183 199 207 209 208 205 202 199 196 192 183 167 141 109 80 58 46 39 38 38 41 46 55 
84 99 119 140 157 169 175 175 169 157 138 116 97 83 76 72 70 68 64 59 54 51 53 63 82 111 143 170 189 198 200 197 191 183 175 166 155 143 127 108 88 70 57 50 51 64 93 135 177 206 221 225 219 201 165 116 72 45 34 36 52 86 133 177 205 216 215 203 178 142 104 78 69 78 103 138 171 195 208 214 215 213 210 207 204 201 196 186 169 144 114 87 69 59 56 57 60 64 69 75 
103 104 109 116 125 133 138 141 140 134 123 109 95 82 73 67 61 57 52 48 46 48 56 72 98 131 162 186 199 202 199 190 177 163 149 136 124 110 95 79 63 50 41 37 41 57 90 137 182 213 228 232 227 210 177 128 80 49 36 38 54 88 134 176 202 212 208 193 166 130 97 77 75 89 117 151 180 198 207 208 206 203 199 196 194 192 188 180 166 145 122 101 88 83 85 90 96 101 104 104 
123 109 98 93 92 95 100 106 111 114 112 106 97 87 78 69 61 55 51 48 49 55 68 90 120 152 178 194 200 196 185 168 149 130 115 103 94 86 77 66 54 44 36 34 38 54 86 135 182 214 229 234 230 214 183 134 86 54 40 43 60 93 137 175 197 204 197 178 150 117 91 80 84 102 131 160 182 193 195 191 184 177 172 169 169 169 169 166 158 146 132 120 115 117 124 133 141 145 143 136 
139 112 89 74 67 67 72 81 92 102 110 112 109 101 91 81 71 64 59 58 61 71 89 114 144 170 188 196 193 180 159 135 112 94 83 77 76 76 74 68 59 49 40 36 39 52 82 128 176 209 226 232 228 213 182 136 90 59 47 51 71 104 143 175 191 192 180 158 130 103 87 85 97 119 145 167 179 180 173 161 148 137 131 130 133 139 145 149 149 146 142 141 144 151 162 172 179 181 176 162 
147 112 81 62 53 52 58 70 86 105 120 129 130 125 116 104 92 83 77 77 82 95 116 141 165 183 192 190 178 155 126 99 78 65 60 63 70 80 86 87 79 67 54 44 43 52 76 116 162 197 216 223 219 204 174 132 91 66 59 67 89 121 154 176 183 176 158 133 108 91 87 95 114 138 160 172 173 163 145 124 106 94 89 91 98 110 123 134 143 148 153 158 167 177 188 197 203 203 196 177 
149 109 75 55 46 47 56 73 96 120 141 153 157 154 146 134 121 110 104 103 110 123 143 163 180 190 191 180 158 127 95 70 54 47 49 59 76 97 113 119 113 97 77 60 50 52 68 100 139 174 196 205 201 186 158 122 92 75 76 90 115 143 166 177 173 157 133 108 90 83 90 109 134 158 174 177 167 146 118 91 73 63 61 66 77 92 110 127 140 151 160 170 180 192 202 210 214 213 204 183 
146 105 71 52 46 50 64 87 116 144 166 178 182 180 173 162 150 139 131 130 135 147 163 177 188 191 185 167 137 102 71 51 40 39 46 63 91 122 147 158 154 136 109 82 63 55 62 82 111 142 164 173 170 155 132 108 91 87 98 119 145 167 178 177 162 137 108 86 75 79 96 124 154 176 186 182 164 133 99 71 55 48 49 57 70 88 108 126 141 153 163 173 185 196 206 213 217 215 205 182 
139 99 68 52 50 59 80 110 143 170 188 198 200 198 192 182 170 159 150 147 151 160 171 182 189 188 178 155 122 86 58 42 35 37 49 73 110 149 178 191 189 172 143 109 79 62 58 67 84 105 122 131 128 118 103 92 89 100 122 148 171 185 187 175 149 117 88 70 66 78 104 139 171 190 196 187 164 128 90 63 49 45 49 59 74 93 112 128 140 149 157 167 179 192 204 211 215 212 201 177 
130 92 66 54 56 72 100 135 168 191 205 210 210 207 199 189 176 163 153 148 150 158 168 178 184 183 172 149 116 81 56 41 36 40 55 85 128 170 198 211 210 197 171 135 98 72 59 59 66 77 87 91 89 83 78 78 89 112 142 171 190 197 190 169 135 99 71 58 60 78 111 151 183 200 203 192 166 128 90 64 52 50 56 69 85 102 117 128 133 137 142 151 165 181 196 206 210 207 194 168 
119 85 63 56 63 84 119 157 187 206 214 216 214 207 196 183 167 151 139 133 134 142 154 167 176 178 170 150 120 88 62 47 41 46 64 97 142 183 209 220 221 210 189 156 118 87 67 60 60 63 66 67 65 62 62 70 89 120 156 185 200 201 187 158 119 82 59 51 57 79 116 158 190 205 207 194 168 131 95 71 61 61 69 82 96 109 117 120 118 116 117 126 143 164 184 198 204 201 186 157 
107 76 59 56 67 93 132 171 198 213 218 217 211 199 183 164 143 125 112 106 108 118 133 151 167 175 173 159 134 104 77 59 51 55 73 106 149 188 211 222 223 215 198 170 136 105 83 72 67 66 64 60 56 53 55 66 90 126 163 190 201 197 177 142 101 68 50 45 54 79 118 160 191 205 205 192 167 133 102 81 73 75 84 95 104 110 109 104 96 90 90 99 118 145 171 189 197 193 175 145 
95 68 54 54 67 96 136 175 202 215 217 213 202 183 160 134 110 93 82 78 81 92 112 136 159 174 179 173 155 129 100 78 65 65 79 109 148 184 206 216 218 212 198 177 151 126 107 96 89 84 78 69 61 55 57 68 93 129 165 189 196 187 162 123 84 56 42 41 52 76 114 155 185 198 197 185 161 132 107 91 87 91 98 104 107 103 95 84 73 66 66 76 98 129 160 182 191 185 165 131 
83 59 48 49 63 91 132 172 199 211 212 204 186 160 129 100 78 64 57 56 61 74 97 127 156 177 188 187 176 154 126 98 80 74 82 106 138 170 192 203 205 201 191 177 161 145 135 128 124 117 107 93 78 68 65 75 98 131 163 183 187 173 143 104 69 47 38 39 50 73 108 145 172 183 181 168 147 125 108 100 100 105 110 110 104 93 79 66 55 50 52 64 89 123 157 180 188 179 155 119 
73 51 42 43 55 81 120 161 190 204 204 191 166 133 99 72 54 45 41 42 49 65 91 125 159 183 196 199 192 174 147 116 91 79 80 96 120 147 167 179 183 181 176 169 163 160 159 160 160 155 144 126 106 89 81 86 105 133 160 176 176 159 126 89 59 42 36 39 51 72 101 131 152 159 155 142 126 112 105 106 112 118 120 114 100 83 66 53 45 42 48 64 92 129 163 183 188 176 147 108 
65 45 36 37 47 70 105 146 178 194 193 176 146 108 75 52 40 34 33 37 46 64 94 132 167 191 204 207 201 185 158 125 96 79 75 82 98 118 136 147 152 153 153 154 159 167 176 183 187 186 176 158 135 113 100 101 115 138 159 171 168 149 117 83 58 44 41 45 57 75 97 117 129 130 123 112 102 98 101 111 123 131 130 119 99 78 60 48 42 44 55 76 109 146 176 192 192 175 142 100 
60 40 32 32 40 59 92 132 166 183 182 163 129 91 60 41 32 29 31 37 49 72 106 145 177 198 209 210 203 186 158 124 94 74 67 70 79 93 106 115 121 124 128 137 150 167 183 195 202 202 195 179 157 133 118 115 125 144 162 170 166 148 120 90 68 56 55 60 72 86 100 109 110 104 94 85 81 85 98 117 135 145 143 129 106 81 62 52 50 57 74 102 136 169 192 202 197 176 139 94 
56 37 29 29 36 53 83 122 157 176 175 155 120 82 54 37 30 29 32 41 59 87 124 161 188 204 210 208 198 177 147 113 85 68 61 62 69 78 88 95 99 103 110 122 141 162 182 197 205 206 200 186 165 142 127 125 135 152 167 175 172 158 135 110 92 83 83 89 100 109 114 111 101 86 74 66 67 78 99 125 148 160 159 144 121 96 77 68 70 83 106 137 168 192 207 211 202 177 136 90 
53 35 28 28 35 52 82 121 156 175 175 155 121 84 55 39 32 32 38 51 74 107 145 177 198 207 208 201 184 159 127 97 74 62 58 62 69 79 87 92 95 97 103 115 133 155 176 190 198 198 191 177 157 138 126 128 140 158 174 183 183 174 158 141 128 123 124 130 138 141 136 122 101 79 64 57 61 78 105 136 162 175 175 163 142 120 103 97 103 120 145 172 195 210 218 217 205 177 133 87 
52 36 30 32 41 60 91 129 162 180 180 163 131 94 64 46 39 40 49 68 96 132 166 190 203 206 201 186 163 133 103 79 64 59 62 71 83 95 104 108 109 108 110 118 131 148 164 175 180 178 168 153 135 120 115 123 141 163 181 192 194 190 182 173 166 164 166 171 174 172 161 138 109 81 63 57 63 84 115 149 175 189 190 180 164 147 134 132 141 158 178 198 212 221 223 219 204 174 129 84 
54 40 37 41 54 77 110 146 175 190 190 175 146 111 80 60 52 55 68 91 123 157 183 199 205 201 187 164 135 104 80 64 58 61 73 90 108 124 134 138 136 131 127 127 132 139 147 152 152 145 133 118 104 96 98 113 137 164 186 198 203 203 199 195 193 193 196 199 200 195 180 155 121 90 69 64 73 97 130 163 187 198 199 192 180 167 159 160 169 183 198 211 220 224 223 215 197 166 122 81 
58 50 51 60 78 104 137 167 189 200 199 187 164 132 102 81 73 78 94 121 151 178 196 204 202 190 167 137 105 78 61 54 57 69 90 116 141 159 168 170 165 157 148 139 134 130 128 125 118 109 96 84 75 73 81 100 130 161 186 200 207 208 207 205 205 207 210 212 212 206 193 168 135 103 83 78 90 115 147 176 194 202 201 194 184 174 168 170 179 191 202 211 217 218 214 203 183 151 113 79 
68 67 75 91 113 139 166 188 202 208 206 197 178 152 125 106 100 107 125 150 175 193 204 205 195 175 144 109 79 59 49 49 59 80 111 144 171 187 194 194 188 178 164 149 134 121 111 100 90 79 68 60 55 57 67 88 120 154 181 196 203 204 203 203 204 206 210 213 213 208 196 175 146 119 101 99 112 137 164 185 197 200 195 186 174 163 158 160 168 179 190 197 200 199 192 179 159 131 102 79 
83 93 109 130 152 173 190 203 210 212 209 200 185 165 144 129 125 134 152 173 191 203 207 202 185 157 120 84 59 46 42 47 63 92 131 167 192 206 210 208 200 188 171 151 131 112 97 83 71 61 52 46 44 47 58 78 109 142 168 183 189 189 187 185 186 190 195 199 201 198 189 173 152 132 122 124 137 157 177 189 194 190 179 164 148 136 130 131 138 148 158 164 166 164 156 143 125 106 90 82 
102 122 145 165 183 196 205 210 212 211 206 197 184 167 151 140 140 151 168 186 199 207 206 197 175 140 99 67 46 38 38 47 67 102 145 182 205 215 217 212 203 188 168 145 123 103 87 74 63 54 47 42 41 44 54 72 98 126 149 161 163 159 154 151 151 156 162 169 174 174 169 160 149 141 139 146 159 173 184 188 183 170 151 130 112 99 93 93 98 106 114 119 120 117 111 102 92 85 83 88 
121 148 171 189 201 207 210 210 207 203 195 184 171 156 143 137 141 153 171 188 200 206 204 191 165 126 86 56 39 33 35 46 70 108 153 189 210 218 217 210 197 179 156 132 110 94 82 72 63 56 49 45 44 46 55 70 90 111 126 132 128 120 111 105 105 109 116 124 132 136 138 138 138 142 150 162 174 183 185 179 164 142 117 94 77 66 61 61 65 70 75 78 79 77 74 70 68 71 80 97 
135 163 184 198 205 207 205 201 194 186 175 161 146 132 122 120 126 141 160 180 195 202 200 187 160 120 80 51 36 31 34 45 69 107 153 189 209 216 213 203 185 161 135 112 96 86 80 76 71 66 60 56 54 56 63 75 89 102 108 106 96 84 73 66 65 67 73 80 87 94 101 110 121 137 154 170 182 186 180 165 141 112 85 65 52 45 43 43 46 50 53 55 56 55 55 55 58 67 82 105 
140 165 183 192 195 194 189 181 171 160 146 131 116 103 95 94 101 117 139 162 181 193 195 185 160 122 83 54 38 31 33 43 66 102 147 184 204 210 206 191 167 138 111 91 82 79 82 85 87 85 81 76 74 74 80 89 98 104 102 92 77 62 51 44 41 42 45 50 56 63 72 85 104 128 153 173 184 183 171 147 116 86 62 47 39 36 36 38 42 46 50 52 53 54 54 57 62 72 89 113 
137 154 166 171 171 167 160 151 141 129 115 101 88 77 71 70 76 89 110 136 162 181 189 185 165 132 94 63 44 35 34 42 61 94 137 174 196 203 197 178 149 116 90 75 71 77 88 101 110 113 112 107 104 103 107 112 117 117 109 94 75 57 44 36 32 31 32 35 38 44 53 68 91 120 150 172 181 177 158 129 95 67 49 39 35 36 40 46 53 60 66 69 71 72 73 74 79 87 100 117 
125 132 136 136 133 129 123 118 111 103 94 83 71 62 55 53 56 65 82 108 138 166 183 187 176 150 115 81 56 42 37 41 56 84 124 162 187 195 188 167 135 101 76 64 66 78 98 119 136 145 146 143 139 137 138 141 143 140 129 111 89 69 53 42 35 32 30 31 32 37 45 59 83 115 147 169 177 168 145 112 80 57 44 39 41 47 57 69 82 93 102 107 110 110 109 108 108 109 113 118 
110 104 101 97 94 92 92 92 93 92 88 79 69 58 49 44 43 48 61 83 115 149 177 190 188 171 143 108 77 55 44 43 53 76 112 150 177 188 182 161 128 95 71 62 67 84 110 138 159 171 174 172 168 165 164 166 167 164 155 139 119 97 78 63 52 44 39 36 35 37 44 58 82 114 146 167 172 160 134 101 72 54 46 47 56 70 89 109 127 141 150 156 158 157 154 149 143 135 125 116 
94 80 72 67 66 68 74 83 92 99 99 93 80 65 52 43 38 39 47 65 95 134 170 192 199 192 172 141 107 77 57 48 53 70 101 139 169 183 181 162 132 99 76 68 74 94 123 153 176 188 191 189 184 180 178 179 181 182 178 169 155 137 118 100 84 71 60 52 47 46 52 65 89 119 148 166 168 154 127 95 70 57 55 64 81 106 132 155 173 185 192 195 196 194 190 182 171 155 134 112 
81 64 54 50 52 58 71 89 107 121 127 121 106 85 64 48 38 34 39 53 80 122 164 194 208 208 196 173 140 105 76 59 56 68 94 130 162 181 183 169 143 113 90 81 87 107 137 165 185 195 197 193 187 181 178 179 184 189 192 191 185 176 162 147 130 113 96 81 71 66 69 81 102 130 154 168 167 151 124 95 74 66 70 88 115 145 172 192 206 213 217 217 216 214 209 200 187 165 137 107 
74 57 47 45 49 61 81 107 133 153 161 157 140 114 85 60 43 35 35 46 70 111 158 194 213 218 213 198 171 135 99 73 63 68 89 123 156 179 186 178 158 132 110 100 104 123 149 173 189 196 195 188 177 167 162 164 172 183 193 200 203 202 196 187 175 159 141 122 106 96 95 105 123 145 163 172 169 152 127 100 83 79 90 114 146 176 199 214 222 225 226 225 222 219 213 204 190 166 135 102 
74 58 50 50 57 74 100 132 161 182 191 188 174 148 113 79 54 39 35 42 63 102 151 191 214 224 223 214 194 163 124 90 71 70 86 116 150 176 187 185 172 151 131 120 122 137 158 177 189 192 187 174 157 142 134 136 147 163 182 197 207 213 214 211 204 193 178 161 144 131 127 132 145 161 174 179 173 157 133 109 94 94 108 135 166 193 211 221 225 225 223 220 216 211 205 196 182 160 131 100 
84 70 64 65 75 94 123 155 183 201 209 209 199 177 143 104 70 48 39 41 59 94 142 185 213 226 229 223 209 183 145 106 80 72 82 107 140 168 184 187 179 162 145 134 135 146 162 177 185 184 173 154 131 111 100 100 112 132 157 180 199 211 217 219 216 210 199 186 171 159 153 155 164 175 183 185 179 164 142 120 106 106 119 144 172 194 208 214 215 213 208 202 195 189 183 176 165 149 128 104 
104 94 89 91 100 118 143 170 193 209 217 218 213 197 170 132 92 62 46 43 55 85 130 176 207 224 230 227 216 194 159 118 86 72 77 97 127 156 175 181 176 164 149 139 138 147 160 172 177 173 158 134 106 84 72 70 78 96 122 150 176 195 207 213 214 211 204 193 182 172 167 168 175 183 189 190 184 171 151 131 116 112 121 139 160 178 188 192 190 183 175 165 157 150 147 145 143 139 129 117 
134 128 124 123 128 138 154 173 191 205 214 219 218 209 190 157 117 80 56 47 53 76 116 161 197 218 227 227 218 198 164 122 88 70 70 85 110 137 157 166 164 154 142 133 132 139 151 162 166 160 143 117 89 67 54 51 55 67 87 113 140 163 181 191 196 196 192 184 175 168 166 169 176 184 190 192 188 177 160 140 122 113 113 122 134 145 151 151 145 136 125 114 107 103 105 112 122 132 137 137 
165 164 160 154 150 149 152 161 174 188 200 210 214 213 201 178 142 102 70 53 52 67 98 140 179 205 218 221 214 194 161 120 86 67 64 74 93 116 135 145 144 135 124 116 116 123 134 146 151 147 132 109 83 62 49 43 43 49 61 79 100 121 140 154 162 165 163 159 153 150 151 157 167 178 187 191 189 181 166 147 127 111 102 100 101 104 104 100 94 85 76 69 65 66 73 88 110 133 152 162 
191 191 186 176 162 147 137 135 142 155 172 189 202 208 205 191 162 123 86 61 52 58 80 115 154 184 202 208 202 183 151 112 80 63 59 65 80 98 113 121 120 112 103 96 96 103 114 127 136 137 127 109 88 69 55 46 43 43 47 56 68 82 96 108 117 122 123 122 121 121 126 136 149 164 176 184 187 183 172 155 134 112 94 82 74 70 66 61 55 49 44 41 41 45 57 79 110 143 169 184 
208 207 200 186 163 136 114 101 101 112 131 155 178 195 202 196 176 142 103 72 55 53 65 90 123 154 176 185 181 164 134 101 75 60 57 63 74 87 99 103 100 93 84 78 78 84 95 110 123 131 129 119 104 87 73 61 53 48 46 46 50 56 64 71 78 83 87 88 89 92 99 109 124 141 158 171 179 181 176 163 143 119 95 75 60 50 44 38 34 31 29 28 31 39 54 82 119 157 185 201 
217 215 206 187 157 121 89 71 65 71 88 114 145 174 192 196 185 158 120 84 60 51 54 69 92 119 142 154 153 139 116 91 72 62 61 67 77 88 95 96 90 81 72 67 66 71 82 98 115 130 137 137 129 117 104 89 76 65 56 50 47 47 49 53 58 62 65 68 70 72 77 85 98 114 133 151 166 176 178 172 157 134 107 81 60 45 36 30 26 24 24 26 31 42 62 94 134 172 198 211 
219 217 206 184 149 107 72 50 42 44 56 78 111 148 177 192 190 171 138 100 71 54 50 56 70 90 109 122 124 117 102 87 75 71 74 82 92 100 104 100 91 79 69 62 60 65 75 92 113 134 149 157 157 152 141 128 112 95 79 67 58 53 51 53 56 60 63 65 65 64 65 68 75 88 105 126 147 166 178 181 173 156 130 100 73 52 39 31 27 25 26 30 38 52 76 111 150 183 205 216 
215 212 201 178 140 97 62 41 31 30 38 55 84 124 162 185 192 181 155 120 86 63 53 52 59 71 86 98 104 103 98 92 88 90 97 107 116 123 122 114 101 85 72 64 61 65 76 95 118 143 162 175 180 180 175 165 150 132 113 96 83 74 71 71 74 77 79 78 74 68 62 59 60 66 79 99 126 153 175 188 188 178 158 130 99 73 53 41 35 34 36 41 52 69 95 128 161 187 204 212 
202 200 190 169 134 93 60 39 29 26 30 43 68 107 149 180 194 190 172 142 108 80 63 56 58 65 76 87 96 102 105 107 111 118 128 138 147 150 145 133 115 96 81 71 69 73 86 105 130 154 174 187 194 197 195 189 179 165 148 132 118 110 106 107 110 113 113 108 97 82 67 56 51 52 60 77 104 138 170 191 200 198 186 164 136 106 82 64 55 52 55 62 75 92 114 139 163 181 192 199 
176 177 173 157 130 96 66 44 32 28 29 40 63 100 144 179 196 199 187 165 134 103 80 68 64 67 76 88 101 112 122 131 140 149 159 168 173 173 165 150 129 107 91 82 81 88 103 123 146 167 183 194 199 201 200 197 190 181 171 161 153 149 149 151 155 158 156 147 129 104 78 58 46 43 47 60 86 123 162 192 207 211 206 193 172 146 121 102 90 86 88 95 106 118 131 142 152 160 166 172 
137 145 149 145 130 105 79 57 42 35 35 44 66 103 147 182 201 206 200 184 158 128 101 83 75 75 83 96 112 129 144 157 167 176 184 189 190 186 175 157 135 114 99 93 96 108 125 145 164 179 190 195 197 196 192 188 183 179 175 174 175 178 183 188 192 194 191 181 160 128 92 62 45 37 38 48 71 108 152 188 210 219 219 212 199 181 162 145 134 129 131 135 140 142 140 136 130 127 126 130 
95 110 125 135 135 122 100 78 59 48 46 55 77 114 156 188 206 212 209 197 177 149 120 97 85 83 90 104 124 145 163 177 187 194 198 200 197 189 174 154 131 112 101 101 110 127 147 166 180 190 194 193 188 179 170 162 158 157 160 168 179 191 201 208 214 216 213 204 183 148 105 68 45 34 32 40 59 94 140 181 208 221 224 221 214 203 190 179 172 169 169 170 167 158 142 122 102 89 84 86 
64 82 107 131 144 142 128 105 83 67 62 70 94 130 168 195 211 216 214 204 186 159 129 103 88 85 92 108 131 155 175 190 199 203 205 203 196 183 163 140 117 102 96 102 118 141 164 182 193 197 195 187 172 154 136 123 117 119 128 145 166 188 205 216 223 226 224 216 197 162 116 73 46 32 29 34 50 81 125 169 200 217 223 222 218 211 203 197 193 193 193 191 184 167 139 106 78 60 53 54 
47 68 99 132 156 163 154 133 108 88 80 87 110 145 178 202 214 218 215 205 186 158 126 99 83 80 87 104 129 157 180 195 204 207 206 200 188 169 144 118 97 86 85 97 119 148 174 192 201 201 194 178 154 125 100 84 77 79 91 112 142 173 198 215 225 229 228 221 204 171 125 79 48 33 28 31 44 69 108 151 185 205 213 214 210 205 200 198 198 201 203 201 191 169 134 94 62 43 36 37 
42 65 100 139 168 179 173 153 126 103 93 99 121 153 184 205 215 217 213 200 177 145 112 85 71 68 75 93 120 150 177 195 204 207 203 194 176 151 122 95 77 69 73 88 114 146 175 195 203 203 192 170 138 102 73 56 49 50 60 81 112 149 182 206 220 227 227 222 207 177 133 87 54 36 30 31 41 60 91 128 160 181 190 191 188 183 181 183 189 197 202 203 193 170 132 89 56 37 29 31 
47 73 111 150 178 189 182 161 132 107 95 100 121 153 183 203 213 214 207 190 161 125 91 68 56 54 62 78 105 138 169 190 200 203 198 185 162 133 102 77 62 57 62 78 104 138 169 191 201 201 189 164 128 89 60 43 35 35 42 58 84 121 159 189 209 219 222 219 206 181 142 99 65 46 37 37 42 55 76 103 127 144 152 152 148 144 145 153 166 182 195 199 193 172 135 93 59 39 31 34 
63 92 130 165 187 192 181 156 124 98 86 90 110 142 174 197 208 208 199 177 142 104 72 52 44 43 50 65 91 124 157 181 193 196 189 173 149 118 90 68 56 53 57 71 94 125 156 180 192 194 184 160 125 88 59 42 33 31 35 45 64 94 130 163 188 203 210 210 202 183 153 117 86 65 54 51 52 58 69 82 95 103 105 103 99 97 101 113 135 160 182 193 192 176 144 105 71 50 43 47 
92 121 154 180 193 190 172 141 106 81 69 73 92 124 159 186 200 201 189 164 126 87 58 42 36 36 43 57 81 112 144 168 181 183 176 160 136 110 86 70 60 57 60 69 86 110 137 160 175 180 174 157 128 97 70 52 42 37 37 42 53 73 100 130 156 176 188 194 192 183 165 141 116 97 85 78 74 72 71 71 72 71 68 64 60 59 64 78 103 136 166 186 191 181 157 124 93 73 67 73 
