P2
100 100
255
133 160 186 202 205 194 165 124 84 57 46 49 67 100 142 178 198 202 191 162 120 78 48 33 28 30 37 50 73 102 133 156 167 168 160 144 124 104 88 78 72 69 69 72 80 94 112 131 146 156 158 151 134 113 91 73 60 50 44 41 43 52 67 88 112 135 156 172 183 187 184 173 159 144 130 118 105 90 76 62 52 44 39 35 32 33 39 54 81 119 157 184 194 190 172 144 118 102 100 111 
172 191 205 211 207 187 150 104 66 43 34 37 53 84 126 166 191 198 188 162 122 82 54 39 35 38 45 58 76 98 119 134 139 137 130 119 110 103 101 102 102 100 96 91 86 85 90 99 111 123 134 142 143 137 127 114 99 84 69 56 48 46 50 59 73 91 112 136 159 177 188 191 189 183 175 164 149 126 99 73 52 38 30 25 23 24 30 43 69 105 145 175 189 189 178 161 145 137 140 153 
198 210 217 217 206 179 136 88 52 34 27 31 45 74 117 160 188 197 191 169 135 99 72 58 54 58 66 78 92 104 111 113 110 104 98 95 97 106 119 133 141 142 134 120 101 85 75 73 78 91 109 130 149 161 165 160 148 130 107 83 62 48 42 42 47 58 75 100 131 163 187 201 208 209 206 199 185 162 128 91 60 40 29 23 22 24 31 45 68 102 138 165 178 179 173 164 158 160 169 183 
212 221 224 220 204 172 124 76 44 29 24 29 44 73 116 160 189 200 197 181 155 127 104 91 89 94 103 113 118 118 110 98 85 76 71 73 85 108 136 162 177 180 172 152 122 91 68 56 55 65 86 117 151 178 192 196 190 175 149 116 82 56 41 34 33 38 51 73 108 148 183 205 217 222 222 219 208 187 153 111 73 48 34 29 29 33 42 58 81 109 136 154 160 158 153 150 153 164 181 198 
215 224 226 220 201 165 115 69 40 27 25 31 48 80 123 165 192 204 203 193 176 157 142 135 136 142 149 154 150 137 115 89 68 55 51 57 75 107 147 181 201 206 200 179 144 103 68 47 41 48 68 103 147 185 207 217 216 205 183 146 103 67 43 32 28 30 39 59 93 138 178 205 219 226 229 226 218 201 171 130 90 62 48 43 46 54 67 85 106 125 138 141 136 127 120 120 130 150 176 199 
212 223 225 218 197 159 108 65 39 29 29 39 60 94 137 174 196 205 205 198 188 179 173 172 176 183 188 188 178 155 121 85 58 43 39 45 65 102 149 189 213 221 216 198 163 116 72 45 34 38 56 92 141 186 213 226 228 221 202 167 120 76 48 33 27 28 36 55 89 134 175 203 218 225 227 226 219 205 179 145 109 84 72 71 78 92 108 126 140 147 143 129 110 94 84 85 98 124 158 190 
203 218 222 214 192 152 102 63 41 34 38 53 79 115 153 182 197 201 198 193 187 184 186 192 200 207 211 208 196 169 127 83 52 35 30 36 56 94 146 191 217 227 225 210 178 130 80 47 32 32 48 83 134 182 213 228 232 226 209 175 128 82 52 37 31 33 43 62 95 137 174 199 212 217 218 216 209 197 177 152 127 111 106 112 124 141 157 169 174 168 149 119 89 67 55 55 68 95 134 174 
192 212 216 208 184 143 97 62 46 44 54 74 105 139 167 185 190 186 179 172 169 172 182 195 207 216 221 218 206 178 133 85 49 31 25 30 49 86 139 187 216 229 229 217 190 144 91 53 34 32 45 78 128 178 210 226 229 223 205 172 127 84 56 43 41 46 59 81 112 146 174 192 199 201 198 194 186 176 163 149 139 137 143 155 170 184 196 201 199 183 153 111 74 49 37 36 46 71 110 156 
180 203 209 199 172 132 91 64 54 59 76 103 134 161 177 180 172 159 144 134 133 142 159 181 201 216 223 222 211 184 140 89 51 31 24 27 44 79 131 181 213 228 230 221 199 157 106 63 41 35 47 77 125 173 205 219 221 213 192 158 117 81 61 55 59 71 89 112 137 160 175 180 178 171 163 155 148 141 136 135 141 154 171 187 201 212 219 220 213 192 154 105 64 39 27 26 34 55 92 139 
170 194 199 186 157 119 85 67 66 80 105 135 161 177 178 167 145 121 101 90 89 101 124 155 185 207 219 221 212 189 149 99 59 36 26 28 43 75 125 175 209 225 229 223 205 170 123 79 53 46 56 84 127 170 197 209 206 193 168 134 100 77 68 73 87 108 130 150 166 174 174 164 148 131 117 107 101 99 103 115 135 161 186 205 218 226 230 228 219 195 153 100 58 33 23 22 29 47 81 128 
164 186 188 171 140 105 80 72 81 105 136 165 183 186 174 147 114 84 63 54 54 65 88 122 160 191 210 217 213 195 161 116 75 48 36 36 48 77 121 169 202 219 225 222 208 181 141 101 74 64 73 98 134 167 187 191 182 162 134 105 82 72 77 96 122 149 170 184 189 185 171 146 118 93 76 67 63 66 75 94 124 159 190 211 224 231 234 231 220 194 149 95 54 31 21 21 28 46 79 124 
163 180 176 154 122 92 76 78 98 131 164 187 196 189 165 126 86 56 39 32 33 41 60 91 131 169 196 209 210 199 175 139 101 73 57 53 62 85 122 161 192 209 216 215 206 186 156 124 101 92 99 119 144 165 173 168 150 125 98 77 66 69 88 119 154 182 200 207 205 193 168 133 96 67 51 43 42 46 57 78 110 150 185 210 224 231 233 230 217 189 142 89 50 30 22 22 31 50 84 127 
167 176 165 137 105 81 73 85 115 153 185 202 204 189 155 109 67 40 27 22 23 29 44 69 105 144 177 197 205 202 188 164 136 110 92 84 87 101 124 152 175 190 198 199 194 183 165 145 130 125 130 142 156 162 158 141 116 90 69 56 55 68 96 137 176 203 216 219 214 197 167 126 86 57 42 36 35 40 50 68 98 136 173 200 217 226 228 225 210 180 133 82 47 29 23 26 38 61 97 137 
173 173 154 122 90 72 72 92 129 169 198 211 209 188 148 97 56 32 21 18 20 26 37 56 84 120 153 178 193 198 195 185 169 152 137 126 121 121 127 137 148 158 165 169 170 167 162 157 153 153 157 163 165 159 143 118 90 66 50 44 49 67 102 146 186 211 222 223 216 199 168 128 88 61 46 41 40 43 50 64 86 118 152 181 201 213 218 214 199 168 121 75 45 30 27 33 49 77 115 152 
179 170 143 107 78 64 70 96 138 179 206 216 211 188 145 93 53 31 22 21 23 29 38 52 72 98 127 152 172 186 194 196 193 186 177 166 153 139 127 118 115 115 119 125 132 140 149 157 164 170 174 175 169 154 130 101 74 54 43 41 48 68 103 147 185 209 219 220 213 197 171 136 102 78 65 59 57 57 59 65 77 98 124 151 174 190 198 197 183 153 110 70 45 34 33 44 66 99 137 167 
184 167 133 95 67 57 67 96 141 183 209 218 212 189 146 96 57 36 29 29 34 41 48 57 69 83 101 121 142 163 181 195 203 206 203 193 176 151 122 98 82 76 76 81 92 107 127 148 165 176 180 178 167 148 122 94 71 55 47 46 53 71 101 139 173 195 205 207 202 190 171 148 125 108 99 94 89 83 76 71 72 79 94 114 136 156 169 173 163 138 103 70 49 42 45 61 89 125 160 181 
186 162 122 83 58 51 62 92 136 180 207 217 212 190 152 106 70 50 45 48 56 64 71 74 74 75 80 90 107 131 158 184 203 213 214 207 188 155 115 80 58 48 46 51 62 80 106 135 159 173 177 172 159 139 117 95 79 68 62 61 66 78 98 124 149 167 177 179 178 173 166 158 150 145 142 138 131 118 100 81 69 65 68 80 96 116 135 146 145 129 104 79 63 58 66 86 118 152 179 192 
186 156 113 74 51 45 55 82 124 167 197 210 208 191 160 122 92 76 75 82 94 104 107 101 88 75 66 66 75 96 127 163 193 211 217 211 190 152 105 67 43 33 30 35 46 65 94 125 151 164 166 158 145 129 114 104 97 94 92 91 90 92 98 107 118 127 133 137 141 146 153 162 170 176 180 179 170 151 123 92 68 55 51 55 67 85 107 126 135 131 116 100 88 87 97 120 149 176 194 198 
186 152 107 68 46 39 47 69 105 145 177 195 197 187 166 141 121 114 118 130 143 152 149 134 107 79 58 49 52 67 97 137 177 203 214 209 186 145 96 57 35 26 24 29 42 63 92 123 146 155 151 139 126 116 113 117 124 130 133 131 125 115 104 94 89 87 87 91 99 114 136 160 182 197 204 205 196 173 138 98 67 48 40 41 50 68 92 119 138 145 140 131 124 125 135 154 176 194 204 202 
187 152 106 67 44 36 39 55 81 115 146 168 177 176 168 157 151 152 162 175 186 191 184 162 125 84 55 39 37 47 72 113 159 192 207 203 180 136 87 50 31 24 25 33 49 73 104 132 148 148 136 119 106 102 110 129 149 166 174 172 162 141 115 88 69 58 54 56 66 86 118 156 187 207 217 217 207 182 142 97 63 43 35 35 45 64 93 126 152 166 168 165 161 162 169 182 195 206 210 205 
190 157 112 71 46 35 34 43 59 83 109 131 146 156 161 165 171 181 193 204 213 214 205 179 136 88 53 34 29 35 57 96 144 182 200 197 172 128 80 47 30 26 31 45 67 98 129 151 157 146 124 100 86 87 105 135 167 190 202 202 190 166 129 89 59 42 35 36 46 69 107 152 189 212 221 220 208 179 136 90 57 39 32 35 47 70 105 142 171 186 191 189 187 186 190 198 206 213 214 208 
196 167 126 83 53 38 32 35 43 57 74 93 112 130 149 166 182 197 209 219 225 224 213 185 139 88 51 31 25 31 51 88 136 176 195 192 166 121 76 47 34 34 45 67 99 133 161 174 170 149 116 86 71 73 95 133 174 203 217 219 209 184 143 96 58 36 27 28 38 61 102 152 191 214 221 218 201 167 121 78 49 35 32 38 54 84 123 161 187 200 203 201 198 196 197 202 209 214 216 211 
204 181 146 104 69 46 35 32 34 41 52 66 84 108 136 163 186 203 216 224 228 225 212 183 135 85 49 31 26 33 54 91 139 177 194 189 162 119 76 50 42 48 68 101 138 171 191 196 184 154 112 77 59 60 83 124 171 205 223 227 219 197 156 105 61 36 26 26 37 62 105 155 194 214 219 210 187 148 102 64 42 33 34 44 67 101 142 177 197 205 204 199 193 189 189 195 203 210 215 213 
210 196 169 131 93 63 44 35 33 35 41 52 70 96 128 161 187 205 216 223 225 220 204 172 126 80 49 34 33 43 68 107 151 184 197 189 161 119 79 57 54 68 99 139 175 201 213 212 195 159 111 70 50 49 69 110 160 200 222 229 224 205 167 115 68 39 28 28 40 68 113 162 196 212 213 198 168 125 82 52 37 33 39 55 83 121 159 186 198 199 192 181 170 163 164 172 185 199 209 214 
213 207 190 160 123 88 61 46 39 38 43 53 71 98 131 162 187 203 212 216 214 206 186 154 111 74 51 43 47 64 94 133 171 195 202 191 162 120 83 65 69 92 131 172 203 221 227 222 202 163 111 66 43 40 56 92 143 189 217 228 226 210 176 125 76 45 33 33 48 78 123 169 198 209 203 181 145 101 65 44 36 37 49 71 103 140 170 186 188 179 163 145 129 121 123 135 154 177 197 209 
211 213 205 185 154 119 87 66 55 53 57 69 88 114 143 169 187 197 201 200 193 180 158 128 95 70 58 59 72 97 130 165 192 207 207 192 160 119 86 72 82 113 156 195 220 232 234 227 207 166 111 64 38 33 44 74 123 173 207 224 225 213 182 135 86 53 39 41 57 90 134 174 197 202 190 161 121 82 55 41 40 48 66 94 127 157 175 178 168 147 122 99 83 76 78 91 114 145 175 198 
202 212 212 200 179 149 119 96 83 81 88 101 120 142 163 178 185 186 181 172 159 142 121 98 79 69 70 84 108 138 168 193 209 215 209 189 154 113 83 74 89 125 170 206 227 236 237 230 209 168 111 62 35 27 34 58 101 153 195 216 222 213 186 143 95 62 48 50 68 101 142 176 192 191 172 140 102 70 52 47 52 68 93 123 152 171 176 165 140 110 81 61 48 43 45 56 76 108 145 179 
185 203 210 205 191 170 147 128 119 120 129 143 159 173 183 186 181 169 152 133 115 98 83 71 66 71 88 115 146 175 198 213 221 219 207 181 142 101 75 70 87 125 171 207 228 237 238 230 209 168 111 62 34 24 28 46 83 133 180 207 217 210 188 148 103 71 56 59 77 109 145 172 182 175 153 121 89 67 59 62 77 100 128 155 175 182 174 149 114 79 52 36 28 24 26 34 49 75 113 153 
159 185 197 198 190 177 162 152 151 157 168 180 191 197 198 190 173 147 119 93 75 62 54 52 58 76 106 144 178 202 217 225 226 218 200 167 123 85 62 59 76 112 159 198 222 233 235 228 208 168 112 63 34 23 24 38 69 117 165 197 210 206 186 150 108 77 64 66 83 111 141 161 167 157 135 109 87 76 78 91 112 139 164 184 194 191 173 138 96 60 36 24 18 16 17 22 33 52 83 122 
129 157 173 178 174 166 160 159 166 179 192 203 210 212 206 191 163 126 90 63 47 39 37 41 55 82 123 166 198 218 227 230 225 212 186 146 101 67 49 47 61 92 135 178 207 223 228 223 205 167 114 66 37 25 25 36 63 107 155 188 203 200 180 147 109 81 68 71 85 108 132 147 149 140 123 106 96 97 108 128 152 175 194 204 206 197 174 134 89 53 31 20 15 14 14 18 25 39 62 94 
102 126 140 145 143 139 139 147 163 183 201 213 219 218 209 188 151 107 69 45 32 27 28 35 54 88 136 180 210 225 231 229 220 200 166 121 79 50 37 36 46 69 105 147 182 205 215 214 198 165 117 73 44 32 31 42 68 108 152 183 196 192 172 139 105 80 69 71 83 102 119 131 133 128 119 114 115 126 144 165 185 201 212 216 214 203 178 139 93 57 35 24 19 17 17 19 25 35 51 75 
87 102 109 109 106 103 107 121 144 171 195 211 219 218 207 181 140 93 56 35 24 21 24 33 55 94 145 189 215 227 230 225 210 182 140 95 59 38 29 28 34 49 76 111 147 176 193 197 187 161 122 84 59 47 48 60 85 121 158 182 190 183 160 128 97 75 67 69 79 94 108 119 123 124 125 130 141 157 175 192 206 215 220 221 217 206 184 150 110 74 51 38 31 28 27 29 33 41 53 69 
88 92 90 84 76 72 76 90 114 145 175 197 209 210 198 172 130 84 51 32 23 21 24 36 61 102 153 193 217 226 225 214 192 157 112 72 45 30 24 23 27 37 54 79 109 139 160 171 169 154 129 103 84 76 78 92 115 145 171 186 187 174 147 115 86 69 63 66 76 88 102 113 122 130 138 150 165 181 196 207 214 218 219 218 213 204 189 165 134 105 82 67 58 53 51 52 55 61 70 80 
108 101 89 74 61 54 54 63 83 112 143 170 187 191 182 158 120 81 51 35 27 25 30 44 72 114 161 196 215 220 214 197 167 127 85 54 35 26 23 23 26 32 42 58 79 102 124 139 146 144 135 124 117 116 122 136 154 173 187 192 185 165 134 102 77 63 60 64 74 87 101 115 128 141 154 169 183 195 205 210 212 211 208 204 200 195 188 176 160 143 127 114 105 99 95 94 96 100 104 108 
140 125 105 81 62 49 44 47 59 79 105 132 152 162 159 142 114 84 61 46 39 39 46 62 91 131 171 198 209 209 196 171 136 96 63 42 31 27 26 29 32 36 43 51 63 78 93 108 121 131 138 144 150 157 166 176 187 196 200 197 182 156 122 90 69 59 59 65 76 91 107 123 139 154 168 181 191 198 201 200 195 188 181 175 173 173 176 179 179 176 171 165 160 155 151 149 149 149 149 147 
172 156 131 102 76 56 45 41 45 56 73 93 112 126 131 127 114 97 82 71 66 67 76 93 120 153 180 196 199 190 169 138 102 70 48 36 32 33 37 43 49 54 58 61 64 69 76 86 100 116 135 154 171 185 195 203 209 211 208 198 178 147 112 83 65 59 62 70 84 100 118 134 149 163 174 183 188 189 184 175 162 148 136 129 129 137 152 171 186 197 201 202 201 198 195 193 191 189 187 182 
195 181 160 132 101 75 56 45 41 43 51 63 77 93 107 117 122 120 116 112 110 112 120 135 154 173 187 190 183 163 135 102 72 51 39 36 39 48 60 72 83 89 91 88 82 76 73 75 84 101 125 153 178 197 209 215 217 216 209 194 170 138 104 80 67 65 71 83 98 115 130 144 155 164 171 174 172 165 153 136 117 99 86 80 83 96 120 152 182 204 216 221 222 221 219 216 213 210 207 203 
204 197 183 162 135 105 79 59 46 40 40 46 56 71 92 115 135 149 156 158 160 162 166 174 182 188 188 179 159 131 100 72 52 40 37 43 55 75 97 117 132 140 139 130 115 97 81 72 73 86 110 141 171 194 208 214 215 211 201 183 157 127 99 82 75 79 89 103 118 132 142 149 153 155 155 152 144 130 112 93 74 59 49 45 48 62 89 128 170 201 219 227 229 228 225 221 217 213 210 208 
200 201 197 186 167 142 112 84 62 47 40 39 46 61 86 119 151 175 189 195 197 198 199 200 199 194 182 161 132 100 71 51 40 37 42 57 81 112 143 167 181 187 185 173 152 124 95 75 67 73 92 121 152 178 194 201 201 195 182 162 138 114 97 90 92 102 116 130 142 149 150 148 143 137 130 121 109 94 77 60 46 35 29 26 29 41 66 106 154 192 215 225 227 224 219 211 204 199 197 198 
182 193 200 201 192 175 150 119 87 62 47 40 44 58 86 125 165 193 209 216 218 217 215 211 204 191 170 140 106 75 53 40 36 40 53 79 114 152 182 203 214 217 214 202 181 148 111 81 65 64 77 99 127 151 167 174 172 163 149 131 114 102 98 103 116 133 148 159 165 163 154 140 125 112 101 90 79 67 54 42 32 25 20 19 22 31 53 89 137 178 204 214 215 208 197 184 173 165 165 171 
151 175 195 206 208 200 183 155 121 87 62 49 48 61 90 133 174 203 218 225 226 224 219 211 199 179 151 118 85 60 45 38 40 50 73 107 148 183 208 223 230 231 227 217 196 163 123 88 68 62 68 83 102 120 132 135 130 120 108 97 90 91 102 121 143 163 177 184 182 172 153 129 106 89 77 68 60 52 44 37 30 24 20 19 22 30 48 80 122 162 186 194 189 176 158 139 124 116 117 130 
115 151 184 205 215 215 205 185 154 117 84 63 57 68 96 137 178 206 220 225 225 221 213 201 184 160 130 100 74 56 47 46 53 70 100 138 176 204 222 231 235 234 230 219 200 169 130 96 75 67 70 78 89 98 100 97 89 80 72 68 70 83 108 139 167 188 199 201 194 176 148 116 88 70 61 56 53 51 47 42 37 32 29 28 30 37 53 80 114 144 161 162 151 131 109 89 74 68 72 87 
85 127 170 201 217 223 219 206 182 147 110 82 70 75 99 137 174 200 213 217 214 207 195 179 159 136 111 90 73 64 61 65 78 101 132 167 196 216 227 232 233 230 224 212 192 164 131 104 88 83 85 90 93 91 83 73 62 53 48 49 58 80 115 154 186 205 212 211 200 176 141 103 75 59 53 54 57 61 63 62 58 54 50 48 50 57 70 90 113 130 134 126 108 86 66 51 41 38 42 57 
67 109 157 194 216 225 225 217 200 171 135 102 83 82 99 128 160 184 195 197 191 179 163 145 128 112 99 90 85 85 89 99 115 137 164 189 208 220 226 227 224 218 208 193 172 149 127 113 108 111 116 119 115 103 84 64 49 39 36 39 52 79 121 165 198 215 220 216 202 173 133 93 66 54 53 61 73 86 95 99 98 93 88 86 86 92 101 113 122 122 113 95 74 55 41 31 25 24 28 41 
58 97 145 187 212 223 226 221 208 185 151 116 92 85 93 113 136 154 162 161 152 137 122 108 98 95 97 102 110 119 129 140 154 171 187 202 212 217 217 214 205 193 177 159 141 126 119 122 132 145 155 157 149 128 99 69 47 34 30 34 49 79 126 173 205 220 224 218 201 169 125 86 61 53 59 76 99 122 138 147 148 145 141 137 136 138 141 142 137 123 101 76 55 39 29 23 20 20 24 35 
57 91 136 176 203 217 221 218 208 188 157 123 96 83 83 92 105 116 119 115 105 93 83 77 79 89 105 124 142 156 167 176 184 192 199 204 207 205 199 188 173 153 133 115 102 99 109 129 155 176 189 192 183 159 122 82 51 34 28 32 47 80 129 177 208 223 225 217 197 162 118 80 59 57 70 97 129 158 178 188 190 189 185 182 179 178 175 169 154 129 98 69 48 34 27 23 22 23 27 37 
63 90 126 161 187 202 208 207 198 180 153 121 94 78 72 73 77 80 80 75 68 61 58 61 73 94 122 150 172 186 194 198 199 199 198 195 190 181 168 150 128 106 87 74 69 77 100 135 171 198 212 216 208 186 146 99 60 37 28 31 47 81 131 179 210 223 224 214 191 154 110 75 60 64 85 119 156 185 203 211 213 212 209 206 204 201 196 185 166 136 101 70 49 38 32 31 31 34 38 47 
74 91 114 139 160 174 182 182 176 162 140 113 90 73 64 60 59 57 54 50 46 45 47 58 79 110 144 173 193 203 205 203 198 191 182 173 161 146 128 107 86 67 54 47 48 62 93 138 182 211 226 229 223 204 166 115 69 41 30 32 48 82 132 180 209 221 220 208 182 143 101 73 64 73 101 138 175 200 213 219 220 218 215 212 210 207 202 191 172 143 109 80 60 51 48 49 51 55 59 65 
93 95 102 113 125 135 142 146 145 137 123 105 86 72 62 55 50 46 43 40 39 41 49 66 95 131 165 190 203 207 204 195 182 167 153 138 123 108 91 74 58 45 36 33 38 54 89 139 186 217 232 236 231 214 180 128 78 46 32 34 50 85 135 180 207 217 214 198 169 130 94 72 70 86 117 154 185 204 213 214 212 209 205 203 201 199 196 187 172 148 121 97 82 76 77 82 87 92 94 93 
115 101 91 87 89 94 100 106 112 113 110 102 90 79 68 59 51 46 42 40 41 47 61 85 118 154 182 199 205 201 189 172 151 131 114 100 89 79 69 58 47 37 31 29 34 50 85 136 185 218 233 238 234 218 186 136 84 51 37 39 57 93 140 180 203 210 202 183 151 115 87 74 79 101 133 165 188 200 202 198 191 184 179 177 177 179 179 176 168 153 137 122 114 114 120 128 136 139 137 128 
135 106 83 68 62 63 68 78 89 101 108 110 106 97 86 74 64 56 51 49 53 64 83 112 145 174 193 201 197 184 162 136 111 91 78 71 68 66 64 58 50 42 34 31 34 48 79 128 178 212 230 235 232 217 186 138 89 57 44 49 69 105 148 182 198 199 186 161 130 100 82 80 94 119 149 173 187 188 180 167 154 143 137 136 141 148 156 161 161 158 152 148 149 155 164 173 180 181 176 160 
148 109 77 56 47 47 53 65 84 104 121 131 133 127 116 102 89 77 71 70 76 90 113 141 169 189 198 196 182 157 126 97 74 60 55 55 61 70 76 76 69 58 47 39 38 47 72 115 163 200 220 227 223 208 178 134 91 64 56 65 89 125 160 183 191 183 163 135 107 87 81 90 112 140 165 180 182 171 151 129 109 96 91 94 102 116 131 145 155 161 165 169 176 185 194 202 207 207 199 180 
153 109 72 50 41 41 50 68 94 122 146 160 165 162 153 139 124 110 101 99 106 122 144 167 186 197 197 185 161 126 92 65 49 42 43 52 68 88 104 110 105 89 70 54 45 48 64 97 139 176 199 208 205 189 161 123 90 73 74 90 117 148 173 185 181 164 137 108 87 78 84 105 134 161 180 185 176 153 123 93 73 62 60 64 76 93 113 133 150 162 172 182 191 201 210 217 220 219 210 189 
151 105 68 47 40 44 58 84 116 149 173 188 193 191 184 172 157 143 132 129 135 149 167 184 196 199 192 172 139 100 67 46 35 34 41 58 86 117 143 154 150 131 105 77 58 51 57 77 109 141 164 175 172 158 133 107 89 85 96 120 148 172 185 184 169 141 109 84 71 73 91 122 155 180 193 190 172 140 102 71 52 44 45 52 64 83 104 126 145 160 172 184 195 206 215 221 224 222 212 189 
143 98 64 46 43 52 74 107 145 176 197 208 211 209 203 193 179 164 152 148 152 163 177 190 198 197 186 161 123 83 53 36 30 33 45 70 108 149 178 192 189 172 142 106 76 57 53 62 80 102 120 129 128 117 102 89 86 97 121 150 175 190 193 180 153 118 86 66 61 72 99 138 173 196 203 195 172 134 92 61 45 40 42 51 64 82 102 121 137 150 163 176 190 203 213 220 223 221 209 184 
132 89 59 46 48 63 94 134 172 198 213 220 221 217 210 199 184 167 154 147 150 160 174 187 195 194 181 155 116 77 50 35 30 36 52 85 130 174 203 215 214 200 173 135 97 69 55 53 60 71 82 87 86 80 74 74 85 109 142 173 193 201 194 171 135 96 67 53 54 72 107 151 187 206 210 200 174 134 91 61 47 44 48 57 71 86 101 113 123 132 142 157 174 192 206 215 219 216 202 174 
118 79 55 47 53 75 113 156 191 212 222 225 223 217 206 190 171 151 135 128 130 142 159 176 188 190 180 157 121 84 55 40 35 41 61 98 146 189 215 226 225 215 193 159 119 85 64 54 54 57 60 61 59 57 57 65 85 118 156 186 202 203 188 157 115 77 53 44 50 73 112 159 194 212 214 203 176 137 96 68 55 53 58 68 79 89 97 101 103 106 113 128 150 174 195 208 213 209 193 161 
103 69 50 46 56 83 126 170 203 220 226 226 220 209 191 168 143 120 103 96 100 114 136 160 179 187 184 166 136 101 70 51 44 49 69 106 154 194 218 228 228 221 204 176 141 106 81 67 61 58 56 53 49 47 49 61 86 124 164 192 203 199 176 138 95 61 43 38 47 72 113 160 195 211 213 201 176 140 103 78 66 66 71 79 85 89 88 85 80 78 83 97 123 154 182 200 206 201 181 146 
89 59 44 43 56 86 130 176 206 221 225 222 211 192 165 134 106 84 70 65 70 86 112 143 171 187 190 181 158 126 93 68 56 58 74 108 152 189 212 223 224 219 206 186 158 130 108 93 84 77 69 61 53 49 51 63 89 128 166 191 198 188 159 117 76 49 36 34 45 69 109 155 188 204 205 193 170 138 108 88 80 81 85 89 89 85 77 68 60 56 59 73 101 137 171 193 200 192 169 130 
76 50 39 39 53 82 126 172 203 218 220 213 195 166 131 97 71 54 45 44 50 66 95 132 167 189 199 195 180 153 120 89 69 65 76 102 140 174 198 209 212 209 201 187 170 153 139 128 120 111 99 85 71 61 59 70 95 131 165 186 189 173 140 97 61 40 31 32 43 66 102 142 174 188 188 176 154 129 108 97 94 97 99 97 90 78 66 54 46 42 46 61 90 130 167 190 196 186 157 116 
66 43 34 35 46 73 115 162 195 211 212 200 174 137 97 66 46 35 31 31 39 57 88 129 169 195 207 208 197 175 143 107 81 69 72 90 118 148 171 185 190 190 186 181 175 170 166 164 160 152 139 120 99 83 76 83 104 136 165 181 180 160 124 83 53 36 30 32 43 63 93 126 151 162 159 147 130 114 104 103 108 113 113 106 91 73 57 45 38 37 43 62 94 135 171 192 196 181 148 104 
59 38 29 30 40 63 101 147 183 201 201 184 151 109 71 46 32 25 24 27 36 56 91 135 175 201 213 215 207 188 156 118 86 69 66 75 93 116 136 150 158 161 163 166 171 178 184 189 190 186 175 156 131 109 97 100 117 143 166 178 174 152 117 80 53 39 35 39 49 66 88 110 125 129 123 112 101 96 98 108 121 130 129 117 96 73 55 43 38 40 52 76 112 152 183 199 198 179 142 96 
54 34 25 26 34 53 88 133 171 190 190 170 132 89 55 34 24 21 22 27 40 64 102 148 185 208 218 218 210 190 158 118 85 65 58 62 72 87 102 114 122 128 136 148 162 178 192 202 207 205 197 180 156 132 117 117 130 152 171 179 174 155 123 90 66 53 50 55 65 78 92 101 103 98 89 81 77 81 94 115 135 148 147 133 108 82 61 50 47 55 73 103 140 175 198 208 203 180 138 90 
50 31 23 23 30 48 80 123 162 183 182 160 121 79 47 30 22 20 23 32 49 79 121 164 196 213 219 217 205 182 147 109 78 59 53 54 61 71 81 90 97 104 114 130 151 173 191 204 211 211 203 188 166 143 129 129 142 161 178 185 182 167 142 115 94 83 81 86 95 103 107 103 93 79 67 60 61 72 94 124 151 166 167 153 128 101 80 69 70 84 108 140 172 198 213 216 207 180 136 86 
48 30 23 23 30 48 80 122 161 181 181 159 120 78 48 31 24 24 29 42 66 101 144 181 205 215 216 209 192 163 127 92 67 54 51 54 62 71 80 86 91 96 106 121 142 165 184 198 204 203 195 179 158 139 128 132 148 168 185 194 193 184 168 150 135 127 127 132 137 139 133 117 94 72 56 50 54 71 100 136 166 183 185 174 153 129 110 102 107 124 149 176 199 215 223 222 209 180 133 83 
47 31 25 27 36 56 90 131 167 186 186 166 130 88 56 38 31 32 41 59 90 129 167 195 210 214 209 194 169 136 102 74 58 52 55 64 76 89 98 104 106 107 112 122 138 155 171 182 185 182 171 154 135 120 116 126 147 172 191 201 204 200 192 182 175 171 172 176 178 174 161 136 105 75 56 50 57 78 113 151 180 196 199 192 176 158 144 140 147 163 183 202 217 225 228 223 208 176 128 80 
49 35 32 37 50 75 110 150 181 196 195 179 147 107 73 52 44 47 61 86 120 157 187 205 212 208 194 170 138 104 76 59 52 55 67 85 105 122 133 137 136 133 130 132 137 145 152 156 155 147 134 117 102 94 96 113 141 171 193 206 212 211 208 204 201 201 203 205 205 199 184 157 120 86 65 58 68 93 130 166 192 205 207 202 191 178 169 167 175 188 203 215 224 228 227 219 201 167 121 77 
53 44 46 56 76 105 140 173 196 207 206 192 166 131 97 75 67 72 90 119 153 182 202 211 209 196 172 139 104 75 56 48 50 62 85 114 141 160 171 173 170 162 152 144 137 132 129 125 117 107 94 81 71 69 77 98 130 165 191 207 214 215 215 213 213 214 216 218 217 212 197 172 137 103 81 76 88 115 149 180 200 209 209 203 192 182 175 175 183 194 206 215 220 222 218 207 186 152 110 75 
62 62 71 88 113 142 171 194 209 215 213 203 183 154 124 103 96 105 126 153 180 200 211 212 202 180 146 107 74 53 42 42 52 74 107 144 174 192 200 200 195 184 170 152 135 119 107 96 85 74 64 55 50 51 61 83 116 154 183 201 209 211 211 210 211 213 215 218 217 213 201 180 151 123 105 102 116 141 169 191 203 206 202 192 179 168 161 161 169 180 191 199 203 203 196 183 160 130 98 74 
77 88 106 129 154 178 197 210 217 220 217 208 192 169 145 129 125 136 156 179 199 211 215 209 192 160 119 80 53 39 34 39 55 86 128 169 197 212 217 215 208 196 177 154 129 106 88 75 64 54 47 41 39 41 51 71 102 137 167 185 193 194 193 192 192 195 199 203 204 201 193 178 158 139 129 131 145 165 184 196 200 195 183 167 149 135 128 128 134 145 156 164 167 166 158 145 125 104 86 76 
97 119 144 168 187 202 212 218 220 219 214 205 191 172 153 141 142 155 174 194 208 215 215 205 181 142 97 61 39 30 30 38 59 96 143 185 210 222 224 221 212 197 174 146 118 94 76 63 54 46 40 36 35 38 46 63 88 118 143 159 164 162 158 155 155 158 164 170 174 174 171 163 155 148 148 156 169 182 192 194 188 173 152 129 109 94 87 86 91 100 108 115 118 117 111 101 90 81 77 82 
117 146 173 193 206 214 218 218 217 212 204 193 177 159 144 136 140 156 177 196 209 215 213 200 171 128 83 50 32 26 28 38 61 101 151 192 215 225 226 220 208 188 161 130 102 82 68 59 52 47 42 39 38 40 47 60 79 100 117 125 125 118 111 105 104 107 113 120 127 132 134 137 141 148 159 172 184 191 192 184 167 142 114 89 71 59 54 54 57 62 68 73 75 74 72 68 65 67 74 91 
131 163 187 203 211 214 213 210 205 196 184 168 150 132 119 114 122 140 163 186 203 211 209 196 166 122 77 46 30 24 26 37 60 100 151 192 215 223 222 213 196 170 139 109 85 71 64 61 59 56 53 50 48 50 55 65 78 90 98 97 90 79 70 64 61 63 67 73 79 86 94 104 120 140 161 179 191 193 186 168 140 108 80 59 45 38 36 36 39 43 47 50 52 52 52 52 55 62 77 101 
137 165 185 197 201 201 197 191 182 169 153 134 114 98 87 85 93 111 138 165 188 202 204 194 167 125 80 48 31 25 26 35 57 95 145 187 210 219 216 203 180 147 113 86 70 64 65 70 74 75 74 72 70 70 74 81 89 93 92 84 71 57 47 40 37 37 39 42 47 53 62 77 99 128 158 180 191 189 174 147 112 79 55 40 33 30 30 32 36 41 45 48 50 51 52 54 59 68 84 108 
133 152 166 174 175 173 167 159 149 135 118 100 82 69 61 59 65 81 105 136 167 189 198 194 173 136 93 58 38 28 27 34 52 87 134 177 203 212 208 191 161 124 90 68 60 62 72 86 98 106 108 107 104 104 106 109 112 111 103 88 70 53 41 32 28 26 26 28 31 35 44 58 83 117 152 177 187 181 159 125 89 60 42 33 30 31 35 41 49 56 62 67 69 71 72 73 77 83 95 112 
120 128 133 135 134 131 127 122 114 104 91 77 63 52 45 42 45 56 75 105 140 172 191 195 183 155 116 78 51 36 30 34 48 77 121 164 193 204 199 179 145 106 74 58 55 65 84 108 129 143 148 148 145 143 143 144 144 140 128 110 88 67 50 39 31 27 25 24 25 28 35 49 74 109 146 172 181 171 144 107 73 49 37 33 35 42 53 66 79 91 101 107 110 112 111 110 108 107 109 113 
103 98 95 93 91 90 91 92 92 89 82 71 59 48 39 34 34 40 54 78 115 154 184 198 195 177 146 107 74 50 38 36 46 69 108 151 183 197 193 172 137 98 68 55 57 73 101 132 158 174 181 181 178 175 173 173 173 169 159 143 121 98 77 60 48 39 33 29 27 29 35 49 73 108 144 168 174 161 131 95 64 46 39 41 51 67 87 108 127 142 153 159 161 161 158 153 145 134 122 111 
86 73 65 61 60 63 69 79 88 94 93 85 71 56 43 34 30 31 40 60 93 137 176 199 206 198 176 143 105 73 52 43 46 64 97 139 174 191 190 172 139 101 73 61 66 87 119 154 180 195 200 199 195 191 189 189 190 190 185 176 160 141 120 100 81 66 54 45 39 38 43 56 80 114 147 168 171 155 124 89 62 49 48 59 78 105 133 158 176 189 196 200 201 199 195 187 175 156 131 106 
74 57 47 44 45 52 65 84 103 118 122 116 99 77 56 40 31 28 33 48 78 123 168 200 213 213 201 177 142 104 72 54 50 62 90 129 166 187 190 177 149 115 88 76 82 105 138 170 193 204 207 204 198 192 189 189 193 197 200 198 192 181 167 149 130 110 91 75 63 58 61 74 97 128 156 172 171 153 122 89 67 58 64 84 114 147 176 197 210 218 221 222 222 219 214 206 191 167 135 101 
68 49 40 38 43 55 75 103 132 152 161 156 138 111 80 54 37 29 30 41 67 111 161 198 218 223 218 203 175 138 99 70 58 62 85 121 158 184 192 185 164 135 110 98 104 125 155 182 199 207 206 198 188 178 172 173 180 191 200 207 210 208 201 191 177 159 139 119 102 92 91 102 122 147 168 178 174 156 126 96 77 72 85 111 147 180 204 219 227 230 231 230 228 224 219 210 194 169 134 97 
69 51 43 43 51 68 95 130 162 185 194 192 176 149 112 76 50 35 31 38 60 101 153 195 219 229 228 219 200 167 126 89 67 65 81 113 150 179 193 192 177 155 134 122 126 143 167 188 200 203 197 183 166 149 140 141 152 169 187 203 213 218 219 215 208 196 180 162 145 133 129 136 150 168 182 187 181 163 135 107 90 88 103 133 168 197 216 226 230 230 229 225 222 217 211 202 187 164 131 97 
80 64 57 58 68 89 120 156 186 206 215 214 204 181 146 104 68 44 34 37 55 91 143 189 217 230 233 229 215 188 149 107 77 67 77 103 139 171 189 193 185 168 151 140 141 154 172 188 195 194 182 160 135 113 101 100 112 133 159 184 203 215 221 223 220 214 204 191 177 166 161 164 173 184 192 194 188 171 147 121 103 101 115 141 172 196 212 219 220 218 213 207 201 195 190 183 172 154 130 103 
103 91 85 86 95 115 143 173 198 214 223 224 219 203 175 134 91 58 41 38 51 82 130 178 211 228 234 233 222 200 164 119 84 67 71 92 124 156 178 187 183 170 155 145 145 154 169 181 186 180 162 135 105 81 67 65 74 94 121 151 178 197 210 216 218 215 209 200 190 182 178 180 186 194 199 200 194 180 158 134 115 108 115 135 158 178 190 194 193 187 179 170 162 156 153 151 150 144 133 118 
136 129 124 122 126 138 156 177 197 211 220 225 224 215 195 161 117 77 51 41 48 72 114 163 200 222 232 232 224 204 169 124 85 65 64 78 105 135 159 170 169 159 146 136 135 143 155 166 170 163 143 114 84 61 48 44 49 62 83 110 139 164 182 194 200 201 197 191 184 179 177 180 187 195 200 202 197 186 168 145 123 109 107 115 128 141 148 150 145 137 127 117 109 106 108 117 128 138 143 141 
170 168 163 157 152 151 156 166 180 194 207 216 220 218 206 181 141 98 64 47 46 62 95 141 182 210 223 227 220 200 166 121 82 61 57 66 86 112 134 146 146 137 125 116 115 121 133 145 151 146 128 102 75 54 41 36 36 43 55 73 95 118 138 154 163 167 167 164 160 158 159 166 176 186 195 199 198 191 176 154 130 109 96 91 93 96 98 96 90 83 74 67 64 65 73 90 114 139 158 168 
197 197 191 180 166 151 141 139 147 161 178 195 207 213 210 193 162 119 80 54 46 53 77 114 156 189 208 214 208 189 154 111 76 56 51 57 72 92 109 119 119 111 100 92 90 96 108 122 131 132 121 102 79 60 46 38 35 36 41 49 62 76 91 105 115 121 123 123 122 123 128 138 152 168 181 191 195 192 182 163 138 111 89 74 65 61 58 55 50 45 41 37 37 42 54 78 112 148 175 191 
214 213 206 191 167 139 115 103 103 114 135 159 183 200 206 199 176 139 97 65 48 47 60 88 123 157 181 191 187 168 136 99 69 53 49 54 66 80 93 99 96 88 78 71 70 75 86 102 117 125 124 113 97 79 64 53 45 40 38 40 44 50 58 67 74 79 83 84 85 88 94 104 120 139 158 175 186 190 186 172 150 121 91 68 52 43 37 32 29 26 24 24 26 34 50 79 120 161 191 207 
223 221 212 193 161 122 89 69 64 71 88 116 148 178 196 199 186 157 117 79 55 46 50 66 91 121 145 158 157 142 115 87 66 55 53 59 69 81 89 91 85 75 65 58 56 61 72 89 110 127 136 135 126 112 97 81 68 56 48 43 41 41 44 48 53 57 60 61 62 63 67 75 88 106 128 151 170 184 188 182 165 138 106 76 53 38 29 24 21 19 19 21 25 35 56 89 134 175 203 217 
225 222 212 189 152 107 69 47 39 41 54 77 112 151 181 195 192 172 137 98 67 50 45 52 67 88 108 122 125 116 100 82 70 65 67 75 86 95 99 96 85 72 61 53 51 55 67 86 112 136 153 161 160 152 138 122 104 87 71 60 52 48 48 50 53 55 57 57 55 53 53 56 63 76 96 122 149 173 187 190 182 161 131 97 68 47 33 25 21 20 21 24 31 44 68 105 149 186 210 221 
221 218 206 182 142 95 58 37 27 27 34 52 84 126 166 190 197 186 159 122 86 61 49 47 54 67 81 94 101 101 96 89 85 87 93 104 115 122 121 112 96 78 63 54 52 57 70 93 122 150 171 183 187 184 176 163 146 126 107 91 79 72 70 70 73 75 75 71 64 56 49 46 48 55 70 94 125 158 184 196 197 185 162 131 97 69 49 37 30 28 30 34 43 59 85 121 159 190 209 218 
208 206 195 172 134 90 55 34 24 21 26 39 67 109 154 187 200 197 179 148 112 80 60 51 51 57 68 81 92 100 105 109 113 120 130 141 150 153 148 133 112 89 71 61 59 66 82 108 138 166 186 198 203 203 199 190 178 162 145 130 119 112 110 111 114 115 112 103 88 71 55 44 40 42 51 71 103 142 177 199 208 205 191 167 137 106 80 62 52 48 49 55 65 81 104 132 161 183 197 205 
182 183 177 159 128 91 59 38 27 23 25 36 61 102 150 187 205 207 196 173 140 105 77 61 55 57 66 80 96 112 126 137 147 157 167 175 181 180 171 152 126 100 81 72 72 83 103 130 158 181 197 206 209 209 206 199 191 181 171 163 158 156 157 160 163 163 158 145 123 94 67 47 37 34 39 54 83 125 168 199 214 218 212 198 176 149 123 102 89 83 84 89 97 108 121 136 150 162 171 178 
141 149 152 145 126 99 71 49 36 29 30 40 64 106 154 190 210 215 210 193 166 131 98 74 63 62 70 86 107 131 151 167 178 187 194 199 200 195 182 161 133 107 89 83 88 104 128 154 177 194 204 208 207 204 198 191 185 180 177 178 182 187 192 197 200 201 196 183 158 121 83 54 37 30 32 43 68 108 156 194 216 224 224 217 204 187 167 150 137 131 130 132 135 135 133 129 127 126 128 134 
96 110 125 134 130 114 92 68 51 41 39 50 75 117 163 197 215 221 218 207 184 151 115 86 71 67 75 94 120 148 172 189 199 206 209 210 207 198 182 157 129 104 91 91 103 126 152 176 193 203 207 205 198 187 175 164 158 157 162 173 186 199 209 217 221 222 219 208 184 146 99 61 38 28 27 35 56 93 142 185 213 226 229 226 220 209 198 187 179 175 173 172 167 155 137 116 98 87 83 86 
62 81 105 128 140 137 119 95 72 57 54 64 90 132 174 204 219 225 223 213 193 161 123 91 73 69 77 97 127 160 185 202 211 215 216 214 206 192 170 142 114 94 86 93 113 141 170 192 204 209 207 198 181 160 139 123 115 117 129 148 173 195 213 224 230 232 230 221 200 163 113 69 41 27 24 30 46 78 124 171 204 221 227 227 223 217 211 205 202 200 199 196 187 167 136 102 74 57 50 52 
44 65 97 131 154 160 149 125 97 76 69 79 106 146 184 209 222 226 223 213 192 159 119 87 69 64 73 94 127 162 190 207 215 218 217 211 199 178 150 118 92 78 76 89 115 149 179 200 210 211 204 188 161 129 100 81 73 75 89 113 146 179 205 222 231 235 234 226 209 175 125 77 45 29 24 27 40 65 105 150 186 207 216 218 215 212 208 207 208 210 211 207 196 172 134 91 58 39 32 33 
38 62 99 140 169 180 172 148 117 92 81 89 115 153 188 211 222 225 221 207 182 145 105 75 58 55 63 84 118 156 187 206 216 218 215 205 187 159 125 94 72 62 64 80 110 147 180 202 211 211 200 178 142 103 71 52 44 46 57 79 113 153 188 212 226 232 233 227 212 183 136 87 52 33 26 27 36 55 85 123 157 180 191 193 192 190 189 193 199 206 211 210 199 174 133 87 52 32 25 27 
44 72 112 154 183 193 184 159 125 97 83 90 115 152 186 209 220 221 215 197 166 125 86 59 46 44 52 71 104 143 178 201 212 214 209 195 172 139 104 75 57 51 55 71 100 138 173 197 207 207 195 169 130 88 56 38 30 30 38 54 83 121 161 193 213 224 227 224 213 188 148 102 65 44 34 32 37 49 69 95 120 139 148 150 149 148 152 162 176 192 203 207 200 176 137 90 55 34 27 30 
61 93 134 171 194 198 185 157 120 90 76 80 103 140 177 202 214 216 206 184 146 103 67 45 36 35 42 60 89 128 165 190 203 206 199 182 156 122 89 65 51 47 51 65 90 124 158 183 197 198 187 162 125 85 55 37 29 27 30 40 60 91 128 164 190 207 215 216 209 192 161 123 88 65 52 46 47 51 60 72 85 94 98 98 97 97 104 119 142 169 190 201 199 181 146 103 67 46 39 44 
92 125 160 188 201 198 178 144 104 75 61 65 85 121 161 191 207 209 197 171 129 86 53 36 29 30 37 52 78 113 149 175 189 191 183 166 140 110 84 65 55 52 55 64 82 108 137 161 177 182 176 157 127 94 66 48 37 32 32 36 47 67 94 126 155 177 192 200 200 192 174 149 122 99 84 75 68 64 62 61 62 61 60 57 55 56 63 80 107 142 173 193 197 186 159 122 89 69 63 71 
