P2
100 100
255
142 173 200 215 218 207 176 129 81 50 37 40 60 98 147 188 211 216 207 179 134 84 47 28 21 22 29 42 66 99 134 160 173 174 165 148 126 103 83 71 64 61 61 63 71 84 103 123 140 150 153 146 130 108 86 68 53 43 35 31 33 40 54 76 102 130 157 180 196 204 203 193 176 156 135 114 93 74 57 44 35 30 27 26 26 30 39 58 89 130 169 194 202 195 175 144 116 100 100 116 
181 202 217 223 219 200 162 110 65 39 28 31 48 82 132 177 204 212 204 179 137 90 55 36 29 30 37 48 65 88 110 127 134 132 124 113 102 94 91 92 94 93 90 83 78 76 79 88 100 113 125 134 138 134 124 110 93 75 58 44 36 33 37 46 62 84 111 142 171 193 205 207 203 194 180 162 139 110 80 55 37 26 20 17 16 19 26 41 69 109 150 180 193 192 179 160 144 137 143 160 
207 220 227 227 217 191 146 92 52 30 22 25 40 73 122 170 200 211 206 186 151 110 76 57 50 51 58 67 77 87 94 97 95 90 85 81 83 91 107 123 135 138 131 116 95 76 65 62 67 79 98 122 145 160 165 159 145 123 96 69 47 34 29 30 37 50 72 103 142 178 202 214 218 217 211 200 180 150 111 74 46 29 20 16 15 18 25 39 63 98 136 164 178 179 172 162 158 161 174 190 
219 228 231 228 213 181 130 77 41 24 19 23 38 71 120 168 200 212 210 196 171 140 112 95 89 91 96 101 103 98 89 78 67 60 56 59 70 93 125 155 175 181 173 152 120 86 60 47 46 56 77 111 150 180 196 199 191 171 140 101 66 41 28 23 24 31 46 74 116 161 196 216 225 228 227 221 207 181 143 99 62 39 27 22 22 26 34 49 71 100 128 148 155 154 149 147 152 167 186 205 
223 231 233 226 208 170 115 65 35 21 18 24 42 76 125 172 201 214 214 205 190 171 153 143 140 143 147 147 139 120 95 70 52 42 39 44 62 95 139 179 202 210 204 182 145 100 62 41 34 41 62 101 149 190 213 222 219 205 177 134 88 52 31 22 19 22 34 58 99 149 190 215 227 232 233 230 220 200 167 125 85 58 43 39 40 47 59 76 95 114 128 132 128 120 114 116 129 153 182 207 
220 230 232 224 201 159 104 58 32 21 21 30 51 88 136 178 203 213 214 209 200 191 184 182 184 188 190 187 173 145 106 70 45 32 29 36 56 95 146 191 217 226 222 203 166 116 69 40 29 33 52 91 145 193 220 232 233 223 200 159 107 62 36 23 19 21 31 54 93 143 186 212 225 231 232 229 222 207 182 147 112 86 73 71 76 88 103 119 132 138 134 120 101 85 77 80 96 127 166 199 
213 227 229 219 194 149 95 53 31 25 28 42 68 107 150 184 201 207 205 201 197 195 197 203 209 214 216 212 197 165 120 74 43 27 23 30 50 91 147 195 222 233 231 216 183 131 78 43 28 28 46 84 140 191 221 235 237 230 210 171 118 70 41 27 23 26 37 61 100 147 185 208 219 223 223 220 213 202 184 161 138 122 116 119 129 143 157 168 172 164 143 111 80 59 49 51 66 98 142 184 
203 221 224 214 186 139 87 51 35 33 42 62 93 130 164 185 193 190 184 178 177 182 192 205 217 225 228 224 211 180 132 81 44 26 20 26 46 86 143 194 223 235 235 223 195 147 91 50 30 28 43 80 135 187 219 233 236 229 210 172 120 74 46 34 32 38 54 80 118 157 187 202 208 207 203 197 189 181 171 162 155 155 159 168 180 191 200 204 201 184 150 106 67 43 32 32 44 72 117 167 
192 213 218 205 175 128 82 53 42 47 64 91 124 154 174 180 173 159 145 137 138 149 169 192 211 224 231 229 218 191 145 91 49 27 20 24 42 81 138 190 221 234 236 227 204 161 107 62 38 33 46 80 133 183 214 228 229 221 199 161 113 74 51 45 49 62 84 112 144 172 188 192 188 177 166 155 147 143 143 148 159 174 189 202 212 220 225 225 217 195 154 101 58 33 22 22 31 55 97 150 
181 205 209 195 162 117 78 57 56 69 95 127 156 174 178 166 143 118 98 88 89 104 131 164 195 216 227 230 222 200 159 106 61 34 24 26 42 79 133 185 217 232 235 229 211 175 125 79 51 44 56 88 135 180 207 218 216 202 176 138 99 70 58 61 76 99 125 152 173 186 188 178 159 136 117 103 96 96 105 123 150 178 202 218 228 234 236 234 224 198 152 96 52 28 18 17 24 45 84 136 
173 196 198 180 146 105 76 66 75 100 133 163 183 188 175 146 110 78 58 49 50 64 90 128 168 200 219 226 223 207 174 127 81 50 35 34 48 80 129 178 210 226 231 228 214 186 145 103 74 65 75 103 142 177 196 201 192 172 142 108 80 66 68 84 111 142 168 187 197 197 185 161 127 95 72 59 55 58 71 95 132 172 203 223 234 239 241 237 224 196 147 89 46 24 15 15 22 41 77 128 
167 188 185 163 127 93 74 76 97 132 167 192 201 194 169 126 82 50 33 26 27 37 58 92 136 176 205 219 222 212 189 153 111 77 58 53 62 88 128 170 199 216 222 221 211 192 162 129 105 96 104 126 153 174 182 176 158 132 103 78 63 63 78 108 145 178 200 211 213 204 183 147 104 68 46 35 32 36 48 73 111 157 195 220 233 239 240 235 221 189 137 80 41 22 14 15 23 42 77 125 
166 180 171 143 108 82 73 86 119 159 192 210 212 197 161 111 64 35 20 15 16 23 38 64 103 147 183 206 216 214 202 179 148 117 95 85 86 101 128 157 180 195 202 203 199 188 170 151 137 132 138 150 163 169 163 145 120 92 69 55 51 61 87 128 170 201 218 224 221 208 182 141 94 57 36 26 24 27 37 57 91 136 179 209 227 235 236 231 214 179 125 71 37 20 15 17 27 48 85 130 
169 173 155 123 90 70 71 93 134 177 207 220 218 198 157 101 55 28 16 12 13 18 28 46 76 115 154 185 203 210 209 198 181 161 141 127 119 119 126 137 149 159 166 170 171 170 167 163 161 162 166 171 171 163 144 117 88 64 48 41 44 60 93 138 181 210 224 227 223 210 184 144 98 62 41 30 27 28 34 48 73 112 154 189 211 223 227 221 202 164 111 63 33 20 17 21 35 61 99 141 
174 168 141 104 74 60 66 95 141 186 214 225 220 199 156 99 53 27 16 13 15 19 26 38 58 86 121 154 180 198 206 208 203 194 181 167 150 134 120 112 110 112 116 122 130 139 150 162 172 179 183 182 174 155 127 96 68 49 39 37 43 61 94 138 180 207 220 223 220 208 187 154 116 83 60 48 40 37 37 44 60 87 122 157 184 202 209 205 186 149 100 58 33 23 23 31 50 82 122 157 
180 164 129 89 60 50 60 91 138 185 214 225 221 200 160 106 61 35 24 21 23 26 31 37 48 65 89 118 147 173 193 207 212 212 206 193 172 143 112 88 74 69 69 75 86 103 126 150 171 185 189 185 171 147 116 86 62 48 41 41 48 64 92 129 165 190 204 209 208 202 189 169 143 118 97 81 68 57 49 46 51 65 88 116 145 168 182 183 168 136 95 60 39 32 35 49 75 111 149 174 
187 161 119 77 50 42 51 80 126 174 206 220 219 202 168 121 79 53 42 40 42 44 46 47 48 53 64 83 108 139 169 195 211 218 217 207 183 146 103 69 50 41 39 44 54 74 103 136 164 181 186 179 162 137 109 86 69 60 57 57 61 72 89 113 138 158 171 179 184 186 185 180 171 159 145 129 111 89 69 54 47 49 60 78 101 126 147 157 152 131 100 73 57 53 61 80 111 147 176 191 
192 160 113 69 43 35 42 66 106 152 189 208 212 202 177 143 109 86 77 76 78 79 76 68 57 50 49 56 73 101 137 174 202 217 220 211 186 143 94 56 35 26 24 28 38 58 88 124 155 172 175 166 148 126 107 94 88 87 88 88 88 88 90 97 106 115 124 133 145 159 174 185 191 192 187 176 156 127 93 64 47 40 42 51 67 90 115 136 144 137 120 101 90 89 101 123 152 180 199 204 
197 162 111 66 39 30 33 50 80 121 159 184 196 196 185 165 146 132 128 129 133 131 121 100 76 55 43 40 48 69 104 148 186 210 217 210 183 137 85 48 28 20 19 24 35 56 87 122 150 163 160 146 128 113 106 108 117 126 132 132 126 114 99 85 77 75 77 85 101 125 155 183 202 212 214 207 190 158 115 75 48 35 31 35 47 68 97 127 148 155 150 141 135 137 148 167 188 205 214 213 
201 166 114 67 38 26 26 36 56 85 119 148 170 182 185 182 177 175 177 181 184 181 166 137 99 64 41 32 33 47 77 123 169 200 212 206 178 130 78 43 25 19 20 27 42 67 100 131 152 155 144 124 107 99 105 122 145 165 176 176 166 144 113 83 60 49 45 50 65 94 135 176 205 221 227 223 207 175 127 80 48 32 26 29 39 61 94 132 161 177 180 178 177 179 187 198 210 220 223 219 
207 173 124 74 42 26 22 26 37 55 79 106 134 159 177 189 197 203 209 214 217 213 198 165 118 73 43 28 26 35 61 105 156 192 207 201 172 124 74 41 26 22 27 40 62 93 126 152 161 153 130 104 86 84 99 130 165 192 206 207 196 171 131 87 54 36 29 31 44 74 120 170 206 225 231 228 212 178 127 78 45 29 24 27 39 64 102 145 177 195 202 202 202 203 208 215 222 227 228 223 
212 184 139 88 50 30 21 21 25 34 49 71 99 133 165 190 206 217 224 230 232 228 213 180 129 78 44 27 23 31 55 99 150 188 204 197 168 119 72 42 30 30 41 64 95 131 161 177 175 155 121 88 69 69 90 128 172 204 221 224 215 191 148 96 55 31 22 23 35 64 112 166 205 225 231 226 207 169 117 70 40 27 24 29 45 75 117 161 191 207 212 211 210 210 213 218 223 228 229 225 
218 197 159 110 67 39 25 19 19 23 32 48 74 112 153 186 209 222 230 235 236 231 215 181 129 78 44 28 25 35 60 104 154 190 204 196 166 118 73 46 37 44 65 99 138 172 193 200 189 159 116 77 56 56 77 119 168 206 226 231 225 204 163 107 60 32 21 21 33 62 111 166 205 224 228 219 194 151 99 58 35 25 26 35 56 91 135 175 199 209 209 206 201 200 202 208 216 223 227 226 
222 208 180 137 91 56 34 23 20 20 26 39 64 102 147 185 209 223 230 234 232 225 206 170 119 73 43 31 32 46 77 122 167 197 207 197 165 118 76 52 49 64 97 139 177 204 217 216 200 164 113 69 46 44 63 103 156 200 224 233 230 212 175 120 68 37 23 23 35 65 115 168 205 221 221 206 174 126 79 46 30 25 30 45 72 111 152 183 198 199 192 182 173 169 172 182 196 210 220 225 
222 217 199 166 123 82 52 35 27 26 31 44 69 107 151 186 209 220 225 226 221 208 184 147 102 65 44 39 47 69 106 149 186 207 212 198 165 119 79 59 62 87 129 173 206 224 231 226 207 167 112 65 39 35 49 84 137 187 218 231 231 217 184 132 78 43 28 27 41 71 121 171 204 216 211 188 148 100 60 37 28 29 40 61 94 132 166 184 186 176 158 140 125 120 124 138 160 184 205 218 
217 220 212 190 156 116 81 57 45 43 48 63 90 127 164 192 208 214 214 208 197 178 150 114 80 57 49 54 73 104 143 179 205 217 216 198 163 116 79 64 74 107 154 196 223 235 238 231 211 170 112 61 34 27 37 66 115 169 208 227 230 220 192 143 89 51 34 33 47 78 126 173 201 208 196 166 122 78 48 34 31 39 57 85 121 154 174 178 165 141 113 90 75 69 73 88 113 146 179 203 
205 217 217 206 183 151 117 92 78 75 83 101 127 156 182 199 205 203 193 178 157 133 106 80 61 53 58 77 108 145 179 205 220 224 217 195 155 109 75 65 79 118 167 207 230 240 241 234 213 171 111 60 31 22 28 50 93 149 195 220 227 220 196 152 99 60 41 39 53 84 128 170 193 196 179 144 101 65 44 38 43 59 85 119 151 173 179 167 138 103 72 51 39 35 38 49 70 103 143 180 
183 205 214 211 198 176 152 132 122 122 132 148 168 186 199 204 199 184 161 134 108 85 66 53 48 54 73 106 146 181 207 223 229 227 214 186 142 96 66 60 76 116 167 208 231 241 242 234 214 171 111 59 29 19 22 39 76 130 181 212 224 219 199 158 107 67 47 44 57 85 125 162 182 181 162 127 90 62 51 53 67 92 124 156 179 189 181 155 114 74 45 28 19 17 19 26 41 68 105 148 
153 183 199 203 198 186 173 163 160 165 176 188 200 209 211 205 187 158 123 90 66 49 39 36 41 59 92 136 178 207 225 233 233 226 206 171 123 79 54 50 66 104 155 199 225 237 240 233 213 171 112 59 29 18 19 33 65 116 170 205 219 217 197 159 110 71 50 47 58 82 117 149 167 166 149 120 92 74 71 82 105 134 164 188 201 200 183 146 98 57 31 17 11 9 11 15 25 44 73 113 
118 150 171 180 180 176 173 173 179 190 202 212 219 221 217 202 172 131 89 57 38 28 24 27 40 67 111 161 200 223 234 237 233 220 193 149 99 61 41 39 52 85 132 180 212 229 234 229 210 170 113 62 32 20 20 32 62 111 164 200 215 213 193 155 108 70 51 47 55 76 105 134 152 155 144 125 109 102 107 125 149 175 197 210 215 208 186 145 93 51 27 14 9 8 8 12 18 30 51 82 
89 114 133 143 146 147 151 161 176 194 209 221 226 226 217 195 156 107 64 37 23 17 17 24 42 77 129 180 214 231 238 237 228 208 172 123 76 45 31 29 39 63 103 150 189 213 223 220 204 168 116 68 39 27 27 41 71 118 166 198 211 207 185 146 100 66 48 44 51 68 93 121 142 151 149 142 137 139 150 167 187 204 216 223 223 213 190 150 99 57 31 19 13 11 11 14 18 27 41 62 
73 88 98 102 104 106 114 130 153 179 201 216 224 223 211 184 140 89 49 27 16 13 15 25 48 89 144 193 221 234 237 232 217 188 144 95 56 33 23 22 29 45 74 114 155 185 202 204 192 163 120 80 54 43 46 62 93 136 176 201 209 200 173 132 89 59 44 41 47 62 85 113 138 154 162 165 168 174 185 198 210 219 225 227 225 216 196 162 116 75 47 32 25 22 22 23 27 33 43 56 
75 78 78 74 70 70 76 91 116 147 176 198 210 211 199 170 125 77 42 23 15 13 18 31 58 104 159 201 225 233 232 221 199 161 113 69 40 25 18 18 22 33 52 81 116 148 170 178 173 155 126 98 79 74 80 99 129 163 191 206 206 191 159 116 76 51 39 38 45 59 83 113 141 163 177 185 191 198 206 213 219 223 225 224 222 214 200 176 142 106 79 62 52 47 45 46 49 54 60 68 
97 89 78 65 54 48 49 59 78 106 137 165 183 188 179 152 112 71 42 26 20 19 26 43 75 123 173 207 224 228 221 203 171 127 82 49 30 20 17 18 21 28 40 58 82 108 130 143 147 142 131 120 115 117 128 146 169 191 206 211 204 182 144 100 64 44 36 37 45 61 87 119 150 174 189 199 205 209 213 215 216 215 213 211 209 206 199 187 168 146 126 110 99 93 90 90 92 94 97 99 
134 118 96 73 54 41 37 39 50 69 93 120 141 152 150 133 104 74 52 39 33 35 44 66 101 146 186 210 219 216 201 173 134 92 57 35 24 20 20 22 26 32 39 49 63 78 94 107 118 125 132 140 150 161 174 188 201 211 216 214 200 171 129 86 56 41 36 40 50 69 97 130 160 183 196 204 207 208 206 203 197 191 186 182 182 184 188 189 187 181 173 164 158 153 150 148 148 148 148 144 
174 155 128 97 69 48 36 32 35 44 59 77 96 112 119 117 105 90 75 66 63 66 79 102 135 170 196 209 209 195 170 134 95 62 39 28 24 25 29 35 41 47 52 57 61 65 72 80 92 107 128 151 173 190 203 213 220 223 221 213 193 159 116 77 52 42 41 48 63 84 113 143 169 186 195 198 197 192 184 173 160 148 138 134 137 147 163 181 194 202 204 204 202 200 197 196 194 193 190 185 
201 186 163 131 97 68 47 35 30 32 38 49 63 80 97 110 117 118 115 111 111 117 129 148 171 191 202 202 189 164 130 93 62 41 30 26 29 38 49 62 74 82 85 82 76 69 64 65 73 90 117 150 180 202 216 224 227 226 220 206 181 145 105 73 56 51 55 67 84 107 132 154 171 180 182 179 171 159 144 126 109 94 84 81 87 102 129 161 190 209 220 224 225 224 223 221 218 216 214 209 
214 206 191 167 135 100 71 49 36 30 29 34 45 62 85 113 137 153 161 164 166 170 178 188 197 203 200 186 161 126 90 60 40 30 27 32 44 63 85 107 125 134 134 125 108 87 70 60 61 75 101 137 173 199 215 222 223 219 209 191 164 130 97 76 67 70 81 97 116 134 150 160 164 162 155 145 131 115 97 79 64 52 45 43 49 65 94 136 177 207 224 231 233 233 230 227 224 222 220 218 
214 213 207 194 172 141 106 75 52 37 30 30 38 55 84 122 159 184 197 203 206 207 210 212 212 206 191 164 127 90 59 39 29 27 32 47 71 102 134 161 178 185 183 170 146 115 84 63 56 63 84 117 153 182 200 207 206 199 185 164 138 112 93 86 90 102 119 136 151 161 163 158 148 134 119 104 89 74 59 47 36 29 24 23 28 41 68 111 159 197 219 229 231 229 225 219 214 211 210 212 
200 209 213 211 199 179 148 113 80 54 39 34 38 55 88 134 176 204 219 225 226 226 225 222 215 200 174 137 96 63 40 29 26 31 46 72 108 147 180 202 215 219 215 203 178 142 102 71 56 56 69 95 126 153 170 176 173 162 146 126 108 95 93 102 120 141 160 174 181 180 169 150 125 102 83 69 57 47 38 30 24 19 16 16 19 30 53 91 140 182 207 218 219 213 204 194 185 181 182 190 
172 194 210 218 216 206 186 155 118 83 57 44 45 60 95 143 186 214 228 234 235 233 229 222 209 186 152 111 73 47 33 28 32 45 70 107 149 185 211 226 233 235 231 219 197 162 119 82 61 55 62 78 100 118 129 131 125 113 99 86 79 81 96 121 151 176 193 201 201 191 169 136 102 75 58 47 40 34 30 26 22 18 16 16 19 28 46 78 121 160 185 194 191 180 164 148 135 130 135 151 
135 171 200 218 225 222 211 190 158 119 84 62 55 68 100 146 188 216 229 234 234 230 224 212 193 165 128 90 60 42 35 37 48 70 104 145 184 211 228 236 240 239 235 224 204 172 132 95 73 64 66 75 85 93 94 89 80 69 61 56 58 73 101 140 176 200 214 217 212 194 163 121 83 57 43 36 34 33 33 31 29 27 25 25 27 35 49 74 106 135 153 156 146 129 110 92 80 76 84 103 
99 144 185 213 227 231 226 214 190 155 115 83 68 74 100 140 180 207 221 225 224 217 207 191 169 139 107 78 59 50 50 60 79 108 144 180 208 225 235 239 239 237 230 219 200 172 139 110 92 86 86 89 90 85 75 63 51 43 37 38 46 69 108 155 193 215 225 225 215 193 154 107 68 46 37 35 38 43 47 50 50 48 46 46 48 53 65 81 99 113 118 111 97 79 62 49 41 39 46 65 
72 119 169 206 226 234 234 226 210 181 142 104 80 76 93 124 158 184 198 202 199 189 175 157 136 113 93 79 72 73 81 98 121 151 180 205 221 231 235 235 232 226 216 202 184 162 141 126 119 119 121 121 113 97 75 54 39 30 26 29 41 68 114 165 203 223 230 228 215 187 143 94 59 41 37 42 53 66 78 86 89 89 87 86 86 89 95 101 104 101 91 76 60 46 34 26 21 21 27 42 
57 100 152 195 220 232 235 231 219 196 159 118 86 74 80 99 124 145 158 160 155 144 130 115 102 94 91 93 100 111 126 144 165 186 205 218 226 229 228 223 215 202 187 170 153 140 135 138 147 157 163 162 149 124 91 59 38 26 21 25 38 69 119 173 209 227 233 228 212 180 132 84 54 42 44 57 79 103 124 137 144 145 143 140 139 138 136 131 119 100 77 57 40 29 21 16 14 15 19 32 
50 87 136 181 210 225 231 229 219 198 164 121 86 67 64 72 86 98 106 107 101 93 84 79 79 86 100 118 137 154 170 184 197 208 216 220 221 218 210 198 182 162 141 123 112 112 123 145 169 188 198 198 185 157 116 73 43 26 20 23 38 71 123 177 213 229 233 226 207 171 121 77 51 46 56 81 113 146 170 185 191 192 190 188 185 182 175 162 140 109 76 51 33 23 18 15 14 15 19 29 
50 78 119 161 192 210 218 218 209 190 157 116 81 60 51 51 56 61 63 62 59 55 54 58 70 92 120 148 172 188 199 207 211 213 213 210 204 193 178 158 134 110 90 77 74 84 110 148 183 208 220 221 211 186 143 92 52 30 21 24 39 73 127 180 214 229 231 222 199 159 110 71 52 54 74 108 148 181 202 213 217 218 216 214 211 208 200 185 160 123 85 55 36 26 22 20 21 22 26 34 
56 74 102 134 162 181 192 194 188 170 141 105 74 54 43 39 39 39 39 37 36 36 41 52 75 108 144 175 196 208 212 213 209 204 196 185 172 154 132 108 85 66 52 45 48 64 98 146 190 218 231 234 227 206 165 111 63 35 24 26 42 78 132 183 214 227 227 215 188 146 99 67 56 66 94 135 174 202 218 224 226 225 224 222 220 217 211 198 175 141 102 71 50 40 36 36 37 40 42 47 
70 74 86 103 122 138 150 156 154 143 122 96 72 54 43 36 33 30 29 27 28 31 41 60 91 131 168 194 209 213 211 203 192 177 162 145 127 107 87 68 52 39 31 28 34 52 89 143 192 222 237 240 235 217 181 126 73 41 28 29 47 85 138 186 214 224 221 204 173 130 89 65 63 81 116 157 191 211 221 223 222 219 217 216 215 215 211 203 186 160 128 98 79 69 66 68 71 73 73 71 
93 80 74 76 83 92 103 112 118 118 110 96 80 65 53 44 37 32 29 28 30 37 53 79 117 156 187 205 211 207 195 178 157 135 116 99 84 71 58 47 36 29 23 22 28 46 82 136 188 222 237 242 238 223 189 137 82 47 33 36 57 96 148 190 213 218 210 189 154 113 81 67 74 100 137 174 199 211 214 210 204 198 194 194 197 200 202 200 192 177 156 136 121 115 115 119 122 123 118 107 
119 90 69 58 55 59 67 79 93 106 112 111 103 91 77 64 53 44 39 38 42 54 76 108 146 179 200 208 204 189 166 138 111 89 74 63 57 52 48 43 36 30 25 23 27 42 74 125 179 215 233 240 236 222 190 140 88 54 42 48 73 114 160 194 210 209 195 167 130 96 75 73 90 121 157 186 201 204 197 185 170 159 154 155 162 173 183 190 192 188 180 171 165 164 167 172 176 175 166 147 
140 99 66 47 40 41 49 65 87 112 131 141 140 132 118 101 84 70 61 59 65 82 109 142 174 196 206 204 189 161 127 95 70 55 47 45 48 52 56 56 51 43 35 30 30 40 66 109 160 200 222 230 228 213 182 137 91 63 55 67 96 136 174 197 204 195 172 139 105 81 73 84 110 145 176 194 199 191 172 147 125 109 103 106 118 135 155 172 185 192 195 195 196 199 204 209 211 209 199 177 
152 103 64 42 33 34 45 67 99 133 160 176 180 176 165 148 127 108 94 90 98 117 145 173 195 207 208 195 168 129 90 61 43 35 35 42 54 69 82 88 84 72 57 44 37 40 56 89 133 173 199 210 208 193 164 125 90 72 74 94 126 161 187 198 194 175 144 109 82 70 76 99 134 168 192 201 196 176 143 109 82 66 62 66 78 98 122 148 171 187 198 206 212 217 222 227 228 226 216 192 
154 102 61 39 32 36 52 81 122 161 189 204 210 208 200 186 167 146 130 124 130 149 172 194 208 212 205 184 147 102 63 40 29 27 33 49 73 102 125 136 133 116 92 67 50 43 49 69 100 134 160 172 171 157 133 105 86 83 97 124 156 183 196 195 179 148 113 82 65 64 82 116 156 188 204 206 192 162 120 81 55 42 39 43 53 70 93 121 149 173 191 205 215 223 229 233 235 232 221 197 
147 95 57 37 33 41 65 104 150 188 211 223 227 225 219 207 190 169 151 143 149 165 186 203 213 213 202 175 132 84 49 30 24 26 38 63 100 140 170 184 182 164 135 100 70 51 46 53 70 91 111 122 122 112 97 84 81 93 120 152 181 197 200 186 158 119 84 60 53 62 90 133 175 203 214 211 192 155 107 67 42 32 30 33 41 54 71 95 121 148 173 193 209 221 229 234 235 232 220 193 
134 84 51 35 35 50 82 128 175 208 225 233 235 232 224 211 192 169 149 140 145 162 184 202 212 212 200 172 127 79 45 28 24 29 46 80 127 173 203 215 214 200 174 136 96 65 49 45 50 60 70 76 76 72 67 67 77 103 139 173 196 204 196 171 133 92 61 45 45 62 98 147 189 213 221 215 193 153 103 63 40 31 29 32 37 45 56 72 91 115 142 170 194 212 224 231 232 228 213 182 
117 71 44 34 38 58 97 149 194 220 233 237 236 230 219 200 175 147 125 115 121 141 168 192 207 210 201 175 132 85 50 32 27 34 55 95 147 193 220 231 230 221 200 166 125 87 61 48 44 45 48 49 48 47 48 56 76 111 152 186 203 203 186 151 106 68 44 35 40 62 103 154 196 219 225 217 194 155 106 67 45 36 34 35 38 41 47 54 65 82 106 137 170 197 215 225 228 221 203 167 
98 59 37 31 39 64 109 163 204 227 236 237 232 221 202 174 141 109 87 79 87 109 143 177 200 209 204 184 147 101 63 41 34 40 62 103 156 200 224 235 235 229 214 188 153 114 83 63 52 46 43 40 37 36 40 52 77 117 160 191 203 196 169 127 82 50 33 29 37 60 102 155 196 218 223 216 193 156 110 74 53 44 41 40 40 40 40 42 46 55 74 104 142 179 205 219 222 213 190 148 
81 47 31 29 39 66 113 168 208 228 235 233 223 204 174 136 98 69 53 48 56 79 117 160 192 208 210 197 168 125 84 55 42 45 64 102 152 194 219 230 233 229 219 202 176 145 115 92 75 64 54 46 40 37 40 54 82 123 165 191 198 184 150 104 63 37 26 25 34 57 97 147 188 210 215 207 185 151 113 82 64 55 51 48 44 40 36 33 33 38 51 78 119 163 195 212 215 204 175 129 
66 38 26 25 36 63 111 166 206 225 230 225 208 177 136 94 61 40 30 28 36 58 97 146 187 209 216 210 188 152 108 72 52 49 62 93 136 176 203 217 223 222 217 207 192 172 151 132 114 98 82 67 55 48 49 63 91 131 169 190 192 172 132 86 50 30 22 22 32 52 86 131 169 190 196 187 167 139 110 89 77 71 66 60 51 42 35 29 26 29 40 65 107 154 190 208 210 196 161 112 
56 32 22 22 32 57 102 157 199 219 223 212 186 145 98 60 36 22 17 18 27 48 88 141 186 212 222 220 205 174 131 88 61 51 56 77 109 145 174 192 202 206 207 204 199 191 182 171 159 143 124 102 82 69 67 79 107 143 174 190 187 164 122 77 45 28 22 23 32 48 75 109 140 158 161 153 137 118 103 95 93 92 88 77 63 49 37 29 25 28 40 66 109 156 192 208 208 189 149 98 
48 27 19 19 28 50 92 145 189 211 213 197 162 113 68 38 21 13 11 14 24 47 89 144 189 216 227 226 214 188 146 100 66 50 49 60 81 108 134 155 170 180 188 194 198 201 201 199 193 183 166 142 118 99 93 103 127 158 182 193 188 164 124 81 50 34 29 30 37 50 68 89 108 117 117 110 101 95 95 103 113 119 117 104 83 62 45 34 31 35 51 82 125 169 199 212 208 185 141 88 
44 24 17 17 24 44 82 134 179 201 202 181 140 89 49 25 14 10 10 15 27 54 99 154 197 220 230 229 217 192 150 102 66 48 42 47 58 75 95 114 132 148 164 179 192 202 209 213 212 206 194 173 149 128 119 127 148 173 192 199 194 173 139 101 70 53 47 48 53 62 71 79 83 83 78 73 71 75 90 112 135 149 150 137 113 86 64 51 47 55 76 111 153 188 210 218 210 183 135 82 
41 23 15 15 23 41 77 127 172 195 194 170 126 76 40 20 12 10 12 19 36 69 118 169 205 224 230 227 213 185 142 95 62 44 38 40 47 58 71 86 103 121 142 163 182 198 209 216 218 214 204 186 164 144 136 144 163 184 200 207 203 189 164 134 108 91 84 83 86 88 88 82 73 63 54 50 52 65 90 124 156 176 180 170 148 121 96 81 80 91 116 150 183 208 221 223 212 182 131 78 
40 22 16 16 25 44 80 129 172 194 192 168 123 74 39 21 14 13 17 29 53 92 142 186 213 226 227 219 200 167 123 82 54 41 38 40 48 57 69 81 95 111 130 152 172 189 202 209 211 208 197 179 159 142 137 148 169 191 206 214 213 205 191 172 154 142 136 135 134 130 118 99 77 58 45 40 46 65 98 139 175 196 202 196 180 158 137 124 124 137 160 186 208 223 229 227 213 180 128 75 
39 24 18 21 32 55 94 141 180 199 197 174 131 83 47 27 20 21 29 48 79 123 168 201 219 224 220 204 177 138 97 65 47 40 42 51 63 76 88 100 110 121 134 149 163 176 186 191 191 185 172 153 134 122 123 139 165 191 209 219 221 218 211 202 193 187 184 183 180 172 154 127 94 65 48 43 51 74 112 156 190 209 215 212 201 187 172 164 166 177 193 210 223 231 233 228 211 175 123 72 
40 28 26 32 48 77 118 162 193 208 206 186 149 102 64 41 33 37 51 77 114 157 192 213 221 219 205 179 143 104 71 50 41 43 54 72 93 113 128 137 143 146 149 152 155 158 160 160 155 145 130 113 98 91 98 119 152 184 207 220 225 226 223 220 216 214 214 213 210 202 184 155 118 84 62 56 67 94 134 174 202 217 221 218 211 200 191 186 189 198 210 221 229 233 232 224 203 166 115 68 
44 37 40 53 76 111 151 186 208 218 216 200 170 129 90 65 57 64 84 116 153 187 209 220 219 207 182 146 105 71 49 39 39 50 73 103 134 158 173 179 179 175 167 157 146 136 127 119 110 99 86 73 64 62 72 96 132 170 199 216 224 227 227 226 225 225 225 225 223 216 202 177 143 110 88 83 96 123 158 189 210 219 220 215 207 197 189 186 190 199 209 218 224 226 222 211 188 149 103 65 
52 54 66 87 117 151 183 207 221 226 223 212 189 156 121 97 90 100 125 157 187 208 220 222 213 190 153 110 72 47 34 32 40 61 96 137 173 196 206 209 206 196 180 159 134 111 94 82 72 62 53 46 42 43 52 74 108 149 183 205 216 220 221 221 221 222 223 223 222 217 207 188 163 138 122 120 132 156 181 201 212 214 210 200 188 175 166 163 168 177 189 198 204 205 200 186 160 125 90 64 
67 80 102 131 161 188 208 222 229 231 227 218 200 174 145 126 122 136 161 187 208 221 225 220 203 170 124 79 47 31 25 28 43 72 117 165 200 218 226 226 220 207 185 153 119 89 69 56 47 41 36 32 30 32 40 57 85 122 157 182 195 201 202 202 202 203 204 206 206 203 197 186 172 159 152 155 167 183 197 206 207 201 188 170 151 134 123 120 125 135 147 158 165 166 160 145 123 98 77 66 
86 111 142 172 196 213 224 230 232 231 226 216 199 177 153 139 140 156 181 203 219 227 226 217 193 151 100 57 33 22 20 27 45 81 133 183 215 230 234 232 224 208 179 141 101 71 52 41 35 32 29 27 26 28 34 46 66 94 123 146 159 163 163 162 161 162 164 167 169 170 169 167 166 167 172 180 190 200 205 203 193 175 151 126 103 86 77 74 78 86 96 105 112 114 109 100 87 74 68 71 
106 140 173 198 215 225 229 231 230 226 218 204 185 161 140 130 136 156 182 205 220 227 225 213 185 137 84 45 25 17 17 26 46 86 141 191 221 234 237 233 222 200 165 122 83 56 42 35 32 31 30 29 29 30 34 42 56 73 92 106 113 114 111 107 105 105 108 111 115 120 125 133 145 161 178 192 202 206 203 191 169 139 108 81 62 49 43 42 45 50 57 63 68 70 69 65 61 60 65 80 
120 156 187 208 220 225 227 225 220 212 198 179 154 129 110 103 112 135 165 194 213 222 222 210 180 131 78 41 22 15 16 25 45 85 142 192 221 233 235 229 213 185 143 99 65 46 37 35 36 37 39 39 40 41 44 49 56 65 73 77 76 71 66 61 58 57 58 61 65 71 79 94 116 145 173 194 204 205 194 171 137 101 71 49 36 29 27 27 29 33 38 43 47 49 50 50 51 56 67 88 
124 157 184 201 210 214 213 208 200 186 166 141 113 90 74 70 79 102 135 170 198 214 218 208 181 134 82 44 24 16 16 24 43 81 136 187 218 230 231 221 200 164 118 77 51 39 37 41 47 54 60 63 65 65 67 69 71 73 72 67 59 50 42 36 32 30 30 31 34 38 47 62 88 125 162 188 200 197 178 145 105 70 46 32 24 22 22 25 28 33 38 43 47 50 51 53 55 61 73 94 
118 141 162 176 183 185 183 177 166 149 126 100 76 57 47 44 51 69 99 137 174 200 212 208 187 147 96 55 31 20 17 23 40 74 126 178 211 225 224 212 184 142 95 60 42 38 43 55 71 86 97 104 106 107 107 106 104 99 90 77 62 48 36 28 23 20 18 18 19 22 29 43 68 107 149 180 191 184 158 119 79 50 33 24 22 24 28 35 42 50 58 65 70 73 74 74 75 77 83 97 
102 113 124 133 138 140 139 135 126 111 92 71 53 39 31 29 32 44 67 103 146 183 204 209 196 165 120 76 45 28 21 24 37 66 114 166 202 218 217 202 170 124 78 50 39 42 56 79 106 129 145 153 156 156 154 152 147 139 126 108 86 66 48 35 26 20 17 15 15 16 22 34 58 96 139 171 182 170 139 97 61 39 28 25 28 36 48 61 76 89 101 110 115 118 118 114 108 101 96 96 
84 82 83 86 89 92 94 96 94 87 75 61 46 34 26 22 23 30 45 75 118 163 195 209 207 187 151 108 69 43 30 27 35 59 102 153 192 211 211 195 161 114 73 49 44 54 78 112 145 171 186 193 195 194 191 189 185 178 167 149 127 102 78 58 43 32 24 19 17 18 22 34 58 95 136 166 174 159 124 84 52 35 30 34 45 62 84 107 128 145 157 165 169 170 167 160 147 130 110 94 
69 58 53 52 54 58 66 75 83 86 81 70 56 41 30 23 20 22 32 55 94 143 186 209 215 206 183 146 104 68 45 34 37 55 91 140 182 204 207 193 161 117 79 58 57 75 107 145 179 200 211 215 214 212 209 207 206 203 197 187 171 149 125 100 77 59 44 34 28 27 31 44 68 104 143 168 172 153 117 78 51 38 39 50 72 102 133 161 181 194 203 207 209 208 204 195 179 153 121 91 
60 43 36 34 37 44 58 76 94 107 110 101 83 63 44 30 22 20 26 43 76 126 176 208 222 221 208 182 144 102 68 47 42 53 83 128 172 198 205 195 169 131 97 79 82 103 138 174 201 216 222 222 218 214 210 209 210 212 212 209 203 191 174 152 128 104 82 65 54 49 53 66 92 126 158 177 176 156 119 81 56 47 53 74 107 146 179 202 216 224 228 229 229 227 222 213 196 167 128 89 
57 38 30 29 33 45 66 94 123 145 153 146 127 99 69 45 29 22 24 36 64 112 166 205 225 230 225 209 180 140 98 66 51 54 77 118 161 192 204 200 181 153 124 109 113 135 166 194 212 221 222 218 210 201 195 194 198 205 212 217 218 215 208 195 178 157 134 113 97 89 91 104 127 155 178 189 185 164 129 92 68 60 71 100 140 179 207 224 233 236 237 236 235 232 227 218 201 172 131 88 
61 42 34 33 41 58 86 123 158 182 193 189 173 143 105 69 43 28 24 32 56 100 156 200 225 235 235 226 206 173 129 87 62 57 72 107 150 184 202 204 193 173 152 140 143 161 184 204 215 219 214 203 187 172 161 159 167 181 196 210 220 224 224 219 211 198 181 164 148 139 139 148 165 183 197 202 196 176 144 109 83 76 88 119 159 195 218 230 235 236 235 232 229 226 221 213 198 171 133 92 
76 57 49 49 59 81 114 154 187 208 218 217 206 182 144 100 62 38 28 31 49 88 143 193 223 236 239 235 222 196 154 107 72 59 67 94 134 171 195 202 198 185 169 160 162 174 191 204 211 209 197 177 152 128 113 110 120 139 163 187 206 219 225 227 224 218 209 197 186 179 178 183 192 203 210 212 205 189 161 128 101 90 99 125 160 191 211 221 224 223 220 215 211 206 202 197 186 167 137 104 
104 88 79 79 89 111 142 176 203 220 229 230 224 207 177 133 86 52 34 31 44 77 129 181 216 234 241 239 230 208 170 120 79 59 60 80 115 152 180 192 192 183 171 162 163 171 184 194 197 190 172 143 111 85 69 65 73 91 118 148 176 198 212 219 222 221 216 209 203 198 197 200 206 212 217 217 212 199 176 146 117 99 99 116 142 167 184 193 195 192 185 178 172 169 168 169 168 162 146 125 
142 131 123 120 126 140 161 185 205 219 228 232 230 221 199 161 112 69 43 34 40 65 111 164 205 228 238 239 232 212 175 125 80 56 52 65 92 126 155 171 174 167 156 147 145 152 163 172 174 165 143 111 79 55 42 37 42 54 74 102 132 159 181 195 203 205 204 201 197 195 195 199 205 212 217 218 215 206 188 161 129 104 93 95 108 124 137 143 142 137 130 122 116 116 122 134 148 158 159 153 
180 174 167 161 157 158 165 177 191 205 216 224 228 225 211 182 137 90 55 38 38 55 91 141 187 216 230 234 227 208 171 120 76 51 45 52 72 98 124 140 143 137 125 116 114 119 130 140 144 137 118 90 63 42 31 26 27 33 44 62 85 110 133 151 163 170 172 171 170 169 173 179 189 199 208 214 215 210 196 172 140 108 85 74 74 78 83 85 83 79 72 67 65 68 80 102 130 157 174 181 
206 204 198 187 174 161 152 152 160 173 189 205 216 220 215 195 159 111 70 45 38 46 72 113 159 194 214 221 215 195 157 109 69 46 39 44 57 76 95 107 108 102 91 83 80 84 95 107 116 117 105 85 63 45 33 26 24 25 30 38 51 67 83 99 111 119 123 124 124 126 132 142 156 173 189 202 209 210 201 182 152 115 82 61 51 47 46 45 42 39 36 34 34 40 55 83 123 162 189 202 
222 221 214 199 177 149 125 112 113 125 145 170 192 207 212 202 176 134 89 57 41 41 55 85 124 161 187 197 193 173 137 95 62 43 38 41 51 64 77 83 82 74 65 57 55 59 69 84 100 110 109 98 81 63 49 38 31 27 27 29 34 42 51 60 68 74 77 78 79 80 86 96 112 134 158 180 197 206 204 191 165 128 90 60 42 32 27 24 22 20 19 19 21 28 46 78 124 170 201 217 
230 228 220 201 170 130 95 73 68 75 94 124 157 186 203 204 189 156 113 74 50 40 44 61 89 120 146 160 160 144 115 83 59 47 44 48 57 67 73 74 68 59 49 43 41 45 57 76 99 119 129 127 116 99 81 64 51 41 35 32 32 35 39 43 48 51 52 51 50 50 52 59 71 91 119 150 178 197 204 200 181 149 108 72 46 30 22 17 15 13 13 14 18 27 47 83 133 180 210 225 
232 230 219 197 158 110 70 47 38 41 55 81 119 160 190 203 199 177 140 99 66 46 41 46 61 82 103 118 123 116 99 81 67 61 62 69 78 85 86 80 68 55 44 38 36 42 56 81 112 141 159 164 159 145 127 106 86 69 57 49 45 44 46 48 50 50 48 45 40 37 35 37 44 58 82 115 152 183 202 206 197 173 137 97 64 41 27 20 16 14 14 16 21 32 54 92 143 187 215 228 
229 226 214 188 145 95 55 32 23 23 32 53 89 136 178 201 207 195 168 129 90 60 44 40 45 57 71 85 95 99 97 93 90 91 97 107 115 119 114 99 79 59 46 38 38 47 66 97 134 166 187 196 195 186 172 153 131 110 93 82 75 73 73 74 75 72 66 57 47 37 30 28 30 38 55 85 125 166 196 210 210 196 170 135 97 67 45 33 26 22 22 25 30 42 65 103 149 189 213 225 
218 215 203 176 133 85 48 28 18 17 22 39 71 120 169 201 213 210 192 161 120 81 55 42 39 44 54 67 83 99 111 120 128 135 145 154 160 159 148 125 95 69 51 44 46 59 85 122 160 189 207 215 216 211 201 187 170 153 137 127 121 120 121 122 122 117 106 89 69 49 35 26 24 27 38 62 100 148 187 211 219 214 199 174 141 108 80 61 49 43 41 43 48 59 79 110 148 180 202 213 
192 193 183 160 123 81 48 29 19 16 20 34 64 113 166 202 219 221 211 187 150 107 70 48 39 40 47 63 85 112 137 155 169 179 187 193 196 191 176 148 112 79 59 52 58 78 111 150 184 207 219 224 224 220 213 202 190 179 170 166 166 169 172 175 175 170 157 135 104 72 47 30 22 22 28 46 80 128 176 208 223 226 220 205 183 157 130 108 92 82 78 77 78 84 94 112 135 157 174 186 
151 157 156 143 117 84 56 36 25 20 23 36 67 116 169 206 224 229 223 207 175 131 87 57 42 40 47 66 96 132 164 187 200 209 214 217 216 209 191 160 120 86 66 62 74 102 139 176 202 218 225 227 224 217 208 197 187 181 181 185 192 200 207 211 212 209 199 178 145 103 64 38 24 20 23 36 64 109 161 201 223 231 231 224 213 196 178 161 146 136 130 125 119 114 109 108 112 121 131 141 
102 116 126 128 117 96 71 49 35 28 30 43 75 125 177 211 228 233 231 218 191 149 100 64 46 41 50 71 108 151 186 208 219 225 228 228 224 214 193 159 118 85 68 70 89 124 163 195 215 225 227 224 216 204 188 172 162 160 167 181 197 212 222 229 231 230 224 208 178 134 85 48 28 19 20 29 51 91 143 189 218 231 235 233 227 219 209 199 191 184 178 171 160 142 120 100 86 81 83 91 
64 83 105 123 128 117 95 71 51 39 39 53 86 137 185 216 231 236 234 223 198 156 106 67 46 41 50 75 116 163 199 219 229 233 234 231 225 210 184 146 106 77 66 73 100 140 180 208 222 228 226 218 202 178 152 130 118 119 132 156 183 207 224 234 239 239 236 225 201 159 106 61 33 21 18 24 40 73 121 170 204 223 231 233 231 227 222 218 215 212 209 201 187 162 127 91 65 52 48 52 
44 66 97 128 146 145 127 98 70 53 49 63 97 146 191 219 233 237 234 222 196 153 102 63 43 39 49 74 118 167 203 224 233 236 235 230 219 199 166 125 87 64 59 72 103 147 187 213 225 227 222 207 181 146 110 84 72 74 89 118 154 189 214 230 238 241 240 232 214 178 126 75 41 24 19 21 33 57 96 142 180 204 217 221 222 222 221 221 222 223 222 216 202 174 131 86 53 35 29 32 
38 65 104 143 169 173 156 124 89 65 57 69 102 150 193 220 232 236 231 217 187 140 90 55 37 34 44 69 112 163 202 223 233 235 232 225 209 182 142 100 68 52 51 67 100 145 186 212 224 224 216 195 160 115 76 52 41 42 54 79 117 159 194 218 232 238 239 234 220 192 145 93 53 31 22 22 29 44 72 108 143 170 186 194 197 200 204 209 216 221 224 221 208 180 135 85 48 29 22 25 
45 77 121 164 189 193 177 143 102 72 60 69 100 146 190 217 230 232 226 208 173 122 75 44 30 29 38 60 101 152 193 218 229 231 227 216 194 160 118 79 53 43 44 60 91 135 177 204 217 218 207 182 141 95 57 35 26 26 33 51 81 121 163 196 217 229 234 232 223 201 163 115 72 45 32 27 29 37 53 75 100 122 136 145 151 158 168 181 196 210 218 220 210 185 141 90 51 31 24 28 
65 102 147 184 204 205 186 149 104 70 56 62 90 134 180 210 225 227 219 197 156 104 60 35 24 24 32 51 87 135 179 207 219 222 216 201 175 138 98 66 47 39 42 55 81 119 158 187 202 205 195 170 130 87 53 33 23 21 24 34 54 85 123 161 190 210 221 224 221 207 180 142 102 71 51 41 37 38 44 53 64 75 83 89 94 102 116 137 163 188 206 214 209 189 151 103 64 42 36 43 
99 137 175 202 214 209 185 143 96 62 47 52 75 117 165 200 218 222 212 186 141 89 50 29 21 21 28 45 74 116 158 188 202 204 197 179 152 118 86 62 49 44 46 55 73 100 132 159 177 183 177 158 127 91 62 43 31 26 25 28 38 57 84 117 149 177 196 208 213 208 194 170 139 110 87 70 58 49 44 43 43 45 46 48 50 56 69 91 123 159 189 205 207 193 163 123 86 65 61 73 
