P2
100 100
255
130 139 147 151 149 142 129 115 103 96 95 99 110 123 138 149 155 155 150 138 123 108 95 86 81 82 86 95 106 118 129 138 142 143 140 135 128 121 114 108 104 101 100 102 107 114 124 134 143 148 149 145 136 124 110 99 91 87 88 91 97 106 114 122 129 134 138 140 142 142 141 139 135 130 126 122 118 115 112 108 103 98 92 87 83 83 86 94 107 122 137 149 154 154 148 139 130 123 121 124 
146 153 157 157 151 140 124 108 94 87 85 90 100 114 130 143 150 152 147 137 124 109 97 89 85 86 91 99 109 119 129 135 137 137 134 130 126 123 120 118 116 113 110 109 108 111 115 122 130 137 141 142 139 133 124 116 109 104 102 102 103 105 108 111 113 116 120 125 131 138 144 148 150 149 147 143 137 130 121 111 101 92 85 79 76 77 81 91 104 119 135 147 153 155 151 145 139 136 136 140 
158 163 166 163 154 140 122 103 89 81 79 84 94 108 124 138 147 151 148 140 128 116 106 99 96 97 101 108 116 123 128 131 130 128 125 123 123 125 128 130 131 129 125 120 114 110 108 110 116 123 130 137 140 141 139 135 130 125 120 116 111 107 103 101 99 100 104 111 121 134 146 156 162 165 165 161 154 144 131 117 104 92 84 78 76 78 83 93 106 120 134 144 150 152 150 146 144 144 146 152 
165 170 171 168 157 141 122 103 88 80 78 82 92 106 122 136 147 151 151 145 137 127 119 114 112 113 117 122 127 129 129 126 121 117 114 114 118 126 134 142 147 147 143 134 123 112 104 100 102 108 118 129 139 147 151 152 149 145 138 129 119 109 100 93 89 88 92 101 114 131 147 161 171 176 177 174 166 155 141 124 109 96 87 83 82 85 91 101 112 124 134 141 144 144 143 141 141 144 150 158 
167 173 174 170 160 144 124 105 90 82 80 85 95 108 124 138 148 154 154 151 145 139 134 131 131 133 135 138 138 136 129 121 112 105 102 103 111 123 138 152 161 163 159 149 133 117 102 93 91 95 106 120 136 149 159 164 164 159 151 139 125 111 98 89 83 82 86 95 110 129 148 164 175 181 183 180 172 161 146 130 115 103 95 92 93 98 105 114 123 130 135 137 136 133 130 130 132 138 147 158 
164 172 174 170 161 145 126 108 95 87 87 92 102 115 129 142 151 156 157 155 152 149 146 146 148 150 152 152 149 142 130 116 103 94 90 92 102 118 138 157 169 175 172 161 144 123 103 89 83 86 96 112 131 149 162 170 171 167 158 145 128 111 97 87 81 80 85 95 111 130 149 164 175 181 182 179 172 161 148 133 120 110 105 105 109 116 123 131 136 138 136 131 125 119 114 114 118 127 139 153 
158 167 171 168 159 144 128 112 100 95 96 102 112 124 136 146 153 156 156 154 153 152 152 155 158 162 163 162 157 146 131 113 97 85 80 82 93 112 135 157 174 181 180 171 153 129 106 89 80 80 89 106 127 147 162 171 173 169 159 144 127 110 97 88 83 84 89 100 114 131 148 161 170 175 175 172 165 156 144 132 123 118 117 121 127 135 142 147 148 145 137 125 114 104 98 97 103 113 128 144 
150 161 165 162 154 141 126 114 106 103 106 113 123 133 143 149 152 152 150 148 147 147 150 155 161 166 169 168 162 150 132 112 93 80 74 76 86 105 130 155 174 184 184 176 160 136 111 92 81 79 87 103 124 144 160 169 170 165 154 139 123 108 98 92 90 93 99 109 121 134 146 155 161 163 163 159 153 145 137 129 124 124 127 135 144 153 159 162 159 150 137 120 103 91 84 83 89 101 117 135 
143 154 157 154 146 134 123 114 109 110 116 124 134 142 147 149 147 143 138 135 133 135 140 148 157 164 169 169 164 152 134 113 94 79 72 72 82 99 124 150 170 182 185 179 164 142 118 97 85 83 90 104 123 142 157 164 163 157 145 130 117 106 100 98 101 107 114 122 131 138 144 147 148 147 145 141 137 131 127 123 123 127 135 146 156 166 171 172 166 154 136 115 96 82 75 74 80 92 108 127 
138 147 149 145 136 126 117 112 111 116 124 134 142 147 148 145 138 130 122 117 115 118 125 135 147 157 164 167 164 154 137 118 98 83 75 74 81 97 119 144 165 178 182 178 166 147 125 106 94 91 96 109 126 142 153 157 154 145 133 120 110 104 103 108 115 123 131 137 141 142 140 137 133 129 126 123 120 118 117 118 122 129 140 152 164 173 178 178 171 156 135 112 91 77 70 70 76 88 105 123 
136 143 142 136 127 117 110 109 112 120 131 141 148 149 146 137 126 114 105 99 97 100 108 120 134 147 157 162 161 154 141 124 107 92 83 81 86 98 117 139 158 171 177 175 165 150 132 115 105 102 107 117 131 142 149 150 143 133 120 109 103 103 108 118 130 141 149 152 151 146 137 128 119 113 109 107 107 108 110 114 120 130 142 155 167 176 180 179 172 156 134 110 89 75 69 70 77 89 106 123 
138 141 138 129 118 109 105 106 113 124 136 146 151 150 142 129 114 100 89 83 82 86 94 107 121 136 148 155 157 154 145 133 119 106 97 93 95 104 118 134 150 162 168 168 162 151 137 125 116 114 118 127 136 144 146 142 133 121 109 100 98 102 113 128 143 156 163 164 159 149 135 121 109 102 98 97 99 103 107 112 119 129 140 153 165 174 178 178 170 155 134 110 90 77 72 74 83 96 113 128 
143 143 135 124 112 104 101 105 114 128 141 150 153 148 137 121 103 89 79 74 73 78 87 99 113 127 139 148 152 152 148 142 133 124 116 111 110 113 121 131 142 151 156 158 155 148 140 132 127 126 130 136 141 144 143 135 124 111 99 93 94 102 116 135 153 166 172 172 164 151 135 118 105 97 94 96 99 104 109 113 119 126 136 147 158 167 173 173 166 152 133 111 93 82 79 82 92 107 123 136 
149 145 135 121 109 101 100 106 118 132 146 154 155 147 133 114 96 82 73 70 71 77 86 97 110 122 132 140 145 149 150 148 145 141 136 131 127 125 125 128 132 137 142 144 144 142 139 136 135 135 138 142 144 144 139 129 116 103 93 89 91 101 118 139 157 171 177 175 167 153 135 119 106 99 98 101 105 110 114 117 119 123 129 138 148 157 163 165 160 148 132 113 98 89 87 93 104 120 134 145 
154 147 135 120 107 100 101 108 122 138 151 158 157 147 131 111 93 80 73 72 76 83 92 102 112 120 127 132 137 142 147 152 155 155 153 149 143 135 129 124 122 123 125 128 131 134 136 137 138 140 142 144 144 142 135 125 112 100 91 87 91 101 118 138 157 170 176 174 166 153 137 121 111 106 107 111 116 120 121 121 119 118 120 126 134 143 151 154 152 143 130 115 103 96 97 104 117 132 145 153 
156 147 134 119 106 101 102 112 127 143 155 161 159 148 131 111 95 83 79 80 86 95 105 113 119 122 123 124 127 133 141 151 159 164 166 162 155 143 131 120 112 108 109 112 118 124 130 135 139 141 143 143 142 138 131 122 111 100 93 90 93 102 117 135 151 163 169 168 161 150 137 125 118 116 119 124 129 130 129 124 118 112 111 113 119 128 137 142 143 138 128 117 108 104 106 114 127 141 152 158 
155 145 131 116 105 101 104 115 130 146 158 163 160 149 133 115 100 91 89 94 102 113 122 127 127 124 119 116 116 121 132 145 158 168 172 170 161 147 130 113 101 95 94 98 106 115 124 132 137 139 140 139 136 133 128 121 113 105 99 96 98 104 115 128 141 151 157 156 152 144 135 129 126 127 131 137 140 139 134 125 115 106 101 101 106 115 124 131 135 133 127 119 113 110 114 122 134 146 155 159 
152 141 127 113 103 100 104 115 131 146 158 163 160 150 135 119 107 102 104 111 122 132 139 140 135 126 115 106 103 108 119 136 153 167 174 173 163 147 126 106 92 84 83 88 97 109 120 129 134 136 135 133 130 127 125 122 119 115 111 107 106 108 113 120 128 135 139 140 138 135 132 130 132 136 142 147 148 145 136 124 111 100 94 92 97 105 115 124 130 131 127 122 118 116 120 128 138 148 155 157 
147 136 122 108 100 97 102 113 128 143 154 159 157 149 137 125 117 115 119 129 140 150 154 151 140 125 108 96 91 95 107 125 146 163 172 171 161 143 120 99 84 76 76 82 93 106 119 129 133 133 130 126 123 122 123 125 127 128 126 123 119 116 113 113 115 117 119 121 122 124 126 130 136 143 149 153 152 146 135 121 106 95 88 87 91 100 111 121 129 132 131 127 124 123 125 132 140 148 153 153 
142 131 117 105 97 94 98 108 121 135 146 152 151 146 137 129 125 127 134 144 155 162 163 156 141 121 101 87 81 84 96 115 138 157 167 167 156 137 113 92 78 71 73 81 94 109 123 132 135 132 125 119 116 117 122 129 137 142 143 141 134 125 116 108 103 101 101 103 107 113 121 130 139 147 153 155 152 144 131 116 102 91 85 85 91 100 112 124 132 136 136 134 131 129 131 136 142 148 151 149 
141 130 116 104 95 91 94 101 112 124 135 141 142 140 135 132 132 136 145 155 164 169 167 156 138 115 94 80 73 76 88 108 131 151 162 162 151 131 107 87 74 70 74 85 100 118 132 139 139 132 122 113 109 111 120 132 145 155 160 158 150 137 121 106 95 89 87 90 96 105 117 129 141 150 155 155 150 140 126 111 98 89 85 87 94 105 118 130 139 144 144 142 138 136 137 140 145 149 150 148 
143 132 119 106 96 91 91 95 103 113 122 128 132 133 132 133 136 143 152 161 168 171 166 153 133 109 89 75 70 73 85 105 128 147 158 157 145 125 103 85 75 73 80 94 112 131 144 149 145 134 120 108 102 105 116 133 151 165 172 171 163 148 128 107 91 82 79 81 89 101 116 131 144 152 156 153 146 134 120 106 95 89 87 91 100 113 127 139 148 152 152 149 146 143 143 144 148 151 152 150 
148 139 126 113 102 94 91 92 96 103 110 117 122 126 129 133 138 146 155 163 168 168 162 147 127 105 86 74 71 75 88 107 129 147 156 154 142 123 102 86 79 80 90 108 128 147 158 160 153 138 119 104 96 98 110 130 152 170 180 181 173 157 134 110 91 79 75 78 87 101 118 134 147 154 155 151 141 128 114 102 94 90 91 97 108 121 135 147 154 158 157 154 150 147 146 147 151 154 155 154 
156 148 137 124 111 101 94 92 93 97 103 109 115 121 126 132 139 148 156 162 165 164 156 141 123 103 87 78 76 82 96 114 134 149 156 153 141 122 104 91 86 91 105 125 146 163 172 171 160 141 119 99 89 90 102 124 149 170 183 186 180 164 140 114 93 79 75 79 89 105 123 139 151 156 154 147 136 123 110 99 93 92 96 104 116 129 142 152 158 159 157 153 148 145 145 147 151 155 159 159 
162 158 149 137 124 111 102 97 95 97 101 107 113 120 126 133 140 147 154 158 160 157 149 136 120 104 93 87 88 95 109 126 143 154 158 153 141 124 108 97 96 104 121 142 162 177 183 179 166 144 118 96 83 82 93 115 142 166 181 187 182 168 145 119 96 83 78 83 95 112 130 145 154 157 153 143 131 118 106 98 95 96 102 111 122 134 145 152 155 155 151 145 140 137 137 140 146 153 159 163 
166 165 159 149 136 124 113 105 102 102 105 110 116 123 130 136 141 146 150 152 152 148 141 131 119 109 102 100 104 113 125 140 152 160 160 154 141 125 112 104 106 117 136 157 175 186 190 185 170 146 118 93 78 75 85 105 132 158 176 184 181 168 147 122 100 87 84 89 102 119 136 150 156 156 149 138 125 113 104 99 98 102 108 118 128 137 145 148 148 144 138 131 125 122 122 127 135 145 155 162 
164 167 164 157 147 135 124 116 112 111 114 119 125 130 135 139 142 144 144 144 141 138 132 125 119 115 113 116 122 131 143 153 161 164 161 152 139 125 114 109 113 126 145 165 181 191 194 188 172 148 118 91 75 70 77 96 121 148 168 178 177 166 147 124 104 92 90 96 109 126 141 151 155 152 143 132 120 110 104 102 104 109 117 125 133 139 142 141 136 129 120 112 105 102 103 109 119 131 145 157 
158 164 164 160 152 142 133 126 123 123 126 131 136 140 143 144 143 140 137 133 129 125 122 119 118 120 124 131 139 148 157 164 167 166 159 148 135 121 112 110 115 129 148 167 182 191 193 187 172 148 118 91 74 68 73 88 112 138 159 170 171 162 145 125 107 97 96 103 116 130 143 150 151 145 136 125 116 109 107 109 113 120 127 133 138 140 138 132 124 113 102 93 86 83 84 90 100 115 131 146 
147 156 159 157 151 143 137 133 132 134 138 143 148 150 150 147 142 135 128 121 115 111 110 111 116 123 132 142 152 161 167 170 169 164 154 141 127 114 106 105 111 125 143 161 176 186 188 184 170 147 119 94 76 69 72 84 105 129 149 161 163 156 142 124 110 102 101 108 120 132 141 145 143 136 127 119 113 111 113 118 125 133 139 143 144 142 136 126 114 100 88 78 71 69 69 74 84 98 115 133 
134 144 148 147 143 139 135 134 136 141 148 154 158 159 156 150 140 129 118 108 102 98 99 103 111 123 136 149 160 168 172 172 167 158 146 131 116 104 97 97 102 114 131 148 164 175 179 176 165 146 121 98 81 74 75 85 102 123 141 153 155 150 137 123 111 105 106 112 122 131 137 137 134 127 119 114 113 116 122 131 139 147 152 154 152 146 137 124 109 94 80 70 64 60 61 65 73 86 102 119 
123 132 135 135 131 128 127 129 135 143 152 159 163 163 159 150 137 123 109 98 90 87 89 95 106 120 136 151 163 170 172 169 162 150 135 119 105 94 88 86 91 100 114 130 145 158 165 165 158 144 125 105 90 83 83 91 105 122 137 147 149 144 133 122 113 108 109 114 122 128 131 129 124 118 114 112 116 123 133 144 154 160 163 163 159 152 141 127 111 95 81 71 63 59 59 62 69 80 94 110 
117 123 124 122 118 115 116 121 129 140 151 160 164 164 159 148 133 117 102 90 83 80 82 89 101 117 135 151 162 168 169 164 155 141 124 108 94 85 79 78 80 87 97 110 124 137 147 151 149 141 128 114 103 96 96 101 112 125 136 143 144 139 130 121 113 110 112 116 121 125 125 122 117 113 111 114 122 133 145 157 165 170 171 170 165 157 147 134 119 105 91 80 71 67 65 67 73 83 95 107 
118 120 117 112 106 103 104 110 120 133 146 155 161 161 155 144 129 113 98 87 80 77 80 87 99 115 133 148 159 165 164 158 146 131 114 99 87 78 74 72 73 77 84 94 105 118 129 137 140 138 132 124 117 112 112 116 123 132 139 142 141 136 128 120 114 112 113 117 120 122 121 118 114 112 113 119 130 143 156 166 173 175 174 171 166 159 152 143 132 120 109 98 90 84 81 82 87 95 104 112 
126 123 116 107 100 95 95 101 111 123 136 147 153 153 148 138 125 111 98 88 82 80 83 90 102 116 132 146 155 159 157 150 137 122 106 93 83 76 72 71 71 73 78 84 93 103 114 124 131 135 136 134 131 129 129 132 136 140 143 143 140 134 126 119 114 113 115 118 120 121 120 117 114 114 118 126 138 151 162 170 174 173 170 165 161 156 153 149 145 139 132 124 116 110 107 107 110 115 121 125 
138 131 121 109 99 93 91 95 103 113 125 135 141 143 139 132 123 112 102 95 91 90 93 99 109 121 134 145 152 154 150 142 129 115 101 90 83 78 76 75 76 77 79 83 88 96 105 115 124 132 137 140 142 143 144 145 147 149 148 145 140 132 124 118 114 114 116 119 121 122 121 119 117 119 124 133 144 155 163 168 167 163 157 151 147 146 148 152 155 156 155 151 146 141 137 136 136 139 141 141 
151 142 129 116 105 96 92 93 98 105 114 122 128 130 130 127 122 116 111 107 105 105 108 113 120 129 137 144 148 147 142 133 122 109 99 91 86 85 85 86 87 88 89 90 93 97 103 111 120 129 136 143 148 151 153 155 156 155 152 146 139 131 123 117 114 114 116 120 123 124 123 122 122 124 130 138 147 154 159 158 153 145 136 129 127 129 137 148 159 167 172 172 170 167 163 161 159 159 158 156 
159 151 139 127 115 105 99 97 97 101 106 111 115 118 121 122 123 123 123 124 124 125 127 130 133 138 141 144 144 140 134 125 115 105 98 94 93 95 99 103 106 108 107 106 105 105 106 110 116 124 133 141 148 153 157 159 159 157 153 146 138 129 121 115 113 114 117 121 125 126 127 126 127 129 133 139 145 148 147 142 132 121 110 103 102 108 121 138 156 171 180 184 184 182 179 175 172 170 168 165 
161 156 148 138 128 118 110 105 101 100 100 102 105 108 113 119 125 132 137 141 144 145 146 146 146 146 145 142 139 133 125 117 108 102 98 99 103 109 117 125 130 132 131 127 122 117 113 112 114 119 126 135 143 150 155 158 158 156 151 144 135 126 119 114 113 115 118 123 127 129 130 129 129 131 133 137 139 138 132 122 110 97 86 80 81 88 104 126 149 169 181 188 189 186 182 178 173 170 168 165 
156 155 152 147 141 133 125 116 109 103 99 97 98 101 108 118 129 140 149 156 159 161 160 158 154 150 145 139 133 125 117 109 103 99 100 104 113 124 136 147 153 156 154 149 140 130 120 114 111 113 118 126 134 142 148 152 152 150 146 139 131 124 118 114 114 117 121 126 129 131 131 130 130 130 130 131 129 125 116 104 91 79 69 65 66 74 90 113 139 162 176 184 184 181 175 168 163 159 157 157 
145 150 153 154 152 147 139 129 119 109 100 95 94 98 106 118 132 146 158 165 169 170 168 163 157 150 142 134 126 118 110 104 100 99 102 110 122 137 152 164 171 174 172 165 154 140 126 115 109 107 110 116 124 132 138 142 143 142 138 132 126 121 117 116 118 121 126 130 132 133 132 130 127 125 124 123 119 113 103 91 79 68 61 57 59 67 82 104 130 152 167 173 173 167 158 149 142 138 138 140 
129 140 150 157 159 158 152 142 129 116 104 97 94 97 106 119 135 150 162 170 173 172 168 162 154 145 137 128 121 113 107 102 99 100 105 116 130 147 162 174 181 184 181 174 162 146 129 115 106 103 104 109 115 122 127 131 131 130 127 124 121 119 119 120 124 128 133 135 136 135 131 127 123 119 117 115 111 105 97 86 75 66 60 57 59 67 81 101 123 143 155 159 155 146 134 123 115 112 114 120 
114 130 145 157 163 165 161 152 138 124 110 101 97 99 108 121 137 151 162 169 170 168 162 154 146 138 130 123 117 111 107 103 102 104 111 122 136 152 167 178 185 186 183 175 162 146 129 115 105 101 102 105 110 115 118 120 119 118 116 115 115 117 121 127 132 138 141 143 141 137 130 123 117 113 110 109 107 103 97 89 81 73 68 66 68 75 87 104 122 136 144 143 135 123 109 98 91 89 92 101 
103 121 139 155 165 168 166 158 146 131 116 106 101 103 111 123 137 149 158 162 162 157 150 142 135 128 123 119 117 114 112 110 110 112 118 128 141 155 167 177 182 182 178 169 156 141 126 114 106 104 105 108 111 113 113 111 109 106 105 106 110 116 125 134 142 148 151 151 146 138 129 119 112 107 106 106 107 107 105 100 95 89 84 83 85 91 101 113 125 133 135 129 118 104 90 80 75 74 78 88 
97 116 135 152 163 169 168 161 150 136 122 112 106 107 114 124 135 144 150 152 149 143 135 128 123 119 119 119 121 121 122 121 121 123 127 134 144 154 164 170 173 172 166 157 145 132 121 114 111 112 115 118 119 117 113 107 101 96 95 98 105 116 129 142 152 159 161 158 151 140 128 116 108 104 104 107 112 116 119 118 116 112 109 107 109 113 119 127 132 134 130 120 106 92 80 71 67 67 72 82 
97 115 133 149 160 166 166 161 151 139 126 117 111 111 116 123 131 137 139 138 133 126 120 115 112 114 117 123 128 132 134 135 135 135 136 140 145 152 157 160 160 156 149 140 130 121 116 115 119 124 130 133 132 127 117 106 96 89 87 91 100 115 132 148 161 168 169 164 154 141 126 113 105 102 104 111 120 129 135 138 139 138 136 134 134 136 139 141 141 137 128 115 101 88 77 71 68 69 74 84 
103 117 131 145 154 160 161 157 149 139 129 120 115 114 117 121 125 128 127 123 118 111 107 105 106 112 120 130 138 144 147 148 147 145 144 144 145 147 148 146 143 136 128 120 113 110 112 119 129 140 148 151 149 140 125 108 94 84 81 85 96 114 134 153 167 173 174 168 156 141 125 111 104 102 107 117 129 141 150 156 158 158 157 156 155 154 153 151 147 139 128 115 101 90 82 77 76 78 83 91 
111 120 130 139 147 151 152 150 144 137 129 122 118 116 116 118 119 118 116 111 105 101 98 100 105 115 126 138 148 155 158 157 155 151 147 144 142 140 137 132 126 117 109 102 99 101 110 123 140 155 165 169 165 153 134 113 94 81 77 81 93 112 135 155 170 176 175 168 155 139 123 110 104 104 112 123 137 150 160 166 169 170 168 167 165 162 159 155 149 139 128 116 105 97 92 90 90 93 97 103 
120 124 128 132 136 139 141 140 137 133 128 123 119 116 115 114 113 110 107 102 98 95 96 101 109 121 134 146 156 161 162 161 156 151 146 141 137 132 127 120 111 102 94 89 88 95 108 127 148 166 178 182 177 164 143 118 95 80 75 79 91 111 134 155 169 175 174 166 152 136 120 110 105 108 117 130 143 155 164 169 171 170 168 166 164 161 157 152 145 137 127 118 111 107 105 106 108 111 114 117 
128 125 123 123 124 126 128 129 129 128 126 122 119 116 113 111 108 105 101 98 95 96 99 106 117 129 142 153 160 163 161 157 151 144 138 133 129 125 119 112 103 93 85 81 82 90 107 130 154 174 186 190 185 171 149 122 98 81 75 78 91 110 133 153 166 171 169 160 146 131 118 110 108 113 123 135 146 156 161 164 163 161 158 156 153 151 148 144 139 132 126 121 117 117 119 123 127 130 131 130 
132 124 117 113 112 113 116 119 122 124 124 122 119 116 113 109 106 103 100 98 98 100 106 115 126 138 149 156 160 159 154 146 138 131 126 122 121 119 115 109 100 91 83 78 79 88 105 129 155 175 188 192 188 174 152 125 100 84 77 81 93 111 132 150 161 164 160 151 138 125 116 111 113 119 129 139 147 152 154 152 148 144 141 138 137 136 136 134 131 128 125 123 124 127 133 138 143 145 144 139 
133 121 111 104 101 102 106 111 117 121 124 124 122 118 114 111 107 104 102 102 104 108 116 125 136 146 153 157 155 150 141 131 122 115 111 111 113 115 115 111 104 95 86 80 80 87 103 126 151 172 185 189 185 172 151 126 103 88 82 86 98 115 133 147 154 155 149 139 129 119 114 114 119 126 135 142 146 146 143 137 130 124 120 119 120 122 124 125 126 125 125 126 130 136 143 150 154 155 152 144 
132 117 104 96 93 95 100 108 116 122 126 127 126 123 119 115 112 109 109 110 113 118 126 135 144 151 154 154 148 138 126 114 104 98 97 101 107 114 119 119 114 104 94 86 83 87 99 119 142 162 176 180 177 165 146 124 105 94 91 96 107 121 135 144 147 144 137 127 119 114 114 118 125 134 141 145 145 140 131 121 112 106 103 103 107 112 117 121 124 126 128 131 135 142 150 156 161 160 155 145 
129 113 100 92 89 92 99 108 118 127 132 134 133 130 126 122 119 117 117 119 122 128 134 142 148 153 153 149 140 127 112 99 90 86 87 94 105 117 127 131 128 118 106 95 88 88 96 111 130 148 161 166 163 152 137 120 107 101 102 109 119 131 139 143 140 134 125 116 111 111 115 123 133 142 147 148 143 133 121 109 99 93 92 95 101 108 116 123 127 130 132 135 140 146 154 160 163 162 156 144 
127 111 99 91 89 93 102 113 124 134 140 142 141 138 134 131 128 126 126 128 131 135 140 146 150 152 150 144 132 118 102 89 81 78 82 92 107 124 137 144 143 135 121 107 95 91 93 103 117 131 142 146 144 136 126 115 109 109 114 123 134 142 145 143 135 125 115 107 105 109 117 129 140 148 152 149 141 129 114 101 92 88 88 94 102 112 122 129 134 136 138 140 143 149 155 160 163 161 155 143 
126 111 99 93 93 99 109 121 133 143 149 150 149 146 142 139 136 134 134 134 136 138 142 145 148 149 146 139 128 113 98 85 78 76 82 94 112 131 148 157 158 150 136 119 104 95 93 97 106 116 123 126 124 119 113 110 110 116 126 138 147 152 151 143 131 118 107 101 102 109 121 134 146 154 155 150 140 126 111 98 91 89 91 99 109 120 129 136 140 141 141 141 144 148 154 159 161 160 153 141 
126 112 102 97 99 106 118 131 143 152 156 157 155 152 148 144 141 139 138 137 137 138 139 142 144 145 143 137 127 113 99 87 80 79 85 99 118 139 157 167 169 162 148 130 113 101 95 95 99 105 109 110 108 105 103 104 111 123 137 150 158 160 155 143 127 112 101 97 100 110 124 139 151 157 157 150 138 124 110 99 94 94 98 107 118 128 136 141 143 142 140 140 141 146 151 156 159 157 151 140 
126 114 105 102 105 114 127 140 151 159 162 161 158 154 149 145 141 139 137 135 134 133 134 136 138 140 140 137 129 118 106 95 87 86 92 105 124 145 162 172 174 168 155 138 121 108 100 98 99 101 102 101 98 96 96 101 112 127 144 158 165 165 156 141 123 107 96 94 99 111 126 142 153 158 156 148 136 123 111 102 99 101 107 116 125 133 139 141 140 137 134 133 135 140 147 153 156 155 149 139 
125 113 106 105 110 120 133 146 157 163 164 162 157 151 145 140 137 134 132 129 127 126 127 129 133 137 139 139 135 127 116 105 97 95 99 111 128 147 163 173 175 169 158 143 128 115 108 106 106 106 104 100 96 92 93 99 112 129 147 161 167 165 154 137 118 102 92 91 98 112 128 142 152 156 152 144 133 121 112 107 106 109 115 122 129 133 135 134 130 126 123 123 126 133 141 149 153 153 147 137 
122 111 105 104 110 122 136 149 159 163 163 159 152 144 137 132 128 125 123 121 119 119 120 123 129 135 140 143 142 137 127 117 108 104 106 115 129 145 159 168 170 165 156 144 132 123 118 117 118 117 113 107 100 95 94 100 112 130 147 160 165 161 149 131 111 97 89 90 98 112 127 141 149 151 147 139 129 120 113 111 112 116 121 125 128 128 126 121 116 111 110 111 117 127 137 146 151 150 144 134 
116 105 100 100 107 119 134 147 157 161 159 153 144 134 126 120 116 114 112 112 112 113 115 120 127 136 143 148 149 145 137 127 117 111 110 116 127 140 151 158 160 157 149 141 133 129 129 131 133 132 128 120 110 102 99 103 113 129 145 156 159 154 141 123 105 92 87 89 98 111 126 137 144 144 139 131 124 118 115 115 117 121 124 125 123 119 113 107 101 98 98 102 111 123 135 145 150 148 141 129 
109 98 92 93 101 113 129 143 153 156 154 146 135 124 114 107 103 102 103 104 106 109 114 121 129 139 147 153 155 151 144 133 122 114 111 114 121 131 140 146 148 145 140 135 132 133 137 143 147 148 144 134 123 112 106 107 115 128 141 150 153 146 133 116 100 89 86 90 99 112 124 133 137 135 130 124 118 115 115 118 122 125 125 123 118 110 102 95 89 88 91 98 110 124 138 147 151 147 137 123 
102 90 84 85 92 105 121 136 147 151 148 139 127 114 104 97 94 93 95 99 103 109 116 125 134 143 151 156 157 153 145 134 122 113 109 109 114 122 129 134 135 134 131 129 130 135 143 152 158 160 157 147 135 122 114 113 118 128 138 146 146 140 127 111 98 90 88 93 102 114 124 129 130 127 121 116 113 113 116 121 126 128 127 122 113 104 94 87 84 85 91 101 116 131 145 153 154 148 134 118 
95 82 77 77 85 98 114 130 142 147 144 135 122 109 98 91 87 88 92 97 104 113 122 131 141 149 155 158 156 151 142 130 118 109 105 104 108 114 120 124 125 124 123 123 127 135 145 156 164 167 164 155 143 130 121 118 121 129 137 143 143 136 125 112 101 95 95 100 109 118 125 127 125 119 113 109 109 112 118 125 130 132 129 122 113 102 93 87 86 90 98 112 128 143 155 160 159 149 132 113 
90 77 71 72 80 93 110 127 140 145 143 135 122 108 96 89 86 87 91 99 108 119 130 139 148 154 157 156 152 145 134 123 112 104 100 101 105 111 116 120 121 120 119 120 124 133 144 156 164 167 165 157 145 133 125 122 124 131 139 143 143 137 128 117 109 105 107 112 120 126 128 127 121 114 108 105 106 112 120 129 135 137 134 126 116 106 98 94 95 102 113 128 144 157 166 168 163 150 131 109 
87 75 69 70 78 91 109 126 140 147 146 138 126 112 99 91 88 89 95 104 115 127 138 147 154 157 157 153 146 136 124 113 105 99 98 100 106 112 118 121 122 121 119 120 123 131 141 151 158 161 158 151 141 131 125 124 127 135 142 147 147 142 135 127 122 120 123 128 133 136 135 129 120 111 104 102 105 113 124 134 141 143 140 133 124 115 109 107 111 119 132 146 160 170 175 175 167 151 129 106 
87 75 71 73 81 95 112 130 144 151 151 144 132 119 106 97 93 95 100 110 122 135 146 154 158 158 154 147 137 125 114 105 99 97 98 104 111 119 125 128 129 126 124 123 124 129 136 143 148 149 146 139 131 124 121 123 130 138 147 152 153 150 145 140 137 137 140 144 147 147 142 133 121 110 103 102 107 116 128 139 146 149 146 140 133 126 122 123 129 138 150 162 172 178 181 177 167 150 128 105 
90 80 77 81 90 103 120 137 150 156 157 151 140 127 115 106 102 102 108 118 130 142 152 158 160 157 150 139 127 115 105 98 95 97 102 111 121 129 136 139 138 135 131 127 126 127 130 133 134 133 129 123 117 114 115 121 130 141 151 157 159 157 154 151 150 152 155 159 160 157 149 137 124 112 105 104 110 120 132 143 151 153 151 146 140 136 134 137 143 152 162 171 177 181 180 175 163 146 126 106 
95 89 89 94 103 117 132 145 156 161 161 156 147 135 124 115 111 111 116 126 137 148 156 160 159 153 143 130 117 106 98 94 95 100 109 121 132 141 147 149 148 144 138 133 129 126 125 123 121 117 112 106 103 103 108 117 130 143 154 160 163 162 160 158 159 161 165 168 168 163 154 141 127 115 108 108 115 125 137 147 154 155 153 148 144 141 141 144 151 158 166 172 175 176 173 166 155 139 123 107 
103 102 104 111 121 132 144 154 161 164 163 158 150 141 131 123 119 120 124 133 143 152 158 159 156 148 135 121 108 98 93 92 97 106 118 131 143 152 157 157 155 150 143 137 131 126 121 116 110 104 98 93 91 93 101 113 128 142 154 160 162 161 160 159 160 163 167 170 170 165 156 143 130 119 113 114 121 131 142 150 154 154 151 146 141 139 140 143 149 155 160 163 164 162 158 150 141 129 118 109 
112 116 122 130 138 147 154 159 162 163 161 157 150 143 135 129 126 127 131 138 146 154 157 157 151 141 127 113 101 93 90 93 101 113 127 141 152 159 162 162 158 152 145 138 132 126 119 112 104 96 89 84 84 87 96 109 125 140 150 156 157 155 152 151 153 157 161 165 166 162 154 143 131 122 118 121 128 137 146 151 153 150 144 138 133 131 131 135 139 143 146 147 145 142 136 130 124 118 113 111 
122 130 139 147 153 158 160 161 161 159 156 151 146 141 136 132 130 132 136 142 149 154 156 154 146 134 120 106 95 89 89 94 105 119 135 148 158 163 164 161 156 149 143 137 131 126 119 111 103 94 86 82 81 85 94 107 122 136 145 148 146 142 138 136 137 142 147 152 155 153 147 139 130 125 124 127 135 143 149 151 149 143 135 127 121 118 118 120 123 126 127 126 123 118 114 110 107 107 109 114 
129 141 150 157 162 163 162 159 155 151 147 143 140 136 133 132 131 134 138 144 149 153 154 150 142 129 114 101 91 87 88 95 108 123 139 152 160 163 162 156 150 143 137 132 129 125 121 114 106 97 90 84 83 87 95 108 121 132 137 137 133 126 119 116 117 121 128 134 138 139 136 132 128 126 128 133 140 147 150 149 143 134 123 113 106 103 103 104 107 108 108 106 103 99 96 94 96 100 107 117 
134 146 156 161 163 161 157 152 146 141 136 133 131 129 129 128 130 133 137 143 148 152 152 148 138 125 110 97 88 85 87 96 109 125 141 153 159 160 156 149 141 133 128 125 124 124 123 119 113 105 97 92 90 93 100 110 121 128 131 127 119 110 101 97 96 100 106 113 119 122 124 124 124 126 131 138 145 149 149 145 136 124 111 101 94 91 91 92 95 96 96 94 91 88 86 87 90 97 108 120 
136 146 154 157 157 154 148 142 135 130 126 124 122 122 122 123 125 129 134 139 145 149 150 146 137 124 110 97 88 84 87 95 108 124 139 151 156 156 150 141 131 123 118 117 120 123 125 125 121 115 109 103 101 103 108 116 123 128 126 120 109 98 88 83 81 84 89 96 102 108 112 115 120 126 133 141 147 150 147 140 128 115 102 92 86 84 84 87 90 92 92 91 90 88 87 89 93 100 111 123 
134 141 146 147 145 142 136 130 125 121 118 116 116 116 116 117 118 122 127 133 140 145 148 145 138 126 112 99 89 85 86 93 105 120 136 147 152 151 145 135 124 115 111 111 115 121 127 130 130 126 121 116 113 114 118 123 128 130 126 118 106 93 83 76 74 75 79 85 91 97 103 109 117 125 134 142 147 148 144 134 121 107 95 87 82 82 85 89 94 97 99 100 99 98 98 99 102 108 116 125 
129 132 133 132 130 127 123 120 117 115 114 113 112 111 110 110 110 113 117 124 133 140 146 146 142 132 119 105 94 87 86 91 102 116 130 142 148 148 142 132 120 111 106 107 112 120 128 135 137 136 133 129 126 125 128 131 134 134 130 121 109 97 86 79 75 75 78 82 87 92 99 106 115 125 135 142 147 146 140 129 116 102 92 86 85 87 93 99 106 112 115 117 117 116 116 116 117 120 123 126 
123 121 118 116 114 113 113 113 114 115 115 114 113 110 106 103 101 102 106 114 124 135 144 148 148 141 129 115 102 93 88 90 98 111 125 138 145 147 142 133 121 111 106 105 110 119 129 137 142 144 142 138 136 135 136 138 140 140 137 129 119 108 98 90 86 84 84 86 89 93 99 107 116 126 135 142 145 143 135 124 112 101 93 90 92 98 107 116 125 132 136 139 139 139 138 136 134 132 129 126 
117 110 105 102 102 104 107 112 116 119 121 120 116 111 104 98 94 92 95 103 114 128 142 151 155 152 142 129 114 101 93 91 96 106 120 134 143 147 145 137 126 116 109 107 111 119 129 139 145 148 147 144 141 140 140 142 145 146 145 140 133 125 117 109 104 100 98 97 97 99 104 110 119 128 136 142 143 140 132 121 110 101 97 98 104 113 125 136 145 152 157 159 159 159 156 153 148 141 133 125 
111 102 96 94 95 100 107 115 123 128 131 129 123 115 105 95 88 85 86 93 106 122 140 154 162 163 156 144 128 112 100 94 95 103 116 130 142 149 149 143 134 123 115 112 114 121 130 139 146 149 149 146 143 141 140 142 145 148 150 150 148 144 138 133 127 122 117 112 110 109 111 116 123 131 138 143 142 138 130 119 110 105 104 109 118 130 143 154 162 168 171 172 172 170 168 163 156 147 135 123 
107 98 92 91 95 102 112 123 133 139 142 140 133 121 108 95 85 80 80 86 99 117 138 156 168 172 169 159 143 125 109 99 96 101 113 127 141 150 153 149 141 131 123 118 118 123 131 139 145 148 148 144 140 137 136 137 141 147 152 156 159 159 158 154 149 143 136 129 123 119 119 122 128 135 141 144 143 137 129 120 113 110 112 120 131 144 156 166 172 176 177 176 175 173 170 165 158 147 134 120 
107 98 94 95 100 109 121 133 143 150 153 150 143 130 115 100 87 79 77 82 94 113 136 157 172 179 179 171 156 138 119 105 99 101 110 124 138 149 154 153 147 137 129 123 122 126 132 139 144 146 145 141 135 130 128 129 133 140 148 156 163 167 169 169 165 160 152 143 134 128 126 128 133 139 144 146 144 139 130 122 116 115 119 129 141 153 164 171 174 175 174 171 169 166 163 159 153 143 131 119 
110 104 102 103 109 119 130 142 152 159 161 159 152 140 125 108 93 83 78 81 91 109 133 156 173 183 185 179 166 148 128 111 102 101 108 120 134 146 152 153 148 140 132 127 125 128 133 139 143 144 142 136 129 122 118 118 121 129 139 149 160 167 173 174 172 167 159 150 141 134 130 132 136 142 147 149 147 141 133 125 120 119 124 134 145 156 164 168 168 165 161 157 154 151 149 147 143 137 129 119 
118 114 113 116 121 129 138 148 156 162 165 164 159 150 136 120 104 92 84 83 91 106 128 151 170 182 186 182 171 154 134 116 104 101 105 116 128 140 147 148 145 139 132 128 127 129 134 139 143 143 139 132 123 115 109 107 109 115 125 137 149 159 167 171 170 166 159 150 141 134 131 133 138 144 149 152 150 144 136 128 123 122 126 134 144 152 156 157 154 148 142 136 132 130 131 132 132 131 127 122 
128 127 128 129 132 137 142 148 154 159 163 165 163 158 148 135 119 104 93 88 92 103 122 144 163 177 183 181 172 157 137 119 106 100 103 111 121 132 138 140 138 133 128 125 125 129 134 139 142 141 137 129 119 110 102 98 98 102 110 121 133 144 153 159 160 158 152 144 136 131 130 132 138 145 151 153 152 147 139 131 125 123 125 131 137 141 143 140 134 126 118 112 109 109 112 118 123 127 129 129 
141 141 141 141 141 141 141 143 145 150 155 160 163 163 158 149 135 119 105 95 94 100 114 133 152 166 174 174 167 154 137 119 106 100 101 107 115 123 129 130 129 125 122 121 122 126 132 137 140 140 135 128 118 108 100 94 92 93 98 106 115 125 134 141 144 143 139 134 128 125 126 130 137 145 151 154 153 148 141 133 126 123 122 124 127 127 125 120 112 104 96 91 90 93 99 108 118 127 134 139 
153 154 153 149 145 139 134 131 131 134 141 150 158 164 164 159 148 133 116 103 96 97 105 120 137 151 161 163 158 147 133 118 106 101 100 104 110 116 120 121 119 116 114 114 117 122 128 134 137 138 135 128 120 111 102 96 91 90 91 95 101 108 115 121 125 126 125 122 119 119 121 126 134 142 149 152 152 148 142 134 127 122 119 118 116 113 108 102 94 86 81 78 79 84 93 106 119 132 142 149 
162 163 160 154 145 134 124 116 113 115 123 135 148 159 166 166 158 144 126 110 98 94 97 107 121 134 144 148 146 138 127 115 107 102 102 104 109 112 114 114 112 109 108 108 112 117 124 130 134 135 134 130 124 117 110 103 98 93 91 90 92 95 100 104 108 111 112 112 112 113 116 122 129 137 144 148 149 147 142 136 129 123 118 113 108 102 96 88 81 76 72 72 76 83 95 109 125 139 151 158 
168 167 163 154 141 127 112 101 96 97 104 118 135 151 163 167 163 151 134 115 100 92 91 97 107 118 127 133 133 128 121 113 108 105 105 108 111 113 113 111 108 105 104 104 107 113 119 125 130 133 134 133 130 127 122 116 110 104 98 94 91 90 92 95 98 102 105 107 108 110 113 117 124 130 137 142 144 144 142 138 132 126 120 113 105 97 89 81 75 72 71 73 79 89 102 118 134 147 158 165 
169 167 162 152 137 120 103 90 82 82 89 102 121 140 156 164 163 154 138 119 103 92 88 90 97 106 114 120 122 120 116 113 110 110 112 114 117 117 116 112 108 105 103 103 105 110 115 121 126 130 134 136 137 138 136 133 127 120 112 104 97 93 92 93 96 100 104 107 108 110 111 113 117 122 127 132 137 140 141 140 138 133 126 118 108 98 89 81 76 74 75 79 88 99 113 128 142 153 162 167 
165 163 158 148 133 115 98 83 75 73 78 90 109 129 147 158 160 154 141 123 107 95 90 90 94 101 108 113 115 116 115 114 115 117 120 123 125 125 122 118 113 108 105 104 106 109 113 118 123 128 134 139 144 147 149 148 144 138 128 118 109 103 100 100 102 106 110 112 113 112 111 110 110 112 115 121 128 134 140 144 145 142 137 128 117 105 95 87 82 81 84 90 100 112 124 137 147 155 160 164 
156 155 151 143 131 114 97 83 74 71 74 84 100 120 139 152 156 153 142 128 113 102 96 94 97 102 107 111 114 116 117 118 121 125 129 133 134 134 130 125 119 114 110 108 109 111 114 118 123 128 135 141 148 154 158 160 158 152 144 134 124 117 112 112 114 118 121 122 121 117 112 106 103 101 104 109 118 128 139 147 153 153 150 142 131 118 107 98 93 93 97 105 114 125 134 142 147 151 153 155 
142 143 143 139 131 118 103 89 79 74 75 83 97 115 133 147 153 152 145 134 122 112 105 103 105 108 112 115 117 119 121 124 128 133 138 141 143 142 138 132 126 120 116 114 114 116 118 122 126 130 136 143 150 157 162 164 164 160 153 145 137 131 128 128 130 133 136 136 132 124 114 104 96 92 93 98 108 122 137 150 160 164 162 156 146 134 122 113 109 109 113 120 128 135 140 142 142 140 140 140 
125 130 135 136 133 124 112 99 88 82 81 87 99 115 132 145 152 153 149 141 131 123 117 114 114 116 118 121 122 124 127 130 135 140 144 148 148 147 142 136 130 125 121 120 120 122 125 128 131 135 139 144 149 154 158 161 161 159 155 150 145 142 141 143 146 149 151 149 142 131 117 103 91 85 84 88 99 115 134 152 165 172 173 168 159 148 137 129 125 125 129 135 140 142 142 137 131 126 122 122 
109 118 127 134 137 133 124 113 102 94 92 96 106 119 134 147 154 156 154 148 140 133 127 124 123 123 124 126 127 129 132 136 141 145 149 151 151 148 143 137 131 126 124 124 126 129 133 136 138 140 142 144 146 147 149 150 150 149 148 146 146 147 150 155 159 163 164 160 152 138 120 102 88 79 77 81 92 109 130 151 166 176 178 175 168 159 149 142 139 139 142 146 148 146 140 130 119 110 104 104 
96 108 121 134 141 141 136 126 116 108 105 107 115 127 140 151 158 160 158 153 147 139 133 129 127 126 126 128 130 132 136 140 145 148 151 151 149 145 139 133 127 124 123 125 129 134 140 144 146 147 146 143 140 137 135 133 132 132 133 136 140 147 154 162 168 172 173 169 159 143 123 103 86 76 72 76 86 103 125 147 164 175 179 177 171 163 155 149 147 148 151 153 152 147 136 122 107 96 90 90 
89 102 118 134 144 148 145 137 127 119 116 118 125 135 147 156 162 164 162 156 149 141 134 128 124 123 123 125 128 133 138 143 147 150 151 150 146 140 132 125 120 117 118 122 129 137 144 150 153 153 149 143 135 126 119 114 111 111 114 120 129 141 153 163 172 177 178 174 163 147 126 104 87 75 71 73 82 98 118 140 158 169 173 172 167 160 153 150 149 152 155 157 154 146 133 116 99 87 80 81 
87 101 118 135 147 151 149 142 133 126 122 124 131 141 152 160 165 166 163 156 147 137 128 121 116 114 115 119 124 131 137 144 148 151 150 147 141 133 124 116 111 109 111 116 125 136 146 154 158 158 153 143 131 117 106 97 92 92 96 105 117 132 147 161 171 177 178 175 165 149 129 108 90 78 72 73 81 94 112 131 147 157 161 160 155 149 145 143 145 150 155 157 155 146 131 113 96 83 77 79 
91 105 122 137 148 151 149 141 132 125 123 125 133 143 154 162 166 166 162 153 142 130 118 109 104 103 105 110 117 126 136 143 148 150 148 143 136 126 116 108 103 101 103 110 120 132 144 154 160 160 155 144 129 112 97 86 80 79 84 92 106 122 140 155 166 173 175 172 164 150 132 113 96 84 78 78 83 93 107 121 134 141 144 142 137 132 130 131 136 144 151 156 154 147 133 115 99 86 81 82 
100 113 128 141 148 149 144 135 125 118 116 120 129 140 151 160 165 164 158 148 135 120 107 98 93 92 95 101 111 122 133 142 147 149 147 141 132 122 112 103 98 96 98 104 114 126 140 151 158 160 156 145 130 112 96 83 76 74 78 86 98 114 131 146 157 164 167 165 159 149 135 120 106 95 89 87 90 96 104 113 120 124 124 120 116 113 113 117 125 136 146 153 154 149 137 121 106 95 90 92 
114 125 137 145 148 145 137 125 115 108 106 110 120 133 146 155 161 160 154 142 128 112 99 89 84 84 88 96 107 119 131 140 146 147 144 138 129 120 111 103 98 95 96 101 109 120 132 144 152 156 154 146 132 116 100 88 80 77 79 85 96 108 122 135 144 151 154 154 152 146 138 129 119 111 105 102 102 103 106 108 109 108 105 101 97 95 97 104 115 128 141 151 155 152 143 130 117 108 104 106 
