P2
100 100
255
129 152 173 186 188 177 152 118 87 67 58 62 79 107 140 169 185 187 176 151 116 82 57 44 40 41 48 61 81 106 131 150 160 161 154 142 126 110 96 87 80 77 77 80 88 101 118 135 150 158 160 153 137 116 96 79 67 59 54 53 57 67 82 101 121 138 152 162 169 171 167 158 147 136 127 120 111 102 91 79 69 60 53 47 43 43 47 60 84 116 150 174 185 182 167 145 123 108 104 112 
164 180 192 197 190 171 138 100 70 52 45 49 64 90 125 158 178 183 174 150 117 85 61 49 46 48 56 69 87 107 125 137 142 140 134 126 118 113 110 108 107 104 100 95 93 93 99 108 120 132 141 145 144 137 126 114 101 89 78 69 64 63 67 75 86 100 114 131 147 162 172 176 176 173 168 161 150 133 111 88 68 53 43 37 34 34 40 53 76 108 142 168 181 182 173 159 146 138 139 149 
189 199 205 204 192 166 127 87 58 42 37 41 55 81 116 151 175 183 176 157 128 99 77 65 63 67 76 88 102 114 122 124 121 116 110 107 109 116 126 135 140 139 132 120 105 92 85 85 91 103 118 135 149 157 158 154 144 131 114 95 78 66 59 58 62 69 82 100 125 151 173 188 196 199 198 193 182 163 135 103 74 53 41 35 33 35 42 56 78 108 139 162 173 175 170 162 157 157 164 176 
201 210 212 208 192 162 120 80 52 38 35 39 54 80 116 151 176 186 183 169 147 123 104 95 93 99 108 118 125 127 123 113 101 91 87 88 99 117 140 160 171 173 165 148 123 97 77 68 68 77 95 121 148 170 183 186 182 170 151 125 97 73 57 49 47 50 60 78 106 140 171 193 206 212 214 211 202 184 155 118 84 60 46 40 40 44 54 69 91 116 139 154 159 158 153 150 152 160 174 189 
205 213 215 209 192 160 117 77 51 38 36 43 59 87 123 157 181 191 190 181 166 149 137 131 133 139 147 152 152 143 125 104 84 71 66 71 87 114 148 176 192 197 191 172 142 106 76 58 52 59 77 107 144 176 196 206 206 197 179 150 115 82 59 46 40 41 49 66 95 133 169 194 210 217 220 218 211 195 168 132 97 71 57 53 56 65 78 95 114 131 141 144 139 131 125 124 131 147 169 189 
201 212 215 208 190 157 115 76 52 42 42 52 71 101 136 166 186 194 193 187 178 169 164 164 168 174 180 181 174 157 129 97 71 56 51 57 75 108 148 183 204 211 207 190 159 117 79 54 44 47 63 95 137 176 202 215 217 211 195 166 127 89 61 46 39 39 47 63 92 130 166 193 208 216 219 217 210 196 173 141 110 88 77 77 85 98 115 130 143 148 145 132 116 101 92 92 102 124 152 180 
192 207 211 205 186 153 112 77 57 49 53 67 90 120 151 174 187 191 188 183 177 175 176 182 189 196 200 199 189 166 131 93 63 46 41 46 64 98 143 183 208 218 216 202 172 129 85 55 41 41 55 85 129 173 202 217 220 215 200 171 131 92 64 49 43 45 53 70 98 132 165 188 202 208 210 208 201 188 168 144 122 108 104 111 124 140 155 167 171 165 148 122 95 75 65 64 74 97 130 165 
180 199 205 198 179 146 109 79 63 60 69 88 113 141 164 178 182 179 173 166 162 164 172 184 196 205 210 208 197 172 134 91 59 41 34 39 55 88 135 179 207 220 220 209 183 141 95 60 42 40 52 80 124 168 199 214 218 211 194 165 127 91 67 56 53 58 69 87 112 140 164 180 189 192 191 187 180 169 154 139 129 126 133 146 162 177 189 194 191 177 149 113 80 57 46 45 54 75 108 147 
168 189 196 188 167 135 103 80 70 75 90 113 138 159 172 174 168 156 144 135 132 138 152 171 190 203 211 210 200 176 137 93 59 39 32 35 50 81 126 172 203 219 221 213 191 153 107 69 48 44 54 81 122 164 193 207 209 200 180 150 116 88 72 67 71 81 96 114 133 150 162 168 168 164 159 153 146 139 132 128 130 140 155 173 189 202 209 210 203 184 150 107 70 47 36 35 42 60 92 132 
158 180 185 174 151 122 95 80 80 92 114 139 160 172 173 163 145 124 107 96 95 103 122 147 173 194 206 208 201 179 143 100 65 43 34 36 48 77 120 165 198 215 220 215 197 165 122 84 60 53 62 87 124 161 186 196 194 180 157 128 101 83 78 84 97 115 132 147 157 162 160 152 140 129 119 112 107 105 106 112 126 146 169 189 204 214 219 218 209 187 149 102 64 42 32 31 37 54 84 123 
154 172 173 159 134 107 88 82 90 110 137 161 176 178 168 145 117 92 73 64 63 72 90 118 150 178 196 203 199 183 152 113 78 55 44 43 53 78 116 159 191 209 216 213 199 174 138 102 79 71 78 100 131 159 177 180 171 152 127 102 85 80 87 105 128 151 167 177 179 172 157 136 113 95 84 77 75 77 84 97 119 146 173 195 210 219 223 221 210 186 146 99 62 40 31 31 38 55 84 121 
155 168 163 144 118 94 82 84 101 128 157 177 186 180 159 126 93 66 50 43 43 50 66 93 126 159 183 195 196 186 163 132 101 77 64 60 67 86 117 152 181 199 207 206 197 178 151 123 102 95 102 119 141 159 166 160 144 120 97 79 72 77 96 125 156 180 194 198 194 180 155 124 94 73 61 57 57 62 71 87 111 141 170 194 209 218 222 219 208 183 142 96 60 40 33 34 43 62 92 127 
161 167 155 131 104 84 78 88 112 144 172 189 191 178 149 110 74 50 37 32 33 39 53 75 105 139 166 183 190 186 174 154 131 111 96 89 91 102 121 145 166 181 189 191 186 175 158 140 127 123 128 139 151 158 154 139 117 93 73 62 62 76 103 140 175 198 209 210 203 184 155 119 86 64 53 50 52 58 67 82 104 132 161 185 202 212 216 214 202 176 136 92 60 42 36 40 53 76 107 140 
170 167 149 121 94 77 76 92 122 157 184 197 195 177 142 99 64 42 32 29 31 37 49 67 92 121 148 167 179 183 180 173 161 148 137 128 123 122 126 135 144 153 160 164 165 162 157 150 146 146 150 156 159 156 143 122 96 74 58 52 57 75 108 148 183 205 215 215 206 187 157 120 88 67 58 56 59 64 72 83 99 120 145 167 186 198 204 203 192 167 129 89 60 45 42 49 67 94 127 155 
177 168 143 112 86 73 76 97 131 167 192 202 197 176 138 94 60 40 32 31 35 42 53 68 87 108 129 146 161 172 179 183 183 179 173 164 153 141 129 121 117 118 121 127 133 140 146 151 156 161 165 166 163 152 134 109 84 65 53 50 57 76 109 148 182 204 213 212 204 186 158 127 99 82 75 74 77 81 84 88 95 106 123 141 160 175 184 186 176 154 120 86 62 50 50 62 84 116 148 170 
181 165 136 103 79 69 76 100 137 173 197 205 199 177 139 96 63 45 39 41 47 57 68 79 89 100 111 122 136 152 168 183 193 198 196 189 175 154 128 105 90 84 84 89 99 113 129 145 157 166 169 168 161 147 127 104 82 66 57 55 61 78 107 141 172 192 201 201 194 179 158 135 116 106 103 105 107 106 102 96 91 92 99 111 127 143 156 163 158 140 113 86 66 59 62 78 105 137 165 181 
181 160 128 94 72 65 74 100 137 174 197 206 200 179 143 103 73 57 54 60 71 83 94 99 99 97 95 98 107 125 148 172 192 204 208 202 186 158 123 90 69 58 56 61 72 90 112 135 153 163 166 162 153 139 122 105 89 78 71 68 72 84 104 128 152 168 177 178 173 164 153 142 136 134 137 141 141 135 121 104 89 80 77 83 94 110 127 138 140 131 112 91 77 72 79 98 126 155 177 187 
178 152 118 85 65 60 69 94 131 168 192 202 197 179 149 115 90 78 80 91 106 121 128 126 114 97 83 77 80 95 122 154 183 202 210 206 188 156 114 78 54 43 41 45 57 76 102 127 146 156 156 150 140 129 120 112 105 101 97 94 93 96 103 113 125 134 140 142 141 141 142 146 152 160 168 172 170 158 137 111 86 70 62 63 71 86 104 121 131 129 119 105 95 93 101 120 146 169 185 188 
173 145 109 78 59 54 63 85 118 154 179 191 190 176 154 129 112 107 115 130 148 160 162 152 128 99 75 61 59 70 95 132 169 195 207 204 185 149 104 67 45 35 34 39 53 74 100 126 143 148 143 133 124 118 118 122 127 131 132 129 122 114 106 100 98 97 98 101 105 113 127 145 163 178 188 192 188 172 145 112 82 62 53 52 58 73 94 116 132 139 135 127 120 119 127 143 163 180 189 188 
170 141 105 74 56 50 56 73 100 131 157 172 175 168 155 141 134 138 150 167 182 190 187 170 138 99 68 50 44 52 74 110 152 184 200 198 178 139 95 59 40 32 33 42 58 83 111 133 145 142 131 116 106 105 115 131 149 162 167 165 154 136 114 93 78 69 66 68 75 90 113 142 169 189 200 202 195 175 144 107 76 56 47 47 55 72 96 123 144 155 157 152 147 146 152 163 176 187 192 187 
172 143 107 76 56 48 50 61 80 104 127 144 151 152 149 148 151 162 177 192 203 207 200 179 141 97 62 42 36 41 60 94 138 174 192 191 169 130 87 55 38 34 38 52 75 103 131 149 153 142 121 101 90 92 109 136 164 184 194 193 181 158 126 92 67 52 47 48 56 74 104 140 173 194 205 205 194 170 135 97 68 52 45 47 58 79 108 139 162 174 177 174 170 167 170 177 185 192 194 188 
177 152 118 85 62 50 47 52 64 79 97 112 123 132 139 148 161 176 192 205 213 214 204 180 139 93 58 38 32 37 54 87 130 167 186 184 162 123 82 54 41 40 51 72 102 134 159 170 165 145 115 89 76 80 101 135 170 196 209 210 199 175 138 97 64 45 37 38 48 68 102 142 177 198 206 202 187 158 121 85 61 48 45 51 67 93 126 157 178 189 191 187 182 178 178 183 189 195 197 192 
186 166 136 103 76 58 49 48 53 62 73 86 99 112 128 146 165 183 198 209 215 214 202 175 133 88 55 38 33 38 57 89 131 167 184 181 157 119 81 57 48 53 71 101 136 166 185 190 178 150 112 81 65 68 89 127 169 200 215 219 210 188 150 104 66 44 35 36 47 70 106 148 181 199 204 195 174 142 104 73 54 46 48 59 80 110 144 172 189 196 195 189 181 176 175 179 186 193 198 196 
195 181 158 127 97 73 58 51 50 54 61 71 84 101 121 144 166 184 199 208 212 208 194 166 125 84 55 41 39 47 68 102 142 173 186 180 156 119 84 63 60 72 99 135 169 194 206 205 188 155 111 75 56 57 77 115 160 196 216 222 216 196 160 113 71 46 37 38 51 77 115 156 185 199 199 185 158 123 88 63 50 47 53 69 95 127 159 181 192 193 187 177 166 159 158 164 175 186 195 199 
201 195 179 154 124 95 73 60 55 55 60 69 83 101 122 145 166 183 194 201 202 196 180 152 116 82 60 50 53 66 91 125 159 183 191 182 156 121 89 73 75 95 129 166 195 213 219 214 195 159 111 71 50 48 64 99 146 187 212 221 218 201 168 121 78 52 41 44 59 87 126 164 188 197 191 171 140 104 75 56 49 51 62 83 111 142 167 181 184 178 165 150 136 128 128 136 152 171 187 198 
201 203 194 177 151 121 95 77 68 67 72 81 95 113 132 151 166 178 184 187 184 176 159 134 106 82 69 68 77 96 123 154 179 194 196 183 156 121 93 81 89 116 153 188 212 224 227 220 200 162 111 68 45 40 53 83 128 173 204 217 217 203 173 129 86 59 48 52 69 100 138 170 188 191 179 155 122 90 66 55 54 61 78 101 129 154 169 173 166 150 131 112 97 90 91 101 121 146 172 191 
195 204 202 191 171 146 120 101 91 90 96 106 120 135 149 160 166 169 168 164 157 146 130 112 96 85 84 93 110 133 158 181 197 203 199 181 152 118 93 85 98 129 167 200 220 229 230 222 202 163 111 67 42 35 43 68 109 156 192 210 214 202 176 135 94 67 57 62 81 112 147 173 184 181 165 137 106 80 65 60 66 79 100 124 147 163 167 159 140 117 94 75 63 58 60 69 88 116 148 176 
181 197 201 195 182 162 141 126 119 120 128 139 151 161 168 169 165 156 145 133 121 110 100 91 87 90 102 122 145 168 187 201 208 207 197 174 142 108 86 82 97 130 169 201 220 229 230 223 202 164 112 67 41 32 37 56 91 138 178 201 207 199 175 139 101 75 66 73 92 121 150 170 175 167 147 121 96 78 72 75 87 106 129 150 165 170 162 143 115 87 64 49 41 37 39 46 62 87 120 155 
160 181 190 189 180 166 152 143 142 148 159 170 179 184 183 176 161 141 119 101 87 78 73 72 79 95 119 148 173 193 206 213 213 206 189 161 125 93 74 72 87 119 158 192 214 225 227 220 201 164 113 68 41 31 33 48 78 121 163 190 199 193 172 139 106 83 75 82 100 125 148 161 161 149 130 109 92 85 88 100 118 139 159 174 180 176 160 131 97 67 47 35 29 26 28 33 44 64 94 128 
134 158 170 171 165 156 148 147 154 166 179 191 198 199 193 179 155 125 96 75 62 55 54 59 73 98 132 165 191 207 216 217 213 200 176 142 105 75 60 59 72 99 136 173 199 214 219 214 197 162 115 72 45 34 34 46 72 111 151 179 189 185 166 137 107 88 82 88 104 124 140 147 144 132 116 103 97 101 113 131 151 170 185 193 193 183 160 127 89 59 40 30 24 23 23 27 35 50 73 103 
111 132 142 144 139 133 131 137 151 170 187 200 207 206 198 178 148 111 79 58 46 41 43 51 69 100 139 175 200 214 219 217 207 188 157 119 84 59 48 46 56 76 107 143 174 194 204 203 190 160 119 79 53 41 41 51 74 109 145 170 180 175 157 131 106 90 86 92 105 119 130 132 127 118 109 106 110 123 141 161 179 193 202 205 201 189 165 131 94 63 44 33 27 25 25 28 34 45 62 86 
98 111 116 114 109 104 106 117 136 161 184 199 207 207 197 174 139 100 68 48 38 34 37 47 67 101 143 180 203 215 217 212 197 171 135 96 66 47 38 37 43 57 79 108 139 165 181 186 178 156 124 92 69 57 57 67 88 117 147 166 173 165 147 123 102 89 87 92 102 113 119 120 116 111 110 116 129 147 167 185 198 206 210 210 204 193 172 142 109 79 59 46 39 36 35 36 41 50 63 80 
99 103 101 93 84 79 81 93 114 142 169 189 199 200 190 166 131 93 63 44 35 33 36 47 69 103 145 181 202 212 211 201 181 149 111 77 53 39 33 32 36 44 58 79 104 129 150 161 161 150 131 109 92 84 85 95 113 136 156 168 168 157 137 114 96 86 86 91 100 108 112 113 112 113 118 131 148 168 185 198 206 210 210 207 202 193 178 157 132 108 88 75 66 60 58 58 62 69 78 90 
115 110 99 85 72 64 64 72 90 116 144 168 182 185 177 155 124 90 63 47 39 37 41 53 76 110 149 181 199 205 201 186 160 125 90 62 45 36 33 32 34 39 48 60 78 98 118 133 142 143 137 128 122 119 123 132 145 159 170 173 166 149 127 106 90 83 84 90 98 106 110 113 115 121 131 147 165 182 194 202 204 203 200 195 190 184 178 168 156 142 129 118 109 102 98 97 99 103 109 114 
142 129 111 90 72 60 55 59 71 91 115 138 154 161 157 142 118 93 72 58 51 50 55 68 91 122 155 180 193 195 185 165 135 101 72 53 42 38 37 38 41 44 49 56 66 79 94 109 123 133 140 145 149 154 160 167 175 181 183 178 165 144 119 98 85 80 83 90 99 107 114 118 124 133 145 160 175 187 193 194 190 183 175 168 164 164 167 171 173 173 170 164 159 153 149 147 146 147 148 147 
168 153 132 107 84 66 57 54 59 71 87 105 121 131 134 129 118 103 90 81 76 76 82 94 114 139 163 179 184 179 163 138 109 81 61 49 45 45 49 53 58 61 64 66 69 74 82 93 107 122 139 154 167 177 185 191 195 196 191 181 163 138 113 93 82 80 84 93 103 113 120 127 134 143 155 167 176 181 180 173 162 148 136 127 126 132 146 163 180 191 197 198 196 193 190 187 184 183 181 176 
186 173 154 130 105 83 68 59 56 59 67 79 91 103 113 120 122 121 118 116 114 115 120 130 143 158 170 175 171 158 137 111 86 66 54 50 53 61 72 82 90 95 95 92 88 84 82 85 95 110 130 152 172 187 197 202 204 201 194 179 158 132 108 90 82 82 89 99 111 120 128 135 141 149 157 164 167 164 155 140 123 105 91 83 84 95 117 147 176 197 210 215 216 215 212 208 205 201 198 193 
192 185 173 155 133 109 88 72 61 57 57 62 70 83 98 115 131 143 151 154 156 157 160 164 169 173 173 167 154 134 110 87 68 57 53 58 70 87 106 124 135 140 139 131 119 104 91 85 86 97 117 141 165 183 196 202 202 198 188 172 150 125 104 91 87 90 99 110 121 130 136 140 143 147 150 151 148 138 123 103 84 68 56 51 53 65 89 125 164 194 212 220 223 221 217 213 207 203 199 196 
186 187 184 175 160 140 118 95 76 62 55 54 59 71 90 116 143 164 178 185 188 189 189 188 185 180 170 155 134 110 87 69 57 53 57 71 93 120 146 166 178 183 180 170 152 129 105 88 81 85 100 123 147 169 183 190 190 185 173 157 136 117 103 96 98 105 115 126 134 139 140 140 138 137 135 131 122 109 92 73 57 44 36 33 35 46 69 105 149 185 207 217 219 216 210 202 194 188 185 184 
167 178 185 187 182 169 149 124 98 76 61 54 56 67 89 120 153 179 196 204 207 206 204 198 190 179 162 140 115 91 71 58 52 55 66 88 119 152 179 197 207 210 207 196 177 149 118 92 78 76 85 103 125 145 159 166 166 160 148 134 119 108 104 106 114 125 136 145 149 148 142 134 127 121 115 108 98 85 70 55 43 34 28 25 28 37 57 91 134 173 197 207 207 200 188 175 163 155 153 157 
138 160 180 192 196 190 176 154 125 95 73 60 58 68 91 125 161 188 205 212 214 212 206 198 186 169 148 123 99 78 64 55 55 62 80 109 144 176 200 214 221 223 219 209 190 161 127 96 78 71 76 88 104 120 131 135 133 126 116 107 101 101 107 120 135 149 159 164 162 154 141 126 112 102 95 88 81 71 60 49 39 32 27 26 28 36 53 83 122 158 180 187 183 170 152 133 118 109 110 119 
107 138 169 191 202 204 196 178 151 119 90 71 65 73 95 129 164 191 206 212 212 208 199 187 171 152 131 109 90 75 65 61 65 77 99 131 164 192 211 221 225 226 221 211 192 164 130 100 81 74 76 84 94 102 106 104 99 92 86 83 85 95 113 135 156 171 179 180 173 158 137 116 98 87 80 77 73 69 62 54 47 40 36 34 36 44 59 85 116 144 160 160 149 129 107 88 74 68 71 83 
83 119 158 187 204 210 207 194 172 141 109 86 76 80 100 130 162 186 200 204 201 193 181 166 149 132 115 101 90 82 77 78 84 99 122 151 179 201 214 221 223 221 214 202 183 157 128 103 89 85 88 93 97 97 92 84 75 68 64 65 74 93 120 150 174 189 195 192 181 160 133 106 86 75 72 73 76 78 77 73 67 61 56 54 56 63 76 96 118 135 139 131 113 91 71 55 46 43 46 59 
70 106 148 182 203 212 212 204 186 159 127 101 87 88 102 127 154 174 184 185 179 167 152 136 122 111 105 101 100 100 101 105 113 127 146 169 188 203 211 214 213 208 198 183 163 141 121 108 104 107 113 117 116 108 93 76 62 53 50 54 67 92 126 162 187 201 205 200 185 160 128 98 78 69 70 78 89 100 106 107 103 97 92 89 90 96 106 118 129 132 124 106 85 64 49 38 32 31 35 47 
66 99 141 176 199 210 212 206 192 169 141 114 97 93 101 118 138 152 158 155 146 132 117 105 98 98 102 111 119 127 133 138 145 154 167 180 191 199 202 200 194 183 169 152 134 120 112 114 124 136 146 151 146 130 106 80 59 47 43 47 63 91 131 170 196 209 211 204 187 158 123 91 73 68 74 90 110 129 142 148 148 144 139 135 134 137 141 145 144 134 116 92 69 51 39 32 29 29 34 45 
69 98 135 168 191 203 206 202 191 172 146 121 103 95 97 106 117 124 125 119 108 96 86 81 83 93 109 128 144 156 163 167 170 174 178 183 186 187 184 176 163 147 129 113 101 97 104 121 144 165 178 183 176 157 125 90 62 45 40 44 60 91 134 174 201 213 214 205 186 155 118 87 71 70 82 106 134 158 175 183 184 182 179 175 173 172 171 168 158 139 114 86 64 48 39 34 33 35 40 50 
78 101 130 157 177 188 192 190 181 166 144 122 104 94 91 93 96 97 94 87 78 70 66 69 79 98 123 148 167 179 185 186 184 182 179 177 173 167 157 143 125 106 90 77 73 79 97 128 161 187 202 207 200 180 146 104 68 47 39 42 58 90 134 176 202 213 214 204 182 149 112 84 71 75 93 122 154 179 195 203 204 203 200 197 195 192 188 180 166 143 115 87 66 53 47 44 45 48 53 63 
92 106 122 140 154 164 168 168 163 151 136 118 103 92 85 82 80 77 72 66 60 57 59 68 86 112 141 167 184 193 195 192 185 177 168 160 151 140 126 109 91 74 61 54 55 67 93 133 173 201 216 221 215 197 163 117 75 49 39 41 57 90 134 175 201 211 210 198 175 141 106 82 74 82 105 136 167 190 203 209 209 208 205 202 199 195 191 182 167 145 118 94 76 67 64 65 68 73 77 84 
110 110 113 118 125 131 135 138 137 132 124 112 101 91 83 76 71 66 61 57 54 55 62 77 101 130 159 181 193 197 194 185 172 159 146 135 124 113 100 85 69 56 46 42 46 60 91 135 179 208 224 228 223 206 174 127 82 53 41 43 59 91 134 173 197 206 203 189 163 131 101 82 80 92 117 148 174 192 200 203 201 197 193 190 187 185 181 173 161 143 123 105 94 90 91 97 103 108 111 111 
127 114 103 97 95 97 102 107 112 115 114 110 103 94 86 78 70 64 59 57 57 62 74 94 121 150 174 189 194 191 181 165 147 130 116 107 100 93 85 74 61 50 42 38 42 57 89 134 179 210 225 230 226 210 179 133 87 57 44 47 63 95 135 171 192 198 192 174 148 119 96 85 88 105 130 156 175 186 188 185 178 172 166 163 162 162 162 158 151 141 129 120 117 119 127 136 144 148 147 140 
140 115 93 79 72 72 76 85 95 105 112 114 112 105 96 87 78 71 67 66 69 78 94 116 143 167 183 190 188 176 157 135 114 97 87 83 83 84 83 77 67 56 46 41 43 56 85 128 173 205 222 227 223 208 178 134 91 62 51 55 73 104 140 170 185 186 175 155 129 106 92 90 101 120 142 162 172 174 167 156 143 133 127 126 128 133 138 141 141 139 136 136 140 149 160 170 177 180 175 161 
145 113 85 66 58 58 63 75 91 107 120 128 129 124 116 105 95 88 83 83 88 100 118 140 162 178 187 185 174 153 127 101 82 70 66 69 78 88 95 95 87 73 60 50 47 56 79 117 160 193 212 219 215 199 170 130 92 69 62 70 90 119 149 170 176 170 154 131 110 95 92 99 116 137 156 166 167 157 140 121 105 94 89 90 97 107 118 128 135 140 144 151 160 171 182 192 198 198 191 173 
146 109 79 60 52 53 62 78 99 120 138 148 151 148 140 130 119 111 106 106 113 125 141 159 175 184 185 175 155 127 97 74 58 52 54 64 82 103 119 125 119 102 82 65 55 57 72 102 139 172 193 201 197 181 154 121 93 78 78 92 114 140 161 170 167 152 130 108 93 88 94 112 134 155 169 171 162 141 116 92 75 66 64 69 79 93 109 123 135 144 152 161 171 183 194 203 207 206 197 177 
142 104 75 58 52 56 70 91 117 141 160 170 173 171 164 154 144 136 130 130 135 145 158 171 181 184 179 163 136 104 76 56 45 43 50 67 94 124 149 160 155 138 112 86 67 60 66 85 113 141 162 170 167 153 131 108 93 90 100 119 142 162 173 171 157 133 108 89 80 84 100 126 152 172 180 176 158 130 99 74 59 52 54 61 75 92 110 126 139 148 156 165 176 187 198 205 209 207 197 175 
136 100 73 58 57 66 85 112 141 165 181 189 191 188 181 172 162 153 147 145 149 156 166 175 181 181 172 152 123 90 64 47 40 41 52 75 110 147 175 188 186 171 143 111 83 66 63 71 88 108 124 131 128 118 104 94 92 102 122 147 168 181 182 170 146 116 90 74 71 83 107 139 168 185 190 181 158 125 91 67 54 50 55 66 81 100 118 133 142 148 153 161 171 183 195 203 207 204 193 170 
129 95 72 61 64 78 104 135 164 185 197 201 201 196 189 179 169 159 151 148 149 154 162 170 176 175 166 146 117 86 62 47 41 44 58 86 125 165 193 206 206 193 168 134 100 76 64 64 71 82 91 94 92 86 81 82 92 114 142 169 186 193 186 166 134 100 75 64 66 84 114 150 179 194 196 185 160 125 91 68 57 57 64 77 94 112 127 136 139 140 142 148 159 173 187 197 202 199 187 163 
121 90 70 64 71 92 122 156 182 199 206 208 204 197 187 175 162 150 141 136 136 141 150 159 167 169 163 146 121 93 69 54 47 51 67 97 138 177 203 215 215 205 184 153 118 89 72 65 66 69 72 72 69 66 66 74 93 122 155 182 196 197 184 157 120 86 64 57 63 85 119 157 185 199 199 186 161 128 96 75 66 68 77 91 107 121 129 130 127 123 121 127 139 157 175 189 195 193 179 154 
111 83 68 65 76 101 135 169 193 206 210 209 202 191 176 159 143 129 119 114 114 121 132 145 158 165 164 154 134 109 84 67 58 61 76 105 145 181 205 216 217 209 192 165 134 105 86 77 74 72 70 66 62 58 60 71 94 127 162 187 198 195 176 143 105 74 56 52 61 84 120 158 186 198 197 184 160 129 102 85 79 82 92 104 115 122 122 116 107 99 96 102 117 140 163 180 188 185 170 144 
100 76 63 63 76 103 139 173 197 208 210 204 193 176 155 133 115 101 92 88 90 98 113 132 151 164 170 166 153 131 107 86 73 72 84 110 145 177 199 210 211 205 191 171 146 123 108 99 95 91 85 76 67 61 62 73 96 130 163 186 194 186 162 126 89 62 49 48 59 83 118 154 180 191 189 176 154 128 107 94 92 97 106 113 117 114 107 95 84 75 73 80 99 125 153 174 183 179 161 132 
90 67 57 58 72 98 135 170 193 204 204 196 178 154 127 103 86 74 68 67 71 82 100 124 148 168 178 180 172 154 130 106 88 81 88 108 136 165 186 196 199 194 184 169 153 140 132 129 126 122 112 99 85 74 71 79 100 131 161 180 184 172 145 108 75 54 44 46 57 80 112 145 168 177 174 161 142 122 108 103 105 110 116 117 112 102 88 75 64 57 58 68 90 120 151 172 180 174 153 121 
80 59 50 51 63 88 123 159 185 197 196 183 160 130 100 77 63 55 52 53 60 73 95 123 151 174 187 191 186 172 149 122 99 87 87 99 121 144 163 174 177 174 168 160 155 153 154 158 159 156 146 130 111 94 85 89 106 132 157 172 173 157 128 94 66 49 43 46 58 79 106 133 151 156 151 138 124 112 107 109 115 121 123 118 106 89 73 60 51 48 53 67 93 126 157 176 182 171 146 112 
71 51 43 44 54 76 109 145 173 187 185 169 141 108 79 59 48 43 43 47 56 72 98 129 159 182 195 199 195 181 158 130 104 87 82 88 102 119 135 145 149 148 146 146 150 159 169 178 184 184 175 159 137 116 103 102 114 134 154 166 163 147 118 87 63 50 47 52 64 82 103 121 131 131 123 112 103 100 104 113 124 132 130 120 102 82 64 53 47 49 58 78 108 142 170 185 186 171 141 104 
65 46 38 38 46 65 95 131 161 177 175 157 127 93 66 49 40 38 40 46 59 80 109 142 170 190 200 202 196 181 157 127 100 82 74 76 85 97 109 117 120 122 124 130 142 159 175 189 197 199 192 177 156 134 118 114 123 139 155 164 160 144 119 92 71 61 60 66 78 93 107 115 115 108 98 89 85 90 102 119 134 143 140 126 105 83 65 55 53 60 76 102 134 164 186 196 192 173 138 97 
60 42 34 34 41 58 86 122 153 170 169 151 120 86 60 45 38 37 41 50 67 93 125 157 181 196 202 200 190 172 145 116 91 75 68 69 75 84 93 99 102 104 109 118 134 155 175 191 200 202 196 182 163 142 127 123 131 145 160 167 164 151 131 109 92 85 85 93 103 113 119 116 106 92 80 73 74 84 103 126 146 155 153 139 116 94 77 69 71 84 106 134 164 187 202 206 197 174 136 93 
58 40 33 33 41 57 85 121 152 170 170 152 122 89 62 47 40 40 47 60 82 112 145 172 190 199 200 193 177 154 127 100 79 68 65 68 76 85 93 98 100 100 104 113 129 149 169 184 192 193 187 173 155 137 126 125 136 152 166 175 174 166 152 136 125 120 123 130 137 141 138 125 105 85 70 64 69 84 108 136 158 169 168 155 135 115 100 95 102 118 142 168 190 205 213 212 200 174 133 90 
57 41 35 36 45 64 93 128 159 175 175 160 132 99 71 54 47 49 58 75 102 134 163 185 196 199 193 179 158 131 104 83 70 65 68 76 88 100 108 112 112 111 111 116 127 142 158 169 175 173 165 151 134 121 116 122 137 157 174 184 186 182 174 165 159 158 161 167 170 169 159 138 111 86 69 63 70 89 118 148 171 182 181 172 156 140 129 127 137 154 174 193 207 216 219 214 200 171 129 87 
59 45 42 46 58 80 110 144 170 184 185 171 146 115 86 68 60 63 75 97 125 155 179 193 198 194 181 159 133 105 83 69 64 67 78 93 111 126 135 138 136 131 127 126 129 136 143 148 148 143 133 119 106 99 100 113 135 159 179 191 196 195 191 187 185 186 189 193 194 190 176 153 122 93 74 69 79 101 131 160 181 191 191 183 171 160 153 154 164 178 194 206 215 219 218 211 193 164 123 85 
64 55 56 64 81 105 135 163 184 194 194 183 161 133 106 87 80 83 98 122 149 173 190 197 195 184 163 135 106 82 67 60 63 74 94 117 140 156 165 166 162 154 145 137 132 129 127 124 119 110 98 87 79 77 85 103 130 158 181 194 200 201 199 198 198 200 204 206 206 201 187 164 133 104 85 82 93 116 145 171 188 195 194 187 177 167 163 166 175 187 199 207 212 213 209 199 180 150 115 84 
74 72 80 94 114 138 162 182 196 201 200 191 173 150 127 109 103 109 124 147 169 187 196 198 189 170 142 111 83 65 56 56 65 85 113 143 167 182 189 188 182 172 159 146 133 123 113 104 93 83 72 64 60 62 72 93 122 153 177 191 197 198 197 196 197 200 204 207 207 202 190 169 142 117 101 100 112 134 160 180 191 193 189 180 168 159 155 158 167 177 187 194 196 195 188 176 156 131 105 84 
88 97 112 130 149 168 184 196 203 204 201 193 179 161 142 129 125 132 147 166 183 195 199 194 180 154 121 89 66 53 49 54 70 97 131 164 187 199 203 200 193 181 166 149 132 116 102 90 77 66 57 51 49 53 64 84 113 144 167 181 185 184 181 180 181 185 191 195 197 194 184 168 147 128 118 120 133 152 171 183 188 184 174 160 146 135 131 133 141 150 158 164 164 161 153 141 125 109 95 87 
106 125 145 163 178 190 198 203 204 202 197 189 177 162 148 139 138 147 162 178 191 198 198 190 170 138 103 73 54 45 45 54 74 107 145 178 199 208 209 204 194 180 163 144 126 110 96 83 71 60 52 47 46 50 60 79 105 131 151 161 161 157 151 148 149 154 161 168 172 173 167 157 145 136 133 139 152 166 178 182 178 166 149 130 114 103 98 99 104 111 118 121 121 117 111 102 94 88 87 93 
124 148 169 185 195 201 203 202 199 193 186 176 165 152 142 137 140 150 165 180 192 197 196 184 160 126 90 63 47 41 43 54 77 112 153 185 203 210 209 201 188 171 151 132 116 103 92 82 72 63 55 50 49 52 62 78 98 119 132 135 130 121 111 106 106 110 118 127 135 139 140 138 136 137 144 154 166 175 179 175 162 142 119 98 82 72 68 69 72 77 81 83 82 79 76 73 72 75 84 101 
136 162 181 193 199 200 197 192 185 177 166 155 143 132 125 123 128 140 157 174 187 193 192 180 155 120 84 58 44 39 42 53 77 113 153 185 202 208 204 193 175 154 132 115 103 96 92 87 81 74 66 61 59 61 69 82 98 111 116 112 101 88 76 70 68 71 78 86 94 101 107 114 122 134 149 163 174 179 175 162 141 115 90 71 58 51 49 50 53 56 59 60 60 59 58 58 62 71 86 109 
141 164 179 187 189 187 181 173 163 152 140 128 117 108 102 102 108 121 139 158 175 185 187 177 154 121 86 59 44 39 41 51 73 108 148 180 198 202 196 181 158 132 110 96 91 91 94 97 96 92 86 80 77 79 85 95 105 111 109 98 83 67 55 48 46 47 51 57 63 71 80 92 108 128 149 167 177 177 167 147 119 91 68 53 45 42 42 45 48 52 55 57 57 57 58 60 65 76 93 116 
138 154 164 168 166 161 154 145 135 125 114 103 93 85 81 80 85 97 114 136 158 174 181 177 159 130 96 68 50 41 41 49 68 100 138 171 190 194 187 168 140 112 91 81 81 88 100 111 117 118 114 108 104 104 108 115 121 121 114 98 79 62 49 41 37 36 38 41 46 53 62 76 97 122 148 167 176 172 157 131 101 74 56 45 41 42 46 52 58 65 70 73 74 74 75 77 81 90 103 120 
128 134 136 136 132 127 122 116 110 104 96 88 79 71 66 64 66 74 89 111 137 160 176 179 169 146 115 84 61 48 44 48 63 91 126 160 181 187 178 157 128 99 79 71 75 89 107 126 139 144 143 139 135 133 135 139 142 139 129 112 92 72 56 46 40 37 36 37 40 45 54 68 90 119 146 165 172 165 146 117 87 64 51 45 46 52 61 73 85 96 103 108 110 110 109 108 109 111 115 121 
114 109 105 101 97 95 94 94 96 95 93 86 77 68 59 54 53 57 68 88 115 146 170 183 181 166 140 109 81 60 50 50 60 82 115 148 172 180 173 153 124 95 76 69 75 92 116 140 158 166 168 165 160 158 158 160 162 159 151 137 117 97 79 65 55 49 45 42 42 46 53 68 90 118 145 163 168 158 136 106 79 61 52 53 60 74 91 110 126 140 148 153 154 153 151 146 141 134 127 120 
99 86 78 73 71 73 78 87 96 103 104 99 88 74 61 51 46 46 53 70 97 132 165 186 193 186 168 139 108 80 61 54 59 76 105 138 164 176 173 156 128 100 81 74 81 100 126 152 171 180 182 180 175 171 170 172 174 175 172 163 150 134 116 100 87 75 65 58 54 55 61 74 96 123 147 163 164 152 129 101 77 64 61 68 84 106 130 152 169 181 188 191 191 189 185 178 168 153 135 116 
87 71 61 57 58 64 76 93 110 124 129 124 110 91 71 55 44 41 45 58 84 121 160 188 202 202 191 169 138 105 79 64 62 73 98 130 159 175 176 163 140 114 94 86 92 110 135 160 178 187 188 184 177 172 169 171 176 181 185 184 179 170 158 145 130 115 100 87 77 73 76 88 107 131 152 164 163 149 126 100 81 72 76 91 115 143 168 188 200 208 211 212 211 208 203 195 182 163 138 111 
80 63 54 52 56 67 86 110 134 152 159 156 140 116 89 65 48 40 40 51 74 112 155 189 207 213 208 193 167 133 100 77 67 73 94 124 154 174 180 173 155 131 112 102 106 121 144 166 181 187 186 179 169 160 156 158 166 176 187 194 197 196 191 183 172 158 141 124 110 101 100 108 124 143 159 167 164 150 127 104 88 85 94 115 144 172 194 208 216 220 221 220 217 213 208 199 185 164 136 106 
80 64 57 57 64 80 104 133 159 178 186 184 170 145 113 81 57 44 40 47 67 103 149 187 210 219 218 209 189 158 122 92 75 75 90 118 149 172 182 180 167 148 130 119 120 133 151 169 180 183 178 167 152 138 131 133 143 159 176 191 202 207 209 206 200 190 176 159 143 130 126 130 142 156 168 172 167 153 132 112 99 98 111 135 163 188 205 215 219 220 218 215 210 205 199 191 177 157 131 103 
88 75 69 71 80 99 125 154 179 195 203 203 192 171 140 104 72 52 43 46 63 96 141 182 208 221 224 218 203 177 141 106 83 76 87 110 140 166 180 182 173 158 142 132 131 140 155 169 177 176 167 150 130 112 102 102 112 131 154 176 194 206 212 214 211 205 195 181 166 153 147 149 157 167 175 177 172 158 139 121 109 109 122 144 169 190 203 209 210 207 202 196 189 183 177 170 161 146 127 106 
105 97 93 95 104 120 143 167 188 202 210 212 206 191 165 129 93 65 50 48 60 88 130 173 203 219 225 222 211 188 154 116 88 77 82 101 128 154 171 176 171 159 145 136 135 142 154 165 170 167 154 133 109 89 77 75 83 99 123 149 173 191 202 208 209 206 198 187 174 163 158 159 166 174 180 182 176 164 147 129 117 115 124 141 160 176 185 188 185 179 170 160 152 146 143 141 139 135 127 116 
132 128 125 125 129 138 152 169 185 198 207 212 211 202 184 154 117 84 61 52 58 80 117 159 193 213 221 221 212 192 159 121 90 75 76 90 113 137 155 162 159 150 138 130 129 136 147 157 162 157 143 120 95 75 62 57 61 72 91 115 140 162 178 188 192 191 186 177 168 160 157 160 167 176 182 184 180 170 154 137 122 115 117 126 138 147 152 150 144 134 123 113 105 102 104 111 120 129 134 135 
161 160 157 152 148 147 150 158 169 181 194 203 208 206 196 174 141 105 75 59 58 72 101 140 176 200 213 215 207 188 157 119 88 72 70 80 98 119 135 142 141 133 123 117 117 123 134 145 151 147 135 114 90 70 57 50 50 56 67 83 103 123 140 153 160 162 159 154 148 144 144 150 161 171 180 183 182 173 160 143 126 114 107 106 108 110 109 104 96 87 78 71 67 68 75 89 109 130 147 157 
185 186 181 171 159 145 136 133 139 151 166 183 196 203 201 187 161 126 92 68 58 64 84 116 151 179 196 201 195 177 147 113 84 69 66 73 86 102 115 121 120 113 105 100 101 107 119 130 139 139 131 115 95 77 63 54 50 50 54 62 73 86 99 110 118 123 123 122 120 120 124 134 147 160 172 178 180 175 165 149 131 114 99 89 83 77 72 67 60 54 48 45 45 49 61 81 110 139 163 178 
202 201 195 181 160 135 114 102 101 110 128 151 174 191 198 193 175 145 108 78 61 58 69 92 122 151 171 179 176 159 133 103 80 67 65 70 81 93 102 106 103 96 89 84 85 92 103 116 128 134 132 123 109 94 80 69 60 55 52 53 56 62 69 76 82 87 90 92 93 96 103 113 127 143 157 168 174 174 168 156 139 119 99 82 68 58 51 45 40 36 34 33 36 44 60 85 119 154 179 195 
211 209 200 182 154 121 91 73 68 73 89 113 143 171 189 193 183 159 124 90 66 56 59 72 94 118 139 150 149 137 117 95 78 70 69 75 84 93 99 99 94 86 78 74 74 80 90 104 119 131 138 137 131 120 108 96 83 72 63 57 53 53 54 58 63 67 71 74 77 80 85 93 105 120 136 151 162 169 170 164 151 132 109 86 67 52 42 36 32 30 29 31 37 48 68 98 135 168 192 205 
213 210 200 179 147 108 75 55 46 48 59 81 112 147 174 188 187 169 139 103 75 59 54 60 74 92 109 121 124 117 105 91 82 78 81 88 97 104 106 103 95 84 75 70 69 73 83 98 116 133 146 153 154 150 142 131 117 101 86 73 63 58 56 57 60 65 69 72 73 74 75 79 86 97 111 128 146 161 170 172 166 151 129 103 78 59 45 36 32 31 32 36 45 59 83 115 150 180 199 210 
209 206 195 173 139 99 66 46 36 35 42 58 87 124 159 181 187 177 153 119 88 67 57 57 64 76 89 100 106 105 100 95 93 95 101 110 118 123 123 115 103 90 79 72 70 73 83 98 118 138 155 167 174 175 172 164 152 136 118 101 86 77 73 73 76 80 83 84 82 77 73 70 71 76 87 104 126 149 168 179 181 172 155 130 102 77 58 47 41 39 42 48 60 77 102 132 161 184 198 206 
195 193 185 165 134 97 65 44 34 31 34 47 71 108 147 175 188 184 166 138 107 82 67 61 64 71 82 92 100 104 106 108 112 118 127 137 144 147 143 132 117 101 87 79 77 80 90 106 125 146 164 177 186 190 190 186 178 165 149 133 119 109 105 105 108 112 114 111 103 91 77 66 61 61 68 83 106 136 164 184 193 191 181 161 135 108 84 68 60 58 61 70 83 100 121 143 163 177 187 193 
170 172 168 155 131 100 71 50 38 33 34 44 66 100 141 172 189 191 180 158 129 103 83 73 71 76 84 94 104 113 121 128 136 145 154 162 167 167 160 147 129 112 98 90 88 93 104 120 138 156 172 183 190 194 195 193 188 180 170 159 150 144 143 145 149 152 153 146 132 110 86 67 55 50 54 66 88 121 157 185 201 205 201 188 168 144 121 102 91 88 92 101 113 125 136 146 153 158 162 166 
134 142 147 145 132 110 85 64 49 41 40 49 69 103 142 174 193 197 191 175 152 126 104 89 84 85 92 103 115 127 139 149 159 168 175 180 182 178 169 154 136 118 106 100 102 111 123 139 154 168 178 185 188 189 187 185 181 177 173 170 169 171 175 179 184 187 186 178 159 131 98 70 52 44 44 53 74 108 148 183 204 213 213 207 194 176 157 141 131 128 131 137 143 146 144 139 132 126 125 127 
96 110 126 136 137 126 107 85 67 55 53 60 80 113 150 180 197 203 200 189 170 146 122 104 95 94 100 112 126 142 156 167 177 184 189 190 188 181 168 151 133 117 108 108 115 128 143 158 170 178 182 182 179 173 167 161 158 157 159 164 173 183 192 200 206 209 207 199 180 148 109 74 51 40 38 45 63 95 138 177 203 216 219 216 208 197 184 172 165 163 165 167 166 159 144 125 106 92 86 87 
67 85 109 132 146 145 132 112 90 75 70 76 97 128 162 188 203 208 205 196 179 156 132 111 100 97 103 115 132 150 167 179 188 193 195 193 187 175 158 138 120 108 103 109 122 141 159 174 183 187 185 177 165 150 135 125 120 121 129 143 161 180 197 209 216 219 218 211 192 160 117 77 51 37 34 39 54 83 125 167 197 213 218 217 212 204 196 189 185 185 186 186 180 165 140 109 82 65 56 57 
51 72 101 133 156 163 156 138 115 96 88 94 114 143 173 195 206 210 207 197 180 156 129 108 95 92 97 111 130 152 171 184 193 197 196 191 179 162 141 119 102 92 93 103 123 146 168 184 192 192 186 171 149 124 102 88 82 84 94 112 138 167 191 208 218 223 222 216 199 168 124 82 52 37 33 36 48 73 110 151 183 202 209 209 205 199 193 189 190 193 195 194 186 166 134 98 67 48 40 41 
46 69 102 139 165 177 172 155 132 111 101 106 125 153 179 198 208 210 205 193 172 144 116 94 82 79 85 99 121 146 168 184 194 196 194 184 168 146 120 98 82 76 80 94 117 145 170 188 196 195 185 165 135 103 77 61 54 55 64 83 111 145 177 200 214 221 222 216 201 172 131 88 57 41 34 36 45 65 95 131 161 180 188 188 184 178 174 175 180 188 194 196 187 166 132 93 61 42 34 36 
51 76 111 148 174 184 178 160 136 114 103 107 126 153 179 197 206 207 200 183 158 126 96 76 65 64 70 84 107 135 161 180 191 193 188 176 156 130 103 81 68 64 69 83 107 137 166 185 195 195 183 160 127 92 65 48 41 40 47 62 87 120 156 185 204 214 217 213 200 175 139 99 68 49 42 41 47 61 82 108 132 147 153 152 146 141 141 146 159 174 187 192 187 168 135 96 63 44 37 39 
67 93 128 160 180 185 175 154 126 104 93 97 116 143 171 191 201 201 192 171 140 105 77 59 51 51 57 71 94 122 151 172 184 187 181 166 144 117 92 73 62 59 63 76 97 126 154 176 188 190 180 158 126 91 64 47 38 36 40 50 69 97 131 162 185 199 205 204 195 177 148 115 86 67 58 55 57 64 76 89 102 109 111 107 102 98 100 111 130 154 175 187 186 172 143 107 75 56 48 52 
94 120 150 173 185 182 165 138 108 86 76 80 98 126 157 181 193 194 183 159 124 89 63 48 42 43 49 63 84 112 140 162 174 177 170 155 134 111 90 75 66 62 65 74 90 112 137 159 173 178 173 156 130 100 74 57 46 42 42 47 59 79 105 133 156 173 184 188 185 176 158 136 114 97 87 81 78 77 78 79 80 78 75 70 65 63 67 80 102 132 161 180 186 177 155 125 96 78 71 77 
