P2
100 100
255
129 146 161 171 171 160 140 115 93 78 73 78 92 114 139 160 172 173 164 144 118 91 71 60 55 56 63 75 91 111 131 145 153 154 149 139 128 115 104 96 90 86 86 88 95 107 121 136 149 156 158 151 138 120 101 86 75 69 66 68 74 84 98 112 126 137 146 152 156 157 154 148 140 133 126 121 115 109 101 93 84 76 68 62 58 57 61 72 92 118 144 164 173 171 160 144 127 115 111 117 
157 169 178 180 173 156 129 101 78 64 60 65 78 100 127 151 166 169 161 143 118 94 75 64 60 62 69 81 96 113 128 138 142 140 136 129 123 118 115 113 110 107 103 100 99 101 107 116 126 136 143 146 143 135 125 114 103 95 88 83 81 82 86 92 99 107 116 127 139 150 158 163 165 164 160 155 146 134 117 99 82 69 58 52 49 49 55 67 87 113 140 160 171 172 166 155 144 138 138 145 
177 186 190 188 176 153 123 92 69 56 52 57 70 92 119 145 162 169 163 149 127 105 88 78 75 78 85 96 109 120 127 129 128 123 119 116 117 122 128 134 136 135 129 119 109 100 95 96 102 113 125 137 146 150 150 145 138 128 117 105 94 84 79 76 77 82 90 103 121 142 161 174 183 186 186 182 172 157 135 110 87 68 56 50 48 50 57 70 90 114 138 156 165 167 163 157 153 152 158 167 
188 195 197 193 178 153 120 88 65 53 50 55 68 90 118 144 163 171 169 158 142 124 110 102 100 104 111 120 127 130 128 121 112 104 100 101 109 122 139 153 162 163 156 142 123 103 88 81 82 90 105 125 145 161 170 172 169 161 147 129 108 90 76 67 64 65 72 86 108 135 161 181 193 200 201 198 190 174 151 122 94 74 61 55 55 59 68 82 101 121 139 150 155 154 150 147 148 154 165 177 
191 199 201 195 180 154 120 88 65 54 52 58 73 95 123 149 167 176 175 168 157 145 135 131 131 136 142 147 147 142 130 113 98 86 82 85 98 119 145 167 181 184 179 163 139 110 86 71 67 73 88 112 140 165 182 190 190 184 170 148 121 96 76 63 56 56 62 77 100 130 160 183 197 205 207 205 197 183 160 132 104 83 71 68 70 78 89 104 119 132 140 142 139 133 128 127 132 144 160 177 
187 197 200 195 180 154 121 90 69 59 59 67 83 107 133 156 172 179 179 174 167 160 156 156 159 164 169 170 165 152 131 107 85 71 66 71 86 112 145 173 191 198 194 179 153 119 88 66 58 61 75 101 134 165 187 199 201 196 182 159 129 99 76 62 55 54 61 75 99 129 159 182 196 204 206 204 197 183 163 138 113 96 88 88 95 106 119 132 141 145 142 133 120 109 101 101 109 125 147 169 
179 192 196 192 177 151 121 93 75 68 70 81 100 123 145 163 174 177 176 172 167 165 166 170 177 183 187 186 177 160 133 102 76 61 55 59 75 103 140 174 196 205 204 191 165 129 93 67 54 54 67 92 127 162 187 201 204 199 185 161 130 100 77 64 58 59 67 81 104 131 157 177 190 196 198 195 188 176 158 138 121 110 108 114 125 139 152 160 163 158 144 123 102 86 77 76 85 103 128 156 
168 184 189 185 170 146 118 95 82 79 86 100 119 139 156 167 171 169 164 159 156 157 163 172 182 190 195 194 184 164 134 100 72 54 48 51 66 94 132 170 195 207 208 198 175 139 101 71 55 53 64 88 123 158 184 198 201 194 179 154 125 98 79 70 68 71 81 95 115 136 155 169 177 181 180 177 170 159 146 133 125 123 129 140 155 168 178 183 180 167 144 115 88 69 59 58 66 84 110 141 
156 174 180 174 159 136 113 96 88 91 103 120 138 154 163 165 160 152 142 135 133 137 147 161 176 189 195 195 187 167 136 101 71 53 45 47 60 86 124 163 192 206 209 202 182 149 111 79 61 57 66 89 121 155 179 191 192 183 165 141 115 95 83 80 83 92 103 117 131 143 153 157 158 157 154 149 143 136 129 124 124 132 145 161 176 188 196 197 190 173 144 109 79 59 49 48 55 71 97 128 
148 165 169 161 145 124 106 95 94 104 120 138 154 163 164 156 143 128 114 105 103 109 122 142 162 179 190 193 187 169 141 106 77 57 48 48 59 82 118 156 186 202 207 202 186 158 123 91 72 66 74 95 124 153 173 181 178 165 145 123 103 91 89 94 106 119 132 143 149 152 149 143 135 128 122 117 113 110 110 113 121 136 154 173 189 200 205 204 195 175 143 105 73 54 44 44 50 66 91 121 
145 158 159 148 130 111 97 93 100 115 135 153 165 167 159 143 122 101 86 77 76 82 96 118 142 165 180 187 184 171 147 117 88 68 57 55 64 84 115 150 178 196 202 200 187 165 135 107 88 82 89 107 130 152 166 168 159 143 122 103 91 88 96 111 130 148 161 167 167 159 146 130 114 101 93 90 89 90 95 103 117 136 158 178 193 204 208 206 197 175 141 103 71 52 44 44 52 68 92 121 
147 155 151 136 116 99 90 92 105 126 148 164 172 167 152 128 101 79 65 57 57 63 76 97 123 148 168 178 180 172 155 131 107 88 75 71 76 91 116 144 169 185 193 193 184 167 145 123 107 102 108 122 139 153 158 153 139 119 100 86 81 87 103 127 153 172 183 186 180 166 145 120 99 84 76 73 75 79 87 98 113 134 156 176 192 202 206 205 194 173 139 102 71 54 47 48 58 76 101 127 
154 156 146 127 106 91 86 93 111 135 158 173 176 166 144 114 85 64 52 46 47 53 65 83 108 133 154 168 173 171 162 148 131 115 104 97 98 105 120 138 156 169 177 179 175 165 150 136 126 124 128 138 147 153 150 138 119 99 82 73 74 86 109 140 168 187 197 197 188 171 145 116 92 76 69 69 72 78 86 97 111 128 148 168 183 194 200 199 189 168 136 101 73 57 52 56 69 90 116 139 
163 159 143 120 99 86 85 96 118 144 167 179 178 164 138 105 76 56 46 43 45 51 63 79 99 121 140 155 164 167 167 162 154 146 137 130 125 123 125 131 139 147 153 157 157 155 150 144 141 141 145 150 154 152 142 126 105 85 71 65 70 86 113 146 175 194 202 202 192 173 146 117 94 79 74 75 80 86 93 100 109 121 136 153 168 181 188 188 180 161 132 100 76 63 60 68 84 108 133 153 
170 161 141 116 95 84 85 100 125 153 174 184 181 164 134 100 72 54 46 46 50 58 69 83 99 115 128 140 150 158 165 170 172 171 167 160 150 140 130 123 119 120 123 128 133 138 142 145 148 152 155 157 156 149 136 117 96 78 67 63 69 86 113 146 174 193 201 200 190 172 148 122 102 91 88 91 96 101 104 106 107 112 120 132 147 160 169 173 167 151 126 100 80 70 70 81 101 126 150 166 
173 160 137 111 91 82 87 104 131 160 180 188 183 165 135 101 74 59 53 55 62 73 85 96 106 112 118 123 131 142 156 169 180 186 186 181 169 151 131 112 99 93 94 99 108 119 130 141 149 155 158 157 153 144 130 113 95 80 70 67 73 87 111 140 165 183 191 190 182 167 148 129 115 109 109 114 119 121 118 112 106 102 103 110 121 134 146 153 152 140 122 101 85 79 82 96 118 142 163 174 
172 155 131 105 87 80 87 106 135 163 182 189 184 166 138 107 82 69 67 73 85 98 109 116 117 113 108 106 110 121 140 161 180 192 196 192 179 156 128 100 81 72 70 75 86 101 118 134 146 152 154 152 146 137 126 113 100 89 81 78 81 91 108 129 149 164 171 171 166 156 144 134 129 129 134 140 143 140 131 118 103 92 87 89 97 110 124 134 138 132 120 105 93 90 95 110 132 154 170 177 
167 148 123 98 81 77 84 104 133 160 180 187 183 167 142 116 95 86 89 99 115 129 138 138 129 114 99 89 88 99 119 146 172 190 199 196 181 155 121 89 68 57 55 61 73 90 110 129 141 147 146 141 135 129 123 117 112 106 102 98 97 100 107 117 127 136 142 143 141 138 136 136 140 147 155 161 162 155 140 120 99 83 75 74 80 92 107 121 129 130 123 113 105 103 109 124 143 161 173 176 
161 140 114 91 76 72 80 98 125 152 171 180 178 165 146 125 112 108 116 130 147 159 163 156 138 113 90 75 70 78 98 128 160 184 195 194 178 149 112 79 58 49 48 54 68 87 109 128 139 141 136 129 122 119 120 124 128 130 129 125 120 113 108 105 105 107 108 111 113 118 125 136 149 161 171 175 173 162 143 118 94 76 67 65 71 83 100 117 129 135 132 126 120 119 124 136 152 165 173 172 
156 135 109 86 72 68 74 89 112 136 156 166 166 159 146 134 127 131 142 158 172 181 181 168 143 110 82 63 57 62 80 111 146 174 189 188 171 140 103 71 52 45 46 55 71 94 117 134 141 137 127 116 109 110 118 131 145 154 158 155 145 131 114 99 88 82 80 82 88 99 115 134 154 170 180 183 177 163 139 112 88 71 62 62 69 83 102 122 138 146 147 143 138 136 139 148 159 168 173 169 
156 134 109 86 71 65 68 79 96 117 134 146 150 147 142 138 140 148 162 177 189 194 189 172 142 105 74 55 48 52 69 98 134 165 182 181 163 131 95 66 50 45 50 63 84 109 132 146 148 137 121 105 97 99 113 135 157 174 181 180 169 149 123 97 77 66 61 63 71 86 108 134 158 175 184 184 175 157 131 103 81 67 61 63 73 90 112 135 152 161 162 159 154 151 152 158 165 171 174 169 
160 141 116 92 75 66 65 70 82 97 111 123 129 132 134 138 147 159 174 188 196 198 191 170 137 99 68 50 44 48 64 92 128 159 176 174 156 124 89 64 51 50 60 79 105 133 154 163 158 140 116 95 85 89 107 135 164 186 196 197 186 165 133 100 73 58 52 53 63 81 107 136 162 179 185 182 169 147 120 94 75 64 62 68 81 102 127 150 166 174 175 171 165 161 161 164 169 174 176 172 
169 152 130 106 85 72 66 66 72 81 92 102 111 119 127 137 150 165 180 191 198 197 187 164 130 94 65 49 44 50 66 94 129 158 173 170 151 120 88 66 57 61 77 102 133 159 176 180 169 145 114 88 75 78 97 129 164 190 204 206 198 177 143 105 74 56 48 51 61 82 111 142 167 181 184 177 160 135 108 85 70 63 65 75 92 116 142 163 176 182 180 175 168 163 162 164 170 176 179 177 
178 167 148 125 102 84 73 68 68 73 80 89 99 110 122 135 151 166 180 190 194 192 179 156 124 91 66 53 51 58 76 105 137 163 174 170 150 120 91 73 68 78 100 130 161 183 195 193 179 150 113 83 67 68 86 119 157 188 206 211 204 185 152 112 78 57 50 52 65 88 119 149 172 182 181 169 148 122 97 77 67 65 71 84 105 130 153 171 180 181 177 169 161 154 153 157 165 174 180 183 
186 180 167 147 124 102 85 75 72 73 78 87 97 109 122 136 151 165 176 183 186 181 168 146 118 91 72 63 64 75 96 123 151 171 178 171 150 122 96 82 82 98 125 157 184 201 208 203 186 153 113 79 60 59 74 106 146 181 203 211 207 190 159 119 84 62 54 58 73 98 129 157 175 181 175 159 136 110 87 73 67 69 79 95 117 140 159 171 174 171 162 151 141 134 133 139 151 165 177 185 
189 189 181 166 145 122 103 89 83 82 87 94 105 117 129 141 152 162 168 172 172 165 153 134 113 94 82 80 86 101 122 147 168 181 182 172 150 123 101 91 96 117 147 177 200 212 215 209 190 156 113 76 55 52 64 91 131 170 196 207 206 191 163 125 90 68 61 66 83 110 139 163 176 177 167 148 123 100 82 73 72 78 91 109 129 147 160 164 160 150 137 123 111 105 106 114 129 148 167 181 
185 191 188 178 161 141 122 107 100 99 104 112 122 132 141 148 153 156 157 155 151 144 134 121 108 100 97 102 114 131 151 169 183 188 185 171 148 122 102 96 105 129 160 188 208 217 219 212 192 158 113 74 52 46 55 78 115 155 185 200 202 189 164 129 96 76 69 76 94 120 147 166 173 170 156 135 112 93 81 78 82 92 107 124 141 152 156 151 140 123 106 91 81 76 78 86 102 125 149 171 
174 185 188 182 169 153 137 125 120 121 127 136 144 151 156 156 153 148 141 133 126 119 112 106 103 106 114 127 143 160 175 187 193 192 183 165 140 115 98 94 106 131 163 190 209 218 219 212 192 158 113 74 51 43 49 67 100 140 172 191 195 185 162 131 102 83 78 86 104 128 150 163 166 158 142 122 104 92 87 90 99 112 128 142 153 156 151 138 118 98 79 66 58 54 56 63 78 99 127 153 
156 172 179 176 168 155 144 137 136 141 149 158 166 170 169 163 152 138 123 110 100 94 90 91 98 110 127 147 166 181 191 197 197 191 176 153 126 102 88 86 98 123 154 182 202 213 215 209 190 158 115 76 52 43 46 61 89 126 159 180 186 178 158 131 105 90 86 94 111 131 147 155 154 143 128 112 101 96 99 108 122 137 151 161 165 161 148 127 102 79 62 50 43 41 42 48 59 78 103 132 
136 154 162 162 156 147 141 139 144 154 165 175 182 183 178 167 149 127 106 89 78 73 73 79 91 111 136 160 180 193 199 201 196 184 164 137 109 87 75 74 84 106 135 164 187 201 206 202 186 156 117 81 57 47 48 60 84 116 148 169 176 169 152 129 107 95 93 101 115 130 141 144 139 128 116 106 103 107 117 131 147 161 172 177 176 167 149 124 96 71 54 43 37 35 36 40 48 63 85 111 
118 133 141 140 135 130 128 132 142 157 172 184 190 190 183 167 144 117 92 74 63 59 61 69 85 110 139 166 186 197 202 199 190 173 148 118 91 72 62 61 69 85 110 137 163 181 190 190 178 154 121 89 66 56 56 66 86 114 141 160 166 160 145 125 108 98 97 104 115 126 132 131 125 116 108 106 111 122 138 155 170 181 187 189 184 173 154 128 99 74 57 45 39 36 36 39 45 57 75 96 
107 118 121 118 112 108 109 117 132 151 170 184 191 191 182 164 138 108 82 64 54 51 54 63 81 108 139 168 187 197 199 194 180 158 129 100 76 60 53 51 56 67 85 108 132 153 167 172 167 150 126 101 82 72 71 80 97 119 141 155 158 152 137 120 106 99 100 106 114 121 123 121 115 109 107 112 123 140 158 174 186 193 196 195 189 178 161 138 112 88 70 58 50 46 45 46 52 61 75 92 
108 112 109 102 94 89 90 99 116 138 159 176 185 185 176 158 131 101 77 60 52 49 52 62 80 107 139 166 185 193 193 184 166 141 111 84 65 53 47 46 48 55 66 82 102 122 140 150 152 146 132 116 103 95 96 103 116 133 147 155 154 145 131 116 104 99 101 106 112 117 117 114 110 108 112 122 138 156 173 186 194 198 197 194 188 180 167 151 132 113 96 83 74 68 65 66 70 78 88 100 
121 117 107 95 83 77 76 84 99 120 142 160 171 173 166 149 125 99 77 63 55 53 57 67 85 111 140 165 180 187 183 171 150 123 96 73 59 50 46 45 47 50 57 67 81 98 114 128 137 140 137 132 126 124 126 132 141 150 157 158 152 140 125 111 102 99 101 106 112 115 115 113 112 114 121 134 151 168 182 190 194 193 189 184 179 173 168 161 152 142 131 121 112 105 101 100 102 107 114 119 
141 131 116 99 83 73 70 73 84 101 121 138 150 155 150 138 120 101 84 73 67 66 70 80 96 119 143 163 175 177 170 155 132 107 84 67 57 52 51 51 53 55 59 64 73 84 97 111 123 133 140 144 147 150 154 158 163 167 167 162 151 136 120 107 99 98 101 106 112 116 117 117 118 122 132 146 161 174 182 185 183 177 169 162 157 157 159 164 167 168 165 161 155 149 145 142 142 144 146 146 
161 149 131 111 92 78 71 70 76 86 100 114 126 132 133 128 119 109 99 92 88 88 92 101 115 132 149 162 167 165 154 137 115 93 76 66 61 60 63 66 69 71 72 74 77 82 90 100 113 126 139 150 160 167 173 177 179 178 174 165 150 133 116 104 97 97 101 108 115 119 122 123 126 132 141 153 164 171 173 169 160 148 136 128 125 130 141 157 172 183 189 190 188 185 181 178 175 174 172 169 
175 164 148 129 109 92 81 74 74 77 84 94 103 111 117 121 122 122 121 119 119 120 123 129 137 147 155 160 158 150 136 118 99 83 72 68 70 75 83 91 97 100 100 97 94 92 92 96 105 118 133 148 163 174 181 186 186 183 176 164 148 129 113 102 97 98 104 111 119 124 127 130 133 138 145 153 158 159 154 143 128 112 98 90 90 99 117 143 169 189 201 206 206 204 201 197 193 190 187 183 
180 173 162 147 130 113 98 86 79 75 76 79 85 94 105 116 128 138 145 149 152 153 155 156 158 160 159 155 147 134 118 101 86 76 72 75 84 98 113 126 134 138 136 130 120 110 101 97 99 108 122 139 156 170 179 184 185 181 172 159 142 125 110 102 99 102 109 117 124 129 132 134 136 139 143 146 146 140 129 113 95 79 67 61 62 72 93 125 159 186 202 210 212 210 206 201 196 191 187 184 
173 173 170 163 152 137 121 105 91 80 73 72 75 84 97 116 136 153 166 174 178 179 178 175 172 166 159 148 134 118 102 88 77 73 75 85 102 124 144 160 170 174 171 162 148 130 113 100 95 98 108 124 141 157 168 174 175 171 162 149 134 120 109 104 104 109 117 125 131 134 135 135 134 134 134 133 128 118 103 86 70 56 47 43 45 54 75 107 145 177 197 207 208 205 198 190 182 176 173 173 
156 165 171 173 169 160 146 127 108 90 77 71 71 79 95 118 143 165 180 189 193 193 190 184 176 166 153 138 121 105 90 79 73 73 81 98 121 147 170 186 195 198 195 186 169 147 123 103 91 89 95 108 124 139 150 156 157 153 145 134 123 114 110 110 114 121 129 135 139 139 136 132 128 124 122 117 110 99 85 70 56 45 38 35 37 46 64 95 132 165 187 196 195 188 177 165 154 147 145 149 
132 150 166 177 181 178 167 150 127 105 86 75 72 79 96 121 148 172 188 196 199 197 192 183 172 158 143 126 110 96 84 76 73 78 90 111 138 165 187 201 208 210 207 197 180 156 129 105 89 84 86 96 108 120 129 133 133 129 123 116 111 110 113 119 128 137 144 148 148 143 135 126 118 112 108 103 96 87 75 63 52 43 38 36 38 45 62 89 122 152 171 178 173 160 144 128 115 108 109 117 
107 132 158 177 187 189 182 168 146 121 98 83 78 83 99 124 151 174 189 196 196 192 184 173 160 145 130 116 104 93 85 80 80 87 102 125 151 176 195 206 212 213 209 199 181 157 130 105 90 84 85 91 100 107 111 111 109 104 100 98 100 106 117 131 144 155 161 161 156 146 132 118 107 100 96 93 90 85 77 68 59 51 46 44 46 54 68 91 118 142 154 154 144 126 107 90 79 74 77 88 
89 118 149 174 189 195 191 180 161 136 111 93 85 89 103 125 150 170 183 187 185 178 168 155 141 129 118 110 103 98 94 92 95 102 117 138 161 182 196 205 209 208 202 191 173 150 126 106 95 91 93 98 102 104 101 96 90 84 82 83 90 104 123 143 160 171 175 173 164 148 129 111 98 90 88 90 92 92 89 84 77 71 66 63 65 72 85 103 122 135 139 131 115 95 77 63 55 52 56 68 
79 109 142 170 188 196 195 187 170 148 123 104 94 95 106 125 145 161 170 171 166 156 143 131 120 113 110 110 110 111 112 113 115 122 134 150 167 182 192 198 199 195 186 173 156 136 119 108 105 107 112 116 117 112 102 89 78 71 68 72 84 103 129 154 173 184 187 182 170 150 126 105 90 84 86 92 101 109 112 112 108 103 98 95 96 102 111 122 132 135 128 113 94 74 59 49 43 43 47 59 
77 105 137 165 184 193 194 188 174 155 132 114 102 101 108 121 135 146 150 148 140 128 116 107 102 103 108 116 125 131 135 137 139 143 150 159 169 178 183 184 180 173 161 146 131 119 112 112 119 129 138 143 140 129 111 91 73 63 60 64 78 103 133 162 183 193 195 188 173 150 123 100 86 82 88 100 116 131 141 145 145 142 138 135 135 137 141 145 145 138 124 103 82 65 52 45 42 42 47 58 
83 107 134 159 177 186 188 183 172 156 137 120 108 104 107 114 122 127 127 121 112 102 93 89 92 100 113 129 142 152 158 159 159 159 160 163 166 168 168 163 154 142 128 115 104 100 105 118 136 154 166 171 166 151 126 98 74 59 55 59 75 101 136 167 189 199 199 191 174 148 120 97 84 83 93 111 133 152 166 173 175 174 171 168 166 166 165 163 156 142 123 100 80 64 54 49 48 50 55 66 
93 111 131 150 164 173 175 172 164 151 136 122 111 105 104 106 108 108 104 98 90 82 79 81 89 105 124 144 160 170 174 174 171 167 163 160 157 154 147 138 125 110 96 86 81 86 100 124 152 174 189 193 188 171 142 107 77 59 52 56 72 100 136 169 191 200 200 190 171 145 116 95 84 87 101 123 147 168 182 190 192 191 189 186 184 181 178 171 161 144 124 102 84 71 64 62 62 66 71 80 
107 116 127 137 146 153 155 155 150 142 131 120 111 105 101 99 97 93 88 82 76 73 74 81 95 115 138 158 173 181 183 179 173 165 157 150 144 136 126 114 99 84 73 66 66 76 98 130 163 189 203 208 203 186 156 117 82 60 51 54 70 99 135 168 190 199 197 186 166 139 112 94 87 93 109 133 157 176 188 194 196 194 192 189 185 182 177 170 159 143 124 106 93 84 81 82 86 90 95 100 
121 120 120 121 124 128 131 133 133 130 125 118 111 104 99 94 89 84 79 74 71 72 77 89 107 130 152 170 180 184 181 174 163 152 142 134 127 119 109 97 83 70 60 55 58 70 96 133 170 197 211 216 211 195 165 125 87 62 52 55 70 98 134 166 186 193 190 178 157 131 108 94 92 101 119 141 162 177 185 188 187 183 180 176 173 170 167 160 151 139 125 113 105 103 105 110 116 121 123 123 
133 121 111 104 102 103 107 111 116 119 119 116 112 106 100 94 88 82 78 75 75 78 88 103 123 145 164 176 181 179 170 158 144 131 121 114 110 106 100 90 78 66 56 52 55 68 94 132 171 199 214 218 213 198 169 129 91 66 55 58 74 101 134 162 180 185 179 165 144 122 105 96 99 111 128 147 163 172 174 171 166 160 155 152 150 149 148 145 140 133 126 121 120 124 131 140 147 150 149 143 
139 119 101 89 83 83 88 96 105 113 118 119 117 112 105 99 92 87 83 82 85 92 104 121 140 158 171 177 175 166 151 133 117 105 98 96 98 100 100 94 84 72 61 55 56 67 91 127 166 194 210 215 211 196 168 130 94 70 62 66 82 107 136 159 172 173 164 148 129 112 102 101 109 122 138 152 160 161 156 147 136 128 122 120 122 125 128 131 131 130 129 130 135 143 154 163 170 172 168 156 
140 114 92 78 72 72 78 89 102 114 123 127 127 123 116 109 103 98 95 96 100 109 122 138 154 167 174 173 163 147 127 106 90 81 79 83 92 102 109 108 100 87 73 63 60 67 86 118 154 183 200 206 202 187 161 127 96 77 72 79 95 119 142 158 163 158 145 129 114 104 102 108 121 136 149 156 156 148 135 119 106 97 93 93 98 106 114 122 127 130 134 139 147 158 169 178 184 184 177 162 
137 110 86 72 66 68 77 90 107 123 134 141 141 138 132 125 118 113 111 113 118 126 138 152 163 171 172 165 149 127 103 83 70 64 67 76 93 111 126 131 125 111 93 76 67 68 81 105 136 164 182 189 185 170 147 120 98 86 87 98 115 135 150 157 154 142 126 111 100 98 104 117 134 149 159 160 152 136 116 97 83 75 73 77 86 98 110 121 129 135 140 147 155 166 177 185 190 189 180 163 
134 106 83 70 67 71 83 100 120 138 150 156 157 154 148 141 135 130 128 129 133 141 150 159 167 170 167 155 135 110 86 68 58 56 61 76 99 125 146 156 153 139 117 94 78 71 76 92 115 138 155 162 158 146 128 110 99 97 105 121 138 153 160 158 146 128 109 96 90 95 108 128 148 162 168 164 150 128 104 84 71 65 66 74 86 101 115 128 136 141 146 151 159 169 179 186 190 188 179 160 
130 103 83 72 72 80 95 116 138 155 166 171 171 167 161 155 148 144 141 141 143 148 154 161 165 166 160 146 125 100 77 61 53 53 62 81 109 141 166 178 177 164 141 114 91 77 74 81 95 111 124 129 126 118 107 100 99 108 124 144 160 169 169 158 139 116 96 84 84 94 114 138 159 173 175 167 149 124 98 79 68 65 69 79 94 111 126 137 143 145 147 151 157 167 176 184 187 185 175 156 
127 102 85 77 79 91 111 134 155 171 179 182 180 175 169 162 155 150 146 144 144 147 151 156 160 160 154 141 121 98 77 62 55 56 67 89 121 154 180 193 193 182 161 133 105 85 76 76 83 91 98 101 98 93 89 90 100 118 141 162 176 181 174 157 131 105 85 77 80 95 119 146 168 180 180 170 149 123 98 80 71 71 79 91 107 123 136 143 145 143 142 144 150 159 170 178 183 181 171 152 
123 101 86 82 88 103 126 150 170 183 188 188 184 177 169 160 153 146 141 138 137 138 142 147 152 154 151 142 125 105 85 70 63 64 75 98 130 163 187 200 201 192 173 147 119 96 83 78 79 83 85 84 80 77 77 84 101 125 152 174 186 186 175 152 122 95 77 71 78 96 123 152 173 183 181 170 149 124 101 86 80 83 92 105 120 132 139 141 138 133 129 130 136 148 161 172 177 176 166 147 
118 98 86 84 93 112 137 161 179 189 192 189 182 172 161 150 141 133 128 124 123 124 129 136 143 149 151 147 135 118 99 84 75 74 84 106 136 167 189 200 202 194 178 155 130 109 95 89 87 87 85 80 75 71 73 82 102 129 157 178 188 185 169 143 112 86 70 67 76 97 125 153 173 181 179 166 147 124 105 94 91 95 105 116 127 133 134 129 122 114 109 111 120 135 151 165 172 170 160 141 
111 93 83 83 94 114 141 165 182 190 191 185 175 161 146 133 122 114 109 107 106 109 116 126 138 148 155 155 149 135 118 101 89 86 93 111 137 164 183 194 196 190 176 158 138 122 112 107 105 103 98 90 81 75 75 84 103 130 158 177 184 178 159 130 100 77 65 64 75 96 123 150 168 175 171 159 141 123 109 102 102 107 115 123 127 126 120 111 100 92 89 93 105 124 144 160 168 166 154 134 
103 85 76 77 89 110 137 162 179 187 186 177 162 144 126 111 100 94 90 89 91 97 107 120 136 150 161 165 163 152 136 118 103 96 98 111 132 154 171 181 183 178 168 155 142 133 130 130 131 128 121 110 96 86 82 89 106 130 155 171 175 167 145 116 88 69 61 62 74 94 120 143 158 163 158 146 132 118 110 108 111 117 122 124 121 113 102 90 80 74 74 81 97 119 142 159 166 163 148 126 
93 76 68 69 80 100 127 153 172 180 178 166 147 126 105 90 81 76 75 77 81 90 103 120 139 156 168 174 173 165 149 130 112 101 99 106 121 138 153 162 164 161 154 146 142 142 146 152 156 155 148 134 117 102 94 97 110 130 150 163 165 154 132 104 80 65 59 63 75 94 116 135 146 147 141 130 120 112 110 113 119 124 126 122 113 100 86 74 66 63 67 78 98 123 147 163 168 161 143 118 
84 67 59 60 70 89 115 142 162 171 168 155 133 109 89 75 67 64 65 69 77 90 106 126 146 163 175 180 179 170 155 134 115 101 95 98 107 120 132 139 142 140 136 135 138 146 157 168 175 176 170 156 138 120 108 106 115 130 146 156 156 143 122 97 77 65 63 68 80 97 114 127 132 129 122 113 107 105 109 117 126 131 129 121 107 91 76 65 60 61 69 86 110 136 158 172 173 162 139 110 
77 60 52 53 61 78 103 131 153 163 161 147 124 99 79 66 59 58 61 68 79 95 115 136 156 171 180 183 179 169 151 130 110 95 89 89 95 105 114 120 122 121 121 124 132 146 161 176 185 187 183 170 152 133 119 115 121 133 145 153 151 139 120 99 82 74 73 80 92 105 117 122 121 114 105 98 96 100 109 122 133 138 135 124 107 89 75 66 64 70 83 104 130 155 174 182 179 163 136 104 
71 54 47 48 55 71 95 123 147 159 157 143 121 96 75 63 57 57 62 71 86 106 128 149 166 177 182 181 174 160 141 120 101 88 82 83 89 96 104 109 110 110 111 116 127 143 161 176 186 189 185 173 156 139 126 121 126 137 148 154 153 143 127 110 97 92 93 101 111 120 125 123 114 102 92 87 88 97 111 128 141 147 143 131 114 96 83 77 79 89 107 130 155 176 188 192 185 165 134 99 
68 52 45 46 54 70 94 123 147 160 159 146 124 99 78 65 59 60 67 79 98 120 143 162 174 181 181 175 163 145 125 106 90 82 79 82 89 98 105 109 110 109 110 114 124 139 156 170 179 181 176 165 150 135 125 124 130 142 154 160 160 153 142 130 121 118 121 128 136 140 138 128 113 97 85 81 85 97 116 136 150 157 154 143 127 111 100 97 103 117 137 159 178 193 200 199 188 165 132 96 
68 53 47 49 58 76 101 129 152 165 165 154 133 108 87 73 67 68 76 92 113 136 157 172 180 181 176 164 147 127 108 92 82 78 81 88 99 109 117 121 120 118 116 118 124 135 147 157 163 163 157 146 133 122 118 121 133 147 160 169 170 167 160 153 148 148 152 157 161 160 152 137 116 97 84 80 86 102 123 144 160 167 165 156 143 130 123 123 131 146 164 181 195 203 206 201 188 163 129 94 
70 58 54 58 70 89 114 141 162 173 173 163 145 121 100 85 78 80 90 107 129 151 168 179 182 178 167 150 129 109 92 81 77 79 88 101 115 128 136 139 138 133 128 125 126 131 136 141 142 138 131 120 111 105 106 116 132 151 166 176 180 178 175 171 170 171 175 179 181 177 165 146 122 101 87 84 92 110 132 154 168 175 173 166 156 147 143 145 154 168 182 194 202 206 205 198 183 157 125 93 
76 68 68 75 89 110 133 156 173 181 180 172 156 135 115 100 94 96 107 124 144 163 176 182 180 171 155 133 111 92 80 74 76 85 100 119 136 150 158 159 156 149 141 134 130 127 126 124 119 112 103 95 89 88 94 109 130 152 169 180 185 185 183 181 182 185 188 192 192 186 174 154 129 108 94 92 102 120 142 161 174 179 177 170 161 155 153 156 165 176 187 195 200 200 196 187 170 146 119 93 
86 85 90 101 116 135 154 171 181 186 185 177 164 146 129 116 110 113 124 140 157 171 180 182 175 161 140 116 94 79 71 71 79 94 115 138 157 169 175 175 170 162 151 141 132 124 117 109 100 91 82 75 72 74 84 102 125 150 168 179 183 183 182 181 182 186 190 193 194 188 176 158 135 116 104 104 115 132 152 167 176 177 173 165 157 150 149 153 161 170 178 184 185 183 177 166 150 131 111 95 
99 106 117 130 145 160 172 181 186 187 184 177 166 152 139 129 125 129 139 153 167 177 181 179 168 149 125 100 81 70 66 71 84 105 130 155 173 183 186 184 177 167 156 144 132 122 111 100 89 78 70 64 62 66 77 96 120 144 162 172 174 172 169 168 169 174 180 184 186 182 172 157 138 123 116 118 129 144 159 170 173 170 162 151 141 134 132 136 142 150 156 159 158 153 146 136 124 113 103 98 
114 129 143 157 168 177 183 186 186 184 179 172 162 152 142 135 134 139 149 161 172 179 180 174 159 137 111 88 71 63 63 71 88 114 142 166 183 190 191 186 177 165 153 141 130 119 109 97 85 74 66 60 59 63 74 92 115 136 151 157 156 151 145 142 143 149 156 163 167 166 160 149 137 129 126 131 142 154 164 169 166 157 144 130 117 110 108 110 115 120 123 124 122 117 111 104 99 96 97 103 
128 147 163 175 182 185 186 184 179 174 167 160 152 144 138 135 136 142 152 163 173 178 177 169 152 127 101 79 65 59 61 72 92 119 149 173 187 192 189 181 170 156 143 132 124 116 108 99 89 78 69 63 62 66 76 92 111 128 138 139 133 123 114 109 110 115 123 132 138 141 140 136 132 131 134 142 152 161 166 164 155 139 122 105 93 85 83 84 87 91 93 92 90 86 82 80 80 85 94 109 
137 157 172 181 185 184 180 174 166 159 151 143 137 131 128 127 131 138 148 160 169 175 174 165 147 122 95 74 61 57 60 71 92 120 150 173 186 189 184 172 157 142 129 120 115 113 110 105 97 88 79 73 71 74 83 96 111 122 126 121 110 97 86 80 79 82 90 98 106 113 117 120 124 130 139 150 159 165 164 156 140 120 100 84 73 67 66 67 70 72 73 73 71 69 67 68 72 81 96 115 
140 158 170 176 176 172 166 157 148 139 131 125 119 115 114 114 119 127 138 150 161 169 170 162 145 121 96 74 61 56 59 69 89 117 146 169 181 183 175 161 142 125 112 106 106 109 113 114 111 104 96 90 87 89 96 106 116 121 119 109 94 79 67 60 58 60 65 72 80 88 95 104 115 127 141 154 163 165 159 145 125 102 83 69 61 57 58 60 64 67 69 70 69 67 67 69 75 85 101 120 
138 150 157 159 157 152 145 136 128 120 114 109 104 101 99 100 103 110 122 135 150 161 165 162 149 127 102 80 65 58 58 67 85 111 139 162 174 175 167 150 129 110 98 94 98 107 117 124 126 123 117 111 107 108 113 120 126 127 121 107 90 74 61 53 50 50 53 58 64 72 81 92 107 125 142 156 163 162 152 134 111 89 72 61 57 56 60 65 72 77 81 82 82 82 82 84 89 97 109 123 
130 134 136 135 131 126 121 116 111 107 104 100 96 91 88 86 87 93 103 117 135 151 162 164 156 139 116 92 74 63 60 65 80 103 130 153 167 169 160 142 121 101 90 87 93 106 120 133 140 142 138 133 129 129 131 136 139 138 130 116 98 80 66 57 52 50 51 54 58 64 73 86 104 123 142 155 161 157 144 124 101 81 67 61 60 65 73 83 93 102 108 111 111 111 110 110 111 114 119 125 
119 115 111 108 104 102 101 102 103 104 103 100 95 88 81 76 74 77 85 99 119 140 158 168 167 155 135 111 89 73 65 66 76 95 120 144 160 165 158 141 120 100 88 85 92 107 124 141 152 156 155 152 148 146 147 149 152 151 145 133 117 100 85 74 66 61 59 59 61 65 73 86 104 124 142 155 158 152 137 116 95 78 69 67 72 82 96 112 126 136 144 147 148 147 144 141 138 133 129 124 
108 97 90 85 84 86 90 97 104 110 112 110 102 92 80 71 65 65 70 83 104 130 155 171 177 172 157 135 110 88 73 69 74 89 112 137 155 163 159 145 125 106 93 89 95 110 128 146 159 165 166 163 158 155 155 157 160 162 159 153 142 129 115 103 93 84 78 74 72 74 80 92 108 127 144 154 156 148 132 111 92 80 76 80 91 108 127 145 160 170 176 179 179 177 173 168 159 149 135 121 
98 84 75 72 73 79 89 103 116 126 131 128 117 102 85 71 61 57 60 71 92 121 151 175 187 187 178 159 134 107 86 75 75 86 107 131 152 164 164 154 136 117 103 98 102 115 132 150 163 169 169 166 160 156 155 157 162 166 170 169 166 159 150 140 129 118 107 98 92 89 93 102 116 132 147 155 154 145 129 110 94 86 87 98 115 137 158 175 187 194 197 198 197 194 190 183 172 157 137 117 
92 78 70 68 72 82 98 116 134 147 153 150 138 119 96 76 62 54 54 63 83 113 148 176 193 199 194 180 157 129 103 85 79 85 102 126 149 164 168 162 148 131 117 109 111 121 137 152 163 169 168 162 155 148 145 148 154 163 172 178 182 182 178 172 164 153 141 128 116 110 109 115 126 140 151 157 154 144 129 112 100 96 102 117 138 160 179 193 201 205 206 205 202 199 194 186 174 157 136 113 
91 78 72 72 79 93 112 133 153 167 173 170 159 138 113 87 68 56 53 59 77 107 143 176 196 205 205 195 176 149 120 96 84 85 99 121 145 163 171 168 158 143 129 120 120 128 141 153 162 166 162 154 143 134 129 130 138 150 164 177 187 193 195 193 188 179 167 153 139 129 125 128 137 148 156 160 156 146 131 117 107 106 115 132 154 175 190 200 204 205 203 199 195 191 185 178 167 151 131 110 
97 87 83 85 93 108 128 149 168 181 187 186 176 158 132 104 79 62 55 58 73 101 138 172 196 208 210 204 189 165 134 106 89 86 96 116 139 158 168 169 162 150 137 129 127 133 143 153 160 161 155 143 129 116 109 108 116 130 147 166 181 192 198 200 198 192 182 168 154 143 138 139 146 154 161 164 160 150 136 122 114 114 124 140 160 177 189 195 195 192 187 181 175 170 165 160 152 142 127 111 
110 104 102 104 112 125 141 159 175 187 193 194 188 174 152 124 96 74 62 61 71 95 130 165 192 207 212 208 196 174 144 114 94 86 92 108 129 149 161 164 159 149 138 131 130 134 143 152 157 156 147 133 116 101 91 88 93 106 124 144 164 180 190 195 196 191 183 171 159 148 143 144 151 159 165 167 163 154 141 128 120 119 126 139 155 168 175 177 174 167 158 149 142 138 136 136 135 132 126 118 
129 127 126 127 131 138 148 160 172 183 190 194 193 185 169 145 117 91 73 66 71 89 119 154 182 200 208 207 197 177 149 118 96 85 87 100 118 136 148 152 149 142 133 127 127 132 140 148 152 150 141 125 107 90 79 74 76 84 99 118 138 156 170 178 181 179 172 163 152 144 141 144 152 160 167 170 167 158 146 133 123 120 123 130 140 147 150 147 140 130 120 111 105 103 106 112 119 126 130 131 
152 152 150 148 145 144 146 151 158 168 178 186 191 190 182 164 139 111 87 73 72 83 107 138 167 188 199 200 192 174 147 118 95 84 83 92 107 121 132 137 135 129 122 118 119 125 134 142 147 145 137 122 104 88 75 68 66 70 79 92 108 125 139 149 154 155 151 144 137 133 133 139 148 158 166 170 168 161 150 137 126 118 116 117 119 120 117 111 103 93 84 77 74 76 83 95 111 127 140 148 
171 172 169 162 153 143 134 131 134 142 155 169 181 188 188 177 158 131 103 83 73 77 93 118 145 168 182 186 180 164 140 114 93 82 81 87 98 109 118 121 119 114 109 107 109 115 124 134 140 140 135 123 108 93 80 71 66 65 68 75 84 95 106 115 121 124 124 121 118 118 122 130 141 152 162 167 167 162 153 141 128 118 109 104 99 94 88 81 73 65 59 56 56 61 73 90 112 135 153 165 
186 186 181 170 153 134 117 106 104 110 124 144 163 179 187 184 171 147 118 92 76 72 80 98 121 143 159 166 163 150 130 108 91 82 81 86 94 103 108 109 106 101 97 96 98 105 114 124 132 136 135 128 117 105 94 84 76 71 68 68 70 75 81 87 93 97 99 100 101 104 109 118 130 142 153 160 163 161 155 145 133 120 108 97 86 77 68 61 55 50 47 47 50 58 73 95 121 147 167 180 
194 193 186 171 149 123 99 83 77 80 93 114 140 164 180 184 177 158 130 101 80 70 71 81 98 117 133 142 141 133 118 103 91 86 86 90 97 103 106 104 100 94 90 88 90 96 105 115 126 133 137 136 132 124 116 106 96 87 78 72 68 67 69 72 76 81 85 88 91 94 99 107 117 128 139 148 154 157 156 150 141 129 114 98 83 70 60 52 47 44 44 46 52 64 82 107 135 160 179 190 
197 194 185 168 143 112 85 67 59 59 69 88 115 144 168 180 179 165 140 111 86 71 67 71 82 97 110 120 122 118 110 101 95 93 96 101 107 111 111 107 101 93 88 85 86 91 99 109 121 131 140 145 147 146 141 134 124 111 98 86 77 71 69 70 73 78 83 87 89 91 94 97 103 111 121 132 142 150 156 156 152 142 128 110 91 74 61 52 47 46 47 52 61 76 97 122 148 170 185 194 
192 189 180 163 137 106 78 59 49 48 54 70 95 126 154 173 177 168 148 121 95 77 69 69 75 86 97 105 110 110 107 104 103 105 110 117 122 124 122 116 107 98 91 87 87 90 97 107 119 132 143 153 160 164 164 160 152 140 125 109 96 87 82 81 84 89 94 97 97 95 92 90 91 95 102 113 127 142 154 163 164 159 147 129 109 88 72 61 55 54 58 65 77 94 114 137 157 173 184 190 
179 178 171 156 133 104 78 58 48 44 48 60 82 112 143 165 175 171 155 132 108 88 77 74 77 84 93 101 106 109 111 112 116 121 128 135 140 140 137 128 118 107 99 93 92 95 101 110 122 135 148 159 168 175 178 177 172 163 149 135 121 111 105 105 108 112 116 117 113 105 95 86 81 80 84 95 111 131 152 168 176 176 168 154 134 112 93 79 72 71 76 85 99 114 131 146 158 167 173 177 
157 159 158 149 132 108 84 65 53 47 48 58 77 105 136 161 174 174 164 145 123 104 92 86 86 91 98 105 111 115 120 125 131 138 146 152 156 155 149 140 128 117 108 103 101 104 110 119 129 141 152 163 172 178 182 183 180 174 165 154 144 137 134 135 138 143 145 142 134 119 101 84 73 68 70 79 96 120 148 170 184 189 186 176 160 140 120 105 97 97 102 111 123 134 142 147 150 151 152 154 
128 136 142 142 134 118 98 78 64 56 55 63 80 106 136 161 175 178 172 158 140 123 109 101 99 102 107 113 119 125 132 139 146 154 160 165 166 164 156 146 134 123 115 112 112 116 123 131 140 149 157 164 170 174 176 177 175 172 167 162 158 157 158 162 167 171 172 167 154 133 108 84 68 60 59 66 83 110 142 170 189 198 199 193 181 165 148 135 127 126 131 138 145 148 147 141 133 126 122 123 
99 112 126 137 139 132 116 98 82 71 68 74 90 114 142 165 179 183 180 170 155 139 125 115 111 112 115 121 128 135 143 151 158 165 170 172 171 165 156 145 133 123 118 117 121 129 137 146 153 158 162 163 163 162 160 158 156 155 155 157 160 166 174 181 187 191 191 185 170 145 114 85 65 54 52 57 73 100 134 167 190 202 205 202 194 182 169 158 153 152 156 160 161 156 145 129 112 98 92 92 
77 94 115 134 146 147 137 121 103 90 85 90 104 127 152 172 184 188 186 177 164 149 134 123 117 115 118 124 132 142 151 160 167 172 174 174 169 161 149 136 125 117 114 118 127 138 150 159 165 167 165 160 153 144 135 130 127 127 131 139 151 165 179 190 198 202 202 196 180 154 120 87 64 51 47 51 65 90 125 159 185 200 205 203 197 188 179 171 168 169 172 173 170 159 140 115 92 76 68 68 
64 83 109 135 153 160 155 141 124 109 103 106 120 140 162 178 188 191 188 180 166 150 133 120 113 110 113 120 131 142 154 164 171 175 175 171 163 151 136 122 111 105 106 113 127 143 158 169 174 174 169 157 141 124 109 99 94 95 101 114 133 154 175 191 201 207 207 201 186 160 125 90 64 50 45 48 60 82 114 148 175 191 197 196 191 183 176 171 171 174 178 179 173 159 134 105 79 62 54 55 
60 81 109 138 159 168 165 153 136 121 114 117 130 149 168 183 191 192 188 177 161 142 123 108 100 98 101 110 123 138 153 164 172 175 173 167 154 138 121 106 95 91 94 105 121 141 160 173 180 179 171 155 132 109 89 75 69 69 76 90 112 138 164 185 199 206 207 201 187 163 129 94 68 53 47 49 58 76 103 133 158 174 180 179 173 166 160 159 163 170 177 179 174 158 132 101 74 56 49 50 
65 86 115 143 163 171 167 154 137 122 115 118 132 150 169 183 190 190 184 170 150 127 107 92 83 82 86 97 112 130 148 162 171 173 170 160 145 127 108 92 83 79 83 95 113 135 157 173 181 181 172 154 128 100 77 62 55 54 60 72 93 120 149 174 190 199 202 198 186 164 134 102 77 61 54 54 60 74 93 116 136 148 152 149 143 137 134 137 146 159 171 177 173 159 134 103 77 59 52 54 
79 100 127 151 166 170 162 146 127 112 106 110 124 144 164 179 186 186 177 160 137 111 90 75 68 68 73 84 101 121 141 157 167 169 165 154 138 118 100 85 76 73 77 87 104 126 148 166 177 179 171 154 128 100 76 60 51 49 53 63 80 104 132 157 175 187 191 189 180 164 140 114 92 76 68 66 69 77 89 102 113 118 118 114 108 103 103 111 125 144 161 172 173 162 141 113 88 70 63 66 
101 121 143 160 169 165 152 131 111 96 90 94 109 130 153 170 180 180 170 151 125 98 77 64 58 58 64 76 93 114 135 152 161 163 158 147 132 115 99 86 78 75 77 84 98 116 136 154 166 171 167 153 132 107 84 68 58 54 55 61 73 92 114 135 153 166 172 174 171 162 147 130 114 101 93 89 88 89 91 93 94 93 88 83 77 75 77 87 105 129 152 168 173 167 151 128 106 90 84 88 
