P2
100 100
255
131 135 137 138 136 132 125 119 114 111 111 115 121 128 134 140 142 142 139 134 127 120 113 108 105 104 106 111 116 123 128 132 135 135 133 130 127 124 121 118 116 114 114 114 116 120 125 131 136 139 140 138 133 126 118 112 107 105 106 109 114 118 123 127 129 131 132 133 134 134 134 133 131 129 126 124 122 120 118 117 115 113 110 108 106 106 108 112 118 125 132 137 140 140 138 134 130 127 126 128 
138 141 142 141 138 131 124 116 110 107 107 110 116 123 130 136 139 140 137 133 127 120 114 110 107 107 109 113 118 123 128 131 133 132 131 129 127 125 124 122 121 120 118 117 117 118 121 125 130 134 136 136 134 130 125 120 116 114 114 115 117 119 120 121 122 122 124 126 129 132 135 137 138 138 136 134 131 127 123 119 115 111 107 104 103 103 105 110 116 123 130 136 139 140 139 137 134 133 133 135 
143 145 146 144 140 132 123 115 108 104 104 107 113 120 127 133 137 138 137 134 129 124 119 115 113 113 115 118 122 125 128 129 129 128 127 126 126 126 127 128 129 128 125 123 120 118 118 120 123 127 131 134 135 134 132 129 126 124 123 122 121 119 118 116 115 114 116 119 124 130 136 141 145 146 146 143 139 134 128 122 117 111 107 104 103 103 106 111 117 123 130 135 138 139 138 137 136 136 137 140 
146 148 149 147 142 134 125 116 108 104 104 106 111 118 125 131 136 138 138 136 133 129 126 123 121 121 122 124 126 127 128 127 125 123 121 122 123 127 131 134 137 137 134 130 124 119 116 115 116 120 125 130 134 136 137 137 136 133 131 128 124 120 116 112 109 108 109 114 120 129 137 145 150 153 153 150 146 140 133 126 119 114 109 107 106 107 110 115 120 125 130 133 135 136 135 135 135 136 139 142 
146 149 150 148 143 136 127 118 111 106 105 108 112 119 125 131 136 139 139 139 137 135 133 131 131 131 131 131 131 130 128 124 120 117 115 116 120 126 133 139 144 145 143 138 130 122 115 111 111 113 118 125 132 137 141 143 142 140 137 132 126 120 114 109 105 104 106 111 119 129 139 147 153 156 157 154 150 143 136 129 122 117 114 112 112 114 117 121 125 128 130 132 132 131 130 130 131 133 137 142 
144 148 150 149 144 137 128 120 114 110 109 111 115 121 127 133 137 139 141 141 140 139 139 138 138 139 139 138 136 133 128 122 116 111 109 110 115 123 133 142 149 152 151 145 136 126 116 109 106 108 113 121 129 137 142 146 146 144 140 134 127 119 113 107 104 103 106 112 120 130 140 148 154 157 157 155 150 144 137 130 124 120 118 118 120 122 126 128 131 132 131 129 127 124 123 122 124 128 133 139 
141 146 148 147 143 137 129 122 117 113 113 115 119 125 130 134 138 140 141 141 141 141 141 142 143 144 144 143 140 135 128 120 112 106 103 105 110 120 131 143 152 157 156 151 141 130 118 109 105 105 109 117 127 135 142 146 147 144 139 133 125 118 112 107 105 106 109 115 123 132 140 147 152 154 154 151 147 141 135 130 126 124 123 125 128 131 134 136 137 135 131 127 122 117 115 114 116 121 128 135 
137 143 145 144 141 135 129 123 119 117 118 120 124 129 133 136 138 138 138 138 138 138 140 142 144 146 147 146 143 137 130 120 111 104 100 101 106 116 128 141 152 158 159 154 145 133 121 111 105 104 108 116 125 134 141 145 145 142 137 130 123 117 112 109 109 110 114 120 127 133 140 145 147 148 147 144 141 136 132 128 126 126 128 131 135 139 142 143 142 138 131 124 116 110 107 107 109 115 122 130 
134 139 141 140 137 132 127 123 120 120 122 125 129 132 135 136 136 135 133 132 132 132 135 138 141 145 147 147 145 139 131 122 112 104 100 99 104 113 125 138 149 157 159 155 147 136 124 114 108 107 110 117 125 133 139 142 141 138 132 126 120 115 113 113 114 117 122 126 131 135 138 140 141 140 138 136 133 130 127 125 125 127 131 136 141 146 148 149 146 140 131 121 112 105 101 101 104 110 118 127 
132 136 137 135 132 127 123 121 121 122 125 129 133 135 136 135 132 129 126 124 123 124 126 131 136 140 144 146 145 141 134 125 115 107 102 101 104 112 123 135 146 153 156 154 148 138 127 118 112 111 114 120 127 134 138 139 137 133 127 121 117 114 115 117 121 126 130 133 136 136 136 135 133 131 128 127 125 124 123 123 125 128 133 138 144 149 152 152 148 140 130 119 109 101 97 97 101 108 116 125 
131 134 133 131 126 122 120 119 120 123 128 132 135 136 135 132 127 122 118 114 113 114 118 123 129 135 140 143 143 141 136 129 120 113 108 105 107 113 121 132 141 149 152 151 146 139 130 123 118 117 119 124 130 135 137 137 133 128 122 117 114 114 117 122 128 134 138 140 140 137 133 129 125 122 120 119 119 119 120 122 124 128 133 139 146 151 153 153 149 141 130 118 107 100 96 97 101 109 117 125 
132 133 131 127 122 118 116 117 120 124 130 134 137 136 134 128 122 115 110 106 105 106 110 116 122 129 135 139 141 141 138 133 126 120 115 112 113 116 122 129 137 143 146 147 144 138 132 127 123 123 125 129 133 136 137 134 130 123 117 113 112 114 119 127 135 141 145 145 143 138 131 125 120 116 115 115 116 118 120 122 124 128 133 138 144 149 152 152 148 140 129 118 108 101 98 100 105 112 121 128 
134 134 130 124 119 115 114 115 120 126 131 136 138 136 131 124 116 109 103 100 99 101 106 112 118 125 131 135 138 139 138 136 132 128 124 121 120 121 123 128 133 137 140 141 140 137 133 130 128 128 130 133 136 137 136 132 126 120 114 110 110 114 121 130 139 146 150 149 145 138 130 123 117 114 113 114 117 119 121 123 125 127 131 135 141 146 149 149 146 139 129 119 110 104 102 105 110 118 126 132 
137 135 130 123 117 113 113 115 121 127 134 138 138 135 129 121 113 105 100 98 98 101 106 111 117 123 128 132 135 137 138 138 137 136 133 130 128 126 126 127 129 131 133 135 135 134 133 131 131 131 133 135 136 136 134 130 123 117 111 109 109 114 122 132 142 149 152 151 146 139 130 122 117 114 115 117 120 123 124 125 125 126 127 131 135 140 144 145 143 138 130 121 113 109 108 111 117 124 131 136 
140 136 130 123 116 113 113 117 123 130 136 139 139 135 128 119 111 104 100 99 101 105 110 115 119 123 126 128 131 133 136 138 140 141 141 138 135 132 128 126 125 125 126 128 129 131 131 132 132 133 134 135 136 135 132 127 121 115 110 108 109 114 122 132 141 148 151 150 146 138 130 123 119 118 119 122 125 127 128 126 125 123 123 125 129 134 138 140 140 136 130 123 117 114 114 117 124 131 137 140 
141 137 130 123 117 114 114 119 125 132 138 141 140 135 128 119 111 105 103 103 107 112 117 121 124 125 125 125 126 128 132 137 141 145 146 145 141 135 129 124 120 119 119 121 124 127 129 131 132 133 133 134 133 132 130 126 121 115 111 109 110 114 122 130 139 145 148 147 143 137 131 126 123 123 125 128 131 132 131 127 123 120 118 119 122 127 131 135 136 134 130 125 120 118 119 123 129 135 140 142 
141 136 129 122 117 115 116 121 127 135 140 142 141 136 128 120 113 109 108 111 115 121 126 129 129 127 124 122 121 123 127 134 141 146 149 148 144 137 129 122 116 113 113 115 119 123 126 129 131 131 131 131 130 129 127 125 121 117 114 112 112 115 120 127 134 139 142 142 139 135 131 127 126 128 130 133 135 135 132 127 121 116 113 113 116 120 126 130 132 132 129 126 123 122 123 127 132 138 142 143 
139 134 128 121 117 115 117 122 129 135 141 143 141 137 130 122 117 114 115 119 125 131 135 136 133 128 122 117 115 117 122 129 138 145 149 149 145 137 127 118 111 107 107 110 115 120 125 128 130 130 129 128 127 126 126 125 123 121 119 117 116 117 119 123 128 132 134 135 133 131 129 128 129 131 134 137 138 136 131 125 118 112 109 108 111 116 122 127 130 131 129 127 125 124 125 129 134 138 141 142 
137 132 126 120 116 114 116 121 128 135 140 142 141 137 131 125 121 120 123 127 134 139 141 140 135 128 120 113 109 110 116 125 135 143 148 148 144 135 124 114 106 103 103 106 112 119 125 128 129 129 127 125 124 124 125 126 127 127 126 123 121 120 119 120 121 123 125 126 126 127 127 128 131 134 136 138 138 135 130 122 115 109 106 106 109 114 120 125 129 130 130 128 126 126 127 130 134 137 140 140 
135 130 124 118 114 113 115 119 125 132 137 139 139 136 132 128 125 126 129 134 140 144 145 142 135 126 116 108 104 105 111 121 132 141 146 146 141 132 121 110 103 99 100 105 112 120 126 130 130 128 125 122 121 122 125 128 132 134 134 132 128 124 120 117 116 115 116 118 119 122 124 127 131 134 137 138 137 133 127 119 112 107 105 105 109 114 120 126 130 131 131 130 128 128 129 131 134 137 138 137 
133 129 123 117 113 111 112 116 121 127 132 135 135 134 132 130 129 130 134 139 144 146 146 141 133 122 112 104 100 102 108 118 129 139 144 144 138 129 117 107 100 98 100 106 115 123 130 133 133 129 125 121 119 120 124 130 136 140 142 140 136 129 122 116 111 109 109 110 114 118 122 127 131 135 137 137 135 130 124 117 111 107 105 107 111 117 123 128 132 134 133 132 131 130 131 132 134 136 137 136 
134 129 124 118 113 111 110 113 117 121 126 129 131 132 131 131 131 134 137 142 145 146 144 138 129 118 108 101 98 100 107 117 129 138 142 142 136 126 115 105 100 99 102 110 120 129 135 138 136 131 124 119 116 118 123 131 139 146 149 148 143 135 125 116 109 105 104 106 110 115 121 127 132 135 136 135 132 127 121 115 110 107 107 110 114 120 127 132 135 137 136 135 134 133 133 134 136 137 138 137 
136 132 126 120 115 111 110 110 113 116 121 124 127 129 130 131 133 136 139 143 145 145 141 135 125 115 106 100 99 102 109 119 129 138 142 140 134 125 114 106 101 102 107 116 127 136 142 143 140 133 124 117 113 114 120 130 140 149 154 154 149 140 129 117 108 103 101 103 108 115 122 128 133 136 136 134 130 125 119 114 111 109 110 113 119 125 130 135 138 139 139 137 136 135 135 136 138 139 140 139 
140 136 131 125 119 114 111 110 111 113 117 121 124 127 129 132 134 137 140 142 143 142 138 132 123 114 107 102 102 106 113 123 132 139 141 139 133 124 115 108 105 107 114 124 135 144 149 149 144 135 124 115 110 110 116 127 139 150 157 158 153 144 132 119 109 102 101 103 109 117 124 131 136 137 137 134 129 124 118 114 112 111 113 117 122 128 133 137 140 140 140 138 137 136 136 137 139 141 142 142 
143 141 136 131 125 119 115 112 112 113 115 119 123 126 129 132 135 137 140 141 141 139 135 129 122 115 110 108 109 113 120 128 136 141 142 139 133 125 117 111 110 114 121 132 143 151 155 154 147 136 124 113 106 105 111 122 136 148 156 159 155 147 134 121 110 104 102 105 112 120 128 134 138 139 137 133 128 123 118 115 114 114 117 120 125 130 134 137 139 139 138 136 135 134 134 136 138 141 143 144 
145 144 141 137 131 125 120 117 115 115 117 120 123 127 130 133 136 137 139 139 138 136 133 128 123 118 116 115 117 122 128 134 140 143 142 139 133 125 119 115 115 120 129 139 149 157 160 157 150 137 123 111 103 101 106 117 130 144 153 157 155 147 135 123 112 106 105 108 115 123 131 137 140 139 136 132 127 122 118 116 116 117 120 123 127 131 134 136 136 135 133 131 129 128 128 130 134 138 141 144 
145 146 145 141 136 131 126 122 120 120 121 123 126 130 132 134 136 137 137 136 134 132 130 127 124 122 122 123 126 131 136 140 143 144 142 138 132 125 120 118 120 125 134 144 153 160 162 159 151 138 123 110 101 98 102 112 125 138 149 154 153 146 135 124 114 108 108 112 119 127 134 139 140 139 135 130 125 121 119 118 119 121 123 126 129 131 132 132 131 129 126 122 120 119 119 122 126 131 137 142 
142 145 145 143 139 135 131 127 125 125 126 128 131 133 135 136 136 135 133 132 130 128 126 125 125 126 128 131 134 139 142 145 145 144 140 135 129 124 120 119 121 127 135 145 153 159 161 159 150 138 123 110 100 97 99 108 120 133 144 149 149 143 134 124 115 111 111 115 121 129 135 138 138 136 132 127 123 121 120 121 123 125 127 129 130 131 130 129 126 122 117 113 110 108 108 111 116 123 130 137 
137 141 142 142 139 136 133 131 130 130 132 134 136 137 138 137 135 132 129 126 124 122 121 122 124 127 132 136 141 144 146 147 145 142 137 131 126 121 118 117 120 125 133 142 150 156 158 156 149 138 124 111 102 98 99 106 117 129 139 144 145 140 132 123 116 113 113 117 123 129 134 136 135 132 128 124 121 121 122 125 128 130 132 133 133 132 129 126 121 116 110 104 100 98 98 101 106 114 122 130 
130 135 137 137 136 134 132 131 132 134 136 139 140 141 140 137 134 129 125 120 117 116 116 118 122 127 133 139 144 147 148 147 144 139 133 126 120 116 113 113 116 121 127 135 143 149 152 151 146 137 126 115 106 101 102 107 116 126 135 140 141 137 130 123 117 114 115 119 124 129 132 132 130 127 123 121 121 122 126 130 134 137 138 138 137 134 130 125 119 112 105 99 94 91 91 93 98 106 115 123 
125 129 131 131 130 128 128 129 132 135 139 141 143 143 141 137 132 126 120 115 111 109 110 113 119 125 133 140 145 148 148 146 141 135 128 121 115 110 108 108 110 114 119 126 133 139 143 144 141 136 127 119 111 107 107 111 118 126 133 137 138 134 129 123 118 116 117 120 124 127 129 128 125 122 120 119 121 125 130 136 140 143 144 143 141 137 133 127 120 113 105 98 92 89 88 90 95 102 110 118 
122 125 125 124 122 122 122 125 129 133 138 142 144 143 141 136 130 123 116 110 106 105 106 110 116 123 131 138 144 146 146 143 137 130 122 115 109 105 103 102 103 106 111 116 122 128 133 136 137 134 129 124 118 115 114 117 122 128 133 136 135 132 128 123 119 118 118 121 124 126 126 124 121 119 118 119 123 129 136 142 147 149 149 148 145 141 136 131 125 117 110 103 97 93 91 93 97 104 111 117 
123 124 122 119 116 115 116 119 124 130 136 140 142 142 139 134 128 120 114 108 104 103 104 108 114 122 129 136 142 144 143 139 133 126 118 111 105 101 99 98 99 100 103 108 113 119 125 129 132 133 131 128 125 123 122 123 127 130 134 135 134 131 127 123 120 119 120 122 124 125 124 122 119 117 118 121 126 134 141 147 151 153 152 149 146 143 139 135 131 125 119 112 107 102 101 102 105 110 116 121 
128 125 121 117 112 110 111 114 119 125 131 136 138 138 136 132 126 119 113 109 105 104 106 109 115 122 129 135 139 141 140 136 130 123 115 108 103 100 98 97 97 98 100 103 107 112 118 123 128 131 132 132 131 130 129 130 132 134 135 135 134 131 127 124 121 121 121 123 124 124 123 121 119 118 120 124 130 138 145 150 153 152 150 147 144 142 140 139 138 135 131 126 121 117 115 115 118 122 125 128 
134 130 124 117 112 109 108 111 115 121 127 131 133 134 132 129 125 120 116 112 110 110 111 114 118 124 130 134 138 139 137 133 127 120 114 108 104 101 99 99 99 99 100 102 105 109 114 120 125 130 133 135 135 135 135 135 136 136 137 136 133 130 127 124 122 122 122 124 125 125 124 122 120 120 123 127 134 141 146 149 150 148 144 141 138 137 139 141 143 144 142 140 136 133 131 131 132 134 136 136 
141 135 128 121 115 111 109 110 113 118 122 125 128 128 128 126 124 122 120 118 118 118 119 121 124 128 131 135 136 136 134 130 125 119 114 109 106 104 104 104 105 105 106 107 108 110 114 119 124 128 132 135 137 138 139 139 139 138 138 136 133 130 126 124 122 122 123 125 126 126 125 124 123 123 126 130 135 141 144 145 143 138 133 129 128 129 133 139 145 149 152 151 150 147 145 144 144 145 145 144 
145 140 133 126 120 116 113 113 114 116 118 120 122 123 123 124 124 125 125 126 127 128 129 130 131 133 134 135 135 134 131 127 123 118 114 111 110 110 111 113 114 115 115 115 115 115 116 119 123 127 131 134 137 139 140 140 140 139 138 135 132 129 125 123 122 122 124 125 127 127 127 126 125 126 128 131 135 138 139 137 132 126 120 115 115 118 125 134 144 152 156 158 158 156 154 152 151 151 150 149 
146 142 137 132 127 122 119 117 116 116 116 116 117 118 120 122 125 128 131 134 136 137 138 138 137 137 136 135 133 131 128 125 121 117 115 114 115 117 120 124 126 128 127 126 124 122 120 120 122 125 128 131 134 137 138 139 139 138 137 134 131 128 124 122 121 122 124 126 127 128 128 127 127 127 128 130 132 133 131 127 120 112 106 102 102 106 115 127 140 150 157 160 160 158 156 153 151 151 150 148 
143 142 140 137 133 130 127 123 120 118 115 114 113 114 117 121 126 132 137 141 144 145 145 144 142 139 137 134 131 128 125 121 119 117 116 117 120 124 129 134 138 140 139 137 133 129 125 122 121 122 124 127 130 133 135 137 137 136 135 133 129 126 123 122 121 122 124 127 128 129 129 128 127 127 127 127 128 126 123 117 109 101 94 91 92 97 107 120 134 146 153 157 157 154 151 147 145 144 143 143 
137 139 140 140 139 137 134 130 125 120 116 113 111 112 115 121 127 134 141 145 148 149 148 146 143 139 136 132 128 125 122 119 117 116 117 119 124 130 137 143 148 150 149 146 140 134 128 123 120 119 120 123 126 129 131 133 133 133 132 130 128 125 123 122 122 124 126 128 130 130 130 128 126 125 124 124 123 120 116 109 102 94 88 85 87 92 102 115 129 140 148 150 149 146 141 136 133 132 133 134 
128 133 138 141 143 142 140 135 129 123 117 113 111 111 115 121 129 136 143 147 150 150 148 145 141 137 133 129 126 122 119 117 116 116 118 121 127 135 142 149 154 156 155 151 145 137 129 123 118 117 117 119 121 124 127 128 129 129 128 127 126 124 123 123 124 126 128 130 131 131 130 127 125 123 121 120 118 116 112 106 99 93 88 86 87 93 102 114 125 135 141 142 139 134 128 123 119 119 120 124 
120 128 135 141 144 145 144 139 133 126 119 114 111 112 116 122 130 137 143 146 148 147 145 141 137 133 130 127 124 121 119 118 117 117 119 124 130 137 145 151 156 158 156 152 145 137 129 122 117 115 115 117 119 121 123 124 124 124 124 124 123 123 124 126 128 130 132 133 134 132 130 126 123 120 118 117 116 114 111 107 102 97 93 92 93 98 106 116 125 132 135 134 129 123 116 110 107 106 109 114 
115 123 132 140 145 147 146 142 135 128 121 116 113 114 118 123 130 136 141 143 143 141 138 135 132 129 127 125 124 123 122 121 120 120 122 126 131 138 145 151 154 155 154 149 142 134 127 121 117 116 116 118 119 120 121 121 120 119 119 120 121 123 126 129 132 135 137 137 136 133 130 125 121 118 116 116 116 116 115 113 110 106 104 103 104 108 114 121 127 130 131 127 121 114 107 102 99 98 101 107 
112 121 130 138 144 146 146 142 136 129 123 118 116 116 120 125 130 134 137 138 137 134 131 128 126 125 125 125 126 126 126 126 125 125 126 129 133 138 143 147 150 150 147 142 136 130 124 120 119 119 120 122 122 122 120 118 116 114 114 115 118 123 128 133 137 141 142 142 139 135 129 124 119 117 116 117 118 120 122 122 121 119 118 117 118 121 124 128 130 131 128 124 117 109 103 98 95 96 99 104 
113 121 129 136 141 144 144 141 136 130 125 120 118 119 121 125 129 132 133 132 129 126 123 121 121 122 124 127 130 132 132 132 132 131 131 132 134 137 140 142 142 141 138 134 129 125 122 121 122 124 127 128 128 126 122 117 113 110 109 111 116 122 130 137 142 146 147 145 141 135 129 123 118 116 116 119 122 126 130 132 133 133 132 132 132 133 134 135 134 132 128 122 115 108 103 99 97 98 101 106 
116 122 128 134 138 141 141 139 135 130 126 122 120 121 122 125 127 128 127 125 122 119 117 117 118 122 126 130 134 137 139 139 138 136 135 135 135 135 136 136 134 132 129 125 121 120 120 123 127 132 135 137 136 132 125 118 111 106 105 107 113 122 131 140 146 150 151 148 142 136 128 122 118 116 118 121 127 132 137 140 142 143 143 142 142 141 141 139 137 133 128 122 116 111 107 104 103 104 107 111 
120 124 128 131 135 137 137 136 133 130 126 123 122 122 123 124 124 124 122 120 117 115 114 115 118 123 129 134 139 142 144 143 142 140 138 136 134 133 132 130 127 123 119 116 115 115 119 125 132 139 144 146 144 138 129 119 110 104 102 104 111 121 132 142 149 153 152 149 142 135 127 121 118 117 120 125 131 137 142 145 147 148 148 147 146 145 143 141 137 133 128 123 118 115 113 112 112 113 115 117 
125 125 127 128 130 131 132 132 131 129 126 124 123 122 122 122 121 120 118 116 114 112 113 115 120 126 132 138 142 145 146 145 143 140 137 135 132 130 128 124 120 116 112 110 109 112 118 127 137 146 152 154 152 144 133 121 110 102 99 102 109 120 132 142 149 153 152 148 141 133 126 121 118 119 123 128 134 140 144 146 148 148 147 146 145 143 141 138 135 131 127 123 121 119 119 120 121 122 123 124 
128 126 124 124 125 126 127 128 128 127 126 124 123 122 121 120 119 117 115 114 113 113 114 118 123 129 135 140 144 145 145 143 140 137 134 131 129 127 124 121 116 111 107 105 106 110 117 128 140 150 157 160 157 148 136 123 110 102 99 101 109 119 131 141 148 151 149 144 138 130 124 121 120 122 126 131 136 140 143 144 143 142 141 140 139 137 136 134 131 129 126 124 123 124 125 127 129 131 131 129 
129 125 121 119 119 120 122 124 125 126 126 125 123 121 120 118 117 116 114 114 114 115 118 122 128 133 138 141 143 142 140 137 133 130 128 126 125 124 122 119 115 110 106 103 104 108 116 128 140 151 159 161 158 150 138 124 112 103 100 103 110 120 130 140 145 147 145 140 133 127 123 121 122 125 129 134 137 139 139 138 136 133 132 130 130 130 130 129 128 126 125 124 125 127 130 133 136 136 135 133 
128 123 118 115 114 115 118 121 124 125 126 125 124 122 120 118 117 116 115 115 117 119 123 127 132 136 140 141 140 137 133 129 124 121 120 120 121 121 121 119 116 111 107 104 103 107 114 125 138 149 156 159 156 149 137 124 113 106 103 106 112 121 130 137 141 142 139 134 129 124 122 122 124 128 132 136 137 137 135 131 127 124 122 121 122 123 124 125 126 125 125 126 127 130 134 137 140 140 138 134 
127 120 115 111 110 112 115 119 123 126 127 127 126 124 121 119 118 117 118 119 121 124 128 132 136 139 140 139 136 131 126 120 115 112 112 114 117 120 122 122 120 116 110 106 104 106 112 122 133 143 150 153 151 145 135 124 115 109 108 111 117 124 131 135 137 136 132 128 124 122 122 124 128 132 136 137 137 134 130 124 119 115 113 114 116 119 122 124 126 126 127 128 130 133 136 140 142 142 139 134 
126 119 113 109 108 110 114 119 124 128 130 130 129 127 124 122 121 121 121 123 125 128 132 135 138 140 140 137 133 126 119 112 107 105 106 110 115 121 125 127 126 122 116 111 107 107 110 117 126 135 142 145 143 138 131 123 117 114 114 117 123 128 132 134 133 130 126 122 120 120 122 126 131 135 138 138 136 131 125 119 113 110 109 110 113 118 122 126 128 129 130 131 132 135 138 141 143 142 139 133 
126 118 112 109 108 111 115 121 127 131 133 133 132 131 128 127 125 125 126 127 129 131 134 137 139 140 139 135 130 122 115 108 103 101 103 108 115 123 130 133 133 130 123 116 111 108 109 113 120 127 132 135 134 130 126 121 118 118 121 125 130 133 134 133 130 125 121 118 117 119 123 128 134 138 140 139 135 129 122 115 110 107 107 110 115 120 125 129 132 133 133 134 135 137 140 142 143 142 139 133 
126 119 113 110 110 113 118 124 130 134 137 137 136 135 133 131 130 129 129 130 131 133 134 136 138 138 137 134 128 121 113 106 101 100 102 108 117 126 135 140 140 137 130 122 115 110 109 111 115 120 124 125 125 123 120 119 119 122 127 132 136 138 137 133 127 121 117 114 115 119 125 131 136 140 140 138 133 127 120 114 110 108 109 113 118 124 129 133 135 136 135 135 136 138 140 142 143 142 139 133 
126 120 114 112 113 116 122 128 134 138 140 141 140 138 136 134 133 132 132 132 132 132 133 134 135 136 135 133 128 122 115 108 103 102 104 110 120 130 139 145 146 143 136 128 119 113 111 111 113 116 118 118 117 116 115 116 120 126 132 138 142 143 139 133 125 118 114 112 114 119 126 133 138 140 140 137 131 125 119 114 111 111 113 117 123 128 133 135 137 137 136 135 136 137 139 142 143 142 139 133 
127 121 116 114 116 120 125 132 137 141 143 143 141 139 137 135 134 133 132 131 131 130 130 131 132 133 134 133 130 125 119 113 108 106 108 114 123 133 142 148 150 147 140 132 124 117 114 113 114 115 116 115 113 112 112 114 120 128 136 143 146 145 140 132 124 116 111 111 114 120 127 134 138 140 138 134 129 123 118 115 113 114 117 121 126 130 133 135 135 134 133 133 133 135 138 140 142 141 138 133 
127 121 117 116 118 122 128 135 140 143 144 143 141 138 136 134 133 132 131 129 128 127 126 127 128 131 133 133 132 129 124 118 114 111 112 117 125 134 143 148 150 148 142 134 127 121 118 117 118 118 117 115 112 110 110 113 120 129 138 145 148 146 140 131 122 114 110 110 114 121 128 134 137 138 135 131 126 122 118 116 116 118 120 124 127 130 131 131 130 129 128 128 129 132 136 139 141 140 138 133 
125 120 117 116 119 124 130 136 141 143 143 141 138 135 132 130 129 128 127 126 125 124 123 124 126 129 132 135 135 134 130 124 119 116 116 119 126 134 141 146 148 146 141 134 129 125 123 123 124 124 122 119 115 111 110 113 119 128 138 145 147 145 138 129 119 112 109 110 115 121 128 134 136 135 132 128 124 120 118 118 119 120 122 124 126 126 126 125 123 122 121 122 125 129 133 137 139 139 136 131 
122 117 114 114 117 123 130 136 140 142 141 138 134 130 127 125 124 123 123 123 122 121 121 122 125 129 133 137 138 137 134 129 123 119 118 120 125 131 137 142 143 141 138 133 129 127 128 130 132 132 130 125 119 114 112 114 119 128 137 143 145 142 135 126 117 110 108 110 115 122 128 132 134 132 129 125 121 119 119 120 121 123 124 124 123 122 120 117 116 115 115 117 122 127 132 136 139 138 134 129 
119 113 110 110 114 121 128 134 138 140 138 134 129 124 121 119 118 118 119 119 120 120 121 123 126 130 135 138 140 139 136 131 125 121 118 119 122 127 132 136 137 136 133 130 128 129 132 135 139 140 137 132 125 119 115 115 120 127 135 141 142 139 132 123 115 109 108 110 116 122 128 131 131 129 125 122 120 119 120 122 123 124 124 123 120 117 114 111 109 109 111 115 120 127 133 137 139 137 132 126 
114 108 105 106 110 117 125 132 136 137 135 131 125 120 115 113 113 113 115 117 119 120 123 125 129 133 137 140 141 140 136 131 125 120 117 117 119 123 128 131 132 131 129 127 127 130 134 139 144 146 144 138 131 124 119 118 121 127 134 138 139 136 129 121 114 109 109 112 117 123 127 129 128 126 122 120 119 119 121 124 126 126 125 122 118 114 110 107 106 107 110 116 122 129 136 139 140 137 130 122 
110 103 100 101 106 113 122 129 134 136 134 129 123 117 112 110 109 110 113 116 119 122 126 129 132 136 139 140 140 138 134 129 123 118 115 115 117 121 124 127 128 127 126 125 126 129 135 141 146 149 147 142 135 128 122 121 123 128 133 137 137 134 128 121 115 112 112 115 120 125 128 128 126 123 120 118 118 120 123 126 128 128 126 123 118 113 109 107 107 109 114 120 128 135 140 143 142 137 129 119 
107 100 96 97 102 110 120 128 134 136 134 130 123 117 112 109 108 109 112 117 121 126 130 133 136 139 140 140 138 135 130 125 119 115 113 114 116 120 123 126 127 126 125 124 125 129 134 141 146 148 147 143 136 130 125 123 125 129 134 137 137 134 129 123 118 116 117 121 125 128 129 128 125 121 118 117 118 121 125 129 131 131 129 125 120 116 112 111 112 115 121 128 135 142 146 148 145 138 128 117 
106 98 95 96 101 109 119 128 134 137 136 132 126 120 114 111 109 110 114 118 124 129 134 138 140 141 140 138 135 130 125 120 116 113 112 114 117 121 125 127 128 127 125 124 125 128 132 138 142 144 144 140 134 129 125 124 127 131 135 138 139 136 132 127 124 123 125 128 131 132 132 129 124 120 117 116 118 122 127 131 134 134 132 128 124 120 118 118 120 124 130 136 143 149 152 151 147 139 128 116 
106 99 96 97 103 111 121 130 136 140 139 136 131 124 119 114 113 113 116 121 127 133 138 141 142 142 139 136 131 125 120 115 112 111 112 115 120 124 128 131 131 130 128 126 126 127 130 133 136 138 137 134 130 126 124 125 128 133 138 141 141 139 136 133 131 131 133 135 137 137 135 130 124 119 116 116 119 124 129 134 136 136 134 131 128 126 125 125 128 133 138 144 150 153 155 153 148 139 128 116 
107 102 100 102 107 115 124 133 139 142 143 140 135 129 124 119 117 117 119 124 130 135 140 143 143 141 137 132 126 120 115 112 110 111 114 119 124 129 133 136 136 134 132 129 127 126 127 128 129 129 128 125 123 121 121 124 129 135 140 143 144 143 140 138 137 138 141 143 144 142 138 132 125 120 117 117 120 126 131 135 138 138 136 134 132 130 130 132 135 140 144 149 153 155 155 152 146 137 127 116 
111 107 106 109 114 121 129 136 142 145 145 143 139 134 128 124 121 121 123 127 132 137 141 143 143 140 134 128 121 115 111 110 110 113 117 123 129 134 138 140 140 138 135 131 128 126 125 124 123 121 119 117 115 115 117 122 129 135 141 144 145 145 143 142 142 144 146 148 148 145 140 133 126 121 118 119 123 128 133 137 139 139 137 135 133 133 134 136 139 143 146 149 151 152 150 147 141 134 125 117 
115 114 115 118 123 129 135 140 143 145 146 144 141 136 132 128 125 124 125 129 133 138 142 143 141 137 131 124 117 112 109 109 111 115 121 128 134 139 142 143 143 141 137 133 130 126 123 121 118 114 111 109 108 110 114 120 128 135 141 144 145 144 143 142 143 145 148 150 150 147 141 134 127 122 120 121 125 130 135 138 139 138 136 133 132 132 133 136 138 141 143 145 145 144 142 138 134 129 123 118 
120 122 125 128 132 136 140 142 144 144 144 142 140 137 133 130 127 127 128 131 135 138 141 142 139 134 127 120 114 109 108 109 113 119 125 132 138 142 144 145 143 141 138 134 131 127 123 119 115 110 107 104 104 106 111 118 127 134 140 142 142 141 139 139 140 142 145 148 148 145 140 134 128 124 123 124 128 133 136 138 138 136 133 130 128 128 129 131 134 136 136 136 135 133 131 128 125 122 120 120 
125 129 133 137 140 142 143 143 142 141 140 139 137 135 133 130 129 128 129 132 135 138 140 140 137 131 124 117 111 108 108 110 115 122 129 135 140 143 144 143 141 139 136 133 131 127 124 120 115 110 105 102 102 104 110 117 125 132 137 138 137 135 132 131 132 135 139 142 142 141 137 132 127 125 125 127 131 135 138 138 136 132 128 125 123 122 123 125 126 127 127 126 124 122 119 117 117 117 118 121 
128 134 139 143 145 145 143 141 139 137 135 134 133 132 131 130 129 129 130 133 136 138 139 138 134 129 121 115 109 107 108 112 118 125 132 137 141 142 142 140 137 135 133 131 130 128 125 122 117 112 107 104 103 105 110 117 125 131 134 133 131 127 123 122 122 125 129 133 134 134 132 129 126 125 127 130 134 137 139 137 134 129 123 119 116 115 116 117 119 119 119 117 115 112 110 109 110 113 117 122 
130 137 142 145 146 144 142 138 134 132 130 129 129 129 128 128 128 129 130 133 136 138 138 137 133 127 120 113 108 107 108 112 119 126 133 138 140 141 139 136 132 130 128 128 128 128 127 125 121 116 111 108 107 108 113 119 125 129 130 129 124 119 114 112 112 115 119 123 125 126 126 125 124 126 128 132 136 139 139 136 131 125 118 113 110 109 110 111 113 113 113 111 109 107 106 106 107 111 117 123 
131 137 141 143 143 141 137 133 130 127 125 125 125 125 126 126 127 128 130 132 135 137 138 136 132 126 119 113 108 107 108 113 119 126 133 137 139 138 135 132 128 125 124 124 126 128 129 128 126 122 117 114 112 113 117 121 126 129 128 125 119 112 107 104 103 106 109 114 117 119 120 121 123 125 129 134 137 139 138 134 128 121 114 109 106 105 106 108 110 111 111 110 108 107 106 107 109 113 118 124 
130 134 137 138 137 135 132 128 125 123 122 122 122 123 123 124 124 126 128 130 133 136 137 136 132 126 120 113 109 107 108 112 118 125 131 136 137 136 133 129 124 121 120 121 123 127 130 131 130 127 124 120 119 119 121 125 128 129 128 123 117 110 104 100 99 100 104 108 111 114 116 119 121 125 130 134 137 139 137 132 126 118 112 107 105 105 106 109 112 113 114 114 113 113 112 113 114 117 121 126 
128 129 130 130 130 128 126 124 122 121 121 121 121 122 121 121 121 122 124 127 130 134 136 136 133 128 122 116 111 108 108 111 116 122 129 134 136 135 132 128 123 119 118 119 122 126 130 133 133 132 129 126 124 124 126 128 131 131 129 125 118 111 105 101 99 100 103 106 109 112 115 118 121 125 130 134 137 137 135 130 123 116 111 107 106 107 110 114 117 120 122 122 122 122 122 122 122 123 125 126 
125 124 123 122 122 121 121 121 122 122 122 123 122 121 120 118 117 117 119 122 127 131 135 136 135 132 126 120 114 110 108 110 114 120 126 132 135 136 133 129 124 120 118 118 121 125 129 133 135 135 133 131 129 129 129 131 133 134 132 128 122 116 111 107 105 105 106 108 110 113 115 118 122 126 131 134 136 135 132 127 121 116 111 110 110 113 117 121 125 129 131 133 133 133 133 132 131 130 128 127 
122 118 116 115 115 117 119 121 123 125 126 125 124 121 118 115 113 112 113 117 122 128 133 137 139 137 132 126 119 113 110 109 112 117 124 130 135 137 136 132 128 123 120 119 120 124 129 133 136 136 135 134 132 131 132 133 135 136 135 133 129 124 120 116 114 113 113 114 115 116 118 120 124 128 131 134 135 134 130 125 120 116 113 113 116 120 125 130 134 138 140 142 143 143 143 141 139 135 131 126 
120 115 111 111 112 115 119 123 127 129 130 129 126 122 117 113 109 107 108 111 117 125 132 139 142 143 139 133 126 118 113 110 111 115 121 128 134 138 139 136 132 127 122 120 121 124 128 132 135 137 136 134 133 132 132 133 135 137 138 137 136 133 131 128 126 124 123 122 121 120 121 123 126 129 133 135 135 133 129 124 120 117 116 118 122 127 133 138 142 145 147 148 149 149 148 147 143 139 132 126 
118 113 110 109 112 116 121 127 131 134 135 133 130 124 118 111 106 103 103 106 113 122 131 140 146 148 147 141 133 124 117 112 111 113 119 127 134 139 141 139 136 130 126 123 122 124 128 132 135 136 136 134 132 131 130 131 133 136 138 140 141 141 140 139 137 135 132 129 126 125 124 126 128 131 134 136 135 132 128 124 120 119 120 123 128 134 139 144 147 148 149 150 150 150 149 148 144 139 132 125 
118 113 111 112 115 120 126 131 136 139 139 137 133 127 119 112 106 102 101 104 110 119 130 141 149 153 153 148 140 131 122 115 112 113 118 125 132 138 141 141 138 133 128 125 124 125 128 131 134 135 135 133 130 128 127 128 130 133 137 140 143 146 147 147 145 143 139 134 131 128 127 128 130 133 136 137 136 133 129 125 122 121 123 127 133 139 143 146 148 148 147 146 146 146 145 144 142 137 131 124 
120 117 115 117 120 125 131 136 140 142 142 140 136 130 123 115 108 103 101 103 108 118 129 140 150 156 157 154 146 136 126 118 113 112 116 123 130 136 140 140 138 134 129 126 125 126 129 132 134 135 134 131 128 125 124 123 125 128 133 137 142 146 149 150 149 146 142 137 132 129 128 129 131 135 138 139 138 135 130 126 124 123 125 130 135 140 144 145 145 143 140 138 137 137 138 138 136 134 130 125 
123 122 122 123 126 130 135 139 142 143 143 142 139 134 128 121 114 108 104 104 108 116 127 139 149 156 158 156 150 140 129 120 114 113 115 120 127 133 136 137 136 132 129 126 126 127 129 132 134 135 133 130 126 123 120 119 120 122 126 131 137 142 146 148 148 145 141 136 131 128 127 129 132 136 139 141 140 137 132 128 125 125 127 130 135 139 141 140 138 134 131 128 127 127 128 130 131 130 129 126 
128 128 129 130 132 135 137 139 141 142 142 142 141 138 134 128 121 115 110 108 109 115 124 135 145 153 156 155 150 141 131 122 115 113 114 118 123 128 131 132 131 129 127 125 125 127 130 133 134 135 133 129 125 121 117 115 115 116 119 124 129 135 139 142 143 141 137 133 129 126 126 128 132 136 140 142 141 138 134 129 126 125 126 129 132 135 135 133 129 124 120 117 116 117 119 123 126 128 129 129 
134 135 135 136 136 136 136 136 136 137 138 140 141 141 140 136 130 123 117 112 111 114 120 129 139 147 151 151 147 140 131 123 116 113 113 116 120 124 126 127 126 124 123 123 124 127 130 133 134 134 133 129 125 120 116 113 111 111 113 117 121 126 130 134 135 134 132 128 125 123 124 126 131 136 140 142 142 139 135 130 127 125 125 127 128 129 128 125 120 115 110 107 107 109 113 118 123 128 131 133 
139 140 140 140 138 136 133 130 129 129 132 135 140 143 145 143 139 132 124 117 113 112 116 123 131 138 143 144 142 136 129 122 117 114 114 115 118 120 122 122 121 120 119 120 122 126 129 132 134 134 132 129 125 121 117 113 111 110 110 111 114 117 121 125 126 127 126 124 122 121 122 125 130 135 139 141 141 139 135 131 127 125 124 124 124 123 121 117 112 107 103 101 102 105 111 117 124 130 134 137 
144 144 143 141 137 133 127 123 120 120 123 129 136 143 147 148 145 138 129 120 114 111 112 116 123 129 134 136 135 131 126 121 117 115 115 116 118 119 119 118 117 116 116 118 120 124 127 130 132 133 132 130 127 124 120 117 114 111 110 109 110 112 114 117 119 121 121 120 119 119 121 124 128 132 136 139 139 138 135 131 128 125 123 122 120 118 114 110 105 101 99 99 101 105 112 119 127 133 138 142 
146 146 144 140 135 128 121 115 112 111 115 122 131 140 147 149 148 142 133 123 115 110 108 111 115 121 125 128 128 126 123 120 118 117 118 118 119 119 118 116 115 114 114 116 119 122 125 128 130 131 131 130 129 127 125 123 120 116 113 111 109 109 111 113 115 117 118 119 119 119 120 122 125 129 133 135 136 136 134 131 129 126 123 121 118 115 111 106 102 99 98 100 103 109 116 124 131 137 142 145 
146 145 143 139 132 124 116 109 104 104 107 115 125 135 144 148 147 142 134 124 115 109 107 108 111 115 119 122 123 122 121 120 119 120 121 122 122 121 120 117 115 114 114 115 118 121 124 126 128 129 130 131 132 132 132 130 128 124 120 116 113 111 111 112 114 117 118 120 120 120 120 121 123 125 128 130 132 133 133 132 131 129 126 123 119 114 110 105 102 100 101 104 108 115 122 129 135 140 143 145 
144 143 140 136 130 122 113 105 100 99 102 109 119 130 139 144 145 141 134 125 117 111 108 108 110 113 117 119 120 120 120 121 121 123 125 126 126 125 123 120 117 116 115 116 118 120 122 124 126 128 130 132 134 136 138 138 137 133 128 123 119 115 114 115 116 119 121 122 122 121 120 119 119 120 122 124 127 130 132 133 134 133 131 127 123 117 112 108 105 104 106 109 115 121 127 133 137 141 143 144 
139 139 137 134 128 121 113 105 100 98 100 106 115 125 134 140 142 139 134 126 119 114 111 111 112 115 117 119 120 120 121 122 124 126 129 130 131 129 127 124 121 119 118 118 119 121 122 124 125 127 129 132 136 140 143 144 144 141 136 131 126 122 120 120 121 124 125 126 126 124 121 118 115 115 115 118 122 127 131 135 138 138 137 133 128 123 117 113 110 110 112 116 122 127 132 135 137 138 139 139 
132 133 133 132 129 123 116 109 103 100 101 106 113 122 131 136 139 138 134 128 123 119 117 116 117 119 120 121 121 122 123 124 127 129 132 134 134 133 131 128 125 122 121 121 121 123 124 125 126 128 130 133 137 141 145 147 147 145 142 137 132 128 126 126 128 130 131 131 130 126 121 116 112 109 109 112 117 123 131 137 142 144 143 140 135 129 124 119 117 117 120 124 128 132 134 135 134 133 132 132 
125 127 130 131 130 126 121 114 109 105 105 108 114 122 129 135 138 137 135 131 127 124 123 122 123 123 124 124 124 124 125 127 129 132 134 136 137 136 133 130 127 125 124 124 124 125 126 127 128 129 131 133 137 140 144 146 147 146 143 140 136 133 132 133 134 136 137 137 134 129 122 115 109 105 104 107 112 120 129 138 145 149 149 147 142 136 131 126 124 125 127 130 133 134 134 132 129 126 124 124 
118 122 127 131 132 131 127 121 116 112 111 113 117 124 130 135 138 139 138 135 132 130 128 127 127 127 127 126 126 126 127 129 131 134 136 137 137 136 134 131 128 127 126 126 127 128 130 131 132 132 133 134 135 137 139 141 141 141 140 138 137 136 136 138 140 142 143 142 138 131 123 114 107 102 100 103 109 117 128 138 146 151 152 151 147 141 136 132 131 131 133 135 136 136 133 129 123 119 116 116 
112 118 125 131 134 135 132 127 123 119 117 118 122 127 133 137 140 141 141 139 136 133 131 130 129 128 128 127 127 128 129 131 133 135 136 137 137 135 133 130 127 126 126 127 129 131 133 135 136 136 135 134 133 133 132 132 132 132 133 133 134 136 138 141 144 147 147 146 141 134 125 115 106 100 98 100 105 114 125 136 145 151 153 152 148 143 139 136 135 136 137 139 139 136 131 125 118 112 109 109 
109 116 124 131 136 137 136 132 127 124 122 123 127 131 136 141 143 144 143 141 138 135 132 129 127 126 126 126 126 128 130 132 134 135 136 136 135 132 129 127 124 123 124 126 129 132 136 138 139 139 137 135 131 128 125 123 121 122 123 125 129 133 138 143 147 150 151 149 144 136 127 116 107 100 97 99 104 112 122 133 141 147 150 149 146 142 139 137 137 138 140 141 140 136 130 122 114 108 105 105 
109 116 124 131 136 138 137 133 129 126 125 126 130 135 140 144 146 146 145 142 138 133 129 126 123 122 121 122 124 127 130 132 135 136 136 134 132 129 126 123 120 120 121 123 127 132 136 140 142 142 140 135 129 123 118 113 111 111 113 117 123 129 136 142 147 151 152 150 145 138 129 119 109 103 99 99 103 110 119 128 136 141 143 142 140 137 135 134 135 138 140 141 140 137 130 122 113 107 104 104 
111 118 126 132 136 137 135 132 128 125 125 127 131 136 141 145 147 147 145 141 136 130 124 120 117 115 116 118 121 125 129 133 135 136 135 133 130 126 122 119 116 116 117 120 124 130 136 141 144 144 141 136 129 121 113 107 103 103 105 110 117 125 133 140 146 149 150 149 145 139 131 122 113 106 103 102 104 109 116 123 129 133 134 133 131 129 128 129 132 135 139 141 141 137 131 123 115 109 106 107 
117 122 129 134 136 135 132 128 124 121 121 124 129 135 141 145 147 147 144 139 132 126 119 114 110 109 111 114 118 124 129 133 136 136 135 132 128 124 120 116 114 113 113 116 121 127 133 139 143 144 142 137 129 120 111 104 100 99 101 106 113 122 129 136 142 145 146 146 143 138 132 125 118 112 108 107 108 111 115 119 123 125 125 124 122 120 121 123 127 132 137 140 141 138 133 126 119 114 111 113 
123 128 133 136 136 133 129 123 119 116 117 120 125 132 138 143 145 145 142 136 129 122 115 109 106 105 107 111 117 123 129 133 136 136 134 131 127 123 119 116 113 112 112 114 118 123 129 135 140 143 142 138 131 122 113 106 102 100 102 106 112 119 126 132 136 139 140 140 139 137 133 129 124 120 117 114 114 114 116 117 118 118 116 114 113 112 113 117 122 128 134 139 141 139 136 130 125 120 119 120 
