P2
100 100
255
129 144 158 167 167 156 138 115 94 81 77 82 95 116 139 158 169 170 161 143 119 94 75 64 59 60 67 78 94 113 130 144 151 152 147 139 128 116 106 98 92 89 88 91 97 108 122 136 148 155 157 150 138 120 103 88 78 72 70 72 78 88 101 115 127 137 144 150 153 154 151 146 139 132 126 121 116 110 103 96 88 80 73 66 62 61 65 76 94 119 143 161 170 168 158 143 127 116 113 118 
155 166 174 176 169 153 128 102 80 68 64 69 82 103 127 149 163 166 159 142 119 96 79 68 64 66 73 84 99 114 128 137 141 140 136 130 124 120 116 114 111 108 104 102 100 103 108 117 127 137 143 146 143 135 125 114 104 96 90 87 85 86 90 95 102 109 117 126 137 147 155 160 162 161 158 153 145 133 118 102 86 73 63 56 53 54 59 71 90 114 139 158 168 169 163 153 144 138 138 144 
174 182 186 183 172 151 122 93 72 60 56 61 74 94 120 144 159 165 160 147 127 107 91 81 78 81 88 99 110 121 128 130 129 125 121 118 119 123 128 133 135 134 128 119 109 101 98 99 105 115 126 137 145 149 148 143 136 128 118 107 97 89 83 81 81 85 92 104 121 140 158 171 179 183 183 178 169 155 135 112 90 72 61 54 52 54 61 74 93 115 137 154 163 164 161 155 151 151 156 164 
184 191 193 188 175 151 120 90 69 57 54 59 72 93 118 143 160 167 166 156 141 124 111 104 102 106 112 120 127 130 128 122 114 107 103 104 111 123 138 151 159 160 153 140 123 105 91 84 85 94 108 126 144 158 166 169 166 158 145 129 111 94 81 72 68 69 75 88 109 134 158 177 190 196 197 194 186 171 149 123 97 78 65 60 59 63 72 86 103 122 138 149 153 152 149 147 147 153 162 174 
187 195 196 191 176 152 120 91 70 59 57 63 76 98 123 147 164 172 171 165 155 144 135 131 131 135 141 145 146 141 130 115 101 90 85 89 100 120 144 164 177 181 175 160 138 111 89 75 71 76 91 114 139 162 178 186 186 180 167 147 123 99 80 67 61 60 66 80 102 130 158 180 194 201 204 201 193 179 158 131 106 87 75 72 74 81 92 106 120 132 140 141 139 133 129 128 132 143 158 174 
183 193 196 191 176 152 122 93 74 64 64 71 87 108 132 154 168 175 175 170 164 158 154 154 157 162 166 167 162 150 131 109 89 75 70 74 89 113 144 171 188 195 191 176 152 120 90 70 62 65 78 102 133 162 183 194 197 191 178 157 129 102 80 66 59 59 65 78 101 129 157 179 193 200 202 200 193 180 160 137 114 98 91 91 97 108 120 132 141 144 141 133 121 111 104 103 110 125 146 167 
175 188 192 188 174 150 122 97 80 73 75 85 102 123 144 160 170 174 172 169 165 163 164 168 173 179 183 182 174 157 132 104 80 65 59 63 78 105 139 171 192 202 200 188 163 129 95 70 58 58 70 94 127 159 183 196 199 194 180 158 130 102 81 68 63 63 70 84 106 131 156 175 187 193 194 191 184 172 156 137 121 111 110 115 126 138 150 158 161 156 142 124 104 89 81 80 88 104 128 154 
164 180 185 181 167 145 120 99 86 84 89 103 120 138 154 164 167 166 162 157 154 155 161 169 178 186 191 189 181 162 134 102 75 58 52 55 69 95 132 167 192 204 205 195 172 139 102 74 59 57 67 90 123 156 180 193 196 189 174 152 125 100 83 73 71 75 84 98 116 136 154 167 174 178 177 174 167 157 144 132 124 123 128 139 153 166 175 179 176 164 143 116 91 73 63 62 70 86 111 140 
154 170 176 171 156 136 115 100 93 95 106 121 138 152 160 162 158 150 142 135 133 137 146 159 173 184 191 191 183 165 136 103 75 57 49 51 63 88 124 161 188 203 206 198 179 148 112 82 65 61 70 91 122 152 175 186 187 178 161 139 115 97 86 83 87 95 105 118 131 142 151 155 156 155 152 148 142 135 128 123 124 130 143 158 173 185 192 193 186 169 142 110 81 62 53 52 59 74 99 128 
146 161 165 158 143 124 108 98 98 106 121 138 152 160 161 154 142 128 116 108 106 111 123 140 159 175 186 189 183 166 140 108 80 61 52 52 62 84 118 154 182 199 204 199 183 156 123 94 75 70 78 97 124 151 169 177 173 161 143 122 104 93 91 97 107 120 132 142 148 150 147 142 135 128 122 118 114 112 111 113 121 134 151 169 184 195 201 200 191 172 141 106 76 57 48 47 54 69 93 121 
143 155 155 145 129 112 100 96 102 116 134 151 162 164 157 142 123 104 89 81 80 85 98 118 141 161 176 183 180 168 146 118 91 72 61 59 67 86 115 148 175 192 198 196 184 162 134 108 91 85 92 108 130 150 163 164 156 140 121 104 93 91 98 113 131 147 159 164 164 157 144 129 114 103 96 93 92 93 97 105 117 135 154 173 189 199 204 202 193 172 140 104 74 56 48 48 56 71 94 121 
146 153 148 134 116 101 93 95 106 125 145 161 168 164 150 128 104 83 69 62 61 67 79 98 122 146 164 174 176 169 153 132 109 91 79 75 79 93 116 142 165 181 189 189 180 164 143 123 109 104 110 123 139 151 156 151 137 119 101 88 84 89 105 128 151 169 180 182 176 163 143 120 100 87 79 78 79 84 90 100 114 132 152 171 187 197 202 200 191 170 138 103 74 57 51 53 62 79 103 127 
152 154 144 126 107 93 88 95 111 133 155 168 171 163 143 115 89 68 56 51 51 57 68 86 108 131 151 164 169 168 160 147 131 117 106 100 100 106 120 137 153 166 173 175 171 162 148 135 126 124 129 137 146 151 149 138 120 101 85 76 77 89 111 139 165 184 193 193 184 167 143 116 94 80 74 74 77 83 91 100 112 128 146 164 179 190 195 195 185 166 136 103 77 61 57 61 73 93 117 139 
160 156 141 121 101 88 87 97 117 142 163 174 174 161 137 106 79 60 50 47 49 55 66 82 101 121 139 152 160 164 163 159 153 145 137 130 125 123 125 131 138 145 151 155 155 152 148 143 140 140 144 149 152 151 142 127 107 88 75 69 73 88 114 145 172 190 198 197 188 169 144 117 96 83 78 80 85 91 97 103 111 121 135 150 164 176 184 184 177 159 132 103 80 67 65 72 88 110 134 152 
167 158 140 117 97 87 88 101 124 150 170 179 177 161 134 102 76 59 51 50 54 62 73 87 102 116 128 138 147 155 162 166 169 168 165 158 149 139 130 123 120 120 124 128 133 138 141 144 146 150 153 155 154 148 136 119 99 82 71 67 73 88 114 145 171 189 197 196 186 169 146 122 103 93 91 95 101 105 108 109 110 113 120 131 144 156 166 169 164 150 127 103 84 75 75 86 105 128 150 164 
170 158 137 113 94 85 89 106 130 156 175 183 179 162 134 103 78 63 57 59 67 77 89 100 109 115 119 124 130 140 153 166 177 183 183 178 167 150 131 113 101 96 96 101 110 120 130 140 147 152 155 154 151 143 130 114 98 83 74 71 76 90 112 139 163 180 187 187 179 164 146 128 115 110 111 116 121 124 121 115 108 104 104 110 120 133 144 151 150 140 123 104 90 83 87 100 120 143 162 171 
169 154 131 107 90 84 90 108 134 160 178 185 180 163 137 108 85 73 71 77 88 101 112 119 120 116 110 108 111 121 138 158 176 188 193 189 177 155 128 103 85 76 74 79 90 104 120 134 144 150 151 149 144 136 126 114 102 92 84 81 84 93 109 129 148 162 169 169 164 154 142 133 128 128 133 139 143 141 133 120 106 95 90 91 98 110 123 133 137 132 121 108 97 94 99 113 133 153 168 174 
164 147 124 101 85 81 88 107 132 158 176 183 179 164 141 116 97 89 91 102 116 130 139 139 131 117 102 92 91 100 119 144 169 187 195 192 179 154 122 92 72 61 60 65 77 94 112 129 140 145 144 140 134 128 123 118 113 108 103 100 99 101 108 117 128 136 142 143 141 138 135 135 138 145 153 158 159 153 140 121 102 87 78 77 83 94 108 121 129 130 124 115 108 106 112 125 142 159 170 172 
158 139 116 94 80 77 84 101 126 150 169 177 174 162 144 125 112 109 116 130 146 158 162 156 139 116 93 78 74 80 99 127 157 180 192 190 176 148 114 83 62 53 52 59 72 91 111 128 138 139 135 128 122 120 121 124 128 130 129 125 119 114 109 107 107 109 111 113 115 119 125 134 146 157 166 171 169 159 141 119 96 80 71 69 74 86 102 118 129 134 132 126 121 119 124 135 149 162 169 168 
153 134 110 90 76 72 78 93 114 137 155 164 164 156 144 132 127 129 140 155 170 178 178 166 143 113 85 67 60 65 83 111 145 172 186 185 169 140 105 75 56 49 50 59 75 96 118 134 140 136 127 116 110 111 119 131 143 152 155 152 143 130 114 100 90 85 84 86 92 102 116 133 151 165 175 178 173 159 138 113 90 74 66 66 73 86 104 122 137 144 144 141 136 134 137 145 155 164 168 165 
152 133 110 89 75 70 73 83 100 119 135 145 149 146 140 136 138 146 159 173 185 190 186 169 141 107 77 59 52 56 72 100 134 163 178 178 161 131 97 69 54 49 53 66 87 111 133 145 146 136 121 106 99 101 115 135 155 171 178 176 165 147 122 98 80 69 66 68 76 90 110 133 154 170 179 179 171 154 130 105 84 71 65 67 77 93 113 134 149 157 159 155 151 148 149 154 161 167 169 164 
157 138 116 95 79 70 69 75 86 100 114 124 130 133 134 137 144 156 170 183 192 194 186 167 136 101 72 54 48 52 67 94 128 157 173 172 154 124 92 67 55 54 63 81 106 133 152 161 156 139 117 97 88 92 108 134 162 182 193 193 182 162 132 101 76 61 56 58 67 84 108 135 158 174 180 177 165 145 120 96 78 68 66 72 85 104 127 148 163 170 170 167 162 158 157 160 165 170 171 167 
165 150 129 107 88 76 70 71 76 85 96 105 113 120 127 135 147 161 175 186 193 192 183 161 130 95 69 53 48 53 69 96 129 156 170 168 150 120 90 69 61 64 79 103 132 157 173 177 166 144 115 91 79 82 99 129 162 187 200 203 194 173 142 106 77 59 53 55 66 85 112 140 163 176 179 172 156 134 109 88 74 68 70 79 95 117 141 160 173 178 176 171 165 160 159 161 166 172 175 173 
174 163 146 125 104 87 76 72 73 78 85 93 102 112 122 134 148 162 175 185 189 187 175 153 123 92 69 57 55 62 79 106 136 160 171 167 148 120 93 75 71 80 100 129 158 180 191 190 176 148 114 85 70 72 89 120 156 186 202 207 200 181 150 112 80 61 54 57 69 91 120 148 168 177 176 165 146 122 99 81 72 70 75 88 107 130 151 167 176 178 174 167 159 153 152 155 162 170 177 178 
182 176 163 145 124 104 88 79 76 78 83 91 100 111 123 135 149 161 172 179 181 177 165 144 118 93 75 67 68 78 98 124 150 168 175 168 149 122 98 84 84 99 124 154 181 197 204 200 183 152 114 81 64 63 77 107 146 179 200 207 203 186 156 119 85 65 58 62 77 101 130 155 172 177 171 156 135 111 91 78 72 74 83 98 118 139 157 168 171 168 161 151 141 135 135 140 150 163 174 181 
185 185 177 163 143 123 105 92 86 86 90 98 107 118 129 139 150 158 165 168 168 162 151 134 114 97 86 83 89 102 123 145 165 177 179 169 149 124 103 93 98 117 145 174 196 208 212 206 187 155 113 78 59 55 67 94 132 168 193 204 202 187 160 124 91 71 65 70 87 112 139 161 173 173 164 146 124 102 86 78 77 82 94 110 129 145 157 161 158 150 138 125 114 109 109 117 130 148 165 178 
182 187 184 174 159 140 122 109 102 102 106 113 123 132 140 146 151 153 154 153 149 143 134 122 111 103 101 105 116 131 149 166 179 184 181 167 146 122 104 98 107 129 158 185 204 214 215 208 189 156 114 77 55 50 58 81 116 154 183 197 198 186 161 128 97 78 73 80 97 122 146 163 170 166 153 134 114 96 86 82 86 95 109 124 139 149 153 150 139 125 109 95 86 81 82 90 106 126 149 169 
171 182 184 178 166 151 136 125 120 121 127 135 143 149 153 154 151 146 140 133 127 120 114 109 107 109 116 128 142 158 172 183 188 188 179 162 139 116 100 97 108 131 161 187 205 214 215 208 189 156 114 77 54 47 52 71 102 140 171 188 191 181 159 130 102 85 81 89 106 129 149 161 163 156 141 123 106 95 91 93 101 114 128 141 150 153 148 137 119 100 83 71 62 59 60 68 82 102 128 153 
155 170 175 173 164 153 142 136 135 139 147 156 162 166 165 160 150 137 124 112 103 97 94 96 102 113 129 147 163 177 187 192 192 186 172 151 127 105 91 89 101 123 152 179 198 209 211 205 187 156 115 79 56 47 50 65 92 126 158 177 182 174 155 129 106 92 89 97 113 132 147 154 152 142 128 113 103 99 102 110 122 136 148 157 161 157 146 127 104 83 66 54 48 45 46 52 63 81 106 132 
136 152 160 159 153 145 139 138 142 151 162 171 177 178 174 164 147 128 108 93 83 78 78 83 95 114 136 158 176 188 195 196 191 180 161 136 111 90 79 78 87 107 134 162 183 197 202 198 183 155 118 84 61 51 52 64 87 117 147 166 172 166 149 127 108 96 95 103 116 131 140 143 138 128 116 108 104 108 118 131 146 159 168 173 171 163 147 123 98 75 58 47 41 39 39 43 52 67 88 113 
119 133 140 139 134 129 127 131 141 155 168 179 185 185 179 164 143 118 95 78 68 64 66 74 89 112 139 164 182 193 197 194 185 169 145 118 94 76 66 65 72 88 110 136 160 177 186 186 175 152 121 91 70 60 60 70 89 115 140 157 163 157 142 124 108 100 100 106 117 127 132 131 125 116 109 107 111 122 137 153 167 177 183 184 180 169 151 127 101 78 60 49 42 39 39 42 49 61 78 99 
109 119 122 119 113 109 110 117 131 149 167 180 187 186 178 161 137 110 86 69 59 56 59 68 85 110 139 165 183 192 194 189 176 155 128 101 79 64 57 55 60 70 86 108 130 150 163 168 164 149 126 103 85 76 75 84 100 120 140 153 155 149 135 120 108 101 102 108 116 122 124 121 115 109 107 112 123 138 156 171 183 190 192 191 185 175 159 137 113 91 73 61 53 49 47 49 55 65 78 94 
110 113 111 104 96 91 93 101 117 137 157 172 181 181 173 155 131 104 81 65 56 54 57 66 84 109 138 163 180 188 188 179 163 139 112 87 69 57 51 50 52 58 69 84 102 121 137 148 150 144 132 118 105 99 99 105 118 133 145 152 151 143 130 116 106 102 103 109 114 118 118 115 110 108 111 121 136 154 170 183 191 194 194 191 185 176 164 149 132 114 98 86 76 70 68 68 73 80 91 102 
122 118 109 97 86 80 80 87 101 120 141 158 168 170 163 147 125 101 81 67 60 58 61 71 88 111 138 161 176 182 179 167 148 123 97 77 63 54 50 49 50 54 60 70 83 98 114 127 136 139 137 132 127 125 126 132 140 148 154 155 149 138 125 113 104 102 104 109 114 116 116 114 112 113 120 132 149 165 179 187 191 190 186 181 176 170 165 159 151 142 132 122 113 106 102 101 103 109 115 120 
141 131 117 101 86 76 73 77 88 104 122 138 149 153 148 137 121 103 87 77 71 70 74 83 98 119 141 159 170 173 167 152 132 108 87 71 61 57 55 55 56 58 62 67 75 85 98 111 124 133 140 144 146 149 152 156 160 163 163 158 149 135 121 109 102 101 104 109 114 117 118 117 117 121 130 143 158 170 179 182 180 175 167 160 156 155 157 162 165 166 164 159 154 148 144 141 141 143 145 145 
160 148 131 112 94 81 75 74 80 90 103 116 126 132 133 128 120 110 101 95 91 91 95 103 116 131 146 158 163 162 152 136 116 96 80 70 65 64 66 69 72 73 75 77 79 84 92 102 114 127 139 149 158 165 170 173 175 174 170 161 148 132 118 106 101 101 105 111 117 120 122 123 125 130 138 150 160 168 171 167 159 148 136 128 125 129 141 156 170 181 187 188 186 182 178 175 173 172 170 167 
173 162 146 128 110 94 84 78 78 82 89 97 105 112 118 121 122 122 121 120 120 121 124 129 137 145 152 156 155 149 136 120 102 87 77 73 74 79 86 93 99 101 101 99 96 94 95 99 107 119 133 147 160 170 177 181 182 179 172 160 145 129 115 105 100 102 107 114 120 125 127 129 131 136 143 150 156 157 153 143 129 113 100 92 92 100 118 142 167 186 198 203 203 201 198 194 190 187 184 180 
177 170 159 145 130 114 100 90 83 80 80 83 89 97 106 117 127 137 143 148 151 152 153 154 156 157 156 153 145 134 120 104 91 81 77 80 88 100 114 126 134 137 135 130 121 111 103 100 102 110 123 138 153 166 175 180 180 176 168 156 141 125 112 104 102 104 111 118 125 129 132 133 135 137 141 144 145 140 130 115 98 82 70 64 64 74 95 125 157 183 199 207 209 207 203 197 192 188 184 181 
170 170 167 160 150 136 122 107 94 84 78 76 79 87 99 116 134 150 163 171 175 176 175 172 168 163 156 146 134 120 105 92 82 78 80 89 105 124 143 158 168 171 169 160 147 130 114 103 98 101 110 124 140 154 165 170 171 167 159 147 133 120 111 106 106 111 118 125 130 134 134 134 133 133 134 133 129 120 106 90 73 60 50 46 48 57 77 108 144 175 194 203 205 201 195 187 179 174 170 170 
154 162 168 169 166 158 145 128 110 94 82 75 75 82 97 117 140 161 176 185 189 189 186 181 173 163 151 137 123 108 94 84 78 78 85 100 122 146 167 183 192 194 191 182 167 146 124 105 94 92 98 109 124 137 148 154 155 151 144 134 124 116 111 111 115 121 128 134 137 137 135 131 128 125 122 119 112 102 88 73 60 49 41 38 40 49 67 96 131 163 184 192 192 185 174 162 152 145 143 147 
131 148 163 173 177 174 164 148 128 107 89 79 76 82 97 120 145 168 183 192 195 193 188 179 169 156 142 127 113 99 88 81 78 82 93 112 137 162 183 197 204 206 203 194 177 155 129 107 92 87 89 98 109 120 129 133 133 130 124 118 113 112 114 119 127 135 142 145 145 141 134 126 119 114 110 106 100 91 79 67 56 47 41 39 41 49 65 90 122 151 169 175 170 158 142 127 115 108 109 117 
108 132 155 173 183 185 179 165 145 121 100 86 81 86 100 123 148 170 184 191 192 188 180 169 157 143 130 118 106 97 89 85 84 90 103 124 148 172 190 202 208 209 205 195 178 155 129 107 92 87 88 94 101 108 112 113 111 107 104 102 103 109 118 130 142 151 156 157 153 144 132 119 109 103 99 97 94 88 81 71 62 55 49 47 49 57 71 93 119 141 153 152 142 125 107 91 80 76 79 89 
91 118 147 171 185 190 187 176 158 135 112 95 88 91 104 125 147 166 178 183 181 175 164 152 140 128 119 112 106 101 98 96 97 104 117 135 157 177 191 201 205 204 198 187 170 148 126 107 96 93 95 100 104 105 104 99 93 88 86 88 94 107 124 142 157 167 171 169 160 146 129 113 100 94 92 93 95 95 92 87 80 73 68 66 68 75 87 105 122 135 138 131 115 96 79 65 57 55 59 71 
82 110 141 167 184 191 191 182 166 145 123 105 96 97 108 124 143 158 166 168 163 153 142 130 120 114 112 112 113 114 114 114 116 122 132 146 162 177 187 193 195 191 183 170 154 135 119 109 105 107 112 116 117 113 104 93 82 75 73 77 88 106 129 152 170 180 182 178 166 148 126 107 94 88 89 95 103 110 114 113 109 104 100 97 98 104 113 123 132 135 129 115 96 77 62 52 47 46 51 62 
81 107 136 162 180 189 189 183 170 151 131 114 104 103 109 121 134 144 148 146 138 128 117 108 104 105 110 118 125 131 135 137 138 141 146 155 164 173 178 180 177 170 159 145 131 119 112 112 119 128 137 141 139 129 112 93 77 67 64 69 82 105 133 160 179 189 190 184 169 148 123 102 89 86 91 103 117 131 140 144 144 141 137 135 135 137 141 144 144 138 125 106 86 69 56 49 46 46 52 62 
86 109 134 156 173 181 183 178 168 152 135 120 110 106 109 116 123 127 127 122 113 103 96 92 94 102 115 129 142 151 156 157 157 156 156 159 162 164 164 160 152 141 128 115 106 102 106 118 134 151 163 167 163 149 126 100 77 63 59 64 78 104 136 165 185 195 195 187 170 147 121 99 88 87 96 112 132 150 163 170 172 171 169 166 165 164 163 161 154 142 124 103 84 69 59 54 52 54 60 70 
97 113 131 148 161 169 171 168 160 148 135 122 112 108 107 109 111 110 107 100 92 86 82 84 92 106 124 143 158 167 171 171 168 164 160 157 154 151 145 136 125 111 98 88 84 88 102 124 149 171 185 189 184 168 141 108 80 62 56 60 75 102 136 167 187 197 196 187 169 144 117 97 88 90 103 123 145 165 178 186 188 188 186 183 181 178 175 169 159 144 125 105 88 76 69 66 67 70 76 84 
110 118 127 136 144 150 152 152 147 140 131 121 113 107 104 102 100 97 92 86 80 77 78 84 98 116 137 156 170 177 179 176 170 162 155 148 142 135 126 115 101 87 76 69 70 79 99 129 161 185 200 204 199 182 153 117 84 63 55 58 74 101 135 166 187 195 193 183 163 138 114 97 90 96 111 132 155 173 184 190 192 190 188 185 182 178 174 167 157 142 125 109 96 89 86 87 90 94 99 104 
123 121 121 122 124 127 130 132 132 129 125 119 113 107 102 98 93 88 83 79 76 76 81 92 109 130 150 167 177 180 178 171 161 151 142 134 127 120 111 100 86 74 64 59 61 74 98 132 167 193 208 212 207 191 162 124 88 65 56 59 74 100 134 164 183 190 187 174 155 131 110 97 95 103 119 140 159 173 181 184 183 180 176 173 170 167 163 157 149 137 125 115 108 106 108 113 119 123 125 125 
133 122 112 106 103 105 108 113 117 120 120 118 114 108 103 97 91 86 82 79 79 83 91 105 124 144 161 173 177 175 167 156 143 131 122 116 113 109 103 94 82 70 61 56 58 71 96 132 168 195 210 214 210 194 166 128 92 68 59 62 77 102 133 160 176 181 176 162 143 123 107 99 102 112 128 146 160 168 170 168 163 157 152 149 147 147 145 143 138 132 126 122 121 125 132 140 147 150 149 143 
138 119 103 92 86 87 91 99 107 115 119 120 118 113 107 101 95 90 87 86 88 95 106 122 139 156 168 173 172 163 149 133 118 107 100 99 101 103 103 98 88 76 65 59 59 70 93 127 163 191 207 212 207 192 165 129 95 73 65 69 84 108 135 157 168 169 161 146 129 114 105 104 111 123 138 150 157 158 153 145 135 127 122 120 121 124 127 129 129 128 128 129 134 142 152 161 168 170 165 154 
138 115 95 81 75 76 82 92 104 116 124 127 127 123 117 110 104 100 98 98 103 111 123 137 152 164 170 169 161 146 126 108 93 84 82 86 95 105 111 111 103 90 77 67 63 70 88 118 152 180 197 202 198 183 158 126 98 80 75 81 97 119 140 155 160 155 143 128 115 106 104 110 122 135 147 154 154 146 134 120 107 98 94 95 99 107 114 121 126 129 132 137 144 155 165 174 180 180 173 159 
136 110 89 75 70 72 81 94 109 124 134 139 139 136 130 124 118 114 113 114 119 127 138 150 161 167 168 162 147 127 105 86 73 68 70 79 95 113 126 132 126 113 95 80 71 71 83 106 135 161 178 185 181 167 145 120 99 89 89 99 116 134 148 154 151 140 126 112 102 100 106 118 134 148 157 158 150 135 117 99 86 78 76 80 88 100 111 121 128 133 138 144 152 162 172 181 185 184 176 159 
132 106 86 74 71 75 86 103 121 137 148 153 154 150 145 139 133 129 128 129 133 139 148 157 164 167 164 153 135 112 89 72 62 59 65 79 100 125 145 155 152 139 118 97 81 74 79 94 115 137 153 159 156 144 128 111 100 99 107 121 138 151 157 155 144 127 110 98 93 97 110 128 146 160 165 161 148 128 106 87 74 69 70 77 89 103 117 128 135 140 144 149 156 165 174 182 185 183 174 157 
129 105 86 76 75 83 98 117 137 153 163 167 166 163 157 151 146 142 140 139 142 146 152 158 162 163 158 145 126 103 81 65 57 57 65 83 109 139 163 175 174 162 141 115 93 80 77 84 97 112 124 129 126 118 108 101 101 110 125 143 158 166 166 155 137 116 98 87 87 97 115 137 157 169 172 164 147 124 100 82 71 69 73 83 97 113 127 137 143 145 146 149 155 163 172 179 183 180 171 153 
127 104 88 81 83 94 113 134 153 167 175 177 175 171 164 158 152 147 144 143 143 145 149 153 156 157 152 141 123 101 81 67 59 60 70 90 120 151 176 188 189 179 159 132 106 88 79 79 85 94 100 102 100 95 91 93 102 119 140 160 173 177 171 154 130 106 88 80 84 98 120 145 165 176 176 166 147 123 100 83 75 75 82 94 110 125 137 143 145 144 142 143 148 156 166 174 178 176 167 149 
124 104 90 86 91 106 127 149 167 178 183 183 179 173 165 157 150 145 141 138 137 137 140 144 149 151 149 141 126 107 89 74 67 67 78 99 129 160 183 195 197 188 170 145 119 98 86 82 83 86 88 87 83 80 80 87 103 126 151 171 182 183 172 150 122 97 81 75 82 99 124 150 169 178 177 166 146 123 103 89 84 86 95 107 121 133 140 142 139 134 130 130 136 146 158 168 173 172 162 145 
120 101 90 89 97 114 137 159 175 184 187 184 177 168 158 148 140 134 129 126 124 125 128 134 141 147 149 145 135 120 103 88 79 78 87 107 134 163 184 195 197 190 175 153 129 110 97 92 91 90 88 84 79 75 76 85 104 129 156 175 184 182 167 142 113 88 74 72 80 100 126 151 169 177 174 162 144 123 106 96 94 98 107 118 128 134 135 131 124 117 112 114 121 134 149 161 168 167 157 140 
114 97 87 87 97 116 140 162 178 186 186 180 170 157 144 132 123 117 113 110 109 111 117 125 135 145 152 153 148 136 120 105 93 89 95 112 135 160 179 189 191 185 173 155 137 122 113 109 108 106 101 93 84 78 78 87 105 130 156 174 181 175 158 131 102 80 69 69 79 99 124 148 164 170 166 155 138 122 109 103 104 109 117 124 127 127 122 113 104 96 93 97 107 124 142 157 164 163 152 134 
106 89 81 82 93 112 137 159 175 182 181 172 159 142 126 112 103 98 95 94 96 100 108 120 134 147 157 162 160 152 137 121 106 99 101 112 131 151 168 177 179 174 164 152 140 132 129 130 131 129 123 112 99 89 85 91 107 130 153 168 173 165 145 118 92 73 65 67 78 98 121 142 156 159 154 143 130 118 111 109 113 118 123 124 122 115 105 94 84 78 78 85 100 120 140 156 163 160 147 127 
96 80 72 74 84 103 128 152 168 176 173 162 145 125 107 93 85 81 80 82 86 94 105 120 137 152 164 170 170 163 149 131 115 104 101 108 121 137 151 159 161 157 151 144 139 140 144 150 155 154 147 135 119 104 97 99 111 129 148 161 163 153 132 106 84 69 64 68 79 98 118 135 144 145 139 129 119 113 111 114 120 125 126 122 114 102 89 78 70 67 71 82 100 123 145 160 165 159 142 119 
87 71 63 64 74 92 116 141 159 167 164 152 132 110 91 79 72 70 71 75 83 94 108 126 143 159 170 176 175 167 153 135 117 103 98 100 109 120 131 138 140 138 135 133 136 143 154 165 172 174 168 155 138 120 109 107 115 130 145 154 154 143 123 100 81 70 67 72 84 100 116 128 132 129 122 113 108 107 111 118 126 130 129 121 108 93 79 69 64 65 73 88 110 135 156 168 170 159 138 112 
80 63 56 57 65 81 105 131 151 160 158 144 123 101 82 70 64 63 67 73 84 99 117 135 153 166 175 178 175 165 150 130 112 98 92 92 98 107 115 120 122 121 121 123 131 143 158 172 181 184 180 168 151 133 120 115 120 132 143 151 149 138 121 101 86 77 77 84 95 108 118 123 122 115 106 100 98 102 111 123 132 137 134 123 108 91 78 69 67 73 85 105 129 153 170 178 176 161 135 105 
74 58 51 51 59 75 98 124 145 156 155 142 121 98 79 67 62 62 67 77 91 109 129 147 162 173 177 176 170 157 139 120 103 91 86 86 92 99 106 111 112 112 112 116 126 141 157 172 182 185 181 170 155 138 125 121 126 135 146 152 151 142 127 111 99 94 96 103 113 121 126 124 116 105 95 90 92 100 113 128 140 145 141 130 114 98 85 80 81 91 108 130 153 172 185 188 181 162 133 101 
71 56 49 50 58 74 97 123 145 157 157 145 124 102 82 70 64 65 72 84 101 122 142 159 171 176 176 171 159 143 125 107 93 85 83 86 93 101 108 112 112 111 111 115 124 137 153 166 175 177 173 163 148 134 125 123 130 140 151 157 157 151 140 129 121 118 122 128 135 139 137 128 114 100 89 85 89 101 118 135 149 154 151 141 126 111 101 99 104 117 136 156 175 189 196 195 185 163 131 98 
71 56 51 53 62 79 103 129 151 163 163 152 133 111 91 77 72 73 81 95 115 136 155 169 176 177 172 161 145 127 109 94 85 81 84 91 101 111 119 122 122 120 118 119 124 133 145 155 160 161 155 145 133 123 118 122 132 145 158 165 167 163 157 150 146 146 149 155 159 158 150 136 117 99 87 84 90 105 124 144 157 163 161 153 140 129 122 123 131 144 161 178 191 199 202 198 185 161 129 96 
73 61 58 62 73 91 115 140 160 170 170 161 144 123 103 89 83 84 93 109 129 149 165 175 178 174 164 148 129 110 94 84 80 82 91 103 116 128 136 139 138 134 129 126 126 130 135 139 140 137 130 121 112 107 108 117 132 149 163 172 176 174 171 167 166 168 172 176 177 173 162 144 122 103 90 88 96 112 132 152 165 171 169 162 153 144 141 143 152 165 178 190 198 202 201 194 179 155 125 95 
79 72 72 78 92 111 133 154 170 177 177 169 154 135 117 103 97 99 109 124 143 160 172 178 176 168 153 133 112 95 83 78 79 88 102 119 135 148 156 158 155 148 141 134 129 127 125 123 119 113 105 97 91 90 97 110 130 150 167 177 181 181 179 177 178 180 184 187 188 182 170 151 129 109 97 95 104 121 141 159 170 174 172 166 158 152 150 154 163 173 184 191 196 196 192 183 168 145 119 96 
89 88 92 103 117 135 152 168 178 182 181 174 161 145 129 117 112 114 124 138 154 168 176 177 172 159 139 117 97 83 75 75 82 96 116 137 154 166 172 172 167 159 150 140 132 125 118 111 102 93 85 78 75 77 87 104 126 148 166 176 180 179 178 177 178 182 186 190 190 184 173 155 134 116 106 106 116 132 150 164 172 173 169 161 154 148 147 151 159 168 176 180 182 180 173 163 149 131 112 98 
102 108 118 130 144 157 169 177 182 183 180 173 163 150 138 129 125 128 137 150 163 172 177 175 165 148 125 103 85 74 71 75 87 106 130 152 169 179 182 180 174 164 154 143 132 123 113 103 92 81 73 67 66 70 80 98 121 144 160 169 171 169 166 165 166 171 177 181 182 179 169 154 137 123 116 118 128 143 157 166 170 167 159 149 140 134 132 136 142 149 154 157 156 151 144 135 124 113 105 101 
116 129 143 155 166 174 179 181 181 179 174 168 159 149 140 135 133 137 146 157 167 174 175 170 157 137 113 91 76 68 68 76 92 115 141 163 178 185 186 181 173 162 151 140 130 121 111 100 89 78 69 64 63 67 78 95 117 137 150 156 155 149 144 141 142 148 155 162 165 164 158 147 136 127 125 130 140 152 161 165 163 155 142 129 118 112 110 112 117 121 124 125 122 117 111 105 100 98 99 106 
128 146 161 172 178 181 181 179 175 169 163 156 149 142 137 134 135 141 149 159 168 173 173 165 150 128 103 83 70 64 66 76 95 120 147 169 182 187 184 177 166 153 142 132 125 118 111 102 92 82 73 67 66 70 80 95 113 129 138 139 133 124 115 110 111 116 124 132 139 141 140 135 131 129 132 140 150 158 163 161 152 138 122 107 95 89 87 88 91 94 96 95 92 88 84 82 83 87 97 111 
136 155 169 177 181 180 176 170 162 155 148 141 135 131 128 128 131 137 146 156 165 170 169 161 145 122 98 78 66 62 65 76 95 122 149 170 181 183 178 168 154 140 128 121 117 116 113 108 101 91 83 76 74 78 86 99 113 124 127 122 112 99 88 82 82 85 93 101 109 115 118 121 124 129 137 147 156 162 161 154 139 121 102 87 77 71 70 71 74 76 77 77 74 72 70 71 75 84 98 116 
140 156 167 172 173 169 162 154 145 137 130 124 120 117 116 117 120 127 137 148 158 165 166 159 144 122 98 78 66 61 64 74 93 119 145 166 177 178 170 157 140 124 113 108 109 113 116 117 113 106 99 92 89 91 98 108 118 123 121 112 97 82 71 64 62 64 69 77 84 92 99 107 116 127 140 151 159 162 157 144 126 105 86 73 65 62 62 65 68 72 73 73 72 71 70 72 78 88 103 121 
137 148 155 157 155 150 143 135 127 120 115 110 107 104 103 104 107 113 123 135 148 158 162 159 146 127 104 84 69 62 63 72 89 113 139 159 170 171 162 146 127 111 100 98 102 110 119 126 127 124 118 112 108 109 114 121 126 128 122 109 93 77 64 57 53 54 57 62 69 76 85 96 109 125 140 153 160 160 151 134 113 93 76 66 61 61 64 69 75 81 84 85 85 84 84 86 91 99 110 124 
130 134 135 134 131 126 121 116 112 109 106 103 99 96 93 91 92 97 106 119 134 149 158 160 153 138 116 95 77 67 65 70 84 105 130 151 163 165 156 140 120 103 93 91 97 109 123 134 140 141 137 132 129 128 130 135 138 137 130 117 100 83 70 61 56 54 55 58 63 69 78 91 106 124 141 153 158 155 144 125 104 85 72 65 64 68 76 85 95 103 109 112 112 112 111 111 112 115 120 125 
120 116 113 109 106 104 103 104 105 106 105 103 98 92 86 82 80 82 89 102 120 139 155 164 163 152 134 112 91 76 69 70 80 98 121 143 157 161 154 139 119 102 91 89 96 109 126 140 150 154 153 149 145 143 144 147 150 149 143 132 117 101 87 76 69 65 63 63 66 70 78 90 106 124 141 152 156 151 137 118 98 82 73 71 75 85 98 112 125 136 142 146 146 145 143 140 137 133 129 125 
110 100 93 89 87 89 93 100 107 112 114 112 105 95 85 76 71 70 75 87 106 130 152 168 173 169 155 134 110 90 77 73 78 93 114 136 153 160 156 143 125 108 96 93 98 112 129 145 156 162 162 159 155 152 152 154 157 158 156 150 140 128 115 104 95 87 81 78 77 79 85 95 111 127 142 152 153 146 132 113 96 84 80 83 93 109 127 144 158 167 173 176 176 174 170 165 157 147 135 122 
101 87 79 76 77 83 93 105 117 127 131 128 119 105 89 75 66 62 65 75 94 121 149 171 182 183 174 156 133 108 89 78 79 89 108 131 150 161 161 152 136 119 106 101 104 116 132 148 159 165 165 162 157 153 152 154 158 163 166 166 162 156 148 138 129 119 109 101 95 93 96 105 118 132 145 152 152 144 129 112 98 90 90 99 115 135 155 171 183 190 193 194 193 191 186 179 169 155 137 118 
95 81 74 72 76 86 100 117 134 146 151 148 137 119 98 79 66 58 59 67 85 114 146 173 189 194 190 176 155 128 104 87 82 88 105 127 148 162 166 160 147 131 118 111 112 121 135 149 160 164 164 159 152 146 143 145 151 160 168 174 178 178 175 169 162 152 140 128 118 112 111 117 127 139 149 154 152 143 129 114 102 98 103 117 137 157 175 189 197 200 201 200 198 195 190 182 171 155 135 114 
94 82 76 76 83 96 113 133 151 164 169 167 156 137 113 89 71 60 57 63 79 108 142 173 193 201 201 191 173 147 119 97 86 88 101 122 144 160 168 166 156 142 129 121 120 127 139 150 159 162 159 151 142 133 129 130 137 148 161 174 183 189 191 189 184 176 165 151 139 129 126 128 136 146 154 157 154 145 131 118 109 108 116 131 152 171 186 195 199 200 198 195 191 187 182 175 164 150 131 112 
99 90 86 88 96 110 129 148 165 177 182 181 172 155 130 104 81 66 59 62 76 102 137 170 193 204 206 200 185 161 133 107 91 89 98 117 138 156 166 166 159 148 136 128 127 132 141 150 157 158 152 142 129 118 111 110 117 129 146 163 177 188 194 196 194 188 178 165 152 141 136 137 143 152 158 161 157 148 135 123 115 115 124 139 157 174 185 190 191 188 183 177 171 167 162 157 151 141 127 113 
111 106 104 106 114 126 141 157 172 182 188 189 183 170 149 123 97 77 66 64 74 97 130 163 188 203 208 204 192 170 142 114 95 89 94 110 129 147 158 161 156 147 137 130 129 133 141 149 154 153 146 133 117 103 94 92 96 107 124 143 161 176 186 191 192 187 179 167 155 145 140 142 148 156 162 164 161 152 140 128 120 119 126 139 153 165 172 174 171 164 155 147 140 136 135 135 134 131 126 119 
129 127 126 127 131 138 147 158 169 179 186 189 188 181 166 143 117 93 76 70 74 92 120 152 179 197 204 203 193 173 146 118 97 88 90 102 119 135 146 150 147 140 132 127 126 131 139 146 150 149 140 126 110 94 83 78 80 87 101 118 137 154 167 175 177 175 169 159 149 141 138 141 149 157 164 166 164 156 144 132 124 120 123 131 140 146 149 146 139 129 119 110 105 104 106 112 120 126 130 131 
149 150 149 146 145 144 145 149 156 165 174 182 187 186 178 161 138 113 91 77 75 86 108 137 164 184 195 196 188 170 145 118 97 87 87 95 108 122 132 135 133 128 122 119 120 125 133 141 146 144 137 123 107 92 80 73 71 74 82 95 110 125 138 148 153 153 149 142 135 131 131 137 146 156 163 167 165 158 148 136 126 119 117 119 121 122 119 113 104 94 85 79 76 78 86 98 112 127 139 146 
168 169 166 160 151 142 134 131 133 141 152 166 177 184 184 175 156 131 106 86 77 80 95 118 144 165 179 182 176 161 139 115 96 86 84 90 100 111 118 121 119 114 110 108 110 117 125 134 140 140 135 124 110 96 84 75 71 70 72 78 87 97 108 116 122 124 124 121 118 118 121 129 139 150 159 164 164 159 150 139 128 119 112 107 103 98 92 84 76 68 62 59 60 65 76 93 114 134 151 162 
182 182 177 167 152 134 118 108 105 111 124 142 161 176 183 181 169 147 120 96 80 76 83 99 121 141 156 163 159 147 129 109 94 86 85 90 97 105 109 110 107 103 99 98 101 107 116 126 133 136 135 129 119 108 97 88 80 75 72 72 74 79 84 90 96 99 102 102 103 106 111 119 130 141 151 158 160 158 152 143 132 121 110 100 91 82 73 66 59 54 51 50 54 62 77 98 122 146 164 176 
190 189 182 168 148 123 101 86 80 83 95 115 139 162 177 182 175 157 131 104 84 74 74 84 99 117 132 140 140 132 119 105 94 89 90 94 100 105 107 106 101 96 92 91 93 99 108 118 127 133 136 135 131 125 117 108 99 90 82 76 72 71 73 76 80 84 88 91 94 98 102 109 119 129 139 147 152 154 153 147 139 128 115 101 87 75 65 57 51 48 48 50 57 68 86 109 135 158 175 186 
192 190 181 165 142 114 88 71 62 63 72 90 116 144 166 177 176 163 140 112 89 75 70 74 85 98 111 120 122 118 111 103 98 96 99 104 109 112 112 108 102 96 91 88 90 94 102 112 122 131 138 143 145 144 141 134 125 113 101 90 81 75 73 74 77 82 87 90 93 95 97 101 106 114 123 132 141 148 153 153 149 140 127 111 94 78 66 57 52 50 52 57 66 80 100 124 147 167 181 189 
187 185 176 160 136 107 81 63 53 52 58 73 97 126 153 170 174 166 147 121 97 80 72 72 78 88 99 107 111 111 108 106 105 108 112 118 123 124 122 116 108 100 94 90 91 94 100 109 120 131 141 150 157 161 161 158 151 140 126 111 99 89 85 84 87 92 97 100 100 99 96 94 95 98 105 115 127 140 151 159 160 156 145 129 110 91 76 65 60 59 62 70 82 98 117 137 156 170 180 185 
175 174 168 154 132 106 81 62 52 48 52 64 85 113 142 163 172 168 153 131 108 90 80 78 81 88 96 103 108 110 112 113 117 122 129 135 139 139 135 128 118 109 101 97 96 98 104 112 122 133 144 155 164 171 175 174 170 161 149 135 121 111 106 106 108 113 117 118 115 108 99 90 85 84 88 98 112 131 149 164 171 172 165 151 133 113 95 82 76 75 80 89 102 117 132 146 157 164 170 173 
154 156 155 147 132 110 88 69 57 51 52 62 80 107 135 158 170 170 160 143 123 105 94 89 90 94 100 107 112 116 120 124 130 137 144 150 153 152 147 138 128 117 110 105 104 107 112 119 128 138 148 158 167 174 179 180 178 172 163 153 143 135 132 133 136 141 143 141 133 120 104 88 78 73 74 82 98 121 145 167 180 185 182 173 157 139 120 107 99 99 104 113 124 135 142 147 149 149 150 151 
128 135 141 141 134 119 101 82 68 60 59 67 83 107 135 158 171 174 168 155 138 122 110 104 103 105 109 115 120 125 131 137 144 151 157 162 163 160 154 144 133 124 117 113 114 118 123 130 138 145 153 160 165 170 173 174 173 170 165 160 156 154 155 158 163 167 168 163 152 133 110 88 72 64 63 70 86 111 140 167 185 194 195 189 177 162 146 133 126 126 131 138 145 148 146 141 133 126 122 123 
101 113 127 137 139 132 118 101 86 75 72 78 92 115 140 161 174 178 175 165 152 138 125 117 114 114 118 122 128 134 141 148 155 161 166 168 167 162 154 143 133 124 119 119 123 129 136 144 150 154 157 159 159 159 158 157 156 155 154 155 158 163 169 176 182 186 186 180 167 144 116 89 69 58 56 61 76 101 133 164 186 198 201 198 190 178 165 155 150 150 153 158 159 155 144 129 113 100 94 94 
80 96 116 135 146 146 137 122 106 94 89 93 106 127 149 168 179 183 180 173 161 147 134 124 119 118 121 126 132 140 148 155 162 167 170 169 165 158 147 136 125 118 116 120 127 137 148 156 161 163 161 157 150 142 135 130 128 128 131 138 149 161 174 185 193 197 197 191 177 152 121 90 67 55 51 55 68 92 125 157 182 196 201 199 193 184 174 167 164 165 168 170 167 157 139 117 95 79 71 72 
68 86 111 135 152 158 153 141 125 112 105 109 121 139 159 174 184 186 184 175 163 148 134 122 116 114 116 122 130 140 151 159 166 170 170 167 160 149 135 123 113 107 108 115 127 141 155 165 170 170 165 154 140 125 111 102 97 98 104 115 132 152 171 186 197 202 202 196 182 157 125 92 68 54 49 52 63 85 115 147 172 188 194 193 187 179 172 167 167 170 174 175 170 157 134 107 83 66 58 59 
65 84 111 137 157 165 162 151 136 123 116 119 131 148 165 179 186 188 183 173 159 141 124 111 104 102 105 112 123 136 149 160 167 170 169 163 152 137 122 108 98 94 97 107 122 140 157 170 176 175 167 153 132 110 92 79 73 73 79 92 112 137 161 181 194 201 202 197 184 160 129 97 72 57 51 52 61 79 104 133 157 171 177 176 170 163 157 156 160 166 173 175 170 156 132 103 78 61 53 55 
69 89 116 142 160 168 164 152 137 123 117 120 132 149 167 179 186 186 180 167 149 128 109 95 88 86 90 99 113 129 145 158 166 169 166 157 143 126 109 95 86 83 87 98 114 135 154 169 177 177 169 152 128 102 81 66 59 58 63 76 95 121 148 171 186 195 197 193 182 162 133 104 80 64 57 57 64 77 96 117 136 147 151 148 142 136 133 136 144 156 167 173 170 157 134 106 80 64 56 58 
82 102 127 149 163 166 159 144 127 114 108 112 125 143 162 175 182 182 174 158 136 113 93 79 73 72 77 87 103 121 140 154 163 165 161 151 136 119 102 89 80 77 81 90 106 126 147 164 174 175 168 152 128 102 79 64 55 53 57 66 83 106 132 155 172 183 187 185 177 161 139 115 94 79 72 70 73 80 92 104 115 120 120 115 109 105 105 111 125 142 158 169 170 160 140 115 91 75 68 70 
103 122 142 157 165 161 149 130 111 98 93 98 111 131 152 168 176 176 167 149 125 101 81 68 63 63 68 80 96 115 134 149 158 160 155 145 131 116 101 89 82 79 80 87 100 117 135 152 164 168 165 152 132 109 87 71 61 58 59 65 77 95 115 136 152 163 169 170 167 158 145 130 115 103 95 91 90 91 94 96 97 96 92 86 81 78 81 90 107 129 150 165 170 165 150 129 108 93 87 91 
