P2
100 100
255
131 156 180 195 198 187 160 121 85 61 51 54 72 103 141 174 193 196 184 157 117 78 51 37 33 34 41 55 76 104 132 153 164 165 157 143 125 106 91 81 75 72 72 75 83 97 115 133 148 158 159 152 136 114 93 76 63 54 48 46 49 58 73 94 116 137 154 168 177 180 176 166 153 140 129 119 108 96 82 70 59 51 44 39 36 37 42 56 81 117 154 180 191 187 170 145 120 104 101 111 
168 186 200 205 200 180 145 102 67 46 38 42 57 86 125 162 185 192 182 156 119 82 56 43 39 42 50 63 81 102 122 136 141 139 132 122 114 108 105 105 104 102 98 93 89 89 94 103 115 127 138 144 144 138 127 114 100 86 73 62 54 53 57 66 79 95 113 133 154 171 181 185 183 179 172 163 150 130 105 80 59 44 35 29 27 28 33 47 71 106 144 172 186 186 176 161 145 137 140 151 
194 206 213 212 200 173 132 87 54 37 31 35 49 77 116 156 182 191 185 163 131 98 73 60 57 61 70 83 97 109 117 119 115 109 103 100 103 111 123 135 141 141 134 120 103 88 79 78 84 96 113 132 149 160 162 158 147 131 110 88 69 55 49 48 53 62 77 100 128 157 181 195 203 205 203 197 185 163 132 96 66 45 33 28 26 28 35 49 72 104 138 164 177 178 172 164 158 159 167 180 
208 216 219 215 199 168 122 77 47 32 28 33 47 75 116 156 183 194 191 176 151 124 103 92 91 96 105 115 122 123 117 105 92 82 78 80 91 112 139 162 175 178 170 150 123 94 72 61 60 70 90 119 150 175 189 192 187 174 151 120 88 63 47 40 39 43 54 75 106 144 178 200 212 218 219 216 206 187 155 115 78 53 39 33 33 37 47 62 85 112 138 154 160 159 154 150 153 163 178 194 
211 220 222 216 198 163 115 72 44 31 29 36 52 82 123 162 188 199 198 188 171 153 139 133 134 141 149 154 152 141 120 96 75 62 58 63 80 111 148 179 198 203 196 176 143 104 71 51 46 52 71 105 146 181 203 213 212 203 182 149 109 73 50 37 33 34 42 61 93 135 174 201 216 223 225 223 216 199 170 131 93 66 51 47 50 58 72 89 109 128 140 143 138 129 123 122 131 149 173 195 
207 219 221 214 195 158 111 69 44 34 34 44 64 97 137 171 192 201 200 194 184 174 169 168 173 180 185 185 177 157 125 90 63 48 44 50 69 105 149 187 209 217 213 195 162 116 75 48 38 41 58 92 139 182 209 222 224 218 200 167 124 82 53 38 32 32 40 58 90 131 171 199 214 222 224 223 216 202 177 143 109 85 73 73 81 94 111 128 142 148 144 131 113 97 87 88 99 124 156 186 
199 214 218 211 190 153 107 69 47 40 44 58 84 118 153 179 193 197 195 189 183 180 182 188 196 203 207 205 194 169 130 87 56 39 34 40 59 96 145 188 213 223 221 207 176 129 82 50 35 35 50 83 132 178 209 224 228 222 206 174 130 87 57 42 36 37 46 65 96 134 170 194 208 214 215 213 206 194 174 148 124 108 104 111 124 140 156 169 173 167 149 121 91 70 59 58 70 95 132 170 
187 206 212 204 182 145 102 69 52 50 60 80 109 140 167 182 187 184 177 169 166 169 177 190 203 212 217 214 202 176 134 87 53 34 29 33 51 87 137 184 213 225 226 214 187 143 93 55 37 34 47 78 126 174 206 221 225 219 201 170 127 87 61 48 46 51 63 83 111 143 170 187 195 197 196 191 184 173 159 144 134 131 138 151 166 181 193 199 196 181 152 112 76 52 41 39 49 72 109 152 
175 197 204 195 170 134 96 70 60 65 82 108 136 161 175 178 171 158 144 134 132 140 156 177 197 211 218 217 206 181 138 90 54 34 27 30 46 79 129 177 209 224 227 218 196 156 106 65 43 38 49 78 123 169 200 215 217 208 188 155 117 84 65 60 64 75 92 113 135 156 169 175 173 168 162 155 148 140 134 132 136 147 164 181 196 208 215 216 209 189 153 106 66 42 31 29 37 56 91 136 
165 188 193 181 155 120 89 72 71 85 109 137 162 176 177 165 145 122 103 92 91 101 123 151 180 202 214 216 208 185 146 99 60 38 29 31 45 75 122 171 204 221 226 220 202 168 122 81 56 48 58 84 125 166 193 204 201 188 163 132 101 80 72 77 92 111 131 149 162 169 167 158 144 130 118 109 104 102 104 113 130 154 178 198 213 222 226 224 215 192 152 101 60 37 26 25 32 49 82 125 
160 180 182 166 137 106 83 75 84 107 137 164 180 183 172 147 115 87 67 57 57 67 88 120 156 186 204 211 207 190 157 114 75 50 39 38 50 77 119 164 198 216 222 219 205 178 139 101 75 66 74 98 132 164 183 187 178 158 131 103 83 75 81 100 125 150 169 181 185 180 165 141 115 94 79 71 68 70 78 95 121 153 183 205 219 227 230 227 216 191 148 97 57 34 25 24 32 49 81 122 
160 175 171 150 120 93 78 80 99 130 161 184 193 186 162 126 88 60 43 36 36 44 62 91 129 165 191 204 205 194 170 135 100 74 59 56 64 85 120 158 187 205 213 212 203 183 154 123 101 93 99 118 142 162 170 165 147 123 97 77 68 72 91 122 155 182 198 204 201 187 162 128 94 69 55 48 48 52 63 81 110 146 179 203 218 226 229 226 214 187 143 92 54 34 26 27 36 55 87 127 
165 172 161 135 104 82 75 86 113 149 180 197 199 185 153 109 70 44 30 26 27 33 47 71 105 142 173 192 199 195 182 159 133 109 93 86 88 101 123 149 171 186 194 196 191 180 162 143 129 124 129 141 154 160 156 140 116 91 70 58 58 71 99 139 176 201 214 216 209 192 162 122 85 59 46 41 42 47 57 74 101 135 168 194 211 220 224 220 207 179 135 87 52 34 29 32 44 67 101 139 
172 171 152 121 91 73 73 92 126 164 193 206 203 183 145 98 59 36 25 22 24 30 42 60 88 120 151 174 187 192 189 179 165 150 137 127 122 121 127 136 147 156 163 167 168 166 160 154 150 150 154 160 162 158 143 119 92 69 53 47 52 70 104 148 186 209 220 220 212 194 163 124 87 63 50 47 48 52 59 72 92 119 149 176 195 207 213 210 197 168 125 81 51 36 33 39 56 85 121 154 
179 170 144 109 81 67 72 96 135 175 201 211 206 183 142 93 55 34 26 25 28 34 44 59 78 103 128 150 168 180 188 190 189 183 176 166 154 141 128 119 116 116 120 126 133 140 148 155 161 166 170 171 166 154 132 105 78 58 47 44 51 71 106 148 185 207 217 217 209 192 165 131 100 79 68 65 66 67 70 75 85 102 124 147 168 184 193 193 181 154 115 77 51 40 40 51 73 107 143 169 
183 167 135 98 72 62 70 98 139 179 205 214 207 184 143 95 59 39 32 34 39 47 57 67 78 91 105 122 140 158 176 190 199 203 200 192 176 153 125 101 86 79 79 84 95 110 128 146 162 172 176 174 164 148 124 98 75 59 50 49 56 74 104 141 173 194 204 205 199 185 165 141 120 106 100 98 97 94 88 82 80 85 96 113 132 150 164 168 161 139 107 77 56 48 52 68 96 131 163 182 
184 161 125 88 64 56 67 95 138 178 204 213 207 185 148 104 70 52 48 53 62 73 81 85 85 85 87 93 107 128 154 179 199 210 212 205 188 157 119 85 62 52 50 55 66 84 109 135 156 169 172 168 156 139 119 99 83 72 65 64 68 80 101 127 151 168 177 179 176 169 160 150 143 140 140 140 136 126 110 92 78 71 72 81 95 113 131 142 143 130 107 84 68 63 71 91 121 154 179 190 
183 155 115 78 56 51 61 88 128 169 196 207 204 186 155 118 89 76 76 86 100 112 117 113 100 85 73 70 77 95 125 159 189 208 214 209 190 154 110 71 47 36 34 39 50 70 97 126 149 161 162 155 143 129 117 107 101 97 94 92 91 94 100 110 121 131 136 139 141 143 147 154 162 169 175 177 171 156 131 101 76 61 55 58 68 84 105 123 133 130 117 101 90 88 98 119 147 174 191 194 
181 149 107 72 51 45 53 76 112 151 180 194 195 183 161 135 116 110 116 130 146 157 157 143 118 88 65 54 54 67 95 135 173 200 211 207 186 147 100 61 39 29 28 33 46 67 95 124 144 152 148 137 125 117 115 119 126 131 133 130 124 114 105 97 93 91 92 95 101 113 131 153 173 189 198 200 193 174 143 105 74 54 45 45 53 69 92 117 135 142 138 129 122 121 131 149 170 188 198 196 
180 147 105 69 48 41 46 63 90 124 153 171 177 173 161 149 142 145 156 172 185 192 187 167 132 91 60 43 39 48 72 111 156 189 205 202 179 138 90 54 34 27 28 36 52 77 107 133 146 146 133 117 106 103 112 130 150 165 171 169 159 139 114 90 72 62 59 60 69 86 115 149 179 200 210 212 203 181 144 102 69 48 40 40 48 67 94 124 149 161 163 159 155 155 161 174 188 199 203 198 
182 150 109 72 49 40 41 50 69 93 118 138 149 154 155 157 162 172 186 199 209 212 204 180 139 92 57 37 31 37 57 94 141 179 197 195 171 129 83 50 33 29 34 47 70 100 130 150 155 144 122 100 87 89 107 136 166 188 199 198 187 163 128 91 62 46 40 40 50 70 104 146 182 205 215 215 203 176 136 93 62 44 37 40 51 74 106 141 167 181 185 183 179 178 182 189 198 204 206 200 
188 160 121 83 56 42 38 42 52 67 85 102 117 131 144 158 172 188 202 213 220 220 210 184 140 90 53 34 27 33 51 87 133 172 192 189 164 122 78 49 36 36 47 69 100 133 160 173 168 147 115 87 72 76 97 134 173 200 214 216 205 181 141 96 60 40 31 32 41 63 101 147 185 207 215 212 195 164 121 81 54 40 37 43 59 88 125 160 184 196 199 196 191 188 189 194 201 206 208 203 
196 175 141 103 71 51 41 39 42 50 61 74 90 109 131 155 176 195 209 218 223 221 208 180 135 86 51 33 28 34 54 90 135 172 190 186 160 119 78 52 44 50 69 101 137 169 189 194 182 152 112 78 61 63 86 126 170 203 220 224 216 194 154 104 63 39 29 30 40 64 105 152 188 208 213 205 182 145 103 67 47 38 39 50 72 106 144 175 195 202 201 195 188 183 183 188 196 203 208 206 
204 190 164 129 94 67 50 41 40 42 49 60 76 97 124 152 177 196 209 217 220 215 200 170 126 81 51 37 35 44 67 104 147 179 192 186 159 119 81 59 56 70 99 137 173 198 211 209 192 157 111 72 52 52 72 112 160 199 220 227 221 202 164 114 69 42 31 32 44 71 113 159 192 207 207 193 164 124 84 56 42 38 44 61 88 124 160 184 196 197 190 179 168 162 161 169 181 194 204 208 
208 202 185 158 123 91 66 52 45 45 50 60 76 98 126 154 177 194 205 210 210 202 185 154 114 77 54 45 49 64 91 129 165 190 197 187 160 120 86 68 71 94 131 170 200 218 224 219 200 162 111 68 45 43 59 95 145 189 215 226 223 207 173 123 77 48 36 37 52 82 125 167 194 204 198 177 143 102 69 48 40 43 54 76 107 141 169 185 187 179 164 147 132 124 125 135 153 174 193 205 
207 209 201 182 153 120 91 71 61 58 63 74 91 113 137 160 177 189 194 195 190 179 159 131 100 75 62 62 73 95 126 159 187 202 203 188 159 120 89 76 85 115 156 193 217 229 231 225 204 164 111 65 41 36 47 78 125 174 206 221 222 209 179 132 85 55 43 45 62 94 136 173 194 198 186 159 121 85 59 46 45 53 71 97 128 156 173 177 167 149 126 105 89 81 83 95 117 145 174 195 
200 209 208 197 176 148 119 98 86 85 91 103 120 138 156 169 177 178 175 169 158 144 126 105 86 76 76 88 108 135 164 188 204 210 205 186 153 115 87 79 93 127 170 204 225 234 235 227 206 166 111 64 38 30 38 62 105 155 194 214 219 209 182 139 94 64 51 55 74 106 145 175 189 187 169 139 103 74 57 52 58 73 96 124 150 168 172 162 140 113 86 66 54 49 51 61 81 111 147 178 
184 201 207 202 188 167 144 127 119 120 129 141 155 168 176 178 174 163 149 133 118 104 90 80 75 79 94 118 146 172 194 208 216 215 203 179 142 104 79 75 91 127 171 205 225 234 235 227 207 167 111 63 36 27 31 50 86 135 179 205 213 206 183 144 102 72 60 65 84 115 148 172 180 172 151 121 92 72 64 67 81 103 129 153 171 177 169 147 114 82 57 41 33 29 31 38 54 80 116 154 
160 184 195 195 186 172 157 148 147 153 164 176 186 192 192 184 168 144 118 96 80 69 62 61 67 84 112 146 176 199 213 220 221 214 196 164 124 88 67 64 81 115 159 196 219 230 232 225 205 166 112 65 37 26 28 42 73 118 164 194 206 201 180 145 107 79 69 73 92 118 145 162 165 154 132 108 89 79 82 94 115 139 163 180 189 185 167 135 96 62 40 28 22 20 21 26 37 57 88 125 
132 158 172 175 170 161 154 154 161 173 187 199 205 207 201 186 159 125 92 68 53 45 44 48 62 89 127 166 196 214 223 225 221 208 182 144 102 70 53 51 65 95 136 176 204 220 225 220 202 165 114 68 40 28 28 40 66 108 153 184 197 193 174 142 108 84 74 79 95 117 137 148 147 136 119 104 96 98 110 130 152 174 190 200 201 192 168 130 88 55 34 24 19 17 18 21 29 43 66 98 
107 129 142 145 141 136 135 142 158 177 195 208 214 214 205 184 150 108 73 49 37 32 33 41 60 93 138 179 207 221 226 225 215 196 162 120 80 54 41 40 49 72 106 145 179 201 211 210 195 163 118 75 48 35 35 45 70 107 148 177 189 184 165 136 105 84 77 81 94 111 125 132 130 122 113 109 112 124 143 164 183 199 208 212 209 197 172 135 93 59 38 27 22 20 20 23 28 38 56 80 
92 106 113 112 107 103 106 119 140 167 190 207 215 214 203 179 140 96 61 40 29 26 29 39 60 97 144 185 211 223 225 220 205 177 138 95 62 41 32 31 37 52 77 110 144 171 188 192 183 159 123 87 63 51 51 62 85 118 152 175 183 175 154 126 99 82 76 80 91 104 114 119 119 117 117 122 134 152 172 189 203 212 216 217 212 200 179 146 108 76 54 41 34 31 30 32 36 44 57 74 
93 97 95 88 79 75 78 90 114 144 173 194 206 206 195 170 131 88 55 36 28 25 29 40 63 102 150 188 211 220 220 210 188 154 112 74 48 33 27 27 30 39 55 78 107 135 156 167 166 152 130 105 87 79 80 92 113 140 164 178 178 166 142 114 91 77 74 78 87 98 107 113 116 120 128 140 157 175 191 204 211 215 216 214 209 200 184 161 133 105 84 70 61 56 54 54 58 64 73 84 
111 106 94 79 66 58 58 67 86 114 144 170 186 190 181 158 122 85 56 39 31 30 34 47 72 112 156 190 209 214 209 193 165 126 87 57 39 30 27 27 29 35 44 58 78 100 121 137 144 143 136 126 119 117 122 133 149 167 179 183 176 158 131 103 82 72 71 76 86 96 106 114 121 130 143 158 175 190 200 207 209 208 205 201 196 191 183 173 158 142 128 116 107 100 97 96 97 101 106 111 
141 127 108 85 66 53 48 52 64 84 110 135 154 163 159 143 116 88 65 51 44 43 49 64 90 126 164 190 203 203 192 169 135 98 67 46 35 31 30 32 35 39 45 53 64 78 93 109 122 132 139 145 150 156 163 172 182 190 193 189 174 150 120 93 76 68 69 76 87 99 110 121 131 143 157 171 184 194 198 198 193 186 179 172 169 169 172 176 177 175 171 165 160 155 151 148 148 148 149 147 
171 155 132 104 79 60 49 46 51 62 79 98 116 129 133 129 116 100 85 75 70 70 77 93 117 146 172 189 193 186 167 138 105 74 53 41 37 38 42 47 52 57 60 63 66 71 79 89 103 119 137 155 170 182 191 198 203 205 201 191 171 143 112 87 72 68 71 81 93 106 119 131 142 154 166 176 183 186 183 175 162 148 136 128 127 135 149 167 184 195 200 201 199 197 193 191 188 187 184 180 
191 178 158 131 103 78 61 50 47 50 57 69 83 98 110 119 122 121 117 113 111 113 119 132 149 166 179 184 178 162 136 106 78 57 45 42 45 53 65 76 86 92 93 90 85 79 77 79 88 105 128 153 176 193 204 210 212 210 203 188 165 135 105 84 73 72 79 90 104 117 129 140 149 157 165 170 171 166 154 138 119 101 88 81 83 95 118 149 179 201 213 219 220 219 216 213 210 207 203 199 
199 192 179 159 134 107 83 64 52 47 47 52 62 76 94 115 134 147 154 157 158 160 163 169 176 182 182 174 157 133 104 78 58 47 43 48 61 80 101 121 134 141 139 131 117 100 85 77 79 91 113 141 169 190 203 210 211 206 196 179 154 126 101 85 80 84 93 106 119 131 139 144 149 152 154 152 146 134 117 97 78 62 52 47 50 63 88 127 167 198 216 225 227 226 222 218 213 209 206 203 
194 195 191 182 165 141 115 89 67 53 45 45 51 64 87 117 148 171 184 191 194 194 195 195 193 188 178 159 133 104 78 58 46 43 48 62 86 116 145 167 181 186 183 172 153 126 99 80 73 78 96 122 151 174 190 197 197 191 179 160 138 115 99 92 94 103 115 128 138 144 145 144 141 137 133 126 116 101 83 66 50 39 31 29 31 43 67 105 152 189 212 222 224 221 215 208 200 194 191 192 
175 186 194 195 188 173 150 121 92 68 52 45 48 61 87 123 160 188 204 211 214 213 211 206 198 186 167 140 110 82 60 47 42 45 58 83 116 152 182 201 212 215 211 200 180 149 114 86 71 69 80 101 126 149 164 171 170 162 149 133 116 104 100 104 115 129 143 153 157 156 148 137 126 116 108 99 88 75 61 48 36 28 23 21 24 33 54 90 136 176 201 212 212 205 194 181 168 160 159 164 
144 168 188 200 203 196 180 155 122 90 66 53 52 63 90 129 168 197 213 220 221 219 214 206 193 175 150 121 91 68 52 45 45 55 75 108 146 181 205 220 227 228 224 214 194 163 125 92 71 65 71 85 103 120 131 135 131 123 112 101 95 95 104 120 140 157 169 175 173 164 147 127 109 95 85 77 69 60 51 42 33 27 23 22 24 32 50 81 122 160 184 192 187 174 156 136 121 112 113 124 
110 145 177 200 210 211 202 183 153 118 86 66 60 69 95 133 172 200 215 220 220 215 207 195 178 157 131 104 81 64 54 52 57 72 99 135 171 200 218 227 231 231 227 216 197 167 130 97 77 69 72 80 91 99 102 100 93 85 78 74 77 88 110 137 163 181 191 192 185 168 143 115 92 77 69 65 62 58 53 47 41 35 31 30 32 40 55 82 115 145 161 162 150 131 108 88 74 67 70 84 
83 123 164 195 212 218 214 201 178 145 109 83 72 77 99 134 169 195 208 212 209 201 189 173 154 134 113 95 80 71 67 70 80 99 128 160 190 210 222 228 229 227 220 208 188 161 129 103 88 83 86 91 95 94 87 77 67 59 54 55 65 85 117 153 181 198 205 203 192 169 137 104 79 66 61 62 66 69 69 67 62 56 52 50 52 59 73 93 116 133 137 128 110 88 68 53 43 39 43 57 
67 107 152 189 211 220 220 212 194 166 131 101 84 84 100 128 158 180 191 193 186 174 158 141 125 111 101 95 92 91 94 101 113 132 156 181 200 213 220 222 220 214 204 189 168 145 124 110 106 109 114 118 116 105 88 69 54 45 41 45 58 84 124 164 194 209 214 210 195 167 130 95 71 60 60 68 81 92 100 103 100 95 90 87 87 93 103 115 125 127 119 101 79 59 44 34 28 26 30 42 
61 98 143 182 207 218 221 216 202 178 147 115 94 88 97 116 138 154 161 159 149 135 119 106 98 96 99 106 115 123 130 139 150 163 179 193 204 210 211 208 201 189 174 156 137 122 115 118 128 141 151 155 148 129 102 73 52 39 35 39 54 85 128 172 202 216 219 213 195 164 124 88 66 59 66 82 105 126 141 148 148 145 140 136 135 137 141 144 141 129 108 84 61 44 33 26 23 23 28 39 
62 94 135 173 198 211 215 212 201 181 153 122 99 88 89 99 111 120 122 117 107 94 84 78 80 90 107 126 144 157 166 172 178 184 190 196 199 198 193 183 168 150 131 113 101 98 106 125 150 171 185 189 181 159 124 85 56 39 33 36 52 85 131 176 206 219 221 213 193 159 117 82 64 62 76 101 132 159 177 186 188 186 182 179 177 176 174 169 156 134 105 77 54 40 31 27 26 28 32 42 
69 95 128 160 183 196 202 200 191 174 150 122 99 85 80 82 86 88 86 80 72 65 61 63 75 96 123 150 170 184 190 193 193 192 190 187 183 175 163 147 126 106 87 75 70 77 98 131 167 194 208 212 205 184 147 101 63 41 32 35 51 85 133 178 207 219 220 210 188 152 110 79 65 68 88 121 156 184 200 208 210 209 206 203 200 197 193 184 167 140 108 78 56 44 38 36 37 39 44 53 
82 98 118 140 158 170 176 177 171 158 138 116 96 81 73 70 68 66 62 57 52 49 52 62 81 110 143 171 190 199 201 199 193 185 176 167 157 143 127 107 87 70 56 49 50 64 93 135 178 207 222 226 220 201 165 116 72 44 33 35 51 85 133 178 206 217 216 204 179 142 103 76 68 77 102 138 172 196 210 215 216 214 211 208 205 202 197 187 170 144 113 86 67 57 54 55 58 62 67 73 
101 102 107 116 125 133 139 142 141 135 123 108 93 80 71 64 59 54 50 47 45 46 54 70 97 131 163 187 200 203 200 191 178 164 149 136 123 110 95 78 62 49 40 36 40 56 89 137 183 214 229 233 228 211 178 128 79 48 36 37 53 87 134 177 203 213 210 194 167 130 96 76 74 88 117 151 181 199 208 210 208 204 200 197 195 193 189 181 167 146 122 100 87 82 83 88 94 99 102 102 
121 107 97 92 91 95 100 106 111 113 111 105 96 85 76 67 59 53 49 47 47 53 66 89 119 152 179 195 201 197 186 169 149 130 114 102 93 85 75 64 53 42 35 32 37 53 86 135 183 215 230 235 231 215 183 135 85 53 40 42 59 93 137 176 199 205 198 179 150 117 90 78 83 102 131 161 183 194 196 192 185 178 173 171 170 171 171 168 160 147 132 120 115 116 123 132 140 144 142 134 
138 111 87 73 66 66 71 80 91 102 109 112 108 100 90 80 70 62 57 56 59 69 88 114 144 171 189 197 194 181 160 135 112 93 82 76 74 74 72 66 57 48 39 35 38 51 82 128 176 210 227 233 229 214 183 136 89 58 47 51 70 104 144 176 193 193 181 159 130 103 86 84 96 119 146 168 180 182 174 162 149 138 132 131 134 140 147 151 151 148 144 142 145 152 162 172 179 182 176 162 
148 111 80 61 51 51 57 69 86 104 120 129 131 126 116 103 91 82 76 75 81 94 115 141 166 185 194 192 179 155 126 99 77 64 59 61 68 78 84 84 77 65 52 43 42 51 75 116 162 198 217 224 220 205 175 132 91 66 58 66 89 122 155 177 185 178 159 134 108 91 86 94 114 139 161 174 175 164 146 125 106 94 90 91 99 111 124 136 145 151 155 160 169 179 189 198 204 204 197 178 
150 109 75 54 45 46 55 72 95 120 141 154 159 156 147 135 121 110 103 102 109 123 143 164 181 192 192 181 158 126 94 69 53 46 48 57 74 95 111 118 112 96 76 59 49 51 68 99 139 175 197 206 202 186 158 122 91 75 75 90 115 144 168 179 175 159 134 108 89 82 89 108 134 159 175 179 169 147 118 92 73 63 61 66 76 92 110 128 142 153 162 172 183 194 204 211 215 214 205 184 
147 105 70 51 45 49 63 86 116 145 167 180 185 183 175 164 152 140 132 130 135 148 163 179 190 193 187 168 137 101 70 50 39 38 45 62 90 121 147 158 153 135 108 81 62 54 61 81 111 142 164 174 171 156 133 108 90 87 98 119 145 168 180 179 164 138 109 86 74 77 95 124 154 177 187 184 166 134 99 71 54 47 48 55 69 87 107 126 142 154 164 175 187 198 208 215 218 216 206 184 
140 99 67 51 48 58 78 109 143 171 190 200 203 201 194 184 172 160 151 147 151 160 173 184 191 190 180 156 122 85 57 41 34 36 48 73 109 149 178 191 189 172 143 108 78 61 57 66 83 105 122 130 128 118 103 91 89 99 121 148 172 186 188 176 150 117 87 69 65 76 103 139 171 192 198 189 165 129 90 63 48 44 47 57 72 91 110 127 140 149 158 169 182 194 206 213 217 214 203 178 
131 91 64 52 54 70 98 135 169 193 207 212 213 209 202 191 178 164 154 148 150 158 169 180 186 185 174 150 116 80 54 39 35 39 55 85 129 171 199 212 211 198 172 135 98 71 58 57 65 76 86 90 89 83 77 77 88 111 142 171 191 198 191 169 135 98 70 57 59 77 111 151 184 202 205 193 167 129 90 63 51 49 55 66 82 99 115 125 132 136 142 152 167 183 198 208 212 209 196 169 
119 83 61 54 61 82 118 157 188 207 216 218 216 209 199 184 168 151 139 132 134 142 155 169 178 181 172 151 120 87 60 45 40 45 63 97 143 184 210 222 222 211 190 157 118 86 67 59 59 62 65 66 63 61 61 69 88 120 156 185 200 201 187 158 118 81 58 49 56 78 116 159 191 207 208 196 169 132 95 70 59 59 67 79 93 106 114 116 115 114 116 126 144 166 186 200 206 202 187 158 
106 75 57 54 65 91 131 171 199 215 220 219 213 201 185 165 143 124 111 104 107 117 134 153 169 177 175 160 135 103 76 57 50 54 72 106 150 189 213 223 224 216 199 171 137 105 83 71 66 64 62 59 54 52 54 65 89 126 163 190 202 198 177 141 100 67 48 44 53 77 117 160 192 207 207 194 169 135 102 80 72 73 81 92 101 106 106 100 93 88 88 98 119 146 173 191 199 194 177 145 
94 66 52 51 65 94 135 176 203 216 219 215 204 185 161 134 109 91 79 75 79 91 112 138 162 177 181 174 155 128 99 76 63 63 78 109 149 185 208 218 219 213 200 179 152 126 107 95 88 83 76 68 59 54 55 67 92 129 165 189 197 188 161 122 82 54 41 40 50 75 113 155 186 200 199 186 163 133 107 91 86 89 95 101 103 100 92 81 71 64 65 75 98 131 162 184 193 187 166 131 
82 57 46 47 61 89 131 172 200 213 214 206 188 161 129 100 77 62 54 53 58 72 96 128 158 180 190 189 177 154 125 96 78 72 81 105 139 171 193 204 207 203 193 179 162 147 135 128 123 116 105 91 77 66 64 74 97 131 164 184 188 173 142 102 67 45 36 37 48 72 107 144 172 184 183 170 149 126 108 99 99 104 108 108 101 90 77 64 53 48 51 63 89 124 159 182 189 181 155 118 
72 49 40 41 54 80 119 161 191 205 206 193 168 134 98 70 53 43 39 40 47 63 90 126 161 186 199 201 193 174 146 114 89 77 79 94 120 147 168 181 185 183 178 171 165 162 161 161 160 155 143 125 105 88 80 85 105 134 161 177 177 159 126 88 58 41 35 38 49 70 99 130 152 160 156 143 127 113 105 106 111 118 119 112 98 81 64 51 43 41 47 63 92 130 164 185 190 177 147 107 
64 43 35 35 45 68 105 147 179 195 195 178 147 108 74 51 38 32 31 34 44 63 93 132 168 193 206 209 203 186 158 124 94 77 73 81 97 118 136 148 153 155 155 157 161 169 177 185 188 186 176 158 135 113 100 100 115 139 161 172 169 149 117 82 57 43 39 44 55 73 95 116 128 130 123 112 102 97 100 111 123 131 130 119 99 77 59 46 41 43 54 76 109 147 177 193 193 176 142 99 
58 38 30 30 39 58 91 132 167 185 184 165 130 90 59 40 31 27 29 34 47 70 105 145 179 200 211 212 205 187 158 123 92 72 65 68 78 92 105 115 121 125 130 139 152 169 185 197 203 203 196 180 157 133 117 115 126 145 163 172 168 149 120 90 67 56 54 59 70 85 99 108 109 103 93 84 80 84 97 116 135 146 144 129 106 81 62 51 49 56 74 102 137 170 193 203 199 177 139 93 
54 35 28 27 35 52 82 122 158 177 177 156 121 82 52 36 28 27 30 39 56 85 123 161 190 206 212 210 199 178 147 112 84 66 59 60 67 77 86 94 98 103 110 123 142 164 184 199 206 207 201 186 165 143 128 125 136 153 169 177 174 159 136 111 92 83 82 89 99 108 113 110 99 85 72 65 66 77 98 125 148 161 160 146 122 96 77 68 70 83 106 137 169 194 208 212 203 178 136 89 
52 34 27 27 34 51 81 121 157 176 176 156 121 82 53 37 30 30 36 49 72 106 145 178 199 209 210 202 186 160 127 96 73 60 57 60 68 77 85 91 94 97 103 116 135 157 177 192 199 199 192 177 157 138 127 128 142 160 176 185 185 176 160 143 130 123 125 131 138 141 136 121 99 78 62 56 60 76 104 136 163 177 177 165 144 121 104 98 104 121 146 173 196 211 219 218 206 178 133 86 
51 35 29 30 40 59 90 129 163 181 181 164 130 92 62 44 37 38 47 66 95 131 166 191 205 208 202 188 164 134 103 78 63 58 61 69 82 94 103 107 108 108 110 118 132 149 165 177 181 179 169 153 135 120 115 123 142 165 183 194 196 192 184 175 168 165 168 172 175 173 161 138 108 80 61 55 62 82 115 150 176 190 192 183 167 149 136 133 142 159 179 199 213 222 224 220 205 174 129 83 
53 39 36 40 53 76 110 147 176 191 191 176 146 110 78 58 50 53 66 90 123 157 184 201 207 202 189 165 135 104 79 63 57 60 71 89 108 124 134 137 136 131 128 128 132 140 148 153 152 146 134 118 104 96 98 113 138 166 187 200 205 204 201 197 195 195 197 200 201 196 181 155 121 89 68 62 72 96 130 164 188 199 201 194 182 169 161 161 170 184 199 212 221 225 224 216 198 166 122 80 
57 49 50 59 77 104 137 169 191 201 201 188 164 132 101 80 72 77 94 120 151 179 197 206 204 191 168 137 104 78 60 53 55 67 89 116 141 159 169 170 166 158 149 140 134 131 128 125 118 108 96 84 75 72 80 100 130 162 187 202 208 209 208 207 207 208 211 213 213 208 194 169 135 103 82 78 89 115 148 177 196 204 203 196 186 176 170 171 179 191 203 212 218 219 215 204 184 152 113 78 
67 66 74 90 113 140 167 189 203 209 208 198 179 153 125 106 99 106 125 151 176 195 205 206 197 176 144 108 78 57 48 47 57 79 110 144 172 189 196 195 189 179 165 149 134 121 110 99 89 78 67 59 54 55 66 87 119 154 181 197 204 206 205 204 205 208 211 214 214 209 197 176 147 119 102 100 113 137 165 186 198 201 197 187 175 164 159 160 168 179 190 197 201 200 193 180 159 131 101 78 
82 92 108 129 152 174 191 204 211 214 211 202 187 166 144 129 125 134 153 174 193 205 208 203 187 157 119 83 58 44 40 45 62 91 130 168 194 207 212 209 202 190 172 152 131 111 95 82 70 60 51 45 43 46 56 77 107 141 168 184 190 190 188 187 188 191 196 200 202 199 190 174 153 134 123 125 139 159 178 191 195 191 180 164 148 136 129 130 138 148 158 164 167 164 156 143 126 106 89 81 
101 122 145 166 184 197 206 212 214 212 208 199 185 168 151 141 141 152 169 187 201 209 208 198 176 140 99 65 45 36 36 45 66 101 145 183 206 216 218 214 205 190 169 146 122 101 85 72 61 52 45 41 39 43 52 70 96 125 148 161 163 160 155 152 152 156 163 169 174 174 170 161 150 142 141 148 161 175 186 189 184 171 151 130 111 98 91 92 97 105 113 118 120 117 111 102 92 84 81 87 
120 147 172 190 202 209 212 212 209 205 197 186 172 157 143 137 141 154 172 190 202 208 206 193 166 127 85 54 38 31 34 44 68 106 152 190 211 219 219 212 200 181 157 131 109 92 79 69 61 54 48 44 42 45 53 68 88 109 125 131 127 119 111 105 105 108 115 124 131 135 137 138 139 143 152 164 176 184 187 180 165 142 116 93 75 64 60 60 63 68 73 77 78 76 73 70 68 70 79 96 
134 163 185 199 206 208 207 203 197 188 177 163 147 132 122 119 125 141 161 181 196 204 202 189 161 120 79 50 35 30 32 43 67 106 153 190 210 217 215 205 187 163 136 111 94 83 77 73 69 64 59 54 52 55 61 73 87 100 106 104 95 83 72 66 64 66 71 78 86 93 100 109 121 137 156 172 183 187 182 166 140 111 84 64 50 43 41 42 45 48 52 54 55 55 54 54 58 66 81 105 
140 165 183 193 197 195 190 183 174 162 147 131 115 102 94 92 100 116 138 163 183 195 197 187 161 122 82 52 36 30 32 42 64 101 147 184 206 212 208 194 170 140 111 90 79 76 79 82 84 83 80 75 73 74 79 87 96 102 100 90 76 61 50 43 40 41 44 48 54 61 70 83 103 128 154 175 185 184 172 147 115 84 61 46 37 34 35 37 41 45 49 51 53 53 54 56 61 71 88 112 
136 154 166 172 172 168 161 153 142 130 116 101 87 76 69 68 73 87 109 136 163 183 191 187 167 133 94 62 42 33 32 40 59 93 136 175 198 205 199 181 151 118 90 73 69 74 85 98 108 112 111 107 104 103 106 112 116 116 108 93 74 57 44 35 31 30 31 33 37 42 51 66 89 120 151 173 183 178 159 128 94 66 47 37 34 35 39 45 52 59 65 69 71 72 72 74 78 86 99 116 
125 131 135 136 133 129 124 118 112 103 93 81 70 60 53 51 54 63 81 107 138 167 185 189 177 151 115 80 55 40 35 39 54 83 123 163 188 197 190 169 137 101 75 63 64 76 95 117 135 144 146 144 140 138 139 142 143 140 129 111 89 68 52 41 34 31 29 29 31 35 43 57 81 114 147 170 178 169 145 111 79 55 42 38 39 46 56 69 81 93 101 107 110 110 110 109 108 109 112 117 
108 103 99 96 93 92 91 92 93 91 86 78 66 56 47 42 41 46 59 82 115 150 178 191 189 173 143 108 76 54 43 41 51 75 111 150 178 190 184 163 130 95 70 60 65 82 108 137 159 172 175 174 170 167 166 167 168 165 156 140 119 97 77 62 51 43 37 34 33 35 42 56 80 113 146 167 172 160 134 100 70 52 44 46 55 70 89 109 127 141 151 156 158 158 155 150 143 135 125 115 
92 79 70 66 64 67 73 82 91 98 98 91 78 63 50 41 36 37 45 63 95 135 171 194 201 193 173 142 106 76 55 47 51 69 101 139 170 185 182 164 133 99 75 66 72 92 123 154 177 189 193 191 186 182 180 181 183 183 180 170 156 138 118 100 83 70 58 50 45 45 50 63 87 118 148 166 169 154 126 94 68 55 53 62 81 106 132 156 174 186 193 196 197 195 191 184 172 155 133 111 
80 62 53 49 50 57 70 87 106 121 126 120 104 83 62 46 36 33 37 52 80 122 165 195 209 209 197 174 141 105 75 58 55 66 93 130 163 182 184 171 144 113 89 80 86 107 137 166 187 197 199 195 189 183 180 181 186 191 193 192 187 177 163 148 130 112 95 80 69 64 67 79 101 129 155 169 168 152 124 94 72 64 69 87 114 146 173 194 207 214 218 219 218 215 210 202 188 166 137 106 
73 55 46 44 48 60 80 106 133 153 161 157 140 114 84 59 42 34 34 45 70 111 158 195 214 219 214 199 172 136 99 73 61 67 88 122 157 180 187 179 159 133 110 99 104 123 150 175 192 199 197 190 179 169 164 166 174 185 195 202 205 203 197 188 175 159 140 121 105 95 94 104 123 145 164 174 170 153 127 99 81 78 89 114 146 177 200 215 223 226 227 226 224 220 215 206 191 167 135 101 
73 57 49 48 56 73 99 132 162 183 192 189 175 148 113 78 53 38 34 41 63 102 151 192 216 225 225 215 195 164 125 90 70 69 85 115 150 176 189 187 173 151 131 120 122 138 160 179 192 194 189 176 159 144 135 137 147 164 183 198 209 214 215 212 205 194 179 161 144 131 127 133 146 162 175 180 175 158 134 109 93 93 107 135 167 194 212 222 226 226 225 221 217 212 206 197 183 161 131 99 
83 69 62 63 73 93 122 155 183 202 211 210 200 178 144 104 70 47 38 40 58 93 142 186 214 227 230 225 210 184 146 106 79 71 81 107 140 169 185 188 180 164 146 135 136 147 164 179 187 186 175 155 132 111 100 100 112 132 157 181 200 212 218 220 217 211 200 187 172 160 155 157 166 177 185 187 180 165 143 120 106 105 119 144 172 195 209 215 216 214 209 203 196 190 184 177 167 150 128 104 
104 93 88 90 99 117 143 171 194 210 218 220 214 199 171 132 92 61 45 42 54 84 130 176 208 225 231 228 218 195 160 118 85 71 76 96 126 156 176 182 178 165 151 140 140 148 162 174 179 174 159 134 106 83 71 69 77 96 122 151 176 195 207 214 215 212 205 195 183 174 169 171 177 185 191 192 186 172 153 131 115 111 120 138 160 178 189 192 190 184 176 166 158 151 148 146 144 140 130 117 
134 129 124 123 127 138 155 174 192 206 216 220 219 210 191 158 117 80 55 46 52 75 115 161 198 219 228 228 219 199 165 123 87 69 69 84 109 137 158 167 165 155 143 133 132 140 152 163 167 161 143 116 88 66 53 49 53 66 86 112 140 164 181 192 197 197 193 186 177 170 168 171 178 186 192 194 190 179 161 140 122 112 112 121 133 144 150 150 145 136 125 115 107 104 106 113 123 133 138 138 
166 165 160 155 150 149 153 162 175 189 201 211 216 214 202 178 142 101 69 52 50 66 98 141 180 206 219 222 215 196 162 120 85 66 62 72 92 115 135 145 144 136 124 116 115 122 134 146 152 147 132 107 81 60 47 41 42 48 60 78 99 121 140 154 162 165 164 160 155 152 153 159 169 180 188 192 191 183 168 148 128 111 101 98 100 102 103 99 93 84 76 68 64 65 73 89 111 134 153 163 
192 192 187 176 162 148 138 136 143 156 173 190 203 209 206 191 162 122 85 60 51 57 80 115 154 185 203 209 203 184 151 112 79 61 57 64 78 97 113 121 120 112 102 95 95 101 113 126 135 136 126 108 86 67 53 45 41 41 46 54 66 81 95 107 116 122 123 122 121 122 127 136 150 165 177 186 188 185 174 156 134 112 93 80 73 68 64 59 54 48 43 40 40 44 56 78 110 144 170 186 
209 209 202 187 164 137 114 101 101 112 131 156 179 196 203 197 176 142 102 70 53 51 64 89 123 155 177 186 183 165 135 101 74 59 55 61 72 86 97 102 100 92 83 77 76 82 94 108 122 130 128 118 103 86 71 60 51 46 44 45 49 55 62 70 77 82 86 87 89 91 98 108 123 141 158 172 181 183 178 165 145 119 94 73 59 49 42 37 33 30 28 27 30 37 53 81 119 158 186 202 
218 216 207 189 158 121 89 70 65 71 88 114 146 175 193 197 185 158 120 83 59 49 53 68 92 120 143 155 154 140 116 90 71 61 60 65 76 86 94 95 89 80 71 65 64 69 80 96 114 129 137 137 129 116 102 88 75 63 54 48 46 46 48 52 56 61 64 67 68 70 75 83 96 112 132 151 167 177 180 174 159 135 107 80 58 44 34 28 25 23 23 25 30 40 60 93 134 173 199 213 
221 218 207 185 149 107 71 50 41 43 55 78 111 148 178 192 190 171 138 100 70 53 49 55 70 89 109 122 124 117 102 86 74 70 72 80 90 99 103 99 90 78 67 60 58 62 73 91 113 134 150 158 158 152 141 127 110 93 78 65 56 52 50 52 55 59 62 63 63 62 62 65 73 85 103 125 148 168 180 183 175 157 130 99 72 51 38 29 25 24 25 29 36 50 74 110 150 184 206 217 
216 213 202 179 141 97 61 40 30 29 37 54 84 124 162 186 193 182 156 120 86 63 52 51 58 70 85 97 103 103 97 91 87 89 96 106 116 123 122 114 100 84 70 62 59 63 75 94 119 144 164 176 182 181 175 164 149 131 112 95 82 74 70 71 73 77 78 77 72 65 59 56 57 64 77 98 126 154 177 189 190 180 159 130 99 72 52 40 34 32 34 40 50 67 93 126 161 188 205 214 
203 201 191 169 134 93 59 38 28 25 29 42 68 107 150 182 195 192 173 143 109 80 62 55 56 63 74 86 95 102 105 107 111 118 128 139 147 151 146 133 115 95 79 69 67 72 85 106 131 156 176 189 196 198 196 189 179 164 148 131 118 110 107 108 111 113 113 107 95 80 64 54 48 50 58 76 104 139 172 193 202 199 187 165 136 106 81 64 54 51 54 61 73 90 112 138 163 181 194 201 
177 179 174 158 130 95 64 43 31 26 28 39 62 101 145 180 198 200 189 166 135 104 80 66 62 65 74 86 100 112 123 132 141 151 161 169 175 174 166 150 128 106 89 80 79 87 103 124 148 170 186 196 201 203 202 197 190 181 171 162 154 151 151 153 157 159 156 147 128 102 76 56 44 41 45 59 85 123 163 193 209 213 208 194 173 147 122 102 89 85 87 94 104 116 129 141 152 161 167 173 
138 146 150 145 129 104 77 55 41 34 34 43 66 104 148 183 203 208 202 186 160 129 101 81 72 73 80 94 111 129 145 158 169 178 186 191 192 188 177 158 135 113 97 91 95 107 125 147 167 182 193 198 199 197 193 189 184 179 176 175 176 180 185 190 194 196 193 182 160 127 90 61 43 36 37 47 70 108 153 190 211 220 220 213 200 183 163 146 134 130 131 135 139 141 139 134 130 127 127 131 
95 110 125 135 134 120 99 76 58 47 45 54 77 115 157 190 208 214 211 199 178 150 119 95 82 80 87 102 123 146 165 179 189 196 200 202 199 191 176 155 131 111 99 99 109 127 148 168 183 193 196 195 190 181 171 163 158 157 161 169 180 192 203 210 215 217 215 205 183 148 104 66 43 33 31 39 58 93 140 182 209 222 225 223 215 204 192 181 173 170 170 170 167 158 141 121 102 89 84 86 
63 82 107 130 143 141 126 103 81 65 60 69 93 130 169 197 212 218 216 206 188 160 128 101 85 82 89 106 130 156 177 192 201 206 207 205 198 185 165 140 117 100 94 100 117 141 165 184 195 200 197 189 174 155 137 123 117 118 128 146 168 189 206 218 225 227 226 217 198 163 115 72 45 31 28 33 49 80 125 170 201 218 224 224 219 212 205 199 195 194 194 192 185 167 138 105 77 60 52 53 
46 67 98 132 156 163 153 132 106 86 78 85 109 145 179 203 216 220 217 207 187 158 125 97 80 76 84 102 129 158 182 198 206 210 208 202 190 171 145 118 96 84 83 95 119 148 175 193 203 203 196 180 155 126 100 83 76 78 90 112 143 174 200 217 226 230 229 222 205 172 125 78 47 32 27 30 43 68 107 151 186 205 214 215 211 206 202 200 200 203 205 202 192 170 134 94 62 42 35 36 
41 64 100 139 168 179 173 153 125 101 90 97 120 154 185 206 217 219 214 202 178 145 110 83 69 65 73 91 119 151 179 197 206 209 206 196 178 152 122 95 76 68 71 86 113 147 176 196 205 204 194 172 138 102 73 55 48 49 59 80 112 150 184 207 221 228 229 223 208 178 134 87 53 36 29 30 40 59 90 127 160 181 190 192 189 185 183 185 191 199 204 204 195 171 132 89 55 36 28 30 
46 73 111 151 179 190 183 161 131 105 93 98 120 153 184 204 214 216 209 191 162 125 90 66 54 52 60 77 105 139 170 192 203 205 200 187 164 134 102 77 61 56 61 76 104 138 170 192 203 202 190 165 128 89 59 42 34 34 41 57 84 121 159 190 210 220 223 220 208 182 143 100 65 45 37 36 41 54 75 101 126 143 151 151 148 145 146 154 168 184 196 201 194 173 136 92 58 38 30 33 
63 92 130 166 188 193 182 156 124 96 84 88 109 142 175 198 209 210 200 178 143 103 71 51 42 41 48 64 90 125 158 183 195 198 191 175 150 119 89 67 55 51 56 69 93 125 157 181 193 195 184 160 125 87 58 41 32 30 34 44 64 93 130 164 189 204 211 211 203 185 155 118 86 65 54 50 51 57 67 80 93 101 104 102 98 97 101 114 136 162 183 195 194 177 145 104 70 49 42 46 
92 122 155 182 194 192 173 141 106 79 67 71 91 123 159 187 201 203 191 165 126 86 57 41 34 35 42 56 80 112 145 170 183 185 177 161 137 110 86 69 59 56 59 68 85 110 137 161 176 181 175 157 128 96 69 51 41 36 36 40 52 72 99 129 156 176 189 195 194 185 167 142 117 98 85 77 73 70 69 69 70 69 66 62 59 58 64 78 104 137 168 188 193 182 157 123 92 72 66 73 
