P2
100 100
255
146 177 203 218 221 209 177 129 80 48 35 38 59 98 149 191 213 219 210 184 139 87 48 28 20 21 27 41 64 98 133 160 174 175 167 150 128 104 83 70 62 59 59 61 68 82 101 121 138 149 152 146 130 107 85 66 52 41 33 29 31 38 52 73 100 129 158 182 199 208 207 197 180 159 136 113 90 69 52 40 32 27 25 24 25 30 40 60 93 134 172 196 204 197 176 145 117 101 102 118 
184 205 219 226 221 203 164 111 65 38 27 30 47 83 134 180 207 215 208 184 143 94 57 37 29 29 35 46 63 84 107 124 132 131 124 112 101 92 89 90 91 91 87 81 75 73 77 85 97 110 123 132 136 132 122 108 91 73 55 42 33 31 34 44 60 82 111 144 175 197 209 211 206 196 181 161 135 105 75 50 34 24 18 16 15 18 26 42 70 111 152 181 194 192 179 161 144 138 145 162 
209 221 229 229 219 193 148 93 52 29 21 24 40 73 124 173 203 214 210 191 157 115 79 58 50 50 55 63 73 82 89 92 92 88 82 79 80 88 103 120 132 136 129 114 93 74 63 60 65 77 96 120 144 159 164 158 143 120 92 65 44 32 27 28 35 49 72 105 145 181 205 217 221 219 212 199 177 145 106 69 43 27 19 15 14 17 24 38 63 98 136 164 177 178 171 162 158 162 175 192 
221 230 233 229 215 183 131 78 41 23 18 22 38 71 121 170 202 215 213 200 176 145 116 97 90 90 94 97 98 93 83 73 63 56 53 56 67 89 121 152 173 180 172 151 119 84 58 46 44 54 75 109 149 180 196 198 189 169 136 97 62 39 26 21 22 30 46 76 119 165 199 218 227 230 228 220 205 178 138 95 60 38 26 21 21 25 33 48 70 98 126 145 153 152 147 146 152 167 188 207 
224 232 234 228 209 171 116 65 34 20 17 23 41 75 125 173 203 216 216 209 194 175 157 146 142 143 145 144 134 114 89 65 48 39 36 42 59 92 136 177 202 210 204 182 145 99 61 40 33 40 61 100 149 190 214 222 219 204 174 130 83 49 29 20 18 21 33 59 101 152 193 217 228 233 234 230 219 199 165 123 84 57 43 38 40 47 58 74 93 111 124 128 124 117 112 115 129 154 184 208 
221 231 233 225 202 160 104 57 31 20 20 29 50 87 135 178 204 215 216 211 203 194 188 185 186 189 190 185 170 141 102 66 42 30 27 34 54 92 145 191 217 226 222 204 167 116 68 39 28 32 51 92 146 194 221 233 233 223 199 156 103 59 34 21 17 20 30 54 96 147 189 214 227 232 232 230 222 207 181 147 113 88 75 72 77 88 102 117 130 135 130 116 97 82 75 79 97 129 168 201 
215 228 230 220 195 149 94 52 30 23 27 40 66 105 149 183 202 208 207 203 200 198 200 205 211 215 217 212 196 163 117 71 41 26 22 29 49 90 147 196 223 233 231 216 184 132 78 43 27 28 46 85 141 192 222 236 238 231 209 169 115 67 39 25 21 24 36 61 102 150 188 211 221 224 224 220 213 202 185 163 141 126 120 122 131 144 157 167 170 162 140 108 78 57 48 50 66 99 144 187 
205 222 225 214 186 138 86 50 33 31 39 59 90 128 162 185 193 191 185 180 179 184 195 207 218 226 229 225 211 180 132 80 43 25 20 25 45 86 144 195 224 236 236 224 196 148 91 50 30 28 44 81 137 189 220 234 237 230 209 171 118 72 44 32 30 37 53 81 120 160 190 205 210 208 203 197 190 182 173 165 160 160 164 172 182 193 201 205 200 182 148 103 65 41 31 32 44 74 120 169 
194 215 219 207 175 128 81 51 41 45 61 88 121 152 172 179 172 159 146 138 139 151 171 194 213 226 232 231 219 193 146 92 50 27 20 24 43 82 140 192 222 235 237 228 205 162 107 62 38 33 47 82 136 185 216 229 231 222 199 160 112 71 49 42 47 60 83 113 146 175 191 195 190 179 166 155 147 143 145 152 164 179 193 205 215 222 226 226 217 194 152 99 57 32 22 21 31 56 99 152 
183 207 211 196 163 117 77 56 54 68 93 125 154 172 176 165 142 117 97 88 90 106 133 166 197 218 229 231 224 202 162 108 62 35 24 26 43 80 135 187 219 233 236 230 212 176 126 80 52 45 57 90 138 182 209 219 217 204 177 139 98 68 56 59 73 96 124 152 175 189 191 181 161 138 117 102 95 96 106 126 154 182 205 221 230 236 237 235 224 198 151 94 50 27 17 16 24 45 84 138 
174 198 200 182 147 106 76 65 74 98 131 162 182 187 174 146 109 77 57 48 50 64 91 129 170 202 221 228 225 210 178 131 83 51 36 35 49 82 132 180 212 228 232 228 215 187 146 104 75 66 77 106 145 180 199 203 194 174 144 109 80 64 65 81 108 139 167 187 199 200 189 164 130 97 72 58 54 57 70 96 134 174 206 225 236 241 242 238 225 196 145 87 45 23 14 14 21 40 77 128 
168 189 187 165 129 94 75 76 97 132 167 192 202 195 169 126 82 50 32 25 27 37 58 92 136 177 206 221 224 215 193 157 115 80 59 53 63 89 130 171 201 217 223 221 212 193 163 130 106 98 107 129 156 176 184 178 160 134 104 79 63 61 75 105 142 176 199 211 214 207 186 151 107 69 45 34 31 34 47 72 111 158 197 222 235 240 241 236 221 189 135 78 39 20 13 14 21 40 76 125 
165 180 171 144 109 82 73 86 119 160 193 211 213 198 163 111 64 34 20 14 15 22 37 63 102 147 184 207 218 217 205 183 152 120 97 86 87 102 128 157 181 195 203 204 199 188 172 153 139 134 140 153 166 171 165 147 121 94 70 55 50 59 84 124 167 199 217 224 222 210 186 145 97 59 36 25 22 25 35 55 90 136 180 211 228 236 237 231 214 178 122 69 35 19 13 15 25 46 82 128 
167 172 155 123 90 70 71 93 134 178 208 221 219 200 159 103 55 27 15 11 12 16 26 44 74 113 154 185 205 213 211 201 184 163 143 128 119 118 125 136 149 159 166 170 171 171 168 164 163 164 169 173 173 164 145 117 88 64 48 41 43 59 90 135 179 208 223 228 224 212 188 149 102 64 40 29 24 25 31 44 71 110 154 190 213 225 228 222 202 163 109 60 31 18 15 20 33 57 96 138 
172 167 140 104 73 59 66 94 140 186 215 226 222 201 159 102 55 28 16 12 13 17 23 35 54 83 119 154 181 200 209 210 206 196 182 167 149 132 118 110 108 110 115 121 129 139 151 163 173 181 185 184 175 156 127 95 68 49 39 36 42 59 91 135 177 205 219 224 221 211 192 160 121 85 60 45 37 33 33 40 56 84 120 157 186 204 211 207 187 148 98 56 31 21 21 29 47 78 117 153 
179 163 128 88 60 49 58 88 136 183 213 225 222 203 164 110 63 36 23 20 21 23 27 33 44 61 86 116 147 175 196 209 214 213 207 193 171 141 109 86 72 67 68 74 85 102 126 151 173 186 191 186 172 146 115 84 61 47 41 40 47 62 88 125 161 188 203 209 210 205 194 174 148 121 97 78 64 52 43 41 47 61 86 116 146 170 184 185 170 137 94 59 38 31 34 48 73 108 146 172 
187 161 119 76 49 41 49 77 122 170 204 220 220 205 173 127 83 55 42 38 39 40 41 41 43 49 61 81 108 140 172 197 213 220 218 206 181 143 100 67 48 39 38 42 53 73 102 136 165 183 187 180 162 136 108 83 67 59 56 56 60 70 86 109 134 155 170 179 186 190 191 186 176 162 145 126 105 82 61 48 42 46 58 77 102 128 150 160 155 133 101 73 57 53 60 80 110 145 175 190 
193 162 114 69 42 33 39 61 100 146 184 206 212 204 182 150 115 91 79 75 75 74 69 60 51 45 46 54 73 102 140 177 204 218 221 210 184 140 91 54 34 25 23 27 37 57 88 125 156 174 177 167 148 125 105 92 86 85 87 87 87 86 88 93 102 112 122 134 147 164 179 191 196 195 188 174 151 119 85 58 42 37 40 50 67 92 118 140 148 140 122 103 92 91 103 125 153 180 199 205 
199 164 113 66 38 28 31 45 74 112 151 180 195 198 189 172 153 138 131 130 129 125 112 91 68 49 39 38 48 70 106 151 189 211 218 209 182 134 83 46 27 19 18 23 34 55 86 122 151 165 162 148 129 112 104 106 114 125 131 132 125 112 97 83 74 72 76 85 103 130 161 188 206 214 214 206 186 151 107 68 44 32 30 34 47 69 99 130 151 158 153 144 139 141 152 170 190 206 216 214 
204 169 117 68 38 25 24 32 50 77 110 142 167 183 189 188 184 181 181 182 183 177 159 129 91 58 38 30 33 48 80 126 173 203 213 206 177 128 76 42 24 18 19 26 41 66 99 132 153 157 146 126 107 98 103 120 143 164 175 177 166 144 112 81 59 47 44 50 67 98 141 182 209 224 228 223 205 170 121 74 44 30 25 27 38 60 95 134 164 179 183 182 180 183 190 202 213 222 225 221 
210 177 127 76 41 25 20 23 32 48 72 100 131 160 182 195 203 208 212 216 217 211 193 159 112 68 40 27 25 36 64 109 160 195 209 201 172 122 72 40 25 21 26 39 61 92 126 152 163 155 132 105 87 83 97 128 163 191 206 208 197 171 131 87 53 35 28 31 46 77 125 175 209 227 233 229 211 175 123 74 43 27 23 26 38 63 102 145 179 197 204 205 205 206 211 217 224 229 230 225 
215 188 142 90 51 29 20 18 21 30 44 66 97 134 169 195 211 221 227 232 232 227 210 176 124 74 41 26 23 32 58 103 155 191 206 198 168 119 71 41 29 29 41 63 95 130 161 177 176 157 123 89 69 68 88 127 171 204 221 225 216 192 149 96 54 31 21 23 36 66 116 170 208 227 233 227 207 167 114 67 38 25 23 28 43 73 116 160 192 208 213 213 212 213 215 220 226 230 231 228 
221 200 162 112 67 38 23 17 17 20 29 45 74 114 158 192 213 226 233 237 237 231 213 178 125 75 42 27 25 36 64 109 159 193 206 197 166 118 72 45 36 43 64 98 137 171 193 200 190 161 117 77 56 55 75 117 167 206 226 232 226 205 164 108 60 32 21 21 33 63 113 169 208 226 229 220 194 150 97 56 33 24 24 33 54 88 133 173 198 209 210 207 203 202 205 211 218 225 229 229 
224 211 182 139 91 55 32 21 17 18 24 38 64 106 153 190 214 226 233 235 234 225 205 167 116 70 42 31 33 48 81 127 172 201 209 198 166 118 75 51 48 63 96 138 177 204 217 217 201 165 114 70 46 43 61 101 154 199 224 234 231 213 176 121 69 37 23 23 35 65 115 170 207 223 223 207 174 126 78 45 29 24 29 43 69 108 150 181 197 199 192 182 174 171 175 185 198 212 222 227 
224 218 200 167 123 81 50 33 25 24 29 43 70 112 157 192 213 224 228 227 222 208 183 143 98 62 43 39 48 72 110 154 190 210 214 200 166 118 78 58 61 86 128 173 206 225 231 227 208 168 113 65 39 34 47 82 135 186 218 232 232 218 186 134 79 43 28 26 39 70 120 171 205 217 212 190 149 100 59 36 27 28 38 59 91 130 163 182 185 175 157 139 125 120 125 140 162 186 206 219 
218 221 213 191 156 115 79 56 44 41 47 64 93 132 170 198 212 218 217 210 197 177 147 110 77 54 47 53 73 106 146 183 208 220 217 199 163 116 78 63 72 105 153 196 223 236 239 232 212 171 112 61 34 26 36 64 113 168 208 227 231 221 194 145 90 51 33 31 44 75 123 171 200 209 198 168 123 78 47 32 30 38 55 83 119 152 173 177 164 139 111 88 73 68 73 88 114 147 180 204 
205 217 218 207 183 151 117 91 77 75 83 102 130 161 187 204 209 206 196 179 157 131 102 76 57 50 56 75 108 146 182 208 222 226 218 196 156 108 74 63 77 115 166 207 230 241 242 235 214 172 111 59 30 21 27 49 92 149 195 221 229 222 198 154 100 59 39 36 49 78 122 166 192 197 181 146 102 65 43 36 41 57 83 117 150 173 179 166 137 101 70 49 37 34 37 48 70 103 143 180 
183 205 214 211 198 177 153 133 122 123 133 150 171 190 203 208 202 187 163 135 107 83 63 49 44 50 70 104 145 182 209 225 231 229 215 187 142 95 65 58 74 114 166 208 231 241 242 235 214 172 111 58 29 18 21 38 75 130 182 213 225 221 201 160 107 65 44 40 51 78 117 157 180 183 165 131 92 63 50 51 65 90 122 155 179 189 182 155 114 73 43 27 18 16 18 25 40 66 104 147 
151 181 198 203 199 188 175 165 162 167 177 190 203 211 214 208 190 161 124 90 64 47 37 33 38 55 88 134 177 208 226 234 235 227 208 171 122 78 53 48 64 102 154 199 226 238 240 234 213 172 111 59 29 17 18 32 65 118 172 207 221 219 199 160 109 68 47 42 51 73 108 143 166 169 154 126 96 77 72 81 103 133 163 188 201 202 185 148 99 56 30 16 10 8 10 14 24 42 71 110 
115 147 169 180 181 178 175 176 182 192 203 214 221 223 219 204 175 133 89 57 37 26 22 25 37 64 108 159 200 224 235 238 234 221 194 150 99 60 40 37 51 83 132 180 213 230 235 230 210 170 113 61 31 19 19 33 64 114 167 203 217 215 195 156 106 67 46 41 48 67 96 129 152 160 152 134 116 106 109 125 148 174 196 211 216 210 188 147 95 52 26 14 8 7 8 11 17 29 49 79 
85 111 130 142 146 149 154 164 179 196 211 222 227 227 218 196 157 107 64 36 22 16 16 23 40 75 127 179 214 232 238 238 229 209 173 123 76 45 30 28 38 62 103 151 190 214 224 221 204 168 116 68 38 26 28 42 74 122 171 202 214 210 187 146 98 62 43 38 44 60 86 117 144 158 159 153 146 145 153 168 187 204 217 224 224 215 193 153 102 58 31 18 12 10 10 13 17 25 39 59 
69 84 95 100 103 107 116 132 155 180 202 217 224 223 212 185 139 88 48 26 15 12 14 24 47 88 144 193 222 235 238 233 218 189 145 95 55 32 22 21 28 45 74 115 157 187 203 206 193 163 120 79 53 43 47 64 98 142 181 205 212 203 175 132 86 55 39 35 40 55 79 111 142 163 172 175 176 180 188 199 210 220 226 228 226 218 199 165 119 76 47 32 24 21 20 22 25 31 40 53 
71 75 75 72 69 70 76 92 116 147 176 198 210 211 198 169 123 75 41 22 14 13 17 30 58 105 160 202 226 234 233 222 199 161 113 69 40 24 18 17 22 32 52 82 117 150 171 180 174 154 125 97 79 74 82 103 134 169 196 210 210 195 161 116 74 47 35 33 39 53 78 112 146 172 186 194 198 203 208 214 220 223 226 226 223 217 203 179 144 108 79 61 51 46 44 45 47 52 58 65 
93 86 75 62 52 47 49 58 77 104 135 162 180 186 176 149 109 69 41 25 19 19 26 43 76 125 175 209 225 229 222 203 171 127 82 48 29 19 16 17 20 27 40 59 83 109 131 144 147 141 130 119 115 118 131 150 174 196 210 215 207 185 146 99 62 41 32 32 40 56 83 120 155 181 197 205 210 213 215 216 216 215 214 213 211 208 202 190 171 148 126 109 98 92 89 89 90 93 95 96 
132 116 94 71 52 40 36 38 49 66 90 116 137 148 146 129 101 72 50 38 33 35 45 68 104 149 189 212 221 217 201 173 133 90 56 34 23 19 19 21 25 31 38 49 63 79 94 107 116 124 131 139 150 162 176 191 204 215 220 217 203 174 131 86 54 37 32 35 46 65 95 131 165 189 202 209 210 210 207 203 197 191 187 184 184 187 191 192 189 182 173 164 157 152 149 148 147 148 146 142 
173 154 127 96 67 47 35 31 33 42 56 74 92 107 115 113 102 88 74 66 63 68 82 106 140 174 199 211 210 196 169 133 93 60 38 26 22 23 27 33 40 46 51 55 60 64 70 78 89 105 126 150 173 191 205 215 222 225 224 215 196 161 117 76 50 39 38 44 58 81 112 145 172 190 199 201 198 192 183 171 159 147 139 136 140 151 167 184 197 203 205 204 202 200 197 196 195 193 190 185 
202 187 163 131 97 67 46 33 29 30 36 46 60 76 93 107 115 117 115 112 113 119 133 153 175 194 205 203 190 164 129 92 60 39 28 25 28 36 47 60 71 80 83 80 74 67 62 63 70 87 114 148 180 203 217 225 228 227 221 208 184 147 106 72 54 48 52 64 81 105 132 156 174 182 184 179 170 157 141 123 107 93 84 82 89 105 132 164 192 211 221 225 226 225 223 221 219 217 215 211 
216 208 192 167 135 100 69 47 34 28 28 33 43 60 84 112 137 154 162 166 168 173 181 191 201 206 202 188 161 125 88 58 39 28 26 31 42 60 83 105 122 132 132 123 105 85 67 58 59 72 99 136 172 200 216 223 224 220 210 192 165 130 97 75 66 69 79 96 115 135 151 162 166 163 155 143 127 110 92 76 61 51 44 43 50 67 97 139 179 208 224 232 234 233 231 228 226 223 222 220 
217 216 209 196 172 140 105 74 50 36 29 29 37 54 84 123 160 186 199 205 208 210 212 215 214 208 192 164 126 88 57 37 27 25 31 45 69 99 132 158 176 184 182 168 144 112 81 61 53 60 82 115 152 182 200 207 207 199 185 164 138 112 93 85 89 102 119 137 153 163 166 161 149 133 116 99 84 69 55 44 34 27 23 23 28 42 70 113 161 198 220 230 232 230 226 221 216 214 213 215 
204 213 216 213 201 179 148 112 79 54 38 33 38 55 89 136 178 206 220 226 228 228 227 224 217 201 175 136 94 60 38 27 25 30 45 71 107 146 179 201 214 218 215 202 177 140 100 69 54 54 68 93 124 152 169 175 172 161 145 125 106 94 92 102 120 142 162 177 185 184 173 152 126 101 80 64 52 43 35 28 22 18 15 15 19 30 53 92 140 182 207 218 219 214 206 196 188 185 187 195 
178 199 214 220 218 207 186 155 118 83 57 44 45 61 96 145 189 216 230 235 236 235 231 224 210 187 152 109 71 45 31 27 31 45 70 107 149 185 211 226 233 235 231 219 197 161 118 81 60 54 61 77 98 117 128 129 123 111 97 84 77 79 95 121 152 178 195 205 205 195 172 139 102 73 54 43 36 31 27 23 20 17 16 16 19 28 46 78 119 158 183 192 190 180 165 150 139 135 141 157 
141 176 204 220 226 224 213 191 159 120 85 62 56 68 101 147 190 217 231 235 235 232 225 214 195 166 127 88 58 40 34 36 48 71 106 147 185 212 228 237 240 240 235 225 205 173 133 96 73 64 66 74 84 91 92 87 77 67 58 53 56 70 100 140 177 202 216 220 215 198 166 123 83 55 40 33 30 30 29 29 27 26 24 24 27 34 48 72 102 131 148 152 144 128 110 93 82 80 88 109 
104 149 189 216 229 232 228 215 191 156 116 84 68 73 99 140 180 207 221 226 225 219 209 193 170 140 106 76 57 48 49 59 80 110 147 183 210 227 236 240 240 237 231 220 202 175 143 113 95 87 87 89 89 83 73 61 49 40 35 36 44 67 106 154 194 217 227 227 218 196 157 108 68 44 34 32 34 39 43 46 47 47 46 45 47 53 63 77 94 107 111 106 93 77 61 49 42 41 49 69 
75 123 172 208 227 235 235 228 211 183 143 104 79 75 91 122 156 183 198 202 200 191 178 159 137 114 92 77 70 71 81 98 124 154 184 207 224 233 236 236 233 227 218 204 187 166 146 130 123 122 123 121 112 95 73 52 37 28 24 27 39 66 112 165 204 225 232 230 218 190 146 95 58 39 34 38 48 61 73 82 86 88 87 86 86 89 92 96 97 93 84 71 56 43 33 25 21 21 27 44 
58 102 154 197 222 233 236 233 221 197 160 117 84 71 76 95 120 142 155 159 155 145 131 117 104 94 89 91 97 109 126 146 168 190 208 221 228 231 230 225 216 204 189 173 157 146 141 144 152 161 165 163 149 123 89 57 36 24 20 23 37 67 117 172 210 228 234 230 214 183 134 85 53 39 41 53 73 97 118 133 141 144 143 141 140 138 134 127 113 93 71 52 37 27 19 15 13 14 19 32 
49 87 136 182 211 227 232 230 221 199 164 120 83 64 60 67 80 94 102 104 100 92 84 79 79 86 99 117 135 153 170 186 199 210 218 223 223 220 212 200 184 164 144 127 116 116 129 151 174 191 200 198 185 156 114 71 41 25 19 22 36 69 122 177 213 230 234 227 209 173 122 77 50 44 53 76 108 141 166 182 190 192 191 189 186 182 174 160 135 103 71 47 31 21 16 13 13 14 18 28 
47 76 117 160 192 211 219 220 211 191 157 114 77 56 47 47 51 56 60 60 57 54 53 57 70 91 119 148 171 188 200 208 213 216 216 213 206 196 180 159 136 112 92 79 76 87 114 152 187 210 221 222 211 185 141 90 50 28 20 23 38 72 126 180 215 230 232 223 201 161 111 70 51 52 70 104 144 178 200 212 217 218 218 216 213 209 201 185 158 121 82 53 34 25 20 19 19 20 24 32 
52 70 98 132 161 182 193 196 190 172 141 103 71 50 40 36 35 36 36 35 34 35 40 52 74 107 144 175 196 208 213 214 212 206 199 188 174 156 133 109 86 66 52 45 48 65 101 149 192 219 232 235 227 205 164 109 62 34 23 25 41 77 132 184 215 228 228 216 189 146 99 66 55 64 92 132 172 201 218 225 227 227 226 224 223 220 213 200 177 142 103 70 49 39 34 34 35 36 39 43 
65 69 81 100 121 139 152 158 157 145 123 95 69 51 40 33 30 28 26 25 26 30 40 59 91 131 168 195 209 214 212 205 193 180 164 147 128 108 87 68 51 38 30 28 34 52 90 144 193 223 237 241 235 218 181 126 73 40 27 29 47 85 140 188 215 225 222 206 174 130 89 65 62 80 115 157 191 212 222 225 224 222 220 219 219 218 215 207 191 164 132 101 80 69 65 65 67 68 67 65 
86 75 70 73 81 92 104 114 121 121 112 96 79 63 50 41 34 29 27 26 28 36 52 79 116 156 188 206 212 208 196 179 158 137 117 99 84 70 57 45 35 27 22 21 27 45 82 136 189 222 238 243 239 223 190 136 82 47 33 36 58 98 150 192 214 220 212 190 154 112 80 66 74 100 138 175 201 214 217 213 208 202 199 199 202 205 208 206 198 183 163 141 125 117 115 117 119 118 112 101 
113 85 64 55 53 58 68 81 96 109 115 113 104 90 76 63 51 42 37 36 40 52 75 108 147 180 201 209 205 190 167 139 112 90 73 63 55 50 45 40 34 28 23 22 26 41 73 124 178 215 234 240 237 222 191 141 88 54 42 49 74 117 163 197 212 211 196 168 131 95 74 72 90 122 159 189 204 208 202 190 176 165 159 161 168 179 189 197 199 195 187 178 171 168 169 172 174 172 161 141 
136 95 63 45 38 40 49 66 90 116 135 144 143 134 119 101 83 68 59 56 63 80 108 143 175 198 208 206 190 163 128 95 70 54 46 44 45 49 52 51 47 40 33 28 28 38 64 107 159 199 222 231 228 214 183 137 91 63 56 69 99 140 178 200 206 197 174 140 105 80 72 83 111 147 178 198 204 196 178 154 130 114 107 111 122 140 160 178 191 198 201 201 202 203 206 210 211 208 197 173 
150 101 62 40 32 34 45 68 101 137 165 180 184 179 167 149 127 107 92 88 96 116 145 174 197 209 210 198 170 131 91 60 42 34 34 39 51 65 77 82 78 67 53 41 35 38 54 87 131 171 198 209 208 193 163 124 90 72 75 95 129 164 190 201 196 177 145 110 82 69 74 98 134 170 194 205 201 182 151 115 86 69 63 67 79 98 123 150 174 192 203 211 216 221 225 228 230 227 216 191 
153 100 59 37 30 34 51 82 124 165 193 208 213 211 202 188 168 146 128 121 129 148 173 195 210 215 208 188 150 104 64 39 28 26 32 46 69 97 119 131 127 111 88 65 48 41 47 66 97 131 157 171 170 156 132 105 86 83 97 126 158 185 199 197 180 150 113 82 64 63 80 115 157 189 207 210 198 169 127 85 57 42 37 41 50 66 89 118 148 174 194 209 219 227 232 235 236 233 222 197 
147 94 55 35 31 40 63 104 151 190 214 226 229 228 221 209 191 169 149 141 147 165 187 205 215 216 206 179 136 86 50 30 23 25 37 60 97 136 166 180 178 161 132 98 68 50 44 51 67 88 107 119 119 110 95 83 80 92 119 153 182 199 201 187 158 119 83 59 51 60 88 132 175 204 217 215 197 161 113 70 43 30 27 29 36 47 64 87 115 145 173 196 213 225 232 236 237 234 221 194 
134 83 49 34 33 47 79 127 175 209 227 235 237 234 226 213 193 168 147 137 143 162 185 204 215 216 204 176 131 81 45 27 23 28 45 78 125 171 201 214 213 199 173 135 96 65 48 44 48 57 67 73 73 69 64 64 75 101 138 173 196 204 196 170 131 90 60 44 43 59 95 145 189 215 223 218 198 159 108 65 39 28 25 26 30 37 47 62 83 110 141 172 198 216 228 234 235 230 215 183 
117 70 42 31 35 55 94 147 193 221 234 239 238 232 221 202 175 145 122 112 119 141 170 195 211 214 205 180 136 87 50 31 26 33 53 93 145 192 219 231 231 221 201 168 127 88 61 47 42 43 45 46 46 45 46 53 74 108 150 185 202 202 184 148 104 66 43 34 38 59 100 152 196 220 227 220 199 160 109 67 42 31 28 28 29 32 37 44 57 76 104 139 175 202 220 229 230 224 205 168 
98 57 35 29 36 60 104 160 203 227 237 239 234 223 204 175 140 107 84 76 85 109 145 180 204 213 209 189 151 103 63 40 32 38 59 101 154 199 225 235 236 230 216 191 156 117 85 63 50 44 40 37 35 34 38 49 75 115 158 190 202 194 167 123 79 47 31 27 35 57 99 152 196 219 225 218 197 160 112 73 49 38 34 32 31 31 31 33 38 50 72 106 148 185 210 223 225 216 192 149 
80 46 29 26 35 62 108 165 207 229 236 235 225 206 175 136 97 67 50 46 54 79 119 164 196 212 214 200 171 126 83 53 40 43 61 99 150 193 220 231 234 231 222 205 180 149 118 93 74 61 51 43 37 34 38 52 80 122 164 191 197 183 148 101 60 35 24 23 32 53 93 143 186 210 217 209 189 154 114 80 59 48 43 39 35 31 28 26 28 34 50 81 125 170 201 217 219 207 177 129 
65 36 24 23 33 59 106 163 205 226 232 226 210 179 137 94 59 38 28 26 35 58 99 150 191 213 219 212 190 152 106 69 49 46 59 89 133 175 203 218 224 224 220 211 197 177 155 133 113 95 78 63 51 45 47 62 91 132 170 191 192 172 131 84 48 28 20 21 29 48 82 126 166 189 196 189 170 141 110 86 71 63 57 50 42 34 28 23 22 26 40 68 113 161 196 213 214 198 162 111 
54 30 20 20 30 54 99 155 198 220 224 214 188 147 99 59 34 21 15 16 25 48 89 144 189 215 225 222 206 174 128 84 57 47 52 73 106 143 173 193 205 210 211 209 204 196 186 173 158 140 119 97 78 66 66 79 108 146 177 193 189 165 123 77 44 27 21 22 29 45 70 103 135 155 160 154 138 119 103 92 88 85 79 69 55 42 32 25 22 26 40 69 115 163 197 212 210 190 149 97 
47 25 17 17 26 48 89 144 189 212 215 199 164 114 68 37 20 12 10 12 23 46 90 146 192 218 229 228 215 187 142 95 62 46 45 56 77 105 133 156 173 186 195 201 205 206 205 201 193 181 162 138 114 96 92 105 131 162 187 197 191 168 128 84 52 34 28 29 35 46 63 83 102 113 115 109 101 95 94 100 109 114 110 97 78 58 42 32 30 35 52 85 130 175 203 215 210 186 140 86 
42 22 15 15 23 43 81 134 180 203 204 184 142 90 49 24 13 8 8 13 26 53 99 156 199 222 231 230 218 191 146 97 62 44 39 43 55 72 93 115 136 156 173 188 199 208 213 215 213 206 192 170 146 127 121 131 153 178 197 204 198 179 145 106 74 55 47 47 51 57 65 72 77 78 75 71 70 75 89 111 133 147 148 135 112 86 65 51 48 57 79 114 157 192 213 220 211 183 134 80 
39 21 14 14 22 41 77 129 174 197 197 173 127 76 39 19 10 8 10 18 35 67 117 170 207 226 232 228 214 184 139 91 58 41 35 36 43 55 70 87 108 130 153 173 191 204 213 218 219 214 203 185 163 145 139 149 169 190 205 211 208 194 171 141 113 95 86 83 84 84 82 76 67 58 51 48 51 65 91 125 157 177 181 172 152 125 101 86 83 95 119 153 186 210 223 224 213 181 130 76 
38 21 15 15 24 44 82 132 175 197 195 170 124 74 38 20 12 11 16 27 51 91 142 187 215 227 229 221 201 166 121 79 51 38 35 37 44 54 67 82 100 120 142 163 181 196 206 211 212 208 196 178 158 143 141 154 175 196 211 218 217 210 196 178 160 147 139 135 132 126 113 94 73 54 43 39 45 65 99 141 177 198 205 200 185 165 145 132 130 142 164 188 210 224 230 228 213 179 126 72 
37 22 17 20 32 56 96 145 183 202 199 176 132 83 46 26 18 19 27 46 77 122 168 202 221 226 221 206 178 138 96 63 44 37 39 47 59 73 87 101 114 129 144 159 172 182 189 193 191 184 170 152 133 123 126 143 170 196 213 222 224 222 216 207 198 191 187 184 180 170 151 123 90 63 47 42 51 75 115 159 193 212 218 216 207 193 179 171 172 181 196 212 224 232 234 228 211 174 121 69 
38 26 25 31 48 78 121 166 197 211 208 188 150 102 63 40 32 35 49 75 113 156 192 214 223 220 207 181 144 104 69 48 39 40 50 68 89 110 126 138 147 153 157 160 162 162 162 160 154 143 128 111 97 91 99 122 155 187 210 223 228 229 227 223 220 217 216 214 211 201 183 153 117 84 63 58 69 97 137 176 204 219 224 222 215 205 196 191 193 201 211 222 229 233 232 224 203 164 112 66 
42 35 39 53 77 113 154 189 211 220 218 202 171 129 89 64 55 62 82 115 153 187 210 221 221 209 185 148 106 71 48 37 37 47 69 99 131 156 172 180 182 179 172 162 149 137 126 117 107 96 83 71 62 61 72 96 132 171 200 218 226 229 230 229 228 227 227 226 224 217 202 177 145 113 92 88 100 128 162 192 212 221 222 218 210 200 193 189 192 200 209 218 224 226 223 211 187 148 101 63 
51 52 65 88 119 154 187 210 223 228 225 214 190 156 120 95 88 99 124 156 187 209 221 224 215 193 156 111 72 46 33 30 37 57 92 134 171 195 207 210 207 199 183 160 133 109 91 78 68 59 50 43 40 41 50 72 106 147 182 205 217 222 223 223 223 224 224 224 223 218 207 190 166 143 128 126 139 161 185 204 214 216 211 202 189 177 167 164 168 177 188 197 204 205 200 185 160 124 87 62 
65 78 102 132 164 191 211 224 231 233 229 219 201 174 144 124 120 135 160 188 209 222 227 222 206 173 127 80 47 30 24 26 40 68 113 163 199 219 227 227 221 208 185 152 115 84 64 51 43 37 33 29 28 30 37 53 81 117 153 179 194 201 204 204 204 204 205 206 206 203 197 188 175 165 159 162 173 188 201 208 209 202 188 170 151 134 123 119 123 132 145 156 163 165 159 145 122 97 75 63 
83 110 142 173 198 215 226 232 234 233 228 218 201 177 152 137 138 155 181 204 220 228 228 219 196 155 102 58 32 21 18 25 42 77 130 181 214 230 236 234 226 209 179 138 96 65 47 37 32 28 26 24 24 26 31 42 61 88 117 141 156 163 164 163 162 163 164 166 168 169 168 168 169 172 178 186 196 204 207 205 194 175 151 125 102 85 75 72 75 83 93 103 110 112 108 99 86 73 66 69 
103 138 172 199 217 227 232 233 232 228 220 206 186 161 139 128 134 154 182 206 221 228 227 216 188 141 86 46 24 16 16 24 43 82 138 190 221 235 238 235 223 201 164 118 77 51 37 30 28 27 27 26 27 28 32 39 51 67 85 100 109 112 110 108 106 105 106 109 112 117 123 132 147 164 182 196 206 209 205 192 169 138 107 80 60 48 41 40 42 47 54 61 67 69 68 65 60 58 62 77 
116 154 186 209 221 227 229 228 223 215 201 181 155 128 108 101 109 133 165 194 215 224 224 212 184 135 80 41 21 14 14 23 43 82 139 191 222 235 237 231 216 186 143 96 61 41 32 30 31 33 35 37 38 39 41 46 52 59 67 71 72 69 65 61 58 56 57 59 62 67 76 92 115 146 175 196 207 207 195 171 136 99 69 48 35 28 25 25 27 31 36 41 46 48 50 50 50 54 64 85 
120 154 183 202 212 216 216 212 204 190 169 142 113 88 72 68 77 100 134 171 199 216 220 211 184 138 84 44 23 15 14 22 40 78 134 186 218 232 233 224 203 167 119 75 47 35 32 35 42 50 56 61 63 64 65 67 68 69 67 63 56 48 41 35 31 29 29 29 31 36 44 60 86 123 162 189 201 197 178 144 103 68 44 30 23 20 21 23 27 32 37 42 47 50 52 53 55 59 70 90 
112 137 160 176 185 188 187 182 171 153 129 101 75 56 45 42 49 67 98 138 176 202 214 211 190 150 98 55 30 18 16 21 37 71 124 178 212 227 227 216 189 146 96 58 39 33 38 49 64 80 93 102 106 108 107 106 103 97 88 75 61 47 36 27 22 19 17 16 17 20 27 40 65 104 147 179 191 184 157 117 77 48 31 23 21 23 27 34 41 50 58 65 70 74 75 75 74 74 79 92 
96 108 121 132 139 143 143 139 129 114 93 71 51 37 29 27 31 43 67 104 148 185 206 211 199 168 122 77 44 27 20 22 35 64 112 166 203 220 221 207 176 129 81 49 36 38 51 72 99 124 142 153 158 159 157 154 148 139 126 107 86 65 48 35 25 19 15 13 13 14 20 32 55 93 137 169 181 169 137 95 59 37 26 24 27 35 47 61 75 89 101 111 117 120 120 115 108 99 92 91 
79 77 80 84 89 93 96 98 96 88 75 59 44 32 24 21 21 28 45 75 119 165 198 212 209 189 153 108 69 42 28 25 34 57 100 153 193 213 215 201 168 121 76 49 42 50 73 105 140 168 186 195 198 197 195 192 187 180 168 151 128 103 78 58 42 31 23 18 15 16 20 32 55 92 134 165 173 157 122 81 50 34 28 32 43 61 83 107 128 146 158 167 172 173 170 161 147 127 106 88 
65 54 50 50 53 58 66 75 82 84 79 67 53 39 28 21 18 21 32 55 95 145 188 211 217 208 184 147 104 67 43 33 35 53 90 140 183 207 211 198 168 124 83 60 57 72 103 142 176 200 212 217 218 216 214 211 209 206 199 189 172 151 126 100 77 57 43 33 27 25 30 42 66 103 142 167 172 153 116 77 49 36 37 48 70 100 133 161 182 195 204 209 211 210 206 196 179 151 118 86 
57 41 34 32 35 43 56 74 92 104 106 97 80 59 41 28 21 19 25 42 77 128 178 210 223 222 209 183 144 102 67 46 41 52 82 128 173 200 209 200 176 139 103 83 84 104 138 173 201 217 224 225 222 219 215 214 214 215 215 212 204 192 175 152 128 103 81 63 52 48 52 66 92 126 159 178 177 156 119 81 54 45 50 71 104 144 178 202 217 225 229 230 230 228 224 214 196 166 125 85 
54 36 28 27 32 43 64 92 121 142 149 142 123 95 66 43 28 21 23 35 64 113 167 207 226 231 226 210 181 140 97 65 49 53 76 117 162 194 207 204 187 160 132 116 118 138 168 195 214 223 225 221 214 207 201 199 202 208 214 219 220 217 209 196 178 156 133 112 97 89 92 105 129 157 180 192 188 167 131 93 66 58 68 95 136 177 207 224 233 237 238 237 236 233 228 220 203 173 130 86 
60 41 32 32 39 56 84 121 156 180 191 187 170 140 102 67 41 27 23 31 55 100 156 201 226 236 236 227 207 174 129 86 60 55 71 105 149 185 204 207 197 179 159 147 150 166 188 207 218 221 217 207 193 178 168 166 172 184 198 211 220 225 225 220 211 198 181 164 149 141 142 152 168 186 200 205 199 180 148 110 83 73 84 114 155 192 217 230 236 237 236 234 231 227 223 215 200 173 134 92 
75 56 47 48 58 79 113 152 186 208 217 216 205 180 142 98 60 36 27 30 48 88 144 194 223 237 240 236 223 196 154 106 71 57 65 92 132 171 195 204 201 190 176 167 168 179 195 207 213 211 201 181 157 134 119 115 124 141 165 188 206 219 225 227 225 219 209 199 189 182 181 187 196 207 214 215 209 193 165 131 101 88 94 119 155 188 210 221 225 224 221 217 213 209 206 201 190 171 140 105 
105 88 78 78 88 110 142 176 203 220 229 230 224 207 176 131 84 50 33 30 43 76 128 182 217 235 241 240 231 209 170 120 78 57 58 77 112 150 179 193 194 187 176 168 168 176 187 196 199 192 174 146 115 88 72 68 74 92 118 147 175 197 212 219 222 221 217 211 205 201 200 204 210 216 220 221 216 203 181 150 118 98 95 109 135 162 181 191 194 192 186 180 175 172 173 175 174 167 151 128 
144 132 123 120 126 140 162 186 206 221 229 233 231 221 198 160 111 68 41 32 39 65 110 164 206 229 239 240 233 213 176 124 79 54 50 62 89 122 152 169 174 168 158 149 148 154 164 173 174 165 143 111 80 56 42 37 41 53 73 99 129 157 179 194 203 206 205 203 199 197 198 202 208 215 220 222 219 210 193 165 132 104 89 90 102 118 132 140 141 137 130 123 119 120 127 140 154 164 165 157 
182 176 168 162 159 160 168 180 194 207 218 226 229 225 211 181 136 88 53 37 37 54 91 141 187 217 231 235 228 209 171 120 75 50 42 49 68 94 119 136 140 135 125 116 114 119 128 138 142 134 115 88 61 41 29 25 25 31 42 60 82 107 130 149 163 170 172 172 171 171 175 182 192 202 211 217 218 214 201 177 144 109 83 70 69 74 79 82 81 77 72 68 66 71 84 107 137 163 179 184 
208 206 199 189 176 164 156 156 163 176 192 207 217 221 215 195 158 110 69 44 36 45 71 113 159 195 215 222 216 196 157 108 68 45 37 41 53 71 89 101 104 98 88 81 78 82 92 104 112 112 101 81 60 42 31 24 22 23 28 36 49 64 81 97 110 118 122 124 124 126 132 142 157 174 191 204 212 213 206 187 156 117 82 59 48 44 43 42 41 38 35 33 34 41 57 86 127 166 192 205 
224 222 215 201 180 153 129 116 116 128 148 173 195 209 213 203 176 133 89 56 40 40 54 84 124 161 187 198 194 173 137 94 61 42 36 39 48 60 71 77 76 69 61 54 52 56 66 81 96 106 105 93 77 59 45 35 28 25 25 27 32 40 49 59 67 73 76 77 77 79 84 94 111 133 158 182 200 209 208 196 170 131 91 59 40 30 25 23 21 19 18 18 20 28 46 79 126 173 203 218 
231 230 221 203 172 133 97 76 70 77 97 127 160 189 205 206 190 157 114 74 49 40 44 60 88 119 145 160 159 144 115 83 59 46 43 47 55 63 69 68 63 54 46 40 39 43 54 74 97 117 127 124 112 95 76 60 47 38 32 30 31 34 38 43 47 50 50 49 48 47 50 56 69 89 117 150 179 200 208 203 185 152 110 72 45 29 21 16 14 12 12 13 17 26 45 81 133 181 211 226 
234 231 221 198 160 112 71 47 39 42 56 84 122 163 193 206 201 179 142 100 66 46 40 45 60 80 101 116 122 115 100 82 69 63 63 69 77 82 82 75 63 50 40 35 34 40 55 81 113 141 159 164 157 143 123 101 81 65 53 47 44 44 46 48 50 49 47 42 37 34 32 34 41 56 80 114 153 186 204 209 200 176 140 99 64 41 27 19 15 13 13 15 19 30 51 89 140 187 215 229 
230 227 215 189 146 95 55 32 23 23 33 54 92 140 181 204 209 198 171 131 91 60 44 39 43 54 68 82 93 99 99 96 94 95 101 109 116 118 110 94 73 54 42 35 36 46 67 100 138 170 189 197 195 186 170 149 127 106 90 80 75 74 74 76 75 72 64 54 43 34 27 25 27 35 53 83 125 168 198 212 212 199 173 136 98 67 45 32 25 22 21 23 28 39 61 98 145 187 213 226 
219 216 204 177 133 84 47 26 17 16 22 39 73 124 173 204 216 213 195 163 121 81 54 40 37 41 50 64 81 99 114 125 134 142 150 158 163 160 146 120 90 63 47 40 44 59 87 126 165 194 211 218 217 212 201 186 168 150 135 126 122 122 124 125 123 117 104 85 64 45 31 23 21 25 36 60 100 149 189 213 221 216 201 176 143 110 82 62 49 43 40 41 45 54 73 103 142 178 201 214 
194 195 185 160 121 79 46 27 18 15 20 34 66 117 170 206 222 224 213 190 152 106 68 45 36 36 44 59 83 112 140 161 175 185 193 198 199 193 175 144 106 74 54 49 56 79 114 155 189 212 223 227 227 222 214 202 190 178 170 167 168 172 175 178 177 170 155 131 99 67 42 27 20 20 27 45 79 129 177 210 225 227 221 207 186 159 132 110 93 82 77 74 74 77 87 104 129 154 174 187 
153 159 157 142 114 80 52 33 22 19 22 36 68 119 173 209 226 231 225 208 176 129 84 53 38 36 43 62 93 132 167 191 205 214 219 221 220 211 192 158 116 80 60 58 72 102 142 181 207 222 229 230 227 220 210 199 189 182 182 187 195 203 209 213 214 210 198 176 140 98 60 35 22 18 21 34 63 109 162 202 224 232 232 226 214 199 181 163 149 137 129 122 115 107 101 101 107 118 130 143 
104 117 127 127 114 90 65 45 32 26 28 42 75 127 180 214 230 236 232 219 191 146 96 59 41 37 45 67 104 150 188 211 223 229 232 232 228 217 195 159 115 80 63 65 86 124 166 199 219 228 231 228 220 208 191 175 164 162 169 183 200 214 224 230 233 231 224 207 176 130 81 46 26 18 18 27 49 89 142 189 218 231 236 234 229 221 212 202 193 186 179 170 156 137 114 94 82 79 83 92 
66 84 105 121 123 111 88 64 45 35 36 51 85 138 187 218 233 238 235 224 198 153 100 61 41 37 46 70 113 162 200 222 232 236 237 235 228 214 187 147 104 73 61 69 97 139 182 211 226 231 229 222 206 184 157 134 121 121 134 158 186 209 225 235 240 240 236 224 200 157 104 59 32 20 17 23 39 71 119 168 203 223 231 233 232 229 225 221 217 214 210 202 186 160 123 88 63 51 48 53 
45 67 98 128 143 139 119 89 63 47 45 59 95 146 193 221 235 239 235 223 196 150 97 58 39 35 44 70 115 167 205 226 236 239 238 233 223 204 171 127 87 62 56 68 100 146 189 215 228 230 225 212 187 152 115 88 74 75 91 119 156 190 216 231 239 242 241 233 214 178 126 75 41 24 18 20 31 55 92 138 177 203 216 222 223 223 223 224 225 225 224 218 203 173 130 84 52 35 29 33 
40 67 106 144 167 169 150 116 81 58 52 65 99 149 194 221 234 237 233 218 187 138 86 50 34 31 40 66 110 163 204 226 235 238 236 229 214 188 148 103 68 50 49 64 97 144 187 214 226 227 219 199 165 121 80 53 42 42 55 80 117 159 195 219 233 239 240 235 222 193 147 95 54 31 22 21 27 42 68 103 139 166 184 193 198 202 207 213 219 224 226 223 210 181 135 84 48 28 22 26 
47 80 125 166 189 192 173 136 95 65 55 65 97 145 190 218 231 234 228 210 174 122 72 41 28 26 35 58 100 153 196 221 231 234 230 220 200 167 123 82 54 42 43 58 89 134 177 205 218 220 210 186 146 98 59 36 26 25 33 50 80 121 163 196 218 230 235 233 225 204 167 119 75 47 32 26 27 35 49 70 95 117 133 144 152 160 172 186 201 214 222 222 212 187 142 91 51 31 24 29 
68 106 151 187 206 205 184 144 98 65 52 59 87 133 180 212 227 230 222 199 158 104 59 33 22 22 30 50 87 136 181 209 222 225 219 206 181 144 102 68 47 38 40 53 79 117 157 187 203 206 197 173 133 89 53 32 23 20 23 33 53 83 122 160 190 210 221 226 223 210 185 147 106 73 52 41 35 35 40 48 59 70 80 87 94 104 120 142 169 193 210 217 212 191 152 104 64 42 36 45 
103 142 179 205 216 210 185 141 92 58 44 49 73 116 166 202 220 224 215 190 145 91 50 28 19 19 26 43 74 117 160 190 204 207 200 183 156 122 88 63 49 43 44 53 71 98 130 158 176 183 178 159 128 92 62 42 30 25 23 27 37 55 82 115 148 176 197 210 215 212 199 175 144 113 88 69 55 46 40 38 39 41 43 46 50 57 71 95 129 165 193 208 209 195 165 123 87 66 62 75 
