P2
100 100
255
131 138 144 146 144 138 128 116 107 101 100 105 114 125 137 146 151 151 146 137 125 112 101 93 89 89 93 100 109 120 129 136 140 140 138 133 128 122 116 112 108 106 105 106 110 116 124 133 140 145 146 143 135 124 113 103 97 93 94 97 103 110 118 124 129 133 136 138 139 139 139 137 133 130 126 123 119 117 114 111 107 103 98 94 91 91 94 100 111 123 135 145 149 149 145 137 130 125 123 125 
143 148 152 151 146 136 124 110 100 93 93 97 106 118 130 140 146 148 144 136 125 113 103 96 92 93 97 104 112 121 128 134 136 135 133 130 127 124 122 119 117 115 113 111 111 113 117 123 130 136 140 140 137 132 124 117 111 108 106 106 108 110 113 115 116 118 121 125 130 136 141 144 146 146 143 140 135 129 122 114 106 99 92 88 85 86 90 97 108 121 133 143 148 150 147 142 138 135 135 138 
153 157 159 156 149 137 122 107 96 89 88 92 100 112 125 136 144 146 144 138 129 119 110 104 102 102 106 111 118 124 128 130 130 128 126 125 124 126 128 129 130 129 125 121 116 112 112 114 118 125 131 136 138 138 136 132 128 124 121 118 115 112 109 106 105 105 108 114 122 132 142 151 156 159 158 155 149 140 130 119 108 99 92 87 85 86 91 99 110 121 132 141 146 147 146 143 141 141 143 148 
158 163 164 160 152 139 123 107 95 88 86 90 99 110 123 135 143 146 146 142 135 128 122 117 115 116 119 123 126 129 129 126 123 119 117 117 120 126 133 139 143 143 140 132 123 114 108 105 107 113 121 129 137 143 146 146 144 140 135 129 121 113 106 100 96 95 98 105 116 130 144 156 164 168 169 166 159 150 138 125 113 102 95 91 90 93 98 106 115 125 133 138 141 141 140 139 139 141 146 152 
160 165 166 163 154 141 125 109 97 90 89 93 101 112 124 136 144 148 149 147 143 138 134 131 131 132 134 136 136 134 129 122 115 109 106 108 114 124 136 147 155 157 154 145 132 118 107 99 98 102 110 122 134 145 153 156 156 153 146 137 126 114 104 96 91 89 93 101 113 129 145 158 168 173 174 171 165 155 143 129 117 108 102 99 100 104 109 116 124 130 134 135 134 132 130 130 132 137 144 152 
157 164 166 163 155 142 127 113 102 95 94 98 106 117 128 138 146 150 151 150 148 145 144 144 144 146 147 147 144 138 129 118 108 100 96 98 106 120 136 152 163 167 165 156 141 124 107 96 91 93 102 115 130 145 155 161 163 159 152 141 128 114 103 94 89 88 92 101 114 130 146 159 168 173 174 171 165 155 144 132 121 114 110 110 113 118 124 130 134 136 134 131 126 121 118 117 120 127 137 148 
152 160 163 161 153 142 128 116 106 102 102 107 114 124 134 142 147 150 151 150 149 148 149 150 153 156 157 156 151 143 130 116 102 92 88 90 99 114 134 153 166 173 173 164 149 129 110 96 88 89 96 110 127 143 155 162 164 160 152 140 126 113 102 94 91 91 96 105 117 132 145 157 164 168 168 165 159 150 141 131 124 120 119 122 128 134 140 144 144 141 135 126 117 109 104 103 107 116 128 141 
146 155 158 156 149 139 128 118 111 108 110 116 123 132 139 144 147 147 146 144 144 144 147 151 155 159 162 161 156 146 132 115 100 88 82 84 93 109 129 150 166 175 176 169 155 135 115 98 89 88 94 107 124 141 153 160 161 157 148 136 123 111 103 98 97 99 105 113 123 134 144 152 156 158 157 154 149 142 135 128 125 124 127 133 141 148 153 155 153 146 135 121 108 98 92 91 96 106 119 133 
140 148 151 149 143 134 124 117 114 114 118 125 132 138 143 144 143 140 137 134 133 134 138 145 151 157 161 162 157 148 134 117 100 88 81 81 89 104 124 146 164 174 177 171 159 140 120 103 93 91 97 109 124 139 150 156 155 150 140 128 117 109 104 103 106 110 117 124 131 137 142 144 145 145 143 139 135 131 127 124 124 127 133 142 151 159 163 164 159 149 134 117 101 89 83 83 88 98 112 127 
136 143 145 141 135 126 119 115 115 118 125 132 139 143 144 141 136 130 124 120 118 120 126 134 143 151 157 160 157 149 136 120 104 91 84 83 89 102 120 141 158 170 174 170 160 144 126 110 100 98 103 113 126 139 148 151 148 141 130 120 112 107 107 111 117 124 131 136 139 140 139 136 133 130 127 124 122 120 119 120 123 129 137 147 157 165 169 169 163 151 133 114 97 85 78 78 84 95 109 123 
134 139 139 134 126 119 114 112 115 121 130 138 143 145 142 136 127 117 109 104 103 105 111 121 132 142 151 155 155 150 140 126 112 100 92 89 93 103 118 136 152 163 168 167 159 146 131 118 109 107 111 120 131 140 145 145 140 131 121 112 107 107 111 119 129 138 145 148 147 142 136 128 121 116 113 111 111 112 114 117 122 129 138 149 159 167 171 171 164 151 133 113 95 83 78 78 85 96 110 124 
136 138 135 128 119 112 109 110 115 124 134 142 146 145 139 129 117 105 96 91 90 93 100 110 122 133 143 149 151 149 143 133 122 112 104 100 101 108 119 132 145 155 161 160 155 146 135 125 119 118 121 128 135 141 143 139 132 122 112 105 102 106 115 127 140 151 157 157 153 145 134 122 113 107 104 104 106 108 112 116 121 128 137 147 157 165 170 169 163 150 132 113 96 85 81 83 90 102 115 128 
140 139 133 124 114 107 105 108 116 127 137 145 147 144 135 122 108 96 87 82 82 86 93 103 115 126 136 143 147 148 145 140 133 126 119 115 113 116 121 129 138 146 150 152 149 144 137 131 127 127 130 135 139 142 140 134 125 114 104 99 99 106 118 133 148 159 165 164 158 147 133 120 109 103 101 102 106 110 113 117 121 127 134 143 152 160 165 165 159 148 132 114 99 90 87 90 99 111 124 134 
145 141 133 122 112 105 104 109 118 130 141 148 149 143 132 117 102 90 82 79 80 85 92 102 112 122 130 137 141 144 145 145 143 139 135 131 127 125 125 127 131 135 138 141 141 139 137 134 133 134 136 139 142 141 137 130 119 108 100 96 98 106 120 136 152 163 169 167 160 148 133 120 110 104 104 107 111 115 118 120 121 124 128 135 143 151 156 158 154 145 131 116 103 96 94 99 109 122 134 142 
149 143 133 121 110 105 105 111 122 134 145 151 150 143 130 114 99 88 82 81 84 90 98 107 115 121 127 131 135 139 143 147 150 151 149 145 140 134 129 125 123 123 125 128 131 133 134 135 136 137 139 141 141 139 134 126 116 105 98 95 97 106 120 136 152 163 168 166 159 148 134 122 114 110 111 115 120 123 124 123 121 120 121 125 132 140 146 149 147 141 130 118 108 103 103 109 120 132 142 149 
151 144 132 120 110 105 107 114 126 139 149 154 152 143 130 114 100 91 87 88 93 101 109 116 121 123 124 125 127 131 138 146 153 158 159 156 150 141 130 121 115 112 113 116 120 125 130 133 136 138 139 140 139 136 131 123 114 106 99 96 99 106 118 133 147 157 162 161 155 145 135 125 120 119 121 126 130 131 130 125 120 115 113 115 120 127 135 140 140 136 129 120 113 109 111 118 128 139 148 153 
150 142 131 119 109 106 108 117 129 142 152 156 153 145 131 117 104 97 96 100 107 116 124 128 128 126 121 118 118 122 130 141 152 160 164 163 156 144 130 116 106 101 101 104 111 118 125 131 134 136 137 136 134 132 128 122 116 109 104 102 103 108 117 128 139 147 152 152 147 141 133 128 126 127 131 136 138 138 134 126 117 110 105 105 109 117 125 131 134 133 128 122 117 115 117 124 134 144 151 153 
147 139 127 116 108 105 109 118 130 142 152 156 153 145 133 121 111 106 108 114 123 132 138 139 135 127 118 110 107 111 120 134 148 160 166 165 157 144 127 111 98 92 91 96 104 113 122 129 133 134 133 131 129 127 125 123 120 117 113 110 110 111 115 121 128 134 138 138 137 134 131 129 131 134 139 143 144 142 135 124 113 104 99 98 101 109 117 125 130 131 128 124 120 119 122 128 137 145 150 151 
143 134 123 113 105 103 107 116 128 140 149 153 151 145 135 125 118 117 120 128 138 146 150 147 139 126 113 102 97 100 110 125 142 156 164 164 155 140 122 104 91 85 85 90 100 111 122 129 132 131 128 125 123 123 124 126 127 127 126 123 119 117 115 116 117 119 122 123 124 125 126 129 134 139 144 147 147 142 133 121 109 100 94 93 97 105 114 123 129 131 130 127 124 124 126 131 138 144 148 148 
139 131 120 110 103 101 104 112 123 134 143 147 147 142 135 129 125 126 132 141 150 156 157 151 139 123 106 94 89 91 101 117 136 151 160 160 151 135 116 98 86 80 82 89 100 113 124 131 133 130 125 120 118 119 123 129 135 139 140 137 132 125 117 111 108 106 107 109 112 116 122 129 136 142 147 149 147 140 130 117 105 97 92 92 97 105 115 125 131 135 134 132 130 128 130 134 139 143 146 145 
138 129 119 109 101 99 100 106 116 125 134 139 140 138 134 131 131 134 141 149 157 161 160 151 136 118 100 88 82 85 95 111 131 147 156 156 147 130 111 94 83 79 82 92 105 120 131 137 137 131 123 116 112 114 121 131 142 150 153 151 145 134 121 110 101 96 95 97 102 110 119 128 137 144 148 148 144 136 125 113 102 95 92 94 100 109 120 130 137 140 140 138 135 134 134 137 141 144 145 143 
139 131 121 110 102 98 98 101 108 116 124 129 132 132 132 132 134 139 147 154 160 162 158 148 131 112 95 83 79 82 93 109 128 144 153 152 142 126 107 92 83 81 87 99 115 130 141 145 142 133 122 112 107 109 118 132 147 158 164 164 156 143 127 110 97 89 87 90 96 106 118 129 139 146 148 147 141 131 120 109 100 95 94 98 105 115 127 136 143 146 146 144 141 139 139 141 143 146 147 145 
144 136 126 116 106 100 97 98 102 108 114 120 124 127 129 132 136 142 149 156 160 160 154 143 126 108 93 83 80 84 95 111 129 144 151 149 139 123 106 93 86 87 96 110 127 143 153 155 149 136 121 108 102 104 114 130 148 163 172 172 165 151 132 112 96 87 83 86 94 106 120 132 142 147 148 144 137 127 116 106 100 97 98 103 112 123 133 143 149 151 150 148 145 143 142 143 146 149 150 148 
150 144 135 124 114 106 100 98 99 103 108 114 119 123 128 132 137 144 150 155 157 156 149 138 123 107 94 86 85 90 102 117 134 146 151 148 138 123 108 96 92 96 107 124 142 156 164 164 155 139 121 105 96 97 107 125 146 164 175 177 171 157 137 116 98 87 84 87 96 109 124 137 145 149 148 142 133 123 113 105 100 99 102 109 118 129 139 147 151 152 151 148 145 142 142 143 147 150 153 153 
156 152 144 135 124 114 107 102 101 103 106 111 117 122 128 133 138 144 149 152 153 150 144 133 121 108 99 94 95 101 113 127 140 150 153 148 138 124 111 102 101 107 121 138 156 168 174 171 160 142 120 101 91 90 99 118 140 160 174 178 174 161 141 119 101 89 86 90 101 115 129 141 149 150 147 139 130 119 111 104 102 103 107 114 123 133 141 147 150 149 146 143 139 136 136 139 143 149 154 156 
159 158 153 144 134 124 115 109 106 107 109 114 119 125 130 135 139 143 146 147 147 144 138 130 121 112 107 105 108 116 126 138 148 154 154 148 138 125 114 108 109 118 133 150 166 177 181 176 164 143 120 99 86 84 92 109 132 154 169 176 173 161 143 122 104 93 91 96 107 121 135 145 150 150 145 136 126 117 109 106 105 107 113 120 128 135 141 144 144 141 137 131 127 125 125 129 135 143 150 156 
158 160 157 151 143 133 125 118 115 114 117 121 125 130 134 138 140 141 142 141 139 136 131 126 121 118 116 119 124 131 140 149 155 157 154 147 137 125 116 112 116 126 141 158 172 181 184 179 166 144 119 97 83 79 85 101 123 145 162 170 169 159 143 123 107 97 96 102 113 126 139 147 150 147 140 131 122 115 110 108 110 114 119 125 131 136 138 138 135 129 122 116 111 109 109 114 122 132 143 152 
152 157 158 154 147 139 132 126 124 124 126 130 134 138 140 141 140 138 136 133 129 126 123 121 121 122 126 131 138 145 152 157 159 158 153 144 133 123 115 113 118 128 144 160 173 181 183 178 165 145 120 97 82 77 81 95 115 136 154 163 164 155 141 124 110 102 101 107 118 130 140 146 146 142 134 126 119 114 112 113 117 122 127 132 135 136 135 131 124 116 108 100 94 92 93 97 106 118 131 143 
143 151 153 151 147 141 135 132 131 133 136 140 143 146 146 144 140 134 129 123 118 115 114 115 119 125 132 140 148 155 160 162 161 156 148 138 126 117 111 110 115 125 139 155 168 176 179 175 163 144 121 99 84 78 81 92 109 129 146 156 157 150 138 124 112 105 106 111 121 131 139 142 140 135 127 121 116 115 116 121 126 132 136 139 140 138 133 126 116 106 95 87 81 78 79 83 92 104 118 132 
133 141 144 144 141 137 134 133 135 139 143 148 151 152 150 145 138 129 121 113 107 105 105 109 115 125 135 146 155 161 164 163 159 151 141 129 118 109 103 103 107 116 129 144 157 166 170 168 159 143 123 104 90 83 84 93 107 124 139 149 150 145 135 123 113 108 109 115 122 130 135 136 132 127 121 117 115 118 123 130 137 143 147 148 146 142 134 124 113 100 89 80 73 70 70 73 81 93 106 121 
124 131 134 133 131 128 127 129 134 140 147 153 156 156 152 145 135 124 113 104 98 95 96 102 111 122 135 147 157 162 164 161 154 144 132 119 108 100 95 94 97 105 116 128 141 151 157 158 152 141 126 110 98 91 91 98 109 123 136 143 145 140 131 122 114 111 112 116 123 128 130 129 125 120 116 115 117 124 132 141 149 154 157 156 153 147 138 127 114 101 89 79 72 68 68 70 77 87 100 113 
119 124 124 122 119 118 118 122 129 138 147 153 157 157 152 144 132 119 107 97 91 89 90 96 106 119 133 146 156 161 161 157 148 136 123 110 99 92 87 86 88 93 101 112 123 134 142 146 145 139 129 118 108 103 102 107 116 126 135 140 141 136 129 121 115 113 114 118 122 125 125 123 119 115 113 116 122 131 142 152 159 163 164 162 158 151 143 133 121 109 97 87 79 74 73 75 81 90 100 111 
120 121 119 114 110 107 108 113 122 132 142 150 154 154 149 140 128 115 103 94 88 86 88 94 105 118 132 144 153 157 156 151 141 129 115 103 93 86 82 81 81 85 90 98 107 118 127 134 137 136 132 126 120 116 116 119 125 131 137 140 138 134 127 121 116 115 116 119 122 123 122 119 116 113 114 119 128 139 151 160 166 168 167 164 159 154 147 140 132 122 112 103 95 90 87 88 93 100 108 115 
127 124 118 111 104 100 101 105 114 124 134 143 148 148 144 136 125 114 103 95 90 89 91 97 106 118 131 142 150 153 151 145 135 122 109 98 90 84 81 79 79 81 85 90 97 106 115 124 130 134 135 133 131 130 129 131 134 138 140 140 138 132 126 121 117 116 117 120 122 122 121 118 116 115 118 125 135 146 156 164 167 167 164 160 155 152 149 146 143 138 132 125 118 112 109 109 112 117 122 126 
137 131 122 112 104 98 97 100 107 116 126 133 138 139 137 131 123 115 107 101 97 97 99 104 112 122 132 141 146 148 145 138 128 117 106 96 90 86 84 83 83 84 86 89 94 100 108 117 125 131 136 139 140 140 141 142 143 144 144 142 137 131 125 120 117 117 118 121 123 123 122 120 118 119 123 131 140 150 158 162 162 159 153 148 144 143 145 148 151 152 151 148 143 138 135 134 135 137 139 140 
147 139 129 118 108 101 98 99 103 110 117 123 128 130 129 126 123 118 114 111 110 110 112 116 122 128 135 141 143 143 139 132 123 113 104 97 93 91 91 92 93 94 95 96 98 101 107 114 121 129 135 140 144 146 148 149 149 149 146 142 137 130 124 119 117 117 119 122 124 125 124 123 122 123 128 135 143 150 154 154 150 143 136 130 127 129 136 145 154 162 165 166 164 160 157 155 154 154 154 152 
154 147 137 126 116 109 104 102 103 106 110 114 118 120 122 123 123 124 124 125 125 126 128 130 133 136 139 140 140 138 133 126 118 110 104 100 99 101 103 106 109 110 110 109 108 108 110 113 119 125 132 139 144 148 151 152 152 151 147 142 136 129 123 118 116 117 120 123 125 127 127 126 126 127 131 136 141 145 145 141 133 123 114 108 106 111 122 137 152 165 173 176 176 174 171 168 165 164 162 159 
156 151 144 136 127 120 114 109 107 106 106 107 109 112 115 120 125 130 135 139 141 143 143 143 143 142 141 140 137 132 127 120 113 108 104 104 107 112 118 124 129 130 130 127 123 118 116 115 117 121 127 134 140 145 149 151 151 149 146 140 134 127 121 117 116 117 120 124 127 129 129 129 128 129 131 134 136 136 132 124 114 102 93 87 87 94 108 126 146 163 174 179 180 178 174 170 166 164 162 160 
152 151 148 144 138 132 125 119 113 108 105 103 103 106 111 119 128 137 145 150 154 155 155 153 150 146 142 137 132 126 120 114 109 106 106 109 115 124 134 142 148 151 149 145 138 129 122 117 115 116 120 126 133 139 143 146 147 145 142 137 131 125 120 117 117 119 122 126 129 130 130 130 129 128 129 129 129 126 119 109 97 86 77 73 74 81 96 116 138 156 169 175 176 173 167 161 157 154 153 152 
142 146 148 149 147 143 137 130 121 113 106 101 100 103 109 119 130 142 152 159 162 163 161 157 152 146 140 134 127 121 115 110 106 105 107 113 123 135 147 157 163 166 164 159 149 138 127 118 113 111 114 118 125 130 135 139 140 139 136 132 127 123 119 118 119 122 125 129 131 132 131 129 127 125 124 123 121 116 108 98 86 76 69 65 67 75 88 108 130 148 161 166 165 160 152 144 139 136 136 138 
129 138 146 151 153 152 147 139 129 119 109 102 100 102 109 120 132 145 155 162 165 165 161 156 150 143 136 129 123 117 112 107 105 106 110 118 129 142 155 166 173 175 173 166 156 143 129 118 111 108 108 112 117 123 127 130 131 130 128 125 123 121 120 121 124 127 131 133 134 133 131 127 124 121 119 117 114 109 102 93 83 74 68 66 68 75 88 105 124 140 150 153 149 141 132 123 116 114 116 121 
116 129 141 151 157 158 155 147 136 124 113 105 102 104 110 121 134 146 155 161 162 161 156 150 143 136 130 124 120 115 112 109 108 109 114 122 134 147 159 169 175 177 175 168 156 143 129 117 109 106 106 109 113 117 120 121 121 121 119 118 118 120 122 126 130 135 138 139 138 135 130 124 119 116 113 112 110 107 102 95 88 81 76 74 76 82 93 108 123 135 141 140 133 122 111 102 96 95 98 105 
107 122 137 149 158 161 159 152 142 129 118 109 105 107 113 123 134 144 152 155 155 152 146 140 133 128 124 122 119 118 116 114 114 115 119 127 137 148 159 168 173 174 170 163 152 139 126 116 110 108 109 111 114 116 116 115 113 111 110 111 114 119 125 132 139 143 146 146 142 136 129 122 115 111 110 110 110 110 108 105 100 95 91 89 91 96 105 116 126 132 133 128 119 107 96 87 82 81 86 94 
102 118 133 147 156 161 160 154 145 133 122 114 110 110 116 124 133 141 145 147 144 139 134 128 124 121 121 121 123 123 124 123 123 124 127 132 139 148 156 162 165 164 160 152 142 131 122 116 113 114 116 119 120 119 116 111 106 103 102 104 110 118 129 139 147 152 154 152 146 138 128 119 112 108 108 111 114 118 120 120 118 115 112 111 112 116 121 127 132 133 129 121 110 98 87 80 76 76 81 90 
103 117 131 144 153 158 158 154 146 136 126 118 114 114 118 124 130 135 137 136 132 126 121 117 115 117 120 124 129 132 134 134 134 133 134 137 141 146 150 153 154 151 145 138 130 122 118 117 120 124 128 131 131 126 119 110 102 96 95 98 106 118 131 144 154 160 161 157 150 139 127 117 110 107 109 114 121 128 133 136 137 136 135 134 134 135 137 139 139 135 128 118 106 95 86 80 77 78 83 91 
108 119 130 141 149 153 154 150 144 136 128 121 117 117 119 123 126 128 127 124 119 114 110 109 111 115 122 130 137 142 144 145 144 142 141 140 141 142 143 142 140 135 129 122 116 114 115 120 128 136 143 146 144 137 125 112 99 92 89 93 102 117 133 149 160 166 166 161 151 139 126 115 109 107 111 118 128 138 145 150 153 153 153 151 151 150 149 147 144 137 128 118 107 97 90 86 85 87 91 98 
115 122 129 136 142 146 146 145 140 134 128 123 119 118 119 120 121 121 118 114 110 106 104 105 110 118 127 137 145 150 153 152 150 147 144 141 139 137 135 131 126 119 113 107 104 106 113 124 137 149 158 161 158 148 132 115 99 89 85 89 99 115 134 151 163 168 168 162 151 138 124 114 109 109 115 124 135 145 154 159 162 163 162 160 159 157 154 150 145 137 128 119 110 103 99 98 98 100 104 109 
122 124 127 131 134 136 137 137 135 131 127 123 120 118 117 117 116 114 111 107 103 101 102 106 113 123 133 143 151 156 157 155 152 147 143 139 135 132 127 122 115 107 100 96 96 101 111 127 144 160 170 173 169 157 139 118 100 87 83 86 97 114 134 151 163 168 167 160 148 135 122 114 110 112 119 129 140 150 157 161 163 163 161 159 157 155 152 147 142 135 127 120 115 111 110 111 113 116 118 120 
128 126 124 123 124 126 127 129 129 128 126 123 120 118 116 114 112 109 106 103 102 102 104 110 119 129 140 148 154 156 156 152 147 142 137 133 129 126 121 115 108 100 93 89 90 97 110 129 149 166 177 180 176 164 144 122 102 88 83 86 97 114 133 149 160 164 162 154 143 131 120 114 113 116 124 133 143 150 155 157 156 155 152 150 148 146 144 140 136 131 126 122 120 120 122 125 128 131 131 130 
131 124 119 115 114 115 118 121 123 125 125 123 121 118 115 113 110 107 105 104 104 106 110 118 127 136 145 151 154 153 149 143 137 131 127 124 122 121 118 113 106 97 90 86 87 95 109 129 150 168 179 183 178 166 147 124 104 90 85 88 98 114 132 146 156 158 155 147 136 126 118 115 116 121 129 137 144 148 149 147 144 140 137 135 134 134 133 132 130 127 125 124 124 127 132 137 141 142 141 137 
131 122 113 108 105 107 110 115 120 123 125 124 122 120 116 113 110 108 107 107 109 112 118 126 134 142 148 151 150 146 138 130 123 117 114 114 116 117 117 114 108 101 93 88 87 93 107 125 146 164 176 180 176 164 146 125 106 94 89 93 103 117 132 143 150 150 145 137 129 121 117 117 121 127 134 140 143 143 140 135 129 124 120 119 120 122 124 125 125 125 125 126 129 134 140 145 149 150 147 141 
130 118 108 101 99 101 105 112 119 124 127 127 126 123 120 116 114 112 112 113 116 120 127 134 141 147 149 149 144 136 126 116 108 103 102 105 111 117 120 120 116 108 100 93 90 93 104 120 139 156 167 172 168 158 142 124 108 99 96 101 110 122 133 141 143 141 135 128 121 117 117 120 126 133 139 143 142 138 131 122 115 109 106 107 109 114 118 122 124 126 127 129 133 139 145 151 154 154 150 141 
128 115 104 98 96 98 104 112 121 127 131 132 131 128 125 122 120 118 119 120 123 128 133 139 145 148 149 145 137 127 115 104 96 92 94 99 109 119 126 130 127 120 110 100 94 94 101 113 129 144 154 159 156 147 135 121 110 105 106 112 121 130 137 139 138 132 125 118 114 114 118 124 132 139 144 144 140 133 123 112 104 99 97 100 105 112 118 124 127 130 131 133 137 142 148 153 156 155 150 140 
126 113 103 97 96 99 107 116 125 133 137 139 138 135 132 129 127 126 126 127 130 133 138 142 146 148 146 141 132 119 106 95 88 86 89 97 110 123 135 141 140 133 122 110 101 96 98 106 118 130 138 142 140 134 125 117 112 112 116 124 132 139 141 139 133 125 117 111 109 112 119 129 138 145 148 146 139 129 117 106 98 94 95 99 106 115 123 129 133 135 136 137 140 144 149 154 156 154 149 139 
126 114 104 99 99 104 112 122 132 140 144 146 144 142 138 136 133 132 132 133 134 136 139 142 144 145 143 137 128 116 103 92 86 84 88 98 113 129 143 151 152 146 134 120 108 100 98 102 109 117 123 126 124 120 115 113 113 118 127 136 144 147 146 139 129 119 110 106 106 112 122 133 143 149 150 146 137 126 114 104 97 95 98 104 112 121 130 135 138 139 139 139 141 144 149 153 155 153 148 138 
126 115 106 103 104 110 119 130 140 147 151 151 150 147 143 140 138 136 135 135 135 136 137 139 141 141 140 135 127 117 105 95 88 87 91 102 118 136 150 159 161 155 144 129 115 105 100 100 104 109 112 113 111 109 107 108 114 124 135 146 153 154 149 139 126 114 105 102 105 113 125 137 146 151 151 145 136 124 113 104 100 100 104 111 119 128 135 140 141 140 139 138 139 143 147 151 153 152 147 137 
126 116 109 106 109 116 126 137 146 153 155 155 152 148 145 141 139 137 135 134 133 132 132 134 136 137 138 135 130 121 111 101 94 93 97 108 123 140 155 164 166 161 150 136 122 111 105 103 104 106 107 106 103 101 101 105 115 127 141 153 159 158 151 138 123 110 101 100 104 114 127 139 147 151 149 143 133 123 113 107 104 106 111 118 125 132 137 139 138 136 134 133 135 138 143 148 151 150 145 137 
126 116 110 109 113 121 131 142 151 156 157 155 151 146 142 138 136 133 132 130 128 127 127 128 131 134 137 137 134 128 119 110 103 101 104 113 127 142 156 164 166 162 152 140 127 117 112 110 110 110 109 106 101 98 99 104 115 129 144 155 161 158 149 135 119 106 98 98 104 115 128 139 147 149 146 139 130 121 114 110 109 112 117 123 128 132 134 133 131 127 125 125 128 133 139 145 149 148 144 136 
123 114 109 109 114 123 134 144 152 156 156 152 147 141 135 131 128 126 125 123 122 121 121 123 127 133 137 140 140 136 129 120 112 108 109 116 128 141 153 160 162 158 150 140 130 123 120 120 120 120 117 111 105 100 100 104 115 129 144 155 159 156 145 130 114 102 96 97 104 115 128 138 144 145 141 134 127 120 115 113 114 117 121 125 127 128 126 123 119 116 114 116 120 128 136 143 147 146 142 133 
119 110 105 105 111 121 133 143 151 154 152 147 140 133 126 122 119 117 117 116 116 116 117 121 126 133 139 144 145 143 137 128 120 114 113 117 126 136 146 153 154 151 145 138 131 128 128 130 132 132 129 122 113 106 104 106 115 128 142 151 155 150 139 124 109 98 94 96 104 115 127 136 140 139 135 129 122 118 116 116 119 121 124 124 123 120 116 111 106 104 104 108 115 124 134 142 146 145 139 129 
113 103 99 99 106 116 128 140 147 150 148 141 133 124 116 111 109 108 109 110 111 113 116 121 128 135 142 148 150 147 141 133 124 117 114 116 121 130 137 143 144 142 138 133 131 131 135 140 144 145 142 134 124 115 109 110 117 128 139 147 149 144 133 119 105 96 94 97 105 116 126 132 135 133 128 123 118 116 117 119 122 124 125 123 118 112 106 100 96 95 98 104 114 125 136 144 147 144 136 124 
106 96 91 92 99 110 123 135 143 146 143 136 126 116 108 103 100 101 103 106 109 113 118 125 132 139 146 150 151 149 142 133 124 116 112 112 116 122 128 133 134 133 130 128 129 133 140 148 153 155 152 144 134 123 116 114 119 127 137 143 144 138 128 115 104 97 96 100 108 117 125 129 130 126 121 117 115 115 118 122 126 127 126 122 115 107 100 94 91 92 97 106 118 131 141 148 149 144 133 119 
100 89 84 85 92 103 117 130 139 143 140 133 122 112 103 97 95 96 99 104 110 116 123 130 137 144 149 151 151 146 139 130 120 112 108 108 111 116 122 125 126 125 124 123 126 133 142 151 158 161 159 151 140 129 121 119 121 128 136 141 141 135 126 115 106 101 101 106 113 121 126 128 125 121 116 112 112 115 120 125 130 131 128 122 114 106 99 94 93 96 103 114 127 140 150 154 153 145 131 115 
95 84 79 80 87 99 113 127 138 142 140 133 122 111 102 96 93 95 99 105 113 122 130 137 143 148 151 150 147 141 133 123 114 108 105 105 109 114 119 122 123 122 121 121 124 131 141 150 158 161 159 152 142 132 125 122 124 130 137 141 141 136 128 119 112 109 111 115 122 127 129 127 122 116 111 109 110 115 122 129 134 135 132 126 117 109 103 100 101 106 116 128 141 152 159 161 157 146 130 112 
93 82 77 78 86 97 112 127 138 144 143 136 126 115 105 98 95 97 102 109 118 128 137 144 149 151 151 147 142 134 125 116 108 104 103 105 110 116 121 124 124 123 121 121 124 130 138 146 153 155 153 147 139 131 125 124 127 133 140 144 144 140 134 127 122 121 123 128 132 135 134 129 122 114 109 107 110 117 125 133 138 140 137 131 124 117 112 111 114 121 131 143 154 163 168 167 160 147 129 110 
93 83 79 81 88 100 115 130 141 147 147 141 132 121 111 104 100 101 106 114 124 134 143 149 152 152 149 143 134 125 116 108 103 102 103 108 114 121 127 130 130 128 125 124 125 128 133 139 144 145 143 137 131 125 122 124 129 136 143 148 149 146 142 137 135 135 137 141 144 144 140 132 122 113 108 107 111 119 129 137 143 144 142 137 131 126 123 124 128 136 146 156 164 170 172 169 161 146 128 109 
96 87 85 87 95 108 122 136 146 152 152 147 139 128 118 111 107 108 112 120 130 140 148 153 154 151 145 136 126 116 108 103 100 102 106 114 122 129 135 138 138 135 131 128 126 127 129 131 132 132 128 124 119 116 117 122 130 139 147 152 154 152 149 147 146 147 150 153 154 152 145 135 124 115 109 109 114 122 132 141 146 148 146 142 137 134 133 135 140 148 156 163 169 172 172 167 157 143 126 109 
101 95 95 99 107 118 131 142 151 155 155 151 144 135 126 118 115 115 119 126 135 144 151 154 153 148 140 129 119 109 102 99 100 104 112 121 131 139 144 146 145 142 137 132 129 126 125 123 121 118 114 110 107 107 111 119 129 140 149 155 157 156 154 152 153 155 158 161 161 157 149 138 127 117 112 112 118 126 136 144 148 149 147 143 140 138 138 141 147 153 159 164 167 168 165 159 150 137 124 111 
107 106 108 114 122 131 141 149 155 157 157 153 147 139 131 125 121 121 125 131 139 147 152 153 151 144 134 122 111 103 98 98 102 109 119 130 140 147 152 153 151 147 141 136 131 126 122 117 113 107 102 98 97 99 105 115 128 140 149 155 156 155 154 153 154 157 161 163 163 159 151 140 129 120 116 117 123 131 139 146 149 148 145 141 138 136 137 141 145 150 154 157 158 156 152 146 138 129 120 112 
115 118 123 130 136 143 149 153 156 156 155 152 147 141 134 129 126 127 130 135 142 148 152 151 147 139 128 116 106 99 96 99 105 115 126 138 147 153 156 156 153 148 143 137 132 126 121 114 108 101 95 91 90 93 101 113 126 138 147 151 152 150 148 147 148 152 156 159 160 156 149 139 130 122 120 122 128 136 143 147 147 145 140 135 131 130 131 134 137 141 143 143 142 139 134 129 124 119 116 114 
123 130 137 143 149 152 154 155 154 152 150 147 143 139 135 131 130 130 133 138 144 148 150 149 143 133 122 110 101 96 95 100 109 120 132 144 152 156 157 155 151 146 140 136 131 126 121 115 107 99 93 88 88 91 99 111 124 135 142 145 143 140 136 134 136 139 145 149 151 149 143 136 129 125 124 127 133 140 145 146 144 139 132 126 121 119 120 122 125 127 127 126 123 119 115 112 110 110 112 117 
129 139 147 153 156 156 155 152 149 146 142 140 137 135 132 131 130 132 135 139 144 148 149 146 139 129 117 106 98 94 95 101 111 124 137 147 153 156 154 150 145 140 135 132 129 126 123 117 110 102 95 91 90 93 101 111 122 132 136 136 132 126 121 118 119 123 128 134 137 137 135 131 127 126 127 132 138 143 146 145 140 132 123 115 110 107 107 109 111 112 112 110 107 103 100 99 100 104 111 119 
133 143 151 156 157 155 152 147 142 137 134 131 130 129 129 128 129 131 135 139 144 147 147 144 136 126 114 103 96 93 95 102 113 126 138 148 153 153 150 144 137 132 128 126 126 126 125 121 116 109 102 97 96 98 105 114 123 129 131 128 121 113 106 102 102 105 111 117 122 124 125 124 124 126 130 136 141 145 146 142 134 124 114 105 100 97 97 99 101 102 102 100 97 94 93 93 96 102 111 122 
134 143 149 152 152 149 144 139 133 128 125 124 123 123 124 125 126 129 132 137 141 145 145 142 135 125 113 102 95 92 94 101 112 125 137 146 150 149 145 137 130 124 120 120 122 125 127 126 123 118 112 107 105 106 111 118 125 128 127 122 113 103 95 90 89 91 96 102 108 112 115 118 121 126 132 138 143 146 144 138 129 117 106 98 93 91 92 94 97 99 99 98 96 94 93 95 98 105 113 124 
133 139 143 144 143 139 134 129 125 121 119 118 118 119 119 120 121 123 127 132 138 142 144 142 136 126 115 104 96 92 94 100 110 122 134 143 147 146 140 132 124 117 114 115 118 124 128 131 130 127 122 118 115 116 119 124 128 130 127 120 110 99 90 84 82 84 88 93 98 103 108 113 118 125 132 139 144 145 141 134 123 111 101 94 90 90 92 96 100 103 105 105 104 103 102 104 107 111 118 125 
129 131 132 131 130 127 124 121 119 117 117 116 116 115 115 114 115 116 120 125 132 138 142 142 139 131 120 109 100 94 94 98 107 118 130 139 144 143 138 130 121 114 110 111 116 122 129 134 136 135 132 128 125 125 127 130 133 133 130 122 112 101 92 86 83 83 86 90 95 99 105 111 118 125 133 139 143 143 138 129 118 108 99 94 92 94 99 104 110 115 117 119 119 118 118 118 119 121 123 126 
124 122 120 118 117 116 116 116 117 117 118 118 116 114 111 109 107 108 111 117 125 133 140 144 143 138 128 117 106 98 95 97 104 114 125 136 142 143 139 131 122 115 110 110 114 121 129 136 140 140 139 136 133 132 133 136 138 138 135 129 120 111 102 96 92 91 91 94 97 100 105 111 118 126 134 139 142 140 134 125 115 106 100 97 98 103 110 118 125 131 134 137 137 137 136 135 133 131 129 126 
119 113 109 107 107 108 111 115 119 121 123 122 119 115 109 104 101 99 102 108 117 128 139 146 149 146 139 128 115 105 99 97 101 110 121 132 140 144 142 135 127 118 113 112 115 121 129 137 142 143 143 140 138 137 137 139 141 142 141 137 132 125 118 112 107 105 103 103 104 106 109 114 121 128 135 139 140 138 131 123 114 107 103 104 108 115 124 133 141 147 151 153 154 153 152 149 145 139 133 125 
114 106 101 100 101 105 111 118 124 129 130 129 125 118 109 101 95 92 94 99 110 123 137 149 155 156 150 140 127 114 104 99 101 107 118 130 140 145 145 141 133 125 118 115 117 122 129 136 142 144 144 142 139 137 137 139 142 144 146 146 144 140 136 131 127 123 119 116 114 113 115 119 124 131 136 140 140 136 129 121 114 109 109 112 119 129 139 148 155 160 163 164 164 163 161 158 152 144 134 124 
111 103 98 98 101 107 115 124 132 138 139 137 131 122 111 101 92 88 88 93 103 119 136 151 161 164 161 153 139 125 112 103 101 106 115 127 138 146 149 146 139 131 124 120 120 123 129 136 141 144 143 141 137 135 134 135 139 143 147 151 152 153 152 149 145 140 135 129 124 121 121 124 128 134 138 141 140 136 129 121 116 113 115 121 130 140 150 158 163 166 167 167 167 165 163 159 153 144 134 122 
111 104 100 101 105 113 123 132 141 146 148 146 139 129 116 104 93 87 85 89 99 115 134 151 164 171 170 163 151 135 120 108 103 105 113 124 136 145 150 149 144 136 129 124 123 125 130 136 140 142 141 138 133 130 128 129 132 137 144 151 156 160 162 161 159 154 147 140 133 128 126 128 132 137 141 143 141 137 130 123 118 117 121 128 138 148 157 162 165 166 164 163 161 159 157 154 149 141 131 121 
114 108 106 108 113 121 131 140 148 153 154 152 146 136 124 110 98 90 86 88 97 112 131 150 165 174 176 171 159 144 127 113 105 105 111 121 133 142 148 148 144 138 131 127 125 127 131 136 140 141 139 134 129 124 120 120 123 129 136 145 153 160 164 166 165 160 153 145 137 132 129 130 134 139 144 145 144 139 132 125 121 121 125 132 142 150 157 160 160 157 154 150 148 146 145 144 141 136 129 121 
120 117 116 118 123 130 137 145 151 155 157 156 152 144 133 120 107 97 91 90 97 110 128 147 163 174 177 174 164 149 132 117 107 105 109 117 128 137 143 144 142 136 131 127 126 128 132 137 139 140 137 131 124 118 113 111 113 118 125 135 145 153 160 163 163 159 153 145 137 132 130 131 136 141 146 148 146 141 135 128 124 123 126 133 141 147 151 151 148 143 137 133 130 129 130 131 132 131 128 124 
128 128 128 130 132 136 141 145 149 153 155 157 155 151 143 132 120 108 99 95 98 107 123 141 157 169 174 173 165 151 135 120 109 105 107 113 122 130 136 137 136 132 128 125 125 128 132 137 139 139 135 129 122 114 108 104 104 107 113 122 132 141 148 153 154 152 147 140 133 129 128 130 136 142 147 150 148 144 137 130 125 124 126 130 135 139 140 138 132 125 118 113 111 112 115 119 124 127 129 129 
138 139 139 139 139 139 140 140 142 145 149 153 155 155 152 144 133 121 109 101 100 105 116 132 147 160 166 167 160 149 134 120 110 105 105 110 117 123 128 129 128 125 122 121 123 126 131 136 138 138 135 128 121 113 106 101 99 99 103 109 117 125 133 138 140 140 136 132 127 124 125 128 135 141 147 150 149 145 139 132 126 124 124 125 128 128 127 122 115 107 101 97 96 98 104 112 120 128 133 136 
148 149 148 146 143 138 134 131 130 132 137 144 151 156 158 154 145 133 119 108 102 102 109 121 135 147 155 156 152 143 131 119 110 105 105 108 113 118 120 121 119 117 116 116 119 123 129 133 136 137 134 129 122 114 108 102 98 97 97 100 105 111 117 122 125 126 125 122 120 119 121 126 132 139 145 149 149 145 140 133 127 123 121 120 119 117 113 107 100 93 88 86 87 91 99 110 121 131 139 145 
156 156 154 149 142 134 125 119 115 117 123 133 144 154 160 160 154 142 128 114 104 100 102 110 121 132 140 144 142 135 126 117 110 107 107 109 112 114 116 115 113 111 111 112 115 120 125 130 133 135 133 130 125 120 114 108 103 100 97 97 98 101 105 109 112 115 115 115 115 115 118 122 129 136 142 145 146 144 140 134 128 124 120 116 113 108 103 96 90 84 81 81 84 91 101 113 126 137 146 152 
160 160 156 149 139 127 116 106 101 102 108 119 134 147 157 161 158 148 134 118 105 98 97 101 109 119 126 131 131 127 122 116 111 110 110 112 114 115 114 113 110 108 107 108 111 116 121 126 130 132 133 132 130 127 123 119 114 108 104 100 97 97 98 101 104 107 110 111 112 113 116 119 124 130 135 139 141 141 139 135 131 126 121 116 110 104 97 90 84 81 80 82 87 96 107 120 133 144 152 158 
161 160 155 147 135 121 108 96 90 89 95 107 122 139 152 159 158 150 137 121 107 98 95 96 102 109 116 121 122 121 118 115 114 114 115 117 119 119 117 114 110 108 106 107 110 114 118 123 127 130 132 134 135 136 135 132 128 122 115 108 103 99 99 100 103 106 109 111 113 113 114 116 119 123 127 132 135 137 138 137 135 131 126 120 112 104 96 89 85 83 83 88 95 105 116 128 139 149 155 159 
157 156 152 144 132 118 103 91 83 82 86 97 112 130 145 154 155 150 138 124 111 101 96 96 100 105 111 115 117 117 117 117 117 119 122 124 126 125 122 118 114 111 109 108 110 113 117 121 124 128 132 136 140 143 145 145 142 136 129 120 113 107 105 105 107 110 114 116 116 116 114 113 113 115 118 122 127 133 137 140 141 139 134 128 119 110 101 94 90 89 91 97 105 115 126 136 144 150 154 157 
150 149 146 140 130 117 103 91 82 79 82 91 105 122 137 148 151 148 139 127 115 106 101 100 102 106 111 114 116 117 118 120 122 126 129 132 133 132 129 124 120 115 113 112 113 115 117 120 124 128 132 138 144 149 153 154 153 148 141 133 125 118 115 115 117 120 123 124 123 120 115 111 107 106 108 112 119 128 136 143 147 148 145 139 130 120 110 103 99 99 103 109 117 126 134 140 144 146 148 149 
138 140 140 137 130 120 107 95 87 82 84 91 103 118 132 143 148 147 141 132 122 114 109 108 109 112 115 117 119 120 122 124 128 132 136 139 140 139 135 130 125 121 118 117 117 118 120 123 126 129 134 139 145 151 156 158 158 155 150 142 135 130 127 127 129 132 134 134 131 125 117 108 102 98 99 103 111 122 135 146 153 157 156 151 142 132 122 115 112 112 116 122 128 134 138 140 139 138 137 137 
125 129 133 134 132 125 115 104 95 90 89 94 104 117 131 141 147 148 144 137 130 123 119 117 118 119 120 122 123 124 126 129 133 137 141 144 144 143 139 134 129 125 122 121 122 124 126 128 130 132 136 140 144 149 153 156 157 155 151 146 142 139 138 139 142 144 146 144 139 130 119 107 97 92 91 95 104 117 132 147 158 164 165 161 153 144 135 128 125 125 129 133 138 140 139 136 131 126 123 123 
112 119 127 133 135 132 125 116 107 100 99 102 110 121 133 142 148 150 148 143 137 132 128 125 125 125 125 126 127 128 130 133 137 141 144 146 146 144 140 135 130 127 125 125 126 129 132 134 136 137 138 140 142 144 146 147 147 147 145 144 143 143 145 148 152 155 156 154 147 135 121 106 94 87 85 88 97 112 129 146 160 167 170 167 161 153 144 138 136 136 139 142 144 143 137 130 121 113 108 108 
102 111 123 133 139 139 135 127 118 112 109 111 118 127 137 146 152 153 152 148 143 137 133 130 128 127 127 128 129 131 133 136 140 143 146 146 145 141 137 132 127 125 124 126 129 133 137 140 142 143 142 140 138 136 134 133 132 132 133 135 138 142 148 154 160 163 164 161 153 140 124 107 93 84 81 83 92 107 125 143 158 167 170 169 163 156 149 144 143 144 146 148 148 143 134 123 111 101 96 96 
96 107 120 133 141 144 142 135 128 121 118 120 126 134 143 151 155 157 155 151 145 139 133 129 126 124 124 126 128 131 135 138 142 145 146 145 142 137 131 126 122 120 120 123 129 135 141 146 148 148 145 140 134 127 121 117 115 115 117 122 129 138 147 156 163 168 169 165 157 143 126 109 94 84 79 81 89 102 120 137 152 162 165 164 160 154 148 145 144 147 149 151 149 143 132 118 104 94 89 89 
94 106 121 134 143 147 145 139 132 126 123 125 131 139 148 155 159 159 157 151 144 136 129 123 119 117 118 120 124 129 134 139 143 145 145 142 137 131 125 119 114 113 114 119 126 135 143 149 152 152 148 140 130 120 110 103 99 99 102 109 119 131 143 154 163 168 169 166 158 145 129 112 96 86 81 82 88 99 114 130 143 152 155 154 150 145 141 140 141 145 149 151 150 143 131 116 102 91 86 87 
98 110 123 135 144 146 144 138 131 125 123 126 132 141 149 156 160 160 156 149 140 130 121 113 109 107 109 113 119 126 133 139 143 145 144 140 134 126 118 112 107 106 108 113 121 131 141 149 154 155 150 141 129 115 103 93 88 87 91 99 110 123 137 150 159 165 167 164 157 146 131 116 102 92 86 86 90 98 110 122 132 139 141 139 135 131 129 130 135 141 147 150 150 143 132 118 104 94 89 91 
106 117 128 138 144 144 139 132 125 120 118 122 129 139 148 155 159 158 153 145 134 122 112 104 99 98 100 106 114 123 131 139 143 144 142 137 131 123 115 108 103 102 103 108 116 126 137 147 153 155 151 142 130 115 101 90 84 83 86 93 104 117 130 143 152 158 160 158 153 145 134 122 110 101 96 94 96 101 108 115 121 124 124 122 118 116 116 119 126 135 143 149 150 145 136 123 111 102 98 99 
117 126 135 142 144 141 133 124 116 111 110 114 122 133 143 151 155 155 149 140 128 116 104 96 92 91 94 101 110 120 130 138 142 143 141 136 129 121 114 108 103 101 102 105 112 121 131 141 148 152 150 143 132 118 105 94 87 85 87 92 102 112 124 134 142 147 149 149 147 143 136 129 121 114 109 106 106 107 109 111 112 112 109 106 103 101 103 108 117 128 139 147 150 147 140 130 120 113 109 111 
