P2
100 100
255
130 153 174 188 190 179 153 119 87 65 57 61 77 106 140 170 186 189 178 152 116 81 56 43 38 40 47 60 80 106 131 151 161 162 155 142 126 109 95 85 79 76 76 79 87 100 117 135 149 158 160 152 137 116 95 78 66 58 53 52 55 65 80 100 120 138 152 164 171 173 169 159 148 137 128 119 111 101 89 77 67 58 51 45 42 41 46 59 83 116 151 175 186 183 168 145 122 107 104 112 
165 181 194 198 192 173 139 100 69 50 44 47 62 89 125 158 179 185 175 151 117 84 60 48 44 47 55 68 86 106 124 137 142 140 134 125 117 112 109 108 106 104 99 95 92 92 98 107 119 131 140 145 144 137 127 114 101 89 77 68 62 61 65 73 85 99 114 131 149 164 174 178 177 174 169 162 150 133 110 86 66 51 41 35 32 33 38 51 74 107 143 169 182 183 174 160 146 138 139 149 
190 201 207 205 193 167 128 87 57 41 36 40 54 80 116 152 176 185 178 158 129 99 76 64 61 65 74 87 101 113 121 123 120 114 109 106 108 115 125 135 141 140 133 120 105 91 84 83 89 101 117 134 149 157 159 155 145 131 113 94 76 63 57 56 60 68 81 100 125 152 175 189 197 200 199 194 183 163 134 101 72 51 39 33 31 33 40 54 77 107 139 162 174 176 170 162 157 158 165 177 
203 211 214 209 194 163 121 79 51 37 33 38 52 79 116 152 178 188 185 170 148 123 104 94 93 98 107 117 125 127 122 111 99 90 85 87 97 116 140 160 172 174 166 148 123 96 76 66 66 76 94 121 149 171 184 187 183 171 151 124 95 71 55 47 45 49 58 77 106 141 173 195 207 214 215 212 203 185 155 118 83 58 44 38 38 43 52 68 90 115 139 154 160 158 153 150 152 161 175 190 
206 215 217 211 193 161 116 75 49 37 35 41 57 86 123 158 182 193 192 182 167 150 137 132 133 139 147 153 152 143 125 102 82 69 65 69 86 114 148 177 194 199 192 173 142 106 75 56 51 57 76 106 144 177 198 207 207 199 180 150 114 80 57 44 39 40 47 65 94 133 170 196 211 219 221 219 212 196 169 132 96 70 56 52 55 63 77 94 113 130 141 144 139 131 124 124 131 148 170 190 
202 213 216 210 191 158 114 75 51 40 41 50 70 100 136 167 187 195 195 188 179 170 165 165 169 176 181 182 175 157 128 96 70 54 49 55 74 107 148 184 205 213 208 191 159 117 78 53 43 46 62 94 137 177 203 216 219 213 196 167 126 87 60 44 38 38 45 62 91 130 167 194 210 217 220 218 212 197 174 142 110 87 76 76 84 98 114 130 143 148 145 132 115 100 91 91 102 124 153 181 
193 208 213 206 187 153 111 75 55 47 51 65 88 120 151 175 189 192 190 184 179 176 177 183 191 198 202 200 190 167 131 92 62 45 39 45 63 98 143 184 209 219 217 203 173 129 85 54 40 40 54 85 130 174 203 218 222 217 201 172 131 91 63 47 42 43 51 69 97 133 166 189 203 209 211 209 202 189 170 145 122 108 104 111 124 140 156 167 171 165 148 122 94 74 63 63 73 96 130 166 
181 200 206 200 179 146 107 77 60 58 67 86 113 141 165 179 183 180 173 167 163 165 173 185 197 206 211 209 198 173 134 90 57 39 33 37 54 88 135 180 208 221 221 210 184 142 94 59 41 38 51 80 124 169 200 216 219 213 196 166 127 91 66 54 52 56 67 86 112 140 165 181 190 193 192 188 181 170 155 140 130 127 134 147 163 178 190 195 192 178 150 113 79 56 45 44 53 74 108 148 
169 191 197 189 168 135 101 78 68 73 88 112 138 160 173 175 169 157 144 135 132 138 153 172 191 205 212 212 201 177 137 93 58 38 31 34 49 80 127 173 205 220 223 214 192 154 107 68 47 42 53 80 122 165 195 209 211 202 182 151 116 87 70 65 70 80 95 114 133 151 164 169 169 165 160 154 147 139 132 128 131 141 157 175 191 203 210 212 205 185 150 107 69 46 35 34 41 59 92 133 
160 181 186 176 152 122 94 79 78 90 113 139 160 173 174 163 145 124 106 96 94 103 122 148 175 196 208 210 202 180 144 100 64 42 33 35 48 76 120 166 199 217 221 216 198 165 122 83 59 52 61 86 124 162 187 198 195 182 158 129 101 83 77 83 96 114 132 147 158 163 161 153 141 129 119 112 107 104 105 112 126 147 171 191 206 216 221 220 210 188 149 102 64 41 31 29 36 53 83 123 
155 174 175 160 135 107 87 80 89 110 137 162 177 180 169 146 117 91 72 62 62 70 90 119 152 180 198 205 201 184 153 113 77 54 43 42 53 78 117 160 192 211 217 214 201 175 138 102 78 70 77 99 131 160 178 182 173 153 128 103 85 79 86 104 128 151 168 178 180 174 159 137 114 95 83 76 74 76 83 97 119 147 175 197 212 221 224 222 211 187 147 99 60 39 30 29 37 54 83 121 
156 169 165 145 118 94 81 83 100 128 158 179 187 181 160 126 92 65 48 41 41 49 65 92 127 160 184 197 198 187 165 133 101 76 63 59 66 86 118 153 182 200 208 207 198 179 152 123 102 95 101 118 141 159 167 161 144 121 97 79 71 76 95 124 156 180 195 200 195 181 157 125 94 72 60 55 55 60 69 86 111 142 172 196 211 220 223 221 209 184 142 95 59 39 31 32 41 61 91 127 
162 168 156 132 104 83 77 87 112 145 174 191 193 180 150 110 73 49 36 31 31 38 51 74 105 139 167 185 192 188 176 155 131 110 95 89 90 102 122 146 167 182 190 192 187 176 159 141 127 123 128 139 152 158 155 140 117 92 72 61 61 75 103 140 175 199 210 212 204 186 156 119 86 63 52 48 50 55 65 81 104 133 162 187 204 214 218 215 203 177 136 91 58 40 35 38 51 74 106 140 
170 168 150 121 93 76 76 92 123 158 186 199 197 178 142 99 63 41 30 27 29 35 47 65 91 121 148 169 180 185 182 174 162 149 137 128 123 122 127 135 145 154 161 165 166 163 157 151 147 147 151 157 160 156 143 121 95 72 57 51 56 74 107 148 184 206 216 216 207 188 158 121 88 66 56 54 56 62 69 80 97 120 146 169 188 200 206 205 193 167 128 87 58 43 40 47 64 92 126 155 
178 168 143 111 84 71 75 97 132 168 194 204 199 177 139 94 59 39 31 30 33 41 51 66 85 107 128 147 162 173 181 184 184 180 174 165 154 141 129 121 117 118 121 127 133 140 146 152 157 162 166 167 164 153 133 108 83 63 52 49 56 75 108 148 183 205 214 214 205 187 160 127 99 81 73 73 75 78 81 85 93 105 123 143 161 177 186 187 177 154 119 84 59 48 48 60 82 114 147 170 
182 166 136 102 77 67 75 100 137 174 198 207 201 178 140 96 62 44 37 39 46 55 66 76 87 98 110 122 137 153 170 184 194 199 197 190 176 154 128 105 89 82 83 88 98 112 129 145 158 167 171 169 161 147 126 103 81 64 55 53 60 77 106 141 172 193 202 202 195 180 159 136 117 106 102 103 105 104 99 93 89 91 98 111 128 144 158 164 158 140 112 84 64 56 60 76 103 136 165 181 
182 160 127 93 70 63 72 99 137 175 199 207 201 180 144 103 72 56 53 58 69 81 91 96 97 95 94 97 107 125 149 174 194 205 209 203 187 158 122 89 67 57 55 60 71 89 112 135 153 164 167 163 153 139 122 104 88 76 69 67 72 83 103 128 152 168 177 178 174 165 154 144 137 135 138 141 140 133 119 102 87 78 76 82 94 111 127 139 141 130 111 90 75 70 77 96 125 155 178 187 
179 153 117 84 63 58 67 93 131 168 193 203 199 181 150 116 89 77 79 90 105 119 126 123 111 95 81 75 79 95 122 155 185 204 211 207 189 156 113 76 53 41 39 44 56 75 101 127 147 157 157 151 140 129 119 111 105 100 96 93 93 95 102 113 124 133 139 141 141 141 143 147 154 162 169 173 170 158 136 109 84 68 61 62 70 85 104 121 131 130 119 104 94 92 101 120 146 170 186 190 
175 146 109 76 57 52 61 83 117 153 180 192 191 178 155 130 112 107 115 130 147 160 162 150 126 97 73 59 58 69 95 132 170 196 208 205 185 149 103 66 43 33 32 38 51 72 99 125 143 149 144 134 124 118 117 121 127 131 132 129 122 114 106 99 97 96 97 99 104 113 127 146 165 180 191 194 189 173 145 111 80 61 51 50 57 72 93 116 133 139 136 127 120 119 128 144 164 182 191 190 
172 142 105 73 54 48 54 71 98 130 157 172 175 169 156 143 136 139 151 168 182 190 187 170 137 98 66 48 43 51 73 110 153 185 201 199 178 139 94 58 38 31 32 40 57 82 110 133 145 143 131 116 106 105 114 131 149 163 168 166 155 137 114 92 77 68 64 66 73 89 113 143 171 191 202 204 197 177 144 106 74 55 46 45 53 71 96 123 145 157 158 154 149 148 153 165 179 190 194 189 
174 144 107 75 54 46 48 59 78 102 126 143 151 152 150 149 153 164 178 193 204 208 201 179 141 96 61 41 35 40 59 94 138 175 193 192 170 130 86 54 37 33 37 51 74 103 131 150 153 142 121 101 89 92 109 136 165 185 195 194 182 159 126 92 66 51 45 46 55 73 104 141 175 197 207 207 196 172 135 97 67 50 43 46 57 78 108 139 163 176 179 176 172 169 172 179 188 195 197 191 
180 153 118 85 61 48 45 50 61 77 95 110 122 131 140 150 163 179 194 207 214 215 206 181 140 93 57 37 31 36 53 87 131 168 187 185 162 123 81 53 40 39 50 71 101 134 159 171 166 145 115 89 75 79 100 135 171 197 210 211 201 177 139 97 63 44 36 37 46 67 102 143 178 200 208 204 189 159 121 84 59 46 43 50 66 92 126 158 180 190 192 189 184 180 181 185 192 197 199 194 
188 167 137 103 75 56 48 46 51 59 71 84 97 112 128 147 167 185 201 211 217 215 203 176 134 88 54 37 32 37 56 89 132 168 185 182 158 119 80 56 47 52 71 101 136 167 186 190 179 150 112 80 64 67 89 127 169 200 217 220 212 189 151 104 65 43 34 34 45 68 106 148 182 201 206 197 176 142 104 72 52 44 46 57 78 109 144 173 190 197 196 190 183 177 177 181 188 196 200 198 
197 183 159 128 96 71 56 49 48 51 58 69 83 100 122 145 168 187 201 210 213 210 195 167 125 84 54 40 38 46 68 102 143 174 187 181 157 119 83 62 59 72 99 136 170 195 207 206 189 155 111 74 55 56 76 114 160 197 217 223 217 198 161 113 71 45 35 37 49 75 114 156 187 201 201 187 160 123 87 61 48 45 51 67 93 127 159 182 193 194 188 177 167 160 159 165 176 188 197 201 
202 196 180 155 124 94 72 58 53 53 58 67 81 100 123 146 168 185 197 203 204 198 181 153 115 81 58 49 52 65 91 126 161 184 192 183 157 121 88 72 74 95 129 167 197 214 220 215 196 159 111 70 49 47 63 98 146 188 213 222 219 202 169 122 78 51 40 42 57 86 126 165 190 198 193 173 141 104 73 54 47 49 61 81 111 142 168 182 185 178 165 149 135 127 127 136 152 172 189 199 
203 204 196 178 151 121 94 76 67 65 70 80 94 113 133 152 168 180 186 189 186 177 159 134 105 81 68 66 76 96 124 155 181 196 197 184 157 121 92 80 88 116 154 189 213 225 228 221 201 162 111 68 44 39 51 82 128 174 204 218 218 204 174 130 86 58 47 51 68 99 138 171 190 193 181 156 122 89 65 53 52 59 76 100 129 154 170 174 166 150 130 110 96 88 89 100 120 146 172 192 
196 205 203 192 172 146 120 100 90 89 95 106 120 136 150 162 168 171 169 165 157 146 130 111 94 83 82 92 109 133 159 182 198 205 200 182 152 117 91 84 97 129 168 201 221 230 231 223 203 164 111 66 41 34 42 67 108 156 193 211 215 204 177 136 94 66 56 61 80 111 146 173 186 183 166 138 106 79 63 59 64 78 99 124 148 164 168 160 140 116 92 73 61 56 58 67 87 115 148 177 
182 198 202 197 183 163 142 126 119 120 128 140 152 162 169 171 167 158 146 133 121 109 98 89 84 88 101 121 145 169 189 203 210 209 198 175 142 107 85 80 96 129 170 202 222 230 231 224 203 164 112 66 40 31 35 55 90 137 178 202 209 200 177 140 101 75 65 71 91 120 150 170 176 168 148 121 95 77 70 74 86 106 129 151 166 171 164 144 115 86 63 48 39 36 37 45 60 86 119 155 
160 182 191 190 181 167 153 144 143 149 160 171 180 185 185 178 162 142 119 100 86 76 71 70 77 93 118 147 174 194 207 214 215 208 191 162 125 92 72 70 86 118 159 193 215 226 228 221 202 164 113 67 40 30 32 47 77 121 163 191 200 195 174 140 106 82 74 80 99 124 148 161 162 150 130 109 91 84 87 99 117 139 160 175 182 178 161 132 96 66 45 33 27 25 26 32 43 63 92 128 
134 158 170 172 166 157 149 148 155 167 181 192 199 201 195 180 156 125 95 73 60 53 52 57 71 96 131 166 192 209 217 219 215 202 177 142 104 74 59 57 70 98 136 173 200 215 220 216 198 163 115 71 44 32 33 45 71 110 151 180 191 186 167 138 107 87 80 87 103 123 140 148 144 132 117 103 97 100 112 131 152 171 186 194 195 185 162 127 89 58 39 28 23 21 22 26 34 48 72 102 
111 131 142 144 139 133 132 138 153 171 189 202 208 208 199 180 148 111 78 56 44 39 41 49 67 98 139 176 202 215 220 219 209 190 158 119 83 58 46 45 54 75 107 143 175 196 206 205 191 161 119 78 52 40 39 50 73 108 145 171 182 177 159 132 106 89 84 90 103 118 129 132 128 119 110 106 110 123 142 162 180 194 203 206 203 190 167 132 93 62 43 32 26 24 24 26 32 43 61 85 
97 110 116 114 108 104 106 117 137 162 185 201 209 208 198 175 140 99 66 46 36 33 35 45 65 100 143 181 205 216 219 213 199 172 135 96 65 46 37 36 42 56 78 109 140 166 182 187 179 157 124 91 67 56 55 66 87 117 147 168 175 167 148 124 101 88 85 90 100 111 119 120 116 112 111 117 130 148 168 186 199 208 212 211 206 194 174 143 108 79 58 45 38 35 34 35 40 48 62 79 
98 102 100 92 83 78 80 92 114 142 170 190 201 202 191 167 131 92 61 43 34 31 35 45 67 103 146 182 204 214 213 203 182 150 111 76 52 38 32 31 35 43 57 79 105 130 151 162 162 151 130 108 91 83 84 94 113 136 158 170 170 158 138 114 95 85 83 89 97 106 112 113 113 114 120 132 150 169 187 199 207 211 211 209 203 194 179 158 132 107 87 74 65 59 57 57 61 68 77 89 
115 110 98 84 71 63 62 71 89 116 144 168 183 186 178 156 123 89 62 45 37 36 40 52 75 110 150 183 201 207 203 188 161 125 89 61 44 35 31 31 33 38 47 60 78 98 118 134 142 143 137 128 121 119 122 132 146 161 172 175 168 151 128 105 88 81 81 87 96 104 110 113 116 122 133 149 167 183 195 203 205 204 201 196 191 186 179 169 156 142 129 118 109 102 98 97 99 103 109 114 
142 129 110 89 71 58 54 58 70 89 114 137 154 162 158 142 118 92 70 57 50 49 54 67 90 123 157 182 195 197 187 166 135 101 71 51 41 36 36 37 39 43 48 55 65 79 94 109 123 133 140 145 149 154 160 168 176 183 185 180 167 145 119 97 83 78 80 87 97 106 113 119 125 134 147 162 177 188 194 195 191 184 176 169 165 165 168 172 174 173 170 165 159 154 149 147 146 147 148 147 
169 154 132 106 83 65 55 53 57 69 85 104 120 131 134 129 117 102 89 80 75 75 81 94 115 140 165 181 186 181 164 138 108 80 59 47 43 44 47 52 57 60 63 65 68 74 81 92 106 122 138 154 168 178 187 193 197 197 194 183 164 139 113 92 80 77 82 90 101 111 120 128 135 145 157 169 178 182 181 174 162 148 136 127 126 133 146 164 181 192 197 199 197 194 191 188 185 184 181 177 
187 174 155 131 105 82 66 57 54 57 65 77 90 102 113 119 122 121 118 115 113 115 120 130 144 159 172 177 173 159 137 110 84 64 52 49 52 60 70 81 89 94 95 92 87 83 81 84 93 109 130 153 173 188 198 204 206 203 196 181 159 133 107 89 80 80 87 98 109 120 129 136 143 151 159 165 168 165 155 140 122 104 90 83 84 95 117 147 176 198 211 216 217 215 213 209 206 202 199 195 
194 187 174 156 133 109 87 70 60 54 55 59 68 81 97 115 132 144 151 155 156 158 161 165 170 174 175 169 155 134 109 85 66 54 51 56 68 86 106 123 135 141 139 131 118 103 90 83 85 96 116 141 166 185 197 203 204 200 190 173 151 125 104 90 86 89 98 110 121 130 136 141 144 148 151 152 148 137 122 102 83 67 55 50 52 64 89 126 165 195 213 221 224 222 219 214 209 204 201 198 
188 188 185 176 161 141 117 94 74 60 53 52 57 70 90 116 144 165 179 187 190 190 190 189 187 182 172 156 134 109 85 66 55 51 55 69 91 119 146 167 179 184 181 170 152 128 104 86 79 84 99 123 148 170 184 191 192 186 175 157 137 117 102 95 97 104 115 126 135 140 141 140 139 137 135 130 121 107 90 72 56 43 35 32 34 45 68 105 150 186 208 218 221 218 211 203 195 189 186 186 
168 179 187 189 183 170 149 123 97 74 59 52 54 65 88 120 154 181 197 206 208 208 205 200 192 180 163 140 114 89 69 56 50 53 64 87 119 152 180 198 208 211 208 197 178 149 117 91 76 74 84 102 125 146 161 167 167 160 149 134 119 108 103 106 114 126 137 146 150 149 143 135 127 120 114 106 96 83 68 54 41 32 27 24 27 36 56 90 134 173 198 208 208 201 190 176 164 156 154 159 
139 161 181 194 197 192 177 154 124 94 71 58 57 67 91 126 162 190 206 214 216 213 208 200 187 170 148 123 98 76 61 53 52 60 79 109 145 178 201 215 222 224 220 210 191 162 127 95 76 70 75 87 104 120 131 135 132 125 116 106 100 100 107 120 136 150 161 166 164 156 142 126 112 101 93 86 78 69 58 47 38 31 26 25 27 35 53 83 122 159 181 188 184 171 152 134 118 110 110 120 
107 139 171 193 204 205 197 179 151 118 89 70 64 72 95 130 166 193 208 214 214 209 201 189 173 153 131 108 88 73 63 59 63 76 99 131 166 194 212 222 227 227 222 212 193 164 130 99 80 73 75 83 93 101 105 103 98 91 84 81 84 94 113 136 157 173 182 183 175 160 138 115 97 85 78 74 71 66 60 53 45 39 35 33 35 43 58 84 116 144 160 161 149 130 108 88 74 68 70 83 
83 120 159 189 206 212 209 196 173 142 109 85 75 80 100 131 164 188 202 206 203 195 183 167 150 132 115 100 88 79 75 76 83 99 123 153 181 203 216 222 224 222 216 204 184 158 128 103 89 85 87 93 97 96 91 82 73 66 62 63 72 91 120 150 175 191 197 194 183 162 134 105 85 73 70 71 74 76 76 72 66 60 55 53 55 62 76 96 118 134 139 130 112 90 70 55 45 42 45 58 
69 106 149 184 205 214 214 205 188 160 128 101 86 87 102 127 155 175 186 187 180 168 153 137 123 111 104 100 98 98 100 104 113 128 148 171 191 205 213 216 215 209 199 184 164 142 122 108 104 107 113 117 116 107 92 75 61 51 48 52 65 90 126 162 189 203 207 202 187 162 128 97 76 67 68 76 88 98 105 106 102 97 91 88 89 95 105 118 128 131 123 105 84 63 48 37 31 30 34 46 
65 99 141 178 201 212 214 208 194 171 142 114 96 92 100 118 138 153 159 156 146 132 117 105 98 97 102 110 118 126 132 138 146 156 169 183 194 201 204 202 195 184 170 152 135 120 113 115 124 137 147 151 146 130 105 78 57 45 41 46 61 90 131 170 197 210 213 206 189 159 123 91 71 66 73 89 109 129 142 148 148 144 139 135 135 137 141 145 144 133 114 90 67 50 38 31 28 28 32 43 
67 98 135 169 193 205 208 205 193 174 148 121 102 94 96 105 116 123 125 119 108 96 85 80 82 92 109 127 144 156 164 168 172 176 181 186 189 189 186 177 164 148 129 113 101 97 104 122 145 166 180 184 177 157 125 89 60 44 38 42 58 90 133 175 202 214 215 207 187 156 117 86 69 68 81 105 134 159 175 183 185 183 179 176 174 173 172 168 158 139 112 84 62 46 37 33 32 33 38 48 
76 100 129 157 178 190 194 192 183 167 145 122 103 92 89 91 94 95 92 86 77 69 65 67 78 98 123 148 168 180 186 188 186 184 181 179 175 169 158 143 125 106 89 77 72 78 97 128 162 188 203 208 201 181 146 103 67 45 37 40 57 89 134 176 203 215 215 205 183 150 112 83 70 73 92 122 154 180 196 204 206 204 202 199 196 193 189 181 166 143 114 86 64 51 45 43 43 46 51 61 
90 104 122 140 155 165 170 170 164 153 136 118 101 90 83 80 77 75 70 64 59 56 57 66 85 112 142 168 186 195 197 193 187 178 170 161 152 141 126 109 90 73 60 53 54 66 93 133 174 202 218 222 216 198 163 117 74 48 38 40 56 89 134 176 202 213 212 200 176 141 106 81 73 81 104 137 169 191 204 210 211 209 206 203 200 197 192 183 167 145 117 92 74 65 61 63 66 70 75 81 
109 109 112 118 125 131 136 139 138 133 124 112 99 89 80 74 69 64 59 54 52 53 60 75 100 130 160 182 195 198 195 186 174 160 147 135 124 112 99 83 68 54 45 41 44 60 91 136 180 210 225 229 224 207 175 127 81 52 40 41 57 90 134 174 199 208 205 190 164 131 100 81 78 91 117 148 176 194 202 204 202 199 195 191 189 187 183 175 162 144 123 104 92 88 90 95 101 107 109 109 
126 113 102 96 94 97 101 107 112 114 114 109 101 93 84 75 68 62 57 55 55 60 72 93 121 150 175 190 196 193 182 166 147 130 116 106 98 91 83 72 60 48 40 37 41 56 88 134 180 211 226 231 227 211 180 133 87 56 43 45 62 94 136 172 193 200 193 175 149 118 94 83 87 104 130 157 177 188 190 186 180 173 168 165 164 164 163 160 153 142 130 120 116 119 126 135 143 147 146 139 
140 114 92 77 71 70 75 84 94 104 112 114 111 104 95 86 77 69 65 64 67 76 92 116 143 168 185 192 189 177 158 135 113 96 86 82 81 82 81 75 65 54 45 40 42 55 84 128 174 206 223 229 224 209 179 135 90 61 50 54 72 104 141 171 186 187 176 155 130 106 91 89 100 120 143 163 174 175 168 157 144 134 128 127 129 134 139 143 143 141 138 137 141 149 160 171 178 180 175 162 
146 113 84 65 57 56 62 74 89 106 120 128 129 124 116 105 95 86 82 81 87 99 117 140 163 180 188 187 175 153 127 101 81 69 64 67 76 86 93 93 85 72 58 48 46 55 78 117 161 194 213 220 216 201 171 131 92 68 61 69 90 120 150 171 178 172 155 132 110 94 90 98 116 137 157 168 168 159 141 122 105 94 89 90 97 107 119 129 137 142 146 152 161 172 184 193 199 200 192 174 
147 109 78 58 51 51 60 76 98 120 138 149 153 149 141 131 120 111 106 106 112 124 142 160 176 186 186 176 156 127 97 73 57 51 53 63 80 101 118 124 117 101 81 63 54 56 71 101 139 173 194 202 198 183 155 122 93 77 78 91 114 141 162 172 169 153 131 108 92 86 93 111 134 156 170 173 163 142 116 92 74 65 63 68 78 93 109 124 136 145 154 163 174 185 196 204 209 208 199 179 
143 104 74 56 50 55 68 90 117 142 161 172 176 173 166 156 146 136 131 130 135 146 159 173 183 186 181 164 137 104 75 54 44 42 49 66 93 124 148 159 155 138 112 85 66 59 65 84 113 142 162 171 168 154 131 108 92 89 99 119 143 163 174 173 158 134 108 88 79 82 99 125 153 173 182 177 160 131 99 73 57 51 52 60 73 91 110 126 139 149 157 167 178 189 200 207 211 209 199 177 
137 100 71 57 55 64 84 111 141 166 183 191 193 190 184 175 164 155 148 146 149 157 167 177 183 183 173 153 122 89 62 46 39 40 51 75 110 148 176 189 187 171 143 110 82 65 61 70 87 107 123 131 128 118 104 93 91 102 122 147 169 182 183 171 147 116 89 73 70 81 107 139 169 187 191 182 159 126 91 66 52 49 53 64 80 99 117 132 142 148 154 162 173 186 197 205 209 206 195 172 
129 94 70 59 62 77 103 135 165 187 199 204 203 199 192 182 171 160 152 148 149 155 164 172 178 177 167 147 117 85 60 45 40 43 57 86 126 167 195 208 207 194 169 135 100 75 63 62 70 81 90 94 91 86 80 81 91 113 142 169 187 194 187 166 134 100 74 62 65 82 114 150 180 196 198 187 161 126 91 67 56 55 62 75 92 110 125 134 138 139 142 149 160 175 189 199 204 201 189 164 
120 89 68 62 69 90 122 156 184 201 209 210 207 200 190 177 163 151 141 136 136 142 151 161 169 171 165 147 121 91 67 52 46 50 66 97 139 179 205 216 217 207 186 154 118 88 71 64 64 68 71 71 68 65 65 73 92 122 156 183 197 198 185 157 120 85 63 55 62 83 119 157 186 201 201 188 163 128 96 74 65 66 75 89 105 118 126 128 125 121 120 126 140 159 178 191 197 195 181 155 
110 82 65 63 74 99 134 170 195 208 213 211 204 193 178 160 143 128 117 112 113 120 132 147 160 167 166 155 134 108 83 65 57 59 75 106 146 183 207 217 218 210 193 166 134 105 86 76 72 71 69 65 60 57 59 70 93 127 163 188 199 195 176 143 104 72 54 50 59 83 120 159 187 200 199 186 162 130 102 84 77 81 90 102 113 119 119 113 104 97 94 101 117 141 165 183 191 187 172 144 
99 74 61 61 74 102 139 174 198 210 212 207 195 178 156 133 114 99 89 86 88 97 113 133 153 167 172 168 153 130 105 84 71 70 82 109 146 179 201 212 213 207 193 172 147 124 107 98 93 89 83 74 66 60 61 72 96 130 164 187 194 186 162 126 88 61 47 46 57 81 117 155 182 193 192 178 156 129 106 94 91 96 104 111 114 112 104 93 81 73 71 79 98 126 155 176 185 181 162 132 
88 65 55 56 69 97 134 170 195 206 207 198 180 156 128 103 84 72 65 64 68 80 99 124 150 170 181 182 173 154 129 104 86 79 86 107 137 166 187 198 200 196 185 171 155 141 133 129 126 121 111 98 83 72 69 78 100 131 161 181 185 172 144 107 74 52 42 44 55 78 111 145 169 179 176 163 143 123 108 102 104 109 114 115 110 100 86 73 62 55 56 67 89 121 152 174 182 175 153 121 
78 57 48 49 61 86 123 160 186 199 198 185 162 131 100 76 60 52 49 50 57 71 94 123 153 176 189 193 188 173 148 121 97 85 85 99 121 145 164 175 179 176 170 163 157 154 156 158 160 156 146 129 109 93 84 88 106 132 158 173 174 158 128 93 64 47 41 44 56 77 105 132 151 157 152 139 124 112 106 108 114 121 123 117 104 88 71 58 49 47 51 66 92 126 158 178 183 173 146 111 
70 50 41 42 52 74 108 145 175 188 187 171 142 108 78 57 46 41 40 44 53 70 97 130 161 184 197 201 196 182 158 129 102 85 80 86 101 119 135 145 149 149 148 148 152 160 171 180 185 184 176 159 137 115 102 102 114 135 156 167 165 147 118 86 62 49 45 50 62 80 102 120 131 131 123 112 103 99 103 113 124 132 131 120 101 81 63 51 46 47 57 78 108 143 171 187 188 172 141 103 
63 44 36 36 45 63 94 131 162 178 177 159 128 92 64 47 38 36 37 44 56 78 108 142 172 192 202 204 198 182 157 126 98 80 73 74 83 96 108 116 120 122 125 132 144 160 177 191 199 200 193 178 156 134 118 114 123 140 157 165 162 145 119 91 70 60 58 65 76 91 105 114 114 107 97 88 84 89 101 118 134 143 141 127 105 82 64 54 52 59 75 102 134 166 188 198 194 174 138 97 
59 40 33 33 40 57 85 122 154 172 171 152 120 85 59 43 36 35 39 48 65 91 125 158 183 198 204 202 192 173 146 115 89 73 66 67 74 83 92 98 101 104 109 119 136 156 177 192 201 203 197 183 163 142 127 123 132 147 161 169 166 153 132 109 92 84 85 92 102 112 118 115 105 91 78 71 72 82 102 126 146 157 154 140 117 94 77 69 71 83 106 135 165 189 203 207 199 175 136 92 
56 39 32 32 39 56 84 121 153 171 171 153 122 87 60 45 38 38 44 58 80 111 145 173 192 201 202 195 179 156 127 99 78 66 63 67 74 84 91 96 98 100 104 113 130 150 170 186 194 195 188 174 155 137 126 126 137 153 168 177 176 168 153 137 126 121 123 130 137 141 137 124 104 84 69 62 67 82 107 136 159 171 170 157 137 116 100 95 102 119 143 169 191 207 214 213 202 175 133 89 
56 39 34 35 44 63 92 128 159 176 177 161 131 97 69 52 45 46 55 73 101 133 164 186 198 201 195 181 159 132 104 82 68 64 66 75 87 98 107 111 111 110 111 116 128 144 159 171 176 175 166 151 135 121 116 122 138 158 176 186 188 184 176 167 161 160 163 168 172 170 159 139 111 85 67 62 69 88 117 148 172 183 183 174 158 141 130 128 137 155 175 194 209 217 220 215 201 172 129 86 
57 44 40 45 57 79 110 144 171 186 186 172 146 114 85 66 58 61 73 95 125 156 180 195 200 196 182 161 133 105 82 68 62 66 76 93 110 125 135 138 136 131 127 126 129 137 144 149 149 144 133 119 106 98 100 113 135 161 181 193 197 197 193 189 187 188 191 195 196 191 177 153 122 92 73 68 77 99 131 161 183 193 193 186 174 161 154 155 165 180 195 208 216 220 219 212 194 164 123 84 
62 54 54 63 80 105 136 164 185 196 195 184 162 133 105 86 78 82 97 121 150 175 192 199 197 186 164 136 106 81 65 59 61 73 93 117 140 157 166 167 163 155 146 137 132 129 128 125 119 109 98 87 78 76 84 102 130 159 182 196 202 203 201 200 200 202 205 208 208 202 189 165 133 104 85 81 92 116 146 173 190 197 196 189 178 169 164 167 176 188 200 208 213 214 210 200 181 151 115 83 
72 71 78 93 113 138 163 184 197 203 201 192 175 151 126 109 102 108 124 147 171 188 198 199 191 171 143 110 82 63 54 54 64 84 112 143 168 183 190 190 184 173 160 146 134 122 113 103 92 82 71 63 59 60 71 92 122 153 178 193 199 200 198 198 199 202 206 209 209 204 192 171 143 117 101 99 112 135 161 181 193 195 191 181 170 160 156 159 167 178 188 195 197 196 189 177 157 131 104 83 
87 96 111 130 150 169 186 198 205 206 203 195 181 162 142 129 125 132 148 168 185 197 201 196 181 155 121 88 64 51 47 52 68 96 131 165 188 201 205 202 195 183 167 149 132 116 101 88 76 65 56 50 48 51 62 83 112 143 168 181 186 185 183 181 182 186 192 196 198 195 185 169 148 129 119 121 134 153 172 185 189 186 175 161 147 136 131 133 140 150 158 164 165 162 154 141 125 108 94 86 
105 124 145 164 180 192 200 205 206 204 200 191 178 163 149 139 139 148 163 180 193 200 200 191 171 139 102 71 52 43 43 52 73 106 145 179 200 210 211 206 197 182 164 144 125 108 94 81 69 59 51 46 45 48 59 77 103 130 151 161 162 157 152 148 149 154 161 168 173 173 168 158 146 137 134 141 153 168 179 183 179 167 150 130 113 102 96 97 103 110 117 121 121 117 111 102 94 87 86 92 
123 148 170 186 197 202 204 204 201 196 188 178 166 153 142 137 140 151 166 182 194 200 198 186 162 126 89 61 45 39 41 52 75 111 153 186 205 212 211 204 190 173 152 132 115 101 90 80 70 61 54 49 48 51 60 76 97 117 131 135 130 120 111 106 105 110 118 127 134 138 139 138 137 138 145 156 168 177 181 176 162 142 118 97 80 70 66 67 70 75 79 81 81 79 75 72 71 74 83 100 
136 162 182 194 200 201 199 194 187 179 168 157 144 132 124 122 128 141 158 175 189 195 194 181 156 120 83 56 42 37 39 51 75 111 153 186 204 210 206 195 178 155 133 114 101 94 89 84 79 72 65 59 58 60 68 80 96 109 114 110 100 86 75 69 67 70 76 84 92 99 106 113 122 135 150 165 176 180 177 163 141 114 89 69 56 50 47 48 51 55 57 59 59 58 57 57 61 70 85 108 
141 164 180 189 191 189 183 175 165 154 142 129 117 107 100 100 106 120 139 159 177 187 189 179 156 121 85 58 42 37 39 49 71 107 148 181 199 204 198 183 160 134 110 95 88 88 91 94 94 91 85 79 76 78 84 93 103 109 107 97 81 66 54 47 44 45 49 55 61 69 78 90 107 128 150 168 178 179 168 147 118 90 67 52 43 40 40 43 47 51 54 56 56 56 57 59 64 75 92 115 
138 154 164 169 168 163 155 146 137 126 114 103 92 83 78 78 83 95 113 136 159 176 183 179 161 130 96 66 48 39 39 47 66 98 138 172 192 197 189 170 142 113 91 79 78 85 97 108 115 117 113 108 104 104 108 114 120 120 112 97 78 61 48 39 36 35 36 40 44 50 60 74 95 122 149 168 177 174 157 130 99 72 54 44 40 40 44 50 57 64 69 72 73 74 74 76 80 89 102 119 
128 133 136 136 133 128 122 116 110 104 96 87 77 69 63 61 63 72 87 110 137 162 178 181 171 147 115 83 60 46 42 46 61 89 126 161 182 189 181 160 129 99 78 70 73 86 105 125 138 145 144 140 136 134 136 140 142 139 129 112 91 71 55 45 39 36 35 35 38 43 51 66 89 118 146 166 173 166 146 116 85 62 49 43 45 51 60 72 84 95 103 108 110 110 109 108 108 110 115 121 
113 108 104 100 96 94 93 94 95 95 91 84 75 65 57 51 50 55 66 86 115 147 172 185 183 168 141 109 80 59 48 48 58 81 114 149 173 182 176 155 125 95 74 67 73 90 115 140 158 168 169 166 162 159 159 161 163 161 152 137 118 97 79 65 54 47 43 41 41 43 51 65 88 117 146 164 169 159 135 105 77 59 51 51 59 73 90 109 126 140 149 154 155 154 151 147 141 134 127 119 
98 85 76 71 70 72 77 86 95 102 103 97 86 72 59 49 44 44 52 68 97 133 166 188 194 188 169 140 107 79 60 53 57 75 104 138 166 178 175 157 129 100 79 72 79 98 125 152 172 182 185 182 177 173 172 173 176 177 173 165 151 134 117 100 86 74 64 57 52 52 58 72 94 122 148 163 165 153 128 99 75 62 59 67 83 106 131 153 170 182 189 192 192 190 186 179 168 154 135 115 
86 69 59 55 56 63 75 92 110 123 128 123 109 89 69 53 43 39 43 56 83 121 161 190 203 204 192 170 139 105 78 62 60 72 97 130 160 176 178 165 141 113 93 84 90 109 136 161 180 189 190 186 180 174 171 173 178 183 186 186 181 172 159 145 130 114 99 85 76 71 74 86 106 131 153 165 164 150 126 99 79 70 74 90 115 143 169 189 202 209 213 214 213 210 205 197 183 164 138 110 
79 61 52 50 54 66 85 109 134 152 160 156 141 116 88 63 47 39 39 49 73 111 156 190 209 214 209 194 168 134 100 76 66 72 93 124 155 175 182 174 155 131 111 101 105 122 145 168 183 189 188 181 171 162 157 159 167 178 188 195 199 197 192 184 173 158 141 124 109 99 98 107 124 144 160 168 165 150 127 103 87 83 93 115 144 173 195 210 218 221 222 221 218 215 209 200 186 164 136 105 
78 63 55 55 62 78 103 133 160 179 188 185 171 146 113 81 56 42 39 46 66 103 149 188 211 220 220 210 190 160 123 91 74 73 89 117 149 173 184 181 168 148 130 119 121 134 153 171 182 186 180 168 153 139 132 134 144 160 178 193 203 209 210 207 201 191 176 160 143 130 126 131 143 157 169 174 169 154 133 111 98 97 110 135 164 190 207 217 221 221 219 216 212 207 201 192 178 158 131 102 
87 74 68 69 79 98 124 154 180 197 205 204 194 173 141 104 72 51 42 45 62 95 141 183 210 222 225 219 205 178 142 106 82 75 85 110 140 166 181 183 175 159 143 132 132 142 157 171 179 178 169 151 130 112 102 102 112 131 155 177 195 207 213 215 213 206 196 182 167 155 148 150 159 169 177 179 173 160 140 120 108 108 121 144 170 191 204 211 212 209 204 197 191 185 179 172 162 147 127 105 
105 96 92 94 103 119 143 168 189 204 212 214 208 193 166 130 93 64 49 47 59 87 130 174 204 220 226 223 212 190 155 116 87 75 80 100 128 154 172 177 172 160 146 137 135 143 155 167 172 169 155 133 108 88 76 74 81 98 123 149 174 192 204 209 210 207 199 188 176 165 160 161 168 176 182 184 178 166 148 129 117 114 123 140 160 177 186 189 187 180 171 162 153 147 144 142 140 136 128 116 
132 128 125 124 128 138 153 170 187 200 209 214 213 204 185 155 117 83 60 51 57 79 117 160 194 214 223 223 214 193 160 121 89 74 74 89 112 137 156 163 161 151 139 131 130 137 148 158 163 158 143 119 94 73 60 56 59 71 90 114 140 162 179 189 193 193 188 179 170 162 159 162 169 178 184 186 182 171 155 137 122 115 116 125 137 147 151 150 144 135 124 113 106 102 104 111 120 129 135 135 
162 161 158 153 149 147 151 159 170 183 195 205 210 208 197 175 141 104 74 57 56 70 100 140 177 202 214 216 209 190 158 120 88 71 68 78 97 118 135 143 142 133 124 117 117 123 134 145 151 148 134 112 88 68 55 48 48 54 65 82 102 123 140 153 161 163 160 155 149 145 146 152 162 173 181 185 183 175 161 144 126 113 106 105 106 108 108 103 96 87 77 70 66 67 75 89 109 131 148 158 
187 187 182 173 159 146 136 134 139 152 168 184 197 204 202 188 161 125 90 66 57 62 83 116 152 181 198 203 197 179 148 113 83 67 64 71 85 101 115 121 120 113 104 99 99 106 118 130 138 139 130 113 93 75 61 52 48 48 52 60 72 85 98 110 118 122 123 122 120 120 125 134 147 161 173 180 181 177 166 150 132 113 98 87 81 75 71 65 59 52 47 44 43 48 60 81 109 140 165 180 
203 203 196 182 160 135 114 101 101 110 129 152 175 192 199 194 176 144 107 76 59 57 68 91 122 151 172 181 177 160 133 103 79 66 63 68 79 92 101 105 102 95 87 83 83 90 101 115 127 133 132 122 108 92 78 67 59 53 51 51 55 60 67 75 81 86 89 91 92 95 102 112 126 142 157 169 175 176 170 158 140 119 98 80 66 56 49 43 38 35 32 32 35 42 58 84 119 154 181 197 
212 211 202 184 155 121 91 73 67 72 88 114 144 172 189 194 184 159 123 88 65 55 57 71 93 119 140 151 150 138 117 94 76 68 67 73 82 92 98 98 93 85 77 72 72 77 88 103 118 131 138 137 130 120 107 94 82 70 61 55 51 51 53 57 61 66 70 73 75 78 83 91 104 119 135 151 163 171 172 166 153 133 108 85 65 50 41 34 30 28 28 30 35 46 66 97 135 169 194 207 
215 212 202 181 147 107 74 53 45 47 58 80 112 147 175 189 187 170 138 103 74 57 53 59 73 91 109 121 124 117 104 90 80 76 79 86 96 103 106 102 94 83 74 68 67 71 81 96 115 133 147 154 155 151 142 130 116 100 84 71 62 56 55 56 59 63 67 70 71 71 72 76 83 95 110 128 146 162 172 175 168 152 129 102 77 57 43 35 31 29 30 35 43 58 81 114 150 181 201 211 
210 207 197 174 139 99 65 44 35 34 41 57 86 124 160 182 188 178 153 119 88 66 56 55 62 75 88 100 105 105 100 94 91 93 100 109 118 123 123 115 103 89 77 70 68 71 81 97 118 139 157 169 175 176 173 165 152 135 117 99 85 76 72 72 75 79 82 83 80 75 70 67 68 74 85 103 126 150 170 181 183 174 156 130 101 76 57 45 39 38 40 46 58 75 100 131 161 185 200 208 
197 195 186 166 134 96 64 43 32 29 33 46 70 107 147 176 189 186 168 139 107 81 66 60 62 70 80 91 99 104 106 108 111 118 127 137 145 147 143 132 116 100 86 77 75 78 89 105 126 148 166 180 188 192 191 187 178 165 149 133 119 109 105 105 108 112 114 111 102 88 74 64 58 59 66 81 106 136 165 186 195 193 182 162 135 107 84 67 58 56 60 68 81 98 120 142 163 178 188 194 
171 173 169 156 131 99 70 49 37 31 33 43 65 100 141 174 191 193 182 159 130 103 83 72 69 74 82 93 103 113 121 128 137 146 155 164 168 168 161 147 129 111 96 88 87 92 104 121 140 159 174 186 193 196 197 194 189 180 170 160 151 146 144 147 151 154 153 146 131 109 84 65 53 48 52 64 88 122 158 187 202 207 202 189 169 145 121 102 91 88 91 100 111 123 135 145 153 158 163 167 
134 142 148 145 132 109 84 62 47 39 39 48 68 103 143 176 195 200 193 177 154 127 103 88 81 83 90 101 114 128 140 151 161 170 177 182 184 180 171 155 136 117 104 99 101 110 124 140 157 171 181 187 190 190 189 186 182 178 174 171 171 173 177 182 186 189 187 179 160 130 96 68 50 42 42 52 73 108 149 184 206 215 215 208 195 178 159 142 131 128 131 137 142 145 143 138 132 126 125 128 
95 110 125 136 137 125 105 83 65 53 51 59 79 113 152 182 200 206 202 191 171 146 121 103 93 91 98 110 126 142 157 170 179 186 191 193 190 183 170 152 132 116 107 106 114 128 144 160 173 181 185 185 181 175 168 162 158 157 159 165 174 185 194 202 208 211 209 200 181 148 108 72 49 38 36 43 62 95 138 178 204 217 221 218 210 198 186 174 167 165 166 168 167 159 144 124 105 91 85 87 
66 84 109 132 145 145 131 110 89 73 68 75 96 129 163 190 205 210 208 198 181 157 131 110 97 94 100 114 132 152 169 182 190 196 197 195 189 177 159 139 120 106 102 107 121 141 160 176 186 189 187 180 167 151 136 125 119 121 129 143 162 182 199 211 218 221 220 212 194 161 117 76 49 36 33 38 53 83 125 167 198 214 220 219 214 206 198 191 187 187 188 188 181 166 140 109 81 63 55 56 
50 70 101 133 156 163 156 137 113 94 86 92 113 144 174 196 208 212 209 200 182 156 129 106 92 89 95 109 130 153 173 187 196 199 199 193 182 164 141 118 100 91 91 102 122 147 170 186 194 195 188 172 150 124 102 87 80 82 93 112 139 168 193 210 220 224 224 217 200 169 124 81 51 36 31 35 47 72 110 151 184 203 210 210 206 200 195 192 192 195 197 196 187 167 134 97 66 47 39 40 
45 68 102 139 166 177 173 155 131 109 99 104 124 153 181 200 210 212 207 195 173 145 115 92 79 76 83 98 121 147 170 187 196 199 196 187 170 147 120 97 81 74 78 92 116 145 172 190 198 197 187 166 136 103 76 60 53 54 63 82 111 146 178 202 216 223 223 218 203 174 131 88 56 39 33 35 44 64 94 130 161 181 189 189 185 179 176 177 183 190 197 197 189 167 132 92 59 40 33 34 
50 75 111 148 175 185 179 161 135 112 101 106 125 153 180 199 208 209 202 185 158 126 95 74 63 61 68 83 107 136 163 182 193 196 191 178 157 130 102 80 67 62 67 82 107 138 167 187 197 196 185 161 127 91 63 47 39 39 45 60 86 121 157 186 205 215 218 214 202 177 139 99 67 48 40 40 46 60 81 107 131 147 153 152 147 142 142 148 161 176 189 194 189 169 135 95 62 43 35 37 
66 93 128 161 182 187 177 154 126 102 91 95 114 143 172 193 203 203 193 172 140 105 76 57 49 49 55 70 93 123 152 174 187 189 183 168 145 117 91 72 61 57 62 74 97 126 155 177 189 191 181 158 126 90 63 45 37 35 38 49 68 96 131 163 186 200 206 206 197 178 149 115 86 67 57 54 56 63 74 88 100 108 109 106 101 98 100 111 131 155 176 188 188 173 143 106 74 54 47 51 
93 120 151 175 187 184 167 138 108 84 74 78 96 126 157 182 195 196 184 160 125 89 62 46 40 41 48 61 83 112 141 164 176 178 171 156 135 111 89 73 64 61 64 72 89 112 137 159 174 179 173 156 129 99 73 55 45 40 40 46 57 77 104 132 157 174 185 189 187 177 160 137 114 97 86 80 77 76 76 77 78 76 73 68 64 62 66 79 102 133 162 182 187 178 156 125 95 76 70 76 
