P2
100 100
255
141 172 198 214 217 206 176 129 82 51 38 41 60 98 147 187 210 215 205 178 133 83 47 28 22 22 29 43 66 99 134 160 173 174 165 148 126 102 83 71 65 62 61 64 71 85 104 124 140 151 154 147 131 109 87 68 54 43 36 32 33 41 55 76 103 131 157 180 195 203 201 191 174 154 134 114 95 75 58 45 36 31 28 26 26 30 39 57 88 129 168 193 201 195 174 144 116 100 100 115 
180 201 216 222 218 199 161 110 65 39 29 31 48 82 131 176 203 211 203 178 136 89 54 36 30 31 37 49 66 89 111 127 134 133 125 113 102 94 92 93 95 94 90 84 79 77 80 89 100 113 126 135 138 134 124 110 94 76 59 45 37 34 38 47 63 84 111 141 170 192 204 206 202 193 180 163 140 112 82 56 38 27 21 17 17 19 26 41 69 108 150 179 193 192 179 160 144 137 143 159 
206 219 226 226 216 190 145 92 51 30 22 25 40 73 121 169 199 210 205 184 149 108 75 57 50 52 58 68 78 88 96 98 96 91 86 82 84 93 108 124 136 139 132 116 96 77 66 63 68 80 99 123 146 161 165 160 146 124 97 70 48 35 30 31 37 50 72 103 141 176 201 213 218 216 211 200 181 151 113 75 47 30 21 17 16 18 25 39 63 98 136 164 178 179 172 163 158 161 173 190 
219 228 231 227 212 180 129 77 41 24 19 23 39 71 119 168 199 211 209 195 170 138 111 94 89 91 97 103 104 100 91 80 69 61 57 60 71 94 126 156 176 181 174 152 120 86 61 48 47 56 78 112 150 180 196 199 191 172 141 103 67 43 29 24 25 31 46 74 115 160 195 215 225 228 227 221 207 182 144 100 63 40 28 23 22 26 35 50 72 101 129 148 156 155 150 147 152 166 186 204 
222 231 232 226 207 169 115 65 35 21 19 25 42 76 125 171 201 213 213 204 189 169 152 142 140 143 147 148 140 122 97 72 53 43 40 45 63 96 140 179 203 210 204 182 145 100 62 41 35 41 63 101 149 190 213 222 219 206 178 136 89 53 32 22 19 23 34 58 98 147 189 214 226 232 233 229 220 200 168 125 85 58 44 39 41 48 60 76 96 115 129 133 129 120 114 116 129 153 182 206 
219 230 231 223 201 159 104 58 32 22 22 31 52 89 136 178 203 213 213 208 199 190 183 181 184 188 190 187 174 146 108 71 46 33 30 36 57 95 147 191 217 226 221 203 166 115 69 40 29 33 52 91 145 192 220 232 233 224 201 160 108 64 37 24 19 21 31 53 93 142 185 211 225 230 232 229 222 207 182 147 112 86 73 71 76 88 103 120 133 139 135 121 102 86 78 80 96 127 165 198 
212 226 228 219 194 149 95 54 32 25 29 43 69 108 151 184 201 207 205 200 196 194 197 202 208 214 216 212 197 166 120 75 43 28 24 30 51 92 147 195 222 232 230 215 182 131 78 43 28 29 46 84 139 190 221 234 237 230 210 172 119 71 42 28 23 26 37 60 99 146 184 208 219 223 223 220 213 201 183 160 137 121 115 118 129 142 157 168 172 165 144 112 81 60 49 51 66 97 141 184 
202 220 224 213 185 139 88 52 35 33 43 63 94 131 165 185 193 190 183 177 176 181 191 204 216 224 227 224 210 180 132 81 44 26 21 26 46 86 143 193 223 234 234 222 194 146 91 50 31 28 43 79 134 186 218 233 236 229 209 172 121 75 47 34 32 39 54 80 117 156 186 202 207 206 202 196 189 180 170 161 154 153 158 167 179 190 200 204 201 184 151 107 68 43 32 32 44 72 117 166 
191 213 217 205 175 128 82 53 43 48 65 92 125 155 175 180 173 159 145 136 137 148 168 191 210 224 230 229 218 191 144 90 49 28 20 24 42 81 137 189 220 234 236 227 204 161 106 62 38 33 46 80 132 182 213 227 229 220 198 161 114 74 52 45 50 63 84 112 144 171 187 192 187 177 166 155 147 142 142 147 158 172 187 200 211 220 225 225 217 195 154 102 59 34 23 22 31 55 97 149 
180 205 208 194 161 117 79 58 56 70 96 128 157 175 178 166 143 118 98 88 89 104 130 163 194 215 227 229 221 199 158 105 60 34 24 26 42 78 132 184 216 231 235 229 210 175 125 79 51 44 55 87 134 179 206 217 215 202 176 138 99 71 59 62 77 100 126 152 173 185 187 177 158 136 116 103 96 96 104 122 148 177 201 217 227 234 236 234 223 198 153 96 52 28 18 17 25 45 83 135 
172 196 198 180 145 105 76 66 75 100 133 164 183 188 175 146 110 79 58 49 50 63 90 127 168 199 219 226 222 206 173 125 80 49 35 34 48 80 129 177 210 226 231 227 213 186 145 102 74 64 74 102 141 176 196 200 191 171 141 108 81 67 68 85 112 142 169 187 197 196 184 159 126 95 72 60 55 58 71 95 131 171 202 222 233 239 240 237 224 196 147 89 47 25 16 15 22 41 77 127 
167 187 185 162 127 93 74 76 97 132 167 191 201 194 168 126 83 51 33 26 28 37 58 92 135 176 204 219 221 211 188 151 110 76 57 52 62 87 128 169 199 215 222 220 211 191 161 128 104 95 103 125 152 173 181 175 157 131 102 78 64 63 79 109 146 179 200 211 212 203 181 145 103 68 46 35 33 37 49 73 111 156 195 219 233 239 240 235 221 190 138 81 42 22 15 15 23 42 78 126 
166 180 170 143 108 81 73 86 118 159 192 210 212 197 161 110 64 35 21 16 17 24 38 65 103 147 183 206 215 213 201 177 146 116 95 84 86 101 127 156 180 195 202 203 198 187 170 151 136 131 137 149 163 168 163 145 119 92 69 55 51 61 88 129 171 201 218 223 220 207 180 139 93 57 36 27 25 28 38 58 92 136 179 209 226 234 236 230 214 179 125 72 37 21 15 17 27 49 86 131 
169 173 155 123 90 70 71 93 134 177 207 220 217 197 156 101 54 28 16 12 13 18 29 47 77 116 155 185 202 210 208 197 180 160 141 127 119 119 126 137 149 159 166 170 171 170 166 162 160 161 165 170 171 162 144 116 88 64 48 41 45 61 94 139 182 210 224 227 222 209 182 142 97 62 41 31 28 29 35 49 74 113 154 189 211 223 226 221 202 165 112 64 34 21 17 22 36 62 101 142 
174 168 141 104 74 60 67 95 141 186 214 224 220 198 155 99 53 28 17 14 15 19 27 39 59 87 122 154 180 197 205 207 202 193 181 167 151 135 121 113 111 112 116 122 130 139 150 161 171 178 183 182 173 155 127 96 69 50 39 37 43 61 95 139 180 207 220 223 219 207 186 153 114 82 61 48 42 38 39 46 61 88 122 157 184 201 209 205 186 149 101 59 34 23 23 32 51 83 123 158 
181 164 129 89 61 51 60 91 139 185 214 225 220 199 158 105 60 35 24 22 23 27 32 39 50 66 90 118 147 173 193 206 212 212 206 193 173 144 113 89 75 69 70 75 86 103 126 150 171 184 189 184 171 147 116 86 63 48 42 41 48 64 93 130 166 191 204 209 207 201 187 167 141 117 97 82 70 59 51 48 52 66 88 116 144 167 181 182 168 136 95 60 40 33 36 50 76 112 150 175 
187 161 119 77 51 43 52 81 128 175 207 220 218 201 166 119 77 52 42 40 43 46 48 49 50 55 65 83 108 138 168 194 210 218 217 207 184 147 104 70 50 41 40 44 55 74 103 136 164 180 185 179 162 137 110 86 70 61 57 57 62 72 90 114 140 159 172 179 183 185 184 178 169 157 145 131 113 92 71 56 49 50 60 78 101 125 146 156 151 130 100 73 57 53 61 81 112 147 176 191 
192 160 113 69 44 36 43 67 108 154 190 209 212 201 176 140 107 85 76 76 80 82 79 70 60 52 51 57 73 100 136 173 201 216 220 211 186 144 95 57 36 27 25 28 39 59 89 124 155 172 174 165 147 127 108 95 89 88 88 88 88 88 91 98 107 116 125 134 144 157 172 183 189 191 187 177 158 130 96 67 49 41 42 51 67 89 115 135 143 136 119 101 89 89 100 123 152 180 198 204 
196 161 111 66 39 30 34 52 83 123 161 186 197 195 183 163 143 130 127 129 134 133 123 104 79 57 44 41 48 68 103 147 185 209 217 210 184 138 86 49 29 20 19 24 35 56 87 122 150 162 159 146 128 114 107 109 117 127 132 132 126 114 99 86 78 76 78 85 100 123 153 181 200 211 213 208 191 160 117 77 50 36 32 36 47 68 97 126 147 154 149 140 134 136 147 166 187 204 213 212 
200 165 114 67 38 27 27 38 58 88 121 151 171 181 183 180 175 173 176 181 185 182 168 140 101 66 43 32 33 47 77 122 168 200 212 205 178 131 79 44 26 19 20 28 43 67 100 131 151 155 143 124 107 99 105 123 146 165 176 176 166 144 114 83 61 49 46 50 65 93 133 174 204 220 226 223 208 176 129 81 49 33 27 29 39 61 94 131 160 176 179 177 175 178 185 197 209 219 222 218 
205 172 122 74 42 27 23 27 39 57 81 109 135 159 176 187 195 201 208 213 217 213 199 167 120 74 43 28 26 35 60 104 154 191 206 201 172 124 74 41 26 22 27 40 63 93 126 151 161 152 130 104 86 84 100 130 165 192 205 207 196 171 131 87 54 36 29 31 44 73 118 168 204 224 231 228 212 178 128 79 46 30 25 28 40 64 102 144 177 195 201 201 201 202 207 213 221 226 227 222 
211 183 138 88 50 30 22 22 26 36 51 72 100 132 163 188 204 215 223 229 231 228 213 181 131 79 44 27 23 31 55 97 148 187 203 197 168 120 72 42 30 30 42 64 96 131 161 177 175 154 120 88 69 69 90 129 172 204 221 224 215 190 148 96 55 32 22 23 35 63 111 165 204 224 231 226 207 169 117 70 41 28 24 30 46 75 118 161 191 206 211 211 209 209 212 217 222 227 228 224 
217 195 158 109 67 39 26 20 20 25 34 49 75 111 151 184 207 221 229 234 235 231 215 182 130 79 44 28 25 34 59 103 152 189 203 195 165 118 73 46 38 45 66 99 138 172 193 199 189 159 115 77 56 56 77 119 169 206 226 231 225 203 162 107 60 32 21 21 33 61 110 165 204 223 227 218 194 151 99 58 35 26 26 35 57 92 136 175 199 209 209 205 201 199 201 207 215 222 226 226 
221 207 179 137 91 56 35 24 20 21 27 40 64 101 145 183 207 222 229 233 232 225 206 170 120 73 44 31 32 46 76 120 166 196 206 196 165 118 76 52 49 65 97 139 177 204 216 216 199 163 113 69 46 45 63 104 156 200 224 233 229 211 174 119 68 37 24 23 36 65 114 168 205 221 221 206 173 126 79 46 30 26 31 46 73 112 153 183 198 199 192 182 173 169 172 181 195 209 219 224 
222 216 198 165 123 82 53 36 28 27 31 44 68 106 149 184 207 219 225 225 220 208 185 148 103 66 45 39 47 69 104 148 185 206 211 198 165 119 79 60 63 88 130 174 206 224 231 226 207 167 112 65 40 35 50 85 138 187 218 231 231 216 184 131 78 43 28 28 41 72 121 171 204 216 210 188 148 100 61 38 28 30 40 62 94 133 166 185 187 176 159 140 126 120 124 138 159 183 204 217 
217 220 211 190 156 116 81 58 46 43 49 64 90 125 162 190 206 213 213 208 197 178 151 116 82 58 49 54 72 103 141 178 204 216 215 198 162 117 80 65 75 108 155 196 223 235 238 231 211 170 112 62 35 28 38 67 116 170 208 226 230 219 191 142 89 52 35 34 48 80 127 173 201 208 196 166 122 79 48 34 32 40 58 86 121 154 175 178 165 141 114 90 75 69 73 88 113 146 178 203 
205 217 217 205 182 151 117 92 78 76 83 100 126 155 181 197 204 201 192 177 158 134 107 82 62 54 59 77 108 144 178 204 219 224 216 194 155 109 76 66 80 118 168 207 230 240 241 234 213 171 111 60 31 22 28 51 94 150 195 220 227 220 196 152 99 60 41 40 54 86 130 171 194 196 178 144 101 65 44 38 44 60 86 119 151 173 179 167 138 103 72 51 39 35 38 49 71 104 143 180 
184 205 213 210 197 176 152 132 121 122 131 147 167 185 198 202 197 182 160 134 109 86 67 54 49 55 74 107 146 181 207 222 229 227 214 185 142 96 67 60 77 117 168 208 231 241 242 234 213 171 111 59 30 19 22 39 76 130 181 212 223 219 198 157 107 67 48 45 59 88 128 164 182 181 161 126 89 62 51 53 68 93 124 156 179 189 181 154 114 74 45 28 20 17 19 27 42 68 106 148 
154 183 199 203 197 185 172 162 159 165 175 188 199 208 210 204 186 157 122 90 66 50 40 37 42 60 93 137 178 207 224 232 233 225 206 170 123 79 55 50 67 105 156 199 225 237 239 233 212 171 112 59 30 18 19 33 65 116 169 204 218 216 197 159 110 71 51 49 60 85 120 151 167 165 147 118 90 74 72 83 105 135 165 188 200 200 182 146 98 57 31 18 12 10 11 16 26 44 74 114 
119 151 171 180 180 176 172 172 178 189 201 211 218 221 216 201 171 130 88 57 38 29 25 28 41 68 112 162 200 223 234 237 232 219 192 149 100 61 42 39 53 85 133 180 212 229 234 228 209 170 113 62 32 20 20 32 62 111 163 199 214 212 192 155 108 71 52 49 58 79 108 136 152 154 142 123 107 100 107 125 150 175 197 210 214 208 185 144 93 51 27 15 10 8 9 12 19 31 52 83 
90 116 134 143 146 146 150 160 175 193 209 220 226 225 216 194 156 107 64 37 24 18 18 25 43 78 129 180 214 231 237 236 227 207 171 123 76 46 31 29 39 64 103 150 188 212 222 220 203 167 116 68 39 27 27 41 70 116 165 197 210 206 184 145 101 67 50 47 54 71 96 122 141 148 146 139 134 137 149 167 187 204 216 222 222 213 190 149 99 57 32 19 13 11 12 14 19 27 42 63 
74 89 99 103 104 106 113 129 152 178 201 216 224 223 211 184 140 89 50 27 17 14 16 26 48 90 145 192 221 234 237 231 217 188 144 95 56 33 23 22 29 45 74 114 154 185 201 204 192 163 120 80 54 43 46 61 92 134 174 199 207 199 173 132 90 60 46 43 50 65 87 114 137 151 158 161 165 172 184 197 209 219 225 227 224 215 195 160 116 75 48 33 25 22 22 23 27 34 44 57 
76 80 79 75 71 70 76 91 116 147 176 198 210 212 200 171 125 77 43 24 16 14 18 31 58 104 159 201 224 233 232 221 198 161 113 70 40 25 19 18 23 33 52 81 115 147 169 178 173 155 126 98 80 73 80 98 127 161 189 204 205 190 158 116 77 52 41 40 47 62 85 113 140 160 173 182 189 197 205 213 219 223 224 224 221 214 199 175 141 106 79 62 52 47 46 47 49 54 61 69 
98 90 79 65 54 48 49 59 78 106 138 165 183 189 180 153 113 72 43 27 20 20 26 42 74 122 172 207 224 227 221 202 170 127 83 49 30 21 17 18 21 28 40 58 82 107 129 143 147 142 131 120 115 117 127 145 168 189 204 209 202 180 143 100 65 46 38 39 47 63 88 119 148 171 186 196 203 208 212 215 215 215 213 211 208 205 198 186 167 146 126 110 100 94 91 90 92 95 98 100 
135 119 97 74 54 42 37 40 51 69 94 121 142 153 151 134 105 75 53 39 33 35 44 65 100 145 185 210 219 216 201 173 134 92 58 36 24 20 20 23 26 32 39 49 63 78 94 107 118 126 133 141 150 161 173 187 200 210 215 212 198 170 128 86 57 42 38 41 52 71 98 130 159 180 194 202 206 207 206 203 197 191 185 182 181 183 187 188 186 180 172 165 158 153 150 149 148 149 148 144 
174 155 128 98 69 49 37 33 35 45 60 79 98 113 121 118 106 90 76 66 62 66 78 101 134 169 195 208 208 195 170 135 96 62 40 28 24 25 29 36 42 48 53 57 61 66 72 80 92 108 129 151 173 190 203 212 219 222 220 212 192 158 115 77 53 43 43 50 64 86 113 142 167 184 194 197 197 192 184 173 160 148 138 134 136 146 162 180 193 201 204 204 202 200 197 196 194 193 190 185 
201 186 163 132 98 68 48 36 31 32 39 50 64 81 98 111 118 118 115 111 111 116 128 147 169 189 201 201 189 164 130 94 63 42 30 27 30 38 50 63 75 82 85 83 77 70 65 66 74 91 118 150 180 202 216 223 226 225 219 205 181 145 105 73 56 52 56 68 85 107 132 153 169 179 181 179 172 160 145 127 110 95 85 81 86 102 128 160 189 209 219 224 225 224 222 220 218 216 213 209 
213 205 190 166 135 101 71 49 36 30 30 35 46 62 86 113 137 153 160 163 165 169 177 186 196 202 199 186 161 126 91 61 41 30 28 33 45 64 86 108 125 135 135 126 109 88 71 61 62 76 102 138 173 199 214 221 222 218 208 190 163 129 97 76 68 71 81 97 116 134 149 159 163 161 156 146 133 116 98 80 65 53 45 43 48 64 94 135 176 206 223 231 233 232 230 227 224 221 219 217 
212 212 207 194 171 141 107 76 52 37 31 31 38 55 84 122 158 183 197 202 205 207 209 211 211 205 190 164 128 90 60 40 30 27 33 47 71 103 135 161 178 186 184 171 147 116 85 64 57 64 85 117 153 182 199 207 206 199 185 164 138 112 93 86 90 102 119 136 150 160 162 158 147 134 120 105 90 75 61 48 37 29 24 23 28 41 68 110 159 197 219 229 231 229 224 219 213 210 209 210 
198 208 212 210 199 178 149 114 80 55 39 34 38 55 88 133 175 203 218 224 226 226 224 221 214 199 174 137 97 63 41 30 27 32 46 72 108 147 180 202 215 219 215 203 179 142 102 72 56 56 70 95 126 153 170 176 173 162 146 127 108 95 93 102 120 140 159 173 180 179 168 149 125 103 85 70 59 48 39 31 24 19 16 16 20 30 53 91 140 182 207 218 218 213 204 193 184 179 181 188 
170 193 209 217 216 206 185 155 118 83 57 44 45 60 94 142 186 214 228 233 234 232 228 221 208 186 152 111 74 48 33 29 32 45 70 107 149 185 211 226 233 234 231 219 197 162 119 82 61 56 63 79 100 119 130 131 125 114 100 87 80 82 96 122 150 175 192 200 200 190 167 136 102 76 59 48 41 36 31 26 22 19 17 16 19 28 46 78 121 161 185 194 191 180 164 147 134 129 133 148 
133 169 199 217 224 222 211 190 158 119 84 61 55 67 99 145 188 215 229 234 233 230 223 211 193 165 128 90 61 43 36 38 48 70 104 145 183 211 228 236 240 239 234 224 204 172 131 95 73 64 67 75 86 93 94 89 80 70 61 56 59 73 102 140 175 200 213 216 210 193 161 120 83 58 44 38 35 35 34 32 30 27 25 25 27 35 50 75 107 137 154 157 147 130 110 91 79 75 82 101 
97 142 184 212 226 230 226 213 189 154 115 83 68 74 100 140 180 207 220 225 223 217 206 190 168 139 107 79 60 51 51 60 78 107 143 179 207 225 234 239 239 236 230 218 199 172 138 109 92 85 86 89 90 85 76 64 52 43 38 38 47 70 108 155 192 215 224 224 214 191 152 106 69 47 38 37 40 44 48 51 50 49 46 46 48 54 65 82 101 115 120 113 98 80 63 49 41 39 45 64 
72 118 168 205 225 233 233 226 209 180 142 104 80 77 93 125 159 185 199 202 198 189 174 156 135 113 94 80 73 74 82 97 121 150 179 204 221 230 234 235 231 225 215 201 183 161 139 124 118 118 121 121 113 97 76 55 40 30 27 29 41 69 114 166 203 223 230 227 214 186 142 94 59 42 38 44 54 68 79 87 90 89 87 85 86 90 96 102 106 103 93 78 62 47 34 26 21 21 27 42 
57 100 152 195 220 232 234 231 219 195 159 118 87 75 81 100 125 147 159 161 155 143 129 114 102 94 91 93 100 111 126 144 165 185 203 217 225 228 227 222 214 202 186 169 152 139 133 136 146 156 163 162 149 125 91 60 38 26 22 25 39 70 119 173 209 227 232 227 211 179 131 84 54 42 45 59 81 105 125 139 144 145 143 140 139 138 137 132 121 102 80 58 42 30 22 17 14 15 19 32 
51 87 136 181 210 225 230 228 219 198 163 122 87 69 66 74 87 100 107 107 102 93 84 78 79 86 101 119 137 154 170 183 196 206 214 219 220 217 210 198 181 161 140 122 111 110 122 144 168 187 197 197 185 157 116 74 43 27 21 24 39 71 124 177 212 229 232 225 206 170 121 77 52 47 58 82 115 148 171 185 191 192 190 187 185 181 175 163 141 111 78 52 34 24 18 15 15 16 20 30 
51 79 120 161 192 209 217 217 209 189 157 117 82 61 53 53 57 62 65 63 60 55 54 58 70 92 120 149 172 188 199 206 210 212 212 209 203 193 177 157 133 110 90 76 73 83 109 146 182 207 219 221 211 186 143 93 53 30 22 24 40 74 127 180 214 228 230 221 198 159 110 71 53 55 75 109 149 182 203 213 217 217 216 213 211 207 200 185 160 124 86 56 37 27 23 21 21 23 27 35 
57 75 103 134 162 181 191 193 187 170 141 106 75 55 45 41 40 40 40 38 37 37 41 53 75 108 144 175 196 207 212 212 209 203 195 184 171 153 132 108 85 66 52 45 47 63 98 146 190 218 231 234 227 206 166 111 63 35 24 26 42 78 132 183 214 227 227 215 188 145 99 67 57 66 95 135 175 202 218 224 226 225 223 221 219 216 210 198 175 141 103 71 51 40 37 37 38 41 43 48 
72 76 87 104 122 138 149 155 153 143 122 97 73 55 44 38 34 31 29 28 29 32 41 60 91 131 168 194 208 213 210 203 191 177 161 144 126 107 87 69 52 39 31 29 34 52 89 142 191 222 236 240 235 217 181 127 74 41 28 30 47 84 138 186 213 223 220 204 173 130 89 66 63 81 116 157 190 211 220 222 221 218 216 214 214 213 210 202 185 158 126 98 78 69 67 69 72 74 74 73 
95 82 76 77 83 92 102 111 117 117 110 96 80 66 54 45 38 33 30 29 31 38 53 80 117 156 187 205 211 207 195 177 156 135 115 99 84 71 59 47 37 29 24 23 29 46 82 136 188 221 237 242 238 222 189 137 82 47 33 36 56 96 147 189 212 218 210 188 153 113 81 68 74 100 137 173 198 210 213 209 203 197 193 193 195 198 200 198 190 174 154 134 120 114 115 119 124 125 120 109 
121 92 70 58 56 59 67 79 93 105 112 111 103 91 78 65 53 45 39 38 43 55 76 109 146 179 200 207 203 189 165 138 111 89 74 64 58 53 49 44 37 31 26 24 28 43 75 126 179 215 233 239 236 222 190 140 88 54 42 48 72 113 159 193 209 208 194 167 130 96 75 74 90 121 157 185 200 203 196 183 169 158 152 153 160 171 181 188 189 185 177 169 164 163 167 172 176 176 167 148 
142 100 67 48 40 41 49 64 86 111 130 140 140 132 118 101 85 70 61 59 66 82 109 142 174 196 206 203 188 161 127 95 70 55 47 46 49 54 57 57 53 44 36 30 31 41 66 110 161 200 222 230 228 213 182 136 91 63 55 67 95 135 173 196 203 194 172 139 105 81 74 84 110 144 175 193 198 189 170 145 123 108 102 105 116 133 153 170 183 189 192 193 195 198 203 208 211 209 200 177 
153 104 65 43 34 35 45 67 98 132 159 174 179 175 164 147 127 108 95 91 99 118 145 173 194 206 207 194 167 129 90 61 43 36 36 42 55 71 84 90 86 73 58 44 38 40 57 90 134 174 199 210 208 193 163 124 90 72 74 93 125 160 186 197 193 174 143 109 83 71 76 99 133 167 191 200 194 173 141 107 81 66 61 66 78 97 122 147 169 185 196 204 210 216 222 226 228 226 216 193 
154 102 62 40 32 36 52 81 121 160 188 203 209 207 199 185 167 146 130 124 131 149 172 193 207 211 204 183 146 101 63 40 29 28 34 49 74 103 127 138 135 118 93 68 50 44 50 69 101 135 160 173 172 158 133 106 86 83 97 124 155 182 196 195 178 148 112 82 65 65 83 117 156 187 203 205 191 160 118 79 54 42 39 43 54 71 95 122 149 172 190 204 214 222 228 232 234 231 221 196 
147 95 57 38 33 42 65 104 150 187 210 222 226 224 218 206 189 169 152 144 149 165 185 202 212 212 201 174 131 84 49 30 24 27 39 64 101 142 172 185 183 165 136 101 70 51 46 53 70 92 112 123 122 113 98 85 82 94 120 152 180 197 199 186 157 119 84 61 53 63 91 134 175 202 213 210 190 152 105 66 42 32 31 35 43 56 74 97 123 149 172 192 208 220 228 233 234 231 219 192 
134 85 51 36 36 51 82 129 175 207 225 232 234 231 224 211 192 169 150 141 145 162 183 201 211 211 199 170 125 78 45 28 24 30 47 81 128 174 203 216 214 201 174 136 96 65 49 46 51 61 71 77 77 73 67 67 78 103 139 173 196 204 196 172 133 92 61 46 46 63 99 147 189 213 220 214 191 151 102 63 41 32 31 34 40 48 60 75 94 117 143 169 192 210 223 229 231 227 212 182 
117 72 45 34 39 59 99 150 194 220 232 236 235 230 218 200 175 148 126 116 122 141 167 191 206 209 199 173 131 84 50 32 28 35 56 95 148 193 220 230 230 220 199 166 124 86 61 48 45 46 49 50 49 48 49 56 77 111 153 186 203 203 186 151 107 69 45 36 41 63 103 155 196 218 224 216 193 153 105 67 46 37 36 37 41 45 50 58 68 84 107 136 168 195 214 224 227 221 202 166 
98 59 38 32 41 66 110 164 204 226 235 236 232 221 202 174 141 110 88 80 87 109 142 175 198 207 203 183 146 101 63 42 34 41 62 104 156 200 224 234 235 228 213 187 152 113 82 63 52 47 44 41 38 37 41 52 78 118 160 191 203 196 170 128 83 51 34 30 38 61 103 156 197 218 223 214 192 154 110 74 54 46 43 43 43 44 44 45 48 57 74 103 140 177 203 217 220 212 189 148 
81 48 32 30 40 67 115 169 208 228 234 232 222 203 173 135 99 70 54 49 57 79 116 158 190 207 209 196 167 125 84 56 43 46 65 103 152 194 219 230 232 228 218 200 174 143 114 92 76 65 55 47 41 38 41 54 82 124 165 191 198 184 151 105 64 38 26 25 35 58 98 148 188 210 215 206 184 150 112 83 65 58 54 51 48 43 39 36 35 39 52 77 117 160 193 211 214 203 175 129 
67 39 27 26 37 65 112 166 206 225 230 224 207 177 136 94 61 41 31 29 37 59 97 145 185 208 215 209 188 152 109 73 53 50 63 94 136 176 203 217 222 221 215 205 190 170 150 131 115 99 84 68 56 49 50 63 92 131 169 190 191 172 133 87 50 30 22 23 32 53 88 132 170 191 195 186 166 138 110 90 79 74 69 63 54 45 37 31 28 30 40 65 105 152 188 207 209 195 161 112 
56 32 23 23 33 59 104 158 199 219 222 211 185 144 98 60 36 23 18 19 27 48 88 140 184 211 221 219 204 174 132 90 62 52 58 78 111 146 174 192 201 205 205 202 197 190 180 170 159 144 125 104 84 70 68 79 106 142 174 189 186 163 122 77 45 28 22 24 33 50 77 111 141 159 162 153 136 118 103 96 95 95 91 80 66 51 38 30 26 28 40 65 107 154 190 207 207 188 149 98 
49 28 19 20 29 51 92 146 189 210 212 196 161 113 68 38 22 14 12 15 25 47 89 143 188 215 226 225 214 188 147 101 68 52 50 61 82 109 134 154 168 178 186 192 196 199 200 198 193 183 167 144 119 100 93 102 126 156 181 192 186 162 123 81 50 34 29 31 38 51 70 91 110 119 118 111 101 95 95 103 114 121 119 106 85 63 46 35 31 36 51 81 124 168 198 211 207 184 141 89 
45 25 17 17 25 45 83 134 178 201 201 180 139 89 49 26 15 10 11 15 28 54 99 153 196 219 229 228 217 192 151 104 68 49 44 48 59 76 95 114 130 146 161 176 189 200 208 212 212 207 194 174 149 128 119 126 146 171 190 198 192 171 137 99 70 53 47 48 54 63 73 81 85 84 79 74 71 76 90 112 135 150 150 137 113 86 64 50 47 55 76 110 151 187 209 217 209 183 136 82 
42 23 16 16 23 42 77 127 171 194 193 170 125 76 40 21 12 10 12 20 37 69 118 169 205 223 230 226 213 185 143 97 63 45 39 41 48 59 72 86 101 119 138 159 179 195 208 215 217 214 204 187 164 144 135 142 161 182 198 205 201 187 162 132 106 90 83 83 87 90 89 84 75 64 55 50 53 65 90 124 156 175 179 169 147 119 94 80 78 90 115 148 182 207 221 223 212 182 132 78 
40 23 16 17 25 44 80 129 171 193 191 167 122 74 39 21 14 13 18 30 54 93 142 186 213 225 227 219 200 167 124 83 55 42 39 42 49 58 69 81 93 108 127 148 169 187 200 208 211 207 197 180 159 142 136 146 167 189 205 212 212 204 189 170 152 140 135 134 134 131 120 101 79 59 46 41 46 65 98 139 174 195 201 194 178 156 134 122 122 136 159 185 207 222 229 227 213 180 128 75 
40 24 19 21 32 55 93 140 179 198 196 173 131 83 47 28 21 21 30 48 80 123 168 201 219 224 219 204 176 138 98 66 48 41 43 52 64 77 89 99 109 119 131 145 161 174 185 191 191 185 172 154 134 121 122 137 163 189 208 217 220 217 210 201 192 186 183 182 180 173 155 128 95 66 48 43 51 74 112 155 189 208 214 210 199 184 170 162 164 176 192 209 223 231 233 228 211 176 123 72 
41 28 26 32 48 76 117 161 192 207 205 186 148 102 64 42 34 37 51 77 115 157 191 213 221 218 204 179 143 104 71 51 42 44 55 73 94 114 128 137 142 144 147 150 153 157 160 160 156 146 131 114 98 91 97 119 151 183 206 219 224 225 222 219 215 213 213 212 210 202 185 155 118 84 62 56 66 93 133 173 201 216 220 217 209 198 189 184 188 197 209 220 228 232 232 223 203 166 115 69 
45 37 40 53 76 110 149 185 207 217 215 200 170 129 90 66 58 64 84 116 153 186 209 219 218 206 181 145 105 71 49 39 40 51 74 104 135 159 173 178 178 174 166 156 145 136 128 120 111 100 87 74 65 63 72 96 132 170 199 216 224 226 226 225 224 224 225 225 223 216 202 177 143 109 87 82 94 122 157 189 209 218 219 214 206 196 188 185 189 198 209 218 224 226 222 211 188 150 104 66 
53 54 66 87 117 150 182 206 220 225 223 211 189 156 121 97 90 101 125 157 186 208 219 221 212 189 153 109 72 47 34 33 41 62 97 138 174 196 206 209 205 195 180 158 134 112 96 83 73 63 54 47 42 43 53 74 109 149 183 205 216 220 221 221 221 221 222 223 222 217 206 188 162 136 120 118 130 154 180 200 211 214 209 200 187 174 166 163 168 178 189 198 204 205 200 186 161 126 90 65 
67 80 103 131 161 187 208 221 228 230 227 217 200 174 145 126 123 136 161 187 208 220 225 220 203 169 123 79 48 31 26 29 44 73 119 166 200 218 225 225 219 206 184 154 120 91 70 57 49 42 37 32 30 32 40 58 87 123 158 182 195 201 202 201 201 202 204 206 206 203 197 185 171 157 150 153 165 181 196 205 207 200 187 170 150 134 124 121 126 136 148 159 165 166 160 145 124 99 78 66 
87 112 143 172 195 212 223 229 231 230 225 216 199 177 154 139 140 157 180 203 218 226 226 216 192 150 99 57 33 22 21 27 46 82 134 184 215 229 234 232 223 207 179 142 103 73 54 43 37 33 30 27 27 28 35 47 68 96 125 147 159 164 163 161 161 162 164 167 170 171 169 167 165 165 170 178 189 198 204 202 193 175 151 126 103 87 77 75 79 87 97 106 113 114 109 100 87 75 69 72 
107 141 173 198 214 224 229 230 229 225 217 203 184 161 141 131 136 156 182 204 219 226 224 212 184 136 84 45 25 17 18 26 47 87 142 192 221 233 236 232 221 199 165 123 84 58 44 37 34 32 30 30 29 31 35 44 58 76 94 108 114 114 111 107 105 106 108 112 116 121 126 134 145 160 176 191 201 205 202 191 169 139 109 82 62 50 44 43 45 51 58 64 69 71 69 66 62 60 66 81 
121 157 188 208 219 224 226 224 219 211 197 178 154 129 111 104 113 135 165 193 212 222 221 209 179 130 78 41 22 16 17 25 46 87 143 192 221 233 234 228 212 184 143 100 67 48 39 37 37 39 40 40 40 42 44 50 58 67 75 78 77 72 66 61 58 58 59 62 66 72 81 95 117 145 172 193 204 204 193 170 137 102 71 50 37 30 27 27 30 34 39 43 47 49 50 50 51 56 68 89 
126 158 185 201 210 213 212 207 199 185 165 140 113 90 75 71 80 102 135 170 197 213 217 207 180 133 82 44 24 16 16 24 44 82 137 187 217 229 230 220 199 163 118 78 52 41 39 43 49 56 61 64 65 66 67 70 73 74 73 68 60 50 42 36 32 31 31 32 35 40 48 63 89 125 162 188 200 196 178 145 106 71 46 32 25 22 23 25 29 34 39 43 47 50 51 53 56 62 74 96 
119 143 163 176 183 184 182 176 165 148 125 100 76 58 47 45 52 69 99 137 174 199 211 207 186 146 96 55 31 20 18 24 40 75 127 178 210 224 223 210 183 140 94 60 43 39 45 58 73 88 98 104 106 107 106 106 105 100 91 78 63 48 37 28 23 20 19 19 20 23 30 44 70 108 149 180 191 184 158 119 80 50 33 25 23 24 29 35 43 51 58 65 69 72 74 74 75 77 84 99 
104 115 125 133 138 139 138 134 125 110 92 71 53 40 32 30 33 45 68 103 145 182 203 208 195 165 120 76 45 28 22 24 37 67 114 166 201 217 216 201 168 122 78 50 40 44 59 82 108 131 146 153 156 155 153 151 147 139 126 108 86 66 48 35 26 21 17 15 15 17 23 35 59 97 140 171 182 170 139 98 62 39 28 26 29 37 48 62 76 89 101 109 115 117 117 114 108 102 98 98 
86 83 84 86 89 91 94 95 94 87 76 61 47 35 27 23 24 30 46 75 117 162 194 209 206 186 151 108 69 44 30 28 36 60 102 153 191 210 210 194 159 113 72 49 44 55 80 114 147 172 186 193 194 192 190 187 184 177 166 149 126 101 78 58 43 32 25 20 18 18 23 35 59 96 137 167 174 159 125 84 53 36 31 34 45 62 84 107 128 144 157 164 169 170 167 160 147 130 111 95 
71 59 53 52 54 59 66 75 83 87 82 71 57 42 31 23 21 23 33 55 94 143 185 209 215 206 182 146 104 68 45 35 38 55 92 140 181 203 206 191 159 115 77 58 58 75 108 147 179 200 211 214 213 210 208 206 205 202 196 186 170 149 124 100 78 59 45 35 29 28 32 44 69 105 143 168 172 154 118 79 52 39 39 51 73 102 133 161 181 194 202 207 208 207 203 194 178 154 122 92 
61 44 37 35 37 45 58 76 95 108 111 102 85 64 45 31 23 21 26 43 76 126 175 208 221 220 207 181 144 102 68 48 43 54 84 128 171 197 204 194 167 129 95 78 81 103 138 174 201 215 221 221 217 212 209 208 209 211 211 209 202 190 173 152 128 104 83 66 54 50 53 66 92 126 158 176 176 155 119 82 57 48 54 75 108 146 179 202 216 223 227 229 228 226 222 213 196 167 129 90 
57 39 31 29 34 46 66 95 124 146 154 148 128 100 70 46 30 23 24 36 64 112 166 205 224 230 224 208 180 140 98 66 51 55 78 118 161 191 203 199 180 150 122 107 112 134 165 193 212 220 221 216 208 199 193 192 196 204 211 216 218 215 207 195 178 157 135 113 97 89 90 103 126 154 177 188 184 163 129 92 68 61 73 101 141 180 207 224 232 236 237 236 234 231 226 218 201 172 131 89 
61 43 34 34 41 59 87 124 159 183 193 190 173 144 106 70 43 29 25 32 56 100 155 200 225 234 234 225 206 173 128 87 62 57 73 107 150 184 201 203 191 171 149 138 141 159 183 203 215 218 213 201 185 169 159 158 165 179 196 210 219 224 224 219 211 198 181 163 148 138 138 147 163 182 196 201 195 175 143 108 84 77 90 121 161 196 218 230 235 236 235 232 229 225 220 212 197 171 133 92 
76 58 49 50 60 81 115 154 187 208 218 217 206 182 145 101 63 38 28 31 50 88 143 193 222 236 239 235 222 195 154 107 73 60 68 95 135 172 194 202 197 183 167 158 160 172 189 203 210 208 196 175 150 126 112 109 119 138 163 187 206 219 225 227 224 218 209 197 186 178 176 181 191 201 209 210 204 187 160 127 101 91 100 127 162 192 212 221 224 223 220 215 210 206 201 196 185 166 137 103 
103 88 79 79 90 111 142 176 203 220 228 230 224 207 177 133 87 52 35 32 45 77 129 181 216 234 240 239 229 208 169 120 80 60 61 81 116 153 180 192 192 182 170 161 161 170 183 193 197 190 171 142 110 84 68 65 73 91 118 149 177 198 212 219 222 220 216 209 202 197 195 198 204 211 215 216 211 197 174 144 116 100 101 118 144 168 185 194 195 191 185 178 171 168 167 167 167 160 145 124 
142 131 123 121 126 140 161 184 204 219 228 232 230 221 199 161 113 70 44 34 41 66 111 164 205 228 238 239 231 212 175 125 81 57 53 66 94 127 156 172 174 167 155 146 144 151 162 172 174 165 143 111 79 55 42 38 42 54 75 102 132 160 181 195 203 205 204 200 196 193 194 198 204 210 215 217 214 204 186 159 129 104 94 97 110 126 138 144 143 137 129 121 116 115 120 132 145 156 158 152 
179 174 167 160 156 157 164 176 191 204 216 224 227 224 211 182 138 90 55 39 38 55 91 141 186 216 230 233 227 207 171 121 77 52 46 54 73 100 125 141 144 137 126 116 114 119 130 141 145 138 119 91 63 43 31 26 27 33 45 63 86 110 133 151 163 170 172 171 169 169 172 179 188 199 207 213 214 208 194 171 139 108 85 76 75 80 85 86 84 79 73 67 65 68 79 100 129 155 173 180 
206 204 197 187 173 160 151 151 158 172 189 204 215 220 214 195 159 112 71 46 38 46 72 113 159 194 214 221 215 195 157 109 69 47 40 45 58 77 96 108 110 103 92 83 81 85 96 108 118 118 106 86 64 46 34 27 24 26 30 39 52 67 84 99 111 119 123 124 124 126 131 142 156 173 189 201 208 208 200 181 150 114 83 62 52 48 47 45 43 40 36 34 34 40 55 82 121 160 188 202 
222 220 213 199 176 148 124 111 112 124 144 169 191 207 211 202 176 134 90 57 41 41 55 85 124 161 186 197 193 173 137 95 62 44 39 42 52 66 78 85 83 75 66 58 56 60 70 86 102 111 111 99 82 65 50 39 32 28 28 30 35 42 51 61 69 74 78 79 79 81 86 96 113 134 158 180 196 204 203 190 164 127 89 60 42 33 28 25 22 21 19 19 21 29 46 78 124 169 200 216 
230 228 219 201 169 129 94 73 67 74 94 123 156 185 202 204 188 156 113 74 50 41 45 62 89 120 146 161 160 143 115 83 59 47 44 49 58 68 75 76 70 60 51 44 42 46 58 77 100 120 130 128 117 100 82 65 52 42 36 33 33 35 39 44 48 51 52 52 51 51 53 60 72 92 119 150 177 196 203 198 180 147 108 72 46 31 22 18 15 14 13 14 18 28 47 83 133 179 210 225 
232 229 219 196 158 110 70 46 38 41 54 81 118 159 189 203 198 176 140 99 65 47 41 47 62 83 104 119 123 116 99 80 67 61 62 69 78 86 88 82 70 57 45 39 37 43 57 81 112 140 159 164 159 146 128 107 87 70 58 50 45 44 46 48 50 51 49 46 41 38 36 38 45 60 83 116 152 183 201 205 195 172 136 97 64 41 27 20 16 14 15 17 22 33 55 93 143 187 215 228 
229 226 214 188 145 95 55 33 23 23 32 53 88 135 176 200 206 194 167 128 89 60 45 41 46 58 72 86 96 99 97 92 89 90 96 106 115 119 115 101 81 61 47 40 39 47 66 96 133 165 186 195 194 187 173 154 133 112 95 82 75 73 73 74 74 73 67 58 48 38 32 29 31 39 56 85 125 166 195 209 209 195 169 134 97 66 45 33 26 23 23 25 31 44 67 105 150 189 213 225 
217 214 202 176 133 85 49 28 19 17 22 38 70 118 167 199 212 209 191 160 119 81 55 43 40 45 55 69 84 99 111 119 126 134 143 152 159 159 148 126 97 71 53 45 47 59 84 120 158 188 206 214 215 211 201 188 171 154 138 127 121 119 120 121 121 117 107 90 70 51 36 28 25 28 39 62 101 147 187 210 218 214 199 173 141 108 80 61 49 43 42 44 50 61 81 113 149 181 202 213 
192 192 183 160 123 82 49 30 20 17 20 34 64 112 165 201 218 220 210 187 150 107 71 49 40 41 49 64 86 112 136 154 167 177 185 192 195 191 176 149 113 81 61 54 59 78 110 148 182 205 218 223 223 219 212 202 190 179 170 166 165 168 171 174 174 169 157 136 106 74 48 31 23 23 29 47 80 128 176 208 223 225 219 205 183 156 129 107 91 82 78 78 80 86 97 115 137 158 174 186 
150 156 156 143 118 85 57 37 26 21 23 36 66 115 168 205 223 228 222 206 175 132 88 58 44 41 49 67 97 132 163 185 199 207 213 216 215 208 191 160 122 88 67 63 75 102 138 174 201 216 224 226 223 216 207 197 187 181 180 185 192 199 206 210 212 209 199 179 146 105 66 39 25 20 23 36 64 109 161 201 223 231 231 224 212 196 177 160 145 136 130 125 121 116 111 110 114 121 131 141 
101 115 126 129 119 98 73 51 36 29 30 44 75 124 176 210 227 233 230 217 191 149 102 66 47 43 51 73 109 151 185 206 218 224 227 227 223 213 193 159 119 87 70 71 90 124 163 194 214 223 226 223 215 202 186 171 161 159 166 180 196 211 221 228 231 230 224 208 179 135 86 49 29 20 20 29 51 91 143 189 217 231 234 233 227 218 208 198 190 183 178 171 160 144 122 101 88 82 83 90 
64 82 105 123 129 119 98 73 52 41 40 54 86 136 184 215 230 235 233 222 198 157 107 69 48 43 52 77 117 163 198 218 228 232 232 230 223 209 183 146 106 78 67 75 101 140 179 207 221 226 224 216 200 177 151 129 117 118 132 155 183 206 223 233 238 239 235 225 201 160 107 61 34 21 19 24 41 73 121 170 205 223 231 232 230 226 222 217 214 211 208 201 188 163 128 92 66 52 48 52 
43 65 97 129 147 147 129 100 73 55 51 64 97 146 191 219 232 236 233 222 196 154 103 65 45 41 50 76 119 167 203 223 232 234 233 228 218 197 165 124 87 65 60 73 104 147 187 212 224 226 221 206 179 144 109 83 72 74 89 117 153 188 214 230 238 241 240 232 214 178 126 75 41 24 19 22 33 58 97 143 181 205 217 221 222 221 220 220 221 222 221 216 202 174 131 86 53 35 29 32 
38 64 103 143 169 174 158 127 92 67 59 71 103 151 193 220 232 235 231 217 187 141 91 56 39 36 45 70 113 162 201 222 231 234 231 223 207 180 141 99 68 52 52 68 101 146 186 212 223 223 214 193 158 114 75 51 41 42 54 79 116 158 194 218 232 238 239 234 220 191 144 92 53 31 22 22 29 45 73 109 145 171 186 194 197 199 203 208 215 220 223 220 208 180 135 85 48 29 22 25 
45 76 120 163 189 194 178 145 104 74 62 71 101 147 190 217 229 232 225 207 172 123 75 45 31 30 38 61 101 151 192 217 227 230 225 214 192 158 116 78 53 43 45 61 92 136 177 204 216 217 206 181 140 93 57 35 26 26 33 51 81 121 163 196 217 229 233 232 222 200 162 113 71 45 32 27 30 38 54 77 102 123 138 146 151 157 166 179 195 208 217 219 209 184 140 90 51 31 24 28 
65 101 146 183 203 205 187 150 106 72 58 64 91 135 180 210 224 227 218 196 155 103 60 35 25 24 32 52 87 135 178 206 218 221 215 200 173 136 96 65 47 40 43 56 82 120 158 187 202 204 194 169 130 86 52 33 23 21 25 35 55 85 124 161 190 210 220 224 220 206 179 140 100 70 51 42 38 39 45 54 66 77 85 90 94 102 115 135 161 187 205 213 209 188 150 103 64 42 36 43 
98 136 174 201 213 208 185 143 97 63 48 52 76 117 164 199 217 221 211 185 140 89 50 29 21 21 29 45 75 116 158 187 201 203 195 178 151 117 85 62 49 45 47 56 74 101 133 160 177 183 177 158 127 91 62 43 32 26 25 29 39 57 85 118 150 177 196 208 212 207 192 168 137 109 86 70 59 51 46 44 45 46 47 48 50 56 68 90 122 158 188 204 206 193 163 122 86 65 61 72 
