P2
100 100
255
138 168 195 211 214 203 173 128 83 52 40 43 62 98 145 185 207 212 201 173 128 80 47 29 23 24 31 45 68 100 134 159 171 172 163 147 125 102 84 73 66 64 63 66 74 88 106 126 142 153 155 148 132 110 88 70 56 45 38 34 36 43 58 79 105 132 157 178 192 199 196 186 170 151 133 115 98 80 63 50 40 34 31 28 28 30 38 56 85 126 164 190 200 194 173 144 116 100 99 113 
178 198 213 220 215 196 158 109 65 40 30 32 49 82 130 173 200 208 199 173 131 86 53 36 31 32 39 52 69 92 114 129 136 134 126 115 104 97 94 95 97 96 92 86 81 79 83 92 103 116 128 137 140 136 126 112 96 79 62 48 40 37 41 50 65 86 111 140 167 188 199 202 198 190 179 164 143 117 87 61 42 30 23 19 18 20 27 41 68 107 148 178 192 191 179 161 144 136 141 157 
204 217 224 224 214 187 142 90 51 31 23 26 41 73 120 166 196 207 201 180 144 104 73 56 51 53 61 71 83 93 100 103 100 95 89 85 87 96 112 127 138 140 133 118 98 79 68 65 71 83 102 125 147 162 166 161 147 126 100 73 52 39 33 34 40 52 72 101 138 172 197 210 215 215 210 200 183 155 118 80 51 33 23 18 17 19 26 40 64 99 137 165 178 179 173 163 158 161 172 188 
217 226 229 225 210 178 127 76 42 25 20 24 40 71 118 165 196 208 206 191 165 134 108 93 89 92 99 106 109 106 97 85 73 65 61 63 75 98 130 159 177 182 174 153 121 88 62 50 49 58 80 113 151 180 196 199 192 173 144 107 71 46 32 26 27 33 47 73 112 156 191 212 223 227 226 221 208 184 147 104 66 42 29 24 24 28 36 51 74 103 131 150 158 156 151 148 152 166 184 203 
220 229 231 225 206 168 115 66 36 23 20 26 44 77 124 170 199 211 210 201 185 165 148 139 139 143 148 150 144 127 102 77 57 46 43 48 66 99 143 180 203 210 203 182 145 101 64 43 36 43 64 102 149 189 212 221 219 206 180 139 93 57 35 25 21 24 35 57 96 144 185 211 225 231 232 229 220 201 169 127 87 59 44 39 42 49 62 79 99 119 132 136 131 123 116 117 129 152 180 204 
217 228 230 222 200 159 105 59 34 23 23 33 54 90 137 177 201 211 211 205 196 186 180 179 182 187 190 188 176 150 112 75 49 35 32 39 59 97 148 191 216 225 220 202 166 116 69 41 30 34 53 91 144 191 218 231 232 223 202 163 112 67 40 26 21 23 32 53 91 139 182 209 223 229 231 229 222 207 181 146 111 85 72 70 76 89 104 121 135 142 138 124 105 88 79 81 97 126 163 196 
210 224 227 218 194 150 97 56 34 27 31 45 72 110 152 184 200 205 203 198 193 191 194 199 206 212 215 211 197 168 123 77 45 29 25 32 52 92 147 194 221 231 229 214 181 131 79 44 29 29 46 83 138 188 219 233 236 230 211 174 122 75 45 30 25 28 38 60 97 143 181 205 217 222 222 219 212 200 182 158 134 117 112 116 127 142 157 168 173 166 146 115 84 62 51 52 66 96 139 181 
199 218 222 212 185 140 90 54 38 36 45 66 97 134 166 186 192 189 182 176 174 178 188 202 214 222 226 223 210 180 133 82 45 27 22 27 46 86 142 192 221 233 233 221 193 145 91 51 31 29 43 79 132 184 216 231 234 228 209 173 123 78 49 37 35 41 55 80 115 153 182 199 205 205 201 196 189 179 168 157 149 148 153 163 176 189 199 204 201 185 152 108 69 45 33 33 44 71 114 163 
188 210 215 204 174 129 84 56 46 50 68 95 128 157 176 180 173 159 145 136 135 146 165 188 208 222 228 227 216 189 143 90 49 28 21 25 42 80 135 187 219 232 234 225 202 160 106 62 38 33 46 79 130 180 211 225 227 219 197 161 115 76 55 48 52 65 85 112 142 168 184 188 184 175 165 155 147 142 140 143 153 167 182 197 209 218 223 224 216 195 155 103 60 35 24 23 32 54 95 146 
178 202 206 192 160 117 80 60 58 73 99 130 159 176 179 167 144 119 98 88 89 102 128 161 192 213 225 227 219 196 155 102 59 34 24 26 42 77 130 181 214 230 233 227 209 173 124 79 51 44 55 85 132 176 204 215 213 200 174 137 100 73 62 65 80 102 127 151 171 182 183 173 155 134 116 104 97 97 104 120 144 172 197 214 225 232 235 233 223 198 153 98 54 29 19 18 25 45 82 133 
170 194 195 178 144 105 77 67 76 101 134 164 184 188 175 147 111 80 59 50 51 63 89 126 166 197 216 224 220 203 169 122 77 48 35 34 47 79 126 175 208 224 230 226 212 184 143 101 73 64 73 100 138 173 193 198 189 169 140 107 81 68 71 88 115 145 169 186 195 193 180 156 124 94 73 61 57 60 72 94 129 167 199 220 231 237 239 235 223 196 148 91 49 26 17 16 23 42 77 126 
167 186 183 160 125 93 74 76 98 132 166 191 200 193 168 126 83 52 35 28 29 38 58 92 134 175 202 216 218 208 184 147 106 74 56 52 61 86 126 167 197 214 220 219 210 190 160 127 103 94 101 122 149 170 179 173 155 129 101 77 64 65 81 112 149 180 200 210 210 200 178 141 100 67 47 37 35 39 51 74 111 155 193 217 231 237 238 234 220 190 139 83 44 24 16 17 25 44 80 126 
167 179 169 141 107 81 73 86 118 158 190 208 210 195 159 110 64 36 22 17 18 25 40 66 104 147 182 204 213 210 197 173 143 114 93 84 86 101 126 155 179 194 201 202 198 186 169 149 134 129 134 147 160 166 161 144 118 91 68 55 52 63 91 131 173 202 218 223 219 204 176 135 90 56 37 29 27 31 40 60 93 137 178 207 224 232 234 229 213 180 128 75 40 23 17 19 30 52 89 133 
171 174 155 122 90 70 71 93 133 175 205 218 215 195 153 99 54 29 17 14 15 20 31 49 79 117 155 183 200 207 204 194 177 157 139 126 119 119 126 138 149 159 166 170 171 169 165 161 158 159 163 168 169 161 143 116 88 64 48 42 46 63 96 142 184 211 224 226 221 206 178 137 93 61 42 33 31 32 39 52 78 114 154 187 209 221 224 219 202 166 115 67 37 23 20 25 39 66 105 145 
176 169 142 105 75 61 67 96 141 185 212 223 218 195 151 96 52 28 18 15 17 22 30 42 62 91 123 154 178 194 202 204 200 191 180 166 152 136 123 115 112 113 117 123 130 139 150 160 169 176 180 180 172 155 128 97 70 50 40 38 44 63 97 142 183 208 220 223 217 204 181 147 110 80 61 51 46 43 44 50 65 91 123 156 182 199 206 203 185 150 103 61 36 26 25 35 55 87 127 161 
182 165 130 90 62 52 62 93 140 186 214 224 218 196 154 101 58 34 25 23 26 31 36 44 55 71 93 119 146 170 190 203 210 210 205 194 174 147 116 92 77 71 71 77 88 104 126 150 169 182 186 183 170 147 118 88 65 50 43 42 49 66 95 133 169 193 205 208 206 197 182 161 136 114 97 86 75 66 58 54 57 70 90 116 142 164 178 179 166 136 97 62 42 34 38 52 79 116 153 177 
187 162 120 78 52 45 55 85 131 178 208 220 217 198 162 114 74 51 42 42 46 51 54 55 56 60 69 85 108 136 166 191 208 217 217 207 185 150 108 73 52 43 41 46 57 76 104 135 162 178 183 177 161 138 112 89 72 62 58 58 63 74 93 118 143 162 173 179 181 181 178 172 163 154 144 133 119 100 79 63 54 54 63 78 100 123 142 153 149 129 100 74 58 54 61 82 113 149 178 192 
191 159 113 70 45 38 46 72 113 159 193 210 211 198 171 134 101 81 75 78 84 88 87 79 68 58 55 59 73 99 133 170 199 215 219 211 188 147 98 60 38 28 26 30 40 60 90 124 154 170 172 163 147 127 110 98 91 89 89 89 89 90 94 101 110 119 127 134 142 153 166 177 184 187 186 178 163 137 104 74 54 45 44 52 66 88 112 132 140 134 118 100 88 87 99 122 151 179 198 202 
193 158 109 66 41 32 38 57 90 131 167 190 198 193 178 156 136 124 123 130 137 139 132 113 87 63 48 43 49 67 101 144 183 208 216 210 185 140 89 51 30 22 20 25 37 58 88 122 148 160 157 144 128 115 109 112 119 128 133 132 126 115 101 89 81 79 80 86 99 119 147 175 195 207 211 208 194 165 124 83 54 39 34 37 48 67 95 124 144 151 146 137 131 132 144 163 184 202 211 210 
197 161 111 66 39 29 30 42 65 96 130 156 173 180 179 173 168 167 171 179 186 186 174 148 109 71 46 34 34 46 75 119 165 198 211 205 179 132 81 45 27 20 21 29 44 69 101 131 150 153 141 122 106 100 107 125 147 166 176 175 165 144 114 85 63 51 48 51 64 90 128 169 199 217 224 222 209 179 134 87 53 35 29 30 40 61 93 129 158 173 176 174 171 173 181 193 206 216 220 215 
202 168 119 72 42 28 26 31 44 64 89 115 139 158 172 181 188 196 204 211 216 215 202 172 126 79 46 30 26 35 59 101 151 188 205 200 172 125 76 43 27 23 28 41 64 94 127 151 160 150 128 102 86 85 101 132 166 192 205 206 195 170 130 88 56 37 30 32 44 70 114 163 200 221 229 226 212 180 132 83 49 32 27 29 41 65 103 144 175 192 198 198 197 198 203 210 217 223 224 218 
208 179 134 86 51 32 25 25 31 42 57 78 103 131 159 181 198 210 220 227 230 227 214 184 134 82 46 28 23 30 53 94 144 184 201 196 167 120 73 43 31 31 43 65 97 132 161 176 173 153 119 87 69 70 92 130 173 204 220 223 213 189 146 96 55 33 23 24 35 62 107 161 201 222 229 224 206 170 119 73 43 29 26 32 48 77 119 161 190 205 209 209 206 206 208 213 219 224 225 221 
214 192 154 107 67 41 28 23 24 29 38 53 77 109 146 178 201 216 226 232 234 230 215 183 133 81 46 29 25 33 57 98 148 185 200 194 165 118 74 47 39 46 66 100 138 172 193 199 187 157 114 76 56 57 79 121 170 206 225 230 223 202 160 106 60 33 22 22 33 61 108 162 201 221 225 217 192 151 100 60 37 27 28 38 59 94 138 176 199 208 208 204 199 196 198 204 212 219 224 223 
218 204 176 135 91 58 37 27 23 25 30 43 65 99 140 176 202 217 226 231 230 224 206 172 123 76 45 32 32 44 73 116 161 192 204 194 164 119 77 54 51 66 98 139 177 203 216 215 198 162 112 69 47 46 65 106 158 200 224 232 228 210 172 118 67 37 24 24 36 65 113 166 202 219 219 204 172 126 80 48 32 28 33 48 75 115 155 185 199 200 193 182 172 167 169 179 192 206 217 221 
219 214 196 164 123 83 55 38 31 29 34 46 68 102 143 178 202 215 221 223 219 208 186 150 106 68 47 40 47 67 100 143 181 203 209 196 164 119 80 61 65 89 130 174 206 224 230 225 206 166 112 65 40 36 51 87 139 188 218 230 229 215 181 129 77 44 29 29 43 73 122 171 203 214 209 186 147 101 62 39 30 32 42 64 97 135 168 186 188 178 160 141 126 120 123 136 158 182 202 215 
215 218 210 189 155 117 83 60 48 45 51 64 88 121 156 184 201 209 210 206 196 179 153 119 86 62 51 55 72 101 138 174 201 214 213 196 162 117 81 67 77 110 156 196 222 234 237 230 210 169 111 62 36 29 39 69 118 171 208 226 229 217 188 140 88 52 36 36 50 83 130 174 200 206 194 165 122 79 50 36 34 42 60 88 123 156 175 179 166 143 116 92 77 70 74 88 113 145 177 202 
204 216 216 204 182 150 118 93 79 77 84 100 123 151 175 192 199 197 189 176 158 136 111 86 67 58 62 79 107 142 175 201 217 221 215 193 155 110 78 68 83 121 169 207 230 239 240 233 212 170 111 60 32 24 30 53 96 151 195 219 226 218 193 149 98 60 43 43 58 91 135 173 194 195 177 142 101 66 46 40 46 62 88 121 152 173 179 167 139 105 75 53 41 37 39 50 72 104 144 180 
184 205 213 209 196 175 151 131 121 121 130 146 164 181 194 198 193 179 158 134 110 89 72 59 53 59 78 109 146 180 205 220 227 225 212 184 142 98 69 63 80 119 169 208 230 240 241 233 212 171 111 59 31 20 23 41 78 131 180 210 221 217 195 155 106 68 50 50 65 95 134 167 183 179 158 124 88 63 53 56 70 95 126 156 178 187 180 153 114 75 47 30 22 19 21 28 43 70 108 150 
156 184 199 202 196 183 169 159 157 163 173 186 197 205 207 200 182 154 121 91 68 53 44 41 46 64 96 139 178 206 223 231 231 224 205 169 123 81 56 53 69 107 157 199 224 236 238 232 211 170 112 60 31 19 20 34 65 116 168 202 216 214 194 157 110 73 55 54 67 94 128 156 168 163 143 114 88 73 73 85 107 136 165 187 199 198 180 144 97 57 32 19 13 11 12 17 27 46 76 116 
123 153 172 180 178 173 168 169 175 187 199 210 216 218 214 198 169 128 88 58 40 31 28 31 44 72 115 163 200 222 232 235 231 218 191 148 100 63 43 41 55 87 134 179 211 227 232 227 208 169 113 63 33 21 21 33 62 109 160 196 211 209 189 153 109 74 57 55 66 88 116 140 152 149 135 116 102 98 106 125 151 176 196 209 213 205 182 141 91 51 28 16 11 9 10 13 20 33 55 86 
94 119 136 144 145 144 147 156 172 191 207 218 224 224 215 193 154 106 65 39 25 20 20 27 45 81 131 180 213 230 236 235 226 206 170 122 77 47 32 31 41 65 104 149 187 210 220 218 202 167 116 69 40 28 28 40 68 113 160 193 206 202 181 144 102 71 55 54 63 81 104 126 139 141 136 129 127 133 147 166 187 204 215 221 220 210 186 146 97 56 32 20 15 13 13 15 20 29 44 67 
78 93 102 105 104 105 111 126 150 176 199 215 223 222 211 184 140 90 51 29 19 15 18 27 50 91 145 192 220 233 235 230 215 187 143 95 57 34 24 23 30 46 75 113 153 183 199 202 191 162 121 81 55 44 45 60 89 130 169 195 203 195 170 131 92 64 52 50 58 73 94 116 133 143 147 151 157 167 181 196 209 218 224 226 223 213 192 157 113 74 48 34 27 24 23 25 29 35 46 61 
79 83 82 77 72 70 75 90 115 146 176 199 211 212 200 172 127 79 45 26 17 15 19 32 58 103 157 199 223 231 230 220 197 160 113 70 41 26 20 19 24 34 52 80 114 145 167 176 172 155 127 99 80 73 78 95 123 156 184 199 200 186 156 116 80 57 47 47 55 69 90 113 134 151 163 172 182 192 202 211 218 222 223 223 219 211 196 172 138 105 79 63 54 49 47 48 51 56 64 72 
101 94 82 68 56 50 50 60 79 108 140 167 185 190 181 155 116 75 45 29 21 21 27 42 73 120 169 204 222 226 219 201 170 127 83 50 31 22 19 19 22 29 40 58 81 106 128 142 147 143 133 122 115 116 125 142 163 184 200 205 198 176 141 100 68 50 43 45 54 70 92 118 142 162 177 188 197 205 210 214 215 214 212 209 206 202 195 183 165 144 126 111 101 95 92 92 93 96 100 102 
137 121 99 76 56 43 39 42 53 72 98 124 146 157 154 137 109 78 55 41 34 35 44 63 97 141 181 207 217 214 200 173 135 93 59 37 26 22 22 24 28 33 40 50 63 78 94 108 119 128 135 142 150 159 171 184 196 206 211 208 194 166 126 87 60 46 43 47 59 77 101 128 153 173 187 196 202 205 205 202 197 191 184 180 179 180 184 186 184 179 172 165 159 154 151 149 149 149 149 145 
174 156 129 99 71 50 38 35 38 47 63 83 102 117 125 121 109 92 77 67 63 65 77 98 130 164 191 205 206 194 170 136 97 64 42 30 26 27 31 37 44 50 54 58 62 67 73 82 94 111 131 153 173 189 201 210 216 219 217 208 188 155 114 78 56 47 47 55 69 90 115 140 162 178 189 194 195 192 185 174 161 148 138 132 134 143 159 177 191 200 203 204 202 200 197 195 194 192 190 184 
199 185 162 132 99 70 50 38 33 35 42 53 68 85 101 113 119 119 115 111 110 114 125 143 165 185 197 199 188 164 132 96 65 44 32 29 32 41 52 66 77 85 87 85 79 72 67 68 76 94 120 152 180 201 214 221 224 223 216 202 178 143 104 75 59 55 60 72 89 109 131 151 166 175 179 178 173 162 148 130 112 96 85 80 85 99 125 157 187 207 218 223 224 224 222 219 217 215 212 207 
211 203 189 165 135 102 73 52 39 33 33 38 48 65 88 114 137 152 159 162 163 167 173 183 192 198 197 184 161 128 93 64 43 33 30 35 48 67 89 111 128 137 137 127 111 91 73 64 65 79 104 139 173 198 213 220 221 217 207 189 162 128 98 77 70 73 83 99 116 133 147 156 160 160 156 148 136 121 103 84 67 54 46 43 48 63 92 132 174 205 222 230 232 231 229 225 222 219 217 215 
209 209 204 192 170 141 108 78 54 40 33 32 40 56 84 121 157 181 194 200 203 204 206 208 208 202 188 163 129 93 63 43 32 29 35 50 74 105 137 163 180 187 185 172 149 118 88 67 59 66 87 119 154 181 198 206 205 198 184 164 138 113 94 87 90 102 118 134 148 157 159 155 146 135 123 110 96 81 65 51 39 31 25 24 28 41 67 109 157 196 218 228 230 228 223 217 211 207 205 207 
194 204 209 208 197 178 149 115 82 56 41 35 39 56 87 131 173 201 216 222 224 224 222 219 211 197 173 138 99 66 44 32 29 33 48 74 110 149 181 203 215 219 216 203 180 144 105 74 59 58 72 96 127 153 169 176 173 163 147 128 110 97 94 102 119 138 156 170 176 175 164 146 125 105 89 76 64 53 43 34 26 21 17 16 20 30 52 90 139 181 206 217 218 212 202 191 181 175 176 183 
164 188 205 214 214 204 185 155 119 84 58 45 45 60 93 139 183 211 225 231 232 230 226 219 206 184 152 113 77 51 36 31 34 46 70 107 149 185 211 225 232 234 230 219 197 163 120 84 63 57 64 80 101 120 131 133 127 116 102 90 82 84 98 121 149 172 188 196 196 185 163 133 103 79 63 53 46 40 35 29 24 20 17 17 20 28 47 79 122 162 186 195 191 179 162 145 131 124 128 142 
127 163 195 214 222 220 210 189 157 118 84 61 55 67 98 143 186 213 227 232 231 228 220 209 191 164 129 93 64 46 38 39 49 70 103 143 181 209 226 235 239 238 233 223 203 171 131 95 73 65 67 76 87 95 96 92 83 73 64 59 62 76 104 140 174 197 209 213 206 188 157 119 84 61 48 42 40 39 37 35 32 28 26 25 28 35 51 76 110 140 157 159 149 131 109 90 77 72 78 96 
93 137 180 209 224 228 224 211 187 152 113 82 69 74 100 140 179 206 219 223 221 214 203 187 166 138 108 82 63 54 53 61 78 105 140 176 205 223 233 237 238 235 228 217 197 169 136 107 90 84 86 89 91 87 78 66 55 46 41 41 50 72 110 155 191 212 221 221 211 187 149 105 70 50 42 41 44 49 53 54 53 50 47 46 48 54 67 85 105 121 125 118 102 82 64 49 40 38 44 61 
69 114 164 202 223 231 231 224 207 178 140 103 81 78 95 127 160 185 198 201 197 186 171 153 133 113 95 82 76 76 83 97 119 146 175 200 218 228 233 233 230 223 213 199 179 157 135 120 114 116 119 120 114 99 78 58 42 33 29 32 44 71 116 166 202 221 228 225 211 183 139 93 61 45 42 48 60 73 84 91 93 91 87 85 86 90 97 106 111 110 100 84 66 49 36 27 22 21 26 41 
57 98 150 193 218 230 233 229 216 193 157 118 89 78 85 104 129 150 161 161 154 142 127 112 101 94 92 96 103 113 127 143 162 182 200 213 222 226 225 220 212 199 184 166 148 134 128 131 141 153 160 161 150 126 94 63 40 28 24 27 41 72 121 173 208 225 230 225 209 176 129 84 56 45 49 64 86 111 130 142 146 145 142 139 138 138 139 136 127 109 86 64 45 32 23 18 16 16 20 32 
52 88 136 180 208 223 228 226 216 196 163 123 90 73 71 79 93 105 111 110 103 93 83 78 79 87 102 120 139 155 169 182 193 203 211 216 217 214 207 195 179 159 138 120 108 106 117 139 164 184 195 196 185 158 118 76 45 29 23 26 41 74 125 177 212 227 230 223 204 168 119 77 54 49 61 87 120 152 174 187 191 191 189 186 183 181 176 165 145 116 84 57 38 27 20 17 16 17 22 32 
54 82 121 161 191 208 215 215 206 187 156 119 86 66 58 58 63 67 69 67 62 57 54 58 70 92 121 149 172 188 198 204 207 209 209 206 200 190 175 155 132 108 88 75 71 80 105 142 179 204 217 220 210 186 144 94 54 32 23 26 41 75 128 180 213 227 229 220 197 157 109 72 55 57 78 113 152 184 204 213 217 216 214 212 209 205 199 186 162 128 90 60 40 30 25 23 24 26 30 38 
62 80 106 136 162 179 189 191 184 168 141 108 79 60 50 46 45 45 44 41 39 38 42 54 76 108 145 175 196 206 211 210 206 200 192 181 168 151 130 107 85 66 52 45 47 63 96 143 187 216 230 233 226 205 166 112 65 37 25 27 43 79 131 182 213 225 225 213 186 145 99 68 58 68 97 137 176 202 217 223 224 223 221 219 217 214 208 196 174 141 104 72 53 43 39 40 42 44 48 53 
78 82 92 107 123 137 147 152 151 141 122 99 76 59 48 42 38 35 33 31 31 34 43 62 92 131 167 194 207 212 209 201 189 174 159 142 125 107 88 70 53 41 32 30 35 52 89 141 190 221 235 239 234 217 181 127 75 42 29 30 48 84 137 184 212 222 219 203 172 130 90 67 65 82 116 156 190 210 218 220 219 216 213 211 210 209 206 197 181 155 124 96 78 70 69 72 76 79 80 79 
101 88 81 80 85 93 101 109 115 115 109 97 83 69 57 48 41 36 32 31 33 40 55 81 117 155 186 204 209 205 193 176 155 133 115 99 85 73 61 50 39 31 26 24 30 47 83 136 188 221 236 241 237 222 189 137 83 48 34 37 56 94 144 187 210 216 208 187 153 113 82 69 75 100 136 171 196 208 210 206 199 193 189 188 190 193 194 192 183 168 148 129 117 113 116 122 127 129 126 116 
126 97 74 61 57 60 67 77 91 103 110 110 103 92 80 67 56 47 42 41 45 57 78 109 146 177 198 206 202 187 164 137 111 89 75 65 60 56 53 47 41 34 28 26 29 44 76 127 179 215 233 239 235 221 189 140 88 55 42 48 71 110 156 190 206 206 192 165 130 97 77 75 91 120 154 182 196 199 191 178 164 153 147 148 154 164 174 180 181 177 170 162 159 160 166 173 178 178 171 153 
145 104 70 50 42 42 49 64 85 108 127 137 137 130 117 102 86 72 64 62 68 84 110 142 172 194 204 201 186 159 126 95 71 56 49 48 52 58 62 62 57 48 39 33 32 42 68 112 162 201 222 230 227 212 181 136 91 63 55 66 93 132 169 193 200 191 169 138 106 83 75 86 111 143 172 189 193 184 164 139 118 103 98 101 112 128 146 163 175 181 184 186 189 194 201 207 211 210 201 179 
154 106 67 45 35 36 46 66 96 128 155 170 175 172 161 145 127 109 97 93 101 119 144 171 192 204 204 192 165 127 90 62 45 37 37 45 59 76 90 96 91 78 61 47 40 42 59 92 136 175 200 210 208 192 163 124 90 72 73 91 122 156 183 194 190 171 141 109 84 72 78 101 133 166 187 195 188 167 135 102 77 64 60 65 77 96 119 144 164 179 190 198 205 212 219 224 226 225 215 193 
154 103 64 42 34 38 53 81 119 157 184 199 205 203 196 182 165 146 132 126 133 149 171 191 204 208 201 180 143 100 64 41 31 29 36 52 78 108 132 144 140 122 97 71 52 45 52 72 103 137 162 174 173 158 134 106 87 83 96 122 153 179 193 192 176 146 111 82 66 67 85 118 156 185 200 201 185 153 112 76 53 42 41 46 57 75 98 124 149 169 185 198 209 218 225 230 232 229 219 195 
146 96 59 40 36 44 67 105 148 184 207 219 222 221 215 203 187 168 153 146 150 165 183 199 208 208 197 170 127 82 49 32 25 28 41 66 104 145 175 188 185 168 138 102 71 53 48 56 73 95 115 125 124 114 99 86 83 95 120 152 179 195 198 185 157 119 84 62 55 65 93 135 175 201 211 205 184 146 100 63 43 34 34 40 49 64 83 105 128 150 170 188 203 215 224 230 232 229 217 190 
134 86 53 39 39 54 86 130 174 205 222 229 231 228 221 208 190 170 152 143 147 162 181 197 207 206 194 165 122 77 45 30 25 31 49 82 130 175 204 216 215 201 174 136 96 66 50 47 53 64 74 80 80 75 69 69 80 105 140 173 196 204 196 172 134 93 63 48 48 65 101 149 189 211 218 210 186 145 98 62 42 35 36 41 49 59 72 87 104 122 143 165 187 205 218 226 228 224 210 180 
117 74 47 37 42 64 103 152 194 218 230 234 233 227 216 198 174 149 129 119 124 141 165 187 201 204 194 168 127 83 51 34 29 36 57 97 148 193 219 230 229 219 198 164 122 85 61 49 47 49 52 53 52 50 51 59 79 113 154 186 203 204 187 154 110 71 47 38 43 65 106 157 196 217 221 212 188 148 102 67 48 42 42 46 51 57 63 70 79 91 109 134 163 189 209 220 223 218 200 165 
99 61 41 36 44 70 115 166 205 225 233 234 229 218 199 173 142 113 92 84 90 110 140 171 193 202 198 178 142 100 64 44 37 43 65 105 157 199 223 233 234 227 211 184 148 111 81 63 54 50 47 44 41 40 43 55 80 120 162 192 204 197 172 131 87 54 36 32 40 64 107 158 197 217 221 211 187 150 107 75 58 52 52 53 55 56 56 56 57 63 76 100 134 170 197 212 217 209 187 147 
83 51 35 33 44 73 120 172 208 227 232 230 220 200 171 135 100 73 58 53 60 80 114 154 185 202 204 191 164 125 86 59 47 49 68 105 153 194 218 229 230 226 215 196 170 139 111 91 78 68 59 51 44 41 44 57 84 125 166 192 199 186 153 108 67 41 29 27 37 61 102 151 189 209 213 203 180 147 111 84 70 65 64 62 59 55 49 45 42 44 53 75 111 153 187 206 210 200 173 129 
69 42 30 30 41 70 117 169 206 224 228 221 204 174 134 95 63 44 34 32 40 60 95 141 180 203 211 205 186 152 112 77 58 54 67 97 138 177 202 215 219 218 212 200 184 165 146 130 116 103 88 73 60 52 52 65 92 131 168 189 191 172 135 89 53 32 24 25 35 56 92 136 172 191 194 184 163 136 110 92 84 81 79 74 65 55 45 37 33 33 42 63 99 145 182 202 206 192 160 113 
59 35 25 26 37 63 107 160 198 217 220 209 182 142 97 61 38 26 21 21 30 50 87 136 180 207 218 216 203 175 135 95 67 57 62 82 114 147 174 190 198 201 200 196 191 184 176 168 159 147 130 109 88 74 70 80 105 140 171 187 184 162 122 78 47 30 24 26 35 53 82 116 145 161 162 152 135 117 104 99 100 102 99 89 74 58 44 34 29 31 40 63 102 148 184 203 204 186 149 100 
52 30 22 22 31 54 95 146 188 208 209 193 158 111 68 40 24 17 15 17 27 49 89 140 185 212 223 223 213 189 150 106 73 56 54 65 86 111 135 153 165 173 179 184 189 193 195 196 193 185 170 148 123 103 94 101 123 152 176 188 182 159 120 79 50 35 30 32 41 55 75 98 115 122 120 111 101 95 96 105 117 125 123 110 89 67 49 37 33 37 50 78 119 163 194 208 205 183 141 91 
47 27 19 19 27 47 84 134 176 198 198 178 137 88 50 28 17 13 13 18 30 56 100 152 193 217 226 226 216 192 153 108 73 53 47 52 63 80 97 113 127 139 153 167 181 194 203 209 211 207 196 176 152 129 118 122 141 165 184 192 187 166 132 95 67 52 47 50 57 67 78 87 91 89 82 75 72 77 91 113 136 150 151 137 112 85 63 50 47 54 74 107 148 183 206 215 208 182 137 85 
44 25 18 18 25 43 78 126 169 191 190 167 124 76 41 23 15 12 15 23 40 72 119 168 203 221 227 224 211 185 145 101 67 49 43 44 52 62 74 86 98 112 129 149 170 189 203 212 216 214 205 188 165 144 133 137 155 176 192 199 196 181 155 126 101 87 82 84 89 94 95 90 80 69 58 53 54 67 91 124 154 173 177 165 142 113 89 76 75 87 112 146 179 204 219 221 211 182 133 81 
42 25 18 18 26 45 79 126 168 190 188 164 121 74 41 23 16 16 21 33 57 95 143 185 211 223 224 217 198 167 125 86 59 45 42 45 52 62 72 81 91 102 118 138 160 180 196 206 209 207 197 180 159 140 133 141 161 183 199 207 207 198 183 164 147 136 132 134 136 134 124 106 84 63 48 43 48 66 98 137 172 192 197 189 171 148 126 115 117 132 156 182 205 220 227 226 212 181 130 78 
42 26 20 22 32 54 91 137 175 194 193 171 130 84 49 30 23 24 32 51 82 125 168 200 217 222 216 201 175 138 99 68 51 44 47 55 68 81 92 100 106 113 123 137 153 168 181 189 190 185 172 154 135 121 119 133 158 184 203 213 216 212 205 195 187 182 180 181 180 174 158 131 98 68 50 44 51 74 111 153 187 205 210 205 193 177 162 155 158 172 190 208 221 229 232 227 210 176 125 75 
43 30 27 33 48 75 114 157 189 204 202 184 148 103 66 44 36 40 54 79 116 157 191 211 219 215 202 176 141 104 73 53 45 47 58 77 98 117 130 137 139 140 140 143 148 153 158 159 156 147 133 115 99 92 96 116 148 179 203 216 221 221 218 215 211 210 210 211 209 202 185 156 119 84 62 56 66 92 131 170 198 213 217 213 204 193 183 179 184 194 208 219 228 232 231 223 203 167 117 71 
47 39 41 53 75 108 146 181 204 214 212 198 169 129 92 68 60 66 86 117 154 186 207 217 216 204 179 143 104 72 51 41 43 54 77 108 138 160 173 177 176 170 161 152 142 135 128 122 114 103 89 76 67 64 73 96 131 169 197 214 221 224 223 222 221 222 223 223 222 215 201 176 141 107 84 79 91 119 154 186 206 216 217 211 202 192 184 182 187 197 208 217 223 225 221 210 188 151 106 68 
55 56 67 87 115 148 179 203 217 223 220 209 187 155 122 99 92 102 126 156 185 206 218 219 209 187 150 108 72 48 36 35 44 65 100 141 175 196 205 207 202 192 177 157 135 115 99 87 77 67 57 49 44 45 55 77 111 151 184 204 214 218 218 218 218 219 221 222 221 216 205 186 159 132 114 112 125 149 176 198 209 212 208 198 185 173 164 163 168 179 190 199 204 205 199 185 161 127 93 67 
70 82 103 130 159 184 205 218 225 227 224 215 198 173 146 127 124 137 160 186 206 218 222 217 200 167 121 78 48 33 27 32 47 77 122 168 200 217 224 223 217 204 183 154 123 96 76 63 53 46 39 35 33 35 43 61 91 128 162 184 195 199 199 199 199 200 203 205 206 203 196 183 167 151 143 146 158 176 193 203 205 199 186 169 150 134 125 123 128 139 151 161 166 166 160 146 125 100 80 69 
90 114 143 171 193 209 220 226 229 228 223 213 197 176 154 141 142 157 179 201 216 224 223 213 189 147 98 57 34 24 23 30 49 86 137 185 214 228 232 229 221 205 179 144 108 79 60 48 41 36 33 30 29 31 38 51 74 103 131 151 161 164 162 160 159 161 164 168 171 172 170 166 162 160 163 172 183 194 200 200 192 175 152 127 105 89 80 78 82 90 100 109 115 115 110 100 88 77 71 75 
110 143 173 197 212 221 226 227 226 222 214 201 183 161 142 133 138 156 181 203 217 224 222 209 180 133 82 46 26 19 20 29 51 91 145 192 220 232 234 229 218 197 165 126 90 65 50 42 38 36 34 32 32 33 38 48 63 83 101 113 118 116 111 107 105 106 109 114 119 124 129 135 144 157 172 186 196 202 200 189 168 140 110 84 65 52 47 46 48 54 60 66 70 72 70 66 63 62 68 84 
125 159 188 207 217 222 223 221 216 207 194 176 153 130 113 107 115 137 165 192 210 219 218 205 175 127 77 41 24 17 19 28 50 90 145 193 220 231 231 224 208 181 143 103 72 54 45 43 43 43 43 43 43 44 47 54 63 73 81 84 81 74 67 62 59 59 61 65 70 76 84 97 117 143 169 190 200 202 192 170 138 103 73 52 39 32 29 30 32 36 41 45 48 50 50 50 52 58 70 93 
130 161 185 200 208 210 208 203 194 181 162 138 113 92 78 75 83 105 136 169 195 210 214 204 176 130 80 44 25 18 19 27 47 86 139 188 216 227 226 216 194 159 117 80 57 47 46 50 56 62 65 66 66 67 69 73 77 80 78 72 63 52 43 37 33 32 33 35 38 43 52 67 92 126 161 186 198 195 177 146 107 73 49 34 27 24 24 27 31 35 40 44 47 50 51 53 56 63 77 100 
124 147 165 176 181 181 178 171 160 144 123 99 77 60 50 48 55 72 100 137 172 197 208 204 182 143 94 55 32 22 20 26 43 78 129 178 209 221 220 206 177 135 93 62 47 45 52 65 80 94 102 105 106 106 106 107 106 103 95 81 65 50 38 29 24 21 21 21 23 26 33 48 73 110 151 180 191 184 159 121 82 53 35 27 24 26 30 37 44 52 59 65 69 72 73 74 75 79 88 103 
110 119 128 134 137 137 135 130 121 108 91 72 55 42 35 32 36 47 69 103 144 179 200 205 192 162 118 76 46 30 24 26 40 70 116 166 200 214 212 195 162 117 76 52 44 49 66 90 115 135 147 153 153 152 150 149 146 139 127 108 87 66 48 36 27 22 19 17 18 20 26 39 63 101 142 172 182 171 141 101 65 42 30 27 30 38 49 63 77 89 100 108 113 115 115 112 108 104 101 103 
92 88 87 88 89 90 92 94 93 87 77 64 50 38 30 26 26 32 47 75 116 160 192 206 203 184 149 107 70 45 32 30 38 62 104 152 189 206 206 188 152 107 69 50 47 60 86 120 152 174 186 190 190 188 185 183 181 175 164 147 125 100 78 59 44 34 27 22 20 21 26 38 62 99 140 168 175 160 127 87 56 38 33 36 47 64 85 107 128 144 155 163 167 167 164 158 147 132 115 101 
76 63 57 54 55 59 66 76 84 89 85 75 60 46 34 26 23 25 34 56 93 141 183 206 213 204 181 145 104 69 47 37 40 57 93 140 179 200 202 186 152 110 74 57 59 78 112 150 181 200 209 210 209 205 203 201 201 199 193 183 167 147 123 100 79 61 47 37 31 30 34 47 71 107 144 169 172 154 119 81 54 42 42 53 74 103 134 160 180 193 201 205 206 205 201 193 178 155 125 97 
65 48 39 37 39 46 60 78 98 111 115 106 89 68 48 33 25 22 28 44 76 125 174 206 219 219 206 180 143 103 69 49 44 56 85 128 170 194 200 189 161 123 91 76 80 103 138 174 199 213 218 217 212 207 203 202 204 207 208 206 199 188 172 151 129 106 85 68 56 51 54 68 93 126 157 175 174 155 120 84 59 51 57 78 110 147 179 201 215 222 226 227 227 224 220 211 195 168 131 93 
60 42 33 31 36 48 69 97 127 148 157 151 132 104 73 48 32 24 25 37 65 111 165 203 223 228 223 207 179 139 98 67 53 57 80 119 161 190 200 195 174 144 117 103 108 131 162 191 209 217 217 211 202 193 187 186 192 200 208 214 216 213 206 194 178 158 136 115 98 89 90 102 124 152 175 186 182 161 127 93 70 64 76 105 144 181 207 223 231 235 235 234 233 229 225 216 199 171 132 91 
63 45 37 36 44 61 90 126 161 184 194 191 175 146 109 72 45 30 26 34 57 100 155 199 223 233 233 224 204 171 128 88 64 59 75 109 150 183 199 199 187 165 143 132 136 154 179 199 211 214 209 196 179 163 153 152 161 176 193 208 218 223 223 218 210 198 181 163 147 136 135 143 159 178 192 197 191 171 140 107 85 80 94 125 164 197 218 229 234 235 233 230 227 223 218 209 194 169 132 93 
76 59 51 52 62 83 117 155 187 208 218 217 206 183 146 102 64 40 30 33 51 89 143 192 221 234 238 233 220 194 153 107 74 62 70 98 136 172 193 200 193 178 161 151 153 167 185 199 206 204 192 171 145 121 107 105 116 136 162 187 206 218 224 226 223 217 208 195 183 175 172 177 186 197 204 206 199 182 155 124 101 94 105 132 166 195 213 221 224 222 218 213 208 203 198 192 181 162 134 103 
103 88 81 81 91 112 143 175 202 219 227 229 223 207 177 134 88 54 36 33 46 78 129 180 215 233 239 237 228 206 168 120 81 62 64 84 118 154 180 191 190 179 165 156 156 165 179 190 194 187 169 140 107 81 67 64 72 91 119 150 177 198 212 219 221 219 214 207 199 193 191 194 200 207 211 212 206 192 169 141 115 102 105 124 149 172 188 195 195 191 184 176 169 164 162 162 161 155 141 122 
140 130 123 121 126 139 159 182 202 217 226 230 229 220 198 162 115 72 45 36 42 67 112 164 204 226 236 237 230 210 174 125 82 59 56 70 97 130 158 172 174 165 152 143 141 149 161 171 174 165 143 111 79 56 42 39 43 56 77 105 135 161 182 195 202 204 203 198 193 190 190 193 200 207 212 213 210 199 181 154 126 105 98 103 116 131 142 146 144 138 129 120 113 112 116 126 139 150 153 149 
176 172 166 159 155 155 162 173 188 202 214 222 226 223 210 182 139 92 58 40 40 57 92 141 185 214 228 232 225 206 170 121 78 54 48 57 77 104 129 144 146 138 126 116 114 120 131 143 147 141 122 94 66 45 33 28 29 36 48 66 89 113 135 152 164 169 171 169 167 166 169 175 185 196 204 209 210 203 189 166 136 107 88 80 80 85 88 89 86 80 73 67 64 66 76 96 123 150 168 176 
204 202 196 185 171 157 148 147 155 169 186 202 213 218 213 195 160 114 73 48 40 48 73 114 158 193 213 219 214 194 157 110 71 49 43 48 62 82 101 113 114 106 95 86 83 88 99 112 122 123 111 91 68 50 37 30 27 28 33 42 55 70 86 101 112 120 123 124 124 125 131 141 155 171 187 199 205 204 195 176 146 113 84 65 55 51 50 48 45 41 37 35 35 40 54 80 118 156 184 199 
220 219 211 197 173 145 121 108 108 121 141 166 189 205 210 201 176 135 91 59 43 42 57 86 124 161 185 196 192 172 137 96 63 46 41 45 56 70 83 90 88 80 70 62 59 64 74 90 106 116 115 104 86 69 54 43 35 31 30 32 37 44 53 62 70 76 79 80 81 83 88 98 114 135 158 179 194 201 198 185 160 125 89 62 44 35 30 27 24 22 20 20 22 30 46 78 122 167 198 214 
228 226 217 198 167 127 92 71 65 73 92 120 154 183 200 202 188 156 113 75 51 41 46 63 90 121 147 161 160 143 115 84 60 48 46 51 61 72 80 81 75 65 55 48 46 50 61 80 102 122 132 131 120 104 86 70 56 46 39 35 35 37 40 45 49 53 54 54 54 54 57 63 76 96 121 150 175 193 199 194 175 144 107 72 47 32 24 19 16 15 15 16 20 29 49 85 133 178 208 223 
230 228 217 194 156 108 69 46 38 40 54 79 116 156 187 200 196 175 139 98 65 47 42 48 63 85 106 120 124 116 99 80 66 61 62 70 80 88 91 87 75 61 50 42 41 45 59 82 111 139 158 164 160 149 132 112 92 75 61 52 47 45 46 48 50 52 51 48 45 41 40 42 50 63 86 117 151 180 197 201 192 169 134 97 64 42 29 21 17 16 16 18 24 36 59 97 145 188 214 226 
227 224 212 186 144 94 56 33 24 24 32 52 86 131 173 197 203 192 164 126 88 60 46 43 48 60 75 89 98 100 96 90 86 88 94 104 114 120 117 105 86 66 52 43 42 49 66 94 129 161 182 192 193 187 174 157 137 116 98 85 76 72 71 73 74 73 69 62 52 43 36 33 35 43 59 87 125 164 192 206 206 193 167 133 96 67 46 33 27 24 24 27 34 48 72 110 154 190 213 224 
215 212 201 175 133 86 50 29 20 18 23 38 68 115 163 196 209 206 188 156 117 81 57 45 43 48 59 72 86 99 108 115 121 128 138 148 156 158 149 129 102 77 58 49 50 60 83 116 152 182 201 210 212 209 201 189 173 156 140 128 120 117 117 119 119 117 108 94 75 56 41 32 28 31 42 64 101 146 184 207 215 211 196 171 139 106 79 60 49 44 43 47 54 67 88 119 154 182 201 211 
189 190 182 160 125 84 52 32 21 18 21 34 62 109 160 197 214 217 207 183 148 107 73 53 44 45 53 68 89 112 133 149 161 170 179 187 191 188 175 151 118 87 67 58 62 79 107 142 175 199 213 219 220 217 211 202 191 180 171 165 163 165 167 170 171 168 158 139 111 80 53 35 27 25 32 49 81 127 174 205 221 224 217 203 181 154 127 105 90 82 79 81 85 92 105 122 142 160 174 184 
148 154 155 144 120 89 61 40 28 23 25 37 65 112 164 201 219 225 219 203 173 132 91 63 49 47 55 72 100 132 160 180 193 201 207 211 211 205 189 161 126 93 73 68 78 102 135 168 194 211 219 221 219 213 205 195 186 181 180 183 189 196 202 207 209 207 199 181 150 110 71 43 28 23 25 38 65 109 160 200 221 229 229 222 210 193 174 157 143 134 130 128 125 122 118 117 118 123 130 139 
99 113 126 130 122 103 78 56 40 32 33 45 74 122 172 207 224 230 227 215 190 151 106 72 53 49 57 79 112 151 182 202 213 219 222 223 219 209 190 159 122 92 76 76 94 124 160 189 208 218 221 218 210 198 183 169 160 158 165 178 194 208 218 225 229 228 223 209 182 139 90 52 31 22 22 31 52 92 143 189 217 230 233 231 225 216 206 195 187 181 177 172 163 148 127 106 91 84 83 89 
62 81 104 125 133 125 105 80 58 45 44 56 87 135 182 212 228 233 231 221 198 159 112 75 54 50 58 82 120 163 195 214 224 228 228 226 219 205 180 145 108 82 72 80 104 141 177 203 217 222 220 211 195 171 146 126 116 117 130 153 180 204 221 231 236 238 234 224 202 161 109 63 35 23 20 26 42 75 123 171 205 223 230 231 229 224 219 214 211 209 206 200 188 165 131 95 68 53 48 52 
43 65 96 129 150 152 136 108 80 61 56 68 100 146 189 216 230 234 231 220 196 156 108 71 51 46 56 81 121 166 200 219 228 231 229 224 213 192 160 122 88 68 64 77 107 148 185 209 221 223 216 201 174 139 105 81 71 73 88 116 151 186 212 228 236 240 238 231 213 178 126 75 42 25 20 23 35 60 99 146 183 206 217 221 220 219 217 217 218 219 219 214 201 174 132 88 54 36 29 32 
37 63 101 142 170 177 164 134 100 74 65 76 107 152 192 218 230 233 228 215 187 143 95 61 44 40 50 74 114 161 197 218 228 230 227 218 202 173 135 97 68 54 55 71 103 146 185 209 220 220 211 189 153 109 73 50 41 42 55 79 115 157 193 217 230 237 238 233 218 189 142 90 52 31 23 23 31 48 77 114 149 174 188 194 196 197 199 204 211 217 220 218 206 178 134 85 49 29 22 25 
44 74 117 160 188 195 181 150 111 81 68 76 105 148 189 215 227 229 223 205 171 123 78 49 35 33 42 64 102 149 189 213 224 226 221 209 186 152 111 76 54 45 48 64 95 137 176 202 214 214 203 177 136 91 55 35 27 27 34 52 81 121 163 195 216 228 232 230 220 197 158 110 69 44 32 28 32 41 59 82 108 128 141 147 151 154 162 174 190 204 214 216 207 182 139 90 52 31 24 28 
63 98 142 180 201 204 188 153 111 77 63 68 94 136 179 208 222 224 215 193 153 103 62 38 28 27 35 54 88 133 175 202 215 217 210 195 168 131 93 64 47 41 45 58 84 121 159 186 201 203 192 167 127 85 52 33 24 22 26 36 56 87 125 162 191 209 219 222 217 202 174 134 96 68 51 43 40 42 49 59 71 82 89 92 95 100 111 130 155 181 201 210 206 186 149 102 64 42 36 42 
96 132 170 197 210 206 184 144 99 66 52 56 78 118 163 197 215 218 207 181 137 87 50 31 23 23 30 47 75 115 156 184 198 200 192 174 147 114 84 62 51 46 49 58 76 103 134 160 177 183 177 158 126 92 63 44 33 28 27 31 41 60 87 120 152 177 195 206 209 203 187 162 132 105 85 71 61 54 50 49 49 50 51 51 51 55 66 86 117 153 183 201 204 191 162 122 86 65 61 71 
