P2
100 100
255
137 167 194 210 213 202 172 128 83 53 41 43 62 99 145 184 205 210 200 172 127 80 47 30 24 25 32 46 69 100 134 159 171 172 163 146 124 102 85 73 67 64 64 67 75 89 107 127 143 153 155 148 132 110 88 70 56 46 39 35 37 44 59 81 106 132 157 177 191 197 195 184 168 150 132 116 99 81 65 51 42 36 32 29 28 30 38 55 85 125 163 189 199 193 173 144 116 100 99 112 
177 197 212 219 214 195 157 108 65 40 30 33 49 82 129 173 199 206 197 171 129 85 53 37 31 33 40 52 70 93 115 130 137 134 126 115 105 98 95 96 98 97 93 87 82 80 84 93 104 117 129 138 140 136 126 112 96 79 63 49 41 38 42 51 66 86 111 139 166 186 198 201 197 189 178 164 144 118 89 63 43 31 24 20 19 20 27 41 68 106 147 178 191 191 179 161 144 136 141 156 
203 216 223 223 213 186 141 90 52 31 24 27 42 73 119 166 195 205 200 178 143 103 73 56 51 54 61 72 84 95 102 104 102 96 90 87 89 98 113 128 139 141 133 118 98 80 69 66 72 84 103 126 148 162 166 161 147 127 101 75 53 40 34 35 41 53 72 101 137 171 195 209 214 214 210 200 183 156 120 82 52 34 23 19 18 20 27 40 65 99 137 165 178 180 173 163 158 160 172 187 
216 225 229 225 209 177 127 76 42 25 20 25 40 71 118 165 195 207 205 190 163 133 107 92 89 92 100 107 111 108 99 87 75 66 62 65 77 100 131 159 177 182 174 153 121 88 63 51 50 59 81 114 151 180 195 199 192 174 145 108 73 47 33 27 27 33 47 73 111 155 190 211 222 226 226 221 208 185 148 105 67 43 30 24 24 28 37 52 75 104 132 151 158 157 151 148 152 165 184 202 
220 228 230 224 205 168 115 66 36 23 21 27 44 77 124 169 198 210 209 200 183 164 147 139 138 143 149 151 145 129 104 78 59 47 44 50 68 101 143 181 203 209 203 182 145 101 64 43 37 43 64 102 149 188 211 220 219 206 181 141 95 58 36 25 22 25 35 57 95 143 184 210 224 230 232 229 220 202 170 128 87 59 45 40 42 50 62 79 100 120 133 137 132 124 117 118 129 152 179 203 
217 227 229 222 200 159 105 60 34 24 24 34 55 91 137 177 201 210 210 204 195 185 179 178 181 186 190 188 176 151 114 76 50 36 33 39 60 98 148 191 216 224 220 201 165 116 70 42 31 34 53 91 144 190 218 230 232 223 202 163 113 68 41 27 22 23 32 53 90 138 181 208 222 229 230 228 221 207 181 146 110 84 72 70 76 89 105 122 136 143 139 125 106 89 80 82 97 126 162 195 
209 223 226 218 193 150 97 56 35 28 32 46 73 111 152 183 200 205 203 198 193 191 193 198 205 212 215 211 197 168 123 78 46 30 26 32 53 93 147 194 221 231 228 213 181 130 79 44 29 30 46 83 137 187 218 232 236 229 210 174 123 76 45 31 26 28 39 61 97 142 180 204 216 221 222 219 212 200 181 157 133 116 111 115 126 141 157 169 173 167 147 116 84 62 51 52 66 96 138 180 
198 217 221 212 185 140 91 55 39 37 46 67 98 135 166 186 192 189 182 175 173 177 187 201 213 222 225 222 209 180 133 82 46 27 22 27 47 86 142 191 221 233 232 221 193 145 91 51 31 29 43 78 132 183 216 230 234 227 209 173 124 79 50 37 35 41 55 80 115 152 181 198 204 204 201 196 188 179 167 156 148 146 152 162 175 188 198 204 200 185 152 109 70 45 34 33 45 71 114 162 
187 210 214 203 174 129 85 57 46 51 69 96 129 158 176 181 173 159 145 135 135 145 164 187 207 221 228 227 215 188 142 89 49 28 21 25 43 80 135 186 218 232 234 225 202 160 106 62 38 33 46 78 129 179 210 225 227 218 197 160 115 77 55 49 53 66 86 112 141 167 182 187 184 175 165 155 148 142 139 142 151 165 181 196 208 217 223 223 216 194 155 104 61 35 24 23 32 54 94 145 
177 201 205 191 160 118 80 61 59 73 100 131 159 176 179 167 144 119 99 88 89 102 127 160 191 213 224 226 218 195 154 102 59 34 24 26 42 77 129 181 214 229 233 227 208 173 124 79 51 44 55 85 131 175 203 214 212 199 173 137 100 73 63 66 81 103 127 151 170 181 182 172 154 134 117 104 98 97 103 119 143 171 195 213 224 231 234 232 222 198 153 98 54 30 20 18 26 45 82 132 
170 193 194 177 143 105 77 68 77 102 135 165 184 188 175 147 111 80 60 50 51 64 89 125 165 197 216 223 219 202 168 121 77 48 35 34 47 78 126 174 207 224 229 226 212 184 143 101 73 64 73 100 138 172 192 197 188 168 139 107 81 69 72 89 116 145 170 186 194 192 179 154 123 94 73 62 58 61 72 94 128 166 198 219 230 236 238 235 223 196 148 92 49 27 18 17 24 42 78 126 
166 185 182 159 125 92 75 76 98 132 166 191 200 193 167 126 84 53 35 28 29 38 58 92 134 174 202 216 217 207 183 146 105 74 56 52 61 86 125 166 197 213 220 219 209 189 159 126 102 93 101 122 148 169 178 172 155 129 100 77 64 65 82 113 150 181 200 210 210 200 176 140 99 67 47 38 36 40 51 74 111 154 192 216 230 236 238 234 220 190 140 84 45 25 17 17 26 45 80 127 
167 179 169 141 107 81 73 86 117 157 190 207 209 194 159 109 65 36 23 18 19 25 40 66 104 146 181 203 212 209 196 172 141 113 93 84 86 101 126 155 178 193 201 202 197 186 168 148 133 128 134 146 160 166 160 143 118 91 68 55 52 64 91 132 173 202 218 222 218 203 175 133 89 56 38 30 28 32 42 61 94 137 177 206 223 232 233 229 213 180 128 76 41 23 18 20 31 53 90 134 
171 174 155 122 90 70 71 93 132 175 204 217 214 194 153 99 54 29 18 14 16 21 32 50 80 118 155 183 199 206 203 192 176 156 139 126 119 120 126 138 149 159 166 170 171 169 165 160 157 158 162 167 168 161 143 116 88 64 48 42 46 63 97 143 184 211 224 226 220 205 177 136 92 60 42 34 32 34 40 54 79 115 154 187 208 220 224 219 201 166 116 68 38 24 20 26 40 67 106 146 
177 170 142 105 75 61 68 96 141 184 212 222 217 194 150 96 52 28 18 16 18 23 31 43 64 92 124 154 178 193 201 203 199 190 179 166 152 137 124 115 112 114 117 123 131 140 150 160 169 176 180 179 172 155 128 98 70 51 40 38 45 64 98 143 183 209 220 222 217 203 179 145 109 80 62 52 47 45 46 52 67 92 124 155 181 198 205 202 185 151 104 62 37 27 26 36 56 89 129 162 
183 165 130 91 63 53 63 94 141 186 213 223 218 195 153 100 58 34 25 24 27 32 38 45 56 73 94 119 145 169 189 202 209 210 205 194 174 147 117 93 78 72 72 77 88 105 126 149 169 181 186 182 169 147 118 89 65 50 43 43 50 67 96 134 170 193 205 208 205 196 181 159 134 113 98 87 77 68 60 56 59 71 91 116 142 163 177 179 166 136 97 63 43 35 39 53 80 117 154 178 
187 162 120 79 53 45 56 86 132 178 208 220 216 197 160 113 73 50 42 43 47 53 56 58 59 62 71 86 108 135 165 190 208 216 216 207 186 150 109 74 53 44 42 46 57 76 104 135 162 178 182 176 161 138 113 90 73 63 59 59 63 75 94 119 144 163 174 179 181 180 176 170 162 153 144 134 121 103 82 65 56 56 63 79 99 122 141 152 148 129 101 74 58 54 62 82 113 149 178 192 
190 158 113 71 46 39 47 73 115 161 194 210 211 197 169 132 99 80 75 78 85 90 90 82 70 60 56 60 74 98 132 169 198 214 219 211 188 148 99 61 39 29 26 30 41 61 90 124 153 169 171 163 147 128 110 99 92 90 89 89 89 90 94 102 112 121 128 134 142 152 164 175 182 186 185 179 164 139 107 77 56 46 45 52 66 87 111 131 139 134 117 99 88 87 98 121 151 179 197 202 
192 157 109 66 41 33 39 58 92 133 169 191 198 192 176 154 133 123 122 130 138 141 135 116 90 65 49 44 49 67 100 143 182 207 216 210 185 141 90 52 31 22 21 26 37 58 89 122 148 159 156 143 128 115 110 112 120 128 133 132 126 115 101 90 83 80 81 87 98 118 145 173 193 206 211 208 194 167 127 86 56 40 35 37 48 67 94 123 143 150 145 136 130 131 143 162 183 201 210 209 
196 160 110 66 40 30 32 44 67 99 132 158 174 179 177 171 165 165 170 179 186 187 176 150 111 73 47 35 34 46 74 118 164 197 210 205 179 133 82 46 27 21 22 29 45 69 101 131 150 152 140 122 106 100 107 125 148 166 175 175 165 143 114 85 64 52 48 52 64 89 126 167 198 216 223 222 209 180 136 88 55 36 30 31 41 61 93 129 157 172 175 172 170 172 180 192 205 215 219 214 
200 166 118 72 42 29 27 33 46 67 92 118 140 157 170 179 186 194 202 210 216 215 203 174 128 80 47 30 26 35 58 100 150 188 204 199 172 126 76 43 27 24 28 42 64 95 127 151 159 150 127 102 86 85 102 132 166 192 205 206 194 169 130 88 56 38 31 32 44 70 113 162 199 220 228 226 212 180 133 84 50 33 27 30 42 66 103 144 175 192 197 197 196 197 201 208 216 222 223 217 
206 177 133 85 51 32 26 26 32 44 60 80 104 131 157 179 196 209 218 226 229 227 214 184 135 83 47 29 24 30 52 92 143 183 200 195 167 120 74 44 31 32 43 65 97 132 161 176 173 152 118 87 69 71 92 131 173 204 220 222 213 188 146 96 56 33 24 24 35 61 106 159 199 221 228 223 205 170 120 74 44 30 27 32 48 78 120 161 190 204 209 208 205 205 207 212 218 223 224 220 
212 190 153 107 67 41 29 24 25 30 40 55 77 109 144 176 199 215 225 231 233 229 215 183 134 82 46 29 25 33 56 97 146 184 200 193 164 118 74 47 39 46 67 100 138 172 192 198 187 157 114 76 57 57 80 121 170 206 225 230 223 201 160 106 60 33 22 22 34 61 107 161 200 220 225 216 192 150 101 61 37 28 29 38 60 95 139 176 199 208 208 203 198 195 197 203 211 218 222 222 
217 203 175 134 91 58 38 28 25 26 32 44 65 98 138 174 200 216 225 230 230 223 206 172 123 76 46 32 32 44 72 114 160 191 203 194 164 119 77 54 51 66 98 139 177 203 216 215 198 162 112 69 47 46 66 106 158 200 224 232 228 209 171 117 67 37 25 25 37 66 113 165 202 218 218 203 172 126 80 48 32 28 33 49 76 115 156 185 199 200 193 182 172 167 169 178 191 205 216 220 
219 213 195 164 123 84 56 39 32 30 35 47 68 101 141 176 200 213 220 222 219 208 186 151 107 69 47 40 47 66 99 141 179 202 208 195 164 119 81 62 65 90 131 174 205 223 229 225 205 166 111 65 41 37 52 88 140 188 218 230 229 214 181 129 77 44 30 30 43 74 122 171 202 214 208 186 147 101 62 40 31 32 43 65 98 136 168 186 188 178 161 142 127 120 123 136 157 181 201 214 
215 218 209 188 155 117 83 61 49 46 51 65 88 120 154 182 199 207 209 205 196 180 154 121 87 63 52 56 72 100 137 173 200 213 212 196 162 117 82 68 78 110 156 196 222 234 237 230 209 168 111 62 36 29 40 70 118 171 208 226 228 217 188 139 87 52 36 36 51 84 130 174 200 206 194 164 122 80 50 36 34 43 61 89 124 156 176 179 167 144 117 93 77 71 74 88 113 145 177 201 
204 216 215 204 181 150 118 93 80 77 84 100 123 149 173 190 197 196 188 175 158 137 113 88 68 59 63 80 107 141 174 200 216 221 214 193 155 111 78 69 84 121 169 207 229 239 240 232 212 170 111 60 33 24 30 54 97 151 195 219 225 217 192 148 97 61 44 44 60 92 136 174 194 194 176 142 101 66 47 41 47 63 89 121 152 173 179 166 139 106 75 54 42 37 40 51 72 105 144 180 
185 205 213 209 195 174 150 131 121 121 130 145 163 180 192 196 191 177 157 134 111 90 73 60 55 60 79 110 146 179 204 219 226 224 212 184 142 98 70 64 81 120 169 208 230 239 240 233 212 170 111 60 31 21 24 42 78 131 180 210 221 216 194 154 106 69 51 51 66 97 136 168 183 179 157 123 88 63 53 56 71 95 126 156 178 187 179 153 114 75 47 31 22 19 21 29 44 70 108 150 
156 185 199 201 195 182 168 159 156 162 173 185 196 204 206 199 181 153 120 91 69 54 45 42 48 65 98 140 178 206 222 230 231 223 204 169 123 81 57 53 70 108 157 199 224 236 238 231 211 170 112 60 31 19 21 34 66 116 167 201 215 213 193 156 110 74 56 56 70 97 130 157 168 162 141 113 87 73 73 86 108 137 165 187 199 197 179 143 97 57 32 19 13 12 13 18 28 47 77 117 
124 154 173 180 178 172 167 167 174 186 198 209 216 218 213 197 168 128 88 59 41 32 29 32 45 73 116 164 200 221 232 234 230 217 190 148 100 63 44 42 56 88 134 179 210 227 232 227 208 169 113 63 34 21 21 33 62 108 159 195 210 207 188 152 109 75 59 57 69 92 119 142 151 147 132 114 100 97 107 126 151 176 196 209 212 204 181 140 91 51 28 16 11 10 11 14 21 34 56 88 
95 120 137 144 145 143 146 155 171 190 206 218 224 223 214 192 154 106 65 40 26 21 21 28 46 82 132 181 213 229 235 234 225 205 170 122 77 47 33 31 41 65 104 149 186 210 220 218 202 167 116 70 41 28 28 40 68 112 159 191 205 201 180 144 103 72 57 56 66 84 106 127 138 139 134 127 125 131 146 166 186 203 215 221 220 209 185 145 96 56 32 20 15 13 13 16 21 30 45 68 
79 94 103 105 104 104 111 126 149 176 199 215 222 222 210 184 140 90 52 30 19 16 18 28 50 91 145 192 219 232 235 229 215 186 143 95 57 35 25 24 30 47 75 113 152 182 198 202 190 162 121 81 55 44 46 59 88 128 167 193 201 193 168 131 93 66 54 53 61 76 96 116 131 140 144 147 154 165 180 195 209 218 224 225 222 212 191 156 113 74 48 34 27 24 24 25 29 36 47 62 
81 85 83 78 72 70 75 90 115 146 176 199 211 212 200 172 127 80 45 26 18 16 20 32 58 103 157 199 222 231 230 219 197 160 113 70 42 27 20 20 24 34 52 80 113 144 166 176 172 155 127 100 81 74 78 94 122 154 182 198 199 184 155 116 81 58 49 50 57 72 92 113 133 148 159 169 179 190 201 211 217 221 223 222 218 210 195 171 138 105 80 63 54 50 48 49 52 57 64 73 
102 95 83 69 57 50 51 60 80 108 140 168 186 191 182 156 116 75 46 29 22 21 27 42 73 119 168 203 221 225 219 201 170 127 84 51 32 22 19 20 23 29 40 58 81 105 127 142 147 143 133 122 115 116 125 141 162 183 198 203 196 175 140 100 69 52 46 48 57 72 93 117 140 159 174 186 195 203 209 213 214 214 211 209 205 201 194 182 164 144 126 111 102 96 93 92 94 97 101 103 
137 122 100 77 57 44 39 42 53 73 99 126 147 158 155 138 110 79 55 41 35 36 44 63 96 139 180 206 216 214 200 173 135 94 59 38 26 22 22 24 28 33 40 50 63 78 94 108 119 128 135 142 150 159 170 183 195 205 210 207 193 165 126 88 61 48 45 50 61 79 102 127 151 170 185 194 201 204 205 202 197 190 184 179 178 179 183 185 183 179 172 165 159 154 151 149 149 149 149 146 
174 156 130 99 71 51 39 35 38 48 64 84 104 119 126 122 110 93 78 67 63 65 76 97 128 163 190 204 205 194 170 136 98 65 43 31 27 28 32 38 44 50 55 58 62 67 73 83 95 111 131 153 173 188 200 209 215 218 216 207 187 154 114 79 57 48 49 57 71 91 115 139 161 176 187 193 194 192 185 174 161 148 138 132 133 142 158 176 191 200 203 203 202 199 197 195 193 192 189 184 
199 185 162 132 99 71 50 39 34 36 43 54 69 86 102 114 120 119 115 111 110 113 124 141 163 183 196 198 187 164 132 97 66 45 33 30 33 41 53 66 78 85 88 85 79 72 68 69 77 95 121 152 180 201 213 220 223 222 216 201 177 142 104 75 60 56 61 73 90 110 131 150 164 173 178 178 173 163 149 131 113 96 85 80 84 99 124 156 186 207 218 223 224 223 221 219 216 214 211 207 
210 202 188 165 135 102 74 53 39 33 33 39 49 65 88 114 137 152 159 161 163 166 172 181 191 197 196 184 161 128 94 65 44 33 31 36 48 68 90 112 129 137 137 128 112 92 74 65 66 80 105 139 173 198 212 219 220 216 206 188 161 128 98 78 70 73 84 99 117 133 146 155 159 159 156 149 138 122 104 85 68 55 46 43 48 63 91 132 174 204 222 230 232 231 228 225 221 218 216 214 
208 208 203 191 170 141 109 79 55 40 33 33 40 57 84 121 156 180 194 200 202 203 205 207 207 201 188 163 129 94 64 43 33 30 36 50 75 106 138 164 180 187 185 172 150 119 89 68 60 67 88 119 154 181 198 205 205 198 184 164 138 113 94 87 90 102 118 134 147 156 158 154 145 135 124 112 98 83 67 52 40 31 26 24 28 41 66 108 157 195 218 227 230 228 222 216 210 206 204 206 
192 202 208 207 197 178 149 115 82 57 42 36 40 56 87 130 172 200 215 221 223 223 221 218 211 197 173 138 100 67 45 33 29 34 48 74 110 149 182 203 215 219 215 203 180 145 106 75 60 59 72 97 127 153 169 176 173 163 147 129 110 98 95 103 118 138 155 168 175 173 163 145 125 106 91 78 66 55 45 35 27 21 18 17 20 30 52 90 139 181 206 217 217 212 202 190 179 173 174 181 
162 186 204 213 213 204 185 155 119 84 58 45 45 60 92 138 182 210 225 230 231 229 225 218 205 184 152 114 78 52 37 31 34 46 71 107 148 185 210 225 232 234 230 219 197 163 121 84 63 58 64 80 101 120 131 133 127 116 103 90 83 85 98 121 148 171 187 195 194 183 162 132 103 80 65 55 48 42 36 30 25 21 18 17 20 28 47 79 122 162 186 195 191 179 162 144 129 123 126 140 
125 161 193 213 221 220 209 188 156 118 83 61 55 67 98 142 185 212 226 231 231 227 219 208 190 163 129 94 65 47 39 40 49 70 102 143 181 209 226 235 238 238 233 222 203 171 131 95 73 65 67 76 87 95 97 92 84 74 65 60 63 77 104 140 173 196 208 211 205 187 156 118 84 62 50 44 42 40 39 36 32 29 26 25 28 35 51 77 110 141 158 160 149 131 109 90 77 72 77 95 
91 135 178 208 223 228 224 211 187 152 113 82 69 74 100 139 179 205 219 223 220 213 202 186 165 138 109 83 64 55 54 61 77 104 139 175 204 222 232 237 237 234 228 216 197 168 135 107 89 84 85 89 91 88 79 67 55 47 42 42 51 73 111 155 190 211 220 220 209 186 148 105 70 51 43 43 46 51 54 55 53 50 47 46 48 55 67 86 107 122 127 119 103 83 64 49 40 38 43 60 
69 113 163 201 222 230 231 223 206 177 139 103 81 79 96 127 161 185 198 201 196 185 170 152 132 113 95 83 77 77 84 97 118 145 174 199 217 227 232 232 229 223 213 198 178 156 134 119 113 115 119 120 114 100 79 58 43 33 30 32 45 72 117 166 201 220 227 224 210 182 139 93 61 46 44 50 62 75 86 92 93 91 88 85 86 90 98 107 113 112 102 85 67 50 37 28 22 22 26 40 
57 98 149 192 217 229 232 228 215 192 156 118 89 79 86 106 130 151 161 162 154 141 126 112 100 94 93 97 104 114 127 142 161 180 198 212 221 225 224 220 211 199 183 165 147 133 127 130 140 151 160 160 150 126 94 63 41 29 25 28 42 73 122 173 208 225 229 224 208 175 129 84 56 46 50 66 88 112 132 143 147 145 142 139 137 138 139 137 128 111 89 66 47 33 24 19 16 16 21 32 
53 88 136 179 208 222 227 225 215 195 162 123 91 74 72 81 95 107 112 111 103 93 83 77 78 87 102 121 139 155 169 181 192 202 209 214 216 213 206 194 178 158 137 119 107 105 116 137 162 183 194 196 185 159 119 77 46 29 23 26 41 74 126 177 211 227 230 223 203 167 119 77 54 50 62 88 122 153 175 187 191 191 188 185 183 180 176 166 147 118 86 58 39 28 21 18 17 18 22 32 
55 83 122 161 190 207 214 214 205 187 156 119 87 67 60 60 65 69 70 68 62 57 55 58 71 93 121 150 172 188 197 203 206 208 207 205 199 189 174 154 131 108 88 75 71 80 104 141 178 204 217 219 210 186 145 95 55 33 24 26 42 76 128 180 212 227 228 219 196 157 109 72 55 58 79 114 153 184 204 213 216 216 213 211 208 205 198 186 163 129 92 61 41 31 26 24 25 27 31 39 
64 81 107 137 162 179 188 190 183 167 141 109 81 62 51 47 46 46 45 42 40 39 43 54 76 108 145 175 195 206 210 209 205 199 191 180 167 150 130 107 85 66 52 45 47 62 95 142 187 215 229 232 226 205 166 113 65 37 26 28 44 79 132 182 212 225 225 212 186 144 100 69 59 69 97 137 176 202 217 223 224 222 220 218 216 213 207 195 173 141 104 73 53 44 40 41 43 46 49 54 
80 84 93 108 123 137 147 151 150 140 122 99 78 61 50 43 39 36 34 32 32 35 44 62 92 131 167 193 207 211 208 200 188 173 158 142 125 107 88 70 54 41 33 30 35 52 89 141 190 220 235 239 234 217 181 127 75 43 29 31 48 84 136 183 211 221 218 202 171 130 90 68 65 83 116 156 189 209 218 220 218 215 212 210 209 208 204 196 179 154 123 96 79 71 70 73 78 81 82 81 
103 90 82 81 85 93 101 109 114 115 109 98 84 70 58 49 42 37 33 32 34 41 56 81 117 155 185 203 209 205 193 175 154 133 114 99 85 73 62 51 40 32 26 25 30 47 83 136 187 220 236 241 237 221 188 137 83 48 34 37 56 94 144 186 209 215 207 186 153 113 83 70 76 100 135 170 195 207 209 205 198 192 187 186 188 191 192 190 181 165 146 128 116 113 116 123 129 131 128 118 
128 98 75 62 58 60 67 77 90 102 109 110 103 93 80 68 57 48 43 42 46 58 79 110 145 177 197 205 201 187 164 137 111 90 75 66 61 57 54 49 42 35 29 26 30 45 77 127 179 215 232 238 235 220 189 140 88 55 42 48 70 109 154 189 205 205 191 165 130 97 77 75 91 120 154 181 195 197 190 176 162 151 145 146 152 162 171 177 178 174 167 160 157 159 165 173 178 179 172 154 
145 105 71 51 43 43 50 64 84 107 126 136 137 130 117 102 86 73 65 63 69 85 110 142 172 193 203 201 186 159 126 95 71 57 50 49 53 59 64 64 59 50 40 33 33 43 69 112 162 201 222 230 227 212 181 136 91 63 55 65 92 131 168 192 199 190 169 138 106 83 76 86 111 143 171 188 191 182 162 138 116 102 97 100 110 126 144 160 172 179 182 184 187 193 200 206 210 210 201 180 
154 107 68 45 36 37 47 66 95 127 153 169 174 171 160 144 126 109 97 94 102 119 144 171 192 203 203 191 164 127 90 62 45 38 38 46 60 78 92 98 93 80 63 48 40 43 60 93 136 175 200 210 208 192 163 124 90 72 73 91 121 155 181 193 189 170 141 109 84 73 79 101 133 165 186 194 187 165 133 100 76 63 60 65 77 96 119 142 162 177 187 196 203 211 217 223 226 224 215 192 
154 104 64 42 35 39 54 82 119 155 182 198 203 202 194 181 164 146 132 127 133 149 171 190 203 207 200 179 142 100 64 42 31 30 37 53 79 109 134 145 141 124 98 72 53 46 52 73 104 138 163 175 173 158 134 106 87 83 96 122 152 178 192 191 175 146 111 83 67 68 86 118 156 185 199 199 183 151 110 75 52 42 41 47 58 76 99 124 148 168 184 196 207 216 224 229 231 229 218 195 
146 96 59 41 37 45 68 105 148 183 206 217 221 220 213 202 186 168 153 146 151 165 183 198 207 207 195 168 127 82 50 32 26 29 41 67 105 146 176 189 186 169 139 103 72 53 49 56 74 96 116 126 125 115 99 87 84 95 120 151 178 195 197 184 156 119 85 62 56 66 94 135 175 200 210 204 182 144 99 63 43 35 35 41 52 67 86 107 130 150 169 186 201 213 223 228 231 228 216 190 
133 86 54 40 40 55 87 131 174 204 221 228 230 227 219 207 190 169 152 144 148 162 180 196 205 205 192 163 121 77 46 30 26 32 49 83 130 175 204 216 215 201 174 136 96 66 51 48 54 65 75 81 81 76 70 70 81 106 140 173 195 203 196 172 134 94 63 48 49 66 102 149 189 211 217 208 184 143 97 62 43 37 38 43 52 63 76 91 107 124 143 164 185 203 217 225 227 223 209 179 
117 74 48 38 44 65 104 153 193 218 229 233 232 226 214 197 174 149 130 121 125 141 164 186 199 202 192 166 126 83 51 34 30 37 58 97 148 193 219 229 229 219 197 163 122 85 61 50 48 50 53 54 53 51 52 60 80 114 154 187 203 204 188 154 111 72 48 39 44 66 107 157 196 216 221 211 186 146 101 67 49 43 45 49 55 61 68 74 82 93 109 133 161 187 207 218 222 217 199 164 
100 62 42 37 46 72 117 167 204 225 232 233 228 217 198 172 142 113 94 86 91 111 140 170 191 200 196 176 141 100 65 44 38 44 65 105 156 199 223 232 233 226 210 183 147 110 81 64 55 51 48 45 42 41 44 56 81 120 162 192 204 198 173 132 88 55 37 33 41 65 108 158 197 216 220 210 186 148 107 76 59 54 54 57 59 60 60 60 61 65 77 100 132 167 195 211 215 208 186 147 
84 51 36 34 46 74 121 172 208 226 232 229 219 199 170 135 101 75 59 54 61 81 114 152 183 200 202 190 163 125 87 60 48 50 69 106 153 193 217 228 230 225 214 195 168 138 111 91 78 69 60 52 45 42 45 57 85 125 166 192 199 186 154 110 68 42 29 28 38 62 103 151 189 209 212 202 179 145 110 85 72 67 67 66 63 59 53 48 45 46 54 75 109 150 184 204 209 199 172 129 
70 43 31 31 43 71 118 170 206 223 227 220 203 173 134 95 64 45 35 33 41 60 95 140 179 202 209 204 185 152 113 79 59 55 68 98 139 177 202 215 219 217 210 199 182 163 145 130 116 104 90 75 62 53 53 65 93 131 167 189 191 173 135 90 54 33 25 26 36 58 94 137 172 191 193 183 162 135 109 93 86 84 82 77 69 58 48 40 35 34 42 62 98 142 179 200 205 191 159 113 
60 36 26 27 38 64 108 160 198 217 219 208 181 141 97 62 39 27 22 23 31 50 87 135 179 205 216 215 202 175 136 96 69 58 63 83 114 148 174 190 197 199 198 194 189 182 175 168 159 148 131 111 90 75 71 80 105 139 170 186 184 161 122 79 47 30 25 27 36 55 84 118 146 161 162 151 134 116 104 99 101 104 101 92 77 60 46 36 31 31 41 63 101 146 182 201 203 186 149 100 
52 31 23 23 32 55 96 147 187 207 208 192 157 111 69 40 25 17 16 18 28 50 89 140 184 210 222 222 212 189 151 108 75 58 56 66 87 112 135 153 164 171 177 182 187 191 194 195 192 185 171 149 124 103 94 100 122 150 175 186 181 158 119 79 50 35 30 33 42 57 77 100 117 124 121 111 101 95 96 105 118 126 125 112 90 68 49 38 34 37 50 78 118 161 192 207 204 183 141 91 
48 28 20 20 28 48 84 134 176 197 197 177 136 88 51 28 18 14 14 19 31 57 100 151 192 216 225 225 215 192 154 110 74 55 49 53 64 81 98 113 126 137 150 164 178 191 202 208 210 207 196 177 153 130 118 121 139 163 182 191 185 164 130 94 67 52 48 50 58 69 80 89 93 90 83 76 73 77 91 113 136 150 151 137 112 84 62 50 47 54 74 106 146 182 205 214 207 182 137 85 
45 26 18 18 25 44 78 125 168 190 189 166 123 76 42 23 15 13 16 24 41 72 119 167 202 220 226 223 211 185 145 102 69 51 44 46 53 63 75 87 98 110 126 146 167 186 201 211 215 214 205 188 165 144 132 136 153 174 190 198 194 179 153 124 100 86 82 84 90 95 97 92 82 70 59 54 55 67 91 124 154 172 175 163 140 112 88 75 74 87 111 145 178 203 218 221 210 182 134 82 
43 25 18 19 26 45 79 126 167 188 187 164 121 75 42 24 17 17 22 34 58 96 143 184 210 222 224 216 197 166 126 87 60 47 43 46 54 63 73 82 90 101 116 135 157 178 194 205 209 207 197 180 159 140 132 140 159 181 197 205 205 196 180 162 145 135 132 133 136 135 126 108 85 64 49 44 49 66 98 137 171 191 195 187 169 145 124 113 115 130 154 181 204 220 227 225 212 181 131 79 
43 26 21 23 33 54 91 136 174 193 192 170 130 84 50 31 24 25 33 52 83 125 168 199 216 221 216 200 174 138 100 69 52 45 48 57 69 82 92 100 106 112 121 134 150 166 180 188 190 185 172 154 135 120 119 132 156 182 201 212 214 211 203 194 185 180 179 180 180 174 159 132 99 69 51 45 52 74 111 153 186 204 209 204 191 174 159 152 156 170 189 207 221 229 231 226 210 176 126 76 
44 30 28 33 48 75 114 156 188 203 201 183 147 103 67 45 37 40 54 80 117 157 190 210 218 215 201 175 141 104 73 53 46 48 60 78 99 117 130 137 138 138 138 141 146 152 157 159 156 147 133 116 100 92 96 116 146 178 202 215 220 220 217 213 210 209 209 210 209 202 185 156 119 84 62 56 66 92 131 170 198 212 216 212 202 191 181 177 182 194 207 219 227 231 230 222 203 167 118 72 
48 40 42 53 75 107 145 180 203 213 212 197 168 129 93 69 61 67 87 118 154 185 207 216 215 203 178 142 104 72 51 42 43 56 79 109 138 160 173 177 175 168 160 150 142 134 129 123 115 103 90 77 67 65 73 96 131 168 196 213 220 223 222 221 220 221 222 223 221 215 201 175 140 106 84 78 90 118 153 185 206 215 216 210 201 191 183 181 187 197 208 217 223 225 221 210 188 151 107 69 
56 57 67 87 115 147 178 202 216 222 220 209 187 155 122 100 93 103 126 156 185 206 217 218 209 186 150 108 72 48 37 36 45 67 102 142 175 195 205 206 201 191 176 156 135 115 100 88 78 68 58 50 45 46 56 77 112 152 184 204 214 217 217 217 217 218 220 221 221 216 205 185 158 130 112 110 123 148 175 197 209 211 207 197 184 172 164 163 168 179 190 199 204 205 199 185 161 128 93 68 
71 83 104 130 158 183 204 217 224 226 223 214 197 173 146 128 124 137 160 185 205 218 221 216 199 166 121 78 49 33 28 32 48 78 123 168 200 217 223 222 216 203 182 155 124 97 78 64 55 47 40 36 33 36 44 63 93 130 163 184 195 199 199 198 198 200 202 205 206 203 196 183 166 150 141 144 156 174 191 202 204 199 186 169 150 134 125 123 129 140 151 161 167 167 160 146 125 101 81 70 
91 115 143 170 192 208 219 225 228 227 222 212 197 175 154 141 142 157 179 200 215 223 222 212 188 147 97 58 34 24 23 31 51 88 138 185 214 227 231 228 220 204 178 144 109 81 62 50 43 38 34 31 30 32 39 53 76 105 133 153 162 164 161 159 158 160 164 169 172 172 170 166 161 159 161 169 181 192 199 199 191 175 152 127 105 89 81 79 83 92 101 110 115 115 110 100 88 77 72 76 
111 143 173 196 212 220 225 226 225 221 213 200 182 161 142 133 139 157 180 202 216 223 221 208 179 133 82 46 27 20 21 30 52 92 146 192 219 231 233 228 217 196 165 127 92 67 52 45 40 37 35 33 32 34 39 50 65 85 103 115 119 116 111 106 105 106 110 115 120 125 129 135 143 155 170 184 195 200 199 189 168 141 111 85 65 53 47 47 49 55 61 67 71 72 70 66 63 63 69 85 
126 160 188 206 216 221 221 219 214 206 193 175 153 130 114 108 116 137 165 191 209 218 217 204 174 126 76 42 24 18 20 29 51 92 146 193 219 230 230 223 207 180 142 104 74 56 48 45 45 45 45 44 43 44 48 55 65 76 83 86 82 75 67 62 59 59 62 66 71 77 85 98 118 143 168 188 199 201 191 170 138 104 74 53 40 33 30 30 33 37 41 45 48 50 50 51 52 58 71 94 
131 162 186 200 207 209 207 201 193 179 161 138 113 92 79 76 85 106 136 168 194 209 213 202 175 129 80 45 26 19 19 28 48 87 140 188 215 226 225 215 192 157 116 81 59 49 48 52 58 64 66 67 67 67 69 74 78 81 80 74 64 53 44 37 34 33 33 36 39 44 53 68 93 126 161 186 197 194 177 146 108 74 49 35 27 25 25 27 31 36 41 45 48 50 51 53 56 64 78 101 
126 148 165 176 180 180 177 170 159 143 122 99 78 61 52 49 56 73 101 137 171 196 206 202 181 142 94 56 33 22 21 27 44 79 130 178 208 220 218 204 175 134 92 63 49 47 55 68 83 95 103 106 106 105 106 107 107 104 96 82 66 50 38 30 24 22 21 22 24 27 35 49 74 111 151 179 190 184 159 122 83 54 36 27 25 26 31 37 45 52 59 65 69 71 73 74 75 80 89 105 
111 120 129 134 136 136 133 129 120 108 91 73 56 43 36 33 37 48 70 103 143 178 199 203 191 161 118 76 47 31 25 27 41 70 117 166 199 213 210 193 159 115 75 52 45 51 68 92 117 137 148 152 152 151 149 148 146 139 127 109 87 66 49 36 28 23 20 18 18 21 27 40 65 102 143 172 182 171 141 102 66 43 31 28 31 39 50 63 77 90 100 108 113 115 114 112 108 104 103 105 
93 89 88 89 89 90 92 93 92 88 78 64 51 39 31 26 27 33 48 76 116 159 191 205 202 183 149 107 71 46 33 30 39 63 104 152 188 205 204 186 150 105 69 50 48 62 88 122 153 174 185 189 188 186 184 182 180 174 164 147 124 100 77 59 45 34 27 23 21 22 27 39 64 100 140 168 175 160 127 88 57 39 34 37 47 64 85 107 128 144 155 162 166 166 164 157 147 132 116 102 
77 64 58 55 56 60 67 76 85 89 86 76 62 47 35 27 23 25 35 56 93 140 182 205 212 203 180 145 104 70 47 37 40 58 94 140 178 199 200 184 150 108 74 58 60 80 113 150 181 199 208 209 207 204 201 200 199 197 192 182 166 146 123 100 79 62 48 38 32 31 35 48 72 108 145 169 172 154 120 82 55 42 43 54 75 104 134 160 179 192 200 204 206 204 200 192 177 155 126 98 
66 49 40 38 40 47 60 79 98 112 116 108 90 69 49 34 25 23 28 44 76 125 173 205 219 218 205 180 143 103 69 50 45 56 86 129 169 194 199 187 159 122 90 75 80 103 139 174 199 212 217 215 210 205 201 201 203 206 207 205 199 187 171 151 129 106 86 69 57 52 55 68 93 126 157 175 174 154 120 84 60 52 58 79 111 147 179 201 214 222 225 227 226 224 219 210 194 168 132 94 
61 43 34 32 37 49 70 98 128 149 158 152 133 105 74 49 33 25 26 37 65 111 164 203 222 228 222 207 178 139 98 67 53 57 80 119 160 189 199 193 172 143 115 102 107 130 161 190 208 216 216 210 200 191 185 184 190 199 207 213 215 213 205 194 178 158 136 115 98 89 90 102 124 151 174 185 181 160 127 93 71 65 77 106 144 181 207 223 231 234 235 234 232 229 224 215 199 171 132 92 
64 46 37 37 44 62 90 127 161 185 195 192 176 147 109 73 46 31 27 34 57 100 154 198 223 233 232 224 204 171 128 88 64 60 76 109 150 182 198 198 185 163 141 130 134 152 177 198 210 213 207 194 177 161 151 150 159 175 193 207 217 222 222 218 210 197 181 163 146 136 134 142 158 176 190 196 189 170 140 107 85 81 96 127 165 197 218 229 233 234 233 230 226 222 217 208 193 168 132 94 
77 60 52 53 63 84 117 155 187 208 217 217 206 183 146 103 65 41 30 33 51 89 143 191 221 234 237 233 219 193 152 107 74 62 71 98 137 172 193 199 192 177 160 149 152 165 183 198 205 203 191 169 143 119 106 104 115 136 162 186 205 218 224 226 223 217 207 195 183 173 171 175 184 195 203 204 198 181 154 124 101 95 107 134 168 195 213 221 223 222 218 212 207 202 197 190 180 161 133 103 
103 89 81 82 91 112 143 175 201 218 227 229 223 207 177 134 89 55 37 34 47 79 129 180 215 232 238 237 227 205 168 120 81 63 65 85 119 155 180 191 189 178 164 154 154 164 178 189 193 186 168 139 107 81 66 64 72 92 119 150 178 198 212 219 221 219 214 206 198 191 189 192 198 205 210 210 204 191 168 140 115 103 107 125 151 173 188 195 195 190 183 175 168 163 161 161 159 153 140 121 
139 130 123 121 126 139 159 182 202 216 226 230 228 219 198 162 115 73 46 37 43 68 112 164 203 226 236 237 229 209 173 125 83 60 57 71 98 131 158 172 173 164 151 142 140 148 160 171 173 165 143 112 80 56 43 39 44 57 78 105 135 162 182 195 202 204 202 198 192 189 188 192 198 205 210 212 208 198 179 153 126 106 99 105 118 133 143 147 144 138 129 119 113 111 115 125 137 148 151 147 
176 172 165 159 155 155 161 172 187 201 213 221 225 223 210 182 140 93 58 41 41 57 93 141 185 214 228 231 225 205 169 121 79 55 49 58 78 105 130 144 146 138 126 116 114 120 132 143 148 142 123 95 67 46 34 29 30 37 49 67 90 114 136 153 164 169 170 169 166 165 168 174 184 194 203 208 208 202 187 164 135 107 89 81 82 86 90 90 87 80 73 67 64 66 76 95 122 148 167 175 
203 201 195 184 170 156 147 146 154 168 185 201 213 218 213 195 160 115 74 48 40 48 73 114 158 193 212 219 213 193 156 110 72 50 44 49 63 83 102 114 115 107 95 87 84 89 100 114 124 124 113 92 69 51 38 31 28 29 34 43 56 71 87 101 113 120 123 124 124 125 130 140 155 171 186 198 203 203 193 174 145 112 84 66 56 53 51 49 45 41 38 35 35 40 54 79 117 155 183 198 
219 218 211 196 173 144 120 107 108 120 140 165 188 204 209 201 176 136 92 59 43 43 57 86 124 160 185 195 191 171 137 96 64 47 42 46 57 72 85 91 89 81 71 63 61 65 76 92 107 117 116 105 88 70 55 44 37 32 31 33 38 45 54 63 70 76 79 81 81 83 89 99 115 136 158 178 193 199 197 183 158 124 89 62 45 36 31 27 25 22 21 20 23 30 47 78 122 166 197 213 
227 226 217 198 166 126 91 71 65 72 91 120 153 182 200 202 187 156 114 75 51 42 46 63 90 121 147 160 159 143 115 84 61 49 47 52 62 73 81 82 77 67 56 49 47 51 62 81 103 123 133 132 121 105 88 72 58 47 40 36 35 37 41 45 50 53 55 55 55 55 58 65 77 97 122 150 175 192 198 192 174 143 106 72 48 33 24 20 17 15 15 16 20 30 50 85 133 178 207 222 
230 227 217 194 155 108 69 46 38 40 53 79 115 155 186 200 196 174 138 98 65 47 42 49 64 85 106 121 124 116 99 80 66 61 63 70 80 89 93 88 77 63 51 44 42 46 60 82 111 139 157 164 160 149 133 114 94 77 63 53 47 45 46 48 50 52 52 50 46 43 42 44 51 65 87 118 151 179 196 200 190 168 134 97 65 43 29 21 18 16 16 19 25 37 60 98 146 188 213 226 
226 223 211 186 144 95 56 34 24 24 32 52 85 130 172 196 202 191 164 125 88 60 46 43 49 61 76 90 98 100 96 89 86 87 94 104 114 120 118 106 88 68 53 45 43 50 66 94 128 159 181 191 192 187 175 158 138 118 99 85 76 72 71 72 74 73 70 63 54 44 38 35 36 44 61 88 125 163 191 205 205 192 166 132 96 67 46 34 27 24 25 28 35 49 74 111 155 190 212 223 
214 212 200 175 133 87 51 30 20 18 23 38 68 114 162 194 208 205 187 155 116 81 57 46 44 50 60 73 87 99 108 114 119 127 136 147 155 157 149 130 104 78 60 51 51 61 83 114 150 180 199 209 211 208 201 189 174 157 141 128 120 116 116 117 118 116 109 95 77 58 43 33 30 32 43 65 101 145 184 206 215 211 196 171 139 106 79 60 49 45 44 48 55 69 90 121 155 183 201 211 
188 189 181 160 125 85 53 33 22 19 22 34 62 108 159 195 213 216 205 182 147 107 74 54 46 47 55 70 90 112 132 147 159 168 178 185 189 187 175 151 120 89 69 60 64 79 106 140 173 196 211 217 219 216 210 201 191 180 171 165 163 163 166 169 170 168 158 140 113 82 55 37 28 26 33 49 81 127 173 205 220 223 217 202 180 153 127 105 90 82 80 82 87 95 107 124 143 160 174 183 
147 153 154 144 121 91 62 42 29 24 25 37 65 111 162 199 218 223 218 202 173 132 93 64 51 49 57 74 101 132 159 178 191 199 206 209 210 204 188 162 127 95 76 70 79 102 134 166 192 209 217 220 217 212 204 194 186 181 179 182 188 195 201 206 208 207 199 182 152 112 72 44 29 24 26 38 65 109 160 199 221 229 228 222 209 192 173 156 142 134 130 128 127 124 121 119 120 124 130 138 
99 113 126 131 124 105 80 58 42 33 33 45 74 121 171 205 223 229 226 214 190 151 108 74 56 51 60 81 113 150 181 200 211 217 221 221 218 208 189 159 123 94 78 78 95 124 159 188 207 216 219 217 209 196 182 168 159 158 164 177 193 207 217 224 228 228 223 209 182 140 91 54 32 23 22 31 53 92 143 188 216 229 233 231 224 215 205 194 186 180 176 172 164 149 129 108 92 84 83 88 
62 81 104 125 134 127 107 82 60 47 45 57 88 135 181 211 227 232 230 220 197 160 114 77 57 52 61 84 122 162 194 213 222 226 227 224 217 203 178 144 109 84 74 81 105 141 176 201 215 220 218 209 193 170 145 125 115 117 130 153 179 203 220 230 236 237 234 224 202 162 110 64 36 23 20 26 43 75 123 171 205 223 230 231 228 223 218 213 210 208 205 200 188 165 132 96 69 54 49 51 
43 64 96 129 151 154 138 111 82 63 57 69 101 146 189 216 229 233 230 219 196 157 110 73 53 49 58 82 122 166 199 218 226 229 228 222 211 190 158 121 89 69 66 79 108 148 185 208 219 221 215 199 172 137 104 81 71 73 88 115 151 185 211 227 236 239 238 230 212 177 126 75 42 26 20 23 36 61 100 146 184 206 217 220 220 218 216 216 216 218 218 213 200 174 133 88 55 36 30 32 
37 62 101 142 170 178 165 137 103 77 67 77 108 152 192 217 229 232 227 214 186 143 97 63 45 42 51 75 115 160 196 217 226 228 225 217 200 171 134 96 68 55 56 72 104 147 184 208 219 219 209 187 151 108 72 50 41 43 55 79 115 156 192 216 230 236 237 232 218 188 141 90 52 31 23 24 31 49 78 115 151 175 189 194 195 196 198 203 209 215 219 217 205 178 134 85 49 30 23 25 
43 73 117 159 187 195 182 152 113 83 70 78 106 149 189 214 226 228 222 204 170 124 79 50 36 34 43 65 102 148 188 211 222 224 220 207 184 150 110 75 54 45 49 65 96 137 176 202 213 213 202 176 135 90 55 35 27 27 35 52 81 121 163 195 216 227 231 229 219 196 156 108 68 44 32 29 32 42 60 84 110 130 142 148 150 154 161 173 188 202 212 215 206 181 139 90 52 31 25 28 
62 97 140 179 200 203 188 154 112 79 64 70 95 137 179 207 221 223 214 191 152 103 62 39 28 28 36 54 88 132 174 200 213 215 209 193 166 130 92 64 47 42 45 59 85 122 159 186 200 202 192 166 127 85 53 34 25 23 26 37 56 87 126 162 191 209 219 221 216 201 172 133 95 67 51 43 41 44 51 61 73 84 90 93 95 99 110 128 154 180 200 209 205 185 148 102 64 43 36 42 
95 131 168 196 209 205 184 145 100 67 53 57 79 118 163 197 214 216 206 179 136 87 50 31 24 24 31 47 76 115 155 183 197 199 191 173 146 113 83 62 51 47 49 59 77 104 134 161 177 183 177 157 126 92 63 45 34 28 27 31 42 61 88 121 152 177 195 205 208 202 186 160 130 104 85 72 62 56 52 50 51 52 52 51 52 55 65 85 115 151 182 200 203 190 161 122 87 66 61 71 
