P2
100 100
255
147 179 204 219 221 209 178 129 79 48 35 38 58 98 149 191 214 220 211 185 140 88 49 28 20 20 27 40 64 97 133 160 174 175 167 151 128 104 83 70 62 59 58 60 67 81 100 120 137 148 152 145 129 107 84 66 51 40 33 29 30 37 51 72 99 129 158 183 200 209 208 199 182 160 136 112 89 68 51 38 31 26 24 24 25 30 41 61 94 136 173 197 204 197 176 145 117 101 102 119 
185 206 220 226 222 203 165 112 65 37 27 30 47 83 134 181 208 216 209 186 145 96 58 37 29 29 34 45 62 83 106 123 131 131 123 112 100 92 88 89 90 90 86 80 74 72 76 84 96 109 122 132 135 132 122 107 90 72 55 41 32 30 34 43 59 82 112 145 176 198 210 212 207 197 181 161 134 103 73 49 33 23 18 15 15 18 26 42 71 111 152 181 194 192 179 161 144 138 145 163 
209 222 229 229 220 194 149 94 52 29 21 24 40 74 124 173 204 215 211 192 158 116 80 59 50 50 55 62 71 80 87 91 90 87 82 78 79 87 102 119 131 135 128 113 92 74 62 59 64 76 95 119 143 159 163 157 142 119 91 64 43 31 26 28 35 48 72 106 146 183 206 218 221 219 212 198 176 143 104 68 42 26 18 15 14 17 24 38 63 98 135 163 177 178 171 162 158 163 176 193 
221 230 233 230 215 183 132 78 41 23 18 22 38 71 121 171 203 215 214 202 178 147 117 98 90 90 93 96 96 91 81 71 62 55 52 55 66 88 120 151 172 179 172 151 118 84 58 45 44 53 75 109 148 179 195 198 189 168 135 96 61 38 25 21 22 29 46 76 120 166 200 219 228 230 228 220 204 177 137 94 59 37 26 21 21 25 33 47 69 97 125 145 152 151 147 146 152 168 188 207 
225 233 234 228 209 172 117 66 34 20 17 23 41 75 125 173 204 216 217 210 195 176 159 147 142 143 145 142 132 112 87 64 47 38 36 41 58 91 135 176 201 210 204 182 145 99 61 39 33 39 61 100 149 190 214 222 219 203 173 129 82 48 28 19 17 21 33 59 102 153 194 217 229 234 234 230 219 198 164 122 83 57 43 38 40 46 58 73 92 110 123 127 123 116 111 114 129 155 184 209 
222 232 233 225 203 160 104 57 30 20 20 28 49 86 135 178 204 215 216 212 204 196 189 186 187 189 190 184 169 139 100 65 41 29 27 33 53 92 144 190 217 226 222 204 167 116 68 39 28 32 51 92 147 194 221 233 233 223 198 155 101 58 33 21 17 19 30 55 96 148 190 215 227 232 233 230 222 207 181 147 113 88 75 73 77 88 102 117 129 134 129 114 96 81 74 79 97 129 168 201 
215 228 230 221 195 149 94 52 30 23 26 39 65 104 149 183 202 208 207 204 200 199 201 206 211 216 217 212 195 163 116 71 40 25 22 28 49 90 147 196 223 234 232 217 184 132 78 43 27 28 46 85 142 193 223 236 238 231 209 168 114 66 38 25 21 24 36 61 103 151 189 211 221 225 224 220 214 202 185 164 142 127 121 123 132 144 157 167 169 161 139 107 77 56 47 50 66 100 145 187 
206 223 226 215 186 138 86 49 33 30 39 58 89 127 162 184 192 191 185 180 180 185 196 208 219 226 229 225 211 180 132 80 43 25 19 25 45 86 145 195 225 236 236 224 196 148 91 50 30 28 44 82 138 190 221 235 237 230 209 170 117 71 43 31 30 36 53 81 120 161 190 206 210 208 203 197 190 182 174 166 161 161 166 173 183 193 201 205 200 182 147 102 64 41 31 31 45 74 120 170 
194 216 219 207 176 128 81 51 40 44 60 87 120 151 172 178 172 159 146 138 140 152 172 195 214 226 232 231 220 193 147 92 50 27 20 24 43 82 140 192 223 236 237 228 205 163 108 62 38 33 47 83 136 186 216 230 231 222 199 160 111 71 48 42 46 60 82 113 147 175 192 196 191 179 167 155 147 144 145 153 165 180 194 206 215 222 226 226 217 194 151 99 56 32 21 21 31 56 99 153 
184 208 211 196 163 117 77 56 54 67 92 124 153 172 176 164 142 117 97 88 91 106 133 167 197 218 229 232 224 203 162 109 63 35 24 26 43 80 136 187 219 233 236 230 212 177 127 80 52 45 57 91 139 183 210 220 218 204 178 139 97 68 55 58 72 96 124 152 176 190 192 182 162 138 117 102 95 96 106 127 155 184 206 221 231 236 238 235 224 198 150 93 50 26 17 16 24 45 85 138 
174 198 200 183 148 106 76 65 73 98 131 162 182 187 174 145 109 77 57 48 50 64 91 130 170 202 221 229 226 210 179 132 85 52 36 35 49 82 132 181 213 228 233 229 215 188 147 104 76 67 78 107 146 181 200 204 195 175 144 109 80 64 64 80 107 138 167 188 199 201 190 166 132 98 72 58 53 57 70 97 135 175 206 226 236 241 242 238 225 195 145 86 44 23 14 14 21 40 77 128 
168 189 187 165 129 95 75 76 97 132 167 192 202 195 169 126 81 49 32 25 27 37 58 92 136 178 206 221 224 216 194 158 116 81 60 54 63 89 130 172 201 217 223 222 212 193 164 131 107 99 108 130 157 177 185 179 161 135 105 79 63 61 74 104 141 175 199 211 214 207 187 152 108 70 45 33 30 34 47 72 112 158 197 222 235 241 241 236 221 188 134 77 39 20 13 13 21 40 75 124 
165 180 172 145 110 82 74 86 119 160 193 211 213 199 163 112 64 34 19 14 15 22 37 63 102 146 184 208 218 218 206 184 153 122 98 86 87 102 128 158 181 196 203 204 199 189 172 154 140 135 141 154 167 172 166 148 122 94 70 55 50 59 83 123 166 199 217 224 222 211 187 147 99 59 36 25 22 24 34 54 89 136 180 211 228 236 237 231 214 177 122 68 34 18 13 15 24 45 81 127 
166 172 155 123 90 71 71 93 134 178 208 222 220 200 160 104 55 27 15 10 11 16 26 44 73 113 153 185 205 213 212 202 185 164 144 128 119 118 125 136 149 159 166 170 171 171 168 165 163 165 169 174 174 165 145 117 88 64 48 41 43 58 89 133 178 208 223 228 225 213 189 151 104 65 40 28 24 24 30 44 70 109 153 190 213 225 228 222 202 163 108 60 31 18 15 19 32 56 94 137 
171 166 140 104 73 59 65 94 140 185 215 226 222 202 160 103 55 28 16 12 13 16 22 34 53 82 118 154 182 200 210 211 206 196 183 167 149 132 118 110 108 110 114 121 129 139 151 163 174 182 186 185 176 156 127 95 68 49 39 36 42 58 90 133 176 204 219 224 222 212 193 162 122 86 60 45 36 32 32 39 55 83 120 157 186 204 211 207 187 148 98 55 31 21 21 29 47 77 116 152 
178 163 128 88 59 49 58 87 135 183 213 226 223 204 165 112 65 36 24 20 20 22 26 32 43 60 85 116 148 176 197 210 215 214 207 193 170 140 108 85 71 67 67 73 84 102 126 151 173 187 191 187 172 146 114 84 61 47 40 40 46 61 87 124 160 187 202 209 210 206 195 176 150 122 97 78 62 50 42 40 45 60 85 116 146 171 185 186 170 137 94 58 38 31 34 47 72 107 145 171 
186 161 119 76 49 40 48 75 120 169 203 219 220 206 174 129 85 56 43 38 38 39 39 39 41 47 60 80 108 141 173 198 214 220 218 206 181 142 99 66 47 39 38 42 53 72 102 136 166 183 188 181 163 136 107 83 67 58 55 56 60 69 85 108 133 154 169 179 186 191 192 188 178 163 145 125 103 79 59 46 41 45 57 77 102 129 151 161 155 133 102 74 57 53 60 80 110 145 174 190 
194 162 114 69 42 33 39 60 97 144 182 205 212 205 184 152 118 93 79 75 74 72 66 58 49 44 45 54 73 102 140 177 204 218 221 210 183 139 90 53 33 25 23 27 37 57 87 125 157 175 177 167 148 125 104 91 85 85 86 87 86 85 87 92 100 111 122 134 148 165 181 193 197 196 188 173 149 116 82 56 41 36 39 49 67 92 119 141 149 141 123 104 92 92 103 125 153 181 199 205 
200 165 114 66 38 28 30 44 71 110 149 178 195 198 191 175 155 140 132 130 128 123 109 88 66 48 38 38 48 70 107 152 190 212 218 209 181 134 82 45 26 19 18 22 34 54 86 122 152 165 163 148 129 112 104 105 114 124 131 132 125 112 96 82 74 71 75 85 104 131 163 190 207 215 215 206 184 149 104 66 42 31 29 34 47 69 100 131 153 159 154 146 140 142 153 171 190 207 216 215 
205 170 118 69 38 25 23 31 48 75 108 140 166 183 191 190 186 183 182 183 182 175 157 126 88 57 37 30 33 48 81 128 174 203 214 206 177 127 76 41 24 18 19 26 41 66 99 132 154 158 147 126 107 98 102 119 143 163 175 177 166 144 112 81 58 46 44 50 68 100 143 184 211 224 228 223 204 168 118 72 43 29 24 27 38 60 95 134 165 180 184 183 181 184 191 202 214 222 226 222 
211 178 128 76 41 25 19 22 31 47 69 98 130 160 183 197 205 209 213 216 216 210 192 157 109 66 39 26 25 37 65 111 161 196 209 202 172 122 72 39 25 21 26 39 61 92 126 152 163 155 133 106 87 83 97 127 163 191 206 208 197 172 131 86 53 34 28 31 46 78 127 177 211 228 233 229 211 174 121 72 42 27 22 25 38 63 102 146 179 198 205 206 206 207 212 218 225 230 231 226 
216 189 143 91 51 28 19 17 20 28 43 65 97 135 171 197 213 222 228 232 233 227 210 174 122 72 41 26 23 33 59 105 156 192 206 199 168 118 70 41 28 29 40 62 94 130 161 178 177 157 123 89 69 68 87 126 170 204 221 225 216 192 149 96 54 31 21 23 36 67 117 172 209 228 233 227 207 167 113 66 38 25 22 27 43 72 115 160 192 208 213 214 213 213 216 221 226 231 232 229 
221 201 163 112 67 38 23 16 16 19 28 45 73 115 160 194 215 227 234 237 237 231 213 177 124 73 41 27 25 37 65 111 161 195 207 198 166 118 72 44 36 43 64 98 137 171 194 201 190 161 117 78 56 54 75 116 167 205 226 232 226 205 165 109 60 32 20 21 33 63 114 170 208 227 230 220 194 150 97 55 33 24 24 33 53 88 132 173 198 209 210 207 203 202 205 211 219 226 230 229 
224 211 183 139 91 54 32 21 17 17 23 37 65 107 155 192 215 227 234 236 234 225 204 166 115 69 41 30 33 49 82 129 174 202 210 199 166 118 74 51 47 63 95 138 177 204 217 217 201 165 115 70 46 43 61 100 154 199 224 234 231 214 177 122 69 37 23 22 35 65 116 171 207 223 223 208 175 126 77 44 28 24 28 42 68 107 149 181 196 199 192 182 174 171 175 185 199 212 222 227 
224 219 201 167 123 80 50 32 24 23 28 43 71 113 159 194 215 225 229 228 222 208 182 142 97 61 42 38 48 73 111 156 192 211 214 200 166 118 77 57 60 85 127 173 206 225 231 227 208 169 113 65 39 33 47 82 135 186 218 232 232 219 187 135 80 44 27 26 39 69 119 171 205 218 212 190 149 100 59 36 26 27 38 58 90 129 163 182 185 174 157 139 125 120 126 141 163 187 207 220 
219 222 213 191 156 115 79 55 43 41 47 64 94 133 172 199 214 219 218 210 197 176 146 109 75 53 46 53 73 107 148 185 209 220 218 200 163 116 77 62 71 104 152 196 223 236 239 232 212 171 112 61 34 26 35 64 113 168 208 227 231 222 194 146 91 51 33 31 43 74 121 170 200 209 198 168 123 78 47 32 29 37 55 83 118 151 172 176 163 138 111 88 73 68 73 89 114 147 180 205 
205 218 218 207 183 151 117 91 77 75 83 102 131 162 189 205 211 207 197 179 157 130 101 75 56 49 55 75 108 147 183 209 223 226 219 196 156 108 73 62 76 115 165 207 230 241 242 235 214 172 111 59 30 21 26 48 92 148 195 221 229 223 199 155 100 59 39 36 47 76 120 165 192 197 181 147 103 65 43 36 41 56 83 116 149 172 179 166 137 101 70 49 37 33 37 48 70 103 143 180 
182 205 214 211 199 178 154 133 123 123 133 151 172 191 205 209 204 188 164 136 107 82 62 48 43 49 69 103 145 183 209 225 231 229 216 187 142 95 64 57 73 113 165 208 231 241 243 235 214 172 111 58 28 18 20 38 75 130 183 214 226 222 201 160 107 65 43 39 49 75 115 155 179 183 166 132 93 64 50 51 64 89 121 154 179 189 182 156 114 72 43 26 18 16 18 25 40 66 104 146 
150 181 198 203 199 188 176 166 163 168 178 191 203 212 215 209 191 162 125 91 64 46 36 32 37 54 87 133 177 208 226 234 235 227 208 172 122 78 52 48 64 102 154 199 226 238 241 234 213 172 111 58 28 17 18 32 65 118 173 208 222 219 200 161 109 67 45 40 48 70 105 141 165 170 156 128 98 78 72 81 102 132 163 188 202 202 185 149 99 56 30 16 10 8 9 14 24 42 71 110 
114 146 169 179 181 179 176 177 183 193 204 214 221 224 219 205 175 133 90 57 36 26 22 24 36 63 107 159 199 224 235 238 234 221 194 150 99 60 40 37 50 83 132 180 213 230 235 230 211 171 113 61 31 19 19 33 64 115 169 204 218 216 195 156 106 66 45 39 46 64 93 127 152 162 155 137 119 108 110 125 148 174 196 211 216 210 189 148 95 52 26 13 8 7 7 10 17 28 48 78 
84 110 129 141 146 149 154 165 180 196 211 222 228 227 218 196 157 108 64 36 22 16 15 22 39 74 126 178 214 232 239 238 229 209 173 123 76 44 30 28 38 62 103 151 191 214 224 222 205 168 115 67 38 26 28 43 75 124 172 204 215 210 187 146 97 61 42 37 42 57 83 116 144 160 163 157 149 147 154 169 187 204 217 224 224 216 194 154 102 58 31 18 12 10 10 12 17 25 38 58 
68 82 94 100 103 107 116 132 155 180 202 217 224 223 212 184 139 88 48 26 15 12 14 24 46 88 144 193 222 235 238 233 218 190 145 95 55 32 22 21 28 44 74 116 157 188 204 206 193 163 120 79 53 43 47 65 99 144 183 207 213 204 176 132 86 53 38 34 38 53 77 110 143 165 176 178 179 182 189 199 210 220 226 229 227 218 200 166 120 77 48 31 24 21 20 22 25 31 40 52 
70 73 74 71 69 70 76 92 117 147 176 197 209 210 198 168 122 74 41 22 14 12 17 30 58 105 160 203 226 234 233 222 199 161 113 69 39 24 17 17 21 32 52 82 118 150 172 180 174 154 125 97 79 75 83 104 136 171 198 212 211 196 162 115 73 46 33 31 37 51 77 112 148 174 189 196 200 204 209 215 220 224 226 226 224 217 204 180 145 108 79 61 50 45 44 44 47 51 57 64 
92 85 74 62 52 47 49 58 77 104 134 161 179 185 175 148 108 68 40 25 19 19 26 44 77 126 176 210 226 229 222 203 171 126 82 48 29 19 16 16 20 27 40 59 83 110 131 144 147 141 129 119 115 119 132 152 175 197 211 216 209 186 147 99 61 39 31 31 38 55 82 120 157 184 199 207 211 214 215 216 216 216 214 213 212 209 203 191 171 148 126 109 98 92 89 88 90 92 95 95 
132 115 93 71 52 40 35 38 48 66 89 115 135 146 144 127 100 71 50 37 33 35 46 68 105 151 190 213 221 217 201 173 133 90 56 34 23 18 18 21 25 30 38 49 63 79 94 106 116 123 130 139 150 163 177 192 206 216 221 218 204 175 131 86 53 36 31 34 44 64 94 132 166 191 204 210 211 210 207 203 197 191 187 184 185 188 192 193 190 183 174 164 157 152 149 147 147 147 146 142 
173 154 127 95 67 46 34 30 33 41 55 72 91 106 113 112 101 87 74 66 63 68 83 107 141 175 200 212 210 196 169 133 93 60 38 26 22 23 27 33 39 46 51 55 59 64 70 78 89 104 125 149 173 192 206 216 223 226 225 216 197 162 117 76 50 38 37 43 57 80 111 145 174 192 200 202 199 192 182 171 158 147 139 136 141 152 168 185 197 204 206 204 202 200 197 196 195 193 190 185 
202 187 163 131 96 66 45 33 28 29 35 45 59 75 92 106 115 117 115 113 114 120 134 154 177 195 205 204 190 164 128 91 60 39 28 24 27 35 46 59 71 79 82 80 74 67 62 62 69 86 114 148 180 203 218 226 229 228 222 209 184 148 106 72 53 48 51 63 81 105 132 157 174 183 184 179 170 156 140 122 106 93 84 82 89 106 134 165 193 211 221 225 226 225 223 221 220 218 215 211 
217 208 192 168 135 99 69 47 34 28 27 32 42 59 83 112 137 154 163 166 169 174 182 193 202 207 203 188 160 124 88 58 38 28 25 30 42 60 82 104 121 131 131 122 104 84 66 57 58 71 98 135 172 200 216 223 224 220 210 193 165 131 97 75 66 68 79 95 115 135 152 163 167 163 154 142 126 109 91 74 60 50 44 43 50 67 98 140 180 209 225 232 234 234 231 229 226 224 222 220 
217 216 210 196 172 140 105 73 50 35 29 29 36 54 84 123 161 186 200 206 208 211 213 215 215 209 193 164 126 87 57 37 27 25 31 45 68 99 131 158 176 183 181 168 143 111 80 60 53 60 81 115 152 182 200 207 207 199 185 164 138 112 93 85 89 102 119 138 153 164 167 162 149 133 115 98 82 67 54 43 33 27 23 23 29 43 71 114 162 199 220 230 232 230 226 221 217 214 214 216 
206 214 217 213 201 179 148 112 79 53 38 33 38 56 90 136 179 207 221 227 229 229 228 225 217 202 175 136 94 60 38 27 24 30 45 70 106 145 178 201 214 218 215 202 176 139 99 68 53 53 67 93 124 152 169 175 172 161 144 124 106 93 92 102 121 143 163 178 185 185 174 153 126 100 79 63 51 41 33 27 21 18 15 15 20 31 54 92 140 182 207 218 219 214 206 197 189 186 189 196 
180 201 215 221 218 207 186 155 118 83 57 44 45 61 97 145 189 217 230 236 237 235 231 224 211 188 152 109 70 44 30 26 31 45 70 107 149 185 211 226 233 235 231 219 197 161 118 81 60 54 61 77 98 116 127 129 122 110 96 83 76 79 94 121 152 178 196 205 206 196 173 139 103 73 53 42 34 30 26 23 20 17 16 16 19 28 46 77 119 158 182 192 190 180 166 151 140 137 143 159 
143 178 205 221 227 224 213 191 159 121 85 62 56 68 101 148 190 218 231 236 236 233 226 215 196 166 127 87 57 40 33 36 48 71 106 147 185 212 229 237 241 240 235 225 205 173 133 96 73 64 66 74 84 90 91 86 77 66 57 53 55 70 99 140 177 203 217 221 216 199 167 124 83 54 39 32 29 29 28 28 27 25 24 24 27 34 48 71 101 129 147 151 143 128 110 94 83 81 90 112 
106 150 191 217 229 233 228 215 192 157 117 84 68 73 99 140 180 207 221 226 225 220 210 194 171 140 106 76 56 48 49 59 80 111 148 183 210 227 236 240 240 238 232 221 203 176 144 114 96 88 87 89 88 82 72 60 49 40 35 35 43 66 106 154 194 217 228 228 219 197 158 109 68 44 33 31 33 37 42 45 47 46 45 45 47 53 62 76 92 105 109 104 92 76 61 49 42 42 50 70 
76 124 173 209 228 235 235 228 212 183 143 104 79 74 90 121 155 182 197 202 200 192 178 160 138 114 92 76 69 71 80 98 124 155 184 208 224 233 237 237 234 227 218 205 188 168 147 132 125 123 124 121 112 94 72 52 37 27 24 26 38 65 112 165 204 225 233 231 218 191 147 96 58 39 33 37 46 59 71 80 86 87 86 86 86 88 92 95 95 91 81 69 55 42 32 25 21 21 28 44 
58 102 155 198 222 234 237 233 221 197 160 117 84 70 75 93 118 140 154 159 155 145 132 117 104 94 89 90 97 109 126 146 169 190 209 221 229 231 230 225 217 205 190 174 159 148 143 146 154 162 166 163 149 122 88 57 35 24 19 23 36 66 117 172 210 229 234 230 215 183 135 85 52 39 40 51 71 95 117 132 140 143 143 141 140 138 134 125 111 90 69 50 36 26 19 15 13 14 19 32 
49 86 136 182 212 227 232 231 221 200 164 119 82 62 58 66 79 92 101 103 99 92 85 79 79 86 99 116 135 153 170 186 200 211 219 223 224 221 213 201 185 165 145 128 118 118 131 153 175 192 200 199 185 155 113 71 41 24 19 22 36 69 121 177 213 230 234 228 209 173 123 77 50 43 52 74 106 139 165 181 189 192 191 190 187 182 174 159 134 101 70 45 30 21 15 13 12 14 18 28 
47 75 117 160 192 211 220 220 212 191 156 113 76 54 46 45 50 55 58 59 57 54 53 57 70 91 119 147 171 188 200 209 214 217 217 214 207 196 181 160 136 112 92 79 77 88 116 153 188 210 221 222 211 185 141 89 50 28 20 22 38 72 126 181 215 230 232 224 201 161 111 70 51 51 69 103 142 177 200 212 217 219 218 216 214 210 201 185 158 120 81 52 34 24 20 18 18 20 23 31 
51 69 97 131 161 182 194 197 190 172 141 103 70 49 39 35 34 35 35 34 34 35 39 52 74 107 144 175 196 208 214 215 212 207 199 189 175 156 134 109 86 66 52 45 49 66 102 150 193 220 232 235 227 205 164 109 61 33 23 25 41 77 132 184 216 229 229 217 190 147 99 66 54 63 91 132 172 201 218 225 228 227 226 225 223 220 214 201 178 143 103 71 49 38 34 33 34 35 37 42 
63 68 80 99 120 139 152 159 158 146 123 95 69 50 39 32 29 27 25 25 26 30 40 59 91 131 168 195 209 214 212 205 194 180 165 147 128 108 87 68 51 38 30 28 34 52 90 144 193 223 237 241 235 218 181 125 72 40 27 29 47 86 140 188 216 226 222 206 174 130 89 64 62 80 115 156 191 212 222 225 225 222 221 220 220 219 216 208 192 166 133 103 81 69 65 65 66 67 66 63 
84 73 68 72 81 92 104 115 122 122 112 96 78 62 50 40 34 29 26 25 28 35 51 78 116 157 188 206 212 208 197 179 158 137 117 99 84 69 56 44 34 27 22 21 27 45 81 136 189 222 238 243 239 223 190 136 82 47 33 37 58 99 151 193 215 221 212 190 155 112 80 66 73 100 138 176 201 214 217 214 209 203 200 200 203 207 209 208 200 185 165 143 127 117 115 116 118 117 110 98 
111 83 63 54 53 58 68 82 97 110 116 114 104 90 76 62 50 41 36 35 40 52 75 108 147 180 201 209 206 191 167 139 112 90 73 62 55 49 44 39 33 27 23 21 26 40 73 124 178 215 234 240 237 222 191 141 88 54 42 50 75 118 164 198 213 212 197 169 131 95 74 72 90 123 160 189 205 209 203 191 177 166 161 163 170 181 191 199 201 198 190 180 172 169 169 172 174 171 160 139 
135 93 62 44 38 40 49 67 91 117 137 145 144 134 119 101 83 68 58 56 62 80 108 143 175 198 209 206 191 163 128 95 70 54 46 43 44 48 50 50 46 39 32 27 28 38 63 107 158 199 222 231 228 214 183 137 91 63 56 69 100 141 179 201 207 198 175 141 105 80 72 83 111 147 179 199 205 198 180 156 132 116 109 112 123 141 161 180 193 200 203 203 203 204 207 210 211 208 197 172 
149 99 61 40 31 33 45 68 102 138 166 181 185 179 167 149 127 106 92 87 95 116 145 174 197 210 211 198 171 131 91 60 42 34 33 39 50 63 75 80 77 66 52 40 34 38 54 86 130 171 197 209 207 193 163 124 90 73 75 96 130 165 191 202 197 177 146 110 82 69 74 98 134 170 195 206 202 184 153 117 88 70 64 67 79 98 124 151 175 193 205 213 218 222 226 229 230 227 216 191 
153 100 59 37 30 34 51 82 125 166 194 209 214 212 203 188 168 145 127 121 128 148 173 196 210 215 209 189 151 104 64 39 28 26 31 45 68 95 118 129 125 110 87 64 47 41 46 65 96 130 156 170 169 156 132 104 85 83 97 126 159 186 199 198 181 150 113 82 63 62 80 115 157 190 208 211 200 172 130 87 57 42 37 40 49 65 88 117 147 174 195 210 221 228 233 236 237 234 223 197 
147 94 54 35 31 39 63 103 152 191 215 226 230 228 222 209 191 168 149 140 146 165 187 206 216 217 207 181 137 87 50 30 22 24 36 59 95 135 165 179 177 160 131 97 68 49 44 50 66 87 106 117 118 109 94 82 79 92 119 153 182 199 201 187 158 119 83 59 51 59 87 132 176 205 218 216 199 164 115 71 43 30 26 28 34 45 61 85 113 145 174 197 214 226 233 237 238 234 222 194 
134 83 48 33 32 46 78 126 176 210 228 236 237 234 227 213 193 168 146 136 143 162 186 205 216 217 206 178 132 82 46 27 22 27 44 77 124 170 200 213 213 199 173 135 96 65 48 43 47 56 66 72 72 68 64 64 75 101 137 173 196 204 196 170 131 90 59 43 43 59 95 145 189 215 224 219 199 161 110 65 39 27 24 24 28 34 44 59 80 108 141 173 199 217 229 234 236 231 216 184 
117 70 41 31 34 53 93 146 193 221 235 239 238 233 221 202 175 145 121 111 118 141 171 196 212 216 207 181 138 88 50 31 26 32 53 92 144 191 219 230 231 221 201 168 127 89 61 47 42 42 44 45 45 44 45 53 73 108 150 184 202 202 183 147 103 65 42 33 38 58 99 152 196 220 227 221 200 161 110 67 42 30 26 26 27 30 34 42 54 74 103 140 176 204 221 230 231 225 205 168 
97 57 35 28 35 59 103 159 203 227 237 239 235 224 204 175 140 106 83 75 84 109 146 182 205 214 210 190 152 104 63 39 32 37 59 100 153 199 225 235 237 231 217 192 158 119 85 63 50 43 39 36 34 33 37 49 74 114 158 189 201 194 166 122 78 47 30 27 34 56 98 151 195 219 226 219 198 161 113 72 48 36 31 29 29 28 28 31 36 49 71 107 150 187 212 224 226 217 192 149 
79 45 28 25 35 60 107 164 206 229 236 235 226 206 175 136 96 66 49 45 54 79 120 165 198 214 215 202 171 127 82 52 39 42 60 98 149 193 220 232 235 232 223 206 182 151 119 93 74 60 50 41 36 34 37 51 80 122 164 191 197 182 147 100 59 34 23 22 31 52 91 142 185 210 217 210 190 155 114 79 57 46 40 36 32 29 26 24 26 33 50 81 127 172 203 218 220 207 177 129 
64 36 23 22 32 58 105 162 204 226 232 227 210 180 137 93 59 37 27 26 35 58 100 151 192 214 220 213 191 152 106 68 48 45 58 88 132 174 203 219 225 225 221 212 198 179 156 134 113 94 77 61 50 44 46 61 91 132 170 191 192 172 131 83 47 27 20 20 29 47 80 124 164 189 196 189 170 142 110 85 69 60 54 47 39 32 26 22 21 25 39 69 115 164 198 214 214 198 162 111 
53 29 19 19 29 53 98 154 198 220 225 215 189 147 99 59 34 20 15 16 25 48 90 145 191 216 225 222 206 173 127 83 55 46 51 71 104 142 173 194 205 211 213 211 206 198 187 174 158 139 118 95 76 65 65 80 109 147 178 193 190 166 124 78 44 27 20 21 29 44 68 101 133 153 160 154 139 120 102 91 86 82 76 66 53 40 30 24 21 26 40 70 117 165 198 213 211 191 149 96 
46 25 16 17 25 47 88 144 189 212 215 200 165 115 68 37 19 11 9 12 22 46 90 147 193 219 229 228 215 186 141 93 60 45 44 55 76 104 132 156 175 188 197 203 207 208 206 202 193 180 161 137 112 96 93 105 132 164 188 198 193 169 129 85 52 34 28 28 34 45 61 81 99 111 114 109 101 95 94 99 107 111 108 95 76 57 41 32 29 35 52 86 132 176 205 216 210 186 140 86 
41 22 14 15 22 42 81 134 180 204 205 185 142 90 48 24 12 8 8 12 25 53 100 156 200 223 232 230 218 190 145 96 60 43 38 42 53 71 93 116 138 159 176 191 202 209 214 216 213 205 191 169 145 127 121 132 155 180 198 205 200 180 147 107 75 56 48 47 50 56 63 70 75 76 74 71 70 75 89 111 132 146 146 134 112 86 65 52 49 57 79 116 158 193 214 220 211 183 134 79 
39 20 14 14 21 40 77 129 175 198 198 174 128 76 39 19 10 8 10 17 34 67 117 171 208 226 232 229 214 184 138 90 57 40 34 35 42 54 69 88 110 134 157 177 194 206 214 219 219 214 203 184 162 145 140 151 171 192 207 213 210 196 173 143 115 96 86 83 83 83 80 74 65 57 50 48 51 65 91 125 157 177 182 173 152 126 102 87 85 96 121 154 187 211 224 225 213 181 129 75 
37 20 14 15 24 44 82 133 176 198 196 171 125 74 38 19 12 11 15 27 50 90 141 187 215 228 229 221 201 166 120 77 50 37 34 36 43 53 66 83 102 123 146 167 184 198 207 212 212 207 196 178 158 144 142 155 177 198 213 219 219 212 198 180 162 148 140 136 132 125 111 92 71 53 42 39 45 65 99 142 178 199 206 201 187 167 147 134 133 144 165 189 211 225 231 228 213 179 125 72 
37 22 17 20 32 56 97 146 184 203 200 177 133 83 45 26 18 19 27 45 77 121 168 203 221 227 222 206 178 138 95 62 43 36 38 46 58 72 86 101 116 132 148 162 175 184 190 193 191 184 170 151 133 123 127 145 172 197 214 223 226 223 217 209 200 193 188 185 180 169 150 121 89 63 47 42 51 76 115 160 194 213 219 217 208 195 182 173 173 183 197 213 225 232 234 228 211 174 120 69 
38 26 24 31 48 79 122 167 198 211 209 189 150 102 62 40 31 34 48 74 113 156 192 214 223 221 208 182 145 104 69 47 38 39 49 67 88 109 126 139 148 155 160 163 164 164 163 159 153 142 127 110 96 91 100 123 156 188 211 223 229 229 228 224 221 218 216 215 211 201 182 153 117 84 64 59 70 98 138 178 205 220 224 223 216 207 198 193 194 202 212 222 230 233 232 224 203 164 112 66 
42 35 39 53 78 114 155 190 212 221 218 203 172 129 89 63 55 61 82 115 153 187 210 221 221 210 185 148 107 71 47 36 36 46 67 98 129 155 172 180 183 181 174 163 150 137 126 116 106 94 82 70 62 61 71 96 133 171 201 218 227 230 230 229 228 228 227 227 224 217 202 178 145 114 94 89 102 129 164 193 213 221 223 218 211 201 194 190 193 200 209 218 224 226 223 211 187 147 100 63 
50 52 65 88 120 156 188 211 224 229 226 214 191 156 119 94 87 98 124 156 187 210 222 224 216 194 157 112 72 46 32 30 37 56 90 132 170 194 207 211 208 199 184 160 133 108 89 76 66 57 49 43 39 40 50 71 105 146 181 204 217 222 224 224 224 224 224 224 223 218 207 190 167 145 130 129 141 163 187 205 214 216 212 202 190 177 168 164 168 176 187 197 203 205 199 185 159 123 87 61 
64 78 102 133 164 192 212 225 232 233 230 220 201 174 144 123 120 134 160 188 210 223 227 223 207 174 127 80 47 30 23 26 39 67 112 162 198 218 227 227 222 209 185 151 114 83 62 50 42 36 32 29 27 29 36 53 80 116 151 178 194 201 204 204 204 204 205 206 206 203 197 188 177 166 162 165 175 189 202 209 209 202 188 170 151 134 123 119 122 132 144 155 163 165 159 144 122 96 74 62 
83 109 142 173 198 216 227 233 235 234 229 218 201 177 152 136 137 155 181 204 221 229 229 220 197 156 103 58 32 20 18 24 41 76 128 180 214 231 236 234 226 209 179 137 95 63 45 35 30 27 25 24 23 25 30 41 60 86 115 139 155 162 164 164 163 163 164 166 167 168 168 168 170 173 180 188 197 205 208 205 194 175 151 125 101 84 74 71 74 82 92 102 109 112 108 99 85 72 65 68 
102 137 172 199 217 227 232 234 233 229 220 207 186 161 138 127 133 154 182 206 222 229 228 216 189 142 87 46 24 15 15 23 42 81 137 189 221 235 239 235 224 201 164 117 76 49 35 29 27 26 26 26 26 27 31 38 49 65 83 98 107 111 110 108 106 105 106 108 111 116 122 132 147 165 183 198 207 210 206 192 169 138 106 79 59 47 41 39 41 47 53 60 66 69 68 65 60 58 62 76 
115 153 186 209 222 228 230 228 224 216 202 181 155 128 107 100 108 133 165 195 215 225 225 213 185 136 81 41 21 14 14 22 42 81 138 191 222 235 237 232 216 187 143 95 59 39 31 29 30 32 34 36 37 39 41 45 51 58 65 70 71 69 65 61 58 56 56 58 61 66 75 91 115 146 176 197 207 207 195 171 136 99 68 47 34 27 24 25 27 31 36 41 45 48 50 50 50 53 63 83 
118 152 182 202 212 217 217 213 205 191 170 143 113 88 71 67 76 99 134 171 200 216 221 212 185 139 85 44 23 14 14 21 40 77 133 186 219 232 233 225 204 168 119 74 46 33 30 34 40 48 55 60 63 64 65 66 67 67 66 62 55 48 40 35 31 29 28 29 31 35 43 59 85 123 162 190 201 198 178 143 103 68 43 30 23 20 20 23 27 32 37 42 47 50 52 53 54 59 69 88 
110 135 159 176 185 189 188 183 172 154 129 101 75 55 44 41 48 66 98 138 177 203 215 212 191 151 99 56 30 18 15 21 37 70 123 177 212 227 228 217 190 147 97 58 38 32 36 47 62 78 92 101 106 108 107 106 102 96 87 74 60 47 36 27 22 18 16 16 17 19 26 39 64 103 147 179 191 183 157 116 76 47 30 23 21 22 27 33 41 50 58 65 71 74 76 75 74 74 78 90 
94 106 120 131 139 143 144 140 131 115 93 71 51 37 29 26 30 42 66 104 148 186 207 212 200 169 123 77 44 26 20 21 34 63 112 166 204 221 222 208 178 130 82 49 36 37 49 70 96 122 141 153 158 159 158 154 149 139 126 107 86 65 48 34 25 19 15 13 12 14 19 31 54 92 136 169 180 168 136 94 59 36 26 24 27 35 46 60 75 89 102 111 118 121 120 116 107 98 90 89 
77 76 79 83 89 93 97 99 96 88 75 58 43 31 24 20 21 28 44 75 119 166 198 212 210 190 154 109 69 42 28 25 33 57 100 153 194 214 216 202 170 123 77 49 41 49 71 103 138 167 185 195 198 198 196 193 188 181 169 151 128 103 79 58 42 30 22 17 15 15 20 31 54 91 133 164 173 157 122 81 50 33 28 31 43 60 83 107 128 146 159 167 172 173 170 162 147 126 104 87 
64 53 49 49 53 58 66 75 82 84 78 66 52 38 27 21 18 21 31 55 95 146 188 212 218 209 185 147 104 67 43 33 35 53 90 140 184 207 212 200 170 127 85 61 57 72 102 140 175 199 212 218 219 217 215 213 210 207 200 189 173 151 126 100 76 57 42 32 26 25 29 42 66 102 141 167 172 153 116 76 48 36 36 47 69 100 132 161 182 196 204 209 211 210 206 196 179 151 116 85 
56 40 33 32 35 43 56 74 91 103 105 95 78 58 40 27 20 19 25 42 77 128 178 210 224 223 209 183 145 102 67 46 40 52 82 128 173 201 210 202 178 142 106 85 85 104 137 173 201 217 224 226 223 220 217 215 215 216 215 212 205 193 175 153 127 102 80 63 52 48 52 66 92 126 159 178 178 157 119 80 54 44 49 69 103 143 178 202 217 225 229 231 231 229 224 215 197 166 125 84 
54 36 28 27 31 43 63 91 120 141 148 141 122 94 65 42 27 21 22 35 64 113 168 207 226 231 226 210 181 140 97 64 49 53 76 117 162 194 208 206 189 163 135 118 120 140 168 196 214 224 226 222 216 208 203 201 204 209 215 219 220 217 209 196 178 156 133 112 97 89 92 106 130 158 181 193 189 167 131 93 66 57 66 94 135 176 207 224 233 237 238 238 236 234 229 220 203 173 130 86 
59 40 32 31 39 55 83 120 155 180 190 186 169 139 101 66 40 26 23 31 55 100 157 202 226 236 236 227 207 174 129 86 60 55 70 105 149 185 204 208 199 181 162 150 152 168 189 207 219 222 218 209 195 180 170 168 173 185 199 212 221 225 225 220 211 198 181 164 150 142 143 153 170 188 201 206 200 181 149 111 83 72 82 112 153 191 217 230 236 237 236 234 231 228 224 216 201 174 134 92 
76 56 47 47 57 79 112 152 186 207 217 216 204 180 141 97 59 36 26 29 48 88 144 194 224 237 241 237 223 197 154 106 70 57 64 91 132 171 195 205 202 191 178 169 170 181 196 208 214 212 202 183 159 136 121 117 125 142 165 188 206 219 225 227 225 219 210 199 189 183 183 188 198 208 215 216 210 194 167 132 102 87 92 117 153 186 209 220 225 224 221 217 213 210 207 202 192 172 141 106 
105 88 78 78 88 110 142 176 203 220 229 230 224 207 175 130 84 50 32 30 43 76 128 182 217 235 242 241 231 209 170 119 77 57 57 76 111 149 178 193 195 188 177 169 169 177 188 197 200 193 175 147 116 89 73 68 75 92 117 147 175 197 211 219 222 221 217 211 206 202 201 205 211 217 221 222 217 205 183 151 119 97 93 107 133 160 180 191 194 192 187 181 176 174 174 176 176 169 152 129 
145 132 123 121 126 141 163 186 207 221 230 233 231 221 198 159 110 67 41 32 39 64 110 164 206 229 239 240 233 213 176 124 79 54 49 61 87 121 151 169 173 168 158 150 149 155 164 173 174 165 143 112 80 56 42 38 41 53 72 99 129 157 179 194 203 206 206 203 200 198 199 203 209 216 221 223 220 212 194 167 133 104 88 88 100 116 131 139 140 137 130 124 120 121 129 142 157 166 166 158 
183 176 168 162 159 161 169 181 195 208 219 226 229 225 211 181 135 87 53 36 36 53 90 141 187 217 231 235 228 209 171 120 74 49 42 48 66 92 117 134 139 134 125 116 114 118 128 137 141 133 114 87 60 41 29 24 25 30 42 59 81 106 130 149 162 170 173 172 172 172 175 183 192 203 212 218 219 215 202 179 145 109 82 69 68 72 78 81 81 77 72 68 67 71 85 109 139 165 181 186 
209 206 200 190 177 165 157 157 164 177 193 208 218 222 215 195 158 110 68 44 36 45 71 113 159 195 215 222 216 196 157 108 67 44 37 40 52 70 87 99 102 97 87 80 77 81 91 102 111 111 99 80 59 41 30 23 21 22 27 35 48 64 81 97 109 118 122 124 124 126 132 143 157 175 192 205 213 214 207 189 157 118 82 59 47 43 42 42 40 38 35 33 34 41 57 87 128 168 194 206 
224 223 216 202 180 154 130 117 118 129 150 173 195 210 213 203 176 133 89 56 40 40 54 84 124 161 187 198 194 173 137 94 60 42 36 39 47 59 70 75 74 68 60 53 51 55 65 80 95 104 103 92 75 58 44 34 27 24 24 26 32 40 49 59 67 73 76 77 77 79 84 94 111 133 158 182 200 210 209 197 171 133 91 59 40 30 25 22 20 19 18 18 20 28 46 79 127 173 204 219 
232 230 222 204 173 134 98 77 71 78 98 128 161 190 205 206 190 157 114 75 49 40 44 60 87 119 145 159 159 144 115 83 59 47 43 47 54 62 67 67 61 53 44 39 38 42 54 73 96 116 126 123 111 93 75 58 46 37 32 30 30 33 38 43 47 49 50 49 47 47 49 55 68 89 117 150 180 200 209 205 186 153 111 72 45 29 20 16 13 12 12 13 16 25 45 81 133 181 212 227 
234 231 221 199 160 112 72 48 39 42 57 84 124 165 194 206 201 180 143 101 66 46 40 45 59 80 100 116 121 115 100 83 69 63 64 70 77 81 80 73 61 49 39 34 33 40 55 81 113 142 159 163 157 141 121 99 79 64 52 46 43 44 46 48 49 49 46 42 37 33 31 33 40 55 79 114 154 186 205 210 201 177 141 99 64 41 26 19 15 13 13 14 19 29 50 88 140 186 216 229 
231 228 216 190 146 95 55 32 23 23 33 55 93 141 183 205 210 199 172 132 91 60 43 38 43 53 67 82 93 99 100 97 95 97 103 110 116 117 109 92 71 53 40 34 36 46 67 100 139 171 190 197 195 185 169 148 125 105 89 79 75 74 75 76 75 72 64 53 42 33 26 24 26 35 52 83 125 168 199 213 213 200 174 137 99 67 46 32 25 22 21 22 27 38 59 96 144 187 213 227 
219 217 204 177 133 83 47 26 17 16 22 40 74 125 174 205 217 214 196 164 122 81 53 39 36 40 49 63 81 99 115 127 136 144 152 160 164 160 145 119 88 62 46 39 43 59 88 128 167 196 212 218 218 212 201 185 167 149 135 126 122 123 125 126 124 117 103 84 63 44 30 22 20 24 36 60 100 149 190 213 221 217 202 177 144 110 82 62 49 43 40 40 44 53 71 101 140 177 201 214 
195 195 185 160 121 78 45 26 17 15 19 35 67 119 172 207 223 224 214 190 152 106 67 45 35 35 42 58 82 112 141 162 177 187 194 199 200 193 175 143 104 72 53 47 56 79 115 157 191 213 224 228 227 223 214 202 189 178 170 167 168 172 176 179 177 170 155 130 98 66 41 26 19 19 26 44 79 129 177 210 225 228 222 208 186 160 133 110 93 83 76 73 72 75 84 102 127 153 174 188 
154 160 157 142 113 79 51 32 22 18 22 36 68 121 175 210 227 232 226 209 176 129 83 52 37 35 42 60 92 132 168 192 207 215 220 222 221 212 192 157 114 78 59 56 71 102 143 182 209 224 230 231 228 221 211 199 189 182 182 187 195 204 210 214 214 210 198 175 139 96 58 34 21 17 21 34 62 109 162 202 224 233 233 226 215 199 182 164 149 138 129 121 113 105 99 98 105 117 130 143 
105 118 127 126 112 89 64 43 30 25 27 42 76 128 181 215 231 236 233 220 191 145 94 58 39 35 43 65 103 150 188 212 224 230 233 233 229 218 196 158 114 79 62 64 85 124 167 200 220 230 232 229 221 209 193 177 165 162 169 184 200 215 225 231 233 231 224 206 175 128 80 45 25 18 18 27 49 89 142 189 218 231 236 234 229 222 212 203 194 187 179 170 155 135 112 92 81 79 83 92 
66 85 106 121 122 109 86 62 44 34 35 50 85 138 188 219 234 238 236 224 197 152 99 59 40 35 44 69 112 162 201 223 233 237 238 236 229 215 188 148 104 72 60 68 96 139 182 211 227 232 230 223 208 186 159 135 122 122 135 159 186 210 226 236 240 241 236 224 199 157 103 58 32 19 17 22 39 70 118 167 203 223 231 233 232 229 225 222 218 215 210 202 186 159 122 87 62 50 48 54 
45 68 99 127 142 137 116 87 61 46 44 58 94 146 193 222 235 239 236 223 196 149 95 56 37 33 43 69 114 167 206 227 236 239 239 235 225 205 172 128 87 61 55 67 99 146 189 216 229 231 226 213 189 154 117 89 75 76 91 120 156 191 216 232 240 243 241 233 214 178 126 75 41 23 18 20 31 54 91 137 176 202 216 222 224 224 224 225 226 226 224 218 203 173 129 84 51 35 29 33 
40 68 106 144 167 167 147 113 79 56 51 63 98 149 194 222 234 238 233 219 187 138 85 49 32 30 39 65 110 163 204 227 236 239 237 230 216 189 150 104 69 50 48 63 96 144 187 214 226 228 220 201 167 122 81 54 42 42 55 80 118 160 195 219 233 239 240 236 222 194 148 95 55 32 22 20 26 41 66 101 137 165 183 193 199 203 208 214 220 225 227 224 210 182 135 84 48 28 22 26 
48 81 126 167 189 191 171 134 92 63 53 63 95 144 190 219 232 235 229 210 174 121 71 40 27 25 34 58 100 153 197 221 232 235 231 221 202 169 125 83 54 41 42 57 88 133 177 205 219 220 211 187 148 100 60 36 26 25 33 50 80 121 163 196 218 230 235 234 225 205 168 120 76 47 32 26 27 34 48 69 93 115 132 143 152 161 173 187 202 215 223 223 213 187 143 91 52 31 24 30 
69 108 153 188 206 205 183 143 96 64 51 58 86 133 180 212 227 230 222 200 159 104 59 32 22 21 29 50 87 137 182 210 223 226 221 207 182 146 104 68 47 38 40 52 78 116 157 187 203 207 197 173 134 89 54 33 22 20 23 33 53 83 121 159 190 210 222 226 224 211 186 149 108 74 53 40 35 34 39 47 58 69 79 86 94 105 121 144 171 195 211 218 213 192 153 104 64 42 37 45 
104 143 181 206 217 210 185 140 91 57 44 48 72 116 166 203 221 225 216 191 146 92 50 28 19 19 26 43 73 117 160 190 205 207 200 184 157 123 89 63 49 43 44 52 70 97 129 158 176 183 178 160 128 92 62 42 30 24 23 26 36 54 81 114 147 176 197 210 216 213 200 177 146 115 88 69 55 45 39 37 38 40 42 45 50 57 72 97 130 166 194 209 210 196 165 124 87 66 63 76 
