P2
100 100
255
131 137 142 144 142 136 127 117 108 103 103 107 116 126 136 144 149 149 144 136 125 114 104 97 93 93 96 103 111 120 129 135 138 139 137 133 128 122 117 113 110 108 107 108 111 117 124 132 139 144 145 142 134 125 114 105 99 96 97 100 106 112 119 125 129 132 135 136 138 138 137 136 133 130 126 123 120 117 115 112 109 105 101 97 95 94 97 103 113 124 135 143 147 147 143 137 130 125 124 126 
142 147 149 149 144 135 123 112 102 96 96 100 108 119 130 139 145 146 142 135 125 115 106 99 96 96 100 106 114 122 128 133 135 135 133 130 127 124 122 120 118 116 114 113 113 114 118 124 130 135 139 139 137 131 124 118 112 109 108 109 110 113 115 116 118 119 122 125 130 135 139 143 144 144 142 138 134 128 122 115 108 102 96 92 89 90 93 100 110 122 133 141 146 147 145 141 137 134 135 137 
150 154 156 153 147 136 122 109 98 92 91 95 103 114 126 135 142 144 142 137 129 120 112 107 104 105 108 113 119 124 128 130 130 128 126 125 125 126 128 129 130 128 125 121 117 114 113 115 119 125 131 135 138 137 135 132 128 124 121 119 116 114 111 109 107 107 110 115 122 132 141 149 154 156 155 152 147 139 130 120 110 102 95 91 89 90 95 102 111 122 132 139 144 145 144 142 140 140 142 146 
155 159 160 157 149 137 123 109 98 92 90 94 102 112 124 134 141 144 144 140 135 128 123 119 117 117 120 123 126 128 128 127 123 120 118 118 121 126 132 138 142 142 138 132 123 116 110 108 109 114 122 130 137 142 144 144 142 139 134 128 122 115 108 103 99 98 101 107 117 130 142 153 161 165 165 162 156 147 137 125 114 105 98 95 94 96 101 108 116 125 132 137 140 140 139 138 138 140 144 150 
157 161 163 159 152 140 125 111 100 94 93 96 103 114 125 135 142 146 147 145 141 137 134 131 131 132 133 135 135 133 129 123 116 111 109 110 115 124 135 145 152 154 151 143 132 119 109 102 101 104 112 123 134 143 150 153 153 150 144 136 126 116 106 99 94 93 96 103 115 129 143 156 165 170 170 167 161 152 141 129 118 110 105 102 103 106 111 117 124 129 133 134 134 132 130 130 132 136 142 150 
154 160 162 160 152 141 128 115 105 99 98 101 108 118 128 137 144 147 149 148 146 144 143 142 143 144 145 145 142 137 129 119 110 102 99 101 108 121 136 150 160 164 162 153 140 124 109 99 95 97 104 116 130 143 152 158 159 155 149 139 127 116 105 97 92 92 95 103 115 130 144 156 165 170 170 167 161 152 142 131 122 116 112 112 115 119 125 130 133 135 134 131 126 122 119 118 121 127 136 146 
150 157 160 157 151 141 129 118 109 105 105 109 116 124 133 140 145 147 148 148 147 146 147 148 151 153 154 153 149 141 130 117 105 96 91 93 101 116 133 150 163 170 169 161 147 130 112 99 92 92 99 112 127 141 152 159 160 156 149 138 126 114 104 97 94 95 99 107 119 132 144 154 162 165 165 162 156 148 139 131 124 121 120 123 128 133 138 142 142 140 134 126 118 111 107 106 110 117 128 139 
144 152 155 153 147 138 128 119 113 111 112 117 124 131 137 142 144 145 144 143 142 143 145 149 153 156 158 157 153 144 131 116 102 92 86 88 96 110 129 148 163 171 172 166 153 135 116 101 93 92 98 110 124 139 150 157 157 153 145 134 123 112 105 100 99 102 107 115 124 134 143 150 154 156 155 152 147 140 134 128 125 125 127 133 139 146 151 153 150 144 134 122 110 101 95 95 99 108 120 133 
138 146 149 147 141 133 125 119 115 116 119 125 131 137 141 142 141 139 136 134 133 134 138 143 149 154 158 158 154 146 133 118 103 92 85 85 92 106 125 144 160 170 173 168 156 139 121 106 96 95 100 111 124 138 148 153 152 147 138 128 118 111 106 106 108 112 118 124 131 137 141 143 144 144 142 139 135 130 127 124 124 127 133 140 149 156 160 160 156 147 133 118 104 93 87 87 91 101 113 127 
135 141 143 140 134 127 120 117 116 119 125 131 137 141 142 140 135 130 124 121 119 121 126 133 141 149 154 156 154 147 136 121 107 95 88 87 92 104 121 139 156 166 170 167 157 143 126 112 103 101 105 115 127 138 145 148 145 139 129 120 113 109 109 112 118 125 131 135 138 139 138 136 133 130 127 125 123 121 120 120 123 128 136 145 154 161 165 165 159 148 133 115 99 88 83 83 88 98 110 124 
133 138 138 133 126 120 115 114 116 122 129 136 141 143 140 135 127 119 111 107 105 107 113 121 131 140 148 152 152 148 139 127 114 103 95 93 96 105 119 135 150 160 165 163 156 144 131 119 111 109 113 121 130 139 143 143 138 130 121 113 108 108 113 120 129 137 143 146 145 141 135 128 122 117 115 113 113 114 115 118 122 129 137 147 156 163 167 167 160 148 132 114 98 87 82 83 89 99 112 124 
135 137 134 128 120 114 110 111 116 124 133 140 144 143 138 129 118 108 99 95 93 96 102 111 122 132 141 147 149 147 142 133 123 114 107 103 104 110 119 132 143 152 157 157 153 144 135 126 120 119 122 128 135 140 141 138 131 122 113 107 105 108 116 127 139 148 154 155 151 143 133 123 114 109 106 107 108 111 114 117 122 128 136 145 154 162 166 165 159 148 132 114 99 89 85 86 93 104 117 128 
139 138 132 124 115 109 107 110 117 126 136 143 145 142 134 123 110 99 91 86 86 89 96 105 115 126 135 141 145 146 143 139 133 126 120 116 115 117 122 129 137 144 148 149 147 142 136 131 127 127 130 134 139 141 139 134 125 115 107 102 102 108 119 133 146 156 161 161 155 145 132 120 111 105 104 105 109 112 116 119 122 127 133 141 149 156 161 161 156 146 131 115 102 93 90 93 101 113 124 134 
143 140 132 122 113 107 106 110 119 129 139 145 146 141 131 118 104 93 86 83 84 89 96 104 114 122 130 136 140 142 144 143 142 139 135 131 127 125 125 127 130 134 137 139 139 138 136 134 133 133 135 138 140 140 137 130 120 110 102 99 100 108 120 135 150 160 165 163 157 146 132 120 111 107 107 109 113 117 120 121 122 124 128 134 141 148 153 155 152 143 131 117 106 99 98 102 111 122 133 141 
147 142 132 121 112 107 107 112 122 133 143 148 148 141 129 115 102 92 86 85 88 93 101 109 116 122 126 130 134 137 141 145 148 148 147 144 139 133 128 125 123 124 126 128 130 132 133 134 135 136 138 140 140 138 134 126 117 108 101 98 100 108 120 135 149 159 164 163 156 145 133 122 115 112 113 117 121 124 125 124 122 121 121 125 131 138 144 147 146 140 130 119 110 105 106 111 121 132 141 147 
149 142 132 121 112 107 108 115 126 137 146 151 149 142 129 115 103 94 91 92 96 104 111 118 122 124 124 125 127 130 136 144 150 155 156 154 148 139 130 122 116 114 114 117 121 126 130 133 135 137 138 138 137 135 131 124 116 108 102 99 101 108 119 132 145 154 159 158 152 143 134 125 120 120 122 126 130 132 130 126 121 116 114 116 120 127 134 138 139 136 129 121 115 111 113 119 128 138 146 150 
148 141 130 119 111 108 110 118 129 140 149 153 150 142 131 117 106 100 99 102 109 117 124 128 129 126 122 119 118 122 129 139 149 157 161 159 153 142 130 118 109 104 104 107 113 119 126 130 134 135 135 135 133 131 128 123 117 111 107 104 105 109 117 128 138 145 149 149 145 139 133 128 126 127 131 135 138 137 133 126 118 111 107 107 111 117 125 131 134 133 128 123 118 116 119 125 133 142 149 151 
146 138 127 117 110 108 111 119 130 141 149 153 150 143 132 121 112 108 109 115 124 132 137 138 135 127 119 112 109 112 120 132 146 156 162 161 154 142 127 112 101 96 95 99 106 115 123 129 132 133 132 130 128 127 125 124 121 118 114 112 111 112 116 122 128 133 137 137 136 133 130 129 130 134 138 142 143 140 134 125 115 106 101 100 104 110 118 125 130 131 129 125 121 120 123 128 136 143 148 149 
142 134 124 114 108 106 109 117 128 139 147 150 149 143 134 125 119 117 121 128 137 144 148 146 138 127 114 105 100 102 111 125 140 153 160 160 153 139 122 106 95 89 89 94 103 113 122 129 131 131 128 125 123 123 124 126 127 127 125 123 120 117 116 117 118 120 122 124 125 125 127 129 133 138 142 145 145 140 132 122 111 102 97 96 100 107 116 123 129 131 130 127 125 124 126 131 137 143 146 146 
138 130 121 112 106 104 107 114 123 133 141 145 145 141 134 128 125 126 131 139 147 153 154 149 138 124 109 97 92 94 103 118 135 149 157 157 149 135 117 101 90 85 86 93 103 115 125 131 132 130 125 121 118 119 123 129 134 138 138 136 131 124 118 113 109 108 109 111 114 118 123 128 135 140 145 146 144 138 129 118 107 99 95 95 100 107 116 125 131 134 134 131 129 128 129 133 137 142 144 143 
137 129 120 111 104 102 103 109 117 126 133 138 139 137 134 131 130 133 139 147 154 158 156 149 135 119 103 91 86 88 98 113 130 145 153 153 145 130 112 97 87 83 86 95 108 121 131 136 136 131 123 117 114 116 122 131 141 148 151 149 142 133 121 111 103 99 98 100 105 112 120 128 136 142 145 145 142 134 125 114 104 98 95 97 102 111 121 129 135 138 138 136 134 133 133 136 139 142 143 142 
138 130 121 112 105 101 101 104 110 117 124 129 132 132 132 132 134 138 144 151 157 158 155 145 131 114 98 87 83 86 96 111 128 143 150 150 141 126 109 95 87 85 90 101 116 130 140 143 141 133 122 113 109 111 120 132 145 155 161 160 153 141 126 111 100 93 91 93 99 108 119 129 137 143 145 144 138 130 120 111 103 98 97 101 107 117 127 135 141 144 144 142 139 137 137 139 141 144 145 143 
142 135 126 117 109 103 100 101 105 110 116 121 125 128 130 132 136 141 147 153 156 156 151 141 126 110 96 87 84 88 98 113 129 142 149 147 138 124 108 96 89 90 98 111 127 141 150 152 146 135 122 110 104 106 115 130 146 160 168 168 162 149 131 114 99 90 88 90 98 108 120 131 140 145 145 142 135 126 117 108 102 100 101 106 113 123 133 141 146 148 148 145 143 141 140 142 144 146 147 146 
148 142 134 124 115 108 103 101 102 106 110 115 120 124 128 132 137 142 147 152 154 153 147 136 123 109 97 90 89 94 105 119 133 144 149 146 137 123 109 99 95 99 109 124 140 153 161 160 152 138 121 107 99 100 109 126 144 161 171 173 167 154 136 116 100 90 87 91 99 111 124 135 143 146 145 140 132 123 114 107 103 102 105 111 119 128 137 144 148 150 148 146 143 141 141 142 145 148 150 150 
153 149 142 134 124 115 109 105 104 105 109 113 118 123 128 133 138 142 146 149 150 148 142 132 121 110 101 97 98 104 115 127 139 148 150 146 137 124 112 104 103 109 121 137 153 164 170 167 157 140 121 104 94 93 102 119 139 157 170 174 169 157 139 119 103 93 90 94 103 116 129 140 146 147 144 138 129 120 112 107 105 106 110 116 124 132 139 145 147 147 144 141 138 136 136 138 142 147 151 153 
156 154 150 143 134 124 116 111 108 109 111 115 120 125 130 134 138 142 144 145 145 142 137 129 121 114 109 108 111 117 127 137 146 151 151 146 137 125 115 110 111 118 132 148 162 172 176 172 161 142 120 101 90 88 95 111 132 151 166 172 169 158 141 122 106 96 94 99 109 122 134 143 148 147 143 135 126 118 112 108 108 110 114 121 127 134 139 142 142 140 136 131 128 126 126 129 135 142 148 153 
155 157 154 149 141 133 125 119 116 116 118 121 126 130 134 137 139 140 140 140 138 135 131 126 122 119 118 120 124 131 139 147 152 154 151 145 135 125 117 114 117 125 139 155 168 177 179 175 162 143 120 100 87 83 89 103 123 144 159 167 165 156 141 123 109 100 99 104 114 127 138 145 148 145 139 131 123 116 112 111 112 115 120 125 131 134 137 136 134 129 123 118 113 111 112 116 123 132 141 150 
150 154 155 151 145 138 132 127 124 124 126 130 133 137 139 140 139 138 135 132 129 127 124 122 122 123 126 131 137 144 150 154 156 155 150 142 132 123 116 115 119 128 142 156 169 177 179 174 162 143 121 100 86 81 85 98 116 136 152 160 160 153 139 124 111 104 103 109 119 130 139 144 144 141 134 126 120 115 114 115 118 122 127 131 134 135 134 130 125 118 110 103 98 96 96 101 109 119 131 142 
142 148 150 149 145 140 135 132 131 132 135 138 142 144 144 142 139 134 129 124 120 117 116 117 120 125 132 139 147 153 157 158 157 153 145 136 126 118 112 112 116 125 138 152 164 172 174 170 160 142 122 102 88 83 85 95 111 129 144 153 154 148 136 123 113 107 107 113 122 131 138 140 139 134 128 121 117 116 118 122 127 131 135 138 138 136 132 126 118 108 99 91 85 82 83 87 95 106 119 132 
132 140 143 142 139 136 133 133 134 137 142 146 149 149 148 143 137 129 122 115 110 107 108 111 117 125 135 144 152 157 160 159 155 148 139 128 118 110 106 105 109 117 129 142 153 162 166 164 156 141 124 106 93 87 88 96 109 125 138 147 148 143 133 123 114 110 111 116 123 130 134 135 132 127 121 118 117 119 124 130 137 142 145 145 144 140 133 125 114 103 93 84 78 74 74 78 85 96 108 121 
124 131 133 133 130 128 128 129 133 139 145 150 153 153 150 143 135 125 115 106 101 99 100 105 113 123 135 145 154 159 160 157 151 142 131 120 110 102 98 97 100 107 116 128 139 148 154 154 150 140 126 112 101 95 95 101 112 124 135 142 143 139 131 122 115 112 113 117 123 128 130 129 125 120 117 116 118 124 132 140 147 152 154 153 150 144 137 127 116 104 93 83 77 73 72 75 81 91 102 114 
120 124 125 123 120 118 119 123 129 137 145 151 154 154 149 142 131 120 109 100 95 92 94 100 109 120 133 144 153 157 157 153 145 135 123 111 102 95 91 90 92 96 103 113 123 132 140 143 143 138 129 119 111 106 105 109 117 126 135 139 139 135 129 122 116 114 115 119 122 125 125 123 119 116 114 116 122 131 141 150 156 160 161 159 155 149 141 132 122 111 100 91 83 78 77 79 84 93 103 112 
121 122 119 115 111 109 110 115 122 131 140 147 151 151 147 139 128 117 106 97 92 90 92 98 107 119 131 142 150 154 153 148 139 128 116 105 96 90 86 85 85 88 93 100 109 118 126 132 136 135 132 127 122 118 117 120 125 131 136 139 137 133 127 121 117 116 117 120 122 123 123 120 116 114 115 120 128 138 148 157 162 164 164 160 156 151 145 139 132 123 114 105 98 92 90 91 96 102 110 117 
127 124 119 112 106 103 103 107 115 124 134 141 145 146 142 135 125 115 106 98 94 92 94 100 108 119 130 140 147 150 148 143 133 122 111 101 93 88 84 83 83 85 88 93 99 107 116 123 130 133 134 133 131 130 130 131 134 137 139 139 137 132 126 121 118 117 118 121 122 123 121 119 116 116 118 124 134 144 154 161 164 164 161 157 153 149 147 145 142 137 132 125 118 113 111 111 114 118 123 127 
136 131 122 113 106 101 100 103 109 117 126 133 137 138 136 130 124 116 109 104 100 100 102 106 114 122 131 139 144 146 143 137 128 118 108 99 93 89 87 86 87 87 89 92 96 102 110 117 125 131 135 138 139 139 139 140 141 142 142 140 136 131 126 121 118 118 119 122 123 124 122 120 119 119 123 130 139 148 155 159 159 156 151 146 143 142 143 146 149 150 149 146 141 137 134 133 134 137 139 139 
146 138 129 119 110 103 101 102 106 112 118 124 128 129 129 126 123 119 116 113 112 112 114 117 122 128 134 139 142 141 138 132 123 115 106 100 96 94 94 95 96 96 97 98 100 104 108 115 122 129 135 139 142 144 146 147 147 146 144 141 136 130 125 120 118 118 120 123 124 125 124 123 122 123 127 133 141 148 152 152 148 142 135 130 127 129 135 144 152 159 162 163 160 157 154 153 152 152 152 150 
152 145 136 126 117 110 106 105 106 109 112 116 119 121 122 123 123 124 124 125 126 127 128 130 132 135 137 139 139 137 133 126 119 112 106 103 102 103 105 108 110 111 111 110 110 110 111 115 120 126 132 138 142 146 148 149 149 148 145 140 135 129 123 119 118 118 121 123 126 127 127 126 126 127 130 135 140 143 143 140 133 124 115 109 108 113 123 136 150 162 169 172 172 170 167 164 162 161 159 157 
154 149 142 135 127 120 115 111 109 109 109 110 111 113 116 120 125 130 134 138 140 141 142 142 142 141 140 138 136 132 127 121 115 110 107 107 109 113 119 124 128 130 129 127 123 119 117 116 118 122 127 133 138 143 146 148 148 147 143 139 133 127 122 119 117 119 121 125 127 129 129 128 128 128 130 133 135 135 132 125 115 105 96 91 91 97 110 127 145 160 170 175 176 173 170 166 163 161 159 157 
150 149 146 142 137 131 126 120 115 111 107 106 106 108 113 119 127 135 143 148 152 153 153 151 148 144 141 137 132 127 121 116 111 108 108 111 116 124 133 140 146 148 147 143 136 129 123 118 116 118 121 127 132 137 141 144 144 143 140 136 130 125 121 118 118 120 123 126 129 130 130 129 128 128 128 129 129 126 120 111 100 89 81 77 78 85 98 117 137 154 166 171 172 168 163 158 154 151 150 150 
141 144 146 147 145 142 136 130 122 115 108 104 103 105 111 119 129 140 149 155 159 160 158 155 150 145 139 133 127 122 117 112 109 108 110 115 123 134 144 154 160 162 161 156 147 137 127 119 114 113 115 119 125 130 134 137 138 137 135 131 127 123 120 119 120 122 125 129 131 132 131 129 127 125 124 123 121 117 110 100 90 80 73 70 71 78 92 110 129 146 158 162 161 156 149 143 137 135 135 137 
129 137 144 149 151 150 146 138 129 120 111 105 102 104 110 120 131 143 152 158 161 161 158 154 148 141 135 129 123 118 114 110 108 108 112 118 128 140 152 162 168 171 169 163 153 141 129 119 112 110 110 114 118 123 127 129 130 130 128 126 123 122 121 122 124 127 130 132 134 133 130 127 124 121 119 118 115 111 104 96 87 78 72 70 72 79 91 107 124 139 148 150 147 140 131 123 117 115 117 122 
117 129 140 149 154 155 152 145 136 125 115 107 104 106 112 121 133 144 152 157 159 157 153 148 141 135 130 125 121 117 114 111 110 111 115 122 132 144 156 165 171 173 171 164 154 141 129 118 111 108 108 111 115 118 121 122 122 122 121 120 120 121 123 126 130 133 136 138 137 134 130 125 120 117 115 113 112 109 104 98 91 84 79 78 79 86 96 110 123 134 139 138 132 122 112 104 98 97 100 107 
109 122 136 147 155 158 156 150 140 129 119 111 107 108 114 123 133 142 149 152 152 149 144 139 133 128 125 122 121 119 117 116 115 116 120 126 135 146 156 164 169 169 166 159 149 138 126 117 112 110 110 113 115 117 117 116 115 113 113 113 116 120 125 131 137 141 144 143 141 136 129 122 117 113 111 111 112 112 110 107 102 97 94 92 94 99 107 117 126 132 133 128 119 108 98 90 86 85 89 97 
105 119 133 145 153 157 157 151 143 132 122 115 111 112 117 124 132 139 143 144 142 138 133 128 124 122 122 122 123 124 124 124 123 124 126 131 138 145 153 159 161 161 157 150 141 131 123 117 115 115 117 119 120 120 117 113 109 106 105 107 112 119 128 137 145 149 151 149 145 137 128 120 114 110 110 112 115 118 120 120 118 116 113 112 114 117 122 128 132 133 129 122 111 100 91 84 80 81 85 93 
105 118 131 142 151 155 155 151 143 134 125 118 115 115 119 124 130 134 136 135 131 126 121 118 117 118 121 125 129 132 134 134 133 133 133 136 139 144 148 151 151 149 144 137 129 123 119 118 120 124 128 130 130 126 120 112 104 100 98 101 108 119 131 143 152 157 158 155 148 138 128 118 112 109 110 115 121 127 132 135 136 135 134 133 133 135 137 138 138 135 128 119 108 98 90 84 82 83 87 95 
110 120 130 139 146 150 150 148 142 134 127 121 118 118 120 123 126 128 127 124 120 115 112 111 112 117 123 130 136 141 143 143 142 141 139 139 139 140 141 141 138 134 129 123 118 115 116 121 128 135 141 144 142 135 125 113 102 95 93 96 105 118 133 147 157 162 162 158 149 138 127 117 111 109 113 119 128 136 143 148 150 151 150 149 149 148 147 145 142 136 128 119 109 100 94 90 89 91 95 101 
116 122 129 135 140 143 144 142 138 133 128 123 120 119 120 121 122 121 119 116 111 108 106 107 112 119 127 136 143 148 151 150 148 145 142 140 138 136 134 131 126 120 114 109 107 108 114 124 136 147 155 158 155 145 132 116 101 92 89 92 102 117 133 149 160 165 164 159 149 137 125 116 111 111 116 124 134 143 151 156 159 159 159 157 156 154 151 148 143 136 128 120 112 106 102 101 101 103 106 111 
123 125 127 130 133 135 136 136 134 131 127 123 121 119 119 118 117 116 113 109 106 104 105 108 115 123 133 142 149 153 154 153 150 146 141 138 135 131 127 122 116 109 103 99 99 103 113 127 143 156 166 169 165 154 138 119 102 91 87 90 100 116 133 149 160 164 163 157 146 134 123 115 112 114 120 129 138 147 154 158 159 159 158 156 154 152 149 145 140 134 127 121 116 113 113 114 115 117 119 121 
128 126 124 123 124 126 127 129 129 128 126 123 121 119 117 116 114 111 109 106 104 104 107 112 120 129 139 146 152 154 153 150 145 140 136 132 129 126 122 117 110 102 96 93 94 100 112 129 147 162 172 176 172 160 142 122 103 91 86 89 100 115 132 147 157 161 159 152 142 131 121 116 114 118 124 133 141 148 152 154 153 152 150 148 146 144 142 139 135 130 126 122 121 121 123 126 129 131 131 130 
131 125 119 116 115 117 119 122 124 125 125 123 121 119 116 114 112 109 107 106 106 108 112 119 127 136 143 149 151 150 147 142 136 131 127 125 123 122 119 114 108 100 94 90 91 98 110 128 148 164 174 178 174 162 145 124 105 93 88 91 101 116 131 145 153 156 152 145 136 126 120 117 118 122 129 136 142 146 146 145 142 139 136 134 133 133 132 131 129 127 125 124 125 127 132 136 140 141 140 136 
131 122 114 109 108 109 112 117 121 124 125 125 123 120 117 114 112 110 109 109 111 114 119 126 134 141 146 149 148 144 137 130 123 118 116 116 117 118 118 116 110 103 96 91 91 96 108 125 144 161 171 175 172 161 144 125 108 96 92 96 105 118 131 142 148 148 144 137 129 122 118 118 122 128 134 139 142 142 139 134 128 124 121 120 120 122 124 125 125 125 125 126 128 133 138 143 147 148 145 139 
129 119 110 104 102 103 108 114 120 124 127 127 126 123 120 117 115 113 113 114 117 121 127 133 140 145 147 147 142 135 126 117 110 105 105 107 112 117 121 121 117 110 102 96 93 96 106 120 137 153 163 168 164 155 140 124 110 101 99 103 112 123 133 139 142 140 134 128 122 118 118 121 127 133 138 141 141 137 130 123 116 110 108 108 111 115 119 122 125 126 127 129 132 137 143 148 151 151 147 139 
127 116 106 100 99 101 107 114 121 127 131 132 131 128 125 122 120 119 119 121 124 128 133 138 143 146 146 143 136 126 116 106 98 95 96 102 110 119 126 129 127 120 111 103 97 97 103 114 128 142 151 155 153 145 134 121 112 107 108 113 121 129 136 138 136 132 125 119 116 115 119 125 132 138 143 143 139 132 123 114 106 101 100 102 107 113 119 124 128 129 131 133 136 140 146 150 153 152 147 138 
126 114 105 100 99 102 109 117 126 132 136 138 136 134 131 128 126 126 126 127 130 133 137 141 144 146 144 139 131 120 108 98 91 89 92 99 111 123 133 139 138 132 122 111 103 99 101 108 118 129 137 140 139 133 125 118 114 113 117 124 132 137 139 138 132 125 117 113 111 114 120 129 137 143 146 144 138 129 118 108 101 98 98 102 108 116 123 129 133 134 135 136 139 142 147 151 153 151 146 137 
126 115 106 101 101 106 114 123 132 139 143 144 142 140 137 134 132 131 131 132 133 135 138 141 143 143 142 136 128 117 106 96 89 87 91 100 114 129 141 148 149 143 133 120 109 102 101 104 110 118 123 126 124 121 116 114 115 119 127 135 142 145 144 138 129 119 111 108 109 114 123 132 141 147 148 144 136 126 115 106 100 98 100 106 114 122 130 135 138 138 138 138 140 143 147 150 152 151 145 137 
126 116 108 105 106 111 120 129 138 145 148 149 147 144 141 139 137 135 135 134 134 135 136 138 139 140 139 135 128 118 107 98 92 90 94 104 118 134 148 156 158 152 142 129 116 107 103 103 106 110 113 114 113 110 109 110 115 124 135 144 150 151 147 138 126 115 107 104 107 115 125 136 144 148 148 143 135 124 114 107 103 102 106 112 120 128 135 139 140 139 138 138 139 141 145 149 151 149 145 136 
126 117 111 108 111 117 126 136 144 150 152 152 149 146 143 140 138 136 135 133 132 132 132 133 135 136 137 135 130 122 113 104 98 96 99 109 123 138 152 160 162 158 148 135 122 113 107 106 107 108 109 108 106 103 104 107 116 127 140 150 156 155 148 137 123 111 104 102 107 116 127 138 145 148 147 141 132 123 114 109 107 108 112 119 126 132 136 138 138 136 134 133 134 138 142 146 149 148 144 136 
126 118 112 111 114 121 131 140 148 153 154 152 149 144 140 137 135 133 131 130 128 127 126 128 130 133 136 136 134 128 121 112 106 103 106 114 126 140 153 161 163 159 150 138 127 118 113 112 112 112 111 108 104 101 101 106 116 129 142 153 158 156 147 134 120 108 101 101 107 116 128 138 145 146 143 137 129 121 115 112 111 113 118 123 128 132 133 133 131 128 126 126 128 133 139 144 147 146 142 135 
124 116 111 111 115 123 133 142 149 153 153 150 145 139 135 131 129 127 126 124 123 121 122 123 127 132 136 139 139 135 129 121 114 110 111 117 127 139 150 157 159 155 148 139 130 124 121 120 121 121 118 113 107 103 102 106 116 129 142 152 156 153 144 130 115 104 99 100 107 117 128 137 142 143 139 133 126 120 116 114 115 118 122 125 127 127 126 123 120 117 116 117 122 128 135 142 145 145 140 133 
120 112 107 108 113 121 132 142 148 151 150 145 139 132 126 122 120 119 118 118 117 117 118 121 126 132 138 142 144 142 136 128 121 115 114 118 125 135 144 150 152 149 143 136 131 128 128 130 132 132 129 123 115 108 106 108 116 128 141 150 152 149 138 125 111 101 97 99 107 117 127 135 138 138 133 128 122 118 117 117 119 122 124 124 123 121 117 112 108 106 107 110 117 125 134 141 144 143 138 129 
114 106 101 102 108 117 128 138 145 148 145 139 132 124 117 113 111 111 111 112 113 115 117 122 127 134 140 145 147 146 140 132 124 118 115 116 122 129 136 141 142 141 137 132 130 131 134 139 143 144 141 134 124 116 111 111 117 127 138 146 147 143 133 120 108 99 97 100 108 117 126 132 134 132 127 122 119 117 118 120 122 124 125 123 119 113 108 103 99 98 101 107 115 126 135 142 145 142 135 125 
108 99 94 95 101 111 123 134 141 144 141 135 126 117 110 105 103 104 106 108 112 115 119 125 131 137 143 148 149 147 141 133 124 117 113 113 117 123 128 132 133 132 130 128 128 132 138 146 151 153 150 143 133 123 117 115 119 127 136 142 143 138 128 117 106 100 99 103 110 119 126 129 129 126 122 118 116 116 119 123 126 127 126 122 116 109 102 97 95 96 100 108 119 130 140 146 147 142 132 120 
102 92 88 89 95 106 118 130 138 141 139 132 122 113 105 100 99 100 103 107 112 118 124 130 136 142 146 149 148 144 138 129 121 114 110 110 113 117 122 126 127 126 124 124 126 132 140 149 155 158 156 149 139 129 122 119 122 128 135 140 140 135 126 116 108 103 104 108 115 122 127 128 126 121 117 114 114 116 121 126 129 130 128 122 115 108 101 97 96 99 106 116 127 139 148 152 150 143 131 116 
98 88 83 84 91 101 115 127 137 140 139 132 123 113 104 99 97 98 102 108 115 123 130 136 142 146 148 148 145 140 132 124 116 110 107 107 111 115 120 123 124 123 122 122 125 131 139 148 155 158 156 150 141 131 125 122 124 130 136 140 140 136 128 120 114 111 112 117 122 127 129 128 123 117 113 111 112 117 123 129 133 134 131 125 118 111 105 102 103 108 117 128 139 149 156 158 154 144 129 113 
96 86 81 82 89 100 114 127 137 142 141 135 126 116 107 101 99 100 105 111 120 128 136 142 147 149 148 145 140 133 125 117 110 106 105 107 112 117 122 125 125 124 122 122 124 129 136 144 150 153 151 146 138 130 125 124 127 133 139 142 143 139 133 127 123 122 124 128 132 134 133 129 122 115 111 109 112 118 126 133 137 138 136 130 124 117 113 112 115 122 131 141 151 160 164 163 157 145 129 111 
96 86 83 84 91 103 117 130 140 145 145 140 132 122 113 106 103 104 109 116 125 134 142 147 150 150 147 141 133 125 117 110 105 104 105 110 116 122 127 130 130 129 126 124 125 128 132 138 142 143 141 136 130 125 123 124 129 136 142 146 147 145 140 136 134 134 136 140 142 142 138 131 123 115 110 109 113 120 129 136 141 142 140 135 130 126 123 124 128 135 144 153 161 167 168 166 158 145 128 111 
98 91 88 91 98 109 122 135 144 149 150 145 138 129 120 113 109 110 114 121 130 139 146 150 151 149 143 135 126 117 110 105 103 104 108 115 122 129 135 138 137 135 131 128 126 127 128 130 132 131 128 124 120 117 118 122 130 138 145 150 151 150 147 144 144 145 148 151 152 149 143 134 124 116 111 111 115 123 132 139 144 145 143 140 136 133 132 134 139 146 153 160 165 168 168 164 155 142 126 111 
103 98 97 101 109 119 130 141 149 153 153 149 143 135 126 120 116 116 120 126 134 142 149 152 151 146 139 129 119 111 104 102 102 106 113 122 130 138 143 145 144 141 137 132 129 126 125 123 122 119 115 111 109 109 113 120 129 139 147 152 154 153 151 150 150 152 155 158 158 154 147 137 126 118 113 114 119 127 135 142 146 147 145 141 138 136 137 140 145 150 156 161 163 164 162 156 148 137 124 112 
109 108 110 115 122 130 139 147 152 155 154 151 146 139 132 126 122 122 125 131 138 145 149 151 149 142 133 123 113 105 101 101 104 111 120 129 138 145 149 151 149 145 140 135 130 126 122 118 114 109 104 101 99 101 107 117 128 139 147 152 154 153 151 150 151 154 158 160 160 156 149 139 128 120 117 118 123 131 138 144 146 146 143 139 136 135 136 139 144 148 152 154 155 153 150 144 137 129 121 114 
116 119 124 129 135 141 147 151 153 154 152 149 145 140 134 130 127 127 129 134 140 146 149 149 145 138 128 117 108 101 99 101 107 116 126 136 145 150 153 153 151 146 141 136 131 126 121 116 109 103 98 94 93 96 103 114 126 137 145 149 150 148 146 145 146 149 154 157 157 154 147 138 129 123 120 123 128 135 141 145 145 143 138 134 130 129 130 133 137 140 141 142 140 137 133 129 124 120 117 116 
123 130 136 142 147 150 151 152 151 150 148 145 142 138 134 131 129 130 132 136 142 146 148 147 141 133 122 112 103 99 98 102 110 121 132 142 149 153 154 152 148 144 139 135 131 127 122 116 109 102 96 92 91 94 102 112 124 134 141 143 142 138 135 134 135 139 143 147 149 147 142 135 129 124 124 127 133 139 143 144 142 137 131 125 121 120 121 123 125 127 127 126 123 120 116 113 112 112 114 118 
129 138 145 150 153 154 152 150 147 143 141 138 136 134 132 131 130 131 134 138 142 145 146 144 138 129 118 108 100 97 98 104 113 124 135 145 150 152 151 148 143 139 135 132 129 127 123 118 112 105 98 94 93 96 103 113 123 131 136 136 132 126 121 119 120 123 129 133 136 137 134 130 127 125 127 131 137 142 144 143 138 131 123 116 111 109 110 111 113 114 114 112 109 105 103 102 103 106 112 120 
132 142 149 153 154 153 149 145 140 136 133 131 130 129 129 128 129 131 134 138 142 144 145 142 135 126 115 105 99 96 98 104 114 126 137 145 150 150 147 142 136 131 128 127 126 127 125 122 117 111 104 100 98 101 107 115 123 129 131 128 122 114 108 104 104 107 113 118 123 125 125 124 124 126 129 135 140 144 144 141 134 124 115 107 102 100 100 102 104 105 104 102 100 97 96 96 99 104 112 122 
133 142 147 150 150 147 143 137 132 128 125 124 124 124 124 125 126 128 132 136 140 143 143 141 134 125 115 105 98 95 98 104 114 125 136 144 147 147 142 136 129 124 121 121 123 126 127 127 124 119 113 108 106 108 112 119 125 128 128 123 114 105 97 93 92 95 99 105 110 114 116 119 121 125 131 137 142 144 143 137 129 118 108 101 96 94 95 98 100 102 102 101 99 97 96 97 101 106 114 124 
132 138 141 142 141 138 134 129 125 122 120 119 119 120 120 121 122 124 127 132 136 140 142 140 135 126 116 106 99 96 97 103 112 123 133 141 145 143 138 131 124 118 115 116 120 125 129 131 130 127 122 118 116 116 120 124 128 130 127 121 111 101 93 88 86 87 91 96 101 106 110 114 119 125 132 138 142 143 140 133 124 113 104 97 94 93 96 99 103 106 107 107 106 105 105 106 108 113 119 125 
129 131 131 131 130 127 125 122 120 118 118 117 117 117 116 116 116 118 121 126 132 137 140 141 137 130 121 111 102 98 97 101 109 119 130 138 142 141 137 129 121 115 112 113 117 123 129 134 135 134 131 127 125 125 127 130 133 133 130 123 114 104 95 89 87 87 90 94 98 103 107 112 118 125 132 138 142 141 137 130 120 110 102 97 95 97 101 106 112 116 118 120 120 119 119 119 120 122 124 126 
124 122 120 119 118 117 117 117 118 119 119 119 118 116 114 111 110 110 113 118 125 133 139 142 141 136 128 118 108 101 98 100 106 115 126 135 140 141 138 131 123 116 112 112 116 122 129 135 139 139 137 134 132 131 132 135 137 137 134 129 121 112 104 98 95 94 95 97 100 103 108 113 119 126 133 138 140 139 134 126 117 108 102 100 101 105 111 118 125 130 134 136 136 136 135 134 133 131 129 126 
119 114 111 109 109 110 113 116 120 122 123 123 121 117 112 107 104 103 105 110 118 128 137 144 146 144 137 127 116 107 101 100 104 112 122 132 139 142 140 135 127 120 115 113 116 122 129 136 140 142 141 139 136 135 136 137 139 141 140 136 131 124 118 113 109 107 106 106 106 108 111 116 121 128 134 138 139 137 131 123 115 109 106 106 110 116 124 133 139 145 148 150 151 151 150 147 144 138 132 126 
115 108 104 102 104 108 113 119 125 129 130 129 125 119 111 104 98 96 97 102 111 123 136 146 152 153 148 138 127 115 106 102 103 109 119 129 138 143 144 140 133 125 119 116 118 122 129 135 140 142 142 140 137 136 136 137 140 142 144 144 142 138 134 130 126 123 120 117 115 115 116 120 125 130 135 138 138 135 129 122 115 111 110 114 120 128 137 146 152 156 159 160 161 160 158 155 150 143 134 124 
113 105 101 100 103 109 117 125 132 137 138 136 131 123 113 103 96 91 91 96 106 119 134 148 157 161 158 150 138 124 113 105 103 108 116 127 137 144 147 144 138 131 124 120 120 124 129 135 139 142 141 139 136 134 133 134 137 141 145 148 150 150 149 147 143 139 134 129 125 122 122 124 128 133 137 140 139 135 129 122 117 114 116 121 130 139 148 155 159 162 163 163 163 162 160 156 151 143 133 123 
113 106 103 103 108 115 123 132 140 145 146 143 137 128 117 106 96 90 88 92 102 116 133 149 161 167 166 160 148 134 120 110 105 107 114 124 135 144 148 147 142 135 129 124 123 125 130 135 139 140 139 137 133 129 128 128 132 136 142 148 153 157 158 158 155 151 145 138 132 128 126 128 131 136 140 142 140 136 130 124 119 118 121 128 137 146 153 158 161 161 160 159 157 156 154 152 147 140 131 122 
115 110 109 110 115 122 131 139 146 150 151 149 144 135 123 111 100 93 89 91 100 113 131 148 162 170 172 167 156 142 127 114 107 107 112 121 132 141 146 146 143 137 131 126 125 127 131 135 138 139 138 134 129 124 121 121 123 128 135 143 151 157 161 162 161 157 151 143 136 131 129 130 134 138 142 144 142 138 132 126 122 121 125 132 140 148 154 156 156 154 151 147 145 144 143 142 140 135 129 122 
121 118 118 120 124 130 137 143 149 152 154 153 149 141 132 120 109 99 94 94 99 111 127 145 160 170 173 170 161 147 132 118 109 107 110 118 128 136 141 143 140 135 130 127 126 128 132 135 138 138 136 131 125 119 115 113 114 119 126 134 143 151 156 159 159 156 150 143 136 131 129 131 135 140 144 146 145 140 134 128 124 123 126 132 139 145 149 149 146 141 136 131 129 128 129 131 131 131 128 124 
128 128 128 130 132 136 140 144 147 150 152 153 152 148 141 131 120 109 101 98 100 109 123 139 154 165 170 169 161 149 134 120 110 107 108 114 122 130 135 136 135 131 127 125 125 128 132 136 138 138 135 129 122 116 110 107 106 109 115 122 131 139 146 150 151 149 144 138 132 128 127 130 135 141 145 148 147 142 136 130 126 124 126 130 135 138 139 137 131 125 119 114 112 113 116 120 124 128 129 129 
137 138 138 139 139 139 139 139 141 143 146 149 152 152 149 142 133 121 111 104 102 107 117 131 145 157 163 163 157 147 133 121 111 107 107 112 118 123 127 128 127 125 122 122 123 126 131 135 137 137 134 129 122 114 108 104 102 102 106 111 118 126 132 137 139 138 135 131 126 124 124 128 134 140 145 148 148 144 138 132 127 124 124 126 128 129 127 123 116 109 103 99 98 101 106 113 121 128 133 136 
146 147 146 145 141 138 134 131 130 132 136 142 149 153 155 151 144 133 120 110 104 105 111 121 134 145 152 154 150 142 131 120 112 107 107 110 114 118 121 121 120 118 117 117 120 124 129 133 136 136 134 129 123 116 110 105 101 100 100 103 107 113 118 123 126 126 125 123 120 120 121 125 132 138 144 147 147 144 139 133 127 124 122 121 121 119 115 109 103 96 91 89 90 95 102 112 122 131 138 143 
153 153 151 147 141 133 126 120 117 118 123 132 142 151 157 157 152 141 128 115 106 102 104 111 121 131 139 142 140 134 126 118 112 109 109 111 113 115 116 116 114 112 112 113 116 121 126 130 133 134 133 130 126 121 115 110 106 102 100 100 101 103 107 111 114 116 117 116 116 116 118 123 129 135 140 144 144 142 138 133 128 124 121 118 115 111 106 99 93 88 85 85 88 94 104 115 126 136 144 150 
157 156 153 147 138 128 117 108 104 104 109 120 133 146 155 159 156 147 134 119 108 101 100 103 111 119 126 130 130 127 122 117 113 111 112 113 115 116 115 113 111 109 109 110 113 118 122 127 130 132 132 132 130 127 124 120 115 110 106 102 100 100 101 104 107 110 112 113 114 115 117 120 125 130 135 138 140 140 138 134 130 126 122 117 112 106 100 94 89 85 84 86 91 99 109 121 132 142 150 155 
157 156 152 145 135 122 110 99 93 93 98 109 123 138 150 156 156 148 136 122 109 101 97 99 104 111 117 121 122 121 119 116 115 115 117 118 119 119 118 115 112 109 108 109 112 115 120 124 127 130 132 133 134 135 134 132 128 122 116 110 105 102 101 103 106 109 111 113 114 115 116 117 120 124 128 131 134 136 137 136 134 130 126 120 114 107 99 93 89 87 87 91 98 107 118 129 138 147 152 156 
154 153 149 142 131 119 105 94 87 86 90 100 114 130 143 152 153 148 137 124 112 103 99 99 102 107 112 116 118 118 118 118 118 120 123 125 126 125 122 119 115 112 110 110 112 115 118 122 125 128 131 135 139 142 143 143 141 136 129 121 114 109 107 107 109 113 116 117 118 117 116 115 115 116 119 123 127 132 136 138 139 137 133 128 120 112 104 97 93 93 95 100 108 117 126 135 142 148 151 153 
147 146 144 138 130 118 105 94 86 84 86 95 108 123 137 146 149 146 138 127 116 108 103 103 105 108 112 115 117 118 119 120 123 126 129 132 133 131 128 124 120 116 114 113 114 116 119 121 124 128 132 136 142 147 150 152 151 147 140 132 125 119 116 116 118 121 123 124 124 121 117 112 109 108 110 114 120 127 135 141 145 146 143 137 129 120 112 105 102 102 105 111 118 126 133 139 142 144 146 146 
137 138 138 136 130 120 109 99 90 86 88 94 105 119 132 142 146 145 139 131 122 115 111 110 111 113 116 118 119 121 122 124 127 131 135 138 138 137 134 130 125 121 119 118 118 119 121 123 126 129 133 137 143 149 153 156 156 153 148 141 135 129 127 127 128 131 133 133 131 125 118 110 104 101 101 105 113 123 134 143 151 154 153 148 141 131 123 116 113 113 117 122 128 134 137 138 138 137 136 136 
125 129 132 134 131 125 117 107 98 93 93 98 107 118 130 140 145 145 141 136 129 123 120 119 119 120 121 122 123 124 126 128 132 136 139 142 142 141 138 133 129 125 123 122 123 124 126 128 129 131 134 138 142 147 151 154 154 153 149 145 140 137 136 137 140 142 144 143 138 130 120 109 100 95 94 97 106 118 132 145 155 160 161 157 151 142 134 127 124 125 128 133 137 139 138 135 130 126 123 123 
113 120 127 132 134 132 126 117 109 103 102 105 112 122 132 141 146 147 145 141 136 131 128 126 125 125 126 126 127 128 129 132 135 139 142 144 144 142 138 134 130 127 125 125 127 129 131 133 135 136 137 138 140 142 144 146 146 146 144 142 141 141 143 146 149 152 153 151 145 134 122 108 97 90 88 91 100 113 129 144 156 164 166 163 157 150 142 137 134 135 138 141 142 141 136 129 121 114 110 110 
104 113 123 132 138 138 134 127 120 114 111 113 119 127 136 144 149 150 149 145 141 136 133 130 128 127 127 128 128 130 132 135 138 141 143 144 143 140 136 131 127 125 124 126 129 133 136 139 141 141 140 138 137 135 134 133 133 133 133 134 137 141 146 151 156 159 160 157 150 139 124 109 96 88 85 87 95 109 125 141 155 163 166 165 160 153 147 142 141 142 144 146 145 141 134 124 113 104 99 99 
99 109 121 132 140 143 140 135 128 122 119 121 126 133 141 148 153 154 152 148 143 138 133 129 126 125 125 126 127 130 133 137 140 142 143 142 140 136 131 126 122 121 121 124 129 134 140 144 146 146 143 139 133 127 122 118 117 117 119 123 129 137 145 153 159 163 164 161 154 142 126 110 97 87 83 85 92 105 120 136 150 158 162 161 156 151 146 143 142 144 147 149 147 141 131 119 107 97 92 93 
98 109 122 133 141 145 143 138 131 126 124 125 131 138 146 152 156 156 154 149 143 135 129 124 120 118 119 121 124 128 133 138 141 143 143 140 136 131 125 120 116 114 116 120 126 134 141 147 150 150 146 139 130 121 112 105 102 102 105 111 120 130 141 151 159 164 165 163 155 144 129 113 100 90 85 86 91 102 115 130 141 149 152 151 148 143 140 138 140 143 147 149 147 141 131 118 105 95 90 91 
101 112 124 135 142 144 142 136 130 125 124 126 132 140 148 154 157 157 153 147 139 130 122 115 111 109 111 114 119 126 132 138 141 143 142 138 133 126 119 114 110 108 110 115 122 131 140 147 152 152 148 140 129 117 105 97 92 91 94 101 111 124 136 147 156 161 163 161 154 144 131 117 105 95 90 89 93 101 111 122 132 137 139 138 134 131 129 130 134 139 145 148 147 142 132 119 107 98 93 95 
109 118 128 137 142 142 138 131 124 120 119 122 129 138 146 153 156 155 151 143 134 123 113 106 102 101 103 108 115 123 131 137 141 142 141 136 130 123 116 110 106 104 106 110 117 127 136 145 151 152 149 141 130 116 103 94 88 86 89 96 106 118 130 141 149 155 157 155 151 143 134 123 112 104 99 97 99 103 110 116 122 124 124 122 119 117 117 120 126 134 141 147 147 143 135 124 113 105 101 102 
119 127 135 140 142 139 132 124 117 112 111 115 123 133 142 149 153 152 148 139 129 117 107 99 95 94 97 103 112 121 130 136 140 141 139 135 128 122 115 110 106 104 104 107 113 121 131 140 146 149 148 142 132 119 107 97 90 88 90 96 104 114 124 133 140 145 147 147 145 141 136 129 122 116 111 108 108 109 111 113 114 113 111 108 105 104 105 110 118 128 138 145 147 145 139 130 121 115 112 113 
