P2
100 100
255
129 149 168 180 182 170 147 117 89 71 64 68 84 109 140 165 180 182 171 148 116 85 62 49 45 46 53 66 85 108 131 148 157 158 152 141 127 112 99 90 84 80 80 83 90 103 119 136 150 158 159 152 137 118 98 81 70 62 58 59 63 73 88 106 123 138 150 159 164 165 162 154 144 135 127 120 113 105 95 85 75 66 58 52 48 47 52 64 86 116 148 170 181 178 165 145 124 110 107 114 
161 176 187 191 184 165 134 100 72 56 50 54 69 94 126 155 173 178 169 147 117 87 66 54 50 53 61 73 90 109 126 138 142 141 135 127 120 115 112 110 108 105 101 97 95 96 102 111 123 134 142 146 144 137 126 114 102 91 82 74 70 70 74 81 91 102 115 129 144 157 167 171 172 170 165 159 149 134 114 93 73 58 48 42 39 39 45 57 79 110 141 165 178 179 171 158 145 138 139 148 
185 194 200 198 186 161 125 88 61 47 42 47 60 85 117 149 170 177 172 154 128 101 81 70 67 70 79 91 105 117 124 127 124 119 114 111 113 119 127 135 139 138 131 120 106 95 89 89 95 107 121 136 148 155 155 151 142 130 115 99 84 72 66 65 67 74 84 101 123 147 168 183 191 194 194 189 179 161 136 106 78 58 46 40 38 40 47 61 82 110 139 160 171 172 168 161 155 156 162 173 
197 205 207 202 187 159 120 82 56 43 40 45 59 83 116 149 171 181 178 165 145 123 106 97 96 100 109 119 126 129 125 116 106 97 92 93 103 120 140 158 168 169 162 146 123 99 81 72 73 82 99 123 147 167 178 181 177 167 150 127 101 79 64 56 53 55 64 81 106 138 167 189 202 208 210 207 198 181 154 120 88 64 51 45 45 49 59 74 95 118 139 153 158 157 152 149 151 158 171 185 
200 208 210 204 188 158 118 80 56 44 42 48 64 90 123 154 176 185 185 176 162 147 136 131 132 138 145 150 151 143 128 108 89 77 72 76 91 116 147 173 188 193 186 169 141 108 79 62 57 63 81 109 142 172 191 200 201 193 176 150 118 87 65 52 46 46 53 70 97 132 165 190 206 213 216 214 206 191 165 132 99 75 62 58 61 69 82 99 116 132 141 143 139 132 126 125 132 146 166 185 
196 207 210 204 187 156 117 81 58 48 48 57 75 103 135 163 181 188 188 182 174 165 161 161 165 171 176 177 171 155 130 101 77 62 56 62 79 109 147 180 200 207 203 186 157 118 82 58 49 51 67 96 135 172 197 209 212 206 191 164 128 93 67 52 45 45 51 67 94 129 163 189 204 212 215 213 206 192 169 140 111 90 81 81 88 101 116 131 143 148 144 133 118 104 95 95 105 124 150 176 
187 202 206 200 183 153 116 83 63 56 59 72 93 121 149 170 183 186 184 179 174 171 172 177 185 192 196 194 185 164 132 96 68 51 45 50 68 100 142 180 204 214 212 198 170 129 88 59 45 45 59 87 128 169 197 211 215 210 195 167 131 95 69 54 49 50 58 74 100 132 162 184 198 204 206 203 196 184 165 142 121 108 105 112 124 140 154 165 168 163 146 122 98 79 69 68 78 99 129 162 
175 194 199 194 176 146 113 85 70 67 75 92 116 141 162 174 178 176 170 163 160 162 169 179 191 200 205 203 192 170 134 94 63 45 39 43 59 90 134 175 203 215 216 205 180 141 97 63 46 44 56 83 123 164 194 208 212 206 189 161 127 94 72 61 58 63 73 90 113 138 160 176 185 188 187 184 176 165 151 137 127 124 131 144 159 174 185 190 187 174 148 114 83 61 51 49 58 78 109 145 
163 184 190 183 164 136 107 86 77 81 95 116 139 158 169 171 165 155 143 135 132 138 150 168 185 198 205 205 196 173 137 96 63 44 36 39 53 82 125 169 199 214 217 209 188 152 108 73 52 48 58 83 121 160 188 202 203 194 175 147 116 90 76 72 76 85 99 115 132 147 158 164 164 161 157 152 145 138 130 126 127 136 151 168 185 197 205 206 199 180 148 108 73 51 40 39 46 64 93 130 
154 174 179 169 149 123 99 86 85 96 116 139 158 169 170 161 144 126 110 100 98 105 122 145 169 189 200 203 196 176 142 102 69 48 39 40 52 78 119 162 194 211 216 210 193 162 122 86 64 58 66 89 124 158 181 191 188 175 152 126 102 86 82 88 101 117 132 145 154 158 156 148 138 128 120 114 110 107 107 112 124 142 163 183 199 209 214 214 204 183 147 103 67 46 36 35 42 58 86 122 
150 167 168 155 132 108 91 86 94 112 136 158 172 175 165 145 119 95 78 68 67 75 92 118 147 173 191 198 194 178 150 114 81 59 48 47 57 80 115 155 187 205 211 208 195 170 137 104 82 75 82 102 130 157 173 176 167 148 125 102 87 83 90 107 129 150 165 173 174 167 153 133 113 97 87 82 80 82 88 99 118 142 167 189 204 214 218 216 205 182 145 100 65 44 35 35 43 59 87 121 
152 163 158 141 117 96 85 87 102 127 153 173 181 175 156 127 96 71 55 48 47 54 70 94 125 155 177 189 190 181 160 132 103 80 67 64 70 88 116 149 177 194 202 202 193 174 149 122 104 98 104 120 140 156 163 158 142 120 97 81 75 80 99 126 155 177 190 194 189 174 151 122 95 77 66 63 63 68 77 91 112 138 165 187 203 213 217 214 203 180 141 98 64 45 38 39 48 67 95 127 
159 163 151 129 104 86 81 89 111 140 167 183 186 174 147 111 78 55 42 37 38 44 57 78 106 136 161 177 184 181 170 151 131 112 99 92 93 103 121 142 162 177 185 187 182 171 155 139 127 123 128 138 150 156 153 139 118 95 76 66 66 79 106 140 173 194 205 206 198 179 151 117 88 68 59 57 59 65 74 88 107 131 156 178 195 206 210 209 198 174 137 96 64 47 42 46 59 81 111 140 
168 164 147 121 95 80 79 93 120 152 178 190 189 172 140 101 68 47 36 33 35 42 53 71 95 121 145 162 173 177 175 169 158 147 137 129 123 122 126 133 142 151 158 162 162 160 154 148 144 144 148 154 157 155 143 123 99 77 63 57 62 79 110 148 181 202 211 211 201 182 153 119 90 71 63 63 67 72 80 89 103 121 141 162 179 192 198 198 188 165 130 93 66 51 49 56 73 100 130 155 
175 165 143 114 89 76 79 98 129 162 186 196 191 171 137 96 64 45 37 36 40 48 59 74 92 111 129 144 156 166 174 178 179 176 171 163 153 141 130 122 118 119 122 127 133 139 145 149 153 158 161 163 160 151 135 112 89 69 58 54 61 79 110 148 180 200 209 208 199 181 154 125 100 85 79 81 85 89 92 95 100 109 122 138 154 169 179 181 173 153 123 91 68 57 58 69 91 120 149 169 
179 164 137 106 83 74 80 101 135 168 191 199 193 172 137 97 67 49 44 46 53 63 75 86 96 105 114 123 134 148 164 178 188 194 193 187 173 153 129 108 93 87 87 93 102 115 130 143 154 162 165 164 158 146 128 107 87 71 61 59 65 81 108 141 170 189 198 198 190 175 154 132 115 106 105 108 112 112 109 103 97 96 100 110 124 139 152 159 155 141 117 92 73 66 70 85 110 140 165 179 
178 159 129 98 77 70 78 102 136 170 192 200 194 174 141 104 76 61 58 64 76 89 100 106 107 104 100 101 108 123 145 168 188 200 204 199 184 158 125 94 73 63 61 66 77 94 115 135 150 159 161 158 150 138 124 108 93 82 74 72 75 86 105 129 151 167 175 176 171 161 149 139 132 132 136 140 142 138 126 110 95 84 81 85 95 110 125 137 139 131 115 97 83 79 85 103 128 155 175 183 
174 151 120 90 71 66 75 98 132 166 188 197 192 175 146 115 91 81 83 94 110 125 133 132 121 104 89 81 83 96 120 151 179 199 206 203 187 156 117 82 59 48 45 50 62 81 105 128 144 152 152 146 138 129 121 114 108 103 98 95 94 97 104 114 126 135 141 143 142 140 139 141 147 155 163 168 167 158 139 115 92 75 67 67 74 87 105 121 130 129 121 108 98 96 104 122 145 167 181 184 
169 143 111 82 65 61 69 90 121 154 177 188 186 172 151 127 111 107 115 130 148 160 164 155 133 105 80 66 63 72 96 130 165 191 203 201 183 149 107 71 49 39 38 44 58 79 104 127 141 145 140 131 123 118 119 123 128 131 131 127 121 114 107 102 100 101 102 104 108 115 126 141 157 171 182 186 183 169 145 114 87 68 58 56 63 76 96 116 131 137 134 127 120 119 126 140 158 174 183 182 
165 138 106 78 61 56 62 79 105 134 158 171 172 164 151 138 131 134 147 163 179 187 186 170 140 104 73 54 48 55 76 110 150 181 196 195 176 140 98 64 44 36 37 46 63 87 113 134 143 141 129 116 107 107 116 131 148 159 164 161 151 134 114 95 81 74 71 73 80 93 113 138 163 182 193 195 189 171 142 109 80 62 53 52 60 76 98 123 142 152 153 148 143 142 146 157 169 180 185 180 
165 139 107 79 61 54 56 68 87 110 131 145 151 150 146 143 146 156 171 186 198 203 197 177 142 100 66 47 40 45 63 95 136 171 189 187 167 130 89 59 42 37 42 56 78 106 132 149 151 140 121 102 92 95 111 136 162 181 189 188 177 155 125 94 71 57 52 53 61 78 105 138 167 187 197 198 187 166 134 100 73 57 51 53 64 83 110 137 158 169 172 168 163 161 163 169 177 184 186 181 
171 147 116 87 67 56 54 59 71 86 103 117 126 132 137 144 155 170 185 199 207 208 200 177 139 95 61 42 36 40 57 88 129 164 183 181 160 123 84 57 44 44 54 74 103 133 157 168 163 143 115 91 79 83 103 135 168 193 205 205 195 172 136 98 67 49 42 43 53 72 103 140 171 191 198 195 180 154 120 88 66 54 51 57 72 97 127 155 174 184 185 181 176 172 171 175 182 187 189 184 
179 160 133 104 79 63 55 55 60 69 81 92 104 115 127 142 158 176 191 203 209 208 197 171 132 90 59 41 36 42 59 91 130 163 180 177 155 119 83 60 51 56 73 101 135 164 182 186 175 148 113 83 68 71 92 128 167 197 212 215 206 184 148 104 69 48 39 41 52 74 107 145 176 193 197 189 169 139 105 77 60 52 54 64 84 113 144 169 185 191 190 184 177 171 170 174 180 187 191 189 
189 176 154 126 99 77 63 57 56 61 68 78 90 104 121 140 159 177 192 202 206 202 189 162 125 86 59 45 42 51 71 103 140 169 182 176 154 119 86 66 62 74 99 133 166 190 202 201 185 153 112 77 60 61 80 116 159 194 213 218 212 192 157 112 73 50 41 43 56 81 116 153 180 193 192 179 155 122 91 68 56 53 59 74 99 129 157 178 188 189 184 174 164 158 156 161 171 182 190 193 
196 189 174 151 124 97 78 66 61 62 67 76 88 103 122 141 160 176 188 195 197 191 176 150 117 85 64 54 56 69 92 124 156 179 186 178 154 121 91 76 77 96 128 163 192 209 215 211 192 157 112 73 53 52 68 102 146 185 209 218 214 197 164 120 80 55 46 49 64 91 128 162 184 191 185 167 138 106 79 62 55 58 68 88 114 142 165 178 181 176 164 151 138 130 130 138 152 169 184 193 
197 198 190 173 149 122 98 82 74 73 77 86 99 114 130 146 160 171 178 182 180 172 157 135 109 87 74 72 80 97 122 151 175 189 191 179 154 122 96 85 92 116 151 185 208 220 223 216 197 160 112 71 48 44 56 86 129 172 201 214 213 199 169 127 87 62 53 57 74 104 139 168 184 186 175 152 122 93 72 61 60 67 82 104 129 152 166 170 164 151 134 116 103 96 96 106 124 147 170 188 
192 199 197 186 168 144 121 103 94 93 99 109 121 134 145 155 161 164 164 161 155 146 132 116 101 91 89 96 111 132 155 177 192 198 194 178 150 119 96 89 101 129 165 196 216 225 226 219 199 161 112 69 45 39 47 71 111 156 190 207 210 198 171 133 95 70 61 67 86 115 147 171 181 177 161 136 108 85 71 67 71 84 103 124 145 159 163 156 140 119 99 81 70 64 66 75 94 120 149 175 
179 193 196 191 177 159 139 125 119 120 128 138 149 157 163 164 160 153 143 133 123 114 105 97 93 96 107 124 144 165 183 196 203 202 192 171 141 111 90 86 101 131 167 198 217 226 227 219 199 162 112 69 44 36 41 60 95 139 176 198 203 194 170 136 101 78 71 78 97 124 150 168 172 164 145 121 99 83 77 80 92 109 128 147 160 165 158 141 116 91 70 55 46 43 45 52 68 92 123 155 
159 178 186 185 175 162 149 140 139 145 155 166 174 179 178 171 158 140 121 104 92 84 80 80 86 101 123 148 171 189 201 207 208 201 185 158 126 96 79 77 91 121 157 189 210 221 223 216 197 162 114 71 45 35 37 53 82 123 162 186 195 188 167 136 105 85 79 87 105 128 148 159 158 147 129 110 95 89 92 103 120 139 156 169 175 171 155 129 98 71 52 40 34 31 33 38 49 69 97 130 
135 157 167 168 161 152 145 144 150 161 174 185 192 193 188 175 153 126 100 80 68 62 61 66 80 103 134 164 187 202 210 212 207 195 172 140 106 79 65 64 76 101 136 170 195 210 215 210 193 160 116 75 49 38 39 51 76 113 150 175 184 179 160 133 107 90 86 93 109 127 141 146 142 130 116 104 99 103 114 131 150 167 180 187 187 177 156 125 91 63 45 34 29 27 27 31 40 54 77 106 
114 133 142 142 137 131 129 135 148 165 182 194 201 201 192 174 146 113 84 63 52 48 49 57 75 104 139 172 195 208 213 211 202 183 154 119 86 64 52 51 60 79 108 141 170 190 200 199 186 158 119 83 58 46 46 56 78 110 143 166 175 169 152 128 106 93 90 97 109 123 131 132 126 117 108 105 110 122 140 159 176 189 197 199 195 183 161 129 95 67 48 37 31 29 29 31 38 49 67 90 
102 114 118 116 110 105 107 116 135 157 179 194 202 201 192 171 139 103 73 54 43 40 43 52 72 103 142 175 198 209 211 205 191 166 132 97 69 52 43 42 47 60 81 108 136 160 176 181 174 154 125 95 73 62 62 71 91 118 144 162 167 160 143 122 103 93 92 98 108 117 121 120 115 109 108 113 126 144 164 181 194 202 205 205 199 188 168 140 110 82 63 50 43 39 38 40 45 54 67 85 
103 107 104 96 88 83 84 95 115 140 165 184 195 195 185 163 131 96 68 50 41 38 42 52 73 105 143 175 196 205 205 195 176 146 111 79 57 44 38 37 40 47 61 80 103 127 146 157 158 149 131 111 96 88 88 97 114 134 152 162 162 152 134 114 99 92 92 98 105 112 115 113 111 110 115 127 144 163 181 194 202 206 206 203 197 188 174 154 131 109 91 78 69 63 60 61 65 72 82 93 
118 113 102 89 76 69 68 76 93 118 144 165 178 181 173 153 124 93 68 53 45 43 47 58 79 110 145 175 192 199 195 181 156 124 92 66 50 41 37 37 39 43 51 62 79 97 116 131 140 142 137 130 123 121 124 132 143 156 165 167 160 145 126 108 95 89 91 97 104 110 113 113 113 117 127 142 160 177 190 198 201 200 196 191 186 180 174 165 155 142 130 119 110 104 99 98 100 105 111 116 
142 130 113 93 76 65 60 64 76 95 117 138 153 159 155 141 119 96 76 63 57 56 60 72 92 120 150 174 186 188 180 161 134 103 76 58 47 43 42 43 45 48 52 58 68 80 95 110 123 133 141 145 149 152 158 164 171 176 177 172 159 140 119 102 91 87 90 97 105 111 115 117 121 128 139 154 170 182 189 191 188 181 173 166 162 161 164 168 171 171 168 163 158 152 148 145 145 146 147 147 
166 152 132 108 87 71 62 60 65 77 92 109 123 132 134 129 118 105 93 85 81 81 86 97 114 136 157 172 178 174 160 138 111 85 66 55 50 51 54 58 62 64 67 69 72 77 85 96 109 124 139 153 165 174 181 186 189 189 185 175 158 136 114 97 88 87 91 99 108 116 121 125 130 138 149 161 172 177 178 172 161 148 136 127 125 131 144 161 177 189 194 195 194 190 187 184 181 180 178 174 
182 170 152 130 107 87 72 64 62 66 74 84 96 106 115 120 122 121 119 117 116 117 121 129 140 153 164 169 166 155 137 114 91 72 61 57 59 66 76 85 93 96 97 94 90 86 86 89 99 113 132 151 169 182 191 197 198 195 187 174 154 131 110 95 88 89 95 104 114 122 128 133 138 144 152 160 164 163 155 142 125 107 93 86 86 96 117 145 173 194 207 212 213 211 208 204 201 198 194 190 
188 181 169 152 132 111 92 77 68 63 64 68 76 87 101 116 130 141 149 153 155 156 158 161 165 167 168 163 151 134 113 92 75 64 60 64 75 91 109 125 135 140 138 131 119 106 95 89 91 101 119 140 162 179 190 196 196 192 183 167 147 125 106 95 91 95 103 113 122 129 134 137 140 144 148 150 147 139 125 107 88 72 60 54 56 67 90 125 162 191 209 217 219 218 214 209 203 199 195 192 
181 181 178 171 157 139 119 99 81 69 62 60 65 75 93 116 140 160 174 181 185 186 185 183 180 175 166 153 134 114 93 76 64 60 64 76 97 122 146 165 176 180 177 167 151 130 108 92 86 90 103 123 145 164 178 184 185 180 169 154 136 118 105 99 100 106 116 125 133 137 138 137 137 136 135 132 125 113 96 78 62 48 40 36 38 49 71 106 148 183 204 214 216 213 206 198 190 184 180 180 
162 172 180 182 177 166 148 126 102 81 67 60 61 71 91 119 149 174 190 199 202 202 199 193 185 174 159 139 118 96 78 66 60 61 72 92 120 151 176 194 203 206 203 193 175 149 120 96 83 81 89 105 124 143 156 163 163 157 147 134 121 111 106 107 114 123 133 141 144 144 139 133 127 122 118 112 103 91 75 60 47 37 31 29 31 40 59 92 133 170 193 203 203 196 185 171 159 151 149 154 
135 156 174 187 190 186 173 152 126 99 77 65 63 72 92 123 156 182 199 207 209 207 201 193 181 165 146 125 104 85 71 63 61 68 84 110 142 173 196 210 217 219 215 205 187 160 128 100 82 76 79 91 106 120 130 134 133 127 119 111 105 104 109 119 132 144 153 157 156 149 138 126 115 107 100 95 87 77 66 54 44 36 31 29 31 39 56 85 122 156 177 184 179 166 149 131 116 108 109 118 
106 135 165 186 197 198 191 174 149 119 93 75 70 76 96 127 159 185 200 206 207 202 194 182 167 150 131 112 95 82 73 68 70 80 100 128 160 187 205 216 221 221 217 207 188 161 130 102 84 77 79 86 96 104 108 107 103 97 91 89 91 100 115 134 151 165 172 173 166 153 135 117 102 92 87 83 80 75 68 59 51 44 39 37 39 47 62 87 117 144 158 158 147 128 107 88 76 70 72 84 
85 118 154 182 199 205 202 189 168 139 110 88 79 83 101 128 158 181 194 198 196 188 176 161 146 130 116 105 95 88 84 83 88 100 120 146 173 194 208 216 218 216 210 198 180 154 127 104 91 87 89 95 99 100 96 88 80 74 70 72 80 97 122 148 169 182 187 185 174 155 131 108 90 81 78 80 82 84 82 77 71 64 59 57 59 66 79 99 120 135 139 131 114 92 73 58 49 46 49 61 
73 106 145 178 198 207 206 198 180 154 126 102 89 90 104 126 150 169 179 180 174 163 148 134 121 112 107 105 104 104 105 108 113 124 141 161 180 195 205 209 208 203 194 180 161 139 120 108 104 107 112 117 116 109 96 81 68 59 56 60 73 96 128 159 182 195 199 193 179 156 127 100 82 75 76 84 94 103 109 109 105 99 94 91 92 98 108 120 130 133 126 109 88 68 52 42 36 35 39 51 
70 101 139 172 194 204 206 200 186 164 137 113 99 96 104 119 137 150 155 153 143 130 116 105 99 99 105 113 122 129 134 138 142 149 160 172 183 191 195 194 189 179 166 150 133 119 112 113 121 133 143 148 144 130 108 84 64 52 49 53 68 96 132 167 191 203 205 199 182 155 123 94 77 73 79 94 113 130 142 147 147 143 138 135 134 137 141 145 145 136 119 97 74 56 44 36 33 34 38 49 
74 101 135 165 186 197 200 196 184 166 143 120 105 99 101 109 119 125 126 120 110 98 88 84 86 95 111 128 144 155 161 164 166 168 171 175 179 180 178 171 160 145 129 113 102 98 104 119 141 161 174 179 173 155 126 93 66 50 45 49 65 95 135 172 197 208 209 200 181 152 118 90 75 75 87 108 134 157 172 179 181 179 176 173 171 170 169 166 158 141 118 92 70 54 44 39 38 40 45 55 
84 105 130 154 172 183 186 184 175 160 141 122 107 99 96 98 101 101 98 91 82 75 71 73 83 101 124 147 165 176 181 182 179 176 173 170 167 162 153 141 125 107 92 80 76 81 98 126 157 183 197 202 196 177 145 105 71 51 43 47 63 94 135 174 198 209 209 199 178 147 114 88 76 79 96 123 152 176 191 198 200 199 197 194 191 188 184 177 164 144 119 93 73 59 53 50 51 54 60 69 
98 110 124 139 151 160 164 163 158 148 134 119 106 97 92 89 87 83 78 72 66 63 64 72 89 113 140 164 180 189 191 187 181 172 164 156 148 139 126 111 94 77 65 58 58 70 95 131 169 197 212 217 211 193 160 117 78 53 43 46 62 93 135 173 197 207 206 194 172 140 109 86 79 86 107 135 164 185 198 204 205 203 200 197 194 191 186 178 164 144 121 99 82 73 70 71 75 79 84 90 
115 115 116 120 124 129 133 136 135 131 124 115 105 96 89 84 78 73 68 63 60 61 67 81 103 130 157 177 189 192 189 181 169 156 144 134 125 115 103 89 74 60 51 46 50 64 93 134 176 205 220 224 219 202 171 126 83 56 44 47 63 93 134 171 193 202 199 185 161 131 103 87 84 95 118 145 170 187 195 197 196 192 188 185 182 180 176 169 157 142 124 108 98 95 97 102 108 113 116 116 
130 117 106 99 97 99 103 108 113 116 116 113 107 99 92 84 77 71 66 63 63 68 79 97 122 148 170 185 190 187 177 162 146 130 118 110 104 98 90 80 67 56 47 43 46 61 90 133 176 206 222 226 222 206 175 132 88 60 48 50 67 97 135 168 188 193 187 171 147 120 99 89 92 107 129 152 171 181 183 180 174 167 162 159 157 157 156 153 147 137 128 120 118 121 129 138 146 150 149 142 
140 116 96 82 76 76 80 89 99 108 114 116 114 108 100 92 84 77 73 72 75 83 97 118 142 164 179 186 183 172 155 134 115 100 91 88 89 91 90 84 74 62 51 46 47 60 87 128 171 202 218 223 219 204 174 133 92 65 54 58 76 105 138 166 180 181 171 152 129 109 96 94 103 121 141 158 168 169 163 152 141 131 125 123 125 129 134 136 137 135 133 133 138 147 158 168 175 177 173 160 
143 113 87 71 63 63 69 80 94 109 121 127 128 123 116 107 98 91 88 88 93 103 119 139 159 174 182 181 170 151 127 103 85 74 71 74 83 94 101 101 92 79 65 54 52 60 82 118 158 190 208 215 210 195 167 129 94 72 65 73 92 119 146 165 171 165 150 130 111 99 95 103 118 137 153 162 162 153 138 120 105 95 90 91 97 106 116 125 131 135 140 146 154 166 177 187 193 193 186 169 
142 109 81 64 57 58 67 82 101 121 136 145 147 144 136 127 119 112 108 109 115 125 140 157 171 179 180 171 153 127 99 77 63 56 59 69 86 106 122 128 122 106 86 69 59 61 75 103 138 169 189 197 193 178 152 121 95 81 81 94 114 138 157 165 162 148 128 109 95 91 98 114 134 153 165 167 158 139 115 93 77 69 67 71 81 94 109 122 132 140 147 155 165 177 188 196 201 200 191 172 
139 105 78 62 57 62 74 94 118 140 156 165 167 164 157 149 140 133 130 130 135 143 155 167 176 179 174 160 136 106 79 60 50 48 54 70 96 125 149 159 155 139 114 89 71 64 70 88 114 141 159 167 164 150 130 109 95 92 102 120 141 159 168 166 153 131 108 91 83 88 103 127 151 168 176 171 155 129 100 77 62 57 58 66 79 95 112 127 137 145 151 159 169 180 191 199 202 200 190 170 
134 101 76 63 62 71 89 114 140 161 175 182 183 180 173 165 157 150 145 144 147 153 161 169 175 175 167 150 123 94 69 52 45 45 56 77 110 145 172 185 184 169 143 112 86 70 67 75 91 109 124 130 128 118 105 96 95 104 123 146 165 177 177 166 143 116 92 78 76 87 110 139 165 181 185 176 154 124 93 71 58 55 60 71 86 105 122 135 143 147 151 157 166 177 188 196 200 197 186 165 
128 98 76 67 70 84 107 135 161 180 190 194 193 188 181 172 163 155 150 147 148 152 158 165 169 169 161 144 119 91 67 52 46 48 61 87 123 161 189 202 202 190 166 134 102 79 68 68 75 85 94 97 94 89 84 85 95 115 142 166 183 189 182 163 133 102 79 68 71 88 116 149 175 189 190 179 155 124 93 72 62 62 69 83 100 117 131 140 142 142 142 146 155 167 180 190 195 192 181 159 
122 94 76 71 78 97 124 154 178 193 200 201 197 190 180 169 159 149 142 138 137 140 147 154 161 163 158 144 123 97 75 59 53 55 69 97 135 172 197 210 210 201 181 151 118 91 76 70 71 74 77 76 73 70 70 78 96 123 154 179 193 194 181 155 121 90 69 62 69 89 121 155 181 193 193 180 156 126 97 79 71 73 83 97 113 126 134 136 132 127 124 127 138 153 169 182 188 186 174 151 
114 89 75 73 83 106 136 167 188 200 204 202 195 184 170 156 142 131 123 119 118 122 130 141 152 159 159 151 134 112 90 73 64 65 79 105 142 176 199 210 212 204 187 161 132 106 89 81 79 78 76 72 66 63 65 75 97 128 161 184 195 192 174 144 108 78 61 57 66 89 122 157 181 192 191 178 155 127 103 88 83 88 98 110 121 128 128 122 113 105 101 105 118 137 158 174 182 180 166 143 
105 82 71 71 83 108 141 171 192 202 203 198 186 170 151 133 118 106 99 96 97 103 114 129 145 158 164 162 151 133 111 92 79 77 87 110 142 172 194 204 206 200 186 166 143 122 109 102 99 96 90 81 72 66 67 77 99 130 161 183 190 183 162 128 94 68 55 54 64 88 120 153 176 186 183 170 149 126 107 97 96 102 110 118 122 120 113 102 90 82 79 85 101 124 149 168 177 174 159 133 
95 74 64 65 78 103 136 167 189 198 198 189 172 150 127 106 91 82 77 76 79 88 102 122 143 161 172 174 168 154 133 111 94 87 92 109 135 161 181 191 193 188 178 163 149 137 131 129 128 124 116 103 89 78 75 83 102 131 159 177 181 171 145 112 80 59 50 51 63 85 115 145 165 172 168 155 138 120 109 105 107 113 119 120 116 107 94 81 70 63 64 73 92 119 147 167 175 170 151 123 
85 65 56 58 70 93 125 157 180 191 189 177 155 128 102 82 69 63 60 62 68 79 98 122 146 167 180 185 182 170 150 126 105 93 92 102 121 142 159 170 172 169 162 155 149 148 151 155 158 156 147 132 113 97 89 92 107 131 154 169 170 156 130 98 71 54 49 52 64 85 110 134 149 153 147 135 122 112 108 111 117 123 125 120 109 94 78 65 56 53 58 71 94 124 153 171 177 168 145 114 
76 57 49 50 60 81 111 144 169 181 179 164 138 108 82 65 55 51 51 55 64 79 101 128 154 175 187 192 189 177 157 132 108 92 87 92 104 120 134 143 146 145 142 141 145 153 164 174 181 181 174 159 138 118 105 103 114 133 151 162 160 145 119 91 68 55 52 57 70 88 108 124 132 130 123 112 104 102 106 115 125 131 130 120 104 85 68 57 51 53 62 81 108 139 165 180 181 168 140 106 
69 51 43 43 51 70 98 131 158 172 170 153 126 95 70 55 47 45 47 54 66 86 111 140 165 183 192 195 190 177 155 129 104 87 80 81 89 100 111 118 121 121 122 127 138 153 170 184 193 195 189 175 155 134 119 114 122 136 151 159 156 142 119 94 75 65 65 71 83 98 111 118 117 110 100 92 89 93 105 120 134 141 138 125 105 84 68 59 57 63 78 102 132 161 182 191 188 169 137 100 
64 46 39 39 46 63 89 122 151 166 165 148 120 90 66 51 45 44 48 58 75 98 127 154 176 189 195 193 184 167 144 117 95 80 73 74 80 89 97 103 105 106 109 117 131 150 169 185 195 197 192 179 161 141 126 122 128 142 155 162 160 148 129 109 94 87 88 95 106 116 121 119 109 96 84 78 79 89 106 127 144 152 149 135 115 94 78 71 74 85 106 133 160 183 197 201 193 171 135 95 
61 44 37 38 45 62 88 121 150 166 166 150 123 93 68 53 47 48 54 67 88 115 144 168 185 193 193 186 172 151 126 102 84 73 70 74 81 90 98 102 103 104 106 113 126 145 164 179 187 189 183 171 153 136 125 124 133 148 161 169 169 161 148 133 123 119 122 129 137 141 138 126 108 90 76 70 75 89 111 136 155 164 162 150 131 112 99 95 102 117 140 164 186 201 209 208 196 171 133 92 
61 45 39 41 50 68 96 128 156 171 172 158 132 102 77 61 54 56 65 82 106 135 161 180 190 192 187 174 154 129 105 86 74 70 73 81 92 103 112 116 115 113 113 116 126 139 153 165 171 170 162 149 134 121 116 121 135 153 168 178 180 176 169 160 155 154 158 163 167 166 157 138 113 90 74 69 76 94 120 147 167 176 175 165 150 135 126 125 134 151 170 189 203 212 214 210 196 168 129 90 
63 50 46 50 62 83 112 143 167 180 180 169 146 117 92 74 67 69 81 101 127 154 175 188 192 188 176 156 131 107 86 73 69 72 81 96 113 127 136 139 137 132 127 125 128 134 140 145 146 141 132 120 108 101 103 114 134 156 174 185 190 189 185 181 179 181 184 188 189 185 172 150 122 96 79 75 83 104 131 158 176 185 184 177 165 154 148 150 160 175 190 202 211 215 214 206 190 161 124 88 
68 60 60 68 84 107 134 161 180 189 189 179 159 134 110 92 85 88 101 123 147 170 185 192 190 179 160 135 108 86 71 65 68 78 96 118 139 154 162 164 160 152 143 136 131 128 127 124 119 110 100 90 83 81 88 105 130 156 177 189 194 195 193 192 192 195 198 201 201 196 182 160 131 105 88 85 96 118 144 168 183 189 188 180 171 162 159 162 171 183 195 203 208 209 205 195 176 149 116 87 
78 77 83 96 114 137 159 178 190 196 194 186 170 149 128 112 106 110 124 144 165 181 190 192 184 167 141 113 87 70 61 61 70 89 114 141 163 178 184 183 178 168 156 144 133 123 115 106 96 86 76 68 64 66 76 96 124 152 174 187 192 193 191 190 192 195 199 202 203 198 185 165 139 116 102 101 113 133 157 175 186 188 183 174 164 156 153 157 165 175 184 190 193 191 184 172 154 131 107 88 
93 101 114 130 148 165 180 191 197 198 195 187 174 158 141 129 125 131 144 161 177 188 192 189 175 152 122 93 71 59 55 60 75 100 131 161 182 193 197 194 187 176 162 147 132 119 106 94 82 71 62 56 54 58 69 89 116 144 166 178 181 180 177 175 177 181 187 192 193 190 180 164 143 126 116 119 131 149 166 178 183 179 170 157 144 135 132 135 142 151 158 162 162 158 151 139 125 110 98 91 
110 126 144 161 175 185 193 197 198 195 190 182 171 158 145 137 137 144 157 171 184 191 192 184 166 138 106 78 60 52 52 61 80 110 145 174 193 202 202 197 188 174 159 143 128 114 101 89 76 66 57 52 51 55 66 84 109 134 152 160 160 155 149 145 147 152 159 167 171 171 165 154 142 132 130 135 147 161 173 177 174 163 148 130 115 105 102 103 108 115 120 123 122 117 111 103 96 91 91 97 
126 148 167 181 190 195 196 195 192 186 179 170 160 149 140 136 138 147 160 174 185 190 189 178 157 126 94 68 53 47 50 61 83 115 152 181 197 204 202 194 181 165 148 132 119 109 99 89 79 69 60 55 54 57 67 83 104 123 135 137 131 122 112 107 107 112 120 129 136 140 140 137 134 134 139 149 160 170 174 171 159 141 120 101 86 77 73 74 78 82 85 86 85 82 78 75 75 78 88 104 
137 160 178 189 194 194 191 185 178 169 160 150 141 132 126 125 130 140 154 168 180 186 185 174 151 120 88 64 50 45 48 60 83 116 153 181 197 201 197 185 168 148 130 117 108 103 100 95 88 79 71 65 63 66 75 88 103 116 120 116 104 91 80 73 72 75 82 91 99 106 111 116 123 132 145 157 168 173 171 160 141 117 94 75 63 57 55 56 59 62 64 65 64 62 61 62 65 74 90 111 
141 162 176 183 185 181 175 167 157 147 136 127 118 111 107 107 113 124 139 155 170 179 180 171 151 121 89 65 50 45 47 58 79 112 148 176 192 195 188 173 151 129 111 100 97 99 102 104 102 97 90 84 81 82 89 99 110 115 113 103 87 71 59 52 50 51 56 62 69 77 86 97 111 128 146 162 171 173 164 146 122 95 74 59 50 47 47 50 54 57 60 61 61 61 61 63 68 79 96 118 
138 153 161 165 163 158 150 141 132 123 114 105 98 92 88 88 92 102 117 136 155 169 175 171 155 129 98 72 55 47 47 56 75 104 139 168 184 187 179 160 135 111 93 86 88 96 107 117 121 120 115 109 105 105 110 117 123 124 117 102 83 66 53 45 41 41 43 47 52 59 69 83 101 124 146 163 171 169 155 132 105 80 61 51 46 47 51 56 63 69 74 76 77 77 77 79 84 92 105 121 
129 134 136 136 132 127 121 115 110 105 99 93 86 79 74 72 74 81 94 113 136 157 170 173 164 143 115 87 66 53 49 54 69 95 128 158 176 180 171 151 124 99 83 77 82 96 113 130 140 144 142 137 132 131 133 138 141 139 130 114 94 75 60 50 44 41 41 43 46 52 61 75 96 121 145 162 168 163 145 120 92 70 56 50 51 56 65 76 88 98 105 109 110 110 109 109 109 112 117 123 
116 112 107 103 100 97 96 97 98 98 96 92 84 75 67 62 61 64 74 92 116 144 166 177 176 162 138 110 84 65 55 55 66 87 117 147 168 174 167 148 121 96 80 75 82 98 120 141 156 163 163 159 155 153 153 156 158 156 149 135 117 98 81 68 59 53 50 48 49 53 61 75 96 121 145 160 165 156 137 110 85 67 58 58 64 76 93 110 126 139 147 151 152 151 148 144 140 134 128 122 
103 91 82 77 76 77 83 90 99 106 107 103 94 81 68 58 53 53 59 75 100 131 161 181 187 181 164 138 108 83 66 59 64 81 108 138 161 171 168 151 127 102 85 80 86 104 127 150 166 175 176 173 168 165 164 166 169 170 167 159 147 131 116 101 89 78 70 64 61 62 68 81 101 125 146 160 161 151 130 105 83 70 66 72 86 107 129 150 166 177 184 187 187 185 181 174 165 152 135 118 
92 76 66 62 63 70 81 97 113 125 130 126 113 95 76 60 50 47 50 62 86 121 157 183 196 197 186 166 137 106 81 68 66 78 101 131 156 171 171 159 138 115 97 90 95 112 134 156 172 180 181 177 171 165 163 166 170 176 179 179 174 166 155 143 130 116 103 91 83 79 82 93 111 132 150 160 160 148 127 104 86 77 80 93 115 140 164 183 196 203 207 208 206 204 199 191 179 161 138 113 
85 68 60 57 62 73 90 112 134 150 157 154 140 117 91 69 53 45 45 55 77 112 152 184 203 208 203 188 164 132 101 79 71 78 97 125 152 171 176 169 152 131 113 105 108 121 141 160 174 180 179 172 163 155 151 154 161 171 181 188 191 191 187 179 169 156 141 126 112 104 103 111 125 142 156 163 160 148 128 107 93 89 97 116 142 168 189 203 211 215 216 215 212 208 203 194 181 161 136 108 
84 69 62 62 69 84 107 133 157 174 182 179 166 143 113 83 61 48 44 51 70 105 147 183 205 214 214 204 184 155 121 93 78 79 94 119 147 169 178 176 164 146 129 119 120 130 147 163 173 176 172 162 148 136 130 132 141 156 172 186 197 202 204 202 196 186 173 157 142 130 125 129 140 153 163 167 163 150 132 114 102 101 113 134 160 184 200 210 214 215 213 209 205 200 194 186 173 155 131 106 
91 79 74 76 85 102 126 152 175 190 198 197 187 167 137 103 74 55 47 50 66 98 140 179 204 217 219 213 198 172 139 106 85 80 90 112 140 163 176 177 169 155 140 130 129 137 150 163 170 170 162 147 129 113 104 104 113 130 152 172 189 201 208 209 207 201 190 176 161 149 143 145 152 162 170 172 167 155 138 121 111 111 123 143 166 186 198 204 205 202 197 191 184 178 173 166 157 144 127 108 
107 100 96 98 107 122 142 164 183 197 204 206 200 185 160 127 94 68 54 52 64 91 130 171 199 215 220 217 205 183 150 115 90 80 86 104 129 152 167 172 166 155 142 134 132 139 149 160 165 163 152 133 112 93 82 80 86 102 123 148 170 187 198 204 205 201 193 181 168 157 152 153 159 168 174 176 171 160 144 129 118 116 125 141 159 174 182 185 182 175 166 156 148 143 140 139 137 134 127 117 
131 128 125 125 129 138 151 166 181 193 202 206 205 197 179 151 117 86 65 57 63 83 118 158 189 209 217 216 207 186 155 120 92 79 80 94 115 137 152 159 156 147 136 129 128 134 144 154 158 155 142 122 100 80 68 63 66 77 94 116 139 160 175 185 189 187 181 172 162 153 150 153 161 170 176 178 175 165 151 135 123 117 120 128 139 148 151 150 143 133 122 112 105 102 104 110 119 127 132 133 
157 157 154 151 147 146 148 155 165 177 188 197 202 201 191 171 141 107 80 64 63 76 103 139 173 196 208 210 202 183 153 119 91 76 75 85 101 120 134 140 138 131 123 117 118 124 134 144 149 147 136 117 96 77 64 57 56 61 71 87 105 124 140 152 158 160 156 150 143 139 140 146 155 166 174 178 176 168 156 140 126 115 111 111 113 114 112 107 99 89 80 73 69 70 78 91 109 129 144 153 
180 181 177 168 156 144 135 132 136 147 162 178 191 198 196 184 160 128 96 73 64 69 87 117 149 176 191 196 190 173 145 113 88 74 71 78 91 105 117 121 119 113 106 102 104 111 121 132 140 140 133 118 100 83 69 60 56 55 59 66 77 89 102 112 120 123 123 121 119 119 123 132 144 157 168 174 175 170 160 146 130 115 103 95 89 84 78 72 64 57 52 48 48 53 65 84 110 137 160 174 
196 196 190 177 157 134 115 103 101 110 126 148 170 187 194 190 174 146 112 83 66 63 73 94 121 148 166 174 171 156 132 105 84 73 71 76 86 97 105 107 104 98 92 89 90 97 107 120 130 135 134 125 113 99 85 74 66 61 58 58 61 66 73 80 86 91 93 95 96 99 105 115 129 143 156 165 169 169 163 152 137 119 102 87 75 65 57 50 45 41 38 38 41 49 64 89 120 151 175 190 
205 204 195 178 152 121 94 77 71 75 90 113 142 168 185 190 182 159 127 94 71 61 63 75 95 118 137 147 146 135 117 98 83 76 76 81 89 97 102 101 96 89 83 79 80 86 96 109 122 132 137 137 131 122 111 100 88 78 69 62 58 58 59 63 67 72 76 79 82 86 91 99 110 124 138 150 159 164 164 159 147 130 111 91 73 59 48 41 37 34 34 36 42 53 73 101 135 166 187 200 
207 205 195 175 145 109 78 59 50 51 62 83 113 146 172 185 184 168 139 106 79 63 59 64 76 93 110 120 123 117 106 95 86 84 87 93 101 107 108 105 97 88 80 76 76 80 89 102 118 132 143 150 152 149 142 133 120 106 91 78 68 62 60 61 65 69 74 77 79 81 82 86 93 103 116 130 144 157 165 166 161 148 128 105 83 64 50 42 37 36 37 42 51 66 88 118 150 176 194 204 
203 200 190 170 138 102 70 50 40 39 46 62 89 124 157 178 184 174 151 120 90 70 61 61 68 79 92 102 107 107 103 98 96 99 105 113 120 124 123 116 105 94 84 78 76 80 88 101 118 135 150 161 168 171 169 163 153 138 121 104 90 80 76 75 78 83 87 89 88 85 80 78 79 84 93 108 126 146 163 173 175 167 152 130 104 81 63 51 45 44 47 54 66 84 107 134 160 180 193 201 
190 188 180 162 133 99 69 49 38 35 39 51 75 109 145 171 183 179 162 135 107 84 70 66 69 76 86 95 102 106 108 109 113 119 128 136 142 144 140 131 117 103 92 85 83 86 94 107 123 141 157 170 179 185 186 183 176 165 150 134 119 109 104 104 107 112 115 114 107 97 84 74 68 68 74 87 108 134 159 178 187 186 176 158 135 109 87 72 64 62 66 76 89 106 126 145 162 174 182 187 
165 167 164 153 132 103 76 55 43 38 39 49 69 102 138 168 183 185 174 152 127 103 86 78 77 82 89 98 107 114 120 126 133 142 151 158 163 162 156 144 129 114 102 95 94 98 106 119 134 149 164 175 183 188 191 190 186 178 168 157 148 141 139 141 145 149 150 145 133 114 92 74 62 57 59 70 91 121 153 180 195 200 196 184 165 143 120 103 93 91 96 105 117 129 140 147 152 155 158 162 
131 139 145 144 133 113 90 69 54 46 45 53 73 103 139 169 186 190 184 169 147 124 106 94 90 92 98 107 117 127 136 145 153 162 169 174 176 173 164 151 135 121 110 105 106 113 123 135 148 160 169 176 181 183 183 182 180 176 171 167 165 166 168 173 178 181 181 174 158 132 102 75 58 49 49 58 77 108 146 178 199 208 209 202 189 172 154 138 129 127 131 138 144 148 146 140 133 126 123 125 
97 110 126 137 138 129 111 90 72 61 58 65 83 113 147 174 191 196 193 182 164 143 123 109 102 102 107 116 127 139 150 161 169 176 181 183 181 175 164 149 133 120 113 112 118 128 141 153 163 170 174 175 173 169 164 160 157 156 157 161 168 177 185 193 199 202 202 194 177 148 111 78 56 45 42 49 66 96 136 173 198 211 215 211 203 192 178 167 160 159 162 165 165 159 145 127 108 94 87 88 
70 88 111 133 146 147 135 116 96 81 76 81 99 128 158 182 196 201 198 189 174 154 133 117 107 105 110 120 133 147 160 171 180 185 187 186 180 169 154 138 122 112 108 113 124 140 155 168 176 179 177 171 160 147 135 127 123 123 130 141 157 175 190 202 210 214 213 205 188 158 118 81 55 42 38 43 58 86 125 164 193 208 214 213 207 199 189 182 179 179 181 182 177 163 140 112 86 68 60 61 
55 75 104 134 155 163 156 140 119 102 94 99 116 142 169 189 200 203 200 191 175 154 131 113 102 100 104 115 131 148 164 176 185 188 188 183 173 158 139 120 105 97 98 107 124 145 164 178 185 186 179 165 146 124 105 92 86 88 96 113 136 162 185 202 213 217 217 211 194 165 124 84 56 42 37 40 52 76 111 150 181 198 205 205 200 193 186 183 183 186 189 189 182 164 134 100 71 53 45 45 
51 73 104 138 163 174 170 155 134 116 107 111 127 152 175 193 202 204 199 187 168 143 119 100 89 87 92 104 122 142 162 177 185 188 186 177 163 143 120 101 87 82 85 98 119 144 167 183 190 189 180 161 134 105 81 66 59 60 68 85 111 142 173 195 209 216 217 211 196 169 130 90 61 45 38 40 50 69 98 132 161 178 186 185 180 173 169 169 174 181 188 190 183 163 132 95 65 47 39 40 
56 79 112 146 170 179 175 159 137 118 108 112 129 152 176 192 200 201 194 178 155 126 100 82 72 71 76 89 109 133 155 173 183 186 181 170 151 128 104 85 73 70 74 88 110 137 162 181 190 190 179 158 127 95 69 53 45 45 51 65 89 120 154 181 200 209 212 208 195 171 136 99 70 53 46 45 52 66 87 112 134 148 153 151 145 140 138 142 154 168 181 187 182 165 134 98 68 49 42 44 
71 95 127 156 175 180 171 151 127 108 98 102 119 144 169 187 196 196 186 167 138 107 82 65 57 57 63 76 96 122 147 166 178 180 175 161 141 117 95 77 67 64 68 80 100 126 152 173 184 186 177 156 127 94 68 51 43 40 44 54 73 100 131 161 182 195 200 199 190 172 144 114 88 70 61 59 61 69 81 94 106 113 114 110 104 100 101 110 127 149 169 181 182 168 142 109 80 61 53 57 
96 120 147 168 179 176 160 135 109 90 81 86 102 128 156 177 188 189 178 155 124 92 68 54 48 48 55 67 87 113 138 158 169 171 165 152 133 112 93 79 70 67 69 78 93 114 137 157 171 176 171 155 131 102 78 60 50 46 46 52 64 83 108 134 156 171 180 183 180 170 154 133 113 98 89 84 82 82 83 85 85 84 80 74 69 67 70 82 103 131 158 176 181 174 154 126 100 82 75 80 
