P2
100 100
255
132 159 184 200 204 192 164 124 84 58 47 50 68 101 142 177 197 201 189 161 119 78 49 34 29 31 38 51 73 102 133 155 167 167 159 144 124 105 89 78 73 70 69 73 81 94 113 131 147 157 158 151 135 113 92 74 61 51 45 42 44 53 68 89 113 136 155 171 182 186 182 171 157 143 130 118 106 92 77 64 53 46 40 36 33 34 40 55 81 119 156 183 193 189 171 145 119 102 100 111 
171 190 204 210 205 185 149 104 66 44 35 38 54 84 126 165 190 196 187 160 121 81 54 40 36 38 46 59 78 99 120 134 140 138 130 120 111 105 102 102 103 101 97 91 87 86 91 100 112 124 135 142 143 138 127 114 99 84 70 58 50 47 51 61 75 92 112 135 157 176 186 190 187 182 175 164 149 127 101 75 54 40 31 26 24 25 31 44 69 105 145 174 188 188 178 161 145 137 140 153 
197 209 216 216 205 178 135 87 53 34 28 31 46 75 117 159 186 196 189 168 134 98 72 58 55 59 67 80 93 105 113 115 111 105 99 96 98 107 120 133 141 142 134 120 102 85 76 74 80 92 110 131 149 161 164 159 148 130 108 84 63 50 43 43 49 59 75 100 130 161 185 200 206 208 206 199 185 162 129 92 61 41 30 24 23 25 32 46 69 103 138 165 178 179 173 164 158 159 169 183 
211 220 223 218 203 171 123 76 45 29 25 29 44 73 116 159 187 199 196 180 154 126 103 91 89 95 104 113 119 119 112 100 87 77 73 75 87 109 137 162 177 180 171 152 123 92 69 57 56 66 87 117 150 177 191 195 189 175 150 117 83 58 42 35 35 39 51 74 107 147 181 204 216 221 222 218 208 187 154 112 74 49 35 30 30 34 43 59 82 110 136 154 160 159 153 150 153 164 180 197 
214 223 225 219 200 165 115 69 41 28 26 32 49 80 123 165 191 203 202 192 175 156 141 134 135 142 149 154 151 138 116 91 70 57 53 58 76 108 147 180 200 206 199 179 144 103 68 48 42 49 69 104 147 184 207 216 215 205 183 147 105 68 45 33 29 31 40 59 93 137 177 204 219 226 228 226 218 201 171 131 91 63 48 44 47 55 68 86 107 126 138 142 137 128 121 121 130 150 175 198 
211 222 224 217 197 159 109 66 40 30 30 40 61 95 137 173 195 204 204 197 187 178 172 171 176 182 187 187 178 156 122 86 59 44 40 46 66 103 149 189 212 220 215 197 163 116 73 46 35 38 56 92 140 185 212 225 227 220 201 167 121 78 49 34 28 29 37 56 89 133 174 202 217 224 227 225 218 204 179 144 109 84 72 71 79 92 109 126 141 147 143 130 111 95 85 85 98 124 158 189 
202 217 221 213 191 152 103 64 42 36 40 54 80 116 153 181 196 200 197 192 186 183 185 191 199 206 210 208 196 169 128 84 53 36 31 37 57 95 146 190 216 226 224 209 178 130 81 48 33 33 48 83 133 181 212 227 231 225 208 175 128 83 53 38 32 34 43 63 95 136 173 198 211 217 218 215 209 196 176 151 126 110 106 111 124 140 157 169 174 168 149 119 89 67 56 56 68 95 133 173 
191 210 215 207 183 143 98 64 47 45 55 76 106 139 167 184 189 186 178 171 168 171 181 193 206 215 220 218 205 177 133 85 50 32 26 31 49 86 138 186 215 228 228 216 189 143 92 53 35 32 45 78 127 177 209 225 228 222 204 172 127 85 57 45 42 47 60 82 112 145 173 190 198 200 198 193 186 175 162 148 137 135 141 154 169 184 195 201 198 183 153 112 74 50 38 37 47 71 110 155 
179 202 208 198 172 132 92 65 55 60 78 104 135 161 176 180 172 159 144 134 133 141 158 180 200 214 222 221 210 183 139 89 52 31 24 28 44 79 130 180 212 227 229 221 198 157 106 64 41 36 47 78 125 172 204 218 220 212 191 157 117 82 62 56 60 72 90 112 137 159 173 179 177 171 163 155 148 141 135 134 140 152 169 186 200 211 218 219 212 192 154 106 64 39 28 27 35 55 92 138 
169 193 198 185 157 119 86 68 67 81 106 136 162 177 178 166 145 121 101 90 90 101 124 154 184 205 217 220 211 188 148 99 59 36 27 29 43 75 124 174 208 224 228 223 204 170 123 80 54 46 56 84 126 169 196 207 205 192 167 134 101 78 69 74 89 109 130 150 165 173 172 162 147 131 117 108 102 100 103 114 134 159 184 203 217 225 229 227 218 195 153 101 58 34 24 22 29 47 81 127 
163 185 186 170 139 105 81 72 82 105 137 165 182 186 173 147 114 84 64 55 55 65 88 121 159 190 208 216 211 193 160 115 75 49 37 36 48 77 121 168 201 219 225 221 207 180 140 101 74 65 73 98 133 166 186 190 181 161 133 104 82 73 78 97 123 149 170 183 188 184 169 145 117 93 77 68 64 67 76 94 123 157 188 210 223 230 233 230 219 193 149 96 54 32 22 22 29 47 79 123 
162 179 175 153 121 92 76 79 98 130 163 187 196 189 164 126 87 57 40 33 34 42 61 91 131 168 195 208 209 198 173 138 101 73 57 54 62 85 121 160 191 208 216 215 205 185 156 124 101 92 99 118 144 164 173 167 149 124 98 77 67 70 88 120 154 182 199 206 204 191 167 131 95 68 52 45 43 48 58 79 110 149 184 208 223 230 232 229 216 189 142 90 51 31 23 23 32 52 85 127 
166 175 164 137 105 81 74 85 115 152 184 201 203 188 155 109 67 41 27 23 24 30 45 69 105 144 176 196 203 200 186 163 135 110 92 85 87 101 124 151 174 189 197 198 194 182 164 145 130 125 130 142 155 162 157 141 116 90 69 56 55 68 97 137 176 202 216 219 213 196 166 125 85 57 43 37 37 41 51 69 98 136 172 199 216 225 227 224 210 180 133 83 48 30 25 27 39 62 98 138 
173 173 153 121 90 72 72 92 128 168 197 210 207 187 147 97 57 33 22 19 21 27 38 57 85 120 153 177 192 197 194 183 168 152 137 126 121 121 127 137 148 157 164 168 169 167 162 156 152 152 156 162 164 159 143 118 90 66 51 45 50 68 102 147 186 211 222 223 215 198 167 127 88 61 47 42 42 45 52 66 88 118 152 180 200 212 217 213 199 168 122 77 46 32 28 34 51 79 117 152 
179 170 143 108 78 65 70 96 137 178 205 215 210 187 144 93 53 32 23 21 24 30 40 54 74 99 127 152 171 185 192 194 192 186 177 166 154 140 127 118 115 116 119 125 132 140 148 156 163 169 173 174 168 154 131 102 75 55 44 42 49 69 104 147 185 209 219 219 212 196 169 135 102 78 66 61 59 60 62 67 79 99 124 150 173 189 197 196 182 153 111 72 46 35 35 45 67 101 139 168 
184 167 133 95 68 58 68 97 141 182 208 217 211 187 145 96 57 37 30 30 35 42 50 60 71 85 102 121 142 162 180 194 202 205 202 193 176 152 123 99 83 76 76 82 92 108 127 147 164 175 179 177 166 148 122 95 72 56 48 47 54 71 102 139 173 195 205 206 201 189 170 146 124 108 99 95 91 86 79 74 74 81 95 114 135 154 168 172 162 138 104 72 51 43 47 62 90 127 161 181 
186 162 123 84 60 52 63 93 137 179 206 216 211 189 151 105 69 50 45 49 57 66 73 76 77 78 82 91 107 130 157 183 202 212 214 207 188 156 116 81 59 49 47 51 63 81 107 135 158 172 176 171 158 139 117 96 80 69 63 62 67 79 99 125 150 167 177 179 177 172 164 156 148 144 141 139 133 120 102 84 71 66 69 80 96 115 134 145 144 129 104 80 64 59 67 87 118 153 179 191 
185 156 114 75 52 46 56 83 125 168 197 210 207 190 159 121 91 76 75 83 96 106 110 104 91 77 68 67 75 96 127 162 192 210 216 211 190 153 106 68 44 34 31 35 47 66 94 125 150 164 165 157 144 129 115 105 98 95 92 91 91 93 99 108 119 128 134 138 141 145 152 160 168 175 179 179 171 153 125 94 70 56 52 56 67 85 106 125 134 131 117 100 88 87 97 119 148 176 193 197 
185 151 107 69 47 41 48 71 106 147 178 195 197 186 165 140 120 112 117 130 144 153 151 136 110 81 60 50 52 67 96 137 176 202 213 209 187 146 97 58 36 26 25 30 43 64 93 123 146 154 150 139 126 116 114 117 124 131 133 131 125 115 104 95 90 88 88 92 99 113 134 158 180 195 203 204 195 174 139 100 68 49 42 42 51 68 92 118 137 144 140 131 123 124 134 153 175 193 203 201 
185 150 106 67 44 37 41 57 84 117 148 169 177 175 166 155 148 150 160 174 186 191 185 163 127 86 56 40 37 47 72 113 158 192 207 203 180 137 88 51 32 24 25 33 50 74 105 132 147 148 135 118 106 102 111 129 150 166 173 172 161 141 115 89 70 59 55 57 66 86 117 154 185 205 215 216 206 182 143 99 64 44 36 36 45 64 93 126 151 165 167 163 159 160 167 180 194 204 209 204 
188 155 111 71 46 36 36 45 62 86 111 133 147 155 160 163 169 179 191 203 212 214 205 180 137 89 53 35 29 36 57 95 143 181 200 197 172 128 81 47 31 27 32 45 68 98 129 151 157 146 123 100 87 88 105 135 167 190 201 201 190 165 129 90 60 43 36 37 47 69 106 151 188 210 220 219 207 179 136 91 58 40 34 36 48 71 105 142 170 185 190 188 185 184 188 196 204 211 212 206 
194 166 124 83 54 39 34 37 46 60 77 95 113 130 147 164 180 195 208 218 224 223 212 185 140 89 51 32 26 31 51 87 135 175 194 191 165 122 77 47 34 35 46 68 99 133 160 174 170 148 116 86 71 74 96 133 173 202 216 218 208 184 143 96 58 37 28 29 38 62 102 151 190 212 220 216 199 166 121 79 50 36 33 39 55 85 123 161 187 199 202 200 196 194 196 201 207 212 214 209 
202 180 144 104 69 47 37 34 36 43 54 68 86 108 134 161 183 201 214 223 227 224 211 182 135 85 50 32 27 33 54 91 138 176 193 188 162 119 77 51 42 48 69 101 138 170 190 195 183 154 112 77 59 61 84 125 171 205 222 226 219 196 156 104 61 37 26 27 37 62 105 154 192 212 217 209 186 147 102 65 43 34 35 46 68 102 143 176 197 204 204 198 192 187 188 193 201 209 213 212 
209 194 168 131 93 64 46 37 34 37 43 54 71 96 127 158 184 203 215 222 224 219 203 172 126 80 49 35 33 43 67 106 150 183 196 188 161 119 80 57 54 69 99 138 175 200 213 211 194 159 111 71 50 50 70 110 160 200 222 229 224 204 167 114 68 40 28 29 41 69 113 161 195 211 211 197 167 124 82 53 38 34 40 56 84 122 159 185 198 198 191 180 169 163 164 171 184 198 208 212 
212 206 189 160 123 88 63 47 40 40 44 55 72 98 129 160 184 201 210 214 213 205 186 154 112 75 52 43 47 64 93 132 169 194 201 190 161 120 84 66 69 93 131 172 202 220 226 221 202 163 111 67 44 41 57 93 144 189 216 227 225 209 175 125 76 46 33 34 49 79 124 168 197 208 202 180 144 101 66 45 37 39 50 72 104 140 170 186 188 179 163 145 130 122 123 135 154 176 196 208 
210 212 204 184 154 119 88 67 56 54 59 70 89 114 142 167 184 195 199 198 193 180 159 129 96 71 59 60 72 96 129 163 191 205 206 191 160 119 86 73 83 114 156 194 219 231 234 227 206 166 111 64 39 33 45 75 123 173 207 223 224 212 182 134 86 53 40 42 58 91 135 174 196 201 189 161 121 83 56 43 41 49 67 94 127 157 175 178 168 147 123 101 85 77 79 92 115 145 175 198 
201 212 211 200 178 149 119 96 84 82 88 102 120 141 161 176 183 184 180 171 159 143 122 100 81 70 72 85 108 137 167 192 208 214 208 189 154 114 84 76 90 126 170 206 227 236 237 229 208 167 111 62 36 28 35 59 102 154 195 216 221 212 185 142 95 62 49 51 69 102 143 176 192 190 172 140 102 71 53 48 54 69 93 123 151 170 175 164 140 110 83 62 49 44 46 57 77 109 146 179 
185 203 209 204 191 169 146 128 119 120 129 143 158 171 181 184 179 167 151 133 116 99 85 73 68 73 89 115 146 175 197 212 219 218 206 181 142 102 76 71 88 125 171 207 227 236 237 229 209 168 111 62 34 25 29 47 83 134 180 207 216 209 186 147 103 71 57 61 79 110 146 172 181 174 152 121 90 68 60 64 78 100 128 155 174 181 173 149 114 79 53 37 29 26 27 35 50 77 113 153 
160 185 197 197 189 176 161 151 150 156 167 179 189 196 196 189 172 147 119 94 76 64 56 54 60 78 108 144 177 201 216 224 225 217 199 166 124 85 63 60 77 113 159 197 221 232 234 227 207 168 112 63 35 23 25 39 70 117 165 196 209 205 184 149 108 78 65 68 86 113 142 162 166 156 134 109 87 77 79 91 113 139 164 183 192 189 171 137 96 60 37 25 19 17 18 23 34 53 84 123 
130 158 173 177 173 165 158 158 165 178 191 202 209 211 205 190 162 125 90 64 49 41 38 43 56 84 124 166 198 217 226 229 224 211 185 145 101 67 50 48 62 92 135 177 207 222 228 223 204 167 114 66 38 25 25 37 64 107 154 187 201 198 179 146 109 81 70 73 88 111 133 147 148 138 122 105 96 97 109 128 152 175 193 203 205 196 172 133 88 53 32 21 16 14 15 19 26 40 63 95 
103 127 141 145 142 138 138 146 162 182 199 212 218 217 208 187 151 107 70 46 33 28 29 37 55 89 136 180 209 224 230 228 219 199 165 120 79 51 38 37 46 69 105 147 182 204 214 213 197 164 117 73 45 33 32 43 68 108 151 181 194 190 170 138 105 81 71 74 86 104 121 131 132 126 118 112 114 126 144 165 185 201 211 215 213 201 177 138 93 58 36 25 19 17 18 20 25 35 52 76 
88 103 110 110 106 103 107 120 143 170 194 210 218 217 206 181 140 94 57 36 26 22 25 35 56 95 145 188 214 226 229 224 209 181 140 95 60 39 29 28 35 50 76 111 147 175 192 196 186 160 122 85 60 48 48 60 85 120 156 180 188 181 159 128 97 77 69 72 82 97 110 119 122 122 123 128 139 156 174 192 205 214 219 220 216 204 183 149 109 75 52 38 32 29 28 30 34 41 54 70 
89 94 91 85 77 73 76 90 114 145 175 196 208 209 198 171 130 85 52 33 24 22 25 37 61 102 152 192 215 224 224 213 191 156 112 72 45 31 25 24 28 37 54 79 109 138 159 170 168 153 129 103 84 76 79 92 115 143 169 184 185 172 146 115 87 71 66 69 79 91 103 113 120 127 136 148 163 180 195 206 214 218 218 217 212 203 188 164 134 105 82 68 59 54 52 53 56 62 70 81 
109 102 90 75 62 55 55 64 84 112 144 170 187 191 182 158 121 82 53 36 28 26 31 45 72 113 160 195 213 219 213 196 167 127 86 55 36 27 24 24 27 33 43 58 78 102 123 138 145 144 135 125 118 116 122 135 153 171 185 190 183 163 133 102 78 65 63 67 77 89 103 115 126 138 151 166 181 194 204 209 211 210 207 203 199 194 187 175 160 143 127 114 105 99 96 95 96 100 105 109 
140 126 105 82 63 50 45 48 60 80 107 133 153 162 159 142 115 85 62 47 40 40 47 62 91 130 169 196 208 208 195 171 136 97 64 43 32 28 27 29 33 37 43 52 63 78 93 108 121 131 138 144 150 157 165 175 186 195 199 195 180 155 122 91 71 61 61 68 79 93 108 123 137 151 165 179 190 197 201 200 195 188 180 174 172 172 175 178 179 176 171 165 160 155 151 149 148 149 149 147 
172 155 131 103 76 57 46 42 46 57 74 94 113 127 132 127 115 98 83 72 67 68 76 93 119 151 178 194 198 189 169 138 103 71 49 37 33 34 38 44 50 54 58 61 65 69 77 87 100 117 136 154 171 184 195 202 207 209 207 196 176 146 112 84 67 61 64 73 86 102 118 133 147 161 172 182 187 188 184 175 162 148 136 129 129 137 152 170 186 196 201 202 200 198 195 192 190 189 186 182 
194 181 159 132 102 76 57 46 42 45 52 64 79 94 108 118 122 121 116 112 110 112 120 134 153 172 185 189 182 163 135 103 74 52 41 37 41 49 61 73 83 90 91 89 83 77 74 76 85 102 126 153 178 196 208 214 216 215 207 193 169 137 105 81 68 67 73 85 100 115 130 143 153 163 169 173 172 166 153 136 117 100 87 80 83 95 119 151 181 203 215 220 222 221 218 215 212 209 206 202 
203 196 182 162 135 106 80 60 48 42 42 47 57 72 92 115 135 149 155 158 159 161 166 173 181 187 187 178 159 132 101 73 53 42 39 44 57 76 98 118 133 140 139 131 116 97 82 73 74 87 111 141 171 193 207 213 214 210 200 182 157 127 100 82 76 80 90 104 119 131 141 148 152 155 155 152 145 131 114 94 75 60 50 45 49 62 89 128 169 200 218 227 229 228 225 220 216 212 209 207 
198 199 195 185 167 142 113 85 63 48 41 40 47 61 86 118 150 174 188 194 196 197 198 198 198 193 181 161 132 101 73 53 41 38 43 58 82 113 143 167 181 187 184 173 152 124 96 76 69 75 93 121 152 177 193 200 200 194 181 162 138 115 97 90 93 102 116 130 141 148 149 147 142 137 131 122 111 96 78 61 47 36 29 27 30 41 66 106 153 191 214 224 226 224 218 211 203 198 195 196 
180 191 199 199 192 175 150 119 88 64 48 42 45 59 86 125 164 192 208 215 217 216 214 210 203 190 169 140 107 77 55 42 37 41 55 80 115 152 182 202 213 217 213 202 180 148 112 82 67 66 77 99 126 151 166 173 171 163 149 132 115 102 98 104 116 132 147 158 163 161 152 139 126 113 103 92 81 69 56 43 33 26 21 19 22 32 53 89 136 178 203 214 214 208 197 184 172 164 163 169 
149 173 193 205 207 199 182 155 121 88 63 50 49 61 90 132 173 202 217 224 225 223 218 210 197 178 151 118 87 62 47 40 41 51 73 107 147 183 208 222 229 230 227 216 196 163 124 89 68 62 68 83 103 120 132 135 130 121 109 98 91 92 102 121 142 162 175 182 180 170 151 128 107 90 79 70 62 54 46 38 30 25 21 20 22 30 49 80 122 161 185 193 189 176 158 139 123 115 116 128 
114 149 182 204 214 214 205 185 154 118 85 64 58 68 95 136 177 204 219 224 224 219 211 199 182 159 131 101 75 58 48 47 54 71 100 137 175 203 221 230 234 234 229 219 199 168 130 96 75 67 70 79 90 98 101 97 90 81 73 69 72 85 108 138 166 186 197 199 191 174 146 115 89 72 63 58 55 52 49 43 38 33 29 28 30 38 54 80 114 144 161 162 151 131 109 88 74 68 71 86 
85 126 168 199 216 221 218 205 181 147 110 82 70 76 99 136 173 199 212 216 213 205 193 177 158 135 112 91 75 65 62 66 78 100 131 165 195 215 226 231 232 230 223 211 191 163 131 104 88 83 85 90 94 92 84 74 63 54 50 51 60 81 115 154 185 203 211 209 198 174 140 103 76 61 55 56 59 63 65 63 59 54 50 48 50 57 71 91 114 130 135 126 108 87 67 51 42 38 42 57 
67 108 156 193 215 224 224 216 198 170 134 101 83 82 99 128 160 183 194 196 190 178 162 144 127 112 100 91 87 87 90 99 114 136 162 187 206 219 225 226 223 217 207 192 171 148 126 112 107 110 116 119 115 103 85 66 50 41 37 40 53 80 122 165 197 214 219 215 200 172 133 94 67 55 55 63 75 88 96 100 98 94 89 86 87 92 102 113 123 124 114 97 76 56 41 31 26 24 28 41 
59 97 145 186 211 222 225 220 207 183 150 116 93 85 94 113 137 154 162 161 151 137 121 107 98 95 97 103 111 120 129 140 153 169 185 200 210 215 216 212 204 192 176 158 140 125 118 121 131 144 154 157 149 129 100 70 48 35 31 35 50 81 127 173 204 219 223 217 199 168 125 86 62 55 61 77 100 123 139 147 148 145 140 137 136 138 141 143 138 125 103 78 57 41 30 24 21 21 25 36 
58 92 136 175 202 215 220 217 207 186 156 123 97 84 84 94 107 117 120 116 106 93 83 77 79 89 106 125 143 157 167 175 183 190 197 202 205 203 197 187 172 153 133 114 102 99 108 128 153 175 188 191 182 159 123 83 52 35 29 33 48 81 130 177 208 222 224 216 196 161 117 80 60 58 72 98 130 159 178 187 190 188 184 181 179 177 175 169 154 130 100 71 49 36 28 24 23 24 28 38 
64 91 126 161 186 200 206 205 196 179 152 122 96 80 74 75 79 82 81 76 69 62 58 61 73 95 123 150 172 185 193 196 197 197 196 193 188 180 167 149 128 106 87 74 70 77 99 134 170 197 212 215 207 185 147 99 60 38 29 32 48 82 131 179 209 222 223 213 191 153 110 76 61 65 86 119 156 185 202 210 213 211 208 206 203 200 195 185 166 137 103 72 51 39 33 32 32 35 39 48 
76 93 115 139 160 173 180 181 175 161 140 114 91 75 66 62 61 59 56 52 48 46 48 59 79 110 144 173 192 202 205 202 197 189 181 171 160 145 128 107 86 68 54 47 49 63 93 137 181 210 225 229 222 203 166 115 70 42 31 32 48 83 132 179 208 220 219 207 182 143 102 74 64 74 101 138 174 199 213 218 219 217 214 211 209 206 201 190 171 143 110 81 62 52 49 50 53 57 61 67 
95 97 103 113 125 134 141 145 144 136 123 106 88 74 64 57 52 48 45 41 40 42 50 67 95 131 165 189 203 206 203 194 181 166 152 138 123 108 92 75 59 46 37 34 38 55 89 138 185 216 231 235 230 214 179 128 78 46 33 35 51 86 134 179 206 216 213 197 168 130 94 73 71 86 117 153 184 203 212 213 211 208 204 201 200 198 194 186 171 148 121 98 83 78 78 83 89 94 96 95 
117 103 92 88 89 94 100 106 111 113 110 102 92 80 70 61 53 48 43 41 43 49 62 86 118 153 182 198 204 200 188 171 150 131 114 101 90 81 70 59 48 39 32 30 34 51 85 135 185 217 233 237 233 218 185 136 85 51 37 40 57 92 139 179 202 209 201 182 151 116 88 75 80 101 132 164 187 198 200 196 189 182 177 175 175 177 177 174 166 152 135 122 114 115 121 129 137 141 139 130 
136 108 84 69 63 64 69 78 90 101 108 110 106 98 87 75 65 57 52 51 55 65 84 112 144 173 192 200 197 183 161 136 111 92 79 72 69 68 66 60 52 43 36 32 35 49 80 128 178 212 229 235 231 216 185 138 89 57 45 49 69 105 147 180 197 197 185 161 130 101 83 81 94 119 148 172 185 187 179 166 152 141 135 135 139 146 153 158 159 155 150 147 148 154 163 173 180 182 176 161 
148 110 78 57 48 48 54 66 84 104 121 131 132 127 116 103 89 78 72 71 77 91 114 141 168 188 197 195 181 157 126 97 75 61 56 57 63 72 78 78 71 60 48 40 39 48 73 115 163 199 219 226 223 208 177 134 91 64 56 65 89 124 159 182 189 182 162 135 107 88 82 91 113 140 164 178 180 169 150 128 108 96 91 93 101 114 129 143 152 158 162 167 174 183 193 201 207 207 199 180 
152 109 73 51 42 42 51 69 94 121 144 159 164 161 151 138 123 110 101 100 107 122 143 166 185 195 196 184 160 126 93 66 50 43 44 54 70 90 106 112 106 91 72 55 46 49 65 97 139 176 199 208 204 189 160 123 91 74 74 90 117 147 172 183 180 162 136 108 87 79 85 106 134 161 178 183 174 152 121 93 73 62 60 65 76 93 112 132 148 160 170 179 189 199 208 215 219 218 209 188 
150 105 68 48 41 45 59 84 116 148 172 186 191 189 182 170 156 142 132 129 135 149 166 183 194 198 191 171 138 100 68 47 36 35 42 59 87 119 144 155 151 133 106 78 59 52 58 78 109 141 164 175 172 157 133 107 89 85 97 120 147 171 184 183 167 140 109 84 72 74 92 122 155 180 191 189 170 138 101 71 52 45 45 53 65 84 105 126 144 158 170 182 193 204 213 220 223 221 211 188 
142 98 64 47 44 53 75 108 144 175 195 206 209 207 201 191 177 163 152 148 152 162 176 189 196 196 184 159 122 84 54 37 31 33 46 71 109 149 179 192 189 172 142 107 76 58 54 63 81 103 121 130 128 117 102 90 87 98 121 149 174 189 192 179 152 118 86 66 62 73 100 138 173 195 202 194 170 132 92 61 45 41 44 52 66 84 104 122 138 150 162 174 188 201 211 219 222 219 208 182 
132 89 61 48 49 65 95 134 171 197 212 218 219 215 208 197 182 167 154 148 150 160 173 186 193 192 179 153 116 78 51 36 31 36 53 85 130 173 202 214 213 200 173 135 97 69 56 54 61 72 83 88 86 81 75 75 86 109 142 172 193 200 193 171 135 97 68 54 55 73 108 151 186 205 209 198 172 132 91 62 48 45 50 60 74 90 105 117 125 133 142 155 172 190 204 214 218 214 201 173 
118 80 56 48 55 77 114 156 191 211 221 224 222 215 204 189 170 151 136 129 131 142 158 174 185 188 178 155 121 84 56 41 36 42 62 98 145 188 214 225 225 214 193 159 119 85 64 55 55 58 61 62 60 58 58 66 86 118 156 186 202 203 188 157 116 78 54 46 52 74 113 159 193 210 213 201 175 136 96 68 56 54 60 71 83 94 101 105 106 108 114 127 148 172 193 206 211 207 191 160 
104 70 51 48 58 85 127 171 202 218 225 224 218 207 190 167 143 121 105 98 102 115 135 158 176 185 181 165 136 101 71 53 45 50 70 106 153 193 217 227 227 220 203 175 140 106 81 68 62 60 58 54 50 48 51 62 87 124 164 192 203 199 177 139 96 63 44 40 49 73 114 160 194 210 212 200 174 138 103 78 68 68 74 82 90 94 93 89 84 81 84 97 121 152 179 198 204 199 180 145 
90 61 46 45 58 88 132 176 206 220 224 220 209 190 164 134 106 85 72 68 72 87 112 142 168 184 188 179 157 126 94 70 58 59 75 108 151 188 211 222 223 217 205 184 157 129 107 93 85 78 71 63 55 50 52 64 90 128 166 191 198 188 160 118 78 50 37 35 46 71 110 155 188 203 204 192 168 137 107 89 82 83 88 92 93 89 81 71 63 58 61 74 100 135 169 190 198 191 168 130 
77 52 40 41 55 84 128 172 203 217 219 211 193 165 131 98 72 56 47 46 52 67 95 131 165 187 197 194 179 153 121 91 71 66 77 103 140 174 197 208 211 208 199 185 168 151 138 128 121 112 101 86 72 62 61 71 96 131 165 186 189 173 140 98 63 41 32 33 44 67 103 143 173 187 187 174 153 128 108 97 96 99 102 100 93 82 68 56 48 44 47 62 90 128 165 188 194 184 157 116 
67 45 35 36 48 75 116 162 194 210 211 198 173 136 98 67 48 37 33 33 41 58 88 129 167 192 205 206 196 175 143 109 83 71 74 91 119 148 171 184 189 188 184 178 172 168 165 163 160 153 140 121 101 84 77 83 104 135 164 180 179 160 124 84 54 37 31 34 45 65 95 127 151 161 159 146 129 114 104 104 109 114 115 108 93 75 59 47 39 38 44 62 94 134 169 190 194 180 148 105 
60 39 30 31 41 64 102 147 182 200 200 183 150 109 72 47 33 27 25 28 38 58 91 134 174 199 212 214 206 188 157 119 88 71 67 76 94 116 136 149 157 159 161 164 169 176 183 188 190 186 175 156 132 110 98 100 116 142 165 177 172 151 117 80 54 40 36 40 50 68 90 112 126 129 123 112 101 96 99 109 122 130 130 117 97 74 56 44 38 41 52 76 111 151 182 198 197 179 142 97 
55 35 27 27 35 54 89 133 170 189 188 168 132 89 56 36 26 22 23 29 41 65 103 147 184 206 216 217 209 190 158 119 87 67 60 63 74 88 103 114 122 127 134 145 160 176 190 201 206 205 197 180 156 132 117 116 129 150 169 178 173 153 122 90 66 53 51 56 66 80 93 103 105 100 90 81 77 81 95 115 135 147 146 132 108 82 61 50 48 55 73 103 139 174 197 207 202 179 138 91 
51 32 24 24 31 49 80 123 161 181 181 159 121 79 48 31 23 22 25 33 51 81 122 164 194 211 218 215 204 181 147 110 79 61 54 56 63 73 83 91 97 103 113 128 149 171 189 203 210 210 203 187 165 143 128 128 140 159 175 183 180 165 140 114 93 83 81 87 96 104 108 105 94 80 68 61 62 73 95 124 150 165 165 151 127 100 79 69 70 83 107 139 172 197 212 215 206 180 136 87 
49 31 24 24 31 49 80 122 159 180 180 158 121 79 49 32 25 25 31 44 67 103 144 180 203 214 215 207 190 163 127 93 69 56 52 56 63 73 81 87 92 96 105 120 140 163 183 196 203 202 194 179 158 138 128 131 146 166 183 191 191 182 166 148 133 126 126 131 137 139 134 118 95 73 58 51 56 72 101 136 165 181 183 172 151 127 109 101 106 123 148 175 199 214 222 221 208 179 133 84 
48 32 26 28 37 57 90 131 166 185 185 166 130 89 57 39 32 33 42 61 91 129 167 194 209 213 207 192 167 135 102 75 59 54 56 65 78 90 99 104 106 107 111 121 136 154 170 180 184 181 171 154 135 120 116 125 146 170 189 199 202 198 190 180 173 170 171 175 177 174 161 137 105 76 57 51 58 79 113 150 179 195 197 189 174 156 142 138 145 162 182 202 216 225 227 222 207 176 128 81 
50 36 33 37 51 75 110 149 179 195 194 178 147 107 74 53 46 49 62 87 121 157 187 204 211 207 193 169 137 104 77 60 53 56 68 86 105 122 133 137 136 132 130 130 136 143 151 155 154 147 134 118 103 94 97 113 140 169 192 205 210 210 206 202 200 199 201 204 204 198 183 156 121 87 65 59 69 94 130 166 191 204 206 200 189 176 167 166 173 187 202 215 223 227 226 219 200 167 121 78 
54 45 47 57 76 104 139 172 195 205 204 191 166 131 98 76 68 73 91 120 152 181 201 210 208 195 171 139 104 75 57 49 51 64 86 114 141 160 170 173 169 161 151 143 136 132 129 125 118 107 94 82 72 70 77 98 130 164 190 206 213 214 213 212 211 213 215 217 216 211 197 171 137 103 81 76 88 115 149 179 199 208 208 201 191 180 174 174 182 194 205 214 220 221 217 207 186 152 111 75 
63 63 72 89 113 142 170 193 208 214 212 202 182 154 124 104 97 105 125 153 179 199 210 210 201 179 145 107 75 54 44 43 53 75 108 145 174 192 199 199 194 183 168 152 135 120 107 97 86 75 65 56 51 52 62 84 117 154 183 200 208 210 209 209 209 211 214 217 217 212 200 179 150 122 104 101 115 140 168 190 202 205 201 191 178 167 160 161 169 180 191 199 203 202 196 182 160 130 99 75 
78 89 107 129 154 177 195 209 216 218 215 207 191 169 145 129 125 135 155 178 197 209 213 208 191 160 119 81 54 40 36 41 57 87 129 169 197 211 216 214 207 194 176 153 129 108 90 77 65 56 48 42 40 42 52 72 103 138 168 185 192 193 192 190 191 194 198 202 204 201 192 177 157 138 127 129 143 163 182 195 199 194 182 166 149 135 128 128 135 146 156 164 167 166 158 144 125 104 87 77 
98 120 144 167 187 201 211 217 219 218 213 204 190 171 153 141 142 154 173 192 207 214 213 203 180 141 97 62 41 31 31 40 61 97 144 184 209 221 223 219 210 195 173 146 119 96 78 65 55 48 41 37 36 39 48 65 90 120 145 159 164 161 157 154 154 158 163 170 174 174 171 163 154 147 146 154 167 180 190 193 187 172 152 129 109 95 88 87 93 101 110 116 119 117 111 101 91 82 78 83 
118 147 173 192 205 213 216 217 215 210 203 191 176 159 144 136 141 155 176 194 208 214 211 198 170 128 83 51 33 27 29 39 63 102 151 191 214 224 224 218 206 186 160 131 104 84 70 61 54 48 43 40 39 41 49 62 81 102 119 127 125 119 111 105 104 107 114 121 128 133 135 137 140 147 157 170 182 190 191 183 166 142 115 90 72 61 55 55 59 64 69 74 76 75 72 68 66 67 75 92 
132 163 187 202 210 213 212 209 203 194 182 167 149 132 119 115 123 140 163 185 201 209 207 194 165 121 77 47 31 25 28 38 62 102 151 192 214 222 221 211 194 169 138 109 88 74 67 64 61 58 54 51 49 51 57 67 80 93 100 99 91 80 70 64 62 64 68 74 81 88 95 105 120 139 160 178 189 192 185 167 140 109 81 60 47 40 37 38 40 44 48 51 53 53 52 53 56 63 78 102 
138 165 185 196 200 200 196 189 180 167 151 133 115 99 89 87 95 112 138 165 187 200 203 192 165 124 80 49 32 26 27 37 59 97 145 186 209 217 214 201 177 145 113 87 73 67 69 73 76 77 76 73 71 71 75 83 91 95 94 85 72 58 47 41 38 38 40 44 49 55 64 78 100 128 157 179 190 188 174 147 113 81 57 42 34 31 31 34 37 42 46 49 51 52 52 54 59 69 85 109 
134 153 166 173 174 172 166 158 147 134 117 100 83 70 63 61 67 82 106 136 166 187 197 192 171 135 93 59 39 29 28 35 54 88 134 176 202 210 206 188 159 122 90 69 62 65 75 89 101 108 109 107 104 103 106 110 113 112 104 89 71 54 41 33 29 27 27 29 32 37 45 60 84 117 151 176 186 180 159 126 90 61 43 34 31 32 36 42 49 57 63 67 70 71 72 73 77 84 96 114 
121 129 134 135 134 131 126 121 114 104 92 78 64 54 47 44 47 57 77 105 140 171 190 194 182 154 116 79 52 37 31 35 50 79 121 164 192 202 197 177 143 104 74 59 57 68 87 110 131 143 148 147 144 142 142 143 144 140 128 110 88 67 51 39 32 28 26 25 26 30 37 51 76 110 146 172 180 170 144 108 74 51 38 34 36 43 54 67 80 91 101 107 110 111 111 109 108 108 110 114 
104 99 96 94 92 90 91 92 92 90 83 73 61 50 41 36 36 41 55 79 114 153 182 196 194 176 145 108 74 51 39 37 47 71 109 151 182 195 191 170 135 97 69 56 59 76 103 133 159 174 179 179 176 173 172 172 172 168 158 142 121 98 77 61 48 40 34 30 29 30 37 50 75 109 145 168 174 161 132 96 66 47 40 42 52 68 87 108 127 142 152 158 161 160 158 152 145 134 123 112 
88 74 66 62 61 64 70 79 89 95 94 86 73 58 45 35 31 33 41 60 94 136 175 198 205 197 175 143 106 74 53 44 47 65 98 139 173 189 188 170 137 100 73 62 68 88 120 154 179 193 198 197 193 189 187 187 188 188 184 174 159 140 120 100 82 67 55 46 40 39 44 58 82 115 147 168 170 155 124 90 64 51 50 60 79 105 133 157 176 188 196 199 200 198 194 186 174 155 132 108 
76 58 48 45 46 53 66 85 104 119 123 117 100 79 58 42 32 29 34 49 78 122 168 199 212 212 200 176 142 104 73 55 51 63 91 129 165 186 189 175 148 114 88 77 83 105 138 169 192 203 205 202 196 190 186 187 191 196 198 197 191 180 166 149 130 111 92 76 65 60 62 75 98 128 155 171 170 153 122 90 68 60 66 85 114 147 176 196 209 217 221 222 221 218 213 205 190 167 135 102 
69 51 42 40 44 56 76 104 132 153 161 156 139 111 81 55 38 30 31 42 68 111 160 198 217 222 217 202 174 137 99 71 59 63 86 121 158 183 191 184 163 134 110 98 104 124 153 180 197 205 204 196 186 176 170 171 179 189 199 206 208 206 200 190 177 159 139 119 103 93 92 102 122 147 167 177 173 155 126 97 78 74 86 112 147 179 203 218 226 229 230 229 227 223 218 209 193 169 134 98 
70 53 45 44 52 69 96 131 162 184 194 191 176 149 112 77 50 35 31 38 61 101 152 194 218 228 228 218 199 166 126 89 68 66 82 113 150 179 192 190 176 154 133 121 125 142 165 186 198 201 195 181 164 148 139 140 151 168 186 202 212 217 218 214 207 195 180 162 145 132 129 135 149 167 180 185 179 162 135 108 91 89 104 134 168 196 215 225 229 229 228 225 221 216 210 201 186 163 131 97 
80 65 59 60 70 90 121 156 185 205 214 213 203 180 146 104 68 45 35 38 55 92 142 188 216 229 233 228 214 187 148 107 78 68 78 104 139 170 188 192 184 167 149 139 140 152 170 186 194 192 180 159 134 112 100 100 112 133 159 183 202 214 220 222 220 213 203 190 176 164 159 162 172 182 191 192 186 170 146 121 104 102 116 142 172 196 211 218 219 217 212 206 200 194 188 181 170 153 129 103 
103 92 86 87 96 115 143 173 197 213 222 223 218 202 174 134 91 59 42 39 51 82 130 178 211 228 234 232 221 199 163 119 84 68 72 93 124 156 178 186 182 169 154 144 143 153 167 179 184 179 162 135 105 81 68 66 75 94 121 151 177 197 209 216 217 215 208 199 188 180 176 177 184 192 197 198 192 178 157 133 115 109 117 136 159 178 190 194 192 187 178 169 161 155 152 150 148 143 132 117 
135 129 124 122 127 138 156 177 195 210 219 224 223 214 194 160 117 77 52 42 49 72 114 162 200 221 231 231 223 203 168 124 86 66 65 80 106 136 159 170 169 158 145 136 134 142 154 166 170 163 143 115 85 62 49 45 50 63 84 111 139 164 182 194 199 200 196 190 183 177 175 178 185 193 198 200 195 184 166 144 123 110 108 116 129 142 149 150 145 137 126 116 109 105 108 115 127 137 142 141 
169 167 162 156 152 151 155 165 179 193 205 215 219 217 205 180 141 98 65 48 47 63 96 141 182 209 223 225 219 199 165 121 83 62 58 68 88 113 134 146 146 137 125 116 115 122 134 146 151 146 129 103 76 55 42 37 38 44 56 74 96 119 139 154 163 167 166 163 159 156 158 164 174 185 193 198 196 189 174 153 129 109 97 93 94 98 99 97 91 83 75 68 64 65 73 89 113 138 157 167 
196 196 190 179 165 150 140 139 146 160 177 194 206 212 209 193 162 120 81 56 47 54 77 115 156 188 207 213 207 188 153 112 77 57 52 59 74 93 110 120 119 111 100 93 91 97 109 123 133 133 123 103 81 61 48 40 37 37 42 51 63 77 92 105 115 121 123 123 122 123 128 138 152 167 180 189 193 190 180 161 137 111 90 75 67 63 59 56 51 46 41 38 38 42 55 78 111 147 174 190 
213 212 205 190 166 139 115 102 102 114 134 159 182 199 205 199 176 140 98 66 49 48 61 88 123 157 180 190 186 167 135 99 70 54 50 56 67 82 94 100 97 89 79 73 71 76 88 103 118 127 125 115 98 81 66 54 46 42 40 41 45 51 59 67 75 80 83 85 86 89 95 105 121 139 158 174 185 188 184 171 148 120 92 69 54 44 38 33 30 27 25 25 27 35 51 79 119 160 190 206 
222 220 211 192 160 122 89 69 64 71 88 115 148 177 195 199 186 157 117 80 56 46 50 66 91 120 144 157 156 141 116 88 67 56 55 60 71 82 90 92 86 76 67 60 58 63 74 91 111 128 137 136 127 113 98 83 69 58 50 44 42 42 45 49 54 58 61 63 63 65 69 77 90 107 129 151 170 182 186 180 163 137 106 77 54 40 30 25 22 20 20 22 26 37 57 90 134 175 202 216 
224 221 211 188 151 106 70 48 39 42 54 77 112 150 180 195 192 172 137 98 68 50 46 53 68 88 108 122 125 116 100 83 71 66 68 76 87 96 100 97 87 74 62 55 53 57 68 87 112 136 153 160 159 152 139 123 106 88 73 61 53 49 48 50 53 56 58 58 57 55 55 58 65 78 98 122 149 172 186 189 180 160 131 98 69 48 34 26 22 21 22 25 32 46 70 106 149 186 209 220 
220 217 205 181 142 96 59 37 28 27 35 52 84 125 165 189 196 185 158 121 86 61 49 48 55 67 82 95 102 102 96 89 86 87 94 104 115 122 122 113 97 80 65 56 54 58 71 93 121 148 169 182 186 183 176 163 147 128 108 92 80 72 70 70 73 75 75 72 66 58 52 49 50 57 72 95 126 157 182 195 195 184 161 130 98 70 50 37 31 29 31 36 45 61 87 122 160 190 208 217 
207 205 194 171 134 91 56 35 25 22 26 40 67 108 153 185 199 196 178 147 111 80 60 52 52 59 70 82 93 101 105 108 112 119 129 140 149 153 148 134 113 91 73 63 61 67 83 107 136 163 184 196 201 202 198 190 178 163 146 130 119 112 109 110 113 114 112 104 90 73 57 46 42 44 53 72 103 141 176 198 206 203 190 167 137 106 80 62 52 49 50 56 67 83 106 134 161 183 197 204 
181 182 176 159 129 92 60 39 28 24 26 37 61 102 149 185 203 206 195 172 139 105 78 62 57 59 68 81 97 112 125 136 146 155 165 174 179 178 170 152 127 102 83 74 74 84 103 128 155 178 194 203 207 208 205 199 191 181 171 163 157 155 155 158 161 162 158 146 124 96 69 49 39 36 41 55 84 124 167 197 213 216 211 197 175 149 123 102 89 84 85 90 99 110 123 137 150 161 170 176 
140 148 151 145 127 100 73 51 37 30 31 41 65 105 152 189 208 213 208 192 165 131 99 76 65 65 73 88 108 130 150 165 176 185 192 197 198 193 181 160 134 108 91 85 90 105 127 152 175 191 201 205 205 202 197 190 184 180 177 177 180 185 190 195 199 200 195 183 158 123 85 55 38 31 33 44 68 108 155 193 215 223 223 216 203 186 166 149 137 131 130 133 136 137 134 131 127 126 128 133 
96 110 125 134 131 116 93 70 52 42 41 50 75 116 161 195 213 219 217 205 183 151 116 89 73 70 78 96 121 148 170 186 197 203 207 208 205 197 180 157 129 106 93 93 105 126 151 174 191 201 204 202 196 186 174 164 158 157 162 172 185 197 208 215 220 221 218 207 184 146 100 62 39 29 28 36 56 93 141 185 212 225 228 226 219 208 196 185 177 173 172 171 167 156 139 117 99 87 83 86 
62 81 105 129 141 138 121 97 75 59 55 65 91 131 173 202 218 223 221 211 192 161 125 94 76 72 80 100 128 159 183 199 208 213 214 211 204 190 169 141 114 95 88 95 114 141 169 190 202 207 205 196 180 159 138 123 115 117 128 148 172 194 211 222 229 231 229 220 200 163 114 69 42 28 25 31 47 79 125 171 203 220 226 226 222 216 209 204 200 199 198 195 186 167 137 103 75 57 50 52 
44 65 97 131 155 161 150 127 99 79 71 80 107 146 183 208 220 225 222 212 191 159 121 89 72 67 75 96 127 161 188 205 213 216 215 209 197 176 148 118 93 79 78 90 116 149 178 198 208 210 202 186 160 128 100 81 73 76 89 113 145 178 204 220 230 234 233 226 208 174 125 77 45 29 24 28 40 66 106 150 186 207 215 217 214 210 207 205 206 208 209 206 195 171 134 92 59 40 32 34 
39 63 99 140 169 180 172 149 119 94 83 91 117 153 188 210 221 224 219 206 181 145 107 77 61 57 66 86 118 155 185 204 213 216 213 203 185 158 124 94 73 63 66 82 111 147 179 200 210 209 199 176 141 103 71 52 45 46 57 79 113 152 187 211 225 231 232 226 211 181 136 87 52 34 27 28 37 56 86 124 158 180 191 193 191 188 188 191 197 204 209 209 198 173 133 87 53 33 26 27 
44 72 112 154 182 192 184 160 127 99 86 92 116 152 186 208 219 220 213 196 165 125 87 61 48 46 54 73 104 142 176 199 210 212 207 193 170 138 103 75 58 52 56 73 101 138 172 196 206 206 194 168 129 88 57 39 31 31 39 55 83 121 161 192 212 223 226 223 211 187 147 101 65 44 35 33 38 50 70 96 122 140 149 151 149 147 151 160 174 190 202 206 198 176 136 91 55 35 28 31 
62 92 133 170 192 197 185 157 121 91 78 82 105 140 176 201 213 214 205 182 146 103 68 46 37 37 44 61 89 127 163 189 201 204 197 181 154 121 89 65 52 48 52 66 91 124 158 183 196 197 187 162 125 86 56 38 29 27 31 41 61 91 129 164 190 206 214 215 208 190 160 122 88 65 52 47 48 53 62 74 87 96 100 99 97 97 103 118 141 167 188 200 197 180 145 103 67 47 39 44 
92 124 159 186 199 197 177 143 105 76 63 66 87 122 160 190 205 207 196 169 128 86 54 37 30 31 38 53 78 113 148 174 187 190 182 164 139 110 84 66 56 53 55 65 83 108 137 161 176 182 176 157 127 94 67 49 38 33 33 37 48 68 96 127 155 177 191 198 199 190 172 147 120 99 84 75 69 66 64 63 64 63 61 59 56 57 63 79 106 141 172 192 196 185 159 123 90 69 63 71 
