P2
100 100
255
131 136 139 141 139 134 126 118 111 107 108 111 118 127 135 142 145 145 141 135 126 117 109 103 99 99 102 107 114 122 128 134 136 137 135 131 127 123 119 116 113 111 111 111 114 119 125 131 137 141 142 139 133 125 116 109 103 101 102 105 110 116 121 126 129 132 133 135 136 136 136 134 132 129 126 123 121 119 117 115 112 109 106 103 101 101 103 108 116 124 133 140 143 143 140 135 130 126 125 127 
140 143 145 145 140 133 123 114 106 102 102 106 113 122 130 138 142 142 140 134 126 118 110 105 102 102 105 110 116 123 128 132 134 133 132 129 127 125 123 121 120 118 116 115 115 116 120 124 130 135 137 138 135 131 125 119 114 112 111 112 114 116 118 119 120 121 123 125 129 133 137 140 141 141 139 136 132 127 122 117 112 107 102 98 97 97 100 105 113 123 131 138 142 143 142 139 135 134 134 136 
146 149 150 148 143 134 123 112 104 99 98 102 109 117 126 134 139 141 139 135 129 122 116 111 109 109 112 116 120 125 128 130 130 128 127 125 125 126 127 129 129 128 125 122 118 116 116 118 121 126 131 135 136 135 133 130 127 124 122 120 119 117 115 113 111 111 113 117 123 131 138 145 149 151 150 147 142 136 129 121 114 107 102 98 97 97 101 107 114 123 131 137 141 142 141 139 138 138 139 142 
150 153 154 152 145 135 124 113 104 99 98 101 107 116 125 132 138 141 141 138 134 129 124 121 119 120 121 124 126 128 128 127 124 122 120 120 122 126 131 136 139 139 136 131 124 118 113 111 113 117 123 130 135 139 140 140 138 136 132 128 123 118 113 108 104 103 105 111 119 129 140 149 155 158 159 156 150 143 135 125 117 110 104 101 101 102 106 111 118 125 131 135 137 138 137 136 136 138 141 146 
151 155 156 153 147 137 126 115 106 101 100 102 108 116 125 133 138 142 143 141 139 136 133 131 131 131 132 133 133 131 128 123 118 114 112 113 118 125 134 142 148 149 147 140 131 121 112 107 106 109 116 124 133 140 145 147 147 144 140 134 126 118 111 104 100 99 101 108 117 129 141 151 159 163 163 160 155 147 138 129 121 114 110 108 108 110 114 119 124 129 132 133 133 131 130 130 131 134 139 145 
149 154 156 154 148 139 128 118 110 105 104 106 112 120 127 134 140 143 144 144 143 141 140 140 141 141 142 141 139 135 128 121 113 107 104 106 112 122 134 146 154 158 156 149 138 125 113 105 101 103 109 119 130 139 147 151 152 149 144 136 127 118 109 103 99 98 101 108 118 130 142 152 159 163 163 161 155 148 139 131 123 118 116 116 118 121 125 129 132 133 132 130 127 123 121 121 123 128 134 142 
145 151 153 152 147 139 129 120 113 110 109 112 118 124 131 137 141 143 144 144 143 143 144 145 147 148 149 148 144 138 129 119 109 101 98 99 106 118 132 146 157 163 162 156 144 130 115 104 99 99 105 115 127 138 147 152 153 150 144 135 126 116 108 103 100 101 104 111 121 132 142 151 156 159 159 156 151 144 137 130 125 122 122 124 128 132 136 139 139 137 133 126 120 114 111 111 113 119 128 137 
140 147 149 148 144 137 129 121 116 114 115 119 124 130 135 139 141 141 141 140 140 141 142 145 148 151 152 151 147 140 130 118 107 98 94 95 101 113 129 144 157 164 165 160 149 134 119 106 99 99 104 113 125 136 145 150 150 147 140 132 123 115 109 105 104 106 111 118 125 134 141 147 151 152 151 148 143 138 133 128 125 125 127 132 137 142 146 147 146 140 132 123 113 106 102 101 105 112 121 131 
136 142 144 143 139 132 126 121 118 118 121 125 130 134 137 139 138 137 134 133 132 133 136 140 145 149 152 152 149 142 132 120 108 98 93 93 99 110 125 141 155 163 165 161 151 137 123 110 103 101 105 114 125 135 143 147 146 142 135 126 119 113 110 109 111 115 120 126 131 136 139 142 142 142 140 137 134 130 127 125 125 127 132 138 144 150 154 154 150 143 132 120 108 99 95 94 98 106 116 127 
133 138 139 137 133 127 122 119 119 121 125 130 135 138 138 137 134 129 125 122 121 123 126 132 138 144 149 150 149 144 135 123 112 102 96 94 99 108 122 137 150 159 163 160 152 140 127 115 108 106 110 118 127 136 141 143 141 135 128 121 115 112 112 115 120 125 130 134 137 138 137 135 133 130 128 126 124 122 122 122 124 128 134 141 149 155 158 158 153 144 131 117 104 95 90 90 95 103 114 124 
132 136 135 132 126 121 118 117 118 123 128 134 138 139 138 133 127 121 115 111 110 111 115 122 130 137 143 147 147 144 137 128 118 108 102 100 102 109 120 133 145 154 158 157 151 141 131 121 115 114 117 123 130 137 140 140 135 129 121 115 111 111 115 121 129 135 140 143 142 139 134 129 124 120 118 117 116 117 118 120 123 128 135 143 150 156 160 159 154 144 131 116 103 94 89 90 96 104 115 125 
133 135 132 127 121 116 113 114 118 124 131 137 140 139 135 129 120 112 105 101 100 102 106 114 122 130 138 143 145 144 139 133 125 117 111 108 109 113 121 130 140 147 151 151 148 141 133 126 122 121 124 129 134 138 139 136 130 123 115 110 109 111 118 127 136 144 149 150 146 140 132 124 117 113 111 111 113 115 117 120 123 128 134 141 149 155 158 158 153 143 130 116 104 95 92 93 100 109 119 128 
136 135 131 124 117 112 111 113 118 126 133 139 141 139 133 124 114 104 98 94 93 96 101 109 117 125 132 138 141 142 141 137 133 128 123 119 118 119 123 128 134 140 144 145 143 139 135 130 128 128 130 133 137 139 137 133 126 118 110 106 106 111 120 131 142 151 155 154 149 141 131 121 114 110 109 110 113 116 119 121 124 127 132 138 145 151 154 155 151 142 130 117 106 99 97 99 106 116 125 133 
140 137 131 123 115 110 110 113 120 128 136 141 142 138 130 120 109 100 94 91 92 95 101 108 116 123 129 133 137 139 140 141 139 137 134 131 128 126 126 127 129 132 135 137 137 136 134 132 132 132 134 136 138 138 135 130 122 114 107 104 105 111 121 134 145 154 158 157 151 142 131 121 114 111 111 114 117 120 122 123 124 125 128 132 138 144 148 150 147 140 130 119 110 104 103 107 114 124 132 138 
143 139 131 122 114 110 110 115 122 131 139 143 143 138 129 118 107 98 93 92 95 99 106 112 118 123 126 129 132 135 138 141 144 145 144 141 137 132 128 125 124 124 126 128 130 131 132 133 133 134 136 137 138 136 133 127 120 112 106 103 105 111 121 133 145 153 157 156 150 141 132 123 117 115 117 120 124 126 127 125 123 122 122 125 130 136 141 143 142 138 130 121 114 110 110 115 122 131 139 143 
145 139 131 122 114 111 112 117 125 134 142 145 144 138 128 117 107 100 97 98 102 108 114 120 123 124 125 125 126 129 134 140 145 149 151 149 144 137 130 123 119 117 117 119 123 126 129 131 133 134 135 136 135 134 130 125 119 112 107 105 106 112 120 131 142 149 153 152 147 140 132 125 122 121 124 127 131 132 130 127 122 118 116 117 121 127 132 136 137 135 130 123 118 115 116 121 129 137 143 146 
144 138 130 121 114 112 113 119 128 137 144 147 145 139 129 119 110 105 104 107 113 119 125 129 129 127 123 120 120 122 128 136 144 151 154 153 148 140 129 120 113 109 109 111 116 121 126 130 132 133 133 133 132 130 128 124 119 115 110 108 109 112 119 127 136 142 145 145 142 137 131 127 126 127 131 134 136 136 133 127 120 114 110 110 113 119 125 130 133 132 129 125 121 119 121 126 133 140 145 147 
142 136 128 120 114 112 114 120 129 138 145 147 146 140 131 122 115 112 113 117 124 131 136 137 134 128 121 115 112 114 121 131 141 150 155 155 149 139 127 116 107 102 102 105 111 118 124 128 131 131 130 129 128 127 126 124 122 120 117 114 114 115 118 123 128 133 135 136 135 132 130 129 130 132 136 139 140 138 133 125 116 109 105 105 108 113 120 126 130 131 129 126 123 122 124 129 135 140 144 145 
139 133 125 117 112 111 113 119 128 136 143 146 144 139 132 125 120 119 122 128 135 141 144 143 137 127 117 109 105 107 114 125 137 148 154 154 148 137 123 111 101 96 97 101 108 116 124 128 130 129 127 125 124 124 125 126 127 127 125 123 121 119 118 118 120 122 124 125 126 126 127 129 132 135 139 141 141 137 131 122 113 106 102 101 105 111 118 124 129 131 130 128 126 125 127 130 135 140 143 142 
136 130 122 115 110 109 111 117 124 132 139 142 142 138 133 128 125 126 130 136 143 148 149 145 137 125 113 103 99 100 108 119 133 144 151 151 145 133 119 106 97 93 94 100 108 118 126 130 131 129 125 122 120 121 124 128 133 135 136 133 129 124 119 115 113 112 113 115 117 120 124 128 133 137 140 142 140 135 128 119 110 103 100 101 105 111 119 125 130 132 132 130 129 128 129 132 135 139 141 140 
135 129 121 114 109 107 108 113 119 126 133 136 137 135 133 130 129 132 136 143 148 152 151 145 134 121 108 98 94 95 103 116 130 142 148 148 141 129 115 102 94 91 94 101 112 122 130 134 134 130 124 119 117 118 123 130 138 144 146 144 139 131 122 114 108 104 104 106 110 115 121 127 133 138 141 141 138 132 124 115 108 103 101 102 107 114 122 129 134 136 136 134 132 131 132 134 136 139 140 139 
136 130 122 115 110 106 106 109 114 120 125 129 132 132 131 131 132 136 140 146 150 152 149 141 130 116 103 95 91 94 102 115 128 140 146 145 138 126 112 101 94 92 97 106 118 129 137 140 138 132 123 116 113 115 121 131 142 150 154 154 148 138 126 114 105 99 98 100 105 112 120 128 134 139 140 139 135 128 121 113 107 103 103 106 111 119 127 133 138 140 140 138 136 135 135 136 138 140 141 139 
139 133 126 119 112 108 105 106 109 114 119 123 126 128 130 132 134 138 143 147 150 150 146 137 126 113 101 94 92 95 104 116 129 140 145 143 136 124 111 101 96 96 103 114 127 138 146 147 143 134 123 114 109 111 118 130 143 154 160 161 155 144 130 115 104 97 95 97 103 112 121 130 136 140 140 138 132 126 118 112 107 105 106 110 116 124 131 138 142 143 143 141 139 138 138 139 141 142 143 142 
143 139 132 125 117 111 107 106 107 110 114 118 122 126 129 132 135 139 143 146 148 147 142 134 123 112 102 97 96 100 109 121 133 141 145 143 135 124 112 104 101 103 111 124 137 148 154 154 148 136 123 111 105 106 113 126 142 155 163 165 160 149 134 118 105 97 95 98 105 114 124 133 139 141 140 136 130 123 117 111 108 107 110 114 121 128 135 140 143 144 143 142 139 138 138 139 142 144 146 145 
148 144 139 132 124 117 112 109 108 109 112 116 121 125 129 133 136 140 143 145 145 143 138 131 122 113 106 103 104 109 118 128 137 144 146 142 135 125 115 108 107 111 121 134 147 157 162 160 152 138 122 109 101 100 107 121 137 152 163 166 162 151 136 120 107 99 96 100 108 118 128 137 142 143 140 135 128 122 116 112 110 110 113 118 125 131 137 141 143 142 141 138 136 135 135 137 140 144 147 148 
150 149 145 139 132 125 118 114 112 112 114 118 122 126 130 134 137 139 141 142 141 139 134 128 122 116 113 112 114 120 127 136 143 147 146 142 134 125 117 113 113 119 130 143 155 164 167 164 155 140 122 106 97 95 101 114 131 147 159 164 161 152 138 122 109 101 100 104 112 123 133 140 143 143 139 133 126 120 115 113 112 114 117 122 127 132 136 138 139 137 134 131 128 127 128 130 134 140 145 148 
150 151 149 145 139 132 125 121 118 118 119 122 126 130 133 136 137 138 138 138 136 133 130 126 123 121 120 122 125 131 137 143 147 148 146 141 133 125 119 116 118 125 136 149 160 168 170 166 156 140 122 105 94 91 96 108 124 141 154 160 159 151 138 123 111 104 104 108 117 127 136 142 143 141 137 130 124 119 116 115 116 118 122 126 129 132 134 134 132 129 125 120 117 116 116 119 125 132 139 145 
146 149 149 147 142 136 131 127 125 125 126 129 132 135 137 138 137 136 134 132 130 127 125 124 123 125 127 131 136 141 146 149 150 149 145 138 131 124 119 117 120 127 138 150 160 167 170 166 156 140 122 105 94 89 93 103 118 134 147 154 154 147 136 124 113 107 107 112 120 129 137 141 141 138 133 127 122 118 117 118 121 124 127 130 132 133 132 129 125 120 114 109 104 102 103 107 113 121 131 139 
139 144 146 145 142 138 134 131 130 131 133 136 138 140 140 139 137 133 129 125 122 120 119 120 122 127 132 138 143 148 151 152 151 147 141 134 126 119 115 115 118 125 135 146 156 163 166 163 154 140 123 107 96 91 93 101 114 129 141 148 149 144 134 123 115 110 110 115 123 130 136 138 137 133 128 123 120 119 120 123 127 131 134 135 135 134 131 126 120 112 105 98 93 91 91 95 101 110 121 131 
131 137 140 139 137 135 133 132 133 135 139 142 144 145 143 140 135 129 123 118 114 112 112 115 120 126 134 141 148 152 154 153 149 143 135 127 120 114 110 110 113 119 128 138 148 155 158 157 150 139 125 111 100 95 96 102 113 126 137 143 144 140 132 123 116 112 113 117 123 129 133 133 131 127 122 119 119 121 125 130 135 139 141 141 140 137 132 125 117 108 100 92 86 83 83 86 92 101 112 122 
125 130 132 132 130 128 128 129 132 137 141 145 147 147 145 140 133 125 118 111 107 105 106 109 116 124 134 142 149 153 153 151 145 138 129 120 112 107 104 103 105 111 118 127 136 143 148 149 145 137 127 116 107 102 102 107 115 125 134 139 140 136 130 122 117 114 115 119 123 127 129 128 125 121 118 118 120 125 131 138 143 147 148 148 145 140 134 127 118 109 100 91 85 81 80 83 88 97 107 117 
121 125 125 123 121 120 121 124 129 135 141 146 148 148 145 139 130 121 113 106 101 99 101 105 113 122 132 141 148 151 151 147 141 132 123 113 106 100 97 97 98 102 107 114 122 130 136 139 139 136 129 122 115 111 110 114 120 127 134 137 137 134 128 122 118 116 117 120 123 125 126 124 120 117 116 118 123 130 138 146 151 154 154 153 149 144 138 132 124 115 106 97 90 86 84 86 91 99 107 115 
122 123 121 117 114 112 113 117 123 131 138 143 146 146 142 136 128 119 110 103 99 97 99 103 111 120 130 139 145 148 148 143 136 127 117 108 101 96 93 92 92 95 99 104 111 118 125 131 134 134 132 128 124 121 120 122 126 131 135 137 136 132 127 122 119 118 119 121 123 124 123 121 118 116 116 120 127 136 144 152 156 158 157 154 151 147 142 137 131 124 117 109 102 98 96 97 101 107 113 119 
128 125 120 114 110 107 107 111 117 125 132 138 142 142 139 133 126 117 110 104 100 99 101 105 112 120 129 137 143 145 144 139 131 122 113 105 99 94 91 90 90 92 94 98 103 110 117 123 129 132 133 133 131 130 129 130 133 135 137 137 135 131 127 123 120 119 120 122 123 124 122 120 118 117 119 124 132 141 149 155 158 158 155 152 148 145 143 142 140 136 131 125 120 115 113 113 116 120 124 127 
135 130 123 115 109 105 105 107 113 119 126 132 135 136 134 130 124 118 113 108 106 105 107 111 116 123 130 136 140 142 140 135 128 119 111 104 99 95 94 93 93 94 95 98 101 106 112 119 125 130 134 136 137 137 137 137 138 139 139 138 135 131 126 123 120 120 121 123 124 124 123 121 119 120 123 128 136 144 150 154 154 152 148 143 140 139 141 143 146 147 146 143 139 135 132 132 133 135 137 138 
143 137 129 120 112 107 105 107 110 115 120 125 128 129 128 126 124 121 118 116 115 115 117 119 123 128 133 136 139 139 136 131 124 117 110 105 102 100 99 100 100 101 102 103 104 107 111 117 123 129 133 137 140 141 142 142 142 142 141 138 134 130 126 122 120 120 122 124 125 125 125 123 122 123 126 131 138 144 148 148 146 140 134 130 127 129 134 141 148 154 157 157 155 152 149 148 148 148 148 147 
148 142 135 126 119 113 110 109 110 113 116 118 121 122 123 123 124 124 125 126 126 127 128 130 132 134 135 137 137 135 132 127 121 116 111 108 106 107 109 111 112 113 113 113 112 113 114 117 121 126 131 136 139 142 143 144 144 143 141 138 133 129 125 121 120 121 122 125 126 127 127 126 125 126 129 133 137 140 141 138 133 125 118 113 112 116 124 135 147 156 163 165 165 162 160 158 156 156 155 152 
150 145 140 133 127 121 117 115 113 113 113 113 114 116 118 121 125 129 133 136 138 139 140 140 139 139 138 136 134 132 128 123 118 114 112 111 112 116 120 124 127 128 128 126 123 121 119 119 120 124 128 132 136 139 142 143 143 142 140 136 132 127 123 121 120 121 123 125 127 128 128 128 127 127 129 131 134 134 132 126 118 109 101 96 97 102 113 127 142 155 163 167 167 165 162 159 157 155 154 152 
146 145 143 139 135 131 126 122 118 115 112 110 110 112 115 120 127 133 139 144 147 149 148 147 144 142 138 135 131 127 123 119 115 113 112 114 118 124 131 137 142 144 143 140 135 129 124 120 119 120 123 127 131 135 138 140 140 139 137 134 130 126 122 120 120 121 124 126 129 130 130 129 128 127 127 128 128 126 121 114 105 96 88 84 85 91 103 119 135 150 159 164 164 161 157 152 149 147 147 147 
139 141 143 143 142 139 135 130 124 118 112 109 107 109 113 120 128 137 144 150 153 154 153 150 146 142 137 132 128 124 119 116 113 112 113 117 124 132 140 148 153 156 155 150 144 135 128 121 117 117 118 121 125 129 132 135 135 135 133 131 127 124 122 121 121 123 126 128 130 131 130 128 127 125 124 123 122 119 113 105 96 87 81 78 79 86 97 113 129 143 152 156 155 151 145 139 135 133 134 136 
129 135 141 145 146 146 142 137 129 121 114 109 107 108 113 121 130 139 147 152 155 155 153 149 144 139 134 129 125 121 117 114 112 112 115 120 128 137 147 155 161 163 161 157 149 139 129 121 116 114 114 117 120 124 127 129 130 129 128 127 125 123 122 122 124 126 129 131 132 132 130 127 125 122 120 119 117 114 108 101 93 86 80 78 80 86 97 111 125 137 144 146 143 137 129 123 118 117 119 123 
119 128 137 144 149 150 147 142 134 125 117 111 108 109 114 122 131 140 147 151 153 152 149 144 139 134 130 126 123 120 117 115 114 114 117 123 131 140 150 158 163 165 163 158 149 139 129 120 115 112 112 114 117 120 122 123 124 123 123 122 122 122 124 126 128 131 134 135 135 133 130 126 122 119 117 115 114 112 108 103 97 91 87 85 87 92 101 113 124 133 137 136 130 122 114 107 103 102 105 111 
112 123 134 143 149 152 150 145 137 128 120 113 110 111 116 123 131 139 144 147 147 145 141 137 132 129 126 124 123 121 120 118 118 119 121 126 133 141 150 157 161 162 160 154 145 136 126 119 115 113 114 115 117 119 119 119 118 117 116 117 119 122 126 130 134 138 140 140 138 134 129 124 119 116 114 114 114 114 113 110 106 102 99 98 100 104 111 119 126 131 132 128 120 111 103 96 92 92 96 102 
109 120 131 141 148 151 151 146 139 131 123 116 114 114 118 124 131 136 140 141 139 136 132 128 125 124 123 124 125 125 125 125 125 125 126 130 135 141 147 152 155 155 152 146 138 130 123 119 117 117 119 120 121 121 119 116 113 111 110 112 116 121 128 135 141 145 146 145 141 136 129 122 117 114 113 114 117 119 121 121 120 118 116 115 116 119 123 128 131 132 129 123 114 105 97 91 88 89 92 99 
109 119 130 139 146 149 149 145 139 132 125 119 117 117 120 125 129 133 134 133 130 126 122 120 119 120 123 126 130 132 133 133 132 132 132 134 136 140 143 146 146 145 141 135 129 124 120 120 121 124 127 129 129 126 121 115 109 105 104 107 113 121 130 139 147 151 152 149 144 137 128 121 115 113 114 117 122 127 131 133 134 134 133 132 133 134 135 136 136 133 128 121 112 104 97 92 90 91 95 101 
113 121 129 136 142 145 145 143 138 132 126 122 119 119 121 124 127 128 127 125 121 118 115 114 116 119 125 130 135 139 141 141 140 138 137 136 137 138 138 138 136 133 129 124 120 118 118 122 127 133 138 140 139 133 125 115 107 101 99 102 110 120 132 143 151 156 156 152 146 137 128 120 115 113 115 120 127 134 140 144 146 147 146 146 145 144 144 142 139 135 128 121 113 106 101 98 97 98 102 107 
119 123 128 133 137 140 140 139 136 131 127 123 121 121 121 123 123 123 121 118 114 112 110 111 115 121 128 135 141 145 147 147 145 142 140 138 136 134 133 130 126 122 117 113 111 112 117 124 134 143 149 151 149 141 130 117 106 98 96 99 107 119 133 145 154 158 158 153 145 136 126 119 115 115 118 124 132 140 146 150 153 153 153 152 151 149 147 144 140 134 128 121 116 111 108 107 107 109 111 115 
124 125 127 129 131 133 134 134 132 130 127 124 122 121 120 120 120 118 116 113 110 109 109 112 117 125 132 140 145 149 150 148 146 143 139 136 133 131 128 123 118 113 108 105 104 108 116 127 139 151 158 161 158 149 135 120 106 97 93 96 105 118 132 145 154 158 157 152 143 134 125 118 116 117 122 128 136 143 148 152 153 153 152 151 149 147 145 141 137 132 127 122 119 117 116 117 119 120 122 123 
128 126 124 124 124 126 127 128 128 127 126 124 122 120 119 118 117 115 112 110 109 109 111 115 122 129 137 143 147 149 148 146 142 138 135 132 129 127 123 119 113 107 102 99 100 105 115 128 143 156 164 167 164 154 139 122 107 97 93 96 105 117 132 144 152 156 154 148 140 131 123 118 117 120 125 132 138 144 147 148 148 146 145 143 142 140 139 136 133 129 126 123 122 122 124 127 129 131 131 130 
130 125 120 118 117 119 121 123 125 126 125 124 122 120 118 116 115 113 111 110 110 112 115 121 127 134 140 145 147 146 143 139 134 130 127 125 124 123 121 117 112 106 100 97 98 103 114 128 143 157 166 169 166 156 141 124 109 98 95 97 106 118 131 142 149 151 148 142 134 127 121 119 120 124 129 135 139 142 142 141 138 136 133 132 131 131 131 130 128 126 125 124 125 127 131 135 138 139 137 134 
129 122 116 112 111 112 115 119 122 125 126 125 123 121 119 116 115 113 112 113 114 117 121 127 133 139 143 144 144 140 135 129 124 120 118 118 119 120 120 118 114 108 102 98 98 102 112 125 141 154 163 167 164 154 140 124 111 101 98 101 109 120 131 139 144 144 141 135 129 123 120 120 123 128 133 137 139 139 136 132 128 124 121 120 121 122 124 125 125 125 125 126 128 131 136 140 143 143 141 136 
128 120 112 108 106 108 112 117 122 125 127 127 126 123 121 118 117 116 116 117 119 123 127 132 138 141 143 143 139 133 126 118 113 109 109 111 115 119 122 122 119 113 107 101 99 102 109 121 135 148 156 160 157 149 137 124 113 106 104 107 115 123 132 137 139 137 133 128 123 120 120 123 127 132 137 139 139 135 130 123 117 113 111 111 113 117 120 123 125 126 127 128 131 135 139 143 146 146 143 136 
127 117 110 105 104 106 111 117 123 128 130 131 129 127 125 122 121 120 120 122 124 128 132 137 140 143 143 140 134 126 117 109 103 101 102 106 113 120 126 128 126 121 114 107 103 102 107 116 127 138 146 150 148 141 132 122 114 111 111 115 122 129 134 136 134 131 126 121 118 118 121 125 131 137 140 141 138 132 124 117 110 106 105 106 110 116 121 125 128 129 130 132 134 137 142 145 147 147 143 136 
126 116 109 105 104 107 112 119 126 131 135 135 134 132 129 127 126 125 126 127 129 132 135 139 141 142 141 137 130 121 112 103 97 95 98 104 113 123 131 136 136 131 123 114 107 104 105 111 119 128 134 137 136 132 125 120 116 116 119 125 130 135 137 135 131 125 119 115 114 117 122 129 135 140 142 141 136 129 120 112 106 103 103 106 112 118 124 129 132 134 134 135 136 139 143 146 147 146 142 135 
126 117 110 106 106 110 116 124 131 136 139 140 139 137 134 132 131 130 130 131 132 134 136 138 140 140 139 135 128 119 110 101 96 94 97 105 115 127 137 144 144 140 131 121 112 107 105 108 113 119 124 125 125 122 118 116 117 121 127 134 139 141 140 135 128 120 114 111 112 117 124 132 138 143 144 141 135 127 118 110 105 104 105 110 116 123 129 134 136 137 137 137 138 140 143 146 147 146 142 135 
126 118 112 109 110 114 121 129 136 141 144 144 143 141 138 136 135 134 133 133 133 133 134 136 137 138 137 134 128 120 111 103 98 96 100 107 119 132 143 150 151 147 139 128 118 111 107 107 110 113 116 116 115 113 112 113 118 125 133 141 146 147 143 135 126 117 111 109 111 117 126 134 141 144 143 139 133 125 117 111 107 107 110 115 122 128 134 137 138 138 137 136 137 139 142 145 146 145 141 135 
127 119 114 112 113 118 126 134 140 145 147 147 145 142 140 137 136 134 133 132 131 131 131 132 133 134 135 134 130 124 116 109 103 101 104 111 123 135 146 154 155 152 144 133 123 115 111 110 111 112 113 112 110 108 108 111 118 128 138 146 151 150 144 134 123 114 108 107 111 118 127 135 141 143 142 137 130 123 116 112 110 111 115 120 126 131 135 137 137 135 134 133 134 136 140 143 145 144 141 134 
126 120 115 114 116 122 129 137 143 147 148 147 144 141 138 136 134 132 131 130 128 127 126 127 129 132 134 135 133 129 123 116 110 107 109 115 125 137 147 154 156 153 145 136 127 120 116 115 115 115 114 112 108 106 106 110 118 129 140 148 152 151 143 132 121 111 106 106 111 119 128 136 141 142 139 134 127 121 117 114 114 116 119 123 127 130 132 132 131 129 127 127 129 133 137 141 143 143 140 134 
125 118 114 114 117 123 131 139 145 147 147 145 141 137 133 131 129 128 127 125 124 123 122 124 126 130 134 137 137 135 129 123 117 113 114 118 126 136 145 151 153 150 144 136 129 124 122 122 123 123 121 116 111 107 106 110 118 129 140 148 152 149 141 129 117 108 104 105 111 119 128 135 139 138 135 130 124 120 117 116 117 119 122 125 126 127 126 124 122 120 119 120 124 129 134 139 142 142 138 132 
121 115 111 111 115 122 131 138 144 146 145 141 136 131 126 124 122 122 121 121 120 119 120 122 125 130 135 139 141 139 135 129 122 118 116 119 125 133 140 145 147 145 140 134 130 128 128 130 132 132 129 124 117 112 109 111 118 128 138 146 149 145 137 125 114 106 103 105 111 120 128 133 136 134 131 126 122 119 118 119 120 122 123 124 123 121 118 115 112 111 111 114 119 126 133 138 141 140 136 129 
117 110 106 107 111 119 128 136 141 143 141 136 130 124 119 116 115 115 115 116 117 118 119 122 127 132 137 141 143 142 138 132 125 119 117 118 122 128 134 138 140 138 135 131 129 130 133 137 141 142 139 133 125 117 113 114 119 127 136 143 145 141 132 122 111 105 103 106 112 120 127 131 132 130 126 122 119 118 119 121 123 124 124 123 119 115 111 107 105 104 106 111 118 126 134 139 141 139 134 125 
111 104 100 101 106 114 124 133 139 140 138 132 125 118 113 110 108 109 111 113 116 118 121 125 130 135 140 143 144 143 138 132 125 119 115 115 118 123 128 131 133 131 129 127 128 131 136 142 147 149 147 141 132 124 118 117 120 127 135 140 141 137 129 119 110 105 104 108 114 121 127 129 129 126 122 119 117 118 120 123 126 126 125 122 117 111 106 103 101 102 106 112 121 130 138 142 143 139 131 121 
107 98 94 95 101 110 120 130 136 138 136 130 123 115 109 105 104 106 108 112 116 120 125 129 134 138 142 144 144 141 136 129 122 116 113 113 115 119 123 126 127 127 125 124 126 130 137 145 150 153 151 145 137 128 122 120 122 128 134 138 139 135 127 119 112 108 108 112 118 124 127 128 126 122 118 116 116 118 122 126 129 129 127 122 117 111 106 102 102 105 110 118 128 137 144 147 146 140 130 118 
103 94 90 91 97 106 117 128 135 138 136 131 123 115 108 104 103 104 108 113 119 124 130 135 139 142 143 143 141 137 131 124 118 113 110 111 114 118 122 125 125 125 123 123 125 129 136 144 150 153 151 146 138 130 125 123 125 129 135 138 138 135 129 122 116 114 115 119 124 128 129 128 124 119 116 114 115 119 124 129 132 132 130 125 119 113 109 107 108 112 119 128 137 145 151 152 149 141 129 115 
101 92 88 90 96 105 117 128 136 139 138 133 126 118 111 106 105 106 110 115 122 129 135 140 143 144 144 141 137 131 125 118 113 110 109 111 114 119 123 126 127 126 124 123 124 128 134 141 146 148 147 143 136 129 125 124 127 132 137 140 140 137 133 127 123 122 124 128 131 133 132 129 123 118 114 113 116 121 127 132 135 136 133 129 124 119 116 115 118 123 130 139 147 154 157 157 152 142 128 114 
101 93 90 91 97 107 119 130 138 142 142 138 131 123 116 111 108 109 113 119 126 133 139 144 146 145 143 138 132 125 118 113 109 108 109 113 118 123 128 131 131 130 127 125 125 127 131 135 139 140 139 135 130 126 123 124 128 134 140 143 144 142 138 134 132 132 134 137 140 140 136 131 124 117 114 113 117 122 129 135 138 139 137 133 129 125 124 125 128 134 141 148 155 159 161 159 152 142 128 113 
103 97 94 97 103 112 123 134 141 146 146 142 136 129 122 116 114 114 117 123 130 137 143 146 147 145 140 133 126 119 113 109 107 108 111 117 123 129 134 137 137 135 132 129 127 126 127 129 130 130 128 125 121 119 120 123 129 136 142 146 147 146 143 141 140 141 144 146 147 145 140 133 125 118 114 114 118 125 132 137 141 141 139 136 133 131 131 133 137 142 148 154 159 161 161 157 150 139 127 114 
107 103 102 105 112 120 130 138 145 148 149 146 141 134 128 122 119 119 121 126 133 140 145 147 147 143 136 128 120 113 108 106 106 110 115 122 130 136 140 142 142 140 136 132 128 126 125 124 122 120 117 114 112 112 115 121 129 137 144 148 149 148 147 145 146 147 150 152 152 150 143 135 126 119 116 117 121 127 134 139 142 142 140 138 135 134 135 138 142 146 151 154 157 157 156 151 144 135 125 115 
113 111 113 117 123 130 137 143 147 150 149 147 143 137 132 127 124 123 125 130 135 141 145 147 145 140 132 123 115 109 105 105 108 113 120 128 136 142 145 147 146 143 139 134 130 126 123 119 116 112 108 105 104 106 111 119 128 137 144 148 149 148 147 146 147 149 152 154 154 151 145 136 128 121 119 120 124 130 136 141 142 141 139 136 134 133 135 137 141 144 147 149 149 148 145 141 135 129 122 116 
118 121 124 129 134 139 143 146 148 148 148 146 142 138 134 130 127 127 128 132 137 142 145 145 142 136 128 119 111 106 104 105 110 117 126 134 141 146 148 148 147 143 140 135 131 127 122 118 112 107 102 99 99 101 108 116 126 136 142 145 146 144 142 141 143 146 149 152 152 149 143 136 128 123 122 123 128 134 138 141 141 139 135 132 129 129 130 132 135 137 139 139 137 135 132 128 125 121 119 118 
124 129 135 139 143 145 147 147 146 145 144 142 139 136 133 131 129 129 131 134 138 142 144 143 139 132 123 115 108 104 103 107 113 121 130 138 144 147 148 147 145 141 138 134 131 127 123 118 112 106 101 97 97 100 106 115 125 133 139 141 139 136 134 132 134 137 141 144 145 143 139 133 128 125 124 127 132 137 140 141 139 135 130 125 122 121 122 124 126 127 127 126 124 121 118 116 114 114 116 119 
128 136 142 146 149 149 147 145 142 140 138 136 134 133 131 130 129 130 132 135 138 141 142 141 136 129 120 112 105 103 103 108 116 124 133 141 145 147 146 143 140 137 134 131 130 128 125 120 115 108 103 99 98 101 107 115 124 131 135 135 131 127 122 120 121 124 129 133 135 135 133 129 126 125 127 131 135 139 141 140 136 130 123 118 114 113 113 115 116 117 116 115 112 109 107 106 107 110 115 121 
131 139 145 149 150 148 145 141 137 133 131 130 129 129 129 128 129 130 132 135 138 141 141 139 134 126 118 110 104 102 104 109 117 126 135 141 145 145 142 138 134 130 128 127 127 127 126 124 119 114 108 104 103 105 110 117 124 129 131 128 123 117 111 108 108 111 116 121 124 126 125 125 124 126 129 133 138 141 141 138 132 125 117 111 107 105 106 107 109 110 109 107 105 102 101 101 103 108 115 123 
132 139 144 146 146 144 140 135 131 127 125 124 124 125 125 126 127 128 131 134 137 140 140 138 133 126 117 109 104 102 103 109 117 126 134 140 143 142 138 133 128 124 122 123 125 127 128 128 125 120 115 111 110 111 115 120 126 129 128 124 117 109 103 99 98 101 105 110 114 117 119 120 122 125 130 135 139 141 140 136 129 120 112 105 102 100 101 103 106 107 107 106 104 102 102 102 105 110 116 124 
131 136 139 140 139 136 133 129 125 122 121 121 121 122 122 123 123 125 128 131 135 138 139 138 133 126 118 110 104 102 103 108 115 124 132 138 141 140 135 130 124 120 118 119 122 126 129 131 130 127 123 119 117 118 121 125 128 130 128 122 114 106 99 94 93 94 98 103 107 111 114 117 120 125 131 136 140 141 138 133 125 116 108 103 100 100 102 105 108 110 111 111 110 109 109 109 112 115 120 125 
128 130 131 131 130 128 125 123 121 120 120 120 120 120 119 119 119 120 123 126 131 135 138 138 135 129 121 113 107 103 103 106 113 121 129 136 139 138 134 129 122 117 115 116 120 125 130 133 134 133 130 127 125 124 126 129 131 132 129 124 116 108 100 95 94 94 97 100 104 108 111 115 120 125 131 136 139 139 136 130 122 113 107 103 101 103 106 110 115 118 120 121 121 121 121 121 121 123 124 126 
125 123 122 121 120 120 120 120 120 121 121 121 120 119 117 115 114 114 116 121 126 132 137 139 138 134 127 119 111 106 104 105 110 118 126 133 137 138 135 130 124 118 115 115 119 124 130 134 137 137 135 132 130 130 131 133 135 135 133 128 122 114 107 103 100 100 101 103 106 109 112 116 121 126 132 136 138 137 133 127 119 112 107 105 106 109 114 120 125 129 132 134 135 135 134 133 132 130 129 127 
121 117 114 112 112 114 116 119 122 124 125 124 122 119 115 111 109 108 109 114 120 128 135 140 142 140 134 126 118 110 106 105 108 115 123 131 137 139 138 133 127 121 117 116 119 123 129 134 138 139 138 136 134 133 133 135 137 138 137 134 130 124 119 115 112 110 110 110 111 112 115 118 123 128 132 136 137 135 131 124 118 113 110 110 113 118 125 131 137 141 144 146 147 147 146 144 141 137 132 126 
118 112 108 107 108 112 116 121 126 129 130 129 126 121 115 109 104 102 103 107 115 124 134 142 147 147 143 136 126 117 110 106 107 112 120 129 136 140 141 138 132 126 121 119 120 123 128 134 137 139 139 137 135 133 134 135 137 139 140 140 138 136 132 129 126 124 121 120 118 118 119 122 125 130 134 136 136 134 129 123 118 114 114 116 121 128 135 141 146 150 152 154 154 154 153 151 146 140 133 125 
116 109 106 105 108 113 119 126 132 135 136 135 130 123 115 108 101 98 98 102 110 121 133 144 151 154 152 145 135 124 115 109 107 111 118 127 135 141 143 142 137 131 125 122 121 124 128 133 137 138 138 136 134 132 131 133 135 138 141 144 145 145 144 142 140 137 133 129 126 124 123 125 128 132 136 137 137 134 129 123 119 117 118 122 129 136 143 149 152 155 156 156 156 155 154 152 147 141 133 124 
116 110 107 108 111 117 125 132 138 141 142 140 135 127 118 109 101 96 95 98 106 118 131 144 154 159 159 154 144 132 121 112 109 110 116 125 134 141 144 144 140 134 128 125 123 125 129 133 136 138 137 134 131 129 128 128 131 135 139 144 148 151 152 152 150 146 142 136 131 128 127 128 131 135 138 139 138 134 129 124 121 120 122 127 134 142 148 152 154 154 153 152 151 150 150 148 144 139 131 123 
118 114 112 114 118 124 131 137 143 146 146 144 139 132 123 113 105 98 96 98 104 116 130 144 156 162 164 160 151 139 126 116 110 110 114 122 131 138 143 143 140 135 130 126 125 126 129 133 136 137 135 132 128 125 123 122 124 128 134 140 146 151 154 155 154 151 146 140 134 130 128 129 132 136 140 141 140 136 131 126 123 122 125 131 137 144 148 150 150 148 145 142 141 140 140 140 138 134 129 123 
122 120 120 122 125 130 136 141 145 147 148 147 143 137 129 120 111 104 100 99 104 114 127 142 154 162 165 163 155 143 130 119 112 110 113 119 127 134 139 140 138 134 130 127 126 127 130 134 136 136 134 131 126 121 118 116 117 121 126 133 140 146 151 153 153 150 145 139 133 129 128 129 133 138 142 143 142 138 133 128 125 124 127 131 137 142 144 144 141 137 133 129 127 127 129 130 131 130 128 125 
128 128 128 130 132 135 138 141 144 145 147 147 146 142 137 129 121 112 106 103 105 112 124 137 149 159 163 161 155 145 132 121 113 110 111 116 123 129 133 134 133 130 127 125 125 127 131 134 136 136 134 129 124 118 114 111 111 113 117 123 130 137 142 146 147 145 140 135 130 127 126 129 133 138 143 145 144 140 135 130 126 125 126 130 134 136 137 135 130 125 119 115 114 115 118 122 125 128 129 129 
135 136 137 137 137 138 138 138 138 140 142 144 146 146 144 139 131 123 114 109 107 111 119 130 142 151 156 157 152 143 132 122 114 110 111 114 119 124 127 127 126 124 123 122 124 127 130 134 136 136 133 129 123 118 112 109 107 107 110 114 120 126 131 135 137 136 133 129 126 123 124 127 132 138 143 145 145 141 136 131 127 125 125 126 128 129 128 124 118 112 107 103 103 105 110 116 122 128 132 134 
142 143 143 142 140 137 133 131 130 130 134 138 144 148 149 147 141 132 122 114 109 109 114 122 132 141 147 148 145 139 130 121 114 111 111 113 116 119 121 121 120 119 118 119 121 125 129 133 135 135 133 129 124 119 114 110 107 105 105 107 111 115 120 124 126 127 125 123 121 120 122 125 130 136 141 144 144 141 137 132 127 124 123 123 122 121 118 113 108 102 97 95 96 100 107 115 123 130 136 140 
148 148 147 144 139 133 127 122 119 119 123 130 139 147 151 152 148 140 129 118 110 107 108 114 122 130 136 138 137 133 126 120 115 112 112 114 116 117 118 117 115 114 114 116 118 122 127 130 133 133 132 130 126 122 118 114 110 107 105 105 106 108 111 114 117 119 119 119 118 118 120 123 128 134 138 141 142 140 136 132 128 124 122 120 118 115 111 105 100 95 92 92 95 100 108 117 126 135 141 145 
151 151 148 144 137 128 119 112 108 108 112 121 132 143 150 154 151 144 133 121 111 106 104 107 113 120 126 129 129 127 123 119 116 115 115 116 117 118 117 115 113 112 112 113 116 120 124 128 130 132 132 131 129 127 125 122 118 114 110 107 105 105 106 109 112 114 116 116 117 117 119 121 125 130 134 137 138 138 136 133 129 126 123 119 116 111 106 101 96 93 92 93 98 104 113 123 132 139 145 149 
151 150 147 142 133 123 113 105 99 99 103 112 124 137 147 152 151 145 135 123 113 105 103 104 108 113 118 121 123 122 120 118 118 118 119 120 121 120 119 116 113 112 111 112 115 118 122 125 128 129 131 132 133 133 133 131 128 123 118 113 109 107 107 108 110 113 115 117 118 118 118 119 121 124 128 131 133 134 135 134 132 129 126 122 117 111 105 100 96 94 95 98 104 111 120 129 137 143 147 150 
148 147 144 139 130 120 110 100 94 93 96 105 117 130 141 148 149 144 135 125 115 107 104 104 106 110 115 117 119 119 119 119 120 122 124 125 126 125 123 119 116 114 113 113 115 118 121 123 126 128 130 133 136 139 140 140 138 134 129 122 117 113 111 111 113 116 119 120 120 120 118 117 117 118 120 124 127 131 134 136 136 135 132 127 121 115 108 103 100 99 101 105 112 119 127 134 140 144 146 148 
143 142 140 136 129 120 109 100 94 91 94 101 112 124 135 143 145 142 135 127 118 111 108 107 109 112 115 117 119 119 120 121 123 126 129 131 131 130 128 124 120 118 116 116 117 119 121 123 125 127 130 134 138 143 146 148 147 144 138 132 125 121 118 118 120 122 124 126 125 122 119 115 113 112 113 116 121 127 133 138 141 142 140 135 129 122 115 109 107 106 109 114 120 127 132 137 139 141 142 142 
134 135 135 134 129 122 113 104 97 94 95 100 110 121 131 139 142 141 136 129 122 117 114 113 114 116 118 120 121 121 122 124 127 130 133 136 136 135 132 129 125 122 120 119 120 121 123 124 126 128 131 135 140 144 149 151 151 149 145 139 133 129 126 126 128 130 132 132 130 126 120 114 108 106 106 109 115 123 132 140 146 148 148 144 138 130 123 118 115 116 118 123 128 133 135 136 136 135 134 134 
125 128 131 132 131 126 119 111 104 100 100 103 111 120 130 137 141 141 138 133 128 124 121 121 121 122 123 123 124 124 125 127 130 134 137 139 139 138 135 132 128 125 123 123 124 125 126 127 129 130 132 135 139 143 147 149 150 149 146 142 138 135 134 135 137 139 140 139 136 129 121 112 105 100 99 103 109 119 130 141 149 154 154 152 146 139 132 127 124 125 127 131 135 136 136 134 130 126 124 123 
116 121 127 131 133 131 126 119 113 108 107 109 115 123 131 138 142 142 141 138 134 130 128 127 126 126 126 126 126 127 128 130 133 136 139 140 140 139 136 132 129 127 125 126 127 129 130 132 133 134 135 136 137 140 142 143 144 143 142 140 139 138 139 141 144 147 147 146 141 133 122 112 103 97 95 97 105 115 128 141 151 157 159 156 152 145 139 134 132 133 135 138 139 138 135 129 122 117 113 113 
109 116 124 131 136 136 133 127 121 116 114 116 121 127 134 140 144 145 144 142 138 135 132 130 129 128 127 127 128 129 130 132 135 138 139 140 139 137 134 131 127 126 125 126 129 132 135 137 138 138 137 136 135 134 133 133 133 133 133 134 135 138 141 146 150 152 153 151 145 136 124 112 102 95 92 94 101 112 125 138 149 156 159 158 153 148 142 139 137 138 140 142 142 139 133 124 116 109 105 105 
105 113 123 132 138 140 138 133 127 123 121 122 126 132 139 144 147 148 147 144 140 136 132 129 127 126 125 126 127 129 131 134 136 138 139 139 137 134 130 126 124 122 123 125 129 133 137 141 142 142 140 136 132 127 124 121 119 119 121 124 129 135 141 147 153 156 157 154 148 139 127 114 102 94 91 92 98 108 121 134 145 152 155 154 151 146 142 139 139 141 143 144 143 139 131 121 111 103 99 100 
104 113 123 132 139 141 139 135 130 126 124 126 130 136 142 147 150 151 149 145 140 134 129 125 122 120 120 122 124 128 131 135 137 139 139 137 134 130 125 121 118 117 118 122 127 133 139 143 146 146 143 137 130 122 115 110 107 107 109 114 121 130 138 146 153 157 158 156 150 141 129 116 105 97 93 93 98 106 117 129 138 145 147 146 143 140 137 136 137 140 143 145 144 139 130 120 110 102 98 99 
107 115 125 133 139 140 138 134 129 125 124 126 131 138 144 149 152 152 149 144 137 130 123 118 114 113 113 116 120 125 131 135 138 139 138 135 131 126 121 116 113 112 114 117 123 130 138 144 147 148 144 138 129 119 109 102 98 97 100 106 115 124 134 143 150 155 156 154 149 141 131 120 109 101 97 96 99 106 114 123 130 135 136 135 133 130 129 130 133 137 142 144 144 139 131 121 111 104 100 101 
113 121 129 135 138 138 135 129 124 121 120 123 129 136 143 149 151 151 147 141 133 124 117 110 107 105 107 111 117 123 130 135 138 139 137 134 129 123 118 113 110 109 110 113 119 127 135 142 146 148 145 139 129 118 108 99 94 93 96 102 110 120 130 139 145 149 151 150 147 141 133 124 115 109 104 102 104 107 112 118 122 125 125 123 121 119 119 122 126 133 139 143 144 141 134 125 116 110 107 108 
121 128 134 138 138 136 130 123 118 114 114 118 124 132 140 146 149 148 144 138 129 120 111 105 101 100 103 108 114 122 129 135 138 138 137 133 128 123 117 113 110 108 109 111 116 122 130 137 143 146 145 140 131 121 110 102 96 95 96 101 109 117 125 133 138 142 143 143 142 139 134 129 123 118 114 112 111 112 113 115 116 116 114 111 109 108 110 114 120 128 136 141 144 142 137 130 123 118 116 117 
