P2
100 100
255
130 143 156 163 163 153 135 115 96 84 81 86 99 118 139 156 166 167 158 142 120 97 79 68 64 65 71 82 97 114 130 142 149 150 146 138 128 117 108 100 95 91 91 93 99 109 122 136 147 154 155 150 137 121 104 90 80 75 74 76 82 92 104 117 128 136 143 148 150 151 149 144 138 132 126 121 116 111 105 99 91 84 77 70 66 65 69 80 97 119 142 159 167 165 156 142 128 118 115 119 
153 163 170 172 165 149 127 103 83 72 68 73 86 105 128 148 160 163 156 141 120 99 82 72 68 70 76 87 101 116 128 137 140 139 136 130 125 120 117 115 112 109 106 103 102 104 110 118 128 137 143 145 142 134 124 114 105 98 93 90 89 91 94 99 104 110 117 126 135 145 153 158 159 159 156 151 143 133 119 104 89 77 67 61 58 58 64 75 93 115 138 156 165 166 161 152 143 137 138 143 
170 178 182 179 168 148 122 95 75 64 61 66 78 97 121 142 157 162 158 145 128 109 94 85 82 84 91 101 112 121 128 130 129 126 122 120 120 123 128 132 134 132 127 119 110 103 100 102 108 117 127 137 144 147 146 141 135 127 118 109 100 93 88 86 85 88 95 106 121 138 155 168 176 179 179 175 166 153 134 113 93 77 65 59 57 59 66 78 95 117 137 152 160 162 159 154 150 149 154 162 
180 187 189 184 171 149 120 93 72 61 59 64 76 95 119 141 157 164 162 153 140 125 113 106 104 107 113 121 127 130 129 124 116 110 106 106 113 124 137 149 156 157 151 139 123 106 94 88 89 97 110 127 143 156 163 165 162 155 144 129 113 97 85 77 72 73 79 91 110 133 156 174 186 192 193 190 182 168 147 123 100 81 70 64 64 68 76 89 105 122 137 147 151 151 148 146 146 151 160 170 
183 190 192 187 173 150 121 94 74 63 61 67 80 100 123 145 160 168 168 162 153 143 135 131 131 135 140 144 144 140 130 117 103 93 89 92 103 121 143 162 174 177 172 158 137 112 91 78 75 80 94 115 139 160 174 181 181 175 163 145 123 102 84 72 65 65 70 83 104 130 156 177 190 197 200 197 189 176 155 131 108 90 79 76 78 85 95 108 121 132 139 141 138 133 129 128 132 142 156 171 
179 189 192 187 173 151 123 97 78 69 68 76 90 110 132 151 164 170 171 167 161 156 153 152 155 159 163 164 160 149 131 111 92 79 74 78 92 115 142 168 184 191 187 173 150 120 93 74 66 69 82 104 133 159 179 189 192 186 174 154 129 104 84 70 64 63 69 82 103 129 155 176 189 196 199 196 189 176 157 136 116 101 94 94 100 110 121 132 140 143 140 133 122 112 106 106 112 126 144 164 
172 184 188 184 171 149 124 100 84 78 79 89 104 123 142 157 166 170 169 166 162 160 161 165 170 176 179 178 171 155 132 106 84 69 63 67 81 106 138 168 189 198 196 184 161 129 97 74 62 62 74 97 127 157 179 191 194 189 176 155 129 104 84 72 67 68 74 88 107 131 154 172 183 189 190 187 180 169 153 136 121 112 111 116 126 138 149 156 158 153 141 124 106 92 84 84 91 106 128 152 
161 176 181 177 164 145 122 103 91 88 93 105 121 138 152 161 164 163 159 155 153 154 158 166 175 182 186 185 177 160 134 104 79 63 56 59 72 97 131 165 188 200 201 191 170 138 104 78 63 61 71 93 123 153 176 188 191 184 170 149 124 102 86 77 75 79 87 100 117 135 152 164 172 175 174 171 164 154 142 131 124 123 128 138 151 163 172 176 173 161 141 117 93 76 67 66 74 89 112 139 
151 167 172 167 154 136 117 103 97 99 108 122 137 150 157 159 156 149 141 135 133 136 145 157 169 180 187 187 179 162 136 105 79 61 53 55 67 90 124 159 185 199 202 194 176 147 113 85 69 65 74 94 122 150 171 182 182 174 158 137 115 99 89 86 90 97 107 119 131 141 149 153 154 153 151 146 141 134 127 123 123 129 141 155 169 181 188 189 182 166 141 111 84 66 57 56 63 78 101 128 
144 158 162 155 141 125 110 101 101 109 122 137 150 157 158 152 141 129 117 110 108 112 123 139 156 171 181 184 179 164 140 110 84 65 56 56 66 87 118 152 179 195 200 195 179 154 123 96 79 74 82 100 125 149 166 172 169 158 140 121 105 96 94 99 109 121 132 141 146 148 145 140 134 128 123 119 116 113 112 114 121 133 149 165 180 191 196 196 187 169 140 107 79 61 52 52 58 73 95 121 
141 152 152 143 128 113 102 99 104 117 134 149 159 161 155 141 124 106 93 85 83 88 100 118 139 158 172 178 176 165 145 119 95 76 65 63 71 88 115 146 171 188 194 192 180 160 134 109 94 89 95 110 130 149 160 161 153 139 121 105 95 93 100 114 131 146 157 162 161 154 142 128 115 105 99 96 95 97 100 107 118 133 151 169 184 194 199 198 188 169 139 105 77 59 52 52 60 75 97 121 
144 150 145 133 116 102 95 97 108 125 143 158 164 161 148 128 106 87 73 66 65 71 82 100 122 143 160 170 172 165 151 132 111 94 83 79 83 95 116 140 162 177 185 184 176 161 142 123 110 107 112 124 138 149 154 149 136 119 102 90 86 92 107 128 150 167 176 178 172 159 141 120 102 90 83 82 84 88 94 103 115 131 149 167 182 192 197 196 187 167 137 105 78 61 55 57 66 83 105 128 
150 151 142 125 108 95 91 97 112 132 151 164 167 160 141 116 92 72 61 55 55 61 72 89 109 130 148 160 165 164 157 146 132 118 108 102 102 108 120 135 151 163 170 172 168 159 146 134 126 125 129 137 145 150 147 137 121 103 88 80 80 91 112 138 163 180 189 189 180 164 141 116 96 83 78 78 82 88 95 103 114 127 143 160 174 185 191 190 182 163 135 105 80 66 61 65 77 96 119 138 
158 154 140 121 102 91 90 99 117 139 159 170 170 158 136 108 83 65 55 51 53 60 70 85 103 121 137 149 157 160 160 157 151 144 137 130 125 123 125 130 137 143 149 152 153 150 146 141 138 139 142 147 150 149 141 127 109 92 79 73 77 91 115 143 169 187 194 193 184 166 142 117 98 86 82 84 90 96 101 107 113 122 133 147 160 172 179 180 173 157 132 105 84 72 70 77 92 113 135 151 
164 156 139 117 99 89 91 103 123 147 165 175 172 158 133 104 79 63 55 54 58 66 77 91 104 117 128 137 145 152 158 163 166 166 162 156 148 138 130 123 120 121 124 128 133 137 140 142 145 147 150 152 152 147 136 120 102 86 75 71 76 91 115 143 169 185 193 192 182 165 144 122 105 96 95 99 104 109 112 112 112 114 120 129 141 153 162 166 162 148 128 106 89 80 80 90 108 129 149 162 
167 156 136 114 97 89 92 107 129 153 171 178 174 159 133 105 81 67 61 63 71 81 93 103 111 117 120 124 130 139 150 163 173 179 180 175 165 149 131 115 104 99 99 104 112 121 131 139 145 150 152 152 149 142 131 116 101 87 78 75 79 92 113 138 161 177 184 183 175 161 144 127 115 111 113 118 123 126 123 118 111 106 105 110 120 131 142 149 148 140 125 108 94 88 91 103 122 143 160 169 
166 152 131 110 94 88 93 109 133 157 174 180 176 160 136 109 88 76 74 80 91 104 115 121 122 118 113 110 112 121 136 155 172 184 189 186 174 154 129 105 88 80 78 83 93 107 121 134 143 147 149 147 142 136 127 116 105 95 87 84 87 96 110 129 147 160 167 167 161 152 141 131 127 128 133 139 142 141 133 121 108 97 92 93 100 111 123 133 136 133 123 111 101 98 103 115 133 152 166 171 
162 146 124 104 89 85 92 109 132 156 172 179 175 161 140 117 99 92 94 104 118 131 140 140 133 119 105 95 93 101 119 142 166 183 191 189 176 153 123 95 76 66 64 70 81 97 114 129 139 143 142 138 133 128 124 119 114 109 105 101 100 102 109 118 128 136 141 143 141 137 134 134 136 143 150 156 157 152 139 122 104 90 81 80 85 96 109 122 129 130 125 117 110 108 113 125 141 157 167 169 
156 138 117 97 85 81 88 104 126 149 166 173 171 159 142 125 113 110 117 130 145 157 161 156 140 118 97 82 77 83 100 127 155 177 188 187 173 147 115 86 67 57 57 63 76 94 113 129 137 138 134 127 122 120 122 125 128 129 128 124 119 114 110 108 109 111 113 115 117 120 125 133 143 154 162 167 165 156 140 119 99 83 74 73 78 89 104 118 129 133 131 126 121 120 124 134 147 159 165 165 
151 133 112 93 81 77 82 96 116 137 153 161 161 154 142 132 126 129 139 153 167 175 175 165 143 115 89 71 64 69 85 112 143 169 182 181 167 139 106 78 60 53 54 63 79 99 119 134 139 135 126 117 111 112 119 130 142 150 153 150 141 128 114 102 93 88 88 90 95 104 117 132 148 161 170 173 168 156 136 114 93 78 70 70 76 89 106 123 136 142 142 139 135 133 135 143 152 160 164 161 
149 132 111 92 79 74 77 87 103 120 135 145 147 145 139 135 136 143 156 169 181 186 182 167 141 109 81 63 56 60 75 101 133 160 175 175 159 131 99 73 58 53 57 70 89 112 132 144 145 135 121 108 101 104 116 134 153 168 174 172 162 144 122 100 83 73 70 72 80 93 111 132 151 166 173 174 166 150 129 106 87 75 69 71 80 95 114 133 147 154 155 152 148 145 146 150 157 162 164 160 
153 137 117 97 82 75 74 79 90 103 116 126 131 133 133 136 142 153 166 178 187 189 182 164 135 102 75 58 52 56 70 96 128 155 170 169 152 125 94 71 59 57 66 83 107 132 151 158 154 138 118 100 91 94 110 134 160 179 189 189 179 159 131 102 79 65 60 63 72 88 110 134 155 169 174 172 160 142 120 98 82 73 71 76 88 106 127 146 159 166 166 163 158 154 153 156 161 165 167 163 
161 147 128 108 91 80 75 75 81 89 99 108 116 121 127 135 145 157 170 181 188 188 178 158 129 97 72 57 52 57 73 98 129 154 167 165 148 121 93 73 64 67 81 104 131 155 170 173 164 142 116 93 82 85 102 130 160 184 197 199 190 170 140 107 79 63 57 59 70 89 114 139 160 171 174 167 153 132 110 91 78 73 74 83 98 118 140 157 169 173 172 168 162 157 156 158 163 168 170 169 
170 160 144 124 105 90 80 76 77 82 89 97 106 114 123 134 146 159 171 180 184 182 171 151 123 95 73 61 59 66 83 108 136 158 168 164 146 121 95 78 74 82 101 128 156 177 187 186 173 147 115 88 74 75 92 121 155 183 199 203 197 178 148 112 82 64 58 61 73 94 121 146 164 173 171 161 144 122 101 85 76 75 80 91 109 130 149 164 172 174 171 164 157 152 150 153 160 167 173 174 
178 172 160 143 123 105 91 83 80 82 87 94 103 113 123 135 146 158 168 174 176 173 161 142 118 95 79 71 72 82 100 124 148 165 171 165 147 122 100 87 87 100 123 152 177 193 200 196 180 150 115 84 67 66 81 109 145 177 197 204 199 182 154 118 87 68 62 66 81 103 130 153 168 172 167 153 134 113 94 82 77 79 87 101 119 138 154 165 168 166 159 150 141 136 135 140 150 161 171 177 
181 180 173 160 142 123 106 95 90 90 94 101 109 119 129 138 147 155 161 165 164 159 149 133 115 99 89 87 92 104 123 144 162 173 175 166 147 124 105 95 99 117 143 170 192 204 208 202 184 153 114 81 62 59 70 96 132 167 190 200 198 184 157 123 93 74 68 74 90 114 139 159 169 170 161 144 124 105 90 82 81 87 97 112 129 144 154 159 156 149 138 127 117 112 112 119 132 148 163 175 
178 183 180 171 156 139 122 110 104 104 108 115 123 131 139 144 149 151 152 151 148 142 133 123 113 106 104 107 117 131 148 164 175 180 177 164 145 123 106 101 108 128 155 181 200 210 211 205 186 154 114 79 59 53 62 84 118 153 180 194 194 182 158 127 98 81 76 83 100 123 145 161 167 163 151 134 115 100 90 87 90 98 111 124 138 147 151 148 139 126 112 99 90 86 87 95 109 128 149 166 
169 178 180 174 163 149 135 125 121 121 127 134 141 147 151 151 149 145 139 133 127 121 116 112 110 112 118 129 142 156 169 179 184 183 175 159 138 117 103 100 110 131 158 183 201 210 211 204 186 155 115 79 58 51 56 74 104 139 168 185 187 177 156 128 103 88 84 92 109 129 148 159 160 153 140 123 108 98 94 97 104 115 127 139 147 150 146 136 120 103 87 75 67 64 65 72 86 105 129 152 
154 167 172 169 161 151 141 135 134 138 145 153 159 162 162 157 148 137 125 114 106 101 98 99 105 115 130 146 161 174 183 188 188 181 168 149 127 107 95 93 103 124 150 176 194 205 207 201 184 154 116 82 60 51 54 69 95 127 156 174 178 170 152 128 106 94 92 100 115 132 146 152 150 141 128 114 105 101 104 112 123 135 146 154 157 154 143 127 106 86 70 59 52 49 51 56 67 85 108 133 
136 151 157 157 151 144 138 137 141 149 159 167 173 174 170 161 146 128 111 96 87 82 83 88 99 116 137 157 173 184 190 191 186 175 157 135 112 93 83 82 90 109 134 159 180 193 198 194 179 153 118 86 65 55 56 68 90 119 146 163 168 162 146 126 108 98 98 105 118 131 140 142 137 127 117 109 106 110 119 131 145 156 165 168 167 159 144 123 100 79 62 52 45 43 43 47 56 71 91 114 
120 133 139 138 134 129 127 130 139 152 165 175 181 181 174 161 142 119 98 82 73 69 71 78 93 114 139 161 178 188 192 189 180 165 143 118 96 80 71 70 76 90 111 135 157 173 182 182 171 150 122 94 74 64 64 74 92 117 140 155 159 154 140 123 109 102 102 108 118 127 132 131 124 116 110 108 112 122 136 151 164 174 179 180 176 166 149 127 103 81 64 53 46 43 43 46 53 64 81 101 
111 120 122 119 114 111 111 118 131 147 163 175 182 182 174 158 136 111 89 73 64 61 63 72 88 111 138 161 178 187 189 184 171 151 127 102 82 68 61 60 64 73 88 108 129 147 160 165 161 147 127 106 89 80 80 87 102 121 139 150 153 146 134 120 109 104 104 110 117 123 124 121 115 110 108 112 122 137 153 168 179 186 188 186 181 171 156 136 115 94 77 65 56 52 51 53 58 68 82 97 
112 115 112 105 98 94 95 103 117 136 154 169 177 177 169 153 130 106 84 69 61 58 61 71 87 110 136 160 176 183 183 175 159 137 112 89 72 61 56 54 56 62 71 85 102 120 135 145 148 143 132 119 108 102 102 108 119 132 144 150 149 141 129 117 108 104 106 111 116 119 119 115 111 109 111 120 134 151 167 180 187 190 190 187 181 173 162 148 132 115 100 88 79 73 70 71 75 83 94 104 
123 119 111 100 89 83 83 90 103 121 140 155 165 166 159 145 125 103 85 71 64 62 66 75 91 112 136 157 171 177 174 163 145 123 99 80 67 59 55 53 54 58 63 72 84 99 113 126 135 138 137 133 128 126 127 132 139 147 152 152 147 137 125 114 107 105 107 111 116 118 117 114 112 113 119 130 146 162 175 184 187 187 183 178 173 167 162 157 150 141 132 122 114 107 103 102 105 110 116 122 
140 131 118 102 89 80 77 81 91 106 123 137 147 150 147 136 121 105 91 81 75 74 78 86 101 119 139 156 166 168 163 150 131 110 90 75 66 61 59 59 60 62 65 70 77 87 99 112 124 133 140 143 146 148 150 154 158 160 160 155 146 134 122 111 105 104 107 112 116 119 118 117 117 120 128 140 154 167 176 179 178 173 165 158 154 153 155 160 163 164 162 158 152 147 142 140 140 142 144 144 
158 146 131 113 96 85 78 78 84 93 106 118 127 132 132 128 120 111 103 98 94 95 98 105 117 130 144 155 160 158 150 136 118 99 84 75 70 69 70 72 75 76 78 79 82 87 94 104 115 127 138 148 156 162 166 169 171 170 166 157 146 132 119 109 104 104 108 113 118 121 122 122 124 128 136 147 157 165 168 166 158 147 136 128 125 129 140 154 168 178 184 185 183 179 175 172 170 169 168 165 
170 159 145 128 111 97 87 82 82 86 93 100 108 114 118 121 122 122 122 121 121 122 125 129 136 143 150 153 153 147 136 121 105 91 82 78 78 83 89 95 100 102 102 100 98 96 97 101 109 120 133 146 157 166 173 176 177 174 167 157 144 129 116 107 103 105 109 116 121 125 127 128 130 134 140 148 154 156 152 143 130 115 102 94 94 101 118 141 165 183 195 199 200 198 194 190 187 184 181 177 
173 167 157 144 129 115 102 93 87 84 85 88 93 99 108 117 127 135 142 146 149 151 152 153 154 154 153 150 144 134 121 107 95 86 82 84 91 102 115 126 133 136 135 129 121 112 105 103 105 112 124 138 151 163 171 175 175 172 164 153 139 125 114 106 104 107 113 119 125 129 131 132 133 136 139 143 143 140 130 117 100 85 73 67 67 77 96 125 155 180 196 204 205 203 199 194 189 184 181 178 
167 167 163 157 148 136 122 109 98 88 83 81 83 90 101 116 133 148 160 168 172 173 172 169 165 160 153 145 134 121 108 96 87 83 84 92 106 124 142 156 165 168 166 158 146 130 116 105 101 104 112 125 139 151 161 166 167 163 156 145 133 121 112 108 108 112 118 125 130 133 133 133 132 133 133 133 129 121 109 93 77 63 54 49 51 60 80 109 143 172 191 200 201 198 191 183 176 171 168 167 
152 159 164 166 163 155 143 128 112 97 86 80 79 86 99 117 138 158 172 181 185 185 182 177 169 160 149 137 124 110 98 88 83 82 89 102 122 144 164 179 188 190 188 179 164 145 125 108 98 96 101 111 124 136 146 151 152 149 142 134 125 117 113 112 115 121 127 133 136 136 134 131 128 125 123 120 114 105 92 77 63 52 45 42 44 52 70 97 131 161 180 189 188 181 171 159 149 143 142 145 
130 146 160 170 173 171 162 147 128 109 93 83 80 85 99 120 143 164 179 187 190 189 184 176 165 153 141 127 115 103 93 86 83 86 95 113 135 159 178 192 200 202 199 190 174 153 129 109 95 90 92 100 110 120 128 132 133 130 125 120 115 113 115 119 126 133 139 143 143 139 133 126 120 115 112 108 103 94 83 71 60 51 44 42 44 52 68 92 122 149 166 171 167 155 140 126 114 109 110 117 
109 131 153 170 179 181 175 162 143 122 102 89 84 89 102 122 145 165 179 186 187 184 176 166 154 142 130 119 109 100 93 89 88 93 105 123 145 168 185 197 203 205 201 191 175 153 129 109 95 90 91 96 103 110 114 115 113 110 107 105 106 111 119 129 139 148 153 154 150 142 131 120 111 105 102 100 97 92 84 75 66 58 53 51 53 60 74 95 119 140 151 150 140 125 107 92 82 78 81 92 
93 119 145 167 181 186 183 172 155 134 113 98 91 94 105 124 145 162 174 179 177 171 161 150 138 128 120 114 109 104 101 99 100 106 117 133 153 172 186 196 200 200 194 184 167 147 125 108 98 95 97 101 105 107 106 102 97 93 90 92 98 109 124 140 153 162 166 164 157 144 129 114 103 97 95 96 98 98 95 90 83 76 72 69 71 78 90 106 123 135 138 130 116 98 81 68 60 59 63 74 
85 111 139 164 179 187 186 178 163 143 122 107 99 100 109 124 141 155 163 164 160 151 140 129 121 115 113 113 115 116 116 116 117 122 130 143 158 172 182 189 190 187 180 168 152 135 119 110 106 108 112 116 117 114 106 96 86 80 78 81 92 108 129 150 166 175 178 173 162 146 126 109 97 92 93 98 106 112 115 114 111 106 102 99 101 106 114 124 132 135 129 116 98 80 65 55 50 50 55 66 
84 109 136 159 176 184 184 178 166 148 130 114 106 105 111 122 133 142 146 144 137 127 117 109 106 107 112 119 126 132 135 136 137 139 144 151 159 168 173 175 173 167 157 144 130 119 113 113 118 127 135 139 137 128 113 96 81 72 69 74 86 107 133 158 175 185 186 180 166 146 124 105 93 89 94 105 118 130 139 143 143 140 137 135 135 137 140 144 144 138 126 108 89 72 60 53 50 51 56 67 
90 110 133 154 169 177 178 174 164 149 133 120 111 108 111 117 123 127 127 122 114 105 98 95 97 104 116 129 141 150 154 155 154 153 153 155 157 160 160 157 150 140 128 116 107 103 107 118 133 148 160 164 160 147 126 101 81 68 63 68 82 106 136 163 181 190 191 183 167 145 121 102 91 90 98 113 132 148 161 167 170 169 167 164 163 162 161 159 153 142 125 106 88 73 63 58 57 59 65 74 
100 115 131 146 158 165 167 164 156 146 133 122 114 110 109 111 113 112 109 103 95 89 86 87 95 108 125 142 156 165 169 168 165 161 157 154 151 148 143 135 125 112 100 91 87 91 103 123 147 168 181 185 180 165 139 109 83 66 60 64 79 105 136 165 184 193 192 183 166 143 119 100 91 93 105 123 144 162 175 182 185 184 183 180 178 175 172 166 157 143 126 108 92 80 74 71 72 75 81 89 
113 120 128 136 142 147 150 149 145 138 130 121 114 109 107 105 103 100 95 89 84 81 82 88 100 117 137 154 167 174 176 173 167 160 153 146 141 135 127 116 103 90 80 73 73 82 101 129 158 182 195 200 195 179 151 117 86 66 59 62 77 103 135 164 183 191 189 179 161 138 115 99 94 98 112 132 152 169 180 186 187 186 184 181 178 175 170 164 154 141 126 111 100 93 90 91 94 98 103 107 
125 123 121 122 124 127 129 131 131 129 125 120 114 109 105 101 97 92 87 83 80 80 85 95 111 130 149 164 173 177 174 168 159 149 141 134 128 122 113 103 90 78 68 63 65 77 99 132 165 189 204 208 203 187 159 123 90 68 59 62 77 102 134 162 179 186 183 171 153 131 112 100 98 105 120 139 156 169 177 180 179 176 172 169 166 163 160 154 146 136 126 116 110 109 111 116 121 125 127 127 
133 123 113 107 105 106 110 114 118 121 121 119 115 110 105 100 95 90 86 83 83 87 95 108 124 143 158 169 174 172 165 154 142 131 123 118 115 111 106 97 86 74 65 60 62 74 98 131 166 191 206 210 206 190 163 127 94 71 62 65 80 104 133 158 173 178 172 160 142 123 109 102 104 114 128 144 157 164 167 164 160 154 150 146 145 144 143 141 136 131 125 122 122 126 132 140 146 150 148 142 
137 120 105 94 89 90 94 102 110 116 120 121 119 115 109 103 98 94 91 90 92 98 108 122 139 154 165 170 168 160 147 133 119 108 103 102 104 106 106 101 92 80 69 63 63 73 95 127 161 187 203 207 203 188 162 128 97 76 68 72 87 110 135 155 165 166 158 145 129 115 107 106 112 124 137 148 155 155 151 143 134 126 121 119 120 123 126 128 128 127 127 128 133 141 150 159 165 167 163 152 
137 115 97 84 79 80 86 96 107 117 124 127 127 123 117 111 106 102 100 101 105 113 124 137 150 161 167 166 158 144 126 109 95 87 85 89 98 107 113 113 106 94 80 70 67 73 91 118 150 176 193 198 194 180 155 126 99 83 78 84 99 119 139 152 157 152 142 128 116 108 106 112 123 135 146 152 152 145 133 120 108 99 96 96 101 107 115 121 125 128 131 135 142 152 162 171 176 176 170 156 
134 110 91 79 74 76 85 97 111 124 133 138 138 134 129 123 118 115 114 115 120 127 137 148 158 164 165 159 146 127 106 89 77 71 74 83 97 114 127 132 127 114 98 83 74 75 86 107 134 159 175 181 177 164 143 120 101 91 92 101 117 133 146 152 149 139 125 112 104 102 108 120 134 147 154 155 148 135 118 101 88 81 79 83 91 101 112 121 128 132 136 142 149 158 168 176 180 179 171 156 
131 107 88 77 74 79 90 105 122 136 146 151 151 147 142 136 132 129 127 129 132 138 146 154 161 163 161 151 134 113 92 75 65 63 68 81 102 125 144 153 150 138 119 99 84 78 82 96 116 136 150 156 153 142 127 112 102 101 108 122 137 149 155 152 142 126 111 100 96 100 112 128 145 157 162 158 146 128 107 90 78 73 74 80 91 105 118 128 135 139 142 146 153 161 170 177 180 179 170 153 
128 106 89 80 79 87 100 118 136 150 159 163 162 159 153 148 143 140 138 138 140 144 149 155 159 159 155 144 126 105 85 69 61 61 68 85 110 137 160 171 171 160 140 116 95 83 80 87 99 113 124 128 126 118 109 103 103 111 125 142 156 163 163 153 136 116 99 90 90 100 116 137 155 166 168 161 145 124 103 85 75 73 77 86 100 115 128 137 142 144 145 147 152 159 168 175 178 176 167 150 
126 106 91 85 87 97 114 133 151 164 171 173 171 166 160 154 149 145 143 141 142 143 146 150 153 154 150 140 124 104 85 71 63 64 73 92 119 148 172 184 185 176 157 132 108 91 82 83 88 96 102 104 101 97 94 95 104 120 140 158 170 174 168 152 130 107 91 84 87 101 121 144 162 172 172 162 145 123 102 87 79 79 86 97 112 126 137 143 145 143 142 142 146 154 162 170 174 172 163 147 
124 106 94 90 95 108 127 147 163 174 179 178 174 168 161 154 148 144 140 137 136 136 138 142 146 148 147 140 127 110 93 79 71 71 80 100 127 156 179 191 192 184 167 144 119 100 89 85 86 89 91 90 86 83 84 90 105 126 149 168 179 179 168 148 123 99 84 79 86 102 125 148 166 174 172 162 144 123 104 92 87 89 98 110 123 134 140 142 140 135 131 131 136 145 155 164 169 168 159 144 
121 104 94 93 100 116 136 156 171 180 182 179 173 164 155 147 140 134 130 127 125 125 128 133 139 144 146 144 135 122 106 92 83 81 89 107 133 159 180 191 193 186 171 151 129 111 100 95 94 94 92 87 82 79 80 88 105 129 154 172 181 178 164 141 114 91 78 76 84 102 126 149 165 172 169 158 141 123 107 98 97 101 109 119 128 134 136 132 126 119 115 116 122 134 147 158 165 164 155 140 
116 100 91 92 101 118 139 159 174 181 181 176 166 154 142 132 124 119 115 113 112 113 117 124 133 142 149 151 147 137 122 108 97 93 98 112 134 157 175 185 187 181 169 152 135 122 114 111 110 109 104 96 88 82 82 89 107 130 154 171 178 172 156 131 104 84 73 73 83 102 125 147 161 166 162 151 136 121 110 105 106 111 118 124 128 128 123 116 107 100 97 100 110 124 141 154 161 160 151 134 
108 93 85 86 96 114 136 157 171 178 176 168 155 140 126 114 106 102 99 99 100 103 110 120 132 144 154 159 158 150 138 122 109 102 103 113 130 149 164 173 175 170 161 149 138 131 129 130 132 130 124 114 102 92 88 94 108 130 151 166 170 163 144 119 95 77 70 72 83 101 123 142 153 156 151 140 128 118 112 111 114 119 123 125 122 116 107 97 88 82 82 89 102 120 139 154 160 157 146 128 
99 84 77 78 88 106 128 150 165 171 169 158 142 124 108 96 89 86 86 87 91 98 107 120 135 149 160 166 167 160 148 132 117 107 104 109 121 135 148 156 158 155 148 141 137 138 142 149 153 153 147 135 120 106 99 100 111 129 147 159 161 151 132 109 87 73 68 72 84 101 120 135 143 143 136 127 119 113 112 115 120 125 126 123 115 104 92 81 74 71 75 85 102 123 143 157 162 156 141 120 
90 75 68 69 78 95 117 140 157 164 161 149 131 111 94 83 77 75 76 81 87 97 110 125 141 155 166 171 171 164 152 135 118 106 100 102 110 121 131 137 139 137 134 132 134 141 151 162 169 171 166 154 137 121 110 108 116 129 143 152 152 142 124 103 85 74 72 77 88 103 118 128 132 128 121 114 109 108 112 119 126 130 128 121 109 95 82 73 68 69 76 91 111 134 153 165 166 157 137 113 
83 67 60 61 69 85 107 131 149 157 154 142 123 102 85 74 69 69 72 79 89 102 118 134 150 162 170 173 171 162 148 131 114 101 95 95 100 108 116 121 123 122 121 123 129 141 155 169 178 181 177 165 149 132 120 116 120 131 142 149 148 138 121 103 89 81 81 87 98 110 120 124 123 116 108 102 100 104 113 123 132 136 133 123 109 93 81 73 71 76 88 106 129 151 167 175 172 158 135 107 
77 62 55 55 63 79 101 125 144 154 152 140 121 100 83 72 67 67 72 82 95 111 129 145 159 168 173 172 166 154 138 121 105 94 89 90 95 102 109 113 114 114 114 117 125 139 154 169 178 182 178 168 153 137 125 121 125 134 144 150 149 140 127 112 101 96 98 105 114 123 127 125 117 107 98 93 95 103 115 129 139 143 139 129 114 99 88 82 84 93 109 129 151 169 181 184 177 160 133 102 
74 59 53 54 62 77 99 124 144 155 154 143 125 104 86 74 69 70 77 89 105 123 141 156 167 172 172 167 156 142 125 108 96 88 86 89 96 103 110 114 115 114 113 116 123 136 150 163 171 174 170 160 147 134 125 123 129 139 149 155 155 149 139 128 121 119 122 128 135 139 137 128 116 102 92 89 93 104 119 135 147 152 148 139 125 112 103 100 105 117 135 154 172 185 192 191 181 160 131 99 
74 60 55 57 66 82 105 129 149 160 160 150 133 113 94 82 76 78 85 99 117 136 153 165 172 173 168 158 143 126 110 96 88 85 87 94 103 113 120 124 124 121 119 119 124 132 143 152 158 158 153 144 133 123 119 122 131 144 155 162 164 160 154 147 143 143 147 152 156 156 149 135 118 102 91 88 94 107 125 143 155 160 158 150 138 128 122 122 130 143 159 175 187 195 198 194 181 159 129 98 
77 65 62 66 76 94 117 140 158 167 167 159 143 124 106 93 87 88 97 111 130 148 162 171 174 170 161 146 128 111 96 87 83 86 93 104 117 129 136 139 138 134 129 126 126 129 134 138 139 136 130 121 113 108 110 118 131 147 161 169 172 171 167 164 162 164 168 172 173 170 159 143 123 105 93 91 99 114 133 150 162 167 165 158 150 142 139 142 150 162 175 186 194 198 197 190 176 154 125 97 
83 75 75 82 94 112 133 152 167 174 174 166 153 136 119 106 100 102 110 125 142 157 169 174 173 165 150 132 113 97 86 81 83 91 103 119 135 147 154 156 153 147 140 134 129 127 125 123 120 114 106 99 94 93 99 112 130 149 164 173 177 177 175 173 174 176 180 183 183 178 167 149 128 110 99 98 107 122 141 156 167 170 168 162 154 149 148 152 160 170 180 188 192 192 189 180 165 144 120 98 
92 91 95 104 118 134 151 165 174 178 177 170 159 144 130 119 114 116 124 137 152 164 172 173 168 156 138 118 100 86 79 79 85 99 116 135 152 163 169 169 165 157 148 140 132 125 119 112 104 95 87 81 78 81 90 106 126 147 163 173 176 175 174 173 174 178 182 186 186 180 169 152 133 116 107 108 117 132 148 161 168 169 165 158 151 146 146 150 157 165 173 177 178 176 170 160 147 130 114 100 
104 110 119 130 143 155 166 174 178 179 176 170 160 148 137 129 125 128 136 147 159 168 172 171 162 146 126 105 89 78 75 79 90 108 129 150 165 175 178 176 170 161 152 142 132 124 115 105 95 85 76 71 69 73 84 101 122 143 158 166 168 166 163 162 163 168 174 178 179 175 166 151 135 122 116 118 128 141 154 163 166 163 156 146 138 133 132 136 142 148 153 155 154 149 143 134 124 114 107 103 
117 130 142 154 163 170 175 177 177 174 170 164 156 147 139 134 132 136 143 153 163 169 171 166 155 136 115 95 80 73 72 80 95 116 140 160 174 181 181 177 169 159 149 139 131 122 113 103 92 81 73 67 66 71 81 98 118 137 149 154 153 148 142 140 141 146 153 160 163 162 155 145 134 127 125 129 139 150 158 162 160 152 141 129 119 113 112 114 118 123 125 125 122 117 111 106 101 100 102 108 
129 145 159 169 175 177 177 175 170 165 159 153 147 141 136 133 134 139 146 156 164 169 169 162 148 128 106 87 74 69 71 81 98 121 146 165 177 182 179 172 162 151 140 132 126 120 114 105 95 85 76 70 69 73 83 98 115 130 138 139 133 124 116 112 112 117 125 133 139 141 139 135 130 128 131 138 147 156 160 158 150 138 122 108 98 92 90 92 95 97 99 97 94 90 86 84 85 90 99 113 
136 153 166 174 177 176 172 166 158 151 145 139 134 130 128 128 131 136 144 153 161 166 165 158 143 123 101 83 71 67 70 80 99 123 147 166 176 178 173 163 150 138 128 122 119 118 116 111 104 95 86 80 78 81 89 102 115 125 128 124 113 101 91 85 85 89 96 104 111 117 120 122 124 128 136 145 153 159 159 152 139 122 104 90 80 75 74 76 78 81 81 80 78 75 73 74 78 87 100 117 
139 154 164 169 169 166 159 151 143 135 129 124 121 118 118 119 122 128 136 146 155 161 162 156 142 122 101 82 70 66 68 79 97 120 144 163 172 173 166 153 137 123 114 111 112 115 119 119 115 109 101 94 92 94 100 110 119 124 123 114 100 86 74 68 66 68 74 81 88 95 102 109 117 127 138 149 157 159 155 144 127 107 90 77 69 66 67 69 73 76 77 77 75 74 74 76 81 91 104 121 
137 147 153 155 153 148 141 133 126 120 115 112 109 107 106 107 110 116 124 135 146 155 159 155 144 127 106 87 73 67 68 76 93 115 138 157 166 166 158 143 126 111 102 101 105 113 122 127 128 125 119 113 109 110 115 121 127 128 123 111 96 80 68 60 57 58 62 67 74 81 89 99 111 125 139 150 157 157 149 135 115 96 80 70 65 65 68 73 79 84 87 88 88 87 87 89 93 101 112 124 
130 134 135 134 131 126 121 117 113 110 107 105 102 100 97 96 97 101 109 120 134 147 155 157 151 136 117 97 81 71 69 75 88 108 130 149 160 161 153 137 120 104 96 95 101 112 124 134 140 140 136 131 128 127 130 134 137 137 130 118 102 86 73 64 59 58 60 63 68 74 83 94 108 124 139 150 156 153 143 126 107 89 76 69 68 72 79 88 97 105 110 113 113 113 112 112 113 116 121 126 
121 117 114 111 108 106 105 106 107 108 108 106 102 97 91 87 85 87 93 105 121 138 152 160 159 150 133 112 93 79 73 74 84 101 122 142 155 158 151 137 120 104 94 93 99 112 127 140 148 152 150 146 143 141 142 145 147 147 142 131 117 102 89 79 72 69 67 68 71 75 83 94 109 125 140 150 153 149 137 120 101 86 77 75 79 87 100 113 125 135 141 144 145 144 142 139 136 133 129 125 
111 102 95 92 91 92 97 102 109 114 116 114 108 99 89 81 76 75 79 90 108 129 150 164 169 165 152 132 111 92 80 76 82 96 115 136 151 157 154 142 125 110 99 96 101 114 129 143 154 159 158 155 152 149 149 151 154 156 154 148 138 127 115 105 96 90 85 82 81 83 89 99 113 128 141 150 151 145 132 115 99 88 83 86 95 109 126 142 155 164 170 172 172 171 167 162 155 146 135 123 
103 91 83 80 81 87 96 107 119 127 131 128 120 107 92 79 70 67 69 79 97 121 147 167 178 179 170 154 132 109 91 82 82 92 110 131 149 158 158 150 135 120 108 103 107 117 131 146 156 161 161 158 153 150 149 151 155 160 162 162 159 153 146 137 128 119 111 104 99 97 100 108 119 132 144 150 150 142 129 114 101 93 93 101 116 134 152 167 178 185 189 190 189 186 182 176 166 153 137 119 
98 85 78 76 80 89 103 119 134 144 149 146 136 120 100 83 70 63 63 71 88 114 144 169 185 190 186 173 152 127 105 89 85 91 106 127 146 159 163 158 146 131 119 112 114 122 134 147 156 161 160 155 149 144 142 144 149 157 164 170 174 174 171 166 159 150 139 128 119 114 113 118 127 138 147 152 150 142 129 115 105 101 105 118 135 154 171 184 192 196 197 196 194 190 186 179 168 154 135 115 
97 85 80 80 87 99 115 133 150 161 166 163 153 135 113 91 74 63 61 66 82 109 141 169 189 197 196 187 169 145 119 99 89 91 103 123 143 158 165 163 154 141 129 121 121 127 137 147 155 158 155 149 140 132 128 129 136 146 158 170 179 184 186 185 180 173 162 149 138 129 126 128 135 144 151 154 152 143 131 119 110 109 116 131 149 167 181 190 194 195 193 190 187 182 178 171 162 148 131 113 
102 93 90 91 99 112 129 147 162 173 178 176 167 151 129 105 83 69 63 66 79 104 136 167 189 200 202 196 181 158 131 108 93 91 100 117 137 154 163 163 157 146 135 128 126 131 139 148 153 154 150 141 129 119 112 112 118 129 144 160 174 184 190 192 190 184 174 162 149 139 135 136 142 149 156 158 155 146 135 123 116 116 124 138 155 170 180 186 186 184 179 173 168 163 159 155 149 140 128 114 
113 108 106 108 115 127 141 155 168 178 183 184 178 165 146 122 99 80 69 68 78 99 129 161 185 199 204 200 188 167 140 114 97 91 97 111 129 146 156 158 154 145 136 130 128 132 139 147 151 151 144 133 119 106 98 95 99 109 124 142 159 173 182 187 187 183 175 163 152 142 138 139 145 153 159 161 158 150 139 128 121 120 126 138 151 162 169 170 167 160 152 144 138 135 134 134 134 131 126 120 
129 127 127 128 132 138 146 156 166 174 181 184 183 176 162 141 118 96 80 73 78 94 120 151 176 193 200 198 189 170 144 118 99 91 93 104 119 134 144 148 145 138 131 126 126 130 138 145 148 147 140 127 112 98 87 83 84 91 103 119 136 152 164 171 174 172 165 156 146 138 136 139 146 154 161 163 161 154 143 132 124 121 124 131 139 146 148 145 138 128 119 110 105 105 108 113 120 126 130 130 
147 148 147 145 144 143 144 148 154 161 170 177 182 181 174 159 138 114 94 81 79 89 109 136 162 181 191 191 183 167 143 118 99 90 90 98 110 122 131 134 132 127 122 119 120 125 133 140 144 143 137 125 110 95 84 77 75 78 86 97 111 125 137 146 151 151 146 140 133 129 130 135 143 153 160 164 162 156 146 135 126 120 119 120 123 123 121 115 106 96 87 81 79 81 88 100 114 127 138 144 
165 166 163 158 150 141 134 131 133 139 150 162 173 180 180 171 155 132 108 90 81 84 97 119 142 162 175 178 172 158 137 115 98 89 88 94 103 112 119 121 119 115 111 109 112 118 126 134 139 140 135 125 113 100 88 80 75 74 76 82 90 100 109 117 123 125 124 121 118 118 121 128 138 148 157 162 162 157 148 138 128 119 114 110 106 102 96 88 80 72 66 63 63 69 80 96 115 134 149 159 
178 178 173 164 150 134 119 110 107 112 123 140 158 172 180 178 167 147 122 99 84 80 86 101 120 140 154 159 156 145 128 111 97 90 89 93 100 106 110 111 108 104 101 100 103 110 118 127 133 136 135 129 120 110 100 91 84 79 76 76 78 82 88 93 98 102 104 105 105 107 112 120 130 141 150 156 158 156 150 141 131 121 112 103 95 86 78 70 63 58 55 55 58 67 81 100 123 144 161 172 
185 184 178 165 146 124 104 89 83 86 97 115 138 159 174 179 173 156 132 107 87 78 78 86 101 117 131 138 138 131 119 107 97 93 93 97 102 107 108 107 103 98 95 94 97 103 111 120 127 133 136 135 131 126 118 110 102 93 85 80 76 75 77 80 84 88 92 95 97 100 105 112 120 130 139 146 151 152 150 145 137 127 116 104 92 80 70 62 56 53 52 55 61 72 89 111 135 156 171 181 
187 185 177 162 141 115 91 75 66 66 75 93 117 143 164 175 174 161 140 114 92 78 74 78 87 100 112 119 122 119 112 105 101 100 102 106 111 113 113 109 103 98 93 92 93 98 105 114 123 131 137 141 143 143 140 134 126 115 104 93 84 79 77 78 81 86 90 94 97 99 101 104 109 116 124 132 140 146 150 150 146 138 127 113 97 83 71 62 57 55 56 61 71 85 103 125 146 164 177 184 
183 180 173 158 135 109 85 67 57 56 62 76 99 127 152 168 172 164 145 122 99 83 76 76 82 91 100 108 112 112 110 108 108 110 114 119 123 125 122 117 109 102 96 94 94 97 103 111 120 130 139 147 154 158 159 156 150 140 127 113 101 92 88 87 90 95 99 103 103 102 100 98 99 102 108 117 127 139 149 155 157 153 143 129 112 95 80 70 64 63 67 74 86 101 119 137 154 167 176 181 
171 170 164 152 132 108 85 67 56 52 56 68 88 115 141 160 168 164 151 130 109 93 84 81 84 91 98 105 109 112 113 114 118 123 129 134 138 138 134 127 118 110 103 99 99 101 106 113 122 132 142 152 161 167 171 171 168 160 148 135 122 112 107 107 109 114 118 119 116 110 102 94 89 88 92 100 113 130 147 160 167 168 162 149 133 114 97 85 79 79 84 93 105 119 133 145 155 161 166 169 
151 153 152 146 132 112 91 73 61 56 57 66 83 108 135 156 166 166 156 140 122 106 96 92 93 97 103 109 113 117 120 124 130 136 143 148 151 150 145 137 127 118 111 107 107 109 113 119 127 136 145 155 163 170 175 177 175 170 161 151 141 134 131 131 135 139 141 140 133 121 106 92 82 77 78 86 100 121 143 163 176 181 178 169 155 138 121 108 101 101 106 115 126 135 142 146 147 147 147 149 
127 134 139 140 134 121 103 86 72 65 64 71 86 109 134 155 167 169 163 151 136 122 112 106 105 108 112 116 121 125 130 135 141 148 154 158 159 157 151 142 133 124 118 115 116 119 124 130 136 142 149 156 162 167 170 172 171 168 163 158 153 151 151 155 159 163 164 160 150 133 111 91 76 68 67 74 89 112 139 164 181 189 190 185 174 159 144 132 126 126 131 138 144 147 146 140 133 126 122 122 
102 114 127 136 139 133 120 104 89 79 76 82 95 116 139 158 170 173 170 161 149 136 126 119 116 117 120 123 128 133 139 145 151 157 162 164 163 159 151 142 132 125 121 120 124 129 135 142 147 151 153 155 156 156 156 156 155 154 153 153 155 159 165 171 177 181 181 176 164 143 117 91 73 62 60 65 79 103 132 161 182 193 197 193 185 174 162 152 147 147 151 155 157 153 144 130 114 102 96 96 
84 99 117 135 145 146 137 124 109 97 92 96 108 127 147 164 174 178 176 168 157 145 134 126 122 121 122 126 132 138 145 152 158 163 165 165 162 155 145 135 126 120 118 121 128 137 146 153 157 159 158 154 148 141 135 131 129 129 132 138 147 158 169 180 188 192 192 187 173 150 121 93 71 59 55 59 72 94 125 155 178 192 197 195 189 179 170 163 160 161 164 166 164 155 139 118 98 83 75 75 
72 90 112 135 150 156 152 140 126 114 108 111 122 139 156 170 179 182 179 171 160 146 134 124 118 116 118 123 130 139 147 155 162 165 166 163 156 146 135 123 114 110 111 117 128 140 153 162 166 166 161 152 139 125 113 105 100 101 106 116 131 149 167 181 192 197 197 192 178 155 125 95 72 58 53 56 67 87 115 145 169 184 190 189 183 175 168 163 163 166 170 171 167 154 134 109 86 70 62 63 
69 88 112 137 155 162 160 150 136 124 118 121 131 147 162 175 182 183 179 170 156 140 125 114 107 105 107 114 123 135 146 156 163 166 164 159 149 136 122 110 101 98 100 109 123 139 155 166 172 171 164 150 132 112 95 83 77 77 83 95 113 135 158 177 190 196 198 193 180 158 129 99 75 61 55 56 65 82 106 132 155 169 174 173 167 160 154 153 156 162 169 171 167 154 132 105 81 65 58 59 
74 93 117 141 158 164 161 150 136 124 119 122 133 148 164 176 182 182 176 164 147 128 111 99 92 90 94 102 114 128 143 154 162 164 162 154 141 126 111 98 90 87 91 100 116 134 152 166 174 174 166 150 128 105 84 70 63 62 67 79 97 121 146 167 182 191 193 189 178 159 133 106 83 68 61 61 68 80 98 118 136 147 150 147 141 135 132 134 142 153 163 169 167 155 134 108 84 68 61 63 
86 104 127 147 159 162 155 142 127 115 110 114 126 143 160 172 179 178 170 156 136 115 96 83 77 76 81 90 105 121 138 151 159 162 158 149 135 119 104 92 84 81 84 93 108 126 145 161 170 172 166 151 129 104 83 68 59 57 61 70 86 108 132 153 169 179 183 181 173 158 138 116 96 83 75 73 76 84 94 106 116 121 121 117 111 106 106 112 125 141 156 165 166 158 140 116 94 79 72 75 
105 122 140 155 161 158 146 129 112 100 96 101 113 132 151 165 173 173 164 147 126 103 85 73 67 67 73 83 98 116 134 147 155 157 153 144 131 117 103 92 85 82 84 90 102 117 135 150 162 166 163 151 132 110 90 74 65 61 63 69 81 98 117 136 151 161 166 167 163 156 143 129 115 104 97 93 93 94 97 99 100 99 95 89 84 82 84 93 108 128 148 162 167 162 148 129 110 96 91 94 
