P2
100 100
255
131 133 135 136 134 130 125 120 116 114 115 118 123 128 133 137 139 139 137 133 128 122 117 113 110 110 111 114 119 124 128 131 133 133 132 129 127 124 122 120 118 117 117 117 119 121 125 130 134 137 137 136 132 126 120 115 111 110 111 113 117 121 124 127 129 130 131 132 133 133 133 132 130 128 126 124 122 121 120 119 118 116 114 112 111 111 113 116 120 125 131 135 137 137 135 133 130 128 127 128 
136 138 139 138 135 130 124 118 114 111 112 115 120 125 130 134 137 137 135 132 127 123 118 114 112 112 113 116 120 124 128 130 131 131 130 128 127 125 124 123 122 121 120 119 119 120 122 126 129 133 135 135 133 129 125 121 118 116 116 118 119 121 122 123 123 124 125 126 128 131 133 135 136 135 134 132 129 127 124 121 118 115 112 110 109 109 111 114 119 124 129 133 136 137 136 135 133 132 132 134 
139 141 142 140 136 131 124 118 113 110 110 113 117 122 128 132 135 135 135 132 129 125 122 119 117 117 118 120 123 126 128 129 129 128 127 126 126 126 127 128 128 127 126 123 121 120 120 121 124 128 131 133 133 132 130 128 126 124 123 123 122 122 120 119 118 117 118 121 125 129 134 138 141 142 141 139 136 132 128 123 119 116 112 110 109 109 111 115 119 124 129 132 135 136 136 135 134 134 135 137 
141 143 144 142 138 132 125 118 113 110 110 112 116 121 126 130 133 135 135 134 132 129 127 125 123 123 124 125 126 127 127 127 125 124 123 123 124 127 130 133 134 134 133 129 125 121 119 118 119 122 126 130 133 134 135 134 133 131 129 127 125 122 119 116 113 112 113 117 122 128 135 141 145 147 147 145 141 137 132 126 122 117 114 112 112 112 114 118 121 125 129 132 133 134 133 133 133 134 136 139 
141 144 145 143 140 134 127 120 115 112 111 113 116 121 126 130 133 135 136 136 135 134 132 131 130 130 130 130 130 129 127 125 122 119 118 119 122 126 131 137 140 141 140 135 130 123 118 115 115 117 121 126 131 135 137 138 138 136 134 130 126 122 117 113 110 109 111 115 121 129 136 143 148 150 150 148 144 139 134 129 124 120 117 116 116 117 120 122 125 128 129 130 131 130 130 129 130 132 135 138 
140 143 144 143 140 135 129 122 117 114 113 115 118 122 127 131 134 136 137 138 137 137 137 136 136 136 136 135 134 131 127 123 118 115 113 114 118 124 132 139 144 147 146 141 134 126 119 114 112 113 117 122 129 134 138 140 141 139 136 132 127 121 116 112 109 109 111 115 122 130 138 144 149 151 151 149 145 140 135 130 125 123 121 121 122 124 126 128 130 130 130 129 127 126 124 124 125 128 131 136 
137 141 143 142 139 135 129 124 120 117 117 118 121 125 129 132 135 136 137 138 138 138 138 139 140 140 140 139 137 133 128 122 116 111 109 110 114 122 130 139 146 150 150 146 139 130 121 114 110 111 114 120 127 133 138 141 141 139 136 131 125 120 115 112 110 111 113 118 124 131 138 144 147 149 148 146 142 138 133 129 126 125 125 126 128 130 133 134 134 133 130 127 123 120 118 118 119 123 127 133 
135 138 140 140 138 134 129 125 121 120 120 122 124 128 131 133 135 135 136 136 136 136 137 139 140 142 142 141 139 135 129 122 115 110 107 107 111 119 128 138 146 151 152 149 141 132 123 115 111 110 113 119 125 132 137 139 139 137 133 128 123 119 115 113 113 114 118 122 128 133 138 142 144 144 143 141 138 134 131 128 126 126 128 130 133 136 139 139 138 135 130 125 119 115 112 112 114 118 123 129 
132 136 137 137 134 131 127 124 122 122 123 125 128 130 132 133 134 133 132 131 131 131 133 135 138 140 142 142 140 136 130 123 116 110 106 106 110 116 126 136 144 150 152 149 143 134 125 118 113 112 114 119 126 132 136 138 137 134 130 125 121 118 116 116 117 120 123 127 131 134 137 138 139 138 136 134 132 129 127 126 126 127 130 133 137 141 143 143 141 136 130 122 116 110 107 107 110 114 120 127 
130 133 134 133 131 128 125 123 122 123 125 128 131 132 133 133 131 129 127 125 124 125 127 130 133 137 140 141 140 138 132 126 119 113 109 107 110 115 124 133 141 147 150 148 143 136 128 121 116 115 117 122 127 132 135 136 134 130 126 122 118 117 117 119 123 126 130 132 134 135 135 134 132 131 129 127 126 125 124 124 126 128 131 136 140 144 146 146 143 137 129 121 113 107 104 104 107 113 119 125 
130 132 132 130 127 124 122 121 122 124 127 130 133 134 133 131 127 124 120 118 117 117 120 123 128 132 136 139 140 138 134 129 123 117 113 111 112 116 123 130 138 143 146 146 142 136 130 124 121 120 122 125 130 133 135 134 131 127 122 118 116 117 119 123 128 132 136 137 137 135 133 129 126 124 122 122 122 122 123 124 125 128 132 136 141 145 147 147 143 137 129 120 111 106 103 104 108 113 120 126 
131 131 130 127 123 120 119 119 121 125 129 132 134 134 132 128 123 118 114 111 110 111 114 118 123 128 133 136 138 138 136 132 128 123 119 117 116 119 123 129 134 139 142 142 140 136 131 127 125 124 126 129 132 134 135 133 129 124 119 116 115 117 121 127 133 138 141 141 139 135 131 126 122 119 118 118 120 121 122 124 126 128 131 136 140 144 146 146 143 137 128 120 112 107 104 106 110 116 122 128 
132 132 129 125 120 117 117 118 121 125 130 133 135 133 130 125 119 114 109 106 106 107 110 115 120 125 129 133 136 137 136 135 132 129 126 123 122 122 124 127 131 134 137 138 137 135 132 129 128 128 130 132 134 135 134 131 127 121 117 114 114 117 123 129 136 141 144 144 141 135 129 124 119 117 117 118 120 122 124 125 126 127 130 133 137 141 144 144 141 136 129 121 114 109 108 110 114 120 126 131 
135 133 129 124 119 116 116 118 122 127 131 134 135 133 129 123 116 110 106 104 105 107 110 114 119 123 127 130 133 134 135 136 135 134 132 130 128 127 126 127 128 130 132 133 133 133 131 131 130 131 132 133 135 135 133 130 125 119 115 113 114 117 123 131 138 143 146 145 141 135 129 123 119 118 118 120 123 125 126 126 126 126 127 130 133 137 140 141 139 135 129 122 116 113 112 115 119 125 130 134 
137 134 129 123 119 116 116 119 123 128 133 136 136 133 127 121 114 109 106 105 107 110 113 117 121 124 126 128 129 131 133 136 137 138 138 136 134 131 128 126 125 126 126 128 129 130 130 130 131 131 132 133 134 133 131 128 123 118 114 113 113 117 123 131 138 143 145 145 141 135 129 124 121 120 122 124 127 128 129 127 126 124 124 125 128 132 135 137 137 134 130 124 120 117 117 120 125 130 134 137 
138 134 129 123 119 117 117 120 125 130 135 137 136 133 127 121 115 110 108 109 112 115 119 122 124 125 125 125 126 127 130 134 138 140 141 140 138 134 129 125 122 121 121 123 125 127 128 130 130 131 131 132 132 131 129 126 122 118 115 113 114 117 123 129 136 141 143 142 139 135 130 126 124 124 126 129 131 132 130 128 124 121 120 120 123 126 130 133 134 133 130 126 122 121 121 124 129 133 137 139 
138 134 129 123 119 118 118 122 127 132 136 138 137 133 128 121 116 113 113 115 118 123 126 129 129 127 125 123 122 123 127 131 137 141 143 143 140 135 129 123 119 117 117 118 121 124 127 129 129 130 130 129 129 128 127 125 123 120 117 115 116 118 122 127 132 136 139 138 136 133 130 127 127 128 130 132 134 134 131 127 122 118 116 115 118 122 126 130 132 131 130 127 125 124 124 127 131 135 138 139 
137 133 128 123 119 118 119 123 128 133 137 139 137 134 129 123 119 117 118 121 126 130 133 134 132 128 124 120 118 119 122 128 135 140 144 144 140 135 127 120 115 112 112 114 118 122 126 128 129 129 128 127 126 126 126 125 124 122 121 119 118 119 121 124 128 131 133 133 132 130 129 128 129 130 133 135 135 134 130 125 120 115 112 112 114 118 123 127 130 130 129 128 126 125 126 129 132 136 138 138 
135 131 127 122 119 118 119 123 128 133 136 138 137 134 130 125 122 121 123 127 132 136 138 138 134 128 122 116 114 114 118 125 132 139 143 143 139 133 125 117 111 109 109 112 116 121 125 128 129 128 126 125 124 124 125 126 127 127 126 124 122 121 121 121 123 124 126 127 127 127 127 128 130 132 134 135 135 133 128 123 117 112 110 110 113 117 122 126 129 130 129 128 127 126 127 130 132 135 137 137 
133 129 125 121 118 117 118 121 126 131 134 136 136 134 131 127 126 126 128 132 137 140 141 139 134 126 119 113 110 110 115 122 130 137 141 142 138 131 122 114 108 106 107 111 116 122 127 129 129 128 125 123 122 123 125 128 130 132 132 130 127 124 121 119 118 118 119 120 122 123 125 127 130 132 134 135 134 131 126 120 115 111 109 110 113 117 122 126 129 130 130 129 128 128 128 130 132 134 135 135 
132 128 124 120 117 116 116 119 123 127 131 133 134 133 131 129 128 129 132 136 139 141 141 138 131 123 115 109 107 108 113 120 129 136 140 140 135 128 120 112 106 105 107 112 118 125 130 132 131 129 125 122 121 122 125 130 134 137 138 137 133 128 123 118 115 113 113 115 117 120 123 126 129 132 133 133 132 128 124 118 114 111 110 111 115 119 124 128 131 132 131 130 129 129 130 131 133 134 135 134 
132 129 125 120 117 115 115 116 119 123 127 129 131 131 131 130 130 132 134 137 140 141 140 135 128 120 113 107 105 107 112 120 129 135 139 138 134 126 118 110 106 105 108 114 122 129 134 135 134 130 125 121 119 120 124 130 137 142 144 143 139 132 125 118 113 110 109 111 114 118 122 126 130 132 133 132 130 126 122 117 114 112 112 114 118 122 127 130 133 134 133 132 131 131 131 132 134 135 135 134 
134 131 126 122 118 115 114 114 116 119 123 126 128 129 130 131 132 134 136 138 140 140 137 132 125 118 111 106 105 108 114 121 129 135 138 137 132 125 117 111 107 108 112 119 127 134 139 140 137 132 125 120 117 118 123 130 138 144 148 148 144 136 128 119 112 108 107 109 113 118 123 127 131 133 133 131 129 125 121 117 114 113 114 117 121 125 130 133 135 135 135 134 133 133 133 134 135 136 137 136 
136 134 130 125 121 117 115 114 115 117 120 123 126 128 130 131 133 135 137 138 139 138 135 130 123 117 111 108 108 111 117 124 131 136 138 136 131 125 118 112 110 111 117 124 132 140 144 144 140 133 125 118 114 115 119 127 137 145 150 151 147 140 130 121 113 108 107 109 113 119 124 129 132 134 133 131 128 124 120 117 116 115 117 120 124 128 132 134 136 136 136 135 134 134 134 135 136 137 138 138 
139 137 134 130 125 121 118 116 115 116 118 121 124 127 130 132 134 135 137 137 137 136 133 128 123 118 114 112 113 117 122 128 134 137 138 136 131 125 119 115 114 116 122 130 138 145 148 147 143 134 125 117 111 111 115 124 134 143 149 151 149 142 132 122 114 109 108 110 115 121 127 132 135 135 134 131 127 124 120 118 117 118 119 122 126 129 132 134 135 135 135 134 133 132 133 134 136 138 139 140 
141 140 138 134 130 125 122 119 118 118 119 122 125 128 130 132 134 135 136 136 135 134 131 127 124 120 118 118 120 123 128 133 137 139 138 135 131 125 121 118 118 121 127 135 143 149 152 150 144 135 125 115 109 107 111 119 130 140 147 150 148 142 133 123 115 111 110 113 118 124 130 134 136 136 134 131 127 124 121 119 119 120 122 124 127 130 132 133 133 133 131 130 129 128 129 131 133 136 138 140 
141 141 140 138 134 130 126 123 122 121 122 124 127 129 132 133 134 135 135 134 133 131 129 127 125 124 123 124 127 130 134 137 139 139 138 134 130 125 122 120 121 125 131 139 146 151 153 151 145 136 124 114 107 105 108 115 125 136 144 148 147 141 133 124 116 112 112 115 120 127 132 136 137 136 133 129 126 123 122 121 121 123 124 126 128 130 130 130 130 128 126 124 123 122 122 124 127 131 135 138 
138 140 141 139 137 133 130 127 126 126 126 128 130 132 133 134 134 134 132 131 130 128 127 126 126 126 128 130 133 136 139 140 140 139 136 133 128 124 122 121 122 126 133 140 146 151 153 151 145 136 125 114 107 104 106 112 122 132 140 144 144 139 132 124 117 114 114 117 123 128 133 135 136 134 131 127 125 123 122 123 124 126 127 128 129 129 129 128 126 123 120 117 115 113 114 116 119 124 129 134 
134 137 139 138 137 134 132 130 130 130 131 132 134 135 135 135 133 132 129 127 125 124 123 124 125 128 131 135 138 140 142 142 140 138 134 130 125 122 120 120 122 125 131 137 144 148 150 149 144 135 125 116 108 105 106 111 120 129 136 141 141 137 131 124 118 115 116 119 124 129 132 134 133 131 127 125 123 123 124 126 128 130 131 131 131 130 128 126 123 119 114 110 107 105 105 107 111 117 123 129 
129 133 135 135 134 133 131 131 131 132 134 136 137 137 136 135 132 129 126 123 120 119 119 121 124 128 132 137 140 142 143 142 139 135 130 126 121 118 117 117 118 122 127 133 138 143 145 145 141 135 127 118 112 108 108 112 119 127 134 137 138 134 129 123 119 117 117 120 124 128 130 131 129 127 124 122 122 124 126 130 132 134 135 135 134 132 129 125 121 116 111 106 102 99 99 101 105 111 117 124 
125 129 130 130 129 128 128 129 131 133 136 138 139 139 137 134 131 126 122 118 115 114 115 117 121 126 132 137 141 143 143 140 137 132 126 121 117 114 113 112 114 117 121 126 131 135 138 139 138 134 128 122 116 113 113 115 121 127 132 135 135 133 128 123 119 118 119 121 124 127 128 128 125 123 121 121 122 125 130 134 137 140 140 139 137 134 131 127 122 117 111 105 100 97 96 98 102 108 114 120 
123 125 125 125 124 123 124 126 129 132 135 138 139 139 137 134 129 124 119 115 112 110 111 114 119 124 130 136 140 141 141 138 134 128 122 117 113 110 108 108 109 111 114 118 122 127 131 134 134 133 129 125 121 119 118 120 123 128 132 134 134 131 127 123 120 119 120 122 124 126 126 125 122 120 119 120 124 128 134 139 142 144 144 143 140 137 134 130 126 120 114 108 103 100 99 100 104 109 114 120 
124 124 123 121 119 118 119 121 125 129 134 137 138 138 136 132 127 122 117 113 110 109 110 113 117 123 129 134 138 139 139 136 131 125 119 114 110 107 105 105 105 106 108 112 115 120 124 128 131 131 131 129 126 124 124 125 127 130 132 133 133 130 127 124 121 121 121 123 124 125 125 123 121 119 119 122 126 132 138 143 146 147 146 144 142 139 136 134 130 126 121 116 111 108 106 107 110 114 119 122 
128 126 122 119 115 114 114 117 121 126 130 134 136 135 134 130 126 121 117 113 111 110 111 114 118 123 128 133 136 137 136 133 129 123 117 112 108 105 104 103 103 104 105 108 111 115 119 124 127 130 131 131 131 130 129 129 131 132 133 133 132 130 127 124 123 122 123 124 125 125 124 122 120 120 121 124 129 135 141 145 147 147 145 143 140 139 138 137 136 134 130 126 122 119 117 118 120 123 126 128 
133 129 124 119 115 113 112 115 118 123 127 130 132 132 131 128 125 122 119 116 114 114 115 117 121 125 129 132 135 136 134 131 127 122 116 112 108 106 105 104 105 105 106 107 109 113 117 121 125 129 132 133 134 133 133 133 133 134 134 134 132 130 127 125 123 123 124 125 125 125 124 123 121 121 123 127 132 137 142 145 145 143 141 138 136 135 136 138 140 140 139 137 134 131 130 130 131 133 135 135 
138 134 128 122 117 114 113 114 117 120 123 126 128 128 127 126 125 123 122 121 120 120 121 123 125 128 130 133 134 134 133 130 126 121 117 113 110 109 108 109 109 110 110 111 112 114 117 120 124 128 131 134 135 135 135 135 135 135 135 134 132 129 127 125 124 124 124 125 126 126 125 124 123 123 125 129 133 137 140 141 140 136 132 129 127 129 132 137 141 145 146 146 144 142 141 140 141 142 142 141 
142 137 132 126 121 118 116 116 117 119 121 122 123 124 124 124 125 125 126 127 127 128 129 130 130 131 132 133 133 132 131 128 124 121 117 115 114 114 114 115 116 117 117 117 117 117 119 121 124 127 130 133 134 135 136 136 136 136 135 133 131 129 126 124 124 124 125 126 127 127 127 126 125 125 127 130 133 135 136 135 131 126 121 118 117 120 125 133 140 146 150 151 151 149 147 146 146 146 146 145 
142 139 135 131 127 123 121 120 119 119 119 119 120 120 121 123 125 128 130 133 134 135 136 136 135 135 134 133 132 130 128 126 123 120 118 117 118 119 121 124 126 127 127 126 124 123 122 122 123 125 128 130 132 134 135 135 136 135 134 132 130 128 125 124 123 124 125 126 127 128 128 127 126 126 127 129 131 131 130 127 122 116 110 107 107 111 118 128 137 145 150 153 152 151 149 147 146 146 145 144 
140 139 137 134 132 129 127 125 123 120 119 117 117 117 119 122 126 130 134 138 140 141 141 140 139 137 135 133 130 128 126 124 121 120 119 120 121 124 128 132 135 136 136 134 131 128 125 123 123 124 125 127 129 131 133 134 134 134 133 131 129 127 125 123 123 124 125 127 128 129 128 128 127 126 126 127 127 126 124 119 113 107 101 98 99 104 112 122 133 142 148 150 150 148 145 142 141 140 140 140 
135 136 137 137 136 135 132 130 126 122 119 116 115 115 118 122 127 132 137 141 143 144 144 142 140 137 134 131 128 126 123 121 120 119 120 121 125 129 134 139 142 144 144 141 137 133 128 124 122 121 122 124 126 128 130 131 132 132 131 130 128 126 124 123 123 124 126 128 129 129 129 128 126 125 124 124 123 121 118 113 107 101 96 94 95 100 108 118 129 137 143 145 144 141 137 134 132 131 132 133 
128 132 135 138 139 139 137 134 129 124 119 116 114 115 117 122 128 133 138 142 144 145 144 141 139 135 132 129 126 124 122 120 119 119 120 123 127 132 138 143 147 149 148 145 141 135 129 124 121 119 120 121 123 125 127 128 129 129 128 127 126 125 124 124 125 126 128 129 130 130 129 128 125 123 122 121 120 118 115 110 105 100 96 94 95 100 107 117 126 133 137 138 136 132 127 123 121 120 122 124 
122 127 133 137 140 141 140 136 132 126 121 117 115 115 118 123 128 134 138 141 143 142 141 138 135 132 130 127 125 123 122 120 120 120 121 124 129 134 140 145 149 151 150 146 141 135 128 123 120 118 118 119 121 123 124 125 125 125 125 125 125 125 125 126 127 129 130 132 132 131 130 127 124 122 120 119 118 117 115 111 107 103 100 99 100 104 111 118 125 131 133 132 128 123 118 114 111 111 113 117 
117 124 131 136 140 142 141 138 133 127 122 118 116 117 120 124 129 134 137 139 139 138 136 133 131 129 127 126 125 124 123 123 122 122 123 126 130 135 140 145 148 149 147 144 139 133 127 122 119 118 119 120 121 122 122 122 122 122 122 122 123 124 126 128 130 132 134 135 134 132 130 126 123 120 119 118 118 118 117 116 113 111 109 108 109 112 117 122 127 130 130 127 123 117 111 107 105 105 107 111 
116 122 129 135 139 141 141 138 134 128 123 120 118 119 121 125 129 133 135 135 134 132 130 128 127 126 126 127 127 127 127 126 126 126 127 128 131 135 139 142 144 144 143 139 134 129 125 122 120 121 121 123 123 123 122 120 119 118 118 119 121 124 128 131 134 137 138 138 136 134 130 126 122 119 118 119 120 121 122 123 122 121 120 120 120 122 125 128 130 130 128 124 119 114 108 105 103 103 105 110 
116 122 128 134 138 140 139 137 133 129 124 121 120 121 123 126 129 131 131 130 129 126 124 123 123 124 126 128 130 131 132 132 131 130 130 131 132 134 136 138 139 138 136 133 129 125 123 122 123 125 126 128 128 126 123 120 116 114 114 116 119 124 129 134 138 141 142 141 138 134 129 125 121 119 119 120 123 126 128 130 131 131 131 131 131 131 132 133 132 131 128 123 118 113 109 106 105 105 107 111 
119 123 128 132 135 137 137 135 132 129 125 123 122 122 124 126 127 128 128 126 123 121 120 120 121 124 127 131 134 136 137 137 136 135 134 133 133 133 133 133 133 131 128 126 123 122 122 123 127 130 133 134 133 130 125 120 115 111 110 112 117 123 130 137 142 145 145 143 139 134 129 124 121 119 120 123 126 130 134 137 138 139 139 139 138 138 137 136 134 131 128 123 119 115 112 110 110 111 112 115 
122 125 127 130 132 134 134 133 131 129 126 124 123 123 124 125 125 125 124 122 119 118 117 118 121 124 129 133 137 139 140 140 139 137 136 134 133 132 130 129 127 124 122 119 118 118 121 125 131 136 140 141 140 135 128 120 114 109 108 110 115 122 131 138 144 147 147 144 139 134 128 123 121 120 122 125 130 134 138 141 142 143 143 142 142 141 139 137 134 131 127 124 121 118 117 116 117 117 119 120 
125 126 126 127 129 130 131 130 129 128 126 124 123 123 123 123 123 122 121 119 117 116 116 118 122 126 131 136 139 141 142 141 140 138 135 133 132 130 128 125 122 119 116 114 114 116 121 127 134 141 146 148 145 140 131 122 113 108 106 108 114 122 131 139 145 147 146 143 138 132 127 123 121 122 124 128 132 136 139 141 142 142 142 141 140 139 138 135 133 130 127 124 122 122 122 122 123 124 125 125 
127 126 125 124 125 126 127 128 128 127 126 125 124 123 122 122 121 120 118 117 116 116 118 120 124 129 134 137 140 141 141 139 137 135 133 131 129 127 125 122 119 115 112 111 111 114 120 128 137 145 150 152 149 143 133 123 114 107 105 107 113 121 130 138 144 146 145 141 135 130 125 123 122 123 127 130 134 137 139 139 139 138 137 136 135 135 134 132 130 128 126 124 124 125 126 128 129 130 130 129 
128 125 122 121 121 122 123 125 126 126 126 125 124 123 121 120 119 118 117 117 117 118 120 124 128 132 135 138 139 139 137 134 132 130 128 127 126 125 123 121 118 114 111 109 109 113 119 127 137 145 151 153 151 144 135 124 115 108 106 108 114 122 130 137 141 143 141 137 132 128 124 123 123 126 129 132 135 136 136 135 133 131 130 129 129 129 129 128 127 126 125 125 125 127 129 132 134 134 133 131 
127 123 120 117 117 118 120 123 125 126 126 126 124 123 121 120 119 118 118 118 119 121 124 128 131 134 137 137 137 135 131 128 125 123 122 122 122 123 122 121 118 115 111 109 109 112 117 125 135 143 149 151 149 143 134 125 116 110 108 110 116 123 130 135 138 139 136 133 128 125 123 124 125 128 132 134 135 135 133 130 126 124 122 122 122 124 125 126 126 126 125 126 127 129 132 135 136 136 135 132 
127 121 117 115 114 116 118 122 124 126 127 127 126 124 122 121 120 119 120 121 122 125 128 131 134 136 137 136 134 130 125 121 118 116 116 117 119 122 123 123 121 118 114 111 110 111 116 122 131 139 144 147 145 140 133 125 117 113 112 114 119 125 130 134 135 134 131 128 125 123 123 125 128 131 134 136 135 133 129 125 120 117 116 116 118 120 123 125 126 127 127 128 129 131 134 136 138 138 135 132 
126 120 116 113 113 114 118 121 125 128 129 129 128 126 124 123 122 122 122 124 126 128 131 134 136 137 137 135 131 126 120 115 112 110 111 113 117 122 125 127 126 123 118 114 111 111 114 119 126 133 138 140 139 135 130 124 119 117 117 119 123 128 131 132 132 129 126 124 122 122 123 127 130 134 136 136 134 131 126 121 116 113 112 114 116 120 123 126 128 129 129 130 131 133 135 137 139 138 136 131 
126 120 115 113 113 115 118 123 127 130 131 132 131 129 127 126 125 125 126 127 128 130 133 135 136 137 136 133 129 123 117 112 108 107 108 112 117 123 128 131 131 128 124 118 114 112 113 116 121 126 130 132 132 129 126 122 120 120 122 125 129 131 132 131 129 125 122 120 120 121 124 128 132 136 137 136 133 129 123 118 114 112 112 114 117 122 126 129 131 132 132 132 133 134 136 138 139 138 136 131 
126 120 116 114 114 116 120 125 129 132 134 135 134 132 131 129 129 128 129 129 130 131 133 134 135 136 135 132 128 123 117 111 107 106 107 112 118 126 132 136 137 134 129 123 118 114 113 114 118 121 124 126 125 124 122 121 121 123 127 131 134 135 134 131 127 122 119 117 118 121 125 130 134 137 137 135 132 127 122 117 114 113 113 116 120 125 129 132 134 134 134 134 134 135 137 139 139 139 136 131 
127 121 117 115 116 118 123 127 132 135 137 137 136 135 134 132 131 131 131 130 131 131 132 132 133 134 133 132 128 124 118 113 109 108 109 114 120 128 135 140 141 139 134 127 121 116 114 114 116 118 120 120 120 119 118 119 122 126 131 136 138 139 136 131 125 120 117 116 118 121 126 131 135 137 136 134 130 125 121 117 115 115 116 119 123 128 131 134 135 135 134 134 134 135 137 138 139 139 136 132 
127 122 119 117 118 121 125 130 134 137 139 139 138 136 135 134 133 132 131 130 130 129 129 130 131 132 132 132 130 126 121 116 113 111 112 116 123 131 138 142 144 142 137 130 124 119 117 116 117 118 119 118 117 115 115 117 122 128 134 139 142 141 137 131 124 118 115 115 118 122 127 132 135 136 135 131 128 123 120 117 117 117 119 122 126 129 132 133 134 133 132 132 132 134 136 138 139 138 136 132 
127 122 119 118 120 123 127 132 136 139 139 139 137 136 134 133 132 131 130 129 128 127 126 127 128 130 131 132 132 129 125 121 117 115 115 119 124 132 138 143 144 143 138 132 127 122 120 120 120 121 120 118 116 114 114 116 121 128 135 141 143 142 137 130 123 117 114 114 118 123 128 132 134 134 132 129 125 122 120 118 118 120 122 124 126 129 130 130 130 129 129 129 130 132 134 137 138 138 135 132 
126 121 119 118 120 124 129 133 137 139 139 137 135 133 131 130 129 129 128 127 126 125 124 124 126 128 131 133 134 132 129 125 121 118 118 120 125 131 137 141 143 141 137 132 128 125 124 124 125 125 124 121 118 115 114 116 121 128 136 141 143 141 136 128 121 115 113 114 118 123 128 132 133 132 130 126 123 121 120 120 120 122 123 124 125 126 126 125 125 124 124 124 126 129 132 135 137 137 134 130 
123 119 117 117 119 124 129 133 136 138 137 135 132 129 127 126 125 125 125 124 124 123 122 123 125 128 131 134 136 135 133 129 124 121 119 121 124 129 134 138 139 138 135 131 128 127 127 129 131 131 130 126 121 117 115 116 121 128 135 140 142 140 134 126 119 114 113 114 119 124 128 131 132 130 127 124 122 120 120 121 122 123 124 124 123 122 121 120 119 118 119 121 124 127 131 134 136 135 133 128 
120 116 114 114 117 122 127 132 135 136 135 132 128 125 122 121 121 121 122 122 122 122 122 124 126 129 132 135 137 137 134 130 126 122 120 120 123 127 131 134 135 134 132 129 128 128 130 134 136 137 136 131 126 120 117 117 121 127 133 138 140 137 132 124 118 114 113 115 119 124 128 130 130 128 125 122 121 120 121 123 124 124 124 123 121 118 116 115 114 114 115 118 122 127 132 135 136 135 131 126 
117 112 110 111 114 119 125 131 134 134 133 129 125 121 118 117 117 117 119 120 122 123 124 126 128 131 134 136 137 137 134 130 125 121 119 119 121 124 127 130 131 130 129 127 127 129 132 136 140 142 140 136 130 124 120 119 122 127 132 136 137 135 130 123 117 114 114 116 120 125 128 129 128 125 123 121 120 121 123 124 126 126 125 122 119 116 113 112 111 112 115 119 124 129 134 136 137 134 130 123 
114 109 106 107 111 117 123 129 133 134 132 128 123 119 116 114 114 115 117 120 122 124 126 129 131 133 135 137 137 135 132 128 124 120 117 117 119 122 125 127 128 128 126 125 126 128 133 138 142 144 143 139 133 127 123 121 123 127 132 135 136 133 129 123 118 115 116 119 123 126 128 128 126 124 121 120 120 122 124 127 128 128 126 123 119 116 113 112 112 114 117 122 128 133 137 139 138 135 129 121 
111 106 103 104 108 114 122 128 132 134 132 129 124 119 115 113 113 114 117 120 123 127 130 132 134 136 136 136 135 133 129 125 121 118 116 116 118 121 124 127 128 127 126 125 125 128 132 137 142 144 143 140 134 129 125 123 125 129 133 135 136 133 129 124 121 119 120 123 126 129 129 128 125 122 120 119 120 123 126 129 130 130 128 124 121 118 116 115 116 118 123 128 133 138 142 143 141 136 128 119 
110 104 102 103 107 114 121 128 133 135 134 131 126 121 117 115 114 115 118 121 125 129 133 135 137 137 137 135 133 129 125 121 118 116 115 116 119 122 126 128 129 128 127 125 125 127 131 135 139 141 140 137 133 128 125 125 127 130 134 136 137 135 131 127 125 124 125 128 130 132 131 129 125 121 119 119 121 124 128 131 132 132 130 127 124 121 120 120 122 125 129 134 139 143 146 146 142 136 128 119 
110 105 102 104 108 115 122 129 134 137 137 134 130 125 121 118 116 117 119 123 127 132 135 138 139 138 136 133 129 125 121 118 116 115 116 118 121 125 129 131 131 130 129 127 126 127 129 131 134 135 135 133 129 126 125 125 128 132 136 138 138 137 134 131 130 130 131 134 135 135 133 129 125 121 119 119 121 125 129 132 134 134 132 130 127 126 125 126 128 131 136 140 144 147 148 147 143 136 128 118 
112 107 105 107 111 118 125 131 136 139 139 137 134 130 125 122 120 120 122 125 129 134 137 139 140 138 135 130 126 121 118 115 114 115 117 120 124 129 132 134 135 134 131 129 127 126 127 128 129 129 128 126 124 122 122 125 128 133 137 140 140 139 137 135 135 136 137 139 140 139 135 131 126 121 119 120 122 126 130 134 135 135 134 132 130 129 130 131 134 137 140 143 146 148 148 146 142 135 127 119 
114 111 111 113 117 122 128 134 138 141 141 140 137 133 129 126 123 123 124 127 131 135 138 140 139 137 133 127 122 118 115 113 114 116 119 124 128 133 136 138 138 137 134 131 128 126 125 124 123 122 121 119 118 118 120 123 128 134 138 141 141 141 139 138 138 140 142 143 143 141 137 132 126 122 120 121 124 128 132 134 136 135 134 132 131 131 132 134 136 139 141 144 145 146 145 142 138 132 126 120 
118 117 118 120 124 128 133 136 139 141 142 141 138 135 132 128 126 125 126 128 132 135 138 139 138 135 130 124 119 115 113 113 114 118 122 127 132 136 139 140 140 138 136 133 129 126 124 122 119 117 115 113 113 114 117 122 128 133 138 141 141 140 139 138 139 141 143 145 145 142 138 132 127 123 122 123 126 130 133 135 135 134 133 131 130 131 132 134 136 138 139 140 140 140 138 136 132 128 124 120 
121 123 125 128 131 134 136 138 139 140 140 139 138 136 133 130 128 127 127 129 132 135 138 138 137 133 127 121 116 113 112 113 116 120 125 130 135 138 140 141 140 138 136 133 130 127 124 121 117 114 111 109 109 110 114 120 127 133 137 139 139 138 136 136 137 139 142 143 143 141 137 132 127 124 124 125 128 132 134 135 135 133 130 128 127 128 129 131 132 134 134 134 133 132 130 128 126 124 122 121 
125 128 132 135 137 138 139 139 138 138 137 136 135 134 132 130 129 128 128 130 133 135 137 137 135 130 125 119 115 112 112 114 118 123 128 133 136 139 140 139 138 137 135 132 130 128 125 121 117 113 110 108 107 109 113 119 126 131 135 136 135 133 131 130 131 134 137 139 139 138 135 131 127 125 125 127 131 134 135 135 133 130 127 125 123 123 124 126 127 128 127 126 125 123 121 120 119 119 120 122 
128 132 137 139 141 141 140 138 136 134 133 132 132 131 131 129 129 128 129 131 133 135 136 136 133 128 123 117 113 111 112 115 120 125 130 134 137 138 138 137 135 133 132 131 130 128 126 123 119 115 111 109 108 110 114 119 125 130 132 132 130 127 124 123 124 126 129 132 133 133 131 128 126 126 127 130 133 135 136 135 132 128 123 120 118 118 119 120 121 121 121 119 117 115 114 113 114 116 119 123 
129 135 139 141 142 141 138 135 132 130 129 128 128 128 128 128 128 128 129 131 133 135 136 135 132 127 122 116 113 111 113 116 121 126 131 135 137 137 135 133 131 129 128 128 128 128 128 126 123 119 115 112 111 112 116 121 125 129 130 129 125 121 117 115 116 118 121 124 126 127 126 125 125 126 128 131 134 136 137 134 130 125 120 116 114 113 114 115 116 117 116 115 113 111 110 110 112 114 119 124 
130 135 138 140 140 138 135 132 129 126 125 125 125 126 126 127 127 128 129 131 133 134 135 134 131 126 121 116 113 111 113 116 121 126 131 134 136 135 133 130 127 125 125 125 127 128 129 128 126 123 119 116 115 116 119 123 126 129 129 126 121 116 111 109 109 111 114 117 120 121 122 122 123 125 129 132 135 137 136 133 128 123 117 113 111 111 111 113 114 115 115 114 113 112 111 111 113 116 120 125 
129 133 135 136 136 134 131 128 126 124 123 123 124 124 125 125 125 126 127 129 132 134 134 134 131 127 121 117 113 112 113 116 120 126 130 133 134 134 131 128 125 122 122 123 125 127 130 131 130 127 124 121 120 120 122 125 128 129 128 125 119 113 109 106 105 107 109 113 115 117 119 120 122 125 129 133 135 136 135 131 126 121 115 112 110 110 111 113 115 117 117 117 117 116 116 116 117 119 122 126 
128 129 130 130 129 128 127 125 124 123 123 123 123 123 123 123 123 124 125 127 130 132 134 134 132 128 123 118 114 112 113 115 119 124 128 132 133 133 131 127 124 121 120 121 123 127 130 132 132 131 129 126 124 124 126 128 130 130 129 125 120 114 109 106 105 106 109 111 114 116 118 120 122 126 129 133 135 135 133 129 124 119 115 112 111 112 114 117 119 121 123 124 124 123 123 123 123 124 125 126 
126 125 124 123 123 123 123 123 123 124 124 124 124 123 122 121 120 120 121 124 127 130 133 134 133 130 126 121 117 114 113 114 117 121 126 130 133 133 132 129 125 122 120 120 122 126 129 132 134 133 132 130 128 127 128 130 132 132 131 128 123 118 114 111 110 110 111 113 115 117 118 120 123 126 130 132 134 134 131 128 123 119 115 114 114 116 119 122 125 128 130 131 132 132 132 131 130 129 128 127 
123 120 119 118 118 119 121 123 125 126 127 126 125 123 121 119 117 116 117 120 123 128 132 135 135 134 130 126 121 116 114 114 115 119 124 129 133 134 134 131 128 124 122 121 122 125 129 132 134 134 133 132 130 129 130 131 133 134 133 131 128 124 121 118 117 117 117 118 118 119 120 122 125 127 130 132 133 132 130 126 122 119 117 117 118 121 125 129 132 135 137 138 139 140 139 138 137 134 130 127 
121 117 115 114 115 118 121 124 127 129 130 129 127 124 120 116 113 112 113 115 120 125 131 135 138 138 136 131 126 120 116 114 114 117 122 128 132 135 136 134 131 127 124 122 122 125 128 131 133 134 134 132 131 130 130 131 133 134 135 135 133 131 129 127 126 125 124 123 123 123 123 124 126 129 131 133 133 131 128 125 122 120 119 121 123 127 131 135 138 140 141 143 144 144 144 143 140 137 132 126 
120 116 114 113 115 119 123 127 131 133 133 132 129 125 120 115 111 109 109 111 116 123 130 136 141 143 141 137 131 125 119 115 114 116 121 126 132 136 138 137 134 130 126 124 123 125 127 130 133 134 133 132 130 129 129 130 132 134 136 137 137 137 137 136 134 133 131 129 127 126 125 126 128 131 133 134 133 131 128 125 122 121 122 124 128 132 136 139 141 142 143 144 144 145 144 143 141 137 132 126 
121 117 115 115 118 122 126 131 134 136 136 135 131 126 120 115 110 107 107 109 114 121 129 137 143 147 146 143 137 130 122 117 115 115 119 125 131 136 138 138 136 132 128 125 124 125 127 130 132 133 133 131 129 128 127 128 129 132 134 137 139 141 142 142 141 139 136 133 130 128 127 128 130 132 134 135 134 132 129 125 123 123 124 127 131 135 139 141 142 142 141 141 141 141 141 141 139 136 131 126 
122 119 118 119 122 126 130 134 137 139 138 136 133 128 123 117 112 108 107 108 113 120 128 137 144 149 150 147 142 134 126 119 116 115 118 123 129 134 137 138 136 132 129 126 125 126 128 130 132 133 132 130 128 126 125 125 126 128 131 135 138 141 143 144 143 141 138 134 131 128 127 128 131 133 136 137 136 133 130 126 124 124 126 129 133 137 139 140 139 138 136 135 134 134 135 135 135 133 130 126 
125 123 123 125 127 130 134 137 139 139 139 137 135 131 126 121 116 112 109 109 113 119 127 136 144 149 151 149 144 137 129 121 117 115 117 121 126 131 134 135 134 131 128 126 126 127 129 131 132 133 132 130 127 124 122 121 122 124 127 130 134 138 141 143 143 141 137 133 130 127 127 128 131 134 137 138 137 135 131 128 126 125 127 130 133 136 137 137 135 132 129 127 126 126 128 129 130 130 129 127 
128 128 129 130 132 134 136 137 138 138 138 137 136 134 131 127 122 118 114 112 114 118 125 133 141 147 150 149 145 138 130 123 118 116 116 120 124 128 130 131 130 128 126 125 125 127 129 131 133 133 132 129 126 123 120 118 118 119 121 125 129 133 136 138 139 137 134 131 127 125 125 127 130 134 138 139 139 136 133 129 127 126 127 129 131 133 133 132 128 124 121 118 118 119 121 124 126 128 129 129 
132 133 134 134 135 135 135 135 134 134 135 136 137 137 136 134 129 124 119 116 115 117 122 129 136 142 145 145 142 137 130 123 119 116 116 118 121 124 126 126 126 125 124 124 125 127 129 132 133 133 132 129 126 122 119 117 116 116 117 119 122 126 129 132 133 132 130 127 125 123 124 126 130 134 138 139 139 137 134 130 127 126 126 127 128 129 128 125 122 117 114 111 111 113 116 120 124 128 130 132 
136 137 138 137 136 135 132 130 129 129 130 132 136 139 140 140 136 131 125 120 116 116 119 124 130 135 139 140 138 134 128 123 119 117 117 118 120 121 122 122 121 121 121 122 123 126 129 131 133 133 131 129 126 123 120 117 115 114 114 115 117 120 123 125 127 127 126 124 122 122 122 125 129 133 137 139 139 137 134 130 127 125 125 125 125 124 123 119 116 111 108 107 108 110 114 120 125 129 133 135 
140 140 140 138 136 132 128 124 122 122 124 128 134 139 143 143 141 136 129 122 117 115 115 118 123 128 132 133 133 130 126 122 120 118 118 119 119 120 120 119 118 118 118 120 122 125 128 130 132 132 131 129 127 125 122 120 117 115 114 113 114 115 117 120 122 123 123 122 121 121 122 124 127 131 135 137 137 136 133 130 127 125 124 123 122 121 118 115 111 108 106 105 107 111 116 121 127 132 135 138 
141 141 140 137 133 128 123 118 115 115 117 123 130 137 143 145 144 139 132 124 118 114 113 114 118 122 125 127 127 126 124 122 120 120 120 120 121 120 119 118 117 116 117 118 121 124 127 129 130 130 130 130 129 128 126 124 122 119 117 114 113 113 115 117 119 120 121 121 121 121 122 123 126 129 132 134 134 134 132 130 128 126 124 122 121 118 115 112 109 106 105 106 109 113 119 125 130 135 138 140 
141 141 139 136 131 125 119 113 110 109 112 118 126 134 140 144 143 139 133 125 118 113 111 112 114 118 121 123 123 123 122 121 121 122 123 123 123 122 121 119 117 116 116 118 120 123 125 127 128 129 129 130 130 131 131 130 128 125 122 118 116 115 115 116 118 120 121 122 122 122 122 122 124 125 128 129 131 132 131 131 129 128 126 124 121 118 114 111 108 107 107 109 113 118 123 129 133 137 139 141 
139 139 137 134 129 123 116 110 106 105 108 114 121 130 137 141 141 138 132 125 119 114 112 112 114 116 119 120 121 121 121 122 123 124 125 126 126 125 123 121 119 118 117 118 120 122 124 126 127 128 129 130 132 134 135 136 135 132 128 124 121 118 117 118 120 122 123 124 124 123 122 121 121 121 123 125 127 129 131 132 132 131 129 127 124 120 116 112 110 110 111 114 118 123 128 132 135 137 139 139 
136 135 134 132 128 122 116 110 106 105 106 111 118 126 133 137 138 136 132 126 121 117 115 115 116 118 119 121 121 121 122 123 124 126 128 130 130 129 127 124 122 120 119 120 121 123 124 125 126 127 128 131 134 137 139 140 140 138 134 130 126 123 121 122 123 125 126 127 126 125 122 120 118 117 118 120 123 126 130 133 135 135 134 132 128 124 119 116 114 114 116 119 123 127 131 133 135 136 136 136 
131 131 131 131 128 124 118 113 109 107 107 111 117 124 130 134 136 135 131 127 123 120 119 119 120 121 122 122 122 123 123 124 126 129 131 132 132 131 129 127 125 123 122 122 123 124 125 126 126 127 129 131 134 138 141 143 143 142 139 135 131 128 126 126 127 129 130 130 129 126 123 119 115 113 113 115 119 124 129 134 138 140 139 137 133 129 124 121 119 119 121 124 127 130 132 133 133 132 131 131 
125 127 129 130 129 127 122 118 113 111 111 113 118 123 129 133 134 134 132 130 127 125 124 124 124 125 125 125 124 124 125 126 128 130 132 134 134 133 131 129 127 125 124 124 125 126 127 127 128 129 130 132 134 137 140 142 143 142 140 137 134 132 131 131 132 133 134 134 132 128 123 117 113 110 109 111 115 122 129 135 140 143 144 142 138 134 129 126 124 125 126 129 131 132 132 131 129 127 125 124 
120 123 127 130 131 130 127 123 119 116 115 117 120 124 129 133 135 135 134 133 131 129 128 128 128 127 127 127 126 126 126 128 129 131 133 134 135 134 132 130 128 126 126 126 127 128 129 130 130 131 131 132 133 135 137 138 139 139 138 136 135 134 134 135 136 138 138 138 135 130 124 117 111 107 106 108 113 119 127 135 141 145 146 145 142 138 134 131 129 130 131 133 134 133 132 128 124 121 119 118 
116 120 125 130 133 133 131 128 124 121 120 121 123 127 131 135 137 138 137 136 134 132 131 130 129 128 128 127 127 127 128 129 130 132 133 134 134 133 131 129 127 126 126 127 128 130 132 133 133 133 133 132 132 132 132 132 132 132 132 132 133 134 135 137 139 141 142 141 137 132 125 118 111 106 105 106 110 117 125 134 140 145 146 146 143 139 136 134 133 133 134 136 136 134 130 126 120 116 113 113 
114 119 125 130 134 135 133 131 127 125 123 124 127 130 134 137 139 140 139 138 136 133 131 129 128 127 126 126 126 127 128 130 131 133 133 133 132 131 129 127 125 125 125 126 128 131 134 136 136 136 135 133 130 128 126 124 123 124 125 126 129 132 135 138 141 144 144 143 139 134 127 119 112 107 104 105 109 115 123 131 138 142 144 143 141 138 136 134 134 135 137 137 137 134 130 124 118 113 110 111 
114 119 125 131 134 135 134 131 128 126 125 126 129 133 137 140 142 142 141 139 136 132 129 126 124 123 122 123 124 126 128 130 132 133 133 132 130 128 126 124 122 122 122 124 127 131 134 137 139 139 137 133 129 124 120 117 115 115 117 120 124 129 134 138 142 145 145 144 141 135 128 121 114 108 106 106 108 114 120 127 133 137 139 138 137 134 133 132 133 135 137 138 137 135 130 123 117 112 110 110 
116 121 126 131 134 134 133 130 127 125 125 127 130 134 138 141 143 143 141 138 134 130 125 122 119 118 118 120 122 125 128 131 133 133 133 131 129 126 123 121 119 119 120 122 125 129 134 137 140 140 138 134 129 122 116 112 109 109 111 114 120 126 132 137 141 144 145 144 141 136 130 123 117 112 108 108 109 113 118 124 128 131 132 132 130 129 128 129 131 134 136 138 138 135 130 124 118 114 112 112 
120 124 129 132 133 133 130 127 124 122 123 125 129 134 138 141 143 143 140 137 132 126 121 117 114 113 114 116 120 124 128 131 133 134 133 130 128 124 121 119 117 116 117 119 122 127 132 136 139 140 139 135 129 122 115 109 106 105 107 111 117 123 129 134 138 141 142 141 139 136 131 126 121 116 113 112 112 114 117 121 123 125 125 124 123 122 122 124 127 131 135 137 138 136 132 127 122 118 116 117 
125 129 132 134 133 131 127 123 120 118 119 122 126 131 136 140 141 141 139 134 129 123 118 114 111 110 111 115 119 124 128 132 133 134 132 130 127 124 121 118 117 116 116 117 120 124 129 133 137 139 139 136 130 123 116 111 107 106 107 111 116 121 127 131 134 136 137 137 137 135 132 129 125 122 119 117 117 117 118 119 120 119 119 117 116 116 117 119 123 128 133 136 137 137 134 130 126 123 122 122 
