P2
100 100
255
131 138 145 148 147 140 128 116 105 99 98 102 112 124 137 147 153 153 148 137 124 110 98 90 85 85 90 97 108 119 129 137 141 141 139 134 128 121 115 110 106 103 103 104 108 115 124 133 141 147 148 144 135 124 112 101 94 91 91 94 100 108 116 123 129 133 137 139 140 141 140 137 134 130 126 122 119 116 113 109 105 100 95 91 87 87 90 97 109 123 136 147 152 152 146 138 130 124 122 124 
145 151 154 154 149 138 124 109 97 90 89 93 103 116 130 141 148 150 145 136 124 111 100 92 89 89 94 101 111 120 128 134 136 136 134 130 127 123 121 119 117 114 112 110 110 112 116 123 130 136 140 141 138 132 124 116 110 106 104 104 106 108 111 113 115 117 120 125 130 137 142 146 148 147 145 141 136 129 121 113 104 96 89 84 81 81 86 94 106 120 134 145 151 152 149 144 139 135 135 139 
155 160 162 160 152 138 122 105 92 85 84 88 97 110 125 137 145 148 146 139 129 118 108 102 99 100 104 110 117 124 128 131 130 128 126 124 124 125 128 130 130 129 125 120 115 111 110 112 117 124 131 136 139 140 137 134 129 125 121 117 113 110 106 104 102 103 106 112 122 133 144 153 159 162 162 158 151 142 131 118 106 96 88 83 81 82 87 96 108 121 133 143 148 149 148 145 142 142 145 150 
162 166 168 164 155 140 122 105 92 84 82 86 95 108 123 135 145 149 148 143 136 128 120 116 114 115 118 122 126 129 129 126 122 118 116 116 119 126 134 141 145 145 141 133 123 113 106 103 105 110 119 129 138 145 148 149 147 142 136 129 120 112 103 97 93 92 95 103 115 130 145 158 167 172 173 170 163 152 139 125 111 99 91 87 86 89 95 103 114 124 133 140 143 143 141 140 140 143 148 155 
163 169 170 166 157 142 124 107 94 86 85 89 98 110 124 137 146 151 151 149 144 139 134 131 131 132 135 137 137 135 129 122 114 107 104 106 112 124 137 149 158 160 156 147 133 117 104 96 94 99 108 121 135 147 156 160 160 156 148 138 126 113 101 92 87 86 89 98 112 129 147 161 172 177 178 175 168 158 144 130 116 105 98 96 97 101 107 115 123 130 134 136 135 133 130 130 132 137 146 155 
161 168 170 167 158 144 127 111 98 92 91 95 104 116 129 140 148 153 154 152 150 147 145 145 146 148 150 150 147 140 130 118 106 97 93 95 104 119 137 154 166 171 168 158 142 123 105 93 87 90 99 113 131 147 159 166 167 163 155 142 128 113 100 90 85 84 88 98 112 130 147 161 172 177 178 175 168 158 146 132 121 112 108 108 111 117 124 130 135 137 135 131 125 120 116 116 119 127 138 150 
155 164 167 164 156 143 128 114 104 98 99 104 113 124 135 144 150 153 153 152 151 150 150 152 155 158 160 159 154 144 131 115 100 89 84 86 96 113 134 155 170 177 176 167 151 129 108 92 84 85 93 108 127 145 159 167 169 164 155 142 127 112 99 91 87 88 93 102 116 132 147 159 167 171 172 169 162 153 142 132 123 119 118 121 127 135 141 145 146 143 136 126 115 106 101 101 105 115 128 143 
148 158 161 159 151 140 127 116 108 106 108 114 123 133 141 146 149 149 148 146 145 146 148 153 158 163 165 164 159 148 132 114 97 84 78 80 89 107 130 152 170 179 180 173 157 136 113 95 85 84 91 105 124 142 157 164 166 161 151 137 123 110 100 95 93 96 102 111 122 134 145 153 159 161 160 156 151 143 135 129 124 124 127 134 142 150 156 158 156 148 136 120 106 94 88 87 93 103 118 134 
141 151 154 152 144 134 124 116 112 112 117 124 133 140 145 146 145 141 137 134 133 135 139 146 154 161 165 165 161 150 134 115 97 84 76 77 85 102 124 148 167 178 181 175 161 141 119 100 89 87 93 106 124 141 153 160 159 153 142 129 117 108 102 101 103 109 115 123 131 137 143 146 147 146 144 140 136 131 127 124 124 127 134 144 154 162 167 168 163 152 135 116 98 86 79 78 84 95 110 127 
137 145 147 143 135 126 118 113 113 117 124 133 140 145 146 143 137 130 123 118 117 119 125 134 145 154 161 163 160 151 137 119 101 87 79 78 85 99 120 142 162 174 178 174 163 145 125 108 97 94 100 111 126 140 150 154 151 143 132 120 111 106 105 109 116 124 131 137 140 141 139 136 133 129 126 123 121 119 118 119 122 129 138 150 160 169 174 173 167 153 134 113 94 81 74 74 80 91 107 123 
135 141 141 135 126 118 112 110 114 121 130 139 145 147 144 137 126 116 107 101 100 103 110 120 133 144 153 158 158 152 140 125 110 96 88 85 89 101 118 137 155 167 172 171 162 148 131 117 107 105 109 119 131 141 147 147 141 132 120 111 105 105 110 119 130 140 147 150 149 144 136 128 120 114 111 109 109 110 112 115 121 129 140 152 163 171 176 175 168 154 134 111 92 79 73 74 81 93 108 123 
137 140 136 128 119 111 107 108 114 124 135 144 148 147 140 129 115 103 93 87 86 90 97 108 121 134 145 152 154 151 144 133 121 109 101 97 98 106 118 133 148 158 164 164 158 148 136 125 118 116 120 127 136 142 144 141 132 121 110 102 100 104 114 127 142 153 160 161 156 147 134 122 111 104 101 101 103 106 109 114 120 128 139 150 161 169 174 173 166 152 133 112 93 81 77 79 86 99 114 128 
141 141 134 124 113 106 103 107 115 127 139 147 150 146 136 121 106 92 83 78 78 82 90 101 114 126 137 145 149 150 147 141 133 125 118 113 112 114 121 130 140 148 153 154 152 146 138 131 127 127 130 135 140 143 141 135 124 112 102 96 97 104 117 134 150 162 168 168 161 149 134 119 107 100 98 99 103 107 111 115 120 126 135 145 155 163 168 169 163 150 132 113 96 86 83 86 96 109 123 135 
147 143 134 122 110 103 102 107 118 131 143 151 152 145 132 116 99 86 78 74 76 81 89 100 111 122 131 138 143 146 147 147 144 140 135 131 127 125 125 127 131 136 140 142 142 141 138 135 134 135 137 141 143 143 138 129 118 106 97 92 94 104 119 137 155 167 173 171 163 150 134 119 108 102 101 104 108 113 116 118 120 123 129 136 145 154 160 161 157 147 131 115 101 92 91 96 107 121 134 144 
151 145 134 120 109 102 103 110 122 136 148 154 153 145 130 113 96 84 78 77 80 87 95 105 114 121 127 132 136 141 145 149 152 153 151 147 141 135 129 124 123 123 125 128 131 133 135 136 137 139 141 143 143 140 135 125 114 103 95 91 94 104 119 137 154 166 172 170 163 150 135 122 112 108 109 113 118 122 123 122 120 119 121 126 133 141 148 151 149 142 130 117 106 100 100 107 118 132 144 151 
153 146 133 119 108 103 105 113 126 140 152 157 155 146 130 113 97 87 83 84 90 98 107 115 120 123 124 125 127 132 139 148 156 161 162 159 152 142 131 120 113 110 111 114 119 125 130 134 137 139 141 141 140 137 131 122 113 103 96 93 96 104 118 134 149 160 165 165 158 148 136 125 119 117 120 125 129 131 129 125 119 114 112 114 120 128 136 141 141 137 129 119 110 107 109 116 128 140 150 155 
153 144 131 117 107 103 106 116 129 144 155 159 156 147 132 116 102 94 93 97 105 114 123 128 128 125 120 117 117 121 131 143 155 164 168 166 158 146 130 115 104 98 98 102 108 117 125 131 136 138 138 137 135 132 128 122 114 107 102 99 100 106 116 128 140 149 154 154 150 142 134 128 126 127 131 136 139 139 134 126 116 108 103 103 108 116 124 131 134 133 128 121 115 113 116 123 134 145 153 156 
149 140 127 114 105 102 106 116 130 144 155 159 156 147 134 120 109 104 106 113 122 132 139 140 135 126 116 108 105 109 120 135 151 163 170 169 160 145 126 108 95 88 87 92 101 111 121 129 133 135 134 132 129 127 125 123 120 116 112 109 108 110 114 121 128 135 138 139 137 134 131 130 131 135 140 145 146 143 135 124 112 102 96 95 99 107 116 125 130 131 128 123 119 118 121 128 137 146 153 154 
145 135 122 111 103 100 105 114 128 141 151 156 154 147 136 125 117 116 120 129 139 148 152 149 140 125 111 99 94 97 108 125 144 159 168 167 158 142 121 102 88 81 80 86 97 109 121 129 133 132 129 125 123 122 124 126 127 127 126 123 119 116 114 114 116 118 121 122 123 124 126 130 135 141 147 150 149 144 134 121 108 97 91 90 94 103 113 122 129 131 130 127 124 123 126 131 139 146 150 150 
141 131 119 107 100 98 101 110 122 135 144 149 149 144 136 129 125 126 133 142 152 159 160 153 140 122 104 91 85 87 98 116 137 154 163 163 154 136 115 95 82 76 77 85 97 111 124 132 134 131 125 120 117 118 122 129 136 140 141 139 133 125 117 110 105 104 104 106 110 115 121 129 137 145 150 152 149 142 130 117 104 94 89 89 94 103 114 124 132 135 135 133 130 129 130 135 140 145 148 147 
139 129 117 106 98 95 97 104 114 125 134 140 141 139 135 131 131 135 143 152 161 165 163 153 137 117 97 84 78 80 92 110 131 149 159 159 149 130 109 91 79 75 78 88 103 119 131 138 138 132 123 115 111 113 120 132 144 152 156 154 147 135 121 108 98 92 91 93 99 107 118 129 139 147 151 152 147 138 125 112 100 92 89 91 97 107 119 130 138 142 142 140 137 135 136 138 142 146 148 145 
141 131 120 108 99 95 94 98 106 114 123 129 132 133 132 132 135 141 149 158 164 166 162 150 132 111 92 79 74 78 89 107 128 146 155 154 144 126 105 88 79 77 83 96 113 130 142 147 144 134 121 110 105 107 117 133 149 162 168 167 160 145 127 109 94 86 83 86 93 104 117 130 141 149 152 150 143 133 120 108 98 92 91 95 103 114 127 138 145 149 149 146 143 141 141 142 145 148 149 147 
146 137 126 115 104 97 94 95 99 106 112 119 123 126 129 132 137 144 152 159 164 164 158 145 127 107 90 79 75 80 92 109 129 145 153 152 141 123 104 90 82 84 93 109 128 145 155 157 151 137 120 106 99 101 112 130 150 166 176 177 169 154 133 111 94 83 79 82 91 104 119 133 144 151 152 147 139 127 115 104 97 93 95 100 110 122 134 145 151 154 153 151 147 145 144 145 148 151 152 151 
153 146 136 124 113 103 97 95 96 100 106 111 117 122 127 132 138 145 153 158 161 160 152 140 123 105 91 82 81 87 99 116 134 148 154 151 139 123 106 94 89 94 106 124 144 159 168 167 158 140 120 102 93 93 105 125 147 167 179 181 175 160 139 115 95 83 79 83 93 107 124 138 148 152 151 145 135 123 111 102 97 96 99 106 117 129 140 149 154 156 154 150 146 144 143 145 149 153 156 156 
159 155 147 136 124 113 104 100 98 100 104 109 115 121 127 133 139 145 151 155 156 153 146 135 120 106 96 90 91 98 111 127 141 152 155 151 139 124 109 100 98 106 121 140 159 172 178 175 163 143 119 99 87 86 97 116 141 163 177 182 178 164 143 119 98 86 82 87 98 113 130 143 151 153 150 141 130 119 108 102 99 100 104 113 123 134 143 149 152 152 149 144 140 137 137 139 145 151 156 159 
162 161 156 147 135 124 114 107 104 104 107 112 118 124 130 135 140 144 148 150 149 146 139 130 120 111 104 103 106 114 126 139 150 157 157 151 139 125 113 106 108 118 134 153 170 182 185 181 167 145 119 96 82 80 88 107 132 156 173 180 177 165 145 122 102 90 87 93 105 120 136 147 153 153 147 137 126 115 107 102 102 105 111 119 128 136 143 146 146 142 137 131 126 123 124 128 135 144 153 159 
161 163 161 154 145 134 124 117 113 113 115 120 125 130 135 138 141 142 143 142 140 137 132 126 120 116 115 117 123 131 141 151 158 160 158 150 138 125 115 111 115 126 143 162 177 186 189 183 169 146 119 94 79 75 81 98 122 147 165 174 173 163 145 124 106 95 93 99 111 126 140 149 152 149 142 132 121 113 107 105 107 112 118 125 132 137 140 139 135 129 121 114 108 106 107 112 120 132 144 154 
155 160 161 157 150 141 132 126 123 123 126 130 135 139 141 142 141 139 136 133 129 126 123 120 120 121 125 131 138 147 154 160 163 162 156 146 134 122 114 111 117 129 146 163 178 186 188 183 169 146 119 94 78 73 77 91 113 137 156 167 167 159 143 124 109 99 99 105 117 130 141 148 148 144 135 126 117 112 110 111 115 121 127 132 136 138 136 132 124 115 105 96 90 88 89 94 103 116 131 145 
145 153 156 154 149 142 136 132 131 133 137 142 146 148 148 146 141 135 128 122 117 114 112 114 117 124 132 141 150 158 163 166 165 160 151 139 127 116 109 107 113 125 141 158 172 181 184 179 166 146 120 97 80 74 76 88 107 129 147 158 160 153 140 124 111 104 104 110 120 131 140 143 142 136 127 120 115 113 115 120 126 132 138 141 142 140 135 126 115 103 92 83 76 73 74 79 88 101 117 132 
133 142 146 146 142 138 134 133 135 140 145 151 154 155 153 147 139 129 119 111 105 102 102 106 113 124 136 147 157 164 168 167 163 155 143 130 117 107 100 100 105 115 130 146 160 170 174 172 162 144 122 101 86 78 80 89 105 124 140 151 153 147 136 123 112 107 108 113 122 130 136 137 133 127 120 115 114 117 123 131 138 145 149 151 149 144 136 124 111 97 85 75 68 65 65 69 77 89 104 120 
124 131 135 134 131 128 127 129 135 142 150 156 160 160 156 148 136 124 111 101 94 91 93 98 108 121 136 149 160 166 168 165 158 147 134 119 106 97 91 90 94 102 115 129 143 154 161 161 155 142 125 108 94 87 87 94 107 123 136 145 147 142 132 122 113 109 111 116 122 128 130 129 125 119 115 114 117 123 133 143 151 157 160 159 156 149 139 127 113 98 85 75 68 64 63 66 73 84 97 111 
118 123 124 122 119 117 117 121 129 139 149 156 161 160 155 146 133 118 104 94 87 84 86 93 104 118 134 148 159 164 165 160 151 138 124 109 97 88 83 82 84 90 99 111 124 135 144 148 147 140 129 116 106 100 99 104 114 125 136 142 142 137 129 121 114 112 113 117 122 125 125 123 118 114 112 115 122 132 144 154 162 167 168 166 161 154 145 133 120 107 94 83 75 71 69 71 77 86 98 109 
119 120 118 113 108 105 107 112 121 132 144 152 157 157 152 142 129 114 101 90 84 82 84 91 102 117 132 146 156 161 160 154 144 130 115 101 90 82 78 76 77 81 87 96 106 118 128 135 138 137 132 125 119 115 114 117 124 132 138 141 140 135 127 120 115 113 115 118 121 123 122 119 115 112 114 119 129 141 153 163 169 171 171 167 162 156 149 141 132 121 111 101 92 87 84 85 90 97 106 114 
126 123 117 109 102 98 98 103 112 124 135 145 150 150 146 137 125 112 101 92 86 85 87 94 104 117 131 144 152 156 154 147 136 122 108 96 86 80 77 75 75 77 81 87 95 104 114 124 131 134 135 134 131 129 129 131 135 139 142 142 139 133 126 120 116 115 116 119 121 122 120 118 115 114 118 125 136 148 159 167 170 170 167 162 158 154 151 148 144 139 132 124 117 111 108 108 111 116 122 126 
138 131 121 111 101 96 94 98 105 115 125 134 140 141 138 132 123 113 105 98 94 93 96 102 110 121 133 143 149 151 148 140 129 116 104 93 86 82 80 79 79 80 83 86 91 98 107 116 125 132 137 139 141 141 142 144 145 146 146 143 138 132 125 119 116 115 117 120 122 123 121 119 118 119 123 132 142 153 161 165 165 161 155 150 146 145 147 150 153 154 153 149 144 140 136 135 136 138 140 140 
149 140 129 117 106 99 95 96 101 108 116 123 128 130 129 127 122 117 113 109 108 108 110 114 121 128 136 142 145 145 141 133 122 111 101 94 90 88 88 89 90 91 92 93 95 99 105 112 120 129 136 142 146 149 151 152 152 152 149 144 138 130 123 118 115 116 118 121 123 124 124 122 122 124 129 136 145 152 156 156 152 144 136 129 127 129 136 146 157 164 168 169 167 163 160 158 157 157 156 154 
157 149 138 127 116 107 102 100 101 104 108 113 116 119 121 122 123 123 124 124 125 126 127 130 133 137 140 142 142 139 133 125 116 108 101 97 96 98 101 105 108 109 109 108 107 106 108 112 118 125 132 140 146 151 154 155 155 154 150 144 137 129 122 117 115 116 118 122 125 127 127 126 126 128 132 138 143 147 146 141 133 122 112 106 104 110 122 138 154 168 177 180 180 178 175 171 169 167 165 162 
159 153 146 137 127 119 112 107 104 103 103 105 107 110 114 119 125 131 136 140 142 144 144 144 144 144 143 141 138 133 126 118 111 105 102 102 105 111 118 125 129 131 130 127 122 118 114 113 115 120 127 134 141 147 152 154 154 152 148 142 134 127 120 116 115 116 120 124 127 129 129 129 129 130 132 135 137 137 132 123 112 100 90 84 84 91 106 126 148 166 178 183 184 182 178 174 170 167 165 162 
154 153 150 145 139 132 125 118 111 106 102 100 101 104 110 118 128 138 147 153 157 158 157 155 152 148 143 138 132 126 119 112 106 103 103 107 114 124 135 144 151 153 152 147 139 130 121 115 113 115 119 126 133 140 146 149 149 148 144 138 131 124 119 116 116 118 122 126 129 131 131 130 129 129 129 130 129 125 118 107 94 82 73 69 70 78 93 115 138 159 173 179 180 177 171 165 160 156 155 154 
143 148 151 151 149 145 138 130 120 111 103 98 97 100 108 118 131 144 154 162 166 166 164 160 154 148 141 134 127 120 113 107 103 102 105 112 123 136 149 160 167 170 168 162 152 139 127 117 111 109 112 117 124 131 137 140 141 140 137 132 127 122 119 117 119 122 126 129 132 132 131 129 127 125 124 123 120 114 106 95 83 72 65 61 63 71 85 106 130 150 164 170 169 163 155 147 140 137 137 139 
129 139 148 154 156 155 149 141 129 117 107 100 97 100 107 119 134 147 159 166 169 168 165 159 152 144 136 129 122 115 109 105 102 103 108 117 130 144 159 170 177 179 177 170 159 144 129 117 108 105 106 110 116 122 127 130 131 130 128 125 122 120 120 121 124 128 132 134 135 134 131 127 123 120 118 116 113 107 99 90 79 70 64 62 63 71 84 103 124 142 153 156 152 143 133 123 116 113 115 121 
115 129 143 154 160 161 158 149 137 124 112 103 99 101 109 121 135 148 159 165 166 164 159 152 144 137 130 124 118 113 109 106 105 107 112 122 135 149 163 174 180 182 179 171 159 144 129 116 107 104 104 107 112 116 119 121 120 119 118 117 117 119 122 126 131 136 139 141 139 136 130 124 118 114 112 111 109 105 100 92 84 77 72 70 72 78 90 106 122 135 142 141 134 122 110 100 93 92 95 103 
105 121 138 152 161 165 162 155 144 130 117 108 103 105 112 123 135 147 155 159 158 154 148 141 134 128 124 121 118 116 114 112 112 114 119 127 139 151 163 172 177 178 174 166 154 140 126 115 108 106 107 110 113 115 115 113 111 109 108 109 112 118 125 133 140 146 148 148 144 137 129 121 114 110 108 108 109 109 107 103 97 92 88 86 88 94 103 114 126 133 134 129 118 105 93 84 78 78 82 91 
100 117 134 149 160 165 164 158 147 135 122 113 108 109 115 124 134 142 148 149 146 141 134 128 123 120 120 120 122 123 123 122 122 123 127 133 142 151 160 166 169 168 163 154 143 132 122 115 112 113 116 118 119 118 114 109 104 100 99 101 108 117 129 140 150 155 157 155 148 139 128 118 110 106 106 109 113 117 119 119 117 113 110 109 110 114 120 127 132 134 130 120 108 95 84 76 72 72 77 86 
100 116 132 146 157 162 162 157 148 137 126 117 113 113 117 123 131 136 138 137 132 126 120 116 114 115 119 124 129 132 134 135 134 134 135 138 143 149 153 156 156 153 147 139 130 122 117 116 119 124 129 132 131 127 118 108 99 93 91 95 103 116 132 146 157 164 165 161 152 140 127 115 107 105 107 112 120 128 134 137 138 137 135 134 134 136 138 140 140 136 128 117 104 91 82 75 73 74 79 88 
105 118 131 143 151 156 157 153 146 137 128 121 116 116 118 122 126 128 127 124 118 113 108 107 109 114 121 130 137 143 146 146 145 143 142 142 143 144 145 144 141 136 128 121 115 112 113 119 128 138 145 149 146 138 125 110 97 88 85 89 100 115 134 151 163 169 170 164 154 140 125 113 106 105 109 118 128 139 148 153 156 156 155 154 153 152 151 149 145 138 128 116 104 94 86 82 81 83 87 95 
113 121 130 138 144 148 149 147 142 136 129 122 119 117 118 119 120 120 117 113 108 103 101 103 108 116 127 137 146 152 155 155 152 149 145 143 141 139 136 132 126 118 111 105 102 104 111 123 138 152 161 165 161 150 133 114 96 85 81 85 96 114 134 153 166 172 172 165 153 138 124 112 106 107 113 124 136 148 157 163 165 166 165 163 162 159 157 153 147 138 128 118 108 100 96 94 94 97 101 106 
121 124 128 131 135 138 139 139 136 132 127 123 119 117 116 116 114 112 109 105 101 99 99 103 111 122 134 145 153 158 160 158 154 149 144 140 136 132 127 121 113 105 97 92 92 98 110 127 146 163 174 177 173 161 141 118 98 84 79 82 94 113 134 153 166 172 170 162 150 135 122 112 108 110 118 129 141 152 160 165 167 166 165 163 160 158 154 150 144 136 127 119 113 109 108 109 111 114 116 119 
128 125 124 123 124 126 128 129 129 128 126 123 120 117 115 113 110 107 104 101 99 99 102 108 118 129 141 151 157 159 158 154 149 143 137 133 129 125 120 114 105 96 89 85 86 94 109 129 151 170 181 185 180 167 147 122 100 85 79 82 94 112 133 151 163 168 165 157 145 131 119 112 111 115 123 134 144 153 158 160 160 158 155 153 151 149 146 142 137 132 126 121 119 119 121 124 128 130 131 130 
132 124 118 114 113 114 117 120 123 124 124 123 120 117 114 111 108 105 103 101 101 103 108 116 126 137 147 154 157 156 151 145 137 131 126 123 122 120 116 111 103 94 87 82 83 91 107 129 152 172 184 187 183 170 149 124 102 87 81 84 96 113 132 148 158 161 157 149 137 126 117 113 115 120 129 138 145 150 151 149 146 142 139 137 136 135 134 133 130 127 125 123 124 127 132 138 142 144 143 138 
132 121 112 106 103 104 108 113 118 122 124 124 122 119 115 112 109 106 105 105 106 110 117 126 135 144 151 154 153 148 140 131 122 116 113 113 114 116 116 113 106 98 89 84 84 90 105 126 148 168 180 184 180 168 148 125 104 91 86 90 100 116 132 145 152 152 147 138 129 120 116 116 120 127 135 141 145 145 141 136 129 124 120 119 120 122 124 125 125 125 125 126 129 135 141 147 152 153 149 142 
131 118 106 99 96 98 103 110 117 123 127 127 126 123 119 116 113 111 110 111 114 119 126 134 142 149 152 151 146 137 126 115 106 101 100 103 109 115 120 120 115 106 97 89 86 90 102 120 140 159 171 176 172 161 144 124 107 96 94 98 109 122 134 142 145 142 136 127 120 116 115 119 126 134 140 144 143 139 131 122 113 107 104 105 108 113 118 122 124 126 127 130 134 140 147 153 157 157 152 143 
128 114 102 95 93 95 102 110 119 127 132 133 132 129 125 122 119 118 118 120 123 128 134 141 147 150 151 147 139 127 113 101 93 89 90 97 107 118 127 130 127 119 108 98 91 91 98 112 129 146 157 162 159 150 136 121 109 103 104 110 120 130 138 141 139 133 125 117 113 112 116 124 133 140 145 146 142 133 122 111 102 96 95 97 103 110 117 123 127 130 132 134 138 144 151 156 159 158 153 142 
127 112 101 94 93 97 104 115 125 133 139 140 139 137 133 130 127 126 126 127 130 134 139 144 148 150 148 142 132 119 104 92 84 82 85 95 108 123 136 142 142 134 121 108 98 94 96 105 117 130 140 144 142 135 125 116 111 110 115 124 133 140 143 141 134 125 116 109 107 111 118 129 139 146 150 147 140 129 116 104 95 91 92 96 104 114 122 129 133 135 137 138 142 146 152 157 159 158 151 141 
126 112 102 96 96 101 111 122 133 141 146 148 147 144 140 137 135 133 133 133 135 137 140 144 146 147 145 138 128 114 101 89 82 80 85 96 112 130 146 154 155 148 135 119 106 97 95 99 107 116 123 126 124 120 114 111 112 117 127 137 145 150 148 141 130 118 108 103 104 111 121 134 144 151 152 148 139 126 112 101 94 92 95 101 111 121 130 136 139 140 140 140 142 146 151 156 158 156 150 139 
126 114 104 100 101 108 118 130 141 149 153 154 152 149 145 142 139 138 136 136 136 137 138 140 142 143 141 136 127 115 102 91 84 83 88 100 118 137 154 163 165 158 146 130 114 103 98 98 102 107 110 111 110 107 105 106 113 123 136 148 155 157 152 141 127 113 103 99 102 111 124 138 148 154 153 147 137 124 111 102 97 97 101 109 119 128 136 140 142 141 139 139 140 144 149 153 156 154 149 139 
126 115 107 104 107 115 126 138 149 156 158 158 155 151 147 143 140 138 136 135 133 133 133 135 137 139 139 136 130 120 108 98 91 89 94 106 123 142 158 168 170 165 153 137 122 109 103 101 102 104 105 103 101 98 99 103 113 127 142 155 162 161 153 139 123 108 99 97 102 113 127 140 150 154 152 145 135 123 112 105 102 104 109 117 125 133 138 140 139 137 134 133 135 139 145 150 153 153 147 138 
125 115 108 107 111 120 132 144 154 159 160 158 154 149 144 139 136 134 132 130 128 127 127 128 132 135 138 138 135 127 118 108 100 98 101 112 127 145 159 168 170 166 155 141 127 116 110 108 108 108 106 103 99 95 96 102 113 129 145 158 164 162 152 136 118 104 96 95 101 113 128 141 149 152 149 142 131 121 113 108 108 111 116 122 129 133 134 133 130 127 124 124 127 133 140 147 151 150 145 136 
122 113 107 107 112 122 135 147 155 160 159 156 149 142 136 131 128 126 124 122 121 120 121 123 128 134 139 142 141 136 128 119 110 106 108 116 128 143 156 164 166 162 153 142 131 123 119 118 119 118 115 109 103 98 97 102 114 129 145 157 162 158 147 130 113 99 93 93 101 114 128 139 146 148 144 136 128 120 114 112 113 117 121 125 128 128 126 122 118 114 112 114 119 127 136 144 149 148 143 133 
117 108 103 103 109 120 133 145 154 157 156 150 142 133 126 121 117 116 115 114 114 114 116 121 127 134 141 146 147 144 137 128 119 113 112 117 126 138 149 155 157 154 147 139 132 129 128 131 133 132 128 121 112 104 101 105 114 129 143 154 157 152 140 124 107 95 90 93 101 114 126 137 142 141 137 130 123 118 115 116 118 121 124 125 123 120 115 109 104 101 101 105 113 124 135 144 148 146 140 129 
111 101 96 97 103 115 129 141 150 153 151 143 134 124 115 109 106 105 106 107 109 111 115 121 128 137 145 150 152 149 143 133 123 116 113 115 121 130 139 144 146 144 139 134 131 132 136 142 146 147 143 134 123 113 108 109 116 128 140 149 151 145 133 117 103 93 90 93 102 114 125 133 136 134 129 123 118 116 116 119 122 124 125 123 118 111 104 97 93 92 94 101 112 125 137 145 149 145 137 124 
104 93 88 89 96 108 122 136 145 148 145 137 126 115 106 100 97 97 99 102 106 111 117 125 133 141 148 153 154 151 144 134 123 115 110 111 115 122 129 133 135 133 130 128 129 134 141 150 156 158 154 146 134 123 115 113 118 127 137 144 145 139 127 113 101 93 92 97 105 116 124 129 130 127 121 117 114 114 117 122 126 128 126 122 114 105 97 91 88 89 94 104 117 131 143 150 151 146 134 119 
97 86 80 81 88 101 116 130 141 145 142 134 122 110 100 94 91 92 96 101 107 115 123 131 139 146 152 154 153 149 140 130 119 111 107 106 110 115 121 125 126 125 123 123 126 134 143 153 161 164 161 153 142 130 121 118 121 128 136 142 142 136 125 113 103 98 98 103 111 120 125 127 125 120 115 111 111 114 119 125 130 131 129 122 114 104 96 91 89 93 101 113 128 142 152 157 156 147 132 114 
93 81 75 76 83 96 111 127 138 144 142 134 122 110 99 92 90 91 95 102 111 120 130 138 145 151 153 153 150 143 133 123 113 106 103 103 107 112 118 121 122 121 120 120 124 132 142 153 161 164 162 154 144 133 125 122 124 131 138 142 142 137 128 118 111 107 109 114 121 126 129 127 122 115 110 107 108 114 121 129 134 136 133 126 117 108 101 97 98 104 114 128 142 154 163 165 160 148 130 110 
90 78 73 74 82 95 111 127 139 145 144 137 126 113 102 95 92 93 98 106 117 127 137 146 151 154 154 150 144 135 124 115 107 102 100 103 108 114 119 123 123 122 120 120 124 130 139 148 155 158 156 149 140 131 125 124 127 134 141 145 145 141 134 127 122 121 123 128 133 135 134 129 121 112 106 105 108 115 124 133 139 141 138 132 124 116 110 109 112 120 131 144 157 166 171 171 163 149 129 108 
90 79 75 77 85 98 114 130 143 149 149 143 132 120 109 101 97 98 103 112 123 135 145 152 155 155 151 145 135 125 115 107 101 99 101 106 113 120 126 129 129 127 125 123 124 128 135 141 145 147 144 138 131 125 122 123 129 137 145 150 151 148 143 138 136 136 139 143 146 145 141 132 122 112 106 105 109 118 128 138 144 146 144 138 132 126 123 123 128 137 148 159 168 174 176 173 164 148 128 107 
93 84 81 84 93 106 121 136 148 154 154 149 139 128 117 109 104 105 110 119 130 141 150 155 157 154 147 138 127 116 106 100 98 99 104 112 121 129 136 138 138 135 131 128 126 127 129 132 133 132 129 123 118 115 116 121 130 140 149 154 156 155 152 149 148 149 152 156 157 154 147 136 124 113 107 107 112 121 132 142 148 150 148 144 138 134 133 136 142 150 159 167 173 177 176 171 160 145 126 108 
98 92 92 96 105 117 131 144 153 158 158 154 145 135 125 117 113 113 118 126 136 146 153 157 156 151 141 130 118 107 100 97 97 102 111 121 131 140 146 148 147 143 138 133 129 126 125 123 121 117 113 108 105 105 109 118 129 141 151 157 160 159 157 155 156 158 161 164 164 160 152 140 127 116 110 110 116 126 137 146 151 152 150 146 142 139 139 143 148 155 162 168 171 172 169 162 152 138 123 109 
105 104 106 112 121 131 142 151 157 160 160 156 149 140 131 124 120 120 125 132 141 149 155 156 153 146 135 122 110 101 96 95 99 108 119 130 141 149 154 155 153 148 142 136 131 126 121 117 111 106 100 96 94 96 103 114 128 141 151 157 159 158 156 156 157 160 164 167 166 162 153 142 129 119 114 115 122 131 141 148 151 151 148 143 140 138 139 142 147 153 157 160 161 159 155 148 139 129 119 111 
114 117 123 130 137 145 151 156 159 160 158 154 148 142 135 129 126 127 130 137 144 151 154 154 149 140 127 114 103 96 93 96 103 114 127 139 149 156 159 158 155 150 144 138 132 126 120 113 106 98 92 88 87 90 99 111 125 139 149 154 154 152 150 149 150 154 159 162 163 159 151 141 130 122 119 121 128 136 144 149 150 147 142 137 132 130 131 134 138 142 145 145 143 140 135 130 124 119 115 113 
122 130 138 145 151 155 157 158 157 155 153 149 145 140 135 132 130 131 134 140 146 151 153 151 145 134 121 108 98 93 92 97 107 120 133 146 155 159 160 158 153 147 142 136 131 126 120 113 105 97 90 85 84 88 97 109 123 135 143 146 145 141 137 135 136 141 146 151 152 151 145 137 130 125 124 127 134 141 147 149 146 141 133 126 121 118 119 121 124 126 127 126 123 119 115 111 109 109 111 116 
129 140 149 155 159 159 158 155 152 148 145 141 138 135 133 131 131 133 136 141 147 150 151 148 140 129 116 103 94 90 92 98 110 124 138 149 157 159 158 153 147 141 136 132 129 126 122 116 108 100 93 88 87 90 98 109 122 132 137 137 132 126 120 117 118 122 128 134 137 138 135 131 127 126 128 133 139 145 148 147 141 133 123 114 108 105 105 107 109 111 110 108 105 101 98 97 98 102 109 118 
133 145 153 158 160 158 154 149 144 139 135 132 130 129 129 128 130 132 136 141 146 149 149 145 137 125 112 100 92 89 91 99 111 125 139 150 156 157 153 146 139 132 128 126 125 125 124 120 114 107 100 95 93 96 103 112 122 129 131 128 120 111 104 99 99 103 109 115 120 123 124 124 124 126 131 137 143 147 148 143 135 124 113 103 97 94 94 96 98 99 99 97 94 91 90 90 93 100 109 121 
135 145 151 155 155 151 146 140 134 129 126 124 123 123 123 124 126 129 133 138 143 147 147 144 136 124 111 100 91 88 91 98 110 124 138 148 153 152 147 139 130 123 119 119 121 124 126 126 122 117 110 105 103 104 110 117 124 128 127 121 111 100 92 86 85 88 93 99 105 110 114 117 120 126 132 139 145 148 146 139 128 116 104 95 89 87 88 91 94 95 96 95 93 91 90 92 96 103 112 123 
133 140 144 145 144 140 135 130 125 121 119 117 117 117 118 118 120 123 127 133 139 143 146 143 137 126 114 102 93 89 90 97 108 121 135 145 149 148 142 133 124 116 112 113 117 123 128 131 130 127 122 117 114 115 118 124 128 130 127 119 108 96 86 80 78 80 84 89 95 100 106 111 118 125 133 141 146 147 143 134 122 109 98 90 86 86 89 93 97 100 102 102 101 100 100 101 105 110 117 125 
129 131 132 132 130 127 124 121 118 116 115 115 114 114 113 112 113 115 119 125 132 139 144 144 140 131 119 107 97 91 90 95 104 117 130 141 146 146 140 131 121 112 108 109 114 121 129 134 137 136 132 128 125 125 127 131 134 134 130 122 111 99 89 83 79 79 82 86 91 96 102 109 116 125 134 141 145 144 139 129 117 105 96 90 89 91 96 102 108 113 116 118 118 117 117 117 118 120 123 126 
124 121 119 117 116 115 115 115 115 116 116 116 115 112 109 106 105 105 109 115 124 134 142 146 145 139 129 116 104 96 92 94 101 112 125 136 143 145 140 132 122 113 108 108 112 120 129 137 141 142 140 137 134 133 134 137 139 139 136 129 120 109 100 93 89 87 88 90 93 97 102 109 117 126 134 141 143 141 135 125 114 103 96 94 95 101 108 117 125 131 135 138 138 138 137 135 134 131 129 126 
118 111 107 105 105 106 109 113 117 120 122 121 118 113 107 101 97 96 99 105 116 128 140 149 152 149 140 128 115 103 96 94 99 108 121 133 142 145 143 136 127 117 111 110 113 120 129 138 143 145 145 142 140 138 139 140 143 144 143 139 132 125 117 111 106 102 101 100 101 103 106 112 120 128 136 141 142 139 131 122 112 104 100 101 106 114 125 135 143 150 154 156 156 156 154 151 146 140 133 125 
112 104 99 97 98 103 109 117 123 128 130 129 124 116 107 98 92 89 90 96 108 123 138 151 158 159 153 142 128 113 102 97 98 105 117 130 141 147 147 142 133 124 117 114 115 121 129 138 144 146 146 144 141 139 139 140 143 146 148 148 146 142 137 132 127 122 118 114 112 111 113 117 124 131 137 141 141 137 129 120 112 107 106 111 119 129 141 151 158 164 167 168 168 167 164 160 154 145 135 123 
109 100 95 95 98 105 114 124 132 139 141 139 132 122 110 98 89 84 84 89 101 118 137 153 164 168 165 156 141 125 110 101 99 104 114 127 140 148 151 148 140 131 123 119 119 123 130 137 143 146 145 142 139 136 135 136 140 145 149 153 155 156 154 152 147 142 136 129 124 120 120 123 128 134 140 142 141 137 129 121 114 111 113 120 131 142 153 162 168 171 172 172 171 169 166 162 155 146 134 121 
109 101 97 98 103 111 122 133 142 148 150 148 141 129 116 102 90 83 81 85 97 114 135 154 168 175 174 167 153 136 119 107 101 103 112 124 137 147 152 151 145 137 129 123 122 125 131 137 142 144 143 139 134 130 128 129 132 139 146 153 159 164 166 165 162 157 149 141 134 128 126 128 132 138 142 144 143 138 130 123 117 116 120 128 139 151 160 166 170 170 169 167 165 163 160 156 151 142 131 120 
112 106 104 106 111 120 131 141 150 156 158 156 149 138 124 109 96 86 82 85 94 111 132 153 169 178 180 175 163 146 127 112 103 103 109 121 133 144 150 150 146 139 132 127 125 127 132 138 141 142 140 135 129 123 119 119 122 129 137 147 156 164 168 170 168 164 156 147 139 133 130 131 135 141 145 147 145 140 132 125 120 120 125 133 143 153 160 164 164 161 157 154 151 149 147 145 142 136 129 120 
119 116 115 117 122 130 138 146 153 158 161 160 155 147 135 120 106 94 87 87 94 108 128 149 167 178 182 178 168 152 133 117 106 103 107 116 128 138 145 146 143 138 132 127 126 129 133 138 141 141 138 132 124 116 111 109 111 116 125 136 147 156 163 167 166 163 156 147 139 133 130 132 137 143 148 150 148 143 135 128 123 123 126 134 142 149 154 154 151 146 139 134 131 130 130 131 132 131 128 123 
128 128 128 129 132 137 142 147 152 156 159 160 159 154 146 133 119 106 96 92 95 105 122 142 160 173 178 177 168 154 136 119 107 103 105 112 122 131 137 139 137 133 128 125 125 128 133 138 140 140 136 129 120 112 105 101 101 105 112 121 132 142 151 156 157 155 149 142 135 130 129 131 137 144 149 151 150 145 138 131 125 124 126 131 136 140 141 139 133 125 118 112 110 110 114 118 123 127 129 129 
139 140 140 140 140 140 140 141 144 147 152 156 159 159 155 146 134 120 107 98 97 103 115 132 150 163 170 170 164 151 135 120 108 103 103 108 116 123 128 130 128 125 122 121 122 126 131 136 139 139 135 128 119 110 103 97 95 96 101 108 116 125 133 139 142 141 138 133 128 125 125 129 136 143 149 152 151 147 140 132 126 123 123 125 127 128 126 121 114 106 98 94 93 96 102 110 119 127 134 137 
150 151 150 148 144 139 134 131 131 133 139 147 155 160 161 157 147 133 118 106 99 100 107 121 136 149 157 160 155 145 132 119 108 103 103 106 112 117 120 121 119 117 115 115 118 123 129 134 137 137 134 128 121 113 105 99 95 93 94 98 103 109 116 122 125 126 125 122 120 119 121 126 133 141 147 151 150 147 141 134 127 123 120 119 118 115 111 104 97 90 84 82 83 88 97 108 120 132 141 147 
159 159 157 151 143 134 125 117 114 116 123 134 146 157 163 163 156 143 127 112 101 97 100 109 121 133 142 146 144 137 127 116 109 104 104 107 110 113 115 114 112 110 109 110 113 119 124 130 134 135 134 130 125 118 112 106 101 97 94 94 95 98 102 107 110 113 114 114 113 114 117 122 129 136 143 147 148 145 141 135 129 123 119 115 111 106 99 92 86 80 77 77 80 87 98 111 125 138 148 155 
164 163 159 152 140 127 114 104 98 99 106 119 134 149 160 164 160 150 134 117 103 95 94 99 108 118 127 132 132 128 121 115 110 107 108 110 112 114 114 112 109 106 105 106 110 114 120 126 130 132 133 132 130 127 123 118 112 106 101 97 94 94 95 98 102 105 107 109 110 112 114 118 124 130 136 140 143 143 140 136 131 126 121 114 108 100 93 86 80 76 75 78 83 92 105 119 133 146 155 161 
165 163 158 149 136 121 105 93 86 86 92 105 122 140 154 161 161 152 138 120 105 95 91 93 100 108 115 120 122 120 117 114 112 112 114 116 118 118 116 113 109 106 105 105 108 112 117 122 126 130 133 135 136 137 135 132 127 121 113 106 100 97 95 97 100 103 107 109 111 112 113 115 118 122 127 132 136 138 139 139 136 132 126 119 110 101 93 85 80 78 79 84 91 102 115 128 141 151 158 163 
161 159 155 146 132 116 100 87 79 78 82 94 111 129 146 156 158 152 139 124 109 98 93 93 97 103 109 114 116 117 116 116 116 118 121 124 125 125 122 118 113 109 107 106 108 111 115 119 124 128 133 137 142 145 147 147 143 137 129 119 111 105 102 102 105 108 112 114 115 114 113 112 112 113 117 122 128 133 138 142 143 141 136 128 118 108 98 90 86 85 88 94 103 114 125 136 145 152 157 160 
152 152 149 142 130 116 100 87 78 75 78 88 103 121 138 150 154 150 141 128 114 104 98 97 100 104 109 113 115 117 118 119 122 125 129 132 134 133 130 125 119 115 111 110 111 113 116 119 123 128 133 139 146 151 155 157 155 150 142 133 124 118 114 113 115 119 122 123 122 119 114 109 105 104 106 111 119 128 137 145 150 151 147 140 130 119 109 101 96 96 100 107 116 125 134 141 145 148 150 152 
140 141 141 138 130 119 105 92 83 78 79 87 100 116 133 145 151 150 143 133 122 113 107 106 107 110 113 116 118 120 121 124 128 132 137 140 141 140 136 131 125 120 117 116 116 117 120 122 126 130 135 141 147 154 159 161 161 158 151 144 136 130 127 127 129 133 135 135 131 124 115 106 99 95 96 101 110 122 136 148 156 160 159 153 144 133 122 114 110 110 115 121 128 135 139 141 140 139 138 138 
125 130 134 135 132 125 114 102 92 86 86 91 102 116 131 143 150 150 146 139 130 123 118 116 116 118 120 121 123 124 126 130 134 138 143 145 146 145 141 135 130 125 122 121 121 123 125 128 130 133 137 142 147 152 156 158 159 157 153 148 143 140 139 141 144 147 148 147 141 131 118 105 94 88 87 92 102 116 133 149 161 168 168 164 156 146 136 128 125 125 129 134 139 141 140 137 131 126 123 122 
111 118 127 134 136 133 125 114 104 97 95 99 108 120 133 144 151 153 150 145 138 132 127 125 124 124 125 126 127 129 131 135 139 143 146 148 148 146 141 136 131 126 124 124 126 129 132 135 137 139 140 142 144 145 147 148 149 148 147 145 144 145 147 151 156 159 160 157 149 137 121 104 91 83 81 84 95 110 130 148 163 171 174 171 164 156 147 140 137 138 141 144 146 144 139 130 120 111 106 106 
99 110 122 133 140 140 135 127 117 110 107 109 116 127 139 148 155 157 155 150 144 138 133 129 127 127 127 128 129 131 135 138 142 146 148 149 147 143 138 132 127 124 123 125 129 134 138 142 144 145 144 142 139 137 134 133 132 132 133 135 139 144 151 158 164 168 168 165 156 141 123 105 90 80 77 80 89 105 125 145 161 171 174 173 167 159 152 147 145 146 149 151 150 145 135 122 109 99 93 93 
92 105 119 133 143 146 143 136 128 120 117 119 125 135 145 153 159 160 158 154 147 140 133 128 125 124 124 125 128 132 136 141 144 147 148 147 144 138 132 126 121 118 119 123 129 136 143 148 151 150 147 141 134 127 120 115 113 113 116 121 129 139 150 160 167 172 173 169 160 145 126 107 90 80 75 77 86 100 119 139 155 165 169 168 163 157 151 147 147 149 152 154 152 144 132 117 102 90 85 85 
91 104 120 134 145 149 147 141 133 126 123 125 131 140 150 157 162 163 160 154 146 137 128 122 118 116 117 119 124 130 136 141 146 148 147 144 139 132 124 117 113 111 112 118 126 135 144 151 155 155 150 142 131 119 108 100 96 96 99 107 118 131 145 158 167 173 174 170 162 147 129 110 93 82 77 78 84 97 113 130 145 154 158 157 152 147 143 141 143 147 152 154 152 144 131 115 99 88 82 83 
94 107 122 136 146 149 146 139 132 125 123 126 132 142 152 159 163 163 159 151 141 130 119 112 107 105 107 111 118 126 134 141 146 147 146 141 135 126 117 110 105 103 106 111 121 132 143 152 157 157 153 143 129 114 100 90 84 84 87 96 108 123 138 152 163 169 171 168 160 148 132 114 99 88 82 82 86 96 108 122 133 140 142 140 136 132 130 131 135 142 149 153 152 145 132 117 102 90 85 87 
103 115 128 139 146 146 142 134 125 119 117 121 129 139 150 158 161 161 156 146 134 121 110 101 96 95 98 104 112 122 132 140 145 147 144 139 131 122 113 106 101 99 100 106 115 126 138 149 155 157 153 144 130 114 98 87 80 79 82 89 101 116 131 144 154 161 163 162 156 147 134 121 108 98 92 91 93 98 106 114 121 124 124 121 117 114 114 118 126 135 145 151 152 147 136 122 109 98 94 96 
116 126 136 143 146 143 135 125 115 109 108 112 121 133 144 153 158 157 152 141 128 114 102 93 88 88 91 98 108 120 130 139 144 145 142 137 129 121 112 105 101 98 99 103 110 120 132 142 150 154 152 144 132 117 103 91 84 81 83 89 99 111 123 134 143 149 151 152 149 144 137 129 120 113 107 104 104 105 107 110 111 110 107 103 100 98 100 106 116 128 140 149 152 149 142 130 119 110 107 109 
