P2
110 110
255
154 124 104 97 96 95 95 95 95 95 95 95 95 95 95 95 95 95 95 95 95 95 95 95 95 95 95 95 96 98 104 119 139 144 127 108 99 96 96 95 95 95 95 95 95 96 97 103 119 142 141 118 103 97 96 95 95 95 95 95 95 95 95 96 97 99 103 103 99 97 96 95 95 95 95 95 95 95 95 95 95 95 95 95 95 95 95 96 97 101 113 135 145 129 109 99 96 96 95 96 96 100 111 133 145 130 111 108 124 154 
124 80 53 44 42 42 42 42 42 42 42 42 42 42 42 42 42 42 42 42 42 42 42 42 42 42 42 42 43 49 65 98 130 119 82 56 46 42 42 42 42 42 42 42 42 42 45 55 83 126 123 80 53 44 42 42 42 42 42 42 42 42 42 41 41 41 41 41 41 41 41 42 42 42 42 42 42 42 42 42 42 42 42 42 42 42 42 42 45 55 82 122 126 89 59 46 43 42 42 42 44 51 74 115 129 93 63 58 81 124 
104 53 23 13 10 10 10 10 10 10 10 10 10 10 10 10 10 10 10 10 10 10 10 10 10 10 10 11 15 26 56 99 113 76 38 19 12 10 10 10 10 10 10 10 10 11 14 28 63 115 106 53 23 13 10 10 10 10 10 10 10 10 10 10 10 9 9 9 9 10 10 10 10 10 10 10 10 10 10 10 10 10 10 10 10 10 10 11 16 33 73 114 95 49 22 13 10 10 10 10 13 23 53 102 107 59 28 27 54 104 
97 44 13 2 0 0 0 0 0 0 0 0 0 0 0 0 0 0 0 0 0 0 0 0 0 0 0 3 11 33 75 108 89 43 15 4 0 0 0 0 0 0 0 0 0 1 7 26 71 123 102 44 12 2 0 0 0 0 0 0 0 0 0 0 0 0 0 0 0 0 0 0 0 0 0 0 0 0 0 0 0 0 0 0 0 0 0 2 10 36 84 108 68 25 7 1 0 0 0 0 4 17 53 102 93 42 15 16 45 98 
96 42 10 0 -1 -2 -2 -2 -2 -2 -2 -2 -2 -2 -2 -2 -2 -2 -2 -2 -2 -2 -2 -2 -2 -2 0 5 22 58 101 100 58 21 4 0 -2 -2 -2 -2 -2 -2 -2 -2 -1 1 11 40 95 138 103 41 10 0 -1 -2 -2 -2 -2 -2 -2 -2 -2 -2 -2 -2 -2 -2 -2 -2 -2 -2 -2 -2 -2 -2 -2 -2 -2 -2 -2 -2 -2 -2 -2 -2 -1 1 14 48 98 97 47 14 1 -1 -2 -2 -2 -1 4 21 64 107 81 32 10 12 42 96 
95 42 10 0 -2 -2 -3 -3 -3 -3 -3 -3 -3 -3 -3 -3 -3 -3 -3 -3 -3 -3 -3 -3 -2 -1 1 13 43 88 106 72 30 8 0 -2 -2 -3 -3 -3 -3 -3 -3 -2 -1 4 22 64 119 145 103 42 10 0 -2 -2 -3 -3 -3 -3 -3 -3 -3 -3 -3 -3 -3 -3 -3 -3 -3 -3 -3 -3 -3 -3 -3 -3 -3 -3 -3 -3 -3 -3 -3 -2 -1 4 24 66 107 82 33 7 0 -2 -2 -2 -2 0 6 31 80 107 64 21 6 11 42 95 
95 42 10 0 -2 -3 -3 -3 -3 -3 -3 -3 -3 -3 -3 -3 -3 -3 -3 -3 -3 -3 -3 -3 -2 0 8 30 72 106 88 42 13 1 -1 -2 -3 -3 -3 -3 -3 -3 -2 -2 0 11 40 91 130 138 104 44 11 0 -2 -3 -3 -3 -3 -3 -3 -3 -3 -3 -3 -3 -3 -3 -3 -3 -3 -3 -3 -3 -3 -3 -3 -3 -3 -3 -3 -3 -3 -3 -3 -2 0 10 40 89 105 61 20 3 -1 -2 -3 -3 -2 0 9 40 92 100 50 14 4 11 42 95 
95 42 10 0 -2 -3 -3 -3 -3 -3 -3 -3 -3 -3 -3 -3 -3 -3 -3 -3 -3 -3 -3 -2 -1 4 21 58 100 100 58 21 4 -1 -2 -3 -3 -3 -3 -3 -3 -3 -2 -1 5 23 64 110 120 123 106 51 14 1 -2 -3 -3 -3 -3 -3 -3 -3 -3 -3 -3 -3 -3 -3 -3 -3 -3 -3 -3 -3 -3 -3 -3 -3 -3 -3 -3 -3 -3 -3 -2 -1 3 20 61 105 89 40 10 0 -2 -3 -3 -3 -2 1 14 50 100 92 40 10 3 10 42 95 
95 42 10 0 -2 -3 -3 -3 -3 -3 -3 -3 -3 -3 -3 -3 -3 -3 -3 -3 -3 -3 -2 -1 1 13 42 88 106 72 30 8 0 -2 -3 -3 -3 -3 -3 -3 -3 -2 -1 1 13 44 90 111 94 102 110 64 21 3 -1 -2 -3 -3 -3 -3 -3 -3 -3 -3 -3 -3 -3 -3 -3 -3 -3 -3 -3 -3 -3 -3 -3 -3 -3 -3 -3 -3 -3 -3 -2 0 7 33 82 107 66 23 4 -1 -2 -3 -3 -2 -1 3 21 64 106 80 31 7 2 10 42 95 
95 42 10 0 -2 -3 -3 -3 -3 -3 -3 -3 -3 -3 -3 -3 -3 -3 -3 -3 -3 -3 -2 0 8 30 72 106 88 42 13 1 -1 -2 -3 -3 -3 -3 -3 -3 -3 -2 0 8 30 72 107 92 63 77 109 80 30 6 -1 -2 -3 -3 -3 -3 -3 -3 -3 -3 -3 -3 -3 -3 -3 -3 -3 -3 -3 -3 -3 -3 -3 -3 -3 -3 -3 -3 -3 -2 -2 1 13 47 97 97 47 13 1 -2 -2 -3 -3 -2 0 6 31 80 106 64 21 4 1 10 42 95 
96 42 10 0 -2 -3 -3 -3 -3 -3 -3 -3 -3 -3 -3 -3 -3 -3 -3 -3 -3 -2 -1 4 21 58 100 100 58 21 4 -1 -2 -3 -3 -3 -3 -3 -3 -3 -2 -1 3 20 57 100 101 61 38 58 103 89 37 8 0 -2 -3 -3 -3 -3 -3 -3 -3 -3 -3 -3 -3 -3 -3 -3 -3 -3 -3 -3 -3 -3 -3 -3 -3 -3 -3 -3 -3 -2 -1 4 23 66 107 82 33 7 0 -2 -3 -3 -3 -2 0 9 40 92 100 50 14 1 0 10 42 95 
96 42 10 0 -2 -3 -3 -3 -3 -3 -3 -3 -3 -3 -3 -3 -3 -3 -3 -3 -2 -1 1 13 42 88 106 72 30 8 0 -2 -3 -3 -3 -3 -3 -3 -3 -3 -2 0 11 39 86 107 73 34 22 47 98 94 40 9 0 -2 -3 -3 -3 -3 -3 -3 -3 -3 -3 -3 -3 -3 -3 -3 -3 -3 -3 -3 -3 -3 -3 -3 -3 -3 -3 -3 -3 -2 0 10 40 89 105 61 20 3 -1 -2 -3 -3 -3 -2 1 14 50 100 92 40 10 0 0 10 42 96 
99 46 12 0 -2 -2 -3 -3 -3 -3 -3 -3 -3 -3 -3 -3 -3 -3 -3 -3 -2 0 8 30 72 106 88 42 13 1 -1 -2 -3 -3 -3 -3 -3 -3 -3 -2 -1 4 22 63 105 90 44 17 15 43 96 95 42 10 0 -2 -3 -3 -3 -3 -3 -3 -3 -3 -3 -3 -3 -3 -3 -3 -3 -3 -3 -3 -3 -3 -3 -3 -3 -3 -3 -3 -2 -1 3 20 61 105 89 40 10 0 -2 -3 -3 -3 -2 -1 3 21 64 106 80 31 6 0 0 10 41 96 
108 56 18 3 -1 -2 -3 -3 -3 -3 -3 -3 -3 -3 -3 -3 -3 -3 -3 -2 -1 4 21 58 100 100 58 21 4 -1 -2 -3 -3 -3 -3 -3 -3 -3 -2 -2 0 11 40 88 105 64 24 8 11 41 94 97 44 11 0 -2 -3 -3 -3 -3 -3 -3 -3 -3 -3 -3 -3 -3 -3 -3 -3 -3 -3 -3 -3 -3 -3 -3 -3 -3 -3 -3 -2 0 7 33 82 107 66 23 4 -1 -2 -3 -3 -3 -2 0 6 31 80 106 64 21 3 -1 0 10 41 98 
126 81 35 11 1 -1 -2 -3 -3 -3 -3 -3 -3 -3 -3 -3 -3 -3 -2 -1 1 13 42 88 106 72 30 8 0 -2 -3 -3 -3 -3 -3 -3 -3 -3 -2 -1 5 23 64 105 88 41 12 3 9 37 89 101 51 14 1 -2 -3 -3 -3 -3 -3 -3 -3 -3 -3 -3 -3 -3 -3 -3 -3 -3 -3 -3 -3 -3 -3 -3 -3 -3 -3 -2 -2 1 13 47 97 97 47 13 1 -2 -2 -3 -3 -3 -2 0 9 40 92 100 50 14 1 -1 0 9 41 101 
144 117 69 31 9 0 -2 -2 -3 -3 -3 -3 -3 -3 -3 -3 -3 -3 -2 0 8 30 72 106 88 42 13 1 -1 -2 -3 -3 -3 -3 -3 -3 -3 -2 -1 1 13 44 90 105 63 23 4 0 6 30 79 107 64 21 3 -1 -2 -3 -3 -3 -3 -3 -3 -3 -3 -3 -3 -3 -3 -3 -3 -3 -3 -3 -3 -3 -3 -3 -3 -3 -3 -2 -1 4 23 66 107 82 33 7 0 -2 -3 -3 -3 -3 -2 1 14 50 100 92 40 9 0 -1 0 9 41 103 
140 131 106 65 27 7 0 -2 -3 -3 -3 -3 -3 -3 -3 -3 -3 -2 -1 4 21 58 100 100 58 21 4 -1 -2 -3 -3 -3 -3 -3 -3 -3 -3 -2 0 8 30 72 107 86 39 11 0 0 3 21 64 107 79 30 6 -1 -2 -3 -3 -3 -3 -3 -3 -3 -3 -3 -3 -3 -3 -3 -3 -3 -3 -3 -3 -3 -3 -3 -3 -3 -3 -2 0 10 40 89 105 61 20 3 -1 -2 -3 -3 -3 -2 -1 3 21 64 106 80 31 6 0 -2 0 9 41 102 
122 108 113 100 57 21 4 -1 -2 -3 -3 -3 -3 -3 -3 -3 -2 -1 1 13 42 88 106 72 30 8 0 -2 -3 -3 -3 -3 -3 -3 -3 -3 -2 -1 3 20 57 100 100 57 20 3 -1 -1 1 14 51 101 89 37 8 0 -2 -3 -3 -3 -3 -3 -3 -3 -3 -3 -3 -3 -3 -3 -3 -3 -3 -3 -3 -3 -3 -3 -3 -3 -2 -1 3 20 61 105 89 40 10 0 -2 -3 -3 -3 -3 -2 0 6 31 80 106 64 21 3 -1 -2 0 10 41 99 
107 78 86 108 88 43 14 2 -1 -2 -3 -3 -3 -3 -3 -3 -2 0 8 30 72 106 88 42 13 1 -1 -2 -3 -3 -3 -3 -3 -3 -3 -3 -2 0 11 39 86 107 72 30 8 0 -2 -2 0 11 44 97 94 40 9 0 -2 -3 -3 -3 -3 -3 -3 -3 -3 -3 -3 -3 -3 -3 -3 -3 -3 -3 -3 -3 -3 -3 -3 -3 -2 0 7 33 82 107 66 23 4 -1 -2 -3 -3 -3 -3 -2 0 9 40 92 100 50 14 1 -2 -2 0 10 41 97 
100 59 56 90 107 74 34 11 1 -1 -2 -3 -3 -3 -3 -2 -1 4 21 58 100 100 58 21 4 -1 -2 -3 -3 -3 -3 -3 -3 -3 -3 -2 -1 4 22 63 105 90 44 13 1 -1 -2 -2 0 10 42 95 95 42 10 0 -2 -3 -3 -3 -3 -3 -3 -3 -3 -3 -3 -3 -3 -3 -3 -3 -3 -3 -3 -3 -3 -3 -3 -2 -2 1 13 47 97 97 47 13 1 -2 -2 -3 -3 -3 -3 -2 1 14 50 100 92 40 9 0 -2 -2 0 10 41 96 
97 49 34 59 99 103 68 32 10 1 -1 -2 -3 -3 -2 -1 1 13 42 88 106 72 30 8 0 -2 -3 -3 -3 -3 -3 -3 -3 -3 -2 -2 0 11 40 88 105 64 23 5 -1 -2 -2 -2 0 9 40 94 97 44 11 0 -2 -3 -3 -3 -3 -3 -3 -3 -3 -3 -3 -3 -3 -3 -3 -3 -3 -3 -3 -3 -3 -3 -3 -2 -1 4 23 66 107 82 33 7 0 -2 -3 -3 -3 -3 -2 -1 3 21 64 106 80 31 6 0 -2 -2 0 10 42 96 
96 44 20 31 66 102 102 67 32 10 1 -1 -2 -2 -2 0 8 30 72 106 88 42 13 1 -1 -2 -3 -3 -3 -3 -3 -3 -3 -3 -2 -1 5 23 64 105 88 40 11 0 -2 -2 -3 -2 0 8 37 89 101 51 14 1 -2 -3 -3 -3 -3 -3 -3 -3 -3 -3 -3 -3 -3 -3 -3 -3 -3 -3 -3 -3 -3 -3 -3 -2 0 10 40 89 105 61 20 3 -1 -2 -3 -3 -3 -3 -2 0 6 31 80 106 64 21 3 -1 -2 -2 0 10 42 95 
96 43 14 12 31 67 102 102 67 32 10 1 -1 -2 -1 4 21 58 100 100 58 21 4 -1 -2 -3 -3 -3 -3 -3 -3 -3 -3 -2 -1 1 13 44 90 105 63 22 4 -1 -2 -3 -3 -2 -1 6 30 79 107 64 21 3 -1 -2 -3 -3 -3 -3 -3 -3 -3 -3 -3 -3 -3 -3 -3 -3 -3 -3 -3 -3 -3 -3 -2 -1 3 20 61 105 89 40 10 0 -2 -3 -3 -3 -3 -3 -2 0 9 40 92 100 50 14 1 -2 -2 -2 0 10 42 95 
95 42 11 4 11 32 67 102 102 67 32 10 1 0 2 13 42 88 106 72 30 8 0 -2 -3 -3 -3 -3 -3 -3 -3 -3 -3 -2 0 8 30 72 107 86 39 11 0 -2 -3 -3 -3 -2 -1 3 21 64 107 79 30 6 -1 -2 -3 -3 -3 -3 -3 -3 -3 -3 -3 -3 -3 -3 -3 -3 -3 -3 -3 -3 -3 -3 -2 0 7 33 82 107 66 23 4 -1 -2 -3 -3 -3 -3 -3 -2 1 14 50 100 92 40 9 0 -2 -2 -2 0 10 42 95 
95 42 10 1 2 10 32 67 102 102 67 32 11 4 9 31 72 106 88 42 13 1 -1 -2 -3 -3 -3 -3 -3 -3 -3 -3 -2 -1 3 20 57 100 100 57 20 3 -1 -2 -3 -3 -3 -3 -2 1 14 51 101 89 37 8 0 -2 -3 -3 -3 -3 -3 -3 -3 -3 -3 -3 -3 -3 -3 -3 -3 -3 -3 -3 -3 -2 -2 1 13 47 97 97 47 13 1 -2 -2 -3 -3 -3 -3 -2 -1 3 21 64 106 80 31 6 0 -2 -2 -2 0 10 42 95 
95 42 10 0 -1 1 10 32 67 102 102 68 34 18 26 59 100 100 58 21 4 -1 -2 -3 -3 -3 -3 -3 -3 -3 -3 -3 -2 0 11 39 86 107 72 30 8 0 -2 -3 -3 -3 -3 -3 -2 0 11 44 97 94 41 10 0 -2 -3 -3 -3 -3 -3 -3 -3 -3 -3 -3 -3 -3 -3 -3 -3 -3 -3 -3 -3 -2 -1 4 23 66 107 82 33 7 0 -2 -3 -3 -3 -3 -3 -2 0 6 31 80 106 64 21 3 -1 -2 -3 -2 0 10 42 95 
95 42 10 0 -2 -1 1 10 32 67 102 103 72 48 56 91 107 72 30 8 0 -2 -3 -3 -3 -3 -3 -3 -3 -3 -3 -2 -1 4 22 63 105 90 44 13 1 -1 -2 -3 -3 -3 -3 -3 -2 0 10 41 94 97 44 11 0 -2 -3 -3 -3 -3 -3 -3 -3 -3 -3 -3 -3 -3 -3 -3 -3 -3 -3 -3 -3 -2 0 10 40 89 105 61 20 3 -1 -2 -3 -3 -3 -3 -3 -2 0 9 40 92 100 50 14 1 -2 -2 -3 -2 0 10 42 95 
95 42 10 0 -2 -2 -1 1 10 32 67 103 110 96 99 113 88 42 13 1 -1 -2 -3 -3 -3 -3 -3 -3 -3 -3 -2 -2 0 11 40 88 105 64 23 5 -1 -2 -3 -3 -3 -3 -3 -3 -2 0 8 37 89 101 51 14 1 -2 -3 -3 -3 -3 -3 -3 -3 -3 -3 -3 -3 -3 -3 -3 -3 -3 -3 -3 -2 -1 3 20 61 105 89 40 10 0 -2 -3 -3 -3 -3 -3 -3 -2 1 14 50 100 92 40 9 0 -2 -3 -3 -2 0 10 42 95 
95 42 10 0 -2 -2 -2 -1 1 10 32 69 111 136 136 108 58 21 4 -1 -2 -3 -3 -3 -3 -3 -3 -3 -3 -3 -2 -1 5 23 64 105 88 40 11 0 -2 -2 -3 -3 -3 -3 -3 -3 -2 -1 6 30 79 107 64 21 3 -1 -2 -3 -3 -3 -3 -3 -3 -3 -3 -3 -3 -3 -3 -3 -3 -3 -3 -3 -2 0 7 33 82 107 66 23 4 -1 -2 -3 -3 -3 -3 -3 -2 -1 3 21 64 106 80 31 6 0 -2 -3 -3 -2 0 10 42 95 
95 42 10 0 -2 -3 -3 -2 -1 1 11 35 81 132 132 79 32 8 0 -2 -3 -3 -3 -3 -3 -3 -3 -3 -3 -2 -1 1 13 44 90 105 63 22 4 -1 -2 -3 -3 -3 -3 -3 -3 -3 -2 -1 3 21 64 107 79 30 6 -1 -2 -3 -3 -3 -3 -3 -3 -3 -3 -3 -3 -3 -3 -3 -3 -3 -3 -2 -2 1 13 47 97 97 47 13 1 -2 -2 -3 -3 -3 -3 -3 -2 0 6 31 80 106 64 21 3 -1 -2 -3 -3 -2 0 10 42 95 
95 42 10 0 -2 -3 -3 -3 -2 -1 3 18 55 110 114 58 18 3 -1 -2 -3 -3 -3 -3 -3 -3 -3 -3 -3 -2 0 8 30 72 107 86 39 11 0 -2 -3 -3 -3 -3 -3 -3 -3 -3 -3 -2 1 14 51 101 89 37 8 0 -2 -3 -3 -3 -3 -3 -3 -3 -3 -3 -3 -3 -3 -3 -3 -3 -3 -2 -1 4 23 66 107 82 33 7 0 -2 -3 -3 -3 -3 -3 -3 -2 0 9 40 92 100 50 14 1 -2 -3 -3 -3 -2 0 10 42 95 
95 42 10 0 -2 -3 -3 -3 -3 -2 0 10 41 94 106 55 16 2 -2 -2 -3 -3 -3 -3 -3 -3 -3 -3 -2 -1 3 20 57 100 100 57 20 3 -1 -2 -3 -3 -3 -3 -3 -3 -3 -3 -3 -2 0 11 44 97 94 40 9 0 -2 -3 -3 -3 -3 -3 -3 -3 -3 -3 -3 -3 -3 -3 -3 -3 -3 -2 0 10 40 89 105 61 20 3 -1 -2 -3 -3 -3 -3 -3 -3 -2 1 14 50 100 92 40 9 0 -2 -3 -3 -3 -2 0 10 42 95 
95 42 10 0 -2 -3 -3 -3 -3 -2 0 6 31 81 108 65 21 3 -1 -2 -3 -3 -3 -3 -3 -3 -3 -3 -2 0 11 39 86 107 72 30 8 0 -2 -3 -3 -3 -3 -3 -3 -3 -3 -3 -3 -2 0 10 42 95 95 42 10 0 -2 -3 -3 -3 -3 -3 -3 -3 -3 -3 -3 -3 -3 -3 -3 -3 -2 -1 3 20 61 105 89 40 10 0 -2 -3 -3 -3 -3 -3 -3 -2 -1 3 21 64 106 80 31 6 0 -2 -3 -3 -3 -2 0 10 42 95 
95 42 10 0 -2 -3 -3 -3 -3 -2 -1 3 21 64 107 80 30 6 0 -2 -3 -3 -3 -3 -3 -3 -3 -2 -1 4 22 63 105 90 44 13 1 -1 -2 -3 -3 -3 -3 -3 -3 -3 -3 -3 -3 -2 0 9 40 94 97 44 11 0 -2 -3 -3 -3 -3 -3 -3 -3 -3 -3 -3 -3 -3 -3 -3 -3 -2 0 7 33 82 107 66 23 4 -1 -2 -3 -3 -3 -3 -3 -3 -2 0 6 31 80 106 64 21 3 -1 -2 -3 -3 -3 -2 0 10 42 96 
96 41 10 0 -2 -3 -3 -3 -3 -3 -2 1 14 51 101 90 37 8 0 -2 -3 -3 -3 -3 -3 -3 -2 -2 0 11 40 88 105 64 23 5 -1 -2 -3 -3 -3 -3 -3 -3 -3 -3 -3 -3 -3 -2 0 8 37 89 101 51 14 1 -2 -3 -3 -3 -3 -3 -3 -3 -3 -3 -3 -3 -3 -3 -3 -2 -2 1 13 47 97 97 47 13 1 -2 -2 -3 -3 -3 -3 -3 -3 -2 0 9 40 92 100 50 14 1 -2 -3 -3 -3 -3 -2 0 10 42 96 
96 41 10 0 -2 -3 -3 -3 -3 -3 -2 0 11 43 96 96 43 11 0 -2 -3 -3 -3 -3 -3 -3 -2 -1 5 23 64 105 88 40 11 0 -2 -2 -3 -3 -3 -3 -3 -3 -3 -3 -3 -3 -3 -2 -1 6 30 79 107 64 21 3 -1 -2 -3 -3 -3 -3 -3 -3 -3 -3 -3 -3 -3 -3 -3 -2 -1 4 23 66 107 82 33 7 0 -2 -3 -3 -3 -3 -3 -3 -3 -2 1 14 50 100 92 40 9 0 -2 -3 -3 -3 -3 -2 0 11 45 99 
98 41 10 0 -2 -3 -3 -3 -3 -3 -2 0 8 37 90 101 51 14 1 -2 -3 -3 -3 -3 -3 -2 -1 1 13 44 90 105 63 22 4 -1 -2 -3 -3 -3 -3 -3 -3 -3 -3 -3 -3 -3 -3 -2 -1 3 21 64 107 79 30 6 -1 -2 -3 -3 -3 -3 -3 -3 -3 -3 -3 -3 -3 -3 -3 -2 0 10 40 89 105 61 20 3 -1 -2 -3 -3 -3 -3 -3 -3 -2 -1 3 21 64 106 80 31 6 0 -2 -3 -3 -3 -2 -2 1 15 52 106 
100 41 9 0 -2 -3 -3 -3 -3 -3 -2 -1 6 30 80 107 64 21 3 -1 -2 -3 -3 -3 -3 -2 0 8 30 72 107 86 39 11 0 -2 -3 -3 -3 -3 -3 -3 -3 -3 -3 -3 -3 -3 -3 -3 -2 1 14 51 101 89 37 8 0 -2 -3 -3 -3 -3 -3 -3 -3 -3 -3 -3 -3 -3 -2 -1 3 20 61 105 89 40 10 0 -2 -3 -3 -3 -3 -3 -3 -3 -2 0 6 31 80 106 64 21 3 -1 -2 -3 -3 -3 -2 -1 5 24 69 121 
103 41 9 0 -2 -3 -3 -3 -3 -3 -2 -1 3 21 64 107 80 30 6 -1 -2 -3 -3 -3 -2 -1 3 20 57 100 100 57 20 3 -1 -2 -3 -3 -3 -3 -3 -3 -3 -3 -3 -3 -3 -3 -3 -3 -2 0 11 44 97 94 40 9 0 -2 -3 -3 -3 -3 -3 -3 -3 -3 -3 -3 -3 -3 -2 0 7 33 82 107 66 23 4 -1 -2 -3 -3 -3 -3 -3 -3 -3 -2 0 9 40 92 100 50 14 1 -2 -3 -3 -3 -2 -1 1 13 43 97 138 
103 41 9 0 -2 -3 -3 -3 -3 -3 -3 -2 1 14 51 101 90 37 8 0 -2 -3 -3 -3 -2 0 11 39 86 107 72 30 8 0 -2 -3 -3 -3 -3 -3 -3 -3 -3 -3 -3 -3 -3 -3 -3 -3 -2 0 10 42 95 95 42 10 0 -2 -3 -3 -3 -3 -3 -3 -3 -3 -3 -3 -3 -2 -2 1 13 47 97 97 47 13 1 -2 -2 -3 -3 -3 -3 -3 -3 -3 -2 1 14 50 100 92 40 9 0 -2 -3 -3 -3 -2 0 8 30 73 123 145 
101 41 9 0 -2 -3 -3 -3 -3 -3 -3 -2 0 11 43 96 96 43 11 0 -2 -3 -3 -2 -1 4 22 63 105 90 44 13 1 -1 -2 -3 -3 -3 -3 -3 -3 -3 -3 -3 -3 -3 -3 -3 -3 -3 -2 0 9 40 94 97 44 11 0 -2 -3 -3 -3 -3 -3 -3 -3 -3 -3 -3 -3 -2 -1 4 23 66 107 82 33 7 0 -2 -3 -3 -3 -3 -3 -3 -3 -2 -1 3 21 64 106 80 31 6 0 -2 -3 -3 -2 -1 4 21 58 104 130 136 
98 41 10 0 -2 -3 -3 -3 -3 -3 -3 -2 0 8 37 90 101 51 14 1 -2 -2 -2 -2 0 11 40 88 105 64 23 5 -1 -2 -3 -3 -3 -3 -3 -3 -3 -3 -3 -3 -3 -3 -3 -3 -3 -3 -2 0 8 37 89 101 51 14 1 -2 -2 -3 -3 -3 -3 -3 -3 -3 -3 -3 -3 -2 0 10 40 89 105 61 20 3 -1 -2 -3 -3 -3 -3 -3 -3 -3 -2 0 6 31 80 106 64 21 3 -1 -2 -3 -2 -1 1 13 42 88 115 111 121 
97 41 10 0 -2 -3 -3 -3 -3 -3 -3 -2 -1 6 30 80 107 64 21 3 -1 -2 -2 -1 5 23 64 105 88 40 11 0 -2 -2 -3 -3 -3 -3 -3 -3 -3 -3 -3 -3 -3 -3 -3 -3 -3 -3 -2 -1 6 30 80 107 64 21 3 -1 -2 -2 -2 -3 -3 -3 -3 -3 -3 -3 -2 -1 3 20 61 105 89 40 10 0 -2 -3 -3 -3 -3 -3 -3 -3 -3 -2 0 9 40 92 100 50 14 1 -2 -2 -2 -2 0 8 30 72 108 99 85 109 
96 41 10 0 -2 -3 -3 -3 -3 -3 -3 -2 -1 3 21 64 107 80 30 6 0 -2 -1 1 13 44 90 105 63 22 4 -1 -2 -3 -3 -3 -3 -3 -3 -3 -3 -3 -3 -3 -3 -3 -3 -3 -3 -3 -2 -1 3 21 65 108 82 33 9 1 0 0 -1 -2 -2 -2 -2 -2 -2 -2 -2 0 7 33 82 107 66 23 4 -1 -2 -3 -3 -3 -3 -3 -3 -3 -3 -2 1 14 50 100 92 40 9 0 -2 -2 -2 -1 4 21 58 100 102 70 65 101 
96 42 10 0 -2 -3 -3 -3 -3 -3 -3 -3 -2 1 14 51 101 90 37 8 0 -1 0 8 30 72 107 86 39 11 0 -2 -3 -3 -3 -3 -3 -3 -3 -3 -3 -3 -3 -3 -3 -3 -3 -3 -3 -3 -2 -1 2 17 56 107 98 49 21 12 9 6 3 1 0 0 0 0 0 -1 -1 1 14 48 97 97 47 13 1 -2 -2 -3 -3 -3 -3 -3 -3 -3 -2 -1 3 21 64 106 80 31 6 0 -2 -2 -1 1 13 42 88 107 74 43 53 98 
95 42 10 0 -2 -3 -3 -3 -3 -3 -3 -3 -2 0 11 43 96 96 43 11 0 0 4 20 57 100 100 57 20 3 -1 -2 -3 -3 -3 -3 -3 -3 -3 -3 -3 -3 -3 -3 -3 -3 -3 -3 -3 -2 -1 0 6 23 62 116 120 79 52 43 37 30 21 14 11 10 9 8 6 3 3 7 26 67 107 82 33 7 0 -2 -3 -3 -3 -3 -3 -3 -3 -3 -2 0 6 31 80 106 64 21 3 -1 -2 -2 0 8 30 72 106 88 45 26 46 96 
95 42 10 0 -2 -3 -3 -3 -3 -3 -3 -3 -2 0 8 37 90 101 51 14 2 1 11 39 86 107 72 30 8 0 -2 -3 -3 -3 -3 -3 -3 -3 -3 -3 -3 -3 -3 -3 -3 -3 -3 -2 -2 -1 1 8 22 48 88 135 143 119 102 95 90 79 64 51 44 42 40 37 30 21 17 24 49 93 106 61 20 3 -1 -2 -3 -3 -3 -3 -3 -3 -3 -3 -2 0 9 40 92 100 50 14 1 -2 -2 -1 4 21 58 100 100 58 24 17 43 96 
95 42 10 0 -2 -3 -3 -3 -3 -3 -3 -3 -2 -1 6 30 80 107 64 21 5 5 23 63 105 90 44 13 1 -1 -2 -3 -3 -3 -3 -3 -3 -3 -3 -3 -3 -3 -3 -3 -3 -3 -2 -1 0 4 13 30 58 90 115 124 115 103 98 98 101 107 107 101 97 95 94 89 80 65 56 62 89 117 93 41 11 0 -2 -3 -3 -3 -3 -3 -3 -3 -3 -3 -2 1 14 50 100 92 40 9 0 -2 -1 1 13 42 88 106 72 31 11 13 42 95 
95 42 10 0 -2 -3 -3 -3 -3 -3 -3 -3 -2 -1 3 21 64 107 80 31 10 13 41 88 105 64 23 5 -1 -2 -3 -3 -3 -3 -3 -3 -3 -3 -3 -3 -3 -3 -3 -3 -2 -2 -1 1 8 21 42 72 100 108 92 69 52 45 43 45 51 64 79 89 94 95 97 101 107 108 106 115 135 132 79 29 6 0 -2 -3 -3 -3 -3 -3 -3 -3 -3 -2 -1 3 21 64 106 80 31 6 0 -1 0 8 30 72 106 88 43 14 4 11 42 95 
95 42 10 0 -2 -3 -3 -3 -3 -3 -3 -3 -3 -2 1 14 51 101 90 40 17 26 65 105 88 40 11 0 -2 -2 -3 -3 -3 -3 -3 -3 -3 -3 -3 -3 -3 -3 -3 -2 -2 0 4 13 30 58 88 106 100 72 44 25 15 11 10 11 14 21 30 37 40 42 44 51 64 81 95 111 134 132 80 30 7 0 -2 -2 -3 -3 -3 -3 -3 -3 -2 -2 0 6 31 80 106 64 21 3 -1 0 4 21 58 100 100 58 21 5 1 10 42 95 
95 42 10 0 -2 -3 -3 -3 -3 -3 -3 -3 -3 -2 0 11 43 96 97 48 28 47 91 105 63 22 4 -1 -2 -3 -3 -3 -3 -3 -3 -3 -3 -3 -3 -3 -3 -3 -2 -1 1 7 21 42 72 100 106 88 58 30 14 5 1 0 0 0 1 3 6 8 9 10 11 14 21 31 41 57 88 117 95 46 16 3 0 -2 -2 -2 -2 -2 -2 -2 -2 -1 0 10 40 92 100 50 14 1 -1 1 13 42 88 106 72 30 8 0 0 10 42 95 
95 42 10 0 -2 -3 -3 -3 -3 -3 -3 -3 -3 -2 0 8 37 90 103 62 48 76 107 86 39 11 0 -2 -3 -3 -3 -3 -3 -3 -3 -3 -3 -3 -3 -3 -2 -2 -1 2 10 28 57 88 106 100 72 42 21 8 1 0 -2 -2 -2 -2 -2 -1 -1 0 0 0 0 1 3 6 11 21 47 90 109 76 37 15 5 1 0 0 0 0 0 0 0 0 4 16 52 101 93 40 10 0 0 8 30 72 106 88 42 13 1 -1 0 10 42 95 
95 42 10 0 -2 -3 -3 -3 -3 -3 -3 -3 -3 -2 -1 6 30 80 111 86 80 105 101 57 20 3 -1 -2 -3 -3 -3 -3 -3 -3 -3 -3 -3 -3 -3 -2 -1 0 4 14 33 66 99 107 88 58 30 13 4 0 -1 -2 -2 -3 -3 -3 -3 -2 -2 -2 -2 -2 -2 -2 -1 0 1 6 22 59 103 110 77 45 25 15 11 10 10 10 10 10 10 11 16 33 73 112 85 34 8 1 5 21 58 100 100 58 21 4 -1 -2 0 10 42 95 
95 42 10 0 -2 -3 -3 -3 -3 -3 -3 -3 -3 -2 -1 3 21 64 113 116 114 111 72 30 8 0 -2 -3 -3 -3 -3 -3 -3 -3 -3 -3 -3 -2 -2 -1 1 8 21 43 74 103 103 74 43 21 8 1 -1 -2 -2 -3 -3 -3 -3 -3 -3 -3 -3 -3 -3 -3 -3 -3 -2 -2 -1 0 8 32 78 125 127 97 69 52 45 42 42 42 42 42 42 43 50 69 107 125 81 34 11 6 15 43 88 106 72 30 8 0 -2 -2 0 10 42 95 
95 42 10 0 -2 -3 -3 -3 -3 -3 -3 -3 -3 -3 -2 1 14 51 109 137 129 92 43 13 1 -1 -2 -3 -3 -3 -3 -3 -3 -3 -3 -3 -2 -1 0 4 13 30 58 88 107 99 66 33 14 4 0 -1 -2 -3 -3 -3 -3 -3 -3 -3 -3 -3 -3 -3 -3 -3 -3 -3 -3 -3 -2 -1 3 18 58 119 145 129 113 103 98 96 95 95 95 95 96 97 102 116 139 140 97 53 29 22 36 74 107 88 43 13 1 -1 -2 -2 0 10 42 95 
95 42 10 0 -2 -3 -3 -3 -3 -3 -3 -3 -3 -3 -2 0 11 44 106 145 119 64 23 5 -1 -2 -3 -3 -3 -3 -3 -3 -3 -3 -2 -2 -1 1 8 21 42 72 100 106 88 57 28 10 2 -1 -2 -2 -3 -3 -3 -3 -3 -3 -3 -3 -3 -3 -3 -3 -3 -3 -3 -3 -3 -3 -2 -2 2 16 55 112 121 96 89 92 94 95 95 95 95 95 95 96 97 103 114 125 117 94 70 60 76 107 103 59 21 4 -1 -2 -2 -2 0 10 42 95 
95 42 10 0 -2 -3 -3 -3 -3 -3 -3 -3 -3 -3 -2 0 10 41 103 138 94 40 11 0 -2 -2 -3 -3 -3 -3 -3 -3 -2 -2 -1 0 4 13 30 58 88 107 100 72 43 21 7 1 -1 -2 -2 -3 -3 -3 -3 -3 -3 -3 -3 -3 -3 -3 -3 -3 -3 -3 -3 -3 -3 -3 -2 -1 3 21 65 110 92 53 39 39 40 41 41 42 42 42 42 42 42 45 52 69 91 107 111 112 124 124 81 34 9 0 -2 -2 -3 -2 0 10 42 95 
95 42 10 0 -2 -3 -3 -3 -3 -3 -3 -3 -3 -3 -2 0 9 41 101 121 68 23 4 -1 -2 -3 -3 -3 -3 -3 -2 -2 -1 0 2 8 20 42 72 102 109 91 60 32 15 5 0 -1 -2 -2 -3 -3 -3 -3 -3 -3 -3 -3 -3 -3 -3 -3 -3 -3 -3 -3 -3 -3 -3 -3 -2 -1 6 30 80 108 67 27 12 10 9 10 10 10 10 10 10 10 10 11 15 24 41 64 92 121 144 127 69 25 5 0 -2 -3 -3 -2 0 10 42 95 
95 42 10 0 -2 -3 -3 -3 -3 -3 -3 -3 -3 -3 -2 0 10 42 98 106 51 14 1 -2 -2 -3 -3 -2 -2 -2 -1 0 3 8 16 31 58 92 119 118 88 56 33 17 8 3 0 0 -1 -2 -2 -2 -2 -2 -3 -3 -3 -3 -3 -3 -3 -3 -3 -3 -3 -3 -3 -3 -3 -3 -2 0 8 37 90 102 52 16 3 0 0 0 0 0 0 0 0 0 0 0 1 4 11 23 44 76 117 125 81 34 9 0 -2 -2 -3 -2 0 10 42 95 
95 42 10 0 -2 -3 -3 -3 -3 -3 -3 -3 -3 -3 -2 0 11 44 98 97 43 11 0 -2 -2 -2 -2 -2 -1 0 4 10 20 33 50 76 110 138 142 118 83 59 45 33 22 14 10 6 3 1 0 0 -1 -1 -2 -2 -2 -2 -3 -3 -3 -3 -3 -3 -3 -3 -3 -3 -3 -3 -2 0 10 41 94 97 44 11 0 -1 -2 -2 -2 -2 -2 -2 -2 -2 -2 -2 -2 -1 0 5 14 34 70 108 103 59 21 4 -1 -2 -2 -2 0 10 42 95 
95 42 10 0 -2 -3 -3 -3 -3 -3 -3 -3 -3 -3 -2 1 14 51 102 90 37 8 0 -2 -2 -1 0 1 4 11 22 39 61 82 99 113 120 122 125 121 110 100 92 80 64 50 40 31 21 14 11 8 6 3 1 0 0 -1 -2 -2 -2 -2 -2 -3 -3 -3 -3 -3 -3 -3 -2 0 11 44 97 94 41 10 0 -2 -2 -3 -3 -3 -3 -3 -3 -3 -3 -3 -2 -2 -2 0 2 11 34 74 107 88 43 13 1 -1 -2 -2 0 10 42 95 
95 42 10 0 -2 -3 -3 -3 -3 -3 -3 -3 -3 -2 -1 3 21 64 107 80 30 6 0 0 0 3 7 13 24 41 64 88 105 107 98 84 68 61 67 81 91 96 101 107 106 100 92 80 64 51 43 37 30 21 14 9 6 3 1 0 0 -1 -1 -2 -2 -2 -2 -3 -3 -2 -2 1 14 51 101 89 37 8 0 -2 -3 -3 -3 -3 -3 -3 -3 -3 -3 -3 -3 -3 -2 -2 -1 2 14 43 88 106 72 30 8 0 -2 -2 0 10 42 95 
95 42 10 0 -2 -3 -3 -3 -3 -3 -3 -3 -3 -2 -1 6 30 80 107 64 22 5 2 4 10 20 33 47 66 89 105 105 89 66 47 33 23 18 22 30 37 43 51 64 80 92 100 106 107 101 96 90 80 64 49 40 31 21 14 11 8 6 3 1 0 0 -1 -2 -2 -2 -1 3 21 64 107 79 30 6 -1 -2 -3 -3 -3 -3 -3 -3 -3 -3 -3 -3 -3 -3 -3 -3 -2 -1 4 21 58 100 100 58 21 4 0 -2 0 10 42 95 
95 42 10 0 -2 -3 -3 -3 -3 -3 -3 -3 -3 -2 0 8 37 90 102 52 18 8 12 22 39 61 82 97 107 104 88 64 41 24 13 7 4 2 3 6 8 11 14 21 31 40 49 64 80 90 96 101 107 106 100 92 80 64 51 43 37 30 21 14 9 6 3 1 0 0 1 7 31 80 107 64 21 3 -1 -2 -3 -3 -3 -3 -3 -3 -3 -3 -3 -3 -3 -3 -3 -3 -3 -2 0 8 30 72 106 88 43 14 2 -1 0 10 42 95 
95 42 10 0 -2 -3 -3 -3 -3 -3 -3 -3 -3 -2 0 11 43 97 99 51 25 26 41 64 88 104 107 97 82 61 39 22 11 4 1 0 -1 -1 -1 0 0 0 1 3 6 9 14 21 30 37 43 51 64 80 92 100 106 107 101 96 90 80 64 49 40 31 21 14 11 9 9 15 41 92 102 51 14 1 -2 -3 -3 -3 -3 -3 -3 -3 -3 -3 -3 -3 -3 -3 -3 -3 -3 -2 -1 1 13 42 88 107 74 33 10 1 0 10 42 95 
95 42 10 0 -2 -3 -3 -3 -3 -3 -3 -3 -2 -2 1 15 51 105 104 64 53 66 89 105 105 89 66 47 33 20 10 4 0 -1 -2 -2 -2 -2 -2 -2 -2 -2 -2 -1 0 0 1 3 6 8 11 14 21 31 40 49 64 80 90 96 101 107 106 100 92 80 64 51 43 38 33 33 56 102 99 44 11 0 -2 -3 -3 -3 -3 -3 -3 -3 -3 -3 -3 -3 -3 -3 -3 -3 -3 -3 -2 -1 4 21 57 99 103 66 28 8 2 10 42 95 
95 42 10 0 -2 -3 -3 -3 -3 -3 -3 -3 -2 -1 4 24 69 122 121 97 97 107 105 88 64 41 24 13 7 3 0 -1 -2 -2 -2 -3 -3 -3 -3 -3 -3 -3 -3 -2 -2 -2 -2 -1 -1 0 0 1 3 6 9 14 21 30 37 43 51 64 80 92 100 106 107 101 96 90 82 75 88 120 100 42 10 0 -2 -3 -3 -3 -3 -3 -3 -3 -3 -3 -3 -3 -3 -3 -3 -3 -3 -3 -3 -2 0 7 28 66 103 99 57 21 7 12 42 95 
95 42 10 0 -2 -3 -3 -3 -3 -3 -3 -2 -2 0 11 40 95 141 138 121 107 88 63 40 23 11 4 1 0 -1 -2 -2 -3 -3 -3 -3 -3 -3 -3 -3 -3 -3 -3 -3 -3 -3 -3 -2 -2 -2 -2 -2 -1 0 0 1 3 6 8 11 14 21 31 40 49 64 80 90 96 101 108 115 128 142 103 41 9 0 -2 -3 -3 -3 -3 -3 -3 -3 -3 -3 -3 -3 -3 -3 -3 -3 -3 -3 -3 -2 -2 1 10 33 74 107 88 44 17 15 43 96 
95 42 10 0 -2 -3 -3 -3 -3 -3 -3 -2 -1 5 23 65 116 130 109 84 61 39 22 11 4 0 -1 -2 -2 -2 -3 -3 -3 -3 -3 -3 -3 -3 -3 -3 -3 -3 -3 -3 -3 -3 -3 -3 -3 -3 -3 -3 -2 -2 -2 -2 -1 -1 0 0 1 3 6 9 14 21 30 37 43 51 66 89 117 140 103 41 9 0 -2 -3 -3 -3 -3 -3 -3 -3 -3 -3 -3 -3 -3 -3 -3 -3 -3 -3 -3 -3 -2 -1 2 14 43 88 107 74 36 23 46 96 
96 42 10 0 -2 -3 -3 -3 -3 -3 -2 -1 1 13 43 91 113 86 54 34 20 10 4 0 -1 -2 -2 -2 -3 -3 -3 -3 -3 -3 -3 -3 -3 -3 -3 -3 -3 -3 -3 -3 -3 -3 -3 -3 -3 -3 -3 -3 -3 -3 -3 -3 -2 -2 -2 -2 -2 -1 0 0 1 3 6 8 11 15 24 42 75 117 99 41 10 0 -2 -3 -3 -3 -3 -3 -3 -3 -3 -3 -3 -3 -3 -3 -3 -3 -3 -3 -3 -3 -3 -2 -1 4 21 57 99 103 69 41 52 98 
96 41 10 0 -2 -3 -3 -3 -3 -3 -2 0 8 30 72 107 90 47 20 9 3 0 -1 -2 -2 -3 -3 -3 -3 -3 -3 -3 -3 -3 -3 -3 -3 -3 -3 -3 -3 -3 -3 -3 -3 -3 -3 -3 -3 -3 -3 -3 -3 -3 -3 -3 -3 -3 -3 -3 -3 -2 -2 -2 -2 -1 -1 0 0 1 6 19 52 102 97 42 10 0 -2 -3 -3 -3 -3 -3 -3 -3 -3 -3 -3 -3 -3 -3 -3 -3 -3 -3 -3 -3 -3 -3 -2 0 7 28 66 103 101 69 65 101 
97 41 10 0 -2 -3 -3 -3 -3 -2 -1 4 21 58 100 100 58 22 6 0 -1 -2 -2 -2 -3 -3 -3 -3 -3 -3 -3 -3 -3 -3 -3 -3 -3 -3 -3 -3 -3 -3 -3 -3 -3 -3 -3 -3 -3 -3 -3 -3 -3 -3 -3 -3 -3 -3 -3 -3 -3 -3 -3 -3 -3 -2 -2 -2 -2 -1 1 12 44 97 96 42 10 0 -2 -3 -3 -3 -3 -3 -3 -3 -3 -3 -3 -3 -3 -3 -3 -3 -3 -3 -3 -3 -3 -3 -2 -2 1 10 33 74 108 99 85 109 
98 41 10 0 -2 -3 -3 -3 -2 -1 2 14 43 88 107 72 31 8 0 -1 -2 -2 -3 -3 -3 -3 -3 -3 -3 -3 -3 -3 -3 -3 -3 -3 -3 -3 -3 -3 -3 -3 -3 -3 -3 -3 -3 -3 -3 -3 -3 -3 -3 -3 -3 -3 -3 -3 -3 -3 -3 -3 -3 -3 -3 -3 -3 -3 -2 -2 0 10 42 96 99 46 12 0 -2 -2 -3 -3 -3 -3 -3 -3 -3 -3 -3 -3 -3 -3 -3 -3 -3 -3 -3 -3 -3 -3 -3 -2 -1 2 14 43 89 115 111 121 
101 41 9 0 -2 -3 -3 -2 -1 1 11 34 74 108 90 45 15 3 0 -2 -2 -2 -2 -2 -2 -2 -2 -2 -2 -2 -3 -3 -3 -3 -3 -3 -3 -3 -3 -3 -3 -3 -3 -3 -3 -3 -3 -3 -3 -3 -3 -3 -3 -3 -3 -3 -3 -3 -3 -3 -3 -3 -3 -3 -3 -3 -3 -3 -2 -1 1 12 43 97 107 56 19 4 0 -2 -2 -3 -3 -3 -3 -3 -3 -3 -3 -3 -3 -3 -3 -3 -3 -3 -3 -3 -3 -3 -3 -3 -2 -1 4 21 58 104 130 136 
103 41 9 0 -2 -2 -2 -1 1 10 31 69 108 109 69 32 13 5 1 0 0 0 0 0 0 0 0 0 -1 -1 -2 -2 -2 -2 -2 -2 -2 -2 -2 -2 -2 -3 -3 -3 -3 -3 -3 -3 -3 -3 -3 -3 -3 -3 -3 -3 -3 -3 -3 -3 -3 -3 -3 -3 -3 -3 -2 -2 -1 0 5 19 52 105 125 82 38 15 5 0 -1 -2 -2 -3 -3 -3 -3 -3 -3 -3 -3 -3 -3 -3 -3 -3 -3 -3 -3 -3 -3 -3 -3 -2 0 8 30 73 123 145 
103 41 9 0 -2 -2 -1 1 10 31 68 113 130 105 70 47 33 22 14 11 10 10 10 10 10 10 9 8 6 3 1 0 0 0 0 0 0 0 0 -1 -1 -2 -2 -2 -2 -2 -2 -2 -2 -2 -2 -2 -2 -3 -3 -3 -3 -3 -3 -3 -3 -3 -3 -3 -3 -2 -2 -1 1 8 21 44 79 123 145 120 77 44 23 11 3 0 -1 -2 -2 -3 -3 -3 -3 -3 -3 -3 -3 -3 -3 -3 -3 -3 -3 -3 -3 -3 -3 -2 -1 1 13 43 97 138 
100 41 9 0 -2 -1 1 10 31 68 113 143 140 121 104 93 80 64 51 44 42 42 42 42 41 41 40 37 30 21 14 11 10 10 10 10 10 9 8 6 3 1 0 0 0 0 0 0 0 0 0 -1 -1 -2 -2 -2 -2 -2 -2 -2 -2 -2 -2 -2 -2 -1 0 5 13 30 57 88 111 122 124 123 113 91 64 39 20 8 1 -1 -2 -2 -3 -3 -3 -3 -3 -3 -3 -3 -3 -3 -3 -3 -3 -3 -3 -3 -3 -3 -2 -1 5 24 69 121 
98 41 10 0 0 1 10 31 67 105 121 116 106 100 99 102 107 107 101 97 96 95 95 95 95 95 94 89 79 64 51 44 42 42 42 41 41 40 37 30 21 14 11 10 10 10 10 10 10 9 8 6 3 1 0 0 0 0 0 0 0 0 0 0 0 4 11 23 44 72 100 107 92 72 63 72 91 106 105 86 57 30 13 5 0 -1 -2 -2 -3 -3 -3 -3 -3 -3 -3 -3 -3 -3 -3 -3 -3 -3 -3 -3 -2 -2 1 15 52 106 
96 42 10 2 3 11 32 67 102 105 79 56 45 43 45 51 64 79 89 94 95 95 95 95 95 96 97 101 107 107 101 97 96 95 95 95 95 94 89 79 64 51 44 42 42 42 42 41 41 40 37 30 21 14 11 10 10 10 10 10 9 8 7 6 9 21 39 64 90 107 100 72 44 26 20 25 41 64 90 107 100 72 44 23 11 3 0 -1 -2 -2 -3 -3 -3 -3 -3 -3 -3 -3 -3 -3 -3 -3 -3 -3 -3 -2 0 11 45 99 
96 43 13 7 15 34 68 102 102 69 36 18 12 10 11 14 21 30 37 40 41 41 42 42 42 42 44 51 64 79 89 94 95 95 95 95 96 97 101 107 107 101 97 96 95 95 95 95 95 94 89 79 64 51 44 42 42 42 41 41 40 37 32 28 36 59 87 105 105 86 57 30 14 5 3 5 11 23 44 72 100 107 90 64 39 20 8 1 -1 -2 -2 -3 -3 -3 -3 -3 -3 -3 -3 -3 -3 -3 -3 -3 -3 -2 0 10 42 96 
96 45 20 24 44 74 103 101 67 32 11 3 0 0 0 1 3 6 8 9 10 10 10 10 10 10 11 14 21 30 37 40 41 41 42 42 42 44 51 64 79 89 94 95 95 95 95 95 96 97 101 107 107 101 97 96 95 95 95 95 94 91 84 78 87 105 108 90 64 39 20 8 1 0 -1 -1 0 5 13 30 57 86 105 105 86 57 30 13 5 0 -1 -2 -2 -3 -3 -3 -3 -3 -3 -3 -3 -3 -3 -3 -3 -2 0 10 42 96 
99 54 41 59 88 107 99 65 31 10 1 -1 -2 -2 -2 -2 -1 -1 0 0 0 0 0 0 0 0 0 1 3 6 8 9 10 10 10 10 10 11 14 21 30 37 40 41 41 42 42 42 42 44 51 64 79 89 94 95 95 95 96 96 98 105 119 132 133 113 76 45 23 11 3 0 -1 -2 -2 -2 -2 -1 1 8 20 39 64 90 107 100 72 44 23 11 3 0 -1 -2 -2 -3 -3 -3 -3 -3 -3 -3 -3 -3 -3 -2 0 10 42 96 
106 75 77 101 107 88 57 28 9 1 -1 -2 -2 -3 -3 -3 -2 -2 -2 -2 -2 -2 -2 -2 -2 -2 -2 -2 -1 -1 0 0 0 0 0 0 0 0 1 3 6 8 9 10 10 10 10 10 10 11 14 21 30 37 40 41 41 42 42 43 47 60 92 135 133 82 38 15 5 0 -1 -2 -2 -3 -3 -3 -2 -2 -1 0 3 11 23 44 72 100 107 90 64 39 20 8 1 -1 -2 -2 -3 -3 -3 -3 -3 -3 -3 -3 -3 -2 0 10 41 97 
121 107 111 104 74 43 21 7 0 -1 -2 -3 -3 -3 -3 -3 -3 -3 -3 -3 -3 -3 -3 -3 -3 -3 -3 -3 -2 -2 -2 -2 -2 -2 -2 -2 -2 -2 -2 -1 -1 0 0 0 0 0 0 0 0 0 1 3 6 8 9 10 10 10 10 11 14 26 60 113 112 56 19 4 0 -2 -2 -3 -3 -3 -3 -3 -3 -3 -2 -2 -1 0 5 13 30 57 86 105 105 86 57 30 13 5 0 -1 -2 -2 -3 -3 -3 -3 -3 -3 -3 -2 0 10 41 99 
140 131 107 69 34 14 4 0 -2 -2 -3 -3 -3 -3 -3 -3 -3 -3 -3 -3 -3 -3 -3 -3 -3 -3 -3 -3 -3 -3 -3 -3 -3 -3 -3 -3 -3 -3 -3 -2 -2 -2 -2 -2 -2 -2 -2 -2 -2 -2 -2 -1 -1 0 0 0 0 0 0 0 3 14 47 101 100 46 12 0 -2 -2 -3 -3 -3 -3 -3 -3 -3 -3 -3 -3 -2 -2 -1 1 8 20 39 64 90 107 100 72 44 23 11 4 0 -1 -2 -2 -3 -3 -3 -3 -3 -2 0 9 41 102 
144 117 70 32 11 2 -1 -2 -2 -3 -3 -3 -3 -3 -3 -3 -3 -3 -3 -3 -3 -3 -3 -3 -3 -3 -3 -3 -3 -3 -3 -3 -3 -3 -3 -3 -3 -3 -3 -3 -3 -3 -3 -3 -3 -3 -3 -3 -3 -3 -3 -2 -2 -2 -2 -2 -2 -2 -2 -1 0 11 43 97 97 42 10 0 -2 -3 -3 -3 -3 -3 -3 -3 -3 -3 -3 -3 -3 -2 -2 -1 0 3 11 23 44 72 100 107 90 64 40 22 11 3 0 -1 -2 -2 -3 -3 -3 -2 0 9 41 103 
126 81 35 11 1 -1 -2 -3 -3 -3 -3 -3 -3 -3 -3 -3 -3 -3 -3 -3 -3 -3 -3 -3 -3 -3 -3 -3 -3 -3 -3 -3 -3 -3 -3 -3 -3 -3 -3 -3 -3 -3 -3 -3 -3 -3 -3 -3 -3 -3 -3 -3 -3 -3 -3 -3 -3 -3 -2 -2 0 10 42 96 96 42 10 0 -2 -3 -3 -3 -3 -3 -3 -3 -3 -3 -3 -3 -3 -3 -3 -2 -2 -1 0 5 13 30 57 86 105 105 88 63 39 20 8 1 -1 -2 -2 -2 -2 -2 0 9 41 101 
108 56 18 3 -1 -2 -3 -3 -3 -3 -3 -3 -3 -3 -3 -3 -3 -3 -3 -3 -3 -3 -3 -3 -3 -3 -3 -3 -3 -3 -3 -3 -3 -3 -3 -3 -3 -3 -3 -3 -3 -3 -3 -3 -3 -3 -3 -3 -3 -3 -3 -3 -3 -3 -3 -3 -3 -3 -3 -2 0 10 42 95 95 42 10 0 -2 -3 -3 -3 -3 -3 -3 -3 -3 -3 -3 -3 -3 -3 -3 -3 -3 -2 -2 -1 1 8 20 39 63 88 105 105 86 57 30 13 5 1 0 0 -1 -1 0 10 41 98 
99 46 12 0 -2 -2 -3 -3 -3 -3 -3 -3 -3 -3 -3 -3 -3 -3 -3 -3 -3 -3 -3 -3 -3 -3 -3 -3 -3 -3 -3 -3 -3 -3 -3 -3 -3 -3 -3 -3 -3 -3 -3 -3 -3 -3 -3 -3 -3 -3 -3 -3 -3 -3 -3 -3 -3 -3 -3 -2 0 10 42 95 95 42 10 0 -2 -3 -3 -3 -3 -3 -3 -3 -3 -3 -3 -3 -3 -3 -3 -3 -3 -3 -2 -2 -1 0 3 11 23 41 65 91 108 101 73 44 24 14 10 6 3 1 3 12 43 97 
97 42 10 0 -2 -2 -3 -3 -3 -3 -3 -3 -3 -3 -3 -3 -3 -3 -3 -3 -3 -3 -3 -3 -3 -3 -3 -3 -3 -3 -3 -3 -3 -3 -3 -3 -3 -3 -3 -3 -3 -3 -3 -3 -3 -3 -3 -3 -3 -3 -3 -3 -3 -3 -3 -3 -3 -3 -3 -2 0 10 42 95 95 42 10 0 -2 -3 -3 -3 -3 -3 -3 -3 -3 -3 -3 -3 -3 -3 -3 -3 -3 -3 -3 -3 -2 -2 -1 0 5 13 26 48 79 111 117 96 69 51 40 31 21 14 13 19 48 98 
98 42 10 0 -1 -2 -2 -2 -2 -2 -3 -3 -3 -3 -3 -3 -3 -3 -3 -3 -3 -3 -3 -3 -3 -3 -3 -3 -3 -3 -3 -3 -3 -3 -3 -3 -3 -3 -3 -3 -3 -3 -3 -3 -3 -3 -3 -3 -3 -3 -3 -3 -3 -3 -3 -3 -3 -3 -3 -2 0 10 42 95 95 42 10 0 -2 -3 -3 -3 -3 -3 -3 -3 -3 -3 -3 -3 -3 -3 -3 -3 -3 -3 -3 -3 -2 -2 -1 0 2 7 15 30 57 98 134 141 124 105 93 80 64 50 43 44 64 106 
102 44 13 2 0 0 0 0 -1 -1 -2 -2 -2 -2 -2 -2 -2 -2 -3 -3 -3 -3 -3 -3 -3 -3 -3 -3 -3 -3 -3 -3 -3 -3 -3 -3 -3 -3 -3 -3 -3 -3 -3 -3 -3 -3 -3 -3 -3 -3 -3 -3 -3 -3 -3 -3 -3 -3 -3 -2 0 10 42 95 95 42 10 0 -2 -3 -3 -3 -3 -3 -3 -3 -3 -3 -3 -3 -3 -3 -3 -3 -3 -2 -2 -2 -1 0 1 4 11 21 35 52 77 109 130 128 113 104 103 107 107 101 94 91 101 125 
111 53 22 13 10 10 9 8 6 3 1 0 0 0 0 0 -1 -1 -2 -2 -2 -2 -2 -2 -2 -2 -2 -3 -3 -3 -3 -3 -3 -3 -3 -3 -3 -3 -3 -3 -3 -3 -3 -3 -3 -3 -3 -3 -3 -3 -3 -3 -3 -3 -3 -3 -3 -3 -3 -2 0 10 42 95 95 42 10 0 -2 -3 -3 -3 -3 -3 -3 -3 -3 -3 -3 -3 -3 -3 -3 -2 -2 -2 -1 0 3 7 13 24 40 61 82 98 109 108 92 69 53 47 52 64 80 92 102 114 132 147 
127 80 53 44 42 41 40 37 30 21 14 11 10 10 9 8 6 3 1 0 0 0 0 0 0 -1 -1 -2 -2 -2 -2 -2 -2 -2 -2 -3 -3 -3 -3 -3 -3 -3 -3 -3 -3 -3 -3 -3 -3 -3 -3 -3 -3 -3 -3 -3 -3 -3 -3 -2 0 10 42 95 95 42 10 0 -2 -3 -3 -3 -3 -3 -3 -3 -3 -3 -3 -3 -3 -2 -2 -1 0 1 4 10 20 33 47 66 89 105 107 97 82 61 40 24 15 12 15 21 31 40 52 73 108 143 
147 123 104 97 96 95 94 89 79 64 51 44 42 41 40 37 30 21 14 11 10 10 10 9 8 6 3 1 0 0 0 0 0 -1 -1 -2 -2 -2 -2 -2 -2 -2 -2 -2 -3 -3 -3 -3 -3 -3 -3 -3 -3 -3 -3 -3 -3 -3 -3 -2 0 10 42 95 95 42 10 0 -2 -3 -3 -3 -3 -3 -3 -3 -3 -3 -2 -2 -2 -1 0 3 7 13 23 40 61 82 97 107 105 89 66 47 33 20 10 4 1 0 1 3 6 10 16 32 69 124 
143 123 104 97 96 96 97 101 107 107 101 97 96 95 94 89 79 64 51 44 42 42 41 40 37 30 21 14 11 10 10 9 8 6 3 1 0 0 0 0 0 0 -1 -1 -2 -2 -2 -2 -2 -2 -2 -2 -3 -3 -3 -3 -3 -3 -2 -2 0 10 42 95 95 42 10 0 -2 -3 -3 -3 -3 -3 -3 -3 -2 -2 -2 -1 0 4 10 20 33 47 66 89 105 107 97 82 61 40 23 13 7 3 0 -1 -2 -2 -2 -1 0 0 4 16 49 110 
118 80 53 44 42 42 44 51 64 79 89 94 95 96 97 101 107 107 101 97 96 95 95 94 89 79 64 51 44 42 41 40 37 30 21 14 11 10 10 10 9 8 6 3 1 0 0 0 0 0 -1 -1 -2 -2 -2 -2 -2 -2 -2 -2 0 10 42 95 95 42 10 0 -2 -3 -3 -3 -3 -2 -2 -2 -1 0 1 4 11 22 39 61 82 97 107 105 89 66 47 33 20 10 4 1 0 -1 -2 -2 -2 -3 -2 -2 -2 -1 0 11 43 101 
103 53 23 13 10 10 11 14 21 30 37 40 41 42 44 51 64 79 89 94 95 95 96 97 101 107 107 101 97 96 95 94 89 79 64 51 44 42 42 41 40 37 30 21 14 11 10 10 9 8 6 3 1 0 0 0 0 0 0 0 1 11 42 96 96 42 10 0 -2 -3 -3 -2 -2 -2 -1 0 3 7 13 24 41 64 88 104 107 97 82 61 40 23 13 7 3 0 -1 -2 -2 -2 -3 -3 -3 -3 -3 -3 -2 -2 0 10 42 97 
97 44 13 2 0 0 0 1 3 6 8 9 10 10 11 14 21 30 37 40 41 42 42 44 51 64 79 89 94 95 96 97 101 107 107 101 97 96 95 95 94 89 79 64 51 44 42 41 40 37 30 21 14 11 10 10 10 9 8 6 6 14 45 97 97 42 10 0 -2 -2 -2 -1 0 1 4 10 20 33 47 66 89 105 105 89 66 47 33 20 10 4 1 0 -1 -2 -2 -2 -3 -3 -3 -3 -3 -3 -3 -3 -3 -2 0 10 42 96 
96 42 10 0 -1 -2 -2 -2 -1 -1 0 0 0 0 0 1 3 6 8 9 10 10 10 11 14 21 30 37 40 41 42 44 51 64 79 89 94 95 95 96 97 101 107 107 101 97 96 95 94 89 79 64 51 44 42 42 41 40 37 30 24 27 55 104 101 46 12 1 -1 -1 0 3 7 13 23 40 61 82 97 107 104 88 64 41 24 13 7 3 0 -1 -2 -2 -2 -3 -3 -3 -3 -3 -3 -3 -3 -3 -3 -3 -3 -2 0 10 42 95 
95 42 10 0 -2 -2 -3 -3 -2 -2 -2 -2 -2 -2 -2 -2 -1 -1 0 0 0 0 0 0 1 3 6 8 9 10 10 11 14 21 30 37 40 41 42 42 44 51 64 79 89 94 95 96 97 101 107 107 101 97 96 95 95 94 89 80 66 62 83 122 113 57 19 5 2 5 10 20 33 47 66 89 105 107 97 82 61 39 22 11 4 1 0 -1 -2 -2 -2 -3 -3 -3 -3 -3 -3 -3 -3 -3 -3 -3 -3 -3 -3 -2 0 10 42 95 
95 42 10 0 -2 -3 -3 -3 -3 -3 -3 -3 -3 -3 -3 -3 -2 -2 -2 -2 -2 -2 -2 -2 -2 -1 -1 0 0 0 0 0 1 3 6 8 9 10 10 10 11 14 21 30 37 40 41 42 44 51 64 79 89 94 95 95 96 97 101 107 108 108 121 143 133 83 40 21 17 24 40 61 82 97 107 105 89 66 47 33 20 10 4 0 -1 -2 -2 -2 -3 -3 -3 -3 -3 -3 -3 -3 -3 -3 -3 -3 -3 -3 -3 -3 -3 -2 0 10 42 95 
95 42 10 0 -2 -3 -3 -3 -3 -3 -3 -3 -3 -3 -3 -3 -3 -3 -3 -3 -3 -3 -3 -3 -3 -2 -2 -2 -2 -2 -2 -2 -2 -1 -1 0 0 0 0 0 0 1 3 6 8 9 10 10 11 14 21 30 37 40 41 42 42 44 51 64 80 91 102 116 127 114 82 60 56 69 89 105 107 97 82 61 40 23 13 7 3 0 -1 -2 -2 -2 -3 -3 -3 -3 -3 -3 -3 -3 -3 -3 -3 -3 -3 -3 -3 -3 -3 -3 -3 -2 0 10 42 95 
95 42 10 0 -2 -3 -3 -3 -3 -3 -3 -3 -3 -3 -3 -3 -3 -3 -3 -3 -3 -3 -3 -3 -3 -3 -3 -3 -3 -3 -3 -3 -2 -2 -2 -2 -2 -2 -2 -2 -2 -2 -1 -1 0 0 0 0 0 1 3 6 8 9 10 10 10 11 14 21 30 38 44 56 82 114 128 120 111 110 105 89 66 47 33 20 10 4 1 0 -1 -2 -2 -2 -3 -3 -3 -3 -3 -3 -3 -3 -3 -3 -3 -3 -3 -3 -3 -3 -3 -3 -3 -3 -3 -2 0 10 42 95 
95 42 10 0 -2 -2 -3 -3 -3 -3 -3 -3 -3 -3 -3 -3 -3 -3 -3 -3 -3 -3 -3 -3 -3 -3 -3 -3 -3 -3 -3 -3 -3 -3 -3 -2 -2 -2 -2 -2 -2 -2 -2 -2 -2 -2 -2 -2 -2 -2 -1 0 0 0 0 0 0 0 1 3 6 9 12 19 40 83 133 142 114 87 62 40 24 13 7 3 0 -1 -2 -2 -2 -2 -3 -3 -3 -3 -3 -3 -3 -3 -3 -3 -3 -3 -3 -3 -3 -3 -3 -3 -3 -3 -3 -3 -2 -2 0 10 42 95 
96 42 10 0 -1 -2 -2 -2 -2 -2 -2 -2 -2 -2 -2 -2 -2 -2 -2 -2 -2 -2 -2 -2 -2 -2 -2 -2 -2 -2 -2 -2 -2 -2 -2 -2 -2 -2 -2 -2 -2 -2 -2 -2 -2 -2 -2 -2 -2 -2 -2 -2 -2 -2 -1 -1 -1 -1 -1 -1 0 0 1 5 20 57 114 121 76 42 23 11 5 1 0 -1 -1 -2 -2 -2 -2 -2 -2 -2 -2 -2 -2 -2 -2 -2 -2 -2 -2 -2 -2 -2 -2 -2 -2 -2 -2 -2 -2 -2 -2 -2 0 10 42 96 
97 44 13 2 0 0 0 0 0 0 0 0 0 0 0 0 0 0 0 0 0 0 0 0 0 0 0 0 0 0 0 0 0 0 0 0 0 0 0 0 0 0 0 0 0 0 0 0 0 0 0 0 0 0 0 0 0 0 0 0 0 0 1 4 15 48 103 105 54 22 9 3 1 0 0 0 0 0 0 0 0 0 0 0 0 0 0 0 0 0 0 0 0 0 0 0 0 0 0 0 0 0 0 0 0 0 2 13 44 97 
104 53 23 13 10 10 10 10 10 10 10 10 10 10 10 10 10 10 10 10 10 10 10 10 10 10 10 10 10 10 10 10 9 9 9 10 10 10 10 10 10 10 10 10 10 10 10 10 9 9 9 10 10 10 10 10 10 10 10 10 10 10 10 13 23 54 105 106 56 25 14 11 10 10 10 10 10 10 10 10 10 10 10 10 10 10 10 10 10 10 10 9 9 9 10 10 10 10 10 10 10 10 10 9 9 10 13 23 53 104 
124 80 53 44 42 42 42 42 42 42 42 42 42 42 42 42 42 42 42 42 42 42 42 42 42 42 42 42 42 42 41 41 41 41 41 41 41 41 42 42 42 42 42 42 42 42 41 41 41 41 41 41 41 41 42 42 42 42 42 42 42 42 42 44 53 80 123 123 80 54 45 42 42 42 42 42 42 42 42 42 42 42 42 42 42 42 42 42 42 41 41 41 41 41 41 41 41 42 42 42 42 41 41 41 41 42 44 53 80 124 
154 124 104 97 96 95 95 95 95 95 95 95 95 95 95 95 95 95 95 95 95 95 95 95 95 95 95 95 95 96 96 98 102 103 101 98 96 96 95 95 95 95 95 95 95 95 96 97 99 103 103 99 97 96 95 95 95 95 95 95 95 95 96 97 103 118 141 141 118 103 97 96 95 95 95 95 95 95 95 95 95 95 95 95 95 95 95 95 96 96 98 101 104 101 98 96 96 95 95 95 96 96 98 101 104 102 100 105 124 154 
