P2
110 110
255
153 113 96 93 92 92 92 92 92 92 92 92 92 92 92 92 92 92 92 92 92 92 92 92 92 92 92 92 92 93 96 108 135 152 129 104 94 92 92 92 92 92 92 92 92 92 93 96 111 143 143 110 96 93 92 92 92 92 92 92 92 92 92 92 93 95 99 99 95 93 92 92 92 92 92 92 92 92 92 92 92 92 92 92 92 92 92 92 92 94 103 129 152 130 104 94 92 92 92 92 92 94 102 127 152 131 105 99 114 153 
113 57 34 28 28 28 28 28 28 28 28 28 28 28 28 28 28 28 28 28 28 28 28 28 28 28 28 28 28 31 42 76 124 115 66 38 29 28 28 28 28 28 28 28 28 28 29 34 58 115 113 57 34 28 28 28 28 28 28 28 28 28 28 27 27 27 28 28 27 27 27 28 28 28 28 28 28 28 28 28 28 28 28 28 28 28 28 28 29 35 58 110 123 71 39 30 28 28 28 28 28 32 51 102 125 73 40 36 57 113 
96 34 8 2 1 1 1 1 1 1 1 1 1 1 1 1 1 1 1 1 1 1 1 1 1 1 1 2 3 10 35 89 112 62 21 6 2 1 1 1 1 1 1 1 1 2 3 10 41 107 98 34 8 2 1 1 1 1 1 1 1 1 1 1 1 1 1 1 1 1 1 1 1 1 1 1 1 1 1 1 1 1 1 1 1 1 1 2 4 16 55 112 87 31 8 2 1 1 1 1 2 8 33 94 101 39 11 9 34 96 
93 28 2 -2 -3 -3 -3 -3 -3 -3 -3 -3 -3 -3 -3 -3 -3 -3 -3 -3 -3 -3 -3 -3 -3 -3 -3 -2 1 18 61 110 84 29 4 -2 -3 -3 -3 -3 -3 -3 -3 -3 -3 -3 0 12 55 126 98 28 2 -2 -3 -3 -3 -3 -3 -3 -3 -3 -3 -3 -3 -3 -3 -3 -3 -3 -3 -3 -3 -3 -3 -3 -3 -3 -3 -3 -3 -3 -3 -3 -3 -3 -3 -3 1 22 78 110 53 12 0 -3 -3 -3 -3 -3 -2 5 35 99 90 27 3 3 29 93 
92 28 1 -3 -4 -4 -4 -4 -4 -4 -4 -4 -4 -4 -4 -4 -4 -4 -4 -4 -4 -4 -4 -4 -4 -4 -4 -1 10 46 102 102 46 10 -1 -4 -4 -4 -4 -4 -4 -4 -4 -4 -4 -3 2 27 89 150 100 28 1 -3 -4 -4 -4 -4 -4 -4 -4 -4 -4 -4 -4 -4 -4 -4 -4 -4 -4 -4 -4 -4 -4 -4 -4 -4 -4 -4 -4 -4 -4 -4 -4 -4 -4 -3 3 33 95 95 33 3 -3 -4 -4 -4 -4 -4 -2 9 51 109 76 20 1 2 28 92 
92 28 1 -3 -4 -4 -4 -4 -4 -4 -4 -4 -4 -4 -4 -4 -4 -4 -4 -4 -4 -4 -4 -4 -4 -4 -3 3 29 84 109 60 17 0 -3 -4 -4 -4 -4 -4 -4 -4 -4 -4 -4 -1 10 51 119 149 98 28 1 -3 -4 -4 -4 -4 -4 -4 -4 -4 -4 -4 -4 -4 -4 -4 -4 -4 -4 -4 -4 -4 -4 -4 -4 -4 -4 -4 -4 -4 -4 -4 -4 -4 -4 -1 11 53 109 77 21 0 -4 -4 -4 -4 -4 -4 0 20 76 109 51 9 -1 2 28 92 
92 28 1 -3 -4 -4 -4 -4 -4 -4 -4 -4 -4 -4 -4 -4 -4 -4 -4 -4 -4 -4 -4 -4 -4 -4 0 17 60 109 84 29 3 -3 -4 -4 -4 -4 -4 -4 -4 -4 -4 -4 -3 2 27 86 128 133 97 29 2 -3 -4 -4 -4 -4 -4 -4 -4 -4 -4 -4 -4 -4 -4 -4 -4 -4 -4 -4 -4 -4 -4 -4 -4 -4 -4 -4 -4 -4 -4 -4 -4 -4 -3 2 27 84 107 49 9 -2 -4 -4 -4 -4 -4 -3 1 27 89 98 34 4 -2 1 28 92 
92 28 1 -3 -4 -4 -4 -4 -4 -4 -4 -4 -4 -4 -4 -4 -4 -4 -4 -4 -4 -4 -4 -4 -4 -1 9 46 101 101 46 9 -1 -4 -4 -4 -4 -4 -4 -4 -4 -4 -4 -4 -1 11 51 110 109 113 101 34 4 -3 -4 -4 -4 -4 -4 -4 -4 -4 -4 -4 -4 -4 -4 -4 -4 -4 -4 -4 -4 -4 -4 -4 -4 -4 -4 -4 -4 -4 -4 -4 -4 -4 -2 9 49 107 84 27 2 -3 -4 -4 -4 -4 -4 -3 4 34 98 89 27 1 -2 1 28 92 
92 28 1 -3 -4 -4 -4 -4 -4 -4 -4 -4 -4 -4 -4 -4 -4 -4 -4 -4 -4 -4 -4 -4 -3 3 29 84 109 60 17 0 -4 -4 -4 -4 -4 -4 -4 -4 -4 -4 -4 -3 3 29 85 111 74 89 111 51 9 -2 -4 -4 -4 -4 -4 -4 -4 -4 -4 -4 -4 -4 -4 -4 -4 -4 -4 -4 -4 -4 -4 -4 -4 -4 -4 -4 -4 -4 -4 -4 -4 -4 0 21 77 109 53 11 -1 -4 -4 -4 -4 -4 -4 -2 9 51 109 76 20 0 -3 1 28 92 
92 28 1 -3 -4 -4 -4 -4 -4 -4 -4 -4 -4 -4 -4 -4 -4 -4 -4 -4 -4 -4 -4 -4 0 17 60 109 84 29 3 -3 -4 -4 -4 -4 -4 -4 -4 -4 -4 -4 -4 0 17 60 109 85 41 58 110 75 19 0 -4 -4 -4 -4 -4 -4 -4 -4 -4 -4 -4 -4 -4 -4 -4 -4 -4 -4 -4 -4 -4 -4 -4 -4 -4 -4 -4 -4 -4 -4 -4 -3 3 33 95 95 33 3 -3 -4 -4 -4 -4 -4 -4 0 20 76 109 51 9 -2 -3 1 28 92 
92 28 1 -3 -4 -4 -4 -4 -4 -4 -4 -4 -4 -4 -4 -4 -4 -4 -4 -4 -4 -4 -4 -1 9 46 101 101 46 9 -1 -4 -4 -4 -4 -4 -4 -4 -4 -4 -4 -4 -2 9 46 101 102 47 18 37 99 88 25 1 -4 -4 -4 -4 -4 -4 -4 -4 -4 -4 -4 -4 -4 -4 -4 -4 -4 -4 -4 -4 -4 -4 -4 -4 -4 -4 -4 -4 -4 -4 -4 -1 11 53 109 77 21 0 -4 -4 -4 -4 -4 -4 -3 1 27 89 98 34 4 -3 -3 1 28 92 
92 28 1 -3 -4 -4 -4 -4 -4 -4 -4 -4 -4 -4 -4 -4 -4 -4 -4 -4 -4 -4 -3 3 29 84 109 60 17 0 -4 -4 -4 -4 -4 -4 -4 -4 -4 -4 -4 -3 2 26 83 109 60 18 7 30 94 91 27 1 -3 -4 -4 -4 -4 -4 -4 -4 -4 -4 -4 -4 -4 -4 -4 -4 -4 -4 -4 -4 -4 -4 -4 -4 -4 -4 -4 -4 -4 -4 -3 2 27 84 107 49 9 -2 -4 -4 -4 -4 -4 -4 -3 4 34 98 89 27 1 -3 -3 1 28 92 
94 29 2 -3 -4 -4 -4 -4 -4 -4 -4 -4 -4 -4 -4 -4 -4 -4 -4 -4 -4 -4 0 17 60 109 84 29 3 -3 -4 -4 -4 -4 -4 -4 -4 -4 -4 -4 -4 -1 10 51 108 85 29 4 3 28 92 92 28 1 -3 -4 -4 -4 -4 -4 -4 -4 -4 -4 -4 -4 -4 -4 -4 -4 -4 -4 -4 -4 -4 -4 -4 -4 -4 -4 -4 -4 -4 -4 -2 9 49 107 84 27 2 -3 -4 -4 -4 -4 -4 -4 -2 9 51 109 76 20 0 -4 -3 1 27 92 
104 38 6 -2 -4 -4 -4 -4 -4 -4 -4 -4 -4 -4 -4 -4 -4 -4 -4 -4 -4 -1 9 46 101 101 46 9 -1 -4 -4 -4 -4 -4 -4 -4 -4 -4 -4 -4 -3 2 27 84 108 51 11 0 2 27 91 93 29 2 -3 -4 -4 -4 -4 -4 -4 -4 -4 -4 -4 -4 -4 -4 -4 -4 -4 -4 -4 -4 -4 -4 -4 -4 -4 -4 -4 -4 -4 -4 0 21 77 109 53 11 -1 -4 -4 -4 -4 -4 -4 -4 0 20 76 109 51 9 -2 -4 -3 1 27 94 
129 65 20 1 -3 -4 -4 -4 -4 -4 -4 -4 -4 -4 -4 -4 -4 -4 -4 -4 -3 3 29 84 109 60 17 0 -4 -4 -4 -4 -4 -4 -4 -4 -4 -4 -4 -4 -1 11 51 108 84 27 2 -2 1 25 87 99 35 4 -3 -4 -4 -4 -4 -4 -4 -4 -4 -4 -4 -4 -4 -4 -4 -4 -4 -4 -4 -4 -4 -4 -4 -4 -4 -4 -4 -4 -4 -3 3 33 95 95 33 3 -3 -4 -4 -4 -4 -4 -4 -3 1 27 89 98 34 4 -3 -4 -3 1 27 98 
152 114 57 18 1 -3 -4 -4 -4 -4 -4 -4 -4 -4 -4 -4 -4 -4 -4 -4 0 17 60 109 84 29 3 -3 -4 -4 -4 -4 -4 -4 -4 -4 -4 -4 -4 -3 3 29 85 108 51 10 -1 -3 0 19 75 109 51 9 -2 -4 -4 -4 -4 -4 -4 -4 -4 -4 -4 -4 -4 -4 -4 -4 -4 -4 -4 -4 -4 -4 -4 -4 -4 -4 -4 -4 -4 -1 11 53 109 77 21 0 -4 -4 -4 -4 -4 -4 -4 -3 4 34 98 89 27 1 -3 -4 -3 1 27 100 
136 126 106 55 15 0 -4 -4 -4 -4 -4 -4 -4 -4 -4 -4 -4 -4 -4 -1 9 46 101 101 46 9 -1 -4 -4 -4 -4 -4 -4 -4 -4 -4 -4 -4 -4 0 17 60 109 83 26 2 -3 -4 -2 9 51 109 75 19 0 -4 -4 -4 -4 -4 -4 -4 -4 -4 -4 -4 -4 -4 -4 -4 -4 -4 -4 -4 -4 -4 -4 -4 -4 -4 -4 -4 -3 2 27 84 107 49 9 -2 -4 -4 -4 -4 -4 -4 -4 -2 9 51 109 76 20 0 -4 -4 -3 1 27 97 
110 86 109 101 46 9 -1 -4 -4 -4 -4 -4 -4 -4 -4 -4 -4 -4 -3 3 29 84 109 60 17 0 -4 -4 -4 -4 -4 -4 -4 -4 -4 -4 -4 -4 -2 9 46 101 101 46 9 -2 -4 -4 -3 4 35 99 87 25 1 -4 -4 -4 -4 -4 -4 -4 -4 -4 -4 -4 -4 -4 -4 -4 -4 -4 -4 -4 -4 -4 -4 -4 -4 -4 -4 -4 -2 9 49 107 84 27 2 -3 -4 -4 -4 -4 -4 -4 -4 0 20 76 109 51 9 -2 -4 -4 -3 1 27 94 
98 51 67 110 84 29 4 -2 -4 -4 -4 -4 -4 -4 -4 -4 -4 -4 0 17 60 109 84 29 3 -3 -4 -4 -4 -4 -4 -4 -4 -4 -4 -4 -4 -3 2 26 83 109 60 17 0 -4 -4 -4 -3 2 29 93 91 27 1 -3 -4 -4 -4 -4 -4 -4 -4 -4 -4 -4 -4 -4 -4 -4 -4 -4 -4 -4 -4 -4 -4 -4 -4 -4 -4 -4 0 21 77 109 53 11 -1 -4 -4 -4 -4 -4 -4 -4 -3 1 27 89 98 34 4 -3 -4 -4 -3 1 27 92 
94 36 35 85 109 61 19 1 -3 -4 -4 -4 -4 -4 -4 -4 -4 -1 9 46 101 101 46 9 -1 -4 -4 -4 -4 -4 -4 -4 -4 -4 -4 -4 -4 -1 10 51 108 85 29 3 -3 -4 -4 -4 -3 1 28 92 92 28 1 -3 -4 -4 -4 -4 -4 -4 -4 -4 -4 -4 -4 -4 -4 -4 -4 -4 -4 -4 -4 -4 -4 -4 -4 -4 -4 -3 3 33 95 95 33 3 -3 -4 -4 -4 -4 -4 -4 -4 -3 4 34 98 89 27 1 -3 -4 -4 -3 1 27 92 
92 31 16 47 101 104 56 18 1 -3 -4 -4 -4 -4 -4 -4 -3 3 29 84 109 60 17 0 -4 -4 -4 -4 -4 -4 -4 -4 -4 -4 -4 -4 -3 2 27 84 108 51 11 -1 -4 -4 -4 -4 -3 1 27 91 93 29 2 -3 -4 -4 -4 -4 -4 -4 -4 -4 -4 -4 -4 -4 -4 -4 -4 -4 -4 -4 -4 -4 -4 -4 -4 -4 -4 -1 11 53 109 77 21 0 -4 -4 -4 -4 -4 -4 -4 -4 -2 9 51 109 76 20 0 -4 -4 -4 -3 1 28 92 
92 28 6 16 55 103 103 56 18 1 -3 -4 -4 -4 -4 -4 0 17 60 109 84 29 3 -3 -4 -4 -4 -4 -4 -4 -4 -4 -4 -4 -4 -4 -1 11 51 108 84 27 2 -3 -4 -4 -4 -4 -4 1 25 87 99 35 4 -3 -4 -4 -4 -4 -4 -4 -4 -4 -4 -4 -4 -4 -4 -4 -4 -4 -4 -4 -4 -4 -4 -4 -4 -4 -3 2 27 84 107 49 9 -2 -4 -4 -4 -4 -4 -4 -4 -4 0 20 76 109 51 9 -2 -4 -4 -4 -3 1 28 92 
92 28 3 2 18 56 103 103 56 18 1 -3 -4 -4 -4 -1 9 46 101 101 46 9 -1 -4 -4 -4 -4 -4 -4 -4 -4 -4 -4 -4 -4 -3 3 29 85 108 51 10 -1 -4 -4 -4 -4 -4 -4 0 19 75 109 51 9 -2 -4 -4 -4 -4 -4 -4 -4 -4 -4 -4 -4 -4 -4 -4 -4 -4 -4 -4 -4 -4 -4 -4 -4 -4 -2 9 49 107 84 27 2 -3 -4 -4 -4 -4 -4 -4 -4 -3 1 27 89 98 34 4 -3 -4 -4 -4 -3 1 28 92 
92 28 2 -2 1 18 56 103 103 56 18 1 -3 -4 -3 3 29 84 109 60 17 0 -4 -4 -4 -4 -4 -4 -4 -4 -4 -4 -4 -4 -4 0 17 60 109 83 26 2 -3 -4 -4 -4 -4 -4 -4 -2 9 51 109 75 19 0 -4 -4 -4 -4 -4 -4 -4 -4 -4 -4 -4 -4 -4 -4 -4 -4 -4 -4 -4 -4 -4 -4 -4 -4 0 21 77 109 53 11 -1 -4 -4 -4 -4 -4 -4 -4 -4 -3 4 34 98 89 27 1 -3 -4 -4 -4 -3 1 28 92 
92 28 1 -3 -3 1 18 56 103 103 56 18 1 -2 0 17 60 109 84 29 3 -3 -4 -4 -4 -4 -4 -4 -4 -4 -4 -4 -4 -4 -2 9 46 101 101 46 9 -2 -4 -4 -4 -4 -4 -4 -4 -3 4 34 99 88 25 1 -4 -4 -4 -4 -4 -4 -4 -4 -4 -4 -4 -4 -4 -4 -4 -4 -4 -4 -4 -4 -4 -4 -4 -3 3 33 95 95 33 3 -3 -4 -4 -4 -4 -4 -4 -4 -4 -2 9 51 109 76 20 0 -4 -4 -4 -4 -3 1 28 92 
92 28 1 -3 -4 -3 1 18 56 103 103 56 18 4 11 46 102 101 46 9 -1 -4 -4 -4 -4 -4 -4 -4 -4 -4 -4 -4 -4 -3 2 26 83 109 60 17 0 -4 -4 -4 -4 -4 -4 -4 -4 -3 2 29 93 91 27 1 -3 -4 -4 -4 -4 -4 -4 -4 -4 -4 -4 -4 -4 -4 -4 -4 -4 -4 -4 -4 -4 -4 -4 -1 11 53 109 77 21 0 -4 -4 -4 -4 -4 -4 -4 -4 -4 0 20 76 109 51 9 -2 -4 -4 -4 -4 -3 1 28 92 
92 28 1 -3 -4 -4 -3 1 18 56 103 103 58 26 35 85 109 60 17 0 -4 -4 -4 -4 -4 -4 -4 -4 -4 -4 -4 -4 -4 -1 10 51 108 85 29 3 -3 -4 -4 -4 -4 -4 -4 -4 -4 -3 1 27 91 93 29 2 -3 -4 -4 -4 -4 -4 -4 -4 -4 -4 -4 -4 -4 -4 -4 -4 -4 -4 -4 -4 -4 -4 -3 2 27 84 107 49 9 -2 -4 -4 -4 -4 -4 -4 -4 -4 -3 1 27 89 98 34 4 -3 -4 -4 -4 -4 -3 1 28 92 
92 28 1 -3 -4 -4 -4 -3 1 18 56 104 107 75 79 112 84 29 3 -3 -4 -4 -4 -4 -4 -4 -4 -4 -4 -4 -4 -4 -3 2 27 84 108 51 11 -1 -4 -4 -4 -4 -4 -4 -4 -4 -4 -4 1 25 88 99 34 4 -3 -4 -4 -4 -4 -4 -4 -4 -4 -4 -4 -4 -4 -4 -4 -4 -4 -4 -4 -4 -4 -4 -2 9 49 107 84 27 2 -3 -4 -4 -4 -4 -4 -4 -4 -4 -3 4 34 98 89 27 1 -3 -4 -4 -4 -4 -3 1 28 92 
92 28 1 -3 -4 -4 -4 -4 -3 1 18 57 109 134 134 106 46 9 -1 -4 -4 -4 -4 -4 -4 -4 -4 -4 -4 -4 -4 -4 -1 11 51 108 84 27 2 -3 -4 -4 -4 -4 -4 -4 -4 -4 -4 -4 0 19 75 109 51 9 -2 -4 -4 -4 -4 -4 -4 -4 -4 -4 -4 -4 -4 -4 -4 -4 -4 -4 -4 -4 -4 -4 0 21 77 109 53 11 -1 -4 -4 -4 -4 -4 -4 -4 -4 -4 -2 9 51 109 76 20 0 -4 -4 -4 -4 -4 -3 1 28 92 
92 28 1 -3 -4 -4 -4 -4 -4 -3 2 20 65 133 133 64 17 0 -3 -4 -4 -4 -4 -4 -4 -4 -4 -4 -4 -4 -4 -3 3 29 85 108 51 10 -1 -4 -4 -4 -4 -4 -4 -4 -4 -4 -4 -4 -2 9 51 109 75 19 0 -4 -4 -4 -4 -4 -4 -4 -4 -4 -4 -4 -4 -4 -4 -4 -4 -4 -4 -4 -4 -3 3 33 95 95 33 3 -3 -4 -4 -4 -4 -4 -4 -4 -4 -4 0 20 76 109 51 9 -2 -4 -4 -4 -4 -4 -3 1 28 92 
92 28 1 -3 -4 -4 -4 -4 -4 -4 -2 5 37 105 107 39 6 -2 -4 -4 -4 -4 -4 -4 -4 -4 -4 -4 -4 -4 -4 0 17 60 109 83 26 2 -3 -4 -4 -4 -4 -4 -4 -4 -4 -4 -4 -4 -3 4 35 99 87 25 1 -4 -4 -4 -4 -4 -4 -4 -4 -4 -4 -4 -4 -4 -4 -4 -4 -4 -4 -4 -4 -1 11 53 109 77 21 0 -4 -4 -4 -4 -4 -4 -4 -4 -4 -3 1 27 89 98 34 4 -3 -4 -4 -4 -4 -4 -3 1 28 92 
92 28 1 -3 -4 -4 -4 -4 -4 -4 -3 2 27 90 101 36 4 -3 -4 -4 -4 -4 -4 -4 -4 -4 -4 -4 -4 -4 -2 9 46 101 101 46 9 -2 -4 -4 -4 -4 -4 -4 -4 -4 -4 -4 -4 -4 -3 2 29 93 91 27 1 -3 -4 -4 -4 -4 -4 -4 -4 -4 -4 -4 -4 -4 -4 -4 -4 -4 -4 -4 -3 2 27 84 107 49 9 -2 -4 -4 -4 -4 -4 -4 -4 -4 -4 -3 4 34 98 89 27 1 -3 -4 -4 -4 -4 -4 -3 1 28 92 
92 28 1 -3 -4 -4 -4 -4 -4 -4 -4 0 20 76 110 51 9 -2 -4 -4 -4 -4 -4 -4 -4 -4 -4 -4 -4 -3 2 26 83 109 60 17 0 -4 -4 -4 -4 -4 -4 -4 -4 -4 -4 -4 -4 -4 -3 1 28 92 92 28 1 -3 -4 -4 -4 -4 -4 -4 -4 -4 -4 -4 -4 -4 -4 -4 -4 -4 -4 -4 -2 9 49 107 84 27 2 -3 -4 -4 -4 -4 -4 -4 -4 -4 -4 -2 9 51 109 76 20 0 -4 -4 -4 -4 -4 -4 -3 1 28 92 
92 28 1 -3 -4 -4 -4 -4 -4 -4 -4 -2 9 51 109 75 19 0 -4 -4 -4 -4 -4 -4 -4 -4 -4 -4 -4 -1 10 51 108 85 29 3 -3 -4 -4 -4 -4 -4 -4 -4 -4 -4 -4 -4 -4 -4 -3 1 27 91 93 29 2 -3 -4 -4 -4 -4 -4 -4 -4 -4 -4 -4 -4 -4 -4 -4 -4 -4 -4 -4 0 21 77 109 53 11 -1 -4 -4 -4 -4 -4 -4 -4 -4 -4 -4 0 20 76 109 51 9 -2 -4 -4 -4 -4 -4 -4 -3 1 28 92 
92 27 1 -3 -4 -4 -4 -4 -4 -4 -4 -3 4 34 98 88 25 1 -4 -4 -4 -4 -4 -4 -4 -4 -4 -4 -3 2 27 84 108 51 11 -1 -4 -4 -4 -4 -4 -4 -4 -4 -4 -4 -4 -4 -4 -4 -4 1 25 87 99 35 4 -3 -4 -4 -4 -4 -4 -4 -4 -4 -4 -4 -4 -4 -4 -4 -4 -4 -4 -3 3 33 95 95 33 3 -3 -4 -4 -4 -4 -4 -4 -4 -4 -4 -3 1 27 89 98 34 4 -3 -4 -4 -4 -4 -4 -4 -3 1 28 92 
92 27 1 -3 -4 -4 -4 -4 -4 -4 -4 -3 2 28 93 93 28 2 -3 -4 -4 -4 -4 -4 -4 -4 -4 -4 -1 11 51 108 84 27 2 -3 -4 -4 -4 -4 -4 -4 -4 -4 -4 -4 -4 -4 -4 -4 -4 0 19 75 109 51 9 -2 -4 -4 -4 -4 -4 -4 -4 -4 -4 -4 -4 -4 -4 -4 -4 -4 -4 -1 11 53 109 77 21 0 -4 -4 -4 -4 -4 -4 -4 -4 -4 -4 -3 4 34 98 89 27 1 -3 -4 -4 -4 -4 -4 -4 -3 2 29 94 
94 27 1 -3 -4 -4 -4 -4 -4 -4 -4 -4 1 25 88 98 34 4 -3 -4 -4 -4 -4 -4 -4 -4 -4 -3 3 29 85 108 51 10 -1 -4 -4 -4 -4 -4 -4 -4 -4 -4 -4 -4 -4 -4 -4 -4 -4 -2 9 51 109 75 19 0 -4 -4 -4 -4 -4 -4 -4 -4 -4 -4 -4 -4 -4 -4 -4 -4 -3 2 27 84 107 49 9 -2 -4 -4 -4 -4 -4 -4 -4 -4 -4 -4 -2 9 51 109 76 20 0 -4 -4 -4 -4 -4 -4 -4 -3 4 35 102 
97 27 1 -3 -4 -4 -4 -4 -4 -4 -4 -4 0 19 75 109 51 9 -2 -4 -4 -4 -4 -4 -4 -4 -4 0 17 60 109 83 26 2 -3 -4 -4 -4 -4 -4 -4 -4 -4 -4 -4 -4 -4 -4 -4 -4 -4 -3 4 35 99 87 25 1 -4 -4 -4 -4 -4 -4 -4 -4 -4 -4 -4 -4 -4 -4 -4 -4 -2 9 49 107 84 27 2 -3 -4 -4 -4 -4 -4 -4 -4 -4 -4 -4 0 20 76 109 51 9 -2 -4 -4 -4 -4 -4 -4 -4 -1 11 54 125 
100 27 1 -3 -4 -4 -4 -4 -4 -4 -4 -4 -2 9 51 109 75 19 0 -4 -4 -4 -4 -4 -4 -4 -2 9 46 101 101 46 9 -2 -4 -4 -4 -4 -4 -4 -4 -4 -4 -4 -4 -4 -4 -4 -4 -4 -4 -3 2 29 93 91 27 1 -3 -4 -4 -4 -4 -4 -4 -4 -4 -4 -4 -4 -4 -4 -4 -4 0 21 77 109 53 11 -1 -4 -4 -4 -4 -4 -4 -4 -4 -4 -4 -3 1 27 89 98 34 4 -3 -4 -4 -4 -4 -4 -4 -3 3 29 90 150 
98 27 1 -3 -4 -4 -4 -4 -4 -4 -4 -4 -3 4 34 98 88 25 1 -4 -4 -4 -4 -4 -4 -3 2 26 83 109 60 17 0 -4 -4 -4 -4 -4 -4 -4 -4 -4 -4 -4 -4 -4 -4 -4 -4 -4 -4 -3 1 28 92 92 28 1 -3 -4 -4 -4 -4 -4 -4 -4 -4 -4 -4 -4 -4 -4 -4 -3 3 33 95 95 33 3 -3 -4 -4 -4 -4 -4 -4 -4 -4 -4 -4 -3 4 34 98 89 27 1 -3 -4 -4 -4 -4 -4 -4 0 17 61 122 149 
95 27 1 -3 -4 -4 -4 -4 -4 -4 -4 -4 -3 2 28 93 93 28 2 -3 -4 -4 -4 -4 -4 -1 10 51 108 85 29 3 -3 -4 -4 -4 -4 -4 -4 -4 -4 -4 -4 -4 -4 -4 -4 -4 -4 -4 -4 -3 1 27 91 93 29 2 -3 -4 -4 -4 -4 -4 -4 -4 -4 -4 -4 -4 -4 -4 -4 -1 11 53 109 77 21 0 -4 -4 -4 -4 -4 -4 -4 -4 -4 -4 -4 -2 9 51 109 76 20 0 -4 -4 -4 -4 -4 -4 -1 9 46 104 124 130 
93 27 1 -3 -4 -4 -4 -4 -4 -4 -4 -4 -4 1 25 88 98 34 4 -3 -4 -4 -4 -4 -3 2 27 84 108 51 11 -1 -4 -4 -4 -4 -4 -4 -4 -4 -4 -4 -4 -4 -4 -4 -4 -4 -4 -4 -4 -4 1 25 87 99 35 4 -3 -4 -4 -4 -4 -4 -4 -4 -4 -4 -4 -4 -4 -4 -3 2 27 84 107 49 9 -2 -4 -4 -4 -4 -4 -4 -4 -4 -4 -4 -4 0 20 76 109 51 9 -2 -4 -4 -4 -4 -4 -3 3 29 84 113 89 109 
92 27 1 -3 -4 -4 -4 -4 -4 -4 -4 -4 -4 0 19 75 109 51 9 -2 -4 -4 -4 -4 -1 11 51 108 84 27 2 -3 -4 -4 -4 -4 -4 -4 -4 -4 -4 -4 -4 -4 -4 -4 -4 -4 -4 -4 -4 -4 0 19 75 109 51 9 -2 -4 -4 -4 -4 -4 -4 -4 -4 -4 -4 -4 -4 -4 -2 9 49 107 84 27 2 -3 -4 -4 -4 -4 -4 -4 -4 -4 -4 -4 -3 1 27 89 98 34 4 -3 -4 -4 -4 -4 -4 0 17 60 110 89 60 99 
92 27 1 -3 -4 -4 -4 -4 -4 -4 -4 -4 -4 -2 9 51 109 75 19 0 -4 -4 -4 -3 3 29 85 108 51 10 -1 -4 -4 -4 -4 -4 -4 -4 -4 -4 -4 -4 -4 -4 -4 -4 -4 -4 -4 -4 -4 -4 -2 10 51 110 76 20 1 -3 -3 -4 -4 -4 -4 -4 -4 -4 -4 -4 -4 -4 0 21 77 109 53 11 -1 -4 -4 -4 -4 -4 -4 -4 -4 -4 -4 -4 -3 4 34 98 89 27 1 -3 -4 -4 -4 -4 -1 9 46 102 102 52 42 94 
92 28 1 -3 -4 -4 -4 -4 -4 -4 -4 -4 -4 -3 4 34 98 88 25 1 -3 -4 -4 0 17 60 109 83 26 2 -3 -4 -4 -4 -4 -4 -4 -4 -4 -4 -4 -4 -4 -4 -4 -4 -4 -4 -4 -4 -4 -4 -3 5 37 102 92 31 7 2 1 0 -2 -3 -3 -3 -3 -4 -4 -4 -4 -3 3 33 95 95 33 3 -3 -4 -4 -4 -4 -4 -4 -4 -4 -4 -4 -4 -2 9 51 109 76 20 0 -4 -4 -4 -4 -3 3 29 84 109 61 23 33 93 
92 28 1 -3 -4 -4 -4 -4 -4 -4 -4 -4 -4 -3 2 28 93 93 28 2 -3 -4 -1 9 46 101 101 46 9 -2 -4 -4 -4 -4 -4 -4 -4 -4 -4 -4 -4 -4 -4 -4 -4 -4 -4 -4 -4 -4 -4 -3 0 8 40 108 112 56 33 28 25 19 9 4 2 1 1 1 0 -2 -2 0 12 53 109 77 21 0 -4 -4 -4 -4 -4 -4 -4 -4 -4 -4 -4 -4 0 20 76 109 51 9 -2 -4 -4 -4 -4 0 17 60 109 84 30 10 29 92 
92 28 1 -3 -4 -4 -4 -4 -4 -4 -4 -4 -4 -4 1 25 88 98 34 4 -3 -3 2 26 83 109 60 17 0 -4 -4 -4 -4 -4 -4 -4 -4 -4 -4 -4 -4 -4 -4 -4 -4 -4 -4 -4 -4 -4 -3 0 10 31 71 134 144 111 96 92 88 75 51 35 29 28 27 25 19 10 5 9 31 86 108 49 9 -2 -4 -4 -4 -4 -4 -4 -4 -4 -4 -4 -4 -3 1 27 89 98 34 4 -3 -4 -4 -4 -1 9 46 101 101 46 11 4 28 92 
92 28 1 -3 -4 -4 -4 -4 -4 -4 -4 -4 -4 -4 0 19 75 109 51 9 -1 -1 10 51 108 85 29 3 -3 -4 -4 -4 -4 -4 -4 -4 -4 -4 -4 -4 -4 -4 -4 -4 -4 -4 -4 -4 -4 -1 3 17 46 85 114 123 109 97 93 94 99 109 109 99 93 92 91 87 75 51 37 40 71 116 86 27 2 -3 -4 -4 -4 -4 -4 -4 -4 -4 -4 -4 -4 -3 4 34 98 89 27 1 -3 -4 -4 -3 3 29 84 109 60 17 1 2 28 92 
92 28 1 -3 -4 -4 -4 -4 -4 -4 -4 -4 -4 -4 -2 9 51 109 75 20 1 3 27 84 108 51 11 -1 -4 -4 -4 -4 -4 -4 -4 -4 -4 -4 -4 -4 -4 -4 -4 -4 -4 -4 -4 -3 0 9 29 60 102 109 86 54 35 29 28 29 35 51 75 87 91 92 93 99 109 110 101 107 134 131 61 13 -1 -4 -4 -4 -4 -4 -4 -4 -4 -4 -4 -4 -4 -2 9 51 109 76 20 0 -4 -4 -3 0 17 60 109 84 29 3 -2 2 28 92 
92 28 1 -3 -4 -4 -4 -4 -4 -4 -4 -4 -4 -4 -3 4 34 98 88 26 4 12 51 108 84 27 2 -3 -4 -4 -4 -4 -4 -4 -4 -4 -4 -4 -4 -4 -4 -4 -4 -4 -4 -4 -1 3 17 46 84 109 101 60 29 11 4 2 1 2 4 9 19 25 27 28 29 35 51 76 90 105 134 131 62 14 0 -4 -4 -4 -4 -4 -4 -4 -4 -4 -4 -4 -4 0 20 76 109 51 9 -2 -4 -4 -1 9 46 101 101 46 9 -1 -3 1 28 92 
92 28 1 -3 -4 -4 -4 -4 -4 -4 -4 -4 -4 -4 -3 2 28 93 93 30 10 30 85 108 51 10 -1 -4 -4 -4 -4 -4 -4 -4 -4 -4 -4 -4 -4 -4 -4 -4 -4 -4 -3 0 9 29 60 101 109 84 46 17 3 -1 -3 -3 -3 -3 -3 -2 0 1 1 1 2 4 9 20 27 39 71 115 87 30 4 -2 -4 -4 -4 -4 -4 -4 -4 -4 -4 -4 -3 1 27 89 98 34 4 -3 -4 -3 3 29 84 109 60 17 0 -3 -3 1 28 92 
92 28 1 -3 -4 -4 -4 -4 -4 -4 -4 -4 -4 -4 -4 1 25 88 99 39 25 61 109 83 26 2 -3 -4 -4 -4 -4 -4 -4 -4 -4 -4 -4 -4 -4 -4 -4 -4 -4 -3 1 15 46 84 109 101 60 29 9 0 -3 -4 -4 -4 -4 -4 -4 -4 -4 -4 -3 -3 -3 -3 -2 0 2 8 31 85 110 62 20 4 -1 -3 -3 -3 -3 -3 -3 -3 -3 -3 -2 4 35 98 89 27 1 -3 -3 0 17 60 109 84 29 3 -3 -4 -3 1 28 92 
92 28 1 -3 -4 -4 -4 -4 -4 -4 -4 -4 -4 -4 -4 0 19 76 111 64 60 104 102 46 9 -2 -4 -4 -4 -4 -4 -4 -4 -4 -4 -4 -4 -4 -4 -4 -4 -4 -1 4 19 55 101 109 84 46 17 3 -1 -4 -4 -4 -4 -4 -4 -4 -4 -4 -4 -4 -4 -4 -4 -4 -4 -4 -3 -1 10 46 103 108 63 30 11 4 2 1 1 1 1 1 1 2 4 16 55 112 78 21 0 -3 -1 10 46 101 101 46 9 -1 -4 -4 -3 1 28 92 
92 28 1 -3 -4 -4 -4 -4 -4 -4 -4 -4 -4 -4 -4 -2 9 51 112 102 103 111 60 17 0 -4 -4 -4 -4 -4 -4 -4 -4 -4 -4 -4 -4 -4 -4 -4 -3 0 10 29 61 104 104 61 29 10 0 -3 -4 -4 -4 -4 -4 -4 -4 -4 -4 -4 -4 -4 -4 -4 -4 -4 -4 -4 -4 -3 0 17 63 125 129 90 54 35 29 28 28 28 28 28 28 28 32 49 97 123 62 16 1 -1 4 29 84 109 60 17 0 -4 -4 -4 -3 1 28 92 
92 28 1 -3 -4 -4 -4 -4 -4 -4 -4 -4 -4 -4 -4 -3 4 34 103 130 127 86 29 3 -3 -4 -4 -4 -4 -4 -4 -4 -4 -4 -4 -4 -4 -4 -4 -1 3 17 46 84 109 101 55 19 4 -1 -4 -4 -4 -4 -4 -4 -4 -4 -4 -4 -4 -4 -4 -4 -4 -4 -4 -4 -4 -4 -4 -4 -2 6 39 112 148 127 112 99 93 92 92 92 92 92 92 93 96 109 141 140 77 34 12 7 19 61 109 84 29 3 -3 -4 -4 -4 -3 1 28 92 
92 28 1 -3 -4 -4 -4 -4 -4 -4 -4 -4 -4 -4 -4 -3 2 29 100 149 119 52 11 -1 -4 -4 -4 -4 -4 -4 -4 -4 -4 -4 -4 -4 -4 -3 0 9 29 60 101 109 84 46 15 1 -3 -4 -4 -4 -4 -4 -4 -4 -4 -4 -4 -4 -4 -4 -4 -4 -4 -4 -4 -4 -4 -4 -4 -4 -3 4 36 104 112 77 81 88 91 92 92 92 92 92 92 92 93 97 109 124 115 87 54 39 57 105 102 46 10 -1 -4 -4 -4 -4 -3 1 28 92 
92 28 1 -3 -4 -4 -4 -4 -4 -4 -4 -4 -4 -4 -4 -3 1 28 100 150 89 27 2 -3 -4 -4 -4 -4 -4 -4 -4 -4 -4 -4 -4 -4 -1 3 17 46 84 109 102 60 29 9 0 -3 -4 -4 -4 -4 -4 -4 -4 -4 -4 -4 -4 -4 -4 -4 -4 -4 -4 -4 -4 -4 -4 -4 -4 -4 -2 9 51 111 82 33 24 26 27 27 27 27 28 28 28 28 28 29 35 54 85 108 111 103 116 121 64 18 0 -3 -4 -4 -4 -4 -3 1 28 92 
92 28 1 -3 -4 -4 -4 -4 -4 -4 -4 -4 -4 -4 -4 -3 1 28 97 125 54 11 -1 -4 -4 -4 -4 -4 -4 -4 -4 -4 -4 -4 -3 0 9 29 60 102 110 85 47 17 4 -1 -3 -4 -4 -4 -4 -4 -4 -4 -4 -4 -4 -4 -4 -4 -4 -4 -4 -4 -4 -4 -4 -4 -4 -4 -4 -4 0 19 75 110 52 12 2 1 1 1 1 1 1 1 1 1 1 2 4 11 27 51 86 120 151 120 47 9 -1 -4 -4 -4 -4 -4 -3 1 28 92 
92 28 1 -3 -4 -4 -4 -4 -4 -4 -4 -4 -4 -4 -4 -3 1 28 94 102 35 4 -3 -4 -4 -4 -4 -4 -4 -4 -4 -3 -2 0 5 17 47 88 119 112 68 36 16 5 0 -2 -3 -4 -4 -4 -4 -4 -4 -4 -4 -4 -4 -4 -4 -4 -4 -4 -4 -4 -4 -4 -4 -4 -4 -4 -4 -4 1 25 88 99 35 4 -2 -3 -3 -3 -3 -3 -3 -3 -3 -3 -3 -3 -3 -1 2 11 29 63 117 124 65 18 0 -3 -4 -4 -4 -4 -3 1 28 92 
92 28 1 -3 -4 -4 -4 -4 -4 -4 -4 -4 -4 -4 -4 -3 2 29 94 93 29 2 -3 -4 -4 -4 -4 -4 -4 -3 -1 2 9 21 35 63 113 148 142 98 56 37 28 20 10 4 1 0 -2 -3 -3 -4 -4 -4 -4 -4 -4 -4 -4 -4 -4 -4 -4 -4 -4 -4 -4 -4 -4 -4 -4 -3 1 27 91 93 29 2 -3 -4 -4 -4 -4 -4 -4 -4 -4 -4 -4 -4 -4 -4 -3 -1 4 19 58 107 103 46 10 -1 -4 -4 -4 -4 -3 1 28 92 
92 28 1 -3 -4 -4 -4 -4 -4 -4 -4 -4 -4 -4 -4 -3 4 35 99 88 25 1 -3 -4 -4 -4 -4 -3 -1 2 10 26 49 77 96 114 121 118 123 119 102 94 88 76 51 34 27 20 9 4 2 1 0 -2 -3 -3 -4 -4 -4 -4 -4 -4 -4 -4 -4 -4 -4 -4 -4 -4 -4 -3 2 29 93 91 27 1 -3 -4 -4 -4 -4 -4 -4 -4 -4 -4 -4 -4 -4 -4 -4 -4 -2 2 19 61 109 84 29 3 -3 -4 -4 -4 -3 1 28 92 
92 28 1 -3 -4 -4 -4 -4 -4 -4 -4 -4 -4 -4 -4 -2 9 51 109 75 19 0 -4 -4 -3 -2 0 3 11 27 51 84 107 109 95 78 53 42 53 76 88 93 98 109 109 98 89 76 51 34 28 25 19 9 4 1 0 -2 -3 -3 -4 -4 -4 -4 -4 -4 -4 -4 -4 -4 -4 -3 4 34 99 88 25 1 -4 -4 -4 -4 -4 -4 -4 -4 -4 -4 -4 -4 -4 -4 -4 -4 -4 -2 4 29 84 109 60 17 0 -3 -4 -4 -3 1 28 92 
92 28 1 -3 -4 -4 -4 -4 -4 -4 -4 -4 -4 -4 -4 0 19 75 109 51 10 -1 -3 -1 2 9 21 33 53 84 108 108 84 53 33 21 10 6 10 19 25 28 34 51 76 89 98 109 109 98 93 88 75 51 34 27 20 9 4 2 1 0 -2 -3 -3 -4 -4 -4 -4 -4 -4 -2 9 51 109 75 19 0 -4 -4 -4 -4 -4 -4 -4 -4 -4 -4 -4 -4 -4 -4 -4 -4 -4 -4 -1 10 46 101 101 46 10 -1 -4 -4 -3 1 28 92 
92 28 1 -3 -4 -4 -4 -4 -4 -4 -4 -4 -4 -4 -3 1 25 88 99 35 5 0 2 10 26 49 77 95 109 107 84 51 27 11 3 0 -2 -2 -2 0 1 2 4 9 20 27 34 51 75 88 93 98 109 109 98 89 76 51 34 28 25 19 9 4 1 0 -2 -3 -3 -3 -3 0 20 76 109 51 9 -2 -4 -4 -4 -4 -4 -4 -4 -4 -4 -4 -4 -4 -4 -4 -4 -4 -4 -4 -4 0 17 60 109 84 29 4 -3 -4 -3 1 28 92 
92 28 1 -3 -4 -4 -4 -4 -4 -4 -4 -4 -4 -4 -3 2 29 93 94 32 9 12 27 51 84 107 109 95 77 49 26 10 2 -1 -3 -4 -4 -4 -4 -4 -4 -3 -3 -2 0 1 4 9 19 25 28 34 51 76 89 98 109 109 98 93 88 75 51 34 27 20 9 4 2 1 0 4 27 88 99 35 4 -3 -4 -4 -4 -4 -4 -4 -4 -4 -4 -4 -4 -4 -4 -4 -4 -4 -4 -4 -4 -3 3 29 84 109 61 19 1 -3 -3 1 28 92 
92 28 1 -3 -4 -4 -4 -4 -4 -4 -4 -4 -4 -4 -3 4 35 100 95 41 33 52 84 108 108 84 53 33 21 9 2 -1 -3 -4 -4 -4 -4 -4 -4 -4 -4 -4 -4 -4 -4 -3 -3 -2 0 1 2 4 9 20 27 34 51 75 88 93 98 109 109 98 89 76 51 34 28 25 20 16 35 95 94 29 2 -3 -4 -4 -4 -4 -4 -4 -4 -4 -4 -4 -4 -4 -4 -4 -4 -4 -4 -4 -4 -4 -1 9 46 101 104 55 15 0 -2 1 28 92 
92 28 1 -3 -4 -4 -4 -4 -4 -4 -4 -4 -4 -4 -1 11 54 120 107 76 89 108 108 84 51 27 11 3 0 -2 -3 -4 -4 -4 -4 -4 -4 -4 -4 -4 -4 -4 -4 -4 -4 -4 -4 -4 -4 -4 -3 -3 -2 0 1 4 9 19 25 28 34 51 76 89 98 109 109 98 93 88 76 57 64 111 95 28 1 -3 -4 -4 -4 -4 -4 -4 -4 -4 -4 -4 -4 -4 -4 -4 -4 -4 -4 -4 -4 -4 -4 0 15 55 104 101 46 10 0 2 28 92 
92 28 1 -3 -4 -4 -4 -4 -4 -4 -4 -4 -4 -3 2 27 90 149 134 118 108 84 51 27 10 2 -1 -3 -4 -4 -4 -4 -4 -4 -4 -4 -4 -4 -4 -4 -4 -4 -4 -4 -4 -4 -4 -4 -4 -4 -4 -4 -4 -4 -3 -3 -2 0 1 2 4 9 20 27 34 51 75 88 93 98 110 113 119 144 99 28 1 -3 -4 -4 -4 -4 -4 -4 -4 -4 -4 -4 -4 -4 -4 -4 -4 -4 -4 -4 -4 -4 -4 -3 1 19 61 109 84 29 5 3 28 92 
92 28 1 -3 -4 -4 -4 -4 -4 -4 -4 -4 -4 -1 11 52 118 131 103 78 49 26 10 2 -1 -3 -4 -4 -4 -4 -4 -4 -4 -4 -4 -4 -4 -4 -4 -4 -4 -4 -4 -4 -4 -4 -4 -4 -4 -4 -4 -4 -4 -4 -4 -4 -4 -4 -4 -3 -3 -2 0 1 4 9 19 25 28 35 52 80 109 143 99 28 1 -3 -4 -4 -4 -4 -4 -4 -4 -4 -4 -4 -4 -4 -4 -4 -4 -4 -4 -4 -4 -4 -4 -4 -3 4 29 84 109 61 20 8 29 92 
92 28 1 -3 -4 -4 -4 -4 -4 -4 -4 -4 -3 3 29 86 113 70 37 21 9 2 -1 -3 -4 -4 -4 -4 -4 -4 -4 -4 -4 -4 -4 -4 -4 -4 -4 -4 -4 -4 -4 -4 -4 -4 -4 -4 -4 -4 -4 -4 -4 -4 -4 -4 -4 -4 -4 -4 -4 -4 -4 -3 -3 -2 0 1 2 4 10 26 55 110 94 27 1 -3 -4 -4 -4 -4 -4 -4 -4 -4 -4 -4 -4 -4 -4 -4 -4 -4 -4 -4 -4 -4 -4 -4 -4 -1 9 46 101 104 56 22 32 93 
92 27 1 -3 -4 -4 -4 -4 -4 -4 -4 -4 0 17 60 109 85 31 7 1 -2 -3 -4 -4 -4 -4 -4 -4 -4 -4 -4 -4 -4 -4 -4 -4 -4 -4 -4 -4 -4 -4 -4 -4 -4 -4 -4 -4 -4 -4 -4 -4 -4 -4 -4 -4 -4 -4 -4 -4 -4 -4 -4 -4 -4 -4 -4 -3 -3 -3 -1 6 33 96 93 28 1 -3 -4 -4 -4 -4 -4 -4 -4 -4 -4 -4 -4 -4 -4 -4 -4 -4 -4 -4 -4 -4 -4 -4 -4 -4 0 15 55 104 101 52 42 94 
92 27 1 -3 -4 -4 -4 -4 -4 -4 -4 -1 10 46 102 102 46 10 -1 -3 -4 -4 -4 -4 -4 -4 -4 -4 -4 -4 -4 -4 -4 -4 -4 -4 -4 -4 -4 -4 -4 -4 -4 -4 -4 -4 -4 -4 -4 -4 -4 -4 -4 -4 -4 -4 -4 -4 -4 -4 -4 -4 -4 -4 -4 -4 -4 -4 -4 -4 -3 2 28 93 92 28 1 -3 -4 -4 -4 -4 -4 -4 -4 -4 -4 -4 -4 -4 -4 -4 -4 -4 -4 -4 -4 -4 -4 -4 -4 -4 -3 1 19 61 110 89 60 99 
93 27 1 -3 -4 -4 -4 -4 -4 -4 -2 4 29 84 109 60 17 0 -3 -4 -4 -4 -4 -4 -4 -4 -4 -4 -4 -4 -4 -4 -4 -4 -4 -4 -4 -4 -4 -4 -4 -4 -4 -4 -4 -4 -4 -4 -4 -4 -4 -4 -4 -4 -4 -4 -4 -4 -4 -4 -4 -4 -4 -4 -4 -4 -4 -4 -4 -4 -3 1 28 92 94 29 2 -3 -4 -4 -4 -4 -4 -4 -4 -4 -4 -4 -4 -4 -4 -4 -4 -4 -4 -4 -4 -4 -4 -4 -4 -4 -4 -3 4 29 84 113 89 109 
95 27 1 -3 -4 -4 -4 -4 -4 -3 1 19 61 110 85 30 4 -2 -4 -4 -4 -4 -4 -4 -4 -4 -4 -4 -4 -4 -4 -4 -4 -4 -4 -4 -4 -4 -4 -4 -4 -4 -4 -4 -4 -4 -4 -4 -4 -4 -4 -4 -4 -4 -4 -4 -4 -4 -4 -4 -4 -4 -4 -4 -4 -4 -4 -4 -4 -4 -3 2 28 91 101 37 6 -2 -4 -4 -4 -4 -4 -4 -4 -4 -4 -4 -4 -4 -4 -4 -4 -4 -4 -4 -4 -4 -4 -4 -4 -4 -4 -4 -1 10 46 104 124 130 
98 27 1 -3 -4 -4 -4 -4 -3 1 18 57 106 106 52 16 3 -1 -3 -3 -3 -3 -3 -3 -3 -3 -3 -4 -4 -4 -4 -4 -4 -4 -4 -4 -4 -4 -4 -4 -4 -4 -4 -4 -4 -4 -4 -4 -4 -4 -4 -4 -4 -4 -4 -4 -4 -4 -4 -4 -4 -4 -4 -4 -4 -4 -4 -4 -4 -3 -1 7 33 95 123 66 21 4 -1 -3 -4 -4 -4 -4 -4 -4 -4 -4 -4 -4 -4 -4 -4 -4 -4 -4 -4 -4 -4 -4 -4 -4 -4 -4 -4 0 17 61 122 149 
100 27 1 -3 -4 -4 -4 -3 1 18 57 112 125 85 47 30 20 9 4 2 1 1 1 1 1 1 1 1 0 -2 -3 -3 -3 -3 -3 -3 -3 -3 -4 -4 -4 -4 -4 -4 -4 -4 -4 -4 -4 -4 -4 -4 -4 -4 -4 -4 -4 -4 -4 -4 -4 -4 -4 -4 -4 -4 -4 -4 -3 0 9 29 61 115 151 119 63 29 11 2 -2 -4 -4 -4 -4 -4 -4 -4 -4 -4 -4 -4 -4 -4 -4 -4 -4 -4 -4 -4 -4 -4 -4 -4 -4 -3 3 29 90 150 
97 27 1 -3 -4 -4 -3 1 18 57 116 152 136 110 96 89 76 51 35 29 28 28 28 27 27 27 27 25 19 9 4 2 1 1 1 1 1 1 1 0 -2 -3 -3 -3 -3 -3 -3 -3 -3 -3 -4 -4 -4 -4 -4 -4 -4 -4 -4 -4 -4 -4 -4 -4 -4 -4 -3 -1 3 17 46 84 110 119 118 122 113 85 51 26 9 0 -3 -4 -4 -4 -4 -4 -4 -4 -4 -4 -4 -4 -4 -4 -4 -4 -4 -4 -4 -4 -4 -4 -4 -4 -1 11 54 125 
94 27 1 -3 -4 -3 1 18 56 106 122 110 99 94 94 99 109 109 99 93 92 92 92 92 92 92 91 87 75 51 35 29 28 28 28 27 27 27 25 19 9 4 2 1 1 1 1 1 1 1 1 0 -2 -3 -3 -3 -3 -3 -3 -3 -3 -4 -4 -4 -3 -1 2 11 29 60 101 109 86 55 43 55 85 108 108 83 46 17 3 -1 -3 -4 -4 -4 -4 -4 -4 -4 -4 -4 -4 -4 -4 -4 -4 -4 -4 -4 -4 -4 -4 -4 -3 4 35 102 
92 28 1 -3 -2 1 18 56 103 105 64 38 29 28 29 35 51 75 87 91 92 92 92 92 92 92 93 99 109 109 99 93 92 92 92 92 92 91 87 75 51 35 29 28 28 28 27 27 27 27 25 19 9 4 2 1 1 1 1 1 1 1 0 -1 0 9 27 51 85 109 101 60 29 12 6 11 27 51 85 109 101 60 29 11 2 -2 -4 -4 -4 -4 -4 -4 -4 -4 -4 -4 -4 -4 -4 -4 -4 -4 -4 -4 -4 -4 -3 2 29 94 
92 28 2 0 4 19 56 103 103 56 20 6 2 1 2 4 9 19 25 27 27 27 27 28 28 28 29 35 51 75 87 91 92 92 92 92 92 93 99 109 109 99 93 92 92 92 92 92 92 91 87 75 51 35 29 28 28 28 27 27 27 25 20 13 19 46 83 108 108 83 46 17 3 -1 -2 -1 2 11 29 60 101 109 85 51 26 9 0 -3 -4 -4 -4 -4 -4 -4 -4 -4 -4 -4 -4 -4 -4 -4 -4 -4 -4 -4 -3 1 28 92 
92 29 6 10 29 61 104 103 56 18 2 -2 -3 -3 -3 -3 -2 0 1 1 1 1 1 1 1 1 2 4 9 19 25 27 27 27 28 28 28 29 35 51 75 87 91 92 92 92 92 92 92 93 99 109 109 99 93 92 92 92 92 92 91 88 78 61 70 104 110 85 51 26 9 0 -3 -4 -4 -4 -3 -1 3 17 46 83 108 108 83 46 17 3 -1 -3 -4 -4 -4 -4 -4 -4 -4 -4 -4 -4 -4 -4 -4 -4 -4 -4 -3 1 28 92 
93 34 22 47 84 109 101 55 18 1 -3 -4 -4 -4 -4 -4 -4 -4 -4 -3 -3 -3 -3 -3 -3 -3 -3 -3 -2 0 1 1 1 1 1 1 1 2 4 9 19 25 27 27 27 27 28 28 28 29 35 51 75 87 91 92 92 92 92 92 94 100 117 132 133 110 62 29 11 2 -2 -4 -4 -4 -4 -4 -4 -4 -3 0 9 26 51 85 109 101 60 29 11 2 -2 -4 -4 -4 -4 -4 -4 -4 -4 -4 -4 -4 -4 -4 -4 -4 -3 1 28 92 
97 50 61 101 109 84 46 15 1 -3 -4 -4 -4 -4 -4 -4 -4 -4 -4 -4 -4 -4 -4 -4 -4 -4 -4 -4 -4 -4 -4 -3 -3 -3 -3 -3 -3 -3 -3 -2 0 1 1 1 1 1 1 1 1 2 4 9 19 25 27 27 27 28 28 28 30 39 73 134 133 66 21 4 -1 -3 -4 -4 -4 -4 -4 -4 -4 -4 -4 -4 -2 2 11 29 60 101 109 85 51 26 9 0 -3 -4 -4 -4 -4 -4 -4 -4 -4 -4 -4 -4 -4 -4 -3 1 27 92 
110 86 108 104 61 29 9 0 -3 -4 -4 -4 -4 -4 -4 -4 -4 -4 -4 -4 -4 -4 -4 -4 -4 -4 -4 -4 -4 -4 -4 -4 -4 -4 -4 -4 -4 -4 -4 -4 -4 -4 -3 -3 -3 -3 -3 -3 -3 -3 -3 -2 0 1 1 1 1 1 1 1 3 10 40 106 106 38 6 -2 -4 -4 -4 -4 -4 -4 -4 -4 -4 -4 -4 -4 -4 -3 -1 3 17 46 83 108 108 83 46 17 3 -1 -3 -4 -4 -4 -4 -4 -4 -4 -4 -4 -4 -4 -3 1 27 94 
136 126 106 56 19 4 -1 -4 -4 -4 -4 -4 -4 -4 -4 -4 -4 -4 -4 -4 -4 -4 -4 -4 -4 -4 -4 -4 -4 -4 -4 -4 -4 -4 -4 -4 -4 -4 -4 -4 -4 -4 -4 -4 -4 -4 -4 -4 -4 -4 -4 -4 -4 -4 -3 -3 -3 -3 -3 -3 -2 3 30 95 95 29 2 -3 -4 -4 -4 -4 -4 -4 -4 -4 -4 -4 -4 -4 -4 -4 -4 -3 0 9 26 51 85 109 101 60 29 11 2 -1 -3 -4 -4 -4 -4 -4 -4 -4 -4 -4 -3 1 27 97 
152 114 57 18 1 -2 -4 -4 -4 -4 -4 -4 -4 -4 -4 -4 -4 -4 -4 -4 -4 -4 -4 -4 -4 -4 -4 -4 -4 -4 -4 -4 -4 -4 -4 -4 -4 -4 -4 -4 -4 -4 -4 -4 -4 -4 -4 -4 -4 -4 -4 -4 -4 -4 -4 -4 -4 -4 -4 -4 -3 1 28 92 92 28 1 -3 -4 -4 -4 -4 -4 -4 -4 -4 -4 -4 -4 -4 -4 -4 -4 -4 -4 -2 2 11 29 60 101 109 85 51 27 10 2 -2 -4 -4 -4 -4 -4 -4 -4 -4 -3 1 27 100 
129 65 20 2 -3 -4 -4 -4 -4 -4 -4 -4 -4 -4 -4 -4 -4 -4 -4 -4 -4 -4 -4 -4 -4 -4 -4 -4 -4 -4 -4 -4 -4 -4 -4 -4 -4 -4 -4 -4 -4 -4 -4 -4 -4 -4 -4 -4 -4 -4 -4 -4 -4 -4 -4 -4 -4 -4 -4 -4 -3 1 28 92 92 28 1 -3 -4 -4 -4 -4 -4 -4 -4 -4 -4 -4 -4 -4 -4 -4 -4 -4 -4 -4 -3 -1 3 17 46 83 108 108 84 51 26 9 0 -3 -4 -4 -4 -4 -4 -4 -3 1 27 98 
104 38 6 -2 -4 -4 -4 -4 -4 -4 -4 -4 -4 -4 -4 -4 -4 -4 -4 -4 -4 -4 -4 -4 -4 -4 -4 -4 -4 -4 -4 -4 -4 -4 -4 -4 -4 -4 -4 -4 -4 -4 -4 -4 -4 -4 -4 -4 -4 -4 -4 -4 -4 -4 -4 -4 -4 -4 -4 -4 -3 1 28 92 92 28 1 -3 -4 -4 -4 -4 -4 -4 -4 -4 -4 -4 -4 -4 -4 -4 -4 -4 -4 -4 -4 -4 -3 0 9 26 51 84 108 108 83 46 17 3 -1 -3 -3 -4 -4 -4 -3 1 28 94 
94 29 2 -3 -4 -4 -4 -4 -4 -4 -4 -4 -4 -4 -4 -4 -4 -4 -4 -4 -4 -4 -4 -4 -4 -4 -4 -4 -4 -4 -4 -4 -4 -4 -4 -4 -4 -4 -4 -4 -4 -4 -4 -4 -4 -4 -4 -4 -4 -4 -4 -4 -4 -4 -4 -4 -4 -4 -4 -4 -3 1 28 92 92 28 1 -3 -4 -4 -4 -4 -4 -4 -4 -4 -4 -4 -4 -4 -4 -4 -4 -4 -4 -4 -4 -4 -4 -4 -2 2 10 27 51 85 110 102 60 29 11 4 1 0 -2 -3 -2 2 28 93 
92 28 1 -3 -4 -4 -4 -4 -4 -4 -4 -4 -4 -4 -4 -4 -4 -4 -4 -4 -4 -4 -4 -4 -4 -4 -4 -4 -4 -4 -4 -4 -4 -4 -4 -4 -4 -4 -4 -4 -4 -4 -4 -4 -4 -4 -4 -4 -4 -4 -4 -4 -4 -4 -4 -4 -4 -4 -4 -4 -3 1 28 92 92 28 1 -3 -4 -4 -4 -4 -4 -4 -4 -4 -4 -4 -4 -4 -4 -4 -4 -4 -4 -4 -4 -4 -4 -4 -4 -3 -1 2 12 31 63 107 115 90 54 35 27 20 9 4 2 6 30 93 
93 28 1 -3 -4 -4 -4 -4 -4 -4 -4 -4 -4 -4 -4 -4 -4 -4 -4 -4 -4 -4 -4 -4 -4 -4 -4 -4 -4 -4 -4 -4 -4 -4 -4 -4 -4 -4 -4 -4 -4 -4 -4 -4 -4 -4 -4 -4 -4 -4 -4 -4 -4 -4 -4 -4 -4 -4 -4 -4 -3 1 28 92 92 28 1 -3 -4 -4 -4 -4 -4 -4 -4 -4 -4 -4 -4 -4 -4 -4 -4 -4 -4 -4 -4 -4 -4 -4 -4 -4 -3 0 3 12 33 76 126 149 127 102 90 76 51 34 28 26 41 98 
96 28 2 -2 -3 -3 -3 -4 -4 -4 -4 -4 -4 -4 -4 -4 -4 -4 -4 -4 -4 -4 -4 -4 -4 -4 -4 -4 -4 -4 -4 -4 -4 -4 -4 -4 -4 -4 -4 -4 -4 -4 -4 -4 -4 -4 -4 -4 -4 -4 -4 -4 -4 -4 -4 -4 -4 -4 -4 -4 -3 1 28 92 92 28 1 -3 -4 -4 -4 -4 -4 -4 -4 -4 -4 -4 -4 -4 -4 -4 -4 -4 -4 -4 -4 -4 -4 -4 -3 -1 2 9 21 34 58 97 128 128 108 98 99 109 109 98 90 81 79 116 
103 34 8 2 1 1 1 1 0 -2 -3 -3 -3 -3 -3 -4 -4 -4 -4 -4 -4 -4 -4 -4 -4 -4 -4 -4 -4 -4 -4 -4 -4 -4 -4 -4 -4 -4 -4 -4 -4 -4 -4 -4 -4 -4 -4 -4 -4 -4 -4 -4 -4 -4 -4 -4 -4 -4 -4 -4 -3 1 28 92 92 28 1 -3 -4 -4 -4 -4 -4 -4 -4 -4 -4 -4 -4 -4 -4 -4 -4 -4 -4 -4 -4 -3 -2 0 3 11 27 49 77 95 110 109 86 54 35 31 35 51 76 89 98 113 128 148 
118 57 34 28 28 27 27 25 19 9 4 2 1 1 1 1 0 -2 -3 -3 -3 -3 -3 -3 -4 -4 -4 -4 -4 -4 -4 -4 -4 -4 -4 -4 -4 -4 -4 -4 -4 -4 -4 -4 -4 -4 -4 -4 -4 -4 -4 -4 -4 -4 -4 -4 -4 -4 -4 -4 -3 1 28 92 92 28 1 -3 -4 -4 -4 -4 -4 -4 -4 -4 -4 -4 -4 -4 -4 -4 -4 -4 -4 -3 -1 2 9 21 33 53 84 107 109 95 77 49 27 11 4 2 4 9 20 27 35 55 97 143 
146 113 96 93 92 92 91 87 75 51 35 29 28 27 27 25 19 9 4 2 1 1 1 1 1 0 -2 -3 -3 -3 -3 -3 -4 -4 -4 -4 -4 -4 -4 -4 -4 -4 -4 -4 -4 -4 -4 -4 -4 -4 -4 -4 -4 -4 -4 -4 -4 -4 -4 -4 -3 1 28 92 92 28 1 -3 -4 -4 -4 -4 -4 -4 -4 -4 -4 -4 -4 -4 -4 -4 -3 -2 0 3 11 27 49 77 95 109 107 84 53 33 21 9 2 -1 -3 -3 -3 -2 0 1 4 16 49 116 
144 113 96 93 92 92 93 99 109 109 99 93 92 92 91 87 75 51 35 29 28 28 27 27 25 19 9 4 2 1 1 1 1 0 -2 -3 -3 -3 -3 -3 -3 -4 -4 -4 -4 -4 -4 -4 -4 -4 -4 -4 -4 -4 -4 -4 -4 -4 -4 -4 -3 1 28 92 92 28 1 -3 -4 -4 -4 -4 -4 -4 -4 -4 -4 -4 -4 -4 -3 -1 2 9 21 33 53 84 107 109 95 77 49 27 11 3 0 -2 -3 -4 -4 -4 -4 -4 -4 -3 -2 4 32 103 
110 57 34 28 28 28 29 35 51 75 87 91 92 92 93 99 109 109 99 93 92 92 92 91 87 75 51 35 29 28 27 27 25 19 9 4 2 1 1 1 1 1 0 -2 -3 -3 -3 -3 -3 -4 -4 -4 -4 -4 -4 -4 -4 -4 -4 -4 -3 1 28 92 92 28 1 -3 -4 -4 -4 -4 -4 -4 -4 -4 -4 -4 -3 -1 2 10 26 49 77 95 109 107 84 53 33 21 9 2 -1 -3 -4 -4 -4 -4 -4 -4 -4 -4 -4 -4 -3 2 28 95 
96 34 8 2 1 1 2 4 9 19 25 27 27 28 29 35 51 75 87 91 92 92 92 93 99 109 109 99 93 92 92 91 87 75 51 35 29 28 28 27 27 25 19 9 4 2 1 1 1 1 0 -2 -3 -3 -3 -3 -3 -3 -4 -4 -3 1 28 92 92 28 1 -3 -4 -4 -4 -4 -4 -4 -4 -3 -2 0 3 11 27 51 84 107 109 95 77 49 27 11 3 0 -2 -3 -4 -4 -4 -4 -4 -4 -4 -4 -4 -4 -4 -4 -3 1 28 93 
93 28 2 -2 -3 -3 -3 -3 -2 0 1 1 1 1 2 4 9 19 25 27 27 28 28 29 35 51 75 87 91 92 92 93 99 109 109 99 93 92 92 92 91 87 75 51 35 29 28 27 27 25 19 9 4 2 1 1 1 1 1 0 -1 3 29 93 92 28 1 -3 -4 -4 -4 -4 -4 -3 -1 2 9 21 33 53 84 108 108 84 53 33 21 9 2 -1 -3 -4 -4 -4 -4 -4 -4 -4 -4 -4 -4 -4 -4 -4 -4 -4 -3 1 28 92 
92 28 1 -3 -4 -4 -4 -4 -4 -4 -4 -3 -3 -3 -3 -3 -2 0 1 1 1 1 1 2 4 9 19 25 27 27 28 29 35 51 75 87 91 92 92 92 93 99 109 109 99 93 92 92 91 87 75 51 35 29 28 28 27 27 25 19 10 10 34 96 95 29 2 -3 -4 -4 -3 -2 0 3 11 27 49 77 95 109 107 84 51 27 11 3 0 -2 -3 -4 -4 -4 -4 -4 -4 -4 -4 -4 -4 -4 -4 -4 -4 -4 -4 -4 -3 1 28 92 
92 28 1 -3 -4 -4 -4 -4 -4 -4 -4 -4 -4 -4 -4 -4 -4 -4 -4 -3 -3 -3 -3 -3 -3 -2 0 1 1 1 1 2 4 9 19 25 27 27 28 28 29 35 51 75 87 91 92 92 93 99 109 109 99 93 92 92 92 91 87 76 52 41 58 113 106 38 6 -1 -3 -1 2 9 21 33 53 84 107 109 95 77 49 26 10 2 -1 -3 -4 -4 -4 -4 -4 -4 -4 -4 -4 -4 -4 -4 -4 -4 -4 -4 -4 -4 -4 -4 -3 1 28 92 
92 28 1 -3 -4 -4 -4 -4 -4 -4 -4 -4 -4 -4 -4 -4 -4 -4 -4 -4 -4 -4 -4 -4 -4 -4 -4 -4 -3 -3 -3 -3 -3 -2 0 1 1 1 1 1 2 4 9 19 25 27 27 28 29 35 51 75 87 91 92 92 92 93 99 109 110 102 112 144 133 66 22 6 5 11 27 49 77 95 109 107 84 53 33 21 9 2 -1 -3 -4 -4 -4 -4 -4 -4 -4 -4 -4 -4 -4 -4 -4 -4 -4 -4 -4 -4 -4 -4 -4 -4 -3 1 28 92 
92 28 1 -3 -4 -4 -4 -4 -4 -4 -4 -4 -4 -4 -4 -4 -4 -4 -4 -4 -4 -4 -4 -4 -4 -4 -4 -4 -4 -4 -4 -4 -4 -4 -4 -4 -3 -3 -3 -3 -3 -3 -2 0 1 1 1 1 2 4 9 19 25 27 27 28 28 29 35 51 76 88 96 110 125 110 65 39 37 54 84 107 109 95 77 49 27 11 3 0 -2 -3 -4 -4 -4 -4 -4 -4 -4 -4 -4 -4 -4 -4 -4 -4 -4 -4 -4 -4 -4 -4 -4 -4 -4 -4 -3 1 28 92 
92 28 1 -3 -4 -4 -4 -4 -4 -4 -4 -4 -4 -4 -4 -4 -4 -4 -4 -4 -4 -4 -4 -4 -4 -4 -4 -4 -4 -4 -4 -4 -4 -4 -4 -4 -4 -4 -4 -4 -4 -4 -4 -4 -4 -3 -3 -3 -3 -3 -2 0 1 1 1 1 1 2 4 9 19 25 29 38 65 110 126 112 104 111 108 84 53 33 21 9 2 -1 -3 -4 -4 -4 -4 -4 -4 -4 -4 -4 -4 -4 -4 -4 -4 -4 -4 -4 -4 -4 -4 -4 -4 -4 -4 -4 -4 -4 -3 1 28 92 
92 28 1 -3 -4 -4 -4 -4 -4 -4 -4 -4 -4 -4 -4 -4 -4 -4 -4 -4 -4 -4 -4 -4 -4 -4 -4 -4 -4 -4 -4 -4 -4 -4 -4 -4 -4 -4 -4 -4 -4 -4 -4 -4 -4 -4 -4 -4 -4 -4 -4 -4 -4 -3 -3 -3 -3 -3 -3 -2 0 1 2 6 21 66 133 144 107 79 49 27 11 3 0 -2 -3 -4 -4 -4 -4 -4 -4 -4 -4 -4 -4 -4 -4 -4 -4 -4 -4 -4 -4 -4 -4 -4 -4 -4 -4 -4 -4 -4 -4 -4 -3 1 28 92 
92 28 1 -3 -4 -4 -4 -4 -4 -4 -4 -4 -4 -4 -4 -4 -4 -4 -4 -4 -4 -4 -4 -4 -4 -4 -4 -4 -4 -4 -4 -4 -4 -4 -4 -4 -4 -4 -4 -4 -4 -4 -4 -4 -4 -4 -4 -4 -4 -4 -4 -4 -4 -4 -4 -4 -4 -4 -4 -4 -4 -3 -3 -1 6 38 106 112 55 26 10 2 -1 -3 -3 -4 -4 -4 -4 -4 -4 -4 -4 -4 -4 -4 -4 -4 -4 -4 -4 -4 -4 -4 -4 -4 -4 -4 -4 -4 -4 -4 -4 -4 -4 -4 -3 1 28 92 
93 28 2 -2 -3 -3 -3 -3 -3 -3 -3 -3 -3 -3 -3 -3 -3 -3 -3 -3 -3 -3 -3 -3 -3 -3 -3 -3 -3 -3 -3 -3 -3 -3 -3 -3 -3 -3 -3 -3 -3 -3 -3 -3 -3 -3 -3 -3 -3 -3 -3 -3 -3 -3 -3 -3 -3 -3 -3 -3 -3 -3 -3 -2 3 30 96 97 34 7 0 -2 -3 -3 -3 -3 -3 -3 -3 -3 -3 -3 -3 -3 -3 -3 -3 -3 -3 -3 -3 -3 -3 -3 -3 -3 -3 -3 -3 -3 -3 -3 -3 -3 -3 -3 -2 2 28 93 
96 34 8 2 1 1 1 1 1 1 1 1 1 1 1 1 1 1 1 1 1 1 1 1 1 1 1 1 1 1 1 1 1 1 1 1 1 1 1 1 1 1 1 1 1 1 1 1 1 1 1 1 1 1 1 1 1 1 1 1 1 1 1 2 8 34 97 97 35 9 3 2 1 1 1 1 1 1 1 1 1 1 1 1 1 1 1 1 1 1 1 1 1 1 1 1 1 1 1 1 1 1 1 1 1 1 2 8 34 96 
113 57 34 28 28 28 28 28 28 28 28 28 28 28 28 28 28 28 28 28 28 28 28 28 28 28 28 28 28 27 27 27 27 27 27 27 27 27 28 28 28 28 28 28 28 28 27 27 27 28 28 27 27 27 28 28 28 28 28 28 28 28 28 28 34 57 113 113 57 34 28 28 28 28 28 28 28 28 28 28 28 28 28 28 28 28 28 28 27 27 27 27 27 27 27 27 27 28 28 28 27 27 27 27 27 28 28 34 57 113 
153 113 96 93 92 92 92 92 92 92 92 92 92 92 92 92 92 92 92 92 92 92 92 92 92 92 92 92 92 92 92 93 97 100 98 94 92 92 92 92 92 92 92 92 92 92 92 93 95 99 99 95 93 92 92 92 92 92 92 92 92 92 92 93 96 110 143 143 110 96 93 92 92 92 92 92 92 92 92 92 92 92 92 92 92 92 92 92 92 92 93 96 100 98 94 92 92 92 92 92 92 92 93 96 100 98 95 97 113 153 
