P2
110 110
255
85 45 43 43 43 43 43 43 43 43 43 43 43 43 43 43 43 43 43 43 43 43 43 43 43 43 43 43 43 43 43 43 53 113 80 45 43 43 43 43 43 43 43 43 43 43 43 43 45 84 84 45 43 43 43 43 43 43 43 43 43 43 43 43 43 43 43 43 43 43 43 43 43 43 43 43 43 43 43 43 43 43 43 43 43 43 43 43 43 43 43 51 112 80 45 43 43 43 43 43 43 43 43 50 112 80 45 43 45 85 
45 -2 -5 -5 -5 -5 -5 -5 -5 -5 -5 -5 -5 -5 -5 -5 -5 -5 -5 -5 -5 -5 -5 -5 -5 -5 -5 -5 -5 -5 -5 3 74 72 2 -5 -5 -5 -5 -5 -5 -5 -5 -5 -5 -5 -5 -5 -2 45 45 -2 -5 -5 -5 -5 -5 -5 -5 -5 -5 -5 -5 -5 -5 -5 -5 -5 -5 -5 -5 -5 -5 -5 -5 -5 -5 -5 -5 -5 -5 -5 -5 -5 -5 -5 -5 -5 -5 -5 -2 43 75 3 -5 -5 -5 -5 -5 -5 -5 -5 -2 41 76 3 -5 -5 -2 45 
43 -5 -8 -8 -8 -8 -8 -8 -8 -8 -8 -8 -8 -8 -8 -8 -8 -8 -8 -8 -8 -8 -8 -8 -8 -8 -8 -8 -8 -8 -5 40 75 2 -8 -8 -8 -8 -8 -8 -8 -8 -8 -8 -8 -8 -8 -8 -5 45 43 -5 -8 -8 -8 -8 -8 -8 -8 -8 -8 -8 -8 -8 -8 -8 -8 -8 -8 -8 -8 -8 -8 -8 -8 -8 -8 -8 -8 -8 -8 -8 -8 -8 -8 -8 -8 -8 -8 -8 0 75 40 -5 -8 -8 -8 -8 -8 -8 -8 -8 -5 42 45 -5 -8 -8 -5 43 
43 -5 -8 -9 -9 -9 -9 -9 -9 -9 -9 -9 -9 -9 -9 -9 -9 -9 -9 -9 -9 -9 -9 -9 -9 -9 -9 -9 -9 -8 2 75 40 -5 -8 -9 -9 -9 -9 -9 -9 -9 -9 -9 -9 -9 -9 -8 0 80 43 -5 -8 -9 -9 -9 -9 -9 -9 -9 -9 -9 -9 -9 -9 -9 -9 -9 -9 -9 -9 -9 -9 -9 -9 -9 -9 -9 -9 -9 -9 -9 -9 -9 -9 -9 -9 -9 -8 -5 38 75 0 -8 -9 -9 -9 -9 -9 -9 -9 -8 -5 45 42 -5 -8 -8 -5 43 
43 -5 -8 -9 -9 -9 -9 -9 -9 -9 -9 -9 -9 -9 -9 -9 -9 -9 -9 -9 -9 -9 -9 -9 -9 -9 -9 -9 -8 0 71 71 0 -8 -9 -9 -9 -9 -9 -9 -9 -9 -9 -9 -9 -9 -8 -5 40 115 43 -5 -8 -9 -9 -9 -9 -9 -9 -9 -9 -9 -9 -9 -9 -9 -9 -9 -9 -9 -9 -9 -9 -9 -9 -9 -9 -9 -9 -9 -9 -9 -9 -9 -9 -9 -9 -9 -8 -5 45 45 -5 -8 -9 -9 -9 -9 -9 -9 -9 -8 0 75 38 -5 -8 -8 -5 43 
43 -5 -8 -9 -9 -9 -9 -9 -9 -9 -9 -9 -9 -9 -9 -9 -9 -9 -9 -9 -9 -9 -9 -9 -9 -9 -9 -8 -5 40 75 2 -8 -9 -9 -9 -9 -9 -9 -9 -9 -9 -9 -9 -9 -9 -8 0 75 86 43 -5 -8 -9 -9 -9 -9 -9 -9 -9 -9 -9 -9 -9 -9 -9 -9 -9 -9 -9 -9 -9 -9 -9 -9 -9 -9 -9 -9 -9 -9 -9 -9 -9 -9 -9 -9 -9 -8 0 75 38 -5 -8 -9 -9 -9 -9 -9 -9 -8 -5 38 75 0 -8 -9 -8 -5 43 
43 -5 -8 -9 -9 -9 -9 -9 -9 -9 -9 -9 -9 -9 -9 -9 -9 -9 -9 -9 -9 -9 -9 -9 -9 -9 -9 -8 2 75 40 -5 -8 -9 -9 -9 -9 -9 -9 -9 -9 -9 -9 -9 -9 -8 -5 40 77 51 43 -5 -8 -9 -9 -9 -9 -9 -9 -9 -9 -9 -9 -9 -9 -9 -9 -9 -9 -9 -9 -9 -9 -9 -9 -9 -9 -9 -9 -9 -9 -9 -9 -9 -9 -9 -9 -8 -5 40 74 0 -8 -9 -9 -9 -9 -9 -9 -9 -8 -5 42 45 -5 -8 -9 -8 -5 43 
43 -5 -8 -9 -9 -9 -9 -9 -9 -9 -9 -9 -9 -9 -9 -9 -9 -9 -9 -9 -9 -9 -9 -9 -9 -9 -8 0 71 71 0 -8 -9 -9 -9 -9 -9 -9 -9 -9 -9 -9 -9 -9 -9 -8 0 74 43 45 45 -5 -8 -9 -9 -9 -9 -9 -9 -9 -9 -9 -9 -9 -9 -9 -9 -9 -9 -9 -9 -9 -9 -9 -9 -9 -9 -9 -9 -9 -9 -9 -9 -9 -9 -9 -9 -8 0 74 40 -5 -8 -9 -9 -9 -9 -9 -9 -9 -8 -5 45 42 -5 -8 -9 -8 -5 43 
43 -5 -8 -9 -9 -9 -9 -9 -9 -9 -9 -9 -9 -9 -9 -9 -9 -9 -9 -9 -9 -9 -9 -9 -9 -8 -5 40 75 2 -8 -9 -9 -9 -9 -9 -9 -9 -9 -9 -9 -9 -9 -9 -8 -5 40 75 3 38 75 0 -8 -9 -9 -9 -9 -9 -9 -9 -9 -9 -9 -9 -9 -9 -9 -9 -9 -9 -9 -9 -9 -9 -9 -9 -9 -9 -9 -9 -9 -9 -9 -9 -9 -9 -8 -5 38 75 0 -8 -9 -9 -9 -9 -9 -9 -9 -9 -8 0 75 38 -5 -8 -9 -8 -5 43 
43 -5 -8 -9 -9 -9 -9 -9 -9 -9 -9 -9 -9 -9 -9 -9 -9 -9 -9 -9 -9 -9 -9 -9 -9 -8 2 75 40 -5 -8 -9 -9 -9 -9 -9 -9 -9 -9 -9 -9 -9 -9 -9 -8 2 75 40 -5 0 75 38 -5 -8 -9 -9 -9 -9 -9 -9 -9 -9 -9 -9 -9 -9 -9 -9 -9 -9 -9 -9 -9 -9 -9 -9 -9 -9 -9 -9 -9 -9 -9 -9 -9 -9 -8 -5 45 45 -5 -8 -9 -9 -9 -9 -9 -9 -9 -8 -5 38 75 0 -8 -9 -9 -8 -5 43 
43 -5 -8 -9 -9 -9 -9 -9 -9 -9 -9 -9 -9 -9 -9 -9 -9 -9 -9 -9 -9 -9 -9 -9 -8 0 71 71 0 -8 -9 -9 -9 -9 -9 -9 -9 -9 -9 -9 -9 -9 -9 -8 0 71 71 0 -8 -5 45 42 -5 -8 -9 -9 -9 -9 -9 -9 -9 -9 -9 -9 -9 -9 -9 -9 -9 -9 -9 -9 -9 -9 -9 -9 -9 -9 -9 -9 -9 -9 -9 -9 -9 -9 -8 0 75 38 -5 -8 -9 -9 -9 -9 -9 -9 -9 -8 -5 42 45 -5 -8 -9 -9 -8 -5 43 
43 -5 -8 -9 -9 -9 -9 -9 -9 -9 -9 -9 -9 -9 -9 -9 -9 -9 -9 -9 -9 -9 -9 -8 -5 40 75 2 -8 -9 -9 -9 -9 -9 -9 -9 -9 -9 -9 -9 -9 -9 -8 -5 40 75 2 -8 -8 -5 43 42 -5 -8 -9 -9 -9 -9 -9 -9 -9 -9 -9 -9 -9 -9 -9 -9 -9 -9 -9 -9 -9 -9 -9 -9 -9 -9 -9 -9 -9 -9 -9 -9 -9 -8 -5 40 74 0 -8 -9 -9 -9 -9 -9 -9 -9 -9 -8 -5 45 42 -5 -8 -9 -9 -8 -5 43 
43 -5 -8 -9 -9 -9 -9 -9 -9 -9 -9 -9 -9 -9 -9 -9 -9 -9 -9 -9 -9 -9 -9 -8 2 75 40 -5 -8 -9 -9 -9 -9 -9 -9 -9 -9 -9 -9 -9 -9 -9 -8 0 74 40 -5 -8 -8 -5 43 43 -5 -8 -9 -9 -9 -9 -9 -9 -9 -9 -9 -9 -9 -9 -9 -9 -9 -9 -9 -9 -9 -9 -9 -9 -9 -9 -9 -9 -9 -9 -9 -9 -9 -8 0 74 40 -5 -8 -9 -9 -9 -9 -9 -9 -9 -9 -8 0 75 38 -5 -8 -9 -9 -8 -5 43 
45 -5 -8 -9 -9 -9 -9 -9 -9 -9 -9 -9 -9 -9 -9 -9 -9 -9 -9 -9 -9 -9 -8 0 71 71 0 -8 -9 -9 -9 -9 -9 -9 -9 -9 -9 -9 -9 -9 -9 -8 -5 40 74 0 -8 -9 -8 -5 42 43 -5 -8 -9 -9 -9 -9 -9 -9 -9 -9 -9 -9 -9 -9 -9 -9 -9 -9 -9 -9 -9 -9 -9 -9 -9 -9 -9 -9 -9 -9 -9 -9 -8 -5 38 75 0 -8 -9 -9 -9 -9 -9 -9 -9 -9 -8 -5 38 75 0 -8 -9 -9 -9 -8 -5 43 
80 2 -8 -9 -9 -9 -9 -9 -9 -9 -9 -9 -9 -9 -9 -9 -9 -9 -9 -9 -9 -8 -5 40 75 2 -8 -9 -9 -9 -9 -9 -9 -9 -9 -9 -9 -9 -9 -9 -9 -8 0 74 40 -5 -8 -9 -8 -5 42 45 -5 -8 -9 -9 -9 -9 -9 -9 -9 -9 -9 -9 -9 -9 -9 -9 -9 -9 -9 -9 -9 -9 -9 -9 -9 -9 -9 -9 -9 -9 -9 -9 -8 -5 45 45 -5 -8 -9 -9 -9 -9 -9 -9 -9 -9 -8 -5 42 45 -5 -8 -9 -9 -9 -8 -5 43 
113 72 2 -8 -9 -9 -9 -9 -9 -9 -9 -9 -9 -9 -9 -9 -9 -9 -9 -9 -9 -8 2 75 40 -5 -8 -9 -9 -9 -9 -9 -9 -9 -9 -9 -9 -9 -9 -9 -8 -5 40 74 0 -8 -9 -9 -8 -5 38 75 0 -8 -9 -9 -9 -9 -9 -9 -9 -9 -9 -9 -9 -9 -9 -9 -9 -9 -9 -9 -9 -9 -9 -9 -9 -9 -9 -9 -9 -9 -9 -9 -8 0 75 38 -5 -8 -9 -9 -9 -9 -9 -9 -9 -9 -8 -5 45 42 -5 -8 -9 -9 -9 -8 -5 43 
53 74 71 2 -8 -9 -9 -9 -9 -9 -9 -9 -9 -9 -9 -9 -9 -9 -9 -9 -8 0 71 71 0 -8 -9 -9 -9 -9 -9 -9 -9 -9 -9 -9 -9 -9 -9 -9 -8 2 75 40 -5 -8 -9 -9 -9 -8 0 75 38 -5 -8 -9 -9 -9 -9 -9 -9 -9 -9 -9 -9 -9 -9 -9 -9 -9 -9 -9 -9 -9 -9 -9 -9 -9 -9 -9 -9 -9 -9 -8 -5 40 74 0 -8 -9 -9 -9 -9 -9 -9 -9 -9 -9 -8 0 75 38 -5 -8 -9 -9 -9 -8 -5 43 
43 5 71 71 0 -8 -9 -9 -9 -9 -9 -9 -9 -9 -9 -9 -9 -9 -9 -8 -5 40 75 2 -8 -9 -9 -9 -9 -9 -9 -9 -9 -9 -9 -9 -9 -9 -9 -8 0 71 71 0 -8 -9 -9 -9 -9 -8 -5 45 42 -5 -8 -9 -9 -9 -9 -9 -9 -9 -9 -9 -9 -9 -9 -9 -9 -9 -9 -9 -9 -9 -9 -9 -9 -9 -9 -9 -9 -9 -9 -8 0 74 40 -5 -8 -9 -9 -9 -9 -9 -9 -9 -9 -8 -5 38 75 0 -8 -9 -9 -9 -9 -8 -5 43 
43 -4 2 75 40 -5 -8 -9 -9 -9 -9 -9 -9 -9 -9 -9 -9 -9 -9 -8 2 75 40 -5 -8 -9 -9 -9 -9 -9 -9 -9 -9 -9 -9 -9 -9 -9 -8 -5 40 75 2 -8 -9 -9 -9 -9 -9 -8 -5 43 42 -5 -8 -9 -9 -9 -9 -9 -9 -9 -9 -9 -9 -9 -9 -9 -9 -9 -9 -9 -9 -9 -9 -9 -9 -9 -9 -9 -9 -9 -8 -5 38 75 0 -8 -9 -9 -9 -9 -9 -9 -9 -9 -9 -8 -5 42 45 -5 -8 -9 -9 -9 -9 -8 -5 43 
43 -5 -5 40 75 2 -8 -9 -9 -9 -9 -9 -9 -9 -9 -9 -9 -9 -8 0 71 71 0 -8 -9 -9 -9 -9 -9 -9 -9 -9 -9 -9 -9 -9 -9 -9 -8 0 74 40 -5 -8 -9 -9 -9 -9 -9 -8 -5 43 43 -5 -8 -9 -9 -9 -9 -9 -9 -9 -9 -9 -9 -9 -9 -9 -9 -9 -9 -9 -9 -9 -9 -9 -9 -9 -9 -9 -9 -9 -8 -5 45 45 -5 -8 -9 -9 -9 -9 -9 -9 -9 -9 -9 -8 -5 45 42 -5 -8 -9 -9 -9 -9 -8 -5 43 
43 -5 -8 0 71 71 2 -8 -9 -9 -9 -9 -9 -9 -9 -9 -9 -8 -5 40 75 2 -8 -9 -9 -9 -9 -9 -9 -9 -9 -9 -9 -9 -9 -9 -9 -8 -5 40 74 0 -8 -9 -9 -9 -9 -9 -9 -8 -5 42 43 -5 -8 -9 -9 -9 -9 -9 -9 -9 -9 -9 -9 -9 -9 -9 -9 -9 -9 -9 -9 -9 -9 -9 -9 -9 -9 -9 -9 -9 -8 0 75 38 -5 -8 -9 -9 -9 -9 -9 -9 -9 -9 -9 -8 0 75 38 -5 -8 -9 -9 -9 -9 -8 -5 43 
43 -5 -8 -8 2 71 71 2 -8 -9 -9 -9 -9 -9 -9 -9 -9 -8 2 75 40 -5 -8 -9 -9 -9 -9 -9 -9 -9 -9 -9 -9 -9 -9 -9 -9 -8 0 74 40 -5 -8 -9 -9 -9 -9 -9 -9 -8 -5 42 45 -5 -8 -9 -9 -9 -9 -9 -9 -9 -9 -9 -9 -9 -9 -9 -9 -9 -9 -9 -9 -9 -9 -9 -9 -9 -9 -9 -9 -8 -5 40 74 0 -8 -9 -9 -9 -9 -9 -9 -9 -9 -9 -8 -5 38 75 0 -8 -9 -9 -9 -9 -9 -8 -5 43 
43 -5 -8 -9 -8 2 71 71 2 -8 -9 -9 -9 -9 -9 -9 -8 0 71 71 0 -8 -9 -9 -9 -9 -9 -9 -9 -9 -9 -9 -9 -9 -9 -9 -8 -5 40 74 0 -8 -9 -9 -9 -9 -9 -9 -9 -8 -5 38 75 0 -8 -9 -9 -9 -9 -9 -9 -9 -9 -9 -9 -9 -9 -9 -9 -9 -9 -9 -9 -9 -9 -9 -9 -9 -9 -9 -9 -8 0 74 40 -5 -8 -9 -9 -9 -9 -9 -9 -9 -9 -9 -8 -5 42 45 -5 -8 -9 -9 -9 -9 -9 -8 -5 43 
43 -5 -8 -9 -9 -8 2 71 71 2 -8 -9 -9 -9 -9 -8 -5 40 75 2 -8 -9 -9 -9 -9 -9 -9 -9 -9 -9 -9 -9 -9 -9 -9 -9 -8 2 75 40 -5 -8 -9 -9 -9 -9 -9 -9 -9 -9 -8 0 75 38 -5 -8 -9 -9 -9 -9 -9 -9 -9 -9 -9 -9 -9 -9 -9 -9 -9 -9 -9 -9 -9 -9 -9 -9 -9 -9 -8 -5 38 75 0 -8 -9 -9 -9 -9 -9 -9 -9 -9 -9 -9 -8 -5 45 42 -5 -8 -9 -9 -9 -9 -9 -8 -5 43 
43 -5 -8 -9 -9 -9 -8 2 71 71 2 -8 -9 -9 -9 -8 2 75 40 -5 -8 -9 -9 -9 -9 -9 -9 -9 -9 -9 -9 -9 -9 -9 -9 -8 0 71 71 0 -8 -9 -9 -9 -9 -9 -9 -9 -9 -9 -8 -5 45 42 -5 -8 -9 -9 -9 -9 -9 -9 -9 -9 -9 -9 -9 -9 -9 -9 -9 -9 -9 -9 -9 -9 -9 -9 -9 -9 -8 -5 45 45 -5 -8 -9 -9 -9 -9 -9 -9 -9 -9 -9 -9 -8 0 75 38 -5 -8 -9 -9 -9 -9 -9 -8 -5 43 
43 -5 -8 -9 -9 -9 -9 -8 2 71 71 2 -8 -9 -8 0 71 71 0 -8 -9 -9 -9 -9 -9 -9 -9 -9 -9 -9 -9 -9 -9 -9 -8 -5 40 75 2 -8 -9 -9 -9 -9 -9 -9 -9 -9 -9 -9 -8 -5 43 43 -5 -8 -9 -9 -9 -9 -9 -9 -9 -9 -9 -9 -9 -9 -9 -9 -9 -9 -9 -9 -9 -9 -9 -9 -9 -9 -8 0 75 38 -5 -8 -9 -9 -9 -9 -9 -9 -9 -9 -9 -8 -5 38 75 0 -8 -9 -9 -9 -9 -9 -9 -8 -5 43 
43 -5 -8 -9 -9 -9 -9 -9 -8 2 71 71 2 -8 -5 40 75 2 -8 -9 -9 -9 -9 -9 -9 -9 -9 -9 -9 -9 -9 -9 -9 -9 -8 0 74 40 -5 -8 -9 -9 -9 -9 -9 -9 -9 -9 -9 -9 -8 -5 43 43 -5 -8 -9 -9 -9 -9 -9 -9 -9 -9 -9 -9 -9 -9 -9 -9 -9 -9 -9 -9 -9 -9 -9 -9 -9 -8 -5 40 74 0 -8 -9 -9 -9 -9 -9 -9 -9 -9 -9 -9 -8 -5 42 45 -5 -8 -9 -9 -9 -9 -9 -9 -8 -5 43 
43 -5 -8 -9 -9 -9 -9 -9 -9 -8 2 71 71 3 3 75 40 -5 -8 -9 -9 -9 -9 -9 -9 -9 -9 -9 -9 -9 -9 -9 -9 -8 -5 40 74 0 -8 -9 -9 -9 -9 -9 -9 -9 -9 -9 -9 -9 -8 -5 42 45 -5 -8 -9 -9 -9 -9 -9 -9 -9 -9 -9 -9 -9 -9 -9 -9 -9 -9 -9 -9 -9 -9 -9 -9 -9 -8 0 74 40 -5 -8 -9 -9 -9 -9 -9 -9 -9 -9 -9 -9 -8 -5 45 42 -5 -8 -9 -9 -9 -9 -9 -9 -8 -5 43 
43 -5 -8 -9 -9 -9 -9 -9 -9 -9 -8 2 71 78 78 71 0 -8 -9 -9 -9 -9 -9 -9 -9 -9 -9 -9 -9 -9 -9 -9 -9 -8 0 74 40 -5 -8 -9 -9 -9 -9 -9 -9 -9 -9 -9 -9 -9 -8 -5 38 75 0 -8 -9 -9 -9 -9 -9 -9 -9 -9 -9 -9 -9 -9 -9 -9 -9 -9 -9 -9 -9 -9 -9 -9 -8 -5 38 75 0 -8 -9 -9 -9 -9 -9 -9 -9 -9 -9 -9 -9 -8 0 75 38 -5 -8 -9 -9 -9 -9 -9 -9 -8 -5 43 
43 -5 -8 -9 -9 -9 -9 -9 -9 -9 -9 -8 2 80 80 2 -8 -9 -9 -9 -9 -9 -9 -9 -9 -9 -9 -9 -9 -9 -9 -9 -8 -5 40 74 0 -8 -9 -9 -9 -9 -9 -9 -9 -9 -9 -9 -9 -9 -9 -8 0 75 38 -5 -8 -9 -9 -9 -9 -9 -9 -9 -9 -9 -9 -9 -9 -9 -9 -9 -9 -9 -9 -9 -9 -9 -8 -5 45 45 -5 -8 -9 -9 -9 -9 -9 -9 -9 -9 -9 -9 -8 -5 38 75 0 -8 -9 -9 -9 -9 -9 -9 -9 -8 -5 43 
43 -5 -8 -9 -9 -9 -9 -9 -9 -9 -9 -8 -5 45 45 -5 -8 -9 -9 -9 -9 -9 -9 -9 -9 -9 -9 -9 -9 -9 -9 -9 -8 2 75 40 -5 -8 -9 -9 -9 -9 -9 -9 -9 -9 -9 -9 -9 -9 -9 -8 -5 45 42 -5 -8 -9 -9 -9 -9 -9 -9 -9 -9 -9 -9 -9 -9 -9 -9 -9 -9 -9 -9 -9 -9 -9 -8 0 75 38 -5 -8 -9 -9 -9 -9 -9 -9 -9 -9 -9 -9 -8 -5 42 45 -5 -8 -9 -9 -9 -9 -9 -9 -9 -8 -5 43 
43 -5 -8 -9 -9 -9 -9 -9 -9 -9 -9 -8 -5 42 45 -5 -8 -9 -9 -9 -9 -9 -9 -9 -9 -9 -9 -9 -9 -9 -9 -8 0 71 71 0 -8 -9 -9 -9 -9 -9 -9 -9 -9 -9 -9 -9 -9 -9 -9 -8 -5 43 42 -5 -8 -9 -9 -9 -9 -9 -9 -9 -9 -9 -9 -9 -9 -9 -9 -9 -9 -9 -9 -9 -9 -8 -5 40 74 0 -8 -9 -9 -9 -9 -9 -9 -9 -9 -9 -9 -9 -8 -5 45 42 -5 -8 -9 -9 -9 -9 -9 -9 -9 -8 -5 43 
43 -5 -8 -9 -9 -9 -9 -9 -9 -9 -9 -8 -5 38 75 0 -8 -9 -9 -9 -9 -9 -9 -9 -9 -9 -9 -9 -9 -9 -8 -5 40 75 2 -8 -9 -9 -9 -9 -9 -9 -9 -9 -9 -9 -9 -9 -9 -9 -9 -8 -5 43 43 -5 -8 -9 -9 -9 -9 -9 -9 -9 -9 -9 -9 -9 -9 -9 -9 -9 -9 -9 -9 -9 -9 -8 0 74 40 -5 -8 -9 -9 -9 -9 -9 -9 -9 -9 -9 -9 -9 -8 0 75 38 -5 -8 -9 -9 -9 -9 -9 -9 -9 -8 -5 43 
43 -5 -8 -9 -9 -9 -9 -9 -9 -9 -9 -9 -8 0 75 38 -5 -8 -9 -9 -9 -9 -9 -9 -9 -9 -9 -9 -9 -9 -8 0 74 40 -5 -8 -9 -9 -9 -9 -9 -9 -9 -9 -9 -9 -9 -9 -9 -9 -9 -8 -5 42 43 -5 -8 -9 -9 -9 -9 -9 -9 -9 -9 -9 -9 -9 -9 -9 -9 -9 -9 -9 -9 -9 -8 -5 38 75 0 -8 -9 -9 -9 -9 -9 -9 -9 -9 -9 -9 -9 -8 -5 38 75 0 -8 -9 -9 -9 -9 -9 -9 -9 -9 -8 -5 43 
43 -5 -8 -9 -9 -9 -9 -9 -9 -9 -9 -9 -8 -5 45 42 -5 -8 -9 -9 -9 -9 -9 -9 -9 -9 -9 -9 -9 -8 -5 40 74 0 -8 -9 -9 -9 -9 -9 -9 -9 -9 -9 -9 -9 -9 -9 -9 -9 -9 -8 -5 42 45 -5 -8 -9 -9 -9 -9 -9 -9 -9 -9 -9 -9 -9 -9 -9 -9 -9 -9 -9 -9 -9 -8 -5 45 45 -5 -8 -9 -9 -9 -9 -9 -9 -9 -9 -9 -9 -9 -8 -5 42 45 -5 -8 -9 -9 -9 -9 -9 -9 -9 -9 -8 -5 43 
43 -5 -8 -9 -9 -9 -9 -9 -9 -9 -9 -9 -8 -5 43 43 -5 -8 -9 -9 -9 -9 -9 -9 -9 -9 -9 -9 -9 -8 0 74 40 -5 -8 -9 -9 -9 -9 -9 -9 -9 -9 -9 -9 -9 -9 -9 -9 -9 -9 -8 -5 38 75 0 -8 -9 -9 -9 -9 -9 -9 -9 -9 -9 -9 -9 -9 -9 -9 -9 -9 -9 -9 -9 -8 0 75 38 -5 -8 -9 -9 -9 -9 -9 -9 -9 -9 -9 -9 -9 -8 -5 45 42 -5 -8 -9 -9 -9 -9 -9 -9 -9 -9 -8 -5 43 
43 -5 -8 -9 -9 -9 -9 -9 -9 -9 -9 -9 -8 -5 42 45 -5 -8 -9 -9 -9 -9 -9 -9 -9 -9 -9 -9 -8 -5 40 74 0 -8 -9 -9 -9 -9 -9 -9 -9 -9 -9 -9 -9 -9 -9 -9 -9 -9 -9 -9 -8 0 75 38 -5 -8 -9 -9 -9 -9 -9 -9 -9 -9 -9 -9 -9 -9 -9 -9 -9 -9 -9 -8 -5 40 74 0 -8 -9 -9 -9 -9 -9 -9 -9 -9 -9 -9 -9 -9 -8 0 75 38 -5 -8 -9 -9 -9 -9 -9 -9 -9 -9 -8 -5 45 
43 -5 -8 -9 -9 -9 -9 -9 -9 -9 -9 -9 -8 -5 38 75 0 -8 -9 -9 -9 -9 -9 -9 -9 -9 -9 -9 -8 2 75 40 -5 -8 -9 -9 -9 -9 -9 -9 -9 -9 -9 -9 -9 -9 -9 -9 -9 -9 -9 -9 -8 -5 45 42 -5 -8 -9 -9 -9 -9 -9 -9 -9 -9 -9 -9 -9 -9 -9 -9 -9 -9 -9 -8 0 74 40 -5 -8 -9 -9 -9 -9 -9 -9 -9 -9 -9 -9 -9 -8 -5 38 75 0 -8 -9 -9 -9 -9 -9 -9 -9 -9 -9 -8 0 80 
43 -5 -8 -9 -9 -9 -9 -9 -9 -9 -9 -9 -9 -8 0 75 38 -5 -8 -9 -9 -9 -9 -9 -9 -9 -9 -8 0 71 71 0 -8 -9 -9 -9 -9 -9 -9 -9 -9 -9 -9 -9 -9 -9 -9 -9 -9 -9 -9 -9 -8 -5 43 42 -5 -8 -9 -9 -9 -9 -9 -9 -9 -9 -9 -9 -9 -9 -9 -9 -9 -9 -8 -5 38 75 0 -8 -9 -9 -9 -9 -9 -9 -9 -9 -9 -9 -9 -9 -8 -5 42 45 -5 -8 -9 -9 -9 -9 -9 -9 -9 -9 -8 -5 40 115 
43 -5 -8 -9 -9 -9 -9 -9 -9 -9 -9 -9 -9 -8 -5 45 42 -5 -8 -9 -9 -9 -9 -9 -9 -9 -8 -5 40 75 2 -8 -9 -9 -9 -9 -9 -9 -9 -9 -9 -9 -9 -9 -9 -9 -9 -9 -9 -9 -9 -9 -8 -5 43 43 -5 -8 -9 -9 -9 -9 -9 -9 -9 -9 -9 -9 -9 -9 -9 -9 -9 -9 -8 -5 45 45 -5 -8 -9 -9 -9 -9 -9 -9 -9 -9 -9 -9 -9 -9 -8 -5 45 42 -5 -8 -9 -9 -9 -9 -9 -9 -9 -9 -8 2 75 86 
43 -5 -8 -9 -9 -9 -9 -9 -9 -9 -9 -9 -9 -8 -5 43 43 -5 -8 -9 -9 -9 -9 -9 -9 -9 -8 0 74 40 -5 -8 -9 -9 -9 -9 -9 -9 -9 -9 -9 -9 -9 -9 -9 -9 -9 -9 -9 -9 -9 -9 -8 -5 42 43 -5 -8 -9 -9 -9 -9 -9 -9 -9 -9 -9 -9 -9 -9 -9 -9 -9 -9 -8 0 75 38 -5 -8 -9 -9 -9 -9 -9 -9 -9 -9 -9 -9 -9 -9 -8 0 75 38 -5 -8 -9 -9 -9 -9 -9 -9 -9 -8 0 71 74 51 
43 -5 -8 -9 -9 -9 -9 -9 -9 -9 -9 -9 -9 -8 -5 42 45 -5 -8 -9 -9 -9 -9 -9 -9 -8 -5 40 74 0 -8 -9 -9 -9 -9 -9 -9 -9 -9 -9 -9 -9 -9 -9 -9 -9 -9 -9 -9 -9 -9 -9 -8 -5 42 45 -5 -8 -9 -9 -9 -9 -9 -9 -9 -9 -9 -9 -9 -9 -9 -9 -9 -8 -5 40 74 0 -8 -9 -9 -9 -9 -9 -9 -9 -9 -9 -9 -9 -9 -8 -5 38 75 0 -8 -9 -9 -9 -9 -9 -9 -9 -8 -5 40 75 6 43 
43 -5 -8 -9 -9 -9 -9 -9 -9 -9 -9 -9 -9 -8 -5 38 75 0 -8 -9 -9 -9 -9 -9 -9 -8 0 74 40 -5 -8 -9 -9 -9 -9 -9 -9 -9 -9 -9 -9 -9 -9 -9 -9 -9 -9 -9 -9 -9 -9 -9 -8 -5 38 75 0 -8 -9 -9 -9 -9 -9 -9 -9 -9 -9 -9 -9 -9 -9 -9 -9 -8 0 74 40 -5 -8 -9 -9 -9 -9 -9 -9 -9 -9 -9 -9 -9 -9 -8 -5 42 45 -5 -8 -9 -9 -9 -9 -9 -9 -9 -8 2 75 40 -2 43 
43 -5 -8 -9 -9 -9 -9 -9 -9 -9 -9 -9 -9 -9 -8 0 75 38 -5 -8 -9 -9 -9 -9 -8 -5 40 74 0 -8 -9 -9 -9 -9 -9 -9 -9 -9 -9 -9 -9 -9 -9 -9 -9 -9 -9 -9 -9 -9 -9 -9 -9 -8 0 75 38 -5 -8 -9 -9 -9 -9 -9 -9 -9 -9 -9 -9 -9 -9 -9 -8 -5 38 75 0 -8 -9 -9 -9 -9 -9 -9 -9 -9 -9 -9 -9 -9 -9 -8 -5 45 42 -5 -8 -9 -9 -9 -9 -9 -9 -8 0 71 71 0 -5 43 
43 -5 -8 -9 -9 -9 -9 -9 -9 -9 -9 -9 -9 -9 -8 -5 45 42 -5 -8 -9 -9 -9 -9 -8 2 75 40 -5 -8 -9 -9 -9 -9 -9 -9 -9 -9 -9 -9 -9 -9 -9 -9 -9 -9 -9 -9 -9 -9 -9 -9 -9 -8 -5 45 42 -5 -8 -8 -8 -8 -9 -9 -9 -9 -9 -9 -9 -9 -9 -9 -8 -5 45 45 -5 -8 -9 -9 -9 -9 -9 -9 -9 -9 -9 -9 -9 -9 -9 -8 0 75 38 -5 -8 -9 -9 -9 -9 -9 -8 -5 40 75 2 -8 -5 43 
43 -5 -8 -9 -9 -9 -9 -9 -9 -9 -9 -9 -9 -9 -8 -5 43 43 -5 -8 -9 -9 -9 -8 0 71 71 0 -8 -9 -9 -9 -9 -9 -9 -9 -9 -9 -9 -9 -9 -9 -9 -9 -9 -9 -9 -9 -9 -9 -9 -9 -9 -8 -5 45 45 -2 -5 -5 -5 -5 -8 -8 -8 -8 -8 -8 -8 -9 -9 -9 -8 0 75 38 -5 -8 -9 -9 -9 -9 -9 -9 -9 -9 -9 -9 -9 -9 -8 -5 38 75 0 -8 -9 -9 -9 -9 -9 -9 -8 2 75 40 -5 -8 -5 43 
43 -5 -8 -9 -9 -9 -9 -9 -9 -9 -9 -9 -9 -9 -8 -5 42 45 -5 -8 -9 -9 -8 -5 40 75 2 -8 -9 -9 -9 -9 -9 -9 -9 -9 -9 -9 -9 -9 -9 -9 -9 -9 -9 -9 -9 -9 -9 -9 -9 -9 -8 -5 3 80 84 45 43 43 42 38 0 -5 -5 -5 -5 -5 -5 -8 -8 -8 -5 40 74 0 -8 -9 -9 -9 -9 -9 -9 -9 -9 -9 -9 -9 -9 -9 -8 -5 42 45 -5 -8 -9 -9 -9 -9 -9 -8 0 71 71 0 -8 -8 -5 43 
43 -5 -8 -9 -9 -9 -9 -9 -9 -9 -9 -9 -9 -9 -8 -5 38 75 0 -8 -9 -9 -8 0 74 40 -5 -8 -9 -9 -9 -9 -9 -9 -9 -9 -9 -9 -9 -9 -9 -9 -9 -9 -9 -9 -9 -9 -9 -9 -8 -8 0 40 75 76 46 43 43 43 45 75 75 45 43 43 42 42 38 0 -5 -5 3 75 40 -5 -8 -9 -9 -9 -9 -9 -9 -9 -9 -9 -9 -9 -9 -9 -8 -5 45 42 -5 -8 -9 -9 -9 -9 -8 -5 40 75 2 -8 -9 -8 -5 43 
43 -5 -8 -9 -9 -9 -9 -9 -9 -9 -9 -9 -9 -9 -9 -8 0 75 38 -5 -8 -8 -5 40 74 0 -8 -9 -9 -9 -9 -9 -9 -9 -9 -9 -9 -9 -9 -9 -9 -9 -9 -9 -9 -9 -9 -9 -9 -8 -5 2 71 75 40 0 -5 -5 -5 -5 -5 0 38 42 42 43 43 45 75 75 45 45 80 78 0 -8 -9 -9 -9 -9 -9 -9 -9 -9 -9 -9 -9 -9 -9 -9 -8 0 75 38 -5 -8 -9 -9 -9 -9 -8 2 75 40 -5 -8 -9 -8 -5 43 
43 -5 -8 -9 -9 -9 -9 -9 -9 -9 -9 -9 -9 -9 -9 -8 -5 45 42 -5 -8 -8 0 74 40 -5 -8 -9 -9 -9 -9 -9 -9 -9 -9 -9 -9 -9 -9 -9 -9 -9 -9 -9 -9 -9 -9 -8 -8 0 40 75 71 2 -5 -8 -8 -8 -8 -8 -8 -8 -5 -5 -5 -5 -5 -5 0 38 42 45 80 78 0 -8 -9 -9 -9 -9 -9 -9 -9 -9 -9 -9 -9 -9 -9 -8 -5 38 75 0 -8 -9 -9 -9 -9 -8 0 71 71 0 -8 -9 -9 -8 -5 43 
43 -5 -8 -9 -9 -9 -9 -9 -9 -9 -9 -9 -9 -9 -9 -8 -5 43 43 -5 -8 -5 40 74 0 -8 -9 -9 -9 -9 -9 -9 -9 -9 -9 -9 -9 -9 -9 -9 -9 -9 -9 -9 -9 -9 -8 -5 2 71 75 40 0 -8 -8 -9 -9 -9 -9 -9 -9 -9 -8 -8 -8 -8 -8 -8 -8 -5 -5 -5 3 75 40 -5 -8 -9 -9 -9 -9 -9 -9 -9 -9 -9 -9 -9 -9 -8 -5 42 45 -5 -8 -9 -9 -9 -8 -5 40 75 2 -8 -9 -9 -9 -8 -5 43 
43 -5 -8 -9 -9 -9 -9 -9 -9 -9 -9 -9 -9 -9 -9 -8 -5 42 45 -5 -8 2 75 40 -5 -8 -9 -9 -9 -9 -9 -9 -9 -9 -9 -9 -9 -9 -9 -9 -9 -9 -9 -9 -9 -8 0 40 75 71 2 -5 -8 -9 -9 -9 -9 -9 -9 -9 -9 -9 -9 -9 -9 -9 -9 -9 -9 -8 -8 -8 -5 40 75 2 -8 -8 -9 -9 -9 -9 -9 -9 -9 -9 -9 -9 -9 -8 -5 45 42 -5 -8 -9 -9 -9 -8 2 75 40 -5 -8 -9 -9 -9 -8 -5 43 
43 -5 -8 -9 -9 -9 -9 -9 -9 -9 -9 -9 -9 -9 -9 -8 -5 38 75 0 0 71 71 0 -8 -9 -9 -9 -9 -9 -9 -9 -9 -9 -9 -9 -9 -9 -9 -9 -9 -9 -9 -8 -8 2 71 75 40 0 -8 -8 -9 -9 -9 -9 -9 -9 -9 -9 -9 -9 -9 -9 -9 -9 -9 -9 -9 -9 -9 -9 -8 0 71 71 2 -5 -8 -8 -8 -8 -8 -8 -8 -8 -8 -8 -8 -8 0 75 38 -5 -8 -9 -9 -8 0 71 71 0 -8 -9 -9 -9 -9 -8 -5 43 
43 -5 -8 -9 -9 -9 -9 -9 -9 -9 -9 -9 -9 -9 -9 -9 -8 0 75 41 43 75 2 -8 -9 -9 -9 -9 -9 -9 -9 -9 -9 -9 -9 -9 -9 -9 -9 -9 -9 -9 -8 -5 2 71 71 2 -5 -8 -9 -9 -9 -9 -9 -9 -9 -9 -9 -9 -9 -9 -9 -9 -9 -9 -9 -9 -9 -9 -9 -9 -9 -8 2 76 80 40 0 -5 -5 -5 -5 -5 -5 -5 -5 -5 -5 -2 41 77 0 -8 -9 -9 -8 -5 40 75 2 -8 -9 -9 -9 -9 -9 -8 -5 43 
43 -5 -8 -9 -9 -9 -9 -9 -9 -9 -9 -9 -9 -9 -9 -9 -8 -5 45 51 77 40 -5 -8 -9 -9 -9 -9 -9 -9 -9 -9 -9 -9 -9 -9 -9 -9 -9 -9 -8 -8 0 40 75 71 2 -8 -8 -9 -9 -9 -9 -9 -9 -9 -9 -9 -9 -9 -9 -9 -9 -9 -9 -9 -9 -9 -9 -9 -9 -9 -9 -8 -5 46 86 77 75 45 43 43 43 43 43 43 43 43 43 45 84 82 3 -5 -8 -8 -8 2 75 40 -5 -8 -9 -9 -9 -9 -9 -8 -5 43 
43 -5 -8 -9 -9 -9 -9 -9 -9 -9 -9 -9 -9 -9 -9 -9 -8 -5 43 86 75 0 -8 -9 -9 -9 -9 -9 -9 -9 -9 -9 -9 -9 -9 -9 -9 -9 -9 -8 -5 2 71 75 40 0 -8 -9 -9 -9 -9 -9 -9 -9 -9 -9 -9 -9 -9 -9 -9 -9 -9 -9 -9 -9 -9 -9 -9 -9 -9 -9 -9 -8 -5 45 45 3 38 42 42 43 43 43 43 43 43 43 43 43 46 76 75 40 0 -5 0 71 71 0 -8 -9 -9 -9 -9 -9 -9 -8 -5 43 
43 -5 -8 -9 -9 -9 -9 -9 -9 -9 -9 -9 -9 -9 -9 -9 -8 -5 43 115 40 -5 -8 -9 -9 -9 -9 -9 -9 -9 -9 -9 -9 -9 -9 -9 -9 -8 -8 0 40 75 71 2 -5 -8 -9 -9 -9 -9 -9 -9 -9 -9 -9 -9 -9 -9 -9 -9 -9 -9 -9 -9 -9 -9 -9 -9 -9 -9 -9 -9 -9 -8 0 75 38 -5 -5 -5 -5 -5 -5 -5 -5 -5 -5 -5 -5 -5 -5 0 40 74 75 43 46 75 2 -8 -9 -9 -9 -9 -9 -9 -9 -8 -5 43 
43 -5 -8 -9 -9 -9 -9 -9 -9 -9 -9 -9 -9 -9 -9 -9 -8 -5 43 80 0 -8 -9 -9 -9 -9 -9 -9 -9 -9 -9 -9 -9 -9 -9 -9 -8 -5 2 71 75 40 0 -8 -8 -9 -9 -9 -9 -9 -9 -9 -9 -9 -9 -9 -9 -9 -9 -9 -9 -9 -9 -9 -9 -9 -9 -9 -9 -9 -9 -9 -8 -5 38 75 0 -8 -8 -8 -8 -8 -8 -8 -8 -8 -8 -8 -8 -8 -8 -8 -5 0 40 75 112 48 -4 -8 -9 -9 -9 -9 -9 -9 -9 -8 -5 43 
43 -5 -8 -9 -9 -9 -9 -9 -9 -9 -9 -9 -9 -9 -9 -9 -8 -5 43 45 -5 -8 -9 -9 -9 -9 -9 -9 -9 -9 -9 -9 -9 -8 -8 -8 0 40 75 71 2 -5 -8 -8 -9 -9 -9 -9 -9 -9 -9 -9 -9 -9 -9 -9 -9 -9 -9 -9 -9 -9 -9 -9 -9 -9 -9 -9 -9 -9 -9 -9 -8 -5 42 45 -5 -8 -9 -9 -9 -9 -9 -9 -9 -9 -9 -9 -9 -9 -9 -9 -8 -8 -5 2 76 76 2 -8 -9 -9 -9 -9 -9 -9 -9 -8 -5 43 
43 -5 -8 -9 -9 -9 -9 -9 -9 -9 -9 -9 -9 -9 -9 -9 -8 -5 43 43 -5 -8 -9 -9 -9 -9 -9 -9 -9 -9 -9 -8 -8 -5 -5 2 76 115 82 8 -4 -5 -5 -5 -8 -8 -8 -8 -9 -9 -9 -9 -9 -9 -9 -9 -9 -9 -9 -9 -9 -9 -9 -9 -9 -9 -9 -9 -9 -9 -9 -9 -8 -5 43 43 -5 -8 -9 -9 -9 -9 -9 -9 -9 -9 -9 -9 -9 -9 -9 -9 -9 -9 -8 -8 2 71 71 0 -8 -9 -9 -9 -9 -9 -9 -8 -5 43 
43 -5 -8 -9 -9 -9 -9 -9 -9 -9 -9 -9 -9 -9 -9 -9 -8 -5 45 42 -5 -8 -9 -9 -9 -9 -9 -9 -9 -8 -8 -5 0 38 45 75 76 48 75 75 45 43 42 38 0 -5 -5 -5 -8 -8 -8 -8 -8 -9 -9 -9 -9 -9 -9 -9 -9 -9 -9 -9 -9 -9 -9 -9 -9 -9 -9 -9 -8 -5 43 43 -5 -8 -9 -9 -9 -9 -9 -9 -9 -9 -9 -9 -9 -9 -9 -9 -9 -9 -9 -9 -8 2 75 40 -5 -8 -9 -9 -9 -9 -9 -8 -5 43 
43 -5 -8 -9 -9 -9 -9 -9 -9 -9 -9 -9 -9 -9 -9 -9 -8 0 75 38 -5 -8 -9 -9 -9 -9 -8 -8 -8 -5 0 40 74 75 45 38 0 -4 0 38 42 43 45 75 75 45 42 38 0 -5 -5 -5 -5 -8 -8 -8 -8 -9 -9 -9 -9 -9 -9 -9 -9 -9 -9 -9 -9 -9 -9 -9 -8 -5 45 42 -5 -8 -9 -9 -9 -9 -9 -9 -9 -9 -9 -9 -9 -9 -9 -9 -9 -9 -9 -9 -8 -5 40 75 2 -8 -9 -9 -9 -9 -9 -8 -5 43 
43 -5 -8 -9 -9 -9 -9 -9 -9 -9 -9 -9 -9 -9 -9 -8 -5 38 75 0 -8 -9 -9 -9 -8 -8 -5 -5 0 40 74 74 40 0 -5 -5 -8 -8 -8 -5 -5 -5 -5 0 38 42 45 75 75 45 43 42 38 0 -5 -5 -5 -8 -8 -8 -8 -8 -9 -9 -9 -9 -9 -9 -9 -9 -9 -9 -8 0 75 38 -5 -8 -9 -9 -9 -9 -9 -9 -9 -9 -9 -9 -9 -9 -9 -9 -9 -9 -9 -9 -9 -8 0 71 71 0 -8 -9 -9 -9 -9 -8 -5 43 
43 -5 -8 -9 -9 -9 -9 -9 -9 -9 -9 -9 -9 -9 -9 -8 -5 42 45 -5 -8 -9 -8 -8 -5 0 38 45 75 74 40 0 -5 -8 -8 -8 -9 -9 -9 -8 -8 -8 -8 -8 -5 -5 -5 0 38 42 43 45 75 75 45 42 38 0 -5 -5 -5 -5 -8 -8 -8 -8 -9 -9 -9 -9 -9 -8 -5 38 75 0 -8 -9 -9 -9 -9 -9 -9 -9 -9 -9 -9 -9 -9 -9 -9 -9 -9 -9 -9 -9 -9 -9 -8 2 75 40 -5 -8 -9 -9 -9 -8 -5 43 
43 -5 -8 -9 -9 -9 -9 -9 -9 -9 -9 -9 -9 -9 -9 -8 -5 43 43 -5 -8 -8 -5 0 40 74 75 45 38 0 -5 -8 -8 -9 -9 -9 -9 -9 -9 -9 -9 -9 -9 -9 -8 -8 -8 -8 -5 -5 -5 -5 0 38 42 45 75 75 45 43 42 38 0 -5 -5 -5 -8 -8 -8 -8 -8 -8 -5 42 45 -5 -8 -9 -9 -9 -9 -9 -9 -9 -9 -9 -9 -9 -9 -9 -9 -9 -9 -9 -9 -9 -9 -9 -8 -5 40 75 2 -8 -9 -9 -9 -8 -5 43 
43 -5 -8 -9 -9 -9 -9 -9 -9 -9 -9 -9 -9 -9 -9 -8 -5 45 42 -5 -5 0 40 74 74 40 0 -5 -5 -8 -8 -9 -9 -9 -9 -9 -9 -9 -9 -9 -9 -9 -9 -9 -9 -9 -9 -9 -8 -8 -8 -8 -8 -5 -5 -5 0 38 42 43 45 75 75 45 42 38 0 -5 -5 -5 -5 -8 -5 43 43 -5 -8 -9 -9 -9 -9 -9 -9 -9 -9 -9 -9 -9 -9 -9 -9 -9 -9 -9 -9 -9 -9 -9 -9 -8 0 71 71 2 -8 -9 -9 -8 -5 43 
43 -5 -8 -9 -9 -9 -9 -9 -9 -9 -9 -9 -9 -9 -9 -8 0 75 41 3 40 74 74 40 0 -5 -8 -8 -8 -9 -9 -9 -9 -9 -9 -9 -9 -9 -9 -9 -9 -9 -9 -9 -9 -9 -9 -9 -9 -9 -9 -9 -9 -8 -8 -8 -8 -5 -5 -5 -5 0 38 42 45 75 75 45 43 42 38 0 -1 45 43 -5 -8 -9 -9 -9 -9 -9 -9 -9 -9 -9 -9 -9 -9 -9 -9 -9 -9 -9 -9 -9 -9 -9 -9 -9 -8 2 71 71 0 -8 -9 -8 -5 43 
43 -5 -8 -9 -9 -9 -9 -9 -9 -9 -9 -9 -9 -9 -8 -5 41 112 53 75 74 40 0 -5 -8 -8 -9 -9 -9 -9 -9 -9 -9 -9 -9 -9 -9 -9 -9 -9 -9 -9 -9 -9 -9 -9 -9 -9 -9 -9 -9 -9 -9 -9 -9 -9 -9 -8 -8 -8 -8 -8 -5 -5 -5 0 38 42 43 45 75 75 48 84 43 -5 -8 -9 -9 -9 -9 -9 -9 -9 -9 -9 -9 -9 -9 -9 -9 -9 -9 -9 -9 -9 -9 -9 -9 -9 -9 -8 2 75 40 -5 -8 -8 -5 43 
43 -5 -8 -9 -9 -9 -9 -9 -9 -9 -9 -9 -9 -9 -8 0 76 80 45 38 0 -5 -8 -8 -9 -9 -9 -9 -9 -9 -9 -9 -9 -9 -9 -9 -9 -9 -9 -9 -9 -9 -9 -9 -9 -9 -9 -9 -9 -9 -9 -9 -9 -9 -9 -9 -9 -9 -9 -9 -9 -9 -8 -8 -8 -8 -5 -5 -5 -5 0 38 45 84 43 -5 -8 -9 -9 -9 -9 -9 -9 -9 -9 -9 -9 -9 -9 -9 -9 -9 -9 -9 -9 -9 -9 -9 -9 -9 -9 -8 -5 40 75 2 -8 -8 -5 43 
43 -5 -8 -9 -9 -9 -9 -9 -9 -9 -9 -9 -9 -8 -5 40 75 3 -5 -5 -8 -8 -9 -9 -9 -9 -9 -9 -9 -9 -9 -9 -9 -9 -9 -9 -9 -9 -9 -9 -9 -9 -9 -9 -9 -9 -9 -9 -9 -9 -9 -9 -9 -9 -9 -9 -9 -9 -9 -9 -9 -9 -9 -9 -9 -9 -8 -8 -8 -8 -8 -5 -2 45 43 -5 -8 -9 -9 -9 -9 -9 -9 -9 -9 -9 -9 -9 -9 -9 -9 -9 -9 -9 -9 -9 -9 -9 -9 -9 -9 -9 -8 0 71 71 2 -8 -5 43 
43 -5 -8 -9 -9 -9 -9 -9 -9 -9 -9 -9 -9 -8 2 75 40 -5 -8 -8 -9 -9 -9 -9 -9 -9 -9 -9 -9 -9 -9 -9 -9 -9 -9 -9 -9 -9 -9 -9 -9 -9 -9 -9 -9 -9 -9 -9 -9 -9 -9 -9 -9 -9 -9 -9 -9 -9 -9 -9 -9 -9 -9 -9 -9 -9 -9 -9 -9 -9 -9 -8 -5 43 43 -5 -8 -9 -9 -9 -9 -9 -9 -9 -9 -9 -9 -9 -9 -9 -9 -9 -9 -9 -9 -9 -9 -9 -9 -9 -9 -9 -9 -8 2 71 71 0 -5 43 
43 -5 -8 -9 -9 -9 -9 -9 -9 -9 -9 -9 -8 0 71 71 0 -8 -9 -9 -9 -9 -9 -9 -9 -9 -9 -9 -9 -9 -9 -9 -9 -9 -9 -9 -9 -9 -9 -9 -9 -9 -9 -9 -9 -9 -9 -9 -9 -9 -9 -9 -9 -9 -9 -9 -9 -9 -9 -9 -9 -9 -9 -9 -9 -9 -9 -9 -9 -9 -9 -8 -5 43 43 -5 -8 -9 -9 -9 -9 -9 -9 -9 -9 -9 -9 -9 -9 -9 -9 -9 -9 -9 -9 -9 -9 -9 -9 -9 -9 -9 -9 -9 -8 2 75 40 -2 43 
43 -5 -8 -9 -9 -9 -9 -9 -9 -9 -9 -8 -5 40 75 2 -8 -9 -9 -9 -9 -9 -9 -9 -9 -9 -9 -9 -9 -9 -9 -9 -9 -9 -9 -9 -9 -9 -9 -9 -9 -9 -9 -9 -9 -9 -9 -9 -9 -9 -9 -9 -9 -9 -9 -9 -9 -9 -9 -9 -9 -9 -9 -9 -9 -9 -9 -9 -9 -9 -9 -8 -5 43 43 -5 -8 -9 -9 -9 -9 -9 -9 -9 -9 -9 -9 -9 -9 -9 -9 -9 -9 -9 -9 -9 -9 -9 -9 -9 -9 -9 -9 -9 -8 -5 40 75 6 43 
43 -5 -8 -9 -9 -9 -9 -9 -9 -9 -9 -8 2 75 40 -5 -8 -9 -9 -9 -9 -9 -9 -9 -9 -9 -9 -9 -9 -9 -9 -9 -9 -9 -9 -9 -9 -9 -9 -9 -9 -9 -9 -9 -9 -9 -9 -9 -9 -9 -9 -9 -9 -9 -9 -9 -9 -9 -9 -9 -9 -9 -9 -9 -9 -9 -9 -9 -9 -9 -9 -8 -5 42 45 -5 -8 -9 -9 -9 -9 -9 -9 -9 -9 -9 -9 -9 -9 -9 -9 -9 -9 -9 -9 -9 -9 -9 -9 -9 -9 -9 -9 -9 -9 -8 0 71 74 51 
43 -5 -8 -9 -9 -9 -9 -9 -9 -9 -8 2 71 71 0 -8 -8 -9 -9 -9 -9 -9 -9 -9 -9 -9 -9 -9 -9 -9 -9 -9 -9 -9 -9 -9 -9 -9 -9 -9 -9 -9 -9 -9 -9 -9 -9 -9 -9 -9 -9 -9 -9 -9 -9 -9 -9 -9 -9 -9 -9 -9 -9 -9 -9 -9 -9 -9 -9 -9 -9 -8 -5 41 76 2 -8 -8 -9 -9 -9 -9 -9 -9 -9 -9 -9 -9 -9 -9 -9 -9 -9 -9 -9 -9 -9 -9 -9 -9 -9 -9 -9 -9 -9 -9 -8 2 75 86 
43 -5 -8 -9 -9 -9 -9 -9 -9 -8 2 72 74 5 -4 -5 -5 -8 -8 -8 -8 -8 -8 -8 -8 -8 -8 -8 -8 -9 -9 -9 -9 -9 -9 -9 -9 -9 -9 -9 -9 -9 -9 -9 -9 -9 -9 -9 -9 -9 -9 -9 -9 -9 -9 -9 -9 -9 -9 -9 -9 -9 -9 -9 -9 -9 -9 -9 -9 -9 -8 -5 0 46 112 76 2 -5 -8 -8 -9 -9 -9 -9 -9 -9 -9 -9 -9 -9 -9 -9 -9 -9 -9 -9 -9 -9 -9 -9 -9 -9 -9 -9 -9 -9 -8 -5 40 115 
43 -5 -8 -9 -9 -9 -9 -9 -8 2 76 113 53 43 43 42 38 0 -5 -5 -5 -5 -5 -5 -5 -5 -5 -5 -5 -8 -8 -8 -8 -8 -8 -8 -8 -8 -8 -8 -9 -9 -9 -9 -9 -9 -9 -9 -9 -9 -9 -9 -9 -9 -9 -9 -9 -9 -9 -9 -9 -9 -9 -9 -9 -9 -9 -9 -8 -8 0 40 74 75 48 76 75 40 0 -5 -8 -9 -9 -9 -9 -9 -9 -9 -9 -9 -9 -9 -9 -9 -9 -9 -9 -9 -9 -9 -9 -9 -9 -9 -9 -9 -9 -8 0 80 
43 -5 -8 -9 -9 -9 -9 -8 2 71 76 46 43 43 43 45 75 75 45 43 43 43 43 43 43 43 42 42 38 0 -5 -5 -5 -5 -5 -5 -5 -5 -5 -5 -8 -8 -8 -8 -8 -8 -8 -8 -8 -8 -8 -8 -9 -9 -9 -9 -9 -9 -9 -9 -9 -9 -9 -9 -9 -9 -8 -8 -5 2 71 75 40 0 -4 0 40 74 74 40 0 -8 -8 -9 -9 -9 -9 -9 -9 -9 -9 -9 -9 -9 -9 -9 -9 -9 -9 -9 -9 -9 -9 -9 -9 -9 -9 -8 -5 45 
43 -5 -8 -9 -9 -9 -8 2 71 71 2 -5 -5 -5 -5 -5 0 38 42 42 43 43 43 43 43 43 43 45 75 75 45 43 43 43 43 43 43 42 42 38 0 -5 -5 -5 -5 -5 -5 -5 -5 -5 -5 -5 -8 -8 -8 -8 -8 -8 -8 -8 -8 -8 -8 -9 -9 -8 -5 0 40 75 71 2 -5 -8 -8 -8 -5 0 40 75 71 2 -5 -8 -8 -9 -9 -9 -9 -9 -9 -9 -9 -9 -9 -9 -9 -9 -9 -9 -9 -9 -9 -9 -9 -9 -9 -8 -5 43 
43 -5 -8 -9 -8 -8 2 71 71 2 -8 -8 -8 -8 -8 -8 -8 -5 -5 -5 -5 -5 -5 -5 -5 -5 -5 -5 0 38 42 42 43 43 43 43 43 43 45 75 75 45 43 43 43 43 43 43 43 42 42 38 0 -5 -5 -5 -5 -5 -5 -5 -5 -5 -5 -8 -8 0 40 74 74 40 0 -8 -8 -9 -9 -9 -8 -8 -5 2 71 75 40 0 -5 -8 -9 -9 -9 -9 -9 -9 -9 -9 -9 -9 -9 -9 -9 -9 -9 -9 -9 -9 -9 -9 -9 -8 -5 43 
43 -5 -8 -8 -5 2 71 71 2 -8 -9 -9 -9 -9 -9 -9 -9 -8 -8 -8 -8 -8 -8 -8 -8 -8 -8 -8 -8 -5 -5 -5 -5 -5 -5 -5 -5 -5 -5 0 38 42 42 43 43 43 43 43 43 43 45 75 75 45 43 43 43 43 43 43 42 42 38 0 3 71 75 40 0 -5 -8 -9 -9 -9 -9 -9 -9 -9 -8 -8 0 40 74 74 40 0 -8 -8 -9 -9 -9 -9 -9 -9 -9 -9 -9 -9 -9 -9 -9 -9 -9 -9 -9 -9 -9 -8 -5 43 
43 -5 -8 0 40 75 71 2 -8 -9 -9 -9 -9 -9 -9 -9 -9 -9 -9 -9 -9 -9 -9 -9 -9 -9 -9 -9 -9 -8 -8 -8 -8 -8 -8 -8 -8 -8 -8 -8 -5 -5 -5 -5 -5 -5 -5 -5 -5 -5 -5 0 38 42 42 43 43 43 43 43 43 45 75 78 78 71 2 -5 -8 -8 -9 -9 -9 -9 -9 -9 -9 -9 -9 -9 -8 -5 0 40 75 71 2 -5 -8 -8 -9 -9 -9 -9 -9 -9 -9 -9 -9 -9 -9 -9 -9 -9 -9 -9 -9 -8 -5 43 
43 -4 2 71 75 40 0 -8 -9 -9 -9 -9 -9 -9 -9 -9 -9 -9 -9 -9 -9 -9 -9 -9 -9 -9 -9 -9 -9 -9 -9 -9 -9 -9 -9 -9 -9 -9 -9 -9 -8 -8 -8 -8 -8 -8 -8 -8 -8 -8 -8 -8 -5 -5 -5 -5 -5 -5 -5 -5 -5 -5 3 80 80 2 -8 -8 -9 -9 -9 -9 -9 -9 -9 -9 -9 -9 -9 -9 -9 -8 -8 -5 2 71 75 40 0 -5 -8 -9 -9 -9 -9 -9 -9 -9 -9 -9 -9 -9 -9 -9 -9 -9 -9 -8 -5 43 
43 5 71 71 2 -5 -8 -9 -9 -9 -9 -9 -9 -9 -9 -9 -9 -9 -9 -9 -9 -9 -9 -9 -9 -9 -9 -9 -9 -9 -9 -9 -9 -9 -9 -9 -9 -9 -9 -9 -9 -9 -9 -9 -9 -9 -9 -9 -9 -9 -9 -9 -8 -8 -8 -8 -8 -8 -8 -8 -8 -8 -5 45 45 -5 -8 -9 -9 -9 -9 -9 -9 -9 -9 -9 -9 -9 -9 -9 -9 -9 -9 -8 -8 0 40 74 74 40 0 -8 -8 -9 -9 -9 -9 -9 -9 -9 -9 -9 -9 -9 -9 -9 -9 -8 -5 43 
53 74 71 2 -8 -8 -9 -9 -9 -9 -9 -9 -9 -9 -9 -9 -9 -9 -9 -9 -9 -9 -9 -9 -9 -9 -9 -9 -9 -9 -9 -9 -9 -9 -9 -9 -9 -9 -9 -9 -9 -9 -9 -9 -9 -9 -9 -9 -9 -9 -9 -9 -9 -9 -9 -9 -9 -9 -9 -9 -9 -8 -5 43 43 -5 -8 -9 -9 -9 -9 -9 -9 -9 -9 -9 -9 -9 -9 -9 -9 -9 -9 -9 -9 -8 -5 0 40 75 71 2 -5 -8 -8 -9 -9 -9 -9 -9 -9 -9 -9 -9 -9 -9 -9 -8 -5 43 
113 72 2 -8 -9 -9 -9 -9 -9 -9 -9 -9 -9 -9 -9 -9 -9 -9 -9 -9 -9 -9 -9 -9 -9 -9 -9 -9 -9 -9 -9 -9 -9 -9 -9 -9 -9 -9 -9 -9 -9 -9 -9 -9 -9 -9 -9 -9 -9 -9 -9 -9 -9 -9 -9 -9 -9 -9 -9 -9 -9 -8 -5 43 43 -5 -8 -9 -9 -9 -9 -9 -9 -9 -9 -9 -9 -9 -9 -9 -9 -9 -9 -9 -9 -9 -8 -8 -5 2 71 75 40 0 -5 -8 -8 -9 -9 -9 -9 -9 -9 -9 -9 -9 -9 -8 -5 43 
80 2 -8 -9 -9 -9 -9 -9 -9 -9 -9 -9 -9 -9 -9 -9 -9 -9 -9 -9 -9 -9 -9 -9 -9 -9 -9 -9 -9 -9 -9 -9 -9 -9 -9 -9 -9 -9 -9 -9 -9 -9 -9 -9 -9 -9 -9 -9 -9 -9 -9 -9 -9 -9 -9 -9 -9 -9 -9 -9 -9 -8 -5 43 43 -5 -8 -9 -9 -9 -9 -9 -9 -9 -9 -9 -9 -9 -9 -9 -9 -9 -9 -9 -9 -9 -9 -9 -8 -8 0 40 74 74 40 0 -5 -8 -9 -9 -9 -9 -9 -9 -9 -9 -9 -8 -5 43 
45 -5 -8 -9 -9 -9 -9 -9 -9 -9 -9 -9 -9 -9 -9 -9 -9 -9 -9 -9 -9 -9 -9 -9 -9 -9 -9 -9 -9 -9 -9 -9 -9 -9 -9 -9 -9 -9 -9 -9 -9 -9 -9 -9 -9 -9 -9 -9 -9 -9 -9 -9 -9 -9 -9 -9 -9 -9 -9 -9 -9 -8 -5 43 43 -5 -8 -9 -9 -9 -9 -9 -9 -9 -9 -9 -9 -9 -9 -9 -9 -9 -9 -9 -9 -9 -9 -9 -9 -9 -8 -5 0 40 74 74 40 0 -8 -8 -9 -9 -9 -9 -9 -9 -9 -8 -5 43 
43 -5 -8 -9 -9 -9 -9 -9 -9 -9 -9 -9 -9 -9 -9 -9 -9 -9 -9 -9 -9 -9 -9 -9 -9 -9 -9 -9 -9 -9 -9 -9 -9 -9 -9 -9 -9 -9 -9 -9 -9 -9 -9 -9 -9 -9 -9 -9 -9 -9 -9 -9 -9 -9 -9 -9 -9 -9 -9 -9 -9 -8 -5 43 43 -5 -8 -9 -9 -9 -9 -9 -9 -9 -9 -9 -9 -9 -9 -9 -9 -9 -9 -9 -9 -9 -9 -9 -9 -9 -9 -8 -8 -5 0 40 75 71 2 -5 -8 -8 -8 -8 -9 -9 -9 -8 -5 43 
43 -5 -8 -9 -9 -9 -9 -9 -9 -9 -9 -9 -9 -9 -9 -9 -9 -9 -9 -9 -9 -9 -9 -9 -9 -9 -9 -9 -9 -9 -9 -9 -9 -9 -9 -9 -9 -9 -9 -9 -9 -9 -9 -9 -9 -9 -9 -9 -9 -9 -9 -9 -9 -9 -9 -9 -9 -9 -9 -9 -9 -8 -5 43 43 -5 -8 -9 -9 -9 -9 -9 -9 -9 -9 -9 -9 -9 -9 -9 -9 -9 -9 -9 -9 -9 -9 -9 -9 -9 -9 -9 -9 -8 -8 -5 2 71 75 40 0 -5 -5 -5 -8 -8 -8 -8 -5 43 
43 -5 -8 -9 -9 -9 -9 -9 -9 -9 -9 -9 -9 -9 -9 -9 -9 -9 -9 -9 -9 -9 -9 -9 -9 -9 -9 -9 -9 -9 -9 -9 -9 -9 -9 -9 -9 -9 -9 -9 -9 -9 -9 -9 -9 -9 -9 -9 -9 -9 -9 -9 -9 -9 -9 -9 -9 -9 -9 -9 -9 -8 -5 43 43 -5 -8 -9 -9 -9 -9 -9 -9 -9 -9 -9 -9 -9 -9 -9 -9 -9 -9 -9 -9 -9 -9 -9 -9 -9 -9 -9 -9 -9 -8 -8 -7 3 48 112 80 45 42 38 0 -5 -5 -5 -5 43 
43 -5 -8 -9 -9 -9 -9 -9 -9 -9 -9 -9 -9 -9 -9 -9 -9 -9 -9 -9 -9 -9 -9 -9 -9 -9 -9 -9 -9 -9 -9 -9 -9 -9 -9 -9 -9 -9 -9 -9 -9 -9 -9 -9 -9 -9 -9 -9 -9 -9 -9 -9 -9 -9 -9 -9 -9 -9 -9 -9 -9 -8 -5 43 43 -5 -8 -9 -9 -9 -9 -9 -9 -9 -9 -9 -9 -9 -9 -9 -9 -9 -9 -9 -9 -9 -9 -9 -9 -9 -9 -9 -8 -8 -5 -5 0 41 77 76 46 43 45 75 75 45 42 38 3 46 
43 -5 -8 -8 -8 -8 -8 -8 -8 -9 -9 -9 -9 -9 -9 -9 -9 -9 -9 -9 -9 -9 -9 -9 -9 -9 -9 -9 -9 -9 -9 -9 -9 -9 -9 -9 -9 -9 -9 -9 -9 -9 -9 -9 -9 -9 -9 -9 -9 -9 -9 -9 -9 -9 -9 -9 -9 -9 -9 -9 -9 -8 -5 43 43 -5 -8 -9 -9 -9 -9 -9 -9 -9 -9 -9 -9 -9 -9 -9 -9 -9 -9 -9 -9 -9 -9 -9 -9 -8 -8 -8 -5 0 38 45 75 74 40 0 -5 -5 -5 0 38 42 45 75 77 86 
46 -2 -5 -5 -5 -5 -5 -5 -5 -8 -8 -8 -8 -8 -8 -8 -8 -9 -9 -9 -9 -9 -9 -9 -9 -9 -9 -9 -9 -9 -9 -9 -9 -9 -9 -9 -9 -9 -9 -9 -9 -9 -9 -9 -9 -9 -9 -9 -9 -9 -9 -9 -9 -9 -9 -9 -9 -9 -9 -9 -9 -8 -5 43 43 -5 -8 -9 -9 -9 -9 -9 -9 -9 -9 -9 -9 -9 -9 -9 -9 -9 -9 -9 -9 -9 -9 -8 -8 -5 -5 0 40 74 75 45 38 0 -5 -8 -8 -8 -8 -8 -5 -5 -5 0 41 84 
84 45 43 43 43 43 42 42 38 0 -5 -5 -5 -5 -5 -5 -5 -8 -8 -8 -8 -8 -8 -8 -8 -8 -9 -9 -9 -9 -9 -9 -9 -9 -9 -9 -9 -9 -9 -9 -9 -9 -9 -9 -9 -9 -9 -9 -9 -9 -9 -9 -9 -9 -9 -9 -9 -9 -9 -9 -9 -8 -5 43 43 -5 -8 -9 -9 -9 -9 -9 -9 -9 -9 -9 -9 -9 -9 -9 -9 -9 -9 -9 -8 -8 -8 -5 0 38 45 75 74 40 0 -5 -5 -8 -8 -9 -9 -9 -9 -9 -8 -8 -8 -8 -2 46 
84 45 43 43 43 43 43 45 75 75 45 43 43 43 42 42 38 0 -5 -5 -5 -5 -5 -5 -5 -5 -8 -8 -8 -8 -8 -8 -8 -8 -9 -9 -9 -9 -9 -9 -9 -9 -9 -9 -9 -9 -9 -9 -9 -9 -9 -9 -9 -9 -9 -9 -9 -9 -9 -9 -9 -8 -5 43 43 -5 -8 -9 -9 -9 -9 -9 -9 -9 -9 -9 -9 -9 -9 -9 -9 -9 -8 -8 -5 -5 0 40 74 75 45 38 0 -5 -8 -8 -8 -9 -9 -9 -9 -9 -9 -9 -9 -9 -9 -8 -5 43 
45 -2 -5 -5 -5 -5 -5 -5 0 38 42 42 43 43 43 45 75 75 45 43 43 43 43 42 42 38 0 -5 -5 -5 -5 -5 -5 -5 -8 -8 -8 -8 -8 -8 -8 -8 -8 -9 -9 -9 -9 -9 -9 -9 -9 -9 -9 -9 -9 -9 -9 -9 -9 -9 -9 -8 -5 43 43 -5 -8 -9 -9 -9 -9 -9 -9 -9 -9 -9 -9 -9 -9 -9 -8 -8 -5 0 38 45 75 74 40 0 -5 -5 -8 -8 -9 -9 -9 -9 -9 -9 -9 -9 -9 -9 -9 -9 -9 -8 -5 43 
43 -5 -8 -8 -8 -8 -8 -8 -8 -5 -5 -5 -5 -5 -5 -5 0 38 42 42 43 43 43 43 45 75 75 45 43 43 43 42 42 38 0 -5 -5 -5 -5 -5 -5 -5 -5 -8 -8 -8 -8 -8 -8 -8 -8 -9 -9 -9 -9 -9 -9 -9 -9 -9 -9 -8 -5 43 43 -5 -8 -9 -9 -9 -9 -9 -9 -9 -9 -9 -9 -8 -8 -8 -5 0 40 74 75 45 38 0 -5 -8 -8 -8 -9 -9 -9 -9 -9 -9 -9 -9 -9 -9 -9 -9 -9 -9 -9 -8 -5 43 
43 -5 -8 -9 -9 -9 -9 -9 -9 -8 -8 -8 -8 -8 -8 -8 -8 -5 -5 -5 -5 -5 -5 -5 -5 0 38 42 42 43 43 43 45 75 75 45 43 43 43 43 42 42 38 0 -5 -5 -5 -5 -5 -5 -5 -8 -8 -8 -8 -8 -8 -8 -8 -8 -9 -8 -5 43 43 -5 -8 -9 -9 -9 -9 -9 -9 -9 -9 -8 -8 -5 -5 0 40 74 74 40 0 -5 -5 -8 -8 -9 -9 -9 -9 -9 -9 -9 -9 -9 -9 -9 -9 -9 -9 -9 -9 -9 -9 -8 -5 43 
43 -5 -8 -9 -9 -9 -9 -9 -9 -9 -9 -9 -9 -9 -9 -9 -9 -8 -8 -8 -8 -8 -8 -8 -8 -8 -5 -5 -5 -5 -5 -5 -5 0 38 42 42 43 43 43 43 45 75 75 45 43 43 43 42 42 38 0 -5 -5 -5 -5 -5 -5 -5 -5 -8 -8 -5 43 43 -5 -8 -9 -9 -9 -9 -9 -8 -8 -8 -5 0 38 45 75 74 40 0 -5 -8 -8 -8 -9 -9 -9 -9 -9 -9 -9 -9 -9 -9 -9 -9 -9 -9 -9 -9 -9 -9 -9 -9 -8 -5 43 
43 -5 -8 -9 -9 -9 -9 -9 -9 -9 -9 -9 -9 -9 -9 -9 -9 -9 -9 -9 -9 -9 -9 -9 -9 -9 -8 -8 -8 -8 -8 -8 -8 -8 -5 -5 -5 -5 -5 -5 -5 -5 0 38 42 42 43 43 43 45 75 75 45 43 43 43 43 42 42 38 0 -5 -2 45 45 -5 -8 -9 -9 -9 -8 -8 -5 -5 0 40 74 75 45 38 0 -5 -8 -8 -9 -9 -9 -9 -9 -9 -9 -9 -9 -9 -9 -9 -9 -9 -9 -9 -9 -9 -9 -9 -9 -9 -9 -8 -5 43 
43 -5 -8 -9 -9 -9 -9 -9 -9 -9 -9 -9 -9 -9 -9 -9 -9 -9 -9 -9 -9 -9 -9 -9 -9 -9 -9 -9 -9 -9 -9 -9 -9 -9 -8 -8 -8 -8 -8 -8 -8 -8 -8 -5 -5 -5 -5 -5 -5 -5 0 38 42 42 43 43 43 43 45 75 75 45 45 84 80 2 -8 -8 -8 -8 -5 0 38 45 75 74 40 0 -5 -5 -8 -8 -9 -9 -9 -9 -9 -9 -9 -9 -9 -9 -9 -9 -9 -9 -9 -9 -9 -9 -9 -9 -9 -9 -9 -9 -9 -8 -5 43 
43 -5 -8 -9 -9 -9 -9 -9 -9 -9 -9 -9 -9 -9 -9 -9 -9 -9 -9 -9 -9 -9 -9 -9 -9 -9 -9 -9 -9 -9 -9 -9 -9 -9 -9 -9 -9 -9 -9 -9 -9 -9 -9 -8 -8 -8 -8 -8 -8 -8 -8 -5 -5 -5 -5 -5 -5 -5 -5 0 38 42 43 46 76 71 2 -5 -5 0 40 74 75 45 38 0 -5 -8 -8 -8 -9 -9 -9 -9 -9 -9 -9 -9 -9 -9 -9 -9 -9 -9 -9 -9 -9 -9 -9 -9 -9 -9 -9 -9 -9 -9 -9 -8 -5 43 
43 -5 -8 -9 -9 -9 -9 -9 -9 -9 -9 -9 -9 -9 -9 -9 -9 -9 -9 -9 -9 -9 -9 -9 -9 -9 -9 -9 -9 -9 -9 -9 -9 -9 -9 -9 -9 -9 -9 -9 -9 -9 -9 -9 -9 -9 -9 -9 -9 -9 -9 -8 -8 -8 -8 -8 -8 -8 -8 -8 -5 -5 -5 -5 2 71 76 46 45 75 74 40 0 -5 -5 -8 -8 -9 -9 -9 -9 -9 -9 -9 -9 -9 -9 -9 -9 -9 -9 -9 -9 -9 -9 -9 -9 -9 -9 -9 -9 -9 -9 -9 -9 -9 -9 -8 -5 43 
43 -5 -8 -9 -9 -9 -9 -9 -9 -9 -9 -9 -9 -9 -9 -9 -9 -9 -9 -9 -9 -9 -9 -9 -9 -9 -9 -9 -9 -9 -9 -9 -9 -9 -9 -9 -9 -9 -9 -9 -9 -9 -9 -9 -9 -9 -9 -9 -9 -9 -9 -9 -9 -9 -9 -9 -9 -9 -9 -9 -8 -8 -8 -8 -8 2 80 84 45 38 0 -5 -8 -8 -8 -9 -9 -9 -9 -9 -9 -9 -9 -9 -9 -9 -9 -9 -9 -9 -9 -9 -9 -9 -9 -9 -9 -9 -9 -9 -9 -9 -9 -9 -9 -9 -9 -8 -5 43 
43 -5 -8 -9 -9 -9 -9 -9 -9 -9 -9 -9 -9 -9 -9 -9 -9 -9 -9 -9 -9 -9 -9 -9 -9 -9 -9 -9 -9 -9 -9 -9 -9 -9 -9 -9 -9 -9 -9 -9 -9 -9 -9 -9 -9 -9 -9 -9 -9 -9 -9 -9 -9 -9 -9 -9 -9 -9 -9 -9 -9 -9 -9 -9 -8 -5 45 45 -2 -5 -8 -8 -9 -9 -9 -9 -9 -9 -9 -9 -9 -9 -9 -9 -9 -9 -9 -9 -9 -9 -9 -9 -9 -9 -9 -9 -9 -9 -9 -9 -9 -9 -9 -9 -9 -9 -9 -8 -5 43 
43 -5 -8 -9 -9 -9 -9 -9 -9 -9 -9 -9 -9 -9 -9 -9 -9 -9 -9 -9 -9 -9 -9 -9 -9 -9 -9 -9 -9 -9 -9 -9 -9 -9 -9 -9 -9 -9 -9 -9 -9 -9 -9 -9 -9 -9 -9 -9 -9 -9 -9 -9 -9 -9 -9 -9 -9 -9 -9 -9 -9 -9 -9 -9 -8 -5 43 43 -5 -8 -9 -9 -9 -9 -9 -9 -9 -9 -9 -9 -9 -9 -9 -9 -9 -9 -9 -9 -9 -9 -9 -9 -9 -9 -9 -9 -9 -9 -9 -9 -9 -9 -9 -9 -9 -9 -9 -8 -5 43 
43 -5 -8 -8 -8 -8 -8 -8 -8 -8 -8 -8 -8 -8 -8 -8 -8 -8 -8 -8 -8 -8 -8 -8 -8 -8 -8 -8 -8 -8 -8 -8 -8 -8 -8 -8 -8 -8 -8 -8 -8 -8 -8 -8 -8 -8 -8 -8 -8 -8 -8 -8 -8 -8 -8 -8 -8 -8 -8 -8 -8 -8 -8 -8 -8 -5 43 43 -5 -8 -8 -8 -8 -8 -8 -8 -8 -8 -8 -8 -8 -8 -8 -8 -8 -8 -8 -8 -8 -8 -8 -8 -8 -8 -8 -8 -8 -8 -8 -8 -8 -8 -8 -8 -8 -8 -8 -8 -5 43 
45 -2 -5 -5 -5 -5 -5 -5 -5 -5 -5 -5 -5 -5 -5 -5 -5 -5 -5 -5 -5 -5 -5 -5 -5 -5 -5 -5 -5 -5 -5 -5 -5 -5 -5 -5 -5 -5 -5 -5 -5 -5 -5 -5 -5 -5 -5 -5 -5 -5 -5 -5 -5 -5 -5 -5 -5 -5 -5 -5 -5 -5 -5 -5 -5 -2 45 45 -2 -5 -5 -5 -5 -5 -5 -5 -5 -5 -5 -5 -5 -5 -5 -5 -5 -5 -5 -5 -5 -5 -5 -5 -5 -5 -5 -5 -5 -5 -5 -5 -5 -5 -5 -5 -5 -5 -5 -5 -2 45 
85 45 43 43 43 43 43 43 43 43 43 43 43 43 43 43 43 43 43 43 43 43 43 43 43 43 43 43 43 43 43 43 43 43 43 43 43 43 43 43 43 43 43 43 43 43 43 43 43 43 43 43 43 43 43 43 43 43 43 43 43 43 43 43 43 45 84 84 45 43 43 43 43 43 43 43 43 43 43 43 43 43 43 43 43 43 43 43 43 43 43 43 43 43 43 43 43 43 43 43 43 43 43 43 43 43 43 43 45 85 
