P2
110 110
255
99 56 52 52 52 52 52 52 52 52 52 52 52 52 52 52 52 52 52 52 52 52 52 52 52 52 52 52 52 52 52 53 67 126 92 55 52 52 52 52 52 52 52 52 52 52 52 52 56 98 98 56 52 52 52 52 52 52 52 52 52 52 52 52 52 52 53 53 52 52 52 52 52 52 52 52 52 52 52 52 52 52 52 52 52 52 52 52 52 52 52 63 126 92 55 52 52 52 52 52 52 52 52 63 126 92 55 52 56 99 
56 2 -3 -3 -3 -3 -3 -3 -3 -3 -3 -3 -3 -3 -3 -3 -3 -3 -3 -3 -3 -3 -3 -3 -3 -3 -3 -3 -3 -3 -2 9 84 81 9 -2 -3 -3 -3 -3 -3 -3 -3 -3 -3 -3 -3 -3 2 56 56 2 -3 -3 -3 -3 -3 -3 -3 -3 -3 -3 -3 -3 -3 -3 -3 -3 -3 -3 -3 -3 -3 -3 -3 -3 -3 -3 -3 -3 -3 -3 -3 -3 -3 -3 -3 -3 -3 -3 2 53 86 9 -2 -3 -3 -3 -3 -3 -3 -3 1 50 86 9 -2 -2 2 56 
52 -3 -8 -8 -8 -8 -8 -8 -8 -8 -8 -8 -8 -8 -8 -8 -8 -8 -8 -8 -8 -8 -8 -8 -8 -8 -8 -8 -8 -8 -2 49 85 8 -6 -8 -8 -8 -8 -8 -8 -8 -8 -8 -8 -8 -8 -8 -2 55 52 -3 -8 -8 -8 -8 -8 -8 -8 -8 -8 -8 -8 -8 -8 -8 -8 -8 -8 -8 -8 -8 -8 -8 -8 -8 -8 -8 -8 -8 -8 -8 -8 -8 -8 -8 -8 -8 -8 -7 5 85 48 -3 -8 -8 -8 -8 -8 -8 -8 -8 -3 52 55 -2 -8 -8 -3 52 
52 -3 -8 -8 -8 -8 -8 -8 -8 -8 -8 -8 -8 -8 -8 -8 -8 -8 -8 -8 -8 -8 -8 -8 -8 -8 -8 -8 -8 -7 8 85 48 -3 -8 -8 -8 -8 -8 -8 -8 -8 -8 -8 -8 -8 -8 -7 5 92 53 -3 -8 -8 -8 -8 -8 -8 -8 -8 -8 -8 -8 -8 -8 -8 -8 -8 -8 -8 -8 -8 -8 -8 -8 -8 -8 -8 -8 -8 -8 -8 -8 -8 -8 -8 -8 -8 -8 -3 45 85 5 -7 -8 -8 -8 -8 -8 -8 -8 -8 -2 55 51 -3 -8 -8 -3 52 
52 -3 -8 -8 -8 -8 -8 -8 -8 -8 -8 -8 -8 -8 -8 -8 -8 -8 -8 -8 -8 -8 -8 -8 -8 -8 -8 -8 -7 4 80 80 4 -7 -8 -8 -8 -8 -8 -8 -8 -8 -8 -8 -8 -8 -8 -3 49 130 53 -3 -8 -8 -8 -8 -8 -8 -8 -8 -8 -8 -8 -8 -8 -8 -8 -8 -8 -8 -8 -8 -8 -8 -8 -8 -8 -8 -8 -8 -8 -8 -8 -8 -8 -8 -8 -8 -8 -2 54 54 -2 -8 -8 -8 -8 -8 -8 -8 -8 -7 4 85 45 -3 -8 -8 -3 52 
52 -3 -8 -8 -8 -8 -8 -8 -8 -8 -8 -8 -8 -8 -8 -8 -8 -8 -8 -8 -8 -8 -8 -8 -8 -8 -8 -8 -3 48 85 8 -7 -8 -8 -8 -8 -8 -8 -8 -8 -8 -8 -8 -8 -8 -7 5 86 101 52 -3 -8 -8 -8 -8 -8 -8 -8 -8 -8 -8 -8 -8 -8 -8 -8 -8 -8 -8 -8 -8 -8 -8 -8 -8 -8 -8 -8 -8 -8 -8 -8 -8 -8 -8 -8 -8 -7 5 85 45 -3 -8 -8 -8 -8 -8 -8 -8 -8 -3 45 85 4 -7 -8 -8 -3 52 
52 -3 -8 -8 -8 -8 -8 -8 -8 -8 -8 -8 -8 -8 -8 -8 -8 -8 -8 -8 -8 -8 -8 -8 -8 -8 -8 -7 8 85 48 -3 -8 -8 -8 -8 -8 -8 -8 -8 -8 -8 -8 -8 -8 -8 -3 48 89 64 52 -3 -8 -8 -8 -8 -8 -8 -8 -8 -8 -8 -8 -8 -8 -8 -8 -8 -8 -8 -8 -8 -8 -8 -8 -8 -8 -8 -8 -8 -8 -8 -8 -8 -8 -8 -8 -8 -3 48 84 4 -7 -8 -8 -8 -8 -8 -8 -8 -8 -3 51 55 -2 -8 -8 -8 -3 52 
52 -3 -8 -8 -8 -8 -8 -8 -8 -8 -8 -8 -8 -8 -8 -8 -8 -8 -8 -8 -8 -8 -8 -8 -8 -8 -7 4 80 80 4 -7 -8 -8 -8 -8 -8 -8 -8 -8 -8 -8 -8 -8 -8 -7 5 84 53 56 55 -2 -8 -8 -8 -8 -8 -8 -8 -8 -8 -8 -8 -8 -8 -8 -8 -8 -8 -8 -8 -8 -8 -8 -8 -8 -8 -8 -8 -8 -8 -8 -8 -8 -8 -8 -8 -7 4 84 48 -3 -8 -8 -8 -8 -8 -8 -8 -8 -8 -2 55 51 -3 -8 -8 -8 -3 52 
52 -3 -8 -8 -8 -8 -8 -8 -8 -8 -8 -8 -8 -8 -8 -8 -8 -8 -8 -8 -8 -8 -8 -8 -8 -8 -3 48 85 8 -7 -8 -8 -8 -8 -8 -8 -8 -8 -8 -8 -8 -8 -8 -8 -3 48 85 9 46 85 4 -7 -8 -8 -8 -8 -8 -8 -8 -8 -8 -8 -8 -8 -8 -8 -8 -8 -8 -8 -8 -8 -8 -8 -8 -8 -8 -8 -8 -8 -8 -8 -8 -8 -8 -8 -3 45 85 5 -7 -8 -8 -8 -8 -8 -8 -8 -8 -7 4 85 45 -3 -8 -8 -8 -3 52 
52 -3 -8 -8 -8 -8 -8 -8 -8 -8 -8 -8 -8 -8 -8 -8 -8 -8 -8 -8 -8 -8 -8 -8 -8 -7 8 85 48 -3 -8 -8 -8 -8 -8 -8 -8 -8 -8 -8 -8 -8 -8 -8 -7 8 85 48 -2 5 85 45 -3 -8 -8 -8 -8 -8 -8 -8 -8 -8 -8 -8 -8 -8 -8 -8 -8 -8 -8 -8 -8 -8 -8 -8 -8 -8 -8 -8 -8 -8 -8 -8 -8 -8 -8 -2 54 54 -2 -8 -8 -8 -8 -8 -8 -8 -8 -8 -3 45 85 4 -7 -8 -8 -8 -3 52 
52 -3 -8 -8 -8 -8 -8 -8 -8 -8 -8 -8 -8 -8 -8 -8 -8 -8 -8 -8 -8 -8 -8 -8 -7 4 80 80 4 -7 -8 -8 -8 -8 -8 -8 -8 -8 -8 -8 -8 -8 -8 -7 4 80 80 4 -7 -2 55 51 -3 -8 -8 -8 -8 -8 -8 -8 -8 -8 -8 -8 -8 -8 -8 -8 -8 -8 -8 -8 -8 -8 -8 -8 -8 -8 -8 -8 -8 -8 -8 -8 -8 -8 -7 5 85 45 -3 -8 -8 -8 -8 -8 -8 -8 -8 -8 -3 51 55 -2 -8 -8 -8 -8 -3 52 
52 -3 -8 -8 -8 -8 -8 -8 -8 -8 -8 -8 -8 -8 -8 -8 -8 -8 -8 -8 -8 -8 -8 -8 -3 48 85 8 -7 -8 -8 -8 -8 -8 -8 -8 -8 -8 -8 -8 -8 -8 -8 -3 48 85 8 -7 -8 -3 52 52 -3 -8 -8 -8 -8 -8 -8 -8 -8 -8 -8 -8 -8 -8 -8 -8 -8 -8 -8 -8 -8 -8 -8 -8 -8 -8 -8 -8 -8 -8 -8 -8 -8 -8 -3 48 84 4 -7 -8 -8 -8 -8 -8 -8 -8 -8 -8 -2 55 51 -3 -8 -8 -8 -8 -3 52 
52 -3 -8 -8 -8 -8 -8 -8 -8 -8 -8 -8 -8 -8 -8 -8 -8 -8 -8 -8 -8 -8 -8 -7 8 85 48 -3 -8 -8 -8 -8 -8 -8 -8 -8 -8 -8 -8 -8 -8 -8 -7 5 84 48 -3 -8 -8 -3 52 52 -3 -8 -8 -8 -8 -8 -8 -8 -8 -8 -8 -8 -8 -8 -8 -8 -8 -8 -8 -8 -8 -8 -8 -8 -8 -8 -8 -8 -8 -8 -8 -8 -8 -7 4 84 48 -3 -8 -8 -8 -8 -8 -8 -8 -8 -8 -7 4 85 45 -3 -8 -8 -8 -8 -3 52 
55 -2 -8 -8 -8 -8 -8 -8 -8 -8 -8 -8 -8 -8 -8 -8 -8 -8 -8 -8 -8 -8 -7 4 80 80 4 -7 -8 -8 -8 -8 -8 -8 -8 -8 -8 -8 -8 -8 -8 -8 -3 48 84 5 -7 -8 -8 -3 52 52 -3 -8 -8 -8 -8 -8 -8 -8 -8 -8 -8 -8 -8 -8 -8 -8 -8 -8 -8 -8 -8 -8 -8 -8 -8 -8 -8 -8 -8 -8 -8 -8 -8 -3 45 85 5 -7 -8 -8 -8 -8 -8 -8 -8 -8 -8 -3 45 85 4 -7 -8 -8 -8 -8 -3 52 
92 9 -6 -8 -8 -8 -8 -8 -8 -8 -8 -8 -8 -8 -8 -8 -8 -8 -8 -8 -8 -8 -3 48 85 8 -7 -8 -8 -8 -8 -8 -8 -8 -8 -8 -8 -8 -8 -8 -8 -7 5 84 48 -3 -8 -8 -8 -3 51 55 -2 -8 -8 -8 -8 -8 -8 -8 -8 -8 -8 -8 -8 -8 -8 -8 -8 -8 -8 -8 -8 -8 -8 -8 -8 -8 -8 -8 -8 -8 -8 -8 -8 -2 54 54 -2 -8 -8 -8 -8 -8 -8 -8 -8 -8 -8 -3 51 55 -2 -8 -8 -8 -8 -8 -3 53 
126 81 8 -7 -8 -8 -8 -8 -8 -8 -8 -8 -8 -8 -8 -8 -8 -8 -8 -8 -8 -7 8 85 48 -3 -8 -8 -8 -8 -8 -8 -8 -8 -8 -8 -8 -8 -8 -8 -8 -3 48 84 5 -7 -8 -8 -8 -3 45 85 4 -7 -8 -8 -8 -8 -8 -8 -8 -8 -8 -8 -8 -8 -8 -8 -8 -8 -8 -8 -8 -8 -8 -8 -8 -8 -8 -8 -8 -8 -8 -8 -7 5 85 45 -3 -8 -8 -8 -8 -8 -8 -8 -8 -8 -8 -2 55 51 -3 -8 -8 -8 -8 -8 -3 53 
67 85 80 8 -7 -8 -8 -8 -8 -8 -8 -8 -8 -8 -8 -8 -8 -8 -8 -8 -7 4 80 80 4 -7 -8 -8 -8 -8 -8 -8 -8 -8 -8 -8 -8 -8 -8 -8 -7 8 85 48 -3 -8 -8 -8 -8 -7 4 85 45 -3 -8 -8 -8 -8 -8 -8 -8 -8 -8 -8 -8 -8 -8 -8 -8 -8 -8 -8 -8 -8 -8 -8 -8 -8 -8 -8 -8 -8 -8 -8 -3 48 84 4 -7 -8 -8 -8 -8 -8 -8 -8 -8 -8 -7 4 85 45 -3 -8 -8 -8 -8 -8 -3 52 
53 13 80 80 4 -7 -8 -8 -8 -8 -8 -8 -8 -8 -8 -8 -8 -8 -8 -8 -3 48 85 8 -7 -8 -8 -8 -8 -8 -8 -8 -8 -8 -8 -8 -8 -8 -8 -7 4 80 80 4 -7 -8 -8 -8 -8 -8 -2 55 51 -3 -8 -8 -8 -8 -8 -8 -8 -8 -8 -8 -8 -8 -8 -8 -8 -8 -8 -8 -8 -8 -8 -8 -8 -8 -8 -8 -8 -8 -8 -7 4 84 48 -3 -8 -8 -8 -8 -8 -8 -8 -8 -8 -8 -3 45 85 4 -7 -8 -8 -8 -8 -8 -3 52 
52 -1 9 85 48 -3 -8 -8 -8 -8 -8 -8 -8 -8 -8 -8 -8 -8 -8 -7 8 85 48 -3 -8 -8 -8 -8 -8 -8 -8 -8 -8 -8 -8 -8 -8 -8 -8 -3 48 85 8 -7 -8 -8 -8 -8 -8 -8 -3 52 52 -3 -8 -8 -8 -8 -8 -8 -8 -8 -8 -8 -8 -8 -8 -8 -8 -8 -8 -8 -8 -8 -8 -8 -8 -8 -8 -8 -8 -8 -8 -3 45 85 5 -7 -8 -8 -8 -8 -8 -8 -8 -8 -8 -8 -3 51 55 -2 -8 -8 -8 -8 -8 -8 -3 52 
52 -2 -2 48 85 8 -6 -8 -8 -8 -8 -8 -8 -8 -8 -8 -8 -8 -7 4 80 80 4 -7 -8 -8 -8 -8 -8 -8 -8 -8 -8 -8 -8 -8 -8 -8 -7 5 84 48 -3 -8 -8 -8 -8 -8 -8 -8 -3 52 52 -3 -8 -8 -8 -8 -8 -8 -8 -8 -8 -8 -8 -8 -8 -8 -8 -8 -8 -8 -8 -8 -8 -8 -8 -8 -8 -8 -8 -8 -8 -2 54 54 -2 -8 -8 -8 -8 -8 -8 -8 -8 -8 -8 -8 -2 55 51 -3 -8 -8 -8 -8 -8 -8 -3 52 
52 -3 -7 4 80 80 8 -7 -8 -8 -8 -8 -8 -8 -8 -8 -8 -8 -3 48 85 8 -7 -8 -8 -8 -8 -8 -8 -8 -8 -8 -8 -8 -8 -8 -8 -8 -3 48 84 5 -7 -8 -8 -8 -8 -8 -8 -8 -3 52 52 -3 -8 -8 -8 -8 -8 -8 -8 -8 -8 -8 -8 -8 -8 -8 -8 -8 -8 -8 -8 -8 -8 -8 -8 -8 -8 -8 -8 -8 -7 5 85 45 -3 -8 -8 -8 -8 -8 -8 -8 -8 -8 -8 -7 4 85 45 -3 -8 -8 -8 -8 -8 -8 -3 52 
52 -3 -8 -7 8 80 80 8 -7 -8 -8 -8 -8 -8 -8 -8 -8 -7 8 85 48 -3 -8 -8 -8 -8 -8 -8 -8 -8 -8 -8 -8 -8 -8 -8 -8 -7 5 84 48 -3 -8 -8 -8 -8 -8 -8 -8 -8 -3 51 55 -2 -8 -8 -8 -8 -8 -8 -8 -8 -8 -8 -8 -8 -8 -8 -8 -8 -8 -8 -8 -8 -8 -8 -8 -8 -8 -8 -8 -8 -3 48 84 4 -7 -8 -8 -8 -8 -8 -8 -8 -8 -8 -8 -3 45 85 4 -7 -8 -8 -8 -8 -8 -8 -3 52 
52 -3 -8 -8 -7 8 80 80 8 -7 -8 -8 -8 -8 -8 -8 -7 4 80 80 4 -7 -8 -8 -8 -8 -8 -8 -8 -8 -8 -8 -8 -8 -8 -8 -8 -3 48 84 5 -7 -8 -8 -8 -8 -8 -8 -8 -8 -3 45 85 4 -7 -8 -8 -8 -8 -8 -8 -8 -8 -8 -8 -8 -8 -8 -8 -8 -8 -8 -8 -8 -8 -8 -8 -8 -8 -8 -8 -7 4 84 48 -3 -8 -8 -8 -8 -8 -8 -8 -8 -8 -8 -8 -3 51 55 -2 -8 -8 -8 -8 -8 -8 -8 -3 52 
52 -3 -8 -8 -8 -7 8 80 80 8 -7 -8 -8 -8 -8 -8 -3 48 85 8 -7 -8 -8 -8 -8 -8 -8 -8 -8 -8 -8 -8 -8 -8 -8 -8 -7 8 85 48 -3 -8 -8 -8 -8 -8 -8 -8 -8 -8 -7 4 85 45 -3 -8 -8 -8 -8 -8 -8 -8 -8 -8 -8 -8 -8 -8 -8 -8 -8 -8 -8 -8 -8 -8 -8 -8 -8 -8 -8 -3 45 85 5 -7 -8 -8 -8 -8 -8 -8 -8 -8 -8 -8 -8 -2 55 51 -3 -8 -8 -8 -8 -8 -8 -8 -3 52 
52 -3 -8 -8 -8 -8 -7 8 80 80 8 -7 -8 -8 -8 -7 8 85 48 -3 -8 -8 -8 -8 -8 -8 -8 -8 -8 -8 -8 -8 -8 -8 -8 -7 4 80 80 4 -7 -8 -8 -8 -8 -8 -8 -8 -8 -8 -8 -2 55 51 -3 -8 -8 -8 -8 -8 -8 -8 -8 -8 -8 -8 -8 -8 -8 -8 -8 -8 -8 -8 -8 -8 -8 -8 -8 -8 -8 -2 54 54 -2 -8 -8 -8 -8 -8 -8 -8 -8 -8 -8 -8 -7 4 85 45 -3 -8 -8 -8 -8 -8 -8 -8 -3 52 
52 -3 -8 -8 -8 -8 -8 -7 8 80 80 8 -7 -8 -7 4 80 80 4 -7 -8 -8 -8 -8 -8 -8 -8 -8 -8 -8 -8 -8 -8 -8 -8 -3 48 85 8 -7 -8 -8 -8 -8 -8 -8 -8 -8 -8 -8 -8 -3 52 52 -3 -8 -8 -8 -8 -8 -8 -8 -8 -8 -8 -8 -8 -8 -8 -8 -8 -8 -8 -8 -8 -8 -8 -8 -8 -8 -7 5 85 45 -3 -8 -8 -8 -8 -8 -8 -8 -8 -8 -8 -8 -3 45 85 4 -7 -8 -8 -8 -8 -8 -8 -8 -3 52 
52 -3 -8 -8 -8 -8 -8 -8 -7 8 80 80 8 -6 -2 48 85 8 -7 -8 -8 -8 -8 -8 -8 -8 -8 -8 -8 -8 -8 -8 -8 -8 -7 5 84 48 -3 -8 -8 -8 -8 -8 -8 -8 -8 -8 -8 -8 -8 -3 52 52 -3 -8 -8 -8 -8 -8 -8 -8 -8 -8 -8 -8 -8 -8 -8 -8 -8 -8 -8 -8 -8 -8 -8 -8 -8 -8 -3 48 84 4 -7 -8 -8 -8 -8 -8 -8 -8 -8 -8 -8 -8 -3 51 55 -2 -8 -8 -8 -8 -8 -8 -8 -8 -3 52 
52 -3 -8 -8 -8 -8 -8 -8 -8 -7 8 80 80 9 10 85 48 -3 -8 -8 -8 -8 -8 -8 -8 -8 -8 -8 -8 -8 -8 -8 -8 -8 -3 48 84 5 -7 -8 -8 -8 -8 -8 -8 -8 -8 -8 -8 -8 -8 -3 51 55 -2 -8 -8 -8 -8 -8 -8 -8 -8 -8 -8 -8 -8 -8 -8 -8 -8 -8 -8 -8 -8 -8 -8 -8 -8 -7 4 84 48 -3 -8 -8 -8 -8 -8 -8 -8 -8 -8 -8 -8 -8 -2 55 51 -3 -8 -8 -8 -8 -8 -8 -8 -8 -3 52 
52 -3 -8 -8 -8 -8 -8 -8 -8 -8 -7 8 80 90 90 80 4 -7 -8 -8 -8 -8 -8 -8 -8 -8 -8 -8 -8 -8 -8 -8 -8 -7 5 84 48 -3 -8 -8 -8 -8 -8 -8 -8 -8 -8 -8 -8 -8 -8 -3 45 85 4 -7 -8 -8 -8 -8 -8 -8 -8 -8 -8 -8 -8 -8 -8 -8 -8 -8 -8 -8 -8 -8 -8 -8 -8 -3 45 85 5 -7 -8 -8 -8 -8 -8 -8 -8 -8 -8 -8 -8 -7 4 85 45 -3 -8 -8 -8 -8 -8 -8 -8 -8 -3 52 
52 -3 -8 -8 -8 -8 -8 -8 -8 -8 -8 -6 9 92 92 9 -7 -8 -8 -8 -8 -8 -8 -8 -8 -8 -8 -8 -8 -8 -8 -8 -8 -3 48 84 5 -7 -8 -8 -8 -8 -8 -8 -8 -8 -8 -8 -8 -8 -8 -7 4 85 45 -3 -8 -8 -8 -8 -8 -8 -8 -8 -8 -8 -8 -8 -8 -8 -8 -8 -8 -8 -8 -8 -8 -8 -8 -2 54 54 -2 -8 -8 -8 -8 -8 -8 -8 -8 -8 -8 -8 -8 -3 45 85 4 -7 -8 -8 -8 -8 -8 -8 -8 -8 -3 52 
52 -3 -8 -8 -8 -8 -8 -8 -8 -8 -8 -8 -2 55 56 -2 -8 -8 -8 -8 -8 -8 -8 -8 -8 -8 -8 -8 -8 -8 -8 -8 -7 8 85 48 -3 -8 -8 -8 -8 -8 -8 -8 -8 -8 -8 -8 -8 -8 -8 -8 -2 55 51 -3 -8 -8 -8 -8 -8 -8 -8 -8 -8 -8 -8 -8 -8 -8 -8 -8 -8 -8 -8 -8 -8 -8 -7 5 85 45 -3 -8 -8 -8 -8 -8 -8 -8 -8 -8 -8 -8 -8 -3 51 55 -2 -8 -8 -8 -8 -8 -8 -8 -8 -8 -3 52 
52 -3 -8 -8 -8 -8 -8 -8 -8 -8 -8 -8 -3 51 55 -2 -8 -8 -8 -8 -8 -8 -8 -8 -8 -8 -8 -8 -8 -8 -8 -7 4 80 80 4 -7 -8 -8 -8 -8 -8 -8 -8 -8 -8 -8 -8 -8 -8 -8 -8 -3 52 52 -3 -8 -8 -8 -8 -8 -8 -8 -8 -8 -8 -8 -8 -8 -8 -8 -8 -8 -8 -8 -8 -8 -8 -3 48 84 4 -7 -8 -8 -8 -8 -8 -8 -8 -8 -8 -8 -8 -8 -2 55 51 -3 -8 -8 -8 -8 -8 -8 -8 -8 -8 -3 52 
52 -3 -8 -8 -8 -8 -8 -8 -8 -8 -8 -8 -3 45 85 4 -7 -8 -8 -8 -8 -8 -8 -8 -8 -8 -8 -8 -8 -8 -8 -3 48 85 8 -7 -8 -8 -8 -8 -8 -8 -8 -8 -8 -8 -8 -8 -8 -8 -8 -8 -3 52 52 -3 -8 -8 -8 -8 -8 -8 -8 -8 -8 -8 -8 -8 -8 -8 -8 -8 -8 -8 -8 -8 -8 -7 4 84 48 -3 -8 -8 -8 -8 -8 -8 -8 -8 -8 -8 -8 -8 -7 4 85 45 -3 -8 -8 -8 -8 -8 -8 -8 -8 -8 -3 52 
52 -3 -8 -8 -8 -8 -8 -8 -8 -8 -8 -8 -7 4 85 45 -3 -8 -8 -8 -8 -8 -8 -8 -8 -8 -8 -8 -8 -8 -7 5 84 48 -3 -8 -8 -8 -8 -8 -8 -8 -8 -8 -8 -8 -8 -8 -8 -8 -8 -8 -3 52 52 -3 -8 -8 -8 -8 -8 -8 -8 -8 -8 -8 -8 -8 -8 -8 -8 -8 -8 -8 -8 -8 -8 -3 45 85 5 -7 -8 -8 -8 -8 -8 -8 -8 -8 -8 -8 -8 -8 -3 45 85 4 -7 -8 -8 -8 -8 -8 -8 -8 -8 -8 -3 52 
52 -3 -8 -8 -8 -8 -8 -8 -8 -8 -8 -8 -8 -2 55 51 -3 -8 -8 -8 -8 -8 -8 -8 -8 -8 -8 -8 -8 -8 -3 48 84 5 -7 -8 -8 -8 -8 -8 -8 -8 -8 -8 -8 -8 -8 -8 -8 -8 -8 -8 -3 51 55 -2 -8 -8 -8 -8 -8 -8 -8 -8 -8 -8 -8 -8 -8 -8 -8 -8 -8 -8 -8 -8 -8 -2 54 54 -2 -8 -8 -8 -8 -8 -8 -8 -8 -8 -8 -8 -8 -8 -3 51 55 -2 -8 -8 -8 -8 -8 -8 -8 -8 -8 -8 -3 52 
52 -3 -8 -8 -8 -8 -8 -8 -8 -8 -8 -8 -8 -3 52 52 -3 -8 -8 -8 -8 -8 -8 -8 -8 -8 -8 -8 -8 -7 5 84 48 -3 -8 -8 -8 -8 -8 -8 -8 -8 -8 -8 -8 -8 -8 -8 -8 -8 -8 -8 -3 45 85 4 -7 -8 -8 -8 -8 -8 -8 -8 -8 -8 -8 -8 -8 -8 -8 -8 -8 -8 -8 -8 -7 5 85 45 -3 -8 -8 -8 -8 -8 -8 -8 -8 -8 -8 -8 -8 -8 -2 55 51 -3 -8 -8 -8 -8 -8 -8 -8 -8 -8 -8 -3 52 
52 -3 -8 -8 -8 -8 -8 -8 -8 -8 -8 -8 -8 -3 51 55 -2 -8 -8 -8 -8 -8 -8 -8 -8 -8 -8 -8 -8 -3 48 84 5 -7 -8 -8 -8 -8 -8 -8 -8 -8 -8 -8 -8 -8 -8 -8 -8 -8 -8 -8 -7 4 85 45 -3 -8 -8 -8 -8 -8 -8 -8 -8 -8 -8 -8 -8 -8 -8 -8 -8 -8 -8 -8 -3 48 84 4 -7 -8 -8 -8 -8 -8 -8 -8 -8 -8 -8 -8 -8 -7 4 85 45 -3 -8 -8 -8 -8 -8 -8 -8 -8 -8 -8 -2 55 
53 -3 -8 -8 -8 -8 -8 -8 -8 -8 -8 -8 -8 -3 45 85 4 -7 -8 -8 -8 -8 -8 -8 -8 -8 -8 -8 -7 8 85 48 -3 -8 -8 -8 -8 -8 -8 -8 -8 -8 -8 -8 -8 -8 -8 -8 -8 -8 -8 -8 -8 -2 55 51 -3 -8 -8 -8 -8 -8 -8 -8 -8 -8 -8 -8 -8 -8 -8 -8 -8 -8 -8 -7 4 84 48 -3 -8 -8 -8 -8 -8 -8 -8 -8 -8 -8 -8 -8 -8 -3 45 85 4 -7 -8 -8 -8 -8 -8 -8 -8 -8 -8 -7 5 92 
53 -3 -8 -8 -8 -8 -8 -8 -8 -8 -8 -8 -8 -7 4 85 45 -3 -8 -8 -8 -8 -8 -8 -8 -8 -8 -7 4 80 80 4 -7 -8 -8 -8 -8 -8 -8 -8 -8 -8 -8 -8 -8 -8 -8 -8 -8 -8 -8 -8 -8 -3 52 52 -3 -8 -8 -8 -8 -8 -8 -8 -8 -8 -8 -8 -8 -8 -8 -8 -8 -8 -8 -3 45 85 5 -7 -8 -8 -8 -8 -8 -8 -8 -8 -8 -8 -8 -8 -8 -3 51 55 -2 -8 -8 -8 -8 -8 -8 -8 -8 -8 -8 -3 49 130 
52 -3 -8 -8 -8 -8 -8 -8 -8 -8 -8 -8 -8 -8 -2 55 51 -3 -8 -8 -8 -8 -8 -8 -8 -8 -8 -3 48 85 8 -7 -8 -8 -8 -8 -8 -8 -8 -8 -8 -8 -8 -8 -8 -8 -8 -8 -8 -8 -8 -8 -8 -3 52 52 -3 -8 -8 -8 -8 -8 -8 -8 -8 -8 -8 -8 -8 -8 -8 -8 -8 -8 -8 -2 54 54 -2 -8 -8 -8 -8 -8 -8 -8 -8 -8 -8 -8 -8 -8 -8 -2 55 51 -3 -8 -8 -8 -8 -8 -8 -8 -8 -8 -7 8 86 101 
52 -3 -8 -8 -8 -8 -8 -8 -8 -8 -8 -8 -8 -8 -3 52 52 -3 -8 -8 -8 -8 -8 -8 -8 -8 -7 5 84 48 -3 -8 -8 -8 -8 -8 -8 -8 -8 -8 -8 -8 -8 -8 -8 -8 -8 -8 -8 -8 -8 -8 -8 -3 52 52 -3 -8 -8 -8 -8 -8 -8 -8 -8 -8 -8 -8 -8 -8 -8 -8 -8 -8 -7 5 85 45 -3 -8 -8 -8 -8 -8 -8 -8 -8 -8 -8 -8 -8 -8 -7 4 85 45 -3 -8 -8 -8 -8 -8 -8 -8 -8 -7 4 80 84 63 
52 -3 -8 -8 -8 -8 -8 -8 -8 -8 -8 -8 -8 -8 -3 51 55 -2 -8 -8 -8 -8 -8 -8 -8 -8 -3 48 84 5 -7 -8 -8 -8 -8 -8 -8 -8 -8 -8 -8 -8 -8 -8 -8 -8 -8 -8 -8 -8 -8 -8 -8 -3 51 55 -2 -8 -8 -8 -8 -8 -8 -8 -8 -8 -8 -8 -8 -8 -8 -8 -8 -8 -3 48 84 4 -7 -8 -8 -8 -8 -8 -8 -8 -8 -8 -8 -8 -8 -8 -3 45 85 4 -7 -8 -8 -8 -8 -8 -8 -8 -8 -3 48 85 14 53 
52 -3 -8 -8 -8 -8 -8 -8 -8 -8 -8 -8 -8 -8 -3 45 85 4 -7 -8 -8 -8 -8 -8 -8 -7 5 84 48 -3 -8 -8 -8 -8 -8 -8 -8 -8 -8 -8 -8 -8 -8 -8 -8 -8 -8 -8 -8 -8 -8 -8 -8 -3 45 85 4 -7 -8 -8 -8 -8 -8 -8 -8 -8 -8 -8 -8 -8 -8 -8 -8 -7 4 84 48 -3 -8 -8 -8 -8 -8 -8 -8 -8 -8 -8 -8 -8 -8 -8 -3 51 55 -2 -8 -8 -8 -8 -8 -8 -8 -8 -7 8 85 49 2 52 
52 -3 -8 -8 -8 -8 -8 -8 -8 -8 -8 -8 -8 -8 -7 4 85 45 -3 -8 -8 -8 -8 -8 -8 -3 48 84 5 -7 -8 -8 -8 -8 -8 -8 -8 -8 -8 -8 -8 -8 -8 -8 -8 -8 -8 -8 -8 -8 -8 -8 -8 -7 4 85 45 -3 -8 -8 -8 -8 -8 -8 -8 -8 -8 -8 -8 -8 -8 -8 -8 -3 45 85 5 -7 -8 -8 -8 -8 -8 -8 -8 -8 -8 -8 -8 -8 -8 -8 -2 55 51 -3 -8 -8 -8 -8 -8 -8 -8 -7 4 80 80 4 -2 52 
52 -3 -8 -8 -8 -8 -8 -8 -8 -8 -8 -8 -8 -8 -8 -2 55 51 -3 -8 -8 -8 -8 -8 -7 8 85 48 -3 -8 -8 -8 -8 -8 -8 -8 -8 -8 -8 -8 -8 -8 -8 -8 -8 -8 -8 -8 -8 -8 -8 -8 -8 -8 -2 55 51 -3 -8 -8 -8 -8 -8 -8 -8 -8 -8 -8 -8 -8 -8 -8 -8 -2 54 54 -2 -8 -8 -8 -8 -8 -8 -8 -8 -8 -8 -8 -8 -8 -8 -7 4 85 45 -3 -8 -8 -8 -8 -8 -8 -8 -3 48 85 8 -6 -3 52 
52 -3 -8 -8 -8 -8 -8 -8 -8 -8 -8 -8 -8 -8 -8 -3 52 52 -3 -8 -8 -8 -8 -7 4 80 80 4 -7 -8 -8 -8 -8 -8 -8 -8 -8 -8 -8 -8 -8 -8 -8 -8 -8 -8 -8 -8 -8 -8 -8 -8 -8 -8 -2 56 56 2 -3 -3 -3 -3 -7 -8 -8 -8 -8 -8 -8 -8 -8 -8 -7 5 85 45 -3 -8 -8 -8 -8 -8 -8 -8 -8 -8 -8 -8 -8 -8 -8 -3 45 85 4 -7 -8 -8 -8 -8 -8 -8 -7 8 85 48 -3 -8 -3 52 
52 -3 -8 -8 -8 -8 -8 -8 -8 -8 -8 -8 -8 -8 -8 -3 51 55 -2 -8 -8 -8 -8 -3 48 85 8 -7 -8 -8 -8 -8 -8 -8 -8 -8 -8 -8 -8 -8 -8 -8 -8 -8 -8 -8 -8 -8 -8 -8 -8 -8 -7 -3 9 92 98 56 52 52 51 45 4 -2 -3 -3 -3 -3 -3 -7 -8 -8 -3 48 84 4 -7 -8 -8 -8 -8 -8 -8 -8 -8 -8 -8 -8 -8 -8 -8 -3 51 55 -2 -8 -8 -8 -8 -8 -8 -7 4 80 80 4 -7 -8 -3 52 
52 -3 -8 -8 -8 -8 -8 -8 -8 -8 -8 -8 -8 -8 -8 -3 45 85 4 -7 -8 -8 -7 5 84 48 -3 -8 -8 -8 -8 -8 -8 -8 -8 -8 -8 -8 -8 -8 -8 -8 -8 -8 -8 -8 -8 -8 -8 -8 -8 -7 4 48 85 87 56 52 52 52 55 85 85 55 52 52 52 51 45 4 -2 -2 9 85 48 -3 -8 -8 -8 -8 -8 -8 -8 -8 -8 -8 -8 -8 -8 -8 -8 -2 55 51 -3 -8 -8 -8 -8 -8 -8 -3 48 85 8 -7 -8 -8 -3 52 
52 -3 -8 -8 -8 -8 -8 -8 -8 -8 -8 -8 -8 -8 -8 -7 4 85 45 -3 -8 -8 -3 48 84 5 -7 -8 -8 -8 -8 -8 -8 -8 -8 -8 -8 -8 -8 -8 -8 -8 -8 -8 -8 -8 -8 -8 -8 -7 -3 8 80 85 48 5 -2 -3 -3 -3 -2 4 45 51 52 52 52 55 85 85 55 56 92 90 5 -7 -8 -8 -8 -8 -8 -8 -8 -8 -8 -8 -8 -8 -8 -8 -7 4 85 45 -3 -8 -8 -8 -8 -8 -7 8 85 48 -3 -8 -8 -8 -3 52 
52 -3 -8 -8 -8 -8 -8 -8 -8 -8 -8 -8 -8 -8 -8 -8 -2 55 51 -3 -8 -7 5 84 48 -3 -8 -8 -8 -8 -8 -8 -8 -8 -8 -8 -8 -8 -8 -8 -8 -8 -8 -8 -8 -8 -8 -8 -7 4 48 85 80 8 -3 -7 -8 -8 -8 -8 -8 -7 -3 -3 -3 -3 -3 -2 4 45 51 55 92 90 5 -7 -8 -8 -8 -8 -8 -8 -8 -8 -8 -8 -8 -8 -8 -8 -3 45 85 4 -7 -8 -8 -8 -8 -7 4 80 80 4 -7 -8 -8 -8 -3 52 
52 -3 -8 -8 -8 -8 -8 -8 -8 -8 -8 -8 -8 -8 -8 -8 -3 52 52 -3 -8 -3 48 84 5 -7 -8 -8 -8 -8 -8 -8 -8 -8 -8 -8 -8 -8 -8 -8 -8 -8 -8 -8 -8 -8 -7 -3 8 80 85 48 4 -7 -8 -8 -8 -8 -8 -8 -8 -8 -8 -8 -8 -8 -8 -8 -7 -3 -3 -2 9 85 48 -3 -8 -8 -8 -8 -8 -8 -8 -8 -8 -8 -8 -8 -8 -8 -3 51 55 -2 -8 -8 -8 -8 -8 -3 48 85 8 -7 -8 -8 -8 -8 -3 52 
52 -3 -8 -8 -8 -8 -8 -8 -8 -8 -8 -8 -8 -8 -8 -8 -3 51 55 -2 -6 8 85 48 -3 -8 -8 -8 -8 -8 -8 -8 -8 -8 -8 -8 -8 -8 -8 -8 -8 -8 -8 -8 -8 -7 4 48 85 80 8 -3 -7 -8 -8 -8 -8 -8 -8 -8 -8 -8 -8 -8 -8 -8 -8 -8 -8 -8 -8 -8 -3 48 85 8 -6 -8 -8 -8 -8 -8 -8 -8 -8 -8 -8 -8 -8 -8 -2 55 51 -3 -8 -8 -8 -8 -7 8 85 48 -3 -8 -8 -8 -8 -8 -3 52 
52 -3 -8 -8 -8 -8 -8 -8 -8 -8 -8 -8 -8 -8 -8 -8 -3 45 85 5 5 80 80 4 -7 -8 -8 -8 -8 -8 -8 -8 -8 -8 -8 -8 -8 -8 -8 -8 -8 -8 -8 -8 -6 8 80 85 48 4 -7 -8 -8 -8 -8 -8 -8 -8 -8 -8 -8 -8 -8 -8 -8 -8 -8 -8 -8 -8 -8 -8 -7 4 80 80 9 -3 -7 -8 -8 -8 -8 -8 -8 -8 -8 -8 -8 -7 5 85 45 -3 -8 -8 -8 -7 4 80 80 4 -7 -8 -8 -8 -8 -8 -3 52 
52 -3 -8 -8 -8 -8 -8 -8 -8 -8 -8 -8 -8 -8 -8 -8 -7 4 85 50 53 85 8 -7 -8 -8 -8 -8 -8 -8 -8 -8 -8 -8 -8 -8 -8 -8 -8 -8 -8 -8 -7 -3 8 80 80 8 -3 -7 -8 -8 -8 -8 -8 -8 -8 -8 -8 -8 -8 -8 -8 -8 -8 -8 -8 -8 -8 -8 -8 -8 -8 -7 8 87 92 49 5 -2 -3 -3 -3 -3 -3 -3 -3 -3 -3 1 49 88 5 -7 -8 -8 -8 -3 48 85 8 -7 -8 -8 -8 -8 -8 -8 -3 52 
52 -3 -8 -8 -8 -8 -8 -8 -8 -8 -8 -8 -8 -8 -8 -8 -8 -2 55 63 89 48 -3 -8 -8 -8 -8 -8 -8 -8 -8 -8 -8 -8 -8 -8 -8 -8 -8 -8 -8 -7 4 48 85 80 8 -6 -8 -8 -8 -8 -8 -8 -8 -8 -8 -8 -8 -8 -8 -8 -8 -8 -8 -8 -8 -8 -8 -8 -8 -8 -8 -8 -2 56 101 89 85 55 52 52 52 52 52 52 52 52 52 56 98 95 10 -3 -7 -8 -7 8 85 48 -3 -8 -8 -8 -8 -8 -8 -8 -3 52 
52 -3 -8 -8 -8 -8 -8 -8 -8 -8 -8 -8 -8 -8 -8 -8 -8 -3 52 101 86 5 -7 -8 -8 -8 -8 -8 -8 -8 -8 -8 -8 -8 -8 -8 -8 -8 -8 -7 -3 8 80 85 48 4 -7 -8 -8 -8 -8 -8 -8 -8 -8 -8 -8 -8 -8 -8 -8 -8 -8 -8 -8 -8 -8 -8 -8 -8 -8 -8 -8 -8 -2 55 56 10 45 51 52 52 52 52 52 52 52 52 52 52 56 87 85 48 5 -2 5 80 80 4 -7 -8 -8 -8 -8 -8 -8 -8 -3 52 
52 -3 -8 -8 -8 -8 -8 -8 -8 -8 -8 -8 -8 -8 -8 -8 -8 -3 53 130 49 -3 -8 -8 -8 -8 -8 -8 -8 -8 -8 -8 -8 -8 -8 -8 -8 -8 -7 4 48 85 80 8 -3 -7 -8 -8 -8 -8 -8 -8 -8 -8 -8 -8 -8 -8 -8 -8 -8 -8 -8 -8 -8 -8 -8 -8 -8 -8 -8 -8 -8 -7 4 85 45 -3 -3 -3 -3 -3 -3 -3 -3 -3 -3 -3 -3 -3 -2 5 48 84 85 53 57 85 8 -7 -8 -8 -8 -8 -8 -8 -8 -8 -3 52 
52 -3 -8 -8 -8 -8 -8 -8 -8 -8 -8 -8 -8 -8 -8 -8 -8 -3 53 92 5 -7 -8 -8 -8 -8 -8 -8 -8 -8 -8 -8 -8 -8 -8 -8 -7 -3 8 80 85 48 4 -7 -8 -8 -8 -8 -8 -8 -8 -8 -8 -8 -8 -8 -8 -8 -8 -8 -8 -8 -8 -8 -8 -8 -8 -8 -8 -8 -8 -8 -8 -3 45 85 4 -7 -8 -8 -8 -8 -8 -8 -8 -8 -8 -8 -8 -8 -8 -7 -3 5 48 86 126 60 -1 -8 -8 -8 -8 -8 -8 -8 -8 -8 -3 52 
52 -3 -8 -8 -8 -8 -8 -8 -8 -8 -8 -8 -8 -8 -8 -8 -8 -3 52 55 -2 -8 -8 -8 -8 -8 -8 -8 -8 -8 -8 -8 -8 -8 -8 -7 4 49 86 81 9 -2 -7 -8 -8 -8 -8 -8 -8 -8 -8 -8 -8 -8 -8 -8 -8 -8 -8 -8 -8 -8 -8 -8 -8 -8 -8 -8 -8 -8 -8 -8 -8 -3 51 55 -2 -8 -8 -8 -8 -8 -8 -8 -8 -8 -8 -8 -8 -8 -8 -8 -8 -7 -3 9 86 87 8 -7 -8 -8 -8 -8 -8 -8 -8 -8 -3 52 
52 -3 -8 -8 -8 -8 -8 -8 -8 -8 -8 -8 -8 -8 -8 -8 -8 -3 52 52 -3 -8 -8 -8 -8 -8 -8 -8 -8 -8 -8 -8 -7 -3 -2 9 86 129 95 17 -1 -2 -3 -3 -7 -8 -8 -8 -8 -8 -8 -8 -8 -8 -8 -8 -8 -8 -8 -8 -8 -8 -8 -8 -8 -8 -8 -8 -8 -8 -8 -8 -8 -3 52 52 -3 -8 -8 -8 -8 -8 -8 -8 -8 -8 -8 -8 -8 -8 -8 -8 -8 -8 -8 -6 8 80 80 4 -7 -8 -8 -8 -8 -8 -8 -8 -3 52 
52 -3 -8 -8 -8 -8 -8 -8 -8 -8 -8 -8 -8 -8 -8 -8 -8 -2 55 51 -3 -8 -8 -8 -8 -8 -8 -8 -8 -8 -7 -3 4 45 54 85 87 60 86 85 55 52 51 45 4 -2 -3 -3 -7 -8 -8 -8 -8 -8 -8 -8 -8 -8 -8 -8 -8 -8 -8 -8 -8 -8 -8 -8 -8 -8 -8 -8 -8 -3 52 52 -3 -8 -8 -8 -8 -8 -8 -8 -8 -8 -8 -8 -8 -8 -8 -8 -8 -8 -8 -8 -6 8 85 48 -3 -8 -8 -8 -8 -8 -8 -8 -3 52 
52 -3 -8 -8 -8 -8 -8 -8 -8 -8 -8 -8 -8 -8 -8 -8 -7 4 85 45 -3 -8 -8 -8 -8 -8 -8 -8 -7 -3 5 48 84 85 54 45 5 -2 4 45 51 52 55 85 85 55 51 45 4 -2 -3 -3 -3 -7 -8 -8 -8 -8 -8 -8 -8 -8 -8 -8 -8 -8 -8 -8 -8 -8 -8 -8 -8 -2 55 51 -3 -8 -8 -8 -8 -8 -8 -8 -8 -8 -8 -8 -8 -8 -8 -8 -8 -8 -8 -8 -8 -3 48 85 8 -7 -8 -8 -8 -8 -8 -8 -3 52 
52 -3 -8 -8 -8 -8 -8 -8 -8 -8 -8 -8 -8 -8 -8 -8 -3 45 85 4 -7 -8 -8 -8 -8 -7 -3 -2 5 48 84 84 48 5 -2 -3 -7 -8 -7 -3 -3 -3 -2 4 45 51 55 85 85 55 52 51 45 4 -2 -3 -3 -7 -8 -8 -8 -8 -8 -8 -8 -8 -8 -8 -8 -8 -8 -8 -7 4 85 45 -3 -8 -8 -8 -8 -8 -8 -8 -8 -8 -8 -8 -8 -8 -8 -8 -8 -8 -8 -8 -8 -7 4 80 80 4 -7 -8 -8 -8 -8 -8 -3 52 
52 -3 -8 -8 -8 -8 -8 -8 -8 -8 -8 -8 -8 -8 -8 -8 -3 51 55 -2 -8 -8 -8 -7 -3 4 45 54 85 84 48 5 -3 -7 -8 -8 -8 -8 -8 -8 -8 -8 -8 -7 -3 -3 -2 4 45 51 52 55 85 85 55 51 45 4 -2 -3 -3 -3 -7 -8 -8 -8 -8 -8 -8 -8 -8 -8 -3 45 85 4 -7 -8 -8 -8 -8 -8 -8 -8 -8 -8 -8 -8 -8 -8 -8 -8 -8 -8 -8 -8 -8 -8 -7 8 85 48 -3 -8 -8 -8 -8 -8 -3 52 
52 -3 -8 -8 -8 -8 -8 -8 -8 -8 -8 -8 -8 -8 -8 -8 -3 52 52 -3 -8 -7 -3 5 48 84 85 54 45 4 -3 -7 -8 -8 -8 -8 -8 -8 -8 -8 -8 -8 -8 -8 -8 -8 -8 -7 -3 -3 -3 -2 4 45 51 55 85 85 55 52 51 45 4 -2 -3 -3 -7 -8 -8 -8 -8 -8 -3 51 55 -2 -8 -8 -8 -8 -8 -8 -8 -8 -8 -8 -8 -8 -8 -8 -8 -8 -8 -8 -8 -8 -8 -8 -8 -3 48 85 8 -6 -8 -8 -8 -8 -3 52 
52 -3 -8 -8 -8 -8 -8 -8 -8 -8 -8 -8 -8 -8 -8 -8 -2 55 51 -2 -3 5 48 84 84 48 5 -2 -3 -7 -8 -8 -8 -8 -8 -8 -8 -8 -8 -8 -8 -8 -8 -8 -8 -8 -8 -8 -8 -8 -8 -8 -7 -3 -3 -2 4 45 51 52 55 85 85 55 51 45 4 -2 -3 -3 -3 -7 -2 52 52 -3 -8 -8 -8 -8 -8 -8 -8 -8 -8 -8 -8 -8 -8 -8 -8 -8 -8 -8 -8 -8 -8 -8 -8 -7 4 80 80 8 -7 -8 -8 -8 -3 52 
52 -3 -8 -8 -8 -8 -8 -8 -8 -8 -8 -8 -8 -8 -8 -7 5 86 50 9 48 84 84 48 5 -3 -7 -8 -8 -8 -8 -8 -8 -8 -8 -8 -8 -8 -8 -8 -8 -8 -8 -8 -8 -8 -8 -8 -8 -8 -8 -8 -8 -8 -8 -8 -7 -3 -3 -3 -2 4 45 51 55 85 85 55 52 51 45 5 2 56 52 -3 -8 -8 -8 -8 -8 -8 -8 -8 -8 -8 -8 -8 -8 -8 -8 -8 -8 -8 -8 -8 -8 -8 -8 -8 -7 8 80 80 4 -7 -8 -8 -3 52 
52 -3 -8 -8 -8 -8 -8 -8 -8 -8 -8 -8 -8 -8 -8 -3 50 125 66 85 84 48 5 -3 -7 -8 -8 -8 -8 -8 -8 -8 -8 -8 -8 -8 -8 -8 -8 -8 -8 -8 -8 -8 -8 -8 -8 -8 -8 -8 -8 -8 -8 -8 -8 -8 -8 -8 -8 -8 -8 -7 -3 -3 -2 4 45 51 52 55 85 85 59 98 53 -3 -8 -8 -8 -8 -8 -8 -8 -8 -8 -8 -8 -8 -8 -8 -8 -8 -8 -8 -8 -8 -8 -8 -8 -8 -8 -6 8 85 48 -3 -8 -8 -3 52 
52 -3 -8 -8 -8 -8 -8 -8 -8 -8 -8 -8 -8 -8 -7 5 86 92 55 45 4 -3 -7 -8 -8 -8 -8 -8 -8 -8 -8 -8 -8 -8 -8 -8 -8 -8 -8 -8 -8 -8 -8 -8 -8 -8 -8 -8 -8 -8 -8 -8 -8 -8 -8 -8 -8 -8 -8 -8 -8 -8 -8 -8 -8 -7 -3 -3 -3 -2 4 45 55 98 53 -3 -8 -8 -8 -8 -8 -8 -8 -8 -8 -8 -8 -8 -8 -8 -8 -8 -8 -8 -8 -8 -8 -8 -8 -8 -8 -8 -3 48 85 8 -6 -8 -3 52 
52 -3 -8 -8 -8 -8 -8 -8 -8 -8 -8 -8 -8 -8 -3 48 85 9 -2 -3 -7 -8 -8 -8 -8 -8 -8 -8 -8 -8 -8 -8 -8 -8 -8 -8 -8 -8 -8 -8 -8 -8 -8 -8 -8 -8 -8 -8 -8 -8 -8 -8 -8 -8 -8 -8 -8 -8 -8 -8 -8 -8 -8 -8 -8 -8 -8 -8 -8 -8 -7 -3 2 56 52 -3 -8 -8 -8 -8 -8 -8 -8 -8 -8 -8 -8 -8 -8 -8 -8 -8 -8 -8 -8 -8 -8 -8 -8 -8 -8 -8 -7 4 80 80 8 -6 -3 52 
52 -3 -8 -8 -8 -8 -8 -8 -8 -8 -8 -8 -8 -7 8 85 48 -3 -8 -8 -8 -8 -8 -8 -8 -8 -8 -8 -8 -8 -8 -8 -8 -8 -8 -8 -8 -8 -8 -8 -8 -8 -8 -8 -8 -8 -8 -8 -8 -8 -8 -8 -8 -8 -8 -8 -8 -8 -8 -8 -8 -8 -8 -8 -8 -8 -8 -8 -8 -8 -8 -8 -3 52 52 -3 -8 -8 -8 -8 -8 -8 -8 -8 -8 -8 -8 -8 -8 -8 -8 -8 -8 -8 -8 -8 -8 -8 -8 -8 -8 -8 -8 -7 8 80 80 4 -2 52 
52 -3 -8 -8 -8 -8 -8 -8 -8 -8 -8 -8 -7 4 80 80 4 -7 -8 -8 -8 -8 -8 -8 -8 -8 -8 -8 -8 -8 -8 -8 -8 -8 -8 -8 -8 -8 -8 -8 -8 -8 -8 -8 -8 -8 -8 -8 -8 -8 -8 -8 -8 -8 -8 -8 -8 -8 -8 -8 -8 -8 -8 -8 -8 -8 -8 -8 -8 -8 -8 -8 -3 52 52 -3 -8 -8 -8 -8 -8 -8 -8 -8 -8 -8 -8 -8 -8 -8 -8 -8 -8 -8 -8 -8 -8 -8 -8 -8 -8 -8 -8 -8 -6 8 85 49 2 52 
52 -3 -8 -8 -8 -8 -8 -8 -8 -8 -8 -8 -3 48 85 8 -7 -8 -8 -8 -8 -8 -8 -8 -8 -8 -8 -8 -8 -8 -8 -8 -8 -8 -8 -8 -8 -8 -8 -8 -8 -8 -8 -8 -8 -8 -8 -8 -8 -8 -8 -8 -8 -8 -8 -8 -8 -8 -8 -8 -8 -8 -8 -8 -8 -8 -8 -8 -8 -8 -8 -8 -3 52 52 -3 -8 -8 -8 -8 -8 -8 -8 -8 -8 -8 -8 -8 -8 -8 -8 -8 -8 -8 -8 -8 -8 -8 -8 -8 -8 -8 -8 -8 -8 -3 48 85 14 53 
52 -3 -8 -8 -8 -8 -8 -8 -8 -8 -8 -6 8 85 48 -3 -8 -8 -8 -8 -8 -8 -8 -8 -8 -8 -8 -8 -8 -8 -8 -8 -8 -8 -8 -8 -8 -8 -8 -8 -8 -8 -8 -8 -8 -8 -8 -8 -8 -8 -8 -8 -8 -8 -8 -8 -8 -8 -8 -8 -8 -8 -8 -8 -8 -8 -8 -8 -8 -8 -8 -8 -3 51 55 -2 -8 -8 -8 -8 -8 -8 -8 -8 -8 -8 -8 -8 -8 -8 -8 -8 -8 -8 -8 -8 -8 -8 -8 -8 -8 -8 -8 -8 -8 -7 4 80 84 63 
52 -3 -8 -8 -8 -8 -8 -8 -8 -8 -7 8 80 80 4 -7 -8 -8 -8 -8 -8 -8 -8 -8 -8 -8 -8 -8 -8 -8 -8 -8 -8 -8 -8 -8 -8 -8 -8 -8 -8 -8 -8 -8 -8 -8 -8 -8 -8 -8 -8 -8 -8 -8 -8 -8 -8 -8 -8 -8 -8 -8 -8 -8 -8 -8 -8 -8 -8 -8 -8 -8 -3 49 86 9 -6 -8 -8 -8 -8 -8 -8 -8 -8 -8 -8 -8 -8 -8 -8 -8 -8 -8 -8 -8 -8 -8 -8 -8 -8 -8 -8 -8 -8 -8 -7 8 86 101 
53 -3 -8 -8 -8 -8 -8 -8 -8 -7 8 81 85 13 -1 -3 -3 -7 -8 -8 -8 -8 -8 -8 -8 -8 -8 -8 -8 -8 -8 -8 -8 -8 -8 -8 -8 -8 -8 -8 -8 -8 -8 -8 -8 -8 -8 -8 -8 -8 -8 -8 -8 -8 -8 -8 -8 -8 -8 -8 -8 -8 -8 -8 -8 -8 -8 -8 -8 -8 -7 -3 5 57 126 87 9 -3 -7 -8 -8 -8 -8 -8 -8 -8 -8 -8 -8 -8 -8 -8 -8 -8 -8 -8 -8 -8 -8 -8 -8 -8 -8 -8 -8 -8 -8 -3 49 130 
53 -3 -8 -8 -8 -8 -8 -8 -7 8 86 126 67 53 52 51 45 4 -2 -3 -3 -3 -3 -3 -3 -3 -3 -3 -3 -7 -8 -8 -8 -8 -8 -8 -8 -8 -8 -8 -8 -8 -8 -8 -8 -8 -8 -8 -8 -8 -8 -8 -8 -8 -8 -8 -8 -8 -8 -8 -8 -8 -8 -8 -8 -8 -8 -8 -8 -7 4 48 84 85 60 87 85 48 5 -3 -7 -8 -8 -8 -8 -8 -8 -8 -8 -8 -8 -8 -8 -8 -8 -8 -8 -8 -8 -8 -8 -8 -8 -8 -8 -8 -8 -7 5 92 
52 -3 -8 -8 -8 -8 -8 -7 8 80 87 57 52 52 52 55 85 85 55 52 52 52 52 52 52 52 52 51 45 4 -2 -3 -3 -3 -3 -3 -3 -3 -3 -3 -7 -8 -8 -8 -8 -8 -8 -8 -8 -8 -8 -8 -8 -8 -8 -8 -8 -8 -8 -8 -8 -8 -8 -8 -8 -8 -8 -7 -3 8 80 85 48 5 -2 5 48 84 84 48 4 -7 -8 -8 -8 -8 -8 -8 -8 -8 -8 -8 -8 -8 -8 -8 -8 -8 -8 -8 -8 -8 -8 -8 -8 -8 -8 -8 -2 55 
52 -3 -8 -8 -8 -8 -7 8 80 80 8 -2 -3 -3 -3 -2 4 45 51 52 52 52 52 52 52 52 52 55 85 85 55 52 52 52 52 52 52 52 51 45 4 -2 -3 -3 -3 -3 -3 -3 -3 -3 -3 -3 -7 -8 -8 -8 -8 -8 -8 -8 -8 -8 -8 -8 -8 -7 -3 5 48 85 80 8 -3 -7 -8 -7 -3 5 48 85 80 8 -3 -7 -8 -8 -8 -8 -8 -8 -8 -8 -8 -8 -8 -8 -8 -8 -8 -8 -8 -8 -8 -8 -8 -8 -8 -8 -3 52 
52 -3 -8 -8 -8 -6 8 80 80 8 -6 -8 -8 -8 -8 -8 -7 -3 -3 -3 -3 -3 -3 -3 -3 -3 -3 -2 4 45 51 52 52 52 52 52 52 52 55 85 85 55 52 52 52 52 52 52 52 52 51 45 4 -2 -3 -3 -3 -3 -3 -3 -3 -3 -3 -7 -7 4 48 84 84 48 4 -7 -8 -8 -8 -8 -8 -7 -3 8 80 85 48 5 -3 -7 -8 -8 -8 -8 -8 -8 -8 -8 -8 -8 -8 -8 -8 -8 -8 -8 -8 -8 -8 -8 -8 -8 -3 52 
52 -3 -8 -7 -3 8 80 80 8 -7 -8 -8 -8 -8 -8 -8 -8 -8 -8 -8 -8 -8 -8 -8 -8 -8 -8 -8 -7 -3 -3 -3 -3 -3 -3 -3 -3 -3 -2 4 45 51 52 52 52 52 52 52 52 52 55 85 85 55 52 52 52 52 52 52 52 51 45 5 9 80 85 48 5 -3 -7 -8 -8 -8 -8 -8 -8 -8 -8 -7 4 48 84 84 48 4 -7 -8 -8 -8 -8 -8 -8 -8 -8 -8 -8 -8 -8 -8 -8 -8 -8 -8 -8 -8 -8 -8 -3 52 
52 -3 -6 4 48 85 80 8 -7 -8 -8 -8 -8 -8 -8 -8 -8 -8 -8 -8 -8 -8 -8 -8 -8 -8 -8 -8 -8 -8 -8 -8 -8 -8 -8 -8 -8 -8 -8 -7 -3 -3 -3 -3 -3 -3 -3 -3 -3 -3 -2 4 45 51 52 52 52 52 52 52 52 55 85 90 90 80 8 -3 -7 -8 -8 -8 -8 -8 -8 -8 -8 -8 -8 -8 -7 -3 5 48 85 80 8 -3 -7 -8 -8 -8 -8 -8 -8 -8 -8 -8 -8 -8 -8 -8 -8 -8 -8 -8 -8 -8 -3 52 
52 -1 8 80 85 48 4 -7 -8 -8 -8 -8 -8 -8 -8 -8 -8 -8 -8 -8 -8 -8 -8 -8 -8 -8 -8 -8 -8 -8 -8 -8 -8 -8 -8 -8 -8 -8 -8 -8 -8 -8 -8 -8 -8 -8 -8 -8 -8 -8 -8 -7 -3 -3 -3 -3 -3 -3 -3 -3 -3 -2 9 92 92 9 -6 -8 -8 -8 -8 -8 -8 -8 -8 -8 -8 -8 -8 -8 -8 -8 -7 -3 8 80 85 48 5 -3 -7 -8 -8 -8 -8 -8 -8 -8 -8 -8 -8 -8 -8 -8 -8 -8 -8 -8 -3 52 
53 13 80 80 8 -3 -7 -8 -8 -8 -8 -8 -8 -8 -8 -8 -8 -8 -8 -8 -8 -8 -8 -8 -8 -8 -8 -8 -8 -8 -8 -8 -8 -8 -8 -8 -8 -8 -8 -8 -8 -8 -8 -8 -8 -8 -8 -8 -8 -8 -8 -8 -8 -8 -8 -8 -8 -8 -8 -8 -8 -8 -2 55 55 -2 -8 -8 -8 -8 -8 -8 -8 -8 -8 -8 -8 -8 -8 -8 -8 -8 -8 -8 -7 4 48 84 84 48 4 -7 -8 -8 -8 -8 -8 -8 -8 -8 -8 -8 -8 -8 -8 -8 -8 -8 -3 52 
67 85 80 8 -6 -8 -8 -8 -8 -8 -8 -8 -8 -8 -8 -8 -8 -8 -8 -8 -8 -8 -8 -8 -8 -8 -8 -8 -8 -8 -8 -8 -8 -8 -8 -8 -8 -8 -8 -8 -8 -8 -8 -8 -8 -8 -8 -8 -8 -8 -8 -8 -8 -8 -8 -8 -8 -8 -8 -8 -8 -8 -3 52 52 -3 -8 -8 -8 -8 -8 -8 -8 -8 -8 -8 -8 -8 -8 -8 -8 -8 -8 -8 -8 -7 -3 5 48 85 80 8 -3 -7 -8 -8 -8 -8 -8 -8 -8 -8 -8 -8 -8 -8 -8 -8 -3 52 
126 81 8 -7 -8 -8 -8 -8 -8 -8 -8 -8 -8 -8 -8 -8 -8 -8 -8 -8 -8 -8 -8 -8 -8 -8 -8 -8 -8 -8 -8 -8 -8 -8 -8 -8 -8 -8 -8 -8 -8 -8 -8 -8 -8 -8 -8 -8 -8 -8 -8 -8 -8 -8 -8 -8 -8 -8 -8 -8 -8 -8 -3 52 52 -3 -8 -8 -8 -8 -8 -8 -8 -8 -8 -8 -8 -8 -8 -8 -8 -8 -8 -8 -8 -8 -8 -7 -3 8 80 85 48 5 -3 -7 -8 -8 -8 -8 -8 -8 -8 -8 -8 -8 -8 -8 -3 53 
92 9 -6 -8 -8 -8 -8 -8 -8 -8 -8 -8 -8 -8 -8 -8 -8 -8 -8 -8 -8 -8 -8 -8 -8 -8 -8 -8 -8 -8 -8 -8 -8 -8 -8 -8 -8 -8 -8 -8 -8 -8 -8 -8 -8 -8 -8 -8 -8 -8 -8 -8 -8 -8 -8 -8 -8 -8 -8 -8 -8 -8 -3 52 52 -3 -8 -8 -8 -8 -8 -8 -8 -8 -8 -8 -8 -8 -8 -8 -8 -8 -8 -8 -8 -8 -8 -8 -8 -7 4 48 84 84 48 5 -3 -7 -8 -8 -8 -8 -8 -8 -8 -8 -8 -8 -3 53 
55 -2 -8 -8 -8 -8 -8 -8 -8 -8 -8 -8 -8 -8 -8 -8 -8 -8 -8 -8 -8 -8 -8 -8 -8 -8 -8 -8 -8 -8 -8 -8 -8 -8 -8 -8 -8 -8 -8 -8 -8 -8 -8 -8 -8 -8 -8 -8 -8 -8 -8 -8 -8 -8 -8 -8 -8 -8 -8 -8 -8 -8 -3 52 52 -3 -8 -8 -8 -8 -8 -8 -8 -8 -8 -8 -8 -8 -8 -8 -8 -8 -8 -8 -8 -8 -8 -8 -8 -8 -7 -3 5 48 84 84 48 4 -7 -8 -8 -8 -8 -8 -8 -8 -8 -8 -3 52 
52 -3 -8 -8 -8 -8 -8 -8 -8 -8 -8 -8 -8 -8 -8 -8 -8 -8 -8 -8 -8 -8 -8 -8 -8 -8 -8 -8 -8 -8 -8 -8 -8 -8 -8 -8 -8 -8 -8 -8 -8 -8 -8 -8 -8 -8 -8 -8 -8 -8 -8 -8 -8 -8 -8 -8 -8 -8 -8 -8 -8 -8 -3 52 52 -3 -8 -8 -8 -8 -8 -8 -8 -8 -8 -8 -8 -8 -8 -8 -8 -8 -8 -8 -8 -8 -8 -8 -8 -8 -8 -8 -7 -3 5 48 85 80 8 -3 -7 -8 -8 -8 -8 -8 -8 -8 -3 52 
52 -3 -8 -8 -8 -8 -8 -8 -8 -8 -8 -8 -8 -8 -8 -8 -8 -8 -8 -8 -8 -8 -8 -8 -8 -8 -8 -8 -8 -8 -8 -8 -8 -8 -8 -8 -8 -8 -8 -8 -8 -8 -8 -8 -8 -8 -8 -8 -8 -8 -8 -8 -8 -8 -8 -8 -8 -8 -8 -8 -8 -8 -3 52 52 -3 -8 -8 -8 -8 -8 -8 -8 -8 -8 -8 -8 -8 -8 -8 -8 -8 -8 -8 -8 -8 -8 -8 -8 -8 -8 -8 -8 -8 -7 -3 8 80 85 49 5 -2 -3 -3 -7 -8 -8 -8 -3 52 
52 -3 -8 -8 -8 -8 -8 -8 -8 -8 -8 -8 -8 -8 -8 -8 -8 -8 -8 -8 -8 -8 -8 -8 -8 -8 -8 -8 -8 -8 -8 -8 -8 -8 -8 -8 -8 -8 -8 -8 -8 -8 -8 -8 -8 -8 -8 -8 -8 -8 -8 -8 -8 -8 -8 -8 -8 -8 -8 -8 -8 -8 -3 52 52 -3 -8 -8 -8 -8 -8 -8 -8 -8 -8 -8 -8 -8 -8 -8 -8 -8 -8 -8 -8 -8 -8 -8 -8 -8 -8 -8 -8 -8 -8 -8 -6 9 60 125 92 55 51 45 4 -2 -3 -3 -2 52 
52 -3 -8 -8 -8 -8 -8 -8 -8 -8 -8 -8 -8 -8 -8 -8 -8 -8 -8 -8 -8 -8 -8 -8 -8 -8 -8 -8 -8 -8 -8 -8 -8 -8 -8 -8 -8 -8 -8 -8 -8 -8 -8 -8 -8 -8 -8 -8 -8 -8 -8 -8 -8 -8 -8 -8 -8 -8 -8 -8 -8 -8 -3 52 52 -3 -8 -8 -8 -8 -8 -8 -8 -8 -8 -8 -8 -8 -8 -8 -8 -8 -8 -8 -8 -8 -8 -8 -8 -8 -8 -8 -8 -7 -3 -2 5 49 89 88 56 52 55 85 85 55 51 45 10 56 
53 -3 -8 -8 -8 -8 -8 -8 -8 -8 -8 -8 -8 -8 -8 -8 -8 -8 -8 -8 -8 -8 -8 -8 -8 -8 -8 -8 -8 -8 -8 -8 -8 -8 -8 -8 -8 -8 -8 -8 -8 -8 -8 -8 -8 -8 -8 -8 -8 -8 -8 -8 -8 -8 -8 -8 -8 -8 -8 -8 -8 -8 -3 52 52 -3 -8 -8 -8 -8 -8 -8 -8 -8 -8 -8 -8 -8 -8 -8 -8 -8 -8 -8 -8 -8 -8 -8 -8 -8 -8 -7 -3 4 45 54 85 84 48 5 -2 -3 -2 4 45 51 55 85 89 101 
57 2 -3 -3 -3 -3 -3 -3 -3 -7 -8 -8 -8 -8 -8 -8 -8 -8 -8 -8 -8 -8 -8 -8 -8 -8 -8 -8 -8 -8 -8 -8 -8 -8 -8 -8 -8 -8 -8 -8 -8 -8 -8 -8 -8 -8 -8 -8 -8 -8 -8 -8 -8 -8 -8 -8 -8 -8 -8 -8 -8 -8 -3 52 52 -3 -8 -8 -8 -8 -8 -8 -8 -8 -8 -8 -8 -8 -8 -8 -8 -8 -8 -8 -8 -8 -8 -8 -7 -3 -2 5 48 84 85 54 45 4 -3 -7 -8 -8 -8 -7 -3 -3 -2 5 49 98 
98 56 52 52 52 52 52 51 45 4 -2 -3 -3 -3 -3 -3 -3 -7 -8 -8 -8 -8 -8 -8 -8 -8 -8 -8 -8 -8 -8 -8 -8 -8 -8 -8 -8 -8 -8 -8 -8 -8 -8 -8 -8 -8 -8 -8 -8 -8 -8 -8 -8 -8 -8 -8 -8 -8 -8 -8 -8 -8 -3 52 52 -3 -8 -8 -8 -8 -8 -8 -8 -8 -8 -8 -8 -8 -8 -8 -8 -8 -8 -8 -8 -8 -7 -3 4 45 54 85 84 48 5 -2 -3 -7 -8 -8 -8 -8 -8 -8 -8 -8 -8 -7 1 57 
98 56 52 52 52 52 52 55 85 85 55 52 52 52 52 51 45 4 -2 -3 -3 -3 -3 -3 -3 -3 -7 -8 -8 -8 -8 -8 -8 -8 -8 -8 -8 -8 -8 -8 -8 -8 -8 -8 -8 -8 -8 -8 -8 -8 -8 -8 -8 -8 -8 -8 -8 -8 -8 -8 -8 -8 -3 52 52 -3 -8 -8 -8 -8 -8 -8 -8 -8 -8 -8 -8 -8 -8 -8 -8 -8 -8 -7 -3 -2 5 48 84 85 54 45 4 -3 -7 -8 -8 -8 -8 -8 -8 -8 -8 -8 -8 -8 -8 -8 -3 53 
56 2 -3 -3 -3 -3 -3 -2 4 45 51 52 52 52 52 55 85 85 55 52 52 52 52 52 51 45 4 -2 -3 -3 -3 -3 -3 -3 -7 -8 -8 -8 -8 -8 -8 -8 -8 -8 -8 -8 -8 -8 -8 -8 -8 -8 -8 -8 -8 -8 -8 -8 -8 -8 -8 -8 -3 52 52 -3 -8 -8 -8 -8 -8 -8 -8 -8 -8 -8 -8 -8 -8 -8 -8 -7 -3 4 45 54 85 84 48 5 -2 -3 -7 -8 -8 -8 -8 -8 -8 -8 -8 -8 -8 -8 -8 -8 -8 -8 -3 52 
52 -3 -8 -8 -8 -8 -8 -8 -7 -3 -3 -3 -3 -3 -3 -2 4 45 51 52 52 52 52 52 55 85 85 55 52 52 52 52 51 45 4 -2 -3 -3 -3 -3 -3 -3 -3 -7 -8 -8 -8 -8 -8 -8 -8 -8 -8 -8 -8 -8 -8 -8 -8 -8 -8 -8 -3 52 52 -3 -8 -8 -8 -8 -8 -8 -8 -8 -8 -8 -8 -8 -8 -7 -3 5 48 84 85 54 45 4 -3 -7 -8 -8 -8 -8 -8 -8 -8 -8 -8 -8 -8 -8 -8 -8 -8 -8 -8 -8 -3 52 
52 -3 -8 -8 -8 -8 -8 -8 -8 -8 -8 -8 -8 -8 -8 -8 -7 -3 -3 -3 -3 -3 -3 -3 -2 4 45 51 52 52 52 52 55 85 85 55 52 52 52 52 52 51 45 4 -2 -3 -3 -3 -3 -3 -3 -7 -8 -8 -8 -8 -8 -8 -8 -8 -8 -8 -3 52 52 -3 -8 -8 -8 -8 -8 -8 -8 -8 -8 -8 -7 -3 -2 5 48 84 84 48 5 -2 -3 -7 -8 -8 -8 -8 -8 -8 -8 -8 -8 -8 -8 -8 -8 -8 -8 -8 -8 -8 -8 -8 -3 52 
52 -3 -8 -8 -8 -8 -8 -8 -8 -8 -8 -8 -8 -8 -8 -8 -8 -8 -8 -8 -8 -8 -8 -8 -8 -7 -3 -3 -3 -3 -3 -3 -2 4 45 51 52 52 52 52 52 55 85 85 55 52 52 52 52 51 45 4 -2 -3 -3 -3 -3 -3 -3 -3 -7 -8 -3 52 52 -3 -8 -8 -8 -8 -8 -8 -8 -8 -7 -3 4 45 54 85 84 48 5 -3 -7 -8 -8 -8 -8 -8 -8 -8 -8 -8 -8 -8 -8 -8 -8 -8 -8 -8 -8 -8 -8 -8 -8 -8 -3 52 
52 -3 -8 -8 -8 -8 -8 -8 -8 -8 -8 -8 -8 -8 -8 -8 -8 -8 -8 -8 -8 -8 -8 -8 -8 -8 -8 -8 -8 -8 -8 -8 -8 -7 -3 -3 -3 -3 -3 -3 -3 -2 4 45 51 52 52 52 52 55 85 85 55 52 52 52 52 52 51 45 4 -2 2 56 55 -2 -8 -8 -8 -8 -8 -7 -3 -2 5 48 84 85 54 45 4 -3 -7 -8 -8 -8 -8 -8 -8 -8 -8 -8 -8 -8 -8 -8 -8 -8 -8 -8 -8 -8 -8 -8 -8 -8 -8 -8 -3 52 
52 -3 -8 -8 -8 -8 -8 -8 -8 -8 -8 -8 -8 -8 -8 -8 -8 -8 -8 -8 -8 -8 -8 -8 -8 -8 -8 -8 -8 -8 -8 -8 -8 -8 -8 -8 -8 -8 -8 -8 -8 -8 -7 -3 -3 -3 -3 -3 -3 -2 4 45 51 52 52 52 52 52 55 85 85 55 56 98 92 9 -6 -8 -8 -7 -3 4 45 54 85 84 48 5 -2 -3 -7 -8 -8 -8 -8 -8 -8 -8 -8 -8 -8 -8 -8 -8 -8 -8 -8 -8 -8 -8 -8 -8 -8 -8 -8 -8 -8 -8 -3 52 
52 -3 -8 -8 -8 -8 -8 -8 -8 -8 -8 -8 -8 -8 -8 -8 -8 -8 -8 -8 -8 -8 -8 -8 -8 -8 -8 -8 -8 -8 -8 -8 -8 -8 -8 -8 -8 -8 -8 -8 -8 -8 -8 -8 -8 -8 -8 -8 -8 -8 -7 -3 -3 -3 -3 -3 -3 -3 -2 4 45 51 52 56 87 80 8 -2 -2 5 48 84 85 54 45 4 -3 -7 -8 -8 -8 -8 -8 -8 -8 -8 -8 -8 -8 -8 -8 -8 -8 -8 -8 -8 -8 -8 -8 -8 -8 -8 -8 -8 -8 -8 -8 -8 -3 52 
52 -3 -8 -8 -8 -8 -8 -8 -8 -8 -8 -8 -8 -8 -8 -8 -8 -8 -8 -8 -8 -8 -8 -8 -8 -8 -8 -8 -8 -8 -8 -8 -8 -8 -8 -8 -8 -8 -8 -8 -8 -8 -8 -8 -8 -8 -8 -8 -8 -8 -8 -8 -8 -8 -8 -8 -8 -8 -8 -7 -3 -3 -3 -2 8 80 87 56 55 85 84 48 5 -2 -3 -7 -8 -8 -8 -8 -8 -8 -8 -8 -8 -8 -8 -8 -8 -8 -8 -8 -8 -8 -8 -8 -8 -8 -8 -8 -8 -8 -8 -8 -8 -8 -8 -8 -3 52 
52 -3 -8 -8 -8 -8 -8 -8 -8 -8 -8 -8 -8 -8 -8 -8 -8 -8 -8 -8 -8 -8 -8 -8 -8 -8 -8 -8 -8 -8 -8 -8 -8 -8 -8 -8 -8 -8 -8 -8 -8 -8 -8 -8 -8 -8 -8 -8 -8 -8 -8 -8 -8 -8 -8 -8 -8 -8 -8 -8 -8 -8 -8 -8 -6 9 92 98 55 45 4 -3 -7 -8 -8 -8 -8 -8 -8 -8 -8 -8 -8 -8 -8 -8 -8 -8 -8 -8 -8 -8 -8 -8 -8 -8 -8 -8 -8 -8 -8 -8 -8 -8 -8 -8 -8 -8 -3 52 
52 -3 -8 -8 -8 -8 -8 -8 -8 -8 -8 -8 -8 -8 -8 -8 -8 -8 -8 -8 -8 -8 -8 -8 -8 -8 -8 -8 -8 -8 -8 -8 -8 -8 -8 -8 -8 -8 -8 -8 -8 -8 -8 -8 -8 -8 -8 -8 -8 -8 -8 -8 -8 -8 -8 -8 -8 -8 -8 -8 -8 -8 -8 -8 -8 -2 55 56 2 -3 -7 -8 -8 -8 -8 -8 -8 -8 -8 -8 -8 -8 -8 -8 -8 -8 -8 -8 -8 -8 -8 -8 -8 -8 -8 -8 -8 -8 -8 -8 -8 -8 -8 -8 -8 -8 -8 -8 -3 52 
52 -3 -8 -8 -8 -8 -8 -8 -8 -8 -8 -8 -8 -8 -8 -8 -8 -8 -8 -8 -8 -8 -8 -8 -8 -8 -8 -8 -8 -8 -8 -8 -8 -8 -8 -8 -8 -8 -8 -8 -8 -8 -8 -8 -8 -8 -8 -8 -8 -8 -8 -8 -8 -8 -8 -8 -8 -8 -8 -8 -8 -8 -8 -8 -8 -3 52 52 -3 -8 -8 -8 -8 -8 -8 -8 -8 -8 -8 -8 -8 -8 -8 -8 -8 -8 -8 -8 -8 -8 -8 -8 -8 -8 -8 -8 -8 -8 -8 -8 -8 -8 -8 -8 -8 -8 -8 -8 -3 52 
52 -3 -8 -8 -8 -8 -8 -8 -8 -8 -8 -8 -8 -8 -8 -8 -8 -8 -8 -8 -8 -8 -8 -8 -8 -8 -8 -8 -8 -8 -8 -8 -8 -8 -8 -8 -8 -8 -8 -8 -8 -8 -8 -8 -8 -8 -8 -8 -8 -8 -8 -8 -8 -8 -8 -8 -8 -8 -8 -8 -8 -8 -8 -8 -8 -3 52 52 -3 -8 -8 -8 -8 -8 -8 -8 -8 -8 -8 -8 -8 -8 -8 -8 -8 -8 -8 -8 -8 -8 -8 -8 -8 -8 -8 -8 -8 -8 -8 -8 -8 -8 -8 -8 -8 -8 -8 -8 -3 52 
56 2 -3 -3 -3 -3 -3 -3 -3 -3 -3 -3 -3 -3 -3 -3 -3 -3 -3 -3 -3 -3 -3 -3 -3 -3 -3 -3 -3 -3 -3 -3 -3 -3 -3 -3 -3 -3 -3 -3 -3 -3 -3 -3 -3 -3 -3 -3 -3 -3 -3 -3 -3 -3 -3 -3 -3 -3 -3 -3 -3 -3 -3 -3 -3 2 56 56 2 -3 -3 -3 -3 -3 -3 -3 -3 -3 -3 -3 -3 -3 -3 -3 -3 -3 -3 -3 -3 -3 -3 -3 -3 -3 -3 -3 -3 -3 -3 -3 -3 -3 -3 -3 -3 -3 -3 -3 2 56 
99 56 52 52 52 52 52 52 52 52 52 52 52 52 52 52 52 52 52 52 52 52 52 52 52 52 52 52 52 52 52 52 52 53 53 52 52 52 52 52 52 52 52 52 52 52 52 52 52 53 53 52 52 52 52 52 52 52 52 52 52 52 52 52 52 56 98 98 56 52 52 52 52 52 52 52 52 52 52 52 52 52 52 52 52 52 52 52 52 52 52 52 53 53 52 52 52 52 52 52 52 52 52 52 53 53 52 52 56 99 
