P2
110 110
255
151 126 107 98 96 95 95 95 95 95 95 95 95 95 95 95 95 95 95 95 95 95 95 95 95 95 95 95 96 99 107 121 136 137 123 108 100 96 95 95 95 95 95 95 95 96 98 105 120 137 137 119 104 98 96 95 95 95 95 95 95 95 95 96 97 99 102 102 99 97 96 95 95 95 95 95 95 95 95 95 95 95 95 95 95 95 95 96 98 103 116 133 139 125 109 100 97 95 95 96 97 102 114 131 139 127 113 112 127 152 
126 90 63 53 49 48 48 48 48 48 48 48 48 48 48 48 48 48 48 48 48 48 48 48 48 48 48 49 52 59 78 108 130 119 88 65 54 50 49 48 48 48 48 48 48 50 54 66 94 128 125 90 64 53 49 48 48 48 48 48 48 48 48 48 48 47 47 47 47 48 48 48 48 48 48 48 48 48 48 48 48 48 48 48 48 48 49 50 54 66 93 125 126 95 68 55 50 49 48 49 52 61 84 119 129 100 74 70 92 126 
107 63 32 20 16 15 15 15 15 15 15 15 15 15 15 15 15 15 15 15 15 15 15 15 15 15 16 18 23 37 67 104 113 82 47 27 19 16 15 15 15 15 15 15 16 17 23 39 74 117 109 63 32 20 16 15 15 15 15 15 15 15 15 15 15 15 14 14 15 15 15 15 15 15 15 15 15 15 15 15 15 15 15 15 15 15 16 18 25 44 82 114 98 57 31 20 16 16 16 16 20 33 64 106 109 69 40 38 65 107 
98 53 20 7 4 3 2 2 2 2 2 2 2 2 2 2 2 2 2 2 2 2 2 2 2 3 4 8 18 42 80 107 90 50 22 9 4 3 2 2 2 2 2 3 3 6 14 35 78 119 102 51 19 7 3 3 2 2 2 2 2 2 2 2 2 2 2 2 2 2 2 2 2 2 2 2 2 2 2 2 2 2 2 2 2 3 3 7 17 44 87 107 73 34 13 5 3 3 3 4 9 25 61 103 94 50 24 25 54 99 
96 49 16 4 0 0 0 0 0 0 0 0 0 0 0 0 0 0 0 0 0 0 0 0 0 0 2 10 28 63 99 99 62 28 9 2 0 0 0 0 0 0 0 0 0 5 17 47 95 130 102 48 16 3 0 0 0 0 0 0 0 0 0 0 0 0 0 0 0 0 0 0 0 0 0 0 0 0 0 0 0 0 0 0 0 0 0 6 21 55 97 97 54 20 5 0 0 0 0 1 8 29 70 105 82 38 17 20 50 96 
95 48 15 3 0 -1 -1 -1 -1 -1 -1 -1 -1 -1 -1 -1 -1 -1 -1 -1 -1 -1 -1 -1 -1 0 5 19 49 89 104 75 37 13 3 0 -1 -1 -1 -1 -1 -1 -1 -1 1 8 28 68 117 138 103 48 15 3 0 -1 -1 -1 -1 -1 -1 -1 -1 -1 -1 -1 -1 -1 -1 -1 -1 -1 -1 -1 -1 -1 -1 -1 -1 -1 -1 -1 -1 -1 -1 -1 1 9 31 71 104 83 39 12 2 0 -1 -1 -1 1 11 37 82 104 69 29 12 18 49 95 
95 48 15 2 0 -1 -2 -2 -2 -2 -2 -2 -2 -2 -2 -2 -2 -2 -2 -2 -2 -2 -2 -1 0 3 13 37 75 104 88 49 19 5 0 -1 -1 -2 -2 -2 -2 -2 -1 0 4 17 46 92 129 137 104 51 17 3 0 -1 -2 -2 -2 -2 -2 -2 -2 -2 -2 -2 -2 -2 -2 -2 -2 -2 -2 -2 -2 -2 -2 -2 -2 -2 -2 -2 -2 -2 -1 0 3 16 46 89 102 65 26 7 0 -1 -1 -1 0 2 15 46 92 99 56 21 9 17 49 95 
95 48 15 2 0 -1 -2 -2 -2 -2 -2 -2 -2 -2 -2 -2 -2 -2 -2 -2 -2 -2 -1 -1 1 8 27 62 98 98 62 27 8 1 -1 -1 -2 -2 -2 -2 -2 -1 -1 1 9 30 69 109 123 126 107 58 20 4 0 -1 -2 -2 -2 -2 -2 -2 -2 -2 -2 -2 -2 -2 -2 -2 -2 -2 -2 -2 -2 -2 -2 -2 -2 -2 -2 -2 -2 -2 -1 0 7 26 65 102 89 46 16 3 0 -1 -1 -1 0 4 20 56 99 92 46 16 7 16 48 95 
95 48 15 2 0 -1 -2 -2 -2 -2 -2 -2 -2 -2 -2 -2 -2 -2 -2 -2 -2 -1 -1 0 5 19 49 88 104 75 37 13 3 0 -1 -2 -2 -2 -2 -2 -2 -1 0 5 20 50 92 111 102 108 109 69 27 7 0 -1 -2 -2 -2 -2 -2 -2 -2 -2 -2 -2 -2 -2 -2 -2 -2 -2 -2 -2 -2 -2 -2 -2 -2 -2 -2 -2 -2 -1 -1 2 12 39 83 104 71 30 9 1 -1 -1 -1 -1 0 7 27 68 104 81 37 12 6 16 48 95 
95 48 15 2 0 -1 -2 -2 -2 -2 -2 -2 -2 -2 -2 -2 -2 -2 -2 -2 -2 -1 0 3 13 37 75 104 88 49 19 5 0 -1 -1 -2 -2 -2 -2 -2 -1 0 2 13 37 76 105 95 75 87 108 80 35 10 1 -1 -1 -2 -2 -2 -2 -2 -2 -2 -2 -2 -2 -2 -2 -2 -2 -2 -2 -2 -2 -2 -2 -2 -2 -2 -2 -2 -2 -1 0 4 20 54 96 96 54 20 4 0 -1 -2 -1 -1 1 11 36 81 104 69 28 8 5 16 48 95 
95 49 15 2 0 -1 -2 -2 -2 -2 -2 -2 -2 -2 -2 -2 -2 -2 -2 -2 -1 -1 1 8 27 62 98 98 62 27 8 1 -1 -1 -2 -2 -2 -2 -2 -1 -1 0 8 26 61 98 100 68 50 68 103 89 42 13 2 -1 -1 -2 -2 -2 -2 -2 -2 -2 -2 -2 -2 -2 -2 -2 -2 -2 -2 -2 -2 -2 -2 -2 -2 -2 -2 -2 -1 -1 1 9 30 71 104 83 39 12 2 -1 -1 -2 -1 0 2 15 46 92 99 56 20 5 4 16 48 95 
96 50 16 3 0 -1 -2 -2 -2 -2 -2 -2 -2 -2 -2 -2 -2 -2 -2 -1 -1 0 5 19 49 88 104 75 37 13 3 0 -1 -2 -2 -2 -2 -2 -2 -1 0 3 16 45 86 104 77 43 33 57 98 93 46 14 2 -1 -1 -2 -2 -2 -2 -2 -2 -2 -2 -2 -2 -2 -2 -2 -2 -2 -2 -2 -2 -2 -2 -2 -2 -2 -2 -2 -1 0 3 16 46 89 102 65 26 7 0 -1 -2 -2 -1 0 4 20 56 99 92 46 15 4 4 15 48 95 
100 53 19 4 0 -1 -2 -2 -2 -2 -2 -2 -2 -2 -2 -2 -2 -2 -2 -1 0 3 13 37 75 104 88 49 19 5 0 -1 -1 -2 -2 -2 -2 -2 -1 -1 1 8 29 67 102 91 52 25 23 51 96 95 49 16 2 0 -1 -2 -2 -2 -2 -2 -2 -2 -2 -2 -2 -2 -2 -2 -2 -2 -2 -2 -2 -2 -2 -2 -2 -2 -2 -2 -1 0 7 26 65 102 89 46 16 3 0 -1 -2 -2 -1 0 7 27 68 104 81 37 11 2 3 15 48 96 
108 64 26 8 1 -1 -1 -2 -2 -2 -2 -2 -2 -2 -2 -2 -2 -2 -1 -1 1 8 27 62 98 98 62 27 8 1 -1 -1 -2 -2 -2 -2 -2 -2 -1 0 4 17 47 89 103 69 31 14 18 47 93 97 52 17 3 0 -1 -2 -2 -2 -2 -2 -2 -2 -2 -2 -2 -2 -2 -2 -2 -2 -2 -2 -2 -2 -2 -2 -2 -2 -2 -1 -1 2 12 39 83 104 71 30 9 1 -1 -1 -2 -1 -1 1 11 36 81 104 68 27 7 1 3 15 47 97 
122 86 43 17 5 0 -1 -1 -2 -2 -2 -2 -2 -2 -2 -2 -2 -1 -1 0 5 19 49 88 104 75 37 13 3 0 -1 -2 -2 -2 -2 -2 -2 -1 -1 1 9 30 69 103 89 47 18 8 14 42 89 101 58 21 4 0 -1 -2 -2 -2 -2 -2 -2 -2 -2 -2 -2 -2 -2 -2 -2 -2 -2 -2 -2 -2 -2 -2 -2 -2 -2 -1 0 4 20 54 96 96 54 20 4 0 -1 -2 -2 -1 0 2 15 46 92 99 56 20 4 0 3 15 47 100 
137 116 73 37 15 4 0 -1 -2 -2 -2 -2 -2 -2 -2 -2 -2 -1 0 3 13 37 75 104 88 49 19 5 0 -1 -1 -2 -2 -2 -2 -2 -2 -1 0 5 20 50 91 102 67 29 9 4 11 35 80 104 69 27 7 0 -1 -2 -2 -2 -2 -2 -2 -2 -2 -2 -2 -2 -2 -2 -2 -2 -2 -2 -2 -2 -2 -2 -2 -2 -1 -1 1 9 30 71 104 83 39 12 2 -1 -1 -2 -2 -1 0 4 20 56 99 92 46 15 3 0 2 14 47 102 
137 131 105 68 33 12 2 0 -1 -2 -2 -2 -2 -2 -2 -2 -1 -1 1 8 27 62 98 98 62 27 8 1 -1 -1 -2 -2 -2 -2 -2 -2 -1 0 2 13 37 76 104 86 45 16 4 2 7 27 69 104 80 35 10 1 -1 -1 -2 -2 -2 -2 -2 -2 -2 -2 -2 -2 -2 -2 -2 -2 -2 -2 -2 -2 -2 -2 -2 -2 -1 0 3 16 46 89 102 65 26 7 0 -1 -2 -2 -2 -1 0 7 27 68 104 81 36 11 1 0 2 14 47 101 
124 117 114 98 61 27 9 1 0 -1 -2 -2 -2 -2 -2 -1 -1 0 5 19 49 88 104 75 37 13 3 0 -1 -2 -2 -2 -2 -2 -2 -1 -1 0 8 26 61 98 98 61 26 8 1 0 5 21 58 101 89 42 13 2 -1 -1 -2 -2 -2 -2 -2 -2 -2 -2 -2 -2 -2 -2 -2 -2 -2 -2 -2 -2 -2 -2 -2 -2 -1 0 7 26 65 102 89 46 16 3 0 -1 -2 -2 -1 -1 1 11 36 81 104 68 27 7 0 0 2 15 47 99 
111 91 94 107 89 50 21 6 0 -1 -1 -2 -2 -2 -2 -1 0 3 13 37 75 104 88 49 19 5 0 -1 -1 -2 -2 -2 -2 -2 -2 -1 0 3 16 45 86 104 76 37 13 2 0 0 3 17 52 97 93 46 14 2 -1 -1 -2 -2 -2 -2 -2 -2 -2 -2 -2 -2 -2 -2 -2 -2 -2 -2 -2 -2 -2 -2 -2 -1 -1 2 12 39 83 104 71 30 9 1 -1 -1 -2 -2 -1 0 2 15 46 92 99 56 20 4 0 0 2 15 48 97 
102 71 67 93 104 78 42 17 5 0 -1 -1 -2 -2 -1 -1 1 8 27 62 98 98 62 27 8 1 -1 -1 -2 -2 -2 -2 -2 -2 -1 -1 1 8 29 67 102 91 50 20 5 0 -1 0 3 16 49 95 95 49 16 2 0 -1 -2 -2 -2 -2 -2 -2 -2 -2 -2 -2 -2 -2 -2 -2 -2 -2 -2 -2 -2 -2 -2 -1 0 4 20 54 96 96 54 20 4 0 -1 -2 -2 -2 -1 0 4 20 56 99 92 46 15 2 0 0 2 15 48 96 
98 59 45 65 97 102 73 39 16 5 0 -1 -1 -1 -1 0 5 19 49 88 104 75 37 13 3 0 -1 -2 -2 -2 -2 -2 -2 -2 -1 0 4 17 47 89 103 69 30 9 1 -1 -1 0 2 14 46 93 97 52 17 3 0 -1 -2 -2 -2 -2 -2 -2 -2 -2 -2 -2 -2 -2 -2 -2 -2 -2 -2 -2 -2 -2 -1 -1 1 9 30 71 104 83 39 12 2 -1 -1 -2 -2 -2 -1 0 7 27 68 104 81 36 11 1 -1 0 2 15 48 95 
96 53 30 38 69 99 100 71 38 16 5 0 -1 -1 0 3 13 37 75 104 88 49 19 5 0 -1 -1 -2 -2 -2 -2 -2 -2 -1 -1 1 9 30 69 103 89 47 17 4 0 -1 -1 -1 2 13 42 89 101 58 21 4 0 -1 -2 -2 -2 -2 -2 -2 -2 -2 -2 -2 -2 -2 -2 -2 -2 -2 -2 -2 -2 -2 -1 0 3 16 46 89 102 65 26 7 0 -1 -2 -2 -2 -1 -1 1 11 36 81 104 68 27 7 0 -1 0 2 15 48 95 
96 50 22 20 38 71 100 100 71 38 16 5 0 0 1 9 27 62 98 98 62 27 8 1 -1 -1 -2 -2 -2 -2 -2 -2 -2 -1 0 5 20 50 91 102 67 29 8 1 -1 -1 -1 -1 1 10 35 80 104 69 27 7 0 -1 -2 -2 -2 -2 -2 -2 -2 -2 -2 -2 -2 -2 -2 -2 -2 -2 -2 -2 -2 -2 -1 0 7 26 65 102 89 46 16 3 0 -1 -2 -2 -2 -1 0 2 15 46 92 99 56 20 4 0 -1 0 2 15 48 95 
95 49 18 10 17 38 71 100 100 71 38 16 6 2 6 19 49 88 104 75 37 13 3 0 -1 -2 -2 -2 -2 -2 -2 -2 -1 0 2 13 37 76 104 86 45 16 3 0 -1 -2 -2 -1 0 7 27 69 104 80 35 10 1 -1 -1 -2 -2 -2 -2 -2 -2 -2 -2 -2 -2 -2 -2 -2 -2 -2 -2 -2 -2 -1 -1 2 12 39 83 104 71 30 9 1 -1 -1 -2 -2 -2 -1 0 4 20 56 99 92 46 15 2 0 -1 0 2 15 48 95 
95 48 16 5 6 16 38 71 100 100 71 39 18 10 16 38 76 104 88 49 19 5 0 -1 -1 -2 -2 -2 -2 -2 -2 -1 -1 0 8 26 61 98 98 61 26 8 0 -1 -1 -2 -2 -1 0 4 21 58 101 89 42 13 2 -1 -1 -2 -2 -2 -2 -2 -2 -2 -2 -2 -2 -2 -2 -2 -2 -2 -2 -2 -2 -1 0 4 20 54 96 96 54 20 4 0 -1 -2 -2 -2 -2 -1 0 7 27 68 104 81 36 11 1 -1 -1 0 2 15 48 95 
95 48 15 3 1 5 16 38 71 100 100 72 42 28 35 65 99 98 62 27 8 1 -1 -1 -2 -2 -2 -2 -2 -2 -2 -1 0 3 16 45 86 104 76 37 13 2 0 -1 -2 -2 -2 -1 0 3 17 51 97 94 47 15 2 0 -1 -2 -2 -2 -2 -2 -2 -2 -2 -2 -2 -2 -2 -2 -2 -2 -2 -2 -1 -1 1 9 30 71 104 83 39 12 2 -1 -1 -2 -2 -2 -1 -1 1 11 36 81 104 68 27 7 0 -1 -1 0 2 15 48 95 
95 48 15 3 0 0 5 16 38 71 100 102 78 60 67 94 105 75 37 13 3 0 -1 -2 -2 -2 -2 -2 -2 -2 -1 -1 1 8 29 67 102 91 50 20 5 0 -1 -2 -2 -2 -2 -1 0 2 15 47 94 97 51 17 3 0 -1 -2 -2 -2 -2 -2 -2 -2 -2 -2 -2 -2 -2 -2 -2 -2 -2 -2 -1 0 3 16 46 89 102 65 26 7 0 -1 -2 -2 -2 -2 -1 0 2 15 46 92 99 56 20 4 0 -1 -1 0 2 15 48 95 
95 48 15 2 0 -1 0 5 16 38 72 102 110 104 107 112 89 49 19 5 0 -1 -1 -2 -2 -2 -2 -2 -2 -2 -1 0 4 17 47 89 103 69 30 9 1 -1 -1 -2 -2 -2 -2 -1 -1 2 13 42 89 101 58 21 4 0 -1 -2 -2 -2 -2 -2 -2 -2 -2 -2 -2 -2 -2 -2 -2 -2 -2 -2 -1 0 7 26 65 102 89 46 16 3 0 -1 -2 -2 -2 -2 -1 0 4 20 56 99 92 46 15 2 0 -1 -1 0 2 15 48 95 
95 48 15 2 0 -1 -1 0 5 16 39 74 111 134 134 107 63 27 8 1 -1 -1 -2 -2 -2 -2 -2 -2 -2 -1 -1 1 9 30 69 103 89 47 17 4 0 -1 -2 -2 -2 -2 -2 -1 -1 1 10 35 80 104 69 27 7 0 -1 -2 -2 -2 -2 -2 -2 -2 -2 -2 -2 -2 -2 -2 -2 -2 -2 -1 -1 2 12 39 83 104 71 30 9 1 -1 -1 -2 -2 -2 -2 -1 0 7 27 68 104 81 36 11 1 -1 -1 -1 0 2 15 48 95 
95 48 15 2 0 -1 -1 -1 0 5 18 43 86 129 129 85 39 14 3 0 -1 -2 -2 -2 -2 -2 -2 -2 -2 -1 0 5 20 50 91 102 67 29 8 1 -1 -1 -2 -2 -2 -2 -2 -2 -1 0 7 27 69 104 80 35 10 1 -1 -1 -2 -2 -2 -2 -2 -2 -2 -2 -2 -2 -2 -2 -2 -2 -2 -1 0 4 20 54 96 96 54 20 4 0 -1 -2 -2 -2 -2 -1 -1 1 11 36 81 104 68 27 7 0 -1 -1 -1 0 2 15 48 95 
95 48 15 2 0 -1 -2 -1 -1 1 7 25 62 110 114 67 27 7 0 -1 -1 -2 -2 -2 -2 -2 -2 -2 -1 0 2 13 37 76 104 86 45 16 3 0 -1 -2 -2 -2 -2 -2 -2 -2 -1 0 4 21 58 101 89 42 13 2 -1 -1 -2 -2 -2 -2 -2 -2 -2 -2 -2 -2 -2 -2 -2 -2 -1 -1 1 9 30 71 104 83 39 12 2 -1 -1 -2 -2 -2 -2 -1 0 2 15 46 92 99 56 20 4 0 -1 -2 -1 0 2 15 48 95 
95 48 15 2 0 -1 -2 -2 -1 0 3 16 47 95 106 63 24 6 0 -1 -2 -2 -2 -2 -2 -2 -2 -1 -1 0 8 26 61 98 98 61 26 8 0 -1 -1 -2 -2 -2 -2 -2 -2 -2 -1 0 3 17 52 97 93 46 14 2 -1 -1 -2 -2 -2 -2 -2 -2 -2 -2 -2 -2 -2 -2 -2 -2 -1 0 3 16 46 89 102 65 26 7 0 -1 -2 -2 -2 -2 -2 -1 0 4 20 56 99 92 46 15 2 0 -1 -2 -1 0 2 15 48 95 
95 48 15 2 0 -1 -2 -2 -1 -1 1 11 37 82 106 70 28 7 0 -1 -2 -2 -2 -2 -2 -2 -2 -1 0 3 16 45 86 104 76 37 13 2 0 -1 -2 -2 -2 -2 -2 -2 -2 -2 -1 0 2 16 49 95 95 49 16 2 0 -1 -2 -2 -2 -2 -2 -2 -2 -2 -2 -2 -2 -2 -2 -2 -1 0 7 26 65 102 89 46 16 3 0 -1 -2 -2 -2 -2 -2 -1 0 7 27 68 104 81 36 11 1 -1 -1 -2 -1 0 2 15 48 95 
95 48 15 2 0 -1 -2 -2 -2 -1 0 7 28 69 104 81 36 10 1 -1 -1 -2 -2 -2 -2 -2 -1 -1 1 8 29 67 102 91 50 20 5 0 -1 -2 -2 -2 -2 -2 -2 -2 -2 -2 -1 -1 2 14 46 93 97 52 17 3 0 -1 -2 -2 -2 -2 -2 -2 -2 -2 -2 -2 -2 -2 -2 -1 -1 2 12 39 83 104 71 30 9 1 -1 -1 -2 -2 -2 -2 -1 -1 1 11 36 81 104 68 27 7 0 -1 -2 -2 -1 0 2 15 48 95 
95 48 15 2 0 -1 -2 -2 -2 -1 0 4 21 58 100 90 43 13 2 -1 -1 -2 -2 -2 -2 -2 -1 0 4 17 47 89 103 69 30 9 1 -1 -1 -2 -2 -2 -2 -2 -2 -2 -2 -2 -1 -1 2 13 42 89 101 58 21 4 0 -1 -2 -2 -2 -2 -2 -2 -2 -2 -2 -2 -2 -2 -2 -1 0 4 20 54 96 96 54 20 4 0 -1 -2 -2 -2 -2 -2 -1 0 2 15 46 92 99 56 20 4 0 -1 -2 -2 -1 0 3 16 49 96 
96 48 15 2 0 -1 -2 -2 -2 -1 0 3 16 50 95 95 50 16 3 0 -1 -2 -2 -2 -2 -1 -1 1 9 30 69 103 89 47 17 4 0 -1 -2 -2 -2 -2 -2 -2 -2 -2 -2 -2 -1 -1 1 10 35 80 104 69 27 7 0 -1 -2 -2 -2 -2 -2 -2 -2 -2 -2 -2 -2 -2 -1 -1 1 9 30 71 104 83 39 12 2 -1 -1 -2 -2 -2 -2 -2 -1 0 4 20 56 99 92 46 15 2 0 -1 -2 -2 -1 0 3 17 52 99 
97 47 15 2 0 -1 -2 -2 -2 -1 -1 2 13 43 90 100 58 21 4 0 -1 -2 -2 -2 -2 -1 0 5 20 50 91 102 67 29 8 1 -1 -1 -2 -2 -2 -2 -2 -2 -2 -2 -2 -2 -2 -1 0 7 27 69 104 80 35 10 1 -1 -1 -2 -2 -2 -2 -2 -2 -2 -2 -2 -2 -2 -1 0 3 16 46 89 102 65 26 7 0 -1 -2 -2 -2 -2 -2 -2 -1 0 7 27 68 104 81 36 11 1 -1 -1 -2 -2 -1 0 5 22 59 105 
99 47 14 2 0 -1 -2 -2 -2 -1 -1 1 10 36 81 104 69 27 7 0 -1 -2 -2 -2 -1 0 2 13 37 76 104 86 45 16 3 0 -1 -2 -2 -2 -2 -2 -2 -2 -2 -2 -2 -2 -2 -1 0 4 21 58 101 89 42 13 2 -1 -1 -2 -2 -2 -2 -2 -2 -2 -2 -2 -2 -2 -1 0 7 26 65 102 89 46 16 3 0 -1 -2 -2 -2 -2 -2 -1 -1 1 11 36 81 104 68 27 7 0 -1 -2 -2 -1 -1 1 10 31 74 117 
101 46 14 2 -1 -1 -2 -2 -2 -2 -1 0 7 27 69 104 81 36 10 1 -1 -1 -2 -1 -1 0 8 26 61 98 98 61 26 8 0 -1 -1 -2 -2 -2 -2 -2 -2 -2 -2 -2 -2 -2 -2 -1 0 3 17 52 97 93 46 14 2 -1 -1 -2 -2 -2 -2 -2 -2 -2 -2 -2 -2 -1 -1 2 12 39 83 104 71 30 9 1 -1 -1 -2 -2 -2 -2 -2 -1 0 2 15 46 92 99 56 20 4 0 -1 -2 -1 -1 0 5 19 50 97 130 
101 46 14 2 -1 -1 -2 -2 -2 -2 -1 0 4 21 58 100 90 43 13 2 -1 -1 -2 -1 0 3 16 45 86 104 76 37 13 2 0 -1 -2 -2 -2 -2 -2 -2 -2 -2 -2 -2 -2 -2 -2 -1 0 2 16 49 95 95 49 16 2 0 -1 -2 -2 -2 -2 -2 -2 -2 -2 -2 -2 -1 0 4 20 54 96 96 54 20 4 0 -1 -2 -2 -2 -2 -2 -2 -1 0 4 20 56 99 92 46 15 2 0 -1 -2 -1 0 3 13 36 76 121 138 
100 47 14 2 0 -1 -2 -2 -2 -2 -1 0 3 16 50 95 95 50 16 3 0 -1 -1 -1 1 8 29 67 102 91 50 20 5 0 -1 -2 -2 -2 -2 -2 -2 -2 -2 -2 -2 -2 -2 -2 -2 -1 -1 2 14 46 93 97 52 17 3 0 -1 -2 -2 -2 -2 -2 -2 -2 -2 -2 -1 -1 1 9 30 71 104 83 39 12 2 -1 -1 -2 -2 -2 -2 -2 -2 -1 0 7 27 68 104 81 36 11 1 -1 -1 -1 -1 1 8 27 62 104 130 135 
99 47 15 2 0 -1 -2 -2 -2 -2 -1 -1 2 13 43 90 100 58 21 4 0 -1 -1 0 4 17 47 89 103 69 30 9 1 -1 -1 -2 -2 -2 -2 -2 -2 -2 -2 -2 -2 -2 -2 -2 -2 -1 -1 2 13 42 89 101 58 21 5 0 -1 -1 -2 -2 -2 -2 -2 -2 -2 -2 -1 0 3 16 46 89 102 65 26 7 0 -1 -2 -2 -2 -2 -2 -2 -1 -1 1 11 36 81 104 68 27 7 0 -1 -1 -1 0 5 19 49 89 115 119 124 
97 48 15 2 0 -1 -2 -2 -2 -2 -1 -1 1 10 36 81 104 69 27 7 0 -1 -1 1 9 30 69 103 89 47 17 4 0 -1 -2 -2 -2 -2 -2 -2 -2 -2 -2 -2 -2 -2 -2 -2 -2 -1 -1 1 10 36 81 104 70 28 8 1 0 -1 -1 -1 -1 -1 -1 -1 -1 -1 -1 0 7 26 65 102 89 46 16 3 0 -1 -2 -2 -2 -2 -2 -2 -1 0 2 15 46 92 99 56 20 4 0 -1 -1 0 3 13 37 75 106 103 97 112 
96 48 15 2 0 -1 -2 -2 -2 -2 -2 -1 0 7 27 69 104 81 36 10 1 0 0 5 20 50 91 102 67 29 8 1 -1 -1 -2 -2 -2 -2 -2 -2 -2 -2 -2 -2 -2 -2 -2 -2 -2 -1 -1 0 8 28 70 106 84 40 15 5 2 1 0 0 0 0 -1 -1 -1 -1 0 2 12 39 83 104 71 30 9 1 -1 -1 -2 -2 -2 -2 -2 -2 -1 0 4 20 56 99 92 46 15 2 0 -1 -1 1 8 27 62 99 102 79 77 104 
96 48 15 2 0 -1 -2 -2 -2 -2 -2 -1 0 4 21 58 100 90 43 13 2 0 3 13 37 76 104 86 45 16 3 0 -1 -2 -2 -2 -2 -2 -2 -2 -2 -2 -2 -2 -2 -2 -2 -2 -2 -1 -1 1 7 26 65 108 100 58 30 18 14 10 7 4 3 2 2 2 1 0 1 6 20 54 97 96 54 20 4 0 -1 -2 -2 -2 -2 -2 -2 -2 -1 0 7 27 68 104 81 36 11 1 -1 -1 0 5 19 49 88 104 80 55 64 99 
95 48 15 2 0 -1 -2 -2 -2 -2 -2 -1 0 3 16 50 95 95 50 17 4 2 8 26 61 98 98 61 26 8 0 -1 -1 -2 -2 -2 -2 -2 -2 -2 -2 -2 -2 -2 -2 -2 -2 -1 -1 -1 0 4 12 33 72 118 122 88 62 50 43 35 27 21 17 16 14 13 10 8 8 14 34 73 105 83 39 12 2 -1 -1 -2 -2 -2 -2 -2 -2 -1 -1 1 11 36 81 104 68 27 7 0 -1 0 3 13 37 75 104 89 54 37 56 97 
95 48 15 2 0 -1 -2 -2 -2 -2 -2 -1 -1 2 13 43 90 100 58 21 6 5 16 45 86 104 76 37 13 2 0 -1 -2 -2 -2 -2 -2 -2 -2 -2 -2 -2 -2 -2 -2 -2 -1 -1 0 1 5 14 29 56 95 132 139 120 104 96 89 81 69 58 52 49 46 42 36 29 26 33 58 96 104 65 26 7 0 -1 -2 -2 -2 -2 -2 -2 -2 -1 0 2 15 46 92 99 56 20 4 0 0 1 8 27 62 98 99 63 32 26 52 96 
95 48 15 2 0 -1 -2 -2 -2 -2 -2 -1 -1 1 10 36 81 104 69 28 10 11 30 67 102 91 50 20 5 0 -1 -2 -2 -2 -2 -2 -2 -2 -2 -2 -2 -2 -2 -2 -2 -1 -1 0 3 8 19 37 63 92 114 122 114 104 99 98 101 104 104 101 97 95 93 89 81 70 65 72 96 117 95 49 17 3 0 -1 -2 -2 -2 -2 -2 -2 -2 -1 0 4 20 56 99 92 46 15 3 0 0 5 19 49 88 104 76 38 18 20 50 95 
95 48 15 2 0 -1 -2 -2 -2 -2 -2 -2 -1 0 7 27 69 104 81 37 17 20 48 89 103 69 30 9 1 -1 -1 -2 -2 -2 -2 -2 -2 -2 -2 -2 -2 -2 -2 -1 -1 0 1 5 13 27 49 75 99 106 94 75 60 52 50 52 58 69 80 89 93 95 97 101 104 106 107 116 133 130 86 38 12 2 0 -1 -2 -2 -2 -2 -2 -2 -1 -1 0 7 27 68 104 81 37 11 1 0 3 13 37 75 104 88 49 20 10 17 49 95 
95 48 15 2 0 -1 -2 -2 -2 -2 -2 -2 -1 0 4 21 58 100 90 47 25 35 70 103 89 47 17 4 0 -1 -2 -2 -2 -2 -2 -2 -2 -2 -2 -2 -2 -2 -1 -1 0 2 8 19 37 62 88 104 99 76 51 32 22 17 16 17 21 27 35 42 46 49 52 58 69 82 95 112 132 130 87 40 13 3 0 -1 -1 -1 -1 -1 -1 -1 -1 -1 1 11 37 82 104 69 27 7 1 1 9 27 62 98 98 62 28 10 6 16 48 95 
95 48 15 2 0 -1 -2 -2 -2 -2 -2 -2 -1 0 3 16 50 96 97 57 39 56 92 102 67 29 8 1 -1 -1 -2 -2 -2 -2 -2 -2 -2 -2 -2 -2 -1 -1 -1 0 4 12 27 49 75 98 104 88 62 37 20 10 5 3 3 3 4 7 10 13 14 16 17 21 28 37 48 65 93 116 98 55 23 8 2 0 0 0 0 0 0 0 0 0 4 16 47 92 99 56 20 5 1 5 19 49 88 104 75 37 13 4 4 16 48 95 
95 48 15 2 0 -1 -2 -2 -2 -2 -2 -2 -1 -1 2 13 43 90 104 73 60 82 105 86 45 16 3 0 -1 -2 -2 -2 -2 -2 -2 -2 -2 -2 -2 -1 -1 0 1 6 16 34 61 88 104 98 75 49 27 13 5 1 0 0 0 0 0 0 1 2 2 2 3 5 7 11 17 29 55 92 108 81 45 22 10 5 3 3 2 2 2 2 3 4 9 24 60 101 93 47 16 4 4 13 37 75 104 88 49 19 5 1 3 15 48 95 
95 48 15 2 0 -1 -2 -2 -2 -2 -2 -2 -1 -1 1 10 35 81 110 96 90 106 99 61 26 8 0 -1 -1 -2 -2 -2 -2 -2 -2 -2 -2 -1 -1 -1 0 3 9 20 41 70 97 104 89 62 37 19 8 3 0 -1 -1 -1 -1 -1 -1 -1 -1 -1 -1 0 0 0 0 1 4 11 29 64 103 110 82 52 33 22 18 16 15 15 15 15 16 18 24 43 80 112 88 42 15 6 10 28 62 98 98 62 27 9 1 0 3 15 48 95 
95 48 15 2 0 -1 -2 -2 -2 -2 -2 -2 -2 -1 0 7 27 69 113 120 118 110 76 37 13 2 0 -1 -2 -2 -2 -2 -2 -2 -2 -2 -1 -1 0 1 5 13 28 50 78 101 101 78 50 28 13 5 1 0 -1 -1 -2 -2 -2 -2 -2 -2 -1 -1 -1 -1 -1 -1 -1 -1 0 3 14 40 84 123 124 99 75 60 52 49 48 48 48 48 49 51 59 78 111 125 89 44 20 13 23 50 89 104 75 37 13 3 0 0 2 15 48 95 
95 48 15 2 0 -1 -2 -2 -2 -2 -2 -2 -2 -1 0 4 20 57 110 136 128 93 50 19 5 0 -1 -2 -2 -2 -2 -2 -2 -2 -1 -1 -1 0 3 8 19 37 62 89 104 97 70 41 20 9 3 0 -1 -1 -1 -2 -2 -2 -2 -2 -2 -2 -2 -2 -2 -2 -2 -2 -1 -1 -1 0 7 27 67 120 141 127 112 103 98 96 95 95 95 95 96 97 103 116 136 137 104 64 39 32 46 79 105 89 49 19 5 0 -1 0 2 15 48 95 
95 48 15 2 0 -1 -2 -2 -2 -2 -2 -2 -2 -1 0 3 16 50 105 138 117 68 29 9 1 -1 -1 -2 -2 -2 -2 -2 -2 -1 -1 0 1 5 13 27 49 75 98 104 88 61 34 16 6 1 0 -1 -1 -2 -2 -2 -2 -2 -2 -2 -2 -2 -2 -2 -2 -2 -2 -2 -2 -2 -1 0 6 24 63 113 123 103 93 92 94 95 95 95 95 95 95 96 98 103 114 123 117 98 78 71 84 108 102 64 28 9 1 -1 -1 0 2 15 48 95 
95 48 15 2 0 -1 -2 -2 -2 -2 -2 -2 -2 -1 0 2 15 48 102 130 95 46 16 4 0 -1 -2 -2 -2 -2 -1 -1 -1 0 0 2 8 18 36 62 89 104 99 76 49 27 12 4 0 0 -1 -1 -2 -2 -2 -2 -2 -2 -2 -2 -2 -2 -2 -2 -2 -2 -2 -2 -2 -2 -1 0 7 28 70 109 96 63 48 45 47 48 48 48 48 48 48 48 49 52 59 74 93 106 111 115 126 124 87 43 15 3 0 -1 -1 0 2 15 48 95 
95 48 15 2 0 -1 -2 -2 -2 -2 -2 -2 -2 -1 0 2 15 47 99 116 73 30 9 1 -1 -1 -2 -2 -1 -1 -1 0 0 2 6 13 26 47 75 101 108 93 67 40 22 10 4 0 0 -1 -1 -1 -1 -2 -2 -2 -2 -2 -2 -2 -2 -2 -2 -2 -2 -2 -2 -2 -2 -1 -1 1 10 35 81 106 74 37 20 15 15 15 15 15 15 15 15 15 16 17 21 31 47 69 94 119 139 127 79 35 11 2 0 -1 -1 0 2 15 48 95 
95 48 15 2 0 -1 -2 -2 -2 -2 -2 -2 -2 -1 0 2 15 49 98 104 58 21 5 0 -1 -1 -1 -1 -1 0 1 3 7 13 22 37 62 92 117 120 97 68 43 26 14 8 4 2 0 0 0 -1 -1 -1 -1 -1 -1 -2 -2 -2 -2 -2 -2 -2 -2 -2 -2 -2 -2 -1 -1 2 13 42 89 101 60 23 8 3 2 2 2 2 2 2 2 2 3 3 5 9 17 30 51 81 114 123 87 43 15 3 0 -1 -1 0 2 15 48 95 
95 48 15 2 0 -1 -2 -2 -2 -2 -2 -2 -2 -1 0 3 17 52 98 96 50 16 3 0 -1 -1 -1 0 1 3 8 16 26 40 57 79 107 131 139 124 96 71 54 41 29 21 15 11 7 4 3 2 1 0 0 0 -1 -1 -1 -1 -1 -1 -2 -2 -2 -2 -2 -2 -2 -1 0 2 15 47 94 97 52 18 4 0 0 0 0 0 0 0 0 0 0 0 0 1 4 9 20 41 75 107 103 64 28 9 1 -1 -1 0 2 15 48 95 
95 48 15 2 0 -1 -2 -2 -2 -2 -2 -2 -2 -1 0 4 21 58 101 90 43 13 2 0 0 0 2 4 9 17 29 45 65 83 99 110 117 120 124 121 112 102 93 82 69 56 46 37 28 21 16 13 10 7 4 2 1 0 0 0 -1 -1 -1 -1 -1 -1 -2 -2 -2 -1 0 3 17 51 97 94 47 15 2 0 -1 -1 -1 -1 -1 -1 -1 -1 -1 -1 -1 -1 0 1 6 18 42 79 105 89 49 19 5 0 -1 0 2 15 48 95 
95 48 15 2 0 -1 -2 -2 -2 -2 -2 -2 -2 -1 0 7 27 69 104 81 36 11 3 1 3 7 12 20 31 47 68 88 102 104 97 86 74 68 73 83 91 96 101 104 104 99 92 82 69 58 50 43 36 27 20 15 11 7 4 3 2 1 0 0 0 -1 -1 -1 -1 -1 0 5 21 58 101 89 42 13 2 -1 -1 -2 -2 -2 -2 -2 -2 -2 -2 -2 -2 -1 -1 0 1 6 20 50 89 104 75 37 13 3 0 0 2 15 48 95 
95 48 15 2 0 -1 -2 -2 -2 -2 -2 -2 -1 -1 1 10 36 81 104 69 29 10 6 9 16 26 39 54 71 90 103 103 90 72 54 40 30 26 29 36 43 50 58 69 82 92 99 104 104 100 95 90 81 68 56 46 37 28 21 16 13 10 7 4 2 1 0 0 0 0 1 7 28 69 104 80 35 10 1 -1 -1 -2 -2 -2 -2 -2 -2 -2 -2 -2 -2 -2 -2 -1 0 1 9 28 62 98 98 62 28 9 1 0 3 15 48 95 
95 48 15 2 0 -1 -2 -2 -2 -2 -2 -2 -1 -1 2 13 43 90 102 61 27 16 18 29 45 65 83 96 104 102 88 68 47 31 20 13 8 6 7 10 13 16 21 28 37 46 56 68 81 90 95 100 104 104 99 92 82 69 58 50 43 36 27 20 15 11 7 4 3 3 4 13 37 81 104 69 27 7 0 -1 -2 -2 -2 -2 -2 -2 -2 -2 -2 -2 -2 -2 -2 -2 -1 0 3 13 37 75 104 89 50 20 6 1 3 15 48 95 
95 48 15 2 0 -1 -2 -2 -2 -2 -2 -2 -1 0 3 16 50 97 101 62 36 35 48 68 88 102 104 96 83 65 45 29 17 9 4 2 0 0 0 1 2 3 4 7 11 15 20 27 36 43 50 58 69 82 92 99 104 104 100 95 90 81 68 56 46 37 28 21 17 14 14 22 49 92 101 58 21 4 0 -1 -2 -2 -2 -2 -2 -2 -2 -2 -2 -2 -2 -2 -2 -2 -1 -1 0 5 19 49 88 104 78 41 16 5 4 16 48 95 
95 48 15 2 0 -1 -2 -2 -2 -2 -2 -2 -1 0 5 21 59 106 108 77 64 73 90 103 103 90 71 54 39 26 16 8 3 1 0 -1 -1 -1 -1 -1 -1 0 0 0 1 2 4 7 10 13 16 21 28 37 46 56 68 81 90 95 100 104 104 99 92 82 69 58 50 44 40 44 67 104 100 52 17 3 0 -1 -2 -2 -2 -2 -2 -2 -2 -2 -2 -2 -2 -2 -2 -2 -2 -1 -1 1 8 27 61 97 101 70 34 13 7 17 49 95 
95 48 15 2 0 -1 -2 -2 -2 -2 -2 -1 -1 1 9 30 74 121 125 106 101 105 103 89 68 47 31 20 12 7 3 0 0 -1 -1 -1 -1 -2 -2 -1 -1 -1 -1 -1 -1 0 0 0 1 2 3 4 7 11 15 20 27 36 43 50 58 69 82 92 99 104 104 100 96 91 85 84 99 121 100 49 15 2 0 -1 -2 -2 -2 -2 -2 -2 -2 -2 -2 -2 -2 -2 -2 -2 -2 -2 -1 0 2 12 34 70 101 97 61 28 14 19 49 95 
95 48 15 2 0 -1 -2 -2 -2 -2 -2 -1 0 4 16 46 95 135 136 120 105 89 68 47 29 17 9 4 2 0 0 -1 -1 -1 -2 -2 -2 -2 -2 -2 -2 -2 -2 -2 -1 -1 -1 -1 -1 -1 0 0 0 1 2 4 7 10 13 16 21 28 37 46 56 68 81 90 96 101 107 115 129 138 103 47 15 2 0 -1 -2 -2 -2 -2 -2 -2 -2 -2 -2 -2 -2 -2 -2 -2 -2 -2 -2 -1 0 4 16 41 78 104 89 51 25 24 51 96 
95 48 15 2 0 -1 -2 -2 -2 -2 -1 -1 1 9 30 69 113 126 109 86 65 45 29 17 8 4 1 0 -1 -1 -1 -1 -2 -2 -2 -2 -2 -2 -2 -2 -2 -2 -2 -2 -2 -2 -2 -2 -1 -1 -1 -1 -1 -1 0 0 0 1 2 3 4 7 11 15 20 27 36 43 50 58 72 92 119 135 102 47 14 2 0 -1 -2 -2 -2 -2 -2 -2 -2 -2 -2 -2 -2 -2 -2 -2 -2 -2 -2 -1 -1 0 6 20 49 88 104 79 45 34 55 97 
96 48 15 2 0 -1 -2 -2 -2 -1 -1 0 5 20 50 92 111 90 61 40 26 16 8 3 1 0 -1 -1 -1 -2 -2 -2 -2 -2 -2 -2 -2 -2 -2 -2 -2 -2 -2 -2 -2 -2 -2 -2 -2 -2 -2 -2 -2 -1 -1 -1 -1 -1 -1 0 0 0 1 2 4 7 10 13 17 22 32 51 84 117 99 47 15 2 0 -1 -2 -2 -2 -2 -2 -2 -2 -2 -2 -2 -2 -2 -2 -2 -2 -2 -2 -2 -1 -1 1 9 27 61 97 102 74 52 63 99 
96 48 15 2 0 -1 -2 -2 -2 -1 0 3 13 37 76 105 91 54 28 14 7 3 1 0 -1 -1 -1 -2 -2 -2 -2 -2 -2 -2 -2 -2 -2 -2 -2 -2 -2 -2 -2 -2 -2 -2 -2 -2 -2 -2 -2 -2 -2 -2 -2 -2 -2 -1 -1 -1 -1 -1 -1 0 0 0 1 2 3 6 12 27 61 104 97 48 15 2 0 -1 -2 -2 -2 -2 -2 -2 -2 -2 -2 -2 -2 -2 -2 -2 -2 -2 -2 -2 -2 -1 0 2 12 34 70 101 101 78 77 104 
97 48 15 2 0 -1 -2 -2 -1 -1 1 9 28 62 99 99 63 29 11 3 0 0 -1 -1 -1 -2 -2 -2 -2 -2 -2 -2 -2 -2 -2 -2 -2 -2 -2 -2 -2 -2 -2 -2 -2 -2 -2 -2 -2 -2 -2 -2 -2 -2 -2 -2 -2 -2 -2 -2 -2 -2 -1 -1 -1 -1 -1 -1 0 0 5 19 52 98 97 50 16 3 0 -1 -2 -2 -2 -2 -2 -2 -2 -2 -2 -2 -2 -2 -2 -2 -2 -2 -2 -2 -2 -2 -1 0 4 16 40 78 106 103 97 112 
99 47 15 2 0 -1 -2 -1 -1 0 6 20 50 89 104 76 38 14 4 0 -1 -1 -1 -1 -1 -1 -1 -1 -1 -2 -2 -2 -2 -2 -2 -2 -2 -2 -2 -2 -2 -2 -2 -2 -2 -2 -2 -2 -2 -2 -2 -2 -2 -2 -2 -2 -2 -2 -2 -2 -2 -2 -2 -2 -2 -2 -1 -1 -1 0 3 16 49 96 99 54 19 4 0 -1 -1 -2 -2 -2 -2 -2 -2 -2 -2 -2 -2 -2 -2 -2 -2 -2 -2 -2 -2 -2 -1 -1 0 6 20 49 90 115 119 124 
100 47 14 2 0 -1 -1 -1 0 5 17 41 78 106 92 53 23 8 2 0 0 0 0 0 0 0 -1 -1 -1 -1 -1 -1 -1 -1 -1 -1 -1 -1 -1 -1 -2 -2 -2 -2 -2 -2 -2 -2 -2 -2 -2 -2 -2 -2 -2 -2 -2 -2 -2 -2 -2 -2 -2 -2 -2 -2 -2 -1 -1 0 5 18 51 98 108 65 27 9 2 0 -1 -1 -2 -2 -2 -2 -2 -2 -2 -2 -2 -2 -2 -2 -2 -2 -2 -2 -2 -2 -2 -1 -1 1 9 27 62 104 130 135 
101 46 14 2 0 -1 -1 0 5 15 37 73 108 110 77 42 21 10 5 3 3 2 2 2 2 2 2 2 1 0 0 0 0 0 0 0 0 -1 -1 -1 -1 -1 -1 -1 -1 -1 -1 -1 -1 -1 -1 -1 -2 -2 -2 -2 -2 -2 -2 -2 -2 -2 -2 -2 -2 -1 -1 -1 0 3 11 27 61 108 124 88 47 22 10 4 0 0 -1 -1 -2 -2 -2 -2 -2 -2 -2 -2 -2 -2 -2 -2 -2 -2 -2 -2 -2 -2 -1 0 3 13 36 76 121 138 
101 46 14 2 0 -1 0 5 15 37 71 111 130 113 82 57 40 29 21 17 16 15 15 15 15 15 14 13 10 7 4 3 3 2 2 2 2 2 2 1 0 0 0 0 0 0 0 0 0 -1 -1 -1 -1 -1 -1 -1 -1 -1 -1 -1 -1 -1 -1 -1 -1 -1 0 1 5 13 28 52 86 124 140 119 82 52 30 16 8 2 0 -1 -1 -1 -2 -2 -2 -2 -2 -2 -2 -2 -2 -2 -2 -2 -2 -2 -2 -2 -1 -1 0 5 19 50 97 130 
99 47 15 2 0 0 5 16 37 71 109 136 138 124 107 94 82 69 58 52 49 48 48 48 48 47 46 42 35 27 21 17 16 15 15 15 15 14 13 10 7 4 3 3 2 2 2 2 2 2 2 1 0 0 0 0 0 0 0 0 -1 -1 -1 -1 0 1 4 9 20 37 62 89 111 121 124 121 111 92 68 45 26 13 5 1 0 -1 -1 -2 -2 -2 -2 -2 -2 -2 -2 -2 -2 -2 -2 -2 -2 -2 -2 -1 -1 1 10 31 74 117 
97 47 15 3 2 5 16 38 71 103 118 115 107 102 100 102 104 104 101 97 96 95 95 95 95 94 93 89 80 69 58 52 49 48 48 48 47 46 42 35 27 21 17 16 15 15 15 15 15 14 13 10 7 4 3 3 2 2 2 2 2 2 1 1 3 8 16 30 50 76 99 105 94 79 72 78 93 104 103 87 61 37 20 9 4 0 0 -1 -1 -2 -2 -2 -2 -2 -2 -2 -2 -2 -2 -2 -2 -2 -2 -2 -1 0 5 22 59 105 
96 48 17 6 7 18 39 71 101 104 85 64 53 50 52 58 69 80 89 93 94 95 95 95 95 96 97 101 104 104 101 97 96 95 95 95 94 93 89 80 69 58 52 49 48 48 48 48 47 46 42 35 27 21 17 16 15 15 15 15 14 13 11 11 16 27 46 68 91 104 98 76 52 35 29 34 48 69 91 104 98 76 50 30 16 8 2 0 -1 -1 -1 -2 -2 -2 -2 -2 -2 -2 -2 -2 -2 -2 -2 -2 -1 0 3 17 52 99 
96 50 20 14 22 42 73 100 101 74 44 26 18 16 17 21 27 35 42 46 47 48 48 48 48 49 52 58 69 80 89 93 94 95 95 95 96 97 101 104 104 101 97 96 95 95 95 95 94 93 89 80 69 58 52 49 48 48 48 47 46 43 38 37 45 64 87 103 102 87 61 37 20 11 8 10 17 31 50 76 98 104 91 68 45 26 13 5 1 0 -1 -1 -2 -2 -2 -2 -2 -2 -2 -2 -2 -2 -2 -2 -1 0 3 16 49 96 
97 55 30 32 51 78 101 99 71 39 18 8 4 3 3 4 7 10 13 14 15 15 15 15 15 16 17 21 27 35 42 46 47 48 48 48 49 52 58 69 80 89 93 94 95 95 95 95 96 97 101 104 104 101 97 96 95 95 95 94 93 90 86 85 92 105 106 92 68 45 26 13 5 2 0 1 4 9 20 37 61 86 102 102 86 61 37 20 9 4 0 0 -1 -1 -2 -2 -2 -2 -2 -2 -2 -2 -2 -2 -1 0 2 15 48 96 
101 66 52 66 89 104 96 68 37 16 5 1 0 0 0 0 0 1 2 2 2 2 2 2 2 3 3 4 7 10 13 14 15 15 15 15 16 17 21 27 35 42 46 47 48 48 48 48 49 52 58 69 80 89 93 94 95 95 95 96 99 106 119 130 131 113 82 52 31 16 8 2 0 -1 -1 -1 0 1 5 13 26 45 68 91 104 98 76 50 30 16 8 2 0 -1 -1 -1 -2 -2 -2 -2 -2 -2 -2 -2 -1 0 2 15 48 96 
110 87 85 100 104 88 61 34 15 5 0 -1 -1 -1 -1 -1 -1 -1 -1 -1 0 0 0 0 0 0 0 0 0 1 2 2 2 2 2 2 3 3 4 7 10 13 14 15 15 15 15 15 16 17 21 27 35 42 46 47 48 48 49 50 56 70 100 133 130 88 47 23 10 4 0 0 -1 -1 -1 -1 -1 -1 0 2 8 16 30 50 76 98 104 91 68 45 26 13 5 1 0 -1 -1 -1 -2 -2 -2 -2 -2 -2 -1 0 2 15 48 97 
124 115 112 103 78 50 27 12 4 0 -1 -1 -2 -2 -2 -2 -2 -1 -1 -1 -1 -1 -1 -1 -1 -1 -1 -1 -1 -1 -1 -1 0 0 0 0 0 0 0 0 1 2 2 2 2 2 2 2 3 3 4 7 10 13 14 15 15 15 16 17 22 37 71 115 113 65 27 9 2 0 -1 -1 -2 -2 -2 -2 -2 -1 -1 0 0 4 9 20 37 61 86 102 102 86 61 37 20 9 4 1 0 -1 -1 -2 -2 -2 -2 -2 -1 0 2 15 47 99 
137 131 107 73 42 21 9 2 0 -1 -1 -2 -2 -2 -2 -2 -2 -2 -2 -2 -2 -2 -2 -2 -2 -2 -2 -2 -2 -1 -1 -1 -1 -1 -1 -1 -1 -1 -1 -1 -1 -1 -1 0 0 0 0 0 0 0 0 0 1 2 2 2 2 2 3 4 8 22 55 102 101 54 19 4 0 -1 -1 -2 -2 -2 -2 -2 -2 -2 -2 -1 -1 0 1 5 13 26 45 68 91 104 98 76 50 30 17 8 3 0 0 -1 -1 -2 -2 -2 -1 0 2 14 47 101 
137 116 74 39 17 6 1 0 -1 -1 -2 -2 -2 -2 -2 -2 -2 -2 -2 -2 -2 -2 -2 -2 -2 -2 -2 -2 -2 -2 -2 -2 -2 -2 -2 -2 -2 -2 -2 -2 -1 -1 -1 -1 -1 -1 -1 -1 -1 -1 -1 -1 -1 -1 -1 0 0 0 0 0 4 17 50 97 97 50 16 3 0 -1 -2 -2 -2 -2 -2 -2 -2 -2 -2 -2 -1 -1 -1 0 2 8 16 30 50 76 98 104 91 69 47 29 16 8 2 0 -1 -1 -1 -1 -1 0 2 14 47 102 
122 86 43 18 5 0 0 -1 -2 -2 -2 -2 -2 -2 -2 -2 -2 -2 -2 -2 -2 -2 -2 -2 -2 -2 -2 -2 -2 -2 -2 -2 -2 -2 -2 -2 -2 -2 -2 -2 -2 -2 -2 -2 -2 -2 -2 -2 -2 -2 -2 -2 -1 -1 -1 -1 -1 -1 -1 0 3 16 49 96 96 49 15 2 0 -1 -2 -2 -2 -2 -2 -2 -2 -2 -2 -2 -2 -2 -1 -1 0 0 4 9 20 37 61 86 102 103 89 67 45 26 13 5 1 0 0 -1 -1 0 2 15 47 100 
108 64 26 8 1 -1 -1 -2 -2 -2 -2 -2 -2 -2 -2 -2 -2 -2 -2 -2 -2 -2 -2 -2 -2 -2 -2 -2 -2 -2 -2 -2 -2 -2 -2 -2 -2 -2 -2 -2 -2 -2 -2 -2 -2 -2 -2 -2 -2 -2 -2 -2 -2 -2 -2 -2 -2 -2 -1 0 2 15 48 95 95 48 15 2 0 -1 -2 -2 -2 -2 -2 -2 -2 -2 -2 -2 -2 -2 -2 -2 -1 -1 0 1 5 13 26 45 67 89 103 102 87 61 37 19 10 5 2 1 0 0 3 16 48 98 
100 53 19 4 0 -1 -1 -2 -2 -2 -2 -2 -2 -2 -2 -2 -2 -2 -2 -2 -2 -2 -2 -2 -2 -2 -2 -2 -2 -2 -2 -2 -2 -2 -2 -2 -2 -2 -2 -2 -2 -2 -2 -2 -2 -2 -2 -2 -2 -2 -2 -2 -2 -2 -2 -2 -2 -2 -1 0 2 15 48 95 95 48 15 2 0 -1 -2 -2 -2 -2 -2 -2 -2 -2 -2 -2 -2 -2 -2 -2 -2 -1 -1 -1 0 2 8 16 29 47 70 93 106 100 76 50 31 21 15 11 7 5 7 19 50 97 
97 50 16 3 0 -1 -1 -1 -1 -2 -2 -2 -2 -2 -2 -2 -2 -2 -2 -2 -2 -2 -2 -2 -2 -2 -2 -2 -2 -2 -2 -2 -2 -2 -2 -2 -2 -2 -2 -2 -2 -2 -2 -2 -2 -2 -2 -2 -2 -2 -2 -2 -2 -2 -2 -2 -2 -2 -1 0 2 15 48 95 95 48 15 2 0 -1 -2 -2 -2 -2 -2 -2 -2 -2 -2 -2 -2 -2 -2 -2 -2 -2 -2 -1 -1 0 1 4 10 20 35 57 87 112 116 98 74 57 46 36 28 21 20 29 57 100 
98 49 16 4 0 0 0 -1 -1 -1 -1 -1 -1 -1 -1 -1 -1 -2 -2 -2 -2 -2 -2 -2 -2 -2 -2 -2 -2 -2 -2 -2 -2 -2 -2 -2 -2 -2 -2 -2 -2 -2 -2 -2 -2 -2 -2 -2 -2 -2 -2 -2 -2 -2 -2 -2 -2 -2 -1 0 2 15 48 95 95 48 15 2 0 -1 -2 -2 -2 -2 -2 -2 -2 -2 -2 -2 -2 -2 -2 -2 -2 -2 -1 -1 -1 0 0 2 6 13 24 42 71 107 134 136 120 105 93 82 69 57 51 54 76 109 
103 52 20 7 3 2 2 2 1 0 0 0 0 0 -1 -1 -1 -1 -1 -1 -1 -1 -1 -1 -1 -1 -2 -2 -2 -2 -2 -2 -2 -2 -2 -2 -2 -2 -2 -2 -2 -2 -2 -2 -2 -2 -2 -2 -2 -2 -2 -2 -2 -2 -2 -2 -2 -2 -1 0 2 15 48 95 95 48 15 2 0 -1 -2 -2 -2 -2 -2 -2 -2 -2 -2 -2 -2 -2 -2 -2 -1 -1 -1 0 0 2 4 9 17 28 43 62 86 113 129 125 112 104 103 105 104 100 96 96 109 126 
113 63 32 20 16 15 14 13 10 7 4 3 3 2 2 2 1 0 0 0 0 0 0 -1 -1 -1 -1 -1 -1 -1 -1 -1 -1 -1 -2 -2 -2 -2 -2 -2 -2 -2 -2 -2 -2 -2 -2 -2 -2 -2 -2 -2 -2 -2 -2 -2 -2 -2 -1 0 2 15 48 95 95 48 15 2 0 -1 -2 -2 -2 -2 -2 -2 -2 -2 -2 -2 -2 -1 -1 -1 -1 0 1 3 7 12 20 31 46 65 84 98 107 106 93 74 60 56 59 69 82 92 102 114 132 143 
129 90 63 52 49 48 46 42 35 27 21 17 16 15 14 13 10 7 4 3 3 2 2 2 2 1 0 0 0 0 0 -1 -1 -1 -1 -1 -1 -1 -1 -1 -1 -1 -1 -2 -2 -2 -2 -2 -2 -2 -2 -2 -2 -2 -2 -2 -2 -2 -1 0 2 15 48 95 95 48 15 2 0 -1 -2 -2 -2 -2 -2 -2 -2 -2 -2 -1 -1 -1 0 0 2 4 9 16 26 39 54 71 89 102 104 97 83 65 46 31 22 19 21 28 37 47 59 80 111 140 
144 125 107 98 96 95 93 89 80 69 58 52 49 48 46 42 35 27 21 17 16 15 15 14 13 10 7 4 3 3 2 2 2 1 0 0 0 0 0 0 -1 -1 -1 -1 -1 -1 -1 -1 -1 -1 -1 -2 -2 -2 -2 -2 -2 -2 -1 0 2 15 48 95 95 48 15 2 0 -1 -2 -2 -2 -2 -2 -2 -2 -1 -1 -1 0 0 3 7 12 19 30 46 65 83 96 104 102 89 71 54 39 26 16 9 5 4 5 7 11 16 24 42 77 125 
140 125 107 99 96 96 98 101 104 104 101 97 96 95 93 89 80 69 58 52 49 48 47 46 42 35 27 21 17 16 15 14 13 10 7 4 3 3 2 2 2 2 1 0 0 0 0 0 -1 -1 -1 -1 -1 -1 -1 -1 -1 -1 -1 0 2 15 48 95 95 48 15 2 0 -1 -2 -2 -2 -2 -1 -1 -1 -1 0 1 3 8 16 26 39 54 71 89 102 104 96 83 65 46 30 19 12 7 3 1 0 0 0 0 1 3 9 23 58 111 
120 90 64 53 50 50 52 58 69 80 89 93 95 96 97 101 104 104 101 97 96 95 94 93 89 80 69 58 52 49 48 46 42 35 27 21 17 16 15 15 14 13 10 7 4 3 3 2 2 2 1 0 0 0 0 0 0 0 0 0 3 16 48 95 95 48 15 2 0 -1 -2 -2 -1 -1 -1 0 0 2 4 9 17 29 45 65 83 96 104 102 89 71 54 39 26 16 9 4 2 0 0 -1 -1 -1 -1 -1 -1 0 4 17 50 102 
105 64 33 20 17 16 17 21 27 35 42 46 48 49 52 58 69 80 89 93 94 95 96 97 101 104 104 101 97 96 95 93 89 80 69 58 52 49 48 47 46 42 35 27 21 17 16 15 14 13 10 7 4 3 3 2 2 2 2 2 5 17 49 96 96 49 15 2 0 -1 -1 -1 -1 0 1 3 7 12 20 31 47 68 88 102 104 96 83 65 46 30 20 12 7 3 1 0 -1 -1 -1 -1 -2 -2 -2 -1 -1 0 3 16 48 97 
98 53 20 7 4 3 3 4 7 10 13 14 15 16 17 21 27 35 42 46 47 48 49 52 58 69 80 89 93 95 96 97 101 104 104 101 97 96 95 94 93 89 80 69 58 52 49 48 46 42 35 27 21 17 16 15 15 14 13 11 12 22 53 98 97 50 16 3 0 -1 0 0 2 4 9 16 26 39 54 71 90 103 103 90 71 54 39 26 16 9 4 2 0 0 -1 -1 -1 -2 -2 -2 -2 -2 -2 -2 -1 0 2 15 48 96 
96 49 16 4 0 0 0 0 0 1 2 2 2 3 3 4 7 10 13 14 15 15 16 17 21 27 35 42 46 48 49 52 58 69 80 89 93 94 95 96 97 101 104 104 101 97 96 95 93 89 80 69 58 52 49 48 47 46 42 36 32 38 66 106 102 54 19 5 1 1 3 7 12 20 30 46 65 83 96 104 102 88 68 47 31 20 12 7 3 1 0 -1 -1 -1 -1 -2 -2 -2 -2 -2 -2 -2 -2 -2 -1 0 2 15 48 95 
95 48 15 3 0 -1 -1 -1 -1 -1 -1 -1 0 0 0 0 0 1 2 2 2 2 3 3 4 7 10 13 14 15 16 17 21 27 35 42 46 47 48 49 52 58 69 80 89 93 95 96 97 101 104 104 101 97 96 95 94 93 89 81 73 73 94 124 114 65 28 11 7 10 16 26 39 54 71 89 102 104 96 83 65 45 29 17 9 4 2 0 0 -1 -1 -1 -2 -2 -2 -2 -2 -2 -2 -2 -2 -2 -2 -2 -1 0 2 15 48 95 
95 48 15 2 0 -1 -2 -2 -2 -1 -1 -1 -1 -1 -1 -1 -1 -1 -1 -1 0 0 0 0 0 0 1 2 2 2 3 3 4 7 10 13 14 15 15 16 17 21 27 35 42 46 48 49 52 58 69 80 89 93 94 95 96 97 101 104 106 109 122 140 131 89 50 30 26 32 47 65 83 96 104 102 89 71 54 39 26 16 8 3 1 0 -1 -1 -1 -1 -2 -2 -2 -2 -2 -2 -2 -2 -2 -2 -2 -2 -2 -2 -1 0 2 15 48 95 
95 48 15 2 0 -1 -2 -2 -2 -2 -2 -2 -2 -2 -2 -2 -2 -1 -1 -1 -1 -1 -1 -1 -1 -1 -1 -1 -1 0 0 0 0 0 1 2 2 2 2 3 3 4 7 10 13 14 15 16 17 21 27 35 42 46 47 48 49 52 58 69 81 91 102 116 125 115 89 70 65 75 90 102 104 96 83 65 46 30 20 12 7 3 1 0 -1 -1 -1 -2 -2 -2 -2 -2 -2 -2 -2 -2 -2 -2 -2 -2 -2 -2 -2 -2 -1 0 2 15 48 95 
95 48 15 2 0 -1 -2 -2 -2 -2 -2 -2 -2 -2 -2 -2 -2 -2 -2 -2 -2 -2 -2 -2 -2 -1 -1 -1 -1 -1 -1 -1 -1 -1 -1 -1 0 0 0 0 0 0 0 1 2 2 2 3 3 5 7 10 13 14 15 15 16 17 21 27 36 43 51 64 88 115 127 121 113 109 103 90 71 54 39 26 16 9 4 2 0 0 -1 -1 -1 -2 -2 -2 -2 -2 -2 -2 -2 -2 -2 -2 -2 -2 -2 -2 -2 -2 -2 -2 -1 0 2 15 48 95 
95 48 15 3 0 -1 -1 -1 -1 -1 -1 -1 -1 -1 -1 -1 -1 -1 -1 -1 -1 -1 -1 -1 -1 -1 -1 -1 -1 -1 -1 -1 -1 -1 -1 -1 -1 -1 -1 -1 -1 -1 -1 -1 0 0 0 0 0 0 0 1 2 2 3 3 3 3 5 7 10 14 18 27 50 89 131 139 116 90 67 47 31 20 12 7 3 1 0 0 -1 -1 -1 -1 -1 -1 -1 -1 -1 -1 -1 -1 -1 -1 -1 -1 -1 -1 -1 -1 -1 -1 -1 -1 -1 0 3 15 48 95 
96 49 16 4 0 0 0 0 0 0 0 0 0 0 0 0 0 0 0 0 0 0 0 0 0 0 0 0 0 0 0 0 0 0 0 0 0 0 0 0 0 0 0 0 0 0 0 0 0 0 0 0 0 0 0 0 0 0 0 1 2 3 5 12 29 66 115 123 85 51 30 18 10 6 3 1 0 0 0 0 0 0 0 0 0 0 0 0 0 0 0 0 -1 0 0 0 0 0 0 0 0 0 0 0 0 0 4 16 49 96 
98 53 20 7 4 3 2 2 2 2 2 2 2 2 2 2 2 2 2 2 2 2 2 2 2 2 2 2 2 2 2 2 2 2 2 2 2 2 2 2 2 2 2 2 2 2 2 2 2 2 2 2 2 3 3 3 3 3 3 3 3 4 5 10 24 58 105 109 66 32 16 9 6 4 3 3 3 3 2 2 2 2 2 2 2 2 2 2 2 2 2 2 2 2 2 2 2 2 2 2 2 2 2 2 2 3 7 20 53 98 
107 63 32 20 16 15 15 15 15 15 15 15 15 15 15 15 15 15 15 15 15 15 15 15 15 15 15 15 15 15 15 15 14 14 14 15 15 15 15 15 15 15 15 15 15 15 15 15 15 14 14 15 15 15 15 15 15 15 15 15 15 16 17 21 34 65 109 110 67 36 22 18 16 16 15 15 15 15 15 15 15 15 15 15 15 15 15 15 15 15 15 14 14 14 15 15 15 15 15 15 15 15 15 15 15 16 20 32 63 107 
126 90 63 53 49 48 48 48 48 48 48 48 48 48 48 48 48 48 48 48 48 48 48 48 48 48 48 48 48 48 48 47 47 47 47 47 48 48 48 48 48 48 48 48 48 48 48 48 47 47 47 47 48 48 48 48 48 48 48 48 48 48 49 53 64 90 125 125 91 64 53 50 49 48 48 48 48 48 48 48 48 48 48 48 48 48 48 48 48 48 47 47 47 47 47 48 48 48 48 48 48 48 47 47 47 48 52 63 90 126 
151 126 107 98 96 95 95 95 95 95 95 95 95 95 95 95 95 95 95 95 95 95 95 95 95 95 95 95 95 96 97 99 101 102 100 97 96 95 95 95 95 95 95 95 95 95 96 97 99 102 102 99 97 96 95 95 95 95 95 95 95 95 96 98 104 119 137 137 119 104 98 96 95 95 95 95 95 95 95 95 95 95 95 95 95 95 95 95 95 96 98 101 102 100 98 96 95 95 95 95 95 96 98 101 102 101 101 108 126 151 
