P2
110 110
255
152 112 95 92 91 91 91 91 91 91 91 91 91 91 91 91 91 91 91 91 91 91 91 91 91 91 91 91 91 92 95 106 133 153 129 103 93 91 91 91 91 91 91 91 91 91 92 95 109 143 143 109 95 92 91 91 91 91 91 91 91 91 91 91 92 94 98 98 94 92 91 91 91 91 91 91 91 91 91 91 91 91 91 91 91 91 91 91 91 93 102 128 153 130 103 93 92 91 91 91 91 93 101 126 153 130 103 98 112 152 
112 54 31 27 26 26 26 26 26 26 26 26 26 26 26 26 26 26 26 26 26 26 26 26 26 26 26 26 26 28 39 73 123 114 63 35 27 26 26 26 26 26 26 26 26 26 27 32 55 113 112 54 31 27 26 26 26 26 26 26 26 26 26 26 26 26 26 26 26 26 26 26 26 26 26 26 26 26 26 26 26 26 26 26 26 26 26 26 27 32 55 108 122 69 36 28 26 26 26 26 26 30 49 100 124 70 38 33 54 112 
95 31 6 1 1 0 0 0 0 0 0 0 0 0 0 0 0 0 0 0 0 0 0 0 0 0 0 1 2 8 33 88 112 60 19 4 1 1 0 0 0 0 0 0 0 1 2 9 38 105 97 31 6 1 1 0 0 0 0 0 0 0 0 0 0 0 0 0 0 0 0 0 0 0 0 0 0 0 0 0 0 0 0 0 0 0 0 1 3 14 53 112 86 29 7 1 1 0 0 1 1 7 31 93 100 36 9 8 31 95 
92 27 1 -3 -4 -4 -4 -4 -4 -4 -4 -4 -4 -4 -4 -4 -4 -4 -4 -4 -4 -4 -4 -4 -4 -4 -4 -3 0 16 59 110 83 27 3 -2 -4 -4 -4 -4 -4 -4 -4 -4 -4 -3 -1 10 53 126 97 27 1 -3 -4 -4 -4 -4 -4 -4 -4 -4 -4 -4 -4 -4 -4 -4 -4 -4 -4 -4 -4 -4 -4 -4 -4 -4 -4 -4 -4 -4 -4 -4 -4 -4 -4 -3 0 20 77 110 51 10 -1 -3 -4 -4 -4 -4 -2 3 33 98 89 26 2 2 27 92 
91 26 1 -4 -4 -5 -5 -5 -5 -5 -5 -5 -5 -5 -5 -5 -5 -5 -5 -5 -5 -5 -5 -5 -5 -5 -4 -2 8 44 102 102 44 8 -2 -4 -5 -5 -5 -5 -5 -5 -5 -5 -4 -3 1 25 88 151 99 26 0 -4 -4 -5 -5 -5 -5 -5 -5 -5 -5 -5 -5 -5 -5 -5 -5 -5 -5 -5 -5 -5 -5 -5 -5 -5 -5 -5 -5 -5 -5 -5 -5 -5 -4 -3 2 31 94 94 31 2 -3 -4 -5 -5 -5 -4 -2 8 49 109 75 18 0 1 26 91 
91 26 0 -4 -5 -5 -5 -5 -5 -5 -5 -5 -5 -5 -5 -5 -5 -5 -5 -5 -5 -5 -5 -5 -5 -4 -3 2 27 83 109 58 15 0 -4 -5 -5 -5 -5 -5 -5 -5 -5 -5 -4 -2 9 50 119 149 97 26 0 -4 -5 -5 -5 -5 -5 -5 -5 -5 -5 -5 -5 -5 -5 -5 -5 -5 -5 -5 -5 -5 -5 -5 -5 -5 -5 -5 -5 -5 -5 -5 -5 -5 -4 -2 9 51 109 76 19 0 -4 -5 -5 -5 -5 -4 0 18 75 109 49 8 -1 1 26 91 
91 26 0 -4 -5 -5 -5 -5 -5 -5 -5 -5 -5 -5 -5 -5 -5 -5 -5 -5 -5 -5 -5 -5 -5 -4 0 15 58 109 83 27 2 -3 -4 -5 -5 -5 -5 -5 -5 -5 -5 -5 -4 1 25 85 127 131 96 27 1 -4 -5 -5 -5 -5 -5 -5 -5 -5 -5 -5 -5 -5 -5 -5 -5 -5 -5 -5 -5 -5 -5 -5 -5 -5 -5 -5 -5 -5 -5 -5 -5 -5 -4 1 25 83 108 47 8 -2 -4 -5 -5 -5 -5 -4 0 25 88 97 32 3 -2 1 26 91 
91 26 0 -4 -5 -5 -5 -5 -5 -5 -5 -5 -5 -5 -5 -5 -5 -5 -5 -5 -5 -5 -5 -5 -4 -2 8 44 101 101 44 8 -2 -4 -5 -5 -5 -5 -5 -5 -5 -5 -5 -4 -2 9 49 110 107 111 100 32 3 -3 -5 -5 -5 -5 -5 -5 -5 -5 -5 -5 -5 -5 -5 -5 -5 -5 -5 -5 -5 -5 -5 -5 -5 -5 -5 -5 -5 -5 -5 -5 -5 -4 -2 8 47 108 83 25 1 -4 -5 -5 -5 -5 -5 -3 2 32 97 88 25 1 -3 1 26 91 
91 26 0 -4 -5 -5 -5 -5 -5 -5 -5 -5 -5 -5 -5 -5 -5 -5 -5 -5 -5 -5 -5 -4 -3 2 27 83 109 58 15 0 -4 -5 -5 -5 -5 -5 -5 -5 -5 -5 -4 -3 2 27 84 111 71 87 111 49 8 -2 -4 -5 -5 -5 -5 -5 -5 -5 -5 -5 -5 -5 -5 -5 -5 -5 -5 -5 -5 -5 -5 -5 -5 -5 -5 -5 -5 -5 -5 -5 -5 -4 0 19 76 109 51 9 -2 -4 -5 -5 -5 -5 -4 -2 8 49 109 75 18 0 -3 1 26 91 
91 26 0 -4 -5 -5 -5 -5 -5 -5 -5 -5 -5 -5 -5 -5 -5 -5 -5 -5 -5 -5 -5 -4 0 15 58 109 83 27 2 -3 -4 -5 -5 -5 -5 -5 -5 -5 -5 -5 -4 0 15 58 109 84 38 55 110 75 18 0 -4 -5 -5 -5 -5 -5 -5 -5 -5 -5 -5 -5 -5 -5 -5 -5 -5 -5 -5 -5 -5 -5 -5 -5 -5 -5 -5 -5 -5 -5 -5 -3 2 31 94 94 31 2 -3 -5 -5 -5 -5 -5 -4 0 18 75 109 49 8 -2 -3 0 26 91 
91 26 0 -4 -5 -5 -5 -5 -5 -5 -5 -5 -5 -5 -5 -5 -5 -5 -5 -5 -5 -5 -4 -2 8 44 101 101 44 8 -2 -4 -5 -5 -5 -5 -5 -5 -5 -5 -5 -4 -2 8 44 101 102 45 16 35 98 87 24 0 -4 -5 -5 -5 -5 -5 -5 -5 -5 -5 -5 -5 -5 -5 -5 -5 -5 -5 -5 -5 -5 -5 -5 -5 -5 -5 -5 -5 -5 -5 -4 -2 9 51 109 76 19 0 -4 -5 -5 -5 -5 -5 -4 0 25 88 97 32 2 -3 -4 0 26 91 
91 26 1 -4 -5 -5 -5 -5 -5 -5 -5 -5 -5 -5 -5 -5 -5 -5 -5 -5 -5 -4 -3 2 27 83 109 58 15 0 -4 -5 -5 -5 -5 -5 -5 -5 -5 -5 -5 -4 1 25 82 109 58 16 5 28 93 90 25 0 -4 -5 -5 -5 -5 -5 -5 -5 -5 -5 -5 -5 -5 -5 -5 -5 -5 -5 -5 -5 -5 -5 -5 -5 -5 -5 -5 -5 -5 -5 -4 1 25 83 108 47 8 -2 -4 -5 -5 -5 -5 -5 -3 2 32 97 88 25 0 -4 -4 0 26 91 
93 27 1 -4 -5 -5 -5 -5 -5 -5 -5 -5 -5 -5 -5 -5 -5 -5 -5 -5 -5 -4 0 15 58 109 83 27 2 -3 -4 -5 -5 -5 -5 -5 -5 -5 -5 -5 -4 -2 9 49 108 84 27 3 2 26 91 91 26 0 -4 -5 -5 -5 -5 -5 -5 -5 -5 -5 -5 -5 -5 -5 -5 -5 -5 -5 -5 -5 -5 -5 -5 -5 -5 -5 -5 -5 -5 -4 -2 8 47 108 83 25 1 -4 -5 -5 -5 -5 -5 -4 -2 8 49 109 75 18 0 -4 -4 0 26 92 
103 35 4 -3 -4 -5 -5 -5 -5 -5 -5 -5 -5 -5 -5 -5 -5 -5 -5 -5 -4 -2 8 44 101 101 44 8 -2 -4 -5 -5 -5 -5 -5 -5 -5 -5 -5 -5 -4 1 25 83 108 49 9 -1 1 25 90 93 27 1 -4 -5 -5 -5 -5 -5 -5 -5 -5 -5 -5 -5 -5 -5 -5 -5 -5 -5 -5 -5 -5 -5 -5 -5 -5 -5 -5 -5 -5 -4 0 19 76 109 51 9 -2 -4 -5 -5 -5 -5 -5 -4 0 18 75 109 49 8 -2 -4 -4 0 26 93 
129 63 18 1 -3 -4 -5 -5 -5 -5 -5 -5 -5 -5 -5 -5 -5 -5 -5 -4 -3 2 27 83 109 58 15 0 -4 -5 -5 -5 -5 -5 -5 -5 -5 -5 -5 -4 -2 9 49 108 83 25 1 -3 0 24 87 98 32 3 -3 -5 -5 -5 -5 -5 -5 -5 -5 -5 -5 -5 -5 -5 -5 -5 -5 -5 -5 -5 -5 -5 -5 -5 -5 -5 -5 -5 -5 -3 2 31 94 94 31 2 -3 -5 -5 -5 -5 -5 -5 -4 0 25 88 97 32 2 -3 -4 -4 0 26 97 
153 114 55 16 0 -4 -5 -5 -5 -5 -5 -5 -5 -5 -5 -5 -5 -5 -5 -4 0 15 58 109 83 27 2 -3 -4 -5 -5 -5 -5 -5 -5 -5 -5 -5 -4 -3 2 27 84 108 49 9 -2 -4 0 18 75 109 49 8 -2 -4 -5 -5 -5 -5 -5 -5 -5 -5 -5 -5 -5 -5 -5 -5 -5 -5 -5 -5 -5 -5 -5 -5 -5 -5 -5 -5 -4 -2 9 51 109 76 19 0 -4 -5 -5 -5 -5 -5 -5 -3 2 32 97 88 25 0 -4 -4 -4 0 26 99 
134 125 105 53 14 0 -4 -5 -5 -5 -5 -5 -5 -5 -5 -5 -5 -5 -4 -2 8 44 101 101 44 8 -2 -4 -5 -5 -5 -5 -5 -5 -5 -5 -5 -5 -4 0 15 58 109 82 25 1 -4 -4 -2 8 49 109 75 18 0 -4 -5 -5 -5 -5 -5 -5 -5 -5 -5 -5 -5 -5 -5 -5 -5 -5 -5 -5 -5 -5 -5 -5 -5 -5 -5 -5 -4 1 25 83 108 47 8 -2 -4 -5 -5 -5 -5 -5 -4 -2 8 49 109 75 18 0 -4 -5 -4 0 26 96 
108 83 108 101 44 8 -2 -4 -5 -5 -5 -5 -5 -5 -5 -5 -5 -4 -3 2 27 83 109 58 15 0 -4 -5 -5 -5 -5 -5 -5 -5 -5 -5 -5 -4 -2 8 44 101 101 44 8 -2 -4 -4 -3 3 32 98 87 24 0 -4 -5 -5 -5 -5 -5 -5 -5 -5 -5 -5 -5 -5 -5 -5 -5 -5 -5 -5 -5 -5 -5 -5 -5 -5 -5 -4 -2 8 47 108 83 25 1 -4 -5 -5 -5 -5 -5 -5 -4 0 18 75 109 49 8 -2 -4 -5 -4 0 26 93 
96 48 65 110 83 27 3 -3 -4 -5 -5 -5 -5 -5 -5 -5 -5 -4 0 15 58 109 83 27 2 -3 -4 -5 -5 -5 -5 -5 -5 -5 -5 -5 -5 -4 1 25 82 109 58 15 0 -4 -5 -5 -4 1 27 93 90 25 0 -4 -5 -5 -5 -5 -5 -5 -5 -5 -5 -5 -5 -5 -5 -5 -5 -5 -5 -5 -5 -5 -5 -5 -5 -5 -5 -4 0 19 76 109 51 9 -2 -4 -5 -5 -5 -5 -5 -5 -4 0 25 88 97 32 2 -3 -5 -5 -4 0 26 92 
93 34 33 84 109 59 17 1 -3 -4 -5 -5 -5 -5 -5 -5 -4 -2 8 44 101 101 44 8 -2 -4 -5 -5 -5 -5 -5 -5 -5 -5 -5 -5 -4 -2 9 49 108 84 27 2 -3 -4 -5 -5 -4 0 26 91 91 26 0 -4 -5 -5 -5 -5 -5 -5 -5 -5 -5 -5 -5 -5 -5 -5 -5 -5 -5 -5 -5 -5 -5 -5 -5 -5 -5 -3 2 31 94 94 31 2 -3 -5 -5 -5 -5 -5 -5 -5 -3 2 32 97 88 25 0 -4 -5 -5 -4 0 26 91 
92 28 14 45 101 104 55 16 0 -3 -4 -5 -5 -5 -5 -4 -3 2 27 83 109 58 15 0 -4 -5 -5 -5 -5 -5 -5 -5 -5 -5 -5 -5 -4 1 25 83 108 49 9 -2 -4 -5 -5 -5 -4 0 25 90 93 27 1 -4 -5 -5 -5 -5 -5 -5 -5 -5 -5 -5 -5 -5 -5 -5 -5 -5 -5 -5 -5 -5 -5 -5 -5 -5 -4 -2 9 51 109 76 19 0 -4 -5 -5 -5 -5 -5 -5 -4 -2 8 49 109 75 18 0 -4 -5 -5 -4 0 26 91 
91 26 5 15 53 103 103 54 16 0 -3 -4 -5 -5 -5 -4 0 15 58 109 83 27 2 -3 -4 -5 -5 -5 -5 -5 -5 -5 -5 -5 -5 -4 -2 9 49 108 83 25 1 -4 -5 -5 -5 -5 -4 0 24 87 98 32 3 -3 -5 -5 -5 -5 -5 -5 -5 -5 -5 -5 -5 -5 -5 -5 -5 -5 -5 -5 -5 -5 -5 -5 -5 -5 -4 1 25 83 108 47 8 -2 -4 -5 -5 -5 -5 -5 -5 -4 0 18 75 109 49 8 -2 -4 -5 -5 -4 0 26 91 
91 26 2 1 16 54 103 103 54 16 0 -3 -4 -5 -4 -2 8 44 101 101 44 8 -2 -4 -5 -5 -5 -5 -5 -5 -5 -5 -5 -5 -4 -3 2 27 84 108 49 9 -2 -4 -5 -5 -5 -5 -4 0 18 75 109 49 8 -2 -4 -5 -5 -5 -5 -5 -5 -5 -5 -5 -5 -5 -5 -5 -5 -5 -5 -5 -5 -5 -5 -5 -5 -4 -2 8 47 108 83 25 1 -4 -5 -5 -5 -5 -5 -5 -5 -4 0 25 88 97 32 2 -3 -5 -5 -5 -4 0 26 91 
91 26 1 -2 0 16 54 103 103 54 16 0 -3 -4 -3 2 27 83 109 58 15 0 -4 -5 -5 -5 -5 -5 -5 -5 -5 -5 -5 -5 -4 0 15 58 109 82 25 1 -4 -5 -5 -5 -5 -5 -4 -2 8 49 109 75 18 0 -4 -5 -5 -5 -5 -5 -5 -5 -5 -5 -5 -5 -5 -5 -5 -5 -5 -5 -5 -5 -5 -5 -5 -4 0 19 76 109 51 9 -2 -4 -5 -5 -5 -5 -5 -5 -5 -3 2 32 97 88 25 0 -4 -5 -5 -5 -4 0 26 91 
91 26 0 -4 -3 0 16 54 103 103 54 16 0 -3 0 15 58 109 83 27 2 -3 -4 -5 -5 -5 -5 -5 -5 -5 -5 -5 -5 -4 -2 8 44 101 101 44 8 -2 -4 -5 -5 -5 -5 -5 -5 -3 3 32 98 87 24 0 -4 -5 -5 -5 -5 -5 -5 -5 -5 -5 -5 -5 -5 -5 -5 -5 -5 -5 -5 -5 -5 -5 -5 -3 2 31 94 94 31 2 -3 -5 -5 -5 -5 -5 -5 -5 -4 -2 8 49 109 75 18 0 -4 -5 -5 -5 -4 0 26 91 
91 26 0 -4 -4 -3 0 16 54 103 103 54 17 3 10 45 101 101 44 8 -2 -4 -5 -5 -5 -5 -5 -5 -5 -5 -5 -5 -5 -4 1 25 82 109 58 15 0 -4 -5 -5 -5 -5 -5 -5 -5 -4 1 27 92 91 26 0 -4 -5 -5 -5 -5 -5 -5 -5 -5 -5 -5 -5 -5 -5 -5 -5 -5 -5 -5 -5 -5 -5 -4 -2 9 51 109 76 19 0 -4 -5 -5 -5 -5 -5 -5 -5 -4 0 18 75 109 49 8 -2 -4 -5 -5 -5 -4 0 26 91 
91 26 0 -4 -5 -4 -3 0 16 54 103 103 56 24 32 84 109 58 15 0 -4 -5 -5 -5 -5 -5 -5 -5 -5 -5 -5 -5 -4 -2 9 49 108 84 27 2 -3 -4 -5 -5 -5 -5 -5 -5 -5 -4 0 26 91 92 27 1 -4 -5 -5 -5 -5 -5 -5 -5 -5 -5 -5 -5 -5 -5 -5 -5 -5 -5 -5 -5 -5 -5 -4 1 25 83 108 47 8 -2 -4 -5 -5 -5 -5 -5 -5 -5 -4 0 25 88 97 32 2 -3 -5 -5 -5 -5 -4 0 26 91 
91 26 0 -4 -5 -5 -4 -3 0 16 54 104 106 72 76 112 83 27 2 -3 -4 -5 -5 -5 -5 -5 -5 -5 -5 -5 -5 -5 -4 1 25 83 108 49 9 -2 -4 -5 -5 -5 -5 -5 -5 -5 -5 -4 0 24 87 98 32 3 -3 -5 -5 -5 -5 -5 -5 -5 -5 -5 -5 -5 -5 -5 -5 -5 -5 -5 -5 -5 -5 -4 -2 8 47 108 83 25 1 -4 -5 -5 -5 -5 -5 -5 -5 -5 -3 2 32 97 88 25 0 -4 -5 -5 -5 -5 -4 0 26 91 
91 26 0 -4 -5 -5 -5 -4 -3 0 16 55 108 133 134 106 44 8 -2 -4 -5 -5 -5 -5 -5 -5 -5 -5 -5 -5 -5 -4 -2 9 49 108 83 25 1 -4 -5 -5 -5 -5 -5 -5 -5 -5 -5 -4 0 18 75 109 49 8 -2 -4 -5 -5 -5 -5 -5 -5 -5 -5 -5 -5 -5 -5 -5 -5 -5 -5 -5 -5 -5 -4 0 19 76 109 51 9 -2 -4 -5 -5 -5 -5 -5 -5 -5 -4 -2 8 49 109 75 18 0 -4 -5 -5 -5 -5 -4 0 26 91 
91 26 0 -4 -5 -5 -5 -5 -4 -3 1 18 63 132 132 62 15 0 -4 -5 -5 -5 -5 -5 -5 -5 -5 -5 -5 -5 -4 -3 2 27 84 108 49 9 -2 -4 -5 -5 -5 -5 -5 -5 -5 -5 -5 -4 -2 8 49 109 75 18 0 -4 -5 -5 -5 -5 -5 -5 -5 -5 -5 -5 -5 -5 -5 -5 -5 -5 -5 -5 -5 -3 2 31 94 94 31 2 -3 -5 -5 -5 -5 -5 -5 -5 -5 -4 0 18 75 109 49 8 -2 -4 -5 -5 -5 -5 -4 0 26 91 
91 26 0 -4 -5 -5 -5 -5 -5 -4 -3 4 35 104 106 36 4 -3 -4 -5 -5 -5 -5 -5 -5 -5 -5 -5 -5 -5 -4 0 15 58 109 82 25 1 -4 -5 -5 -5 -5 -5 -5 -5 -5 -5 -5 -5 -3 3 32 98 87 24 0 -4 -5 -5 -5 -5 -5 -5 -5 -5 -5 -5 -5 -5 -5 -5 -5 -5 -5 -5 -4 -2 9 51 109 76 19 0 -4 -5 -5 -5 -5 -5 -5 -5 -5 -4 0 25 88 97 32 2 -3 -5 -5 -5 -5 -5 -4 0 26 91 
91 26 0 -4 -5 -5 -5 -5 -5 -5 -4 1 25 90 100 34 3 -3 -4 -5 -5 -5 -5 -5 -5 -5 -5 -5 -5 -4 -2 8 44 101 101 44 8 -2 -4 -5 -5 -5 -5 -5 -5 -5 -5 -5 -5 -5 -4 1 27 93 90 25 0 -4 -5 -5 -5 -5 -5 -5 -5 -5 -5 -5 -5 -5 -5 -5 -5 -5 -5 -5 -4 1 25 83 108 47 8 -2 -4 -5 -5 -5 -5 -5 -5 -5 -5 -3 2 32 97 88 25 0 -4 -5 -5 -5 -5 -5 -4 0 26 91 
91 26 0 -4 -5 -5 -5 -5 -5 -5 -4 0 18 75 110 49 8 -2 -4 -5 -5 -5 -5 -5 -5 -5 -5 -5 -5 -4 1 25 82 109 58 15 0 -4 -5 -5 -5 -5 -5 -5 -5 -5 -5 -5 -5 -5 -4 0 26 91 91 26 0 -4 -5 -5 -5 -5 -5 -5 -5 -5 -5 -5 -5 -5 -5 -5 -5 -5 -5 -4 -2 8 47 108 83 25 1 -4 -5 -5 -5 -5 -5 -5 -5 -5 -4 -2 8 49 109 75 18 0 -4 -5 -5 -5 -5 -5 -4 0 26 91 
91 26 0 -4 -5 -5 -5 -5 -5 -5 -4 -2 8 49 109 75 18 0 -4 -5 -5 -5 -5 -5 -5 -5 -5 -5 -4 -2 9 49 108 84 27 2 -3 -4 -5 -5 -5 -5 -5 -5 -5 -5 -5 -5 -5 -5 -4 0 25 90 93 27 1 -4 -5 -5 -5 -5 -5 -5 -5 -5 -5 -5 -5 -5 -5 -5 -5 -5 -5 -4 0 19 76 109 51 9 -2 -4 -5 -5 -5 -5 -5 -5 -5 -5 -4 0 18 75 109 49 8 -2 -4 -5 -5 -5 -5 -5 -4 0 26 91 
91 26 0 -4 -5 -5 -5 -5 -5 -5 -5 -3 3 32 98 87 24 0 -4 -5 -5 -5 -5 -5 -5 -5 -5 -5 -4 1 25 83 108 49 9 -2 -4 -5 -5 -5 -5 -5 -5 -5 -5 -5 -5 -5 -5 -5 -4 0 24 87 98 32 3 -3 -5 -5 -5 -5 -5 -5 -5 -5 -5 -5 -5 -5 -5 -5 -5 -5 -5 -3 2 31 94 94 31 2 -3 -5 -5 -5 -5 -5 -5 -5 -5 -5 -4 0 25 88 97 32 2 -3 -5 -5 -5 -5 -5 -5 -4 1 26 91 
91 26 0 -4 -5 -5 -5 -5 -5 -5 -5 -4 1 27 92 92 27 1 -4 -5 -5 -5 -5 -5 -5 -5 -5 -4 -2 9 49 108 83 25 1 -4 -5 -5 -5 -5 -5 -5 -5 -5 -5 -5 -5 -5 -5 -5 -4 0 18 75 109 49 8 -2 -4 -5 -5 -5 -5 -5 -5 -5 -5 -5 -5 -5 -5 -5 -5 -5 -4 -2 9 51 109 76 19 0 -4 -5 -5 -5 -5 -5 -5 -5 -5 -5 -3 2 32 97 88 25 0 -4 -5 -5 -5 -5 -5 -5 -4 1 27 93 
93 26 0 -4 -5 -5 -5 -5 -5 -5 -5 -4 0 24 87 98 32 3 -3 -5 -5 -5 -5 -5 -5 -5 -4 -3 2 27 84 108 49 9 -2 -4 -5 -5 -5 -5 -5 -5 -5 -5 -5 -5 -5 -5 -5 -5 -4 -2 8 49 109 75 18 0 -4 -5 -5 -5 -5 -5 -5 -5 -5 -5 -5 -5 -5 -5 -5 -5 -4 1 25 83 108 47 8 -2 -4 -5 -5 -5 -5 -5 -5 -5 -5 -4 -2 8 49 109 75 18 0 -4 -5 -5 -5 -5 -5 -5 -3 3 33 101 
96 26 0 -4 -5 -5 -5 -5 -5 -5 -5 -4 0 18 75 109 49 8 -2 -4 -5 -5 -5 -5 -5 -5 -4 0 15 58 109 82 25 1 -4 -5 -5 -5 -5 -5 -5 -5 -5 -5 -5 -5 -5 -5 -5 -5 -5 -3 3 32 98 87 24 0 -4 -5 -5 -5 -5 -5 -5 -5 -5 -5 -5 -5 -5 -5 -5 -4 -2 8 47 108 83 25 1 -4 -5 -5 -5 -5 -5 -5 -5 -5 -5 -4 0 18 75 109 49 8 -2 -4 -5 -5 -5 -5 -5 -4 -2 10 52 125 
99 26 0 -4 -5 -5 -5 -5 -5 -5 -5 -4 -2 8 49 109 75 18 0 -4 -5 -5 -5 -5 -5 -4 -2 8 44 101 101 44 8 -2 -4 -5 -5 -5 -5 -5 -5 -5 -5 -5 -5 -5 -5 -5 -5 -5 -5 -4 1 27 93 90 25 0 -4 -5 -5 -5 -5 -5 -5 -5 -5 -5 -5 -5 -5 -5 -5 -4 0 19 76 109 51 9 -2 -4 -5 -5 -5 -5 -5 -5 -5 -5 -5 -4 0 25 88 97 32 2 -3 -5 -5 -5 -5 -5 -4 -3 2 27 89 151 
97 26 0 -4 -5 -5 -5 -5 -5 -5 -5 -5 -3 3 32 98 87 24 0 -4 -5 -5 -5 -5 -5 -4 1 25 82 109 58 15 0 -4 -5 -5 -5 -5 -5 -5 -5 -5 -5 -5 -5 -5 -5 -5 -5 -5 -5 -4 0 26 91 91 26 0 -4 -5 -5 -5 -5 -5 -5 -5 -5 -5 -5 -5 -5 -5 -5 -3 2 31 94 94 31 2 -3 -5 -5 -5 -5 -5 -5 -5 -5 -5 -5 -3 2 32 97 88 25 0 -4 -5 -5 -5 -5 -5 -4 0 15 59 121 149 
94 26 0 -4 -5 -5 -5 -5 -5 -5 -5 -5 -4 1 27 92 92 27 1 -4 -5 -5 -5 -5 -4 -2 9 49 108 84 27 2 -3 -4 -5 -5 -5 -5 -5 -5 -5 -5 -5 -5 -5 -5 -5 -5 -5 -5 -5 -4 0 25 90 93 27 1 -4 -5 -5 -5 -5 -5 -5 -5 -5 -5 -5 -5 -5 -5 -4 -2 9 51 109 76 19 0 -4 -5 -5 -5 -5 -5 -5 -5 -5 -5 -4 -2 8 49 109 75 18 0 -4 -5 -5 -5 -5 -4 -2 8 44 104 123 128 
92 26 0 -4 -5 -5 -5 -5 -5 -5 -5 -5 -4 0 24 87 98 32 3 -3 -5 -5 -5 -5 -4 1 25 83 108 49 9 -2 -4 -5 -5 -5 -5 -5 -5 -5 -5 -5 -5 -5 -5 -5 -5 -5 -5 -5 -5 -4 0 24 87 98 32 3 -3 -5 -5 -5 -5 -5 -5 -5 -5 -5 -5 -5 -5 -5 -4 1 25 83 108 47 8 -2 -4 -5 -5 -5 -5 -5 -5 -5 -5 -5 -4 0 18 75 109 49 8 -2 -4 -5 -5 -5 -4 -3 2 27 83 113 86 107 
92 26 0 -4 -5 -5 -5 -5 -5 -5 -5 -5 -4 0 18 75 109 49 8 -2 -4 -5 -5 -4 -2 9 49 108 83 25 1 -4 -5 -5 -5 -5 -5 -5 -5 -5 -5 -5 -5 -5 -5 -5 -5 -5 -5 -5 -5 -4 0 18 75 109 49 8 -2 -4 -5 -5 -5 -5 -5 -5 -5 -5 -5 -5 -5 -4 -2 8 47 108 83 25 1 -4 -5 -5 -5 -5 -5 -5 -5 -5 -5 -5 -4 0 25 88 97 32 2 -3 -5 -5 -5 -5 -4 0 15 58 110 88 57 97 
91 26 0 -4 -5 -5 -5 -5 -5 -5 -5 -5 -4 -2 8 49 109 75 18 0 -4 -5 -4 -3 2 27 84 108 49 9 -2 -4 -5 -5 -5 -5 -5 -5 -5 -5 -5 -5 -5 -5 -5 -5 -5 -5 -5 -5 -5 -4 -2 8 49 110 75 19 0 -3 -4 -4 -4 -5 -5 -5 -5 -5 -5 -5 -5 -4 0 19 76 109 51 9 -2 -4 -5 -5 -5 -5 -5 -5 -5 -5 -5 -5 -3 2 32 97 88 25 0 -4 -5 -5 -5 -4 -2 8 44 102 102 50 39 93 
91 26 0 -4 -5 -5 -5 -5 -5 -5 -5 -5 -5 -3 3 32 98 87 24 0 -4 -4 -4 0 15 58 109 82 25 1 -4 -5 -5 -5 -5 -5 -5 -5 -5 -5 -5 -5 -5 -5 -5 -5 -5 -5 -5 -5 -5 -4 -3 4 34 101 91 29 6 1 0 0 -2 -3 -4 -4 -4 -4 -4 -4 -4 -3 2 31 94 94 31 2 -3 -5 -5 -5 -5 -5 -5 -5 -5 -5 -5 -4 -2 8 49 109 75 18 0 -4 -5 -5 -4 -3 2 27 83 109 59 21 30 92 
91 26 0 -4 -5 -5 -5 -5 -5 -5 -5 -5 -5 -4 1 27 92 92 27 1 -4 -4 -2 8 44 101 101 44 8 -2 -4 -5 -5 -5 -5 -5 -5 -5 -5 -5 -5 -5 -5 -5 -5 -5 -5 -5 -5 -5 -4 -4 -1 7 38 107 110 54 31 26 24 18 8 3 1 0 0 0 0 -2 -3 -1 10 51 109 76 19 0 -4 -5 -5 -5 -5 -5 -5 -5 -5 -5 -5 -4 0 18 75 109 49 8 -2 -4 -5 -5 -4 0 15 58 109 83 28 8 27 91 
91 26 0 -4 -5 -5 -5 -5 -5 -5 -5 -5 -5 -4 0 24 87 98 32 3 -3 -3 1 25 82 109 58 15 0 -4 -5 -5 -5 -5 -5 -5 -5 -5 -5 -5 -5 -5 -5 -5 -5 -5 -5 -5 -5 -4 -3 0 8 29 68 133 144 109 95 91 87 75 49 32 27 26 25 24 18 8 4 7 29 85 108 47 8 -2 -4 -5 -5 -5 -5 -5 -5 -5 -5 -5 -5 -4 0 25 88 97 32 2 -3 -5 -5 -4 -2 8 44 101 101 44 9 3 26 91 
91 26 0 -4 -5 -5 -5 -5 -5 -5 -5 -5 -5 -4 0 18 75 109 49 8 -2 -2 9 49 108 84 27 2 -3 -4 -5 -5 -5 -5 -5 -5 -5 -5 -5 -5 -5 -5 -5 -5 -5 -5 -5 -4 -4 -2 2 15 44 84 114 123 108 96 92 93 98 109 109 98 93 91 90 87 75 49 34 38 68 115 85 25 1 -4 -5 -5 -5 -5 -5 -5 -5 -5 -5 -5 -5 -3 2 32 97 88 25 0 -4 -5 -4 -3 2 27 83 109 58 15 0 1 26 91 
91 26 0 -4 -5 -5 -5 -5 -5 -5 -5 -5 -5 -4 -2 8 49 109 75 18 0 2 25 83 108 49 9 -2 -4 -5 -5 -5 -5 -5 -5 -5 -5 -5 -5 -5 -5 -5 -5 -5 -5 -5 -4 -3 0 8 27 58 101 109 85 52 33 27 26 27 32 49 75 87 90 91 93 98 109 110 100 106 134 131 59 12 -1 -4 -5 -5 -5 -5 -5 -5 -5 -5 -5 -5 -4 -2 8 49 109 75 18 0 -4 -4 -4 0 15 58 109 83 27 2 -2 1 26 91 
91 26 0 -4 -5 -5 -5 -5 -5 -5 -5 -5 -5 -5 -3 3 32 98 87 24 3 10 50 108 83 25 1 -4 -5 -5 -5 -5 -5 -5 -5 -5 -5 -5 -5 -5 -5 -5 -5 -5 -5 -4 -2 2 15 44 83 109 101 58 27 10 3 1 1 1 3 8 18 24 25 26 27 32 49 75 90 104 133 131 59 12 -1 -4 -5 -5 -5 -5 -5 -5 -5 -5 -5 -5 -4 0 18 75 109 49 8 -2 -4 -4 -2 8 44 101 101 44 8 -2 -3 1 26 91 
91 26 0 -4 -5 -5 -5 -5 -5 -5 -5 -5 -5 -5 -4 1 27 92 92 28 9 28 84 108 49 9 -2 -4 -5 -5 -5 -5 -5 -5 -5 -5 -5 -5 -5 -5 -5 -5 -5 -4 -4 0 8 27 58 101 109 83 44 15 2 -2 -3 -4 -4 -4 -3 -2 0 0 0 0 1 3 8 18 26 36 68 115 86 28 3 -3 -4 -4 -5 -5 -5 -5 -5 -5 -5 -4 -4 1 25 88 97 32 2 -3 -4 -3 2 27 83 109 58 15 0 -4 -4 0 26 91 
91 26 0 -4 -5 -5 -5 -5 -5 -5 -5 -5 -5 -5 -4 0 24 87 98 37 23 59 109 82 25 1 -4 -5 -5 -5 -5 -5 -5 -5 -5 -5 -5 -5 -5 -5 -5 -5 -4 -3 0 14 44 83 109 101 58 27 8 0 -3 -4 -5 -5 -5 -5 -5 -4 -4 -4 -4 -4 -4 -3 -2 0 1 6 29 84 110 60 19 3 -2 -3 -4 -4 -4 -4 -4 -4 -4 -4 -3 3 33 97 89 25 0 -4 -4 0 15 58 109 83 27 2 -3 -4 -4 0 26 91 
91 26 0 -4 -5 -5 -5 -5 -5 -5 -5 -5 -5 -5 -4 0 18 75 111 61 57 103 102 44 8 -2 -4 -5 -5 -5 -5 -5 -5 -5 -5 -5 -5 -5 -5 -5 -4 -4 -2 3 17 53 101 109 83 44 15 2 -2 -4 -4 -5 -5 -5 -5 -5 -5 -5 -5 -5 -5 -5 -5 -5 -4 -4 -3 -1 8 44 103 108 61 28 10 3 1 1 0 0 0 0 0 1 3 14 53 112 77 19 0 -3 -2 8 44 101 101 44 8 -2 -4 -5 -4 0 26 91 
91 26 0 -4 -5 -5 -5 -5 -5 -5 -5 -5 -5 -5 -4 -2 8 49 112 101 102 111 58 15 0 -4 -5 -5 -5 -5 -5 -5 -5 -5 -5 -5 -5 -5 -5 -4 -3 0 8 27 59 104 104 59 27 8 0 -3 -4 -5 -5 -5 -5 -5 -5 -5 -5 -5 -5 -5 -5 -5 -5 -5 -5 -5 -4 -4 0 15 61 124 129 89 52 33 27 26 26 26 26 26 26 26 30 47 95 123 59 14 0 -2 3 27 83 109 58 15 0 -4 -5 -5 -4 0 26 91 
91 26 0 -4 -5 -5 -5 -5 -5 -5 -5 -5 -5 -5 -5 -3 3 32 102 129 126 85 27 2 -3 -4 -5 -5 -5 -5 -5 -5 -5 -5 -5 -5 -5 -4 -4 -2 2 15 44 83 109 101 53 17 3 -2 -4 -4 -5 -5 -5 -5 -5 -5 -5 -5 -5 -5 -5 -5 -5 -5 -5 -5 -5 -5 -5 -4 -3 4 37 111 147 126 112 98 93 91 91 91 91 91 91 92 94 108 141 139 74 31 11 6 17 59 109 83 27 2 -3 -4 -5 -5 -4 0 26 91 
91 26 0 -4 -5 -5 -5 -5 -5 -5 -5 -5 -5 -5 -5 -4 1 27 99 149 119 50 9 -2 -4 -5 -5 -5 -5 -5 -5 -5 -5 -5 -5 -5 -4 -3 0 8 27 58 101 109 83 44 14 0 -3 -4 -5 -5 -5 -5 -5 -5 -5 -5 -5 -5 -5 -5 -5 -5 -5 -5 -5 -5 -5 -5 -5 -4 -3 3 34 103 111 74 79 88 90 91 91 91 91 91 91 91 92 96 108 123 115 85 52 37 55 104 102 44 8 -2 -4 -5 -5 -5 -4 0 26 91 
91 26 0 -4 -5 -5 -5 -5 -5 -5 -5 -5 -5 -5 -5 -4 0 26 99 151 88 25 1 -4 -5 -5 -5 -5 -5 -5 -5 -5 -5 -5 -4 -4 -2 2 15 44 83 109 102 58 27 8 0 -4 -4 -5 -5 -5 -5 -5 -5 -5 -5 -5 -5 -5 -5 -5 -5 -5 -5 -5 -5 -5 -5 -5 -5 -4 -2 8 49 111 80 31 22 24 25 26 26 26 26 26 26 26 26 27 33 52 84 108 111 102 114 120 62 16 0 -4 -5 -5 -5 -5 -4 0 26 91 
91 26 0 -4 -5 -5 -5 -5 -5 -5 -5 -5 -5 -5 -5 -4 0 26 96 125 52 9 -2 -4 -5 -5 -5 -5 -5 -5 -5 -5 -4 -4 -3 0 8 27 58 102 110 84 45 16 3 -2 -4 -4 -5 -5 -5 -5 -5 -5 -5 -5 -5 -5 -5 -5 -5 -5 -5 -5 -5 -5 -5 -5 -5 -5 -5 -4 0 18 75 110 50 10 1 0 0 0 0 0 0 0 0 0 1 1 3 9 25 49 85 120 151 118 44 7 -2 -4 -5 -5 -5 -5 -4 0 26 91 
91 26 0 -4 -5 -5 -5 -5 -5 -5 -5 -5 -5 -5 -5 -4 0 26 93 101 33 3 -3 -5 -5 -5 -5 -5 -5 -5 -4 -4 -2 0 3 15 45 87 118 112 66 33 14 3 -1 -3 -4 -4 -4 -5 -5 -5 -5 -5 -5 -5 -5 -5 -5 -5 -5 -5 -5 -5 -5 -5 -5 -5 -5 -5 -5 -4 0 24 87 98 32 3 -3 -4 -4 -4 -4 -4 -4 -4 -4 -4 -4 -4 -3 -2 1 9 27 61 117 124 62 16 0 -4 -5 -5 -5 -5 -4 0 26 91 
91 26 0 -4 -5 -5 -5 -5 -5 -5 -5 -5 -5 -5 -5 -4 1 27 93 92 27 1 -4 -5 -5 -5 -5 -5 -4 -4 -2 1 8 20 33 61 113 149 142 94 52 34 26 19 8 3 0 0 -2 -3 -4 -4 -4 -4 -5 -5 -5 -5 -5 -5 -5 -5 -5 -5 -5 -5 -5 -5 -5 -5 -5 -4 0 26 91 92 27 1 -4 -4 -5 -5 -5 -5 -5 -5 -5 -5 -5 -5 -5 -4 -4 -2 3 17 56 107 103 44 8 -2 -4 -5 -5 -5 -4 0 26 91 
91 26 0 -4 -5 -5 -5 -5 -5 -5 -5 -5 -5 -5 -5 -3 3 32 98 87 24 0 -4 -5 -5 -4 -4 -3 -2 1 9 25 47 76 95 114 121 117 122 118 101 93 87 75 49 32 25 18 8 3 1 0 0 -2 -3 -4 -4 -4 -5 -5 -5 -5 -5 -5 -5 -5 -5 -5 -5 -5 -5 -4 1 27 92 91 26 0 -4 -5 -5 -5 -5 -5 -5 -5 -5 -5 -5 -5 -5 -5 -5 -4 -3 1 17 59 109 83 27 2 -3 -4 -5 -5 -4 0 26 91 
91 26 0 -4 -5 -5 -5 -5 -5 -5 -5 -5 -5 -5 -4 -2 8 49 109 75 18 0 -4 -4 -4 -2 0 2 9 25 49 83 107 109 94 77 51 39 50 75 87 92 98 109 109 97 88 75 49 32 27 24 18 8 2 0 0 -2 -3 -4 -4 -4 -4 -5 -5 -5 -5 -5 -5 -5 -5 -3 3 32 98 87 24 0 -4 -5 -5 -5 -5 -5 -5 -5 -5 -5 -5 -5 -5 -5 -5 -5 -4 -3 3 27 83 109 58 15 0 -4 -5 -5 -4 0 26 91 
91 26 0 -4 -5 -5 -5 -5 -5 -5 -5 -5 -5 -5 -4 0 18 75 109 49 8 -2 -3 -2 1 8 19 31 51 84 108 108 84 51 31 19 9 5 8 18 24 27 32 49 75 88 97 109 109 98 92 87 75 49 32 25 18 8 3 1 0 0 -2 -3 -4 -4 -4 -5 -5 -5 -4 -2 8 49 109 75 18 0 -4 -5 -5 -5 -5 -5 -5 -5 -5 -5 -5 -5 -5 -5 -5 -5 -5 -4 -2 8 44 101 101 44 8 -2 -4 -5 -4 0 26 91 
91 26 0 -4 -5 -5 -5 -5 -5 -5 -5 -5 -5 -5 -4 0 24 87 98 33 4 -1 1 9 25 47 76 94 109 107 83 49 25 9 2 0 -2 -3 -2 0 0 1 3 8 18 25 32 49 75 87 92 98 109 109 97 88 75 49 32 27 24 18 8 2 0 0 -2 -3 -4 -4 -3 0 18 75 109 49 8 -2 -4 -5 -5 -5 -5 -5 -5 -5 -5 -5 -5 -5 -5 -5 -5 -5 -5 -5 -4 0 15 58 109 83 27 3 -3 -4 -4 0 26 91 
91 26 0 -4 -5 -5 -5 -5 -5 -5 -5 -5 -5 -5 -4 1 27 92 93 29 8 10 25 49 83 107 109 94 76 47 25 9 1 -2 -3 -4 -4 -4 -4 -4 -4 -4 -3 -2 0 0 2 8 18 24 27 32 49 75 88 97 109 109 98 92 87 75 49 32 25 18 8 3 1 0 0 2 25 88 98 32 3 -3 -5 -5 -5 -5 -5 -5 -5 -5 -5 -5 -5 -5 -5 -5 -5 -5 -5 -5 -4 -3 2 27 83 109 59 17 0 -3 -4 0 26 91 
91 26 0 -4 -5 -5 -5 -5 -5 -5 -5 -5 -5 -5 -3 3 33 99 94 38 31 50 83 108 108 84 51 31 19 8 1 -2 -4 -4 -5 -5 -5 -5 -5 -5 -5 -5 -5 -4 -4 -4 -3 -2 0 0 1 3 8 18 25 32 49 75 87 92 98 109 109 97 88 75 49 32 27 24 19 14 33 94 93 27 1 -4 -5 -5 -5 -5 -5 -5 -5 -5 -5 -5 -5 -5 -5 -5 -5 -5 -5 -5 -5 -4 -2 8 44 101 104 53 14 0 -3 1 26 91 
91 26 0 -4 -5 -5 -5 -5 -5 -5 -5 -5 -5 -4 -2 9 52 119 105 73 87 108 108 83 49 25 9 2 0 -2 -4 -4 -5 -5 -5 -5 -5 -5 -5 -5 -5 -5 -5 -5 -5 -5 -5 -4 -4 -4 -4 -3 -2 0 0 2 8 18 24 27 32 49 75 88 97 109 109 98 92 87 75 54 60 110 94 26 0 -4 -5 -5 -5 -5 -5 -5 -5 -5 -5 -5 -5 -5 -5 -5 -5 -5 -5 -5 -5 -5 -4 0 14 53 104 101 44 8 -1 1 26 91 
91 26 0 -4 -5 -5 -5 -5 -5 -5 -5 -5 -5 -4 1 25 89 149 132 118 108 83 49 25 9 1 -2 -3 -4 -4 -5 -5 -5 -5 -5 -5 -5 -5 -5 -5 -5 -5 -5 -5 -5 -5 -5 -5 -5 -5 -5 -5 -4 -4 -4 -3 -2 0 0 1 3 8 18 25 32 49 75 87 92 98 110 113 117 144 98 26 0 -4 -5 -5 -5 -5 -5 -5 -5 -5 -5 -5 -5 -5 -5 -5 -5 -5 -5 -5 -5 -5 -5 -4 0 17 59 109 83 27 3 2 26 91 
91 26 0 -4 -5 -5 -5 -5 -5 -5 -5 -5 -4 -2 9 50 118 131 102 78 47 25 9 1 -2 -4 -4 -5 -5 -5 -5 -5 -5 -5 -5 -5 -5 -5 -5 -5 -5 -5 -5 -5 -5 -5 -5 -5 -5 -5 -5 -5 -5 -5 -5 -5 -4 -4 -4 -4 -3 -2 0 0 2 8 18 24 27 32 49 79 107 142 98 26 0 -4 -5 -5 -5 -5 -5 -5 -5 -5 -5 -5 -5 -5 -5 -5 -5 -5 -5 -5 -5 -5 -5 -4 -3 3 27 83 109 59 18 6 27 91 
91 26 0 -4 -5 -5 -5 -5 -5 -5 -5 -4 -3 2 27 85 113 67 34 20 8 1 -2 -4 -4 -5 -5 -5 -5 -5 -5 -5 -5 -5 -5 -5 -5 -5 -5 -5 -5 -5 -5 -5 -5 -5 -5 -5 -5 -5 -5 -5 -5 -5 -5 -5 -5 -5 -5 -5 -5 -4 -4 -4 -3 -2 0 0 1 3 9 24 52 109 93 26 0 -4 -5 -5 -5 -5 -5 -5 -5 -5 -5 -5 -5 -5 -5 -5 -5 -5 -5 -5 -5 -5 -5 -5 -4 -2 8 44 101 104 54 20 30 92 
91 26 0 -4 -5 -5 -5 -5 -5 -5 -5 -4 0 15 58 109 84 29 6 0 -2 -4 -4 -5 -5 -5 -5 -5 -5 -5 -5 -5 -5 -5 -5 -5 -5 -5 -5 -5 -5 -5 -5 -5 -5 -5 -5 -5 -5 -5 -5 -5 -5 -5 -5 -5 -5 -5 -5 -5 -5 -5 -5 -5 -5 -4 -4 -4 -4 -3 -1 5 31 95 92 26 0 -4 -5 -5 -5 -5 -5 -5 -5 -5 -5 -5 -5 -5 -5 -5 -5 -5 -5 -5 -5 -5 -5 -5 -5 -4 0 14 53 104 101 50 39 93 
92 26 0 -4 -5 -5 -5 -5 -5 -5 -4 -2 8 44 101 101 44 8 -1 -4 -4 -5 -5 -5 -5 -5 -5 -5 -5 -5 -5 -5 -5 -5 -5 -5 -5 -5 -5 -5 -5 -5 -5 -5 -5 -5 -5 -5 -5 -5 -5 -5 -5 -5 -5 -5 -5 -5 -5 -5 -5 -5 -5 -5 -5 -5 -5 -5 -5 -4 -3 1 26 92 91 26 1 -4 -5 -5 -5 -5 -5 -5 -5 -5 -5 -5 -5 -5 -5 -5 -5 -5 -5 -5 -5 -5 -5 -5 -5 -5 -4 0 17 59 110 88 57 97 
92 26 0 -4 -5 -5 -5 -5 -5 -4 -3 3 27 83 109 58 15 0 -4 -4 -5 -5 -5 -5 -5 -5 -5 -5 -5 -5 -5 -5 -5 -5 -5 -5 -5 -5 -5 -5 -5 -5 -5 -5 -5 -5 -5 -5 -5 -5 -5 -5 -5 -5 -5 -5 -5 -5 -5 -5 -5 -5 -5 -5 -5 -5 -5 -5 -5 -5 -4 1 26 91 93 27 1 -4 -5 -5 -5 -5 -5 -5 -5 -5 -5 -5 -5 -5 -5 -5 -5 -5 -5 -5 -5 -5 -5 -5 -5 -5 -4 -3 3 27 83 113 86 107 
94 26 0 -4 -5 -5 -5 -5 -4 -3 0 17 59 110 84 28 3 -3 -4 -5 -5 -5 -5 -5 -5 -5 -5 -5 -5 -5 -5 -5 -5 -5 -5 -5 -5 -5 -5 -5 -5 -5 -5 -5 -5 -5 -5 -5 -5 -5 -5 -5 -5 -5 -5 -5 -5 -5 -5 -5 -5 -5 -5 -5 -5 -5 -5 -5 -5 -4 -3 1 26 90 100 35 4 -2 -4 -5 -5 -5 -5 -5 -5 -5 -5 -5 -5 -5 -5 -5 -5 -5 -5 -5 -5 -5 -5 -5 -5 -5 -5 -4 -2 8 44 104 123 128 
97 26 0 -4 -5 -5 -5 -4 -3 0 16 55 106 105 50 14 2 -2 -3 -4 -4 -4 -4 -4 -4 -4 -4 -4 -4 -4 -5 -5 -5 -5 -5 -5 -5 -5 -5 -5 -5 -5 -5 -5 -5 -5 -5 -5 -5 -5 -5 -5 -5 -5 -5 -5 -5 -5 -5 -5 -5 -5 -5 -5 -5 -5 -5 -5 -4 -4 -1 5 31 94 122 63 19 3 -2 -4 -4 -5 -5 -5 -5 -5 -5 -5 -5 -5 -5 -5 -5 -5 -5 -5 -5 -5 -5 -5 -5 -5 -5 -5 -4 0 15 59 121 149 
99 26 0 -4 -5 -5 -4 -3 0 16 55 112 124 82 44 28 19 8 3 1 1 0 0 0 0 0 0 0 0 -2 -3 -4 -4 -4 -4 -4 -4 -4 -4 -4 -4 -5 -5 -5 -5 -5 -5 -5 -5 -5 -5 -5 -5 -5 -5 -5 -5 -5 -5 -5 -5 -5 -5 -5 -5 -5 -5 -4 -3 0 8 27 58 113 151 118 61 28 9 1 -2 -4 -4 -5 -5 -5 -5 -5 -5 -5 -5 -5 -5 -5 -5 -5 -5 -5 -5 -5 -5 -5 -5 -5 -4 -3 2 27 89 151 
96 26 0 -4 -5 -4 -3 0 16 55 116 152 134 108 95 88 75 49 32 27 26 26 26 26 26 26 25 24 18 8 3 1 1 0 0 0 0 0 0 0 -2 -3 -4 -4 -4 -4 -4 -4 -4 -4 -4 -4 -4 -5 -5 -5 -5 -5 -5 -5 -5 -5 -5 -5 -5 -4 -4 -2 2 15 44 83 110 118 117 122 113 84 49 25 8 0 -3 -4 -5 -5 -5 -5 -5 -5 -5 -5 -5 -5 -5 -5 -5 -5 -5 -5 -5 -5 -5 -5 -5 -4 -2 10 52 125 
93 26 0 -4 -4 -3 0 16 54 106 122 109 98 93 93 98 109 109 98 93 91 91 91 91 91 91 90 87 75 49 32 27 26 26 26 26 26 25 24 18 8 3 1 1 0 0 0 0 0 0 0 0 -2 -3 -4 -4 -4 -4 -4 -4 -4 -4 -4 -4 -4 -2 1 9 27 58 101 109 85 53 40 53 84 108 108 82 44 15 2 -2 -4 -4 -5 -5 -5 -5 -5 -5 -5 -5 -5 -5 -5 -5 -5 -5 -5 -5 -5 -5 -5 -5 -3 3 33 101 
92 26 1 -3 -3 1 16 54 103 105 62 35 27 26 27 32 49 75 87 90 91 91 91 91 91 91 93 98 109 109 98 93 91 91 91 91 91 90 87 75 49 32 27 26 26 26 26 26 26 25 24 18 8 3 1 1 0 0 0 0 0 0 0 -1 0 8 25 49 84 109 101 58 27 10 5 10 25 49 84 109 101 58 27 9 1 -2 -4 -4 -5 -5 -5 -5 -5 -5 -5 -5 -5 -5 -5 -5 -5 -5 -5 -5 -5 -5 -4 1 27 93 
91 26 1 -1 3 17 55 103 103 55 18 4 1 1 1 3 8 18 24 25 26 26 26 26 26 26 27 32 49 75 87 90 91 91 91 91 91 93 98 109 109 98 93 91 91 91 91 91 91 90 87 75 49 32 27 26 26 26 26 26 25 24 19 12 17 45 82 108 108 82 44 15 2 -2 -3 -2 1 9 27 58 101 109 84 49 25 8 0 -3 -4 -5 -5 -5 -5 -5 -5 -5 -5 -5 -5 -5 -5 -5 -5 -5 -5 -5 -4 1 26 91 
91 27 5 9 27 59 104 103 54 16 1 -3 -4 -4 -4 -3 -2 0 0 0 0 0 0 0 0 1 1 3 8 18 24 25 26 26 26 26 26 27 32 49 75 87 90 91 91 91 91 91 91 93 98 109 109 98 93 91 91 91 91 91 90 87 77 59 67 104 110 84 49 25 8 0 -3 -4 -4 -4 -4 -2 2 15 44 82 108 108 82 44 15 2 -2 -4 -4 -5 -5 -5 -5 -5 -5 -5 -5 -5 -5 -5 -5 -5 -5 -5 -4 0 26 91 
92 31 20 45 83 109 101 53 16 0 -3 -4 -5 -5 -5 -5 -4 -4 -4 -4 -4 -4 -4 -4 -4 -4 -4 -3 -2 0 0 0 0 0 0 0 1 1 3 8 18 24 25 26 26 26 26 26 26 27 32 49 75 87 90 91 91 91 91 91 93 99 117 131 132 109 60 28 9 1 -2 -4 -4 -5 -5 -5 -5 -4 -3 0 8 25 49 84 109 101 58 27 9 1 -2 -4 -4 -5 -5 -5 -5 -5 -5 -5 -5 -5 -5 -5 -5 -5 -4 0 26 91 
96 47 59 101 109 83 44 14 0 -3 -4 -5 -5 -5 -5 -5 -5 -5 -5 -5 -5 -5 -5 -5 -5 -5 -5 -5 -4 -4 -4 -4 -4 -4 -4 -4 -4 -4 -3 -2 0 0 0 0 0 0 0 0 1 1 3 8 18 24 25 26 26 26 26 26 28 37 70 134 132 63 19 3 -2 -4 -4 -5 -5 -5 -5 -5 -5 -5 -4 -4 -2 1 9 27 58 101 109 84 49 25 8 0 -3 -4 -5 -5 -5 -5 -5 -5 -5 -5 -5 -5 -5 -5 -4 0 26 92 
108 83 107 104 59 27 8 0 -4 -4 -5 -5 -5 -5 -5 -5 -5 -5 -5 -5 -5 -5 -5 -5 -5 -5 -5 -5 -5 -5 -5 -5 -5 -5 -5 -5 -5 -5 -5 -4 -4 -4 -4 -4 -4 -4 -4 -4 -4 -4 -3 -2 0 0 0 0 0 0 0 1 2 8 37 105 105 35 4 -2 -4 -5 -5 -5 -5 -5 -5 -5 -5 -5 -5 -5 -4 -4 -2 2 15 44 82 108 108 82 44 15 2 -2 -4 -4 -5 -5 -5 -5 -5 -5 -5 -5 -5 -5 -4 0 26 93 
134 125 105 55 17 3 -2 -4 -5 -5 -5 -5 -5 -5 -5 -5 -5 -5 -5 -5 -5 -5 -5 -5 -5 -5 -5 -5 -5 -5 -5 -5 -5 -5 -5 -5 -5 -5 -5 -5 -5 -5 -5 -5 -5 -5 -5 -5 -5 -5 -5 -4 -4 -4 -4 -4 -4 -4 -4 -4 -3 2 28 94 94 27 1 -4 -5 -5 -5 -5 -5 -5 -5 -5 -5 -5 -5 -5 -5 -5 -4 -3 0 8 25 49 84 109 101 58 27 9 1 -2 -4 -4 -5 -5 -5 -5 -5 -5 -5 -5 -4 0 26 96 
153 114 55 16 1 -3 -4 -5 -5 -5 -5 -5 -5 -5 -5 -5 -5 -5 -5 -5 -5 -5 -5 -5 -5 -5 -5 -5 -5 -5 -5 -5 -5 -5 -5 -5 -5 -5 -5 -5 -5 -5 -5 -5 -5 -5 -5 -5 -5 -5 -5 -5 -5 -5 -5 -5 -5 -5 -5 -4 -4 1 26 92 92 26 1 -4 -5 -5 -5 -5 -5 -5 -5 -5 -5 -5 -5 -5 -5 -5 -5 -4 -4 -2 1 9 27 58 101 109 84 49 25 9 1 -2 -4 -4 -5 -5 -5 -5 -5 -5 -4 0 26 99 
129 63 18 1 -3 -4 -5 -5 -5 -5 -5 -5 -5 -5 -5 -5 -5 -5 -5 -5 -5 -5 -5 -5 -5 -5 -5 -5 -5 -5 -5 -5 -5 -5 -5 -5 -5 -5 -5 -5 -5 -5 -5 -5 -5 -5 -5 -5 -5 -5 -5 -5 -5 -5 -5 -5 -5 -5 -5 -5 -4 0 26 91 91 26 0 -4 -5 -5 -5 -5 -5 -5 -5 -5 -5 -5 -5 -5 -5 -5 -5 -5 -5 -4 -4 -2 2 15 44 82 108 108 83 49 25 8 0 -3 -4 -5 -5 -5 -5 -5 -4 0 26 97 
103 35 4 -3 -4 -5 -5 -5 -5 -5 -5 -5 -5 -5 -5 -5 -5 -5 -5 -5 -5 -5 -5 -5 -5 -5 -5 -5 -5 -5 -5 -5 -5 -5 -5 -5 -5 -5 -5 -5 -5 -5 -5 -5 -5 -5 -5 -5 -5 -5 -5 -5 -5 -5 -5 -5 -5 -5 -5 -5 -4 0 26 91 91 26 0 -4 -5 -5 -5 -5 -5 -5 -5 -5 -5 -5 -5 -5 -5 -5 -5 -5 -5 -5 -5 -4 -3 0 8 25 49 83 108 108 82 44 15 2 -2 -3 -4 -4 -4 -4 -4 1 26 93 
93 27 1 -4 -5 -5 -5 -5 -5 -5 -5 -5 -5 -5 -5 -5 -5 -5 -5 -5 -5 -5 -5 -5 -5 -5 -5 -5 -5 -5 -5 -5 -5 -5 -5 -5 -5 -5 -5 -5 -5 -5 -5 -5 -5 -5 -5 -5 -5 -5 -5 -5 -5 -5 -5 -5 -5 -5 -5 -5 -4 0 26 91 91 26 0 -4 -5 -5 -5 -5 -5 -5 -5 -5 -5 -5 -5 -5 -5 -5 -5 -5 -5 -5 -5 -5 -4 -4 -2 1 9 25 49 84 110 102 58 27 10 3 0 0 -2 -3 -3 1 26 92 
92 26 1 -4 -5 -5 -5 -5 -5 -5 -5 -5 -5 -5 -5 -5 -5 -5 -5 -5 -5 -5 -5 -5 -5 -5 -5 -5 -5 -5 -5 -5 -5 -5 -5 -5 -5 -5 -5 -5 -5 -5 -5 -5 -5 -5 -5 -5 -5 -5 -5 -5 -5 -5 -5 -5 -5 -5 -5 -5 -4 0 26 91 91 26 0 -4 -5 -5 -5 -5 -5 -5 -5 -5 -5 -5 -5 -5 -5 -5 -5 -5 -5 -5 -5 -5 -5 -5 -4 -4 -2 1 10 29 61 106 115 88 52 32 25 18 8 3 1 5 28 92 
92 26 1 -4 -4 -5 -5 -5 -5 -5 -5 -5 -5 -5 -5 -5 -5 -5 -5 -5 -5 -5 -5 -5 -5 -5 -5 -5 -5 -5 -5 -5 -5 -5 -5 -5 -5 -5 -5 -5 -5 -5 -5 -5 -5 -5 -5 -5 -5 -5 -5 -5 -5 -5 -5 -5 -5 -5 -5 -5 -4 0 26 91 91 26 0 -4 -5 -5 -5 -5 -5 -5 -5 -5 -5 -5 -5 -5 -5 -5 -5 -5 -5 -5 -5 -5 -5 -5 -4 -4 -3 -1 2 10 30 73 124 149 127 101 89 75 49 32 26 24 39 96 
94 27 1 -3 -4 -4 -4 -4 -4 -4 -5 -5 -5 -5 -5 -5 -5 -5 -5 -5 -5 -5 -5 -5 -5 -5 -5 -5 -5 -5 -5 -5 -5 -5 -5 -5 -5 -5 -5 -5 -5 -5 -5 -5 -5 -5 -5 -5 -5 -5 -5 -5 -5 -5 -5 -5 -5 -5 -5 -5 -4 0 26 91 91 26 0 -4 -5 -5 -5 -5 -5 -5 -5 -5 -5 -5 -5 -5 -5 -5 -5 -5 -5 -5 -5 -5 -4 -4 -3 -2 1 8 20 32 55 95 127 127 107 96 98 109 109 97 89 80 76 114 
102 31 6 1 1 0 0 0 0 -2 -3 -4 -4 -4 -4 -4 -4 -4 -5 -5 -5 -5 -5 -5 -5 -5 -5 -5 -5 -5 -5 -5 -5 -5 -5 -5 -5 -5 -5 -5 -5 -5 -5 -5 -5 -5 -5 -5 -5 -5 -5 -5 -5 -5 -5 -5 -5 -5 -5 -5 -4 0 26 91 91 26 0 -4 -5 -5 -5 -5 -5 -5 -5 -5 -5 -5 -5 -5 -5 -5 -5 -5 -5 -5 -4 -4 -2 0 2 9 25 47 76 94 110 109 85 52 33 28 33 49 75 88 97 112 127 148 
116 54 31 27 26 26 25 24 18 8 3 1 1 0 0 0 0 -2 -3 -4 -4 -4 -4 -4 -4 -4 -4 -5 -5 -5 -5 -5 -5 -5 -5 -5 -5 -5 -5 -5 -5 -5 -5 -5 -5 -5 -5 -5 -5 -5 -5 -5 -5 -5 -5 -5 -5 -5 -5 -5 -4 0 26 91 91 26 0 -4 -5 -5 -5 -5 -5 -5 -5 -5 -5 -5 -5 -5 -5 -5 -5 -4 -4 -3 -2 1 8 19 31 51 83 108 109 94 76 47 25 9 3 1 3 8 18 25 33 53 96 143 
146 111 95 92 91 91 90 87 75 49 32 27 26 26 25 24 18 8 3 1 1 0 0 0 0 0 -2 -3 -4 -4 -4 -4 -4 -4 -4 -5 -5 -5 -5 -5 -5 -5 -5 -5 -5 -5 -5 -5 -5 -5 -5 -5 -5 -5 -5 -5 -5 -5 -5 -5 -4 0 26 91 91 26 0 -4 -5 -5 -5 -5 -5 -5 -5 -5 -5 -5 -5 -5 -5 -4 -4 -2 0 2 9 25 47 76 94 109 108 83 51 31 19 8 1 -2 -3 -4 -3 -2 0 1 3 14 47 115 
144 111 95 92 91 91 93 98 109 109 98 93 91 91 90 87 75 49 32 27 26 26 26 25 24 18 8 3 1 1 0 0 0 0 -2 -3 -4 -4 -4 -4 -4 -4 -4 -4 -5 -5 -5 -5 -5 -5 -5 -5 -5 -5 -5 -5 -5 -5 -5 -5 -4 0 26 91 91 26 0 -4 -5 -5 -5 -5 -5 -5 -5 -5 -5 -5 -5 -4 -4 -2 1 8 19 31 51 83 108 109 94 76 47 25 9 2 0 -2 -4 -4 -5 -5 -5 -4 -4 -4 -3 3 30 101 
109 54 31 27 26 26 27 32 49 75 87 90 91 91 93 98 109 109 98 93 91 91 91 90 87 75 49 32 27 26 26 25 24 18 8 3 1 1 0 0 0 0 0 -2 -3 -4 -4 -4 -4 -4 -4 -4 -5 -5 -5 -5 -5 -5 -5 -5 -4 0 26 91 91 26 0 -4 -5 -5 -5 -5 -5 -5 -5 -5 -4 -4 -3 -2 1 9 25 47 76 94 109 108 83 51 31 19 8 1 -2 -3 -4 -4 -5 -5 -5 -5 -5 -5 -5 -4 -4 1 26 94 
95 31 7 1 1 1 1 3 8 18 24 25 26 26 27 32 49 75 87 90 91 91 91 93 98 109 109 98 93 91 91 90 87 75 49 32 27 26 26 26 25 24 18 8 3 1 1 0 0 0 0 -2 -3 -4 -4 -4 -4 -4 -4 -4 -3 1 26 91 91 26 0 -4 -5 -5 -5 -5 -5 -5 -4 -4 -2 0 2 9 25 49 83 107 109 94 76 47 25 9 2 0 -2 -4 -4 -5 -5 -5 -5 -5 -5 -5 -5 -5 -5 -5 -4 0 26 92 
92 27 1 -3 -4 -4 -4 -3 -2 0 0 0 0 1 1 3 8 18 24 25 26 26 26 27 32 49 75 87 90 91 91 93 98 109 109 98 93 91 91 91 90 87 75 49 32 27 26 26 25 24 18 8 3 1 1 0 0 0 0 0 -1 2 27 92 92 26 1 -4 -5 -5 -5 -4 -4 -3 -2 1 8 19 31 51 84 108 108 84 51 31 19 8 1 -2 -3 -4 -4 -5 -5 -5 -5 -5 -5 -5 -5 -5 -5 -5 -5 -5 -4 0 26 91 
91 26 1 -4 -4 -5 -5 -5 -4 -4 -4 -4 -4 -4 -4 -3 -2 0 0 0 0 0 1 1 3 8 18 24 25 26 26 27 32 49 75 87 90 91 91 91 93 98 109 109 98 93 91 91 90 87 75 49 32 27 26 26 26 25 24 18 9 9 32 95 94 27 1 -4 -4 -4 -4 -2 0 2 9 25 47 76 94 109 107 83 49 25 9 2 0 -2 -4 -4 -5 -5 -5 -5 -5 -5 -5 -5 -5 -5 -5 -5 -5 -5 -5 -5 -4 0 26 91 
91 26 0 -4 -5 -5 -5 -5 -5 -5 -5 -5 -5 -5 -5 -5 -4 -4 -4 -4 -4 -4 -4 -4 -3 -2 0 0 0 0 1 1 3 8 18 24 25 26 26 26 27 32 49 75 87 90 91 91 93 98 109 109 98 93 91 91 91 90 87 75 50 38 55 111 105 35 5 -2 -3 -2 1 8 19 31 51 83 108 109 94 76 47 25 9 1 -2 -3 -4 -4 -5 -5 -5 -5 -5 -5 -5 -5 -5 -5 -5 -5 -5 -5 -5 -5 -5 -5 -4 0 26 91 
91 26 0 -4 -5 -5 -5 -5 -5 -5 -5 -5 -5 -5 -5 -5 -5 -5 -5 -5 -5 -5 -5 -5 -5 -4 -4 -4 -4 -4 -4 -4 -3 -2 0 0 0 0 0 1 1 3 8 18 24 25 26 26 27 32 49 75 87 90 91 91 91 93 98 109 110 101 110 144 133 63 19 5 3 10 25 47 76 94 109 108 83 51 31 19 8 1 -2 -4 -4 -5 -5 -5 -5 -5 -5 -5 -5 -5 -5 -5 -5 -5 -5 -5 -5 -5 -5 -5 -5 -5 -4 0 26 91 
91 26 0 -4 -5 -5 -5 -5 -5 -5 -5 -5 -5 -5 -5 -5 -5 -5 -5 -5 -5 -5 -5 -5 -5 -5 -5 -5 -5 -5 -5 -5 -5 -4 -4 -4 -4 -4 -4 -4 -4 -3 -2 0 0 0 0 1 1 3 8 18 24 25 26 26 26 27 32 49 75 88 95 109 125 109 63 37 35 51 84 108 109 94 76 47 25 9 2 0 -2 -4 -4 -5 -5 -5 -5 -5 -5 -5 -5 -5 -5 -5 -5 -5 -5 -5 -5 -5 -5 -5 -5 -5 -5 -5 -4 0 26 91 
91 26 0 -4 -5 -5 -5 -5 -5 -5 -5 -5 -5 -5 -5 -5 -5 -5 -5 -5 -5 -5 -5 -5 -5 -5 -5 -5 -5 -5 -5 -5 -5 -5 -5 -5 -5 -5 -5 -5 -5 -5 -4 -4 -4 -4 -4 -4 -4 -3 -2 0 0 0 0 0 1 1 3 8 18 24 27 35 63 109 125 111 103 111 108 83 51 31 19 8 1 -2 -3 -4 -4 -5 -5 -5 -5 -5 -5 -5 -5 -5 -5 -5 -5 -5 -5 -5 -5 -5 -5 -5 -5 -5 -5 -5 -5 -5 -4 0 26 91 
91 26 0 -4 -5 -5 -5 -5 -5 -5 -5 -5 -5 -5 -5 -5 -5 -5 -5 -5 -5 -5 -5 -5 -5 -5 -5 -5 -5 -5 -5 -5 -5 -5 -5 -5 -5 -5 -5 -5 -5 -5 -5 -5 -5 -5 -5 -5 -5 -5 -4 -4 -4 -4 -4 -4 -4 -4 -3 -2 0 0 1 5 19 63 133 143 105 78 48 25 9 2 0 -2 -4 -4 -5 -5 -5 -5 -5 -5 -5 -5 -5 -5 -5 -5 -5 -5 -5 -5 -5 -5 -5 -5 -5 -5 -5 -5 -5 -5 -5 -5 -4 0 26 91 
91 26 1 -4 -4 -5 -5 -5 -5 -5 -5 -5 -5 -5 -5 -5 -5 -5 -5 -5 -5 -5 -5 -5 -5 -5 -5 -5 -5 -5 -5 -5 -5 -5 -5 -5 -5 -5 -5 -5 -5 -5 -5 -5 -5 -5 -5 -5 -5 -5 -5 -5 -4 -4 -4 -4 -4 -4 -4 -4 -4 -4 -3 -2 5 36 105 110 52 24 9 1 -2 -3 -4 -4 -4 -5 -5 -5 -5 -5 -5 -5 -5 -5 -5 -5 -5 -5 -5 -5 -5 -5 -5 -5 -5 -5 -5 -5 -5 -5 -5 -5 -5 -4 -4 1 26 91 
92 27 1 -3 -4 -4 -4 -4 -4 -4 -4 -4 -4 -4 -4 -4 -4 -4 -4 -4 -4 -4 -4 -4 -4 -4 -4 -4 -4 -4 -4 -4 -4 -4 -4 -4 -4 -4 -4 -4 -4 -4 -4 -4 -4 -4 -4 -4 -4 -4 -4 -4 -4 -4 -4 -4 -4 -4 -4 -4 -4 -4 -4 -3 2 28 95 96 32 6 -1 -3 -3 -4 -4 -4 -4 -4 -4 -4 -4 -4 -4 -4 -4 -4 -4 -4 -4 -4 -4 -4 -4 -4 -4 -4 -4 -4 -4 -4 -4 -4 -4 -4 -4 -4 -3 1 27 92 
95 31 6 1 1 0 0 0 0 0 0 0 0 0 0 0 0 0 0 0 0 0 0 0 0 0 0 0 0 0 0 0 0 0 0 0 0 0 0 0 0 0 0 0 0 0 0 0 0 0 0 0 0 0 0 0 0 0 0 0 0 0 1 1 7 32 96 96 32 7 2 1 1 0 0 0 0 0 0 0 0 0 0 0 0 0 0 0 0 0 0 0 0 0 0 0 0 0 0 0 0 0 0 0 0 1 1 6 31 95 
112 54 31 27 26 26 26 26 26 26 26 26 26 26 26 26 26 26 26 26 26 26 26 26 26 26 26 26 26 26 26 26 26 26 26 26 26 26 26 26 26 26 26 26 26 26 26 26 26 26 26 26 26 26 26 26 26 26 26 26 26 26 26 27 31 54 111 111 54 31 27 26 26 26 26 26 26 26 26 26 26 26 26 26 26 26 26 26 26 26 26 26 26 26 26 26 26 26 26 26 26 26 26 26 26 26 27 31 54 112 
152 112 95 92 91 91 91 91 91 91 91 91 91 91 91 91 91 91 91 91 91 91 91 91 91 91 91 91 91 91 91 93 95 99 97 93 92 91 91 91 91 91 91 91 91 91 91 92 94 98 98 94 92 91 91 91 91 91 91 91 91 91 91 92 95 109 143 143 109 95 92 91 91 91 91 91 91 91 91 91 91 91 91 91 91 91 91 91 91 91 92 95 99 97 93 92 91 91 91 91 91 91 92 95 99 97 94 96 112 152 
