P2
110 110
255
143 98 85 83 83 83 83 83 83 83 83 83 83 83 83 83 83 83 83 83 83 83 83 83 83 83 83 83 83 83 85 92 120 154 125 92 84 83 83 83 83 83 83 83 83 83 83 85 96 137 137 96 85 83 83 83 83 83 83 83 83 83 83 83 83 84 88 88 84 83 83 83 83 83 83 83 83 83 83 83 83 83 83 83 83 83 83 83 83 84 89 113 153 125 93 84 83 83 83 83 83 84 89 112 153 125 93 86 98 143 
98 34 17 14 14 14 14 14 14 14 14 14 14 14 14 14 14 14 14 14 14 14 14 14 14 14 14 14 14 15 21 51 115 108 46 20 15 14 14 14 14 14 14 14 14 14 14 17 34 99 98 34 17 14 14 14 14 14 14 14 14 14 14 14 14 14 14 14 14 14 14 14 14 14 14 14 14 14 14 14 14 14 14 14 14 14 14 14 14 17 34 93 115 49 20 15 14 14 14 14 14 16 30 86 117 50 21 18 34 98 
85 17 0 -3 -3 -3 -3 -3 -3 -3 -3 -3 -3 -3 -3 -3 -3 -3 -3 -3 -3 -3 -3 -3 -3 -3 -3 -3 -3 0 18 78 109 44 7 -1 -3 -3 -3 -3 -3 -3 -3 -3 -3 -3 -3 0 21 94 86 17 0 -3 -3 -3 -3 -3 -3 -3 -3 -3 -3 -3 -3 -3 -3 -3 -3 -3 -3 -3 -3 -3 -3 -3 -3 -3 -3 -3 -3 -3 -3 -3 -3 -3 -3 -3 -2 3 36 108 77 16 0 -3 -3 -3 -3 -3 -3 0 17 84 90 20 0 0 17 85 
83 14 -3 -5 -6 -6 -6 -6 -6 -6 -6 -6 -6 -6 -6 -6 -6 -6 -6 -6 -6 -6 -6 -6 -6 -6 -6 -6 -4 5 44 108 76 15 -2 -5 -6 -6 -6 -6 -6 -6 -6 -6 -6 -6 -5 1 37 123 87 14 -3 -5 -6 -6 -6 -6 -6 -6 -6 -6 -6 -6 -6 -6 -6 -6 -6 -6 -6 -6 -6 -6 -6 -6 -6 -6 -6 -6 -6 -6 -6 -6 -6 -6 -6 -5 -3 10 70 108 36 1 -5 -6 -6 -6 -6 -6 -5 -2 18 89 81 14 -3 -3 14 83 
83 14 -3 -6 -6 -6 -6 -6 -6 -6 -6 -6 -6 -6 -6 -6 -6 -6 -6 -6 -6 -6 -6 -6 -6 -6 -6 -5 1 32 100 100 32 1 -5 -6 -6 -6 -6 -6 -6 -6 -6 -6 -6 -6 -3 14 79 155 89 14 -3 -6 -6 -6 -6 -6 -6 -6 -6 -6 -6 -6 -6 -6 -6 -6 -6 -6 -6 -6 -6 -6 -6 -6 -6 -6 -6 -6 -6 -6 -6 -6 -6 -6 -6 -6 -2 18 87 87 18 -2 -6 -6 -6 -6 -6 -6 -5 0 34 108 69 10 -3 -3 14 83 
83 14 -3 -6 -6 -6 -6 -6 -6 -6 -6 -6 -6 -6 -6 -6 -6 -6 -6 -6 -6 -6 -6 -6 -6 -6 -6 -2 15 76 108 43 5 -4 -6 -6 -6 -6 -6 -6 -6 -6 -6 -6 -6 -5 1 35 114 143 87 14 -3 -6 -6 -6 -6 -6 -6 -6 -6 -6 -6 -6 -6 -6 -6 -6 -6 -6 -6 -6 -6 -6 -6 -6 -6 -6 -6 -6 -6 -6 -6 -6 -6 -6 -6 -5 1 36 108 69 10 -4 -6 -6 -6 -6 -6 -6 -4 10 69 108 34 0 -5 -3 14 83 
83 14 -3 -6 -6 -6 -6 -6 -6 -6 -6 -6 -6 -6 -6 -6 -6 -6 -6 -6 -6 -6 -6 -6 -6 -6 -4 5 43 108 76 15 -2 -6 -6 -6 -6 -6 -6 -6 -6 -6 -6 -6 -6 -3 14 76 121 116 86 15 -3 -6 -6 -6 -6 -6 -6 -6 -6 -6 -6 -6 -6 -6 -6 -6 -6 -6 -6 -6 -6 -6 -6 -6 -6 -6 -6 -6 -6 -6 -6 -6 -6 -6 -6 -3 14 76 106 34 0 -5 -6 -6 -6 -6 -6 -6 -3 14 81 89 18 -2 -5 -3 14 83 
83 14 -3 -6 -6 -6 -6 -6 -6 -6 -6 -6 -6 -6 -6 -6 -6 -6 -6 -6 -6 -6 -6 -6 -6 -5 1 32 100 100 32 1 -5 -6 -6 -6 -6 -6 -6 -6 -6 -6 -6 -6 -5 1 35 108 93 97 90 18 -2 -6 -6 -6 -6 -6 -6 -6 -6 -6 -6 -6 -6 -6 -6 -6 -6 -6 -6 -6 -6 -6 -6 -6 -6 -6 -6 -6 -6 -6 -6 -6 -6 -6 -5 0 34 106 76 14 -3 -6 -6 -6 -6 -6 -6 -6 -2 18 89 81 14 -3 -5 -3 14 83 
83 14 -3 -6 -6 -6 -6 -6 -6 -6 -6 -6 -6 -6 -6 -6 -6 -6 -6 -6 -6 -6 -6 -6 -6 -2 15 76 108 43 5 -4 -6 -6 -6 -6 -6 -6 -6 -6 -6 -6 -6 -6 -2 15 76 108 50 75 108 34 0 -5 -6 -6 -6 -6 -6 -6 -6 -6 -6 -6 -6 -6 -6 -6 -6 -6 -6 -6 -6 -6 -6 -6 -6 -6 -6 -6 -6 -6 -6 -6 -6 -6 -4 10 69 108 36 1 -5 -6 -6 -6 -6 -6 -6 -5 0 34 108 69 10 -4 -6 -3 14 83 
83 14 -3 -6 -6 -6 -6 -6 -6 -6 -6 -6 -6 -6 -6 -6 -6 -6 -6 -6 -6 -6 -6 -6 -4 5 43 108 76 15 -2 -6 -6 -6 -6 -6 -6 -6 -6 -6 -6 -6 -6 -4 5 43 108 76 21 37 108 68 10 -4 -6 -6 -6 -6 -6 -6 -6 -6 -6 -6 -6 -6 -6 -6 -6 -6 -6 -6 -6 -6 -6 -6 -6 -6 -6 -6 -6 -6 -6 -6 -6 -6 -2 18 87 87 18 -2 -6 -6 -6 -6 -6 -6 -6 -4 10 69 108 34 0 -5 -6 -3 14 83 
83 14 -3 -6 -6 -6 -6 -6 -6 -6 -6 -6 -6 -6 -6 -6 -6 -6 -6 -6 -6 -6 -6 -5 1 32 100 100 32 1 -5 -6 -6 -6 -6 -6 -6 -6 -6 -6 -6 -6 -5 0 32 100 100 32 4 19 89 80 13 -3 -6 -6 -6 -6 -6 -6 -6 -6 -6 -6 -6 -6 -6 -6 -6 -6 -6 -6 -6 -6 -6 -6 -6 -6 -6 -6 -6 -6 -6 -6 -6 -5 1 36 108 69 10 -4 -6 -6 -6 -6 -6 -6 -6 -3 14 81 89 18 -2 -6 -6 -3 14 83 
83 14 -3 -6 -6 -6 -6 -6 -6 -6 -6 -6 -6 -6 -6 -6 -6 -6 -6 -6 -6 -6 -6 -2 15 76 108 43 5 -4 -6 -6 -6 -6 -6 -6 -6 -6 -6 -6 -6 -6 -3 14 75 108 43 5 -1 15 84 83 14 -3 -6 -6 -6 -6 -6 -6 -6 -6 -6 -6 -6 -6 -6 -6 -6 -6 -6 -6 -6 -6 -6 -6 -6 -6 -6 -6 -6 -6 -6 -6 -6 -3 14 76 106 34 0 -5 -6 -6 -6 -6 -6 -6 -6 -2 18 89 81 14 -3 -6 -6 -3 14 83 
84 15 -3 -6 -6 -6 -6 -6 -6 -6 -6 -6 -6 -6 -6 -6 -6 -6 -6 -6 -6 -6 -4 5 43 108 76 15 -2 -6 -6 -6 -6 -6 -6 -6 -6 -6 -6 -6 -6 -5 1 35 106 76 15 -2 -3 14 83 83 14 -3 -6 -6 -6 -6 -6 -6 -6 -6 -6 -6 -6 -6 -6 -6 -6 -6 -6 -6 -6 -6 -6 -6 -6 -6 -6 -6 -6 -6 -6 -6 -5 0 34 106 76 14 -3 -6 -6 -6 -6 -6 -6 -6 -5 0 34 108 69 10 -4 -6 -6 -3 14 83 
92 20 -2 -5 -6 -6 -6 -6 -6 -6 -6 -6 -6 -6 -6 -6 -6 -6 -6 -6 -6 -5 1 32 100 100 32 1 -5 -6 -6 -6 -6 -6 -6 -6 -6 -6 -6 -6 -6 -3 14 76 106 35 1 -5 -3 14 83 84 15 -3 -6 -6 -6 -6 -6 -6 -6 -6 -6 -6 -6 -6 -6 -6 -6 -6 -6 -6 -6 -6 -6 -6 -6 -6 -6 -6 -6 -6 -6 -6 -4 10 69 108 36 1 -5 -6 -6 -6 -6 -6 -6 -6 -4 10 69 108 34 0 -5 -6 -6 -3 14 84 
125 46 6 -3 -6 -6 -6 -6 -6 -6 -6 -6 -6 -6 -6 -6 -6 -6 -6 -6 -6 -2 15 76 108 43 5 -4 -6 -6 -6 -6 -6 -6 -6 -6 -6 -6 -6 -6 -5 1 35 106 76 14 -3 -5 -3 13 80 89 18 -2 -6 -6 -6 -6 -6 -6 -6 -6 -6 -6 -6 -6 -6 -6 -6 -6 -6 -6 -6 -6 -6 -6 -6 -6 -6 -6 -6 -6 -6 -6 -2 18 87 87 18 -2 -6 -6 -6 -6 -6 -6 -6 -6 -3 14 81 89 18 -2 -6 -6 -6 -3 14 87 
154 108 41 6 -4 -6 -6 -6 -6 -6 -6 -6 -6 -6 -6 -6 -6 -6 -6 -6 -4 5 43 108 76 15 -2 -6 -6 -6 -6 -6 -6 -6 -6 -6 -6 -6 -6 -6 -2 15 76 106 35 1 -5 -6 -4 10 68 108 34 0 -5 -6 -6 -6 -6 -6 -6 -6 -6 -6 -6 -6 -6 -6 -6 -6 -6 -6 -6 -6 -6 -6 -6 -6 -6 -6 -6 -6 -6 -5 1 36 108 69 10 -4 -6 -6 -6 -6 -6 -6 -6 -6 -2 18 89 81 14 -3 -6 -6 -6 -3 14 89 
120 116 102 40 4 -4 -6 -6 -6 -6 -6 -6 -6 -6 -6 -6 -6 -6 -6 -5 1 32 100 100 32 1 -5 -6 -6 -6 -6 -6 -6 -6 -6 -6 -6 -6 -6 -4 5 43 108 75 14 -3 -6 -6 -5 0 34 108 68 10 -4 -6 -6 -6 -6 -6 -6 -6 -6 -6 -6 -6 -6 -6 -6 -6 -6 -6 -6 -6 -6 -6 -6 -6 -6 -6 -6 -6 -6 -3 14 76 106 34 0 -5 -6 -6 -6 -6 -6 -6 -6 -5 0 34 108 69 10 -4 -6 -6 -6 -3 14 86 
93 60 103 99 32 1 -5 -6 -6 -6 -6 -6 -6 -6 -6 -6 -6 -6 -6 -2 15 76 108 43 5 -4 -6 -6 -6 -6 -6 -6 -6 -6 -6 -6 -6 -6 -5 0 32 100 100 32 0 -5 -6 -6 -6 -2 18 89 80 13 -3 -6 -6 -6 -6 -6 -6 -6 -6 -6 -6 -6 -6 -6 -6 -6 -6 -6 -6 -6 -6 -6 -6 -6 -6 -6 -6 -6 -5 0 34 106 76 14 -3 -6 -6 -6 -6 -6 -6 -6 -6 -4 10 69 108 34 0 -5 -6 -6 -6 -3 14 84 
85 27 46 108 76 15 -2 -5 -6 -6 -6 -6 -6 -6 -6 -6 -6 -6 -4 5 43 108 76 15 -2 -6 -6 -6 -6 -6 -6 -6 -6 -6 -6 -6 -6 -6 -3 14 75 108 43 5 -4 -6 -6 -6 -6 -3 15 84 83 14 -3 -6 -6 -6 -6 -6 -6 -6 -6 -6 -6 -6 -6 -6 -6 -6 -6 -6 -6 -6 -6 -6 -6 -6 -6 -6 -6 -6 -4 10 69 108 36 1 -5 -6 -6 -6 -6 -6 -6 -6 -6 -3 14 81 89 18 -2 -6 -6 -6 -6 -3 14 83 
84 18 18 76 108 44 6 -3 -6 -6 -6 -6 -6 -6 -6 -6 -6 -5 1 32 100 100 32 1 -5 -6 -6 -6 -6 -6 -6 -6 -6 -6 -6 -6 -6 -5 1 35 106 76 15 -2 -6 -6 -6 -6 -6 -3 14 83 83 14 -3 -6 -6 -6 -6 -6 -6 -6 -6 -6 -6 -6 -6 -6 -6 -6 -6 -6 -6 -6 -6 -6 -6 -6 -6 -6 -6 -6 -2 18 87 87 18 -2 -6 -6 -6 -6 -6 -6 -6 -6 -6 -2 18 89 81 14 -3 -6 -6 -6 -6 -3 14 83 
83 15 3 32 99 101 40 6 -4 -6 -6 -6 -6 -6 -6 -6 -6 -2 15 76 108 43 5 -4 -6 -6 -6 -6 -6 -6 -6 -6 -6 -6 -6 -6 -6 -3 14 76 106 35 1 -5 -6 -6 -6 -6 -6 -3 14 83 84 15 -3 -6 -6 -6 -6 -6 -6 -6 -6 -6 -6 -6 -6 -6 -6 -6 -6 -6 -6 -6 -6 -6 -6 -6 -6 -6 -6 -5 1 36 108 69 10 -4 -6 -6 -6 -6 -6 -6 -6 -6 -5 0 34 108 69 10 -4 -6 -6 -6 -6 -3 14 83 
83 14 -1 5 40 101 101 40 6 -4 -6 -6 -6 -6 -6 -6 -4 5 43 108 76 15 -2 -6 -6 -6 -6 -6 -6 -6 -6 -6 -6 -6 -6 -6 -5 1 35 106 76 14 -3 -6 -6 -6 -6 -6 -6 -3 13 80 89 18 -2 -6 -6 -6 -6 -6 -6 -6 -6 -6 -6 -6 -6 -6 -6 -6 -6 -6 -6 -6 -6 -6 -6 -6 -6 -6 -6 -3 14 76 106 34 0 -5 -6 -6 -6 -6 -6 -6 -6 -6 -4 10 69 108 34 0 -5 -6 -6 -6 -6 -3 14 83 
83 14 -3 -3 6 40 101 101 40 6 -4 -6 -6 -6 -6 -5 1 32 100 100 32 1 -5 -6 -6 -6 -6 -6 -6 -6 -6 -6 -6 -6 -6 -6 -2 15 76 106 35 1 -5 -6 -6 -6 -6 -6 -6 -4 10 68 108 34 0 -5 -6 -6 -6 -6 -6 -6 -6 -6 -6 -6 -6 -6 -6 -6 -6 -6 -6 -6 -6 -6 -6 -6 -6 -6 -5 0 34 106 76 14 -3 -6 -6 -6 -6 -6 -6 -6 -6 -6 -3 14 81 89 18 -2 -6 -6 -6 -6 -6 -3 14 83 
83 14 -3 -5 -4 6 40 101 101 40 6 -4 -6 -6 -6 -2 15 76 108 43 5 -4 -6 -6 -6 -6 -6 -6 -6 -6 -6 -6 -6 -6 -6 -4 5 43 108 75 14 -3 -6 -6 -6 -6 -6 -6 -6 -5 0 34 108 68 10 -4 -6 -6 -6 -6 -6 -6 -6 -6 -6 -6 -6 -6 -6 -6 -6 -6 -6 -6 -6 -6 -6 -6 -6 -6 -4 10 69 108 36 1 -5 -6 -6 -6 -6 -6 -6 -6 -6 -6 -2 18 89 81 14 -3 -6 -6 -6 -6 -6 -3 14 83 
83 14 -3 -6 -6 -4 6 40 101 101 40 6 -4 -5 -4 5 43 108 76 15 -2 -6 -6 -6 -6 -6 -6 -6 -6 -6 -6 -6 -6 -6 -5 0 32 100 100 32 0 -5 -6 -6 -6 -6 -6 -6 -6 -6 -2 18 89 80 13 -3 -6 -6 -6 -6 -6 -6 -6 -6 -6 -6 -6 -6 -6 -6 -6 -6 -6 -6 -6 -6 -6 -6 -6 -6 -2 18 87 87 18 -2 -6 -6 -6 -6 -6 -6 -6 -6 -6 -5 0 34 108 69 10 -4 -6 -6 -6 -6 -6 -3 14 83 
83 14 -3 -6 -6 -6 -4 6 40 101 101 40 6 -3 1 32 100 100 32 1 -5 -6 -6 -6 -6 -6 -6 -6 -6 -6 -6 -6 -6 -6 -3 14 75 108 43 5 -4 -6 -6 -6 -6 -6 -6 -6 -6 -6 -3 15 84 83 14 -3 -6 -6 -6 -6 -6 -6 -6 -6 -6 -6 -6 -6 -6 -6 -6 -6 -6 -6 -6 -6 -6 -6 -6 -5 1 36 108 69 10 -4 -6 -6 -6 -6 -6 -6 -6 -6 -6 -4 10 69 108 34 0 -5 -6 -6 -6 -6 -6 -3 14 83 
83 14 -3 -6 -6 -6 -6 -4 6 40 101 101 41 9 17 76 108 43 5 -4 -6 -6 -6 -6 -6 -6 -6 -6 -6 -6 -6 -6 -6 -5 1 35 106 76 15 -2 -6 -6 -6 -6 -6 -6 -6 -6 -6 -6 -3 14 83 84 15 -3 -6 -6 -6 -6 -6 -6 -6 -6 -6 -6 -6 -6 -6 -6 -6 -6 -6 -6 -6 -6 -6 -6 -6 -3 14 76 106 34 0 -5 -6 -6 -6 -6 -6 -6 -6 -6 -6 -3 14 81 89 18 -2 -6 -6 -6 -6 -6 -6 -3 14 83 
83 14 -3 -6 -6 -6 -6 -6 -4 6 40 101 102 51 54 109 76 15 -2 -6 -6 -6 -6 -6 -6 -6 -6 -6 -6 -6 -6 -6 -6 -3 14 76 106 35 1 -5 -6 -6 -6 -6 -6 -6 -6 -6 -6 -6 -3 13 80 89 18 -2 -6 -6 -6 -6 -6 -6 -6 -6 -6 -6 -6 -6 -6 -6 -6 -6 -6 -6 -6 -6 -6 -6 -5 0 34 106 76 14 -3 -6 -6 -6 -6 -6 -6 -6 -6 -6 -6 -2 18 89 81 14 -3 -6 -6 -6 -6 -6 -6 -3 14 83 
83 14 -3 -6 -6 -6 -6 -6 -6 -4 6 41 104 126 126 102 32 1 -5 -6 -6 -6 -6 -6 -6 -6 -6 -6 -6 -6 -6 -6 -5 1 35 106 76 14 -3 -6 -6 -6 -6 -6 -6 -6 -6 -6 -6 -6 -4 10 68 108 34 0 -5 -6 -6 -6 -6 -6 -6 -6 -6 -6 -6 -6 -6 -6 -6 -6 -6 -6 -6 -6 -6 -6 -4 10 69 108 36 1 -5 -6 -6 -6 -6 -6 -6 -6 -6 -6 -5 0 34 108 69 10 -4 -6 -6 -6 -6 -6 -6 -3 14 83 
83 14 -3 -6 -6 -6 -6 -6 -6 -6 -3 6 46 127 127 45 5 -4 -6 -6 -6 -6 -6 -6 -6 -6 -6 -6 -6 -6 -6 -6 -2 15 76 106 35 1 -5 -6 -6 -6 -6 -6 -6 -6 -6 -6 -6 -6 -5 0 34 108 68 10 -4 -6 -6 -6 -6 -6 -6 -6 -6 -6 -6 -6 -6 -6 -6 -6 -6 -6 -6 -6 -6 -6 -2 18 87 87 18 -2 -6 -6 -6 -6 -6 -6 -6 -6 -6 -6 -4 10 69 108 34 0 -5 -6 -6 -6 -6 -6 -6 -3 14 83 
83 14 -3 -6 -6 -6 -6 -6 -6 -6 -5 -2 20 93 94 20 -2 -5 -6 -6 -6 -6 -6 -6 -6 -6 -6 -6 -6 -6 -6 -4 5 43 108 75 14 -3 -6 -6 -6 -6 -6 -6 -6 -6 -6 -6 -6 -6 -6 -2 18 89 80 13 -3 -6 -6 -6 -6 -6 -6 -6 -6 -6 -6 -6 -6 -6 -6 -6 -6 -6 -6 -6 -6 -5 1 36 108 69 10 -4 -6 -6 -6 -6 -6 -6 -6 -6 -6 -6 -3 14 81 89 18 -2 -6 -6 -6 -6 -6 -6 -6 -3 14 83 
83 14 -3 -6 -6 -6 -6 -6 -6 -6 -6 -3 14 82 91 19 -2 -6 -6 -6 -6 -6 -6 -6 -6 -6 -6 -6 -6 -6 -5 0 32 100 100 32 0 -5 -6 -6 -6 -6 -6 -6 -6 -6 -6 -6 -6 -6 -6 -3 15 84 83 14 -3 -6 -6 -6 -6 -6 -6 -6 -6 -6 -6 -6 -6 -6 -6 -6 -6 -6 -6 -6 -6 -3 14 76 106 34 0 -5 -6 -6 -6 -6 -6 -6 -6 -6 -6 -6 -2 18 89 81 14 -3 -6 -6 -6 -6 -6 -6 -6 -3 14 83 
83 14 -3 -6 -6 -6 -6 -6 -6 -6 -6 -4 10 69 108 35 0 -5 -6 -6 -6 -6 -6 -6 -6 -6 -6 -6 -6 -6 -3 14 75 108 43 5 -4 -6 -6 -6 -6 -6 -6 -6 -6 -6 -6 -6 -6 -6 -6 -3 14 83 83 14 -3 -6 -6 -6 -6 -6 -6 -6 -6 -6 -6 -6 -6 -6 -6 -6 -6 -6 -6 -6 -5 0 34 106 76 14 -3 -6 -6 -6 -6 -6 -6 -6 -6 -6 -6 -5 0 34 108 69 10 -4 -6 -6 -6 -6 -6 -6 -6 -3 14 83 
83 14 -3 -6 -6 -6 -6 -6 -6 -6 -6 -5 0 34 108 68 10 -4 -6 -6 -6 -6 -6 -6 -6 -6 -6 -6 -6 -5 1 35 106 76 15 -2 -6 -6 -6 -6 -6 -6 -6 -6 -6 -6 -6 -6 -6 -6 -6 -3 14 83 84 15 -3 -6 -6 -6 -6 -6 -6 -6 -6 -6 -6 -6 -6 -6 -6 -6 -6 -6 -6 -6 -4 10 69 108 36 1 -5 -6 -6 -6 -6 -6 -6 -6 -6 -6 -6 -4 10 69 108 34 0 -5 -6 -6 -6 -6 -6 -6 -6 -3 14 83 
83 14 -3 -6 -6 -6 -6 -6 -6 -6 -6 -6 -2 18 89 81 13 -3 -6 -6 -6 -6 -6 -6 -6 -6 -6 -6 -6 -3 14 76 106 35 1 -5 -6 -6 -6 -6 -6 -6 -6 -6 -6 -6 -6 -6 -6 -6 -6 -3 13 80 89 18 -2 -6 -6 -6 -6 -6 -6 -6 -6 -6 -6 -6 -6 -6 -6 -6 -6 -6 -6 -6 -2 18 87 87 18 -2 -6 -6 -6 -6 -6 -6 -6 -6 -6 -6 -6 -3 14 81 89 18 -2 -6 -6 -6 -6 -6 -6 -6 -6 -3 14 83 
83 14 -3 -6 -6 -6 -6 -6 -6 -6 -6 -6 -3 15 84 84 15 -3 -6 -6 -6 -6 -6 -6 -6 -6 -6 -6 -5 1 35 106 76 14 -3 -6 -6 -6 -6 -6 -6 -6 -6 -6 -6 -6 -6 -6 -6 -6 -6 -4 10 68 108 34 0 -5 -6 -6 -6 -6 -6 -6 -6 -6 -6 -6 -6 -6 -6 -6 -6 -6 -6 -5 1 36 108 69 10 -4 -6 -6 -6 -6 -6 -6 -6 -6 -6 -6 -6 -2 18 89 81 14 -3 -6 -6 -6 -6 -6 -6 -6 -6 -3 15 84 
84 14 -3 -6 -6 -6 -6 -6 -6 -6 -6 -6 -3 13 81 89 18 -2 -6 -6 -6 -6 -6 -6 -6 -6 -6 -6 -2 15 76 106 35 1 -5 -6 -6 -6 -6 -6 -6 -6 -6 -6 -6 -6 -6 -6 -6 -6 -6 -5 0 34 108 68 10 -4 -6 -6 -6 -6 -6 -6 -6 -6 -6 -6 -6 -6 -6 -6 -6 -6 -6 -3 14 76 106 34 0 -5 -6 -6 -6 -6 -6 -6 -6 -6 -6 -6 -5 0 34 108 69 10 -4 -6 -6 -6 -6 -6 -6 -6 -6 -2 19 92 
87 14 -3 -6 -6 -6 -6 -6 -6 -6 -6 -6 -4 10 68 108 34 0 -5 -6 -6 -6 -6 -6 -6 -6 -6 -4 5 43 108 75 14 -3 -6 -6 -6 -6 -6 -6 -6 -6 -6 -6 -6 -6 -6 -6 -6 -6 -6 -6 -2 18 89 80 13 -3 -6 -6 -6 -6 -6 -6 -6 -6 -6 -6 -6 -6 -6 -6 -6 -6 -5 0 34 106 76 14 -3 -6 -6 -6 -6 -6 -6 -6 -6 -6 -6 -6 -4 10 69 108 34 0 -5 -6 -6 -6 -6 -6 -6 -6 -5 1 37 122 
89 14 -3 -6 -6 -6 -6 -6 -6 -6 -6 -6 -5 0 34 108 68 10 -4 -6 -6 -6 -6 -6 -6 -6 -5 0 32 100 100 32 0 -5 -6 -6 -6 -6 -6 -6 -6 -6 -6 -6 -6 -6 -6 -6 -6 -6 -6 -6 -3 15 84 83 14 -3 -6 -6 -6 -6 -6 -6 -6 -6 -6 -6 -6 -6 -6 -6 -6 -6 -4 10 69 108 36 1 -5 -6 -6 -6 -6 -6 -6 -6 -6 -6 -6 -6 -3 14 81 89 18 -2 -6 -6 -6 -6 -6 -6 -6 -6 -2 15 80 155 
87 14 -3 -6 -6 -6 -6 -6 -6 -6 -6 -6 -6 -2 18 89 81 13 -3 -6 -6 -6 -6 -6 -6 -6 -3 14 75 108 43 5 -4 -6 -6 -6 -6 -6 -6 -6 -6 -6 -6 -6 -6 -6 -6 -6 -6 -6 -6 -6 -3 14 83 83 14 -3 -6 -6 -6 -6 -6 -6 -6 -6 -6 -6 -6 -6 -6 -6 -6 -6 -2 18 87 87 18 -2 -6 -6 -6 -6 -6 -6 -6 -6 -6 -6 -6 -6 -2 18 89 81 14 -3 -6 -6 -6 -6 -6 -6 -6 -4 5 43 115 143 
85 14 -3 -6 -6 -6 -6 -6 -6 -6 -6 -6 -6 -3 15 84 84 15 -3 -6 -6 -6 -6 -6 -6 -5 1 35 106 76 15 -2 -6 -6 -6 -6 -6 -6 -6 -6 -6 -6 -6 -6 -6 -6 -6 -6 -6 -6 -6 -6 -3 14 83 84 15 -3 -6 -6 -6 -6 -6 -6 -6 -6 -6 -6 -6 -6 -6 -6 -6 -5 1 36 108 69 10 -4 -6 -6 -6 -6 -6 -6 -6 -6 -6 -6 -6 -5 0 34 108 69 10 -4 -6 -6 -6 -6 -6 -6 -5 1 32 101 115 114 
84 14 -3 -6 -6 -6 -6 -6 -6 -6 -6 -6 -6 -3 13 81 89 18 -2 -6 -6 -6 -6 -6 -6 -3 14 76 106 35 1 -5 -6 -6 -6 -6 -6 -6 -6 -6 -6 -6 -6 -6 -6 -6 -6 -6 -6 -6 -6 -6 -3 13 80 89 18 -2 -6 -6 -6 -6 -6 -6 -6 -6 -6 -6 -6 -6 -6 -6 -6 -3 14 76 106 34 0 -5 -6 -6 -6 -6 -6 -6 -6 -6 -6 -6 -6 -4 10 69 108 34 0 -5 -6 -6 -6 -6 -6 -6 -2 15 76 110 63 93 
83 14 -3 -6 -6 -6 -6 -6 -6 -6 -6 -6 -6 -4 10 68 108 34 0 -5 -6 -6 -6 -6 -5 1 35 106 76 14 -3 -6 -6 -6 -6 -6 -6 -6 -6 -6 -6 -6 -6 -6 -6 -6 -6 -6 -6 -6 -6 -6 -4 10 68 108 34 0 -5 -6 -6 -6 -6 -6 -6 -6 -6 -6 -6 -6 -6 -6 -5 0 34 106 76 14 -3 -6 -6 -6 -6 -6 -6 -6 -6 -6 -6 -6 -6 -3 14 81 89 18 -2 -6 -6 -6 -6 -6 -6 -4 5 43 108 78 36 86 
83 14 -3 -6 -6 -6 -6 -6 -6 -6 -6 -6 -6 -5 0 34 108 68 10 -4 -6 -6 -6 -6 -2 15 76 106 35 1 -5 -6 -6 -6 -6 -6 -6 -6 -6 -6 -6 -6 -6 -6 -6 -6 -6 -6 -6 -6 -6 -6 -5 0 35 108 69 10 -4 -6 -6 -6 -6 -6 -6 -6 -6 -6 -6 -6 -6 -6 -4 10 69 108 36 1 -5 -6 -6 -6 -6 -6 -6 -6 -6 -6 -6 -6 -6 -2 18 89 81 14 -3 -6 -6 -6 -6 -6 -5 1 32 100 100 34 21 84 
83 14 -3 -6 -6 -6 -6 -6 -6 -6 -6 -6 -6 -6 -2 18 89 81 13 -3 -6 -6 -6 -4 5 43 108 75 14 -3 -6 -6 -6 -6 -6 -6 -6 -6 -6 -6 -6 -6 -6 -6 -6 -6 -6 -6 -6 -6 -6 -6 -6 -2 19 91 82 16 0 -3 -3 -4 -5 -6 -6 -6 -6 -6 -6 -6 -6 -6 -2 18 87 87 18 -2 -6 -6 -6 -6 -6 -6 -6 -6 -6 -6 -6 -6 -5 0 34 108 69 10 -4 -6 -6 -6 -6 -6 -2 15 76 108 44 8 16 83 
83 14 -3 -6 -6 -6 -6 -6 -6 -6 -6 -6 -6 -6 -3 15 84 84 15 -3 -6 -6 -5 0 32 100 100 32 0 -5 -6 -6 -6 -6 -6 -6 -6 -6 -6 -6 -6 -6 -6 -6 -6 -6 -6 -6 -6 -6 -6 -6 -5 0 21 95 97 34 17 14 13 10 0 -2 -3 -3 -3 -3 -4 -5 -6 -5 1 36 108 69 10 -4 -6 -6 -6 -6 -6 -6 -6 -6 -6 -6 -6 -6 -4 10 69 108 34 0 -5 -6 -6 -6 -6 -4 5 43 108 76 15 0 15 83 
83 14 -3 -6 -6 -6 -6 -6 -6 -6 -6 -6 -6 -6 -3 13 81 89 18 -2 -6 -6 -3 14 75 108 43 5 -4 -6 -6 -6 -6 -6 -6 -6 -6 -6 -6 -6 -6 -6 -6 -6 -6 -6 -6 -6 -6 -6 -6 -4 1 16 49 127 137 96 85 83 80 68 34 18 15 14 14 13 10 0 -2 0 16 77 106 34 0 -5 -6 -6 -6 -6 -6 -6 -6 -6 -6 -6 -6 -6 -3 14 81 89 18 -2 -6 -6 -6 -6 -5 1 32 100 100 32 1 -2 14 83 
83 14 -3 -6 -6 -6 -6 -6 -6 -6 -6 -6 -6 -6 -4 10 68 108 34 0 -5 -5 1 35 106 76 15 -2 -6 -6 -6 -6 -6 -6 -6 -6 -6 -6 -6 -6 -6 -6 -6 -6 -6 -6 -6 -6 -6 -5 -2 5 32 76 110 117 97 86 84 84 89 108 108 89 84 83 83 80 68 35 19 21 49 111 77 14 -3 -6 -6 -6 -6 -6 -6 -6 -6 -6 -6 -6 -6 -6 -2 18 89 81 14 -3 -6 -6 -6 -6 -2 15 76 108 43 5 -4 -3 14 83 
83 14 -3 -6 -6 -6 -6 -6 -6 -6 -6 -6 -6 -6 -5 0 34 108 68 10 -3 -3 14 76 106 35 1 -5 -6 -6 -6 -6 -6 -6 -6 -6 -6 -6 -6 -6 -6 -6 -6 -6 -6 -6 -6 -6 -4 1 15 43 100 108 77 36 19 15 14 15 18 34 68 80 83 83 84 89 108 108 91 94 127 124 40 2 -5 -6 -6 -6 -6 -6 -6 -6 -6 -6 -6 -6 -6 -5 0 34 108 69 10 -4 -6 -6 -6 -4 5 43 108 76 15 -2 -5 -3 14 83 
83 14 -3 -6 -6 -6 -6 -6 -6 -6 -6 -6 -6 -6 -6 -2 18 89 81 13 -2 1 35 106 76 14 -3 -6 -6 -6 -6 -6 -6 -6 -6 -6 -6 -6 -6 -6 -6 -6 -6 -6 -6 -6 -5 -2 5 32 76 108 100 43 15 1 -2 -3 -3 -3 -2 0 10 13 14 14 15 18 34 69 82 93 127 124 40 2 -5 -6 -6 -6 -6 -6 -6 -6 -6 -6 -6 -6 -6 -4 10 69 108 34 0 -5 -6 -6 -5 1 32 100 100 32 1 -5 -6 -3 14 83 
83 14 -3 -6 -6 -6 -6 -6 -6 -6 -6 -6 -6 -6 -6 -3 15 84 84 15 0 15 76 106 35 1 -5 -6 -6 -6 -6 -6 -6 -6 -6 -6 -6 -6 -6 -6 -6 -6 -6 -6 -6 -4 1 15 43 100 108 76 32 5 -2 -5 -6 -6 -6 -6 -6 -5 -4 -3 -3 -3 -3 -2 0 10 14 20 49 111 77 15 -2 -5 -6 -6 -6 -6 -6 -6 -6 -6 -6 -6 -6 -3 14 81 89 18 -2 -6 -6 -6 -2 15 76 108 43 5 -4 -6 -6 -3 14 83 
83 14 -3 -6 -6 -6 -6 -6 -6 -6 -6 -6 -6 -6 -6 -3 13 81 90 20 8 44 108 75 14 -3 -6 -6 -6 -6 -6 -6 -6 -6 -6 -6 -6 -6 -6 -6 -6 -6 -6 -6 -4 4 32 76 108 100 43 15 1 -4 -6 -6 -6 -6 -6 -6 -6 -6 -6 -6 -6 -6 -6 -6 -5 -4 -3 0 16 76 108 44 7 -2 -5 -6 -6 -6 -6 -6 -6 -6 -6 -6 -5 -2 18 89 81 14 -3 -6 -6 -4 5 43 108 76 15 -2 -6 -6 -6 -3 14 83 
83 14 -3 -6 -6 -6 -6 -6 -6 -6 -6 -6 -6 -6 -6 -4 10 68 108 41 39 100 100 32 0 -5 -6 -6 -6 -6 -6 -6 -6 -6 -6 -6 -6 -6 -6 -6 -6 -6 -5 -2 6 40 99 108 76 32 5 -2 -5 -6 -6 -6 -6 -6 -6 -6 -6 -6 -6 -6 -6 -6 -6 -6 -6 -6 -6 -5 1 32 100 103 45 15 1 -2 -3 -3 -3 -3 -3 -3 -3 -3 -2 3 37 109 69 10 -4 -6 -5 1 32 100 100 32 1 -5 -6 -6 -6 -3 14 83 
83 14 -3 -6 -6 -6 -6 -6 -6 -6 -6 -6 -6 -6 -6 -5 0 34 109 86 89 109 43 5 -4 -6 -6 -6 -6 -6 -6 -6 -6 -6 -6 -6 -6 -6 -6 -6 -6 -4 1 15 44 101 101 44 15 1 -4 -6 -6 -6 -6 -6 -6 -6 -6 -6 -6 -6 -6 -6 -6 -6 -6 -6 -6 -6 -6 -6 -4 5 45 118 124 79 36 18 15 14 14 14 14 14 14 14 16 29 83 117 41 3 -4 -5 -2 15 76 108 43 5 -4 -6 -6 -6 -6 -3 14 83 
83 14 -3 -6 -6 -6 -6 -6 -6 -6 -6 -6 -6 -6 -6 -6 -2 18 91 114 120 77 15 -2 -6 -6 -6 -6 -6 -6 -6 -6 -6 -6 -6 -6 -6 -6 -6 -5 -2 5 32 76 108 99 40 6 -2 -5 -6 -6 -6 -6 -6 -6 -6 -6 -6 -6 -6 -6 -6 -6 -6 -6 -6 -6 -6 -6 -6 -6 -5 -2 20 98 142 120 109 89 84 83 83 83 83 83 83 83 85 96 135 132 53 17 1 -1 6 43 108 76 15 -2 -6 -6 -6 -6 -6 -3 14 83 
83 14 -3 -6 -6 -6 -6 -6 -6 -6 -6 -6 -6 -6 -6 -6 -3 15 88 143 114 35 1 -5 -6 -6 -6 -6 -6 -6 -6 -6 -6 -6 -6 -6 -6 -6 -4 1 15 43 100 108 76 32 4 -4 -6 -6 -6 -6 -6 -6 -6 -6 -6 -6 -6 -6 -6 -6 -6 -6 -6 -6 -6 -6 -6 -6 -6 -6 -6 -2 19 92 97 53 71 81 83 83 83 83 83 83 83 83 83 86 97 118 110 77 36 21 37 101 100 32 1 -5 -6 -6 -6 -6 -6 -3 14 83 
83 14 -3 -6 -6 -6 -6 -6 -6 -6 -6 -6 -6 -6 -6 -6 -3 14 89 155 79 14 -3 -6 -6 -6 -6 -6 -6 -6 -6 -6 -6 -6 -6 -6 -5 -2 5 32 76 108 100 43 15 1 -4 -6 -6 -6 -6 -6 -6 -6 -6 -6 -6 -6 -6 -6 -6 -6 -6 -6 -6 -6 -6 -6 -6 -6 -6 -6 -5 0 35 108 71 17 12 13 14 14 14 14 14 14 14 14 14 15 19 36 76 107 108 89 100 114 45 5 -4 -6 -6 -6 -6 -6 -6 -3 14 83 
83 14 -3 -6 -6 -6 -6 -6 -6 -6 -6 -6 -6 -6 -6 -6 -3 14 87 122 36 1 -5 -6 -6 -6 -6 -6 -6 -6 -6 -6 -6 -6 -6 -4 1 15 43 100 108 76 32 5 -2 -5 -6 -6 -6 -6 -6 -6 -6 -6 -6 -6 -6 -6 -6 -6 -6 -6 -6 -6 -6 -6 -6 -6 -6 -6 -6 -6 -4 10 68 108 35 1 -3 -3 -3 -3 -3 -3 -3 -3 -3 -3 -3 -3 -2 1 14 35 77 115 152 105 25 0 -5 -6 -6 -6 -6 -6 -6 -3 14 83 
83 14 -3 -6 -6 -6 -6 -6 -6 -6 -6 -6 -6 -6 -6 -6 -3 14 84 92 18 -2 -6 -6 -6 -6 -6 -6 -6 -6 -6 -6 -5 -4 -2 5 32 79 114 105 47 18 3 -2 -5 -6 -6 -6 -6 -6 -6 -6 -6 -6 -6 -6 -6 -6 -6 -6 -6 -6 -6 -6 -6 -6 -6 -6 -6 -6 -6 -6 -3 13 80 89 18 -2 -5 -6 -6 -6 -6 -6 -6 -6 -6 -6 -6 -6 -6 -5 -3 1 15 45 113 118 45 5 -4 -6 -6 -6 -6 -6 -6 -3 14 83 
83 14 -3 -6 -6 -6 -6 -6 -6 -6 -6 -6 -6 -6 -6 -6 -3 15 84 84 15 -3 -6 -6 -6 -6 -6 -6 -6 -6 -5 -3 0 10 19 45 111 153 134 71 30 18 14 10 0 -2 -3 -4 -5 -6 -6 -6 -6 -6 -6 -6 -6 -6 -6 -6 -6 -6 -6 -6 -6 -6 -6 -6 -6 -6 -6 -6 -3 14 83 84 15 -3 -6 -6 -6 -6 -6 -6 -6 -6 -6 -6 -6 -6 -6 -6 -6 -5 -2 6 41 103 100 32 1 -5 -6 -6 -6 -6 -6 -3 14 83 
83 14 -3 -6 -6 -6 -6 -6 -6 -6 -6 -6 -6 -6 -6 -6 -2 18 89 81 13 -3 -6 -6 -6 -6 -6 -6 -5 -3 1 14 34 69 87 111 116 104 116 113 91 84 81 68 34 18 14 10 0 -2 -3 -3 -4 -5 -6 -6 -6 -6 -6 -6 -6 -6 -6 -6 -6 -6 -6 -6 -6 -6 -6 -6 -3 15 84 83 14 -3 -6 -6 -6 -6 -6 -6 -6 -6 -6 -6 -6 -6 -6 -6 -6 -6 -5 -3 6 44 108 76 15 -2 -6 -6 -6 -6 -6 -3 14 83 
83 14 -3 -6 -6 -6 -6 -6 -6 -6 -6 -6 -6 -6 -6 -5 0 34 108 68 10 -4 -6 -6 -6 -5 -4 -2 1 14 35 76 106 108 87 70 35 23 35 69 81 84 89 108 108 89 81 69 34 18 15 13 10 0 -2 -3 -4 -5 -6 -6 -6 -6 -6 -6 -6 -6 -6 -6 -6 -6 -6 -6 -2 18 89 80 13 -3 -6 -6 -6 -6 -6 -6 -6 -6 -6 -6 -6 -6 -6 -6 -6 -6 -6 -5 -2 15 76 108 43 5 -4 -6 -6 -6 -6 -3 14 83 
83 14 -3 -6 -6 -6 -6 -6 -6 -6 -6 -6 -6 -6 -6 -4 10 68 108 34 0 -5 -6 -5 -3 0 10 18 36 76 106 106 76 36 18 10 1 -1 1 10 13 15 18 34 69 81 89 108 108 89 84 81 68 34 18 14 10 0 -2 -3 -3 -4 -5 -6 -6 -6 -6 -6 -6 -6 -6 -5 0 34 108 68 10 -4 -6 -6 -6 -6 -6 -6 -6 -6 -6 -6 -6 -6 -6 -6 -6 -6 -6 -6 -5 1 32 100 100 32 1 -5 -6 -6 -6 -3 14 83 
83 14 -3 -6 -6 -6 -6 -6 -6 -6 -6 -6 -6 -6 -6 -3 13 81 89 18 -2 -5 -3 1 14 34 69 87 108 106 76 35 14 1 -2 -4 -5 -5 -5 -4 -3 -3 -2 0 10 14 18 34 68 81 84 89 108 108 89 81 69 34 18 15 13 10 0 -2 -3 -4 -5 -6 -6 -6 -6 -4 10 68 108 34 0 -5 -6 -6 -6 -6 -6 -6 -6 -6 -6 -6 -6 -6 -6 -6 -6 -6 -6 -6 -6 -4 5 43 108 76 15 -2 -6 -6 -6 -3 14 83 
83 14 -3 -6 -6 -6 -6 -6 -6 -6 -6 -6 -6 -6 -6 -3 15 84 84 16 0 1 14 35 76 106 108 87 69 34 14 1 -3 -5 -6 -6 -6 -6 -6 -6 -6 -6 -6 -5 -4 -3 -2 0 10 13 15 18 34 69 81 89 108 108 89 84 81 68 34 18 14 10 0 -2 -3 -3 -4 -2 14 81 89 18 -2 -6 -6 -6 -6 -6 -6 -6 -6 -6 -6 -6 -6 -6 -6 -6 -6 -6 -6 -6 -6 -6 -2 15 76 108 44 6 -4 -6 -6 -3 14 83 
83 14 -3 -6 -6 -6 -6 -6 -6 -6 -6 -6 -6 -6 -6 -2 18 90 84 21 17 35 76 106 106 76 36 18 10 0 -3 -5 -6 -6 -6 -6 -6 -6 -6 -6 -6 -6 -6 -6 -6 -6 -6 -5 -4 -3 -3 -2 0 10 14 18 34 68 81 84 89 108 108 89 81 69 34 18 15 13 10 3 18 85 84 15 -3 -6 -6 -6 -6 -6 -6 -6 -6 -6 -6 -6 -6 -6 -6 -6 -6 -6 -6 -6 -6 -6 -5 1 32 99 101 40 4 -4 -6 -3 14 83 
83 14 -3 -6 -6 -6 -6 -6 -6 -6 -6 -6 -6 -6 -5 1 36 114 89 51 78 107 106 76 35 14 1 -2 -4 -5 -6 -6 -6 -6 -6 -6 -6 -6 -6 -6 -6 -6 -6 -6 -6 -6 -6 -6 -6 -6 -6 -6 -5 -4 -3 -2 0 10 13 15 18 34 69 81 89 108 108 89 84 81 69 37 38 97 84 14 -3 -6 -6 -6 -6 -6 -6 -6 -6 -6 -6 -6 -6 -6 -6 -6 -6 -6 -6 -6 -6 -6 -6 -4 4 40 101 99 32 1 -5 -3 14 83 
83 14 -3 -6 -6 -6 -6 -6 -6 -6 -6 -6 -6 -6 -3 14 81 150 118 113 107 76 35 14 1 -3 -5 -6 -6 -6 -6 -6 -6 -6 -6 -6 -6 -6 -6 -6 -6 -6 -6 -6 -6 -6 -6 -6 -6 -6 -6 -6 -6 -6 -6 -6 -5 -4 -3 -3 -2 0 10 14 18 34 68 81 84 89 108 109 103 138 88 14 -3 -6 -6 -6 -6 -6 -6 -6 -6 -6 -6 -6 -6 -6 -6 -6 -6 -6 -6 -6 -6 -6 -6 -6 -4 6 44 108 76 15 -2 -3 14 83 
83 14 -3 -6 -6 -6 -6 -6 -6 -6 -6 -6 -6 -5 1 35 114 126 92 70 34 14 1 -3 -5 -6 -6 -6 -6 -6 -6 -6 -6 -6 -6 -6 -6 -6 -6 -6 -6 -6 -6 -6 -6 -6 -6 -6 -6 -6 -6 -6 -6 -6 -6 -6 -6 -6 -6 -6 -6 -5 -4 -3 -2 0 10 13 15 18 35 71 95 137 88 14 -3 -6 -6 -6 -6 -6 -6 -6 -6 -6 -6 -6 -6 -6 -6 -6 -6 -6 -6 -6 -6 -6 -6 -6 -6 -2 15 76 108 44 6 -1 14 83 
83 14 -3 -6 -6 -6 -6 -6 -6 -6 -6 -6 -6 -2 15 76 110 49 20 10 0 -3 -5 -6 -6 -6 -6 -6 -6 -6 -6 -6 -6 -6 -6 -6 -6 -6 -6 -6 -6 -6 -6 -6 -6 -6 -6 -6 -6 -6 -6 -6 -6 -6 -6 -6 -6 -6 -6 -6 -6 -6 -6 -6 -6 -5 -4 -3 -3 -2 1 12 33 96 84 14 -3 -6 -6 -6 -6 -6 -6 -6 -6 -6 -6 -6 -6 -6 -6 -6 -6 -6 -6 -6 -6 -6 -6 -6 -6 -5 1 32 99 101 40 7 16 83 
83 14 -3 -6 -6 -6 -6 -6 -6 -6 -6 -6 -4 5 43 108 76 16 0 -3 -5 -6 -6 -6 -6 -6 -6 -6 -6 -6 -6 -6 -6 -6 -6 -6 -6 -6 -6 -6 -6 -6 -6 -6 -6 -6 -6 -6 -6 -6 -6 -6 -6 -6 -6 -6 -6 -6 -6 -6 -6 -6 -6 -6 -6 -6 -6 -6 -6 -6 -5 -1 17 85 83 14 -3 -6 -6 -6 -6 -6 -6 -6 -6 -6 -6 -6 -6 -6 -6 -6 -6 -6 -6 -6 -6 -6 -6 -6 -6 -6 -4 4 40 101 100 34 21 84 
83 14 -3 -6 -6 -6 -6 -6 -6 -6 -6 -5 1 32 100 100 32 1 -5 -6 -6 -6 -6 -6 -6 -6 -6 -6 -6 -6 -6 -6 -6 -6 -6 -6 -6 -6 -6 -6 -6 -6 -6 -6 -6 -6 -6 -6 -6 -6 -6 -6 -6 -6 -6 -6 -6 -6 -6 -6 -6 -6 -6 -6 -6 -6 -6 -6 -6 -6 -6 -3 14 83 83 14 -3 -6 -6 -6 -6 -6 -6 -6 -6 -6 -6 -6 -6 -6 -6 -6 -6 -6 -6 -6 -6 -6 -6 -6 -6 -6 -6 -4 6 44 108 78 36 86 
84 14 -3 -6 -6 -6 -6 -6 -6 -6 -5 -2 15 76 108 43 5 -4 -6 -6 -6 -6 -6 -6 -6 -6 -6 -6 -6 -6 -6 -6 -6 -6 -6 -6 -6 -6 -6 -6 -6 -6 -6 -6 -6 -6 -6 -6 -6 -6 -6 -6 -6 -6 -6 -6 -6 -6 -6 -6 -6 -6 -6 -6 -6 -6 -6 -6 -6 -6 -6 -3 14 83 84 15 -3 -6 -6 -6 -6 -6 -6 -6 -6 -6 -6 -6 -6 -6 -6 -6 -6 -6 -6 -6 -6 -6 -6 -6 -6 -6 -6 -6 -2 15 76 110 63 93 
85 14 -3 -6 -6 -6 -6 -6 -6 -6 -3 6 44 108 76 15 -2 -5 -6 -6 -6 -6 -6 -6 -6 -6 -6 -6 -6 -6 -6 -6 -6 -6 -6 -6 -6 -6 -6 -6 -6 -6 -6 -6 -6 -6 -6 -6 -6 -6 -6 -6 -6 -6 -6 -6 -6 -6 -6 -6 -6 -6 -6 -6 -6 -6 -6 -6 -6 -6 -6 -3 14 82 90 20 -1 -5 -6 -6 -6 -6 -6 -6 -6 -6 -6 -6 -6 -6 -6 -6 -6 -6 -6 -6 -6 -6 -6 -6 -6 -6 -6 -6 -5 1 32 101 115 114 
87 14 -3 -6 -6 -6 -6 -6 -6 -4 6 41 102 101 34 3 -3 -5 -6 -6 -6 -6 -6 -6 -6 -6 -6 -6 -6 -6 -6 -6 -6 -6 -6 -6 -6 -6 -6 -6 -6 -6 -6 -6 -6 -6 -6 -6 -6 -6 -6 -6 -6 -6 -6 -6 -6 -6 -6 -6 -6 -6 -6 -6 -6 -6 -6 -6 -6 -6 -5 -1 17 82 116 46 7 -2 -5 -6 -6 -6 -6 -6 -6 -6 -6 -6 -6 -6 -6 -6 -6 -6 -6 -6 -6 -6 -6 -6 -6 -6 -6 -6 -6 -4 5 43 115 143 
89 14 -3 -6 -6 -6 -6 -6 -4 6 41 107 116 59 25 15 10 0 -2 -3 -3 -3 -3 -3 -3 -3 -3 -3 -4 -5 -6 -6 -6 -6 -6 -6 -6 -6 -6 -6 -6 -6 -6 -6 -6 -6 -6 -6 -6 -6 -6 -6 -6 -6 -6 -6 -6 -6 -6 -6 -6 -6 -6 -6 -6 -6 -6 -6 -6 -4 0 14 40 100 152 114 45 15 1 -3 -5 -6 -6 -6 -6 -6 -6 -6 -6 -6 -6 -6 -6 -6 -6 -6 -6 -6 -6 -6 -6 -6 -6 -6 -6 -6 -2 15 80 155 
87 14 -3 -6 -6 -6 -6 -4 6 41 113 153 120 93 85 81 68 34 18 15 14 14 14 14 14 14 14 13 10 0 -2 -3 -3 -3 -3 -3 -3 -3 -3 -4 -5 -6 -6 -6 -6 -6 -6 -6 -6 -6 -6 -6 -6 -6 -6 -6 -6 -6 -6 -6 -6 -6 -6 -6 -6 -6 -6 -5 -2 5 32 76 107 113 104 117 109 76 35 14 0 -4 -6 -6 -6 -6 -6 -6 -6 -6 -6 -6 -6 -6 -6 -6 -6 -6 -6 -6 -6 -6 -6 -6 -6 -6 -5 1 37 122 
84 14 -3 -6 -6 -6 -4 6 40 102 117 98 87 84 84 89 108 108 89 84 83 83 83 83 83 83 83 80 68 34 18 15 14 14 14 14 14 14 13 10 0 -2 -3 -3 -3 -3 -3 -3 -3 -3 -3 -4 -5 -6 -6 -6 -6 -6 -6 -6 -6 -6 -6 -6 -6 -5 -3 1 15 43 100 108 76 37 23 37 76 107 106 75 32 5 -2 -5 -6 -6 -6 -6 -6 -6 -6 -6 -6 -6 -6 -6 -6 -6 -6 -6 -6 -6 -6 -6 -6 -6 -6 -2 19 92 
83 14 -3 -6 -5 -3 6 40 101 102 45 20 15 14 15 18 34 68 80 83 83 83 83 83 83 83 84 89 108 108 89 84 83 83 83 83 83 83 80 68 34 18 15 14 14 14 14 14 14 14 13 10 0 -2 -3 -3 -3 -3 -3 -3 -3 -3 -4 -5 -4 0 14 35 76 108 100 43 15 1 -1 1 14 35 76 108 100 43 15 1 -3 -5 -6 -6 -6 -6 -6 -6 -6 -6 -6 -6 -6 -6 -6 -6 -6 -6 -6 -6 -6 -6 -6 -3 15 84 
83 14 -3 -5 -2 6 40 101 101 41 6 -2 -3 -3 -3 -2 0 10 13 14 14 14 14 14 14 14 15 18 34 68 80 83 83 83 83 83 83 84 89 108 108 89 84 83 83 83 83 83 83 83 80 68 34 18 15 14 14 14 14 14 14 13 10 2 6 32 75 106 106 75 32 5 -2 -5 -5 -5 -3 1 15 43 100 108 76 35 14 0 -4 -6 -6 -6 -6 -6 -6 -6 -6 -6 -6 -6 -6 -6 -6 -6 -6 -6 -6 -6 -6 -3 14 83 
83 14 -1 1 15 44 101 101 40 6 -3 -5 -6 -6 -6 -6 -5 -4 -3 -3 -3 -3 -3 -3 -3 -3 -3 -2 0 10 13 14 14 14 14 14 14 15 18 34 68 80 83 83 83 83 83 83 83 84 89 108 108 89 84 83 83 83 83 83 83 80 69 40 49 101 108 76 35 14 0 -4 -6 -6 -6 -6 -6 -5 -2 5 32 75 106 106 75 32 5 -2 -5 -6 -6 -6 -6 -6 -6 -6 -6 -6 -6 -6 -6 -6 -6 -6 -6 -6 -6 -3 14 83 
83 16 7 32 76 108 99 40 6 -4 -6 -6 -6 -6 -6 -6 -6 -6 -6 -6 -6 -6 -6 -6 -6 -6 -6 -6 -5 -4 -3 -3 -3 -3 -3 -3 -3 -3 -2 0 10 13 14 14 14 14 14 14 14 15 18 34 68 80 83 83 83 83 83 83 84 90 112 124 125 104 44 15 1 -3 -5 -6 -6 -6 -6 -6 -6 -6 -6 -4 0 14 35 76 108 100 43 15 1 -3 -5 -6 -6 -6 -6 -6 -6 -6 -6 -6 -6 -6 -6 -6 -6 -6 -6 -3 14 83 
85 26 43 100 108 76 32 4 -4 -6 -6 -6 -6 -6 -6 -6 -6 -6 -6 -6 -6 -6 -6 -6 -6 -6 -6 -6 -6 -6 -6 -6 -6 -6 -6 -6 -6 -6 -6 -5 -4 -3 -3 -3 -3 -3 -3 -3 -3 -3 -2 0 10 13 14 14 14 14 14 14 15 20 50 127 127 46 7 -2 -5 -6 -6 -6 -6 -6 -6 -6 -6 -6 -6 -6 -5 -3 1 15 43 100 108 76 35 14 0 -4 -6 -6 -6 -6 -6 -6 -6 -6 -6 -6 -6 -6 -6 -6 -6 -3 14 83 
93 60 103 101 44 15 1 -4 -6 -6 -6 -6 -6 -6 -6 -6 -6 -6 -6 -6 -6 -6 -6 -6 -6 -6 -6 -6 -6 -6 -6 -6 -6 -6 -6 -6 -6 -6 -6 -6 -6 -6 -6 -6 -6 -6 -6 -6 -6 -6 -6 -5 -4 -3 -3 -3 -3 -3 -3 -3 -3 0 21 94 93 20 -1 -5 -6 -6 -6 -6 -6 -6 -6 -6 -6 -6 -6 -6 -6 -6 -5 -2 5 32 75 106 106 75 32 5 -2 -5 -6 -6 -6 -6 -6 -6 -6 -6 -6 -6 -6 -6 -6 -3 14 84 
120 116 102 41 6 -2 -5 -6 -6 -6 -6 -6 -6 -6 -6 -6 -6 -6 -6 -6 -6 -6 -6 -6 -6 -6 -6 -6 -6 -6 -6 -6 -6 -6 -6 -6 -6 -6 -6 -6 -6 -6 -6 -6 -6 -6 -6 -6 -6 -6 -6 -6 -6 -6 -6 -6 -6 -6 -6 -6 -5 -3 15 85 85 15 -3 -6 -6 -6 -6 -6 -6 -6 -6 -6 -6 -6 -6 -6 -6 -6 -6 -6 -4 0 14 35 76 108 100 43 15 1 -3 -5 -6 -6 -6 -6 -6 -6 -6 -6 -6 -6 -6 -3 14 86 
154 108 41 6 -3 -5 -6 -6 -6 -6 -6 -6 -6 -6 -6 -6 -6 -6 -6 -6 -6 -6 -6 -6 -6 -6 -6 -6 -6 -6 -6 -6 -6 -6 -6 -6 -6 -6 -6 -6 -6 -6 -6 -6 -6 -6 -6 -6 -6 -6 -6 -6 -6 -6 -6 -6 -6 -6 -6 -6 -6 -3 14 83 83 14 -3 -6 -6 -6 -6 -6 -6 -6 -6 -6 -6 -6 -6 -6 -6 -6 -6 -6 -6 -5 -3 1 15 43 100 108 76 35 14 1 -3 -5 -6 -6 -6 -6 -6 -6 -6 -6 -6 -3 14 89 
125 46 6 -3 -6 -6 -6 -6 -6 -6 -6 -6 -6 -6 -6 -6 -6 -6 -6 -6 -6 -6 -6 -6 -6 -6 -6 -6 -6 -6 -6 -6 -6 -6 -6 -6 -6 -6 -6 -6 -6 -6 -6 -6 -6 -6 -6 -6 -6 -6 -6 -6 -6 -6 -6 -6 -6 -6 -6 -6 -6 -3 14 83 83 14 -3 -6 -6 -6 -6 -6 -6 -6 -6 -6 -6 -6 -6 -6 -6 -6 -6 -6 -6 -6 -6 -5 -2 5 32 75 106 106 76 35 14 0 -4 -6 -6 -6 -6 -6 -6 -6 -6 -3 14 87 
92 20 -2 -5 -6 -6 -6 -6 -6 -6 -6 -6 -6 -6 -6 -6 -6 -6 -6 -6 -6 -6 -6 -6 -6 -6 -6 -6 -6 -6 -6 -6 -6 -6 -6 -6 -6 -6 -6 -6 -6 -6 -6 -6 -6 -6 -6 -6 -6 -6 -6 -6 -6 -6 -6 -6 -6 -6 -6 -6 -6 -3 14 83 83 14 -3 -6 -6 -6 -6 -6 -6 -6 -6 -6 -6 -6 -6 -6 -6 -6 -6 -6 -6 -6 -6 -6 -6 -4 0 14 35 76 106 106 75 32 5 -2 -5 -6 -6 -6 -6 -6 -6 -3 14 84 
84 15 -3 -6 -6 -6 -6 -6 -6 -6 -6 -6 -6 -6 -6 -6 -6 -6 -6 -6 -6 -6 -6 -6 -6 -6 -6 -6 -6 -6 -6 -6 -6 -6 -6 -6 -6 -6 -6 -6 -6 -6 -6 -6 -6 -6 -6 -6 -6 -6 -6 -6 -6 -6 -6 -6 -6 -6 -6 -6 -6 -3 14 83 83 14 -3 -6 -6 -6 -6 -6 -6 -6 -6 -6 -6 -6 -6 -6 -6 -6 -6 -6 -6 -6 -6 -6 -6 -6 -5 -3 1 14 35 76 108 100 43 15 1 -2 -3 -4 -5 -6 -5 -3 14 83 
83 14 -3 -6 -6 -6 -6 -6 -6 -6 -6 -6 -6 -6 -6 -6 -6 -6 -6 -6 -6 -6 -6 -6 -6 -6 -6 -6 -6 -6 -6 -6 -6 -6 -6 -6 -6 -6 -6 -6 -6 -6 -6 -6 -6 -6 -6 -6 -6 -6 -6 -6 -6 -6 -6 -6 -6 -6 -6 -6 -6 -3 14 83 83 14 -3 -6 -6 -6 -6 -6 -6 -6 -6 -6 -6 -6 -6 -6 -6 -6 -6 -6 -6 -6 -6 -6 -6 -6 -6 -6 -5 -3 1 16 44 102 110 79 37 18 14 10 0 -2 -3 -1 15 83 
83 14 -3 -6 -6 -6 -6 -6 -6 -6 -6 -6 -6 -6 -6 -6 -6 -6 -6 -6 -6 -6 -6 -6 -6 -6 -6 -6 -6 -6 -6 -6 -6 -6 -6 -6 -6 -6 -6 -6 -6 -6 -6 -6 -6 -6 -6 -6 -6 -6 -6 -6 -6 -6 -6 -6 -6 -6 -6 -6 -6 -3 14 83 83 14 -3 -6 -6 -6 -6 -6 -6 -6 -6 -6 -6 -6 -6 -6 -6 -6 -6 -6 -6 -6 -6 -6 -6 -6 -6 -6 -6 -5 -3 0 13 51 109 150 123 92 82 69 34 18 14 12 21 86 
85 14 -3 -5 -6 -6 -6 -6 -6 -6 -6 -6 -6 -6 -6 -6 -6 -6 -6 -6 -6 -6 -6 -6 -6 -6 -6 -6 -6 -6 -6 -6 -6 -6 -6 -6 -6 -6 -6 -6 -6 -6 -6 -6 -6 -6 -6 -6 -6 -6 -6 -6 -6 -6 -6 -6 -6 -6 -6 -6 -6 -3 14 83 83 14 -3 -6 -6 -6 -6 -6 -6 -6 -6 -6 -6 -6 -6 -6 -6 -6 -6 -6 -6 -6 -6 -6 -6 -6 -6 -5 -3 0 10 18 37 82 120 121 96 86 90 108 108 89 82 71 53 100 
90 17 0 -3 -3 -3 -3 -3 -4 -5 -6 -6 -6 -6 -6 -6 -6 -6 -6 -6 -6 -6 -6 -6 -6 -6 -6 -6 -6 -6 -6 -6 -6 -6 -6 -6 -6 -6 -6 -6 -6 -6 -6 -6 -6 -6 -6 -6 -6 -6 -6 -6 -6 -6 -6 -6 -6 -6 -6 -6 -6 -3 14 83 83 14 -3 -6 -6 -6 -6 -6 -6 -6 -6 -6 -6 -6 -6 -6 -6 -6 -6 -6 -6 -6 -6 -6 -5 -4 -2 1 14 34 69 87 108 107 77 36 19 15 18 34 69 81 89 109 120 142 
101 34 17 14 14 14 14 13 10 0 -2 -3 -3 -3 -3 -3 -4 -5 -6 -6 -6 -6 -6 -6 -6 -6 -6 -6 -6 -6 -6 -6 -6 -6 -6 -6 -6 -6 -6 -6 -6 -6 -6 -6 -6 -6 -6 -6 -6 -6 -6 -6 -6 -6 -6 -6 -6 -6 -6 -6 -6 -3 14 83 83 14 -3 -6 -6 -6 -6 -6 -6 -6 -6 -6 -6 -6 -6 -6 -6 -6 -6 -6 -6 -6 -5 -3 0 10 18 36 76 106 108 87 69 34 14 1 -2 -3 -2 0 10 14 18 37 83 136 
138 97 85 83 83 83 83 80 68 34 18 15 14 14 14 13 10 0 -2 -3 -3 -3 -3 -3 -3 -4 -5 -6 -6 -6 -6 -6 -6 -6 -6 -6 -6 -6 -6 -6 -6 -6 -6 -6 -6 -6 -6 -6 -6 -6 -6 -6 -6 -6 -6 -6 -6 -6 -6 -6 -6 -3 14 83 83 14 -3 -6 -6 -6 -6 -6 -6 -6 -6 -6 -6 -6 -6 -6 -6 -6 -6 -5 -4 -2 1 14 34 69 87 108 106 76 36 18 10 0 -3 -5 -6 -6 -6 -5 -4 -3 -2 3 29 101 
137 97 85 83 83 83 84 89 108 108 89 84 83 83 83 80 68 34 18 15 14 14 14 14 13 10 0 -2 -3 -3 -3 -3 -3 -4 -5 -6 -6 -6 -6 -6 -6 -6 -6 -6 -6 -6 -6 -6 -6 -6 -6 -6 -6 -6 -6 -6 -6 -6 -6 -6 -6 -3 14 83 83 14 -3 -6 -6 -6 -6 -6 -6 -6 -6 -6 -6 -6 -6 -6 -6 -5 -3 0 10 18 36 76 106 108 87 69 34 14 1 -2 -4 -5 -6 -6 -6 -6 -6 -6 -6 -6 -5 -2 16 90 
96 34 17 14 14 14 15 18 34 68 80 83 83 83 84 89 108 108 89 84 83 83 83 83 80 68 34 18 15 14 14 14 13 10 0 -2 -3 -3 -3 -3 -3 -3 -4 -5 -6 -6 -6 -6 -6 -6 -6 -6 -6 -6 -6 -6 -6 -6 -6 -6 -6 -3 14 83 83 14 -3 -6 -6 -6 -6 -6 -6 -6 -6 -6 -6 -6 -6 -5 -3 1 14 34 69 87 108 106 76 36 18 10 0 -3 -5 -6 -6 -6 -6 -6 -6 -6 -6 -6 -6 -6 -6 -3 14 85 
85 17 0 -3 -3 -3 -3 -2 0 10 13 14 14 14 15 18 34 68 80 83 83 83 83 84 89 108 108 89 84 83 83 83 80 68 34 18 15 14 14 14 14 13 10 0 -2 -3 -3 -3 -3 -3 -4 -5 -6 -6 -6 -6 -6 -6 -6 -6 -6 -3 14 83 83 14 -3 -6 -6 -6 -6 -6 -6 -6 -6 -6 -5 -4 -2 1 14 35 76 106 108 87 69 34 14 1 -2 -4 -5 -6 -6 -6 -6 -6 -6 -6 -6 -6 -6 -6 -6 -6 -6 -3 14 83 
83 14 -3 -5 -6 -6 -6 -6 -5 -4 -3 -3 -3 -3 -3 -2 0 10 13 14 14 14 14 15 18 34 68 80 83 83 83 84 89 108 108 89 84 83 83 83 83 80 68 34 18 15 14 14 14 13 10 0 -2 -3 -3 -3 -3 -3 -3 -4 -5 -3 14 83 83 14 -3 -6 -6 -6 -6 -6 -6 -6 -5 -3 0 10 18 36 76 106 106 76 36 18 10 0 -3 -5 -6 -6 -6 -6 -6 -6 -6 -6 -6 -6 -6 -6 -6 -6 -6 -6 -6 -3 14 83 
83 14 -3 -6 -6 -6 -6 -6 -6 -6 -6 -6 -6 -6 -6 -6 -5 -4 -3 -3 -3 -3 -3 -3 -2 0 10 13 14 14 14 15 18 34 68 80 83 83 83 83 84 89 108 108 89 84 83 83 83 80 68 34 18 15 14 14 14 14 13 10 1 0 17 85 85 15 -3 -6 -6 -6 -6 -5 -4 -2 1 14 34 69 87 108 106 76 35 14 1 -2 -4 -5 -6 -6 -6 -6 -6 -6 -6 -6 -6 -6 -6 -6 -6 -6 -6 -6 -6 -6 -6 -3 14 83 
83 14 -3 -6 -6 -6 -6 -6 -6 -6 -6 -6 -6 -6 -6 -6 -6 -6 -6 -6 -6 -6 -6 -6 -6 -5 -4 -3 -3 -3 -3 -3 -2 0 10 13 14 14 14 14 15 18 34 68 80 83 83 83 84 89 108 108 89 84 83 83 83 83 80 68 35 21 34 97 94 20 -1 -5 -6 -5 -3 0 10 18 36 76 106 108 87 69 34 14 1 -3 -5 -6 -6 -6 -6 -6 -6 -6 -6 -6 -6 -6 -6 -6 -6 -6 -6 -6 -6 -6 -6 -6 -6 -3 14 83 
83 14 -3 -6 -6 -6 -6 -6 -6 -6 -6 -6 -6 -6 -6 -6 -6 -6 -6 -6 -6 -6 -6 -6 -6 -6 -6 -6 -6 -6 -6 -6 -6 -5 -4 -3 -3 -3 -3 -3 -3 -2 0 10 13 14 14 14 15 18 34 68 80 83 83 83 83 84 89 108 108 91 97 137 127 46 7 -1 -2 1 14 34 69 87 108 106 76 36 18 10 0 -3 -5 -6 -6 -6 -6 -6 -6 -6 -6 -6 -6 -6 -6 -6 -6 -6 -6 -6 -6 -6 -6 -6 -6 -6 -6 -3 14 83 
83 14 -3 -6 -6 -6 -6 -6 -6 -6 -6 -6 -6 -6 -6 -6 -6 -6 -6 -6 -6 -6 -6 -6 -6 -6 -6 -6 -6 -6 -6 -6 -6 -6 -6 -6 -6 -6 -6 -6 -6 -6 -5 -4 -3 -3 -3 -3 -3 -2 0 10 13 14 14 14 14 15 18 34 68 81 85 97 119 104 45 21 19 36 76 106 108 87 69 34 14 1 -2 -4 -5 -6 -6 -6 -6 -6 -6 -6 -6 -6 -6 -6 -6 -6 -6 -6 -6 -6 -6 -6 -6 -6 -6 -6 -6 -6 -6 -3 14 83 
83 14 -3 -6 -6 -6 -6 -6 -6 -6 -6 -6 -6 -6 -6 -6 -6 -6 -6 -6 -6 -6 -6 -6 -6 -6 -6 -6 -6 -6 -6 -6 -6 -6 -6 -6 -6 -6 -6 -6 -6 -6 -6 -6 -6 -6 -6 -6 -6 -6 -5 -4 -3 -3 -3 -3 -3 -3 -2 0 10 13 15 20 45 104 119 98 92 108 106 76 36 18 10 0 -3 -5 -6 -6 -6 -6 -6 -6 -6 -6 -6 -6 -6 -6 -6 -6 -6 -6 -6 -6 -6 -6 -6 -6 -6 -6 -6 -6 -6 -6 -6 -3 14 83 
83 14 -3 -6 -6 -6 -6 -6 -6 -6 -6 -6 -6 -6 -6 -6 -6 -6 -6 -6 -6 -6 -6 -6 -6 -6 -6 -6 -6 -6 -6 -6 -6 -6 -6 -6 -6 -6 -6 -6 -6 -6 -6 -6 -6 -6 -6 -6 -6 -6 -6 -6 -6 -6 -6 -6 -6 -6 -6 -5 -4 -3 -3 -1 7 46 127 137 94 70 34 14 1 -2 -4 -5 -6 -6 -6 -6 -6 -6 -6 -6 -6 -6 -6 -6 -6 -6 -6 -6 -6 -6 -6 -6 -6 -6 -6 -6 -6 -6 -6 -6 -6 -6 -6 -3 14 83 
83 14 -3 -6 -6 -6 -6 -6 -6 -6 -6 -6 -6 -6 -6 -6 -6 -6 -6 -6 -6 -6 -6 -6 -6 -6 -6 -6 -6 -6 -6 -6 -6 -6 -6 -6 -6 -6 -6 -6 -6 -6 -6 -6 -6 -6 -6 -6 -6 -6 -6 -6 -6 -6 -6 -6 -6 -6 -6 -6 -6 -6 -6 -5 -1 20 94 97 33 12 1 -3 -5 -6 -6 -6 -6 -6 -6 -6 -6 -6 -6 -6 -6 -6 -6 -6 -6 -6 -6 -6 -6 -6 -6 -6 -6 -6 -6 -6 -6 -6 -6 -6 -6 -6 -6 -3 14 83 
83 14 -3 -5 -6 -6 -6 -6 -6 -6 -6 -6 -6 -6 -6 -6 -6 -6 -6 -6 -6 -6 -6 -6 -6 -6 -6 -6 -6 -6 -6 -6 -6 -6 -6 -6 -6 -6 -6 -6 -6 -6 -6 -6 -6 -6 -6 -6 -6 -6 -6 -6 -6 -6 -6 -6 -6 -6 -6 -6 -6 -6 -6 -5 -3 15 85 85 17 -1 -5 -5 -6 -6 -6 -6 -6 -6 -6 -6 -6 -6 -6 -6 -6 -6 -6 -6 -6 -6 -6 -6 -6 -6 -6 -6 -6 -6 -6 -6 -6 -6 -6 -6 -6 -6 -5 -3 14 83 
85 17 0 -3 -3 -3 -3 -3 -3 -3 -3 -3 -3 -3 -3 -3 -3 -3 -3 -3 -3 -3 -3 -3 -3 -3 -3 -3 -3 -3 -3 -3 -3 -3 -3 -3 -3 -3 -3 -3 -3 -3 -3 -3 -3 -3 -3 -3 -3 -3 -3 -3 -3 -3 -3 -3 -3 -3 -3 -3 -3 -3 -3 -3 0 17 85 85 17 0 -3 -3 -3 -3 -3 -3 -3 -3 -3 -3 -3 -3 -3 -3 -3 -3 -3 -3 -3 -3 -3 -3 -3 -3 -3 -3 -3 -3 -3 -3 -3 -3 -3 -3 -3 -3 -3 0 17 85 
98 34 17 14 14 14 14 14 14 14 14 14 14 14 14 14 14 14 14 14 14 14 14 14 14 14 14 14 14 14 14 14 14 14 14 14 14 14 14 14 14 14 14 14 14 14 14 14 14 14 14 14 14 14 14 14 14 14 14 14 14 14 14 14 17 34 97 97 34 17 14 14 14 14 14 14 14 14 14 14 14 14 14 14 14 14 14 14 14 14 14 14 14 14 14 14 14 14 14 14 14 14 14 14 14 14 14 17 34 98 
143 98 85 83 83 83 83 83 83 83 83 83 83 83 83 83 83 83 83 83 83 83 83 83 83 83 83 83 83 83 83 84 85 89 87 84 83 83 83 83 83 83 83 83 83 83 83 83 84 88 88 84 83 83 83 83 83 83 83 83 83 83 83 83 85 96 137 137 96 85 83 83 83 83 83 83 83 83 83 83 83 83 83 83 83 83 83 83 83 83 84 85 89 87 84 83 83 83 83 83 83 83 84 85 89 87 84 85 98 143 
