P2
110 110
255
154 119 100 95 94 94 94 94 94 94 94 94 94 94 94 94 94 94 94 94 94 94 94 94 94 94 94 94 94 95 100 114 138 149 129 106 97 95 94 94 94 94 94 94 94 94 95 99 115 144 143 115 99 95 94 94 94 94 94 94 94 94 94 94 95 97 102 102 97 95 94 94 94 94 94 94 94 94 94 94 94 94 94 94 94 94 94 94 95 98 108 133 150 130 107 97 95 94 94 94 95 97 107 131 150 131 108 103 119 154 
119 67 42 35 34 34 34 34 34 34 34 34 34 34 34 34 34 34 34 34 34 34 34 34 34 34 34 34 35 38 52 86 127 117 73 46 36 34 34 34 34 34 34 34 34 34 35 43 69 120 118 67 42 35 34 34 34 34 34 34 34 34 34 34 34 34 34 34 34 34 34 34 34 34 34 34 34 34 34 34 34 34 34 34 34 34 34 34 36 43 69 116 125 79 48 37 34 34 34 34 35 40 61 108 127 82 50 45 68 119 
100 42 14 6 5 5 5 5 5 5 5 5 5 5 5 5 5 5 5 5 5 5 5 5 5 5 5 5 7 16 44 94 113 69 28 11 6 5 5 5 5 5 5 5 5 5 7 17 51 111 102 42 14 6 5 5 5 5 5 5 5 5 5 5 5 5 4 4 5 5 5 5 5 5 5 5 5 5 5 5 5 5 5 5 5 5 5 5 9 23 63 113 91 39 14 6 5 5 5 5 6 14 41 98 104 48 18 16 42 100 
95 35 6 0 -2 -2 -2 -2 -2 -2 -2 -2 -2 -2 -2 -2 -2 -2 -2 -2 -2 -2 -2 -2 -2 -2 -2 0 5 24 67 109 87 35 8 0 -2 -2 -2 -2 -2 -2 -2 -2 -2 -1 2 18 63 125 101 35 6 0 -2 -2 -2 -2 -2 -2 -2 -2 -2 -2 -2 -2 -2 -2 -2 -2 -2 -2 -2 -2 -2 -2 -2 -2 -2 -2 -2 -2 -2 -2 -2 -2 -2 -1 4 28 81 109 60 17 2 -1 -2 -2 -2 -2 0 9 43 101 92 34 8 8 35 95 
94 34 5 -2 -3 -3 -3 -3 -3 -3 -3 -3 -3 -3 -3 -3 -3 -3 -3 -3 -3 -3 -3 -3 -3 -3 -2 0 14 52 101 101 51 14 0 -3 -3 -3 -3 -3 -3 -3 -3 -3 -3 -1 6 33 92 145 102 34 5 -2 -3 -3 -3 -3 -3 -3 -3 -3 -3 -3 -3 -3 -3 -3 -3 -3 -3 -3 -3 -3 -3 -3 -3 -3 -3 -3 -3 -3 -3 -3 -3 -3 -3 -1 8 39 97 97 39 7 -1 -3 -3 -3 -3 -3 0 14 57 109 78 25 4 6 34 94 
94 34 5 -2 -3 -4 -4 -4 -4 -4 -4 -4 -4 -4 -4 -4 -4 -4 -4 -4 -4 -4 -4 -4 -4 -3 -1 7 35 86 108 66 22 3 -2 -3 -4 -4 -4 -4 -4 -4 -4 -4 -3 0 15 57 120 149 102 34 5 -2 -3 -4 -4 -4 -4 -4 -4 -4 -4 -4 -4 -4 -4 -4 -4 -4 -4 -4 -4 -4 -4 -4 -4 -4 -4 -4 -4 -4 -4 -4 -4 -4 -3 0 16 59 108 79 26 3 -2 -3 -4 -4 -3 -2 2 24 78 108 57 14 1 5 34 94 
94 34 5 -2 -3 -4 -4 -4 -4 -4 -4 -4 -4 -4 -4 -4 -4 -4 -4 -4 -4 -4 -4 -4 -3 -2 3 22 66 108 86 35 7 -1 -3 -4 -4 -4 -4 -4 -4 -4 -4 -3 -2 6 33 88 130 137 101 36 5 -2 -3 -4 -4 -4 -4 -4 -4 -4 -4 -4 -4 -4 -4 -4 -4 -4 -4 -4 -4 -4 -4 -4 -4 -4 -4 -4 -4 -4 -4 -4 -4 -3 -2 5 32 87 107 55 14 0 -3 -4 -4 -4 -3 -2 4 32 91 100 41 8 0 5 34 94 
94 34 5 -2 -3 -4 -4 -4 -4 -4 -4 -4 -4 -4 -4 -4 -4 -4 -4 -4 -4 -4 -4 -4 -3 0 14 51 101 101 51 14 0 -3 -4 -4 -4 -4 -4 -4 -4 -4 -4 -3 0 16 57 111 115 118 104 42 8 -1 -3 -4 -4 -4 -4 -4 -4 -4 -4 -4 -4 -4 -4 -4 -4 -4 -4 -4 -4 -4 -4 -4 -4 -4 -4 -4 -4 -4 -4 -4 -4 -3 0 14 55 107 87 32 5 -2 -3 -4 -4 -4 -3 -1 8 41 100 91 32 5 0 5 34 94 
94 34 5 -2 -3 -4 -4 -4 -4 -4 -4 -4 -4 -4 -4 -4 -4 -4 -4 -4 -4 -4 -4 -3 -1 7 35 86 108 66 22 3 -2 -3 -4 -4 -4 -4 -4 -4 -4 -4 -3 -1 7 35 88 111 83 95 111 57 14 0 -3 -4 -4 -4 -4 -4 -4 -4 -4 -4 -4 -4 -4 -4 -4 -4 -4 -4 -4 -4 -4 -4 -4 -4 -4 -4 -4 -4 -4 -4 -3 -2 3 26 79 108 59 16 0 -3 -4 -4 -4 -4 -3 0 14 57 108 78 24 2 -1 5 34 94 
94 34 5 -2 -3 -4 -4 -4 -4 -4 -4 -4 -4 -4 -4 -4 -4 -4 -4 -4 -4 -4 -3 -2 3 22 66 108 86 35 7 -1 -3 -4 -4 -4 -4 -4 -4 -4 -4 -3 -2 3 22 66 109 88 50 66 110 78 24 2 -3 -4 -4 -4 -4 -4 -4 -4 -4 -4 -4 -4 -4 -4 -4 -4 -4 -4 -4 -4 -4 -4 -4 -4 -4 -4 -4 -4 -4 -4 -3 -1 7 39 96 96 39 7 -1 -3 -4 -4 -4 -4 -2 2 24 78 108 57 14 0 -1 5 34 94 
94 34 5 -2 -3 -4 -4 -4 -4 -4 -4 -4 -4 -4 -4 -4 -4 -4 -4 -4 -4 -4 -3 0 14 51 101 101 51 14 0 -3 -4 -4 -4 -4 -4 -4 -4 -4 -4 -3 0 14 51 101 101 53 26 46 101 89 30 4 -2 -3 -4 -4 -4 -4 -4 -4 -4 -4 -4 -4 -4 -4 -4 -4 -4 -4 -4 -4 -4 -4 -4 -4 -4 -4 -4 -4 -4 -4 -3 0 16 59 108 79 26 3 -2 -3 -4 -4 -4 -3 -2 4 32 91 100 41 8 -1 -2 5 34 94 
95 34 5 -2 -3 -4 -4 -4 -4 -4 -4 -4 -4 -4 -4 -4 -4 -4 -4 -4 -4 -3 -1 7 35 86 108 66 22 3 -2 -3 -4 -4 -4 -4 -4 -4 -4 -4 -3 -2 5 32 85 108 66 24 13 37 96 93 33 4 -2 -3 -4 -4 -4 -4 -4 -4 -4 -4 -4 -4 -4 -4 -4 -4 -4 -4 -4 -4 -4 -4 -4 -4 -4 -4 -4 -4 -4 -3 -2 5 32 87 107 55 14 0 -3 -4 -4 -4 -4 -3 -1 8 41 100 91 32 4 -2 -2 5 34 94 
97 36 6 -2 -3 -4 -4 -4 -4 -4 -4 -4 -4 -4 -4 -4 -4 -4 -4 -4 -3 -2 3 22 66 108 86 35 7 -1 -3 -4 -4 -4 -4 -4 -4 -4 -4 -4 -3 0 15 57 107 88 36 9 7 34 94 94 34 5 -2 -3 -4 -4 -4 -4 -4 -4 -4 -4 -4 -4 -4 -4 -4 -4 -4 -4 -4 -4 -4 -4 -4 -4 -4 -4 -4 -4 -4 -3 0 14 55 107 87 32 5 -2 -3 -4 -4 -4 -4 -3 0 14 57 108 78 24 2 -2 -2 5 34 95 
106 46 10 0 -3 -4 -4 -4 -4 -4 -4 -4 -4 -4 -4 -4 -4 -4 -4 -4 -3 0 14 51 101 101 51 14 0 -3 -4 -4 -4 -4 -4 -4 -4 -4 -4 -3 -2 6 33 87 107 57 16 2 5 33 93 96 36 5 -2 -3 -4 -4 -4 -4 -4 -4 -4 -4 -4 -4 -4 -4 -4 -4 -4 -4 -4 -4 -4 -4 -4 -4 -4 -4 -4 -4 -3 -2 3 26 79 108 59 16 0 -3 -4 -4 -4 -4 -4 -2 2 24 78 108 57 14 0 -3 -2 5 34 96 
129 73 26 5 -1 -3 -4 -4 -4 -4 -4 -4 -4 -4 -4 -4 -4 -4 -4 -3 -1 7 35 86 108 66 22 3 -2 -3 -4 -4 -4 -4 -4 -4 -4 -4 -4 -3 0 16 57 107 87 33 6 0 4 30 89 101 42 8 -1 -3 -4 -4 -4 -4 -4 -4 -4 -4 -4 -4 -4 -4 -4 -4 -4 -4 -4 -4 -4 -4 -4 -4 -4 -4 -4 -4 -3 -1 7 39 96 96 39 7 -1 -3 -4 -4 -4 -4 -3 -2 4 32 91 100 41 8 -1 -3 -2 4 34 100 
149 116 63 23 4 -1 -3 -4 -4 -4 -4 -4 -4 -4 -4 -4 -4 -4 -3 -2 3 22 66 108 86 35 7 -1 -3 -4 -4 -4 -4 -4 -4 -4 -4 -4 -3 -1 7 35 88 107 57 15 0 -2 2 24 78 108 57 14 0 -3 -4 -4 -4 -4 -4 -4 -4 -4 -4 -4 -4 -4 -4 -4 -4 -4 -4 -4 -4 -4 -4 -4 -4 -4 -4 -4 -3 0 16 59 108 79 26 3 -2 -3 -4 -4 -4 -4 -3 -1 8 41 100 91 32 4 -2 -3 -2 4 33 102 
139 129 106 60 21 3 -2 -3 -4 -4 -4 -4 -4 -4 -4 -4 -4 -4 -3 0 14 51 101 101 51 14 0 -3 -4 -4 -4 -4 -4 -4 -4 -4 -4 -3 -2 3 22 66 108 85 32 5 -1 -3 0 14 57 108 78 24 2 -3 -4 -4 -4 -4 -4 -4 -4 -4 -4 -4 -4 -4 -4 -4 -4 -4 -4 -4 -4 -4 -4 -4 -4 -4 -4 -3 -2 5 32 87 107 55 14 0 -3 -4 -4 -4 -4 -4 -3 0 14 57 108 78 24 2 -2 -3 -2 4 34 100 
116 96 111 101 51 14 0 -3 -4 -4 -4 -4 -4 -4 -4 -4 -4 -3 -1 7 35 86 108 66 22 3 -2 -3 -4 -4 -4 -4 -4 -4 -4 -4 -4 -3 0 14 51 101 101 51 14 0 -3 -3 -1 8 42 101 89 30 4 -2 -3 -4 -4 -4 -4 -4 -4 -4 -4 -4 -4 -4 -4 -4 -4 -4 -4 -4 -4 -4 -4 -4 -4 -4 -4 -3 0 14 55 107 87 32 5 -2 -3 -4 -4 -4 -4 -4 -2 2 24 78 108 57 14 0 -3 -3 -2 5 34 96 
102 63 76 110 86 35 8 0 -3 -4 -4 -4 -4 -4 -4 -4 -3 -2 3 22 66 108 86 35 7 -1 -3 -4 -4 -4 -4 -4 -4 -4 -4 -4 -3 -2 5 32 85 108 66 22 3 -2 -3 -3 -2 5 36 96 93 33 4 -2 -3 -4 -4 -4 -4 -4 -4 -4 -4 -4 -4 -4 -4 -4 -4 -4 -4 -4 -4 -4 -4 -4 -4 -4 -3 -2 3 26 79 108 59 16 0 -3 -4 -4 -4 -4 -4 -3 -2 4 32 91 100 41 8 -1 -3 -3 -2 5 34 95 
97 46 44 87 109 67 26 5 -1 -3 -4 -4 -4 -4 -4 -4 -3 0 14 51 101 101 51 14 0 -3 -4 -4 -4 -4 -4 -4 -4 -4 -4 -4 -3 0 15 57 107 88 35 7 -1 -3 -4 -3 -2 5 34 94 94 34 5 -2 -3 -4 -4 -4 -4 -4 -4 -4 -4 -4 -4 -4 -4 -4 -4 -4 -4 -4 -4 -4 -4 -4 -4 -4 -3 -1 7 39 96 96 39 7 -1 -3 -4 -4 -4 -4 -4 -3 -1 8 41 100 91 32 4 -2 -3 -3 -2 5 34 94 
95 38 23 52 100 104 62 24 5 -1 -3 -4 -4 -4 -4 -3 -1 7 35 86 108 66 22 3 -2 -3 -4 -4 -4 -4 -4 -4 -4 -4 -4 -3 -2 6 33 87 107 57 16 0 -3 -4 -4 -3 -2 4 33 93 96 36 5 -2 -3 -4 -4 -4 -4 -4 -4 -4 -4 -4 -4 -4 -4 -4 -4 -4 -4 -4 -4 -4 -4 -4 -4 -4 -3 0 16 59 108 79 26 3 -2 -3 -4 -4 -4 -4 -4 -3 0 14 57 108 78 24 2 -2 -4 -3 -2 5 34 94 
94 35 12 22 60 103 103 62 24 5 -1 -3 -4 -4 -3 -2 3 22 66 108 86 35 7 -1 -3 -4 -4 -4 -4 -4 -4 -4 -4 -4 -4 -3 0 16 57 107 87 33 6 -2 -3 -4 -4 -3 -2 4 30 89 101 42 8 -1 -3 -4 -4 -4 -4 -4 -4 -4 -4 -4 -4 -4 -4 -4 -4 -4 -4 -4 -4 -4 -4 -4 -4 -3 -2 5 32 87 107 55 14 0 -3 -4 -4 -4 -4 -4 -4 -2 2 24 78 108 57 14 0 -3 -4 -3 -2 5 34 94 
94 34 7 6 24 61 103 103 62 24 5 -1 -3 -3 -3 0 14 51 101 101 51 14 0 -3 -4 -4 -4 -4 -4 -4 -4 -4 -4 -4 -3 -1 7 35 88 107 57 15 0 -3 -4 -4 -4 -4 -3 2 24 78 108 57 14 0 -3 -4 -4 -4 -4 -4 -4 -4 -4 -4 -4 -4 -4 -4 -4 -4 -4 -4 -4 -4 -4 -4 -4 -3 0 14 55 107 87 32 5 -2 -3 -4 -4 -4 -4 -4 -3 -2 4 32 91 100 41 8 -1 -3 -4 -3 -2 5 34 94 
94 34 5 0 5 24 62 103 103 62 24 5 -1 -3 -1 7 35 86 108 66 22 3 -2 -3 -4 -4 -4 -4 -4 -4 -4 -4 -4 -3 -2 3 22 66 108 85 32 5 -2 -3 -4 -4 -4 -4 -3 0 14 57 108 78 24 2 -3 -4 -4 -4 -4 -4 -4 -4 -4 -4 -4 -4 -4 -4 -4 -4 -4 -4 -4 -4 -4 -4 -3 -2 3 26 79 108 59 16 0 -3 -4 -4 -4 -4 -4 -4 -3 -1 8 41 100 91 32 4 -2 -3 -4 -3 -2 5 34 94 
94 34 5 -1 -1 5 24 62 103 103 62 24 5 0 4 23 66 108 86 35 7 -1 -3 -4 -4 -4 -4 -4 -4 -4 -4 -4 -4 -3 0 14 51 101 101 51 14 0 -3 -4 -4 -4 -4 -4 -3 -1 8 42 100 89 30 4 -2 -3 -4 -4 -4 -4 -4 -4 -4 -4 -4 -4 -4 -4 -4 -4 -4 -4 -4 -4 -4 -4 -3 -1 7 39 96 96 39 7 -1 -3 -4 -4 -4 -4 -4 -4 -3 0 14 57 108 78 24 2 -2 -4 -4 -3 -2 5 34 94 
94 34 5 -2 -3 -1 5 24 62 103 103 62 25 10 17 52 101 101 51 14 0 -3 -4 -4 -4 -4 -4 -4 -4 -4 -4 -4 -3 -2 5 32 85 108 66 22 3 -2 -3 -4 -4 -4 -4 -4 -3 -2 5 36 96 93 33 4 -2 -3 -4 -4 -4 -4 -4 -4 -4 -4 -4 -4 -4 -4 -4 -4 -4 -4 -4 -4 -4 -4 -3 0 16 59 108 79 26 3 -2 -3 -4 -4 -4 -4 -4 -4 -2 2 24 78 108 57 14 0 -3 -4 -4 -3 -2 5 34 94 
94 34 5 -2 -3 -3 -1 5 24 62 103 103 64 35 44 88 109 66 22 3 -2 -3 -4 -4 -4 -4 -4 -4 -4 -4 -4 -4 -3 0 15 57 107 88 35 7 -1 -3 -4 -4 -4 -4 -4 -4 -3 -2 4 33 93 96 36 5 -2 -3 -4 -4 -4 -4 -4 -4 -4 -4 -4 -4 -4 -4 -4 -4 -4 -4 -4 -4 -4 -3 -2 5 32 87 107 55 14 0 -3 -4 -4 -4 -4 -4 -4 -3 -2 4 32 91 100 41 8 -1 -3 -4 -4 -3 -2 5 34 94 
94 34 5 -2 -3 -4 -3 -1 5 24 62 104 108 85 89 113 86 35 7 -1 -3 -4 -4 -4 -4 -4 -4 -4 -4 -4 -4 -3 -2 6 33 87 107 57 16 0 -3 -4 -4 -4 -4 -4 -4 -4 -3 -2 4 30 89 100 42 8 -1 -3 -4 -4 -4 -4 -4 -4 -4 -4 -4 -4 -4 -4 -4 -4 -4 -4 -4 -4 -4 -3 0 14 55 107 87 32 5 -2 -3 -4 -4 -4 -4 -4 -4 -3 -1 8 41 100 91 32 4 -2 -3 -4 -4 -3 -2 5 34 94 
94 34 5 -2 -3 -4 -4 -3 -1 5 24 63 110 136 136 107 52 14 0 -3 -4 -4 -4 -4 -4 -4 -4 -4 -4 -4 -4 -3 0 16 57 107 87 33 6 -2 -3 -4 -4 -4 -4 -4 -4 -4 -4 -3 2 24 78 108 57 14 0 -3 -4 -4 -4 -4 -4 -4 -4 -4 -4 -4 -4 -4 -4 -4 -4 -4 -4 -4 -3 -2 3 26 79 108 59 16 0 -3 -4 -4 -4 -4 -4 -4 -4 -3 0 14 57 108 78 24 2 -2 -4 -4 -4 -3 -2 5 34 94 
94 34 5 -2 -3 -4 -4 -4 -3 -1 5 26 73 133 133 71 23 3 -2 -3 -4 -4 -4 -4 -4 -4 -4 -4 -4 -4 -3 -1 7 35 88 107 57 15 0 -3 -4 -4 -4 -4 -4 -4 -4 -4 -4 -3 0 14 57 108 78 24 2 -3 -4 -4 -4 -4 -4 -4 -4 -4 -4 -4 -4 -4 -4 -4 -4 -4 -4 -4 -3 -1 7 39 96 96 39 7 -1 -3 -4 -4 -4 -4 -4 -4 -4 -2 2 24 78 108 57 14 0 -3 -4 -4 -4 -3 -2 5 34 94 
94 34 5 -2 -3 -4 -4 -4 -4 -3 0 10 45 108 111 47 11 0 -3 -4 -4 -4 -4 -4 -4 -4 -4 -4 -4 -3 -2 3 22 66 108 85 32 5 -2 -3 -4 -4 -4 -4 -4 -4 -4 -4 -4 -3 -1 8 42 101 89 30 4 -2 -3 -4 -4 -4 -4 -4 -4 -4 -4 -4 -4 -4 -4 -4 -4 -4 -4 -4 -3 0 16 59 108 79 26 3 -2 -3 -4 -4 -4 -4 -4 -4 -3 -2 4 32 91 100 41 8 -1 -3 -4 -4 -4 -3 -2 5 34 94 
94 34 5 -2 -3 -4 -4 -4 -4 -3 -2 5 33 93 104 45 9 -1 -3 -4 -4 -4 -4 -4 -4 -4 -4 -4 -4 -3 0 14 51 101 101 51 14 0 -3 -4 -4 -4 -4 -4 -4 -4 -4 -4 -4 -3 -2 5 36 96 93 33 4 -2 -3 -4 -4 -4 -4 -4 -4 -4 -4 -4 -4 -4 -4 -4 -4 -4 -4 -3 -2 5 32 87 107 55 14 0 -3 -4 -4 -4 -4 -4 -4 -4 -3 -1 8 41 100 91 32 4 -2 -3 -4 -4 -4 -3 -2 5 34 94 
94 34 5 -2 -3 -4 -4 -4 -4 -4 -2 2 24 78 109 57 14 0 -3 -4 -4 -4 -4 -4 -4 -4 -4 -4 -3 -2 5 32 85 108 66 22 3 -2 -3 -4 -4 -4 -4 -4 -4 -4 -4 -4 -4 -3 -2 5 34 94 94 34 5 -2 -3 -4 -4 -4 -4 -4 -4 -4 -4 -4 -4 -4 -4 -4 -4 -4 -4 -3 0 14 55 107 87 32 5 -2 -3 -4 -4 -4 -4 -4 -4 -4 -3 0 14 57 108 78 24 2 -2 -4 -4 -4 -4 -3 -2 5 34 94 
94 34 5 -2 -3 -4 -4 -4 -4 -4 -3 0 14 57 109 78 24 2 -2 -4 -4 -4 -4 -4 -4 -4 -4 -4 -3 0 15 57 107 88 35 7 -1 -3 -4 -4 -4 -4 -4 -4 -4 -4 -4 -4 -4 -3 -2 4 33 93 96 36 5 -2 -3 -4 -4 -4 -4 -4 -4 -4 -4 -4 -4 -4 -4 -4 -4 -4 -3 -2 3 26 79 108 59 16 0 -3 -4 -4 -4 -4 -4 -4 -4 -4 -2 2 24 78 108 57 14 0 -3 -4 -4 -4 -4 -3 -2 5 34 94 
94 34 5 -2 -3 -4 -4 -4 -4 -4 -3 -1 8 42 100 89 31 4 -2 -3 -4 -4 -4 -4 -4 -4 -4 -3 -2 6 33 87 107 57 16 0 -3 -4 -4 -4 -4 -4 -4 -4 -4 -4 -4 -4 -4 -3 -2 4 30 89 101 42 8 -1 -3 -4 -4 -4 -4 -4 -4 -4 -4 -4 -4 -4 -4 -4 -4 -4 -3 -1 7 39 96 96 39 7 -1 -3 -4 -4 -4 -4 -4 -4 -4 -3 -2 4 32 91 100 41 8 -1 -3 -4 -4 -4 -4 -3 -2 5 34 95 
95 34 5 -2 -3 -4 -4 -4 -4 -4 -3 -2 5 35 95 95 35 5 -2 -3 -4 -4 -4 -4 -4 -4 -4 -3 0 16 57 107 87 33 6 -2 -3 -4 -4 -4 -4 -4 -4 -4 -4 -4 -4 -4 -4 -4 -3 2 24 78 108 57 14 0 -3 -4 -4 -4 -4 -4 -4 -4 -4 -4 -4 -4 -4 -4 -4 -4 -3 0 16 59 108 79 26 3 -2 -3 -4 -4 -4 -4 -4 -4 -4 -3 -1 8 41 100 91 32 4 -2 -3 -4 -4 -4 -4 -3 -2 5 36 97 
96 34 5 -2 -3 -4 -4 -4 -4 -4 -3 -2 4 31 89 100 42 8 -1 -3 -4 -4 -4 -4 -4 -4 -3 -1 7 35 88 107 57 15 0 -3 -4 -4 -4 -4 -4 -4 -4 -4 -4 -4 -4 -4 -4 -4 -3 0 14 57 108 78 24 2 -3 -4 -4 -4 -4 -4 -4 -4 -4 -4 -4 -4 -4 -4 -4 -3 -2 5 32 87 107 55 14 0 -3 -4 -4 -4 -4 -4 -4 -4 -4 -3 0 14 57 108 78 24 2 -2 -4 -4 -4 -4 -4 -3 -1 8 43 105 
99 33 4 -2 -3 -4 -4 -4 -4 -4 -4 -3 2 24 78 108 57 14 0 -3 -4 -4 -4 -4 -4 -3 -2 3 22 66 108 85 32 5 -2 -3 -4 -4 -4 -4 -4 -4 -4 -4 -4 -4 -4 -4 -4 -4 -3 -1 8 42 101 89 30 4 -2 -3 -4 -4 -4 -4 -4 -4 -4 -4 -4 -4 -4 -4 -4 -3 0 14 55 107 87 32 5 -2 -3 -4 -4 -4 -4 -4 -4 -4 -4 -2 2 24 78 108 57 14 0 -3 -4 -4 -4 -4 -4 -3 1 17 61 124 
102 33 4 -2 -3 -4 -4 -4 -4 -4 -4 -3 0 14 57 108 78 24 2 -3 -4 -4 -4 -4 -4 -3 0 14 51 101 101 51 14 0 -3 -4 -4 -4 -4 -4 -4 -4 -4 -4 -4 -4 -4 -4 -4 -4 -3 -2 5 36 96 93 33 4 -2 -3 -4 -4 -4 -4 -4 -4 -4 -4 -4 -4 -4 -4 -3 -2 3 26 79 108 59 16 0 -3 -4 -4 -4 -4 -4 -4 -4 -4 -3 -2 4 32 91 100 41 8 -1 -3 -4 -4 -4 -4 -3 -1 7 35 94 145 
101 33 4 -2 -3 -4 -4 -4 -4 -4 -4 -3 -1 8 42 100 89 31 4 -2 -3 -4 -4 -4 -3 -2 5 32 85 108 66 22 3 -2 -3 -4 -4 -4 -4 -4 -4 -4 -4 -4 -4 -4 -4 -4 -4 -4 -3 -2 5 34 94 94 34 5 -2 -3 -4 -4 -4 -4 -4 -4 -4 -4 -4 -4 -4 -4 -3 -1 7 39 96 96 39 7 -1 -3 -4 -4 -4 -4 -4 -4 -4 -4 -3 -1 8 41 100 91 32 4 -2 -3 -4 -4 -4 -3 -2 3 22 67 123 148 
98 33 4 -2 -3 -4 -4 -4 -4 -4 -4 -3 -2 5 35 95 95 35 5 -2 -3 -4 -4 -4 -3 0 15 57 107 88 35 7 -1 -3 -4 -4 -4 -4 -4 -4 -4 -4 -4 -4 -4 -4 -4 -4 -4 -4 -3 -2 4 33 93 96 36 5 -2 -3 -4 -4 -4 -4 -4 -4 -4 -4 -4 -4 -4 -4 -3 0 16 59 108 79 26 3 -2 -3 -4 -4 -4 -4 -4 -4 -4 -4 -3 0 14 57 108 78 24 2 -2 -4 -4 -4 -4 -3 0 14 51 104 128 134 
96 34 5 -2 -3 -4 -4 -4 -4 -4 -4 -3 -2 4 31 89 100 42 8 -1 -3 -4 -4 -3 -2 6 33 87 107 57 16 0 -3 -4 -4 -4 -4 -4 -4 -4 -4 -4 -4 -4 -4 -4 -4 -4 -4 -4 -3 -2 4 30 89 101 42 8 -1 -3 -4 -4 -4 -4 -4 -4 -4 -4 -4 -4 -4 -3 -2 5 32 87 107 55 14 0 -3 -4 -4 -4 -4 -4 -4 -4 -4 -4 -2 2 24 78 108 57 14 0 -3 -4 -4 -4 -3 -1 7 35 86 114 100 115 
95 34 5 -2 -3 -4 -4 -4 -4 -4 -4 -4 -3 2 24 78 108 57 14 0 -3 -4 -4 -3 0 16 57 107 87 33 6 -2 -3 -4 -4 -4 -4 -4 -4 -4 -4 -4 -4 -4 -4 -4 -4 -4 -4 -4 -4 -3 2 24 78 109 57 14 0 -3 -3 -4 -4 -4 -4 -4 -4 -4 -4 -4 -4 -3 0 14 55 107 87 32 5 -2 -3 -4 -4 -4 -4 -4 -4 -4 -4 -3 -2 4 32 91 100 41 8 -1 -3 -4 -4 -3 -2 3 22 66 109 94 71 103 
94 34 5 -2 -3 -4 -4 -4 -4 -4 -4 -4 -3 0 14 57 108 78 24 2 -2 -3 -3 -1 7 35 88 107 57 15 0 -3 -4 -4 -4 -4 -4 -4 -4 -4 -4 -4 -4 -4 -4 -4 -4 -4 -4 -4 -4 -3 0 14 58 109 79 25 4 -1 -2 -2 -3 -3 -3 -3 -3 -3 -4 -4 -3 -2 3 26 79 108 59 16 0 -3 -4 -4 -4 -4 -4 -4 -4 -4 -4 -3 -1 8 41 100 91 32 4 -2 -3 -4 -4 -3 0 14 51 101 102 60 52 98 
94 34 5 -2 -3 -4 -4 -4 -4 -4 -4 -4 -3 -1 8 42 100 89 31 4 -2 -3 -2 3 22 66 108 85 32 5 -2 -3 -4 -4 -4 -4 -4 -4 -4 -4 -4 -4 -4 -4 -4 -4 -4 -4 -4 -4 -4 -3 0 10 45 105 95 39 13 6 4 2 0 -1 -2 -2 -2 -2 -2 -3 -3 -1 7 39 97 96 39 7 -1 -3 -4 -4 -4 -4 -4 -4 -4 -4 -4 -3 0 14 57 108 78 24 2 -2 -4 -4 -3 -1 7 35 86 108 67 31 41 95 
94 34 5 -2 -3 -4 -4 -4 -4 -4 -4 -4 -3 -2 5 35 95 95 35 5 -2 -3 0 14 51 101 101 51 14 0 -3 -4 -4 -4 -4 -4 -4 -4 -4 -4 -4 -4 -4 -4 -4 -4 -4 -4 -4 -4 -3 -2 1 14 50 112 116 66 42 34 31 24 14 8 5 5 4 4 2 0 0 2 17 60 109 79 26 3 -2 -3 -4 -4 -4 -4 -4 -4 -4 -4 -4 -2 2 24 78 108 57 14 0 -3 -4 -3 -2 3 22 66 108 86 36 16 36 95 
94 34 5 -2 -3 -4 -4 -4 -4 -4 -4 -4 -3 -2 4 31 89 100 42 8 -1 -1 5 32 85 108 66 22 3 -2 -3 -4 -4 -4 -4 -4 -4 -4 -4 -4 -4 -4 -4 -4 -4 -4 -4 -4 -3 -3 -1 3 15 38 79 135 144 115 99 94 89 78 57 42 36 34 33 30 24 14 10 14 39 90 107 55 14 0 -3 -4 -4 -4 -4 -4 -4 -4 -4 -4 -3 -2 4 32 91 100 41 8 -1 -3 -3 -3 0 14 51 101 101 52 16 9 35 94 
94 34 5 -2 -3 -4 -4 -4 -4 -4 -4 -4 -4 -3 2 24 78 108 57 14 0 1 16 57 107 88 35 7 -1 -3 -4 -4 -4 -4 -4 -4 -4 -4 -4 -4 -4 -4 -4 -4 -4 -4 -4 -3 -2 0 7 22 52 87 115 124 113 100 96 96 101 108 108 101 96 94 93 89 78 58 45 50 80 117 90 33 5 -2 -3 -4 -4 -4 -4 -4 -4 -4 -4 -4 -3 -1 8 41 100 91 32 4 -2 -3 -3 -1 7 35 86 108 66 23 5 6 34 94 
94 34 5 -2 -3 -4 -4 -4 -4 -4 -4 -4 -4 -3 0 14 57 108 78 24 4 7 33 87 107 57 16 0 -3 -4 -4 -4 -4 -4 -4 -4 -4 -4 -4 -4 -4 -4 -4 -4 -4 -3 -3 -1 3 14 35 66 101 109 89 61 43 36 34 36 42 57 78 89 93 94 96 101 109 109 104 111 135 132 70 20 1 -3 -4 -4 -4 -4 -4 -4 -4 -4 -4 -4 -3 0 14 57 108 78 24 2 -2 -3 -2 3 22 66 108 86 35 7 0 5 34 94 
94 34 5 -2 -3 -4 -4 -4 -4 -4 -4 -4 -4 -3 -1 8 42 100 89 32 9 18 58 107 87 33 6 -2 -3 -4 -4 -4 -4 -4 -4 -4 -4 -4 -4 -4 -4 -4 -4 -4 -3 -2 0 7 22 51 86 108 101 66 36 17 8 5 5 5 8 14 24 30 33 34 36 42 57 78 93 109 135 132 70 20 2 -2 -3 -4 -4 -4 -4 -4 -4 -4 -4 -4 -2 2 24 78 108 57 14 0 -3 -3 0 14 51 101 101 51 14 0 -1 5 34 94 
94 34 5 -2 -3 -4 -4 -4 -4 -4 -4 -4 -4 -3 -2 5 35 95 95 38 17 37 88 107 57 15 0 -3 -4 -4 -4 -4 -4 -4 -4 -4 -4 -4 -4 -4 -4 -4 -4 -3 -1 3 14 35 66 101 108 86 51 23 7 1 -1 -2 -2 -2 -1 0 2 4 4 5 5 8 14 24 33 47 79 117 91 37 9 0 -3 -3 -3 -3 -3 -3 -3 -3 -3 -3 -2 5 33 91 100 41 8 -1 -3 -1 7 35 86 108 66 22 3 -2 -2 5 34 94 
94 34 5 -2 -3 -4 -4 -4 -4 -4 -4 -4 -4 -3 -2 4 31 89 102 49 35 68 109 85 32 5 -2 -3 -4 -4 -4 -4 -4 -4 -4 -4 -4 -4 -4 -4 -4 -3 -3 -1 5 21 51 86 108 101 66 35 14 3 -1 -3 -3 -3 -3 -3 -3 -3 -3 -2 -2 -2 -2 -1 0 2 5 13 38 88 110 69 27 8 1 -1 -2 -2 -2 -2 -2 -2 -2 -2 0 9 42 100 91 33 5 -2 -2 3 22 66 108 86 35 7 -1 -3 -2 5 34 94 
94 34 5 -2 -3 -4 -4 -4 -4 -4 -4 -4 -4 -4 -3 2 24 78 111 74 69 104 101 51 14 0 -3 -4 -4 -4 -4 -4 -4 -4 -4 -4 -4 -4 -4 -4 -3 -2 0 8 25 60 100 108 86 51 22 7 0 -2 -3 -4 -4 -4 -4 -4 -4 -4 -4 -3 -3 -3 -3 -3 -3 -2 -1 1 15 52 103 109 70 36 17 8 5 5 5 5 5 5 5 5 9 23 63 112 81 26 3 -1 0 14 51 101 101 51 14 0 -3 -3 -2 5 34 94 
94 34 5 -2 -3 -4 -4 -4 -4 -4 -4 -4 -4 -4 -3 0 14 57 113 109 108 112 66 22 3 -2 -3 -4 -4 -4 -4 -4 -4 -4 -4 -4 -4 -4 -3 -3 -1 3 14 35 67 104 104 67 35 14 3 -1 -3 -3 -4 -4 -4 -4 -4 -4 -4 -4 -4 -4 -4 -4 -4 -4 -4 -3 -3 -2 3 23 70 126 129 93 61 43 36 34 34 34 34 34 34 35 39 58 102 125 71 23 5 1 8 35 86 108 66 22 3 -2 -3 -3 -2 5 34 94 
94 34 5 -2 -3 -4 -4 -4 -4 -4 -4 -4 -4 -4 -3 -1 8 42 107 134 129 89 35 7 -1 -3 -4 -4 -4 -4 -4 -4 -4 -4 -4 -4 -4 -3 -2 0 7 22 51 86 108 100 60 25 8 0 -2 -3 -4 -4 -4 -4 -4 -4 -4 -4 -4 -4 -4 -4 -4 -4 -4 -4 -4 -4 -4 -3 0 11 48 116 147 128 113 101 96 94 94 94 94 94 94 95 99 113 141 140 87 42 19 13 26 67 109 86 35 7 -1 -3 -4 -3 -2 5 34 94 
94 34 5 -2 -3 -4 -4 -4 -4 -4 -4 -4 -4 -4 -3 -2 5 35 103 148 120 58 16 0 -3 -4 -4 -4 -4 -4 -4 -4 -4 -4 -4 -3 -3 -1 3 14 35 66 101 108 86 51 21 5 -1 -3 -3 -4 -4 -4 -4 -4 -4 -4 -4 -4 -4 -4 -4 -4 -4 -4 -4 -4 -4 -4 -4 -3 -1 9 45 108 117 86 84 90 93 94 94 94 94 94 94 94 95 100 112 125 117 90 61 48 66 106 103 52 14 0 -3 -4 -4 -3 -2 5 34 94 
94 34 5 -2 -3 -4 -4 -4 -4 -4 -4 -4 -4 -4 -3 -2 5 34 102 145 92 33 6 -2 -3 -4 -4 -4 -4 -4 -4 -4 -4 -3 -3 -2 0 7 22 51 86 108 101 66 35 14 3 -1 -3 -4 -4 -4 -4 -4 -4 -4 -4 -4 -4 -4 -4 -4 -4 -4 -4 -4 -4 -4 -4 -4 -4 -3 0 14 58 111 86 42 30 32 33 34 34 34 34 34 34 34 34 36 43 61 88 108 111 108 120 123 72 24 3 -2 -3 -4 -4 -3 -2 5 34 94 
94 34 5 -2 -3 -4 -4 -4 -4 -4 -4 -4 -4 -4 -3 -2 4 34 100 124 61 16 0 -3 -4 -4 -4 -4 -4 -4 -4 -3 -3 -2 -1 3 14 35 66 103 110 88 53 24 8 0 -2 -3 -3 -4 -4 -4 -4 -4 -4 -4 -4 -4 -4 -4 -4 -4 -4 -4 -4 -4 -4 -4 -4 -4 -4 -3 2 24 78 109 59 18 6 4 4 5 5 5 5 5 5 5 5 5 8 16 33 58 89 121 149 124 57 15 0 -3 -4 -4 -4 -3 -2 5 34 94 
94 34 5 -2 -3 -4 -4 -4 -4 -4 -4 -4 -4 -4 -3 -2 5 34 97 105 42 8 -1 -3 -4 -4 -4 -4 -4 -3 -3 -2 0 3 9 23 52 91 120 115 77 44 23 10 2 0 -2 -2 -3 -3 -3 -3 -4 -4 -4 -4 -4 -4 -4 -4 -4 -4 -4 -4 -4 -4 -4 -4 -4 -4 -3 -2 4 30 89 101 42 8 0 -2 -2 -2 -2 -2 -2 -2 -2 -2 -2 -2 -1 0 6 16 36 70 118 125 72 24 3 -2 -3 -4 -4 -3 -2 5 34 94 
94 34 5 -2 -3 -4 -4 -4 -4 -4 -4 -4 -4 -4 -3 -2 5 36 96 96 35 5 -2 -3 -4 -4 -3 -3 -3 -2 0 5 14 26 42 69 112 144 143 107 68 46 35 26 15 8 5 2 0 -1 -2 -2 -3 -3 -3 -3 -4 -4 -4 -4 -4 -4 -4 -4 -4 -4 -4 -4 -4 -4 -3 -2 4 33 93 96 36 5 -2 -3 -3 -3 -3 -3 -3 -3 -3 -3 -3 -3 -3 -3 -1 0 8 26 64 108 103 52 14 0 -3 -4 -4 -3 -2 5 34 94 
94 34 5 -2 -3 -4 -4 -4 -4 -4 -4 -4 -4 -4 -3 -1 8 42 101 89 31 4 -2 -3 -3 -3 -2 -1 0 6 15 32 55 80 98 114 121 121 125 120 106 97 90 78 57 41 32 24 14 8 5 4 2 0 -1 -2 -2 -3 -3 -3 -3 -4 -4 -4 -4 -4 -4 -4 -4 -4 -3 -2 5 36 96 93 33 5 -2 -3 -4 -4 -4 -4 -4 -4 -4 -4 -4 -4 -4 -4 -3 -3 0 5 26 68 109 86 35 7 -1 -3 -4 -3 -2 5 34 94 
94 34 5 -2 -3 -4 -4 -4 -4 -4 -4 -4 -4 -4 -3 0 14 57 109 78 24 2 -2 -3 -2 0 3 7 16 33 57 86 107 109 97 81 60 50 59 79 90 95 100 109 108 100 91 78 57 42 35 31 24 14 8 4 2 0 -1 -2 -2 -3 -3 -3 -3 -4 -4 -4 -4 -4 -3 -1 8 42 100 89 30 4 -2 -3 -4 -4 -4 -4 -4 -4 -4 -4 -4 -4 -4 -4 -4 -4 -3 0 8 35 86 108 66 22 3 -2 -3 -3 -2 5 34 94 
94 34 5 -2 -3 -4 -4 -4 -4 -4 -4 -4 -4 -4 -2 2 24 78 109 57 14 0 -1 0 5 14 26 39 59 87 107 107 87 59 39 26 15 11 15 24 31 35 42 57 78 91 100 108 108 100 95 89 78 57 41 32 24 14 8 5 4 2 0 -1 -2 -2 -3 -3 -3 -3 -3 0 14 57 108 78 24 2 -3 -4 -4 -4 -4 -4 -4 -4 -4 -4 -4 -4 -4 -4 -4 -4 -4 -3 0 14 51 101 101 51 14 0 -3 -3 -2 5 34 94 
94 34 5 -2 -3 -4 -4 -4 -4 -4 -4 -4 -4 -3 -2 4 31 89 101 43 10 3 6 15 32 55 79 96 108 107 86 57 33 16 7 3 0 0 0 2 4 5 8 14 24 32 41 57 78 89 95 100 108 108 100 91 78 57 42 35 31 24 14 8 4 2 0 -1 -2 -2 -1 3 24 78 109 57 14 0 -3 -4 -4 -4 -4 -4 -4 -4 -4 -4 -4 -4 -4 -4 -4 -4 -4 -3 -2 3 22 66 108 86 35 8 -1 -3 -2 5 34 94 
94 34 5 -2 -3 -4 -4 -4 -4 -4 -4 -4 -4 -3 -2 5 35 95 97 40 15 17 33 57 86 107 108 96 79 55 32 15 6 0 -1 -2 -3 -3 -3 -2 -2 -2 -1 0 2 4 8 14 24 31 35 42 57 78 91 100 108 108 100 95 89 78 57 41 32 24 14 8 5 4 4 8 33 90 101 42 8 -1 -3 -4 -4 -4 -4 -4 -4 -4 -4 -4 -4 -4 -4 -4 -4 -4 -4 -4 -3 -1 7 35 86 108 67 25 5 -1 -2 5 34 94 
94 34 5 -2 -3 -4 -4 -4 -4 -4 -4 -4 -4 -3 -1 8 42 103 99 51 41 59 87 107 107 87 59 39 26 14 5 0 -2 -3 -3 -3 -4 -4 -4 -4 -3 -3 -3 -3 -2 -2 -1 0 2 4 5 8 14 24 32 41 57 78 89 95 100 108 108 100 91 78 57 42 35 31 26 23 44 99 97 36 5 -2 -3 -4 -4 -4 -4 -4 -4 -4 -4 -4 -4 -4 -4 -4 -4 -4 -4 -4 -4 -3 0 14 51 100 104 60 21 3 0 5 34 94 
94 34 5 -2 -3 -4 -4 -4 -4 -4 -4 -4 -4 -3 0 16 61 121 114 85 93 108 107 87 57 33 16 7 3 0 -2 -3 -3 -4 -4 -4 -4 -4 -4 -4 -4 -4 -4 -4 -4 -3 -3 -3 -3 -2 -2 -1 0 2 4 8 14 24 31 35 42 57 78 91 100 108 108 100 95 89 79 65 75 116 98 34 5 -2 -3 -4 -4 -4 -4 -4 -4 -4 -4 -4 -4 -4 -4 -4 -4 -4 -4 -4 -4 -3 -2 3 21 60 104 100 51 14 2 6 34 94 
94 34 5 -2 -3 -4 -4 -4 -4 -4 -4 -4 -3 -2 6 33 93 146 137 120 108 86 57 33 15 6 0 -1 -2 -3 -3 -4 -4 -4 -4 -4 -4 -4 -4 -4 -4 -4 -4 -4 -4 -4 -4 -4 -4 -3 -3 -3 -3 -2 -2 -1 0 2 4 5 8 14 24 32 41 57 78 89 95 100 109 114 124 144 102 34 4 -2 -3 -4 -4 -4 -4 -4 -4 -4 -4 -4 -4 -4 -4 -4 -4 -4 -4 -4 -4 -4 -3 -1 5 25 67 108 86 35 9 8 34 94 
94 34 5 -2 -3 -4 -4 -4 -4 -4 -4 -4 -3 0 16 58 118 132 107 81 55 32 15 6 0 -2 -3 -3 -3 -4 -4 -4 -4 -4 -4 -4 -4 -4 -4 -4 -4 -4 -4 -4 -4 -4 -4 -4 -4 -4 -4 -4 -4 -4 -3 -3 -3 -3 -2 -2 -1 0 2 4 8 14 24 31 35 42 58 84 113 142 102 34 4 -2 -3 -4 -4 -4 -4 -4 -4 -4 -4 -4 -4 -4 -4 -4 -4 -4 -4 -4 -4 -4 -4 -3 -1 8 35 86 108 68 27 14 36 94 
94 34 5 -2 -3 -4 -4 -4 -4 -4 -4 -3 -1 7 35 88 114 78 44 27 14 5 0 -2 -3 -3 -4 -4 -4 -4 -4 -4 -4 -4 -4 -4 -4 -4 -4 -4 -4 -4 -4 -4 -4 -4 -4 -4 -4 -4 -4 -4 -4 -4 -4 -4 -4 -4 -3 -3 -3 -3 -2 -2 -1 0 2 4 5 8 16 32 64 114 97 34 5 -2 -3 -4 -4 -4 -4 -4 -4 -4 -4 -4 -4 -4 -4 -4 -4 -4 -4 -4 -4 -4 -4 -4 -3 0 14 51 100 104 62 30 41 95 
94 34 5 -2 -3 -4 -4 -4 -4 -4 -3 -2 3 22 66 109 87 38 13 4 0 -2 -3 -3 -4 -4 -4 -4 -4 -4 -4 -4 -4 -4 -4 -4 -4 -4 -4 -4 -4 -4 -4 -4 -4 -4 -4 -4 -4 -4 -4 -4 -4 -4 -4 -4 -4 -4 -4 -4 -4 -4 -4 -3 -3 -3 -3 -2 -2 -1 1 11 41 99 95 34 5 -2 -3 -4 -4 -4 -4 -4 -4 -4 -4 -4 -4 -4 -4 -4 -4 -4 -4 -4 -4 -4 -4 -4 -3 -2 3 21 60 104 101 59 52 98 
95 34 5 -2 -3 -4 -4 -4 -4 -4 -3 0 14 51 101 101 52 15 1 -2 -3 -3 -4 -4 -4 -4 -4 -4 -4 -4 -4 -4 -4 -4 -4 -4 -4 -4 -4 -4 -4 -4 -4 -4 -4 -4 -4 -4 -4 -4 -4 -4 -4 -4 -4 -4 -4 -4 -4 -4 -4 -4 -4 -4 -4 -4 -4 -3 -3 -3 -1 6 35 95 95 34 5 -2 -3 -4 -4 -4 -4 -4 -4 -4 -4 -4 -4 -4 -4 -4 -4 -4 -4 -4 -4 -4 -4 -4 -4 -3 -1 5 25 67 109 94 71 103 
96 34 5 -2 -3 -4 -4 -4 -4 -3 0 8 35 86 108 66 23 3 -2 -3 -4 -4 -4 -4 -4 -4 -4 -4 -4 -4 -4 -4 -4 -4 -4 -4 -4 -4 -4 -4 -4 -4 -4 -4 -4 -4 -4 -4 -4 -4 -4 -4 -4 -4 -4 -4 -4 -4 -4 -4 -4 -4 -4 -4 -4 -4 -4 -4 -4 -3 -2 5 34 94 96 36 6 -2 -3 -4 -4 -4 -4 -4 -4 -4 -4 -4 -4 -4 -4 -4 -4 -4 -4 -4 -4 -4 -4 -4 -4 -4 -3 -1 8 35 87 114 100 115 
98 33 4 -2 -3 -4 -4 -4 -3 -1 5 25 68 109 87 36 8 0 -3 -3 -3 -3 -3 -3 -3 -3 -3 -3 -4 -4 -4 -4 -4 -4 -4 -4 -4 -4 -4 -4 -4 -4 -4 -4 -4 -4 -4 -4 -4 -4 -4 -4 -4 -4 -4 -4 -4 -4 -4 -4 -4 -4 -4 -4 -4 -4 -4 -4 -4 -3 -1 6 34 94 104 46 11 0 -2 -3 -4 -4 -4 -4 -4 -4 -4 -4 -4 -4 -4 -4 -4 -4 -4 -4 -4 -4 -4 -4 -4 -4 -4 -3 0 14 51 104 128 134 
101 33 4 -2 -3 -4 -4 -3 -1 5 24 63 107 107 59 22 7 0 -1 -2 -2 -2 -2 -2 -2 -2 -2 -2 -3 -3 -3 -3 -3 -3 -3 -3 -3 -3 -3 -4 -4 -4 -4 -4 -4 -4 -4 -4 -4 -4 -4 -4 -4 -4 -4 -4 -4 -4 -4 -4 -4 -4 -4 -4 -4 -4 -4 -4 -3 -2 1 12 41 100 124 73 28 8 1 -2 -3 -3 -4 -4 -4 -4 -4 -4 -4 -4 -4 -4 -4 -4 -4 -4 -4 -4 -4 -4 -4 -4 -4 -3 -2 3 22 67 123 148 
102 33 4 -2 -3 -4 -3 -1 5 23 63 113 128 94 57 37 25 14 8 5 5 5 5 5 5 5 4 4 2 0 -1 -2 -2 -2 -2 -2 -2 -2 -2 -3 -3 -3 -3 -3 -3 -3 -3 -3 -3 -3 -3 -4 -4 -4 -4 -4 -4 -4 -4 -4 -4 -4 -4 -4 -4 -4 -3 -3 -1 3 14 35 69 119 149 120 70 36 16 5 0 -2 -3 -4 -4 -4 -4 -4 -4 -4 -4 -4 -4 -4 -4 -4 -4 -4 -4 -4 -4 -4 -4 -4 -3 -1 7 35 94 145 
99 33 4 -2 -3 -3 -1 5 24 62 115 148 139 115 100 91 78 57 42 36 34 34 34 34 34 34 33 30 24 14 8 5 5 5 5 5 5 4 4 2 0 -1 -2 -2 -2 -2 -2 -2 -2 -2 -2 -3 -3 -3 -3 -3 -3 -3 -3 -3 -3 -3 -4 -4 -3 -3 -2 0 7 22 51 86 111 121 122 123 113 88 57 32 14 3 -1 -3 -3 -4 -4 -4 -4 -4 -4 -4 -4 -4 -4 -4 -4 -4 -4 -4 -4 -4 -4 -4 -4 -3 1 17 61 124 
96 34 5 -2 -3 -1 5 24 62 106 123 114 103 97 97 101 109 109 101 96 94 94 94 94 94 94 93 89 78 57 42 36 34 34 34 34 34 33 30 24 14 8 5 5 5 5 5 5 5 4 4 2 0 -1 -2 -2 -2 -2 -2 -2 -2 -2 -2 -3 -2 0 6 16 35 66 101 109 89 63 52 63 88 107 107 85 51 22 7 0 -2 -3 -3 -4 -4 -4 -4 -4 -4 -4 -4 -4 -4 -4 -4 -4 -4 -4 -4 -4 -4 -3 -1 8 43 105 
95 34 5 -1 0 5 24 62 103 106 71 46 36 35 36 42 57 78 89 93 94 94 94 94 94 94 96 101 108 108 101 96 94 94 94 94 94 93 89 78 57 42 36 34 34 34 34 34 34 33 30 24 14 8 5 5 5 5 5 5 4 4 2 1 4 14 32 57 88 108 101 66 36 18 12 17 33 57 88 108 101 66 35 16 5 0 -2 -3 -4 -4 -4 -4 -4 -4 -4 -4 -4 -4 -4 -4 -4 -4 -4 -4 -4 -3 -2 5 36 97 
94 34 6 2 8 26 62 103 103 62 26 10 6 5 5 8 14 24 30 33 34 34 34 34 34 34 36 42 57 78 89 93 94 94 94 94 94 96 101 108 108 101 96 94 94 94 94 94 94 93 89 78 57 42 36 34 34 34 34 34 33 31 25 19 26 52 85 107 107 85 51 22 7 1 0 0 6 16 35 66 101 108 88 57 32 14 3 -1 -3 -3 -4 -4 -4 -4 -4 -4 -4 -4 -4 -4 -4 -4 -4 -4 -4 -3 -2 5 34 95 
95 36 12 16 35 67 104 103 61 24 5 0 -2 -2 -2 -1 0 2 4 4 5 5 5 5 5 5 5 8 14 24 30 33 34 34 34 34 34 36 42 57 78 89 93 94 94 94 94 94 94 96 101 108 108 101 96 94 94 94 94 94 93 90 81 69 78 105 109 88 57 32 14 3 -1 -3 -3 -3 -1 0 7 22 51 85 107 107 85 51 22 7 0 -2 -3 -3 -4 -4 -4 -4 -4 -4 -4 -4 -4 -4 -4 -4 -4 -3 -2 5 34 94 
96 42 30 52 86 108 100 60 23 5 -1 -3 -3 -3 -3 -3 -3 -3 -2 -2 -2 -2 -2 -2 -2 -2 -2 -1 0 2 4 4 5 5 5 5 5 5 8 14 24 30 33 34 34 34 34 34 34 36 42 57 78 89 93 94 94 94 94 95 96 103 119 133 134 111 69 36 16 6 0 -2 -3 -4 -4 -4 -3 -3 -1 3 14 32 57 88 108 101 66 35 16 5 0 -2 -3 -4 -4 -4 -4 -4 -4 -4 -4 -4 -4 -4 -4 -3 -2 5 34 94 
102 61 68 101 109 86 51 21 4 -1 -3 -4 -4 -4 -4 -4 -4 -4 -3 -3 -3 -3 -3 -3 -3 -3 -3 -3 -3 -3 -2 -2 -2 -2 -2 -2 -2 -2 -1 0 2 4 4 5 5 5 5 5 5 5 8 14 24 30 33 34 34 34 34 34 37 48 82 135 134 73 28 8 1 -2 -3 -3 -4 -4 -4 -4 -4 -4 -3 -2 0 5 16 35 66 101 108 88 57 32 14 3 -1 -3 -3 -4 -4 -4 -4 -4 -4 -4 -4 -4 -4 -3 -2 5 34 95 
116 96 110 105 67 35 14 3 -1 -3 -4 -4 -4 -4 -4 -4 -4 -4 -4 -4 -4 -4 -4 -4 -4 -4 -4 -4 -4 -4 -3 -3 -3 -3 -3 -3 -3 -3 -3 -3 -3 -2 -2 -2 -2 -2 -2 -2 -2 -2 -1 0 2 4 4 5 5 5 5 5 7 16 49 110 109 46 11 0 -2 -3 -4 -4 -4 -4 -4 -4 -4 -4 -4 -3 -3 -2 0 7 22 51 85 107 107 85 51 22 7 0 -2 -3 -3 -4 -4 -4 -4 -4 -4 -4 -4 -3 -2 5 34 96 
139 129 107 62 26 8 0 -2 -3 -4 -4 -4 -4 -4 -4 -4 -4 -4 -4 -4 -4 -4 -4 -4 -4 -4 -4 -4 -4 -4 -4 -4 -4 -4 -4 -4 -4 -4 -4 -4 -4 -3 -3 -3 -3 -3 -3 -3 -3 -3 -3 -3 -3 -2 -2 -2 -2 -2 -2 -2 0 7 37 98 98 36 6 -2 -3 -4 -4 -4 -4 -4 -4 -4 -4 -4 -4 -4 -4 -3 -3 -1 3 14 32 57 88 108 101 66 35 16 6 0 -2 -3 -3 -4 -4 -4 -4 -4 -4 -3 -2 4 34 100 
149 116 63 24 5 0 -3 -3 -4 -4 -4 -4 -4 -4 -4 -4 -4 -4 -4 -4 -4 -4 -4 -4 -4 -4 -4 -4 -4 -4 -4 -4 -4 -4 -4 -4 -4 -4 -4 -4 -4 -4 -4 -4 -4 -4 -4 -4 -4 -4 -4 -4 -4 -3 -3 -3 -3 -3 -3 -3 -2 5 34 95 95 34 5 -2 -3 -4 -4 -4 -4 -4 -4 -4 -4 -4 -4 -4 -4 -4 -4 -3 -2 0 5 16 35 66 101 108 88 57 33 15 5 0 -2 -3 -4 -4 -4 -4 -4 -3 -2 4 33 102 
129 73 26 5 -1 -3 -4 -4 -4 -4 -4 -4 -4 -4 -4 -4 -4 -4 -4 -4 -4 -4 -4 -4 -4 -4 -4 -4 -4 -4 -4 -4 -4 -4 -4 -4 -4 -4 -4 -4 -4 -4 -4 -4 -4 -4 -4 -4 -4 -4 -4 -4 -4 -4 -4 -4 -4 -4 -4 -3 -2 5 34 94 94 34 5 -2 -3 -4 -4 -4 -4 -4 -4 -4 -4 -4 -4 -4 -4 -4 -4 -4 -3 -3 -2 0 7 22 51 85 107 107 87 57 32 14 3 -1 -3 -3 -3 -4 -4 -3 -2 4 34 100 
106 46 10 0 -3 -4 -4 -4 -4 -4 -4 -4 -4 -4 -4 -4 -4 -4 -4 -4 -4 -4 -4 -4 -4 -4 -4 -4 -4 -4 -4 -4 -4 -4 -4 -4 -4 -4 -4 -4 -4 -4 -4 -4 -4 -4 -4 -4 -4 -4 -4 -4 -4 -4 -4 -4 -4 -4 -4 -3 -2 5 34 94 94 34 5 -2 -3 -4 -4 -4 -4 -4 -4 -4 -4 -4 -4 -4 -4 -4 -4 -4 -4 -4 -3 -3 -1 3 14 32 57 87 107 107 85 51 22 7 1 -1 -2 -2 -3 -3 -2 5 34 96 
97 36 6 -2 -3 -4 -4 -4 -4 -4 -4 -4 -4 -4 -4 -4 -4 -4 -4 -4 -4 -4 -4 -4 -4 -4 -4 -4 -4 -4 -4 -4 -4 -4 -4 -4 -4 -4 -4 -4 -4 -4 -4 -4 -4 -4 -4 -4 -4 -4 -4 -4 -4 -4 -4 -4 -4 -4 -4 -3 -2 5 34 94 94 34 5 -2 -3 -4 -4 -4 -4 -4 -4 -4 -4 -4 -4 -4 -4 -4 -4 -4 -4 -4 -4 -4 -3 -2 0 5 15 33 58 88 109 102 66 36 17 8 4 2 0 -1 0 6 34 95 
95 34 5 -2 -3 -4 -4 -4 -4 -4 -4 -4 -4 -4 -4 -4 -4 -4 -4 -4 -4 -4 -4 -4 -4 -4 -4 -4 -4 -4 -4 -4 -4 -4 -4 -4 -4 -4 -4 -4 -4 -4 -4 -4 -4 -4 -4 -4 -4 -4 -4 -4 -4 -4 -4 -4 -4 -4 -4 -3 -2 5 34 94 94 34 5 -2 -3 -4 -4 -4 -4 -4 -4 -4 -4 -4 -4 -4 -4 -4 -4 -4 -4 -4 -4 -4 -4 -3 -3 -1 0 6 17 38 70 109 116 93 61 42 32 24 14 8 6 11 38 96 
95 34 5 -2 -3 -3 -3 -3 -4 -4 -4 -4 -4 -4 -4 -4 -4 -4 -4 -4 -4 -4 -4 -4 -4 -4 -4 -4 -4 -4 -4 -4 -4 -4 -4 -4 -4 -4 -4 -4 -4 -4 -4 -4 -4 -4 -4 -4 -4 -4 -4 -4 -4 -4 -4 -4 -4 -4 -4 -3 -2 5 34 94 94 34 5 -2 -3 -4 -4 -4 -4 -4 -4 -4 -4 -4 -4 -4 -4 -4 -4 -4 -4 -4 -4 -4 -4 -3 -3 -2 -1 2 8 19 43 86 130 146 126 104 92 78 57 41 34 33 51 102 
99 35 6 0 -2 -2 -2 -2 -3 -3 -3 -3 -3 -3 -3 -3 -4 -4 -4 -4 -4 -4 -4 -4 -4 -4 -4 -4 -4 -4 -4 -4 -4 -4 -4 -4 -4 -4 -4 -4 -4 -4 -4 -4 -4 -4 -4 -4 -4 -4 -4 -4 -4 -4 -4 -4 -4 -4 -4 -3 -2 5 34 94 94 34 5 -2 -3 -4 -4 -4 -4 -4 -4 -4 -4 -4 -4 -4 -4 -4 -4 -4 -4 -4 -4 -3 -3 -2 -1 0 5 14 27 42 66 102 129 129 111 101 102 109 108 100 92 86 89 121 
108 42 14 6 5 5 4 4 2 0 -1 -2 -2 -2 -2 -2 -3 -3 -3 -3 -3 -3 -3 -3 -3 -4 -4 -4 -4 -4 -4 -4 -4 -4 -4 -4 -4 -4 -4 -4 -4 -4 -4 -4 -4 -4 -4 -4 -4 -4 -4 -4 -4 -4 -4 -4 -4 -4 -4 -3 -2 5 34 94 94 34 5 -2 -3 -4 -4 -4 -4 -4 -4 -4 -4 -4 -4 -4 -4 -4 -4 -4 -3 -3 -3 -2 0 3 7 16 32 55 80 97 110 108 89 61 43 38 42 57 78 91 100 113 130 148 
123 67 42 35 34 34 33 30 24 14 8 5 5 5 4 4 2 0 -1 -2 -2 -2 -2 -2 -2 -3 -3 -3 -3 -3 -3 -3 -3 -4 -4 -4 -4 -4 -4 -4 -4 -4 -4 -4 -4 -4 -4 -4 -4 -4 -4 -4 -4 -4 -4 -4 -4 -4 -4 -3 -2 5 34 94 94 34 5 -2 -3 -4 -4 -4 -4 -4 -4 -4 -4 -4 -4 -4 -4 -4 -3 -3 -2 -1 0 5 14 26 39 59 87 107 108 97 79 55 32 16 8 6 8 14 24 33 42 63 102 144 
147 118 100 95 94 94 93 89 78 57 42 36 34 34 33 30 24 14 8 5 5 5 5 4 4 2 0 -1 -2 -2 -2 -2 -2 -3 -3 -3 -3 -3 -3 -3 -3 -3 -4 -4 -4 -4 -4 -4 -4 -4 -4 -4 -4 -4 -4 -4 -4 -4 -4 -3 -2 5 34 94 94 34 5 -2 -3 -4 -4 -4 -4 -4 -4 -4 -4 -4 -4 -4 -3 -3 -2 0 3 7 16 32 55 79 96 108 107 87 59 39 26 14 5 0 -1 -2 -1 0 2 5 9 22 58 121 
144 118 100 95 94 94 96 101 108 108 101 96 94 94 93 89 78 57 42 36 34 34 34 33 30 24 14 8 5 5 5 4 4 2 0 -1 -2 -2 -2 -2 -2 -2 -3 -3 -3 -3 -3 -3 -3 -3 -4 -4 -4 -4 -4 -4 -4 -4 -4 -3 -2 5 34 94 94 34 5 -2 -3 -4 -4 -4 -4 -4 -4 -4 -4 -3 -3 -3 -2 0 5 14 26 39 59 87 107 108 96 79 55 32 16 7 3 0 -2 -3 -3 -3 -3 -3 -2 -2 0 8 39 107 
115 67 42 35 34 34 36 42 57 78 89 93 94 94 96 101 108 108 101 96 94 94 94 93 89 78 57 42 36 34 34 33 30 24 14 8 5 5 5 5 4 4 2 0 -1 -2 -2 -2 -2 -2 -3 -3 -3 -3 -3 -3 -3 -3 -3 -3 -2 5 34 94 94 34 5 -2 -3 -4 -4 -4 -4 -4 -4 -3 -3 -2 -1 0 6 15 32 55 79 96 108 107 87 59 39 26 14 5 0 -1 -2 -3 -3 -4 -4 -4 -4 -4 -4 -3 -2 5 35 98 
99 42 14 6 5 5 5 8 14 24 30 33 34 34 36 42 57 78 89 93 94 94 94 96 101 108 108 101 96 94 94 93 89 78 57 42 36 34 34 34 33 30 24 14 8 5 5 5 4 4 2 0 -1 -2 -2 -2 -2 -2 -2 -2 -1 5 34 94 94 34 5 -2 -3 -4 -4 -4 -3 -3 -3 -2 0 3 7 16 33 57 86 107 108 96 79 55 32 16 7 3 0 -2 -3 -3 -3 -4 -4 -4 -4 -4 -4 -4 -4 -3 -2 5 34 95 
95 35 6 0 -2 -2 -2 -1 0 2 4 4 5 5 5 8 14 24 30 33 34 34 34 36 42 57 78 89 93 94 94 96 101 108 108 101 96 94 94 94 93 89 78 57 42 36 34 34 33 30 24 14 8 5 5 5 5 4 4 2 1 7 35 95 95 34 5 -2 -3 -4 -3 -3 -2 -1 0 5 14 26 39 59 87 107 107 87 59 39 26 14 5 0 -1 -2 -3 -3 -4 -4 -4 -4 -4 -4 -4 -4 -4 -4 -4 -3 -2 5 34 94 
94 34 5 -2 -3 -3 -3 -3 -3 -3 -2 -2 -2 -2 -2 -1 0 2 4 4 5 5 5 5 8 14 24 30 33 34 34 36 42 57 78 89 93 94 94 94 96 101 108 108 101 96 94 94 93 89 78 57 42 36 34 34 34 33 30 24 16 17 43 100 98 36 6 -1 -3 -3 -2 0 3 7 16 32 55 79 96 108 107 86 57 33 16 7 3 0 -2 -3 -3 -3 -4 -4 -4 -4 -4 -4 -4 -4 -4 -4 -4 -4 -4 -3 -2 5 34 94 
94 34 5 -2 -3 -4 -4 -4 -4 -4 -3 -3 -3 -3 -3 -3 -3 -3 -2 -2 -2 -2 -2 -2 -1 0 2 4 4 5 5 5 8 14 24 30 33 34 34 34 36 42 57 78 89 93 94 94 96 101 108 108 101 96 94 94 94 93 89 78 58 50 69 117 110 46 11 0 -1 0 5 14 26 39 59 87 107 108 96 79 55 32 15 6 0 -1 -2 -3 -3 -4 -4 -4 -4 -4 -4 -4 -4 -4 -4 -4 -4 -4 -4 -4 -4 -3 -2 5 34 94 
94 34 5 -2 -3 -4 -4 -4 -4 -4 -4 -4 -4 -4 -4 -4 -4 -4 -3 -3 -3 -3 -3 -3 -3 -3 -3 -2 -2 -2 -2 -2 -1 0 2 4 4 5 5 5 5 8 14 24 30 33 34 34 36 42 57 78 89 93 94 94 94 96 101 109 109 106 117 145 134 74 29 12 9 16 32 55 79 96 108 107 87 59 39 26 14 5 0 -2 -3 -3 -3 -4 -4 -4 -4 -4 -4 -4 -4 -4 -4 -4 -4 -4 -4 -4 -4 -4 -4 -3 -2 5 34 94 
94 34 5 -2 -3 -4 -4 -4 -4 -4 -4 -4 -4 -4 -4 -4 -4 -4 -4 -4 -4 -4 -4 -4 -4 -4 -4 -3 -3 -3 -3 -3 -3 -3 -3 -2 -2 -2 -2 -2 -2 -1 0 2 4 4 5 5 5 8 14 24 30 33 34 34 34 36 42 57 78 90 99 114 127 112 73 48 45 61 87 107 108 96 79 55 32 16 7 3 0 -2 -3 -3 -4 -4 -4 -4 -4 -4 -4 -4 -4 -4 -4 -4 -4 -4 -4 -4 -4 -4 -4 -4 -4 -3 -2 5 34 94 
94 34 5 -2 -3 -4 -4 -4 -4 -4 -4 -4 -4 -4 -4 -4 -4 -4 -4 -4 -4 -4 -4 -4 -4 -4 -4 -4 -4 -4 -4 -4 -4 -4 -4 -3 -3 -3 -3 -3 -3 -3 -3 -3 -2 -2 -2 -2 -2 -1 0 2 4 4 5 5 5 5 8 14 24 31 36 46 73 112 127 116 108 111 107 87 59 39 26 14 5 0 -1 -2 -3 -3 -4 -4 -4 -4 -4 -4 -4 -4 -4 -4 -4 -4 -4 -4 -4 -4 -4 -4 -4 -4 -4 -4 -4 -3 -2 5 34 94 
94 34 5 -2 -3 -4 -4 -4 -4 -4 -4 -4 -4 -4 -4 -4 -4 -4 -4 -4 -4 -4 -4 -4 -4 -4 -4 -4 -4 -4 -4 -4 -4 -4 -4 -4 -4 -4 -4 -4 -4 -4 -4 -4 -3 -3 -3 -3 -3 -3 -3 -2 -2 -2 -2 -2 -2 -2 -1 0 2 4 6 11 29 74 134 144 111 83 55 33 16 7 3 0 -2 -3 -3 -3 -4 -4 -4 -4 -4 -4 -4 -4 -4 -4 -4 -4 -4 -4 -4 -4 -4 -4 -4 -4 -4 -4 -4 -4 -4 -3 -2 5 34 94 
94 34 5 -2 -3 -3 -3 -3 -3 -3 -3 -3 -3 -3 -3 -3 -3 -3 -3 -3 -3 -3 -3 -3 -3 -3 -3 -3 -3 -3 -3 -3 -3 -3 -3 -3 -3 -3 -3 -3 -3 -3 -3 -3 -3 -3 -3 -3 -3 -3 -3 -3 -3 -3 -3 -3 -3 -3 -3 -3 -2 -2 -1 0 11 46 110 117 64 32 15 6 0 -1 -2 -3 -3 -3 -3 -3 -3 -3 -3 -3 -3 -3 -3 -3 -3 -3 -3 -3 -3 -3 -3 -3 -3 -3 -3 -3 -3 -3 -3 -3 -3 -3 -2 5 34 94 
95 35 6 0 -2 -2 -2 -2 -2 -2 -2 -2 -2 -2 -2 -2 -2 -2 -2 -2 -2 -2 -2 -2 -2 -2 -2 -2 -2 -2 -2 -2 -2 -2 -2 -2 -2 -2 -2 -2 -2 -2 -2 -2 -2 -2 -2 -2 -2 -2 -2 -2 -2 -2 -2 -2 -2 -2 -2 -2 -2 -2 -1 0 8 38 99 101 43 13 3 0 -1 -2 -2 -2 -2 -2 -2 -2 -2 -2 -2 -2 -2 -2 -2 -2 -2 -2 -2 -2 -2 -2 -2 -2 -2 -2 -2 -2 -2 -2 -2 -2 -2 -2 0 6 35 95 
100 42 14 6 5 5 5 5 5 5 5 5 5 5 5 5 5 5 5 5 5 5 5 5 5 5 5 5 5 5 5 5 4 4 4 5 5 5 5 5 5 5 5 5 5 5 5 5 5 4 4 5 5 5 5 5 5 5 5 5 5 5 5 6 14 42 101 101 43 15 7 5 5 5 5 5 5 5 5 5 5 5 5 5 5 5 5 5 5 5 5 4 4 4 5 5 5 5 5 5 5 5 5 4 4 5 6 14 42 100 
119 67 42 35 34 34 34 34 34 34 34 34 34 34 34 34 34 34 34 34 34 34 34 34 34 34 34 34 34 34 34 34 34 33 34 34 34 34 34 34 34 34 34 34 34 34 34 34 34 34 34 34 34 34 34 34 34 34 34 34 34 34 34 35 42 67 118 118 67 42 35 34 34 34 34 34 34 34 34 34 34 34 34 34 34 34 34 34 34 34 34 34 33 34 34 34 34 34 34 34 34 34 34 34 33 34 35 42 67 119 
154 119 100 95 94 94 94 94 94 94 94 94 94 94 94 94 94 94 94 94 94 94 94 94 94 94 94 94 94 94 95 96 100 102 100 96 95 94 94 94 94 94 94 94 94 94 94 95 97 102 102 97 95 94 94 94 94 94 94 94 94 94 94 95 99 115 143 143 115 99 95 94 94 94 94 94 94 94 94 94 94 94 94 94 94 94 94 94 94 95 96 99 102 100 96 95 94 94 94 94 94 94 96 99 102 100 98 101 119 154 
