P2
110 110
255
154 123 103 97 96 95 95 95 95 95 95 95 95 95 95 95 95 95 95 95 95 95 95 95 95 95 95 95 96 98 103 118 139 145 127 108 99 96 95 95 95 95 95 95 95 96 97 102 118 142 142 118 102 97 96 95 95 95 95 95 95 95 95 96 96 99 103 103 99 96 96 95 95 95 95 95 95 95 95 95 95 95 95 95 95 95 95 95 96 100 113 135 146 129 109 99 96 95 95 95 96 100 111 133 146 130 111 107 124 155 
123 78 51 43 41 40 40 40 40 40 40 40 40 40 40 40 40 40 40 40 40 40 40 40 40 40 40 40 42 47 63 96 129 119 80 54 44 41 40 40 40 40 40 40 40 41 43 52 80 125 123 78 51 43 41 40 40 40 40 40 40 40 40 40 40 40 40 40 40 40 40 40 40 40 40 40 40 40 40 40 40 40 40 40 40 40 40 41 43 53 80 121 126 87 57 44 41 40 40 40 42 49 71 114 129 91 60 56 79 123 
103 51 21 11 9 9 9 9 9 9 9 9 9 9 9 9 9 9 9 9 9 9 9 9 9 9 9 10 13 24 53 98 113 75 36 17 11 9 9 9 9 9 9 9 9 10 13 25 61 114 106 51 21 11 9 9 9 9 9 9 9 9 9 9 9 9 8 8 9 9 9 9 9 9 9 9 9 9 9 9 9 9 9 9 9 9 9 10 15 31 71 113 94 47 20 12 9 9 9 9 11 21 51 102 107 57 26 24 52 104 
97 43 11 2 0 0 0 0 0 0 0 0 0 0 0 0 0 0 0 0 0 0 0 0 0 0 0 2 10 31 73 109 88 42 14 3 0 0 0 0 0 0 0 0 0 1 6 25 70 123 102 42 11 2 0 0 0 0 0 0 0 0 0 0 0 0 0 0 0 0 0 0 0 0 0 0 0 0 0 0 0 0 0 0 0 0 0 1 9 34 84 108 66 24 6 0 0 0 0 0 3 15 51 102 93 41 14 14 43 97 
96 41 9 0 -2 -2 -2 -2 -2 -2 -2 -2 -2 -2 -2 -2 -2 -2 -2 -2 -2 -2 -2 -2 -2 -2 -1 4 20 57 101 101 57 20 3 -1 -2 -2 -2 -2 -2 -2 -2 -2 -2 0 10 39 95 139 103 40 9 0 -2 -2 -2 -2 -2 -2 -2 -2 -2 -2 -2 -2 -2 -2 -2 -2 -2 -2 -2 -2 -2 -2 -2 -2 -2 -2 -2 -2 -2 -2 -2 -2 -2 1 13 46 98 97 46 12 1 -2 -2 -2 -2 -1 3 20 63 107 80 30 9 11 41 96 
95 40 9 0 -2 -3 -3 -3 -3 -3 -3 -3 -3 -3 -3 -3 -3 -3 -3 -3 -3 -3 -3 -3 -3 -2 1 12 41 88 107 71 29 7 0 -2 -3 -3 -3 -3 -3 -3 -3 -2 -1 3 21 63 120 146 103 40 9 0 -2 -3 -3 -3 -3 -3 -3 -3 -3 -3 -3 -3 -3 -3 -3 -3 -3 -3 -3 -3 -3 -3 -3 -3 -3 -3 -3 -3 -3 -3 -3 -2 -1 3 22 65 107 81 31 6 0 -2 -3 -3 -2 -1 5 30 80 107 63 20 5 10 40 95 
95 40 9 0 -2 -3 -3 -3 -3 -3 -3 -3 -3 -3 -3 -3 -3 -3 -3 -3 -3 -3 -3 -3 -2 0 7 29 71 107 88 41 12 1 -2 -3 -3 -3 -3 -3 -3 -3 -3 -2 0 10 39 90 130 138 103 42 10 0 -2 -3 -3 -3 -3 -3 -3 -3 -3 -3 -3 -3 -3 -3 -3 -3 -3 -3 -3 -3 -3 -3 -3 -3 -3 -3 -3 -3 -3 -3 -3 -2 0 9 39 88 105 60 19 2 -2 -3 -3 -3 -2 0 8 38 92 100 48 13 3 9 40 95 
95 40 9 0 -2 -3 -3 -3 -3 -3 -3 -3 -3 -3 -3 -3 -3 -3 -3 -3 -3 -3 -3 -2 -1 3 20 57 100 100 57 20 3 -1 -2 -3 -3 -3 -3 -3 -3 -3 -2 -1 4 22 63 110 119 123 106 49 13 0 -2 -3 -3 -3 -3 -3 -3 -3 -3 -3 -3 -3 -3 -3 -3 -3 -3 -3 -3 -3 -3 -3 -3 -3 -3 -3 -3 -3 -3 -3 -3 -2 2 19 60 105 88 38 9 0 -2 -3 -3 -3 -2 0 12 48 100 92 38 9 2 9 40 95 
95 40 9 0 -2 -3 -3 -3 -3 -3 -3 -3 -3 -3 -3 -3 -3 -3 -3 -3 -3 -3 -3 -2 1 12 41 88 107 71 29 7 0 -2 -3 -3 -3 -3 -3 -3 -3 -3 -2 1 12 42 90 111 92 101 110 63 19 2 -2 -3 -3 -3 -3 -3 -3 -3 -3 -3 -3 -3 -3 -3 -3 -3 -3 -3 -3 -3 -3 -3 -3 -3 -3 -3 -3 -3 -3 -3 -2 -1 6 31 81 107 65 22 3 -1 -3 -3 -3 -3 -2 2 20 63 107 80 30 6 1 9 40 95 
95 40 9 0 -2 -3 -3 -3 -3 -3 -3 -3 -3 -3 -3 -3 -3 -3 -3 -3 -3 -3 -2 0 7 29 71 107 88 41 12 1 -2 -3 -3 -3 -3 -3 -3 -3 -3 -2 0 7 29 71 108 91 61 75 109 79 29 5 -1 -3 -3 -3 -3 -3 -3 -3 -3 -3 -3 -3 -3 -3 -3 -3 -3 -3 -3 -3 -3 -3 -3 -3 -3 -3 -3 -3 -3 -3 -2 0 12 46 97 97 46 12 0 -2 -3 -3 -3 -2 -1 5 29 80 107 63 20 3 0 9 40 95 
95 40 9 0 -2 -3 -3 -3 -3 -3 -3 -3 -3 -3 -3 -3 -3 -3 -3 -3 -3 -2 -1 3 20 57 100 100 57 20 3 -1 -2 -3 -3 -3 -3 -3 -3 -3 -3 -1 3 19 56 100 101 60 35 56 102 89 36 7 0 -2 -3 -3 -3 -3 -3 -3 -3 -3 -3 -3 -3 -3 -3 -3 -3 -3 -3 -3 -3 -3 -3 -3 -3 -3 -3 -3 -3 -3 -1 3 22 65 107 81 31 6 -1 -2 -3 -3 -3 -2 0 8 38 92 100 48 13 1 0 9 40 95 
96 41 9 0 -2 -3 -3 -3 -3 -3 -3 -3 -3 -3 -3 -3 -3 -3 -3 -3 -3 -2 1 12 41 88 107 71 29 7 0 -2 -3 -3 -3 -3 -3 -3 -3 -3 -2 0 10 38 86 107 72 32 20 45 98 94 39 8 0 -2 -3 -3 -3 -3 -3 -3 -3 -3 -3 -3 -3 -3 -3 -3 -3 -3 -3 -3 -3 -3 -3 -3 -3 -3 -3 -3 -3 -2 0 9 38 88 105 60 19 2 -2 -3 -3 -3 -3 -2 0 12 48 100 92 38 9 0 0 9 40 95 
99 44 11 0 -2 -3 -3 -3 -3 -3 -3 -3 -3 -3 -3 -3 -3 -3 -3 -3 -2 0 7 29 71 107 88 41 12 1 -2 -3 -3 -3 -3 -3 -3 -3 -3 -3 -1 3 21 62 105 90 43 15 13 41 96 95 40 9 0 -2 -3 -3 -3 -3 -3 -3 -3 -3 -3 -3 -3 -3 -3 -3 -3 -3 -3 -3 -3 -3 -3 -3 -3 -3 -3 -3 -3 -2 2 19 60 105 88 38 9 0 -2 -3 -3 -3 -3 -2 2 20 63 107 80 29 5 0 0 9 40 96 
108 54 17 2 -1 -3 -3 -3 -3 -3 -3 -3 -3 -3 -3 -3 -3 -3 -3 -2 -1 3 20 57 100 100 57 20 3 -1 -2 -3 -3 -3 -3 -3 -3 -3 -3 -2 0 10 39 88 106 63 22 6 10 39 94 97 43 10 0 -2 -3 -3 -3 -3 -3 -3 -3 -3 -3 -3 -3 -3 -3 -3 -3 -3 -3 -3 -3 -3 -3 -3 -3 -3 -3 -3 -2 -1 6 31 81 107 65 22 3 -1 -3 -3 -3 -3 -2 -1 5 29 80 107 63 20 2 -1 0 9 40 98 
127 79 34 10 0 -2 -3 -3 -3 -3 -3 -3 -3 -3 -3 -3 -3 -3 -3 -2 1 12 41 88 107 71 29 7 0 -2 -3 -3 -3 -3 -3 -3 -3 -3 -2 -1 4 22 63 106 88 39 10 2 8 36 89 101 49 13 0 -2 -3 -3 -3 -3 -3 -3 -3 -3 -3 -3 -3 -3 -3 -3 -3 -3 -3 -3 -3 -3 -3 -3 -3 -3 -3 -3 -2 0 12 46 97 97 46 12 0 -2 -3 -3 -3 -3 -2 0 8 38 92 100 48 13 0 -2 0 8 40 101 
145 117 68 30 8 0 -2 -3 -3 -3 -3 -3 -3 -3 -3 -3 -3 -3 -2 0 7 29 71 107 88 41 12 1 -2 -3 -3 -3 -3 -3 -3 -3 -3 -3 -2 1 12 42 90 105 62 21 4 0 5 29 79 107 63 20 2 -2 -3 -3 -3 -3 -3 -3 -3 -3 -3 -3 -3 -3 -3 -3 -3 -3 -3 -3 -3 -3 -3 -3 -3 -3 -3 -3 -1 3 22 65 107 81 31 6 -1 -2 -3 -3 -3 -3 -2 0 12 48 100 92 38 8 0 -2 0 8 40 103 
140 131 106 64 26 6 0 -2 -3 -3 -3 -3 -3 -3 -3 -3 -3 -2 -1 3 20 57 100 100 57 20 3 -1 -2 -3 -3 -3 -3 -3 -3 -3 -3 -2 0 7 29 71 107 86 38 10 0 -1 2 20 63 107 79 29 5 -1 -3 -3 -3 -3 -3 -3 -3 -3 -3 -3 -3 -3 -3 -3 -3 -3 -3 -3 -3 -3 -3 -3 -3 -3 -3 -2 0 9 38 88 105 60 19 2 -2 -3 -3 -3 -3 -3 -2 2 20 63 107 80 29 5 -1 -2 0 8 40 102 
121 106 112 100 56 19 3 -1 -2 -3 -3 -3 -3 -3 -3 -3 -3 -2 1 12 41 88 107 71 29 7 0 -2 -3 -3 -3 -3 -3 -3 -3 -3 -3 -1 3 19 56 100 100 56 19 3 -1 -2 0 13 49 101 89 36 7 0 -2 -3 -3 -3 -3 -3 -3 -3 -3 -3 -3 -3 -3 -3 -3 -3 -3 -3 -3 -3 -3 -3 -3 -3 -3 -2 2 19 60 105 88 38 9 0 -2 -3 -3 -3 -3 -2 -1 5 29 80 107 63 20 2 -2 -2 0 9 40 98 
106 75 84 109 88 42 13 1 -1 -3 -3 -3 -3 -3 -3 -3 -2 0 7 29 71 107 88 41 12 1 -2 -3 -3 -3 -3 -3 -3 -3 -3 -3 -2 0 10 38 86 107 71 29 7 0 -2 -2 0 10 43 97 94 39 8 0 -2 -3 -3 -3 -3 -3 -3 -3 -3 -3 -3 -3 -3 -3 -3 -3 -3 -3 -3 -3 -3 -3 -3 -3 -2 -1 6 31 81 107 65 22 3 -1 -3 -3 -3 -3 -3 -2 0 8 38 92 100 48 12 0 -2 -2 0 9 40 96 
99 56 54 90 107 73 33 10 1 -2 -3 -3 -3 -3 -3 -2 -1 3 20 57 100 100 57 20 3 -1 -2 -3 -3 -3 -3 -3 -3 -3 -3 -3 -1 3 21 62 105 90 42 12 1 -2 -3 -2 0 9 40 95 95 40 9 0 -2 -3 -3 -3 -3 -3 -3 -3 -3 -3 -3 -3 -3 -3 -3 -3 -3 -3 -3 -3 -3 -3 -3 -3 -2 0 12 46 97 97 46 12 0 -2 -3 -3 -3 -3 -3 -2 0 12 48 100 92 38 8 0 -2 -2 0 9 40 96 
97 47 32 58 99 103 67 30 9 0 -2 -3 -3 -3 -3 -2 1 12 41 88 107 71 29 7 0 -2 -3 -3 -3 -3 -3 -3 -3 -3 -3 -2 0 10 39 88 106 63 22 4 -1 -2 -3 -2 0 8 39 94 97 43 10 0 -2 -3 -3 -3 -3 -3 -3 -3 -3 -3 -3 -3 -3 -3 -3 -3 -3 -3 -3 -3 -3 -3 -3 -3 -1 3 22 65 107 81 31 6 -1 -2 -3 -3 -3 -3 -3 -2 2 20 63 107 80 29 5 -1 -2 -2 0 9 40 95 
96 43 19 29 65 102 102 66 30 9 0 -2 -3 -3 -2 0 7 29 71 107 88 41 12 1 -2 -3 -3 -3 -3 -3 -3 -3 -3 -3 -2 -1 4 22 63 106 88 39 10 0 -2 -3 -3 -2 0 7 36 89 101 49 13 0 -2 -3 -3 -3 -3 -3 -3 -3 -3 -3 -3 -3 -3 -3 -3 -3 -3 -3 -3 -3 -3 -3 -3 -2 0 9 38 88 105 60 19 2 -2 -3 -3 -3 -3 -3 -2 -1 5 29 80 107 63 20 2 -2 -3 -2 0 9 40 95 
95 41 12 11 30 66 102 102 66 30 9 0 -2 -2 -1 3 20 57 100 100 57 20 3 -1 -2 -3 -3 -3 -3 -3 -3 -3 -3 -3 -2 1 12 42 90 105 62 21 3 -1 -3 -3 -3 -3 -1 5 29 79 107 63 20 2 -2 -3 -3 -3 -3 -3 -3 -3 -3 -3 -3 -3 -3 -3 -3 -3 -3 -3 -3 -3 -3 -3 -3 -2 2 19 60 105 88 38 9 0 -2 -3 -3 -3 -3 -3 -2 0 8 38 92 100 48 12 0 -2 -3 -2 0 9 40 95 
95 40 10 3 10 30 66 102 102 66 30 9 1 -1 1 12 41 88 107 71 29 7 0 -2 -3 -3 -3 -3 -3 -3 -3 -3 -3 -2 0 7 29 71 107 86 38 10 0 -2 -3 -3 -3 -3 -2 2 20 63 107 79 29 5 -1 -3 -3 -3 -3 -3 -3 -3 -3 -3 -3 -3 -3 -3 -3 -3 -3 -3 -3 -3 -3 -3 -2 -1 6 31 81 107 65 22 3 -1 -3 -3 -3 -3 -3 -3 -2 0 12 48 100 92 38 8 0 -2 -3 -2 0 9 40 95 
95 40 9 0 1 9 30 66 102 102 66 30 10 3 8 29 71 107 88 41 12 1 -2 -3 -3 -3 -3 -3 -3 -3 -3 -3 -3 -1 3 19 56 100 100 56 19 3 -1 -3 -3 -3 -3 -3 -2 0 13 49 101 90 36 7 0 -2 -3 -3 -3 -3 -3 -3 -3 -3 -3 -3 -3 -3 -3 -3 -3 -3 -3 -3 -3 -3 -2 0 12 46 97 97 46 12 0 -2 -3 -3 -3 -3 -3 -3 -2 2 20 63 107 80 29 5 -1 -2 -3 -2 0 9 40 95 
95 40 9 0 -1 1 9 30 66 102 102 67 32 16 24 58 101 100 57 20 3 -1 -2 -3 -3 -3 -3 -3 -3 -3 -3 -3 -2 0 10 38 86 107 71 29 7 0 -2 -3 -3 -3 -3 -3 -2 0 10 43 97 94 39 9 0 -2 -3 -3 -3 -3 -3 -3 -3 -3 -3 -3 -3 -3 -3 -3 -3 -3 -3 -3 -3 -3 -1 3 22 65 107 81 31 6 -1 -2 -3 -3 -3 -3 -3 -2 -1 5 29 80 107 63 20 2 -2 -3 -3 -2 0 9 40 95 
95 40 9 0 -2 -2 0 9 30 66 102 103 70 45 53 91 107 71 29 7 0 -2 -3 -3 -3 -3 -3 -3 -3 -3 -3 -3 -1 3 21 62 105 90 42 12 1 -2 -3 -3 -3 -3 -3 -3 -2 0 9 39 94 97 43 10 0 -2 -3 -3 -3 -3 -3 -3 -3 -3 -3 -3 -3 -3 -3 -3 -3 -3 -3 -3 -3 -2 0 9 38 88 105 60 19 2 -2 -3 -3 -3 -3 -3 -3 -2 0 8 38 92 100 48 12 0 -2 -3 -3 -2 0 9 40 95 
95 40 9 0 -2 -2 -2 0 9 30 67 103 109 94 98 113 88 41 12 1 -2 -3 -3 -3 -3 -3 -3 -3 -3 -3 -3 -2 0 10 39 88 106 63 22 4 -1 -2 -3 -3 -3 -3 -3 -3 -2 0 7 36 90 101 49 13 0 -2 -3 -3 -3 -3 -3 -3 -3 -3 -3 -3 -3 -3 -3 -3 -3 -3 -3 -3 -3 -2 2 19 60 105 88 38 9 0 -2 -3 -3 -3 -3 -3 -3 -2 0 12 48 100 92 38 8 0 -2 -3 -3 -2 0 9 40 95 
95 40 9 0 -2 -3 -3 -2 0 9 30 68 111 136 136 108 57 20 3 -1 -2 -3 -3 -3 -3 -3 -3 -3 -3 -3 -2 -1 4 22 63 106 88 39 10 0 -2 -3 -3 -3 -3 -3 -3 -3 -3 -1 5 29 79 107 63 20 2 -2 -3 -3 -3 -3 -3 -3 -3 -3 -3 -3 -3 -3 -3 -3 -3 -3 -3 -3 -2 -1 6 31 81 107 65 22 3 -1 -3 -3 -3 -3 -3 -3 -3 -2 2 20 63 107 80 29 5 -1 -2 -3 -3 -2 0 9 40 95 
95 40 9 0 -2 -3 -3 -3 -2 1 10 34 79 133 133 78 30 7 0 -2 -3 -3 -3 -3 -3 -3 -3 -3 -3 -3 -2 1 12 42 90 105 62 21 3 -1 -3 -3 -3 -3 -3 -3 -3 -3 -3 -2 2 20 63 107 79 29 5 -1 -3 -3 -3 -3 -3 -3 -3 -3 -3 -3 -3 -3 -3 -3 -3 -3 -3 -3 -2 0 12 46 97 97 46 12 0 -2 -3 -3 -3 -3 -3 -3 -2 -1 5 29 80 107 63 20 2 -2 -3 -3 -3 -2 0 9 40 95 
95 40 9 0 -2 -3 -3 -3 -3 -1 2 16 53 110 113 56 17 2 -2 -3 -3 -3 -3 -3 -3 -3 -3 -3 -3 -2 0 7 29 71 107 86 38 10 0 -2 -3 -3 -3 -3 -3 -3 -3 -3 -3 -2 0 13 49 101 89 36 7 0 -2 -3 -3 -3 -3 -3 -3 -3 -3 -3 -3 -3 -3 -3 -3 -3 -3 -3 -1 3 22 65 107 81 31 6 -1 -2 -3 -3 -3 -3 -3 -3 -2 0 8 38 92 100 48 12 0 -2 -3 -3 -3 -2 0 9 40 95 
95 40 9 0 -2 -3 -3 -3 -3 -2 0 9 39 94 106 53 15 1 -2 -3 -3 -3 -3 -3 -3 -3 -3 -3 -3 -1 3 19 56 100 100 56 19 3 -1 -3 -3 -3 -3 -3 -3 -3 -3 -3 -3 -2 0 10 43 97 94 39 8 0 -2 -3 -3 -3 -3 -3 -3 -3 -3 -3 -3 -3 -3 -3 -3 -3 -3 -2 0 9 38 88 105 60 19 2 -2 -3 -3 -3 -3 -3 -3 -3 -2 0 12 48 100 92 38 8 0 -2 -3 -3 -3 -2 0 9 40 95 
95 40 9 0 -2 -3 -3 -3 -3 -2 -1 5 30 80 108 63 20 2 -2 -3 -3 -3 -3 -3 -3 -3 -3 -3 -2 0 10 38 86 107 71 29 7 0 -2 -3 -3 -3 -3 -3 -3 -3 -3 -3 -3 -2 0 9 40 95 95 40 9 0 -2 -3 -3 -3 -3 -3 -3 -3 -3 -3 -3 -3 -3 -3 -3 -3 -3 -2 2 19 60 105 88 38 9 0 -2 -3 -3 -3 -3 -3 -3 -3 -2 2 20 63 107 80 29 5 -1 -2 -3 -3 -3 -2 0 9 40 95 
95 40 9 0 -2 -3 -3 -3 -3 -3 -2 2 20 63 107 79 29 5 -1 -3 -3 -3 -3 -3 -3 -3 -3 -3 -1 3 21 62 105 90 42 12 1 -2 -3 -3 -3 -3 -3 -3 -3 -3 -3 -3 -3 -2 0 8 39 94 97 43 10 0 -2 -3 -3 -3 -3 -3 -3 -3 -3 -3 -3 -3 -3 -3 -3 -3 -2 -1 6 31 81 107 65 22 3 -1 -3 -3 -3 -3 -3 -3 -3 -2 -1 5 29 80 107 63 20 2 -2 -3 -3 -3 -3 -2 0 9 40 95 
95 40 9 0 -2 -3 -3 -3 -3 -3 -2 0 13 49 101 90 36 8 0 -2 -3 -3 -3 -3 -3 -3 -3 -2 0 10 39 88 106 63 22 4 -1 -2 -3 -3 -3 -3 -3 -3 -3 -3 -3 -3 -3 -2 0 7 36 89 101 49 13 0 -2 -3 -3 -3 -3 -3 -3 -3 -3 -3 -3 -3 -3 -3 -3 -3 -2 0 12 46 97 97 46 12 0 -2 -3 -3 -3 -3 -3 -3 -3 -2 0 8 38 92 100 48 12 0 -2 -3 -3 -3 -3 -2 0 9 41 96 
96 40 9 0 -2 -3 -3 -3 -3 -3 -2 0 9 42 96 96 42 9 0 -2 -3 -3 -3 -3 -3 -3 -2 -1 4 22 63 106 88 39 10 0 -2 -3 -3 -3 -3 -3 -3 -3 -3 -3 -3 -3 -3 -3 -1 5 29 79 107 63 20 2 -2 -3 -3 -3 -3 -3 -3 -3 -3 -3 -3 -3 -3 -3 -3 -3 -1 3 22 65 107 81 31 6 -1 -2 -3 -3 -3 -3 -3 -3 -3 -2 0 12 48 100 92 38 8 0 -2 -3 -3 -3 -3 -2 0 10 43 98 
97 40 9 0 -2 -3 -3 -3 -3 -3 -2 0 8 36 90 101 49 13 0 -2 -3 -3 -3 -3 -3 -3 -2 1 12 42 90 105 62 21 3 -1 -3 -3 -3 -3 -3 -3 -3 -3 -3 -3 -3 -3 -3 -3 -2 2 20 63 107 79 29 5 -1 -3 -3 -3 -3 -3 -3 -3 -3 -3 -3 -3 -3 -3 -3 -2 0 9 38 88 105 60 19 2 -2 -3 -3 -3 -3 -3 -3 -3 -3 -2 2 20 63 107 80 29 5 -1 -2 -3 -3 -3 -3 -2 0 13 50 106 
100 40 8 0 -2 -3 -3 -3 -3 -3 -3 -1 5 29 79 107 63 20 2 -2 -3 -3 -3 -3 -3 -2 0 7 29 71 107 86 38 10 0 -2 -3 -3 -3 -3 -3 -3 -3 -3 -3 -3 -3 -3 -3 -3 -2 0 13 49 101 89 36 7 0 -2 -3 -3 -3 -3 -3 -3 -3 -3 -3 -3 -3 -3 -3 -2 2 19 60 105 88 38 9 0 -2 -3 -3 -3 -3 -3 -3 -3 -2 -1 5 29 80 107 63 20 2 -2 -3 -3 -3 -3 -2 -1 4 23 68 122 
103 39 8 0 -2 -3 -3 -3 -3 -3 -3 -2 2 20 63 107 79 29 5 -1 -3 -3 -3 -3 -3 -1 3 19 56 100 100 56 19 3 -1 -3 -3 -3 -3 -3 -3 -3 -3 -3 -3 -3 -3 -3 -3 -3 -2 0 10 43 97 94 39 8 0 -2 -3 -3 -3 -3 -3 -3 -3 -3 -3 -3 -3 -3 -2 -1 6 31 81 107 65 22 3 -1 -3 -3 -3 -3 -3 -3 -3 -3 -2 0 8 38 92 100 48 12 0 -2 -3 -3 -3 -3 -2 1 12 42 96 139 
102 39 8 0 -2 -3 -3 -3 -3 -3 -3 -2 0 13 49 101 90 36 8 0 -2 -3 -3 -3 -2 0 10 38 86 107 71 29 7 0 -2 -3 -3 -3 -3 -3 -3 -3 -3 -3 -3 -3 -3 -3 -3 -3 -2 0 9 40 95 95 40 9 0 -2 -3 -3 -3 -3 -3 -3 -3 -3 -3 -3 -3 -3 -2 0 12 46 97 97 46 12 0 -2 -3 -3 -3 -3 -3 -3 -3 -3 -2 0 12 48 100 92 38 8 0 -2 -3 -3 -3 -2 0 7 29 72 123 146 
100 40 8 0 -2 -3 -3 -3 -3 -3 -3 -2 0 9 42 96 96 42 9 0 -2 -3 -3 -3 -1 3 21 62 105 90 42 12 1 -2 -3 -3 -3 -3 -3 -3 -3 -3 -3 -3 -3 -3 -3 -3 -3 -3 -2 0 8 39 94 97 43 10 0 -2 -3 -3 -3 -3 -3 -3 -3 -3 -3 -3 -3 -3 -1 3 22 65 107 81 31 6 -1 -2 -3 -3 -3 -3 -3 -3 -3 -3 -2 2 20 63 107 80 29 5 -1 -2 -3 -3 -2 -1 3 20 57 104 130 136 
98 40 9 0 -2 -3 -3 -3 -3 -3 -3 -2 0 8 36 90 101 49 13 0 -2 -3 -3 -2 0 10 39 88 106 63 22 4 -1 -2 -3 -3 -3 -3 -3 -3 -3 -3 -3 -3 -3 -3 -3 -3 -3 -3 -2 0 7 36 89 101 49 13 0 -2 -3 -3 -3 -3 -3 -3 -3 -3 -3 -3 -3 -2 0 9 38 88 105 60 19 2 -2 -3 -3 -3 -3 -3 -3 -3 -3 -2 -1 5 29 80 107 63 20 2 -2 -3 -3 -3 -2 1 12 41 88 115 109 120 
97 40 9 0 -2 -3 -3 -3 -3 -3 -3 -3 -1 5 29 79 107 63 20 2 -2 -3 -2 -1 4 22 63 106 88 39 10 0 -2 -3 -3 -3 -3 -3 -3 -3 -3 -3 -3 -3 -3 -3 -3 -3 -3 -3 -3 -1 5 29 79 107 63 20 3 -1 -2 -2 -3 -3 -3 -3 -3 -3 -3 -3 -3 -2 2 19 60 105 88 38 9 0 -2 -3 -3 -3 -3 -3 -3 -3 -3 -2 0 8 38 92 100 48 12 0 -2 -3 -3 -2 0 7 29 71 108 98 83 108 
96 40 9 0 -2 -3 -3 -3 -3 -3 -3 -3 -2 2 20 63 107 79 29 5 -1 -2 -2 1 12 42 90 105 62 21 3 -1 -3 -3 -3 -3 -3 -3 -3 -3 -3 -3 -3 -3 -3 -3 -3 -3 -3 -3 -3 -1 2 20 64 108 81 31 8 1 0 -1 -2 -2 -2 -2 -2 -2 -3 -3 -2 0 6 31 81 107 65 22 3 -1 -3 -3 -3 -3 -3 -3 -3 -3 -3 -2 0 12 48 100 92 38 8 0 -2 -3 -2 -1 3 20 57 101 102 68 63 101 
95 40 9 0 -2 -3 -3 -3 -3 -3 -3 -3 -2 0 13 49 101 90 36 8 0 -2 0 7 29 71 107 86 38 10 0 -2 -3 -3 -3 -3 -3 -3 -3 -3 -3 -3 -3 -3 -3 -3 -3 -3 -3 -3 -3 -1 2 16 54 107 97 47 19 11 8 5 2 0 0 0 0 0 -1 -1 -1 1 13 46 97 97 46 12 0 -2 -3 -3 -3 -3 -3 -3 -3 -3 -3 -2 2 20 63 107 80 29 5 -1 -2 -3 -2 1 12 41 88 107 73 41 50 98 
95 40 9 0 -2 -3 -3 -3 -3 -3 -3 -3 -2 0 9 42 96 96 42 10 0 -1 3 19 56 100 100 56 19 3 -1 -3 -3 -3 -3 -3 -3 -3 -3 -3 -3 -3 -3 -3 -3 -3 -3 -3 -3 -2 -2 0 5 21 59 116 119 76 50 41 36 29 20 13 10 9 8 7 5 2 2 6 24 66 107 81 31 6 -1 -2 -3 -3 -3 -3 -3 -3 -3 -3 -2 -1 5 29 80 107 63 20 2 -2 -3 -2 0 7 29 71 107 88 44 24 44 96 
95 40 9 0 -2 -3 -3 -3 -3 -3 -3 -3 -2 0 8 36 90 101 49 13 1 0 10 38 86 107 71 29 7 0 -2 -3 -3 -3 -3 -3 -3 -3 -3 -3 -3 -3 -3 -3 -3 -3 -3 -3 -2 -1 1 7 21 46 87 135 143 118 102 95 90 79 63 49 43 40 39 36 29 20 16 22 47 93 106 60 19 2 -2 -3 -3 -3 -3 -3 -3 -3 -3 -3 -2 0 8 38 92 100 48 12 0 -2 -2 -1 3 20 57 100 100 57 22 16 42 96 
95 40 9 0 -2 -3 -3 -3 -3 -3 -3 -3 -3 -1 5 29 79 107 63 20 4 4 21 62 105 90 42 12 1 -2 -3 -3 -3 -3 -3 -3 -3 -3 -3 -3 -3 -3 -3 -3 -3 -3 -2 -2 0 3 12 29 57 90 115 124 114 103 98 98 101 107 107 101 97 95 94 89 79 64 54 60 87 117 93 40 10 0 -2 -3 -3 -3 -3 -3 -3 -3 -3 -3 -2 0 12 48 100 92 38 8 0 -2 -2 1 12 41 88 107 71 29 10 11 41 95 
95 40 9 0 -2 -3 -3 -3 -3 -3 -3 -3 -3 -2 2 20 63 107 79 30 9 12 39 88 106 63 22 4 -1 -2 -3 -3 -3 -3 -3 -3 -3 -3 -3 -3 -3 -3 -3 -3 -3 -2 -1 1 7 20 41 71 101 108 92 68 51 43 41 43 49 63 79 89 94 95 97 101 107 108 106 114 135 132 78 27 5 -1 -2 -3 -3 -3 -3 -3 -3 -3 -3 -3 -2 2 20 63 107 80 29 5 -1 -2 0 7 29 71 107 88 41 12 3 10 40 95 
95 40 9 0 -2 -3 -3 -3 -3 -3 -3 -3 -3 -2 0 13 49 101 90 38 15 24 63 106 88 39 10 0 -2 -3 -3 -3 -3 -3 -3 -3 -3 -3 -3 -3 -3 -3 -3 -3 -2 0 3 12 29 57 88 107 100 71 42 23 13 10 9 10 13 20 29 36 39 40 43 49 63 80 94 111 134 132 78 28 6 0 -2 -3 -3 -3 -3 -3 -3 -3 -3 -2 -1 5 30 80 107 63 20 2 -1 -1 3 20 57 100 100 57 20 4 1 9 40 95 
95 40 9 0 -2 -3 -3 -3 -3 -3 -3 -3 -3 -2 0 9 42 96 97 46 25 45 90 105 62 21 3 -1 -3 -3 -3 -3 -3 -3 -3 -3 -3 -3 -3 -3 -3 -3 -2 -2 0 6 19 41 71 100 107 88 57 29 12 4 1 0 0 0 0 2 5 7 8 9 10 13 20 30 40 55 86 117 95 45 14 2 -1 -2 -2 -2 -2 -2 -2 -2 -2 -2 0 9 39 92 100 48 13 0 -1 1 12 41 88 107 71 29 7 0 0 9 40 95 
95 40 9 0 -2 -3 -3 -3 -3 -3 -3 -3 -3 -2 0 8 36 90 103 59 45 75 107 86 38 10 0 -2 -3 -3 -3 -3 -3 -3 -3 -3 -3 -3 -3 -3 -3 -2 -1 1 9 27 56 87 107 100 71 41 20 7 1 -1 -2 -2 -2 -2 -2 -2 -1 0 0 0 0 0 2 6 10 20 45 90 109 75 35 14 4 1 0 0 0 0 0 0 0 0 3 15 50 101 93 39 9 0 0 7 29 71 107 88 41 12 1 -1 0 9 40 95 
95 40 9 0 -2 -3 -3 -3 -3 -3 -3 -3 -3 -3 -1 5 29 80 111 84 78 105 101 56 19 3 -1 -3 -3 -3 -3 -3 -3 -3 -3 -3 -3 -3 -3 -2 -2 0 3 13 32 65 99 107 88 57 29 12 3 0 -2 -2 -3 -3 -3 -3 -3 -3 -3 -2 -2 -2 -2 -2 -2 -1 0 5 21 57 103 110 76 43 23 14 10 9 9 9 9 9 9 10 14 31 71 112 84 32 7 1 4 20 57 100 100 57 20 3 -1 -2 0 9 40 95 
95 40 9 0 -2 -3 -3 -3 -3 -3 -3 -3 -3 -3 -2 2 19 63 113 114 113 111 71 29 7 0 -2 -3 -3 -3 -3 -3 -3 -3 -3 -3 -3 -3 -2 -1 1 7 20 42 73 103 103 73 42 20 7 1 -1 -2 -3 -3 -3 -3 -3 -3 -3 -3 -3 -3 -3 -3 -3 -3 -3 -2 -2 0 7 30 77 125 127 96 67 50 43 41 40 40 40 40 40 42 48 67 107 125 79 32 10 5 14 42 88 107 71 29 7 0 -2 -2 0 9 40 95 
95 40 9 0 -2 -3 -3 -3 -3 -3 -3 -3 -3 -3 -2 0 13 49 109 137 129 92 42 12 1 -2 -3 -3 -3 -3 -3 -3 -3 -3 -3 -3 -2 -2 0 3 12 29 57 88 107 99 65 32 13 3 0 -2 -2 -3 -3 -3 -3 -3 -3 -3 -3 -3 -3 -3 -3 -3 -3 -3 -3 -3 -3 -2 2 17 57 119 146 129 113 103 97 96 95 95 95 95 96 97 101 115 140 140 95 51 27 20 35 73 107 88 41 12 1 -2 -3 -2 0 9 40 95 
95 40 9 0 -2 -3 -3 -3 -3 -3 -3 -3 -3 -3 -2 0 10 42 105 146 120 63 22 4 -1 -2 -3 -3 -3 -3 -3 -3 -3 -3 -3 -2 -1 1 7 20 41 71 100 107 87 56 27 9 1 -1 -2 -3 -3 -3 -3 -3 -3 -3 -3 -3 -3 -3 -3 -3 -3 -3 -3 -3 -3 -3 -3 -2 1 15 53 111 121 95 88 91 94 95 95 95 95 95 95 96 97 102 114 125 117 94 69 58 74 107 103 57 20 3 -1 -2 -3 -2 0 9 40 95 
95 40 9 0 -2 -3 -3 -3 -3 -3 -3 -3 -3 -3 -2 0 9 40 103 139 94 39 10 0 -2 -3 -3 -3 -3 -3 -3 -3 -3 -2 -2 0 3 12 29 57 88 107 101 71 41 20 6 0 -2 -2 -3 -3 -3 -3 -3 -3 -3 -3 -3 -3 -3 -3 -3 -3 -3 -3 -3 -3 -3 -3 -3 -2 2 20 64 110 91 51 37 37 39 40 40 40 40 40 40 40 41 43 50 67 91 107 111 112 124 124 79 32 8 0 -2 -3 -3 -2 0 9 40 95 
95 40 9 0 -2 -3 -3 -3 -3 -3 -3 -3 -3 -3 -2 0 8 40 101 121 67 22 3 -1 -3 -3 -3 -3 -3 -3 -3 -2 -2 0 1 7 19 40 71 102 109 90 59 31 13 4 0 -2 -2 -3 -3 -3 -3 -3 -3 -3 -3 -3 -3 -3 -3 -3 -3 -3 -3 -3 -3 -3 -3 -3 -3 -1 5 29 79 108 66 25 11 8 8 9 9 9 9 9 9 9 9 10 13 22 39 63 92 121 145 126 67 23 4 -1 -2 -3 -3 -2 0 9 40 95 
95 40 9 0 -2 -3 -3 -3 -3 -3 -3 -3 -3 -3 -2 0 9 41 98 106 50 13 0 -2 -3 -3 -3 -3 -3 -2 -1 0 2 7 14 29 57 92 119 117 86 54 31 16 7 2 0 -1 -2 -2 -2 -2 -3 -3 -3 -3 -3 -3 -3 -3 -3 -3 -3 -3 -3 -3 -3 -3 -3 -3 -2 0 7 36 90 102 50 14 2 0 0 0 0 0 0 0 0 0 0 0 0 3 10 22 42 75 117 125 79 32 8 0 -2 -3 -3 -2 0 9 40 95 
95 40 9 0 -2 -3 -3 -3 -3 -3 -3 -3 -3 -3 -2 0 10 43 98 97 42 10 0 -2 -3 -3 -2 -2 -1 0 3 9 19 32 49 75 110 139 143 116 80 57 43 32 21 13 9 5 2 0 0 0 -1 -2 -2 -2 -2 -3 -3 -3 -3 -3 -3 -3 -3 -3 -3 -3 -3 -3 -2 0 9 39 94 97 43 10 0 -2 -2 -2 -2 -2 -2 -2 -2 -2 -2 -2 -2 -1 0 4 13 32 69 108 103 57 20 3 -1 -2 -3 -2 0 9 40 95 
95 40 9 0 -2 -3 -3 -3 -3 -3 -3 -3 -3 -3 -2 0 13 49 102 90 36 8 0 -2 -2 -2 -1 0 3 10 21 38 60 82 99 113 120 122 125 121 109 99 91 80 63 48 38 29 20 13 9 8 5 2 0 0 -1 -2 -2 -2 -2 -3 -3 -3 -3 -3 -3 -3 -3 -3 -2 0 10 43 97 94 39 9 0 -2 -3 -3 -3 -3 -3 -3 -3 -3 -3 -3 -3 -3 -2 -1 1 10 33 73 108 88 41 12 1 -2 -3 -2 0 9 40 95 
95 40 9 0 -2 -3 -3 -3 -3 -3 -3 -3 -3 -3 -2 2 20 63 107 79 29 5 0 -1 0 2 6 12 22 39 62 88 105 107 98 83 67 59 66 81 91 96 101 107 107 100 92 80 63 49 42 36 29 19 12 8 5 2 0 0 0 -1 -2 -2 -2 -2 -3 -3 -3 -3 -2 0 13 49 101 90 36 7 0 -2 -3 -3 -3 -3 -3 -3 -3 -3 -3 -3 -3 -3 -3 -2 -1 1 13 42 88 107 71 29 7 0 -2 -2 0 9 40 95 
95 40 9 0 -2 -3 -3 -3 -3 -3 -3 -3 -3 -3 -1 5 29 79 107 63 20 4 1 3 9 19 31 46 65 89 106 106 89 65 46 32 21 17 20 29 36 42 49 63 80 92 100 107 107 101 96 90 79 62 48 38 29 20 13 9 8 5 2 0 0 -1 -2 -2 -2 -2 -1 2 20 63 107 79 29 5 -1 -3 -3 -3 -3 -3 -3 -3 -3 -3 -3 -3 -3 -3 -3 -3 -2 -1 3 20 57 100 100 57 20 3 -1 -2 0 9 40 95 
95 40 9 0 -2 -3 -3 -3 -3 -3 -3 -3 -3 -2 0 8 36 90 102 51 16 7 11 21 38 60 81 97 107 105 88 62 39 22 12 6 3 1 2 5 8 9 13 20 29 38 48 62 79 90 96 101 107 107 100 92 80 63 49 42 36 29 19 12 8 5 2 0 0 0 0 6 30 80 107 63 20 2 -2 -3 -3 -3 -3 -3 -3 -3 -3 -3 -3 -3 -3 -3 -3 -3 -3 -2 0 7 29 71 107 88 42 13 1 -1 0 9 40 95 
95 40 9 0 -2 -3 -3 -3 -3 -3 -3 -3 -3 -2 0 10 42 96 99 49 23 24 40 62 88 105 107 97 81 60 38 21 10 3 0 0 -1 -2 -2 -1 0 0 0 2 5 8 12 19 29 36 42 49 63 80 92 100 107 107 101 96 90 79 62 48 38 29 20 13 10 8 8 13 39 91 102 49 13 0 -2 -3 -3 -3 -3 -3 -3 -3 -3 -3 -3 -3 -3 -3 -3 -3 -3 -3 -2 1 12 41 87 107 73 32 9 0 0 9 40 95 
95 40 9 0 -2 -3 -3 -3 -3 -3 -3 -3 -3 -2 0 13 50 105 103 62 50 65 89 106 106 89 65 46 31 19 9 3 0 -1 -2 -2 -3 -3 -3 -3 -2 -2 -2 -2 -1 0 0 2 5 8 9 13 20 29 38 48 62 79 90 96 101 107 107 100 92 80 63 49 42 37 32 31 54 101 99 43 10 0 -2 -3 -3 -3 -3 -3 -3 -3 -3 -3 -3 -3 -3 -3 -3 -3 -3 -3 -2 -1 3 19 56 99 103 65 27 7 2 9 40 95 
95 40 9 0 -2 -3 -3 -3 -3 -3 -3 -3 -3 -1 3 22 67 122 120 95 96 107 106 88 63 39 22 12 6 2 0 -1 -2 -3 -3 -3 -3 -3 -3 -3 -3 -3 -3 -3 -2 -2 -2 -2 -1 0 0 0 2 5 8 12 19 29 36 42 49 63 80 92 100 107 107 101 96 90 82 73 86 119 100 41 9 0 -2 -3 -3 -3 -3 -3 -3 -3 -3 -3 -3 -3 -3 -3 -3 -3 -3 -3 -3 -2 0 6 27 65 103 99 56 20 6 10 41 95 
95 40 9 0 -2 -3 -3 -3 -3 -3 -3 -3 -2 0 10 39 95 142 138 121 107 88 62 39 21 10 3 0 -1 -2 -2 -3 -3 -3 -3 -3 -3 -3 -3 -3 -3 -3 -3 -3 -3 -3 -3 -3 -3 -2 -2 -2 -2 -1 0 0 2 5 8 9 13 20 29 38 48 62 79 90 96 101 109 115 127 143 103 40 8 0 -2 -3 -3 -3 -3 -3 -3 -3 -3 -3 -3 -3 -3 -3 -3 -3 -3 -3 -3 -3 -2 0 9 32 73 107 88 42 15 14 41 95 
95 40 9 0 -2 -3 -3 -3 -3 -3 -3 -2 -1 4 22 63 116 130 109 84 60 38 21 10 3 0 -1 -2 -2 -3 -3 -3 -3 -3 -3 -3 -3 -3 -3 -3 -3 -3 -3 -3 -3 -3 -3 -3 -3 -3 -3 -3 -3 -2 -2 -2 -2 -1 0 0 0 2 5 8 12 19 29 36 42 49 65 88 117 140 103 40 8 0 -2 -3 -3 -3 -3 -3 -3 -3 -3 -3 -3 -3 -3 -3 -3 -3 -3 -3 -3 -3 -3 -2 1 13 42 88 107 73 35 21 44 96 
95 40 9 0 -2 -3 -3 -3 -3 -3 -3 -2 1 12 42 91 113 84 52 33 19 9 3 0 -1 -2 -3 -3 -3 -3 -3 -3 -3 -3 -3 -3 -3 -3 -3 -3 -3 -3 -3 -3 -3 -3 -3 -3 -3 -3 -3 -3 -3 -3 -3 -3 -3 -3 -2 -2 -2 -2 -1 0 0 2 5 8 10 13 22 40 73 117 99 40 9 0 -2 -3 -3 -3 -3 -3 -3 -3 -3 -3 -3 -3 -3 -3 -3 -3 -3 -3 -3 -3 -3 -2 -1 3 20 56 99 103 68 39 50 97 
96 40 9 0 -2 -3 -3 -3 -3 -3 -2 0 7 29 71 108 89 45 19 8 2 0 -1 -2 -3 -3 -3 -3 -3 -3 -3 -3 -3 -3 -3 -3 -3 -3 -3 -3 -3 -3 -3 -3 -3 -3 -3 -3 -3 -3 -3 -3 -3 -3 -3 -3 -3 -3 -3 -3 -3 -3 -2 -2 -2 -2 -1 0 0 1 5 17 50 102 97 40 9 0 -2 -3 -3 -3 -3 -3 -3 -3 -3 -3 -3 -3 -3 -3 -3 -3 -3 -3 -3 -3 -3 -3 -2 0 6 27 65 103 101 67 62 101 
97 40 9 0 -2 -3 -3 -3 -3 -2 -1 3 20 57 100 101 57 21 5 0 -1 -2 -3 -3 -3 -3 -3 -3 -3 -3 -3 -3 -3 -3 -3 -3 -3 -3 -3 -3 -3 -3 -3 -3 -3 -3 -3 -3 -3 -3 -3 -3 -3 -3 -3 -3 -3 -3 -3 -3 -3 -3 -3 -3 -3 -3 -3 -2 -2 -2 0 11 42 97 96 41 9 0 -2 -3 -3 -3 -3 -3 -3 -3 -3 -3 -3 -3 -3 -3 -3 -3 -3 -3 -3 -3 -3 -3 -3 -2 0 9 32 73 108 98 83 108 
98 40 9 0 -2 -3 -3 -3 -3 -1 1 13 42 88 107 71 29 7 0 -2 -2 -3 -3 -3 -3 -3 -3 -3 -3 -3 -3 -3 -3 -3 -3 -3 -3 -3 -3 -3 -3 -3 -3 -3 -3 -3 -3 -3 -3 -3 -3 -3 -3 -3 -3 -3 -3 -3 -3 -3 -3 -3 -3 -3 -3 -3 -3 -3 -3 -2 0 9 40 95 98 44 11 0 -2 -3 -3 -3 -3 -3 -3 -3 -3 -3 -3 -3 -3 -3 -3 -3 -3 -3 -3 -3 -3 -3 -3 -3 -2 1 13 42 88 115 109 120 
100 40 8 0 -2 -3 -3 -3 -2 0 10 32 73 108 90 43 14 2 -1 -2 -2 -2 -2 -2 -2 -2 -2 -2 -3 -3 -3 -3 -3 -3 -3 -3 -3 -3 -3 -3 -3 -3 -3 -3 -3 -3 -3 -3 -3 -3 -3 -3 -3 -3 -3 -3 -3 -3 -3 -3 -3 -3 -3 -3 -3 -3 -3 -3 -3 -2 0 10 41 96 106 54 17 3 -1 -2 -3 -3 -3 -3 -3 -3 -3 -3 -3 -3 -3 -3 -3 -3 -3 -3 -3 -3 -3 -3 -3 -3 -2 -1 3 20 57 104 130 136 
102 39 8 0 -2 -3 -3 -2 0 9 30 68 108 108 67 30 12 4 1 0 0 0 0 0 0 0 0 0 -1 -2 -2 -2 -2 -2 -2 -2 -2 -2 -2 -3 -3 -3 -3 -3 -3 -3 -3 -3 -3 -3 -3 -3 -3 -3 -3 -3 -3 -3 -3 -3 -3 -3 -3 -3 -3 -3 -3 -2 -2 0 4 18 50 104 125 80 36 14 4 0 -1 -2 -3 -3 -3 -3 -3 -3 -3 -3 -3 -3 -3 -3 -3 -3 -3 -3 -3 -3 -3 -3 -3 -2 0 7 29 72 123 146 
103 39 8 0 -2 -2 -2 0 9 29 67 113 130 103 68 46 32 20 13 10 9 9 9 9 9 9 8 7 5 2 0 0 0 0 0 0 0 0 0 -1 -2 -2 -2 -2 -2 -2 -2 -2 -2 -2 -2 -3 -3 -3 -3 -3 -3 -3 -3 -3 -3 -3 -3 -3 -3 -3 -2 -1 1 7 20 42 77 123 146 120 76 43 22 10 3 0 -2 -2 -3 -3 -3 -3 -3 -3 -3 -3 -3 -3 -3 -3 -3 -3 -3 -3 -3 -3 -3 -3 -2 1 12 42 96 139 
100 40 8 0 -2 -2 0 9 30 67 113 144 140 120 104 93 80 63 49 43 41 40 40 40 40 40 39 36 29 20 13 10 9 9 9 9 9 8 7 5 2 0 0 0 0 0 0 0 0 0 0 -1 -2 -2 -2 -2 -2 -2 -2 -2 -2 -2 -2 -2 -2 -1 0 4 12 29 56 88 111 122 124 123 113 90 63 38 19 7 1 -1 -2 -3 -3 -3 -3 -3 -3 -3 -3 -3 -3 -3 -3 -3 -3 -3 -3 -3 -3 -3 -2 -1 4 23 68 122 
97 40 9 0 -1 1 9 30 66 106 122 116 106 100 99 102 107 107 101 97 96 95 95 95 95 95 94 89 79 63 49 43 41 40 40 40 40 39 36 29 20 13 10 9 9 9 9 9 9 8 7 5 2 0 0 0 0 0 0 0 0 0 -1 -1 0 3 10 22 42 71 100 107 92 70 61 70 91 106 105 86 56 29 12 4 0 -1 -2 -3 -3 -3 -3 -3 -3 -3 -3 -3 -3 -3 -3 -3 -3 -3 -3 -3 -3 -2 0 13 50 106 
96 40 9 1 2 10 30 66 103 106 78 54 44 41 43 49 63 79 89 94 95 95 95 95 95 96 97 101 107 107 101 97 96 95 95 95 95 94 89 79 63 49 43 41 40 40 40 40 40 39 36 29 20 13 10 9 9 9 9 9 8 7 6 5 8 19 38 63 90 107 100 71 43 25 18 24 40 63 90 107 100 71 42 22 10 3 0 -2 -2 -3 -3 -3 -3 -3 -3 -3 -3 -3 -3 -3 -3 -3 -3 -3 -3 -2 0 10 43 98 
96 41 11 6 13 33 67 102 102 68 34 17 11 9 10 13 20 29 36 39 40 40 40 40 40 41 43 49 63 79 89 94 95 95 95 95 96 97 101 107 107 101 97 96 95 95 95 95 95 94 89 79 63 49 43 41 40 40 40 40 39 36 31 27 34 58 87 105 105 86 56 29 12 4 2 4 10 22 42 71 100 107 90 63 38 19 7 1 -1 -2 -3 -3 -3 -3 -3 -3 -3 -3 -3 -3 -3 -3 -3 -3 -3 -2 0 9 41 96 
96 44 19 22 42 73 103 102 66 30 10 2 0 0 0 0 2 5 7 8 9 9 9 9 9 9 10 13 20 29 36 39 40 40 40 40 41 43 49 63 79 89 94 95 95 95 95 95 96 97 101 107 107 101 97 96 95 95 95 95 94 90 83 77 85 105 108 90 63 38 19 7 1 -1 -2 -1 0 4 12 29 56 86 105 105 86 56 29 12 4 0 -1 -2 -3 -3 -3 -3 -3 -3 -3 -3 -3 -3 -3 -3 -3 -2 0 9 40 95 
99 52 39 58 88 107 99 64 29 9 1 -1 -2 -2 -2 -2 -2 -1 0 0 0 0 0 0 0 0 0 0 2 5 7 8 9 9 9 9 9 10 13 20 29 36 39 40 40 40 40 40 41 43 49 63 79 89 94 95 95 95 95 96 98 105 119 133 134 112 75 43 22 10 3 0 -2 -2 -3 -3 -2 -1 1 7 19 38 63 90 107 100 71 42 22 10 3 0 -2 -2 -3 -3 -3 -3 -3 -3 -3 -3 -3 -3 -3 -2 0 9 40 96 
106 72 76 101 107 88 56 26 8 0 -2 -3 -3 -3 -3 -3 -3 -3 -2 -2 -2 -2 -2 -2 -2 -2 -2 -2 -2 -1 0 0 0 0 0 0 0 0 0 2 5 7 8 9 9 9 9 9 9 10 13 20 29 36 39 40 40 40 40 41 45 58 91 135 133 81 36 14 4 0 -1 -2 -3 -3 -3 -3 -3 -2 -2 0 3 10 22 42 71 100 107 90 63 38 19 7 1 -1 -2 -3 -3 -3 -3 -3 -3 -3 -3 -3 -3 -2 0 9 40 96 
121 105 111 104 73 42 20 6 0 -2 -3 -3 -3 -3 -3 -3 -3 -3 -3 -3 -3 -3 -3 -3 -3 -3 -3 -3 -3 -3 -2 -2 -2 -2 -2 -2 -2 -2 -2 -2 -1 0 0 0 0 0 0 0 0 0 0 2 5 7 8 9 9 9 9 9 12 24 58 113 112 55 17 3 -1 -2 -3 -3 -3 -3 -3 -3 -3 -3 -3 -2 -1 0 4 12 29 56 86 105 105 86 56 29 12 4 0 -1 -2 -3 -3 -3 -3 -3 -3 -3 -3 -2 0 9 40 98 
140 131 107 68 32 13 3 0 -2 -3 -3 -3 -3 -3 -3 -3 -3 -3 -3 -3 -3 -3 -3 -3 -3 -3 -3 -3 -3 -3 -3 -3 -3 -3 -3 -3 -3 -3 -3 -3 -3 -2 -2 -2 -2 -2 -2 -2 -2 -2 -2 -2 -1 0 0 0 0 0 0 0 2 12 45 100 100 44 11 0 -2 -3 -3 -3 -3 -3 -3 -3 -3 -3 -3 -3 -3 -2 -1 1 7 19 38 63 90 107 100 71 42 22 10 3 0 -1 -2 -3 -3 -3 -3 -3 -3 -2 0 8 40 102 
145 117 68 30 10 1 -1 -2 -3 -3 -3 -3 -3 -3 -3 -3 -3 -3 -3 -3 -3 -3 -3 -3 -3 -3 -3 -3 -3 -3 -3 -3 -3 -3 -3 -3 -3 -3 -3 -3 -3 -3 -3 -3 -3 -3 -3 -3 -3 -3 -3 -3 -3 -2 -2 -2 -2 -2 -2 -2 0 9 41 96 96 41 9 0 -2 -3 -3 -3 -3 -3 -3 -3 -3 -3 -3 -3 -3 -3 -2 -2 0 3 10 22 42 71 100 107 90 63 39 21 10 3 0 -2 -2 -3 -3 -3 -3 -2 0 8 40 103 
127 79 34 10 1 -1 -2 -3 -3 -3 -3 -3 -3 -3 -3 -3 -3 -3 -3 -3 -3 -3 -3 -3 -3 -3 -3 -3 -3 -3 -3 -3 -3 -3 -3 -3 -3 -3 -3 -3 -3 -3 -3 -3 -3 -3 -3 -3 -3 -3 -3 -3 -3 -3 -3 -3 -3 -3 -3 -2 0 9 40 95 95 40 9 0 -2 -3 -3 -3 -3 -3 -3 -3 -3 -3 -3 -3 -3 -3 -3 -3 -2 -1 0 4 12 29 56 86 105 106 88 62 38 19 7 1 -1 -2 -2 -2 -3 -2 0 8 40 101 
108 54 17 2 -1 -2 -3 -3 -3 -3 -3 -3 -3 -3 -3 -3 -3 -3 -3 -3 -3 -3 -3 -3 -3 -3 -3 -3 -3 -3 -3 -3 -3 -3 -3 -3 -3 -3 -3 -3 -3 -3 -3 -3 -3 -3 -3 -3 -3 -3 -3 -3 -3 -3 -3 -3 -3 -3 -3 -2 0 9 40 95 95 40 9 0 -2 -3 -3 -3 -3 -3 -3 -3 -3 -3 -3 -3 -3 -3 -3 -3 -3 -3 -2 -1 1 7 19 38 62 88 106 105 86 56 29 12 4 0 0 -1 -2 -2 0 9 40 98 
99 44 11 0 -2 -3 -3 -3 -3 -3 -3 -3 -3 -3 -3 -3 -3 -3 -3 -3 -3 -3 -3 -3 -3 -3 -3 -3 -3 -3 -3 -3 -3 -3 -3 -3 -3 -3 -3 -3 -3 -3 -3 -3 -3 -3 -3 -3 -3 -3 -3 -3 -3 -3 -3 -3 -3 -3 -3 -2 0 9 40 95 95 40 9 0 -2 -3 -3 -3 -3 -3 -3 -3 -3 -3 -3 -3 -3 -3 -3 -3 -3 -3 -3 -2 -2 0 3 10 21 39 63 90 108 101 72 42 23 13 9 5 2 1 2 11 41 97 
97 41 9 0 -2 -3 -3 -3 -3 -3 -3 -3 -3 -3 -3 -3 -3 -3 -3 -3 -3 -3 -3 -3 -3 -3 -3 -3 -3 -3 -3 -3 -3 -3 -3 -3 -3 -3 -3 -3 -3 -3 -3 -3 -3 -3 -3 -3 -3 -3 -3 -3 -3 -3 -3 -3 -3 -3 -3 -2 0 9 40 95 95 40 9 0 -2 -3 -3 -3 -3 -3 -3 -3 -3 -3 -3 -3 -3 -3 -3 -3 -3 -3 -3 -3 -3 -2 -1 0 4 11 24 46 78 110 117 96 68 49 38 29 20 13 11 18 46 98 
97 41 9 0 -2 -2 -2 -2 -3 -3 -3 -3 -3 -3 -3 -3 -3 -3 -3 -3 -3 -3 -3 -3 -3 -3 -3 -3 -3 -3 -3 -3 -3 -3 -3 -3 -3 -3 -3 -3 -3 -3 -3 -3 -3 -3 -3 -3 -3 -3 -3 -3 -3 -3 -3 -3 -3 -3 -3 -2 0 9 40 95 95 40 9 0 -2 -3 -3 -3 -3 -3 -3 -3 -3 -3 -3 -3 -3 -3 -3 -3 -3 -3 -3 -3 -3 -2 -2 -1 1 6 14 28 55 96 133 142 125 105 93 80 63 49 41 42 62 105 
101 42 11 2 0 0 0 0 -1 -2 -2 -2 -2 -2 -2 -2 -3 -3 -3 -3 -3 -3 -3 -3 -3 -3 -3 -3 -3 -3 -3 -3 -3 -3 -3 -3 -3 -3 -3 -3 -3 -3 -3 -3 -3 -3 -3 -3 -3 -3 -3 -3 -3 -3 -3 -3 -3 -3 -3 -2 0 9 40 95 95 40 9 0 -2 -3 -3 -3 -3 -3 -3 -3 -3 -3 -3 -3 -3 -3 -3 -3 -3 -3 -3 -2 -2 -1 0 3 10 20 33 50 75 107 130 128 113 103 103 107 107 101 94 90 99 124 
111 51 21 11 9 9 8 7 5 2 0 0 0 0 0 0 -1 -2 -2 -2 -2 -2 -2 -2 -2 -3 -3 -3 -3 -3 -3 -3 -3 -3 -3 -3 -3 -3 -3 -3 -3 -3 -3 -3 -3 -3 -3 -3 -3 -3 -3 -3 -3 -3 -3 -3 -3 -3 -3 -2 0 9 40 95 95 40 9 0 -2 -3 -3 -3 -3 -3 -3 -3 -3 -3 -3 -3 -3 -3 -3 -3 -2 -2 -1 0 2 6 12 22 39 60 82 98 109 108 91 68 51 46 50 63 80 92 102 114 132 147 
127 78 51 43 40 40 39 36 29 20 13 10 9 9 8 7 5 2 0 0 0 0 0 0 0 -1 -2 -2 -2 -2 -2 -2 -2 -3 -3 -3 -3 -3 -3 -3 -3 -3 -3 -3 -3 -3 -3 -3 -3 -3 -3 -3 -3 -3 -3 -3 -3 -3 -3 -2 0 9 40 95 95 40 9 0 -2 -3 -3 -3 -3 -3 -3 -3 -3 -3 -3 -3 -3 -3 -2 -2 -1 0 3 9 19 31 46 65 88 105 107 97 81 60 38 22 14 11 13 20 30 39 50 71 107 143 
147 122 103 97 96 95 94 89 79 63 49 43 41 40 39 36 29 20 13 10 9 9 9 8 7 5 2 0 0 0 0 0 0 -1 -2 -2 -2 -2 -2 -2 -2 -2 -3 -3 -3 -3 -3 -3 -3 -3 -3 -3 -3 -3 -3 -3 -3 -3 -3 -2 0 9 40 95 95 40 9 0 -2 -3 -3 -3 -3 -3 -3 -3 -3 -3 -3 -3 -2 -1 0 2 6 12 22 38 60 81 97 107 105 88 65 46 31 19 9 3 0 0 0 2 5 9 15 30 67 124 
143 122 104 97 96 96 97 101 107 107 101 97 96 95 94 89 79 63 49 43 41 40 40 39 36 29 20 13 10 9 9 8 7 5 2 0 0 0 0 0 0 0 -1 -2 -2 -2 -2 -2 -2 -2 -3 -3 -3 -3 -3 -3 -3 -3 -3 -2 0 9 40 95 95 40 9 0 -2 -3 -3 -3 -3 -3 -3 -3 -3 -2 -2 -1 0 3 9 19 31 46 65 88 105 107 97 81 60 38 22 12 6 2 0 -1 -2 -2 -2 -2 -1 0 3 14 47 109 
118 78 51 43 41 41 43 49 63 79 89 94 95 96 97 101 107 107 101 97 96 95 95 94 89 79 63 49 43 41 40 39 36 29 20 13 10 9 9 9 8 7 5 2 0 0 0 0 0 0 -1 -2 -2 -2 -2 -2 -2 -2 -2 -2 0 9 40 95 95 40 9 0 -2 -3 -3 -3 -3 -3 -3 -2 -2 -1 0 3 10 21 38 60 81 97 107 105 88 65 46 31 19 9 3 0 -1 -2 -2 -3 -3 -3 -3 -3 -2 -2 0 10 42 100 
102 51 21 11 9 9 10 13 20 29 36 39 40 41 43 49 63 79 89 94 95 95 96 97 101 107 107 101 97 96 95 94 89 79 63 49 43 41 40 40 39 36 29 20 13 10 9 9 8 7 5 2 0 0 0 0 0 0 0 0 0 9 41 96 95 40 9 0 -2 -3 -3 -3 -2 -2 -1 0 2 6 12 22 39 62 88 105 107 97 81 60 38 22 12 6 2 0 -1 -2 -2 -3 -3 -3 -3 -3 -3 -3 -3 -2 0 9 40 97 
97 43 11 2 0 0 0 0 2 5 7 8 9 9 10 13 20 29 36 39 40 40 41 43 49 63 79 89 94 95 96 97 101 107 107 101 97 96 95 95 94 89 79 63 49 43 41 40 39 36 29 20 13 10 9 9 9 8 7 6 5 13 43 97 96 41 9 0 -2 -2 -2 -2 -1 0 3 9 19 31 46 65 89 106 106 89 65 46 31 19 9 3 0 -1 -2 -2 -3 -3 -3 -3 -3 -3 -3 -3 -3 -3 -3 -2 0 9 40 96 
96 41 9 0 -2 -2 -2 -2 -2 -1 0 0 0 0 0 0 2 5 7 8 9 9 9 10 13 20 29 36 39 40 41 43 49 63 79 89 94 95 95 96 97 101 107 107 101 97 96 95 94 89 79 63 49 43 41 40 40 39 36 29 22 25 52 103 100 44 11 0 -1 -1 0 2 6 12 22 38 60 81 97 107 105 88 62 39 22 12 6 2 0 -1 -2 -2 -3 -3 -3 -3 -3 -3 -3 -3 -3 -3 -3 -3 -3 -2 0 9 40 95 
95 40 9 0 -2 -3 -3 -3 -3 -3 -2 -2 -2 -2 -2 -2 -2 -1 0 0 0 0 0 0 0 2 5 7 8 9 9 10 13 20 29 36 39 40 40 41 43 49 63 79 89 94 95 96 97 101 107 107 101 97 96 95 95 94 89 80 65 60 80 121 113 55 18 4 2 4 9 19 31 46 65 88 105 107 97 81 60 38 21 10 3 0 -1 -2 -2 -3 -3 -3 -3 -3 -3 -3 -3 -3 -3 -3 -3 -3 -3 -3 -3 -2 0 9 40 95 
95 40 9 0 -2 -3 -3 -3 -3 -3 -3 -3 -3 -3 -3 -3 -3 -3 -2 -2 -2 -2 -2 -2 -2 -2 -1 0 0 0 0 0 0 2 5 7 8 9 9 9 10 13 20 29 36 39 40 41 43 49 63 79 89 94 95 95 96 97 101 107 108 108 120 144 133 81 38 19 16 23 39 60 81 97 107 105 88 65 46 31 19 9 3 0 -1 -2 -2 -3 -3 -3 -3 -3 -3 -3 -3 -3 -3 -3 -3 -3 -3 -3 -3 -3 -3 -2 0 9 40 95 
95 40 9 0 -2 -3 -3 -3 -3 -3 -3 -3 -3 -3 -3 -3 -3 -3 -3 -3 -3 -3 -3 -3 -3 -3 -3 -2 -2 -2 -2 -2 -2 -2 -1 0 0 0 0 0 0 0 2 5 7 8 9 9 10 13 20 29 36 39 40 40 41 43 49 63 79 91 101 116 127 114 81 58 54 67 89 105 107 97 81 60 38 22 12 6 2 0 -1 -2 -3 -3 -3 -3 -3 -3 -3 -3 -3 -3 -3 -3 -3 -3 -3 -3 -3 -3 -3 -3 -3 -2 0 9 40 95 
95 40 9 0 -2 -3 -3 -3 -3 -3 -3 -3 -3 -3 -3 -3 -3 -3 -3 -3 -3 -3 -3 -3 -3 -3 -3 -3 -3 -3 -3 -3 -3 -3 -3 -2 -2 -2 -2 -2 -2 -2 -2 -1 0 0 0 0 0 0 2 5 7 8 9 9 9 10 13 20 29 36 43 54 80 114 128 119 111 110 106 89 65 46 31 19 9 3 0 -1 -2 -2 -3 -3 -3 -3 -3 -3 -3 -3 -3 -3 -3 -3 -3 -3 -3 -3 -3 -3 -3 -3 -3 -3 -3 -2 0 9 40 95 
95 40 9 0 -2 -3 -3 -3 -3 -3 -3 -3 -3 -3 -3 -3 -3 -3 -3 -3 -3 -3 -3 -3 -3 -3 -3 -3 -3 -3 -3 -3 -3 -3 -3 -3 -3 -3 -3 -3 -3 -3 -3 -2 -2 -2 -2 -2 -2 -2 -2 -1 0 0 0 0 0 0 0 2 5 8 10 17 38 81 133 143 114 86 61 39 22 12 6 2 0 -1 -2 -2 -3 -3 -3 -3 -3 -3 -3 -3 -3 -3 -3 -3 -3 -3 -3 -3 -3 -3 -3 -3 -3 -3 -3 -3 -3 -2 0 9 40 95 
96 41 9 0 -2 -2 -2 -2 -2 -2 -2 -2 -2 -2 -2 -2 -2 -2 -2 -2 -2 -2 -2 -2 -2 -2 -2 -2 -2 -2 -2 -2 -2 -2 -2 -2 -2 -2 -2 -2 -2 -2 -2 -2 -2 -2 -2 -2 -2 -2 -2 -2 -2 -2 -2 -2 -2 -2 -2 -1 0 0 0 4 18 55 113 120 74 40 21 10 4 1 0 -1 -2 -2 -2 -2 -2 -2 -2 -2 -2 -2 -2 -2 -2 -2 -2 -2 -2 -2 -2 -2 -2 -2 -2 -2 -2 -2 -2 -2 -2 -2 0 9 41 96 
97 43 11 2 0 0 0 0 0 0 0 0 0 0 0 0 0 0 0 0 0 0 0 0 0 0 0 0 0 0 0 0 0 0 0 0 0 0 0 0 0 0 0 0 0 0 0 0 0 0 0 0 0 0 0 0 0 0 0 0 0 0 0 3 14 46 102 105 52 20 7 3 1 0 0 0 0 0 0 0 0 0 0 0 0 0 0 0 0 0 0 0 0 0 0 0 0 0 0 0 0 0 0 0 0 0 2 11 43 97 
103 51 21 11 9 9 9 9 9 9 9 9 9 9 9 9 9 9 9 9 9 9 9 9 9 9 9 9 9 9 9 9 8 8 8 9 9 9 9 9 9 9 9 9 9 9 9 9 9 8 8 9 9 9 9 9 9 9 9 9 9 9 9 12 21 52 105 105 53 23 13 10 9 9 9 9 9 9 9 9 9 9 9 9 9 9 9 9 9 9 9 8 8 8 9 9 9 9 9 9 9 9 9 8 8 9 11 21 51 103 
123 78 51 43 41 40 40 40 40 40 40 40 40 40 40 40 40 40 40 40 40 40 40 40 40 40 40 40 40 40 40 40 40 40 40 40 40 40 40 40 40 40 40 40 40 40 40 40 40 40 40 40 40 40 40 40 40 40 40 40 40 40 41 43 51 78 122 122 78 51 43 41 40 40 40 40 40 40 40 40 40 40 40 40 40 40 40 40 40 40 40 40 40 40 40 40 40 40 40 40 40 40 40 40 40 40 42 51 78 123 
154 123 103 97 96 95 95 95 95 95 95 95 95 95 95 95 95 95 95 95 95 95 95 95 95 95 95 95 95 96 96 98 102 103 101 98 96 95 95 95 95 95 95 95 95 95 96 96 99 103 103 99 96 96 95 95 95 95 95 95 95 95 96 97 102 118 142 142 118 102 97 96 95 95 95 95 95 95 95 95 95 95 95 95 95 95 95 95 95 96 98 101 103 101 98 96 95 95 95 95 95 96 97 101 104 102 100 104 123 154 
