P2
110 110
255
149 126 107 99 96 95 95 95 95 95 95 95 95 95 95 95 95 95 95 95 95 95 95 95 95 95 95 95 96 100 108 122 134 134 121 107 99 96 95 95 95 95 95 95 95 96 98 105 120 135 134 119 105 98 95 95 95 95 95 95 95 95 95 95 96 98 101 101 98 96 95 95 95 95 95 95 95 95 95 95 95 95 95 95 95 95 95 95 98 104 117 132 135 123 109 100 96 95 95 95 97 102 114 130 136 126 114 113 128 150 
126 94 68 56 52 51 51 51 51 51 51 51 51 51 51 51 51 51 51 51 51 51 51 51 51 51 51 52 56 64 83 111 130 118 90 68 57 53 51 51 51 51 51 51 51 53 58 71 98 128 126 94 68 56 52 51 51 51 51 51 51 51 51 51 50 49 49 49 49 50 51 51 51 51 51 51 51 51 51 51 51 51 51 51 51 51 51 53 58 71 98 126 125 97 71 58 53 52 51 52 56 66 89 120 129 103 79 76 96 127 
107 68 37 24 19 18 18 18 18 18 18 18 18 18 18 18 18 18 18 18 18 18 18 18 18 18 19 21 27 43 72 105 112 83 50 31 22 19 18 18 18 18 18 18 19 21 27 44 79 117 109 67 37 24 19 18 18 18 18 18 18 18 18 18 17 17 17 17 17 17 18 18 18 18 18 18 18 18 18 18 18 18 18 18 18 18 19 21 29 49 85 114 99 61 35 24 20 18 18 20 24 38 68 107 109 73 46 44 70 108 
99 56 24 10 6 4 4 4 4 4 4 4 4 4 4 4 4 4 4 4 4 4 4 4 4 5 6 10 22 46 82 106 90 53 25 12 6 5 4 4 4 4 4 4 5 8 17 39 80 118 102 55 23 10 5 4 4 4 4 4 4 4 4 4 4 4 4 4 4 4 4 4 4 4 4 4 4 4 4 4 4 4 4 4 4 4 5 9 21 48 89 106 75 37 16 8 5 4 5 6 12 29 65 103 95 54 29 30 58 99 
96 52 19 6 1 0 0 0 0 0 0 0 0 0 0 0 0 0 0 0 0 0 0 0 0 1 4 12 32 66 99 98 64 30 12 4 1 0 0 0 0 0 0 0 2 7 20 49 95 126 100 50 18 5 1 0 0 0 0 0 0 0 0 0 0 0 0 0 0 0 0 0 0 0 0 0 0 0 0 0 0 0 0 0 0 0 2 8 24 58 97 96 57 23 8 2 0 0 0 3 11 32 72 103 83 42 20 24 53 96 
95 51 18 4 0 0 -1 -1 -1 -1 -1 -1 -1 -1 -1 -1 -1 -1 -1 -1 -1 -1 -1 -1 0 1 7 22 52 89 102 76 40 16 4 0 0 -1 -1 -1 -1 -1 0 0 2 11 31 69 114 134 102 50 18 4 0 0 -1 -1 -1 -1 -1 -1 -1 -1 -1 -1 -1 -1 -1 -1 -1 -1 -1 -1 -1 -1 -1 -1 -1 -1 -1 -1 -1 -1 -1 0 2 11 34 73 103 83 42 15 3 0 0 0 0 3 13 39 82 103 71 32 15 21 52 95 
95 51 18 4 0 -1 -1 -1 -1 -1 -1 -1 -1 -1 -1 -1 -1 -1 -1 -1 -1 -1 -1 -1 0 4 16 40 76 102 88 51 22 7 1 0 -1 -1 -1 -1 -1 -1 0 0 6 19 48 91 127 135 104 53 19 5 0 -1 -1 -1 -1 -1 -1 -1 -1 -1 -1 -1 -1 -1 -1 -1 -1 -1 -1 -1 -1 -1 -1 -1 -1 -1 -1 -1 -1 -1 -1 0 5 19 49 89 101 66 29 9 1 0 -1 -1 0 4 17 49 91 98 59 25 12 20 51 95 
95 51 18 4 0 -1 -1 -1 -1 -1 -1 -1 -1 -1 -1 -1 -1 -1 -1 -1 -1 -1 -1 0 2 11 30 64 97 97 64 30 11 2 0 -1 -1 -1 -1 -1 -1 -1 0 3 12 33 70 108 124 127 107 60 23 6 0 -1 -1 -1 -1 -1 -1 -1 -1 -1 -1 -1 -1 -1 -1 -1 -1 -1 -1 -1 -1 -1 -1 -1 -1 -1 -1 -1 -1 -1 0 1 9 29 66 101 89 49 18 5 0 -1 -1 -1 0 6 23 59 98 91 49 19 10 20 51 95 
95 51 18 4 0 -1 -1 -1 -1 -1 -1 -1 -1 -1 -1 -1 -1 -1 -1 -1 -1 -1 0 1 7 22 51 88 102 76 40 16 4 0 -1 -1 -1 -1 -1 -1 -1 0 1 7 23 53 92 111 106 111 109 70 30 9 1 0 -1 -1 -1 -1 -1 -1 -1 -1 -1 -1 -1 -1 -1 -1 -1 -1 -1 -1 -1 -1 -1 -1 -1 -1 -1 -1 -1 -1 0 3 15 41 83 102 73 34 11 2 0 -1 -1 0 1 9 30 70 102 82 39 14 8 19 51 95 
95 51 18 4 0 -1 -1 -1 -1 -1 -1 -1 -1 -1 -1 -1 -1 -1 -1 -1 -1 -1 0 4 16 40 76 102 88 51 22 7 1 0 -1 -1 -1 -1 -1 -1 -1 0 4 15 40 77 104 96 80 91 107 81 37 12 2 0 -1 -1 -1 -1 -1 -1 -1 -1 -1 -1 -1 -1 -1 -1 -1 -1 -1 -1 -1 -1 -1 -1 -1 -1 -1 -1 -1 -1 0 6 22 56 96 96 56 22 6 0 -1 -1 -1 0 2 13 39 82 102 70 31 11 7 19 51 95 
95 51 18 4 0 -1 -1 -1 -1 -1 -1 -1 -1 -1 -1 -1 -1 -1 -1 -1 -1 0 2 11 30 64 97 97 64 30 11 2 0 -1 -1 -1 -1 -1 -1 -1 0 2 10 29 63 97 99 72 55 73 103 88 44 15 3 0 -1 -1 -1 -1 -1 -1 -1 -1 -1 -1 -1 -1 -1 -1 -1 -1 -1 -1 -1 -1 -1 -1 -1 -1 -1 -1 -1 0 2 11 34 73 102 83 41 15 3 0 -1 -1 -1 0 4 17 48 91 98 59 23 8 6 18 51 95 
96 53 19 5 0 -1 -1 -1 -1 -1 -1 -1 -1 -1 -1 -1 -1 -1 -1 -1 0 1 7 22 51 88 102 76 40 16 4 0 -1 -1 -1 -1 -1 -1 -1 -1 0 5 19 47 86 103 79 47 38 61 98 92 48 17 4 0 -1 -1 -1 -1 -1 -1 -1 -1 -1 -1 -1 -1 -1 -1 -1 -1 -1 -1 -1 -1 -1 -1 -1 -1 -1 -1 -1 0 5 18 49 89 100 66 29 9 1 0 -1 -1 -1 0 6 23 59 98 91 49 18 6 6 18 51 95 
99 57 22 6 0 0 -1 -1 -1 -1 -1 -1 -1 -1 -1 -1 -1 -1 -1 -1 0 4 16 40 76 102 88 51 22 7 1 0 -1 -1 -1 -1 -1 -1 -1 0 2 11 32 69 101 91 55 29 28 54 95 95 51 18 4 0 -1 -1 -1 -1 -1 -1 -1 -1 -1 -1 -1 -1 -1 -1 -1 -1 -1 -1 -1 -1 -1 -1 -1 -1 -1 -1 0 1 9 29 66 100 89 49 18 5 0 -1 -1 -1 0 1 9 30 70 102 82 39 13 4 5 18 50 95 
107 67 29 10 2 0 -1 -1 -1 -1 -1 -1 -1 -1 -1 -1 -1 -1 -1 0 2 11 30 64 97 97 64 30 11 2 0 -1 -1 -1 -1 -1 -1 -1 -1 0 6 20 50 89 101 71 35 18 22 50 92 97 55 20 5 0 -1 -1 -1 -1 -1 -1 -1 -1 -1 -1 -1 -1 -1 -1 -1 -1 -1 -1 -1 -1 -1 -1 -1 -1 -1 -1 0 3 15 41 83 102 73 34 11 2 0 -1 -1 -1 0 2 13 39 82 102 70 30 9 3 5 17 50 97 
120 87 46 20 7 1 0 -1 -1 -1 -1 -1 -1 -1 -1 -1 -1 -1 0 1 7 22 51 88 102 76 40 16 4 0 -1 -1 -1 -1 -1 -1 -1 -1 0 3 12 34 71 101 89 50 21 11 17 45 88 100 61 24 6 0 -1 -1 -1 -1 -1 -1 -1 -1 -1 -1 -1 -1 -1 -1 -1 -1 -1 -1 -1 -1 -1 -1 -1 -1 -1 -1 0 6 22 56 96 96 56 22 6 0 -1 -1 -1 -1 0 4 17 48 91 98 59 23 6 2 4 17 49 99 
133 114 75 40 17 5 0 0 -1 -1 -1 -1 -1 -1 -1 -1 -1 -1 0 4 16 40 76 102 88 51 22 7 1 0 -1 -1 -1 -1 -1 -1 -1 0 1 7 23 53 91 101 69 32 12 6 13 38 81 102 70 30 9 1 0 -1 -1 -1 -1 -1 -1 -1 -1 -1 -1 -1 -1 -1 -1 -1 -1 -1 -1 -1 -1 -1 -1 -1 -1 0 2 11 34 73 102 83 41 15 3 0 -1 -1 -1 -1 0 6 23 59 98 91 49 17 4 1 4 17 48 100 
135 130 104 69 36 14 4 0 -1 -1 -1 -1 -1 -1 -1 -1 -1 0 2 11 30 64 97 97 64 30 11 2 0 -1 -1 -1 -1 -1 -1 -1 -1 0 4 15 40 77 102 86 47 19 6 3 10 30 70 102 80 38 12 2 0 -1 -1 -1 -1 -1 -1 -1 -1 -1 -1 -1 -1 -1 -1 -1 -1 -1 -1 -1 -1 -1 -1 -1 -1 0 5 18 49 89 100 66 29 9 1 0 -1 -1 -1 0 1 9 30 70 102 82 39 13 3 1 4 17 49 100 
125 120 114 97 62 30 11 3 0 -1 -1 -1 -1 -1 -1 -1 0 1 7 22 51 88 102 76 40 16 4 0 -1 -1 -1 -1 -1 -1 -1 -1 0 2 10 29 63 97 97 63 29 10 2 1 7 24 61 100 88 44 15 3 0 -1 -1 -1 -1 -1 -1 -1 -1 -1 -1 -1 -1 -1 -1 -1 -1 -1 -1 -1 -1 -1 -1 -1 0 1 9 29 66 100 89 49 18 5 0 -1 -1 -1 -1 0 2 13 39 82 102 70 30 9 1 0 4 17 49 98 
112 97 98 106 88 52 24 8 2 0 -1 -1 -1 -1 -1 -1 0 4 16 40 76 102 88 51 22 7 1 0 -1 -1 -1 -1 -1 -1 -1 -1 0 5 19 47 86 102 77 40 15 4 0 0 5 20 55 97 92 48 17 4 0 -1 -1 -1 -1 -1 -1 -1 -1 -1 -1 -1 -1 -1 -1 -1 -1 -1 -1 -1 -1 -1 -1 -1 0 3 15 41 83 102 73 34 11 2 0 -1 -1 -1 -1 0 4 17 48 91 98 59 23 6 1 0 4 18 50 97 
103 77 72 93 103 79 45 20 7 1 0 -1 -1 -1 -1 0 2 11 30 64 97 97 64 30 11 2 0 -1 -1 -1 -1 -1 -1 -1 -1 0 2 11 32 69 101 91 53 23 7 1 0 0 4 18 51 95 95 51 18 4 0 -1 -1 -1 -1 -1 -1 -1 -1 -1 -1 -1 -1 -1 -1 -1 -1 -1 -1 -1 -1 -1 -1 -1 0 6 22 56 96 96 56 22 6 0 -1 -1 -1 -1 -1 0 6 23 59 98 91 48 17 4 0 0 4 18 51 95 
99 64 50 68 96 100 74 42 19 7 1 0 -1 -1 0 1 7 22 51 88 102 76 40 16 4 0 -1 -1 -1 -1 -1 -1 -1 -1 -1 0 6 20 50 89 101 71 34 12 3 0 0 0 4 17 48 92 97 55 20 5 0 -1 -1 -1 -1 -1 -1 -1 -1 -1 -1 -1 -1 -1 -1 -1 -1 -1 -1 -1 -1 -1 -1 0 2 11 34 73 102 83 41 15 3 0 -1 -1 -1 -1 0 1 9 30 70 102 82 39 13 2 0 0 4 18 51 95 
96 57 35 42 71 98 99 73 41 19 7 1 0 0 0 4 16 40 76 102 88 51 22 7 1 0 -1 -1 -1 -1 -1 -1 -1 -1 0 3 12 34 71 101 89 50 20 6 0 0 -1 0 3 15 44 88 100 61 24 6 0 -1 -1 -1 -1 -1 -1 -1 -1 -1 -1 -1 -1 -1 -1 -1 -1 -1 -1 -1 -1 -1 -1 0 5 18 49 89 100 66 29 9 1 0 -1 -1 -1 -1 0 2 13 39 82 102 70 30 9 1 0 0 4 18 51 95 
95 54 26 23 41 72 99 99 73 41 19 7 2 0 3 11 30 64 97 97 64 30 11 2 0 -1 -1 -1 -1 -1 -1 -1 -1 0 1 7 23 53 91 101 69 32 11 2 0 -1 -1 0 2 12 38 80 102 70 30 9 1 0 -1 -1 -1 -1 -1 -1 -1 -1 -1 -1 -1 -1 -1 -1 -1 -1 -1 -1 -1 -1 0 1 9 29 66 100 89 49 18 5 0 -1 -1 -1 -1 -1 0 4 17 48 91 98 59 23 6 0 0 0 4 18 51 95 
95 52 21 13 20 41 73 99 99 73 41 19 8 4 8 22 51 88 102 76 40 16 4 0 -1 -1 -1 -1 -1 -1 -1 -1 -1 0 4 15 40 77 102 86 47 19 5 0 -1 -1 -1 0 1 9 30 70 102 81 38 12 2 0 -1 -1 -1 -1 -1 -1 -1 -1 -1 -1 -1 -1 -1 -1 -1 -1 -1 -1 -1 -1 0 3 15 41 83 102 73 34 11 2 0 -1 -1 -1 -1 -1 0 6 23 59 98 91 48 17 4 0 0 0 4 18 51 95 
95 51 19 7 8 19 41 73 99 99 73 42 21 14 19 41 77 102 88 51 22 7 1 0 -1 -1 -1 -1 -1 -1 -1 -1 0 2 10 29 63 97 97 63 29 10 2 0 -1 -1 -1 -1 0 6 24 61 100 88 44 15 3 0 -1 -1 -1 -1 -1 -1 -1 -1 -1 -1 -1 -1 -1 -1 -1 -1 -1 -1 -1 -1 0 6 22 56 96 96 56 22 6 0 -1 -1 -1 -1 -1 0 1 9 30 70 102 82 39 13 2 0 -1 0 4 18 51 95 
95 51 18 5 3 7 19 41 73 99 99 74 46 32 40 67 98 97 64 30 11 2 0 -1 -1 -1 -1 -1 -1 -1 -1 -1 0 5 19 47 86 102 77 40 15 4 0 -1 -1 -1 -1 -1 0 5 20 54 96 93 49 17 4 0 -1 -1 -1 -1 -1 -1 -1 -1 -1 -1 -1 -1 -1 -1 -1 -1 -1 -1 -1 0 2 11 34 73 102 83 41 15 3 0 -1 -1 -1 -1 -1 0 2 13 39 82 102 70 30 9 1 0 -1 0 4 18 51 95 
95 51 18 4 1 2 7 19 41 73 99 101 81 65 72 95 103 76 40 16 4 0 -1 -1 -1 -1 -1 -1 -1 -1 -1 0 2 11 32 69 101 91 53 23 7 1 0 -1 -1 -1 -1 -1 0 4 17 49 93 96 54 20 5 0 -1 -1 -1 -1 -1 -1 -1 -1 -1 -1 -1 -1 -1 -1 -1 -1 -1 -1 -1 0 5 18 49 89 100 66 29 9 1 0 -1 -1 -1 -1 -1 0 4 17 48 91 98 59 23 6 0 -1 -1 0 4 18 51 95 
95 51 18 4 0 0 1 7 19 41 73 101 111 107 109 112 89 51 22 7 1 0 -1 -1 -1 -1 -1 -1 -1 -1 -1 0 6 20 50 89 101 71 34 12 3 0 -1 -1 -1 -1 -1 -1 0 3 15 44 88 100 61 24 6 0 -1 -1 -1 -1 -1 -1 -1 -1 -1 -1 -1 -1 -1 -1 -1 -1 -1 -1 0 1 9 29 66 100 89 49 18 5 0 -1 -1 -1 -1 -1 -1 0 6 23 59 98 91 48 17 4 0 -1 -1 0 4 18 51 95 
95 51 18 4 0 0 0 1 7 19 42 76 111 133 132 106 65 30 11 2 0 -1 -1 -1 -1 -1 -1 -1 -1 -1 0 3 12 34 71 101 89 50 20 6 0 -1 -1 -1 -1 -1 -1 -1 0 2 12 38 81 102 70 30 9 1 0 -1 -1 -1 -1 -1 -1 -1 -1 -1 -1 -1 -1 -1 -1 -1 -1 -1 0 3 15 41 83 102 73 34 11 2 0 -1 -1 -1 -1 -1 0 1 9 30 70 102 82 39 13 2 0 -1 -1 0 4 18 51 95 
95 51 18 4 0 -1 -1 0 1 7 21 47 87 127 127 86 43 16 5 0 -1 -1 -1 -1 -1 -1 -1 -1 -1 0 1 7 23 53 91 101 69 32 11 2 0 -1 -1 -1 -1 -1 -1 -1 0 1 9 30 70 102 80 38 12 2 0 -1 -1 -1 -1 -1 -1 -1 -1 -1 -1 -1 -1 -1 -1 -1 -1 -1 0 6 22 56 96 96 56 22 6 0 -1 -1 -1 -1 -1 -1 0 2 13 39 82 102 70 30 9 1 0 -1 -1 0 4 18 51 95 
95 51 18 4 0 -1 -1 -1 0 2 10 28 65 109 114 71 30 10 2 0 -1 -1 -1 -1 -1 -1 -1 -1 -1 0 4 15 40 77 102 86 47 19 5 0 -1 -1 -1 -1 -1 -1 -1 -1 -1 0 6 24 61 100 88 44 15 3 0 -1 -1 -1 -1 -1 -1 -1 -1 -1 -1 -1 -1 -1 -1 -1 -1 0 2 11 34 73 102 83 41 15 3 0 -1 -1 -1 -1 -1 -1 0 4 17 48 91 98 59 23 6 0 -1 -1 -1 0 4 18 51 95 
95 51 18 4 0 -1 -1 -1 -1 0 5 19 50 94 106 67 28 8 1 0 -1 -1 -1 -1 -1 -1 -1 -1 0 2 10 29 63 97 97 63 29 10 2 0 -1 -1 -1 -1 -1 -1 -1 -1 -1 0 5 20 55 97 92 48 17 4 0 -1 -1 -1 -1 -1 -1 -1 -1 -1 -1 -1 -1 -1 -1 -1 -1 0 5 18 49 89 100 66 29 9 1 0 -1 -1 -1 -1 -1 -1 0 6 23 59 98 91 48 17 4 0 -1 -1 -1 0 4 18 51 95 
95 51 18 4 0 -1 -1 -1 -1 0 3 13 39 82 104 72 31 9 1 0 -1 -1 -1 -1 -1 -1 -1 -1 0 5 19 47 86 102 77 40 15 4 0 -1 -1 -1 -1 -1 -1 -1 -1 -1 -1 0 4 18 51 95 95 51 18 4 0 -1 -1 -1 -1 -1 -1 -1 -1 -1 -1 -1 -1 -1 -1 -1 0 1 9 29 66 100 89 49 18 5 0 -1 -1 -1 -1 -1 -1 0 1 9 30 70 102 82 39 13 2 0 -1 -1 -1 0 4 18 51 95 
95 51 18 4 0 -1 -1 -1 -1 0 1 9 31 71 103 81 38 12 2 0 -1 -1 -1 -1 -1 -1 -1 0 2 11 32 69 101 91 53 23 7 1 0 -1 -1 -1 -1 -1 -1 -1 -1 -1 -1 0 4 17 48 92 97 55 20 5 0 -1 -1 -1 -1 -1 -1 -1 -1 -1 -1 -1 -1 -1 -1 -1 0 3 15 41 83 102 73 34 11 2 0 -1 -1 -1 -1 -1 -1 0 2 13 39 82 102 70 30 9 1 0 -1 -1 -1 0 4 18 51 95 
95 51 18 4 0 -1 -1 -1 -1 -1 0 6 24 60 99 89 46 16 3 0 -1 -1 -1 -1 -1 -1 -1 0 6 20 50 89 101 71 34 12 3 0 -1 -1 -1 -1 -1 -1 -1 -1 -1 -1 -1 0 3 15 44 88 100 61 24 6 0 -1 -1 -1 -1 -1 -1 -1 -1 -1 -1 -1 -1 -1 -1 -1 0 6 22 56 96 96 56 22 6 0 -1 -1 -1 -1 -1 -1 -1 0 4 17 48 91 98 59 23 6 0 -1 -1 -1 -1 0 4 19 52 96 
95 50 18 4 0 -1 -1 -1 -1 -1 0 5 19 52 95 95 52 19 5 0 -1 -1 -1 -1 -1 -1 0 3 12 34 71 101 89 50 20 6 0 -1 -1 -1 -1 -1 -1 -1 -1 -1 -1 -1 -1 0 2 12 38 80 102 70 30 9 1 0 -1 -1 -1 -1 -1 -1 -1 -1 -1 -1 -1 -1 -1 0 2 11 34 73 102 83 41 15 3 0 -1 -1 -1 -1 -1 -1 -1 0 6 23 59 98 91 48 17 4 0 -1 -1 -1 -1 0 5 20 55 98 
96 50 17 4 0 -1 -1 -1 -1 -1 0 3 16 46 89 99 60 24 6 0 -1 -1 -1 -1 -1 0 1 7 23 53 91 101 69 32 11 2 0 -1 -1 -1 -1 -1 -1 -1 -1 -1 -1 -1 -1 0 1 9 30 70 102 80 38 12 2 0 -1 -1 -1 -1 -1 -1 -1 -1 -1 -1 -1 -1 -1 0 5 18 49 89 100 66 29 9 1 0 -1 -1 -1 -1 -1 -1 0 1 9 30 70 102 82 39 13 2 0 -1 -1 -1 0 1 7 25 62 104 
97 49 17 4 0 -1 -1 -1 -1 -1 0 2 12 38 81 102 70 30 9 1 0 -1 -1 -1 -1 0 4 15 40 77 102 86 47 19 5 0 -1 -1 -1 -1 -1 -1 -1 -1 -1 -1 -1 -1 -1 -1 0 6 24 61 100 88 44 15 3 0 -1 -1 -1 -1 -1 -1 -1 -1 -1 -1 -1 -1 0 1 9 29 66 100 89 49 18 5 0 -1 -1 -1 -1 -1 -1 -1 0 2 13 39 82 102 70 30 9 1 0 -1 -1 -1 0 3 12 35 76 114 
99 48 16 4 0 -1 -1 -1 -1 -1 0 1 9 30 70 102 81 38 12 2 0 -1 -1 -1 0 2 10 29 63 97 97 63 29 10 2 0 -1 -1 -1 -1 -1 -1 -1 -1 -1 -1 -1 -1 -1 -1 0 5 20 55 97 92 48 17 4 0 -1 -1 -1 -1 -1 -1 -1 -1 -1 -1 -1 -1 0 3 15 41 83 102 73 34 11 2 0 -1 -1 -1 -1 -1 -1 -1 0 4 17 48 91 98 59 23 6 0 -1 -1 -1 0 1 7 22 52 97 126 
100 48 16 4 0 -1 -1 -1 -1 -1 -1 0 6 24 60 99 89 46 16 3 0 -1 -1 -1 0 5 19 47 86 102 77 40 15 4 0 -1 -1 -1 -1 -1 -1 -1 -1 -1 -1 -1 -1 -1 -1 -1 0 4 18 51 95 95 51 18 4 0 -1 -1 -1 -1 -1 -1 -1 -1 -1 -1 -1 -1 0 6 22 56 96 96 56 22 6 0 -1 -1 -1 -1 -1 -1 -1 -1 0 6 23 59 98 91 48 17 4 0 -1 -1 -1 0 4 15 39 77 119 134 
99 49 17 4 0 -1 -1 -1 -1 -1 -1 0 5 19 52 95 95 52 19 5 0 -1 -1 0 2 11 32 69 101 91 53 23 7 1 0 -1 -1 -1 -1 -1 -1 -1 -1 -1 -1 -1 -1 -1 -1 -1 0 4 17 48 92 97 55 20 5 0 -1 -1 -1 -1 -1 -1 -1 -1 -1 -1 -1 0 2 11 34 73 102 83 41 15 3 0 -1 -1 -1 -1 -1 -1 -1 0 1 9 30 70 102 82 39 13 2 0 -1 -1 0 2 11 30 63 103 129 133 
98 49 17 4 0 -1 -1 -1 -1 -1 -1 0 3 16 46 89 99 60 24 6 0 0 0 0 6 20 50 89 101 71 34 12 3 0 -1 -1 -1 -1 -1 -1 -1 -1 -1 -1 -1 -1 -1 -1 -1 -1 0 3 15 44 88 100 61 24 7 1 0 -1 -1 -1 -1 -1 -1 -1 -1 -1 -1 0 5 18 49 89 100 66 29 9 1 0 -1 -1 -1 -1 -1 -1 -1 0 2 13 39 82 102 70 30 9 1 0 -1 0 1 7 22 51 89 114 121 124 
97 50 18 4 0 -1 -1 -1 -1 -1 -1 0 2 12 38 81 102 70 30 9 1 0 0 3 12 34 71 101 89 50 20 6 0 -1 -1 -1 -1 -1 -1 -1 -1 -1 -1 -1 -1 -1 -1 -1 -1 -1 0 2 12 38 81 103 72 32 10 3 0 0 0 -1 -1 -1 -1 -1 -1 -1 0 1 9 29 66 101 89 49 18 5 0 -1 -1 -1 -1 -1 -1 -1 -1 0 4 17 48 91 98 59 23 6 0 0 0 0 4 16 40 76 105 105 102 113 
96 51 18 4 0 -1 -1 -1 -1 -1 -1 0 1 9 30 70 102 81 38 12 2 0 1 7 23 53 91 101 69 32 11 2 0 -1 -1 -1 -1 -1 -1 -1 -1 -1 -1 -1 -1 -1 -1 -1 -1 -1 0 2 10 32 73 105 85 43 18 8 4 2 1 0 0 0 0 0 0 0 0 4 15 42 83 102 73 34 11 2 0 -1 -1 -1 -1 -1 -1 -1 -1 0 6 23 59 98 91 48 17 4 0 0 0 2 11 30 64 98 102 83 83 105 
95 51 18 4 0 -1 -1 -1 -1 -1 -1 -1 0 6 24 60 99 89 46 16 4 1 4 15 40 77 102 86 47 19 5 0 -1 -1 -1 -1 -1 -1 -1 -1 -1 -1 -1 -1 -1 -1 -1 -1 -1 -1 0 2 10 30 68 108 101 61 34 22 16 12 9 6 5 4 4 3 2 2 3 8 24 57 96 96 56 22 6 0 -1 -1 -1 -1 -1 -1 -1 -1 0 1 9 30 70 102 82 39 13 2 0 0 1 7 22 51 88 103 82 60 69 100 
95 51 18 4 0 -1 -1 -1 -1 -1 -1 -1 0 5 19 52 95 95 52 19 6 3 10 29 63 97 97 63 29 10 2 0 -1 -1 -1 -1 -1 -1 -1 -1 -1 -1 -1 -1 -1 -1 -1 -1 -1 0 1 6 16 37 76 118 122 91 66 53 45 38 30 24 20 18 17 15 12 10 10 17 38 75 103 83 42 15 3 0 -1 -1 -1 -1 -1 -1 -1 -1 0 2 13 39 82 102 70 30 9 1 0 0 4 16 40 76 102 90 57 42 60 97 
95 51 18 4 0 -1 -1 -1 -1 -1 -1 -1 0 3 16 46 89 99 60 24 9 7 19 47 86 102 77 40 15 4 0 -1 -1 -1 -1 -1 -1 -1 -1 -1 -1 -1 -1 -1 -1 -1 -1 0 0 2 7 16 33 60 97 131 136 120 104 95 89 81 71 61 55 51 48 44 38 32 30 38 63 97 103 67 29 9 1 0 -1 -1 -1 -1 -1 -1 -1 -1 0 4 17 48 91 98 59 23 6 1 0 2 11 30 64 97 98 65 36 31 55 96 
95 51 18 4 0 -1 -1 -1 -1 -1 -1 -1 0 2 12 38 81 102 71 31 13 14 33 69 101 91 53 23 7 1 0 -1 -1 -1 -1 -1 -1 -1 -1 -1 -1 -1 -1 -1 -1 -1 0 1 4 11 22 40 65 92 113 120 113 104 99 98 100 103 102 100 97 95 92 88 81 73 68 76 98 117 96 52 20 5 0 -1 -1 -1 -1 -1 -1 -1 -1 -1 0 6 23 59 98 91 49 17 4 0 1 7 22 51 88 102 77 41 22 24 53 95 
95 51 18 4 0 -1 -1 -1 -1 -1 -1 -1 0 1 9 30 70 102 81 40 20 24 51 89 101 71 34 12 3 0 -1 -1 -1 -1 -1 -1 -1 -1 -1 -1 -1 -1 -1 -1 0 0 2 7 16 30 51 77 98 104 94 77 63 55 53 55 61 70 80 88 92 95 97 100 103 105 107 116 131 129 88 42 15 4 0 -1 -1 -1 -1 -1 -1 -1 -1 0 1 9 30 70 102 82 39 13 3 1 5 16 40 76 102 88 52 24 13 21 52 95 
95 51 18 4 0 -1 -1 -1 -1 -1 -1 -1 -1 0 6 24 60 99 90 50 30 39 72 102 89 50 20 6 0 -1 -1 -1 -1 -1 -1 -1 -1 -1 -1 -1 -1 -1 -1 0 1 4 11 22 40 64 88 102 98 77 54 36 25 20 19 21 24 30 38 44 48 51 55 61 71 83 95 111 130 129 90 44 17 5 0 0 -1 -1 -1 -1 -1 -1 -1 0 3 13 39 82 102 70 30 9 2 3 11 30 64 97 97 64 31 12 8 19 51 95 
95 51 18 4 0 -1 -1 -1 -1 -1 -1 -1 -1 0 5 19 52 95 97 62 44 60 92 101 69 32 11 2 0 -1 -1 -1 -1 -1 -1 -1 -1 -1 -1 -1 -1 -1 0 1 6 15 29 51 76 97 102 88 64 40 23 13 7 5 5 5 6 9 12 15 17 18 20 24 31 40 51 68 95 116 99 59 27 11 4 1 0 0 0 0 0 0 0 1 6 19 50 92 99 59 23 7 3 8 22 51 88 102 76 40 16 6 6 18 51 95 
95 51 18 4 0 -1 -1 -1 -1 -1 -1 -1 -1 0 3 16 45 89 104 78 66 85 104 86 47 19 5 0 -1 -1 -1 -1 -1 -1 -1 -1 -1 -1 -1 -1 0 0 3 8 19 37 62 88 102 97 76 51 30 16 7 3 1 0 0 0 0 1 2 3 4 4 5 7 9 14 20 33 58 93 107 83 49 25 13 8 5 4 4 4 4 4 4 6 12 28 63 101 93 50 19 7 6 16 40 76 102 88 51 22 7 2 5 18 51 95 
95 51 18 4 0 -1 -1 -1 -1 -1 -1 -1 -1 0 2 12 38 81 110 100 95 106 98 63 29 10 2 0 -1 -1 -1 -1 -1 -1 -1 -1 -1 -1 -1 0 1 4 11 23 44 71 96 102 89 64 40 22 11 4 1 0 0 -1 -1 -1 -1 0 0 0 0 0 0 0 1 3 6 14 33 66 102 109 84 55 36 26 21 19 18 18 18 18 19 21 28 47 83 111 89 45 18 9 13 31 64 97 97 64 30 11 3 1 4 18 51 95 
95 51 18 4 0 -1 -1 -1 -1 -1 -1 -1 -1 0 1 9 30 70 112 122 119 109 77 39 15 4 0 -1 -1 -1 -1 -1 -1 -1 -1 -1 -1 0 0 2 7 16 31 52 79 100 100 79 52 31 16 7 2 0 0 -1 -1 -1 -1 -1 -1 -1 -1 -1 -1 -1 -1 -1 0 0 1 5 17 44 85 121 122 99 77 63 56 53 51 51 51 51 52 55 63 82 112 124 92 49 24 17 26 53 89 102 76 40 16 4 0 0 4 18 51 95 
95 51 18 4 0 -1 -1 -1 -1 -1 -1 -1 -1 -1 0 6 23 60 109 135 126 93 52 22 7 1 0 -1 -1 -1 -1 -1 -1 -1 -1 -1 0 1 4 11 22 40 64 89 102 96 71 44 23 11 4 1 0 -1 -1 -1 -1 -1 -1 -1 -1 -1 -1 -1 -1 -1 -1 -1 -1 -1 0 2 10 30 71 119 138 126 111 102 98 96 95 95 95 95 95 97 103 116 134 135 106 69 44 38 51 81 104 89 52 22 7 1 0 0 4 18 51 95 
95 51 18 4 0 -1 -1 -1 -1 -1 -1 -1 -1 -1 0 5 19 53 104 135 115 70 32 11 2 0 -1 -1 -1 -1 -1 -1 -1 -1 0 0 2 7 15 30 51 76 97 102 88 62 37 19 8 3 0 0 -1 -1 -1 -1 -1 -1 -1 -1 -1 -1 -1 -1 -1 -1 -1 -1 -1 -1 0 1 8 27 67 113 124 106 94 92 93 94 94 94 95 95 95 95 97 103 113 121 116 99 82 75 88 108 102 66 31 11 2 0 0 0 4 18 51 95 
95 51 18 4 0 -1 -1 -1 -1 -1 -1 -1 -1 -1 0 4 17 50 101 126 94 48 19 5 0 -1 -1 -1 -1 -1 -1 -1 0 0 1 4 10 21 39 63 89 103 98 77 52 30 15 6 2 0 0 -1 -1 -1 -1 -1 -1 -1 -1 -1 -1 -1 -1 -1 -1 -1 -1 -1 -1 -1 0 1 9 31 72 109 98 68 52 48 49 50 51 51 51 51 51 51 52 55 62 76 93 105 111 115 125 123 90 47 18 5 0 0 -1 0 4 18 51 95 
95 51 18 4 0 -1 -1 -1 -1 -1 -1 -1 -1 -1 0 4 17 50 98 114 75 33 11 2 0 -1 -1 -1 -1 -1 0 0 1 4 8 15 28 49 76 100 108 94 69 44 25 13 6 2 0 0 -1 -1 -1 -1 -1 -1 -1 -1 -1 -1 -1 -1 -1 -1 -1 -1 -1 -1 -1 -1 0 2 12 38 81 105 77 41 23 18 17 18 18 18 18 18 18 18 18 20 24 34 50 71 94 118 136 126 83 39 14 3 0 -1 -1 0 4 18 51 95 
95 51 18 4 0 -1 -1 -1 -1 -1 -1 -1 -1 -1 0 4 18 51 97 103 61 24 7 1 0 -1 -1 -1 0 0 2 5 9 15 25 40 63 91 115 120 101 73 48 30 18 10 6 3 1 0 0 0 0 0 -1 -1 -1 -1 -1 -1 -1 -1 -1 -1 -1 -1 -1 -1 -1 -1 0 3 15 44 88 100 63 27 11 5 4 4 4 4 4 4 4 4 4 5 7 11 20 33 53 82 113 121 89 47 18 5 0 0 -1 0 4 18 51 95 
95 51 18 4 0 -1 -1 -1 -1 -1 -1 -1 -1 -1 0 5 20 55 98 96 52 19 5 0 0 0 0 0 2 5 10 18 29 42 59 80 105 127 137 126 101 77 59 45 33 24 18 13 9 6 5 3 2 1 0 0 0 0 -1 -1 -1 -1 -1 -1 -1 -1 -1 -1 -1 -1 0 4 17 49 93 97 55 21 6 1 0 0 0 0 0 0 0 0 0 0 1 2 6 12 23 44 76 106 102 66 31 11 2 0 0 0 4 18 51 95 
95 51 18 4 0 -1 -1 -1 -1 -1 -1 -1 -1 -1 0 6 24 61 100 89 45 16 4 0 0 1 3 6 11 20 32 48 66 84 98 108 115 119 122 120 112 102 93 83 71 59 49 39 31 24 19 16 12 9 6 4 2 1 0 0 0 0 0 -1 -1 -1 -1 -1 -1 -1 0 5 20 54 96 93 50 18 4 0 0 -1 -1 -1 -1 -1 -1 -1 -1 -1 0 0 0 3 8 21 45 80 104 89 52 22 7 1 0 0 4 18 51 95 
95 51 18 4 0 -1 -1 -1 -1 -1 -1 -1 -1 0 1 9 30 71 103 81 39 13 4 3 5 9 15 23 34 50 69 88 100 103 97 86 76 71 74 83 90 96 100 103 102 98 91 82 71 60 52 45 38 30 23 17 13 9 6 5 3 2 1 0 0 0 0 -1 -1 0 0 7 24 61 100 88 44 15 3 0 -1 -1 -1 -1 -1 -1 -1 -1 -1 -1 -1 -1 0 0 2 8 23 52 89 102 77 40 16 4 0 0 4 18 51 95 
95 51 18 4 0 -1 -1 -1 -1 -1 -1 -1 -1 0 2 12 38 81 103 72 32 13 8 11 18 29 41 56 73 90 101 101 90 73 57 43 33 29 31 38 45 52 60 71 82 91 98 102 102 99 95 89 81 70 58 48 39 31 24 19 16 12 9 6 4 2 1 0 0 0 2 10 31 71 103 81 38 12 2 0 -1 -1 -1 -1 -1 -1 -1 -1 -1 -1 -1 -1 -1 -1 0 3 11 30 64 97 97 64 31 11 3 1 4 18 51 95 
95 51 18 4 0 -1 -1 -1 -1 -1 -1 -1 -1 0 3 16 45 89 101 65 31 19 22 32 48 66 83 96 102 100 88 69 50 34 23 15 11 9 10 12 16 19 24 31 39 48 58 70 81 89 95 99 102 102 98 91 82 71 60 52 45 38 30 23 17 13 9 6 5 4 6 15 40 82 103 70 30 9 1 0 -1 -1 -1 -1 -1 -1 -1 -1 -1 -1 -1 -1 -1 -1 -1 0 4 16 40 76 102 89 52 23 8 3 5 18 51 95 
95 51 18 4 0 -1 -1 -1 -1 -1 -1 -1 -1 0 5 19 52 96 102 67 42 39 51 70 88 100 102 96 83 66 48 32 20 11 6 3 2 1 1 2 3 5 6 9 13 17 23 30 38 45 52 60 71 82 91 98 102 102 99 95 89 81 70 58 48 39 31 24 19 17 17 26 52 92 101 61 24 6 0 -1 -1 -1 -1 -1 -1 -1 -1 -1 -1 -1 -1 -1 -1 -1 -1 0 1 7 22 51 88 102 79 44 19 7 7 19 51 95 
95 51 18 4 0 -1 -1 -1 -1 -1 -1 -1 0 0 7 24 61 105 110 82 69 75 90 101 101 90 73 56 41 29 18 10 5 2 0 0 0 0 0 0 0 0 0 1 2 4 6 9 12 16 19 24 31 39 48 58 70 81 89 95 99 102 102 98 91 82 71 60 53 47 44 49 71 105 99 55 20 5 0 -1 -1 -1 -1 -1 -1 -1 -1 -1 -1 -1 -1 -1 -1 -1 -1 -1 0 2 11 29 62 96 100 71 37 16 10 20 51 95 
95 51 18 4 0 -1 -1 -1 -1 -1 -1 -1 0 2 11 33 75 119 126 109 103 104 102 89 70 50 34 23 15 9 5 2 0 0 -1 -1 -1 -1 -1 -1 -1 -1 -1 0 0 0 0 1 2 3 5 6 9 13 17 23 30 38 45 52 60 71 82 91 98 102 102 99 95 90 86 87 102 121 100 51 18 4 0 -1 -1 -1 -1 -1 -1 -1 -1 -1 -1 -1 -1 -1 -1 -1 -1 -1 -1 0 4 15 37 71 100 96 63 31 17 23 52 95 
95 51 18 4 0 -1 -1 -1 -1 -1 -1 -1 0 5 19 49 95 132 134 119 104 88 69 49 32 20 11 6 3 1 0 0 -1 -1 -1 -1 -1 -1 -1 -1 -1 -1 -1 -1 -1 -1 -1 0 0 0 0 0 1 2 4 6 9 12 16 19 24 31 39 48 58 70 81 89 95 100 106 115 129 135 101 49 17 4 0 -1 -1 -1 -1 -1 -1 -1 -1 -1 -1 -1 -1 -1 -1 -1 -1 -1 -1 0 1 6 19 43 79 102 88 54 29 28 54 95 
95 51 18 4 0 -1 -1 -1 -1 -1 -1 0 3 12 33 70 111 124 108 86 66 47 31 19 11 5 2 0 0 0 -1 -1 -1 -1 -1 -1 -1 -1 -1 -1 -1 -1 -1 -1 -1 -1 -1 -1 -1 -1 -1 -1 0 0 0 0 1 2 3 5 6 9 13 17 23 30 38 46 53 61 75 94 119 132 101 49 17 4 0 -1 -1 -1 -1 -1 -1 -1 -1 -1 -1 -1 -1 -1 -1 -1 -1 -1 -1 -1 0 1 8 23 52 88 103 80 50 39 59 97 
95 51 18 4 0 -1 -1 -1 -1 -1 0 1 7 22 53 92 110 92 64 43 29 18 10 5 2 0 0 -1 -1 -1 -1 -1 -1 -1 -1 -1 -1 -1 -1 -1 -1 -1 -1 -1 -1 -1 -1 -1 -1 -1 -1 -1 -1 -1 -1 -1 0 0 0 0 0 1 2 4 6 9 12 16 19 25 36 55 88 117 98 50 17 4 0 -1 -1 -1 -1 -1 -1 -1 -1 -1 -1 -1 -1 -1 -1 -1 -1 -1 -1 -1 -1 0 3 11 30 62 96 101 77 57 68 100 
96 51 18 4 0 -1 -1 -1 -1 -1 0 4 16 40 77 104 92 57 31 17 9 5 2 0 0 -1 -1 -1 -1 -1 -1 -1 -1 -1 -1 -1 -1 -1 -1 -1 -1 -1 -1 -1 -1 -1 -1 -1 -1 -1 -1 -1 -1 -1 -1 -1 -1 -1 -1 -1 -1 0 0 0 0 1 2 3 5 8 15 32 65 104 96 51 18 4 0 -1 -1 -1 -1 -1 -1 -1 -1 -1 -1 -1 -1 -1 -1 -1 -1 -1 -1 -1 -1 -1 0 4 15 37 71 100 100 82 82 105 
97 50 18 4 0 -1 -1 -1 -1 0 3 11 30 64 98 98 65 32 14 5 2 0 0 -1 -1 -1 -1 -1 -1 -1 -1 -1 -1 -1 -1 -1 -1 -1 -1 -1 -1 -1 -1 -1 -1 -1 -1 -1 -1 -1 -1 -1 -1 -1 -1 -1 -1 -1 -1 -1 -1 -1 -1 -1 -1 0 0 0 0 2 7 22 55 98 97 53 19 5 0 -1 -1 -1 -1 -1 -1 -1 -1 -1 -1 -1 -1 -1 -1 -1 -1 -1 -1 -1 -1 -1 0 1 6 19 43 79 105 105 102 113 
98 49 17 4 0 -1 -1 -1 0 2 8 23 52 89 103 78 41 17 6 1 0 0 -1 -1 -1 -1 -1 -1 -1 -1 -1 -1 -1 -1 -1 -1 -1 -1 -1 -1 -1 -1 -1 -1 -1 -1 -1 -1 -1 -1 -1 -1 -1 -1 -1 -1 -1 -1 -1 -1 -1 -1 -1 -1 -1 -1 -1 -1 0 0 5 20 52 96 99 57 22 6 1 0 -1 -1 -1 -1 -1 -1 -1 -1 -1 -1 -1 -1 -1 -1 -1 -1 -1 -1 -1 -1 -1 0 1 8 23 52 90 114 121 124 
99 49 17 4 0 -1 -1 0 1 7 19 44 80 105 93 56 26 10 3 1 0 0 0 0 0 0 0 0 0 0 -1 -1 -1 -1 -1 -1 -1 -1 -1 -1 -1 -1 -1 -1 -1 -1 -1 -1 -1 -1 -1 -1 -1 -1 -1 -1 -1 -1 -1 -1 -1 -1 -1 -1 -1 -1 -1 -1 0 1 7 22 54 99 107 68 31 12 4 0 0 -1 -1 -1 -1 -1 -1 -1 -1 -1 -1 -1 -1 -1 -1 -1 -1 -1 -1 -1 -1 -1 0 3 11 30 63 103 129 133 
100 48 16 4 0 0 0 1 6 18 40 74 107 111 81 47 25 13 8 5 4 4 4 4 4 4 3 3 2 1 0 0 0 0 0 0 0 0 0 0 0 -1 -1 -1 -1 -1 -1 -1 -1 -1 -1 -1 -1 -1 -1 -1 -1 -1 -1 -1 -1 -1 -1 -1 -1 -1 0 0 1 5 13 31 65 108 123 90 51 26 13 6 2 0 0 -1 -1 -1 -1 -1 -1 -1 -1 -1 -1 -1 -1 -1 -1 -1 -1 -1 -1 -1 -1 0 4 15 39 77 119 134 
99 48 17 4 0 0 1 7 18 39 72 109 128 116 86 61 44 32 25 21 19 18 18 18 18 17 17 15 12 9 6 5 4 4 4 4 4 3 3 2 1 0 0 0 0 0 0 0 0 0 0 0 0 -1 -1 -1 -1 -1 -1 -1 -1 -1 -1 -1 -1 0 0 3 7 16 31 55 88 124 137 118 84 55 33 19 10 4 1 0 -1 -1 -1 -1 -1 -1 -1 -1 -1 -1 -1 -1 -1 -1 -1 -1 -1 -1 -1 0 1 7 22 52 97 126 
97 49 17 4 1 2 7 19 40 72 107 132 136 124 108 95 83 71 61 55 52 51 51 51 51 50 48 44 38 30 24 20 19 18 18 18 17 17 15 12 9 6 5 4 4 4 4 4 4 3 3 2 1 0 0 0 0 0 0 0 0 0 0 0 0 2 5 12 23 40 64 90 110 121 123 120 110 92 70 48 29 15 7 3 0 0 -1 -1 -1 -1 -1 -1 -1 -1 -1 -1 -1 -1 -1 -1 -1 -1 -1 -1 0 3 12 35 76 114 
96 50 18 5 3 8 19 41 72 102 116 114 107 102 100 101 103 103 100 97 95 95 95 94 94 94 92 88 80 70 61 55 52 51 51 51 50 48 44 38 30 24 20 19 18 18 18 18 17 17 15 12 9 6 5 4 4 4 4 4 4 3 3 3 5 10 19 33 53 77 98 104 95 82 75 81 93 103 101 86 63 40 23 12 5 2 0 0 -1 -1 -1 -1 -1 -1 -1 -1 -1 -1 -1 -1 -1 -1 -1 -1 0 1 7 25 62 104 
95 51 20 9 10 21 42 73 100 104 86 67 56 53 55 61 70 80 88 92 94 94 94 95 95 95 97 100 102 102 100 97 95 95 95 94 94 92 88 80 70 61 55 52 51 51 51 51 50 48 44 38 30 24 20 19 18 18 18 17 17 15 14 14 19 30 48 70 91 102 97 78 55 39 33 38 51 71 91 102 97 77 53 33 19 10 4 1 0 -1 -1 -1 -1 -1 -1 -1 -1 -1 -1 -1 -1 -1 -1 -1 -1 0 5 20 55 98 
96 53 24 17 25 45 74 99 100 75 48 30 22 19 20 24 30 38 44 48 50 51 51 51 51 52 55 61 70 80 88 92 94 94 95 95 95 97 100 102 102 100 97 95 95 95 94 94 94 92 88 80 70 61 55 52 51 51 51 50 48 45 41 40 48 66 87 101 101 86 63 40 23 14 11 13 20 34 53 77 97 102 91 70 48 29 15 7 3 0 0 -1 -1 -1 -1 -1 -1 -1 -1 -1 -1 -1 -1 -1 -1 0 4 19 52 96 
97 59 35 36 54 80 100 98 72 42 21 10 6 5 5 6 9 12 15 17 17 18 18 18 18 19 20 24 30 38 44 48 50 51 51 51 52 55 61 70 80 88 92 94 94 94 95 95 95 97 100 102 102 100 97 95 95 95 94 94 92 90 87 86 94 105 105 92 70 48 29 15 7 3 2 3 6 12 23 40 63 86 101 101 86 63 40 23 12 5 2 0 0 -1 -1 -1 -1 -1 -1 -1 -1 -1 -1 -1 -1 0 4 18 51 95 
102 71 57 68 90 103 95 69 40 19 7 2 0 0 0 0 1 2 3 3 4 4 4 4 4 4 5 6 9 12 15 17 17 18 18 18 19 20 24 30 38 44 48 50 51 51 51 51 52 55 61 70 80 88 92 94 94 95 95 96 99 106 118 129 129 112 84 55 34 19 10 4 1 0 0 0 0 3 7 15 29 48 70 91 102 97 77 53 33 19 10 4 1 0 -1 -1 -1 -1 -1 -1 -1 -1 -1 -1 -1 0 4 18 51 95 
111 92 89 100 103 88 62 36 17 7 1 0 0 -1 -1 -1 0 0 0 0 0 0 0 0 0 0 0 0 1 2 3 3 4 4 4 4 4 5 6 9 12 15 17 17 18 18 18 18 19 20 24 30 38 44 48 50 51 51 52 54 60 74 102 132 129 91 51 26 13 6 2 0 0 -1 -1 -1 0 0 1 4 10 19 33 53 77 97 102 91 70 48 29 15 7 3 0 0 -1 -1 -1 -1 -1 -1 -1 -1 -1 0 4 18 50 97 
124 118 113 103 79 52 30 14 6 1 0 -1 -1 -1 -1 -1 -1 -1 -1 -1 -1 -1 -1 -1 -1 -1 -1 -1 0 0 0 0 0 0 0 0 0 0 0 1 2 3 3 4 4 4 4 4 4 5 6 9 12 15 17 17 18 18 18 20 26 42 75 115 113 68 31 12 4 0 0 -1 -1 -1 -1 -1 -1 -1 0 0 2 5 12 23 40 63 86 101 101 86 63 40 23 12 6 2 0 0 -1 -1 -1 -1 -1 -1 -1 0 4 17 49 98 
135 130 106 75 45 24 11 4 0 0 -1 -1 -1 -1 -1 -1 -1 -1 -1 -1 -1 -1 -1 -1 -1 -1 -1 -1 -1 -1 -1 -1 -1 -1 -1 -1 -1 -1 -1 0 0 0 0 0 0 0 0 0 0 0 0 1 2 3 3 4 4 4 4 6 11 26 59 102 101 57 22 6 1 0 -1 -1 -1 -1 -1 -1 -1 -1 -1 -1 0 0 3 7 15 29 48 70 91 102 97 77 53 34 20 11 5 2 0 0 -1 -1 -1 -1 -1 0 4 17 49 100 
133 115 76 42 20 8 3 0 0 -1 -1 -1 -1 -1 -1 -1 -1 -1 -1 -1 -1 -1 -1 -1 -1 -1 -1 -1 -1 -1 -1 -1 -1 -1 -1 -1 -1 -1 -1 -1 -1 -1 -1 -1 -1 -1 -1 -1 -1 -1 -1 0 0 0 0 0 0 0 0 1 6 20 53 97 97 53 19 5 0 -1 -1 -1 -1 -1 -1 -1 -1 -1 -1 -1 -1 -1 0 1 4 10 19 33 53 77 97 102 91 71 50 32 19 10 4 1 0 0 -1 -1 -1 0 4 17 49 100 
120 88 47 21 8 2 0 -1 -1 -1 -1 -1 -1 -1 -1 -1 -1 -1 -1 -1 -1 -1 -1 -1 -1 -1 -1 -1 -1 -1 -1 -1 -1 -1 -1 -1 -1 -1 -1 -1 -1 -1 -1 -1 -1 -1 -1 -1 -1 -1 -1 -1 -1 -1 -1 -1 -1 -1 0 0 4 18 51 95 95 51 18 4 0 -1 -1 -1 -1 -1 -1 -1 -1 -1 -1 -1 -1 -1 -1 0 0 2 5 12 23 40 63 86 101 101 89 69 47 29 15 7 3 1 0 0 0 0 4 17 49 99 
107 67 30 10 2 0 -1 -1 -1 -1 -1 -1 -1 -1 -1 -1 -1 -1 -1 -1 -1 -1 -1 -1 -1 -1 -1 -1 -1 -1 -1 -1 -1 -1 -1 -1 -1 -1 -1 -1 -1 -1 -1 -1 -1 -1 -1 -1 -1 -1 -1 -1 -1 -1 -1 -1 -1 -1 -1 0 4 18 51 95 95 51 18 4 0 -1 -1 -1 -1 -1 -1 -1 -1 -1 -1 -1 -1 -1 -1 -1 -1 0 0 3 7 15 29 47 69 89 102 101 86 63 39 22 12 7 4 2 1 2 5 18 51 97 
100 57 22 6 0 0 -1 -1 -1 -1 -1 -1 -1 -1 -1 -1 -1 -1 -1 -1 -1 -1 -1 -1 -1 -1 -1 -1 -1 -1 -1 -1 -1 -1 -1 -1 -1 -1 -1 -1 -1 -1 -1 -1 -1 -1 -1 -1 -1 -1 -1 -1 -1 -1 -1 -1 -1 -1 -1 0 4 18 51 95 95 51 18 4 0 -1 -1 -1 -1 -1 -1 -1 -1 -1 -1 -1 -1 -1 -1 -1 -1 -1 -1 0 1 4 10 19 32 50 72 93 105 99 77 53 34 24 17 13 9 8 10 22 54 97 
97 53 19 5 0 0 -1 -1 -1 -1 -1 -1 -1 -1 -1 -1 -1 -1 -1 -1 -1 -1 -1 -1 -1 -1 -1 -1 -1 -1 -1 -1 -1 -1 -1 -1 -1 -1 -1 -1 -1 -1 -1 -1 -1 -1 -1 -1 -1 -1 -1 -1 -1 -1 -1 -1 -1 -1 -1 0 4 18 51 95 95 51 18 4 0 -1 -1 -1 -1 -1 -1 -1 -1 -1 -1 -1 -1 -1 -1 -1 -1 -1 -1 -1 0 0 2 6 13 23 39 62 90 113 115 97 76 59 48 39 31 25 24 33 62 100 
98 52 19 6 1 0 0 0 0 0 -1 -1 -1 -1 -1 -1 -1 -1 -1 -1 -1 -1 -1 -1 -1 -1 -1 -1 -1 -1 -1 -1 -1 -1 -1 -1 -1 -1 -1 -1 -1 -1 -1 -1 -1 -1 -1 -1 -1 -1 -1 -1 -1 -1 -1 -1 -1 -1 -1 0 4 18 51 95 95 51 18 4 0 -1 -1 -1 -1 -1 -1 -1 -1 -1 -1 -1 -1 -1 -1 -1 -1 -1 -1 -1 0 0 1 4 9 17 29 48 77 111 133 133 118 103 92 82 70 60 55 59 81 110 
103 55 23 10 5 4 4 3 2 1 0 0 0 0 0 0 0 0 -1 -1 -1 -1 -1 -1 -1 -1 -1 -1 -1 -1 -1 -1 -1 -1 -1 -1 -1 -1 -1 -1 -1 -1 -1 -1 -1 -1 -1 -1 -1 -1 -1 -1 -1 -1 -1 -1 -1 -1 -1 0 4 18 51 95 95 51 18 4 0 -1 -1 -1 -1 -1 -1 -1 -1 -1 -1 -1 -1 -1 -1 -1 -1 -1 0 0 1 3 6 12 20 31 46 66 90 115 128 123 111 104 102 103 103 99 96 98 112 126 
113 67 36 24 19 18 17 15 12 9 6 5 4 4 4 3 2 1 0 0 0 0 0 0 0 0 0 -1 -1 -1 -1 -1 -1 -1 -1 -1 -1 -1 -1 -1 -1 -1 -1 -1 -1 -1 -1 -1 -1 -1 -1 -1 -1 -1 -1 -1 -1 -1 -1 0 4 18 51 95 95 51 18 4 0 -1 -1 -1 -1 -1 -1 -1 -1 -1 -1 -1 -1 -1 -1 0 0 0 2 5 9 15 22 34 49 67 84 98 106 105 93 76 63 59 63 71 82 92 102 114 131 141 
129 93 67 56 52 50 48 44 38 30 24 20 19 18 17 15 12 9 6 5 4 4 4 3 3 2 1 0 0 0 0 0 0 0 0 -1 -1 -1 -1 -1 -1 -1 -1 -1 -1 -1 -1 -1 -1 -1 -1 -1 -1 -1 -1 -1 -1 -1 -1 0 4 18 51 95 95 51 18 4 0 -1 -1 -1 -1 -1 -1 -1 -1 -1 -1 -1 -1 0 0 1 3 6 11 18 29 41 56 73 89 101 103 96 83 66 48 34 25 23 25 31 39 50 62 83 112 138 
142 125 107 99 95 94 92 88 80 70 61 55 52 50 48 44 38 30 24 20 19 18 17 17 15 12 9 6 5 4 4 4 3 2 1 0 0 0 0 0 0 0 0 0 -1 -1 -1 -1 -1 -1 -1 -1 -1 -1 -1 -1 -1 -1 -1 0 4 18 51 95 95 51 18 4 0 -1 -1 -1 -1 -1 -1 -1 -1 -1 -1 0 0 2 5 9 15 22 34 49 66 83 96 102 101 89 73 56 41 28 18 11 7 6 7 9 13 19 28 46 81 124 
138 125 108 99 96 96 97 100 102 102 100 97 95 94 92 88 80 70 61 55 52 51 50 48 44 38 30 24 20 19 18 17 15 12 9 6 5 4 4 4 3 3 2 1 0 0 0 0 0 0 0 0 -1 -1 -1 -1 -1 -1 0 0 4 18 51 95 95 51 18 4 0 -1 -1 -1 -1 -1 -1 -1 0 0 0 2 5 10 18 29 41 56 73 89 100 102 96 83 66 49 34 22 14 9 5 2 1 0 0 1 3 5 12 27 61 111 
120 94 68 56 53 53 55 61 70 80 88 92 94 95 97 100 102 102 100 97 95 95 94 92 88 80 70 61 55 52 50 48 44 38 30 24 20 19 18 17 17 15 12 9 6 5 4 4 4 3 2 1 0 0 0 0 0 0 0 1 5 18 51 95 95 51 18 4 0 -1 -1 -1 -1 -1 0 0 1 3 6 11 20 32 48 66 83 96 102 100 89 73 56 41 29 18 11 6 3 1 0 0 0 -1 -1 0 0 1 6 20 53 101 
105 68 37 24 20 19 21 24 30 38 44 48 50 52 55 61 70 80 88 92 94 95 95 97 100 102 102 100 97 95 94 92 88 80 70 61 55 52 51 50 48 44 38 30 24 20 19 18 17 15 12 9 6 5 4 4 4 4 3 4 7 20 53 96 95 51 18 4 0 -1 -1 0 0 0 2 5 9 15 23 34 50 69 88 100 102 96 83 66 49 34 22 15 9 5 2 0 0 0 -1 -1 -1 -1 -1 -1 -1 0 4 18 51 97 
98 56 24 10 6 5 5 6 9 12 15 17 18 19 20 24 30 38 44 48 50 51 52 55 61 70 80 88 92 94 95 97 100 102 102 100 97 95 95 94 92 88 80 70 61 55 52 50 48 44 38 30 24 20 19 18 17 17 15 14 15 26 57 99 97 53 19 5 0 0 0 1 3 6 11 18 29 41 56 73 90 101 101 90 73 56 41 29 18 11 6 3 1 0 0 -1 -1 -1 -1 -1 -1 -1 -1 -1 -1 0 4 18 51 95 
95 52 19 6 1 0 0 0 1 2 3 4 4 4 5 6 9 12 15 17 17 18 19 20 24 30 38 44 48 50 52 55 61 70 80 88 92 94 95 95 97 100 102 102 100 97 95 94 92 88 80 70 61 55 52 51 50 48 44 39 36 44 71 107 102 57 22 7 3 3 5 9 15 22 34 49 66 83 96 102 100 88 69 50 34 23 15 9 5 2 0 0 0 -1 -1 -1 -1 -1 -1 -1 -1 -1 -1 -1 -1 0 4 18 51 95 
95 51 18 4 0 0 -1 -1 0 0 0 0 0 0 0 0 1 2 3 3 4 4 4 5 6 9 12 15 17 18 19 20 24 30 38 44 48 50 51 52 55 61 70 80 88 92 94 95 97 100 102 102 100 97 95 95 94 92 88 82 76 78 98 124 114 69 32 15 10 12 19 29 41 56 73 89 100 102 96 83 66 48 32 20 11 6 3 1 0 0 -1 -1 -1 -1 -1 -1 -1 -1 -1 -1 -1 -1 -1 -1 -1 0 4 18 51 95 
95 51 18 4 0 -1 -1 -1 -1 -1 -1 -1 -1 -1 -1 -1 0 0 0 0 0 0 0 0 0 1 2 3 4 4 4 5 6 9 12 15 17 17 18 19 20 24 30 38 44 48 50 52 55 61 70 80 88 92 94 95 95 97 100 103 105 110 122 137 129 91 55 35 30 36 49 66 83 96 102 100 89 73 56 41 29 18 10 5 2 0 0 0 -1 -1 -1 -1 -1 -1 -1 -1 -1 -1 -1 -1 -1 -1 -1 -1 -1 0 4 18 51 95 
95 51 18 4 0 -1 -1 -1 -1 -1 -1 -1 -1 -1 -1 -1 -1 -1 -1 -1 -1 -1 -1 -1 -1 0 0 0 0 0 0 0 0 1 2 3 4 4 4 4 5 6 9 12 15 17 18 19 20 24 30 38 44 48 50 51 52 55 61 71 81 91 102 115 124 115 92 74 69 77 91 101 102 96 83 66 49 34 22 15 9 5 2 0 0 -1 -1 -1 -1 -1 -1 -1 -1 -1 -1 -1 -1 -1 -1 -1 -1 -1 -1 -1 -1 0 4 18 51 95 
95 51 18 4 0 -1 -1 -1 -1 -1 -1 -1 -1 -1 -1 -1 -1 -1 -1 -1 -1 -1 -1 -1 -1 -1 -1 -1 -1 -1 -1 -1 -1 0 0 0 0 0 0 0 0 0 1 2 3 4 4 4 5 7 9 12 15 17 18 18 19 21 24 30 38 45 54 67 90 115 126 120 113 108 102 90 73 56 42 29 19 11 6 3 1 0 0 -1 -1 -1 -1 -1 -1 -1 -1 -1 -1 -1 -1 -1 -1 -1 -1 -1 -1 -1 -1 -1 -1 0 4 18 51 95 
95 51 18 4 0 0 -1 -1 -1 -1 -1 -1 -1 -1 -1 -1 -1 -1 -1 -1 -1 -1 -1 -1 -1 -1 -1 -1 -1 -1 -1 -1 -1 -1 -1 -1 0 0 0 0 0 0 0 0 0 0 0 0 0 1 1 2 3 4 4 4 5 5 7 9 13 16 21 31 54 92 129 137 116 91 69 50 34 23 15 9 5 2 1 0 0 0 -1 -1 -1 -1 -1 -1 -1 -1 -1 -1 -1 -1 -1 -1 -1 -1 -1 -1 -1 -1 -1 -1 0 0 4 18 51 95 
96 52 19 6 1 0 0 0 0 0 0 0 0 0 0 0 0 0 0 0 0 0 0 0 0 0 0 0 0 0 0 0 0 0 0 0 0 0 0 0 0 0 0 0 0 0 0 0 0 0 0 0 1 1 1 1 1 1 2 3 4 5 8 15 33 70 115 123 89 56 34 21 13 8 5 3 1 1 0 0 0 0 0 0 0 0 0 0 0 0 0 0 0 0 0 0 0 0 0 0 0 0 0 0 0 1 5 19 52 96 
99 56 24 10 6 4 4 4 4 4 4 4 4 4 4 4 4 4 4 4 4 4 4 4 4 4 4 4 4 4 4 4 4 4 4 4 4 4 4 4 4 4 4 4 4 4 4 4 4 4 4 4 4 4 4 4 4 4 5 5 5 6 8 13 28 63 106 110 71 37 20 12 8 6 5 5 4 4 4 4 4 4 4 4 4 4 4 4 4 4 4 4 4 4 4 4 4 4 4 4 4 4 4 4 4 5 10 24 56 99 
107 68 37 24 19 18 18 18 18 18 18 18 18 18 18 18 18 18 18 18 18 18 18 18 18 18 18 18 18 18 18 17 17 17 17 17 18 18 18 18 18 18 18 18 18 18 18 17 17 17 17 17 18 18 18 18 18 18 18 18 18 19 20 25 39 70 110 111 73 41 27 21 19 19 18 18 18 18 18 18 18 18 18 18 18 18 18 18 18 18 17 17 17 17 17 18 18 18 18 18 18 18 17 17 17 18 23 37 68 107 
126 94 68 56 52 51 51 51 51 51 51 51 51 51 51 51 51 51 51 51 51 51 51 51 51 51 51 51 51 51 50 50 49 48 49 50 50 51 51 51 51 51 51 51 51 51 51 50 49 49 49 49 50 51 51 51 51 51 51 51 51 51 52 57 69 94 126 126 95 69 57 53 51 51 51 51 51 51 51 51 51 51 51 51 51 51 51 51 51 50 50 49 49 49 50 50 51 51 51 51 51 50 50 49 49 50 55 67 94 126 
149 126 107 99 96 95 95 95 95 95 95 95 95 95 95 95 95 95 95 95 95 95 95 95 95 95 95 95 95 95 96 98 100 100 99 97 95 95 95 95 95 95 95 95 95 95 95 96 98 101 101 98 96 95 95 95 95 95 95 95 95 95 95 98 105 119 134 134 119 105 98 96 95 95 95 95 95 95 95 95 95 95 95 95 95 95 95 95 95 96 98 100 101 99 97 95 95 95 95 95 95 96 97 100 101 100 101 108 127 149 
