P2
110 110
255
155 121 102 96 95 95 95 95 95 95 95 95 95 95 95 95 95 95 95 95 95 95 95 95 95 95 95 95 95 97 102 116 139 147 128 108 98 96 95 95 95 95 95 95 95 95 96 101 117 143 143 116 101 96 95 95 95 95 95 95 95 95 95 95 96 98 103 103 98 96 95 95 95 95 95 95 95 95 95 95 95 95 95 95 95 95 95 95 96 99 111 134 148 130 108 98 96 95 95 95 96 99 109 132 148 131 110 106 122 155 
121 74 47 39 38 37 37 37 37 37 37 37 37 37 37 37 37 37 37 37 37 37 37 37 37 37 37 38 39 43 58 92 128 118 78 51 41 38 38 37 37 37 37 37 38 38 40 48 76 123 121 73 47 39 38 37 37 37 37 37 37 37 37 37 37 37 37 37 37 37 37 37 37 37 37 37 37 37 37 37 37 37 37 37 37 37 38 38 40 49 75 119 126 84 53 41 38 38 37 38 39 45 67 112 128 88 56 51 74 121 
102 47 18 9 7 7 7 7 7 7 7 7 7 7 7 7 7 7 7 7 7 7 7 7 7 7 7 8 11 21 49 96 113 73 33 14 9 7 7 7 7 7 7 7 7 8 10 22 57 113 104 47 18 9 7 7 7 7 7 7 7 7 7 7 7 7 7 7 7 7 7 7 7 7 7 7 7 7 7 7 7 7 7 7 7 7 7 8 12 28 68 113 93 43 17 9 7 7 7 7 9 18 47 100 106 53 22 21 48 102 
96 39 9 0 -1 -1 -1 -1 -1 -1 -1 -1 -1 -1 -1 -1 -1 -1 -1 -1 -1 -1 -1 -1 -1 -1 0 0 7 28 71 109 88 39 11 1 0 -1 -1 -1 -1 -1 -1 -1 -1 0 4 22 67 124 102 39 9 0 -1 -1 -1 -1 -1 -1 -1 -1 -1 -1 -1 -1 -1 -1 -1 -1 -1 -1 -1 -1 -1 -1 -1 -1 -1 -1 -1 -1 -1 -1 -1 -1 -1 0 7 31 83 109 64 21 4 0 -1 -1 -1 0 1 13 47 102 93 38 11 11 40 96 
95 38 7 -1 -2 -3 -3 -3 -3 -3 -3 -3 -3 -3 -3 -3 -3 -3 -3 -3 -3 -3 -3 -3 -3 -3 -1 2 18 55 101 101 55 17 2 -2 -3 -3 -3 -3 -3 -3 -3 -3 -2 0 8 37 94 142 103 37 7 -1 -2 -3 -3 -3 -3 -3 -3 -3 -3 -3 -3 -3 -3 -3 -3 -3 -3 -3 -3 -3 -3 -3 -3 -3 -3 -3 -3 -3 -3 -3 -3 -3 -2 0 10 44 97 97 43 10 0 -2 -3 -3 -3 -2 1 18 61 108 79 28 7 9 38 95 
95 37 7 -1 -3 -3 -3 -3 -3 -3 -3 -3 -3 -3 -3 -3 -3 -3 -3 -3 -3 -3 -3 -3 -3 -2 0 10 39 87 108 69 26 5 -1 -3 -3 -3 -3 -3 -3 -3 -3 -3 -2 2 19 61 120 147 103 38 7 -1 -3 -3 -3 -3 -3 -3 -3 -3 -3 -3 -3 -3 -3 -3 -3 -3 -3 -3 -3 -3 -3 -3 -3 -3 -3 -3 -3 -3 -3 -3 -3 -3 -2 2 20 63 108 81 29 5 -1 -3 -3 -3 -3 -2 4 27 79 108 60 18 3 8 38 95 
95 37 7 -1 -3 -3 -3 -3 -3 -3 -3 -3 -3 -3 -3 -3 -3 -3 -3 -3 -3 -3 -3 -3 -3 -1 5 26 69 108 87 39 10 0 -2 -3 -3 -3 -3 -3 -3 -3 -3 -3 0 8 36 90 130 138 102 40 8 -1 -3 -3 -3 -3 -3 -3 -3 -3 -3 -3 -3 -3 -3 -3 -3 -3 -3 -3 -3 -3 -3 -3 -3 -3 -3 -3 -3 -3 -3 -3 -3 -3 -1 8 36 88 106 58 17 1 -2 -3 -3 -3 -3 -1 7 36 92 100 45 11 1 7 38 95 
95 37 7 -1 -3 -3 -3 -3 -3 -3 -3 -3 -3 -3 -3 -3 -3 -3 -3 -3 -3 -3 -3 -3 -2 2 17 55 101 101 55 17 2 -2 -3 -3 -3 -3 -3 -3 -3 -3 -3 -2 2 19 61 110 117 121 105 46 11 0 -3 -3 -3 -3 -3 -3 -3 -3 -3 -3 -3 -3 -3 -3 -3 -3 -3 -3 -3 -3 -3 -3 -3 -3 -3 -3 -3 -3 -3 -3 -3 -2 1 17 58 106 88 36 8 -1 -3 -3 -3 -3 -3 0 10 45 100 92 36 7 0 7 37 95 
95 37 7 -1 -3 -3 -3 -3 -3 -3 -3 -3 -3 -3 -3 -3 -3 -3 -3 -3 -3 -3 -3 -2 0 10 39 87 108 69 26 5 -1 -3 -3 -3 -3 -3 -3 -3 -3 -3 -2 0 10 39 89 111 88 98 111 60 17 1 -2 -3 -3 -3 -3 -3 -3 -3 -3 -3 -3 -3 -3 -3 -3 -3 -3 -3 -3 -3 -3 -3 -3 -3 -3 -3 -3 -3 -3 -3 -3 -1 5 29 81 108 63 20 2 -2 -3 -3 -3 -3 -2 1 17 60 108 79 27 4 0 7 37 95 
95 37 7 -1 -3 -3 -3 -3 -3 -3 -3 -3 -3 -3 -3 -3 -3 -3 -3 -3 -3 -3 -3 -1 5 26 69 108 87 39 10 0 -2 -3 -3 -3 -3 -3 -3 -3 -3 -3 -1 5 26 69 108 90 56 72 110 79 27 4 -2 -3 -3 -3 -3 -3 -3 -3 -3 -3 -3 -3 -3 -3 -3 -3 -3 -3 -3 -3 -3 -3 -3 -3 -3 -3 -3 -3 -3 -3 -3 0 10 43 97 97 43 10 0 -3 -3 -3 -3 -3 -2 4 27 79 108 60 17 1 0 7 37 95 
95 38 7 -1 -3 -3 -3 -3 -3 -3 -3 -3 -3 -3 -3 -3 -3 -3 -3 -3 -3 -3 -2 2 17 55 101 101 55 17 2 -2 -3 -3 -3 -3 -3 -3 -3 -3 -3 -2 1 17 54 101 101 57 31 52 102 89 33 6 -1 -3 -3 -3 -3 -3 -3 -3 -3 -3 -3 -3 -3 -3 -3 -3 -3 -3 -3 -3 -3 -3 -3 -3 -3 -3 -3 -3 -3 -3 -2 2 20 63 108 81 29 5 -1 -3 -3 -3 -3 -3 -1 7 36 92 100 45 10 0 0 7 37 95 
96 38 7 -1 -3 -3 -3 -3 -3 -3 -3 -3 -3 -3 -3 -3 -3 -3 -3 -3 -3 -2 0 10 39 87 108 69 26 5 -1 -3 -3 -3 -3 -3 -3 -3 -3 -3 -3 0 8 36 86 108 69 29 17 42 97 93 36 7 -1 -3 -3 -3 -3 -3 -3 -3 -3 -3 -3 -3 -3 -3 -3 -3 -3 -3 -3 -3 -3 -3 -3 -3 -3 -3 -3 -3 -3 -3 -1 8 36 88 106 58 17 1 -2 -3 -3 -3 -3 -3 0 10 45 100 92 36 7 -1 -1 7 37 95 
98 41 9 0 -3 -3 -3 -3 -3 -3 -3 -3 -3 -3 -3 -3 -3 -3 -3 -3 -3 -1 5 26 69 108 87 39 10 0 -2 -3 -3 -3 -3 -3 -3 -3 -3 -3 -2 2 19 60 106 89 40 12 11 38 95 95 38 7 -1 -3 -3 -3 -3 -3 -3 -3 -3 -3 -3 -3 -3 -3 -3 -3 -3 -3 -3 -3 -3 -3 -3 -3 -3 -3 -3 -3 -3 -2 1 17 58 106 88 36 8 -1 -3 -3 -3 -3 -3 -2 1 17 60 108 79 27 4 -1 -1 7 37 96 
107 51 14 1 -2 -3 -3 -3 -3 -3 -3 -3 -3 -3 -3 -3 -3 -3 -3 -3 -2 2 17 55 101 101 55 17 2 -2 -3 -3 -3 -3 -3 -3 -3 -3 -3 -3 0 8 37 88 106 61 20 4 8 37 94 97 40 8 -1 -3 -3 -3 -3 -3 -3 -3 -3 -3 -3 -3 -3 -3 -3 -3 -3 -3 -3 -3 -3 -3 -3 -3 -3 -3 -3 -3 -3 -1 5 29 81 108 63 20 2 -2 -3 -3 -3 -3 -3 -2 4 27 79 108 60 17 1 -2 -1 7 37 97 
128 77 30 8 0 -2 -3 -3 -3 -3 -3 -3 -3 -3 -3 -3 -3 -3 -3 -2 0 10 39 87 108 69 26 5 -1 -3 -3 -3 -3 -3 -3 -3 -3 -3 -3 -2 2 19 61 106 88 37 8 1 6 34 89 101 46 11 0 -3 -3 -3 -3 -3 -3 -3 -3 -3 -3 -3 -3 -3 -3 -3 -3 -3 -3 -3 -3 -3 -3 -3 -3 -3 -3 -3 -3 0 10 43 97 97 43 10 0 -3 -3 -3 -3 -3 -3 -1 7 36 92 100 45 10 0 -2 -1 7 37 101 
147 116 66 27 7 0 -3 -3 -3 -3 -3 -3 -3 -3 -3 -3 -3 -3 -3 -1 5 26 69 108 87 39 10 0 -2 -3 -3 -3 -3 -3 -3 -3 -3 -3 -2 0 10 39 89 106 60 19 2 0 4 27 79 108 60 17 1 -2 -3 -3 -3 -3 -3 -3 -3 -3 -3 -3 -3 -3 -3 -3 -3 -3 -3 -3 -3 -3 -3 -3 -3 -3 -3 -3 -2 2 20 63 108 81 29 5 -1 -3 -3 -3 -3 -3 -3 0 10 45 100 92 36 7 -1 -2 -1 7 37 103 
140 130 106 63 24 5 -1 -3 -3 -3 -3 -3 -3 -3 -3 -3 -3 -3 -2 2 17 55 101 101 55 17 2 -2 -3 -3 -3 -3 -3 -3 -3 -3 -3 -3 -1 5 26 69 108 86 36 8 0 -2 1 17 60 108 79 27 4 -2 -3 -3 -3 -3 -3 -3 -3 -3 -3 -3 -3 -3 -3 -3 -3 -3 -3 -3 -3 -3 -3 -3 -3 -3 -3 -3 -1 8 36 88 106 58 17 1 -2 -3 -3 -3 -3 -3 -2 1 17 60 108 79 27 4 -2 -3 -1 7 37 101 
119 102 112 100 54 17 2 -2 -3 -3 -3 -3 -3 -3 -3 -3 -3 -2 0 10 39 87 108 69 26 5 -1 -3 -3 -3 -3 -3 -3 -3 -3 -3 -3 -2 1 17 54 101 101 54 17 1 -2 -2 0 11 46 101 89 33 6 -1 -3 -3 -3 -3 -3 -3 -3 -3 -3 -3 -3 -3 -3 -3 -3 -3 -3 -3 -3 -3 -3 -3 -3 -3 -3 -2 1 17 58 106 88 36 8 -1 -3 -3 -3 -3 -3 -3 -2 4 27 79 108 60 17 1 -2 -3 -1 7 37 98 
104 70 81 109 87 39 11 0 -2 -3 -3 -3 -3 -3 -3 -3 -3 -1 5 26 69 108 87 39 10 0 -2 -3 -3 -3 -3 -3 -3 -3 -3 -3 -3 0 8 36 86 108 69 26 5 -1 -3 -3 -1 8 40 97 93 36 7 -1 -3 -3 -3 -3 -3 -3 -3 -3 -3 -3 -3 -3 -3 -3 -3 -3 -3 -3 -3 -3 -3 -3 -3 -3 -3 -1 5 29 81 108 63 20 2 -2 -3 -3 -3 -3 -3 -3 -1 7 36 92 100 45 10 0 -3 -3 -1 7 37 96 
98 52 50 89 108 71 30 8 0 -2 -3 -3 -3 -3 -3 -3 -2 2 17 55 101 101 55 17 2 -2 -3 -3 -3 -3 -3 -3 -3 -3 -3 -3 -2 2 19 60 106 89 39 10 0 -2 -3 -3 -1 7 38 95 95 38 7 -1 -3 -3 -3 -3 -3 -3 -3 -3 -3 -3 -3 -3 -3 -3 -3 -3 -3 -3 -3 -3 -3 -3 -3 -3 -3 0 10 43 97 97 43 10 0 -3 -3 -3 -3 -3 -3 -3 0 10 45 100 92 36 7 -1 -3 -3 -1 7 37 95 
96 43 28 56 100 104 65 28 7 0 -2 -3 -3 -3 -3 -2 0 10 39 87 108 69 26 5 -1 -3 -3 -3 -3 -3 -3 -3 -3 -3 -3 -3 0 8 37 88 106 61 19 2 -2 -3 -3 -3 -1 7 36 93 97 40 8 -1 -3 -3 -3 -3 -3 -3 -3 -3 -3 -3 -3 -3 -3 -3 -3 -3 -3 -3 -3 -3 -3 -3 -3 -3 -2 2 20 63 108 81 29 5 -1 -3 -3 -3 -3 -3 -3 -2 1 17 60 108 79 27 4 -2 -3 -3 -1 7 37 95 
95 40 16 26 63 102 103 65 27 7 0 -2 -3 -3 -3 -1 5 26 69 108 87 39 10 0 -2 -3 -3 -3 -3 -3 -3 -3 -3 -3 -3 -2 2 19 61 106 88 37 8 0 -3 -3 -3 -3 -1 6 33 89 101 46 11 0 -3 -3 -3 -3 -3 -3 -3 -3 -3 -3 -3 -3 -3 -3 -3 -3 -3 -3 -3 -3 -3 -3 -3 -3 -1 8 36 88 106 58 17 1 -2 -3 -3 -3 -3 -3 -3 -2 4 27 79 108 60 17 1 -2 -3 -3 -1 7 37 95 
95 38 10 9 27 64 103 103 64 27 7 0 -2 -3 -2 2 17 55 101 101 55 17 2 -2 -3 -3 -3 -3 -3 -3 -3 -3 -3 -3 -2 0 10 39 89 106 60 19 2 -2 -3 -3 -3 -3 -2 4 27 79 108 60 17 1 -2 -3 -3 -3 -3 -3 -3 -3 -3 -3 -3 -3 -3 -3 -3 -3 -3 -3 -3 -3 -3 -3 -3 -2 1 17 58 106 88 36 8 -1 -3 -3 -3 -3 -3 -3 -3 -1 7 36 92 100 45 10 0 -3 -3 -3 -1 7 37 95 
95 38 8 1 8 27 64 103 103 64 27 7 0 -1 0 10 39 87 108 69 26 5 -1 -3 -3 -3 -3 -3 -3 -3 -3 -3 -3 -3 -1 5 26 69 108 86 36 8 0 -3 -3 -3 -3 -3 -2 1 17 60 108 79 27 4 -2 -3 -3 -3 -3 -3 -3 -3 -3 -3 -3 -3 -3 -3 -3 -3 -3 -3 -3 -3 -3 -3 -3 -1 5 29 81 108 63 20 2 -2 -3 -3 -3 -3 -3 -3 -3 0 10 45 100 92 36 7 -1 -3 -3 -3 -1 7 37 95 
95 37 7 0 0 7 27 64 103 103 64 28 8 2 6 26 69 108 87 39 10 0 -2 -3 -3 -3 -3 -3 -3 -3 -3 -3 -3 -2 1 17 54 101 101 54 17 1 -2 -3 -3 -3 -3 -3 -3 0 11 46 101 89 34 6 -1 -3 -3 -3 -3 -3 -3 -3 -3 -3 -3 -3 -3 -3 -3 -3 -3 -3 -3 -3 -3 -3 -3 0 10 43 97 97 43 10 0 -3 -3 -3 -3 -3 -3 -3 -2 1 17 60 108 79 27 4 -2 -3 -3 -3 -1 7 37 95 
95 37 7 -1 -2 0 7 27 64 103 103 65 29 13 21 55 101 101 55 17 2 -2 -3 -3 -3 -3 -3 -3 -3 -3 -3 -3 -3 0 8 36 86 108 69 26 5 -1 -3 -3 -3 -3 -3 -3 -3 -1 8 40 96 94 37 7 -1 -3 -3 -3 -3 -3 -3 -3 -3 -3 -3 -3 -3 -3 -3 -3 -3 -3 -3 -3 -3 -3 -2 2 20 63 108 81 29 5 -1 -3 -3 -3 -3 -3 -3 -3 -2 4 27 79 108 60 17 1 -2 -3 -3 -3 -1 7 37 95 
95 37 7 -1 -3 -2 0 7 27 64 103 103 68 41 49 90 108 69 26 5 -1 -3 -3 -3 -3 -3 -3 -3 -3 -3 -3 -3 -2 2 19 60 106 89 39 10 0 -2 -3 -3 -3 -3 -3 -3 -3 -1 7 37 94 96 40 8 -1 -3 -3 -3 -3 -3 -3 -3 -3 -3 -3 -3 -3 -3 -3 -3 -3 -3 -3 -3 -3 -3 -1 8 36 88 106 58 17 1 -2 -3 -3 -3 -3 -3 -3 -3 -1 7 36 92 100 45 10 0 -3 -3 -3 -3 -1 7 37 95 
95 37 7 -1 -3 -3 -2 0 7 27 65 104 109 90 94 113 88 39 10 0 -2 -3 -3 -3 -3 -3 -3 -3 -3 -3 -3 -3 0 8 37 88 106 61 19 2 -2 -3 -3 -3 -3 -3 -3 -3 -3 -1 6 34 89 101 46 11 0 -3 -3 -3 -3 -3 -3 -3 -3 -3 -3 -3 -3 -3 -3 -3 -3 -3 -3 -3 -3 -2 1 17 58 106 88 36 8 -1 -3 -3 -3 -3 -3 -3 -3 -3 0 10 45 100 92 36 7 -1 -3 -3 -3 -3 -1 7 37 95 
95 37 7 -1 -3 -3 -3 -2 0 7 28 66 111 136 136 107 55 17 2 -2 -3 -3 -3 -3 -3 -3 -3 -3 -3 -3 -3 -2 2 19 61 106 88 37 8 0 -3 -3 -3 -3 -3 -3 -3 -3 -3 -2 4 27 79 108 60 17 1 -2 -3 -3 -3 -3 -3 -3 -3 -3 -3 -3 -3 -3 -3 -3 -3 -3 -3 -3 -3 -1 5 29 81 108 63 20 2 -2 -3 -3 -3 -3 -3 -3 -3 -2 1 17 60 108 79 27 4 -2 -3 -3 -3 -3 -1 7 37 95 
95 37 7 -1 -3 -3 -3 -3 -2 0 8 31 77 133 133 75 27 5 -1 -3 -3 -3 -3 -3 -3 -3 -3 -3 -3 -3 -2 0 10 39 89 106 60 19 2 -2 -3 -3 -3 -3 -3 -3 -3 -3 -3 -2 1 17 60 108 79 27 4 -2 -3 -3 -3 -3 -3 -3 -3 -3 -3 -3 -3 -3 -3 -3 -3 -3 -3 -3 -3 0 10 43 97 97 43 10 0 -3 -3 -3 -3 -3 -3 -3 -3 -2 4 27 79 108 60 17 1 -2 -3 -3 -3 -3 -1 7 37 95 
95 37 7 -1 -3 -3 -3 -3 -3 -2 1 14 50 109 112 53 14 0 -2 -3 -3 -3 -3 -3 -3 -3 -3 -3 -3 -3 -1 5 26 69 108 86 36 8 0 -3 -3 -3 -3 -3 -3 -3 -3 -3 -3 -3 0 11 46 101 89 33 6 -1 -3 -3 -3 -3 -3 -3 -3 -3 -3 -3 -3 -3 -3 -3 -3 -3 -3 -3 -2 2 20 63 108 81 29 5 -1 -3 -3 -3 -3 -3 -3 -3 -3 -1 7 36 92 100 45 10 0 -3 -3 -3 -3 -3 -1 7 37 95 
95 37 7 -1 -3 -3 -3 -3 -3 -3 -1 7 37 94 105 49 12 0 -3 -3 -3 -3 -3 -3 -3 -3 -3 -3 -3 -2 1 17 54 101 101 54 17 1 -2 -3 -3 -3 -3 -3 -3 -3 -3 -3 -3 -3 -1 8 40 97 93 36 7 -1 -3 -3 -3 -3 -3 -3 -3 -3 -3 -3 -3 -3 -3 -3 -3 -3 -3 -3 -1 8 36 88 106 58 17 1 -2 -3 -3 -3 -3 -3 -3 -3 -3 0 10 45 100 92 36 7 -1 -3 -3 -3 -3 -3 -1 7 37 95 
95 37 7 -1 -3 -3 -3 -3 -3 -3 -2 4 27 79 109 61 18 1 -2 -3 -3 -3 -3 -3 -3 -3 -3 -3 -3 0 8 36 86 108 69 26 5 -1 -3 -3 -3 -3 -3 -3 -3 -3 -3 -3 -3 -3 -1 7 38 95 95 38 7 -1 -3 -3 -3 -3 -3 -3 -3 -3 -3 -3 -3 -3 -3 -3 -3 -3 -3 -2 1 17 58 106 88 36 8 -1 -3 -3 -3 -3 -3 -3 -3 -3 -2 1 17 60 108 79 27 4 -2 -3 -3 -3 -3 -3 -1 7 37 95 
95 37 7 -1 -3 -3 -3 -3 -3 -3 -2 1 17 61 108 79 27 4 -2 -3 -3 -3 -3 -3 -3 -3 -3 -3 -2 2 19 60 106 89 39 10 0 -2 -3 -3 -3 -3 -3 -3 -3 -3 -3 -3 -3 -3 -1 7 36 93 97 40 8 -1 -3 -3 -3 -3 -3 -3 -3 -3 -3 -3 -3 -3 -3 -3 -3 -3 -3 -1 5 29 81 108 63 20 2 -2 -3 -3 -3 -3 -3 -3 -3 -3 -2 4 27 79 108 60 17 1 -2 -3 -3 -3 -3 -3 -1 7 38 95 
95 37 7 -1 -3 -3 -3 -3 -3 -3 -3 0 11 46 101 90 34 6 -1 -3 -3 -3 -3 -3 -3 -3 -3 -3 0 8 37 88 106 61 19 2 -2 -3 -3 -3 -3 -3 -3 -3 -3 -3 -3 -3 -3 -3 -1 6 33 89 101 46 11 0 -3 -3 -3 -3 -3 -3 -3 -3 -3 -3 -3 -3 -3 -3 -3 -3 -3 0 10 43 97 97 43 10 0 -3 -3 -3 -3 -3 -3 -3 -3 -3 -1 7 36 92 100 45 10 0 -3 -3 -3 -3 -3 -3 -1 7 38 96 
95 37 7 -1 -3 -3 -3 -3 -3 -3 -3 -1 8 39 95 95 39 8 -1 -3 -3 -3 -3 -3 -3 -3 -3 -2 2 19 61 106 88 37 8 0 -3 -3 -3 -3 -3 -3 -3 -3 -3 -3 -3 -3 -3 -3 -2 4 27 79 108 60 17 1 -2 -3 -3 -3 -3 -3 -3 -3 -3 -3 -3 -3 -3 -3 -3 -3 -2 2 20 63 108 81 29 5 -1 -3 -3 -3 -3 -3 -3 -3 -3 -3 0 10 45 100 92 36 7 -1 -3 -3 -3 -3 -3 -3 -1 8 40 98 
97 37 7 -1 -3 -3 -3 -3 -3 -3 -3 -1 6 34 90 101 46 11 0 -3 -3 -3 -3 -3 -3 -3 -2 0 10 39 89 106 60 19 2 -2 -3 -3 -3 -3 -3 -3 -3 -3 -3 -3 -3 -3 -3 -3 -2 1 17 60 108 79 27 4 -2 -3 -3 -3 -3 -3 -3 -3 -3 -3 -3 -3 -3 -3 -3 -3 -1 8 36 88 106 58 17 1 -2 -3 -3 -3 -3 -3 -3 -3 -3 -2 1 17 60 108 79 27 4 -2 -3 -3 -3 -3 -3 -3 0 11 47 106 
100 37 7 -1 -3 -3 -3 -3 -3 -3 -3 -2 4 27 79 108 60 17 1 -2 -3 -3 -3 -3 -3 -3 -1 5 26 69 108 86 36 8 0 -3 -3 -3 -3 -3 -3 -3 -3 -3 -3 -3 -3 -3 -3 -3 -3 0 11 46 101 89 33 6 -1 -3 -3 -3 -3 -3 -3 -3 -3 -3 -3 -3 -3 -3 -3 -2 1 17 58 106 88 36 8 -1 -3 -3 -3 -3 -3 -3 -3 -3 -3 -2 4 27 79 108 60 17 1 -2 -3 -3 -3 -3 -3 -2 2 20 65 123 
103 37 7 -1 -3 -3 -3 -3 -3 -3 -3 -2 1 17 60 108 79 27 4 -2 -3 -3 -3 -3 -3 -2 1 17 54 101 101 54 17 1 -2 -3 -3 -3 -3 -3 -3 -3 -3 -3 -3 -3 -3 -3 -3 -3 -3 -1 8 40 97 93 36 7 -1 -3 -3 -3 -3 -3 -3 -3 -3 -3 -3 -3 -3 -3 -3 -1 5 29 81 108 63 20 2 -2 -3 -3 -3 -3 -3 -3 -3 -3 -3 -1 7 36 92 100 45 10 0 -3 -3 -3 -3 -3 -2 0 10 39 95 142 
102 37 7 -1 -3 -3 -3 -3 -3 -3 -3 -3 0 11 46 101 90 34 6 -1 -3 -3 -3 -3 -3 0 8 36 86 108 69 26 5 -1 -3 -3 -3 -3 -3 -3 -3 -3 -3 -3 -3 -3 -3 -3 -3 -3 -3 -1 7 38 95 95 38 7 -1 -3 -3 -3 -3 -3 -3 -3 -3 -3 -3 -3 -3 -3 -3 0 10 43 97 97 43 10 0 -3 -3 -3 -3 -3 -3 -3 -3 -3 -3 0 10 45 100 92 36 7 -1 -3 -3 -3 -3 -3 -1 5 26 70 123 147 
100 37 7 -1 -3 -3 -3 -3 -3 -3 -3 -3 -1 8 39 95 95 39 8 -1 -3 -3 -3 -3 -2 2 19 60 106 89 39 10 0 -2 -3 -3 -3 -3 -3 -3 -3 -3 -3 -3 -3 -3 -3 -3 -3 -3 -3 -1 7 36 93 97 40 8 -1 -3 -3 -3 -3 -3 -3 -3 -3 -3 -3 -3 -3 -3 -2 2 20 63 108 81 29 5 -1 -3 -3 -3 -3 -3 -3 -3 -3 -3 -2 1 17 60 108 79 27 4 -2 -3 -3 -3 -3 -2 2 17 55 104 129 136 
97 37 7 -1 -3 -3 -3 -3 -3 -3 -3 -3 -1 6 34 90 101 46 11 0 -3 -3 -3 -3 0 8 37 88 106 61 19 2 -2 -3 -3 -3 -3 -3 -3 -3 -3 -3 -3 -3 -3 -3 -3 -3 -3 -3 -3 -1 6 33 89 101 46 11 0 -3 -3 -3 -3 -3 -3 -3 -3 -3 -3 -3 -3 -3 -1 8 36 88 106 58 17 1 -2 -3 -3 -3 -3 -3 -3 -3 -3 -3 -2 4 27 79 108 60 17 1 -2 -3 -3 -3 -2 0 10 38 88 115 105 118 
96 37 7 -1 -3 -3 -3 -3 -3 -3 -3 -3 -2 4 27 79 108 60 17 1 -2 -3 -3 -2 2 19 61 106 88 37 8 0 -3 -3 -3 -3 -3 -3 -3 -3 -3 -3 -3 -3 -3 -3 -3 -3 -3 -3 -3 -2 4 27 79 108 61 18 1 -2 -3 -3 -3 -3 -3 -3 -3 -3 -3 -3 -3 -2 1 17 58 106 88 36 8 -1 -3 -3 -3 -3 -3 -3 -3 -3 -3 -3 -1 7 36 92 100 45 10 0 -3 -3 -3 -3 -1 5 26 69 109 96 78 106 
95 37 7 -1 -3 -3 -3 -3 -3 -3 -3 -3 -2 1 17 60 108 79 27 4 -2 -3 -2 0 10 39 89 106 60 19 2 -2 -3 -3 -3 -3 -3 -3 -3 -3 -3 -3 -3 -3 -3 -3 -3 -3 -3 -3 -3 -2 1 18 61 109 80 29 6 0 -1 -2 -2 -3 -3 -3 -3 -3 -3 -3 -3 -1 5 29 81 108 63 20 2 -2 -3 -3 -3 -3 -3 -3 -3 -3 -3 -3 0 10 45 100 92 36 7 -1 -3 -3 -3 -2 2 17 55 101 102 65 58 100 
95 37 7 -1 -3 -3 -3 -3 -3 -3 -3 -3 -3 0 11 46 101 90 34 6 -1 -2 -1 5 26 69 108 86 36 8 0 -3 -3 -3 -3 -3 -3 -3 -3 -3 -3 -3 -3 -3 -3 -3 -3 -3 -3 -3 -3 -2 0 13 50 106 96 43 16 9 6 4 1 0 -1 -1 -1 -1 -2 -2 -2 0 10 43 97 97 43 10 0 -3 -3 -3 -3 -3 -3 -3 -3 -3 -3 -2 1 17 60 108 79 27 4 -2 -3 -3 -2 0 10 39 87 108 71 37 46 97 
95 37 7 -1 -3 -3 -3 -3 -3 -3 -3 -3 -3 -1 8 39 95 95 39 8 -1 -2 1 17 54 101 101 54 17 1 -2 -3 -3 -3 -3 -3 -3 -3 -3 -3 -3 -3 -3 -3 -3 -3 -3 -3 -3 -3 -2 -1 4 18 55 114 118 72 47 38 34 27 17 11 8 7 7 6 4 1 0 4 21 64 108 81 29 5 -1 -3 -3 -3 -3 -3 -3 -3 -3 -3 -3 -2 4 27 79 108 60 17 1 -2 -3 -3 -1 5 26 69 108 87 41 21 41 96 
95 37 7 -1 -3 -3 -3 -3 -3 -3 -3 -3 -3 -1 6 34 90 101 46 11 0 0 8 36 86 108 69 26 5 -1 -3 -3 -3 -3 -3 -3 -3 -3 -3 -3 -3 -3 -3 -3 -3 -3 -3 -3 -3 -2 0 5 18 43 84 135 144 117 101 95 90 79 60 46 40 38 36 33 27 18 13 19 44 91 107 58 17 1 -2 -3 -3 -3 -3 -3 -3 -3 -3 -3 -3 -1 7 36 92 100 45 10 0 -3 -3 -2 2 17 55 101 101 55 20 13 39 95 
95 37 7 -1 -3 -3 -3 -3 -3 -3 -3 -3 -3 -2 4 27 79 108 60 17 2 3 19 60 106 89 39 10 0 -2 -3 -3 -3 -3 -3 -3 -3 -3 -3 -3 -3 -3 -3 -3 -3 -3 -3 -2 -1 2 10 26 55 89 115 124 114 102 97 97 101 108 108 101 97 95 93 89 79 61 50 55 84 117 91 37 8 0 -3 -3 -3 -3 -3 -3 -3 -3 -3 -3 -3 0 10 45 100 92 36 7 -1 -3 -2 0 10 39 87 108 69 27 7 9 38 95 
95 37 7 -1 -3 -3 -3 -3 -3 -3 -3 -3 -3 -2 1 17 60 108 79 27 7 10 37 88 106 61 19 2 -2 -3 -3 -3 -3 -3 -3 -3 -3 -3 -3 -3 -3 -3 -3 -3 -3 -3 -2 0 5 17 39 69 101 108 91 65 47 40 38 40 46 60 79 89 93 95 97 101 108 109 105 113 135 133 74 24 3 -2 -3 -3 -3 -3 -3 -3 -3 -3 -3 -3 -2 1 17 60 108 79 27 4 -1 -2 -1 5 26 69 108 87 39 10 2 8 38 95 
95 37 7 -1 -3 -3 -3 -3 -3 -3 -3 -3 -3 -3 0 11 46 101 90 35 12 21 61 106 88 37 8 0 -3 -3 -3 -3 -3 -3 -3 -3 -3 -3 -3 -3 -3 -3 -3 -3 -3 -1 2 10 26 55 87 108 101 69 40 20 11 8 7 8 11 17 27 33 36 38 40 46 61 79 94 110 135 133 75 25 4 -1 -3 -3 -3 -3 -3 -3 -3 -3 -3 -3 -2 4 27 79 108 60 17 1 -2 -2 2 17 55 101 101 55 17 2 0 7 37 95 
95 37 7 -1 -3 -3 -3 -3 -3 -3 -3 -3 -3 -3 -1 8 39 95 96 42 22 42 89 106 60 19 2 -2 -3 -3 -3 -3 -3 -3 -3 -3 -3 -3 -3 -3 -3 -3 -3 -2 0 5 17 38 69 101 108 87 55 26 10 2 0 -1 -1 -1 0 1 4 6 7 7 8 11 17 27 37 52 83 117 93 41 12 1 -2 -2 -3 -3 -3 -3 -3 -3 -3 -2 -1 7 36 92 100 45 10 0 -2 0 10 39 87 108 69 26 5 -1 0 7 37 95 
95 37 7 -1 -3 -3 -3 -3 -3 -3 -3 -3 -3 -3 -1 6 34 90 103 55 41 72 108 86 36 8 0 -3 -3 -3 -3 -3 -3 -3 -3 -3 -3 -3 -3 -3 -3 -3 -2 0 7 24 54 87 107 101 69 39 17 5 0 -2 -3 -3 -3 -3 -3 -2 -2 -1 -1 -1 -1 0 1 4 8 17 42 89 110 72 32 11 3 0 -1 -1 -1 -1 -1 -1 -1 0 1 12 47 101 92 36 7 0 -1 5 26 69 108 87 39 10 0 -2 -1 7 37 95 
95 37 7 -1 -3 -3 -3 -3 -3 -3 -3 -3 -3 -3 -2 4 27 79 111 80 74 105 101 54 17 1 -2 -3 -3 -3 -3 -3 -3 -3 -3 -3 -3 -3 -3 -3 -2 -1 2 11 29 63 100 108 87 55 26 10 2 -1 -2 -3 -3 -3 -3 -3 -3 -3 -3 -3 -3 -3 -3 -3 -2 -1 0 3 18 55 103 110 74 40 21 11 8 7 7 7 7 7 7 8 12 27 68 112 83 30 5 0 2 17 55 101 101 55 17 2 -2 -3 -1 7 37 95 
95 37 7 -1 -3 -3 -3 -3 -3 -3 -3 -3 -3 -3 -2 1 17 61 113 112 111 111 69 26 5 -1 -3 -3 -3 -3 -3 -3 -3 -3 -3 -3 -3 -3 -3 -2 0 5 17 39 71 103 103 71 39 17 5 0 -2 -3 -3 -3 -3 -3 -3 -3 -3 -3 -3 -3 -3 -3 -3 -3 -3 -3 -2 -1 5 27 74 126 128 95 65 47 40 38 38 37 37 37 38 39 44 63 105 125 76 28 7 3 11 39 87 108 69 26 5 -1 -3 -3 -1 7 37 95 
95 37 7 -1 -3 -3 -3 -3 -3 -3 -3 -3 -3 -3 -3 0 11 46 108 136 129 91 39 10 0 -2 -3 -3 -3 -3 -3 -3 -3 -3 -3 -3 -3 -2 -1 2 10 26 55 87 108 100 63 29 11 2 -1 -2 -3 -3 -3 -3 -3 -3 -3 -3 -3 -3 -3 -3 -3 -3 -3 -3 -3 -3 -3 -2 0 14 53 118 146 129 113 102 97 95 95 95 95 95 95 96 100 114 140 140 92 47 23 17 31 70 108 87 39 10 0 -2 -3 -3 -1 7 37 95 
95 37 7 -1 -3 -3 -3 -3 -3 -3 -3 -3 -3 -3 -3 -1 8 39 105 147 120 61 19 2 -2 -3 -3 -3 -3 -3 -3 -3 -3 -3 -3 -3 -2 0 5 17 39 69 101 108 87 54 24 7 0 -2 -3 -3 -3 -3 -3 -3 -3 -3 -3 -3 -3 -3 -3 -3 -3 -3 -3 -3 -3 -3 -3 -2 0 12 50 110 119 91 87 91 94 95 95 95 95 95 95 95 97 102 114 125 117 92 66 54 71 106 103 55 18 2 -2 -3 -3 -3 -1 7 37 95 
95 37 7 -1 -3 -3 -3 -3 -3 -3 -3 -3 -3 -3 -3 -1 7 37 103 142 94 36 8 0 -3 -3 -3 -3 -3 -3 -3 -3 -3 -3 -2 -1 2 10 26 55 87 108 101 69 39 17 5 0 -2 -3 -3 -3 -3 -3 -3 -3 -3 -3 -3 -3 -3 -3 -3 -3 -3 -3 -3 -3 -3 -3 -3 -2 1 17 61 111 89 47 34 35 37 37 37 37 37 37 37 38 38 40 47 65 90 108 111 110 122 123 76 29 6 -1 -3 -3 -3 -3 -1 7 37 95 
95 37 7 -1 -3 -3 -3 -3 -3 -3 -3 -3 -3 -3 -3 -1 7 37 100 123 65 19 2 -2 -3 -3 -3 -3 -3 -3 -3 -3 -2 -1 0 5 17 38 69 103 110 89 56 28 11 2 -1 -2 -3 -3 -3 -3 -3 -3 -3 -3 -3 -3 -3 -3 -3 -3 -3 -3 -3 -3 -3 -3 -3 -3 -3 -2 4 27 79 109 63 22 9 7 7 7 7 7 7 7 7 7 7 8 11 20 37 61 91 122 147 125 63 20 2 -2 -3 -3 -3 -3 -1 7 37 95 
95 37 7 -1 -3 -3 -3 -3 -3 -3 -3 -3 -3 -3 -3 -1 7 38 98 105 47 11 0 -3 -3 -3 -3 -3 -3 -3 -2 -1 1 5 12 27 55 92 120 116 82 50 27 13 5 0 0 -1 -2 -3 -3 -3 -3 -3 -3 -3 -3 -3 -3 -3 -3 -3 -3 -3 -3 -3 -3 -3 -3 -3 -3 -1 6 34 89 101 47 12 1 -1 -1 -1 -1 -1 -1 -1 -1 -1 -1 -1 0 2 8 19 40 73 117 125 77 29 6 -1 -3 -3 -3 -3 -1 7 37 95 
95 37 7 -1 -3 -3 -3 -3 -3 -3 -3 -3 -3 -3 -3 -1 8 40 97 96 39 8 -1 -3 -3 -3 -3 -3 -2 0 2 8 17 30 46 73 111 141 143 113 75 52 40 29 18 11 7 4 1 0 -1 -1 -2 -2 -3 -3 -3 -3 -3 -3 -3 -3 -3 -3 -3 -3 -3 -3 -3 -3 -3 -1 7 37 94 97 40 8 0 -2 -3 -3 -3 -3 -3 -3 -3 -3 -3 -3 -3 -2 0 2 11 30 67 108 103 55 17 2 -2 -3 -3 -3 -1 7 37 95 
95 37 7 -1 -3 -3 -3 -3 -3 -3 -3 -3 -3 -3 -3 0 11 46 101 90 34 6 -1 -3 -3 -2 -1 0 2 8 19 36 58 81 99 113 121 122 125 121 108 98 91 79 60 45 36 27 17 11 8 6 4 1 0 -1 -2 -2 -3 -3 -3 -3 -3 -3 -3 -3 -3 -3 -3 -3 -3 -1 8 40 96 94 37 7 -1 -3 -3 -3 -3 -3 -3 -3 -3 -3 -3 -3 -3 -3 -3 -2 0 8 30 71 108 87 39 10 0 -2 -3 -3 -1 7 37 95 
95 37 7 -1 -3 -3 -3 -3 -3 -3 -3 -3 -3 -3 -2 1 17 60 108 79 27 4 -1 -2 -1 1 5 10 20 37 60 87 106 108 97 82 64 55 63 80 90 96 101 108 108 100 92 79 61 46 39 34 27 17 10 7 4 1 0 -1 -1 -2 -2 -3 -3 -3 -3 -3 -3 -3 -3 0 11 46 101 89 34 6 -1 -3 -3 -3 -3 -3 -3 -3 -3 -3 -3 -3 -3 -3 -3 -3 -2 0 11 39 87 108 69 26 5 -1 -3 -3 -1 7 37 95 
95 37 7 -1 -3 -3 -3 -3 -3 -3 -3 -3 -3 -3 -2 4 27 79 108 61 18 2 0 2 8 17 29 43 63 88 106 106 88 63 43 30 19 14 18 27 34 39 46 61 79 92 100 108 108 101 95 90 79 60 45 36 27 17 11 8 6 4 1 0 -1 -2 -2 -3 -3 -3 -2 1 17 60 108 79 27 4 -2 -3 -3 -3 -3 -3 -3 -3 -3 -3 -3 -3 -3 -3 -3 -3 -3 -2 2 17 55 101 101 55 17 2 -2 -3 -1 7 37 95 
95 37 7 -1 -3 -3 -3 -3 -3 -3 -3 -3 -3 -3 -1 6 34 90 101 47 13 5 9 19 36 58 81 97 108 106 87 60 37 20 10 5 1 0 1 4 6 8 11 17 27 36 45 60 79 90 95 101 108 108 100 92 79 61 46 39 34 27 17 10 7 4 1 0 -1 -1 0 5 27 79 108 60 17 1 -2 -3 -3 -3 -3 -3 -3 -3 -3 -3 -3 -3 -3 -3 -3 -3 -3 -3 -1 5 26 69 107 87 39 11 0 -2 -1 7 37 95 
95 37 7 -1 -3 -3 -3 -3 -3 -3 -3 -3 -3 -3 -1 8 39 96 98 45 20 21 37 60 87 106 108 97 81 58 36 19 8 2 0 -1 -2 -2 -2 -2 -1 -1 0 1 4 7 10 17 27 34 39 46 61 79 92 100 108 108 101 95 90 79 60 45 36 27 17 11 8 6 6 11 37 91 101 46 11 0 -3 -3 -3 -3 -3 -3 -3 -3 -3 -3 -3 -3 -3 -3 -3 -3 -3 -3 -2 0 10 38 87 108 71 29 7 0 0 7 37 95 
95 37 7 -1 -3 -3 -3 -3 -3 -3 -3 -3 -3 -3 0 11 47 104 102 57 47 62 88 106 106 88 63 43 29 17 8 2 0 -2 -3 -3 -3 -3 -3 -3 -3 -3 -3 -2 -2 -1 0 1 4 6 8 11 17 27 36 45 60 79 90 95 101 108 108 100 92 79 61 46 39 34 29 28 50 100 98 40 8 -1 -3 -3 -3 -3 -3 -3 -3 -3 -3 -3 -3 -3 -3 -3 -3 -3 -3 -3 -3 -2 2 17 54 100 103 63 24 5 0 7 38 95 
95 37 7 -1 -3 -3 -3 -3 -3 -3 -3 -3 -3 -2 2 20 65 122 118 91 95 107 106 88 60 37 20 10 5 1 -1 -2 -3 -3 -3 -3 -3 -3 -3 -3 -3 -3 -3 -3 -3 -3 -3 -2 -2 -1 -1 0 1 4 7 10 17 27 34 39 46 61 79 92 100 108 108 101 95 90 81 70 81 118 99 38 7 -1 -3 -3 -3 -3 -3 -3 -3 -3 -3 -3 -3 -3 -3 -3 -3 -3 -3 -3 -3 -3 -1 5 24 63 103 100 54 18 4 8 38 95 
95 37 7 -1 -3 -3 -3 -3 -3 -3 -3 -3 -3 0 8 37 94 144 138 120 108 87 60 36 19 8 2 0 -1 -2 -3 -3 -3 -3 -3 -3 -3 -3 -3 -3 -3 -3 -3 -3 -3 -3 -3 -3 -3 -3 -3 -3 -2 -2 -1 0 1 4 6 8 11 17 27 36 45 60 79 90 95 101 109 115 126 144 103 37 7 -1 -3 -3 -3 -3 -3 -3 -3 -3 -3 -3 -3 -3 -3 -3 -3 -3 -3 -3 -3 -3 -3 0 7 29 71 108 87 39 13 11 38 95 
95 37 7 -1 -3 -3 -3 -3 -3 -3 -3 -3 -2 2 19 61 117 131 108 83 58 36 19 8 2 0 -2 -3 -3 -3 -3 -3 -3 -3 -3 -3 -3 -3 -3 -3 -3 -3 -3 -3 -3 -3 -3 -3 -3 -3 -3 -3 -3 -3 -3 -3 -2 -2 -1 -1 0 1 4 7 10 17 27 34 39 46 62 86 115 141 103 37 7 -1 -3 -3 -3 -3 -3 -3 -3 -3 -3 -3 -3 -3 -3 -3 -3 -3 -3 -3 -3 -3 -3 -2 0 11 39 87 108 71 31 18 40 95 
95 37 7 -1 -3 -3 -3 -3 -3 -3 -3 -2 0 10 39 90 114 82 49 30 17 8 2 0 -2 -3 -3 -3 -3 -3 -3 -3 -3 -3 -3 -3 -3 -3 -3 -3 -3 -3 -3 -3 -3 -3 -3 -3 -3 -3 -3 -3 -3 -3 -3 -3 -3 -3 -3 -3 -3 -2 -2 -1 0 1 4 6 8 11 19 37 70 116 98 37 7 -1 -3 -3 -3 -3 -3 -3 -3 -3 -3 -3 -3 -3 -3 -3 -3 -3 -3 -3 -3 -3 -3 -3 -2 2 17 54 100 104 65 35 46 97 
95 37 7 -1 -3 -3 -3 -3 -3 -3 -3 -1 5 26 69 108 89 42 16 6 1 -1 -2 -3 -3 -3 -3 -3 -3 -3 -3 -3 -3 -3 -3 -3 -3 -3 -3 -3 -3 -3 -3 -3 -3 -3 -3 -3 -3 -3 -3 -3 -3 -3 -3 -3 -3 -3 -3 -3 -3 -3 -3 -3 -3 -2 -2 -1 -1 0 3 15 46 101 96 37 7 -1 -3 -3 -3 -3 -3 -3 -3 -3 -3 -3 -3 -3 -3 -3 -3 -3 -3 -3 -3 -3 -3 -3 -3 -1 5 24 63 104 101 64 58 100 
96 37 7 -1 -3 -3 -3 -3 -3 -3 -2 2 17 55 101 101 55 18 3 -1 -2 -3 -3 -3 -3 -3 -3 -3 -3 -3 -3 -3 -3 -3 -3 -3 -3 -3 -3 -3 -3 -3 -3 -3 -3 -3 -3 -3 -3 -3 -3 -3 -3 -3 -3 -3 -3 -3 -3 -3 -3 -3 -3 -3 -3 -3 -3 -3 -3 -2 0 8 39 96 96 38 7 -1 -3 -3 -3 -3 -3 -3 -3 -3 -3 -3 -3 -3 -3 -3 -3 -3 -3 -3 -3 -3 -3 -3 -3 -3 0 7 29 71 109 96 78 106 
97 37 7 -1 -3 -3 -3 -3 -3 -2 0 11 39 87 108 69 26 5 -1 -2 -3 -3 -3 -3 -3 -3 -3 -3 -3 -3 -3 -3 -3 -3 -3 -3 -3 -3 -3 -3 -3 -3 -3 -3 -3 -3 -3 -3 -3 -3 -3 -3 -3 -3 -3 -3 -3 -3 -3 -3 -3 -3 -3 -3 -3 -3 -3 -3 -3 -3 -1 7 38 95 98 41 9 0 -3 -3 -3 -3 -3 -3 -3 -3 -3 -3 -3 -3 -3 -3 -3 -3 -3 -3 -3 -3 -3 -3 -3 -3 -2 0 11 39 88 115 105 118 
100 37 7 -1 -3 -3 -3 -3 -2 0 8 29 71 109 89 40 11 0 -2 -3 -3 -3 -3 -3 -3 -3 -3 -3 -3 -3 -3 -3 -3 -3 -3 -3 -3 -3 -3 -3 -3 -3 -3 -3 -3 -3 -3 -3 -3 -3 -3 -3 -3 -3 -3 -3 -3 -3 -3 -3 -3 -3 -3 -3 -3 -3 -3 -3 -3 -2 0 8 38 95 105 51 14 1 -1 -3 -3 -3 -3 -3 -3 -3 -3 -3 -3 -3 -3 -3 -3 -3 -3 -3 -3 -3 -3 -3 -3 -3 -3 -2 2 17 55 104 129 136 
102 37 7 -1 -3 -3 -3 -2 0 7 27 66 108 108 64 27 10 2 0 -1 -1 -1 -1 -1 -1 -1 -1 -1 -2 -2 -3 -3 -3 -3 -3 -3 -3 -3 -3 -3 -3 -3 -3 -3 -3 -3 -3 -3 -3 -3 -3 -3 -3 -3 -3 -3 -3 -3 -3 -3 -3 -3 -3 -3 -3 -3 -3 -3 -2 -1 3 15 46 102 125 78 33 11 2 0 -2 -3 -3 -3 -3 -3 -3 -3 -3 -3 -3 -3 -3 -3 -3 -3 -3 -3 -3 -3 -3 -3 -3 -3 -1 5 26 70 123 147 
103 37 7 -1 -3 -3 -2 0 7 27 66 113 129 100 64 42 29 18 11 8 7 7 7 7 7 7 7 6 4 1 0 -1 -1 -1 -1 -1 -1 -1 -1 -2 -2 -3 -3 -3 -3 -3 -3 -3 -3 -3 -3 -3 -3 -3 -3 -3 -3 -3 -3 -3 -3 -3 -3 -3 -3 -3 -3 -2 0 5 17 39 74 122 147 120 74 40 19 8 1 -1 -2 -3 -3 -3 -3 -3 -3 -3 -3 -3 -3 -3 -3 -3 -3 -3 -3 -3 -3 -3 -3 -3 -2 0 10 39 95 142 
100 37 7 -1 -3 -2 0 7 27 65 114 146 140 118 102 92 79 61 46 40 38 38 37 37 37 37 36 33 27 17 11 8 7 7 7 7 7 7 6 4 1 0 -1 -1 -1 -1 -1 -1 -1 -1 -1 -2 -2 -3 -3 -3 -3 -3 -3 -3 -3 -3 -3 -3 -3 -2 0 2 10 26 54 87 111 121 123 123 113 90 61 36 17 5 0 -2 -3 -3 -3 -3 -3 -3 -3 -3 -3 -3 -3 -3 -3 -3 -3 -3 -3 -3 -3 -3 -3 -2 2 20 65 123 
97 37 7 -1 -2 0 7 27 65 106 122 115 105 99 98 101 108 108 101 97 95 95 95 95 95 95 93 89 79 60 46 40 38 38 37 37 37 36 33 27 17 11 8 7 7 7 7 7 7 7 6 4 1 0 -1 -1 -1 -1 -1 -1 -1 -1 -2 -2 -1 1 8 19 39 69 101 108 91 67 57 67 90 107 106 86 54 26 10 2 0 -2 -3 -3 -3 -3 -3 -3 -3 -3 -3 -3 -3 -3 -3 -3 -3 -3 -3 -3 -3 -3 0 11 47 106 
96 38 7 0 0 8 28 65 103 106 75 51 41 39 40 46 60 79 89 93 95 95 95 95 95 95 97 101 108 108 101 97 95 95 95 95 95 93 89 79 60 46 40 38 38 37 37 37 37 36 33 27 17 11 8 7 7 7 7 7 7 6 4 3 6 17 36 61 89 108 101 69 40 22 15 21 37 61 89 108 101 69 39 19 8 1 -1 -2 -3 -3 -3 -3 -3 -3 -3 -3 -3 -3 -3 -3 -3 -3 -3 -3 -3 -3 -1 8 40 98 
95 38 9 4 11 30 65 103 103 66 31 14 8 7 8 11 17 27 33 36 37 37 37 37 38 38 40 46 60 79 89 93 95 95 95 95 95 97 101 108 108 101 97 95 95 95 95 95 95 93 89 79 60 46 40 38 38 37 37 37 36 34 28 23 31 55 86 106 106 86 54 26 10 3 1 2 8 19 39 69 101 108 89 61 36 17 5 0 -2 -3 -3 -3 -3 -3 -3 -3 -3 -3 -3 -3 -3 -3 -3 -3 -3 -3 -1 7 38 96 
96 40 16 19 39 71 104 102 64 28 8 1 0 -1 -1 0 1 4 6 7 7 7 7 7 7 7 8 11 17 27 33 36 37 37 37 38 38 40 46 60 79 89 93 95 95 95 95 95 95 97 101 108 108 101 97 95 95 95 95 95 94 90 82 74 82 105 109 89 61 36 17 5 0 -2 -2 -2 0 2 10 26 54 86 106 106 86 54 26 10 2 0 -2 -3 -3 -3 -3 -3 -3 -3 -3 -3 -3 -3 -3 -3 -3 -3 -1 7 38 95 
98 48 35 56 87 108 99 62 27 7 0 -2 -3 -3 -3 -3 -2 -2 -1 -1 -1 -1 -1 -1 -1 -1 -1 0 1 4 6 7 7 7 7 7 7 8 11 17 27 33 36 37 37 37 37 38 38 40 46 60 79 89 93 95 95 95 95 95 97 104 119 133 134 112 72 40 20 8 1 -1 -2 -3 -3 -3 -3 -2 0 5 17 36 61 89 108 101 69 39 19 8 1 -1 -2 -3 -3 -3 -3 -3 -3 -3 -3 -3 -3 -3 -3 -3 -1 7 37 95 
104 67 73 101 108 87 54 24 7 0 -2 -3 -3 -3 -3 -3 -3 -3 -3 -3 -3 -3 -3 -3 -3 -3 -3 -3 -2 -2 -1 -1 -1 -1 -1 -1 -1 -1 0 1 4 6 7 7 7 7 7 7 7 8 11 17 27 33 36 37 37 37 38 38 41 54 87 135 134 78 33 12 3 0 -2 -3 -3 -3 -3 -3 -3 -3 -2 -1 1 8 19 39 69 101 108 89 61 36 17 5 0 -2 -3 -3 -3 -3 -3 -3 -3 -3 -3 -3 -3 -3 -1 7 37 96 
119 101 110 105 71 39 17 5 0 -2 -3 -3 -3 -3 -3 -3 -3 -3 -3 -3 -3 -3 -3 -3 -3 -3 -3 -3 -3 -3 -3 -3 -3 -3 -3 -3 -3 -3 -3 -2 -2 -1 -1 -1 -1 -1 -1 -1 -1 -1 0 1 4 6 7 7 7 7 7 7 10 21 54 112 111 51 14 1 -1 -3 -3 -3 -3 -3 -3 -3 -3 -3 -3 -3 -2 0 2 10 26 54 86 106 106 86 54 26 10 2 0 -2 -3 -3 -3 -3 -3 -3 -3 -3 -3 -3 -1 7 37 98 
140 130 107 65 30 11 2 -1 -3 -3 -3 -3 -3 -3 -3 -3 -3 -3 -3 -3 -3 -3 -3 -3 -3 -3 -3 -3 -3 -3 -3 -3 -3 -3 -3 -3 -3 -3 -3 -3 -3 -3 -3 -3 -3 -3 -3 -3 -3 -3 -3 -2 -2 -1 -1 -1 -1 -1 -1 -1 1 10 41 99 99 41 9 0 -3 -3 -3 -3 -3 -3 -3 -3 -3 -3 -3 -3 -3 -3 -2 0 5 17 36 61 89 108 101 69 39 19 8 2 0 -2 -3 -3 -3 -3 -3 -3 -3 -3 -1 7 37 101 
147 117 66 28 8 0 -2 -3 -3 -3 -3 -3 -3 -3 -3 -3 -3 -3 -3 -3 -3 -3 -3 -3 -3 -3 -3 -3 -3 -3 -3 -3 -3 -3 -3 -3 -3 -3 -3 -3 -3 -3 -3 -3 -3 -3 -3 -3 -3 -3 -3 -3 -3 -3 -3 -3 -3 -3 -3 -2 -1 7 38 96 96 38 7 -1 -3 -3 -3 -3 -3 -3 -3 -3 -3 -3 -3 -3 -3 -3 -3 -2 -1 1 8 19 39 69 101 108 89 61 37 19 8 1 -1 -2 -3 -3 -3 -3 -3 -3 -1 7 37 103 
128 77 31 8 0 -2 -3 -3 -3 -3 -3 -3 -3 -3 -3 -3 -3 -3 -3 -3 -3 -3 -3 -3 -3 -3 -3 -3 -3 -3 -3 -3 -3 -3 -3 -3 -3 -3 -3 -3 -3 -3 -3 -3 -3 -3 -3 -3 -3 -3 -3 -3 -3 -3 -3 -3 -3 -3 -3 -3 -1 7 38 95 95 38 7 -1 -3 -3 -3 -3 -3 -3 -3 -3 -3 -3 -3 -3 -3 -3 -3 -3 -3 -2 0 2 10 26 54 86 106 106 88 60 36 17 5 0 -2 -3 -3 -3 -3 -3 -1 7 37 101 
107 51 14 1 -2 -3 -3 -3 -3 -3 -3 -3 -3 -3 -3 -3 -3 -3 -3 -3 -3 -3 -3 -3 -3 -3 -3 -3 -3 -3 -3 -3 -3 -3 -3 -3 -3 -3 -3 -3 -3 -3 -3 -3 -3 -3 -3 -3 -3 -3 -3 -3 -3 -3 -3 -3 -3 -3 -3 -3 -1 7 37 95 95 37 7 -1 -3 -3 -3 -3 -3 -3 -3 -3 -3 -3 -3 -3 -3 -3 -3 -3 -3 -3 -3 -2 0 5 17 36 60 88 106 106 86 54 26 10 2 0 -1 -2 -2 -2 -1 7 37 97 
98 41 9 0 -3 -3 -3 -3 -3 -3 -3 -3 -3 -3 -3 -3 -3 -3 -3 -3 -3 -3 -3 -3 -3 -3 -3 -3 -3 -3 -3 -3 -3 -3 -3 -3 -3 -3 -3 -3 -3 -3 -3 -3 -3 -3 -3 -3 -3 -3 -3 -3 -3 -3 -3 -3 -3 -3 -3 -3 -1 7 37 95 95 37 7 -1 -3 -3 -3 -3 -3 -3 -3 -3 -3 -3 -3 -3 -3 -3 -3 -3 -3 -3 -3 -3 -2 -1 1 8 19 37 61 89 109 102 70 39 20 11 7 4 1 0 0 8 38 96 
96 38 7 -1 -3 -3 -3 -3 -3 -3 -3 -3 -3 -3 -3 -3 -3 -3 -3 -3 -3 -3 -3 -3 -3 -3 -3 -3 -3 -3 -3 -3 -3 -3 -3 -3 -3 -3 -3 -3 -3 -3 -3 -3 -3 -3 -3 -3 -3 -3 -3 -3 -3 -3 -3 -3 -3 -3 -3 -3 -1 7 37 95 95 37 7 -1 -3 -3 -3 -3 -3 -3 -3 -3 -3 -3 -3 -3 -3 -3 -3 -3 -3 -3 -3 -3 -3 -3 -2 0 2 9 21 43 75 110 117 95 65 46 36 27 17 11 9 15 42 97 
97 38 7 -1 -2 -3 -3 -3 -3 -3 -3 -3 -3 -3 -3 -3 -3 -3 -3 -3 -3 -3 -3 -3 -3 -3 -3 -3 -3 -3 -3 -3 -3 -3 -3 -3 -3 -3 -3 -3 -3 -3 -3 -3 -3 -3 -3 -3 -3 -3 -3 -3 -3 -3 -3 -3 -3 -3 -3 -3 -1 7 37 95 95 37 7 -1 -3 -3 -3 -3 -3 -3 -3 -3 -3 -3 -3 -3 -3 -3 -3 -3 -3 -3 -3 -3 -3 -3 -2 -1 0 4 11 24 50 92 132 144 125 105 93 79 60 46 38 38 57 104 
100 39 9 0 -1 -1 -1 -1 -2 -2 -3 -3 -3 -3 -3 -3 -3 -3 -3 -3 -3 -3 -3 -3 -3 -3 -3 -3 -3 -3 -3 -3 -3 -3 -3 -3 -3 -3 -3 -3 -3 -3 -3 -3 -3 -3 -3 -3 -3 -3 -3 -3 -3 -3 -3 -3 -3 -3 -3 -3 -1 7 37 95 95 37 7 -1 -3 -3 -3 -3 -3 -3 -3 -3 -3 -3 -3 -3 -3 -3 -3 -3 -3 -3 -3 -3 -2 -1 0 2 8 17 31 47 72 105 130 128 112 102 103 108 108 100 93 88 95 123 
110 47 18 9 7 7 7 6 4 1 0 -1 -1 -1 -1 -1 -2 -2 -3 -3 -3 -3 -3 -3 -3 -3 -3 -3 -3 -3 -3 -3 -3 -3 -3 -3 -3 -3 -3 -3 -3 -3 -3 -3 -3 -3 -3 -3 -3 -3 -3 -3 -3 -3 -3 -3 -3 -3 -3 -3 -1 7 37 95 95 37 7 -1 -3 -3 -3 -3 -3 -3 -3 -3 -3 -3 -3 -3 -3 -3 -3 -3 -3 -3 -2 -1 1 5 10 20 36 58 81 98 109 108 90 65 48 42 47 61 79 92 101 114 131 148 
125 73 47 39 38 37 36 33 27 17 11 8 7 7 7 6 4 1 0 -1 -1 -1 -1 -1 -1 -2 -2 -3 -3 -3 -3 -3 -3 -3 -3 -3 -3 -3 -3 -3 -3 -3 -3 -3 -3 -3 -3 -3 -3 -3 -3 -3 -3 -3 -3 -3 -3 -3 -3 -3 -1 7 37 95 95 37 7 -1 -3 -3 -3 -3 -3 -3 -3 -3 -3 -3 -3 -3 -3 -3 -3 -2 -1 0 2 8 17 29 43 63 88 106 108 97 81 58 36 20 11 9 11 17 27 36 47 68 105 144 
147 121 102 96 95 95 93 89 79 60 46 40 38 37 36 33 27 17 11 8 7 7 7 7 6 4 1 0 -1 -1 -1 -1 -1 -2 -2 -3 -3 -3 -3 -3 -3 -3 -3 -3 -3 -3 -3 -3 -3 -3 -3 -3 -3 -3 -3 -3 -3 -3 -3 -3 -1 7 37 95 95 37 7 -1 -3 -3 -3 -3 -3 -3 -3 -3 -3 -3 -3 -3 -3 -2 -1 1 5 10 20 36 58 81 97 108 106 88 63 43 29 17 8 2 0 0 0 1 4 7 12 27 63 123 
144 121 102 96 95 95 97 101 108 108 101 97 95 95 93 89 79 60 46 40 38 37 37 36 33 27 17 11 8 7 7 7 6 4 1 0 -1 -1 -1 -1 -1 -1 -2 -2 -3 -3 -3 -3 -3 -3 -3 -3 -3 -3 -3 -3 -3 -3 -3 -3 -1 7 37 95 95 37 7 -1 -3 -3 -3 -3 -3 -3 -3 -3 -3 -3 -3 -2 0 2 8 17 29 43 63 88 106 108 97 81 58 36 20 10 5 1 -1 -2 -3 -3 -3 -2 -2 -1 1 12 44 108 
117 73 47 40 38 38 40 46 60 79 89 93 95 95 97 101 108 108 101 97 95 95 95 93 89 79 60 46 40 38 37 36 33 27 17 11 8 7 7 7 7 6 4 1 0 -1 -1 -1 -1 -1 -2 -2 -3 -3 -3 -3 -3 -3 -3 -3 -1 7 37 95 95 37 7 -1 -3 -3 -3 -3 -3 -3 -3 -3 -2 -1 0 2 8 19 36 58 81 97 108 106 88 63 43 29 17 8 2 0 -1 -2 -3 -3 -3 -3 -3 -3 -3 -2 0 8 39 100 
101 47 18 9 7 7 8 11 17 27 33 36 37 38 40 46 60 79 89 93 95 95 95 97 101 108 108 101 97 95 95 93 89 79 60 46 40 38 37 37 36 33 27 17 11 8 7 7 7 6 4 1 0 -1 -1 -1 -1 -1 -1 -1 0 7 38 95 95 38 7 -1 -3 -3 -3 -3 -3 -3 -2 -1 1 5 10 20 37 60 87 106 108 97 81 58 36 20 10 5 1 -1 -2 -3 -3 -3 -3 -3 -3 -3 -3 -3 -3 -3 -1 7 38 96 
96 39 9 0 -1 -1 -1 0 1 4 6 7 7 7 8 11 17 27 33 36 37 37 38 40 46 60 79 89 93 95 95 97 101 108 108 101 97 95 95 95 93 89 79 60 46 40 38 37 36 33 27 17 11 8 7 7 7 7 6 4 3 10 40 96 96 38 7 -1 -3 -3 -3 -2 -1 0 2 8 17 29 43 63 88 106 106 88 63 43 29 17 8 2 0 -1 -2 -3 -3 -3 -3 -3 -3 -3 -3 -3 -3 -3 -3 -3 -1 7 37 95 
95 38 7 -1 -2 -3 -3 -3 -2 -2 -1 -1 -1 -1 -1 0 1 4 6 7 7 7 7 8 11 17 27 33 36 37 38 40 46 60 79 89 93 95 95 95 97 101 108 108 101 97 95 95 93 89 79 60 46 40 38 37 37 36 33 27 19 21 48 102 100 41 9 0 -2 -2 -1 1 5 10 20 36 58 81 97 108 106 87 60 37 20 10 5 1 -1 -2 -3 -3 -3 -3 -3 -3 -3 -3 -3 -3 -3 -3 -3 -3 -3 -3 -1 7 37 95 
95 37 7 -1 -3 -3 -3 -3 -3 -3 -3 -3 -3 -3 -3 -3 -2 -2 -1 -1 -1 -1 -1 -1 0 1 4 6 7 7 7 8 11 17 27 33 36 37 37 38 40 46 60 79 89 93 95 95 97 101 108 108 101 97 95 95 95 93 89 79 62 56 76 120 112 51 15 2 0 2 8 17 29 43 63 88 106 108 97 81 58 36 19 8 2 0 -1 -2 -3 -3 -3 -3 -3 -3 -3 -3 -3 -3 -3 -3 -3 -3 -3 -3 -3 -3 -1 7 37 95 
95 37 7 -1 -3 -3 -3 -3 -3 -3 -3 -3 -3 -3 -3 -3 -3 -3 -3 -3 -3 -3 -3 -3 -3 -2 -2 -1 -1 -1 -1 -1 0 1 4 6 7 7 7 7 8 11 17 27 33 36 37 38 40 46 60 79 89 93 95 95 95 97 101 108 109 107 119 144 134 78 34 16 13 20 36 58 81 97 108 106 88 63 43 29 17 8 2 0 -2 -3 -3 -3 -3 -3 -3 -3 -3 -3 -3 -3 -3 -3 -3 -3 -3 -3 -3 -3 -3 -3 -1 7 37 95 
95 37 7 -1 -3 -3 -3 -3 -3 -3 -3 -3 -3 -3 -3 -3 -3 -3 -3 -3 -3 -3 -3 -3 -3 -3 -3 -3 -3 -3 -3 -3 -3 -2 -2 -1 -1 -1 -1 -1 -1 0 1 4 6 7 7 7 8 11 17 27 33 36 37 37 38 40 46 60 79 91 101 115 127 113 78 54 51 65 88 106 108 97 81 58 36 20 10 5 1 -1 -2 -3 -3 -3 -3 -3 -3 -3 -3 -3 -3 -3 -3 -3 -3 -3 -3 -3 -3 -3 -3 -3 -3 -3 -1 7 37 95 
95 37 7 -1 -3 -3 -3 -3 -3 -3 -3 -3 -3 -3 -3 -3 -3 -3 -3 -3 -3 -3 -3 -3 -3 -3 -3 -3 -3 -3 -3 -3 -3 -3 -3 -3 -3 -3 -3 -3 -3 -3 -2 -2 -1 -1 -1 -1 -1 0 1 4 6 7 7 7 7 8 11 17 27 34 40 51 77 113 128 118 110 111 106 88 63 43 29 17 8 2 0 -1 -2 -3 -3 -3 -3 -3 -3 -3 -3 -3 -3 -3 -3 -3 -3 -3 -3 -3 -3 -3 -3 -3 -3 -3 -3 -3 -1 7 37 95 
95 37 7 -1 -3 -3 -3 -3 -3 -3 -3 -3 -3 -3 -3 -3 -3 -3 -3 -3 -3 -3 -3 -3 -3 -3 -3 -3 -3 -3 -3 -3 -3 -3 -3 -3 -3 -3 -3 -3 -3 -3 -3 -3 -3 -3 -3 -3 -3 -3 -2 -2 -1 -1 -1 -1 -1 -1 0 1 4 6 8 15 34 78 134 143 113 85 59 36 20 10 5 1 0 -2 -3 -3 -3 -3 -3 -3 -3 -3 -3 -3 -3 -3 -3 -3 -3 -3 -3 -3 -3 -3 -3 -3 -3 -3 -3 -3 -3 -3 -1 7 37 95 
95 38 7 -1 -2 -3 -3 -3 -3 -3 -3 -3 -3 -3 -3 -3 -3 -3 -3 -3 -3 -3 -3 -3 -3 -3 -3 -3 -3 -3 -3 -3 -3 -3 -3 -3 -3 -3 -3 -3 -3 -3 -3 -3 -3 -3 -3 -3 -3 -3 -3 -3 -3 -2 -2 -2 -2 -2 -2 -2 -1 -1 0 2 15 51 112 119 70 37 18 8 2 0 -1 -2 -2 -3 -3 -3 -3 -3 -3 -3 -3 -3 -3 -3 -3 -3 -3 -3 -3 -3 -3 -3 -3 -3 -3 -3 -3 -3 -3 -3 -3 -2 -1 7 38 95 
96 39 9 0 -1 -1 -1 -1 -1 -1 -1 -1 -1 -1 -1 -1 -1 -1 -1 -1 -1 -1 -1 -1 -1 -1 -1 -1 -1 -1 -1 -1 -1 -1 -1 -1 -1 -1 -1 -1 -1 -1 -1 -1 -1 -1 -1 -1 -1 -1 -1 -1 -1 -1 -1 -1 -1 -1 -1 -1 -1 -1 0 1 11 43 101 103 48 17 5 1 0 0 -1 -1 -1 -1 -1 -1 -1 -1 -1 -1 -1 -1 -1 -1 -1 -1 -1 -1 -1 -1 -1 -1 -1 -1 -1 -1 -1 -1 -1 -1 -1 -1 0 9 39 96 
102 47 18 9 7 7 7 7 7 7 7 7 7 7 7 7 7 7 7 7 7 7 7 7 7 7 7 7 7 7 7 7 7 7 7 7 7 7 7 7 7 7 7 7 7 7 7 7 7 7 7 7 7 7 7 7 7 7 7 7 7 7 7 9 18 48 103 104 49 19 10 8 7 7 7 7 7 7 7 7 7 7 7 7 7 7 7 7 7 7 7 7 7 7 7 7 7 7 7 7 7 7 7 7 7 7 9 18 47 102 
121 74 47 39 38 37 37 37 37 37 37 37 37 37 37 37 37 37 37 37 37 37 37 37 37 37 37 37 37 37 37 37 37 37 37 37 37 37 37 37 37 37 37 37 37 37 37 37 37 37 37 37 37 37 37 37 37 37 37 37 37 37 38 40 47 74 121 121 74 48 40 38 38 37 37 37 37 37 37 37 37 37 37 37 37 37 37 37 37 37 37 37 37 37 37 37 37 37 37 37 37 37 37 37 37 37 39 47 74 121 
155 121 102 96 95 95 95 95 95 95 95 95 95 95 95 95 95 95 95 95 95 95 95 95 95 95 95 95 95 95 96 98 101 103 101 97 96 95 95 95 95 95 95 95 95 95 95 96 99 103 103 98 96 95 95 95 95 95 95 95 95 95 95 96 101 116 143 143 116 101 96 95 95 95 95 95 95 95 95 95 95 95 95 95 95 95 95 95 95 95 97 100 103 101 97 96 95 95 95 95 95 95 97 100 103 101 99 103 121 155 
