P2
110 110
255
154 117 99 95 94 94 94 94 94 94 94 94 94 94 94 94 94 94 94 94 94 94 94 94 94 94 94 94 94 95 99 112 137 150 129 106 97 94 94 94 94 94 94 94 94 94 95 99 114 144 143 114 99 95 94 94 94 94 94 94 94 94 94 94 94 97 101 101 97 94 94 94 94 94 94 94 94 94 94 94 94 94 94 94 94 94 94 94 94 97 107 132 151 130 106 97 94 94 94 94 94 96 106 130 151 131 107 102 118 154 
117 65 40 34 32 32 32 32 32 32 32 32 32 32 32 32 32 32 32 32 32 32 32 32 32 32 32 32 33 37 50 84 126 117 72 44 35 33 32 32 32 32 32 32 32 32 34 41 67 119 117 65 40 34 32 32 32 32 32 32 32 32 32 32 32 32 32 32 32 32 32 32 32 32 32 32 32 32 32 32 32 32 32 32 32 32 32 33 34 41 66 114 124 78 46 35 33 32 32 32 33 38 59 107 127 80 48 43 65 118 
99 40 12 5 4 4 4 4 4 4 4 4 4 4 4 4 4 4 4 4 4 4 4 4 4 4 4 4 6 15 42 93 113 68 26 10 5 4 4 4 4 4 4 4 4 4 6 15 49 110 101 40 12 5 4 4 4 4 4 4 4 4 4 4 4 4 4 4 4 4 4 4 4 4 4 4 4 4 4 4 4 4 4 4 4 4 4 4 8 21 61 113 90 37 12 5 4 4 4 4 5 12 39 97 103 46 16 14 40 99 
95 34 5 -1 -2 -2 -2 -2 -2 -2 -2 -2 -2 -2 -2 -2 -2 -2 -2 -2 -2 -2 -2 -2 -2 -2 -2 -1 4 23 66 110 86 34 7 0 -2 -2 -2 -2 -2 -2 -2 -2 -2 -2 1 16 61 125 100 33 5 -1 -2 -2 -2 -2 -2 -2 -2 -2 -2 -2 -2 -2 -2 -2 -2 -2 -2 -2 -2 -2 -2 -2 -2 -2 -2 -2 -2 -2 -2 -2 -2 -2 -2 -1 4 26 80 109 58 16 1 -2 -2 -2 -2 -2 0 8 41 100 91 32 7 7 34 95 
94 32 4 -2 -3 -4 -4 -4 -4 -4 -4 -4 -4 -4 -4 -4 -4 -4 -4 -4 -4 -4 -4 -4 -4 -4 -3 0 13 50 101 101 50 13 0 -3 -4 -4 -4 -4 -4 -4 -4 -4 -3 -2 5 32 92 146 102 32 4 -2 -3 -4 -4 -4 -4 -4 -4 -4 -4 -4 -4 -4 -4 -4 -4 -4 -4 -4 -4 -4 -4 -4 -4 -4 -4 -4 -4 -4 -4 -4 -4 -4 -3 -1 7 38 96 96 38 6 -1 -3 -4 -4 -4 -3 0 13 56 109 78 24 3 5 33 94 
94 32 4 -2 -4 -4 -4 -4 -4 -4 -4 -4 -4 -4 -4 -4 -4 -4 -4 -4 -4 -4 -4 -4 -4 -3 -1 6 33 86 109 65 21 2 -2 -4 -4 -4 -4 -4 -4 -4 -4 -4 -3 0 14 56 120 149 101 32 4 -2 -4 -4 -4 -4 -4 -4 -4 -4 -4 -4 -4 -4 -4 -4 -4 -4 -4 -4 -4 -4 -4 -4 -4 -4 -4 -4 -4 -4 -4 -4 -4 -4 -3 0 15 58 109 79 25 2 -3 -4 -4 -4 -4 -3 2 23 78 109 56 13 0 4 32 94 
94 32 4 -2 -4 -4 -4 -4 -4 -4 -4 -4 -4 -4 -4 -4 -4 -4 -4 -4 -4 -4 -4 -4 -4 -2 2 21 65 109 86 33 6 -1 -3 -4 -4 -4 -4 -4 -4 -4 -4 -4 -2 5 31 88 130 136 100 34 4 -2 -4 -4 -4 -4 -4 -4 -4 -4 -4 -4 -4 -4 -4 -4 -4 -4 -4 -4 -4 -4 -4 -4 -4 -4 -4 -4 -4 -4 -4 -4 -4 -4 -2 4 31 86 107 53 13 0 -3 -4 -4 -4 -4 -2 4 31 91 99 39 7 0 4 32 94 
94 32 4 -2 -4 -4 -4 -4 -4 -4 -4 -4 -4 -4 -4 -4 -4 -4 -4 -4 -4 -4 -4 -4 -3 0 13 50 101 101 50 13 0 -3 -4 -4 -4 -4 -4 -4 -4 -4 -4 -3 0 15 56 111 113 117 103 40 7 -2 -4 -4 -4 -4 -4 -4 -4 -4 -4 -4 -4 -4 -4 -4 -4 -4 -4 -4 -4 -4 -4 -4 -4 -4 -4 -4 -4 -4 -4 -4 -4 -3 0 13 53 107 86 31 4 -2 -4 -4 -4 -4 -4 -2 7 39 99 91 31 4 -1 4 32 94 
94 32 4 -2 -4 -4 -4 -4 -4 -4 -4 -4 -4 -4 -4 -4 -4 -4 -4 -4 -4 -4 -4 -3 -1 6 33 86 109 65 21 2 -2 -4 -4 -4 -4 -4 -4 -4 -4 -4 -3 -1 6 34 87 111 81 94 111 56 13 0 -3 -4 -4 -4 -4 -4 -4 -4 -4 -4 -4 -4 -4 -4 -4 -4 -4 -4 -4 -4 -4 -4 -4 -4 -4 -4 -4 -4 -4 -4 -4 -3 2 25 79 109 58 15 0 -3 -4 -4 -4 -4 -3 0 13 56 109 78 23 2 -1 4 32 94 
94 32 4 -2 -4 -4 -4 -4 -4 -4 -4 -4 -4 -4 -4 -4 -4 -4 -4 -4 -4 -4 -4 -2 2 21 65 109 86 33 6 -1 -3 -4 -4 -4 -4 -4 -4 -4 -4 -4 -2 2 21 65 109 88 48 64 110 77 23 1 -3 -4 -4 -4 -4 -4 -4 -4 -4 -4 -4 -4 -4 -4 -4 -4 -4 -4 -4 -4 -4 -4 -4 -4 -4 -4 -4 -4 -4 -4 -4 -2 6 38 96 96 38 6 -2 -4 -4 -4 -4 -4 -3 1 23 78 109 56 13 0 -2 4 32 94 
94 32 4 -2 -4 -4 -4 -4 -4 -4 -4 -4 -4 -4 -4 -4 -4 -4 -4 -4 -4 -4 -3 0 13 50 101 101 50 13 0 -3 -4 -4 -4 -4 -4 -4 -4 -4 -4 -3 0 13 50 101 102 52 24 44 101 89 29 3 -3 -4 -4 -4 -4 -4 -4 -4 -4 -4 -4 -4 -4 -4 -4 -4 -4 -4 -4 -4 -4 -4 -4 -4 -4 -4 -4 -4 -4 -4 -3 0 15 58 109 79 25 2 -3 -4 -4 -4 -4 -4 -2 4 31 91 99 39 7 -1 -2 4 32 94 
94 33 4 -2 -4 -4 -4 -4 -4 -4 -4 -4 -4 -4 -4 -4 -4 -4 -4 -4 -4 -3 -1 6 33 86 109 65 21 2 -2 -4 -4 -4 -4 -4 -4 -4 -4 -4 -4 -2 5 31 85 109 65 23 11 36 96 93 32 4 -2 -4 -4 -4 -4 -4 -4 -4 -4 -4 -4 -4 -4 -4 -4 -4 -4 -4 -4 -4 -4 -4 -4 -4 -4 -4 -4 -4 -4 -4 -2 4 31 86 107 53 13 0 -3 -4 -4 -4 -4 -4 -2 7 39 99 91 31 4 -2 -2 4 32 94 
97 35 5 -2 -4 -4 -4 -4 -4 -4 -4 -4 -4 -4 -4 -4 -4 -4 -4 -4 -4 -2 2 21 65 109 86 33 6 -1 -3 -4 -4 -4 -4 -4 -4 -4 -4 -4 -3 0 14 56 107 87 34 8 6 33 94 94 32 4 -2 -4 -4 -4 -4 -4 -4 -4 -4 -4 -4 -4 -4 -4 -4 -4 -4 -4 -4 -4 -4 -4 -4 -4 -4 -4 -4 -4 -4 -3 0 13 53 107 86 31 4 -2 -4 -4 -4 -4 -4 -3 0 13 56 109 78 23 2 -3 -2 4 32 94 
106 44 9 -1 -3 -4 -4 -4 -4 -4 -4 -4 -4 -4 -4 -4 -4 -4 -4 -4 -3 0 13 50 101 101 50 13 0 -3 -4 -4 -4 -4 -4 -4 -4 -4 -4 -4 -2 5 32 86 107 56 15 1 4 32 93 95 34 4 -2 -4 -4 -4 -4 -4 -4 -4 -4 -4 -4 -4 -4 -4 -4 -4 -4 -4 -4 -4 -4 -4 -4 -4 -4 -4 -4 -4 -4 -3 2 25 79 109 58 15 0 -3 -4 -4 -4 -4 -4 -3 1 23 78 109 56 13 0 -3 -2 4 32 96 
129 71 25 4 -2 -3 -4 -4 -4 -4 -4 -4 -4 -4 -4 -4 -4 -4 -4 -3 -1 6 33 86 109 65 21 2 -2 -4 -4 -4 -4 -4 -4 -4 -4 -4 -4 -3 0 15 56 107 86 32 5 -1 3 29 89 100 40 7 -2 -4 -4 -4 -4 -4 -4 -4 -4 -4 -4 -4 -4 -4 -4 -4 -4 -4 -4 -4 -4 -4 -4 -4 -4 -4 -4 -4 -4 -2 6 38 96 96 38 6 -2 -4 -4 -4 -4 -4 -4 -2 4 31 91 99 39 7 -2 -3 -2 4 32 100 
150 116 61 22 3 -2 -4 -4 -4 -4 -4 -4 -4 -4 -4 -4 -4 -4 -4 -2 2 21 65 109 86 33 6 -1 -3 -4 -4 -4 -4 -4 -4 -4 -4 -4 -3 -1 6 34 87 107 56 14 0 -2 1 23 77 109 56 13 0 -3 -4 -4 -4 -4 -4 -4 -4 -4 -4 -4 -4 -4 -4 -4 -4 -4 -4 -4 -4 -4 -4 -4 -4 -4 -4 -4 -3 0 15 58 109 79 25 2 -3 -4 -4 -4 -4 -4 -4 -2 7 39 99 91 31 4 -2 -3 -2 4 32 102 
138 128 106 59 19 2 -2 -4 -4 -4 -4 -4 -4 -4 -4 -4 -4 -4 -3 0 13 50 101 101 50 13 0 -3 -4 -4 -4 -4 -4 -4 -4 -4 -4 -4 -2 2 21 65 109 85 31 5 -2 -3 0 13 56 109 77 23 1 -3 -4 -4 -4 -4 -4 -4 -4 -4 -4 -4 -4 -4 -4 -4 -4 -4 -4 -4 -4 -4 -4 -4 -4 -4 -4 -4 -2 4 31 86 107 53 13 0 -3 -4 -4 -4 -4 -4 -3 0 13 56 109 78 23 1 -3 -4 -2 4 32 99 
115 94 110 101 50 13 0 -3 -4 -4 -4 -4 -4 -4 -4 -4 -4 -3 -1 6 33 86 109 65 21 2 -2 -4 -4 -4 -4 -4 -4 -4 -4 -4 -4 -3 0 13 50 101 101 50 13 0 -3 -3 -2 7 40 100 89 29 3 -3 -4 -4 -4 -4 -4 -4 -4 -4 -4 -4 -4 -4 -4 -4 -4 -4 -4 -4 -4 -4 -4 -4 -4 -4 -4 -3 0 13 53 107 86 31 4 -2 -4 -4 -4 -4 -4 -4 -3 1 23 78 109 56 13 0 -3 -4 -2 4 32 96 
101 60 74 110 86 34 7 -1 -3 -4 -4 -4 -4 -4 -4 -4 -4 -2 2 21 65 109 86 33 6 -1 -3 -4 -4 -4 -4 -4 -4 -4 -4 -4 -4 -2 5 31 85 109 65 21 2 -2 -4 -4 -2 4 34 95 93 32 4 -2 -4 -4 -4 -4 -4 -4 -4 -4 -4 -4 -4 -4 -4 -4 -4 -4 -4 -4 -4 -4 -4 -4 -4 -4 -4 -3 2 25 79 109 58 15 0 -3 -4 -4 -4 -4 -4 -4 -2 4 31 91 99 39 7 -2 -4 -4 -2 4 32 94 
96 43 42 87 109 66 24 4 -1 -3 -4 -4 -4 -4 -4 -4 -3 0 13 50 101 101 50 13 0 -3 -4 -4 -4 -4 -4 -4 -4 -4 -4 -4 -3 0 14 56 107 87 34 6 -1 -3 -4 -4 -2 4 32 94 94 32 4 -2 -4 -4 -4 -4 -4 -4 -4 -4 -4 -4 -4 -4 -4 -4 -4 -4 -4 -4 -4 -4 -4 -4 -4 -4 -4 -2 6 38 96 96 38 6 -2 -4 -4 -4 -4 -4 -4 -4 -2 7 39 99 91 31 4 -2 -4 -4 -2 4 32 94 
94 37 22 51 100 104 61 22 4 -2 -3 -4 -4 -4 -4 -3 -1 6 33 86 109 65 21 2 -2 -4 -4 -4 -4 -4 -4 -4 -4 -4 -4 -4 -2 5 32 86 107 56 15 0 -3 -4 -4 -4 -2 4 32 93 95 34 4 -2 -4 -4 -4 -4 -4 -4 -4 -4 -4 -4 -4 -4 -4 -4 -4 -4 -4 -4 -4 -4 -4 -4 -4 -4 -3 0 15 58 109 79 25 2 -3 -4 -4 -4 -4 -4 -4 -3 0 13 56 109 78 23 1 -3 -4 -4 -2 4 32 94 
94 34 10 21 59 103 103 60 22 4 -2 -3 -4 -4 -4 -2 2 21 65 109 86 33 6 -1 -3 -4 -4 -4 -4 -4 -4 -4 -4 -4 -4 -3 0 15 56 107 86 32 5 -2 -4 -4 -4 -4 -3 3 29 89 100 40 7 -2 -4 -4 -4 -4 -4 -4 -4 -4 -4 -4 -4 -4 -4 -4 -4 -4 -4 -4 -4 -4 -4 -4 -4 -4 -2 4 31 86 107 53 13 0 -3 -4 -4 -4 -4 -4 -4 -3 1 23 78 109 56 13 0 -3 -4 -4 -2 4 32 94 
94 33 6 5 22 60 103 103 60 22 4 -2 -3 -4 -3 0 13 50 101 101 50 13 0 -3 -4 -4 -4 -4 -4 -4 -4 -4 -4 -4 -3 -1 6 34 87 107 56 14 0 -3 -4 -4 -4 -4 -3 1 23 77 109 56 13 0 -3 -4 -4 -4 -4 -4 -4 -4 -4 -4 -4 -4 -4 -4 -4 -4 -4 -4 -4 -4 -4 -4 -4 -3 0 13 53 107 86 31 4 -2 -4 -4 -4 -4 -4 -4 -4 -2 4 31 91 99 39 7 -2 -4 -4 -4 -2 4 32 94 
94 32 4 0 4 22 60 103 103 60 22 4 -1 -3 -1 6 33 86 109 65 21 2 -2 -4 -4 -4 -4 -4 -4 -4 -4 -4 -4 -4 -2 2 21 65 109 85 31 5 -2 -4 -4 -4 -4 -4 -3 0 13 56 109 77 23 1 -3 -4 -4 -4 -4 -4 -4 -4 -4 -4 -4 -4 -4 -4 -4 -4 -4 -4 -4 -4 -4 -4 -4 -3 2 25 79 109 58 15 0 -3 -4 -4 -4 -4 -4 -4 -4 -2 7 39 99 91 31 4 -2 -4 -4 -4 -2 4 32 94 
94 32 4 -2 -1 4 22 60 103 103 60 22 4 0 3 21 65 109 86 33 6 -1 -3 -4 -4 -4 -4 -4 -4 -4 -4 -4 -4 -3 0 13 50 101 101 50 13 0 -3 -4 -4 -4 -4 -4 -4 -2 7 40 100 89 29 3 -3 -4 -4 -4 -4 -4 -4 -4 -4 -4 -4 -4 -4 -4 -4 -4 -4 -4 -4 -4 -4 -4 -4 -2 6 38 96 96 38 6 -2 -4 -4 -4 -4 -4 -4 -4 -3 0 13 56 109 78 23 1 -3 -4 -4 -4 -2 4 32 94 
94 32 4 -2 -3 -1 4 22 60 103 103 60 23 8 15 51 101 101 50 13 0 -3 -4 -4 -4 -4 -4 -4 -4 -4 -4 -4 -4 -2 5 31 85 109 65 21 2 -2 -4 -4 -4 -4 -4 -4 -4 -2 4 34 95 93 32 4 -2 -4 -4 -4 -4 -4 -4 -4 -4 -4 -4 -4 -4 -4 -4 -4 -4 -4 -4 -4 -4 -4 -3 0 15 58 109 79 25 2 -3 -4 -4 -4 -4 -4 -4 -4 -3 1 23 78 109 56 13 0 -3 -4 -4 -4 -2 4 32 94 
94 32 4 -2 -4 -3 -2 4 22 60 103 103 63 33 42 87 109 65 21 2 -2 -4 -4 -4 -4 -4 -4 -4 -4 -4 -4 -4 -3 0 14 56 107 87 34 6 -1 -3 -4 -4 -4 -4 -4 -4 -4 -2 4 32 93 95 34 4 -2 -4 -4 -4 -4 -4 -4 -4 -4 -4 -4 -4 -4 -4 -4 -4 -4 -4 -4 -4 -4 -4 -2 4 31 86 107 53 13 0 -3 -4 -4 -4 -4 -4 -4 -4 -2 4 31 91 99 39 7 -2 -4 -4 -4 -4 -2 4 32 94 
94 32 4 -2 -4 -4 -3 -2 4 22 60 104 108 83 86 113 86 33 6 -1 -3 -4 -4 -4 -4 -4 -4 -4 -4 -4 -4 -4 -2 5 32 86 107 56 15 0 -3 -4 -4 -4 -4 -4 -4 -4 -4 -3 3 29 89 100 40 7 -2 -4 -4 -4 -4 -4 -4 -4 -4 -4 -4 -4 -4 -4 -4 -4 -4 -4 -4 -4 -4 -3 0 13 53 107 86 31 4 -2 -4 -4 -4 -4 -4 -4 -4 -4 -2 7 39 99 91 31 4 -2 -4 -4 -4 -4 -2 4 32 94 
94 32 4 -2 -4 -4 -4 -3 -2 4 22 61 110 135 136 107 51 13 0 -3 -4 -4 -4 -4 -4 -4 -4 -4 -4 -4 -4 -3 0 15 56 107 86 32 5 -2 -4 -4 -4 -4 -4 -4 -4 -4 -4 -3 1 23 77 109 56 13 0 -3 -4 -4 -4 -4 -4 -4 -4 -4 -4 -4 -4 -4 -4 -4 -4 -4 -4 -4 -4 -3 2 25 79 109 58 15 0 -3 -4 -4 -4 -4 -4 -4 -4 -3 0 13 56 109 78 23 1 -3 -4 -4 -4 -4 -2 4 32 94 
94 32 4 -2 -4 -4 -4 -4 -3 -1 4 25 71 133 133 70 22 2 -2 -4 -4 -4 -4 -4 -4 -4 -4 -4 -4 -4 -3 -1 6 34 87 107 56 14 0 -3 -4 -4 -4 -4 -4 -4 -4 -4 -4 -3 0 13 56 109 77 23 1 -3 -4 -4 -4 -4 -4 -4 -4 -4 -4 -4 -4 -4 -4 -4 -4 -4 -4 -4 -4 -2 6 38 96 96 38 6 -2 -4 -4 -4 -4 -4 -4 -4 -4 -3 1 23 78 109 56 13 0 -3 -4 -4 -4 -4 -2 4 32 94 
94 32 4 -2 -4 -4 -4 -4 -4 -3 -1 9 43 107 110 46 9 -1 -3 -4 -4 -4 -4 -4 -4 -4 -4 -4 -4 -4 -2 2 21 65 109 85 31 5 -2 -4 -4 -4 -4 -4 -4 -4 -4 -4 -4 -4 -2 7 40 100 89 29 3 -3 -4 -4 -4 -4 -4 -4 -4 -4 -4 -4 -4 -4 -4 -4 -4 -4 -4 -4 -3 0 15 58 109 79 25 2 -3 -4 -4 -4 -4 -4 -4 -4 -4 -2 4 31 91 99 39 7 -2 -4 -4 -4 -4 -4 -2 4 32 94 
94 32 4 -2 -4 -4 -4 -4 -4 -4 -2 4 32 92 104 43 8 -1 -3 -4 -4 -4 -4 -4 -4 -4 -4 -4 -4 -3 0 13 50 101 101 50 13 0 -3 -4 -4 -4 -4 -4 -4 -4 -4 -4 -4 -4 -2 4 34 95 93 32 4 -2 -4 -4 -4 -4 -4 -4 -4 -4 -4 -4 -4 -4 -4 -4 -4 -4 -4 -4 -2 4 31 86 107 53 13 0 -3 -4 -4 -4 -4 -4 -4 -4 -4 -2 7 39 99 91 31 4 -2 -4 -4 -4 -4 -4 -2 4 32 94 
94 32 4 -2 -4 -4 -4 -4 -4 -4 -3 2 23 78 109 56 13 0 -3 -4 -4 -4 -4 -4 -4 -4 -4 -4 -4 -2 5 31 85 109 65 21 2 -2 -4 -4 -4 -4 -4 -4 -4 -4 -4 -4 -4 -4 -2 4 32 94 94 32 4 -2 -4 -4 -4 -4 -4 -4 -4 -4 -4 -4 -4 -4 -4 -4 -4 -4 -4 -3 0 13 53 107 86 31 4 -2 -4 -4 -4 -4 -4 -4 -4 -4 -3 0 13 56 109 78 23 1 -3 -4 -4 -4 -4 -4 -2 4 32 94 
94 32 4 -2 -4 -4 -4 -4 -4 -4 -3 0 13 56 109 77 23 1 -3 -4 -4 -4 -4 -4 -4 -4 -4 -4 -3 0 14 56 107 87 34 6 -1 -3 -4 -4 -4 -4 -4 -4 -4 -4 -4 -4 -4 -4 -2 4 32 93 95 34 4 -2 -4 -4 -4 -4 -4 -4 -4 -4 -4 -4 -4 -4 -4 -4 -4 -4 -4 -3 2 25 79 109 58 15 0 -3 -4 -4 -4 -4 -4 -4 -4 -4 -3 1 23 78 109 56 13 0 -3 -4 -4 -4 -4 -4 -2 4 32 94 
94 32 4 -2 -4 -4 -4 -4 -4 -4 -4 -2 7 40 100 89 30 3 -2 -4 -4 -4 -4 -4 -4 -4 -4 -4 -2 5 32 86 107 56 15 0 -3 -4 -4 -4 -4 -4 -4 -4 -4 -4 -4 -4 -4 -4 -3 3 29 89 100 40 7 -2 -4 -4 -4 -4 -4 -4 -4 -4 -4 -4 -4 -4 -4 -4 -4 -4 -4 -2 6 38 96 96 38 6 -2 -4 -4 -4 -4 -4 -4 -4 -4 -4 -2 4 31 91 99 39 7 -2 -4 -4 -4 -4 -4 -4 -2 4 33 94 
94 32 4 -2 -4 -4 -4 -4 -4 -4 -4 -2 4 33 94 94 33 4 -2 -4 -4 -4 -4 -4 -4 -4 -4 -3 0 15 56 107 86 32 5 -2 -4 -4 -4 -4 -4 -4 -4 -4 -4 -4 -4 -4 -4 -4 -3 1 23 77 109 56 13 0 -3 -4 -4 -4 -4 -4 -4 -4 -4 -4 -4 -4 -4 -4 -4 -4 -3 0 15 58 109 79 25 2 -3 -4 -4 -4 -4 -4 -4 -4 -4 -4 -2 7 39 99 91 31 4 -2 -4 -4 -4 -4 -4 -4 -2 4 34 96 
96 32 4 -2 -4 -4 -4 -4 -4 -4 -4 -2 3 30 89 100 40 7 -2 -4 -4 -4 -4 -4 -4 -4 -3 -1 6 34 87 107 56 14 0 -3 -4 -4 -4 -4 -4 -4 -4 -4 -4 -4 -4 -4 -4 -4 -3 0 13 56 109 77 23 1 -3 -4 -4 -4 -4 -4 -4 -4 -4 -4 -4 -4 -4 -4 -4 -4 -2 4 31 86 107 53 13 0 -3 -4 -4 -4 -4 -4 -4 -4 -4 -3 0 13 56 109 78 23 1 -3 -4 -4 -4 -4 -4 -4 -2 7 41 104 
99 32 4 -2 -4 -4 -4 -4 -4 -4 -4 -3 1 23 77 109 56 13 0 -3 -4 -4 -4 -4 -4 -4 -2 2 21 65 109 85 31 5 -2 -4 -4 -4 -4 -4 -4 -4 -4 -4 -4 -4 -4 -4 -4 -4 -4 -2 7 40 100 89 29 3 -3 -4 -4 -4 -4 -4 -4 -4 -4 -4 -4 -4 -4 -4 -4 -3 0 13 53 107 86 31 4 -2 -4 -4 -4 -4 -4 -4 -4 -4 -4 -3 1 23 78 109 56 13 0 -3 -4 -4 -4 -4 -4 -3 0 15 60 124 
102 32 4 -2 -4 -4 -4 -4 -4 -4 -4 -3 0 13 56 109 77 23 1 -3 -4 -4 -4 -4 -4 -3 0 13 50 101 101 50 13 0 -3 -4 -4 -4 -4 -4 -4 -4 -4 -4 -4 -4 -4 -4 -4 -4 -4 -2 4 34 95 93 32 4 -2 -4 -4 -4 -4 -4 -4 -4 -4 -4 -4 -4 -4 -4 -4 -3 2 25 79 109 58 15 0 -3 -4 -4 -4 -4 -4 -4 -4 -4 -4 -2 4 31 91 99 39 7 -2 -4 -4 -4 -4 -4 -3 -1 6 34 93 146 
100 32 4 -2 -4 -4 -4 -4 -4 -4 -4 -4 -2 7 40 100 89 30 3 -2 -4 -4 -4 -4 -4 -2 5 31 85 109 65 21 2 -2 -4 -4 -4 -4 -4 -4 -4 -4 -4 -4 -4 -4 -4 -4 -4 -4 -4 -2 4 32 94 94 32 4 -2 -4 -4 -4 -4 -4 -4 -4 -4 -4 -4 -4 -4 -4 -4 -2 6 38 96 96 38 6 -2 -4 -4 -4 -4 -4 -4 -4 -4 -4 -4 -2 7 39 99 91 31 4 -2 -4 -4 -4 -4 -4 -2 2 21 65 123 149 
98 32 4 -2 -4 -4 -4 -4 -4 -4 -4 -4 -2 4 33 94 94 33 4 -2 -4 -4 -4 -4 -3 0 14 56 107 87 34 6 -1 -3 -4 -4 -4 -4 -4 -4 -4 -4 -4 -4 -4 -4 -4 -4 -4 -4 -4 -2 4 32 93 95 34 4 -2 -4 -4 -4 -4 -4 -4 -4 -4 -4 -4 -4 -4 -4 -3 0 15 58 109 79 25 2 -3 -4 -4 -4 -4 -4 -4 -4 -4 -4 -3 0 13 56 109 78 23 1 -3 -4 -4 -4 -4 -3 0 13 50 104 127 133 
96 32 4 -2 -4 -4 -4 -4 -4 -4 -4 -4 -2 3 30 89 100 40 7 -2 -4 -4 -4 -4 -2 5 32 86 107 56 15 0 -3 -4 -4 -4 -4 -4 -4 -4 -4 -4 -4 -4 -4 -4 -4 -4 -4 -4 -4 -3 3 29 89 100 40 7 -2 -4 -4 -4 -4 -4 -4 -4 -4 -4 -4 -4 -4 -4 -2 4 31 86 107 53 13 0 -3 -4 -4 -4 -4 -4 -4 -4 -4 -4 -3 1 23 78 109 56 13 0 -3 -4 -4 -4 -3 -1 6 33 86 114 97 114 
94 32 4 -2 -4 -4 -4 -4 -4 -4 -4 -4 -3 1 23 77 109 56 13 0 -3 -4 -4 -3 0 15 56 107 86 32 5 -2 -4 -4 -4 -4 -4 -4 -4 -4 -4 -4 -4 -4 -4 -4 -4 -4 -4 -4 -4 -3 1 23 77 109 56 13 0 -3 -4 -4 -4 -4 -4 -4 -4 -4 -4 -4 -4 -3 0 13 53 107 86 31 4 -2 -4 -4 -4 -4 -4 -4 -4 -4 -4 -4 -2 4 31 91 99 39 7 -2 -4 -4 -4 -4 -2 2 21 65 109 93 69 102 
94 32 4 -2 -4 -4 -4 -4 -4 -4 -4 -4 -3 0 13 56 109 77 23 1 -3 -4 -3 -1 6 34 87 107 56 14 0 -3 -4 -4 -4 -4 -4 -4 -4 -4 -4 -4 -4 -4 -4 -4 -4 -4 -4 -4 -4 -3 0 13 56 109 78 24 3 -1 -2 -3 -3 -4 -4 -4 -4 -4 -4 -4 -4 -3 2 25 79 109 58 15 0 -3 -4 -4 -4 -4 -4 -4 -4 -4 -4 -4 -2 7 39 99 91 31 4 -2 -4 -4 -4 -3 0 13 50 101 102 58 49 97 
94 32 4 -2 -4 -4 -4 -4 -4 -4 -4 -4 -4 -2 7 40 100 89 30 3 -2 -3 -2 2 21 65 109 85 31 5 -2 -4 -4 -4 -4 -4 -4 -4 -4 -4 -4 -4 -4 -4 -4 -4 -4 -4 -4 -4 -4 -3 -1 8 43 104 94 37 11 5 3 1 0 -2 -2 -2 -2 -3 -3 -3 -3 -1 6 38 96 96 38 6 -2 -4 -4 -4 -4 -4 -4 -4 -4 -4 -4 -3 0 13 56 109 78 23 1 -3 -4 -4 -3 -1 6 33 86 109 66 30 39 95 
94 32 4 -2 -4 -4 -4 -4 -4 -4 -4 -4 -4 -2 4 33 94 94 33 4 -2 -3 0 13 50 101 101 50 13 0 -3 -4 -4 -4 -4 -4 -4 -4 -4 -4 -4 -4 -4 -4 -4 -4 -4 -4 -4 -4 -3 -2 1 13 48 111 115 64 40 33 29 23 13 7 4 4 4 3 1 0 -1 1 16 58 109 79 25 2 -3 -4 -4 -4 -4 -4 -4 -4 -4 -4 -4 -3 1 23 78 109 56 13 0 -3 -4 -4 -2 2 21 65 109 86 35 15 35 94 
94 32 4 -2 -4 -4 -4 -4 -4 -4 -4 -4 -4 -2 3 30 89 100 40 7 -1 -2 5 31 85 109 65 21 2 -2 -4 -4 -4 -4 -4 -4 -4 -4 -4 -4 -4 -4 -4 -4 -4 -4 -4 -4 -4 -3 -1 2 14 36 77 135 144 114 98 93 89 77 56 40 34 32 32 29 23 13 8 13 37 89 107 54 13 0 -3 -4 -4 -4 -4 -4 -4 -4 -4 -4 -4 -2 4 31 91 99 39 7 -2 -4 -4 -3 0 13 50 101 101 50 15 8 33 94 
94 32 4 -2 -4 -4 -4 -4 -4 -4 -4 -4 -4 -3 1 23 77 109 56 13 0 0 14 56 107 87 34 6 -1 -3 -4 -4 -4 -4 -4 -4 -4 -4 -4 -4 -4 -4 -4 -4 -4 -4 -4 -3 -2 0 6 21 50 87 115 124 112 100 95 96 100 109 109 100 95 94 93 89 77 56 43 48 78 117 89 32 5 -2 -4 -4 -4 -4 -4 -4 -4 -4 -4 -4 -4 -2 7 39 99 91 31 4 -2 -4 -3 -1 6 33 86 109 65 21 4 5 33 94 
94 32 4 -2 -4 -4 -4 -4 -4 -4 -4 -4 -4 -3 0 13 56 109 77 23 3 6 32 86 107 56 15 0 -3 -4 -4 -4 -4 -4 -4 -4 -4 -4 -4 -4 -4 -4 -4 -4 -4 -4 -3 -1 2 13 33 65 101 109 88 60 41 34 33 34 40 56 77 89 93 94 95 100 109 109 104 111 135 132 68 18 0 -3 -4 -4 -4 -4 -4 -4 -4 -4 -4 -4 -3 0 13 56 109 78 23 1 -3 -3 -2 2 21 65 109 86 33 6 0 4 32 94 
94 32 4 -2 -4 -4 -4 -4 -4 -4 -4 -4 -4 -4 -2 7 40 100 89 30 8 16 56 107 86 32 5 -2 -4 -4 -4 -4 -4 -4 -4 -4 -4 -4 -4 -4 -4 -4 -4 -4 -3 -2 0 6 21 50 86 109 101 65 34 15 7 4 4 4 7 13 23 29 32 32 34 40 56 78 92 108 135 132 68 19 1 -3 -4 -4 -4 -4 -4 -4 -4 -4 -4 -4 -3 2 23 78 109 56 13 0 -3 -3 0 13 50 101 101 50 13 0 -2 4 32 94 
94 32 4 -2 -4 -4 -4 -4 -4 -4 -4 -4 -4 -4 -2 4 33 94 95 36 15 36 87 107 56 14 0 -3 -4 -4 -4 -4 -4 -4 -4 -4 -4 -4 -4 -4 -4 -4 -4 -3 -2 2 13 33 65 101 109 86 50 21 6 0 -1 -2 -2 -2 -2 0 1 3 4 4 4 7 13 23 32 45 77 116 90 35 7 0 -3 -3 -4 -4 -4 -4 -4 -4 -4 -3 -2 4 31 91 99 40 7 -2 -3 -1 6 33 86 109 65 21 2 -2 -2 4 32 94 
94 32 4 -2 -4 -4 -4 -4 -4 -4 -4 -4 -4 -4 -2 3 30 89 101 47 32 67 109 85 31 5 -2 -4 -4 -4 -4 -4 -4 -4 -4 -4 -4 -4 -4 -4 -4 -4 -3 -1 4 19 50 86 109 101 65 33 13 2 -1 -3 -4 -4 -4 -4 -4 -3 -3 -3 -2 -2 -2 -2 0 2 5 12 36 87 110 67 26 7 0 -1 -2 -2 -2 -2 -2 -2 -2 -2 0 8 41 100 91 31 4 -2 -2 2 21 65 109 86 33 6 -1 -3 -2 4 32 94 
94 32 4 -2 -4 -4 -4 -4 -4 -4 -4 -4 -4 -4 -3 1 23 77 111 72 67 104 102 50 13 0 -3 -4 -4 -4 -4 -4 -4 -4 -4 -4 -4 -4 -4 -4 -3 -2 0 7 24 59 100 109 86 50 21 6 0 -2 -3 -4 -4 -4 -4 -4 -4 -4 -4 -4 -4 -4 -4 -4 -3 -3 -2 0 14 51 103 109 69 35 16 7 5 4 4 4 4 4 4 4 7 21 62 112 80 25 2 -2 0 13 50 101 101 50 13 0 -3 -4 -2 4 32 94 
94 32 4 -2 -4 -4 -4 -4 -4 -4 -4 -4 -4 -4 -3 0 13 56 113 107 107 112 65 21 2 -2 -4 -4 -4 -4 -4 -4 -4 -4 -4 -4 -4 -4 -4 -3 -1 2 13 34 66 104 104 66 34 13 2 -1 -3 -4 -4 -4 -4 -4 -4 -4 -4 -4 -4 -4 -4 -4 -4 -4 -4 -4 -3 -2 2 22 69 126 129 93 59 41 34 33 32 32 32 32 32 33 38 56 101 124 69 22 4 0 7 34 86 109 65 21 2 -2 -4 -4 -2 4 32 94 
94 32 4 -2 -4 -4 -4 -4 -4 -4 -4 -4 -4 -4 -4 -2 7 40 106 134 128 89 34 6 -1 -3 -4 -4 -4 -4 -4 -4 -4 -4 -4 -4 -4 -3 -2 0 6 21 50 86 109 100 59 24 7 0 -2 -3 -4 -4 -4 -4 -4 -4 -4 -4 -4 -4 -4 -4 -4 -4 -4 -4 -4 -4 -4 -3 -1 9 46 115 148 128 113 101 95 94 94 94 94 94 94 94 98 112 141 140 85 40 17 12 25 66 109 86 33 6 -1 -3 -4 -4 -2 4 32 94 
94 32 4 -2 -4 -4 -4 -4 -4 -4 -4 -4 -4 -4 -4 -2 4 34 103 149 120 56 15 0 -3 -4 -4 -4 -4 -4 -4 -4 -4 -4 -4 -4 -3 -1 2 13 33 65 101 109 86 50 19 4 -1 -3 -4 -4 -4 -4 -4 -4 -4 -4 -4 -4 -4 -4 -4 -4 -4 -4 -4 -4 -4 -4 -4 -3 -1 8 43 107 116 84 83 90 93 94 94 94 94 94 94 94 95 99 112 125 116 89 60 46 64 105 103 51 13 0 -3 -4 -4 -4 -2 4 32 94 
94 32 4 -2 -4 -4 -4 -4 -4 -4 -4 -4 -4 -4 -4 -2 4 32 102 146 92 31 5 -2 -4 -4 -4 -4 -4 -4 -4 -4 -4 -4 -3 -2 0 6 21 50 86 109 101 65 34 13 2 -2 -3 -4 -4 -4 -4 -4 -4 -4 -4 -4 -4 -4 -4 -4 -4 -4 -4 -4 -4 -4 -4 -4 -4 -3 0 13 56 111 85 40 29 30 32 32 32 32 32 32 32 32 33 34 41 59 88 108 111 107 119 122 70 23 3 -2 -4 -4 -4 -4 -2 4 32 94 
94 32 4 -2 -4 -4 -4 -4 -4 -4 -4 -4 -4 -4 -4 -2 4 32 99 124 60 15 0 -3 -4 -4 -4 -4 -4 -4 -4 -4 -3 -3 -1 2 13 33 65 103 110 87 52 22 7 0 -2 -3 -4 -4 -4 -4 -4 -4 -4 -4 -4 -4 -4 -4 -4 -4 -4 -4 -4 -4 -4 -4 -4 -4 -4 -3 1 23 77 109 57 17 5 4 4 4 4 4 4 4 4 4 4 4 7 15 32 56 89 121 149 123 55 14 0 -3 -4 -4 -4 -4 -2 4 32 94 
94 32 4 -2 -4 -4 -4 -4 -4 -4 -4 -4 -4 -4 -4 -2 4 33 96 104 41 7 -2 -4 -4 -4 -4 -4 -4 -4 -3 -2 0 2 8 21 51 90 119 114 75 42 21 8 1 -1 -2 -3 -3 -4 -4 -4 -4 -4 -4 -4 -4 -4 -4 -4 -4 -4 -4 -4 -4 -4 -4 -4 -4 -4 -4 -3 3 29 89 100 40 7 -1 -2 -2 -2 -2 -2 -2 -2 -2 -2 -2 -2 -2 0 5 15 34 68 118 125 71 23 3 -2 -4 -4 -4 -4 -2 4 32 94 
94 32 4 -2 -4 -4 -4 -4 -4 -4 -4 -4 -4 -4 -4 -2 4 34 96 95 33 4 -2 -4 -4 -4 -4 -4 -3 -2 0 4 13 25 40 68 112 145 143 105 65 44 34 24 13 7 4 1 0 -2 -2 -2 -3 -3 -4 -4 -4 -4 -4 -4 -4 -4 -4 -4 -4 -4 -4 -4 -4 -4 -4 -2 4 32 93 95 34 5 -2 -3 -4 -4 -4 -4 -4 -4 -4 -4 -4 -4 -4 -3 -2 0 7 24 62 108 103 51 13 0 -3 -4 -4 -4 -2 4 32 94 
94 32 4 -2 -4 -4 -4 -4 -4 -4 -4 -4 -4 -4 -4 -2 7 40 100 89 30 3 -2 -4 -4 -3 -3 -2 0 5 14 31 53 79 98 114 121 120 124 120 105 96 90 77 56 39 31 23 13 7 4 3 1 0 -2 -2 -3 -3 -4 -4 -4 -4 -4 -4 -4 -4 -4 -4 -4 -4 -4 -2 4 34 95 93 32 4 -2 -4 -4 -4 -4 -4 -4 -4 -4 -4 -4 -4 -4 -4 -4 -3 -1 5 24 66 109 86 33 6 -1 -3 -4 -4 -2 4 32 94 
94 32 4 -2 -4 -4 -4 -4 -4 -4 -4 -4 -4 -4 -3 0 13 56 109 77 23 1 -2 -3 -2 0 2 6 15 32 56 86 107 109 97 80 59 48 58 78 89 94 100 109 109 99 91 78 56 40 33 30 23 13 7 4 1 0 -2 -2 -2 -3 -3 -4 -4 -4 -4 -4 -4 -4 -4 -2 7 40 100 89 29 3 -3 -4 -4 -4 -4 -4 -4 -4 -4 -4 -4 -4 -4 -4 -4 -4 -3 -1 7 34 86 109 65 21 2 -2 -4 -4 -2 4 32 94 
94 32 4 -2 -4 -4 -4 -4 -4 -4 -4 -4 -4 -4 -3 1 23 77 109 56 13 0 -1 0 4 13 25 38 58 86 107 107 86 58 38 25 14 10 14 23 30 33 40 56 78 91 99 109 109 100 94 89 77 56 39 31 23 13 7 4 3 1 0 -2 -2 -3 -3 -4 -4 -4 -3 0 13 56 109 77 23 1 -3 -4 -4 -4 -4 -4 -4 -4 -4 -4 -4 -4 -4 -4 -4 -4 -4 -3 0 13 50 101 101 50 13 0 -3 -4 -2 4 32 94 
94 32 4 -2 -4 -4 -4 -4 -4 -4 -4 -4 -4 -4 -2 3 30 89 100 41 9 2 5 14 31 53 79 96 109 107 86 56 32 15 6 2 0 -1 0 1 3 4 7 13 23 31 39 56 77 89 94 100 109 109 99 91 78 56 40 33 30 23 13 7 4 1 0 -2 -2 -2 -2 2 23 77 109 56 13 0 -3 -4 -4 -4 -4 -4 -4 -4 -4 -4 -4 -4 -4 -4 -4 -4 -4 -4 -2 2 21 65 109 86 34 7 -1 -3 -2 4 32 94 
94 32 4 -2 -4 -4 -4 -4 -4 -4 -4 -4 -4 -4 -2 4 33 95 96 38 14 16 32 56 86 107 109 96 79 53 31 14 5 0 -2 -3 -3 -3 -3 -3 -2 -2 -2 0 1 4 7 13 23 30 33 40 56 78 91 99 109 109 100 94 89 77 56 39 31 23 13 7 4 3 3 7 31 90 100 40 7 -2 -4 -4 -4 -4 -4 -4 -4 -4 -4 -4 -4 -4 -4 -4 -4 -4 -4 -4 -3 -1 6 33 86 109 66 24 4 -2 -2 4 32 94 
94 32 4 -2 -4 -4 -4 -4 -4 -4 -4 -4 -4 -4 -2 7 41 102 98 49 39 57 86 107 107 86 58 38 25 13 4 0 -2 -3 -4 -4 -4 -4 -4 -4 -4 -4 -4 -3 -3 -2 -2 0 1 3 4 7 13 23 31 39 56 77 89 94 100 109 109 99 91 78 56 40 33 30 24 21 42 98 96 34 4 -2 -4 -4 -4 -4 -4 -4 -4 -4 -4 -4 -4 -4 -4 -4 -4 -4 -4 -4 -4 -3 0 13 50 100 104 59 20 2 -1 4 32 94 
94 32 4 -2 -4 -4 -4 -4 -4 -4 -4 -4 -4 -3 0 15 59 121 113 83 92 108 107 86 56 32 15 6 2 0 -2 -3 -4 -4 -4 -4 -4 -4 -4 -4 -4 -4 -4 -4 -4 -4 -4 -3 -3 -2 -2 -2 0 1 4 7 13 23 30 33 40 56 78 91 99 109 109 100 94 89 78 63 72 115 97 33 4 -2 -4 -4 -4 -4 -4 -4 -4 -4 -4 -4 -4 -4 -4 -4 -4 -4 -4 -4 -4 -4 -2 2 19 59 104 100 50 13 1 5 32 94 
94 32 4 -2 -4 -4 -4 -4 -4 -4 -4 -4 -4 -2 5 32 93 147 136 120 108 86 56 31 14 5 0 -2 -3 -3 -4 -4 -4 -4 -4 -4 -4 -4 -4 -4 -4 -4 -4 -4 -4 -4 -4 -4 -4 -4 -4 -4 -3 -3 -2 -2 0 1 3 4 7 13 23 31 39 56 77 89 94 100 110 114 123 144 101 32 4 -2 -4 -4 -4 -4 -4 -4 -4 -4 -4 -4 -4 -4 -4 -4 -4 -4 -4 -4 -4 -4 -3 -2 4 24 66 109 86 34 8 7 33 94 
94 32 4 -2 -4 -4 -4 -4 -4 -4 -4 -4 -3 0 15 57 118 132 106 81 54 31 14 5 0 -2 -3 -4 -4 -4 -4 -4 -4 -4 -4 -4 -4 -4 -4 -4 -4 -4 -4 -4 -4 -4 -4 -4 -4 -4 -4 -4 -4 -4 -4 -4 -3 -3 -2 -2 -2 0 1 4 7 13 23 30 33 40 57 83 112 143 101 32 4 -2 -4 -4 -4 -4 -4 -4 -4 -4 -4 -4 -4 -4 -4 -4 -4 -4 -4 -4 -4 -4 -4 -3 -1 7 34 86 109 66 25 12 34 94 
94 32 4 -2 -4 -4 -4 -4 -4 -4 -4 -3 -1 6 34 88 114 76 43 26 13 4 0 -2 -3 -4 -4 -4 -4 -4 -4 -4 -4 -4 -4 -4 -4 -4 -4 -4 -4 -4 -4 -4 -4 -4 -4 -4 -4 -4 -4 -4 -4 -4 -4 -4 -4 -4 -4 -4 -4 -3 -3 -2 -2 0 1 3 4 7 14 31 62 113 97 32 4 -2 -4 -4 -4 -4 -4 -4 -4 -4 -4 -4 -4 -4 -4 -4 -4 -4 -4 -4 -4 -4 -4 -4 -3 0 13 50 100 104 61 28 39 95 
94 32 4 -2 -4 -4 -4 -4 -4 -4 -4 -2 2 21 65 109 87 36 11 3 0 -2 -3 -4 -4 -4 -4 -4 -4 -4 -4 -4 -4 -4 -4 -4 -4 -4 -4 -4 -4 -4 -4 -4 -4 -4 -4 -4 -4 -4 -4 -4 -4 -4 -4 -4 -4 -4 -4 -4 -4 -4 -4 -4 -4 -3 -3 -2 -2 -1 0 10 39 98 94 32 4 -2 -4 -4 -4 -4 -4 -4 -4 -4 -4 -4 -4 -4 -4 -4 -4 -4 -4 -4 -4 -4 -4 -4 -4 -2 2 19 59 104 101 58 49 97 
94 32 4 -2 -4 -4 -4 -4 -4 -4 -3 0 13 50 101 101 50 14 0 -2 -3 -4 -4 -4 -4 -4 -4 -4 -4 -4 -4 -4 -4 -4 -4 -4 -4 -4 -4 -4 -4 -4 -4 -4 -4 -4 -4 -4 -4 -4 -4 -4 -4 -4 -4 -4 -4 -4 -4 -4 -4 -4 -4 -4 -4 -4 -4 -4 -4 -3 -2 5 33 94 94 33 4 -2 -4 -4 -4 -4 -4 -4 -4 -4 -4 -4 -4 -4 -4 -4 -4 -4 -4 -4 -4 -4 -4 -4 -4 -3 -2 4 24 66 109 93 69 102 
96 32 4 -2 -4 -4 -4 -4 -4 -3 -1 7 34 86 109 65 21 2 -2 -3 -4 -4 -4 -4 -4 -4 -4 -4 -4 -4 -4 -4 -4 -4 -4 -4 -4 -4 -4 -4 -4 -4 -4 -4 -4 -4 -4 -4 -4 -4 -4 -4 -4 -4 -4 -4 -4 -4 -4 -4 -4 -4 -4 -4 -4 -4 -4 -4 -4 -4 -2 4 32 94 96 35 5 -2 -4 -4 -4 -4 -4 -4 -4 -4 -4 -4 -4 -4 -4 -4 -4 -4 -4 -4 -4 -4 -4 -4 -4 -4 -3 -1 7 34 86 114 97 114 
98 32 4 -2 -4 -4 -4 -4 -3 -1 4 24 66 109 87 35 7 -1 -3 -4 -4 -4 -4 -4 -4 -4 -4 -4 -4 -4 -4 -4 -4 -4 -4 -4 -4 -4 -4 -4 -4 -4 -4 -4 -4 -4 -4 -4 -4 -4 -4 -4 -4 -4 -4 -4 -4 -4 -4 -4 -4 -4 -4 -4 -4 -4 -4 -4 -4 -3 -2 5 33 94 104 44 10 0 -3 -4 -4 -4 -4 -4 -4 -4 -4 -4 -4 -4 -4 -4 -4 -4 -4 -4 -4 -4 -4 -4 -4 -4 -4 -3 0 13 50 104 127 133 
100 32 4 -2 -4 -4 -4 -3 -2 4 22 61 107 107 58 21 6 0 -2 -2 -2 -2 -2 -2 -2 -2 -2 -3 -3 -3 -4 -4 -4 -4 -4 -4 -4 -4 -4 -4 -4 -4 -4 -4 -4 -4 -4 -4 -4 -4 -4 -4 -4 -4 -4 -4 -4 -4 -4 -4 -4 -4 -4 -4 -4 -4 -4 -4 -3 -2 0 10 39 99 124 72 27 7 0 -2 -3 -4 -4 -4 -4 -4 -4 -4 -4 -4 -4 -4 -4 -4 -4 -4 -4 -4 -4 -4 -4 -4 -4 -4 -2 2 21 65 123 149 
102 32 4 -2 -4 -4 -3 -2 4 22 62 113 128 92 55 36 24 13 7 4 4 4 4 4 4 4 4 3 1 0 -2 -2 -2 -2 -2 -2 -2 -2 -3 -3 -3 -4 -4 -4 -4 -4 -4 -4 -4 -4 -4 -4 -4 -4 -4 -4 -4 -4 -4 -4 -4 -4 -4 -4 -4 -4 -4 -3 -1 2 13 34 67 119 149 119 68 34 15 5 0 -2 -3 -4 -4 -4 -4 -4 -4 -4 -4 -4 -4 -4 -4 -4 -4 -4 -4 -4 -4 -4 -4 -4 -3 -1 6 34 93 146 
99 32 4 -2 -4 -3 -2 4 22 61 115 149 139 114 99 90 77 56 40 34 33 32 32 32 32 32 32 29 23 13 7 4 4 4 4 4 4 4 3 1 0 -2 -2 -2 -2 -2 -2 -2 -2 -2 -3 -3 -3 -4 -4 -4 -4 -4 -4 -4 -4 -4 -4 -4 -4 -3 -2 0 6 21 50 85 111 120 121 123 113 88 56 31 13 2 -1 -3 -4 -4 -4 -4 -4 -4 -4 -4 -4 -4 -4 -4 -4 -4 -4 -4 -4 -4 -4 -4 -4 -3 0 15 60 124 
96 32 4 -2 -3 -1 4 22 60 106 123 113 102 97 96 100 109 109 100 95 94 94 94 94 94 93 93 89 77 56 40 34 33 32 32 32 32 32 29 23 13 7 4 4 4 4 4 4 4 4 3 1 0 -2 -2 -2 -2 -2 -2 -2 -2 -2 -3 -3 -2 0 5 15 34 65 101 109 88 61 50 61 88 108 107 85 50 21 6 0 -2 -3 -4 -4 -4 -4 -4 -4 -4 -4 -4 -4 -4 -4 -4 -4 -4 -4 -4 -4 -4 -4 -2 7 41 104 
94 32 4 -1 -1 4 22 60 103 105 70 44 35 33 34 40 56 77 89 93 93 94 94 94 94 94 95 100 109 109 100 95 94 94 94 94 93 93 89 77 56 40 34 33 32 32 32 32 32 32 29 23 13 7 4 4 4 4 4 4 4 3 2 0 3 13 31 56 87 109 101 65 34 16 10 16 32 56 87 109 101 65 34 15 5 0 -2 -3 -4 -4 -4 -4 -4 -4 -4 -4 -4 -4 -4 -4 -4 -4 -4 -4 -4 -4 -2 4 34 96 
94 33 5 1 7 24 61 103 103 61 25 9 5 4 4 7 13 23 29 32 32 32 32 32 32 33 34 40 56 77 89 93 93 94 94 94 94 95 100 109 109 100 95 94 94 94 94 94 93 93 89 77 56 40 34 33 32 32 32 32 32 29 24 18 25 51 85 107 107 85 50 21 6 0 -1 0 5 15 34 65 101 109 87 56 31 13 2 -1 -3 -4 -4 -4 -4 -4 -4 -4 -4 -4 -4 -4 -4 -4 -4 -4 -4 -4 -2 4 33 94 
94 34 10 15 34 66 104 103 60 22 4 -1 -2 -2 -2 -2 0 1 3 4 4 4 4 4 4 4 4 7 13 23 29 32 32 32 32 32 33 34 40 56 77 89 93 93 94 94 94 94 94 95 100 109 109 100 95 94 94 94 94 93 93 89 80 67 76 104 109 87 56 31 13 2 -1 -3 -3 -3 -2 0 6 21 50 85 107 107 85 50 21 6 0 -2 -3 -4 -4 -4 -4 -4 -4 -4 -4 -4 -4 -4 -4 -4 -4 -4 -2 4 32 94 
96 40 28 51 86 109 100 59 22 4 -1 -3 -4 -4 -4 -4 -3 -3 -3 -2 -2 -2 -2 -2 -2 -2 -2 -2 0 1 3 4 4 4 4 4 4 4 7 13 23 29 32 32 32 32 32 32 33 34 40 56 77 89 93 93 94 94 94 94 96 103 118 133 134 111 67 35 15 5 0 -2 -3 -4 -4 -4 -4 -3 -1 2 13 31 56 87 109 101 65 34 15 5 0 -2 -3 -4 -4 -4 -4 -4 -4 -4 -4 -4 -4 -4 -4 -4 -2 4 32 94 
101 58 67 101 109 86 50 19 3 -2 -3 -4 -4 -4 -4 -4 -4 -4 -4 -4 -4 -4 -4 -4 -4 -4 -4 -4 -3 -3 -3 -2 -2 -2 -2 -2 -2 -2 -2 0 1 3 4 4 4 4 4 4 4 4 7 13 23 29 32 32 32 32 32 33 35 46 80 135 134 72 27 7 0 -2 -3 -4 -4 -4 -4 -4 -4 -4 -3 -2 0 5 15 34 65 101 109 87 56 31 13 2 -1 -3 -4 -4 -4 -4 -4 -4 -4 -4 -4 -4 -4 -4 -2 4 32 94 
115 94 109 105 66 34 13 2 -2 -3 -4 -4 -4 -4 -4 -4 -4 -4 -4 -4 -4 -4 -4 -4 -4 -4 -4 -4 -4 -4 -4 -4 -4 -4 -4 -4 -4 -4 -4 -3 -3 -3 -2 -2 -2 -2 -2 -2 -2 -2 -2 0 1 3 4 4 4 4 4 4 6 15 46 109 109 44 10 0 -3 -4 -4 -4 -4 -4 -4 -4 -4 -4 -4 -4 -3 -2 0 6 21 50 85 107 107 85 50 21 6 0 -2 -3 -4 -4 -4 -4 -4 -4 -4 -4 -4 -4 -2 4 32 96 
138 128 106 61 24 7 0 -2 -4 -4 -4 -4 -4 -4 -4 -4 -4 -4 -4 -4 -4 -4 -4 -4 -4 -4 -4 -4 -4 -4 -4 -4 -4 -4 -4 -4 -4 -4 -4 -4 -4 -4 -4 -4 -4 -4 -4 -4 -4 -4 -4 -3 -3 -3 -2 -2 -2 -2 -2 -2 -1 6 35 97 97 35 5 -2 -4 -4 -4 -4 -4 -4 -4 -4 -4 -4 -4 -4 -4 -4 -3 -1 2 13 31 56 87 109 101 65 34 15 5 0 -2 -3 -4 -4 -4 -4 -4 -4 -4 -4 -2 4 32 99 
150 116 62 23 4 -1 -3 -4 -4 -4 -4 -4 -4 -4 -4 -4 -4 -4 -4 -4 -4 -4 -4 -4 -4 -4 -4 -4 -4 -4 -4 -4 -4 -4 -4 -4 -4 -4 -4 -4 -4 -4 -4 -4 -4 -4 -4 -4 -4 -4 -4 -4 -4 -4 -4 -4 -4 -4 -4 -3 -2 4 33 94 94 33 4 -2 -4 -4 -4 -4 -4 -4 -4 -4 -4 -4 -4 -4 -4 -4 -4 -3 -2 0 5 15 34 65 101 109 87 56 32 14 5 0 -2 -3 -4 -4 -4 -4 -4 -4 -2 4 32 102 
129 71 25 4 -1 -3 -4 -4 -4 -4 -4 -4 -4 -4 -4 -4 -4 -4 -4 -4 -4 -4 -4 -4 -4 -4 -4 -4 -4 -4 -4 -4 -4 -4 -4 -4 -4 -4 -4 -4 -4 -4 -4 -4 -4 -4 -4 -4 -4 -4 -4 -4 -4 -4 -4 -4 -4 -4 -4 -4 -2 4 32 94 94 32 4 -2 -4 -4 -4 -4 -4 -4 -4 -4 -4 -4 -4 -4 -4 -4 -4 -4 -4 -3 -2 0 6 21 50 85 107 107 86 56 31 13 2 -1 -3 -4 -4 -4 -4 -4 -2 4 32 100 
106 44 9 -1 -3 -4 -4 -4 -4 -4 -4 -4 -4 -4 -4 -4 -4 -4 -4 -4 -4 -4 -4 -4 -4 -4 -4 -4 -4 -4 -4 -4 -4 -4 -4 -4 -4 -4 -4 -4 -4 -4 -4 -4 -4 -4 -4 -4 -4 -4 -4 -4 -4 -4 -4 -4 -4 -4 -4 -4 -2 4 32 94 94 32 4 -2 -4 -4 -4 -4 -4 -4 -4 -4 -4 -4 -4 -4 -4 -4 -4 -4 -4 -4 -4 -3 -1 2 13 31 56 86 107 107 85 50 21 6 0 -2 -2 -3 -3 -3 -2 4 32 96 
97 35 5 -2 -4 -4 -4 -4 -4 -4 -4 -4 -4 -4 -4 -4 -4 -4 -4 -4 -4 -4 -4 -4 -4 -4 -4 -4 -4 -4 -4 -4 -4 -4 -4 -4 -4 -4 -4 -4 -4 -4 -4 -4 -4 -4 -4 -4 -4 -4 -4 -4 -4 -4 -4 -4 -4 -4 -4 -4 -2 4 32 94 94 32 4 -2 -4 -4 -4 -4 -4 -4 -4 -4 -4 -4 -4 -4 -4 -4 -4 -4 -4 -4 -4 -4 -3 -2 0 5 14 32 56 87 109 102 65 34 15 7 4 1 0 -1 -1 5 33 94 
94 33 4 -2 -4 -4 -4 -4 -4 -4 -4 -4 -4 -4 -4 -4 -4 -4 -4 -4 -4 -4 -4 -4 -4 -4 -4 -4 -4 -4 -4 -4 -4 -4 -4 -4 -4 -4 -4 -4 -4 -4 -4 -4 -4 -4 -4 -4 -4 -4 -4 -4 -4 -4 -4 -4 -4 -4 -4 -4 -2 4 32 94 94 32 4 -2 -4 -4 -4 -4 -4 -4 -4 -4 -4 -4 -4 -4 -4 -4 -4 -4 -4 -4 -4 -4 -4 -4 -3 -2 0 5 16 36 69 108 116 92 60 40 31 23 13 7 5 10 36 95 
95 32 4 -2 -3 -4 -4 -4 -4 -4 -4 -4 -4 -4 -4 -4 -4 -4 -4 -4 -4 -4 -4 -4 -4 -4 -4 -4 -4 -4 -4 -4 -4 -4 -4 -4 -4 -4 -4 -4 -4 -4 -4 -4 -4 -4 -4 -4 -4 -4 -4 -4 -4 -4 -4 -4 -4 -4 -4 -4 -2 4 32 94 94 32 4 -2 -4 -4 -4 -4 -4 -4 -4 -4 -4 -4 -4 -4 -4 -4 -4 -4 -4 -4 -4 -4 -4 -4 -3 -3 -1 1 7 18 41 84 130 147 126 104 91 78 56 40 33 32 49 101 
98 34 5 -1 -2 -2 -2 -3 -3 -3 -4 -4 -4 -4 -4 -4 -4 -4 -4 -4 -4 -4 -4 -4 -4 -4 -4 -4 -4 -4 -4 -4 -4 -4 -4 -4 -4 -4 -4 -4 -4 -4 -4 -4 -4 -4 -4 -4 -4 -4 -4 -4 -4 -4 -4 -4 -4 -4 -4 -4 -2 4 32 94 94 32 4 -2 -4 -4 -4 -4 -4 -4 -4 -4 -4 -4 -4 -4 -4 -4 -4 -4 -4 -4 -4 -4 -3 -3 -2 0 5 13 26 40 64 101 129 128 111 100 101 109 109 99 92 85 87 120 
107 40 12 5 4 4 4 3 1 0 -2 -2 -2 -2 -2 -3 -3 -3 -4 -4 -4 -4 -4 -4 -4 -4 -4 -4 -4 -4 -4 -4 -4 -4 -4 -4 -4 -4 -4 -4 -4 -4 -4 -4 -4 -4 -4 -4 -4 -4 -4 -4 -4 -4 -4 -4 -4 -4 -4 -4 -2 4 32 94 94 32 4 -2 -4 -4 -4 -4 -4 -4 -4 -4 -4 -4 -4 -4 -4 -4 -4 -4 -4 -4 -3 -2 0 2 6 15 31 53 79 97 110 109 88 60 41 36 41 56 78 91 100 113 130 149 
122 65 40 34 32 32 32 29 23 13 7 4 4 4 4 3 1 0 -2 -2 -2 -2 -2 -2 -3 -3 -3 -4 -4 -4 -4 -4 -4 -4 -4 -4 -4 -4 -4 -4 -4 -4 -4 -4 -4 -4 -4 -4 -4 -4 -4 -4 -4 -4 -4 -4 -4 -4 -4 -4 -2 4 32 94 94 32 4 -2 -4 -4 -4 -4 -4 -4 -4 -4 -4 -4 -4 -4 -4 -4 -4 -3 -3 -2 0 4 13 25 38 58 86 107 109 96 79 53 31 15 7 5 7 13 23 31 41 62 101 144 
147 117 99 95 94 94 93 89 77 56 40 34 33 32 32 29 23 13 7 4 4 4 4 4 3 1 0 -2 -2 -2 -2 -2 -3 -3 -3 -4 -4 -4 -4 -4 -4 -4 -4 -4 -4 -4 -4 -4 -4 -4 -4 -4 -4 -4 -4 -4 -4 -4 -4 -4 -2 4 32 94 94 32 4 -2 -4 -4 -4 -4 -4 -4 -4 -4 -4 -4 -4 -4 -4 -3 -2 0 2 6 15 31 53 79 96 109 107 86 58 38 25 13 4 0 -2 -2 -2 0 2 4 8 21 56 120 
144 117 99 95 94 94 95 100 109 109 100 95 94 94 93 89 77 56 40 34 33 32 32 32 29 23 13 7 4 4 4 4 3 1 0 -2 -2 -2 -2 -2 -2 -3 -3 -3 -4 -4 -4 -4 -4 -4 -4 -4 -4 -4 -4 -4 -4 -4 -4 -4 -2 4 32 94 94 32 4 -2 -4 -4 -4 -4 -4 -4 -4 -4 -4 -4 -4 -3 -2 0 4 13 25 38 58 86 107 109 96 79 53 31 15 6 2 0 -2 -3 -4 -4 -4 -3 -3 -2 0 7 38 106 
114 65 40 34 33 33 34 40 56 77 89 93 94 94 95 100 109 109 100 95 94 94 93 93 89 77 56 40 34 33 32 32 29 23 13 7 4 4 4 4 4 3 1 0 -2 -2 -2 -2 -2 -3 -3 -3 -4 -4 -4 -4 -4 -4 -4 -4 -2 4 32 94 94 32 4 -2 -4 -4 -4 -4 -4 -4 -4 -4 -3 -3 -2 0 5 14 31 53 79 96 109 107 86 58 38 25 13 4 0 -2 -3 -3 -4 -4 -4 -4 -4 -4 -4 -3 -2 4 33 98 
99 40 12 5 4 4 4 7 13 23 29 32 32 33 34 40 56 77 89 93 93 94 94 95 100 109 109 100 95 94 94 93 89 77 56 40 34 33 32 32 32 29 23 13 7 4 4 4 4 3 1 0 -2 -2 -2 -2 -2 -2 -2 -3 -2 4 32 94 94 32 4 -2 -4 -4 -4 -4 -4 -4 -3 -2 0 2 6 15 32 56 86 107 109 96 79 53 31 15 6 2 0 -2 -3 -4 -4 -4 -4 -4 -4 -4 -4 -4 -4 -4 -2 4 32 95 
95 34 5 -1 -2 -2 -2 -2 0 1 3 4 4 4 4 7 13 23 29 32 32 32 33 34 40 56 77 89 93 94 94 95 100 109 109 100 95 94 94 93 93 89 77 56 40 34 33 32 32 29 23 13 7 4 4 4 4 4 3 2 0 6 34 95 94 33 4 -2 -4 -4 -4 -3 -3 -2 0 4 13 25 38 58 86 107 107 86 58 38 25 13 4 0 -2 -3 -3 -4 -4 -4 -4 -4 -4 -4 -4 -4 -4 -4 -4 -4 -2 4 32 94 
94 32 4 -2 -3 -4 -4 -4 -3 -3 -3 -2 -2 -2 -2 -2 0 1 3 4 4 4 4 4 7 13 23 29 32 32 33 34 40 56 77 89 93 93 94 94 95 100 109 109 100 95 94 94 93 89 77 56 40 34 33 32 32 32 29 23 14 15 41 99 97 35 5 -2 -3 -3 -2 0 2 6 15 31 53 79 96 109 107 86 56 32 15 6 2 0 -2 -3 -4 -4 -4 -4 -4 -4 -4 -4 -4 -4 -4 -4 -4 -4 -4 -4 -2 4 32 94 
94 32 4 -2 -4 -4 -4 -4 -4 -4 -4 -4 -4 -4 -4 -4 -3 -3 -3 -2 -2 -2 -2 -2 -2 0 1 3 4 4 4 4 7 13 23 29 32 32 32 33 34 40 56 77 89 93 94 94 95 100 109 109 100 95 94 94 93 93 89 77 57 48 67 116 109 44 10 0 -1 0 4 13 25 38 58 86 107 109 96 79 53 31 14 5 0 -2 -3 -3 -4 -4 -4 -4 -4 -4 -4 -4 -4 -4 -4 -4 -4 -4 -4 -4 -4 -4 -2 4 32 94 
94 32 4 -2 -4 -4 -4 -4 -4 -4 -4 -4 -4 -4 -4 -4 -4 -4 -4 -4 -4 -4 -4 -4 -4 -3 -3 -3 -2 -2 -2 -2 -2 0 1 3 4 4 4 4 4 7 13 23 29 32 32 33 34 40 56 77 89 93 93 94 94 95 100 109 109 105 116 145 134 72 27 10 8 15 31 53 79 96 109 107 86 58 38 25 13 4 0 -2 -3 -4 -4 -4 -4 -4 -4 -4 -4 -4 -4 -4 -4 -4 -4 -4 -4 -4 -4 -4 -4 -4 -2 4 32 94 
94 32 4 -2 -4 -4 -4 -4 -4 -4 -4 -4 -4 -4 -4 -4 -4 -4 -4 -4 -4 -4 -4 -4 -4 -4 -4 -4 -4 -4 -4 -4 -4 -3 -3 -3 -2 -2 -2 -2 -2 -2 0 1 3 4 4 4 4 7 13 23 29 32 32 32 33 34 40 56 77 90 99 113 127 111 71 46 43 59 86 107 109 96 79 53 31 15 6 2 0 -2 -3 -4 -4 -4 -4 -4 -4 -4 -4 -4 -4 -4 -4 -4 -4 -4 -4 -4 -4 -4 -4 -4 -4 -4 -2 4 32 94 
94 32 4 -2 -4 -4 -4 -4 -4 -4 -4 -4 -4 -4 -4 -4 -4 -4 -4 -4 -4 -4 -4 -4 -4 -4 -4 -4 -4 -4 -4 -4 -4 -4 -4 -4 -4 -4 -4 -4 -4 -4 -3 -3 -3 -2 -2 -2 -2 -2 0 1 3 4 4 4 4 4 7 13 23 30 34 44 71 111 127 115 107 111 107 86 58 38 25 13 4 0 -2 -3 -3 -4 -4 -4 -4 -4 -4 -4 -4 -4 -4 -4 -4 -4 -4 -4 -4 -4 -4 -4 -4 -4 -4 -4 -4 -4 -2 4 32 94 
94 32 4 -2 -4 -4 -4 -4 -4 -4 -4 -4 -4 -4 -4 -4 -4 -4 -4 -4 -4 -4 -4 -4 -4 -4 -4 -4 -4 -4 -4 -4 -4 -4 -4 -4 -4 -4 -4 -4 -4 -4 -4 -4 -4 -4 -4 -4 -4 -4 -3 -3 -2 -2 -2 -2 -2 -2 -2 0 1 3 5 10 27 72 134 144 110 82 54 31 15 6 2 0 -2 -3 -4 -4 -4 -4 -4 -4 -4 -4 -4 -4 -4 -4 -4 -4 -4 -4 -4 -4 -4 -4 -4 -4 -4 -4 -4 -4 -4 -4 -2 4 32 94 
94 32 4 -2 -3 -4 -4 -4 -4 -4 -4 -4 -4 -4 -4 -4 -4 -4 -4 -4 -4 -4 -4 -4 -4 -4 -4 -4 -4 -4 -4 -4 -4 -4 -4 -4 -4 -4 -4 -4 -4 -4 -4 -4 -4 -4 -4 -4 -4 -4 -4 -4 -3 -3 -3 -3 -3 -3 -3 -3 -3 -2 -2 0 10 44 109 116 62 31 14 5 0 -1 -2 -3 -3 -4 -4 -4 -4 -4 -4 -4 -4 -4 -4 -4 -4 -4 -4 -4 -4 -4 -4 -4 -4 -4 -4 -4 -4 -4 -4 -4 -4 -3 -2 4 32 94 
95 34 5 -1 -2 -2 -2 -2 -2 -2 -2 -2 -2 -2 -2 -2 -2 -2 -2 -2 -2 -2 -2 -2 -2 -2 -2 -2 -2 -2 -2 -2 -2 -2 -2 -2 -2 -2 -2 -2 -2 -2 -2 -2 -2 -2 -2 -2 -2 -2 -2 -2 -2 -2 -2 -2 -2 -2 -2 -2 -2 -2 -2 0 6 36 98 100 41 11 2 0 -2 -2 -2 -2 -2 -2 -2 -2 -2 -2 -2 -2 -2 -2 -2 -2 -2 -2 -2 -2 -2 -2 -2 -2 -2 -2 -2 -2 -2 -2 -2 -2 -2 -2 -1 5 34 95 
99 40 12 5 4 4 4 4 4 4 4 4 4 4 4 4 4 4 4 4 4 4 4 4 4 4 4 4 4 4 4 4 4 4 4 4 4 4 4 4 4 4 4 4 4 4 4 4 4 4 4 4 4 4 4 4 4 4 4 4 4 4 4 5 12 40 100 100 41 13 6 4 4 4 4 4 4 4 4 4 4 4 4 4 4 4 4 4 4 4 4 4 4 4 4 4 4 4 4 4 4 4 4 4 4 4 5 12 40 99 
117 65 40 34 32 32 32 32 32 32 32 32 32 32 32 32 32 32 32 32 32 32 32 32 32 32 32 32 32 32 32 32 32 32 32 32 32 32 32 32 32 32 32 32 32 32 32 32 32 32 32 32 32 32 32 32 32 32 32 32 32 32 32 34 40 65 117 117 65 40 34 32 32 32 32 32 32 32 32 32 32 32 32 32 32 32 32 32 32 32 32 32 32 32 32 32 32 32 32 32 32 32 32 32 32 32 34 40 65 117 
154 117 99 95 94 94 94 94 94 94 94 94 94 94 94 94 94 94 94 94 94 94 94 94 94 94 94 94 94 94 94 96 99 102 100 96 94 94 94 94 94 94 94 94 94 94 94 94 97 101 101 97 94 94 94 94 94 94 94 94 94 94 94 95 99 114 143 143 114 99 95 94 94 94 94 94 94 94 94 94 94 94 94 94 94 94 94 94 94 94 95 99 102 100 96 94 94 94 94 94 94 94 95 98 102 100 97 100 118 154 
