P2
110 110
255
152 126 106 98 96 95 95 95 95 95 95 95 95 95 95 95 95 95 95 95 95 95 95 95 95 95 95 96 96 99 106 121 137 139 124 108 100 97 96 95 95 95 95 95 95 96 98 104 120 139 138 119 104 98 96 95 95 95 95 95 95 95 95 96 97 99 103 103 99 97 96 95 95 95 95 95 95 95 95 95 95 95 95 95 95 95 95 96 97 103 116 134 141 127 109 100 97 96 95 96 97 101 113 132 141 128 113 111 127 153 
126 88 61 50 47 47 46 46 46 46 46 46 46 46 46 46 46 46 46 46 46 46 46 46 46 46 47 47 49 57 74 105 130 119 86 62 52 48 47 46 46 46 46 46 47 48 51 63 91 128 125 87 61 50 47 47 46 46 46 46 46 46 46 46 46 46 45 45 46 46 46 46 46 46 46 46 46 46 46 46 46 46 46 46 46 46 47 48 52 63 90 124 126 93 65 52 48 47 47 47 50 58 82 118 129 99 71 67 89 126 
106 61 30 18 15 14 14 14 14 14 14 14 14 14 14 14 14 14 14 14 14 14 14 14 14 14 14 16 21 34 64 102 113 80 44 25 17 14 14 14 14 14 14 14 14 15 20 36 72 116 108 60 29 18 15 14 14 14 14 14 14 14 14 14 13 13 13 13 13 13 14 14 14 14 14 14 14 14 14 14 14 14 14 14 14 14 14 16 22 41 79 114 97 55 29 18 15 14 14 15 18 30 61 105 108 66 37 35 62 106 
98 50 18 6 2 2 1 1 1 1 1 1 1 1 1 1 1 1 1 1 1 1 1 1 2 2 3 6 16 40 79 107 90 48 20 7 3 2 2 1 1 1 1 2 2 4 12 33 76 120 102 49 17 6 2 2 1 1 1 1 1 1 1 1 1 1 1 1 1 1 1 1 1 1 1 1 1 1 1 1 1 1 1 1 1 2 2 5 15 42 87 107 72 31 11 4 2 2 2 3 8 23 59 103 94 48 21 22 51 98 
96 47 15 2 0 -1 -1 -1 -1 -1 -1 -1 -1 -1 -1 -1 -1 -1 -1 -1 -1 -1 -1 -1 -1 0 1 8 27 62 100 99 61 26 8 1 0 -1 -1 -1 -1 -1 -1 -1 0 3 16 45 96 132 102 46 14 2 0 -1 -1 -1 -1 -1 -1 -1 -1 -1 -1 -1 -1 -1 -1 -1 -1 -1 -1 -1 -1 -1 -1 -1 -1 -1 -1 -1 -1 -1 -1 -1 0 4 19 53 98 97 52 18 4 0 -1 -1 0 0 7 27 68 105 82 37 15 18 48 96 
95 47 14 2 -1 -2 -2 -2 -2 -2 -2 -2 -2 -2 -2 -2 -2 -2 -2 -2 -2 -2 -2 -2 -1 0 4 18 47 89 105 75 35 12 2 -1 -1 -2 -2 -2 -2 -2 -2 -1 0 7 27 67 118 140 103 46 14 2 -1 -2 -2 -2 -2 -2 -2 -2 -2 -2 -2 -2 -2 -2 -2 -2 -2 -2 -2 -2 -2 -2 -2 -2 -2 -2 -2 -2 -2 -2 -2 -1 0 8 29 70 105 83 37 11 1 -1 -2 -2 -1 1 10 35 81 105 68 27 10 16 47 96 
95 46 14 1 -1 -2 -2 -2 -2 -2 -2 -2 -2 -2 -2 -2 -2 -2 -2 -2 -2 -2 -2 -2 -1 2 12 35 75 104 88 47 17 4 0 -1 -2 -2 -2 -2 -2 -2 -2 0 3 15 45 92 129 138 104 49 15 2 -1 -2 -2 -2 -2 -2 -2 -2 -2 -2 -2 -2 -2 -2 -2 -2 -2 -2 -2 -2 -2 -2 -2 -2 -2 -2 -2 -2 -2 -2 -2 -1 2 14 44 89 103 64 24 6 0 -1 -2 -2 -1 2 13 44 92 100 55 19 8 15 47 95 
95 46 14 1 -1 -2 -2 -2 -2 -2 -2 -2 -2 -2 -2 -2 -2 -2 -2 -2 -2 -2 -2 -1 0 7 26 61 99 99 61 26 7 0 -1 -2 -2 -2 -2 -2 -2 -2 -1 0 8 28 68 109 123 126 107 56 19 3 0 -2 -2 -2 -2 -2 -2 -2 -2 -2 -2 -2 -2 -2 -2 -2 -2 -2 -2 -2 -2 -2 -2 -2 -2 -2 -2 -2 -2 -2 -1 0 6 24 64 103 89 44 14 2 -1 -2 -2 -2 0 3 18 54 99 92 45 14 6 15 47 95 
95 46 14 1 -1 -2 -2 -2 -2 -2 -2 -2 -2 -2 -2 -2 -2 -2 -2 -2 -2 -2 -1 0 4 17 47 88 104 75 35 12 2 -1 -2 -2 -2 -2 -2 -2 -2 -1 0 4 18 49 91 111 100 107 110 67 25 6 0 -1 -2 -2 -2 -2 -2 -2 -2 -2 -2 -2 -2 -2 -2 -2 -2 -2 -2 -2 -2 -2 -2 -2 -2 -2 -2 -2 -2 -2 -1 1 11 37 83 105 70 29 7 0 -1 -2 -2 -1 0 6 26 67 105 81 35 10 5 14 47 95 
95 46 14 1 -1 -2 -2 -2 -2 -2 -2 -2 -2 -2 -2 -2 -2 -2 -2 -2 -2 -2 -1 2 12 35 75 104 88 47 17 4 0 -1 -2 -2 -2 -2 -2 -2 -2 -1 1 11 35 75 106 94 71 84 108 80 34 9 0 -1 -2 -2 -2 -2 -2 -2 -2 -2 -2 -2 -2 -2 -2 -2 -2 -2 -2 -2 -2 -2 -2 -2 -2 -2 -2 -2 -2 -2 0 3 18 52 97 97 52 18 3 0 -2 -2 -2 -1 0 9 35 81 105 67 26 7 4 14 47 95 
96 47 14 2 -1 -2 -2 -2 -2 -2 -2 -2 -2 -2 -2 -2 -2 -2 -2 -2 -2 -1 0 7 26 61 99 99 61 26 7 0 -1 -2 -2 -2 -2 -2 -2 -2 -1 0 6 24 60 99 100 66 46 65 103 89 41 11 1 -1 -2 -2 -2 -2 -2 -2 -2 -2 -2 -2 -2 -2 -2 -2 -2 -2 -2 -2 -2 -2 -2 -2 -2 -2 -2 -2 -2 -1 0 7 29 70 105 83 37 11 1 -1 -2 -2 -2 -1 2 13 44 92 99 54 18 4 3 14 46 95 
97 48 14 2 -1 -2 -2 -2 -2 -2 -2 -2 -2 -2 -2 -2 -2 -2 -2 -2 -1 0 4 17 47 88 104 75 35 12 2 -1 -2 -2 -2 -2 -2 -2 -2 -2 -1 2 15 43 86 105 76 40 30 54 98 93 45 13 1 -1 -2 -2 -2 -2 -2 -2 -2 -2 -2 -2 -2 -2 -2 -2 -2 -2 -2 -2 -2 -2 -2 -2 -2 -2 -2 -2 -2 -1 2 14 44 89 103 64 24 6 0 -1 -2 -2 -2 0 3 18 54 99 92 44 13 2 2 14 46 96 
100 51 17 3 0 -2 -2 -2 -2 -2 -2 -2 -2 -2 -2 -2 -2 -2 -2 -2 -1 2 12 35 75 104 88 47 17 4 0 -1 -2 -2 -2 -2 -2 -2 -2 -1 0 7 27 66 103 91 50 22 21 49 96 95 47 14 2 -1 -2 -2 -2 -2 -2 -2 -2 -2 -2 -2 -2 -2 -2 -2 -2 -2 -2 -2 -2 -2 -2 -2 -2 -2 -2 -2 -1 0 6 24 64 103 89 44 14 2 -1 -2 -2 -2 -1 0 6 26 67 105 81 35 10 1 2 14 46 96 
108 62 24 6 0 -1 -2 -2 -2 -2 -2 -2 -2 -2 -2 -2 -2 -2 -2 -1 0 7 26 61 99 99 61 26 7 0 -1 -2 -2 -2 -2 -2 -2 -2 -2 0 3 15 45 89 103 68 29 12 16 45 93 97 50 15 2 -1 -2 -2 -2 -2 -2 -2 -2 -2 -2 -2 -2 -2 -2 -2 -2 -2 -2 -2 -2 -2 -2 -2 -2 -2 -2 -2 -1 1 11 37 83 105 70 29 7 0 -1 -2 -2 -2 -1 0 9 35 81 105 67 26 6 0 2 13 46 98 
124 85 41 15 4 0 -1 -2 -2 -2 -2 -2 -2 -2 -2 -2 -2 -2 -1 0 4 17 47 88 104 75 35 12 2 -1 -2 -2 -2 -2 -2 -2 -2 -2 -1 0 8 28 68 103 89 45 16 6 13 41 89 101 56 19 3 0 -2 -2 -2 -2 -2 -2 -2 -2 -2 -2 -2 -2 -2 -2 -2 -2 -2 -2 -2 -2 -2 -2 -2 -2 -2 -2 0 3 18 52 97 97 52 18 3 0 -2 -2 -2 -2 -1 2 13 44 92 99 54 18 3 0 2 13 45 100 
139 116 72 36 13 3 0 -1 -2 -2 -2 -2 -2 -2 -2 -2 -2 -2 -1 2 12 35 75 104 88 47 17 4 0 -1 -2 -2 -2 -2 -2 -2 -2 -1 0 4 18 49 91 103 66 27 8 3 9 34 80 105 68 26 6 0 -1 -2 -2 -2 -2 -2 -2 -2 -2 -2 -2 -2 -2 -2 -2 -2 -2 -2 -2 -2 -2 -2 -2 -2 -2 -1 0 7 29 70 105 83 37 11 1 -1 -2 -2 -2 -2 0 3 18 54 99 92 44 13 2 0 2 13 45 103 
138 131 106 68 32 11 2 -1 -2 -2 -2 -2 -2 -2 -2 -2 -2 -1 0 7 26 61 99 99 61 26 7 0 -1 -2 -2 -2 -2 -2 -2 -2 -2 -1 1 11 35 75 105 86 44 15 3 1 6 26 68 105 80 34 9 0 -1 -2 -2 -2 -2 -2 -2 -2 -2 -2 -2 -2 -2 -2 -2 -2 -2 -2 -2 -2 -2 -2 -2 -2 -2 -1 2 14 44 89 103 64 24 6 0 -1 -2 -2 -2 -1 0 6 26 67 105 81 35 9 0 0 1 13 45 102 
124 115 114 98 60 25 7 0 -1 -2 -2 -2 -2 -2 -2 -2 -1 0 4 17 47 88 104 75 35 12 2 -1 -2 -2 -2 -2 -2 -2 -2 -2 -1 0 6 24 60 99 99 60 24 6 0 0 4 19 56 101 89 41 11 1 -1 -2 -2 -2 -2 -2 -2 -2 -2 -2 -2 -2 -2 -2 -2 -2 -2 -2 -2 -2 -2 -2 -2 -2 -1 0 6 24 64 103 89 44 14 2 -1 -2 -2 -2 -2 -1 0 9 35 81 105 67 26 6 0 0 1 13 46 99 
110 87 92 107 88 48 19 5 0 -1 -2 -2 -2 -2 -2 -2 -1 2 12 35 75 104 88 47 17 4 0 -1 -2 -2 -2 -2 -2 -2 -2 -2 -1 2 15 43 86 105 75 35 11 2 -1 0 2 16 50 97 93 45 13 1 -1 -2 -2 -2 -2 -2 -2 -2 -2 -2 -2 -2 -2 -2 -2 -2 -2 -2 -2 -2 -2 -2 -2 -2 -1 1 11 37 83 105 70 29 7 0 -1 -2 -2 -2 -2 -1 2 13 44 92 99 54 18 3 0 -1 1 13 46 97 
102 68 64 92 105 77 40 16 4 0 -1 -2 -2 -2 -2 -1 0 7 26 61 99 99 61 26 7 0 -1 -2 -2 -2 -2 -2 -2 -2 -2 -1 0 7 27 66 103 91 49 18 4 0 -1 -1 2 14 47 95 95 47 14 2 -1 -2 -2 -2 -2 -2 -2 -2 -2 -2 -2 -2 -2 -2 -2 -2 -2 -2 -2 -2 -2 -2 -2 -2 0 3 18 52 97 97 52 18 3 0 -2 -2 -2 -2 -2 0 3 18 54 99 92 44 13 2 -1 -1 1 14 46 96 
98 56 42 64 98 102 72 37 15 4 0 -1 -2 -2 -1 0 4 17 47 88 104 75 35 12 2 -1 -2 -2 -2 -2 -2 -2 -2 -2 -2 0 3 15 45 89 103 68 28 8 0 -1 -2 -1 1 13 45 93 97 50 15 2 -1 -2 -2 -2 -2 -2 -2 -2 -2 -2 -2 -2 -2 -2 -2 -2 -2 -2 -2 -2 -2 -2 -2 -1 0 7 29 70 105 83 37 11 1 -1 -2 -2 -2 -2 -1 0 6 26 67 105 81 35 9 0 -1 -1 1 14 46 96 
96 51 27 36 68 100 101 70 37 15 4 0 -1 -1 -1 2 12 35 75 104 88 47 17 4 0 -1 -2 -2 -2 -2 -2 -2 -2 -2 -1 0 8 28 68 103 89 45 15 3 0 -2 -2 -1 1 11 41 89 101 56 19 3 0 -2 -2 -2 -2 -2 -2 -2 -2 -2 -2 -2 -2 -2 -2 -2 -2 -2 -2 -2 -2 -2 -2 -1 2 14 44 89 103 64 24 6 0 -1 -2 -2 -2 -2 -1 0 9 35 81 105 67 26 6 0 -1 -1 1 14 46 95 
96 48 19 18 36 70 101 101 70 37 15 4 0 0 0 7 26 61 99 99 61 26 7 0 -1 -2 -2 -2 -2 -2 -2 -2 -2 -1 0 4 18 49 91 103 66 27 7 0 -1 -2 -2 -1 0 9 34 80 105 68 26 6 0 -1 -2 -2 -2 -2 -2 -2 -2 -2 -2 -2 -2 -2 -2 -2 -2 -2 -2 -2 -2 -2 -1 0 6 24 64 103 89 44 14 2 -1 -2 -2 -2 -2 -2 -1 2 13 44 92 99 54 18 3 0 -1 -1 1 14 46 95 
95 47 16 8 15 37 70 101 101 70 37 15 4 1 5 18 47 88 104 75 35 12 2 -1 -2 -2 -2 -2 -2 -2 -2 -2 -2 -1 1 11 35 75 105 86 43 15 2 -1 -2 -2 -2 -1 0 6 25 68 105 80 34 9 0 -1 -2 -2 -2 -2 -2 -2 -2 -2 -2 -2 -2 -2 -2 -2 -2 -2 -2 -2 -2 -2 -1 1 11 37 83 105 70 29 7 0 -1 -2 -2 -2 -2 -2 0 3 18 54 99 92 44 13 2 -1 -2 -1 1 14 46 95 
95 47 14 4 5 15 37 70 101 101 70 37 16 8 14 36 75 104 88 47 17 4 0 -1 -2 -2 -2 -2 -2 -2 -2 -2 -1 0 6 24 60 99 99 60 24 6 0 -1 -2 -2 -2 -2 0 3 19 56 101 89 41 11 1 -1 -2 -2 -2 -2 -2 -2 -2 -2 -2 -2 -2 -2 -2 -2 -2 -2 -2 -2 -2 -2 0 3 18 52 97 97 52 18 3 0 -2 -2 -2 -2 -2 -1 0 6 26 67 105 81 35 9 0 -1 -2 -1 1 14 46 95 
95 46 14 2 0 4 15 37 70 101 101 71 40 25 32 63 99 99 61 26 7 0 -1 -2 -2 -2 -2 -2 -2 -2 -2 -2 -1 2 15 43 86 105 75 35 11 1 -1 -2 -2 -2 -2 -2 -1 2 15 49 97 94 45 13 1 -1 -2 -2 -2 -2 -2 -2 -2 -2 -2 -2 -2 -2 -2 -2 -2 -2 -2 -2 -2 -1 0 7 29 70 105 83 37 11 1 -1 -2 -2 -2 -2 -2 -1 0 9 35 81 105 67 26 6 0 -1 -2 -1 1 14 46 95 
95 46 14 2 0 0 4 15 37 70 101 102 77 56 64 93 105 75 35 12 2 -1 -2 -2 -2 -2 -2 -2 -2 -2 -2 -1 0 7 27 66 103 91 49 18 4 0 -1 -2 -2 -2 -2 -2 -1 1 13 45 94 97 49 15 2 -1 -2 -2 -2 -2 -2 -2 -2 -2 -2 -2 -2 -2 -2 -2 -2 -2 -2 -2 -2 -1 2 14 44 89 103 64 24 6 0 -1 -2 -2 -2 -2 -2 -1 2 13 44 92 99 54 18 3 0 -2 -2 -1 1 14 46 95 
95 46 14 2 -1 -1 0 4 15 37 71 102 110 102 105 113 89 47 17 4 0 -1 -2 -2 -2 -2 -2 -2 -2 -2 -2 0 3 15 45 89 103 68 28 8 0 -1 -2 -2 -2 -2 -2 -2 -1 1 11 41 89 101 56 19 3 0 -2 -2 -2 -2 -2 -2 -2 -2 -2 -2 -2 -2 -2 -2 -2 -2 -2 -2 -1 0 6 24 64 103 89 44 14 2 -1 -2 -2 -2 -2 -2 -2 0 3 18 54 99 92 44 13 2 -1 -2 -2 -1 1 14 46 95 
95 46 14 1 -1 -2 -1 0 4 15 37 73 111 135 135 107 62 26 7 0 -1 -2 -2 -2 -2 -2 -2 -2 -2 -2 -1 0 8 28 68 103 89 45 15 3 0 -2 -2 -2 -2 -2 -2 -2 -1 0 9 34 80 105 68 25 6 0 -1 -2 -2 -2 -2 -2 -2 -2 -2 -2 -2 -2 -2 -2 -2 -2 -2 -2 -1 1 11 37 83 105 70 29 7 0 -1 -2 -2 -2 -2 -2 -1 0 6 26 67 105 81 35 9 0 -1 -2 -2 -1 1 14 46 95 
95 46 14 1 -1 -2 -2 -1 0 4 16 41 85 130 130 83 37 12 2 -1 -2 -2 -2 -2 -2 -2 -2 -2 -2 -1 0 4 18 49 91 103 66 27 7 0 -1 -2 -2 -2 -2 -2 -2 -2 -1 0 6 26 68 105 80 34 9 0 -1 -2 -2 -2 -2 -2 -2 -2 -2 -2 -2 -2 -2 -2 -2 -2 -2 -2 0 3 18 52 97 97 52 18 3 0 -2 -2 -2 -2 -2 -2 -1 0 9 35 81 105 67 26 6 0 -1 -2 -2 -1 1 14 46 95 
95 46 14 1 -1 -2 -2 -2 -1 0 6 23 60 110 114 65 24 6 0 -1 -2 -2 -2 -2 -2 -2 -2 -2 -2 -1 1 11 35 75 105 86 43 15 2 -1 -2 -2 -2 -2 -2 -2 -2 -2 -2 0 3 19 56 101 89 41 11 1 -1 -2 -2 -2 -2 -2 -2 -2 -2 -2 -2 -2 -2 -2 -2 -2 -2 -1 0 7 29 70 105 83 37 11 1 -1 -2 -2 -2 -2 -2 -2 -1 2 13 44 92 99 54 18 3 0 -2 -2 -2 -1 1 14 46 95 
95 46 14 1 -1 -2 -2 -2 -2 -1 2 14 46 95 107 61 22 5 0 -2 -2 -2 -2 -2 -2 -2 -2 -2 -1 0 6 24 60 99 99 60 24 6 0 -1 -2 -2 -2 -2 -2 -2 -2 -2 -2 -1 2 15 50 97 93 45 13 1 -1 -2 -2 -2 -2 -2 -2 -2 -2 -2 -2 -2 -2 -2 -2 -2 -2 -1 2 14 44 89 103 64 24 6 0 -1 -2 -2 -2 -2 -2 -2 0 3 18 54 99 92 44 13 2 -1 -2 -2 -2 -1 1 14 46 95 
95 46 14 1 -1 -2 -2 -2 -2 -1 0 10 35 82 106 69 26 6 0 -1 -2 -2 -2 -2 -2 -2 -2 -2 -1 2 15 43 86 105 75 35 11 1 -1 -2 -2 -2 -2 -2 -2 -2 -2 -2 -2 -1 2 14 47 95 95 47 14 2 -1 -2 -2 -2 -2 -2 -2 -2 -2 -2 -2 -2 -2 -2 -2 -2 -1 0 6 24 64 103 89 44 14 2 -1 -2 -2 -2 -2 -2 -2 -1 0 6 26 67 105 81 35 9 0 -1 -2 -2 -2 -1 1 14 46 95 
95 46 14 1 -1 -2 -2 -2 -2 -1 0 6 26 68 105 81 34 9 0 -1 -2 -2 -2 -2 -2 -2 -2 -1 0 7 27 66 103 91 49 18 4 0 -1 -2 -2 -2 -2 -2 -2 -2 -2 -2 -2 -1 1 13 45 93 97 50 15 2 -1 -2 -2 -2 -2 -2 -2 -2 -2 -2 -2 -2 -2 -2 -2 -2 -1 1 11 37 83 105 70 29 7 0 -1 -2 -2 -2 -2 -2 -2 -1 0 9 35 81 105 67 26 6 0 -1 -2 -2 -2 -1 2 14 47 96 
95 46 14 1 -1 -2 -2 -2 -2 -2 0 3 19 56 101 90 42 12 1 -1 -2 -2 -2 -2 -2 -2 -2 0 3 15 45 89 103 68 28 8 0 -1 -2 -2 -2 -2 -2 -2 -2 -2 -2 -2 -2 -1 1 11 41 89 101 56 19 3 0 -2 -2 -2 -2 -2 -2 -2 -2 -2 -2 -2 -2 -2 -2 -2 0 3 18 52 97 97 52 18 3 0 -2 -2 -2 -2 -2 -2 -2 -1 2 13 44 92 99 54 18 3 0 -2 -2 -2 -2 -1 2 14 47 96 
96 46 13 1 -1 -2 -2 -2 -2 -2 -1 2 15 48 96 96 48 15 2 -1 -2 -2 -2 -2 -2 -2 -1 0 8 28 68 103 89 45 15 3 0 -2 -2 -2 -2 -2 -2 -2 -2 -2 -2 -2 -2 -1 0 9 34 80 105 68 26 6 0 -1 -2 -2 -2 -2 -2 -2 -2 -2 -2 -2 -2 -2 -2 -1 0 7 29 70 105 83 37 11 1 -1 -2 -2 -2 -2 -2 -2 -2 0 3 18 54 99 92 44 13 2 -1 -2 -2 -2 -2 -1 2 16 50 99 
97 46 13 1 -1 -2 -2 -2 -2 -2 -1 1 12 42 90 101 56 19 3 0 -2 -2 -2 -2 -2 -1 0 4 18 49 91 103 66 27 7 0 -1 -2 -2 -2 -2 -2 -2 -2 -2 -2 -2 -2 -2 -1 0 6 26 68 105 80 34 9 0 -1 -2 -2 -2 -2 -2 -2 -2 -2 -2 -2 -2 -2 -2 -1 2 14 44 89 103 64 24 6 0 -1 -2 -2 -2 -2 -2 -2 -1 0 6 26 67 105 81 35 9 0 -1 -2 -2 -2 -2 0 4 20 57 105 
99 45 13 1 -1 -2 -2 -2 -2 -2 -1 0 9 34 80 105 67 26 6 0 -1 -2 -2 -2 -2 -1 1 11 35 75 105 86 43 15 2 -1 -2 -2 -2 -2 -2 -2 -2 -2 -2 -2 -2 -2 -2 -2 0 3 19 56 101 89 41 11 1 -1 -2 -2 -2 -2 -2 -2 -2 -2 -2 -2 -2 -2 -1 0 6 24 64 103 89 44 14 2 -1 -2 -2 -2 -2 -2 -2 -2 -1 0 9 35 81 105 67 26 6 0 -1 -2 -2 -2 -1 0 8 30 73 118 
101 45 13 1 -1 -2 -2 -2 -2 -2 -1 0 6 26 67 105 80 34 9 0 -1 -2 -2 -2 -1 0 6 24 60 99 99 60 24 6 0 -1 -2 -2 -2 -2 -2 -2 -2 -2 -2 -2 -2 -2 -2 -2 -1 2 15 50 97 93 45 13 1 -1 -2 -2 -2 -2 -2 -2 -2 -2 -2 -2 -2 -2 -1 1 11 37 83 105 70 29 7 0 -1 -2 -2 -2 -2 -2 -2 -2 -1 2 13 44 92 99 54 18 3 0 -2 -2 -2 -1 0 4 17 48 97 132 
102 45 13 1 -1 -2 -2 -2 -2 -2 -2 0 3 19 56 101 90 42 12 1 -1 -2 -2 -2 -1 2 15 43 86 105 75 35 11 1 -1 -2 -2 -2 -2 -2 -2 -2 -2 -2 -2 -2 -2 -2 -2 -2 -1 2 14 47 95 95 47 14 2 -1 -2 -2 -2 -2 -2 -2 -2 -2 -2 -2 -2 -2 0 3 18 52 97 97 52 18 3 0 -2 -2 -2 -2 -2 -2 -2 -2 0 3 18 54 99 92 44 13 2 -1 -2 -2 -2 -1 2 11 35 76 122 140 
101 45 13 1 -1 -2 -2 -2 -2 -2 -2 -1 2 15 48 96 96 48 15 2 -1 -2 -2 -1 0 7 27 66 103 91 49 18 4 0 -1 -2 -2 -2 -2 -2 -2 -2 -2 -2 -2 -2 -2 -2 -2 -2 -1 1 13 45 93 97 50 16 2 -1 -2 -2 -2 -2 -2 -2 -2 -2 -2 -2 -2 -1 0 7 29 70 105 83 37 11 1 -1 -2 -2 -2 -2 -2 -2 -2 -1 0 6 26 67 105 81 35 9 0 -1 -2 -2 -1 0 7 25 61 104 131 136 
99 46 13 1 -1 -2 -2 -2 -2 -2 -2 -1 1 12 42 90 101 56 19 3 0 -2 -2 0 3 15 45 89 103 68 28 8 0 -1 -2 -2 -2 -2 -2 -2 -2 -2 -2 -2 -2 -2 -2 -2 -2 -2 -1 1 11 41 89 101 57 19 4 0 -1 -2 -2 -2 -2 -2 -2 -2 -2 -2 -2 -1 2 14 44 89 103 64 24 6 0 -1 -2 -2 -2 -2 -2 -2 -2 -1 0 9 35 81 105 67 26 6 0 -1 -2 -1 0 4 17 47 89 115 117 123 
97 46 13 1 -1 -2 -2 -2 -2 -2 -2 -1 0 9 34 80 105 67 26 6 0 -1 -1 0 8 28 68 103 89 45 15 3 0 -2 -2 -2 -2 -2 -2 -2 -2 -2 -2 -2 -2 -2 -2 -2 -2 -2 -1 0 9 34 81 105 68 26 7 0 -1 -1 -1 -2 -2 -2 -2 -2 -2 -2 -1 0 6 24 64 103 89 44 14 2 -1 -2 -2 -2 -2 -2 -2 -2 -2 -1 2 13 44 92 99 54 18 3 0 -2 -2 -1 2 12 35 75 107 102 94 111 
96 46 14 1 -1 -2 -2 -2 -2 -2 -2 -1 0 6 26 67 105 80 34 9 0 -1 0 4 18 49 91 103 66 27 7 0 -1 -2 -2 -2 -2 -2 -2 -2 -2 -2 -2 -2 -2 -2 -2 -2 -2 -2 -1 0 6 27 69 107 83 38 13 4 2 0 0 0 -1 -1 -1 -1 -1 -1 -1 1 11 37 83 105 70 29 7 0 -1 -2 -2 -2 -2 -2 -2 -2 -2 0 3 18 54 99 92 44 13 2 -1 -2 -1 0 7 26 61 99 102 77 74 103 
96 46 14 1 -1 -2 -2 -2 -2 -2 -2 -2 0 3 19 56 101 90 42 12 1 0 2 11 35 75 105 86 43 15 2 -1 -2 -2 -2 -2 -2 -2 -2 -2 -2 -2 -2 -2 -2 -2 -2 -2 -2 -2 -1 0 6 23 62 108 99 55 27 16 12 9 6 3 2 2 1 1 0 0 0 4 19 52 97 97 52 18 3 0 -2 -2 -2 -2 -2 -2 -2 -2 -1 0 6 26 67 105 81 35 9 0 -1 -1 0 4 17 47 88 105 79 51 61 99 
95 46 14 1 -1 -2 -2 -2 -2 -2 -2 -2 -1 2 15 48 96 96 48 15 3 1 7 24 60 99 99 60 24 6 0 -1 -2 -2 -2 -2 -2 -2 -2 -2 -2 -2 -2 -2 -2 -2 -2 -2 -2 -1 0 2 11 30 69 118 121 86 59 48 41 34 26 19 15 14 13 11 9 6 6 12 32 72 105 83 37 11 1 -1 -2 -2 -2 -2 -2 -2 -2 -2 -1 0 9 35 81 105 67 26 6 0 -1 -1 2 12 35 75 105 89 51 34 53 97 
95 46 14 1 -1 -2 -2 -2 -2 -2 -2 -2 -1 1 12 42 90 101 56 19 5 4 15 44 86 105 75 35 11 1 -1 -2 -2 -2 -2 -2 -2 -2 -2 -2 -2 -2 -2 -2 -2 -2 -2 -1 -1 0 4 12 27 54 93 133 140 120 104 96 90 80 68 56 50 47 45 41 34 27 23 31 56 95 105 64 25 6 0 -1 -2 -2 -2 -2 -2 -2 -2 -2 -1 2 13 44 92 99 54 18 3 0 -1 0 7 26 61 99 99 62 30 24 49 96 
95 46 14 1 -1 -2 -2 -2 -2 -2 -2 -2 -1 0 9 34 80 105 68 26 9 9 28 66 103 91 49 18 4 0 -1 -2 -2 -2 -2 -2 -2 -2 -2 -2 -2 -2 -2 -2 -2 -2 -1 0 2 7 18 35 62 92 115 122 115 104 99 98 101 105 105 101 97 95 93 89 81 69 62 69 94 117 95 47 15 2 -1 -2 -2 -2 -2 -2 -2 -2 -2 -2 0 3 18 54 99 92 44 13 2 0 0 4 17 47 88 104 75 36 16 18 48 96 
95 46 14 1 -1 -2 -2 -2 -2 -2 -2 -2 -1 0 6 26 67 105 81 36 15 18 46 89 103 68 28 8 0 -1 -2 -2 -2 -2 -2 -2 -2 -2 -2 -2 -2 -2 -2 -2 -1 -1 0 4 12 26 47 75 99 106 94 74 58 50 48 50 56 68 80 89 93 95 97 101 105 106 107 116 134 131 84 36 10 1 -1 -2 -2 -2 -2 -2 -2 -2 -2 -1 0 6 26 67 105 81 35 9 1 0 2 12 35 75 104 88 47 18 8 16 47 95 
95 46 14 1 -1 -2 -2 -2 -2 -2 -2 -2 -2 0 3 19 56 101 90 45 23 32 69 104 89 45 15 3 0 -2 -2 -2 -2 -2 -2 -2 -2 -2 -2 -2 -2 -2 -2 -1 0 1 7 17 35 61 88 104 99 75 49 30 20 16 15 16 19 26 34 41 45 47 50 56 68 82 95 112 132 131 85 37 11 2 0 -1 -2 -2 -2 -2 -2 -2 -2 -1 0 10 35 81 105 67 26 6 0 1 7 26 61 99 99 61 26 8 4 14 47 95 
95 46 14 1 -1 -2 -2 -2 -2 -2 -2 -2 -2 -1 2 15 48 96 97 55 36 53 92 103 66 27 7 0 -1 -2 -2 -2 -2 -2 -2 -2 -2 -2 -2 -2 -2 -2 -1 0 3 11 25 47 74 99 104 88 61 35 18 8 4 2 2 2 3 6 9 11 13 14 16 19 26 35 46 63 92 117 98 53 21 6 1 0 -1 -1 -1 -1 -1 -1 -1 0 2 14 45 92 100 55 18 4 1 4 18 47 88 104 75 35 12 3 3 14 47 95 
95 46 14 1 -1 -2 -2 -2 -2 -2 -2 -2 -2 -1 1 12 42 90 104 70 57 81 106 87 43 15 2 -1 -2 -2 -2 -2 -2 -2 -2 -2 -2 -2 -2 -2 -1 -1 0 5 14 32 60 88 104 99 75 47 26 12 4 0 0 -1 -1 -1 0 0 0 1 1 2 2 3 6 10 15 27 53 92 108 80 43 20 9 4 2 2 2 1 1 2 2 3 7 22 57 101 93 45 14 3 3 12 35 75 104 88 47 18 4 0 2 14 46 95 
95 46 14 1 -1 -2 -2 -2 -2 -2 -2 -2 -2 -1 0 9 34 81 111 93 88 106 100 60 24 6 0 -1 -2 -2 -2 -2 -2 -2 -2 -2 -2 -2 -2 -1 0 2 7 19 39 69 97 105 89 61 35 17 7 2 0 -1 -2 -2 -2 -2 -2 -1 -1 -1 -1 -1 -1 0 0 1 3 10 27 63 103 110 81 50 30 20 16 14 14 14 14 14 14 16 22 40 78 112 87 39 13 5 8 26 61 99 99 61 26 7 0 0 2 14 46 95 
95 46 14 1 -1 -2 -2 -2 -2 -2 -2 -2 -2 -1 0 6 25 68 113 119 117 110 75 35 11 1 -1 -2 -2 -2 -2 -2 -2 -2 -2 -2 -2 -1 -1 0 4 12 26 48 77 101 101 77 48 26 12 4 0 -1 -1 -2 -2 -2 -2 -2 -2 -2 -2 -2 -2 -2 -2 -2 -1 -1 0 2 13 38 82 124 125 98 73 58 50 48 47 46 46 47 47 49 56 76 110 125 87 41 17 11 20 48 89 105 75 35 12 2 0 -1 2 14 46 95 
95 46 14 1 -1 -2 -2 -2 -2 -2 -2 -2 -2 -2 0 3 18 56 110 137 128 93 48 18 4 0 -1 -2 -2 -2 -2 -2 -2 -2 -2 -2 -1 0 2 7 17 35 61 89 105 97 69 39 19 7 2 0 -1 -2 -2 -2 -2 -2 -2 -2 -2 -2 -2 -2 -2 -2 -2 -2 -2 -2 -1 0 6 24 65 120 142 128 112 103 98 96 95 95 95 95 96 97 103 116 137 138 102 61 36 30 44 78 106 89 47 18 4 0 -1 -1 1 14 46 95 
95 46 14 1 -1 -2 -2 -2 -2 -2 -2 -2 -2 -2 -1 2 15 49 106 140 118 68 28 8 0 -1 -2 -2 -2 -2 -2 -2 -2 -2 -1 -1 0 4 11 25 47 75 99 105 88 60 33 14 5 0 -1 -1 -2 -2 -2 -2 -2 -2 -2 -2 -2 -2 -2 -2 -2 -2 -2 -2 -2 -2 -1 0 4 22 61 113 123 102 92 92 94 95 95 95 95 95 95 96 98 103 114 123 117 97 76 68 82 108 102 63 26 7 0 -1 -2 -1 1 14 46 95 
95 46 14 1 -1 -2 -2 -2 -2 -2 -2 -2 -2 -2 -1 1 13 46 103 132 95 44 15 3 0 -2 -2 -2 -2 -2 -2 -2 -1 -1 0 2 7 17 35 61 89 105 100 75 47 25 11 3 0 -1 -2 -2 -2 -2 -2 -2 -2 -2 -2 -2 -2 -2 -2 -2 -2 -2 -2 -2 -2 -2 -1 0 6 26 69 110 95 60 45 44 45 46 46 46 46 46 46 47 47 50 58 73 92 106 111 114 125 124 86 40 13 2 -1 -2 -2 -1 1 14 46 95 
95 46 14 1 -1 -2 -2 -2 -2 -2 -2 -2 -2 -2 -1 1 13 46 100 118 72 28 7 0 -1 -2 -2 -2 -2 -2 -1 -1 0 1 5 11 24 46 75 102 109 93 65 38 20 9 3 0 -1 -1 -2 -2 -2 -2 -2 -2 -2 -2 -2 -2 -2 -2 -2 -2 -2 -2 -2 -2 -2 -2 -1 0 9 34 81 106 72 34 17 14 13 13 14 14 14 14 14 14 14 15 19 29 46 68 93 120 141 127 76 32 9 1 -1 -2 -2 -1 1 14 46 95 
95 46 14 1 -1 -2 -2 -2 -2 -2 -2 -2 -2 -2 -1 2 14 47 98 105 57 19 4 0 -2 -2 -2 -2 -1 -1 0 2 6 11 20 36 61 92 118 119 95 65 40 23 13 6 3 1 0 0 -1 -1 -1 -1 -2 -2 -2 -2 -2 -2 -2 -2 -2 -2 -2 -2 -2 -2 -2 -2 -1 1 11 41 89 101 58 21 6 2 2 1 1 1 1 1 1 1 2 2 4 8 15 28 49 80 115 123 86 40 13 2 -1 -2 -2 -1 1 14 46 95 
95 46 14 1 -1 -2 -2 -2 -2 -2 -2 -2 -2 -2 -1 2 15 50 98 97 48 15 2 -1 -1 -1 -1 0 0 3 7 14 25 38 55 79 108 133 140 122 92 68 52 39 27 19 14 9 6 3 2 1 0 0 0 -1 -1 -1 -2 -2 -2 -2 -2 -2 -2 -2 -2 -2 -2 -2 -1 1 13 45 94 97 50 16 3 0 -1 -1 -1 -1 -1 -1 -1 -1 -1 -1 0 0 3 8 19 39 74 107 103 63 26 7 0 -1 -2 -1 1 14 46 95 
95 46 14 1 -1 -2 -2 -2 -2 -2 -2 -2 -2 -2 0 3 19 56 101 90 42 12 1 0 -1 0 1 3 8 15 27 44 64 83 99 111 118 121 124 121 111 101 92 81 68 55 44 35 26 19 15 12 9 6 3 2 0 0 0 -1 -1 -1 -1 -2 -2 -2 -2 -2 -2 -2 -1 2 15 49 97 94 45 13 2 -1 -2 -2 -2 -2 -2 -2 -2 -2 -2 -2 -2 -1 0 1 5 16 40 78 106 89 47 18 4 0 -1 -1 1 14 46 95 
95 46 14 1 -1 -2 -2 -2 -2 -2 -2 -2 -2 -1 0 6 26 68 105 81 34 10 2 0 2 6 11 18 29 46 67 88 103 105 98 85 72 66 71 82 91 96 101 105 105 99 92 81 68 56 48 42 34 25 18 13 9 6 3 2 1 0 0 0 -1 -1 -1 -2 -2 -1 0 3 19 56 101 89 41 11 1 -1 -2 -2 -2 -2 -2 -2 -2 -2 -2 -2 -2 -2 -2 -1 0 5 19 48 89 105 75 35 12 2 0 -1 2 14 46 95 
95 46 14 1 -1 -2 -2 -2 -2 -2 -2 -2 -2 -1 0 9 34 80 105 68 27 9 5 7 14 24 37 52 70 90 103 103 90 70 52 38 28 24 27 34 42 48 56 68 81 92 99 105 105 101 96 90 80 67 54 44 35 26 19 15 12 9 6 3 2 0 0 0 -1 -1 0 6 26 68 105 80 34 9 0 -1 -2 -2 -2 -2 -2 -2 -2 -2 -2 -2 -2 -2 -2 -2 -1 0 7 26 61 99 99 61 26 7 0 0 2 14 46 95 
95 46 14 1 -1 -2 -2 -2 -2 -2 -2 -2 -2 -1 1 12 42 90 102 59 24 13 16 27 44 64 82 97 105 103 88 67 46 29 18 11 7 5 6 9 12 15 19 26 35 44 54 67 80 90 96 101 105 105 99 92 81 68 56 48 42 34 25 18 13 9 6 3 2 2 3 11 35 81 105 68 26 6 0 -1 -2 -2 -2 -2 -2 -2 -2 -2 -2 -2 -2 -2 -2 -2 -2 -1 2 12 35 74 104 89 48 19 5 0 2 14 46 95 
95 46 14 1 -1 -2 -2 -2 -2 -2 -2 -2 -2 -1 2 15 48 97 101 59 33 32 46 67 88 103 105 97 82 64 44 27 15 8 3 1 0 0 0 0 1 2 3 6 9 13 18 25 34 42 48 56 68 81 92 99 105 105 101 96 90 80 67 54 44 35 26 19 15 13 13 20 46 92 102 56 19 3 0 -2 -2 -2 -2 -2 -2 -2 -2 -2 -2 -2 -2 -2 -2 -2 -2 -1 0 4 17 47 88 105 77 39 14 4 3 14 47 95 
95 46 14 1 -1 -2 -2 -2 -2 -2 -2 -2 -2 0 4 19 57 106 107 73 61 71 90 103 103 90 70 52 37 24 14 7 3 0 0 -1 -1 -1 -1 -1 -1 -1 0 0 0 2 3 6 9 12 15 19 26 35 44 54 67 80 90 96 101 105 105 99 92 81 68 56 48 43 38 41 64 104 100 50 15 2 -1 -2 -2 -2 -2 -2 -2 -2 -2 -2 -2 -2 -2 -2 -2 -2 -2 -2 -1 0 7 25 60 97 101 69 33 12 6 15 47 95 
95 46 14 1 -1 -2 -2 -2 -2 -2 -2 -2 -1 0 7 29 73 121 124 104 100 106 104 89 67 46 29 18 11 6 2 0 -1 -1 -2 -2 -2 -2 -2 -2 -2 -2 -2 -1 -1 -1 0 0 0 1 2 3 6 9 13 18 25 34 42 48 56 68 81 92 99 105 105 101 96 91 84 81 96 121 101 47 14 2 -1 -2 -2 -2 -2 -2 -2 -2 -2 -2 -2 -2 -2 -2 -2 -2 -2 -2 -2 -1 1 11 32 69 101 97 60 26 12 17 47 95 
95 46 14 1 -1 -2 -2 -2 -2 -2 -2 -2 0 3 15 45 96 137 137 120 106 89 67 45 27 15 8 3 1 0 -1 -1 -2 -2 -2 -2 -2 -2 -2 -2 -2 -2 -2 -2 -2 -2 -2 -1 -1 -1 -1 0 0 0 2 3 6 9 12 15 19 26 35 44 54 67 80 90 96 101 107 115 129 139 103 46 13 1 -1 -2 -2 -2 -2 -2 -2 -2 -2 -2 -2 -2 -2 -2 -2 -2 -2 -2 -2 -1 0 3 14 39 77 105 88 49 23 21 49 96 
95 46 14 1 -1 -2 -2 -2 -2 -2 -2 -1 0 8 28 68 114 127 109 85 64 44 27 15 7 3 0 0 -1 -1 -2 -2 -2 -2 -2 -2 -2 -2 -2 -2 -2 -2 -2 -2 -2 -2 -2 -2 -2 -2 -2 -2 -1 -1 -1 0 0 0 1 2 3 6 9 13 18 25 34 42 48 57 71 91 119 137 103 45 13 1 -1 -2 -2 -2 -2 -2 -2 -2 -2 -2 -2 -2 -2 -2 -2 -2 -2 -2 -2 -2 -1 0 5 19 48 88 105 78 43 31 52 97 
96 46 14 1 -1 -2 -2 -2 -2 -2 -1 0 4 18 48 92 112 89 59 39 24 14 7 2 0 -1 -1 -2 -2 -2 -2 -2 -2 -2 -2 -2 -2 -2 -2 -2 -2 -2 -2 -2 -2 -2 -2 -2 -2 -2 -2 -2 -2 -2 -2 -2 -1 -1 -1 -1 0 0 0 2 3 6 9 12 15 20 29 49 82 117 99 46 13 1 -1 -2 -2 -2 -2 -2 -2 -2 -2 -2 -2 -2 -2 -2 -2 -2 -2 -2 -2 -2 -2 -1 0 7 25 60 97 102 73 49 60 99 
96 46 14 1 -1 -2 -2 -2 -2 -2 -1 2 12 35 75 106 91 52 26 13 6 2 0 -1 -1 -2 -2 -2 -2 -2 -2 -2 -2 -2 -2 -2 -2 -2 -2 -2 -2 -2 -2 -2 -2 -2 -2 -2 -2 -2 -2 -2 -2 -2 -2 -2 -2 -2 -2 -2 -2 -1 -1 -1 0 0 0 1 2 4 10 25 59 103 97 46 14 2 -1 -2 -2 -2 -2 -2 -2 -2 -2 -2 -2 -2 -2 -2 -2 -2 -2 -2 -2 -2 -2 -2 -1 2 11 32 69 102 101 75 74 103 
97 46 13 1 -1 -2 -2 -2 -2 -1 0 7 26 61 99 99 62 27 9 2 0 -1 -1 -2 -2 -2 -2 -2 -2 -2 -2 -2 -2 -2 -2 -2 -2 -2 -2 -2 -2 -2 -2 -2 -2 -2 -2 -2 -2 -2 -2 -2 -2 -2 -2 -2 -2 -2 -2 -2 -2 -2 -2 -2 -2 -1 -1 -1 -1 0 4 17 50 97 97 48 14 2 -1 -2 -2 -2 -2 -2 -2 -2 -2 -2 -2 -2 -2 -2 -2 -2 -2 -2 -2 -2 -2 -2 -1 0 3 14 39 77 107 102 94 111 
99 46 13 1 -1 -2 -2 -2 -1 0 5 19 48 89 105 75 36 12 2 0 -1 -1 -2 -2 -2 -2 -2 -2 -2 -2 -2 -2 -2 -2 -2 -2 -2 -2 -2 -2 -2 -2 -2 -2 -2 -2 -2 -2 -2 -2 -2 -2 -2 -2 -2 -2 -2 -2 -2 -2 -2 -2 -2 -2 -2 -2 -2 -2 -1 0 2 15 47 96 99 52 17 3 0 -1 -2 -2 -2 -2 -2 -2 -2 -2 -2 -2 -2 -2 -2 -2 -2 -2 -2 -2 -2 -2 -2 -1 0 5 19 48 89 115 117 123 
101 45 13 1 -1 -2 -2 -1 0 4 15 39 77 107 92 51 21 6 1 0 -1 -1 -1 -1 -1 -1 -1 -1 -1 -1 -2 -2 -2 -2 -2 -2 -2 -2 -2 -2 -2 -2 -2 -2 -2 -2 -2 -2 -2 -2 -2 -2 -2 -2 -2 -2 -2 -2 -2 -2 -2 -2 -2 -2 -2 -2 -2 -2 -1 0 3 16 49 98 107 62 25 8 1 0 -1 -2 -2 -2 -2 -2 -2 -2 -2 -2 -2 -2 -2 -2 -2 -2 -2 -2 -2 -2 -2 -2 -1 0 7 26 61 104 131 136 
102 45 13 1 -1 -2 -1 0 4 14 36 72 108 110 75 40 19 9 4 2 2 2 1 1 1 1 1 1 0 0 0 -1 -1 -1 -1 -1 -1 -1 -1 -1 -1 -2 -2 -2 -2 -2 -2 -2 -2 -2 -2 -2 -2 -2 -2 -2 -2 -2 -2 -2 -2 -2 -2 -2 -2 -2 -2 -1 0 2 9 25 58 107 124 87 45 20 8 3 0 -1 -1 -2 -2 -2 -2 -2 -2 -2 -2 -2 -2 -2 -2 -2 -2 -2 -2 -2 -2 -2 -2 -1 2 11 35 76 122 140 
101 45 13 1 -1 -1 0 4 14 35 71 112 130 111 79 54 38 27 19 16 14 14 14 14 14 13 13 11 9 6 3 2 2 2 1 1 1 1 1 0 0 0 -1 -1 -1 -1 -1 -1 -1 -1 -1 -1 -1 -2 -2 -2 -2 -2 -2 -2 -2 -2 -2 -2 -2 -1 0 0 4 12 26 50 84 124 141 119 81 50 28 15 6 1 0 -1 -2 -2 -2 -2 -2 -2 -2 -2 -2 -2 -2 -2 -2 -2 -2 -2 -2 -2 -2 -1 0 4 17 48 97 132 
99 45 13 2 0 0 4 14 36 70 110 138 139 123 107 94 82 68 57 50 48 47 46 46 46 46 44 41 34 26 19 16 14 14 14 14 13 13 11 9 6 3 2 2 2 1 1 1 1 1 1 0 0 0 -1 -1 -1 -1 -1 -1 -1 -1 -1 -1 -1 0 3 8 18 35 61 89 111 122 124 122 112 92 67 44 24 11 4 0 0 -1 -2 -2 -2 -2 -2 -2 -2 -2 -2 -2 -2 -2 -2 -2 -2 -2 -2 -2 -1 0 8 30 73 118 
97 46 14 2 1 4 15 36 70 104 119 115 107 101 100 102 105 105 101 98 96 95 95 95 95 95 93 89 80 68 56 50 48 47 46 46 46 44 41 34 26 19 16 14 14 14 14 14 13 13 11 9 6 3 2 2 2 1 1 1 1 1 0 1 2 7 15 28 49 75 99 106 94 77 70 77 92 105 103 87 60 35 18 8 3 0 -1 -1 -2 -2 -2 -2 -2 -2 -2 -2 -2 -2 -2 -2 -2 -2 -2 -2 -2 0 4 20 57 106 
96 47 15 5 6 16 37 70 101 105 83 62 51 48 50 56 68 80 89 93 95 95 95 95 95 96 98 101 105 105 101 98 96 95 95 95 95 93 89 80 68 56 50 48 47 46 46 46 46 44 41 34 26 19 16 14 14 14 14 13 13 12 10 9 14 25 44 67 91 105 99 75 50 33 26 31 46 68 91 105 99 75 49 28 15 6 1 0 -1 -2 -2 -2 -2 -2 -2 -2 -2 -2 -2 -2 -2 -2 -2 -2 -2 -1 2 16 50 99 
96 48 18 12 20 40 72 101 101 72 42 24 16 15 16 19 26 34 41 44 46 46 46 46 47 48 50 56 68 80 89 93 95 95 95 95 96 98 101 105 105 101 98 96 95 95 95 95 95 93 89 80 68 56 50 48 47 46 46 46 44 41 36 34 42 63 87 103 103 87 60 35 18 9 6 9 16 29 49 75 99 105 91 67 44 24 11 4 0 0 -1 -2 -2 -2 -2 -2 -2 -2 -2 -2 -2 -2 -2 -2 -2 -1 2 14 47 96 
97 52 27 30 49 77 102 100 70 37 16 6 3 2 2 3 6 9 11 13 13 14 14 14 14 14 16 19 26 34 41 44 46 46 46 47 48 50 56 68 80 89 93 95 95 95 95 95 96 98 101 105 105 101 98 96 95 95 95 95 93 91 86 83 91 105 107 91 67 44 24 11 4 1 0 0 3 8 18 35 60 87 103 103 87 60 35 18 8 3 0 -1 -1 -2 -2 -2 -2 -2 -2 -2 -2 -2 -2 -2 -2 -1 2 14 47 96 
101 63 49 64 89 105 97 67 36 14 4 0 0 -1 -1 0 0 0 1 1 1 1 1 1 2 2 2 3 6 9 11 13 13 14 14 14 14 16 19 26 34 41 44 46 46 46 46 47 48 50 56 68 80 89 93 95 95 95 96 96 99 106 119 131 132 113 80 50 29 15 6 2 0 -1 -1 -1 0 0 4 11 24 44 67 91 105 99 75 49 28 15 6 1 0 -1 -2 -2 -2 -2 -2 -2 -2 -2 -2 -2 -2 -1 1 14 46 96 
109 84 83 101 105 88 60 32 13 4 0 -1 -2 -2 -2 -2 -1 -1 -1 -1 -1 -1 -1 -1 -1 -1 -1 0 0 0 1 1 1 1 1 2 2 2 3 6 9 11 13 13 14 14 14 14 14 16 19 26 34 41 44 46 46 46 47 48 53 67 98 134 131 87 45 21 9 3 0 -1 -1 -2 -2 -2 -2 -1 0 1 6 15 28 49 75 99 105 91 67 44 24 11 4 0 0 -1 -2 -2 -2 -2 -2 -2 -2 -2 -2 -1 1 13 46 97 
124 113 112 104 77 48 25 11 3 0 -1 -2 -2 -2 -2 -2 -2 -2 -2 -2 -2 -2 -2 -2 -2 -2 -2 -2 -1 -1 -1 -1 -1 -1 -1 -1 -1 -1 0 0 0 1 1 1 1 1 1 2 2 2 3 6 9 11 13 13 14 14 14 15 19 34 68 114 113 63 25 8 1 0 -1 -2 -2 -2 -2 -2 -2 -2 -1 -1 0 3 8 18 35 60 87 103 103 87 60 35 18 8 3 0 -1 -1 -2 -2 -2 -2 -2 -2 -2 -1 1 13 46 99 
138 131 107 72 40 19 7 2 0 -1 -2 -2 -2 -2 -2 -2 -2 -2 -2 -2 -2 -2 -2 -2 -2 -2 -2 -2 -2 -2 -2 -2 -2 -2 -2 -2 -2 -2 -2 -1 -1 -1 -1 -1 -1 -1 -1 -1 -1 -1 0 0 0 1 1 1 1 2 2 3 6 19 53 102 101 52 17 3 0 -1 -2 -2 -2 -2 -2 -2 -2 -2 -2 -2 -1 0 0 4 11 24 44 67 91 105 99 75 49 28 15 7 2 0 -1 -1 -2 -2 -2 -2 -2 -1 1 13 45 102 
139 116 73 37 15 5 0 -1 -1 -2 -2 -2 -2 -2 -2 -2 -2 -2 -2 -2 -2 -2 -2 -2 -2 -2 -2 -2 -2 -2 -2 -2 -2 -2 -2 -2 -2 -2 -2 -2 -2 -2 -2 -2 -2 -2 -2 -2 -2 -2 -2 -1 -1 -1 -1 -1 -1 -1 -1 0 3 15 48 97 97 48 14 2 -1 -2 -2 -2 -2 -2 -2 -2 -2 -2 -2 -2 -2 -2 -1 0 1 6 15 28 49 75 99 105 91 68 45 27 15 6 1 0 -1 -2 -2 -2 -2 -1 1 13 45 103 
124 85 41 16 4 0 -1 -2 -2 -2 -2 -2 -2 -2 -2 -2 -2 -2 -2 -2 -2 -2 -2 -2 -2 -2 -2 -2 -2 -2 -2 -2 -2 -2 -2 -2 -2 -2 -2 -2 -2 -2 -2 -2 -2 -2 -2 -2 -2 -2 -2 -2 -2 -2 -2 -2 -2 -2 -2 -1 2 14 47 96 96 47 14 2 -1 -2 -2 -2 -2 -2 -2 -2 -2 -2 -2 -2 -2 -2 -2 -1 -1 0 3 8 18 35 60 86 103 103 89 66 43 24 11 4 0 0 -1 -1 -1 -1 2 13 45 101 
108 62 24 6 0 -1 -2 -2 -2 -2 -2 -2 -2 -2 -2 -2 -2 -2 -2 -2 -2 -2 -2 -2 -2 -2 -2 -2 -2 -2 -2 -2 -2 -2 -2 -2 -2 -2 -2 -2 -2 -2 -2 -2 -2 -2 -2 -2 -2 -2 -2 -2 -2 -2 -2 -2 -2 -2 -2 -1 2 14 47 95 95 46 14 1 -1 -2 -2 -2 -2 -2 -2 -2 -2 -2 -2 -2 -2 -2 -2 -2 -2 -1 0 0 4 11 24 44 66 89 104 103 87 60 35 18 8 4 2 0 0 0 2 14 46 98 
100 51 17 3 0 -2 -2 -2 -2 -2 -2 -2 -2 -2 -2 -2 -2 -2 -2 -2 -2 -2 -2 -2 -2 -2 -2 -2 -2 -2 -2 -2 -2 -2 -2 -2 -2 -2 -2 -2 -2 -2 -2 -2 -2 -2 -2 -2 -2 -2 -2 -2 -2 -2 -2 -2 -2 -2 -2 -1 1 14 46 95 95 46 14 1 -1 -2 -2 -2 -2 -2 -2 -2 -2 -2 -2 -2 -2 -2 -2 -2 -2 -2 -2 -1 0 2 6 15 27 46 69 92 107 100 75 48 29 19 13 9 6 4 6 17 48 97 
97 48 15 2 -1 -2 -2 -2 -2 -2 -2 -2 -2 -2 -2 -2 -2 -2 -2 -2 -2 -2 -2 -2 -2 -2 -2 -2 -2 -2 -2 -2 -2 -2 -2 -2 -2 -2 -2 -2 -2 -2 -2 -2 -2 -2 -2 -2 -2 -2 -2 -2 -2 -2 -2 -2 -2 -2 -2 -1 1 14 46 95 95 46 14 1 -1 -2 -2 -2 -2 -2 -2 -2 -2 -2 -2 -2 -2 -2 -2 -2 -2 -2 -2 -2 -1 -1 0 3 8 18 32 55 85 112 116 97 73 55 44 35 26 19 18 26 55 100 
98 47 15 2 0 -1 -1 -1 -1 -1 -2 -2 -2 -2 -2 -2 -2 -2 -2 -2 -2 -2 -2 -2 -2 -2 -2 -2 -2 -2 -2 -2 -2 -2 -2 -2 -2 -2 -2 -2 -2 -2 -2 -2 -2 -2 -2 -2 -2 -2 -2 -2 -2 -2 -2 -2 -2 -2 -2 -1 1 14 46 95 95 46 14 1 -1 -2 -2 -2 -2 -2 -2 -2 -2 -2 -2 -2 -2 -2 -2 -2 -2 -2 -2 -2 -1 -1 0 1 5 11 22 39 67 105 134 138 121 105 93 81 67 55 49 51 73 108 
103 50 18 6 2 2 1 1 0 0 0 -1 -1 -1 -1 -1 -1 -1 -2 -2 -2 -2 -2 -2 -2 -2 -2 -2 -2 -2 -2 -2 -2 -2 -2 -2 -2 -2 -2 -2 -2 -2 -2 -2 -2 -2 -2 -2 -2 -2 -2 -2 -2 -2 -2 -2 -2 -2 -2 -1 1 14 46 95 95 46 14 1 -1 -2 -2 -2 -2 -2 -2 -2 -2 -2 -2 -2 -2 -2 -2 -2 -2 -2 -1 -1 0 1 3 8 15 26 40 59 84 112 129 126 113 104 103 105 105 100 95 95 107 126 
113 60 29 18 15 14 13 11 9 6 3 2 2 1 1 1 0 0 0 -1 -1 -1 -1 -1 -1 -1 -1 -2 -2 -2 -2 -2 -2 -2 -2 -2 -2 -2 -2 -2 -2 -2 -2 -2 -2 -2 -2 -2 -2 -2 -2 -2 -2 -2 -2 -2 -2 -2 -2 -1 1 14 46 95 95 46 14 1 -1 -2 -2 -2 -2 -2 -2 -2 -2 -2 -2 -2 -2 -2 -2 -1 -1 0 0 2 6 11 18 29 45 64 83 98 108 107 93 73 58 54 57 68 81 92 102 114 132 144 
129 87 60 50 47 46 44 41 34 26 19 16 14 14 13 11 9 6 3 2 2 1 1 1 1 0 0 0 -1 -1 -1 -1 -1 -1 -1 -2 -2 -2 -2 -2 -2 -2 -2 -2 -2 -2 -2 -2 -2 -2 -2 -2 -2 -2 -2 -2 -2 -2 -2 -1 1 14 46 95 95 46 14 1 -1 -2 -2 -2 -2 -2 -2 -2 -2 -2 -2 -2 -2 -1 -1 0 1 3 7 14 24 37 52 70 89 103 105 97 83 64 44 29 20 17 20 26 35 45 57 78 111 141 
145 125 106 98 96 95 93 89 80 68 56 50 47 46 44 41 34 26 19 16 14 14 13 13 11 9 6 3 2 2 1 1 1 0 0 0 -1 -1 -1 -1 -1 -1 -1 -1 -2 -2 -2 -2 -2 -2 -2 -2 -2 -2 -2 -2 -2 -2 -2 -1 1 14 46 95 95 46 14 1 -1 -2 -2 -2 -2 -2 -2 -2 -2 -2 -2 -1 -1 0 2 6 11 18 29 44 64 83 97 105 103 89 70 52 37 24 14 7 4 3 4 6 10 14 22 39 75 125 
141 125 106 98 96 96 98 101 105 105 101 98 96 95 93 89 80 68 56 50 47 47 46 44 41 34 26 19 16 14 14 13 11 9 6 3 2 2 1 1 1 1 0 0 0 -1 -1 -1 -1 -1 -1 -1 -2 -2 -2 -2 -2 -2 -2 -1 2 14 46 95 95 46 14 1 -1 -2 -2 -2 -2 -2 -2 -2 -1 -1 0 0 3 7 14 24 37 52 70 89 103 105 97 83 64 44 29 18 11 6 2 0 0 -1 0 0 0 2 7 21 55 111 
120 88 61 50 48 48 50 56 68 80 89 93 95 96 98 101 105 105 101 98 96 95 95 93 89 80 68 56 50 47 46 44 41 34 26 19 16 14 14 13 13 11 9 6 3 2 2 1 1 1 0 0 0 -1 -1 -1 -1 -1 -1 0 2 14 47 95 95 46 14 1 -1 -2 -2 -2 -2 -2 -1 -1 0 1 3 8 15 27 44 64 82 97 105 103 89 70 52 37 24 14 7 3 1 0 -1 -1 -2 -2 -2 -1 -1 0 3 15 48 102 
104 61 30 18 15 14 16 19 26 34 41 44 46 47 50 56 68 80 89 93 95 95 96 98 101 105 105 101 98 96 95 93 89 80 68 56 50 47 47 46 44 41 34 26 19 16 14 14 13 11 9 6 3 2 2 1 1 1 1 1 4 15 48 96 96 47 14 2 -1 -2 -2 -1 -1 0 0 2 6 11 18 29 46 67 88 103 105 97 83 64 44 29 18 11 6 2 0 0 -1 -1 -2 -2 -2 -2 -2 -2 -2 -1 2 14 47 97 
98 50 18 6 2 2 2 3 6 9 11 13 14 14 16 19 26 34 41 44 46 47 47 50 56 68 80 89 93 95 96 98 101 105 105 101 98 96 95 95 93 89 80 68 56 50 47 46 44 41 34 26 19 16 14 14 13 13 12 10 10 20 51 98 97 48 14 2 0 -1 -1 0 1 3 7 14 24 37 52 70 90 103 103 90 70 52 37 24 14 7 3 1 0 -1 -1 -2 -2 -2 -2 -2 -2 -2 -2 -2 -2 -1 2 14 46 96 
96 47 15 2 0 -1 -1 0 0 0 1 1 1 2 2 3 6 9 11 13 13 14 14 16 19 26 34 41 44 46 47 50 56 68 80 89 93 95 95 96 98 101 105 105 101 98 96 95 93 89 80 68 56 50 47 47 46 44 41 35 30 35 63 106 102 52 17 4 0 0 2 6 11 18 29 44 64 83 97 105 103 88 67 46 29 18 11 6 2 0 0 -1 -1 -2 -2 -2 -2 -2 -2 -2 -2 -2 -2 -2 -2 -1 1 14 46 95 
95 47 14 2 -1 -2 -2 -2 -1 -1 -1 -1 -1 -1 -1 0 0 0 1 1 1 1 2 2 3 6 9 11 13 14 14 16 19 26 34 41 44 46 47 47 50 56 68 80 89 93 95 96 98 101 105 105 101 98 96 95 95 93 89 81 71 71 91 124 114 63 25 10 6 8 14 24 37 52 70 89 103 105 97 82 64 44 27 15 8 3 1 0 -1 -1 -2 -2 -2 -2 -2 -2 -2 -2 -2 -2 -2 -2 -2 -2 -2 -1 1 14 46 95 
95 46 14 1 -1 -2 -2 -2 -2 -2 -2 -2 -2 -2 -2 -2 -1 -1 -1 -1 -1 -1 -1 -1 0 0 0 1 1 1 2 2 3 6 9 11 13 13 14 14 16 19 26 34 41 44 46 47 50 56 68 80 89 93 95 95 96 98 101 105 107 109 122 141 131 87 47 27 23 30 45 64 83 97 105 103 89 70 52 37 24 14 7 3 0 0 -1 -1 -2 -2 -2 -2 -2 -2 -2 -2 -2 -2 -2 -2 -2 -2 -2 -2 -2 -1 1 14 46 95 
95 46 14 1 -1 -2 -2 -2 -2 -2 -2 -2 -2 -2 -2 -2 -2 -2 -2 -2 -2 -2 -2 -2 -2 -1 -1 -1 -1 -1 -1 -1 0 0 0 1 1 1 1 2 2 3 6 9 11 13 14 14 16 19 26 34 41 44 46 47 47 50 56 68 81 91 102 116 126 115 88 67 63 73 90 103 105 97 83 64 44 29 18 11 6 2 0 -1 -1 -2 -2 -2 -2 -2 -2 -2 -2 -2 -2 -2 -2 -2 -2 -2 -2 -2 -2 -2 -2 -1 1 14 46 95 
95 46 14 1 -1 -2 -2 -2 -2 -2 -2 -2 -2 -2 -2 -2 -2 -2 -2 -2 -2 -2 -2 -2 -2 -2 -2 -2 -2 -2 -2 -2 -2 -1 -1 -1 -1 -1 -1 -1 -1 0 0 0 1 1 1 2 2 3 6 9 11 13 13 14 14 16 19 26 34 42 49 62 86 115 127 121 112 109 104 90 70 52 37 24 14 7 3 1 0 -1 -1 -2 -2 -2 -2 -2 -2 -2 -2 -2 -2 -2 -2 -2 -2 -2 -2 -2 -2 -2 -2 -2 -2 -1 1 14 46 95 
95 47 14 2 -1 -2 -2 -2 -2 -2 -2 -2 -2 -2 -2 -2 -2 -2 -2 -2 -2 -2 -2 -2 -2 -2 -2 -2 -2 -2 -2 -2 -2 -2 -2 -2 -2 -2 -2 -2 -1 -1 -1 -1 -1 -1 -1 -1 -1 0 0 0 1 1 2 2 2 2 4 6 9 12 16 25 47 88 132 140 116 89 66 45 29 18 11 6 2 0 0 -1 -1 -1 -2 -2 -2 -2 -2 -2 -2 -2 -2 -2 -2 -2 -2 -2 -2 -2 -2 -2 -2 -2 -2 -2 -2 -1 2 14 47 95 
96 47 15 2 0 -1 -1 -1 -1 -1 -1 -1 -1 -1 -1 -1 -1 -1 -1 -1 -1 -1 -1 -1 -1 -1 -1 -1 -1 -1 -1 -1 -1 -1 -1 -1 -1 -1 -1 -1 -1 -1 -1 -1 -1 -1 -1 -1 -1 -1 0 0 0 0 0 0 0 0 0 0 1 2 4 10 26 64 115 122 83 49 28 16 9 4 2 0 0 0 -1 -1 -1 -1 -1 -1 -1 -1 -1 -1 -1 -1 -1 -1 -1 -1 -1 -1 -1 -1 -1 -1 -1 -1 -1 -1 -1 0 2 15 47 96 
98 50 18 6 2 2 1 1 1 1 1 1 1 1 1 1 1 1 1 1 1 1 1 1 1 1 1 1 1 1 1 1 1 1 1 1 1 1 1 1 1 1 1 1 1 1 1 1 1 1 1 2 2 2 2 2 2 2 2 2 2 3 4 8 21 55 105 108 63 29 14 7 4 3 2 2 2 2 2 1 1 1 1 1 1 1 1 1 1 1 1 1 1 1 1 1 1 1 1 1 1 1 1 1 1 2 6 18 50 98 
106 61 30 18 15 14 14 14 14 14 14 14 14 14 14 14 14 14 14 14 14 14 14 14 14 14 14 14 14 14 13 13 13 13 13 13 13 14 14 14 14 14 14 14 14 14 14 13 13 13 13 13 13 14 14 14 14 14 14 14 14 14 15 18 31 62 108 109 64 33 20 16 14 14 14 14 14 14 14 14 14 14 14 14 14 14 14 14 14 14 13 13 13 13 13 13 14 14 14 14 14 14 13 13 13 14 18 29 61 106 
126 88 61 50 47 47 46 46 46 46 46 46 46 46 46 46 46 46 46 46 46 46 46 46 46 46 46 46 46 46 46 46 45 45 45 46 46 46 46 46 46 46 46 46 46 46 46 46 46 45 45 46 46 46 46 46 46 46 46 46 46 47 47 50 61 88 125 125 88 61 51 48 47 47 46 46 46 46 46 46 46 46 46 46 46 46 46 46 46 46 46 45 45 45 46 46 46 46 46 46 46 46 46 46 45 46 50 60 88 126 
152 126 106 98 96 95 95 95 95 95 95 95 95 95 95 95 95 95 95 95 95 95 95 95 95 95 95 95 95 96 97 99 102 103 101 98 96 96 95 95 95 95 95 95 95 95 96 97 99 103 103 99 97 96 95 95 95 95 95 95 95 95 96 98 104 119 138 138 119 104 98 96 95 95 95 95 95 95 95 95 95 95 95 95 95 95 95 95 96 96 98 101 103 101 98 96 96 95 95 95 96 96 98 101 103 102 101 107 126 152 
