P2
110 110
255
155 120 101 96 95 94 94 94 94 94 94 94 94 94 94 94 94 94 94 94 94 94 94 94 94 94 94 94 95 96 101 115 138 149 129 107 98 95 95 94 94 94 94 94 94 95 96 100 116 143 143 115 100 96 95 94 94 94 94 94 94 94 94 95 95 98 102 102 98 95 95 94 94 94 94 94 94 94 94 94 94 94 94 94 94 94 94 95 95 98 109 133 149 130 107 98 95 95 94 95 95 98 108 131 149 131 109 104 120 155 
120 70 44 37 35 35 35 35 35 35 35 35 35 35 35 35 35 35 35 35 35 35 35 35 35 35 35 35 36 40 54 89 127 118 75 48 38 36 35 35 35 35 35 35 35 35 37 45 72 121 119 69 44 37 35 35 35 35 35 35 35 35 35 35 35 35 35 35 35 35 35 35 35 35 35 35 35 35 35 35 35 35 35 35 35 35 35 35 37 45 71 117 125 81 49 38 36 35 35 35 36 42 63 109 128 84 52 47 70 120 
101 44 15 7 6 5 5 5 5 5 5 5 5 5 5 5 5 5 5 5 5 5 5 5 5 5 5 6 8 18 46 95 113 70 30 12 7 6 5 5 5 5 5 5 5 6 8 19 53 112 103 44 15 7 6 5 5 5 5 5 5 5 5 5 5 5 5 5 5 5 5 5 5 5 5 5 5 5 5 5 5 5 5 5 5 5 5 6 10 24 65 113 91 40 15 7 6 5 5 6 7 15 43 99 105 50 19 18 44 101 
96 37 7 0 -1 -2 -2 -2 -2 -2 -2 -2 -2 -2 -2 -2 -2 -2 -2 -2 -2 -2 -2 -2 -2 -2 -1 0 6 26 69 109 87 37 9 0 -1 -2 -2 -2 -2 -2 -2 -2 -1 -1 3 19 64 125 101 36 7 0 -1 -2 -2 -2 -2 -2 -2 -2 -2 -2 -2 -2 -2 -2 -2 -2 -2 -2 -2 -2 -2 -2 -2 -2 -2 -2 -2 -2 -2 -2 -2 -2 -1 0 5 29 82 109 61 19 2 -1 -2 -2 -2 -1 0 10 44 101 92 35 9 9 37 96 
95 35 6 -1 -3 -3 -3 -3 -3 -3 -3 -3 -3 -3 -3 -3 -3 -3 -3 -3 -3 -3 -3 -3 -3 -3 -2 1 16 53 101 101 53 15 1 -2 -3 -3 -3 -3 -3 -3 -3 -3 -3 -1 7 34 93 144 102 35 5 -1 -3 -3 -3 -3 -3 -3 -3 -3 -3 -3 -3 -3 -3 -3 -3 -3 -3 -3 -3 -3 -3 -3 -3 -3 -3 -3 -3 -3 -3 -3 -3 -3 -3 -1 9 41 97 97 41 8 -1 -3 -3 -3 -3 -2 0 15 58 108 79 26 5 7 35 95 
94 35 5 -2 -3 -3 -4 -4 -4 -4 -4 -4 -4 -4 -4 -4 -4 -4 -4 -4 -4 -4 -4 -3 -3 -3 0 8 36 86 108 67 24 4 -2 -3 -3 -4 -4 -4 -4 -4 -3 -3 -2 1 16 59 120 148 102 35 5 -2 -3 -3 -4 -4 -4 -4 -4 -4 -4 -4 -4 -4 -4 -4 -4 -4 -4 -4 -4 -4 -4 -4 -4 -4 -4 -4 -4 -4 -4 -4 -3 -3 -2 1 17 61 108 80 27 3 -2 -3 -3 -3 -3 -2 3 25 78 108 58 16 2 6 35 94 
94 35 5 -2 -3 -4 -4 -4 -4 -4 -4 -4 -4 -4 -4 -4 -4 -4 -4 -4 -4 -4 -4 -3 -3 -2 4 24 67 108 86 36 8 0 -3 -3 -4 -4 -4 -4 -4 -4 -3 -3 -1 6 34 89 130 137 101 37 6 -1 -3 -4 -4 -4 -4 -4 -4 -4 -4 -4 -4 -4 -4 -4 -4 -4 -4 -4 -4 -4 -4 -4 -4 -4 -4 -4 -4 -4 -4 -4 -3 -3 -1 6 34 87 106 56 15 0 -3 -3 -4 -4 -3 -2 5 34 91 100 43 9 0 6 35 94 
94 35 5 -2 -3 -4 -4 -4 -4 -4 -4 -4 -4 -4 -4 -4 -4 -4 -4 -4 -4 -4 -4 -3 -2 1 15 53 101 101 53 15 1 -2 -3 -4 -4 -4 -4 -4 -4 -4 -3 -2 1 17 59 111 116 119 104 43 9 -1 -3 -3 -4 -4 -4 -4 -4 -4 -4 -4 -4 -4 -4 -4 -4 -4 -4 -4 -4 -4 -4 -4 -4 -4 -4 -4 -4 -4 -4 -4 -3 -3 0 15 56 106 87 34 6 -1 -3 -3 -4 -3 -3 -1 9 43 100 91 34 6 0 6 35 94 
94 35 5 -2 -3 -4 -4 -4 -4 -4 -4 -4 -4 -4 -4 -4 -4 -4 -4 -4 -4 -4 -3 -3 0 8 36 86 108 67 24 4 -2 -3 -3 -4 -4 -4 -4 -4 -4 -3 -3 0 8 37 88 111 85 96 111 58 15 0 -3 -3 -4 -4 -4 -4 -4 -4 -4 -4 -4 -4 -4 -4 -4 -4 -4 -4 -4 -4 -4 -4 -4 -4 -4 -4 -4 -4 -4 -4 -3 -2 3 27 80 108 61 17 1 -3 -3 -4 -4 -3 -3 0 15 58 108 78 25 3 0 6 35 94 
94 35 5 -2 -3 -4 -4 -4 -4 -4 -4 -4 -4 -4 -4 -4 -4 -4 -4 -4 -4 -3 -3 -2 4 24 67 108 86 36 8 0 -3 -3 -4 -4 -4 -4 -4 -4 -3 -3 -2 4 24 67 109 89 52 68 110 78 25 3 -2 -3 -4 -4 -4 -4 -4 -4 -4 -4 -4 -4 -4 -4 -4 -4 -4 -4 -4 -4 -4 -4 -4 -4 -4 -4 -4 -4 -4 -3 -3 -1 8 41 97 97 41 8 -1 -3 -3 -4 -4 -3 -2 3 25 78 108 58 15 0 -1 5 35 94 
95 35 5 -2 -3 -4 -4 -4 -4 -4 -4 -4 -4 -4 -4 -4 -4 -4 -4 -4 -4 -3 -2 1 15 53 101 101 53 15 1 -2 -3 -4 -4 -4 -4 -4 -4 -4 -3 -3 0 15 52 101 101 55 28 48 102 89 31 4 -2 -3 -4 -4 -4 -4 -4 -4 -4 -4 -4 -4 -4 -4 -4 -4 -4 -4 -4 -4 -4 -4 -4 -4 -4 -4 -4 -4 -4 -3 -3 1 17 61 108 80 27 3 -2 -3 -4 -4 -4 -3 -2 5 34 91 100 43 9 -1 -1 5 35 94 
95 36 6 -2 -3 -4 -4 -4 -4 -4 -4 -4 -4 -4 -4 -4 -4 -4 -4 -4 -3 -3 0 8 36 86 108 67 24 4 -2 -3 -3 -4 -4 -4 -4 -4 -4 -3 -3 -1 6 33 85 108 67 26 14 39 96 93 34 5 -2 -3 -4 -4 -4 -4 -4 -4 -4 -4 -4 -4 -4 -4 -4 -4 -4 -4 -4 -4 -4 -4 -4 -4 -4 -4 -4 -4 -3 -3 -1 6 34 87 106 56 15 0 -3 -3 -4 -4 -3 -3 -1 9 43 100 91 34 5 -1 -1 5 35 95 
98 38 7 -1 -3 -3 -4 -4 -4 -4 -4 -4 -4 -4 -4 -4 -4 -4 -4 -3 -3 -2 4 24 67 108 86 36 8 0 -3 -3 -4 -4 -4 -4 -4 -4 -4 -3 -3 1 17 58 107 88 37 10 9 36 95 95 35 5 -2 -3 -4 -4 -4 -4 -4 -4 -4 -4 -4 -4 -4 -4 -4 -4 -4 -4 -4 -4 -4 -4 -4 -4 -4 -4 -4 -4 -3 -3 0 15 56 106 87 34 6 -1 -3 -3 -4 -4 -3 -3 0 15 58 108 78 25 3 -2 -1 5 35 95 
107 47 12 0 -3 -3 -4 -4 -4 -4 -4 -4 -4 -4 -4 -4 -4 -4 -4 -3 -2 1 15 53 101 101 53 15 1 -2 -3 -4 -4 -4 -4 -4 -4 -4 -3 -3 -1 6 34 87 107 59 17 3 6 34 93 96 37 6 -1 -3 -4 -4 -4 -4 -4 -4 -4 -4 -4 -4 -4 -4 -4 -4 -4 -4 -4 -4 -4 -4 -4 -4 -4 -4 -4 -4 -3 -2 3 27 80 108 61 17 1 -3 -3 -4 -4 -4 -3 -2 3 25 78 108 58 15 0 -2 -2 5 35 97 
129 74 28 6 -1 -3 -3 -4 -4 -4 -4 -4 -4 -4 -4 -4 -4 -4 -3 -3 0 8 36 86 108 67 24 4 -2 -3 -3 -4 -4 -4 -4 -4 -4 -4 -3 -2 1 17 59 107 87 34 7 0 5 32 89 101 43 9 -1 -3 -3 -4 -4 -4 -4 -4 -4 -4 -4 -4 -4 -4 -4 -4 -4 -4 -4 -4 -4 -4 -4 -4 -4 -4 -4 -3 -3 -1 8 41 97 97 41 8 -1 -3 -3 -4 -4 -4 -3 -2 5 34 91 100 43 9 -1 -3 -2 5 35 100 
149 116 64 25 5 -1 -3 -3 -4 -4 -4 -4 -4 -4 -4 -4 -4 -3 -3 -2 4 24 67 108 86 36 8 0 -3 -3 -4 -4 -4 -4 -4 -4 -4 -3 -3 0 8 37 88 107 58 17 1 -1 3 25 78 108 58 15 0 -3 -3 -4 -4 -4 -4 -4 -4 -4 -4 -4 -4 -4 -4 -4 -4 -4 -4 -4 -4 -4 -4 -4 -4 -4 -4 -3 -3 1 17 61 108 80 27 3 -2 -3 -4 -4 -4 -3 -3 -1 9 43 100 91 34 5 -2 -3 -2 5 35 103 
139 129 106 61 22 3 -2 -3 -3 -4 -4 -4 -4 -4 -4 -4 -4 -3 -2 1 15 53 101 101 53 15 1 -2 -3 -4 -4 -4 -4 -4 -4 -4 -3 -3 -2 4 24 67 108 85 33 6 -1 -2 0 15 58 108 78 25 3 -2 -3 -4 -4 -4 -4 -4 -4 -4 -4 -4 -4 -4 -4 -4 -4 -4 -4 -4 -4 -4 -4 -4 -4 -4 -3 -3 -1 6 34 87 106 56 15 0 -3 -3 -4 -4 -4 -3 -3 0 15 58 108 78 25 3 -2 -3 -2 5 35 100 
117 98 111 101 52 15 1 -2 -3 -4 -4 -4 -4 -4 -4 -4 -3 -3 0 8 36 86 108 67 24 4 -2 -3 -3 -4 -4 -4 -4 -4 -4 -4 -3 -3 0 15 52 101 101 52 15 0 -3 -3 -1 9 43 101 89 31 4 -2 -3 -4 -4 -4 -4 -4 -4 -4 -4 -4 -4 -4 -4 -4 -4 -4 -4 -4 -4 -4 -4 -4 -4 -4 -3 -3 0 15 56 106 87 34 6 -1 -3 -3 -4 -4 -4 -3 -2 3 25 78 108 58 15 0 -3 -3 -2 5 35 97 
103 65 77 109 86 37 9 0 -3 -3 -4 -4 -4 -4 -4 -3 -3 -2 4 24 67 108 86 36 8 0 -3 -3 -4 -4 -4 -4 -4 -4 -4 -3 -3 -1 6 33 85 108 67 24 4 -2 -3 -3 -1 6 37 96 93 34 5 -2 -3 -4 -4 -4 -4 -4 -4 -4 -4 -4 -4 -4 -4 -4 -4 -4 -4 -4 -4 -4 -4 -4 -4 -4 -3 -2 3 27 80 108 61 17 1 -3 -3 -4 -4 -4 -4 -3 -2 5 34 91 100 43 9 -1 -3 -3 -2 5 35 95 
97 48 46 88 108 69 27 6 -1 -3 -3 -4 -4 -4 -4 -3 -2 1 15 53 101 101 53 15 1 -2 -3 -4 -4 -4 -4 -4 -4 -4 -4 -3 -3 1 17 58 107 88 37 8 0 -3 -3 -3 -2 5 35 95 95 35 5 -2 -3 -4 -4 -4 -4 -4 -4 -4 -4 -4 -4 -4 -4 -4 -4 -4 -4 -4 -4 -4 -4 -4 -4 -3 -3 -1 8 41 97 97 41 8 -1 -3 -3 -4 -4 -4 -3 -3 -1 9 43 100 91 34 5 -2 -3 -3 -2 5 35 95 
95 40 25 54 100 104 63 25 6 -1 -3 -3 -4 -4 -3 -3 0 8 36 86 108 67 24 4 -2 -3 -3 -4 -4 -4 -4 -4 -4 -4 -3 -3 -1 6 34 87 107 59 17 1 -2 -3 -3 -3 -2 5 34 93 96 37 6 -1 -3 -4 -4 -4 -4 -4 -4 -4 -4 -4 -4 -4 -4 -4 -4 -4 -4 -4 -4 -4 -4 -4 -4 -3 -3 1 17 61 108 80 27 3 -2 -3 -4 -4 -4 -4 -3 -3 0 15 58 108 78 25 3 -2 -3 -3 -2 5 35 94 
95 37 13 24 61 103 103 63 25 6 -1 -3 -3 -3 -3 -2 4 24 67 108 86 36 8 0 -3 -3 -4 -4 -4 -4 -4 -4 -4 -4 -3 -2 1 17 59 107 87 34 6 -1 -3 -3 -4 -3 -2 4 31 89 101 43 9 -1 -3 -3 -4 -4 -4 -4 -4 -4 -4 -4 -4 -4 -4 -4 -4 -4 -4 -4 -4 -4 -4 -4 -3 -3 -1 6 34 87 106 56 15 0 -3 -3 -4 -4 -4 -4 -3 -2 3 25 78 108 58 15 0 -3 -3 -3 -2 5 35 94 
95 36 8 7 25 62 103 103 63 25 6 -1 -3 -3 -2 1 15 53 101 101 53 15 1 -2 -3 -4 -4 -4 -4 -4 -4 -4 -4 -3 -3 0 8 37 88 107 58 17 1 -3 -3 -4 -4 -3 -2 3 25 78 108 58 15 0 -3 -3 -4 -4 -4 -4 -4 -4 -4 -4 -4 -4 -4 -4 -4 -4 -4 -4 -4 -4 -4 -4 -3 -3 0 15 56 106 87 34 6 -1 -3 -3 -4 -4 -4 -4 -3 -2 5 34 91 100 43 9 -1 -3 -3 -3 -2 5 35 94 
94 35 6 0 6 25 63 103 103 63 25 6 0 -2 0 8 36 86 108 67 24 4 -2 -3 -3 -4 -4 -4 -4 -4 -4 -4 -3 -3 -2 4 24 67 108 85 33 6 -1 -3 -3 -4 -4 -3 -3 0 15 58 108 78 25 3 -2 -3 -4 -4 -4 -4 -4 -4 -4 -4 -4 -4 -4 -4 -4 -4 -4 -4 -4 -4 -4 -4 -3 -2 3 27 80 108 61 17 1 -3 -3 -4 -4 -4 -4 -3 -3 -1 9 43 100 91 34 5 -2 -3 -3 -3 -2 5 35 94 
94 35 5 -1 0 6 25 63 103 103 63 25 6 0 4 24 67 108 86 36 8 0 -3 -3 -4 -4 -4 -4 -4 -4 -4 -4 -3 -3 0 15 52 101 101 52 15 0 -3 -3 -4 -4 -4 -3 -3 -1 9 43 101 89 32 4 -2 -3 -4 -4 -4 -4 -4 -4 -4 -4 -4 -4 -4 -4 -4 -4 -4 -4 -4 -4 -4 -3 -3 -1 8 41 97 97 41 8 -1 -3 -3 -4 -4 -4 -4 -3 -3 0 15 58 108 78 25 3 -2 -3 -3 -3 -2 5 35 94 
94 35 5 -2 -3 -1 6 25 63 103 103 63 26 11 18 53 101 101 53 15 1 -2 -3 -4 -4 -4 -4 -4 -4 -4 -4 -3 -3 -1 6 33 85 108 67 24 4 -2 -3 -3 -4 -4 -4 -4 -3 -1 6 37 96 93 35 5 -2 -3 -4 -4 -4 -4 -4 -4 -4 -4 -4 -4 -4 -4 -4 -4 -4 -4 -4 -4 -4 -3 -3 1 17 61 108 80 27 3 -2 -3 -4 -4 -4 -4 -4 -3 -2 3 25 78 108 58 15 0 -3 -3 -3 -3 -2 5 35 94 
94 35 5 -2 -3 -3 -1 6 25 63 103 103 65 37 46 89 108 67 24 4 -2 -3 -3 -4 -4 -4 -4 -4 -4 -4 -4 -3 -3 1 17 58 107 88 37 8 0 -3 -3 -4 -4 -4 -4 -4 -3 -2 5 35 93 96 37 6 -1 -3 -4 -4 -4 -4 -4 -4 -4 -4 -4 -4 -4 -4 -4 -4 -4 -4 -4 -4 -3 -3 -1 6 34 87 106 56 15 0 -3 -3 -4 -4 -4 -4 -4 -3 -2 5 34 91 100 43 9 -1 -3 -3 -4 -3 -2 5 35 94 
94 35 5 -2 -3 -3 -3 -1 6 25 63 104 108 87 90 113 87 36 8 0 -3 -3 -4 -4 -4 -4 -4 -4 -4 -4 -3 -3 -1 6 34 87 107 59 17 1 -2 -3 -4 -4 -4 -4 -4 -4 -3 -2 4 32 89 101 43 9 -1 -3 -3 -4 -4 -4 -4 -4 -4 -4 -4 -4 -4 -4 -4 -4 -4 -4 -4 -4 -3 -3 0 15 56 106 87 34 6 -1 -3 -3 -4 -4 -4 -4 -3 -3 -1 9 43 100 91 34 5 -2 -3 -4 -4 -3 -2 5 35 94 
94 35 5 -2 -3 -3 -3 -3 -1 6 25 64 111 136 136 107 53 15 1 -2 -3 -4 -4 -4 -4 -4 -4 -4 -4 -4 -3 -2 1 17 59 107 87 34 6 -1 -3 -3 -4 -4 -4 -4 -4 -4 -3 -2 3 25 78 108 58 15 0 -3 -3 -4 -4 -4 -4 -4 -4 -4 -4 -4 -4 -4 -4 -4 -4 -4 -4 -4 -3 -2 3 27 80 108 61 17 1 -3 -3 -4 -4 -4 -4 -4 -3 -3 0 15 58 108 78 25 3 -2 -3 -4 -4 -3 -2 5 35 94 
94 35 5 -2 -3 -4 -4 -3 -3 -1 6 28 74 133 133 73 25 4 -2 -3 -3 -4 -4 -4 -4 -4 -4 -4 -4 -3 -3 0 8 37 88 107 58 17 1 -3 -3 -4 -4 -4 -4 -4 -4 -4 -3 -3 0 15 58 108 78 25 3 -2 -3 -4 -4 -4 -4 -4 -4 -4 -4 -4 -4 -4 -4 -4 -4 -4 -4 -3 -3 -1 8 41 97 97 41 8 -1 -3 -3 -4 -4 -4 -4 -4 -3 -2 3 25 78 108 58 15 0 -3 -3 -4 -4 -3 -2 5 35 94 
94 35 5 -2 -3 -4 -4 -4 -3 -3 0 11 47 108 111 49 12 0 -3 -3 -4 -4 -4 -4 -4 -4 -4 -4 -3 -3 -2 4 24 67 108 85 33 6 -1 -3 -3 -4 -4 -4 -4 -4 -4 -4 -3 -3 -1 9 43 101 89 31 4 -2 -3 -4 -4 -4 -4 -4 -4 -4 -4 -4 -4 -4 -4 -4 -4 -4 -4 -3 -3 1 17 61 108 80 27 3 -2 -3 -4 -4 -4 -4 -4 -4 -3 -2 5 34 91 100 43 9 -1 -3 -3 -4 -4 -3 -2 5 35 94 
94 35 5 -2 -3 -4 -4 -4 -3 -3 -1 6 34 93 105 46 10 0 -3 -3 -4 -4 -4 -4 -4 -4 -4 -4 -3 -3 0 15 52 101 101 52 15 0 -3 -3 -4 -4 -4 -4 -4 -4 -4 -4 -4 -3 -1 6 37 96 93 34 5 -2 -3 -4 -4 -4 -4 -4 -4 -4 -4 -4 -4 -4 -4 -4 -4 -4 -3 -3 -1 6 34 87 106 56 15 0 -3 -3 -4 -4 -4 -4 -4 -3 -3 -1 9 43 100 91 34 5 -2 -3 -4 -4 -4 -3 -2 5 35 94 
94 35 5 -2 -3 -4 -4 -4 -4 -3 -2 3 25 79 109 59 15 0 -3 -3 -4 -4 -4 -4 -4 -4 -4 -3 -3 -1 6 33 85 108 67 24 4 -2 -3 -3 -4 -4 -4 -4 -4 -4 -4 -4 -4 -3 -2 5 35 95 95 35 5 -2 -3 -4 -4 -4 -4 -4 -4 -4 -4 -4 -4 -4 -4 -4 -4 -4 -3 -3 0 15 56 106 87 34 6 -1 -3 -3 -4 -4 -4 -4 -4 -3 -3 0 15 58 108 78 25 3 -2 -3 -4 -4 -4 -3 -2 5 35 94 
94 35 5 -2 -3 -4 -4 -4 -4 -3 -3 0 15 58 108 78 25 3 -2 -3 -4 -4 -4 -4 -4 -4 -4 -3 -3 1 17 58 107 88 37 8 0 -3 -3 -4 -4 -4 -4 -4 -4 -4 -4 -4 -4 -3 -2 5 34 93 96 37 6 -1 -3 -4 -4 -4 -4 -4 -4 -4 -4 -4 -4 -4 -4 -4 -4 -4 -3 -2 3 27 80 108 61 17 1 -3 -3 -4 -4 -4 -4 -4 -4 -3 -2 3 25 78 108 58 15 0 -3 -3 -4 -4 -4 -3 -2 5 35 95 
95 35 5 -2 -3 -4 -4 -4 -4 -3 -3 -1 9 43 101 90 32 5 -2 -3 -4 -4 -4 -4 -4 -4 -3 -3 -1 6 34 87 107 59 17 1 -2 -3 -4 -4 -4 -4 -4 -4 -4 -4 -4 -4 -4 -3 -2 4 31 89 101 43 9 -1 -3 -3 -4 -4 -4 -4 -4 -4 -4 -4 -4 -4 -4 -4 -4 -3 -3 -1 8 41 97 97 41 8 -1 -3 -3 -4 -4 -4 -4 -4 -4 -3 -2 5 34 91 100 43 9 -1 -3 -3 -4 -4 -4 -3 -2 6 35 95 
95 35 5 -2 -3 -4 -4 -4 -4 -4 -3 -1 6 36 95 95 36 6 -1 -3 -4 -4 -4 -4 -4 -4 -3 -2 1 17 59 107 87 34 6 -1 -3 -3 -4 -4 -4 -4 -4 -4 -4 -4 -4 -4 -4 -3 -2 3 25 78 108 58 15 0 -3 -3 -4 -4 -4 -4 -4 -4 -4 -4 -4 -4 -4 -4 -4 -3 -3 1 17 61 108 80 27 3 -2 -3 -4 -4 -4 -4 -4 -4 -3 -3 -1 9 43 100 91 34 5 -2 -3 -4 -4 -4 -4 -3 -1 6 37 97 
97 35 5 -2 -3 -4 -4 -4 -4 -4 -3 -2 5 32 89 101 43 9 -1 -3 -3 -4 -4 -4 -4 -3 -3 0 8 37 88 107 58 17 1 -3 -3 -4 -4 -4 -4 -4 -4 -4 -4 -4 -4 -4 -4 -3 -3 0 15 58 108 78 25 3 -2 -3 -4 -4 -4 -4 -4 -4 -4 -4 -4 -4 -4 -4 -3 -3 -1 6 34 87 106 56 15 0 -3 -3 -4 -4 -4 -4 -4 -4 -3 -3 0 15 58 108 78 25 3 -2 -3 -4 -4 -4 -3 -3 -1 9 44 105 
100 35 5 -2 -3 -4 -4 -4 -4 -4 -3 -2 3 25 78 108 58 15 0 -3 -3 -4 -4 -4 -3 -3 -2 4 24 67 108 85 33 6 -1 -3 -3 -4 -4 -4 -4 -4 -4 -4 -4 -4 -4 -4 -4 -3 -3 -1 9 43 101 89 31 4 -2 -3 -4 -4 -4 -4 -4 -4 -4 -4 -4 -4 -4 -4 -3 -3 0 15 56 106 87 34 6 -1 -3 -3 -4 -4 -4 -4 -4 -4 -3 -2 3 25 78 108 58 15 0 -3 -3 -4 -4 -4 -3 -2 1 18 63 124 
102 35 5 -2 -3 -4 -4 -4 -4 -4 -3 -3 0 15 58 108 78 25 3 -2 -3 -4 -4 -4 -3 -3 0 15 52 101 101 52 15 0 -3 -3 -4 -4 -4 -4 -4 -4 -4 -4 -4 -4 -4 -4 -4 -4 -3 -1 6 37 96 93 34 5 -2 -3 -4 -4 -4 -4 -4 -4 -4 -4 -4 -4 -4 -4 -3 -2 3 27 80 108 61 17 1 -3 -3 -4 -4 -4 -4 -4 -4 -4 -3 -2 5 34 91 100 43 9 -1 -3 -3 -4 -4 -3 -3 0 8 37 94 144 
101 35 5 -2 -3 -4 -4 -4 -4 -4 -3 -3 -1 9 43 101 89 32 5 -2 -3 -4 -4 -3 -3 -1 6 33 85 108 67 24 4 -2 -3 -3 -4 -4 -4 -4 -4 -4 -4 -4 -4 -4 -4 -4 -4 -4 -3 -2 5 35 95 95 35 5 -2 -3 -4 -4 -4 -4 -4 -4 -4 -4 -4 -4 -4 -3 -3 -1 8 41 97 97 41 8 -1 -3 -3 -4 -4 -4 -4 -4 -4 -3 -3 -1 9 43 100 91 34 5 -2 -3 -4 -4 -3 -3 -2 4 24 68 123 148 
99 35 5 -2 -3 -4 -4 -4 -4 -4 -4 -3 -1 6 36 95 95 36 6 -1 -3 -4 -4 -3 -3 1 17 58 107 88 37 8 0 -3 -3 -4 -4 -4 -4 -4 -4 -4 -4 -4 -4 -4 -4 -4 -4 -4 -3 -2 5 34 93 96 37 6 -1 -3 -4 -4 -4 -4 -4 -4 -4 -4 -4 -4 -4 -3 -3 1 17 61 108 80 27 3 -2 -3 -4 -4 -4 -4 -4 -4 -4 -3 -3 0 15 58 108 78 25 3 -2 -3 -4 -4 -3 -2 1 15 53 104 128 135 
97 35 5 -2 -3 -4 -4 -4 -4 -4 -4 -3 -2 5 32 89 101 43 9 -1 -3 -3 -3 -3 -1 6 34 87 107 59 17 1 -2 -3 -4 -4 -4 -4 -4 -4 -4 -4 -4 -4 -4 -4 -4 -4 -4 -4 -3 -2 4 31 89 101 43 9 -1 -3 -3 -4 -4 -4 -4 -4 -4 -4 -4 -4 -3 -3 -1 6 34 87 106 56 15 0 -3 -3 -4 -4 -4 -4 -4 -4 -4 -3 -2 3 25 78 108 58 15 0 -3 -3 -4 -3 -3 0 8 36 87 114 102 116 
95 35 5 -2 -3 -4 -4 -4 -4 -4 -4 -3 -2 3 25 78 108 58 15 0 -3 -3 -3 -2 1 17 59 107 87 34 6 -1 -3 -3 -4 -4 -4 -4 -4 -4 -4 -4 -4 -4 -4 -4 -4 -4 -4 -4 -3 -2 3 25 78 108 58 15 0 -2 -3 -3 -3 -3 -4 -4 -4 -4 -4 -4 -3 -3 0 15 56 106 87 34 6 -1 -3 -3 -4 -4 -4 -4 -4 -4 -4 -3 -2 5 34 91 100 43 9 -1 -3 -3 -3 -3 -2 4 24 67 109 95 74 104 
95 35 5 -2 -3 -4 -4 -4 -4 -4 -4 -3 -3 0 15 58 108 78 25 3 -2 -3 -3 0 8 37 88 107 58 17 1 -3 -3 -4 -4 -4 -4 -4 -4 -4 -4 -4 -4 -4 -4 -4 -4 -4 -4 -4 -3 -3 0 16 59 109 79 27 4 0 -2 -2 -3 -3 -3 -3 -3 -3 -3 -3 -3 -2 3 27 80 108 61 17 1 -3 -3 -4 -4 -4 -4 -4 -4 -4 -3 -3 -1 9 43 100 91 34 5 -2 -3 -3 -3 -2 1 15 53 101 102 62 54 99 
95 35 5 -2 -3 -4 -4 -4 -4 -4 -4 -3 -3 -1 9 43 101 89 32 5 -2 -3 -2 4 24 67 108 85 33 6 -1 -3 -3 -4 -4 -4 -4 -4 -4 -4 -4 -4 -4 -4 -4 -4 -4 -4 -4 -4 -3 -3 0 11 47 105 95 40 14 7 5 3 0 -1 -1 -2 -2 -2 -2 -3 -3 0 8 41 97 97 41 8 -1 -3 -3 -4 -4 -4 -4 -4 -4 -4 -3 -3 0 15 58 108 78 25 3 -2 -3 -3 -3 0 8 36 86 108 69 33 43 96 
94 35 5 -2 -3 -4 -4 -4 -4 -4 -4 -4 -3 -1 6 36 95 95 36 6 -1 -2 0 15 52 101 101 52 15 0 -3 -3 -4 -4 -4 -4 -4 -4 -4 -4 -4 -4 -4 -4 -4 -4 -4 -4 -3 -3 -3 -1 2 16 52 113 117 69 43 36 32 25 15 9 6 5 5 4 3 0 0 3 19 61 108 80 27 3 -2 -3 -4 -4 -4 -4 -4 -4 -4 -4 -3 -2 3 25 78 108 58 15 0 -3 -3 -3 -2 4 24 67 108 87 38 18 38 95 
94 35 5 -2 -3 -4 -4 -4 -4 -4 -4 -4 -3 -2 5 32 89 101 43 9 0 -1 6 33 85 108 67 24 4 -2 -3 -3 -4 -4 -4 -4 -4 -4 -4 -4 -4 -4 -4 -4 -4 -4 -4 -3 -3 -2 0 4 16 40 81 135 144 116 100 94 89 78 58 43 37 35 34 31 25 16 11 16 41 90 107 56 15 0 -3 -3 -4 -4 -4 -4 -4 -4 -4 -4 -3 -2 5 34 91 100 43 9 -1 -3 -3 -2 1 15 53 101 101 53 17 11 36 95 
94 35 5 -2 -3 -4 -4 -4 -4 -4 -4 -4 -3 -2 3 25 78 108 58 15 1 1 17 58 107 88 37 8 0 -3 -3 -4 -4 -4 -4 -4 -4 -4 -4 -4 -4 -4 -4 -4 -4 -3 -3 -3 -2 1 8 24 53 88 115 124 113 101 96 96 101 108 108 101 96 95 93 89 78 59 47 52 81 117 90 35 6 -1 -3 -3 -4 -4 -4 -4 -4 -4 -4 -3 -3 -1 9 43 100 91 34 5 -2 -3 -3 0 8 36 86 108 67 24 6 7 35 94 
94 35 5 -2 -3 -4 -4 -4 -4 -4 -4 -4 -3 -3 0 15 58 108 78 25 5 8 34 87 107 59 17 1 -2 -3 -4 -4 -4 -4 -4 -4 -4 -4 -4 -4 -4 -4 -4 -4 -3 -3 -2 0 4 15 36 67 101 109 90 63 45 37 36 37 43 58 78 89 93 95 96 101 108 109 105 112 135 133 71 21 2 -2 -3 -4 -4 -4 -4 -4 -4 -4 -4 -3 -3 0 15 58 108 78 25 3 -2 -3 -2 4 24 67 108 86 36 8 0 6 35 94 
94 35 5 -2 -3 -4 -4 -4 -4 -4 -4 -4 -3 -3 -1 9 43 101 90 33 10 19 59 107 87 34 6 -1 -3 -3 -4 -4 -4 -4 -4 -4 -4 -4 -4 -4 -4 -4 -4 -3 -3 -2 1 8 24 53 86 108 101 67 37 18 9 6 6 6 9 15 25 31 34 35 37 43 58 79 93 109 135 132 72 22 2 -2 -3 -3 -4 -4 -4 -4 -4 -4 -3 -3 -2 3 25 78 108 58 15 0 -3 -2 1 15 53 101 101 53 15 1 -1 6 35 94 
94 35 5 -2 -3 -4 -4 -4 -4 -4 -4 -4 -4 -3 -1 6 36 95 95 39 19 39 88 107 58 17 1 -3 -3 -4 -4 -4 -4 -4 -4 -4 -4 -4 -4 -4 -4 -3 -3 -3 -1 3 15 36 67 101 108 86 53 24 8 1 -1 -1 -2 -1 -1 0 3 4 5 5 6 9 15 25 35 49 81 117 92 39 10 0 -2 -3 -3 -3 -3 -3 -3 -3 -3 -3 -1 6 34 91 100 43 9 -1 -2 0 8 36 86 108 67 24 4 -1 -1 5 35 94 
94 35 5 -2 -3 -4 -4 -4 -4 -4 -4 -4 -4 -3 -2 5 32 90 102 51 37 70 109 85 33 6 -1 -3 -3 -4 -4 -4 -4 -4 -4 -4 -4 -4 -4 -4 -3 -3 -2 0 5 22 52 86 108 101 67 36 15 4 0 -2 -3 -3 -3 -3 -3 -3 -2 -2 -2 -2 -1 -1 0 3 6 14 39 88 110 70 29 9 1 -1 -1 -2 -2 -2 -2 -2 -2 -1 0 10 44 101 92 34 5 -1 -1 4 24 67 108 86 36 8 0 -3 -2 5 35 94 
94 35 5 -2 -3 -4 -4 -4 -4 -4 -4 -4 -4 -3 -2 3 25 78 111 76 71 104 101 52 15 0 -3 -3 -4 -4 -4 -4 -4 -4 -4 -4 -4 -4 -3 -3 -3 -2 1 9 27 61 100 108 87 53 24 8 1 -2 -3 -3 -3 -4 -4 -4 -3 -3 -3 -3 -3 -3 -3 -3 -3 -2 -1 2 16 53 103 110 72 38 18 9 6 6 5 5 5 5 5 6 10 24 65 112 82 27 4 -1 1 15 53 101 101 53 15 1 -2 -3 -2 5 35 94 
94 35 5 -2 -3 -4 -4 -4 -4 -4 -4 -4 -4 -3 -3 0 15 58 113 110 109 112 67 24 4 -2 -3 -3 -4 -4 -4 -4 -4 -4 -4 -4 -4 -3 -3 -2 0 4 15 37 69 104 104 69 37 15 4 0 -2 -3 -3 -4 -4 -4 -4 -4 -4 -4 -4 -4 -4 -4 -4 -3 -3 -3 -3 -1 4 25 72 126 129 94 62 44 37 35 35 35 35 35 35 36 41 60 103 125 73 25 6 2 9 36 86 108 67 24 4 -2 -3 -3 -2 5 35 94 
94 35 5 -2 -3 -4 -4 -4 -4 -4 -4 -4 -4 -3 -3 -1 9 43 107 135 129 90 37 8 0 -3 -3 -4 -4 -4 -4 -4 -4 -4 -4 -3 -3 -3 -2 1 8 24 53 87 108 100 61 27 9 1 -2 -3 -3 -3 -4 -4 -4 -4 -4 -4 -4 -4 -4 -4 -4 -4 -4 -4 -4 -4 -3 -3 0 12 49 117 147 128 113 102 96 95 94 94 94 94 95 95 99 113 141 141 88 44 20 14 28 68 108 87 36 8 0 -3 -3 -3 -2 5 35 94 
94 35 5 -2 -3 -4 -4 -4 -4 -4 -4 -4 -4 -4 -3 -1 6 37 104 148 120 59 17 1 -2 -3 -4 -4 -4 -4 -4 -4 -4 -4 -3 -3 -2 0 4 15 36 67 101 108 86 52 22 5 0 -2 -3 -3 -4 -4 -4 -4 -4 -4 -4 -4 -4 -4 -4 -4 -4 -4 -4 -4 -4 -4 -3 -3 0 10 46 109 118 88 85 90 93 94 94 94 94 94 94 95 96 101 113 125 117 91 63 50 67 106 103 53 15 1 -2 -3 -3 -3 -2 5 35 94 
94 35 5 -2 -3 -4 -4 -4 -4 -4 -4 -4 -4 -4 -3 -2 5 35 103 144 93 34 6 -1 -3 -3 -4 -4 -4 -4 -4 -3 -3 -3 -3 -2 1 8 24 53 87 108 101 67 36 15 3 -1 -3 -3 -3 -4 -4 -4 -4 -4 -4 -4 -4 -4 -4 -4 -4 -4 -4 -4 -4 -4 -4 -4 -3 -3 0 15 59 111 87 43 32 33 34 35 35 35 35 35 35 35 35 37 44 62 89 108 111 109 121 123 74 26 4 -2 -3 -3 -4 -3 -2 5 35 94 
94 35 5 -2 -3 -4 -4 -4 -4 -4 -4 -4 -4 -4 -3 -2 5 35 100 123 62 17 1 -2 -3 -4 -4 -4 -4 -3 -3 -3 -3 -2 0 4 15 36 67 103 110 88 54 25 9 1 -1 -3 -3 -3 -3 -4 -4 -4 -4 -4 -4 -4 -4 -4 -4 -4 -4 -4 -4 -4 -4 -4 -4 -4 -3 -2 3 25 78 109 60 20 7 5 5 5 5 5 5 5 5 5 6 6 9 17 34 59 90 121 148 124 59 17 1 -2 -3 -4 -4 -3 -2 5 35 94 
94 35 5 -2 -3 -4 -4 -4 -4 -4 -4 -4 -4 -4 -3 -2 5 35 97 105 44 9 -1 -3 -3 -4 -4 -3 -3 -3 -3 -1 0 4 10 24 53 91 120 116 79 46 24 11 3 0 -1 -2 -3 -3 -3 -3 -3 -3 -3 -4 -4 -4 -4 -4 -4 -4 -4 -4 -4 -4 -4 -4 -4 -4 -3 -2 4 32 89 101 44 10 0 -1 -2 -2 -2 -2 -2 -2 -2 -2 -2 -1 -1 1 7 17 37 71 117 125 74 26 4 -2 -3 -3 -4 -3 -2 5 35 94 
94 35 5 -2 -3 -4 -4 -4 -4 -4 -4 -4 -4 -4 -3 -1 6 37 97 96 36 6 -1 -3 -3 -3 -3 -3 -3 -1 1 6 15 28 43 70 112 143 143 109 70 48 37 27 16 9 5 3 0 -1 -1 -2 -2 -3 -3 -3 -3 -3 -3 -4 -4 -4 -4 -4 -4 -4 -4 -4 -4 -4 -3 -2 5 35 93 96 37 6 -1 -3 -3 -3 -3 -3 -3 -3 -3 -3 -3 -3 -3 -2 -1 1 9 27 65 108 103 53 15 1 -2 -3 -3 -3 -2 5 35 94 
94 35 5 -2 -3 -4 -4 -4 -4 -4 -4 -4 -4 -3 -3 -1 9 43 101 90 32 5 -2 -3 -3 -3 -2 -1 1 6 17 33 56 80 98 114 121 121 125 121 107 97 90 78 58 43 34 25 15 9 6 5 3 0 -1 -2 -2 -3 -3 -3 -3 -3 -3 -3 -4 -4 -4 -4 -4 -4 -3 -1 6 37 96 93 35 5 -2 -3 -3 -4 -4 -4 -4 -4 -4 -4 -4 -4 -3 -3 -3 -2 0 6 27 69 109 87 36 8 0 -3 -3 -3 -2 5 35 94 
94 35 5 -2 -3 -4 -4 -4 -4 -4 -4 -4 -4 -3 -3 0 15 58 108 78 25 3 -2 -2 -1 0 3 8 17 34 58 87 106 108 97 81 62 52 61 79 90 95 101 108 108 100 91 78 58 43 36 32 25 15 8 5 3 0 -1 -1 -2 -2 -3 -3 -3 -3 -3 -3 -3 -3 -3 -1 9 43 101 89 32 4 -2 -3 -4 -4 -4 -4 -4 -4 -4 -4 -4 -4 -4 -4 -3 -3 -3 0 9 37 87 108 67 24 4 -2 -3 -3 -2 5 35 94 
94 35 5 -2 -3 -4 -4 -4 -4 -4 -4 -4 -4 -3 -2 3 25 78 108 58 16 1 0 1 6 15 27 41 61 87 107 107 87 61 41 27 16 12 16 25 32 36 43 58 78 91 100 108 108 101 95 89 78 58 43 34 25 15 9 6 5 3 0 -1 -2 -2 -3 -3 -3 -3 -3 0 15 58 108 78 25 3 -2 -3 -4 -4 -4 -4 -4 -4 -4 -4 -4 -4 -4 -4 -4 -4 -3 -2 1 15 53 101 101 53 15 1 -2 -3 -2 5 35 94 
94 35 5 -2 -3 -4 -4 -4 -4 -4 -4 -4 -4 -3 -2 5 32 90 101 44 11 3 7 17 33 56 80 97 108 106 87 58 34 17 8 4 0 0 0 3 5 6 9 15 25 34 43 58 78 89 95 101 108 108 100 91 78 58 43 36 32 25 15 8 5 3 0 -1 -1 -2 -1 3 25 78 108 58 15 0 -3 -3 -4 -4 -4 -4 -4 -4 -4 -4 -4 -4 -4 -4 -4 -4 -3 -3 -2 4 24 67 108 87 37 9 0 -2 -2 5 35 94 
94 35 5 -2 -3 -4 -4 -4 -4 -4 -4 -4 -4 -3 -1 6 36 95 97 42 17 19 34 58 87 106 108 97 80 56 33 17 6 1 -1 -2 -3 -3 -3 -2 -2 -1 -1 0 3 5 8 15 25 32 36 43 58 78 91 100 108 108 101 95 89 78 58 43 34 25 15 9 6 5 4 9 34 90 101 43 9 -1 -3 -3 -4 -4 -4 -4 -4 -4 -4 -4 -4 -4 -4 -4 -4 -4 -4 -3 -3 0 8 36 86 108 69 27 5 -1 -1 5 35 94 
94 35 5 -2 -3 -4 -4 -4 -4 -4 -4 -4 -3 -3 -1 9 44 103 100 53 43 60 87 107 107 87 61 41 27 15 6 1 -1 -3 -3 -3 -3 -3 -3 -3 -3 -3 -3 -3 -2 -2 -1 0 3 5 6 9 15 25 34 43 58 78 89 95 101 108 108 100 91 78 58 43 36 32 27 25 46 99 97 37 6 -1 -3 -4 -4 -4 -4 -4 -4 -4 -4 -4 -4 -4 -4 -4 -4 -4 -4 -4 -3 -2 1 15 52 100 104 61 22 4 0 6 35 94 
94 35 5 -2 -3 -4 -4 -4 -4 -4 -4 -4 -3 -2 1 17 62 122 115 88 93 108 107 87 58 34 17 8 3 0 -1 -3 -3 -3 -3 -4 -4 -4 -4 -4 -4 -4 -3 -3 -3 -3 -3 -3 -2 -2 -1 -1 0 3 5 8 15 25 32 36 43 58 78 91 100 108 108 101 95 90 80 67 77 117 98 35 5 -2 -3 -4 -4 -4 -4 -4 -4 -4 -4 -4 -4 -4 -4 -4 -4 -4 -4 -4 -3 -3 -2 3 22 61 104 100 52 16 3 7 35 94 
94 35 5 -2 -3 -4 -4 -4 -4 -4 -4 -3 -3 -1 6 34 94 145 137 120 108 87 58 34 17 6 1 -1 -2 -3 -3 -3 -3 -4 -4 -4 -4 -4 -4 -4 -4 -4 -4 -4 -4 -4 -3 -3 -3 -3 -3 -3 -3 -2 -2 -1 0 3 5 6 9 15 25 34 43 58 78 89 95 101 109 114 124 144 102 35 5 -2 -3 -4 -4 -4 -4 -4 -4 -4 -4 -4 -4 -4 -4 -4 -4 -4 -4 -4 -4 -3 -3 -1 5 27 69 108 86 37 11 9 36 95 
94 35 5 -2 -3 -4 -4 -4 -4 -4 -4 -3 -2 1 17 59 117 131 107 82 56 33 17 6 1 -1 -3 -3 -3 -3 -3 -4 -4 -4 -4 -4 -4 -4 -4 -4 -4 -4 -4 -4 -4 -4 -4 -4 -4 -4 -4 -3 -3 -3 -3 -3 -3 -2 -2 -1 -1 0 3 5 8 15 25 32 36 43 60 85 114 142 102 35 5 -2 -3 -4 -4 -4 -4 -4 -4 -4 -4 -4 -4 -4 -4 -4 -4 -4 -4 -4 -4 -4 -3 -3 0 9 36 86 108 69 28 15 37 95 
95 35 5 -2 -3 -4 -4 -4 -4 -4 -3 -3 0 8 37 89 114 79 46 28 15 6 1 -1 -3 -3 -3 -3 -4 -4 -4 -4 -4 -4 -4 -4 -4 -4 -4 -4 -4 -4 -4 -4 -4 -4 -4 -4 -4 -4 -4 -4 -4 -4 -4 -3 -3 -3 -3 -3 -3 -3 -2 -2 -1 0 3 5 6 9 17 34 66 115 98 35 5 -2 -3 -4 -4 -4 -4 -4 -4 -4 -4 -4 -4 -4 -4 -4 -4 -4 -4 -4 -4 -4 -4 -3 -2 1 15 52 100 104 63 32 42 96 
95 35 5 -2 -3 -4 -4 -4 -4 -3 -3 -2 4 24 67 109 88 39 14 4 0 -1 -3 -3 -3 -3 -4 -4 -4 -4 -4 -4 -4 -4 -4 -4 -4 -4 -4 -4 -4 -4 -4 -4 -4 -4 -4 -4 -4 -4 -4 -4 -4 -4 -4 -4 -4 -4 -4 -4 -3 -3 -3 -3 -3 -3 -2 -2 -1 0 2 12 43 100 95 35 5 -2 -3 -4 -4 -4 -4 -4 -4 -4 -4 -4 -4 -4 -4 -4 -4 -4 -4 -4 -4 -4 -4 -3 -3 -2 3 22 61 104 101 61 54 99 
95 35 5 -2 -3 -4 -4 -4 -4 -3 -2 1 15 53 101 101 53 16 2 -1 -3 -3 -3 -3 -4 -4 -4 -4 -4 -4 -4 -4 -4 -4 -4 -4 -4 -4 -4 -4 -4 -4 -4 -4 -4 -4 -4 -4 -4 -4 -4 -4 -4 -4 -4 -4 -4 -4 -4 -4 -4 -4 -4 -4 -3 -3 -3 -3 -3 -3 -1 7 36 95 95 36 6 -2 -3 -4 -4 -4 -4 -4 -4 -4 -4 -4 -4 -4 -4 -4 -4 -4 -4 -4 -4 -4 -4 -4 -3 -3 -1 5 27 69 109 94 74 104 
97 35 5 -2 -3 -4 -4 -4 -3 -3 0 9 37 87 108 67 24 4 -1 -3 -3 -3 -3 -4 -4 -4 -4 -4 -4 -4 -4 -4 -4 -4 -4 -4 -4 -4 -4 -4 -4 -4 -4 -4 -4 -4 -4 -4 -4 -4 -4 -4 -4 -4 -4 -4 -4 -4 -4 -4 -4 -4 -4 -4 -4 -4 -4 -4 -3 -3 -1 6 35 94 97 38 7 -1 -3 -3 -4 -4 -4 -4 -4 -4 -4 -4 -4 -4 -4 -4 -4 -4 -4 -4 -4 -4 -4 -4 -4 -3 -3 0 9 37 87 114 102 116 
99 35 5 -2 -3 -4 -4 -3 -3 -1 6 27 69 109 88 38 9 0 -2 -3 -3 -3 -3 -3 -3 -3 -3 -3 -3 -3 -3 -4 -4 -4 -4 -4 -4 -4 -4 -4 -4 -4 -4 -4 -4 -4 -4 -4 -4 -4 -4 -4 -4 -4 -4 -4 -4 -4 -4 -4 -4 -4 -4 -4 -4 -4 -4 -4 -3 -3 -1 7 36 95 105 47 12 0 -2 -3 -3 -3 -4 -4 -4 -4 -4 -4 -4 -4 -4 -4 -4 -4 -4 -4 -4 -4 -4 -4 -4 -4 -3 -2 1 15 53 104 128 135 
101 35 5 -2 -3 -3 -3 -3 -1 6 25 64 108 107 61 24 8 1 -1 -1 -2 -2 -2 -2 -2 -2 -2 -2 -2 -3 -3 -3 -3 -3 -3 -3 -3 -3 -3 -3 -3 -3 -4 -4 -4 -4 -4 -4 -4 -4 -4 -4 -4 -4 -4 -4 -4 -4 -4 -4 -4 -4 -4 -4 -4 -4 -3 -3 -3 -2 2 13 43 101 125 75 30 9 1 -1 -3 -3 -3 -4 -4 -4 -4 -4 -4 -4 -4 -4 -4 -4 -4 -4 -4 -4 -4 -4 -4 -4 -3 -3 -2 4 24 68 123 148 
102 35 5 -2 -3 -3 -3 -1 6 25 64 113 129 96 59 39 27 16 9 6 6 5 5 5 5 5 5 4 3 0 -1 -1 -2 -2 -2 -2 -2 -2 -2 -2 -3 -3 -3 -3 -3 -3 -3 -3 -3 -3 -3 -3 -3 -3 -4 -4 -4 -4 -4 -4 -4 -4 -4 -4 -3 -3 -3 -2 0 4 15 37 71 120 148 120 71 37 17 6 0 -2 -3 -3 -3 -4 -4 -4 -4 -4 -4 -4 -4 -4 -4 -4 -4 -4 -4 -4 -4 -4 -4 -3 -3 0 8 37 94 144 
100 35 5 -2 -3 -3 -1 6 25 63 115 148 140 117 101 91 78 58 43 37 35 35 35 35 35 35 34 31 25 15 9 6 6 5 5 5 5 5 4 3 0 -1 -1 -2 -2 -2 -2 -2 -2 -2 -2 -2 -3 -3 -3 -3 -3 -3 -3 -3 -3 -3 -3 -3 -3 -3 -1 1 8 24 52 86 111 121 122 123 113 89 59 33 15 4 0 -2 -3 -3 -3 -4 -4 -4 -4 -4 -4 -4 -4 -4 -4 -4 -4 -4 -4 -4 -4 -4 -3 -2 1 18 63 124 
97 35 5 -1 -2 0 6 25 63 106 122 114 104 98 97 101 108 108 101 96 95 94 94 94 94 94 93 89 78 58 43 37 35 35 35 35 35 34 31 25 15 9 6 6 5 5 5 5 5 5 4 3 0 -1 -1 -2 -2 -2 -2 -2 -2 -2 -2 -2 -2 0 6 17 37 67 101 108 90 65 54 64 89 107 107 85 52 24 8 1 -1 -3 -3 -3 -4 -4 -4 -4 -4 -4 -4 -4 -4 -4 -4 -4 -4 -4 -4 -4 -3 -3 -1 9 44 105 
95 35 6 0 0 6 25 63 103 106 73 47 38 36 37 43 58 78 89 93 94 94 94 94 94 95 96 101 108 108 101 96 95 94 94 94 94 93 89 78 58 43 37 35 35 35 35 35 35 34 31 25 15 9 6 6 5 5 5 5 5 4 3 2 5 15 33 58 88 108 101 67 37 19 13 18 35 59 88 108 101 67 37 17 6 0 -2 -3 -3 -3 -4 -4 -4 -4 -4 -4 -4 -4 -4 -4 -4 -4 -4 -4 -4 -3 -1 6 37 97 
95 36 7 3 9 27 63 103 103 64 28 12 7 6 6 9 15 25 31 34 35 35 35 35 35 35 37 43 58 78 89 93 94 94 94 94 95 96 101 108 108 101 96 95 94 94 94 94 94 93 89 78 58 43 37 35 35 35 35 35 34 32 26 21 28 53 85 107 107 85 52 24 8 1 0 1 7 17 37 67 101 108 88 58 33 15 4 0 -2 -3 -3 -3 -4 -4 -4 -4 -4 -4 -4 -4 -4 -4 -4 -4 -4 -3 -2 6 35 95 
95 37 13 17 37 69 104 103 62 25 6 0 -1 -2 -1 -1 0 3 4 5 5 5 5 5 5 6 6 9 15 25 31 34 35 35 35 35 35 37 43 58 78 89 93 94 94 94 94 94 95 96 101 108 108 101 96 95 94 94 94 94 93 90 81 71 80 105 109 88 58 33 15 4 0 -2 -3 -2 -1 1 8 24 52 85 107 107 85 52 24 8 1 -1 -3 -3 -3 -4 -4 -4 -4 -4 -4 -4 -4 -4 -4 -4 -4 -3 -2 5 35 95 
97 44 31 54 87 108 100 61 25 6 -1 -3 -3 -3 -3 -3 -3 -2 -2 -2 -2 -2 -2 -2 -2 -2 -1 -1 0 3 4 5 5 5 5 5 6 6 9 15 25 31 34 35 35 35 35 35 35 37 43 58 78 89 93 94 94 94 94 95 97 104 119 133 134 112 70 37 17 6 0 -2 -3 -3 -3 -3 -3 -2 0 4 15 33 58 88 108 101 67 37 17 6 0 -2 -3 -3 -3 -4 -4 -4 -4 -4 -4 -4 -4 -4 -4 -3 -2 5 35 95 
103 63 70 101 108 86 52 22 5 -1 -3 -3 -3 -4 -4 -3 -3 -3 -3 -3 -3 -3 -3 -3 -3 -3 -3 -3 -3 -2 -2 -2 -2 -2 -2 -2 -2 -1 -1 0 3 4 5 5 5 5 5 5 6 6 9 15 25 31 34 35 35 35 35 36 38 50 84 135 134 75 30 9 1 -1 -3 -3 -3 -4 -4 -4 -3 -3 -3 -2 0 6 17 37 67 101 108 88 58 33 15 4 0 -2 -3 -3 -3 -4 -4 -4 -4 -4 -4 -4 -4 -3 -2 5 35 95 
117 98 110 105 69 37 15 3 -1 -3 -3 -4 -4 -4 -4 -4 -4 -4 -4 -4 -4 -4 -4 -4 -4 -4 -4 -3 -3 -3 -3 -3 -3 -3 -3 -3 -3 -3 -3 -3 -2 -2 -2 -2 -2 -2 -2 -2 -2 -1 -1 0 3 4 5 5 5 5 5 6 8 18 51 111 110 48 12 0 -2 -3 -3 -3 -4 -4 -4 -4 -4 -4 -3 -3 -3 -1 1 8 24 52 85 107 107 85 52 24 8 1 -1 -3 -3 -3 -3 -4 -4 -4 -4 -4 -4 -3 -2 5 35 97 
139 129 107 63 27 9 1 -2 -3 -3 -4 -4 -4 -4 -4 -4 -4 -4 -4 -4 -4 -4 -4 -4 -4 -4 -4 -4 -4 -4 -4 -4 -4 -4 -4 -4 -4 -4 -3 -3 -3 -3 -3 -3 -3 -3 -3 -3 -3 -3 -3 -3 -2 -2 -2 -2 -2 -2 -2 -1 0 8 39 98 98 38 7 -1 -3 -3 -4 -4 -4 -4 -4 -4 -4 -4 -4 -3 -3 -3 -2 0 4 15 33 58 88 108 101 67 37 17 6 1 -1 -3 -3 -3 -4 -4 -4 -4 -4 -3 -2 5 35 100 
149 116 64 25 6 0 -2 -3 -3 -4 -4 -4 -4 -4 -4 -4 -4 -4 -4 -4 -4 -4 -4 -4 -4 -4 -4 -4 -4 -4 -4 -4 -4 -4 -4 -4 -4 -4 -4 -4 -4 -4 -4 -4 -4 -4 -4 -4 -4 -4 -3 -3 -3 -3 -3 -3 -3 -3 -3 -3 -1 6 36 95 95 36 6 -2 -3 -4 -4 -4 -4 -4 -4 -4 -4 -4 -4 -4 -4 -3 -3 -3 -2 0 6 17 37 67 101 108 88 59 34 17 6 0 -2 -3 -3 -3 -4 -4 -3 -3 -2 5 35 103 
129 74 28 6 0 -3 -3 -3 -4 -4 -4 -4 -4 -4 -4 -4 -4 -4 -4 -4 -4 -4 -4 -4 -4 -4 -4 -4 -4 -4 -4 -4 -4 -4 -4 -4 -4 -4 -4 -4 -4 -4 -4 -4 -4 -4 -4 -4 -4 -4 -4 -4 -4 -4 -4 -4 -4 -4 -3 -3 -2 5 35 95 95 35 5 -2 -3 -4 -4 -4 -4 -4 -4 -4 -4 -4 -4 -4 -4 -4 -4 -3 -3 -3 -1 1 8 24 52 85 107 107 87 58 33 15 4 0 -2 -3 -3 -3 -3 -3 -2 5 35 100 
107 47 12 0 -3 -3 -4 -4 -4 -4 -4 -4 -4 -4 -4 -4 -4 -4 -4 -4 -4 -4 -4 -4 -4 -4 -4 -4 -4 -4 -4 -4 -4 -4 -4 -4 -4 -4 -4 -4 -4 -4 -4 -4 -4 -4 -4 -4 -4 -4 -4 -4 -4 -4 -4 -4 -4 -4 -4 -3 -2 5 35 94 94 35 5 -2 -3 -4 -4 -4 -4 -4 -4 -4 -4 -4 -4 -4 -4 -4 -4 -4 -3 -3 -3 -2 0 4 15 33 58 87 107 107 85 52 24 8 1 -1 -2 -2 -3 -3 -1 5 35 97 
98 38 7 -1 -3 -3 -4 -4 -4 -4 -4 -4 -4 -4 -4 -4 -4 -4 -4 -4 -4 -4 -4 -4 -4 -4 -4 -4 -4 -4 -4 -4 -4 -4 -4 -4 -4 -4 -4 -4 -4 -4 -4 -4 -4 -4 -4 -4 -4 -4 -4 -4 -4 -4 -4 -4 -4 -4 -4 -3 -2 5 35 94 94 35 5 -2 -3 -4 -4 -4 -4 -4 -4 -4 -4 -4 -4 -4 -4 -4 -4 -4 -4 -4 -3 -3 -3 -2 0 6 17 34 59 89 109 102 68 37 18 9 5 3 0 -1 0 7 36 95 
95 36 6 -2 -3 -3 -4 -4 -4 -4 -4 -4 -4 -4 -4 -4 -4 -4 -4 -4 -4 -4 -4 -4 -4 -4 -4 -4 -4 -4 -4 -4 -4 -4 -4 -4 -4 -4 -4 -4 -4 -4 -4 -4 -4 -4 -4 -4 -4 -4 -4 -4 -4 -4 -4 -4 -4 -4 -4 -3 -2 5 35 94 94 35 5 -2 -3 -4 -4 -4 -4 -4 -4 -4 -4 -4 -4 -4 -4 -4 -4 -4 -4 -4 -4 -4 -3 -3 -3 -1 1 7 19 40 72 109 117 94 63 43 34 25 15 9 7 13 39 96 
96 35 6 -1 -3 -3 -3 -3 -3 -3 -3 -4 -4 -4 -4 -4 -4 -4 -4 -4 -4 -4 -4 -4 -4 -4 -4 -4 -4 -4 -4 -4 -4 -4 -4 -4 -4 -4 -4 -4 -4 -4 -4 -4 -4 -4 -4 -4 -4 -4 -4 -4 -4 -4 -4 -4 -4 -4 -4 -3 -2 5 35 94 94 35 5 -2 -3 -4 -4 -4 -4 -4 -4 -4 -4 -4 -4 -4 -4 -4 -4 -4 -4 -4 -4 -3 -3 -3 -3 -2 0 2 9 21 45 88 131 145 126 105 92 79 58 43 35 35 53 103 
99 37 7 0 -1 -2 -2 -2 -2 -3 -3 -3 -3 -3 -3 -3 -3 -3 -3 -4 -4 -4 -4 -4 -4 -4 -4 -4 -4 -4 -4 -4 -4 -4 -4 -4 -4 -4 -4 -4 -4 -4 -4 -4 -4 -4 -4 -4 -4 -4 -4 -4 -4 -4 -4 -4 -4 -4 -4 -3 -2 5 35 94 94 35 5 -2 -3 -4 -4 -4 -4 -4 -4 -4 -4 -4 -4 -4 -4 -4 -4 -4 -4 -3 -3 -3 -3 -2 -1 1 6 15 28 44 68 103 130 129 112 101 102 109 108 100 93 87 91 122 
108 44 15 7 6 5 5 4 3 0 -1 -1 -2 -2 -2 -2 -2 -3 -3 -3 -3 -3 -3 -3 -3 -3 -3 -3 -4 -4 -4 -4 -4 -4 -4 -4 -4 -4 -4 -4 -4 -4 -4 -4 -4 -4 -4 -4 -4 -4 -4 -4 -4 -4 -4 -4 -4 -4 -4 -3 -2 5 35 94 94 35 5 -2 -3 -4 -4 -4 -4 -4 -4 -4 -4 -4 -4 -4 -4 -4 -3 -3 -3 -3 -3 -1 0 3 8 17 34 56 80 97 109 108 89 63 45 39 44 58 78 91 101 114 131 148 
124 70 44 37 35 35 34 31 25 15 9 6 6 5 5 4 3 0 -1 -1 -2 -2 -2 -2 -2 -2 -3 -3 -3 -3 -3 -3 -3 -3 -3 -3 -4 -4 -4 -4 -4 -4 -4 -4 -4 -4 -4 -4 -4 -4 -4 -4 -4 -4 -4 -4 -4 -4 -4 -3 -2 5 35 94 94 35 5 -2 -3 -4 -4 -4 -4 -4 -4 -4 -4 -4 -4 -4 -3 -3 -3 -3 -2 -1 1 6 15 27 41 61 87 106 108 97 80 56 34 17 9 7 9 15 25 34 44 65 104 144 
148 119 101 96 95 94 93 89 78 58 43 37 35 35 34 31 25 15 9 6 6 5 5 5 4 3 0 -1 -1 -2 -2 -2 -2 -2 -3 -3 -3 -3 -3 -3 -3 -3 -3 -3 -3 -4 -4 -4 -4 -4 -4 -4 -4 -4 -4 -4 -4 -4 -4 -3 -2 5 35 94 94 35 5 -2 -3 -4 -4 -4 -4 -4 -4 -4 -4 -4 -3 -3 -3 -3 -1 0 3 8 17 34 56 80 97 108 106 87 61 41 27 15 6 1 -1 -1 -1 0 3 5 10 24 60 122 
144 119 101 96 95 95 96 101 108 108 101 96 95 94 93 89 78 58 43 37 35 35 35 34 31 25 15 9 6 6 5 5 4 3 0 -1 -1 -2 -2 -2 -2 -2 -2 -3 -3 -3 -3 -3 -3 -3 -3 -3 -3 -4 -4 -4 -4 -4 -3 -3 -2 5 35 94 94 35 5 -2 -3 -4 -4 -4 -4 -4 -4 -3 -3 -3 -3 -3 -1 1 6 15 27 41 61 87 106 108 97 80 56 34 17 8 3 0 -1 -3 -3 -3 -3 -3 -2 -1 0 9 41 107 
115 69 44 37 35 35 37 43 58 78 89 93 94 95 96 101 108 108 101 96 95 94 94 93 89 78 58 43 37 35 35 34 31 25 15 9 6 6 5 5 5 4 3 0 -1 -1 -2 -2 -2 -2 -2 -3 -3 -3 -3 -3 -3 -3 -3 -3 -2 5 35 94 94 35 5 -2 -3 -4 -4 -4 -4 -3 -3 -3 -3 -2 -1 1 6 17 33 56 80 97 108 106 87 61 41 27 15 6 1 -1 -2 -3 -3 -3 -3 -3 -3 -3 -3 -3 -1 6 36 99 
100 44 15 7 6 6 6 9 15 25 31 34 35 35 37 43 58 78 89 93 94 94 95 96 101 108 108 101 96 95 94 93 89 78 58 43 37 35 35 35 34 31 25 15 9 6 6 5 5 4 3 0 -1 -1 -2 -2 -2 -2 -2 -2 -1 6 35 95 95 35 5 -2 -3 -3 -3 -3 -3 -3 -3 -1 0 3 8 17 34 58 87 106 108 97 80 56 34 17 8 3 0 -1 -3 -3 -3 -3 -3 -4 -4 -4 -4 -4 -3 -3 -2 5 35 95 
96 37 7 0 -1 -2 -1 -1 0 3 4 5 5 6 6 9 15 25 31 34 35 35 35 37 43 58 78 89 93 94 95 96 101 108 108 101 96 95 94 94 93 89 78 58 43 37 35 35 34 31 25 15 9 6 6 5 5 5 4 3 2 8 37 96 95 36 6 -2 -3 -3 -3 -3 -2 -1 1 6 15 27 41 61 87 107 107 87 61 41 27 15 6 1 -1 -2 -3 -3 -3 -3 -4 -4 -4 -4 -4 -4 -4 -4 -4 -3 -2 5 35 95 
95 35 6 -1 -3 -3 -3 -3 -3 -2 -2 -2 -2 -2 -1 -1 0 3 4 5 5 5 6 6 9 15 25 31 34 35 35 37 43 58 78 89 93 94 94 95 96 101 108 108 101 96 95 94 93 89 78 58 43 37 35 35 35 34 31 25 17 18 45 101 99 38 7 -1 -3 -2 -1 0 3 8 17 34 56 80 97 108 106 87 58 34 17 8 3 0 -1 -3 -3 -3 -3 -3 -4 -4 -4 -4 -4 -4 -4 -4 -4 -4 -4 -3 -2 5 35 94 
94 35 5 -2 -3 -3 -4 -3 -3 -3 -3 -3 -3 -3 -3 -3 -3 -2 -2 -2 -2 -2 -2 -1 -1 0 3 4 5 5 6 6 9 15 25 31 34 35 35 35 37 43 58 78 89 93 94 95 96 101 108 108 101 96 95 94 94 93 89 78 60 52 71 118 111 48 12 1 0 1 6 15 27 41 61 87 106 108 97 80 56 33 17 6 1 -1 -2 -3 -3 -3 -3 -4 -4 -4 -4 -4 -4 -4 -4 -4 -4 -4 -4 -4 -4 -3 -2 5 35 94 
94 35 5 -2 -3 -4 -4 -4 -4 -4 -4 -4 -4 -4 -4 -3 -3 -3 -3 -3 -3 -3 -3 -3 -3 -3 -2 -2 -2 -2 -2 -1 -1 0 3 4 5 5 5 6 6 9 15 25 31 34 35 35 37 43 58 78 89 93 94 94 95 96 101 108 109 106 117 145 134 75 31 13 11 18 34 56 80 97 108 106 87 61 41 27 15 6 1 -1 -3 -3 -3 -3 -3 -4 -4 -4 -4 -4 -4 -4 -4 -4 -4 -4 -4 -4 -4 -4 -4 -3 -2 5 35 94 
94 35 5 -2 -3 -4 -4 -4 -4 -4 -4 -4 -4 -4 -4 -4 -4 -4 -4 -4 -4 -4 -4 -4 -3 -3 -3 -3 -3 -3 -3 -3 -3 -3 -2 -2 -2 -2 -2 -2 -1 -1 0 3 4 5 5 6 6 9 15 25 31 34 35 35 35 37 43 58 78 90 100 114 127 112 75 50 47 62 87 106 108 97 80 56 34 17 8 3 0 -1 -3 -3 -3 -3 -4 -4 -4 -4 -4 -4 -4 -4 -4 -4 -4 -4 -4 -4 -4 -4 -4 -4 -4 -3 -2 5 35 94 
94 35 5 -2 -3 -4 -4 -4 -4 -4 -4 -4 -4 -4 -4 -4 -4 -4 -4 -4 -4 -4 -4 -4 -4 -4 -4 -4 -4 -4 -4 -4 -3 -3 -3 -3 -3 -3 -3 -3 -3 -3 -3 -2 -2 -2 -2 -2 -1 -1 0 3 4 5 5 5 6 6 9 15 25 32 37 48 74 112 127 117 108 111 107 87 61 41 27 15 6 1 -1 -2 -3 -3 -3 -3 -4 -4 -4 -4 -4 -4 -4 -4 -4 -4 -4 -4 -4 -4 -4 -4 -4 -4 -4 -4 -4 -3 -2 5 35 94 
94 35 5 -2 -3 -3 -4 -4 -4 -4 -4 -4 -4 -4 -4 -4 -4 -4 -4 -4 -4 -4 -4 -4 -4 -4 -4 -4 -4 -4 -4 -4 -4 -3 -3 -3 -3 -3 -3 -3 -3 -3 -3 -3 -3 -3 -3 -3 -3 -3 -3 -2 -2 -2 -2 -2 -2 -1 -1 0 3 5 7 12 31 75 134 144 112 84 56 34 17 8 3 0 -1 -2 -3 -3 -3 -3 -3 -4 -4 -4 -4 -4 -4 -4 -4 -4 -4 -4 -4 -4 -4 -4 -4 -4 -4 -4 -4 -4 -3 -3 -2 5 35 94 
95 35 6 -1 -3 -3 -3 -3 -3 -3 -3 -3 -3 -3 -3 -3 -3 -3 -3 -3 -3 -3 -3 -3 -3 -3 -3 -3 -3 -3 -3 -3 -3 -3 -3 -3 -3 -3 -3 -3 -3 -3 -3 -3 -3 -3 -3 -3 -3 -3 -3 -3 -3 -3 -3 -3 -3 -3 -3 -2 -2 -1 -1 1 12 48 111 118 66 34 16 7 1 -1 -2 -2 -3 -3 -3 -3 -3 -3 -3 -3 -3 -3 -3 -3 -3 -3 -3 -3 -3 -3 -3 -3 -3 -3 -3 -3 -3 -3 -3 -3 -3 -3 -1 6 35 95 
96 37 7 0 -1 -2 -2 -2 -2 -2 -2 -2 -2 -2 -2 -2 -2 -2 -2 -2 -2 -2 -2 -2 -2 -2 -2 -2 -2 -2 -2 -2 -2 -2 -2 -2 -2 -2 -2 -2 -2 -2 -2 -2 -2 -2 -2 -2 -2 -2 -2 -2 -2 -2 -2 -2 -2 -2 -2 -2 -1 -1 -1 0 9 40 100 102 45 14 3 0 -1 -1 -1 -2 -2 -2 -2 -2 -2 -2 -2 -2 -2 -2 -2 -2 -2 -2 -2 -2 -2 -2 -2 -2 -2 -2 -2 -2 -2 -2 -2 -2 -2 -1 0 7 37 96 
101 44 15 7 6 5 5 5 5 5 5 5 5 5 5 5 5 5 5 5 5 5 5 5 5 5 5 5 5 5 5 5 5 5 5 5 5 5 5 5 5 5 5 5 5 5 5 5 5 5 5 5 5 5 5 5 5 5 5 5 5 5 6 7 15 44 102 102 45 16 8 6 6 5 5 5 5 5 5 5 5 5 5 5 5 5 5 5 5 5 5 5 5 5 5 5 5 5 5 5 5 5 5 5 5 5 7 15 44 101 
120 70 44 37 35 35 35 35 35 35 35 35 35 35 35 35 35 35 35 35 35 35 35 35 35 35 35 35 35 35 35 35 35 35 35 35 35 35 35 35 35 35 35 35 35 35 35 35 35 35 35 35 35 35 35 35 35 35 35 35 35 35 35 37 44 70 119 119 70 44 37 35 35 35 35 35 35 35 35 35 35 35 35 35 35 35 35 35 35 35 35 35 35 35 35 35 35 35 35 35 35 35 35 35 35 35 37 44 70 120 
154 120 101 96 95 94 94 94 94 94 94 94 94 94 94 94 94 94 94 94 94 94 94 94 94 94 94 94 94 95 95 97 100 103 100 97 95 95 94 94 94 94 94 94 94 94 95 95 98 102 102 98 95 95 94 94 94 94 94 94 94 94 95 96 100 115 143 143 115 100 96 95 94 94 94 94 94 94 94 94 94 94 94 94 94 94 94 94 95 95 96 100 103 101 97 95 95 94 94 94 95 95 96 100 103 101 98 102 120 155 
