P2
110 110
255
115 69 63 62 62 62 62 62 62 62 62 62 62 62 62 62 62 62 62 62 62 62 62 62 62 62 62 62 62 62 62 65 83 139 105 67 63 62 62 62 62 62 62 62 62 62 62 63 69 113 113 69 63 62 62 62 62 62 62 62 62 62 62 62 62 62 64 64 62 62 62 62 62 62 62 62 62 62 62 62 62 62 62 62 62 62 62 62 62 62 64 79 139 105 67 63 62 62 62 62 62 62 64 79 139 105 67 63 69 115 
69 9 1 0 0 0 0 0 0 0 0 0 0 0 0 0 0 0 0 0 0 0 0 0 0 0 0 0 0 0 2 19 95 91 18 2 0 0 0 0 0 0 0 0 0 0 0 1 9 69 69 9 1 0 0 0 0 0 0 0 0 0 0 0 0 0 0 0 0 0 0 0 0 0 0 0 0 0 0 0 0 0 0 0 0 0 0 0 0 1 9 65 97 19 2 0 0 0 0 0 0 1 7 61 98 19 2 1 9 69 
63 1 -7 -7 -7 -7 -7 -7 -7 -7 -7 -7 -7 -7 -7 -7 -7 -7 -7 -7 -7 -7 -7 -7 -7 -7 -7 -7 -7 -6 1 58 95 17 -4 -7 -7 -7 -7 -7 -7 -7 -7 -7 -7 -7 -7 -6 2 68 63 1 -7 -7 -7 -7 -7 -7 -7 -7 -7 -7 -7 -7 -7 -7 -7 -7 -7 -7 -7 -7 -7 -7 -7 -7 -7 -7 -7 -7 -7 -7 -7 -7 -7 -7 -7 -7 -7 -5 12 94 58 0 -6 -7 -7 -7 -7 -7 -7 -7 1 62 67 2 -6 -6 1 63 
62 0 -7 -8 -8 -8 -8 -8 -8 -8 -8 -8 -8 -8 -8 -8 -8 -8 -8 -8 -8 -8 -8 -8 -8 -8 -8 -8 -7 -4 17 95 58 0 -7 -8 -8 -8 -8 -8 -8 -8 -8 -8 -8 -8 -8 -6 12 104 64 0 -7 -8 -8 -8 -8 -8 -8 -8 -8 -8 -8 -8 -8 -8 -8 -8 -8 -8 -8 -8 -8 -8 -8 -8 -8 -8 -8 -8 -8 -8 -8 -8 -8 -8 -8 -8 -7 0 53 95 12 -6 -8 -8 -8 -8 -8 -8 -8 -7 1 66 62 0 -7 -7 0 62 
62 0 -7 -8 -8 -8 -8 -8 -8 -8 -8 -8 -8 -8 -8 -8 -8 -8 -8 -8 -8 -8 -8 -8 -8 -8 -8 -8 -6 11 88 88 11 -6 -8 -8 -8 -8 -8 -8 -8 -8 -8 -8 -8 -8 -7 0 59 143 65 0 -7 -8 -8 -8 -8 -8 -8 -8 -8 -8 -8 -8 -8 -8 -8 -8 -8 -8 -8 -8 -8 -8 -8 -8 -8 -8 -8 -8 -8 -8 -8 -8 -8 -8 -8 -8 -7 1 66 66 1 -7 -8 -8 -8 -8 -8 -8 -8 -6 12 95 53 0 -7 -7 0 62 
62 0 -7 -8 -8 -8 -8 -8 -8 -8 -8 -8 -8 -8 -8 -8 -8 -8 -8 -8 -8 -8 -8 -8 -8 -8 -8 -7 0 58 95 17 -5 -7 -8 -8 -8 -8 -8 -8 -8 -8 -8 -8 -8 -8 -6 12 96 117 63 0 -7 -8 -8 -8 -8 -8 -8 -8 -8 -8 -8 -8 -8 -8 -8 -8 -8 -8 -8 -8 -8 -8 -8 -8 -8 -8 -8 -8 -8 -8 -8 -8 -8 -8 -8 -8 -6 12 95 53 0 -7 -8 -8 -8 -8 -8 -8 -7 0 53 95 12 -6 -8 -7 0 62 
62 0 -7 -8 -8 -8 -8 -8 -8 -8 -8 -8 -8 -8 -8 -8 -8 -8 -8 -8 -8 -8 -8 -8 -8 -8 -7 -5 17 95 58 0 -7 -8 -8 -8 -8 -8 -8 -8 -8 -8 -8 -8 -8 -7 0 58 101 80 63 0 -7 -8 -8 -8 -8 -8 -8 -8 -8 -8 -8 -8 -8 -8 -8 -8 -8 -8 -8 -8 -8 -8 -8 -8 -8 -8 -8 -8 -8 -8 -8 -8 -8 -8 -8 -7 0 58 94 12 -6 -8 -8 -8 -8 -8 -8 -8 -7 0 62 66 1 -7 -8 -7 0 62 
62 0 -7 -8 -8 -8 -8 -8 -8 -8 -8 -8 -8 -8 -8 -8 -8 -8 -8 -8 -8 -8 -8 -8 -8 -8 -6 11 88 88 11 -6 -8 -8 -8 -8 -8 -8 -8 -8 -8 -8 -8 -8 -8 -6 12 94 65 69 67 1 -7 -8 -8 -8 -8 -8 -8 -8 -8 -8 -8 -8 -8 -8 -8 -8 -8 -8 -8 -8 -8 -8 -8 -8 -8 -8 -8 -8 -8 -8 -8 -8 -8 -8 -8 -6 12 94 58 0 -7 -8 -8 -8 -8 -8 -8 -8 -7 1 66 62 0 -7 -8 -7 0 62 
62 0 -7 -8 -8 -8 -8 -8 -8 -8 -8 -8 -8 -8 -8 -8 -8 -8 -8 -8 -8 -8 -8 -8 -8 -7 0 58 95 17 -5 -7 -8 -8 -8 -8 -8 -8 -8 -8 -8 -8 -8 -8 -7 0 58 94 19 55 95 12 -6 -8 -8 -8 -8 -8 -8 -8 -8 -8 -8 -8 -8 -8 -8 -8 -8 -8 -8 -8 -8 -8 -8 -8 -8 -8 -8 -8 -8 -8 -8 -8 -8 -8 -7 0 53 95 12 -6 -8 -8 -8 -8 -8 -8 -8 -8 -6 12 95 53 0 -7 -8 -7 0 62 
62 0 -7 -8 -8 -8 -8 -8 -8 -8 -8 -8 -8 -8 -8 -8 -8 -8 -8 -8 -8 -8 -8 -8 -7 -5 17 95 58 0 -7 -8 -8 -8 -8 -8 -8 -8 -8 -8 -8 -8 -8 -7 -5 17 95 58 2 12 95 53 0 -7 -8 -8 -8 -8 -8 -8 -8 -8 -8 -8 -8 -8 -8 -8 -8 -8 -8 -8 -8 -8 -8 -8 -8 -8 -8 -8 -8 -8 -8 -8 -8 -8 -7 1 66 66 1 -7 -8 -8 -8 -8 -8 -8 -8 -7 0 53 95 12 -6 -8 -8 -7 0 62 
62 0 -7 -8 -8 -8 -8 -8 -8 -8 -8 -8 -8 -8 -8 -8 -8 -8 -8 -8 -8 -8 -8 -8 -6 11 88 88 11 -6 -8 -8 -8 -8 -8 -8 -8 -8 -8 -8 -8 -8 -8 -6 11 88 88 11 -5 1 66 61 0 -7 -8 -8 -8 -8 -8 -8 -8 -8 -8 -8 -8 -8 -8 -8 -8 -8 -8 -8 -8 -8 -8 -8 -8 -8 -8 -8 -8 -8 -8 -8 -8 -8 -6 12 95 53 0 -7 -8 -8 -8 -8 -8 -8 -8 -7 0 62 66 1 -7 -8 -8 -7 0 62 
62 0 -7 -8 -8 -8 -8 -8 -8 -8 -8 -8 -8 -8 -8 -8 -8 -8 -8 -8 -8 -8 -8 -7 0 58 95 17 -5 -7 -8 -8 -8 -8 -8 -8 -8 -8 -8 -8 -8 -8 -7 0 58 95 17 -4 -7 0 63 62 0 -7 -8 -8 -8 -8 -8 -8 -8 -8 -8 -8 -8 -8 -8 -8 -8 -8 -8 -8 -8 -8 -8 -8 -8 -8 -8 -8 -8 -8 -8 -8 -8 -7 0 58 94 12 -6 -8 -8 -8 -8 -8 -8 -8 -8 -7 1 66 62 0 -7 -8 -8 -7 0 62 
63 0 -7 -8 -8 -8 -8 -8 -8 -8 -8 -8 -8 -8 -8 -8 -8 -8 -8 -8 -8 -8 -7 -5 17 95 58 0 -7 -8 -8 -8 -8 -8 -8 -8 -8 -8 -8 -8 -8 -8 -6 12 94 58 0 -7 -7 0 62 62 0 -7 -8 -8 -8 -8 -8 -8 -8 -8 -8 -8 -8 -8 -8 -8 -8 -8 -8 -8 -8 -8 -8 -8 -8 -8 -8 -8 -8 -8 -8 -8 -8 -6 12 94 58 0 -7 -8 -8 -8 -8 -8 -8 -8 -8 -6 12 95 53 0 -7 -8 -8 -7 0 62 
67 2 -7 -8 -8 -8 -8 -8 -8 -8 -8 -8 -8 -8 -8 -8 -8 -8 -8 -8 -8 -8 -6 11 88 88 11 -6 -8 -8 -8 -8 -8 -8 -8 -8 -8 -8 -8 -8 -8 -7 0 58 94 12 -6 -8 -7 0 62 63 0 -7 -8 -8 -8 -8 -8 -8 -8 -8 -8 -8 -8 -8 -8 -8 -8 -8 -8 -8 -8 -8 -8 -8 -8 -8 -8 -8 -8 -8 -8 -8 -7 0 53 95 12 -6 -8 -8 -8 -8 -8 -8 -8 -8 -7 0 53 95 12 -6 -8 -8 -8 -7 0 62 
105 18 -4 -7 -8 -8 -8 -8 -8 -8 -8 -8 -8 -8 -8 -8 -8 -8 -8 -8 -8 -7 0 58 95 17 -5 -7 -8 -8 -8 -8 -8 -8 -8 -8 -8 -8 -8 -8 -8 -6 12 94 58 0 -7 -8 -7 0 61 66 1 -7 -8 -8 -8 -8 -8 -8 -8 -8 -8 -8 -8 -8 -8 -8 -8 -8 -8 -8 -8 -8 -8 -8 -8 -8 -8 -8 -8 -8 -8 -8 -7 1 66 66 1 -7 -8 -8 -8 -8 -8 -8 -8 -8 -7 0 62 66 1 -7 -8 -8 -8 -7 0 64 
139 91 16 -4 -7 -8 -8 -8 -8 -8 -8 -8 -8 -8 -8 -8 -8 -8 -8 -8 -7 -5 17 95 58 0 -7 -8 -8 -8 -8 -8 -8 -8 -8 -8 -8 -8 -8 -8 -7 0 58 94 12 -6 -8 -8 -7 0 53 95 12 -6 -8 -8 -8 -8 -8 -8 -8 -8 -8 -8 -8 -8 -8 -8 -8 -8 -8 -8 -8 -8 -8 -8 -8 -8 -8 -8 -8 -8 -8 -8 -6 12 95 53 0 -7 -8 -8 -8 -8 -8 -8 -8 -8 -7 1 66 62 0 -7 -8 -8 -8 -7 0 65 
83 96 89 16 -5 -7 -8 -8 -8 -8 -8 -8 -8 -8 -8 -8 -8 -8 -8 -8 -6 11 88 88 11 -6 -8 -8 -8 -8 -8 -8 -8 -8 -8 -8 -8 -8 -8 -7 -5 17 95 58 0 -7 -8 -8 -8 -6 12 95 53 0 -7 -8 -8 -8 -8 -8 -8 -8 -8 -8 -8 -8 -8 -8 -8 -8 -8 -8 -8 -8 -8 -8 -8 -8 -8 -8 -8 -8 -8 -7 0 58 94 12 -6 -8 -8 -8 -8 -8 -8 -8 -8 -8 -6 12 95 53 0 -7 -8 -8 -8 -7 0 63 
65 25 90 88 11 -6 -8 -8 -8 -8 -8 -8 -8 -8 -8 -8 -8 -8 -8 -7 0 58 95 17 -5 -7 -8 -8 -8 -8 -8 -8 -8 -8 -8 -8 -8 -8 -8 -6 11 88 88 11 -6 -8 -8 -8 -8 -7 1 66 61 0 -7 -8 -8 -8 -8 -8 -8 -8 -8 -8 -8 -8 -8 -8 -8 -8 -8 -8 -8 -8 -8 -8 -8 -8 -8 -8 -8 -8 -8 -6 12 94 58 0 -7 -8 -8 -8 -8 -8 -8 -8 -8 -7 0 53 95 12 -6 -8 -8 -8 -8 -7 0 62 
63 4 18 95 58 0 -7 -8 -8 -8 -8 -8 -8 -8 -8 -8 -8 -8 -7 -5 17 95 58 0 -7 -8 -8 -8 -8 -8 -8 -8 -8 -8 -8 -8 -8 -8 -7 0 58 95 17 -5 -7 -8 -8 -8 -8 -7 0 63 62 0 -7 -8 -8 -8 -8 -8 -8 -8 -8 -8 -8 -8 -8 -8 -8 -8 -8 -8 -8 -8 -8 -8 -8 -8 -8 -8 -8 -8 -7 0 53 95 12 -6 -8 -8 -8 -8 -8 -8 -8 -8 -8 -7 0 62 66 1 -7 -8 -8 -8 -8 -7 0 62 
62 1 1 58 95 17 -4 -7 -8 -8 -8 -8 -8 -8 -8 -8 -8 -8 -6 11 88 88 11 -6 -8 -8 -8 -8 -8 -8 -8 -8 -8 -8 -8 -8 -8 -8 -6 12 94 58 0 -7 -8 -8 -8 -8 -8 -7 0 62 62 0 -7 -8 -8 -8 -8 -8 -8 -8 -8 -8 -8 -8 -8 -8 -8 -8 -8 -8 -8 -8 -8 -8 -8 -8 -8 -8 -8 -8 -7 1 66 66 1 -7 -8 -8 -8 -8 -8 -8 -8 -8 -8 -7 1 66 62 0 -7 -8 -8 -8 -8 -7 0 62 
62 0 -5 11 88 89 16 -4 -7 -8 -8 -8 -8 -8 -8 -8 -8 -7 0 58 95 17 -5 -7 -8 -8 -8 -8 -8 -8 -8 -8 -8 -8 -8 -8 -8 -7 0 58 94 12 -6 -8 -8 -8 -8 -8 -8 -7 0 62 63 0 -7 -8 -8 -8 -8 -8 -8 -8 -8 -8 -8 -8 -8 -8 -8 -8 -8 -8 -8 -8 -8 -8 -8 -8 -8 -8 -8 -8 -6 12 95 53 0 -7 -8 -8 -8 -8 -8 -8 -8 -8 -8 -6 12 95 53 0 -7 -8 -8 -8 -8 -7 0 62 
62 0 -7 -5 16 89 89 16 -4 -7 -8 -8 -8 -8 -8 -8 -7 -5 17 95 58 0 -7 -8 -8 -8 -8 -8 -8 -8 -8 -8 -8 -8 -8 -8 -8 -6 12 94 58 0 -7 -8 -8 -8 -8 -8 -8 -7 0 61 66 1 -7 -8 -8 -8 -8 -8 -8 -8 -8 -8 -8 -8 -8 -8 -8 -8 -8 -8 -8 -8 -8 -8 -8 -8 -8 -8 -8 -7 0 58 94 12 -6 -8 -8 -8 -8 -8 -8 -8 -8 -8 -7 0 53 95 12 -6 -8 -8 -8 -8 -8 -7 0 62 
62 0 -7 -7 -4 16 89 89 16 -4 -7 -8 -8 -8 -8 -8 -6 11 88 88 11 -6 -8 -8 -8 -8 -8 -8 -8 -8 -8 -8 -8 -8 -8 -8 -7 0 58 94 12 -6 -8 -8 -8 -8 -8 -8 -8 -7 0 53 95 12 -6 -8 -8 -8 -8 -8 -8 -8 -8 -8 -8 -8 -8 -8 -8 -8 -8 -8 -8 -8 -8 -8 -8 -8 -8 -8 -8 -6 12 94 58 0 -7 -8 -8 -8 -8 -8 -8 -8 -8 -8 -7 0 62 66 1 -7 -8 -8 -8 -8 -8 -7 0 62 
62 0 -7 -8 -7 -4 16 89 89 16 -4 -7 -8 -8 -8 -7 0 58 95 17 -5 -7 -8 -8 -8 -8 -8 -8 -8 -8 -8 -8 -8 -8 -8 -7 -5 17 95 58 0 -7 -8 -8 -8 -8 -8 -8 -8 -8 -6 12 95 53 0 -7 -8 -8 -8 -8 -8 -8 -8 -8 -8 -8 -8 -8 -8 -8 -8 -8 -8 -8 -8 -8 -8 -8 -8 -8 -7 0 53 95 12 -6 -8 -8 -8 -8 -8 -8 -8 -8 -8 -8 -7 1 66 62 0 -7 -8 -8 -8 -8 -8 -7 0 62 
62 0 -7 -8 -8 -7 -4 16 89 89 16 -4 -7 -8 -7 -5 17 95 58 0 -7 -8 -8 -8 -8 -8 -8 -8 -8 -8 -8 -8 -8 -8 -8 -6 11 88 88 11 -6 -8 -8 -8 -8 -8 -8 -8 -8 -8 -7 1 66 61 0 -7 -8 -8 -8 -8 -8 -8 -8 -8 -8 -8 -8 -8 -8 -8 -8 -8 -8 -8 -8 -8 -8 -8 -8 -8 -7 1 66 66 1 -7 -8 -8 -8 -8 -8 -8 -8 -8 -8 -8 -6 12 95 53 0 -7 -8 -8 -8 -8 -8 -7 0 62 
62 0 -7 -8 -8 -8 -7 -4 16 89 89 16 -4 -7 -6 11 88 88 11 -6 -8 -8 -8 -8 -8 -8 -8 -8 -8 -8 -8 -8 -8 -8 -7 0 58 95 17 -5 -7 -8 -8 -8 -8 -8 -8 -8 -8 -8 -7 0 63 62 0 -7 -8 -8 -8 -8 -8 -8 -8 -8 -8 -8 -8 -8 -8 -8 -8 -8 -8 -8 -8 -8 -8 -8 -8 -8 -6 12 95 53 0 -7 -8 -8 -8 -8 -8 -8 -8 -8 -8 -7 0 53 95 12 -6 -8 -8 -8 -8 -8 -8 -7 0 62 
62 0 -7 -8 -8 -8 -8 -7 -4 16 89 89 16 -4 1 58 95 17 -5 -7 -8 -8 -8 -8 -8 -8 -8 -8 -8 -8 -8 -8 -8 -8 -6 12 94 58 0 -7 -8 -8 -8 -8 -8 -8 -8 -8 -8 -8 -7 0 62 63 0 -7 -8 -8 -8 -8 -8 -8 -8 -8 -8 -8 -8 -8 -8 -8 -8 -8 -8 -8 -8 -8 -8 -8 -8 -7 0 58 94 12 -6 -8 -8 -8 -8 -8 -8 -8 -8 -8 -8 -7 0 62 66 1 -7 -8 -8 -8 -8 -8 -8 -7 0 62 
62 0 -7 -8 -8 -8 -8 -8 -7 -4 16 89 89 19 20 95 58 0 -7 -8 -8 -8 -8 -8 -8 -8 -8 -8 -8 -8 -8 -8 -8 -7 0 58 94 12 -6 -8 -8 -8 -8 -8 -8 -8 -8 -8 -8 -8 -7 0 61 66 1 -7 -8 -8 -8 -8 -8 -8 -8 -8 -8 -8 -8 -8 -8 -8 -8 -8 -8 -8 -8 -8 -8 -8 -8 -6 12 94 58 0 -7 -8 -8 -8 -8 -8 -8 -8 -8 -8 -8 -7 1 66 62 0 -7 -8 -8 -8 -8 -8 -8 -7 0 62 
62 0 -7 -8 -8 -8 -8 -8 -8 -7 -4 16 90 103 103 89 11 -6 -8 -8 -8 -8 -8 -8 -8 -8 -8 -8 -8 -8 -8 -8 -8 -6 12 94 58 0 -7 -8 -8 -8 -8 -8 -8 -8 -8 -8 -8 -8 -7 0 53 95 12 -6 -8 -8 -8 -8 -8 -8 -8 -8 -8 -8 -8 -8 -8 -8 -8 -8 -8 -8 -8 -8 -8 -8 -7 0 53 95 12 -6 -8 -8 -8 -8 -8 -8 -8 -8 -8 -8 -8 -6 12 95 53 0 -7 -8 -8 -8 -8 -8 -8 -7 0 62 
62 0 -7 -8 -8 -8 -8 -8 -8 -8 -7 -4 18 105 105 18 -5 -7 -8 -8 -8 -8 -8 -8 -8 -8 -8 -8 -8 -8 -8 -8 -7 0 58 94 12 -6 -8 -8 -8 -8 -8 -8 -8 -8 -8 -8 -8 -8 -8 -6 12 95 53 0 -7 -8 -8 -8 -8 -8 -8 -8 -8 -8 -8 -8 -8 -8 -8 -8 -8 -8 -8 -8 -8 -8 -7 1 66 66 1 -7 -8 -8 -8 -8 -8 -8 -8 -8 -8 -8 -7 0 53 95 12 -6 -8 -8 -8 -8 -8 -8 -8 -7 0 62 
62 0 -7 -8 -8 -8 -8 -8 -8 -8 -8 -7 2 68 68 2 -7 -8 -8 -8 -8 -8 -8 -8 -8 -8 -8 -8 -8 -8 -8 -7 -5 17 95 58 0 -7 -8 -8 -8 -8 -8 -8 -8 -8 -8 -8 -8 -8 -8 -7 1 66 61 0 -7 -8 -8 -8 -8 -8 -8 -8 -8 -8 -8 -8 -8 -8 -8 -8 -8 -8 -8 -8 -8 -8 -6 12 95 53 0 -7 -8 -8 -8 -8 -8 -8 -8 -8 -8 -8 -7 0 62 66 1 -7 -8 -8 -8 -8 -8 -8 -8 -7 0 62 
62 0 -7 -8 -8 -8 -8 -8 -8 -8 -8 -7 0 62 67 1 -7 -8 -8 -8 -8 -8 -8 -8 -8 -8 -8 -8 -8 -8 -8 -6 11 88 88 11 -6 -8 -8 -8 -8 -8 -8 -8 -8 -8 -8 -8 -8 -8 -8 -7 0 63 62 0 -7 -8 -8 -8 -8 -8 -8 -8 -8 -8 -8 -8 -8 -8 -8 -8 -8 -8 -8 -8 -8 -7 0 58 94 12 -6 -8 -8 -8 -8 -8 -8 -8 -8 -8 -8 -8 -7 1 66 62 0 -7 -8 -8 -8 -8 -8 -8 -8 -7 0 62 
62 0 -7 -8 -8 -8 -8 -8 -8 -8 -8 -7 0 53 95 12 -6 -8 -8 -8 -8 -8 -8 -8 -8 -8 -8 -8 -8 -8 -7 0 58 95 17 -5 -7 -8 -8 -8 -8 -8 -8 -8 -8 -8 -8 -8 -8 -8 -8 -7 0 62 62 0 -7 -8 -8 -8 -8 -8 -8 -8 -8 -8 -8 -8 -8 -8 -8 -8 -8 -8 -8 -8 -8 -6 12 94 58 0 -7 -8 -8 -8 -8 -8 -8 -8 -8 -8 -8 -8 -6 12 95 53 0 -7 -8 -8 -8 -8 -8 -8 -8 -7 0 62 
62 0 -7 -8 -8 -8 -8 -8 -8 -8 -8 -8 -6 12 95 53 0 -7 -8 -8 -8 -8 -8 -8 -8 -8 -8 -8 -8 -8 -6 12 94 58 0 -7 -8 -8 -8 -8 -8 -8 -8 -8 -8 -8 -8 -8 -8 -8 -8 -7 0 62 63 0 -7 -8 -8 -8 -8 -8 -8 -8 -8 -8 -8 -8 -8 -8 -8 -8 -8 -8 -8 -8 -7 0 53 95 12 -6 -8 -8 -8 -8 -8 -8 -8 -8 -8 -8 -8 -7 0 53 95 12 -6 -8 -8 -8 -8 -8 -8 -8 -8 -7 0 62 
62 0 -7 -8 -8 -8 -8 -8 -8 -8 -8 -8 -7 1 66 61 0 -7 -8 -8 -8 -8 -8 -8 -8 -8 -8 -8 -8 -7 0 58 94 12 -6 -8 -8 -8 -8 -8 -8 -8 -8 -8 -8 -8 -8 -8 -8 -8 -8 -7 0 61 66 1 -7 -8 -8 -8 -8 -8 -8 -8 -8 -8 -8 -8 -8 -8 -8 -8 -8 -8 -8 -8 -7 1 66 66 1 -7 -8 -8 -8 -8 -8 -8 -8 -8 -8 -8 -8 -7 0 62 66 1 -7 -8 -8 -8 -8 -8 -8 -8 -8 -7 0 62 
62 0 -7 -8 -8 -8 -8 -8 -8 -8 -8 -8 -7 0 62 62 0 -7 -8 -8 -8 -8 -8 -8 -8 -8 -8 -8 -8 -6 12 94 58 0 -7 -8 -8 -8 -8 -8 -8 -8 -8 -8 -8 -8 -8 -8 -8 -8 -8 -7 0 53 95 12 -6 -8 -8 -8 -8 -8 -8 -8 -8 -8 -8 -8 -8 -8 -8 -8 -8 -8 -8 -8 -6 12 95 53 0 -7 -8 -8 -8 -8 -8 -8 -8 -8 -8 -8 -8 -7 1 66 62 0 -7 -8 -8 -8 -8 -8 -8 -8 -8 -7 0 63 
62 0 -7 -8 -8 -8 -8 -8 -8 -8 -8 -8 -7 0 61 66 1 -7 -8 -8 -8 -8 -8 -8 -8 -8 -8 -8 -7 0 58 94 12 -6 -8 -8 -8 -8 -8 -8 -8 -8 -8 -8 -8 -8 -8 -8 -8 -8 -8 -8 -6 12 95 53 0 -7 -8 -8 -8 -8 -8 -8 -8 -8 -8 -8 -8 -8 -8 -8 -8 -8 -8 -7 0 58 94 12 -6 -8 -8 -8 -8 -8 -8 -8 -8 -8 -8 -8 -8 -6 12 95 53 0 -7 -8 -8 -8 -8 -8 -8 -8 -8 -7 1 67 
64 0 -7 -8 -8 -8 -8 -8 -8 -8 -8 -8 -7 0 53 95 12 -6 -8 -8 -8 -8 -8 -8 -8 -8 -8 -7 -5 17 95 58 0 -7 -8 -8 -8 -8 -8 -8 -8 -8 -8 -8 -8 -8 -8 -8 -8 -8 -8 -8 -7 1 66 61 0 -7 -8 -8 -8 -8 -8 -8 -8 -8 -8 -8 -8 -8 -8 -8 -8 -8 -8 -6 12 94 58 0 -7 -8 -8 -8 -8 -8 -8 -8 -8 -8 -8 -8 -7 0 53 95 12 -6 -8 -8 -8 -8 -8 -8 -8 -8 -8 -6 12 104 
65 0 -7 -8 -8 -8 -8 -8 -8 -8 -8 -8 -8 -6 12 95 53 0 -7 -8 -8 -8 -8 -8 -8 -8 -8 -6 11 88 88 11 -6 -8 -8 -8 -8 -8 -8 -8 -8 -8 -8 -8 -8 -8 -8 -8 -8 -8 -8 -8 -7 0 63 62 0 -7 -8 -8 -8 -8 -8 -8 -8 -8 -8 -8 -8 -8 -8 -8 -8 -8 -7 0 53 95 12 -6 -8 -8 -8 -8 -8 -8 -8 -8 -8 -8 -8 -8 -7 0 62 66 1 -7 -8 -8 -8 -8 -8 -8 -8 -8 -7 0 59 143 
63 0 -7 -8 -8 -8 -8 -8 -8 -8 -8 -8 -8 -7 1 66 61 0 -7 -8 -8 -8 -8 -8 -8 -8 -7 0 58 95 17 -5 -7 -8 -8 -8 -8 -8 -8 -8 -8 -8 -8 -8 -8 -8 -8 -8 -8 -8 -8 -8 -7 0 62 62 0 -7 -8 -8 -8 -8 -8 -8 -8 -8 -8 -8 -8 -8 -8 -8 -8 -8 -7 1 66 66 1 -7 -8 -8 -8 -8 -8 -8 -8 -8 -8 -8 -8 -8 -7 1 66 62 0 -7 -8 -8 -8 -8 -8 -8 -8 -7 -5 17 97 117 
63 0 -7 -8 -8 -8 -8 -8 -8 -8 -8 -8 -8 -7 0 62 62 0 -7 -8 -8 -8 -8 -8 -8 -8 -6 12 94 58 0 -7 -8 -8 -8 -8 -8 -8 -8 -8 -8 -8 -8 -8 -8 -8 -8 -8 -8 -8 -8 -8 -7 0 62 63 0 -7 -8 -8 -8 -8 -8 -8 -8 -8 -8 -8 -8 -8 -8 -8 -8 -8 -6 12 95 53 0 -7 -8 -8 -8 -8 -8 -8 -8 -8 -8 -8 -8 -8 -6 12 95 53 0 -7 -8 -8 -8 -8 -8 -8 -8 -6 11 89 95 79 
62 0 -7 -8 -8 -8 -8 -8 -8 -8 -8 -8 -8 -7 0 61 66 1 -7 -8 -8 -8 -8 -8 -8 -7 0 58 94 12 -6 -8 -8 -8 -8 -8 -8 -8 -8 -8 -8 -8 -8 -8 -8 -8 -8 -8 -8 -8 -8 -8 -7 0 61 66 1 -7 -8 -8 -8 -8 -8 -8 -8 -8 -8 -8 -8 -8 -8 -8 -8 -7 0 58 94 12 -6 -8 -8 -8 -8 -8 -8 -8 -8 -8 -8 -8 -8 -7 0 53 95 12 -6 -8 -8 -8 -8 -8 -8 -8 -7 0 58 95 26 65 
62 0 -7 -8 -8 -8 -8 -8 -8 -8 -8 -8 -8 -7 0 53 95 12 -6 -8 -8 -8 -8 -8 -8 -6 12 94 58 0 -7 -8 -8 -8 -8 -8 -8 -8 -8 -8 -8 -8 -8 -8 -8 -8 -8 -8 -8 -8 -8 -8 -7 0 53 95 12 -6 -8 -8 -8 -8 -8 -8 -8 -8 -8 -8 -8 -8 -8 -8 -8 -6 12 94 58 0 -7 -8 -8 -8 -8 -8 -8 -8 -8 -8 -8 -8 -8 -7 0 62 66 1 -7 -8 -8 -8 -8 -8 -8 -7 -5 17 95 58 9 63 
62 0 -7 -8 -8 -8 -8 -8 -8 -8 -8 -8 -8 -8 -6 12 95 53 0 -7 -8 -8 -8 -8 -7 0 58 94 12 -6 -8 -8 -8 -8 -8 -8 -8 -8 -8 -8 -8 -8 -8 -8 -8 -8 -8 -8 -8 -8 -8 -8 -8 -6 12 95 53 0 -7 -8 -8 -8 -8 -8 -8 -8 -8 -8 -8 -8 -8 -8 -7 0 53 95 12 -6 -8 -8 -8 -8 -8 -8 -8 -8 -8 -8 -8 -8 -8 -7 1 66 62 0 -7 -8 -8 -8 -8 -8 -8 -6 11 88 89 12 2 62 
62 0 -7 -8 -8 -8 -8 -8 -8 -8 -8 -8 -8 -8 -7 1 66 61 0 -7 -8 -8 -8 -7 -5 17 95 58 0 -7 -8 -8 -8 -8 -8 -8 -8 -8 -8 -8 -8 -8 -8 -8 -8 -8 -8 -8 -8 -8 -8 -8 -8 -7 1 67 62 0 -7 -7 -7 -7 -8 -8 -8 -8 -8 -8 -8 -8 -8 -8 -7 1 66 66 1 -7 -8 -8 -8 -8 -8 -8 -8 -8 -8 -8 -8 -8 -8 -6 12 95 53 0 -7 -8 -8 -8 -8 -8 -7 0 58 95 17 -4 0 62 
62 0 -7 -8 -8 -8 -8 -8 -8 -8 -8 -8 -8 -8 -7 0 62 62 0 -7 -8 -8 -8 -6 11 88 88 11 -6 -8 -8 -8 -8 -8 -8 -8 -8 -8 -8 -8 -8 -8 -8 -8 -8 -8 -8 -8 -8 -8 -8 -8 -8 -6 2 68 69 8 1 0 0 0 -6 -7 -7 -7 -7 -7 -7 -8 -8 -8 -6 12 95 53 0 -7 -8 -8 -8 -8 -8 -8 -8 -8 -8 -8 -8 -8 -7 0 53 95 12 -6 -8 -8 -8 -8 -8 -7 -5 17 95 58 0 -6 0 62 
62 0 -7 -8 -8 -8 -8 -8 -8 -8 -8 -8 -8 -8 -7 0 61 66 1 -7 -8 -8 -7 0 58 95 17 -5 -7 -8 -8 -8 -8 -8 -8 -8 -8 -8 -8 -8 -8 -8 -8 -8 -8 -8 -8 -8 -8 -8 -8 -7 -6 0 19 105 113 69 63 62 61 53 12 1 0 0 0 0 0 -6 -7 -6 0 58 94 12 -6 -8 -8 -8 -8 -8 -8 -8 -8 -8 -8 -8 -8 -8 -7 0 62 66 1 -7 -8 -8 -8 -8 -8 -6 11 88 88 11 -6 -7 0 62 
62 0 -7 -8 -8 -8 -8 -8 -8 -8 -8 -8 -8 -8 -7 0 53 95 12 -6 -8 -8 -6 12 94 58 0 -7 -8 -8 -8 -8 -8 -8 -8 -8 -8 -8 -8 -8 -8 -8 -8 -8 -8 -8 -8 -8 -8 -8 -7 -5 11 58 95 98 69 63 62 63 66 95 95 66 63 62 62 61 53 12 1 2 19 95 58 0 -7 -8 -8 -8 -8 -8 -8 -8 -8 -8 -8 -8 -8 -8 -7 1 66 62 0 -7 -8 -8 -8 -8 -7 0 58 95 17 -5 -7 -7 0 62 
62 0 -7 -8 -8 -8 -8 -8 -8 -8 -8 -8 -8 -8 -8 -6 12 95 53 0 -7 -7 0 58 94 12 -6 -8 -8 -8 -8 -8 -8 -8 -8 -8 -8 -8 -8 -8 -8 -8 -8 -8 -8 -8 -8 -8 -7 -6 0 17 88 95 58 12 1 0 0 0 1 12 53 61 62 62 63 66 95 95 67 68 105 103 14 -6 -8 -8 -8 -8 -8 -8 -8 -8 -8 -8 -8 -8 -8 -8 -6 12 95 53 0 -7 -8 -8 -8 -7 -5 17 95 58 0 -7 -8 -7 0 62 
62 0 -7 -8 -8 -8 -8 -8 -8 -8 -8 -8 -8 -8 -8 -7 1 66 61 0 -7 -6 12 94 58 0 -7 -8 -8 -8 -8 -8 -8 -8 -8 -8 -8 -8 -8 -8 -8 -8 -8 -8 -8 -8 -8 -7 -5 11 58 95 88 17 0 -6 -7 -7 -7 -7 -7 -6 0 0 0 0 0 1 12 53 62 68 105 103 14 -6 -8 -8 -8 -8 -8 -8 -8 -8 -8 -8 -8 -8 -8 -7 0 53 95 12 -6 -8 -8 -8 -8 -6 11 88 88 11 -6 -8 -8 -7 0 62 
62 0 -7 -8 -8 -8 -8 -8 -8 -8 -8 -8 -8 -8 -8 -7 0 62 62 0 -6 0 58 94 12 -6 -8 -8 -8 -8 -8 -8 -8 -8 -8 -8 -8 -8 -8 -8 -8 -8 -8 -8 -8 -7 -6 0 17 88 95 58 11 -5 -7 -8 -8 -8 -8 -8 -8 -8 -7 -7 -7 -7 -7 -7 -6 0 0 2 19 95 58 0 -7 -8 -8 -8 -8 -8 -8 -8 -8 -8 -8 -8 -8 -7 0 62 66 1 -7 -8 -8 -8 -7 0 58 95 17 -5 -7 -8 -8 -7 0 62 
62 0 -7 -8 -8 -8 -8 -8 -8 -8 -8 -8 -8 -8 -8 -7 0 61 66 1 -4 17 95 58 0 -7 -8 -8 -8 -8 -8 -8 -8 -8 -8 -8 -8 -8 -8 -8 -8 -8 -8 -8 -7 -5 11 58 95 88 17 0 -6 -7 -8 -8 -8 -8 -8 -8 -8 -8 -8 -8 -8 -8 -8 -8 -8 -7 -7 -6 0 58 95 17 -4 -7 -8 -8 -8 -8 -8 -8 -8 -8 -8 -8 -8 -7 1 66 62 0 -7 -8 -8 -7 -5 17 95 58 0 -7 -8 -8 -8 -7 0 62 
62 0 -7 -8 -8 -8 -8 -8 -8 -8 -8 -8 -8 -8 -8 -7 0 53 95 14 13 89 88 11 -6 -8 -8 -8 -8 -8 -8 -8 -8 -8 -8 -8 -8 -8 -8 -8 -8 -8 -8 -7 -4 16 88 95 58 11 -5 -7 -8 -8 -8 -8 -8 -8 -8 -8 -8 -8 -8 -8 -8 -8 -8 -8 -8 -8 -8 -8 -6 11 89 90 18 0 -6 -7 -7 -7 -7 -7 -7 -7 -7 -7 -7 -5 12 95 53 0 -7 -8 -8 -6 11 88 88 11 -6 -8 -8 -8 -8 -7 0 62 
62 0 -7 -8 -8 -8 -8 -8 -8 -8 -8 -8 -8 -8 -8 -8 -6 12 95 61 64 95 17 -5 -7 -8 -8 -8 -8 -8 -8 -8 -8 -8 -8 -8 -8 -8 -8 -8 -8 -7 -6 0 17 89 89 17 0 -6 -7 -8 -8 -8 -8 -8 -8 -8 -8 -8 -8 -8 -8 -8 -8 -8 -8 -8 -8 -8 -8 -8 -7 -5 18 99 105 59 12 1 0 0 0 0 0 0 0 0 1 7 60 100 14 -5 -7 -8 -7 0 58 95 17 -5 -7 -8 -8 -8 -8 -7 0 62 
62 0 -7 -8 -8 -8 -8 -8 -8 -8 -8 -8 -8 -8 -8 -8 -7 1 67 79 100 58 0 -7 -8 -8 -8 -8 -8 -8 -8 -8 -8 -8 -8 -8 -8 -8 -8 -8 -7 -5 11 58 95 88 16 -4 -7 -8 -8 -8 -8 -8 -8 -8 -8 -8 -8 -8 -8 -8 -8 -8 -8 -8 -8 -8 -8 -8 -8 -8 -8 -7 2 70 116 100 95 66 63 62 62 62 62 62 62 62 63 68 112 109 20 1 -6 -7 -4 17 95 58 0 -7 -8 -8 -8 -8 -8 -7 0 62 
62 0 -7 -8 -8 -8 -8 -8 -8 -8 -8 -8 -8 -8 -8 -8 -7 0 64 117 96 12 -6 -8 -8 -8 -8 -8 -8 -8 -8 -8 -8 -8 -8 -8 -8 -8 -7 -6 0 17 88 95 58 11 -5 -7 -8 -8 -8 -8 -8 -8 -8 -8 -8 -8 -8 -8 -8 -8 -8 -8 -8 -8 -8 -8 -8 -8 -8 -8 -8 -7 1 67 69 20 54 61 62 62 62 62 62 62 62 62 62 63 69 98 95 58 12 2 12 89 89 11 -6 -8 -8 -8 -8 -8 -8 -7 0 62 
62 0 -7 -8 -8 -8 -8 -8 -8 -8 -8 -8 -8 -8 -8 -8 -7 0 65 143 59 0 -7 -8 -8 -8 -8 -8 -8 -8 -8 -8 -8 -8 -8 -8 -8 -7 -5 11 58 95 88 17 0 -6 -7 -8 -8 -8 -8 -8 -8 -8 -8 -8 -8 -8 -8 -8 -8 -8 -8 -8 -8 -8 -8 -8 -8 -8 -8 -8 -8 -6 12 95 54 1 0 0 0 0 0 0 0 0 0 0 0 0 1 12 58 94 94 64 70 96 18 -5 -7 -8 -8 -8 -8 -8 -8 -7 0 62 
62 0 -7 -8 -8 -8 -8 -8 -8 -8 -8 -8 -8 -8 -8 -8 -7 0 64 104 12 -6 -8 -8 -8 -8 -8 -8 -8 -8 -8 -8 -8 -8 -8 -7 -6 0 17 89 95 58 11 -5 -7 -8 -8 -8 -8 -8 -8 -8 -8 -8 -8 -8 -8 -8 -8 -8 -8 -8 -8 -8 -8 -8 -8 -8 -8 -8 -8 -8 -7 0 53 95 12 -6 -7 -7 -7 -7 -7 -7 -7 -7 -7 -7 -7 -7 -7 -6 0 12 58 97 138 74 3 -7 -8 -8 -8 -8 -8 -8 -8 -7 0 62 
62 0 -7 -8 -8 -8 -8 -8 -8 -8 -8 -8 -8 -8 -8 -8 -7 0 62 67 1 -7 -8 -8 -8 -8 -8 -8 -8 -8 -8 -8 -8 -7 -7 -5 11 59 97 90 18 1 -5 -7 -8 -8 -8 -8 -8 -8 -8 -8 -8 -8 -8 -8 -8 -8 -8 -8 -8 -8 -8 -8 -8 -8 -8 -8 -8 -8 -8 -8 -7 0 61 66 1 -7 -8 -8 -8 -8 -8 -8 -8 -8 -8 -8 -8 -8 -8 -8 -7 -6 0 18 97 99 18 -5 -7 -8 -8 -8 -8 -8 -8 -7 0 62 
62 0 -7 -8 -8 -8 -8 -8 -8 -8 -8 -8 -8 -8 -8 -8 -7 0 63 63 0 -7 -8 -8 -8 -8 -8 -8 -8 -8 -8 -7 -6 0 2 18 96 142 110 31 4 1 0 0 -6 -7 -7 -7 -8 -8 -8 -8 -8 -8 -8 -8 -8 -8 -8 -8 -8 -8 -8 -8 -8 -8 -8 -8 -8 -8 -8 -8 -7 0 62 63 0 -7 -8 -8 -8 -8 -8 -8 -8 -8 -8 -8 -8 -8 -8 -8 -8 -8 -7 -4 17 89 89 11 -6 -8 -8 -8 -8 -8 -8 -7 0 62 
62 0 -7 -8 -8 -8 -8 -8 -8 -8 -8 -8 -8 -8 -8 -8 -7 1 66 61 0 -7 -8 -8 -8 -8 -8 -8 -8 -7 -6 0 12 53 66 96 98 74 97 96 67 63 61 53 12 1 0 0 -6 -7 -7 -7 -7 -8 -8 -8 -8 -8 -8 -8 -8 -8 -8 -8 -8 -8 -8 -8 -8 -8 -8 -8 -7 0 63 62 0 -7 -8 -8 -8 -8 -8 -8 -8 -8 -8 -8 -8 -8 -8 -8 -8 -8 -8 -7 -4 17 95 58 0 -7 -8 -8 -8 -8 -8 -7 0 62 
62 0 -7 -8 -8 -8 -8 -8 -8 -8 -8 -8 -8 -8 -8 -8 -6 12 95 53 0 -7 -8 -8 -8 -8 -7 -7 -6 0 12 58 94 95 66 53 12 3 12 53 61 62 66 95 95 66 62 53 12 1 0 0 0 -6 -7 -7 -7 -8 -8 -8 -8 -8 -8 -8 -8 -8 -8 -8 -8 -8 -8 -8 -7 1 66 61 0 -7 -8 -8 -8 -8 -8 -8 -8 -8 -8 -8 -8 -8 -8 -8 -8 -8 -8 -8 -7 0 58 95 17 -5 -7 -8 -8 -8 -8 -7 0 62 
62 0 -7 -8 -8 -8 -8 -8 -8 -8 -8 -8 -8 -8 -8 -7 0 53 95 12 -6 -8 -8 -8 -7 -6 0 1 12 58 94 94 58 12 1 0 -6 -7 -6 0 0 0 1 12 53 62 66 95 95 66 62 61 53 12 1 0 0 -6 -7 -7 -7 -7 -8 -8 -8 -8 -8 -8 -8 -8 -8 -8 -6 12 95 53 0 -7 -8 -8 -8 -8 -8 -8 -8 -8 -8 -8 -8 -8 -8 -8 -8 -8 -8 -8 -8 -6 11 88 88 11 -6 -8 -8 -8 -8 -7 0 62 
62 0 -7 -8 -8 -8 -8 -8 -8 -8 -8 -8 -8 -8 -8 -7 0 61 66 1 -7 -8 -7 -6 0 12 53 66 95 94 58 12 0 -6 -7 -7 -8 -8 -8 -7 -7 -7 -7 -6 0 0 1 12 53 61 62 66 95 95 66 62 53 12 1 0 0 0 -6 -7 -7 -7 -8 -8 -8 -8 -8 -7 0 53 95 12 -6 -8 -8 -8 -8 -8 -8 -8 -8 -8 -8 -8 -8 -8 -8 -8 -8 -8 -8 -8 -8 -7 -5 17 95 58 0 -7 -8 -8 -8 -7 0 62 
62 0 -7 -8 -8 -8 -8 -8 -8 -8 -8 -8 -8 -8 -8 -7 0 62 62 0 -6 -6 0 12 58 94 95 66 53 12 0 -6 -7 -8 -8 -8 -8 -8 -8 -8 -8 -8 -8 -8 -7 -7 -7 -6 0 0 0 1 12 53 62 66 95 95 66 62 61 53 12 1 0 0 -6 -7 -7 -7 -7 -7 0 61 66 1 -7 -8 -8 -8 -8 -8 -8 -8 -8 -8 -8 -8 -8 -8 -8 -8 -8 -8 -8 -8 -8 -8 -7 0 58 95 17 -4 -7 -8 -8 -7 0 62 
62 0 -7 -8 -8 -8 -8 -8 -8 -8 -8 -8 -8 -8 -8 -7 1 66 62 2 1 12 58 94 94 58 12 1 0 -6 -7 -8 -8 -8 -8 -8 -8 -8 -8 -8 -8 -8 -8 -8 -8 -8 -8 -8 -7 -7 -7 -7 -6 0 0 1 12 53 61 62 66 95 95 66 62 53 12 1 0 0 0 -5 1 63 63 0 -7 -8 -8 -8 -8 -8 -8 -8 -8 -8 -8 -8 -8 -8 -8 -8 -8 -8 -8 -8 -8 -8 -8 -6 11 88 89 16 -5 -7 -8 -7 0 62 
62 0 -7 -8 -8 -8 -8 -8 -8 -8 -8 -8 -8 -8 -8 -6 12 97 62 19 58 94 94 58 12 0 -6 -7 -7 -8 -8 -8 -8 -8 -8 -8 -8 -8 -8 -8 -8 -8 -8 -8 -8 -8 -8 -8 -8 -8 -8 -8 -8 -7 -7 -7 -6 0 0 0 1 12 53 62 66 95 95 66 62 61 53 12 10 69 62 0 -7 -8 -8 -8 -8 -8 -8 -8 -8 -8 -8 -8 -8 -8 -8 -8 -8 -8 -8 -8 -8 -8 -8 -7 -5 16 89 88 11 -6 -8 -7 0 62 
62 0 -7 -8 -8 -8 -8 -8 -8 -8 -8 -8 -8 -8 -7 0 60 137 83 96 94 58 12 0 -6 -7 -8 -8 -8 -8 -8 -8 -8 -8 -8 -8 -8 -8 -8 -8 -8 -8 -8 -8 -8 -8 -8 -8 -8 -8 -8 -8 -8 -8 -8 -8 -8 -7 -7 -7 -7 -6 0 0 1 12 53 61 62 66 95 95 73 113 64 0 -7 -8 -8 -8 -8 -8 -8 -8 -8 -8 -8 -8 -8 -8 -8 -8 -8 -8 -8 -8 -8 -8 -8 -8 -7 -4 17 95 58 0 -7 -7 0 62 
62 0 -7 -8 -8 -8 -8 -8 -8 -8 -8 -8 -8 -8 -6 12 97 105 67 54 12 0 -6 -7 -8 -8 -8 -8 -8 -8 -8 -8 -8 -8 -8 -8 -8 -8 -8 -8 -8 -8 -8 -8 -8 -8 -8 -8 -8 -8 -8 -8 -8 -8 -8 -8 -8 -8 -8 -8 -8 -8 -7 -7 -7 -6 0 0 0 1 12 54 68 113 64 0 -7 -8 -8 -8 -8 -8 -8 -8 -8 -8 -8 -8 -8 -8 -8 -8 -8 -8 -8 -8 -8 -8 -8 -8 -8 -7 0 58 95 17 -4 -7 0 62 
62 0 -7 -8 -8 -8 -8 -8 -8 -8 -8 -8 -8 -7 0 58 95 19 2 0 -6 -7 -8 -8 -8 -8 -8 -8 -8 -8 -8 -8 -8 -8 -8 -8 -8 -8 -8 -8 -8 -8 -8 -8 -8 -8 -8 -8 -8 -8 -8 -8 -8 -8 -8 -8 -8 -8 -8 -8 -8 -8 -8 -8 -8 -8 -7 -7 -7 -7 -6 0 8 69 62 0 -7 -8 -8 -8 -8 -8 -8 -8 -8 -8 -8 -8 -8 -8 -8 -8 -8 -8 -8 -8 -8 -8 -8 -8 -8 -8 -6 11 88 89 16 -4 0 62 
62 0 -7 -8 -8 -8 -8 -8 -8 -8 -8 -8 -7 -5 17 95 58 0 -6 -7 -8 -8 -8 -8 -8 -8 -8 -8 -8 -8 -8 -8 -8 -8 -8 -8 -8 -8 -8 -8 -8 -8 -8 -8 -8 -8 -8 -8 -8 -8 -8 -8 -8 -8 -8 -8 -8 -8 -8 -8 -8 -8 -8 -8 -8 -8 -8 -8 -8 -8 -8 -7 1 63 62 0 -7 -8 -8 -8 -8 -8 -8 -8 -8 -8 -8 -8 -8 -8 -8 -8 -8 -8 -8 -8 -8 -8 -8 -8 -8 -8 -7 -5 16 89 88 12 2 62 
62 0 -7 -8 -8 -8 -8 -8 -8 -8 -8 -8 -6 11 88 88 11 -6 -8 -8 -8 -8 -8 -8 -8 -8 -8 -8 -8 -8 -8 -8 -8 -8 -8 -8 -8 -8 -8 -8 -8 -8 -8 -8 -8 -8 -8 -8 -8 -8 -8 -8 -8 -8 -8 -8 -8 -8 -8 -8 -8 -8 -8 -8 -8 -8 -8 -8 -8 -8 -8 -7 0 62 62 0 -7 -8 -8 -8 -8 -8 -8 -8 -8 -8 -8 -8 -8 -8 -8 -8 -8 -8 -8 -8 -8 -8 -8 -8 -8 -8 -8 -7 -4 17 95 58 9 63 
62 0 -7 -8 -8 -8 -8 -8 -8 -8 -8 -7 0 58 95 17 -5 -7 -8 -8 -8 -8 -8 -8 -8 -8 -8 -8 -8 -8 -8 -8 -8 -8 -8 -8 -8 -8 -8 -8 -8 -8 -8 -8 -8 -8 -8 -8 -8 -8 -8 -8 -8 -8 -8 -8 -8 -8 -8 -8 -8 -8 -8 -8 -8 -8 -8 -8 -8 -8 -8 -7 0 62 63 0 -7 -8 -8 -8 -8 -8 -8 -8 -8 -8 -8 -8 -8 -8 -8 -8 -8 -8 -8 -8 -8 -8 -8 -8 -8 -8 -8 -8 -7 0 58 95 26 65 
63 0 -7 -8 -8 -8 -8 -8 -8 -8 -7 -4 17 95 58 0 -7 -8 -8 -8 -8 -8 -8 -8 -8 -8 -8 -8 -8 -8 -8 -8 -8 -8 -8 -8 -8 -8 -8 -8 -8 -8 -8 -8 -8 -8 -8 -8 -8 -8 -8 -8 -8 -8 -8 -8 -8 -8 -8 -8 -8 -8 -8 -8 -8 -8 -8 -8 -8 -8 -8 -7 0 62 67 2 -7 -8 -8 -8 -8 -8 -8 -8 -8 -8 -8 -8 -8 -8 -8 -8 -8 -8 -8 -8 -8 -8 -8 -8 -8 -8 -8 -8 -8 -6 11 89 95 79 
63 0 -7 -8 -8 -8 -8 -8 -8 -7 -4 16 89 89 12 -5 -7 -8 -8 -8 -8 -8 -8 -8 -8 -8 -8 -8 -8 -8 -8 -8 -8 -8 -8 -8 -8 -8 -8 -8 -8 -8 -8 -8 -8 -8 -8 -8 -8 -8 -8 -8 -8 -8 -8 -8 -8 -8 -8 -8 -8 -8 -8 -8 -8 -8 -8 -8 -8 -8 -8 -7 1 60 98 18 -4 -7 -8 -8 -8 -8 -8 -8 -8 -8 -8 -8 -8 -8 -8 -8 -8 -8 -8 -8 -8 -8 -8 -8 -8 -8 -8 -8 -8 -7 -5 17 97 117 
65 0 -7 -8 -8 -8 -8 -8 -7 -4 17 91 96 25 3 0 0 -6 -7 -7 -7 -7 -7 -7 -7 -7 -7 -7 -7 -8 -8 -8 -8 -8 -8 -8 -8 -8 -8 -8 -8 -8 -8 -8 -8 -8 -8 -8 -8 -8 -8 -8 -8 -8 -8 -8 -8 -8 -8 -8 -8 -8 -8 -8 -8 -8 -8 -8 -8 -7 -6 0 14 70 138 97 18 0 -6 -7 -8 -8 -8 -8 -8 -8 -8 -8 -8 -8 -8 -8 -8 -8 -8 -8 -8 -8 -8 -8 -8 -8 -8 -8 -8 -8 -7 0 59 143 
64 0 -7 -8 -8 -8 -8 -7 -4 17 97 139 83 65 62 61 53 12 1 0 0 0 0 0 0 0 0 0 0 -6 -7 -7 -7 -7 -7 -7 -7 -7 -7 -7 -8 -8 -8 -8 -8 -8 -8 -8 -8 -8 -8 -8 -8 -8 -8 -8 -8 -8 -8 -8 -8 -8 -8 -8 -8 -8 -8 -8 -7 -5 11 58 94 96 74 98 95 58 12 0 -6 -7 -8 -8 -8 -8 -8 -8 -8 -8 -8 -8 -8 -8 -8 -8 -8 -8 -8 -8 -8 -8 -8 -8 -8 -8 -8 -6 12 104 
62 0 -7 -8 -8 -8 -7 -4 16 89 99 70 63 62 63 66 95 95 66 63 62 62 62 62 62 62 62 61 53 12 1 0 0 0 0 0 0 0 0 0 -6 -7 -7 -7 -7 -7 -7 -7 -7 -7 -7 -7 -8 -8 -8 -8 -8 -8 -8 -8 -8 -8 -8 -8 -8 -8 -7 -6 0 17 88 95 58 12 3 12 58 94 94 58 11 -5 -7 -8 -8 -8 -8 -8 -8 -8 -8 -8 -8 -8 -8 -8 -8 -8 -8 -8 -8 -8 -8 -8 -8 -8 -8 -7 1 67 
62 0 -7 -8 -8 -7 -4 16 89 89 18 2 0 0 0 1 12 53 61 62 62 62 62 62 62 62 63 66 95 95 66 63 62 62 62 62 62 62 61 53 12 1 0 0 0 0 0 0 0 0 0 0 -6 -7 -7 -7 -7 -7 -7 -7 -7 -7 -7 -8 -7 -6 0 12 58 95 88 17 0 -6 -7 -6 0 12 58 95 88 17 0 -6 -7 -8 -8 -8 -8 -8 -8 -8 -8 -8 -8 -8 -8 -8 -8 -8 -8 -8 -8 -8 -8 -8 -8 -7 0 63 
62 0 -7 -8 -7 -4 16 89 89 16 -4 -7 -7 -7 -7 -7 -6 0 0 0 0 0 0 0 0 0 0 1 12 53 61 62 62 62 62 62 62 63 66 95 95 66 63 62 62 62 62 62 62 62 61 53 12 1 0 0 0 0 0 0 0 0 0 -6 -4 11 58 94 94 58 11 -5 -7 -8 -8 -8 -7 -6 0 17 88 95 58 12 0 -6 -7 -8 -8 -8 -8 -8 -8 -8 -8 -8 -8 -8 -8 -8 -8 -8 -8 -8 -8 -8 -8 -7 0 62 
62 0 -7 -6 0 17 89 89 16 -4 -7 -8 -8 -8 -8 -8 -8 -7 -7 -7 -7 -7 -7 -7 -7 -7 -7 -7 -6 0 0 0 0 0 0 0 0 0 1 12 53 61 62 62 62 62 62 62 62 63 66 95 95 66 63 62 62 62 62 62 62 61 53 14 19 89 95 58 12 0 -6 -7 -8 -8 -8 -8 -8 -8 -7 -5 11 58 94 94 58 11 -5 -7 -8 -8 -8 -8 -8 -8 -8 -8 -8 -8 -8 -8 -8 -8 -8 -8 -8 -8 -8 -7 0 62 
62 0 -4 11 58 95 88 16 -4 -7 -8 -8 -8 -8 -8 -8 -8 -8 -8 -8 -8 -8 -8 -8 -8 -8 -8 -8 -8 -7 -7 -7 -7 -7 -7 -7 -7 -7 -7 -6 0 0 0 0 0 0 0 0 0 0 1 12 53 61 62 62 62 62 62 62 63 66 96 103 103 90 17 0 -6 -7 -8 -8 -8 -8 -8 -8 -8 -8 -8 -7 -6 0 12 58 95 88 17 0 -6 -7 -8 -8 -8 -8 -8 -8 -8 -8 -8 -8 -8 -8 -8 -8 -8 -8 -8 -7 0 62 
63 3 17 88 95 58 11 -5 -7 -8 -8 -8 -8 -8 -8 -8 -8 -8 -8 -8 -8 -8 -8 -8 -8 -8 -8 -8 -8 -8 -8 -8 -8 -8 -8 -8 -8 -8 -8 -8 -7 -7 -7 -7 -7 -7 -7 -7 -7 -7 -7 -6 0 0 0 0 0 0 0 0 0 2 19 105 105 18 -4 -7 -8 -8 -8 -8 -8 -8 -8 -8 -8 -8 -8 -8 -8 -7 -6 0 17 88 95 58 12 0 -6 -7 -8 -8 -8 -8 -8 -8 -8 -8 -8 -8 -8 -8 -8 -8 -8 -7 0 62 
65 25 90 89 17 0 -6 -7 -8 -8 -8 -8 -8 -8 -8 -8 -8 -8 -8 -8 -8 -8 -8 -8 -8 -8 -8 -8 -8 -8 -8 -8 -8 -8 -8 -8 -8 -8 -8 -8 -8 -8 -8 -8 -8 -8 -8 -8 -8 -8 -8 -8 -7 -7 -7 -7 -7 -7 -7 -7 -7 -6 2 68 68 2 -7 -8 -8 -8 -8 -8 -8 -8 -8 -8 -8 -8 -8 -8 -8 -8 -8 -7 -5 11 58 94 94 58 11 -5 -7 -8 -8 -8 -8 -8 -8 -8 -8 -8 -8 -8 -8 -8 -8 -7 0 62 
83 96 89 16 -4 -7 -8 -8 -8 -8 -8 -8 -8 -8 -8 -8 -8 -8 -8 -8 -8 -8 -8 -8 -8 -8 -8 -8 -8 -8 -8 -8 -8 -8 -8 -8 -8 -8 -8 -8 -8 -8 -8 -8 -8 -8 -8 -8 -8 -8 -8 -8 -8 -8 -8 -8 -8 -8 -8 -8 -8 -7 0 63 63 0 -7 -8 -8 -8 -8 -8 -8 -8 -8 -8 -8 -8 -8 -8 -8 -8 -8 -8 -7 -6 0 12 58 95 88 17 0 -6 -7 -8 -8 -8 -8 -8 -8 -8 -8 -8 -8 -8 -8 -7 0 63 
139 91 16 -4 -7 -8 -8 -8 -8 -8 -8 -8 -8 -8 -8 -8 -8 -8 -8 -8 -8 -8 -8 -8 -8 -8 -8 -8 -8 -8 -8 -8 -8 -8 -8 -8 -8 -8 -8 -8 -8 -8 -8 -8 -8 -8 -8 -8 -8 -8 -8 -8 -8 -8 -8 -8 -8 -8 -8 -8 -8 -7 0 62 62 0 -7 -8 -8 -8 -8 -8 -8 -8 -8 -8 -8 -8 -8 -8 -8 -8 -8 -8 -8 -8 -7 -6 0 17 88 95 58 12 0 -6 -7 -8 -8 -8 -8 -8 -8 -8 -8 -8 -8 -7 0 65 
105 18 -4 -7 -8 -8 -8 -8 -8 -8 -8 -8 -8 -8 -8 -8 -8 -8 -8 -8 -8 -8 -8 -8 -8 -8 -8 -8 -8 -8 -8 -8 -8 -8 -8 -8 -8 -8 -8 -8 -8 -8 -8 -8 -8 -8 -8 -8 -8 -8 -8 -8 -8 -8 -8 -8 -8 -8 -8 -8 -8 -7 0 62 62 0 -7 -8 -8 -8 -8 -8 -8 -8 -8 -8 -8 -8 -8 -8 -8 -8 -8 -8 -8 -8 -8 -8 -7 -5 11 58 94 94 58 12 0 -6 -7 -8 -8 -8 -8 -8 -8 -8 -8 -7 0 64 
67 2 -7 -8 -8 -8 -8 -8 -8 -8 -8 -8 -8 -8 -8 -8 -8 -8 -8 -8 -8 -8 -8 -8 -8 -8 -8 -8 -8 -8 -8 -8 -8 -8 -8 -8 -8 -8 -8 -8 -8 -8 -8 -8 -8 -8 -8 -8 -8 -8 -8 -8 -8 -8 -8 -8 -8 -8 -8 -8 -8 -7 0 62 62 0 -7 -8 -8 -8 -8 -8 -8 -8 -8 -8 -8 -8 -8 -8 -8 -8 -8 -8 -8 -8 -8 -8 -8 -7 -6 0 12 58 94 94 58 11 -5 -7 -8 -8 -8 -8 -8 -8 -8 -7 0 62 
63 0 -7 -8 -8 -8 -8 -8 -8 -8 -8 -8 -8 -8 -8 -8 -8 -8 -8 -8 -8 -8 -8 -8 -8 -8 -8 -8 -8 -8 -8 -8 -8 -8 -8 -8 -8 -8 -8 -8 -8 -8 -8 -8 -8 -8 -8 -8 -8 -8 -8 -8 -8 -8 -8 -8 -8 -8 -8 -8 -8 -7 0 62 62 0 -7 -8 -8 -8 -8 -8 -8 -8 -8 -8 -8 -8 -8 -8 -8 -8 -8 -8 -8 -8 -8 -8 -8 -8 -8 -7 -6 0 12 58 95 88 17 0 -6 -7 -7 -7 -8 -8 -8 -7 0 62 
62 0 -7 -8 -8 -8 -8 -8 -8 -8 -8 -8 -8 -8 -8 -8 -8 -8 -8 -8 -8 -8 -8 -8 -8 -8 -8 -8 -8 -8 -8 -8 -8 -8 -8 -8 -8 -8 -8 -8 -8 -8 -8 -8 -8 -8 -8 -8 -8 -8 -8 -8 -8 -8 -8 -8 -8 -8 -8 -8 -8 -7 0 62 62 0 -7 -8 -8 -8 -8 -8 -8 -8 -8 -8 -8 -8 -8 -8 -8 -8 -8 -8 -8 -8 -8 -8 -8 -8 -8 -8 -8 -7 -6 0 18 89 95 59 12 1 0 0 -6 -7 -7 -7 0 62 
62 0 -7 -8 -8 -8 -8 -8 -8 -8 -8 -8 -8 -8 -8 -8 -8 -8 -8 -8 -8 -8 -8 -8 -8 -8 -8 -8 -8 -8 -8 -8 -8 -8 -8 -8 -8 -8 -8 -8 -8 -8 -8 -8 -8 -8 -8 -8 -8 -8 -8 -8 -8 -8 -8 -8 -8 -8 -8 -8 -8 -7 0 62 62 0 -7 -8 -8 -8 -8 -8 -8 -8 -8 -8 -8 -8 -8 -8 -8 -8 -8 -8 -8 -8 -8 -8 -8 -8 -8 -8 -8 -8 -7 -6 -3 19 75 137 104 67 62 53 12 1 0 0 2 63 
62 0 -7 -8 -8 -8 -8 -8 -8 -8 -8 -8 -8 -8 -8 -8 -8 -8 -8 -8 -8 -8 -8 -8 -8 -8 -8 -8 -8 -8 -8 -8 -8 -8 -8 -8 -8 -8 -8 -8 -8 -8 -8 -8 -8 -8 -8 -8 -8 -8 -8 -8 -8 -8 -8 -8 -8 -8 -8 -8 -8 -7 0 62 62 0 -7 -8 -8 -8 -8 -8 -8 -8 -8 -8 -8 -8 -8 -8 -8 -8 -8 -8 -8 -8 -8 -8 -8 -8 -8 -8 -7 -6 0 1 12 59 100 100 69 63 66 95 95 66 62 54 20 70 
65 1 -7 -7 -7 -7 -7 -7 -7 -8 -8 -8 -8 -8 -8 -8 -8 -8 -8 -8 -8 -8 -8 -8 -8 -8 -8 -8 -8 -8 -8 -8 -8 -8 -8 -8 -8 -8 -8 -8 -8 -8 -8 -8 -8 -8 -8 -8 -8 -8 -8 -8 -8 -8 -8 -8 -8 -8 -8 -8 -8 -7 0 62 62 0 -7 -8 -8 -8 -8 -8 -8 -8 -8 -8 -8 -8 -8 -8 -8 -8 -8 -8 -8 -8 -8 -8 -8 -7 -7 -6 0 12 53 66 95 94 58 12 1 0 1 12 53 62 66 95 100 116 
70 9 1 0 0 0 0 0 0 -6 -7 -7 -7 -7 -7 -7 -7 -8 -8 -8 -8 -8 -8 -8 -8 -8 -8 -8 -8 -8 -8 -8 -8 -8 -8 -8 -8 -8 -8 -8 -8 -8 -8 -8 -8 -8 -8 -8 -8 -8 -8 -8 -8 -8 -8 -8 -8 -8 -8 -8 -8 -7 0 62 62 0 -7 -8 -8 -8 -8 -8 -8 -8 -8 -8 -8 -8 -8 -8 -8 -8 -8 -8 -8 -8 -8 -7 -6 0 1 12 58 94 95 66 53 12 0 -6 -7 -7 -7 -6 0 0 1 12 60 112 
113 69 63 62 62 62 62 61 53 12 1 0 0 0 0 0 0 -6 -7 -7 -7 -7 -7 -7 -7 -7 -8 -8 -8 -8 -8 -8 -8 -8 -8 -8 -8 -8 -8 -8 -8 -8 -8 -8 -8 -8 -8 -8 -8 -8 -8 -8 -8 -8 -8 -8 -8 -8 -8 -8 -8 -7 0 62 62 0 -7 -8 -8 -8 -8 -8 -8 -8 -8 -8 -8 -8 -8 -8 -8 -8 -8 -8 -7 -7 -6 0 12 53 66 95 94 58 12 1 0 -6 -7 -8 -8 -8 -8 -8 -7 -7 -7 -5 7 70 
113 69 63 62 62 62 63 66 95 95 66 63 62 62 62 61 53 12 1 0 0 0 0 0 0 0 -6 -7 -7 -7 -7 -7 -7 -7 -8 -8 -8 -8 -8 -8 -8 -8 -8 -8 -8 -8 -8 -8 -8 -8 -8 -8 -8 -8 -8 -8 -8 -8 -8 -8 -8 -7 0 62 62 0 -7 -8 -8 -8 -8 -8 -8 -8 -8 -8 -8 -8 -8 -8 -8 -8 -7 -6 0 1 12 58 94 95 66 53 12 0 -6 -7 -7 -8 -8 -8 -8 -8 -8 -8 -8 -8 -8 -7 1 65 
69 9 1 0 0 0 0 1 12 53 61 62 62 62 63 66 95 95 66 63 62 62 62 62 61 53 12 1 0 0 0 0 0 0 -6 -7 -7 -7 -7 -7 -7 -7 -7 -8 -8 -8 -8 -8 -8 -8 -8 -8 -8 -8 -8 -8 -8 -8 -8 -8 -8 -7 0 62 62 0 -7 -8 -8 -8 -8 -8 -8 -8 -8 -8 -8 -8 -8 -8 -7 -6 0 12 53 66 95 94 58 12 1 0 -6 -7 -8 -8 -8 -8 -8 -8 -8 -8 -8 -8 -8 -8 -8 -7 0 62 
63 1 -7 -7 -7 -7 -7 -7 -6 0 0 0 0 0 0 1 12 53 61 62 62 62 62 63 66 95 95 66 63 62 62 62 61 53 12 1 0 0 0 0 0 0 0 -6 -7 -7 -7 -7 -7 -7 -7 -8 -8 -8 -8 -8 -8 -8 -8 -8 -8 -7 0 62 62 0 -7 -8 -8 -8 -8 -8 -8 -8 -8 -8 -8 -7 -7 -6 0 12 58 94 95 66 53 12 0 -6 -7 -7 -8 -8 -8 -8 -8 -8 -8 -8 -8 -8 -8 -8 -8 -8 -8 -7 0 62 
62 0 -7 -8 -8 -8 -8 -8 -8 -7 -7 -7 -7 -7 -7 -7 -6 0 0 0 0 0 0 0 1 12 53 61 62 62 62 63 66 95 95 66 63 62 62 62 62 61 53 12 1 0 0 0 0 0 0 -6 -7 -7 -7 -7 -7 -7 -7 -7 -8 -7 0 62 62 0 -7 -8 -8 -8 -8 -8 -8 -8 -8 -7 -6 0 1 12 58 94 94 58 12 1 0 -6 -7 -8 -8 -8 -8 -8 -8 -8 -8 -8 -8 -8 -8 -8 -8 -8 -8 -8 -8 -7 0 62 
62 0 -7 -8 -8 -8 -8 -8 -8 -8 -8 -8 -8 -8 -8 -8 -8 -7 -7 -7 -7 -7 -7 -7 -7 -6 0 0 0 0 0 0 1 12 53 61 62 62 62 62 63 66 95 95 66 63 62 62 62 61 53 12 1 0 0 0 0 0 0 0 -6 -6 1 63 63 0 -7 -8 -8 -8 -8 -8 -7 -7 -6 0 12 53 66 95 94 58 12 0 -6 -7 -7 -8 -8 -8 -8 -8 -8 -8 -8 -8 -8 -8 -8 -8 -8 -8 -8 -8 -8 -8 -8 -7 0 62 
62 0 -7 -8 -8 -8 -8 -8 -8 -8 -8 -8 -8 -8 -8 -8 -8 -8 -8 -8 -8 -8 -8 -8 -8 -8 -7 -7 -7 -7 -7 -7 -7 -6 0 0 0 0 0 0 0 1 12 53 61 62 62 62 63 66 95 95 66 63 62 62 62 62 61 53 12 2 9 69 68 2 -7 -8 -8 -8 -7 -6 0 1 12 58 94 95 66 53 12 0 -6 -7 -8 -8 -8 -8 -8 -8 -8 -8 -8 -8 -8 -8 -8 -8 -8 -8 -8 -8 -8 -8 -8 -8 -8 -7 0 62 
62 0 -7 -8 -8 -8 -8 -8 -8 -8 -8 -8 -8 -8 -8 -8 -8 -8 -8 -8 -8 -8 -8 -8 -8 -8 -8 -8 -8 -8 -8 -8 -8 -8 -7 -7 -7 -7 -7 -7 -7 -7 -6 0 0 0 0 0 0 1 12 53 61 62 62 62 62 63 66 95 95 67 69 113 105 18 -4 -7 -7 -6 0 12 53 66 95 94 58 12 1 0 -6 -7 -8 -8 -8 -8 -8 -8 -8 -8 -8 -8 -8 -8 -8 -8 -8 -8 -8 -8 -8 -8 -8 -8 -8 -8 -8 -7 0 62 
62 0 -7 -8 -8 -8 -8 -8 -8 -8 -8 -8 -8 -8 -8 -8 -8 -8 -8 -8 -8 -8 -8 -8 -8 -8 -8 -8 -8 -8 -8 -8 -8 -8 -8 -8 -8 -8 -8 -8 -8 -8 -8 -7 -7 -7 -7 -7 -7 -7 -6 0 0 0 0 0 0 0 1 12 53 61 63 69 99 90 18 2 1 12 58 94 95 66 53 12 0 -6 -7 -7 -8 -8 -8 -8 -8 -8 -8 -8 -8 -8 -8 -8 -8 -8 -8 -8 -8 -8 -8 -8 -8 -8 -8 -8 -8 -8 -8 -7 0 62 
62 0 -7 -8 -8 -8 -8 -8 -8 -8 -8 -8 -8 -8 -8 -8 -8 -8 -8 -8 -8 -8 -8 -8 -8 -8 -8 -8 -8 -8 -8 -8 -8 -8 -8 -8 -8 -8 -8 -8 -8 -8 -8 -8 -8 -8 -8 -8 -8 -8 -8 -7 -7 -7 -7 -7 -7 -7 -7 -6 0 0 0 2 18 90 99 70 67 95 94 58 12 1 0 -6 -7 -8 -8 -8 -8 -8 -8 -8 -8 -8 -8 -8 -8 -8 -8 -8 -8 -8 -8 -8 -8 -8 -8 -8 -8 -8 -8 -8 -8 -8 -8 -7 0 62 
62 0 -7 -8 -8 -8 -8 -8 -8 -8 -8 -8 -8 -8 -8 -8 -8 -8 -8 -8 -8 -8 -8 -8 -8 -8 -8 -8 -8 -8 -8 -8 -8 -8 -8 -8 -8 -8 -8 -8 -8 -8 -8 -8 -8 -8 -8 -8 -8 -8 -8 -8 -8 -8 -8 -8 -8 -8 -8 -8 -7 -7 -7 -7 -4 18 105 113 68 54 12 0 -6 -7 -7 -8 -8 -8 -8 -8 -8 -8 -8 -8 -8 -8 -8 -8 -8 -8 -8 -8 -8 -8 -8 -8 -8 -8 -8 -8 -8 -8 -8 -8 -8 -8 -8 -7 0 62 
62 0 -7 -8 -8 -8 -8 -8 -8 -8 -8 -8 -8 -8 -8 -8 -8 -8 -8 -8 -8 -8 -8 -8 -8 -8 -8 -8 -8 -8 -8 -8 -8 -8 -8 -8 -8 -8 -8 -8 -8 -8 -8 -8 -8 -8 -8 -8 -8 -8 -8 -8 -8 -8 -8 -8 -8 -8 -8 -8 -8 -8 -8 -8 -7 2 68 69 8 0 -6 -7 -8 -8 -8 -8 -8 -8 -8 -8 -8 -8 -8 -8 -8 -8 -8 -8 -8 -8 -8 -8 -8 -8 -8 -8 -8 -8 -8 -8 -8 -8 -8 -8 -8 -8 -8 -7 0 62 
62 0 -7 -8 -8 -8 -8 -8 -8 -8 -8 -8 -8 -8 -8 -8 -8 -8 -8 -8 -8 -8 -8 -8 -8 -8 -8 -8 -8 -8 -8 -8 -8 -8 -8 -8 -8 -8 -8 -8 -8 -8 -8 -8 -8 -8 -8 -8 -8 -8 -8 -8 -8 -8 -8 -8 -8 -8 -8 -8 -8 -8 -8 -8 -7 0 63 63 1 -7 -8 -8 -8 -8 -8 -8 -8 -8 -8 -8 -8 -8 -8 -8 -8 -8 -8 -8 -8 -8 -8 -8 -8 -8 -8 -8 -8 -8 -8 -8 -8 -8 -8 -8 -8 -8 -8 -7 0 62 
63 1 -7 -7 -7 -7 -7 -7 -7 -7 -7 -7 -7 -7 -7 -7 -7 -7 -7 -7 -7 -7 -7 -7 -7 -7 -7 -7 -7 -7 -7 -7 -7 -7 -7 -7 -7 -7 -7 -7 -7 -7 -7 -7 -7 -7 -7 -7 -7 -7 -7 -7 -7 -7 -7 -7 -7 -7 -7 -7 -7 -7 -7 -7 -7 1 63 63 1 -6 -7 -7 -7 -7 -7 -7 -7 -7 -7 -7 -7 -7 -7 -7 -7 -7 -7 -7 -7 -7 -7 -7 -7 -7 -7 -7 -7 -7 -7 -7 -7 -7 -7 -7 -7 -7 -7 -7 1 63 
69 9 1 0 0 0 0 0 0 0 0 0 0 0 0 0 0 0 0 0 0 0 0 0 0 0 0 0 0 0 0 0 0 0 0 0 0 0 0 0 0 0 0 0 0 0 0 0 0 0 0 0 0 0 0 0 0 0 0 0 0 0 0 0 1 9 69 69 9 1 0 0 0 0 0 0 0 0 0 0 0 0 0 0 0 0 0 0 0 0 0 0 0 0 0 0 0 0 0 0 0 0 0 0 0 0 0 1 9 69 
115 69 63 62 62 62 62 62 62 62 62 62 62 62 62 62 62 62 62 62 62 62 62 62 62 62 62 62 62 62 62 62 63 65 64 62 62 62 62 62 62 62 62 62 62 62 62 62 62 64 64 62 62 62 62 62 62 62 62 62 62 62 62 62 63 69 113 113 69 63 62 62 62 62 62 62 62 62 62 62 62 62 62 62 62 62 62 62 62 62 62 63 65 64 62 62 62 62 62 62 62 62 62 63 65 64 62 63 69 115 
