P2
110 110
255
132 85 75 74 74 74 74 74 74 74 74 74 74 74 74 74 74 74 74 74 74 74 74 74 74 74 74 74 74 74 75 80 104 150 117 82 75 74 74 74 74 74 74 74 74 74 74 75 84 128 128 84 75 74 74 74 74 74 74 74 74 74 74 74 74 75 78 78 75 74 74 74 74 74 74 74 74 74 74 74 74 74 74 74 74 74 74 74 74 75 78 98 149 118 82 75 74 74 74 74 74 75 78 98 149 118 82 76 85 132 
85 20 8 7 7 7 7 7 7 7 7 7 7 7 7 7 7 7 7 7 7 7 7 7 7 7 7 7 7 7 11 35 107 101 32 10 7 7 7 7 7 7 7 7 7 7 7 8 21 85 85 20 8 7 7 7 7 7 7 7 7 7 7 7 7 7 7 7 7 7 7 7 7 7 7 7 7 7 7 7 7 7 7 7 7 7 7 7 7 8 21 80 108 34 10 7 7 7 7 7 7 8 18 74 109 34 10 8 20 85 
75 8 -4 -5 -5 -5 -5 -5 -5 -5 -5 -5 -5 -5 -5 -5 -5 -5 -5 -5 -5 -5 -5 -5 -5 -5 -5 -5 -5 -4 9 69 104 31 0 -5 -5 -5 -5 -5 -5 -5 -5 -5 -5 -5 -5 -4 11 83 76 8 -4 -5 -5 -5 -5 -5 -5 -5 -5 -5 -5 -5 -5 -5 -5 -5 -5 -5 -5 -5 -5 -5 -5 -5 -5 -5 -5 -5 -5 -5 -5 -5 -5 -5 -5 -5 -5 -1 24 103 69 8 -4 -5 -5 -5 -5 -5 -5 -4 8 74 80 10 -4 -4 8 75 
74 7 -5 -7 -7 -7 -7 -7 -7 -7 -7 -7 -7 -7 -7 -7 -7 -7 -7 -7 -7 -7 -7 -7 -7 -7 -7 -7 -6 0 31 103 68 7 -5 -7 -7 -7 -7 -7 -7 -7 -7 -7 -7 -7 -6 -2 24 116 77 7 -5 -7 -7 -7 -7 -7 -7 -7 -7 -7 -7 -7 -7 -7 -7 -7 -7 -7 -7 -7 -7 -7 -7 -7 -7 -7 -7 -7 -7 -7 -7 -7 -7 -7 -7 -7 -6 4 63 103 24 -2 -6 -7 -7 -7 -7 -7 -7 -5 9 80 73 7 -5 -5 7 74 
74 7 -5 -7 -7 -7 -7 -7 -7 -7 -7 -7 -7 -7 -7 -7 -7 -7 -7 -7 -7 -7 -7 -7 -7 -7 -7 -6 -3 22 96 96 22 -3 -6 -7 -7 -7 -7 -7 -7 -7 -7 -7 -7 -7 -5 6 70 153 79 7 -5 -7 -7 -7 -7 -7 -7 -7 -7 -7 -7 -7 -7 -7 -7 -7 -7 -7 -7 -7 -7 -7 -7 -7 -7 -7 -7 -7 -7 -7 -7 -7 -7 -7 -7 -7 -5 9 78 78 9 -5 -7 -7 -7 -7 -7 -7 -6 -3 23 103 62 4 -6 -5 7 74 
74 7 -5 -7 -7 -7 -7 -7 -7 -7 -7 -7 -7 -7 -7 -7 -7 -7 -7 -7 -7 -7 -7 -7 -7 -7 -7 -5 7 68 103 31 0 -6 -7 -7 -7 -7 -7 -7 -7 -7 -7 -7 -7 -6 -2 24 107 133 77 7 -5 -7 -7 -7 -7 -7 -7 -7 -7 -7 -7 -7 -7 -7 -7 -7 -7 -7 -7 -7 -7 -7 -7 -7 -7 -7 -7 -7 -7 -7 -7 -7 -7 -7 -7 -6 -2 24 103 63 4 -6 -7 -7 -7 -7 -7 -7 -6 4 62 103 23 -3 -6 -5 7 74 
74 7 -5 -7 -7 -7 -7 -7 -7 -7 -7 -7 -7 -7 -7 -7 -7 -7 -7 -7 -7 -7 -7 -7 -7 -7 -6 0 31 103 68 7 -5 -7 -7 -7 -7 -7 -7 -7 -7 -7 -7 -7 -7 -5 6 68 113 100 76 7 -5 -7 -7 -7 -7 -7 -7 -7 -7 -7 -7 -7 -7 -7 -7 -7 -7 -7 -7 -7 -7 -7 -7 -7 -7 -7 -7 -7 -7 -7 -7 -7 -7 -7 -7 -5 6 68 102 23 -3 -7 -7 -7 -7 -7 -7 -7 -5 6 73 80 9 -5 -7 -5 7 74 
74 7 -5 -7 -7 -7 -7 -7 -7 -7 -7 -7 -7 -7 -7 -7 -7 -7 -7 -7 -7 -7 -7 -7 -7 -6 -3 22 96 96 22 -3 -6 -7 -7 -7 -7 -7 -7 -7 -7 -7 -7 -7 -6 -2 24 103 80 85 80 9 -5 -7 -7 -7 -7 -7 -7 -7 -7 -7 -7 -7 -7 -7 -7 -7 -7 -7 -7 -7 -7 -7 -7 -7 -7 -7 -7 -7 -7 -7 -7 -7 -7 -7 -7 -3 23 102 68 6 -5 -7 -7 -7 -7 -7 -7 -7 -5 9 80 73 6 -5 -7 -5 7 74 
74 7 -5 -7 -7 -7 -7 -7 -7 -7 -7 -7 -7 -7 -7 -7 -7 -7 -7 -7 -7 -7 -7 -7 -7 -5 7 68 103 31 0 -6 -7 -7 -7 -7 -7 -7 -7 -7 -7 -7 -7 -7 -5 7 68 103 35 66 104 23 -3 -7 -7 -7 -7 -7 -7 -7 -7 -7 -7 -7 -7 -7 -7 -7 -7 -7 -7 -7 -7 -7 -7 -7 -7 -7 -7 -7 -7 -7 -7 -7 -7 -7 -6 4 63 103 24 -2 -6 -7 -7 -7 -7 -7 -7 -7 -3 23 103 62 4 -6 -7 -5 7 74 
74 7 -5 -7 -7 -7 -7 -7 -7 -7 -7 -7 -7 -7 -7 -7 -7 -7 -7 -7 -7 -7 -7 -7 -6 0 31 103 68 7 -5 -7 -7 -7 -7 -7 -7 -7 -7 -7 -7 -7 -7 -6 0 31 103 68 11 25 103 62 4 -6 -7 -7 -7 -7 -7 -7 -7 -7 -7 -7 -7 -7 -7 -7 -7 -7 -7 -7 -7 -7 -7 -7 -7 -7 -7 -7 -7 -7 -7 -7 -7 -7 -5 9 78 78 9 -5 -7 -7 -7 -7 -7 -7 -7 -6 4 62 103 23 -3 -6 -7 -5 7 74 
74 7 -5 -7 -7 -7 -7 -7 -7 -7 -7 -7 -7 -7 -7 -7 -7 -7 -7 -7 -7 -7 -7 -6 -3 22 96 96 22 -3 -6 -7 -7 -7 -7 -7 -7 -7 -7 -7 -7 -7 -6 -3 21 96 96 22 -1 9 80 73 6 -5 -7 -7 -7 -7 -7 -7 -7 -7 -7 -7 -7 -7 -7 -7 -7 -7 -7 -7 -7 -7 -7 -7 -7 -7 -7 -7 -7 -7 -7 -7 -7 -6 -2 24 103 63 4 -6 -7 -7 -7 -7 -7 -7 -7 -5 6 73 80 9 -5 -7 -7 -5 7 74 
74 7 -5 -7 -7 -7 -7 -7 -7 -7 -7 -7 -7 -7 -7 -7 -7 -7 -7 -7 -7 -7 -7 -5 7 68 103 31 0 -6 -7 -7 -7 -7 -7 -7 -7 -7 -7 -7 -7 -7 -5 6 68 103 31 0 -5 7 75 74 7 -5 -7 -7 -7 -7 -7 -7 -7 -7 -7 -7 -7 -7 -7 -7 -7 -7 -7 -7 -7 -7 -7 -7 -7 -7 -7 -7 -7 -7 -7 -7 -7 -5 6 68 102 23 -3 -7 -7 -7 -7 -7 -7 -7 -7 -5 9 80 73 6 -5 -7 -7 -5 7 74 
75 7 -5 -7 -7 -7 -7 -7 -7 -7 -7 -7 -7 -7 -7 -7 -7 -7 -7 -7 -7 -7 -6 0 31 103 68 7 -5 -7 -7 -7 -7 -7 -7 -7 -7 -7 -7 -7 -7 -6 -2 24 102 68 7 -5 -5 7 74 74 7 -5 -7 -7 -7 -7 -7 -7 -7 -7 -7 -7 -7 -7 -7 -7 -7 -7 -7 -7 -7 -7 -7 -7 -7 -7 -7 -7 -7 -7 -7 -7 -7 -3 23 102 68 6 -5 -7 -7 -7 -7 -7 -7 -7 -7 -3 23 103 62 4 -6 -7 -7 -5 7 74 
82 10 -5 -7 -7 -7 -7 -7 -7 -7 -7 -7 -7 -7 -7 -7 -7 -7 -7 -7 -7 -6 -3 22 96 96 22 -3 -6 -7 -7 -7 -7 -7 -7 -7 -7 -7 -7 -7 -7 -5 6 68 102 24 -2 -6 -5 7 74 75 7 -5 -7 -7 -7 -7 -7 -7 -7 -7 -7 -7 -7 -7 -7 -7 -7 -7 -7 -7 -7 -7 -7 -7 -7 -7 -7 -7 -7 -7 -7 -7 -6 4 63 103 24 -2 -6 -7 -7 -7 -7 -7 -7 -7 -6 4 62 103 23 -3 -7 -7 -7 -5 7 75 
117 32 0 -6 -7 -7 -7 -7 -7 -7 -7 -7 -7 -7 -7 -7 -7 -7 -7 -7 -7 -5 7 68 103 31 0 -6 -7 -7 -7 -7 -7 -7 -7 -7 -7 -7 -7 -7 -6 -2 24 102 68 6 -5 -7 -5 6 73 80 9 -5 -7 -7 -7 -7 -7 -7 -7 -7 -7 -7 -7 -7 -7 -7 -7 -7 -7 -7 -7 -7 -7 -7 -7 -7 -7 -7 -7 -7 -7 -7 -5 9 78 78 9 -5 -7 -7 -7 -7 -7 -7 -7 -7 -5 6 73 80 9 -5 -7 -7 -7 -5 7 77 
150 101 29 0 -6 -7 -7 -7 -7 -7 -7 -7 -7 -7 -7 -7 -7 -7 -7 -7 -6 0 31 103 68 7 -5 -7 -7 -7 -7 -7 -7 -7 -7 -7 -7 -7 -7 -7 -5 7 68 102 24 -2 -6 -7 -6 4 62 103 23 -3 -7 -7 -7 -7 -7 -7 -7 -7 -7 -7 -7 -7 -7 -7 -7 -7 -7 -7 -7 -7 -7 -7 -7 -7 -7 -7 -7 -7 -7 -6 -2 24 103 63 4 -6 -7 -7 -7 -7 -7 -7 -7 -7 -5 9 80 73 6 -5 -7 -7 -7 -5 7 78 
104 108 97 29 0 -6 -7 -7 -7 -7 -7 -7 -7 -7 -7 -7 -7 -7 -7 -6 -3 22 96 96 22 -3 -6 -7 -7 -7 -7 -7 -7 -7 -7 -7 -7 -7 -7 -6 0 31 103 68 6 -5 -7 -7 -7 -3 23 103 62 4 -6 -7 -7 -7 -7 -7 -7 -7 -7 -7 -7 -7 -7 -7 -7 -7 -7 -7 -7 -7 -7 -7 -7 -7 -7 -7 -7 -7 -7 -5 6 68 102 23 -3 -7 -7 -7 -7 -7 -7 -7 -7 -7 -3 23 103 62 4 -6 -7 -7 -7 -5 7 76 
80 42 98 96 21 -3 -6 -7 -7 -7 -7 -7 -7 -7 -7 -7 -7 -7 -7 -5 7 68 103 31 0 -6 -7 -7 -7 -7 -7 -7 -7 -7 -7 -7 -7 -7 -6 -3 21 96 96 21 -3 -6 -7 -7 -7 -5 9 80 73 6 -5 -7 -7 -7 -7 -7 -7 -7 -7 -7 -7 -7 -7 -7 -7 -7 -7 -7 -7 -7 -7 -7 -7 -7 -7 -7 -7 -7 -7 -3 23 102 68 6 -5 -7 -7 -7 -7 -7 -7 -7 -7 -6 4 62 103 23 -3 -7 -7 -7 -7 -5 7 75 
75 14 32 103 68 7 -5 -7 -7 -7 -7 -7 -7 -7 -7 -7 -7 -7 -6 0 31 103 68 7 -5 -7 -7 -7 -7 -7 -7 -7 -7 -7 -7 -7 -7 -7 -5 6 68 103 31 0 -6 -7 -7 -7 -7 -5 7 75 74 7 -5 -7 -7 -7 -7 -7 -7 -7 -7 -7 -7 -7 -7 -7 -7 -7 -7 -7 -7 -7 -7 -7 -7 -7 -7 -7 -7 -7 -6 4 63 103 24 -2 -6 -7 -7 -7 -7 -7 -7 -7 -7 -5 6 73 80 9 -5 -7 -7 -7 -7 -5 7 74 
74 8 9 68 103 31 0 -6 -7 -7 -7 -7 -7 -7 -7 -7 -7 -6 -3 22 96 96 22 -3 -6 -7 -7 -7 -7 -7 -7 -7 -7 -7 -7 -7 -7 -6 -2 24 102 68 7 -5 -7 -7 -7 -7 -7 -5 7 74 74 7 -5 -7 -7 -7 -7 -7 -7 -7 -7 -7 -7 -7 -7 -7 -7 -7 -7 -7 -7 -7 -7 -7 -7 -7 -7 -7 -7 -7 -5 9 78 78 9 -5 -7 -7 -7 -7 -7 -7 -7 -7 -7 -5 9 80 73 6 -5 -7 -7 -7 -7 -5 7 74 
74 7 -1 22 96 97 29 0 -6 -7 -7 -7 -7 -7 -7 -7 -7 -5 7 68 103 31 0 -6 -7 -7 -7 -7 -7 -7 -7 -7 -7 -7 -7 -7 -7 -5 6 68 102 24 -2 -6 -7 -7 -7 -7 -7 -5 7 74 75 7 -5 -7 -7 -7 -7 -7 -7 -7 -7 -7 -7 -7 -7 -7 -7 -7 -7 -7 -7 -7 -7 -7 -7 -7 -7 -7 -7 -6 -2 24 103 63 4 -6 -7 -7 -7 -7 -7 -7 -7 -7 -7 -3 23 103 62 4 -6 -7 -7 -7 -7 -5 7 74 
74 7 -5 0 29 97 97 29 0 -6 -7 -7 -7 -7 -7 -7 -6 0 31 103 68 7 -5 -7 -7 -7 -7 -7 -7 -7 -7 -7 -7 -7 -7 -7 -6 -2 24 102 68 6 -5 -7 -7 -7 -7 -7 -7 -5 6 73 80 9 -5 -7 -7 -7 -7 -7 -7 -7 -7 -7 -7 -7 -7 -7 -7 -7 -7 -7 -7 -7 -7 -7 -7 -7 -7 -7 -7 -5 6 68 102 23 -3 -7 -7 -7 -7 -7 -7 -7 -7 -7 -6 4 62 103 23 -3 -7 -7 -7 -7 -7 -5 7 74 
74 7 -5 -6 0 29 97 97 29 0 -6 -7 -7 -7 -7 -6 -3 22 96 96 22 -3 -6 -7 -7 -7 -7 -7 -7 -7 -7 -7 -7 -7 -7 -7 -5 7 68 102 24 -2 -6 -7 -7 -7 -7 -7 -7 -6 4 62 103 23 -3 -7 -7 -7 -7 -7 -7 -7 -7 -7 -7 -7 -7 -7 -7 -7 -7 -7 -7 -7 -7 -7 -7 -7 -7 -7 -7 -3 23 102 68 6 -5 -7 -7 -7 -7 -7 -7 -7 -7 -7 -5 6 73 80 9 -5 -7 -7 -7 -7 -7 -5 7 74 
74 7 -5 -7 -6 0 29 97 97 29 0 -6 -7 -7 -7 -5 7 68 103 31 0 -6 -7 -7 -7 -7 -7 -7 -7 -7 -7 -7 -7 -7 -7 -6 0 31 103 68 6 -5 -7 -7 -7 -7 -7 -7 -7 -7 -3 23 103 62 4 -6 -7 -7 -7 -7 -7 -7 -7 -7 -7 -7 -7 -7 -7 -7 -7 -7 -7 -7 -7 -7 -7 -7 -7 -7 -6 4 63 103 24 -2 -6 -7 -7 -7 -7 -7 -7 -7 -7 -7 -5 9 80 73 6 -5 -7 -7 -7 -7 -7 -5 7 74 
74 7 -5 -7 -7 -6 0 29 97 97 29 0 -6 -7 -6 0 31 103 68 7 -5 -7 -7 -7 -7 -7 -7 -7 -7 -7 -7 -7 -7 -7 -6 -3 21 96 96 21 -3 -6 -7 -7 -7 -7 -7 -7 -7 -7 -5 9 80 73 6 -5 -7 -7 -7 -7 -7 -7 -7 -7 -7 -7 -7 -7 -7 -7 -7 -7 -7 -7 -7 -7 -7 -7 -7 -7 -5 9 78 78 9 -5 -7 -7 -7 -7 -7 -7 -7 -7 -7 -7 -3 23 103 62 4 -6 -7 -7 -7 -7 -7 -5 7 74 
74 7 -5 -7 -7 -7 -6 0 29 97 97 29 0 -5 -3 22 96 96 22 -3 -6 -7 -7 -7 -7 -7 -7 -7 -7 -7 -7 -7 -7 -7 -5 6 68 103 31 0 -6 -7 -7 -7 -7 -7 -7 -7 -7 -7 -5 7 75 74 7 -5 -7 -7 -7 -7 -7 -7 -7 -7 -7 -7 -7 -7 -7 -7 -7 -7 -7 -7 -7 -7 -7 -7 -7 -6 -2 24 103 63 4 -6 -7 -7 -7 -7 -7 -7 -7 -7 -7 -6 4 62 103 23 -3 -7 -7 -7 -7 -7 -7 -5 7 74 
74 7 -5 -7 -7 -7 -7 -6 0 29 97 97 29 1 8 68 103 31 0 -6 -7 -7 -7 -7 -7 -7 -7 -7 -7 -7 -7 -7 -7 -6 -2 24 102 68 7 -5 -7 -7 -7 -7 -7 -7 -7 -7 -7 -7 -5 7 74 75 7 -5 -7 -7 -7 -7 -7 -7 -7 -7 -7 -7 -7 -7 -7 -7 -7 -7 -7 -7 -7 -7 -7 -7 -7 -5 6 68 102 23 -3 -7 -7 -7 -7 -7 -7 -7 -7 -7 -7 -5 6 73 80 9 -5 -7 -7 -7 -7 -7 -7 -5 7 74 
74 7 -5 -7 -7 -7 -7 -7 -6 0 29 97 97 35 37 104 68 7 -5 -7 -7 -7 -7 -7 -7 -7 -7 -7 -7 -7 -7 -7 -7 -5 6 68 102 24 -2 -6 -7 -7 -7 -7 -7 -7 -7 -7 -7 -7 -5 6 73 80 9 -5 -7 -7 -7 -7 -7 -7 -7 -7 -7 -7 -7 -7 -7 -7 -7 -7 -7 -7 -7 -7 -7 -7 -7 -3 23 102 68 6 -5 -7 -7 -7 -7 -7 -7 -7 -7 -7 -7 -5 9 80 73 6 -5 -7 -7 -7 -7 -7 -7 -5 7 74 
74 7 -5 -7 -7 -7 -7 -7 -7 -6 0 29 98 117 117 97 22 -3 -6 -7 -7 -7 -7 -7 -7 -7 -7 -7 -7 -7 -7 -7 -6 -2 24 102 68 6 -5 -7 -7 -7 -7 -7 -7 -7 -7 -7 -7 -7 -6 4 62 103 23 -3 -7 -7 -7 -7 -7 -7 -7 -7 -7 -7 -7 -7 -7 -7 -7 -7 -7 -7 -7 -7 -7 -7 -6 4 63 103 24 -2 -6 -7 -7 -7 -7 -7 -7 -7 -7 -7 -7 -3 23 103 62 4 -6 -7 -7 -7 -7 -7 -7 -5 7 74 
74 7 -5 -7 -7 -7 -7 -7 -7 -7 -6 0 32 118 118 32 0 -6 -7 -7 -7 -7 -7 -7 -7 -7 -7 -7 -7 -7 -7 -7 -5 7 68 102 24 -2 -6 -7 -7 -7 -7 -7 -7 -7 -7 -7 -7 -7 -7 -3 23 103 62 4 -6 -7 -7 -7 -7 -7 -7 -7 -7 -7 -7 -7 -7 -7 -7 -7 -7 -7 -7 -7 -7 -7 -5 9 78 78 9 -5 -7 -7 -7 -7 -7 -7 -7 -7 -7 -7 -6 4 62 103 23 -3 -7 -7 -7 -7 -7 -7 -7 -5 7 74 
74 7 -5 -7 -7 -7 -7 -7 -7 -7 -7 -5 10 82 83 10 -5 -7 -7 -7 -7 -7 -7 -7 -7 -7 -7 -7 -7 -7 -7 -6 0 31 103 68 6 -5 -7 -7 -7 -7 -7 -7 -7 -7 -7 -7 -7 -7 -7 -5 9 80 73 6 -5 -7 -7 -7 -7 -7 -7 -7 -7 -7 -7 -7 -7 -7 -7 -7 -7 -7 -7 -7 -7 -6 -2 24 103 63 4 -6 -7 -7 -7 -7 -7 -7 -7 -7 -7 -7 -5 6 73 80 9 -5 -7 -7 -7 -7 -7 -7 -7 -5 7 74 
74 7 -5 -7 -7 -7 -7 -7 -7 -7 -7 -5 7 73 81 9 -5 -7 -7 -7 -7 -7 -7 -7 -7 -7 -7 -7 -7 -7 -6 -3 21 96 96 21 -3 -6 -7 -7 -7 -7 -7 -7 -7 -7 -7 -7 -7 -7 -7 -5 7 75 74 7 -5 -7 -7 -7 -7 -7 -7 -7 -7 -7 -7 -7 -7 -7 -7 -7 -7 -7 -7 -7 -7 -5 6 68 102 23 -3 -7 -7 -7 -7 -7 -7 -7 -7 -7 -7 -7 -5 9 80 73 6 -5 -7 -7 -7 -7 -7 -7 -7 -5 7 74 
74 7 -5 -7 -7 -7 -7 -7 -7 -7 -7 -6 4 62 103 23 -3 -7 -7 -7 -7 -7 -7 -7 -7 -7 -7 -7 -7 -7 -5 6 68 103 31 0 -6 -7 -7 -7 -7 -7 -7 -7 -7 -7 -7 -7 -7 -7 -7 -5 7 74 74 7 -5 -7 -7 -7 -7 -7 -7 -7 -7 -7 -7 -7 -7 -7 -7 -7 -7 -7 -7 -7 -7 -3 23 102 68 6 -5 -7 -7 -7 -7 -7 -7 -7 -7 -7 -7 -7 -3 23 103 62 4 -6 -7 -7 -7 -7 -7 -7 -7 -5 7 74 
74 7 -5 -7 -7 -7 -7 -7 -7 -7 -7 -7 -3 23 103 62 4 -6 -7 -7 -7 -7 -7 -7 -7 -7 -7 -7 -7 -6 -2 24 102 68 7 -5 -7 -7 -7 -7 -7 -7 -7 -7 -7 -7 -7 -7 -7 -7 -7 -5 7 74 75 7 -5 -7 -7 -7 -7 -7 -7 -7 -7 -7 -7 -7 -7 -7 -7 -7 -7 -7 -7 -7 -6 4 63 103 24 -2 -6 -7 -7 -7 -7 -7 -7 -7 -7 -7 -7 -6 4 62 103 23 -3 -7 -7 -7 -7 -7 -7 -7 -7 -5 7 74 
74 7 -5 -7 -7 -7 -7 -7 -7 -7 -7 -7 -5 9 80 73 6 -5 -7 -7 -7 -7 -7 -7 -7 -7 -7 -7 -7 -5 6 68 102 24 -2 -6 -7 -7 -7 -7 -7 -7 -7 -7 -7 -7 -7 -7 -7 -7 -7 -5 6 73 80 9 -5 -7 -7 -7 -7 -7 -7 -7 -7 -7 -7 -7 -7 -7 -7 -7 -7 -7 -7 -7 -5 9 78 78 9 -5 -7 -7 -7 -7 -7 -7 -7 -7 -7 -7 -7 -5 6 73 80 9 -5 -7 -7 -7 -7 -7 -7 -7 -7 -5 7 74 
74 7 -5 -7 -7 -7 -7 -7 -7 -7 -7 -7 -5 7 75 75 7 -5 -7 -7 -7 -7 -7 -7 -7 -7 -7 -7 -6 -2 24 102 68 6 -5 -7 -7 -7 -7 -7 -7 -7 -7 -7 -7 -7 -7 -7 -7 -7 -7 -6 4 62 103 23 -3 -7 -7 -7 -7 -7 -7 -7 -7 -7 -7 -7 -7 -7 -7 -7 -7 -7 -7 -6 -2 24 103 63 4 -6 -7 -7 -7 -7 -7 -7 -7 -7 -7 -7 -7 -5 9 80 73 6 -5 -7 -7 -7 -7 -7 -7 -7 -7 -5 7 75 
75 7 -5 -7 -7 -7 -7 -7 -7 -7 -7 -7 -5 6 73 80 9 -5 -7 -7 -7 -7 -7 -7 -7 -7 -7 -7 -5 7 68 102 24 -2 -6 -7 -7 -7 -7 -7 -7 -7 -7 -7 -7 -7 -7 -7 -7 -7 -7 -7 -3 23 103 62 4 -6 -7 -7 -7 -7 -7 -7 -7 -7 -7 -7 -7 -7 -7 -7 -7 -7 -7 -5 6 68 102 23 -3 -7 -7 -7 -7 -7 -7 -7 -7 -7 -7 -7 -7 -3 23 103 62 4 -6 -7 -7 -7 -7 -7 -7 -7 -7 -5 9 82 
77 7 -5 -7 -7 -7 -7 -7 -7 -7 -7 -7 -6 4 62 103 23 -3 -7 -7 -7 -7 -7 -7 -7 -7 -7 -6 0 31 103 68 6 -5 -7 -7 -7 -7 -7 -7 -7 -7 -7 -7 -7 -7 -7 -7 -7 -7 -7 -7 -5 9 80 73 6 -5 -7 -7 -7 -7 -7 -7 -7 -7 -7 -7 -7 -7 -7 -7 -7 -7 -7 -3 23 102 68 6 -5 -7 -7 -7 -7 -7 -7 -7 -7 -7 -7 -7 -6 4 62 103 23 -3 -7 -7 -7 -7 -7 -7 -7 -7 -6 -2 24 116 
79 7 -5 -7 -7 -7 -7 -7 -7 -7 -7 -7 -7 -3 23 103 62 4 -6 -7 -7 -7 -7 -7 -7 -7 -6 -3 21 96 96 21 -3 -6 -7 -7 -7 -7 -7 -7 -7 -7 -7 -7 -7 -7 -7 -7 -7 -7 -7 -7 -5 7 75 74 7 -5 -7 -7 -7 -7 -7 -7 -7 -7 -7 -7 -7 -7 -7 -7 -7 -7 -6 4 63 103 24 -2 -6 -7 -7 -7 -7 -7 -7 -7 -7 -7 -7 -7 -5 6 73 80 9 -5 -7 -7 -7 -7 -7 -7 -7 -7 -5 7 70 153 
77 7 -5 -7 -7 -7 -7 -7 -7 -7 -7 -7 -7 -5 9 80 73 6 -5 -7 -7 -7 -7 -7 -7 -7 -5 6 68 103 31 0 -6 -7 -7 -7 -7 -7 -7 -7 -7 -7 -7 -7 -7 -7 -7 -7 -7 -7 -7 -7 -5 7 74 74 7 -5 -7 -7 -7 -7 -7 -7 -7 -7 -7 -7 -7 -7 -7 -7 -7 -7 -5 9 78 78 9 -5 -7 -7 -7 -7 -7 -7 -7 -7 -7 -7 -7 -7 -5 9 80 73 6 -5 -7 -7 -7 -7 -7 -7 -7 -6 0 31 108 133 
75 7 -5 -7 -7 -7 -7 -7 -7 -7 -7 -7 -7 -5 7 75 75 7 -5 -7 -7 -7 -7 -7 -7 -6 -2 24 102 68 7 -5 -7 -7 -7 -7 -7 -7 -7 -7 -7 -7 -7 -7 -7 -7 -7 -7 -7 -7 -7 -7 -5 7 74 75 7 -5 -7 -7 -7 -7 -7 -7 -7 -7 -7 -7 -7 -7 -7 -7 -7 -6 -2 24 103 63 4 -6 -7 -7 -7 -7 -7 -7 -7 -7 -7 -7 -7 -7 -3 23 103 62 4 -6 -7 -7 -7 -7 -7 -7 -6 -3 22 96 107 98 
74 7 -5 -7 -7 -7 -7 -7 -7 -7 -7 -7 -7 -5 6 73 80 9 -5 -7 -7 -7 -7 -7 -7 -5 6 68 102 24 -2 -6 -7 -7 -7 -7 -7 -7 -7 -7 -7 -7 -7 -7 -7 -7 -7 -7 -7 -7 -7 -7 -5 6 73 80 9 -5 -7 -7 -7 -7 -7 -7 -7 -7 -7 -7 -7 -7 -7 -7 -7 -5 6 68 102 23 -3 -7 -7 -7 -7 -7 -7 -7 -7 -7 -7 -7 -7 -6 4 62 103 23 -3 -7 -7 -7 -7 -7 -7 -7 -5 7 68 104 44 80 
74 7 -5 -7 -7 -7 -7 -7 -7 -7 -7 -7 -7 -6 4 62 103 23 -3 -7 -7 -7 -7 -7 -6 -2 24 102 68 6 -5 -7 -7 -7 -7 -7 -7 -7 -7 -7 -7 -7 -7 -7 -7 -7 -7 -7 -7 -7 -7 -7 -6 4 62 103 23 -3 -6 -7 -7 -7 -7 -7 -7 -7 -7 -7 -7 -7 -7 -7 -7 -3 23 102 68 6 -5 -7 -7 -7 -7 -7 -7 -7 -7 -7 -7 -7 -7 -5 6 73 80 9 -5 -7 -7 -7 -7 -7 -7 -6 0 31 103 69 21 76 
74 7 -5 -7 -7 -7 -7 -7 -7 -7 -7 -7 -7 -7 -3 23 103 62 4 -6 -7 -7 -7 -7 -5 7 68 102 24 -2 -6 -7 -7 -7 -7 -7 -7 -7 -7 -7 -7 -7 -7 -7 -7 -7 -7 -7 -7 -7 -7 -7 -7 -3 23 103 62 4 -6 -7 -7 -7 -7 -7 -7 -7 -7 -7 -7 -7 -7 -7 -6 4 63 103 24 -2 -6 -7 -7 -7 -7 -7 -7 -7 -7 -7 -7 -7 -7 -5 9 80 73 6 -5 -7 -7 -7 -7 -7 -6 -3 22 96 96 23 11 75 
74 7 -5 -7 -7 -7 -7 -7 -7 -7 -7 -7 -7 -7 -5 9 80 73 6 -5 -7 -7 -7 -6 0 31 103 68 6 -5 -7 -7 -7 -7 -7 -7 -7 -7 -7 -7 -7 -7 -7 -7 -7 -7 -7 -7 -7 -7 -7 -7 -7 -5 9 81 74 8 -4 -5 -5 -6 -7 -7 -7 -7 -7 -7 -7 -7 -7 -7 -5 9 78 78 9 -5 -7 -7 -7 -7 -7 -7 -7 -7 -7 -7 -7 -7 -7 -3 23 103 62 4 -6 -7 -7 -7 -7 -7 -5 7 68 103 31 0 7 74 
74 7 -5 -7 -7 -7 -7 -7 -7 -7 -7 -7 -7 -7 -5 7 75 75 7 -5 -7 -7 -6 -3 21 96 96 21 -3 -6 -7 -7 -7 -7 -7 -7 -7 -7 -7 -7 -7 -7 -7 -7 -7 -7 -7 -7 -7 -7 -7 -7 -6 -4 11 83 84 20 8 7 6 4 -3 -5 -5 -5 -5 -5 -6 -7 -7 -6 -2 24 103 63 4 -6 -7 -7 -7 -7 -7 -7 -7 -7 -7 -7 -7 -7 -6 4 62 103 23 -3 -7 -7 -7 -7 -7 -6 0 31 103 68 7 -4 7 74 
74 7 -5 -7 -7 -7 -7 -7 -7 -7 -7 -7 -7 -7 -5 6 73 80 9 -5 -7 -7 -5 6 68 103 31 0 -6 -7 -7 -7 -7 -7 -7 -7 -7 -7 -7 -7 -7 -7 -7 -7 -7 -7 -7 -7 -7 -7 -7 -6 -3 8 34 119 128 84 75 74 73 62 23 9 7 7 7 6 4 -3 -5 -4 8 68 102 23 -3 -7 -7 -7 -7 -7 -7 -7 -7 -7 -7 -7 -7 -7 -5 6 73 80 9 -5 -7 -7 -7 -7 -6 -3 22 96 96 22 -3 -5 7 74 
74 7 -5 -7 -7 -7 -7 -7 -7 -7 -7 -7 -7 -7 -6 4 62 103 23 -3 -6 -6 -2 24 102 68 7 -5 -7 -7 -7 -7 -7 -7 -7 -7 -7 -7 -7 -7 -7 -7 -7 -7 -7 -7 -7 -7 -7 -6 -5 0 22 68 105 110 85 76 74 75 80 103 103 80 75 74 74 73 62 23 9 11 34 105 68 6 -5 -7 -7 -7 -7 -7 -7 -7 -7 -7 -7 -7 -7 -7 -5 9 80 73 6 -5 -7 -7 -7 -7 -5 7 68 103 31 0 -6 -5 7 74 
74 7 -5 -7 -7 -7 -7 -7 -7 -7 -7 -7 -7 -7 -7 -3 23 103 62 4 -6 -5 7 68 102 24 -2 -6 -7 -7 -7 -7 -7 -7 -7 -7 -7 -7 -7 -7 -7 -7 -7 -7 -7 -7 -7 -7 -6 -3 7 31 96 103 68 24 9 7 7 7 9 23 62 73 74 74 75 80 103 103 81 83 119 116 27 -2 -6 -7 -7 -7 -7 -7 -7 -7 -7 -7 -7 -7 -7 -7 -3 23 103 62 4 -6 -7 -7 -7 -6 0 31 103 68 7 -5 -7 -5 7 74 
74 7 -5 -7 -7 -7 -7 -7 -7 -7 -7 -7 -7 -7 -7 -5 9 80 73 6 -5 -2 24 102 68 6 -5 -7 -7 -7 -7 -7 -7 -7 -7 -7 -7 -7 -7 -7 -7 -7 -7 -7 -7 -7 -6 -5 0 22 68 103 96 31 7 -2 -5 -5 -5 -5 -5 -3 4 6 7 7 7 9 23 62 73 82 119 116 27 -2 -6 -7 -7 -7 -7 -7 -7 -7 -7 -7 -7 -7 -7 -6 4 62 103 23 -3 -7 -7 -7 -6 -3 22 96 96 22 -3 -6 -7 -5 7 74 
74 7 -5 -7 -7 -7 -7 -7 -7 -7 -7 -7 -7 -7 -7 -5 7 75 75 7 -4 7 68 102 24 -2 -6 -7 -7 -7 -7 -7 -7 -7 -7 -7 -7 -7 -7 -7 -7 -7 -7 -7 -7 -6 -3 7 31 96 103 68 22 0 -5 -6 -7 -7 -7 -7 -7 -7 -6 -5 -5 -5 -5 -5 -3 4 7 10 34 105 69 7 -5 -7 -7 -7 -7 -7 -7 -7 -7 -7 -7 -7 -7 -5 6 73 80 9 -5 -7 -7 -7 -5 7 68 103 31 0 -6 -7 -7 -5 7 74 
74 7 -5 -7 -7 -7 -7 -7 -7 -7 -7 -7 -7 -7 -7 -5 6 73 80 10 1 31 103 68 6 -5 -7 -7 -7 -7 -7 -7 -7 -7 -7 -7 -7 -7 -7 -7 -7 -7 -7 -7 -6 0 21 68 103 96 31 7 -3 -6 -7 -7 -7 -7 -7 -7 -7 -7 -7 -7 -7 -7 -7 -7 -7 -6 -5 -4 8 68 103 31 0 -5 -6 -7 -7 -7 -7 -7 -7 -7 -7 -7 -7 -5 9 80 73 6 -5 -7 -7 -6 0 31 103 68 7 -5 -7 -7 -7 -5 7 74 
74 7 -5 -7 -7 -7 -7 -7 -7 -7 -7 -7 -7 -7 -7 -6 4 62 104 27 25 96 96 21 -3 -6 -7 -7 -7 -7 -7 -7 -7 -7 -7 -7 -7 -7 -7 -7 -7 -7 -6 -5 0 29 96 103 68 22 0 -5 -6 -7 -7 -7 -7 -7 -7 -7 -7 -7 -7 -7 -7 -7 -7 -7 -7 -7 -7 -6 -3 22 96 98 32 7 -2 -5 -5 -5 -5 -5 -5 -5 -5 -5 -5 -1 24 104 62 4 -6 -7 -6 -3 22 96 96 22 -3 -6 -7 -7 -7 -5 7 74 
74 7 -5 -7 -7 -7 -7 -7 -7 -7 -7 -7 -7 -7 -7 -7 -3 23 104 74 78 104 31 0 -6 -7 -7 -7 -7 -7 -7 -7 -7 -7 -7 -7 -7 -7 -7 -7 -7 -6 -3 7 31 97 97 31 7 -3 -6 -7 -7 -7 -7 -7 -7 -7 -7 -7 -7 -7 -7 -7 -7 -7 -7 -7 -7 -7 -7 -7 -6 0 31 111 117 70 24 9 7 7 7 7 7 7 7 7 8 18 73 111 27 -1 -6 -7 -5 7 68 103 31 0 -6 -7 -7 -7 -7 -5 7 74 
74 7 -5 -7 -7 -7 -7 -7 -7 -7 -7 -7 -7 -7 -7 -7 -5 9 81 99 112 69 7 -5 -7 -7 -7 -7 -7 -7 -7 -7 -7 -7 -7 -7 -7 -7 -7 -6 -5 0 22 68 103 96 29 0 -5 -6 -7 -7 -7 -7 -7 -7 -7 -7 -7 -7 -7 -7 -7 -7 -7 -7 -7 -7 -7 -7 -7 -7 -7 -5 10 85 132 112 104 80 75 74 74 74 74 74 74 74 75 84 127 123 36 8 -2 -5 0 31 103 68 7 -5 -7 -7 -7 -7 -7 -5 7 74 
74 7 -5 -7 -7 -7 -7 -7 -7 -7 -7 -7 -7 -7 -7 -7 -5 7 77 133 107 24 -2 -6 -7 -7 -7 -7 -7 -7 -7 -7 -7 -7 -7 -7 -7 -7 -6 -3 7 31 96 103 68 21 0 -6 -7 -7 -7 -7 -7 -7 -7 -7 -7 -7 -7 -7 -7 -7 -7 -7 -7 -7 -7 -7 -7 -7 -7 -7 -7 -5 9 81 84 36 63 73 74 74 74 74 74 74 74 74 74 76 85 110 105 68 24 10 25 96 96 22 -3 -6 -7 -7 -7 -7 -7 -5 7 74 
74 7 -5 -7 -7 -7 -7 -7 -7 -7 -7 -7 -7 -7 -7 -7 -5 7 79 153 70 6 -5 -7 -7 -7 -7 -7 -7 -7 -7 -7 -7 -7 -7 -7 -6 -5 0 22 68 103 96 31 7 -3 -6 -7 -7 -7 -7 -7 -7 -7 -7 -7 -7 -7 -7 -7 -7 -7 -7 -7 -7 -7 -7 -7 -7 -7 -7 -7 -7 -3 23 104 63 8 5 6 7 7 7 7 7 7 7 7 7 7 9 24 68 102 103 78 87 107 31 0 -6 -7 -7 -7 -7 -7 -7 -5 7 74 
74 7 -5 -7 -7 -7 -7 -7 -7 -7 -7 -7 -7 -7 -7 -7 -5 7 77 116 24 -2 -6 -7 -7 -7 -7 -7 -7 -7 -7 -7 -7 -7 -7 -6 -3 7 31 96 103 68 22 0 -5 -6 -7 -7 -7 -7 -7 -7 -7 -7 -7 -7 -7 -7 -7 -7 -7 -7 -7 -7 -7 -7 -7 -7 -7 -7 -7 -7 -6 4 62 103 23 -2 -5 -5 -5 -5 -5 -5 -5 -5 -5 -5 -5 -5 -5 -2 7 24 69 108 148 92 13 -4 -7 -7 -7 -7 -7 -7 -7 -5 7 74 
74 7 -5 -7 -7 -7 -7 -7 -7 -7 -7 -7 -7 -7 -7 -7 -5 7 75 82 9 -5 -7 -7 -7 -7 -7 -7 -7 -7 -7 -7 -7 -6 -5 0 22 70 107 99 32 9 -1 -5 -6 -7 -7 -7 -7 -7 -7 -7 -7 -7 -7 -7 -7 -7 -7 -7 -7 -7 -7 -7 -7 -7 -7 -7 -7 -7 -7 -7 -5 6 73 80 9 -5 -7 -7 -7 -7 -7 -7 -7 -7 -7 -7 -7 -7 -7 -6 -5 -2 7 31 107 111 32 0 -6 -7 -7 -7 -7 -7 -7 -5 7 74 
74 7 -5 -7 -7 -7 -7 -7 -7 -7 -7 -7 -7 -7 -7 -7 -5 7 75 75 7 -5 -7 -7 -7 -7 -7 -7 -7 -7 -6 -5 -3 4 10 31 106 151 125 51 16 9 7 4 -3 -5 -5 -6 -7 -7 -7 -7 -7 -7 -7 -7 -7 -7 -7 -7 -7 -7 -7 -7 -7 -7 -7 -7 -7 -7 -7 -7 -5 7 74 75 7 -5 -7 -7 -7 -7 -7 -7 -7 -7 -7 -7 -7 -7 -7 -7 -7 -6 -5 0 29 98 96 22 -3 -6 -7 -7 -7 -7 -7 -5 7 74 
74 7 -5 -7 -7 -7 -7 -7 -7 -7 -7 -7 -7 -7 -7 -7 -5 9 80 73 6 -5 -7 -7 -7 -7 -7 -7 -6 -5 -2 6 23 63 78 105 109 91 109 106 80 75 73 62 23 9 6 4 -3 -5 -5 -5 -6 -7 -7 -7 -7 -7 -7 -7 -7 -7 -7 -7 -7 -7 -7 -7 -7 -7 -7 -7 -5 7 75 74 7 -5 -7 -7 -7 -7 -7 -7 -7 -7 -7 -7 -7 -7 -7 -7 -7 -7 -7 -6 0 31 103 68 7 -5 -7 -7 -7 -7 -7 -5 7 74 
74 7 -5 -7 -7 -7 -7 -7 -7 -7 -7 -7 -7 -7 -7 -7 -3 23 103 62 4 -6 -7 -7 -7 -7 -6 -5 -2 6 24 68 102 103 78 63 24 12 24 62 73 75 80 103 103 80 73 62 23 9 7 6 4 -3 -5 -5 -6 -7 -7 -7 -7 -7 -7 -7 -7 -7 -7 -7 -7 -7 -7 -7 -5 9 80 73 6 -5 -7 -7 -7 -7 -7 -7 -7 -7 -7 -7 -7 -7 -7 -7 -7 -7 -7 -7 -5 7 68 103 31 0 -6 -7 -7 -7 -7 -5 7 74 
74 7 -5 -7 -7 -7 -7 -7 -7 -7 -7 -7 -7 -7 -7 -6 4 62 103 23 -3 -6 -7 -6 -5 -3 4 9 24 68 102 102 68 24 9 4 -3 -5 -3 4 6 7 9 23 62 73 80 103 103 80 75 73 62 23 9 6 4 -3 -5 -5 -5 -6 -7 -7 -7 -7 -7 -7 -7 -7 -7 -7 -3 23 103 62 4 -6 -7 -7 -7 -7 -7 -7 -7 -7 -7 -7 -7 -7 -7 -7 -7 -7 -7 -7 -6 -3 22 96 96 22 -3 -6 -7 -7 -7 -5 7 74 
74 7 -5 -7 -7 -7 -7 -7 -7 -7 -7 -7 -7 -7 -7 -5 6 73 80 9 -5 -6 -5 -2 6 23 63 78 103 102 68 24 6 -2 -5 -6 -6 -7 -7 -6 -5 -5 -5 -3 4 6 9 23 62 73 75 80 103 103 80 73 62 23 9 7 6 4 -3 -5 -5 -6 -7 -7 -7 -7 -7 -6 4 62 103 23 -3 -7 -7 -7 -7 -7 -7 -7 -7 -7 -7 -7 -7 -7 -7 -7 -7 -7 -7 -7 -7 -6 0 31 103 68 7 -5 -7 -7 -7 -5 7 74 
74 7 -5 -7 -7 -7 -7 -7 -7 -7 -7 -7 -7 -7 -7 -5 7 75 75 7 -4 -2 7 24 68 102 103 78 63 23 6 -2 -5 -6 -7 -7 -7 -7 -7 -7 -7 -7 -7 -7 -6 -5 -5 -3 4 6 7 9 23 62 73 80 103 103 80 75 73 62 23 9 6 4 -3 -5 -5 -5 -6 -5 6 73 80 9 -5 -7 -7 -7 -7 -7 -7 -7 -7 -7 -7 -7 -7 -7 -7 -7 -7 -7 -7 -7 -7 -7 -5 7 68 103 31 0 -6 -7 -7 -5 7 74 
74 7 -5 -7 -7 -7 -7 -7 -7 -7 -7 -7 -7 -7 -7 -5 9 80 74 11 8 24 68 102 102 68 24 9 4 -3 -5 -6 -7 -7 -7 -7 -7 -7 -7 -7 -7 -7 -7 -7 -7 -7 -7 -7 -6 -5 -5 -5 -3 4 6 9 23 62 73 75 80 103 103 80 73 62 23 9 7 6 4 -1 8 75 75 7 -5 -7 -7 -7 -7 -7 -7 -7 -7 -7 -7 -7 -7 -7 -7 -7 -7 -7 -7 -7 -7 -7 -6 -3 21 96 97 29 0 -6 -7 -5 7 74 
74 7 -5 -7 -7 -7 -7 -7 -7 -7 -7 -7 -7 -7 -6 -2 24 107 76 35 69 103 102 68 24 6 -2 -5 -6 -7 -7 -7 -7 -7 -7 -7 -7 -7 -7 -7 -7 -7 -7 -7 -7 -7 -7 -7 -7 -7 -7 -7 -7 -6 -5 -5 -3 4 6 7 9 23 62 73 80 103 103 80 75 73 62 25 23 84 75 7 -5 -7 -7 -7 -7 -7 -7 -7 -7 -7 -7 -7 -7 -7 -7 -7 -7 -7 -7 -7 -7 -7 -7 -6 0 29 97 96 21 -3 -6 -5 7 74 
74 7 -5 -7 -7 -7 -7 -7 -7 -7 -7 -7 -7 -7 -5 7 72 147 103 106 102 68 24 6 -2 -5 -6 -7 -7 -7 -7 -7 -7 -7 -7 -7 -7 -7 -7 -7 -7 -7 -7 -7 -7 -7 -7 -7 -7 -7 -7 -7 -7 -7 -7 -7 -7 -6 -5 -5 -5 -3 4 6 9 23 62 73 75 80 103 104 90 128 78 7 -5 -7 -7 -7 -7 -7 -7 -7 -7 -7 -7 -7 -7 -7 -7 -7 -7 -7 -7 -7 -7 -7 -7 -7 -6 0 31 103 68 7 -5 -5 7 74 
74 7 -5 -7 -7 -7 -7 -7 -7 -7 -7 -7 -7 -6 -2 24 108 118 81 63 23 6 -2 -5 -6 -7 -7 -7 -7 -7 -7 -7 -7 -7 -7 -7 -7 -7 -7 -7 -7 -7 -7 -7 -7 -7 -7 -7 -7 -7 -7 -7 -7 -7 -7 -7 -7 -7 -7 -7 -7 -7 -6 -5 -5 -3 4 6 7 9 23 63 83 128 78 7 -5 -7 -7 -7 -7 -7 -7 -7 -7 -7 -7 -7 -7 -7 -7 -7 -7 -7 -7 -7 -7 -7 -7 -7 -7 -5 7 68 103 31 0 -4 7 74 
74 7 -5 -7 -7 -7 -7 -7 -7 -7 -7 -7 -7 -5 7 68 104 34 10 4 -3 -5 -6 -7 -7 -7 -7 -7 -7 -7 -7 -7 -7 -7 -7 -7 -7 -7 -7 -7 -7 -7 -7 -7 -7 -7 -7 -7 -7 -7 -7 -7 -7 -7 -7 -7 -7 -7 -7 -7 -7 -7 -7 -7 -7 -7 -6 -5 -5 -5 -3 5 20 84 75 7 -5 -7 -7 -7 -7 -7 -7 -7 -7 -7 -7 -7 -7 -7 -7 -7 -7 -7 -7 -7 -7 -7 -7 -7 -7 -6 -3 21 96 97 29 0 7 74 
74 7 -5 -7 -7 -7 -7 -7 -7 -7 -7 -7 -6 0 31 103 68 8 -4 -6 -7 -7 -7 -7 -7 -7 -7 -7 -7 -7 -7 -7 -7 -7 -7 -7 -7 -7 -7 -7 -7 -7 -7 -7 -7 -7 -7 -7 -7 -7 -7 -7 -7 -7 -7 -7 -7 -7 -7 -7 -7 -7 -7 -7 -7 -7 -7 -7 -7 -7 -6 -4 8 75 74 7 -5 -7 -7 -7 -7 -7 -7 -7 -7 -7 -7 -7 -7 -7 -7 -7 -7 -7 -7 -7 -7 -7 -7 -7 -7 -7 -6 0 29 97 96 23 11 75 
74 7 -5 -7 -7 -7 -7 -7 -7 -7 -7 -6 -3 22 96 96 22 -3 -6 -7 -7 -7 -7 -7 -7 -7 -7 -7 -7 -7 -7 -7 -7 -7 -7 -7 -7 -7 -7 -7 -7 -7 -7 -7 -7 -7 -7 -7 -7 -7 -7 -7 -7 -7 -7 -7 -7 -7 -7 -7 -7 -7 -7 -7 -7 -7 -7 -7 -7 -7 -7 -5 7 74 74 7 -5 -7 -7 -7 -7 -7 -7 -7 -7 -7 -7 -7 -7 -7 -7 -7 -7 -7 -7 -7 -7 -7 -7 -7 -7 -7 -7 -6 0 31 103 69 21 76 
74 7 -5 -7 -7 -7 -7 -7 -7 -7 -7 -5 7 68 103 31 0 -6 -7 -7 -7 -7 -7 -7 -7 -7 -7 -7 -7 -7 -7 -7 -7 -7 -7 -7 -7 -7 -7 -7 -7 -7 -7 -7 -7 -7 -7 -7 -7 -7 -7 -7 -7 -7 -7 -7 -7 -7 -7 -7 -7 -7 -7 -7 -7 -7 -7 -7 -7 -7 -7 -5 7 74 75 7 -5 -7 -7 -7 -7 -7 -7 -7 -7 -7 -7 -7 -7 -7 -7 -7 -7 -7 -7 -7 -7 -7 -7 -7 -7 -7 -7 -7 -5 7 68 104 44 80 
75 7 -5 -7 -7 -7 -7 -7 -7 -7 -6 0 31 103 68 7 -5 -7 -7 -7 -7 -7 -7 -7 -7 -7 -7 -7 -7 -7 -7 -7 -7 -7 -7 -7 -7 -7 -7 -7 -7 -7 -7 -7 -7 -7 -7 -7 -7 -7 -7 -7 -7 -7 -7 -7 -7 -7 -7 -7 -7 -7 -7 -7 -7 -7 -7 -7 -7 -7 -7 -5 7 74 80 10 -5 -7 -7 -7 -7 -7 -7 -7 -7 -7 -7 -7 -7 -7 -7 -7 -7 -7 -7 -7 -7 -7 -7 -7 -7 -7 -7 -7 -6 -3 22 96 107 98 
77 7 -5 -7 -7 -7 -7 -7 -7 -6 0 29 97 97 23 -1 -5 -6 -7 -7 -7 -7 -7 -7 -7 -7 -7 -7 -7 -7 -7 -7 -7 -7 -7 -7 -7 -7 -7 -7 -7 -7 -7 -7 -7 -7 -7 -7 -7 -7 -7 -7 -7 -7 -7 -7 -7 -7 -7 -7 -7 -7 -7 -7 -7 -7 -7 -7 -7 -7 -6 -4 8 72 109 32 0 -5 -6 -7 -7 -7 -7 -7 -7 -7 -7 -7 -7 -7 -7 -7 -7 -7 -7 -7 -7 -7 -7 -7 -7 -7 -7 -7 -7 -6 0 31 108 133 
79 7 -5 -7 -7 -7 -7 -7 -6 0 29 101 108 42 13 7 4 -3 -5 -5 -5 -5 -5 -5 -5 -5 -5 -5 -6 -7 -7 -7 -7 -7 -7 -7 -7 -7 -7 -7 -7 -7 -7 -7 -7 -7 -7 -7 -7 -7 -7 -7 -7 -7 -7 -7 -7 -7 -7 -7 -7 -7 -7 -7 -7 -7 -7 -7 -7 -6 -3 7 27 87 148 108 31 7 -2 -5 -6 -7 -7 -7 -7 -7 -7 -7 -7 -7 -7 -7 -7 -7 -7 -7 -7 -7 -7 -7 -7 -7 -7 -7 -7 -7 -5 7 70 153 
77 7 -5 -7 -7 -7 -7 -6 0 29 107 150 104 80 75 73 62 23 9 7 7 7 7 7 7 7 7 6 4 -3 -5 -5 -5 -5 -5 -5 -5 -5 -5 -6 -7 -7 -7 -7 -7 -7 -7 -7 -7 -7 -7 -7 -7 -7 -7 -7 -7 -7 -7 -7 -7 -7 -7 -7 -7 -7 -7 -6 -5 0 21 68 103 106 91 110 104 68 24 6 -3 -6 -7 -7 -7 -7 -7 -7 -7 -7 -7 -7 -7 -7 -7 -7 -7 -7 -7 -7 -7 -7 -7 -7 -7 -7 -6 -2 24 116 
75 7 -5 -7 -7 -7 -6 0 29 98 110 85 76 75 75 80 103 103 80 75 74 74 74 74 74 74 74 73 62 23 9 7 7 7 7 7 7 7 6 4 -3 -5 -5 -5 -5 -5 -5 -5 -5 -5 -5 -6 -7 -7 -7 -7 -7 -7 -7 -7 -7 -7 -7 -7 -7 -6 -5 -2 7 31 96 103 68 24 12 24 68 102 102 68 21 0 -5 -6 -7 -7 -7 -7 -7 -7 -7 -7 -7 -7 -7 -7 -7 -7 -7 -7 -7 -7 -7 -7 -7 -7 -7 -5 9 82 
74 7 -5 -7 -7 -6 0 29 97 97 31 10 7 7 7 9 23 62 73 74 74 74 74 74 74 74 75 80 103 103 80 75 74 74 74 74 74 74 73 62 23 9 7 7 7 7 7 7 7 7 6 4 -3 -5 -5 -5 -5 -5 -5 -5 -5 -5 -6 -6 -6 -3 6 24 68 103 96 31 7 -2 -5 -2 7 24 68 103 96 31 7 -2 -5 -6 -7 -7 -7 -7 -7 -7 -7 -7 -7 -7 -7 -7 -7 -7 -7 -7 -7 -7 -7 -7 -7 -5 7 75 
74 7 -5 -6 -5 0 29 97 97 29 0 -5 -5 -5 -5 -5 -3 4 6 7 7 7 7 7 7 7 7 9 23 62 73 74 74 74 74 74 74 75 80 103 103 80 75 74 74 74 74 74 74 74 73 62 23 9 7 7 7 7 7 7 7 6 4 -2 0 22 68 102 102 68 21 0 -5 -6 -7 -6 -5 -2 7 31 96 103 68 24 6 -3 -6 -7 -7 -7 -7 -7 -7 -7 -7 -7 -7 -7 -7 -7 -7 -7 -7 -7 -7 -7 -7 -5 7 74 
74 7 -5 -3 7 31 97 97 29 0 -6 -7 -7 -7 -7 -7 -7 -6 -5 -5 -5 -5 -5 -5 -5 -5 -5 -5 -3 4 6 7 7 7 7 7 7 7 9 23 62 73 74 74 74 74 74 74 74 75 80 103 103 80 75 74 74 74 74 74 74 73 62 27 34 96 103 68 24 6 -3 -6 -7 -7 -7 -7 -7 -6 -5 0 21 68 102 102 68 21 0 -5 -6 -7 -7 -7 -7 -7 -7 -7 -7 -7 -7 -7 -7 -7 -7 -7 -7 -7 -7 -5 7 74 
74 8 0 22 68 103 96 29 0 -6 -7 -7 -7 -7 -7 -7 -7 -7 -7 -7 -7 -7 -7 -7 -7 -7 -7 -7 -7 -6 -5 -5 -5 -5 -5 -5 -5 -5 -5 -3 4 6 7 7 7 7 7 7 7 7 9 23 62 73 74 74 74 74 74 74 75 80 106 116 117 98 31 7 -2 -5 -6 -7 -7 -7 -7 -7 -7 -7 -7 -6 -3 6 24 68 103 96 31 7 -2 -5 -6 -7 -7 -7 -7 -7 -7 -7 -7 -7 -7 -7 -7 -7 -7 -7 -7 -5 7 74 
75 14 30 96 103 68 21 0 -6 -7 -7 -7 -7 -7 -7 -7 -7 -7 -7 -7 -7 -7 -7 -7 -7 -7 -7 -7 -7 -7 -7 -7 -7 -7 -7 -7 -7 -7 -7 -7 -6 -5 -5 -5 -5 -5 -5 -5 -5 -5 -5 -3 4 6 7 7 7 7 7 7 7 10 34 119 118 32 0 -5 -6 -7 -7 -7 -7 -7 -7 -7 -7 -7 -7 -7 -6 -5 -2 7 31 96 103 68 24 6 -3 -6 -7 -7 -7 -7 -7 -7 -7 -7 -7 -7 -7 -7 -7 -7 -7 -5 7 74 
80 42 98 97 31 7 -3 -6 -7 -7 -7 -7 -7 -7 -7 -7 -7 -7 -7 -7 -7 -7 -7 -7 -7 -7 -7 -7 -7 -7 -7 -7 -7 -7 -7 -7 -7 -7 -7 -7 -7 -7 -7 -7 -7 -7 -7 -7 -7 -7 -7 -7 -6 -5 -5 -5 -5 -5 -5 -5 -5 -4 10 82 82 10 -5 -7 -7 -7 -7 -7 -7 -7 -7 -7 -7 -7 -7 -7 -7 -7 -6 -5 0 21 68 102 102 68 21 0 -5 -6 -7 -7 -7 -7 -7 -7 -7 -7 -7 -7 -7 -7 -7 -5 7 75 
104 108 97 29 0 -5 -6 -7 -7 -7 -7 -7 -7 -7 -7 -7 -7 -7 -7 -7 -7 -7 -7 -7 -7 -7 -7 -7 -7 -7 -7 -7 -7 -7 -7 -7 -7 -7 -7 -7 -7 -7 -7 -7 -7 -7 -7 -7 -7 -7 -7 -7 -7 -7 -7 -7 -7 -7 -7 -7 -7 -5 7 75 75 7 -5 -7 -7 -7 -7 -7 -7 -7 -7 -7 -7 -7 -7 -7 -7 -7 -7 -7 -6 -3 6 24 68 103 96 31 7 -2 -5 -6 -7 -7 -7 -7 -7 -7 -7 -7 -7 -7 -7 -5 7 76 
150 101 29 0 -6 -7 -7 -7 -7 -7 -7 -7 -7 -7 -7 -7 -7 -7 -7 -7 -7 -7 -7 -7 -7 -7 -7 -7 -7 -7 -7 -7 -7 -7 -7 -7 -7 -7 -7 -7 -7 -7 -7 -7 -7 -7 -7 -7 -7 -7 -7 -7 -7 -7 -7 -7 -7 -7 -7 -7 -7 -5 7 74 74 7 -5 -7 -7 -7 -7 -7 -7 -7 -7 -7 -7 -7 -7 -7 -7 -7 -7 -7 -7 -6 -5 -2 7 31 96 103 68 24 6 -2 -5 -6 -7 -7 -7 -7 -7 -7 -7 -7 -7 -5 7 78 
117 32 0 -6 -7 -7 -7 -7 -7 -7 -7 -7 -7 -7 -7 -7 -7 -7 -7 -7 -7 -7 -7 -7 -7 -7 -7 -7 -7 -7 -7 -7 -7 -7 -7 -7 -7 -7 -7 -7 -7 -7 -7 -7 -7 -7 -7 -7 -7 -7 -7 -7 -7 -7 -7 -7 -7 -7 -7 -7 -7 -5 7 74 74 7 -5 -7 -7 -7 -7 -7 -7 -7 -7 -7 -7 -7 -7 -7 -7 -7 -7 -7 -7 -7 -7 -6 -5 0 21 68 102 102 68 24 6 -3 -6 -7 -7 -7 -7 -7 -7 -7 -7 -5 7 77 
82 10 -5 -7 -7 -7 -7 -7 -7 -7 -7 -7 -7 -7 -7 -7 -7 -7 -7 -7 -7 -7 -7 -7 -7 -7 -7 -7 -7 -7 -7 -7 -7 -7 -7 -7 -7 -7 -7 -7 -7 -7 -7 -7 -7 -7 -7 -7 -7 -7 -7 -7 -7 -7 -7 -7 -7 -7 -7 -7 -7 -5 7 74 74 7 -5 -7 -7 -7 -7 -7 -7 -7 -7 -7 -7 -7 -7 -7 -7 -7 -7 -7 -7 -7 -7 -7 -7 -6 -3 6 24 68 102 102 68 21 0 -5 -6 -7 -7 -7 -7 -7 -7 -5 7 75 
75 7 -5 -7 -7 -7 -7 -7 -7 -7 -7 -7 -7 -7 -7 -7 -7 -7 -7 -7 -7 -7 -7 -7 -7 -7 -7 -7 -7 -7 -7 -7 -7 -7 -7 -7 -7 -7 -7 -7 -7 -7 -7 -7 -7 -7 -7 -7 -7 -7 -7 -7 -7 -7 -7 -7 -7 -7 -7 -7 -7 -5 7 74 74 7 -5 -7 -7 -7 -7 -7 -7 -7 -7 -7 -7 -7 -7 -7 -7 -7 -7 -7 -7 -7 -7 -7 -7 -7 -6 -5 -2 6 24 68 103 96 31 7 -2 -5 -5 -6 -7 -7 -7 -5 7 74 
74 7 -5 -7 -7 -7 -7 -7 -7 -7 -7 -7 -7 -7 -7 -7 -7 -7 -7 -7 -7 -7 -7 -7 -7 -7 -7 -7 -7 -7 -7 -7 -7 -7 -7 -7 -7 -7 -7 -7 -7 -7 -7 -7 -7 -7 -7 -7 -7 -7 -7 -7 -7 -7 -7 -7 -7 -7 -7 -7 -7 -5 7 74 74 7 -5 -7 -7 -7 -7 -7 -7 -7 -7 -7 -7 -7 -7 -7 -7 -7 -7 -7 -7 -7 -7 -7 -7 -7 -7 -7 -6 -5 -2 7 31 97 105 70 24 9 6 4 -3 -5 -5 -4 7 74 
74 7 -5 -7 -7 -7 -7 -7 -7 -7 -7 -7 -7 -7 -7 -7 -7 -7 -7 -7 -7 -7 -7 -7 -7 -7 -7 -7 -7 -7 -7 -7 -7 -7 -7 -7 -7 -7 -7 -7 -7 -7 -7 -7 -7 -7 -7 -7 -7 -7 -7 -7 -7 -7 -7 -7 -7 -7 -7 -7 -7 -5 7 74 74 7 -5 -7 -7 -7 -7 -7 -7 -7 -7 -7 -7 -7 -7 -7 -7 -7 -7 -7 -7 -7 -7 -7 -7 -7 -7 -7 -7 -6 -5 -3 3 35 94 147 116 81 73 62 23 9 7 5 11 76 
75 7 -5 -7 -7 -7 -7 -7 -7 -7 -7 -7 -7 -7 -7 -7 -7 -7 -7 -7 -7 -7 -7 -7 -7 -7 -7 -7 -7 -7 -7 -7 -7 -7 -7 -7 -7 -7 -7 -7 -7 -7 -7 -7 -7 -7 -7 -7 -7 -7 -7 -7 -7 -7 -7 -7 -7 -7 -7 -7 -7 -5 7 74 74 7 -5 -7 -7 -7 -7 -7 -7 -7 -7 -7 -7 -7 -7 -7 -7 -7 -7 -7 -7 -7 -7 -7 -7 -7 -7 -6 -5 -3 4 9 25 72 112 112 84 76 80 103 103 80 73 63 37 86 
79 8 -4 -5 -5 -5 -5 -5 -6 -7 -7 -7 -7 -7 -7 -7 -7 -7 -7 -7 -7 -7 -7 -7 -7 -7 -7 -7 -7 -7 -7 -7 -7 -7 -7 -7 -7 -7 -7 -7 -7 -7 -7 -7 -7 -7 -7 -7 -7 -7 -7 -7 -7 -7 -7 -7 -7 -7 -7 -7 -7 -5 7 74 74 7 -5 -7 -7 -7 -7 -7 -7 -7 -7 -7 -7 -7 -7 -7 -7 -7 -7 -7 -7 -7 -7 -7 -7 -6 -5 -2 6 23 63 78 103 102 68 24 9 7 9 23 62 73 80 104 113 132 
87 20 8 7 7 7 7 6 4 -3 -5 -5 -5 -5 -5 -5 -6 -7 -7 -7 -7 -7 -7 -7 -7 -7 -7 -7 -7 -7 -7 -7 -7 -7 -7 -7 -7 -7 -7 -7 -7 -7 -7 -7 -7 -7 -7 -7 -7 -7 -7 -7 -7 -7 -7 -7 -7 -7 -7 -7 -7 -5 7 74 74 7 -5 -7 -7 -7 -7 -7 -7 -7 -7 -7 -7 -7 -7 -7 -7 -7 -7 -7 -7 -7 -6 -5 -3 4 9 24 68 102 103 78 63 23 6 -2 -5 -5 -5 -3 4 6 9 24 73 127 
128 85 75 74 74 74 74 73 62 23 9 7 7 7 7 6 4 -3 -5 -5 -5 -5 -5 -5 -5 -6 -7 -7 -7 -7 -7 -7 -7 -7 -7 -7 -7 -7 -7 -7 -7 -7 -7 -7 -7 -7 -7 -7 -7 -7 -7 -7 -7 -7 -7 -7 -7 -7 -7 -7 -7 -5 7 74 74 7 -5 -7 -7 -7 -7 -7 -7 -7 -7 -7 -7 -7 -7 -7 -7 -7 -7 -7 -6 -5 -2 6 23 63 78 103 102 68 24 9 4 -3 -5 -6 -7 -7 -7 -7 -6 -5 -5 -1 18 87 
128 85 75 74 74 74 75 80 103 103 80 75 74 74 74 73 62 23 9 7 7 7 7 7 6 4 -3 -5 -5 -5 -5 -5 -5 -6 -7 -7 -7 -7 -7 -7 -7 -7 -7 -7 -7 -7 -7 -7 -7 -7 -7 -7 -7 -7 -7 -7 -7 -7 -7 -7 -7 -5 7 74 74 7 -5 -7 -7 -7 -7 -7 -7 -7 -7 -7 -7 -7 -7 -7 -7 -6 -5 -3 4 9 24 68 102 103 78 63 23 6 -2 -5 -6 -7 -7 -7 -7 -7 -7 -7 -7 -7 -7 -5 8 79 
84 20 8 7 7 7 7 9 23 62 73 74 74 74 75 80 103 103 80 75 74 74 74 74 73 62 23 9 7 7 7 7 6 4 -3 -5 -5 -5 -5 -5 -5 -5 -6 -7 -7 -7 -7 -7 -7 -7 -7 -7 -7 -7 -7 -7 -7 -7 -7 -7 -7 -5 7 74 74 7 -5 -7 -7 -7 -7 -7 -7 -7 -7 -7 -7 -7 -7 -6 -5 -2 6 23 63 78 103 102 68 24 9 4 -3 -5 -6 -7 -7 -7 -7 -7 -7 -7 -7 -7 -7 -7 -7 -5 7 75 
75 8 -4 -5 -5 -5 -5 -5 -3 4 6 7 7 7 7 9 23 62 73 74 74 74 74 75 80 103 103 80 75 74 74 74 73 62 23 9 7 7 7 7 7 6 4 -3 -5 -5 -5 -5 -5 -5 -6 -7 -7 -7 -7 -7 -7 -7 -7 -7 -7 -5 7 74 74 7 -5 -7 -7 -7 -7 -7 -7 -7 -7 -7 -7 -6 -5 -2 6 24 68 102 103 78 63 23 6 -2 -5 -6 -7 -7 -7 -7 -7 -7 -7 -7 -7 -7 -7 -7 -7 -7 -7 -5 7 74 
74 7 -5 -7 -7 -7 -7 -7 -7 -6 -5 -5 -5 -5 -5 -5 -3 4 6 7 7 7 7 7 9 23 62 73 74 74 74 75 80 103 103 80 75 74 74 74 74 73 62 23 9 7 7 7 7 6 4 -3 -5 -5 -5 -5 -5 -5 -5 -6 -6 -5 7 74 74 7 -5 -7 -7 -7 -7 -7 -7 -7 -6 -5 -3 4 9 24 68 102 102 68 24 9 4 -3 -5 -6 -7 -7 -7 -7 -7 -7 -7 -7 -7 -7 -7 -7 -7 -7 -7 -7 -7 -5 7 74 
74 7 -5 -7 -7 -7 -7 -7 -7 -7 -7 -7 -7 -7 -7 -7 -7 -6 -5 -5 -5 -5 -5 -5 -5 -3 4 6 7 7 7 7 9 23 62 73 74 74 74 74 75 80 103 103 80 75 74 74 74 73 62 23 9 7 7 7 7 7 6 4 -3 -4 8 75 75 7 -5 -7 -7 -7 -7 -7 -6 -5 -2 6 23 63 78 103 102 68 24 6 -2 -5 -6 -7 -7 -7 -7 -7 -7 -7 -7 -7 -7 -7 -7 -7 -7 -7 -7 -7 -7 -7 -7 -5 7 74 
74 7 -5 -7 -7 -7 -7 -7 -7 -7 -7 -7 -7 -7 -7 -7 -7 -7 -7 -7 -7 -7 -7 -7 -7 -7 -6 -5 -5 -5 -5 -5 -5 -3 4 6 7 7 7 7 7 9 23 62 73 74 74 74 75 80 103 103 80 75 74 74 74 74 73 62 23 10 21 85 82 10 -5 -7 -7 -6 -5 -3 4 9 24 68 102 103 78 63 23 6 -2 -5 -6 -7 -7 -7 -7 -7 -7 -7 -7 -7 -7 -7 -7 -7 -7 -7 -7 -7 -7 -7 -7 -7 -7 -5 7 74 
74 7 -5 -7 -7 -7 -7 -7 -7 -7 -7 -7 -7 -7 -7 -7 -7 -7 -7 -7 -7 -7 -7 -7 -7 -7 -7 -7 -7 -7 -7 -7 -7 -7 -6 -5 -5 -5 -5 -5 -5 -5 -3 4 6 7 7 7 7 9 23 62 73 74 74 74 74 75 80 103 103 81 85 128 118 32 0 -5 -5 -2 6 23 63 78 103 102 68 24 9 4 -3 -5 -6 -7 -7 -7 -7 -7 -7 -7 -7 -7 -7 -7 -7 -7 -7 -7 -7 -7 -7 -7 -7 -7 -7 -7 -7 -5 7 74 
74 7 -5 -7 -7 -7 -7 -7 -7 -7 -7 -7 -7 -7 -7 -7 -7 -7 -7 -7 -7 -7 -7 -7 -7 -7 -7 -7 -7 -7 -7 -7 -7 -7 -7 -7 -7 -7 -7 -7 -7 -7 -7 -6 -5 -5 -5 -5 -5 -5 -3 4 6 7 7 7 7 7 9 23 62 73 76 85 111 98 32 10 10 24 68 102 103 78 63 23 6 -2 -5 -6 -7 -7 -7 -7 -7 -7 -7 -7 -7 -7 -7 -7 -7 -7 -7 -7 -7 -7 -7 -7 -7 -7 -7 -7 -7 -7 -7 -5 7 74 
74 7 -5 -7 -7 -7 -7 -7 -7 -7 -7 -7 -7 -7 -7 -7 -7 -7 -7 -7 -7 -7 -7 -7 -7 -7 -7 -7 -7 -7 -7 -7 -7 -7 -7 -7 -7 -7 -7 -7 -7 -7 -7 -7 -7 -7 -7 -7 -7 -7 -7 -6 -5 -5 -5 -5 -5 -5 -5 -3 4 6 7 10 32 98 111 85 81 104 102 68 24 9 4 -3 -5 -6 -7 -7 -7 -7 -7 -7 -7 -7 -7 -7 -7 -7 -7 -7 -7 -7 -7 -7 -7 -7 -7 -7 -7 -7 -7 -7 -7 -7 -7 -5 7 74 
74 7 -5 -7 -7 -7 -7 -7 -7 -7 -7 -7 -7 -7 -7 -7 -7 -7 -7 -7 -7 -7 -7 -7 -7 -7 -7 -7 -7 -7 -7 -7 -7 -7 -7 -7 -7 -7 -7 -7 -7 -7 -7 -7 -7 -7 -7 -7 -7 -7 -7 -7 -7 -7 -7 -7 -7 -7 -7 -7 -6 -5 -5 -5 0 32 118 128 82 63 23 6 -2 -5 -6 -7 -7 -7 -7 -7 -7 -7 -7 -7 -7 -7 -7 -7 -7 -7 -7 -7 -7 -7 -7 -7 -7 -7 -7 -7 -7 -7 -7 -7 -7 -7 -7 -5 7 74 
74 7 -5 -7 -7 -7 -7 -7 -7 -7 -7 -7 -7 -7 -7 -7 -7 -7 -7 -7 -7 -7 -7 -7 -7 -7 -7 -7 -7 -7 -7 -7 -7 -7 -7 -7 -7 -7 -7 -7 -7 -7 -7 -7 -7 -7 -7 -7 -7 -7 -7 -7 -7 -7 -7 -7 -7 -7 -7 -7 -7 -7 -7 -7 -5 10 82 84 20 5 -3 -5 -6 -7 -7 -7 -7 -7 -7 -7 -7 -7 -7 -7 -7 -7 -7 -7 -7 -7 -7 -7 -7 -7 -7 -7 -7 -7 -7 -7 -7 -7 -7 -7 -7 -7 -7 -5 7 74 
74 7 -5 -7 -7 -7 -7 -7 -7 -7 -7 -7 -7 -7 -7 -7 -7 -7 -7 -7 -7 -7 -7 -7 -7 -7 -7 -7 -7 -7 -7 -7 -7 -7 -7 -7 -7 -7 -7 -7 -7 -7 -7 -7 -7 -7 -7 -7 -7 -7 -7 -7 -7 -7 -7 -7 -7 -7 -7 -7 -7 -7 -7 -7 -5 7 75 75 8 -4 -6 -7 -7 -7 -7 -7 -7 -7 -7 -7 -7 -7 -7 -7 -7 -7 -7 -7 -7 -7 -7 -7 -7 -7 -7 -7 -7 -7 -7 -7 -7 -7 -7 -7 -7 -7 -7 -5 7 74 
75 8 -4 -5 -5 -5 -5 -5 -5 -5 -5 -5 -5 -5 -5 -5 -5 -5 -5 -5 -5 -5 -5 -5 -5 -5 -5 -5 -5 -5 -5 -5 -5 -5 -5 -5 -5 -5 -5 -5 -5 -5 -5 -5 -5 -5 -5 -5 -5 -5 -5 -5 -5 -5 -5 -5 -5 -5 -5 -5 -5 -5 -5 -5 -4 8 75 75 8 -4 -5 -5 -5 -5 -5 -5 -5 -5 -5 -5 -5 -5 -5 -5 -5 -5 -5 -5 -5 -5 -5 -5 -5 -5 -5 -5 -5 -5 -5 -5 -5 -5 -5 -5 -5 -5 -5 -4 8 75 
85 20 8 7 7 7 7 7 7 7 7 7 7 7 7 7 7 7 7 7 7 7 7 7 7 7 7 7 7 7 7 7 7 7 7 7 7 7 7 7 7 7 7 7 7 7 7 7 7 7 7 7 7 7 7 7 7 7 7 7 7 7 7 7 8 20 85 85 20 8 7 7 7 7 7 7 7 7 7 7 7 7 7 7 7 7 7 7 7 7 7 7 7 7 7 7 7 7 7 7 7 7 7 7 7 7 7 8 20 85 
132 85 75 74 74 74 74 74 74 74 74 74 74 74 74 74 74 74 74 74 74 74 74 74 74 74 74 74 74 74 74 75 76 78 77 75 74 74 74 74 74 74 74 74 74 74 74 74 75 78 78 75 74 74 74 74 74 74 74 74 74 74 74 74 75 84 128 128 84 75 74 74 74 74 74 74 74 74 74 74 74 74 74 74 74 74 74 74 74 74 74 75 78 77 75 74 74 74 74 74 74 74 74 75 78 77 75 75 85 132 
