P2
110 110
255
155 120 102 96 95 95 95 95 95 95 95 95 95 95 95 95 95 95 95 95 95 95 95 95 95 95 95 95 95 96 101 116 139 148 128 107 98 95 95 95 95 95 95 95 95 95 96 101 116 143 143 116 100 96 95 95 95 95 95 95 95 95 95 95 96 98 102 102 98 96 95 95 95 95 95 95 95 95 95 95 95 95 95 95 95 95 95 95 96 99 110 134 149 130 108 98 95 95 95 95 95 98 108 132 149 131 109 105 121 155 
120 72 46 38 37 36 36 36 36 36 36 36 36 36 36 36 36 36 36 36 36 36 36 36 36 36 36 36 37 42 56 90 128 118 76 49 39 37 36 36 36 36 36 36 36 37 38 47 74 122 120 71 46 38 37 36 36 36 36 36 36 36 36 36 36 36 36 36 36 36 36 36 36 36 36 36 36 36 36 36 36 36 36 36 36 36 36 37 39 47 73 118 125 83 51 40 37 36 36 37 38 44 65 111 128 86 54 49 72 121 
102 46 16 8 6 6 6 6 6 6 6 6 6 6 6 6 6 6 6 6 6 6 6 6 6 6 6 7 10 19 48 96 113 72 31 13 8 6 6 6 6 6 6 6 6 7 9 20 55 112 104 45 16 8 6 6 6 6 6 6 6 6 6 6 6 6 6 6 6 6 6 6 6 6 6 6 6 6 6 6 6 6 6 6 6 6 6 7 11 26 67 113 92 42 16 8 7 6 6 6 8 16 45 100 105 51 21 19 46 102 
96 38 8 0 -1 -1 -1 -1 -1 -1 -1 -1 -1 -1 -1 -1 -1 -1 -1 -1 -1 -1 -1 -1 -1 -1 -1 0 6 27 70 109 87 38 10 1 -1 -1 -1 -1 -1 -1 -1 -1 -1 0 3 20 65 124 101 38 8 0 -1 -1 -1 -1 -1 -1 -1 -1 -1 -1 -1 -1 -1 -1 -1 -1 -1 -1 -1 -1 -1 -1 -1 -1 -1 -1 -1 -1 -1 -1 -1 -1 -1 0 6 30 82 109 63 20 3 0 -1 -1 -1 -1 1 12 46 101 92 37 10 10 38 96 
95 37 6 -1 -3 -3 -3 -3 -3 -3 -3 -3 -3 -3 -3 -3 -3 -3 -3 -3 -3 -3 -3 -3 -3 -3 -2 2 17 54 101 101 54 16 1 -2 -3 -3 -3 -3 -3 -3 -3 -3 -3 0 7 35 93 143 103 36 6 -1 -3 -3 -3 -3 -3 -3 -3 -3 -3 -3 -3 -3 -3 -3 -3 -3 -3 -3 -3 -3 -3 -3 -3 -3 -3 -3 -3 -3 -3 -3 -3 -3 -2 0 9 42 97 97 42 9 0 -3 -3 -3 -3 -2 1 17 60 108 79 27 6 8 37 95 
95 36 6 -1 -3 -3 -3 -3 -3 -3 -3 -3 -3 -3 -3 -3 -3 -3 -3 -3 -3 -3 -3 -3 -3 -3 0 9 37 87 108 68 25 4 -1 -3 -3 -3 -3 -3 -3 -3 -3 -3 -2 1 18 60 120 148 102 36 6 -1 -3 -3 -3 -3 -3 -3 -3 -3 -3 -3 -3 -3 -3 -3 -3 -3 -3 -3 -3 -3 -3 -3 -3 -3 -3 -3 -3 -3 -3 -3 -3 -3 -2 1 18 62 108 80 28 4 -2 -3 -3 -3 -3 -2 3 26 79 108 59 17 3 7 36 95 
95 36 6 -1 -3 -3 -3 -3 -3 -3 -3 -3 -3 -3 -3 -3 -3 -3 -3 -3 -3 -3 -3 -3 -3 -1 4 25 68 108 87 37 9 0 -3 -3 -3 -3 -3 -3 -3 -3 -3 -3 -1 7 35 89 130 138 102 38 7 -1 -3 -3 -3 -3 -3 -3 -3 -3 -3 -3 -3 -3 -3 -3 -3 -3 -3 -3 -3 -3 -3 -3 -3 -3 -3 -3 -3 -3 -3 -3 -3 -3 -1 7 35 88 106 57 16 0 -2 -3 -3 -3 -3 -1 6 35 91 100 44 10 1 7 36 95 
95 36 6 -1 -3 -3 -3 -3 -3 -3 -3 -3 -3 -3 -3 -3 -3 -3 -3 -3 -3 -3 -3 -3 -2 1 16 54 101 101 54 16 1 -2 -3 -3 -3 -3 -3 -3 -3 -3 -3 -2 2 18 60 111 117 120 105 45 10 0 -3 -3 -3 -3 -3 -3 -3 -3 -3 -3 -3 -3 -3 -3 -3 -3 -3 -3 -3 -3 -3 -3 -3 -3 -3 -3 -3 -3 -3 -3 -3 -2 0 16 57 106 88 35 7 -1 -3 -3 -3 -3 -3 0 9 44 100 91 35 6 0 6 36 95 
95 36 6 -1 -3 -3 -3 -3 -3 -3 -3 -3 -3 -3 -3 -3 -3 -3 -3 -3 -3 -3 -3 -3 0 9 37 87 108 68 25 4 -1 -3 -3 -3 -3 -3 -3 -3 -3 -3 -3 0 9 38 89 111 87 97 111 59 16 0 -2 -3 -3 -3 -3 -3 -3 -3 -3 -3 -3 -3 -3 -3 -3 -3 -3 -3 -3 -3 -3 -3 -3 -3 -3 -3 -3 -3 -3 -3 -3 -2 4 28 80 108 62 18 1 -2 -3 -3 -3 -3 -2 0 16 59 108 79 26 4 0 6 36 95 
95 36 6 -1 -3 -3 -3 -3 -3 -3 -3 -3 -3 -3 -3 -3 -3 -3 -3 -3 -3 -3 -3 -1 4 25 68 108 87 37 9 0 -3 -3 -3 -3 -3 -3 -3 -3 -3 -3 -1 4 25 68 108 90 54 70 110 78 26 3 -2 -3 -3 -3 -3 -3 -3 -3 -3 -3 -3 -3 -3 -3 -3 -3 -3 -3 -3 -3 -3 -3 -3 -3 -3 -3 -3 -3 -3 -3 -3 0 9 42 97 97 42 9 0 -3 -3 -3 -3 -3 -2 3 26 79 108 59 16 1 0 6 36 95 
95 36 6 -1 -3 -3 -3 -3 -3 -3 -3 -3 -3 -3 -3 -3 -3 -3 -3 -3 -3 -3 -2 1 16 54 101 101 54 16 1 -2 -3 -3 -3 -3 -3 -3 -3 -3 -3 -2 1 16 53 101 101 56 30 50 102 89 32 5 -2 -3 -3 -3 -3 -3 -3 -3 -3 -3 -3 -3 -3 -3 -3 -3 -3 -3 -3 -3 -3 -3 -3 -3 -3 -3 -3 -3 -3 -3 -2 1 18 62 108 80 28 4 -2 -3 -3 -3 -3 -3 -1 6 35 91 100 44 9 0 -1 6 36 95 
95 37 6 -1 -3 -3 -3 -3 -3 -3 -3 -3 -3 -3 -3 -3 -3 -3 -3 -3 -3 -3 0 9 37 87 108 68 25 4 -1 -3 -3 -3 -3 -3 -3 -3 -3 -3 -3 -1 7 34 85 108 68 27 16 40 97 93 35 6 -1 -3 -3 -3 -3 -3 -3 -3 -3 -3 -3 -3 -3 -3 -3 -3 -3 -3 -3 -3 -3 -3 -3 -3 -3 -3 -3 -3 -3 -3 -1 7 35 88 106 57 16 0 -2 -3 -3 -3 -3 -3 0 9 44 100 91 35 6 -1 -1 6 36 95 
98 39 8 -1 -3 -3 -3 -3 -3 -3 -3 -3 -3 -3 -3 -3 -3 -3 -3 -3 -3 -1 4 25 68 108 87 37 9 0 -3 -3 -3 -3 -3 -3 -3 -3 -3 -3 -2 1 18 59 106 89 38 11 10 37 95 95 37 6 -1 -3 -3 -3 -3 -3 -3 -3 -3 -3 -3 -3 -3 -3 -3 -3 -3 -3 -3 -3 -3 -3 -3 -3 -3 -3 -3 -3 -3 -2 0 16 57 106 88 35 7 -1 -3 -3 -3 -3 -3 -2 0 16 59 108 79 26 3 -2 -1 6 36 95 
107 49 13 0 -2 -3 -3 -3 -3 -3 -3 -3 -3 -3 -3 -3 -3 -3 -3 -3 -2 1 16 54 101 101 54 16 1 -2 -3 -3 -3 -3 -3 -3 -3 -3 -3 -3 -1 7 35 87 107 60 19 4 7 36 93 96 39 7 -1 -3 -3 -3 -3 -3 -3 -3 -3 -3 -3 -3 -3 -3 -3 -3 -3 -3 -3 -3 -3 -3 -3 -3 -3 -3 -3 -3 -3 -2 4 28 80 108 62 18 1 -2 -3 -3 -3 -3 -3 -2 3 26 79 108 59 16 1 -2 -1 6 36 97 
128 76 29 7 0 -3 -3 -3 -3 -3 -3 -3 -3 -3 -3 -3 -3 -3 -3 -3 0 9 37 87 108 68 25 4 -1 -3 -3 -3 -3 -3 -3 -3 -3 -3 -3 -2 2 18 60 107 87 35 8 0 6 33 89 101 45 10 0 -3 -3 -3 -3 -3 -3 -3 -3 -3 -3 -3 -3 -3 -3 -3 -3 -3 -3 -3 -3 -3 -3 -3 -3 -3 -3 -3 -3 0 9 42 97 97 42 9 0 -3 -3 -3 -3 -3 -3 -1 6 35 91 100 44 9 0 -3 -1 6 36 101 
148 116 65 26 6 -1 -3 -3 -3 -3 -3 -3 -3 -3 -3 -3 -3 -3 -3 -1 4 25 68 108 87 37 9 0 -3 -3 -3 -3 -3 -3 -3 -3 -3 -3 -3 0 9 38 89 106 59 18 1 -1 3 26 78 108 59 16 0 -2 -3 -3 -3 -3 -3 -3 -3 -3 -3 -3 -3 -3 -3 -3 -3 -3 -3 -3 -3 -3 -3 -3 -3 -3 -3 -3 -2 1 18 62 108 80 28 4 -2 -3 -3 -3 -3 -3 -3 0 9 44 100 91 35 6 -1 -3 -1 6 36 103 
140 130 106 62 23 4 -1 -3 -3 -3 -3 -3 -3 -3 -3 -3 -3 -3 -2 1 16 54 101 101 54 16 1 -2 -3 -3 -3 -3 -3 -3 -3 -3 -3 -3 -1 4 25 68 108 85 34 7 -1 -2 1 16 59 108 78 26 3 -2 -3 -3 -3 -3 -3 -3 -3 -3 -3 -3 -3 -3 -3 -3 -3 -3 -3 -3 -3 -3 -3 -3 -3 -3 -3 -3 -1 7 35 88 106 57 16 0 -2 -3 -3 -3 -3 -3 -2 0 16 59 108 79 26 3 -2 -3 -1 6 36 101 
118 100 111 100 53 16 1 -2 -3 -3 -3 -3 -3 -3 -3 -3 -3 -3 0 9 37 87 108 68 25 4 -1 -3 -3 -3 -3 -3 -3 -3 -3 -3 -3 -2 1 16 53 101 101 53 16 1 -2 -3 0 10 45 101 89 32 5 -2 -3 -3 -3 -3 -3 -3 -3 -3 -3 -3 -3 -3 -3 -3 -3 -3 -3 -3 -3 -3 -3 -3 -3 -3 -3 -2 0 16 57 106 88 35 7 -1 -3 -3 -3 -3 -3 -3 -2 3 26 79 108 59 16 0 -2 -3 -1 6 36 97 
104 68 79 109 87 38 10 0 -2 -3 -3 -3 -3 -3 -3 -3 -3 -1 4 25 68 108 87 37 9 0 -3 -3 -3 -3 -3 -3 -3 -3 -3 -3 -3 -1 7 34 85 108 68 25 4 -1 -3 -3 -1 7 39 96 93 35 6 -1 -3 -3 -3 -3 -3 -3 -3 -3 -3 -3 -3 -3 -3 -3 -3 -3 -3 -3 -3 -3 -3 -3 -3 -3 -3 -2 4 28 80 108 62 18 1 -2 -3 -3 -3 -3 -3 -3 -1 6 35 91 100 44 9 0 -3 -3 -1 6 36 96 
98 50 48 88 108 70 28 7 0 -3 -3 -3 -3 -3 -3 -3 -2 1 16 54 101 101 54 16 1 -2 -3 -3 -3 -3 -3 -3 -3 -3 -3 -3 -2 1 18 59 106 89 38 9 0 -3 -3 -3 -1 6 37 95 95 37 6 -1 -3 -3 -3 -3 -3 -3 -3 -3 -3 -3 -3 -3 -3 -3 -3 -3 -3 -3 -3 -3 -3 -3 -3 -3 -3 0 9 42 97 97 42 9 0 -3 -3 -3 -3 -3 -3 -3 0 9 44 100 91 35 6 -1 -3 -3 -1 6 36 95 
96 42 27 55 100 104 64 26 7 0 -3 -3 -3 -3 -3 -3 0 9 37 87 108 68 25 4 -1 -3 -3 -3 -3 -3 -3 -3 -3 -3 -3 -3 -1 7 35 87 107 60 18 2 -2 -3 -3 -3 -1 6 35 93 96 39 7 -1 -3 -3 -3 -3 -3 -3 -3 -3 -3 -3 -3 -3 -3 -3 -3 -3 -3 -3 -3 -3 -3 -3 -3 -3 -2 1 18 62 108 80 28 4 -2 -3 -3 -3 -3 -3 -3 -2 0 16 59 108 79 26 3 -2 -3 -3 -1 6 36 95 
95 38 14 25 62 103 103 64 26 7 0 -3 -3 -3 -3 -1 4 25 68 108 87 37 9 0 -3 -3 -3 -3 -3 -3 -3 -3 -3 -3 -3 -2 2 18 60 107 87 35 7 -1 -3 -3 -3 -3 -2 5 32 89 101 45 10 0 -3 -3 -3 -3 -3 -3 -3 -3 -3 -3 -3 -3 -3 -3 -3 -3 -3 -3 -3 -3 -3 -3 -3 -3 -1 7 35 88 106 57 16 0 -2 -3 -3 -3 -3 -3 -3 -2 3 26 79 108 59 16 0 -2 -3 -3 -1 6 36 95 
95 37 9 8 26 63 103 103 64 26 7 0 -3 -3 -2 1 16 54 101 101 54 16 1 -2 -3 -3 -3 -3 -3 -3 -3 -3 -3 -3 -3 0 9 38 89 106 59 18 1 -2 -3 -3 -3 -3 -2 3 26 78 108 59 16 0 -2 -3 -3 -3 -3 -3 -3 -3 -3 -3 -3 -3 -3 -3 -3 -3 -3 -3 -3 -3 -3 -3 -3 -2 0 16 57 106 88 35 7 -1 -3 -3 -3 -3 -3 -3 -3 -1 6 35 91 100 44 9 0 -3 -3 -3 -1 6 36 95 
95 36 7 1 7 26 64 103 103 64 26 7 0 -2 0 9 37 87 108 68 25 4 -1 -3 -3 -3 -3 -3 -3 -3 -3 -3 -3 -3 -1 4 25 68 108 85 34 7 -1 -3 -3 -3 -3 -3 -2 0 16 59 108 78 26 3 -2 -3 -3 -3 -3 -3 -3 -3 -3 -3 -3 -3 -3 -3 -3 -3 -3 -3 -3 -3 -3 -3 -3 -2 4 28 80 108 62 18 1 -2 -3 -3 -3 -3 -3 -3 -3 0 9 44 100 91 35 6 -1 -3 -3 -3 -1 6 36 95 
95 36 6 0 0 7 26 64 103 103 64 26 7 1 5 25 68 108 87 37 9 0 -3 -3 -3 -3 -3 -3 -3 -3 -3 -3 -3 -2 1 16 53 101 101 53 16 1 -2 -3 -3 -3 -3 -3 -3 0 10 45 101 89 33 5 -2 -3 -3 -3 -3 -3 -3 -3 -3 -3 -3 -3 -3 -3 -3 -3 -3 -3 -3 -3 -3 -3 -3 0 9 42 97 97 42 9 0 -3 -3 -3 -3 -3 -3 -3 -2 0 16 59 108 79 26 3 -2 -3 -3 -3 -1 6 36 95 
95 36 6 -1 -2 0 7 26 64 103 103 64 27 12 20 54 101 101 54 16 1 -2 -3 -3 -3 -3 -3 -3 -3 -3 -3 -3 -3 -1 7 34 85 108 68 25 4 -1 -3 -3 -3 -3 -3 -3 -3 -1 7 38 96 94 36 6 -1 -3 -3 -3 -3 -3 -3 -3 -3 -3 -3 -3 -3 -3 -3 -3 -3 -3 -3 -3 -3 -3 -2 1 18 62 108 80 28 4 -2 -3 -3 -3 -3 -3 -3 -3 -2 3 26 79 108 59 16 0 -2 -3 -3 -3 -1 6 36 95 
95 36 6 -1 -3 -2 0 7 26 64 103 103 67 39 47 89 108 68 25 4 -1 -3 -3 -3 -3 -3 -3 -3 -3 -3 -3 -3 -2 1 18 59 106 89 38 9 0 -3 -3 -3 -3 -3 -3 -3 -3 -1 6 36 94 96 38 7 -1 -3 -3 -3 -3 -3 -3 -3 -3 -3 -3 -3 -3 -3 -3 -3 -3 -3 -3 -3 -3 -3 -1 7 35 88 106 57 16 0 -2 -3 -3 -3 -3 -3 -3 -3 -1 6 35 91 100 44 9 0 -3 -3 -3 -3 -1 6 36 95 
95 36 6 -1 -3 -3 -3 0 7 26 64 104 109 88 92 113 87 37 9 0 -3 -3 -3 -3 -3 -3 -3 -3 -3 -3 -3 -3 -1 7 35 87 107 60 18 2 -2 -3 -3 -3 -3 -3 -3 -3 -3 -2 5 33 89 101 45 10 0 -3 -3 -3 -3 -3 -3 -3 -3 -3 -3 -3 -3 -3 -3 -3 -3 -3 -3 -3 -3 -2 0 16 57 106 88 35 7 -1 -3 -3 -3 -3 -3 -3 -3 -3 0 9 44 100 91 35 6 -1 -3 -3 -3 -3 -1 6 36 95 
95 36 6 -1 -3 -3 -3 -3 0 7 26 65 111 136 136 107 54 16 1 -2 -3 -3 -3 -3 -3 -3 -3 -3 -3 -3 -3 -2 2 18 60 107 87 35 7 -1 -3 -3 -3 -3 -3 -3 -3 -3 -3 -2 3 26 78 108 59 16 0 -2 -3 -3 -3 -3 -3 -3 -3 -3 -3 -3 -3 -3 -3 -3 -3 -3 -3 -3 -3 -2 4 28 80 108 62 18 1 -2 -3 -3 -3 -3 -3 -3 -3 -2 0 16 59 108 79 26 3 -2 -3 -3 -3 -3 -1 6 36 95 
95 36 6 -1 -3 -3 -3 -3 -3 0 7 29 76 133 133 74 26 5 -1 -3 -3 -3 -3 -3 -3 -3 -3 -3 -3 -3 -3 0 9 38 89 106 59 18 1 -2 -3 -3 -3 -3 -3 -3 -3 -3 -3 -2 0 16 59 108 78 26 3 -2 -3 -3 -3 -3 -3 -3 -3 -3 -3 -3 -3 -3 -3 -3 -3 -3 -3 -3 -3 0 9 42 97 97 42 9 0 -3 -3 -3 -3 -3 -3 -3 -3 -2 3 26 79 108 59 16 0 -2 -3 -3 -3 -3 -1 6 36 95 
95 36 6 -1 -3 -3 -3 -3 -3 -2 0 12 48 109 112 51 13 0 -3 -3 -3 -3 -3 -3 -3 -3 -3 -3 -3 -3 -1 4 25 68 108 85 34 7 -1 -3 -3 -3 -3 -3 -3 -3 -3 -3 -3 -3 0 10 45 101 89 32 5 -2 -3 -3 -3 -3 -3 -3 -3 -3 -3 -3 -3 -3 -3 -3 -3 -3 -3 -3 -2 1 18 62 108 80 28 4 -2 -3 -3 -3 -3 -3 -3 -3 -3 -1 6 35 91 100 44 9 0 -3 -3 -3 -3 -3 -1 6 36 95 
95 36 6 -1 -3 -3 -3 -3 -3 -3 -1 7 36 93 105 48 11 0 -3 -3 -3 -3 -3 -3 -3 -3 -3 -3 -3 -2 1 16 53 101 101 53 16 1 -2 -3 -3 -3 -3 -3 -3 -3 -3 -3 -3 -3 -1 7 39 96 93 35 6 -1 -3 -3 -3 -3 -3 -3 -3 -3 -3 -3 -3 -3 -3 -3 -3 -3 -3 -3 -1 7 35 88 106 57 16 0 -2 -3 -3 -3 -3 -3 -3 -3 -3 0 9 44 100 91 35 6 -1 -3 -3 -3 -3 -3 -1 6 36 95 
95 36 6 -1 -3 -3 -3 -3 -3 -3 -2 3 26 79 109 60 16 1 -2 -3 -3 -3 -3 -3 -3 -3 -3 -3 -3 -1 7 34 85 108 68 25 4 -1 -3 -3 -3 -3 -3 -3 -3 -3 -3 -3 -3 -3 -1 6 37 95 95 37 6 -1 -3 -3 -3 -3 -3 -3 -3 -3 -3 -3 -3 -3 -3 -3 -3 -3 -3 -2 0 16 57 106 88 35 7 -1 -3 -3 -3 -3 -3 -3 -3 -3 -2 0 16 59 108 79 26 3 -2 -3 -3 -3 -3 -3 -1 6 36 95 
95 36 6 -1 -3 -3 -3 -3 -3 -3 -2 0 16 59 108 78 26 3 -2 -3 -3 -3 -3 -3 -3 -3 -3 -3 -2 1 18 59 106 89 38 9 0 -3 -3 -3 -3 -3 -3 -3 -3 -3 -3 -3 -3 -3 -1 6 35 93 96 39 7 -1 -3 -3 -3 -3 -3 -3 -3 -3 -3 -3 -3 -3 -3 -3 -3 -3 -3 -2 4 28 80 108 62 18 1 -2 -3 -3 -3 -3 -3 -3 -3 -3 -2 3 26 79 108 59 16 0 -2 -3 -3 -3 -3 -3 -1 6 36 95 
95 36 6 -1 -3 -3 -3 -3 -3 -3 -3 0 10 45 101 90 33 5 -1 -3 -3 -3 -3 -3 -3 -3 -3 -3 -1 7 35 87 107 60 18 2 -2 -3 -3 -3 -3 -3 -3 -3 -3 -3 -3 -3 -3 -3 -2 5 32 89 101 45 10 0 -3 -3 -3 -3 -3 -3 -3 -3 -3 -3 -3 -3 -3 -3 -3 -3 -3 0 9 42 97 97 42 9 0 -3 -3 -3 -3 -3 -3 -3 -3 -3 -1 6 35 91 100 44 9 0 -3 -3 -3 -3 -3 -3 -1 6 37 95 
95 36 6 -1 -3 -3 -3 -3 -3 -3 -3 -1 7 38 95 95 38 7 -1 -3 -3 -3 -3 -3 -3 -3 -3 -2 2 18 60 107 87 35 7 -1 -3 -3 -3 -3 -3 -3 -3 -3 -3 -3 -3 -3 -3 -3 -2 3 26 78 108 59 16 0 -2 -3 -3 -3 -3 -3 -3 -3 -3 -3 -3 -3 -3 -3 -3 -3 -2 1 18 62 108 80 28 4 -2 -3 -3 -3 -3 -3 -3 -3 -3 -3 0 9 44 100 91 35 6 -1 -3 -3 -3 -3 -3 -3 -1 7 39 98 
97 36 6 -1 -3 -3 -3 -3 -3 -3 -3 -1 5 33 90 101 45 10 0 -3 -3 -3 -3 -3 -3 -3 -3 0 9 38 89 106 59 18 1 -2 -3 -3 -3 -3 -3 -3 -3 -3 -3 -3 -3 -3 -3 -3 -2 0 16 59 108 78 26 3 -2 -3 -3 -3 -3 -3 -3 -3 -3 -3 -3 -3 -3 -3 -3 -3 -1 7 35 88 106 57 16 0 -2 -3 -3 -3 -3 -3 -3 -3 -3 -2 0 16 59 108 79 26 3 -2 -3 -3 -3 -3 -3 -3 0 10 46 105 
100 36 6 -1 -3 -3 -3 -3 -3 -3 -3 -2 3 26 78 108 59 16 0 -2 -3 -3 -3 -3 -3 -3 -1 4 25 68 108 85 34 7 -1 -3 -3 -3 -3 -3 -3 -3 -3 -3 -3 -3 -3 -3 -3 -3 -3 0 10 45 101 89 32 5 -2 -3 -3 -3 -3 -3 -3 -3 -3 -3 -3 -3 -3 -3 -3 -2 0 16 57 106 88 35 7 -1 -3 -3 -3 -3 -3 -3 -3 -3 -3 -2 3 26 79 108 59 16 0 -2 -3 -3 -3 -3 -3 -2 2 19 64 123 
102 36 6 -1 -3 -3 -3 -3 -3 -3 -3 -2 0 16 59 108 78 26 3 -2 -3 -3 -3 -3 -3 -2 1 16 53 101 101 53 16 1 -2 -3 -3 -3 -3 -3 -3 -3 -3 -3 -3 -3 -3 -3 -3 -3 -3 -1 7 39 96 93 35 6 -1 -3 -3 -3 -3 -3 -3 -3 -3 -3 -3 -3 -3 -3 -3 -2 4 28 80 108 62 18 1 -2 -3 -3 -3 -3 -3 -3 -3 -3 -3 -1 6 35 91 100 44 9 0 -3 -3 -3 -3 -3 -3 0 9 38 95 143 
102 36 6 -1 -3 -3 -3 -3 -3 -3 -3 -3 0 10 45 101 90 33 5 -1 -3 -3 -3 -3 -3 -1 7 34 85 108 68 25 4 -1 -3 -3 -3 -3 -3 -3 -3 -3 -3 -3 -3 -3 -3 -3 -3 -3 -3 -1 6 37 95 95 37 6 -1 -3 -3 -3 -3 -3 -3 -3 -3 -3 -3 -3 -3 -3 -3 0 9 42 97 97 42 9 0 -3 -3 -3 -3 -3 -3 -3 -3 -3 -3 0 9 44 100 91 35 6 -1 -3 -3 -3 -3 -3 -1 4 25 69 123 147 
99 36 6 -1 -3 -3 -3 -3 -3 -3 -3 -3 -1 7 38 95 95 38 7 -1 -3 -3 -3 -3 -2 1 18 59 106 89 38 9 0 -3 -3 -3 -3 -3 -3 -3 -3 -3 -3 -3 -3 -3 -3 -3 -3 -3 -3 -1 6 35 93 96 39 7 -1 -3 -3 -3 -3 -3 -3 -3 -3 -3 -3 -3 -3 -3 -2 1 18 62 108 80 28 4 -2 -3 -3 -3 -3 -3 -3 -3 -3 -3 -2 0 16 59 108 79 26 3 -2 -3 -3 -3 -3 -2 1 16 54 104 129 135 
97 36 6 -1 -3 -3 -3 -3 -3 -3 -3 -3 -1 5 33 90 101 45 10 0 -3 -3 -3 -3 -1 7 35 87 107 60 18 2 -2 -3 -3 -3 -3 -3 -3 -3 -3 -3 -3 -3 -3 -3 -3 -3 -3 -3 -3 -2 5 32 89 101 45 10 0 -3 -3 -3 -3 -3 -3 -3 -3 -3 -3 -3 -3 -3 -1 7 35 88 106 57 16 0 -2 -3 -3 -3 -3 -3 -3 -3 -3 -3 -2 3 26 79 108 59 16 0 -2 -3 -3 -3 -3 0 9 37 87 114 104 117 
96 36 6 -1 -3 -3 -3 -3 -3 -3 -3 -3 -2 3 26 78 108 59 16 0 -2 -3 -3 -2 2 18 60 107 87 35 7 -1 -3 -3 -3 -3 -3 -3 -3 -3 -3 -3 -3 -3 -3 -3 -3 -3 -3 -3 -3 -2 3 26 78 108 60 17 1 -2 -3 -3 -3 -3 -3 -3 -3 -3 -3 -3 -3 -2 0 16 57 106 88 35 7 -1 -3 -3 -3 -3 -3 -3 -3 -3 -3 -3 -1 6 35 91 100 44 9 0 -3 -3 -3 -3 -1 4 25 68 109 95 76 105 
95 36 6 -1 -3 -3 -3 -3 -3 -3 -3 -3 -2 0 16 59 108 78 26 3 -2 -3 -3 0 9 38 89 106 59 18 1 -2 -3 -3 -3 -3 -3 -3 -3 -3 -3 -3 -3 -3 -3 -3 -3 -3 -3 -3 -3 -2 1 17 60 109 80 28 5 0 -1 -2 -2 -3 -3 -3 -3 -3 -3 -3 -3 -2 4 28 80 108 62 18 1 -2 -3 -3 -3 -3 -3 -3 -3 -3 -3 -3 0 9 44 100 91 35 6 -1 -3 -3 -3 -2 1 16 54 101 102 63 56 99 
95 36 6 -1 -3 -3 -3 -3 -3 -3 -3 -3 -3 0 10 45 101 90 33 5 -1 -3 -1 4 25 68 108 85 34 7 -1 -3 -3 -3 -3 -3 -3 -3 -3 -3 -3 -3 -3 -3 -3 -3 -3 -3 -3 -3 -3 -2 0 12 48 106 96 42 15 8 5 3 0 0 -1 -1 -1 -2 -2 -2 -2 0 9 42 97 97 42 9 0 -3 -3 -3 -3 -3 -3 -3 -3 -3 -3 -2 0 16 59 108 79 26 3 -2 -3 -3 -3 0 9 37 87 108 70 35 45 96 
95 36 6 -1 -3 -3 -3 -3 -3 -3 -3 -3 -3 -1 7 38 95 95 38 7 -1 -2 1 16 53 101 101 53 16 1 -2 -3 -3 -3 -3 -3 -3 -3 -3 -3 -3 -3 -3 -3 -3 -3 -3 -3 -3 -3 -3 -1 3 17 54 114 118 71 45 37 33 26 16 10 7 6 6 5 3 1 0 3 20 62 108 80 28 4 -2 -3 -3 -3 -3 -3 -3 -3 -3 -3 -3 -2 3 26 79 108 59 16 0 -2 -3 -3 -1 4 25 68 108 87 39 19 40 95 
95 36 6 -1 -3 -3 -3 -3 -3 -3 -3 -3 -3 -1 5 33 90 101 45 10 0 0 7 35 85 108 68 25 4 -1 -3 -3 -3 -3 -3 -3 -3 -3 -3 -3 -3 -3 -3 -3 -3 -3 -3 -3 -3 -2 0 4 17 41 82 135 144 117 100 94 89 78 59 45 39 37 35 32 26 17 12 17 42 91 107 57 16 0 -2 -3 -3 -3 -3 -3 -3 -3 -3 -3 -3 -1 6 35 91 100 44 9 0 -3 -3 -2 1 16 54 101 101 54 18 12 37 95 
95 36 6 -1 -3 -3 -3 -3 -3 -3 -3 -3 -3 -2 3 26 78 108 59 16 2 2 18 59 106 89 38 9 0 -3 -3 -3 -3 -3 -3 -3 -3 -3 -3 -3 -3 -3 -3 -3 -3 -3 -3 -3 -1 1 9 25 54 88 115 124 114 101 97 97 101 108 108 101 96 95 93 89 78 60 48 54 83 117 91 36 7 -1 -3 -3 -3 -3 -3 -3 -3 -3 -3 -3 -3 0 9 44 100 91 35 6 -1 -3 -3 0 9 37 87 108 68 25 6 8 37 95 
95 36 6 -1 -3 -3 -3 -3 -3 -3 -3 -3 -3 -2 0 16 59 108 78 26 6 9 36 87 107 60 18 2 -2 -3 -3 -3 -3 -3 -3 -3 -3 -3 -3 -3 -3 -3 -3 -3 -3 -3 -2 0 4 16 37 68 101 109 90 64 46 39 37 39 45 59 78 89 93 95 96 101 108 109 105 113 135 133 73 23 3 -2 -3 -3 -3 -3 -3 -3 -3 -3 -3 -3 -2 0 16 59 108 79 26 3 -2 -3 -1 4 25 68 108 87 37 9 1 7 36 95 
95 36 6 -1 -3 -3 -3 -3 -3 -3 -3 -3 -3 -3 0 10 45 101 90 34 11 20 60 107 87 35 7 -1 -3 -3 -3 -3 -3 -3 -3 -3 -3 -3 -3 -3 -3 -3 -3 -3 -3 -1 1 9 25 54 87 108 101 68 38 19 10 7 6 7 10 16 26 32 35 37 39 45 60 79 93 110 135 133 73 23 3 -2 -3 -3 -3 -3 -3 -3 -3 -3 -3 -3 -2 3 26 79 108 59 16 0 -2 -2 1 16 54 101 101 54 16 2 0 6 36 95 
95 36 6 -1 -3 -3 -3 -3 -3 -3 -3 -3 -3 -3 -1 7 38 95 96 41 20 40 89 106 59 18 1 -2 -3 -3 -3 -3 -3 -3 -3 -3 -3 -3 -3 -3 -3 -3 -3 -3 -1 4 16 37 68 101 108 87 54 25 9 2 0 -1 -1 -1 0 0 3 5 6 6 7 10 16 27 36 50 82 117 93 40 11 0 -2 -3 -3 -3 -3 -3 -3 -3 -3 -3 -1 6 35 92 100 44 9 0 -2 0 9 37 87 108 68 25 4 -1 -1 6 36 95 
95 36 6 -1 -3 -3 -3 -3 -3 -3 -3 -3 -3 -3 -1 5 33 90 102 53 39 71 108 86 34 7 -1 -3 -3 -3 -3 -3 -3 -3 -3 -3 -3 -3 -3 -3 -3 -3 -2 0 6 23 53 87 108 101 68 37 16 4 0 -2 -3 -3 -3 -3 -3 -2 -2 -2 -1 -1 -1 0 0 4 7 16 41 89 110 71 30 10 2 0 -1 -1 -1 -1 -1 -1 -1 -1 1 11 45 101 92 35 6 -1 -1 4 25 68 108 87 37 9 0 -2 -1 6 36 95 
95 36 6 -1 -3 -3 -3 -3 -3 -3 -3 -3 -3 -3 -2 3 26 79 111 78 73 105 101 53 16 1 -2 -3 -3 -3 -3 -3 -3 -3 -3 -3 -3 -3 -3 -3 -3 -1 1 10 28 62 100 108 87 54 25 9 1 -1 -3 -3 -3 -3 -3 -3 -3 -3 -3 -3 -3 -3 -3 -3 -2 -2 -1 3 17 54 103 110 73 39 19 10 7 6 6 6 6 6 6 7 11 26 66 112 82 29 5 0 2 16 54 101 101 54 16 1 -2 -3 -1 6 36 95 
95 36 6 -1 -3 -3 -3 -3 -3 -3 -3 -3 -3 -3 -2 0 16 59 113 111 110 111 68 25 4 -1 -3 -3 -3 -3 -3 -3 -3 -3 -3 -3 -3 -3 -3 -2 0 4 16 38 70 104 104 70 38 16 4 0 -2 -3 -3 -3 -3 -3 -3 -3 -3 -3 -3 -3 -3 -3 -3 -3 -3 -3 -3 -1 5 26 73 126 128 95 64 46 39 37 36 36 36 36 36 38 43 62 104 125 74 26 7 2 10 38 87 108 68 25 4 -1 -3 -3 -1 6 36 95 
95 36 6 -1 -3 -3 -3 -3 -3 -3 -3 -3 -3 -3 -3 0 10 45 108 136 129 90 38 9 0 -3 -3 -3 -3 -3 -3 -3 -3 -3 -3 -3 -3 -3 -1 1 9 25 54 87 108 100 62 28 10 1 -1 -3 -3 -3 -3 -3 -3 -3 -3 -3 -3 -3 -3 -3 -3 -3 -3 -3 -3 -3 -3 -2 0 13 51 117 147 129 113 102 97 95 95 95 95 95 95 96 100 114 141 140 90 46 22 16 30 69 108 87 37 9 0 -3 -3 -3 -1 6 36 95 
95 36 6 -1 -3 -3 -3 -3 -3 -3 -3 -3 -3 -3 -3 -1 7 38 104 148 120 60 18 2 -2 -3 -3 -3 -3 -3 -3 -3 -3 -3 -3 -3 -2 0 4 16 37 68 101 108 87 53 23 6 0 -2 -3 -3 -3 -3 -3 -3 -3 -3 -3 -3 -3 -3 -3 -3 -3 -3 -3 -3 -3 -3 -3 -3 0 11 48 109 119 90 86 91 93 94 95 95 95 95 95 95 96 101 113 125 117 92 64 52 69 106 103 54 16 1 -2 -3 -3 -3 -1 6 36 95 
95 36 6 -1 -3 -3 -3 -3 -3 -3 -3 -3 -3 -3 -3 -1 6 36 103 143 93 35 7 -1 -3 -3 -3 -3 -3 -3 -3 -3 -3 -3 -3 -1 1 9 25 54 87 108 101 68 37 16 4 -1 -3 -3 -3 -3 -3 -3 -3 -3 -3 -3 -3 -3 -3 -3 -3 -3 -3 -3 -3 -3 -3 -3 -3 -2 1 16 60 111 88 45 33 34 35 36 36 36 36 36 36 36 37 39 46 64 89 108 111 109 122 123 75 27 5 -1 -3 -3 -3 -3 -1 6 36 95 
95 36 6 -1 -3 -3 -3 -3 -3 -3 -3 -3 -3 -3 -3 -1 6 36 100 123 64 18 1 -2 -3 -3 -3 -3 -3 -3 -3 -3 -2 -1 0 4 16 37 68 103 110 89 55 26 10 2 -1 -3 -3 -3 -3 -3 -3 -3 -3 -3 -3 -3 -3 -3 -3 -3 -3 -3 -3 -3 -3 -3 -3 -3 -3 -2 3 26 78 109 62 21 8 6 6 6 6 6 6 6 6 6 6 7 10 19 36 60 90 122 147 125 61 18 2 -2 -3 -3 -3 -3 -1 6 36 95 
95 36 6 -1 -3 -3 -3 -3 -3 -3 -3 -3 -3 -3 -3 -1 6 37 97 105 45 10 0 -3 -3 -3 -3 -3 -3 -3 -2 -1 0 5 11 25 54 91 120 116 81 48 26 12 4 0 -1 -2 -2 -3 -3 -3 -3 -3 -3 -3 -3 -3 -3 -3 -3 -3 -3 -3 -3 -3 -3 -3 -3 -3 -3 -2 5 33 89 101 45 11 0 -1 -1 -1 -1 -1 -1 -1 -1 -1 -1 -1 0 1 7 18 39 72 117 125 75 27 5 -1 -3 -3 -3 -3 -1 6 36 95 
95 36 6 -1 -3 -3 -3 -3 -3 -3 -3 -3 -3 -3 -3 -1 7 39 97 96 38 7 -1 -3 -3 -3 -3 -3 -2 -1 1 7 16 29 45 71 111 142 143 111 73 51 38 28 17 10 6 3 0 0 -1 -1 -2 -2 -3 -3 -3 -3 -3 -3 -3 -3 -3 -3 -3 -3 -3 -3 -3 -3 -3 -1 6 36 94 96 38 7 -1 -3 -3 -3 -3 -3 -3 -3 -3 -3 -3 -3 -3 -2 -1 2 10 28 66 108 103 54 16 1 -2 -3 -3 -3 -1 6 36 95 
95 36 6 -1 -3 -3 -3 -3 -3 -3 -3 -3 -3 -3 -3 0 10 45 101 90 33 5 -1 -3 -3 -2 -2 0 1 7 18 35 57 81 99 114 121 121 125 121 107 98 91 79 59 44 35 26 16 10 7 5 3 0 0 -1 -2 -2 -3 -3 -3 -3 -3 -3 -3 -3 -3 -3 -3 -3 -3 -1 7 38 96 94 36 6 -1 -3 -3 -3 -3 -3 -3 -3 -3 -3 -3 -3 -3 -3 -3 -2 0 7 28 70 108 87 37 9 0 -3 -3 -3 -1 6 36 95 
95 36 6 -1 -3 -3 -3 -3 -3 -3 -3 -3 -3 -3 -2 0 16 59 108 78 26 3 -1 -2 -1 0 4 9 19 36 59 87 106 108 97 82 63 54 62 80 90 95 101 108 108 100 91 79 59 45 38 33 26 16 9 6 3 0 0 -1 -1 -2 -2 -3 -3 -3 -3 -3 -3 -3 -3 0 10 45 101 89 33 5 -2 -3 -3 -3 -3 -3 -3 -3 -3 -3 -3 -3 -3 -3 -3 -3 -2 0 10 38 87 108 68 25 4 -1 -3 -3 -1 6 36 95 
95 36 6 -1 -3 -3 -3 -3 -3 -3 -3 -3 -3 -3 -2 3 26 78 108 60 17 2 0 1 7 16 28 42 62 88 107 107 88 62 42 29 18 13 17 26 33 38 45 59 79 91 100 108 108 101 95 90 78 59 44 35 26 16 10 7 5 3 0 0 -1 -2 -2 -3 -3 -3 -2 1 16 59 108 78 26 3 -2 -3 -3 -3 -3 -3 -3 -3 -3 -3 -3 -3 -3 -3 -3 -3 -3 -2 1 16 54 101 101 54 16 1 -2 -3 -1 6 36 95 
95 36 6 -1 -3 -3 -3 -3 -3 -3 -3 -3 -3 -3 -1 5 33 90 101 46 12 4 8 18 35 57 80 97 108 106 87 59 36 19 9 4 1 0 1 3 5 7 10 16 26 35 44 59 78 90 95 101 108 108 100 91 79 59 45 38 33 26 16 9 6 3 0 0 -1 -1 0 4 26 79 108 59 16 0 -2 -3 -3 -3 -3 -3 -3 -3 -3 -3 -3 -3 -3 -3 -3 -3 -3 -3 -1 4 25 68 108 87 38 10 0 -2 -1 6 36 95 
95 36 6 -1 -3 -3 -3 -3 -3 -3 -3 -3 -3 -3 -1 7 38 96 98 43 18 20 36 59 87 106 108 97 80 57 35 18 7 1 0 -2 -2 -3 -2 -2 -1 -1 0 0 3 6 9 16 26 33 38 45 59 79 91 100 108 108 101 95 90 78 59 44 35 26 16 10 7 6 5 10 35 91 101 45 10 0 -3 -3 -3 -3 -3 -3 -3 -3 -3 -3 -3 -3 -3 -3 -3 -3 -3 -3 -3 0 9 37 87 108 70 28 6 0 -1 6 36 95 
95 36 6 -1 -3 -3 -3 -3 -3 -3 -3 -3 -3 -3 0 10 45 104 101 55 45 61 88 107 107 88 62 42 28 16 7 1 -1 -2 -3 -3 -3 -3 -3 -3 -3 -3 -3 -2 -2 -1 0 0 3 5 7 10 16 26 35 44 59 78 90 95 101 108 108 100 91 79 59 45 38 33 28 26 48 100 98 39 7 -1 -3 -3 -3 -3 -3 -3 -3 -3 -3 -3 -3 -3 -3 -3 -3 -3 -3 -3 -3 -2 1 16 53 100 104 62 23 4 0 7 36 95 
95 36 6 -1 -3 -3 -3 -3 -3 -3 -3 -3 -3 -2 1 18 64 122 117 89 94 108 107 87 59 36 19 9 4 0 -1 -2 -3 -3 -3 -3 -3 -3 -3 -3 -3 -3 -3 -3 -3 -3 -3 -2 -2 -1 -1 0 0 3 6 9 16 26 33 38 45 59 79 91 100 108 108 101 95 90 80 68 79 117 99 37 6 -1 -3 -3 -3 -3 -3 -3 -3 -3 -3 -3 -3 -3 -3 -3 -3 -3 -3 -3 -3 -3 -1 4 23 62 104 100 53 17 3 7 37 95 
95 36 6 -1 -3 -3 -3 -3 -3 -3 -3 -3 -3 -1 7 35 94 145 138 120 108 87 59 35 18 7 1 0 -2 -2 -3 -3 -3 -3 -3 -3 -3 -3 -3 -3 -3 -3 -3 -3 -3 -3 -3 -3 -3 -3 -3 -3 -2 -2 -1 0 0 3 5 7 10 16 26 35 44 59 78 90 95 101 109 114 125 144 103 36 6 -1 -3 -3 -3 -3 -3 -3 -3 -3 -3 -3 -3 -3 -3 -3 -3 -3 -3 -3 -3 -3 -3 -1 6 28 70 108 87 38 12 10 37 95 
95 36 6 -1 -3 -3 -3 -3 -3 -3 -3 -3 -2 2 18 60 117 131 108 82 57 35 18 7 1 -1 -2 -3 -3 -3 -3 -3 -3 -3 -3 -3 -3 -3 -3 -3 -3 -3 -3 -3 -3 -3 -3 -3 -3 -3 -3 -3 -3 -3 -3 -3 -2 -2 -1 -1 0 0 3 6 9 16 26 33 38 45 61 85 115 142 102 36 6 -1 -3 -3 -3 -3 -3 -3 -3 -3 -3 -3 -3 -3 -3 -3 -3 -3 -3 -3 -3 -3 -3 -3 0 10 38 87 108 70 30 17 39 95 
95 36 6 -1 -3 -3 -3 -3 -3 -3 -3 -3 0 9 38 89 114 80 47 29 16 7 1 -1 -2 -3 -3 -3 -3 -3 -3 -3 -3 -3 -3 -3 -3 -3 -3 -3 -3 -3 -3 -3 -3 -3 -3 -3 -3 -3 -3 -3 -3 -3 -3 -3 -3 -3 -3 -3 -3 -2 -2 -1 0 0 3 5 7 10 18 35 68 115 98 36 6 -1 -3 -3 -3 -3 -3 -3 -3 -3 -3 -3 -3 -3 -3 -3 -3 -3 -3 -3 -3 -3 -3 -3 -2 1 16 53 100 104 64 33 44 96 
95 36 6 -1 -3 -3 -3 -3 -3 -3 -3 -1 4 25 68 108 88 41 15 5 1 -1 -2 -3 -3 -3 -3 -3 -3 -3 -3 -3 -3 -3 -3 -3 -3 -3 -3 -3 -3 -3 -3 -3 -3 -3 -3 -3 -3 -3 -3 -3 -3 -3 -3 -3 -3 -3 -3 -3 -3 -3 -3 -3 -3 -2 -2 -1 -1 0 2 13 45 100 96 36 6 -1 -3 -3 -3 -3 -3 -3 -3 -3 -3 -3 -3 -3 -3 -3 -3 -3 -3 -3 -3 -3 -3 -3 -3 -1 4 23 62 104 101 63 56 99 
96 36 6 -1 -3 -3 -3 -3 -3 -3 -2 1 16 54 101 101 54 17 2 -1 -2 -3 -3 -3 -3 -3 -3 -3 -3 -3 -3 -3 -3 -3 -3 -3 -3 -3 -3 -3 -3 -3 -3 -3 -3 -3 -3 -3 -3 -3 -3 -3 -3 -3 -3 -3 -3 -3 -3 -3 -3 -3 -3 -3 -3 -3 -3 -3 -3 -3 0 8 38 96 95 37 6 -1 -3 -3 -3 -3 -3 -3 -3 -3 -3 -3 -3 -3 -3 -3 -3 -3 -3 -3 -3 -3 -3 -3 -3 -3 -1 6 28 70 109 95 76 105 
97 36 6 -1 -3 -3 -3 -3 -3 -2 0 10 38 87 108 68 25 5 -1 -3 -3 -3 -3 -3 -3 -3 -3 -3 -3 -3 -3 -3 -3 -3 -3 -3 -3 -3 -3 -3 -3 -3 -3 -3 -3 -3 -3 -3 -3 -3 -3 -3 -3 -3 -3 -3 -3 -3 -3 -3 -3 -3 -3 -3 -3 -3 -3 -3 -3 -3 -1 6 36 95 97 39 8 -1 -3 -3 -3 -3 -3 -3 -3 -3 -3 -3 -3 -3 -3 -3 -3 -3 -3 -3 -3 -3 -3 -3 -3 -3 -3 0 10 38 87 114 104 117 
99 36 6 -1 -3 -3 -3 -3 -3 0 7 28 70 109 88 39 10 0 -2 -3 -3 -3 -3 -3 -3 -3 -3 -3 -3 -3 -3 -3 -3 -3 -3 -3 -3 -3 -3 -3 -3 -3 -3 -3 -3 -3 -3 -3 -3 -3 -3 -3 -3 -3 -3 -3 -3 -3 -3 -3 -3 -3 -3 -3 -3 -3 -3 -3 -3 -3 0 7 37 95 105 49 13 1 -2 -3 -3 -3 -3 -3 -3 -3 -3 -3 -3 -3 -3 -3 -3 -3 -3 -3 -3 -3 -3 -3 -3 -3 -3 -2 1 16 54 104 129 135 
102 36 6 -1 -3 -3 -3 -3 0 6 26 65 108 108 62 26 9 2 0 -1 -1 -1 -1 -1 -1 -1 -1 -2 -2 -2 -3 -3 -3 -3 -3 -3 -3 -3 -3 -3 -3 -3 -3 -3 -3 -3 -3 -3 -3 -3 -3 -3 -3 -3 -3 -3 -3 -3 -3 -3 -3 -3 -3 -3 -3 -3 -3 -3 -3 -1 2 14 44 101 125 76 31 10 2 -1 -2 -3 -3 -3 -3 -3 -3 -3 -3 -3 -3 -3 -3 -3 -3 -3 -3 -3 -3 -3 -3 -3 -3 -3 -1 4 25 69 123 147 
102 36 6 -1 -3 -3 -3 0 6 26 65 113 129 98 62 41 28 17 10 7 6 6 6 6 6 6 6 5 3 0 0 -1 -1 -1 -1 -1 -1 -1 -2 -2 -2 -3 -3 -3 -3 -3 -3 -3 -3 -3 -3 -3 -3 -3 -3 -3 -3 -3 -3 -3 -3 -3 -3 -3 -3 -3 -3 -2 0 4 16 38 73 121 148 120 72 39 18 7 1 -1 -3 -3 -3 -3 -3 -3 -3 -3 -3 -3 -3 -3 -3 -3 -3 -3 -3 -3 -3 -3 -3 -3 -3 0 9 38 95 143 
100 36 6 -1 -3 -2 0 6 26 64 115 147 140 118 102 92 79 59 45 39 37 36 36 36 36 36 35 32 26 16 10 7 6 6 6 6 6 6 5 3 0 0 -1 -1 -1 -1 -1 -1 -1 -1 -2 -2 -2 -3 -3 -3 -3 -3 -3 -3 -3 -3 -3 -3 -3 -2 -1 2 9 25 53 87 111 121 123 123 113 89 60 35 16 4 0 -2 -3 -3 -3 -3 -3 -3 -3 -3 -3 -3 -3 -3 -3 -3 -3 -3 -3 -3 -3 -3 -3 -2 2 19 64 123 
97 36 6 -1 -2 0 7 26 64 106 122 115 104 99 98 101 108 108 101 97 95 95 95 95 95 94 93 89 78 59 45 39 37 36 36 36 36 35 32 26 16 10 7 6 6 6 6 6 6 6 5 3 0 0 -1 -1 -1 -1 -1 -1 -1 -2 -2 -2 -1 1 7 18 38 68 101 108 90 66 55 66 89 107 106 86 53 25 9 2 -1 -2 -3 -3 -3 -3 -3 -3 -3 -3 -3 -3 -3 -3 -3 -3 -3 -3 -3 -3 -3 -3 0 10 46 105 
95 36 7 0 0 7 26 64 103 106 74 49 39 37 39 45 59 78 89 93 94 95 95 95 95 95 97 101 108 108 101 97 95 95 95 95 94 93 89 78 59 45 39 37 36 36 36 36 36 35 32 26 16 10 7 6 6 6 6 6 6 5 4 2 5 16 35 60 89 108 101 68 39 20 14 20 36 60 89 108 101 68 38 18 7 1 -1 -3 -3 -3 -3 -3 -3 -3 -3 -3 -3 -3 -3 -3 -3 -3 -3 -3 -3 -3 -1 7 39 98 
95 37 8 3 10 28 64 103 103 65 29 13 8 7 7 10 16 26 32 35 36 36 36 36 36 37 39 45 59 78 89 93 94 95 95 95 95 97 101 108 108 101 97 95 95 95 95 95 94 93 89 78 59 45 39 37 36 36 36 36 35 33 27 22 29 54 86 106 106 86 53 25 9 2 0 2 7 18 38 68 101 108 89 60 35 16 4 0 -2 -3 -3 -3 -3 -3 -3 -3 -3 -3 -3 -3 -3 -3 -3 -3 -3 -3 -1 6 37 95 
95 39 14 18 38 70 104 102 63 26 7 0 -1 -1 -1 0 0 3 5 6 6 6 6 6 6 6 7 10 16 26 32 35 36 36 36 36 37 39 45 59 78 89 93 94 95 95 95 95 95 97 101 108 108 101 97 95 95 95 95 94 93 90 82 72 81 105 109 89 60 35 16 4 0 -2 -3 -2 -1 2 9 25 53 86 106 106 86 53 25 9 2 -1 -2 -3 -3 -3 -3 -3 -3 -3 -3 -3 -3 -3 -3 -3 -3 -3 -1 6 36 95 
97 46 33 55 87 108 100 62 26 6 0 -2 -3 -3 -3 -3 -2 -2 -2 -1 -1 -1 -1 -1 -1 -1 -1 0 0 3 5 6 6 6 6 6 6 7 10 16 26 32 35 36 36 36 36 36 37 39 45 59 78 89 93 94 95 95 95 95 97 104 119 133 134 112 71 39 18 7 1 -1 -3 -3 -3 -3 -3 -2 0 4 16 35 60 89 108 101 68 38 18 7 1 -1 -3 -3 -3 -3 -3 -3 -3 -3 -3 -3 -3 -3 -3 -3 -1 6 36 95 
103 65 71 101 108 87 53 23 6 0 -3 -3 -3 -3 -3 -3 -3 -3 -3 -3 -3 -3 -3 -3 -3 -3 -3 -3 -2 -2 -2 -1 -1 -1 -1 -1 -1 -1 0 0 3 5 6 6 6 6 6 6 6 7 10 16 26 32 35 36 36 36 36 37 40 52 86 135 134 76 31 11 2 -1 -2 -3 -3 -3 -3 -3 -3 -3 -3 -1 1 7 18 38 68 101 108 89 60 35 16 4 0 -2 -3 -3 -3 -3 -3 -3 -3 -3 -3 -3 -3 -3 -1 6 36 96 
118 100 110 105 70 38 16 4 -1 -3 -3 -3 -3 -3 -3 -3 -3 -3 -3 -3 -3 -3 -3 -3 -3 -3 -3 -3 -3 -3 -3 -3 -3 -3 -3 -3 -3 -3 -3 -2 -2 -2 -1 -1 -1 -1 -1 -1 -1 -1 0 0 3 5 6 6 6 6 6 7 9 19 52 111 110 49 13 1 -2 -3 -3 -3 -3 -3 -3 -3 -3 -3 -3 -3 -2 -1 2 9 25 53 86 106 106 86 53 25 9 2 -1 -2 -3 -3 -3 -3 -3 -3 -3 -3 -3 -3 -1 6 36 97 
140 130 107 64 28 10 1 -1 -3 -3 -3 -3 -3 -3 -3 -3 -3 -3 -3 -3 -3 -3 -3 -3 -3 -3 -3 -3 -3 -3 -3 -3 -3 -3 -3 -3 -3 -3 -3 -3 -3 -3 -3 -3 -3 -3 -3 -3 -3 -3 -3 -2 -2 -2 -1 -1 -1 -1 -1 -1 0 9 40 99 99 39 8 -1 -3 -3 -3 -3 -3 -3 -3 -3 -3 -3 -3 -3 -3 -3 -2 0 4 16 35 60 89 108 101 68 38 18 7 1 -1 -2 -3 -3 -3 -3 -3 -3 -3 -3 -1 6 36 101 
148 116 65 27 7 0 -2 -3 -3 -3 -3 -3 -3 -3 -3 -3 -3 -3 -3 -3 -3 -3 -3 -3 -3 -3 -3 -3 -3 -3 -3 -3 -3 -3 -3 -3 -3 -3 -3 -3 -3 -3 -3 -3 -3 -3 -3 -3 -3 -3 -3 -3 -3 -3 -3 -3 -3 -3 -3 -3 -1 7 37 96 96 37 6 -1 -3 -3 -3 -3 -3 -3 -3 -3 -3 -3 -3 -3 -3 -3 -3 -3 -1 1 7 18 38 68 101 108 89 60 35 18 7 1 -1 -3 -3 -3 -3 -3 -3 -3 -1 6 36 103 
128 76 29 7 0 -2 -3 -3 -3 -3 -3 -3 -3 -3 -3 -3 -3 -3 -3 -3 -3 -3 -3 -3 -3 -3 -3 -3 -3 -3 -3 -3 -3 -3 -3 -3 -3 -3 -3 -3 -3 -3 -3 -3 -3 -3 -3 -3 -3 -3 -3 -3 -3 -3 -3 -3 -3 -3 -3 -3 -1 6 36 95 95 36 6 -1 -3 -3 -3 -3 -3 -3 -3 -3 -3 -3 -3 -3 -3 -3 -3 -3 -3 -2 -1 2 9 25 53 85 106 107 87 59 34 16 4 0 -2 -3 -3 -3 -3 -3 -1 6 36 101 
107 49 13 0 -2 -3 -3 -3 -3 -3 -3 -3 -3 -3 -3 -3 -3 -3 -3 -3 -3 -3 -3 -3 -3 -3 -3 -3 -3 -3 -3 -3 -3 -3 -3 -3 -3 -3 -3 -3 -3 -3 -3 -3 -3 -3 -3 -3 -3 -3 -3 -3 -3 -3 -3 -3 -3 -3 -3 -3 -1 6 36 95 95 36 6 -1 -3 -3 -3 -3 -3 -3 -3 -3 -3 -3 -3 -3 -3 -3 -3 -3 -3 -3 -3 -2 0 4 16 34 59 87 107 106 86 53 25 9 2 0 -1 -2 -2 -3 -1 6 36 97 
98 39 8 -1 -3 -3 -3 -3 -3 -3 -3 -3 -3 -3 -3 -3 -3 -3 -3 -3 -3 -3 -3 -3 -3 -3 -3 -3 -3 -3 -3 -3 -3 -3 -3 -3 -3 -3 -3 -3 -3 -3 -3 -3 -3 -3 -3 -3 -3 -3 -3 -3 -3 -3 -3 -3 -3 -3 -3 -3 -1 6 36 95 95 36 6 -1 -3 -3 -3 -3 -3 -3 -3 -3 -3 -3 -3 -3 -3 -3 -3 -3 -3 -3 -3 -3 -3 -1 1 7 18 36 60 89 109 102 69 38 19 10 6 3 1 0 0 8 37 96 
96 37 6 -1 -3 -3 -3 -3 -3 -3 -3 -3 -3 -3 -3 -3 -3 -3 -3 -3 -3 -3 -3 -3 -3 -3 -3 -3 -3 -3 -3 -3 -3 -3 -3 -3 -3 -3 -3 -3 -3 -3 -3 -3 -3 -3 -3 -3 -3 -3 -3 -3 -3 -3 -3 -3 -3 -3 -3 -3 -1 6 36 95 95 36 6 -1 -3 -3 -3 -3 -3 -3 -3 -3 -3 -3 -3 -3 -3 -3 -3 -3 -3 -3 -3 -3 -3 -3 -2 -1 2 8 20 41 73 109 117 94 64 45 35 26 16 10 8 14 41 97 
96 37 6 -1 -3 -3 -3 -3 -3 -3 -3 -3 -3 -3 -3 -3 -3 -3 -3 -3 -3 -3 -3 -3 -3 -3 -3 -3 -3 -3 -3 -3 -3 -3 -3 -3 -3 -3 -3 -3 -3 -3 -3 -3 -3 -3 -3 -3 -3 -3 -3 -3 -3 -3 -3 -3 -3 -3 -3 -3 -1 6 36 95 95 36 6 -1 -3 -3 -3 -3 -3 -3 -3 -3 -3 -3 -3 -3 -3 -3 -3 -3 -3 -3 -3 -3 -3 -3 -3 -2 0 3 10 23 48 90 132 145 126 105 92 79 59 44 37 36 55 103 
100 38 8 0 -1 -1 -1 -2 -2 -2 -3 -3 -3 -3 -3 -3 -3 -3 -3 -3 -3 -3 -3 -3 -3 -3 -3 -3 -3 -3 -3 -3 -3 -3 -3 -3 -3 -3 -3 -3 -3 -3 -3 -3 -3 -3 -3 -3 -3 -3 -3 -3 -3 -3 -3 -3 -3 -3 -3 -3 -1 6 36 95 95 36 6 -1 -3 -3 -3 -3 -3 -3 -3 -3 -3 -3 -3 -3 -3 -3 -3 -3 -3 -3 -3 -3 -2 -2 0 1 7 16 29 45 70 104 130 129 112 102 102 108 108 100 93 87 93 122 
109 45 16 8 6 6 6 5 3 0 0 -1 -1 -1 -1 -2 -2 -2 -3 -3 -3 -3 -3 -3 -3 -3 -3 -3 -3 -3 -3 -3 -3 -3 -3 -3 -3 -3 -3 -3 -3 -3 -3 -3 -3 -3 -3 -3 -3 -3 -3 -3 -3 -3 -3 -3 -3 -3 -3 -3 -1 6 36 95 95 36 6 -1 -3 -3 -3 -3 -3 -3 -3 -3 -3 -3 -3 -3 -3 -3 -3 -3 -3 -3 -2 -1 0 4 9 18 35 57 80 97 109 108 90 64 46 41 45 60 79 92 101 114 131 148 
125 72 45 38 37 36 35 32 26 16 10 7 6 6 6 5 3 0 0 -1 -1 -1 -1 -1 -2 -2 -2 -3 -3 -3 -3 -3 -3 -3 -3 -3 -3 -3 -3 -3 -3 -3 -3 -3 -3 -3 -3 -3 -3 -3 -3 -3 -3 -3 -3 -3 -3 -3 -3 -3 -1 6 36 95 95 36 6 -1 -3 -3 -3 -3 -3 -3 -3 -3 -3 -3 -3 -3 -3 -3 -3 -2 -2 0 1 7 16 28 42 62 88 106 108 97 80 57 35 18 10 8 10 16 26 35 45 66 104 144 
148 120 102 96 95 94 93 89 78 59 45 39 37 36 35 32 26 16 10 7 6 6 6 6 5 3 0 0 -1 -1 -1 -1 -2 -2 -2 -3 -3 -3 -3 -3 -3 -3 -3 -3 -3 -3 -3 -3 -3 -3 -3 -3 -3 -3 -3 -3 -3 -3 -3 -3 -1 6 36 95 95 36 6 -1 -3 -3 -3 -3 -3 -3 -3 -3 -3 -3 -3 -3 -3 -2 -1 0 4 9 18 35 57 80 97 108 106 88 62 42 28 16 7 1 0 -1 0 0 3 6 11 26 62 122 
144 120 102 96 95 95 97 101 108 108 101 97 95 94 93 89 78 59 45 39 37 36 36 35 32 26 16 10 7 6 6 6 5 3 0 0 -1 -1 -1 -1 -1 -2 -2 -2 -3 -3 -3 -3 -3 -3 -3 -3 -3 -3 -3 -3 -3 -3 -3 -3 -1 6 36 95 95 36 6 -1 -3 -3 -3 -3 -3 -3 -3 -3 -3 -3 -3 -2 -1 1 7 16 28 42 62 88 106 108 97 80 57 35 18 9 4 0 -1 -2 -3 -3 -3 -2 -2 -1 1 11 43 108 
116 72 46 38 37 37 39 45 59 78 89 93 94 95 97 101 108 108 101 97 95 95 94 93 89 78 59 45 39 37 36 35 32 26 16 10 7 6 6 6 6 5 3 0 0 -1 -1 -1 -1 -2 -2 -2 -3 -3 -3 -3 -3 -3 -3 -3 -1 6 36 95 95 36 6 -1 -3 -3 -3 -3 -3 -3 -3 -3 -2 -2 0 1 7 18 35 57 80 97 108 106 88 62 42 28 16 7 1 0 -2 -2 -3 -3 -3 -3 -3 -3 -3 -3 -1 7 37 99 
101 46 16 8 6 6 7 10 16 26 32 35 36 37 39 45 59 78 89 93 94 95 95 97 101 108 108 101 97 95 94 93 89 78 59 45 39 37 36 36 35 32 26 16 10 7 6 6 6 5 3 0 0 -1 -1 -1 -1 -1 -1 -2 0 7 37 95 95 36 6 -1 -3 -3 -3 -3 -3 -3 -2 -1 0 4 9 19 36 59 87 106 108 97 80 57 35 18 9 4 0 -1 -2 -3 -3 -3 -3 -3 -3 -3 -3 -3 -3 -3 -1 6 36 96 
96 38 8 0 -1 -1 -1 0 0 3 5 6 6 6 7 10 16 26 32 35 36 36 37 39 45 59 78 89 93 94 95 97 101 108 108 101 97 95 95 94 93 89 78 59 45 39 37 36 35 32 26 16 10 7 6 6 6 6 5 3 3 9 38 96 96 37 6 -1 -3 -3 -3 -2 -2 0 1 7 16 28 42 62 88 107 107 88 62 42 28 16 7 1 0 -2 -2 -3 -3 -3 -3 -3 -3 -3 -3 -3 -3 -3 -3 -3 -1 6 36 95 
95 37 6 -1 -3 -3 -3 -3 -2 -2 -2 -1 -1 -1 -1 0 0 3 5 6 6 6 6 7 10 16 26 32 35 36 37 39 45 59 78 89 93 94 95 95 97 101 108 108 101 97 95 94 93 89 78 59 45 39 37 36 36 35 33 26 18 20 47 101 99 39 8 -1 -2 -2 -1 0 4 9 18 35 57 80 97 108 106 87 59 36 19 9 4 0 -1 -2 -3 -3 -3 -3 -3 -3 -3 -3 -3 -3 -3 -3 -3 -3 -3 -3 -1 6 36 95 
95 36 6 -1 -3 -3 -3 -3 -3 -3 -3 -3 -3 -3 -3 -3 -2 -2 -2 -1 -1 -1 -1 -1 0 0 3 5 6 6 6 7 10 16 26 32 35 36 36 37 39 45 59 78 89 93 94 95 97 101 108 108 101 97 95 95 94 93 89 79 61 54 74 119 111 50 13 2 0 2 7 16 28 42 62 88 106 108 97 80 57 35 18 7 1 0 -2 -2 -3 -3 -3 -3 -3 -3 -3 -3 -3 -3 -3 -3 -3 -3 -3 -3 -3 -3 -1 6 36 95 
95 36 6 -1 -3 -3 -3 -3 -3 -3 -3 -3 -3 -3 -3 -3 -3 -3 -3 -3 -3 -3 -3 -3 -3 -2 -2 -2 -1 -1 -1 -1 0 0 3 5 6 6 6 6 7 10 16 26 32 35 36 37 39 45 59 78 89 93 94 95 95 97 101 108 109 107 118 144 134 77 33 14 12 19 35 57 80 97 108 106 88 62 42 28 16 7 1 -1 -2 -3 -3 -3 -3 -3 -3 -3 -3 -3 -3 -3 -3 -3 -3 -3 -3 -3 -3 -3 -3 -3 -1 6 36 95 
95 36 6 -1 -3 -3 -3 -3 -3 -3 -3 -3 -3 -3 -3 -3 -3 -3 -3 -3 -3 -3 -3 -3 -3 -3 -3 -3 -3 -3 -3 -3 -3 -2 -2 -2 -1 -1 -1 -1 -1 0 0 3 5 6 6 6 7 10 16 26 32 35 36 36 37 39 45 59 78 91 100 115 127 113 76 52 49 63 88 106 108 97 80 57 35 18 9 4 0 -1 -2 -3 -3 -3 -3 -3 -3 -3 -3 -3 -3 -3 -3 -3 -3 -3 -3 -3 -3 -3 -3 -3 -3 -3 -1 6 36 95 
95 36 6 -1 -3 -3 -3 -3 -3 -3 -3 -3 -3 -3 -3 -3 -3 -3 -3 -3 -3 -3 -3 -3 -3 -3 -3 -3 -3 -3 -3 -3 -3 -3 -3 -3 -3 -3 -3 -3 -3 -3 -2 -2 -2 -1 -1 -1 -1 0 0 3 5 6 6 6 6 7 10 16 26 33 38 49 76 113 128 117 109 111 106 88 62 42 28 16 7 1 0 -2 -2 -3 -3 -3 -3 -3 -3 -3 -3 -3 -3 -3 -3 -3 -3 -3 -3 -3 -3 -3 -3 -3 -3 -3 -3 -3 -1 6 36 95 
95 36 6 -1 -3 -3 -3 -3 -3 -3 -3 -3 -3 -3 -3 -3 -3 -3 -3 -3 -3 -3 -3 -3 -3 -3 -3 -3 -3 -3 -3 -3 -3 -3 -3 -3 -3 -3 -3 -3 -3 -3 -3 -3 -3 -3 -3 -3 -3 -3 -2 -2 -1 -1 -1 -1 -1 -1 0 0 3 5 7 13 32 77 134 144 112 84 58 35 18 9 4 0 -1 -2 -3 -3 -3 -3 -3 -3 -3 -3 -3 -3 -3 -3 -3 -3 -3 -3 -3 -3 -3 -3 -3 -3 -3 -3 -3 -3 -3 -3 -1 6 36 95 
95 37 6 -1 -3 -3 -3 -3 -3 -3 -3 -3 -3 -3 -3 -3 -3 -3 -3 -3 -3 -3 -3 -3 -3 -3 -3 -3 -3 -3 -3 -3 -3 -3 -3 -3 -3 -3 -3 -3 -3 -3 -3 -3 -3 -3 -3 -3 -3 -3 -3 -3 -3 -3 -3 -3 -3 -3 -3 -2 -2 -1 0 2 14 50 112 118 68 35 17 7 2 0 -1 -2 -3 -3 -3 -3 -3 -3 -3 -3 -3 -3 -3 -3 -3 -3 -3 -3 -3 -3 -3 -3 -3 -3 -3 -3 -3 -3 -3 -3 -3 -3 -1 6 37 95 
96 38 8 0 -1 -1 -1 -1 -1 -1 -1 -1 -1 -1 -1 -1 -1 -1 -1 -1 -1 -1 -1 -1 -1 -1 -1 -1 -1 -1 -1 -1 -1 -1 -1 -1 -1 -1 -1 -1 -1 -1 -1 -1 -1 -1 -1 -1 -1 -1 -1 -1 -1 -1 -1 -1 -1 -1 -1 -1 -1 -1 -1 0 10 41 100 102 46 15 4 0 0 -1 -1 -1 -1 -1 -1 -1 -1 -1 -1 -1 -1 -1 -1 -1 -1 -1 -1 -1 -1 -1 -1 -1 -1 -1 -1 -1 -1 -1 -1 -1 -1 -1 0 8 38 96 
102 46 16 8 6 6 6 6 6 6 6 6 6 6 6 6 6 6 6 6 6 6 6 6 6 6 6 6 6 6 6 6 6 6 6 6 6 6 6 6 6 6 6 6 6 6 6 6 6 6 6 6 6 6 6 6 6 6 6 6 6 6 7 8 17 46 103 103 47 18 9 7 6 6 6 6 6 6 6 6 6 6 6 6 6 6 6 6 6 6 6 6 6 6 6 6 6 6 6 6 6 6 6 6 6 6 8 16 46 102 
120 72 46 38 37 36 36 36 36 36 36 36 36 36 36 36 36 36 36 36 36 36 36 36 36 36 36 36 36 36 36 36 36 36 36 36 36 36 36 36 36 36 36 36 36 36 36 36 36 36 36 36 36 36 36 36 36 36 36 36 36 36 37 38 46 72 120 120 72 46 38 37 36 36 36 36 36 36 36 36 36 36 36 36 36 36 36 36 36 36 36 36 36 36 36 36 36 36 36 36 36 36 36 36 36 36 38 46 72 120 
155 120 102 96 95 95 95 95 95 95 95 95 95 95 95 95 95 95 95 95 95 95 95 95 95 95 95 95 95 95 95 97 101 103 101 97 95 95 95 95 95 95 95 95 95 95 95 96 98 102 102 98 96 95 95 95 95 95 95 95 95 95 95 96 100 116 143 143 116 101 96 95 95 95 95 95 95 95 95 95 95 95 95 95 95 95 95 95 95 95 97 100 103 101 97 95 95 95 95 95 95 95 97 100 103 101 99 102 121 155 
