P2
110 110
255
105 61 56 56 56 56 56 56 56 56 56 56 56 56 56 56 56 56 56 56 56 56 56 56 56 56 56 56 56 56 56 57 73 131 97 60 56 56 56 56 56 56 56 56 56 56 56 56 60 104 104 60 56 56 56 56 56 56 56 56 56 56 56 56 56 56 57 57 56 56 56 56 56 56 56 56 56 56 56 56 56 56 56 56 56 56 56 56 56 56 57 69 131 97 60 56 56 56 56 56 56 56 57 69 131 97 60 56 61 105 
61 4 -1 -2 -2 -2 -2 -2 -2 -2 -2 -2 -2 -2 -2 -2 -2 -2 -2 -2 -2 -2 -2 -2 -2 -2 -2 -2 -2 -1 0 13 88 85 12 0 -1 -2 -2 -2 -2 -2 -2 -2 -2 -2 -2 -1 4 61 61 4 -1 -2 -2 -2 -2 -2 -2 -2 -2 -2 -2 -2 -2 -2 -2 -2 -2 -2 -2 -2 -2 -2 -2 -2 -2 -2 -2 -2 -2 -2 -2 -2 -2 -2 -2 -2 -2 -1 4 57 90 12 0 -1 -2 -2 -2 -2 -2 -1 3 54 91 12 0 -1 4 61 
56 -1 -7 -8 -8 -8 -8 -8 -8 -8 -8 -8 -8 -8 -8 -8 -8 -8 -8 -8 -8 -8 -8 -8 -8 -8 -8 -8 -8 -7 -1 52 89 11 -6 -8 -8 -8 -8 -8 -8 -8 -8 -8 -8 -8 -8 -7 0 60 56 -1 -7 -8 -8 -8 -8 -8 -8 -8 -8 -8 -8 -8 -8 -8 -8 -8 -8 -8 -8 -8 -8 -8 -8 -8 -8 -8 -8 -8 -8 -8 -8 -8 -8 -8 -8 -8 -8 -6 7 88 52 -1 -7 -8 -8 -8 -8 -8 -8 -7 -1 55 59 0 -7 -7 -1 56 
56 -2 -8 -8 -8 -8 -8 -8 -8 -8 -8 -8 -8 -8 -8 -8 -8 -8 -8 -8 -8 -8 -8 -8 -8 -8 -8 -8 -8 -6 11 89 52 -1 -8 -8 -8 -8 -8 -8 -8 -8 -8 -8 -8 -8 -8 -7 7 97 57 -2 -8 -8 -8 -8 -8 -8 -8 -8 -8 -8 -8 -8 -8 -8 -8 -8 -8 -8 -8 -8 -8 -8 -8 -8 -8 -8 -8 -8 -8 -8 -8 -8 -8 -8 -8 -8 -8 -2 48 89 7 -7 -8 -8 -8 -8 -8 -8 -8 -8 -1 59 55 -2 -8 -8 -2 56 
56 -2 -8 -8 -8 -8 -8 -8 -8 -8 -8 -8 -8 -8 -8 -8 -8 -8 -8 -8 -8 -8 -8 -8 -8 -8 -8 -8 -7 6 83 83 6 -7 -8 -8 -8 -8 -8 -8 -8 -8 -8 -8 -8 -8 -8 -2 52 135 57 -2 -8 -8 -8 -8 -8 -8 -8 -8 -8 -8 -8 -8 -8 -8 -8 -8 -8 -8 -8 -8 -8 -8 -8 -8 -8 -8 -8 -8 -8 -8 -8 -8 -8 -8 -8 -8 -8 -1 58 58 -1 -8 -8 -8 -8 -8 -8 -8 -8 -7 7 89 48 -2 -8 -8 -2 56 
56 -2 -8 -8 -8 -8 -8 -8 -8 -8 -8 -8 -8 -8 -8 -8 -8 -8 -8 -8 -8 -8 -8 -8 -8 -8 -8 -8 -1 52 89 11 -6 -8 -8 -8 -8 -8 -8 -8 -8 -8 -8 -8 -8 -8 -7 7 90 107 56 -2 -8 -8 -8 -8 -8 -8 -8 -8 -8 -8 -8 -8 -8 -8 -8 -8 -8 -8 -8 -8 -8 -8 -8 -8 -8 -8 -8 -8 -8 -8 -8 -8 -8 -8 -8 -8 -7 7 89 48 -2 -8 -8 -8 -8 -8 -8 -8 -8 -2 48 89 7 -7 -8 -8 -2 56 
56 -2 -8 -8 -8 -8 -8 -8 -8 -8 -8 -8 -8 -8 -8 -8 -8 -8 -8 -8 -8 -8 -8 -8 -8 -8 -8 -6 11 89 52 -1 -8 -8 -8 -8 -8 -8 -8 -8 -8 -8 -8 -8 -8 -8 -2 52 93 70 56 -1 -8 -8 -8 -8 -8 -8 -8 -8 -8 -8 -8 -8 -8 -8 -8 -8 -8 -8 -8 -8 -8 -8 -8 -8 -8 -8 -8 -8 -8 -8 -8 -8 -8 -8 -8 -8 -2 52 88 7 -7 -8 -8 -8 -8 -8 -8 -8 -8 -2 55 59 -1 -8 -8 -8 -2 56 
56 -2 -8 -8 -8 -8 -8 -8 -8 -8 -8 -8 -8 -8 -8 -8 -8 -8 -8 -8 -8 -8 -8 -8 -8 -8 -7 6 83 83 6 -7 -8 -8 -8 -8 -8 -8 -8 -8 -8 -8 -8 -8 -8 -7 7 88 57 61 59 -1 -8 -8 -8 -8 -8 -8 -8 -8 -8 -8 -8 -8 -8 -8 -8 -8 -8 -8 -8 -8 -8 -8 -8 -8 -8 -8 -8 -8 -8 -8 -8 -8 -8 -8 -8 -7 7 88 52 -2 -8 -8 -8 -8 -8 -8 -8 -8 -8 -1 59 55 -2 -8 -8 -8 -2 56 
56 -2 -8 -8 -8 -8 -8 -8 -8 -8 -8 -8 -8 -8 -8 -8 -8 -8 -8 -8 -8 -8 -8 -8 -8 -8 -1 52 89 11 -6 -8 -8 -8 -8 -8 -8 -8 -8 -8 -8 -8 -8 -8 -8 -1 52 88 13 49 89 7 -7 -8 -8 -8 -8 -8 -8 -8 -8 -8 -8 -8 -8 -8 -8 -8 -8 -8 -8 -8 -8 -8 -8 -8 -8 -8 -8 -8 -8 -8 -8 -8 -8 -8 -8 -2 48 89 7 -7 -8 -8 -8 -8 -8 -8 -8 -8 -7 7 89 48 -2 -8 -8 -8 -2 56 
56 -2 -8 -8 -8 -8 -8 -8 -8 -8 -8 -8 -8 -8 -8 -8 -8 -8 -8 -8 -8 -8 -8 -8 -8 -6 11 89 52 -1 -8 -8 -8 -8 -8 -8 -8 -8 -8 -8 -8 -8 -8 -8 -6 11 89 52 0 7 89 48 -2 -8 -8 -8 -8 -8 -8 -8 -8 -8 -8 -8 -8 -8 -8 -8 -8 -8 -8 -8 -8 -8 -8 -8 -8 -8 -8 -8 -8 -8 -8 -8 -8 -8 -8 -1 58 58 -1 -8 -8 -8 -8 -8 -8 -8 -8 -8 -2 48 89 7 -7 -8 -8 -8 -2 56 
56 -2 -8 -8 -8 -8 -8 -8 -8 -8 -8 -8 -8 -8 -8 -8 -8 -8 -8 -8 -8 -8 -8 -8 -7 6 83 83 6 -7 -8 -8 -8 -8 -8 -8 -8 -8 -8 -8 -8 -8 -8 -7 6 83 83 6 -6 -1 59 55 -2 -8 -8 -8 -8 -8 -8 -8 -8 -8 -8 -8 -8 -8 -8 -8 -8 -8 -8 -8 -8 -8 -8 -8 -8 -8 -8 -8 -8 -8 -8 -8 -8 -8 -7 7 89 48 -2 -8 -8 -8 -8 -8 -8 -8 -8 -8 -2 55 59 -1 -8 -8 -8 -8 -2 56 
56 -2 -8 -8 -8 -8 -8 -8 -8 -8 -8 -8 -8 -8 -8 -8 -8 -8 -8 -8 -8 -8 -8 -8 -1 52 89 11 -6 -8 -8 -8 -8 -8 -8 -8 -8 -8 -8 -8 -8 -8 -8 -2 52 89 11 -6 -8 -1 56 55 -2 -8 -8 -8 -8 -8 -8 -8 -8 -8 -8 -8 -8 -8 -8 -8 -8 -8 -8 -8 -8 -8 -8 -8 -8 -8 -8 -8 -8 -8 -8 -8 -8 -8 -2 52 88 7 -7 -8 -8 -8 -8 -8 -8 -8 -8 -8 -1 59 55 -2 -8 -8 -8 -8 -2 56 
56 -1 -8 -8 -8 -8 -8 -8 -8 -8 -8 -8 -8 -8 -8 -8 -8 -8 -8 -8 -8 -8 -8 -6 11 89 52 -1 -8 -8 -8 -8 -8 -8 -8 -8 -8 -8 -8 -8 -8 -8 -7 7 88 52 -1 -8 -8 -2 56 56 -2 -8 -8 -8 -8 -8 -8 -8 -8 -8 -8 -8 -8 -8 -8 -8 -8 -8 -8 -8 -8 -8 -8 -8 -8 -8 -8 -8 -8 -8 -8 -8 -8 -7 7 88 52 -2 -8 -8 -8 -8 -8 -8 -8 -8 -8 -7 7 89 48 -2 -8 -8 -8 -8 -2 56 
60 0 -8 -8 -8 -8 -8 -8 -8 -8 -8 -8 -8 -8 -8 -8 -8 -8 -8 -8 -8 -8 -7 6 83 83 6 -7 -8 -8 -8 -8 -8 -8 -8 -8 -8 -8 -8 -8 -8 -8 -2 52 88 7 -7 -8 -8 -2 55 56 -1 -8 -8 -8 -8 -8 -8 -8 -8 -8 -8 -8 -8 -8 -8 -8 -8 -8 -8 -8 -8 -8 -8 -8 -8 -8 -8 -8 -8 -8 -8 -8 -8 -2 48 89 7 -7 -8 -8 -8 -8 -8 -8 -8 -8 -8 -2 48 89 7 -7 -8 -8 -8 -8 -2 56 
97 12 -6 -8 -8 -8 -8 -8 -8 -8 -8 -8 -8 -8 -8 -8 -8 -8 -8 -8 -8 -8 -1 52 89 11 -6 -8 -8 -8 -8 -8 -8 -8 -8 -8 -8 -8 -8 -8 -8 -7 7 88 52 -2 -8 -8 -8 -2 55 59 -1 -8 -8 -8 -8 -8 -8 -8 -8 -8 -8 -8 -8 -8 -8 -8 -8 -8 -8 -8 -8 -8 -8 -8 -8 -8 -8 -8 -8 -8 -8 -8 -8 -1 58 58 -1 -8 -8 -8 -8 -8 -8 -8 -8 -8 -8 -2 55 59 -1 -8 -8 -8 -8 -8 -2 57 
131 85 11 -6 -8 -8 -8 -8 -8 -8 -8 -8 -8 -8 -8 -8 -8 -8 -8 -8 -8 -6 11 89 52 -1 -8 -8 -8 -8 -8 -8 -8 -8 -8 -8 -8 -8 -8 -8 -8 -1 52 88 7 -7 -8 -8 -8 -2 48 89 7 -7 -8 -8 -8 -8 -8 -8 -8 -8 -8 -8 -8 -8 -8 -8 -8 -8 -8 -8 -8 -8 -8 -8 -8 -8 -8 -8 -8 -8 -8 -8 -7 7 89 48 -2 -8 -8 -8 -8 -8 -8 -8 -8 -8 -8 -1 59 55 -2 -8 -8 -8 -8 -8 -2 57 
73 89 84 11 -6 -8 -8 -8 -8 -8 -8 -8 -8 -8 -8 -8 -8 -8 -8 -8 -7 6 83 83 6 -7 -8 -8 -8 -8 -8 -8 -8 -8 -8 -8 -8 -8 -8 -8 -6 11 89 52 -2 -8 -8 -8 -8 -7 7 89 48 -2 -8 -8 -8 -8 -8 -8 -8 -8 -8 -8 -8 -8 -8 -8 -8 -8 -8 -8 -8 -8 -8 -8 -8 -8 -8 -8 -8 -8 -8 -8 -2 52 88 7 -7 -8 -8 -8 -8 -8 -8 -8 -8 -8 -7 7 89 48 -2 -8 -8 -8 -8 -8 -2 56 
57 17 84 83 6 -7 -8 -8 -8 -8 -8 -8 -8 -8 -8 -8 -8 -8 -8 -8 -1 52 89 11 -6 -8 -8 -8 -8 -8 -8 -8 -8 -8 -8 -8 -8 -8 -8 -7 6 83 83 6 -7 -8 -8 -8 -8 -8 -1 59 55 -2 -8 -8 -8 -8 -8 -8 -8 -8 -8 -8 -8 -8 -8 -8 -8 -8 -8 -8 -8 -8 -8 -8 -8 -8 -8 -8 -8 -8 -8 -7 7 88 52 -2 -8 -8 -8 -8 -8 -8 -8 -8 -8 -8 -2 48 89 7 -7 -8 -8 -8 -8 -8 -2 56 
56 0 12 89 52 -1 -8 -8 -8 -8 -8 -8 -8 -8 -8 -8 -8 -8 -8 -6 11 89 52 -1 -8 -8 -8 -8 -8 -8 -8 -8 -8 -8 -8 -8 -8 -8 -8 -2 52 89 11 -6 -8 -8 -8 -8 -8 -8 -1 56 55 -2 -8 -8 -8 -8 -8 -8 -8 -8 -8 -8 -8 -8 -8 -8 -8 -8 -8 -8 -8 -8 -8 -8 -8 -8 -8 -8 -8 -8 -8 -2 48 89 7 -7 -8 -8 -8 -8 -8 -8 -8 -8 -8 -8 -2 55 59 -1 -8 -8 -8 -8 -8 -8 -2 56 
56 -1 -1 52 89 11 -6 -8 -8 -8 -8 -8 -8 -8 -8 -8 -8 -8 -7 6 83 83 6 -7 -8 -8 -8 -8 -8 -8 -8 -8 -8 -8 -8 -8 -8 -8 -7 7 88 52 -1 -8 -8 -8 -8 -8 -8 -8 -2 56 56 -2 -8 -8 -8 -8 -8 -8 -8 -8 -8 -8 -8 -8 -8 -8 -8 -8 -8 -8 -8 -8 -8 -8 -8 -8 -8 -8 -8 -8 -8 -1 58 58 -1 -8 -8 -8 -8 -8 -8 -8 -8 -8 -8 -8 -1 59 55 -2 -8 -8 -8 -8 -8 -8 -2 56 
56 -1 -6 6 83 84 11 -6 -8 -8 -8 -8 -8 -8 -8 -8 -8 -8 -1 52 89 11 -6 -8 -8 -8 -8 -8 -8 -8 -8 -8 -8 -8 -8 -8 -8 -8 -2 52 88 7 -7 -8 -8 -8 -8 -8 -8 -8 -2 55 56 -1 -8 -8 -8 -8 -8 -8 -8 -8 -8 -8 -8 -8 -8 -8 -8 -8 -8 -8 -8 -8 -8 -8 -8 -8 -8 -8 -8 -8 -7 7 89 48 -2 -8 -8 -8 -8 -8 -8 -8 -8 -8 -8 -7 7 89 48 -2 -8 -8 -8 -8 -8 -8 -2 56 
56 -2 -8 -6 11 84 84 11 -6 -8 -8 -8 -8 -8 -8 -8 -8 -6 11 89 52 -1 -8 -8 -8 -8 -8 -8 -8 -8 -8 -8 -8 -8 -8 -8 -8 -7 7 88 52 -2 -8 -8 -8 -8 -8 -8 -8 -8 -2 55 59 -1 -8 -8 -8 -8 -8 -8 -8 -8 -8 -8 -8 -8 -8 -8 -8 -8 -8 -8 -8 -8 -8 -8 -8 -8 -8 -8 -8 -8 -2 52 88 7 -7 -8 -8 -8 -8 -8 -8 -8 -8 -8 -8 -2 48 89 7 -7 -8 -8 -8 -8 -8 -8 -2 56 
56 -2 -8 -8 -6 11 84 84 11 -6 -8 -8 -8 -8 -8 -8 -7 6 83 83 6 -7 -8 -8 -8 -8 -8 -8 -8 -8 -8 -8 -8 -8 -8 -8 -8 -1 52 88 7 -7 -8 -8 -8 -8 -8 -8 -8 -8 -2 48 89 7 -7 -8 -8 -8 -8 -8 -8 -8 -8 -8 -8 -8 -8 -8 -8 -8 -8 -8 -8 -8 -8 -8 -8 -8 -8 -8 -8 -7 7 88 52 -2 -8 -8 -8 -8 -8 -8 -8 -8 -8 -8 -8 -2 55 59 -1 -8 -8 -8 -8 -8 -8 -8 -2 56 
56 -2 -8 -8 -8 -6 11 84 84 11 -6 -8 -8 -8 -8 -8 -1 52 89 11 -6 -8 -8 -8 -8 -8 -8 -8 -8 -8 -8 -8 -8 -8 -8 -8 -6 11 89 52 -2 -8 -8 -8 -8 -8 -8 -8 -8 -8 -7 7 89 48 -2 -8 -8 -8 -8 -8 -8 -8 -8 -8 -8 -8 -8 -8 -8 -8 -8 -8 -8 -8 -8 -8 -8 -8 -8 -8 -8 -2 48 89 7 -7 -8 -8 -8 -8 -8 -8 -8 -8 -8 -8 -8 -1 59 55 -2 -8 -8 -8 -8 -8 -8 -8 -2 56 
56 -2 -8 -8 -8 -8 -6 11 84 84 11 -6 -8 -8 -8 -6 11 89 52 -1 -8 -8 -8 -8 -8 -8 -8 -8 -8 -8 -8 -8 -8 -8 -8 -7 6 83 83 6 -7 -8 -8 -8 -8 -8 -8 -8 -8 -8 -8 -1 59 55 -2 -8 -8 -8 -8 -8 -8 -8 -8 -8 -8 -8 -8 -8 -8 -8 -8 -8 -8 -8 -8 -8 -8 -8 -8 -8 -8 -1 58 58 -1 -8 -8 -8 -8 -8 -8 -8 -8 -8 -8 -8 -7 7 89 48 -2 -8 -8 -8 -8 -8 -8 -8 -2 56 
56 -2 -8 -8 -8 -8 -8 -6 11 84 84 11 -6 -8 -7 6 83 83 6 -7 -8 -8 -8 -8 -8 -8 -8 -8 -8 -8 -8 -8 -8 -8 -8 -2 52 89 11 -6 -8 -8 -8 -8 -8 -8 -8 -8 -8 -8 -8 -1 56 55 -2 -8 -8 -8 -8 -8 -8 -8 -8 -8 -8 -8 -8 -8 -8 -8 -8 -8 -8 -8 -8 -8 -8 -8 -8 -8 -7 7 89 48 -2 -8 -8 -8 -8 -8 -8 -8 -8 -8 -8 -8 -2 48 89 7 -7 -8 -8 -8 -8 -8 -8 -8 -2 56 
56 -2 -8 -8 -8 -8 -8 -8 -6 11 84 84 11 -5 -1 52 89 11 -6 -8 -8 -8 -8 -8 -8 -8 -8 -8 -8 -8 -8 -8 -8 -8 -7 7 88 52 -1 -8 -8 -8 -8 -8 -8 -8 -8 -8 -8 -8 -8 -2 55 56 -1 -8 -8 -8 -8 -8 -8 -8 -8 -8 -8 -8 -8 -8 -8 -8 -8 -8 -8 -8 -8 -8 -8 -8 -8 -8 -2 52 88 7 -7 -8 -8 -8 -8 -8 -8 -8 -8 -8 -8 -8 -2 55 59 -1 -8 -8 -8 -8 -8 -8 -8 -8 -2 56 
56 -2 -8 -8 -8 -8 -8 -8 -8 -6 11 84 84 13 13 89 52 -1 -8 -8 -8 -8 -8 -8 -8 -8 -8 -8 -8 -8 -8 -8 -8 -8 -2 52 88 7 -7 -8 -8 -8 -8 -8 -8 -8 -8 -8 -8 -8 -8 -2 55 59 -1 -8 -8 -8 -8 -8 -8 -8 -8 -8 -8 -8 -8 -8 -8 -8 -8 -8 -8 -8 -8 -8 -8 -8 -8 -7 7 88 52 -2 -8 -8 -8 -8 -8 -8 -8 -8 -8 -8 -8 -8 -1 59 55 -2 -8 -8 -8 -8 -8 -8 -8 -8 -2 56 
56 -2 -8 -8 -8 -8 -8 -8 -8 -8 -6 11 84 95 95 84 6 -7 -8 -8 -8 -8 -8 -8 -8 -8 -8 -8 -8 -8 -8 -8 -8 -7 7 88 52 -2 -8 -8 -8 -8 -8 -8 -8 -8 -8 -8 -8 -8 -8 -2 48 89 7 -7 -8 -8 -8 -8 -8 -8 -8 -8 -8 -8 -8 -8 -8 -8 -8 -8 -8 -8 -8 -8 -8 -8 -8 -2 48 89 7 -7 -8 -8 -8 -8 -8 -8 -8 -8 -8 -8 -8 -7 7 89 48 -2 -8 -8 -8 -8 -8 -8 -8 -8 -2 56 
56 -2 -8 -8 -8 -8 -8 -8 -8 -8 -8 -6 12 97 97 12 -6 -8 -8 -8 -8 -8 -8 -8 -8 -8 -8 -8 -8 -8 -8 -8 -8 -1 52 88 7 -7 -8 -8 -8 -8 -8 -8 -8 -8 -8 -8 -8 -8 -8 -7 7 89 48 -2 -8 -8 -8 -8 -8 -8 -8 -8 -8 -8 -8 -8 -8 -8 -8 -8 -8 -8 -8 -8 -8 -8 -8 -1 58 58 -1 -8 -8 -8 -8 -8 -8 -8 -8 -8 -8 -8 -8 -2 48 89 7 -7 -8 -8 -8 -8 -8 -8 -8 -8 -2 56 
56 -2 -8 -8 -8 -8 -8 -8 -8 -8 -8 -8 0 60 60 0 -8 -8 -8 -8 -8 -8 -8 -8 -8 -8 -8 -8 -8 -8 -8 -8 -6 11 89 52 -2 -8 -8 -8 -8 -8 -8 -8 -8 -8 -8 -8 -8 -8 -8 -8 -1 59 55 -2 -8 -8 -8 -8 -8 -8 -8 -8 -8 -8 -8 -8 -8 -8 -8 -8 -8 -8 -8 -8 -8 -8 -7 7 89 48 -2 -8 -8 -8 -8 -8 -8 -8 -8 -8 -8 -8 -8 -2 55 59 -1 -8 -8 -8 -8 -8 -8 -8 -8 -8 -2 56 
56 -2 -8 -8 -8 -8 -8 -8 -8 -8 -8 -8 -2 55 59 -1 -8 -8 -8 -8 -8 -8 -8 -8 -8 -8 -8 -8 -8 -8 -8 -7 6 83 83 6 -7 -8 -8 -8 -8 -8 -8 -8 -8 -8 -8 -8 -8 -8 -8 -8 -1 56 55 -2 -8 -8 -8 -8 -8 -8 -8 -8 -8 -8 -8 -8 -8 -8 -8 -8 -8 -8 -8 -8 -8 -8 -2 52 88 7 -7 -8 -8 -8 -8 -8 -8 -8 -8 -8 -8 -8 -8 -1 59 55 -2 -8 -8 -8 -8 -8 -8 -8 -8 -8 -2 56 
56 -2 -8 -8 -8 -8 -8 -8 -8 -8 -8 -8 -2 48 89 7 -7 -8 -8 -8 -8 -8 -8 -8 -8 -8 -8 -8 -8 -8 -8 -2 52 89 11 -6 -8 -8 -8 -8 -8 -8 -8 -8 -8 -8 -8 -8 -8 -8 -8 -8 -2 56 56 -2 -8 -8 -8 -8 -8 -8 -8 -8 -8 -8 -8 -8 -8 -8 -8 -8 -8 -8 -8 -8 -8 -7 7 88 52 -2 -8 -8 -8 -8 -8 -8 -8 -8 -8 -8 -8 -8 -7 7 89 48 -2 -8 -8 -8 -8 -8 -8 -8 -8 -8 -2 56 
56 -2 -8 -8 -8 -8 -8 -8 -8 -8 -8 -8 -7 7 89 48 -2 -8 -8 -8 -8 -8 -8 -8 -8 -8 -8 -8 -8 -8 -7 7 88 52 -1 -8 -8 -8 -8 -8 -8 -8 -8 -8 -8 -8 -8 -8 -8 -8 -8 -8 -2 55 56 -1 -8 -8 -8 -8 -8 -8 -8 -8 -8 -8 -8 -8 -8 -8 -8 -8 -8 -8 -8 -8 -8 -2 48 89 7 -7 -8 -8 -8 -8 -8 -8 -8 -8 -8 -8 -8 -8 -2 48 89 7 -7 -8 -8 -8 -8 -8 -8 -8 -8 -8 -2 56 
56 -2 -8 -8 -8 -8 -8 -8 -8 -8 -8 -8 -8 -1 59 55 -2 -8 -8 -8 -8 -8 -8 -8 -8 -8 -8 -8 -8 -8 -2 52 88 7 -7 -8 -8 -8 -8 -8 -8 -8 -8 -8 -8 -8 -8 -8 -8 -8 -8 -8 -2 55 59 -1 -8 -8 -8 -8 -8 -8 -8 -8 -8 -8 -8 -8 -8 -8 -8 -8 -8 -8 -8 -8 -8 -1 58 58 -1 -8 -8 -8 -8 -8 -8 -8 -8 -8 -8 -8 -8 -8 -2 55 59 -1 -8 -8 -8 -8 -8 -8 -8 -8 -8 -8 -2 56 
56 -2 -8 -8 -8 -8 -8 -8 -8 -8 -8 -8 -8 -1 56 56 -1 -8 -8 -8 -8 -8 -8 -8 -8 -8 -8 -8 -8 -7 7 88 52 -2 -8 -8 -8 -8 -8 -8 -8 -8 -8 -8 -8 -8 -8 -8 -8 -8 -8 -8 -2 48 89 7 -7 -8 -8 -8 -8 -8 -8 -8 -8 -8 -8 -8 -8 -8 -8 -8 -8 -8 -8 -8 -7 7 89 48 -2 -8 -8 -8 -8 -8 -8 -8 -8 -8 -8 -8 -8 -8 -1 59 55 -2 -8 -8 -8 -8 -8 -8 -8 -8 -8 -8 -1 56 
56 -2 -8 -8 -8 -8 -8 -8 -8 -8 -8 -8 -8 -2 55 59 -1 -8 -8 -8 -8 -8 -8 -8 -8 -8 -8 -8 -8 -1 52 88 7 -7 -8 -8 -8 -8 -8 -8 -8 -8 -8 -8 -8 -8 -8 -8 -8 -8 -8 -8 -7 7 89 48 -2 -8 -8 -8 -8 -8 -8 -8 -8 -8 -8 -8 -8 -8 -8 -8 -8 -8 -8 -8 -2 52 88 7 -7 -8 -8 -8 -8 -8 -8 -8 -8 -8 -8 -8 -8 -7 7 89 48 -2 -8 -8 -8 -8 -8 -8 -8 -8 -8 -8 -1 60 
57 -2 -8 -8 -8 -8 -8 -8 -8 -8 -8 -8 -8 -2 48 89 7 -7 -8 -8 -8 -8 -8 -8 -8 -8 -8 -8 -6 11 89 52 -2 -8 -8 -8 -8 -8 -8 -8 -8 -8 -8 -8 -8 -8 -8 -8 -8 -8 -8 -8 -8 -1 59 55 -2 -8 -8 -8 -8 -8 -8 -8 -8 -8 -8 -8 -8 -8 -8 -8 -8 -8 -8 -7 7 88 52 -2 -8 -8 -8 -8 -8 -8 -8 -8 -8 -8 -8 -8 -8 -2 48 89 7 -7 -8 -8 -8 -8 -8 -8 -8 -8 -8 -7 7 97 
57 -2 -8 -8 -8 -8 -8 -8 -8 -8 -8 -8 -8 -7 7 89 48 -2 -8 -8 -8 -8 -8 -8 -8 -8 -8 -7 6 83 83 6 -7 -8 -8 -8 -8 -8 -8 -8 -8 -8 -8 -8 -8 -8 -8 -8 -8 -8 -8 -8 -8 -1 56 55 -2 -8 -8 -8 -8 -8 -8 -8 -8 -8 -8 -8 -8 -8 -8 -8 -8 -8 -8 -2 48 89 7 -7 -8 -8 -8 -8 -8 -8 -8 -8 -8 -8 -8 -8 -8 -2 55 59 -1 -8 -8 -8 -8 -8 -8 -8 -8 -8 -8 -1 53 135 
56 -2 -8 -8 -8 -8 -8 -8 -8 -8 -8 -8 -8 -8 -1 59 55 -2 -8 -8 -8 -8 -8 -8 -8 -8 -8 -2 52 89 11 -6 -8 -8 -8 -8 -8 -8 -8 -8 -8 -8 -8 -8 -8 -8 -8 -8 -8 -8 -8 -8 -8 -2 56 56 -2 -8 -8 -8 -8 -8 -8 -8 -8 -8 -8 -8 -8 -8 -8 -8 -8 -8 -8 -1 58 58 -1 -8 -8 -8 -8 -8 -8 -8 -8 -8 -8 -8 -8 -8 -8 -1 59 55 -2 -8 -8 -8 -8 -8 -8 -8 -8 -8 -6 11 90 107 
56 -2 -8 -8 -8 -8 -8 -8 -8 -8 -8 -8 -8 -8 -1 56 56 -1 -8 -8 -8 -8 -8 -8 -8 -8 -7 7 88 52 -1 -8 -8 -8 -8 -8 -8 -8 -8 -8 -8 -8 -8 -8 -8 -8 -8 -8 -8 -8 -8 -8 -8 -2 55 56 -1 -8 -8 -8 -8 -8 -8 -8 -8 -8 -8 -8 -8 -8 -8 -8 -8 -8 -7 7 89 48 -2 -8 -8 -8 -8 -8 -8 -8 -8 -8 -8 -8 -8 -8 -7 7 89 48 -2 -8 -8 -8 -8 -8 -8 -8 -8 -7 6 83 88 69 
56 -2 -8 -8 -8 -8 -8 -8 -8 -8 -8 -8 -8 -8 -2 55 59 -1 -8 -8 -8 -8 -8 -8 -8 -8 -2 52 88 7 -7 -8 -8 -8 -8 -8 -8 -8 -8 -8 -8 -8 -8 -8 -8 -8 -8 -8 -8 -8 -8 -8 -8 -2 55 59 -1 -8 -8 -8 -8 -8 -8 -8 -8 -8 -8 -8 -8 -8 -8 -8 -8 -8 -2 52 88 7 -7 -8 -8 -8 -8 -8 -8 -8 -8 -8 -8 -8 -8 -8 -2 48 89 7 -7 -8 -8 -8 -8 -8 -8 -8 -8 -1 52 89 18 57 
56 -2 -8 -8 -8 -8 -8 -8 -8 -8 -8 -8 -8 -8 -2 48 89 7 -7 -8 -8 -8 -8 -8 -8 -7 7 88 52 -2 -8 -8 -8 -8 -8 -8 -8 -8 -8 -8 -8 -8 -8 -8 -8 -8 -8 -8 -8 -8 -8 -8 -8 -2 48 89 7 -7 -8 -8 -8 -8 -8 -8 -8 -8 -8 -8 -8 -8 -8 -8 -8 -7 7 88 52 -2 -8 -8 -8 -8 -8 -8 -8 -8 -8 -8 -8 -8 -8 -8 -2 55 59 -1 -8 -8 -8 -8 -8 -8 -8 -8 -6 11 89 52 4 56 
56 -2 -8 -8 -8 -8 -8 -8 -8 -8 -8 -8 -8 -8 -7 7 89 48 -2 -8 -8 -8 -8 -8 -8 -1 52 88 7 -7 -8 -8 -8 -8 -8 -8 -8 -8 -8 -8 -8 -8 -8 -8 -8 -8 -8 -8 -8 -8 -8 -8 -8 -7 7 89 48 -2 -8 -8 -8 -8 -8 -8 -8 -8 -8 -8 -8 -8 -8 -8 -8 -2 48 89 7 -7 -8 -8 -8 -8 -8 -8 -8 -8 -8 -8 -8 -8 -8 -8 -1 59 55 -2 -8 -8 -8 -8 -8 -8 -8 -7 6 83 83 7 0 56 
56 -2 -8 -8 -8 -8 -8 -8 -8 -8 -8 -8 -8 -8 -8 -1 59 55 -2 -8 -8 -8 -8 -8 -6 11 89 52 -2 -8 -8 -8 -8 -8 -8 -8 -8 -8 -8 -8 -8 -8 -8 -8 -8 -8 -8 -8 -8 -8 -8 -8 -8 -8 -1 59 55 -1 -7 -8 -8 -8 -8 -8 -8 -8 -8 -8 -8 -8 -8 -8 -8 -1 58 58 -1 -8 -8 -8 -8 -8 -8 -8 -8 -8 -8 -8 -8 -8 -8 -7 7 89 48 -2 -8 -8 -8 -8 -8 -8 -8 -1 52 89 11 -6 -1 56 
56 -2 -8 -8 -8 -8 -8 -8 -8 -8 -8 -8 -8 -8 -8 -1 56 56 -1 -8 -8 -8 -8 -7 6 83 83 6 -7 -8 -8 -8 -8 -8 -8 -8 -8 -8 -8 -8 -8 -8 -8 -8 -8 -8 -8 -8 -8 -8 -8 -8 -8 -7 0 60 61 4 -1 -2 -2 -2 -7 -8 -8 -8 -8 -8 -8 -8 -8 -8 -7 7 89 48 -2 -8 -8 -8 -8 -8 -8 -8 -8 -8 -8 -8 -8 -8 -8 -2 48 89 7 -7 -8 -8 -8 -8 -8 -8 -6 11 89 52 -1 -7 -2 56 
56 -2 -8 -8 -8 -8 -8 -8 -8 -8 -8 -8 -8 -8 -8 -2 55 59 -1 -8 -8 -8 -8 -2 52 89 11 -6 -8 -8 -8 -8 -8 -8 -8 -8 -8 -8 -8 -8 -8 -8 -8 -8 -8 -8 -8 -8 -8 -8 -8 -8 -7 -1 12 97 104 60 56 55 55 48 7 -1 -1 -2 -2 -2 -2 -7 -8 -7 -1 52 88 7 -7 -8 -8 -8 -8 -8 -8 -8 -8 -8 -8 -8 -8 -8 -8 -2 55 59 -1 -8 -8 -8 -8 -8 -8 -7 6 83 83 6 -7 -8 -2 56 
56 -2 -8 -8 -8 -8 -8 -8 -8 -8 -8 -8 -8 -8 -8 -2 48 89 7 -7 -8 -8 -7 7 88 52 -1 -8 -8 -8 -8 -8 -8 -8 -8 -8 -8 -8 -8 -8 -8 -8 -8 -8 -8 -8 -8 -8 -8 -8 -8 -6 6 52 89 91 61 56 56 56 59 89 89 59 56 56 55 55 48 7 -1 0 12 89 52 -2 -8 -8 -8 -8 -8 -8 -8 -8 -8 -8 -8 -8 -8 -8 -8 -1 59 55 -2 -8 -8 -8 -8 -8 -8 -1 52 89 11 -6 -8 -8 -2 56 
56 -2 -8 -8 -8 -8 -8 -8 -8 -8 -8 -8 -8 -8 -8 -7 7 89 48 -2 -8 -8 -2 52 88 7 -7 -8 -8 -8 -8 -8 -8 -8 -8 -8 -8 -8 -8 -8 -8 -8 -8 -8 -8 -8 -8 -8 -8 -7 -1 11 83 89 52 7 -1 -1 -2 -1 -1 7 48 55 55 56 56 59 89 89 59 60 97 95 8 -7 -8 -8 -8 -8 -8 -8 -8 -8 -8 -8 -8 -8 -8 -8 -7 7 89 48 -2 -8 -8 -8 -8 -8 -6 11 89 52 -1 -8 -8 -8 -2 56 
56 -2 -8 -8 -8 -8 -8 -8 -8 -8 -8 -8 -8 -8 -8 -8 -1 59 55 -2 -8 -7 7 88 52 -2 -8 -8 -8 -8 -8 -8 -8 -8 -8 -8 -8 -8 -8 -8 -8 -8 -8 -8 -8 -8 -8 -8 -6 6 52 89 83 11 -1 -7 -8 -8 -8 -8 -8 -7 -2 -2 -2 -2 -1 -1 7 48 55 60 97 95 8 -7 -8 -8 -8 -8 -8 -8 -8 -8 -8 -8 -8 -8 -8 -8 -2 48 89 7 -7 -8 -8 -8 -8 -7 6 83 83 6 -7 -8 -8 -8 -2 56 
56 -2 -8 -8 -8 -8 -8 -8 -8 -8 -8 -8 -8 -8 -8 -8 -1 56 56 -1 -7 -1 52 88 7 -7 -8 -8 -8 -8 -8 -8 -8 -8 -8 -8 -8 -8 -8 -8 -8 -8 -8 -8 -8 -8 -7 -1 11 83 89 52 6 -6 -8 -8 -8 -8 -8 -8 -8 -8 -8 -8 -8 -8 -8 -8 -7 -2 -2 0 12 89 52 -1 -8 -8 -8 -8 -8 -8 -8 -8 -8 -8 -8 -8 -8 -8 -2 55 59 -1 -8 -8 -8 -8 -8 -1 52 89 11 -6 -8 -8 -8 -8 -2 56 
56 -2 -8 -8 -8 -8 -8 -8 -8 -8 -8 -8 -8 -8 -8 -8 -2 55 59 -1 -6 11 89 52 -2 -8 -8 -8 -8 -8 -8 -8 -8 -8 -8 -8 -8 -8 -8 -8 -8 -8 -8 -8 -8 -6 6 52 89 83 11 -1 -7 -8 -8 -8 -8 -8 -8 -8 -8 -8 -8 -8 -8 -8 -8 -8 -8 -8 -8 -7 -1 52 89 11 -6 -8 -8 -8 -8 -8 -8 -8 -8 -8 -8 -8 -8 -8 -1 59 55 -2 -8 -8 -8 -8 -6 11 89 52 -1 -8 -8 -8 -8 -8 -2 56 
56 -2 -8 -8 -8 -8 -8 -8 -8 -8 -8 -8 -8 -8 -8 -8 -2 48 89 8 8 83 83 6 -7 -8 -8 -8 -8 -8 -8 -8 -8 -8 -8 -8 -8 -8 -8 -8 -8 -8 -8 -8 -6 11 83 89 52 6 -6 -8 -8 -8 -8 -8 -8 -8 -8 -8 -8 -8 -8 -8 -8 -8 -8 -8 -8 -8 -8 -8 -7 6 83 84 12 -1 -7 -8 -8 -8 -8 -8 -8 -8 -8 -8 -8 -6 7 89 48 -2 -8 -8 -8 -7 6 83 83 6 -7 -8 -8 -8 -8 -8 -2 56 
56 -2 -8 -8 -8 -8 -8 -8 -8 -8 -8 -8 -8 -8 -8 -8 -7 7 89 54 57 89 11 -6 -8 -8 -8 -8 -8 -8 -8 -8 -8 -8 -8 -8 -8 -8 -8 -8 -8 -8 -7 -1 11 84 84 11 -1 -7 -8 -8 -8 -8 -8 -8 -8 -8 -8 -8 -8 -8 -8 -8 -8 -8 -8 -8 -8 -8 -8 -8 -8 -6 12 92 97 52 7 -1 -1 -2 -2 -2 -2 -2 -2 -2 -1 3 53 92 8 -6 -8 -8 -8 -1 52 89 11 -6 -8 -8 -8 -8 -8 -8 -2 56 
56 -2 -8 -8 -8 -8 -8 -8 -8 -8 -8 -8 -8 -8 -8 -8 -8 -1 59 69 93 52 -1 -8 -8 -8 -8 -8 -8 -8 -8 -8 -8 -8 -8 -8 -8 -8 -8 -8 -8 -6 6 52 89 83 11 -6 -8 -8 -8 -8 -8 -8 -8 -8 -8 -8 -8 -8 -8 -8 -8 -8 -8 -8 -8 -8 -8 -8 -8 -8 -8 -8 0 61 107 93 89 59 56 56 56 56 56 56 56 56 56 60 103 100 13 -1 -7 -8 -6 11 89 52 -1 -8 -8 -8 -8 -8 -8 -8 -2 56 
56 -2 -8 -8 -8 -8 -8 -8 -8 -8 -8 -8 -8 -8 -8 -8 -8 -1 57 107 90 7 -7 -8 -8 -8 -8 -8 -8 -8 -8 -8 -8 -8 -8 -8 -8 -8 -8 -7 -1 11 83 89 52 6 -6 -8 -8 -8 -8 -8 -8 -8 -8 -8 -8 -8 -8 -8 -8 -8 -8 -8 -8 -8 -8 -8 -8 -8 -8 -8 -8 -8 -1 59 61 13 48 55 55 56 56 56 56 56 56 56 56 56 61 91 89 52 7 0 7 83 83 6 -7 -8 -8 -8 -8 -8 -8 -8 -2 56 
56 -2 -8 -8 -8 -8 -8 -8 -8 -8 -8 -8 -8 -8 -8 -8 -8 -2 57 135 52 -2 -8 -8 -8 -8 -8 -8 -8 -8 -8 -8 -8 -8 -8 -8 -8 -8 -6 6 52 89 83 11 -1 -7 -8 -8 -8 -8 -8 -8 -8 -8 -8 -8 -8 -8 -8 -8 -8 -8 -8 -8 -8 -8 -8 -8 -8 -8 -8 -8 -8 -7 7 89 48 -1 -2 -2 -2 -2 -2 -2 -2 -2 -2 -2 -2 -1 -1 7 52 88 88 57 62 90 12 -6 -8 -8 -8 -8 -8 -8 -8 -8 -2 56 
56 -2 -8 -8 -8 -8 -8 -8 -8 -8 -8 -8 -8 -8 -8 -8 -8 -2 57 97 7 -7 -8 -8 -8 -8 -8 -8 -8 -8 -8 -8 -8 -8 -8 -8 -7 -1 11 83 89 52 6 -6 -8 -8 -8 -8 -8 -8 -8 -8 -8 -8 -8 -8 -8 -8 -8 -8 -8 -8 -8 -8 -8 -8 -8 -8 -8 -8 -8 -8 -8 -2 48 89 7 -7 -8 -8 -8 -8 -8 -8 -8 -8 -8 -8 -8 -8 -8 -7 -2 7 52 90 131 65 0 -7 -8 -8 -8 -8 -8 -8 -8 -8 -2 56 
56 -2 -8 -8 -8 -8 -8 -8 -8 -8 -8 -8 -8 -8 -8 -8 -8 -2 56 60 -1 -8 -8 -8 -8 -8 -8 -8 -8 -8 -8 -8 -8 -8 -8 -6 6 52 90 84 12 -1 -6 -8 -8 -8 -8 -8 -8 -8 -8 -8 -8 -8 -8 -8 -8 -8 -8 -8 -8 -8 -8 -8 -8 -8 -8 -8 -8 -8 -8 -8 -8 -2 55 59 -1 -8 -8 -8 -8 -8 -8 -8 -8 -8 -8 -8 -8 -8 -8 -8 -8 -7 -1 12 91 92 12 -6 -8 -8 -8 -8 -8 -8 -8 -8 -2 56 
56 -2 -8 -8 -8 -8 -8 -8 -8 -8 -8 -8 -8 -8 -8 -8 -8 -1 56 56 -1 -8 -8 -8 -8 -8 -8 -8 -8 -8 -8 -8 -7 -2 -1 12 90 134 101 22 0 -1 -2 -2 -7 -8 -8 -8 -8 -8 -8 -8 -8 -8 -8 -8 -8 -8 -8 -8 -8 -8 -8 -8 -8 -8 -8 -8 -8 -8 -8 -8 -8 -2 55 56 -1 -8 -8 -8 -8 -8 -8 -8 -8 -8 -8 -8 -8 -8 -8 -8 -8 -8 -8 -6 11 84 83 6 -7 -8 -8 -8 -8 -8 -8 -8 -2 56 
56 -2 -8 -8 -8 -8 -8 -8 -8 -8 -8 -8 -8 -8 -8 -8 -8 -1 59 55 -2 -8 -8 -8 -8 -8 -8 -8 -8 -8 -7 -2 7 48 58 89 91 65 90 89 59 56 55 48 7 -1 -2 -2 -7 -8 -8 -8 -8 -8 -8 -8 -8 -8 -8 -8 -8 -8 -8 -8 -8 -8 -8 -8 -8 -8 -8 -8 -8 -1 56 55 -2 -8 -8 -8 -8 -8 -8 -8 -8 -8 -8 -8 -8 -8 -8 -8 -8 -8 -8 -8 -6 11 89 52 -1 -8 -8 -8 -8 -8 -8 -8 -2 56 
56 -2 -8 -8 -8 -8 -8 -8 -8 -8 -8 -8 -8 -8 -8 -8 -7 7 89 48 -2 -8 -8 -8 -8 -8 -8 -8 -7 -2 7 52 88 89 58 48 7 0 7 48 55 56 59 89 89 59 55 48 7 -1 -1 -2 -2 -7 -8 -8 -8 -8 -8 -8 -8 -8 -8 -8 -8 -8 -8 -8 -8 -8 -8 -8 -8 -1 59 55 -2 -8 -8 -8 -8 -8 -8 -8 -8 -8 -8 -8 -8 -8 -8 -8 -8 -8 -8 -8 -8 -1 52 89 11 -6 -8 -8 -8 -8 -8 -8 -2 56 
56 -2 -8 -8 -8 -8 -8 -8 -8 -8 -8 -8 -8 -8 -8 -8 -2 48 89 7 -7 -8 -8 -8 -8 -7 -2 -1 7 52 88 88 52 7 -1 -2 -7 -8 -7 -2 -2 -1 -1 7 48 55 59 89 89 59 56 55 48 7 -1 -2 -2 -7 -8 -8 -8 -8 -8 -8 -8 -8 -8 -8 -8 -8 -8 -8 -7 7 89 48 -2 -8 -8 -8 -8 -8 -8 -8 -8 -8 -8 -8 -8 -8 -8 -8 -8 -8 -8 -8 -8 -7 6 83 83 6 -7 -8 -8 -8 -8 -8 -2 56 
56 -2 -8 -8 -8 -8 -8 -8 -8 -8 -8 -8 -8 -8 -8 -8 -2 55 59 -1 -8 -8 -8 -7 -2 7 48 58 89 88 52 7 -2 -7 -8 -8 -8 -8 -8 -8 -8 -8 -8 -7 -2 -2 -1 7 48 55 56 59 89 89 59 55 48 7 -1 -1 -2 -2 -7 -8 -8 -8 -8 -8 -8 -8 -8 -8 -2 48 89 7 -7 -8 -8 -8 -8 -8 -8 -8 -8 -8 -8 -8 -8 -8 -8 -8 -8 -8 -8 -8 -8 -8 -6 11 89 52 -1 -8 -8 -8 -8 -8 -2 56 
56 -2 -8 -8 -8 -8 -8 -8 -8 -8 -8 -8 -8 -8 -8 -8 -1 56 56 -1 -7 -7 -2 7 52 88 89 58 48 7 -2 -7 -8 -8 -8 -8 -8 -8 -8 -8 -8 -8 -8 -8 -8 -8 -8 -7 -2 -2 -1 -1 7 48 55 59 89 89 59 56 55 48 7 -1 -2 -2 -7 -8 -8 -8 -8 -8 -2 55 59 -1 -8 -8 -8 -8 -8 -8 -8 -8 -8 -8 -8 -8 -8 -8 -8 -8 -8 -8 -8 -8 -8 -8 -8 -1 52 89 11 -6 -8 -8 -8 -8 -2 56 
56 -2 -8 -8 -8 -8 -8 -8 -8 -8 -8 -8 -8 -8 -8 -8 -1 59 55 0 -1 7 52 88 88 52 7 -1 -2 -7 -8 -8 -8 -8 -8 -8 -8 -8 -8 -8 -8 -8 -8 -8 -8 -8 -8 -8 -8 -8 -8 -8 -7 -2 -2 -1 7 48 55 56 59 89 89 59 55 48 7 -1 -1 -2 -2 -6 -1 56 56 -1 -8 -8 -8 -8 -8 -8 -8 -8 -8 -8 -8 -8 -8 -8 -8 -8 -8 -8 -8 -8 -8 -8 -8 -7 6 83 84 11 -6 -8 -8 -8 -2 56 
56 -2 -8 -8 -8 -8 -8 -8 -8 -8 -8 -8 -8 -8 -8 -7 7 90 54 13 52 88 88 52 7 -2 -7 -8 -8 -8 -8 -8 -8 -8 -8 -8 -8 -8 -8 -8 -8 -8 -8 -8 -8 -8 -8 -8 -8 -8 -8 -8 -8 -8 -8 -8 -7 -2 -2 -1 -1 7 48 55 59 89 89 59 56 55 48 7 5 60 56 -2 -8 -8 -8 -8 -8 -8 -8 -8 -8 -8 -8 -8 -8 -8 -8 -8 -8 -8 -8 -8 -8 -8 -8 -8 -6 11 84 83 6 -7 -8 -8 -2 56 
56 -2 -8 -8 -8 -8 -8 -8 -8 -8 -8 -8 -8 -8 -8 -2 53 130 72 89 88 52 7 -2 -7 -8 -8 -8 -8 -8 -8 -8 -8 -8 -8 -8 -8 -8 -8 -8 -8 -8 -8 -8 -8 -8 -8 -8 -8 -8 -8 -8 -8 -8 -8 -8 -8 -8 -8 -8 -8 -7 -2 -2 -1 7 48 55 56 59 89 89 64 104 57 -2 -8 -8 -8 -8 -8 -8 -8 -8 -8 -8 -8 -8 -8 -8 -8 -8 -8 -8 -8 -8 -8 -8 -8 -8 -8 -6 11 89 52 -1 -8 -8 -2 56 
56 -2 -8 -8 -8 -8 -8 -8 -8 -8 -8 -8 -8 -8 -7 7 90 97 59 48 7 -2 -7 -8 -8 -8 -8 -8 -8 -8 -8 -8 -8 -8 -8 -8 -8 -8 -8 -8 -8 -8 -8 -8 -8 -8 -8 -8 -8 -8 -8 -8 -8 -8 -8 -8 -8 -8 -8 -8 -8 -8 -8 -8 -8 -7 -2 -2 -1 -1 7 48 60 104 57 -2 -8 -8 -8 -8 -8 -8 -8 -8 -8 -8 -8 -8 -8 -8 -8 -8 -8 -8 -8 -8 -8 -8 -8 -8 -8 -8 -1 52 89 11 -6 -8 -2 56 
56 -2 -8 -8 -8 -8 -8 -8 -8 -8 -8 -8 -8 -8 -1 52 89 12 0 -2 -7 -8 -8 -8 -8 -8 -8 -8 -8 -8 -8 -8 -8 -8 -8 -8 -8 -8 -8 -8 -8 -8 -8 -8 -8 -8 -8 -8 -8 -8 -8 -8 -8 -8 -8 -8 -8 -8 -8 -8 -8 -8 -8 -8 -8 -8 -8 -8 -8 -8 -7 -2 4 60 56 -2 -8 -8 -8 -8 -8 -8 -8 -8 -8 -8 -8 -8 -8 -8 -8 -8 -8 -8 -8 -8 -8 -8 -8 -8 -8 -8 -7 6 83 84 11 -6 -1 56 
56 -2 -8 -8 -8 -8 -8 -8 -8 -8 -8 -8 -8 -6 11 89 52 -1 -7 -8 -8 -8 -8 -8 -8 -8 -8 -8 -8 -8 -8 -8 -8 -8 -8 -8 -8 -8 -8 -8 -8 -8 -8 -8 -8 -8 -8 -8 -8 -8 -8 -8 -8 -8 -8 -8 -8 -8 -8 -8 -8 -8 -8 -8 -8 -8 -8 -8 -8 -8 -8 -7 -1 56 56 -2 -8 -8 -8 -8 -8 -8 -8 -8 -8 -8 -8 -8 -8 -8 -8 -8 -8 -8 -8 -8 -8 -8 -8 -8 -8 -8 -8 -6 11 84 83 7 0 56 
56 -2 -8 -8 -8 -8 -8 -8 -8 -8 -8 -8 -7 6 83 83 6 -7 -8 -8 -8 -8 -8 -8 -8 -8 -8 -8 -8 -8 -8 -8 -8 -8 -8 -8 -8 -8 -8 -8 -8 -8 -8 -8 -8 -8 -8 -8 -8 -8 -8 -8 -8 -8 -8 -8 -8 -8 -8 -8 -8 -8 -8 -8 -8 -8 -8 -8 -8 -8 -8 -8 -2 56 56 -2 -8 -8 -8 -8 -8 -8 -8 -8 -8 -8 -8 -8 -8 -8 -8 -8 -8 -8 -8 -8 -8 -8 -8 -8 -8 -8 -8 -8 -6 11 89 52 4 56 
56 -2 -8 -8 -8 -8 -8 -8 -8 -8 -8 -8 -1 52 89 11 -6 -8 -8 -8 -8 -8 -8 -8 -8 -8 -8 -8 -8 -8 -8 -8 -8 -8 -8 -8 -8 -8 -8 -8 -8 -8 -8 -8 -8 -8 -8 -8 -8 -8 -8 -8 -8 -8 -8 -8 -8 -8 -8 -8 -8 -8 -8 -8 -8 -8 -8 -8 -8 -8 -8 -8 -2 55 56 -1 -8 -8 -8 -8 -8 -8 -8 -8 -8 -8 -8 -8 -8 -8 -8 -8 -8 -8 -8 -8 -8 -8 -8 -8 -8 -8 -8 -8 -8 -1 52 89 18 57 
56 -2 -8 -8 -8 -8 -8 -8 -8 -8 -8 -6 11 89 52 -1 -8 -8 -8 -8 -8 -8 -8 -8 -8 -8 -8 -8 -8 -8 -8 -8 -8 -8 -8 -8 -8 -8 -8 -8 -8 -8 -8 -8 -8 -8 -8 -8 -8 -8 -8 -8 -8 -8 -8 -8 -8 -8 -8 -8 -8 -8 -8 -8 -8 -8 -8 -8 -8 -8 -8 -8 -2 55 59 0 -8 -8 -8 -8 -8 -8 -8 -8 -8 -8 -8 -8 -8 -8 -8 -8 -8 -8 -8 -8 -8 -8 -8 -8 -8 -8 -8 -8 -8 -7 6 83 88 69 
56 -2 -8 -8 -8 -8 -8 -8 -8 -8 -6 11 84 84 7 -6 -8 -8 -8 -8 -8 -8 -8 -8 -8 -8 -8 -8 -8 -8 -8 -8 -8 -8 -8 -8 -8 -8 -8 -8 -8 -8 -8 -8 -8 -8 -8 -8 -8 -8 -8 -8 -8 -8 -8 -8 -8 -8 -8 -8 -8 -8 -8 -8 -8 -8 -8 -8 -8 -8 -8 -7 -1 53 91 12 -6 -8 -8 -8 -8 -8 -8 -8 -8 -8 -8 -8 -8 -8 -8 -8 -8 -8 -8 -8 -8 -8 -8 -8 -8 -8 -8 -8 -8 -8 -6 11 90 107 
57 -2 -8 -8 -8 -8 -8 -8 -8 -6 11 85 89 17 0 -1 -2 -7 -8 -8 -8 -8 -8 -8 -8 -8 -8 -8 -8 -8 -8 -8 -8 -8 -8 -8 -8 -8 -8 -8 -8 -8 -8 -8 -8 -8 -8 -8 -8 -8 -8 -8 -8 -8 -8 -8 -8 -8 -8 -8 -8 -8 -8 -8 -8 -8 -8 -8 -8 -8 -7 -2 8 62 131 91 12 -1 -7 -8 -8 -8 -8 -8 -8 -8 -8 -8 -8 -8 -8 -8 -8 -8 -8 -8 -8 -8 -8 -8 -8 -8 -8 -8 -8 -8 -8 -1 53 135 
57 -2 -8 -8 -8 -8 -8 -8 -6 11 91 131 73 57 56 55 48 7 -1 -1 -2 -2 -2 -2 -2 -2 -2 -2 -2 -7 -8 -8 -8 -8 -8 -8 -8 -8 -8 -8 -8 -8 -8 -8 -8 -8 -8 -8 -8 -8 -8 -8 -8 -8 -8 -8 -8 -8 -8 -8 -8 -8 -8 -8 -8 -8 -8 -8 -8 -6 6 52 88 89 65 91 89 52 7 -2 -7 -8 -8 -8 -8 -8 -8 -8 -8 -8 -8 -8 -8 -8 -8 -8 -8 -8 -8 -8 -8 -8 -8 -8 -8 -8 -8 -7 7 97 
56 -2 -8 -8 -8 -8 -8 -6 11 84 91 61 56 56 56 59 89 89 59 56 56 56 56 56 56 56 55 55 48 7 -1 -1 -2 -2 -2 -2 -2 -2 -2 -2 -7 -8 -8 -8 -8 -8 -8 -8 -8 -8 -8 -8 -8 -8 -8 -8 -8 -8 -8 -8 -8 -8 -8 -8 -8 -8 -8 -7 -1 11 83 89 52 7 0 7 52 88 88 52 6 -6 -8 -8 -8 -8 -8 -8 -8 -8 -8 -8 -8 -8 -8 -8 -8 -8 -8 -8 -8 -8 -8 -8 -8 -8 -8 -8 -1 60 
56 -2 -8 -8 -8 -8 -6 11 84 84 12 0 -1 -2 -1 -1 7 48 55 55 56 56 56 56 56 56 56 59 89 89 59 56 56 56 56 56 56 55 55 48 7 -1 -1 -2 -2 -2 -2 -2 -2 -2 -2 -2 -7 -8 -8 -8 -8 -8 -8 -8 -8 -8 -8 -8 -8 -7 -2 7 52 89 83 11 -1 -7 -8 -7 -2 7 52 89 83 11 -1 -7 -8 -8 -8 -8 -8 -8 -8 -8 -8 -8 -8 -8 -8 -8 -8 -8 -8 -8 -8 -8 -8 -8 -8 -8 -1 56 
56 -2 -8 -8 -8 -6 11 84 84 11 -6 -8 -8 -8 -8 -8 -7 -2 -2 -2 -2 -2 -2 -2 -2 -2 -1 -1 7 48 55 55 56 56 56 56 56 56 59 89 89 59 56 56 56 56 56 56 56 55 55 48 7 -1 -1 -2 -2 -2 -2 -2 -2 -2 -2 -7 -6 6 52 88 88 52 6 -6 -8 -8 -8 -8 -8 -7 -1 11 83 89 52 7 -2 -7 -8 -8 -8 -8 -8 -8 -8 -8 -8 -8 -8 -8 -8 -8 -8 -8 -8 -8 -8 -8 -8 -8 -2 56 
56 -2 -8 -7 -1 11 84 84 11 -6 -8 -8 -8 -8 -8 -8 -8 -8 -8 -8 -8 -8 -8 -8 -8 -8 -8 -8 -7 -2 -2 -2 -2 -2 -2 -2 -2 -1 -1 7 48 55 55 56 56 56 56 56 56 56 59 89 89 59 56 56 56 56 56 56 55 55 48 8 12 83 89 52 7 -2 -7 -8 -8 -8 -8 -8 -8 -8 -8 -6 6 52 88 88 52 6 -6 -8 -8 -8 -8 -8 -8 -8 -8 -8 -8 -8 -8 -8 -8 -8 -8 -8 -8 -8 -8 -8 -2 56 
56 -1 -6 6 52 89 83 11 -6 -8 -8 -8 -8 -8 -8 -8 -8 -8 -8 -8 -8 -8 -8 -8 -8 -8 -8 -8 -8 -8 -8 -8 -8 -8 -8 -8 -8 -8 -8 -7 -2 -2 -2 -2 -2 -2 -2 -2 -2 -1 -1 7 48 55 55 56 56 56 56 56 56 59 89 95 95 84 11 -1 -7 -8 -8 -8 -8 -8 -8 -8 -8 -8 -8 -8 -7 -2 7 52 89 83 11 -1 -7 -8 -8 -8 -8 -8 -8 -8 -8 -8 -8 -8 -8 -8 -8 -8 -8 -8 -8 -8 -2 56 
56 0 11 83 89 52 6 -6 -8 -8 -8 -8 -8 -8 -8 -8 -8 -8 -8 -8 -8 -8 -8 -8 -8 -8 -8 -8 -8 -8 -8 -8 -8 -8 -8 -8 -8 -8 -8 -8 -8 -8 -8 -8 -8 -8 -8 -8 -8 -8 -8 -7 -2 -2 -2 -2 -2 -2 -2 -2 -1 0 12 97 97 12 -6 -8 -8 -8 -8 -8 -8 -8 -8 -8 -8 -8 -8 -8 -8 -8 -7 -1 11 83 89 52 7 -2 -7 -8 -8 -8 -8 -8 -8 -8 -8 -8 -8 -8 -8 -8 -8 -8 -8 -8 -2 56 
57 17 84 84 11 -1 -7 -8 -8 -8 -8 -8 -8 -8 -8 -8 -8 -8 -8 -8 -8 -8 -8 -8 -8 -8 -8 -8 -8 -8 -8 -8 -8 -8 -8 -8 -8 -8 -8 -8 -8 -8 -8 -8 -8 -8 -8 -8 -8 -8 -8 -8 -8 -8 -8 -8 -8 -8 -8 -8 -8 -7 0 60 60 0 -8 -8 -8 -8 -8 -8 -8 -8 -8 -8 -8 -8 -8 -8 -8 -8 -8 -8 -6 6 52 88 88 52 6 -6 -8 -8 -8 -8 -8 -8 -8 -8 -8 -8 -8 -8 -8 -8 -8 -8 -2 56 
73 89 84 11 -6 -8 -8 -8 -8 -8 -8 -8 -8 -8 -8 -8 -8 -8 -8 -8 -8 -8 -8 -8 -8 -8 -8 -8 -8 -8 -8 -8 -8 -8 -8 -8 -8 -8 -8 -8 -8 -8 -8 -8 -8 -8 -8 -8 -8 -8 -8 -8 -8 -8 -8 -8 -8 -8 -8 -8 -8 -8 -1 56 56 -1 -8 -8 -8 -8 -8 -8 -8 -8 -8 -8 -8 -8 -8 -8 -8 -8 -8 -8 -8 -7 -2 7 52 89 83 11 -1 -7 -8 -8 -8 -8 -8 -8 -8 -8 -8 -8 -8 -8 -8 -8 -2 56 
131 85 11 -6 -8 -8 -8 -8 -8 -8 -8 -8 -8 -8 -8 -8 -8 -8 -8 -8 -8 -8 -8 -8 -8 -8 -8 -8 -8 -8 -8 -8 -8 -8 -8 -8 -8 -8 -8 -8 -8 -8 -8 -8 -8 -8 -8 -8 -8 -8 -8 -8 -8 -8 -8 -8 -8 -8 -8 -8 -8 -8 -2 56 56 -2 -8 -8 -8 -8 -8 -8 -8 -8 -8 -8 -8 -8 -8 -8 -8 -8 -8 -8 -8 -8 -8 -7 -1 11 83 89 52 7 -2 -7 -8 -8 -8 -8 -8 -8 -8 -8 -8 -8 -8 -8 -2 57 
97 12 -6 -8 -8 -8 -8 -8 -8 -8 -8 -8 -8 -8 -8 -8 -8 -8 -8 -8 -8 -8 -8 -8 -8 -8 -8 -8 -8 -8 -8 -8 -8 -8 -8 -8 -8 -8 -8 -8 -8 -8 -8 -8 -8 -8 -8 -8 -8 -8 -8 -8 -8 -8 -8 -8 -8 -8 -8 -8 -8 -8 -2 56 56 -2 -8 -8 -8 -8 -8 -8 -8 -8 -8 -8 -8 -8 -8 -8 -8 -8 -8 -8 -8 -8 -8 -8 -8 -6 6 52 88 88 52 7 -2 -7 -8 -8 -8 -8 -8 -8 -8 -8 -8 -8 -2 57 
60 0 -8 -8 -8 -8 -8 -8 -8 -8 -8 -8 -8 -8 -8 -8 -8 -8 -8 -8 -8 -8 -8 -8 -8 -8 -8 -8 -8 -8 -8 -8 -8 -8 -8 -8 -8 -8 -8 -8 -8 -8 -8 -8 -8 -8 -8 -8 -8 -8 -8 -8 -8 -8 -8 -8 -8 -8 -8 -8 -8 -8 -2 56 56 -2 -8 -8 -8 -8 -8 -8 -8 -8 -8 -8 -8 -8 -8 -8 -8 -8 -8 -8 -8 -8 -8 -8 -8 -8 -7 -2 7 52 88 88 52 6 -6 -8 -8 -8 -8 -8 -8 -8 -8 -8 -2 56 
56 -1 -8 -8 -8 -8 -8 -8 -8 -8 -8 -8 -8 -8 -8 -8 -8 -8 -8 -8 -8 -8 -8 -8 -8 -8 -8 -8 -8 -8 -8 -8 -8 -8 -8 -8 -8 -8 -8 -8 -8 -8 -8 -8 -8 -8 -8 -8 -8 -8 -8 -8 -8 -8 -8 -8 -8 -8 -8 -8 -8 -8 -2 56 56 -2 -8 -8 -8 -8 -8 -8 -8 -8 -8 -8 -8 -8 -8 -8 -8 -8 -8 -8 -8 -8 -8 -8 -8 -8 -8 -8 -7 -2 7 52 89 83 11 -1 -7 -8 -8 -8 -8 -8 -8 -8 -2 56 
56 -2 -8 -8 -8 -8 -8 -8 -8 -8 -8 -8 -8 -8 -8 -8 -8 -8 -8 -8 -8 -8 -8 -8 -8 -8 -8 -8 -8 -8 -8 -8 -8 -8 -8 -8 -8 -8 -8 -8 -8 -8 -8 -8 -8 -8 -8 -8 -8 -8 -8 -8 -8 -8 -8 -8 -8 -8 -8 -8 -8 -8 -2 56 56 -2 -8 -8 -8 -8 -8 -8 -8 -8 -8 -8 -8 -8 -8 -8 -8 -8 -8 -8 -8 -8 -8 -8 -8 -8 -8 -8 -8 -8 -7 -1 11 84 89 52 7 -1 -2 -2 -7 -8 -8 -7 -1 56 
56 -2 -8 -8 -8 -8 -8 -8 -8 -8 -8 -8 -8 -8 -8 -8 -8 -8 -8 -8 -8 -8 -8 -8 -8 -8 -8 -8 -8 -8 -8 -8 -8 -8 -8 -8 -8 -8 -8 -8 -8 -8 -8 -8 -8 -8 -8 -8 -8 -8 -8 -8 -8 -8 -8 -8 -8 -8 -8 -8 -8 -8 -2 56 56 -2 -8 -8 -8 -8 -8 -8 -8 -8 -8 -8 -8 -8 -8 -8 -8 -8 -8 -8 -8 -8 -8 -8 -8 -8 -8 -8 -8 -8 -8 -7 -5 13 66 130 97 60 55 48 7 -1 -2 -2 0 56 
56 -2 -8 -8 -8 -8 -8 -8 -8 -8 -8 -8 -8 -8 -8 -8 -8 -8 -8 -8 -8 -8 -8 -8 -8 -8 -8 -8 -8 -8 -8 -8 -8 -8 -8 -8 -8 -8 -8 -8 -8 -8 -8 -8 -8 -8 -8 -8 -8 -8 -8 -8 -8 -8 -8 -8 -8 -8 -8 -8 -8 -8 -2 56 56 -2 -8 -8 -8 -8 -8 -8 -8 -8 -8 -8 -8 -8 -8 -8 -8 -8 -8 -8 -8 -8 -8 -8 -8 -8 -8 -8 -8 -7 -2 -1 7 53 93 92 61 56 59 89 89 59 55 48 13 61 
57 -1 -7 -8 -8 -8 -8 -8 -8 -8 -8 -8 -8 -8 -8 -8 -8 -8 -8 -8 -8 -8 -8 -8 -8 -8 -8 -8 -8 -8 -8 -8 -8 -8 -8 -8 -8 -8 -8 -8 -8 -8 -8 -8 -8 -8 -8 -8 -8 -8 -8 -8 -8 -8 -8 -8 -8 -8 -8 -8 -8 -8 -2 56 56 -2 -8 -8 -8 -8 -8 -8 -8 -8 -8 -8 -8 -8 -8 -8 -8 -8 -8 -8 -8 -8 -8 -8 -8 -8 -8 -7 -2 7 48 58 89 88 52 7 -1 -1 -1 7 48 55 59 89 93 107 
62 4 -1 -2 -2 -2 -2 -2 -2 -7 -8 -8 -8 -8 -8 -8 -8 -8 -8 -8 -8 -8 -8 -8 -8 -8 -8 -8 -8 -8 -8 -8 -8 -8 -8 -8 -8 -8 -8 -8 -8 -8 -8 -8 -8 -8 -8 -8 -8 -8 -8 -8 -8 -8 -8 -8 -8 -8 -8 -8 -8 -8 -2 56 56 -2 -8 -8 -8 -8 -8 -8 -8 -8 -8 -8 -8 -8 -8 -8 -8 -8 -8 -8 -8 -8 -8 -8 -7 -2 -1 7 52 88 89 58 48 7 -2 -7 -8 -8 -8 -7 -2 -2 -1 7 53 103 
104 61 56 56 56 56 55 55 48 7 -1 -1 -2 -2 -2 -2 -2 -7 -8 -8 -8 -8 -8 -8 -8 -8 -8 -8 -8 -8 -8 -8 -8 -8 -8 -8 -8 -8 -8 -8 -8 -8 -8 -8 -8 -8 -8 -8 -8 -8 -8 -8 -8 -8 -8 -8 -8 -8 -8 -8 -8 -8 -2 56 56 -2 -8 -8 -8 -8 -8 -8 -8 -8 -8 -8 -8 -8 -8 -8 -8 -8 -8 -8 -8 -8 -7 -2 7 48 58 89 88 52 7 -1 -2 -7 -8 -8 -8 -8 -8 -8 -8 -8 -8 -6 3 62 
104 61 56 56 56 56 56 59 89 89 59 56 56 56 55 55 48 7 -1 -1 -2 -2 -2 -2 -2 -2 -7 -8 -8 -8 -8 -8 -8 -8 -8 -8 -8 -8 -8 -8 -8 -8 -8 -8 -8 -8 -8 -8 -8 -8 -8 -8 -8 -8 -8 -8 -8 -8 -8 -8 -8 -8 -2 56 56 -2 -8 -8 -8 -8 -8 -8 -8 -8 -8 -8 -8 -8 -8 -8 -8 -8 -8 -7 -2 -1 7 52 88 89 58 48 7 -2 -7 -8 -8 -8 -8 -8 -8 -8 -8 -8 -8 -8 -8 -8 -1 57 
60 4 -1 -2 -2 -2 -1 -1 7 48 55 55 56 56 56 59 89 89 59 56 56 56 56 55 55 48 7 -1 -1 -2 -2 -2 -2 -2 -7 -8 -8 -8 -8 -8 -8 -8 -8 -8 -8 -8 -8 -8 -8 -8 -8 -8 -8 -8 -8 -8 -8 -8 -8 -8 -8 -8 -2 56 56 -2 -8 -8 -8 -8 -8 -8 -8 -8 -8 -8 -8 -8 -8 -8 -8 -7 -2 7 48 58 89 88 52 7 -1 -2 -7 -8 -8 -8 -8 -8 -8 -8 -8 -8 -8 -8 -8 -8 -8 -8 -2 56 
56 -1 -7 -8 -8 -8 -8 -8 -7 -2 -2 -2 -2 -2 -1 -1 7 48 55 55 56 56 56 56 59 89 89 59 56 56 56 55 55 48 7 -1 -1 -2 -2 -2 -2 -2 -2 -7 -8 -8 -8 -8 -8 -8 -8 -8 -8 -8 -8 -8 -8 -8 -8 -8 -8 -8 -2 56 56 -2 -8 -8 -8 -8 -8 -8 -8 -8 -8 -8 -8 -8 -8 -7 -2 7 52 88 89 58 48 7 -2 -7 -8 -8 -8 -8 -8 -8 -8 -8 -8 -8 -8 -8 -8 -8 -8 -8 -8 -8 -2 56 
56 -2 -8 -8 -8 -8 -8 -8 -8 -8 -8 -8 -8 -8 -8 -8 -7 -2 -2 -2 -2 -2 -2 -1 -1 7 48 55 55 56 56 56 59 89 89 59 56 56 56 56 55 55 48 7 -1 -1 -2 -2 -2 -2 -2 -7 -8 -8 -8 -8 -8 -8 -8 -8 -8 -8 -2 56 56 -2 -8 -8 -8 -8 -8 -8 -8 -8 -8 -8 -7 -2 -1 7 52 88 88 52 7 -1 -2 -7 -8 -8 -8 -8 -8 -8 -8 -8 -8 -8 -8 -8 -8 -8 -8 -8 -8 -8 -8 -8 -2 56 
56 -2 -8 -8 -8 -8 -8 -8 -8 -8 -8 -8 -8 -8 -8 -8 -8 -8 -8 -8 -8 -8 -8 -8 -8 -7 -2 -2 -2 -2 -2 -1 -1 7 48 55 55 56 56 56 56 59 89 89 59 56 56 56 55 55 48 7 -1 -1 -2 -2 -2 -2 -2 -2 -7 -7 -1 56 56 -1 -8 -8 -8 -8 -8 -8 -8 -8 -7 -2 7 48 58 89 88 52 7 -2 -7 -8 -8 -8 -8 -8 -8 -8 -8 -8 -8 -8 -8 -8 -8 -8 -8 -8 -8 -8 -8 -8 -8 -8 -2 56 
56 -2 -8 -8 -8 -8 -8 -8 -8 -8 -8 -8 -8 -8 -8 -8 -8 -8 -8 -8 -8 -8 -8 -8 -8 -8 -8 -8 -8 -8 -8 -8 -8 -7 -2 -2 -2 -2 -2 -2 -1 -1 7 48 55 55 56 56 56 59 89 89 59 56 56 56 56 55 55 48 7 0 4 61 60 0 -8 -8 -8 -8 -8 -7 -2 -1 7 52 88 89 58 48 7 -2 -7 -8 -8 -8 -8 -8 -8 -8 -8 -8 -8 -8 -8 -8 -8 -8 -8 -8 -8 -8 -8 -8 -8 -8 -8 -8 -2 56 
56 -2 -8 -8 -8 -8 -8 -8 -8 -8 -8 -8 -8 -8 -8 -8 -8 -8 -8 -8 -8 -8 -8 -8 -8 -8 -8 -8 -8 -8 -8 -8 -8 -8 -8 -8 -8 -8 -8 -8 -8 -8 -7 -2 -2 -2 -2 -2 -1 -1 7 48 55 55 56 56 56 56 59 89 89 59 61 104 97 12 -6 -8 -8 -7 -2 7 48 58 89 88 52 7 -1 -2 -7 -8 -8 -8 -8 -8 -8 -8 -8 -8 -8 -8 -8 -8 -8 -8 -8 -8 -8 -8 -8 -8 -8 -8 -8 -8 -8 -8 -2 56 
56 -2 -8 -8 -8 -8 -8 -8 -8 -8 -8 -8 -8 -8 -8 -8 -8 -8 -8 -8 -8 -8 -8 -8 -8 -8 -8 -8 -8 -8 -8 -8 -8 -8 -8 -8 -8 -8 -8 -8 -8 -8 -8 -8 -8 -8 -8 -8 -8 -8 -7 -2 -2 -2 -2 -2 -2 -1 -1 7 48 55 56 61 92 84 12 0 -1 7 52 88 89 58 48 7 -2 -7 -8 -8 -8 -8 -8 -8 -8 -8 -8 -8 -8 -8 -8 -8 -8 -8 -8 -8 -8 -8 -8 -8 -8 -8 -8 -8 -8 -8 -8 -8 -2 56 
56 -2 -8 -8 -8 -8 -8 -8 -8 -8 -8 -8 -8 -8 -8 -8 -8 -8 -8 -8 -8 -8 -8 -8 -8 -8 -8 -8 -8 -8 -8 -8 -8 -8 -8 -8 -8 -8 -8 -8 -8 -8 -8 -8 -8 -8 -8 -8 -8 -8 -8 -8 -8 -8 -8 -8 -8 -8 -8 -7 -2 -2 -1 0 12 84 92 61 59 89 88 52 7 -1 -2 -7 -8 -8 -8 -8 -8 -8 -8 -8 -8 -8 -8 -8 -8 -8 -8 -8 -8 -8 -8 -8 -8 -8 -8 -8 -8 -8 -8 -8 -8 -8 -8 -8 -2 56 
56 -2 -8 -8 -8 -8 -8 -8 -8 -8 -8 -8 -8 -8 -8 -8 -8 -8 -8 -8 -8 -8 -8 -8 -8 -8 -8 -8 -8 -8 -8 -8 -8 -8 -8 -8 -8 -8 -8 -8 -8 -8 -8 -8 -8 -8 -8 -8 -8 -8 -8 -8 -8 -8 -8 -8 -8 -8 -8 -8 -8 -8 -8 -8 -6 12 97 104 60 48 7 -2 -7 -8 -8 -8 -8 -8 -8 -8 -8 -8 -8 -8 -8 -8 -8 -8 -8 -8 -8 -8 -8 -8 -8 -8 -8 -8 -8 -8 -8 -8 -8 -8 -8 -8 -8 -8 -2 56 
56 -2 -8 -8 -8 -8 -8 -8 -8 -8 -8 -8 -8 -8 -8 -8 -8 -8 -8 -8 -8 -8 -8 -8 -8 -8 -8 -8 -8 -8 -8 -8 -8 -8 -8 -8 -8 -8 -8 -8 -8 -8 -8 -8 -8 -8 -8 -8 -8 -8 -8 -8 -8 -8 -8 -8 -8 -8 -8 -8 -8 -8 -8 -8 -8 0 60 61 4 -2 -7 -8 -8 -8 -8 -8 -8 -8 -8 -8 -8 -8 -8 -8 -8 -8 -8 -8 -8 -8 -8 -8 -8 -8 -8 -8 -8 -8 -8 -8 -8 -8 -8 -8 -8 -8 -8 -8 -2 56 
56 -2 -8 -8 -8 -8 -8 -8 -8 -8 -8 -8 -8 -8 -8 -8 -8 -8 -8 -8 -8 -8 -8 -8 -8 -8 -8 -8 -8 -8 -8 -8 -8 -8 -8 -8 -8 -8 -8 -8 -8 -8 -8 -8 -8 -8 -8 -8 -8 -8 -8 -8 -8 -8 -8 -8 -8 -8 -8 -8 -8 -8 -8 -8 -8 -1 56 56 -1 -7 -8 -8 -8 -8 -8 -8 -8 -8 -8 -8 -8 -8 -8 -8 -8 -8 -8 -8 -8 -8 -8 -8 -8 -8 -8 -8 -8 -8 -8 -8 -8 -8 -8 -8 -8 -8 -8 -8 -2 56 
56 -1 -7 -8 -8 -8 -8 -8 -8 -8 -8 -8 -8 -8 -8 -8 -8 -8 -8 -8 -8 -8 -8 -8 -8 -8 -8 -8 -8 -8 -8 -8 -8 -8 -8 -8 -8 -8 -8 -8 -8 -8 -8 -8 -8 -8 -8 -8 -8 -8 -8 -8 -8 -8 -8 -8 -8 -8 -8 -8 -8 -8 -8 -8 -7 -1 56 56 -1 -7 -8 -8 -8 -8 -8 -8 -8 -8 -8 -8 -8 -8 -8 -8 -8 -8 -8 -8 -8 -8 -8 -8 -8 -8 -8 -8 -8 -8 -8 -8 -8 -8 -8 -8 -8 -8 -8 -7 -1 56 
61 4 -1 -2 -2 -2 -2 -2 -2 -2 -2 -2 -2 -2 -2 -2 -2 -2 -2 -2 -2 -2 -2 -2 -2 -2 -2 -2 -2 -2 -2 -2 -2 -2 -2 -2 -2 -2 -2 -2 -2 -2 -2 -2 -2 -2 -2 -2 -2 -2 -2 -2 -2 -2 -2 -2 -2 -2 -2 -2 -2 -2 -2 -2 -1 4 61 61 4 -1 -2 -2 -2 -2 -2 -2 -2 -2 -2 -2 -2 -2 -2 -2 -2 -2 -2 -2 -2 -2 -2 -2 -2 -2 -2 -2 -2 -2 -2 -2 -2 -2 -2 -2 -2 -2 -2 -1 4 61 
105 61 56 56 56 56 56 56 56 56 56 56 56 56 56 56 56 56 56 56 56 56 56 56 56 56 56 56 56 56 56 56 56 57 57 56 56 56 56 56 56 56 56 56 56 56 56 56 56 57 57 56 56 56 56 56 56 56 56 56 56 56 56 56 56 60 104 104 60 56 56 56 56 56 56 56 56 56 56 56 56 56 56 56 56 56 56 56 56 56 56 56 57 57 56 56 56 56 56 56 56 56 56 56 57 57 56 56 61 105 
