P2
110 110
255
138 92 81 79 79 79 79 79 79 79 79 79 79 79 79 79 79 79 79 79 79 79 79 79 79 79 79 79 79 79 80 87 113 153 122 88 80 79 79 79 79 79 79 79 79 79 79 81 91 133 133 91 81 79 79 79 79 79 79 79 79 79 79 79 79 80 83 83 80 79 79 79 79 79 79 79 79 79 79 79 79 79 79 79 79 79 79 79 79 80 84 107 152 122 88 80 79 79 79 79 79 80 84 106 152 122 88 82 92 138 
92 27 12 11 10 10 10 10 10 10 10 10 10 10 10 10 10 10 10 10 10 10 10 10 10 10 10 10 11 11 16 44 111 105 39 15 11 10 10 10 10 10 10 10 10 10 11 13 28 93 92 27 12 11 10 10 10 10 10 10 10 10 10 10 10 10 10 10 10 10 10 10 10 10 10 10 10 10 10 10 10 10 10 10 10 10 10 10 11 13 28 87 112 42 15 11 10 10 10 10 11 12 24 81 114 43 16 13 27 92 
81 12 -2 -4 -4 -4 -4 -4 -4 -4 -4 -4 -4 -4 -4 -4 -4 -4 -4 -4 -4 -4 -4 -4 -4 -4 -4 -4 -4 -2 13 74 107 38 3 -3 -4 -4 -4 -4 -4 -4 -4 -4 -4 -4 -4 -2 16 89 82 12 -2 -4 -4 -4 -4 -4 -4 -4 -4 -4 -4 -4 -4 -4 -4 -4 -4 -4 -4 -4 -4 -4 -4 -4 -4 -4 -4 -4 -4 -4 -4 -4 -4 -4 -4 -4 -4 0 31 106 73 12 -2 -4 -4 -4 -4 -4 -4 -2 12 80 86 15 -1 -2 12 81 
79 11 -4 -6 -6 -6 -6 -6 -6 -6 -6 -6 -6 -6 -6 -6 -6 -6 -6 -6 -6 -6 -6 -6 -6 -6 -6 -6 -5 2 38 106 72 11 -4 -6 -6 -6 -6 -6 -6 -6 -6 -6 -6 -6 -6 0 31 120 83 11 -4 -6 -6 -6 -6 -6 -6 -6 -6 -6 -6 -6 -6 -6 -6 -6 -6 -6 -6 -6 -6 -6 -6 -6 -6 -6 -6 -6 -6 -6 -6 -6 -6 -6 -6 -6 -5 7 67 106 30 0 -6 -6 -6 -6 -6 -6 -6 -4 14 85 78 10 -4 -4 11 79 
79 10 -4 -6 -6 -6 -6 -6 -6 -6 -6 -6 -6 -6 -6 -6 -6 -6 -6 -6 -6 -6 -6 -6 -6 -6 -6 -6 -1 27 98 98 27 -1 -6 -6 -6 -6 -6 -6 -6 -6 -6 -6 -6 -6 -4 10 75 155 85 10 -4 -6 -6 -6 -6 -6 -6 -6 -6 -6 -6 -6 -6 -6 -6 -6 -6 -6 -6 -6 -6 -6 -6 -6 -6 -6 -6 -6 -6 -6 -6 -6 -6 -6 -6 -6 -4 13 83 83 13 -4 -6 -6 -6 -6 -6 -6 -6 -1 29 106 66 7 -5 -4 10 79 
79 10 -4 -6 -6 -6 -6 -6 -6 -6 -6 -6 -6 -6 -6 -6 -6 -6 -6 -6 -6 -6 -6 -6 -6 -6 -6 -4 11 72 106 37 2 -5 -6 -6 -6 -6 -6 -6 -6 -6 -6 -6 -6 -6 0 30 111 139 83 10 -4 -6 -6 -6 -6 -6 -6 -6 -6 -6 -6 -6 -6 -6 -6 -6 -6 -6 -6 -6 -6 -6 -6 -6 -6 -6 -6 -6 -6 -6 -6 -6 -6 -6 -6 -6 0 30 106 66 7 -5 -6 -6 -6 -6 -6 -6 -5 7 66 106 29 -1 -6 -4 10 79 
79 10 -4 -6 -6 -6 -6 -6 -6 -6 -6 -6 -6 -6 -6 -6 -6 -6 -6 -6 -6 -6 -6 -6 -6 -6 -5 2 37 106 72 11 -4 -6 -6 -6 -6 -6 -6 -6 -6 -6 -6 -6 -6 -4 10 73 117 109 81 11 -4 -6 -6 -6 -6 -6 -6 -6 -6 -6 -6 -6 -6 -6 -6 -6 -6 -6 -6 -6 -6 -6 -6 -6 -6 -6 -6 -6 -6 -6 -6 -6 -6 -6 -6 -4 10 73 105 29 -1 -6 -6 -6 -6 -6 -6 -6 -4 10 78 85 14 -4 -6 -4 10 79 
79 10 -4 -6 -6 -6 -6 -6 -6 -6 -6 -6 -6 -6 -6 -6 -6 -6 -6 -6 -6 -6 -6 -6 -6 -6 -1 27 98 98 27 -1 -6 -6 -6 -6 -6 -6 -6 -6 -6 -6 -6 -6 -6 0 30 106 87 92 86 14 -4 -6 -6 -6 -6 -6 -6 -6 -6 -6 -6 -6 -6 -6 -6 -6 -6 -6 -6 -6 -6 -6 -6 -6 -6 -6 -6 -6 -6 -6 -6 -6 -6 -6 -6 -1 29 105 73 10 -4 -6 -6 -6 -6 -6 -6 -6 -4 14 85 78 10 -4 -6 -4 10 79 
79 10 -4 -6 -6 -6 -6 -6 -6 -6 -6 -6 -6 -6 -6 -6 -6 -6 -6 -6 -6 -6 -6 -6 -6 -4 11 72 106 37 2 -5 -6 -6 -6 -6 -6 -6 -6 -6 -6 -6 -6 -6 -4 11 73 106 43 71 106 29 -1 -6 -6 -6 -6 -6 -6 -6 -6 -6 -6 -6 -6 -6 -6 -6 -6 -6 -6 -6 -6 -6 -6 -6 -6 -6 -6 -6 -6 -6 -6 -6 -6 -6 -5 7 66 106 30 0 -6 -6 -6 -6 -6 -6 -6 -6 -1 29 106 66 7 -5 -6 -4 10 79 
79 10 -4 -6 -6 -6 -6 -6 -6 -6 -6 -6 -6 -6 -6 -6 -6 -6 -6 -6 -6 -6 -6 -6 -5 2 37 106 72 11 -4 -6 -6 -6 -6 -6 -6 -6 -6 -6 -6 -6 -6 -5 2 37 106 73 16 31 106 66 7 -5 -6 -6 -6 -6 -6 -6 -6 -6 -6 -6 -6 -6 -6 -6 -6 -6 -6 -6 -6 -6 -6 -6 -6 -6 -6 -6 -6 -6 -6 -6 -6 -6 -4 13 83 83 13 -4 -6 -6 -6 -6 -6 -6 -6 -5 7 66 106 29 -1 -6 -6 -4 10 79 
79 10 -4 -6 -6 -6 -6 -6 -6 -6 -6 -6 -6 -6 -6 -6 -6 -6 -6 -6 -6 -6 -6 -6 -1 27 98 98 27 -1 -6 -6 -6 -6 -6 -6 -6 -6 -6 -6 -6 -6 -6 -1 27 98 98 27 1 14 85 77 10 -4 -6 -6 -6 -6 -6 -6 -6 -6 -6 -6 -6 -6 -6 -6 -6 -6 -6 -6 -6 -6 -6 -6 -6 -6 -6 -6 -6 -6 -6 -6 -6 -6 0 30 106 66 7 -5 -6 -6 -6 -6 -6 -6 -6 -4 10 78 85 14 -4 -6 -6 -4 10 79 
79 10 -4 -6 -6 -6 -6 -6 -6 -6 -6 -6 -6 -6 -6 -6 -6 -6 -6 -6 -6 -6 -6 -4 11 72 106 37 2 -5 -6 -6 -6 -6 -6 -6 -6 -6 -6 -6 -6 -6 -4 10 72 106 37 2 -3 11 80 79 10 -4 -6 -6 -6 -6 -6 -6 -6 -6 -6 -6 -6 -6 -6 -6 -6 -6 -6 -6 -6 -6 -6 -6 -6 -6 -6 -6 -6 -6 -6 -6 -6 -4 10 73 105 29 -1 -6 -6 -6 -6 -6 -6 -6 -6 -4 14 85 78 10 -4 -6 -6 -4 10 79 
80 11 -4 -6 -6 -6 -6 -6 -6 -6 -6 -6 -6 -6 -6 -6 -6 -6 -6 -6 -6 -6 -5 2 37 106 72 11 -4 -6 -6 -6 -6 -6 -6 -6 -6 -6 -6 -6 -6 -6 0 30 105 73 11 -4 -4 10 79 79 10 -4 -6 -6 -6 -6 -6 -6 -6 -6 -6 -6 -6 -6 -6 -6 -6 -6 -6 -6 -6 -6 -6 -6 -6 -6 -6 -6 -6 -6 -6 -6 -6 -1 29 105 73 10 -4 -6 -6 -6 -6 -6 -6 -6 -6 -1 29 106 66 7 -5 -6 -6 -4 10 79 
88 15 -3 -6 -6 -6 -6 -6 -6 -6 -6 -6 -6 -6 -6 -6 -6 -6 -6 -6 -6 -6 -1 27 98 98 27 -1 -6 -6 -6 -6 -6 -6 -6 -6 -6 -6 -6 -6 -6 -4 10 73 105 30 0 -6 -4 10 79 80 11 -4 -6 -6 -6 -6 -6 -6 -6 -6 -6 -6 -6 -6 -6 -6 -6 -6 -6 -6 -6 -6 -6 -6 -6 -6 -6 -6 -6 -6 -6 -6 -5 7 66 106 30 0 -6 -6 -6 -6 -6 -6 -6 -6 -5 7 66 106 29 -1 -6 -6 -6 -4 10 80 
122 39 3 -5 -6 -6 -6 -6 -6 -6 -6 -6 -6 -6 -6 -6 -6 -6 -6 -6 -6 -4 11 72 106 37 2 -5 -6 -6 -6 -6 -6 -6 -6 -6 -6 -6 -6 -6 -6 0 30 105 73 10 -4 -6 -4 10 77 85 14 -4 -6 -6 -6 -6 -6 -6 -6 -6 -6 -6 -6 -6 -6 -6 -6 -6 -6 -6 -6 -6 -6 -6 -6 -6 -6 -6 -6 -6 -6 -6 -4 13 83 83 13 -4 -6 -6 -6 -6 -6 -6 -6 -6 -4 10 78 85 14 -4 -6 -6 -6 -4 10 83 
153 105 35 3 -5 -6 -6 -6 -6 -6 -6 -6 -6 -6 -6 -6 -6 -6 -6 -6 -5 2 37 106 72 11 -4 -6 -6 -6 -6 -6 -6 -6 -6 -6 -6 -6 -6 -6 -4 11 73 105 30 0 -6 -6 -5 7 66 106 29 -1 -6 -6 -6 -6 -6 -6 -6 -6 -6 -6 -6 -6 -6 -6 -6 -6 -6 -6 -6 -6 -6 -6 -6 -6 -6 -6 -6 -6 -6 -6 0 30 106 66 7 -5 -6 -6 -6 -6 -6 -6 -6 -6 -4 14 85 78 10 -4 -6 -6 -6 -4 10 84 
113 112 100 35 1 -5 -6 -6 -6 -6 -6 -6 -6 -6 -6 -6 -6 -6 -6 -6 -1 27 98 98 27 -1 -6 -6 -6 -6 -6 -6 -6 -6 -6 -6 -6 -6 -6 -5 2 37 106 72 10 -4 -6 -6 -6 -1 29 106 66 7 -5 -6 -6 -6 -6 -6 -6 -6 -6 -6 -6 -6 -6 -6 -6 -6 -6 -6 -6 -6 -6 -6 -6 -6 -6 -6 -6 -6 -6 -4 10 73 105 29 -1 -6 -6 -6 -6 -6 -6 -6 -6 -6 -1 29 106 66 7 -5 -6 -6 -6 -4 10 81 
88 52 101 98 27 -1 -6 -6 -6 -6 -6 -6 -6 -6 -6 -6 -6 -6 -6 -4 11 72 106 37 2 -5 -6 -6 -6 -6 -6 -6 -6 -6 -6 -6 -6 -6 -6 -1 27 98 98 27 -1 -6 -6 -6 -6 -4 14 85 77 10 -4 -6 -6 -6 -6 -6 -6 -6 -6 -6 -6 -6 -6 -6 -6 -6 -6 -6 -6 -6 -6 -6 -6 -6 -6 -6 -6 -6 -6 -1 29 105 73 10 -4 -6 -6 -6 -6 -6 -6 -6 -6 -5 7 66 106 29 -1 -6 -6 -6 -6 -4 10 80 
81 21 40 106 72 11 -4 -6 -6 -6 -6 -6 -6 -6 -6 -6 -6 -6 -5 2 37 106 72 11 -4 -6 -6 -6 -6 -6 -6 -6 -6 -6 -6 -6 -6 -6 -4 10 72 106 37 2 -5 -6 -6 -6 -6 -4 11 80 79 10 -4 -6 -6 -6 -6 -6 -6 -6 -6 -6 -6 -6 -6 -6 -6 -6 -6 -6 -6 -6 -6 -6 -6 -6 -6 -6 -6 -6 -5 7 66 106 30 0 -6 -6 -6 -6 -6 -6 -6 -6 -6 -4 10 78 85 14 -4 -6 -6 -6 -6 -4 10 79 
80 13 13 73 106 38 3 -5 -6 -6 -6 -6 -6 -6 -6 -6 -6 -6 -1 27 98 98 27 -1 -6 -6 -6 -6 -6 -6 -6 -6 -6 -6 -6 -6 -6 -6 0 30 105 73 11 -4 -6 -6 -6 -6 -6 -4 10 79 79 10 -4 -6 -6 -6 -6 -6 -6 -6 -6 -6 -6 -6 -6 -6 -6 -6 -6 -6 -6 -6 -6 -6 -6 -6 -6 -6 -6 -6 -4 13 83 83 13 -4 -6 -6 -6 -6 -6 -6 -6 -6 -6 -4 14 85 78 10 -4 -6 -6 -6 -6 -4 10 79 
79 11 0 27 98 100 35 3 -5 -6 -6 -6 -6 -6 -6 -6 -6 -4 11 72 106 37 2 -5 -6 -6 -6 -6 -6 -6 -6 -6 -6 -6 -6 -6 -6 -4 10 73 105 30 0 -6 -6 -6 -6 -6 -6 -4 10 79 80 11 -4 -6 -6 -6 -6 -6 -6 -6 -6 -6 -6 -6 -6 -6 -6 -6 -6 -6 -6 -6 -6 -6 -6 -6 -6 -6 -6 -6 0 30 106 66 7 -5 -6 -6 -6 -6 -6 -6 -6 -6 -6 -1 29 106 66 7 -5 -6 -6 -6 -6 -4 10 79 
79 11 -3 2 35 99 99 35 3 -5 -6 -6 -6 -6 -6 -6 -5 2 37 106 72 11 -4 -6 -6 -6 -6 -6 -6 -6 -6 -6 -6 -6 -6 -6 -6 0 30 105 73 10 -4 -6 -6 -6 -6 -6 -6 -4 10 77 85 14 -4 -6 -6 -6 -6 -6 -6 -6 -6 -6 -6 -6 -6 -6 -6 -6 -6 -6 -6 -6 -6 -6 -6 -6 -6 -6 -6 -4 10 73 105 29 -1 -6 -6 -6 -6 -6 -6 -6 -6 -6 -5 7 66 106 29 -1 -6 -6 -6 -6 -6 -4 10 79 
79 10 -4 -5 3 35 99 99 35 3 -5 -6 -6 -6 -6 -6 -1 27 98 98 27 -1 -6 -6 -6 -6 -6 -6 -6 -6 -6 -6 -6 -6 -6 -6 -4 11 73 105 30 0 -6 -6 -6 -6 -6 -6 -6 -5 7 66 106 29 -1 -6 -6 -6 -6 -6 -6 -6 -6 -6 -6 -6 -6 -6 -6 -6 -6 -6 -6 -6 -6 -6 -6 -6 -6 -6 -6 -1 29 105 73 10 -4 -6 -6 -6 -6 -6 -6 -6 -6 -6 -4 10 78 85 14 -4 -6 -6 -6 -6 -6 -4 10 79 
79 10 -4 -6 -5 3 35 99 99 35 3 -5 -6 -6 -6 -4 11 72 106 37 2 -5 -6 -6 -6 -6 -6 -6 -6 -6 -6 -6 -6 -6 -6 -5 2 37 106 72 10 -4 -6 -6 -6 -6 -6 -6 -6 -6 -1 29 106 66 7 -5 -6 -6 -6 -6 -6 -6 -6 -6 -6 -6 -6 -6 -6 -6 -6 -6 -6 -6 -6 -6 -6 -6 -6 -6 -5 7 66 106 30 0 -6 -6 -6 -6 -6 -6 -6 -6 -6 -6 -4 14 85 78 10 -4 -6 -6 -6 -6 -6 -4 10 79 
79 10 -4 -6 -6 -5 3 35 99 99 35 3 -5 -6 -5 2 37 106 72 11 -4 -6 -6 -6 -6 -6 -6 -6 -6 -6 -6 -6 -6 -6 -6 -1 27 98 98 27 -1 -6 -6 -6 -6 -6 -6 -6 -6 -6 -4 14 85 77 10 -4 -6 -6 -6 -6 -6 -6 -6 -6 -6 -6 -6 -6 -6 -6 -6 -6 -6 -6 -6 -6 -6 -6 -6 -6 -4 13 83 83 13 -4 -6 -6 -6 -6 -6 -6 -6 -6 -6 -6 -1 29 106 66 7 -5 -6 -6 -6 -6 -6 -4 10 79 
79 10 -4 -6 -6 -6 -5 3 35 99 99 35 3 -4 0 27 98 98 27 -1 -6 -6 -6 -6 -6 -6 -6 -6 -6 -6 -6 -6 -6 -6 -4 10 72 106 37 2 -5 -6 -6 -6 -6 -6 -6 -6 -6 -6 -4 11 80 79 10 -4 -6 -6 -6 -6 -6 -6 -6 -6 -6 -6 -6 -6 -6 -6 -6 -6 -6 -6 -6 -6 -6 -6 -6 -6 0 30 106 66 7 -5 -6 -6 -6 -6 -6 -6 -6 -6 -6 -5 7 66 106 29 -1 -6 -6 -6 -6 -6 -6 -4 10 79 
79 10 -4 -6 -6 -6 -6 -5 3 35 99 99 35 5 13 73 106 37 2 -5 -6 -6 -6 -6 -6 -6 -6 -6 -6 -6 -6 -6 -6 -6 0 30 105 73 11 -4 -6 -6 -6 -6 -6 -6 -6 -6 -6 -6 -4 10 79 80 11 -4 -6 -6 -6 -6 -6 -6 -6 -6 -6 -6 -6 -6 -6 -6 -6 -6 -6 -6 -6 -6 -6 -6 -6 -4 10 73 105 29 -1 -6 -6 -6 -6 -6 -6 -6 -6 -6 -6 -4 10 78 85 14 -4 -6 -6 -6 -6 -6 -6 -4 10 79 
79 10 -4 -6 -6 -6 -6 -6 -5 3 35 99 100 43 46 107 72 11 -4 -6 -6 -6 -6 -6 -6 -6 -6 -6 -6 -6 -6 -6 -6 -4 10 73 105 30 0 -6 -6 -6 -6 -6 -6 -6 -6 -6 -6 -6 -4 10 77 85 14 -4 -6 -6 -6 -6 -6 -6 -6 -6 -6 -6 -6 -6 -6 -6 -6 -6 -6 -6 -6 -6 -6 -6 -6 -1 29 105 73 10 -4 -6 -6 -6 -6 -6 -6 -6 -6 -6 -6 -4 14 85 78 10 -4 -6 -6 -6 -6 -6 -6 -4 10 79 
79 10 -4 -6 -6 -6 -6 -6 -6 -5 3 35 101 122 122 100 27 -1 -6 -6 -6 -6 -6 -6 -6 -6 -6 -6 -6 -6 -6 -6 -6 0 30 105 73 10 -4 -6 -6 -6 -6 -6 -6 -6 -6 -6 -6 -6 -5 7 66 106 29 -1 -6 -6 -6 -6 -6 -6 -6 -6 -6 -6 -6 -6 -6 -6 -6 -6 -6 -6 -6 -6 -6 -6 -5 7 66 106 30 0 -6 -6 -6 -6 -6 -6 -6 -6 -6 -6 -6 -1 29 106 66 7 -5 -6 -6 -6 -6 -6 -6 -4 10 79 
79 10 -4 -6 -6 -6 -6 -6 -6 -6 -5 3 39 123 123 39 2 -5 -6 -6 -6 -6 -6 -6 -6 -6 -6 -6 -6 -6 -6 -6 -4 11 73 105 30 0 -6 -6 -6 -6 -6 -6 -6 -6 -6 -6 -6 -6 -6 -1 29 106 66 7 -5 -6 -6 -6 -6 -6 -6 -6 -6 -6 -6 -6 -6 -6 -6 -6 -6 -6 -6 -6 -6 -6 -4 13 83 83 13 -4 -6 -6 -6 -6 -6 -6 -6 -6 -6 -6 -5 7 66 106 29 -1 -6 -6 -6 -6 -6 -6 -6 -4 10 79 
79 10 -4 -6 -6 -6 -6 -6 -6 -6 -6 -3 15 88 89 15 -3 -6 -6 -6 -6 -6 -6 -6 -6 -6 -6 -6 -6 -6 -6 -5 2 37 106 72 10 -4 -6 -6 -6 -6 -6 -6 -6 -6 -6 -6 -6 -6 -6 -4 14 85 77 10 -4 -6 -6 -6 -6 -6 -6 -6 -6 -6 -6 -6 -6 -6 -6 -6 -6 -6 -6 -6 -6 -6 0 30 106 66 7 -5 -6 -6 -6 -6 -6 -6 -6 -6 -6 -6 -4 10 78 85 14 -4 -6 -6 -6 -6 -6 -6 -6 -4 10 79 
79 10 -4 -6 -6 -6 -6 -6 -6 -6 -6 -4 10 78 86 14 -4 -6 -6 -6 -6 -6 -6 -6 -6 -6 -6 -6 -6 -6 -6 -1 27 98 98 27 -1 -6 -6 -6 -6 -6 -6 -6 -6 -6 -6 -6 -6 -6 -6 -4 11 80 79 10 -4 -6 -6 -6 -6 -6 -6 -6 -6 -6 -6 -6 -6 -6 -6 -6 -6 -6 -6 -6 -6 -4 10 73 105 29 -1 -6 -6 -6 -6 -6 -6 -6 -6 -6 -6 -6 -4 14 85 78 10 -4 -6 -6 -6 -6 -6 -6 -6 -4 10 79 
79 10 -4 -6 -6 -6 -6 -6 -6 -6 -6 -5 7 66 106 29 -1 -6 -6 -6 -6 -6 -6 -6 -6 -6 -6 -6 -6 -6 -4 10 72 106 37 2 -5 -6 -6 -6 -6 -6 -6 -6 -6 -6 -6 -6 -6 -6 -6 -4 10 79 79 10 -4 -6 -6 -6 -6 -6 -6 -6 -6 -6 -6 -6 -6 -6 -6 -6 -6 -6 -6 -6 -6 -1 29 105 73 10 -4 -6 -6 -6 -6 -6 -6 -6 -6 -6 -6 -6 -1 29 106 66 7 -5 -6 -6 -6 -6 -6 -6 -6 -4 10 79 
79 10 -4 -6 -6 -6 -6 -6 -6 -6 -6 -6 -1 29 106 66 7 -5 -6 -6 -6 -6 -6 -6 -6 -6 -6 -6 -6 -6 0 30 105 73 11 -4 -6 -6 -6 -6 -6 -6 -6 -6 -6 -6 -6 -6 -6 -6 -6 -4 10 79 80 11 -4 -6 -6 -6 -6 -6 -6 -6 -6 -6 -6 -6 -6 -6 -6 -6 -6 -6 -6 -6 -5 7 66 106 30 0 -6 -6 -6 -6 -6 -6 -6 -6 -6 -6 -6 -5 7 66 106 29 -1 -6 -6 -6 -6 -6 -6 -6 -6 -4 10 79 
79 10 -4 -6 -6 -6 -6 -6 -6 -6 -6 -6 -4 14 85 77 10 -4 -6 -6 -6 -6 -6 -6 -6 -6 -6 -6 -6 -4 10 73 105 30 0 -6 -6 -6 -6 -6 -6 -6 -6 -6 -6 -6 -6 -6 -6 -6 -6 -4 10 77 85 14 -4 -6 -6 -6 -6 -6 -6 -6 -6 -6 -6 -6 -6 -6 -6 -6 -6 -6 -6 -6 -4 13 83 83 13 -4 -6 -6 -6 -6 -6 -6 -6 -6 -6 -6 -6 -4 10 78 85 14 -4 -6 -6 -6 -6 -6 -6 -6 -6 -4 10 79 
79 10 -4 -6 -6 -6 -6 -6 -6 -6 -6 -6 -4 11 80 80 11 -4 -6 -6 -6 -6 -6 -6 -6 -6 -6 -6 -6 0 30 105 73 10 -4 -6 -6 -6 -6 -6 -6 -6 -6 -6 -6 -6 -6 -6 -6 -6 -6 -5 7 66 106 29 -1 -6 -6 -6 -6 -6 -6 -6 -6 -6 -6 -6 -6 -6 -6 -6 -6 -6 -6 -6 0 30 106 66 7 -5 -6 -6 -6 -6 -6 -6 -6 -6 -6 -6 -6 -4 14 85 78 10 -4 -6 -6 -6 -6 -6 -6 -6 -6 -4 11 80 
80 10 -4 -6 -6 -6 -6 -6 -6 -6 -6 -6 -4 10 77 85 14 -4 -6 -6 -6 -6 -6 -6 -6 -6 -6 -6 -4 11 73 105 30 0 -6 -6 -6 -6 -6 -6 -6 -6 -6 -6 -6 -6 -6 -6 -6 -6 -6 -6 -1 29 106 66 7 -5 -6 -6 -6 -6 -6 -6 -6 -6 -6 -6 -6 -6 -6 -6 -6 -6 -6 -4 10 73 105 29 -1 -6 -6 -6 -6 -6 -6 -6 -6 -6 -6 -6 -6 -1 29 106 66 7 -5 -6 -6 -6 -6 -6 -6 -6 -6 -4 14 87 
83 10 -4 -6 -6 -6 -6 -6 -6 -6 -6 -6 -5 7 66 106 29 -1 -6 -6 -6 -6 -6 -6 -6 -6 -6 -5 2 37 106 72 10 -4 -6 -6 -6 -6 -6 -6 -6 -6 -6 -6 -6 -6 -6 -6 -6 -6 -6 -6 -4 14 85 77 10 -4 -6 -6 -6 -6 -6 -6 -6 -6 -6 -6 -6 -6 -6 -6 -6 -6 -6 -1 29 105 73 10 -4 -6 -6 -6 -6 -6 -6 -6 -6 -6 -6 -6 -5 7 66 106 29 -1 -6 -6 -6 -6 -6 -6 -6 -6 -6 0 31 120 
84 10 -4 -6 -6 -6 -6 -6 -6 -6 -6 -6 -6 -1 29 106 66 7 -5 -6 -6 -6 -6 -6 -6 -6 -6 -1 27 98 98 27 -1 -6 -6 -6 -6 -6 -6 -6 -6 -6 -6 -6 -6 -6 -6 -6 -6 -6 -6 -6 -4 11 80 79 10 -4 -6 -6 -6 -6 -6 -6 -6 -6 -6 -6 -6 -6 -6 -6 -6 -6 -5 7 66 106 30 0 -6 -6 -6 -6 -6 -6 -6 -6 -6 -6 -6 -6 -4 10 78 85 14 -4 -6 -6 -6 -6 -6 -6 -6 -6 -4 11 75 155 
82 10 -4 -6 -6 -6 -6 -6 -6 -6 -6 -6 -6 -4 14 85 77 10 -4 -6 -6 -6 -6 -6 -6 -6 -4 10 72 106 37 2 -5 -6 -6 -6 -6 -6 -6 -6 -6 -6 -6 -6 -6 -6 -6 -6 -6 -6 -6 -6 -4 10 79 79 10 -4 -6 -6 -6 -6 -6 -6 -6 -6 -6 -6 -6 -6 -6 -6 -6 -6 -4 13 83 83 13 -4 -6 -6 -6 -6 -6 -6 -6 -6 -6 -6 -6 -6 -4 14 85 78 10 -4 -6 -6 -6 -6 -6 -6 -6 -5 2 38 112 139 
80 10 -4 -6 -6 -6 -6 -6 -6 -6 -6 -6 -6 -4 11 80 80 11 -4 -6 -6 -6 -6 -6 -6 -6 0 30 105 73 11 -4 -6 -6 -6 -6 -6 -6 -6 -6 -6 -6 -6 -6 -6 -6 -6 -6 -6 -6 -6 -6 -4 10 79 80 11 -4 -6 -6 -6 -6 -6 -6 -6 -6 -6 -6 -6 -6 -6 -6 -6 -6 0 30 106 66 7 -5 -6 -6 -6 -6 -6 -6 -6 -6 -6 -6 -6 -6 -1 29 106 66 7 -5 -6 -6 -6 -6 -6 -6 -6 -1 27 99 111 107 
80 10 -4 -6 -6 -6 -6 -6 -6 -6 -6 -6 -6 -4 10 77 85 14 -4 -6 -6 -6 -6 -6 -6 -4 10 73 105 30 0 -6 -6 -6 -6 -6 -6 -6 -6 -6 -6 -6 -6 -6 -6 -6 -6 -6 -6 -6 -6 -6 -4 10 77 85 14 -4 -6 -6 -6 -6 -6 -6 -6 -6 -6 -6 -6 -6 -6 -6 -6 -4 10 73 105 29 -1 -6 -6 -6 -6 -6 -6 -6 -6 -6 -6 -6 -6 -5 7 66 106 29 -1 -6 -6 -6 -6 -6 -6 -6 -4 11 72 107 54 87 
79 10 -4 -6 -6 -6 -6 -6 -6 -6 -6 -6 -6 -5 7 66 106 29 -1 -6 -6 -6 -6 -6 -6 0 30 105 73 10 -4 -6 -6 -6 -6 -6 -6 -6 -6 -6 -6 -6 -6 -6 -6 -6 -6 -6 -6 -6 -6 -6 -5 7 66 106 29 -1 -6 -6 -6 -6 -6 -6 -6 -6 -6 -6 -6 -6 -6 -6 -6 -1 29 105 73 10 -4 -6 -6 -6 -6 -6 -6 -6 -6 -6 -6 -6 -6 -4 10 78 85 14 -4 -6 -6 -6 -6 -6 -6 -5 2 37 106 74 29 82 
79 10 -4 -6 -6 -6 -6 -6 -6 -6 -6 -6 -6 -6 -1 29 106 66 7 -5 -6 -6 -6 -6 -4 11 73 105 30 0 -6 -6 -6 -6 -6 -6 -6 -6 -6 -6 -6 -6 -6 -6 -6 -6 -6 -6 -6 -6 -6 -6 -6 -1 29 106 66 7 -5 -6 -6 -6 -6 -6 -6 -6 -6 -6 -6 -6 -6 -6 -5 7 66 106 30 0 -6 -6 -6 -6 -6 -6 -6 -6 -6 -6 -6 -6 -6 -4 14 85 78 10 -4 -6 -6 -6 -6 -6 -6 -1 27 98 98 29 16 80 
79 10 -4 -6 -6 -6 -6 -6 -6 -6 -6 -6 -6 -6 -4 14 85 77 10 -4 -6 -6 -6 -5 2 37 106 72 10 -4 -6 -6 -6 -6 -6 -6 -6 -6 -6 -6 -6 -6 -6 -6 -6 -6 -6 -6 -6 -6 -6 -6 -6 -4 14 86 79 12 -2 -4 -4 -5 -6 -6 -6 -6 -6 -6 -6 -6 -6 -6 -4 13 83 83 13 -4 -6 -6 -6 -6 -6 -6 -6 -6 -6 -6 -6 -6 -6 -1 29 106 66 7 -5 -6 -6 -6 -6 -6 -4 11 72 106 38 4 12 79 
79 10 -4 -6 -6 -6 -6 -6 -6 -6 -6 -6 -6 -6 -4 11 80 80 11 -4 -6 -6 -6 -1 27 98 98 27 -1 -6 -6 -6 -6 -6 -6 -6 -6 -6 -6 -6 -6 -6 -6 -6 -6 -6 -6 -6 -6 -6 -6 -6 -6 -2 16 89 91 27 12 11 10 7 -1 -4 -4 -4 -4 -4 -5 -6 -6 -6 0 30 106 66 7 -5 -6 -6 -6 -6 -6 -6 -6 -6 -6 -6 -6 -6 -5 7 66 106 29 -1 -6 -6 -6 -6 -6 -5 2 37 106 72 11 -2 11 79 
79 10 -4 -6 -6 -6 -6 -6 -6 -6 -6 -6 -6 -6 -4 10 77 85 14 -4 -6 -6 -4 10 72 106 37 2 -5 -6 -6 -6 -6 -6 -6 -6 -6 -6 -6 -6 -6 -6 -6 -6 -6 -6 -6 -6 -6 -6 -6 -5 -1 12 42 124 133 91 81 79 77 66 29 14 11 10 10 10 7 -1 -4 -2 12 73 105 29 -1 -6 -6 -6 -6 -6 -6 -6 -6 -6 -6 -6 -6 -6 -4 10 78 85 14 -4 -6 -6 -6 -6 -6 -1 27 98 98 27 0 -4 11 79 
79 10 -4 -6 -6 -6 -6 -6 -6 -6 -6 -6 -6 -6 -5 7 66 106 29 -1 -6 -6 0 30 105 73 11 -4 -6 -6 -6 -6 -6 -6 -6 -6 -6 -6 -6 -6 -6 -6 -6 -6 -6 -6 -6 -6 -6 -6 -4 2 27 73 108 114 91 81 80 80 85 106 106 85 80 79 79 77 66 29 14 16 42 108 73 10 -4 -6 -6 -6 -6 -6 -6 -6 -6 -6 -6 -6 -6 -6 -4 14 85 78 10 -4 -6 -6 -6 -6 -4 11 72 106 37 2 -5 -4 10 79 
79 10 -4 -6 -6 -6 -6 -6 -6 -6 -6 -6 -6 -6 -6 -1 29 106 66 7 -5 -4 10 73 105 30 0 -6 -6 -6 -6 -6 -6 -6 -6 -6 -6 -6 -6 -6 -6 -6 -6 -6 -6 -6 -6 -6 -5 -1 11 37 98 106 73 31 14 11 11 11 14 29 66 77 79 79 80 85 106 106 86 89 124 121 34 0 -6 -6 -6 -6 -6 -6 -6 -6 -6 -6 -6 -6 -6 -6 -1 29 106 66 7 -5 -6 -6 -6 -5 2 37 106 72 11 -4 -6 -4 10 79 
79 10 -4 -6 -6 -6 -6 -6 -6 -6 -6 -6 -6 -6 -6 -4 14 85 77 10 -4 0 30 105 73 10 -4 -6 -6 -6 -6 -6 -6 -6 -6 -6 -6 -6 -6 -6 -6 -6 -6 -6 -6 -6 -6 -4 2 27 72 106 98 37 11 0 -4 -4 -4 -4 -4 -1 7 10 10 10 11 14 29 66 78 88 124 121 34 0 -6 -6 -6 -6 -6 -6 -6 -6 -6 -6 -6 -6 -6 -5 7 66 106 29 -1 -6 -6 -6 -6 -1 27 98 98 27 -1 -6 -6 -4 10 79 
79 10 -4 -6 -6 -6 -6 -6 -6 -6 -6 -6 -6 -6 -6 -4 11 80 80 11 -2 12 73 105 30 0 -6 -6 -6 -6 -6 -6 -6 -6 -6 -6 -6 -6 -6 -6 -6 -6 -6 -6 -6 -5 -1 11 37 98 106 72 27 2 -4 -6 -6 -6 -6 -6 -6 -6 -5 -4 -4 -4 -4 -4 -1 7 10 15 42 108 73 11 -4 -6 -6 -6 -6 -6 -6 -6 -6 -6 -6 -6 -6 -4 10 78 85 14 -4 -6 -6 -6 -4 11 72 106 37 2 -5 -6 -6 -4 10 79 
79 10 -4 -6 -6 -6 -6 -6 -6 -6 -6 -6 -6 -6 -6 -4 10 77 85 15 5 38 106 72 10 -4 -6 -6 -6 -6 -6 -6 -6 -6 -6 -6 -6 -6 -6 -6 -6 -6 -6 -6 -5 1 27 72 106 98 37 11 -1 -5 -6 -6 -6 -6 -6 -6 -6 -6 -6 -6 -6 -6 -6 -6 -6 -5 -4 -2 12 73 106 38 3 -4 -6 -6 -6 -6 -6 -6 -6 -6 -6 -6 -6 -4 14 85 78 10 -4 -6 -6 -5 2 37 106 72 11 -4 -6 -6 -6 -4 10 79 
79 10 -4 -6 -6 -6 -6 -6 -6 -6 -6 -6 -6 -6 -6 -5 7 66 107 35 32 99 98 27 -1 -6 -6 -6 -6 -6 -6 -6 -6 -6 -6 -6 -6 -6 -6 -6 -6 -6 -6 -4 3 35 98 106 72 27 2 -4 -6 -6 -6 -6 -6 -6 -6 -6 -6 -6 -6 -6 -6 -6 -6 -6 -6 -6 -6 -6 -1 27 99 101 39 11 0 -4 -4 -4 -4 -4 -4 -4 -4 -4 -4 0 31 107 66 7 -5 -6 -6 -1 27 98 98 27 -1 -6 -6 -6 -6 -4 10 79 
79 10 -4 -6 -6 -6 -6 -6 -6 -6 -6 -6 -6 -6 -6 -6 -1 29 107 81 84 107 37 2 -5 -6 -6 -6 -6 -6 -6 -6 -6 -6 -6 -6 -6 -6 -6 -6 -6 -5 -1 11 38 100 100 38 11 -1 -5 -6 -6 -6 -6 -6 -6 -6 -6 -6 -6 -6 -6 -6 -6 -6 -6 -6 -6 -6 -6 -6 -5 2 38 115 121 75 30 14 11 10 10 10 10 10 10 11 12 24 78 115 34 1 -5 -6 -4 11 72 106 37 2 -5 -6 -6 -6 -6 -4 10 79 
79 10 -4 -6 -6 -6 -6 -6 -6 -6 -6 -6 -6 -6 -6 -6 -4 14 87 107 117 73 11 -4 -6 -6 -6 -6 -6 -6 -6 -6 -6 -6 -6 -6 -6 -6 -6 -6 -4 2 27 72 106 98 35 3 -4 -6 -6 -6 -6 -6 -6 -6 -6 -6 -6 -6 -6 -6 -6 -6 -6 -6 -6 -6 -6 -6 -6 -6 -6 -3 15 92 138 117 107 85 80 79 79 79 79 79 79 79 81 90 132 129 45 12 0 -3 2 38 106 72 11 -4 -6 -6 -6 -6 -6 -4 10 79 
79 10 -4 -6 -6 -6 -6 -6 -6 -6 -6 -6 -6 -6 -6 -6 -4 11 83 139 111 30 0 -6 -6 -6 -6 -6 -6 -6 -6 -6 -6 -6 -6 -6 -6 -6 -5 -1 11 37 98 106 72 27 1 -5 -6 -6 -6 -6 -6 -6 -6 -6 -6 -6 -6 -6 -6 -6 -6 -6 -6 -6 -6 -6 -6 -6 -6 -6 -6 -4 14 87 91 45 67 77 79 79 79 79 79 79 79 79 80 81 91 114 108 73 30 15 31 99 98 27 -1 -6 -6 -6 -6 -6 -6 -4 10 79 
79 10 -4 -6 -6 -6 -6 -6 -6 -6 -6 -6 -6 -6 -6 -6 -4 11 85 155 75 10 -4 -6 -6 -6 -6 -6 -6 -6 -6 -6 -6 -6 -6 -6 -6 -4 2 27 72 106 98 37 11 -1 -5 -6 -6 -6 -6 -6 -6 -6 -6 -6 -6 -6 -6 -6 -6 -6 -6 -6 -6 -6 -6 -6 -6 -6 -6 -6 -6 -1 29 106 68 12 8 10 10 10 10 10 10 10 10 10 10 11 14 30 73 105 106 84 94 111 39 2 -5 -6 -6 -6 -6 -6 -6 -4 10 79 
79 10 -4 -6 -6 -6 -6 -6 -6 -6 -6 -6 -6 -6 -6 -6 -4 10 83 120 31 0 -6 -6 -6 -6 -6 -6 -6 -6 -6 -6 -6 -6 -6 -5 -1 11 38 98 106 73 27 2 -4 -6 -6 -6 -6 -6 -6 -6 -6 -6 -6 -6 -6 -6 -6 -6 -6 -6 -6 -6 -6 -6 -6 -6 -6 -6 -6 -6 -5 7 66 106 29 0 -4 -4 -4 -4 -4 -4 -4 -4 -4 -4 -4 -4 -4 0 10 30 73 112 151 99 20 -2 -6 -6 -6 -6 -6 -6 -6 -4 10 79 
79 10 -4 -6 -6 -6 -6 -6 -6 -6 -6 -6 -6 -6 -6 -6 -4 10 80 87 14 -4 -6 -6 -6 -6 -6 -6 -6 -6 -6 -6 -6 -5 -3 2 27 75 111 103 40 13 0 -4 -6 -6 -6 -6 -6 -6 -6 -6 -6 -6 -6 -6 -6 -6 -6 -6 -6 -6 -6 -6 -6 -6 -6 -6 -6 -6 -6 -6 -4 10 77 85 14 -4 -6 -6 -6 -6 -6 -6 -6 -6 -6 -6 -6 -6 -6 -6 -4 0 11 39 111 115 39 2 -5 -6 -6 -6 -6 -6 -6 -4 10 79 
79 10 -4 -6 -6 -6 -6 -6 -6 -6 -6 -6 -6 -6 -6 -6 -4 11 80 80 11 -4 -6 -6 -6 -6 -6 -6 -6 -6 -6 -4 -1 7 14 39 109 153 130 62 23 13 11 7 -1 -4 -4 -5 -6 -6 -6 -6 -6 -6 -6 -6 -6 -6 -6 -6 -6 -6 -6 -6 -6 -6 -6 -6 -6 -6 -6 -6 -4 10 79 80 11 -4 -6 -6 -6 -6 -6 -6 -6 -6 -6 -6 -6 -6 -6 -6 -6 -6 -4 3 36 101 99 27 -1 -6 -6 -6 -6 -6 -6 -4 10 79 
79 10 -4 -6 -6 -6 -6 -6 -6 -6 -6 -6 -6 -6 -6 -6 -4 14 85 77 10 -4 -6 -6 -6 -6 -6 -6 -6 -4 0 10 29 66 83 108 113 99 113 110 86 80 77 66 29 14 10 7 -1 -4 -4 -4 -5 -6 -6 -6 -6 -6 -6 -6 -6 -6 -6 -6 -6 -6 -6 -6 -6 -6 -6 -6 -4 11 80 79 10 -4 -6 -6 -6 -6 -6 -6 -6 -6 -6 -6 -6 -6 -6 -6 -6 -6 -6 -5 3 38 106 72 11 -4 -6 -6 -6 -6 -6 -4 10 79 
79 10 -4 -6 -6 -6 -6 -6 -6 -6 -6 -6 -6 -6 -6 -6 -1 29 106 66 7 -5 -6 -6 -6 -6 -5 -4 0 10 30 73 105 106 83 67 30 17 30 66 77 80 85 106 106 85 78 66 29 14 11 10 7 -1 -4 -4 -5 -6 -6 -6 -6 -6 -6 -6 -6 -6 -6 -6 -6 -6 -6 -6 -4 14 85 77 10 -4 -6 -6 -6 -6 -6 -6 -6 -6 -6 -6 -6 -6 -6 -6 -6 -6 -6 -6 -4 11 72 106 37 2 -5 -6 -6 -6 -6 -4 10 79 
79 10 -4 -6 -6 -6 -6 -6 -6 -6 -6 -6 -6 -6 -6 -5 7 66 106 29 -1 -6 -6 -6 -4 -1 7 13 30 73 105 105 73 30 13 7 -1 -3 -1 7 10 11 14 29 66 78 85 106 106 85 80 77 66 29 14 10 7 -1 -4 -4 -4 -5 -6 -6 -6 -6 -6 -6 -6 -6 -6 -6 -1 29 106 66 7 -5 -6 -6 -6 -6 -6 -6 -6 -6 -6 -6 -6 -6 -6 -6 -6 -6 -6 -6 -6 -1 27 98 98 27 -1 -6 -6 -6 -6 -4 10 79 
79 10 -4 -6 -6 -6 -6 -6 -6 -6 -6 -6 -6 -6 -6 -4 10 77 85 14 -3 -6 -4 0 10 29 66 83 106 105 73 30 10 0 -4 -5 -6 -6 -6 -5 -4 -4 -4 -1 7 10 14 29 66 77 80 85 106 106 85 78 66 29 14 11 10 7 -1 -4 -4 -5 -6 -6 -6 -6 -6 -5 7 66 106 29 -1 -6 -6 -6 -6 -6 -6 -6 -6 -6 -6 -6 -6 -6 -6 -6 -6 -6 -6 -6 -6 -5 2 37 106 72 11 -4 -6 -6 -6 -4 10 79 
79 10 -4 -6 -6 -6 -6 -6 -6 -6 -6 -6 -6 -6 -6 -4 11 80 80 11 -2 0 10 30 73 105 106 83 66 29 10 0 -4 -6 -6 -6 -6 -6 -6 -6 -6 -6 -6 -6 -5 -4 -4 -1 7 10 11 14 29 66 78 85 106 106 85 80 77 66 29 14 10 7 -1 -4 -4 -4 -5 -4 10 77 85 14 -4 -6 -6 -6 -6 -6 -6 -6 -6 -6 -6 -6 -6 -6 -6 -6 -6 -6 -6 -6 -6 -6 -4 11 72 106 38 3 -5 -6 -6 -4 10 79 
79 10 -4 -6 -6 -6 -6 -6 -6 -6 -6 -6 -6 -6 -6 -4 14 86 79 16 12 30 73 105 105 73 30 13 7 -1 -4 -6 -6 -6 -6 -6 -6 -6 -6 -6 -6 -6 -6 -6 -6 -6 -6 -6 -5 -4 -4 -4 -1 7 10 14 29 66 77 80 85 106 106 85 78 66 29 14 11 10 7 0 13 81 80 11 -4 -6 -6 -6 -6 -6 -6 -6 -6 -6 -6 -6 -6 -6 -6 -6 -6 -6 -6 -6 -6 -6 -6 -1 27 98 100 35 1 -5 -6 -4 10 79 
79 10 -4 -6 -6 -6 -6 -6 -6 -6 -6 -6 -6 -6 -6 0 31 111 83 44 74 105 105 73 30 10 0 -4 -5 -6 -6 -6 -6 -6 -6 -6 -6 -6 -6 -6 -6 -6 -6 -6 -6 -6 -6 -6 -6 -6 -6 -6 -6 -5 -4 -4 -1 7 10 11 14 29 66 78 85 106 106 85 80 77 66 31 31 91 80 10 -4 -6 -6 -6 -6 -6 -6 -6 -6 -6 -6 -6 -6 -6 -6 -6 -6 -6 -6 -6 -6 -6 -6 -5 1 35 100 98 27 -1 -6 -4 10 79 
79 10 -4 -6 -6 -6 -6 -6 -6 -6 -6 -6 -6 -6 -4 10 77 149 112 110 105 73 30 10 0 -4 -6 -6 -6 -6 -6 -6 -6 -6 -6 -6 -6 -6 -6 -6 -6 -6 -6 -6 -6 -6 -6 -6 -6 -6 -6 -6 -6 -6 -6 -6 -6 -5 -4 -4 -4 -1 7 10 14 29 66 77 80 85 106 107 97 134 83 10 -4 -6 -6 -6 -6 -6 -6 -6 -6 -6 -6 -6 -6 -6 -6 -6 -6 -6 -6 -6 -6 -6 -6 -6 -5 3 38 106 72 11 -3 -4 10 79 
79 10 -4 -6 -6 -6 -6 -6 -6 -6 -6 -6 -6 -6 0 30 112 123 87 67 29 10 0 -4 -6 -6 -6 -6 -6 -6 -6 -6 -6 -6 -6 -6 -6 -6 -6 -6 -6 -6 -6 -6 -6 -6 -6 -6 -6 -6 -6 -6 -6 -6 -6 -6 -6 -6 -6 -6 -6 -6 -5 -4 -4 -1 7 10 11 14 29 67 89 133 83 10 -4 -6 -6 -6 -6 -6 -6 -6 -6 -6 -6 -6 -6 -6 -6 -6 -6 -6 -6 -6 -6 -6 -6 -6 -6 -4 11 72 106 38 3 -3 11 79 
79 10 -4 -6 -6 -6 -6 -6 -6 -6 -6 -6 -6 -4 11 73 108 42 15 7 -1 -4 -6 -6 -6 -6 -6 -6 -6 -6 -6 -6 -6 -6 -6 -6 -6 -6 -6 -6 -6 -6 -6 -6 -6 -6 -6 -6 -6 -6 -6 -6 -6 -6 -6 -6 -6 -6 -6 -6 -6 -6 -6 -6 -6 -6 -5 -4 -4 -4 0 9 27 91 80 10 -4 -6 -6 -6 -6 -6 -6 -6 -6 -6 -6 -6 -6 -6 -6 -6 -6 -6 -6 -6 -6 -6 -6 -6 -6 -6 -1 27 98 100 35 4 12 79 
79 10 -4 -6 -6 -6 -6 -6 -6 -6 -6 -6 -5 2 37 106 73 12 -2 -5 -6 -6 -6 -6 -6 -6 -6 -6 -6 -6 -6 -6 -6 -6 -6 -6 -6 -6 -6 -6 -6 -6 -6 -6 -6 -6 -6 -6 -6 -6 -6 -6 -6 -6 -6 -6 -6 -6 -6 -6 -6 -6 -6 -6 -6 -6 -6 -6 -6 -6 -6 -3 12 81 79 10 -4 -6 -6 -6 -6 -6 -6 -6 -6 -6 -6 -6 -6 -6 -6 -6 -6 -6 -6 -6 -6 -6 -6 -6 -6 -6 -5 1 35 100 98 29 16 80 
79 10 -4 -6 -6 -6 -6 -6 -6 -6 -6 -6 -1 27 98 98 27 -1 -6 -6 -6 -6 -6 -6 -6 -6 -6 -6 -6 -6 -6 -6 -6 -6 -6 -6 -6 -6 -6 -6 -6 -6 -6 -6 -6 -6 -6 -6 -6 -6 -6 -6 -6 -6 -6 -6 -6 -6 -6 -6 -6 -6 -6 -6 -6 -6 -6 -6 -6 -6 -6 -4 11 79 79 10 -4 -6 -6 -6 -6 -6 -6 -6 -6 -6 -6 -6 -6 -6 -6 -6 -6 -6 -6 -6 -6 -6 -6 -6 -6 -6 -6 -5 3 38 106 74 29 82 
80 10 -4 -6 -6 -6 -6 -6 -6 -6 -6 -4 11 72 106 37 2 -5 -6 -6 -6 -6 -6 -6 -6 -6 -6 -6 -6 -6 -6 -6 -6 -6 -6 -6 -6 -6 -6 -6 -6 -6 -6 -6 -6 -6 -6 -6 -6 -6 -6 -6 -6 -6 -6 -6 -6 -6 -6 -6 -6 -6 -6 -6 -6 -6 -6 -6 -6 -6 -6 -4 10 79 80 11 -4 -6 -6 -6 -6 -6 -6 -6 -6 -6 -6 -6 -6 -6 -6 -6 -6 -6 -6 -6 -6 -6 -6 -6 -6 -6 -6 -6 -4 11 72 107 54 87 
80 10 -4 -6 -6 -6 -6 -6 -6 -6 -5 3 38 106 73 11 -4 -6 -6 -6 -6 -6 -6 -6 -6 -6 -6 -6 -6 -6 -6 -6 -6 -6 -6 -6 -6 -6 -6 -6 -6 -6 -6 -6 -6 -6 -6 -6 -6 -6 -6 -6 -6 -6 -6 -6 -6 -6 -6 -6 -6 -6 -6 -6 -6 -6 -6 -6 -6 -6 -6 -4 10 78 86 15 -3 -6 -6 -6 -6 -6 -6 -6 -6 -6 -6 -6 -6 -6 -6 -6 -6 -6 -6 -6 -6 -6 -6 -6 -6 -6 -6 -6 -6 -1 27 99 111 107 
82 10 -4 -6 -6 -6 -6 -6 -6 -5 3 35 100 100 29 0 -4 -6 -6 -6 -6 -6 -6 -6 -6 -6 -6 -6 -6 -6 -6 -6 -6 -6 -6 -6 -6 -6 -6 -6 -6 -6 -6 -6 -6 -6 -6 -6 -6 -6 -6 -6 -6 -6 -6 -6 -6 -6 -6 -6 -6 -6 -6 -6 -6 -6 -6 -6 -6 -6 -6 -2 12 78 113 39 3 -4 -6 -6 -6 -6 -6 -6 -6 -6 -6 -6 -6 -6 -6 -6 -6 -6 -6 -6 -6 -6 -6 -6 -6 -6 -6 -6 -6 -5 2 38 112 139 
84 10 -4 -6 -6 -6 -6 -6 -5 3 36 104 112 51 19 11 7 -1 -4 -4 -4 -4 -4 -4 -4 -4 -4 -4 -5 -6 -6 -6 -6 -6 -6 -6 -6 -6 -6 -6 -6 -6 -6 -6 -6 -6 -6 -6 -6 -6 -6 -6 -6 -6 -6 -6 -6 -6 -6 -6 -6 -6 -6 -6 -6 -6 -6 -6 -6 -5 -1 11 34 94 151 111 38 11 0 -4 -6 -6 -6 -6 -6 -6 -6 -6 -6 -6 -6 -6 -6 -6 -6 -6 -6 -6 -6 -6 -6 -6 -6 -6 -6 -6 -4 11 75 155 
83 10 -4 -6 -6 -6 -6 -5 3 36 111 152 113 87 80 77 66 29 14 11 10 10 10 10 10 10 10 10 7 -1 -4 -4 -4 -4 -4 -4 -4 -4 -4 -5 -6 -6 -6 -6 -6 -6 -6 -6 -6 -6 -6 -6 -6 -6 -6 -6 -6 -6 -6 -6 -6 -6 -6 -6 -6 -6 -6 -6 -4 2 27 72 106 110 99 114 107 73 30 10 -1 -5 -6 -6 -6 -6 -6 -6 -6 -6 -6 -6 -6 -6 -6 -6 -6 -6 -6 -6 -6 -6 -6 -6 -6 -6 -6 0 31 120 
80 10 -4 -6 -6 -6 -5 3 35 101 114 92 82 80 80 85 106 106 85 80 79 79 79 79 79 79 79 77 66 29 14 11 10 10 10 10 10 10 10 7 -1 -4 -4 -4 -4 -4 -4 -4 -4 -4 -4 -5 -6 -6 -6 -6 -6 -6 -6 -6 -6 -6 -6 -6 -6 -6 -4 0 11 37 98 106 73 31 17 31 73 105 105 72 27 2 -4 -6 -6 -6 -6 -6 -6 -6 -6 -6 -6 -6 -6 -6 -6 -6 -6 -6 -6 -6 -6 -6 -6 -6 -6 -4 14 87 
79 10 -4 -6 -6 -5 3 35 99 100 39 15 11 11 11 14 29 66 77 79 79 79 79 79 79 79 80 85 106 106 85 80 79 79 79 79 79 79 77 66 29 14 11 10 10 10 10 10 10 10 10 7 -1 -4 -4 -4 -4 -4 -4 -4 -4 -4 -5 -6 -5 -1 10 30 73 106 98 37 11 0 -3 0 10 30 73 106 98 37 11 0 -4 -6 -6 -6 -6 -6 -6 -6 -6 -6 -6 -6 -6 -6 -6 -6 -6 -6 -6 -6 -6 -6 -6 -4 11 80 
79 10 -4 -6 -4 3 35 99 99 35 3 -3 -4 -4 -4 -4 -1 7 10 10 10 10 10 10 10 10 11 14 29 66 77 79 79 79 79 79 79 80 85 106 106 85 80 79 79 79 79 79 79 79 77 66 29 14 11 10 10 10 10 10 10 10 7 0 3 27 72 105 105 72 27 2 -4 -6 -6 -6 -4 0 11 37 98 106 73 30 10 -1 -5 -6 -6 -6 -6 -6 -6 -6 -6 -6 -6 -6 -6 -6 -6 -6 -6 -6 -6 -6 -6 -4 10 79 
79 11 -3 0 11 38 100 99 35 3 -5 -6 -6 -6 -6 -6 -6 -5 -4 -4 -4 -4 -4 -4 -4 -4 -4 -4 -1 7 10 10 10 10 10 10 10 11 14 29 66 77 79 79 79 79 79 79 79 80 85 106 106 85 80 79 79 79 79 79 79 77 66 34 42 99 106 73 30 10 -1 -5 -6 -6 -6 -6 -6 -6 -4 2 27 72 105 105 72 27 2 -4 -6 -6 -6 -6 -6 -6 -6 -6 -6 -6 -6 -6 -6 -6 -6 -6 -6 -6 -6 -4 10 79 
80 12 4 27 72 106 98 35 3 -5 -6 -6 -6 -6 -6 -6 -6 -6 -6 -6 -6 -6 -6 -6 -6 -6 -6 -6 -6 -5 -4 -4 -4 -4 -4 -4 -4 -4 -4 -1 7 10 10 10 10 10 10 10 10 11 14 29 66 77 79 79 79 79 79 79 80 86 109 121 122 102 38 11 0 -4 -6 -6 -6 -6 -6 -6 -6 -6 -6 -5 -1 10 30 73 106 98 37 11 0 -4 -6 -6 -6 -6 -6 -6 -6 -6 -6 -6 -6 -6 -6 -6 -6 -6 -6 -4 10 79 
81 20 37 98 106 72 27 1 -5 -6 -6 -6 -6 -6 -6 -6 -6 -6 -6 -6 -6 -6 -6 -6 -6 -6 -6 -6 -6 -6 -6 -6 -6 -6 -6 -6 -6 -6 -6 -6 -5 -4 -4 -4 -4 -4 -4 -4 -4 -4 -4 -1 7 10 10 10 10 10 10 10 11 15 43 124 123 39 3 -4 -6 -6 -6 -6 -6 -6 -6 -6 -6 -6 -6 -6 -6 -4 0 11 37 98 106 73 30 10 -1 -5 -6 -6 -6 -6 -6 -6 -6 -6 -6 -6 -6 -6 -6 -6 -6 -4 10 79 
88 52 101 100 38 11 -1 -5 -6 -6 -6 -6 -6 -6 -6 -6 -6 -6 -6 -6 -6 -6 -6 -6 -6 -6 -6 -6 -6 -6 -6 -6 -6 -6 -6 -6 -6 -6 -6 -6 -6 -6 -6 -6 -6 -6 -6 -6 -6 -6 -6 -6 -5 -4 -4 -4 -4 -4 -4 -4 -4 -2 16 89 89 15 -3 -6 -6 -6 -6 -6 -6 -6 -6 -6 -6 -6 -6 -6 -6 -6 -6 -4 2 27 72 105 105 72 27 2 -4 -6 -6 -6 -6 -6 -6 -6 -6 -6 -6 -6 -6 -6 -6 -4 10 80 
113 112 100 35 3 -4 -6 -6 -6 -6 -6 -6 -6 -6 -6 -6 -6 -6 -6 -6 -6 -6 -6 -6 -6 -6 -6 -6 -6 -6 -6 -6 -6 -6 -6 -6 -6 -6 -6 -6 -6 -6 -6 -6 -6 -6 -6 -6 -6 -6 -6 -6 -6 -6 -6 -6 -6 -6 -6 -6 -6 -4 11 80 80 11 -4 -6 -6 -6 -6 -6 -6 -6 -6 -6 -6 -6 -6 -6 -6 -6 -6 -6 -5 -1 10 30 73 106 98 37 11 0 -4 -6 -6 -6 -6 -6 -6 -6 -6 -6 -6 -6 -6 -4 10 81 
153 105 35 3 -5 -6 -6 -6 -6 -6 -6 -6 -6 -6 -6 -6 -6 -6 -6 -6 -6 -6 -6 -6 -6 -6 -6 -6 -6 -6 -6 -6 -6 -6 -6 -6 -6 -6 -6 -6 -6 -6 -6 -6 -6 -6 -6 -6 -6 -6 -6 -6 -6 -6 -6 -6 -6 -6 -6 -6 -6 -4 10 79 79 10 -4 -6 -6 -6 -6 -6 -6 -6 -6 -6 -6 -6 -6 -6 -6 -6 -6 -6 -6 -6 -4 0 11 37 98 106 73 30 10 0 -4 -6 -6 -6 -6 -6 -6 -6 -6 -6 -6 -4 10 84 
122 39 3 -5 -6 -6 -6 -6 -6 -6 -6 -6 -6 -6 -6 -6 -6 -6 -6 -6 -6 -6 -6 -6 -6 -6 -6 -6 -6 -6 -6 -6 -6 -6 -6 -6 -6 -6 -6 -6 -6 -6 -6 -6 -6 -6 -6 -6 -6 -6 -6 -6 -6 -6 -6 -6 -6 -6 -6 -6 -6 -4 10 79 79 10 -4 -6 -6 -6 -6 -6 -6 -6 -6 -6 -6 -6 -6 -6 -6 -6 -6 -6 -6 -6 -6 -6 -4 2 27 72 105 105 73 30 10 -1 -5 -6 -6 -6 -6 -6 -6 -6 -6 -4 10 83 
88 15 -3 -6 -6 -6 -6 -6 -6 -6 -6 -6 -6 -6 -6 -6 -6 -6 -6 -6 -6 -6 -6 -6 -6 -6 -6 -6 -6 -6 -6 -6 -6 -6 -6 -6 -6 -6 -6 -6 -6 -6 -6 -6 -6 -6 -6 -6 -6 -6 -6 -6 -6 -6 -6 -6 -6 -6 -6 -6 -6 -4 10 79 79 10 -4 -6 -6 -6 -6 -6 -6 -6 -6 -6 -6 -6 -6 -6 -6 -6 -6 -6 -6 -6 -6 -6 -6 -5 -1 10 30 73 105 105 72 27 2 -4 -6 -6 -6 -6 -6 -6 -6 -4 10 80 
80 11 -4 -6 -6 -6 -6 -6 -6 -6 -6 -6 -6 -6 -6 -6 -6 -6 -6 -6 -6 -6 -6 -6 -6 -6 -6 -6 -6 -6 -6 -6 -6 -6 -6 -6 -6 -6 -6 -6 -6 -6 -6 -6 -6 -6 -6 -6 -6 -6 -6 -6 -6 -6 -6 -6 -6 -6 -6 -6 -6 -4 10 79 79 10 -4 -6 -6 -6 -6 -6 -6 -6 -6 -6 -6 -6 -6 -6 -6 -6 -6 -6 -6 -6 -6 -6 -6 -6 -6 -4 0 10 30 73 106 98 38 11 0 -4 -4 -5 -6 -6 -6 -4 10 79 
79 10 -4 -6 -6 -6 -6 -6 -6 -6 -6 -6 -6 -6 -6 -6 -6 -6 -6 -6 -6 -6 -6 -6 -6 -6 -6 -6 -6 -6 -6 -6 -6 -6 -6 -6 -6 -6 -6 -6 -6 -6 -6 -6 -6 -6 -6 -6 -6 -6 -6 -6 -6 -6 -6 -6 -6 -6 -6 -6 -6 -4 10 79 79 10 -4 -6 -6 -6 -6 -6 -6 -6 -6 -6 -6 -6 -6 -6 -6 -6 -6 -6 -6 -6 -6 -6 -6 -6 -6 -6 -6 -4 0 12 38 100 108 75 31 14 10 7 -1 -4 -4 -3 11 80 
79 10 -4 -6 -6 -6 -6 -6 -6 -6 -6 -6 -6 -6 -6 -6 -6 -6 -6 -6 -6 -6 -6 -6 -6 -6 -6 -6 -6 -6 -6 -6 -6 -6 -6 -6 -6 -6 -6 -6 -6 -6 -6 -6 -6 -6 -6 -6 -6 -6 -6 -6 -6 -6 -6 -6 -6 -6 -6 -6 -6 -4 10 79 79 10 -4 -6 -6 -6 -6 -6 -6 -6 -6 -6 -6 -6 -6 -6 -6 -6 -6 -6 -6 -6 -6 -6 -6 -6 -6 -6 -6 -6 -4 -1 8 44 102 149 120 87 78 66 29 14 10 9 16 81 
80 11 -4 -6 -6 -6 -6 -6 -6 -6 -6 -6 -6 -6 -6 -6 -6 -6 -6 -6 -6 -6 -6 -6 -6 -6 -6 -6 -6 -6 -6 -6 -6 -6 -6 -6 -6 -6 -6 -6 -6 -6 -6 -6 -6 -6 -6 -6 -6 -6 -6 -6 -6 -6 -6 -6 -6 -6 -6 -6 -6 -4 10 79 79 10 -4 -6 -6 -6 -6 -6 -6 -6 -6 -6 -6 -6 -6 -6 -6 -6 -6 -6 -6 -6 -6 -6 -6 -6 -6 -6 -4 -1 7 14 31 77 117 117 91 82 85 106 106 85 78 67 45 94 
85 12 -2 -4 -4 -4 -4 -4 -5 -6 -6 -6 -6 -6 -6 -6 -6 -6 -6 -6 -6 -6 -6 -6 -6 -6 -6 -6 -6 -6 -6 -6 -6 -6 -6 -6 -6 -6 -6 -6 -6 -6 -6 -6 -6 -6 -6 -6 -6 -6 -6 -6 -6 -6 -6 -6 -6 -6 -6 -6 -6 -4 10 79 79 10 -4 -6 -6 -6 -6 -6 -6 -6 -6 -6 -6 -6 -6 -6 -6 -6 -6 -6 -6 -6 -6 -6 -6 -5 -4 0 10 29 66 83 106 105 73 31 14 11 14 29 66 78 85 107 117 138 
95 27 12 11 10 10 10 10 7 -1 -4 -4 -4 -4 -4 -4 -5 -6 -6 -6 -6 -6 -6 -6 -6 -6 -6 -6 -6 -6 -6 -6 -6 -6 -6 -6 -6 -6 -6 -6 -6 -6 -6 -6 -6 -6 -6 -6 -6 -6 -6 -6 -6 -6 -6 -6 -6 -6 -6 -6 -6 -4 10 79 79 10 -4 -6 -6 -6 -6 -6 -6 -6 -6 -6 -6 -6 -6 -6 -6 -6 -6 -6 -6 -6 -6 -4 -1 7 13 30 73 105 106 83 66 29 10 0 -4 -4 -4 -1 7 10 14 31 78 132 
134 92 81 79 79 79 79 77 66 29 14 11 10 10 10 10 7 -1 -4 -4 -4 -4 -4 -4 -4 -5 -6 -6 -6 -6 -6 -6 -6 -6 -6 -6 -6 -6 -6 -6 -6 -6 -6 -6 -6 -6 -6 -6 -6 -6 -6 -6 -6 -6 -6 -6 -6 -6 -6 -6 -6 -4 10 79 79 10 -4 -6 -6 -6 -6 -6 -6 -6 -6 -6 -6 -6 -6 -6 -6 -6 -6 -6 -5 -4 0 10 29 66 83 106 105 73 30 13 7 -1 -4 -6 -6 -6 -6 -6 -5 -4 -4 0 24 95 
133 92 81 79 79 79 80 85 106 106 85 80 79 79 79 77 66 29 14 11 10 10 10 10 10 7 -1 -4 -4 -4 -4 -4 -4 -5 -6 -6 -6 -6 -6 -6 -6 -6 -6 -6 -6 -6 -6 -6 -6 -6 -6 -6 -6 -6 -6 -6 -6 -6 -6 -6 -6 -4 10 79 79 10 -4 -6 -6 -6 -6 -6 -6 -6 -6 -6 -6 -6 -6 -6 -6 -6 -4 -1 7 13 30 73 105 106 83 66 29 10 0 -4 -5 -6 -6 -6 -6 -6 -6 -6 -6 -6 -6 -4 12 85 
91 27 12 11 10 10 11 14 29 66 77 79 79 79 80 85 106 106 85 80 79 79 79 79 77 66 29 14 11 10 10 10 10 7 -1 -4 -4 -4 -4 -4 -4 -4 -5 -6 -6 -6 -6 -6 -6 -6 -6 -6 -6 -6 -6 -6 -6 -6 -6 -6 -6 -4 10 79 79 10 -4 -6 -6 -6 -6 -6 -6 -6 -6 -6 -6 -6 -6 -6 -4 0 10 29 66 83 106 105 73 30 13 7 -1 -4 -6 -6 -6 -6 -6 -6 -6 -6 -6 -6 -6 -6 -6 -4 11 80 
81 12 -2 -4 -4 -4 -4 -4 -1 7 10 10 10 10 11 14 29 66 77 79 79 79 79 80 85 106 106 85 80 79 79 79 77 66 29 14 11 10 10 10 10 10 7 -1 -4 -4 -4 -4 -4 -4 -5 -6 -6 -6 -6 -6 -6 -6 -6 -6 -6 -4 10 79 79 10 -4 -6 -6 -6 -6 -6 -6 -6 -6 -6 -6 -5 -4 0 10 30 73 105 106 83 66 29 10 0 -4 -5 -6 -6 -6 -6 -6 -6 -6 -6 -6 -6 -6 -6 -6 -6 -6 -4 10 79 
79 11 -4 -6 -6 -6 -6 -6 -6 -5 -4 -4 -4 -4 -4 -4 -1 7 10 10 10 10 10 11 14 29 66 77 79 79 79 80 85 106 106 85 80 79 79 79 79 77 66 29 14 11 10 10 10 10 7 -1 -4 -4 -4 -4 -4 -4 -4 -5 -6 -4 11 79 79 10 -4 -6 -6 -6 -6 -6 -6 -6 -6 -4 -1 7 13 30 73 105 105 73 30 13 7 -1 -4 -6 -6 -6 -6 -6 -6 -6 -6 -6 -6 -6 -6 -6 -6 -6 -6 -6 -6 -4 10 79 
79 10 -4 -6 -6 -6 -6 -6 -6 -6 -6 -6 -6 -6 -6 -6 -6 -5 -4 -4 -4 -4 -4 -4 -4 -1 7 10 10 10 10 11 14 29 66 77 79 79 79 79 80 85 106 106 85 80 79 79 79 77 66 29 14 11 10 10 10 10 10 7 0 -2 13 81 80 11 -4 -6 -6 -6 -6 -6 -5 -4 0 10 29 66 83 106 105 73 30 10 0 -4 -5 -6 -6 -6 -6 -6 -6 -6 -6 -6 -6 -6 -6 -6 -6 -6 -6 -6 -6 -6 -6 -4 10 79 
79 10 -4 -6 -6 -6 -6 -6 -6 -6 -6 -6 -6 -6 -6 -6 -6 -6 -6 -6 -6 -6 -6 -6 -6 -6 -5 -4 -4 -4 -4 -4 -4 -1 7 10 10 10 10 10 11 14 29 66 77 79 79 79 80 85 106 106 85 80 79 79 79 79 77 66 29 16 28 92 89 15 -3 -6 -6 -6 -4 -1 7 13 30 73 105 106 83 66 29 10 0 -4 -6 -6 -6 -6 -6 -6 -6 -6 -6 -6 -6 -6 -6 -6 -6 -6 -6 -6 -6 -6 -6 -6 -6 -4 10 79 
79 10 -4 -6 -6 -6 -6 -6 -6 -6 -6 -6 -6 -6 -6 -6 -6 -6 -6 -6 -6 -6 -6 -6 -6 -6 -6 -6 -6 -6 -6 -6 -6 -6 -5 -4 -4 -4 -4 -4 -4 -4 -1 7 10 10 10 10 11 14 29 66 77 79 79 79 79 80 85 106 106 87 92 134 123 39 3 -3 -4 0 10 29 66 83 106 105 73 30 13 7 -1 -4 -6 -6 -6 -6 -6 -6 -6 -6 -6 -6 -6 -6 -6 -6 -6 -6 -6 -6 -6 -6 -6 -6 -6 -6 -6 -4 10 79 
79 10 -4 -6 -6 -6 -6 -6 -6 -6 -6 -6 -6 -6 -6 -6 -6 -6 -6 -6 -6 -6 -6 -6 -6 -6 -6 -6 -6 -6 -6 -6 -6 -6 -6 -6 -6 -6 -6 -6 -6 -6 -6 -5 -4 -4 -4 -4 -4 -4 -1 7 10 10 10 10 10 11 14 29 66 77 81 92 115 102 39 16 14 30 73 105 106 83 66 29 10 0 -4 -5 -6 -6 -6 -6 -6 -6 -6 -6 -6 -6 -6 -6 -6 -6 -6 -6 -6 -6 -6 -6 -6 -6 -6 -6 -6 -6 -6 -4 10 79 
79 10 -4 -6 -6 -6 -6 -6 -6 -6 -6 -6 -6 -6 -6 -6 -6 -6 -6 -6 -6 -6 -6 -6 -6 -6 -6 -6 -6 -6 -6 -6 -6 -6 -6 -6 -6 -6 -6 -6 -6 -6 -6 -6 -6 -6 -6 -6 -6 -6 -6 -5 -4 -4 -4 -4 -4 -4 -4 -1 7 10 11 15 39 102 115 92 87 106 105 73 30 13 7 -1 -4 -6 -6 -6 -6 -6 -6 -6 -6 -6 -6 -6 -6 -6 -6 -6 -6 -6 -6 -6 -6 -6 -6 -6 -6 -6 -6 -6 -6 -6 -6 -4 10 79 
79 10 -4 -6 -6 -6 -6 -6 -6 -6 -6 -6 -6 -6 -6 -6 -6 -6 -6 -6 -6 -6 -6 -6 -6 -6 -6 -6 -6 -6 -6 -6 -6 -6 -6 -6 -6 -6 -6 -6 -6 -6 -6 -6 -6 -6 -6 -6 -6 -6 -6 -6 -6 -6 -6 -6 -6 -6 -6 -6 -5 -4 -4 -3 3 39 123 133 89 67 29 10 0 -4 -5 -6 -6 -6 -6 -6 -6 -6 -6 -6 -6 -6 -6 -6 -6 -6 -6 -6 -6 -6 -6 -6 -6 -6 -6 -6 -6 -6 -6 -6 -6 -6 -6 -4 10 79 
79 10 -4 -6 -6 -6 -6 -6 -6 -6 -6 -6 -6 -6 -6 -6 -6 -6 -6 -6 -6 -6 -6 -6 -6 -6 -6 -6 -6 -6 -6 -6 -6 -6 -6 -6 -6 -6 -6 -6 -6 -6 -6 -6 -6 -6 -6 -6 -6 -6 -6 -6 -6 -6 -6 -6 -6 -6 -6 -6 -6 -6 -6 -6 -3 15 89 91 27 9 -1 -4 -6 -6 -6 -6 -6 -6 -6 -6 -6 -6 -6 -6 -6 -6 -6 -6 -6 -6 -6 -6 -6 -6 -6 -6 -6 -6 -6 -6 -6 -6 -6 -6 -6 -6 -6 -4 10 79 
79 11 -4 -6 -6 -6 -6 -6 -6 -6 -6 -6 -6 -6 -6 -6 -6 -6 -6 -6 -6 -6 -6 -6 -6 -6 -6 -6 -6 -6 -6 -6 -6 -6 -6 -6 -6 -6 -6 -6 -6 -6 -6 -6 -6 -6 -6 -6 -6 -6 -6 -6 -6 -6 -6 -6 -6 -6 -6 -6 -6 -6 -6 -6 -4 11 81 81 13 -2 -5 -6 -6 -6 -6 -6 -6 -6 -6 -6 -6 -6 -6 -6 -6 -6 -6 -6 -6 -6 -6 -6 -6 -6 -6 -6 -6 -6 -6 -6 -6 -6 -6 -6 -6 -6 -6 -4 11 79 
81 12 -2 -4 -4 -4 -4 -4 -4 -4 -4 -4 -4 -4 -4 -4 -4 -4 -4 -4 -4 -4 -4 -4 -4 -4 -4 -4 -4 -4 -4 -4 -4 -4 -4 -4 -4 -4 -4 -4 -4 -4 -4 -4 -4 -4 -4 -4 -4 -4 -4 -4 -4 -4 -4 -4 -4 -4 -4 -4 -4 -4 -4 -4 -2 12 81 81 13 -2 -4 -4 -4 -4 -4 -4 -4 -4 -4 -4 -4 -4 -4 -4 -4 -4 -4 -4 -4 -4 -4 -4 -4 -4 -4 -4 -4 -4 -4 -4 -4 -4 -4 -4 -4 -4 -4 -2 12 81 
92 27 12 11 10 10 10 10 10 10 10 10 10 10 10 10 10 10 10 10 10 10 10 10 10 10 10 10 10 10 10 10 10 10 10 10 10 10 10 10 10 10 10 10 10 10 10 10 10 10 10 10 10 10 10 10 10 10 10 10 10 10 10 11 12 27 92 92 27 12 11 10 10 10 10 10 10 10 10 10 10 10 10 10 10 10 10 10 10 10 10 10 10 10 10 10 10 10 10 10 10 10 10 10 10 10 11 12 27 92 
138 92 81 79 79 79 79 79 79 79 79 79 79 79 79 79 79 79 79 79 79 79 79 79 79 79 79 79 79 79 79 80 81 84 83 80 79 79 79 79 79 79 79 79 79 79 79 79 80 83 83 80 79 79 79 79 79 79 79 79 79 79 79 79 81 91 133 133 91 81 79 79 79 79 79 79 79 79 79 79 79 79 79 79 79 79 79 79 79 79 80 81 84 83 80 79 79 79 79 79 79 79 80 81 84 83 80 81 92 138 
