P2
110 110
255
148 126 108 99 95 94 94 94 94 94 94 94 94 94 94 94 94 94 94 94 94 94 94 94 94 94 94 95 96 100 108 122 133 131 119 107 99 96 95 94 94 94 94 94 94 95 98 106 119 133 132 118 105 98 95 94 94 94 94 94 94 94 94 95 96 98 100 100 98 96 95 94 94 94 94 94 94 94 94 94 94 94 94 94 94 94 94 95 98 104 117 131 133 122 108 100 96 95 94 95 97 102 114 129 134 125 114 114 128 148 
126 96 70 58 54 53 52 52 52 52 52 52 52 52 52 52 52 52 52 52 52 52 52 52 52 52 53 54 58 67 86 113 129 117 91 70 59 54 53 52 52 52 52 52 53 55 60 73 100 128 125 95 70 58 54 53 52 52 52 52 52 52 52 52 51 50 50 50 50 51 52 52 52 52 52 52 52 52 52 52 52 52 52 52 52 52 53 55 60 74 100 126 124 98 73 60 55 53 53 54 58 68 91 121 128 105 82 79 98 127 
108 70 40 26 21 20 19 19 19 19 19 19 19 19 19 19 19 19 19 19 19 19 19 19 19 20 21 23 30 46 74 106 112 84 52 33 24 21 20 19 19 19 19 20 20 23 29 47 82 117 109 70 40 26 21 20 19 19 19 19 19 19 19 19 19 18 18 18 18 19 19 19 19 19 19 19 19 19 19 19 19 19 19 19 19 20 21 23 32 52 87 114 99 63 38 26 21 20 20 22 27 41 71 108 109 76 49 48 73 108 
99 58 26 12 7 5 5 5 5 5 5 5 5 5 5 5 5 5 5 5 5 5 5 5 5 6 7 12 24 49 84 106 90 54 27 13 8 6 5 5 5 5 5 5 6 10 19 42 81 117 101 56 25 11 7 5 5 5 5 5 5 5 5 5 5 5 4 4 5 5 5 5 5 5 5 5 5 5 5 5 5 5 5 5 5 5 7 11 23 50 89 105 76 39 18 9 6 5 6 8 14 32 67 103 95 56 31 33 60 99 
95 54 21 7 2 0 0 0 0 0 0 0 0 0 0 0 0 0 0 0 0 0 0 0 0 2 5 14 34 67 98 97 65 32 13 5 1 0 0 0 0 0 0 1 3 8 22 51 95 124 100 51 20 6 2 0 0 0 0 0 0 0 0 0 0 0 0 0 0 0 0 0 0 0 0 0 0 0 0 0 0 0 0 0 0 1 3 9 26 59 97 96 58 25 9 3 1 0 1 4 12 34 73 103 83 44 23 26 55 96 
94 53 20 5 0 0 0 0 0 0 0 0 0 0 0 0 0 0 0 0 0 0 0 0 0 2 9 24 53 89 101 77 41 17 5 1 0 0 0 0 0 0 0 0 3 12 32 69 113 132 101 51 19 5 0 0 0 0 0 0 0 0 0 0 0 0 0 0 0 0 0 0 0 0 0 0 0 0 0 0 0 0 0 0 0 0 3 13 36 74 102 83 43 16 4 0 0 0 0 4 15 41 82 102 71 34 17 24 54 95 
94 52 19 5 0 0 -1 -1 -1 -1 -1 -1 -1 -1 -1 -1 -1 -1 -1 -1 -1 -1 -1 0 1 5 17 41 77 101 88 53 24 8 2 0 -1 -1 -1 -1 -1 -1 0 1 7 21 49 91 126 133 103 54 21 6 0 0 -1 -1 -1 -1 -1 -1 -1 -1 -1 -1 -1 -1 -1 -1 -1 -1 -1 -1 -1 -1 -1 -1 -1 -1 -1 -1 -1 -1 0 0 6 20 50 89 100 67 30 10 2 0 0 0 0 5 19 50 91 98 60 26 14 22 53 94 
94 52 19 5 0 0 -1 -1 -1 -1 -1 -1 -1 -1 -1 -1 -1 -1 -1 -1 -1 -1 0 0 3 12 32 65 97 97 65 32 12 3 0 0 -1 -1 -1 -1 -1 0 0 3 13 35 71 107 124 127 106 61 25 7 1 0 -1 -1 -1 -1 -1 -1 -1 -1 -1 -1 -1 -1 -1 -1 -1 -1 -1 -1 -1 -1 -1 -1 -1 -1 -1 -1 -1 -1 0 2 10 30 67 100 89 50 20 6 0 0 -1 0 1 7 25 60 98 91 50 21 12 21 53 94 
94 52 19 5 0 0 -1 -1 -1 -1 -1 -1 -1 -1 -1 -1 -1 -1 -1 -1 -1 -1 0 2 8 24 53 88 101 77 41 17 5 0 0 -1 -1 -1 -1 -1 -1 0 2 8 24 54 92 110 108 112 108 71 31 10 2 0 -1 -1 -1 -1 -1 -1 -1 -1 -1 -1 -1 -1 -1 -1 -1 -1 -1 -1 -1 -1 -1 -1 -1 -1 -1 -1 -1 0 0 4 16 43 83 101 74 35 12 3 0 -1 -1 0 2 10 32 71 101 82 41 16 10 21 53 94 
94 52 19 5 0 0 -1 -1 -1 -1 -1 -1 -1 -1 -1 -1 -1 -1 -1 -1 -1 0 0 5 17 41 77 101 88 53 24 8 2 0 -1 -1 -1 -1 -1 -1 0 0 5 17 41 77 103 97 83 93 107 80 39 13 3 0 -1 -1 -1 -1 -1 -1 -1 -1 -1 -1 -1 -1 -1 -1 -1 -1 -1 -1 -1 -1 -1 -1 -1 -1 -1 -1 -1 0 1 7 24 57 95 95 57 24 7 1 0 -1 -1 0 3 14 40 82 101 71 32 12 9 20 52 94 
95 53 20 5 0 0 -1 -1 -1 -1 -1 -1 -1 -1 -1 -1 -1 -1 -1 -1 0 0 3 12 32 65 97 97 65 32 12 3 0 0 -1 -1 -1 -1 -1 -1 0 2 11 30 64 97 99 73 59 76 102 88 45 16 4 0 -1 -1 -1 -1 -1 -1 -1 -1 -1 -1 -1 -1 -1 -1 -1 -1 -1 -1 -1 -1 -1 -1 -1 -1 -1 -1 -1 0 3 12 35 74 101 83 43 16 4 0 0 -1 0 0 5 19 50 91 98 60 25 9 8 20 52 94 
96 54 21 6 0 0 -1 -1 -1 -1 -1 -1 -1 -1 -1 -1 -1 -1 -1 -1 0 2 8 24 53 88 101 77 41 17 5 0 0 -1 -1 -1 -1 -1 -1 0 1 6 20 48 86 102 80 49 41 64 98 92 49 18 4 0 0 -1 -1 -1 -1 -1 -1 -1 -1 -1 -1 -1 -1 -1 -1 -1 -1 -1 -1 -1 -1 -1 -1 -1 -1 -1 0 0 6 20 50 89 100 67 30 10 2 0 -1 -1 0 1 7 24 60 98 91 50 19 7 7 20 52 94 
99 59 24 7 1 0 -1 -1 -1 -1 -1 -1 -1 -1 -1 -1 -1 -1 -1 0 0 5 17 41 77 101 88 53 24 8 2 0 -1 -1 -1 -1 -1 -1 -1 0 3 12 33 69 100 91 57 31 30 56 95 94 53 20 5 0 0 -1 -1 -1 -1 -1 -1 -1 -1 -1 -1 -1 -1 -1 -1 -1 -1 -1 -1 -1 -1 -1 -1 -1 -1 -1 0 2 10 30 67 100 89 50 20 6 0 0 -1 -1 0 2 10 32 71 101 82 41 15 5 6 19 52 95 
106 69 31 11 3 0 0 -1 -1 -1 -1 -1 -1 -1 -1 -1 -1 -1 0 0 3 12 32 65 97 97 65 32 12 3 0 0 -1 -1 -1 -1 -1 -1 0 1 7 21 51 89 101 72 37 20 24 51 92 96 57 22 6 0 0 -1 -1 -1 -1 -1 -1 -1 -1 -1 -1 -1 -1 -1 -1 -1 -1 -1 -1 -1 -1 -1 -1 -1 -1 0 0 4 16 43 83 101 74 35 12 3 0 -1 -1 -1 0 3 14 40 82 101 71 32 11 4 6 19 51 96 
118 88 48 22 8 2 0 -1 -1 -1 -1 -1 -1 -1 -1 -1 -1 -1 0 2 8 24 53 88 101 77 41 17 5 0 0 -1 -1 -1 -1 -1 -1 0 0 3 13 35 71 100 89 51 23 12 19 46 88 99 63 26 8 1 0 -1 -1 -1 -1 -1 -1 -1 -1 -1 -1 -1 -1 -1 -1 -1 -1 -1 -1 -1 -1 -1 -1 -1 -1 0 1 7 24 57 95 95 57 24 7 1 0 -1 -1 0 0 5 19 50 91 98 60 25 8 3 5 18 50 98 
130 113 75 41 18 6 1 0 -1 -1 -1 -1 -1 -1 -1 -1 -1 0 0 5 17 41 77 101 88 53 24 8 2 0 -1 -1 -1 -1 -1 -1 -1 0 2 8 24 55 91 100 69 34 13 8 15 39 81 102 71 32 10 2 0 -1 -1 -1 -1 -1 -1 -1 -1 -1 -1 -1 -1 -1 -1 -1 -1 -1 -1 -1 -1 -1 -1 -1 -1 0 3 12 35 74 101 83 43 16 4 0 0 -1 -1 0 1 7 24 60 98 91 50 19 5 2 5 18 49 99 
133 129 104 69 37 16 5 0 0 -1 -1 -1 -1 -1 -1 -1 0 0 3 12 32 65 97 97 65 32 12 3 0 0 -1 -1 -1 -1 -1 -1 0 0 5 17 41 77 101 86 48 20 7 4 11 32 71 102 80 39 13 3 0 -1 -1 -1 -1 -1 -1 -1 -1 -1 -1 -1 -1 -1 -1 -1 -1 -1 -1 -1 -1 -1 -1 -1 0 0 6 20 50 89 100 67 30 10 2 0 -1 -1 -1 0 2 10 32 71 101 82 40 14 4 1 5 18 50 99 
125 121 114 96 62 31 12 3 0 0 -1 -1 -1 -1 -1 -1 0 2 8 24 53 88 101 77 41 17 5 0 0 -1 -1 -1 -1 -1 -1 -1 0 2 11 30 64 96 96 64 30 11 3 2 8 26 63 99 87 45 16 4 0 -1 -1 -1 -1 -1 -1 -1 -1 -1 -1 -1 -1 -1 -1 -1 -1 -1 -1 -1 -1 -1 -1 -1 0 2 10 30 67 100 89 50 20 6 0 0 -1 -1 -1 0 3 14 40 82 101 71 32 10 2 1 5 18 50 98 
113 100 100 106 88 54 25 10 3 0 0 -1 -1 -1 -1 0 0 5 17 41 77 101 88 53 24 8 2 0 -1 -1 -1 -1 -1 -1 -1 0 1 6 20 48 86 101 77 41 17 5 1 1 6 22 57 96 92 49 18 4 0 0 -1 -1 -1 -1 -1 -1 -1 -1 -1 -1 -1 -1 -1 -1 -1 -1 -1 -1 -1 -1 -1 0 0 4 16 43 83 101 74 35 12 3 0 -1 -1 -1 0 0 5 19 50 91 98 60 25 7 1 1 5 19 51 96 
104 80 75 94 102 80 47 22 9 2 0 0 -1 -1 0 0 3 12 32 65 97 97 65 32 12 3 0 0 -1 -1 -1 -1 -1 -1 -1 0 3 12 33 69 100 91 55 24 8 2 0 0 5 20 53 94 94 53 20 5 0 0 -1 -1 -1 -1 -1 -1 -1 -1 -1 -1 -1 -1 -1 -1 -1 -1 -1 -1 -1 -1 -1 0 1 7 24 57 95 95 57 24 7 1 0 -1 -1 -1 0 1 7 24 60 98 91 50 19 5 0 0 5 19 52 95 
99 67 53 70 96 100 75 44 21 8 2 0 0 0 0 2 8 24 53 88 101 77 41 17 5 0 0 -1 -1 -1 -1 -1 -1 -1 0 1 7 21 51 89 100 71 35 13 3 0 0 0 5 18 49 92 96 57 22 6 0 0 -1 -1 -1 -1 -1 -1 -1 -1 -1 -1 -1 -1 -1 -1 -1 -1 -1 -1 -1 -1 -1 0 3 12 35 74 101 83 43 16 4 0 0 -1 -1 -1 0 2 10 32 71 101 82 40 14 3 0 0 5 19 52 95 
96 59 37 44 71 98 99 73 43 21 8 2 0 0 1 5 17 41 77 101 88 53 24 8 2 0 -1 -1 -1 -1 -1 -1 -1 0 0 3 13 35 71 100 89 51 21 7 1 0 0 0 4 16 45 87 99 63 26 8 1 0 -1 -1 -1 -1 -1 -1 -1 -1 -1 -1 -1 -1 -1 -1 -1 -1 -1 -1 -1 -1 0 0 6 20 50 89 100 67 30 10 2 0 -1 -1 -1 -1 0 3 14 40 82 101 71 32 10 2 0 0 5 19 52 94 
95 55 28 25 43 73 98 98 73 43 21 8 3 1 4 12 32 65 97 97 65 32 12 3 0 0 -1 -1 -1 -1 -1 -1 -1 0 2 8 24 55 91 100 69 33 12 3 0 0 -1 0 3 13 39 80 102 71 32 10 2 0 -1 -1 -1 -1 -1 -1 -1 -1 -1 -1 -1 -1 -1 -1 -1 -1 -1 -1 -1 -1 0 2 10 30 67 100 89 50 20 6 0 0 -1 -1 -1 0 0 5 19 50 91 98 60 24 7 1 0 0 5 19 52 94 
94 54 23 14 22 43 73 98 98 73 43 21 9 6 10 24 53 88 101 77 41 17 5 0 0 -1 -1 -1 -1 -1 -1 -1 0 0 5 17 41 77 101 86 48 20 6 1 0 -1 -1 0 2 10 32 71 102 81 39 13 3 0 -1 -1 -1 -1 -1 -1 -1 -1 -1 -1 -1 -1 -1 -1 -1 -1 -1 -1 -1 0 0 4 16 43 83 101 74 35 12 3 0 -1 -1 -1 -1 0 1 7 24 60 98 91 50 19 5 0 0 0 5 19 52 94 
94 53 21 9 10 21 43 73 98 98 73 44 23 16 21 43 77 101 88 53 24 8 2 0 -1 -1 -1 -1 -1 -1 -1 -1 0 2 11 30 64 96 96 64 30 11 2 0 -1 -1 -1 0 1 8 26 62 99 88 45 16 4 0 -1 -1 -1 -1 -1 -1 -1 -1 -1 -1 -1 -1 -1 -1 -1 -1 -1 -1 -1 0 1 7 24 57 95 95 57 24 7 1 0 -1 -1 -1 -1 0 2 10 32 71 101 82 40 14 3 0 0 0 5 19 52 94 
94 52 20 6 4 9 21 43 73 98 98 75 48 35 42 69 98 97 65 32 12 3 0 0 -1 -1 -1 -1 -1 -1 -1 0 1 6 20 48 86 101 77 41 17 5 0 0 -1 -1 -1 0 0 6 22 56 96 92 51 19 5 0 0 -1 -1 -1 -1 -1 -1 -1 -1 -1 -1 -1 -1 -1 -1 -1 -1 -1 -1 0 3 12 35 74 101 83 43 16 4 0 0 -1 -1 -1 -1 0 3 14 40 82 101 71 32 10 2 0 0 0 5 19 52 94 
94 52 20 5 1 3 8 21 43 73 99 101 83 68 74 96 103 77 41 17 5 0 0 -1 -1 -1 -1 -1 -1 -1 -1 0 3 12 33 69 100 91 55 24 8 2 0 -1 -1 -1 -1 0 0 5 19 51 92 96 56 22 6 0 0 -1 -1 -1 -1 -1 -1 -1 -1 -1 -1 -1 -1 -1 -1 -1 -1 -1 0 0 6 20 50 89 100 67 30 10 2 0 -1 -1 -1 -1 0 0 5 19 50 91 98 60 24 7 1 0 0 0 5 19 52 94 
94 52 19 5 0 0 2 8 21 43 73 101 111 108 111 112 89 52 23 8 2 0 -1 -1 -1 -1 -1 -1 -1 -1 0 1 7 21 51 89 100 71 35 13 3 0 0 -1 -1 -1 -1 -1 0 4 16 45 88 99 62 26 8 1 0 -1 -1 -1 -1 -1 -1 -1 -1 -1 -1 -1 -1 -1 -1 -1 -1 -1 0 2 10 30 67 100 89 50 20 6 0 0 -1 -1 -1 -1 0 1 7 24 60 98 91 50 19 5 0 0 0 0 5 19 52 94 
94 52 19 5 0 0 0 2 8 21 43 76 110 132 131 106 66 32 12 3 0 0 -1 -1 -1 -1 -1 -1 -1 0 0 3 13 35 71 100 89 51 21 7 1 0 -1 -1 -1 -1 -1 -1 0 3 13 39 81 102 71 32 10 2 0 -1 -1 -1 -1 -1 -1 -1 -1 -1 -1 -1 -1 -1 -1 -1 -1 0 0 4 16 43 83 101 74 35 12 3 0 -1 -1 -1 -1 -1 0 2 10 32 71 101 82 40 14 3 0 0 0 0 5 19 52 94 
94 52 19 5 0 0 0 0 2 9 22 48 88 126 126 87 45 18 6 1 0 -1 -1 -1 -1 -1 -1 -1 -1 0 2 8 24 55 91 100 69 33 12 3 0 -1 -1 -1 -1 -1 -1 -1 0 2 10 32 71 102 80 39 13 3 0 -1 -1 -1 -1 -1 -1 -1 -1 -1 -1 -1 -1 -1 -1 -1 -1 0 1 7 24 57 95 95 57 24 7 1 0 -1 -1 -1 -1 -1 0 3 14 40 82 101 71 32 10 2 0 -1 0 0 5 19 52 94 
94 52 19 5 0 0 -1 0 0 3 11 30 66 108 113 72 33 11 3 0 -1 -1 -1 -1 -1 -1 -1 -1 0 0 5 17 41 77 101 86 48 20 6 1 0 -1 -1 -1 -1 -1 -1 -1 0 1 8 26 63 99 87 45 16 4 0 -1 -1 -1 -1 -1 -1 -1 -1 -1 -1 -1 -1 -1 -1 -1 -1 0 3 12 35 74 101 83 43 16 4 0 0 -1 -1 -1 -1 0 0 5 19 50 91 98 60 24 7 1 0 -1 0 0 5 19 52 94 
94 52 19 5 0 0 -1 -1 0 1 6 20 51 94 106 68 30 10 2 0 -1 -1 -1 -1 -1 -1 -1 -1 0 2 11 30 64 96 96 64 30 11 2 0 -1 -1 -1 -1 -1 -1 -1 -1 0 0 6 22 57 96 92 49 18 4 0 0 -1 -1 -1 -1 -1 -1 -1 -1 -1 -1 -1 -1 -1 -1 0 0 6 20 50 89 100 67 30 10 2 0 -1 -1 -1 -1 -1 0 1 7 24 60 98 91 50 19 5 0 0 -1 0 0 5 19 52 94 
94 52 19 5 0 0 -1 -1 0 0 3 14 41 82 104 73 33 11 2 0 -1 -1 -1 -1 -1 -1 -1 0 1 6 20 48 86 101 77 41 17 5 0 0 -1 -1 -1 -1 -1 -1 -1 -1 0 0 5 20 53 94 94 53 20 5 0 0 -1 -1 -1 -1 -1 -1 -1 -1 -1 -1 -1 -1 -1 -1 0 2 10 30 67 100 89 50 20 6 0 0 -1 -1 -1 -1 -1 0 2 10 32 71 101 82 40 14 3 0 -1 -1 0 0 5 19 52 94 
94 52 19 5 0 0 -1 -1 -1 0 2 10 32 72 102 81 40 14 3 0 -1 -1 -1 -1 -1 -1 -1 0 3 12 33 69 100 91 55 24 8 2 0 -1 -1 -1 -1 -1 -1 -1 -1 -1 0 0 4 18 49 92 96 57 22 6 0 0 -1 -1 -1 -1 -1 -1 -1 -1 -1 -1 -1 -1 -1 0 0 4 16 43 83 101 74 35 12 3 0 -1 -1 -1 -1 -1 -1 0 3 14 40 82 101 71 32 10 2 0 -1 -1 0 0 5 20 53 95 
94 52 19 5 0 0 -1 -1 -1 0 1 7 25 62 99 89 47 17 4 0 -1 -1 -1 -1 -1 -1 0 1 7 21 51 89 100 71 35 13 3 0 0 -1 -1 -1 -1 -1 -1 -1 -1 -1 -1 0 4 16 45 87 99 63 26 8 1 0 -1 -1 -1 -1 -1 -1 -1 -1 -1 -1 -1 -1 -1 0 1 7 24 57 95 95 57 24 7 1 0 -1 -1 -1 -1 -1 0 0 5 19 50 91 98 60 24 7 1 0 -1 -1 0 0 5 20 54 95 
95 52 19 5 0 0 -1 -1 -1 0 0 6 21 54 94 94 54 21 6 0 0 -1 -1 -1 -1 0 0 3 13 35 71 100 89 51 21 7 1 0 -1 -1 -1 -1 -1 -1 -1 -1 -1 -1 -1 0 3 13 39 80 102 71 32 10 2 0 -1 -1 -1 -1 -1 -1 -1 -1 -1 -1 -1 -1 -1 0 3 12 35 74 101 83 43 16 4 0 0 -1 -1 -1 -1 -1 0 1 7 24 60 98 91 50 19 5 0 0 -1 -1 0 0 6 22 57 98 
95 51 19 5 0 0 -1 -1 -1 -1 0 4 17 47 89 99 62 25 7 1 0 -1 -1 -1 -1 0 2 8 24 55 91 100 69 33 12 3 0 -1 -1 -1 -1 -1 -1 -1 -1 -1 -1 -1 -1 0 2 10 32 71 102 80 39 13 3 0 -1 -1 -1 -1 -1 -1 -1 -1 -1 -1 -1 -1 0 0 6 20 50 89 100 67 30 10 2 0 -1 -1 -1 -1 -1 -1 0 2 10 32 71 101 82 40 14 3 0 -1 -1 -1 0 1 8 27 64 103 
96 50 18 4 0 0 -1 -1 -1 -1 0 3 13 39 81 101 71 32 10 2 0 -1 -1 -1 0 0 5 17 41 77 101 86 48 20 6 1 0 -1 -1 -1 -1 -1 -1 -1 -1 -1 -1 -1 -1 0 1 8 26 63 99 87 45 16 4 0 -1 -1 -1 -1 -1 -1 -1 -1 -1 -1 -1 -1 0 2 10 30 67 100 89 50 20 6 0 0 -1 -1 -1 -1 -1 -1 0 3 14 40 82 101 71 32 10 2 0 -1 -1 0 0 3 13 36 77 112 
98 49 18 4 0 0 -1 -1 -1 -1 0 2 10 32 71 101 81 39 13 3 0 -1 -1 -1 0 2 11 30 64 96 96 64 30 11 2 0 -1 -1 -1 -1 -1 -1 -1 -1 -1 -1 -1 -1 -1 0 0 6 22 57 96 92 50 18 4 0 0 -1 -1 -1 -1 -1 -1 -1 -1 -1 -1 0 0 4 16 43 83 101 74 35 12 3 0 -1 -1 -1 -1 -1 -1 0 0 5 19 50 91 98 60 24 7 1 0 -1 -1 0 2 8 23 53 96 124 
99 49 18 4 0 0 -1 -1 -1 -1 0 1 7 25 62 99 89 47 17 4 0 0 -1 0 1 6 20 48 86 101 77 41 17 5 0 0 -1 -1 -1 -1 -1 -1 -1 -1 -1 -1 -1 -1 -1 0 0 5 20 53 94 94 53 20 5 0 0 -1 -1 -1 -1 -1 -1 -1 -1 -1 -1 0 1 7 24 57 95 95 57 24 7 1 0 -1 -1 -1 -1 -1 -1 0 1 7 24 60 98 91 50 19 5 0 0 -1 0 0 5 16 40 77 117 132 
98 50 18 4 0 0 -1 -1 -1 -1 0 0 6 21 54 94 94 54 21 6 0 0 0 0 3 12 33 69 100 91 55 24 8 2 0 -1 -1 -1 -1 -1 -1 -1 -1 -1 -1 -1 -1 -1 -1 0 0 4 18 50 92 96 57 22 6 0 0 -1 -1 -1 -1 -1 -1 -1 -1 -1 -1 0 3 12 35 74 101 83 43 16 4 0 0 -1 -1 -1 -1 -1 -1 0 2 10 32 71 101 82 40 14 3 0 0 0 0 3 12 31 64 102 129 132 
97 50 18 5 0 0 -1 -1 -1 -1 -1 0 4 17 47 89 99 62 25 7 1 0 0 1 7 21 51 89 100 71 35 13 3 0 0 -1 -1 -1 -1 -1 -1 -1 -1 -1 -1 -1 -1 -1 -1 -1 0 4 16 45 88 99 63 26 8 1 0 0 -1 -1 -1 -1 -1 -1 -1 -1 0 0 6 20 50 89 100 67 30 10 2 0 -1 -1 -1 -1 -1 -1 -1 0 3 14 40 82 101 71 32 10 2 0 0 0 2 8 23 52 89 114 122 124 
96 51 19 5 0 0 -1 -1 -1 -1 -1 0 3 13 39 81 101 71 32 10 2 0 0 3 13 35 71 100 89 51 21 7 1 0 -1 -1 -1 -1 -1 -1 -1 -1 -1 -1 -1 -1 -1 -1 -1 -1 0 3 13 39 81 102 73 34 12 3 1 0 0 0 0 0 0 -1 -1 0 0 2 10 30 67 100 89 50 20 6 0 0 -1 -1 -1 -1 -1 -1 0 0 5 19 50 91 98 60 24 7 1 0 0 1 5 17 41 77 104 106 104 114 
95 52 19 5 0 0 -1 -1 -1 -1 -1 0 2 10 32 71 101 81 39 14 3 0 2 8 24 55 91 100 69 33 12 3 0 -1 -1 -1 -1 -1 -1 -1 -1 -1 -1 -1 -1 -1 -1 -1 -1 -1 0 2 11 34 74 105 85 45 20 9 5 3 2 1 0 0 0 0 0 0 1 5 16 43 83 102 74 35 12 3 0 -1 -1 -1 -1 -1 -1 -1 0 1 7 24 60 98 91 50 19 5 0 0 0 3 12 32 65 97 102 86 86 105 
95 52 19 5 0 0 -1 -1 -1 -1 -1 0 1 7 25 62 99 89 47 17 5 2 5 17 41 77 101 86 48 20 6 1 0 -1 -1 -1 -1 -1 -1 -1 -1 -1 -1 -1 -1 -1 -1 -1 -1 0 0 3 11 32 70 108 101 64 36 23 18 14 10 8 6 5 4 4 3 2 4 9 26 58 96 95 57 24 7 1 0 -1 -1 -1 -1 -1 -1 -1 0 2 10 32 71 101 82 40 14 3 0 0 2 8 24 53 88 102 83 63 71 100 
94 52 19 5 0 0 -1 -1 -1 -1 -1 0 0 6 21 54 94 94 54 21 7 5 11 30 64 96 96 64 30 11 2 0 -1 -1 -1 -1 -1 -1 -1 -1 -1 -1 -1 -1 -1 -1 -1 -1 0 0 2 7 17 39 78 118 121 93 68 55 47 39 32 26 22 20 18 16 14 11 12 19 40 77 103 83 43 16 4 0 0 -1 -1 -1 -1 -1 -1 -1 0 3 14 40 82 101 71 32 10 2 0 1 5 17 41 77 101 90 59 45 62 97 
94 52 19 5 0 0 -1 -1 -1 -1 -1 -1 0 4 17 47 89 99 62 26 10 9 21 49 86 101 77 41 17 5 0 0 -1 -1 -1 -1 -1 -1 -1 -1 -1 -1 -1 -1 -1 -1 0 0 0 3 8 18 35 62 98 130 135 119 104 95 89 81 71 63 57 53 50 45 39 34 32 41 65 97 103 68 31 10 2 0 -1 -1 -1 -1 -1 -1 -1 0 0 5 19 50 91 98 60 25 7 1 0 3 12 32 65 97 97 67 39 33 57 95 
94 52 19 5 0 0 -1 -1 -1 -1 -1 -1 0 3 13 39 81 102 71 33 15 16 34 70 100 91 55 24 8 2 0 -1 -1 -1 -1 -1 -1 -1 -1 -1 -1 -1 -1 -1 -1 0 0 2 5 12 24 42 66 93 113 119 113 104 99 98 100 102 102 99 96 94 92 88 81 74 70 78 100 116 96 53 21 6 1 0 -1 -1 -1 -1 -1 -1 -1 0 1 7 25 60 98 91 50 19 5 1 2 8 24 53 88 101 77 43 24 27 55 95 
94 52 19 5 0 0 -1 -1 -1 -1 -1 -1 0 2 10 32 71 102 82 42 22 26 52 89 100 71 35 13 3 0 0 -1 -1 -1 -1 -1 -1 -1 -1 -1 -1 -1 -1 -1 0 0 3 8 17 32 53 77 97 104 94 78 64 57 55 57 63 71 80 87 92 94 96 99 102 104 107 116 130 128 90 44 17 5 0 0 -1 -1 -1 -1 -1 -1 -1 0 2 10 32 71 101 82 41 14 4 2 6 17 41 77 101 88 53 25 15 23 53 94 
94 52 19 5 0 0 -1 -1 -1 -1 -1 -1 0 1 7 25 62 99 90 52 32 41 73 101 89 51 21 7 1 0 -1 -1 -1 -1 -1 -1 -1 -1 -1 -1 -1 -1 0 0 1 5 12 23 41 65 88 101 97 78 55 38 27 22 21 22 26 32 39 45 49 53 57 63 72 83 95 111 129 128 91 46 19 6 1 0 0 0 0 0 0 0 0 0 4 15 41 82 102 71 32 11 3 4 12 32 65 97 97 65 32 14 10 21 53 94 
94 52 19 5 0 0 -1 -1 -1 -1 -1 -1 0 0 6 21 54 95 97 64 47 62 93 100 69 33 12 3 0 -1 -1 -1 -1 -1 -1 -1 -1 -1 -1 -1 -1 0 0 2 7 16 31 52 77 97 101 88 65 42 25 14 9 6 6 6 8 10 13 16 18 20 22 26 32 41 53 70 96 115 100 61 29 12 5 2 1 0 0 0 0 0 0 2 7 20 51 92 98 60 25 8 4 9 24 53 88 101 77 41 18 7 7 20 52 94 
94 52 19 5 0 0 -1 -1 -1 -1 -1 -1 -1 0 4 17 46 89 104 81 70 87 103 86 48 20 6 1 0 -1 -1 -1 -1 -1 -1 -1 -1 -1 -1 0 0 1 3 9 20 38 63 87 101 97 77 53 32 17 8 4 1 0 0 0 1 2 3 4 4 5 6 8 11 15 22 35 60 93 107 84 51 27 15 9 6 5 5 5 5 5 6 8 14 30 64 101 93 52 21 8 8 18 42 77 101 88 53 24 9 3 6 20 52 94 
94 52 19 5 0 0 -1 -1 -1 -1 -1 -1 -1 0 3 13 39 81 109 102 97 106 98 63 30 11 2 0 -1 -1 -1 -1 -1 -1 -1 -1 -1 -1 0 0 2 5 12 25 45 72 95 101 89 65 41 24 12 5 2 0 0 0 0 0 0 0 0 0 0 0 0 1 2 4 7 16 34 67 102 108 85 57 38 28 23 21 20 19 19 20 20 23 31 50 84 111 90 47 20 11 15 33 65 97 97 65 32 12 4 2 5 19 52 94 
94 52 19 5 0 0 -1 -1 -1 -1 -1 -1 -1 0 2 10 31 71 111 122 119 109 77 41 17 5 0 0 -1 -1 -1 -1 -1 -1 -1 -1 0 0 0 3 8 17 32 54 79 99 99 79 54 32 17 8 3 0 0 0 -1 -1 -1 -1 -1 -1 -1 -1 0 0 0 0 0 0 2 7 19 45 86 120 121 99 78 65 57 54 53 52 52 53 53 56 65 84 112 124 93 52 27 20 29 55 89 101 77 41 17 5 1 1 5 19 52 94 
94 52 19 5 0 0 -1 -1 -1 -1 -1 -1 -1 0 1 7 24 61 108 133 125 93 53 24 8 2 0 -1 -1 -1 -1 -1 -1 -1 -1 0 0 1 5 12 23 41 65 89 102 95 72 45 25 12 5 2 0 0 -1 -1 -1 -1 -1 -1 -1 -1 -1 -1 -1 -1 -1 -1 -1 0 0 3 12 33 72 119 136 125 111 102 97 95 94 94 94 94 95 97 103 116 132 134 107 71 47 40 53 82 103 89 53 24 8 2 0 0 5 19 52 94 
94 52 19 5 0 0 -1 -1 -1 -1 -1 -1 -1 0 0 6 20 54 103 132 113 70 33 13 3 0 0 -1 -1 -1 -1 -1 -1 0 0 0 3 8 17 31 52 77 97 101 88 63 38 20 9 3 1 0 0 -1 -1 -1 -1 -1 -1 -1 -1 -1 -1 -1 -1 -1 -1 -1 -1 -1 0 2 9 29 68 113 123 107 95 92 93 93 94 94 94 94 94 95 97 103 112 120 116 100 83 78 90 108 102 67 33 12 3 0 0 0 5 19 52 94 
94 52 19 5 0 0 -1 -1 -1 -1 -1 -1 -1 0 0 5 19 51 100 123 93 49 20 6 1 0 -1 -1 -1 -1 -1 0 0 0 2 5 11 22 40 64 88 102 98 78 53 32 16 7 2 0 0 -1 -1 -1 -1 -1 -1 -1 -1 -1 -1 -1 -1 -1 -1 -1 -1 -1 -1 -1 0 2 11 33 73 108 99 70 54 50 50 51 52 52 52 52 52 52 53 56 63 77 93 105 110 116 125 123 91 49 20 6 1 0 0 0 5 19 52 94 
94 52 19 5 0 0 -1 -1 -1 -1 -1 -1 -1 0 0 5 19 51 97 112 75 35 12 3 0 0 -1 -1 -1 0 0 0 2 5 9 17 30 50 76 100 107 95 71 46 27 14 7 3 0 0 0 0 -1 -1 -1 -1 -1 -1 -1 -1 -1 -1 -1 -1 -1 -1 -1 -1 -1 -1 0 3 13 39 81 104 79 44 25 20 19 19 19 19 19 19 19 19 20 22 26 36 51 71 94 117 134 126 84 42 16 5 0 0 0 0 5 19 52 94 
94 52 19 5 0 0 -1 -1 -1 -1 -1 -1 -1 0 0 5 20 53 97 102 62 26 8 1 0 0 0 0 0 1 3 6 10 17 27 41 63 90 114 120 103 76 51 33 20 12 7 4 2 1 0 0 0 0 0 0 -1 -1 -1 -1 -1 -1 -1 -1 -1 -1 -1 -1 -1 -1 0 4 16 46 88 100 65 29 12 7 5 5 5 5 5 5 5 5 5 6 8 13 21 35 54 82 112 120 91 49 20 6 1 0 0 0 5 19 52 94 
94 52 19 5 0 0 -1 -1 -1 -1 -1 -1 -1 0 0 6 22 56 97 95 53 21 6 1 0 0 0 1 3 6 12 20 30 44 60 81 104 125 135 126 103 80 61 47 35 26 20 14 10 8 6 4 3 2 1 0 0 0 0 0 -1 -1 -1 -1 -1 -1 -1 -1 -1 0 0 5 19 51 92 96 56 23 7 2 0 0 0 0 0 0 0 0 0 0 1 3 7 13 25 46 77 105 102 67 33 12 3 0 0 0 5 19 52 94 
94 52 19 5 0 0 -1 -1 -1 -1 -1 -1 -1 0 1 8 26 63 100 89 47 17 5 1 1 2 4 7 13 21 33 49 67 84 98 107 113 117 121 120 112 103 93 83 71 60 50 41 32 25 21 17 13 10 7 5 3 2 1 0 0 0 0 0 0 -1 -1 -1 -1 0 0 6 22 56 96 93 51 19 5 0 0 0 0 0 0 0 0 0 0 0 0 0 1 4 10 22 46 80 103 89 53 24 8 2 0 0 5 19 52 94 
94 52 19 5 0 0 -1 -1 -1 -1 -1 -1 -1 0 2 10 32 71 102 81 40 15 5 4 6 10 16 24 36 51 70 88 100 102 96 87 77 72 75 83 90 95 99 102 102 98 91 82 72 62 54 47 39 31 24 19 14 10 7 6 4 3 2 1 0 0 0 0 0 0 1 8 26 62 99 88 46 16 4 0 0 -1 -1 -1 -1 -1 -1 -1 -1 -1 -1 0 0 0 3 10 25 54 89 102 77 41 17 5 1 1 5 19 52 94 
94 52 19 5 0 0 -1 -1 -1 -1 -1 -1 -1 0 3 13 39 81 102 73 34 15 10 13 20 30 43 58 74 90 100 100 90 74 58 45 35 31 33 39 46 54 62 72 82 91 97 101 102 99 94 89 81 70 60 50 41 32 25 21 17 13 10 7 5 3 2 1 0 1 3 11 33 72 102 81 39 13 3 0 -1 -1 -1 -1 -1 -1 -1 -1 -1 -1 -1 -1 -1 0 0 4 12 32 65 97 97 65 32 13 4 2 5 20 52 94 
94 52 19 5 0 0 -1 -1 -1 -1 -1 -1 0 0 4 17 47 89 101 67 34 22 24 34 49 67 83 95 102 99 88 70 51 36 24 17 12 10 11 13 17 21 25 32 41 50 60 70 81 89 94 99 102 101 97 91 82 72 62 54 47 39 31 24 19 14 10 8 6 5 8 17 42 82 102 71 32 10 2 0 -1 -1 -1 -1 -1 -1 -1 -1 -1 -1 -1 -1 -1 -1 0 1 5 17 41 77 101 89 54 25 10 4 6 20 52 94 
94 52 19 5 0 0 -1 -1 -1 -1 -1 -1 0 0 6 21 54 96 102 69 45 42 53 70 88 99 102 95 83 66 49 33 21 13 7 4 2 2 2 3 4 6 7 10 14 19 24 31 39 47 54 62 72 82 91 97 101 102 99 94 89 81 70 60 50 41 32 26 21 19 19 28 54 93 100 62 26 8 1 0 -1 -1 -1 -1 -1 -1 -1 -1 -1 -1 -1 -1 -1 -1 -1 0 2 8 23 52 87 101 79 45 21 9 8 20 53 94 
94 52 19 5 0 0 -1 -1 -1 -1 -1 -1 0 1 8 26 62 105 111 85 71 77 90 101 101 90 74 58 43 30 20 12 6 3 1 0 0 0 0 0 0 0 1 2 3 5 7 10 13 17 21 25 32 41 50 60 70 81 89 94 99 102 101 97 91 82 72 62 54 49 46 51 74 105 99 56 22 6 0 0 -1 -1 -1 -1 -1 -1 -1 -1 -1 -1 -1 -1 -1 -1 -1 0 0 3 12 31 63 95 99 72 39 18 12 22 53 94 
94 52 19 5 0 0 -1 -1 -1 -1 -1 -1 0 3 12 35 76 119 126 111 103 104 101 89 71 52 36 24 16 10 6 3 1 0 0 0 -1 -1 -1 -1 -1 0 0 0 0 0 1 2 3 4 6 7 10 14 19 24 31 39 47 54 62 72 82 91 97 101 102 99 95 90 87 89 104 121 99 52 19 5 0 0 -1 -1 -1 -1 -1 -1 -1 -1 -1 -1 -1 -1 -1 -1 -1 -1 0 0 5 16 38 72 99 95 64 33 19 25 54 95 
94 52 19 5 0 0 -1 -1 -1 -1 -1 0 1 6 21 50 94 130 133 118 104 88 70 50 34 21 13 7 4 2 0 0 0 -1 -1 -1 -1 -1 -1 -1 -1 -1 -1 -1 -1 0 0 0 0 0 0 1 2 3 5 7 10 13 17 21 25 32 41 50 60 70 81 89 95 100 106 115 129 134 100 50 18 5 0 0 -1 -1 -1 -1 -1 -1 -1 -1 -1 -1 -1 -1 -1 -1 -1 -1 -1 0 1 7 20 45 79 101 88 55 32 31 56 95 
94 52 19 5 0 0 -1 -1 -1 -1 0 0 3 13 34 71 109 122 107 86 66 48 33 21 12 6 3 1 0 0 0 -1 -1 -1 -1 -1 -1 -1 -1 -1 -1 -1 -1 -1 -1 -1 -1 -1 -1 -1 0 0 0 0 0 1 2 3 4 6 7 10 14 19 24 31 39 47 54 63 76 95 119 131 100 50 18 5 0 0 -1 -1 -1 -1 -1 -1 -1 -1 -1 -1 -1 -1 -1 -1 -1 -1 -1 -1 0 2 9 25 53 88 102 81 52 42 61 97 
95 52 19 5 0 0 -1 -1 -1 -1 0 2 8 24 54 92 109 92 65 44 30 19 12 6 3 1 0 0 0 -1 -1 -1 -1 -1 -1 -1 -1 -1 -1 -1 -1 -1 -1 -1 -1 -1 -1 -1 -1 -1 -1 -1 -1 -1 0 0 0 0 0 0 1 2 3 5 7 10 13 17 21 27 38 58 89 116 98 51 19 5 0 0 -1 -1 -1 -1 -1 -1 -1 -1 -1 -1 -1 -1 -1 -1 -1 -1 -1 -1 0 0 3 12 31 63 95 100 78 60 70 100 
95 52 19 5 0 0 -1 -1 -1 0 1 5 17 42 78 103 92 59 33 18 10 6 3 1 0 0 -1 -1 -1 -1 -1 -1 -1 -1 -1 -1 -1 -1 -1 -1 -1 -1 -1 -1 -1 -1 -1 -1 -1 -1 -1 -1 -1 -1 -1 -1 -1 -1 -1 0 0 0 0 0 1 2 3 4 6 9 17 34 67 104 96 52 19 5 0 0 -1 -1 -1 -1 -1 -1 -1 -1 -1 -1 -1 -1 -1 -1 -1 -1 -1 -1 -1 0 0 5 16 38 72 100 100 84 85 105 
96 51 19 5 0 0 -1 -1 0 0 3 12 32 65 97 97 66 34 15 6 3 1 0 0 0 -1 -1 -1 -1 -1 -1 -1 -1 -1 -1 -1 -1 -1 -1 -1 -1 -1 -1 -1 -1 -1 -1 -1 -1 -1 -1 -1 -1 -1 -1 -1 -1 -1 -1 -1 -1 -1 -1 0 0 0 0 0 1 3 9 24 57 98 96 54 21 6 0 0 -1 -1 -1 -1 -1 -1 -1 -1 -1 -1 -1 -1 -1 -1 -1 -1 -1 -1 -1 -1 0 1 7 20 45 79 105 106 104 114 
97 50 18 5 0 0 -1 0 0 2 9 25 54 89 102 78 43 19 7 2 0 0 0 0 0 0 0 -1 -1 -1 -1 -1 -1 -1 -1 -1 -1 -1 -1 -1 -1 -1 -1 -1 -1 -1 -1 -1 -1 -1 -1 -1 -1 -1 -1 -1 -1 -1 -1 -1 -1 -1 -1 -1 -1 -1 -1 0 0 1 7 21 54 96 99 59 24 8 1 0 0 -1 -1 -1 -1 -1 -1 -1 -1 -1 -1 -1 -1 -1 -1 -1 -1 -1 -1 -1 -1 0 2 9 25 53 89 114 122 124 
98 50 18 4 0 0 0 0 2 8 21 45 80 105 93 58 28 12 5 2 1 0 0 0 0 0 0 0 0 0 0 0 0 0 0 0 0 -1 -1 -1 -1 -1 -1 -1 -1 -1 -1 -1 -1 -1 -1 -1 -1 -1 -1 -1 -1 -1 -1 -1 -1 -1 -1 -1 -1 -1 -1 0 0 2 8 24 56 99 107 70 33 14 5 1 0 0 -1 -1 -1 -1 -1 -1 -1 -1 -1 -1 -1 -1 -1 -1 -1 -1 -1 -1 -1 0 0 3 12 31 64 102 129 132 
99 49 18 4 0 0 0 2 8 19 41 74 106 111 83 50 27 15 9 7 5 5 5 5 5 5 4 4 3 2 1 0 0 0 0 0 0 0 0 0 0 0 0 0 0 0 0 0 0 -1 -1 -1 -1 -1 -1 -1 -1 -1 -1 -1 -1 -1 -1 -1 -1 -1 0 0 2 6 15 33 67 109 122 91 53 28 14 7 3 0 0 0 -1 -1 -1 -1 -1 -1 -1 -1 -1 -1 -1 -1 -1 -1 -1 -1 -1 -1 0 1 5 17 40 77 117 132 
98 49 18 5 0 0 2 8 19 40 72 108 127 117 89 64 46 34 27 22 20 20 19 19 19 19 18 16 13 10 8 6 5 5 5 5 5 4 4 3 2 1 0 0 0 0 0 0 0 0 0 0 0 0 0 0 0 0 0 0 0 -1 -1 0 0 0 1 3 8 18 33 57 90 123 136 117 85 56 35 21 11 5 2 0 0 -1 -1 -1 -1 -1 -1 -1 -1 -1 -1 -1 -1 -1 -1 -1 -1 -1 -1 0 2 8 23 53 96 124 
96 50 18 5 2 3 8 20 41 72 105 129 135 124 109 95 84 72 63 57 54 53 52 52 52 51 49 45 39 32 26 22 20 20 19 19 19 18 16 13 10 8 6 5 5 5 5 5 5 4 4 3 2 1 0 0 0 0 0 0 0 0 0 0 1 3 6 13 24 42 65 90 110 120 122 119 109 92 71 49 30 17 8 3 1 0 0 -1 -1 -1 -1 -1 -1 -1 -1 -1 -1 -1 -1 -1 -1 -1 -1 0 0 4 13 36 77 112 
95 51 19 7 4 9 21 42 73 101 115 113 107 102 100 101 102 102 99 97 95 94 94 94 94 93 91 87 80 71 63 57 54 53 52 52 51 49 45 39 32 26 22 20 20 19 19 19 19 18 16 13 10 8 6 5 5 5 5 5 4 4 4 4 6 11 21 35 54 78 97 103 95 83 77 82 93 102 100 86 64 41 24 13 6 3 0 0 0 -1 -1 -1 -1 -1 -1 -1 -1 -1 -1 -1 -1 -1 -1 -1 0 1 8 27 64 103 
95 53 21 10 12 22 44 73 99 103 87 69 58 55 57 63 71 80 87 91 93 94 94 94 94 95 97 99 102 102 99 97 95 94 94 94 93 91 87 80 71 63 57 54 53 52 52 52 51 49 45 39 32 26 22 20 20 19 19 19 18 16 15 15 20 32 49 71 91 102 97 78 57 41 35 40 53 72 91 102 96 77 54 35 21 11 5 2 0 0 -1 -1 -1 -1 -1 -1 -1 -1 -1 -1 -1 -1 -1 -1 0 0 6 22 57 98 
95 55 26 19 27 47 75 99 99 76 50 32 23 21 22 26 32 39 45 49 51 52 52 52 53 54 57 63 71 80 87 91 93 94 94 94 95 97 99 102 102 99 97 95 94 94 94 94 93 91 87 80 71 63 57 54 53 52 52 51 49 46 42 42 50 67 87 100 100 86 64 42 25 16 12 15 22 35 55 78 96 101 91 70 49 30 17 8 3 1 0 0 -1 -1 -1 -1 -1 -1 -1 -1 -1 -1 -1 -1 0 0 5 20 54 96 
97 61 38 38 56 80 100 97 73 44 23 12 7 6 6 8 10 13 16 18 19 19 19 19 20 20 22 26 32 39 45 49 51 52 52 53 54 57 63 71 80 87 91 93 94 94 94 94 95 97 99 102 102 99 97 95 94 94 94 93 92 90 87 87 95 104 105 92 71 49 30 17 9 4 3 4 7 13 24 41 64 86 100 100 86 64 41 24 13 6 3 0 0 0 -1 -1 -1 -1 -1 -1 -1 -1 -1 -1 0 0 5 20 53 95 
102 73 60 70 90 102 94 70 41 20 9 3 1 0 0 1 2 3 4 4 5 5 5 5 5 5 6 8 10 13 16 18 19 19 19 20 20 22 26 32 39 45 49 51 52 52 52 53 54 57 63 71 80 87 91 93 94 94 95 96 99 106 117 127 128 112 85 57 36 21 11 5 2 0 0 0 1 3 8 17 30 49 70 91 101 96 77 54 35 21 11 5 2 0 0 -1 -1 -1 -1 -1 -1 -1 -1 -1 0 0 5 19 52 95 
111 95 91 100 102 88 63 37 19 8 2 0 0 0 0 0 0 0 0 0 0 0 0 0 0 0 0 1 2 3 4 4 5 5 5 5 5 6 8 10 13 16 18 19 19 19 19 20 20 22 26 32 39 45 49 51 52 52 53 55 62 77 104 131 128 92 53 28 14 7 3 0 0 0 -1 0 0 0 2 5 11 21 35 54 77 96 101 91 70 49 30 17 8 3 1 0 0 -1 -1 -1 -1 -1 -1 -1 0 0 5 19 51 96 
124 119 113 102 80 54 31 16 7 2 0 0 -1 -1 -1 -1 -1 -1 -1 -1 0 0 0 0 0 0 0 0 0 0 0 0 0 0 0 0 0 0 1 2 3 4 4 5 5 5 5 5 5 6 8 10 13 16 18 19 19 19 20 22 28 44 77 114 112 70 33 14 5 1 0 0 -1 -1 -1 -1 -1 0 0 0 3 6 13 24 41 64 86 100 100 86 64 41 24 13 7 3 1 0 0 -1 -1 -1 -1 -1 0 0 5 18 50 98 
133 129 106 75 46 25 12 5 1 0 0 -1 -1 -1 -1 -1 -1 -1 -1 -1 -1 -1 -1 -1 -1 -1 -1 -1 -1 -1 -1 -1 0 0 0 0 0 0 0 0 0 0 0 0 0 0 0 0 0 0 1 2 3 4 4 5 5 5 5 7 13 28 61 102 101 59 24 8 1 0 0 -1 -1 -1 -1 -1 -1 -1 -1 0 0 1 3 8 17 30 49 70 91 101 96 77 55 35 21 12 6 2 0 0 0 -1 -1 -1 0 0 4 18 50 99 
130 114 76 43 22 10 3 0 0 -1 -1 -1 -1 -1 -1 -1 -1 -1 -1 -1 -1 -1 -1 -1 -1 -1 -1 -1 -1 -1 -1 -1 -1 -1 -1 -1 -1 -1 -1 -1 -1 -1 -1 0 0 0 0 0 0 0 0 0 0 0 0 0 0 0 0 2 7 22 55 97 96 54 21 6 0 0 -1 -1 -1 -1 -1 -1 -1 -1 -1 -1 -1 0 0 2 5 11 21 35 54 77 96 101 91 71 51 33 20 11 5 1 0 0 0 0 0 0 5 18 49 99 
118 88 48 22 9 3 0 0 -1 -1 -1 -1 -1 -1 -1 -1 -1 -1 -1 -1 -1 -1 -1 -1 -1 -1 -1 -1 -1 -1 -1 -1 -1 -1 -1 -1 -1 -1 -1 -1 -1 -1 -1 -1 -1 -1 -1 -1 -1 -1 -1 -1 -1 -1 -1 0 0 0 0 0 5 20 53 95 95 53 20 5 0 0 -1 -1 -1 -1 -1 -1 -1 -1 -1 -1 -1 -1 0 0 0 3 6 13 24 41 64 86 100 100 89 69 48 30 16 8 3 1 0 0 0 1 5 18 50 98 
106 69 32 12 3 0 0 -1 -1 -1 -1 -1 -1 -1 -1 -1 -1 -1 -1 -1 -1 -1 -1 -1 -1 -1 -1 -1 -1 -1 -1 -1 -1 -1 -1 -1 -1 -1 -1 -1 -1 -1 -1 -1 -1 -1 -1 -1 -1 -1 -1 -1 -1 -1 -1 -1 -1 -1 0 0 5 20 52 94 94 52 19 5 0 0 -1 -1 -1 -1 -1 -1 -1 -1 -1 -1 -1 -1 -1 -1 0 0 1 3 8 17 30 49 70 89 101 100 86 63 40 23 13 8 5 3 2 3 7 20 52 96 
99 59 24 7 1 0 -1 -1 -1 -1 -1 -1 -1 -1 -1 -1 -1 -1 -1 -1 -1 -1 -1 -1 -1 -1 -1 -1 -1 -1 -1 -1 -1 -1 -1 -1 -1 -1 -1 -1 -1 -1 -1 -1 -1 -1 -1 -1 -1 -1 -1 -1 -1 -1 -1 -1 -1 -1 0 0 5 19 52 94 94 52 19 5 0 0 -1 -1 -1 -1 -1 -1 -1 -1 -1 -1 -1 -1 -1 -1 -1 -1 0 0 2 5 11 20 34 52 73 93 105 99 78 54 36 25 19 14 11 9 12 24 55 97 
97 54 21 6 1 0 0 -1 -1 -1 -1 -1 -1 -1 -1 -1 -1 -1 -1 -1 -1 -1 -1 -1 -1 -1 -1 -1 -1 -1 -1 -1 -1 -1 -1 -1 -1 -1 -1 -1 -1 -1 -1 -1 -1 -1 -1 -1 -1 -1 -1 -1 -1 -1 -1 -1 -1 -1 0 0 5 19 52 94 94 52 19 5 0 0 -1 -1 -1 -1 -1 -1 -1 -1 -1 -1 -1 -1 -1 -1 -1 -1 -1 0 0 1 3 7 14 25 42 64 92 113 114 97 76 61 49 40 32 26 26 36 64 100 
98 54 21 7 2 0 0 0 0 0 0 0 0 0 0 -1 -1 -1 -1 -1 -1 -1 -1 -1 -1 -1 -1 -1 -1 -1 -1 -1 -1 -1 -1 -1 -1 -1 -1 -1 -1 -1 -1 -1 -1 -1 -1 -1 -1 -1 -1 -1 -1 -1 -1 -1 -1 -1 0 0 5 19 52 94 94 52 19 5 0 0 -1 -1 -1 -1 -1 -1 -1 -1 -1 -1 -1 -1 -1 -1 -1 -1 -1 0 0 0 2 5 10 19 32 51 80 112 133 131 116 103 92 82 71 62 57 62 83 110 
103 57 25 11 7 5 4 4 3 2 1 0 0 0 0 0 0 0 0 0 0 0 0 0 -1 -1 -1 -1 -1 -1 -1 -1 -1 -1 -1 -1 -1 -1 -1 -1 -1 -1 -1 -1 -1 -1 -1 -1 -1 -1 -1 -1 -1 -1 -1 -1 -1 -1 0 0 5 19 52 94 94 52 19 5 0 0 -1 -1 -1 -1 -1 -1 -1 -1 -1 -1 -1 -1 -1 -1 0 0 0 0 2 4 8 13 21 33 49 68 92 116 127 121 110 103 102 103 102 99 97 99 113 126 
113 69 39 26 21 19 18 16 13 10 8 6 5 5 4 4 3 2 1 0 0 0 0 0 0 0 0 0 0 0 0 0 -1 -1 -1 -1 -1 -1 -1 -1 -1 -1 -1 -1 -1 -1 -1 -1 -1 -1 -1 -1 -1 -1 -1 -1 -1 -1 0 0 5 19 52 94 94 52 19 5 0 0 -1 -1 -1 -1 -1 -1 -1 -1 -1 -1 -1 -1 0 0 0 1 3 6 10 16 24 35 50 68 85 98 106 105 93 77 65 61 64 72 82 92 101 114 130 139 
128 95 70 58 53 51 49 45 39 32 26 22 20 19 18 16 13 10 8 6 5 5 5 4 4 3 2 1 0 0 0 0 0 0 0 0 0 0 0 0 0 -1 -1 -1 -1 -1 -1 -1 -1 -1 -1 -1 -1 -1 -1 -1 -1 -1 0 0 5 19 52 94 94 52 19 5 0 0 -1 -1 -1 -1 -1 -1 -1 -1 -1 -1 0 0 0 2 4 7 12 20 30 43 57 74 89 100 102 95 83 66 49 35 27 25 27 33 41 51 64 84 112 137 
140 125 108 99 95 93 91 87 80 71 63 57 54 52 49 45 39 32 26 22 20 20 19 18 16 13 10 8 6 5 5 4 4 3 2 1 0 0 0 0 0 0 0 0 0 0 0 0 0 -1 -1 -1 -1 -1 -1 -1 -1 -1 0 0 5 19 52 94 94 52 19 5 0 0 -1 -1 -1 -1 -1 -1 -1 0 0 0 1 3 6 10 16 24 35 50 67 83 95 101 100 89 74 57 43 30 19 12 8 7 8 11 15 20 30 49 82 124 
136 125 108 99 96 95 97 99 102 102 99 97 95 93 91 87 80 71 63 57 54 52 51 49 45 39 32 26 22 20 19 18 16 13 10 8 6 5 5 5 4 4 3 2 1 0 0 0 0 0 0 0 0 0 0 0 0 0 0 0 5 20 52 94 94 52 19 5 0 0 -1 -1 -1 -1 -1 0 0 0 1 3 6 12 20 30 43 57 74 89 100 101 95 83 67 50 35 24 16 10 6 3 1 1 1 2 4 7 13 29 63 110 
119 96 71 59 55 54 57 63 71 80 87 91 93 95 97 99 102 102 99 97 95 94 93 91 87 80 71 63 57 54 52 49 45 39 32 26 22 20 20 19 18 16 13 10 8 6 5 5 4 4 3 2 1 0 0 0 0 0 0 1 6 20 53 94 94 52 19 5 0 0 -1 -1 0 0 0 0 2 4 7 13 21 33 49 66 83 95 101 100 89 74 57 43 30 20 12 7 4 2 0 0 0 0 0 0 0 2 7 22 55 101 
105 71 40 26 22 21 22 26 32 39 45 49 52 54 57 63 71 80 87 91 93 94 95 97 99 102 102 99 97 95 93 91 87 80 71 63 57 54 52 51 49 45 39 32 26 22 20 19 18 16 13 10 8 6 5 5 5 4 4 5 9 22 54 95 95 53 20 5 0 0 0 0 0 1 3 6 10 16 24 36 51 70 88 99 102 95 83 67 50 35 24 16 10 6 3 1 0 0 0 -1 -1 -1 -1 -1 0 0 5 20 52 97 
98 58 26 12 7 6 6 8 10 13 16 18 19 20 22 26 32 39 45 49 51 52 54 57 63 71 80 87 91 93 95 97 99 102 102 99 97 95 94 93 91 87 80 71 63 57 54 52 49 45 39 32 26 22 20 20 19 18 16 15 17 29 60 99 97 54 21 6 1 0 1 2 4 7 12 20 30 43 58 74 90 100 100 90 74 58 43 30 20 12 7 4 2 0 0 0 0 -1 -1 -1 -1 -1 -1 -1 0 0 5 19 52 95 
95 54 21 7 2 1 0 1 2 3 4 4 5 5 6 8 10 13 16 18 19 20 20 22 26 32 39 45 49 52 54 57 63 71 80 87 91 93 94 95 97 99 102 102 99 97 95 93 91 87 80 71 63 57 54 52 51 49 45 41 39 47 74 108 102 59 24 9 4 4 6 10 16 24 35 50 67 83 95 102 99 88 70 51 36 24 16 10 6 3 1 0 0 0 -1 -1 -1 -1 -1 -1 -1 -1 -1 -1 0 0 5 19 52 94 
94 53 20 5 0 0 0 0 0 0 0 0 0 0 0 1 2 3 4 4 5 5 5 6 8 10 13 16 18 19 20 22 26 32 39 45 49 51 52 54 57 63 71 80 87 91 93 95 97 99 102 102 99 97 95 94 93 91 88 82 77 81 100 124 114 71 34 17 12 14 20 30 43 57 74 89 100 101 95 83 66 49 33 21 13 7 4 2 0 0 0 0 -1 -1 -1 -1 -1 -1 -1 -1 -1 -1 -1 -1 0 0 5 19 52 94 
94 52 19 5 0 0 -1 -1 -1 -1 -1 0 0 0 0 0 0 0 0 0 0 0 0 0 1 2 3 4 4 5 5 6 8 10 13 16 18 19 20 20 22 26 32 39 45 49 52 54 57 63 71 80 87 91 93 94 95 97 99 102 105 109 122 136 128 93 57 37 32 38 51 67 83 95 101 100 89 74 57 43 30 20 12 6 3 1 0 0 0 -1 -1 -1 -1 -1 -1 -1 -1 -1 -1 -1 -1 -1 -1 -1 0 0 5 19 52 94 
94 52 19 5 0 0 -1 -1 -1 -1 -1 -1 -1 -1 -1 -1 -1 -1 -1 0 0 0 0 0 0 0 0 0 0 0 0 0 1 2 3 4 4 5 5 5 6 8 10 13 16 18 19 20 22 26 32 39 45 49 51 52 54 57 63 71 81 90 101 115 123 115 93 76 71 79 91 100 102 95 83 67 50 35 24 16 10 6 3 1 0 0 0 -1 -1 -1 -1 -1 -1 -1 -1 -1 -1 -1 -1 -1 -1 -1 -1 -1 0 0 5 19 52 94 
94 52 19 5 0 0 -1 -1 -1 -1 -1 -1 -1 -1 -1 -1 -1 -1 -1 -1 -1 -1 -1 -1 -1 -1 -1 0 0 0 0 0 0 0 0 0 0 0 0 0 0 1 2 3 4 4 5 5 6 8 10 13 16 18 19 20 20 22 26 32 39 46 55 69 91 115 125 120 113 108 102 90 74 58 43 30 20 12 7 4 2 0 0 0 0 -1 -1 -1 -1 -1 -1 -1 -1 -1 -1 -1 -1 -1 -1 -1 -1 -1 -1 -1 0 0 5 19 52 94 
94 53 20 5 0 0 0 0 0 0 0 0 0 0 0 0 0 0 0 0 0 0 0 0 0 0 0 0 0 0 0 0 0 0 0 0 0 0 0 0 0 0 0 0 0 0 0 1 1 1 2 3 4 5 5 5 6 7 8 11 14 18 23 34 56 93 128 136 116 92 70 51 36 25 16 10 6 3 1 0 0 0 0 0 0 0 0 0 0 0 0 0 0 0 0 0 0 0 0 0 0 0 0 0 0 0 5 20 53 94 
95 54 21 7 2 0 0 0 0 0 0 0 0 0 0 0 0 0 0 0 0 0 0 0 0 0 0 0 0 0 0 0 0 0 0 0 0 0 0 0 0 0 0 0 0 0 0 0 0 1 1 1 1 2 2 2 2 2 3 4 5 6 10 17 36 72 115 122 91 58 36 23 15 9 6 4 2 1 1 0 0 0 0 0 0 0 0 0 0 0 0 0 0 0 0 0 0 0 0 0 0 0 0 0 0 2 7 21 54 95 
99 58 26 12 7 5 5 5 5 5 5 5 5 5 5 5 5 5 5 5 5 5 5 5 5 5 5 5 5 5 5 5 4 4 4 5 5 5 5 5 5 5 5 5 5 5 5 5 5 5 5 5 5 5 5 5 5 5 6 6 6 7 9 15 31 65 107 110 73 40 22 14 10 8 7 6 5 5 5 5 5 5 5 5 5 5 5 5 5 5 5 4 4 4 5 5 5 5 5 5 5 5 5 5 5 6 11 26 58 99 
108 70 40 26 21 20 19 19 19 19 19 19 19 19 19 19 19 19 19 19 19 19 19 19 19 19 19 19 19 19 19 18 18 18 18 19 19 19 19 19 19 19 19 19 19 19 19 19 18 18 18 18 19 19 19 19 19 19 20 20 20 20 22 27 42 73 111 112 76 45 30 23 21 20 20 20 20 19 19 19 19 19 19 19 19 19 19 19 19 19 19 18 18 18 19 19 19 19 19 19 19 19 19 18 18 20 25 39 70 108 
126 96 70 58 54 53 52 52 52 52 52 52 52 52 52 52 52 52 52 52 52 52 52 52 52 52 52 52 52 52 51 50 50 49 50 51 51 52 52 52 52 52 52 52 52 52 52 51 50 50 50 50 51 52 52 52 52 52 52 52 52 53 54 59 71 96 126 126 97 72 59 55 53 53 52 52 52 52 52 52 52 52 52 52 52 52 52 52 52 51 51 50 49 50 51 51 52 52 52 52 52 52 51 50 50 52 57 69 96 126 
148 126 108 99 95 94 94 94 94 94 94 94 94 94 94 94 94 94 94 94 94 94 94 94 94 94 94 94 94 95 96 98 99 99 98 96 95 94 94 94 94 94 94 94 94 94 95 96 98 100 100 98 96 95 94 94 94 94 94 94 94 94 95 98 105 118 132 132 118 105 98 95 94 94 94 94 94 94 94 94 94 94 94 94 94 94 94 94 95 95 97 99 100 98 96 95 94 94 94 94 94 95 97 99 100 100 101 109 127 148 
