P2
110 110
255
147 126 108 99 95 94 94 94 94 94 94 94 94 94 94 94 94 94 94 94 94 94 94 94 94 94 94 95 96 100 109 122 132 130 119 106 99 96 94 94 94 94 94 94 94 95 98 106 119 132 132 118 105 98 95 94 94 94 94 94 94 94 94 94 95 97 99 99 97 95 94 94 94 94 94 94 94 94 94 94 94 94 94 94 94 94 94 95 98 104 117 130 132 121 108 100 96 95 94 95 97 102 114 128 133 124 114 114 128 148 
126 96 71 59 54 53 53 53 53 53 53 53 53 53 53 53 53 53 53 53 53 53 53 53 53 53 53 55 58 68 87 113 129 117 91 70 59 55 53 53 53 53 53 53 53 55 60 74 101 128 125 96 71 59 55 53 53 53 53 53 53 53 53 52 52 51 50 50 51 52 52 53 53 53 53 53 53 53 53 53 53 53 53 53 53 53 53 55 61 75 101 126 124 98 74 61 55 54 53 54 58 69 92 121 128 105 83 80 99 127 
108 71 41 27 22 20 20 20 20 20 20 20 20 20 20 20 20 20 20 20 20 20 20 20 20 20 21 24 31 47 75 107 112 84 53 34 25 21 20 20 20 20 20 20 21 23 30 48 82 117 109 70 40 27 22 20 20 20 20 20 20 20 20 20 19 19 18 18 19 19 20 20 20 20 20 20 20 20 20 20 20 20 20 20 20 20 21 24 33 53 88 114 99 64 38 26 22 21 21 22 27 42 72 108 109 76 50 49 73 108 
99 59 27 12 7 6 5 5 5 5 5 5 5 5 5 5 5 5 5 5 5 5 5 5 5 6 8 13 25 49 84 106 90 55 28 14 8 6 5 5 5 5 5 6 7 10 20 42 82 116 101 57 26 12 7 6 5 5 5 5 5 5 5 5 5 5 5 5 5 5 5 5 5 5 5 5 5 5 5 5 5 5 5 5 5 6 7 12 24 51 90 105 77 40 19 10 7 6 6 8 15 33 68 103 95 57 32 34 61 99 
95 54 22 7 2 1 0 0 0 0 0 0 0 0 0 0 0 0 0 0 0 0 0 0 1 2 5 14 34 67 98 97 65 33 13 5 2 1 0 0 0 0 0 1 3 8 22 51 95 123 99 52 20 7 2 1 0 0 0 0 0 0 0 0 0 0 0 0 0 0 0 0 0 0 0 0 0 0 0 0 0 0 0 0 0 1 3 10 27 60 97 96 58 26 9 3 1 1 1 4 13 34 73 103 83 44 23 27 56 96 
94 53 20 6 1 0 0 0 0 0 0 0 0 0 0 0 0 0 0 0 0 0 0 0 0 2 9 25 53 88 101 77 42 18 6 1 0 0 0 0 0 0 0 0 3 12 33 69 112 131 100 51 20 6 1 0 0 0 0 0 0 0 0 0 0 0 0 0 0 0 0 0 0 0 0 0 0 0 0 0 0 0 0 0 0 0 4 13 36 74 102 83 43 17 5 1 0 0 0 4 15 42 82 101 72 35 18 24 54 94 
94 53 20 5 0 0 -1 -1 -1 -1 -1 -1 -1 -1 -1 -1 -1 -1 -1 -1 -1 -1 -1 0 1 6 18 42 77 101 88 53 24 9 2 0 0 -1 -1 -1 -1 0 0 1 7 21 50 91 125 133 103 55 21 6 1 0 -1 -1 -1 -1 -1 -1 -1 -1 -1 -1 -1 -1 -1 -1 -1 -1 -1 -1 -1 -1 -1 -1 -1 -1 -1 -1 -1 -1 0 1 6 21 51 89 99 67 31 10 2 0 0 0 0 5 19 50 91 97 61 27 15 23 54 94 
94 53 20 5 0 0 -1 -1 -1 -1 -1 -1 -1 -1 -1 -1 -1 -1 -1 -1 -1 -1 0 0 3 12 32 65 96 96 65 32 12 3 0 0 -1 -1 -1 -1 -1 0 0 4 14 35 71 107 124 126 106 61 25 8 1 0 -1 -1 -1 -1 -1 -1 -1 -1 -1 -1 -1 -1 -1 -1 -1 -1 -1 -1 -1 -1 -1 -1 -1 -1 -1 -1 -1 -1 0 2 10 31 67 99 89 50 20 6 1 0 0 0 1 8 25 60 97 91 51 21 12 22 53 94 
94 53 20 5 0 0 -1 -1 -1 -1 -1 -1 -1 -1 -1 -1 -1 -1 -1 -1 -1 0 0 2 9 24 53 88 101 77 42 18 6 1 0 -1 -1 -1 -1 -1 -1 0 2 9 25 55 91 110 108 112 108 71 32 10 2 0 -1 -1 -1 -1 -1 -1 -1 -1 -1 -1 -1 -1 -1 -1 -1 -1 -1 -1 -1 -1 -1 -1 -1 -1 -1 -1 -1 0 0 4 16 43 83 101 74 36 13 3 0 0 0 0 2 11 32 71 101 82 41 17 11 21 53 94 
94 53 20 5 0 0 -1 -1 -1 -1 -1 -1 -1 -1 -1 -1 -1 -1 -1 -1 -1 0 1 6 18 42 77 101 88 53 24 9 2 0 0 -1 -1 -1 -1 -1 0 0 5 17 42 78 103 97 84 93 106 80 39 13 3 0 -1 -1 -1 -1 -1 -1 -1 -1 -1 -1 -1 -1 -1 -1 -1 -1 -1 -1 -1 -1 -1 -1 -1 -1 -1 -1 -1 0 1 8 25 58 95 95 58 25 8 1 0 -1 0 0 3 15 41 82 101 71 33 13 9 21 53 94 
94 53 20 5 0 0 -1 -1 -1 -1 -1 -1 -1 -1 -1 -1 -1 -1 -1 -1 0 0 3 12 32 65 96 96 65 32 12 3 0 0 -1 -1 -1 -1 -1 0 0 3 11 31 64 96 99 74 60 76 102 87 45 16 4 0 0 -1 -1 -1 -1 -1 -1 -1 -1 -1 -1 -1 -1 -1 -1 -1 -1 -1 -1 -1 -1 -1 -1 -1 -1 -1 0 0 3 13 36 74 101 83 43 16 4 0 0 -1 0 0 5 19 50 91 97 60 26 9 8 21 53 94 
96 55 21 6 0 0 -1 -1 -1 -1 -1 -1 -1 -1 -1 -1 -1 -1 -1 0 0 2 9 24 53 88 101 77 42 18 6 1 0 -1 -1 -1 -1 -1 -1 0 1 6 21 49 86 102 80 50 42 64 98 92 50 19 5 0 0 -1 -1 -1 -1 -1 -1 -1 -1 -1 -1 -1 -1 -1 -1 -1 -1 -1 -1 -1 -1 -1 -1 -1 -1 -1 0 1 6 20 50 89 99 67 31 10 2 0 -1 -1 0 1 8 25 60 97 91 50 20 7 7 20 52 94 
99 59 24 8 1 0 -1 -1 -1 -1 -1 -1 -1 -1 -1 -1 -1 -1 -1 0 1 6 18 42 77 101 88 53 24 9 2 0 0 -1 -1 -1 -1 -1 0 0 3 12 34 70 100 91 57 32 31 57 95 94 53 20 5 0 0 -1 -1 -1 -1 -1 -1 -1 -1 -1 -1 -1 -1 -1 -1 -1 -1 -1 -1 -1 -1 -1 -1 -1 -1 -1 0 2 10 31 67 99 89 50 20 6 1 0 -1 -1 0 2 11 32 71 101 82 41 15 5 7 20 52 95 
106 69 32 12 3 0 0 -1 -1 -1 -1 -1 -1 -1 -1 -1 -1 -1 0 0 3 12 32 65 96 96 65 32 12 3 0 0 -1 -1 -1 -1 -1 -1 0 1 7 22 51 89 100 72 38 20 24 52 92 96 57 23 6 1 0 -1 -1 -1 -1 -1 -1 -1 -1 -1 -1 -1 -1 -1 -1 -1 -1 -1 -1 -1 -1 -1 -1 -1 -1 0 0 4 16 43 83 101 74 36 13 3 0 0 -1 0 0 3 15 41 82 101 71 32 11 4 6 19 51 96 
118 88 48 22 8 2 0 0 -1 -1 -1 -1 -1 -1 -1 -1 -1 0 0 2 9 24 53 88 101 77 42 18 6 1 0 -1 -1 -1 -1 -1 -1 0 0 4 14 36 72 100 89 52 23 13 19 46 87 99 63 26 8 1 0 -1 -1 -1 -1 -1 -1 -1 -1 -1 -1 -1 -1 -1 -1 -1 -1 -1 -1 -1 -1 -1 -1 -1 -1 0 1 8 25 58 95 95 58 25 8 1 0 -1 -1 0 0 5 19 50 91 97 60 25 8 3 6 19 50 97 
129 113 75 41 19 7 1 0 -1 -1 -1 -1 -1 -1 -1 -1 -1 0 1 6 18 42 77 101 88 53 24 9 2 0 0 -1 -1 -1 -1 -1 -1 0 2 9 25 55 91 99 70 34 14 8 15 40 81 101 72 32 11 2 0 -1 -1 -1 -1 -1 -1 -1 -1 -1 -1 -1 -1 -1 -1 -1 -1 -1 -1 -1 -1 -1 -1 -1 0 0 3 13 36 74 101 83 43 16 4 0 0 -1 -1 0 1 8 25 60 97 91 50 19 6 2 5 18 50 99 
133 128 103 69 37 16 5 1 0 -1 -1 -1 -1 -1 -1 -1 0 0 3 12 32 65 96 96 65 32 12 3 0 0 -1 -1 -1 -1 -1 -1 0 0 5 17 42 78 101 86 49 21 7 5 11 33 72 101 80 39 14 3 0 -1 -1 -1 -1 -1 -1 -1 -1 -1 -1 -1 -1 -1 -1 -1 -1 -1 -1 -1 -1 -1 -1 -1 0 1 6 20 50 89 99 67 31 10 2 0 -1 -1 -1 0 2 11 32 71 101 82 41 15 4 2 5 18 50 99 
125 121 114 96 63 32 13 4 0 0 -1 -1 -1 -1 -1 0 0 2 9 24 53 88 101 77 42 18 6 1 0 -1 -1 -1 -1 -1 -1 0 0 3 11 31 64 96 96 64 31 11 3 3 8 27 63 99 87 45 16 4 0 0 -1 -1 -1 -1 -1 -1 -1 -1 -1 -1 -1 -1 -1 -1 -1 -1 -1 -1 -1 -1 -1 -1 0 2 10 31 67 99 89 50 20 6 1 0 -1 -1 0 0 3 15 41 82 101 71 32 11 3 1 5 19 51 98 
113 101 100 106 88 54 26 10 3 0 0 -1 -1 -1 -1 0 1 6 18 42 77 101 88 53 24 9 2 0 0 -1 -1 -1 -1 -1 -1 0 1 6 21 49 86 101 78 42 17 5 1 1 7 23 57 96 91 50 19 5 0 0 -1 -1 -1 -1 -1 -1 -1 -1 -1 -1 -1 -1 -1 -1 -1 -1 -1 -1 -1 -1 -1 0 0 4 16 43 83 101 74 36 13 3 0 0 -1 -1 0 0 5 19 50 91 97 60 25 8 1 1 5 19 52 96 
104 81 76 94 102 80 47 23 9 3 0 0 -1 -1 0 0 3 12 32 65 96 96 65 32 12 3 0 0 -1 -1 -1 -1 -1 -1 0 0 3 12 34 70 99 91 55 25 9 2 0 1 6 20 53 94 94 53 20 5 0 0 -1 -1 -1 -1 -1 -1 -1 -1 -1 -1 -1 -1 -1 -1 -1 -1 -1 -1 -1 -1 -1 0 1 8 25 58 95 95 58 25 8 1 0 -1 -1 -1 0 1 8 25 60 97 91 50 19 5 1 1 5 20 52 95 
99 68 54 70 96 100 75 44 21 9 2 0 0 0 0 2 9 24 53 88 101 77 42 18 6 1 0 -1 -1 -1 -1 -1 -1 -1 0 1 7 22 51 89 100 72 36 14 4 0 0 0 5 19 50 91 96 57 23 6 1 0 -1 -1 -1 -1 -1 -1 -1 -1 -1 -1 -1 -1 -1 -1 -1 -1 -1 -1 -1 -1 0 0 3 13 36 74 101 83 43 16 4 0 0 -1 -1 -1 0 2 11 32 71 101 82 41 15 4 0 1 5 20 52 94 
96 60 38 45 72 97 98 74 43 21 9 2 0 0 1 6 18 42 77 101 88 53 24 9 2 0 0 -1 -1 -1 -1 -1 -1 0 0 4 14 36 72 100 89 51 22 7 1 0 0 0 4 16 45 87 99 63 26 8 1 0 -1 -1 -1 -1 -1 -1 -1 -1 -1 -1 -1 -1 -1 -1 -1 -1 -1 -1 -1 -1 0 1 6 20 50 89 99 67 31 10 2 0 -1 -1 -1 0 0 3 15 41 82 101 71 32 11 2 0 0 5 20 53 94 
95 56 29 26 43 73 98 98 73 43 21 9 3 2 4 13 32 65 96 96 65 32 12 3 0 0 -1 -1 -1 -1 -1 -1 -1 0 2 9 25 55 91 99 70 34 12 3 0 0 0 0 3 14 39 80 101 72 32 11 2 0 -1 -1 -1 -1 -1 -1 -1 -1 -1 -1 -1 -1 -1 -1 -1 -1 -1 -1 -1 -1 0 2 10 31 67 99 89 50 20 6 1 0 -1 -1 -1 0 0 5 19 50 91 97 60 25 8 1 0 0 5 20 53 94 
94 54 24 15 23 43 73 98 98 73 43 21 10 6 10 25 53 88 101 77 42 18 6 1 0 -1 -1 -1 -1 -1 -1 -1 0 0 5 17 42 78 101 86 49 21 6 1 0 -1 -1 0 2 10 32 71 101 81 39 14 3 0 -1 -1 -1 -1 -1 -1 -1 -1 -1 -1 -1 -1 -1 -1 -1 -1 -1 -1 -1 0 0 4 16 43 83 101 74 36 13 3 0 0 -1 -1 -1 0 1 8 25 60 97 91 50 19 5 0 0 0 5 20 53 94 
94 53 21 9 10 21 43 73 98 98 74 44 24 16 22 44 78 101 88 53 24 9 2 0 0 -1 -1 -1 -1 -1 -1 0 0 3 11 31 64 96 96 64 31 11 3 0 0 -1 -1 0 1 8 26 63 99 88 46 17 4 0 0 -1 -1 -1 -1 -1 -1 -1 -1 -1 -1 -1 -1 -1 -1 -1 -1 -1 -1 0 1 8 25 58 95 95 58 25 8 1 0 -1 -1 -1 -1 0 2 11 32 71 101 82 41 15 3 0 0 0 5 20 53 94 
94 53 20 7 4 9 21 43 73 98 98 75 49 36 43 69 98 97 65 32 12 3 0 0 -1 -1 -1 -1 -1 -1 -1 0 1 6 21 49 86 101 78 42 17 5 0 0 -1 -1 -1 0 1 6 22 56 96 92 51 19 5 0 0 -1 -1 -1 -1 -1 -1 -1 -1 -1 -1 -1 -1 -1 -1 -1 -1 -1 0 0 3 13 36 74 101 83 43 16 4 0 0 -1 -1 -1 0 0 3 15 41 82 101 71 32 11 2 0 0 0 5 20 53 94 
94 53 20 6 2 3 9 21 43 73 98 101 83 69 75 96 102 77 42 18 6 1 0 -1 -1 -1 -1 -1 -1 -1 0 0 3 12 34 70 99 91 55 25 9 2 0 -1 -1 -1 -1 0 0 5 19 51 92 96 56 22 6 1 0 -1 -1 -1 -1 -1 -1 -1 -1 -1 -1 -1 -1 -1 -1 -1 -1 -1 0 1 6 20 50 89 99 67 31 10 2 0 -1 -1 -1 -1 0 0 5 19 50 91 97 60 25 8 1 0 0 0 5 20 53 94 
94 53 20 5 1 0 3 9 21 43 74 101 110 108 111 111 89 53 24 8 2 0 0 -1 -1 -1 -1 -1 -1 -1 0 1 7 22 51 89 100 72 36 14 4 0 0 -1 -1 -1 -1 0 0 4 17 46 88 99 63 26 8 1 0 -1 -1 -1 -1 -1 -1 -1 -1 -1 -1 -1 -1 -1 -1 -1 -1 -1 0 2 10 31 67 99 89 50 20 6 1 0 -1 -1 -1 -1 0 1 8 25 60 97 91 50 19 5 0 0 0 0 5 20 53 94 
94 53 20 5 0 0 0 2 9 21 44 76 110 131 131 106 66 32 12 3 0 0 -1 -1 -1 -1 -1 -1 -1 0 0 4 14 36 72 100 89 51 22 7 1 0 -1 -1 -1 -1 -1 -1 0 3 14 39 81 101 71 32 10 2 0 -1 -1 -1 -1 -1 -1 -1 -1 -1 -1 -1 -1 -1 -1 -1 -1 0 0 4 16 43 83 101 74 36 13 3 0 0 -1 -1 -1 -1 0 2 11 32 71 101 82 41 15 3 0 0 0 0 5 20 53 94 
94 53 20 5 0 0 0 0 3 9 23 49 88 125 126 87 45 19 6 1 0 -1 -1 -1 -1 -1 -1 -1 -1 0 2 9 25 55 91 99 70 34 12 3 0 0 -1 -1 -1 -1 -1 -1 0 2 11 32 72 101 80 39 14 3 0 -1 -1 -1 -1 -1 -1 -1 -1 -1 -1 -1 -1 -1 -1 -1 -1 0 1 8 25 58 95 95 58 25 8 1 0 -1 -1 -1 -1 0 0 3 15 41 82 101 71 32 11 2 0 0 0 0 5 20 53 94 
94 53 20 5 0 0 -1 0 0 3 12 31 66 108 113 73 33 12 3 0 0 -1 -1 -1 -1 -1 -1 -1 0 0 5 17 42 78 101 86 49 21 6 1 0 -1 -1 -1 -1 -1 -1 -1 0 1 8 26 63 99 87 45 16 4 0 0 -1 -1 -1 -1 -1 -1 -1 -1 -1 -1 -1 -1 -1 -1 0 0 3 13 36 74 101 83 43 16 4 0 0 -1 -1 -1 -1 0 0 5 19 50 91 97 60 25 8 1 0 -1 0 0 5 20 53 94 
94 53 20 5 0 0 -1 -1 0 1 6 21 52 94 106 69 30 10 2 0 -1 -1 -1 -1 -1 -1 -1 0 0 3 11 31 64 96 96 64 31 11 3 0 0 -1 -1 -1 -1 -1 -1 -1 0 1 6 23 57 96 91 50 19 5 0 0 -1 -1 -1 -1 -1 -1 -1 -1 -1 -1 -1 -1 -1 -1 0 1 6 20 50 89 99 67 31 10 2 0 -1 -1 -1 -1 -1 0 1 8 25 60 97 91 50 19 5 0 0 -1 0 0 5 20 53 94 
94 53 20 5 0 0 -1 -1 0 0 4 15 41 83 103 74 34 11 2 0 -1 -1 -1 -1 -1 -1 -1 0 1 6 21 49 86 101 78 42 17 5 0 0 -1 -1 -1 -1 -1 -1 -1 -1 0 0 5 20 53 94 94 53 20 5 0 0 -1 -1 -1 -1 -1 -1 -1 -1 -1 -1 -1 -1 -1 -1 0 2 10 31 67 99 89 50 20 6 1 0 -1 -1 -1 -1 -1 0 2 11 32 71 101 82 41 15 3 0 0 -1 0 0 5 20 53 94 
94 53 20 5 0 0 -1 -1 -1 0 2 11 33 72 102 81 40 14 3 0 0 -1 -1 -1 -1 -1 0 0 3 12 34 70 99 91 55 25 9 2 0 -1 -1 -1 -1 -1 -1 -1 -1 -1 0 0 5 19 50 91 96 57 23 6 1 0 -1 -1 -1 -1 -1 -1 -1 -1 -1 -1 -1 -1 -1 0 0 4 16 43 83 101 74 36 13 3 0 0 -1 -1 -1 -1 0 0 3 15 41 82 101 71 32 11 2 0 -1 -1 0 0 5 20 53 94 
94 52 20 5 0 0 -1 -1 -1 0 1 8 26 62 99 89 47 17 4 0 0 -1 -1 -1 -1 -1 0 1 7 22 51 89 100 72 36 14 4 0 0 -1 -1 -1 -1 -1 -1 -1 -1 -1 0 0 4 16 45 87 99 63 26 8 1 0 -1 -1 -1 -1 -1 -1 -1 -1 -1 -1 -1 -1 -1 0 1 8 25 58 95 95 58 25 8 1 0 -1 -1 -1 -1 -1 0 0 5 19 50 91 97 60 25 8 1 0 -1 -1 0 0 6 21 54 95 
94 52 19 5 0 0 -1 -1 -1 0 0 6 21 54 94 94 54 21 6 0 0 -1 -1 -1 -1 0 0 4 14 36 72 100 89 51 22 7 1 0 -1 -1 -1 -1 -1 -1 -1 -1 -1 -1 -1 0 3 14 39 80 101 72 32 11 2 0 -1 -1 -1 -1 -1 -1 -1 -1 -1 -1 -1 -1 0 0 3 13 36 74 101 83 43 16 4 0 0 -1 -1 -1 -1 -1 0 1 8 25 60 97 91 50 19 5 0 0 -1 -1 0 1 7 23 57 98 
95 51 19 5 0 0 -1 -1 -1 0 0 4 17 47 89 98 62 26 8 1 0 -1 -1 -1 -1 0 2 9 25 55 91 99 70 34 12 3 0 0 -1 -1 -1 -1 -1 -1 -1 -1 -1 -1 -1 0 2 11 32 72 101 80 39 14 3 0 -1 -1 -1 -1 -1 -1 -1 -1 -1 -1 -1 -1 0 1 6 20 50 89 99 67 31 10 2 0 -1 -1 -1 -1 -1 -1 0 2 11 32 71 101 82 41 15 3 0 0 -1 -1 0 2 9 27 64 103 
96 50 18 5 0 0 -1 -1 -1 0 0 3 14 40 81 101 71 32 11 2 0 -1 -1 -1 0 0 5 17 42 78 101 86 49 21 6 1 0 -1 -1 -1 -1 -1 -1 -1 -1 -1 -1 -1 -1 0 1 8 26 63 99 87 45 16 4 0 0 -1 -1 -1 -1 -1 -1 -1 -1 -1 -1 -1 0 2 10 31 67 99 89 50 20 6 1 0 -1 -1 -1 -1 -1 0 0 3 15 41 82 101 71 32 11 2 0 -1 -1 0 0 4 14 37 77 112 
97 49 18 5 0 0 -1 -1 -1 -1 0 2 11 32 71 101 81 40 14 3 0 0 -1 0 0 3 11 31 64 96 96 64 31 11 3 0 0 -1 -1 -1 -1 -1 -1 -1 -1 -1 -1 -1 -1 0 1 6 23 57 96 91 50 19 5 0 0 -1 -1 -1 -1 -1 -1 -1 -1 -1 -1 0 0 4 16 43 83 101 74 36 13 3 0 0 -1 -1 -1 -1 -1 0 0 5 19 50 91 97 60 25 8 1 0 -1 0 0 2 8 24 53 96 123 
98 49 18 5 0 0 -1 -1 -1 -1 0 1 8 26 62 98 89 47 17 4 0 0 -1 0 1 6 21 49 86 101 78 42 17 5 0 0 -1 -1 -1 -1 -1 -1 -1 -1 -1 -1 -1 -1 -1 0 0 5 20 53 94 94 53 20 5 0 0 -1 -1 -1 -1 -1 -1 -1 -1 -1 -1 0 1 8 25 58 95 95 58 25 8 1 0 -1 -1 -1 -1 -1 -1 0 1 8 25 60 97 91 50 19 5 0 0 0 0 1 5 17 40 77 117 131 
98 50 18 5 0 0 -1 -1 -1 -1 0 0 6 21 54 94 94 54 21 6 0 0 0 0 3 12 34 70 99 91 55 25 9 2 0 -1 -1 -1 -1 -1 -1 -1 -1 -1 -1 -1 -1 -1 -1 0 0 5 19 50 91 96 57 23 6 1 0 -1 -1 -1 -1 -1 -1 -1 -1 -1 0 0 3 13 36 74 101 83 43 16 4 0 0 -1 -1 -1 -1 -1 -1 0 2 11 32 71 101 82 41 15 3 0 0 0 0 3 12 31 64 102 128 131 
97 51 19 5 0 0 -1 -1 -1 -1 0 0 4 17 47 89 98 62 26 8 1 0 0 1 7 22 51 89 100 72 36 14 4 0 0 -1 -1 -1 -1 -1 -1 -1 -1 -1 -1 -1 -1 -1 -1 0 0 4 17 46 87 99 63 27 8 2 0 0 -1 -1 -1 -1 -1 -1 -1 -1 0 1 6 20 50 89 99 67 31 10 2 0 -1 -1 -1 -1 -1 -1 0 0 3 15 41 82 101 71 32 11 2 0 0 0 2 8 24 52 89 114 123 124 
96 52 19 5 0 0 -1 -1 -1 -1 0 0 3 14 40 81 101 71 32 11 2 0 0 4 14 36 72 100 89 51 22 7 1 0 -1 -1 -1 -1 -1 -1 -1 -1 -1 -1 -1 -1 -1 -1 -1 0 0 3 14 40 81 102 73 34 12 4 1 0 0 0 0 0 0 0 0 0 0 2 10 31 67 99 89 50 20 6 1 0 -1 -1 -1 -1 -1 -1 0 0 5 19 50 91 97 60 25 8 1 0 0 1 6 18 42 77 104 107 105 114 
95 52 20 5 0 0 -1 -1 -1 -1 -1 0 2 11 32 71 101 81 40 14 3 1 2 9 25 55 91 99 70 34 12 3 0 0 -1 -1 -1 -1 -1 -1 -1 -1 -1 -1 -1 -1 -1 -1 -1 0 0 3 12 34 74 104 85 46 20 10 5 3 2 1 1 0 0 0 0 0 1 5 17 44 83 101 74 36 13 3 0 0 -1 -1 -1 -1 -1 -1 0 1 8 25 60 97 91 50 19 5 0 0 0 3 12 32 65 97 102 86 87 106 
95 52 20 5 0 0 -1 -1 -1 -1 -1 0 1 8 26 62 98 89 47 18 5 2 6 17 42 78 101 86 49 21 6 1 0 -1 -1 -1 -1 -1 -1 -1 -1 -1 -1 -1 -1 -1 -1 -1 -1 0 0 3 12 33 71 108 101 64 37 24 18 14 11 8 6 5 5 4 3 3 4 10 26 59 95 95 58 25 8 1 0 -1 -1 -1 -1 -1 -1 -1 0 2 11 32 71 101 82 41 15 4 0 0 2 9 24 53 88 102 84 64 72 100 
94 53 20 5 0 0 -1 -1 -1 -1 -1 0 0 6 21 54 94 94 54 22 7 5 12 31 64 96 96 64 31 11 3 0 0 -1 -1 -1 -1 -1 -1 -1 -1 -1 -1 -1 -1 -1 -1 0 0 0 2 7 18 40 79 118 121 93 69 55 47 40 32 26 23 20 19 17 14 12 13 20 41 77 102 83 43 16 4 0 0 -1 -1 -1 -1 -1 -1 0 0 3 15 41 82 101 71 32 11 2 0 1 6 18 42 77 101 90 60 46 63 97 
94 53 20 5 0 0 -1 -1 -1 -1 -1 0 0 4 17 47 89 98 62 27 11 9 21 49 86 101 78 42 17 5 0 0 -1 -1 -1 -1 -1 -1 -1 -1 -1 -1 -1 -1 -1 -1 0 0 1 3 9 19 35 62 98 129 134 119 104 95 88 81 72 63 57 53 50 46 40 34 33 42 65 97 102 68 31 11 2 0 -1 -1 -1 -1 -1 -1 -1 0 0 5 19 50 91 97 60 25 8 2 1 4 12 32 65 96 97 67 39 34 58 95 
94 53 20 5 0 0 -1 -1 -1 -1 -1 0 0 3 14 40 81 101 72 34 16 16 35 70 99 91 55 25 9 2 0 -1 -1 -1 -1 -1 -1 -1 -1 -1 -1 -1 -1 -1 -1 0 0 2 6 12 24 42 67 93 112 119 112 104 99 98 99 101 101 99 96 94 91 87 81 74 71 79 100 116 96 54 22 7 1 0 -1 -1 -1 -1 -1 -1 -1 0 1 8 25 60 97 91 50 19 6 1 2 9 24 53 88 101 77 44 25 27 55 95 
94 53 20 5 0 0 -1 -1 -1 -1 -1 -1 0 2 11 32 71 101 82 43 23 27 53 89 100 72 36 14 4 0 0 -1 -1 -1 -1 -1 -1 -1 -1 -1 -1 -1 -1 0 0 1 3 8 18 32 53 77 97 103 94 78 64 57 55 58 63 72 80 87 91 94 96 99 102 104 107 116 130 127 90 45 17 5 0 0 -1 -1 -1 -1 -1 -1 0 0 2 11 32 71 101 82 41 15 4 2 6 18 42 77 101 88 53 26 16 24 54 94 
94 53 20 5 0 0 -1 -1 -1 -1 -1 -1 0 1 8 26 62 99 90 53 33 42 73 100 89 51 22 7 1 0 -1 -1 -1 -1 -1 -1 -1 -1 -1 -1 -1 -1 0 0 1 5 12 24 42 65 88 101 97 78 56 38 27 23 22 23 27 32 39 45 50 53 57 63 72 83 95 111 128 127 91 47 19 6 1 0 0 0 0 0 0 0 0 0 4 15 41 82 101 71 33 11 4 5 13 32 65 96 96 65 33 14 10 22 53 94 
94 53 20 5 0 0 -1 -1 -1 -1 -1 -1 0 0 6 21 54 94 97 65 49 63 93 100 70 34 12 3 0 0 -1 -1 -1 -1 -1 -1 -1 -1 -1 -1 0 0 0 2 7 16 31 53 77 96 101 88 65 42 25 15 9 7 6 7 8 11 14 16 19 20 23 27 33 42 53 70 96 115 100 61 30 13 5 2 1 0 0 0 0 0 1 2 7 21 52 92 98 61 26 9 5 9 24 53 88 101 77 42 18 8 8 21 53 94 
94 53 20 5 0 0 -1 -1 -1 -1 -1 -1 0 0 4 17 47 89 104 82 71 87 103 86 49 21 6 1 0 -1 -1 -1 -1 -1 -1 -1 -1 -1 -1 0 0 1 4 10 21 39 63 87 101 96 77 53 32 18 9 4 2 1 0 1 1 2 3 4 5 5 6 8 11 15 22 36 61 93 107 85 51 28 15 9 7 6 5 5 5 5 6 8 14 31 65 101 93 53 21 9 8 18 42 77 101 88 53 24 9 4 6 20 53 94 
94 53 20 5 0 0 -1 -1 -1 -1 -1 -1 0 0 3 14 39 81 109 103 98 106 97 64 30 11 3 0 0 -1 -1 -1 -1 -1 -1 -1 -1 -1 0 0 2 6 13 26 46 72 95 101 89 65 42 24 12 6 2 0 0 0 0 0 0 0 0 0 0 0 1 1 2 4 8 16 35 68 102 108 85 57 39 28 23 21 20 20 20 20 21 24 31 51 85 111 90 48 21 11 15 33 65 96 96 65 32 13 4 2 6 20 53 94 
94 53 20 5 0 0 -1 -1 -1 -1 -1 -1 -1 0 2 10 31 71 111 123 120 108 77 41 17 5 0 0 -1 -1 -1 -1 -1 -1 -1 -1 0 0 1 3 9 18 33 54 80 99 99 80 54 33 18 9 3 1 0 0 -1 -1 -1 -1 -1 -1 -1 0 0 0 0 0 0 0 2 7 20 46 87 120 120 99 79 65 58 55 53 53 53 53 54 57 65 84 112 123 94 53 27 20 29 55 89 101 77 42 18 6 1 1 5 20 53 94 
94 53 20 5 0 0 -1 -1 -1 -1 -1 -1 -1 0 1 8 25 61 108 133 125 93 53 24 8 2 0 -1 -1 -1 -1 -1 -1 -1 0 0 0 2 5 12 24 42 65 89 101 95 72 46 26 13 6 2 0 0 0 -1 -1 -1 -1 -1 -1 -1 -1 -1 -1 -1 -1 -1 0 0 0 3 12 33 73 118 136 125 111 102 97 95 94 94 94 94 95 97 103 116 132 133 107 72 48 42 54 82 103 89 53 24 9 2 0 0 5 20 53 94 
94 53 20 5 0 0 -1 -1 -1 -1 -1 -1 -1 0 0 6 21 54 103 132 113 70 34 13 4 0 0 -1 -1 -1 -1 -1 -1 0 0 1 3 8 17 32 53 77 97 101 88 63 39 21 10 4 1 0 0 -1 -1 -1 -1 -1 -1 -1 -1 -1 -1 -1 -1 -1 -1 -1 -1 0 0 2 10 30 69 113 123 107 95 92 92 93 94 94 94 94 94 95 97 102 112 119 116 100 84 78 90 108 102 68 33 13 4 0 0 0 5 20 53 94 
94 53 20 5 0 0 -1 -1 -1 -1 -1 -1 -1 0 0 5 19 51 99 123 93 50 21 7 1 0 -1 -1 -1 -1 0 0 0 0 2 5 12 23 40 64 88 102 98 78 54 32 17 8 3 0 0 0 -1 -1 -1 -1 -1 -1 -1 -1 -1 -1 -1 -1 -1 -1 -1 -1 -1 -1 0 2 11 33 73 108 100 71 55 50 51 52 52 53 53 53 53 53 54 56 64 77 93 104 110 116 125 123 91 50 21 7 1 0 0 0 5 20 53 94 
94 53 20 5 0 0 -1 -1 -1 -1 -1 -1 -1 0 0 5 19 51 97 111 75 35 13 3 0 0 -1 -1 0 0 0 1 2 5 9 17 30 50 76 100 107 95 71 47 28 15 7 3 1 0 0 0 0 -1 -1 -1 -1 -1 -1 -1 -1 -1 -1 -1 -1 -1 -1 -1 -1 0 0 3 14 40 81 104 79 45 26 20 19 20 20 20 20 20 20 20 20 22 27 36 52 72 94 116 134 125 85 42 17 5 0 0 0 0 5 20 53 94 
94 53 20 5 0 0 -1 -1 -1 -1 -1 -1 -1 0 0 5 20 53 96 102 62 26 8 1 0 0 0 0 0 1 3 6 11 17 27 42 63 90 114 120 103 77 52 34 21 13 8 5 3 1 0 0 0 0 0 0 0 -1 -1 -1 -1 -1 -1 -1 -1 -1 -1 -1 -1 0 0 4 17 46 88 100 65 30 13 7 5 5 5 5 5 5 5 5 6 6 9 13 22 35 55 82 111 120 91 49 21 7 1 0 0 0 5 20 53 94 
94 53 20 5 0 0 -1 -1 -1 -1 -1 -1 -1 0 1 6 22 57 97 95 54 21 6 1 0 0 0 1 3 7 12 20 31 44 61 81 103 124 134 126 104 81 62 47 36 27 20 15 11 8 6 4 3 2 1 0 0 0 0 0 0 0 -1 -1 -1 -1 -1 -1 -1 0 0 5 19 51 92 96 57 23 8 2 1 0 0 0 0 0 0 0 0 1 1 3 7 14 25 46 77 105 102 68 33 13 4 0 0 0 5 20 53 94 
94 53 20 5 0 0 -1 -1 -1 -1 -1 -1 -1 0 1 8 26 63 99 89 47 18 5 1 1 2 4 8 13 22 34 49 67 84 97 107 113 117 120 119 112 103 93 83 72 61 50 41 33 26 21 17 14 10 7 5 3 2 1 0 0 0 0 0 0 0 -1 -1 -1 0 1 6 22 56 96 92 51 20 5 1 0 0 0 0 0 0 0 0 0 0 0 0 1 4 10 23 47 81 103 89 53 24 9 2 0 1 5 20 53 94 
94 53 20 5 0 0 -1 -1 -1 -1 -1 -1 -1 0 2 11 32 72 102 81 40 15 6 4 6 10 16 25 36 52 70 88 99 102 96 87 77 72 75 83 90 95 99 102 101 97 91 82 72 62 54 47 40 32 25 19 15 11 8 6 4 3 2 1 0 0 0 0 0 0 1 8 27 63 99 88 46 17 4 0 0 -1 -1 -1 -1 -1 -1 -1 -1 -1 -1 0 0 0 3 10 26 54 89 101 77 42 18 6 1 1 5 20 53 94 
94 53 20 5 0 0 -1 -1 -1 -1 -1 -1 0 0 3 14 40 81 102 73 35 15 10 13 20 31 43 58 74 90 100 100 90 74 59 45 36 32 33 39 47 54 62 72 82 91 97 101 101 98 94 89 81 71 60 50 41 33 26 21 17 14 10 7 5 3 2 1 1 1 3 12 33 72 101 81 39 14 3 0 0 -1 -1 -1 -1 -1 -1 -1 -1 -1 -1 -1 -1 0 0 4 13 33 65 96 96 65 33 13 4 2 6 20 53 94 
94 53 20 5 0 0 -1 -1 -1 -1 -1 -1 0 0 4 17 47 89 101 68 35 22 24 34 50 67 83 95 101 99 88 70 52 36 25 17 12 10 11 14 17 21 26 33 41 50 60 71 81 89 94 98 101 101 97 91 82 72 62 54 47 40 32 25 19 15 11 8 6 6 8 18 42 82 102 71 32 11 2 0 -1 -1 -1 -1 -1 -1 -1 -1 -1 -1 -1 -1 -1 -1 0 1 6 18 42 77 101 89 54 26 10 4 7 20 53 94 
94 53 20 5 0 0 -1 -1 -1 -1 -1 -1 0 0 6 21 54 96 103 70 46 43 53 71 88 99 101 95 83 67 49 34 22 13 8 5 3 2 2 3 4 6 8 11 15 19 25 32 40 47 54 62 72 82 91 97 101 101 98 94 89 81 71 60 50 41 33 26 22 19 20 29 55 93 100 63 26 8 1 0 -1 -1 -1 -1 -1 -1 -1 -1 -1 -1 -1 -1 -1 -1 0 0 2 9 24 53 87 101 80 46 21 9 9 21 53 94 
94 53 20 5 0 0 -1 -1 -1 -1 -1 -1 0 1 8 26 63 105 111 86 72 77 90 100 100 90 74 58 43 31 20 12 7 3 1 0 0 0 0 0 0 0 1 2 3 5 7 10 14 17 21 26 33 41 50 60 71 81 89 94 98 101 101 97 91 82 72 62 55 49 46 52 75 105 99 57 22 6 1 0 -1 -1 -1 -1 -1 -1 -1 -1 -1 -1 -1 -1 -1 -1 -1 0 0 3 12 31 63 95 99 72 39 18 12 22 54 94 
94 53 20 5 0 0 -1 -1 -1 -1 -1 0 0 3 13 35 76 118 126 111 104 104 101 89 71 52 36 25 16 10 6 3 1 0 0 0 0 -1 -1 0 0 0 0 0 0 0 1 2 3 4 6 8 11 15 19 25 32 40 47 54 62 72 82 91 97 101 101 99 95 90 87 89 105 120 99 53 20 5 0 0 -1 -1 -1 -1 -1 -1 -1 -1 -1 -1 -1 -1 -1 -1 -1 -1 0 1 5 16 39 72 99 95 64 34 20 25 55 94 
94 53 20 5 0 0 -1 -1 -1 -1 -1 0 1 7 21 50 94 129 132 118 103 88 70 51 34 22 13 8 4 2 1 0 0 0 -1 -1 -1 -1 -1 -1 -1 -1 -1 -1 0 0 0 0 0 0 0 1 2 3 5 7 10 14 17 21 26 33 41 50 60 71 81 89 94 100 106 115 128 133 100 51 19 5 0 0 -1 -1 -1 -1 -1 -1 -1 -1 -1 -1 -1 -1 -1 -1 -1 -1 -1 0 1 7 21 46 79 101 88 56 33 31 57 95 
94 53 20 5 0 0 -1 -1 -1 -1 0 0 4 13 35 71 109 121 107 86 66 49 33 21 12 7 3 1 0 0 0 0 -1 -1 -1 -1 -1 -1 -1 -1 -1 -1 -1 -1 -1 -1 -1 -1 0 0 0 0 0 0 0 1 2 3 4 6 8 11 15 19 25 32 40 47 55 63 76 95 119 130 99 50 19 5 0 0 -1 -1 -1 -1 -1 -1 -1 -1 -1 -1 -1 -1 -1 -1 -1 -1 -1 0 0 2 10 25 54 88 101 81 53 43 62 97 
95 52 20 5 0 0 -1 -1 -1 0 0 2 9 25 54 92 109 92 65 45 30 20 12 7 3 1 0 0 0 -1 -1 -1 -1 -1 -1 -1 -1 -1 -1 -1 -1 -1 -1 -1 -1 -1 -1 -1 -1 -1 -1 -1 -1 0 0 0 0 0 0 0 1 2 3 5 7 10 14 18 22 28 39 58 90 116 97 51 19 5 0 0 -1 -1 -1 -1 -1 -1 -1 -1 -1 -1 -1 -1 -1 -1 -1 -1 -1 -1 0 0 4 13 32 63 95 100 79 61 71 100 
95 52 20 5 0 0 -1 -1 -1 0 1 6 18 42 78 103 92 60 33 19 11 6 3 1 0 0 0 -1 -1 -1 -1 -1 -1 -1 -1 -1 -1 -1 -1 -1 -1 -1 -1 -1 -1 -1 -1 -1 -1 -1 -1 -1 -1 -1 -1 -1 -1 0 0 0 0 0 0 0 1 2 3 5 6 10 17 35 68 104 96 52 20 5 0 0 -1 -1 -1 -1 -1 -1 -1 -1 -1 -1 -1 -1 -1 -1 -1 -1 -1 -1 -1 0 1 5 16 39 72 99 100 85 86 105 
96 52 19 5 0 0 -1 -1 0 0 4 13 33 65 97 97 67 35 16 7 3 1 0 0 0 -1 -1 -1 -1 -1 -1 -1 -1 -1 -1 -1 -1 -1 -1 -1 -1 -1 -1 -1 -1 -1 -1 -1 -1 -1 -1 -1 -1 -1 -1 -1 -1 -1 -1 -1 -1 -1 0 0 0 0 0 0 1 3 9 25 58 97 96 55 21 6 1 0 -1 -1 -1 -1 -1 -1 -1 -1 -1 -1 -1 -1 -1 -1 -1 -1 -1 -1 -1 -1 0 1 7 21 45 79 105 106 105 114 
97 51 19 5 0 0 -1 0 0 3 10 25 54 89 102 79 44 19 7 2 0 0 0 0 0 0 0 0 0 -1 -1 -1 -1 -1 -1 -1 -1 -1 -1 -1 -1 -1 -1 -1 -1 -1 -1 -1 -1 -1 -1 -1 -1 -1 -1 -1 -1 -1 -1 -1 -1 -1 -1 -1 -1 -1 0 0 0 1 7 22 54 96 99 60 25 8 2 0 0 -1 -1 -1 -1 -1 -1 -1 -1 -1 -1 -1 -1 -1 -1 -1 -1 -1 -1 -1 0 0 2 10 25 54 89 114 122 124 
98 50 18 5 0 0 0 0 2 8 21 46 80 105 93 59 29 13 5 2 1 0 0 0 0 0 0 0 0 0 0 0 0 0 0 0 0 0 0 -1 -1 -1 -1 -1 -1 -1 -1 -1 -1 -1 -1 -1 -1 -1 -1 -1 -1 -1 -1 -1 -1 -1 -1 -1 -1 -1 -1 0 0 2 9 24 57 99 107 71 34 14 5 1 0 0 -1 -1 -1 -1 -1 -1 -1 -1 -1 -1 -1 -1 -1 -1 -1 -1 -1 -1 -1 0 0 4 13 32 64 102 128 131 
98 49 18 5 0 0 0 2 8 20 41 74 106 111 84 51 28 16 10 7 6 5 5 5 5 5 5 4 3 2 1 1 0 0 0 0 0 0 0 0 0 0 0 0 0 0 0 0 0 0 0 -1 -1 -1 -1 -1 -1 -1 -1 -1 -1 -1 -1 -1 -1 0 0 0 2 7 16 34 67 109 122 92 54 28 15 7 3 1 0 0 -1 -1 -1 -1 -1 -1 -1 -1 -1 -1 -1 -1 -1 -1 -1 -1 -1 -1 0 1 6 17 40 77 117 131 
97 49 18 5 1 0 2 8 20 41 72 107 127 117 90 65 47 35 27 23 21 20 20 20 20 19 18 16 14 11 8 6 6 5 5 5 5 5 4 3 2 1 1 0 0 0 0 0 0 0 0 0 0 0 0 0 0 0 0 0 0 0 0 0 0 0 1 4 9 18 34 58 90 123 135 117 85 57 36 21 11 5 2 0 0 0 -1 -1 -1 -1 -1 -1 -1 -1 -1 -1 -1 -1 -1 -1 -1 -1 0 0 2 8 24 54 96 123 
96 50 19 5 2 3 9 20 42 72 105 129 134 124 109 96 84 73 64 58 55 53 53 53 52 51 49 45 39 32 27 23 21 20 20 20 19 18 16 14 11 8 6 6 5 5 5 5 5 5 4 3 2 1 1 0 0 0 0 0 0 0 0 0 1 3 7 14 25 42 65 90 110 120 122 119 109 92 71 49 31 17 9 4 1 0 0 -1 -1 -1 -1 -1 -1 -1 -1 -1 -1 -1 -1 -1 -1 -1 -1 0 0 4 14 37 77 112 
95 51 20 7 5 9 21 43 73 101 114 113 106 102 100 101 102 102 99 97 95 94 94 94 94 93 91 87 80 72 63 57 55 53 53 52 51 49 45 39 32 27 23 21 20 20 20 20 19 18 16 14 11 8 6 6 5 5 5 5 5 4 4 4 6 12 21 35 55 78 97 103 95 83 78 82 93 102 100 86 64 42 25 14 7 3 1 0 0 -1 -1 -1 -1 -1 -1 -1 -1 -1 -1 -1 -1 -1 -1 -1 0 2 9 27 64 103 
95 53 22 11 12 23 44 74 99 103 87 69 58 55 57 63 71 80 87 91 93 94 94 94 94 95 97 99 101 101 99 97 95 94 94 94 93 91 87 80 72 63 57 55 53 53 53 52 51 49 45 39 32 27 23 21 20 20 20 19 18 17 15 16 21 32 50 71 91 101 96 78 57 42 36 40 54 72 91 101 96 78 55 35 21 11 5 2 0 0 0 -1 -1 -1 -1 -1 -1 -1 -1 -1 -1 -1 -1 -1 0 1 7 23 57 98 
95 56 27 20 28 48 75 98 99 76 50 32 24 22 23 26 32 39 45 49 51 52 53 53 53 55 57 63 72 80 87 91 93 94 94 94 95 97 99 101 101 99 97 95 94 94 94 94 93 91 87 80 72 63 57 55 53 53 52 51 49 46 43 43 51 68 87 100 100 86 64 42 26 16 13 15 23 36 55 78 96 101 90 71 49 31 17 9 4 1 0 0 -1 -1 -1 -1 -1 -1 -1 -1 -1 -1 -1 -1 0 0 6 21 54 95 
97 62 38 39 56 81 100 97 73 44 23 12 8 6 7 8 10 14 16 18 19 20 20 20 20 21 23 27 32 39 45 49 51 52 53 53 55 57 63 72 80 87 91 93 94 94 94 94 95 97 99 101 101 99 97 95 94 94 94 93 92 89 87 88 95 104 105 92 71 49 31 17 9 5 3 4 7 14 25 42 64 86 100 100 86 64 42 25 14 7 3 1 0 0 -1 -1 -1 -1 -1 -1 -1 -1 -1 -1 0 0 5 20 53 95 
102 74 60 70 90 102 94 70 42 21 9 4 1 1 1 1 2 3 4 5 5 5 5 5 5 6 6 8 11 14 16 18 19 20 20 20 21 23 27 32 39 45 49 51 52 53 53 53 55 57 63 72 80 87 91 93 94 94 94 96 99 106 117 127 127 112 85 58 36 21 11 5 2 0 0 0 1 4 9 17 31 49 71 90 101 96 78 55 35 21 11 5 2 0 0 0 -1 -1 -1 -1 -1 -1 -1 -1 0 0 5 20 52 95 
112 96 91 100 102 88 63 38 19 8 2 0 0 0 0 0 0 0 0 0 0 0 0 0 0 0 1 1 2 3 4 5 5 5 5 5 6 6 8 11 14 16 18 19 20 20 20 20 21 23 27 32 39 45 49 51 52 53 54 56 62 77 104 130 127 92 54 29 15 7 3 1 0 0 0 0 0 0 2 5 11 21 35 55 78 96 101 90 71 49 31 17 9 4 1 0 0 0 -1 -1 -1 -1 -1 -1 0 0 5 19 52 96 
124 120 113 102 80 54 32 16 7 2 0 0 -1 -1 -1 -1 -1 -1 0 0 0 0 0 0 0 0 0 0 0 0 0 0 0 0 0 0 0 1 1 2 3 4 5 5 5 5 5 5 6 6 8 11 14 16 18 19 20 20 21 23 29 45 78 114 112 71 34 14 5 1 0 0 -1 -1 -1 -1 -1 0 0 1 3 7 14 25 42 64 86 100 100 86 64 42 25 14 7 3 1 0 0 -1 -1 -1 -1 -1 0 0 5 19 51 98 
133 129 106 75 47 26 13 5 1 0 0 -1 -1 -1 -1 -1 -1 -1 -1 -1 -1 -1 -1 -1 -1 -1 -1 -1 -1 -1 0 0 0 0 0 0 0 0 0 0 0 0 0 0 0 0 0 0 0 1 1 2 3 4 5 5 5 5 6 8 13 29 62 102 101 59 25 8 2 0 0 -1 -1 -1 -1 -1 -1 -1 -1 0 0 1 4 9 17 31 49 71 90 101 96 78 55 36 22 12 6 3 0 0 0 -1 -1 -1 0 0 5 18 50 99 
130 113 77 44 22 10 4 1 0 0 -1 -1 -1 -1 -1 -1 -1 -1 -1 -1 -1 -1 -1 -1 -1 -1 -1 -1 -1 -1 -1 -1 -1 -1 -1 -1 -1 -1 -1 -1 -1 0 0 0 0 0 0 0 0 0 0 0 0 0 0 0 0 0 1 2 8 23 56 97 96 55 21 6 1 0 -1 -1 -1 -1 -1 -1 -1 -1 -1 -1 0 0 0 2 5 11 21 35 55 78 96 101 91 72 51 34 20 11 5 2 0 0 0 0 0 0 5 18 50 99 
118 88 49 23 9 3 0 0 -1 -1 -1 -1 -1 -1 -1 -1 -1 -1 -1 -1 -1 -1 -1 -1 -1 -1 -1 -1 -1 -1 -1 -1 -1 -1 -1 -1 -1 -1 -1 -1 -1 -1 -1 -1 -1 -1 -1 -1 -1 -1 -1 -1 -1 0 0 0 0 0 0 1 6 21 53 95 95 53 20 5 0 0 -1 -1 -1 -1 -1 -1 -1 -1 -1 -1 -1 -1 0 0 1 3 7 14 25 42 64 86 99 100 89 69 49 30 17 8 4 1 0 0 0 1 5 19 50 97 
106 69 32 12 4 0 0 -1 -1 -1 -1 -1 -1 -1 -1 -1 -1 -1 -1 -1 -1 -1 -1 -1 -1 -1 -1 -1 -1 -1 -1 -1 -1 -1 -1 -1 -1 -1 -1 -1 -1 -1 -1 -1 -1 -1 -1 -1 -1 -1 -1 -1 -1 -1 -1 -1 -1 -1 0 0 5 20 53 94 94 53 20 5 0 0 -1 -1 -1 -1 -1 -1 -1 -1 -1 -1 -1 -1 -1 -1 0 0 1 4 9 17 31 49 70 89 101 100 86 63 41 24 14 8 5 4 3 3 7 21 52 96 
99 59 24 8 1 0 0 -1 -1 -1 -1 -1 -1 -1 -1 -1 -1 -1 -1 -1 -1 -1 -1 -1 -1 -1 -1 -1 -1 -1 -1 -1 -1 -1 -1 -1 -1 -1 -1 -1 -1 -1 -1 -1 -1 -1 -1 -1 -1 -1 -1 -1 -1 -1 -1 -1 -1 -1 0 0 5 20 53 94 94 53 20 5 0 0 -1 -1 -1 -1 -1 -1 -1 -1 -1 -1 -1 -1 -1 -1 -1 0 0 0 2 5 11 21 35 52 74 94 104 98 78 54 36 26 19 15 11 10 12 25 56 97 
97 55 22 6 1 0 0 0 0 -1 -1 -1 -1 -1 -1 -1 -1 -1 -1 -1 -1 -1 -1 -1 -1 -1 -1 -1 -1 -1 -1 -1 -1 -1 -1 -1 -1 -1 -1 -1 -1 -1 -1 -1 -1 -1 -1 -1 -1 -1 -1 -1 -1 -1 -1 -1 -1 -1 0 0 5 20 53 94 94 53 20 5 0 0 -1 -1 -1 -1 -1 -1 -1 -1 -1 -1 -1 -1 -1 -1 -1 -1 -1 0 0 1 4 8 15 26 42 65 92 113 114 97 76 61 50 41 33 27 27 37 65 101 
98 54 22 7 2 1 0 0 0 0 0 0 0 0 0 0 -1 -1 -1 -1 -1 -1 -1 -1 -1 -1 -1 -1 -1 -1 -1 -1 -1 -1 -1 -1 -1 -1 -1 -1 -1 -1 -1 -1 -1 -1 -1 -1 -1 -1 -1 -1 -1 -1 -1 -1 -1 -1 0 0 5 20 53 94 94 53 20 5 0 0 -1 -1 -1 -1 -1 -1 -1 -1 -1 -1 -1 -1 -1 -1 -1 -1 0 0 0 1 3 6 11 19 33 53 81 113 132 130 116 102 92 82 71 62 57 63 84 110 
103 57 26 12 7 5 5 4 3 2 1 1 0 0 0 0 0 0 0 0 0 0 0 0 0 -1 -1 -1 -1 -1 -1 -1 -1 -1 -1 -1 -1 -1 -1 -1 -1 -1 -1 -1 -1 -1 -1 -1 -1 -1 -1 -1 -1 -1 -1 -1 -1 -1 0 0 5 20 53 94 94 53 20 5 0 0 -1 -1 -1 -1 -1 -1 -1 -1 -1 -1 -1 -1 -1 -1 0 0 0 1 2 5 8 14 22 34 49 69 93 116 126 121 110 103 102 102 102 99 97 100 113 126 
113 70 40 26 22 20 18 16 14 11 8 6 6 5 5 4 3 2 1 1 0 0 0 0 0 0 0 0 0 0 0 0 0 -1 -1 -1 -1 -1 -1 -1 -1 -1 -1 -1 -1 -1 -1 -1 -1 -1 -1 -1 -1 -1 -1 -1 -1 -1 0 0 5 20 53 94 94 53 20 5 0 0 -1 -1 -1 -1 -1 -1 -1 -1 -1 -1 -1 0 0 0 0 1 3 6 10 16 25 36 51 68 85 98 106 104 93 77 65 61 65 73 82 92 101 113 130 138 
128 96 70 59 54 52 49 45 39 32 27 23 21 20 18 16 14 11 8 6 6 5 5 5 4 3 2 1 1 0 0 0 0 0 0 0 0 0 0 0 0 0 -1 -1 -1 -1 -1 -1 -1 -1 -1 -1 -1 -1 -1 -1 -1 -1 0 0 5 20 53 94 94 53 20 5 0 0 -1 -1 -1 -1 -1 -1 -1 -1 -1 0 0 0 1 2 4 8 13 20 31 43 58 74 89 100 101 95 83 66 49 36 28 25 27 33 41 52 65 84 113 136 
140 125 108 99 95 93 91 87 80 72 63 57 54 52 49 45 39 32 27 23 21 20 19 18 16 14 11 8 6 6 5 5 4 3 2 1 1 0 0 0 0 0 0 0 0 0 0 0 0 0 -1 -1 -1 -1 -1 -1 -1 -1 0 0 5 20 53 94 94 53 20 5 0 0 -1 -1 -1 -1 -1 -1 -1 0 0 0 1 3 6 10 16 25 36 50 67 83 95 101 99 89 74 58 43 30 20 13 9 8 8 11 15 21 31 49 83 123 
136 125 108 99 96 95 97 99 101 101 99 96 95 93 91 87 80 72 63 57 54 53 52 49 45 39 32 27 23 21 20 18 16 14 11 8 6 6 5 5 5 4 3 2 1 1 0 0 0 0 0 0 0 0 0 0 0 0 0 0 5 20 53 94 94 53 20 5 0 0 -1 -1 -1 -1 0 0 0 0 1 3 7 12 20 31 43 58 74 89 99 101 95 83 67 50 36 25 16 10 6 3 2 1 1 2 4 7 14 30 63 110 
119 97 72 59 55 55 58 63 72 80 87 91 93 95 96 99 101 101 99 97 95 94 93 91 87 80 72 63 57 54 52 49 45 39 32 27 23 21 20 19 18 16 14 11 8 6 6 5 5 4 3 2 1 1 0 0 0 0 0 2 6 21 53 94 94 53 20 5 0 0 -1 -1 0 0 0 1 2 4 8 13 22 34 49 67 83 95 101 99 89 74 58 43 31 20 13 8 4 2 1 0 0 0 0 0 0 2 8 22 55 101 
105 72 41 27 22 22 23 27 32 39 45 49 52 54 57 63 72 80 87 91 93 94 95 97 99 101 101 99 96 95 93 91 87 80 72 63 57 54 53 52 49 45 39 32 27 23 21 20 18 16 14 11 8 6 6 5 5 5 4 5 9 23 55 95 95 53 20 6 0 0 0 0 0 1 3 6 10 16 25 36 52 70 88 99 101 95 83 67 50 36 25 16 10 6 3 1 0 0 0 0 -1 -1 -1 0 0 1 6 20 53 96 
98 59 27 12 7 6 7 8 11 14 16 18 20 21 23 27 32 39 45 49 52 53 54 57 63 72 80 87 91 93 95 96 99 101 101 99 97 95 94 93 91 87 80 72 63 57 54 52 49 45 39 32 27 23 21 20 19 18 17 16 18 30 60 99 97 55 21 6 1 0 1 2 4 8 13 20 31 43 58 74 90 100 100 90 74 58 43 31 20 13 8 4 2 1 0 0 0 -1 -1 -1 -1 -1 -1 -1 0 0 5 20 53 95 
95 55 22 7 2 1 1 1 2 3 4 5 5 6 6 8 11 14 16 18 19 20 21 23 27 32 39 45 49 52 54 57 63 72 80 87 91 93 94 95 97 99 101 101 99 96 95 93 91 87 80 72 63 57 54 53 52 49 46 41 39 48 74 108 102 59 25 9 4 4 6 10 16 25 36 50 67 83 95 101 99 88 70 52 36 25 16 10 6 3 1 0 0 0 0 -1 -1 -1 -1 -1 -1 -1 -1 -1 0 0 5 20 53 94 
94 53 20 6 1 0 0 0 0 0 0 0 0 0 1 1 2 3 4 5 5 5 6 6 8 11 14 16 18 20 21 23 27 32 39 45 49 52 53 54 57 63 72 80 87 91 93 95 96 99 101 101 99 97 95 94 93 91 88 82 78 81 101 124 114 71 35 18 12 14 21 31 43 58 74 89 99 101 95 83 67 49 34 22 13 8 4 2 1 0 0 0 -1 -1 -1 -1 -1 -1 -1 -1 -1 -1 -1 -1 0 0 5 20 53 94 
94 53 20 5 0 0 -1 -1 -1 -1 0 0 0 0 0 0 0 0 0 0 0 0 0 1 1 2 3 4 5 5 6 6 8 11 14 16 18 19 20 21 23 27 32 39 45 49 52 54 57 63 72 80 87 91 93 94 95 97 99 102 104 109 122 135 127 93 58 38 33 39 51 67 83 95 101 99 89 74 58 43 31 20 12 7 3 1 0 0 0 0 -1 -1 -1 -1 -1 -1 -1 -1 -1 -1 -1 -1 -1 -1 0 0 5 20 53 94 
94 53 20 5 0 0 -1 -1 -1 -1 -1 -1 -1 -1 -1 -1 -1 0 0 0 0 0 0 0 0 0 0 0 0 0 0 1 1 2 3 4 5 5 5 6 6 8 11 14 16 18 20 21 23 27 32 39 45 49 52 53 54 57 63 72 81 90 101 114 123 115 94 76 72 79 91 100 101 95 83 67 50 36 25 16 10 6 3 1 0 0 0 -1 -1 -1 -1 -1 -1 -1 -1 -1 -1 -1 -1 -1 -1 -1 -1 -1 0 0 5 20 53 94 
94 53 20 5 0 0 -1 -1 -1 -1 -1 -1 -1 -1 -1 -1 -1 -1 -1 -1 -1 -1 -1 -1 -1 0 0 0 0 0 0 0 0 0 0 0 0 0 0 0 1 1 2 3 4 5 5 6 7 8 11 14 16 18 19 20 21 23 27 32 40 47 55 69 92 115 125 120 113 108 101 90 74 58 43 31 21 13 8 4 2 1 0 0 0 -1 -1 -1 -1 -1 -1 -1 -1 -1 -1 -1 -1 -1 -1 -1 -1 -1 -1 -1 0 0 5 20 53 94 
94 53 20 6 1 0 0 0 0 0 0 0 0 0 0 0 0 0 0 0 0 0 0 0 0 0 0 0 0 0 0 0 0 0 0 0 0 0 0 0 0 0 0 0 0 0 1 1 1 2 2 4 4 5 6 6 6 7 9 11 14 18 23 34 57 93 128 135 116 92 70 52 36 25 17 11 7 4 2 1 0 0 0 0 0 0 0 0 0 0 0 0 0 0 0 0 0 0 0 0 0 0 0 0 0 1 6 20 53 94 
95 54 22 7 2 1 0 0 0 0 0 0 0 0 0 0 0 0 0 0 0 0 0 0 0 0 0 0 0 0 0 0 0 0 0 0 0 0 0 0 0 0 0 0 1 1 1 1 1 1 1 1 2 2 2 2 2 3 3 4 5 7 10 18 37 73 115 122 91 59 37 24 15 10 6 4 3 2 1 1 0 0 0 0 0 0 0 0 0 0 0 0 0 0 0 0 0 0 0 0 0 0 0 0 1 2 7 22 54 95 
99 59 27 12 7 6 5 5 5 5 5 5 5 5 5 5 5 5 5 5 5 5 5 5 5 5 5 5 5 5 5 5 5 5 5 5 5 5 5 5 5 5 5 5 5 5 5 5 5 5 5 5 5 6 6 6 6 6 6 6 7 8 10 16 32 66 107 111 74 41 23 15 11 8 7 6 6 6 5 5 5 5 5 5 5 5 5 5 5 5 5 5 5 5 5 5 5 5 5 5 5 5 5 5 5 7 12 27 59 99 
108 71 41 27 22 20 20 20 20 20 20 20 20 20 20 20 20 20 20 20 20 20 20 20 20 20 20 20 20 20 19 19 18 18 18 19 19 20 20 20 20 20 20 20 20 20 20 19 19 18 18 19 19 20 20 20 20 20 20 20 20 21 23 28 43 74 111 112 77 46 30 24 22 21 20 20 20 20 20 20 20 20 20 20 20 20 20 20 20 19 19 18 18 18 19 19 20 20 20 20 20 19 19 19 19 20 26 40 71 108 
126 96 71 59 54 53 53 53 53 53 53 53 53 53 53 53 53 53 53 53 53 53 53 53 53 53 53 53 53 52 52 51 50 50 50 51 52 52 53 53 53 53 53 53 53 53 52 52 51 50 50 51 52 52 53 53 53 53 53 53 53 53 55 59 72 97 125 126 98 73 60 55 54 53 53 53 53 53 53 53 53 53 53 53 53 53 53 53 52 52 51 50 50 50 51 52 52 53 53 53 52 52 51 50 50 52 57 70 96 126 
147 126 108 99 95 94 94 94 94 94 94 94 94 94 94 94 94 94 94 94 94 94 94 94 94 94 94 94 94 95 96 97 99 99 97 96 95 94 94 94 94 94 94 94 94 94 94 95 97 99 99 97 95 94 94 94 94 94 94 94 94 94 95 98 105 118 132 132 118 105 98 95 94 94 94 94 94 94 94 94 94 94 94 94 94 94 94 94 94 95 97 99 99 98 96 95 94 94 94 94 94 95 97 99 100 99 101 109 127 147 
