P2
110 110
255
153 125 105 98 96 96 95 95 95 95 95 95 95 95 95 95 95 95 95 95 95 95 95 95 95 95 95 96 96 99 106 120 138 141 125 108 100 97 96 95 95 95 95 95 96 96 98 104 119 140 139 119 104 98 96 96 95 95 95 95 95 95 95 96 97 99 103 103 99 97 96 95 95 95 95 95 95 95 95 95 95 95 95 95 95 95 95 96 97 102 115 134 142 127 109 100 97 96 96 96 97 101 113 132 143 129 112 110 126 153 
125 85 58 48 46 45 45 45 45 45 45 45 45 45 45 45 45 45 45 45 45 45 45 45 45 45 45 45 47 54 71 103 130 119 85 60 49 46 45 45 45 45 45 45 45 46 49 60 88 127 125 85 58 48 46 45 45 45 45 45 45 45 45 45 45 44 44 44 44 45 45 45 45 45 45 45 45 45 45 45 45 45 45 45 45 45 45 46 49 60 88 124 126 92 63 50 46 45 45 45 48 56 79 117 129 97 68 64 86 125 
105 58 27 16 13 12 12 12 12 12 12 12 12 12 12 12 12 12 12 12 12 12 12 12 12 12 13 14 18 31 61 101 113 79 42 22 15 13 12 12 12 12 12 12 12 14 18 33 69 116 108 58 27 16 13 12 12 12 12 12 12 12 12 12 12 12 12 12 12 12 12 12 12 12 12 12 12 12 12 12 12 12 12 12 12 12 13 14 20 38 77 114 96 53 26 16 13 12 12 13 16 27 58 104 108 64 34 32 59 106 
98 48 16 5 2 1 1 1 1 1 1 1 1 1 1 1 1 1 1 1 1 1 1 1 1 1 2 5 14 37 77 108 89 47 18 6 2 1 1 1 1 1 1 1 1 3 10 30 74 121 103 47 16 4 2 1 1 1 1 1 1 1 1 1 1 1 1 1 1 1 1 1 1 1 1 1 1 1 1 1 1 1 1 1 1 1 1 4 13 40 86 108 70 29 10 3 1 1 1 2 6 21 57 103 94 46 19 20 49 98 
96 46 13 2 -1 -1 -1 -1 -1 -1 -1 -1 -1 -1 -1 -1 -1 -1 -1 -1 -1 -1 -1 -1 -1 -1 0 7 25 61 100 100 60 24 6 0 -1 -1 -1 -1 -1 -1 -1 -1 0 2 14 44 95 134 103 44 12 1 -1 -1 -1 -1 -1 -1 -1 -1 -1 -1 -1 -1 -1 -1 -1 -1 -1 -1 -1 -1 -1 -1 -1 -1 -1 -1 -1 -1 -1 -1 -1 -1 0 3 17 51 98 97 51 17 3 0 -1 -1 -1 0 6 25 67 106 81 35 13 16 46 96 
96 45 12 1 -1 -2 -2 -2 -2 -2 -2 -2 -2 -2 -2 -2 -2 -2 -2 -2 -2 -2 -2 -2 -2 0 3 16 46 88 105 74 33 10 1 -1 -2 -2 -2 -2 -2 -2 -2 -1 0 6 25 66 118 142 103 45 12 1 -1 -2 -2 -2 -2 -2 -2 -2 -2 -2 -2 -2 -2 -2 -2 -2 -2 -2 -2 -2 -2 -2 -2 -2 -2 -2 -2 -2 -2 -2 -2 -1 0 6 27 69 105 82 36 10 0 -1 -2 -2 -1 0 8 34 81 105 66 25 9 14 45 96 
95 45 12 1 -1 -2 -2 -2 -2 -2 -2 -2 -2 -2 -2 -2 -2 -2 -2 -2 -2 -2 -2 -2 -1 1 10 33 74 105 88 46 16 3 -1 -2 -2 -2 -2 -2 -2 -2 -2 -1 2 14 43 91 130 138 104 47 14 1 -1 -2 -2 -2 -2 -2 -2 -2 -2 -2 -2 -2 -2 -2 -2 -2 -2 -2 -2 -2 -2 -2 -2 -2 -2 -2 -2 -2 -2 -2 -2 -1 1 13 43 89 103 63 23 5 0 -2 -2 -2 -1 1 12 43 92 100 53 17 6 13 45 95 
95 45 12 1 -1 -2 -2 -2 -2 -2 -2 -2 -2 -2 -2 -2 -2 -2 -2 -2 -2 -2 -2 -2 0 6 24 60 99 99 60 24 6 0 -2 -2 -2 -2 -2 -2 -2 -2 -2 0 7 27 66 110 122 125 107 54 17 2 -1 -2 -2 -2 -2 -2 -2 -2 -2 -2 -2 -2 -2 -2 -2 -2 -2 -2 -2 -2 -2 -2 -2 -2 -2 -2 -2 -2 -2 -2 -2 0 5 23 63 103 89 43 13 1 -1 -2 -2 -2 -1 2 17 53 100 92 43 13 5 13 45 95 
95 45 12 1 -1 -2 -2 -2 -2 -2 -2 -2 -2 -2 -2 -2 -2 -2 -2 -2 -2 -2 -2 -1 3 16 46 88 105 74 33 10 1 -1 -2 -2 -2 -2 -2 -2 -2 -2 -1 3 16 47 91 111 98 105 110 66 24 5 0 -2 -2 -2 -2 -2 -2 -2 -2 -2 -2 -2 -2 -2 -2 -2 -2 -2 -2 -2 -2 -2 -2 -2 -2 -2 -2 -2 -2 -2 -1 0 9 36 82 105 69 27 6 0 -2 -2 -2 -2 0 5 24 66 105 81 34 9 4 13 45 95 
95 45 12 1 -1 -2 -2 -2 -2 -2 -2 -2 -2 -2 -2 -2 -2 -2 -2 -2 -2 -2 -1 1 10 33 74 105 88 46 16 3 -1 -2 -2 -2 -2 -2 -2 -2 -2 -1 1 10 33 74 106 93 69 82 109 80 32 8 0 -2 -2 -2 -2 -2 -2 -2 -2 -2 -2 -2 -2 -2 -2 -2 -2 -2 -2 -2 -2 -2 -2 -2 -2 -2 -2 -2 -2 -2 -1 2 16 50 97 97 50 16 2 -1 -2 -2 -2 -2 0 8 33 81 105 66 24 6 3 13 45 95 
96 45 12 1 -1 -2 -2 -2 -2 -2 -2 -2 -2 -2 -2 -2 -2 -2 -2 -2 -2 -2 0 6 24 60 99 99 60 24 6 0 -2 -2 -2 -2 -2 -2 -2 -2 -2 0 5 23 59 99 100 65 43 63 103 89 39 10 0 -1 -2 -2 -2 -2 -2 -2 -2 -2 -2 -2 -2 -2 -2 -2 -2 -2 -2 -2 -2 -2 -2 -2 -2 -2 -2 -2 -2 -2 0 6 27 69 105 82 36 9 0 -1 -2 -2 -2 -1 1 12 43 92 100 53 17 3 2 12 45 95 
96 46 13 1 -1 -2 -2 -2 -2 -2 -2 -2 -2 -2 -2 -2 -2 -2 -2 -2 -2 -1 3 16 46 88 105 74 33 10 1 -1 -2 -2 -2 -2 -2 -2 -2 -2 -1 2 13 42 86 105 75 38 27 52 98 94 43 12 1 -1 -2 -2 -2 -2 -2 -2 -2 -2 -2 -2 -2 -2 -2 -2 -2 -2 -2 -2 -2 -2 -2 -2 -2 -2 -2 -2 -2 -1 1 13 43 89 103 63 23 5 0 -2 -2 -2 -2 -1 2 17 53 100 92 43 12 2 2 12 45 96 
100 49 15 2 -1 -2 -2 -2 -2 -2 -2 -2 -2 -2 -2 -2 -2 -2 -2 -2 -1 1 10 33 74 105 88 46 16 3 -1 -2 -2 -2 -2 -2 -2 -2 -2 -2 0 6 26 65 104 91 48 20 19 47 96 96 45 12 1 -1 -2 -2 -2 -2 -2 -2 -2 -2 -2 -2 -2 -2 -2 -2 -2 -2 -2 -2 -2 -2 -2 -2 -2 -2 -2 -2 -2 0 5 23 63 103 89 43 13 1 -1 -2 -2 -2 -2 0 5 24 66 105 81 33 8 0 1 12 45 96 
108 60 22 5 0 -2 -2 -2 -2 -2 -2 -2 -2 -2 -2 -2 -2 -2 -2 -2 0 6 24 60 99 99 60 24 6 0 -2 -2 -2 -2 -2 -2 -2 -2 -2 -1 2 14 44 89 104 67 27 10 14 44 94 98 48 14 1 -1 -2 -2 -2 -2 -2 -2 -2 -2 -2 -2 -2 -2 -2 -2 -2 -2 -2 -2 -2 -2 -2 -2 -2 -2 -2 -2 -1 0 9 36 82 105 69 27 6 0 -2 -2 -2 -2 -2 0 8 33 81 105 66 24 5 0 1 12 44 98 
125 83 39 14 3 0 -2 -2 -2 -2 -2 -2 -2 -2 -2 -2 -2 -2 -2 -1 3 16 46 88 105 74 33 10 1 -1 -2 -2 -2 -2 -2 -2 -2 -2 -2 0 7 27 67 104 89 44 15 5 11 40 89 101 55 17 2 -1 -2 -2 -2 -2 -2 -2 -2 -2 -2 -2 -2 -2 -2 -2 -2 -2 -2 -2 -2 -2 -2 -2 -2 -2 -2 -2 -1 2 16 50 97 97 50 16 2 -1 -2 -2 -2 -2 -1 1 12 43 92 100 53 17 2 0 1 12 44 101 
141 116 71 34 12 2 -1 -2 -2 -2 -2 -2 -2 -2 -2 -2 -2 -2 -1 1 10 33 74 105 88 46 16 3 -1 -2 -2 -2 -2 -2 -2 -2 -2 -2 -1 3 16 47 91 104 65 26 7 2 8 33 80 105 66 24 5 0 -2 -2 -2 -2 -2 -2 -2 -2 -2 -2 -2 -2 -2 -2 -2 -2 -2 -2 -2 -2 -2 -2 -2 -2 -2 -2 0 6 27 69 105 82 36 9 0 -1 -2 -2 -2 -2 -1 2 17 53 100 92 43 12 1 -1 1 12 44 103 
139 131 106 67 30 9 1 -1 -2 -2 -2 -2 -2 -2 -2 -2 -2 -2 0 6 24 60 99 99 60 24 6 0 -2 -2 -2 -2 -2 -2 -2 -2 -2 -1 1 10 33 74 105 86 42 13 2 0 5 24 66 105 80 32 8 0 -2 -2 -2 -2 -2 -2 -2 -2 -2 -2 -2 -2 -2 -2 -2 -2 -2 -2 -2 -2 -2 -2 -2 -2 -2 -1 1 13 43 89 103 63 23 5 0 -2 -2 -2 -2 -2 0 5 24 66 105 81 33 8 0 -1 1 12 44 102 
123 113 113 99 59 24 6 0 -1 -2 -2 -2 -2 -2 -2 -2 -2 -1 3 16 46 88 105 74 33 10 1 -1 -2 -2 -2 -2 -2 -2 -2 -2 -2 0 5 23 59 99 99 59 23 5 0 0 3 17 55 101 89 39 10 0 -1 -2 -2 -2 -2 -2 -2 -2 -2 -2 -2 -2 -2 -2 -2 -2 -2 -2 -2 -2 -2 -2 -2 -2 -2 0 5 23 63 103 89 43 13 1 -1 -2 -2 -2 -2 -2 0 8 33 81 105 66 24 5 0 -1 1 12 44 99 
109 84 90 108 88 46 17 4 0 -2 -2 -2 -2 -2 -2 -2 -1 1 10 33 74 105 88 46 16 3 -1 -2 -2 -2 -2 -2 -2 -2 -2 -2 -1 2 13 42 86 105 74 33 10 1 -1 -1 1 14 48 98 93 43 12 1 -1 -2 -2 -2 -2 -2 -2 -2 -2 -2 -2 -2 -2 -2 -2 -2 -2 -2 -2 -2 -2 -2 -2 -2 -1 0 9 36 82 105 69 27 6 0 -2 -2 -2 -2 -2 -1 1 12 43 92 100 53 17 2 -1 -1 1 12 45 97 
101 64 61 91 106 76 38 14 3 0 -2 -2 -2 -2 -2 -2 0 6 24 60 99 99 60 24 6 0 -2 -2 -2 -2 -2 -2 -2 -2 -2 -2 0 6 26 65 104 91 47 16 3 -1 -2 -1 1 12 45 95 95 45 12 1 -1 -2 -2 -2 -2 -2 -2 -2 -2 -2 -2 -2 -2 -2 -2 -2 -2 -2 -2 -2 -2 -2 -2 -2 -1 2 16 50 97 97 50 16 2 -1 -2 -2 -2 -2 -2 -1 2 17 53 100 92 43 12 1 -1 -1 1 12 45 96 
98 54 39 62 98 102 71 35 13 3 0 -2 -2 -2 -2 -1 3 16 46 88 105 74 33 10 1 -1 -2 -2 -2 -2 -2 -2 -2 -2 -2 -1 2 14 44 89 104 67 27 7 0 -1 -2 -1 1 12 43 93 98 48 14 1 -1 -2 -2 -2 -2 -2 -2 -2 -2 -2 -2 -2 -2 -2 -2 -2 -2 -2 -2 -2 -2 -2 -2 -2 0 6 27 69 105 82 36 9 0 -1 -2 -2 -2 -2 -2 0 5 24 66 105 81 33 8 0 -1 -1 1 12 45 96 
96 49 25 34 67 101 101 69 35 13 3 0 -2 -2 -1 1 10 33 74 105 88 46 16 3 -1 -2 -2 -2 -2 -2 -2 -2 -2 -2 -2 0 7 27 67 104 89 44 14 2 -1 -2 -2 -1 0 10 39 89 101 55 17 2 -1 -2 -2 -2 -2 -2 -2 -2 -2 -2 -2 -2 -2 -2 -2 -2 -2 -2 -2 -2 -2 -2 -2 -1 1 13 43 89 103 63 23 5 0 -2 -2 -2 -2 -2 -2 0 8 33 81 105 66 24 5 0 -2 -1 1 12 45 95 
96 46 17 16 35 69 101 101 69 35 13 3 0 -1 0 6 24 60 99 99 60 24 6 0 -2 -2 -2 -2 -2 -2 -2 -2 -2 -2 -1 3 16 47 91 104 65 26 6 0 -2 -2 -2 -2 0 8 32 80 105 66 24 5 0 -2 -2 -2 -2 -2 -2 -2 -2 -2 -2 -2 -2 -2 -2 -2 -2 -2 -2 -2 -2 -2 -2 0 5 23 63 103 89 43 13 1 -1 -2 -2 -2 -2 -2 -1 1 12 43 92 100 53 17 2 -1 -2 -1 1 12 45 95 
95 45 14 6 14 35 69 101 101 69 35 13 3 0 4 16 46 88 105 74 33 10 1 -1 -2 -2 -2 -2 -2 -2 -2 -2 -2 -1 1 10 33 74 105 86 42 13 2 -1 -2 -2 -2 -2 0 5 24 66 105 80 33 8 0 -2 -2 -2 -2 -2 -2 -2 -2 -2 -2 -2 -2 -2 -2 -2 -2 -2 -2 -2 -2 -2 -1 0 9 36 82 105 69 27 6 0 -2 -2 -2 -2 -2 -2 -1 2 17 53 100 92 43 12 1 -1 -2 -1 1 12 45 95 
95 45 13 3 4 13 35 69 101 101 69 35 14 7 12 34 74 105 88 46 16 3 -1 -2 -2 -2 -2 -2 -2 -2 -2 -2 -2 0 5 23 59 99 99 59 23 5 0 -2 -2 -2 -2 -2 -1 2 17 54 101 89 39 10 0 -1 -2 -2 -2 -2 -2 -2 -2 -2 -2 -2 -2 -2 -2 -2 -2 -2 -2 -2 -2 -2 -1 2 16 50 97 97 50 16 2 -1 -2 -2 -2 -2 -2 -2 0 5 24 66 105 81 33 8 0 -2 -2 -1 1 12 45 95 
95 45 12 1 0 3 13 35 69 101 101 70 37 22 30 62 100 99 60 24 6 0 -2 -2 -2 -2 -2 -2 -2 -2 -2 -2 -1 2 13 42 86 105 74 33 10 1 -1 -2 -2 -2 -2 -2 -1 1 14 48 97 94 44 12 1 -1 -2 -2 -2 -2 -2 -2 -2 -2 -2 -2 -2 -2 -2 -2 -2 -2 -2 -2 -2 -2 0 6 27 69 105 82 36 9 0 -1 -2 -2 -2 -2 -2 -2 0 8 33 81 105 66 24 5 0 -2 -2 -1 1 12 45 95 
95 45 12 1 -1 0 3 13 35 69 101 102 75 53 61 93 106 74 33 10 1 -1 -2 -2 -2 -2 -2 -2 -2 -2 -2 -2 0 6 26 65 104 91 47 16 3 -1 -2 -2 -2 -2 -2 -2 -1 1 12 44 94 97 48 14 1 -1 -2 -2 -2 -2 -2 -2 -2 -2 -2 -2 -2 -2 -2 -2 -2 -2 -2 -2 -2 -1 1 13 43 89 103 63 23 5 0 -2 -2 -2 -2 -2 -2 -1 1 12 43 92 100 53 17 2 -1 -2 -2 -1 1 12 45 95 
95 45 12 1 -1 -1 0 3 13 35 70 103 110 100 103 113 89 46 16 3 -1 -2 -2 -2 -2 -2 -2 -2 -2 -2 -2 -1 2 14 44 89 104 67 27 7 0 -2 -2 -2 -2 -2 -2 -2 -1 0 10 39 89 101 54 17 2 -1 -2 -2 -2 -2 -2 -2 -2 -2 -2 -2 -2 -2 -2 -2 -2 -2 -2 -2 -2 0 5 23 63 103 89 43 13 1 -1 -2 -2 -2 -2 -2 -2 -1 2 17 53 100 92 43 12 1 -1 -2 -2 -1 1 12 45 95 
95 45 12 1 -1 -2 -2 0 3 13 35 72 112 135 135 107 61 24 6 0 -2 -2 -2 -2 -2 -2 -2 -2 -2 -2 -2 0 7 27 67 104 89 44 14 2 -1 -2 -2 -2 -2 -2 -2 -2 -2 0 8 33 80 105 66 24 5 0 -2 -2 -2 -2 -2 -2 -2 -2 -2 -2 -2 -2 -2 -2 -2 -2 -2 -2 -1 0 9 36 82 105 69 27 6 0 -2 -2 -2 -2 -2 -2 -2 0 5 24 66 105 81 33 8 0 -2 -2 -2 -1 1 12 45 95 
95 45 12 1 -1 -2 -2 -2 0 3 14 39 84 131 131 82 35 11 1 -1 -2 -2 -2 -2 -2 -2 -2 -2 -2 -2 -1 3 16 47 91 104 65 26 6 0 -2 -2 -2 -2 -2 -2 -2 -2 -2 0 5 24 66 105 80 32 8 0 -2 -2 -2 -2 -2 -2 -2 -2 -2 -2 -2 -2 -2 -2 -2 -2 -2 -2 -1 2 16 50 97 97 50 16 2 -1 -2 -2 -2 -2 -2 -2 -2 0 8 33 81 105 66 24 5 0 -2 -2 -2 -1 1 12 45 95 
95 45 12 1 -1 -2 -2 -2 -2 0 5 21 58 110 114 63 22 5 0 -2 -2 -2 -2 -2 -2 -2 -2 -2 -2 -1 1 10 33 74 105 86 42 13 2 -1 -2 -2 -2 -2 -2 -2 -2 -2 -2 -1 2 17 55 101 89 39 10 0 -1 -2 -2 -2 -2 -2 -2 -2 -2 -2 -2 -2 -2 -2 -2 -2 -2 -2 0 6 27 69 105 82 36 9 0 -1 -2 -2 -2 -2 -2 -2 -1 1 12 43 92 100 53 17 2 -1 -2 -2 -2 -1 1 12 45 95 
95 45 12 1 -1 -2 -2 -2 -2 -1 1 13 44 95 106 59 20 3 -1 -2 -2 -2 -2 -2 -2 -2 -2 -2 -2 0 5 23 59 99 99 59 23 5 0 -2 -2 -2 -2 -2 -2 -2 -2 -2 -2 -1 1 14 48 98 93 43 12 1 -1 -2 -2 -2 -2 -2 -2 -2 -2 -2 -2 -2 -2 -2 -2 -2 -2 -1 1 13 43 89 103 63 23 5 0 -2 -2 -2 -2 -2 -2 -2 -1 2 17 53 100 92 43 12 1 -1 -2 -2 -2 -1 1 12 45 95 
95 45 12 1 -1 -2 -2 -2 -2 -2 0 8 34 81 107 67 25 5 0 -2 -2 -2 -2 -2 -2 -2 -2 -2 -1 2 13 42 86 105 74 33 10 1 -1 -2 -2 -2 -2 -2 -2 -2 -2 -2 -2 -1 1 12 45 95 95 45 12 1 -1 -2 -2 -2 -2 -2 -2 -2 -2 -2 -2 -2 -2 -2 -2 -2 -2 0 5 23 63 103 89 43 13 1 -1 -2 -2 -2 -2 -2 -2 -2 0 5 24 66 105 81 33 8 0 -2 -2 -2 -2 -1 1 12 45 95 
95 45 12 1 -1 -2 -2 -2 -2 -2 0 5 24 67 106 80 33 8 0 -2 -2 -2 -2 -2 -2 -2 -2 -2 0 6 26 65 104 91 47 16 3 -1 -2 -2 -2 -2 -2 -2 -2 -2 -2 -2 -2 -1 1 12 43 93 98 48 14 1 -1 -2 -2 -2 -2 -2 -2 -2 -2 -2 -2 -2 -2 -2 -2 -2 -1 0 9 36 82 105 69 27 6 0 -2 -2 -2 -2 -2 -2 -2 -2 0 8 33 81 105 66 24 5 0 -2 -2 -2 -2 -1 1 12 45 96 
96 45 12 1 -1 -2 -2 -2 -2 -2 -1 2 17 54 101 90 40 11 0 -1 -2 -2 -2 -2 -2 -2 -2 -1 2 14 44 89 104 67 27 7 0 -2 -2 -2 -2 -2 -2 -2 -2 -2 -2 -2 -2 -1 0 10 39 89 101 55 17 2 -1 -2 -2 -2 -2 -2 -2 -2 -2 -2 -2 -2 -2 -2 -2 -2 -1 2 16 50 97 97 50 16 2 -1 -2 -2 -2 -2 -2 -2 -2 -1 1 12 43 92 100 53 17 2 -1 -2 -2 -2 -2 -1 1 13 46 96 
96 45 12 1 -1 -2 -2 -2 -2 -2 -1 1 13 46 96 96 46 13 1 -1 -2 -2 -2 -2 -2 -2 -2 0 7 27 67 104 89 44 14 2 -1 -2 -2 -2 -2 -2 -2 -2 -2 -2 -2 -2 -2 -2 0 8 32 80 105 66 24 5 0 -2 -2 -2 -2 -2 -2 -2 -2 -2 -2 -2 -2 -2 -2 -2 0 6 27 69 105 82 36 9 0 -1 -2 -2 -2 -2 -2 -2 -2 -1 2 17 53 100 92 43 12 1 -1 -2 -2 -2 -2 -1 1 14 48 99 
97 44 12 1 -1 -2 -2 -2 -2 -2 -1 0 11 40 90 101 54 17 2 -1 -2 -2 -2 -2 -2 -2 -1 3 16 47 91 104 65 26 6 0 -2 -2 -2 -2 -2 -2 -2 -2 -2 -2 -2 -2 -2 -2 0 5 24 66 105 80 32 8 0 -2 -2 -2 -2 -2 -2 -2 -2 -2 -2 -2 -2 -2 -2 -1 1 13 43 89 103 63 23 5 0 -2 -2 -2 -2 -2 -2 -2 -2 0 5 24 66 105 81 33 8 0 -2 -2 -2 -2 -2 -1 3 18 56 106 
100 44 12 1 -1 -2 -2 -2 -2 -2 -2 0 8 33 80 105 66 24 5 0 -2 -2 -2 -2 -2 -1 1 10 33 74 105 86 42 13 2 -1 -2 -2 -2 -2 -2 -2 -2 -2 -2 -2 -2 -2 -2 -2 -1 2 17 55 101 89 39 10 0 -1 -2 -2 -2 -2 -2 -2 -2 -2 -2 -2 -2 -2 -2 0 5 23 63 103 89 43 13 1 -1 -2 -2 -2 -2 -2 -2 -2 -2 0 8 33 81 105 66 24 5 0 -2 -2 -2 -2 -1 0 7 28 72 119 
102 43 12 1 -1 -2 -2 -2 -2 -2 -2 0 5 24 66 105 80 33 8 0 -2 -2 -2 -2 -2 0 5 23 59 99 99 59 23 5 0 -2 -2 -2 -2 -2 -2 -2 -2 -2 -2 -2 -2 -2 -2 -2 -1 1 14 48 98 93 43 12 1 -1 -2 -2 -2 -2 -2 -2 -2 -2 -2 -2 -2 -2 -1 0 9 36 82 105 69 27 6 0 -2 -2 -2 -2 -2 -2 -2 -2 -1 1 12 43 92 100 53 17 2 -1 -2 -2 -2 -2 -1 3 16 46 97 134 
102 44 12 1 -1 -2 -2 -2 -2 -2 -2 -1 2 17 54 101 90 40 11 0 -1 -2 -2 -2 -1 2 13 42 86 105 74 33 10 1 -1 -2 -2 -2 -2 -2 -2 -2 -2 -2 -2 -2 -2 -2 -2 -2 -1 1 12 45 95 95 45 12 1 -1 -2 -2 -2 -2 -2 -2 -2 -2 -2 -2 -2 -2 -1 2 16 50 97 97 50 16 2 -1 -2 -2 -2 -2 -2 -2 -2 -2 -1 2 17 53 100 92 43 12 1 -1 -2 -2 -2 -1 1 10 33 75 122 142 
101 44 12 1 -1 -2 -2 -2 -2 -2 -2 -1 1 13 46 96 96 46 13 1 -1 -2 -2 -2 0 6 26 65 104 91 47 16 3 -1 -2 -2 -2 -2 -2 -2 -2 -2 -2 -2 -2 -2 -2 -2 -2 -2 -1 1 12 43 93 98 48 14 1 -1 -2 -2 -2 -2 -2 -2 -2 -2 -2 -2 -2 -2 0 6 27 69 105 82 36 9 0 -1 -2 -2 -2 -2 -2 -2 -2 -2 0 5 24 66 105 81 33 8 0 -2 -2 -2 -2 0 6 24 60 104 131 136 
99 44 12 1 -1 -2 -2 -2 -2 -2 -2 -1 0 11 40 90 101 54 17 2 -1 -2 -2 -1 2 14 44 89 104 67 27 7 0 -2 -2 -2 -2 -2 -2 -2 -2 -2 -2 -2 -2 -2 -2 -2 -2 -2 -1 0 10 39 89 101 55 17 3 -1 -2 -2 -2 -2 -2 -2 -2 -2 -2 -2 -2 -1 1 13 43 89 103 63 23 5 0 -2 -2 -2 -2 -2 -2 -2 -2 -2 0 8 33 81 105 66 24 5 0 -2 -2 -2 -1 3 16 45 89 115 115 122 
97 45 12 1 -1 -2 -2 -2 -2 -2 -2 -2 0 8 33 80 105 66 24 5 0 -2 -1 0 7 27 67 104 89 44 14 2 -1 -2 -2 -2 -2 -2 -2 -2 -2 -2 -2 -2 -2 -2 -2 -2 -2 -2 -2 0 8 33 80 106 67 25 5 0 -1 -2 -2 -2 -2 -2 -2 -2 -2 -2 -2 0 5 23 63 103 89 43 13 1 -1 -2 -2 -2 -2 -2 -2 -2 -2 -1 1 12 43 92 100 53 17 2 -1 -2 -2 -1 1 10 33 74 107 101 91 110 
96 45 12 1 -1 -2 -2 -2 -2 -2 -2 -2 0 5 24 66 105 80 33 8 0 -1 0 3 16 47 91 104 65 26 6 0 -2 -2 -2 -2 -2 -2 -2 -2 -2 -2 -2 -2 -2 -2 -2 -2 -2 -2 -2 0 5 25 68 107 83 36 11 3 1 0 0 -1 -1 -1 -1 -1 -2 -2 -1 0 10 36 82 105 69 27 6 0 -2 -2 -2 -2 -2 -2 -2 -2 -2 -1 2 17 53 100 92 43 12 1 -1 -2 -2 0 6 24 60 100 102 74 71 103 
96 45 12 1 -1 -2 -2 -2 -2 -2 -2 -2 -1 2 17 54 101 90 40 11 1 0 1 10 33 74 105 86 42 13 2 -1 -2 -2 -2 -2 -2 -2 -2 -2 -2 -2 -2 -2 -2 -2 -2 -2 -2 -2 -2 0 4 21 60 108 99 53 25 15 11 8 5 2 1 1 1 0 0 0 0 3 17 51 97 97 50 16 2 -1 -2 -2 -2 -2 -2 -2 -2 -2 -2 0 5 24 66 105 81 33 8 0 -1 -2 0 3 16 46 88 106 77 49 58 99 
96 45 12 1 -1 -2 -2 -2 -2 -2 -2 -2 -1 1 13 46 96 96 46 13 2 0 5 23 59 99 99 59 23 5 0 -2 -2 -2 -2 -2 -2 -2 -2 -2 -2 -2 -2 -2 -2 -2 -2 -2 -2 -2 0 2 9 27 67 117 121 83 57 46 40 33 24 17 14 12 12 10 8 5 5 10 30 70 106 82 36 9 0 -1 -2 -2 -2 -2 -2 -2 -2 -2 -2 0 8 33 81 105 66 24 5 0 -2 -1 1 10 33 74 105 89 49 31 51 97 
95 45 12 1 -1 -2 -2 -2 -2 -2 -2 -2 -1 0 11 40 90 101 54 17 4 3 13 42 86 105 74 33 10 1 -1 -2 -2 -2 -2 -2 -2 -2 -2 -2 -2 -2 -2 -2 -2 -2 -2 -2 -1 0 3 11 25 52 92 134 141 120 103 96 90 80 66 55 48 45 43 39 33 25 21 28 53 95 105 63 23 5 0 -2 -2 -2 -2 -2 -2 -2 -2 -2 -1 1 12 43 92 100 53 17 2 -1 -1 0 6 24 60 99 99 61 28 21 47 96 
95 45 12 1 -1 -2 -2 -2 -2 -2 -2 -2 -2 0 8 33 80 105 66 24 7 8 26 65 104 91 47 16 3 -1 -2 -2 -2 -2 -2 -2 -2 -2 -2 -2 -2 -2 -2 -2 -2 -2 -2 -1 1 6 16 34 61 91 115 123 115 104 99 98 101 105 105 101 98 95 93 89 80 68 60 67 93 117 94 45 14 2 -1 -2 -2 -2 -2 -2 -2 -2 -2 -2 -1 2 17 53 100 92 43 12 1 -1 0 3 16 46 88 105 74 34 14 16 46 96 
95 45 12 1 -1 -2 -2 -2 -2 -2 -2 -2 -2 0 5 24 66 105 80 34 13 17 44 89 104 67 27 7 0 -2 -2 -2 -2 -2 -2 -2 -2 -2 -2 -2 -2 -2 -2 -2 -2 -1 0 3 10 24 46 74 100 107 93 72 56 48 46 48 55 66 80 89 93 95 98 101 106 107 107 116 134 131 83 33 9 0 -1 -2 -2 -2 -2 -2 -2 -2 -2 -2 0 5 24 66 105 81 33 8 0 -1 1 10 33 74 105 88 46 17 7 14 45 95 
95 45 12 1 -1 -2 -2 -2 -2 -2 -2 -2 -2 -1 2 17 54 101 90 43 21 30 67 104 89 44 14 2 -1 -2 -2 -2 -2 -2 -2 -2 -2 -2 -2 -2 -2 -2 -2 -2 -1 1 6 16 33 60 88 105 99 74 47 28 18 14 13 14 17 24 32 39 43 45 48 55 67 81 95 112 133 131 83 35 10 1 -1 -2 -2 -2 -2 -2 -2 -2 -2 -1 0 8 34 81 105 66 24 5 0 0 6 24 60 99 99 60 24 7 3 13 45 95 
95 45 12 1 -1 -2 -2 -2 -2 -2 -2 -2 -2 -1 1 13 46 96 97 52 33 51 91 104 65 26 6 0 -2 -2 -2 -2 -2 -2 -2 -2 -2 -2 -2 -2 -2 -2 -1 0 2 9 24 45 74 99 105 88 60 34 16 7 3 1 1 1 2 5 8 10 12 12 14 17 24 34 45 61 91 117 97 50 19 5 0 -1 -1 -1 -1 -1 -1 -1 -1 -1 2 13 43 92 100 53 17 3 0 3 16 46 88 105 74 33 10 2 2 12 45 95 
95 45 12 1 -1 -2 -2 -2 -2 -2 -2 -2 -2 -1 0 11 40 90 104 67 54 79 106 87 42 13 2 -1 -2 -2 -2 -2 -2 -2 -2 -2 -2 -2 -2 -2 -2 -1 0 4 13 31 59 88 105 99 74 46 24 10 3 0 -1 -1 -1 -1 -1 0 0 0 1 1 1 2 5 9 14 25 51 91 109 79 41 18 8 3 1 1 1 1 1 1 1 2 6 20 55 101 93 44 13 2 2 10 34 74 105 88 46 16 3 0 1 12 45 95 
95 45 12 1 -1 -2 -2 -2 -2 -2 -2 -2 -2 -2 0 8 33 80 111 91 85 105 100 59 23 5 0 -2 -2 -2 -2 -2 -2 -2 -2 -2 -2 -2 -2 -2 -1 1 6 17 37 68 98 105 88 60 33 16 6 1 0 -1 -2 -2 -2 -2 -2 -2 -2 -1 -1 -1 -1 -1 0 0 2 8 25 61 103 110 80 48 29 18 14 13 12 12 12 12 13 14 20 37 76 112 86 37 11 3 7 24 60 99 99 60 24 6 0 -1 1 12 45 95 
95 45 12 1 -1 -2 -2 -2 -2 -2 -2 -2 -2 -2 0 5 24 66 113 118 116 111 74 33 10 1 -1 -2 -2 -2 -2 -2 -2 -2 -2 -2 -2 -2 -1 0 3 10 24 46 76 102 102 76 46 24 10 3 0 -1 -2 -2 -2 -2 -2 -2 -2 -2 -2 -2 -2 -2 -2 -2 -2 -1 -1 1 11 36 81 124 126 98 72 56 48 46 45 45 45 45 45 47 54 74 109 125 85 38 15 9 18 46 88 105 74 33 10 1 -1 -1 1 12 45 95 
95 45 12 1 -1 -2 -2 -2 -2 -2 -2 -2 -2 -2 -1 2 17 54 110 137 129 93 46 16 3 -1 -2 -2 -2 -2 -2 -2 -2 -2 -2 -2 -2 -1 1 6 16 33 60 88 105 98 68 37 17 6 1 -1 -2 -2 -2 -2 -2 -2 -2 -2 -2 -2 -2 -2 -2 -2 -2 -2 -2 -2 -2 0 5 22 63 120 143 128 113 103 98 96 96 95 95 95 96 97 102 116 138 139 100 58 33 27 41 76 106 89 46 16 3 0 -2 -1 1 12 45 95 
95 45 12 1 -1 -2 -2 -2 -2 -2 -2 -2 -2 -2 -1 1 13 47 106 142 118 67 26 7 0 -2 -2 -2 -2 -2 -2 -2 -2 -2 -2 -1 0 3 10 24 46 74 99 105 88 59 31 13 4 0 -1 -2 -2 -2 -2 -2 -2 -2 -2 -2 -2 -2 -2 -2 -2 -2 -2 -2 -2 -2 -2 -1 3 20 59 112 123 100 91 92 94 95 95 95 95 95 96 96 98 103 114 124 117 96 74 65 80 107 103 61 24 6 0 -2 -2 -1 1 12 45 95 
95 45 12 1 -1 -2 -2 -2 -2 -2 -2 -2 -2 -2 -1 1 12 44 103 134 95 43 13 2 -1 -2 -2 -2 -2 -2 -2 -2 -2 -1 0 1 6 15 33 60 88 106 100 74 46 24 10 2 0 -1 -2 -2 -2 -2 -2 -2 -2 -2 -2 -2 -2 -2 -2 -2 -2 -2 -2 -2 -2 -2 -2 0 5 24 68 110 94 58 43 42 43 44 45 45 45 45 45 45 46 48 56 72 92 107 111 114 125 124 84 38 12 1 -1 -2 -2 -1 1 12 45 95 
95 45 12 1 -1 -2 -2 -2 -2 -2 -2 -2 -2 -2 -1 1 12 44 100 119 71 27 6 0 -2 -2 -2 -2 -2 -2 -2 -1 0 0 4 10 23 45 74 102 109 92 63 36 18 7 2 0 -1 -2 -2 -2 -2 -2 -2 -2 -2 -2 -2 -2 -2 -2 -2 -2 -2 -2 -2 -2 -2 -2 -2 0 8 33 80 107 71 32 16 12 12 12 12 12 12 12 12 12 13 14 18 27 44 67 93 121 142 127 74 29 8 0 -1 -2 -2 -1 1 12 45 95 
95 45 12 1 -1 -2 -2 -2 -2 -2 -2 -2 -2 -2 -1 1 12 45 98 105 55 18 3 -1 -2 -2 -2 -2 -2 -1 0 1 5 10 19 34 60 92 118 119 92 62 38 21 11 5 2 0 0 -1 -1 -1 -2 -2 -2 -2 -2 -2 -2 -2 -2 -2 -2 -2 -2 -2 -2 -2 -2 -2 -1 0 10 39 89 102 56 19 5 1 1 1 1 1 1 1 1 1 1 1 3 6 14 27 47 79 116 124 84 38 12 1 -1 -2 -2 -1 1 12 45 95 
95 45 12 1 -1 -2 -2 -2 -2 -2 -2 -2 -2 -2 -1 1 14 48 98 97 46 13 1 -1 -2 -2 -1 -1 0 2 6 13 23 36 54 78 108 134 141 121 89 65 49 37 25 17 12 8 5 2 1 0 0 0 -1 -1 -2 -2 -2 -2 -2 -2 -2 -2 -2 -2 -2 -2 -2 -2 -1 1 12 44 94 97 48 14 2 -1 -1 -1 -1 -1 -1 -1 -1 -1 -1 -1 -1 0 2 7 17 37 73 107 103 61 24 6 0 -2 -2 -1 1 12 45 95 
95 45 12 1 -1 -2 -2 -2 -2 -2 -2 -2 -2 -2 -1 2 17 55 101 90 40 11 1 -1 -1 0 0 2 6 14 25 42 63 83 99 112 118 122 125 122 111 101 92 81 66 53 43 33 24 17 13 11 8 5 2 1 0 0 -1 -1 -1 -2 -2 -2 -2 -2 -2 -2 -2 -2 -1 1 14 48 97 94 44 12 1 -1 -2 -2 -2 -2 -2 -2 -2 -2 -2 -2 -2 -2 -1 0 4 14 38 76 106 89 46 16 3 0 -2 -1 1 12 45 95 
95 45 12 1 -1 -2 -2 -2 -2 -2 -2 -2 -2 -2 0 5 24 66 106 80 33 8 1 0 1 5 9 16 27 44 66 88 103 106 98 85 71 64 70 82 91 96 101 106 105 100 92 81 67 54 46 40 33 24 17 12 8 5 2 1 0 0 0 -1 -1 -2 -2 -2 -2 -2 -1 2 17 54 101 89 39 10 0 -1 -2 -2 -2 -2 -2 -2 -2 -2 -2 -2 -2 -2 -2 -1 0 4 17 46 89 105 74 33 10 1 -1 -1 1 12 45 95 
95 45 12 1 -1 -2 -2 -2 -2 -2 -2 -2 -2 -2 0 8 33 80 106 67 25 7 4 6 13 23 36 50 69 90 104 104 90 69 51 37 26 22 25 33 40 46 54 67 81 92 100 105 105 101 96 90 80 66 53 43 33 24 17 13 11 8 5 2 1 0 0 -1 -1 -1 0 5 24 66 105 80 33 8 0 -2 -2 -2 -2 -2 -2 -2 -2 -2 -2 -2 -2 -2 -2 -2 -1 0 6 24 60 99 99 60 24 6 0 -1 1 12 45 95 
95 45 12 1 -1 -2 -2 -2 -2 -2 -2 -2 -2 -1 0 11 40 90 102 57 22 12 15 26 42 63 82 97 105 103 88 66 44 27 16 10 6 4 5 8 11 13 17 24 33 43 53 66 80 90 96 101 105 105 100 92 81 67 54 46 40 33 24 17 12 8 5 2 1 1 2 10 34 81 106 66 24 5 0 -2 -2 -2 -2 -2 -2 -2 -2 -2 -2 -2 -2 -2 -2 -2 -2 -1 1 10 33 74 105 88 46 17 4 0 1 12 45 95 
95 45 12 1 -1 -2 -2 -2 -2 -2 -2 -2 -2 -1 1 13 46 97 100 56 30 30 44 66 88 103 105 97 82 63 42 25 14 6 2 0 0 0 0 0 0 1 2 5 8 12 17 24 33 40 46 54 67 81 92 100 105 105 101 96 90 80 66 53 43 33 24 17 13 11 11 18 44 92 102 55 17 2 -1 -2 -2 -2 -2 -2 -2 -2 -2 -2 -2 -2 -2 -2 -2 -2 -2 -2 -1 3 16 45 88 105 76 37 13 3 2 13 45 95 
95 45 12 1 -1 -2 -2 -2 -2 -2 -2 -2 -2 -1 3 18 55 106 106 70 58 69 90 104 104 90 69 50 36 23 13 6 2 0 -1 -1 -2 -2 -2 -2 -1 -1 -1 0 0 1 2 5 8 11 13 17 24 33 43 53 66 80 90 96 101 105 105 100 92 81 67 54 46 41 36 38 61 103 99 48 14 1 -1 -2 -2 -2 -2 -2 -2 -2 -2 -2 -2 -2 -2 -2 -2 -2 -2 -2 -2 0 6 24 59 98 102 68 31 10 5 13 45 95 
95 45 12 1 -1 -2 -2 -2 -2 -2 -2 -2 -2 0 6 27 71 122 123 102 99 106 104 89 66 44 27 16 9 5 1 0 -1 -2 -2 -2 -2 -2 -2 -2 -2 -2 -2 -2 -2 -1 -1 0 0 0 1 2 5 8 12 17 24 33 40 46 54 67 81 92 100 105 105 101 96 91 83 79 93 121 101 45 12 1 -1 -2 -2 -2 -2 -2 -2 -2 -2 -2 -2 -2 -2 -2 -2 -2 -2 -2 -2 -1 1 9 31 68 102 98 59 25 10 15 45 96 
95 45 12 1 -1 -2 -2 -2 -2 -2 -2 -2 -1 2 13 43 95 139 138 120 106 89 66 43 26 14 6 2 0 0 -1 -2 -2 -2 -2 -2 -2 -2 -2 -2 -2 -2 -2 -2 -2 -2 -2 -2 -2 -1 -1 -1 0 0 1 2 5 8 11 13 17 24 33 43 53 66 80 90 96 101 108 115 129 140 103 44 12 1 -1 -2 -2 -2 -2 -2 -2 -2 -2 -2 -2 -2 -2 -2 -2 -2 -2 -2 -2 -2 -1 2 13 37 76 105 88 47 21 19 47 96 
96 45 12 1 -1 -2 -2 -2 -2 -2 -2 -2 0 7 26 67 115 128 109 85 63 42 25 14 6 2 0 -1 -1 -2 -2 -2 -2 -2 -2 -2 -2 -2 -2 -2 -2 -2 -2 -2 -2 -2 -2 -2 -2 -2 -2 -2 -2 -2 -1 -1 0 0 0 1 2 5 8 12 17 24 33 40 46 55 69 90 118 138 103 44 12 1 -1 -2 -2 -2 -2 -2 -2 -2 -2 -2 -2 -2 -2 -2 -2 -2 -2 -2 -2 -2 -2 0 4 17 46 88 105 76 41 28 50 97 
96 45 12 1 -1 -2 -2 -2 -2 -2 -2 0 3 16 47 92 112 88 57 37 23 13 6 2 0 -1 -2 -2 -2 -2 -2 -2 -2 -2 -2 -2 -2 -2 -2 -2 -2 -2 -2 -2 -2 -2 -2 -2 -2 -2 -2 -2 -2 -2 -2 -2 -2 -2 -1 -1 -1 0 0 1 2 5 8 11 13 18 27 46 80 117 99 44 12 1 -1 -2 -2 -2 -2 -2 -2 -2 -2 -2 -2 -2 -2 -2 -2 -2 -2 -2 -2 -2 -2 -1 0 6 24 59 98 103 72 46 57 99 
96 45 12 1 -1 -2 -2 -2 -2 -2 -1 1 10 34 74 106 91 50 24 11 5 1 0 -1 -2 -2 -2 -2 -2 -2 -2 -2 -2 -2 -2 -2 -2 -2 -2 -2 -2 -2 -2 -2 -2 -2 -2 -2 -2 -2 -2 -2 -2 -2 -2 -2 -2 -2 -2 -2 -2 -2 -2 -1 -1 0 0 0 1 3 8 23 56 103 97 45 12 1 -1 -2 -2 -2 -2 -2 -2 -2 -2 -2 -2 -2 -2 -2 -2 -2 -2 -2 -2 -2 -2 -2 -1 1 10 31 68 102 101 73 71 103 
97 45 12 1 -1 -2 -2 -2 -2 -1 0 6 24 60 100 100 61 25 8 2 0 -1 -2 -2 -2 -2 -2 -2 -2 -2 -2 -2 -2 -2 -2 -2 -2 -2 -2 -2 -2 -2 -2 -2 -2 -2 -2 -2 -2 -2 -2 -2 -2 -2 -2 -2 -2 -2 -2 -2 -2 -2 -2 -2 -2 -2 -2 -1 -1 0 3 15 48 97 97 46 13 1 -1 -2 -2 -2 -2 -2 -2 -2 -2 -2 -2 -2 -2 -2 -2 -2 -2 -2 -2 -2 -2 -2 -2 -1 2 13 37 76 107 101 91 110 
99 44 12 1 -1 -2 -2 -2 -2 0 4 17 46 89 106 74 34 11 2 -1 -1 -2 -2 -2 -2 -2 -2 -2 -2 -2 -2 -2 -2 -2 -2 -2 -2 -2 -2 -2 -2 -2 -2 -2 -2 -2 -2 -2 -2 -2 -2 -2 -2 -2 -2 -2 -2 -2 -2 -2 -2 -2 -2 -2 -2 -2 -2 -2 -2 -1 1 13 45 96 99 50 15 2 -1 -2 -2 -2 -2 -2 -2 -2 -2 -2 -2 -2 -2 -2 -2 -2 -2 -2 -2 -2 -2 -2 -2 -2 0 4 17 46 89 115 115 122 
101 44 12 1 -1 -2 -2 -2 0 3 14 37 76 107 91 49 19 5 0 -1 -1 -1 -1 -1 -1 -1 -1 -1 -2 -2 -2 -2 -2 -2 -2 -2 -2 -2 -2 -2 -2 -2 -2 -2 -2 -2 -2 -2 -2 -2 -2 -2 -2 -2 -2 -2 -2 -2 -2 -2 -2 -2 -2 -2 -2 -2 -2 -2 -2 0 2 15 47 98 107 60 23 6 0 -1 -2 -2 -2 -2 -2 -2 -2 -2 -2 -2 -2 -2 -2 -2 -2 -2 -2 -2 -2 -2 -2 -2 -1 0 6 24 60 104 131 136 
102 44 12 1 -1 -2 -2 0 3 13 34 71 108 109 73 37 17 7 3 1 1 1 1 1 1 1 1 0 0 0 -1 -1 -1 -1 -1 -1 -1 -1 -1 -2 -2 -2 -2 -2 -2 -2 -2 -2 -2 -2 -2 -2 -2 -2 -2 -2 -2 -2 -2 -2 -2 -2 -2 -2 -2 -2 -2 -1 0 1 8 23 56 106 125 85 42 18 7 2 0 -1 -2 -2 -2 -2 -2 -2 -2 -2 -2 -2 -2 -2 -2 -2 -2 -2 -2 -2 -2 -2 -2 -1 1 10 33 75 122 142 
102 43 12 1 -1 -1 0 3 13 34 70 112 130 109 76 52 36 25 18 14 13 12 12 12 12 12 11 10 8 5 2 1 1 1 1 1 1 1 0 0 0 -1 -1 -1 -1 -1 -1 -1 -1 -1 -1 -2 -2 -2 -2 -2 -2 -2 -2 -2 -2 -2 -2 -2 -2 -2 -1 0 3 10 24 48 82 124 143 119 80 48 27 13 5 1 -1 -2 -2 -2 -2 -2 -2 -2 -2 -2 -2 -2 -2 -2 -2 -2 -2 -2 -2 -2 -2 -2 -1 3 16 46 97 134 
100 44 12 1 -1 0 3 13 34 70 111 139 140 123 106 94 81 67 55 48 46 45 45 45 45 44 43 39 32 24 17 14 13 12 12 12 12 11 10 8 5 2 1 1 1 1 1 1 1 1 0 0 0 -1 -1 -1 -1 -1 -1 -1 -1 -1 -2 -2 -1 0 2 7 16 34 60 89 111 122 124 122 112 92 66 42 23 10 3 0 -1 -2 -2 -2 -2 -2 -2 -2 -2 -2 -2 -2 -2 -2 -2 -2 -2 -2 -2 -2 -1 0 7 28 72 119 
97 44 12 1 0 3 13 35 69 105 120 116 107 101 100 102 106 106 101 98 96 96 95 95 95 95 93 89 80 66 55 48 46 45 45 45 44 43 39 32 24 17 14 13 12 12 12 12 12 11 10 8 5 2 1 1 1 1 1 1 1 0 0 0 1 5 13 27 47 74 99 106 93 75 67 75 92 105 104 87 59 33 16 7 2 0 -1 -2 -2 -2 -2 -2 -2 -2 -2 -2 -2 -2 -2 -2 -2 -2 -2 -2 -2 -1 3 18 56 106 
96 45 13 3 5 14 35 69 102 105 82 60 49 47 48 55 66 80 89 93 95 95 95 95 96 96 98 101 105 105 101 98 96 96 95 95 95 93 89 80 66 55 48 46 45 45 45 45 44 43 39 32 24 17 14 13 12 12 12 12 12 10 9 8 12 24 42 66 90 105 99 74 48 30 24 29 45 67 91 105 99 74 47 27 13 5 1 -1 -2 -2 -2 -2 -2 -2 -2 -2 -2 -2 -2 -2 -2 -2 -2 -2 -2 -1 1 14 48 99 
96 46 16 10 18 38 71 101 102 71 40 22 15 13 14 17 24 32 39 43 44 45 45 45 45 46 48 55 66 80 89 93 95 95 95 96 96 98 101 105 105 101 98 96 96 95 95 95 95 93 89 80 66 55 48 46 45 45 45 44 43 40 35 32 40 61 87 104 104 87 59 34 17 8 5 7 14 27 47 74 99 105 90 66 42 23 10 3 0 -1 -2 -2 -2 -2 -2 -2 -2 -2 -2 -2 -2 -2 -2 -2 -2 -1 1 13 46 96 
97 50 25 28 47 76 102 101 69 35 14 5 2 1 1 2 5 8 10 11 12 12 12 12 12 13 14 17 24 32 39 43 44 45 45 45 46 48 55 66 80 89 93 95 95 95 95 96 96 98 101 105 105 101 98 96 96 95 95 95 94 91 85 82 90 105 107 91 66 42 23 10 3 0 0 0 2 7 16 33 59 87 104 104 87 59 33 16 7 2 0 -1 -2 -2 -2 -2 -2 -2 -2 -2 -2 -2 -2 -2 -2 -1 1 12 45 96 
100 60 46 62 89 105 98 67 34 13 3 0 -1 -1 -1 -1 0 0 0 1 1 1 1 1 1 1 1 2 5 8 10 11 12 12 12 12 13 14 17 24 32 39 43 44 45 45 45 45 46 48 55 66 80 89 93 95 95 95 96 96 99 106 119 132 132 113 79 48 27 13 5 1 -1 -1 -2 -2 -1 0 3 10 23 42 66 90 105 99 74 47 27 13 5 1 -1 -2 -2 -2 -2 -2 -2 -2 -2 -2 -2 -2 -2 -1 1 12 45 96 
108 81 81 101 106 88 59 30 12 3 0 -2 -2 -2 -2 -2 -2 -2 -1 -1 -1 -1 -1 -1 -1 -1 -1 -1 0 0 0 1 1 1 1 1 1 1 2 5 8 10 11 12 12 12 12 12 13 14 17 24 32 39 43 44 45 45 45 46 51 65 96 134 132 85 43 19 7 2 0 -1 -2 -2 -2 -2 -2 -2 -1 1 5 13 27 47 74 99 105 90 66 42 23 10 3 0 -1 -2 -2 -2 -2 -2 -2 -2 -2 -2 -2 -1 1 12 45 97 
123 111 112 104 76 46 24 9 2 0 -2 -2 -2 -2 -2 -2 -2 -2 -2 -2 -2 -2 -2 -2 -2 -2 -2 -2 -2 -2 -1 -1 -1 -1 -1 -1 -1 -1 -1 0 0 0 1 1 1 1 1 1 1 1 2 5 8 10 11 12 12 12 12 13 17 31 65 114 113 61 23 6 0 -1 -2 -2 -2 -2 -2 -2 -2 -2 -2 -1 0 2 7 16 33 59 87 104 104 87 59 33 16 7 2 0 -1 -2 -2 -2 -2 -2 -2 -2 -2 -1 1 12 44 99 
139 131 107 71 38 17 6 1 -1 -2 -2 -2 -2 -2 -2 -2 -2 -2 -2 -2 -2 -2 -2 -2 -2 -2 -2 -2 -2 -2 -2 -2 -2 -2 -2 -2 -2 -2 -2 -2 -2 -1 -1 -1 -1 -1 -1 -1 -1 -1 -1 0 0 0 1 1 1 1 1 2 5 17 51 101 101 50 15 2 -1 -2 -2 -2 -2 -2 -2 -2 -2 -2 -2 -2 -2 -1 0 3 10 23 42 66 90 105 99 74 47 27 14 6 2 0 -1 -2 -2 -2 -2 -2 -2 -1 1 12 44 102 
141 117 72 35 14 4 0 -1 -2 -2 -2 -2 -2 -2 -2 -2 -2 -2 -2 -2 -2 -2 -2 -2 -2 -2 -2 -2 -2 -2 -2 -2 -2 -2 -2 -2 -2 -2 -2 -2 -2 -2 -2 -2 -2 -2 -2 -2 -2 -2 -2 -2 -2 -1 -1 -1 -1 -1 -1 -1 2 13 46 97 97 46 13 1 -1 -2 -2 -2 -2 -2 -2 -2 -2 -2 -2 -2 -2 -2 -2 -1 1 5 13 27 47 74 99 105 91 67 44 26 13 5 1 -1 -2 -2 -2 -2 -2 -1 1 12 44 103 
125 84 39 14 3 0 -1 -2 -2 -2 -2 -2 -2 -2 -2 -2 -2 -2 -2 -2 -2 -2 -2 -2 -2 -2 -2 -2 -2 -2 -2 -2 -2 -2 -2 -2 -2 -2 -2 -2 -2 -2 -2 -2 -2 -2 -2 -2 -2 -2 -2 -2 -2 -2 -2 -2 -2 -2 -2 -1 1 12 45 96 96 45 12 1 -1 -2 -2 -2 -2 -2 -2 -2 -2 -2 -2 -2 -2 -2 -2 -2 -1 0 2 7 16 33 59 86 104 104 89 65 42 23 10 3 0 -1 -1 -2 -2 -1 1 12 44 101 
108 60 22 5 0 -1 -2 -2 -2 -2 -2 -2 -2 -2 -2 -2 -2 -2 -2 -2 -2 -2 -2 -2 -2 -2 -2 -2 -2 -2 -2 -2 -2 -2 -2 -2 -2 -2 -2 -2 -2 -2 -2 -2 -2 -2 -2 -2 -2 -2 -2 -2 -2 -2 -2 -2 -2 -2 -2 -1 1 12 45 95 95 45 12 1 -1 -2 -2 -2 -2 -2 -2 -2 -2 -2 -2 -2 -2 -2 -2 -2 -2 -2 -1 0 3 10 23 42 65 89 104 104 87 59 33 16 7 3 1 0 0 0 2 13 45 98 
100 49 15 2 -1 -2 -2 -2 -2 -2 -2 -2 -2 -2 -2 -2 -2 -2 -2 -2 -2 -2 -2 -2 -2 -2 -2 -2 -2 -2 -2 -2 -2 -2 -2 -2 -2 -2 -2 -2 -2 -2 -2 -2 -2 -2 -2 -2 -2 -2 -2 -2 -2 -2 -2 -2 -2 -2 -2 -1 1 12 45 95 95 45 12 1 -1 -2 -2 -2 -2 -2 -2 -2 -2 -2 -2 -2 -2 -2 -2 -2 -2 -2 -2 -2 -1 1 5 13 26 44 67 92 107 101 75 47 28 17 12 8 5 3 5 15 46 97 
97 46 13 1 -1 -2 -2 -2 -2 -2 -2 -2 -2 -2 -2 -2 -2 -2 -2 -2 -2 -2 -2 -2 -2 -2 -2 -2 -2 -2 -2 -2 -2 -2 -2 -2 -2 -2 -2 -2 -2 -2 -2 -2 -2 -2 -2 -2 -2 -2 -2 -2 -2 -2 -2 -2 -2 -2 -2 -1 1 12 45 95 95 45 12 1 -1 -2 -2 -2 -2 -2 -2 -2 -2 -2 -2 -2 -2 -2 -2 -2 -2 -2 -2 -2 -2 -1 0 2 7 16 30 52 83 112 117 97 72 54 43 33 24 17 16 24 52 99 
98 46 13 2 -1 -1 -1 -1 -2 -2 -2 -2 -2 -2 -2 -2 -2 -2 -2 -2 -2 -2 -2 -2 -2 -2 -2 -2 -2 -2 -2 -2 -2 -2 -2 -2 -2 -2 -2 -2 -2 -2 -2 -2 -2 -2 -2 -2 -2 -2 -2 -2 -2 -2 -2 -2 -2 -2 -2 -1 1 12 45 95 95 45 12 1 -1 -2 -2 -2 -2 -2 -2 -2 -2 -2 -2 -2 -2 -2 -2 -2 -2 -2 -2 -2 -2 -1 0 0 4 10 19 36 64 102 134 139 122 105 93 81 66 54 47 48 70 108 
103 48 16 5 2 1 1 0 0 0 -1 -1 -1 -1 -1 -1 -2 -2 -2 -2 -2 -2 -2 -2 -2 -2 -2 -2 -2 -2 -2 -2 -2 -2 -2 -2 -2 -2 -2 -2 -2 -2 -2 -2 -2 -2 -2 -2 -2 -2 -2 -2 -2 -2 -2 -2 -2 -2 -2 -1 1 12 45 95 95 45 12 1 -1 -2 -2 -2 -2 -2 -2 -2 -2 -2 -2 -2 -2 -2 -2 -2 -2 -2 -2 -1 0 0 2 6 13 24 38 57 82 111 130 127 113 104 103 106 106 100 95 94 105 126 
113 58 27 16 13 12 12 10 8 5 2 1 1 1 1 0 0 0 -1 -1 -1 -1 -1 -1 -1 -2 -2 -2 -2 -2 -2 -2 -2 -2 -2 -2 -2 -2 -2 -2 -2 -2 -2 -2 -2 -2 -2 -2 -2 -2 -2 -2 -2 -2 -2 -2 -2 -2 -2 -1 1 12 45 95 95 45 12 1 -1 -2 -2 -2 -2 -2 -2 -2 -2 -2 -2 -2 -2 -2 -2 -2 -1 -1 0 1 5 9 16 27 43 63 83 98 108 107 92 72 57 51 55 67 81 92 102 114 132 145 
128 85 58 48 45 44 43 39 32 24 17 14 13 12 12 10 8 5 2 1 1 1 1 1 0 0 0 -1 -1 -1 -1 -1 -1 -2 -2 -2 -2 -2 -2 -2 -2 -2 -2 -2 -2 -2 -2 -2 -2 -2 -2 -2 -2 -2 -2 -2 -2 -2 -2 -1 1 12 45 95 95 45 12 1 -1 -2 -2 -2 -2 -2 -2 -2 -2 -2 -2 -2 -2 -2 -1 0 0 2 6 13 23 36 50 69 89 103 105 97 82 63 43 27 18 16 18 24 34 43 55 76 110 142 
146 124 105 98 96 95 93 89 80 66 55 48 46 44 43 39 32 24 17 14 13 12 12 11 10 8 5 2 1 1 1 1 0 0 0 -1 -1 -1 -1 -1 -1 -1 -2 -2 -2 -2 -2 -2 -2 -2 -2 -2 -2 -2 -2 -2 -2 -2 -2 -1 1 12 45 95 95 45 12 1 -1 -2 -2 -2 -2 -2 -2 -2 -2 -2 -2 -2 -1 0 1 5 9 16 27 43 63 82 97 105 103 89 69 50 36 23 13 6 3 2 3 5 8 13 20 37 73 125 
142 124 106 98 96 96 98 101 105 105 101 98 96 95 93 89 80 66 55 48 46 45 44 43 39 32 24 17 14 13 12 12 10 8 5 2 1 1 1 1 1 0 0 0 -1 -1 -1 -1 -1 -1 -2 -2 -2 -2 -2 -2 -2 -2 -2 -1 1 12 45 95 95 45 12 1 -1 -2 -2 -2 -2 -2 -2 -2 -2 -1 -1 0 2 6 13 23 36 50 69 89 103 105 97 82 63 43 27 16 9 5 1 0 -1 -1 -1 0 0 2 6 19 53 111 
119 85 58 48 46 46 48 55 66 80 89 93 95 96 98 101 105 105 101 98 96 95 95 93 89 80 66 55 48 46 44 43 39 32 24 17 14 13 12 12 11 10 8 5 2 1 1 1 1 0 0 0 -1 -1 -1 -1 -1 -1 -1 -1 1 12 45 96 95 45 12 1 -1 -2 -2 -2 -2 -2 -2 -1 0 0 2 6 14 25 42 63 82 97 105 103 89 69 50 36 23 13 6 2 0 0 -1 -2 -2 -2 -2 -2 -1 -1 2 14 47 101 
104 58 27 16 13 13 14 17 24 32 39 43 44 46 48 55 66 80 89 93 95 95 96 98 101 105 105 101 98 96 95 93 89 80 66 55 48 46 45 44 43 39 32 24 17 14 13 12 12 10 8 5 2 1 1 1 1 1 0 0 3 13 46 96 96 45 12 1 -1 -2 -2 -2 -1 -1 0 1 5 9 16 27 44 66 88 103 105 97 82 63 43 27 16 9 5 1 0 -1 -1 -2 -2 -2 -2 -2 -2 -2 -2 -1 1 12 45 97 
98 48 16 5 2 1 1 2 5 8 10 12 12 13 14 17 24 32 39 43 44 45 46 48 55 66 80 89 93 95 96 98 101 105 105 101 98 96 95 95 93 89 80 66 55 48 46 44 43 39 32 24 17 14 13 12 12 12 10 9 9 18 49 98 97 46 13 1 -1 -1 -1 0 0 2 6 13 23 36 50 69 90 104 104 90 69 50 36 23 13 6 2 0 0 -1 -2 -2 -2 -2 -2 -2 -2 -2 -2 -2 -2 -1 1 12 45 96 
96 46 13 2 -1 -1 -1 -1 0 0 0 1 1 1 1 2 5 8 10 11 12 12 13 14 17 24 32 39 43 44 46 48 55 66 80 89 93 95 95 96 98 101 105 105 101 98 96 95 93 89 80 66 55 48 46 45 44 43 39 33 28 32 60 105 102 50 15 3 0 0 1 5 9 16 27 43 63 82 97 105 103 88 66 44 27 16 9 5 1 0 -1 -1 -2 -2 -2 -2 -2 -2 -2 -2 -2 -2 -2 -2 -2 -1 1 12 45 96 
96 45 12 1 -1 -2 -2 -2 -2 -2 -1 -1 -1 -1 -1 -1 0 0 0 1 1 1 1 1 2 5 8 10 12 12 13 14 17 24 32 39 43 44 45 46 48 55 66 80 89 93 95 96 98 101 105 105 101 98 96 95 95 93 89 81 70 68 88 123 114 61 23 8 5 7 13 23 36 50 69 89 103 105 97 82 63 42 25 14 6 2 0 0 -1 -2 -2 -2 -2 -2 -2 -2 -2 -2 -2 -2 -2 -2 -2 -2 -2 -1 1 12 45 95 
95 45 12 1 -1 -2 -2 -2 -2 -2 -2 -2 -2 -2 -2 -2 -2 -2 -1 -1 -1 -1 -1 -1 -1 0 0 0 1 1 1 1 2 5 8 10 11 12 12 13 14 17 24 32 39 43 44 46 48 55 66 80 89 93 95 95 96 98 101 106 107 109 122 142 132 86 45 25 21 28 43 63 82 97 105 103 89 69 50 36 23 13 6 2 0 -1 -1 -2 -2 -2 -2 -2 -2 -2 -2 -2 -2 -2 -2 -2 -2 -2 -2 -2 -2 -1 1 12 45 95 
95 45 12 1 -1 -2 -2 -2 -2 -2 -2 -2 -2 -2 -2 -2 -2 -2 -2 -2 -2 -2 -2 -2 -2 -2 -2 -1 -1 -1 -1 -1 -1 0 0 0 1 1 1 1 1 2 5 8 10 12 12 13 14 17 24 32 39 43 44 45 46 48 55 66 80 91 102 116 126 115 86 64 61 72 90 104 105 97 82 63 43 27 16 9 5 1 0 -1 -2 -2 -2 -2 -2 -2 -2 -2 -2 -2 -2 -2 -2 -2 -2 -2 -2 -2 -2 -2 -2 -1 1 12 45 95 
95 45 12 1 -1 -2 -2 -2 -2 -2 -2 -2 -2 -2 -2 -2 -2 -2 -2 -2 -2 -2 -2 -2 -2 -2 -2 -2 -2 -2 -2 -2 -2 -2 -2 -1 -1 -1 -1 -1 -1 -1 0 0 0 1 1 1 1 2 5 8 10 12 12 12 13 14 17 24 33 40 47 60 85 115 127 120 112 110 104 89 69 50 36 23 13 6 2 0 0 -1 -2 -2 -2 -2 -2 -2 -2 -2 -2 -2 -2 -2 -2 -2 -2 -2 -2 -2 -2 -2 -2 -2 -2 -1 1 12 45 95 
96 45 12 1 -1 -2 -2 -2 -2 -2 -2 -2 -2 -2 -2 -2 -2 -2 -2 -2 -2 -2 -2 -2 -2 -2 -2 -2 -2 -2 -2 -2 -2 -2 -2 -2 -2 -2 -2 -2 -2 -2 -2 -1 -1 -1 -1 -1 -1 -1 0 0 0 1 1 1 1 1 3 5 8 11 14 23 44 86 132 141 115 88 64 43 27 16 10 5 1 0 -1 -1 -2 -2 -2 -2 -2 -2 -2 -2 -2 -2 -2 -2 -2 -2 -2 -2 -2 -2 -2 -2 -2 -2 -2 -2 -2 -1 1 12 45 96 
96 46 13 2 -1 -1 -1 -1 -1 -1 -1 -1 -1 -1 -1 -1 -1 -1 -1 -1 -1 -1 -1 -1 -1 -1 -1 -1 -1 -1 -1 -1 -1 -1 -1 -1 -1 -1 -1 -1 -1 -1 -1 -1 -1 -1 -1 -1 -1 -1 -1 -1 -1 -1 -1 -1 0 0 0 0 0 1 3 8 24 62 114 122 81 46 26 14 7 3 1 0 0 -1 -1 -1 -1 -1 -1 -1 -1 -1 -1 -1 -1 -1 -1 -1 -1 -1 -1 -1 -1 -1 -1 -1 -1 -1 -1 -1 -1 -1 2 13 46 96 
98 48 16 5 2 1 1 1 1 1 1 1 1 1 1 1 1 1 1 1 1 1 1 1 1 1 1 1 1 1 1 1 1 1 1 1 1 1 1 1 1 1 1 1 1 1 1 1 1 1 1 1 1 1 1 1 1 1 1 1 1 2 3 6 19 53 104 107 60 26 12 6 3 2 1 1 1 1 1 1 1 1 1 1 1 1 1 1 1 1 1 1 1 1 1 1 1 1 1 1 1 1 1 1 1 1 5 16 48 98 
105 58 27 16 13 12 12 12 12 12 12 12 12 12 12 12 12 12 12 12 12 12 12 12 12 12 12 12 12 12 12 12 12 12 12 12 12 12 12 12 12 12 12 12 12 12 12 12 12 12 12 12 12 12 12 12 12 12 12 12 12 12 13 16 28 59 107 108 61 30 18 14 13 12 12 12 12 12 12 12 12 12 12 12 12 12 12 12 12 12 12 12 12 12 12 12 12 12 12 12 12 12 12 12 12 13 16 27 58 105 
125 85 58 48 46 45 45 45 45 45 45 45 45 45 45 45 45 45 45 45 45 45 45 45 45 45 45 45 45 45 45 44 44 44 44 44 45 45 45 45 45 45 45 45 45 45 45 45 44 44 44 44 45 45 45 45 45 45 45 45 45 45 46 48 58 85 124 124 86 59 49 46 45 45 45 45 45 45 45 45 45 45 45 45 45 45 45 45 45 45 44 44 44 44 44 45 45 45 45 45 45 45 44 44 44 45 48 58 85 125 
153 125 105 98 96 96 95 95 95 95 95 95 95 95 95 95 95 95 95 95 95 95 95 95 95 95 95 95 96 96 97 99 102 103 101 98 96 96 95 95 95 95 95 95 95 95 96 97 100 103 103 99 97 96 95 95 95 95 95 95 95 96 96 98 104 119 139 139 119 104 98 96 96 95 95 95 95 95 95 95 95 95 95 95 95 95 95 95 96 96 98 101 103 101 98 96 96 95 95 95 96 96 98 101 103 102 101 106 125 153 
