P2
110 110
255
149 126 107 99 96 95 95 95 95 95 95 95 95 95 95 95 95 95 95 95 95 95 95 95 95 95 95 95 96 100 108 122 134 134 121 107 99 96 95 95 95 95 95 95 95 96 98 105 120 135 134 119 105 98 96 95 95 95 95 95 95 95 95 95 96 98 101 101 98 96 95 95 95 95 95 95 95 95 95 95 95 95 95 95 95 95 95 95 98 104 117 132 136 123 109 100 96 95 95 95 97 102 114 130 136 126 114 113 128 150 
126 94 68 56 52 51 51 51 51 51 51 51 51 51 51 51 51 51 51 51 51 51 51 51 51 51 51 52 55 64 82 111 130 118 90 68 57 53 51 51 51 51 51 51 51 53 57 70 98 128 126 93 68 56 52 51 51 51 51 51 51 51 51 50 50 49 49 49 49 50 50 51 51 51 51 51 51 51 51 51 51 51 51 51 51 51 51 53 58 71 97 126 125 97 71 58 53 51 51 52 55 66 89 120 129 103 79 76 96 127 
107 68 37 24 19 18 18 18 18 18 18 18 18 18 18 18 18 18 18 18 18 18 18 18 18 18 19 21 27 42 71 105 112 83 50 31 22 19 18 18 18 18 18 18 18 20 27 44 79 117 109 67 37 24 19 18 18 18 18 18 18 18 18 18 17 17 17 17 17 17 18 18 18 18 18 18 18 18 18 18 18 18 18 18 18 18 19 21 29 49 85 114 99 61 35 23 19 18 18 19 24 38 68 107 109 73 46 44 70 108 
99 56 24 10 5 4 4 4 4 4 4 4 4 4 4 4 4 4 4 4 4 4 4 4 4 4 6 10 22 46 82 106 90 53 25 11 6 4 4 4 4 4 4 4 5 8 17 39 80 118 102 54 23 10 5 4 4 4 4 4 4 4 4 4 4 4 3 3 4 4 4 4 4 4 4 4 4 4 4 4 4 4 4 4 4 4 5 9 21 48 89 106 75 37 16 8 5 4 4 6 12 29 65 103 95 54 28 29 57 99 
96 52 19 5 1 0 0 0 0 0 0 0 0 0 0 0 0 0 0 0 0 0 0 0 0 1 4 12 32 65 99 98 64 30 11 3 1 0 0 0 0 0 0 0 2 6 20 49 95 127 101 50 18 5 1 0 0 0 0 0 0 0 0 0 0 0 0 0 0 0 0 0 0 0 0 0 0 0 0 0 0 0 0 0 0 0 2 8 24 58 97 96 57 23 7 2 0 0 0 3 10 32 72 104 83 41 20 24 53 96 
95 51 18 4 0 0 -1 -1 -1 -1 -1 -1 -1 -1 -1 -1 -1 -1 -1 -1 -1 -1 -1 -1 0 1 7 22 51 89 102 76 40 15 4 0 0 -1 -1 -1 -1 -1 -1 0 2 11 31 69 115 134 102 50 18 4 0 0 -1 -1 -1 -1 -1 -1 -1 -1 -1 -1 -1 -1 -1 -1 -1 -1 -1 -1 -1 -1 -1 -1 -1 -1 -1 -1 -1 -1 -1 0 2 11 34 73 103 83 41 15 3 0 0 0 0 3 13 39 82 103 70 32 15 21 52 95 
95 51 18 4 0 -1 -1 -1 -1 -1 -1 -1 -1 -1 -1 -1 -1 -1 -1 -1 -1 -1 -1 -1 0 4 16 40 76 102 88 51 22 7 1 0 -1 -1 -1 -1 -1 -1 0 0 5 19 48 91 127 135 104 53 19 5 0 -1 -1 -1 -1 -1 -1 -1 -1 -1 -1 -1 -1 -1 -1 -1 -1 -1 -1 -1 -1 -1 -1 -1 -1 -1 -1 -1 -1 -1 -1 0 5 18 49 89 101 66 29 9 1 0 -1 -1 0 4 17 48 91 98 59 24 12 20 51 95 
95 51 18 4 0 -1 -1 -1 -1 -1 -1 -1 -1 -1 -1 -1 -1 -1 -1 -1 -1 -1 -1 0 2 11 30 64 97 97 64 30 11 2 0 -1 -1 -1 -1 -1 -1 -1 0 2 12 33 70 108 124 127 107 60 23 6 0 -1 -1 -1 -1 -1 -1 -1 -1 -1 -1 -1 -1 -1 -1 -1 -1 -1 -1 -1 -1 -1 -1 -1 -1 -1 -1 -1 -1 -1 0 1 9 29 66 101 89 48 18 5 0 -1 -1 -1 0 6 23 58 98 91 49 19 10 19 51 95 
95 51 18 4 0 -1 -1 -1 -1 -1 -1 -1 -1 -1 -1 -1 -1 -1 -1 -1 -1 -1 0 1 7 22 51 88 102 76 40 15 4 0 -1 -1 -1 -1 -1 -1 -1 0 1 7 22 53 92 111 106 110 109 70 30 9 1 0 -1 -1 -1 -1 -1 -1 -1 -1 -1 -1 -1 -1 -1 -1 -1 -1 -1 -1 -1 -1 -1 -1 -1 -1 -1 -1 -1 -1 0 3 14 41 83 102 73 33 11 2 0 -1 -1 0 1 9 30 70 102 82 39 14 8 19 51 95 
95 51 18 4 0 -1 -1 -1 -1 -1 -1 -1 -1 -1 -1 -1 -1 -1 -1 -1 -1 -1 0 4 15 40 76 102 88 51 22 7 1 0 -1 -1 -1 -1 -1 -1 -1 0 4 15 40 77 104 96 79 90 107 81 37 12 2 0 -1 -1 -1 -1 -1 -1 -1 -1 -1 -1 -1 -1 -1 -1 -1 -1 -1 -1 -1 -1 -1 -1 -1 -1 -1 -1 -1 -1 0 6 22 56 96 96 56 22 6 0 -1 -1 -1 0 2 13 39 82 102 70 30 10 7 18 51 95 
95 51 18 4 0 -1 -1 -1 -1 -1 -1 -1 -1 -1 -1 -1 -1 -1 -1 -1 -1 0 2 11 30 64 97 97 64 30 11 2 0 -1 -1 -1 -1 -1 -1 -1 0 2 9 29 63 97 99 71 55 73 103 88 44 15 3 0 -1 -1 -1 -1 -1 -1 -1 -1 -1 -1 -1 -1 -1 -1 -1 -1 -1 -1 -1 -1 -1 -1 -1 -1 -1 -1 -1 0 2 11 33 73 102 83 41 14 3 0 -1 -1 -1 0 4 17 48 91 98 58 23 7 6 18 51 95 
96 53 19 4 0 -1 -1 -1 -1 -1 -1 -1 -1 -1 -1 -1 -1 -1 -1 -1 0 1 7 22 51 88 102 76 40 15 4 0 -1 -1 -1 -1 -1 -1 -1 -1 0 5 18 47 86 103 79 47 38 61 98 92 48 17 3 0 -1 -1 -1 -1 -1 -1 -1 -1 -1 -1 -1 -1 -1 -1 -1 -1 -1 -1 -1 -1 -1 -1 -1 -1 -1 -1 -1 0 5 18 48 89 101 66 29 9 1 0 -1 -1 -1 0 6 23 58 98 91 48 18 5 5 18 51 95 
99 57 22 6 0 -1 -1 -1 -1 -1 -1 -1 -1 -1 -1 -1 -1 -1 -1 -1 0 4 15 40 76 102 88 51 22 7 1 0 -1 -1 -1 -1 -1 -1 -1 0 2 11 32 69 101 91 55 29 27 54 95 95 51 18 4 0 -1 -1 -1 -1 -1 -1 -1 -1 -1 -1 -1 -1 -1 -1 -1 -1 -1 -1 -1 -1 -1 -1 -1 -1 -1 -1 0 1 9 29 66 101 89 48 18 5 0 -1 -1 -1 0 1 9 30 70 102 82 39 13 4 5 18 50 95 
107 67 29 10 2 0 -1 -1 -1 -1 -1 -1 -1 -1 -1 -1 -1 -1 -1 0 2 11 30 64 97 97 64 30 11 2 0 -1 -1 -1 -1 -1 -1 -1 -1 0 5 20 49 89 101 71 35 17 21 50 93 97 55 20 5 0 -1 -1 -1 -1 -1 -1 -1 -1 -1 -1 -1 -1 -1 -1 -1 -1 -1 -1 -1 -1 -1 -1 -1 -1 -1 -1 0 3 14 41 83 102 73 33 11 2 0 -1 -1 -1 0 2 13 39 82 102 70 30 9 3 4 17 50 97 
120 87 46 20 7 1 0 -1 -1 -1 -1 -1 -1 -1 -1 -1 -1 -1 0 1 7 22 51 88 102 76 40 15 4 0 -1 -1 -1 -1 -1 -1 -1 -1 0 2 12 33 70 101 89 50 21 10 17 45 88 100 61 24 6 0 -1 -1 -1 -1 -1 -1 -1 -1 -1 -1 -1 -1 -1 -1 -1 -1 -1 -1 -1 -1 -1 -1 -1 -1 -1 -1 0 6 22 56 96 96 56 22 6 0 -1 -1 -1 -1 0 4 17 48 91 98 58 23 6 2 4 17 49 99 
133 114 74 39 17 5 0 0 -1 -1 -1 -1 -1 -1 -1 -1 -1 -1 0 4 15 40 76 102 88 51 22 7 1 0 -1 -1 -1 -1 -1 -1 -1 0 1 7 22 53 91 101 69 32 12 6 13 38 81 103 70 30 9 1 0 -1 -1 -1 -1 -1 -1 -1 -1 -1 -1 -1 -1 -1 -1 -1 -1 -1 -1 -1 -1 -1 -1 -1 -1 0 2 11 33 73 102 83 41 14 3 0 -1 -1 -1 -1 0 6 23 58 98 91 48 17 4 1 4 16 48 100 
135 130 105 69 35 14 4 0 -1 -1 -1 -1 -1 -1 -1 -1 -1 0 2 11 30 64 97 97 64 30 11 2 0 -1 -1 -1 -1 -1 -1 -1 -1 0 4 15 40 77 102 86 47 19 6 3 9 30 70 103 80 37 12 2 0 -1 -1 -1 -1 -1 -1 -1 -1 -1 -1 -1 -1 -1 -1 -1 -1 -1 -1 -1 -1 -1 -1 -1 -1 0 5 18 48 89 101 66 29 9 1 0 -1 -1 -1 0 1 9 30 70 102 82 39 13 3 0 4 17 49 100 
125 120 114 97 62 29 11 2 0 -1 -1 -1 -1 -1 -1 -1 0 1 7 22 51 88 102 76 40 15 4 0 -1 -1 -1 -1 -1 -1 -1 -1 0 2 9 29 63 97 97 63 29 10 2 1 7 24 61 100 88 44 15 3 0 -1 -1 -1 -1 -1 -1 -1 -1 -1 -1 -1 -1 -1 -1 -1 -1 -1 -1 -1 -1 -1 -1 -1 0 1 9 29 66 101 89 48 18 5 0 -1 -1 -1 -1 0 2 13 39 82 102 70 30 9 1 0 4 17 49 99 
112 96 98 106 88 52 23 8 2 0 -1 -1 -1 -1 -1 -1 0 4 15 40 76 102 88 51 22 7 1 0 -1 -1 -1 -1 -1 -1 -1 -1 0 5 18 47 86 102 77 40 15 4 0 0 5 20 55 97 92 48 17 3 0 -1 -1 -1 -1 -1 -1 -1 -1 -1 -1 -1 -1 -1 -1 -1 -1 -1 -1 -1 -1 -1 -1 -1 0 3 14 41 83 102 73 33 11 2 0 -1 -1 -1 -1 0 4 17 48 91 98 58 23 6 0 0 4 17 50 97 
103 76 72 93 103 79 45 20 7 1 0 -1 -1 -1 -1 0 2 11 30 64 97 97 64 30 11 2 0 -1 -1 -1 -1 -1 -1 -1 -1 0 2 11 32 69 101 91 53 22 7 1 0 0 4 18 51 95 95 51 18 4 0 -1 -1 -1 -1 -1 -1 -1 -1 -1 -1 -1 -1 -1 -1 -1 -1 -1 -1 -1 -1 -1 -1 -1 0 6 22 56 96 96 56 22 6 0 -1 -1 -1 -1 -1 0 6 23 58 98 91 48 17 4 0 0 4 18 50 96 
98 64 50 68 96 101 74 42 19 7 1 0 -1 -1 0 1 7 22 51 88 102 76 40 15 4 0 -1 -1 -1 -1 -1 -1 -1 -1 -1 0 5 20 49 89 101 70 33 12 2 0 0 0 3 17 48 92 97 55 20 5 0 -1 -1 -1 -1 -1 -1 -1 -1 -1 -1 -1 -1 -1 -1 -1 -1 -1 -1 -1 -1 -1 -1 0 2 11 33 73 102 83 41 14 3 0 -1 -1 -1 -1 0 1 9 30 70 102 82 39 13 2 0 0 4 18 51 95 
96 57 34 42 71 98 99 73 41 19 7 1 0 0 0 4 15 40 76 102 88 51 22 7 1 0 -1 -1 -1 -1 -1 -1 -1 -1 0 2 12 33 70 101 89 49 20 5 0 -1 -1 0 3 15 44 88 100 61 24 6 0 -1 -1 -1 -1 -1 -1 -1 -1 -1 -1 -1 -1 -1 -1 -1 -1 -1 -1 -1 -1 -1 -1 0 5 18 48 89 101 66 29 9 1 0 -1 -1 -1 -1 0 2 13 39 82 102 70 30 9 1 0 0 4 18 51 95 
95 53 25 23 41 72 99 99 72 41 19 7 2 0 3 11 30 64 97 97 64 30 11 2 0 -1 -1 -1 -1 -1 -1 -1 -1 0 1 7 22 53 91 101 69 32 11 2 0 -1 -1 0 2 12 37 80 103 70 30 9 1 0 -1 -1 -1 -1 -1 -1 -1 -1 -1 -1 -1 -1 -1 -1 -1 -1 -1 -1 -1 -1 0 1 9 29 66 101 89 48 18 5 0 -1 -1 -1 -1 -1 0 4 17 48 91 98 58 23 6 0 0 0 4 18 51 95 
95 52 21 12 20 41 72 99 99 72 41 19 8 4 8 22 51 88 102 76 40 15 4 0 -1 -1 -1 -1 -1 -1 -1 -1 -1 0 4 15 40 77 102 86 47 18 5 0 -1 -1 -1 0 1 9 30 70 103 81 38 12 2 0 -1 -1 -1 -1 -1 -1 -1 -1 -1 -1 -1 -1 -1 -1 -1 -1 -1 -1 -1 -1 0 3 14 41 83 102 73 33 11 2 0 -1 -1 -1 -1 -1 0 6 23 58 98 91 48 17 4 0 0 0 4 18 51 95 
95 51 19 7 8 19 41 72 99 99 73 42 21 13 19 41 77 102 88 51 22 7 1 0 -1 -1 -1 -1 -1 -1 -1 -1 0 2 9 29 63 97 97 63 29 9 2 0 -1 -1 -1 -1 0 6 24 61 100 88 44 15 3 0 -1 -1 -1 -1 -1 -1 -1 -1 -1 -1 -1 -1 -1 -1 -1 -1 -1 -1 -1 -1 0 6 22 56 96 96 56 22 6 0 -1 -1 -1 -1 -1 0 1 9 30 70 102 82 39 13 2 0 -1 0 4 18 51 95 
95 51 18 5 3 7 19 41 72 99 99 74 46 32 39 67 98 97 64 30 11 2 0 -1 -1 -1 -1 -1 -1 -1 -1 -1 0 5 18 47 86 102 77 40 15 4 0 -1 -1 -1 -1 -1 0 5 20 54 96 93 49 17 4 0 -1 -1 -1 -1 -1 -1 -1 -1 -1 -1 -1 -1 -1 -1 -1 -1 -1 -1 -1 0 2 11 33 73 102 83 41 14 3 0 -1 -1 -1 -1 -1 0 2 13 39 82 102 70 30 9 1 0 -1 0 4 18 51 95 
95 51 18 4 1 2 7 19 41 72 99 101 81 65 71 95 104 76 40 15 4 0 -1 -1 -1 -1 -1 -1 -1 -1 -1 0 2 11 32 69 101 91 53 22 7 1 0 -1 -1 -1 -1 -1 0 4 17 49 93 96 54 20 5 0 -1 -1 -1 -1 -1 -1 -1 -1 -1 -1 -1 -1 -1 -1 -1 -1 -1 -1 -1 0 5 18 48 89 101 66 29 9 1 0 -1 -1 -1 -1 -1 0 4 17 48 91 98 58 23 6 0 -1 -1 0 4 18 51 95 
95 51 18 4 0 0 1 7 19 41 73 101 111 106 109 112 89 51 22 7 1 0 -1 -1 -1 -1 -1 -1 -1 -1 -1 0 5 20 49 89 101 70 33 12 2 0 -1 -1 -1 -1 -1 -1 0 3 15 44 88 100 61 24 6 0 -1 -1 -1 -1 -1 -1 -1 -1 -1 -1 -1 -1 -1 -1 -1 -1 -1 -1 0 1 9 29 66 101 89 48 18 5 0 -1 -1 -1 -1 -1 -1 0 6 23 58 98 91 48 17 4 0 -1 -1 0 4 18 51 95 
95 51 18 4 0 0 0 1 7 19 42 75 111 133 132 106 65 30 11 2 0 -1 -1 -1 -1 -1 -1 -1 -1 -1 0 2 12 33 70 101 89 49 20 5 0 -1 -1 -1 -1 -1 -1 -1 0 2 12 38 81 103 70 30 9 1 0 -1 -1 -1 -1 -1 -1 -1 -1 -1 -1 -1 -1 -1 -1 -1 -1 -1 0 3 14 41 83 102 73 33 11 2 0 -1 -1 -1 -1 -1 0 1 9 30 70 102 82 39 13 2 0 -1 -1 0 4 18 51 95 
95 51 18 4 0 -1 -1 0 1 7 20 46 87 127 128 86 43 16 4 0 -1 -1 -1 -1 -1 -1 -1 -1 -1 0 1 7 22 53 91 101 69 32 11 2 0 -1 -1 -1 -1 -1 -1 -1 0 1 9 30 70 103 80 37 12 2 0 -1 -1 -1 -1 -1 -1 -1 -1 -1 -1 -1 -1 -1 -1 -1 -1 -1 0 6 22 56 96 96 56 22 6 0 -1 -1 -1 -1 -1 -1 0 2 13 39 82 102 70 30 9 1 0 -1 -1 0 4 18 51 95 
95 51 18 4 0 -1 -1 -1 0 2 10 28 64 109 114 70 30 10 2 0 -1 -1 -1 -1 -1 -1 -1 -1 -1 0 4 15 40 77 102 86 47 18 5 0 -1 -1 -1 -1 -1 -1 -1 -1 -1 0 6 24 61 100 88 44 15 3 0 -1 -1 -1 -1 -1 -1 -1 -1 -1 -1 -1 -1 -1 -1 -1 -1 0 2 11 33 73 102 83 41 14 3 0 -1 -1 -1 -1 -1 -1 0 4 17 48 91 98 58 23 6 0 -1 -1 -1 0 4 18 51 95 
95 51 18 4 0 -1 -1 -1 -1 0 5 18 50 94 106 67 27 8 1 0 -1 -1 -1 -1 -1 -1 -1 -1 0 2 9 29 63 97 97 63 29 9 2 0 -1 -1 -1 -1 -1 -1 -1 -1 -1 0 5 20 55 97 92 48 17 3 0 -1 -1 -1 -1 -1 -1 -1 -1 -1 -1 -1 -1 -1 -1 -1 -1 0 5 18 48 89 101 66 29 9 1 0 -1 -1 -1 -1 -1 -1 0 6 23 58 98 91 48 17 4 0 -1 -1 -1 0 4 18 51 95 
95 51 18 4 0 -1 -1 -1 -1 0 3 13 39 82 104 72 31 9 1 0 -1 -1 -1 -1 -1 -1 -1 -1 0 5 18 47 86 102 77 40 15 4 0 -1 -1 -1 -1 -1 -1 -1 -1 -1 -1 0 4 18 51 95 95 51 18 4 0 -1 -1 -1 -1 -1 -1 -1 -1 -1 -1 -1 -1 -1 -1 -1 0 1 9 29 66 101 89 48 18 5 0 -1 -1 -1 -1 -1 -1 0 1 9 30 70 102 82 39 13 2 0 -1 -1 -1 0 4 18 51 95 
95 51 18 4 0 -1 -1 -1 -1 0 1 9 30 71 103 81 38 12 2 0 -1 -1 -1 -1 -1 -1 -1 0 2 11 32 69 101 91 53 22 7 1 0 -1 -1 -1 -1 -1 -1 -1 -1 -1 -1 0 3 17 48 92 97 55 20 5 0 -1 -1 -1 -1 -1 -1 -1 -1 -1 -1 -1 -1 -1 -1 -1 0 3 14 41 83 102 73 33 11 2 0 -1 -1 -1 -1 -1 -1 0 2 13 39 82 102 70 30 9 1 0 -1 -1 -1 0 4 18 51 95 
95 50 18 4 0 -1 -1 -1 -1 -1 0 6 24 60 99 89 45 16 3 0 -1 -1 -1 -1 -1 -1 -1 0 5 20 49 89 101 70 33 12 2 0 -1 -1 -1 -1 -1 -1 -1 -1 -1 -1 -1 0 3 15 44 88 100 61 24 6 0 -1 -1 -1 -1 -1 -1 -1 -1 -1 -1 -1 -1 -1 -1 -1 0 6 22 56 96 96 56 22 6 0 -1 -1 -1 -1 -1 -1 -1 0 4 17 48 91 98 58 23 6 0 -1 -1 -1 -1 0 4 18 52 96 
95 50 17 4 0 -1 -1 -1 -1 -1 0 4 19 52 95 95 52 19 4 0 -1 -1 -1 -1 -1 -1 0 2 12 33 70 101 89 49 20 5 0 -1 -1 -1 -1 -1 -1 -1 -1 -1 -1 -1 -1 0 2 12 37 80 103 70 30 9 1 0 -1 -1 -1 -1 -1 -1 -1 -1 -1 -1 -1 -1 -1 0 2 11 33 73 102 83 41 14 3 0 -1 -1 -1 -1 -1 -1 -1 0 6 23 58 98 91 48 17 4 0 -1 -1 -1 -1 0 5 20 55 98 
96 49 17 4 0 -1 -1 -1 -1 -1 0 3 15 45 89 99 60 23 6 0 -1 -1 -1 -1 -1 0 1 7 22 53 91 101 69 32 11 2 0 -1 -1 -1 -1 -1 -1 -1 -1 -1 -1 -1 -1 0 1 9 30 70 103 80 37 12 2 0 -1 -1 -1 -1 -1 -1 -1 -1 -1 -1 -1 -1 -1 0 5 18 48 89 101 66 29 9 1 0 -1 -1 -1 -1 -1 -1 0 1 9 30 70 102 82 39 13 2 0 -1 -1 -1 0 1 7 25 62 104 
97 49 17 4 0 -1 -1 -1 -1 -1 0 2 12 38 81 103 70 30 9 1 0 -1 -1 -1 -1 0 4 15 40 77 102 86 47 18 5 0 -1 -1 -1 -1 -1 -1 -1 -1 -1 -1 -1 -1 -1 -1 0 6 24 61 100 88 44 15 3 0 -1 -1 -1 -1 -1 -1 -1 -1 -1 -1 -1 -1 0 1 9 29 66 101 89 48 18 5 0 -1 -1 -1 -1 -1 -1 -1 0 2 13 39 82 102 70 30 9 1 0 -1 -1 -1 0 3 12 34 76 114 
99 48 16 3 0 -1 -1 -1 -1 -1 0 1 9 30 70 103 81 38 12 2 0 -1 -1 -1 0 2 9 29 63 97 97 63 29 9 2 0 -1 -1 -1 -1 -1 -1 -1 -1 -1 -1 -1 -1 -1 -1 0 5 20 55 97 92 48 17 3 0 -1 -1 -1 -1 -1 -1 -1 -1 -1 -1 -1 -1 0 3 14 41 83 102 73 33 11 2 0 -1 -1 -1 -1 -1 -1 -1 0 4 17 48 91 98 58 23 6 0 -1 -1 -1 0 1 7 22 52 97 126 
100 48 16 3 0 -1 -1 -1 -1 -1 -1 0 6 23 60 99 89 45 15 3 0 -1 -1 -1 0 5 18 47 86 102 77 40 15 4 0 -1 -1 -1 -1 -1 -1 -1 -1 -1 -1 -1 -1 -1 -1 -1 0 4 18 51 95 95 51 18 4 0 -1 -1 -1 -1 -1 -1 -1 -1 -1 -1 -1 -1 0 6 22 56 96 96 56 22 6 0 -1 -1 -1 -1 -1 -1 -1 -1 0 6 23 58 98 91 48 17 4 0 -1 -1 -1 0 4 15 39 77 119 135 
99 49 17 4 0 -1 -1 -1 -1 -1 -1 0 4 19 52 95 95 52 19 4 0 -1 -1 0 2 11 32 69 101 91 53 22 7 1 0 -1 -1 -1 -1 -1 -1 -1 -1 -1 -1 -1 -1 -1 -1 -1 0 3 17 48 92 97 55 20 5 0 -1 -1 -1 -1 -1 -1 -1 -1 -1 -1 -1 0 2 11 33 73 102 83 41 14 3 0 -1 -1 -1 -1 -1 -1 -1 0 1 9 30 70 102 82 39 13 2 0 -1 -1 0 2 10 29 63 103 129 133 
98 49 17 4 0 -1 -1 -1 -1 -1 -1 0 3 15 45 89 99 60 23 6 0 0 0 0 5 20 49 89 101 70 33 12 2 0 -1 -1 -1 -1 -1 -1 -1 -1 -1 -1 -1 -1 -1 -1 -1 -1 0 3 15 44 88 100 61 24 7 0 0 -1 -1 -1 -1 -1 -1 -1 -1 -1 -1 0 5 18 48 89 101 66 29 9 1 0 -1 -1 -1 -1 -1 -1 -1 0 2 13 39 82 102 70 30 9 1 0 -1 0 1 7 22 51 89 114 121 124 
97 50 17 4 0 -1 -1 -1 -1 -1 -1 0 2 12 38 81 103 70 30 9 1 0 0 2 12 33 70 101 89 49 20 5 0 -1 -1 -1 -1 -1 -1 -1 -1 -1 -1 -1 -1 -1 -1 -1 -1 -1 0 2 12 38 81 103 71 31 10 2 0 0 0 -1 -1 -1 -1 -1 -1 -1 0 1 9 29 66 101 89 48 18 5 0 -1 -1 -1 -1 -1 -1 -1 -1 0 4 17 48 91 98 58 23 6 0 -1 -1 0 4 15 40 76 105 105 102 113 
96 50 18 4 0 -1 -1 -1 -1 -1 -1 0 1 9 30 70 103 81 38 12 2 0 1 7 22 53 91 101 69 32 11 2 0 -1 -1 -1 -1 -1 -1 -1 -1 -1 -1 -1 -1 -1 -1 -1 -1 -1 0 1 10 31 72 105 85 43 18 8 4 2 1 0 0 0 0 0 0 0 0 3 15 41 83 103 73 33 11 2 0 -1 -1 -1 -1 -1 -1 -1 -1 0 6 23 58 98 91 48 17 4 0 0 0 2 11 30 64 98 102 83 82 105 
95 51 18 4 0 -1 -1 -1 -1 -1 -1 -1 0 6 23 60 99 89 45 16 4 1 4 15 40 77 102 86 47 18 5 0 -1 -1 -1 -1 -1 -1 -1 -1 -1 -1 -1 -1 -1 -1 -1 -1 -1 -1 0 2 10 29 68 108 101 61 34 21 16 12 9 6 5 4 3 3 2 2 2 8 23 57 96 96 56 22 6 0 -1 -1 -1 -1 -1 -1 -1 -1 0 1 9 30 70 102 82 39 13 2 0 0 1 7 22 51 88 103 82 60 68 100 
95 51 18 4 0 -1 -1 -1 -1 -1 -1 -1 0 4 19 52 95 95 52 19 5 3 10 29 63 97 97 63 29 9 2 0 -1 -1 -1 -1 -1 -1 -1 -1 -1 -1 -1 -1 -1 -1 -1 -1 -1 0 1 5 15 37 75 118 122 91 66 53 45 38 30 24 20 18 17 15 12 10 10 17 38 75 103 83 41 14 3 0 -1 -1 -1 -1 -1 -1 -1 -1 0 2 13 39 82 102 70 30 9 1 0 0 4 15 40 76 102 90 57 42 60 97 
95 51 18 4 0 -1 -1 -1 -1 -1 -1 -1 0 3 15 45 89 99 60 24 8 7 19 47 86 102 77 40 15 4 0 -1 -1 -1 -1 -1 -1 -1 -1 -1 -1 -1 -1 -1 -1 -1 -1 0 0 2 7 16 33 59 97 131 137 120 104 95 89 81 70 61 55 51 48 44 38 32 30 38 62 97 103 67 29 9 1 0 -1 -1 -1 -1 -1 -1 -1 -1 0 4 17 48 91 98 58 23 6 0 0 2 11 30 64 97 98 65 36 30 55 96 
95 51 18 4 0 -1 -1 -1 -1 -1 -1 -1 0 2 12 38 81 103 71 31 13 14 32 69 101 91 53 22 7 1 0 -1 -1 -1 -1 -1 -1 -1 -1 -1 -1 -1 -1 -1 -1 -1 0 1 4 11 22 40 65 92 113 120 113 104 99 98 100 103 103 100 97 95 92 88 81 72 68 76 98 117 96 51 20 5 0 -1 -1 -1 -1 -1 -1 -1 -1 -1 0 6 23 58 98 91 48 17 4 0 1 7 22 51 88 102 77 41 21 24 53 95 
95 51 18 4 0 -1 -1 -1 -1 -1 -1 -1 0 1 9 30 70 103 81 40 20 24 50 89 101 70 33 12 2 0 -1 -1 -1 -1 -1 -1 -1 -1 -1 -1 -1 -1 -1 -1 0 0 2 7 15 30 51 76 98 104 94 77 62 55 53 55 61 70 80 88 92 95 97 100 103 105 107 116 132 129 88 42 15 3 0 -1 -1 -1 -1 -1 -1 -1 -1 0 1 9 30 70 102 82 39 13 3 1 4 15 40 76 102 88 51 23 13 21 52 95 
95 51 18 4 0 -1 -1 -1 -1 -1 -1 -1 -1 0 6 23 60 99 90 50 29 39 72 102 89 49 20 5 0 -1 -1 -1 -1 -1 -1 -1 -1 -1 -1 -1 -1 -1 -1 0 0 4 10 22 40 64 88 102 98 77 54 35 25 20 19 20 24 30 37 44 48 51 55 61 71 83 95 111 130 129 89 44 16 5 0 0 -1 -1 -1 -1 -1 -1 -1 0 3 13 39 82 103 70 30 9 2 3 11 30 64 97 97 64 30 12 8 19 51 95 
95 51 18 4 0 -1 -1 -1 -1 -1 -1 -1 -1 0 4 19 52 95 97 61 44 60 92 101 69 32 11 2 0 -1 -1 -1 -1 -1 -1 -1 -1 -1 -1 -1 -1 -1 0 1 6 14 29 51 76 97 102 88 64 40 23 12 7 5 4 5 6 9 12 15 17 18 20 24 30 39 51 68 95 116 99 58 27 10 4 1 0 0 0 0 0 0 0 1 5 19 49 92 99 59 23 7 3 7 22 51 88 102 76 40 16 6 6 18 51 95 
95 51 18 4 0 -1 -1 -1 -1 -1 -1 -1 -1 0 3 15 45 89 104 78 66 85 104 86 47 18 5 0 -1 -1 -1 -1 -1 -1 -1 -1 -1 -1 -1 -1 0 0 2 8 18 37 62 88 102 97 76 51 30 16 7 3 1 0 0 0 0 1 2 3 3 4 5 6 9 13 20 33 58 93 107 83 48 25 13 7 5 4 4 4 4 4 4 6 12 28 63 101 93 50 19 6 6 16 40 76 102 88 51 22 7 2 5 18 51 95 
95 51 18 4 0 -1 -1 -1 -1 -1 -1 -1 -1 0 2 12 37 81 110 100 94 106 98 63 28 9 2 0 -1 -1 -1 -1 -1 -1 -1 -1 -1 -1 -1 0 1 4 11 23 43 71 96 102 89 64 40 22 11 4 1 0 0 -1 -1 -1 -1 0 0 0 0 0 0 0 1 3 6 14 32 66 102 109 84 55 36 26 21 19 18 18 18 18 18 21 28 47 83 111 89 45 18 9 13 31 64 97 97 64 30 11 3 1 4 18 51 95 
95 51 18 4 0 -1 -1 -1 -1 -1 -1 -1 -1 0 1 9 29 70 112 122 119 109 77 39 15 4 0 -1 -1 -1 -1 -1 -1 -1 -1 -1 -1 0 0 2 7 16 30 52 79 100 100 79 52 30 16 7 2 0 0 -1 -1 -1 -1 -1 -1 -1 -1 -1 -1 -1 -1 -1 0 0 1 5 17 43 85 121 122 99 77 63 55 52 51 51 51 51 52 54 62 82 112 124 92 49 24 17 26 53 89 102 76 40 15 4 0 0 4 18 51 95 
95 51 18 4 0 -1 -1 -1 -1 -1 -1 -1 -1 -1 0 6 23 59 109 135 126 93 52 22 7 1 0 -1 -1 -1 -1 -1 -1 -1 -1 -1 0 1 4 10 22 40 64 89 103 96 71 43 23 11 4 1 0 -1 -1 -1 -1 -1 -1 -1 -1 -1 -1 -1 -1 -1 -1 -1 -1 -1 0 2 10 30 70 119 138 126 111 102 98 96 95 95 95 95 95 97 103 116 134 135 106 68 44 37 50 81 104 89 51 22 7 1 0 0 4 18 51 95 
95 51 18 4 0 -1 -1 -1 -1 -1 -1 -1 -1 -1 0 4 19 53 104 135 115 70 32 11 2 0 -1 -1 -1 -1 -1 -1 -1 -1 0 0 2 7 15 30 51 76 98 102 88 62 37 18 8 2 0 0 -1 -1 -1 -1 -1 -1 -1 -1 -1 -1 -1 -1 -1 -1 -1 -1 -1 -1 0 1 8 27 66 113 124 105 94 92 93 94 94 95 95 95 95 95 98 103 113 121 117 99 81 75 88 108 102 66 31 11 2 0 0 0 4 18 51 95 
95 51 18 4 0 -1 -1 -1 -1 -1 -1 -1 -1 -1 0 4 17 50 101 126 94 48 19 5 0 -1 -1 -1 -1 -1 -1 -1 0 0 1 4 10 21 39 63 89 103 98 77 52 30 15 6 1 0 -1 -1 -1 -1 -1 -1 -1 -1 -1 -1 -1 -1 -1 -1 -1 -1 -1 -1 -1 -1 0 1 9 31 72 109 98 67 51 48 49 50 50 51 51 51 51 51 52 54 62 76 93 105 111 115 125 123 89 46 18 5 0 0 -1 0 4 18 51 95 
95 51 18 4 0 -1 -1 -1 -1 -1 -1 -1 -1 -1 0 4 17 50 98 114 74 33 11 2 0 -1 -1 -1 -1 -1 0 0 1 4 8 15 28 49 76 100 108 94 69 44 25 13 5 2 0 0 -1 -1 -1 -1 -1 -1 -1 -1 -1 -1 -1 -1 -1 -1 -1 -1 -1 -1 -1 -1 0 2 12 38 81 105 77 41 23 18 17 17 18 18 18 18 18 18 18 20 24 34 50 71 94 118 136 126 82 39 14 3 0 -1 -1 0 4 18 51 95 
95 51 18 4 0 -1 -1 -1 -1 -1 -1 -1 -1 -1 0 4 18 51 97 103 61 24 7 0 0 -1 -1 -1 0 0 2 5 9 15 25 40 63 91 116 120 100 72 48 30 18 10 6 3 1 0 0 0 0 0 -1 -1 -1 -1 -1 -1 -1 -1 -1 -1 -1 -1 -1 -1 -1 -1 0 3 15 44 88 101 63 27 10 5 4 4 4 4 4 4 4 4 4 5 7 11 20 33 53 82 113 121 89 46 18 5 0 0 -1 0 4 18 51 95 
95 51 18 4 0 -1 -1 -1 -1 -1 -1 -1 -1 -1 0 5 20 55 98 96 52 19 5 0 0 0 0 0 2 5 10 18 29 42 59 80 105 127 137 126 100 76 58 44 33 24 18 13 9 6 4 3 2 1 0 0 0 0 -1 -1 -1 -1 -1 -1 -1 -1 -1 -1 -1 -1 0 4 17 49 93 97 55 21 6 1 0 0 0 0 0 0 0 0 0 0 0 2 5 12 23 44 76 106 102 66 31 11 2 0 0 0 4 18 51 95 
95 51 18 4 0 -1 -1 -1 -1 -1 -1 -1 -1 -1 0 6 24 61 100 89 45 16 4 0 0 1 3 6 11 19 32 48 66 84 98 109 115 119 122 120 112 102 93 83 70 59 48 39 30 24 19 15 12 9 6 4 2 1 0 0 0 0 0 -1 -1 -1 -1 -1 -1 -1 0 5 20 54 96 93 49 17 4 0 -1 -1 -1 -1 -1 -1 -1 -1 -1 -1 -1 0 0 3 8 20 44 80 104 89 51 22 7 1 0 0 4 18 51 95 
95 51 18 4 0 -1 -1 -1 -1 -1 -1 -1 -1 0 1 9 30 70 103 81 38 13 4 3 5 9 14 22 34 50 69 88 101 103 97 86 76 71 74 83 90 96 100 103 103 98 91 82 71 60 52 45 38 30 23 17 13 9 6 4 3 2 1 0 0 0 0 -1 -1 0 0 6 24 61 100 88 44 15 3 0 -1 -1 -1 -1 -1 -1 -1 -1 -1 -1 -1 -1 0 0 2 8 23 52 89 102 76 40 16 4 0 0 4 18 51 95 
95 51 18 4 0 -1 -1 -1 -1 -1 -1 -1 -1 0 2 12 38 81 103 71 32 13 8 11 18 28 41 56 73 90 101 101 90 73 57 43 33 29 31 38 45 52 60 71 82 91 98 102 103 99 95 89 81 70 58 48 39 30 24 19 15 12 9 6 4 2 1 0 0 0 2 10 31 71 103 81 38 12 2 0 -1 -1 -1 -1 -1 -1 -1 -1 -1 -1 -1 -1 -1 -1 0 3 11 30 64 97 97 64 30 11 3 1 4 18 51 95 
95 51 18 4 0 -1 -1 -1 -1 -1 -1 -1 -1 0 3 15 45 89 101 65 31 19 21 32 48 66 83 96 103 100 88 69 50 34 22 15 10 9 9 12 15 19 23 30 39 48 58 70 81 89 95 99 103 102 98 91 82 71 60 52 45 38 30 23 17 13 9 6 5 4 6 15 40 82 103 70 30 9 1 0 -1 -1 -1 -1 -1 -1 -1 -1 -1 -1 -1 -1 -1 -1 -1 0 4 16 40 76 102 89 52 23 8 3 5 18 51 95 
95 51 18 4 0 -1 -1 -1 -1 -1 -1 -1 -1 0 5 19 52 96 102 66 41 39 51 70 88 100 103 96 83 66 48 32 19 11 6 3 2 1 1 2 3 4 6 9 13 17 23 30 38 45 52 60 71 82 91 98 102 103 99 95 89 81 70 58 48 39 30 24 19 17 17 26 52 92 101 61 24 6 0 -1 -1 -1 -1 -1 -1 -1 -1 -1 -1 -1 -1 -1 -1 -1 -1 0 1 7 22 51 88 102 79 43 19 7 6 18 51 95 
95 51 18 4 0 -1 -1 -1 -1 -1 -1 -1 -1 0 7 24 61 105 110 82 68 75 90 101 101 90 73 56 41 28 18 10 5 2 0 0 0 0 0 0 0 0 0 1 2 4 6 9 12 15 19 24 30 39 48 58 70 81 89 95 99 103 102 98 91 82 71 60 53 47 43 48 71 104 99 54 20 5 0 -1 -1 -1 -1 -1 -1 -1 -1 -1 -1 -1 -1 -1 -1 -1 -1 -1 0 2 10 29 62 96 100 71 37 16 10 20 51 95 
95 51 18 4 0 -1 -1 -1 -1 -1 -1 -1 0 2 11 33 75 120 126 109 103 104 102 89 70 50 34 22 14 9 4 2 0 0 -1 -1 -1 -1 -1 -1 -1 -1 -1 0 0 0 0 1 2 3 4 6 9 13 17 23 30 38 45 52 60 71 82 91 98 102 103 99 95 90 86 87 102 121 100 51 18 4 0 -1 -1 -1 -1 -1 -1 -1 -1 -1 -1 -1 -1 -1 -1 -1 -1 -1 -1 0 4 14 37 71 100 96 63 31 17 22 52 95 
95 51 18 4 0 -1 -1 -1 -1 -1 -1 -1 0 5 19 49 95 132 134 119 104 89 69 49 32 19 11 6 3 1 0 0 -1 -1 -1 -1 -1 -1 -1 -1 -1 -1 -1 -1 -1 -1 -1 0 0 0 0 0 1 2 4 6 9 12 15 19 24 30 39 48 58 70 81 89 95 100 106 115 129 135 101 49 17 4 0 -1 -1 -1 -1 -1 -1 -1 -1 -1 -1 -1 -1 -1 -1 -1 -1 -1 -1 0 0 6 18 43 79 102 88 53 29 28 54 95 
95 51 18 4 0 -1 -1 -1 -1 -1 -1 0 2 11 32 70 111 124 108 86 66 47 31 19 11 5 2 0 0 0 -1 -1 -1 -1 -1 -1 -1 -1 -1 -1 -1 -1 -1 -1 -1 -1 -1 -1 -1 -1 -1 -1 0 0 0 0 1 2 3 4 6 9 13 17 23 30 38 45 52 61 74 94 119 133 101 49 17 4 0 -1 -1 -1 -1 -1 -1 -1 -1 -1 -1 -1 -1 -1 -1 -1 -1 -1 -1 -1 0 1 8 23 52 88 103 80 49 38 59 97 
95 51 18 4 0 -1 -1 -1 -1 -1 0 1 7 22 53 92 110 92 63 43 28 18 10 5 2 0 0 -1 -1 -1 -1 -1 -1 -1 -1 -1 -1 -1 -1 -1 -1 -1 -1 -1 -1 -1 -1 -1 -1 -1 -1 -1 -1 -1 -1 -1 0 0 0 0 0 1 2 4 6 9 12 16 19 25 35 55 87 117 98 49 17 4 0 -1 -1 -1 -1 -1 -1 -1 -1 -1 -1 -1 -1 -1 -1 -1 -1 -1 -1 -1 -1 0 2 11 30 62 96 101 77 57 67 100 
96 50 18 4 0 -1 -1 -1 -1 -1 0 4 16 40 77 104 91 57 31 17 9 5 2 0 0 -1 -1 -1 -1 -1 -1 -1 -1 -1 -1 -1 -1 -1 -1 -1 -1 -1 -1 -1 -1 -1 -1 -1 -1 -1 -1 -1 -1 -1 -1 -1 -1 -1 -1 -1 -1 0 0 0 0 1 2 3 5 8 15 31 65 104 96 51 18 4 0 -1 -1 -1 -1 -1 -1 -1 -1 -1 -1 -1 -1 -1 -1 -1 -1 -1 -1 -1 -1 -1 0 4 14 37 71 100 100 81 82 105 
97 50 17 4 0 -1 -1 -1 -1 0 2 11 30 64 98 98 65 32 13 5 2 0 0 -1 -1 -1 -1 -1 -1 -1 -1 -1 -1 -1 -1 -1 -1 -1 -1 -1 -1 -1 -1 -1 -1 -1 -1 -1 -1 -1 -1 -1 -1 -1 -1 -1 -1 -1 -1 -1 -1 -1 -1 -1 -1 0 0 0 0 2 7 22 55 98 97 52 19 4 0 -1 -1 -1 -1 -1 -1 -1 -1 -1 -1 -1 -1 -1 -1 -1 -1 -1 -1 -1 -1 -1 0 0 6 18 43 79 106 105 101 113 
98 49 17 4 0 -1 -1 -1 0 2 8 23 52 89 103 78 41 17 5 1 0 0 -1 -1 -1 -1 -1 -1 -1 -1 -1 -1 -1 -1 -1 -1 -1 -1 -1 -1 -1 -1 -1 -1 -1 -1 -1 -1 -1 -1 -1 -1 -1 -1 -1 -1 -1 -1 -1 -1 -1 -1 -1 -1 -1 -1 -1 -1 0 0 5 19 52 96 99 57 22 6 1 0 -1 -1 -1 -1 -1 -1 -1 -1 -1 -1 -1 -1 -1 -1 -1 -1 -1 -1 -1 -1 -1 0 1 8 23 52 90 114 121 124 
99 49 17 4 0 -1 -1 0 1 7 19 44 79 106 93 56 26 10 3 1 0 0 0 0 0 0 0 0 0 0 -1 -1 -1 -1 -1 -1 -1 -1 -1 -1 -1 -1 -1 -1 -1 -1 -1 -1 -1 -1 -1 -1 -1 -1 -1 -1 -1 -1 -1 -1 -1 -1 -1 -1 -1 -1 -1 -1 0 1 7 21 54 99 108 68 31 12 4 0 0 -1 -1 -1 -1 -1 -1 -1 -1 -1 -1 -1 -1 -1 -1 -1 -1 -1 -1 -1 -1 -1 0 2 11 30 63 103 129 133 
100 48 16 3 0 0 0 1 6 18 40 74 107 111 81 47 25 13 8 5 4 4 4 4 4 4 3 3 2 1 0 0 0 0 0 0 0 0 0 0 0 -1 -1 -1 -1 -1 -1 -1 -1 -1 -1 -1 -1 -1 -1 -1 -1 -1 -1 -1 -1 -1 -1 -1 -1 -1 -1 0 1 5 13 31 64 108 123 90 51 26 12 5 2 0 0 -1 -1 -1 -1 -1 -1 -1 -1 -1 -1 -1 -1 -1 -1 -1 -1 -1 -1 -1 -1 0 4 15 39 77 119 135 
99 48 16 4 0 0 1 6 18 39 72 109 129 115 86 61 44 32 24 20 19 18 18 18 18 17 16 15 12 9 6 5 4 4 4 4 4 3 3 2 1 0 0 0 0 0 0 0 0 0 0 0 0 -1 -1 -1 -1 -1 -1 -1 -1 -1 -1 -1 -1 0 0 2 7 16 31 55 88 124 138 118 84 55 33 19 10 4 1 0 -1 -1 -1 -1 -1 -1 -1 -1 -1 -1 -1 -1 -1 -1 -1 -1 -1 -1 -1 0 1 7 22 52 97 126 
98 49 17 4 1 2 7 18 40 72 107 132 136 124 108 95 83 71 61 55 52 51 51 51 50 50 48 44 37 30 24 20 19 18 18 18 17 16 15 12 9 6 5 4 4 4 4 4 4 3 3 2 1 0 0 0 0 0 0 0 0 0 0 0 0 2 5 12 22 40 64 90 110 121 123 120 110 92 70 47 29 15 7 2 0 0 -1 -1 -1 -1 -1 -1 -1 -1 -1 -1 -1 -1 -1 -1 -1 -1 -1 -1 0 3 12 34 76 114 
96 50 18 5 3 7 19 41 72 102 116 114 107 102 100 101 103 103 100 97 96 95 95 95 94 94 92 88 80 70 61 55 52 51 51 50 50 48 44 37 30 24 20 19 18 18 18 18 17 16 15 12 9 6 5 4 4 4 4 4 3 3 3 3 5 10 19 33 53 77 98 104 95 82 75 81 93 103 101 86 63 40 22 12 5 2 0 0 -1 -1 -1 -1 -1 -1 -1 -1 -1 -1 -1 -1 -1 -1 -1 -1 0 1 7 25 62 104 
95 51 19 8 10 20 42 73 100 104 86 67 56 53 55 61 70 80 88 92 94 94 95 95 95 95 97 100 103 103 100 97 95 95 95 94 94 92 88 80 70 61 55 52 51 51 51 50 50 48 44 37 30 24 20 19 18 18 18 17 16 15 13 14 18 30 48 70 91 103 97 77 55 39 33 37 51 71 91 103 97 77 53 33 19 10 4 1 0 -1 -1 -1 -1 -1 -1 -1 -1 -1 -1 -1 -1 -1 -1 -1 -1 0 5 20 55 98 
96 53 24 17 25 45 74 99 100 75 47 29 21 19 20 24 30 37 44 48 50 50 51 51 51 52 55 61 70 80 88 92 94 94 95 95 95 97 100 103 103 100 97 95 95 95 95 94 94 92 88 80 70 61 55 52 51 51 50 50 48 45 41 40 48 66 87 101 101 86 63 40 23 14 10 13 20 33 53 77 97 102 91 70 47 29 15 7 2 0 0 -1 -1 -1 -1 -1 -1 -1 -1 -1 -1 -1 -1 -1 -1 0 4 18 52 96 
97 58 34 36 54 80 100 98 72 42 21 10 6 5 5 6 9 12 15 16 17 18 18 18 18 19 20 24 30 37 44 48 50 50 51 51 52 55 61 70 80 88 92 94 94 95 95 95 95 97 100 103 103 100 97 95 95 95 94 94 93 90 87 86 94 105 105 92 70 48 29 15 7 3 2 3 6 12 22 40 63 86 101 101 86 63 40 22 12 5 2 0 0 -1 -1 -1 -1 -1 -1 -1 -1 -1 -1 -1 -1 0 4 18 51 95 
102 70 56 68 90 103 95 69 40 19 7 2 0 0 0 0 1 2 3 3 4 4 4 4 4 4 5 6 9 12 15 16 17 18 18 18 19 20 24 30 37 44 48 50 50 51 51 51 52 55 61 70 80 88 92 94 94 95 95 96 99 106 118 129 129 112 83 55 34 19 10 4 1 0 0 0 0 2 7 15 29 47 70 91 102 97 77 53 33 19 10 4 1 0 -1 -1 -1 -1 -1 -1 -1 -1 -1 -1 -1 0 4 18 50 95 
111 92 88 100 103 88 62 36 17 6 1 0 -1 -1 -1 -1 0 0 0 0 0 0 0 0 0 0 0 0 1 2 3 3 4 4 4 4 4 5 6 9 12 15 16 17 18 18 18 18 19 20 24 30 37 44 48 50 50 51 51 53 59 74 102 132 129 90 51 26 13 5 2 0 0 -1 -1 -1 -1 0 1 4 10 19 33 53 77 97 102 91 70 47 29 15 7 2 0 0 -1 -1 -1 -1 -1 -1 -1 -1 -1 0 4 17 50 97 
124 118 113 103 79 52 30 14 5 1 0 -1 -1 -1 -1 -1 -1 -1 -1 -1 -1 -1 -1 -1 -1 -1 -1 -1 0 0 0 0 0 0 0 0 0 0 0 1 2 3 3 4 4 4 4 4 4 5 6 9 12 15 16 17 18 18 18 20 26 41 75 115 113 68 31 12 4 0 0 -1 -1 -1 -1 -1 -1 -1 0 0 2 5 12 22 40 63 86 101 101 86 63 40 22 12 5 2 0 0 -1 -1 -1 -1 -1 -1 -1 0 4 17 49 98 
135 130 106 74 44 23 11 4 0 0 -1 -1 -1 -1 -1 -1 -1 -1 -1 -1 -1 -1 -1 -1 -1 -1 -1 -1 -1 -1 -1 -1 -1 -1 -1 -1 -1 -1 -1 0 0 0 0 0 0 0 0 0 0 0 0 1 2 3 3 4 4 4 4 6 11 25 59 102 101 57 22 6 1 0 -1 -1 -1 -1 -1 -1 -1 -1 -1 -1 0 0 2 7 15 29 47 70 91 102 97 77 53 33 20 11 5 2 0 0 -1 -1 -1 -1 -1 0 4 17 49 100 
133 115 76 42 20 8 2 0 0 -1 -1 -1 -1 -1 -1 -1 -1 -1 -1 -1 -1 -1 -1 -1 -1 -1 -1 -1 -1 -1 -1 -1 -1 -1 -1 -1 -1 -1 -1 -1 -1 -1 -1 -1 -1 -1 -1 -1 -1 -1 -1 0 0 0 0 0 0 0 0 1 6 20 53 97 97 52 19 4 0 -1 -1 -1 -1 -1 -1 -1 -1 -1 -1 -1 -1 -1 0 1 4 10 19 33 53 77 97 102 91 70 49 32 18 9 4 1 0 0 -1 -1 -1 0 4 16 48 100 
120 87 46 20 7 2 0 -1 -1 -1 -1 -1 -1 -1 -1 -1 -1 -1 -1 -1 -1 -1 -1 -1 -1 -1 -1 -1 -1 -1 -1 -1 -1 -1 -1 -1 -1 -1 -1 -1 -1 -1 -1 -1 -1 -1 -1 -1 -1 -1 -1 -1 -1 -1 -1 -1 -1 -1 0 0 4 18 51 95 95 51 18 4 0 -1 -1 -1 -1 -1 -1 -1 -1 -1 -1 -1 -1 -1 -1 0 0 2 5 12 22 40 63 86 101 101 89 69 47 28 15 7 2 0 0 0 0 0 4 17 49 99 
107 67 29 10 2 0 -1 -1 -1 -1 -1 -1 -1 -1 -1 -1 -1 -1 -1 -1 -1 -1 -1 -1 -1 -1 -1 -1 -1 -1 -1 -1 -1 -1 -1 -1 -1 -1 -1 -1 -1 -1 -1 -1 -1 -1 -1 -1 -1 -1 -1 -1 -1 -1 -1 -1 -1 -1 -1 0 4 18 51 95 95 51 18 4 0 -1 -1 -1 -1 -1 -1 -1 -1 -1 -1 -1 -1 -1 -1 -1 -1 0 0 2 7 15 29 47 69 89 102 101 86 63 39 22 12 7 4 2 1 2 5 18 50 97 
100 57 22 6 0 0 -1 -1 -1 -1 -1 -1 -1 -1 -1 -1 -1 -1 -1 -1 -1 -1 -1 -1 -1 -1 -1 -1 -1 -1 -1 -1 -1 -1 -1 -1 -1 -1 -1 -1 -1 -1 -1 -1 -1 -1 -1 -1 -1 -1 -1 -1 -1 -1 -1 -1 -1 -1 -1 0 4 18 51 95 95 51 18 4 0 -1 -1 -1 -1 -1 -1 -1 -1 -1 -1 -1 -1 -1 -1 -1 -1 -1 -1 0 1 4 10 19 32 50 72 93 105 99 77 52 34 23 17 13 9 7 10 22 53 97 
97 53 19 5 0 0 -1 -1 -1 -1 -1 -1 -1 -1 -1 -1 -1 -1 -1 -1 -1 -1 -1 -1 -1 -1 -1 -1 -1 -1 -1 -1 -1 -1 -1 -1 -1 -1 -1 -1 -1 -1 -1 -1 -1 -1 -1 -1 -1 -1 -1 -1 -1 -1 -1 -1 -1 -1 -1 0 4 18 51 95 95 51 18 4 0 -1 -1 -1 -1 -1 -1 -1 -1 -1 -1 -1 -1 -1 -1 -1 -1 -1 -1 -1 0 0 2 6 13 23 39 62 90 113 115 97 76 59 48 39 30 24 23 33 61 100 
98 52 19 5 1 0 0 0 0 0 -1 -1 -1 -1 -1 -1 -1 -1 -1 -1 -1 -1 -1 -1 -1 -1 -1 -1 -1 -1 -1 -1 -1 -1 -1 -1 -1 -1 -1 -1 -1 -1 -1 -1 -1 -1 -1 -1 -1 -1 -1 -1 -1 -1 -1 -1 -1 -1 -1 0 4 18 51 95 95 51 18 4 0 -1 -1 -1 -1 -1 -1 -1 -1 -1 -1 -1 -1 -1 -1 -1 -1 -1 -1 -1 0 0 1 4 9 16 29 48 76 110 133 133 118 104 92 82 70 60 54 58 80 110 
103 55 23 10 5 4 3 3 2 1 0 0 0 0 0 0 0 0 -1 -1 -1 -1 -1 -1 -1 -1 -1 -1 -1 -1 -1 -1 -1 -1 -1 -1 -1 -1 -1 -1 -1 -1 -1 -1 -1 -1 -1 -1 -1 -1 -1 -1 -1 -1 -1 -1 -1 -1 -1 0 4 18 51 95 95 51 18 4 0 -1 -1 -1 -1 -1 -1 -1 -1 -1 -1 -1 -1 -1 -1 -1 -1 -1 0 0 1 3 6 11 19 31 46 66 90 115 128 123 111 104 102 104 103 99 96 98 111 126 
113 66 36 23 19 18 16 15 12 9 6 5 4 4 3 3 2 1 0 0 0 0 0 0 0 0 0 -1 -1 -1 -1 -1 -1 -1 -1 -1 -1 -1 -1 -1 -1 -1 -1 -1 -1 -1 -1 -1 -1 -1 -1 -1 -1 -1 -1 -1 -1 -1 -1 0 4 18 51 95 95 51 18 4 0 -1 -1 -1 -1 -1 -1 -1 -1 -1 -1 -1 -1 -1 -1 0 0 0 2 5 9 14 22 33 49 67 84 98 107 105 93 76 63 59 62 71 82 92 102 114 131 141 
129 93 67 56 52 50 48 44 37 30 24 20 18 17 16 15 12 9 6 5 4 4 4 3 3 2 1 0 0 0 0 0 0 0 0 -1 -1 -1 -1 -1 -1 -1 -1 -1 -1 -1 -1 -1 -1 -1 -1 -1 -1 -1 -1 -1 -1 -1 -1 0 4 18 51 95 95 51 18 4 0 -1 -1 -1 -1 -1 -1 -1 -1 -1 -1 -1 -1 0 0 1 3 6 11 18 29 41 56 73 89 101 103 96 83 66 48 33 25 22 25 31 39 49 62 82 112 138 
142 125 107 99 95 94 92 88 80 70 61 55 52 50 48 44 37 30 24 20 19 18 17 16 15 12 9 6 5 4 4 3 3 2 1 0 0 0 0 0 0 0 0 0 -1 -1 -1 -1 -1 -1 -1 -1 -1 -1 -1 -1 -1 -1 -1 0 4 18 51 95 95 51 18 4 0 -1 -1 -1 -1 -1 -1 -1 -1 -1 -1 0 0 2 4 9 14 22 33 48 66 83 96 102 101 89 73 56 41 28 18 11 7 6 7 9 13 18 28 46 80 124 
138 125 108 99 96 96 97 100 103 103 100 97 95 94 92 88 80 70 61 55 52 51 50 48 44 37 30 24 20 18 17 16 15 12 9 6 5 4 4 4 3 3 2 1 0 0 0 0 0 0 0 0 -1 -1 -1 -1 -1 -1 -1 0 4 18 51 95 95 51 18 4 0 -1 -1 -1 -1 -1 -1 -1 0 0 0 2 5 10 18 28 41 56 73 89 101 102 96 83 66 48 33 22 14 9 4 2 0 0 0 1 3 5 11 27 61 111 
120 94 68 56 53 53 55 61 70 80 88 92 94 95 97 100 103 103 100 97 95 95 94 92 88 80 70 61 55 52 50 48 44 37 30 24 20 19 18 17 16 15 12 9 6 5 4 4 3 3 2 1 0 0 0 0 0 0 0 0 5 18 51 95 95 51 18 4 0 -1 -1 -1 -1 -1 0 0 1 3 6 11 19 32 48 66 83 96 102 101 89 73 56 41 29 18 11 6 3 1 0 0 -1 -1 -1 0 0 1 6 20 53 102 
105 68 37 24 19 19 20 24 30 37 44 48 50 52 55 61 70 80 88 92 94 95 95 97 100 103 103 100 97 95 94 92 88 80 70 61 55 52 51 50 48 44 37 30 24 20 18 17 16 15 12 9 6 5 4 4 4 3 3 4 7 20 52 96 95 51 18 4 0 -1 -1 0 0 0 2 5 9 14 22 34 50 69 88 100 103 96 83 66 48 33 22 14 9 5 2 0 0 0 -1 -1 -1 -1 -1 -1 -1 0 4 18 51 97 
98 56 24 10 5 5 5 6 9 12 15 16 17 18 20 24 30 37 44 48 50 51 52 55 61 70 80 88 92 94 95 97 100 103 103 100 97 95 95 94 92 88 80 70 61 55 52 50 48 44 37 30 24 20 19 18 17 16 15 13 15 26 57 99 97 52 19 5 0 0 0 1 3 6 11 18 29 41 56 73 90 101 101 90 73 56 41 29 18 11 6 3 1 0 0 -1 -1 -1 -1 -1 -1 -1 -1 -1 -1 0 4 18 51 95 
96 52 19 5 1 0 0 0 1 2 3 3 4 4 5 6 9 12 15 16 17 18 19 20 24 30 37 44 48 50 52 55 61 70 80 88 92 94 95 95 97 100 103 103 100 97 95 94 92 88 80 70 61 55 52 51 50 48 44 39 36 43 70 107 102 57 22 7 3 2 5 9 14 22 33 48 66 83 96 103 100 88 69 50 34 22 14 9 5 2 0 0 0 -1 -1 -1 -1 -1 -1 -1 -1 -1 -1 -1 -1 0 4 18 51 95 
95 51 18 4 0 0 -1 -1 0 0 0 0 0 0 0 0 1 2 3 3 4 4 4 5 6 9 12 15 16 17 18 20 24 30 37 44 48 50 51 52 55 61 70 80 88 92 94 95 97 100 103 103 100 97 95 95 94 92 88 82 76 78 98 124 114 69 32 15 10 12 19 29 41 56 73 89 101 102 96 83 66 48 32 19 11 6 3 1 0 0 -1 -1 -1 -1 -1 -1 -1 -1 -1 -1 -1 -1 -1 -1 -1 0 4 18 51 95 
95 51 18 4 0 -1 -1 -1 -1 -1 -1 -1 -1 -1 -1 -1 0 0 0 0 0 0 0 0 0 1 2 3 3 4 4 5 6 9 12 15 16 17 18 19 20 24 30 37 44 48 50 52 55 61 70 80 88 92 94 95 95 97 100 103 105 110 122 138 129 91 54 34 30 36 49 66 83 96 102 101 89 73 56 41 28 18 10 5 2 0 0 0 -1 -1 -1 -1 -1 -1 -1 -1 -1 -1 -1 -1 -1 -1 -1 -1 -1 0 4 18 51 95 
95 51 18 4 0 -1 -1 -1 -1 -1 -1 -1 -1 -1 -1 -1 -1 -1 -1 -1 -1 -1 -1 -1 -1 0 0 0 0 0 0 0 0 1 2 3 3 4 4 4 5 6 9 12 15 16 17 18 20 24 30 37 44 48 50 51 52 55 61 70 81 91 102 115 124 115 92 73 69 77 91 101 103 96 83 66 48 33 22 14 9 4 2 0 0 -1 -1 -1 -1 -1 -1 -1 -1 -1 -1 -1 -1 -1 -1 -1 -1 -1 -1 -1 -1 0 4 18 51 95 
95 51 18 4 0 -1 -1 -1 -1 -1 -1 -1 -1 -1 -1 -1 -1 -1 -1 -1 -1 -1 -1 -1 -1 -1 -1 -1 -1 -1 -1 -1 -1 0 0 0 0 0 0 0 0 0 1 2 3 3 4 4 5 6 9 12 15 16 17 18 19 20 24 30 38 45 54 67 90 115 126 120 113 108 102 90 73 56 41 29 18 11 6 3 1 0 0 -1 -1 -1 -1 -1 -1 -1 -1 -1 -1 -1 -1 -1 -1 -1 -1 -1 -1 -1 -1 -1 -1 0 4 18 51 95 
95 51 18 4 0 0 -1 -1 -1 -1 -1 -1 -1 -1 -1 -1 -1 -1 -1 -1 -1 -1 -1 -1 -1 -1 -1 -1 -1 -1 -1 -1 -1 -1 -1 -1 -1 0 0 0 0 0 0 0 0 0 0 0 0 1 1 2 3 4 4 4 4 5 7 9 12 16 21 31 54 91 129 137 116 91 69 49 34 23 15 9 5 2 1 0 0 0 -1 -1 -1 -1 -1 -1 -1 -1 -1 -1 -1 -1 -1 -1 -1 -1 -1 -1 -1 -1 -1 -1 -1 0 4 18 51 95 
96 52 19 5 1 0 0 0 0 0 0 0 0 0 0 0 0 0 0 0 0 0 0 0 0 0 0 0 0 0 0 0 0 0 0 0 0 0 0 0 0 0 0 0 0 0 0 0 0 0 0 0 1 1 1 1 1 1 2 3 4 5 8 15 33 70 115 123 89 55 34 21 13 8 5 3 1 0 0 0 0 0 0 0 0 0 0 0 0 0 0 0 0 0 0 0 0 0 0 0 0 0 0 0 0 1 5 19 52 96 
99 56 24 10 5 4 4 4 4 4 4 4 4 4 4 4 4 4 4 4 4 4 4 4 4 4 4 4 4 4 4 4 4 3 4 4 4 4 4 4 4 4 4 4 4 4 4 4 4 4 4 4 4 4 4 4 4 4 4 5 5 6 7 13 28 62 106 110 70 37 20 12 8 6 5 5 4 4 4 4 4 4 4 4 4 4 4 4 4 4 4 4 3 4 4 4 4 4 4 4 4 4 4 4 4 5 10 23 56 99 
107 68 37 24 19 18 18 18 18 18 18 18 18 18 18 18 18 18 18 18 18 18 18 18 18 18 18 18 18 18 17 17 17 16 17 17 17 18 18 18 18 18 18 18 18 18 18 17 17 17 17 17 17 18 18 18 18 18 18 18 18 18 20 24 38 70 110 111 72 41 27 21 19 18 18 18 18 18 18 18 18 18 18 18 18 18 18 18 18 17 17 17 16 17 17 17 18 18 18 18 18 17 17 17 17 18 23 36 67 107 
126 94 68 56 52 51 51 51 51 51 51 51 51 51 51 51 51 51 51 51 51 51 51 51 51 51 51 51 51 50 50 49 49 48 49 49 50 50 51 51 51 51 51 51 51 51 50 50 49 49 49 49 50 50 51 51 51 51 51 51 51 51 52 56 68 94 126 126 95 69 57 53 51 51 51 51 51 51 51 51 51 51 51 51 51 51 51 51 50 50 50 49 48 49 49 50 50 51 51 51 50 50 50 49 49 50 55 67 94 126 
149 126 107 99 96 95 95 95 95 95 95 95 95 95 95 95 95 95 95 95 95 95 95 95 95 95 95 95 95 95 96 98 100 100 99 97 95 95 95 95 95 95 95 95 95 95 95 96 99 101 101 98 96 95 95 95 95 95 95 95 95 95 96 98 105 119 134 134 119 105 98 96 95 95 95 95 95 95 95 95 95 95 95 95 95 95 95 95 95 96 98 100 101 99 97 95 95 95 95 95 95 96 97 100 101 100 101 108 127 149 
