P2
110 110
255
154 116 99 94 93 93 93 93 93 93 93 93 93 93 93 93 93 93 93 93 93 93 93 93 93 93 93 93 93 94 98 111 137 151 129 105 96 94 93 93 93 93 93 93 93 93 94 98 113 144 143 113 98 94 93 93 93 93 93 93 93 93 93 93 94 96 101 101 96 94 93 93 93 93 93 93 93 93 93 93 93 93 93 93 93 93 93 93 94 96 106 131 151 130 106 96 94 93 93 93 94 96 105 130 151 131 107 101 117 154 
116 63 38 32 31 31 31 31 31 31 31 31 31 31 31 31 31 31 31 31 31 31 31 31 31 31 31 31 31 35 47 82 126 116 70 42 33 31 31 31 31 31 31 31 31 31 32 39 64 118 116 62 38 32 31 31 31 31 31 31 31 31 31 31 31 31 31 31 31 31 31 31 31 31 31 31 31 31 31 31 31 31 31 31 31 31 31 31 32 39 64 113 124 76 43 33 31 31 31 31 32 36 56 105 126 78 45 41 63 116 
99 38 11 4 3 3 3 3 3 3 3 3 3 3 3 3 3 3 3 3 3 3 3 3 3 3 3 3 5 13 40 92 113 66 25 8 4 3 3 3 3 3 3 3 3 3 5 14 46 109 100 38 11 4 3 3 3 3 3 3 3 3 3 3 3 3 3 3 3 3 3 3 3 3 3 3 3 3 3 3 3 3 3 3 3 3 3 4 6 19 60 112 89 35 11 4 3 3 3 3 4 11 37 97 103 44 14 13 38 99 
94 32 4 -1 -3 -3 -3 -3 -3 -3 -3 -3 -3 -3 -3 -3 -3 -3 -3 -3 -3 -3 -3 -3 -3 -3 -3 -1 3 21 64 110 85 32 6 -1 -2 -3 -3 -3 -3 -3 -3 -3 -3 -2 0 15 59 125 99 32 4 -1 -3 -3 -3 -3 -3 -3 -3 -3 -3 -3 -3 -3 -3 -3 -3 -3 -3 -3 -3 -3 -3 -3 -3 -3 -3 -3 -3 -3 -3 -3 -3 -3 -3 -2 3 25 80 110 57 14 0 -2 -3 -3 -3 -2 -1 7 39 100 91 31 5 6 32 94 
93 31 3 -3 -4 -4 -4 -4 -4 -4 -4 -4 -4 -4 -4 -4 -4 -4 -4 -4 -4 -4 -4 -4 -4 -4 -3 0 12 49 102 101 49 12 0 -3 -4 -4 -4 -4 -4 -4 -4 -4 -4 -2 4 30 91 147 101 31 3 -3 -4 -4 -4 -4 -4 -4 -4 -4 -4 -4 -4 -4 -4 -4 -4 -4 -4 -4 -4 -4 -4 -4 -4 -4 -4 -4 -4 -4 -4 -4 -4 -4 -4 -2 6 36 96 96 36 5 -2 -4 -4 -4 -4 -3 0 12 54 109 77 22 2 4 31 93 
93 31 3 -3 -4 -4 -4 -4 -4 -4 -4 -4 -4 -4 -4 -4 -4 -4 -4 -4 -4 -4 -4 -4 -4 -4 -2 5 32 85 109 63 20 1 -3 -4 -4 -4 -4 -4 -4 -4 -4 -4 -3 0 13 55 120 149 100 31 3 -3 -4 -4 -4 -4 -4 -4 -4 -4 -4 -4 -4 -4 -4 -4 -4 -4 -4 -4 -4 -4 -4 -4 -4 -4 -4 -4 -4 -4 -4 -4 -4 -4 -3 0 14 56 109 78 23 1 -3 -4 -4 -4 -4 -3 1 22 77 109 54 12 0 4 31 93 
93 31 3 -3 -4 -4 -4 -4 -4 -4 -4 -4 -4 -4 -4 -4 -4 -4 -4 -4 -4 -4 -4 -4 -4 -3 1 20 63 109 85 32 5 -2 -4 -4 -4 -4 -4 -4 -4 -4 -4 -4 -2 4 30 87 129 135 99 32 4 -3 -4 -4 -4 -4 -4 -4 -4 -4 -4 -4 -4 -4 -4 -4 -4 -4 -4 -4 -4 -4 -4 -4 -4 -4 -4 -4 -4 -4 -4 -4 -4 -4 -2 4 30 86 107 52 11 -1 -4 -4 -4 -4 -4 -3 3 30 90 99 38 6 -1 3 31 93 
93 31 3 -3 -4 -4 -4 -4 -4 -4 -4 -4 -4 -4 -4 -4 -4 -4 -4 -4 -4 -4 -4 -4 -3 0 12 49 101 101 49 12 0 -3 -4 -4 -4 -4 -4 -4 -4 -4 -4 -3 0 13 55 111 112 116 103 38 6 -2 -4 -4 -4 -4 -4 -4 -4 -4 -4 -4 -4 -4 -4 -4 -4 -4 -4 -4 -4 -4 -4 -4 -4 -4 -4 -4 -4 -4 -4 -4 -4 -4 -1 11 52 107 86 30 4 -2 -4 -4 -4 -4 -4 -2 6 38 99 90 30 3 -1 3 31 93 
93 31 3 -3 -4 -4 -4 -4 -4 -4 -4 -4 -4 -4 -4 -4 -4 -4 -4 -4 -4 -4 -4 -4 -2 5 32 85 109 63 20 1 -3 -4 -4 -4 -4 -4 -4 -4 -4 -4 -4 -2 5 32 87 111 79 92 111 54 12 -1 -4 -4 -4 -4 -4 -4 -4 -4 -4 -4 -4 -4 -4 -4 -4 -4 -4 -4 -4 -4 -4 -4 -4 -4 -4 -4 -4 -4 -4 -4 -4 -3 1 23 78 109 56 14 0 -3 -4 -4 -4 -4 -4 -1 12 54 109 77 22 1 -2 3 31 93 
93 31 3 -3 -4 -4 -4 -4 -4 -4 -4 -4 -4 -4 -4 -4 -4 -4 -4 -4 -4 -4 -4 -3 1 20 63 109 85 32 5 -2 -4 -4 -4 -4 -4 -4 -4 -4 -4 -4 -3 1 20 63 109 87 46 62 110 77 22 1 -3 -4 -4 -4 -4 -4 -4 -4 -4 -4 -4 -4 -4 -4 -4 -4 -4 -4 -4 -4 -4 -4 -4 -4 -4 -4 -4 -4 -4 -4 -4 -2 5 36 96 96 36 5 -2 -4 -4 -4 -4 -4 -3 1 22 77 109 54 12 0 -2 3 31 93 
93 31 3 -3 -4 -4 -4 -4 -4 -4 -4 -4 -4 -4 -4 -4 -4 -4 -4 -4 -4 -4 -3 0 12 49 101 101 49 12 0 -3 -4 -4 -4 -4 -4 -4 -4 -4 -4 -3 0 11 49 101 102 51 22 42 100 88 28 2 -3 -4 -4 -4 -4 -4 -4 -4 -4 -4 -4 -4 -4 -4 -4 -4 -4 -4 -4 -4 -4 -4 -4 -4 -4 -4 -4 -4 -4 -4 -3 0 14 56 109 78 23 1 -3 -4 -4 -4 -4 -4 -3 3 30 90 99 38 6 -2 -2 3 31 93 
94 31 3 -3 -4 -4 -4 -4 -4 -4 -4 -4 -4 -4 -4 -4 -4 -4 -4 -4 -4 -4 -2 5 32 85 109 63 20 1 -3 -4 -4 -4 -4 -4 -4 -4 -4 -4 -4 -2 4 29 84 109 64 21 10 34 95 92 30 3 -3 -4 -4 -4 -4 -4 -4 -4 -4 -4 -4 -4 -4 -4 -4 -4 -4 -4 -4 -4 -4 -4 -4 -4 -4 -4 -4 -4 -4 -4 -2 4 30 86 107 52 11 -1 -4 -4 -4 -4 -4 -4 -2 6 38 99 90 30 3 -3 -3 3 31 93 
96 33 4 -2 -4 -4 -4 -4 -4 -4 -4 -4 -4 -4 -4 -4 -4 -4 -4 -4 -4 -3 1 20 63 109 85 32 5 -2 -4 -4 -4 -4 -4 -4 -4 -4 -4 -4 -3 0 13 54 107 87 33 7 5 31 93 93 31 3 -3 -4 -4 -4 -4 -4 -4 -4 -4 -4 -4 -4 -4 -4 -4 -4 -4 -4 -4 -4 -4 -4 -4 -4 -4 -4 -4 -4 -4 -4 -1 11 52 107 86 30 4 -2 -4 -4 -4 -4 -4 -4 -1 12 54 109 77 22 1 -3 -3 3 31 94 
105 42 8 -1 -4 -4 -4 -4 -4 -4 -4 -4 -4 -4 -4 -4 -4 -4 -4 -4 -3 0 12 49 101 101 49 12 0 -3 -4 -4 -4 -4 -4 -4 -4 -4 -4 -4 -2 4 30 86 107 55 14 0 4 30 92 95 33 4 -3 -4 -4 -4 -4 -4 -4 -4 -4 -4 -4 -4 -4 -4 -4 -4 -4 -4 -4 -4 -4 -4 -4 -4 -4 -4 -4 -4 -4 -3 1 23 78 109 56 14 0 -3 -4 -4 -4 -4 -4 -3 1 22 77 109 54 12 -1 -3 -3 3 31 95 
129 69 23 3 -2 -4 -4 -4 -4 -4 -4 -4 -4 -4 -4 -4 -4 -4 -4 -4 -2 5 32 85 109 63 20 1 -3 -4 -4 -4 -4 -4 -4 -4 -4 -4 -4 -3 0 14 55 107 86 30 4 -1 3 28 88 100 38 6 -2 -4 -4 -4 -4 -4 -4 -4 -4 -4 -4 -4 -4 -4 -4 -4 -4 -4 -4 -4 -4 -4 -4 -4 -4 -4 -4 -4 -4 -2 5 36 96 96 36 5 -2 -4 -4 -4 -4 -4 -4 -3 3 30 90 99 38 6 -2 -4 -3 3 31 99 
151 115 60 21 3 -2 -4 -4 -4 -4 -4 -4 -4 -4 -4 -4 -4 -4 -4 -3 1 20 63 109 85 32 5 -2 -4 -4 -4 -4 -4 -4 -4 -4 -4 -4 -4 -2 5 32 87 107 54 13 0 -2 1 22 77 109 54 12 -1 -4 -4 -4 -4 -4 -4 -4 -4 -4 -4 -4 -4 -4 -4 -4 -4 -4 -4 -4 -4 -4 -4 -4 -4 -4 -4 -4 -3 0 14 56 109 78 23 1 -3 -4 -4 -4 -4 -4 -4 -2 6 38 99 90 30 3 -3 -4 -3 3 31 101 
138 127 106 58 18 1 -3 -4 -4 -4 -4 -4 -4 -4 -4 -4 -4 -4 -3 0 12 49 101 101 49 12 0 -3 -4 -4 -4 -4 -4 -4 -4 -4 -4 -4 -3 1 20 63 109 84 29 4 -2 -3 -1 12 54 109 77 22 1 -3 -4 -4 -4 -4 -4 -4 -4 -4 -4 -4 -4 -4 -4 -4 -4 -4 -4 -4 -4 -4 -4 -4 -4 -4 -4 -4 -2 4 30 86 107 52 11 -1 -4 -4 -4 -4 -4 -4 -4 -1 12 54 109 77 22 1 -3 -4 -3 3 31 98 
113 92 110 101 48 12 0 -3 -4 -4 -4 -4 -4 -4 -4 -4 -4 -4 -2 5 32 85 109 63 20 1 -3 -4 -4 -4 -4 -4 -4 -4 -4 -4 -4 -3 0 11 49 101 101 49 11 0 -3 -4 -2 6 38 100 88 28 2 -3 -4 -4 -4 -4 -4 -4 -4 -4 -4 -4 -4 -4 -4 -4 -4 -4 -4 -4 -4 -4 -4 -4 -4 -4 -4 -4 -1 11 52 107 86 30 4 -2 -4 -4 -4 -4 -4 -4 -3 1 22 77 109 54 12 -1 -4 -4 -3 3 31 95 
100 57 72 110 85 32 6 -1 -4 -4 -4 -4 -4 -4 -4 -4 -4 -3 1 20 63 109 85 32 5 -2 -4 -4 -4 -4 -4 -4 -4 -4 -4 -4 -4 -2 4 29 84 109 63 20 1 -3 -4 -4 -3 4 33 95 92 30 3 -3 -4 -4 -4 -4 -4 -4 -4 -4 -4 -4 -4 -4 -4 -4 -4 -4 -4 -4 -4 -4 -4 -4 -4 -4 -4 -3 1 23 78 109 56 14 0 -3 -4 -4 -4 -4 -4 -4 -3 3 30 90 99 38 6 -2 -4 -4 -3 3 31 94 
95 41 40 86 109 65 23 3 -2 -4 -4 -4 -4 -4 -4 -4 -3 0 12 49 101 101 49 12 0 -3 -4 -4 -4 -4 -4 -4 -4 -4 -4 -4 -3 0 13 54 107 87 32 5 -2 -4 -4 -4 -3 3 31 93 93 31 3 -3 -4 -4 -4 -4 -4 -4 -4 -4 -4 -4 -4 -4 -4 -4 -4 -4 -4 -4 -4 -4 -4 -4 -4 -4 -4 -2 5 36 96 96 36 5 -2 -4 -4 -4 -4 -4 -4 -4 -2 6 38 99 90 30 3 -3 -4 -4 -3 3 31 93 
94 35 20 50 101 104 59 21 3 -2 -4 -4 -4 -4 -4 -4 -2 5 32 85 109 63 20 1 -3 -4 -4 -4 -4 -4 -4 -4 -4 -4 -4 -4 -2 4 30 86 107 55 14 0 -3 -4 -4 -4 -3 3 30 92 95 33 4 -3 -4 -4 -4 -4 -4 -4 -4 -4 -4 -4 -4 -4 -4 -4 -4 -4 -4 -4 -4 -4 -4 -4 -4 -4 -3 0 14 56 109 78 23 1 -3 -4 -4 -4 -4 -4 -4 -4 -1 12 54 109 77 22 1 -3 -4 -4 -3 3 31 93 
93 32 9 19 58 103 103 59 21 3 -2 -4 -4 -4 -4 -3 1 20 63 109 85 32 5 -2 -4 -4 -4 -4 -4 -4 -4 -4 -4 -4 -4 -3 0 14 55 107 86 30 4 -2 -4 -4 -4 -4 -3 2 28 88 100 38 6 -2 -4 -4 -4 -4 -4 -4 -4 -4 -4 -4 -4 -4 -4 -4 -4 -4 -4 -4 -4 -4 -4 -4 -4 -4 -2 4 30 86 107 52 11 -1 -4 -4 -4 -4 -4 -4 -4 -3 1 22 77 109 54 12 -1 -4 -4 -4 -3 3 31 93 
93 31 5 4 21 59 103 103 59 21 3 -2 -4 -4 -3 0 12 49 101 101 49 12 0 -3 -4 -4 -4 -4 -4 -4 -4 -4 -4 -4 -4 -2 5 32 87 107 54 13 0 -3 -4 -4 -4 -4 -3 1 22 77 109 54 12 -1 -4 -4 -4 -4 -4 -4 -4 -4 -4 -4 -4 -4 -4 -4 -4 -4 -4 -4 -4 -4 -4 -4 -4 -4 -1 11 52 107 86 30 4 -2 -4 -4 -4 -4 -4 -4 -4 -3 3 30 90 99 38 6 -2 -4 -4 -4 -3 3 31 93 
93 31 3 -1 3 21 59 103 103 59 21 3 -2 -3 -2 5 32 85 109 63 20 1 -3 -4 -4 -4 -4 -4 -4 -4 -4 -4 -4 -4 -3 1 20 63 109 84 29 4 -2 -4 -4 -4 -4 -4 -4 -1 12 54 109 77 22 1 -3 -4 -4 -4 -4 -4 -4 -4 -4 -4 -4 -4 -4 -4 -4 -4 -4 -4 -4 -4 -4 -4 -4 -3 1 23 78 109 56 14 0 -3 -4 -4 -4 -4 -4 -4 -4 -2 6 38 99 90 30 3 -3 -4 -4 -4 -3 3 31 93 
93 31 3 -2 -2 3 21 59 103 103 59 21 3 -1 2 20 63 109 85 32 5 -2 -4 -4 -4 -4 -4 -4 -4 -4 -4 -4 -4 -3 0 11 49 101 101 49 11 0 -3 -4 -4 -4 -4 -4 -4 -2 6 38 100 88 28 2 -3 -4 -4 -4 -4 -4 -4 -4 -4 -4 -4 -4 -4 -4 -4 -4 -4 -4 -4 -4 -4 -4 -4 -2 5 36 96 96 36 5 -2 -4 -4 -4 -4 -4 -4 -4 -4 -1 12 54 109 77 22 1 -3 -4 -4 -4 -3 3 31 93 
93 31 3 -3 -3 -2 3 21 59 103 103 59 22 7 14 49 101 101 49 12 0 -3 -4 -4 -4 -4 -4 -4 -4 -4 -4 -4 -4 -2 4 29 84 109 63 20 1 -3 -4 -4 -4 -4 -4 -4 -4 -3 4 32 95 92 30 3 -3 -4 -4 -4 -4 -4 -4 -4 -4 -4 -4 -4 -4 -4 -4 -4 -4 -4 -4 -4 -4 -4 -3 0 14 56 109 78 23 1 -3 -4 -4 -4 -4 -4 -4 -4 -3 1 22 77 109 54 12 -1 -4 -4 -4 -4 -3 3 31 93 
93 31 3 -3 -4 -4 -2 3 21 59 103 104 61 31 39 87 109 63 20 1 -3 -4 -4 -4 -4 -4 -4 -4 -4 -4 -4 -4 -3 0 13 54 107 87 32 5 -2 -4 -4 -4 -4 -4 -4 -4 -4 -3 3 30 92 95 32 4 -3 -4 -4 -4 -4 -4 -4 -4 -4 -4 -4 -4 -4 -4 -4 -4 -4 -4 -4 -4 -4 -4 -2 4 30 86 107 52 11 -1 -4 -4 -4 -4 -4 -4 -4 -4 -3 3 30 90 99 38 6 -2 -4 -4 -4 -4 -3 3 31 93 
93 31 3 -3 -4 -4 -4 -2 3 21 59 104 108 80 84 113 85 32 5 -2 -4 -4 -4 -4 -4 -4 -4 -4 -4 -4 -4 -4 -2 4 30 86 107 55 14 0 -3 -4 -4 -4 -4 -4 -4 -4 -4 -3 2 28 88 100 38 6 -2 -4 -4 -4 -4 -4 -4 -4 -4 -4 -4 -4 -4 -4 -4 -4 -4 -4 -4 -4 -4 -4 -1 11 52 107 86 30 4 -2 -4 -4 -4 -4 -4 -4 -4 -4 -2 6 38 99 90 30 3 -3 -4 -4 -4 -4 -3 3 31 93 
93 31 3 -3 -4 -4 -4 -4 -2 3 21 60 110 135 135 107 49 12 0 -3 -4 -4 -4 -4 -4 -4 -4 -4 -4 -4 -4 -3 0 14 55 107 86 30 4 -2 -4 -4 -4 -4 -4 -4 -4 -4 -4 -3 1 22 77 109 54 12 -1 -4 -4 -4 -4 -4 -4 -4 -4 -4 -4 -4 -4 -4 -4 -4 -4 -4 -4 -4 -4 -3 1 23 78 109 56 14 0 -3 -4 -4 -4 -4 -4 -4 -4 -4 -1 12 54 109 77 22 1 -3 -4 -4 -4 -4 -3 3 31 93 
93 31 3 -3 -4 -4 -4 -4 -4 -2 3 23 69 133 133 68 20 1 -3 -4 -4 -4 -4 -4 -4 -4 -4 -4 -4 -4 -4 -2 5 32 87 107 54 13 0 -3 -4 -4 -4 -4 -4 -4 -4 -4 -4 -4 -1 12 54 109 77 22 1 -3 -4 -4 -4 -4 -4 -4 -4 -4 -4 -4 -4 -4 -4 -4 -4 -4 -4 -4 -4 -2 5 36 96 96 36 5 -2 -4 -4 -4 -4 -4 -4 -4 -4 -3 1 22 77 109 54 12 -1 -4 -4 -4 -4 -4 -3 3 31 93 
93 31 3 -3 -4 -4 -4 -4 -4 -4 -1 8 41 107 109 43 8 -1 -4 -4 -4 -4 -4 -4 -4 -4 -4 -4 -4 -4 -3 1 20 63 109 84 29 4 -2 -4 -4 -4 -4 -4 -4 -4 -4 -4 -4 -4 -2 6 38 100 88 28 2 -3 -4 -4 -4 -4 -4 -4 -4 -4 -4 -4 -4 -4 -4 -4 -4 -4 -4 -4 -3 0 14 56 109 78 23 1 -3 -4 -4 -4 -4 -4 -4 -4 -4 -3 3 30 90 99 38 6 -2 -4 -4 -4 -4 -4 -3 3 31 93 
93 31 3 -3 -4 -4 -4 -4 -4 -4 -3 3 30 92 103 41 7 -2 -4 -4 -4 -4 -4 -4 -4 -4 -4 -4 -4 -3 0 11 49 101 101 49 11 0 -3 -4 -4 -4 -4 -4 -4 -4 -4 -4 -4 -4 -3 4 33 95 92 30 3 -3 -4 -4 -4 -4 -4 -4 -4 -4 -4 -4 -4 -4 -4 -4 -4 -4 -4 -4 -2 4 30 86 107 52 11 -1 -4 -4 -4 -4 -4 -4 -4 -4 -4 -2 6 38 99 90 30 3 -3 -4 -4 -4 -4 -4 -3 3 31 93 
93 31 3 -3 -4 -4 -4 -4 -4 -4 -3 1 22 77 109 55 12 -1 -4 -4 -4 -4 -4 -4 -4 -4 -4 -4 -4 -2 4 29 84 109 63 20 1 -3 -4 -4 -4 -4 -4 -4 -4 -4 -4 -4 -4 -4 -3 3 31 93 93 31 3 -3 -4 -4 -4 -4 -4 -4 -4 -4 -4 -4 -4 -4 -4 -4 -4 -4 -4 -4 -1 11 52 107 86 30 4 -2 -4 -4 -4 -4 -4 -4 -4 -4 -4 -1 12 54 109 77 22 1 -3 -4 -4 -4 -4 -4 -3 3 31 93 
93 31 3 -3 -4 -4 -4 -4 -4 -4 -4 -1 12 54 109 77 22 1 -3 -4 -4 -4 -4 -4 -4 -4 -4 -4 -3 0 13 54 107 87 32 5 -2 -4 -4 -4 -4 -4 -4 -4 -4 -4 -4 -4 -4 -4 -3 3 30 92 95 33 4 -3 -4 -4 -4 -4 -4 -4 -4 -4 -4 -4 -4 -4 -4 -4 -4 -4 -4 -3 1 23 78 109 56 14 0 -3 -4 -4 -4 -4 -4 -4 -4 -4 -3 1 22 77 109 54 12 -1 -4 -4 -4 -4 -4 -4 -3 3 31 93 
93 31 3 -3 -4 -4 -4 -4 -4 -4 -4 -2 6 38 100 89 28 2 -3 -4 -4 -4 -4 -4 -4 -4 -4 -4 -2 4 30 86 107 55 14 0 -3 -4 -4 -4 -4 -4 -4 -4 -4 -4 -4 -4 -4 -4 -3 2 28 88 100 38 6 -2 -4 -4 -4 -4 -4 -4 -4 -4 -4 -4 -4 -4 -4 -4 -4 -4 -4 -2 5 36 96 96 36 5 -2 -4 -4 -4 -4 -4 -4 -4 -4 -4 -3 3 30 90 99 38 6 -2 -4 -4 -4 -4 -4 -4 -3 3 31 94 
94 31 3 -3 -4 -4 -4 -4 -4 -4 -4 -3 3 32 94 94 32 3 -3 -4 -4 -4 -4 -4 -4 -4 -4 -3 0 14 55 107 86 30 4 -2 -4 -4 -4 -4 -4 -4 -4 -4 -4 -4 -4 -4 -4 -4 -3 1 22 77 109 54 12 -1 -4 -4 -4 -4 -4 -4 -4 -4 -4 -4 -4 -4 -4 -4 -4 -4 -3 0 14 56 109 78 23 1 -3 -4 -4 -4 -4 -4 -4 -4 -4 -4 -2 6 38 99 90 30 3 -3 -4 -4 -4 -4 -4 -4 -3 4 33 96 
95 31 3 -3 -4 -4 -4 -4 -4 -4 -4 -3 2 28 89 100 38 6 -2 -4 -4 -4 -4 -4 -4 -4 -4 -2 5 32 87 107 54 13 0 -3 -4 -4 -4 -4 -4 -4 -4 -4 -4 -4 -4 -4 -4 -4 -4 -1 12 54 109 77 22 1 -3 -4 -4 -4 -4 -4 -4 -4 -4 -4 -4 -4 -4 -4 -4 -4 -2 4 30 86 107 52 11 -1 -4 -4 -4 -4 -4 -4 -4 -4 -4 -4 -1 12 54 109 77 22 1 -3 -4 -4 -4 -4 -4 -4 -2 6 39 104 
99 31 3 -3 -4 -4 -4 -4 -4 -4 -4 -3 1 22 77 109 54 12 -1 -4 -4 -4 -4 -4 -4 -4 -3 1 20 63 109 84 29 4 -2 -4 -4 -4 -4 -4 -4 -4 -4 -4 -4 -4 -4 -4 -4 -4 -4 -2 6 38 100 88 28 2 -3 -4 -4 -4 -4 -4 -4 -4 -4 -4 -4 -4 -4 -4 -4 -4 -1 11 52 107 86 30 4 -2 -4 -4 -4 -4 -4 -4 -4 -4 -4 -3 1 22 77 109 54 12 -1 -4 -4 -4 -4 -4 -4 -3 0 14 58 125 
101 31 3 -3 -4 -4 -4 -4 -4 -4 -4 -4 -1 12 54 109 77 22 1 -3 -4 -4 -4 -4 -4 -3 0 11 49 101 101 49 11 0 -3 -4 -4 -4 -4 -4 -4 -4 -4 -4 -4 -4 -4 -4 -4 -4 -4 -3 4 33 95 92 30 3 -3 -4 -4 -4 -4 -4 -4 -4 -4 -4 -4 -4 -4 -4 -4 -3 1 23 78 109 56 14 0 -3 -4 -4 -4 -4 -4 -4 -4 -4 -4 -3 3 30 90 99 38 6 -2 -4 -4 -4 -4 -4 -4 -2 5 32 92 147 
100 31 3 -3 -4 -4 -4 -4 -4 -4 -4 -4 -2 6 38 100 89 28 2 -3 -4 -4 -4 -4 -4 -2 4 29 84 109 63 20 1 -3 -4 -4 -4 -4 -4 -4 -4 -4 -4 -4 -4 -4 -4 -4 -4 -4 -4 -3 3 31 93 93 31 3 -3 -4 -4 -4 -4 -4 -4 -4 -4 -4 -4 -4 -4 -4 -4 -2 5 36 96 96 36 5 -2 -4 -4 -4 -4 -4 -4 -4 -4 -4 -4 -2 6 38 99 90 30 3 -3 -4 -4 -4 -4 -4 -3 1 20 64 122 149 
97 31 3 -3 -4 -4 -4 -4 -4 -4 -4 -4 -3 3 32 94 94 32 3 -3 -4 -4 -4 -4 -3 0 13 54 107 87 32 5 -2 -4 -4 -4 -4 -4 -4 -4 -4 -4 -4 -4 -4 -4 -4 -4 -4 -4 -4 -3 3 30 92 95 33 4 -3 -4 -4 -4 -4 -4 -4 -4 -4 -4 -4 -4 -4 -4 -3 0 14 56 109 78 23 1 -3 -4 -4 -4 -4 -4 -4 -4 -4 -4 -4 -1 12 54 109 77 22 1 -3 -4 -4 -4 -4 -3 0 12 49 104 126 132 
95 31 3 -3 -4 -4 -4 -4 -4 -4 -4 -4 -3 2 28 89 100 38 6 -2 -4 -4 -4 -4 -2 4 30 86 107 55 14 0 -3 -4 -4 -4 -4 -4 -4 -4 -4 -4 -4 -4 -4 -4 -4 -4 -4 -4 -4 -3 2 28 88 100 38 6 -2 -4 -4 -4 -4 -4 -4 -4 -4 -4 -4 -4 -4 -4 -2 4 30 86 107 52 11 -1 -4 -4 -4 -4 -4 -4 -4 -4 -4 -4 -3 1 22 77 109 54 12 -1 -4 -4 -4 -4 -4 -2 5 32 85 114 95 112 
94 31 3 -3 -4 -4 -4 -4 -4 -4 -4 -4 -3 1 22 77 109 54 12 -1 -4 -4 -4 -3 0 14 55 107 86 30 4 -2 -4 -4 -4 -4 -4 -4 -4 -4 -4 -4 -4 -4 -4 -4 -4 -4 -4 -4 -4 -3 1 22 77 109 54 12 0 -3 -4 -4 -4 -4 -4 -4 -4 -4 -4 -4 -4 -4 -1 11 52 107 86 30 4 -2 -4 -4 -4 -4 -4 -4 -4 -4 -4 -4 -3 3 30 90 99 38 6 -2 -4 -4 -4 -4 -3 1 20 63 109 92 66 101 
93 31 3 -3 -4 -4 -4 -4 -4 -4 -4 -4 -4 -1 12 54 109 77 22 1 -3 -4 -4 -2 5 32 87 107 54 13 0 -3 -4 -4 -4 -4 -4 -4 -4 -4 -4 -4 -4 -4 -4 -4 -4 -4 -4 -4 -4 -4 -1 12 55 110 78 23 2 -2 -3 -3 -4 -4 -4 -4 -4 -4 -4 -4 -4 -3 1 23 78 109 56 14 0 -3 -4 -4 -4 -4 -4 -4 -4 -4 -4 -4 -2 6 38 99 90 30 3 -3 -4 -4 -4 -3 0 12 49 101 102 56 47 96 
93 31 3 -3 -4 -4 -4 -4 -4 -4 -4 -4 -4 -2 6 38 100 89 28 2 -3 -4 -3 1 20 63 109 84 29 4 -2 -4 -4 -4 -4 -4 -4 -4 -4 -4 -4 -4 -4 -4 -4 -4 -4 -4 -4 -4 -4 -4 -1 7 41 103 94 35 10 4 2 1 -1 -2 -3 -3 -3 -3 -3 -3 -3 -2 5 36 96 96 36 5 -2 -4 -4 -4 -4 -4 -4 -4 -4 -4 -4 -4 -1 12 54 109 77 22 1 -3 -4 -4 -4 -2 5 32 85 109 64 27 37 94 
93 31 3 -3 -4 -4 -4 -4 -4 -4 -4 -4 -4 -3 3 32 94 94 32 3 -3 -3 0 11 49 101 101 49 11 0 -3 -4 -4 -4 -4 -4 -4 -4 -4 -4 -4 -4 -4 -4 -4 -4 -4 -4 -4 -4 -4 -3 0 11 45 110 114 62 38 31 28 22 12 6 4 3 3 2 1 -1 -1 0 15 57 109 78 23 1 -3 -4 -4 -4 -4 -4 -4 -4 -4 -4 -4 -3 1 22 77 109 54 12 -1 -4 -4 -4 -3 1 20 63 109 85 33 13 33 94 
93 31 3 -3 -4 -4 -4 -4 -4 -4 -4 -4 -4 -3 2 28 89 100 38 6 -2 -2 4 29 84 109 63 20 1 -3 -4 -4 -4 -4 -4 -4 -4 -4 -4 -4 -4 -4 -4 -4 -4 -4 -4 -4 -4 -3 -2 1 12 35 75 135 144 113 98 93 88 77 54 38 33 31 30 28 22 12 7 11 35 88 108 52 11 -1 -4 -4 -4 -4 -4 -4 -4 -4 -4 -4 -4 -3 3 30 90 99 38 6 -2 -4 -4 -3 0 12 49 101 101 49 13 7 31 93 
93 31 3 -3 -4 -4 -4 -4 -4 -4 -4 -4 -4 -3 1 22 77 109 54 12 0 0 13 54 107 87 32 5 -2 -4 -4 -4 -4 -4 -4 -4 -4 -4 -4 -4 -4 -4 -4 -4 -4 -4 -4 -4 -3 0 5 20 49 86 115 124 111 99 95 95 100 109 109 100 95 93 92 88 77 55 41 45 76 116 88 30 4 -2 -4 -4 -4 -4 -4 -4 -4 -4 -4 -4 -4 -2 6 38 99 90 30 3 -3 -4 -4 -2 5 32 85 109 63 20 3 4 31 93 
93 31 3 -3 -4 -4 -4 -4 -4 -4 -4 -4 -4 -4 -1 12 54 109 77 22 3 5 30 86 107 55 14 0 -3 -4 -4 -4 -4 -4 -4 -4 -4 -4 -4 -4 -4 -4 -4 -4 -4 -4 -3 -2 1 12 32 63 101 109 88 58 39 33 31 33 38 54 77 88 92 93 95 100 109 109 103 110 135 132 66 17 0 -3 -4 -4 -4 -4 -4 -4 -4 -4 -4 -4 -4 -1 12 54 109 77 22 1 -3 -4 -3 1 20 63 109 85 32 5 0 3 31 93 
93 31 3 -3 -4 -4 -4 -4 -4 -4 -4 -4 -4 -4 -2 6 38 100 89 29 7 15 55 107 86 30 4 -2 -4 -4 -4 -4 -4 -4 -4 -4 -4 -4 -4 -4 -4 -4 -4 -4 -4 -3 0 5 20 49 85 109 101 63 33 14 6 4 3 4 6 12 22 28 30 31 33 38 54 77 92 107 134 132 66 17 0 -3 -4 -4 -4 -4 -4 -4 -4 -4 -4 -4 -3 1 22 77 109 54 12 -1 -3 -3 0 12 49 101 101 49 12 0 -2 3 31 93 
93 31 3 -3 -4 -4 -4 -4 -4 -4 -4 -4 -4 -4 -3 3 32 94 94 34 14 34 87 107 54 13 0 -3 -4 -4 -4 -4 -4 -4 -4 -4 -4 -4 -4 -4 -4 -4 -4 -4 -2 1 12 32 63 101 109 85 49 20 5 0 -2 -3 -3 -3 -2 -1 1 2 3 3 4 6 12 22 31 43 75 116 89 34 6 -1 -3 -4 -4 -4 -4 -4 -4 -4 -4 -4 -3 3 30 90 99 38 6 -2 -3 -2 5 32 85 109 63 20 1 -3 -3 3 31 93 
93 31 3 -3 -4 -4 -4 -4 -4 -4 -4 -4 -4 -4 -3 2 28 89 101 44 30 65 109 84 29 4 -2 -4 -4 -4 -4 -4 -4 -4 -4 -4 -4 -4 -4 -4 -4 -4 -3 -2 3 18 48 85 109 101 63 32 12 1 -2 -3 -4 -4 -4 -4 -4 -4 -3 -3 -3 -3 -3 -2 -1 1 4 11 35 86 110 66 24 6 0 -2 -3 -3 -3 -3 -3 -3 -3 -2 -1 7 39 99 91 30 3 -2 -3 1 20 63 109 85 32 5 -2 -3 -3 3 31 93 
93 31 3 -3 -4 -4 -4 -4 -4 -4 -4 -4 -4 -4 -3 1 22 77 111 70 65 104 102 49 11 0 -3 -4 -4 -4 -4 -4 -4 -4 -4 -4 -4 -4 -4 -4 -4 -3 0 6 22 58 101 109 85 49 20 5 0 -3 -4 -4 -4 -4 -4 -4 -4 -4 -4 -4 -4 -4 -4 -4 -4 -3 -2 0 12 49 103 109 67 33 14 6 4 3 3 3 3 3 3 3 6 19 60 112 79 24 2 -2 0 12 49 101 101 49 12 0 -3 -4 -3 3 31 93 
93 31 3 -3 -4 -4 -4 -4 -4 -4 -4 -4 -4 -4 -4 -1 12 54 113 106 106 112 63 20 1 -3 -4 -4 -4 -4 -4 -4 -4 -4 -4 -4 -4 -4 -4 -3 -2 1 12 32 65 104 104 65 32 12 1 -2 -3 -4 -4 -4 -4 -4 -4 -4 -4 -4 -4 -4 -4 -4 -4 -4 -4 -4 -4 -3 2 20 67 125 129 92 58 39 33 31 31 31 31 31 31 32 36 54 100 124 67 20 3 0 6 32 85 109 63 20 1 -3 -4 -4 -3 3 31 93 
93 31 3 -3 -4 -4 -4 -4 -4 -4 -4 -4 -4 -4 -4 -2 6 38 105 133 128 88 32 5 -2 -4 -4 -4 -4 -4 -4 -4 -4 -4 -4 -4 -4 -4 -3 0 5 20 49 85 109 101 58 22 6 0 -3 -4 -4 -4 -4 -4 -4 -4 -4 -4 -4 -4 -4 -4 -4 -4 -4 -4 -4 -4 -4 -4 -1 8 44 114 148 128 113 100 95 94 93 93 93 93 93 94 97 111 141 140 82 38 16 10 23 64 109 85 32 5 -2 -4 -4 -4 -3 3 31 93 
93 31 3 -3 -4 -4 -4 -4 -4 -4 -4 -4 -4 -4 -4 -3 3 32 102 149 120 55 13 0 -3 -4 -4 -4 -4 -4 -4 -4 -4 -4 -4 -4 -3 -2 1 12 32 63 101 109 85 48 18 3 -2 -3 -4 -4 -4 -4 -4 -4 -4 -4 -4 -4 -4 -4 -4 -4 -4 -4 -4 -4 -4 -4 -4 -4 -2 7 41 107 115 82 83 89 92 93 93 93 93 93 93 93 94 99 111 125 116 89 58 44 62 105 102 49 12 0 -3 -4 -4 -4 -3 3 31 93 
93 31 3 -3 -4 -4 -4 -4 -4 -4 -4 -4 -4 -4 -4 -3 3 31 101 147 91 30 4 -2 -4 -4 -4 -4 -4 -4 -4 -4 -4 -4 -4 -3 0 5 20 49 85 109 102 63 32 12 1 -2 -4 -4 -4 -4 -4 -4 -4 -4 -4 -4 -4 -4 -4 -4 -4 -4 -4 -4 -4 -4 -4 -4 -4 -4 -1 12 55 111 84 38 27 29 30 31 31 31 31 31 31 31 31 33 39 58 87 108 111 106 118 122 68 21 2 -3 -4 -4 -4 -4 -3 3 31 93 
93 31 3 -3 -4 -4 -4 -4 -4 -4 -4 -4 -4 -4 -4 -3 3 31 99 125 58 13 0 -3 -4 -4 -4 -4 -4 -4 -4 -4 -4 -3 -2 1 12 32 64 103 110 86 50 21 6 0 -3 -4 -4 -4 -4 -4 -4 -4 -4 -4 -4 -4 -4 -4 -4 -4 -4 -4 -4 -4 -4 -4 -4 -4 -4 -3 1 22 77 109 56 15 4 3 3 3 3 3 3 3 3 3 3 4 6 14 30 55 88 121 150 122 52 12 0 -3 -4 -4 -4 -4 -3 3 31 93 
93 31 3 -3 -4 -4 -4 -4 -4 -4 -4 -4 -4 -4 -4 -3 3 31 95 104 39 6 -2 -4 -4 -4 -4 -4 -4 -4 -3 -2 -1 2 7 20 49 90 119 114 73 40 19 7 1 -1 -2 -3 -4 -4 -4 -4 -4 -4 -4 -4 -4 -4 -4 -4 -4 -4 -4 -4 -4 -4 -4 -4 -4 -4 -4 -3 2 28 88 100 39 6 -1 -3 -3 -3 -3 -3 -3 -3 -3 -3 -3 -3 -2 0 4 14 33 67 118 125 69 21 2 -3 -4 -4 -4 -4 -3 3 31 93 
93 31 3 -3 -4 -4 -4 -4 -4 -4 -4 -4 -4 -4 -4 -3 4 33 95 95 32 3 -3 -4 -4 -4 -4 -4 -3 -2 0 4 12 24 39 66 112 146 143 103 62 42 32 23 12 6 3 1 -1 -2 -3 -3 -3 -4 -4 -4 -4 -4 -4 -4 -4 -4 -4 -4 -4 -4 -4 -4 -4 -4 -4 -3 3 30 92 95 32 4 -2 -4 -4 -4 -4 -4 -4 -4 -4 -4 -4 -4 -4 -3 -2 0 6 22 61 107 103 49 12 0 -3 -4 -4 -4 -3 3 31 93 
93 31 3 -3 -4 -4 -4 -4 -4 -4 -4 -4 -4 -4 -4 -2 6 38 100 89 28 2 -3 -4 -4 -4 -3 -2 0 4 13 30 52 79 97 114 121 120 124 120 104 96 89 77 54 38 30 22 12 6 3 2 1 -1 -2 -3 -3 -4 -4 -4 -4 -4 -4 -4 -4 -4 -4 -4 -4 -4 -4 -3 4 32 95 92 30 3 -3 -4 -4 -4 -4 -4 -4 -4 -4 -4 -4 -4 -4 -4 -4 -3 -1 4 23 65 109 85 32 5 -2 -4 -4 -4 -3 3 31 93 
93 31 3 -3 -4 -4 -4 -4 -4 -4 -4 -4 -4 -4 -4 -1 12 54 109 77 22 1 -3 -3 -2 -1 1 5 14 30 54 85 107 109 96 80 57 46 56 78 89 94 100 109 109 99 90 77 54 38 32 28 22 12 6 3 1 -1 -2 -3 -3 -3 -4 -4 -4 -4 -4 -4 -4 -4 -4 -2 6 38 100 88 28 2 -3 -4 -4 -4 -4 -4 -4 -4 -4 -4 -4 -4 -4 -4 -4 -4 -3 -1 6 32 85 109 63 20 1 -3 -4 -4 -3 3 31 93 
93 31 3 -3 -4 -4 -4 -4 -4 -4 -4 -4 -4 -4 -3 1 22 77 109 54 12 0 -2 0 4 11 23 36 56 86 107 107 86 56 36 24 13 8 12 22 28 32 38 54 77 90 99 109 109 100 94 89 77 54 38 30 22 12 6 3 2 1 -1 -2 -3 -3 -4 -4 -4 -4 -3 -1 12 54 109 77 22 1 -3 -4 -4 -4 -4 -4 -4 -4 -4 -4 -4 -4 -4 -4 -4 -4 -4 -3 0 12 49 101 101 49 12 0 -3 -4 -3 3 31 93 
93 31 3 -3 -4 -4 -4 -4 -4 -4 -4 -4 -4 -4 -3 2 28 89 100 39 7 1 4 13 30 52 78 96 109 107 85 54 30 14 5 1 0 -1 -1 1 2 3 6 12 22 30 38 54 77 89 94 100 109 109 99 90 77 54 38 32 28 22 12 6 3 1 -1 -2 -3 -3 -2 1 22 77 109 54 12 -1 -4 -4 -4 -4 -4 -4 -4 -4 -4 -4 -4 -4 -4 -4 -4 -4 -4 -4 -3 1 20 63 109 85 32 6 -2 -3 -3 3 31 93 
93 31 3 -3 -4 -4 -4 -4 -4 -4 -4 -4 -4 -4 -3 3 32 94 95 36 12 15 30 54 85 107 109 96 78 52 30 13 4 0 -2 -3 -3 -4 -4 -3 -3 -3 -2 -1 1 3 6 12 22 28 32 38 54 77 90 99 109 109 100 94 89 77 54 38 30 22 12 6 3 3 2 6 30 89 100 38 6 -2 -4 -4 -4 -4 -4 -4 -4 -4 -4 -4 -4 -4 -4 -4 -4 -4 -4 -4 -4 -2 5 32 85 109 65 22 3 -2 -2 3 31 93 
93 31 3 -3 -4 -4 -4 -4 -4 -4 -4 -4 -4 -4 -2 6 39 102 97 46 37 56 86 107 107 86 56 36 23 11 4 0 -2 -3 -4 -4 -4 -4 -4 -4 -4 -4 -4 -4 -3 -3 -2 -1 1 2 3 6 12 22 30 38 54 77 89 94 100 109 109 99 90 77 54 38 32 28 23 19 40 97 96 33 4 -3 -4 -4 -4 -4 -4 -4 -4 -4 -4 -4 -4 -4 -4 -4 -4 -4 -4 -4 -4 -3 0 12 48 101 104 58 18 1 -1 3 31 93 
93 31 3 -3 -4 -4 -4 -4 -4 -4 -4 -4 -4 -3 0 14 58 121 111 81 91 108 107 86 54 30 14 5 1 -1 -2 -3 -4 -4 -4 -4 -4 -4 -4 -4 -4 -4 -4 -4 -4 -4 -4 -4 -3 -3 -3 -2 -1 1 3 6 12 22 28 32 38 54 77 90 99 109 109 100 94 89 78 61 70 114 97 31 3 -3 -4 -4 -4 -4 -4 -4 -4 -4 -4 -4 -4 -4 -4 -4 -4 -4 -4 -4 -4 -4 -3 1 18 58 104 101 49 12 0 4 31 93 
93 31 3 -3 -4 -4 -4 -4 -4 -4 -4 -4 -4 -2 4 30 92 147 136 119 108 85 54 30 13 4 0 -2 -3 -4 -4 -4 -4 -4 -4 -4 -4 -4 -4 -4 -4 -4 -4 -4 -4 -4 -4 -4 -4 -4 -4 -4 -4 -3 -3 -2 -1 1 2 3 6 12 22 30 38 54 77 89 94 100 110 114 122 144 101 31 3 -3 -4 -4 -4 -4 -4 -4 -4 -4 -4 -4 -4 -4 -4 -4 -4 -4 -4 -4 -4 -4 -4 -2 3 22 65 109 85 32 7 5 31 93 
93 31 3 -3 -4 -4 -4 -4 -4 -4 -4 -4 -3 0 13 55 118 132 105 80 52 30 13 4 0 -2 -3 -4 -4 -4 -4 -4 -4 -4 -4 -4 -4 -4 -4 -4 -4 -4 -4 -4 -4 -4 -4 -4 -4 -4 -4 -4 -4 -4 -4 -4 -4 -3 -3 -3 -2 -1 1 3 6 12 22 28 32 38 55 82 111 143 101 31 3 -3 -4 -4 -4 -4 -4 -4 -4 -4 -4 -4 -4 -4 -4 -4 -4 -4 -4 -4 -4 -4 -4 -4 -2 6 32 85 109 65 24 11 32 93 
93 31 3 -3 -4 -4 -4 -4 -4 -4 -4 -4 -2 5 32 87 114 74 41 24 12 4 0 -2 -3 -4 -4 -4 -4 -4 -4 -4 -4 -4 -4 -4 -4 -4 -4 -4 -4 -4 -4 -4 -4 -4 -4 -4 -4 -4 -4 -4 -4 -4 -4 -4 -4 -4 -4 -4 -4 -4 -3 -3 -2 -1 1 2 3 6 13 29 60 112 96 31 3 -3 -4 -4 -4 -4 -4 -4 -4 -4 -4 -4 -4 -4 -4 -4 -4 -4 -4 -4 -4 -4 -4 -4 -3 0 12 48 101 104 59 26 37 94 
93 31 3 -3 -4 -4 -4 -4 -4 -4 -4 -3 1 20 63 109 86 34 10 2 -1 -2 -3 -4 -4 -4 -4 -4 -4 -4 -4 -4 -4 -4 -4 -4 -4 -4 -4 -4 -4 -4 -4 -4 -4 -4 -4 -4 -4 -4 -4 -4 -4 -4 -4 -4 -4 -4 -4 -4 -4 -4 -4 -4 -4 -4 -3 -3 -3 -2 0 9 37 98 94 31 3 -3 -4 -4 -4 -4 -4 -4 -4 -4 -4 -4 -4 -4 -4 -4 -4 -4 -4 -4 -4 -4 -4 -4 -4 -3 1 18 58 104 101 56 47 96 
94 31 3 -3 -4 -4 -4 -4 -4 -4 -3 0 12 49 101 101 49 12 0 -2 -3 -4 -4 -4 -4 -4 -4 -4 -4 -4 -4 -4 -4 -4 -4 -4 -4 -4 -4 -4 -4 -4 -4 -4 -4 -4 -4 -4 -4 -4 -4 -4 -4 -4 -4 -4 -4 -4 -4 -4 -4 -4 -4 -4 -4 -4 -4 -4 -4 -4 -2 4 32 94 94 31 3 -3 -4 -4 -4 -4 -4 -4 -4 -4 -4 -4 -4 -4 -4 -4 -4 -4 -4 -4 -4 -4 -4 -4 -4 -4 -2 3 22 65 110 92 66 101 
95 31 3 -3 -4 -4 -4 -4 -4 -4 -2 6 32 85 109 63 20 1 -3 -4 -4 -4 -4 -4 -4 -4 -4 -4 -4 -4 -4 -4 -4 -4 -4 -4 -4 -4 -4 -4 -4 -4 -4 -4 -4 -4 -4 -4 -4 -4 -4 -4 -4 -4 -4 -4 -4 -4 -4 -4 -4 -4 -4 -4 -4 -4 -4 -4 -4 -4 -3 3 31 93 95 33 4 -2 -4 -4 -4 -4 -4 -4 -4 -4 -4 -4 -4 -4 -4 -4 -4 -4 -4 -4 -4 -4 -4 -4 -4 -4 -4 -2 6 32 85 114 95 112 
97 31 3 -3 -4 -4 -4 -4 -4 -2 3 22 65 110 86 33 6 -1 -3 -4 -4 -4 -4 -4 -4 -4 -4 -4 -4 -4 -4 -4 -4 -4 -4 -4 -4 -4 -4 -4 -4 -4 -4 -4 -4 -4 -4 -4 -4 -4 -4 -4 -4 -4 -4 -4 -4 -4 -4 -4 -4 -4 -4 -4 -4 -4 -4 -4 -4 -4 -2 4 31 93 103 42 8 -1 -3 -4 -4 -4 -4 -4 -4 -4 -4 -4 -4 -4 -4 -4 -4 -4 -4 -4 -4 -4 -4 -4 -4 -4 -4 -3 0 12 49 104 126 132 
100 31 3 -3 -4 -4 -4 -4 -2 3 21 60 107 106 56 19 5 0 -2 -3 -3 -3 -3 -3 -3 -3 -3 -3 -3 -4 -4 -4 -4 -4 -4 -4 -4 -4 -4 -4 -4 -4 -4 -4 -4 -4 -4 -4 -4 -4 -4 -4 -4 -4 -4 -4 -4 -4 -4 -4 -4 -4 -4 -4 -4 -4 -4 -4 -4 -3 0 9 37 98 124 70 25 6 0 -2 -3 -4 -4 -4 -4 -4 -4 -4 -4 -4 -4 -4 -4 -4 -4 -4 -4 -4 -4 -4 -4 -4 -4 -4 -3 1 20 64 122 149 
101 31 3 -3 -4 -4 -4 -2 3 21 60 113 127 90 52 34 23 12 6 4 3 3 3 3 3 3 3 2 1 -1 -2 -3 -3 -3 -3 -3 -3 -3 -3 -3 -4 -4 -4 -4 -4 -4 -4 -4 -4 -4 -4 -4 -4 -4 -4 -4 -4 -4 -4 -4 -4 -4 -4 -4 -4 -4 -4 -3 -2 1 12 32 65 118 150 119 67 33 14 4 0 -3 -4 -4 -4 -4 -4 -4 -4 -4 -4 -4 -4 -4 -4 -4 -4 -4 -4 -4 -4 -4 -4 -4 -4 -2 5 32 92 147 
99 31 3 -3 -4 -4 -2 3 21 60 115 150 138 113 98 90 77 54 38 33 31 31 31 31 31 31 30 28 22 12 6 4 3 3 3 3 3 3 2 1 -1 -2 -3 -3 -3 -3 -3 -3 -3 -3 -3 -3 -4 -4 -4 -4 -4 -4 -4 -4 -4 -4 -4 -4 -4 -3 -2 0 5 20 49 85 111 120 120 123 113 87 55 30 11 1 -2 -3 -4 -4 -4 -4 -4 -4 -4 -4 -4 -4 -4 -4 -4 -4 -4 -4 -4 -4 -4 -4 -4 -3 0 14 58 125 
95 31 3 -3 -3 -2 3 21 59 106 123 112 101 96 95 100 109 109 100 95 94 93 93 93 93 93 92 88 77 54 38 33 31 31 31 31 31 30 28 22 12 6 4 3 3 3 3 3 3 3 2 1 -1 -2 -3 -3 -3 -3 -3 -3 -3 -3 -3 -3 -3 0 4 13 32 63 101 109 88 59 48 59 87 108 107 84 49 20 5 0 -2 -3 -4 -4 -4 -4 -4 -4 -4 -4 -4 -4 -4 -4 -4 -4 -4 -4 -4 -4 -4 -4 -2 6 39 104 
94 31 3 -2 -1 3 21 59 103 105 68 42 33 31 33 38 54 77 88 92 93 93 93 93 93 94 95 100 109 109 100 95 94 93 93 93 93 92 88 77 54 38 33 31 31 31 31 31 31 30 28 22 12 6 4 3 3 3 3 3 3 2 1 0 2 12 30 55 86 109 101 63 33 15 9 14 30 55 87 109 101 63 32 13 4 0 -3 -4 -4 -4 -4 -4 -4 -4 -4 -4 -4 -4 -4 -4 -4 -4 -4 -4 -4 -4 -3 4 33 96 
93 31 4 0 6 23 59 103 103 60 23 8 4 3 4 6 12 22 28 30 31 31 31 31 31 31 33 38 54 77 88 92 93 93 93 93 94 95 100 109 109 100 95 94 93 93 93 93 93 92 88 77 54 38 33 31 31 31 31 31 30 28 23 16 23 49 84 107 107 84 49 20 5 0 -1 0 4 14 32 63 101 109 86 55 30 11 1 -2 -3 -4 -4 -4 -4 -4 -4 -4 -4 -4 -4 -4 -4 -4 -4 -4 -4 -4 -3 3 31 94 
94 32 9 13 32 65 104 103 59 21 3 -1 -2 -3 -3 -2 -1 1 2 3 3 3 3 3 3 3 4 6 12 22 28 30 31 31 31 31 31 33 38 54 77 88 92 93 93 93 93 93 94 95 100 109 109 100 95 94 93 93 93 93 92 89 79 65 74 104 110 87 55 30 11 1 -2 -3 -4 -3 -2 0 5 20 49 84 107 107 84 49 20 5 0 -2 -3 -4 -4 -4 -4 -4 -4 -4 -4 -4 -4 -4 -4 -4 -4 -4 -3 3 31 93 
95 38 26 50 85 109 100 58 21 3 -2 -3 -4 -4 -4 -4 -4 -3 -3 -3 -3 -3 -3 -3 -3 -3 -3 -2 -1 1 2 3 3 3 3 3 3 4 6 12 22 28 30 31 31 31 31 31 31 33 38 54 77 88 92 93 93 93 93 94 95 102 118 132 134 110 66 33 14 4 0 -3 -4 -4 -4 -4 -4 -3 -2 1 11 30 55 86 109 101 63 32 13 4 0 -3 -4 -4 -4 -4 -4 -4 -4 -4 -4 -4 -4 -4 -4 -4 -3 3 31 93 
100 55 65 101 109 85 48 18 3 -2 -4 -4 -4 -4 -4 -4 -4 -4 -4 -4 -4 -4 -4 -4 -4 -4 -4 -4 -4 -3 -3 -3 -3 -3 -3 -3 -3 -3 -2 -1 1 2 3 3 3 3 3 3 3 4 6 12 22 28 30 31 31 31 31 31 33 44 78 135 133 70 25 6 0 -2 -3 -4 -4 -4 -4 -4 -4 -4 -4 -3 0 4 13 32 63 101 109 86 55 30 11 1 -2 -3 -4 -4 -4 -4 -4 -4 -4 -4 -4 -4 -4 -4 -3 3 31 94 
113 91 109 105 65 32 12 1 -2 -4 -4 -4 -4 -4 -4 -4 -4 -4 -4 -4 -4 -4 -4 -4 -4 -4 -4 -4 -4 -4 -4 -4 -4 -4 -4 -4 -4 -4 -4 -4 -3 -3 -3 -3 -3 -3 -3 -3 -3 -3 -2 -1 1 2 3 3 3 3 3 3 5 13 44 108 108 42 8 -1 -3 -4 -4 -4 -4 -4 -4 -4 -4 -4 -4 -4 -3 -2 0 5 20 49 84 107 107 84 49 20 5 0 -2 -3 -4 -4 -4 -4 -4 -4 -4 -4 -4 -4 -3 3 31 95 
138 127 106 60 23 6 0 -3 -4 -4 -4 -4 -4 -4 -4 -4 -4 -4 -4 -4 -4 -4 -4 -4 -4 -4 -4 -4 -4 -4 -4 -4 -4 -4 -4 -4 -4 -4 -4 -4 -4 -4 -4 -4 -4 -4 -4 -4 -4 -4 -4 -4 -3 -3 -3 -3 -3 -3 -3 -3 -1 5 34 97 97 33 4 -2 -4 -4 -4 -4 -4 -4 -4 -4 -4 -4 -4 -4 -4 -4 -3 -2 1 11 30 55 86 109 101 63 32 14 4 0 -2 -3 -4 -4 -4 -4 -4 -4 -4 -4 -3 3 31 98 
151 115 60 21 3 -1 -3 -4 -4 -4 -4 -4 -4 -4 -4 -4 -4 -4 -4 -4 -4 -4 -4 -4 -4 -4 -4 -4 -4 -4 -4 -4 -4 -4 -4 -4 -4 -4 -4 -4 -4 -4 -4 -4 -4 -4 -4 -4 -4 -4 -4 -4 -4 -4 -4 -4 -4 -4 -4 -4 -3 3 31 94 94 31 3 -3 -4 -4 -4 -4 -4 -4 -4 -4 -4 -4 -4 -4 -4 -4 -4 -4 -3 0 4 13 32 63 101 109 87 55 30 13 4 0 -3 -4 -4 -4 -4 -4 -4 -4 -3 3 31 101 
129 69 23 3 -2 -4 -4 -4 -4 -4 -4 -4 -4 -4 -4 -4 -4 -4 -4 -4 -4 -4 -4 -4 -4 -4 -4 -4 -4 -4 -4 -4 -4 -4 -4 -4 -4 -4 -4 -4 -4 -4 -4 -4 -4 -4 -4 -4 -4 -4 -4 -4 -4 -4 -4 -4 -4 -4 -4 -4 -3 3 31 93 93 31 3 -3 -4 -4 -4 -4 -4 -4 -4 -4 -4 -4 -4 -4 -4 -4 -4 -4 -4 -3 -2 0 5 20 49 84 107 107 86 54 29 11 1 -2 -3 -4 -4 -4 -4 -4 -3 3 31 99 
105 42 8 -1 -3 -4 -4 -4 -4 -4 -4 -4 -4 -4 -4 -4 -4 -4 -4 -4 -4 -4 -4 -4 -4 -4 -4 -4 -4 -4 -4 -4 -4 -4 -4 -4 -4 -4 -4 -4 -4 -4 -4 -4 -4 -4 -4 -4 -4 -4 -4 -4 -4 -4 -4 -4 -4 -4 -4 -4 -3 3 31 93 93 31 3 -3 -4 -4 -4 -4 -4 -4 -4 -4 -4 -4 -4 -4 -4 -4 -4 -4 -4 -4 -4 -3 -2 1 11 29 54 86 107 107 84 49 20 5 0 -2 -3 -3 -4 -4 -3 3 31 95 
96 33 4 -2 -4 -4 -4 -4 -4 -4 -4 -4 -4 -4 -4 -4 -4 -4 -4 -4 -4 -4 -4 -4 -4 -4 -4 -4 -4 -4 -4 -4 -4 -4 -4 -4 -4 -4 -4 -4 -4 -4 -4 -4 -4 -4 -4 -4 -4 -4 -4 -4 -4 -4 -4 -4 -4 -4 -4 -4 -3 3 31 93 93 31 3 -3 -4 -4 -4 -4 -4 -4 -4 -4 -4 -4 -4 -4 -4 -4 -4 -4 -4 -4 -4 -4 -4 -3 0 4 13 30 55 87 109 102 64 33 14 6 3 1 -1 -2 -1 4 31 94 
94 31 3 -3 -4 -4 -4 -4 -4 -4 -4 -4 -4 -4 -4 -4 -4 -4 -4 -4 -4 -4 -4 -4 -4 -4 -4 -4 -4 -4 -4 -4 -4 -4 -4 -4 -4 -4 -4 -4 -4 -4 -4 -4 -4 -4 -4 -4 -4 -4 -4 -4 -4 -4 -4 -4 -4 -4 -4 -4 -3 3 31 93 93 31 3 -3 -4 -4 -4 -4 -4 -4 -4 -4 -4 -4 -4 -4 -4 -4 -4 -4 -4 -4 -4 -4 -4 -4 -3 -2 0 4 15 34 67 108 116 92 58 38 30 22 12 6 4 9 34 95 
94 31 3 -3 -4 -4 -4 -4 -4 -4 -4 -4 -4 -4 -4 -4 -4 -4 -4 -4 -4 -4 -4 -4 -4 -4 -4 -4 -4 -4 -4 -4 -4 -4 -4 -4 -4 -4 -4 -4 -4 -4 -4 -4 -4 -4 -4 -4 -4 -4 -4 -4 -4 -4 -4 -4 -4 -4 -4 -4 -3 3 31 93 93 31 3 -3 -4 -4 -4 -4 -4 -4 -4 -4 -4 -4 -4 -4 -4 -4 -4 -4 -4 -4 -4 -4 -4 -4 -4 -3 -2 0 6 16 38 81 128 147 127 103 91 77 54 38 31 30 47 100 
97 32 4 -1 -3 -3 -3 -3 -3 -4 -4 -4 -4 -4 -4 -4 -4 -4 -4 -4 -4 -4 -4 -4 -4 -4 -4 -4 -4 -4 -4 -4 -4 -4 -4 -4 -4 -4 -4 -4 -4 -4 -4 -4 -4 -4 -4 -4 -4 -4 -4 -4 -4 -4 -4 -4 -4 -4 -4 -4 -3 3 31 93 93 31 3 -3 -4 -4 -4 -4 -4 -4 -4 -4 -4 -4 -4 -4 -4 -4 -4 -4 -4 -4 -4 -4 -4 -3 -2 0 4 12 24 38 62 100 129 128 110 99 101 109 109 99 91 84 84 119 
106 38 11 4 3 3 3 2 1 -1 -2 -3 -3 -3 -3 -3 -3 -4 -4 -4 -4 -4 -4 -4 -4 -4 -4 -4 -4 -4 -4 -4 -4 -4 -4 -4 -4 -4 -4 -4 -4 -4 -4 -4 -4 -4 -4 -4 -4 -4 -4 -4 -4 -4 -4 -4 -4 -4 -4 -4 -3 3 31 93 93 31 3 -3 -4 -4 -4 -4 -4 -4 -4 -4 -4 -4 -4 -4 -4 -4 -4 -4 -4 -4 -3 -2 -1 1 5 14 30 52 78 96 110 109 88 58 40 34 39 54 77 90 100 113 129 149 
121 63 38 32 31 31 30 28 22 12 6 4 3 3 3 2 1 -1 -2 -3 -3 -3 -3 -3 -3 -3 -4 -4 -4 -4 -4 -4 -4 -4 -4 -4 -4 -4 -4 -4 -4 -4 -4 -4 -4 -4 -4 -4 -4 -4 -4 -4 -4 -4 -4 -4 -4 -4 -4 -4 -3 3 31 93 93 31 3 -3 -4 -4 -4 -4 -4 -4 -4 -4 -4 -4 -4 -4 -4 -4 -4 -4 -3 -2 0 4 11 23 36 56 86 107 109 96 78 52 30 14 6 4 6 12 22 30 39 60 100 144 
147 116 99 94 93 93 92 88 77 54 38 33 31 31 30 28 22 12 6 4 3 3 3 3 2 1 -1 -2 -3 -3 -3 -3 -3 -3 -4 -4 -4 -4 -4 -4 -4 -4 -4 -4 -4 -4 -4 -4 -4 -4 -4 -4 -4 -4 -4 -4 -4 -4 -4 -4 -3 3 31 93 93 31 3 -3 -4 -4 -4 -4 -4 -4 -4 -4 -4 -4 -4 -4 -4 -3 -2 -1 1 5 14 30 52 78 96 109 107 86 56 36 23 11 4 0 -2 -2 -2 -1 1 3 7 19 54 119 
144 116 99 94 93 94 95 100 109 109 100 95 93 93 92 88 77 54 38 33 31 31 31 30 28 22 12 6 4 3 3 3 2 1 -1 -2 -3 -3 -3 -3 -3 -3 -3 -4 -4 -4 -4 -4 -4 -4 -4 -4 -4 -4 -4 -4 -4 -4 -4 -4 -3 3 31 93 93 31 3 -3 -4 -4 -4 -4 -4 -4 -4 -4 -4 -4 -4 -3 -2 0 4 11 23 36 56 86 107 109 96 78 52 30 14 5 1 -1 -2 -3 -4 -4 -4 -4 -3 -3 -1 6 36 105 
113 62 38 32 31 31 33 38 54 77 88 92 93 93 95 100 109 109 100 95 94 93 93 92 88 77 54 38 33 31 31 30 28 22 12 6 4 3 3 3 3 2 1 -1 -2 -3 -3 -3 -3 -3 -3 -4 -4 -4 -4 -4 -4 -4 -4 -4 -3 3 31 93 93 31 3 -3 -4 -4 -4 -4 -4 -4 -4 -4 -4 -3 -2 0 4 13 30 52 78 96 109 107 86 56 36 23 11 4 0 -2 -3 -4 -4 -4 -4 -4 -4 -4 -4 -4 -2 3 32 97 
98 38 11 4 3 3 4 6 12 22 28 30 31 31 33 38 54 77 88 92 93 93 94 95 100 109 109 100 95 93 93 92 88 77 54 38 33 31 31 31 30 28 22 12 6 4 3 3 3 2 1 -1 -2 -3 -3 -3 -3 -3 -3 -3 -2 3 31 93 93 31 3 -3 -4 -4 -4 -4 -4 -4 -3 -2 -1 1 5 14 30 54 85 107 109 96 78 52 30 14 5 1 -1 -2 -3 -4 -4 -4 -4 -4 -4 -4 -4 -4 -4 -4 -3 3 31 94 
94 32 4 -1 -3 -3 -3 -2 -1 1 2 3 3 3 4 6 12 22 28 30 31 31 31 33 38 54 77 88 92 93 93 95 100 109 109 100 95 94 93 93 92 88 77 54 38 33 31 31 30 28 22 12 6 4 3 3 3 3 2 1 0 5 32 94 94 31 3 -3 -4 -4 -4 -4 -3 -2 0 4 11 23 36 56 86 107 107 86 56 36 23 11 4 0 -2 -3 -4 -4 -4 -4 -4 -4 -4 -4 -4 -4 -4 -4 -4 -4 -3 3 31 93 
93 31 3 -3 -4 -4 -4 -4 -4 -3 -3 -3 -3 -3 -3 -2 -1 1 2 3 3 3 3 4 6 12 22 28 30 31 31 33 38 54 77 88 92 93 93 94 95 100 109 109 100 95 93 93 92 88 77 54 38 33 31 31 31 30 28 22 13 14 39 98 97 33 4 -2 -4 -3 -2 -1 1 5 14 30 52 78 96 109 107 85 54 30 14 5 1 -1 -2 -3 -4 -4 -4 -4 -4 -4 -4 -4 -4 -4 -4 -4 -4 -4 -4 -4 -3 3 31 93 
93 31 3 -3 -4 -4 -4 -4 -4 -4 -4 -4 -4 -4 -4 -4 -4 -3 -3 -3 -3 -3 -3 -3 -2 -1 1 2 3 3 3 4 6 12 22 28 30 31 31 31 33 38 54 77 88 92 93 93 95 100 109 109 100 95 94 93 93 92 88 77 55 46 64 115 108 42 8 0 -2 0 4 11 23 36 56 86 107 109 96 78 52 30 13 4 0 -2 -3 -4 -4 -4 -4 -4 -4 -4 -4 -4 -4 -4 -4 -4 -4 -4 -4 -4 -4 -4 -3 3 31 93 
93 31 3 -3 -4 -4 -4 -4 -4 -4 -4 -4 -4 -4 -4 -4 -4 -4 -4 -4 -4 -4 -4 -4 -4 -4 -3 -3 -3 -3 -3 -3 -2 -1 1 2 3 3 3 3 4 6 12 22 28 30 31 31 33 38 54 77 88 92 93 93 94 95 100 109 110 104 115 145 133 70 26 9 7 14 30 52 78 96 109 107 86 56 36 23 11 4 0 -2 -3 -4 -4 -4 -4 -4 -4 -4 -4 -4 -4 -4 -4 -4 -4 -4 -4 -4 -4 -4 -4 -4 -3 3 31 93 
93 31 3 -3 -4 -4 -4 -4 -4 -4 -4 -4 -4 -4 -4 -4 -4 -4 -4 -4 -4 -4 -4 -4 -4 -4 -4 -4 -4 -4 -4 -4 -4 -4 -3 -3 -3 -3 -3 -3 -3 -2 -1 1 2 3 3 3 4 6 12 22 28 30 31 31 31 33 38 54 77 89 98 112 126 111 69 44 41 57 86 107 109 96 78 52 30 14 5 1 -1 -2 -3 -4 -4 -4 -4 -4 -4 -4 -4 -4 -4 -4 -4 -4 -4 -4 -4 -4 -4 -4 -4 -4 -4 -4 -3 3 31 93 
93 31 3 -3 -4 -4 -4 -4 -4 -4 -4 -4 -4 -4 -4 -4 -4 -4 -4 -4 -4 -4 -4 -4 -4 -4 -4 -4 -4 -4 -4 -4 -4 -4 -4 -4 -4 -4 -4 -4 -4 -4 -4 -3 -3 -3 -3 -3 -3 -2 -1 1 2 3 3 3 3 4 6 12 22 28 33 42 69 111 127 114 106 111 107 86 56 36 23 11 4 0 -2 -3 -4 -4 -4 -4 -4 -4 -4 -4 -4 -4 -4 -4 -4 -4 -4 -4 -4 -4 -4 -4 -4 -4 -4 -4 -4 -4 -3 3 31 93 
93 31 3 -3 -4 -4 -4 -4 -4 -4 -4 -4 -4 -4 -4 -4 -4 -4 -4 -4 -4 -4 -4 -4 -4 -4 -4 -4 -4 -4 -4 -4 -4 -4 -4 -4 -4 -4 -4 -4 -4 -4 -4 -4 -4 -4 -4 -4 -4 -4 -4 -3 -3 -3 -3 -3 -3 -3 -2 -1 1 2 4 8 25 70 134 144 109 81 53 30 14 5 1 -1 -2 -3 -4 -4 -4 -4 -4 -4 -4 -4 -4 -4 -4 -4 -4 -4 -4 -4 -4 -4 -4 -4 -4 -4 -4 -4 -4 -4 -4 -4 -3 3 31 93 
93 31 3 -3 -4 -4 -4 -4 -4 -4 -4 -4 -4 -4 -4 -4 -4 -4 -4 -4 -4 -4 -4 -4 -4 -4 -4 -4 -4 -4 -4 -4 -4 -4 -4 -4 -4 -4 -4 -4 -4 -4 -4 -4 -4 -4 -4 -4 -4 -4 -4 -4 -4 -4 -4 -4 -4 -4 -4 -3 -3 -3 -2 0 9 42 109 115 60 29 13 4 0 -2 -3 -3 -4 -4 -4 -4 -4 -4 -4 -4 -4 -4 -4 -4 -4 -4 -4 -4 -4 -4 -4 -4 -4 -4 -4 -4 -4 -4 -4 -4 -4 -4 -3 3 31 93 
94 32 4 -1 -3 -3 -3 -3 -3 -3 -3 -3 -3 -3 -3 -3 -3 -3 -3 -3 -3 -3 -3 -3 -3 -3 -3 -3 -3 -3 -3 -3 -3 -3 -3 -3 -3 -3 -3 -3 -3 -3 -3 -3 -3 -3 -3 -3 -3 -3 -3 -3 -3 -3 -3 -3 -3 -3 -3 -3 -3 -3 -2 -1 5 34 98 99 39 10 1 -1 -2 -2 -3 -3 -3 -3 -3 -3 -3 -3 -3 -3 -3 -3 -3 -3 -3 -3 -3 -3 -3 -3 -3 -3 -3 -3 -3 -3 -3 -3 -3 -3 -3 -3 -1 4 32 94 
99 38 11 4 3 3 3 3 3 3 3 3 3 3 3 3 3 3 3 3 3 3 3 3 3 3 3 3 3 3 3 3 3 3 3 3 3 3 3 3 3 3 3 3 3 3 3 3 3 3 3 3 3 3 3 3 3 3 3 3 3 3 3 4 11 38 99 99 39 12 5 3 3 3 3 3 3 3 3 3 3 3 3 3 3 3 3 3 3 3 3 3 3 3 3 3 3 3 3 3 3 3 3 3 3 3 4 11 38 99 
116 63 38 32 31 31 31 31 31 31 31 31 31 31 31 31 31 31 31 31 31 31 31 31 31 31 31 31 31 31 31 31 31 31 31 31 31 31 31 31 31 31 31 31 31 31 31 31 31 31 31 31 31 31 31 31 31 31 31 31 31 31 31 32 38 62 116 116 63 38 32 31 31 31 31 31 31 31 31 31 31 31 31 31 31 31 31 31 31 31 31 31 31 31 31 31 31 31 31 31 31 31 31 31 31 31 32 38 63 116 
154 116 99 94 93 93 93 93 93 93 93 93 93 93 93 93 93 93 93 93 93 93 93 93 93 93 93 93 93 93 94 95 98 101 99 95 94 93 93 93 93 93 93 93 93 93 93 94 96 101 101 96 94 93 93 93 93 93 93 93 93 93 93 94 98 113 143 143 113 98 94 93 93 93 93 93 93 93 93 93 93 93 93 93 93 93 93 93 93 94 95 98 101 99 95 94 93 93 93 93 93 94 95 98 101 99 96 99 116 154 
