P2
110 110
255
150 126 107 99 96 95 95 95 95 95 95 95 95 95 95 95 95 95 95 95 95 95 95 95 95 95 95 95 96 100 108 122 135 135 122 108 100 96 95 95 95 95 95 95 95 96 98 105 120 136 135 119 105 98 96 95 95 95 95 95 95 95 95 95 96 99 101 101 99 96 95 95 95 95 95 95 95 95 95 95 95 95 95 95 95 95 95 96 98 104 116 132 137 124 109 100 96 95 95 95 97 102 114 131 138 126 114 113 128 150 
126 93 66 55 51 50 50 50 50 50 50 50 50 50 50 50 50 50 50 50 50 50 50 50 50 50 50 51 54 62 81 110 130 118 89 67 56 52 50 50 50 50 50 50 50 52 56 69 96 128 126 92 66 55 51 50 50 50 50 50 50 50 50 50 49 49 48 48 49 49 50 50 50 50 50 50 50 50 50 50 50 50 50 50 50 50 50 52 56 69 96 126 125 96 70 57 52 50 50 51 54 64 87 120 129 102 77 74 95 127 
107 66 35 22 18 17 17 17 17 17 17 17 17 17 17 17 17 17 17 17 17 17 17 17 17 17 18 20 26 40 70 105 112 83 49 29 21 18 17 17 17 17 17 17 17 19 25 42 77 117 109 66 35 22 18 17 17 17 17 17 17 17 17 17 16 16 16 16 16 16 17 17 17 17 17 17 17 17 17 17 17 17 17 17 17 17 18 20 27 47 84 114 98 60 34 22 18 17 17 18 23 36 67 106 109 72 44 42 68 107 
99 55 22 9 5 4 3 3 3 3 3 3 3 3 3 3 3 3 3 3 3 3 3 3 3 4 5 9 20 45 82 107 90 52 24 11 6 4 3 3 3 3 3 4 4 7 16 38 79 118 102 53 22 9 5 4 3 3 3 3 3 3 3 3 3 3 3 3 3 3 3 3 3 3 3 3 3 3 3 3 3 3 3 3 3 4 5 8 19 46 88 106 75 36 15 7 4 4 4 5 11 28 63 103 95 53 27 28 56 99 
96 51 18 5 1 0 0 0 0 0 0 0 0 0 0 0 0 0 0 0 0 0 0 0 0 0 3 11 31 65 99 98 63 29 11 3 0 0 0 0 0 0 0 0 1 6 19 48 95 128 101 49 17 4 0 0 0 0 0 0 0 0 0 0 0 0 0 0 0 0 0 0 0 0 0 0 0 0 0 0 0 0 0 0 0 0 1 7 23 57 97 97 56 22 7 1 0 0 0 2 10 31 71 104 83 40 19 22 52 96 
95 50 17 4 0 -1 -1 -1 -1 -1 -1 -1 -1 -1 -1 -1 -1 -1 -1 -1 -1 -1 -1 -1 0 1 7 21 51 89 103 76 39 15 4 0 -1 -1 -1 -1 -1 -1 -1 0 2 10 30 68 115 136 102 49 17 4 0 -1 -1 -1 -1 -1 -1 -1 -1 -1 -1 -1 -1 -1 -1 -1 -1 -1 -1 -1 -1 -1 -1 -1 -1 -1 -1 -1 -1 -1 -1 0 2 10 33 73 103 83 41 14 3 0 -1 -1 0 2 12 38 82 103 70 31 14 20 51 95 
95 50 17 3 0 -1 -1 -1 -1 -1 -1 -1 -1 -1 -1 -1 -1 -1 -1 -1 -1 -1 -1 -1 0 4 15 39 76 103 88 50 21 6 0 -1 -1 -1 -1 -1 -1 -1 -1 0 5 18 47 91 128 136 104 52 18 4 0 -1 -1 -1 -1 -1 -1 -1 -1 -1 -1 -1 -1 -1 -1 -1 -1 -1 -1 -1 -1 -1 -1 -1 -1 -1 -1 -1 -1 -1 -1 0 4 18 48 89 101 66 28 8 1 -1 -1 -1 0 3 16 48 91 99 58 23 11 19 50 95 
95 50 17 3 0 -1 -1 -1 -1 -1 -1 -1 -1 -1 -1 -1 -1 -1 -1 -1 -1 -1 -1 0 2 10 29 63 98 98 63 29 10 2 0 -1 -1 -1 -1 -1 -1 -1 0 2 11 32 70 108 124 126 107 59 22 5 0 -1 -1 -1 -1 -1 -1 -1 -1 -1 -1 -1 -1 -1 -1 -1 -1 -1 -1 -1 -1 -1 -1 -1 -1 -1 -1 -1 -1 -1 -1 1 8 28 66 101 89 48 17 4 0 -1 -1 -1 0 5 22 58 99 91 48 18 9 18 50 95 
95 50 17 3 0 -1 -1 -1 -1 -1 -1 -1 -1 -1 -1 -1 -1 -1 -1 -1 -1 -1 -1 0 6 21 50 88 103 76 39 15 4 0 -1 -1 -1 -1 -1 -1 -1 -1 0 6 21 52 92 111 105 110 109 70 29 8 1 -1 -1 -1 -1 -1 -1 -1 -1 -1 -1 -1 -1 -1 -1 -1 -1 -1 -1 -1 -1 -1 -1 -1 -1 -1 -1 -1 -1 -1 0 3 14 40 83 103 72 32 10 1 0 -1 -1 -1 1 8 29 70 103 82 38 13 7 18 50 95 
95 50 17 3 0 -1 -1 -1 -1 -1 -1 -1 -1 -1 -1 -1 -1 -1 -1 -1 -1 -1 0 4 15 39 76 103 88 50 21 6 0 -1 -1 -1 -1 -1 -1 -1 -1 0 3 14 39 77 104 96 78 89 107 81 37 11 2 0 -1 -1 -1 -1 -1 -1 -1 -1 -1 -1 -1 -1 -1 -1 -1 -1 -1 -1 -1 -1 -1 -1 -1 -1 -1 -1 -1 -1 0 5 21 55 96 96 55 21 5 0 -1 -1 -1 0 2 12 38 82 103 70 29 10 6 18 50 95 
95 50 17 3 0 -1 -1 -1 -1 -1 -1 -1 -1 -1 -1 -1 -1 -1 -1 -1 -1 0 2 10 29 63 98 98 63 29 10 2 0 -1 -1 -1 -1 -1 -1 -1 0 1 9 28 62 98 99 70 53 71 103 88 43 14 2 0 -1 -1 -1 -1 -1 -1 -1 -1 -1 -1 -1 -1 -1 -1 -1 -1 -1 -1 -1 -1 -1 -1 -1 -1 -1 -1 -1 0 1 10 32 72 103 83 40 14 3 0 -1 -1 -1 0 3 16 48 91 99 58 22 7 5 17 50 95 
96 52 18 4 0 -1 -1 -1 -1 -1 -1 -1 -1 -1 -1 -1 -1 -1 -1 -1 -1 0 6 21 50 88 103 76 39 15 4 0 -1 -1 -1 -1 -1 -1 -1 -1 0 4 18 46 86 103 78 45 36 59 98 93 47 16 3 0 -1 -1 -1 -1 -1 -1 -1 -1 -1 -1 -1 -1 -1 -1 -1 -1 -1 -1 -1 -1 -1 -1 -1 -1 -1 -1 -1 0 4 17 48 89 101 66 28 8 1 -1 -1 -1 -1 0 5 22 58 99 91 48 17 5 5 17 50 95 
100 56 21 5 0 -1 -1 -1 -1 -1 -1 -1 -1 -1 -1 -1 -1 -1 -1 -1 0 4 15 39 76 103 88 50 21 6 0 -1 -1 -1 -1 -1 -1 -1 -1 0 1 10 31 68 101 91 54 27 26 53 95 95 50 17 3 0 -1 -1 -1 -1 -1 -1 -1 -1 -1 -1 -1 -1 -1 -1 -1 -1 -1 -1 -1 -1 -1 -1 -1 -1 -1 -1 -1 1 8 28 66 101 89 48 17 4 0 -1 -1 -1 -1 1 8 29 69 103 82 38 12 3 4 17 49 96 
107 66 28 9 2 0 -1 -1 -1 -1 -1 -1 -1 -1 -1 -1 -1 -1 -1 0 2 10 29 63 98 98 63 29 10 2 0 -1 -1 -1 -1 -1 -1 -1 -1 0 5 19 49 89 102 70 34 16 20 49 93 97 54 19 4 0 -1 -1 -1 -1 -1 -1 -1 -1 -1 -1 -1 -1 -1 -1 -1 -1 -1 -1 -1 -1 -1 -1 -1 -1 -1 -1 0 3 14 40 83 103 72 32 10 1 0 -1 -1 -1 0 2 12 38 82 103 70 29 9 2 4 16 49 97 
121 87 45 19 6 1 0 -1 -1 -1 -1 -1 -1 -1 -1 -1 -1 -1 -1 0 6 21 50 88 103 76 39 15 4 0 -1 -1 -1 -1 -1 -1 -1 -1 0 2 11 32 70 102 89 49 20 10 16 44 88 100 60 23 6 0 -1 -1 -1 -1 -1 -1 -1 -1 -1 -1 -1 -1 -1 -1 -1 -1 -1 -1 -1 -1 -1 -1 -1 -1 -1 -1 0 5 21 55 96 96 55 21 5 0 -1 -1 -1 -1 0 3 16 48 91 99 58 22 6 1 4 16 48 99 
134 115 74 39 16 5 0 -1 -1 -1 -1 -1 -1 -1 -1 -1 -1 -1 0 4 15 39 76 103 88 50 21 6 0 -1 -1 -1 -1 -1 -1 -1 -1 -1 0 6 21 52 91 101 68 31 11 5 12 37 80 103 70 29 8 1 -1 -1 -1 -1 -1 -1 -1 -1 -1 -1 -1 -1 -1 -1 -1 -1 -1 -1 -1 -1 -1 -1 -1 -1 -1 0 1 10 32 72 103 83 40 14 3 0 -1 -1 -1 -1 0 5 22 58 99 91 48 16 4 1 3 16 48 101 
136 130 105 69 35 13 3 0 -1 -1 -1 -1 -1 -1 -1 -1 -1 0 2 10 29 63 98 98 63 29 10 2 0 -1 -1 -1 -1 -1 -1 -1 -1 0 3 14 39 77 103 86 46 18 5 3 9 29 70 103 80 37 11 2 0 -1 -1 -1 -1 -1 -1 -1 -1 -1 -1 -1 -1 -1 -1 -1 -1 -1 -1 -1 -1 -1 -1 -1 -1 0 4 17 48 89 101 66 28 8 1 -1 -1 -1 -1 -1 1 8 29 69 103 82 38 12 2 0 3 16 48 101 
125 119 114 97 61 29 10 2 0 -1 -1 -1 -1 -1 -1 -1 -1 0 6 21 50 88 103 76 39 15 4 0 -1 -1 -1 -1 -1 -1 -1 -1 0 1 9 28 62 98 98 62 28 9 2 1 6 23 60 100 88 43 14 2 0 -1 -1 -1 -1 -1 -1 -1 -1 -1 -1 -1 -1 -1 -1 -1 -1 -1 -1 -1 -1 -1 -1 -1 -1 1 8 28 66 101 89 48 17 4 0 -1 -1 -1 -1 0 2 12 38 82 103 70 29 8 1 0 3 16 49 99 
112 94 97 107 88 51 22 8 1 0 -1 -1 -1 -1 -1 -1 0 4 15 39 76 103 88 50 21 6 0 -1 -1 -1 -1 -1 -1 -1 -1 -1 0 4 18 46 86 103 77 39 14 3 0 0 4 19 54 97 92 47 16 3 0 -1 -1 -1 -1 -1 -1 -1 -1 -1 -1 -1 -1 -1 -1 -1 -1 -1 -1 -1 -1 -1 -1 -1 0 3 14 40 83 103 72 32 10 1 0 -1 -1 -1 -1 0 3 16 48 91 99 58 22 5 0 0 3 17 49 97 
103 74 70 93 104 79 44 19 6 1 0 -1 -1 -1 -1 0 2 10 29 63 98 98 63 29 10 2 0 -1 -1 -1 -1 -1 -1 -1 -1 0 1 10 31 68 101 91 52 21 6 0 0 0 4 17 50 95 95 50 17 3 0 -1 -1 -1 -1 -1 -1 -1 -1 -1 -1 -1 -1 -1 -1 -1 -1 -1 -1 -1 -1 -1 -1 -1 0 5 21 55 96 96 55 21 5 0 -1 -1 -1 -1 -1 0 5 22 58 99 91 48 16 3 0 0 3 17 50 96 
98 62 48 67 97 101 74 41 18 6 1 0 -1 -1 -1 0 6 21 50 88 103 76 39 15 4 0 -1 -1 -1 -1 -1 -1 -1 -1 -1 0 5 19 49 89 102 70 32 11 2 0 -1 0 3 16 47 92 97 54 19 4 0 -1 -1 -1 -1 -1 -1 -1 -1 -1 -1 -1 -1 -1 -1 -1 -1 -1 -1 -1 -1 -1 -1 0 1 10 32 72 103 83 40 14 3 0 -1 -1 -1 -1 -1 1 8 29 69 103 82 38 12 2 0 0 3 17 50 95 
96 56 33 41 70 99 100 72 40 18 6 1 0 0 0 4 15 39 76 103 88 50 21 6 0 -1 -1 -1 -1 -1 -1 -1 -1 -1 0 2 11 32 70 102 89 49 19 5 0 -1 -1 0 2 14 43 88 100 60 23 6 0 -1 -1 -1 -1 -1 -1 -1 -1 -1 -1 -1 -1 -1 -1 -1 -1 -1 -1 -1 -1 -1 -1 0 4 17 48 89 101 66 28 8 1 -1 -1 -1 -1 -1 0 2 12 38 82 103 69 29 8 1 0 0 3 17 50 95 
95 52 24 22 40 72 99 99 72 40 18 6 1 0 2 10 29 63 98 98 63 29 10 2 0 -1 -1 -1 -1 -1 -1 -1 -1 -1 0 6 21 52 91 101 68 31 10 1 0 -1 -1 0 2 11 37 80 103 70 29 8 1 -1 -1 -1 -1 -1 -1 -1 -1 -1 -1 -1 -1 -1 -1 -1 -1 -1 -1 -1 -1 -1 -1 1 8 28 66 101 89 48 17 4 0 -1 -1 -1 -1 -1 0 3 16 48 91 99 58 22 5 0 -1 0 3 17 50 95 
95 51 20 11 19 40 72 99 99 72 40 18 7 4 7 21 50 88 103 76 39 15 4 0 -1 -1 -1 -1 -1 -1 -1 -1 -1 0 3 14 39 77 103 86 46 18 4 0 -1 -1 -1 -1 1 8 29 70 103 81 37 11 2 0 -1 -1 -1 -1 -1 -1 -1 -1 -1 -1 -1 -1 -1 -1 -1 -1 -1 -1 -1 -1 0 3 14 40 83 103 72 32 10 1 0 -1 -1 -1 -1 -1 0 5 22 58 99 91 48 16 3 0 -1 0 3 17 50 95 
95 50 18 6 7 18 40 72 99 99 72 41 20 12 18 40 76 103 88 50 21 6 0 -1 -1 -1 -1 -1 -1 -1 -1 -1 0 1 9 28 62 98 98 62 28 9 1 0 -1 -1 -1 -1 0 6 23 60 100 88 44 14 2 0 -1 -1 -1 -1 -1 -1 -1 -1 -1 -1 -1 -1 -1 -1 -1 -1 -1 -1 -1 -1 0 5 21 55 96 96 55 21 5 0 -1 -1 -1 -1 -1 -1 1 8 29 69 103 82 38 12 2 0 -1 0 3 17 50 95 
95 50 17 4 2 6 18 40 72 99 100 73 44 30 38 66 98 98 63 29 10 2 0 -1 -1 -1 -1 -1 -1 -1 -1 -1 0 4 18 46 86 103 77 39 14 3 0 -1 -1 -1 -1 -1 0 4 19 53 97 93 49 16 3 0 -1 -1 -1 -1 -1 -1 -1 -1 -1 -1 -1 -1 -1 -1 -1 -1 -1 -1 -1 0 1 10 32 72 103 83 40 14 3 0 -1 -1 -1 -1 -1 0 2 12 38 82 103 69 29 8 1 -1 -1 0 3 17 50 95 
95 50 17 4 0 1 6 18 40 72 100 101 80 63 70 95 104 76 39 15 4 0 -1 -1 -1 -1 -1 -1 -1 -1 -1 0 1 10 31 68 101 91 52 21 6 0 -1 -1 -1 -1 -1 -1 0 3 16 49 93 97 53 19 4 0 -1 -1 -1 -1 -1 -1 -1 -1 -1 -1 -1 -1 -1 -1 -1 -1 -1 -1 -1 0 4 17 48 89 101 66 28 8 1 -1 -1 -1 -1 -1 -1 0 3 16 48 91 99 58 22 5 0 -1 -1 0 3 17 50 95 
95 50 17 3 0 0 1 6 18 40 72 102 111 106 108 112 89 50 21 6 0 -1 -1 -1 -1 -1 -1 -1 -1 -1 -1 0 5 19 49 89 102 70 32 11 2 0 -1 -1 -1 -1 -1 -1 0 2 14 44 88 100 60 23 6 0 -1 -1 -1 -1 -1 -1 -1 -1 -1 -1 -1 -1 -1 -1 -1 -1 -1 -1 -1 1 8 28 66 101 89 48 17 4 0 -1 -1 -1 -1 -1 -1 0 5 22 58 99 91 48 16 3 0 -1 -1 0 3 17 50 95 
95 50 17 3 0 -1 0 1 6 18 41 75 111 133 133 107 64 29 10 2 0 -1 -1 -1 -1 -1 -1 -1 -1 -1 0 2 11 32 70 102 89 49 19 5 0 -1 -1 -1 -1 -1 -1 -1 0 2 11 37 81 103 70 29 8 1 -1 -1 -1 -1 -1 -1 -1 -1 -1 -1 -1 -1 -1 -1 -1 -1 -1 -1 0 3 14 40 83 103 72 32 10 1 0 -1 -1 -1 -1 -1 -1 1 8 29 69 103 82 38 12 2 0 -1 -1 0 3 17 50 95 
95 50 17 3 0 -1 -1 0 1 7 19 45 87 128 128 86 42 15 4 0 -1 -1 -1 -1 -1 -1 -1 -1 -1 -1 0 6 21 52 91 101 68 31 10 1 0 -1 -1 -1 -1 -1 -1 -1 -1 1 8 29 70 103 80 37 11 2 0 -1 -1 -1 -1 -1 -1 -1 -1 -1 -1 -1 -1 -1 -1 -1 -1 -1 0 5 21 55 96 96 55 21 5 0 -1 -1 -1 -1 -1 -1 0 2 12 38 82 103 69 29 8 1 -1 -1 -1 0 3 17 50 95 
95 50 17 3 0 -1 -1 -1 0 2 9 27 64 109 114 69 29 9 1 0 -1 -1 -1 -1 -1 -1 -1 -1 -1 0 3 14 39 77 103 86 46 18 4 0 -1 -1 -1 -1 -1 -1 -1 -1 -1 0 6 23 60 100 88 43 14 2 0 -1 -1 -1 -1 -1 -1 -1 -1 -1 -1 -1 -1 -1 -1 -1 -1 0 1 10 32 72 103 83 40 14 3 0 -1 -1 -1 -1 -1 -1 0 3 16 48 91 99 58 22 5 0 -1 -1 -1 0 3 17 50 95 
95 50 17 3 0 -1 -1 -1 -1 0 4 18 49 94 106 65 26 7 0 -1 -1 -1 -1 -1 -1 -1 -1 -1 0 1 9 28 62 98 98 62 28 9 1 0 -1 -1 -1 -1 -1 -1 -1 -1 -1 0 4 19 54 97 92 47 16 3 0 -1 -1 -1 -1 -1 -1 -1 -1 -1 -1 -1 -1 -1 -1 -1 -1 0 4 17 48 89 101 66 28 8 1 -1 -1 -1 -1 -1 -1 -1 0 5 22 58 99 91 48 16 3 0 -1 -1 -1 0 3 17 50 95 
95 50 17 3 0 -1 -1 -1 -1 0 2 12 38 82 105 72 30 9 1 -1 -1 -1 -1 -1 -1 -1 -1 -1 0 4 18 46 86 103 77 39 14 3 0 -1 -1 -1 -1 -1 -1 -1 -1 -1 -1 0 3 17 50 95 95 50 17 3 0 -1 -1 -1 -1 -1 -1 -1 -1 -1 -1 -1 -1 -1 -1 -1 -1 1 8 28 66 101 89 48 17 4 0 -1 -1 -1 -1 -1 -1 -1 1 8 29 69 103 82 38 12 2 0 -1 -1 -1 0 3 17 50 95 
95 50 17 3 0 -1 -1 -1 -1 -1 1 8 29 70 103 81 37 12 2 0 -1 -1 -1 -1 -1 -1 -1 0 1 10 31 68 101 91 52 21 6 0 -1 -1 -1 -1 -1 -1 -1 -1 -1 -1 -1 0 3 16 47 92 97 54 19 4 0 -1 -1 -1 -1 -1 -1 -1 -1 -1 -1 -1 -1 -1 -1 -1 0 3 14 40 83 103 72 32 10 1 0 -1 -1 -1 -1 -1 -1 0 2 12 38 82 103 69 29 8 1 -1 -1 -1 -1 0 3 17 50 95 
95 50 17 3 0 -1 -1 -1 -1 -1 0 6 23 59 100 89 45 15 3 0 -1 -1 -1 -1 -1 -1 -1 0 5 19 49 89 102 70 32 11 2 0 -1 -1 -1 -1 -1 -1 -1 -1 -1 -1 -1 0 2 14 43 88 100 60 23 6 0 -1 -1 -1 -1 -1 -1 -1 -1 -1 -1 -1 -1 -1 -1 -1 0 5 21 55 96 96 55 21 5 0 -1 -1 -1 -1 -1 -1 -1 0 3 16 48 91 99 58 22 5 0 -1 -1 -1 -1 0 4 18 51 96 
95 49 17 3 0 -1 -1 -1 -1 -1 0 4 18 51 95 95 51 18 4 0 -1 -1 -1 -1 -1 -1 0 2 11 32 70 102 89 49 19 5 0 -1 -1 -1 -1 -1 -1 -1 -1 -1 -1 -1 -1 0 2 11 37 80 103 70 29 8 1 -1 -1 -1 -1 -1 -1 -1 -1 -1 -1 -1 -1 -1 -1 0 1 10 32 72 103 83 40 14 3 0 -1 -1 -1 -1 -1 -1 -1 0 5 22 58 99 91 48 16 3 0 -1 -1 -1 -1 0 4 19 54 99 
96 49 16 3 0 -1 -1 -1 -1 -1 0 3 15 45 89 100 59 22 6 0 -1 -1 -1 -1 -1 -1 0 6 21 52 91 101 68 31 10 1 0 -1 -1 -1 -1 -1 -1 -1 -1 -1 -1 -1 -1 -1 1 8 29 70 103 80 37 11 2 0 -1 -1 -1 -1 -1 -1 -1 -1 -1 -1 -1 -1 -1 0 4 17 48 89 101 66 28 8 1 -1 -1 -1 -1 -1 -1 -1 -1 1 8 29 69 103 82 38 12 2 0 -1 -1 -1 -1 0 6 24 61 105 
98 48 16 3 0 -1 -1 -1 -1 -1 0 2 11 37 81 103 70 29 8 1 -1 -1 -1 -1 -1 0 3 14 39 77 103 86 46 18 4 0 -1 -1 -1 -1 -1 -1 -1 -1 -1 -1 -1 -1 -1 -1 0 6 23 60 100 88 43 14 2 0 -1 -1 -1 -1 -1 -1 -1 -1 -1 -1 -1 -1 -1 1 8 28 66 101 89 48 17 4 0 -1 -1 -1 -1 -1 -1 -1 0 2 12 38 82 103 69 29 8 1 -1 -1 -1 -1 0 2 11 33 75 115 
100 47 16 3 0 -1 -1 -1 -1 -1 -1 1 8 29 70 103 81 37 11 2 0 -1 -1 -1 0 1 9 28 62 98 98 62 28 9 1 0 -1 -1 -1 -1 -1 -1 -1 -1 -1 -1 -1 -1 -1 -1 0 4 19 54 97 92 47 16 3 0 -1 -1 -1 -1 -1 -1 -1 -1 -1 -1 -1 -1 0 3 14 40 83 103 72 32 10 1 0 -1 -1 -1 -1 -1 -1 -1 0 3 16 48 91 99 58 22 5 0 -1 -1 -1 -1 0 6 21 51 97 128 
100 47 16 3 0 -1 -1 -1 -1 -1 -1 0 6 22 59 100 89 45 15 3 0 -1 -1 -1 0 4 18 46 86 103 77 39 14 3 0 -1 -1 -1 -1 -1 -1 -1 -1 -1 -1 -1 -1 -1 -1 -1 0 3 17 50 95 95 50 17 3 0 -1 -1 -1 -1 -1 -1 -1 -1 -1 -1 -1 -1 0 5 21 55 96 96 55 21 5 0 -1 -1 -1 -1 -1 -1 -1 -1 0 5 22 58 99 91 48 16 3 0 -1 -1 -1 0 4 14 38 77 120 136 
100 48 16 3 0 -1 -1 -1 -1 -1 -1 0 4 18 51 95 95 51 18 4 0 -1 -1 0 1 10 31 68 101 91 52 21 6 0 -1 -1 -1 -1 -1 -1 -1 -1 -1 -1 -1 -1 -1 -1 -1 -1 0 3 16 47 92 97 54 19 4 0 -1 -1 -1 -1 -1 -1 -1 -1 -1 -1 -1 0 1 10 32 72 103 83 40 14 3 0 -1 -1 -1 -1 -1 -1 -1 -1 1 8 29 69 103 82 38 12 2 0 -1 -1 0 2 10 29 63 103 130 134 
98 49 16 3 0 -1 -1 -1 -1 -1 -1 0 3 15 45 89 100 59 22 6 0 -1 -1 0 5 19 49 89 102 70 32 11 2 0 -1 -1 -1 -1 -1 -1 -1 -1 -1 -1 -1 -1 -1 -1 -1 -1 0 2 14 43 88 100 60 23 6 0 -1 -1 -1 -1 -1 -1 -1 -1 -1 -1 -1 0 4 17 48 89 101 66 28 8 1 -1 -1 -1 -1 -1 -1 -1 -1 0 2 12 38 82 103 69 29 8 1 -1 -1 -1 0 6 21 50 89 114 120 124 
97 49 17 3 0 -1 -1 -1 -1 -1 -1 0 2 11 37 81 103 70 29 8 1 0 0 2 11 32 70 102 89 49 19 5 0 -1 -1 -1 -1 -1 -1 -1 -1 -1 -1 -1 -1 -1 -1 -1 -1 -1 0 2 11 37 81 104 71 30 10 2 0 0 -1 -1 -1 -1 -1 -1 -1 -1 0 1 8 28 66 101 89 48 17 4 0 -1 -1 -1 -1 -1 -1 -1 -1 0 3 16 48 91 99 58 22 5 0 -1 -1 0 4 15 39 76 105 105 100 113 
96 50 17 3 0 -1 -1 -1 -1 -1 -1 -1 1 8 29 70 103 81 37 11 2 0 1 6 21 52 91 101 68 31 10 1 0 -1 -1 -1 -1 -1 -1 -1 -1 -1 -1 -1 -1 -1 -1 -1 -1 -1 0 1 9 30 72 106 84 42 17 7 3 2 1 0 0 0 0 0 0 0 0 3 14 41 83 103 72 32 10 1 0 -1 -1 -1 -1 -1 -1 -1 -1 0 5 22 58 99 91 48 16 3 0 -1 0 2 10 29 63 98 102 82 81 105 
95 50 17 3 0 -1 -1 -1 -1 -1 -1 -1 0 6 22 59 100 89 45 15 3 1 4 14 39 77 103 86 46 18 4 0 -1 -1 -1 -1 -1 -1 -1 -1 -1 -1 -1 -1 -1 -1 -1 -1 -1 -1 0 1 9 28 67 108 100 60 32 20 15 11 8 6 4 3 3 2 2 1 2 7 22 56 96 96 55 21 5 0 -1 -1 -1 -1 -1 -1 -1 -1 -1 1 8 29 69 103 82 38 12 2 0 0 0 6 21 50 88 104 81 58 67 100 
95 50 17 3 0 -1 -1 -1 -1 -1 -1 -1 0 4 18 51 95 95 51 18 5 3 9 28 62 98 98 62 28 9 1 0 -1 -1 -1 -1 -1 -1 -1 -1 -1 -1 -1 -1 -1 -1 -1 -1 -1 0 1 5 14 35 74 118 122 90 65 52 44 37 29 23 19 17 16 14 11 9 9 16 37 75 104 83 41 14 3 0 -1 -1 -1 -1 -1 -1 -1 -1 0 2 12 38 82 103 69 29 8 1 0 0 4 15 39 76 103 90 56 40 58 97 
95 50 17 3 0 -1 -1 -1 -1 -1 -1 -1 0 3 15 45 89 100 59 23 8 7 18 47 86 103 77 39 14 3 0 -1 -1 -1 -1 -1 -1 -1 -1 -1 -1 -1 -1 -1 -1 -1 -1 -1 0 2 6 15 31 58 96 132 137 120 104 96 89 81 70 60 54 50 47 43 37 31 28 36 61 96 104 66 28 8 1 -1 -1 -1 -1 -1 -1 -1 -1 -1 0 3 16 48 91 99 58 22 5 0 0 2 10 29 63 98 98 65 35 29 54 96 
95 50 17 3 0 -1 -1 -1 -1 -1 -1 -1 0 2 11 37 81 103 70 30 12 13 31 68 101 91 52 21 6 0 -1 -1 -1 -1 -1 -1 -1 -1 -1 -1 -1 -1 -1 -1 -1 -1 0 0 4 10 21 39 64 92 114 121 114 104 99 98 100 103 103 100 97 95 92 88 81 72 67 75 97 117 96 50 19 4 0 -1 -1 -1 -1 -1 -1 -1 -1 -1 0 5 22 58 99 91 48 16 4 0 1 6 21 50 88 103 76 40 20 23 52 95 
95 50 17 3 0 -1 -1 -1 -1 -1 -1 -1 -1 1 8 29 70 103 81 39 19 23 49 89 102 70 32 11 2 0 -1 -1 -1 -1 -1 -1 -1 -1 -1 -1 -1 -1 -1 -1 -1 0 2 6 15 29 50 76 98 105 94 76 62 54 52 54 60 70 80 88 92 95 97 100 104 105 107 116 132 129 88 41 14 3 0 -1 -1 -1 -1 -1 -1 -1 -1 -1 1 8 29 70 103 82 38 12 2 1 4 15 39 76 103 88 51 22 12 20 51 95 
95 50 17 3 0 -1 -1 -1 -1 -1 -1 -1 -1 0 6 22 59 100 90 49 28 37 71 102 89 49 19 5 0 -1 -1 -1 -1 -1 -1 -1 -1 -1 -1 -1 -1 -1 -1 0 0 3 10 21 39 63 88 103 98 77 53 34 24 19 18 19 23 29 37 43 47 50 54 60 70 83 95 111 131 129 89 42 15 4 0 0 -1 -1 -1 -1 -1 -1 -1 0 2 12 38 82 103 70 29 9 2 2 10 29 63 98 98 63 29 11 7 18 50 95 
95 50 17 3 0 -1 -1 -1 -1 -1 -1 -1 -1 0 4 18 51 95 97 60 42 58 92 101 68 31 10 1 0 -1 -1 -1 -1 -1 -1 -1 -1 -1 -1 -1 -1 -1 0 1 5 14 28 50 76 98 103 88 63 39 22 12 6 4 4 4 6 8 11 14 16 17 19 23 30 39 50 67 94 116 99 57 25 9 3 0 0 0 0 0 0 0 0 1 5 18 49 92 99 58 22 6 3 7 21 50 88 103 76 39 15 5 5 17 50 95 
95 50 17 3 0 -1 -1 -1 -1 -1 -1 -1 -1 0 3 15 44 90 104 76 64 84 104 86 46 18 4 0 -1 -1 -1 -1 -1 -1 -1 -1 -1 -1 -1 -1 -1 0 2 7 17 36 62 88 103 98 76 50 29 15 6 2 0 0 0 0 0 1 2 2 3 3 4 6 8 13 19 32 57 93 108 83 47 24 12 7 4 4 3 3 3 3 4 5 11 27 62 101 93 49 18 6 5 15 39 76 103 88 50 21 7 2 4 17 50 95 
95 50 17 3 0 -1 -1 -1 -1 -1 -1 -1 -1 0 2 11 37 81 110 98 93 106 98 62 28 9 1 0 -1 -1 -1 -1 -1 -1 -1 -1 -1 -1 -1 0 0 4 10 22 42 71 96 103 89 63 39 21 10 4 0 0 -1 -1 -1 -1 -1 -1 0 0 0 0 0 0 1 2 5 13 31 65 102 109 83 54 35 24 20 18 17 17 17 17 18 20 27 46 82 111 89 44 17 8 12 30 63 98 98 63 29 10 2 0 4 17 50 95 
95 50 17 3 0 -1 -1 -1 -1 -1 -1 -1 -1 -1 1 8 29 70 112 121 118 109 76 38 14 3 0 -1 -1 -1 -1 -1 -1 -1 -1 -1 -1 -1 0 2 6 15 29 51 78 100 100 78 51 29 15 6 2 0 -1 -1 -1 -1 -1 -1 -1 -1 -1 -1 -1 -1 -1 -1 -1 0 0 5 16 42 85 122 123 99 76 62 54 51 50 50 50 50 51 53 61 80 112 124 91 47 22 16 25 52 89 103 76 39 15 4 0 0 3 17 50 95 
95 50 17 3 0 -1 -1 -1 -1 -1 -1 -1 -1 -1 0 5 22 59 109 135 127 93 51 21 6 0 -1 -1 -1 -1 -1 -1 -1 -1 -1 -1 0 0 4 10 21 39 63 89 103 96 71 42 22 10 4 0 0 -1 -1 -1 -1 -1 -1 -1 -1 -1 -1 -1 -1 -1 -1 -1 -1 -1 0 1 9 29 69 119 139 126 112 103 98 96 95 95 95 95 95 97 103 116 134 136 105 67 42 36 49 80 104 89 51 21 6 0 0 0 3 17 50 95 
95 50 17 3 0 -1 -1 -1 -1 -1 -1 -1 -1 -1 0 4 18 52 105 136 115 69 31 10 2 0 -1 -1 -1 -1 -1 -1 -1 -1 -1 0 2 6 14 29 50 76 98 103 88 62 36 18 7 2 0 -1 -1 -1 -1 -1 -1 -1 -1 -1 -1 -1 -1 -1 -1 -1 -1 -1 -1 -1 -1 0 7 26 65 113 124 105 94 92 93 94 95 95 95 95 95 96 98 103 113 122 117 99 80 73 87 108 102 65 30 10 2 0 -1 0 3 17 50 95 
95 50 17 3 0 -1 -1 -1 -1 -1 -1 -1 -1 -1 0 3 16 49 101 127 94 47 18 5 0 -1 -1 -1 -1 -1 -1 -1 -1 0 1 3 9 20 38 63 89 104 99 77 51 29 14 5 1 0 -1 -1 -1 -1 -1 -1 -1 -1 -1 -1 -1 -1 -1 -1 -1 -1 -1 -1 -1 -1 -1 1 9 30 71 109 98 66 50 47 48 49 50 50 50 50 50 50 51 54 61 75 93 105 111 115 125 124 89 45 17 4 0 -1 -1 0 3 17 50 95 
95 50 17 3 0 -1 -1 -1 -1 -1 -1 -1 -1 -1 0 3 16 49 99 115 74 32 10 2 0 -1 -1 -1 -1 -1 0 0 1 3 7 14 28 48 76 101 108 94 68 43 24 12 5 1 0 0 -1 -1 -1 -1 -1 -1 -1 -1 -1 -1 -1 -1 -1 -1 -1 -1 -1 -1 -1 -1 0 2 11 37 81 105 76 39 22 17 16 17 17 17 17 17 17 17 17 19 23 33 49 70 94 118 137 127 81 37 13 3 0 -1 -1 0 3 17 50 95 
95 50 17 3 0 -1 -1 -1 -1 -1 -1 -1 -1 -1 0 3 17 50 97 104 60 23 6 0 -1 -1 -1 -1 0 0 1 4 8 14 24 39 62 92 116 120 99 71 46 29 17 9 5 3 1 0 0 0 0 -1 -1 -1 -1 -1 -1 -1 -1 -1 -1 -1 -1 -1 -1 -1 -1 -1 0 2 14 44 89 101 62 26 10 5 3 3 3 3 3 3 3 3 4 4 6 10 19 32 52 81 114 122 89 45 17 4 0 -1 -1 0 3 17 50 95 
95 50 17 3 0 -1 -1 -1 -1 -1 -1 -1 -1 -1 0 4 19 54 98 96 51 18 4 0 -1 0 0 0 2 5 10 17 28 41 58 80 106 128 138 125 99 75 57 43 32 23 17 12 8 6 4 3 2 1 0 0 0 -1 -1 -1 -1 -1 -1 -1 -1 -1 -1 -1 -1 -1 0 3 16 49 93 97 54 20 5 1 0 0 0 0 0 0 0 0 0 0 0 2 5 11 22 43 76 106 102 65 30 10 2 0 -1 0 3 17 50 95 
95 50 17 3 0 -1 -1 -1 -1 -1 -1 -1 -1 -1 0 6 23 60 101 89 45 15 3 0 0 1 3 6 10 18 31 47 66 84 98 109 115 119 123 121 112 102 93 82 70 58 48 38 29 23 18 15 11 8 5 3 2 1 0 0 0 0 -1 -1 -1 -1 -1 -1 -1 -1 0 4 19 53 97 93 49 17 3 0 -1 -1 -1 -1 -1 -1 -1 -1 -1 -1 -1 0 0 2 8 19 43 79 104 89 51 21 6 0 0 0 3 17 50 95 
95 50 17 3 0 -1 -1 -1 -1 -1 -1 -1 -1 -1 1 8 29 70 103 81 38 12 4 2 4 8 14 21 33 49 69 88 101 103 97 86 75 70 74 83 91 96 100 103 103 99 91 82 70 59 51 45 37 29 22 16 12 8 6 4 3 2 1 0 0 0 -1 -1 -1 -1 0 6 23 60 100 88 44 14 3 0 -1 -1 -1 -1 -1 -1 -1 -1 -1 -1 -1 -1 -1 0 1 8 22 51 89 103 76 39 15 4 0 0 3 17 50 95 
95 50 17 3 0 -1 -1 -1 -1 -1 -1 -1 -1 0 2 11 37 81 103 71 31 12 7 10 17 28 40 55 73 90 102 102 90 73 56 42 32 28 30 37 44 51 59 70 82 91 99 103 103 100 95 89 81 69 58 48 38 29 23 18 15 11 8 5 3 2 1 0 0 0 2 9 30 70 103 81 37 11 2 0 -1 -1 -1 -1 -1 -1 -1 -1 -1 -1 -1 -1 -1 -1 0 2 10 29 63 98 98 63 29 10 2 0 4 17 50 95 
95 50 17 3 0 -1 -1 -1 -1 -1 -1 -1 -1 0 3 15 45 90 101 63 30 18 20 31 47 65 83 96 103 101 88 69 49 33 22 14 10 8 9 11 15 18 23 29 38 48 58 69 81 89 95 100 103 103 99 91 82 70 59 51 45 37 29 22 16 12 8 6 4 4 6 14 39 82 103 70 29 8 1 -1 -1 -1 -1 -1 -1 -1 -1 -1 -1 -1 -1 -1 -1 -1 -1 0 4 15 39 76 103 89 51 22 7 2 4 17 50 95 
95 50 17 3 0 -1 -1 -1 -1 -1 -1 -1 -1 0 4 18 51 97 102 65 39 37 50 69 88 101 103 96 83 65 47 31 18 10 6 3 1 1 1 2 3 4 6 8 12 16 22 29 37 45 51 59 70 82 91 99 103 103 100 95 89 81 69 58 48 38 29 23 18 16 16 25 51 92 101 60 23 6 0 -1 -1 -1 -1 -1 -1 -1 -1 -1 -1 -1 -1 -1 -1 -1 -1 -1 0 6 21 50 88 103 78 42 18 7 6 18 50 95 
95 50 17 3 0 -1 -1 -1 -1 -1 -1 -1 -1 0 6 23 60 106 109 80 67 74 90 102 102 90 73 55 40 28 17 10 5 2 0 0 0 -1 -1 0 0 0 0 1 2 3 5 8 11 15 18 23 29 38 48 58 69 81 89 95 100 103 103 99 91 82 70 59 52 46 42 47 70 104 99 54 19 4 0 -1 -1 -1 -1 -1 -1 -1 -1 -1 -1 -1 -1 -1 -1 -1 -1 -1 0 2 10 28 62 96 100 71 36 15 9 19 50 95 
95 50 17 3 0 -1 -1 -1 -1 -1 -1 -1 0 2 10 32 75 120 126 108 102 105 102 89 69 49 33 21 14 8 4 1 0 0 -1 -1 -1 -1 -1 -1 -1 -1 -1 -1 0 0 0 1 2 3 4 6 8 12 16 22 29 37 45 51 59 70 82 91 99 103 103 100 95 90 86 86 101 121 100 50 17 3 0 -1 -1 -1 -1 -1 -1 -1 -1 -1 -1 -1 -1 -1 -1 -1 -1 -1 -1 0 3 14 36 71 100 96 62 30 16 21 51 95 
95 50 17 3 0 -1 -1 -1 -1 -1 -1 -1 0 5 18 48 95 133 135 119 105 89 69 48 31 19 10 6 3 1 0 0 -1 -1 -1 -1 -1 -1 -1 -1 -1 -1 -1 -1 -1 -1 -1 -1 0 0 0 0 1 2 3 5 8 11 15 18 23 29 38 48 58 69 81 89 95 100 106 115 129 136 102 49 16 3 0 -1 -1 -1 -1 -1 -1 -1 -1 -1 -1 -1 -1 -1 -1 -1 -1 -1 -1 -1 0 5 17 42 78 103 89 52 28 26 53 96 
95 50 17 3 0 -1 -1 -1 -1 -1 -1 0 2 11 32 70 112 125 108 86 65 47 30 18 10 5 2 0 0 -1 -1 -1 -1 -1 -1 -1 -1 -1 -1 -1 -1 -1 -1 -1 -1 -1 -1 -1 -1 -1 -1 -1 -1 0 0 0 1 2 3 4 6 8 12 16 22 29 37 45 52 60 74 93 119 134 101 48 16 3 0 -1 -1 -1 -1 -1 -1 -1 -1 -1 -1 -1 -1 -1 -1 -1 -1 -1 -1 -1 0 1 7 22 51 88 103 80 48 37 57 97 
95 50 17 3 0 -1 -1 -1 -1 -1 -1 0 6 21 52 92 110 91 63 42 28 17 9 4 1 0 0 -1 -1 -1 -1 -1 -1 -1 -1 -1 -1 -1 -1 -1 -1 -1 -1 -1 -1 -1 -1 -1 -1 -1 -1 -1 -1 -1 -1 -1 -1 0 0 0 0 1 2 3 5 8 11 15 18 24 34 54 86 117 99 49 16 3 0 -1 -1 -1 -1 -1 -1 -1 -1 -1 -1 -1 -1 -1 -1 -1 -1 -1 -1 -1 -1 0 2 10 29 62 96 101 76 55 66 99 
96 50 17 3 0 -1 -1 -1 -1 -1 0 4 15 39 77 104 91 56 30 16 8 4 1 0 0 -1 -1 -1 -1 -1 -1 -1 -1 -1 -1 -1 -1 -1 -1 -1 -1 -1 -1 -1 -1 -1 -1 -1 -1 -1 -1 -1 -1 -1 -1 -1 -1 -1 -1 -1 -1 -1 0 0 0 1 2 3 4 7 14 30 64 104 97 50 17 3 0 -1 -1 -1 -1 -1 -1 -1 -1 -1 -1 -1 -1 -1 -1 -1 -1 -1 -1 -1 -1 -1 0 3 14 36 71 101 101 80 80 105 
97 49 17 3 0 -1 -1 -1 -1 0 2 10 29 64 98 98 64 31 13 5 1 0 0 -1 -1 -1 -1 -1 -1 -1 -1 -1 -1 -1 -1 -1 -1 -1 -1 -1 -1 -1 -1 -1 -1 -1 -1 -1 -1 -1 -1 -1 -1 -1 -1 -1 -1 -1 -1 -1 -1 -1 -1 -1 -1 -1 0 0 0 1 6 21 54 98 97 51 18 4 0 -1 -1 -1 -1 -1 -1 -1 -1 -1 -1 -1 -1 -1 -1 -1 -1 -1 -1 -1 -1 -1 -1 0 5 17 42 79 106 104 100 113 
98 49 16 3 0 -1 -1 -1 0 1 7 22 51 89 104 77 40 16 5 1 0 -1 -1 -1 -1 -1 -1 -1 -1 -1 -1 -1 -1 -1 -1 -1 -1 -1 -1 -1 -1 -1 -1 -1 -1 -1 -1 -1 -1 -1 -1 -1 -1 -1 -1 -1 -1 -1 -1 -1 -1 -1 -1 -1 -1 -1 -1 -1 0 0 5 18 51 96 99 56 21 6 0 0 -1 -1 -1 -1 -1 -1 -1 -1 -1 -1 -1 -1 -1 -1 -1 -1 -1 -1 -1 -1 -1 0 1 7 22 51 90 114 120 124 
100 48 16 3 0 -1 -1 0 1 6 18 43 79 106 93 55 25 9 3 0 0 0 0 0 0 0 0 0 0 -1 -1 -1 -1 -1 -1 -1 -1 -1 -1 -1 -1 -1 -1 -1 -1 -1 -1 -1 -1 -1 -1 -1 -1 -1 -1 -1 -1 -1 -1 -1 -1 -1 -1 -1 -1 -1 -1 -1 0 1 6 20 53 98 108 67 29 11 3 0 0 -1 -1 -1 -1 -1 -1 -1 -1 -1 -1 -1 -1 -1 -1 -1 -1 -1 -1 -1 -1 -1 0 2 10 29 63 103 130 134 
100 47 16 3 0 -1 0 1 6 17 39 73 107 110 79 45 24 12 7 5 4 3 3 3 3 3 3 2 2 1 0 0 0 0 0 0 0 0 0 0 -1 -1 -1 -1 -1 -1 -1 -1 -1 -1 -1 -1 -1 -1 -1 -1 -1 -1 -1 -1 -1 -1 -1 -1 -1 -1 -1 0 1 4 12 30 63 108 123 89 49 25 12 5 1 0 -1 -1 -1 -1 -1 -1 -1 -1 -1 -1 -1 -1 -1 -1 -1 -1 -1 -1 -1 -1 -1 0 4 14 38 77 120 136 
100 47 16 3 0 0 1 6 17 38 72 110 129 115 85 60 43 31 23 19 18 17 17 17 17 16 16 14 11 8 6 4 4 3 3 3 3 3 2 2 1 0 0 0 0 0 0 0 0 0 0 0 -1 -1 -1 -1 -1 -1 -1 -1 -1 -1 -1 -1 -1 0 0 2 6 15 30 54 88 124 138 118 84 54 32 18 9 3 0 0 -1 -1 -1 -1 -1 -1 -1 -1 -1 -1 -1 -1 -1 -1 -1 -1 -1 -1 -1 -1 0 6 21 51 97 128 
98 48 16 3 0 1 6 18 39 71 108 133 137 124 108 95 83 71 60 54 51 50 50 50 50 49 47 43 37 29 23 19 18 17 17 17 16 16 14 11 8 6 4 4 3 3 3 3 3 3 2 2 1 0 0 0 0 0 0 0 0 0 0 0 0 1 5 11 22 39 63 90 110 121 123 120 110 92 69 47 28 14 6 2 0 0 -1 -1 -1 -1 -1 -1 -1 -1 -1 -1 -1 -1 -1 -1 -1 -1 -1 -1 0 2 11 33 75 115 
96 49 17 5 3 7 18 40 72 103 117 114 107 102 100 101 104 103 100 97 96 95 95 95 95 94 92 88 80 70 60 54 51 50 50 50 49 47 43 37 29 23 19 18 17 17 17 17 16 16 14 11 8 6 4 4 3 3 3 3 3 3 2 2 4 9 18 32 52 77 98 104 95 81 74 80 93 103 102 86 62 39 21 11 5 1 0 -1 -1 -1 -1 -1 -1 -1 -1 -1 -1 -1 -1 -1 -1 -1 -1 -1 -1 0 6 24 61 105 
96 50 18 8 9 19 41 72 100 104 86 66 55 52 54 60 70 80 88 92 94 95 95 95 95 96 97 100 103 103 100 97 96 95 95 95 94 92 88 80 70 60 54 51 50 50 50 50 49 47 43 37 29 23 19 18 17 17 17 16 16 14 13 13 17 29 47 69 91 103 98 77 54 37 31 36 50 70 91 103 98 77 52 32 18 9 3 0 0 -1 -1 -1 -1 -1 -1 -1 -1 -1 -1 -1 -1 -1 -1 -1 -1 0 4 19 54 99 
96 52 23 16 24 44 74 100 100 75 46 28 20 18 19 23 29 37 43 47 49 50 50 50 50 51 54 60 70 80 88 92 94 95 95 95 96 97 100 103 103 100 97 96 95 95 95 95 94 92 88 80 70 60 54 51 50 50 50 49 47 44 40 39 47 65 87 102 102 86 62 39 22 13 10 12 19 32 52 77 98 103 91 69 47 28 14 6 2 0 0 -1 -1 -1 -1 -1 -1 -1 -1 -1 -1 -1 -1 -1 -1 0 4 18 51 96 
97 57 33 34 53 79 101 99 72 41 20 9 5 4 4 6 8 11 14 16 16 17 17 17 17 18 19 23 29 37 43 47 49 50 50 50 51 54 60 70 80 88 92 94 95 95 95 95 96 97 100 103 103 100 97 96 95 95 95 94 93 90 87 86 93 105 106 92 69 47 28 14 6 3 1 2 5 11 21 39 62 86 101 101 86 62 39 21 11 5 1 0 -1 -1 -1 -1 -1 -1 -1 -1 -1 -1 -1 -1 -1 0 3 17 50 95 
102 69 55 67 90 103 96 69 39 18 7 2 0 0 0 0 1 2 2 3 3 3 3 3 3 4 4 6 8 11 14 16 16 17 17 17 18 19 23 29 37 43 47 49 50 50 50 50 51 54 60 70 80 88 92 94 95 95 95 96 99 106 118 129 130 113 83 54 33 18 9 3 0 0 0 0 0 2 6 14 28 47 69 91 103 98 77 52 32 18 9 3 0 0 -1 -1 -1 -1 -1 -1 -1 -1 -1 -1 -1 0 3 17 50 96 
111 90 87 100 104 88 62 35 16 6 1 0 -1 -1 -1 -1 -1 0 0 0 0 0 0 0 0 0 0 0 1 2 2 3 3 3 3 3 4 4 6 8 11 14 16 16 17 17 17 17 18 19 23 29 37 43 47 49 50 50 50 52 58 73 101 132 129 90 50 25 12 5 1 0 -1 -1 -1 -1 -1 0 0 3 9 18 32 52 77 98 103 91 69 47 28 14 6 2 0 0 -1 -1 -1 -1 -1 -1 -1 -1 -1 0 3 17 49 97 
124 117 113 103 79 51 29 14 5 1 0 -1 -1 -1 -1 -1 -1 -1 -1 -1 -1 -1 -1 -1 -1 -1 -1 -1 -1 0 0 0 0 0 0 0 0 0 0 1 2 2 3 3 3 3 3 3 4 4 6 8 11 14 16 16 17 17 17 19 24 40 73 115 113 67 29 11 3 0 0 -1 -1 -1 -1 -1 -1 -1 -1 0 1 5 11 21 39 62 86 101 101 86 62 39 21 11 5 1 0 0 -1 -1 -1 -1 -1 -1 -1 0 3 16 49 99 
136 130 106 74 43 22 10 3 0 0 -1 -1 -1 -1 -1 -1 -1 -1 -1 -1 -1 -1 -1 -1 -1 -1 -1 -1 -1 -1 -1 -1 -1 -1 -1 -1 -1 -1 -1 -1 0 0 0 0 0 0 0 0 0 0 0 1 2 2 3 3 3 3 4 5 10 24 58 102 101 56 21 6 0 0 -1 -1 -1 -1 -1 -1 -1 -1 -1 -1 0 0 2 6 14 28 47 69 91 103 98 77 52 32 19 10 4 1 0 -1 -1 -1 -1 -1 -1 0 3 16 48 101 
134 115 75 41 19 8 2 0 -1 -1 -1 -1 -1 -1 -1 -1 -1 -1 -1 -1 -1 -1 -1 -1 -1 -1 -1 -1 -1 -1 -1 -1 -1 -1 -1 -1 -1 -1 -1 -1 -1 -1 -1 -1 -1 -1 -1 -1 -1 -1 -1 -1 0 0 0 0 0 0 0 1 5 19 52 97 97 52 18 4 0 -1 -1 -1 -1 -1 -1 -1 -1 -1 -1 -1 -1 -1 0 0 3 9 18 32 52 77 98 103 91 70 49 31 18 9 3 0 0 -1 -1 -1 -1 0 3 16 48 101 
121 87 45 19 7 1 0 -1 -1 -1 -1 -1 -1 -1 -1 -1 -1 -1 -1 -1 -1 -1 -1 -1 -1 -1 -1 -1 -1 -1 -1 -1 -1 -1 -1 -1 -1 -1 -1 -1 -1 -1 -1 -1 -1 -1 -1 -1 -1 -1 -1 -1 -1 -1 -1 -1 -1 -1 -1 0 4 17 50 95 95 50 17 3 0 -1 -1 -1 -1 -1 -1 -1 -1 -1 -1 -1 -1 -1 -1 -1 0 1 5 11 21 39 62 86 101 102 89 68 46 28 14 6 2 0 0 0 0 0 3 16 48 99 
107 66 28 9 2 0 -1 -1 -1 -1 -1 -1 -1 -1 -1 -1 -1 -1 -1 -1 -1 -1 -1 -1 -1 -1 -1 -1 -1 -1 -1 -1 -1 -1 -1 -1 -1 -1 -1 -1 -1 -1 -1 -1 -1 -1 -1 -1 -1 -1 -1 -1 -1 -1 -1 -1 -1 -1 -1 0 3 17 50 95 95 50 17 3 0 -1 -1 -1 -1 -1 -1 -1 -1 -1 -1 -1 -1 -1 -1 -1 -1 0 0 2 6 14 28 46 68 89 102 102 86 62 38 21 11 6 3 2 1 1 5 17 50 97 
100 56 21 5 0 -1 -1 -1 -1 -1 -1 -1 -1 -1 -1 -1 -1 -1 -1 -1 -1 -1 -1 -1 -1 -1 -1 -1 -1 -1 -1 -1 -1 -1 -1 -1 -1 -1 -1 -1 -1 -1 -1 -1 -1 -1 -1 -1 -1 -1 -1 -1 -1 -1 -1 -1 -1 -1 -1 0 3 17 50 95 95 50 17 3 0 -1 -1 -1 -1 -1 -1 -1 -1 -1 -1 -1 -1 -1 -1 -1 -1 -1 -1 0 0 3 9 18 31 49 71 93 106 100 77 52 33 22 16 12 8 7 9 21 52 97 
97 52 18 4 0 -1 -1 -1 -1 -1 -1 -1 -1 -1 -1 -1 -1 -1 -1 -1 -1 -1 -1 -1 -1 -1 -1 -1 -1 -1 -1 -1 -1 -1 -1 -1 -1 -1 -1 -1 -1 -1 -1 -1 -1 -1 -1 -1 -1 -1 -1 -1 -1 -1 -1 -1 -1 -1 -1 0 3 17 50 95 95 50 17 3 0 -1 -1 -1 -1 -1 -1 -1 -1 -1 -1 -1 -1 -1 -1 -1 -1 -1 -1 -1 0 0 2 5 12 22 37 60 89 113 115 98 75 59 47 38 29 23 22 31 60 100 
98 51 18 5 1 0 0 0 0 -1 -1 -1 -1 -1 -1 -1 -1 -1 -1 -1 -1 -1 -1 -1 -1 -1 -1 -1 -1 -1 -1 -1 -1 -1 -1 -1 -1 -1 -1 -1 -1 -1 -1 -1 -1 -1 -1 -1 -1 -1 -1 -1 -1 -1 -1 -1 -1 -1 -1 0 3 17 50 95 95 50 17 3 0 -1 -1 -1 -1 -1 -1 -1 -1 -1 -1 -1 -1 -1 -1 -1 -1 -1 -1 -1 0 0 1 3 8 15 27 46 74 109 134 134 119 104 93 82 70 59 53 57 79 109 
103 54 22 9 5 3 3 2 2 1 0 0 0 0 0 0 0 -1 -1 -1 -1 -1 -1 -1 -1 -1 -1 -1 -1 -1 -1 -1 -1 -1 -1 -1 -1 -1 -1 -1 -1 -1 -1 -1 -1 -1 -1 -1 -1 -1 -1 -1 -1 -1 -1 -1 -1 -1 -1 0 3 17 50 95 95 50 17 3 0 -1 -1 -1 -1 -1 -1 -1 -1 -1 -1 -1 -1 -1 -1 -1 -1 -1 0 0 1 3 6 11 19 30 45 64 89 114 128 124 112 104 103 104 103 100 96 97 111 126 
113 65 35 22 18 17 16 14 11 8 6 4 4 3 3 2 2 1 0 0 0 0 0 0 0 0 -1 -1 -1 -1 -1 -1 -1 -1 -1 -1 -1 -1 -1 -1 -1 -1 -1 -1 -1 -1 -1 -1 -1 -1 -1 -1 -1 -1 -1 -1 -1 -1 -1 0 3 17 50 95 95 50 17 3 0 -1 -1 -1 -1 -1 -1 -1 -1 -1 -1 -1 -1 -1 -1 -1 0 0 1 4 8 14 21 33 48 66 84 98 107 106 93 75 62 58 61 71 82 92 102 114 131 141 
129 92 66 55 51 49 47 43 37 29 23 19 17 17 16 14 11 8 6 4 4 3 3 3 2 2 1 0 0 0 0 0 0 0 -1 -1 -1 -1 -1 -1 -1 -1 -1 -1 -1 -1 -1 -1 -1 -1 -1 -1 -1 -1 -1 -1 -1 -1 -1 0 3 17 50 95 95 50 17 3 0 -1 -1 -1 -1 -1 -1 -1 -1 -1 -1 -1 -1 0 0 1 3 5 10 17 28 40 55 72 89 101 103 96 83 65 47 32 24 21 24 30 38 48 61 82 112 139 
143 125 107 99 96 94 92 88 80 70 60 54 51 49 47 43 37 29 23 19 18 17 16 16 14 11 8 6 4 4 3 3 2 2 1 0 0 0 0 0 0 0 0 -1 -1 -1 -1 -1 -1 -1 -1 -1 -1 -1 -1 -1 -1 -1 -1 0 3 17 50 95 95 50 17 3 0 -1 -1 -1 -1 -1 -1 -1 -1 -1 -1 0 0 1 4 8 14 21 32 48 66 83 96 103 101 89 72 55 40 27 17 10 6 5 6 8 12 18 26 45 79 125 
139 125 107 99 96 96 97 100 103 103 100 97 95 94 92 88 80 70 60 54 51 50 49 47 43 37 29 23 19 17 17 16 14 11 8 6 4 4 3 3 3 2 2 1 0 0 0 0 0 0 0 -1 -1 -1 -1 -1 -1 -1 -1 0 3 17 50 95 95 50 17 3 0 -1 -1 -1 -1 -1 -1 -1 -1 0 0 2 5 10 17 28 40 55 72 89 101 103 96 83 66 48 32 21 14 8 4 1 0 0 0 1 2 5 11 26 60 111 
120 93 67 55 52 52 54 60 70 80 88 92 94 95 97 100 103 103 100 97 96 95 94 92 88 80 70 60 54 51 49 47 43 37 29 23 19 18 17 16 16 14 11 8 6 4 4 3 3 2 2 1 0 0 0 0 0 0 0 0 4 17 50 95 95 50 17 3 0 -1 -1 -1 -1 -1 0 0 1 3 6 10 18 31 47 65 83 96 103 101 89 72 55 40 28 17 10 5 3 1 0 0 -1 -1 -1 -1 0 1 5 19 52 102 
105 66 36 22 18 18 19 23 29 37 43 47 49 51 54 60 70 80 88 92 94 95 96 97 100 103 103 100 97 95 94 92 88 80 70 60 54 51 50 49 47 43 37 29 23 19 17 17 16 14 11 8 6 4 4 3 3 3 3 3 6 19 51 96 95 50 17 3 0 -1 -1 -1 0 0 1 4 8 14 21 33 49 69 88 101 103 96 83 66 48 32 21 14 8 4 1 0 0 -1 -1 -1 -1 -1 -1 -1 -1 0 4 17 50 97 
98 55 22 9 5 4 4 6 8 11 14 16 17 17 19 23 29 37 43 47 49 50 51 54 60 70 80 88 92 94 95 97 100 103 103 100 97 96 95 94 92 88 80 70 60 54 51 49 47 43 37 29 23 19 18 17 16 16 14 13 14 25 56 99 97 52 18 4 0 0 0 1 3 5 10 17 28 40 55 73 90 102 102 90 73 55 40 28 17 10 5 3 1 0 0 -1 -1 -1 -1 -1 -1 -1 -1 -1 -1 0 3 17 50 95 
96 51 18 5 1 0 0 0 1 2 2 3 3 4 4 6 8 11 14 16 16 17 18 19 23 29 37 43 47 49 51 54 60 70 80 88 92 94 95 96 97 100 103 103 100 97 95 94 92 88 80 70 60 54 51 50 49 47 43 38 35 42 69 107 102 56 21 6 2 2 4 8 14 21 32 48 66 83 96 103 101 88 69 49 33 21 14 8 4 1 0 0 -1 -1 -1 -1 -1 -1 -1 -1 -1 -1 -1 -1 -1 0 3 17 50 95 
95 50 17 4 0 -1 -1 -1 -1 0 0 0 0 0 0 0 1 2 2 3 3 3 4 4 6 8 11 14 16 17 17 19 23 29 37 43 47 49 50 51 54 60 70 80 88 92 94 95 97 100 103 103 100 97 96 95 94 92 88 82 75 76 96 124 114 68 30 14 9 11 18 28 40 55 72 89 101 103 96 83 65 47 31 18 10 6 3 1 0 0 -1 -1 -1 -1 -1 -1 -1 -1 -1 -1 -1 -1 -1 -1 -1 0 3 17 50 95 
95 50 17 3 0 -1 -1 -1 -1 -1 -1 -1 -1 -1 -1 -1 -1 0 0 0 0 0 0 0 0 1 2 2 3 3 4 4 6 8 11 14 16 16 17 18 19 23 29 37 43 47 49 51 54 60 70 80 88 92 94 95 96 97 100 104 106 110 122 138 130 91 53 33 28 35 48 66 83 96 103 101 89 72 55 40 28 17 10 5 2 0 0 -1 -1 -1 -1 -1 -1 -1 -1 -1 -1 -1 -1 -1 -1 -1 -1 -1 -1 0 3 17 50 95 
95 50 17 3 0 -1 -1 -1 -1 -1 -1 -1 -1 -1 -1 -1 -1 -1 -1 -1 -1 -1 -1 -1 -1 -1 0 0 0 0 0 0 0 1 2 2 3 3 3 4 4 6 8 11 14 16 17 18 19 23 29 37 43 47 49 50 51 54 60 70 81 91 102 116 125 115 91 72 68 76 91 101 103 96 83 66 48 32 21 14 8 4 1 0 0 -1 -1 -1 -1 -1 -1 -1 -1 -1 -1 -1 -1 -1 -1 -1 -1 -1 -1 -1 -1 0 3 17 50 95 
95 50 17 3 0 -1 -1 -1 -1 -1 -1 -1 -1 -1 -1 -1 -1 -1 -1 -1 -1 -1 -1 -1 -1 -1 -1 -1 -1 -1 -1 -1 -1 -1 0 0 0 0 0 0 0 0 1 2 2 3 3 4 4 6 8 11 14 16 17 17 18 19 23 29 37 45 53 66 89 115 126 121 113 109 103 90 72 55 41 28 18 10 6 3 1 0 0 -1 -1 -1 -1 -1 -1 -1 -1 -1 -1 -1 -1 -1 -1 -1 -1 -1 -1 -1 -1 -1 -1 0 3 17 50 95 
95 50 17 4 0 -1 -1 -1 -1 -1 -1 -1 -1 -1 -1 -1 -1 -1 -1 -1 -1 -1 -1 -1 -1 -1 -1 -1 -1 -1 -1 -1 -1 -1 -1 -1 -1 -1 -1 -1 -1 -1 0 0 0 0 0 0 0 0 1 2 3 3 3 4 4 5 6 8 12 15 20 30 52 91 130 138 116 91 68 49 33 22 14 8 4 2 0 0 0 -1 -1 -1 -1 -1 -1 -1 -1 -1 -1 -1 -1 -1 -1 -1 -1 -1 -1 -1 -1 -1 -1 -1 -1 0 4 17 50 95 
96 51 18 5 1 0 0 0 0 0 0 0 0 0 0 0 0 0 0 0 0 0 0 0 0 0 0 0 0 0 0 0 0 0 0 0 0 0 0 0 0 0 0 0 0 0 0 0 0 0 0 0 0 0 0 1 1 1 1 2 3 4 7 14 31 69 115 123 88 54 33 20 12 7 4 2 1 0 0 0 0 0 0 0 0 0 0 0 0 0 0 0 0 0 0 0 0 0 0 0 0 0 0 0 0 0 5 18 51 96 
99 55 22 9 5 4 3 3 3 3 3 3 3 3 3 3 3 3 3 3 3 3 3 3 3 3 3 3 3 3 3 3 3 3 3 3 3 3 3 3 3 3 3 3 3 3 3 3 3 3 3 3 3 4 4 4 4 4 4 4 4 5 7 12 27 61 106 109 69 35 18 11 7 6 5 4 4 4 3 3 3 3 3 3 3 3 3 3 3 3 3 3 3 3 3 3 3 3 3 3 3 3 3 3 3 4 9 22 55 99 
107 66 35 22 18 17 17 17 17 17 17 17 17 17 17 17 17 17 17 17 17 17 17 17 17 17 17 17 17 17 17 16 16 16 16 16 17 17 17 17 17 17 17 17 17 17 17 16 16 16 16 16 17 17 17 17 17 17 17 17 17 17 19 23 37 68 110 111 71 39 25 20 18 17 17 17 17 17 17 17 17 17 17 17 17 17 17 17 17 17 16 16 16 16 16 17 17 17 17 17 17 17 16 16 16 17 22 35 66 107 
126 93 66 55 51 50 50 50 50 50 50 50 50 50 50 50 50 50 50 50 50 50 50 50 50 50 50 50 50 50 49 49 48 48 48 49 49 50 50 50 50 50 50 50 50 50 50 49 49 48 48 49 49 50 50 50 50 50 50 50 50 50 51 55 67 93 125 126 94 67 56 52 50 50 50 50 50 50 50 50 50 50 50 50 50 50 50 50 50 49 49 48 48 48 49 49 50 50 50 50 50 49 49 48 48 49 54 66 92 126 
150 126 107 99 96 95 95 95 95 95 95 95 95 95 95 95 95 95 95 95 95 95 95 95 95 95 95 95 95 95 96 98 101 101 99 97 96 95 95 95 95 95 95 95 95 95 95 96 99 101 101 99 96 95 95 95 95 95 95 95 95 95 96 98 105 119 135 135 119 105 98 96 95 95 95 95 95 95 95 95 95 95 95 95 95 95 95 95 95 96 98 100 101 100 97 96 95 95 95 95 95 96 98 100 102 101 101 108 127 150 
