P2
110 110
255
155 120 101 96 95 95 95 95 95 95 95 95 95 95 95 95 95 95 95 95 95 95 95 95 95 95 95 95 95 96 101 115 139 148 129 107 98 95 95 95 95 95 95 95 95 95 96 100 116 143 143 116 100 96 95 95 95 95 95 95 95 95 95 95 95 98 102 102 98 95 95 95 95 95 95 95 95 95 95 95 95 95 95 95 95 95 95 95 95 99 110 134 149 130 108 98 95 95 95 95 95 98 108 132 149 131 109 105 121 155 
120 71 45 37 36 36 36 36 36 36 36 36 36 36 36 36 36 36 36 36 36 36 36 36 36 36 36 36 37 41 55 90 128 118 76 48 39 36 36 36 36 36 36 36 36 36 38 46 73 122 120 70 45 37 36 36 36 36 36 36 36 36 36 36 36 36 35 35 36 36 36 36 36 36 36 36 36 36 36 36 36 36 36 36 36 36 36 36 38 46 72 117 125 82 50 39 36 36 36 36 37 43 64 110 128 85 53 48 71 120 
101 45 16 8 6 6 6 6 6 6 6 6 6 6 6 6 6 6 6 6 6 6 6 6 6 6 6 6 9 19 47 95 113 71 31 13 7 6 6 6 6 6 6 6 6 6 9 20 54 112 103 45 16 8 6 6 6 6 6 6 6 6 6 6 6 6 6 6 6 6 6 6 6 6 6 6 6 6 6 6 6 6 6 6 6 6 6 7 10 25 66 113 92 41 16 8 6 6 6 6 8 16 44 99 105 50 20 18 45 101 
96 37 8 0 -1 -1 -1 -1 -1 -1 -1 -1 -1 -1 -1 -1 -1 -1 -1 -1 -1 -1 -1 -1 -1 -1 -1 0 6 26 69 109 87 37 10 0 -1 -1 -1 -1 -1 -1 -1 -1 -1 0 3 20 65 125 101 37 8 0 -1 -1 -1 -1 -1 -1 -1 -1 -1 -1 -1 -1 -2 -2 -1 -1 -1 -1 -1 -1 -1 -1 -1 -1 -1 -1 -1 -1 -1 -1 -1 -1 -1 0 6 30 82 109 62 19 3 0 -1 -1 -1 -1 0 11 45 101 92 36 9 10 38 96 
95 36 6 -1 -3 -3 -3 -3 -3 -3 -3 -3 -3 -3 -3 -3 -3 -3 -3 -3 -3 -3 -3 -3 -3 -3 -2 1 16 53 101 101 53 16 1 -2 -3 -3 -3 -3 -3 -3 -3 -3 -3 -1 7 35 93 143 103 36 6 -1 -3 -3 -3 -3 -3 -3 -3 -3 -3 -3 -3 -3 -3 -3 -3 -3 -3 -3 -3 -3 -3 -3 -3 -3 -3 -3 -3 -3 -3 -3 -3 -3 -3 0 9 42 97 97 41 9 0 -3 -3 -3 -3 -2 1 16 59 108 79 26 5 7 36 95 
95 36 6 -1 -3 -3 -3 -3 -3 -3 -3 -3 -3 -3 -3 -3 -3 -3 -3 -3 -3 -3 -3 -3 -3 -3 0 9 37 87 108 67 24 4 -1 -3 -3 -3 -3 -3 -3 -3 -3 -3 -2 1 17 59 120 148 102 36 6 -1 -3 -3 -3 -3 -3 -3 -3 -3 -3 -3 -3 -3 -3 -3 -3 -3 -3 -3 -3 -3 -3 -3 -3 -3 -3 -3 -3 -3 -3 -3 -3 -3 -2 1 18 61 108 80 28 4 -2 -3 -3 -3 -3 -2 3 26 79 108 59 16 2 7 36 95 
95 36 6 -1 -3 -3 -3 -3 -3 -3 -3 -3 -3 -3 -3 -3 -3 -3 -3 -3 -3 -3 -3 -3 -3 -1 4 24 67 108 87 37 9 0 -3 -3 -3 -3 -3 -3 -3 -3 -3 -3 -1 7 35 89 130 137 102 38 7 -1 -3 -3 -3 -3 -3 -3 -3 -3 -3 -3 -3 -3 -3 -3 -3 -3 -3 -3 -3 -3 -3 -3 -3 -3 -3 -3 -3 -3 -3 -3 -3 -3 -1 6 34 87 106 56 15 0 -3 -3 -3 -3 -3 -1 6 34 91 100 43 9 0 6 36 95 
95 36 6 -1 -3 -3 -3 -3 -3 -3 -3 -3 -3 -3 -3 -3 -3 -3 -3 -3 -3 -3 -3 -3 -2 1 16 53 101 101 53 16 1 -2 -3 -3 -3 -3 -3 -3 -3 -3 -3 -2 1 18 59 111 116 120 105 44 9 -1 -3 -3 -3 -3 -3 -3 -3 -3 -3 -3 -3 -3 -3 -3 -3 -3 -3 -3 -3 -3 -3 -3 -3 -3 -3 -3 -3 -3 -3 -3 -3 -3 0 15 56 106 87 34 6 -1 -3 -3 -3 -3 -3 -1 9 43 100 91 34 6 0 6 36 95 
95 36 6 -1 -3 -3 -3 -3 -3 -3 -3 -3 -3 -3 -3 -3 -3 -3 -3 -3 -3 -3 -3 -3 0 9 37 87 108 67 24 4 -1 -3 -3 -3 -3 -3 -3 -3 -3 -3 -3 0 9 38 89 111 86 97 111 59 16 0 -3 -3 -3 -3 -3 -3 -3 -3 -3 -3 -3 -3 -3 -3 -3 -3 -3 -3 -3 -3 -3 -3 -3 -3 -3 -3 -3 -3 -3 -3 -3 -2 4 28 80 108 61 18 1 -2 -3 -3 -3 -3 -3 0 16 59 108 79 26 3 0 6 36 95 
95 36 6 -1 -3 -3 -3 -3 -3 -3 -3 -3 -3 -3 -3 -3 -3 -3 -3 -3 -3 -3 -3 -1 4 24 67 108 87 37 9 0 -3 -3 -3 -3 -3 -3 -3 -3 -3 -3 -2 4 24 68 108 89 53 69 110 78 25 3 -2 -3 -3 -3 -3 -3 -3 -3 -3 -3 -3 -3 -3 -3 -3 -3 -3 -3 -3 -3 -3 -3 -3 -3 -3 -3 -3 -3 -3 -3 -3 -1 9 41 97 97 41 9 -1 -3 -3 -3 -3 -3 -2 3 26 79 108 59 16 1 -1 6 36 95 
95 36 6 -1 -3 -3 -3 -3 -3 -3 -3 -3 -3 -3 -3 -3 -3 -3 -3 -3 -3 -3 -2 1 16 53 101 101 53 16 1 -2 -3 -3 -3 -3 -3 -3 -3 -3 -3 -2 1 15 53 101 101 55 29 49 102 89 32 5 -2 -3 -3 -3 -3 -3 -3 -3 -3 -3 -3 -3 -3 -3 -3 -3 -3 -3 -3 -3 -3 -3 -3 -3 -3 -3 -3 -3 -3 -3 -2 1 18 61 108 80 28 4 -2 -3 -3 -3 -3 -3 -1 6 34 91 100 43 9 0 -1 6 36 95 
95 36 6 -1 -3 -3 -3 -3 -3 -3 -3 -3 -3 -3 -3 -3 -3 -3 -3 -3 -3 -3 0 9 37 87 108 67 24 4 -1 -3 -3 -3 -3 -3 -3 -3 -3 -3 -3 -1 7 34 85 108 68 27 15 40 97 93 35 5 -2 -3 -3 -3 -3 -3 -3 -3 -3 -3 -3 -3 -3 -3 -3 -3 -3 -3 -3 -3 -3 -3 -3 -3 -3 -3 -3 -3 -3 -3 -1 6 34 87 106 56 15 0 -3 -3 -3 -3 -3 -3 -1 9 43 100 91 34 6 -1 -1 6 36 95 
98 39 7 -1 -3 -3 -3 -3 -3 -3 -3 -3 -3 -3 -3 -3 -3 -3 -3 -3 -3 -1 4 24 67 108 87 37 9 0 -3 -3 -3 -3 -3 -3 -3 -3 -3 -3 -2 1 17 59 106 88 38 11 9 37 95 95 36 6 -1 -3 -3 -3 -3 -3 -3 -3 -3 -3 -3 -3 -3 -3 -3 -3 -3 -3 -3 -3 -3 -3 -3 -3 -3 -3 -3 -3 -3 -3 0 15 56 106 87 34 6 -1 -3 -3 -3 -3 -3 -3 0 16 59 108 79 26 3 -2 -1 6 36 95 
107 48 12 0 -2 -3 -3 -3 -3 -3 -3 -3 -3 -3 -3 -3 -3 -3 -3 -3 -2 1 16 53 101 101 53 16 1 -2 -3 -3 -3 -3 -3 -3 -3 -3 -3 -3 -1 7 35 87 107 59 18 3 7 35 93 96 38 7 -1 -3 -3 -3 -3 -3 -3 -3 -3 -3 -3 -3 -3 -3 -3 -3 -3 -3 -3 -3 -3 -3 -3 -3 -3 -3 -3 -3 -3 -2 4 28 80 108 61 18 1 -2 -3 -3 -3 -3 -3 -2 3 26 79 108 59 16 0 -2 -1 6 36 97 
128 75 28 7 0 -3 -3 -3 -3 -3 -3 -3 -3 -3 -3 -3 -3 -3 -3 -3 0 9 37 87 108 67 24 4 -1 -3 -3 -3 -3 -3 -3 -3 -3 -3 -3 -2 1 18 59 107 87 35 7 0 5 32 89 101 44 9 -1 -3 -3 -3 -3 -3 -3 -3 -3 -3 -3 -3 -3 -3 -3 -3 -3 -3 -3 -3 -3 -3 -3 -3 -3 -3 -3 -3 -3 -1 9 41 97 97 41 9 -1 -3 -3 -3 -3 -3 -3 -1 6 34 91 100 43 9 -1 -3 -1 6 35 101 
148 116 64 25 5 -1 -3 -3 -3 -3 -3 -3 -3 -3 -3 -3 -3 -3 -3 -1 4 24 67 108 87 37 9 0 -3 -3 -3 -3 -3 -3 -3 -3 -3 -3 -3 0 9 38 88 106 59 17 1 -1 3 25 78 108 59 16 0 -3 -3 -3 -3 -3 -3 -3 -3 -3 -3 -3 -3 -3 -3 -3 -3 -3 -3 -3 -3 -3 -3 -3 -3 -3 -3 -3 -2 1 18 61 108 80 28 4 -2 -3 -3 -3 -3 -3 -3 -1 9 43 100 91 34 6 -1 -3 -1 6 35 103 
139 129 106 61 22 4 -2 -3 -3 -3 -3 -3 -3 -3 -3 -3 -3 -3 -2 1 16 53 101 101 53 16 1 -2 -3 -3 -3 -3 -3 -3 -3 -3 -3 -3 -2 4 24 68 108 85 34 7 -1 -2 0 16 59 108 78 25 3 -2 -3 -3 -3 -3 -3 -3 -3 -3 -3 -3 -3 -3 -3 -3 -3 -3 -3 -3 -3 -3 -3 -3 -3 -3 -3 -3 -1 6 34 87 106 56 15 0 -3 -3 -3 -3 -3 -3 -3 0 16 59 108 79 26 3 -2 -3 -1 6 35 100 
118 99 111 100 52 16 1 -2 -3 -3 -3 -3 -3 -3 -3 -3 -3 -3 0 9 37 87 108 67 24 4 -1 -3 -3 -3 -3 -3 -3 -3 -3 -3 -3 -2 1 15 53 101 101 53 15 1 -2 -3 -1 9 44 101 89 32 5 -2 -3 -3 -3 -3 -3 -3 -3 -3 -3 -3 -3 -3 -3 -3 -3 -3 -3 -3 -3 -3 -3 -3 -3 -3 -3 -3 0 15 56 106 87 34 6 -1 -3 -3 -3 -3 -3 -3 -2 3 26 79 108 59 16 0 -3 -3 -1 6 36 97 
103 66 78 109 87 37 9 0 -3 -3 -3 -3 -3 -3 -3 -3 -3 -1 4 24 67 108 87 37 9 0 -3 -3 -3 -3 -3 -3 -3 -3 -3 -3 -3 -1 7 34 85 108 68 24 4 -2 -3 -3 -1 7 38 96 93 35 5 -2 -3 -3 -3 -3 -3 -3 -3 -3 -3 -3 -3 -3 -3 -3 -3 -3 -3 -3 -3 -3 -3 -3 -3 -3 -3 -2 4 28 80 108 61 18 1 -2 -3 -3 -3 -3 -3 -3 -1 6 34 91 100 43 9 -1 -3 -3 -1 6 36 95 
98 49 47 88 108 69 28 7 0 -3 -3 -3 -3 -3 -3 -3 -2 1 16 53 101 101 53 16 1 -2 -3 -3 -3 -3 -3 -3 -3 -3 -3 -3 -2 1 17 59 106 88 38 9 0 -3 -3 -3 -1 6 36 95 95 36 6 -1 -3 -3 -3 -3 -3 -3 -3 -3 -3 -3 -3 -3 -3 -3 -3 -3 -3 -3 -3 -3 -3 -3 -3 -3 -3 -1 9 41 97 97 41 9 -1 -3 -3 -3 -3 -3 -3 -3 -1 9 43 100 91 34 6 -1 -3 -3 -1 6 36 95 
96 41 26 54 100 104 64 26 6 0 -3 -3 -3 -3 -3 -3 0 9 37 87 108 67 24 4 -1 -3 -3 -3 -3 -3 -3 -3 -3 -3 -3 -3 -1 7 35 87 107 59 18 1 -2 -3 -3 -3 -2 5 35 93 96 38 7 -1 -3 -3 -3 -3 -3 -3 -3 -3 -3 -3 -3 -3 -3 -3 -3 -3 -3 -3 -3 -3 -3 -3 -3 -3 -2 1 18 61 108 80 28 4 -2 -3 -3 -3 -3 -3 -3 -3 0 16 59 108 79 26 3 -2 -3 -3 -1 6 36 95 
95 37 14 24 62 103 103 63 26 6 0 -3 -3 -3 -3 -1 4 24 67 108 87 37 9 0 -3 -3 -3 -3 -3 -3 -3 -3 -3 -3 -3 -2 1 18 59 107 87 35 7 -1 -3 -3 -3 -3 -2 5 32 89 101 44 9 -1 -3 -3 -3 -3 -3 -3 -3 -3 -3 -3 -3 -3 -3 -3 -3 -3 -3 -3 -3 -3 -3 -3 -3 -3 -1 6 34 87 106 56 15 0 -3 -3 -3 -3 -3 -3 -3 -2 3 26 79 108 59 16 0 -3 -3 -3 -1 6 36 95 
95 36 8 7 26 63 103 103 63 26 6 0 -3 -3 -2 1 16 53 101 101 53 16 1 -2 -3 -3 -3 -3 -3 -3 -3 -3 -3 -3 -3 0 9 38 88 106 59 17 1 -2 -3 -3 -3 -3 -2 3 25 78 108 59 16 0 -3 -3 -3 -3 -3 -3 -3 -3 -3 -3 -3 -3 -3 -3 -3 -3 -3 -3 -3 -3 -3 -3 -3 -3 0 15 56 106 87 34 6 -1 -3 -3 -3 -3 -3 -3 -3 -1 6 34 91 100 43 9 -1 -3 -3 -3 -1 6 36 95 
95 36 6 1 6 26 63 103 103 63 26 6 0 -2 0 9 37 87 108 67 24 4 -1 -3 -3 -3 -3 -3 -3 -3 -3 -3 -3 -3 -2 4 24 68 108 85 34 7 -1 -3 -3 -3 -3 -3 -3 0 16 59 108 78 25 3 -2 -3 -3 -3 -3 -3 -3 -3 -3 -3 -3 -3 -3 -3 -3 -3 -3 -3 -3 -3 -3 -3 -3 -2 4 28 80 108 61 18 1 -2 -3 -3 -3 -3 -3 -3 -3 -1 9 43 100 91 34 6 -1 -3 -3 -3 -1 6 36 95 
95 36 6 -1 0 6 26 63 103 103 63 26 7 1 5 25 68 108 87 37 9 0 -3 -3 -3 -3 -3 -3 -3 -3 -3 -3 -3 -2 1 15 53 101 101 53 15 1 -2 -3 -3 -3 -3 -3 -3 -1 9 44 101 89 32 5 -2 -3 -3 -3 -3 -3 -3 -3 -3 -3 -3 -3 -3 -3 -3 -3 -3 -3 -3 -3 -3 -3 -3 -1 9 41 97 97 41 9 -1 -3 -3 -3 -3 -3 -3 -3 -3 0 16 59 108 79 26 3 -2 -3 -3 -3 -1 6 36 95 
95 36 6 -1 -2 0 6 26 63 103 103 63 27 12 19 54 101 101 53 16 1 -2 -3 -3 -3 -3 -3 -3 -3 -3 -3 -3 -3 -1 7 34 85 108 68 24 4 -2 -3 -3 -3 -3 -3 -3 -3 -1 7 38 96 94 35 6 -1 -3 -3 -3 -3 -3 -3 -3 -3 -3 -3 -3 -3 -3 -3 -3 -3 -3 -3 -3 -3 -3 -2 1 18 61 108 80 28 4 -2 -3 -3 -3 -3 -3 -3 -3 -2 3 26 79 108 59 16 0 -3 -3 -3 -3 -1 6 36 95 
95 36 6 -1 -3 -3 0 6 26 63 103 103 66 38 47 89 108 67 24 4 -1 -3 -3 -3 -3 -3 -3 -3 -3 -3 -3 -3 -2 1 17 59 106 88 38 9 0 -3 -3 -3 -3 -3 -3 -3 -3 -1 6 35 94 96 38 7 -1 -3 -3 -3 -3 -3 -3 -3 -3 -3 -3 -3 -3 -3 -3 -3 -3 -3 -3 -3 -3 -3 -1 6 34 87 106 56 15 0 -3 -3 -3 -3 -3 -3 -3 -3 -1 6 34 91 100 43 9 -1 -3 -3 -3 -3 -1 6 36 95 
95 36 6 -1 -3 -3 -3 0 6 26 63 104 109 88 91 113 87 37 9 0 -3 -3 -3 -3 -3 -3 -3 -3 -3 -3 -3 -3 -1 7 35 87 107 59 18 1 -2 -3 -3 -3 -3 -3 -3 -3 -3 -2 5 32 89 101 44 9 -1 -3 -3 -3 -3 -3 -3 -3 -3 -3 -3 -3 -3 -3 -3 -3 -3 -3 -3 -3 -3 -3 0 15 56 106 87 34 6 -1 -3 -3 -3 -3 -3 -3 -3 -3 -1 9 43 100 91 34 6 -1 -3 -3 -3 -3 -1 6 36 95 
95 36 6 -1 -3 -3 -3 -3 0 6 26 64 111 136 136 107 53 16 1 -2 -3 -3 -3 -3 -3 -3 -3 -3 -3 -3 -3 -2 1 18 59 107 87 35 7 -1 -3 -3 -3 -3 -3 -3 -3 -3 -3 -2 3 25 78 108 59 16 0 -3 -3 -3 -3 -3 -3 -3 -3 -3 -3 -3 -3 -3 -3 -3 -3 -3 -3 -3 -3 -2 4 28 80 108 61 18 1 -2 -3 -3 -3 -3 -3 -3 -3 -3 0 16 59 108 79 26 3 -2 -3 -3 -3 -3 -1 6 36 95 
95 36 6 -1 -3 -3 -3 -3 -3 0 7 29 75 133 133 74 25 4 -1 -3 -3 -3 -3 -3 -3 -3 -3 -3 -3 -3 -3 0 9 38 88 106 59 17 1 -2 -3 -3 -3 -3 -3 -3 -3 -3 -3 -3 0 16 59 108 78 25 3 -2 -3 -3 -3 -3 -3 -3 -3 -3 -3 -3 -3 -3 -3 -3 -3 -3 -3 -3 -3 -1 9 41 97 97 41 9 -1 -3 -3 -3 -3 -3 -3 -3 -3 -2 3 26 79 108 59 16 0 -3 -3 -3 -3 -3 -1 6 36 95 
95 36 6 -1 -3 -3 -3 -3 -3 -2 0 12 47 109 112 50 12 0 -3 -3 -3 -3 -3 -3 -3 -3 -3 -3 -3 -3 -2 4 24 68 108 85 34 7 -1 -3 -3 -3 -3 -3 -3 -3 -3 -3 -3 -3 -1 9 44 101 89 32 5 -2 -3 -3 -3 -3 -3 -3 -3 -3 -3 -3 -3 -3 -3 -3 -3 -3 -3 -3 -2 1 18 61 108 80 28 4 -2 -3 -3 -3 -3 -3 -3 -3 -3 -1 6 34 91 100 43 9 -1 -3 -3 -3 -3 -3 -1 6 36 95 
95 36 6 -1 -3 -3 -3 -3 -3 -3 -1 6 35 93 105 47 11 0 -3 -3 -3 -3 -3 -3 -3 -3 -3 -3 -3 -2 1 15 53 101 101 53 15 1 -2 -3 -3 -3 -3 -3 -3 -3 -3 -3 -3 -3 -1 7 38 96 93 35 5 -2 -3 -3 -3 -3 -3 -3 -3 -3 -3 -3 -3 -3 -3 -3 -3 -3 -3 -3 -1 6 34 87 106 56 15 0 -3 -3 -3 -3 -3 -3 -3 -3 -3 -1 9 43 100 91 34 6 -1 -3 -3 -3 -3 -3 -1 6 36 95 
95 36 6 -1 -3 -3 -3 -3 -3 -3 -2 3 26 79 109 59 16 0 -3 -3 -3 -3 -3 -3 -3 -3 -3 -3 -3 -1 7 34 85 108 68 24 4 -2 -3 -3 -3 -3 -3 -3 -3 -3 -3 -3 -3 -3 -1 6 36 95 95 36 6 -1 -3 -3 -3 -3 -3 -3 -3 -3 -3 -3 -3 -3 -3 -3 -3 -3 -3 -3 0 15 56 106 87 34 6 -1 -3 -3 -3 -3 -3 -3 -3 -3 -3 0 16 59 108 79 26 3 -2 -3 -3 -3 -3 -3 -1 6 36 95 
95 36 6 -1 -3 -3 -3 -3 -3 -3 -3 0 16 59 108 78 25 3 -2 -3 -3 -3 -3 -3 -3 -3 -3 -3 -2 1 17 59 106 88 38 9 0 -3 -3 -3 -3 -3 -3 -3 -3 -3 -3 -3 -3 -3 -2 5 35 93 96 38 7 -1 -3 -3 -3 -3 -3 -3 -3 -3 -3 -3 -3 -3 -3 -3 -3 -3 -3 -2 4 28 80 108 61 18 1 -2 -3 -3 -3 -3 -3 -3 -3 -3 -2 3 26 79 108 59 16 0 -3 -3 -3 -3 -3 -3 -1 6 36 95 
95 36 6 -1 -3 -3 -3 -3 -3 -3 -3 -1 9 44 101 90 32 5 -2 -3 -3 -3 -3 -3 -3 -3 -3 -3 -1 7 35 87 107 59 18 1 -2 -3 -3 -3 -3 -3 -3 -3 -3 -3 -3 -3 -3 -3 -2 5 32 89 101 44 9 -1 -3 -3 -3 -3 -3 -3 -3 -3 -3 -3 -3 -3 -3 -3 -3 -3 -3 -1 9 41 97 97 41 9 -1 -3 -3 -3 -3 -3 -3 -3 -3 -3 -1 6 34 91 100 43 9 -1 -3 -3 -3 -3 -3 -3 -1 6 36 95 
95 36 6 -1 -3 -3 -3 -3 -3 -3 -3 -1 6 37 95 95 37 6 -1 -3 -3 -3 -3 -3 -3 -3 -3 -2 1 18 59 107 87 35 7 -1 -3 -3 -3 -3 -3 -3 -3 -3 -3 -3 -3 -3 -3 -3 -2 3 25 78 108 59 16 0 -3 -3 -3 -3 -3 -3 -3 -3 -3 -3 -3 -3 -3 -3 -3 -3 -2 1 18 61 108 80 28 4 -2 -3 -3 -3 -3 -3 -3 -3 -3 -3 -1 9 43 100 91 34 6 -1 -3 -3 -3 -3 -3 -3 -1 7 38 97 
97 36 6 -1 -3 -3 -3 -3 -3 -3 -3 -2 5 32 90 101 44 9 -1 -3 -3 -3 -3 -3 -3 -3 -3 0 9 38 88 106 59 17 1 -2 -3 -3 -3 -3 -3 -3 -3 -3 -3 -3 -3 -3 -3 -3 -3 0 16 59 108 78 25 3 -2 -3 -3 -3 -3 -3 -3 -3 -3 -3 -3 -3 -3 -3 -3 -3 -1 6 34 87 106 56 15 0 -3 -3 -3 -3 -3 -3 -3 -3 -3 -3 0 16 59 108 79 26 3 -2 -3 -3 -3 -3 -3 -3 0 10 45 105 
100 35 6 -2 -3 -3 -3 -3 -3 -3 -3 -2 3 25 78 108 59 16 0 -3 -3 -3 -3 -3 -3 -3 -2 4 24 68 108 85 34 7 -1 -3 -3 -3 -3 -3 -3 -3 -3 -3 -3 -3 -3 -3 -3 -3 -3 -1 9 44 101 89 32 5 -2 -3 -3 -3 -3 -3 -3 -3 -3 -3 -3 -3 -3 -3 -3 -3 0 15 56 106 87 34 6 -1 -3 -3 -3 -3 -3 -3 -3 -3 -3 -2 3 26 79 108 59 16 0 -3 -3 -3 -3 -3 -3 -2 1 18 63 123 
102 35 5 -2 -3 -3 -3 -3 -3 -3 -3 -3 0 16 59 108 78 25 3 -2 -3 -3 -3 -3 -3 -2 1 15 53 101 101 53 15 1 -2 -3 -3 -3 -3 -3 -3 -3 -3 -3 -3 -3 -3 -3 -3 -3 -3 -1 7 38 96 93 35 5 -2 -3 -3 -3 -3 -3 -3 -3 -3 -3 -3 -3 -3 -3 -3 -2 4 28 80 108 61 18 1 -2 -3 -3 -3 -3 -3 -3 -3 -3 -3 -1 6 34 91 100 43 9 -1 -3 -3 -3 -3 -3 -3 0 9 37 95 144 
102 35 6 -2 -3 -3 -3 -3 -3 -3 -3 -3 -1 9 44 101 90 32 5 -2 -3 -3 -3 -3 -3 -1 7 34 85 108 68 24 4 -2 -3 -3 -3 -3 -3 -3 -3 -3 -3 -3 -3 -3 -3 -3 -3 -3 -3 -1 6 36 95 95 36 6 -1 -3 -3 -3 -3 -3 -3 -3 -3 -3 -3 -3 -3 -3 -3 -1 9 41 97 97 41 9 -1 -3 -3 -3 -3 -3 -3 -3 -3 -3 -3 -1 9 43 100 91 34 6 -1 -3 -3 -3 -3 -3 -1 4 24 68 123 148 
99 35 6 -2 -3 -3 -3 -3 -3 -3 -3 -3 -1 6 37 95 95 37 6 -1 -3 -3 -3 -3 -2 1 17 59 106 88 38 9 0 -3 -3 -3 -3 -3 -3 -3 -3 -3 -3 -3 -3 -3 -3 -3 -3 -3 -3 -2 5 35 93 96 38 7 -1 -3 -3 -3 -3 -3 -3 -3 -3 -3 -3 -3 -3 -3 -2 1 18 61 108 80 28 4 -2 -3 -3 -3 -3 -3 -3 -3 -3 -3 -3 0 16 59 108 79 26 3 -2 -3 -3 -3 -3 -2 1 16 53 104 128 135 
97 36 6 -1 -3 -3 -3 -3 -3 -3 -3 -3 -2 5 32 90 101 44 9 -1 -3 -3 -3 -3 -1 7 35 87 107 59 18 1 -2 -3 -3 -3 -3 -3 -3 -3 -3 -3 -3 -3 -3 -3 -3 -3 -3 -3 -3 -2 5 32 89 101 44 9 -1 -3 -3 -3 -3 -3 -3 -3 -3 -3 -3 -3 -3 -3 -1 6 34 87 106 56 15 0 -3 -3 -3 -3 -3 -3 -3 -3 -3 -3 -2 3 26 79 108 59 16 0 -3 -3 -3 -3 -3 0 9 37 87 114 103 117 
95 36 6 -1 -3 -3 -3 -3 -3 -3 -3 -3 -2 3 25 78 108 59 16 0 -3 -3 -3 -2 1 18 59 107 87 35 7 -1 -3 -3 -3 -3 -3 -3 -3 -3 -3 -3 -3 -3 -3 -3 -3 -3 -3 -3 -3 -2 3 25 78 108 59 16 0 -2 -3 -3 -3 -3 -3 -3 -3 -3 -3 -3 -3 -3 0 15 56 106 87 34 6 -1 -3 -3 -3 -3 -3 -3 -3 -3 -3 -3 -1 6 34 91 100 43 9 -1 -3 -3 -3 -3 -1 4 24 68 109 95 75 105 
95 36 6 -1 -3 -3 -3 -3 -3 -3 -3 -3 -3 0 16 59 108 78 25 3 -2 -3 -3 0 9 38 88 106 59 17 1 -2 -3 -3 -3 -3 -3 -3 -3 -3 -3 -3 -3 -3 -3 -3 -3 -3 -3 -3 -3 -3 0 16 59 109 79 27 5 0 -1 -2 -3 -3 -3 -3 -3 -3 -3 -3 -3 -2 4 28 80 108 61 18 1 -2 -3 -3 -3 -3 -3 -3 -3 -3 -3 -3 -1 9 43 100 91 34 6 -1 -3 -3 -3 -2 1 16 53 101 102 63 55 99 
95 36 6 -1 -3 -3 -3 -3 -3 -3 -3 -3 -3 -1 9 44 101 90 32 5 -2 -3 -2 4 24 68 108 85 34 7 -1 -3 -3 -3 -3 -3 -3 -3 -3 -3 -3 -3 -3 -3 -3 -3 -3 -3 -3 -3 -3 -3 0 11 48 105 96 41 15 7 5 3 0 -1 -1 -1 -2 -2 -2 -3 -2 0 9 41 97 97 41 9 -1 -3 -3 -3 -3 -3 -3 -3 -3 -3 -3 -3 0 16 59 108 79 26 3 -2 -3 -3 -3 0 9 37 87 108 69 34 44 96 
95 36 6 -1 -3 -3 -3 -3 -3 -3 -3 -3 -3 -1 6 37 95 95 37 6 -1 -2 1 15 53 101 101 53 15 1 -2 -3 -3 -3 -3 -3 -3 -3 -3 -3 -3 -3 -3 -3 -3 -3 -3 -3 -3 -3 -3 -1 3 16 53 113 117 70 44 36 32 25 16 9 7 6 5 5 3 0 0 3 19 62 108 80 28 4 -2 -3 -3 -3 -3 -3 -3 -3 -3 -3 -3 -2 3 26 79 108 59 16 0 -3 -3 -3 -1 4 24 67 108 87 39 19 39 95 
95 36 6 -1 -3 -3 -3 -3 -3 -3 -3 -3 -3 -2 5 32 90 101 44 9 0 0 7 34 85 108 68 24 4 -2 -3 -3 -3 -3 -3 -3 -3 -3 -3 -3 -3 -3 -3 -3 -3 -3 -3 -3 -3 -2 0 4 17 40 82 135 144 116 100 94 89 78 59 44 38 36 35 32 25 16 11 16 41 91 107 56 15 0 -3 -3 -3 -3 -3 -3 -3 -3 -3 -3 -3 -1 6 34 91 100 43 9 -1 -3 -3 -2 1 16 53 101 101 53 18 11 37 95 
95 36 6 -1 -3 -3 -3 -3 -3 -3 -3 -3 -3 -2 3 25 78 108 59 16 1 2 17 59 106 88 38 9 0 -3 -3 -3 -3 -3 -3 -3 -3 -3 -3 -3 -3 -3 -3 -3 -3 -3 -3 -3 -1 1 9 24 53 88 115 124 113 101 97 97 101 108 108 101 96 95 93 89 78 59 48 53 82 117 91 35 7 -1 -3 -3 -3 -3 -3 -3 -3 -3 -3 -3 -3 -1 9 43 100 91 34 6 -1 -3 -3 0 9 37 87 108 68 25 6 8 36 95 
95 36 6 -1 -3 -3 -3 -3 -3 -3 -3 -3 -3 -3 0 16 59 108 78 26 5 8 35 87 107 59 18 1 -2 -3 -3 -3 -3 -3 -3 -3 -3 -3 -3 -3 -3 -3 -3 -3 -3 -3 -2 0 4 16 37 67 101 109 90 63 45 38 37 38 44 59 78 89 93 95 96 101 108 109 105 112 135 133 72 22 2 -2 -3 -3 -3 -3 -3 -3 -3 -3 -3 -3 -3 0 16 59 108 79 26 3 -2 -3 -1 4 24 67 108 87 37 9 1 6 36 95 
95 36 6 -1 -3 -3 -3 -3 -3 -3 -3 -3 -3 -3 -1 9 44 101 90 34 11 20 59 107 87 35 7 -1 -3 -3 -3 -3 -3 -3 -3 -3 -3 -3 -3 -3 -3 -3 -3 -3 -3 -2 1 9 24 53 87 108 101 68 38 19 10 7 6 7 9 16 25 32 35 36 38 44 59 79 93 109 135 133 73 23 3 -2 -3 -3 -3 -3 -3 -3 -3 -3 -3 -3 -2 3 26 79 108 59 16 0 -2 -2 1 16 53 101 101 53 16 1 0 6 36 95 
95 36 6 -1 -3 -3 -3 -3 -3 -3 -3 -3 -3 -3 -1 6 37 95 96 40 19 40 89 106 59 17 1 -2 -3 -3 -3 -3 -3 -3 -3 -3 -3 -3 -3 -3 -3 -3 -3 -3 -1 4 16 37 67 101 108 87 53 24 9 2 0 -1 -1 -1 -1 0 3 5 5 6 7 9 16 26 35 49 81 117 92 39 10 0 -2 -3 -3 -3 -3 -3 -3 -3 -3 -3 -1 6 34 91 100 43 9 0 -2 0 9 37 87 108 67 24 4 -1 -1 6 36 95 
95 36 6 -1 -3 -3 -3 -3 -3 -3 -3 -3 -3 -3 -2 5 32 90 102 52 38 70 108 85 34 7 -1 -3 -3 -3 -3 -3 -3 -3 -3 -3 -3 -3 -3 -3 -3 -3 -2 0 6 22 52 86 108 101 67 37 16 4 0 -2 -3 -3 -3 -3 -3 -3 -2 -2 -2 -1 -1 -1 0 3 7 15 40 88 110 71 30 10 2 0 -1 -1 -1 -1 -1 -1 -1 -1 0 11 45 101 92 35 6 -1 -1 4 24 67 108 87 37 9 0 -2 -1 6 36 95 
95 36 6 -1 -3 -3 -3 -3 -3 -3 -3 -3 -3 -3 -2 3 25 78 111 77 72 104 101 53 15 1 -2 -3 -3 -3 -3 -3 -3 -3 -3 -3 -3 -3 -3 -3 -3 -1 1 9 27 62 100 108 87 53 24 9 1 -1 -3 -3 -3 -3 -3 -3 -3 -3 -3 -3 -3 -3 -3 -3 -3 -2 -1 2 17 54 103 110 72 38 19 10 7 6 6 6 6 6 6 7 10 25 66 112 82 28 4 0 1 16 53 101 101 53 16 1 -2 -3 -1 6 36 95 
95 36 6 -1 -3 -3 -3 -3 -3 -3 -3 -3 -3 -3 -3 0 16 59 113 111 110 111 68 24 4 -2 -3 -3 -3 -3 -3 -3 -3 -3 -3 -3 -3 -3 -3 -2 0 4 16 37 69 104 104 69 37 16 4 0 -2 -3 -3 -3 -3 -3 -3 -3 -3 -3 -3 -3 -3 -3 -3 -3 -3 -3 -3 -1 4 26 73 126 129 94 63 45 38 36 36 36 36 36 36 37 42 61 103 125 73 26 6 2 10 37 87 108 67 24 4 -1 -3 -3 -1 6 36 95 
95 36 6 -1 -3 -3 -3 -3 -3 -3 -3 -3 -3 -3 -3 -1 9 44 107 135 129 90 37 9 0 -3 -3 -3 -3 -3 -3 -3 -3 -3 -3 -3 -3 -3 -1 1 9 24 53 87 108 100 62 27 9 1 -1 -3 -3 -3 -3 -3 -3 -3 -3 -3 -3 -3 -3 -3 -3 -3 -3 -3 -3 -3 -3 -3 0 12 50 117 147 129 113 102 97 95 95 95 95 95 95 96 100 114 141 140 89 45 21 15 29 69 108 87 37 9 0 -3 -3 -3 -1 6 36 95 
95 36 6 -1 -3 -3 -3 -3 -3 -3 -3 -3 -3 -3 -3 -1 6 38 104 148 120 60 18 1 -2 -3 -3 -3 -3 -3 -3 -3 -3 -3 -3 -3 -2 0 4 16 37 67 101 108 86 52 22 6 0 -2 -3 -3 -3 -3 -3 -3 -3 -3 -3 -3 -3 -3 -3 -3 -3 -3 -3 -3 -3 -3 -3 -3 0 11 47 109 118 89 86 91 93 94 95 95 95 95 95 95 96 101 113 125 117 91 63 51 68 106 103 54 16 1 -2 -3 -3 -3 -1 6 36 95 
95 36 6 -1 -3 -3 -3 -3 -3 -3 -3 -3 -3 -3 -3 -1 6 36 103 143 93 35 7 -1 -3 -3 -3 -3 -3 -3 -3 -3 -3 -3 -3 -1 1 8 24 53 87 108 101 68 37 16 4 -1 -3 -3 -3 -3 -3 -3 -3 -3 -3 -3 -3 -3 -3 -3 -3 -3 -3 -3 -3 -3 -3 -3 -3 -3 0 16 59 111 88 44 32 33 35 35 36 36 36 36 36 36 36 38 45 63 89 108 111 109 122 123 74 27 5 -1 -3 -3 -3 -3 -1 6 36 95 
95 36 6 -1 -3 -3 -3 -3 -3 -3 -3 -3 -3 -3 -3 -1 6 36 100 123 63 18 1 -2 -3 -3 -3 -3 -3 -3 -3 -3 -3 -2 0 4 15 36 68 103 110 88 55 26 9 1 -1 -3 -3 -3 -3 -3 -3 -3 -3 -3 -3 -3 -3 -3 -3 -3 -3 -3 -3 -3 -3 -3 -3 -3 -3 -2 3 25 78 109 61 20 7 6 6 6 6 6 6 6 6 6 6 7 10 18 35 59 90 122 148 125 60 17 1 -2 -3 -3 -3 -3 -1 6 36 95 
95 36 6 -1 -3 -3 -3 -3 -3 -3 -3 -3 -3 -3 -3 -1 6 36 97 105 45 9 0 -3 -3 -3 -3 -3 -3 -3 -2 -1 0 4 11 25 53 91 120 116 80 47 25 11 3 0 -1 -2 -3 -3 -3 -3 -3 -3 -3 -3 -3 -3 -3 -3 -3 -3 -3 -3 -3 -3 -3 -3 -3 -3 -3 -2 5 32 89 101 45 10 0 -1 -1 -1 -1 -1 -1 -1 -1 -1 -1 -1 0 1 7 18 38 71 117 125 75 27 5 -1 -3 -3 -3 -3 -1 6 36 95 
95 36 6 -1 -3 -3 -3 -3 -3 -3 -3 -3 -3 -3 -3 -1 7 38 97 96 37 6 -1 -3 -3 -3 -3 -3 -2 -1 1 6 15 28 44 71 111 143 143 110 72 50 38 27 16 9 6 3 0 -1 -1 -2 -2 -3 -3 -3 -3 -3 -3 -3 -3 -3 -3 -3 -3 -3 -3 -3 -3 -3 -3 -1 6 35 94 96 38 7 -1 -3 -3 -3 -3 -3 -3 -3 -3 -3 -3 -3 -3 -2 -1 1 9 28 65 108 103 54 16 1 -2 -3 -3 -3 -1 6 36 95 
95 36 6 -1 -3 -3 -3 -3 -3 -3 -3 -3 -3 -3 -3 -1 9 44 101 90 32 5 -2 -3 -3 -3 -2 -1 1 7 17 34 56 80 98 114 121 121 125 121 107 98 91 78 59 43 34 26 16 9 6 5 3 0 -1 -1 -2 -3 -3 -3 -3 -3 -3 -3 -3 -3 -3 -3 -3 -3 -3 -1 7 38 96 94 35 6 -1 -3 -3 -3 -3 -3 -3 -3 -3 -3 -3 -3 -3 -3 -3 -2 0 7 28 69 109 87 37 9 0 -3 -3 -3 -1 6 36 95 
95 36 6 -1 -3 -3 -3 -3 -3 -3 -3 -3 -3 -3 -3 0 16 59 108 78 26 3 -2 -2 -1 0 4 9 18 35 59 87 106 108 97 82 62 53 62 79 90 95 101 108 108 100 91 79 59 44 37 32 25 16 9 6 3 0 -1 -1 -2 -2 -3 -3 -3 -3 -3 -3 -3 -3 -3 -1 9 44 101 89 32 5 -2 -3 -3 -3 -3 -3 -3 -3 -3 -3 -3 -3 -3 -3 -3 -3 -2 0 9 37 87 108 67 24 4 -1 -3 -3 -1 6 36 95 
95 36 6 -1 -3 -3 -3 -3 -3 -3 -3 -3 -3 -3 -2 3 25 78 108 59 16 1 0 1 6 15 28 41 61 88 107 107 88 61 41 28 17 13 16 26 32 37 44 59 79 91 100 108 108 101 95 90 78 59 43 34 26 16 9 6 5 3 0 -1 -1 -2 -3 -3 -3 -3 -2 0 16 59 108 78 25 3 -2 -3 -3 -3 -3 -3 -3 -3 -3 -3 -3 -3 -3 -3 -3 -3 -3 -2 1 16 53 101 101 53 16 1 -2 -3 -1 6 36 95 
95 36 6 -1 -3 -3 -3 -3 -3 -3 -3 -3 -3 -3 -2 5 32 90 101 45 12 4 7 17 34 56 80 97 108 106 87 59 35 18 9 4 1 0 0 3 5 6 9 16 26 34 43 59 78 90 95 101 108 108 100 91 79 59 44 37 32 25 16 9 6 3 0 -1 -1 -1 -1 4 26 78 108 59 16 0 -3 -3 -3 -3 -3 -3 -3 -3 -3 -3 -3 -3 -3 -3 -3 -3 -3 -3 -1 4 24 67 108 87 37 9 0 -2 -1 6 36 95 
95 36 6 -1 -3 -3 -3 -3 -3 -3 -3 -3 -3 -3 -1 6 37 96 97 42 18 19 35 59 87 106 108 97 80 56 34 17 7 1 -1 -2 -3 -3 -3 -2 -2 -1 -1 0 3 6 9 16 25 32 37 44 59 79 91 100 108 108 101 95 90 78 59 43 34 26 16 9 6 5 5 9 35 91 101 44 9 -1 -3 -3 -3 -3 -3 -3 -3 -3 -3 -3 -3 -3 -3 -3 -3 -3 -3 -3 -3 0 9 37 86 108 69 27 6 0 -1 6 36 95 
95 36 6 -1 -3 -3 -3 -3 -3 -3 -3 -3 -3 -3 0 10 45 104 101 54 44 61 87 107 107 88 61 41 28 15 6 1 -1 -2 -3 -3 -3 -3 -3 -3 -3 -3 -3 -3 -2 -1 -1 0 3 5 6 9 16 26 34 43 59 78 90 95 101 108 108 100 91 79 59 44 37 33 27 25 47 100 97 38 7 -1 -3 -3 -3 -3 -3 -3 -3 -3 -3 -3 -3 -3 -3 -3 -3 -3 -3 -3 -3 -2 1 16 52 100 104 62 23 4 0 6 36 95 
95 36 6 -1 -3 -3 -3 -3 -3 -3 -3 -3 -3 -2 1 18 63 122 116 88 94 108 107 87 59 35 18 9 4 0 -1 -2 -3 -3 -3 -3 -3 -3 -3 -3 -3 -3 -3 -3 -3 -3 -3 -3 -2 -2 -1 -1 0 3 6 9 16 25 32 37 44 59 79 91 100 108 108 101 95 90 80 68 78 117 99 36 6 -1 -3 -3 -3 -3 -3 -3 -3 -3 -3 -3 -3 -3 -3 -3 -3 -3 -3 -3 -3 -3 -2 4 22 62 104 100 52 16 3 7 36 95 
95 36 6 -1 -3 -3 -3 -3 -3 -3 -3 -3 -3 -1 7 35 94 145 138 120 108 87 59 35 17 7 1 -1 -2 -3 -3 -3 -3 -3 -3 -3 -3 -3 -3 -3 -3 -3 -3 -3 -3 -3 -3 -3 -3 -3 -3 -3 -3 -2 -1 -1 0 3 5 6 9 16 26 34 43 59 78 90 95 101 109 114 125 144 102 36 6 -2 -3 -3 -3 -3 -3 -3 -3 -3 -3 -3 -3 -3 -3 -3 -3 -3 -3 -3 -3 -3 -3 -1 6 27 69 108 87 37 11 9 36 95 
95 36 6 -1 -3 -3 -3 -3 -3 -3 -3 -3 -2 1 18 60 117 131 107 82 56 34 17 7 1 -1 -2 -3 -3 -3 -3 -3 -3 -3 -3 -3 -3 -3 -3 -3 -3 -3 -3 -3 -3 -3 -3 -3 -3 -3 -3 -3 -3 -3 -3 -3 -3 -2 -2 -1 -1 0 3 6 9 16 25 32 37 44 60 85 114 142 102 35 6 -2 -3 -3 -3 -3 -3 -3 -3 -3 -3 -3 -3 -3 -3 -3 -3 -3 -3 -3 -3 -3 -3 -3 0 9 37 87 108 69 29 16 38 95 
95 36 6 -1 -3 -3 -3 -3 -3 -3 -3 -3 0 9 37 89 114 80 47 29 15 6 1 -1 -2 -3 -3 -3 -3 -3 -3 -3 -3 -3 -3 -3 -3 -3 -3 -3 -3 -3 -3 -3 -3 -3 -3 -3 -3 -3 -3 -3 -3 -3 -3 -3 -3 -3 -3 -3 -3 -3 -2 -1 -1 0 3 5 6 9 18 35 67 115 98 36 6 -1 -3 -3 -3 -3 -3 -3 -3 -3 -3 -3 -3 -3 -3 -3 -3 -3 -3 -3 -3 -3 -3 -3 -2 1 16 52 100 104 64 32 43 96 
95 36 6 -1 -3 -3 -3 -3 -3 -3 -3 -1 4 24 68 109 88 40 14 5 0 -1 -2 -3 -3 -3 -3 -3 -3 -3 -3 -3 -3 -3 -3 -3 -3 -3 -3 -3 -3 -3 -3 -3 -3 -3 -3 -3 -3 -3 -3 -3 -3 -3 -3 -3 -3 -3 -3 -3 -3 -3 -3 -3 -3 -3 -2 -2 -1 0 2 13 44 100 96 36 6 -1 -3 -3 -3 -3 -3 -3 -3 -3 -3 -3 -3 -3 -3 -3 -3 -3 -3 -3 -3 -3 -3 -3 -3 -2 4 22 62 104 101 62 55 99 
95 36 6 -1 -3 -3 -3 -3 -3 -3 -2 1 16 53 101 101 53 16 2 -1 -2 -3 -3 -3 -3 -3 -3 -3 -3 -3 -3 -3 -3 -3 -3 -3 -3 -3 -3 -3 -3 -3 -3 -3 -3 -3 -3 -3 -3 -3 -3 -3 -3 -3 -3 -3 -3 -3 -3 -3 -3 -3 -3 -3 -3 -3 -3 -3 -3 -3 -1 7 37 96 95 36 6 -1 -3 -3 -3 -3 -3 -3 -3 -3 -3 -3 -3 -3 -3 -3 -3 -3 -3 -3 -3 -3 -3 -3 -3 -3 -1 6 27 69 109 95 75 105 
97 36 6 -1 -3 -3 -3 -3 -3 -3 0 9 37 87 108 68 25 4 -1 -3 -3 -3 -3 -3 -3 -3 -3 -3 -3 -3 -3 -3 -3 -3 -3 -3 -3 -3 -3 -3 -3 -3 -3 -3 -3 -3 -3 -3 -3 -3 -3 -3 -3 -3 -3 -3 -3 -3 -3 -3 -3 -3 -3 -3 -3 -3 -3 -3 -3 -3 -1 6 36 94 97 39 7 -1 -3 -3 -3 -3 -3 -3 -3 -3 -3 -3 -3 -3 -3 -3 -3 -3 -3 -3 -3 -3 -3 -3 -3 -3 -3 0 9 37 87 114 103 117 
99 35 6 -1 -3 -3 -3 -3 -3 0 6 28 69 109 88 38 10 0 -2 -3 -3 -3 -3 -3 -3 -3 -3 -3 -3 -3 -3 -3 -3 -3 -3 -3 -3 -3 -3 -3 -3 -3 -3 -3 -3 -3 -3 -3 -3 -3 -3 -3 -3 -3 -3 -3 -3 -3 -3 -3 -3 -3 -3 -3 -3 -3 -3 -3 -3 -3 -1 7 36 95 105 48 13 1 -2 -3 -3 -3 -3 -3 -3 -3 -3 -3 -3 -3 -3 -3 -3 -3 -3 -3 -3 -3 -3 -3 -3 -3 -3 -2 1 16 53 104 128 135 
102 35 6 -2 -3 -3 -3 -3 0 6 25 64 108 107 62 25 8 1 0 -1 -1 -1 -1 -1 -1 -1 -2 -2 -2 -3 -3 -3 -3 -3 -3 -3 -3 -3 -3 -3 -3 -3 -3 -3 -3 -3 -3 -3 -3 -3 -3 -3 -3 -3 -3 -3 -3 -3 -3 -3 -3 -3 -3 -3 -3 -3 -3 -3 -3 -1 2 13 44 101 125 76 31 10 2 -1 -2 -3 -3 -3 -3 -3 -3 -3 -3 -3 -3 -3 -3 -3 -3 -3 -3 -3 -3 -3 -3 -3 -3 -3 -1 4 24 68 123 148 
102 35 5 -2 -3 -3 -3 0 6 25 64 113 129 97 61 40 27 16 9 7 6 6 6 6 6 6 5 5 3 0 -1 -1 -1 -1 -1 -1 -1 -2 -2 -2 -3 -3 -3 -3 -3 -3 -3 -3 -3 -3 -3 -3 -3 -3 -3 -3 -3 -3 -3 -3 -3 -3 -3 -3 -3 -3 -3 -2 0 4 16 37 72 121 148 120 72 38 18 7 1 -2 -3 -3 -3 -3 -3 -3 -3 -3 -3 -3 -3 -3 -3 -3 -3 -3 -3 -3 -3 -3 -3 -3 -3 0 9 37 95 144 
100 35 6 -1 -3 -3 0 6 25 64 115 147 140 117 101 91 79 59 44 38 36 36 36 36 36 35 35 32 25 16 9 7 6 6 6 6 6 5 5 3 0 -1 -1 -1 -1 -1 -1 -1 -1 -2 -2 -2 -3 -3 -3 -3 -3 -3 -3 -3 -3 -3 -3 -3 -3 -2 -1 1 9 24 53 87 111 121 122 123 113 89 59 34 15 4 0 -2 -3 -3 -3 -3 -3 -3 -3 -3 -3 -3 -3 -3 -3 -3 -3 -3 -3 -3 -3 -3 -3 -2 1 18 63 123 
97 36 6 -1 -2 0 6 26 63 106 122 114 104 98 97 101 108 108 101 96 95 95 95 95 95 94 93 89 78 59 44 38 36 36 36 36 35 35 32 25 16 9 7 6 6 6 6 6 6 5 5 3 0 -1 -1 -1 -1 -1 -1 -1 -2 -2 -2 -2 -1 1 7 18 38 68 101 108 90 65 55 65 89 107 107 85 53 24 9 1 -1 -2 -3 -3 -3 -3 -3 -3 -3 -3 -3 -3 -3 -3 -3 -3 -3 -3 -3 -3 -3 -3 0 10 45 105 
95 36 6 0 0 7 26 63 103 106 73 48 39 37 38 44 59 78 89 93 94 95 95 95 95 95 96 101 108 108 101 96 95 95 95 95 94 93 89 78 59 44 38 36 36 36 36 36 35 35 32 25 16 9 7 6 6 6 6 6 5 5 3 2 5 16 34 59 88 108 101 68 38 20 14 19 35 59 88 108 101 68 38 18 7 1 -2 -3 -3 -3 -3 -3 -3 -3 -3 -3 -3 -3 -3 -3 -3 -3 -3 -3 -3 -3 -1 7 38 97 
95 36 8 3 10 28 64 103 103 64 29 12 7 6 7 9 16 25 32 35 35 36 36 36 36 36 38 44 59 78 89 93 94 95 95 95 95 96 101 108 108 101 96 95 95 95 95 95 94 93 89 78 59 44 38 36 36 36 36 35 35 32 27 21 29 54 86 107 106 85 53 24 9 2 0 1 7 18 38 68 101 108 88 59 34 15 4 0 -2 -3 -3 -3 -3 -3 -3 -3 -3 -3 -3 -3 -3 -3 -3 -3 -3 -3 -1 6 36 95 
95 38 14 18 37 69 104 103 63 26 7 0 -1 -1 -1 -1 0 3 5 5 6 6 6 6 6 6 7 9 16 25 32 35 35 36 36 36 36 38 44 59 78 89 93 94 95 95 95 95 95 96 101 108 108 101 96 95 95 95 95 94 93 90 82 72 80 105 109 89 59 34 15 4 0 -2 -3 -2 -1 1 9 24 53 85 106 106 85 53 24 9 1 -1 -2 -3 -3 -3 -3 -3 -3 -3 -3 -3 -3 -3 -3 -3 -3 -3 -1 6 36 95 
97 45 32 54 87 108 100 61 25 6 0 -2 -3 -3 -3 -3 -3 -2 -2 -2 -1 -1 -1 -1 -1 -1 -1 -1 0 3 5 5 6 6 6 6 6 7 9 16 25 32 35 35 36 36 36 36 36 38 44 59 78 89 93 94 95 95 95 95 97 104 119 133 134 112 71 38 18 7 1 -2 -3 -3 -3 -3 -3 -2 0 4 15 34 59 88 108 101 68 38 18 7 1 -2 -3 -3 -3 -3 -3 -3 -3 -3 -3 -3 -3 -3 -3 -3 -1 6 36 95 
103 64 71 101 108 87 52 22 5 0 -3 -3 -3 -3 -3 -3 -3 -3 -3 -3 -3 -3 -3 -3 -3 -3 -3 -3 -3 -2 -2 -2 -1 -1 -1 -1 -1 -1 -1 0 3 5 5 6 6 6 6 6 6 7 9 16 25 32 35 35 36 36 36 36 39 51 85 135 134 76 31 10 2 -1 -2 -3 -3 -3 -3 -3 -3 -3 -3 -2 1 7 18 38 68 101 108 88 59 34 15 4 0 -2 -3 -3 -3 -3 -3 -3 -3 -3 -3 -3 -3 -3 -1 6 36 95 
117 99 110 105 69 37 16 4 -1 -3 -3 -3 -3 -3 -3 -3 -3 -3 -3 -3 -3 -3 -3 -3 -3 -3 -3 -3 -3 -3 -3 -3 -3 -3 -3 -3 -3 -3 -3 -3 -2 -2 -2 -1 -1 -1 -1 -1 -1 -1 -1 0 3 5 5 6 6 6 6 6 8 18 51 111 110 49 13 1 -2 -3 -3 -3 -3 -3 -3 -3 -3 -3 -3 -3 -2 -1 1 9 24 53 85 106 106 85 53 24 9 1 -1 -2 -3 -3 -3 -3 -3 -3 -3 -3 -3 -3 -1 6 36 97 
139 129 107 64 28 9 1 -2 -3 -3 -3 -3 -3 -3 -3 -3 -3 -3 -3 -3 -3 -3 -3 -3 -3 -3 -3 -3 -3 -3 -3 -3 -3 -3 -3 -3 -3 -3 -3 -3 -3 -3 -3 -3 -3 -3 -3 -3 -3 -3 -3 -3 -2 -2 -2 -1 -1 -1 -1 -1 0 8 39 99 99 39 7 -1 -3 -3 -3 -3 -3 -3 -3 -3 -3 -3 -3 -3 -3 -3 -2 0 4 15 34 59 88 108 101 68 38 18 7 1 -1 -2 -3 -3 -3 -3 -3 -3 -3 -3 -2 6 35 100 
148 116 65 26 7 0 -2 -3 -3 -3 -3 -3 -3 -3 -3 -3 -3 -3 -3 -3 -3 -3 -3 -3 -3 -3 -3 -3 -3 -3 -3 -3 -3 -3 -3 -3 -3 -3 -3 -3 -3 -3 -3 -3 -3 -3 -3 -3 -3 -3 -3 -3 -3 -3 -3 -3 -3 -3 -3 -3 -1 6 36 95 95 36 6 -1 -3 -3 -3 -3 -3 -3 -3 -3 -3 -3 -3 -3 -3 -3 -3 -3 -2 1 7 18 38 68 101 108 88 59 35 17 7 1 -2 -3 -3 -3 -3 -3 -3 -3 -2 6 35 103 
128 75 28 7 0 -3 -3 -3 -3 -3 -3 -3 -3 -3 -3 -3 -3 -3 -3 -3 -3 -3 -3 -3 -3 -3 -3 -3 -3 -3 -3 -3 -3 -3 -3 -3 -3 -3 -3 -3 -3 -3 -3 -3 -3 -3 -3 -3 -3 -3 -3 -3 -3 -3 -3 -3 -3 -3 -3 -3 -1 6 36 95 95 36 6 -1 -3 -3 -3 -3 -3 -3 -3 -3 -3 -3 -3 -3 -3 -3 -3 -3 -3 -2 -1 1 9 24 53 85 106 107 87 59 34 15 4 0 -2 -3 -3 -3 -3 -3 -1 6 35 101 
107 48 12 0 -2 -3 -3 -3 -3 -3 -3 -3 -3 -3 -3 -3 -3 -3 -3 -3 -3 -3 -3 -3 -3 -3 -3 -3 -3 -3 -3 -3 -3 -3 -3 -3 -3 -3 -3 -3 -3 -3 -3 -3 -3 -3 -3 -3 -3 -3 -3 -3 -3 -3 -3 -3 -3 -3 -3 -3 -1 6 36 95 95 36 6 -1 -3 -3 -3 -3 -3 -3 -3 -3 -3 -3 -3 -3 -3 -3 -3 -3 -3 -3 -3 -2 0 4 15 34 59 87 107 106 85 53 24 9 1 0 -1 -2 -3 -3 -1 6 36 97 
98 39 7 -1 -3 -3 -3 -3 -3 -3 -3 -3 -3 -3 -3 -3 -3 -3 -3 -3 -3 -3 -3 -3 -3 -3 -3 -3 -3 -3 -3 -3 -3 -3 -3 -3 -3 -3 -3 -3 -3 -3 -3 -3 -3 -3 -3 -3 -3 -3 -3 -3 -3 -3 -3 -3 -3 -3 -3 -3 -1 6 36 95 95 36 6 -1 -3 -3 -3 -3 -3 -3 -3 -3 -3 -3 -3 -3 -3 -3 -3 -3 -3 -3 -3 -3 -3 -2 1 7 17 35 59 89 109 102 68 38 18 9 6 3 0 0 0 7 36 96 
95 36 6 -1 -3 -3 -3 -3 -3 -3 -3 -3 -3 -3 -3 -3 -3 -3 -3 -3 -3 -3 -3 -3 -3 -3 -3 -3 -3 -3 -3 -3 -3 -3 -3 -3 -3 -3 -3 -3 -3 -3 -3 -3 -3 -3 -3 -3 -3 -3 -3 -3 -3 -3 -3 -3 -3 -3 -3 -3 -1 6 36 95 95 36 6 -1 -3 -3 -3 -3 -3 -3 -3 -3 -3 -3 -3 -3 -3 -3 -3 -3 -3 -3 -3 -3 -3 -3 -2 -1 1 8 19 40 73 109 117 94 64 44 34 26 16 9 8 13 40 97 
96 36 6 -1 -3 -3 -3 -3 -3 -3 -3 -3 -3 -3 -3 -3 -3 -3 -3 -3 -3 -3 -3 -3 -3 -3 -3 -3 -3 -3 -3 -3 -3 -3 -3 -3 -3 -3 -3 -3 -3 -3 -3 -3 -3 -3 -3 -3 -3 -3 -3 -3 -3 -3 -3 -3 -3 -3 -3 -3 -1 6 36 95 95 36 6 -1 -3 -3 -3 -3 -3 -3 -3 -3 -3 -3 -3 -3 -3 -3 -3 -3 -3 -3 -3 -3 -3 -3 -3 -2 0 3 10 22 46 89 132 145 126 105 92 79 59 44 36 36 54 103 
100 37 8 0 -1 -1 -2 -2 -2 -3 -3 -3 -3 -3 -3 -3 -3 -3 -3 -3 -3 -3 -3 -3 -3 -3 -3 -3 -3 -3 -3 -3 -3 -3 -3 -3 -3 -3 -3 -3 -3 -3 -3 -3 -3 -3 -3 -3 -3 -3 -3 -3 -3 -3 -3 -3 -3 -3 -3 -3 -1 6 36 95 95 36 6 -1 -3 -3 -3 -3 -3 -3 -3 -3 -3 -3 -3 -3 -3 -3 -3 -3 -3 -3 -3 -3 -3 -2 -1 1 7 16 29 44 69 104 130 129 112 102 102 108 108 100 93 87 92 122 
109 45 16 8 6 6 5 5 3 0 -1 -1 -1 -1 -2 -2 -2 -3 -3 -3 -3 -3 -3 -3 -3 -3 -3 -3 -3 -3 -3 -3 -3 -3 -3 -3 -3 -3 -3 -3 -3 -3 -3 -3 -3 -3 -3 -3 -3 -3 -3 -3 -3 -3 -3 -3 -3 -3 -3 -3 -1 6 36 95 95 36 6 -1 -3 -3 -3 -3 -3 -3 -3 -3 -3 -3 -3 -3 -3 -3 -3 -3 -3 -3 -2 -1 0 4 9 18 34 56 80 97 109 108 90 63 46 40 45 59 79 91 101 114 131 148 
124 71 45 37 36 35 35 32 25 16 9 7 6 6 5 5 3 0 -1 -1 -1 -1 -1 -2 -2 -2 -3 -3 -3 -3 -3 -3 -3 -3 -3 -3 -3 -3 -3 -3 -3 -3 -3 -3 -3 -3 -3 -3 -3 -3 -3 -3 -3 -3 -3 -3 -3 -3 -3 -3 -1 6 36 95 95 36 6 -1 -3 -3 -3 -3 -3 -3 -3 -3 -3 -3 -3 -3 -3 -3 -3 -3 -2 -1 1 6 15 28 41 61 87 106 108 97 80 56 34 18 10 8 9 16 26 34 45 66 104 144 
148 120 101 96 95 94 93 89 78 59 44 38 36 36 35 32 25 16 9 7 6 6 6 5 5 3 0 -1 -1 -1 -1 -2 -2 -2 -3 -3 -3 -3 -3 -3 -3 -3 -3 -3 -3 -3 -3 -3 -3 -3 -3 -3 -3 -3 -3 -3 -3 -3 -3 -3 -1 6 36 95 95 36 6 -1 -3 -3 -3 -3 -3 -3 -3 -3 -3 -3 -3 -3 -3 -2 -1 0 4 9 18 34 56 80 97 108 106 87 61 41 28 15 6 1 0 -1 -1 0 3 6 11 25 61 122 
144 119 101 96 95 95 96 101 108 108 101 96 95 94 93 89 78 59 44 38 36 36 35 35 32 25 16 9 7 6 6 5 5 3 0 -1 -1 -1 -1 -1 -2 -2 -2 -3 -3 -3 -3 -3 -3 -3 -3 -3 -3 -3 -3 -3 -3 -3 -3 -3 -1 6 36 95 95 36 6 -1 -3 -3 -3 -3 -3 -3 -3 -3 -3 -3 -3 -2 -1 1 6 15 28 41 61 87 106 108 97 80 56 34 18 9 4 0 -1 -2 -3 -3 -3 -3 -2 -1 0 10 42 108 
116 70 45 37 36 36 38 44 59 78 89 93 94 95 96 101 108 108 101 96 95 95 94 93 89 78 59 44 38 36 36 35 32 25 16 9 7 6 6 6 5 5 3 0 -1 -1 -1 -1 -2 -2 -2 -3 -3 -3 -3 -3 -3 -3 -3 -3 -1 6 36 95 95 36 6 -1 -3 -3 -3 -3 -3 -3 -3 -3 -3 -2 -1 1 7 17 34 56 80 97 108 106 87 61 41 28 15 6 1 -1 -2 -3 -3 -3 -3 -3 -3 -3 -3 -3 -1 6 37 99 
100 45 16 8 6 6 7 9 16 25 32 35 36 36 38 44 59 78 89 93 94 95 95 96 101 108 108 101 96 95 94 93 89 78 59 44 38 36 36 35 35 32 25 16 9 7 6 6 5 5 3 0 -1 -1 -1 -1 -1 -2 -2 -2 -1 6 36 95 95 36 6 -1 -3 -3 -3 -3 -3 -3 -2 -1 0 4 9 18 35 59 87 106 108 97 80 56 34 18 9 4 0 -1 -2 -3 -3 -3 -3 -3 -3 -3 -3 -3 -3 -3 -1 6 36 96 
96 37 8 0 -1 -1 -1 -1 0 3 5 5 6 6 7 9 16 25 32 35 35 36 36 38 44 59 78 89 93 94 95 96 101 108 108 101 96 95 95 94 93 89 78 59 44 38 36 36 35 32 25 16 9 7 6 6 6 5 5 3 2 9 38 96 95 36 6 -1 -3 -3 -3 -3 -2 -1 1 6 15 28 41 61 88 107 107 88 61 41 28 15 6 1 -1 -2 -3 -3 -3 -3 -3 -3 -3 -3 -3 -3 -3 -3 -3 -3 -1 6 36 95 
95 36 6 -1 -3 -3 -3 -3 -3 -2 -2 -2 -1 -1 -1 -1 0 3 5 5 6 6 6 7 9 16 25 32 35 36 36 38 44 59 78 89 93 94 95 95 96 101 108 108 101 96 95 94 93 89 78 59 44 38 36 36 35 35 32 26 18 19 46 101 99 39 7 -1 -3 -2 -1 0 4 9 18 34 56 80 97 108 106 87 59 35 18 9 4 0 -1 -2 -3 -3 -3 -3 -3 -3 -3 -3 -3 -3 -3 -3 -3 -3 -3 -3 -1 6 36 95 
95 36 6 -1 -3 -3 -3 -3 -3 -3 -3 -3 -3 -3 -3 -3 -3 -2 -2 -2 -1 -1 -1 -1 -1 0 3 5 5 6 6 7 9 16 25 32 35 35 36 36 38 44 59 78 89 93 94 95 96 101 108 108 101 96 95 95 94 93 89 78 61 53 73 119 111 49 13 1 0 1 6 15 28 41 61 87 106 108 97 80 56 34 17 7 1 -1 -2 -3 -3 -3 -3 -3 -3 -3 -3 -3 -3 -3 -3 -3 -3 -3 -3 -3 -3 -3 -1 6 36 95 
95 36 6 -1 -3 -3 -3 -3 -3 -3 -3 -3 -3 -3 -3 -3 -3 -3 -3 -3 -3 -3 -3 -3 -3 -3 -2 -2 -2 -1 -1 -1 -1 0 3 5 5 6 6 6 7 9 16 25 32 35 36 36 38 44 59 78 89 93 94 95 95 96 101 108 109 106 118 144 134 76 32 14 11 18 34 56 80 97 108 106 87 61 41 28 15 6 1 -1 -2 -3 -3 -3 -3 -3 -3 -3 -3 -3 -3 -3 -3 -3 -3 -3 -3 -3 -3 -3 -3 -3 -1 6 36 95 
95 36 6 -1 -3 -3 -3 -3 -3 -3 -3 -3 -3 -3 -3 -3 -3 -3 -3 -3 -3 -3 -3 -3 -3 -3 -3 -3 -3 -3 -3 -3 -3 -3 -2 -2 -2 -1 -1 -1 -1 -1 0 3 5 5 6 6 7 9 16 25 32 35 35 36 36 38 44 59 78 91 100 115 127 112 76 51 48 63 88 106 108 97 80 56 34 18 9 4 0 -1 -2 -3 -3 -3 -3 -3 -3 -3 -3 -3 -3 -3 -3 -3 -3 -3 -3 -3 -3 -3 -3 -3 -3 -3 -1 6 36 95 
95 36 6 -1 -3 -3 -3 -3 -3 -3 -3 -3 -3 -3 -3 -3 -3 -3 -3 -3 -3 -3 -3 -3 -3 -3 -3 -3 -3 -3 -3 -3 -3 -3 -3 -3 -3 -3 -3 -3 -3 -3 -3 -2 -2 -2 -1 -1 -1 -1 0 3 5 5 6 6 6 7 9 16 25 33 38 49 75 112 127 117 109 111 107 87 61 41 28 15 6 1 -1 -2 -3 -3 -3 -3 -3 -3 -3 -3 -3 -3 -3 -3 -3 -3 -3 -3 -3 -3 -3 -3 -3 -3 -3 -3 -3 -3 -1 6 36 95 
95 36 6 -1 -3 -3 -3 -3 -3 -3 -3 -3 -3 -3 -3 -3 -3 -3 -3 -3 -3 -3 -3 -3 -3 -3 -3 -3 -3 -3 -3 -3 -3 -3 -3 -3 -3 -3 -3 -3 -3 -3 -3 -3 -3 -3 -3 -3 -3 -3 -3 -2 -2 -1 -1 -1 -1 -1 -1 0 3 5 7 13 32 76 134 144 112 84 57 34 18 9 4 0 -1 -2 -3 -3 -3 -3 -3 -3 -3 -3 -3 -3 -3 -3 -3 -3 -3 -3 -3 -3 -3 -3 -3 -3 -3 -3 -3 -3 -3 -3 -1 6 36 95 
95 36 6 -1 -3 -3 -3 -3 -3 -3 -3 -3 -3 -3 -3 -3 -3 -3 -3 -3 -3 -3 -3 -3 -3 -3 -3 -3 -3 -3 -3 -3 -3 -3 -3 -3 -3 -3 -3 -3 -3 -3 -3 -3 -3 -3 -3 -3 -3 -3 -3 -3 -3 -3 -3 -3 -3 -3 -3 -2 -2 -1 -1 1 13 49 111 118 67 35 17 7 1 0 -1 -2 -3 -3 -3 -3 -3 -3 -3 -3 -3 -3 -3 -3 -3 -3 -3 -3 -3 -3 -3 -3 -3 -3 -3 -3 -3 -3 -3 -3 -3 -3 -1 6 36 95 
96 37 8 0 -1 -1 -1 -1 -1 -1 -1 -1 -1 -1 -1 -1 -1 -1 -1 -1 -1 -1 -1 -1 -1 -1 -1 -1 -1 -1 -1 -1 -2 -2 -2 -1 -1 -1 -1 -1 -1 -1 -1 -1 -1 -1 -1 -1 -1 -2 -1 -1 -1 -1 -1 -1 -1 -1 -1 -1 -1 -1 -1 0 9 41 100 102 46 15 4 0 0 -1 -1 -1 -1 -1 -1 -1 -1 -1 -1 -1 -1 -1 -1 -1 -1 -1 -1 -2 -2 -2 -1 -1 -1 -1 -1 -1 -1 -1 -1 -1 -1 -1 0 8 37 96 
101 45 16 8 6 6 6 6 6 6 6 6 6 6 6 6 6 6 6 6 6 6 6 6 6 6 6 6 6 6 6 6 6 6 6 6 6 6 6 6 6 6 6 6 6 6 6 6 6 6 6 6 6 6 6 6 6 6 6 6 6 6 6 8 16 45 102 103 46 17 8 6 6 6 6 6 6 6 6 6 6 6 6 6 6 6 6 6 6 6 6 6 6 6 6 6 6 6 6 6 6 6 6 6 6 6 8 16 45 101 
120 71 45 37 36 36 36 36 36 36 36 36 36 36 36 36 36 36 36 36 36 36 36 36 36 36 36 36 36 36 36 36 35 35 35 36 36 36 36 36 36 36 36 36 36 36 36 36 36 35 35 36 36 36 36 36 36 36 36 36 36 36 36 37 45 71 119 119 71 45 38 36 36 36 36 36 36 36 36 36 36 36 36 36 36 36 36 36 36 36 36 35 35 35 36 36 36 36 36 36 36 36 36 35 35 36 37 45 71 120 
155 120 101 96 95 95 95 95 95 95 95 95 95 95 95 95 95 95 95 95 95 95 95 95 95 95 95 95 95 95 95 97 100 103 101 97 95 95 95 95 95 95 95 95 95 95 95 95 98 102 102 98 95 95 95 95 95 95 95 95 95 95 95 96 100 116 143 143 116 100 96 95 95 95 95 95 95 95 95 95 95 95 95 95 95 95 95 95 95 95 97 100 103 101 97 95 95 95 95 95 95 95 96 100 103 101 98 102 120 155 
