P2
110 110
255
153 125 106 98 96 96 95 95 95 95 95 95 95 95 95 95 95 95 95 95 95 95 95 95 95 95 95 96 96 99 106 121 138 141 125 108 100 97 96 95 95 95 95 95 95 96 98 104 119 140 139 119 104 98 96 95 95 95 95 95 95 95 95 96 97 99 103 103 99 97 96 95 95 95 95 95 95 95 95 95 95 95 95 95 95 95 95 96 97 102 115 134 142 127 109 100 97 96 96 96 97 101 113 132 142 129 113 110 126 153 
125 86 59 49 46 45 45 45 45 45 45 45 45 45 45 45 45 45 45 45 45 45 45 45 45 45 45 46 48 54 72 104 130 119 85 61 50 46 45 45 45 45 45 45 45 46 49 60 89 127 125 85 59 49 46 45 45 45 45 45 45 45 45 45 45 45 44 44 45 45 45 45 45 45 45 45 45 45 45 45 45 45 45 45 45 45 45 46 50 61 88 124 126 92 63 51 47 45 45 46 48 56 79 117 129 97 69 65 87 125 
106 59 28 16 13 13 13 13 12 12 12 12 12 12 12 12 12 12 12 12 12 12 12 12 13 13 13 14 19 32 61 101 113 79 43 23 15 13 13 13 13 12 13 13 13 14 19 33 69 116 108 58 27 16 13 13 13 13 12 12 12 12 12 12 12 12 12 12 12 12 12 12 12 12 12 12 12 12 12 12 12 12 12 12 13 13 13 15 21 39 78 114 97 53 27 16 13 13 13 13 17 28 58 104 108 64 34 33 60 106 
98 49 16 5 2 1 1 1 1 1 1 1 1 1 1 1 1 1 1 1 1 1 1 1 1 1 2 5 14 38 78 108 89 47 19 6 2 1 1 1 1 1 1 1 1 3 10 31 75 121 103 48 16 5 2 1 1 1 1 1 1 1 1 1 1 1 1 1 1 1 1 1 1 1 1 1 1 1 1 1 1 1 1 1 1 1 2 4 14 40 86 107 71 30 10 3 1 1 1 2 6 21 57 103 94 47 20 20 49 98 
96 46 13 2 0 -1 -1 -1 -1 -1 -1 -1 -1 -1 -1 -1 -1 -1 -1 -1 -1 -1 -1 -1 -1 -1 0 7 25 61 100 100 60 24 7 0 -1 -1 -1 -1 -1 -1 -1 -1 0 3 14 44 95 134 103 45 13 2 0 -1 -1 -1 -1 -1 -1 -1 -1 -1 -1 -1 -1 -1 -1 -1 -1 -1 -1 -1 -1 -1 -1 -1 -1 -1 -1 -1 -1 -1 -1 -1 0 3 17 52 98 97 51 17 3 0 -1 -1 -1 0 6 25 67 106 81 35 13 16 46 96 
96 45 13 1 -1 -2 -2 -2 -2 -2 -2 -2 -2 -2 -2 -2 -2 -2 -2 -2 -2 -2 -2 -2 -2 0 3 16 46 88 105 74 34 11 1 -1 -2 -2 -2 -2 -2 -2 -2 -1 0 6 26 66 118 141 103 45 12 1 -1 -2 -2 -2 -2 -2 -2 -2 -2 -2 -2 -2 -2 -2 -2 -2 -2 -2 -2 -2 -2 -2 -2 -2 -2 -2 -2 -2 -2 -2 -2 -1 0 7 27 69 105 82 36 10 0 -1 -2 -2 -1 0 9 34 81 105 67 25 9 15 46 96 
95 45 13 1 -1 -2 -2 -2 -2 -2 -2 -2 -2 -2 -2 -2 -2 -2 -2 -2 -2 -2 -2 -2 -1 1 11 34 74 105 88 46 16 3 0 -2 -2 -2 -2 -2 -2 -2 -2 -1 2 14 43 91 130 138 104 48 14 1 -1 -2 -2 -2 -2 -2 -2 -2 -2 -2 -2 -2 -2 -2 -2 -2 -2 -2 -2 -2 -2 -2 -2 -2 -2 -2 -2 -2 -2 -2 -2 -1 1 13 43 89 103 63 23 5 0 -2 -2 -2 -1 1 12 43 92 100 53 18 6 14 45 95 
95 45 13 1 -1 -2 -2 -2 -2 -2 -2 -2 -2 -2 -2 -2 -2 -2 -2 -2 -2 -2 -2 -1 0 6 24 60 99 99 60 24 6 0 -1 -2 -2 -2 -2 -2 -2 -2 -1 0 7 27 67 110 122 125 107 55 17 3 -1 -2 -2 -2 -2 -2 -2 -2 -2 -2 -2 -2 -2 -2 -2 -2 -2 -2 -2 -2 -2 -2 -2 -2 -2 -2 -2 -2 -2 -2 -2 0 5 23 63 103 89 43 13 1 -1 -2 -2 -2 -1 2 17 53 100 92 43 13 5 13 45 95 
95 45 13 1 -1 -2 -2 -2 -2 -2 -2 -2 -2 -2 -2 -2 -2 -2 -2 -2 -2 -2 -2 0 3 16 46 88 105 74 34 10 1 -1 -2 -2 -2 -2 -2 -2 -2 -2 0 3 17 47 91 111 99 105 110 67 24 5 0 -2 -2 -2 -2 -2 -2 -2 -2 -2 -2 -2 -2 -2 -2 -2 -2 -2 -2 -2 -2 -2 -2 -2 -2 -2 -2 -2 -2 -2 -1 0 10 36 82 105 69 27 6 0 -2 -2 -2 -2 0 5 24 66 105 81 34 9 4 13 45 95 
95 45 13 1 -1 -2 -2 -2 -2 -2 -2 -2 -2 -2 -2 -2 -2 -2 -2 -2 -2 -2 -1 1 10 34 74 105 88 46 16 3 0 -2 -2 -2 -2 -2 -2 -2 -2 -1 1 10 34 74 106 93 69 82 108 80 33 8 0 -2 -2 -2 -2 -2 -2 -2 -2 -2 -2 -2 -2 -2 -2 -2 -2 -2 -2 -2 -2 -2 -2 -2 -2 -2 -2 -2 -2 -2 -1 3 17 51 97 97 51 17 3 -1 -2 -2 -2 -2 0 8 34 81 105 66 24 6 3 13 45 95 
96 45 13 1 -1 -2 -2 -2 -2 -2 -2 -2 -2 -2 -2 -2 -2 -2 -2 -2 -2 -1 0 6 24 60 99 99 60 24 6 0 -1 -2 -2 -2 -2 -2 -2 -2 -2 0 5 23 59 99 100 65 44 63 103 89 40 10 0 -1 -2 -2 -2 -2 -2 -2 -2 -2 -2 -2 -2 -2 -2 -2 -2 -2 -2 -2 -2 -2 -2 -2 -2 -2 -2 -2 -2 -2 0 6 27 69 105 82 36 10 0 -1 -2 -2 -2 -1 1 12 43 92 100 53 17 3 2 13 45 95 
97 46 13 1 -1 -2 -2 -2 -2 -2 -2 -2 -2 -2 -2 -2 -2 -2 -2 -2 -2 0 3 16 46 88 105 74 34 10 1 -1 -2 -2 -2 -2 -2 -2 -2 -2 -1 2 13 42 86 105 75 38 28 52 98 94 43 12 1 -1 -2 -2 -2 -2 -2 -2 -2 -2 -2 -2 -2 -2 -2 -2 -2 -2 -2 -2 -2 -2 -2 -2 -2 -2 -2 -2 -2 -1 1 13 43 89 103 63 23 5 0 -2 -2 -2 -2 -1 2 17 53 100 92 43 12 2 2 13 45 96 
100 50 15 2 -1 -2 -2 -2 -2 -2 -2 -2 -2 -2 -2 -2 -2 -2 -2 -2 -1 1 10 34 74 105 88 46 16 3 0 -2 -2 -2 -2 -2 -2 -2 -2 -2 0 6 26 66 104 91 48 21 19 47 96 95 46 13 1 -1 -2 -2 -2 -2 -2 -2 -2 -2 -2 -2 -2 -2 -2 -2 -2 -2 -2 -2 -2 -2 -2 -2 -2 -2 -2 -2 -2 0 5 23 63 103 89 43 13 1 -1 -2 -2 -2 -2 0 5 24 66 105 81 34 9 1 1 13 45 96 
108 60 22 5 0 -1 -2 -2 -2 -2 -2 -2 -2 -2 -2 -2 -2 -2 -2 -1 0 6 24 60 99 99 60 24 6 0 -1 -2 -2 -2 -2 -2 -2 -2 -2 -1 2 14 44 89 104 67 28 11 15 44 94 98 48 14 1 -1 -2 -2 -2 -2 -2 -2 -2 -2 -2 -2 -2 -2 -2 -2 -2 -2 -2 -2 -2 -2 -2 -2 -2 -2 -2 -2 -1 0 10 36 82 105 69 27 6 0 -2 -2 -2 -2 -2 0 8 34 81 105 66 24 5 0 1 12 45 98 
125 84 39 14 3 0 -2 -2 -2 -2 -2 -2 -2 -2 -2 -2 -2 -2 -2 0 3 16 46 88 105 74 34 10 1 -1 -2 -2 -2 -2 -2 -2 -2 -2 -1 0 7 27 67 104 89 44 15 5 12 40 89 101 55 18 3 -1 -2 -2 -2 -2 -2 -2 -2 -2 -2 -2 -2 -2 -2 -2 -2 -2 -2 -2 -2 -2 -2 -2 -2 -2 -2 -2 -1 3 17 51 97 97 51 17 3 -1 -2 -2 -2 -2 -1 1 12 43 92 100 53 17 3 0 1 12 44 101 
140 116 72 34 12 2 -1 -2 -2 -2 -2 -2 -2 -2 -2 -2 -2 -2 -1 1 10 34 74 105 88 46 16 3 0 -2 -2 -2 -2 -2 -2 -2 -2 -2 0 3 17 47 91 104 66 26 7 2 9 33 80 105 67 24 5 0 -2 -2 -2 -2 -2 -2 -2 -2 -2 -2 -2 -2 -2 -2 -2 -2 -2 -2 -2 -2 -2 -2 -2 -2 -2 -2 0 6 27 69 105 82 36 10 0 -1 -2 -2 -2 -2 -1 2 17 53 100 92 43 12 1 0 1 12 44 103 
139 131 106 67 31 10 1 -1 -2 -2 -2 -2 -2 -2 -2 -2 -2 -1 0 6 24 60 99 99 60 24 6 0 -1 -2 -2 -2 -2 -2 -2 -2 -2 -1 1 10 34 74 105 86 42 14 2 0 5 24 67 105 80 33 8 0 -2 -2 -2 -2 -2 -2 -2 -2 -2 -2 -2 -2 -2 -2 -2 -2 -2 -2 -2 -2 -2 -2 -2 -2 -2 -1 1 13 43 89 103 63 23 5 0 -2 -2 -2 -2 -2 0 5 24 66 105 81 34 8 0 -1 1 12 44 102 
123 113 113 99 59 24 6 0 -1 -2 -2 -2 -2 -2 -2 -2 -2 0 3 16 46 88 105 74 34 10 1 -1 -2 -2 -2 -2 -2 -2 -2 -2 -2 0 5 23 59 99 99 59 23 6 0 0 3 18 55 101 89 40 10 0 -1 -2 -2 -2 -2 -2 -2 -2 -2 -2 -2 -2 -2 -2 -2 -2 -2 -2 -2 -2 -2 -2 -2 -2 -2 0 5 23 63 103 89 43 13 1 -1 -2 -2 -2 -2 -2 0 8 34 81 105 66 24 5 0 -1 1 12 45 99 
109 85 90 108 88 47 17 4 0 -1 -2 -2 -2 -2 -2 -2 -1 1 10 34 74 105 88 46 16 3 0 -2 -2 -2 -2 -2 -2 -2 -2 -2 -1 2 13 42 86 105 74 34 10 1 -1 -1 1 14 48 98 93 43 12 1 -1 -2 -2 -2 -2 -2 -2 -2 -2 -2 -2 -2 -2 -2 -2 -2 -2 -2 -2 -2 -2 -2 -2 -2 -1 0 10 36 82 105 69 27 6 0 -2 -2 -2 -2 -2 -1 1 12 43 92 100 53 17 2 -1 -1 1 12 45 97 
101 65 62 92 106 76 38 14 3 0 -2 -2 -2 -2 -2 -1 0 6 24 60 99 99 60 24 6 0 -1 -2 -2 -2 -2 -2 -2 -2 -2 -2 0 6 26 66 104 91 47 17 3 0 -2 -1 1 13 46 95 95 46 13 1 -1 -2 -2 -2 -2 -2 -2 -2 -2 -2 -2 -2 -2 -2 -2 -2 -2 -2 -2 -2 -2 -2 -2 -2 -1 3 17 51 97 97 51 17 3 -1 -2 -2 -2 -2 -2 -1 2 17 53 100 92 43 12 1 -1 -1 1 12 45 96 
98 54 39 63 98 102 71 36 13 3 0 -2 -2 -2 -2 0 3 16 46 88 105 74 34 10 1 -1 -2 -2 -2 -2 -2 -2 -2 -2 -2 -1 2 14 44 89 104 67 27 7 0 -1 -2 -1 1 12 43 93 98 48 14 1 -1 -2 -2 -2 -2 -2 -2 -2 -2 -2 -2 -2 -2 -2 -2 -2 -2 -2 -2 -2 -2 -2 -2 -2 0 6 27 69 105 82 36 10 0 -1 -2 -2 -2 -2 -2 0 5 24 66 105 81 34 8 0 -1 -1 1 12 45 96 
96 49 25 35 68 101 101 70 35 13 3 0 -1 -2 -1 1 10 34 74 105 88 46 16 3 0 -2 -2 -2 -2 -2 -2 -2 -2 -2 -1 0 7 27 67 104 89 44 14 2 -1 -2 -2 -1 0 10 40 89 101 55 18 3 -1 -2 -2 -2 -2 -2 -2 -2 -2 -2 -2 -2 -2 -2 -2 -2 -2 -2 -2 -2 -2 -2 -2 -1 1 13 43 89 103 63 23 5 0 -2 -2 -2 -2 -2 -2 0 8 34 81 105 66 24 5 0 -2 -1 1 12 45 95 
96 47 18 16 35 69 101 101 70 35 13 3 0 -1 0 6 24 60 99 99 60 24 6 0 -1 -2 -2 -2 -2 -2 -2 -2 -2 -2 0 3 17 47 91 104 66 26 6 0 -2 -2 -2 -2 0 8 33 80 105 67 24 5 0 -2 -2 -2 -2 -2 -2 -2 -2 -2 -2 -2 -2 -2 -2 -2 -2 -2 -2 -2 -2 -2 -2 0 5 23 63 103 89 43 13 1 -1 -2 -2 -2 -2 -2 -1 1 12 43 92 100 53 17 2 -1 -2 -1 1 12 45 95 
95 46 14 7 14 35 70 101 101 70 35 13 3 1 4 16 46 88 105 74 34 10 1 -1 -2 -2 -2 -2 -2 -2 -2 -2 -2 -1 1 10 34 74 105 86 42 13 2 -1 -2 -2 -2 -2 0 5 24 67 105 80 33 8 0 -2 -2 -2 -2 -2 -2 -2 -2 -2 -2 -2 -2 -2 -2 -2 -2 -2 -2 -2 -2 -2 -1 0 10 36 82 105 69 27 6 0 -2 -2 -2 -2 -2 -2 -1 2 17 53 100 92 43 12 1 -1 -2 -1 1 12 45 95 
95 45 13 3 4 14 35 70 101 101 70 35 15 7 13 34 74 105 88 46 16 3 0 -2 -2 -2 -2 -2 -2 -2 -2 -2 -2 0 5 23 59 99 99 59 23 5 0 -2 -2 -2 -2 -2 -1 3 18 55 101 89 40 11 0 -1 -2 -2 -2 -2 -2 -2 -2 -2 -2 -2 -2 -2 -2 -2 -2 -2 -2 -2 -2 -2 -1 3 17 51 97 97 51 17 3 -1 -2 -2 -2 -2 -2 -2 0 5 24 66 105 81 34 8 0 -1 -2 -1 1 12 45 95 
95 45 13 1 0 3 13 35 70 101 101 70 38 23 30 62 100 99 60 24 6 0 -1 -2 -2 -2 -2 -2 -2 -2 -2 -2 -1 2 13 42 86 105 74 34 10 1 -1 -2 -2 -2 -2 -2 -1 1 14 48 97 94 44 12 1 -1 -2 -2 -2 -2 -2 -2 -2 -2 -2 -2 -2 -2 -2 -2 -2 -2 -2 -2 -2 -2 0 6 27 69 105 82 36 10 0 -1 -2 -2 -2 -2 -2 -2 0 8 34 81 105 66 24 5 0 -2 -2 -1 1 12 45 95 
95 45 13 1 -1 0 3 13 35 70 101 102 75 54 61 93 106 74 34 10 1 -1 -2 -2 -2 -2 -2 -2 -2 -2 -2 -2 0 6 26 66 104 91 47 17 3 0 -2 -2 -2 -2 -2 -2 -1 1 12 44 94 97 48 14 1 -1 -2 -2 -2 -2 -2 -2 -2 -2 -2 -2 -2 -2 -2 -2 -2 -2 -2 -2 -2 -1 1 13 43 89 103 63 23 5 0 -2 -2 -2 -2 -2 -2 -1 1 12 43 92 100 53 17 2 -1 -2 -2 -1 1 12 45 95 
95 45 13 1 -1 -1 0 3 13 35 70 103 110 100 104 113 89 46 16 3 0 -2 -2 -2 -2 -2 -2 -2 -2 -2 -2 -1 2 14 44 89 104 67 27 7 0 -1 -2 -2 -2 -2 -2 -2 -1 0 11 40 89 101 55 18 3 -1 -2 -2 -2 -2 -2 -2 -2 -2 -2 -2 -2 -2 -2 -2 -2 -2 -2 -2 -2 0 5 23 63 103 89 43 13 1 -1 -2 -2 -2 -2 -2 -2 -1 2 17 53 100 92 43 12 1 -1 -2 -2 -1 1 12 45 95 
95 45 12 1 -1 -2 -2 0 3 13 36 72 112 135 135 107 61 24 6 0 -1 -2 -2 -2 -2 -2 -2 -2 -2 -2 -1 0 7 27 67 104 89 44 14 2 -1 -2 -2 -2 -2 -2 -2 -2 -2 0 8 33 80 105 67 24 5 0 -2 -2 -2 -2 -2 -2 -2 -2 -2 -2 -2 -2 -2 -2 -2 -2 -2 -2 -1 0 10 36 82 105 69 27 6 0 -2 -2 -2 -2 -2 -2 -2 0 5 24 66 105 81 34 8 0 -1 -2 -2 -1 1 12 45 95 
95 45 12 1 -1 -2 -2 -2 0 3 15 40 84 131 131 82 36 11 1 -1 -2 -2 -2 -2 -2 -2 -2 -2 -2 -2 0 3 17 47 91 104 66 26 6 0 -2 -2 -2 -2 -2 -2 -2 -2 -2 0 5 24 67 105 80 33 8 0 -2 -2 -2 -2 -2 -2 -2 -2 -2 -2 -2 -2 -2 -2 -2 -2 -2 -2 -1 3 17 51 97 97 51 17 3 -1 -2 -2 -2 -2 -2 -2 -2 0 8 34 81 105 66 24 5 0 -2 -2 -2 -1 1 12 45 95 
95 45 12 1 -1 -2 -2 -2 -1 0 5 21 59 110 114 63 23 5 0 -2 -2 -2 -2 -2 -2 -2 -2 -2 -2 -1 1 10 34 74 105 86 42 13 2 -1 -2 -2 -2 -2 -2 -2 -2 -2 -2 -1 3 18 55 101 89 40 10 0 -1 -2 -2 -2 -2 -2 -2 -2 -2 -2 -2 -2 -2 -2 -2 -2 -2 -2 0 6 27 69 105 82 36 10 0 -1 -2 -2 -2 -2 -2 -2 -1 1 12 43 92 100 53 17 2 -1 -2 -2 -2 -1 1 12 45 95 
95 45 12 1 -1 -2 -2 -2 -2 -1 2 13 44 95 107 59 20 4 0 -2 -2 -2 -2 -2 -2 -2 -2 -2 -2 0 5 23 59 99 99 59 23 5 0 -2 -2 -2 -2 -2 -2 -2 -2 -2 -2 -1 1 14 48 98 93 43 12 1 -1 -2 -2 -2 -2 -2 -2 -2 -2 -2 -2 -2 -2 -2 -2 -2 -2 -1 1 13 43 89 103 63 23 5 0 -2 -2 -2 -2 -2 -2 -2 -1 2 17 53 100 92 43 12 1 -1 -2 -2 -2 -1 1 12 45 95 
95 45 12 1 -1 -2 -2 -2 -2 -1 0 9 34 81 107 68 25 5 0 -2 -2 -2 -2 -2 -2 -2 -2 -2 -1 2 13 42 86 105 74 34 10 1 -1 -2 -2 -2 -2 -2 -2 -2 -2 -2 -2 -1 1 13 46 95 95 46 13 1 -1 -2 -2 -2 -2 -2 -2 -2 -2 -2 -2 -2 -2 -2 -2 -2 -2 0 5 23 63 103 89 43 13 1 -1 -2 -2 -2 -2 -2 -2 -2 0 5 24 66 105 81 34 8 0 -2 -2 -2 -2 -1 1 13 45 95 
95 45 12 1 -1 -2 -2 -2 -2 -2 0 5 24 67 106 80 33 8 0 -2 -2 -2 -2 -2 -2 -2 -2 -2 0 6 26 66 104 91 47 17 3 0 -2 -2 -2 -2 -2 -2 -2 -2 -2 -2 -2 -1 1 12 43 93 98 48 14 1 -1 -2 -2 -2 -2 -2 -2 -2 -2 -2 -2 -2 -2 -2 -2 -2 -1 0 10 36 82 105 69 27 6 0 -2 -2 -2 -2 -2 -2 -2 -2 0 8 34 81 105 66 24 5 0 -2 -2 -2 -2 -1 1 13 45 96 
96 45 12 1 -1 -2 -2 -2 -2 -2 -1 3 17 54 101 90 41 11 0 -1 -2 -2 -2 -2 -2 -2 -2 -1 2 14 44 89 104 67 27 7 0 -1 -2 -2 -2 -2 -2 -2 -2 -2 -2 -2 -2 -1 0 10 40 89 101 55 18 3 -1 -2 -2 -2 -2 -2 -2 -2 -2 -2 -2 -2 -2 -2 -2 -2 -1 3 17 51 97 97 51 17 3 -1 -2 -2 -2 -2 -2 -2 -2 -1 1 12 43 92 100 53 17 2 -1 -2 -2 -2 -2 -1 1 13 46 96 
96 45 12 1 -1 -2 -2 -2 -2 -2 -1 1 14 47 96 96 47 14 1 -1 -2 -2 -2 -2 -2 -2 -1 0 7 27 67 104 89 44 14 2 -1 -2 -2 -2 -2 -2 -2 -2 -2 -2 -2 -2 -2 -2 0 8 33 80 105 67 24 5 0 -2 -2 -2 -2 -2 -2 -2 -2 -2 -2 -2 -2 -2 -2 -2 0 6 27 69 105 82 36 10 0 -1 -2 -2 -2 -2 -2 -2 -2 -1 2 17 53 100 92 43 12 1 -1 -2 -2 -2 -2 -1 2 14 49 99 
97 45 12 1 -1 -2 -2 -2 -2 -2 -1 0 11 41 90 101 54 17 3 -1 -2 -2 -2 -2 -2 -2 0 3 17 47 91 104 66 26 6 0 -2 -2 -2 -2 -2 -2 -2 -2 -2 -2 -2 -2 -2 -2 0 5 24 67 105 80 33 8 0 -2 -2 -2 -2 -2 -2 -2 -2 -2 -2 -2 -2 -2 -2 -1 1 13 43 89 103 63 23 5 0 -2 -2 -2 -2 -2 -2 -2 -2 0 5 24 66 105 81 34 8 0 -2 -2 -2 -2 -2 -1 3 18 56 106 
100 44 12 1 -1 -2 -2 -2 -2 -2 -2 0 8 33 80 105 67 24 5 0 -2 -2 -2 -2 -2 -1 1 10 34 74 105 86 42 13 2 -1 -2 -2 -2 -2 -2 -2 -2 -2 -2 -2 -2 -2 -2 -2 -1 3 18 55 101 89 40 10 0 -1 -2 -2 -2 -2 -2 -2 -2 -2 -2 -2 -2 -2 -2 0 5 23 63 103 89 43 13 1 -1 -2 -2 -2 -2 -2 -2 -2 -2 0 8 34 81 105 66 24 5 0 -2 -2 -2 -2 -1 0 7 28 72 119 
102 44 12 1 -1 -2 -2 -2 -2 -2 -2 0 5 24 67 105 80 33 8 0 -2 -2 -2 -2 -2 0 5 23 59 99 99 59 23 5 0 -2 -2 -2 -2 -2 -2 -2 -2 -2 -2 -2 -2 -2 -2 -2 -1 1 14 48 98 93 43 12 1 -1 -2 -2 -2 -2 -2 -2 -2 -2 -2 -2 -2 -2 -1 0 10 36 82 105 69 27 6 0 -2 -2 -2 -2 -2 -2 -2 -2 -1 1 12 43 92 100 53 17 2 -1 -2 -2 -2 -2 0 3 16 47 97 134 
102 44 12 1 -1 -2 -2 -2 -2 -2 -2 -1 3 17 54 101 90 41 11 0 -1 -2 -2 -2 -1 2 13 42 86 105 74 34 10 1 -1 -2 -2 -2 -2 -2 -2 -2 -2 -2 -2 -2 -2 -2 -2 -2 -1 1 13 46 95 95 46 13 1 -1 -2 -2 -2 -2 -2 -2 -2 -2 -2 -2 -2 -2 -1 3 17 51 97 97 51 17 3 -1 -2 -2 -2 -2 -2 -2 -2 -2 -1 2 17 53 100 92 43 12 1 -1 -2 -2 -2 -1 1 10 33 75 122 142 
101 44 12 1 -1 -2 -2 -2 -2 -2 -2 -1 1 14 47 96 96 47 14 1 -1 -2 -2 -2 0 6 26 66 104 91 47 17 3 0 -2 -2 -2 -2 -2 -2 -2 -2 -2 -2 -2 -2 -2 -2 -2 -2 -1 1 12 43 93 98 48 14 1 -1 -2 -2 -2 -2 -2 -2 -2 -2 -2 -2 -2 -2 0 6 27 69 105 82 36 10 0 -1 -2 -2 -2 -2 -2 -2 -2 -2 0 5 24 66 105 81 34 8 0 -1 -2 -2 -1 0 6 24 60 104 131 136 
99 45 12 1 -1 -2 -2 -2 -2 -2 -2 -1 0 11 41 90 101 54 17 3 -1 -2 -2 -1 2 14 44 89 104 67 27 7 0 -1 -2 -2 -2 -2 -2 -2 -2 -2 -2 -2 -2 -2 -2 -2 -2 -2 -1 0 10 40 89 101 55 18 3 -1 -2 -2 -2 -2 -2 -2 -2 -2 -2 -2 -2 -1 1 13 43 89 103 63 23 5 0 -2 -2 -2 -2 -2 -2 -2 -2 -2 0 8 34 81 105 66 24 5 0 -2 -2 -2 0 3 16 46 89 115 115 123 
97 45 12 1 -1 -2 -2 -2 -2 -2 -2 -2 0 8 33 80 105 67 24 5 0 -2 -1 0 7 27 67 104 89 44 14 2 -1 -2 -2 -2 -2 -2 -2 -2 -2 -2 -2 -2 -2 -2 -2 -2 -2 -2 -2 0 8 33 80 106 67 25 6 0 -1 -1 -2 -2 -2 -2 -2 -2 -2 -2 -2 0 5 23 63 103 89 43 13 1 -1 -2 -2 -2 -2 -2 -2 -2 -2 -1 1 12 43 92 100 53 17 2 -1 -2 -2 -1 1 10 34 74 107 101 92 111 
96 45 12 1 -1 -2 -2 -2 -2 -2 -2 -2 0 5 24 67 105 80 33 8 0 -1 0 3 17 47 91 104 66 26 6 0 -2 -2 -2 -2 -2 -2 -2 -2 -2 -2 -2 -2 -2 -2 -2 -2 -2 -2 -2 0 5 25 68 107 83 36 12 3 1 0 0 -1 -1 -1 -1 -1 -2 -2 -1 0 10 36 82 105 69 27 6 0 -2 -2 -2 -2 -2 -2 -2 -2 -2 -1 2 17 53 100 92 43 12 1 -1 -2 -1 0 6 24 60 100 102 75 72 103 
96 45 12 1 -1 -2 -2 -2 -2 -2 -2 -2 -1 3 17 54 101 90 41 11 1 0 1 10 34 74 105 86 42 13 2 -1 -2 -2 -2 -2 -2 -2 -2 -2 -2 -2 -2 -2 -2 -2 -2 -2 -2 -2 -1 0 5 21 60 108 99 53 25 15 11 8 5 3 1 1 1 0 0 0 0 3 17 51 97 97 51 17 3 -1 -2 -2 -2 -2 -2 -2 -2 -2 -2 0 5 24 66 105 81 34 8 0 -1 -2 0 3 16 46 88 106 77 49 58 99 
96 45 12 1 -1 -2 -2 -2 -2 -2 -2 -2 -1 1 14 47 96 96 47 14 2 0 6 23 59 99 99 59 23 5 0 -2 -2 -2 -2 -2 -2 -2 -2 -2 -2 -2 -2 -2 -2 -2 -2 -2 -2 -1 0 2 9 28 67 117 121 84 58 47 40 33 24 18 14 13 12 10 8 5 5 11 30 71 106 82 36 10 0 -1 -2 -2 -2 -2 -2 -2 -2 -2 -2 0 8 34 81 105 66 24 5 0 -1 -1 1 10 34 74 105 89 50 32 51 97 
95 45 12 1 -1 -2 -2 -2 -2 -2 -2 -2 -1 0 11 41 90 101 54 18 4 3 14 42 86 105 74 34 10 1 -1 -2 -2 -2 -2 -2 -2 -2 -2 -2 -2 -2 -2 -2 -2 -2 -2 -2 -1 0 3 11 26 52 92 134 141 120 103 96 90 80 67 55 48 46 43 40 33 25 22 29 54 95 105 63 23 5 0 -2 -2 -2 -2 -2 -2 -2 -2 -2 -1 1 12 43 92 100 53 17 2 -1 -1 0 6 24 60 99 99 61 28 22 48 96 
95 45 12 1 -1 -2 -2 -2 -2 -2 -2 -2 -2 0 8 33 80 105 67 25 7 8 26 66 104 91 47 17 3 0 -2 -2 -2 -2 -2 -2 -2 -2 -2 -2 -2 -2 -2 -2 -2 -2 -1 0 1 6 16 34 61 91 115 123 115 104 99 98 101 105 105 101 98 95 93 89 80 68 60 67 93 117 94 45 14 2 -1 -2 -2 -2 -2 -2 -2 -2 -2 -2 -1 2 17 53 100 92 43 12 1 -1 0 3 16 46 88 105 74 35 14 17 46 96 
95 45 12 1 -1 -2 -2 -2 -2 -2 -2 -2 -2 0 5 24 67 105 80 34 13 17 44 89 104 67 27 7 0 -1 -2 -2 -2 -2 -2 -2 -2 -2 -2 -2 -2 -2 -2 -2 -2 -1 0 3 10 24 46 74 100 107 93 73 56 49 47 49 55 67 80 89 93 95 98 101 106 107 107 116 134 131 83 34 9 0 -1 -2 -2 -2 -2 -2 -2 -2 -2 -2 0 5 24 66 105 81 34 8 0 0 1 11 34 74 105 88 46 17 7 14 46 95 
95 45 12 1 -1 -2 -2 -2 -2 -2 -2 -2 -2 -1 3 17 54 101 90 43 21 31 67 104 89 44 14 2 -1 -2 -2 -2 -2 -2 -2 -2 -2 -2 -2 -2 -2 -2 -2 -2 -1 1 6 16 34 60 88 105 99 74 48 29 18 14 13 14 18 24 33 40 43 46 48 55 67 82 95 112 133 131 84 35 10 1 -1 -2 -2 -2 -2 -2 -2 -2 -2 -1 0 9 34 81 105 66 24 5 0 0 6 24 60 99 99 60 24 7 4 13 45 95 
95 45 12 1 -1 -2 -2 -2 -2 -2 -2 -2 -2 -1 1 14 47 96 97 53 33 52 91 104 66 26 6 0 -2 -2 -2 -2 -2 -2 -2 -2 -2 -2 -2 -2 -2 -2 -1 0 2 10 24 46 74 99 105 88 60 34 17 7 3 2 1 1 3 5 8 10 12 13 14 18 24 34 45 62 91 117 97 51 19 5 0 0 -1 -1 -1 -1 -1 -1 -1 0 2 13 44 92 100 53 17 3 0 3 16 46 88 105 74 34 11 2 2 13 45 95 
95 45 12 1 -1 -2 -2 -2 -2 -2 -2 -2 -2 -1 0 11 40 90 104 68 54 80 106 87 42 13 2 -1 -2 -2 -2 -2 -2 -2 -2 -2 -2 -2 -2 -2 -2 -1 0 4 13 31 59 88 105 99 74 46 24 11 3 0 -1 -1 -1 -1 -1 0 0 0 1 1 1 3 5 9 14 25 51 92 109 79 41 18 8 3 2 1 1 1 1 1 1 2 6 21 56 101 93 44 13 2 2 11 34 74 105 88 46 16 3 0 1 13 45 95 
95 45 12 1 -1 -2 -2 -2 -2 -2 -2 -2 -2 -2 0 8 33 81 111 91 86 105 100 59 23 5 0 -2 -2 -2 -2 -2 -2 -2 -2 -2 -2 -2 -2 -1 0 1 6 17 37 68 98 105 89 60 34 16 6 1 0 -1 -2 -2 -2 -2 -2 -2 -2 -1 -1 -1 -1 -1 0 0 2 9 26 62 103 110 80 49 29 19 14 13 13 13 13 13 13 14 20 38 77 112 87 38 11 4 7 25 60 99 99 60 24 6 0 -1 1 13 45 95 
95 45 12 1 -1 -2 -2 -2 -2 -2 -2 -2 -2 -2 0 5 24 67 113 118 116 111 74 34 10 1 -1 -2 -2 -2 -2 -2 -2 -2 -2 -2 -2 -2 -1 0 3 11 24 47 76 102 102 76 47 24 11 3 0 -1 -2 -2 -2 -2 -2 -2 -2 -2 -2 -2 -2 -2 -2 -2 -2 -1 0 2 11 36 81 124 126 98 72 56 49 46 45 45 45 45 46 48 54 74 109 125 85 39 15 10 19 47 89 105 74 34 10 1 -1 -1 1 13 45 95 
95 45 12 1 -1 -2 -2 -2 -2 -2 -2 -2 -2 -2 -1 3 17 54 110 137 128 93 47 16 3 0 -2 -2 -2 -2 -2 -2 -2 -2 -2 -2 -1 0 1 6 16 34 60 89 105 98 68 37 17 6 1 0 -1 -2 -2 -2 -2 -2 -2 -2 -2 -2 -2 -2 -2 -2 -2 -2 -2 -2 -2 0 5 23 63 120 143 128 112 103 98 96 96 95 95 95 96 97 102 116 138 139 101 59 34 27 42 77 106 89 46 16 3 0 -2 -1 1 12 45 95 
95 45 12 1 -1 -2 -2 -2 -2 -2 -2 -2 -2 -2 -1 1 14 47 106 142 118 67 26 7 0 -1 -2 -2 -2 -2 -2 -2 -2 -2 -2 -1 0 3 10 24 46 74 99 105 88 59 31 13 4 0 -1 -2 -2 -2 -2 -2 -2 -2 -2 -2 -2 -2 -2 -2 -2 -2 -2 -2 -2 -2 -2 0 4 20 60 113 123 100 91 92 94 95 95 95 95 95 96 96 98 103 114 124 117 96 74 66 81 107 103 61 25 6 0 -1 -2 -1 1 12 45 95 
95 45 12 1 -1 -2 -2 -2 -2 -2 -2 -2 -2 -2 -1 1 12 45 103 134 95 43 14 2 -1 -2 -2 -2 -2 -2 -2 -2 -2 -1 0 1 6 16 33 60 89 106 100 74 46 24 10 2 0 -1 -2 -2 -2 -2 -2 -2 -2 -2 -2 -2 -2 -2 -2 -2 -2 -2 -2 -2 -2 -2 -2 0 5 25 68 110 94 58 44 42 44 45 45 45 45 45 45 45 46 48 56 72 92 107 111 114 125 124 84 38 12 1 -1 -2 -2 -1 1 12 45 95 
95 45 12 1 -1 -2 -2 -2 -2 -2 -2 -2 -2 -2 -1 1 12 45 100 119 71 27 6 0 -2 -2 -2 -2 -2 -2 -2 -1 0 1 4 10 23 45 74 102 109 92 64 37 18 7 2 0 -1 -2 -2 -2 -2 -2 -2 -2 -2 -2 -2 -2 -2 -2 -2 -2 -2 -2 -2 -2 -2 -2 -2 0 8 33 80 107 71 32 16 12 12 12 12 12 12 12 13 13 13 14 18 28 44 67 93 120 142 127 74 30 8 0 -1 -2 -2 -1 1 12 45 95 
95 45 12 1 -1 -2 -2 -2 -2 -2 -2 -2 -2 -2 -1 1 13 46 98 105 55 18 3 -1 -2 -2 -2 -2 -2 -1 0 1 5 10 19 34 60 92 118 119 93 62 38 22 11 5 2 0 0 -1 -1 -1 -2 -2 -2 -2 -2 -2 -2 -2 -2 -2 -2 -2 -2 -2 -2 -2 -2 -2 -1 0 11 40 89 101 56 20 5 2 1 1 1 1 1 1 1 1 1 1 3 7 14 27 48 79 116 124 84 38 12 1 -1 -2 -2 -1 1 12 45 95 
95 45 12 1 -1 -2 -2 -2 -2 -2 -2 -2 -2 -2 -1 1 14 48 98 97 47 14 1 -1 -2 -2 -1 -1 0 2 6 13 23 37 54 78 108 134 141 121 90 66 50 37 26 18 12 9 5 3 1 0 0 0 -1 -1 -2 -2 -2 -2 -2 -2 -2 -2 -2 -2 -2 -2 -2 -2 -1 1 12 44 94 97 48 14 2 0 -1 -1 -1 -1 -1 -1 -1 -1 -1 -1 -1 0 2 7 17 38 73 107 103 61 25 6 0 -1 -2 -1 1 12 45 95 
95 45 12 1 -1 -2 -2 -2 -2 -2 -2 -2 -2 -2 -1 3 18 55 101 90 41 11 1 -1 -1 0 0 3 7 14 26 43 63 83 99 111 118 121 125 122 111 101 92 81 67 53 43 34 24 17 14 11 8 5 2 1 0 0 -1 -1 -1 -2 -2 -2 -2 -2 -2 -2 -2 -2 -1 1 14 48 97 94 44 12 1 -1 -2 -2 -2 -2 -2 -2 -2 -2 -2 -2 -2 -2 -1 0 4 15 38 77 106 89 46 16 3 0 -2 -1 1 12 45 95 
95 45 12 1 -1 -2 -2 -2 -2 -2 -2 -2 -2 -2 0 5 24 67 105 80 33 9 1 0 2 5 10 17 27 44 66 88 103 105 98 85 71 65 70 82 91 96 101 105 105 100 92 81 67 54 47 41 33 24 17 12 8 5 3 1 0 0 0 -1 -1 -2 -2 -2 -2 -2 -1 3 18 55 101 89 40 11 0 -1 -2 -2 -2 -2 -2 -2 -2 -2 -2 -2 -2 -2 -2 -1 0 4 17 47 89 105 74 34 11 1 -1 -1 1 13 45 95 
95 45 12 1 -1 -2 -2 -2 -2 -2 -2 -2 -2 -2 0 8 33 80 105 67 25 7 4 6 13 23 36 51 69 90 104 104 90 69 51 37 26 22 25 33 40 47 54 67 81 92 100 105 105 101 96 90 80 66 53 43 34 24 17 14 11 8 5 2 1 0 0 -1 -1 -1 0 5 24 67 105 80 33 8 0 -2 -2 -2 -2 -2 -2 -2 -2 -2 -2 -2 -2 -2 -2 -2 -1 0 6 24 60 99 99 60 24 7 0 -1 1 13 45 95 
95 45 12 1 -1 -2 -2 -2 -2 -2 -2 -2 -2 -1 0 11 41 90 102 57 22 12 15 26 43 63 82 97 105 103 88 66 44 27 17 10 6 4 5 8 11 14 17 24 34 43 53 66 80 90 96 101 105 105 100 92 81 67 54 47 41 33 24 17 12 8 5 3 1 1 2 10 34 81 105 67 24 5 0 -2 -2 -2 -2 -2 -2 -2 -2 -2 -2 -2 -2 -2 -2 -2 -2 -1 1 11 34 74 105 89 47 17 4 0 1 13 45 95 
95 45 12 1 -1 -2 -2 -2 -2 -2 -2 -2 -2 -1 1 14 47 97 101 56 31 30 45 66 88 103 105 97 82 63 43 26 14 7 3 0 0 0 0 0 0 1 3 5 8 12 17 24 33 41 47 54 67 81 92 100 105 105 101 96 90 80 66 53 43 34 24 18 14 12 11 18 45 92 102 55 18 3 -1 -2 -2 -2 -2 -2 -2 -2 -2 -2 -2 -2 -2 -2 -2 -2 -2 -2 0 3 16 46 88 105 76 37 13 3 2 13 45 95 
95 45 12 1 -1 -2 -2 -2 -2 -2 -2 -2 -2 -1 3 18 55 106 107 71 58 70 90 104 104 90 69 51 36 23 13 6 2 0 -1 -1 -2 -2 -2 -2 -1 -1 -1 0 0 1 2 5 8 11 14 17 24 34 43 53 66 80 90 96 101 105 105 100 92 81 67 55 47 41 37 39 62 103 99 48 14 1 -1 -2 -2 -2 -2 -2 -2 -2 -2 -2 -2 -2 -2 -2 -2 -2 -2 -2 -1 0 6 24 59 98 102 68 31 11 5 14 45 95 
95 45 12 1 -1 -2 -2 -2 -2 -2 -2 -2 -2 0 7 27 72 121 124 102 99 106 104 89 66 44 27 17 10 5 1 0 -1 -2 -2 -2 -2 -2 -2 -2 -2 -2 -2 -2 -2 -1 -1 0 0 0 1 3 5 8 12 17 24 33 41 47 54 67 81 92 100 105 105 101 96 91 84 80 94 121 101 46 13 1 -1 -2 -2 -2 -2 -2 -2 -2 -2 -2 -2 -2 -2 -2 -2 -2 -2 -2 -2 -1 1 10 31 68 102 98 59 25 10 15 46 96 
95 45 12 1 -1 -2 -2 -2 -2 -2 -2 -2 -1 2 14 44 95 138 137 120 106 89 66 44 26 14 7 3 0 0 -1 -2 -2 -2 -2 -2 -2 -2 -2 -2 -2 -2 -2 -2 -2 -2 -2 -2 -2 -1 -1 -1 0 0 1 2 5 8 11 14 17 24 34 43 53 66 80 90 96 101 108 115 129 140 103 45 12 1 -1 -2 -2 -2 -2 -2 -2 -2 -2 -2 -2 -2 -2 -2 -2 -2 -2 -2 -2 -2 -1 2 13 37 76 105 88 47 21 19 47 96 
96 45 12 1 -1 -2 -2 -2 -2 -2 -2 -1 0 7 27 67 114 128 109 85 63 43 26 14 6 2 0 -1 -1 -2 -2 -2 -2 -2 -2 -2 -2 -2 -2 -2 -2 -2 -2 -2 -2 -2 -2 -2 -2 -2 -2 -2 -2 -2 -1 -1 0 0 0 1 3 5 8 12 17 24 33 41 47 55 69 91 118 138 103 44 12 1 -1 -2 -2 -2 -2 -2 -2 -2 -2 -2 -2 -2 -2 -2 -2 -2 -2 -2 -2 -2 -2 0 4 17 47 88 105 77 41 29 50 97 
96 45 12 1 -1 -2 -2 -2 -2 -2 -2 0 3 17 47 92 112 88 58 37 23 13 6 2 0 -1 -2 -2 -2 -2 -2 -2 -2 -2 -2 -2 -2 -2 -2 -2 -2 -2 -2 -2 -2 -2 -2 -2 -2 -2 -2 -2 -2 -2 -2 -2 -2 -2 -1 -1 -1 0 0 1 2 5 8 11 14 18 28 47 80 117 99 45 12 1 -1 -2 -2 -2 -2 -2 -2 -2 -2 -2 -2 -2 -2 -2 -2 -2 -2 -2 -2 -2 -2 -1 0 6 24 59 98 102 72 47 58 99 
96 45 12 1 -1 -2 -2 -2 -2 -2 -1 1 11 34 74 106 91 51 24 11 5 1 0 -1 -2 -2 -2 -2 -2 -2 -2 -2 -2 -2 -2 -2 -2 -2 -2 -2 -2 -2 -2 -2 -2 -2 -2 -2 -2 -2 -2 -2 -2 -2 -2 -2 -2 -2 -2 -2 -2 -2 -2 -1 -1 0 0 0 1 3 9 23 57 103 97 45 13 1 -1 -2 -2 -2 -2 -2 -2 -2 -2 -2 -2 -2 -2 -2 -2 -2 -2 -2 -2 -2 -2 -2 -1 1 10 31 68 102 101 74 71 103 
97 45 12 1 -1 -2 -2 -2 -2 -1 0 6 24 60 99 100 61 26 8 2 0 -1 -2 -2 -2 -2 -2 -2 -2 -2 -2 -2 -2 -2 -2 -2 -2 -2 -2 -2 -2 -2 -2 -2 -2 -2 -2 -2 -2 -2 -2 -2 -2 -2 -2 -2 -2 -2 -2 -2 -2 -2 -2 -2 -2 -2 -2 -1 -1 0 3 15 48 97 97 46 13 1 -1 -2 -2 -2 -2 -2 -2 -2 -2 -2 -2 -2 -2 -2 -2 -2 -2 -2 -2 -2 -2 -2 -2 -1 2 13 37 76 107 101 92 111 
99 45 12 1 -1 -2 -2 -2 -1 0 4 17 47 89 106 75 35 11 2 0 -1 -2 -2 -2 -2 -2 -2 -2 -2 -2 -2 -2 -2 -2 -2 -2 -2 -2 -2 -2 -2 -2 -2 -2 -2 -2 -2 -2 -2 -2 -2 -2 -2 -2 -2 -2 -2 -2 -2 -2 -2 -2 -2 -2 -2 -2 -2 -2 -2 -1 2 13 46 96 99 50 16 2 -1 -2 -2 -2 -2 -2 -2 -2 -2 -2 -2 -2 -2 -2 -2 -2 -2 -2 -2 -2 -2 -2 -2 -2 0 4 17 47 89 115 115 123 
101 44 12 1 -1 -2 -2 -2 0 3 14 38 77 107 91 49 19 5 0 -1 -1 -1 -1 -1 -1 -1 -1 -1 -2 -2 -2 -2 -2 -2 -2 -2 -2 -2 -2 -2 -2 -2 -2 -2 -2 -2 -2 -2 -2 -2 -2 -2 -2 -2 -2 -2 -2 -2 -2 -2 -2 -2 -2 -2 -2 -2 -2 -2 -2 0 3 15 47 98 107 61 23 6 0 -1 -2 -2 -2 -2 -2 -2 -2 -2 -2 -2 -2 -2 -2 -2 -2 -2 -2 -2 -2 -2 -2 -2 -1 0 6 24 60 104 131 136 
102 44 12 1 -1 -2 -2 0 3 13 35 71 108 109 73 38 17 8 3 2 1 1 1 1 1 1 1 0 0 0 -1 -1 -1 -1 -1 -1 -1 -1 -1 -2 -2 -2 -2 -2 -2 -2 -2 -2 -2 -2 -2 -2 -2 -2 -2 -2 -2 -2 -2 -2 -2 -2 -2 -2 -2 -2 -2 -1 0 1 8 23 56 106 125 85 43 19 7 2 0 -1 -2 -2 -2 -2 -2 -2 -2 -2 -2 -2 -2 -2 -2 -2 -2 -2 -2 -2 -2 -2 -2 -1 1 10 33 75 122 142 
102 44 12 1 -1 -1 0 3 13 34 70 112 130 110 76 52 37 25 18 14 13 13 13 12 12 12 12 10 8 5 3 1 1 1 1 1 1 1 0 0 0 -1 -1 -1 -1 -1 -1 -1 -1 -1 -1 -2 -2 -2 -2 -2 -2 -2 -2 -2 -2 -2 -2 -2 -2 -2 -1 0 3 11 25 48 83 124 143 119 80 48 27 14 6 1 0 -1 -2 -2 -2 -2 -2 -2 -2 -2 -2 -2 -2 -2 -2 -2 -2 -2 -2 -2 -2 -2 0 3 16 47 97 134 
100 44 12 1 -1 0 3 13 35 70 111 139 140 123 106 94 81 67 55 49 46 45 45 45 45 45 43 40 33 24 18 14 13 13 13 12 12 12 10 8 5 3 1 1 1 1 1 1 1 1 0 0 0 -1 -1 -1 -1 -1 -1 -1 -1 -1 -1 -1 -1 0 2 7 17 34 60 89 111 122 124 122 112 92 66 43 23 10 3 0 -1 -2 -2 -2 -2 -2 -2 -2 -2 -2 -2 -2 -2 -2 -2 -2 -2 -2 -2 -2 -1 0 7 28 72 119 
97 45 12 2 0 3 13 35 70 105 120 116 107 101 100 102 106 105 101 98 96 96 95 95 95 95 93 89 80 67 55 49 46 45 45 45 45 43 40 33 24 18 14 13 13 13 12 12 12 12 10 8 5 3 1 1 1 1 1 1 1 0 0 0 1 6 14 27 47 74 99 106 94 76 68 75 92 105 104 87 59 34 17 7 2 0 -1 -2 -2 -2 -2 -2 -2 -2 -2 -2 -2 -2 -2 -2 -2 -2 -2 -2 -2 -1 3 18 56 106 
96 45 13 4 5 14 36 70 102 105 82 60 50 47 49 55 67 80 89 93 95 95 95 95 96 96 98 101 105 105 101 98 96 96 95 95 95 93 89 80 67 55 49 46 45 45 45 45 45 43 40 33 24 18 14 13 13 13 12 12 12 11 9 8 12 24 43 66 91 105 99 74 48 31 25 30 45 67 91 105 99 74 47 27 14 6 1 0 -1 -2 -2 -2 -2 -2 -2 -2 -2 -2 -2 -2 -2 -2 -2 -2 -2 -1 2 14 49 99 
96 47 17 10 18 38 71 101 101 71 40 22 15 13 14 18 24 33 40 43 45 45 45 45 45 46 49 55 67 80 89 93 95 95 95 96 96 98 101 105 105 101 98 96 96 95 95 95 95 93 89 80 67 55 49 46 45 45 45 45 43 40 35 33 41 62 87 104 104 87 59 34 17 8 5 7 14 27 47 74 99 105 90 66 43 23 10 3 0 -1 -2 -2 -2 -2 -2 -2 -2 -2 -2 -2 -2 -2 -2 -2 -2 -1 1 13 46 96 
97 50 25 28 47 76 102 100 69 36 15 5 2 1 1 3 5 8 10 12 12 12 12 13 13 13 14 18 24 33 40 43 45 45 45 45 46 49 55 67 80 89 93 95 95 95 95 96 96 98 101 105 105 101 98 96 96 95 95 95 94 91 85 82 90 105 107 91 66 43 23 10 3 0 0 0 2 7 17 34 59 87 104 104 87 59 34 17 7 2 0 -1 -2 -2 -2 -2 -2 -2 -2 -2 -2 -2 -2 -2 -2 -1 1 13 45 96 
100 60 46 63 89 105 98 67 34 13 3 0 -1 -1 -1 -1 0 0 0 1 1 1 1 1 1 1 1 3 5 8 10 12 12 12 13 13 13 14 18 24 33 40 43 45 45 45 45 45 46 49 55 67 80 89 93 95 95 95 96 96 99 106 119 132 132 113 79 49 27 14 6 1 0 -1 -2 -1 -1 0 3 10 23 43 66 90 105 99 74 47 27 14 6 1 0 -1 -2 -2 -2 -2 -2 -2 -2 -2 -2 -2 -2 -1 1 12 45 96 
108 81 82 101 106 88 59 31 12 3 0 -1 -2 -2 -2 -2 -2 -2 -1 -1 -1 -1 -1 -1 -1 -1 -1 -1 0 0 0 1 1 1 1 1 1 1 3 5 8 10 12 12 12 12 13 13 13 14 18 24 33 40 43 45 45 45 45 47 51 65 96 134 132 86 43 19 8 2 0 -1 -2 -2 -2 -2 -2 -1 0 1 6 14 27 47 74 99 105 90 66 43 23 10 3 0 -1 -2 -2 -2 -2 -2 -2 -2 -2 -2 -2 -1 1 12 45 97 
123 112 112 104 76 47 24 10 2 0 -2 -2 -2 -2 -2 -2 -2 -2 -2 -2 -2 -2 -2 -2 -2 -2 -2 -2 -2 -2 -1 -1 -1 -1 -1 -1 -1 -1 -1 0 0 0 1 1 1 1 1 1 1 1 3 5 8 10 12 12 12 13 13 14 18 31 66 114 113 61 23 6 0 -1 -2 -2 -2 -2 -2 -2 -2 -2 -2 -1 0 2 7 17 34 59 87 104 104 87 59 34 17 7 2 0 -1 -2 -2 -2 -2 -2 -2 -2 -2 -1 1 12 45 99 
139 131 107 71 38 17 6 1 -1 -2 -2 -2 -2 -2 -2 -2 -2 -2 -2 -2 -2 -2 -2 -2 -2 -2 -2 -2 -2 -2 -2 -2 -2 -2 -2 -2 -2 -2 -2 -2 -2 -1 -1 -1 -1 -1 -1 -1 -1 -1 -1 0 0 0 1 1 1 1 1 2 5 18 51 101 101 50 15 2 -1 -2 -2 -2 -2 -2 -2 -2 -2 -2 -2 -2 -2 -1 0 3 10 23 43 66 90 105 99 74 47 27 14 6 2 0 -1 -2 -2 -2 -2 -2 -2 -1 1 12 44 102 
140 116 72 36 14 4 0 -1 -2 -2 -2 -2 -2 -2 -2 -2 -2 -2 -2 -2 -2 -2 -2 -2 -2 -2 -2 -2 -2 -2 -2 -2 -2 -2 -2 -2 -2 -2 -2 -2 -2 -2 -2 -2 -2 -2 -2 -2 -2 -2 -2 -2 -2 -1 -1 -1 -1 -1 -1 0 2 14 47 97 97 46 13 1 -1 -2 -2 -2 -2 -2 -2 -2 -2 -2 -2 -2 -2 -2 -1 0 1 6 14 27 47 74 99 105 91 67 44 26 13 5 1 0 -1 -2 -2 -2 -2 -1 1 12 44 103 
125 84 40 15 3 0 -1 -2 -2 -2 -2 -2 -2 -2 -2 -2 -2 -2 -2 -2 -2 -2 -2 -2 -2 -2 -2 -2 -2 -2 -2 -2 -2 -2 -2 -2 -2 -2 -2 -2 -2 -2 -2 -2 -2 -2 -2 -2 -2 -2 -2 -2 -2 -2 -2 -2 -2 -2 -2 -1 1 13 45 96 96 45 13 1 -1 -2 -2 -2 -2 -2 -2 -2 -2 -2 -2 -2 -2 -2 -2 -2 -1 0 2 7 17 34 59 86 104 104 89 66 42 23 10 3 0 -1 -1 -1 -2 -1 1 12 44 101 
108 60 22 5 0 -1 -2 -2 -2 -2 -2 -2 -2 -2 -2 -2 -2 -2 -2 -2 -2 -2 -2 -2 -2 -2 -2 -2 -2 -2 -2 -2 -2 -2 -2 -2 -2 -2 -2 -2 -2 -2 -2 -2 -2 -2 -2 -2 -2 -2 -2 -2 -2 -2 -2 -2 -2 -2 -2 -1 1 13 45 95 95 45 13 1 -1 -2 -2 -2 -2 -2 -2 -2 -2 -2 -2 -2 -2 -2 -2 -2 -2 -2 -1 0 3 10 23 42 66 89 104 104 87 59 34 16 7 3 1 0 0 0 2 13 45 98 
100 50 15 2 -1 -2 -2 -2 -2 -2 -2 -2 -2 -2 -2 -2 -2 -2 -2 -2 -2 -2 -2 -2 -2 -2 -2 -2 -2 -2 -2 -2 -2 -2 -2 -2 -2 -2 -2 -2 -2 -2 -2 -2 -2 -2 -2 -2 -2 -2 -2 -2 -2 -2 -2 -2 -2 -2 -2 -1 1 13 45 95 95 45 13 1 -1 -2 -2 -2 -2 -2 -2 -2 -2 -2 -2 -2 -2 -2 -2 -2 -2 -2 -2 -1 0 1 6 14 26 44 68 92 107 101 75 47 28 18 12 8 5 3 5 15 47 97 
97 46 13 1 -1 -2 -2 -2 -2 -2 -2 -2 -2 -2 -2 -2 -2 -2 -2 -2 -2 -2 -2 -2 -2 -2 -2 -2 -2 -2 -2 -2 -2 -2 -2 -2 -2 -2 -2 -2 -2 -2 -2 -2 -2 -2 -2 -2 -2 -2 -2 -2 -2 -2 -2 -2 -2 -2 -2 -1 1 12 45 95 95 45 12 1 -1 -2 -2 -2 -2 -2 -2 -2 -2 -2 -2 -2 -2 -2 -2 -2 -2 -2 -2 -2 -2 -1 0 2 7 16 30 53 83 112 117 97 72 54 43 34 24 18 16 24 53 99 
98 46 13 2 0 -1 -1 -1 -2 -2 -2 -2 -2 -2 -2 -2 -2 -2 -2 -2 -2 -2 -2 -2 -2 -2 -2 -2 -2 -2 -2 -2 -2 -2 -2 -2 -2 -2 -2 -2 -2 -2 -2 -2 -2 -2 -2 -2 -2 -2 -2 -2 -2 -2 -2 -2 -2 -2 -2 -1 1 12 45 95 95 45 12 1 -1 -2 -2 -2 -2 -2 -2 -2 -2 -2 -2 -2 -2 -2 -2 -2 -2 -2 -2 -2 -2 -1 0 1 4 10 20 36 64 103 134 139 122 105 93 81 67 54 47 49 70 108 
103 48 16 5 2 1 1 0 0 0 -1 -1 -1 -1 -1 -1 -2 -2 -2 -2 -2 -2 -2 -2 -2 -2 -2 -2 -2 -2 -2 -2 -2 -2 -2 -2 -2 -2 -2 -2 -2 -2 -2 -2 -2 -2 -2 -2 -2 -2 -2 -2 -2 -2 -2 -2 -2 -2 -2 -1 1 12 45 95 95 45 12 1 -1 -2 -2 -2 -2 -2 -2 -2 -2 -2 -2 -2 -2 -2 -2 -2 -2 -2 -2 -1 0 0 3 7 14 24 39 57 82 111 130 126 113 104 103 106 105 100 95 94 105 126 
113 58 27 16 13 12 12 10 8 5 3 1 1 1 1 0 0 0 -1 -1 -1 -1 -1 -1 -1 -2 -2 -2 -2 -2 -2 -2 -2 -2 -2 -2 -2 -2 -2 -2 -2 -2 -2 -2 -2 -2 -2 -2 -2 -2 -2 -2 -2 -2 -2 -2 -2 -2 -2 -1 1 12 45 95 95 45 12 1 -1 -2 -2 -2 -2 -2 -2 -2 -2 -2 -2 -2 -2 -2 -2 -2 -1 -1 0 1 5 10 17 27 43 63 83 98 108 107 93 72 57 52 56 67 81 92 102 114 132 145 
129 85 58 49 46 45 43 40 33 24 18 14 13 12 12 10 8 5 3 1 1 1 1 1 0 0 0 -1 -1 -1 -1 -1 -1 -2 -2 -2 -2 -2 -2 -2 -2 -2 -2 -2 -2 -2 -2 -2 -2 -2 -2 -2 -2 -2 -2 -2 -2 -2 -2 -1 1 12 45 95 95 45 12 1 -1 -2 -2 -2 -2 -2 -2 -2 -2 -2 -2 -2 -2 -2 -1 0 0 3 6 13 23 36 51 69 89 103 105 97 82 63 43 27 18 16 18 25 34 44 56 77 110 142 
146 124 106 98 96 95 93 89 80 67 55 49 46 45 43 40 33 24 18 14 13 13 12 12 10 8 5 3 1 1 1 1 0 0 0 -1 -1 -1 -1 -1 -1 -1 -2 -2 -2 -2 -2 -2 -2 -2 -2 -2 -2 -2 -2 -2 -2 -2 -2 -1 1 13 45 95 95 45 12 1 -1 -2 -2 -2 -2 -2 -2 -2 -2 -2 -2 -2 -1 0 1 5 10 17 27 43 63 82 97 105 103 89 69 51 36 23 13 6 3 2 3 5 9 13 20 37 74 125 
142 124 106 98 96 96 98 101 105 105 101 98 96 95 93 89 80 67 55 49 46 45 45 43 40 33 24 18 14 13 12 12 10 8 5 3 1 1 1 1 1 0 0 0 -1 -1 -1 -1 -1 -1 -2 -2 -2 -2 -2 -2 -2 -2 -2 -1 1 13 45 95 95 45 13 1 -1 -2 -2 -2 -2 -2 -2 -2 -2 -1 -1 0 2 6 13 23 36 51 69 89 103 105 97 82 63 43 27 17 10 5 1 0 -1 -1 -1 0 0 2 6 20 54 111 
119 86 59 49 46 46 49 55 67 80 89 93 95 96 98 101 105 105 101 98 96 95 95 93 89 80 67 55 49 46 45 43 40 33 24 18 14 13 13 12 12 10 8 5 3 1 1 1 1 0 0 0 -1 -1 -1 -1 -1 -1 -1 -1 1 13 45 96 95 45 13 1 -1 -2 -2 -2 -2 -2 -2 -1 0 0 3 7 14 26 43 63 82 97 105 103 89 69 51 36 23 13 6 3 0 0 -1 -2 -2 -2 -2 -2 -1 0 2 14 47 102 
104 59 28 16 13 13 14 18 24 33 40 43 45 46 49 55 67 80 89 93 95 95 96 98 101 105 105 101 98 96 95 93 89 80 67 55 49 46 45 45 43 40 33 24 18 14 13 12 12 10 8 5 3 1 1 1 1 1 0 0 3 14 46 96 96 45 13 1 -1 -2 -2 -2 -1 -1 0 1 5 10 17 27 44 66 88 103 105 97 82 63 43 27 17 10 5 1 0 -1 -1 -2 -2 -2 -2 -2 -2 -2 -2 -1 1 13 45 97 
98 49 16 5 2 1 1 3 5 8 10 12 12 13 14 18 24 33 40 43 45 45 46 49 55 67 80 89 93 95 96 98 101 105 105 101 98 96 95 95 93 89 80 67 55 49 46 45 43 40 33 24 18 14 13 13 12 12 11 9 9 18 49 98 97 46 13 1 -1 -1 -1 0 0 3 6 13 23 36 51 69 90 104 104 90 69 51 36 23 13 6 3 0 0 -1 -2 -2 -2 -2 -2 -2 -2 -2 -2 -2 -2 -1 1 13 45 96 
96 46 13 2 0 -1 -1 -1 0 0 0 1 1 1 1 3 5 8 10 12 12 13 13 14 18 24 33 40 43 45 46 49 55 67 80 89 93 95 95 96 98 101 105 105 101 98 96 95 93 89 80 67 55 49 46 45 45 43 40 34 28 33 61 105 102 50 16 3 0 0 2 5 10 17 27 43 63 82 97 105 103 88 66 44 27 17 10 5 1 0 -1 -1 -2 -2 -2 -2 -2 -2 -2 -2 -2 -2 -2 -2 -2 -1 1 12 45 95 
95 45 13 1 -1 -2 -2 -2 -2 -2 -1 -1 -1 -1 -1 -1 0 0 0 1 1 1 1 1 3 5 8 10 12 12 13 14 18 24 33 40 43 45 45 46 49 55 67 80 89 93 95 96 98 101 105 105 101 98 96 95 95 93 89 81 70 68 89 123 114 61 24 8 5 7 13 23 36 51 69 89 103 105 97 82 63 43 26 14 7 3 0 0 -1 -2 -2 -2 -2 -2 -2 -2 -2 -2 -2 -2 -2 -2 -2 -2 -2 -1 1 12 45 95 
95 45 13 1 -1 -2 -2 -2 -2 -2 -2 -2 -2 -2 -2 -2 -2 -2 -1 -1 -1 -1 -1 -1 -1 0 0 0 1 1 1 1 3 5 8 10 12 12 13 13 14 18 24 33 40 43 45 46 49 55 67 80 89 93 95 95 96 98 101 106 107 109 122 142 132 86 45 25 22 29 44 63 82 97 105 103 89 69 51 36 23 13 6 2 0 -1 -1 -2 -2 -2 -2 -2 -2 -2 -2 -2 -2 -2 -2 -2 -2 -2 -2 -2 -2 -1 1 12 45 95 
95 45 13 1 -1 -2 -2 -2 -2 -2 -2 -2 -2 -2 -2 -2 -2 -2 -2 -2 -2 -2 -2 -2 -2 -2 -2 -1 -1 -1 -1 -1 -1 0 0 0 1 1 1 1 1 3 5 8 10 12 12 13 14 18 24 33 40 43 45 45 46 49 55 67 80 91 102 116 126 115 86 65 61 72 90 103 105 97 82 63 43 27 17 10 5 1 0 -1 -2 -2 -2 -2 -2 -2 -2 -2 -2 -2 -2 -2 -2 -2 -2 -2 -2 -2 -2 -2 -2 -1 1 13 45 95 
95 45 13 1 -1 -2 -2 -2 -2 -2 -2 -2 -2 -2 -2 -2 -2 -2 -2 -2 -2 -2 -2 -2 -2 -2 -2 -2 -2 -2 -2 -2 -2 -2 -2 -1 -1 -1 -1 -1 -1 -1 0 0 0 1 1 1 1 3 5 8 10 12 12 13 13 14 18 24 33 41 48 61 85 115 127 120 112 110 104 89 69 51 36 23 13 6 3 0 0 -1 -2 -2 -2 -2 -2 -2 -2 -2 -2 -2 -2 -2 -2 -2 -2 -2 -2 -2 -2 -2 -2 -2 -2 -1 1 13 45 95 
96 45 13 1 -1 -2 -2 -2 -2 -2 -2 -2 -2 -2 -2 -2 -2 -2 -2 -2 -2 -2 -2 -2 -2 -2 -2 -2 -2 -2 -2 -2 -2 -2 -2 -2 -2 -2 -2 -2 -2 -2 -2 -1 -1 -1 -1 -1 -1 -1 0 0 0 1 1 1 1 2 3 5 8 11 15 23 45 86 132 141 116 89 65 44 27 17 10 5 2 0 -1 -1 -2 -2 -2 -2 -2 -2 -2 -2 -2 -2 -2 -2 -2 -2 -2 -2 -2 -2 -2 -2 -2 -2 -2 -2 -2 -1 1 13 45 96 
96 46 13 2 0 -1 -1 -1 -1 -1 -1 -1 -1 -1 -1 -1 -1 -1 -1 -1 -1 -1 -1 -1 -1 -1 -1 -1 -1 -1 -1 -1 -1 -1 -1 -1 -1 -1 -1 -1 -1 -1 -1 -1 -1 -1 -1 -1 -1 -1 -1 -1 -1 0 0 0 0 0 0 0 1 2 3 8 24 62 115 122 81 47 27 15 7 3 1 0 0 -1 -1 -1 -1 -1 -1 -1 -1 -1 -1 -1 -1 -1 -1 -1 -1 -1 -1 -1 -1 -1 -1 -1 -1 -1 -1 -1 -1 0 2 13 46 96 
98 49 16 5 2 1 1 1 1 1 1 1 1 1 1 1 1 1 1 1 1 1 1 1 1 1 1 1 1 1 1 1 1 1 1 1 1 1 1 1 1 1 1 1 1 1 1 1 1 1 1 1 1 1 1 1 1 1 1 1 1 2 3 7 19 54 104 107 60 27 12 6 3 2 2 1 1 1 1 1 1 1 1 1 1 1 1 1 1 1 1 1 1 1 1 1 1 1 1 1 1 1 1 1 1 2 5 16 49 98 
106 59 28 16 13 13 13 13 12 12 12 12 12 12 12 12 12 12 12 12 12 12 12 12 12 12 12 12 12 12 12 12 12 12 12 12 12 12 12 12 12 12 12 12 12 12 12 12 12 12 12 12 12 12 13 13 13 13 13 13 13 13 14 17 28 60 107 108 62 30 18 14 13 13 13 13 13 13 13 13 12 12 12 12 12 12 12 12 12 12 12 12 12 12 12 12 12 12 12 12 12 12 12 12 12 13 16 28 59 106 
125 86 59 49 46 45 45 45 45 45 45 45 45 45 45 45 45 45 45 45 45 45 45 45 45 45 45 45 45 45 45 45 44 44 44 45 45 45 45 45 45 45 45 45 45 45 45 45 45 44 44 45 45 45 45 45 45 45 45 45 45 45 46 49 59 86 124 125 86 59 49 46 45 45 45 45 45 45 45 45 45 45 45 45 45 45 45 45 45 45 45 44 44 44 45 45 45 45 45 45 45 45 45 44 44 45 48 58 86 125 
153 125 106 98 96 96 95 95 95 95 95 95 95 95 95 95 95 95 95 95 95 95 95 95 95 95 95 95 95 96 97 99 102 103 101 98 96 96 95 95 95 95 95 95 95 95 96 97 100 103 103 99 97 96 95 95 95 95 95 95 95 95 96 98 104 119 139 139 119 104 98 96 96 95 95 95 95 95 95 95 95 95 95 95 95 95 95 95 96 96 98 101 103 101 98 96 96 95 95 95 96 96 98 101 103 102 101 106 125 153 
