P2
110 110
255
154 124 104 98 96 95 95 95 95 95 95 95 95 95 95 95 95 95 95 95 95 95 95 95 95 95 95 96 96 98 105 119 139 143 126 108 99 96 96 95 95 95 95 95 95 96 97 103 119 141 141 118 103 97 96 95 95 95 95 95 95 95 95 96 97 99 103 103 99 97 96 95 95 95 95 95 95 95 95 95 95 95 95 95 95 95 95 96 97 101 114 135 144 128 109 100 96 96 95 96 97 100 112 133 145 130 112 109 125 154 
124 81 55 45 43 43 42 42 42 42 42 42 42 42 42 42 42 42 42 42 42 42 42 42 42 42 43 43 45 50 67 100 130 119 83 57 47 43 43 42 42 42 42 42 43 43 46 56 84 126 124 81 55 45 43 43 42 42 42 42 42 42 42 42 42 42 42 42 42 42 42 42 42 42 42 42 42 42 42 42 42 42 42 42 42 42 43 43 46 57 84 122 126 89 60 47 44 43 43 43 45 52 75 115 129 94 64 60 83 124 
104 55 24 14 11 10 10 10 10 10 10 10 10 10 10 10 10 10 10 10 10 10 10 10 10 10 11 12 16 28 57 100 113 77 39 20 13 11 10 10 10 10 10 10 11 11 15 29 65 115 107 54 24 14 11 10 10 10 10 10 10 10 10 10 10 10 10 10 10 10 10 10 10 10 10 10 10 10 10 10 10 10 10 10 10 10 11 12 17 35 74 114 95 50 23 14 11 10 10 11 14 24 54 103 107 60 30 28 55 105 
98 45 14 3 0 0 0 0 0 0 0 0 0 0 0 0 0 0 0 0 0 0 0 0 0 0 1 3 12 34 75 108 89 44 16 4 1 0 0 0 0 0 0 0 0 2 8 27 72 122 102 45 13 3 0 0 0 0 0 0 0 0 0 0 0 0 0 0 0 0 0 0 0 0 0 0 0 0 0 0 0 0 0 0 0 0 0 3 11 37 85 108 68 27 8 2 0 0 0 1 4 18 54 103 94 43 16 17 46 98 
96 43 11 0 -1 -2 -2 -2 -2 -2 -2 -2 -2 -2 -2 -2 -2 -2 -2 -2 -2 -2 -2 -2 -2 -1 0 5 22 59 100 100 58 22 5 0 -1 -2 -2 -2 -2 -2 -2 -2 -1 1 12 41 95 137 103 42 11 0 -1 -2 -2 -2 -2 -2 -2 -2 -2 -2 -2 -2 -2 -2 -2 -2 -2 -2 -2 -2 -2 -2 -2 -2 -2 -2 -2 -2 -2 -2 -2 -2 -1 2 15 49 98 97 48 14 2 -1 -2 -2 -2 0 4 22 65 107 81 32 10 13 43 96 
95 43 10 0 -2 -2 -2 -2 -2 -2 -2 -2 -2 -2 -2 -2 -2 -2 -2 -2 -2 -2 -2 -2 -2 -1 2 14 43 88 106 72 31 8 0 -2 -2 -2 -2 -2 -2 -2 -2 -2 0 5 23 64 119 144 103 42 10 0 -2 -2 -2 -2 -2 -2 -2 -2 -2 -2 -2 -2 -2 -2 -2 -2 -2 -2 -2 -2 -2 -2 -2 -2 -2 -2 -2 -2 -2 -2 -2 -2 0 5 24 67 106 82 34 8 0 -2 -2 -2 -2 0 7 31 80 106 65 22 7 12 43 96 
95 42 10 0 -2 -2 -3 -3 -3 -3 -3 -3 -3 -3 -3 -3 -3 -3 -3 -3 -3 -3 -2 -2 -2 0 8 31 72 106 88 43 14 2 -1 -2 -2 -3 -3 -3 -3 -2 -2 -2 1 12 41 91 130 138 104 45 12 0 -2 -2 -3 -3 -3 -3 -3 -3 -3 -3 -3 -3 -3 -3 -3 -3 -3 -3 -3 -3 -3 -3 -3 -3 -3 -3 -3 -3 -3 -2 -2 -2 0 11 41 89 104 61 21 3 -1 -2 -2 -2 -2 0 10 41 92 100 51 15 4 11 43 95 
95 42 10 0 -2 -2 -3 -3 -3 -3 -3 -3 -3 -3 -3 -3 -3 -3 -3 -3 -3 -3 -2 -2 0 5 22 58 100 100 58 22 5 0 -2 -2 -3 -3 -3 -3 -3 -2 -2 0 5 24 65 110 121 124 106 52 15 1 -2 -2 -3 -3 -3 -3 -3 -3 -3 -3 -3 -3 -3 -3 -3 -3 -3 -3 -3 -3 -3 -3 -3 -3 -3 -3 -3 -3 -3 -2 -2 -1 3 21 61 104 89 41 11 0 -2 -2 -2 -2 -2 1 14 50 100 92 41 11 3 11 43 95 
95 42 10 0 -2 -2 -3 -3 -3 -3 -3 -3 -3 -3 -3 -3 -3 -3 -3 -3 -3 -2 -2 -1 2 14 43 88 106 72 31 8 0 -2 -2 -3 -3 -3 -3 -3 -2 -2 -1 2 14 44 91 111 95 103 110 65 22 3 -1 -2 -2 -3 -3 -3 -3 -3 -3 -3 -3 -3 -3 -3 -3 -3 -3 -3 -3 -3 -3 -3 -3 -3 -3 -3 -3 -3 -3 -2 -2 0 8 33 82 106 67 24 5 -1 -2 -2 -2 -2 -1 3 22 64 106 80 31 7 2 11 42 95 
95 42 10 0 -2 -2 -3 -3 -3 -3 -3 -3 -3 -3 -3 -3 -3 -3 -3 -3 -3 -2 -2 0 8 31 72 106 88 43 14 2 -1 -2 -2 -3 -3 -3 -3 -3 -2 -2 0 8 31 73 107 92 65 78 109 80 31 6 0 -2 -2 -3 -3 -3 -3 -3 -3 -3 -3 -3 -3 -3 -3 -3 -3 -3 -3 -3 -3 -3 -3 -3 -3 -3 -3 -3 -3 -2 -2 1 14 48 97 97 48 14 1 -2 -2 -2 -2 -2 0 7 31 80 106 64 22 4 1 11 42 95 
96 43 10 0 -2 -2 -3 -3 -3 -3 -3 -3 -3 -3 -3 -3 -3 -3 -3 -3 -2 -2 0 5 22 58 100 100 58 22 5 0 -2 -2 -3 -3 -3 -3 -3 -2 -2 -1 4 21 58 100 101 62 39 59 103 89 37 9 0 -2 -2 -3 -3 -3 -3 -3 -3 -3 -3 -3 -3 -3 -3 -3 -3 -3 -3 -3 -3 -3 -3 -3 -3 -3 -3 -3 -2 -2 -1 5 24 67 106 82 33 8 0 -2 -2 -3 -2 -2 0 10 41 92 100 50 15 2 1 11 42 95 
96 43 11 0 -2 -2 -3 -3 -3 -3 -3 -3 -3 -3 -3 -3 -3 -3 -3 -2 -2 -1 2 14 43 88 106 72 31 8 0 -2 -2 -3 -3 -3 -3 -3 -3 -2 -2 0 11 40 86 106 73 35 24 49 98 94 41 10 0 -2 -2 -3 -3 -3 -3 -3 -3 -3 -3 -3 -3 -3 -3 -3 -3 -3 -3 -3 -3 -3 -3 -3 -3 -3 -3 -3 -2 -2 0 11 41 89 104 61 21 3 -1 -2 -2 -3 -2 -2 1 14 50 100 92 41 10 0 0 10 42 96 
99 47 13 1 -2 -2 -3 -3 -3 -3 -3 -3 -3 -3 -3 -3 -3 -3 -3 -2 -2 0 8 31 72 106 88 43 14 2 -1 -2 -2 -3 -3 -3 -3 -3 -2 -2 -1 5 23 64 105 90 45 17 16 44 96 96 43 11 0 -2 -2 -3 -3 -3 -3 -3 -3 -3 -3 -3 -3 -3 -3 -3 -3 -3 -3 -3 -3 -3 -3 -3 -3 -3 -3 -2 -2 -1 3 21 61 104 89 41 11 0 -2 -2 -3 -2 -2 -1 3 22 64 106 80 31 7 0 0 10 42 96 
108 57 19 3 -1 -2 -2 -3 -3 -3 -3 -3 -3 -3 -3 -3 -3 -3 -2 -2 0 5 22 58 100 100 58 22 5 0 -2 -2 -3 -3 -3 -3 -3 -3 -2 -2 1 12 41 89 105 65 25 8 12 41 94 97 45 12 0 -2 -2 -3 -3 -3 -3 -3 -3 -3 -3 -3 -3 -3 -3 -3 -3 -3 -3 -3 -3 -3 -3 -3 -3 -3 -3 -2 -2 0 8 33 82 106 67 24 5 -1 -2 -2 -3 -2 -2 0 7 31 80 106 64 22 4 0 0 10 42 98 
126 82 36 12 2 -1 -2 -2 -3 -3 -3 -3 -3 -3 -3 -3 -3 -2 -2 -1 2 14 43 88 106 72 31 8 0 -2 -2 -3 -3 -3 -3 -3 -3 -2 -2 0 5 24 65 105 89 41 12 4 10 38 89 101 52 15 1 -2 -2 -3 -3 -3 -3 -3 -3 -3 -3 -3 -3 -3 -3 -3 -3 -3 -3 -3 -3 -3 -3 -3 -3 -3 -3 -2 -2 1 14 48 97 97 48 14 1 -2 -2 -3 -3 -2 -2 0 10 41 92 100 50 14 1 -1 0 10 42 101 
143 117 70 32 10 1 -1 -2 -2 -3 -3 -3 -3 -3 -3 -3 -3 -2 -2 0 8 31 72 106 88 43 14 2 -1 -2 -2 -3 -3 -3 -3 -3 -2 -2 -1 2 14 44 90 105 64 23 5 1 7 31 80 106 65 22 3 -1 -2 -2 -3 -3 -3 -3 -3 -3 -3 -3 -3 -3 -3 -3 -3 -3 -3 -3 -3 -3 -3 -3 -3 -3 -2 -2 -1 5 24 67 106 82 33 8 0 -2 -2 -3 -3 -2 -2 1 14 50 100 92 41 10 0 -1 0 10 42 103 
140 131 106 66 28 8 0 -2 -2 -3 -3 -3 -3 -3 -3 -3 -2 -2 0 5 22 58 100 100 58 22 5 0 -2 -2 -3 -3 -3 -3 -3 -3 -2 -2 0 8 31 73 106 86 40 11 1 0 4 22 65 106 80 31 6 0 -2 -2 -3 -3 -3 -3 -3 -3 -3 -3 -3 -3 -3 -3 -3 -3 -3 -3 -3 -3 -3 -3 -3 -3 -2 -2 0 11 41 89 104 61 21 3 -1 -2 -2 -3 -2 -2 -1 3 22 64 106 80 31 7 0 -1 0 10 42 102 
122 109 113 99 57 22 5 0 -2 -2 -3 -3 -3 -3 -3 -2 -2 -1 2 14 43 88 106 72 31 8 0 -2 -2 -3 -3 -3 -3 -3 -3 -2 -2 -1 4 21 58 100 100 58 21 4 0 -1 1 15 52 101 89 37 9 0 -2 -2 -3 -3 -3 -3 -3 -3 -3 -3 -3 -3 -3 -3 -3 -3 -3 -3 -3 -3 -3 -3 -3 -2 -2 -1 3 21 61 104 89 41 11 0 -2 -2 -3 -3 -2 -2 0 7 31 80 106 64 22 3 -1 -2 0 10 42 99 
108 80 87 108 88 44 15 2 -1 -2 -2 -3 -3 -3 -3 -2 -2 0 8 31 72 106 88 43 14 2 -1 -2 -2 -3 -3 -3 -3 -3 -3 -2 -2 0 11 40 86 106 73 31 8 0 -2 -2 0 12 45 97 94 41 10 0 -2 -2 -3 -3 -3 -3 -3 -3 -3 -3 -3 -3 -3 -3 -3 -3 -3 -3 -3 -3 -3 -3 -3 -2 -2 0 8 33 82 106 67 24 5 -1 -2 -2 -3 -3 -2 -2 0 10 41 92 100 50 14 1 -1 -2 0 10 42 97 
100 60 57 91 107 75 35 12 2 -1 -2 -2 -3 -3 -2 -2 0 5 22 58 100 100 58 22 5 0 -2 -2 -3 -3 -3 -3 -3 -3 -2 -2 -1 5 23 64 105 90 44 14 2 -1 -2 -2 0 11 43 95 95 43 11 0 -2 -2 -3 -3 -3 -3 -3 -3 -3 -3 -3 -3 -3 -3 -3 -3 -3 -3 -3 -3 -3 -3 -3 -2 -2 1 14 48 97 97 48 14 1 -2 -2 -3 -3 -3 -2 -2 1 14 50 100 92 41 10 0 -2 -2 0 10 42 96 
97 50 35 60 99 103 69 33 11 2 -1 -2 -2 -2 -2 -1 2 14 43 88 106 72 31 8 0 -2 -2 -3 -3 -3 -3 -3 -3 -3 -2 -2 1 12 41 89 105 65 24 5 0 -2 -2 -2 0 10 41 94 97 45 12 0 -2 -2 -3 -3 -3 -3 -3 -3 -3 -3 -3 -3 -3 -3 -3 -3 -3 -3 -3 -3 -3 -3 -2 -2 -1 5 24 67 106 82 33 8 0 -2 -2 -3 -3 -2 -2 -1 3 22 64 106 80 31 7 0 -2 -2 0 10 42 96 
96 46 22 32 66 101 102 68 32 11 2 -1 -2 -2 -2 0 8 31 72 106 88 43 14 2 -1 -2 -2 -3 -3 -3 -3 -3 -3 -2 -2 0 5 24 65 105 89 41 12 1 -2 -2 -2 -2 0 9 37 89 101 52 15 1 -2 -2 -3 -3 -3 -3 -3 -3 -3 -3 -3 -3 -3 -3 -3 -3 -3 -3 -3 -3 -3 -3 -2 -2 0 11 41 89 104 61 21 3 -1 -2 -2 -3 -3 -2 -2 0 7 31 80 106 64 22 3 -1 -2 -2 0 10 42 95 
96 44 15 13 32 68 102 102 68 32 11 2 -1 -2 0 5 22 58 100 100 58 22 5 0 -2 -2 -3 -3 -3 -3 -3 -3 -2 -2 -1 2 14 44 90 105 64 23 5 -1 -2 -2 -2 -2 0 6 31 80 106 65 22 3 -1 -2 -2 -3 -3 -3 -3 -3 -3 -3 -3 -3 -3 -3 -3 -3 -3 -3 -3 -3 -3 -2 -2 -1 3 21 61 104 89 41 11 0 -2 -2 -3 -3 -3 -2 -2 0 10 41 92 100 50 14 1 -2 -2 -2 0 10 42 95 
95 43 12 5 12 32 68 102 102 68 32 11 2 0 2 14 43 88 106 72 31 8 0 -2 -2 -3 -3 -3 -3 -3 -3 -3 -2 -2 0 8 31 73 106 86 40 11 0 -2 -2 -3 -2 -2 -1 3 22 65 106 80 31 6 0 -2 -2 -3 -3 -3 -3 -3 -3 -3 -3 -3 -3 -3 -3 -3 -3 -3 -3 -3 -3 -2 -2 0 8 33 82 106 67 24 5 -1 -2 -2 -3 -3 -3 -2 -2 1 14 50 100 92 41 10 0 -2 -2 -2 0 10 42 95 
95 42 11 1 2 11 32 68 102 102 68 33 12 5 10 32 72 106 88 43 14 2 -1 -2 -2 -3 -3 -3 -3 -3 -3 -2 -2 -1 4 21 58 100 100 58 21 4 -1 -2 -2 -3 -3 -2 -2 1 15 52 101 89 38 9 0 -2 -2 -3 -3 -3 -3 -3 -3 -3 -3 -3 -3 -3 -3 -3 -3 -3 -3 -3 -3 -2 -2 1 14 48 97 97 48 14 1 -2 -2 -3 -3 -3 -2 -2 -1 3 22 64 106 80 31 7 0 -2 -2 -2 0 10 42 95 
95 42 10 0 0 2 11 32 68 102 102 68 35 19 27 60 100 100 58 22 5 0 -2 -2 -3 -3 -3 -3 -3 -3 -3 -2 -2 0 11 40 86 106 73 31 8 0 -2 -2 -3 -3 -3 -2 -2 0 12 45 97 94 42 10 0 -2 -2 -3 -3 -3 -3 -3 -3 -3 -3 -3 -3 -3 -3 -3 -3 -3 -3 -3 -2 -2 -1 5 24 67 106 82 33 8 0 -2 -2 -3 -3 -3 -2 -2 0 7 31 80 106 64 22 3 -1 -2 -2 -2 0 10 42 95 
95 42 10 0 -1 -1 2 11 32 68 102 103 73 49 57 92 107 72 31 8 0 -2 -2 -3 -3 -3 -3 -3 -3 -3 -2 -2 -1 5 23 64 105 90 44 14 2 -1 -2 -2 -3 -3 -3 -2 -2 0 10 42 94 97 45 12 0 -2 -2 -3 -3 -3 -3 -3 -3 -3 -3 -3 -3 -3 -3 -3 -3 -3 -3 -3 -2 -2 0 11 41 89 104 61 21 3 -1 -2 -2 -3 -3 -3 -2 -2 0 10 41 92 100 50 14 1 -2 -2 -2 -2 0 10 42 95 
95 42 10 0 -2 -2 -1 2 11 32 68 103 110 97 100 113 89 43 14 2 -1 -2 -2 -3 -3 -3 -3 -3 -3 -3 -2 -2 1 12 41 89 105 65 24 5 0 -2 -2 -3 -3 -3 -3 -2 -2 0 9 38 89 101 52 15 1 -2 -2 -3 -3 -3 -3 -3 -3 -3 -3 -3 -3 -3 -3 -3 -3 -3 -3 -2 -2 -1 3 21 61 104 89 41 11 0 -2 -2 -3 -3 -3 -3 -2 -2 1 14 50 100 92 41 10 0 -2 -2 -2 -2 0 10 42 95 
95 42 10 0 -2 -2 -2 -1 2 11 33 70 111 136 136 108 59 22 5 0 -2 -2 -3 -3 -3 -3 -3 -3 -3 -2 -2 0 5 24 65 105 89 41 12 1 -2 -2 -3 -3 -3 -3 -3 -2 -2 0 6 31 80 106 65 22 3 -1 -2 -2 -3 -3 -3 -3 -3 -3 -3 -3 -3 -3 -3 -3 -3 -3 -3 -2 -2 0 8 33 82 106 67 24 5 -1 -2 -2 -3 -3 -3 -2 -2 -1 3 22 64 106 80 31 7 0 -2 -2 -2 -2 0 10 42 95 
95 42 10 0 -2 -2 -2 -2 -1 2 12 36 82 132 132 80 33 9 0 -2 -2 -3 -3 -3 -3 -3 -3 -3 -2 -2 -1 2 14 44 90 105 64 23 5 -1 -2 -2 -3 -3 -3 -3 -3 -2 -2 -1 3 22 65 106 80 31 6 0 -2 -2 -3 -3 -3 -3 -3 -3 -3 -3 -3 -3 -3 -3 -3 -3 -3 -2 -2 1 14 48 97 97 48 14 1 -2 -2 -3 -3 -3 -3 -2 -2 0 7 31 80 106 64 22 3 -1 -2 -2 -2 -2 0 10 42 95 
95 42 10 0 -2 -2 -3 -2 -2 -1 3 18 56 110 114 59 19 3 -1 -2 -2 -3 -3 -3 -3 -3 -3 -3 -2 -2 0 8 31 73 106 86 40 11 0 -2 -2 -3 -3 -3 -3 -3 -3 -3 -2 -2 1 15 52 101 89 37 9 0 -2 -2 -3 -3 -3 -3 -3 -3 -3 -3 -3 -3 -3 -3 -3 -3 -2 -2 -1 5 24 67 106 82 33 8 0 -2 -2 -3 -3 -3 -3 -2 -2 0 10 41 92 100 50 14 1 -2 -2 -2 -2 -2 0 10 42 95 
95 42 10 0 -2 -2 -3 -3 -2 -2 0 11 42 94 106 56 17 2 -1 -2 -3 -3 -3 -3 -3 -3 -3 -2 -2 -1 4 21 58 100 100 58 21 4 -1 -2 -2 -3 -3 -3 -3 -3 -3 -3 -2 -2 0 12 45 97 94 41 10 0 -2 -2 -3 -3 -3 -3 -3 -3 -3 -3 -3 -3 -3 -3 -3 -3 -2 -2 0 11 41 89 104 61 21 3 -1 -2 -2 -3 -3 -3 -3 -2 -2 1 14 50 100 92 41 10 0 -2 -2 -3 -2 -2 0 10 42 95 
95 42 10 0 -2 -2 -3 -3 -2 -2 0 7 32 81 107 66 22 4 -1 -2 -2 -3 -3 -3 -3 -3 -3 -2 -2 0 11 40 86 106 73 31 8 0 -2 -2 -3 -3 -3 -3 -3 -3 -3 -3 -2 -2 0 11 43 95 95 43 11 0 -2 -2 -3 -3 -3 -3 -3 -3 -3 -3 -3 -3 -3 -3 -3 -2 -2 -1 3 21 61 104 89 41 11 0 -2 -2 -3 -3 -3 -3 -2 -2 -1 3 22 64 106 80 31 7 0 -2 -2 -3 -2 -2 0 10 42 95 
95 42 10 0 -2 -2 -3 -3 -2 -2 -1 3 22 65 106 80 31 6 0 -2 -2 -3 -3 -3 -3 -3 -2 -2 -1 5 23 64 105 90 44 14 2 -1 -2 -2 -3 -3 -3 -3 -3 -3 -3 -3 -2 -2 0 10 41 94 97 45 12 0 -2 -2 -3 -3 -3 -3 -3 -3 -3 -3 -3 -3 -3 -3 -3 -2 -2 0 8 33 82 106 67 24 5 -1 -2 -2 -3 -3 -3 -3 -2 -2 0 7 31 80 106 64 22 3 -1 -2 -2 -3 -2 -2 0 10 43 96 
96 42 10 0 -2 -2 -3 -3 -3 -2 -2 1 15 52 101 90 38 9 0 -2 -2 -3 -3 -3 -3 -3 -2 -2 1 12 41 89 105 65 24 5 0 -2 -2 -3 -3 -3 -3 -3 -3 -3 -3 -3 -2 -2 0 9 37 89 101 52 15 1 -2 -2 -3 -3 -3 -3 -3 -3 -3 -3 -3 -3 -3 -3 -3 -2 -2 1 14 48 97 97 48 14 1 -2 -2 -3 -3 -3 -3 -3 -2 -2 0 10 41 92 100 50 14 1 -2 -2 -3 -3 -2 -2 0 11 43 96 
96 42 10 0 -2 -2 -3 -3 -3 -2 -2 0 11 44 96 96 44 11 0 -2 -2 -3 -3 -3 -3 -2 -2 0 5 24 65 105 89 41 12 1 -2 -2 -3 -3 -3 -3 -3 -3 -3 -3 -3 -3 -2 -2 0 6 31 80 106 65 22 3 -1 -2 -2 -3 -3 -3 -3 -3 -3 -3 -3 -3 -3 -3 -2 -2 -1 5 24 67 106 82 33 8 0 -2 -2 -3 -3 -3 -3 -3 -2 -2 1 14 50 100 92 41 10 0 -2 -2 -3 -3 -2 -2 0 12 46 99 
98 42 10 0 -2 -2 -3 -3 -3 -2 -2 0 9 38 90 101 52 15 1 -2 -2 -3 -3 -3 -2 -2 -1 2 14 44 90 105 64 23 5 -1 -2 -2 -3 -3 -3 -3 -3 -3 -3 -3 -3 -3 -2 -2 -1 3 22 65 106 80 31 6 0 -2 -2 -3 -3 -3 -3 -3 -3 -3 -3 -3 -3 -3 -2 -2 0 11 41 89 104 61 21 3 -1 -2 -2 -3 -3 -3 -3 -2 -2 -1 3 22 64 106 80 31 7 0 -2 -2 -3 -2 -2 -1 2 16 53 106 
100 42 10 0 -2 -2 -3 -3 -3 -2 -2 0 6 31 80 106 65 22 3 -1 -2 -2 -3 -3 -2 -2 0 8 31 73 106 86 40 11 0 -2 -2 -3 -3 -3 -3 -3 -3 -3 -3 -3 -3 -3 -3 -2 -2 1 15 52 101 89 37 9 0 -2 -2 -3 -3 -3 -3 -3 -3 -3 -3 -3 -3 -2 -2 -1 3 21 61 104 89 41 11 0 -2 -2 -3 -3 -3 -3 -3 -2 -2 0 7 31 80 106 64 22 3 -1 -2 -2 -3 -2 -2 0 5 25 70 120 
102 41 10 0 -2 -2 -3 -3 -3 -2 -2 -1 3 22 65 106 80 31 6 0 -2 -2 -3 -2 -2 -1 4 21 58 100 100 58 21 4 -1 -2 -2 -3 -3 -3 -3 -3 -3 -3 -3 -3 -3 -3 -3 -2 -2 0 12 45 97 94 41 10 0 -2 -2 -3 -3 -3 -3 -3 -3 -3 -3 -3 -3 -2 -2 0 8 33 82 106 67 24 5 -1 -2 -2 -3 -3 -3 -3 -3 -2 -2 0 10 41 92 100 50 14 1 -2 -2 -3 -2 -2 -1 2 14 44 97 137 
103 41 10 0 -2 -2 -3 -3 -3 -3 -2 -2 1 15 52 101 90 38 9 0 -2 -2 -2 -2 -2 0 11 40 86 106 73 31 8 0 -2 -2 -3 -3 -3 -3 -3 -3 -3 -3 -3 -3 -3 -3 -3 -2 -2 0 11 43 95 95 43 11 0 -2 -2 -3 -3 -3 -3 -3 -3 -3 -3 -3 -3 -2 -2 1 14 48 97 97 48 14 1 -2 -2 -3 -3 -3 -3 -3 -3 -2 -2 1 14 50 100 92 41 10 0 -2 -2 -2 -2 -2 0 8 31 73 123 144 
101 42 10 0 -2 -2 -3 -3 -3 -3 -2 -2 0 11 44 96 96 44 11 0 -2 -2 -2 -2 -1 5 23 64 105 90 44 14 2 -1 -2 -2 -3 -3 -3 -3 -3 -3 -3 -3 -3 -3 -3 -3 -3 -2 -2 0 10 41 94 97 45 12 0 -2 -2 -3 -3 -3 -3 -3 -3 -3 -3 -3 -2 -2 -1 5 24 67 106 82 33 8 0 -2 -2 -3 -3 -3 -3 -3 -2 -2 -1 3 22 64 106 80 31 7 0 -2 -2 -2 -2 0 4 22 58 104 130 136 
98 42 10 0 -2 -2 -3 -3 -3 -3 -2 -2 0 9 38 90 101 52 15 1 -2 -2 -2 -2 1 12 41 89 105 65 24 5 0 -2 -2 -3 -3 -3 -3 -3 -3 -3 -3 -3 -3 -3 -3 -3 -3 -2 -2 0 9 37 89 101 52 15 1 -1 -2 -2 -2 -3 -3 -3 -3 -3 -3 -3 -2 -2 0 11 41 89 104 61 21 3 -1 -2 -2 -3 -3 -3 -3 -3 -2 -2 0 7 31 80 106 64 22 3 -1 -2 -2 -2 -1 2 14 43 89 115 112 121 
97 42 10 0 -2 -2 -3 -3 -3 -3 -2 -2 0 6 31 80 106 65 22 3 -1 -2 -2 0 5 24 65 105 89 41 12 1 -2 -2 -3 -3 -3 -3 -3 -3 -3 -3 -3 -3 -3 -3 -3 -3 -3 -2 -2 0 6 31 80 107 65 22 4 0 -2 -2 -2 -2 -2 -2 -2 -2 -2 -2 -2 -1 3 21 61 104 89 41 11 0 -2 -2 -3 -3 -3 -3 -3 -3 -2 -2 0 10 41 92 100 50 14 1 -2 -2 -2 -2 0 8 31 72 108 100 87 109 
96 42 10 0 -2 -2 -3 -3 -3 -3 -2 -2 -1 3 22 65 106 80 31 6 0 -2 -1 2 14 44 90 105 64 23 5 -1 -2 -2 -3 -3 -3 -3 -3 -3 -3 -3 -3 -3 -3 -3 -3 -3 -3 -2 -2 -1 4 22 66 108 82 34 10 2 0 0 -1 -2 -2 -2 -2 -2 -2 -2 -2 0 8 34 82 106 67 24 5 -1 -2 -2 -3 -3 -3 -3 -3 -3 -2 -2 1 14 50 100 92 41 10 0 -2 -2 -2 0 5 22 58 100 102 71 67 102 
96 42 10 0 -2 -2 -3 -3 -3 -3 -3 -2 -2 1 15 52 101 90 38 9 0 -1 0 8 31 73 106 86 40 11 0 -2 -2 -3 -3 -3 -3 -3 -3 -3 -3 -3 -3 -3 -3 -3 -3 -3 -3 -2 -2 -1 3 18 57 107 98 50 22 13 9 6 3 1 0 0 0 0 0 -1 -1 2 15 48 97 97 48 14 1 -2 -2 -3 -3 -3 -3 -3 -3 -2 -2 -1 3 22 64 106 80 31 7 0 -2 -2 -1 2 14 43 88 106 75 45 54 98 
95 42 10 0 -2 -2 -3 -3 -3 -3 -3 -2 -2 0 11 44 96 96 44 11 0 0 4 21 58 100 100 58 21 4 -1 -2 -2 -3 -3 -3 -3 -3 -3 -3 -3 -3 -3 -3 -3 -3 -3 -2 -2 -2 -1 0 7 24 63 117 120 80 54 44 38 31 22 15 12 11 10 9 6 4 3 8 27 68 107 82 34 8 0 -2 -2 -3 -3 -3 -3 -3 -3 -2 -2 0 7 31 80 106 64 22 3 -1 -2 -2 0 8 31 72 106 89 46 28 47 96 
95 42 10 0 -2 -2 -3 -3 -3 -3 -3 -2 -2 0 9 38 90 101 52 15 2 2 12 40 86 106 73 31 8 0 -2 -2 -3 -3 -3 -3 -3 -3 -3 -3 -3 -3 -3 -3 -3 -3 -2 -2 -2 0 2 9 23 49 89 134 142 119 103 95 90 80 65 52 45 43 41 37 31 22 18 25 50 94 106 62 21 3 -1 -2 -2 -3 -3 -3 -3 -3 -3 -2 -2 0 10 41 92 100 50 14 1 -1 -2 0 5 22 58 100 100 59 25 18 44 96 
95 42 10 0 -2 -2 -3 -3 -3 -3 -3 -2 -2 0 6 31 80 106 65 22 5 6 24 64 105 90 44 14 2 -1 -2 -2 -3 -3 -3 -3 -3 -3 -3 -3 -3 -3 -3 -3 -2 -2 -2 -1 0 5 14 31 59 90 115 123 115 103 98 98 101 106 106 101 97 95 94 89 80 66 57 63 90 117 93 42 12 0 -2 -2 -3 -3 -3 -3 -3 -3 -3 -2 -2 1 14 50 100 92 41 10 0 -2 -1 2 14 43 88 106 72 32 12 14 43 96 
95 42 10 0 -2 -2 -3 -3 -3 -3 -3 -2 -2 -1 3 22 65 106 80 32 11 14 42 89 105 65 24 5 0 -2 -2 -3 -3 -3 -3 -3 -3 -3 -3 -3 -3 -3 -3 -2 -2 -2 0 2 8 22 43 72 100 107 93 70 53 46 44 46 52 65 80 89 94 95 97 101 107 107 107 115 135 132 80 30 7 0 -2 -2 -3 -3 -3 -3 -3 -3 -2 -2 -1 3 22 64 106 80 31 7 0 -1 0 8 31 72 106 88 43 15 5 12 43 95 
95 42 10 0 -2 -2 -3 -3 -3 -3 -3 -3 -2 -2 1 15 52 101 90 40 18 27 65 105 89 41 12 1 -2 -2 -3 -3 -3 -3 -3 -3 -3 -3 -3 -3 -3 -3 -2 -2 -1 0 4 14 31 58 88 106 100 73 45 26 16 12 11 12 15 22 31 37 41 43 45 52 65 81 95 111 134 132 81 31 8 0 -2 -2 -2 -2 -2 -2 -2 -2 -2 -2 0 7 31 80 106 64 22 4 0 0 5 22 58 100 100 58 22 5 2 11 43 95 
95 42 10 0 -2 -2 -3 -3 -3 -3 -3 -3 -2 -2 0 11 44 96 97 49 29 48 91 105 64 23 5 -1 -2 -2 -3 -3 -3 -3 -3 -3 -3 -3 -3 -3 -2 -2 -2 -1 1 8 21 43 72 100 106 88 58 31 14 5 2 0 0 0 1 3 6 9 10 11 12 15 22 32 42 58 89 117 96 47 16 4 0 -1 -2 -2 -2 -2 -2 -2 -2 -1 0 11 41 92 100 51 15 1 0 2 14 43 88 106 72 31 9 0 1 11 42 95 
95 42 10 0 -2 -2 -3 -3 -3 -3 -3 -3 -2 -2 0 9 38 90 104 63 49 77 107 86 40 11 0 -2 -2 -3 -3 -3 -3 -3 -3 -3 -3 -3 -3 -2 -2 -2 0 2 11 29 57 88 106 100 72 43 22 8 2 0 -1 -2 -2 -2 -2 -1 0 0 0 0 0 1 3 7 12 22 48 91 109 77 38 16 6 2 0 0 0 0 0 0 0 1 4 17 53 101 93 41 11 1 1 9 31 72 106 88 43 14 2 -1 0 10 42 95 
95 42 10 0 -2 -2 -3 -3 -3 -3 -3 -3 -2 -2 0 6 31 80 111 87 82 105 100 58 21 4 -1 -2 -2 -3 -3 -3 -3 -3 -3 -3 -3 -2 -2 -2 -1 0 5 15 34 67 98 106 88 58 31 14 5 0 -1 -2 -2 -2 -2 -2 -2 -2 -2 -2 -2 -2 -2 -2 -1 0 1 7 23 59 103 110 78 46 26 16 12 11 10 10 10 10 11 12 17 34 74 112 85 35 9 2 5 22 58 100 100 58 22 5 0 -1 0 10 42 95 
95 42 10 0 -2 -2 -3 -3 -3 -3 -3 -3 -2 -2 -1 3 21 65 113 116 114 111 73 31 8 0 -2 -2 -3 -3 -3 -3 -3 -3 -3 -3 -2 -2 -2 0 2 8 22 44 74 103 103 74 44 22 8 2 0 -2 -2 -2 -3 -3 -3 -3 -3 -2 -2 -2 -2 -2 -2 -2 -2 -2 -1 0 9 33 79 125 127 97 70 53 46 43 43 42 42 42 43 44 51 70 108 125 82 35 12 7 16 44 88 106 72 31 8 0 -2 -2 0 10 42 95 
95 42 10 0 -2 -2 -3 -3 -3 -3 -3 -3 -3 -2 -2 1 15 52 109 137 129 93 44 14 2 -1 -2 -2 -3 -3 -3 -3 -3 -3 -2 -2 -2 -1 0 5 14 31 58 88 106 98 67 34 15 5 0 -1 -2 -2 -2 -3 -3 -3 -3 -3 -3 -3 -3 -3 -3 -3 -3 -3 -2 -2 -2 -1 3 19 60 119 144 128 113 103 98 96 96 95 95 95 96 97 102 116 139 140 98 55 30 23 38 75 107 88 43 14 2 -1 -2 -2 0 10 42 95 
95 42 10 0 -2 -2 -3 -3 -3 -3 -3 -3 -3 -2 -2 0 11 45 106 144 119 65 24 5 0 -2 -2 -3 -3 -3 -3 -3 -2 -2 -2 -2 0 2 8 22 43 72 100 106 88 57 29 11 2 0 -2 -2 -2 -3 -3 -3 -3 -3 -3 -3 -3 -3 -3 -3 -3 -3 -3 -3 -3 -2 -2 -1 2 17 56 112 122 97 89 92 94 95 95 95 95 95 95 96 98 103 114 124 117 95 71 62 77 107 103 59 22 5 0 -2 -2 -2 0 10 42 95 
95 42 10 0 -2 -2 -3 -3 -3 -3 -3 -3 -3 -2 -2 0 10 42 103 137 95 41 12 1 -2 -2 -3 -3 -3 -3 -2 -2 -2 -2 -1 0 4 13 31 58 88 106 100 73 43 22 8 1 -1 -2 -2 -2 -3 -3 -3 -3 -3 -3 -3 -3 -3 -3 -3 -3 -3 -3 -3 -3 -3 -2 -2 -1 4 22 66 110 92 54 40 40 41 42 42 42 42 42 42 43 43 46 53 70 91 107 111 113 125 124 82 35 10 0 -2 -2 -2 -2 0 10 42 95 
95 42 10 0 -2 -2 -3 -3 -3 -3 -3 -3 -3 -2 -2 0 10 42 101 120 69 24 5 0 -2 -2 -3 -3 -2 -2 -2 -2 -1 0 2 8 21 43 73 102 109 91 61 33 15 5 0 -1 -2 -2 -2 -2 -2 -2 -3 -3 -3 -3 -3 -3 -3 -3 -3 -3 -3 -3 -3 -3 -3 -2 -2 0 6 31 80 108 68 28 13 10 10 10 10 10 10 10 10 10 11 12 15 25 42 65 93 121 144 127 70 26 6 0 -2 -2 -2 -2 0 10 42 95 
95 42 10 0 -2 -2 -3 -3 -3 -3 -3 -3 -3 -2 -2 0 11 43 98 105 52 15 1 -1 -2 -2 -2 -2 -2 -2 -1 0 3 8 16 32 58 92 119 118 89 58 34 18 9 3 1 0 -1 -2 -2 -2 -2 -2 -2 -2 -2 -2 -3 -3 -3 -3 -3 -3 -3 -3 -3 -3 -3 -2 -2 0 9 38 90 102 53 16 3 0 0 0 0 0 0 0 0 0 0 0 1 5 12 24 45 77 116 125 82 35 10 0 -2 -2 -2 -2 0 10 42 95 
95 42 10 0 -2 -2 -3 -3 -3 -3 -3 -3 -3 -2 -2 0 12 45 98 97 44 11 0 -2 -2 -2 -2 -1 0 1 4 11 21 34 51 76 109 137 142 118 85 61 46 34 23 15 10 7 3 1 0 0 0 -1 -2 -2 -2 -2 -2 -2 -2 -2 -2 -3 -3 -3 -3 -3 -3 -2 -2 0 10 42 94 97 45 12 1 -1 -2 -2 -2 -2 -2 -2 -2 -2 -2 -2 -1 0 1 5 15 35 71 108 103 59 22 5 0 -2 -2 -2 0 10 42 95 
95 42 10 0 -2 -2 -3 -3 -3 -3 -3 -3 -3 -2 -2 1 15 52 102 90 38 9 0 -2 -2 -1 0 1 5 12 23 40 61 82 99 112 119 122 125 122 110 100 92 80 64 50 41 31 22 15 11 9 6 3 1 0 0 -1 -2 -2 -2 -2 -2 -2 -2 -2 -2 -3 -3 -2 -2 0 12 45 97 94 42 10 0 -2 -2 -2 -2 -2 -2 -2 -2 -2 -2 -2 -2 -2 -2 0 3 12 35 75 107 88 43 14 2 -1 -2 -2 0 10 42 95 
95 42 10 0 -2 -2 -3 -3 -3 -3 -3 -3 -2 -2 -1 3 22 65 106 80 31 7 0 0 0 3 8 14 25 42 64 88 104 106 98 84 69 62 68 81 91 96 101 106 106 100 92 80 65 52 44 38 31 22 14 10 7 3 1 0 0 0 -1 -2 -2 -2 -2 -2 -2 -2 -1 1 15 52 101 89 38 9 0 -2 -2 -3 -3 -3 -3 -3 -3 -3 -3 -3 -3 -2 -2 -2 -1 3 15 44 88 106 72 31 8 0 -2 -2 0 10 42 95 
95 42 10 0 -2 -2 -3 -3 -3 -3 -3 -3 -2 -2 0 6 31 80 106 65 23 5 2 5 11 21 33 48 67 89 105 105 89 67 48 34 24 19 23 31 38 44 52 65 80 92 100 106 106 101 96 90 80 64 50 41 31 22 15 11 9 6 3 1 0 0 -1 -2 -2 -2 -1 4 22 65 106 80 31 6 0 -2 -2 -3 -3 -3 -3 -3 -3 -3 -3 -3 -3 -3 -2 -2 -2 0 5 22 58 100 100 58 22 5 0 -1 0 10 42 95 
95 42 10 0 -2 -2 -3 -3 -3 -3 -3 -3 -2 -2 0 9 38 90 102 54 19 9 13 23 40 61 82 97 106 104 88 64 42 25 14 8 4 3 4 6 9 11 15 22 31 41 50 64 80 90 96 101 106 106 100 92 80 65 52 44 38 31 22 14 10 7 3 1 0 0 1 8 32 80 106 65 22 3 -1 -2 -2 -3 -3 -3 -3 -3 -3 -3 -3 -3 -3 -3 -3 -3 -2 -2 0 8 31 72 106 88 44 15 2 0 0 10 42 95 
95 42 10 0 -2 -2 -3 -3 -3 -3 -3 -3 -2 -2 0 11 44 97 100 52 27 27 42 64 88 104 106 97 82 61 40 23 12 5 1 0 -1 -1 -1 0 0 0 1 3 7 10 14 22 31 38 44 52 65 80 92 100 106 106 101 96 90 80 64 50 41 31 22 15 11 10 9 15 42 92 102 52 15 1 -2 -2 -3 -3 -3 -3 -3 -3 -3 -3 -3 -3 -3 -3 -3 -3 -2 -2 -1 2 14 43 88 106 74 34 11 2 1 11 42 95 
95 42 10 0 -2 -2 -3 -3 -3 -3 -3 -3 -2 -1 1 15 52 105 105 66 54 67 89 105 105 89 67 48 33 21 11 4 1 0 -1 -2 -2 -2 -2 -2 -2 -2 -2 -1 0 0 1 3 6 9 11 15 22 31 41 50 64 80 90 96 101 106 106 100 92 80 65 52 44 39 34 35 57 102 99 45 12 0 -2 -2 -3 -3 -3 -3 -3 -3 -3 -3 -3 -3 -3 -3 -3 -3 -3 -2 -2 0 4 21 57 98 103 67 29 8 3 11 43 95 
95 42 10 0 -2 -2 -3 -3 -3 -3 -3 -2 -2 0 5 24 69 122 122 98 98 107 105 89 64 42 25 14 8 3 0 -1 -2 -2 -2 -2 -2 -2 -2 -2 -2 -2 -2 -2 -2 -2 -2 -1 0 0 0 1 3 7 10 14 22 31 38 44 52 65 80 92 100 106 106 101 96 91 82 76 90 120 100 43 10 0 -2 -2 -3 -3 -3 -3 -3 -3 -3 -3 -3 -3 -3 -3 -3 -3 -3 -3 -2 -2 0 8 29 67 103 99 57 22 8 13 43 96 
95 42 10 0 -2 -2 -3 -3 -3 -3 -3 -2 -2 1 12 41 95 141 138 121 107 88 64 41 23 12 5 1 0 -1 -2 -2 -2 -2 -3 -3 -3 -3 -3 -3 -3 -3 -3 -2 -2 -2 -2 -2 -2 -2 -2 -2 -1 0 0 1 3 6 9 11 15 22 31 41 50 64 80 90 96 101 108 115 128 142 103 42 10 0 -2 -2 -3 -3 -3 -3 -3 -3 -3 -3 -3 -3 -3 -3 -3 -3 -3 -3 -2 -2 -1 1 11 34 74 106 88 44 18 16 44 96 
95 42 10 0 -2 -2 -3 -3 -3 -3 -2 -2 0 5 24 65 116 129 109 85 61 40 23 12 5 1 0 -1 -2 -2 -2 -2 -3 -3 -3 -3 -3 -3 -3 -3 -3 -3 -3 -3 -3 -3 -3 -2 -2 -2 -2 -2 -2 -2 -2 -2 -1 0 0 0 1 3 7 10 14 22 31 38 44 52 67 89 118 139 103 42 10 0 -2 -2 -3 -3 -3 -3 -3 -3 -3 -3 -3 -3 -3 -3 -3 -3 -3 -3 -3 -2 -2 -1 2 15 44 88 106 75 38 25 47 96 
96 42 10 0 -2 -2 -3 -3 -3 -2 -2 -1 2 14 44 91 113 86 55 35 21 11 4 1 -1 -2 -2 -2 -2 -2 -3 -3 -3 -3 -3 -3 -3 -3 -3 -3 -3 -3 -3 -3 -3 -3 -3 -3 -3 -3 -3 -3 -2 -2 -2 -2 -2 -2 -2 -2 -2 -1 0 0 1 3 6 9 11 15 25 43 77 117 99 42 10 0 -2 -2 -3 -3 -3 -3 -3 -3 -3 -3 -3 -3 -3 -3 -3 -3 -3 -3 -3 -3 -2 -2 0 5 22 57 99 103 70 42 53 98 
96 42 10 0 -2 -2 -3 -3 -3 -2 -2 0 8 31 73 107 90 48 21 9 4 0 -1 -2 -2 -2 -2 -3 -3 -3 -3 -3 -3 -3 -3 -3 -3 -3 -3 -3 -3 -3 -3 -3 -3 -3 -3 -3 -3 -3 -3 -3 -3 -3 -3 -3 -2 -2 -2 -2 -2 -2 -2 -2 -2 -1 0 0 0 2 7 20 53 102 97 42 10 0 -2 -2 -3 -3 -3 -3 -3 -3 -3 -3 -3 -3 -3 -3 -3 -3 -3 -3 -3 -3 -3 -2 -2 0 8 29 67 103 101 70 66 102 
97 42 10 0 -2 -2 -3 -3 -2 -2 0 5 22 58 100 100 59 23 6 0 -1 -2 -2 -2 -2 -2 -3 -3 -3 -3 -3 -3 -3 -3 -3 -3 -3 -3 -3 -3 -3 -3 -3 -3 -3 -3 -3 -3 -3 -3 -3 -3 -3 -3 -3 -3 -3 -3 -3 -3 -3 -2 -2 -2 -2 -2 -2 -2 -2 -1 1 13 45 97 97 43 11 0 -2 -2 -3 -3 -3 -3 -3 -3 -3 -3 -3 -3 -3 -3 -3 -3 -3 -3 -3 -3 -3 -2 -2 -1 1 11 34 74 108 99 87 109 
98 42 10 0 -2 -2 -3 -2 -2 -1 2 15 44 88 106 73 32 9 0 -1 -2 -2 -2 -2 -2 -2 -2 -2 -2 -2 -3 -3 -3 -3 -3 -3 -3 -3 -3 -3 -3 -3 -3 -3 -3 -3 -3 -3 -3 -3 -3 -3 -3 -3 -3 -3 -3 -3 -3 -3 -3 -3 -3 -3 -3 -2 -2 -2 -2 -2 0 11 43 96 99 47 13 1 -1 -2 -2 -3 -3 -3 -3 -3 -3 -3 -3 -3 -3 -3 -3 -3 -3 -3 -3 -3 -3 -3 -2 -2 -1 2 15 44 89 115 112 121 
101 42 10 0 -2 -2 -2 -2 -1 2 12 35 75 108 90 46 16 3 0 -1 -2 -2 -2 -2 -2 -2 -2 -2 -2 -2 -2 -2 -2 -2 -2 -2 -2 -2 -2 -2 -2 -3 -3 -3 -3 -3 -3 -3 -3 -3 -3 -3 -3 -3 -3 -3 -3 -3 -3 -3 -3 -3 -3 -3 -3 -3 -2 -2 -2 -1 1 12 44 97 107 57 20 4 0 -1 -2 -2 -2 -3 -3 -3 -3 -3 -3 -3 -3 -3 -3 -3 -3 -3 -3 -3 -3 -3 -3 -2 -2 0 5 22 58 104 130 136 
103 41 10 0 -2 -2 -2 -1 1 11 32 69 108 109 70 34 14 6 2 0 0 0 0 0 0 0 0 0 0 -1 -2 -2 -2 -2 -2 -2 -2 -2 -2 -2 -2 -2 -2 -2 -2 -2 -2 -2 -2 -2 -2 -2 -2 -3 -3 -3 -3 -3 -3 -3 -3 -3 -3 -3 -3 -2 -2 -2 -1 0 6 20 53 105 125 83 39 16 5 1 -1 -2 -2 -2 -3 -3 -3 -3 -3 -3 -3 -3 -3 -3 -3 -3 -3 -3 -3 -3 -3 -3 -2 -2 0 8 31 73 123 144 
102 41 10 0 -2 -2 -1 1 11 32 69 113 130 106 72 49 34 22 15 12 11 10 10 10 10 10 10 9 6 3 1 0 0 0 0 0 0 0 0 0 -1 -2 -2 -2 -2 -2 -2 -2 -2 -2 -2 -2 -2 -2 -2 -2 -2 -2 -2 -2 -2 -2 -2 -2 -2 -2 -2 0 2 8 22 45 80 123 144 120 78 45 24 12 4 0 -1 -2 -2 -2 -3 -3 -3 -3 -3 -3 -3 -3 -3 -3 -3 -3 -3 -3 -3 -3 -2 -2 -1 2 14 44 97 137 
100 42 10 0 -1 -1 2 11 32 68 112 142 140 121 105 93 81 65 52 45 43 43 42 42 42 42 41 37 31 22 15 12 11 10 10 10 10 10 9 6 3 1 0 0 0 0 0 0 0 0 0 0 -1 -2 -2 -2 -2 -2 -2 -2 -2 -2 -2 -2 -2 -1 1 5 14 31 58 88 111 122 124 123 112 91 65 40 21 8 2 0 -2 -2 -2 -2 -3 -3 -3 -3 -3 -3 -3 -3 -3 -3 -3 -3 -3 -3 -3 -2 -2 0 5 25 70 120 
98 42 10 0 0 2 11 32 68 105 121 116 106 101 99 102 106 106 101 98 96 96 95 95 95 95 94 89 80 65 52 45 43 43 42 42 42 41 37 31 22 15 12 11 10 10 10 10 10 10 9 6 3 1 0 0 0 0 0 0 0 0 0 0 0 4 12 24 44 73 100 107 93 73 64 73 91 106 105 86 58 31 14 5 1 -1 -2 -2 -2 -3 -3 -3 -3 -3 -3 -3 -3 -3 -3 -3 -3 -3 -3 -3 -2 -1 2 16 53 106 
96 43 11 2 3 12 33 68 102 105 80 57 46 44 46 52 65 80 89 94 95 95 95 95 96 96 98 101 106 106 101 98 96 96 95 95 95 94 89 80 65 52 45 43 43 42 42 42 42 41 37 31 22 15 12 11 10 10 10 10 10 9 7 6 10 21 40 64 90 106 100 73 45 27 21 26 42 65 90 106 100 73 44 24 12 4 0 -1 -2 -2 -2 -3 -3 -3 -3 -3 -3 -3 -3 -3 -3 -3 -3 -3 -2 -2 0 12 46 99 
96 43 14 8 16 35 69 102 102 70 37 19 13 11 12 15 22 31 37 41 42 42 42 42 43 43 45 52 65 80 89 94 95 95 95 96 96 98 101 106 106 101 98 96 96 95 95 95 95 94 89 80 65 52 45 43 43 42 42 42 41 38 33 29 37 60 87 105 105 86 58 31 14 6 3 5 12 24 44 73 100 106 90 64 40 21 8 2 0 -2 -2 -2 -2 -3 -3 -3 -3 -3 -3 -3 -3 -3 -3 -3 -2 -2 0 11 43 96 
97 47 22 25 45 75 103 101 68 33 12 3 1 0 0 1 3 6 9 10 10 10 10 10 10 11 12 15 22 31 37 41 42 42 42 43 43 45 52 65 80 89 94 95 95 95 95 96 96 98 101 106 106 101 98 96 96 95 95 95 94 91 84 79 88 105 108 91 65 40 21 8 2 0 -1 0 1 5 14 31 58 86 105 105 86 58 31 14 5 1 -1 -2 -2 -2 -3 -3 -3 -3 -3 -3 -3 -3 -3 -3 -2 -2 0 10 43 96 
99 56 42 60 88 106 98 65 32 11 2 -1 -2 -2 -2 -2 -1 0 0 0 0 0 0 0 0 0 0 1 3 6 9 10 10 10 10 10 11 12 15 22 31 37 41 42 42 42 42 43 43 45 52 65 80 89 94 95 95 95 96 96 99 106 119 132 133 113 77 46 24 12 4 0 -1 -2 -2 -2 -2 0 2 8 21 40 64 90 106 100 73 44 24 12 4 0 -1 -2 -2 -2 -3 -3 -3 -3 -3 -3 -3 -3 -2 -2 0 10 42 96 
107 76 78 101 107 88 57 28 10 1 -1 -2 -2 -2 -2 -2 -2 -2 -2 -2 -2 -2 -2 -2 -2 -2 -2 -2 -1 0 0 0 0 0 0 0 0 0 1 3 6 9 10 10 10 10 10 10 11 12 15 22 31 37 41 42 42 42 43 44 48 61 93 135 133 83 39 16 6 1 -1 -2 -2 -2 -2 -2 -2 -2 -1 0 4 12 24 44 73 100 106 90 64 40 21 8 2 0 -2 -2 -2 -2 -3 -3 -3 -3 -3 -3 -2 -2 0 10 42 97 
122 108 111 104 75 44 22 8 1 -1 -2 -2 -3 -3 -3 -3 -2 -2 -2 -2 -2 -2 -2 -2 -2 -2 -2 -2 -2 -2 -2 -2 -2 -2 -2 -2 -2 -2 -2 -1 0 0 0 0 0 0 0 0 0 0 1 3 6 9 10 10 10 10 11 11 15 27 62 113 112 58 20 4 0 -1 -2 -2 -2 -3 -3 -3 -3 -2 -2 -2 -1 1 5 14 31 58 86 105 105 86 58 31 14 5 1 -1 -2 -2 -2 -2 -3 -3 -3 -3 -2 -2 0 10 42 99 
140 131 107 69 35 15 5 0 -1 -2 -2 -3 -3 -3 -3 -3 -3 -3 -3 -3 -3 -3 -3 -3 -3 -3 -3 -3 -2 -2 -2 -2 -2 -2 -2 -2 -2 -2 -2 -2 -2 -2 -2 -2 -2 -2 -2 -2 -2 -2 -2 -1 0 0 0 0 0 0 0 0 3 15 48 101 101 47 13 1 -1 -2 -2 -3 -3 -3 -3 -3 -3 -3 -2 -2 -2 -2 0 2 8 21 40 64 90 106 100 73 44 24 12 5 0 -1 -2 -2 -2 -3 -3 -3 -2 -2 0 10 42 102 
143 117 70 33 12 2 0 -2 -2 -2 -3 -3 -3 -3 -3 -3 -3 -3 -3 -3 -3 -3 -3 -3 -3 -3 -3 -3 -3 -3 -3 -3 -3 -3 -3 -3 -3 -3 -3 -2 -2 -2 -2 -2 -2 -2 -2 -2 -2 -2 -2 -2 -2 -2 -2 -2 -2 -2 -2 -1 0 11 44 97 97 43 11 0 -2 -2 -3 -3 -3 -3 -3 -3 -3 -3 -3 -3 -2 -2 -2 -1 0 4 12 24 44 73 100 106 90 65 41 23 11 4 0 -1 -2 -2 -2 -2 -2 -2 0 10 42 103 
126 82 36 12 2 -1 -2 -2 -2 -3 -3 -3 -3 -3 -3 -3 -3 -3 -3 -3 -3 -3 -3 -3 -3 -3 -3 -3 -3 -3 -3 -3 -3 -3 -3 -3 -3 -3 -3 -3 -3 -3 -3 -3 -3 -3 -3 -3 -3 -3 -3 -2 -2 -2 -2 -2 -2 -2 -2 -2 0 11 43 96 96 43 10 0 -2 -2 -3 -3 -3 -3 -3 -3 -3 -3 -3 -3 -3 -3 -2 -2 -2 -1 1 5 14 31 58 86 105 105 89 64 40 21 8 2 0 -1 -2 -2 -2 -2 0 10 42 101 
108 57 19 3 -1 -2 -2 -3 -3 -3 -3 -3 -3 -3 -3 -3 -3 -3 -3 -3 -3 -3 -3 -3 -3 -3 -3 -3 -3 -3 -3 -3 -3 -3 -3 -3 -3 -3 -3 -3 -3 -3 -3 -3 -3 -3 -3 -3 -3 -3 -3 -3 -3 -3 -3 -3 -3 -3 -2 -2 0 10 42 95 95 42 10 0 -2 -2 -3 -3 -3 -3 -3 -3 -3 -3 -3 -3 -3 -3 -3 -2 -2 -2 -2 0 2 8 21 40 64 89 105 105 86 58 31 14 5 1 0 0 -1 -1 0 11 42 98 
99 47 13 1 -2 -2 -2 -3 -3 -3 -3 -3 -3 -3 -3 -3 -3 -3 -3 -3 -3 -3 -3 -3 -3 -3 -3 -3 -3 -3 -3 -3 -3 -3 -3 -3 -3 -3 -3 -3 -3 -3 -3 -3 -3 -3 -3 -3 -3 -3 -3 -3 -3 -3 -3 -3 -3 -3 -2 -2 0 10 42 95 95 42 10 0 -2 -2 -3 -3 -3 -3 -3 -3 -3 -3 -3 -3 -3 -3 -3 -3 -3 -2 -2 -2 -1 0 4 11 23 42 65 91 108 101 73 44 25 15 10 7 4 2 3 13 44 97 
97 43 11 0 -2 -2 -2 -2 -2 -2 -3 -3 -3 -3 -3 -3 -3 -3 -3 -3 -3 -3 -3 -3 -3 -3 -3 -3 -3 -3 -3 -3 -3 -3 -3 -3 -3 -3 -3 -3 -3 -3 -3 -3 -3 -3 -3 -3 -3 -3 -3 -3 -3 -3 -3 -3 -3 -3 -2 -2 0 10 42 95 95 42 10 0 -2 -2 -3 -3 -3 -3 -3 -3 -3 -3 -3 -3 -3 -3 -3 -3 -3 -3 -2 -2 -2 -2 0 1 5 13 27 49 80 111 117 97 70 51 41 31 22 15 13 21 49 99 
98 43 11 0 -1 -2 -2 -2 -2 -2 -2 -2 -2 -2 -2 -2 -2 -2 -3 -3 -3 -3 -3 -3 -3 -3 -3 -3 -3 -3 -3 -3 -3 -3 -3 -3 -3 -3 -3 -3 -3 -3 -3 -3 -3 -3 -3 -3 -3 -3 -3 -3 -3 -3 -3 -3 -3 -3 -2 -2 0 10 42 95 95 42 10 0 -2 -2 -3 -3 -3 -3 -3 -3 -3 -3 -3 -3 -3 -3 -3 -3 -3 -3 -2 -2 -2 -2 -1 0 2 8 17 32 59 99 134 141 124 105 93 81 65 51 44 45 66 107 
102 45 13 3 0 0 0 0 0 -1 -2 -2 -2 -2 -2 -2 -2 -2 -2 -2 -2 -2 -2 -2 -2 -2 -2 -3 -3 -3 -3 -3 -3 -3 -3 -3 -3 -3 -3 -3 -3 -3 -3 -3 -3 -3 -3 -3 -3 -3 -3 -3 -3 -3 -3 -3 -3 -3 -2 -2 0 10 42 95 95 42 10 0 -2 -2 -3 -3 -3 -3 -3 -3 -3 -3 -3 -3 -3 -3 -3 -2 -2 -2 -2 -2 -1 0 1 5 12 22 36 53 78 109 130 127 113 104 103 107 106 101 95 92 102 125 
112 54 24 13 11 10 10 9 6 3 1 0 0 0 0 0 0 -1 -2 -2 -2 -2 -2 -2 -2 -2 -2 -2 -2 -2 -2 -2 -2 -2 -2 -3 -3 -3 -3 -3 -3 -3 -3 -3 -3 -3 -3 -3 -3 -3 -3 -3 -3 -3 -3 -3 -3 -3 -2 -2 0 10 42 95 95 42 10 0 -2 -2 -3 -3 -3 -3 -3 -3 -3 -3 -3 -3 -3 -2 -2 -2 -2 -2 -1 0 3 8 14 24 41 61 82 98 108 107 92 70 54 49 53 65 81 92 102 114 132 146 
128 81 54 45 43 42 41 37 31 22 15 12 11 10 10 9 6 3 1 0 0 0 0 0 0 0 -1 -2 -2 -2 -2 -2 -2 -2 -2 -2 -2 -2 -2 -2 -2 -2 -2 -2 -3 -3 -3 -3 -3 -3 -3 -3 -3 -3 -3 -3 -3 -3 -2 -2 0 10 42 95 95 42 10 0 -2 -2 -3 -3 -3 -3 -3 -3 -3 -3 -3 -2 -2 -2 -2 -1 0 1 5 11 21 33 48 67 89 104 106 97 82 61 41 24 16 13 15 22 31 41 53 74 109 143 
147 123 104 98 96 95 94 89 80 65 52 45 43 42 41 37 31 22 15 12 11 10 10 10 9 6 3 1 0 0 0 0 0 0 -1 -2 -2 -2 -2 -2 -2 -2 -2 -2 -2 -2 -2 -2 -2 -2 -2 -2 -3 -3 -3 -3 -3 -3 -2 -2 0 10 42 95 95 42 10 0 -2 -2 -3 -3 -3 -3 -3 -3 -2 -2 -2 -2 -2 -1 0 3 8 14 24 41 61 82 97 106 104 89 67 48 33 21 11 5 2 1 1 3 7 11 17 34 70 125 
143 123 105 98 96 96 98 101 106 106 101 98 96 95 94 89 80 65 52 45 43 42 42 41 37 31 22 15 12 11 10 10 9 6 3 1 0 0 0 0 0 0 0 -1 -2 -2 -2 -2 -2 -2 -2 -2 -2 -2 -2 -2 -2 -2 -2 -2 0 10 42 95 95 42 10 0 -2 -2 -3 -3 -3 -3 -2 -2 -2 -2 -1 0 1 4 11 21 33 48 67 89 104 106 97 82 61 41 24 14 8 3 0 -1 -1 -2 -1 -1 0 0 4 17 50 110 
119 81 55 45 43 43 45 52 65 80 89 94 95 96 98 101 106 106 101 98 96 95 95 94 89 80 65 52 45 43 42 41 37 31 22 15 12 11 10 10 10 9 6 3 1 0 0 0 0 0 0 -1 -2 -2 -2 -2 -2 -2 -2 -1 0 11 43 95 95 42 10 0 -2 -2 -2 -2 -2 -2 -2 -2 -1 0 1 5 12 23 40 61 82 97 106 104 89 67 48 33 21 11 5 1 0 -1 -2 -2 -2 -2 -2 -2 -2 -1 1 12 44 101 
103 55 24 14 11 11 12 15 22 31 37 41 42 43 45 52 65 80 89 94 95 95 96 98 101 106 106 101 98 96 95 94 89 80 65 52 45 43 42 42 41 37 31 22 15 12 11 10 10 9 6 3 1 0 0 0 0 0 0 0 1 11 43 96 96 43 10 0 -2 -2 -2 -2 -2 -2 -1 0 3 8 14 25 42 64 88 104 106 97 82 61 41 24 14 8 3 0 -1 -2 -2 -2 -2 -2 -3 -3 -3 -2 -2 -2 0 11 43 97 
97 45 14 3 0 0 0 1 3 6 9 10 10 11 12 15 22 31 37 41 42 42 43 45 52 65 80 89 94 95 96 98 101 106 106 101 98 96 95 95 94 89 80 65 52 45 43 42 41 37 31 22 15 12 11 10 10 10 9 7 7 15 46 98 97 43 11 0 -2 -2 -2 -1 0 1 5 11 21 34 48 67 89 105 105 89 67 48 34 21 11 5 1 0 -1 -2 -2 -2 -2 -2 -3 -3 -3 -3 -3 -3 -2 -2 0 10 42 96 
96 43 11 0 -1 -2 -2 -2 -1 0 0 0 0 0 0 1 3 6 9 10 10 10 11 12 15 22 31 37 41 42 43 45 52 65 80 89 94 95 95 96 98 101 106 106 101 98 96 95 94 89 80 65 52 45 43 42 42 41 38 31 25 29 56 104 101 47 13 1 -1 0 0 3 8 14 24 41 61 82 97 106 104 88 64 42 25 14 8 3 0 -1 -2 -2 -2 -2 -2 -3 -3 -3 -3 -3 -3 -3 -3 -3 -2 -2 0 10 42 95 
95 43 10 0 -2 -2 -2 -2 -2 -2 -2 -2 -2 -2 -2 -2 -1 0 0 0 0 0 0 0 1 3 6 9 10 10 11 12 15 22 31 37 41 42 42 43 45 52 65 80 89 94 95 96 98 101 106 106 101 98 96 95 95 94 89 80 67 64 84 122 114 58 20 6 3 5 11 21 34 48 67 89 104 106 97 82 61 40 23 12 5 1 0 -1 -2 -2 -2 -2 -2 -3 -3 -3 -3 -3 -3 -3 -3 -3 -3 -3 -2 -2 0 10 42 95 
95 42 10 0 -2 -2 -3 -3 -2 -2 -2 -2 -2 -2 -2 -2 -2 -2 -2 -2 -2 -2 -2 -2 -2 -1 0 0 0 0 0 0 1 3 6 9 10 10 10 11 12 15 22 31 37 41 42 43 45 52 65 80 89 94 95 95 96 98 101 107 108 109 121 143 133 83 41 22 18 25 41 61 82 97 106 104 89 67 48 33 21 11 4 1 0 -1 -2 -2 -2 -2 -3 -3 -3 -3 -3 -3 -3 -3 -3 -3 -3 -3 -3 -3 -2 -2 0 10 42 95 
95 42 10 0 -2 -2 -3 -3 -3 -3 -3 -3 -3 -3 -3 -3 -2 -2 -2 -2 -2 -2 -2 -2 -2 -2 -2 -2 -2 -2 -2 -2 -2 -1 0 0 0 0 0 0 0 1 3 6 9 10 10 11 12 15 22 31 37 41 42 42 43 45 52 65 80 91 102 116 127 114 83 61 57 69 89 104 106 97 82 61 41 24 14 8 3 0 -1 -2 -2 -2 -2 -2 -3 -3 -3 -3 -3 -3 -3 -3 -3 -3 -3 -3 -3 -3 -3 -3 -2 -2 0 10 42 95 
95 42 10 0 -2 -2 -3 -3 -3 -3 -3 -3 -3 -3 -3 -3 -3 -3 -3 -3 -3 -3 -3 -3 -2 -2 -2 -2 -2 -2 -2 -2 -2 -2 -2 -2 -2 -2 -2 -2 -2 -2 -1 0 0 0 0 0 0 1 3 6 9 10 10 10 11 12 15 22 31 38 45 57 82 114 128 120 111 110 105 89 67 48 34 21 11 5 1 0 -1 -2 -2 -2 -2 -2 -3 -3 -3 -3 -3 -3 -3 -3 -3 -3 -3 -3 -3 -3 -3 -3 -3 -3 -2 -2 0 10 42 95 
95 43 10 0 -2 -2 -2 -2 -2 -2 -2 -2 -2 -2 -2 -2 -2 -2 -2 -2 -2 -2 -2 -2 -2 -2 -2 -2 -2 -2 -2 -2 -2 -2 -2 -2 -2 -2 -2 -2 -2 -2 -2 -2 -2 -2 -2 -2 -2 -1 -1 0 0 0 0 0 0 0 1 3 7 9 12 20 41 83 133 142 115 87 63 41 25 14 8 3 0 0 -1 -2 -2 -2 -2 -2 -2 -2 -2 -2 -2 -2 -2 -2 -2 -2 -2 -2 -2 -2 -2 -2 -2 -2 -2 -2 -2 -2 0 10 43 95 
96 43 11 0 -1 -2 -2 -2 -2 -2 -2 -2 -2 -2 -2 -2 -2 -2 -2 -2 -2 -2 -2 -2 -2 -2 -2 -2 -2 -2 -2 -2 -2 -2 -2 -2 -2 -2 -2 -2 -2 -2 -2 -2 -2 -2 -2 -2 -2 -2 -2 -1 -1 -1 -1 -1 -1 -1 -1 0 0 0 2 6 21 58 114 121 77 43 24 12 5 2 0 0 -1 -1 -2 -2 -2 -2 -2 -2 -2 -2 -2 -2 -2 -2 -2 -2 -2 -2 -2 -2 -2 -2 -2 -2 -2 -2 -2 -2 -2 -1 0 11 43 96 
98 45 14 3 0 0 0 0 0 0 0 0 0 0 0 0 0 0 0 0 0 0 0 0 0 0 0 0 0 0 0 0 0 0 0 0 0 0 0 0 0 0 0 0 0 0 0 0 0 0 0 0 0 0 0 0 0 0 0 0 0 0 1 4 16 50 103 106 56 23 9 4 2 1 0 0 0 0 0 0 0 0 0 0 0 0 0 0 0 0 0 0 0 0 0 0 0 0 0 0 0 0 0 0 0 0 3 14 45 98 
104 55 24 14 11 10 10 10 10 10 10 10 10 10 10 10 10 10 10 10 10 10 10 10 10 10 10 10 10 10 10 10 10 10 10 10 10 10 10 10 10 10 10 10 10 10 10 10 10 10 10 10 10 10 10 10 10 10 10 10 10 11 11 14 24 56 106 107 57 26 15 12 11 11 10 10 10 10 10 10 10 10 10 10 10 10 10 10 10 10 10 10 10 10 10 10 10 10 10 10 10 10 10 10 10 11 13 24 55 104 
124 81 55 45 43 43 42 42 42 42 42 42 42 42 42 42 42 42 42 42 42 42 42 42 42 42 42 42 42 42 42 42 42 42 42 42 42 42 42 42 42 42 42 42 42 42 42 42 42 42 42 42 42 42 42 42 42 42 42 42 42 43 43 45 55 81 123 123 82 55 46 43 43 42 42 42 42 42 42 42 42 42 42 42 42 42 42 42 42 42 42 42 42 42 42 42 42 42 42 42 42 42 42 42 42 42 45 54 81 124 
154 124 104 98 96 95 95 95 95 95 95 95 95 95 95 95 95 95 95 95 95 95 95 95 95 95 95 95 95 96 97 99 102 103 101 98 96 96 95 95 95 95 95 95 95 95 96 97 99 103 103 99 97 96 95 95 95 95 95 95 95 95 96 97 103 118 141 141 118 103 97 96 95 95 95 95 95 95 95 95 95 95 95 95 95 95 95 95 96 96 98 101 103 101 98 96 96 95 95 95 96 96 98 101 104 102 100 105 124 154 
