P2
110 110
255
155 122 102 97 95 95 95 95 95 95 95 95 95 95 95 95 95 95 95 95 95 95 95 95 95 95 95 95 95 97 102 117 139 147 128 108 98 96 95 95 95 95 95 95 95 95 96 101 117 143 142 117 101 96 95 95 95 95 95 95 95 95 95 95 96 99 103 103 99 96 95 95 95 95 95 95 95 95 95 95 95 95 95 95 95 95 95 95 96 100 111 134 148 130 108 99 96 95 95 95 96 99 109 132 148 131 110 106 122 155 
122 74 48 40 38 38 38 38 38 38 38 38 38 38 38 38 38 38 38 38 38 38 38 38 38 38 38 38 39 44 59 93 129 118 78 52 41 39 38 38 38 38 38 38 38 38 40 49 77 124 121 74 48 40 38 38 38 38 38 38 38 38 38 38 38 38 38 38 38 38 38 38 38 38 38 38 38 38 38 38 38 38 38 38 38 38 38 39 41 50 76 119 126 85 54 42 39 38 38 38 40 46 68 112 129 88 57 52 75 122 
102 48 18 10 8 7 7 7 7 7 7 7 7 7 7 7 7 7 7 7 7 7 7 7 7 7 7 8 11 22 50 97 113 73 33 15 9 8 7 7 7 7 7 7 7 8 11 23 58 113 105 48 18 10 8 7 7 7 7 7 7 7 7 7 7 7 7 7 7 7 7 7 7 7 7 7 7 7 7 7 7 7 7 7 7 7 7 8 13 28 69 113 93 44 18 10 8 7 7 8 10 18 48 101 106 54 23 21 49 103 
97 40 10 1 0 -1 -1 -1 -1 -1 -1 -1 -1 -1 -1 -1 -1 -1 -1 -1 -1 -1 -1 -1 -1 -1 0 1 8 29 71 109 88 40 12 2 0 -1 -1 -1 -1 -1 -1 -1 -1 0 5 22 67 124 102 40 9 1 0 -1 -1 -1 -1 -1 -1 -1 -1 -1 -1 -1 -1 -1 -1 -1 -1 -1 -1 -1 -1 -1 -1 -1 -1 -1 -1 -1 -1 -1 -1 -1 0 0 7 32 83 109 64 22 4 0 -1 -1 -1 0 2 13 48 102 93 38 12 12 41 97 
95 38 8 0 -2 -3 -3 -3 -3 -3 -3 -3 -3 -3 -3 -3 -3 -3 -3 -3 -3 -3 -3 -3 -3 -2 -1 2 18 55 101 101 55 18 2 -1 -2 -3 -3 -3 -3 -3 -3 -3 -2 0 9 37 94 141 103 38 7 0 -2 -3 -3 -3 -3 -3 -3 -3 -3 -3 -3 -3 -3 -3 -3 -3 -3 -3 -3 -3 -3 -3 -3 -3 -3 -3 -3 -3 -3 -3 -3 -3 -2 0 11 44 97 97 44 11 0 -2 -3 -3 -3 -2 2 18 61 108 80 28 7 9 39 95 
95 38 7 -1 -3 -3 -3 -3 -3 -3 -3 -3 -3 -3 -3 -3 -3 -3 -3 -3 -3 -3 -3 -3 -3 -2 0 10 39 87 107 69 27 5 -1 -3 -3 -3 -3 -3 -3 -3 -3 -3 -2 2 19 61 120 147 103 38 7 -1 -3 -3 -3 -3 -3 -3 -3 -3 -3 -3 -3 -3 -3 -3 -3 -3 -3 -3 -3 -3 -3 -3 -3 -3 -3 -3 -3 -3 -3 -3 -3 -3 -2 2 20 63 108 81 30 5 -1 -3 -3 -3 -3 -1 4 28 79 108 61 18 4 8 38 95 
95 38 7 -1 -3 -3 -3 -3 -3 -3 -3 -3 -3 -3 -3 -3 -3 -3 -3 -3 -3 -3 -3 -3 -3 -1 5 27 69 107 87 39 10 0 -2 -3 -3 -3 -3 -3 -3 -3 -3 -3 0 8 37 90 130 138 103 40 8 -1 -3 -3 -3 -3 -3 -3 -3 -3 -3 -3 -3 -3 -3 -3 -3 -3 -3 -3 -3 -3 -3 -3 -3 -3 -3 -3 -3 -3 -3 -3 -3 -3 0 8 37 88 106 58 17 1 -2 -3 -3 -3 -3 -1 7 36 92 100 46 11 2 8 38 95 
95 38 7 -1 -3 -3 -3 -3 -3 -3 -3 -3 -3 -3 -3 -3 -3 -3 -3 -3 -3 -3 -3 -3 -2 2 18 55 101 101 55 18 2 -2 -3 -3 -3 -3 -3 -3 -3 -3 -3 -2 3 20 61 110 118 121 105 47 11 0 -3 -3 -3 -3 -3 -3 -3 -3 -3 -3 -3 -3 -3 -3 -3 -3 -3 -3 -3 -3 -3 -3 -3 -3 -3 -3 -3 -3 -3 -3 -3 -2 1 17 58 106 88 37 8 0 -3 -3 -3 -3 -3 0 11 46 100 92 37 7 1 8 38 95 
95 38 7 -1 -3 -3 -3 -3 -3 -3 -3 -3 -3 -3 -3 -3 -3 -3 -3 -3 -3 -3 -3 -2 0 10 39 87 107 69 27 5 -1 -3 -3 -3 -3 -3 -3 -3 -3 -3 -2 0 11 40 89 111 89 99 111 61 18 1 -2 -3 -3 -3 -3 -3 -3 -3 -3 -3 -3 -3 -3 -3 -3 -3 -3 -3 -3 -3 -3 -3 -3 -3 -3 -3 -3 -3 -3 -3 -3 -1 5 30 81 108 63 20 2 -2 -3 -3 -3 -3 -2 1 18 61 107 79 28 5 0 8 38 95 
95 38 7 -1 -3 -3 -3 -3 -3 -3 -3 -3 -3 -3 -3 -3 -3 -3 -3 -3 -3 -3 -3 -1 5 27 69 107 87 39 10 0 -2 -3 -3 -3 -3 -3 -3 -3 -3 -3 -1 5 27 70 108 90 57 72 109 79 27 4 -1 -3 -3 -3 -3 -3 -3 -3 -3 -3 -3 -3 -3 -3 -3 -3 -3 -3 -3 -3 -3 -3 -3 -3 -3 -3 -3 -3 -3 -3 -2 0 10 44 97 97 44 10 0 -2 -3 -3 -3 -3 -1 4 28 79 107 61 18 2 0 7 38 95 
95 38 7 -1 -3 -3 -3 -3 -3 -3 -3 -3 -3 -3 -3 -3 -3 -3 -3 -3 -3 -3 -2 2 18 55 101 101 55 18 2 -2 -3 -3 -3 -3 -3 -3 -3 -3 -3 -2 2 17 55 101 101 58 32 52 102 89 34 6 -1 -3 -3 -3 -3 -3 -3 -3 -3 -3 -3 -3 -3 -3 -3 -3 -3 -3 -3 -3 -3 -3 -3 -3 -3 -3 -3 -3 -3 -3 -2 2 20 63 108 81 30 5 -1 -3 -3 -3 -3 -3 -1 7 36 92 100 46 11 0 0 7 38 95 
96 39 8 -1 -3 -3 -3 -3 -3 -3 -3 -3 -3 -3 -3 -3 -3 -3 -3 -3 -3 -2 0 10 39 87 107 69 27 5 -1 -3 -3 -3 -3 -3 -3 -3 -3 -3 -3 0 8 36 86 108 70 29 18 43 97 94 37 7 -1 -3 -3 -3 -3 -3 -3 -3 -3 -3 -3 -3 -3 -3 -3 -3 -3 -3 -3 -3 -3 -3 -3 -3 -3 -3 -3 -3 -3 -3 0 8 37 88 106 58 17 1 -2 -3 -3 -3 -3 -3 0 11 46 100 92 36 7 0 0 7 38 95 
98 41 9 0 -3 -3 -3 -3 -3 -3 -3 -3 -3 -3 -3 -3 -3 -3 -3 -3 -3 -1 5 27 69 107 87 39 10 0 -2 -3 -3 -3 -3 -3 -3 -3 -3 -3 -2 2 19 61 106 89 40 13 11 39 95 95 38 7 -1 -3 -3 -3 -3 -3 -3 -3 -3 -3 -3 -3 -3 -3 -3 -3 -3 -3 -3 -3 -3 -3 -3 -3 -3 -3 -3 -3 -3 -2 1 17 58 106 88 37 8 0 -3 -3 -3 -3 -3 -2 1 18 61 107 79 28 4 -1 0 7 38 96 
108 51 14 1 -2 -3 -3 -3 -3 -3 -3 -3 -3 -3 -3 -3 -3 -3 -3 -3 -2 2 18 55 101 101 55 18 2 -2 -3 -3 -3 -3 -3 -3 -3 -3 -3 -3 0 9 37 88 106 61 20 5 8 37 94 97 40 8 0 -3 -3 -3 -3 -3 -3 -3 -3 -3 -3 -3 -3 -3 -3 -3 -3 -3 -3 -3 -3 -3 -3 -3 -3 -3 -3 -3 -3 -1 5 30 81 108 63 20 2 -2 -3 -3 -3 -3 -3 -1 4 28 79 107 61 18 1 -2 -1 7 38 97 
128 77 31 8 0 -2 -3 -3 -3 -3 -3 -3 -3 -3 -3 -3 -3 -3 -3 -2 0 10 39 87 107 69 27 5 -1 -3 -3 -3 -3 -3 -3 -3 -3 -3 -3 -2 3 20 61 106 88 37 9 1 7 34 89 101 47 11 0 -3 -3 -3 -3 -3 -3 -3 -3 -3 -3 -3 -3 -3 -3 -3 -3 -3 -3 -3 -3 -3 -3 -3 -3 -3 -3 -3 -2 0 10 44 97 97 44 10 0 -2 -3 -3 -3 -3 -3 -1 7 36 92 100 46 11 0 -2 -1 7 38 101 
147 117 66 28 7 0 -2 -3 -3 -3 -3 -3 -3 -3 -3 -3 -3 -3 -3 -1 5 27 69 107 87 39 10 0 -2 -3 -3 -3 -3 -3 -3 -3 -3 -3 -2 0 11 40 89 106 61 19 2 0 4 27 79 108 61 18 1 -2 -3 -3 -3 -3 -3 -3 -3 -3 -3 -3 -3 -3 -3 -3 -3 -3 -3 -3 -3 -3 -3 -3 -3 -3 -3 -3 -2 2 20 63 108 81 30 5 -1 -3 -3 -3 -3 -3 -3 0 11 46 100 92 36 7 -1 -2 -1 7 38 103 
140 130 106 63 24 5 -1 -3 -3 -3 -3 -3 -3 -3 -3 -3 -3 -3 -2 2 18 55 101 101 55 18 2 -2 -3 -3 -3 -3 -3 -3 -3 -3 -3 -3 -1 5 27 69 108 86 36 8 0 -2 1 18 61 108 79 27 4 -1 -3 -3 -3 -3 -3 -3 -3 -3 -3 -3 -3 -3 -3 -3 -3 -3 -3 -3 -3 -3 -3 -3 -3 -3 -3 -3 0 8 37 88 106 58 17 1 -2 -3 -3 -3 -3 -3 -2 1 18 61 107 79 28 4 -1 -2 -1 7 38 101 
119 103 112 100 54 18 2 -2 -3 -3 -3 -3 -3 -3 -3 -3 -3 -2 0 10 39 87 107 69 27 5 -1 -3 -3 -3 -3 -3 -3 -3 -3 -3 -3 -2 2 17 55 101 101 55 17 2 -2 -2 0 11 47 101 89 34 6 -1 -3 -3 -3 -3 -3 -3 -3 -3 -3 -3 -3 -3 -3 -3 -3 -3 -3 -3 -3 -3 -3 -3 -3 -3 -3 -2 1 17 58 106 88 37 8 0 -3 -3 -3 -3 -3 -3 -1 4 28 79 107 61 18 1 -2 -3 -1 7 38 98 
105 71 81 109 87 40 11 0 -2 -3 -3 -3 -3 -3 -3 -3 -3 -1 5 27 69 107 87 39 10 0 -2 -3 -3 -3 -3 -3 -3 -3 -3 -3 -3 0 8 36 86 108 69 27 5 -1 -3 -3 0 8 40 97 94 37 7 -1 -3 -3 -3 -3 -3 -3 -3 -3 -3 -3 -3 -3 -3 -3 -3 -3 -3 -3 -3 -3 -3 -3 -3 -3 -3 -1 5 30 81 108 63 20 2 -2 -3 -3 -3 -3 -3 -3 -1 7 36 92 100 46 11 0 -2 -3 -1 7 38 96 
99 53 50 89 108 71 30 8 0 -2 -3 -3 -3 -3 -3 -3 -2 2 18 55 101 101 55 18 2 -2 -3 -3 -3 -3 -3 -3 -3 -3 -3 -3 -2 2 19 61 106 89 40 11 0 -2 -3 -3 -1 7 38 95 95 38 7 -1 -3 -3 -3 -3 -3 -3 -3 -3 -3 -3 -3 -3 -3 -3 -3 -3 -3 -3 -3 -3 -3 -3 -3 -3 -2 0 10 44 97 97 44 10 0 -2 -3 -3 -3 -3 -3 -3 0 11 46 100 92 36 7 -1 -3 -3 -1 7 38 95 
96 44 29 56 100 104 66 28 8 0 -2 -3 -3 -3 -3 -2 0 10 39 87 107 69 27 5 -1 -3 -3 -3 -3 -3 -3 -3 -3 -3 -3 -3 0 9 37 88 106 61 20 3 -2 -3 -3 -3 -1 7 37 94 97 40 8 0 -3 -3 -3 -3 -3 -3 -3 -3 -3 -3 -3 -3 -3 -3 -3 -3 -3 -3 -3 -3 -3 -3 -3 -3 -2 2 20 63 108 81 30 5 -1 -3 -3 -3 -3 -3 -3 -2 1 18 61 107 79 28 4 -1 -3 -3 -1 7 38 95 
95 40 16 27 63 102 103 65 28 8 0 -2 -3 -3 -3 -1 5 27 69 107 87 39 10 0 -2 -3 -3 -3 -3 -3 -3 -3 -3 -3 -3 -2 3 20 61 106 88 37 9 0 -3 -3 -3 -3 -1 6 34 89 101 47 11 0 -3 -3 -3 -3 -3 -3 -3 -3 -3 -3 -3 -3 -3 -3 -3 -3 -3 -3 -3 -3 -3 -3 -3 -3 0 8 37 88 106 58 17 1 -2 -3 -3 -3 -3 -3 -3 -1 4 28 79 107 61 18 1 -2 -3 -3 -1 7 38 95 
95 39 10 9 28 65 103 103 65 28 8 0 -2 -3 -2 2 18 55 101 101 55 18 2 -2 -3 -3 -3 -3 -3 -3 -3 -3 -3 -3 -2 0 11 40 89 106 61 19 2 -2 -3 -3 -3 -3 -1 4 27 79 108 61 18 1 -2 -3 -3 -3 -3 -3 -3 -3 -3 -3 -3 -3 -3 -3 -3 -3 -3 -3 -3 -3 -3 -3 -3 -2 1 17 58 106 88 37 8 0 -3 -3 -3 -3 -3 -3 -3 -1 7 36 92 100 46 11 0 -3 -3 -3 -1 7 38 95 
95 38 8 2 8 28 65 103 103 65 28 8 0 -1 0 10 39 87 107 69 27 5 -1 -3 -3 -3 -3 -3 -3 -3 -3 -3 -3 -3 -1 5 27 69 108 86 36 8 0 -3 -3 -3 -3 -3 -2 1 18 61 108 79 27 4 -1 -3 -3 -3 -3 -3 -3 -3 -3 -3 -3 -3 -3 -3 -3 -3 -3 -3 -3 -3 -3 -3 -3 -1 5 30 81 108 63 20 2 -2 -3 -3 -3 -3 -3 -3 -3 0 11 46 100 92 36 7 -1 -3 -3 -3 -1 7 38 95 
95 38 7 0 0 8 28 65 103 103 65 28 8 2 6 27 69 107 87 39 10 0 -2 -3 -3 -3 -3 -3 -3 -3 -3 -3 -3 -2 2 17 55 101 101 55 17 2 -2 -3 -3 -3 -3 -3 -3 0 11 47 101 89 34 6 -1 -3 -3 -3 -3 -3 -3 -3 -3 -3 -3 -3 -3 -3 -3 -3 -3 -3 -3 -3 -3 -3 -2 0 10 44 97 97 44 10 0 -2 -3 -3 -3 -3 -3 -3 -2 1 18 61 107 79 28 4 -1 -3 -3 -3 -1 7 38 95 
95 38 7 -1 -2 0 8 28 65 103 103 65 29 14 21 56 101 101 55 18 2 -2 -3 -3 -3 -3 -3 -3 -3 -3 -3 -3 -3 0 8 36 86 108 69 27 5 -1 -3 -3 -3 -3 -3 -3 -3 -1 8 40 97 94 37 7 -1 -3 -3 -3 -3 -3 -3 -3 -3 -3 -3 -3 -3 -3 -3 -3 -3 -3 -3 -3 -3 -3 -2 2 20 63 108 81 30 5 -1 -3 -3 -3 -3 -3 -3 -3 -1 4 28 79 107 61 18 1 -2 -3 -3 -3 -1 7 38 95 
95 38 7 -1 -3 -2 0 8 28 65 103 103 68 42 50 90 108 69 27 5 -1 -3 -3 -3 -3 -3 -3 -3 -3 -3 -3 -3 -2 2 19 61 106 89 40 11 0 -2 -3 -3 -3 -3 -3 -3 -3 -1 7 37 94 97 40 8 -1 -3 -3 -3 -3 -3 -3 -3 -3 -3 -3 -3 -3 -3 -3 -3 -3 -3 -3 -3 -3 -3 0 8 37 88 106 58 17 1 -2 -3 -3 -3 -3 -3 -3 -3 -1 7 36 92 100 46 11 0 -3 -3 -3 -3 -1 7 38 95 
95 38 7 -1 -3 -3 -2 0 8 28 65 104 109 91 95 113 88 39 10 0 -2 -3 -3 -3 -3 -3 -3 -3 -3 -3 -3 -3 0 9 37 88 106 61 20 3 -2 -3 -3 -3 -3 -3 -3 -3 -3 -1 6 34 89 101 47 11 0 -3 -3 -3 -3 -3 -3 -3 -3 -3 -3 -3 -3 -3 -3 -3 -3 -3 -3 -3 -3 -2 1 17 58 106 88 37 8 0 -3 -3 -3 -3 -3 -3 -3 -3 0 11 46 100 92 36 7 -1 -3 -3 -3 -3 -1 7 38 95 
95 38 7 -1 -3 -3 -3 -2 0 8 28 66 111 136 136 107 55 18 2 -2 -3 -3 -3 -3 -3 -3 -3 -3 -3 -3 -3 -2 3 20 61 106 88 37 9 0 -3 -3 -3 -3 -3 -3 -3 -3 -3 -1 4 27 79 108 61 18 1 -2 -3 -3 -3 -3 -3 -3 -3 -3 -3 -3 -3 -3 -3 -3 -3 -3 -3 -3 -3 -1 5 30 81 108 63 20 2 -2 -3 -3 -3 -3 -3 -3 -3 -2 1 18 61 107 79 28 4 -1 -3 -3 -3 -3 -1 7 38 95 
95 38 7 -1 -3 -3 -3 -3 -2 0 8 31 77 133 133 76 28 6 -1 -3 -3 -3 -3 -3 -3 -3 -3 -3 -3 -3 -2 0 11 40 89 106 61 19 2 -2 -3 -3 -3 -3 -3 -3 -3 -3 -3 -2 1 18 61 108 79 27 4 -1 -3 -3 -3 -3 -3 -3 -3 -3 -3 -3 -3 -3 -3 -3 -3 -3 -3 -3 -2 0 10 44 97 97 44 10 0 -2 -3 -3 -3 -3 -3 -3 -3 -1 4 28 79 107 61 18 1 -2 -3 -3 -3 -3 -1 7 38 95 
95 38 7 -1 -3 -3 -3 -3 -3 -2 1 14 50 109 113 53 15 1 -2 -3 -3 -3 -3 -3 -3 -3 -3 -3 -3 -3 -1 5 27 69 108 86 36 8 0 -3 -3 -3 -3 -3 -3 -3 -3 -3 -3 -3 0 11 47 101 89 34 6 -1 -3 -3 -3 -3 -3 -3 -3 -3 -3 -3 -3 -3 -3 -3 -3 -3 -3 -3 -2 2 20 63 108 81 30 5 -1 -3 -3 -3 -3 -3 -3 -3 -3 -1 7 36 92 100 46 11 0 -3 -3 -3 -3 -3 -1 7 38 95 
95 38 7 -1 -3 -3 -3 -3 -3 -3 0 8 37 94 105 50 13 0 -2 -3 -3 -3 -3 -3 -3 -3 -3 -3 -3 -2 2 17 55 101 101 55 17 2 -2 -3 -3 -3 -3 -3 -3 -3 -3 -3 -3 -3 0 8 40 97 94 37 7 -1 -3 -3 -3 -3 -3 -3 -3 -3 -3 -3 -3 -3 -3 -3 -3 -3 -3 -3 0 8 37 88 106 58 17 1 -2 -3 -3 -3 -3 -3 -3 -3 -3 0 11 46 100 92 36 7 -1 -3 -3 -3 -3 -3 -1 7 38 95 
95 38 7 -1 -3 -3 -3 -3 -3 -3 -1 4 28 80 108 62 18 1 -2 -3 -3 -3 -3 -3 -3 -3 -3 -3 -3 0 8 36 86 108 69 27 5 -1 -3 -3 -3 -3 -3 -3 -3 -3 -3 -3 -3 -3 -1 7 38 95 95 38 7 -1 -3 -3 -3 -3 -3 -3 -3 -3 -3 -3 -3 -3 -3 -3 -3 -3 -3 -2 1 17 58 106 88 37 8 0 -3 -3 -3 -3 -3 -3 -3 -3 -2 1 18 61 107 79 28 4 -1 -3 -3 -3 -3 -3 -1 7 38 95 
95 38 7 -1 -3 -3 -3 -3 -3 -3 -2 1 18 61 108 79 27 4 -1 -3 -3 -3 -3 -3 -3 -3 -3 -3 -2 2 19 61 106 89 40 11 0 -2 -3 -3 -3 -3 -3 -3 -3 -3 -3 -3 -3 -3 -1 7 37 94 97 40 8 0 -3 -3 -3 -3 -3 -3 -3 -3 -3 -3 -3 -3 -3 -3 -3 -3 -3 -1 5 30 81 108 63 20 2 -2 -3 -3 -3 -3 -3 -3 -3 -3 -1 4 28 79 107 61 18 1 -2 -3 -3 -3 -3 -3 -1 7 38 95 
95 38 7 -1 -3 -3 -3 -3 -3 -3 -3 0 11 47 101 90 34 6 -1 -3 -3 -3 -3 -3 -3 -3 -3 -3 0 9 37 88 106 61 20 3 -2 -3 -3 -3 -3 -3 -3 -3 -3 -3 -3 -3 -3 -3 -1 6 34 89 101 47 11 0 -3 -3 -3 -3 -3 -3 -3 -3 -3 -3 -3 -3 -3 -3 -3 -3 -2 0 10 44 97 97 44 10 0 -2 -3 -3 -3 -3 -3 -3 -3 -3 -1 7 36 92 100 46 11 0 -3 -3 -3 -3 -3 -3 -1 7 39 96 
96 38 7 -1 -3 -3 -3 -3 -3 -3 -3 -1 8 39 95 95 39 8 -1 -3 -3 -3 -3 -3 -3 -3 -3 -2 3 20 61 106 88 37 9 0 -3 -3 -3 -3 -3 -3 -3 -3 -3 -3 -3 -3 -3 -3 -1 4 27 79 108 61 18 1 -2 -3 -3 -3 -3 -3 -3 -3 -3 -3 -3 -3 -3 -3 -3 -3 -2 2 20 63 108 81 30 5 -1 -3 -3 -3 -3 -3 -3 -3 -3 -3 0 11 46 100 92 36 7 -1 -3 -3 -3 -3 -3 -3 0 8 41 98 
97 38 7 -1 -3 -3 -3 -3 -3 -3 -3 -1 6 34 90 101 47 11 0 -3 -3 -3 -3 -3 -3 -3 -2 0 11 40 89 106 61 19 2 -2 -3 -3 -3 -3 -3 -3 -3 -3 -3 -3 -3 -3 -3 -3 -2 1 18 61 108 79 27 4 -1 -3 -3 -3 -3 -3 -3 -3 -3 -3 -3 -3 -3 -3 -3 -3 0 8 37 88 106 58 17 1 -2 -3 -3 -3 -3 -3 -3 -3 -3 -2 1 18 61 107 79 28 4 -1 -3 -3 -3 -3 -3 -2 0 12 48 106 
100 38 7 -1 -3 -3 -3 -3 -3 -3 -3 -1 4 27 79 108 61 18 1 -2 -3 -3 -3 -3 -3 -3 -1 5 27 69 108 86 36 8 0 -3 -3 -3 -3 -3 -3 -3 -3 -3 -3 -3 -3 -3 -3 -3 -3 0 11 47 101 89 34 6 -1 -3 -3 -3 -3 -3 -3 -3 -3 -3 -3 -3 -3 -3 -3 -2 1 17 58 106 88 37 8 0 -3 -3 -3 -3 -3 -3 -3 -3 -3 -1 4 28 79 107 61 18 1 -2 -3 -3 -3 -3 -3 -2 3 21 66 123 
103 37 7 -1 -3 -3 -3 -3 -3 -3 -3 -2 1 18 61 108 79 27 4 -1 -3 -3 -3 -3 -3 -2 2 17 55 101 101 55 17 2 -2 -3 -3 -3 -3 -3 -3 -3 -3 -3 -3 -3 -3 -3 -3 -3 -3 0 8 40 97 94 37 7 -1 -3 -3 -3 -3 -3 -3 -3 -3 -3 -3 -3 -3 -3 -3 -1 5 30 81 108 63 20 2 -2 -3 -3 -3 -3 -3 -3 -3 -3 -3 -1 7 36 92 100 46 11 0 -3 -3 -3 -3 -3 -2 0 10 40 95 141 
102 37 7 -1 -3 -3 -3 -3 -3 -3 -3 -3 0 11 47 101 90 34 6 -1 -3 -3 -3 -3 -3 0 8 36 86 108 69 27 5 -1 -3 -3 -3 -3 -3 -3 -3 -3 -3 -3 -3 -3 -3 -3 -3 -3 -3 -1 7 38 95 95 38 7 -1 -3 -3 -3 -3 -3 -3 -3 -3 -3 -3 -3 -3 -3 -2 0 10 44 97 97 44 10 0 -2 -3 -3 -3 -3 -3 -3 -3 -3 -3 0 11 46 100 92 36 7 -1 -3 -3 -3 -3 -3 -1 5 27 70 123 147 
100 38 7 -1 -3 -3 -3 -3 -3 -3 -3 -3 -1 8 39 95 95 39 8 -1 -3 -3 -3 -3 -2 2 19 61 106 89 40 11 0 -2 -3 -3 -3 -3 -3 -3 -3 -3 -3 -3 -3 -3 -3 -3 -3 -3 -3 -1 7 37 94 97 40 8 0 -3 -3 -3 -3 -3 -3 -3 -3 -3 -3 -3 -3 -3 -2 2 20 63 108 81 30 5 -1 -3 -3 -3 -3 -3 -3 -3 -3 -3 -2 1 18 61 107 79 28 4 -1 -3 -3 -3 -3 -2 2 18 55 104 129 136 
97 38 7 -1 -3 -3 -3 -3 -3 -3 -3 -3 -1 6 34 90 101 47 11 0 -3 -3 -3 -3 0 9 37 88 106 61 20 3 -2 -3 -3 -3 -3 -3 -3 -3 -3 -3 -3 -3 -3 -3 -3 -3 -3 -3 -3 -1 6 34 89 101 47 11 0 -2 -3 -3 -3 -3 -3 -3 -3 -3 -3 -3 -3 -3 0 8 37 88 106 58 17 1 -2 -3 -3 -3 -3 -3 -3 -3 -3 -3 -1 4 28 79 107 61 18 1 -2 -3 -3 -3 -2 0 10 39 88 115 106 118 
96 38 7 -1 -3 -3 -3 -3 -3 -3 -3 -3 -1 4 27 79 108 61 18 1 -2 -3 -3 -2 3 20 61 106 88 37 9 0 -3 -3 -3 -3 -3 -3 -3 -3 -3 -3 -3 -3 -3 -3 -3 -3 -3 -3 -3 -1 4 27 79 108 61 18 2 -2 -3 -3 -3 -3 -3 -3 -3 -3 -3 -3 -3 -2 1 17 58 106 88 37 8 0 -3 -3 -3 -3 -3 -3 -3 -3 -3 -3 -1 7 36 92 100 46 11 0 -3 -3 -3 -3 -1 5 27 69 108 97 79 106 
95 38 7 -1 -3 -3 -3 -3 -3 -3 -3 -3 -2 1 18 61 108 79 27 4 -1 -3 -2 0 11 40 89 106 61 19 2 -2 -3 -3 -3 -3 -3 -3 -3 -3 -3 -3 -3 -3 -3 -3 -3 -3 -3 -3 -3 -2 1 18 62 109 80 29 6 0 -1 -1 -2 -3 -3 -3 -3 -3 -3 -3 -3 -1 5 30 81 108 63 20 2 -2 -3 -3 -3 -3 -3 -3 -3 -3 -3 -3 0 11 46 100 92 36 7 -1 -3 -3 -3 -2 2 18 55 101 102 66 59 100 
95 38 7 -1 -3 -3 -3 -3 -3 -3 -3 -3 -3 0 11 47 101 90 34 6 -1 -2 -1 5 27 69 108 86 36 8 0 -3 -3 -3 -3 -3 -3 -3 -3 -3 -3 -3 -3 -3 -3 -3 -3 -3 -3 -3 -3 -2 0 14 51 106 97 44 17 9 6 4 1 0 0 -1 -1 -1 -1 -2 -2 0 11 44 97 97 44 10 0 -2 -3 -3 -3 -3 -3 -3 -3 -3 -3 -2 1 18 61 107 79 28 4 -1 -3 -3 -2 0 10 39 87 108 71 38 47 97 
95 38 7 -1 -3 -3 -3 -3 -3 -3 -3 -3 -3 -1 8 39 95 95 39 8 0 -1 2 17 55 101 101 55 17 2 -2 -3 -3 -3 -3 -3 -3 -3 -3 -3 -3 -3 -3 -3 -3 -3 -3 -3 -3 -3 -2 0 4 19 56 115 118 73 48 39 34 27 18 11 8 7 7 6 4 1 1 5 22 64 108 81 30 5 -1 -3 -3 -3 -3 -3 -3 -3 -3 -3 -3 -1 4 28 79 107 61 18 1 -2 -3 -3 -1 5 27 69 107 88 41 22 42 96 
95 38 7 -1 -3 -3 -3 -3 -3 -3 -3 -3 -3 -1 6 34 90 101 47 11 0 0 8 36 86 108 69 27 5 -1 -3 -3 -3 -3 -3 -3 -3 -3 -3 -3 -3 -3 -3 -3 -3 -3 -3 -3 -3 -2 0 6 19 43 84 135 144 117 101 95 90 79 61 47 40 38 37 34 27 18 14 19 44 92 107 58 17 1 -2 -3 -3 -3 -3 -3 -3 -3 -3 -3 -3 -1 7 36 92 100 46 11 0 -2 -3 -2 2 18 55 101 101 55 20 13 39 95 
95 38 7 -1 -3 -3 -3 -3 -3 -3 -3 -3 -3 -1 4 27 79 108 61 18 3 3 19 61 106 89 40 11 0 -2 -3 -3 -3 -3 -3 -3 -3 -3 -3 -3 -3 -3 -3 -3 -3 -3 -3 -2 -1 2 10 27 55 89 115 124 114 102 97 97 101 108 108 101 97 95 94 89 79 62 51 56 85 117 92 38 8 0 -3 -3 -3 -3 -3 -3 -3 -3 -3 -3 -3 0 11 46 100 92 36 7 -1 -3 -2 0 10 39 87 107 69 27 8 10 38 95 
95 38 7 -1 -3 -3 -3 -3 -3 -3 -3 -3 -3 -2 1 18 61 108 79 28 7 10 37 88 106 61 20 3 -2 -3 -3 -3 -3 -3 -3 -3 -3 -3 -3 -3 -3 -3 -3 -3 -3 -3 -2 0 5 18 39 69 101 108 91 66 48 41 39 41 47 61 79 89 94 95 97 101 108 108 106 114 135 133 75 25 4 -1 -3 -3 -3 -3 -3 -3 -3 -3 -3 -3 -2 1 18 61 107 79 28 4 -1 -2 -1 5 27 69 107 87 39 11 2 8 38 95 
95 38 7 -1 -3 -3 -3 -3 -3 -3 -3 -3 -3 -3 0 11 47 101 90 36 13 22 62 106 88 37 9 0 -3 -3 -3 -3 -3 -3 -3 -3 -3 -3 -3 -3 -3 -3 -3 -3 -2 -1 2 10 27 55 87 107 101 70 40 21 12 8 8 8 11 18 27 34 37 38 40 47 61 80 94 110 135 133 76 26 4 -1 -3 -3 -3 -3 -3 -3 -3 -3 -3 -3 -1 4 28 79 108 61 18 1 -2 -2 2 18 55 101 101 55 18 2 0 8 38 95 
95 38 7 -1 -3 -3 -3 -3 -3 -3 -3 -3 -3 -3 -1 8 39 96 96 43 23 42 89 106 61 19 2 -2 -3 -3 -3 -3 -3 -3 -3 -3 -3 -3 -3 -3 -3 -3 -3 -2 0 5 18 39 69 101 107 87 55 27 11 3 0 0 -1 0 0 1 4 6 7 7 8 11 18 28 38 53 84 117 94 42 12 1 -1 -2 -3 -3 -3 -3 -3 -3 -3 -2 0 7 37 92 100 46 11 0 -2 0 10 39 87 107 69 27 5 0 0 7 38 95 
95 38 7 -1 -3 -3 -3 -3 -3 -3 -3 -3 -3 -3 -1 6 34 90 103 56 42 73 108 86 36 8 0 -3 -3 -3 -3 -3 -3 -3 -3 -3 -3 -3 -3 -3 -3 -3 -2 0 7 25 54 87 107 101 69 39 18 5 0 -2 -2 -3 -3 -3 -3 -2 -1 -1 -1 -1 0 0 1 4 8 17 43 89 110 73 33 12 3 0 0 -1 -1 -1 -1 -1 -1 0 2 13 47 101 92 37 7 0 0 6 27 69 107 87 39 10 0 -2 -1 7 38 95 
95 38 7 -1 -3 -3 -3 -3 -3 -3 -3 -3 -3 -3 -1 4 27 79 111 81 75 105 101 55 17 2 -2 -3 -3 -3 -3 -3 -3 -3 -3 -3 -3 -3 -3 -3 -2 -1 2 11 30 64 99 108 87 55 27 10 2 -1 -2 -3 -3 -3 -3 -3 -3 -3 -3 -3 -3 -3 -3 -3 -2 -1 0 4 19 56 103 110 74 41 21 12 8 7 7 7 7 7 7 8 12 28 68 112 83 30 6 0 3 18 55 101 101 55 18 2 -2 -2 -1 7 38 95 
95 38 7 -1 -3 -3 -3 -3 -3 -3 -3 -3 -3 -3 -2 1 18 61 113 113 112 111 70 27 5 -1 -3 -3 -3 -3 -3 -3 -3 -3 -3 -3 -3 -3 -3 -2 0 5 18 40 71 103 103 71 40 18 5 0 -2 -3 -3 -3 -3 -3 -3 -3 -3 -3 -3 -3 -3 -3 -3 -3 -3 -3 -2 0 6 28 75 126 128 95 65 48 41 39 38 38 38 38 38 39 45 64 105 125 77 29 8 4 12 39 87 107 69 27 5 -1 -3 -3 -1 7 38 95 
95 38 7 -1 -3 -3 -3 -3 -3 -3 -3 -3 -3 -3 -3 0 11 47 108 136 129 91 40 10 0 -2 -3 -3 -3 -3 -3 -3 -3 -3 -3 -3 -3 -2 -1 2 10 27 55 87 108 99 64 30 11 2 -1 -2 -3 -3 -3 -3 -3 -3 -3 -3 -3 -3 -3 -3 -3 -3 -3 -3 -3 -3 -3 -2 1 15 54 118 146 129 113 102 97 95 95 95 95 95 95 96 100 115 140 140 92 48 24 18 32 71 108 87 39 10 0 -2 -3 -3 -1 7 38 95 
95 38 7 -1 -3 -3 -3 -3 -3 -3 -3 -3 -3 -3 -3 -1 8 40 105 147 120 62 20 3 -2 -3 -3 -3 -3 -3 -3 -3 -3 -3 -3 -3 -2 0 5 18 39 69 101 107 87 54 25 7 0 -2 -3 -3 -3 -3 -3 -3 -3 -3 -3 -3 -3 -3 -3 -3 -3 -3 -3 -3 -3 -3 -3 -2 0 13 50 110 120 92 87 91 94 95 95 95 95 95 95 95 97 102 114 125 117 93 66 55 71 106 103 56 18 2 -2 -3 -3 -3 -1 7 38 95 
95 38 7 -1 -3 -3 -3 -3 -3 -3 -3 -3 -3 -3 -3 -1 7 38 103 141 94 37 8 0 -3 -3 -3 -3 -3 -3 -3 -3 -3 -3 -2 -1 2 10 27 55 87 108 101 70 39 18 5 0 -2 -3 -3 -3 -3 -3 -3 -3 -3 -3 -3 -3 -3 -3 -3 -3 -3 -3 -3 -3 -3 -3 -3 -2 1 18 62 111 89 48 35 36 37 38 38 38 38 38 38 38 39 41 48 65 90 108 111 110 123 123 77 29 6 -1 -3 -3 -3 -3 -1 7 38 95 
95 38 7 -1 -3 -3 -3 -3 -3 -3 -3 -3 -3 -3 -3 -1 7 38 100 122 65 20 2 -2 -3 -3 -3 -3 -3 -3 -3 -3 -2 -1 0 5 17 39 70 103 110 89 57 28 11 3 0 -2 -3 -3 -3 -3 -3 -3 -3 -3 -3 -3 -3 -3 -3 -3 -3 -3 -3 -3 -3 -3 -3 -3 -3 -1 4 27 79 108 64 23 9 7 7 7 7 7 7 7 7 7 7 8 11 20 37 61 91 122 146 126 64 20 3 -2 -3 -3 -3 -3 -1 7 38 95 
95 38 7 -1 -3 -3 -3 -3 -3 -3 -3 -3 -3 -3 -3 -1 7 38 98 105 47 11 0 -2 -3 -3 -3 -3 -3 -3 -2 0 1 6 12 27 55 92 120 117 83 51 28 14 5 1 0 -1 -2 -3 -3 -3 -3 -3 -3 -3 -3 -3 -3 -3 -3 -3 -3 -3 -3 -3 -3 -3 -3 -3 -3 -1 6 34 89 101 47 12 1 0 -1 -1 -1 -1 -1 -1 -1 -1 -1 0 0 2 9 20 40 74 117 125 77 29 6 -1 -3 -3 -3 -3 -1 7 38 95 
95 38 7 -1 -3 -3 -3 -3 -3 -3 -3 -3 -3 -3 -3 0 8 40 98 96 39 8 -1 -3 -3 -3 -3 -2 -2 0 2 8 17 30 47 73 111 141 143 113 76 53 41 30 18 11 7 4 1 0 -1 -1 -1 -2 -3 -3 -3 -3 -3 -3 -3 -3 -3 -3 -3 -3 -3 -3 -3 -3 -3 -1 7 37 94 97 40 8 0 -2 -3 -3 -3 -3 -3 -3 -3 -3 -3 -3 -2 -2 0 3 11 30 68 108 103 56 18 2 -2 -3 -3 -3 -1 7 38 95 
95 38 7 -1 -3 -3 -3 -3 -3 -3 -3 -3 -3 -3 -3 0 11 47 101 90 34 6 -1 -3 -3 -2 -1 0 2 8 19 36 58 81 99 113 121 122 125 121 108 99 91 79 61 46 36 28 18 11 8 6 4 1 0 -1 -1 -2 -3 -3 -3 -3 -3 -3 -3 -3 -3 -3 -3 -3 -3 0 8 40 97 94 37 7 -1 -3 -3 -3 -3 -3 -3 -3 -3 -3 -3 -3 -3 -3 -3 -2 0 9 30 71 108 87 39 10 0 -2 -3 -3 -1 7 38 95 
95 38 7 -1 -3 -3 -3 -3 -3 -3 -3 -3 -3 -3 -2 1 18 61 108 79 27 4 -1 -2 0 1 5 10 20 37 61 87 106 108 98 83 65 56 64 80 90 96 101 108 107 100 92 79 61 47 39 34 27 18 11 7 4 1 0 -1 -1 -1 -2 -3 -3 -3 -3 -3 -3 -3 -2 0 11 47 101 89 34 6 -1 -3 -3 -3 -3 -3 -3 -3 -3 -3 -3 -3 -3 -3 -3 -3 -2 0 11 40 87 107 69 27 5 -1 -3 -3 -1 7 38 95 
95 38 7 -1 -3 -3 -3 -3 -3 -3 -3 -3 -3 -3 -1 4 27 79 108 61 18 3 0 2 8 17 30 44 63 88 106 106 88 63 44 30 19 15 19 27 34 39 47 61 79 92 100 107 108 101 95 90 79 61 46 36 28 18 11 8 6 4 1 0 -1 -1 -2 -3 -3 -3 -2 1 18 61 108 79 27 4 -1 -3 -3 -3 -3 -3 -3 -3 -3 -3 -3 -3 -3 -3 -3 -3 -3 -2 2 18 55 101 101 55 18 2 -2 -2 -1 7 38 95 
95 38 7 -1 -3 -3 -3 -3 -3 -3 -3 -3 -3 -3 -1 6 34 90 101 48 14 6 9 19 36 58 81 97 108 106 87 61 37 20 10 5 2 0 1 4 6 8 11 18 28 36 46 61 79 90 95 101 108 107 100 92 79 61 47 39 34 27 18 11 7 4 1 0 -1 -1 0 5 28 79 108 61 18 1 -2 -3 -3 -3 -3 -3 -3 -3 -3 -3 -3 -3 -3 -3 -3 -3 -3 -3 -1 5 27 69 107 87 40 11 0 -2 -1 7 38 95 
95 38 7 -1 -3 -3 -3 -3 -3 -3 -3 -3 -3 -3 -1 8 39 96 98 46 21 22 37 61 87 106 108 97 81 58 36 19 8 2 0 -1 -2 -2 -2 -1 -1 -1 0 1 4 7 11 18 27 34 39 47 61 79 92 100 107 108 101 95 90 79 61 46 36 28 18 11 8 7 6 11 37 91 102 47 11 0 -3 -3 -3 -3 -3 -3 -3 -3 -3 -3 -3 -3 -3 -3 -3 -3 -3 -3 -2 0 10 39 87 108 71 30 8 0 0 7 38 95 
95 38 7 -1 -3 -3 -3 -3 -3 -3 -3 -3 -3 -2 0 11 47 104 102 58 47 63 88 106 106 88 63 44 30 17 8 2 0 -2 -2 -3 -3 -3 -3 -3 -3 -3 -3 -2 -1 -1 0 1 4 6 8 11 18 28 36 46 61 79 90 95 101 108 107 100 92 79 61 47 39 35 29 28 51 101 98 40 8 0 -3 -3 -3 -3 -3 -3 -3 -3 -3 -3 -3 -3 -3 -3 -3 -3 -3 -3 -3 -2 2 18 54 99 103 64 25 5 1 8 38 95 
95 38 7 -1 -3 -3 -3 -3 -3 -3 -3 -3 -3 -2 2 20 65 122 118 92 95 107 106 88 61 37 20 10 5 1 0 -2 -3 -3 -3 -3 -3 -3 -3 -3 -3 -3 -3 -3 -3 -3 -3 -2 -1 -1 -1 0 1 4 7 11 18 27 34 39 47 61 79 92 100 107 108 101 96 90 81 71 82 118 99 38 7 -1 -3 -3 -3 -3 -3 -3 -3 -3 -3 -3 -3 -3 -3 -3 -3 -3 -3 -3 -3 -3 -1 5 25 64 103 99 54 18 5 9 38 95 
95 38 7 -1 -3 -3 -3 -3 -3 -3 -3 -3 -3 0 8 37 94 144 138 120 108 88 61 37 19 8 2 0 -1 -2 -3 -3 -3 -3 -3 -3 -3 -3 -3 -3 -3 -3 -3 -3 -3 -3 -3 -3 -3 -3 -3 -3 -2 -1 -1 0 1 4 6 8 11 18 28 36 46 61 79 90 95 101 109 115 126 143 103 38 7 -1 -3 -3 -3 -3 -3 -3 -3 -3 -3 -3 -3 -3 -3 -3 -3 -3 -3 -3 -3 -3 -2 0 7 30 71 108 87 40 13 11 39 95 
95 38 7 -1 -3 -3 -3 -3 -3 -3 -3 -3 -2 3 20 62 117 131 108 83 58 36 19 8 2 0 -2 -2 -3 -3 -3 -3 -3 -3 -3 -3 -3 -3 -3 -3 -3 -3 -3 -3 -3 -3 -3 -3 -3 -3 -3 -3 -3 -3 -3 -3 -2 -1 -1 -1 0 1 4 7 11 18 27 34 39 47 63 86 116 141 103 38 7 -1 -3 -3 -3 -3 -3 -3 -3 -3 -3 -3 -3 -3 -3 -3 -3 -3 -3 -3 -3 -3 -3 -2 0 11 39 87 108 71 32 19 41 96 
95 38 7 -1 -3 -3 -3 -3 -3 -3 -3 -2 0 11 40 90 114 82 50 31 17 8 2 0 -2 -3 -3 -3 -3 -3 -3 -3 -3 -3 -3 -3 -3 -3 -3 -3 -3 -3 -3 -3 -3 -3 -3 -3 -3 -3 -3 -3 -3 -3 -3 -3 -3 -3 -3 -3 -3 -2 -1 -1 0 1 4 6 8 11 20 37 70 116 99 38 7 -1 -3 -3 -3 -3 -3 -3 -3 -3 -3 -3 -3 -3 -3 -3 -3 -3 -3 -3 -3 -3 -3 -3 -2 2 18 54 100 104 66 36 47 97 
95 38 7 -1 -3 -3 -3 -3 -3 -3 -3 -1 5 27 70 108 89 43 17 6 1 0 -2 -3 -3 -3 -3 -3 -3 -3 -3 -3 -3 -3 -3 -3 -3 -3 -3 -3 -3 -3 -3 -3 -3 -3 -3 -3 -3 -3 -3 -3 -3 -3 -3 -3 -3 -3 -3 -3 -3 -3 -3 -3 -3 -2 -1 -1 0 0 4 15 47 101 96 38 7 -1 -3 -3 -3 -3 -3 -3 -3 -3 -3 -3 -3 -3 -3 -3 -3 -3 -3 -3 -3 -3 -3 -3 -3 -1 5 25 64 103 101 65 59 100 
96 38 7 -1 -3 -3 -3 -3 -3 -3 -2 2 18 55 101 101 55 19 3 0 -2 -3 -3 -3 -3 -3 -3 -3 -3 -3 -3 -3 -3 -3 -3 -3 -3 -3 -3 -3 -3 -3 -3 -3 -3 -3 -3 -3 -3 -3 -3 -3 -3 -3 -3 -3 -3 -3 -3 -3 -3 -3 -3 -3 -3 -3 -3 -3 -3 -2 0 9 40 96 96 39 8 -1 -3 -3 -3 -3 -3 -3 -3 -3 -3 -3 -3 -3 -3 -3 -3 -3 -3 -3 -3 -3 -3 -3 -3 -2 0 7 30 71 109 96 79 106 
97 38 7 -1 -3 -3 -3 -3 -3 -2 0 11 40 87 108 70 27 6 0 -2 -3 -3 -3 -3 -3 -3 -3 -3 -3 -3 -3 -3 -3 -3 -3 -3 -3 -3 -3 -3 -3 -3 -3 -3 -3 -3 -3 -3 -3 -3 -3 -3 -3 -3 -3 -3 -3 -3 -3 -3 -3 -3 -3 -3 -3 -3 -3 -3 -3 -3 0 8 38 95 98 41 9 0 -2 -3 -3 -3 -3 -3 -3 -3 -3 -3 -3 -3 -3 -3 -3 -3 -3 -3 -3 -3 -3 -3 -3 -3 -2 0 11 40 88 115 106 118 
100 38 7 -1 -3 -3 -3 -3 -2 0 8 30 71 109 89 41 12 1 -2 -2 -3 -3 -3 -3 -3 -3 -3 -3 -3 -3 -3 -3 -3 -3 -3 -3 -3 -3 -3 -3 -3 -3 -3 -3 -3 -3 -3 -3 -3 -3 -3 -3 -3 -3 -3 -3 -3 -3 -3 -3 -3 -3 -3 -3 -3 -3 -3 -3 -3 -2 0 9 39 96 106 51 15 2 -1 -2 -3 -3 -3 -3 -3 -3 -3 -3 -3 -3 -3 -3 -3 -3 -3 -3 -3 -3 -3 -3 -3 -3 -3 -2 2 18 55 104 129 136 
102 37 7 -1 -3 -3 -3 -2 0 8 28 66 108 108 65 28 10 3 0 0 -1 -1 -1 -1 -1 -1 -1 -1 -1 -2 -3 -3 -3 -3 -3 -3 -3 -3 -3 -3 -3 -3 -3 -3 -3 -3 -3 -3 -3 -3 -3 -3 -3 -3 -3 -3 -3 -3 -3 -3 -3 -3 -3 -3 -3 -3 -3 -3 -2 -1 3 16 47 103 125 78 34 12 3 0 -2 -3 -3 -3 -3 -3 -3 -3 -3 -3 -3 -3 -3 -3 -3 -3 -3 -3 -3 -3 -3 -3 -3 -3 -1 5 27 70 123 147 
103 37 7 -1 -3 -3 -2 0 8 28 66 113 129 100 65 43 29 18 11 8 7 7 7 7 7 7 7 6 4 1 0 0 -1 -1 -1 -1 -1 -1 -1 -1 -2 -3 -3 -3 -3 -3 -3 -3 -3 -3 -3 -3 -3 -3 -3 -3 -3 -3 -3 -3 -3 -3 -3 -3 -3 -3 -3 -2 0 5 18 40 75 122 147 120 74 41 20 8 2 -1 -2 -3 -3 -3 -3 -3 -3 -3 -3 -3 -3 -3 -3 -3 -3 -3 -3 -3 -3 -3 -3 -3 -2 0 10 40 95 141 
100 38 7 -1 -2 -2 0 8 28 66 114 145 140 119 102 92 79 61 47 41 39 38 38 38 38 38 37 34 27 18 11 8 7 7 7 7 7 7 6 4 1 0 0 -1 -1 -1 -1 -1 -1 -1 -1 -1 -2 -3 -3 -3 -3 -3 -3 -3 -3 -3 -3 -3 -3 -2 0 3 11 27 55 87 111 121 123 123 113 90 61 36 17 5 0 -2 -3 -3 -3 -3 -3 -3 -3 -3 -3 -3 -3 -3 -3 -3 -3 -3 -3 -3 -3 -3 -3 -2 3 21 66 123 
97 38 7 0 -2 0 8 28 65 106 122 115 105 99 98 102 108 108 101 97 95 95 95 95 95 95 93 89 79 61 47 41 39 38 38 38 38 37 34 27 18 11 8 7 7 7 7 7 7 7 6 4 1 0 0 -1 -1 -1 -1 -1 -1 -1 -1 -2 -1 2 8 20 40 69 101 108 91 68 58 68 90 107 106 86 55 27 11 3 0 -2 -3 -3 -3 -3 -3 -3 -3 -3 -3 -3 -3 -3 -3 -3 -3 -3 -3 -3 -3 -2 0 12 48 106 
96 38 8 0 1 8 28 65 103 106 76 51 41 39 41 47 61 79 89 93 95 95 95 95 95 95 97 101 108 108 101 97 95 95 95 95 95 93 89 79 61 47 41 39 38 38 38 38 38 37 34 27 18 11 8 7 7 7 7 7 7 6 4 3 7 17 36 61 89 108 101 70 41 22 16 22 38 61 89 108 101 69 40 20 8 2 -1 -2 -3 -3 -3 -3 -3 -3 -3 -3 -3 -3 -3 -3 -3 -3 -3 -3 -3 -3 0 8 41 98 
95 39 10 5 12 30 66 103 103 66 31 14 9 8 8 11 18 27 34 37 38 38 38 38 38 39 41 47 61 79 89 93 95 95 95 95 95 97 101 108 108 101 97 95 95 95 95 95 95 93 89 79 61 47 41 39 38 38 38 38 37 34 29 24 32 56 86 106 106 86 55 27 11 3 1 3 9 20 40 69 101 108 89 61 36 17 5 0 -2 -3 -3 -3 -3 -3 -3 -3 -3 -3 -3 -3 -3 -3 -3 -3 -3 -3 -1 7 39 96 
96 41 16 20 40 71 104 102 65 28 8 1 0 -1 0 0 1 4 6 7 7 7 7 7 7 7 8 11 18 27 34 37 38 38 38 38 39 41 47 61 79 89 93 95 95 95 95 95 95 97 101 108 108 101 97 95 95 95 95 95 94 90 83 74 83 105 109 89 61 36 17 5 0 -1 -2 -2 0 3 11 27 55 86 106 106 86 55 27 11 3 0 -2 -3 -3 -3 -3 -3 -3 -3 -3 -3 -3 -3 -3 -3 -3 -3 -1 7 38 95 
98 49 36 56 87 108 99 63 27 8 0 -2 -3 -3 -3 -3 -2 -1 -1 -1 -1 -1 -1 -1 -1 -1 0 0 1 4 6 7 7 7 7 7 7 8 11 18 27 34 37 38 38 38 38 38 39 41 47 61 79 89 93 95 95 95 95 96 98 105 119 133 134 112 73 41 20 8 2 -1 -2 -3 -3 -3 -3 -2 0 5 17 36 61 89 108 101 69 40 20 8 2 -1 -2 -3 -3 -3 -3 -3 -3 -3 -3 -3 -3 -3 -3 -3 -1 7 38 95 
104 68 73 101 108 87 54 24 7 0 -2 -3 -3 -3 -3 -3 -3 -3 -3 -3 -3 -3 -3 -3 -3 -3 -3 -3 -2 -1 -1 -1 -1 -1 -1 -1 -1 0 0 1 4 6 7 7 7 7 7 7 7 8 11 18 27 34 37 38 38 38 38 39 42 55 88 135 133 78 34 12 3 0 -2 -3 -3 -3 -3 -3 -3 -3 -2 -1 2 8 20 40 69 101 108 89 61 36 17 5 0 -2 -3 -3 -3 -3 -3 -3 -3 -3 -3 -3 -3 -3 -1 7 38 96 
119 102 110 105 71 40 18 5 0 -2 -3 -3 -3 -3 -3 -3 -3 -3 -3 -3 -3 -3 -3 -3 -3 -3 -3 -3 -3 -3 -3 -3 -3 -3 -3 -3 -3 -3 -3 -2 -1 -1 -1 -1 -1 -1 -1 -1 -1 0 0 1 4 6 7 7 7 7 7 8 10 21 55 112 111 52 15 2 -1 -2 -3 -3 -3 -3 -3 -3 -3 -3 -3 -3 -2 0 3 11 27 55 86 106 106 86 55 27 11 3 0 -2 -3 -3 -3 -3 -3 -3 -3 -3 -3 -3 -1 7 38 98 
140 130 107 66 30 11 2 -1 -2 -3 -3 -3 -3 -3 -3 -3 -3 -3 -3 -3 -3 -3 -3 -3 -3 -3 -3 -3 -3 -3 -3 -3 -3 -3 -3 -3 -3 -3 -3 -3 -3 -3 -3 -3 -3 -3 -3 -3 -3 -3 -3 -2 -1 -1 -1 -1 -1 -1 -1 0 1 10 42 100 99 41 9 0 -2 -3 -3 -3 -3 -3 -3 -3 -3 -3 -3 -3 -3 -3 -2 0 5 17 36 61 89 108 101 69 40 20 9 2 0 -2 -3 -3 -3 -3 -3 -3 -3 -3 -1 7 38 101 
147 117 67 28 8 0 -2 -3 -3 -3 -3 -3 -3 -3 -3 -3 -3 -3 -3 -3 -3 -3 -3 -3 -3 -3 -3 -3 -3 -3 -3 -3 -3 -3 -3 -3 -3 -3 -3 -3 -3 -3 -3 -3 -3 -3 -3 -3 -3 -3 -3 -3 -3 -3 -3 -3 -3 -3 -3 -2 0 8 39 96 96 39 8 -1 -3 -3 -3 -3 -3 -3 -3 -3 -3 -3 -3 -3 -3 -3 -3 -2 -1 2 8 20 40 69 101 108 89 61 37 19 8 2 -1 -2 -3 -3 -3 -3 -3 -3 -1 7 38 103 
128 77 31 8 0 -2 -3 -3 -3 -3 -3 -3 -3 -3 -3 -3 -3 -3 -3 -3 -3 -3 -3 -3 -3 -3 -3 -3 -3 -3 -3 -3 -3 -3 -3 -3 -3 -3 -3 -3 -3 -3 -3 -3 -3 -3 -3 -3 -3 -3 -3 -3 -3 -3 -3 -3 -3 -3 -3 -3 -1 7 38 95 95 38 7 -1 -3 -3 -3 -3 -3 -3 -3 -3 -3 -3 -3 -3 -3 -3 -3 -3 -3 -2 0 3 11 27 55 86 106 106 88 61 36 17 5 0 -2 -2 -3 -3 -3 -3 -1 7 38 101 
108 51 14 1 -2 -3 -3 -3 -3 -3 -3 -3 -3 -3 -3 -3 -3 -3 -3 -3 -3 -3 -3 -3 -3 -3 -3 -3 -3 -3 -3 -3 -3 -3 -3 -3 -3 -3 -3 -3 -3 -3 -3 -3 -3 -3 -3 -3 -3 -3 -3 -3 -3 -3 -3 -3 -3 -3 -3 -3 -1 7 38 95 95 38 7 -1 -3 -3 -3 -3 -3 -3 -3 -3 -3 -3 -3 -3 -3 -3 -3 -3 -3 -3 -3 -2 0 5 17 36 61 88 106 106 86 55 27 10 3 0 -1 -1 -2 -2 0 7 38 98 
98 41 9 0 -3 -3 -3 -3 -3 -3 -3 -3 -3 -3 -3 -3 -3 -3 -3 -3 -3 -3 -3 -3 -3 -3 -3 -3 -3 -3 -3 -3 -3 -3 -3 -3 -3 -3 -3 -3 -3 -3 -3 -3 -3 -3 -3 -3 -3 -3 -3 -3 -3 -3 -3 -3 -3 -3 -3 -3 -1 7 38 95 95 38 7 -1 -3 -3 -3 -3 -3 -3 -3 -3 -3 -3 -3 -3 -3 -3 -3 -3 -3 -3 -3 -3 -2 -1 2 8 19 37 62 90 108 102 70 40 21 11 7 4 1 0 1 9 39 96 
96 39 8 -1 -3 -3 -3 -3 -3 -3 -3 -3 -3 -3 -3 -3 -3 -3 -3 -3 -3 -3 -3 -3 -3 -3 -3 -3 -3 -3 -3 -3 -3 -3 -3 -3 -3 -3 -3 -3 -3 -3 -3 -3 -3 -3 -3 -3 -3 -3 -3 -3 -3 -3 -3 -3 -3 -3 -3 -3 -1 7 38 95 95 38 7 -1 -3 -3 -3 -3 -3 -3 -3 -3 -3 -3 -3 -3 -3 -3 -3 -3 -3 -3 -3 -3 -3 -3 -2 0 3 10 22 43 75 110 117 95 66 47 37 28 18 11 9 16 43 97 
97 38 8 0 -2 -3 -3 -3 -3 -3 -3 -3 -3 -3 -3 -3 -3 -3 -3 -3 -3 -3 -3 -3 -3 -3 -3 -3 -3 -3 -3 -3 -3 -3 -3 -3 -3 -3 -3 -3 -3 -3 -3 -3 -3 -3 -3 -3 -3 -3 -3 -3 -3 -3 -3 -3 -3 -3 -3 -3 -1 7 38 95 95 38 7 -1 -3 -3 -3 -3 -3 -3 -3 -3 -3 -3 -3 -3 -3 -3 -3 -3 -3 -3 -3 -3 -3 -3 -2 -1 0 4 12 25 51 93 133 144 125 105 93 79 61 46 39 39 58 104 
101 40 9 1 0 -1 -1 -1 -1 -2 -3 -3 -3 -3 -3 -3 -3 -3 -3 -3 -3 -3 -3 -3 -3 -3 -3 -3 -3 -3 -3 -3 -3 -3 -3 -3 -3 -3 -3 -3 -3 -3 -3 -3 -3 -3 -3 -3 -3 -3 -3 -3 -3 -3 -3 -3 -3 -3 -3 -3 -1 7 38 95 95 38 7 -1 -3 -3 -3 -3 -3 -3 -3 -3 -3 -3 -3 -3 -3 -3 -3 -3 -3 -3 -3 -3 -2 -1 0 2 8 18 31 48 72 106 130 128 112 103 103 108 108 100 94 89 96 123 
110 48 18 10 8 7 7 6 4 1 0 0 -1 -1 -1 -1 -1 -2 -3 -3 -3 -3 -3 -3 -3 -3 -3 -3 -3 -3 -3 -3 -3 -3 -3 -3 -3 -3 -3 -3 -3 -3 -3 -3 -3 -3 -3 -3 -3 -3 -3 -3 -3 -3 -3 -3 -3 -3 -3 -3 -1 7 38 95 95 38 7 -1 -3 -3 -3 -3 -3 -3 -3 -3 -3 -3 -3 -3 -3 -3 -3 -3 -3 -2 -2 0 1 5 10 20 37 58 81 98 109 108 91 66 48 43 47 61 79 92 101 114 131 148 
126 74 48 40 38 38 37 34 27 18 11 8 7 7 7 6 4 1 0 0 -1 -1 -1 -1 -1 -1 -2 -3 -3 -3 -3 -3 -3 -3 -3 -3 -3 -3 -3 -3 -3 -3 -3 -3 -3 -3 -3 -3 -3 -3 -3 -3 -3 -3 -3 -3 -3 -3 -3 -3 -1 7 38 95 95 38 7 -1 -3 -3 -3 -3 -3 -3 -3 -3 -3 -3 -3 -3 -3 -3 -3 -2 -1 0 2 8 17 30 44 63 88 106 108 97 81 58 36 20 12 9 11 18 28 37 47 68 106 144 
147 121 102 97 95 95 93 89 79 61 47 41 39 38 37 34 27 18 11 8 7 7 7 7 6 4 1 0 0 -1 -1 -1 -1 -1 -2 -3 -3 -3 -3 -3 -3 -3 -3 -3 -3 -3 -3 -3 -3 -3 -3 -3 -3 -3 -3 -3 -3 -3 -3 -3 -1 7 38 95 95 38 7 -1 -3 -3 -3 -3 -3 -3 -3 -3 -3 -3 -3 -3 -3 -2 0 1 5 10 20 37 58 81 97 108 106 88 63 44 30 17 8 2 0 0 0 1 4 7 13 28 64 123 
144 121 103 97 95 95 97 101 108 108 101 97 95 95 93 89 79 61 47 41 39 38 38 37 34 27 18 11 8 7 7 7 6 4 1 0 0 -1 -1 -1 -1 -1 -1 -2 -3 -3 -3 -3 -3 -3 -3 -3 -3 -3 -3 -3 -3 -3 -3 -3 -1 7 38 95 95 38 7 -1 -3 -3 -3 -3 -3 -3 -3 -3 -3 -3 -2 -2 0 2 8 17 30 44 63 88 106 108 97 81 58 37 20 10 5 1 0 -2 -2 -3 -2 -2 -1 0 2 12 45 109 
117 74 48 40 38 39 41 47 61 79 89 93 95 95 97 101 108 108 101 97 95 95 95 93 89 79 61 47 41 39 38 37 34 27 18 11 8 7 7 7 7 6 4 1 0 0 -1 -1 -1 -1 -1 -2 -3 -3 -3 -3 -3 -3 -3 -2 -1 7 38 95 95 38 7 -1 -3 -3 -3 -3 -3 -3 -3 -3 -2 -1 0 2 8 19 36 58 81 97 108 106 88 63 44 30 17 8 2 0 -1 -2 -3 -3 -3 -3 -3 -3 -3 -2 0 8 39 100 
101 48 18 10 8 8 8 11 18 27 34 37 38 39 41 47 61 79 89 93 95 95 95 97 101 108 108 101 97 95 95 93 89 79 61 47 41 39 38 38 37 34 27 18 11 8 7 7 7 6 4 1 0 0 -1 -1 -1 -1 -1 -1 0 8 38 95 95 38 7 -1 -3 -3 -3 -3 -3 -2 -2 0 1 5 10 20 37 61 87 106 108 97 81 58 37 20 10 5 1 0 -2 -2 -3 -3 -3 -3 -3 -3 -3 -3 -3 -3 -1 7 38 96 
96 40 10 1 0 -1 0 0 1 4 6 7 7 7 8 11 18 27 34 37 38 38 39 41 47 61 79 89 93 95 95 97 101 108 108 101 97 95 95 95 93 89 79 61 47 41 39 38 37 34 27 18 11 8 7 7 7 7 6 4 4 11 40 97 96 39 8 -1 -3 -3 -3 -2 -1 0 2 8 17 30 44 63 88 106 106 88 63 44 30 17 8 2 0 -1 -2 -3 -3 -3 -3 -3 -3 -3 -3 -3 -3 -3 -3 -3 -1 7 38 95 
95 38 8 0 -2 -3 -3 -3 -2 -1 -1 -1 -1 -1 0 0 1 4 6 7 7 7 7 8 11 18 27 34 37 38 39 41 47 61 79 89 93 95 95 95 97 101 108 108 101 97 95 95 93 89 79 61 47 41 39 38 38 37 34 28 20 22 49 102 100 41 9 0 -2 -2 0 1 5 10 20 37 58 81 97 108 106 87 61 37 20 10 5 1 0 -2 -2 -3 -3 -3 -3 -3 -3 -3 -3 -3 -3 -3 -3 -3 -3 -3 -1 7 38 95 
95 38 7 -1 -3 -3 -3 -3 -3 -3 -3 -3 -3 -3 -3 -3 -2 -1 -1 -1 -1 -1 -1 0 0 1 4 6 7 7 7 8 11 18 27 34 37 38 38 39 41 47 61 79 89 93 95 95 97 101 108 108 101 97 95 95 95 93 89 79 63 57 77 120 112 52 15 3 0 2 8 17 30 44 63 88 106 108 97 81 58 36 19 8 2 0 -1 -2 -3 -3 -3 -3 -3 -3 -3 -3 -3 -3 -3 -3 -3 -3 -3 -3 -3 -3 -1 7 38 95 
95 38 7 -1 -3 -3 -3 -3 -3 -3 -3 -3 -3 -3 -3 -3 -3 -3 -3 -3 -3 -3 -3 -3 -3 -2 -1 -1 -1 -1 -1 0 0 1 4 6 7 7 7 7 8 11 18 27 34 37 38 39 41 47 61 79 89 93 95 95 95 97 101 108 109 107 119 144 134 79 35 16 13 21 37 58 81 97 108 106 88 63 44 30 17 8 2 0 -2 -2 -3 -3 -3 -3 -3 -3 -3 -3 -3 -3 -3 -3 -3 -3 -3 -3 -3 -3 -3 -3 -1 7 38 95 
95 38 7 -1 -3 -3 -3 -3 -3 -3 -3 -3 -3 -3 -3 -3 -3 -3 -3 -3 -3 -3 -3 -3 -3 -3 -3 -3 -3 -3 -3 -3 -3 -2 -1 -1 -1 -1 -1 -1 0 0 1 4 6 7 7 7 8 11 18 27 34 37 38 38 39 41 47 61 79 91 101 115 127 113 78 55 51 65 88 106 108 97 81 58 37 20 10 5 1 0 -2 -3 -3 -3 -3 -3 -3 -3 -3 -3 -3 -3 -3 -3 -3 -3 -3 -3 -3 -3 -3 -3 -3 -3 -1 7 38 95 
95 38 7 -1 -3 -3 -3 -3 -3 -3 -3 -3 -3 -3 -3 -3 -3 -3 -3 -3 -3 -3 -3 -3 -3 -3 -3 -3 -3 -3 -3 -3 -3 -3 -3 -3 -3 -3 -3 -3 -3 -3 -2 -1 -1 -1 -1 -1 0 0 1 4 6 7 7 7 7 8 11 18 27 35 40 52 78 113 128 118 110 111 106 88 63 44 30 17 8 2 0 -1 -2 -3 -3 -3 -3 -3 -3 -3 -3 -3 -3 -3 -3 -3 -3 -3 -3 -3 -3 -3 -3 -3 -3 -3 -3 -3 -1 7 38 95 
95 38 7 -1 -3 -3 -3 -3 -3 -3 -3 -3 -3 -3 -3 -3 -3 -3 -3 -3 -3 -3 -3 -3 -3 -3 -3 -3 -3 -3 -3 -3 -3 -3 -3 -3 -3 -3 -3 -3 -3 -3 -3 -3 -3 -3 -3 -3 -3 -2 -2 -1 -1 -1 -1 -1 -1 0 0 1 4 6 9 15 35 79 134 143 113 85 59 37 20 11 5 1 0 -2 -2 -3 -3 -3 -3 -3 -3 -3 -3 -3 -3 -3 -3 -3 -3 -3 -3 -3 -3 -3 -3 -3 -3 -3 -3 -3 -3 -3 -1 7 38 95 
95 38 8 0 -2 -3 -3 -3 -3 -3 -3 -3 -3 -3 -3 -3 -3 -3 -3 -3 -3 -3 -3 -3 -3 -3 -3 -3 -3 -3 -3 -3 -3 -3 -3 -3 -3 -3 -3 -3 -3 -3 -3 -3 -3 -3 -3 -3 -3 -3 -3 -2 -2 -2 -2 -2 -2 -2 -2 -2 -1 0 0 3 16 52 112 119 71 37 19 9 3 0 -1 -2 -2 -3 -3 -3 -3 -3 -3 -3 -3 -3 -3 -3 -3 -3 -3 -3 -3 -3 -3 -3 -3 -3 -3 -3 -3 -3 -3 -3 -3 -2 0 8 38 95 
97 40 10 1 0 -1 -1 -1 -1 -1 -1 -1 -1 -1 -1 -1 -1 -1 -1 -1 -1 -1 -1 -1 -1 -1 -1 -1 -1 -1 -1 -1 -1 -1 -1 -1 -1 -1 -1 -1 -1 -1 -1 -1 -1 -1 -1 -1 -1 -1 -1 -1 -1 -1 -1 -1 -1 -1 -1 -1 0 0 0 1 11 44 101 103 49 17 6 1 0 0 0 -1 -1 -1 -1 -1 -1 -1 -1 -1 -1 -1 -1 -1 -1 -1 -1 -1 -1 -1 -1 -1 -1 -1 -1 -1 -1 -1 -1 -1 -1 0 1 10 40 97 
102 48 18 10 8 7 7 7 7 7 7 7 7 7 7 7 7 7 7 7 7 7 7 7 7 7 7 7 7 7 7 7 7 7 7 7 7 7 7 7 7 7 7 7 7 7 7 7 7 7 7 7 7 7 7 7 7 7 7 7 7 7 8 10 19 49 104 104 50 20 11 8 8 7 7 7 7 7 7 7 7 7 7 7 7 7 7 7 7 7 7 7 7 7 7 7 7 7 7 7 7 7 7 7 7 7 9 18 48 102 
122 74 48 40 38 38 38 38 38 38 38 38 38 38 38 38 38 38 38 38 38 38 38 38 38 38 38 38 38 38 38 38 38 38 38 38 38 38 38 38 38 38 38 38 38 38 38 38 38 38 38 38 38 38 38 38 38 38 38 38 38 38 38 40 48 74 121 121 75 48 40 38 38 38 38 38 38 38 38 38 38 38 38 38 38 38 38 38 38 38 38 38 38 38 38 38 38 38 38 38 38 38 38 38 38 38 40 48 74 122 
155 122 102 97 95 95 95 95 95 95 95 95 95 95 95 95 95 95 95 95 95 95 95 95 95 95 95 95 95 95 96 98 101 103 101 97 96 95 95 95 95 95 95 95 95 95 95 96 99 103 103 99 96 95 95 95 95 95 95 95 95 95 95 96 101 117 142 142 117 101 96 95 95 95 95 95 95 95 95 95 95 95 95 95 95 95 95 95 95 96 97 101 103 101 98 96 95 95 95 95 95 96 97 100 103 101 99 103 122 155 
