P2
110 110
255
154 123 104 97 96 95 95 95 95 95 95 95 95 95 95 95 95 95 95 95 95 95 95 95 95 95 95 95 96 98 104 118 139 145 127 108 99 96 95 95 95 95 95 95 95 96 97 102 118 142 142 118 102 97 96 95 95 95 95 95 95 95 95 96 96 99 103 103 99 96 96 95 95 95 95 95 95 95 95 95 95 95 95 95 95 95 95 96 97 101 113 135 146 129 109 99 96 95 95 95 96 100 111 133 146 130 111 108 124 154 
123 79 52 43 41 41 41 41 41 41 41 41 41 41 41 41 41 41 41 41 41 41 41 41 41 41 41 41 42 48 64 97 129 119 81 55 44 41 41 41 41 41 41 41 41 41 44 53 81 125 123 78 52 43 41 41 41 41 41 41 41 41 41 41 40 40 40 40 40 40 41 41 41 41 41 41 41 41 41 41 41 41 41 41 41 41 41 41 44 54 81 121 126 88 57 45 42 41 41 41 43 50 72 114 129 92 61 57 80 123 
104 52 21 12 10 9 9 9 9 9 9 9 9 9 9 9 9 9 9 9 9 9 9 9 9 9 9 10 14 25 54 98 113 76 37 18 11 9 9 9 9 9 9 9 9 10 13 26 62 114 106 52 21 12 10 9 9 9 9 9 9 9 9 9 9 9 9 9 9 9 9 9 9 9 9 9 9 9 9 9 9 9 9 9 9 9 9 10 15 32 72 113 94 47 21 12 10 9 9 10 12 22 51 102 107 58 27 25 53 104 
97 43 12 2 0 0 0 0 0 0 0 0 0 0 0 0 0 0 0 0 0 0 0 0 0 0 0 2 10 32 74 109 89 42 14 3 0 0 0 0 0 0 0 0 0 1 6 25 70 123 102 43 12 2 0 0 0 0 0 0 0 0 0 0 0 0 0 0 0 0 0 0 0 0 0 0 0 0 0 0 0 0 0 0 0 0 0 1 10 35 84 108 67 24 6 1 0 0 0 0 3 16 51 102 93 41 14 15 44 97 
96 41 10 0 -2 -2 -2 -2 -2 -2 -2 -2 -2 -2 -2 -2 -2 -2 -2 -2 -2 -2 -2 -2 -2 -2 0 4 21 57 101 100 57 20 4 -1 -2 -2 -2 -2 -2 -2 -2 -2 -1 0 11 40 95 139 103 40 9 0 -2 -2 -2 -2 -2 -2 -2 -2 -2 -2 -2 -2 -2 -2 -2 -2 -2 -2 -2 -2 -2 -2 -2 -2 -2 -2 -2 -2 -2 -2 -2 -2 -1 1 13 47 98 97 47 13 1 -1 -2 -2 -2 -1 3 21 63 107 80 31 9 12 41 96 
95 41 9 0 -2 -3 -3 -3 -3 -3 -3 -3 -3 -3 -3 -3 -3 -3 -3 -3 -3 -3 -3 -3 -2 -2 1 12 42 88 107 71 29 7 0 -2 -3 -3 -3 -3 -3 -3 -3 -2 -1 3 21 63 120 145 103 41 9 0 -2 -3 -3 -3 -3 -3 -3 -3 -3 -3 -3 -3 -3 -3 -3 -3 -3 -3 -3 -3 -3 -3 -3 -3 -3 -3 -3 -3 -3 -3 -3 -2 -1 4 23 66 107 81 32 7 0 -2 -3 -3 -2 -1 6 30 80 107 63 21 5 10 41 95 
95 41 9 0 -2 -3 -3 -3 -3 -3 -3 -3 -3 -3 -3 -3 -3 -3 -3 -3 -3 -3 -3 -3 -2 0 7 29 71 107 88 42 12 1 -2 -3 -3 -3 -3 -3 -3 -3 -3 -2 0 10 39 91 130 138 103 43 10 0 -2 -3 -3 -3 -3 -3 -3 -3 -3 -3 -3 -3 -3 -3 -3 -3 -3 -3 -3 -3 -3 -3 -3 -3 -3 -3 -3 -3 -3 -3 -3 -2 0 10 39 89 105 60 19 2 -1 -3 -3 -3 -2 0 9 39 92 100 49 13 3 10 41 95 
95 41 9 0 -2 -3 -3 -3 -3 -3 -3 -3 -3 -3 -3 -3 -3 -3 -3 -3 -3 -3 -3 -2 -1 3 20 57 100 100 57 20 3 -1 -2 -3 -3 -3 -3 -3 -3 -3 -2 -1 4 22 63 110 120 123 106 50 13 0 -2 -3 -3 -3 -3 -3 -3 -3 -3 -3 -3 -3 -3 -3 -3 -3 -3 -3 -3 -3 -3 -3 -3 -3 -3 -3 -3 -3 -3 -3 -3 -1 2 19 60 105 89 39 10 0 -2 -3 -3 -3 -2 0 13 49 100 92 39 9 2 10 41 95 
95 41 9 0 -2 -3 -3 -3 -3 -3 -3 -3 -3 -3 -3 -3 -3 -3 -3 -3 -3 -3 -3 -2 1 12 42 88 107 71 29 7 0 -2 -3 -3 -3 -3 -3 -3 -3 -3 -2 1 13 43 90 111 93 101 110 63 20 2 -1 -3 -3 -3 -3 -3 -3 -3 -3 -3 -3 -3 -3 -3 -3 -3 -3 -3 -3 -3 -3 -3 -3 -3 -3 -3 -3 -3 -3 -3 -2 0 7 32 81 107 66 23 4 -1 -2 -3 -3 -3 -1 2 20 63 107 80 30 6 1 9 41 95 
95 41 9 0 -2 -3 -3 -3 -3 -3 -3 -3 -3 -3 -3 -3 -3 -3 -3 -3 -3 -3 -2 0 7 29 71 107 88 42 12 1 -2 -3 -3 -3 -3 -3 -3 -3 -3 -2 0 7 29 71 107 91 61 76 109 79 29 5 -1 -2 -3 -3 -3 -3 -3 -3 -3 -3 -3 -3 -3 -3 -3 -3 -3 -3 -3 -3 -3 -3 -3 -3 -3 -3 -3 -3 -3 -3 -2 0 13 46 97 97 46 13 0 -2 -3 -3 -3 -2 -1 6 30 80 107 63 20 3 0 9 41 95 
95 41 9 0 -2 -3 -3 -3 -3 -3 -3 -3 -3 -3 -3 -3 -3 -3 -3 -3 -3 -2 -1 3 20 57 100 100 57 20 3 -1 -2 -3 -3 -3 -3 -3 -3 -3 -2 -1 3 19 56 100 101 60 36 56 103 89 36 8 0 -2 -3 -3 -3 -3 -3 -3 -3 -3 -3 -3 -3 -3 -3 -3 -3 -3 -3 -3 -3 -3 -3 -3 -3 -3 -3 -3 -3 -2 -1 4 23 66 107 81 32 7 0 -2 -3 -3 -3 -2 0 9 39 92 100 49 13 1 0 9 41 95 
96 41 9 0 -2 -3 -3 -3 -3 -3 -3 -3 -3 -3 -3 -3 -3 -3 -3 -3 -3 -2 1 12 42 88 107 71 29 7 0 -2 -3 -3 -3 -3 -3 -3 -3 -3 -2 0 10 38 86 107 72 32 21 46 98 94 39 9 0 -2 -3 -3 -3 -3 -3 -3 -3 -3 -3 -3 -3 -3 -3 -3 -3 -3 -3 -3 -3 -3 -3 -3 -3 -3 -3 -3 -3 -2 0 10 39 89 105 60 19 2 -1 -3 -3 -3 -3 -2 0 13 49 100 92 39 9 0 0 9 41 95 
99 44 11 0 -2 -3 -3 -3 -3 -3 -3 -3 -3 -3 -3 -3 -3 -3 -3 -3 -2 0 7 29 71 107 88 42 12 1 -2 -3 -3 -3 -3 -3 -3 -3 -3 -2 -1 3 22 63 105 90 43 16 14 42 96 95 41 9 0 -2 -3 -3 -3 -3 -3 -3 -3 -3 -3 -3 -3 -3 -3 -3 -3 -3 -3 -3 -3 -3 -3 -3 -3 -3 -3 -3 -3 -1 2 19 60 105 89 39 10 0 -2 -3 -3 -3 -3 -1 2 20 63 107 80 30 6 0 0 9 41 96 
108 55 17 2 -1 -2 -3 -3 -3 -3 -3 -3 -3 -3 -3 -3 -3 -3 -3 -2 -1 3 20 57 100 100 57 20 3 -1 -2 -3 -3 -3 -3 -3 -3 -3 -3 -2 0 10 40 88 105 63 23 7 11 40 94 97 43 10 0 -2 -3 -3 -3 -3 -3 -3 -3 -3 -3 -3 -3 -3 -3 -3 -3 -3 -3 -3 -3 -3 -3 -3 -3 -3 -3 -3 -2 0 7 32 81 107 66 23 4 -1 -2 -3 -3 -3 -2 -1 6 30 80 107 63 20 3 -1 0 9 40 98 
127 80 34 10 1 -2 -3 -3 -3 -3 -3 -3 -3 -3 -3 -3 -3 -3 -3 -2 1 12 42 88 107 71 29 7 0 -2 -3 -3 -3 -3 -3 -3 -3 -3 -2 -1 4 22 63 105 88 40 11 2 8 36 89 101 50 13 0 -2 -3 -3 -3 -3 -3 -3 -3 -3 -3 -3 -3 -3 -3 -3 -3 -3 -3 -3 -3 -3 -3 -3 -3 -3 -3 -3 -2 0 13 46 97 97 46 13 0 -2 -3 -3 -3 -3 -2 0 9 39 92 100 49 13 0 -1 0 9 40 101 
145 117 68 30 9 0 -2 -3 -3 -3 -3 -3 -3 -3 -3 -3 -3 -3 -2 0 7 29 71 107 88 42 12 1 -2 -3 -3 -3 -3 -3 -3 -3 -3 -3 -2 1 13 43 90 105 63 22 4 0 6 29 79 107 63 20 2 -1 -3 -3 -3 -3 -3 -3 -3 -3 -3 -3 -3 -3 -3 -3 -3 -3 -3 -3 -3 -3 -3 -3 -3 -3 -3 -2 -1 4 23 66 107 81 32 7 0 -2 -3 -3 -3 -3 -2 0 13 49 100 92 39 9 0 -2 0 9 40 103 
140 131 106 65 27 7 0 -2 -3 -3 -3 -3 -3 -3 -3 -3 -3 -2 -1 3 20 57 100 100 57 20 3 -1 -2 -3 -3 -3 -3 -3 -3 -3 -3 -2 0 7 29 71 107 86 38 10 0 -1 3 20 63 107 79 29 5 -1 -2 -3 -3 -3 -3 -3 -3 -3 -3 -3 -3 -3 -3 -3 -3 -3 -3 -3 -3 -3 -3 -3 -3 -3 -3 -2 0 10 39 89 105 60 19 2 -1 -3 -3 -3 -3 -3 -1 2 20 63 107 80 30 6 -1 -2 0 9 40 102 
121 107 112 100 56 20 4 -1 -2 -3 -3 -3 -3 -3 -3 -3 -3 -2 1 12 42 88 107 71 29 7 0 -2 -3 -3 -3 -3 -3 -3 -3 -3 -2 -1 3 19 56 100 100 56 19 3 -1 -2 0 13 50 101 89 36 8 0 -2 -3 -3 -3 -3 -3 -3 -3 -3 -3 -3 -3 -3 -3 -3 -3 -3 -3 -3 -3 -3 -3 -3 -3 -3 -1 2 19 60 105 89 39 10 0 -2 -3 -3 -3 -3 -2 -1 6 30 80 107 63 20 2 -1 -2 0 9 40 99 
106 76 85 109 88 42 13 2 -1 -2 -3 -3 -3 -3 -3 -3 -2 0 7 29 71 107 88 42 12 1 -2 -3 -3 -3 -3 -3 -3 -3 -3 -3 -2 0 10 38 86 107 71 29 7 0 -2 -2 0 10 43 97 94 39 9 0 -2 -3 -3 -3 -3 -3 -3 -3 -3 -3 -3 -3 -3 -3 -3 -3 -3 -3 -3 -3 -3 -3 -3 -3 -2 0 7 32 81 107 66 23 4 -1 -2 -3 -3 -3 -3 -2 0 9 39 92 100 49 13 0 -2 -2 0 9 41 97 
100 57 54 90 107 73 33 10 1 -1 -2 -3 -3 -3 -3 -2 -1 3 20 57 100 100 57 20 3 -1 -2 -3 -3 -3 -3 -3 -3 -3 -3 -2 -1 3 22 63 105 90 43 13 1 -2 -2 -2 0 9 41 95 95 41 9 0 -2 -3 -3 -3 -3 -3 -3 -3 -3 -3 -3 -3 -3 -3 -3 -3 -3 -3 -3 -3 -3 -3 -3 -3 -2 0 13 46 97 97 46 13 0 -2 -3 -3 -3 -3 -3 -2 0 13 49 100 92 39 9 0 -2 -2 0 9 41 96 
97 48 33 59 99 103 68 31 10 1 -1 -2 -3 -3 -3 -2 1 12 42 88 107 71 29 7 0 -2 -3 -3 -3 -3 -3 -3 -3 -3 -3 -2 0 10 40 88 105 63 22 4 -1 -2 -3 -2 0 9 39 94 97 43 10 0 -2 -3 -3 -3 -3 -3 -3 -3 -3 -3 -3 -3 -3 -3 -3 -3 -3 -3 -3 -3 -3 -3 -3 -2 -1 4 23 66 107 81 32 7 0 -2 -3 -3 -3 -3 -3 -1 2 20 63 107 80 30 6 -1 -2 -2 0 9 41 95 
96 43 19 30 65 102 102 67 31 10 1 -1 -2 -3 -2 0 7 29 71 107 88 42 12 1 -2 -3 -3 -3 -3 -3 -3 -3 -3 -3 -2 -1 4 22 63 105 88 40 10 0 -2 -3 -3 -2 0 8 36 89 101 50 13 0 -2 -3 -3 -3 -3 -3 -3 -3 -3 -3 -3 -3 -3 -3 -3 -3 -3 -3 -3 -3 -3 -3 -3 -2 0 10 39 89 105 60 19 2 -1 -3 -3 -3 -3 -3 -2 -1 6 30 80 107 63 20 2 -1 -2 -2 0 9 41 95 
95 42 13 12 30 67 102 102 67 31 10 1 -1 -2 -1 3 20 57 100 100 57 20 3 -1 -2 -3 -3 -3 -3 -3 -3 -3 -3 -3 -2 1 13 43 90 105 63 22 3 -1 -2 -3 -3 -2 -1 5 29 79 107 63 20 2 -1 -3 -3 -3 -3 -3 -3 -3 -3 -3 -3 -3 -3 -3 -3 -3 -3 -3 -3 -3 -3 -3 -3 -1 2 19 60 105 89 39 10 0 -2 -3 -3 -3 -3 -3 -2 0 9 39 92 100 49 13 0 -2 -3 -2 0 9 41 95 
95 41 10 3 10 31 67 102 102 67 31 10 1 0 1 12 42 88 107 71 29 7 0 -2 -3 -3 -3 -3 -3 -3 -3 -3 -3 -2 0 7 29 71 107 86 38 10 0 -2 -3 -3 -3 -3 -1 2 20 63 107 79 29 5 -1 -2 -3 -3 -3 -3 -3 -3 -3 -3 -3 -3 -3 -3 -3 -3 -3 -3 -3 -3 -3 -3 -2 0 7 32 81 107 66 23 4 -1 -2 -3 -3 -3 -3 -3 -2 0 13 49 100 92 39 9 0 -2 -3 -2 0 9 41 95 
95 41 9 0 1 10 31 67 102 102 67 31 10 4 8 30 71 107 88 42 12 1 -2 -3 -3 -3 -3 -3 -3 -3 -3 -3 -2 -1 3 19 56 100 100 56 19 3 -1 -2 -3 -3 -3 -3 -2 0 13 50 101 90 36 8 0 -2 -3 -3 -3 -3 -3 -3 -3 -3 -3 -3 -3 -3 -3 -3 -3 -3 -3 -3 -3 -3 -2 0 13 46 97 97 46 13 0 -2 -3 -3 -3 -3 -3 -3 -1 2 20 63 107 80 30 6 -1 -2 -3 -2 0 9 41 95 
95 41 9 0 -1 1 10 31 67 102 102 67 32 17 25 58 100 100 57 20 3 -1 -2 -3 -3 -3 -3 -3 -3 -3 -3 -3 -2 0 10 38 86 107 71 29 7 0 -2 -3 -3 -3 -3 -3 -2 0 10 43 97 94 40 9 0 -2 -3 -3 -3 -3 -3 -3 -3 -3 -3 -3 -3 -3 -3 -3 -3 -3 -3 -3 -3 -2 -1 4 23 66 107 81 32 7 0 -2 -3 -3 -3 -3 -3 -2 -1 6 30 80 107 63 20 2 -1 -3 -3 -2 0 9 41 95 
95 41 9 0 -2 -1 1 10 31 67 102 103 71 46 54 91 107 71 29 7 0 -2 -3 -3 -3 -3 -3 -3 -3 -3 -3 -2 -1 3 22 63 105 90 43 13 1 -2 -3 -3 -3 -3 -3 -3 -2 0 9 40 94 97 43 10 0 -2 -3 -3 -3 -3 -3 -3 -3 -3 -3 -3 -3 -3 -3 -3 -3 -3 -3 -3 -3 -2 0 10 39 89 105 60 19 2 -1 -3 -3 -3 -3 -3 -3 -2 0 9 39 92 100 49 13 0 -2 -3 -3 -2 0 9 41 95 
95 41 9 0 -2 -2 -1 1 10 31 67 103 109 94 98 113 88 42 12 1 -2 -3 -3 -3 -3 -3 -3 -3 -3 -3 -3 -2 0 10 40 88 105 63 22 4 -1 -2 -3 -3 -3 -3 -3 -3 -2 0 8 36 90 101 50 13 0 -2 -3 -3 -3 -3 -3 -3 -3 -3 -3 -3 -3 -3 -3 -3 -3 -3 -3 -3 -3 -1 2 19 60 105 89 39 10 0 -2 -3 -3 -3 -3 -3 -3 -2 0 13 49 100 92 39 9 0 -2 -3 -3 -2 0 9 41 95 
95 41 9 0 -2 -3 -2 -1 1 10 31 68 111 136 136 108 57 20 3 -1 -2 -3 -3 -3 -3 -3 -3 -3 -3 -3 -2 -1 4 22 63 105 88 40 10 0 -2 -3 -3 -3 -3 -3 -3 -3 -2 -1 5 29 79 107 63 20 2 -1 -3 -3 -3 -3 -3 -3 -3 -3 -3 -3 -3 -3 -3 -3 -3 -3 -3 -3 -2 0 7 32 81 107 66 23 4 -1 -2 -3 -3 -3 -3 -3 -3 -1 2 20 63 107 80 30 6 -1 -2 -3 -3 -2 0 9 41 95 
95 41 9 0 -2 -3 -3 -2 -1 1 10 34 80 132 133 78 31 7 0 -2 -3 -3 -3 -3 -3 -3 -3 -3 -3 -3 -2 1 13 43 90 105 63 22 3 -1 -2 -3 -3 -3 -3 -3 -3 -3 -3 -1 2 20 63 107 79 29 5 -1 -2 -3 -3 -3 -3 -3 -3 -3 -3 -3 -3 -3 -3 -3 -3 -3 -3 -3 -2 0 13 46 97 97 46 13 0 -2 -3 -3 -3 -3 -3 -3 -2 -1 6 30 80 107 63 20 2 -1 -3 -3 -3 -2 0 9 41 95 
95 41 9 0 -2 -3 -3 -3 -2 -1 2 17 53 110 113 57 17 2 -1 -3 -3 -3 -3 -3 -3 -3 -3 -3 -3 -2 0 7 29 71 107 86 38 10 0 -2 -3 -3 -3 -3 -3 -3 -3 -3 -3 -2 0 13 50 101 89 36 8 0 -2 -3 -3 -3 -3 -3 -3 -3 -3 -3 -3 -3 -3 -3 -3 -3 -3 -2 -1 4 23 66 107 81 32 7 0 -2 -3 -3 -3 -3 -3 -3 -2 0 9 39 92 100 49 13 0 -2 -3 -3 -3 -2 0 9 41 95 
95 41 9 0 -2 -3 -3 -3 -3 -2 0 10 40 94 106 54 15 1 -2 -3 -3 -3 -3 -3 -3 -3 -3 -3 -2 -1 3 19 56 100 100 56 19 3 -1 -2 -3 -3 -3 -3 -3 -3 -3 -3 -3 -2 0 10 43 97 94 39 9 0 -2 -3 -3 -3 -3 -3 -3 -3 -3 -3 -3 -3 -3 -3 -3 -3 -3 -2 0 10 39 89 105 60 19 2 -1 -3 -3 -3 -3 -3 -3 -3 -2 0 13 49 100 92 39 9 0 -2 -3 -3 -3 -2 0 9 41 95 
95 41 9 0 -2 -3 -3 -3 -3 -2 -1 6 30 80 108 64 20 3 -1 -3 -3 -3 -3 -3 -3 -3 -3 -3 -2 0 10 38 86 107 71 29 7 0 -2 -3 -3 -3 -3 -3 -3 -3 -3 -3 -3 -2 0 9 41 95 95 41 9 0 -2 -3 -3 -3 -3 -3 -3 -3 -3 -3 -3 -3 -3 -3 -3 -3 -3 -1 2 19 60 105 89 39 10 0 -2 -3 -3 -3 -3 -3 -3 -3 -1 2 20 63 107 80 30 6 -1 -2 -3 -3 -3 -2 0 9 41 95 
95 41 9 0 -2 -3 -3 -3 -3 -3 -1 2 20 63 107 80 29 5 -1 -2 -3 -3 -3 -3 -3 -3 -3 -2 -1 3 22 63 105 90 43 13 1 -2 -3 -3 -3 -3 -3 -3 -3 -3 -3 -3 -3 -2 0 9 39 94 97 43 10 0 -2 -3 -3 -3 -3 -3 -3 -3 -3 -3 -3 -3 -3 -3 -3 -3 -2 0 7 32 81 107 66 23 4 -1 -2 -3 -3 -3 -3 -3 -3 -2 -1 6 30 80 107 63 20 2 -1 -3 -3 -3 -3 -2 0 9 41 95 
95 41 9 0 -2 -3 -3 -3 -3 -3 -2 0 13 50 101 90 37 8 0 -2 -3 -3 -3 -3 -3 -3 -3 -2 0 10 40 88 105 63 22 4 -1 -2 -3 -3 -3 -3 -3 -3 -3 -3 -3 -3 -3 -2 0 8 36 89 101 50 13 0 -2 -3 -3 -3 -3 -3 -3 -3 -3 -3 -3 -3 -3 -3 -3 -3 -2 0 13 46 97 97 46 13 0 -2 -3 -3 -3 -3 -3 -3 -3 -2 0 9 39 92 100 49 13 0 -2 -3 -3 -3 -3 -2 0 9 41 96 
96 40 9 0 -2 -3 -3 -3 -3 -3 -2 0 10 42 96 96 42 10 0 -2 -3 -3 -3 -3 -3 -3 -2 -1 4 22 63 105 88 40 10 0 -2 -3 -3 -3 -3 -3 -3 -3 -3 -3 -3 -3 -3 -2 -1 5 29 79 107 63 20 2 -1 -3 -3 -3 -3 -3 -3 -3 -3 -3 -3 -3 -3 -3 -3 -2 -1 4 23 66 107 81 32 7 0 -2 -3 -3 -3 -3 -3 -3 -3 -2 0 13 49 100 92 39 9 0 -2 -3 -3 -3 -3 -2 0 10 44 98 
97 40 9 0 -2 -3 -3 -3 -3 -3 -2 0 8 37 90 101 50 13 0 -2 -3 -3 -3 -3 -3 -3 -2 1 13 43 90 105 63 22 3 -1 -2 -3 -3 -3 -3 -3 -3 -3 -3 -3 -3 -3 -3 -3 -1 2 20 63 107 79 29 5 -1 -2 -3 -3 -3 -3 -3 -3 -3 -3 -3 -3 -3 -3 -3 -2 0 10 39 89 105 60 19 2 -1 -3 -3 -3 -3 -3 -3 -3 -3 -1 2 20 63 107 80 30 6 -1 -2 -3 -3 -3 -3 -2 1 14 51 106 
100 40 9 0 -2 -3 -3 -3 -3 -3 -2 -1 5 29 79 107 63 20 2 -1 -3 -3 -3 -3 -3 -2 0 7 29 71 107 86 38 10 0 -2 -3 -3 -3 -3 -3 -3 -3 -3 -3 -3 -3 -3 -3 -3 -2 0 13 50 101 89 36 8 0 -2 -3 -3 -3 -3 -3 -3 -3 -3 -3 -3 -3 -3 -3 -1 2 19 60 105 89 39 10 0 -2 -3 -3 -3 -3 -3 -3 -3 -2 -1 6 30 80 107 63 20 2 -1 -3 -3 -3 -3 -2 -1 4 23 68 121 
103 40 9 0 -2 -3 -3 -3 -3 -3 -3 -1 2 20 63 107 79 29 5 -1 -2 -3 -3 -3 -2 -1 3 19 56 100 100 56 19 3 -1 -2 -3 -3 -3 -3 -3 -3 -3 -3 -3 -3 -3 -3 -3 -3 -2 0 10 43 97 94 39 9 0 -2 -3 -3 -3 -3 -3 -3 -3 -3 -3 -3 -3 -3 -2 0 7 32 81 107 66 23 4 -1 -2 -3 -3 -3 -3 -3 -3 -3 -2 0 9 39 92 100 49 13 0 -2 -3 -3 -3 -3 -2 1 12 42 96 139 
102 40 9 0 -2 -3 -3 -3 -3 -3 -3 -2 0 13 50 101 90 37 8 0 -2 -3 -3 -3 -2 0 10 38 86 107 71 29 7 0 -2 -3 -3 -3 -3 -3 -3 -3 -3 -3 -3 -3 -3 -3 -3 -3 -2 0 9 41 95 95 41 9 0 -2 -3 -3 -3 -3 -3 -3 -3 -3 -3 -3 -3 -3 -2 0 13 46 97 97 46 13 0 -2 -3 -3 -3 -3 -3 -3 -3 -3 -2 0 13 49 100 92 39 9 0 -2 -3 -3 -3 -2 0 7 29 72 123 145 
100 40 9 0 -2 -3 -3 -3 -3 -3 -3 -2 0 10 42 96 96 42 10 0 -2 -3 -3 -2 -1 3 22 63 105 90 43 13 1 -2 -3 -3 -3 -3 -3 -3 -3 -3 -3 -3 -3 -3 -3 -3 -3 -3 -2 0 9 39 94 97 43 10 0 -2 -3 -3 -3 -3 -3 -3 -3 -3 -3 -3 -3 -2 -1 4 23 66 107 81 32 7 0 -2 -3 -3 -3 -3 -3 -3 -3 -3 -1 2 20 63 107 80 30 6 -1 -2 -3 -3 -2 -1 3 20 57 104 130 136 
98 40 9 0 -2 -3 -3 -3 -3 -3 -3 -2 0 8 37 90 101 50 13 0 -2 -3 -3 -2 0 10 40 88 105 63 22 4 -1 -2 -3 -3 -3 -3 -3 -3 -3 -3 -3 -3 -3 -3 -3 -3 -3 -3 -2 0 8 36 89 101 50 13 0 -2 -3 -3 -3 -3 -3 -3 -3 -3 -3 -3 -3 -2 0 10 39 89 105 60 19 2 -1 -3 -3 -3 -3 -3 -3 -3 -3 -2 -1 6 30 80 107 63 20 2 -1 -3 -3 -3 -2 1 12 42 88 115 110 120 
97 41 9 0 -2 -3 -3 -3 -3 -3 -3 -2 -1 5 29 79 107 63 20 2 -1 -2 -2 -1 4 22 63 105 88 40 10 0 -2 -3 -3 -3 -3 -3 -3 -3 -3 -3 -3 -3 -3 -3 -3 -3 -3 -3 -2 -1 5 29 79 107 63 20 3 -1 -2 -2 -3 -3 -3 -3 -3 -3 -3 -3 -3 -1 2 19 60 105 89 39 10 0 -2 -3 -3 -3 -3 -3 -3 -3 -3 -2 0 9 39 92 100 49 13 0 -2 -3 -3 -2 0 7 29 71 108 98 84 108 
96 41 9 0 -2 -3 -3 -3 -3 -3 -3 -3 -1 2 20 63 107 79 29 5 -1 -2 -2 1 13 43 90 105 63 22 3 -1 -2 -3 -3 -3 -3 -3 -3 -3 -3 -3 -3 -3 -3 -3 -3 -3 -3 -3 -3 -1 3 21 64 108 81 32 8 1 0 -1 -1 -2 -2 -2 -2 -2 -2 -2 -2 0 7 32 81 107 66 23 4 -1 -2 -3 -3 -3 -3 -3 -3 -3 -3 -2 0 13 49 100 92 39 9 0 -2 -3 -2 -1 3 20 57 100 102 69 64 101 
96 41 9 0 -2 -3 -3 -3 -3 -3 -3 -3 -2 0 13 50 101 90 37 8 0 -2 0 7 29 71 107 86 38 10 0 -2 -3 -3 -3 -3 -3 -3 -3 -3 -3 -3 -3 -3 -3 -3 -3 -3 -3 -3 -2 -1 2 16 54 107 98 47 20 11 8 5 2 0 0 0 0 0 -1 -1 -1 1 13 47 97 97 46 13 0 -2 -3 -3 -3 -3 -3 -3 -3 -3 -3 -1 2 20 63 107 80 30 6 -1 -2 -3 -2 1 12 42 88 107 74 42 51 98 
95 41 9 0 -2 -3 -3 -3 -3 -3 -3 -3 -2 0 10 42 96 96 42 10 0 -1 3 19 56 100 100 56 19 3 -1 -2 -3 -3 -3 -3 -3 -3 -3 -3 -3 -3 -3 -3 -3 -3 -3 -3 -3 -2 -2 0 6 22 60 116 120 77 51 42 36 29 20 13 10 9 9 8 5 3 2 7 25 67 107 81 32 7 0 -2 -3 -3 -3 -3 -3 -3 -3 -3 -2 -1 6 30 80 107 63 20 2 -1 -2 -2 0 7 29 71 107 88 44 25 45 96 
95 41 9 0 -2 -3 -3 -3 -3 -3 -3 -3 -2 0 8 37 90 101 50 13 1 1 10 38 86 107 71 29 7 0 -2 -3 -3 -3 -3 -3 -3 -3 -3 -3 -3 -3 -3 -3 -3 -3 -3 -3 -2 -1 1 7 21 46 87 135 143 118 102 95 90 79 63 50 43 41 39 36 29 21 16 22 48 93 106 60 19 2 -1 -3 -3 -3 -3 -3 -3 -3 -3 -3 -2 0 9 39 92 100 49 13 0 -2 -2 -1 3 20 57 100 100 57 23 16 42 96 
95 41 9 0 -2 -3 -3 -3 -3 -3 -3 -3 -2 -1 5 29 79 107 63 20 4 5 22 63 105 90 43 13 1 -2 -3 -3 -3 -3 -3 -3 -3 -3 -3 -3 -3 -3 -3 -3 -3 -3 -2 -2 0 3 12 29 57 90 115 124 115 103 98 98 101 107 107 101 97 95 94 89 79 64 54 60 88 117 93 40 10 0 -2 -3 -3 -3 -3 -3 -3 -3 -3 -3 -2 0 13 49 100 92 39 9 0 -2 -2 1 12 42 88 107 71 30 10 12 41 95 
95 41 9 0 -2 -3 -3 -3 -3 -3 -3 -3 -3 -1 2 20 63 107 80 30 9 12 40 88 105 63 22 4 -1 -2 -3 -3 -3 -3 -3 -3 -3 -3 -3 -3 -3 -3 -3 -3 -3 -2 -1 1 7 20 42 71 100 108 92 68 51 44 42 44 50 63 79 89 94 95 97 101 107 108 106 115 135 132 78 28 5 -1 -2 -3 -3 -3 -3 -3 -3 -3 -3 -3 -1 2 20 63 107 80 30 6 -1 -2 0 7 29 71 107 88 42 13 4 10 41 95 
95 41 9 0 -2 -3 -3 -3 -3 -3 -3 -3 -3 -2 0 13 50 101 90 39 16 25 64 106 88 40 10 0 -2 -3 -3 -3 -3 -3 -3 -3 -3 -3 -3 -3 -3 -3 -3 -3 -2 0 3 12 29 57 88 107 100 72 43 24 14 10 10 10 13 20 29 36 39 41 43 50 63 80 94 111 134 132 79 29 6 0 -2 -3 -3 -3 -3 -3 -3 -3 -3 -2 -1 6 30 80 107 63 20 3 -1 -1 4 20 57 100 100 57 20 4 1 9 41 95 
95 41 9 0 -2 -3 -3 -3 -3 -3 -3 -3 -3 -2 0 10 42 96 97 47 26 46 90 105 63 22 3 -1 -2 -3 -3 -3 -3 -3 -3 -3 -3 -3 -3 -3 -3 -3 -2 -1 0 7 20 41 71 100 107 88 57 29 13 4 1 0 0 0 0 2 5 8 9 9 10 13 20 30 40 56 87 117 95 45 15 3 0 -2 -2 -2 -2 -2 -2 -2 -2 -2 0 9 39 92 100 49 13 1 -1 1 12 42 88 107 71 29 7 0 0 9 41 95 
95 41 9 0 -2 -3 -3 -3 -3 -3 -3 -3 -3 -2 0 8 37 90 103 60 46 75 107 86 38 10 0 -2 -3 -3 -3 -3 -3 -3 -3 -3 -3 -3 -3 -3 -3 -2 -1 1 9 27 56 87 107 100 71 42 20 7 1 -1 -2 -2 -2 -2 -2 -1 -1 0 0 0 0 0 3 6 10 20 46 90 109 75 36 14 5 1 0 0 0 0 0 0 0 0 3 15 51 101 93 40 9 0 0 7 29 71 107 88 42 12 1 -1 0 9 41 95 
95 41 9 0 -2 -3 -3 -3 -3 -3 -3 -3 -3 -2 -1 5 29 80 111 85 79 105 101 56 19 3 -1 -2 -3 -3 -3 -3 -3 -3 -3 -3 -3 -3 -3 -2 -2 0 4 13 32 65 99 107 88 57 29 12 3 0 -2 -2 -3 -3 -3 -3 -3 -3 -2 -2 -2 -2 -2 -2 -1 -1 0 5 21 58 103 110 77 44 24 14 10 9 9 9 9 9 9 10 15 31 72 112 84 33 8 1 4 20 57 100 100 57 20 3 -1 -2 0 9 41 95 
95 41 9 0 -2 -3 -3 -3 -3 -3 -3 -3 -3 -3 -1 2 20 63 113 115 113 111 71 29 7 0 -2 -3 -3 -3 -3 -3 -3 -3 -3 -3 -3 -3 -2 -1 1 7 20 42 73 103 103 73 42 20 7 1 -1 -2 -3 -3 -3 -3 -3 -3 -3 -3 -3 -3 -3 -3 -3 -3 -3 -2 -2 0 8 31 77 125 127 97 68 51 44 41 41 41 41 41 41 42 48 68 107 125 80 32 10 6 14 42 88 107 71 29 7 0 -2 -2 0 9 41 95 
95 41 9 0 -2 -3 -3 -3 -3 -3 -3 -3 -3 -3 -2 0 13 50 109 137 129 92 42 13 1 -2 -3 -3 -3 -3 -3 -3 -3 -3 -3 -3 -2 -2 0 3 12 29 57 88 107 99 65 32 13 4 0 -2 -2 -3 -3 -3 -3 -3 -3 -3 -3 -3 -3 -3 -3 -3 -3 -3 -3 -3 -2 -1 2 17 57 119 145 129 113 103 98 96 95 95 95 95 96 97 101 115 140 140 96 52 27 21 35 73 107 88 42 12 1 -2 -2 -2 0 9 41 95 
95 41 9 0 -2 -3 -3 -3 -3 -3 -3 -3 -3 -3 -2 0 10 43 106 145 120 64 22 4 -1 -2 -3 -3 -3 -3 -3 -3 -3 -3 -3 -2 -1 1 7 20 42 71 100 107 88 56 27 9 1 -1 -2 -3 -3 -3 -3 -3 -3 -3 -3 -3 -3 -3 -3 -3 -3 -3 -3 -3 -3 -3 -3 -2 1 15 54 111 121 95 88 91 94 95 95 95 95 95 95 96 97 102 114 125 117 94 69 59 75 107 103 58 20 4 -1 -2 -3 -2 0 9 41 95 
95 41 9 0 -2 -3 -3 -3 -3 -3 -3 -3 -3 -3 -2 0 9 41 103 139 94 39 10 0 -2 -3 -3 -3 -3 -3 -3 -3 -3 -2 -2 0 3 12 29 57 88 107 101 71 42 20 7 0 -1 -2 -3 -3 -3 -3 -3 -3 -3 -3 -3 -3 -3 -3 -3 -3 -3 -3 -3 -3 -3 -3 -3 -1 3 20 64 110 91 51 38 38 40 40 41 41 41 41 41 41 41 43 51 68 91 107 111 112 124 124 80 33 8 0 -2 -3 -3 -2 0 9 41 95 
95 41 9 0 -2 -3 -3 -3 -3 -3 -3 -3 -3 -3 -2 0 9 40 101 121 68 22 4 -1 -2 -3 -3 -3 -3 -3 -2 -2 -1 0 1 7 19 41 72 102 109 90 59 31 14 4 0 -1 -2 -3 -3 -3 -3 -3 -3 -3 -3 -3 -3 -3 -3 -3 -3 -3 -3 -3 -3 -3 -3 -3 -2 -1 5 29 79 108 66 26 12 9 9 9 9 9 9 9 9 9 9 10 14 23 40 64 92 121 145 126 68 24 4 -1 -2 -3 -3 -2 0 9 41 95 
95 41 9 0 -2 -3 -3 -3 -3 -3 -3 -3 -3 -3 -2 0 9 41 98 106 50 14 1 -2 -3 -3 -3 -3 -2 -2 -1 0 2 7 15 30 57 92 119 118 87 55 32 16 7 2 0 0 -1 -2 -2 -2 -2 -3 -3 -3 -3 -3 -3 -3 -3 -3 -3 -3 -3 -3 -3 -3 -3 -3 -2 0 8 36 90 102 50 15 2 0 0 0 0 0 0 0 0 0 0 0 1 4 10 22 43 76 117 125 80 33 8 0 -2 -3 -3 -2 0 9 41 95 
95 41 9 0 -2 -3 -3 -3 -3 -3 -3 -3 -3 -3 -2 0 10 43 98 97 42 10 0 -2 -3 -3 -2 -2 -1 0 3 10 19 33 49 75 110 138 143 116 81 58 44 32 21 13 9 6 2 0 0 0 -1 -1 -2 -2 -2 -3 -3 -3 -3 -3 -3 -3 -3 -3 -3 -3 -3 -3 -2 0 9 40 94 97 43 10 0 -2 -2 -2 -2 -2 -2 -2 -2 -2 -2 -2 -2 -1 0 4 13 33 70 108 103 58 20 4 -1 -2 -3 -2 0 9 41 95 
95 41 9 0 -2 -3 -3 -3 -3 -3 -3 -3 -3 -3 -2 0 13 50 102 90 37 8 0 -2 -2 -1 0 0 4 10 21 39 60 82 99 113 120 122 125 121 109 99 92 80 63 49 39 30 20 13 10 8 5 2 0 0 -1 -1 -2 -2 -2 -2 -3 -3 -3 -3 -3 -3 -3 -3 -2 0 10 43 97 94 40 9 0 -2 -3 -3 -3 -3 -3 -3 -3 -3 -3 -3 -3 -2 -2 -1 2 11 33 74 108 88 42 12 1 -2 -2 -2 0 9 41 95 
95 41 9 0 -2 -3 -3 -3 -3 -3 -3 -3 -3 -3 -1 2 20 63 107 79 29 6 0 -1 0 2 7 13 23 40 63 88 105 107 98 84 67 59 66 81 91 96 101 107 107 100 92 80 63 50 42 37 29 20 13 9 6 2 0 0 0 -1 -1 -2 -2 -2 -3 -3 -3 -3 -2 0 13 50 101 90 36 8 0 -2 -3 -3 -3 -3 -3 -3 -3 -3 -3 -3 -3 -3 -3 -2 -1 2 13 42 88 107 71 29 7 0 -2 -2 0 9 41 95 
95 41 9 0 -2 -3 -3 -3 -3 -3 -3 -3 -3 -2 -1 5 29 79 107 63 21 4 1 4 10 19 32 46 66 89 105 105 89 66 46 33 22 17 21 29 37 42 50 63 80 92 100 107 107 101 96 90 79 63 49 39 30 20 13 10 8 5 2 0 0 -1 -1 -2 -2 -2 -1 3 20 63 107 79 29 5 -1 -2 -3 -3 -3 -3 -3 -3 -3 -3 -3 -3 -3 -3 -3 -3 -2 -1 4 20 57 100 100 57 20 4 -1 -2 0 9 41 95 
95 41 9 0 -2 -3 -3 -3 -3 -3 -3 -3 -3 -2 0 8 37 90 102 51 17 8 11 22 39 60 81 97 107 105 88 63 40 23 13 7 3 2 3 5 8 10 13 20 30 39 49 63 79 90 96 101 107 107 100 92 80 63 50 42 37 29 20 13 9 6 2 0 0 0 0 7 30 80 107 63 20 2 -1 -3 -3 -3 -3 -3 -3 -3 -3 -3 -3 -3 -3 -3 -3 -3 -3 -2 0 7 29 71 107 88 42 13 1 -1 0 9 41 95 
95 41 9 0 -2 -3 -3 -3 -3 -3 -3 -3 -3 -2 0 10 42 96 99 49 24 25 40 63 88 105 107 97 81 60 39 21 10 4 0 0 -1 -2 -1 -1 0 0 0 2 6 9 13 20 29 37 42 50 63 80 92 100 107 107 101 96 90 79 63 49 39 30 20 13 10 8 8 14 40 91 102 50 13 0 -2 -3 -3 -3 -3 -3 -3 -3 -3 -3 -3 -3 -3 -3 -3 -3 -3 -3 -2 1 12 41 87 107 73 32 9 1 0 9 41 95 
95 41 9 0 -2 -3 -3 -3 -3 -3 -3 -3 -3 -2 1 14 50 105 104 63 51 65 89 105 105 89 66 46 32 19 10 3 0 -1 -2 -2 -3 -3 -3 -2 -2 -2 -2 -1 -1 0 0 2 5 8 10 13 20 30 39 49 63 79 90 96 101 107 107 100 92 80 63 50 42 37 32 32 55 102 99 43 10 0 -2 -3 -3 -3 -3 -3 -3 -3 -3 -3 -3 -3 -3 -3 -3 -3 -3 -3 -2 -1 3 20 56 99 103 65 27 7 2 10 41 95 
95 41 9 0 -2 -3 -3 -3 -3 -3 -3 -3 -2 -1 4 23 68 122 120 96 97 107 106 88 63 40 23 13 7 2 0 -1 -2 -2 -3 -3 -3 -3 -3 -3 -3 -3 -3 -3 -2 -2 -2 -1 -1 0 0 0 2 6 9 13 20 29 37 42 50 63 80 92 100 107 107 101 96 90 82 74 87 119 100 41 9 0 -2 -3 -3 -3 -3 -3 -3 -3 -3 -3 -3 -3 -3 -3 -3 -3 -3 -3 -3 -2 0 7 27 65 103 99 56 20 6 11 41 95 
95 41 9 0 -2 -3 -3 -3 -3 -3 -3 -3 -2 0 10 39 95 142 138 121 107 88 63 39 22 10 4 0 0 -1 -2 -2 -3 -3 -3 -3 -3 -3 -3 -3 -3 -3 -3 -3 -3 -3 -3 -3 -2 -2 -2 -2 -1 -1 0 0 2 5 8 10 13 20 30 39 49 63 79 90 96 101 109 115 127 143 103 40 9 0 -2 -3 -3 -3 -3 -3 -3 -3 -3 -3 -3 -3 -3 -3 -3 -3 -3 -3 -3 -3 -2 0 9 32 73 107 88 43 16 14 42 96 
95 41 9 0 -2 -3 -3 -3 -3 -3 -3 -2 -1 4 22 64 116 130 109 84 60 39 21 10 3 0 -1 -2 -2 -3 -3 -3 -3 -3 -3 -3 -3 -3 -3 -3 -3 -3 -3 -3 -3 -3 -3 -3 -3 -3 -3 -3 -3 -2 -2 -2 -1 -1 0 0 0 2 6 9 13 20 29 37 42 50 65 88 117 140 103 40 9 0 -2 -3 -3 -3 -3 -3 -3 -3 -3 -3 -3 -3 -3 -3 -3 -3 -3 -3 -3 -3 -3 -1 1 13 42 88 107 73 35 22 44 96 
95 41 9 0 -2 -3 -3 -3 -3 -3 -3 -2 1 13 43 91 113 85 53 33 19 10 3 0 -1 -2 -2 -3 -3 -3 -3 -3 -3 -3 -3 -3 -3 -3 -3 -3 -3 -3 -3 -3 -3 -3 -3 -3 -3 -3 -3 -3 -3 -3 -3 -3 -3 -2 -2 -2 -2 -1 -1 0 0 2 5 8 10 14 23 41 74 117 99 40 9 0 -2 -3 -3 -3 -3 -3 -3 -3 -3 -3 -3 -3 -3 -3 -3 -3 -3 -3 -3 -3 -3 -2 -1 4 20 56 99 103 68 40 51 98 
96 41 9 0 -2 -3 -3 -3 -3 -3 -2 0 7 29 71 107 90 46 19 8 3 0 -1 -2 -2 -3 -3 -3 -3 -3 -3 -3 -3 -3 -3 -3 -3 -3 -3 -3 -3 -3 -3 -3 -3 -3 -3 -3 -3 -3 -3 -3 -3 -3 -3 -3 -3 -3 -3 -3 -3 -3 -2 -2 -2 -1 -1 0 0 1 5 18 50 102 97 41 9 0 -2 -3 -3 -3 -3 -3 -3 -3 -3 -3 -3 -3 -3 -3 -3 -3 -3 -3 -3 -3 -3 -3 -2 0 7 27 65 103 101 68 63 101 
97 41 9 0 -2 -3 -3 -3 -3 -2 -1 4 20 57 100 100 57 21 5 0 -1 -2 -2 -3 -3 -3 -3 -3 -3 -3 -3 -3 -3 -3 -3 -3 -3 -3 -3 -3 -3 -3 -3 -3 -3 -3 -3 -3 -3 -3 -3 -3 -3 -3 -3 -3 -3 -3 -3 -3 -3 -3 -3 -3 -3 -3 -2 -2 -2 -1 0 11 43 97 96 41 9 0 -2 -3 -3 -3 -3 -3 -3 -3 -3 -3 -3 -3 -3 -3 -3 -3 -3 -3 -3 -3 -3 -3 -3 -2 0 9 32 73 108 98 84 108 
98 40 9 0 -2 -3 -3 -3 -2 -1 1 13 42 88 107 72 30 8 0 -2 -2 -3 -3 -3 -3 -3 -3 -3 -3 -3 -3 -3 -3 -3 -3 -3 -3 -3 -3 -3 -3 -3 -3 -3 -3 -3 -3 -3 -3 -3 -3 -3 -3 -3 -3 -3 -3 -3 -3 -3 -3 -3 -3 -3 -3 -3 -3 -3 -3 -2 0 10 41 95 98 44 11 0 -2 -3 -3 -3 -3 -3 -3 -3 -3 -3 -3 -3 -3 -3 -3 -3 -3 -3 -3 -3 -3 -3 -3 -2 -1 1 13 42 88 115 110 120 
100 40 9 0 -2 -3 -3 -2 -1 1 10 33 73 108 90 44 14 2 -1 -2 -2 -2 -2 -2 -2 -2 -2 -2 -2 -3 -3 -3 -3 -3 -3 -3 -3 -3 -3 -3 -3 -3 -3 -3 -3 -3 -3 -3 -3 -3 -3 -3 -3 -3 -3 -3 -3 -3 -3 -3 -3 -3 -3 -3 -3 -3 -3 -3 -2 -2 0 11 42 96 106 55 18 3 0 -2 -2 -3 -3 -3 -3 -3 -3 -3 -3 -3 -3 -3 -3 -3 -3 -3 -3 -3 -3 -3 -3 -3 -2 -1 4 20 57 104 130 136 
102 40 9 0 -2 -3 -2 -2 1 9 30 68 108 108 68 31 13 4 1 0 0 0 0 0 0 0 0 0 -1 -1 -2 -2 -2 -2 -2 -2 -2 -2 -2 -2 -3 -3 -3 -3 -3 -3 -3 -3 -3 -3 -3 -3 -3 -3 -3 -3 -3 -3 -3 -3 -3 -3 -3 -3 -3 -3 -3 -2 -2 0 5 18 50 104 125 81 37 14 4 0 -1 -2 -3 -3 -3 -3 -3 -3 -3 -3 -3 -3 -3 -3 -3 -3 -3 -3 -3 -3 -3 -3 -3 -2 0 7 29 72 123 145 
103 40 9 0 -2 -2 -1 1 9 30 68 113 130 104 69 46 32 21 13 10 9 9 9 9 9 9 9 8 5 2 0 0 0 0 0 0 0 0 0 -1 -1 -2 -2 -2 -2 -2 -2 -2 -2 -2 -2 -2 -3 -3 -3 -3 -3 -3 -3 -3 -3 -3 -3 -3 -3 -2 -2 -1 1 7 20 43 78 123 145 120 76 43 22 10 3 0 -2 -2 -3 -3 -3 -3 -3 -3 -3 -3 -3 -3 -3 -3 -3 -3 -3 -3 -3 -3 -3 -3 -2 1 12 42 96 139 
100 40 9 0 -2 -1 1 10 30 67 113 143 140 120 104 93 80 63 50 43 41 41 41 41 41 40 39 36 29 20 13 10 9 9 9 9 9 9 8 5 2 0 0 0 0 0 0 0 0 0 0 -1 -1 -2 -2 -2 -2 -2 -2 -2 -2 -2 -2 -2 -2 -1 0 4 13 29 57 88 111 122 124 123 113 91 63 38 19 7 1 -1 -2 -2 -3 -3 -3 -3 -3 -3 -3 -3 -3 -3 -3 -3 -3 -3 -3 -3 -3 -3 -2 -1 4 23 68 121 
97 40 9 0 -1 1 10 31 67 106 121 116 106 100 99 102 107 107 101 97 96 95 95 95 95 95 94 89 79 63 50 43 41 41 41 41 40 39 36 29 20 13 10 9 9 9 9 9 9 9 8 5 2 0 0 0 0 0 0 0 0 0 -1 -1 0 3 10 22 43 71 100 107 92 71 62 71 91 106 105 86 56 29 13 4 0 -1 -2 -3 -3 -3 -3 -3 -3 -3 -3 -3 -3 -3 -3 -3 -3 -3 -3 -3 -3 -2 1 14 51 106 
96 41 10 1 2 10 31 67 103 105 78 55 44 42 44 50 63 79 89 94 95 95 95 95 95 96 97 101 107 107 101 97 96 95 95 95 95 94 89 79 63 50 43 41 41 41 41 41 40 39 36 29 20 13 10 9 9 9 9 9 9 8 6 5 9 20 39 63 90 107 100 72 43 25 19 24 40 64 90 107 100 71 43 22 10 3 0 -2 -2 -3 -3 -3 -3 -3 -3 -3 -3 -3 -3 -3 -3 -3 -3 -3 -3 -2 0 10 44 98 
96 41 12 6 14 33 68 102 102 68 34 17 11 10 10 13 20 29 36 39 40 41 41 41 41 41 43 50 63 79 89 94 95 95 95 95 96 97 101 107 107 101 97 96 95 95 95 95 95 94 89 79 63 50 43 41 41 41 41 40 39 36 31 27 35 58 87 105 105 86 56 29 13 5 2 4 11 22 43 71 100 107 90 63 38 19 7 1 -1 -2 -2 -3 -3 -3 -3 -3 -3 -3 -3 -3 -3 -3 -3 -3 -3 -2 0 9 41 96 
96 44 19 23 43 73 103 102 67 31 11 2 0 0 0 0 2 5 8 9 9 9 9 9 9 9 10 13 20 29 36 39 40 41 41 41 41 43 50 63 79 89 94 95 95 95 95 95 96 97 101 107 107 101 97 96 95 95 95 95 94 91 84 77 86 105 108 90 63 39 19 7 1 -1 -1 -1 0 4 13 29 56 86 105 105 86 56 29 13 4 0 -1 -2 -3 -3 -3 -3 -3 -3 -3 -3 -3 -3 -3 -3 -3 -2 0 9 41 96 
99 53 39 59 88 107 99 64 30 10 1 -1 -2 -2 -2 -2 -1 -1 0 0 0 0 0 0 0 0 0 0 2 5 8 9 9 9 9 9 9 10 13 20 29 36 39 40 41 41 41 41 41 43 50 63 79 89 94 95 95 95 95 96 98 105 119 133 134 112 75 44 23 10 3 0 -2 -2 -3 -2 -2 -1 1 7 19 38 63 90 107 100 71 43 22 10 3 0 -2 -2 -3 -3 -3 -3 -3 -3 -3 -3 -3 -3 -3 -2 0 9 41 96 
106 73 76 101 107 88 56 27 9 1 -1 -2 -3 -3 -3 -3 -3 -2 -2 -2 -2 -2 -2 -2 -2 -2 -2 -2 -1 -1 0 0 0 0 0 0 0 0 0 2 5 8 9 9 9 9 9 9 9 10 13 20 29 36 39 40 41 41 41 42 45 58 91 135 133 81 37 14 4 0 -1 -2 -3 -3 -3 -3 -3 -2 -2 0 3 10 22 43 71 100 107 90 63 38 19 7 1 -1 -2 -2 -3 -3 -3 -3 -3 -3 -3 -3 -3 -2 0 9 41 97 
121 106 111 104 73 42 20 7 0 -2 -2 -3 -3 -3 -3 -3 -3 -3 -3 -3 -3 -3 -3 -3 -3 -3 -3 -3 -3 -2 -2 -2 -2 -2 -2 -2 -2 -2 -2 -1 -1 0 0 0 0 0 0 0 0 0 0 2 5 8 9 9 9 9 9 10 13 25 59 113 112 55 18 3 0 -2 -2 -3 -3 -3 -3 -3 -3 -3 -3 -2 -1 0 4 13 29 56 86 105 105 86 56 29 13 4 0 -1 -2 -2 -3 -3 -3 -3 -3 -3 -3 -2 0 9 40 99 
140 131 107 68 33 13 4 0 -2 -3 -3 -3 -3 -3 -3 -3 -3 -3 -3 -3 -3 -3 -3 -3 -3 -3 -3 -3 -3 -3 -3 -3 -3 -3 -3 -3 -3 -3 -3 -3 -2 -2 -2 -2 -2 -2 -2 -2 -2 -2 -2 -1 -1 0 0 0 0 0 0 0 2 13 45 100 100 45 11 0 -2 -3 -3 -3 -3 -3 -3 -3 -3 -3 -3 -3 -2 -2 -1 1 7 19 38 63 90 107 100 71 43 22 10 3 0 -1 -2 -3 -3 -3 -3 -3 -3 -2 0 9 40 102 
145 117 69 31 10 2 -1 -2 -3 -3 -3 -3 -3 -3 -3 -3 -3 -3 -3 -3 -3 -3 -3 -3 -3 -3 -3 -3 -3 -3 -3 -3 -3 -3 -3 -3 -3 -3 -3 -3 -3 -3 -3 -3 -3 -3 -3 -3 -3 -3 -3 -3 -2 -2 -2 -2 -2 -2 -2 -2 0 10 42 96 96 41 9 0 -2 -3 -3 -3 -3 -3 -3 -3 -3 -3 -3 -3 -3 -3 -2 -2 0 3 10 22 43 71 100 107 90 63 40 22 10 3 0 -2 -2 -3 -3 -3 -3 -2 0 9 40 103 
127 80 34 10 1 -1 -2 -3 -3 -3 -3 -3 -3 -3 -3 -3 -3 -3 -3 -3 -3 -3 -3 -3 -3 -3 -3 -3 -3 -3 -3 -3 -3 -3 -3 -3 -3 -3 -3 -3 -3 -3 -3 -3 -3 -3 -3 -3 -3 -3 -3 -3 -3 -3 -3 -3 -3 -3 -3 -2 0 9 41 96 96 41 9 0 -2 -3 -3 -3 -3 -3 -3 -3 -3 -3 -3 -3 -3 -3 -3 -3 -2 -1 0 4 13 29 56 86 105 105 88 63 38 19 7 1 -1 -2 -2 -2 -2 -2 0 9 40 101 
108 55 17 2 -1 -2 -3 -3 -3 -3 -3 -3 -3 -3 -3 -3 -3 -3 -3 -3 -3 -3 -3 -3 -3 -3 -3 -3 -3 -3 -3 -3 -3 -3 -3 -3 -3 -3 -3 -3 -3 -3 -3 -3 -3 -3 -3 -3 -3 -3 -3 -3 -3 -3 -3 -3 -3 -3 -3 -2 0 9 41 95 95 41 9 0 -2 -3 -3 -3 -3 -3 -3 -3 -3 -3 -3 -3 -3 -3 -3 -3 -3 -2 -2 -1 1 7 19 38 63 88 106 105 86 56 29 12 4 1 0 -1 -1 -1 0 9 41 98 
99 44 11 0 -2 -3 -3 -3 -3 -3 -3 -3 -3 -3 -3 -3 -3 -3 -3 -3 -3 -3 -3 -3 -3 -3 -3 -3 -3 -3 -3 -3 -3 -3 -3 -3 -3 -3 -3 -3 -3 -3 -3 -3 -3 -3 -3 -3 -3 -3 -3 -3 -3 -3 -3 -3 -3 -3 -3 -2 0 9 41 95 95 41 9 0 -2 -3 -3 -3 -3 -3 -3 -3 -3 -3 -3 -3 -3 -3 -3 -3 -3 -3 -3 -2 -2 0 3 10 22 40 64 90 108 101 72 43 23 13 9 6 3 1 2 11 42 97 
97 41 10 0 -2 -3 -3 -3 -3 -3 -3 -3 -3 -3 -3 -3 -3 -3 -3 -3 -3 -3 -3 -3 -3 -3 -3 -3 -3 -3 -3 -3 -3 -3 -3 -3 -3 -3 -3 -3 -3 -3 -3 -3 -3 -3 -3 -3 -3 -3 -3 -3 -3 -3 -3 -3 -3 -3 -3 -2 0 9 41 95 95 41 9 0 -2 -3 -3 -3 -3 -3 -3 -3 -3 -3 -3 -3 -3 -3 -3 -3 -3 -3 -3 -3 -3 -2 -1 0 4 12 25 47 78 110 117 96 68 50 39 30 20 13 12 18 46 98 
97 41 10 0 -2 -2 -2 -2 -2 -3 -3 -3 -3 -3 -3 -3 -3 -3 -3 -3 -3 -3 -3 -3 -3 -3 -3 -3 -3 -3 -3 -3 -3 -3 -3 -3 -3 -3 -3 -3 -3 -3 -3 -3 -3 -3 -3 -3 -3 -3 -3 -3 -3 -3 -3 -3 -3 -3 -3 -2 0 9 41 95 95 41 9 0 -2 -3 -3 -3 -3 -3 -3 -3 -3 -3 -3 -3 -3 -3 -3 -3 -3 -3 -3 -3 -3 -2 -2 0 1 6 14 29 55 96 134 142 124 105 93 80 63 49 42 42 63 106 
102 43 12 2 0 0 0 0 -1 -1 -2 -2 -2 -2 -2 -2 -2 -3 -3 -3 -3 -3 -3 -3 -3 -3 -3 -3 -3 -3 -3 -3 -3 -3 -3 -3 -3 -3 -3 -3 -3 -3 -3 -3 -3 -3 -3 -3 -3 -3 -3 -3 -3 -3 -3 -3 -3 -3 -3 -2 0 9 41 95 95 41 9 0 -2 -3 -3 -3 -3 -3 -3 -3 -3 -3 -3 -3 -3 -3 -3 -3 -3 -3 -2 -2 -1 0 0 4 10 20 34 51 76 108 130 128 113 103 103 107 107 101 94 90 99 125 
111 52 21 12 10 9 9 8 5 2 0 0 0 0 0 0 -1 -1 -2 -2 -2 -2 -2 -2 -2 -2 -3 -3 -3 -3 -3 -3 -3 -3 -3 -3 -3 -3 -3 -3 -3 -3 -3 -3 -3 -3 -3 -3 -3 -3 -3 -3 -3 -3 -3 -3 -3 -3 -3 -2 0 9 41 95 95 41 9 0 -2 -3 -3 -3 -3 -3 -3 -3 -3 -3 -3 -3 -3 -3 -3 -3 -2 -2 -1 0 2 7 13 23 39 60 82 98 109 108 91 68 52 46 51 63 80 92 102 114 132 147 
127 78 52 43 41 40 39 36 29 20 13 10 9 9 9 8 5 2 0 0 0 0 0 0 0 -1 -1 -2 -2 -2 -2 -2 -2 -2 -3 -3 -3 -3 -3 -3 -3 -3 -3 -3 -3 -3 -3 -3 -3 -3 -3 -3 -3 -3 -3 -3 -3 -3 -3 -2 0 9 41 95 95 41 9 0 -2 -3 -3 -3 -3 -3 -3 -3 -3 -3 -3 -3 -3 -2 -2 -1 0 0 4 10 19 32 46 66 89 105 107 97 82 60 39 23 14 12 14 20 30 39 50 71 107 143 
147 122 104 97 96 95 94 89 79 63 50 43 41 40 39 36 29 20 13 10 9 9 9 9 8 5 2 0 0 0 0 0 0 -1 -1 -2 -2 -2 -2 -2 -2 -2 -2 -3 -3 -3 -3 -3 -3 -3 -3 -3 -3 -3 -3 -3 -3 -3 -3 -2 0 9 41 95 95 41 9 0 -2 -3 -3 -3 -3 -3 -3 -3 -3 -3 -3 -2 -2 -1 0 2 7 13 23 39 60 81 97 107 105 89 66 46 32 19 10 4 1 0 0 3 6 9 15 31 68 124 
143 122 104 97 96 96 97 101 107 107 101 97 96 95 94 89 79 63 50 43 41 41 40 39 36 29 20 13 10 9 9 9 8 5 2 0 0 0 0 0 0 0 -1 -1 -2 -2 -2 -2 -2 -2 -2 -3 -3 -3 -3 -3 -3 -3 -3 -2 0 9 41 95 95 41 9 0 -2 -3 -3 -3 -3 -3 -3 -3 -3 -2 -2 -1 0 3 10 19 32 46 66 89 105 107 97 81 60 39 23 13 7 2 0 -1 -2 -2 -2 -1 -1 0 3 15 48 110 
118 78 52 43 41 41 43 50 63 79 89 94 95 96 97 101 107 107 101 97 96 95 95 94 89 79 63 50 43 41 40 39 36 29 20 13 10 9 9 9 9 8 5 2 0 0 0 0 0 0 -1 -1 -2 -2 -2 -2 -2 -2 -2 -2 0 9 41 95 95 41 9 0 -2 -3 -3 -3 -3 -3 -2 -2 -1 0 0 4 10 21 39 60 81 97 107 105 89 66 46 32 19 10 4 0 0 -1 -2 -2 -3 -3 -3 -3 -2 -2 0 10 42 101 
102 52 22 12 10 9 10 13 20 29 36 39 40 41 43 50 63 79 89 94 95 95 96 97 101 107 107 101 97 96 95 94 89 79 63 50 43 41 41 40 39 36 29 20 13 10 9 9 9 8 5 2 0 0 0 0 0 0 0 0 0 10 41 96 96 41 9 0 -2 -3 -3 -3 -2 -2 -1 0 2 7 13 23 40 63 88 105 107 97 81 60 39 23 13 7 2 0 -1 -2 -2 -3 -3 -3 -3 -3 -3 -3 -3 -2 0 9 41 97 
97 43 12 2 0 0 0 0 2 5 8 9 9 9 10 13 20 29 36 39 40 41 41 43 50 63 79 89 94 95 96 97 101 107 107 101 97 96 95 95 94 89 79 63 50 43 41 40 39 36 29 20 13 10 9 9 9 9 8 6 5 13 44 97 96 41 9 0 -2 -2 -2 -1 0 0 4 10 19 32 46 66 89 105 105 89 66 46 32 19 10 4 0 0 -1 -2 -2 -3 -3 -3 -3 -3 -3 -3 -3 -3 -3 -2 0 9 41 96 
96 41 10 0 -2 -2 -2 -2 -1 -1 0 0 0 0 0 0 2 5 8 9 9 9 9 10 13 20 29 36 39 40 41 43 50 63 79 89 94 95 95 96 97 101 107 107 101 97 96 95 94 89 79 63 50 43 41 41 40 39 36 30 23 26 53 104 101 45 11 0 -1 -1 0 2 7 13 23 39 60 81 97 107 105 88 63 40 23 13 7 2 0 -1 -2 -2 -3 -3 -3 -3 -3 -3 -3 -3 -3 -3 -3 -3 -3 -2 0 9 41 95 
95 41 9 0 -2 -3 -3 -3 -3 -2 -2 -2 -2 -2 -2 -2 -1 -1 0 0 0 0 0 0 0 2 5 8 9 9 9 10 13 20 29 36 39 40 41 41 43 50 63 79 89 94 95 96 97 101 107 107 101 97 96 95 95 94 89 80 66 61 81 121 113 55 18 5 2 4 10 19 32 46 66 89 105 107 97 81 60 39 21 10 4 0 0 -1 -2 -2 -3 -3 -3 -3 -3 -3 -3 -3 -3 -3 -3 -3 -3 -3 -3 -2 0 9 41 95 
95 41 9 0 -2 -3 -3 -3 -3 -3 -3 -3 -3 -3 -3 -3 -3 -2 -2 -2 -2 -2 -2 -2 -2 -1 -1 0 0 0 0 0 0 2 5 8 9 9 9 9 10 13 20 29 36 39 40 41 43 50 63 79 89 94 95 95 96 97 101 107 108 108 120 143 133 82 39 19 16 23 39 60 81 97 107 105 89 66 46 32 19 10 3 0 -1 -2 -2 -3 -3 -3 -3 -3 -3 -3 -3 -3 -3 -3 -3 -3 -3 -3 -3 -3 -3 -2 0 9 41 95 
95 41 9 0 -2 -3 -3 -3 -3 -3 -3 -3 -3 -3 -3 -3 -3 -3 -3 -3 -3 -3 -3 -3 -3 -3 -2 -2 -2 -2 -2 -2 -2 -1 -1 0 0 0 0 0 0 0 2 5 8 9 9 9 10 13 20 29 36 39 40 41 41 43 50 63 80 91 101 116 127 114 81 58 55 68 89 105 107 97 81 60 39 23 13 7 2 0 -1 -2 -2 -3 -3 -3 -3 -3 -3 -3 -3 -3 -3 -3 -3 -3 -3 -3 -3 -3 -3 -3 -3 -2 0 9 41 95 
95 41 9 0 -2 -3 -3 -3 -3 -3 -3 -3 -3 -3 -3 -3 -3 -3 -3 -3 -3 -3 -3 -3 -3 -3 -3 -3 -3 -3 -3 -3 -3 -3 -2 -2 -2 -2 -2 -2 -2 -2 -1 -1 0 0 0 0 0 0 2 5 8 9 9 9 9 10 13 20 29 37 43 55 81 114 128 119 111 110 106 89 66 46 32 19 10 4 0 0 -1 -2 -2 -3 -3 -3 -3 -3 -3 -3 -3 -3 -3 -3 -3 -3 -3 -3 -3 -3 -3 -3 -3 -3 -3 -2 0 9 41 95 
95 41 9 0 -2 -3 -3 -3 -3 -3 -3 -3 -3 -3 -3 -3 -3 -3 -3 -3 -3 -3 -3 -3 -3 -3 -3 -3 -3 -3 -3 -3 -3 -3 -3 -3 -3 -3 -3 -3 -3 -3 -2 -2 -2 -2 -2 -2 -2 -2 -1 -1 0 0 0 0 0 0 0 3 5 8 11 18 38 82 133 143 114 86 61 39 23 13 7 2 0 -1 -2 -2 -2 -3 -3 -3 -3 -3 -3 -3 -3 -3 -3 -3 -3 -3 -3 -3 -3 -3 -3 -3 -3 -3 -3 -3 -3 -2 0 9 41 95 
96 41 10 0 -2 -2 -2 -2 -2 -2 -2 -2 -2 -2 -2 -2 -2 -2 -2 -2 -2 -2 -2 -2 -2 -2 -2 -2 -2 -2 -2 -2 -2 -2 -2 -2 -2 -2 -2 -2 -2 -2 -2 -2 -2 -2 -2 -2 -2 -2 -2 -2 -2 -2 -2 -2 -2 -2 -1 -1 0 0 1 5 18 56 113 120 75 41 22 11 4 1 0 -1 -2 -2 -2 -2 -2 -2 -2 -2 -2 -2 -2 -2 -2 -2 -2 -2 -2 -2 -2 -2 -2 -2 -2 -2 -2 -2 -2 -2 -2 -2 0 10 41 96 
97 43 12 2 0 0 0 0 0 0 0 0 0 0 0 0 0 0 0 0 0 0 0 0 0 0 0 0 0 0 0 0 0 0 0 0 0 0 0 0 0 0 0 0 0 0 0 0 0 0 0 0 0 0 0 0 0 0 0 0 0 0 0 3 14 47 102 105 53 21 8 3 1 0 0 0 0 0 0 0 0 0 0 0 0 0 0 0 0 0 0 0 0 0 0 0 0 0 0 0 0 0 0 0 0 0 2 12 43 97 
104 52 21 12 10 9 9 9 9 9 9 9 9 9 9 9 9 9 9 9 9 9 9 9 9 9 9 9 9 9 9 9 9 9 9 9 9 9 9 9 9 9 9 9 9 9 9 9 9 9 9 9 9 9 9 9 9 9 9 9 9 9 10 12 22 53 105 106 54 23 13 10 9 9 9 9 9 9 9 9 9 9 9 9 9 9 9 9 9 9 9 9 9 9 9 9 9 9 9 9 9 9 9 9 9 9 12 21 52 104 
123 79 52 43 41 41 41 41 41 41 41 41 41 41 41 41 41 41 41 41 41 41 41 41 41 41 41 41 41 41 41 40 40 40 40 40 40 41 41 41 41 41 41 41 41 41 41 40 40 40 40 40 40 41 41 41 41 41 41 41 41 41 41 43 52 79 122 122 79 52 43 41 41 41 41 41 41 41 41 41 41 41 41 41 41 41 41 41 41 41 40 40 40 40 40 40 41 41 41 41 41 41 40 40 40 41 43 52 79 123 
154 123 104 97 96 95 95 95 95 95 95 95 95 95 95 95 95 95 95 95 95 95 95 95 95 95 95 95 95 96 96 98 102 103 101 98 96 95 95 95 95 95 95 95 95 95 96 97 99 103 103 99 96 96 95 95 95 95 95 95 95 95 96 97 102 118 141 141 118 102 97 96 95 95 95 95 95 95 95 95 95 95 95 95 95 95 95 95 95 96 98 101 103 101 98 96 95 95 95 95 95 96 98 101 104 102 100 104 123 154 
