P2
110 110
255
154 118 100 95 94 94 94 94 94 94 94 94 94 94 94 94 94 94 94 94 94 94 94 94 94 94 94 94 94 95 100 113 138 150 129 106 97 94 94 94 94 94 94 94 94 94 95 99 114 144 143 114 99 95 94 94 94 94 94 94 94 94 94 94 95 97 101 101 97 95 94 94 94 94 94 94 94 94 94 94 94 94 94 94 94 94 94 94 95 97 108 132 150 130 107 97 94 94 94 94 94 97 106 131 150 131 108 103 119 154 
118 66 41 34 33 33 33 33 33 33 33 33 33 33 33 33 33 33 33 33 33 33 33 33 33 33 33 33 34 37 51 85 127 117 73 45 36 33 33 33 33 33 33 33 33 33 35 42 68 120 118 66 41 34 33 33 33 33 33 33 33 33 33 33 33 33 33 33 33 33 33 33 33 33 33 33 33 33 33 33 33 33 33 33 33 33 33 33 35 42 68 115 125 79 47 36 33 33 33 33 34 39 60 108 127 81 49 44 67 118 
100 41 13 6 4 4 4 4 4 4 4 4 4 4 4 4 4 4 4 4 4 4 4 4 4 4 4 5 7 16 43 93 113 68 27 10 5 4 4 4 4 4 4 4 4 5 7 16 50 110 102 41 13 6 4 4 4 4 4 4 4 4 4 4 4 4 4 4 4 4 4 4 4 4 4 4 4 4 4 4 4 4 4 4 4 4 4 5 8 22 62 113 90 38 13 6 4 4 4 4 6 13 40 98 104 47 17 15 41 100 
95 34 6 -1 -2 -2 -2 -2 -2 -2 -2 -2 -2 -2 -2 -2 -2 -2 -2 -2 -2 -2 -2 -2 -2 -2 -2 -1 4 23 67 110 86 35 8 0 -2 -2 -2 -2 -2 -2 -2 -2 -2 -1 1 17 62 125 100 34 6 -1 -2 -2 -2 -2 -2 -2 -2 -2 -2 -2 -2 -2 -2 -2 -2 -2 -2 -2 -2 -2 -2 -2 -2 -2 -2 -2 -2 -2 -2 -2 -2 -2 -2 -1 4 27 81 109 59 17 1 -1 -2 -2 -2 -2 0 9 42 101 91 33 7 7 35 95 
94 33 4 -2 -3 -4 -4 -4 -4 -4 -4 -4 -4 -4 -4 -4 -4 -4 -4 -4 -4 -4 -4 -4 -4 -3 -3 0 14 51 101 101 51 14 0 -3 -3 -4 -4 -4 -4 -4 -4 -4 -3 -2 5 32 92 146 102 33 4 -2 -3 -4 -4 -4 -4 -4 -4 -4 -4 -4 -4 -4 -4 -4 -4 -4 -4 -4 -4 -4 -4 -4 -4 -4 -4 -4 -4 -4 -4 -4 -4 -4 -3 -1 7 39 97 96 39 7 -1 -3 -4 -4 -3 -3 0 14 56 109 78 24 4 6 33 94 
94 33 4 -2 -4 -4 -4 -4 -4 -4 -4 -4 -4 -4 -4 -4 -4 -4 -4 -4 -4 -4 -4 -4 -4 -3 -1 7 34 86 108 65 22 3 -2 -3 -4 -4 -4 -4 -4 -4 -4 -4 -3 0 15 57 120 149 101 33 4 -2 -4 -4 -4 -4 -4 -4 -4 -4 -4 -4 -4 -4 -4 -4 -4 -4 -4 -4 -4 -4 -4 -4 -4 -4 -4 -4 -4 -4 -4 -4 -4 -4 -3 0 15 59 109 79 25 2 -2 -4 -4 -4 -4 -3 2 24 78 109 56 14 1 5 33 94 
94 33 4 -2 -4 -4 -4 -4 -4 -4 -4 -4 -4 -4 -4 -4 -4 -4 -4 -4 -4 -4 -4 -4 -4 -2 3 22 65 108 86 34 7 -1 -3 -4 -4 -4 -4 -4 -4 -4 -4 -3 -2 5 32 88 130 136 100 35 5 -2 -4 -4 -4 -4 -4 -4 -4 -4 -4 -4 -4 -4 -4 -4 -4 -4 -4 -4 -4 -4 -4 -4 -4 -4 -4 -4 -4 -4 -4 -4 -4 -3 -2 5 32 86 107 54 13 0 -3 -4 -4 -4 -4 -2 4 32 91 99 40 7 0 5 33 94 
94 33 4 -2 -4 -4 -4 -4 -4 -4 -4 -4 -4 -4 -4 -4 -4 -4 -4 -4 -4 -4 -4 -4 -3 0 14 51 101 101 51 14 0 -3 -4 -4 -4 -4 -4 -4 -4 -4 -4 -3 0 15 57 111 114 118 104 41 7 -1 -3 -4 -4 -4 -4 -4 -4 -4 -4 -4 -4 -4 -4 -4 -4 -4 -4 -4 -4 -4 -4 -4 -4 -4 -4 -4 -4 -4 -4 -4 -4 -3 0 13 54 107 86 32 5 -2 -3 -4 -4 -4 -3 -1 7 40 99 91 32 4 -1 4 33 94 
94 33 4 -2 -4 -4 -4 -4 -4 -4 -4 -4 -4 -4 -4 -4 -4 -4 -4 -4 -4 -4 -4 -3 -1 7 34 86 108 65 22 2 -2 -4 -4 -4 -4 -4 -4 -4 -4 -4 -3 -1 7 35 88 111 82 94 111 56 14 0 -3 -4 -4 -4 -4 -4 -4 -4 -4 -4 -4 -4 -4 -4 -4 -4 -4 -4 -4 -4 -4 -4 -4 -4 -4 -4 -4 -4 -4 -4 -4 -2 2 25 79 109 59 15 0 -3 -4 -4 -4 -4 -3 0 14 56 109 78 24 2 -1 4 33 94 
94 33 4 -2 -4 -4 -4 -4 -4 -4 -4 -4 -4 -4 -4 -4 -4 -4 -4 -4 -4 -4 -4 -2 2 22 65 108 86 34 7 -1 -3 -4 -4 -4 -4 -4 -4 -4 -4 -4 -2 2 22 65 109 88 49 65 110 77 23 2 -3 -4 -4 -4 -4 -4 -4 -4 -4 -4 -4 -4 -4 -4 -4 -4 -4 -4 -4 -4 -4 -4 -4 -4 -4 -4 -4 -4 -4 -4 -3 -1 7 38 96 96 38 7 -1 -3 -4 -4 -4 -4 -3 2 24 78 109 56 14 0 -2 4 33 94 
94 33 4 -2 -4 -4 -4 -4 -4 -4 -4 -4 -4 -4 -4 -4 -4 -4 -4 -4 -4 -4 -3 0 14 51 101 101 51 14 0 -3 -4 -4 -4 -4 -4 -4 -4 -4 -4 -3 0 13 51 101 102 53 25 45 101 89 30 3 -2 -4 -4 -4 -4 -4 -4 -4 -4 -4 -4 -4 -4 -4 -4 -4 -4 -4 -4 -4 -4 -4 -4 -4 -4 -4 -4 -4 -4 -4 -3 0 15 59 109 79 25 2 -2 -4 -4 -4 -4 -4 -2 4 32 91 99 40 7 -1 -2 4 33 94 
94 33 4 -2 -4 -4 -4 -4 -4 -4 -4 -4 -4 -4 -4 -4 -4 -4 -4 -4 -4 -3 -1 7 34 86 108 65 22 2 -2 -4 -4 -4 -4 -4 -4 -4 -4 -4 -3 -2 5 32 85 109 66 24 12 36 96 93 32 4 -2 -4 -4 -4 -4 -4 -4 -4 -4 -4 -4 -4 -4 -4 -4 -4 -4 -4 -4 -4 -4 -4 -4 -4 -4 -4 -4 -4 -4 -3 -2 5 32 86 107 54 13 0 -3 -4 -4 -4 -4 -3 -1 7 40 99 91 32 4 -2 -2 4 33 94 
97 36 5 -2 -3 -4 -4 -4 -4 -4 -4 -4 -4 -4 -4 -4 -4 -4 -4 -4 -4 -2 2 22 65 108 86 34 7 -1 -3 -4 -4 -4 -4 -4 -4 -4 -4 -4 -3 0 15 56 107 87 35 8 7 34 94 94 33 4 -2 -4 -4 -4 -4 -4 -4 -4 -4 -4 -4 -4 -4 -4 -4 -4 -4 -4 -4 -4 -4 -4 -4 -4 -4 -4 -4 -4 -4 -3 0 13 54 107 86 32 5 -2 -3 -4 -4 -4 -4 -3 0 14 56 109 78 24 2 -2 -2 4 33 94 
106 45 10 0 -3 -4 -4 -4 -4 -4 -4 -4 -4 -4 -4 -4 -4 -4 -4 -4 -3 0 14 51 101 101 51 14 0 -3 -4 -4 -4 -4 -4 -4 -4 -4 -4 -3 -2 5 32 86 107 57 16 2 5 32 93 96 35 5 -2 -4 -4 -4 -4 -4 -4 -4 -4 -4 -4 -4 -4 -4 -4 -4 -4 -4 -4 -4 -4 -4 -4 -4 -4 -4 -4 -4 -4 -2 2 25 79 109 59 15 0 -3 -4 -4 -4 -4 -4 -3 2 24 78 109 56 14 0 -3 -2 4 33 96 
129 72 25 5 -1 -3 -4 -4 -4 -4 -4 -4 -4 -4 -4 -4 -4 -4 -4 -3 -1 7 34 86 108 65 22 2 -2 -4 -4 -4 -4 -4 -4 -4 -4 -4 -4 -3 0 15 57 107 86 32 5 0 4 30 89 100 41 7 -1 -3 -4 -4 -4 -4 -4 -4 -4 -4 -4 -4 -4 -4 -4 -4 -4 -4 -4 -4 -4 -4 -4 -4 -4 -4 -4 -4 -3 -1 7 38 96 96 38 7 -1 -3 -4 -4 -4 -4 -4 -2 4 32 91 99 40 7 -1 -3 -2 4 33 100 
150 116 62 23 4 -2 -3 -4 -4 -4 -4 -4 -4 -4 -4 -4 -4 -4 -4 -2 2 22 65 108 86 34 7 -1 -3 -4 -4 -4 -4 -4 -4 -4 -4 -4 -3 -1 7 35 87 107 56 15 0 -2 2 23 77 109 56 14 0 -3 -4 -4 -4 -4 -4 -4 -4 -4 -4 -4 -4 -4 -4 -4 -4 -4 -4 -4 -4 -4 -4 -4 -4 -4 -4 -4 -3 0 15 59 109 79 25 2 -2 -4 -4 -4 -4 -4 -3 -1 7 40 99 91 32 4 -2 -3 -2 4 33 102 
139 128 106 59 20 2 -2 -4 -4 -4 -4 -4 -4 -4 -4 -4 -4 -4 -3 0 14 51 101 101 51 14 0 -3 -4 -4 -4 -4 -4 -4 -4 -4 -4 -4 -2 2 22 65 109 85 32 5 -2 -3 0 14 56 109 77 23 2 -3 -4 -4 -4 -4 -4 -4 -4 -4 -4 -4 -4 -4 -4 -4 -4 -4 -4 -4 -4 -4 -4 -4 -4 -4 -4 -3 -2 5 32 86 107 54 13 0 -3 -4 -4 -4 -4 -4 -3 0 14 56 109 78 24 2 -3 -3 -2 4 33 99 
115 95 110 101 50 14 0 -3 -4 -4 -4 -4 -4 -4 -4 -4 -4 -3 -1 7 34 86 108 65 22 2 -2 -4 -4 -4 -4 -4 -4 -4 -4 -4 -4 -3 0 13 51 101 101 51 13 0 -3 -3 -1 7 41 100 89 30 3 -2 -4 -4 -4 -4 -4 -4 -4 -4 -4 -4 -4 -4 -4 -4 -4 -4 -4 -4 -4 -4 -4 -4 -4 -4 -4 -3 0 13 54 107 86 32 5 -2 -3 -4 -4 -4 -4 -4 -3 2 24 78 109 56 14 0 -3 -3 -2 4 33 96 
101 61 75 110 86 34 7 -1 -3 -4 -4 -4 -4 -4 -4 -4 -4 -2 2 22 65 108 86 34 7 -1 -3 -4 -4 -4 -4 -4 -4 -4 -4 -4 -3 -2 5 32 85 109 65 22 2 -2 -4 -3 -2 5 35 96 93 32 4 -2 -4 -4 -4 -4 -4 -4 -4 -4 -4 -4 -4 -4 -4 -4 -4 -4 -4 -4 -4 -4 -4 -4 -4 -4 -4 -2 2 25 79 109 59 15 0 -3 -4 -4 -4 -4 -4 -4 -2 4 32 91 99 40 7 -1 -3 -4 -2 4 33 95 
96 45 43 87 109 67 25 5 -1 -3 -4 -4 -4 -4 -4 -4 -3 0 14 51 101 101 51 14 0 -3 -4 -4 -4 -4 -4 -4 -4 -4 -4 -4 -3 0 15 56 107 87 35 7 -1 -3 -4 -4 -2 4 33 94 94 33 4 -2 -4 -4 -4 -4 -4 -4 -4 -4 -4 -4 -4 -4 -4 -4 -4 -4 -4 -4 -4 -4 -4 -4 -4 -4 -3 -1 7 38 96 96 38 7 -1 -3 -4 -4 -4 -4 -4 -3 -1 7 40 99 91 32 4 -2 -4 -4 -2 4 33 94 
95 37 22 52 100 104 61 23 4 -1 -3 -4 -4 -4 -4 -3 -1 7 34 86 108 65 22 2 -2 -4 -4 -4 -4 -4 -4 -4 -4 -4 -4 -3 -2 5 32 86 107 57 15 0 -3 -4 -4 -4 -2 4 32 93 96 35 5 -2 -4 -4 -4 -4 -4 -4 -4 -4 -4 -4 -4 -4 -4 -4 -4 -4 -4 -4 -4 -4 -4 -4 -4 -4 -3 0 15 59 109 79 25 2 -2 -4 -4 -4 -4 -4 -4 -3 0 14 56 109 78 24 2 -3 -4 -4 -2 4 33 94 
94 34 11 22 60 103 103 61 23 4 -1 -3 -4 -4 -4 -2 2 22 65 108 86 34 7 -1 -3 -4 -4 -4 -4 -4 -4 -4 -4 -4 -4 -3 0 15 57 107 86 32 5 -2 -3 -4 -4 -4 -2 3 30 89 100 41 7 -1 -3 -4 -4 -4 -4 -4 -4 -4 -4 -4 -4 -4 -4 -4 -4 -4 -4 -4 -4 -4 -4 -4 -4 -3 -2 5 32 86 107 54 13 0 -3 -4 -4 -4 -4 -4 -4 -3 2 24 78 109 56 14 0 -3 -4 -4 -2 4 33 94 
94 33 6 5 23 61 103 103 61 23 4 -1 -3 -4 -3 0 14 51 101 101 51 14 0 -3 -4 -4 -4 -4 -4 -4 -4 -4 -4 -4 -3 -1 7 35 87 107 56 15 0 -3 -4 -4 -4 -4 -3 2 23 77 109 56 14 0 -3 -4 -4 -4 -4 -4 -4 -4 -4 -4 -4 -4 -4 -4 -4 -4 -4 -4 -4 -4 -4 -4 -4 -3 0 13 54 107 86 32 5 -2 -3 -4 -4 -4 -4 -4 -4 -2 4 32 91 99 40 7 -1 -3 -4 -4 -2 4 33 94 
94 33 5 0 5 23 61 103 103 61 23 4 -1 -3 -1 7 34 86 108 65 22 2 -2 -4 -4 -4 -4 -4 -4 -4 -4 -4 -4 -4 -2 2 22 65 109 85 32 5 -2 -3 -4 -4 -4 -4 -3 0 14 56 109 77 23 2 -3 -4 -4 -4 -4 -4 -4 -4 -4 -4 -4 -4 -4 -4 -4 -4 -4 -4 -4 -4 -4 -4 -4 -2 2 25 79 109 59 15 0 -3 -4 -4 -4 -4 -4 -4 -3 -1 7 40 99 91 32 4 -2 -4 -4 -4 -2 4 33 94 
94 33 4 -2 -1 4 23 61 103 103 61 23 5 0 3 22 65 108 86 34 7 -1 -3 -4 -4 -4 -4 -4 -4 -4 -4 -4 -4 -3 0 13 51 101 101 51 13 0 -3 -4 -4 -4 -4 -4 -3 -1 7 41 100 89 30 3 -2 -4 -4 -4 -4 -4 -4 -4 -4 -4 -4 -4 -4 -4 -4 -4 -4 -4 -4 -4 -4 -4 -3 -1 7 38 96 96 38 7 -1 -3 -4 -4 -4 -4 -4 -4 -3 0 14 56 109 78 24 2 -3 -4 -4 -4 -2 4 33 94 
94 33 4 -2 -3 -1 4 23 61 103 103 61 24 9 16 51 101 101 51 14 0 -3 -4 -4 -4 -4 -4 -4 -4 -4 -4 -4 -3 -2 5 32 85 109 65 22 2 -2 -4 -4 -4 -4 -4 -4 -4 -2 5 35 95 93 33 4 -2 -4 -4 -4 -4 -4 -4 -4 -4 -4 -4 -4 -4 -4 -4 -4 -4 -4 -4 -4 -4 -4 -3 0 15 59 109 79 25 2 -2 -4 -4 -4 -4 -4 -4 -4 -3 2 24 78 109 56 14 0 -3 -4 -4 -4 -2 4 33 94 
94 33 4 -2 -3 -3 -1 4 23 61 103 103 63 34 43 88 109 65 22 2 -2 -4 -4 -4 -4 -4 -4 -4 -4 -4 -4 -4 -3 0 15 56 107 87 35 7 -1 -3 -4 -4 -4 -4 -4 -4 -4 -2 4 33 93 95 35 5 -2 -4 -4 -4 -4 -4 -4 -4 -4 -4 -4 -4 -4 -4 -4 -4 -4 -4 -4 -4 -4 -3 -2 5 32 86 107 54 13 0 -3 -4 -4 -4 -4 -4 -4 -4 -2 4 32 91 99 40 7 -1 -3 -4 -4 -4 -2 4 33 94 
94 33 4 -2 -4 -4 -3 -1 4 23 61 104 108 84 87 113 86 34 7 -1 -3 -4 -4 -4 -4 -4 -4 -4 -4 -4 -4 -3 -2 5 32 86 107 57 15 0 -3 -4 -4 -4 -4 -4 -4 -4 -4 -2 3 30 89 100 41 7 -1 -3 -4 -4 -4 -4 -4 -4 -4 -4 -4 -4 -4 -4 -4 -4 -4 -4 -4 -4 -4 -3 0 13 54 107 86 32 5 -2 -3 -4 -4 -4 -4 -4 -4 -3 -1 7 40 99 91 32 4 -2 -4 -4 -4 -4 -2 4 33 94 
94 33 4 -2 -4 -4 -4 -3 -1 4 23 62 110 135 136 107 51 14 0 -3 -4 -4 -4 -4 -4 -4 -4 -4 -4 -4 -4 -3 0 15 57 107 86 32 5 -2 -3 -4 -4 -4 -4 -4 -4 -4 -4 -3 2 23 77 109 56 14 0 -3 -4 -4 -4 -4 -4 -4 -4 -4 -4 -4 -4 -4 -4 -4 -4 -4 -4 -4 -4 -2 2 25 79 109 59 15 0 -3 -4 -4 -4 -4 -4 -4 -4 -3 0 14 56 109 78 24 2 -3 -4 -4 -4 -4 -2 4 33 94 
94 33 4 -2 -4 -4 -4 -4 -3 -1 5 26 72 133 133 71 23 3 -2 -4 -4 -4 -4 -4 -4 -4 -4 -4 -4 -4 -3 -1 7 35 87 107 56 15 0 -3 -4 -4 -4 -4 -4 -4 -4 -4 -4 -3 0 14 56 109 77 23 2 -3 -4 -4 -4 -4 -4 -4 -4 -4 -4 -4 -4 -4 -4 -4 -4 -4 -4 -4 -3 -1 7 38 96 96 38 7 -1 -3 -4 -4 -4 -4 -4 -4 -4 -3 2 24 78 109 56 14 0 -3 -4 -4 -4 -4 -2 4 33 94 
94 33 4 -2 -4 -4 -4 -4 -4 -3 0 10 44 108 110 47 10 0 -3 -4 -4 -4 -4 -4 -4 -4 -4 -4 -4 -4 -2 2 22 65 109 85 32 5 -2 -3 -4 -4 -4 -4 -4 -4 -4 -4 -4 -3 -1 7 41 100 89 30 3 -2 -4 -4 -4 -4 -4 -4 -4 -4 -4 -4 -4 -4 -4 -4 -4 -4 -4 -4 -3 0 15 59 109 79 25 2 -2 -4 -4 -4 -4 -4 -4 -4 -4 -2 4 32 91 99 40 7 -1 -3 -4 -4 -4 -4 -2 4 33 94 
94 33 4 -2 -4 -4 -4 -4 -4 -4 -2 5 32 92 104 44 8 -1 -3 -4 -4 -4 -4 -4 -4 -4 -4 -4 -4 -3 0 13 51 101 101 51 13 0 -3 -4 -4 -4 -4 -4 -4 -4 -4 -4 -4 -4 -2 5 35 96 93 32 4 -2 -4 -4 -4 -4 -4 -4 -4 -4 -4 -4 -4 -4 -4 -4 -4 -4 -4 -3 -2 5 32 86 107 54 13 0 -3 -4 -4 -4 -4 -4 -4 -4 -3 -1 7 40 99 91 32 4 -2 -4 -4 -4 -4 -4 -2 4 33 94 
94 33 4 -2 -4 -4 -4 -4 -4 -4 -3 2 24 78 109 57 14 0 -3 -4 -4 -4 -4 -4 -4 -4 -4 -4 -3 -2 5 32 85 109 65 22 2 -2 -4 -4 -4 -4 -4 -4 -4 -4 -4 -4 -4 -4 -2 4 33 94 94 33 4 -2 -4 -4 -4 -4 -4 -4 -4 -4 -4 -4 -4 -4 -4 -4 -4 -4 -4 -3 0 13 54 107 86 32 5 -2 -3 -4 -4 -4 -4 -4 -4 -4 -3 0 14 56 109 78 24 2 -3 -4 -4 -4 -4 -4 -2 4 33 94 
94 33 4 -2 -4 -4 -4 -4 -4 -4 -3 0 14 56 109 77 23 2 -3 -4 -4 -4 -4 -4 -4 -4 -4 -4 -3 0 15 56 107 87 35 7 -1 -3 -4 -4 -4 -4 -4 -4 -4 -4 -4 -4 -4 -4 -2 4 32 93 96 35 5 -2 -4 -4 -4 -4 -4 -4 -4 -4 -4 -4 -4 -4 -4 -4 -4 -4 -4 -2 2 25 79 109 59 15 0 -3 -4 -4 -4 -4 -4 -4 -4 -4 -3 2 24 78 109 56 14 0 -3 -4 -4 -4 -4 -4 -2 4 33 94 
94 33 4 -2 -4 -4 -4 -4 -4 -4 -3 -1 7 41 100 89 30 3 -2 -4 -4 -4 -4 -4 -4 -4 -4 -3 -2 5 32 86 107 57 15 0 -3 -4 -4 -4 -4 -4 -4 -4 -4 -4 -4 -4 -4 -4 -2 3 30 89 100 41 7 -1 -3 -4 -4 -4 -4 -4 -4 -4 -4 -4 -4 -4 -4 -4 -4 -4 -3 -1 7 38 96 96 38 7 -1 -3 -4 -4 -4 -4 -4 -4 -4 -4 -2 4 32 91 99 40 7 -1 -3 -4 -4 -4 -4 -4 -2 4 33 94 
94 33 4 -2 -4 -4 -4 -4 -4 -4 -4 -2 5 34 94 94 34 5 -2 -4 -4 -4 -4 -4 -4 -4 -4 -3 0 15 57 107 86 32 5 -2 -3 -4 -4 -4 -4 -4 -4 -4 -4 -4 -4 -4 -4 -4 -3 2 23 77 109 56 14 0 -3 -4 -4 -4 -4 -4 -4 -4 -4 -4 -4 -4 -4 -4 -4 -4 -3 0 15 59 109 79 25 2 -2 -4 -4 -4 -4 -4 -4 -4 -4 -3 -1 7 40 99 91 32 4 -2 -4 -4 -4 -4 -4 -4 -2 5 35 97 
96 33 4 -2 -4 -4 -4 -4 -4 -4 -4 -2 3 30 89 100 41 7 -1 -3 -4 -4 -4 -4 -4 -4 -3 -1 7 35 87 107 56 15 0 -3 -4 -4 -4 -4 -4 -4 -4 -4 -4 -4 -4 -4 -4 -4 -3 0 14 56 109 77 23 2 -3 -4 -4 -4 -4 -4 -4 -4 -4 -4 -4 -4 -4 -4 -4 -3 -2 5 32 86 107 54 13 0 -3 -4 -4 -4 -4 -4 -4 -4 -4 -3 0 14 56 109 78 24 2 -3 -4 -4 -4 -4 -4 -3 -1 8 42 105 
99 33 4 -2 -4 -4 -4 -4 -4 -4 -4 -3 2 23 77 109 56 14 0 -3 -4 -4 -4 -4 -4 -4 -2 2 22 65 109 85 32 5 -2 -3 -4 -4 -4 -4 -4 -4 -4 -4 -4 -4 -4 -4 -4 -4 -3 -1 7 41 100 89 30 3 -2 -4 -4 -4 -4 -4 -4 -4 -4 -4 -4 -4 -4 -4 -4 -3 0 13 54 107 86 32 5 -2 -3 -4 -4 -4 -4 -4 -4 -4 -4 -3 2 24 78 109 56 14 0 -3 -4 -4 -4 -4 -4 -3 0 16 61 124 
102 33 4 -2 -4 -4 -4 -4 -4 -4 -4 -3 0 14 56 109 77 23 2 -3 -4 -4 -4 -4 -4 -3 0 13 51 101 101 51 13 0 -3 -4 -4 -4 -4 -4 -4 -4 -4 -4 -4 -4 -4 -4 -4 -4 -4 -2 5 35 96 93 32 4 -2 -4 -4 -4 -4 -4 -4 -4 -4 -4 -4 -4 -4 -4 -4 -2 2 25 79 109 59 15 0 -3 -4 -4 -4 -4 -4 -4 -4 -4 -4 -2 4 32 91 99 40 7 -1 -3 -4 -4 -4 -4 -3 -1 7 35 93 146 
101 33 4 -2 -4 -4 -4 -4 -4 -4 -4 -3 -1 7 41 100 89 30 3 -2 -4 -4 -4 -4 -3 -2 5 32 85 109 65 22 2 -2 -4 -4 -4 -4 -4 -4 -4 -4 -4 -4 -4 -4 -4 -4 -4 -4 -4 -2 4 33 94 94 33 4 -2 -4 -4 -4 -4 -4 -4 -4 -4 -4 -4 -4 -4 -4 -3 -1 7 38 96 96 38 7 -1 -3 -4 -4 -4 -4 -4 -4 -4 -4 -3 -1 7 40 99 91 32 4 -2 -4 -4 -4 -4 -4 -2 2 22 66 123 149 
98 33 4 -2 -4 -4 -4 -4 -4 -4 -4 -4 -2 5 34 94 94 34 5 -2 -4 -4 -4 -4 -3 0 15 56 107 87 35 7 -1 -3 -4 -4 -4 -4 -4 -4 -4 -4 -4 -4 -4 -4 -4 -4 -4 -4 -4 -2 4 32 93 96 35 5 -2 -4 -4 -4 -4 -4 -4 -4 -4 -4 -4 -4 -4 -4 -3 0 15 59 109 79 25 2 -2 -4 -4 -4 -4 -4 -4 -4 -4 -4 -3 0 14 56 109 78 24 2 -3 -4 -4 -4 -4 -3 0 14 51 104 127 134 
96 33 4 -2 -4 -4 -4 -4 -4 -4 -4 -4 -2 3 30 89 100 41 7 -1 -3 -4 -4 -3 -2 5 32 86 107 57 15 0 -3 -4 -4 -4 -4 -4 -4 -4 -4 -4 -4 -4 -4 -4 -4 -4 -4 -4 -4 -2 3 30 89 100 41 7 -1 -3 -4 -4 -4 -4 -4 -4 -4 -4 -4 -4 -4 -3 -2 5 32 86 107 54 13 0 -3 -4 -4 -4 -4 -4 -4 -4 -4 -4 -3 2 24 78 109 56 14 0 -3 -4 -4 -4 -3 -1 7 34 86 114 99 114 
95 33 4 -2 -4 -4 -4 -4 -4 -4 -4 -4 -3 2 23 77 109 56 14 0 -3 -4 -4 -3 0 15 57 107 86 32 5 -2 -3 -4 -4 -4 -4 -4 -4 -4 -4 -4 -4 -4 -4 -4 -4 -4 -4 -4 -4 -3 2 23 77 109 56 14 0 -3 -3 -4 -4 -4 -4 -4 -4 -4 -4 -4 -4 -3 0 13 54 107 86 32 5 -2 -3 -4 -4 -4 -4 -4 -4 -4 -4 -4 -2 4 32 91 99 40 7 -1 -3 -4 -4 -4 -2 2 22 65 109 93 70 103 
94 33 4 -2 -4 -4 -4 -4 -4 -4 -4 -4 -3 0 14 56 109 77 23 2 -3 -4 -3 -1 7 35 87 107 56 15 0 -3 -4 -4 -4 -4 -4 -4 -4 -4 -4 -4 -4 -4 -4 -4 -4 -4 -4 -4 -4 -3 0 14 57 109 78 25 3 -1 -2 -3 -3 -3 -4 -4 -4 -4 -4 -4 -4 -2 2 25 79 109 59 15 0 -3 -4 -4 -4 -4 -4 -4 -4 -4 -4 -3 -1 7 40 99 91 32 4 -2 -4 -4 -4 -3 0 14 51 101 102 59 51 98 
94 33 4 -2 -4 -4 -4 -4 -4 -4 -4 -4 -3 -1 7 41 100 89 30 3 -2 -3 -2 2 22 65 109 85 32 5 -2 -3 -4 -4 -4 -4 -4 -4 -4 -4 -4 -4 -4 -4 -4 -4 -4 -4 -4 -4 -4 -3 -1 9 44 104 95 38 12 5 4 2 0 -1 -2 -2 -2 -2 -3 -3 -3 -1 7 39 96 96 38 7 -1 -3 -4 -4 -4 -4 -4 -4 -4 -4 -4 -3 0 14 56 109 78 24 2 -3 -4 -4 -3 -1 7 34 86 109 67 31 40 95 
94 33 4 -2 -4 -4 -4 -4 -4 -4 -4 -4 -4 -2 5 34 94 94 34 5 -2 -3 0 13 51 101 101 51 13 0 -3 -4 -4 -4 -4 -4 -4 -4 -4 -4 -4 -4 -4 -4 -4 -4 -4 -4 -4 -4 -3 -2 1 14 49 112 116 65 41 34 30 23 14 7 5 4 4 3 2 0 -1 2 17 59 109 79 25 2 -2 -4 -4 -4 -4 -4 -4 -4 -4 -4 -4 -3 2 24 78 109 56 14 0 -3 -4 -4 -2 2 22 65 108 86 36 16 36 94 
94 33 4 -2 -4 -4 -4 -4 -4 -4 -4 -4 -4 -2 3 30 89 100 41 7 -1 -1 5 32 85 109 65 22 2 -2 -4 -4 -4 -4 -4 -4 -4 -4 -4 -4 -4 -4 -4 -4 -4 -4 -4 -4 -4 -3 -1 3 14 37 78 135 144 115 99 94 89 77 56 41 35 33 32 30 23 14 9 14 38 89 107 54 13 0 -3 -4 -4 -4 -4 -4 -4 -4 -4 -4 -4 -2 4 32 91 99 40 7 -1 -3 -4 -3 0 14 51 101 101 51 15 9 34 94 
94 33 4 -2 -4 -4 -4 -4 -4 -4 -4 -4 -4 -3 2 23 77 109 56 14 0 0 15 56 107 87 35 7 -1 -3 -4 -4 -4 -4 -4 -4 -4 -4 -4 -4 -4 -4 -4 -4 -4 -4 -4 -3 -2 0 7 22 51 87 115 124 112 100 96 96 100 109 109 100 96 94 93 89 77 57 44 49 79 117 89 33 5 -2 -3 -4 -4 -4 -4 -4 -4 -4 -4 -4 -3 -1 7 40 99 91 32 4 -2 -3 -3 -1 7 34 86 108 65 22 4 6 33 94 
94 33 4 -2 -4 -4 -4 -4 -4 -4 -4 -4 -4 -3 0 14 56 109 77 24 4 6 32 86 107 57 15 0 -3 -4 -4 -4 -4 -4 -4 -4 -4 -4 -4 -4 -4 -4 -4 -4 -4 -4 -3 -1 2 14 34 65 101 109 89 60 42 35 34 35 41 56 77 89 93 94 96 100 109 109 104 111 135 132 69 19 1 -3 -4 -4 -4 -4 -4 -4 -4 -4 -4 -4 -3 0 14 56 109 78 24 2 -3 -3 -2 3 22 65 108 86 34 7 0 5 33 94 
94 33 4 -2 -4 -4 -4 -4 -4 -4 -4 -4 -4 -3 -1 7 41 100 89 31 8 17 57 107 86 32 5 -2 -3 -4 -4 -4 -4 -4 -4 -4 -4 -4 -4 -4 -4 -4 -4 -4 -3 -2 0 7 22 51 86 108 101 65 35 16 8 5 4 5 7 14 23 30 32 33 35 41 56 78 93 108 135 132 69 20 1 -3 -4 -4 -4 -4 -4 -4 -4 -4 -4 -4 -3 2 24 78 109 56 14 0 -3 -3 0 14 51 101 101 51 14 0 -1 4 33 94 
94 33 4 -2 -4 -4 -4 -4 -4 -4 -4 -4 -4 -4 -2 5 34 94 95 37 16 36 88 107 56 15 0 -3 -4 -4 -4 -4 -4 -4 -4 -4 -4 -4 -4 -4 -4 -4 -4 -3 -2 2 14 34 65 101 108 86 51 22 7 0 -1 -2 -2 -2 -1 0 2 3 4 4 5 7 14 24 33 46 78 116 91 36 8 0 -3 -3 -4 -4 -4 -4 -4 -4 -4 -3 -2 4 32 91 99 40 7 -1 -3 -1 7 34 86 108 65 22 3 -2 -2 4 33 94 
94 33 4 -2 -4 -4 -4 -4 -4 -4 -4 -4 -4 -4 -2 3 30 89 101 48 34 68 109 85 32 5 -2 -3 -4 -4 -4 -4 -4 -4 -4 -4 -4 -4 -4 -4 -4 -4 -3 -1 4 20 50 86 108 101 65 34 14 3 -1 -3 -3 -4 -4 -4 -3 -3 -3 -2 -2 -2 -2 -1 0 2 5 13 37 87 110 68 27 8 0 -1 -2 -2 -2 -2 -2 -2 -2 -2 0 9 41 100 91 32 4 -2 -2 3 22 65 108 86 34 7 -1 -3 -2 4 33 94 
94 33 4 -2 -4 -4 -4 -4 -4 -4 -4 -4 -4 -4 -3 2 23 78 111 73 68 104 101 51 13 0 -3 -4 -4 -4 -4 -4 -4 -4 -4 -4 -4 -4 -4 -4 -3 -2 0 7 24 60 100 109 86 51 22 7 0 -2 -3 -4 -4 -4 -4 -4 -4 -4 -4 -4 -4 -4 -4 -3 -3 -3 -2 1 14 51 103 109 69 36 16 8 5 4 4 4 4 4 4 5 8 22 62 112 81 26 3 -1 0 14 51 101 101 51 14 0 -3 -3 -2 4 33 94 
94 33 4 -2 -4 -4 -4 -4 -4 -4 -4 -4 -4 -4 -3 0 14 56 113 108 108 112 65 22 2 -2 -4 -4 -4 -4 -4 -4 -4 -4 -4 -4 -4 -4 -4 -3 -1 3 14 34 67 104 104 67 34 14 3 -1 -3 -4 -4 -4 -4 -4 -4 -4 -4 -4 -4 -4 -4 -4 -4 -4 -4 -4 -3 -2 3 23 70 126 129 93 60 42 35 33 33 33 33 33 33 34 39 57 101 125 70 22 4 0 8 34 86 108 65 22 2 -2 -3 -4 -2 4 33 94 
94 33 4 -2 -4 -4 -4 -4 -4 -4 -4 -4 -4 -4 -3 -1 7 41 106 134 128 89 35 7 -1 -3 -4 -4 -4 -4 -4 -4 -4 -4 -4 -4 -4 -3 -2 0 7 22 51 86 109 100 60 24 7 0 -2 -3 -4 -4 -4 -4 -4 -4 -4 -4 -4 -4 -4 -4 -4 -4 -4 -4 -4 -4 -4 -3 0 10 47 116 147 128 113 101 96 94 94 94 94 94 94 95 98 112 141 140 86 41 18 12 25 66 109 86 34 7 -1 -3 -4 -4 -2 4 33 94 
94 33 4 -2 -4 -4 -4 -4 -4 -4 -4 -4 -4 -4 -4 -2 5 35 103 149 120 57 15 0 -3 -4 -4 -4 -4 -4 -4 -4 -4 -4 -4 -4 -3 -1 2 14 34 65 101 108 86 50 20 4 -1 -3 -4 -4 -4 -4 -4 -4 -4 -4 -4 -4 -4 -4 -4 -4 -4 -4 -4 -4 -4 -4 -4 -3 -1 8 44 108 117 85 84 90 93 94 94 94 94 94 94 94 95 100 112 125 116 90 60 47 65 106 103 51 14 0 -3 -4 -4 -4 -2 4 33 94 
94 33 4 -2 -4 -4 -4 -4 -4 -4 -4 -4 -4 -4 -4 -2 4 33 102 146 92 32 5 -2 -3 -4 -4 -4 -4 -4 -4 -4 -4 -4 -3 -2 0 7 22 51 86 109 101 65 34 14 2 -2 -3 -4 -4 -4 -4 -4 -4 -4 -4 -4 -4 -4 -4 -4 -4 -4 -4 -4 -4 -4 -4 -4 -4 -3 0 14 57 111 86 41 30 31 32 33 33 33 33 33 33 33 33 35 42 60 88 108 111 107 120 122 71 24 3 -2 -4 -4 -4 -4 -2 4 33 94 
94 33 4 -2 -4 -4 -4 -4 -4 -4 -4 -4 -4 -4 -4 -2 4 33 99 124 60 15 0 -3 -4 -4 -4 -4 -4 -4 -4 -3 -3 -2 -1 2 13 34 66 103 110 87 52 23 7 0 -2 -3 -4 -4 -4 -4 -4 -4 -4 -4 -4 -4 -4 -4 -4 -4 -4 -4 -4 -4 -4 -4 -4 -4 -4 -3 2 23 77 109 58 17 6 4 4 4 4 4 4 4 4 4 4 5 8 16 32 57 89 121 149 123 56 14 0 -3 -4 -4 -4 -4 -2 4 33 94 
94 33 4 -2 -4 -4 -4 -4 -4 -4 -4 -4 -4 -4 -4 -2 4 33 96 104 42 7 -1 -3 -4 -4 -4 -4 -4 -3 -3 -2 0 3 8 22 51 90 120 115 76 43 22 9 2 -1 -2 -3 -3 -3 -4 -4 -4 -4 -4 -4 -4 -4 -4 -4 -4 -4 -4 -4 -4 -4 -4 -4 -4 -4 -4 -2 3 30 89 100 41 8 0 -2 -2 -2 -2 -2 -2 -2 -2 -2 -2 -2 -1 0 5 15 35 69 118 125 72 24 3 -2 -4 -4 -4 -4 -2 4 33 94 
94 33 4 -2 -4 -4 -4 -4 -4 -4 -4 -4 -4 -4 -4 -2 5 35 96 95 34 5 -2 -4 -4 -4 -4 -3 -3 -2 0 5 13 26 41 68 112 145 143 106 66 45 35 25 14 7 4 2 0 -1 -2 -2 -3 -3 -3 -4 -4 -4 -4 -4 -4 -4 -4 -4 -4 -4 -4 -4 -4 -4 -4 -2 4 33 93 95 35 5 -2 -3 -4 -4 -4 -4 -4 -4 -4 -4 -4 -4 -3 -3 -2 0 7 25 63 108 103 51 14 0 -3 -4 -4 -4 -2 4 33 94 
94 33 4 -2 -4 -4 -4 -4 -4 -4 -4 -4 -4 -4 -3 -1 7 41 100 89 30 3 -2 -3 -3 -3 -2 -1 0 5 15 32 54 79 98 114 121 121 125 120 106 97 90 78 56 40 32 24 14 7 5 3 2 0 -1 -2 -3 -3 -3 -4 -4 -4 -4 -4 -4 -4 -4 -4 -4 -4 -4 -2 5 35 95 93 33 4 -2 -4 -4 -4 -4 -4 -4 -4 -4 -4 -4 -4 -4 -4 -3 -3 -1 5 25 67 109 86 34 7 -1 -3 -4 -4 -2 4 33 94 
94 33 4 -2 -4 -4 -4 -4 -4 -4 -4 -4 -4 -4 -3 0 14 56 109 77 23 2 -2 -3 -2 0 2 7 16 32 56 86 107 109 97 81 59 49 59 78 90 95 100 109 109 99 91 78 56 41 34 30 23 14 7 4 2 0 -1 -2 -2 -3 -3 -3 -4 -4 -4 -4 -4 -4 -3 -1 7 41 100 89 30 3 -2 -4 -4 -4 -4 -4 -4 -4 -4 -4 -4 -4 -4 -4 -4 -4 -3 -1 7 34 86 108 65 22 3 -2 -3 -4 -2 4 33 94 
94 33 4 -2 -4 -4 -4 -4 -4 -4 -4 -4 -4 -4 -3 2 23 77 109 56 14 0 -1 0 5 13 25 38 59 87 107 107 87 59 39 26 15 10 14 24 30 34 41 56 78 91 99 109 109 100 94 89 77 56 40 32 24 14 7 5 3 2 0 -1 -2 -3 -3 -3 -4 -3 -3 0 14 56 109 77 23 2 -3 -4 -4 -4 -4 -4 -4 -4 -4 -4 -4 -4 -4 -4 -4 -4 -4 -3 0 14 51 101 101 51 14 0 -3 -3 -2 4 33 94 
94 33 4 -2 -4 -4 -4 -4 -4 -4 -4 -4 -4 -4 -2 3 30 89 100 42 9 2 5 15 32 54 79 96 109 107 86 56 32 16 7 2 0 -1 0 2 3 5 7 14 24 32 40 56 77 89 94 100 109 109 99 91 78 56 41 34 30 23 14 7 4 2 0 -1 -2 -2 -1 2 24 77 109 56 14 0 -3 -4 -4 -4 -4 -4 -4 -4 -4 -4 -4 -4 -4 -4 -4 -4 -4 -4 -2 3 22 65 108 86 34 7 -1 -3 -2 4 33 94 
94 33 4 -2 -4 -4 -4 -4 -4 -4 -4 -4 -4 -4 -2 5 34 95 96 39 15 17 32 56 86 107 109 96 79 54 32 15 5 0 -1 -2 -3 -3 -3 -3 -2 -2 -1 0 2 4 7 14 23 30 34 41 56 78 91 99 109 109 100 94 89 77 56 40 32 24 14 7 5 4 3 7 32 90 101 41 7 -1 -3 -4 -4 -4 -4 -4 -4 -4 -4 -4 -4 -4 -4 -4 -4 -4 -4 -4 -3 -1 7 34 86 109 67 24 4 -1 -2 4 33 94 
94 33 4 -2 -4 -4 -4 -4 -4 -4 -4 -4 -4 -3 -1 8 41 103 99 50 40 58 87 107 107 87 59 38 25 13 5 0 -2 -3 -3 -4 -4 -4 -4 -4 -4 -4 -3 -3 -3 -2 -1 0 2 3 5 7 14 24 32 40 56 77 89 94 100 109 109 99 91 78 56 41 34 30 25 22 43 98 96 35 5 -2 -4 -4 -4 -4 -4 -4 -4 -4 -4 -4 -4 -4 -4 -4 -4 -4 -4 -4 -4 -3 0 14 50 100 104 60 20 2 -1 4 33 94 
94 33 4 -2 -4 -4 -4 -4 -4 -4 -4 -4 -4 -3 0 15 60 121 113 84 92 108 107 86 57 32 16 7 2 0 -2 -3 -3 -4 -4 -4 -4 -4 -4 -4 -4 -4 -4 -4 -4 -4 -3 -3 -3 -2 -2 -1 0 2 4 7 14 23 30 34 41 56 78 91 99 109 109 100 94 89 79 64 74 115 98 33 4 -2 -4 -4 -4 -4 -4 -4 -4 -4 -4 -4 -4 -4 -4 -4 -4 -4 -4 -4 -4 -4 -2 2 20 60 104 100 50 14 1 5 33 94 
94 33 4 -2 -4 -4 -4 -4 -4 -4 -4 -4 -3 -2 5 32 93 146 137 120 108 86 56 32 15 5 0 -1 -2 -3 -3 -4 -4 -4 -4 -4 -4 -4 -4 -4 -4 -4 -4 -4 -4 -4 -4 -4 -4 -4 -4 -3 -3 -3 -2 -1 0 2 3 5 7 14 24 32 40 56 77 89 94 100 109 114 123 144 102 33 4 -2 -4 -4 -4 -4 -4 -4 -4 -4 -4 -4 -4 -4 -4 -4 -4 -4 -4 -4 -4 -4 -3 -2 4 24 67 109 86 35 9 7 34 94 
94 33 4 -2 -4 -4 -4 -4 -4 -4 -4 -4 -3 0 15 57 118 132 106 81 54 32 15 5 0 -2 -3 -3 -4 -4 -4 -4 -4 -4 -4 -4 -4 -4 -4 -4 -4 -4 -4 -4 -4 -4 -4 -4 -4 -4 -4 -4 -4 -4 -4 -3 -3 -3 -2 -2 -1 0 2 4 7 14 23 30 34 41 57 83 113 142 101 33 4 -2 -4 -4 -4 -4 -4 -4 -4 -4 -4 -4 -4 -4 -4 -4 -4 -4 -4 -4 -4 -4 -4 -3 -1 7 34 86 109 67 26 13 35 94 
94 33 4 -2 -4 -4 -4 -4 -4 -4 -4 -3 -1 7 35 88 114 77 43 26 13 5 0 -2 -3 -3 -4 -4 -4 -4 -4 -4 -4 -4 -4 -4 -4 -4 -4 -4 -4 -4 -4 -4 -4 -4 -4 -4 -4 -4 -4 -4 -4 -4 -4 -4 -4 -4 -4 -4 -3 -3 -3 -2 -1 0 2 3 5 7 15 32 63 114 97 33 4 -2 -4 -4 -4 -4 -4 -4 -4 -4 -4 -4 -4 -4 -4 -4 -4 -4 -4 -4 -4 -4 -4 -4 -3 0 14 50 100 104 61 29 40 95 
94 33 4 -2 -4 -4 -4 -4 -4 -4 -4 -2 3 22 65 109 87 37 12 3 0 -2 -3 -3 -4 -4 -4 -4 -4 -4 -4 -4 -4 -4 -4 -4 -4 -4 -4 -4 -4 -4 -4 -4 -4 -4 -4 -4 -4 -4 -4 -4 -4 -4 -4 -4 -4 -4 -4 -4 -4 -4 -4 -4 -3 -3 -3 -2 -2 -1 1 10 40 99 95 33 4 -2 -4 -4 -4 -4 -4 -4 -4 -4 -4 -4 -4 -4 -4 -4 -4 -4 -4 -4 -4 -4 -4 -4 -4 -2 2 20 60 104 101 59 51 98 
95 33 4 -2 -4 -4 -4 -4 -4 -4 -3 0 14 51 101 101 51 14 1 -2 -3 -3 -4 -4 -4 -4 -4 -4 -4 -4 -4 -4 -4 -4 -4 -4 -4 -4 -4 -4 -4 -4 -4 -4 -4 -4 -4 -4 -4 -4 -4 -4 -4 -4 -4 -4 -4 -4 -4 -4 -4 -4 -4 -4 -4 -4 -4 -4 -4 -3 -2 5 34 95 94 33 4 -2 -4 -4 -4 -4 -4 -4 -4 -4 -4 -4 -4 -4 -4 -4 -4 -4 -4 -4 -4 -4 -4 -4 -4 -3 -2 4 24 67 109 93 70 103 
96 33 4 -2 -4 -4 -4 -4 -4 -3 -1 7 34 86 109 65 22 3 -2 -3 -4 -4 -4 -4 -4 -4 -4 -4 -4 -4 -4 -4 -4 -4 -4 -4 -4 -4 -4 -4 -4 -4 -4 -4 -4 -4 -4 -4 -4 -4 -4 -4 -4 -4 -4 -4 -4 -4 -4 -4 -4 -4 -4 -4 -4 -4 -4 -4 -4 -3 -2 4 33 94 96 36 5 -2 -3 -4 -4 -4 -4 -4 -4 -4 -4 -4 -4 -4 -4 -4 -4 -4 -4 -4 -4 -4 -4 -4 -4 -4 -3 -1 7 34 86 114 99 114 
98 33 4 -2 -4 -4 -4 -4 -3 -1 5 25 67 109 87 36 8 0 -3 -3 -4 -4 -4 -4 -4 -4 -4 -4 -4 -4 -4 -4 -4 -4 -4 -4 -4 -4 -4 -4 -4 -4 -4 -4 -4 -4 -4 -4 -4 -4 -4 -4 -4 -4 -4 -4 -4 -4 -4 -4 -4 -4 -4 -4 -4 -4 -4 -4 -4 -3 -2 5 33 94 104 45 10 0 -3 -3 -4 -4 -4 -4 -4 -4 -4 -4 -4 -4 -4 -4 -4 -4 -4 -4 -4 -4 -4 -4 -4 -4 -4 -3 0 14 51 104 127 134 
101 33 4 -2 -4 -4 -4 -3 -1 4 23 62 107 107 59 22 6 0 -1 -2 -2 -2 -2 -2 -2 -2 -2 -2 -3 -3 -3 -4 -4 -4 -4 -4 -4 -4 -4 -4 -4 -4 -4 -4 -4 -4 -4 -4 -4 -4 -4 -4 -4 -4 -4 -4 -4 -4 -4 -4 -4 -4 -4 -4 -4 -4 -4 -4 -3 -2 1 11 40 99 124 72 27 8 0 -2 -3 -4 -4 -4 -4 -4 -4 -4 -4 -4 -4 -4 -4 -4 -4 -4 -4 -4 -4 -4 -4 -4 -4 -4 -2 2 22 66 123 149 
102 33 4 -2 -4 -4 -3 -1 4 23 62 113 128 93 56 37 25 14 7 5 4 4 4 4 4 4 4 3 2 0 -1 -2 -2 -2 -2 -2 -2 -2 -2 -3 -3 -3 -4 -4 -4 -4 -4 -4 -4 -4 -4 -4 -4 -4 -4 -4 -4 -4 -4 -4 -4 -4 -4 -4 -4 -4 -3 -3 -1 2 14 34 68 119 149 119 69 35 15 5 0 -2 -3 -4 -4 -4 -4 -4 -4 -4 -4 -4 -4 -4 -4 -4 -4 -4 -4 -4 -4 -4 -4 -4 -3 -1 7 35 93 146 
99 33 4 -2 -3 -3 -1 4 23 62 115 149 139 115 100 91 78 56 41 35 33 33 33 33 33 33 32 30 23 14 7 5 4 4 4 4 4 4 3 2 0 -1 -2 -2 -2 -2 -2 -2 -2 -2 -2 -3 -3 -3 -4 -4 -4 -4 -4 -4 -4 -4 -4 -4 -4 -3 -2 0 7 22 51 86 111 120 121 123 113 88 57 32 13 2 -1 -3 -3 -4 -4 -4 -4 -4 -4 -4 -4 -4 -4 -4 -4 -4 -4 -4 -4 -4 -4 -4 -4 -3 0 16 61 124 
96 33 4 -2 -3 -1 4 23 61 106 123 113 103 97 96 101 109 109 100 96 94 94 94 94 94 94 93 89 77 56 41 35 33 33 33 33 33 32 30 23 14 7 5 4 4 4 4 4 4 4 3 2 0 -1 -2 -2 -2 -2 -2 -2 -2 -2 -3 -3 -2 0 5 15 35 65 101 109 89 62 51 62 88 108 107 85 51 22 7 0 -2 -3 -4 -4 -4 -4 -4 -4 -4 -4 -4 -4 -4 -4 -4 -4 -4 -4 -4 -4 -4 -3 -1 8 42 105 
94 33 4 -1 0 5 23 61 103 106 71 45 36 34 35 41 56 77 89 93 94 94 94 94 94 94 96 100 109 109 100 96 94 94 94 94 94 93 89 77 56 41 35 33 33 33 33 33 33 32 30 23 14 7 5 4 4 4 4 4 4 3 2 1 3 13 32 57 87 109 101 65 35 17 11 16 33 57 87 109 101 65 35 15 5 0 -2 -3 -4 -4 -4 -4 -4 -4 -4 -4 -4 -4 -4 -4 -4 -4 -4 -4 -4 -4 -2 5 35 97 
94 33 6 1 8 25 61 103 103 62 26 10 5 4 5 7 14 23 30 32 33 33 33 33 33 33 35 41 56 77 89 93 94 94 94 94 94 96 100 109 109 100 96 94 94 94 94 94 94 93 89 77 56 41 35 33 33 33 33 33 32 30 24 19 26 51 85 107 107 85 51 22 7 0 0 0 5 15 35 65 101 109 87 57 32 13 2 -1 -3 -3 -4 -4 -4 -4 -4 -4 -4 -4 -4 -4 -4 -4 -4 -4 -4 -4 -2 4 33 94 
94 35 11 15 35 67 104 103 61 23 5 0 -2 -2 -2 -1 0 2 3 4 4 4 4 4 4 4 5 7 14 23 30 32 33 33 33 33 33 35 41 56 77 89 93 94 94 94 94 94 94 96 100 109 109 100 96 94 94 94 94 94 93 89 80 68 77 105 109 88 57 32 13 2 -1 -3 -3 -3 -2 0 7 22 51 85 107 107 85 51 22 7 0 -2 -3 -4 -4 -4 -4 -4 -4 -4 -4 -4 -4 -4 -4 -4 -4 -4 -2 4 33 94 
96 41 29 52 86 109 100 59 23 4 -1 -3 -3 -4 -4 -3 -3 -3 -2 -2 -2 -2 -2 -2 -2 -2 -2 -1 0 2 3 4 4 4 4 4 4 5 7 14 23 30 32 33 33 33 33 33 33 35 41 56 77 89 93 94 94 94 94 94 96 103 118 133 134 111 68 35 15 5 0 -2 -3 -4 -4 -4 -3 -3 -1 2 13 32 57 87 109 101 65 35 15 5 0 -2 -3 -4 -4 -4 -4 -4 -4 -4 -4 -4 -4 -4 -4 -4 -2 4 33 94 
101 59 68 101 109 86 50 20 4 -1 -3 -4 -4 -4 -4 -4 -4 -4 -4 -4 -4 -4 -4 -4 -4 -4 -4 -3 -3 -3 -2 -2 -2 -2 -2 -2 -2 -2 -1 0 2 3 4 4 4 4 4 4 4 5 7 14 23 30 32 33 33 33 33 34 36 47 81 135 134 73 27 8 0 -2 -3 -4 -4 -4 -4 -4 -4 -4 -3 -2 0 5 15 35 65 101 109 87 57 32 13 2 -1 -3 -3 -4 -4 -4 -4 -4 -4 -4 -4 -4 -4 -4 -2 4 33 95 
115 95 109 105 67 34 14 2 -2 -3 -4 -4 -4 -4 -4 -4 -4 -4 -4 -4 -4 -4 -4 -4 -4 -4 -4 -4 -4 -4 -4 -4 -4 -4 -4 -4 -4 -4 -3 -3 -3 -2 -2 -2 -2 -2 -2 -2 -2 -2 -1 0 2 3 4 4 4 4 4 5 6 15 48 109 109 45 10 0 -3 -3 -4 -4 -4 -4 -4 -4 -4 -4 -4 -4 -3 -2 0 7 22 51 85 107 107 85 51 22 7 0 -2 -3 -3 -4 -4 -4 -4 -4 -4 -4 -4 -4 -2 4 33 96 
139 128 106 62 25 7 0 -2 -3 -4 -4 -4 -4 -4 -4 -4 -4 -4 -4 -4 -4 -4 -4 -4 -4 -4 -4 -4 -4 -4 -4 -4 -4 -4 -4 -4 -4 -4 -4 -4 -4 -4 -4 -4 -4 -4 -4 -4 -4 -4 -3 -3 -3 -2 -2 -2 -2 -2 -2 -2 0 6 36 98 97 36 5 -2 -3 -4 -4 -4 -4 -4 -4 -4 -4 -4 -4 -4 -4 -3 -3 -1 2 13 32 57 87 109 101 65 35 15 5 0 -2 -3 -4 -4 -4 -4 -4 -4 -4 -4 -2 4 33 99 
150 116 62 23 5 -1 -3 -4 -4 -4 -4 -4 -4 -4 -4 -4 -4 -4 -4 -4 -4 -4 -4 -4 -4 -4 -4 -4 -4 -4 -4 -4 -4 -4 -4 -4 -4 -4 -4 -4 -4 -4 -4 -4 -4 -4 -4 -4 -4 -4 -4 -4 -4 -4 -4 -4 -4 -4 -4 -3 -2 5 34 95 95 33 4 -2 -4 -4 -4 -4 -4 -4 -4 -4 -4 -4 -4 -4 -4 -4 -4 -3 -2 0 5 15 35 65 101 109 87 57 32 15 5 0 -2 -3 -4 -4 -4 -4 -4 -4 -2 4 33 102 
129 72 26 5 -1 -3 -4 -4 -4 -4 -4 -4 -4 -4 -4 -4 -4 -4 -4 -4 -4 -4 -4 -4 -4 -4 -4 -4 -4 -4 -4 -4 -4 -4 -4 -4 -4 -4 -4 -4 -4 -4 -4 -4 -4 -4 -4 -4 -4 -4 -4 -4 -4 -4 -4 -4 -4 -4 -4 -4 -2 4 33 94 94 33 4 -2 -4 -4 -4 -4 -4 -4 -4 -4 -4 -4 -4 -4 -4 -4 -4 -4 -4 -3 -2 0 7 22 51 85 107 107 86 56 32 13 2 -1 -3 -3 -4 -4 -4 -4 -2 4 33 100 
106 45 10 0 -3 -4 -4 -4 -4 -4 -4 -4 -4 -4 -4 -4 -4 -4 -4 -4 -4 -4 -4 -4 -4 -4 -4 -4 -4 -4 -4 -4 -4 -4 -4 -4 -4 -4 -4 -4 -4 -4 -4 -4 -4 -4 -4 -4 -4 -4 -4 -4 -4 -4 -4 -4 -4 -4 -4 -4 -2 4 33 94 94 33 4 -2 -4 -4 -4 -4 -4 -4 -4 -4 -4 -4 -4 -4 -4 -4 -4 -4 -4 -4 -3 -3 -1 2 13 32 56 86 107 107 85 51 22 7 0 -1 -2 -3 -3 -3 -2 4 33 96 
97 36 5 -2 -3 -4 -4 -4 -4 -4 -4 -4 -4 -4 -4 -4 -4 -4 -4 -4 -4 -4 -4 -4 -4 -4 -4 -4 -4 -4 -4 -4 -4 -4 -4 -4 -4 -4 -4 -4 -4 -4 -4 -4 -4 -4 -4 -4 -4 -4 -4 -4 -4 -4 -4 -4 -4 -4 -4 -4 -2 4 33 94 94 33 4 -2 -4 -4 -4 -4 -4 -4 -4 -4 -4 -4 -4 -4 -4 -4 -4 -4 -4 -4 -4 -4 -3 -2 0 5 15 32 57 88 109 102 66 35 16 7 4 2 0 -1 -1 5 34 95 
95 33 4 -2 -4 -4 -4 -4 -4 -4 -4 -4 -4 -4 -4 -4 -4 -4 -4 -4 -4 -4 -4 -4 -4 -4 -4 -4 -4 -4 -4 -4 -4 -4 -4 -4 -4 -4 -4 -4 -4 -4 -4 -4 -4 -4 -4 -4 -4 -4 -4 -4 -4 -4 -4 -4 -4 -4 -4 -4 -2 4 33 94 94 33 4 -2 -4 -4 -4 -4 -4 -4 -4 -4 -4 -4 -4 -4 -4 -4 -4 -4 -4 -4 -4 -4 -4 -4 -3 -2 0 6 17 37 70 108 116 93 61 41 32 24 14 7 6 11 37 96 
95 33 4 -2 -3 -4 -4 -4 -4 -4 -4 -4 -4 -4 -4 -4 -4 -4 -4 -4 -4 -4 -4 -4 -4 -4 -4 -4 -4 -4 -4 -4 -4 -4 -4 -4 -4 -4 -4 -4 -4 -4 -4 -4 -4 -4 -4 -4 -4 -4 -4 -4 -4 -4 -4 -4 -4 -4 -4 -4 -2 4 33 94 94 33 4 -2 -4 -4 -4 -4 -4 -4 -4 -4 -4 -4 -4 -4 -4 -4 -4 -4 -4 -4 -4 -4 -4 -4 -3 -3 -1 1 7 18 42 85 130 146 126 104 92 78 56 40 33 32 50 101 
99 34 6 -1 -2 -2 -2 -2 -3 -3 -3 -4 -4 -4 -4 -4 -4 -4 -4 -4 -4 -4 -4 -4 -4 -4 -4 -4 -4 -4 -4 -4 -4 -4 -4 -4 -4 -4 -4 -4 -4 -4 -4 -4 -4 -4 -4 -4 -4 -4 -4 -4 -4 -4 -4 -4 -4 -4 -4 -4 -2 4 33 94 94 33 4 -2 -4 -4 -4 -4 -4 -4 -4 -4 -4 -4 -4 -4 -4 -4 -4 -4 -4 -4 -4 -3 -3 -2 -1 0 5 13 26 41 65 102 129 129 111 101 101 109 109 100 92 85 88 120 
107 41 13 6 4 4 4 3 2 0 -1 -2 -2 -2 -2 -2 -3 -3 -3 -4 -4 -4 -4 -4 -4 -4 -4 -4 -4 -4 -4 -4 -4 -4 -4 -4 -4 -4 -4 -4 -4 -4 -4 -4 -4 -4 -4 -4 -4 -4 -4 -4 -4 -4 -4 -4 -4 -4 -4 -4 -2 4 33 94 94 33 4 -2 -4 -4 -4 -4 -4 -4 -4 -4 -4 -4 -4 -4 -4 -4 -4 -4 -4 -3 -3 -2 0 2 7 15 32 54 79 97 110 109 89 60 42 37 41 56 78 91 100 113 130 148 
122 66 41 34 33 33 32 30 23 14 7 5 4 4 4 3 2 0 -1 -2 -2 -2 -2 -2 -2 -3 -3 -3 -4 -4 -4 -4 -4 -4 -4 -4 -4 -4 -4 -4 -4 -4 -4 -4 -4 -4 -4 -4 -4 -4 -4 -4 -4 -4 -4 -4 -4 -4 -4 -4 -2 4 33 94 94 33 4 -2 -4 -4 -4 -4 -4 -4 -4 -4 -4 -4 -4 -4 -4 -4 -3 -3 -2 -1 0 5 13 25 38 59 86 107 109 96 79 54 32 15 8 6 7 14 24 32 41 62 102 144 
147 118 100 95 94 94 93 89 77 56 41 35 33 33 32 30 23 14 7 5 4 4 4 4 3 2 0 -1 -2 -2 -2 -2 -2 -3 -3 -3 -4 -4 -4 -4 -4 -4 -4 -4 -4 -4 -4 -4 -4 -4 -4 -4 -4 -4 -4 -4 -4 -4 -4 -4 -2 4 33 94 94 33 4 -2 -4 -4 -4 -4 -4 -4 -4 -4 -4 -4 -4 -4 -3 -3 -2 0 2 7 15 32 54 79 96 109 107 86 59 38 25 13 5 0 -1 -2 -1 0 2 4 9 22 57 120 
144 117 100 95 94 94 96 100 109 109 100 96 94 94 93 89 77 56 41 35 33 33 33 32 30 23 14 7 5 4 4 4 3 2 0 -1 -2 -2 -2 -2 -2 -2 -3 -3 -3 -4 -4 -4 -4 -4 -4 -4 -4 -4 -4 -4 -4 -4 -4 -4 -2 4 33 94 94 33 4 -2 -4 -4 -4 -4 -4 -4 -4 -4 -4 -4 -3 -3 -2 0 5 13 25 38 59 86 107 109 96 79 54 32 15 7 2 0 -2 -3 -3 -4 -3 -3 -3 -2 0 8 39 106 
114 66 41 34 33 33 35 41 56 77 89 93 94 94 96 100 109 109 100 96 94 94 94 93 89 77 56 41 35 33 33 32 30 23 14 7 5 4 4 4 4 3 2 0 -1 -2 -2 -2 -2 -2 -3 -3 -3 -4 -4 -4 -4 -4 -4 -3 -2 4 33 94 94 33 4 -2 -4 -4 -4 -4 -4 -4 -4 -3 -3 -2 -1 0 5 15 32 54 79 96 109 107 86 59 38 25 13 5 0 -1 -2 -3 -3 -4 -4 -4 -4 -4 -4 -3 -2 5 34 98 
99 41 13 6 4 4 5 7 14 23 30 32 33 33 35 41 56 77 89 93 94 94 94 96 100 109 109 100 96 94 94 93 89 77 56 41 35 33 33 33 32 30 23 14 7 5 4 4 4 3 2 0 -1 -2 -2 -2 -2 -2 -2 -2 -2 5 33 94 94 33 4 -2 -4 -4 -4 -4 -4 -3 -3 -2 0 2 7 16 32 56 86 107 109 96 79 54 32 15 7 2 0 -2 -3 -3 -4 -4 -4 -4 -4 -4 -4 -4 -4 -4 -2 4 33 95 
95 34 6 -1 -2 -2 -2 -1 0 2 3 4 4 4 5 7 14 23 30 32 33 33 33 35 41 56 77 89 93 94 94 96 100 109 109 100 96 94 94 94 93 89 77 56 41 35 33 33 32 30 23 14 7 5 4 4 4 4 3 2 1 7 35 95 95 33 4 -2 -4 -4 -3 -3 -2 -1 0 5 13 25 38 59 87 107 107 87 59 38 25 13 5 0 -1 -2 -3 -3 -4 -4 -4 -4 -4 -4 -4 -4 -4 -4 -4 -4 -2 4 33 94 
94 33 4 -2 -3 -4 -4 -3 -3 -3 -2 -2 -2 -2 -2 -1 0 2 3 4 4 4 4 5 7 14 23 30 32 33 33 35 41 56 77 89 93 94 94 94 96 100 109 109 100 96 94 94 93 89 77 56 41 35 33 33 33 32 30 24 15 16 42 100 98 36 5 -2 -3 -3 -2 0 2 7 15 32 54 79 96 109 107 86 56 32 16 7 2 0 -2 -3 -3 -4 -4 -4 -4 -4 -4 -4 -4 -4 -4 -4 -4 -4 -4 -4 -2 4 33 94 
94 33 4 -2 -4 -4 -4 -4 -4 -4 -4 -4 -4 -4 -4 -3 -3 -3 -2 -2 -2 -2 -2 -2 -1 0 2 3 4 4 4 5 7 14 23 30 32 33 33 33 35 41 56 77 89 93 94 94 96 100 109 109 100 96 94 94 94 93 89 77 58 49 68 117 110 45 10 0 -1 0 5 13 25 38 59 86 107 109 96 79 54 32 15 5 0 -1 -2 -3 -3 -4 -4 -4 -4 -4 -4 -4 -4 -4 -4 -4 -4 -4 -4 -4 -4 -4 -2 4 33 94 
94 33 4 -2 -4 -4 -4 -4 -4 -4 -4 -4 -4 -4 -4 -4 -4 -4 -4 -4 -4 -4 -4 -4 -3 -3 -3 -2 -2 -2 -2 -2 -1 0 2 3 4 4 4 4 5 7 14 23 30 32 33 33 35 41 56 77 89 93 94 94 94 96 100 109 109 105 116 145 134 73 28 11 9 16 32 54 79 96 109 107 86 59 38 25 13 5 0 -2 -3 -3 -4 -4 -4 -4 -4 -4 -4 -4 -4 -4 -4 -4 -4 -4 -4 -4 -4 -4 -4 -4 -2 4 33 94 
94 33 4 -2 -4 -4 -4 -4 -4 -4 -4 -4 -4 -4 -4 -4 -4 -4 -4 -4 -4 -4 -4 -4 -4 -4 -4 -4 -4 -4 -4 -4 -3 -3 -3 -2 -2 -2 -2 -2 -2 -1 0 2 3 4 4 4 5 7 14 23 30 32 33 33 33 35 41 56 77 90 99 113 127 112 72 47 44 60 87 107 109 96 79 54 32 15 7 2 0 -2 -3 -3 -4 -4 -4 -4 -4 -4 -4 -4 -4 -4 -4 -4 -4 -4 -4 -4 -4 -4 -4 -4 -4 -4 -2 4 33 94 
94 33 4 -2 -4 -4 -4 -4 -4 -4 -4 -4 -4 -4 -4 -4 -4 -4 -4 -4 -4 -4 -4 -4 -4 -4 -4 -4 -4 -4 -4 -4 -4 -4 -4 -4 -4 -4 -4 -4 -4 -3 -3 -3 -2 -2 -2 -2 -2 -1 0 2 3 4 4 4 4 5 7 14 23 30 35 45 72 112 127 116 107 111 107 87 59 38 25 13 5 0 -1 -2 -3 -3 -4 -4 -4 -4 -4 -4 -4 -4 -4 -4 -4 -4 -4 -4 -4 -4 -4 -4 -4 -4 -4 -4 -4 -4 -2 4 33 94 
94 33 4 -2 -4 -4 -4 -4 -4 -4 -4 -4 -4 -4 -4 -4 -4 -4 -4 -4 -4 -4 -4 -4 -4 -4 -4 -4 -4 -4 -4 -4 -4 -4 -4 -4 -4 -4 -4 -4 -4 -4 -4 -4 -4 -4 -4 -4 -4 -3 -3 -3 -2 -2 -2 -2 -2 -2 -1 0 2 4 5 10 28 73 134 144 110 82 55 32 15 7 2 0 -2 -3 -3 -4 -4 -4 -4 -4 -4 -4 -4 -4 -4 -4 -4 -4 -4 -4 -4 -4 -4 -4 -4 -4 -4 -4 -4 -4 -4 -4 -2 4 33 94 
94 33 4 -2 -3 -4 -4 -4 -4 -4 -4 -4 -4 -4 -4 -4 -4 -4 -4 -4 -4 -4 -4 -4 -4 -4 -4 -4 -4 -4 -4 -4 -4 -4 -4 -4 -4 -4 -4 -4 -4 -4 -4 -4 -4 -4 -4 -4 -4 -4 -3 -3 -3 -3 -3 -3 -3 -3 -3 -3 -2 -2 -1 0 11 45 110 116 63 32 14 5 0 -1 -2 -3 -3 -3 -4 -4 -4 -4 -4 -4 -4 -4 -4 -4 -4 -4 -4 -4 -4 -4 -4 -4 -4 -4 -4 -4 -4 -4 -4 -4 -4 -3 -2 4 33 94 
95 34 6 -1 -2 -2 -2 -2 -2 -2 -2 -2 -2 -2 -2 -2 -2 -2 -2 -2 -2 -2 -2 -2 -2 -2 -2 -2 -2 -2 -2 -2 -2 -2 -2 -2 -2 -2 -2 -2 -2 -2 -2 -2 -2 -2 -2 -2 -2 -2 -2 -2 -2 -2 -2 -2 -2 -2 -2 -2 -2 -2 -2 0 7 37 99 101 42 12 2 0 -1 -2 -2 -2 -2 -2 -2 -2 -2 -2 -2 -2 -2 -2 -2 -2 -2 -2 -2 -2 -2 -2 -2 -2 -2 -2 -2 -2 -2 -2 -2 -2 -2 -2 -1 6 34 95 
100 41 13 6 4 4 4 4 4 4 4 4 4 4 4 4 4 4 4 4 4 4 4 4 4 4 4 4 4 4 4 4 4 4 4 4 4 4 4 4 4 4 4 4 4 4 4 4 4 4 4 4 4 4 4 4 4 4 4 4 4 4 4 6 13 41 101 101 42 14 6 5 4 4 4 4 4 4 4 4 4 4 4 4 4 4 4 4 4 4 4 4 4 4 4 4 4 4 4 4 4 4 4 4 4 4 6 13 41 100 
118 66 41 34 33 33 33 33 33 33 33 33 33 33 33 33 33 33 33 33 33 33 33 33 33 33 33 33 33 33 33 33 33 33 33 33 33 33 33 33 33 33 33 33 33 33 33 33 33 33 33 33 33 33 33 33 33 33 33 33 33 33 33 34 41 66 118 118 66 41 35 33 33 33 33 33 33 33 33 33 33 33 33 33 33 33 33 33 33 33 33 33 33 33 33 33 33 33 33 33 33 33 33 33 33 33 34 41 66 118 
154 118 100 95 94 94 94 94 94 94 94 94 94 94 94 94 94 94 94 94 94 94 94 94 94 94 94 94 94 94 94 96 99 102 100 96 94 94 94 94 94 94 94 94 94 94 94 95 97 101 101 97 95 94 94 94 94 94 94 94 94 94 94 95 99 114 143 143 114 99 95 94 94 94 94 94 94 94 94 94 94 94 94 94 94 94 94 94 94 94 96 99 102 100 96 94 94 94 94 94 94 94 95 99 102 100 97 100 118 154 
