P2
110 110
255
149 126 107 99 96 95 94 94 94 94 94 94 94 94 94 94 94 94 94 94 94 94 94 94 94 94 95 95 96 100 108 122 134 133 120 107 99 96 95 94 94 94 94 94 95 95 98 105 119 134 133 118 105 98 95 95 94 94 94 94 94 94 94 95 96 98 100 100 98 96 95 95 94 94 94 94 94 94 94 94 94 94 94 94 94 94 95 95 98 104 117 131 135 123 109 100 96 95 95 95 97 102 114 129 135 125 114 113 128 149 
126 95 69 57 53 52 51 51 51 51 51 51 51 51 51 51 51 51 51 51 51 51 51 51 51 52 52 53 56 65 84 112 130 118 90 69 58 53 52 52 51 51 51 52 52 53 58 72 99 128 126 94 69 57 53 52 52 51 51 51 51 51 51 51 51 50 49 49 50 51 51 51 51 51 51 51 51 51 51 51 51 51 51 51 51 52 52 54 59 72 99 126 125 97 72 59 54 52 52 53 56 67 90 121 128 104 80 77 97 127 
108 69 38 25 20 19 19 18 18 18 18 18 18 18 18 18 18 18 18 18 18 18 18 18 19 19 19 22 28 44 73 106 112 84 51 32 23 20 19 19 18 18 18 19 19 21 28 45 80 117 109 68 38 25 20 19 19 18 18 18 18 18 18 18 18 18 17 17 18 18 18 18 18 18 18 18 18 18 18 18 18 18 18 18 19 19 19 22 30 51 86 114 99 62 36 24 20 19 19 20 25 39 69 107 109 74 47 46 71 108 
99 57 25 11 6 5 4 4 4 4 4 4 4 4 4 4 4 4 4 4 4 4 4 4 4 5 7 11 23 47 83 106 90 53 26 12 7 5 4 4 4 4 4 5 6 9 18 40 81 117 102 55 24 10 6 5 4 4 4 4 4 4 4 4 4 4 4 4 4 4 4 4 4 4 4 4 4 4 4 4 4 4 4 4 4 5 6 10 22 49 89 106 76 38 17 8 5 5 5 7 13 30 66 103 95 55 30 31 59 99 
96 53 20 6 1 0 0 0 0 0 0 0 0 0 0 0 0 0 0 0 0 0 0 0 0 1 4 13 33 66 98 98 64 31 12 4 1 0 0 0 0 0 0 0 2 7 21 50 95 125 100 51 19 6 1 0 0 0 0 0 0 0 0 0 0 0 0 0 0 0 0 0 0 0 0 0 0 0 0 0 0 0 0 0 0 0 2 8 25 59 97 96 57 24 8 2 0 0 1 3 11 33 72 103 83 42 21 25 54 96 
95 52 19 5 0 0 -1 -1 -1 -1 -1 -1 -1 -1 -1 -1 -1 -1 -1 -1 -1 -1 -1 0 0 2 8 23 52 89 102 77 40 16 5 0 0 -1 -1 -1 -1 -1 0 0 3 11 32 69 114 133 101 51 18 5 0 0 -1 -1 -1 -1 -1 -1 -1 -1 -1 -1 -1 -1 -1 -1 -1 -1 -1 -1 -1 -1 -1 -1 -1 -1 -1 -1 -1 -1 0 0 3 12 35 74 102 83 42 15 4 0 0 0 0 3 14 40 82 102 71 33 16 22 53 95 
94 51 19 4 0 -1 -1 -1 -1 -1 -1 -1 -1 -1 -1 -1 -1 -1 -1 -1 -1 -1 -1 0 0 5 16 41 77 102 88 52 23 7 1 0 -1 -1 -1 -1 -1 -1 0 1 6 20 49 91 126 134 103 54 20 5 0 0 -1 -1 -1 -1 -1 -1 -1 -1 -1 -1 -1 -1 -1 -1 -1 -1 -1 -1 -1 -1 -1 -1 -1 -1 -1 -1 -1 -1 0 0 5 19 49 89 100 66 29 9 1 0 -1 -1 0 4 18 49 91 98 59 25 13 21 52 95 
94 51 18 4 0 -1 -1 -1 -1 -1 -1 -1 -1 -1 -1 -1 -1 -1 -1 -1 -1 -1 -1 0 3 11 31 64 97 97 64 31 11 3 0 -1 -1 -1 -1 -1 -1 -1 0 3 12 34 70 108 124 127 106 61 24 7 0 0 -1 -1 -1 -1 -1 -1 -1 -1 -1 -1 -1 -1 -1 -1 -1 -1 -1 -1 -1 -1 -1 -1 -1 -1 -1 -1 -1 -1 0 1 9 29 66 100 89 49 19 5 0 0 -1 0 0 6 24 59 98 91 49 20 11 20 52 94 
94 51 18 4 0 -1 -1 -1 -1 -1 -1 -1 -1 -1 -1 -1 -1 -1 -1 -1 -1 -1 0 1 7 23 52 88 102 77 40 16 5 0 0 -1 -1 -1 -1 -1 -1 0 1 8 23 53 92 110 106 111 108 70 30 9 1 0 -1 -1 -1 -1 -1 -1 -1 -1 -1 -1 -1 -1 -1 -1 -1 -1 -1 -1 -1 -1 -1 -1 -1 -1 -1 -1 -1 -1 0 4 15 42 83 102 73 34 12 2 0 -1 -1 0 1 9 31 70 102 82 40 15 9 20 52 94 
94 52 19 4 0 -1 -1 -1 -1 -1 -1 -1 -1 -1 -1 -1 -1 -1 -1 -1 -1 0 0 5 16 40 77 102 88 52 23 7 1 0 -1 -1 -1 -1 -1 -1 -1 0 4 16 40 77 104 96 81 91 107 80 38 12 2 0 -1 -1 -1 -1 -1 -1 -1 -1 -1 -1 -1 -1 -1 -1 -1 -1 -1 -1 -1 -1 -1 -1 -1 -1 -1 -1 -1 0 1 7 23 57 95 95 57 23 7 1 0 -1 -1 0 3 13 40 82 102 70 31 11 8 19 52 94 
95 52 19 4 0 -1 -1 -1 -1 -1 -1 -1 -1 -1 -1 -1 -1 -1 -1 -1 -1 0 3 11 31 64 97 97 64 31 11 3 0 -1 -1 -1 -1 -1 -1 -1 0 2 10 29 63 97 99 72 57 74 103 88 44 15 3 0 -1 -1 -1 -1 -1 -1 -1 -1 -1 -1 -1 -1 -1 -1 -1 -1 -1 -1 -1 -1 -1 -1 -1 -1 -1 -1 -1 0 2 12 34 73 102 83 42 15 3 0 -1 -1 -1 0 4 18 49 91 98 59 24 8 7 19 51 94 
96 53 20 5 0 -1 -1 -1 -1 -1 -1 -1 -1 -1 -1 -1 -1 -1 -1 -1 0 1 7 23 52 88 102 77 40 16 5 0 0 -1 -1 -1 -1 -1 -1 0 0 5 19 48 86 102 79 48 39 62 98 92 49 17 4 0 -1 -1 -1 -1 -1 -1 -1 -1 -1 -1 -1 -1 -1 -1 -1 -1 -1 -1 -1 -1 -1 -1 -1 -1 -1 -1 -1 0 5 19 49 89 100 66 29 9 1 0 -1 -1 0 0 6 24 59 98 91 49 18 6 6 19 51 95 
99 58 23 6 1 0 -1 -1 -1 -1 -1 -1 -1 -1 -1 -1 -1 -1 -1 0 0 5 16 40 77 102 88 52 23 7 1 0 -1 -1 -1 -1 -1 -1 -1 0 2 11 32 69 100 91 55 30 29 55 95 94 52 19 5 0 -1 -1 -1 -1 -1 -1 -1 -1 -1 -1 -1 -1 -1 -1 -1 -1 -1 -1 -1 -1 -1 -1 -1 -1 -1 -1 0 1 9 29 66 100 89 49 19 5 0 -1 -1 -1 0 1 9 31 70 102 82 40 14 4 5 18 51 95 
107 68 30 11 2 0 -1 -1 -1 -1 -1 -1 -1 -1 -1 -1 -1 -1 -1 0 3 11 31 64 97 97 64 31 11 3 0 -1 -1 -1 -1 -1 -1 -1 0 0 6 20 50 89 101 71 36 18 22 50 92 97 56 21 5 0 -1 -1 -1 -1 -1 -1 -1 -1 -1 -1 -1 -1 -1 -1 -1 -1 -1 -1 -1 -1 -1 -1 -1 -1 -1 -1 0 3 15 42 83 102 73 34 12 2 0 -1 -1 -1 0 3 13 40 82 102 70 31 10 3 5 18 50 96 
119 88 47 21 7 1 0 -1 -1 -1 -1 -1 -1 -1 -1 -1 -1 -1 0 1 7 23 52 88 102 77 40 16 5 0 0 -1 -1 -1 -1 -1 -1 -1 0 3 12 34 71 101 89 50 22 11 18 45 88 100 62 25 7 0 0 -1 -1 -1 -1 -1 -1 -1 -1 -1 -1 -1 -1 -1 -1 -1 -1 -1 -1 -1 -1 -1 -1 -1 -1 0 1 7 23 57 95 95 57 23 7 1 0 -1 -1 -1 0 4 18 49 91 98 59 24 7 2 5 17 49 98 
132 114 75 40 18 6 1 0 -1 -1 -1 -1 -1 -1 -1 -1 -1 0 0 5 16 40 77 102 88 52 23 7 1 0 -1 -1 -1 -1 -1 -1 -1 0 1 8 23 54 91 100 69 33 12 7 14 38 81 102 71 31 9 1 0 -1 -1 -1 -1 -1 -1 -1 -1 -1 -1 -1 -1 -1 -1 -1 -1 -1 -1 -1 -1 -1 -1 -1 -1 0 2 12 34 73 102 83 42 15 3 0 -1 -1 -1 0 0 6 24 59 98 91 49 18 5 1 4 17 49 100 
134 129 104 69 36 15 4 0 0 -1 -1 -1 -1 -1 -1 -1 -1 0 3 11 31 64 97 97 64 31 11 3 0 -1 -1 -1 -1 -1 -1 -1 -1 0 4 16 40 77 102 86 48 19 6 4 10 31 71 102 80 38 12 2 0 -1 -1 -1 -1 -1 -1 -1 -1 -1 -1 -1 -1 -1 -1 -1 -1 -1 -1 -1 -1 -1 -1 -1 -1 0 5 19 49 89 100 66 29 9 1 0 -1 -1 -1 0 1 9 31 70 102 82 40 13 3 1 4 17 49 100 
125 120 114 97 62 30 11 3 0 -1 -1 -1 -1 -1 -1 -1 0 1 7 23 52 88 102 77 40 16 5 0 0 -1 -1 -1 -1 -1 -1 -1 0 2 10 29 63 97 97 63 29 10 3 2 7 25 62 100 88 44 15 3 0 -1 -1 -1 -1 -1 -1 -1 -1 -1 -1 -1 -1 -1 -1 -1 -1 -1 -1 -1 -1 -1 -1 -1 0 1 9 29 66 100 89 49 19 5 0 -1 -1 -1 -1 0 3 13 40 82 102 70 31 10 2 0 4 18 50 98 
112 98 99 106 88 53 24 9 2 0 -1 -1 -1 -1 -1 0 0 5 16 40 77 102 88 52 23 7 1 0 -1 -1 -1 -1 -1 -1 -1 0 0 5 19 48 86 102 77 40 16 4 0 1 5 21 56 97 92 49 17 4 0 -1 -1 -1 -1 -1 -1 -1 -1 -1 -1 -1 -1 -1 -1 -1 -1 -1 -1 -1 -1 -1 -1 -1 0 3 15 42 83 102 73 34 12 2 0 -1 -1 -1 -1 0 4 18 49 91 98 59 24 7 1 0 4 18 51 96 
103 78 73 94 103 80 46 21 8 2 0 -1 -1 -1 -1 0 3 11 31 64 97 97 64 31 11 3 0 -1 -1 -1 -1 -1 -1 -1 -1 0 2 11 32 69 100 91 54 23 8 1 0 0 5 19 52 94 94 52 19 5 0 -1 -1 -1 -1 -1 -1 -1 -1 -1 -1 -1 -1 -1 -1 -1 -1 -1 -1 -1 -1 -1 -1 0 1 7 23 57 95 95 57 23 7 1 0 -1 -1 -1 0 0 6 24 59 98 91 49 18 4 0 0 4 18 51 95 
99 65 51 69 96 100 75 43 20 7 2 0 -1 -1 0 1 7 23 52 88 102 77 40 16 5 0 0 -1 -1 -1 -1 -1 -1 -1 0 0 6 20 50 89 101 71 34 12 3 0 0 0 4 17 49 92 97 56 21 5 0 -1 -1 -1 -1 -1 -1 -1 -1 -1 -1 -1 -1 -1 -1 -1 -1 -1 -1 -1 -1 -1 -1 0 2 12 34 73 102 83 42 15 3 0 -1 -1 -1 -1 0 1 9 31 70 102 82 40 13 3 0 0 4 18 51 95 
96 58 36 43 71 98 99 73 42 20 7 2 0 0 0 5 16 40 77 102 88 52 23 7 1 0 -1 -1 -1 -1 -1 -1 -1 -1 0 3 12 34 71 101 89 50 20 6 0 0 -1 0 3 15 44 88 100 62 25 7 0 0 -1 -1 -1 -1 -1 -1 -1 -1 -1 -1 -1 -1 -1 -1 -1 -1 -1 -1 -1 -1 -1 0 5 19 49 89 100 66 29 9 1 0 -1 -1 -1 -1 0 3 13 40 82 102 70 31 10 1 0 0 4 18 51 95 
95 54 26 24 42 72 98 99 73 42 20 8 2 1 3 11 31 64 97 97 64 31 11 3 0 -1 -1 -1 -1 -1 -1 -1 -1 0 1 8 23 54 91 100 69 32 11 2 0 -1 -1 0 2 12 38 80 102 71 31 9 1 0 -1 -1 -1 -1 -1 -1 -1 -1 -1 -1 -1 -1 -1 -1 -1 -1 -1 -1 -1 -1 0 1 9 29 66 100 89 49 19 5 0 -1 -1 -1 -1 -1 0 4 18 49 91 98 59 24 6 0 0 0 4 18 51 94 
95 53 22 13 21 42 73 99 99 73 42 20 8 5 9 23 52 88 102 77 40 16 5 0 0 -1 -1 -1 -1 -1 -1 -1 -1 0 4 16 40 77 102 86 48 19 5 0 0 -1 -1 0 1 9 31 71 102 81 38 13 2 0 -1 -1 -1 -1 -1 -1 -1 -1 -1 -1 -1 -1 -1 -1 -1 -1 -1 -1 -1 -1 0 3 15 42 83 102 73 34 12 2 0 -1 -1 -1 -1 0 0 6 24 59 98 91 49 18 4 0 0 0 4 18 51 94 
94 52 20 8 9 20 42 73 99 99 73 42 22 14 20 42 77 102 88 52 23 7 1 0 -1 -1 -1 -1 -1 -1 -1 -1 0 2 10 29 63 97 97 63 29 10 2 0 -1 -1 -1 0 0 7 25 62 99 88 45 16 3 0 -1 -1 -1 -1 -1 -1 -1 -1 -1 -1 -1 -1 -1 -1 -1 -1 -1 -1 -1 0 1 7 23 57 95 95 57 23 7 1 0 -1 -1 -1 -1 0 1 9 31 70 102 82 40 13 3 0 0 0 4 18 51 94 
94 52 19 6 3 8 20 42 73 99 99 74 47 33 41 68 98 97 64 31 11 3 0 -1 -1 -1 -1 -1 -1 -1 -1 0 0 5 19 48 86 102 77 40 16 4 0 -1 -1 -1 -1 -1 0 5 21 55 96 93 50 18 4 0 -1 -1 -1 -1 -1 -1 -1 -1 -1 -1 -1 -1 -1 -1 -1 -1 -1 -1 -1 0 2 12 34 73 102 83 42 15 3 0 -1 -1 -1 -1 -1 0 3 13 40 82 102 70 31 9 1 0 0 0 4 18 51 94 
94 51 19 5 1 2 7 20 42 73 99 101 82 66 73 96 103 77 40 16 5 0 0 -1 -1 -1 -1 -1 -1 -1 -1 0 2 11 32 69 100 91 54 23 8 1 0 -1 -1 -1 -1 -1 0 4 18 50 93 96 55 21 5 0 -1 -1 -1 -1 -1 -1 -1 -1 -1 -1 -1 -1 -1 -1 -1 -1 -1 -1 -1 0 5 19 49 89 100 66 29 9 1 0 -1 -1 -1 -1 -1 0 4 18 49 91 98 59 24 6 0 0 -1 0 4 18 51 94 
94 51 18 4 0 0 2 7 20 42 73 101 111 107 110 112 89 52 23 7 1 0 -1 -1 -1 -1 -1 -1 -1 -1 0 0 6 20 50 89 101 71 34 12 3 0 -1 -1 -1 -1 -1 -1 0 3 16 45 88 99 62 25 7 0 0 -1 -1 -1 -1 -1 -1 -1 -1 -1 -1 -1 -1 -1 -1 -1 -1 -1 0 1 9 29 66 100 89 49 19 5 0 -1 -1 -1 -1 -1 0 0 6 24 59 98 91 49 18 4 0 -1 -1 0 4 18 51 94 
94 51 18 4 0 0 0 2 7 20 42 76 111 132 132 106 65 31 11 3 0 -1 -1 -1 -1 -1 -1 -1 -1 -1 0 3 12 34 71 101 89 50 20 6 0 0 -1 -1 -1 -1 -1 -1 0 2 13 38 81 102 71 31 9 1 0 -1 -1 -1 -1 -1 -1 -1 -1 -1 -1 -1 -1 -1 -1 -1 -1 -1 0 3 15 42 83 102 73 34 12 2 0 -1 -1 -1 -1 -1 0 1 9 31 70 102 82 40 13 3 0 -1 -1 0 4 18 51 94 
94 51 18 4 0 -1 -1 0 2 8 21 47 88 126 127 87 43 17 5 0 0 -1 -1 -1 -1 -1 -1 -1 -1 0 1 8 23 54 91 100 69 32 11 2 0 -1 -1 -1 -1 -1 -1 -1 0 1 9 31 71 102 80 38 12 2 0 -1 -1 -1 -1 -1 -1 -1 -1 -1 -1 -1 -1 -1 -1 -1 -1 0 1 7 23 57 95 95 57 23 7 1 0 -1 -1 -1 -1 -1 0 3 13 40 82 102 70 31 9 1 0 -1 -1 0 4 18 51 94 
94 51 18 4 0 -1 -1 -1 0 2 10 29 65 109 113 71 31 10 2 0 -1 -1 -1 -1 -1 -1 -1 -1 -1 0 4 16 40 77 102 86 48 19 5 0 0 -1 -1 -1 -1 -1 -1 -1 0 0 7 25 62 100 88 44 15 3 0 -1 -1 -1 -1 -1 -1 -1 -1 -1 -1 -1 -1 -1 -1 -1 -1 0 2 12 34 73 102 83 42 15 3 0 -1 -1 -1 -1 -1 -1 0 4 18 49 91 98 59 24 6 0 0 -1 -1 0 4 18 51 94 
94 51 18 4 0 -1 -1 -1 0 0 5 19 50 94 106 67 28 9 1 0 -1 -1 -1 -1 -1 -1 -1 -1 0 2 10 29 63 97 97 63 29 10 2 0 -1 -1 -1 -1 -1 -1 -1 -1 -1 0 5 21 56 97 92 49 17 4 0 -1 -1 -1 -1 -1 -1 -1 -1 -1 -1 -1 -1 -1 -1 -1 -1 0 5 19 49 89 100 66 29 9 1 0 -1 -1 -1 -1 -1 0 0 6 24 59 98 91 49 18 4 0 -1 -1 -1 0 4 18 51 94 
94 51 18 4 0 -1 -1 -1 -1 0 3 14 40 82 104 73 32 10 2 0 -1 -1 -1 -1 -1 -1 -1 0 0 5 19 48 86 102 77 40 16 4 0 -1 -1 -1 -1 -1 -1 -1 -1 -1 -1 0 5 19 52 94 94 52 19 5 0 -1 -1 -1 -1 -1 -1 -1 -1 -1 -1 -1 -1 -1 -1 -1 0 1 9 29 66 100 89 49 19 5 0 -1 -1 -1 -1 -1 -1 0 1 9 31 70 102 82 40 13 3 0 -1 -1 -1 0 4 19 52 94 
94 51 18 4 0 -1 -1 -1 -1 0 1 10 31 71 103 81 39 13 2 0 -1 -1 -1 -1 -1 -1 -1 0 2 11 32 69 100 91 54 23 8 1 0 -1 -1 -1 -1 -1 -1 -1 -1 -1 -1 0 4 17 49 92 97 56 21 5 0 -1 -1 -1 -1 -1 -1 -1 -1 -1 -1 -1 -1 -1 -1 -1 0 3 15 42 83 102 73 34 12 2 0 -1 -1 -1 -1 -1 -1 0 3 13 40 82 102 70 31 9 1 0 -1 -1 -1 0 4 19 52 95 
95 51 18 4 0 -1 -1 -1 -1 0 0 7 24 61 99 89 46 16 4 0 -1 -1 -1 -1 -1 -1 0 0 6 20 50 89 101 71 34 12 3 0 -1 -1 -1 -1 -1 -1 -1 -1 -1 -1 -1 0 3 15 44 88 100 62 25 7 0 0 -1 -1 -1 -1 -1 -1 -1 -1 -1 -1 -1 -1 -1 0 1 7 23 57 95 95 57 23 7 1 0 -1 -1 -1 -1 -1 -1 0 4 18 49 91 98 59 24 6 0 0 -1 -1 -1 0 5 19 53 96 
95 51 18 4 0 -1 -1 -1 -1 -1 0 5 20 53 95 95 53 20 5 0 -1 -1 -1 -1 -1 -1 0 3 12 34 71 101 89 50 20 6 0 0 -1 -1 -1 -1 -1 -1 -1 -1 -1 -1 -1 0 2 12 38 80 102 71 31 9 1 0 -1 -1 -1 -1 -1 -1 -1 -1 -1 -1 -1 -1 -1 0 2 12 34 73 102 83 42 15 3 0 -1 -1 -1 -1 -1 -1 0 0 6 24 59 98 91 49 18 4 0 -1 -1 -1 -1 0 6 21 56 98 
96 50 18 4 0 -1 -1 -1 -1 -1 0 4 16 46 89 99 61 24 7 0 0 -1 -1 -1 -1 0 1 8 23 54 91 100 69 32 11 2 0 -1 -1 -1 -1 -1 -1 -1 -1 -1 -1 -1 -1 0 1 9 31 71 102 80 38 12 2 0 -1 -1 -1 -1 -1 -1 -1 -1 -1 -1 -1 -1 -1 0 5 19 49 89 100 66 29 9 1 0 -1 -1 -1 -1 -1 -1 0 1 9 31 70 102 82 40 13 3 0 -1 -1 -1 0 1 8 26 63 104 
97 49 17 4 0 -1 -1 -1 -1 -1 0 2 13 39 81 102 71 31 9 1 0 -1 -1 -1 -1 0 4 16 40 77 102 86 48 19 5 0 0 -1 -1 -1 -1 -1 -1 -1 -1 -1 -1 -1 -1 0 0 7 25 62 100 88 44 15 3 0 -1 -1 -1 -1 -1 -1 -1 -1 -1 -1 -1 -1 0 1 9 29 66 100 89 49 19 5 0 -1 -1 -1 -1 -1 -1 -1 0 3 13 40 82 102 70 31 9 1 0 -1 -1 -1 0 3 13 35 76 113 
98 49 17 4 0 -1 -1 -1 -1 -1 0 1 9 31 71 102 81 39 13 2 0 -1 -1 -1 0 2 10 29 63 97 97 63 29 10 2 0 -1 -1 -1 -1 -1 -1 -1 -1 -1 -1 -1 -1 -1 -1 0 5 21 56 97 92 49 17 4 0 -1 -1 -1 -1 -1 -1 -1 -1 -1 -1 -1 -1 0 3 15 42 83 102 73 34 12 2 0 -1 -1 -1 -1 -1 -1 -1 0 4 18 49 91 98 59 24 6 0 0 -1 -1 0 1 7 22 52 97 125 
99 48 17 4 0 -1 -1 -1 -1 -1 0 0 7 24 61 99 89 46 16 4 0 -1 -1 0 0 5 19 48 86 102 77 40 16 4 0 -1 -1 -1 -1 -1 -1 -1 -1 -1 -1 -1 -1 -1 -1 -1 0 5 19 52 94 94 52 19 5 0 -1 -1 -1 -1 -1 -1 -1 -1 -1 -1 -1 0 1 7 23 57 95 95 57 23 7 1 0 -1 -1 -1 -1 -1 -1 0 0 6 24 59 98 91 49 18 4 0 -1 -1 0 0 5 16 39 77 118 133 
99 49 17 4 0 -1 -1 -1 -1 -1 -1 0 5 20 53 95 95 53 20 5 0 -1 -1 0 2 11 32 69 100 91 54 23 8 1 0 -1 -1 -1 -1 -1 -1 -1 -1 -1 -1 -1 -1 -1 -1 -1 0 4 17 49 92 97 56 21 5 0 -1 -1 -1 -1 -1 -1 -1 -1 -1 -1 -1 0 2 12 34 73 102 83 42 15 3 0 -1 -1 -1 -1 -1 -1 -1 0 1 9 31 70 102 82 40 13 3 0 -1 -1 0 3 11 30 63 102 129 133 
98 50 18 4 0 -1 -1 -1 -1 -1 -1 0 4 16 46 89 99 61 24 7 0 0 0 1 6 20 50 89 101 71 34 12 3 0 -1 -1 -1 -1 -1 -1 -1 -1 -1 -1 -1 -1 -1 -1 -1 -1 0 3 15 45 88 100 62 25 7 1 0 -1 -1 -1 -1 -1 -1 -1 -1 -1 0 0 5 19 49 89 100 66 29 9 1 0 -1 -1 -1 -1 -1 -1 -1 0 3 13 40 82 102 70 31 9 1 0 -1 0 1 7 22 51 89 114 122 124 
96 51 18 4 0 -1 -1 -1 -1 -1 -1 0 2 13 39 81 102 71 31 9 1 0 0 3 12 34 71 101 89 50 20 6 0 0 -1 -1 -1 -1 -1 -1 -1 -1 -1 -1 -1 -1 -1 -1 -1 -1 0 2 13 39 81 103 72 32 11 3 0 0 0 0 -1 -1 -1 -1 -1 -1 0 2 9 29 66 100 89 49 19 5 0 -1 -1 -1 -1 -1 -1 -1 -1 0 4 18 49 91 98 59 24 6 0 0 0 0 5 16 40 77 105 106 103 114 
95 51 18 4 0 -1 -1 -1 -1 -1 -1 0 1 9 31 71 102 81 39 13 3 0 1 8 23 54 91 100 69 32 11 2 0 -1 -1 -1 -1 -1 -1 -1 -1 -1 -1 -1 -1 -1 -1 -1 -1 -1 0 2 10 32 73 105 85 44 19 8 4 3 1 0 0 0 0 0 0 0 0 4 15 42 83 102 73 34 12 2 0 -1 -1 -1 -1 -1 -1 -1 0 0 6 24 59 98 91 49 18 4 0 0 0 3 11 31 64 98 102 84 84 105 
95 51 18 4 0 -1 -1 -1 -1 -1 -1 0 0 7 24 61 99 89 46 16 4 1 5 16 40 77 102 86 48 19 5 0 0 -1 -1 -1 -1 -1 -1 -1 -1 -1 -1 -1 -1 -1 -1 -1 -1 -1 0 2 10 30 69 108 101 62 35 22 17 13 9 7 5 5 4 3 2 2 3 8 24 58 96 96 57 23 7 1 0 -1 -1 -1 -1 -1 -1 -1 0 1 9 31 70 102 82 40 13 3 0 0 1 7 23 52 88 103 83 61 70 100 
95 51 18 4 0 -1 -1 -1 -1 -1 -1 -1 0 5 20 53 95 95 53 20 6 4 11 29 63 97 97 63 29 10 2 0 -1 -1 -1 -1 -1 -1 -1 -1 -1 -1 -1 -1 -1 -1 -1 -1 0 0 1 6 16 38 77 118 121 92 67 54 46 38 31 25 21 19 17 15 13 11 11 18 39 76 103 83 42 15 4 0 -1 -1 -1 -1 -1 -1 -1 -1 0 3 13 40 82 102 70 31 10 2 0 0 5 16 40 77 102 90 58 43 61 97 
94 51 18 4 0 -1 -1 -1 -1 -1 -1 -1 0 4 16 46 89 99 61 25 9 8 20 48 86 102 77 40 16 4 0 -1 -1 -1 -1 -1 -1 -1 -1 -1 -1 -1 -1 -1 -1 -1 -1 0 0 3 8 17 34 60 97 130 136 120 104 95 89 81 71 62 56 52 49 45 39 33 31 39 63 97 103 67 30 9 1 0 -1 -1 -1 -1 -1 -1 -1 -1 0 4 18 49 91 98 59 24 7 1 0 3 11 31 64 97 97 66 37 32 56 96 
94 51 18 4 0 -1 -1 -1 -1 -1 -1 -1 0 2 13 39 81 102 71 32 14 15 33 69 100 91 54 23 8 1 0 -1 -1 -1 -1 -1 -1 -1 -1 -1 -1 -1 -1 -1 -1 0 0 1 5 11 23 41 66 93 113 120 113 104 99 98 100 102 102 100 97 94 92 88 81 73 69 77 99 116 96 52 20 6 0 0 -1 -1 -1 -1 -1 -1 -1 0 0 6 24 59 98 91 49 18 5 1 2 8 23 52 88 102 77 42 23 25 54 95 
94 51 18 4 0 -1 -1 -1 -1 -1 -1 -1 0 1 9 31 71 102 82 41 21 25 51 89 101 71 34 12 3 0 -1 -1 -1 -1 -1 -1 -1 -1 -1 -1 -1 -1 -1 -1 0 0 3 7 16 31 52 77 98 104 94 78 63 56 54 56 62 71 80 88 92 94 97 100 103 104 107 116 131 128 89 43 16 4 0 -1 -1 -1 -1 -1 -1 -1 -1 0 1 10 31 70 102 82 40 14 3 1 5 16 40 77 102 88 52 24 14 22 52 95 
94 51 18 4 0 -1 -1 -1 -1 -1 -1 -1 0 0 7 24 61 99 90 51 31 40 72 101 89 50 20 6 0 0 -1 -1 -1 -1 -1 -1 -1 -1 -1 -1 -1 -1 -1 0 1 4 11 22 40 64 88 102 97 78 55 36 26 21 20 21 25 31 38 44 49 52 56 62 71 83 95 111 129 128 90 45 17 5 1 0 0 -1 -1 -1 -1 -1 0 0 3 14 40 82 102 71 31 10 3 4 11 31 64 97 97 64 31 13 9 20 52 94 
94 51 18 4 0 -1 -1 -1 -1 -1 -1 -1 -1 0 5 20 53 95 97 63 46 61 93 101 69 32 11 2 0 -1 -1 -1 -1 -1 -1 -1 -1 -1 -1 -1 -1 0 0 2 6 15 30 51 76 97 102 88 64 41 24 13 8 6 5 5 7 9 12 15 17 19 21 25 31 40 52 69 95 116 100 60 28 11 4 1 0 0 0 0 0 0 0 1 6 19 50 92 99 60 24 8 4 8 23 52 88 102 77 41 17 6 6 19 52 94 
94 51 18 4 0 -1 -1 -1 -1 -1 -1 -1 -1 0 4 16 46 89 104 79 68 86 104 86 48 19 5 0 0 -1 -1 -1 -1 -1 -1 -1 -1 -1 -1 -1 0 0 3 8 19 37 63 88 102 97 77 52 31 16 8 3 1 0 0 0 0 1 2 3 4 5 5 7 10 14 21 34 59 93 107 84 50 26 14 8 6 5 4 4 4 4 5 7 13 29 63 101 93 51 20 7 7 17 41 77 102 88 52 23 8 3 5 19 51 94 
94 51 18 4 0 -1 -1 -1 -1 -1 -1 -1 -1 0 2 13 38 81 110 101 96 106 98 63 29 10 2 0 -1 -1 -1 -1 -1 -1 -1 -1 -1 -1 0 0 1 5 12 24 44 71 95 102 89 65 41 23 11 5 1 0 0 -1 -1 -1 0 0 0 0 0 0 0 1 2 3 7 15 33 67 102 109 84 56 37 27 22 20 19 19 19 19 19 22 29 48 84 111 90 46 19 10 14 32 65 97 97 64 31 11 3 1 5 19 51 94 
94 51 18 4 0 -1 -1 -1 -1 -1 -1 -1 -1 0 1 9 30 70 112 122 119 109 77 40 16 4 0 -1 -1 -1 -1 -1 -1 -1 -1 -1 -1 0 0 3 7 16 31 53 79 99 99 79 53 31 16 7 3 0 0 -1 -1 -1 -1 -1 -1 -1 -1 -1 -1 -1 -1 0 0 0 1 6 18 44 86 121 121 99 78 64 56 53 52 52 52 52 52 55 63 83 112 124 92 50 25 18 27 54 89 102 77 40 16 5 1 0 4 18 51 94 
94 51 18 4 0 -1 -1 -1 -1 -1 -1 -1 -1 0 0 7 24 60 109 134 126 93 52 23 7 1 0 -1 -1 -1 -1 -1 -1 -1 -1 0 0 1 5 11 23 40 65 89 102 95 71 44 24 12 5 1 0 0 -1 -1 -1 -1 -1 -1 -1 -1 -1 -1 -1 -1 -1 -1 -1 -1 0 2 11 31 71 119 137 126 111 102 98 95 95 94 94 95 95 97 103 116 133 135 107 70 45 39 52 81 104 89 52 23 7 1 0 0 4 18 51 94 
94 51 18 4 0 -1 -1 -1 -1 -1 -1 -1 -1 -1 0 5 20 53 104 134 114 70 33 12 3 0 -1 -1 -1 -1 -1 -1 -1 -1 0 0 2 7 16 30 52 77 97 102 88 63 37 19 8 3 0 0 -1 -1 -1 -1 -1 -1 -1 -1 -1 -1 -1 -1 -1 -1 -1 -1 -1 -1 0 1 9 28 67 113 123 106 94 92 93 94 94 94 94 94 95 95 97 103 112 121 116 100 82 76 89 108 102 67 32 12 3 0 0 0 4 18 51 94 
94 51 18 4 0 -1 -1 -1 -1 -1 -1 -1 -1 -1 0 4 18 50 100 125 94 49 19 6 0 0 -1 -1 -1 -1 -1 -1 0 0 1 4 10 21 39 64 89 103 98 78 52 31 16 7 2 0 0 -1 -1 -1 -1 -1 -1 -1 -1 -1 -1 -1 -1 -1 -1 -1 -1 -1 -1 -1 0 2 10 32 73 109 99 69 52 49 50 51 51 51 51 51 51 52 52 55 63 76 93 105 110 115 125 123 90 48 19 6 0 0 0 0 4 18 51 94 
94 51 18 4 0 -1 -1 -1 -1 -1 -1 -1 -1 -1 0 4 18 50 98 113 75 34 11 2 0 -1 -1 -1 -1 0 0 0 2 4 8 16 29 49 76 100 108 95 70 45 26 13 6 2 0 0 0 -1 -1 -1 -1 -1 -1 -1 -1 -1 -1 -1 -1 -1 -1 -1 -1 -1 -1 -1 0 2 13 38 81 105 78 42 24 19 18 18 18 18 18 18 18 19 19 21 25 35 51 71 94 117 135 126 83 40 15 4 0 0 -1 0 4 18 51 94 
94 51 18 4 0 -1 -1 -1 -1 -1 -1 -1 -1 -1 0 4 19 52 97 103 61 25 7 1 0 -1 -1 0 0 0 2 5 9 16 26 41 63 91 115 120 101 74 49 31 19 11 6 4 2 1 0 0 0 0 0 -1 -1 -1 -1 -1 -1 -1 -1 -1 -1 -1 -1 -1 -1 -1 0 3 16 45 88 100 64 28 11 6 4 4 4 4 4 4 4 4 5 5 7 12 20 34 54 82 112 121 90 47 19 6 0 0 0 0 4 18 51 94 
94 51 18 4 0 -1 -1 -1 -1 -1 -1 -1 -1 -1 0 5 21 55 98 96 53 20 5 0 0 0 0 1 2 6 11 19 29 43 60 80 104 126 136 126 102 78 60 45 34 25 19 14 10 7 5 4 2 1 0 0 0 0 0 -1 -1 -1 -1 -1 -1 -1 -1 -1 -1 -1 0 4 18 50 93 96 55 22 6 1 0 0 0 0 0 0 0 0 0 0 1 3 6 12 24 45 77 106 102 67 32 12 3 0 0 0 4 18 51 94 
94 51 18 4 0 -1 -1 -1 -1 -1 -1 -1 -1 0 0 7 25 62 100 89 46 16 4 1 0 1 4 7 12 20 32 48 66 84 98 108 114 118 122 120 112 103 93 83 71 59 49 40 31 24 20 16 13 9 6 4 3 1 0 0 0 0 0 0 -1 -1 -1 -1 -1 -1 0 5 21 55 96 93 50 18 4 0 0 -1 -1 -1 -1 -1 -1 -1 -1 -1 0 0 1 3 9 21 45 80 104 89 52 23 7 1 0 0 4 18 51 94 
94 51 18 4 0 -1 -1 -1 -1 -1 -1 -1 -1 0 1 9 31 71 102 81 39 14 5 3 5 9 15 23 35 51 70 88 100 102 97 87 76 71 75 83 90 96 100 102 102 98 91 82 71 61 53 46 38 30 23 18 13 10 7 5 4 2 1 0 0 0 0 0 0 0 1 7 25 62 99 88 45 16 3 0 -1 -1 -1 -1 -1 -1 -1 -1 -1 -1 -1 -1 0 0 2 9 24 53 89 102 77 41 16 5 1 0 4 18 51 94 
94 51 18 4 0 -1 -1 -1 -1 -1 -1 -1 -1 0 2 13 39 81 103 72 33 14 9 12 19 29 42 57 73 90 101 101 90 74 57 44 34 30 32 38 46 53 61 71 82 91 98 102 102 99 95 89 81 70 59 49 40 31 24 20 16 13 9 6 4 3 1 1 0 0 3 10 31 71 102 81 38 13 2 0 -1 -1 -1 -1 -1 -1 -1 -1 -1 -1 -1 -1 -1 0 0 3 12 31 64 97 97 65 31 12 3 1 5 19 51 94 
94 51 18 4 0 -1 -1 -1 -1 -1 -1 -1 -1 0 4 16 46 89 101 66 32 20 22 33 48 66 83 95 102 100 88 70 51 35 23 16 11 9 10 13 16 20 24 31 40 49 59 70 81 89 95 99 102 102 98 91 82 71 61 53 46 38 30 23 18 13 10 7 5 5 7 16 41 82 103 71 31 9 1 0 -1 -1 -1 -1 -1 -1 -1 -1 -1 -1 -1 -1 -1 -1 0 0 5 16 40 77 102 89 53 24 9 3 6 19 52 94 
94 51 18 4 0 -1 -1 -1 -1 -1 -1 -1 -1 0 5 20 53 96 102 68 43 40 52 70 88 100 102 95 83 66 48 32 20 12 7 4 2 1 2 2 4 5 7 10 13 18 23 30 38 46 53 61 71 82 91 98 102 102 99 95 89 81 70 59 49 40 31 25 20 18 18 27 53 93 101 62 25 7 0 0 -1 -1 -1 -1 -1 -1 -1 -1 -1 -1 -1 -1 -1 -1 -1 0 1 7 22 51 88 102 79 44 20 8 7 19 52 94 
94 51 18 4 0 -1 -1 -1 -1 -1 -1 -1 0 1 7 25 62 105 110 83 70 76 90 101 101 90 74 57 42 29 19 11 6 2 1 0 0 0 0 0 0 0 0 1 3 4 6 9 13 16 20 24 31 40 49 59 70 81 89 95 99 102 102 98 91 82 71 61 53 48 45 50 72 105 99 55 21 5 0 -1 -1 -1 -1 -1 -1 -1 -1 -1 -1 -1 -1 -1 -1 -1 -1 -1 0 3 11 30 63 95 99 71 38 17 11 21 52 95 
94 51 18 4 0 -1 -1 -1 -1 -1 -1 -1 0 2 12 34 76 119 126 110 103 104 101 89 70 51 35 23 15 9 5 2 0 0 0 -1 -1 -1 -1 -1 -1 -1 0 0 0 0 0 1 2 4 5 7 10 13 18 23 30 38 46 53 61 71 82 91 98 102 102 99 95 90 86 88 103 121 100 52 19 4 0 -1 -1 -1 -1 -1 -1 -1 -1 -1 -1 -1 -1 -1 -1 -1 -1 -1 0 0 4 15 37 71 99 95 63 32 18 23 53 95 
94 51 18 4 0 -1 -1 -1 -1 -1 -1 0 0 6 20 49 95 131 134 119 104 88 69 50 33 20 12 7 4 1 0 0 0 -1 -1 -1 -1 -1 -1 -1 -1 -1 -1 -1 -1 -1 0 0 0 0 0 0 1 3 4 6 9 13 16 20 24 31 40 49 59 70 81 89 95 100 106 115 129 135 101 50 17 4 0 -1 -1 -1 -1 -1 -1 -1 -1 -1 -1 -1 -1 -1 -1 -1 -1 -1 -1 0 1 6 19 44 79 102 88 54 30 29 55 95 
95 51 18 4 0 -1 -1 -1 -1 -1 -1 0 3 12 33 70 110 123 108 86 66 48 32 20 11 6 2 1 0 0 -1 -1 -1 -1 -1 -1 -1 -1 -1 -1 -1 -1 -1 -1 -1 -1 -1 -1 -1 -1 -1 0 0 0 0 0 1 2 4 5 7 10 13 18 23 30 38 46 53 62 75 94 119 132 100 49 17 4 0 -1 -1 -1 -1 -1 -1 -1 -1 -1 -1 -1 -1 -1 -1 -1 -1 -1 -1 -1 0 2 8 24 53 88 102 81 51 40 60 97 
95 51 18 4 0 -1 -1 -1 -1 -1 0 1 8 23 53 92 110 92 64 43 29 19 11 6 2 0 0 0 -1 -1 -1 -1 -1 -1 -1 -1 -1 -1 -1 -1 -1 -1 -1 -1 -1 -1 -1 -1 -1 -1 -1 -1 -1 -1 -1 0 0 0 0 0 0 1 3 4 6 9 13 16 20 26 36 56 88 117 98 50 18 4 0 -1 -1 -1 -1 -1 -1 -1 -1 -1 -1 -1 -1 -1 -1 -1 -1 -1 -1 -1 -1 0 3 11 30 63 95 101 77 58 69 100 
95 51 18 4 0 -1 -1 -1 -1 0 0 5 16 41 77 103 92 58 32 17 10 5 2 0 0 0 -1 -1 -1 -1 -1 -1 -1 -1 -1 -1 -1 -1 -1 -1 -1 -1 -1 -1 -1 -1 -1 -1 -1 -1 -1 -1 -1 -1 -1 -1 -1 -1 -1 -1 0 0 0 0 0 1 2 4 5 8 16 33 66 104 96 51 18 4 0 -1 -1 -1 -1 -1 -1 -1 -1 -1 -1 -1 -1 -1 -1 -1 -1 -1 -1 -1 -1 0 0 4 15 37 71 100 100 83 83 105 
96 51 18 4 0 -1 -1 -1 -1 0 3 12 31 65 97 98 66 33 14 6 2 0 0 0 -1 -1 -1 -1 -1 -1 -1 -1 -1 -1 -1 -1 -1 -1 -1 -1 -1 -1 -1 -1 -1 -1 -1 -1 -1 -1 -1 -1 -1 -1 -1 -1 -1 -1 -1 -1 -1 -1 -1 -1 0 0 0 0 0 2 8 23 56 98 96 53 20 5 0 -1 -1 -1 -1 -1 -1 -1 -1 -1 -1 -1 -1 -1 -1 -1 -1 -1 -1 -1 -1 -1 0 1 6 19 44 79 105 105 103 113 
98 50 18 4 0 -1 -1 -1 0 2 9 24 53 89 103 78 42 18 6 1 0 0 0 -1 -1 -1 -1 -1 -1 -1 -1 -1 -1 -1 -1 -1 -1 -1 -1 -1 -1 -1 -1 -1 -1 -1 -1 -1 -1 -1 -1 -1 -1 -1 -1 -1 -1 -1 -1 -1 -1 -1 -1 -1 -1 -1 -1 -1 0 1 6 20 53 96 99 58 23 7 1 0 -1 -1 -1 -1 -1 -1 -1 -1 -1 -1 -1 -1 -1 -1 -1 -1 -1 -1 -1 -1 -1 0 2 8 24 52 90 114 122 124 
99 49 17 4 0 -1 -1 0 2 7 20 44 80 105 93 57 27 11 4 1 0 0 0 0 0 0 0 0 0 0 0 -1 -1 -1 -1 -1 -1 -1 -1 -1 -1 -1 -1 -1 -1 -1 -1 -1 -1 -1 -1 -1 -1 -1 -1 -1 -1 -1 -1 -1 -1 -1 -1 -1 -1 -1 -1 -1 0 1 7 22 55 99 107 69 32 13 4 1 0 0 -1 -1 -1 -1 -1 -1 -1 -1 -1 -1 -1 -1 -1 -1 -1 -1 -1 -1 -1 -1 0 3 11 31 64 102 129 133 
99 48 17 4 0 0 0 2 7 18 40 74 107 111 82 48 26 14 8 6 5 4 4 4 4 4 4 3 2 1 0 0 0 0 0 0 0 0 0 0 0 0 -1 -1 -1 -1 -1 -1 -1 -1 -1 -1 -1 -1 -1 -1 -1 -1 -1 -1 -1 -1 -1 -1 -1 -1 0 0 1 5 14 32 65 108 123 91 52 27 13 6 2 0 0 -1 -1 -1 -1 -1 -1 -1 -1 -1 -1 -1 -1 -1 -1 -1 -1 -1 -1 -1 0 0 5 16 39 77 118 133 
98 49 17 4 0 0 2 7 18 40 72 108 128 116 87 62 45 33 26 21 19 19 19 18 18 18 17 15 12 9 7 5 5 4 4 4 4 4 3 2 1 0 0 0 0 0 0 0 0 0 0 0 0 0 -1 -1 -1 -1 -1 -1 -1 -1 -1 -1 0 0 0 3 8 17 32 56 89 124 137 117 85 55 34 20 10 4 1 0 0 -1 -1 -1 -1 -1 -1 -1 -1 -1 -1 -1 -1 -1 -1 -1 -1 -1 -1 0 1 7 22 52 97 125 
97 49 17 4 1 2 7 19 40 72 106 131 136 124 108 95 83 72 62 56 53 52 52 51 51 50 48 44 38 31 25 21 19 19 18 18 18 17 15 12 9 7 5 5 4 4 4 4 4 4 3 2 1 0 0 0 0 0 0 0 0 0 0 0 0 2 6 12 23 41 65 90 110 120 123 119 110 92 70 48 29 16 8 3 0 0 -1 -1 -1 -1 -1 -1 -1 -1 -1 -1 -1 -1 -1 -1 -1 -1 -1 -1 0 3 13 35 76 113 
96 50 18 6 4 8 20 41 72 102 115 114 107 102 100 101 103 102 100 97 95 95 94 94 94 93 92 88 80 71 62 56 53 52 51 51 50 48 44 38 31 25 21 19 19 19 18 18 18 17 15 12 9 7 5 5 4 4 4 4 4 3 3 3 5 11 20 34 54 77 97 104 95 82 76 81 93 103 101 86 63 40 23 12 6 2 0 0 -1 -1 -1 -1 -1 -1 -1 -1 -1 -1 -1 -1 -1 -1 -1 -1 0 1 8 26 63 104 
95 52 20 9 11 21 43 73 99 103 87 68 57 54 56 62 71 80 88 92 93 94 94 94 95 95 97 100 102 102 100 97 95 95 94 94 93 92 88 80 71 62 56 53 52 52 51 51 50 48 44 38 31 25 21 19 19 18 18 18 17 16 14 14 19 31 49 70 91 102 97 78 56 40 34 38 52 72 91 102 97 77 54 34 20 10 4 1 0 0 -1 -1 -1 -1 -1 -1 -1 -1 -1 -1 -1 -1 -1 -1 -1 0 6 21 56 98 
95 54 25 18 26 46 75 99 99 76 48 30 22 20 21 25 31 38 44 48 50 51 51 52 52 53 56 62 71 80 88 92 93 94 94 95 95 97 100 102 102 100 97 95 95 94 94 94 93 92 88 80 71 62 56 53 52 51 51 50 49 45 41 41 49 67 87 101 101 86 63 41 24 15 11 14 21 34 54 77 97 102 91 70 48 29 16 8 3 0 0 -1 -1 -1 -1 -1 -1 -1 -1 -1 -1 -1 -1 -1 -1 0 5 19 53 96 
97 60 36 37 55 80 100 98 72 43 22 11 6 5 5 7 9 12 15 17 18 18 18 19 19 19 21 25 31 38 44 48 50 51 51 52 53 56 62 71 80 88 92 93 94 94 94 95 95 97 100 102 102 100 97 95 95 94 94 94 92 90 87 87 94 104 105 92 70 48 29 16 8 4 2 3 6 12 23 40 63 86 101 101 86 63 40 23 12 6 2 0 0 -1 -1 -1 -1 -1 -1 -1 -1 -1 -1 -1 -1 0 4 19 52 95 
102 72 58 69 90 102 95 69 40 19 8 3 1 0 0 0 1 2 3 4 4 4 4 4 4 5 5 7 9 12 15 17 18 18 18 19 19 21 25 31 38 44 48 50 51 51 52 52 53 56 62 71 80 88 92 93 94 94 95 96 99 106 118 128 129 112 84 56 34 20 10 4 1 0 0 0 1 3 8 16 29 48 70 91 102 97 77 54 34 20 10 4 1 0 0 -1 -1 -1 -1 -1 -1 -1 -1 -1 -1 0 4 18 51 95 
111 93 89 100 103 88 62 37 18 7 2 0 0 -1 -1 0 0 0 0 0 0 0 0 0 0 0 0 0 1 2 3 4 4 4 4 4 5 5 7 9 12 15 17 18 18 18 19 19 19 21 25 31 38 44 48 50 51 52 52 54 60 75 103 131 128 91 52 27 13 6 2 0 0 -1 -1 -1 0 0 1 4 10 20 34 54 77 97 102 91 70 48 29 16 8 3 0 0 0 -1 -1 -1 -1 -1 -1 -1 -1 0 4 18 51 96 
124 119 113 103 80 53 30 15 6 1 0 -1 -1 -1 -1 -1 -1 -1 -1 -1 -1 -1 -1 -1 -1 -1 -1 0 0 0 0 0 0 0 0 0 0 0 0 1 2 3 4 4 4 4 4 4 5 5 7 9 12 15 17 18 18 19 19 21 27 43 76 115 112 69 32 13 4 1 0 0 -1 -1 -1 -1 -1 -1 0 0 2 6 12 23 40 63 86 101 101 86 63 40 23 12 6 2 0 0 -1 -1 -1 -1 -1 -1 -1 0 4 18 50 98 
134 130 106 75 45 24 11 4 1 0 -1 -1 -1 -1 -1 -1 -1 -1 -1 -1 -1 -1 -1 -1 -1 -1 -1 -1 -1 -1 -1 -1 -1 -1 -1 -1 -1 -1 0 0 0 0 0 0 0 0 0 0 0 0 0 1 2 3 4 4 4 4 5 6 12 27 60 102 101 58 23 7 1 0 -1 -1 -1 -1 -1 -1 -1 -1 -1 -1 0 0 3 8 16 29 48 70 91 102 97 77 54 34 20 11 5 2 0 0 -1 -1 -1 -1 -1 0 4 17 49 100 
132 114 76 43 21 9 3 0 0 -1 -1 -1 -1 -1 -1 -1 -1 -1 -1 -1 -1 -1 -1 -1 -1 -1 -1 -1 -1 -1 -1 -1 -1 -1 -1 -1 -1 -1 -1 -1 -1 -1 -1 -1 -1 -1 -1 -1 -1 -1 0 0 0 0 0 0 0 0 0 1 6 21 54 97 97 53 20 5 0 0 -1 -1 -1 -1 -1 -1 -1 -1 -1 -1 -1 0 0 1 4 10 20 34 54 77 97 102 91 71 50 32 19 10 4 1 0 0 -1 -1 0 0 4 17 49 100 
119 88 47 21 8 2 0 0 -1 -1 -1 -1 -1 -1 -1 -1 -1 -1 -1 -1 -1 -1 -1 -1 -1 -1 -1 -1 -1 -1 -1 -1 -1 -1 -1 -1 -1 -1 -1 -1 -1 -1 -1 -1 -1 -1 -1 -1 -1 -1 -1 -1 -1 -1 -1 -1 -1 -1 0 0 5 19 52 95 95 52 19 4 0 -1 -1 -1 -1 -1 -1 -1 -1 -1 -1 -1 -1 -1 -1 0 0 2 6 12 23 40 63 86 100 101 89 69 48 29 16 7 3 1 0 0 0 0 4 18 50 98 
107 68 30 11 3 0 0 -1 -1 -1 -1 -1 -1 -1 -1 -1 -1 -1 -1 -1 -1 -1 -1 -1 -1 -1 -1 -1 -1 -1 -1 -1 -1 -1 -1 -1 -1 -1 -1 -1 -1 -1 -1 -1 -1 -1 -1 -1 -1 -1 -1 -1 -1 -1 -1 -1 -1 -1 -1 0 4 19 52 95 95 52 19 4 0 -1 -1 -1 -1 -1 -1 -1 -1 -1 -1 -1 -1 -1 -1 -1 -1 0 0 3 8 16 29 48 69 89 101 101 86 63 40 23 13 7 4 3 2 2 6 19 51 97 
100 57 23 7 1 0 -1 -1 -1 -1 -1 -1 -1 -1 -1 -1 -1 -1 -1 -1 -1 -1 -1 -1 -1 -1 -1 -1 -1 -1 -1 -1 -1 -1 -1 -1 -1 -1 -1 -1 -1 -1 -1 -1 -1 -1 -1 -1 -1 -1 -1 -1 -1 -1 -1 -1 -1 -1 -1 0 4 18 51 94 94 51 18 4 0 -1 -1 -1 -1 -1 -1 -1 -1 -1 -1 -1 -1 -1 -1 -1 -1 -1 0 0 1 4 10 20 33 51 72 93 105 99 77 53 35 24 18 13 10 8 11 23 54 97 
97 53 20 5 0 0 -1 -1 -1 -1 -1 -1 -1 -1 -1 -1 -1 -1 -1 -1 -1 -1 -1 -1 -1 -1 -1 -1 -1 -1 -1 -1 -1 -1 -1 -1 -1 -1 -1 -1 -1 -1 -1 -1 -1 -1 -1 -1 -1 -1 -1 -1 -1 -1 -1 -1 -1 -1 -1 0 4 18 51 94 94 51 18 4 0 -1 -1 -1 -1 -1 -1 -1 -1 -1 -1 -1 -1 -1 -1 -1 -1 -1 -1 -1 0 0 3 7 13 24 40 63 91 113 115 97 76 60 49 39 31 25 24 34 63 100 
98 53 20 6 1 0 0 0 0 0 0 -1 -1 -1 -1 -1 -1 -1 -1 -1 -1 -1 -1 -1 -1 -1 -1 -1 -1 -1 -1 -1 -1 -1 -1 -1 -1 -1 -1 -1 -1 -1 -1 -1 -1 -1 -1 -1 -1 -1 -1 -1 -1 -1 -1 -1 -1 -1 -1 0 4 18 51 94 94 51 18 4 0 -1 -1 -1 -1 -1 -1 -1 -1 -1 -1 -1 -1 -1 -1 -1 -1 -1 -1 0 0 0 2 5 10 17 30 49 78 111 133 132 117 103 92 82 71 61 55 60 82 110 
103 56 24 10 6 5 4 3 2 1 0 0 0 0 0 0 0 0 0 -1 -1 -1 -1 -1 -1 -1 -1 -1 -1 -1 -1 -1 -1 -1 -1 -1 -1 -1 -1 -1 -1 -1 -1 -1 -1 -1 -1 -1 -1 -1 -1 -1 -1 -1 -1 -1 -1 -1 -1 0 4 18 51 94 94 51 18 4 0 -1 -1 -1 -1 -1 -1 -1 -1 -1 -1 -1 -1 -1 -1 -1 -1 0 0 0 1 4 7 12 20 32 47 67 91 115 127 122 111 104 102 103 102 99 96 99 112 126 
113 68 37 24 20 18 17 15 12 9 7 5 5 4 4 3 2 1 0 0 0 0 0 0 0 0 0 0 -1 -1 -1 -1 -1 -1 -1 -1 -1 -1 -1 -1 -1 -1 -1 -1 -1 -1 -1 -1 -1 -1 -1 -1 -1 -1 -1 -1 -1 -1 -1 0 4 18 51 94 94 51 18 4 0 -1 -1 -1 -1 -1 -1 -1 -1 -1 -1 -1 -1 -1 -1 0 0 1 2 5 9 15 23 34 50 67 84 98 106 105 93 76 64 60 63 72 82 92 101 114 131 140 
129 94 68 57 53 51 48 44 38 31 25 21 19 18 17 15 12 9 7 5 5 4 4 4 3 2 1 0 0 0 0 0 0 0 0 0 -1 -1 -1 -1 -1 -1 -1 -1 -1 -1 -1 -1 -1 -1 -1 -1 -1 -1 -1 -1 -1 -1 -1 0 4 18 51 94 94 51 18 4 0 -1 -1 -1 -1 -1 -1 -1 -1 -1 -1 -1 0 0 0 1 3 7 12 19 29 42 57 73 89 100 102 96 83 66 48 34 26 23 26 32 40 50 63 83 112 138 
141 125 108 99 95 94 92 88 80 71 62 56 53 51 48 44 38 31 25 21 19 19 18 17 15 12 9 7 5 5 4 4 3 2 1 0 0 0 0 0 0 0 0 0 0 -1 -1 -1 -1 -1 -1 -1 -1 -1 -1 -1 -1 -1 -1 0 4 18 51 94 94 51 18 4 0 -1 -1 -1 -1 -1 -1 -1 -1 -1 0 0 0 2 5 9 15 23 34 49 66 83 95 102 100 89 73 57 42 29 19 11 8 6 7 10 14 19 29 47 81 124 
137 125 108 99 96 96 97 100 102 102 100 97 95 94 92 88 80 71 62 56 53 52 50 48 44 38 31 25 21 19 18 17 15 12 9 7 5 5 4 4 4 3 2 1 0 0 0 0 0 0 0 0 0 -1 -1 -1 -1 -1 0 0 4 19 52 94 94 51 18 4 0 -1 -1 -1 -1 -1 -1 -1 0 0 1 2 6 11 19 29 42 57 73 89 100 102 95 83 66 49 34 23 15 9 5 2 1 0 1 2 3 6 12 28 62 110 
120 95 69 57 53 53 56 62 71 80 88 92 94 95 97 100 102 102 100 97 95 94 93 92 88 80 71 62 56 53 51 48 44 38 31 25 21 19 19 18 17 15 12 9 7 5 5 4 4 3 2 1 0 0 0 0 0 0 0 1 5 19 52 95 95 52 19 4 0 -1 -1 -1 -1 0 0 0 1 4 7 12 20 32 48 66 83 95 102 100 89 73 57 42 29 19 12 7 3 1 0 0 0 0 0 0 0 1 6 21 54 101 
105 69 39 25 20 20 21 25 31 38 44 48 51 53 56 62 71 80 88 92 93 94 95 97 100 102 102 100 97 95 94 92 88 80 71 62 56 53 52 50 48 44 38 31 25 21 19 18 17 15 12 9 7 5 5 4 4 4 4 4 8 21 53 96 95 52 19 5 0 0 0 0 0 1 2 5 9 15 23 35 51 70 88 100 102 95 83 66 49 34 23 15 9 5 2 1 0 0 -1 -1 -1 -1 -1 -1 0 0 5 19 52 97 
98 57 25 11 6 5 5 7 9 12 15 17 18 19 21 25 31 38 44 48 50 52 53 56 62 71 80 88 92 94 95 97 100 102 102 100 97 95 94 93 92 88 80 71 62 56 53 51 48 44 38 31 25 21 19 19 18 17 16 14 16 27 58 99 97 53 20 5 1 0 0 1 4 7 12 19 29 42 57 73 90 101 101 90 73 57 42 29 19 12 7 3 1 0 0 0 -1 -1 -1 -1 -1 -1 -1 -1 -1 0 4 18 51 95 
95 53 20 6 1 0 0 1 1 2 3 4 4 5 5 7 9 12 15 17 18 19 19 21 25 31 38 44 48 51 53 56 62 71 80 88 92 93 94 95 97 100 102 102 100 97 95 94 92 88 80 71 62 56 53 52 50 48 45 40 37 45 72 107 102 58 23 8 3 3 5 9 15 23 34 49 66 83 95 102 100 88 70 51 35 23 15 9 5 2 1 0 0 -1 -1 -1 -1 -1 -1 -1 -1 -1 -1 -1 -1 0 4 18 51 95 
95 52 19 5 0 0 0 0 0 0 0 0 0 0 0 0 1 2 3 4 4 4 5 5 7 9 12 15 17 18 19 21 25 31 38 44 48 50 52 53 56 62 71 80 88 92 94 95 97 100 102 102 100 97 95 94 93 92 88 82 76 79 99 124 114 70 33 16 11 13 19 29 42 57 73 89 100 102 95 83 66 48 32 20 12 7 4 1 0 0 0 -1 -1 -1 -1 -1 -1 -1 -1 -1 -1 -1 -1 -1 -1 0 4 18 51 94 
94 52 19 4 0 -1 -1 -1 -1 -1 -1 -1 -1 -1 -1 0 0 0 0 0 0 0 0 0 0 1 2 3 4 4 5 5 7 9 12 15 17 18 19 19 21 25 31 38 44 48 51 53 56 62 71 80 88 92 93 94 95 97 100 103 105 110 122 137 128 92 56 36 31 37 50 67 83 95 102 100 89 73 57 42 29 19 11 6 2 1 0 0 -1 -1 -1 -1 -1 -1 -1 -1 -1 -1 -1 -1 -1 -1 -1 -1 -1 0 4 18 51 94 
94 51 18 4 0 -1 -1 -1 -1 -1 -1 -1 -1 -1 -1 -1 -1 -1 -1 -1 -1 -1 -1 -1 0 0 0 0 0 0 0 0 1 1 2 3 4 4 4 5 5 7 9 12 15 17 18 19 21 25 31 38 44 48 50 52 53 56 62 71 81 91 102 115 124 115 93 74 70 78 91 100 102 95 83 66 49 34 23 15 9 5 2 0 0 0 -1 -1 -1 -1 -1 -1 -1 -1 -1 -1 -1 -1 -1 -1 -1 -1 -1 -1 -1 0 4 18 51 94 
94 51 19 4 0 -1 -1 -1 -1 -1 -1 -1 -1 -1 -1 -1 -1 -1 -1 -1 -1 -1 -1 -1 -1 -1 -1 -1 -1 -1 -1 0 0 0 0 0 0 0 0 0 0 1 1 2 3 4 4 5 5 7 9 13 15 17 18 19 19 21 25 31 38 46 54 68 91 115 125 120 113 108 102 90 73 57 42 29 19 12 7 4 1 0 0 0 -1 -1 -1 -1 -1 -1 -1 -1 -1 -1 -1 -1 -1 -1 -1 -1 -1 -1 -1 -1 -1 0 4 19 51 94 
95 52 19 5 0 0 -1 -1 -1 -1 -1 -1 -1 -1 -1 -1 -1 -1 -1 -1 -1 -1 -1 -1 -1 -1 -1 -1 -1 -1 -1 -1 -1 0 0 0 0 0 0 0 0 0 0 0 0 0 0 0 0 1 2 3 4 4 5 5 5 6 7 10 13 17 22 32 55 92 129 136 116 91 69 50 35 23 15 10 5 3 1 0 0 0 0 -1 -1 -1 -1 -1 -1 -1 -1 -1 -1 -1 -1 -1 -1 -1 -1 -1 -1 -1 -1 -1 0 0 5 19 52 95 
96 53 20 6 1 0 0 0 0 0 0 0 0 0 0 0 0 0 0 0 0 0 0 0 0 0 0 0 0 0 0 0 0 0 0 0 0 0 0 0 0 0 0 0 0 0 0 0 0 0 0 1 1 1 1 1 1 2 2 3 4 6 9 16 34 71 115 123 90 57 35 22 14 8 5 3 2 1 0 0 0 0 0 0 0 0 0 0 0 0 0 0 0 0 0 0 0 0 0 0 0 0 0 0 0 1 6 20 53 96 
99 57 25 11 6 5 4 4 4 4 4 4 4 4 4 4 4 4 4 4 4 4 4 4 4 4 4 4 4 4 4 4 4 4 4 4 4 4 4 4 4 4 4 4 4 4 4 4 4 4 4 4 4 5 5 5 5 5 5 5 6 6 8 14 29 64 106 110 72 38 21 13 9 7 6 5 5 5 4 4 4 4 4 4 4 4 4 4 4 4 4 4 4 4 4 4 4 4 4 4 4 4 4 4 4 6 10 25 57 99 
107 69 38 25 20 19 19 18 18 18 18 18 18 18 18 18 18 18 18 18 18 18 18 18 18 18 18 18 18 18 18 18 17 17 17 18 18 18 18 18 18 18 18 18 18 18 18 18 18 17 17 18 18 18 18 19 19 19 19 19 19 19 21 26 40 71 110 112 74 43 28 22 20 19 19 19 19 19 18 18 18 18 18 18 18 18 18 18 18 18 18 17 17 17 18 18 18 18 18 18 18 18 18 17 17 19 24 38 69 107 
126 95 69 57 53 52 51 51 51 51 51 51 51 51 51 51 51 51 51 51 51 51 51 51 51 51 51 51 51 51 51 50 49 49 49 50 51 51 51 51 51 51 51 51 51 51 51 51 50 49 49 50 51 51 51 51 51 51 51 51 52 52 53 57 70 95 126 126 96 70 58 54 52 52 52 51 51 51 51 51 51 51 51 51 51 51 51 51 51 51 50 49 49 49 50 51 51 51 51 51 51 51 50 49 49 51 56 68 95 126 
149 126 107 99 96 95 94 94 94 94 94 94 94 94 94 94 94 94 94 94 94 94 94 94 94 94 94 94 95 95 96 98 100 100 98 96 95 95 94 94 94 94 94 94 94 95 95 96 98 100 100 98 96 95 94 94 94 94 94 94 94 95 95 98 105 119 133 133 119 105 98 95 95 94 94 94 94 94 94 94 94 94 94 94 94 94 94 94 95 96 97 100 100 99 97 95 95 94 94 94 95 95 97 99 101 100 101 108 127 149 
