P2
110 110
255
149 126 108 99 96 95 94 94 94 94 94 94 94 94 94 94 94 94 94 94 94 94 94 94 94 94 94 95 96 100 108 122 133 132 120 107 99 96 95 94 94 94 94 94 95 95 98 105 119 134 133 118 105 98 95 95 94 94 94 94 94 94 94 95 96 98 100 100 98 96 95 94 94 94 94 94 94 94 94 94 94 94 94 94 94 94 95 95 98 104 117 131 134 123 109 100 96 95 95 95 97 102 114 129 135 125 114 113 128 149 
126 95 69 57 53 52 52 52 52 52 52 52 52 52 52 52 52 52 52 52 52 52 52 52 52 52 52 53 57 66 84 112 130 117 90 69 58 54 52 52 52 52 52 52 52 54 59 72 99 128 126 95 69 57 53 52 52 52 52 52 52 52 51 51 51 50 49 49 50 51 51 51 52 52 52 52 52 52 52 52 52 52 52 52 52 52 52 54 59 73 99 126 125 97 72 59 54 52 52 53 57 67 90 121 128 104 81 78 97 127 
108 69 39 25 20 19 19 19 19 19 19 19 19 19 19 19 19 19 19 19 19 19 19 19 19 19 20 22 29 44 73 106 112 84 51 32 23 20 19 19 19 19 19 19 19 22 28 46 80 117 109 68 38 25 20 19 19 19 19 19 19 19 19 18 18 18 17 17 18 18 18 19 19 19 19 19 19 19 19 19 19 19 19 19 19 19 20 22 31 51 86 114 99 62 37 25 20 19 19 21 25 39 70 107 109 74 48 46 71 108 
99 57 25 11 6 5 4 4 4 4 4 4 4 4 4 4 4 4 4 4 4 4 4 4 5 5 7 11 23 47 83 106 90 54 26 12 7 5 5 4 4 4 4 5 6 9 18 40 81 117 102 55 24 11 6 5 4 4 4 4 4 4 4 4 4 4 4 4 4 4 4 4 4 4 4 4 4 4 4 4 4 4 4 4 5 5 6 10 22 49 89 106 76 38 17 8 6 5 5 7 13 31 66 103 95 55 30 31 59 99 
96 53 20 6 1 0 0 0 0 0 0 0 0 0 0 0 0 0 0 0 0 0 0 0 0 1 4 13 33 66 98 98 64 31 12 4 1 0 0 0 0 0 0 0 2 7 21 50 95 125 100 51 19 6 1 0 0 0 0 0 0 0 0 0 0 0 0 0 0 0 0 0 0 0 0 0 0 0 0 0 0 0 0 0 0 0 2 9 25 59 97 96 57 24 8 2 0 0 1 3 11 33 72 103 83 43 21 25 54 96 
95 52 19 5 0 0 -1 -1 -1 -1 -1 -1 -1 -1 -1 -1 -1 -1 -1 -1 -1 -1 -1 0 0 2 8 23 52 89 102 77 41 16 5 1 0 0 -1 -1 -1 -1 0 0 3 11 32 69 114 133 101 51 18 5 0 0 -1 -1 -1 -1 -1 -1 -1 -1 -1 -1 -1 -1 -1 -1 -1 -1 -1 -1 -1 -1 -1 -1 -1 -1 -1 -1 -1 -1 0 0 3 12 35 74 102 83 42 15 4 0 0 0 0 3 14 40 82 102 71 33 16 23 53 95 
94 52 19 4 0 -1 -1 -1 -1 -1 -1 -1 -1 -1 -1 -1 -1 -1 -1 -1 -1 -1 -1 0 0 5 16 41 77 102 88 52 23 8 1 0 -1 -1 -1 -1 -1 -1 0 1 6 20 49 91 126 134 103 54 20 5 0 0 -1 -1 -1 -1 -1 -1 -1 -1 -1 -1 -1 -1 -1 -1 -1 -1 -1 -1 -1 -1 -1 -1 -1 -1 -1 -1 -1 -1 0 0 5 19 49 89 100 67 30 9 2 0 -1 0 0 5 18 49 91 98 60 26 13 21 52 94 
94 52 19 4 0 -1 -1 -1 -1 -1 -1 -1 -1 -1 -1 -1 -1 -1 -1 -1 -1 -1 -1 0 3 11 31 64 97 97 64 31 11 3 0 -1 -1 -1 -1 -1 -1 -1 0 3 12 34 70 108 124 127 106 61 24 7 1 0 -1 -1 -1 -1 -1 -1 -1 -1 -1 -1 -1 -1 -1 -1 -1 -1 -1 -1 -1 -1 -1 -1 -1 -1 -1 -1 -1 -1 0 2 9 30 67 100 89 49 19 5 0 0 -1 0 0 7 24 59 98 91 50 20 11 20 52 94 
94 52 19 4 0 -1 -1 -1 -1 -1 -1 -1 -1 -1 -1 -1 -1 -1 -1 -1 -1 -1 0 1 8 23 52 88 102 77 41 16 5 0 0 -1 -1 -1 -1 -1 -1 0 1 8 23 54 92 110 107 111 108 70 30 9 1 0 -1 -1 -1 -1 -1 -1 -1 -1 -1 -1 -1 -1 -1 -1 -1 -1 -1 -1 -1 -1 -1 -1 -1 -1 -1 -1 -1 -1 0 4 15 42 83 102 73 34 12 2 0 -1 -1 0 1 10 31 70 102 82 40 15 9 20 52 94 
94 52 19 4 0 -1 -1 -1 -1 -1 -1 -1 -1 -1 -1 -1 -1 -1 -1 -1 -1 0 0 5 16 41 77 102 88 52 23 8 1 0 -1 -1 -1 -1 -1 -1 0 0 4 16 41 77 104 97 81 92 107 80 38 13 2 0 -1 -1 -1 -1 -1 -1 -1 -1 -1 -1 -1 -1 -1 -1 -1 -1 -1 -1 -1 -1 -1 -1 -1 -1 -1 -1 -1 0 1 7 23 57 95 95 57 23 7 1 0 -1 -1 0 3 14 40 82 102 71 31 11 8 20 52 94 
95 52 19 5 0 -1 -1 -1 -1 -1 -1 -1 -1 -1 -1 -1 -1 -1 -1 -1 -1 0 3 11 31 64 97 97 64 31 11 3 0 -1 -1 -1 -1 -1 -1 -1 0 2 10 29 63 97 99 72 57 74 103 88 44 15 3 0 -1 -1 -1 -1 -1 -1 -1 -1 -1 -1 -1 -1 -1 -1 -1 -1 -1 -1 -1 -1 -1 -1 -1 -1 -1 -1 -1 0 2 12 34 73 102 83 42 15 4 0 -1 -1 -1 0 4 18 49 91 98 59 24 8 7 19 52 94 
96 54 20 5 0 -1 -1 -1 -1 -1 -1 -1 -1 -1 -1 -1 -1 -1 -1 -1 0 1 8 23 52 88 102 77 41 16 5 0 0 -1 -1 -1 -1 -1 -1 0 0 6 19 48 86 102 79 48 40 62 98 92 49 17 4 0 -1 -1 -1 -1 -1 -1 -1 -1 -1 -1 -1 -1 -1 -1 -1 -1 -1 -1 -1 -1 -1 -1 -1 -1 -1 -1 0 0 5 19 49 89 100 67 29 9 2 0 -1 -1 0 0 7 24 59 98 91 49 19 6 6 19 51 95 
99 58 23 7 1 0 -1 -1 -1 -1 -1 -1 -1 -1 -1 -1 -1 -1 -1 0 0 5 16 41 77 102 88 52 23 8 1 0 -1 -1 -1 -1 -1 -1 -1 0 2 11 33 69 100 91 56 30 29 55 95 94 52 19 5 0 -1 -1 -1 -1 -1 -1 -1 -1 -1 -1 -1 -1 -1 -1 -1 -1 -1 -1 -1 -1 -1 -1 -1 -1 -1 -1 0 2 9 29 67 100 89 49 19 5 0 0 -1 -1 0 1 10 31 70 102 82 40 14 5 6 19 51 95 
107 68 30 11 3 0 -1 -1 -1 -1 -1 -1 -1 -1 -1 -1 -1 -1 -1 0 3 11 31 64 97 97 64 31 11 3 0 -1 -1 -1 -1 -1 -1 -1 0 1 6 21 50 89 101 71 36 19 23 51 92 97 56 21 5 0 -1 -1 -1 -1 -1 -1 -1 -1 -1 -1 -1 -1 -1 -1 -1 -1 -1 -1 -1 -1 -1 -1 -1 -1 -1 -1 0 4 15 42 83 102 73 34 12 2 0 -1 -1 -1 0 3 14 40 82 102 71 31 10 3 5 18 50 96 
119 88 47 21 7 1 0 -1 -1 -1 -1 -1 -1 -1 -1 -1 -1 -1 0 1 8 23 52 88 102 77 41 16 5 0 0 -1 -1 -1 -1 -1 -1 -1 0 3 13 34 71 101 89 51 22 12 18 45 88 100 62 25 7 1 0 -1 -1 -1 -1 -1 -1 -1 -1 -1 -1 -1 -1 -1 -1 -1 -1 -1 -1 -1 -1 -1 -1 -1 -1 0 1 7 23 57 95 95 57 23 7 1 0 -1 -1 -1 0 4 18 49 91 98 59 24 7 2 5 18 49 98 
132 114 75 40 18 6 1 0 -1 -1 -1 -1 -1 -1 -1 -1 -1 0 0 5 16 41 77 102 88 52 23 8 1 0 -1 -1 -1 -1 -1 -1 -1 0 1 8 23 54 91 100 69 33 13 7 14 39 81 102 71 31 10 1 0 -1 -1 -1 -1 -1 -1 -1 -1 -1 -1 -1 -1 -1 -1 -1 -1 -1 -1 -1 -1 -1 -1 -1 -1 0 2 12 34 73 102 83 42 15 4 0 -1 -1 -1 0 0 7 24 59 98 91 49 18 5 1 4 17 49 100 
134 129 104 69 36 15 4 0 0 -1 -1 -1 -1 -1 -1 -1 -1 0 3 11 31 64 97 97 64 31 11 3 0 -1 -1 -1 -1 -1 -1 -1 0 0 4 16 41 77 102 86 48 20 7 4 10 31 71 102 80 38 13 2 0 -1 -1 -1 -1 -1 -1 -1 -1 -1 -1 -1 -1 -1 -1 -1 -1 -1 -1 -1 -1 -1 -1 -1 0 0 5 19 49 89 100 67 29 9 2 0 -1 -1 -1 0 1 10 31 70 102 82 40 14 3 1 4 17 49 100 
125 120 114 96 62 30 12 3 0 0 -1 -1 -1 -1 -1 -1 0 1 8 23 52 88 102 77 41 16 5 0 0 -1 -1 -1 -1 -1 -1 -1 0 2 10 29 63 97 97 63 29 10 3 2 7 25 62 99 88 45 15 3 0 -1 -1 -1 -1 -1 -1 -1 -1 -1 -1 -1 -1 -1 -1 -1 -1 -1 -1 -1 -1 -1 -1 -1 0 2 9 29 67 100 89 49 19 5 0 0 -1 -1 -1 0 3 14 40 82 102 70 31 10 2 1 4 18 50 98 
112 98 99 106 88 53 24 9 2 0 -1 -1 -1 -1 -1 0 0 5 16 41 77 102 88 52 23 8 1 0 -1 -1 -1 -1 -1 -1 -1 0 0 6 19 48 86 102 77 41 16 5 1 1 6 21 56 97 92 49 17 4 0 -1 -1 -1 -1 -1 -1 -1 -1 -1 -1 -1 -1 -1 -1 -1 -1 -1 -1 -1 -1 -1 -1 -1 0 4 15 42 83 102 73 34 12 2 0 -1 -1 -1 -1 0 4 18 49 91 98 59 24 7 1 0 4 18 51 96 
104 78 74 94 103 80 46 21 8 2 0 -1 -1 -1 -1 0 3 11 31 64 97 97 64 31 11 3 0 -1 -1 -1 -1 -1 -1 -1 -1 0 2 11 33 69 100 91 54 23 8 1 0 0 5 19 52 94 94 52 19 5 0 -1 -1 -1 -1 -1 -1 -1 -1 -1 -1 -1 -1 -1 -1 -1 -1 -1 -1 -1 -1 -1 -1 0 1 7 23 57 95 95 57 23 7 1 0 -1 -1 -1 0 0 7 24 59 98 91 49 18 5 0 0 4 18 51 95 
99 65 51 69 96 100 75 43 20 8 2 0 0 -1 0 1 8 23 52 88 102 77 41 16 5 0 0 -1 -1 -1 -1 -1 -1 -1 0 1 6 21 50 89 101 71 34 13 3 0 0 0 4 17 49 92 97 56 21 5 0 -1 -1 -1 -1 -1 -1 -1 -1 -1 -1 -1 -1 -1 -1 -1 -1 -1 -1 -1 -1 -1 -1 0 2 12 34 73 102 83 42 15 4 0 -1 -1 -1 -1 0 1 10 31 70 102 82 40 14 3 0 0 4 19 51 95 
96 58 36 43 71 98 99 73 42 20 8 2 0 0 0 5 16 41 77 102 88 52 23 8 1 0 -1 -1 -1 -1 -1 -1 -1 -1 0 3 13 34 71 101 89 50 21 6 1 0 -1 0 3 15 45 88 99 62 25 7 1 0 -1 -1 -1 -1 -1 -1 -1 -1 -1 -1 -1 -1 -1 -1 -1 -1 -1 -1 -1 -1 0 0 5 19 49 89 100 67 29 9 2 0 -1 -1 -1 -1 0 3 14 40 82 102 70 31 10 2 0 0 4 19 52 94 
95 54 27 24 42 72 98 99 73 42 20 8 2 1 3 12 31 64 97 97 64 31 11 3 0 -1 -1 -1 -1 -1 -1 -1 -1 0 1 8 23 54 91 100 69 33 11 2 0 -1 -1 0 2 13 38 80 102 71 31 10 1 0 -1 -1 -1 -1 -1 -1 -1 -1 -1 -1 -1 -1 -1 -1 -1 -1 -1 -1 -1 -1 0 2 9 29 67 100 89 49 19 5 0 0 -1 -1 -1 -1 0 4 18 49 91 98 59 24 7 1 0 0 4 19 52 94 
95 53 22 13 21 42 73 98 98 73 42 20 9 5 9 23 52 88 102 77 41 16 5 0 0 -1 -1 -1 -1 -1 -1 -1 0 0 4 16 41 77 102 86 48 19 6 0 0 -1 -1 0 1 10 31 71 102 81 38 13 2 0 -1 -1 -1 -1 -1 -1 -1 -1 -1 -1 -1 -1 -1 -1 -1 -1 -1 -1 -1 -1 0 4 15 42 83 102 73 34 12 2 0 -1 -1 -1 -1 0 0 7 24 59 98 91 49 18 4 0 0 0 4 19 52 94 
94 52 20 8 9 20 42 73 98 98 73 43 22 15 20 42 77 102 88 52 23 8 1 0 -1 -1 -1 -1 -1 -1 -1 -1 0 2 10 29 63 97 97 63 29 10 2 0 -1 -1 -1 0 1 7 25 62 99 88 45 16 3 0 -1 -1 -1 -1 -1 -1 -1 -1 -1 -1 -1 -1 -1 -1 -1 -1 -1 -1 -1 0 1 7 23 57 95 95 57 23 7 1 0 -1 -1 -1 -1 0 1 10 31 70 102 82 40 14 3 0 0 0 4 19 52 94 
94 52 19 6 4 8 20 42 73 98 99 74 47 34 41 68 98 97 64 31 11 3 0 -1 -1 -1 -1 -1 -1 -1 -1 0 0 6 19 48 86 102 77 41 16 4 0 0 -1 -1 -1 -1 0 5 21 55 96 93 50 18 4 0 -1 -1 -1 -1 -1 -1 -1 -1 -1 -1 -1 -1 -1 -1 -1 -1 -1 -1 -1 0 2 12 34 73 102 83 42 15 4 0 -1 -1 -1 -1 -1 0 3 14 40 82 102 70 31 10 1 0 0 0 4 19 52 94 
94 52 19 5 1 2 8 20 42 73 99 101 82 67 73 96 103 77 41 16 5 0 0 -1 -1 -1 -1 -1 -1 -1 -1 0 2 11 33 69 100 91 54 23 8 1 0 -1 -1 -1 -1 -1 0 4 18 50 93 96 55 21 5 0 -1 -1 -1 -1 -1 -1 -1 -1 -1 -1 -1 -1 -1 -1 -1 -1 -1 -1 0 0 5 19 49 89 100 67 29 9 2 0 -1 -1 -1 -1 -1 0 4 18 49 91 98 59 24 7 0 0 0 0 4 19 52 94 
94 52 19 5 0 0 2 8 20 42 73 101 111 107 110 112 89 52 23 8 1 0 -1 -1 -1 -1 -1 -1 -1 -1 0 1 6 21 50 89 101 71 34 13 3 0 -1 -1 -1 -1 -1 -1 0 3 16 45 88 99 62 25 7 1 0 -1 -1 -1 -1 -1 -1 -1 -1 -1 -1 -1 -1 -1 -1 -1 -1 -1 0 2 9 29 67 100 89 49 19 5 0 0 -1 -1 -1 -1 0 0 7 24 59 98 91 49 18 4 0 -1 -1 0 4 19 52 94 
94 52 19 4 0 0 0 2 8 20 43 76 111 132 132 106 65 31 11 3 0 -1 -1 -1 -1 -1 -1 -1 -1 -1 0 3 13 34 71 101 89 50 21 6 1 0 -1 -1 -1 -1 -1 -1 0 2 13 38 81 102 71 31 10 1 0 -1 -1 -1 -1 -1 -1 -1 -1 -1 -1 -1 -1 -1 -1 -1 -1 -1 0 4 15 42 83 102 73 34 12 2 0 -1 -1 -1 -1 -1 0 1 10 31 70 102 82 40 14 3 0 -1 -1 0 4 19 52 94 
94 52 19 4 0 0 0 0 2 8 21 48 88 126 127 87 44 17 5 0 0 -1 -1 -1 -1 -1 -1 -1 -1 0 1 8 23 54 91 100 69 33 11 2 0 -1 -1 -1 -1 -1 -1 -1 0 1 10 31 71 102 80 38 13 2 0 -1 -1 -1 -1 -1 -1 -1 -1 -1 -1 -1 -1 -1 -1 -1 -1 0 1 7 23 57 95 95 57 23 7 1 0 -1 -1 -1 -1 -1 0 3 14 40 82 102 70 31 10 1 0 -1 -1 0 4 19 52 94 
94 52 19 4 0 -1 -1 -1 0 3 11 29 65 109 113 71 32 11 2 0 -1 -1 -1 -1 -1 -1 -1 -1 0 0 4 16 41 77 102 86 48 19 6 0 0 -1 -1 -1 -1 -1 -1 -1 0 1 7 25 62 99 88 45 15 3 0 -1 -1 -1 -1 -1 -1 -1 -1 -1 -1 -1 -1 -1 -1 -1 -1 0 2 12 34 73 102 83 42 15 4 0 -1 -1 -1 -1 -1 -1 0 4 18 49 91 98 59 24 7 0 0 -1 -1 0 4 19 52 94 
94 52 19 4 0 -1 -1 -1 0 0 6 19 51 94 106 68 29 9 1 0 -1 -1 -1 -1 -1 -1 -1 -1 0 2 10 29 63 97 97 63 29 10 2 0 -1 -1 -1 -1 -1 -1 -1 -1 -1 0 5 21 56 97 92 49 17 4 0 -1 -1 -1 -1 -1 -1 -1 -1 -1 -1 -1 -1 -1 -1 -1 0 0 5 19 49 89 100 67 29 9 2 0 -1 -1 -1 -1 -1 0 0 7 24 59 98 91 49 18 4 0 -1 -1 -1 0 4 19 52 94 
94 52 19 4 0 -1 -1 -1 -1 0 3 14 40 82 104 73 32 10 2 0 -1 -1 -1 -1 -1 -1 -1 0 0 6 19 48 86 102 77 41 16 4 0 0 -1 -1 -1 -1 -1 -1 -1 -1 -1 0 5 19 52 94 94 52 19 5 0 -1 -1 -1 -1 -1 -1 -1 -1 -1 -1 -1 -1 -1 -1 -1 0 2 9 29 67 100 89 49 19 5 0 0 -1 -1 -1 -1 -1 0 1 10 31 70 102 82 40 14 3 0 -1 -1 -1 0 4 19 52 94 
94 52 19 4 0 -1 -1 -1 -1 0 2 10 31 71 102 81 39 13 3 0 -1 -1 -1 -1 -1 -1 -1 0 2 11 33 69 100 91 54 23 8 1 0 -1 -1 -1 -1 -1 -1 -1 -1 -1 -1 0 4 17 49 92 97 56 21 5 0 -1 -1 -1 -1 -1 -1 -1 -1 -1 -1 -1 -1 -1 -1 -1 0 4 15 42 83 102 73 34 12 2 0 -1 -1 -1 -1 -1 -1 0 3 14 40 82 102 70 31 10 1 0 -1 -1 -1 0 5 19 52 95 
94 51 19 4 0 -1 -1 -1 -1 0 1 7 25 61 99 89 46 16 4 0 -1 -1 -1 -1 -1 -1 0 1 6 21 50 89 101 71 34 13 3 0 -1 -1 -1 -1 -1 -1 -1 -1 -1 -1 -1 0 3 15 45 88 99 62 25 7 1 0 -1 -1 -1 -1 -1 -1 -1 -1 -1 -1 -1 -1 -1 0 1 7 23 57 95 95 57 23 7 1 0 -1 -1 -1 -1 -1 -1 0 4 18 49 91 98 59 24 7 0 0 -1 -1 -1 0 5 20 53 96 
95 51 18 4 0 -1 -1 -1 -1 -1 0 5 20 53 95 95 53 20 5 0 -1 -1 -1 -1 -1 -1 0 3 13 34 71 101 89 50 21 6 1 0 -1 -1 -1 -1 -1 -1 -1 -1 -1 -1 -1 0 2 13 38 80 102 71 31 10 1 0 -1 -1 -1 -1 -1 -1 -1 -1 -1 -1 -1 -1 -1 0 2 12 34 73 102 83 42 15 4 0 -1 -1 -1 -1 -1 -1 0 0 7 24 59 98 91 49 18 4 0 -1 -1 -1 0 0 6 21 56 98 
96 50 18 4 0 -1 -1 -1 -1 -1 0 4 16 46 89 99 61 25 7 1 0 -1 -1 -1 -1 0 1 8 23 54 91 100 69 33 11 2 0 -1 -1 -1 -1 -1 -1 -1 -1 -1 -1 -1 -1 0 1 10 31 71 102 80 38 13 2 0 -1 -1 -1 -1 -1 -1 -1 -1 -1 -1 -1 -1 0 0 5 19 49 89 100 67 29 9 2 0 -1 -1 -1 -1 -1 -1 0 1 10 31 70 102 82 40 14 3 0 -1 -1 -1 0 1 8 26 63 104 
97 49 17 4 0 -1 -1 -1 -1 -1 0 3 13 39 81 102 71 31 10 1 0 -1 -1 -1 0 0 4 16 41 77 102 86 48 19 6 0 0 -1 -1 -1 -1 -1 -1 -1 -1 -1 -1 -1 -1 0 1 7 25 62 99 88 45 15 3 0 -1 -1 -1 -1 -1 -1 -1 -1 -1 -1 -1 -1 0 2 9 29 67 100 89 49 19 5 0 0 -1 -1 -1 -1 -1 -1 0 3 14 40 82 102 70 31 10 1 0 -1 -1 -1 0 3 13 36 76 113 
98 49 17 4 0 -1 -1 -1 -1 -1 0 1 10 31 71 102 81 39 13 3 0 -1 -1 -1 0 2 10 29 63 97 97 63 29 10 2 0 -1 -1 -1 -1 -1 -1 -1 -1 -1 -1 -1 -1 -1 -1 0 5 21 56 97 92 49 17 4 0 -1 -1 -1 -1 -1 -1 -1 -1 -1 -1 -1 -1 0 4 15 42 83 102 73 34 12 2 0 -1 -1 -1 -1 -1 -1 -1 0 4 18 49 91 98 59 24 7 0 0 -1 -1 0 1 7 22 53 97 125 
99 49 17 4 0 -1 -1 -1 -1 -1 0 1 7 25 61 99 89 46 16 4 0 -1 -1 0 0 6 19 48 86 102 77 41 16 4 0 0 -1 -1 -1 -1 -1 -1 -1 -1 -1 -1 -1 -1 -1 -1 0 5 19 52 94 94 52 19 5 0 -1 -1 -1 -1 -1 -1 -1 -1 -1 -1 -1 0 1 7 23 57 95 95 57 23 7 1 0 -1 -1 -1 -1 -1 -1 0 0 7 24 59 98 91 49 18 4 0 -1 -1 0 0 5 16 39 77 118 133 
99 49 17 4 0 -1 -1 -1 -1 -1 -1 0 5 20 53 95 95 53 20 5 0 0 -1 0 2 11 33 69 100 91 54 23 8 1 0 -1 -1 -1 -1 -1 -1 -1 -1 -1 -1 -1 -1 -1 -1 -1 0 4 17 49 92 97 56 21 6 0 0 -1 -1 -1 -1 -1 -1 -1 -1 -1 -1 0 2 12 34 73 102 83 42 15 4 0 -1 -1 -1 -1 -1 -1 -1 0 1 10 31 70 102 82 40 14 3 0 -1 -1 0 3 11 30 63 102 129 133 
98 50 18 4 0 -1 -1 -1 -1 -1 -1 0 4 16 46 89 99 61 25 7 1 0 0 1 6 21 50 89 101 71 34 13 3 0 -1 -1 -1 -1 -1 -1 -1 -1 -1 -1 -1 -1 -1 -1 -1 -1 0 3 16 45 88 100 62 25 7 1 0 -1 -1 -1 -1 -1 -1 -1 -1 -1 0 0 5 19 49 89 100 67 29 9 2 0 -1 -1 -1 -1 -1 -1 -1 0 3 14 40 82 102 70 31 10 1 0 -1 0 1 8 23 51 89 114 122 124 
96 51 18 4 0 -1 -1 -1 -1 -1 -1 0 3 13 39 81 102 71 31 10 2 0 0 3 13 34 71 101 89 50 21 6 1 0 -1 -1 -1 -1 -1 -1 -1 -1 -1 -1 -1 -1 -1 -1 -1 -1 0 3 13 39 81 103 72 33 11 3 0 0 0 0 -1 -1 -1 -1 -1 -1 0 2 9 30 67 100 89 49 19 5 0 0 -1 -1 -1 -1 -1 -1 -1 0 4 18 49 91 98 59 24 7 1 0 0 0 5 16 40 77 105 106 103 114 
95 51 18 4 0 -1 -1 -1 -1 -1 -1 0 1 10 31 71 102 81 39 13 3 0 1 8 23 54 91 100 69 33 11 2 0 -1 -1 -1 -1 -1 -1 -1 -1 -1 -1 -1 -1 -1 -1 -1 -1 -1 0 2 11 33 73 105 85 44 19 8 5 3 1 1 0 0 0 0 0 0 0 4 16 42 83 102 73 34 12 2 0 -1 -1 -1 -1 -1 -1 -1 0 0 7 24 59 98 91 49 18 4 0 0 0 3 11 31 64 98 102 85 84 105 
95 51 19 4 0 -1 -1 -1 -1 -1 -1 0 1 7 25 61 99 89 46 16 4 2 5 16 41 77 102 86 48 19 6 0 0 -1 -1 -1 -1 -1 -1 -1 -1 -1 -1 -1 -1 -1 -1 -1 -1 0 0 2 11 31 69 108 101 63 35 23 17 13 10 7 5 5 4 3 3 2 3 9 25 58 96 95 57 23 7 1 0 -1 -1 -1 -1 -1 -1 -1 0 1 10 31 70 102 82 40 14 3 0 0 1 8 23 52 88 103 83 61 70 100 
95 52 19 4 0 -1 -1 -1 -1 -1 -1 -1 0 5 20 53 95 95 53 20 6 4 11 30 63 97 97 63 29 10 2 0 -1 -1 -1 -1 -1 -1 -1 -1 -1 -1 -1 -1 -1 -1 -1 -1 0 0 2 6 17 38 77 118 121 92 67 54 46 39 31 25 21 19 17 16 13 11 11 18 39 76 103 83 42 15 4 0 -1 -1 -1 -1 -1 -1 -1 -1 0 3 14 40 82 102 70 31 10 2 0 0 5 16 41 77 102 90 58 44 61 97 
94 52 19 4 0 -1 -1 -1 -1 -1 -1 -1 0 4 16 46 89 99 61 25 9 8 20 48 86 102 77 41 16 4 0 0 -1 -1 -1 -1 -1 -1 -1 -1 -1 -1 -1 -1 -1 -1 -1 0 0 3 8 17 34 61 97 130 136 120 104 95 89 81 71 62 56 52 49 45 39 33 31 39 64 97 103 67 30 10 2 0 -1 -1 -1 -1 -1 -1 -1 -1 0 4 18 49 91 98 59 24 7 1 0 3 11 31 64 97 97 66 37 32 56 96 
94 52 19 4 0 -1 -1 -1 -1 -1 -1 -1 0 3 13 39 81 102 71 32 14 15 34 69 100 91 54 23 8 1 0 -1 -1 -1 -1 -1 -1 -1 -1 -1 -1 -1 -1 -1 -1 0 0 1 5 11 23 41 66 93 113 119 113 104 99 98 100 102 102 99 97 94 92 88 81 73 70 77 99 116 96 52 21 6 0 0 -1 -1 -1 -1 -1 -1 -1 0 0 7 24 59 98 91 49 18 5 1 2 8 23 52 88 102 77 42 23 25 54 95 
94 52 19 4 0 -1 -1 -1 -1 -1 -1 -1 0 1 10 31 71 102 82 41 21 25 51 89 101 71 34 13 3 0 -1 -1 -1 -1 -1 -1 -1 -1 -1 -1 -1 -1 -1 -1 0 0 3 8 16 31 52 77 98 104 94 78 63 56 54 56 62 71 80 88 92 94 97 100 103 104 107 116 131 128 89 43 16 4 0 0 -1 -1 -1 -1 -1 -1 -1 0 2 10 31 71 102 82 40 14 3 2 5 16 41 77 102 88 52 25 14 22 53 95 
94 52 19 4 0 -1 -1 -1 -1 -1 -1 -1 0 1 7 25 61 99 90 51 31 40 73 101 89 50 21 6 1 0 -1 -1 -1 -1 -1 -1 -1 -1 -1 -1 -1 -1 -1 0 1 4 11 23 41 64 88 102 97 78 55 37 26 21 20 21 25 31 38 45 49 52 56 62 71 83 95 111 129 128 90 45 18 5 1 0 0 -1 -1 -1 -1 -1 0 0 3 14 40 82 102 71 31 10 3 4 12 31 64 97 97 64 31 13 9 20 52 94 
94 52 19 4 0 -1 -1 -1 -1 -1 -1 -1 -1 0 5 20 53 95 97 63 46 61 93 100 69 33 11 2 0 -1 -1 -1 -1 -1 -1 -1 -1 -1 -1 -1 -1 0 0 2 6 15 30 52 77 97 102 88 65 41 24 13 8 6 5 6 7 10 13 15 17 19 21 25 32 40 52 69 95 115 100 60 28 11 4 1 0 0 0 0 0 0 0 2 6 20 50 92 98 60 24 8 4 8 23 52 88 102 77 41 17 7 7 19 52 94 
94 52 19 4 0 -1 -1 -1 -1 -1 -1 -1 -1 0 4 16 46 89 104 79 68 86 104 86 48 19 6 0 0 -1 -1 -1 -1 -1 -1 -1 -1 -1 -1 -1 0 0 3 9 19 38 63 88 102 97 77 52 31 17 8 3 1 0 0 0 1 1 2 3 4 5 5 7 10 14 21 34 59 93 107 84 50 26 14 8 6 5 5 4 4 5 5 7 13 29 64 101 93 51 20 7 7 17 41 77 102 88 52 23 8 3 5 19 52 94 
94 52 19 4 0 -1 -1 -1 -1 -1 -1 -1 -1 0 2 13 38 81 110 101 96 106 98 63 29 10 2 0 -1 -1 -1 -1 -1 -1 -1 -1 -1 -1 0 0 1 5 12 24 44 71 95 102 89 65 41 23 11 5 1 0 0 0 -1 -1 0 0 0 0 0 0 0 1 2 3 7 15 34 67 102 109 84 56 37 27 22 20 19 19 19 19 20 22 29 49 84 111 90 46 19 10 14 32 65 97 97 64 31 11 3 1 5 19 52 94 
94 52 19 4 0 -1 -1 -1 -1 -1 -1 -1 -1 0 1 9 30 70 111 122 119 109 77 40 16 4 0 0 -1 -1 -1 -1 -1 -1 -1 -1 -1 0 0 3 8 16 31 53 79 99 99 79 53 31 16 8 3 0 0 -1 -1 -1 -1 -1 -1 -1 -1 -1 -1 -1 -1 0 0 0 1 6 18 45 86 121 121 99 78 64 57 53 52 52 52 52 53 55 64 83 112 124 93 50 25 18 28 54 89 102 77 41 16 5 1 0 5 19 52 94 
94 52 19 4 0 -1 -1 -1 -1 -1 -1 -1 -1 0 0 7 24 60 109 134 126 93 53 23 8 1 0 -1 -1 -1 -1 -1 -1 -1 -1 0 0 1 5 11 23 41 65 89 102 95 71 44 24 12 5 1 0 0 -1 -1 -1 -1 -1 -1 -1 -1 -1 -1 -1 -1 -1 -1 -1 0 0 2 11 32 72 119 137 125 111 102 98 95 95 94 94 95 95 97 103 116 133 135 107 70 46 39 52 82 104 89 52 23 8 1 0 0 4 19 52 94 
94 52 19 4 0 -1 -1 -1 -1 -1 -1 -1 -1 -1 0 5 20 53 104 134 114 70 33 12 3 0 -1 -1 -1 -1 -1 -1 -1 -1 0 0 2 7 16 31 52 77 97 102 88 63 38 19 9 3 0 0 -1 -1 -1 -1 -1 -1 -1 -1 -1 -1 -1 -1 -1 -1 -1 -1 -1 -1 0 1 9 28 68 113 123 106 94 92 93 94 94 94 94 94 95 95 97 103 112 120 116 100 82 77 89 108 102 67 32 12 3 0 0 0 4 19 52 94 
94 52 19 4 0 -1 -1 -1 -1 -1 -1 -1 -1 -1 0 4 18 51 100 125 94 49 20 6 0 0 -1 -1 -1 -1 -1 0 0 0 1 5 11 21 39 64 88 103 98 78 52 31 16 7 2 0 0 -1 -1 -1 -1 -1 -1 -1 -1 -1 -1 -1 -1 -1 -1 -1 -1 -1 -1 -1 0 2 10 32 73 109 99 69 53 49 50 51 51 52 52 52 52 52 53 55 63 76 93 105 110 116 125 123 90 48 19 6 1 0 0 0 4 19 52 94 
94 52 19 4 0 -1 -1 -1 -1 -1 -1 -1 -1 -1 0 4 18 50 98 113 75 34 12 3 0 -1 -1 -1 -1 0 0 0 2 4 8 16 29 50 76 100 108 95 70 45 26 14 6 2 0 0 0 -1 -1 -1 -1 -1 -1 -1 -1 -1 -1 -1 -1 -1 -1 -1 -1 -1 -1 -1 0 2 13 39 81 105 78 42 24 19 18 18 19 19 19 19 19 19 19 21 25 35 51 71 94 117 135 126 83 40 15 4 0 0 0 0 4 19 52 94 
94 52 19 4 0 -1 -1 -1 -1 -1 -1 -1 -1 -1 0 5 19 52 97 103 61 25 7 1 0 -1 -1 0 0 0 2 5 10 16 26 41 63 91 115 120 102 74 50 32 19 11 7 4 2 1 0 0 0 0 0 -1 -1 -1 -1 -1 -1 -1 -1 -1 -1 -1 -1 -1 -1 -1 0 3 16 45 88 100 64 28 12 6 5 4 4 4 4 4 4 4 5 5 8 12 21 34 54 82 112 121 90 48 19 6 1 0 0 0 4 19 52 94 
94 52 19 4 0 -1 -1 -1 -1 -1 -1 -1 -1 -1 0 5 21 56 98 96 53 20 5 0 0 0 0 1 3 6 11 19 30 43 60 81 104 126 136 126 102 78 60 46 34 25 19 14 10 7 5 4 3 1 0 0 0 0 0 -1 -1 -1 -1 -1 -1 -1 -1 -1 -1 -1 0 4 18 50 93 96 56 22 7 1 0 0 0 0 0 0 0 0 0 0 1 3 6 13 24 45 77 106 102 67 32 12 3 0 0 0 4 19 52 94 
94 52 19 4 0 -1 -1 -1 -1 -1 -1 -1 -1 0 1 7 25 62 100 89 46 17 4 1 0 2 4 7 12 20 33 49 66 84 98 108 114 118 121 120 112 103 93 83 71 60 49 40 31 25 20 16 13 9 7 4 3 1 1 0 0 0 0 0 -1 -1 -1 -1 -1 0 0 5 21 55 96 93 50 18 5 0 0 -1 -1 -1 -1 -1 -1 -1 -1 0 0 0 1 3 9 21 45 80 104 89 52 23 8 1 0 0 4 19 52 94 
94 52 19 4 0 -1 -1 -1 -1 -1 -1 -1 -1 0 1 10 31 71 102 81 39 14 5 3 5 9 15 23 35 51 70 88 100 102 97 87 76 71 75 83 90 95 100 102 102 98 91 82 71 61 53 46 39 31 24 18 14 10 7 5 4 3 1 0 0 0 0 0 0 0 1 7 25 62 99 88 45 16 4 0 -1 -1 -1 -1 -1 -1 -1 -1 -1 -1 -1 -1 0 0 2 9 24 53 89 102 77 41 17 5 1 0 5 19 52 94 
94 52 19 4 0 -1 -1 -1 -1 -1 -1 -1 -1 0 3 13 39 81 102 72 34 14 9 12 19 29 42 57 74 90 101 101 90 74 57 44 34 30 32 38 46 53 61 71 82 91 98 102 102 99 95 89 81 70 59 49 40 31 25 20 16 13 9 7 4 3 2 1 0 0 3 10 32 71 102 81 38 13 2 0 -1 -1 -1 -1 -1 -1 -1 -1 -1 -1 -1 -1 -1 0 0 3 12 31 65 97 97 65 31 12 3 1 5 19 52 94 
94 52 19 4 0 -1 -1 -1 -1 -1 -1 -1 -1 0 4 16 46 89 101 66 33 20 23 33 49 66 83 95 102 100 88 70 51 35 24 16 11 9 10 13 16 20 25 31 40 49 59 70 81 89 95 99 102 102 98 91 82 71 61 53 46 39 31 24 18 14 10 7 5 5 7 16 41 82 102 71 31 10 1 0 -1 -1 -1 -1 -1 -1 -1 -1 -1 -1 -1 -1 -1 -1 0 0 5 16 41 77 102 89 53 24 9 4 6 19 52 94 
94 52 19 4 0 -1 -1 -1 -1 -1 -1 -1 -1 0 5 20 53 96 102 68 43 40 52 70 88 100 102 95 83 66 48 33 20 12 7 4 2 1 2 3 4 5 7 10 14 18 24 31 39 46 53 61 71 82 91 98 102 102 99 95 89 81 70 59 49 40 31 25 20 18 18 27 53 93 101 62 25 7 1 0 -1 -1 -1 -1 -1 -1 -1 -1 -1 -1 -1 -1 -1 -1 -1 0 1 8 23 52 88 102 79 44 20 8 7 20 52 94 
94 52 19 4 0 -1 -1 -1 -1 -1 -1 -1 0 1 7 25 62 105 110 84 70 76 90 101 101 90 74 57 42 29 19 11 6 3 1 0 0 0 0 0 0 0 1 1 3 4 7 9 13 16 20 25 31 40 49 59 70 81 89 95 99 102 102 98 91 82 71 61 54 48 45 50 73 105 99 55 21 5 0 -1 -1 -1 -1 -1 -1 -1 -1 -1 -1 -1 -1 -1 -1 -1 -1 -1 0 3 11 30 63 95 99 71 38 17 11 21 52 94 
94 52 19 4 0 -1 -1 -1 -1 -1 -1 -1 0 3 12 34 76 119 126 110 103 104 101 89 70 51 35 23 15 9 5 2 0 0 0 -1 -1 -1 -1 -1 -1 -1 0 0 0 0 0 1 3 4 5 7 10 14 18 24 31 39 46 53 61 71 82 91 98 102 102 99 95 90 86 88 103 121 100 52 19 5 0 -1 -1 -1 -1 -1 -1 -1 -1 -1 -1 -1 -1 -1 -1 -1 -1 -1 0 0 4 15 38 71 99 95 63 32 18 24 53 95 
94 52 19 4 0 -1 -1 -1 -1 -1 -1 0 1 6 20 50 95 131 134 119 104 88 69 50 33 20 12 7 4 2 0 0 0 -1 -1 -1 -1 -1 -1 -1 -1 -1 -1 -1 -1 -1 0 0 0 0 0 1 1 3 4 7 9 13 16 20 25 31 40 49 59 70 81 89 95 100 106 115 129 134 101 50 18 4 0 -1 -1 -1 -1 -1 -1 -1 -1 -1 -1 -1 -1 -1 -1 -1 -1 -1 -1 0 1 6 19 44 79 102 88 54 31 29 55 95 
95 52 19 4 0 -1 -1 -1 -1 -1 -1 0 3 12 33 71 110 123 108 86 66 48 32 20 11 6 3 1 0 0 0 -1 -1 -1 -1 -1 -1 -1 -1 -1 -1 -1 -1 -1 -1 -1 -1 -1 -1 -1 -1 0 0 0 0 0 1 3 4 5 7 10 14 18 24 31 39 46 53 62 75 94 119 132 100 50 17 4 0 -1 -1 -1 -1 -1 -1 -1 -1 -1 -1 -1 -1 -1 -1 -1 -1 -1 -1 -1 0 2 9 24 53 88 102 81 51 40 60 97 
95 51 19 4 0 -1 -1 -1 -1 -1 0 1 8 23 53 92 109 92 64 44 29 19 11 6 2 0 0 0 -1 -1 -1 -1 -1 -1 -1 -1 -1 -1 -1 -1 -1 -1 -1 -1 -1 -1 -1 -1 -1 -1 -1 -1 -1 -1 -1 0 0 0 0 0 1 1 3 4 7 9 13 16 20 26 37 56 88 116 98 50 18 4 0 -1 -1 -1 -1 -1 -1 -1 -1 -1 -1 -1 -1 -1 -1 -1 -1 -1 -1 -1 -1 0 3 12 31 63 95 101 78 58 69 100 
95 51 18 4 0 -1 -1 -1 -1 0 0 5 17 41 77 103 92 58 32 18 10 5 2 0 0 0 -1 -1 -1 -1 -1 -1 -1 -1 -1 -1 -1 -1 -1 -1 -1 -1 -1 -1 -1 -1 -1 -1 -1 -1 -1 -1 -1 -1 -1 -1 -1 -1 -1 -1 0 0 0 0 0 1 3 4 5 9 16 33 66 104 96 51 19 4 0 -1 -1 -1 -1 -1 -1 -1 -1 -1 -1 -1 -1 -1 -1 -1 -1 -1 -1 -1 -1 0 0 5 15 38 71 100 100 83 84 105 
96 51 18 4 0 -1 -1 -1 0 0 3 12 31 65 97 98 66 33 14 6 2 0 0 0 -1 -1 -1 -1 -1 -1 -1 -1 -1 -1 -1 -1 -1 -1 -1 -1 -1 -1 -1 -1 -1 -1 -1 -1 -1 -1 -1 -1 -1 -1 -1 -1 -1 -1 -1 -1 -1 -1 -1 -1 0 0 0 0 0 2 8 23 56 98 96 53 20 5 0 0 -1 -1 -1 -1 -1 -1 -1 -1 -1 -1 -1 -1 -1 -1 -1 -1 -1 -1 -1 -1 0 1 6 19 44 79 105 105 103 114 
98 50 18 4 0 -1 -1 -1 0 2 9 24 53 89 103 78 42 18 6 2 0 0 0 0 -1 -1 -1 -1 -1 -1 -1 -1 -1 -1 -1 -1 -1 -1 -1 -1 -1 -1 -1 -1 -1 -1 -1 -1 -1 -1 -1 -1 -1 -1 -1 -1 -1 -1 -1 -1 -1 -1 -1 -1 -1 -1 -1 0 0 1 6 21 53 96 99 58 23 7 1 0 -1 -1 -1 -1 -1 -1 -1 -1 -1 -1 -1 -1 -1 -1 -1 -1 -1 -1 -1 -1 -1 0 2 9 24 53 90 114 122 124 
99 49 17 4 0 0 0 0 2 7 20 44 80 105 93 57 27 11 4 1 0 0 0 0 0 0 0 0 0 0 0 -1 -1 -1 -1 -1 -1 -1 -1 -1 -1 -1 -1 -1 -1 -1 -1 -1 -1 -1 -1 -1 -1 -1 -1 -1 -1 -1 -1 -1 -1 -1 -1 -1 -1 -1 -1 0 0 2 7 23 55 99 107 69 32 13 4 1 0 0 -1 -1 -1 -1 -1 -1 -1 -1 -1 -1 -1 -1 -1 -1 -1 -1 -1 -1 -1 -1 0 3 12 31 64 102 129 133 
99 49 17 4 0 0 0 2 7 19 40 74 107 111 82 48 26 14 9 6 5 5 4 4 4 4 4 3 2 1 1 0 0 0 0 0 0 0 0 0 0 0 -1 -1 -1 -1 -1 -1 -1 -1 -1 -1 -1 -1 -1 -1 -1 -1 -1 -1 -1 -1 -1 -1 -1 -1 0 0 1 6 14 32 66 109 122 91 52 27 13 6 2 0 0 -1 -1 -1 -1 -1 -1 -1 -1 -1 -1 -1 -1 -1 -1 -1 -1 -1 -1 -1 0 0 5 16 39 77 118 133 
98 49 17 4 0 0 2 7 19 40 72 108 128 116 88 63 45 33 26 22 20 19 19 19 18 18 17 15 13 10 7 6 5 5 4 4 4 4 3 2 1 1 0 0 0 0 0 0 0 0 0 0 0 0 -1 -1 -1 -1 -1 -1 -1 -1 -1 -1 0 0 1 3 8 17 32 56 89 124 137 117 85 56 34 20 10 4 1 0 0 -1 -1 -1 -1 -1 -1 -1 -1 -1 -1 -1 -1 -1 -1 -1 -1 -1 -1 0 1 7 22 53 97 125 
97 49 18 5 1 2 8 19 41 72 106 130 135 124 109 95 83 72 62 56 53 52 52 52 51 50 48 44 38 31 25 21 20 19 19 18 18 17 15 13 10 7 6 5 5 4 4 4 4 4 3 2 1 1 0 0 0 0 0 0 0 0 0 0 0 2 6 12 24 41 65 90 110 120 123 119 110 92 70 48 30 16 8 3 1 0 0 -1 -1 -1 -1 -1 -1 -1 -1 -1 -1 -1 -1 -1 -1 -1 -1 -1 0 3 13 36 76 113 
96 51 19 6 4 8 20 42 72 102 115 114 107 102 100 101 103 102 100 97 95 95 94 94 94 93 92 88 80 71 62 56 53 52 52 51 50 48 44 38 31 25 21 20 19 19 19 18 18 17 15 13 10 7 6 5 5 4 4 4 4 4 3 3 6 11 20 34 54 77 97 104 95 82 76 81 93 103 101 86 63 41 23 12 6 2 0 0 -1 -1 -1 -1 -1 -1 -1 -1 -1 -1 -1 -1 -1 -1 -1 -1 0 1 8 26 63 104 
95 52 21 9 11 22 43 73 99 103 87 68 57 54 56 62 71 80 88 92 93 94 94 94 95 95 97 100 102 102 100 97 95 95 94 94 93 92 88 80 71 62 56 53 52 52 52 51 50 48 44 38 31 25 21 20 19 19 18 18 17 16 14 15 19 31 49 70 91 102 97 78 56 40 34 39 52 72 91 102 97 77 54 34 20 10 4 1 0 0 -1 -1 -1 -1 -1 -1 -1 -1 -1 -1 -1 -1 -1 -1 0 0 6 21 56 98 
95 54 25 18 26 46 75 99 99 76 49 31 22 20 21 25 31 38 44 48 50 51 52 52 52 53 56 62 71 80 88 92 93 94 94 95 95 97 100 102 102 100 97 95 95 94 94 94 93 92 88 80 71 62 56 53 52 52 51 50 49 45 42 41 49 67 87 101 101 86 63 41 24 15 11 14 21 35 54 77 97 102 91 70 48 30 16 8 3 1 0 0 -1 -1 -1 -1 -1 -1 -1 -1 -1 -1 -1 -1 -1 0 5 20 53 96 
97 60 36 37 55 80 100 98 73 43 22 11 7 5 6 7 10 13 15 17 18 18 19 19 19 20 21 25 31 38 44 48 50 51 52 52 53 56 62 71 80 88 92 93 94 94 94 95 95 97 100 102 102 100 97 95 95 94 94 93 92 90 87 87 94 104 105 92 71 48 30 16 8 4 2 3 6 13 23 41 63 86 100 100 86 63 41 23 12 6 2 0 0 -1 -1 -1 -1 -1 -1 -1 -1 -1 -1 -1 -1 0 5 19 52 95 
102 72 58 69 90 102 95 69 41 20 8 3 1 0 0 1 1 2 3 4 4 4 4 4 5 5 6 7 10 13 15 17 18 18 19 19 20 21 25 31 38 44 48 50 51 52 52 52 53 56 62 71 80 88 92 93 94 94 95 96 99 106 118 128 129 112 84 56 35 20 10 5 1 0 0 0 1 3 8 16 30 48 70 91 102 97 77 54 34 20 10 4 1 0 0 -1 -1 -1 -1 -1 -1 -1 -1 -1 -1 0 4 19 51 95 
111 94 90 100 103 88 62 37 18 7 2 0 0 0 -1 0 0 0 0 0 0 0 0 0 0 0 0 1 1 2 3 4 4 4 4 5 5 6 7 10 13 15 17 18 18 19 19 19 20 21 25 31 38 44 48 50 51 52 52 54 61 76 103 131 128 91 52 27 14 6 2 0 0 -1 -1 -1 0 0 1 4 10 20 34 54 77 97 102 91 70 48 30 16 8 3 1 0 0 -1 -1 -1 -1 -1 -1 -1 -1 0 4 18 51 96 
124 119 113 103 80 53 31 15 6 1 0 -1 -1 -1 -1 -1 -1 -1 -1 -1 -1 -1 -1 -1 -1 -1 -1 0 0 0 0 0 0 0 0 0 0 0 1 1 2 3 4 4 4 4 4 5 5 6 7 10 13 15 17 18 19 19 19 21 27 43 76 115 112 69 32 13 4 1 0 0 -1 -1 -1 -1 -1 -1 0 0 2 6 12 23 41 63 86 100 100 86 63 41 23 13 6 2 0 0 0 -1 -1 -1 -1 -1 -1 0 4 18 50 98 
134 129 106 75 45 24 12 5 1 0 -1 -1 -1 -1 -1 -1 -1 -1 -1 -1 -1 -1 -1 -1 -1 -1 -1 -1 -1 -1 -1 -1 -1 -1 -1 -1 -1 -1 0 0 0 0 0 0 0 0 0 0 0 0 1 1 2 3 4 4 4 5 5 6 12 27 60 102 101 58 23 7 1 0 -1 -1 -1 -1 -1 -1 -1 -1 -1 0 0 1 3 8 16 30 48 70 91 102 97 77 54 34 21 11 6 2 0 0 -1 -1 -1 -1 -1 0 4 17 49 100 
132 114 76 43 21 9 3 0 0 -1 -1 -1 -1 -1 -1 -1 -1 -1 -1 -1 -1 -1 -1 -1 -1 -1 -1 -1 -1 -1 -1 -1 -1 -1 -1 -1 -1 -1 -1 -1 -1 -1 -1 -1 -1 -1 -1 -1 -1 -1 0 0 0 0 0 0 0 0 0 2 6 21 54 97 96 54 20 5 0 0 -1 -1 -1 -1 -1 -1 -1 -1 -1 -1 -1 0 0 1 4 10 20 34 54 77 97 102 91 71 50 33 19 10 4 1 0 0 -1 -1 0 0 4 17 49 100 
119 88 48 22 8 2 0 0 -1 -1 -1 -1 -1 -1 -1 -1 -1 -1 -1 -1 -1 -1 -1 -1 -1 -1 -1 -1 -1 -1 -1 -1 -1 -1 -1 -1 -1 -1 -1 -1 -1 -1 -1 -1 -1 -1 -1 -1 -1 -1 -1 -1 -1 -1 -1 -1 -1 -1 0 0 5 19 52 95 95 52 19 5 0 -1 -1 -1 -1 -1 -1 -1 -1 -1 -1 -1 -1 -1 -1 0 0 2 6 12 23 41 63 86 100 101 89 69 48 29 16 7 3 1 0 0 0 0 5 18 50 98 
107 68 31 11 3 0 0 -1 -1 -1 -1 -1 -1 -1 -1 -1 -1 -1 -1 -1 -1 -1 -1 -1 -1 -1 -1 -1 -1 -1 -1 -1 -1 -1 -1 -1 -1 -1 -1 -1 -1 -1 -1 -1 -1 -1 -1 -1 -1 -1 -1 -1 -1 -1 -1 -1 -1 -1 -1 0 5 19 52 94 94 52 19 4 0 -1 -1 -1 -1 -1 -1 -1 -1 -1 -1 -1 -1 -1 -1 -1 0 0 1 3 8 16 30 48 69 89 101 101 86 63 40 23 13 7 5 3 2 2 6 19 51 97 
100 58 23 7 1 0 -1 -1 -1 -1 -1 -1 -1 -1 -1 -1 -1 -1 -1 -1 -1 -1 -1 -1 -1 -1 -1 -1 -1 -1 -1 -1 -1 -1 -1 -1 -1 -1 -1 -1 -1 -1 -1 -1 -1 -1 -1 -1 -1 -1 -1 -1 -1 -1 -1 -1 -1 -1 -1 0 4 19 52 94 94 52 19 4 0 -1 -1 -1 -1 -1 -1 -1 -1 -1 -1 -1 -1 -1 -1 -1 -1 -1 0 0 1 5 10 20 33 51 73 93 105 99 77 53 35 24 18 14 10 8 11 23 55 97 
97 54 20 5 0 0 -1 -1 -1 -1 -1 -1 -1 -1 -1 -1 -1 -1 -1 -1 -1 -1 -1 -1 -1 -1 -1 -1 -1 -1 -1 -1 -1 -1 -1 -1 -1 -1 -1 -1 -1 -1 -1 -1 -1 -1 -1 -1 -1 -1 -1 -1 -1 -1 -1 -1 -1 -1 -1 0 4 19 52 94 94 52 19 4 0 -1 -1 -1 -1 -1 -1 -1 -1 -1 -1 -1 -1 -1 -1 -1 -1 -1 -1 0 0 0 3 7 14 24 40 63 91 113 115 97 76 60 49 40 31 26 25 34 63 100 
98 53 20 6 1 0 0 0 0 0 0 -1 -1 -1 -1 -1 -1 -1 -1 -1 -1 -1 -1 -1 -1 -1 -1 -1 -1 -1 -1 -1 -1 -1 -1 -1 -1 -1 -1 -1 -1 -1 -1 -1 -1 -1 -1 -1 -1 -1 -1 -1 -1 -1 -1 -1 -1 -1 -1 0 4 19 52 94 94 52 19 4 0 -1 -1 -1 -1 -1 -1 -1 -1 -1 -1 -1 -1 -1 -1 -1 -1 -1 -1 0 0 0 2 5 10 18 30 50 78 111 133 132 117 103 92 82 71 61 56 60 82 110 
103 56 24 11 6 5 4 3 2 1 1 0 0 0 0 0 0 0 0 -1 -1 -1 -1 -1 -1 -1 -1 -1 -1 -1 -1 -1 -1 -1 -1 -1 -1 -1 -1 -1 -1 -1 -1 -1 -1 -1 -1 -1 -1 -1 -1 -1 -1 -1 -1 -1 -1 -1 -1 0 4 19 52 94 94 52 19 4 0 -1 -1 -1 -1 -1 -1 -1 -1 -1 -1 -1 -1 -1 -1 -1 -1 0 0 0 2 4 7 12 21 32 48 67 91 115 127 122 111 104 102 103 102 99 96 99 112 126 
113 68 38 25 20 19 17 15 13 10 7 6 5 4 4 3 2 1 1 0 0 0 0 0 0 0 0 0 -1 -1 -1 -1 -1 -1 -1 -1 -1 -1 -1 -1 -1 -1 -1 -1 -1 -1 -1 -1 -1 -1 -1 -1 -1 -1 -1 -1 -1 -1 -1 0 4 19 52 94 94 52 19 4 0 -1 -1 -1 -1 -1 -1 -1 -1 -1 -1 -1 -1 -1 0 0 0 1 2 5 9 15 23 35 50 67 84 98 106 105 93 76 64 60 63 72 82 92 101 114 131 140 
128 94 69 57 53 51 49 44 38 31 25 21 19 18 17 15 13 10 7 6 5 4 4 4 3 2 1 1 0 0 0 0 0 0 0 0 -1 -1 -1 -1 -1 -1 -1 -1 -1 -1 -1 -1 -1 -1 -1 -1 -1 -1 -1 -1 -1 -1 -1 0 4 19 52 94 94 52 19 4 0 -1 -1 -1 -1 -1 -1 -1 -1 -1 -1 -1 0 0 0 1 4 7 12 19 29 42 57 73 89 100 102 96 83 66 49 34 26 24 26 32 40 50 63 83 112 138 
141 125 108 99 95 94 92 88 80 71 62 56 53 51 49 44 38 31 25 21 20 19 18 17 15 13 10 7 6 5 4 4 3 2 1 1 0 0 0 0 0 0 0 0 0 -1 -1 -1 -1 -1 -1 -1 -1 -1 -1 -1 -1 -1 -1 0 4 19 52 94 94 52 19 4 0 -1 -1 -1 -1 -1 -1 -1 -1 -1 0 0 0 2 5 9 15 23 34 49 67 83 95 102 100 89 73 57 42 29 19 12 8 7 7 10 14 20 29 48 81 124 
137 125 108 99 96 96 97 100 102 102 100 97 95 94 92 88 80 71 62 56 53 52 51 48 44 38 31 25 21 19 18 17 15 13 10 7 6 5 4 4 4 3 2 1 1 0 0 0 0 0 0 0 0 -1 -1 -1 -1 -1 0 0 5 19 52 94 94 52 19 4 0 -1 -1 -1 -1 -1 -1 0 0 0 1 3 6 11 19 29 42 57 73 89 100 102 95 83 67 49 34 23 15 9 5 2 1 0 1 2 3 6 12 28 62 110 
120 95 70 58 54 54 56 62 71 80 88 92 94 95 97 100 102 102 100 97 95 94 93 92 88 80 71 62 56 53 51 49 44 38 31 25 21 20 19 18 17 15 13 10 7 6 5 4 4 3 2 1 1 0 0 0 0 0 0 1 5 19 52 95 94 52 19 4 0 -1 -1 -1 -1 0 0 0 2 4 7 12 20 33 48 66 83 95 102 100 89 73 57 42 29 19 12 7 4 1 0 0 0 0 0 0 0 1 7 21 54 101 
105 70 39 25 21 20 21 25 31 38 44 49 51 53 56 62 71 80 88 92 93 94 95 97 100 102 102 100 97 95 94 92 88 80 71 62 56 53 52 51 48 44 38 31 25 21 19 18 17 15 13 10 7 6 5 4 4 4 4 4 8 21 54 96 95 52 19 5 0 0 0 0 0 1 2 5 9 15 23 35 51 70 88 100 102 95 83 67 49 34 23 15 9 5 2 1 0 0 0 -1 -1 -1 -1 -1 0 0 5 19 52 97 
98 58 25 11 6 5 6 7 10 13 15 17 18 19 21 25 31 38 44 48 51 52 53 56 62 71 80 88 92 94 95 97 100 102 102 100 97 95 94 93 92 88 80 71 62 56 53 51 49 44 38 31 25 21 20 19 18 17 16 14 16 28 59 99 97 54 20 5 1 0 0 2 4 7 12 19 29 42 57 74 90 101 101 90 74 57 42 29 19 12 7 4 2 0 0 0 -1 -1 -1 -1 -1 -1 -1 -1 -1 0 4 19 51 95 
95 53 20 6 1 0 0 1 1 2 3 4 4 5 6 7 10 13 15 17 18 19 20 21 25 31 38 44 49 51 53 56 62 71 80 88 92 93 94 95 97 100 102 102 100 97 95 94 92 88 80 71 62 56 53 52 51 49 45 40 37 45 72 108 102 58 24 8 3 3 5 9 15 23 34 49 67 83 95 102 100 88 70 51 35 23 15 9 5 2 1 0 0 0 -1 -1 -1 -1 -1 -1 -1 -1 -1 -1 -1 0 4 19 52 94 
95 52 19 5 0 0 0 0 0 0 0 0 0 0 0 1 1 2 3 4 4 4 5 6 7 10 13 15 17 18 19 21 25 31 38 44 48 51 52 53 56 62 71 80 88 92 94 95 97 100 102 102 100 97 95 94 93 92 88 82 76 79 99 124 114 70 33 16 11 13 20 30 42 57 73 89 100 102 95 83 66 48 33 20 12 7 4 2 0 0 0 -1 -1 -1 -1 -1 -1 -1 -1 -1 -1 -1 -1 -1 -1 0 4 19 52 94 
94 52 19 5 0 -1 -1 -1 -1 -1 -1 -1 -1 -1 -1 0 0 0 0 0 0 0 0 0 1 1 2 3 4 4 5 6 7 10 13 15 17 18 19 20 21 25 31 38 44 49 51 53 56 62 71 80 88 92 93 94 95 97 100 103 105 110 122 137 128 92 56 36 31 37 50 67 83 95 102 100 89 73 57 42 29 19 11 6 3 1 0 0 0 -1 -1 -1 -1 -1 -1 -1 -1 -1 -1 -1 -1 -1 -1 -1 -1 0 4 19 52 94 
94 52 19 4 0 -1 -1 -1 -1 -1 -1 -1 -1 -1 -1 -1 -1 -1 -1 -1 -1 -1 -1 -1 0 0 0 0 0 0 0 0 1 1 2 3 4 4 4 5 6 7 10 13 15 17 18 19 21 25 31 38 44 48 51 52 53 56 62 71 81 91 101 115 124 115 93 75 70 78 91 100 102 95 83 67 49 34 23 15 9 5 2 0 0 0 -1 -1 -1 -1 -1 -1 -1 -1 -1 -1 -1 -1 -1 -1 -1 -1 -1 -1 -1 0 4 19 52 94 
94 52 19 5 0 -1 -1 -1 -1 -1 -1 -1 -1 -1 -1 -1 -1 -1 -1 -1 -1 -1 -1 -1 -1 -1 -1 -1 -1 -1 -1 0 0 0 0 0 0 0 0 0 0 1 1 3 3 4 4 5 6 7 10 13 15 17 18 19 20 21 25 31 39 46 54 68 91 115 125 120 113 108 102 90 73 57 42 30 19 12 7 4 2 0 0 0 -1 -1 -1 -1 -1 -1 -1 -1 -1 -1 -1 -1 -1 -1 -1 -1 -1 -1 -1 -1 -1 0 4 19 52 94 
95 52 19 5 0 0 -1 -1 -1 -1 -1 -1 -1 -1 -1 -1 -1 -1 -1 -1 -1 -1 -1 -1 -1 -1 -1 -1 -1 -1 -1 -1 0 0 0 0 0 0 0 0 0 0 0 0 0 0 0 0 0 1 2 3 4 4 5 5 5 6 7 10 13 17 22 33 55 92 129 136 116 92 70 50 35 24 16 10 6 3 1 0 0 0 0 0 -1 -1 -1 -1 -1 -1 -1 -1 -1 -1 -1 -1 -1 -1 -1 -1 -1 -1 -1 -1 0 0 5 19 52 95 
96 53 20 6 1 0 0 0 0 0 0 0 0 0 0 0 0 0 0 0 0 0 0 0 0 0 0 0 0 0 0 0 0 0 0 0 0 0 0 0 0 0 0 0 0 0 0 0 0 0 1 1 1 1 1 1 2 2 2 3 4 6 9 16 35 71 115 123 90 57 35 22 14 9 5 3 2 1 0 0 0 0 0 0 0 0 0 0 0 0 0 0 0 0 0 0 0 0 0 0 0 0 0 0 0 1 6 20 53 96 
99 57 25 11 6 5 4 4 4 4 4 4 4 4 4 4 4 4 4 4 4 4 4 4 4 4 4 4 4 4 4 4 4 4 4 4 4 4 4 4 4 4 4 4 4 4 4 4 4 4 4 4 5 5 5 5 5 5 5 5 6 6 8 14 30 64 107 110 72 39 21 13 9 7 6 5 5 5 5 5 4 4 4 4 4 4 4 4 4 4 4 4 4 4 4 4 4 4 4 4 4 4 4 4 4 6 11 25 57 99 
108 69 39 25 20 19 19 19 19 19 19 19 19 19 19 19 19 19 19 19 19 19 19 19 19 19 19 19 19 18 18 18 17 17 17 18 18 18 19 19 19 19 19 19 19 19 18 18 18 17 17 18 18 19 19 19 19 19 19 19 19 19 21 26 40 72 110 112 74 43 28 22 20 19 19 19 19 19 19 19 19 19 19 19 19 19 19 19 19 18 18 17 17 17 18 18 18 19 19 19 19 18 18 18 18 19 24 38 69 107 
126 95 69 57 53 52 52 52 52 52 52 52 52 52 52 52 52 52 52 52 52 52 52 52 52 52 52 52 51 51 51 50 49 49 49 50 51 51 52 52 52 52 52 52 52 51 51 51 50 49 49 50 51 51 51 52 52 52 52 52 52 52 53 58 70 95 126 126 96 71 58 54 52 52 52 52 52 52 52 52 52 52 52 52 52 52 52 52 51 51 50 49 49 49 50 51 51 51 52 52 51 51 50 50 49 51 56 68 95 126 
149 126 108 99 96 95 94 94 94 94 94 94 94 94 94 94 94 94 94 94 94 94 94 94 94 94 94 94 95 95 96 98 100 100 98 96 95 95 94 94 94 94 94 94 94 94 95 96 98 100 100 98 96 95 94 94 94 94 94 94 94 95 95 98 105 119 133 133 119 105 98 95 95 94 94 94 94 94 94 94 94 94 94 94 94 94 94 94 95 96 97 99 100 99 96 95 95 94 94 94 95 95 97 99 101 100 101 108 127 149 
