P2
110 110
255
153 125 105 98 96 96 95 95 95 95 95 95 95 95 95 95 95 95 95 95 95 95 95 95 95 95 95 96 96 98 105 120 138 142 126 108 100 96 96 95 95 95 95 95 96 96 98 104 119 140 140 119 103 97 96 96 95 95 95 95 95 95 96 96 97 99 103 103 99 97 96 96 95 95 95 95 95 95 95 95 95 95 95 95 95 95 96 96 97 102 115 135 143 128 109 100 97 96 96 96 97 101 112 133 143 129 112 110 126 154 
125 84 57 47 45 44 44 44 44 44 44 44 44 44 44 44 44 44 44 44 44 44 44 44 44 44 44 45 46 53 70 102 130 119 84 59 49 45 44 44 44 44 44 44 44 45 48 59 87 127 124 84 57 47 45 44 44 44 44 44 44 44 44 44 44 44 43 43 44 44 44 44 44 44 44 44 44 44 44 44 44 44 44 44 44 44 44 45 48 59 86 123 126 91 62 49 45 44 44 45 47 55 78 117 129 96 67 63 85 125 
105 57 26 15 12 12 12 12 12 12 12 12 12 12 12 12 12 12 12 12 12 12 12 12 12 12 12 13 17 30 60 101 113 79 41 22 14 12 12 12 12 12 12 12 12 13 17 31 68 115 107 57 26 15 12 12 12 12 12 12 12 12 12 12 11 11 11 11 11 11 12 12 12 12 12 12 12 12 12 12 12 12 12 12 12 12 12 13 19 37 76 114 96 52 25 15 12 12 12 12 15 26 57 104 108 63 33 31 58 105 
98 47 15 4 1 1 0 0 0 0 0 0 0 0 0 0 0 0 0 0 0 0 0 0 0 1 1 4 13 36 77 108 89 46 17 6 2 1 0 0 0 0 0 0 1 3 9 29 74 122 103 47 15 4 1 1 0 0 0 0 0 0 0 0 0 0 0 0 0 0 0 0 0 0 0 0 0 0 0 0 0 0 0 0 0 1 1 4 13 39 85 108 70 28 9 3 1 1 1 2 6 20 56 103 94 45 18 19 48 98 
96 45 12 1 -1 -1 -2 -2 -2 -2 -2 -2 -2 -2 -2 -2 -2 -2 -2 -2 -2 -2 -2 -2 -1 -1 0 6 24 60 100 100 59 23 6 0 -1 -1 -2 -2 -2 -2 -1 -1 0 2 13 43 95 135 103 44 12 1 -1 -1 -2 -2 -2 -2 -2 -2 -2 -2 -2 -2 -2 -2 -2 -2 -2 -2 -2 -2 -2 -2 -2 -2 -2 -2 -2 -2 -2 -2 -1 -1 0 3 16 50 98 97 50 16 3 0 -1 -1 -1 0 5 24 66 106 81 34 12 15 45 96 
96 44 12 1 -1 -2 -2 -2 -2 -2 -2 -2 -2 -2 -2 -2 -2 -2 -2 -2 -2 -2 -2 -2 -2 -1 3 15 45 88 106 73 33 10 1 -1 -2 -2 -2 -2 -2 -2 -2 -2 0 6 24 65 119 143 103 44 12 1 -1 -2 -2 -2 -2 -2 -2 -2 -2 -2 -2 -2 -2 -2 -2 -2 -2 -2 -2 -2 -2 -2 -2 -2 -2 -2 -2 -2 -2 -2 -2 -2 0 6 26 68 106 82 35 9 0 -1 -2 -2 -2 0 8 33 81 106 66 24 8 14 44 96 
95 44 12 0 -2 -2 -2 -2 -2 -2 -2 -2 -2 -2 -2 -2 -2 -2 -2 -2 -2 -2 -2 -2 -1 1 10 33 73 105 88 45 15 3 -1 -2 -2 -2 -2 -2 -2 -2 -2 -1 1 13 42 91 130 138 104 47 13 1 -1 -2 -2 -2 -2 -2 -2 -2 -2 -2 -2 -2 -2 -2 -2 -2 -2 -2 -2 -2 -2 -2 -2 -2 -2 -2 -2 -2 -2 -2 -2 -1 1 12 42 89 104 62 22 4 0 -2 -2 -2 -1 0 11 42 92 100 52 17 6 13 44 95 
95 44 12 0 -2 -2 -2 -2 -2 -2 -2 -2 -2 -2 -2 -2 -2 -2 -2 -2 -2 -2 -2 -2 0 6 23 59 100 100 59 23 6 0 -2 -2 -2 -2 -2 -2 -2 -2 -2 0 6 26 66 110 122 125 107 53 16 2 -1 -2 -2 -2 -2 -2 -2 -2 -2 -2 -2 -2 -2 -2 -2 -2 -2 -2 -2 -2 -2 -2 -2 -2 -2 -2 -2 -2 -2 -2 -2 0 4 22 62 104 89 42 12 1 -1 -2 -2 -2 -1 2 16 52 100 92 42 12 4 12 44 95 
95 44 12 0 -2 -2 -2 -2 -2 -2 -2 -2 -2 -2 -2 -2 -2 -2 -2 -2 -2 -2 -2 -1 3 15 45 88 105 73 33 10 1 -1 -2 -2 -2 -2 -2 -2 -2 -2 -1 3 16 46 91 111 97 104 110 66 23 4 -1 -2 -2 -2 -2 -2 -2 -2 -2 -2 -2 -2 -2 -2 -2 -2 -2 -2 -2 -2 -2 -2 -2 -2 -2 -2 -2 -2 -2 -2 -2 0 9 35 82 106 68 26 6 0 -2 -2 -2 -2 -1 4 23 66 106 81 33 8 3 12 44 95 
95 44 12 0 -2 -2 -2 -2 -2 -2 -2 -2 -2 -2 -2 -2 -2 -2 -2 -2 -2 -2 -1 1 10 33 73 105 88 45 15 3 -1 -2 -2 -2 -2 -2 -2 -2 -2 -1 0 9 33 74 107 93 67 81 109 80 32 7 0 -2 -2 -2 -2 -2 -2 -2 -2 -2 -2 -2 -2 -2 -2 -2 -2 -2 -2 -2 -2 -2 -2 -2 -2 -2 -2 -2 -2 -2 -1 2 16 50 97 97 50 16 2 -1 -2 -2 -2 -2 0 8 33 81 106 66 23 5 2 12 44 95 
96 44 12 0 -2 -2 -2 -2 -2 -2 -2 -2 -2 -2 -2 -2 -2 -2 -2 -2 -2 -2 0 6 23 59 100 100 59 23 6 0 -2 -2 -2 -2 -2 -2 -2 -2 -2 0 5 22 59 100 100 64 42 62 103 89 39 10 0 -2 -2 -2 -2 -2 -2 -2 -2 -2 -2 -2 -2 -2 -2 -2 -2 -2 -2 -2 -2 -2 -2 -2 -2 -2 -2 -2 -2 -2 0 6 26 68 106 82 35 9 0 -2 -2 -2 -2 -1 0 11 42 92 100 52 16 3 2 12 44 95 
96 45 12 1 -1 -2 -2 -2 -2 -2 -2 -2 -2 -2 -2 -2 -2 -2 -2 -2 -2 -1 3 15 45 88 105 73 33 10 1 -1 -2 -2 -2 -2 -2 -2 -2 -2 -1 1 13 41 86 106 74 37 26 51 98 94 42 11 0 -2 -2 -2 -2 -2 -2 -2 -2 -2 -2 -2 -2 -2 -2 -2 -2 -2 -2 -2 -2 -2 -2 -2 -2 -2 -2 -2 -2 -1 1 12 42 89 104 62 22 4 0 -2 -2 -2 -2 -1 2 16 52 100 92 42 11 1 1 12 44 96 
100 48 14 1 -1 -2 -2 -2 -2 -2 -2 -2 -2 -2 -2 -2 -2 -2 -2 -2 -1 1 10 33 73 105 88 45 15 3 -1 -2 -2 -2 -2 -2 -2 -2 -2 -2 0 6 25 65 104 91 47 19 18 46 96 96 44 12 0 -2 -2 -2 -2 -2 -2 -2 -2 -2 -2 -2 -2 -2 -2 -2 -2 -2 -2 -2 -2 -2 -2 -2 -2 -2 -2 -2 -2 0 4 22 62 104 89 42 12 1 -1 -2 -2 -2 -2 -1 4 23 66 106 81 33 8 0 1 12 44 96 
108 59 21 4 0 -2 -2 -2 -2 -2 -2 -2 -2 -2 -2 -2 -2 -2 -2 -2 0 6 23 59 100 100 59 23 6 0 -2 -2 -2 -2 -2 -2 -2 -2 -2 -1 1 13 43 89 104 66 27 10 14 43 94 98 47 13 1 -1 -2 -2 -2 -2 -2 -2 -2 -2 -2 -2 -2 -2 -2 -2 -2 -2 -2 -2 -2 -2 -2 -2 -2 -2 -2 -2 -2 0 9 35 82 106 68 26 6 0 -2 -2 -2 -2 -2 0 8 33 81 106 66 23 4 0 1 11 44 98 
125 83 38 13 2 -1 -2 -2 -2 -2 -2 -2 -2 -2 -2 -2 -2 -2 -2 -1 3 15 45 88 105 73 33 10 1 -1 -2 -2 -2 -2 -2 -2 -2 -2 -2 0 6 26 66 104 89 43 14 5 11 39 89 101 54 17 2 -1 -2 -2 -2 -2 -2 -2 -2 -2 -2 -2 -2 -2 -2 -2 -2 -2 -2 -2 -2 -2 -2 -2 -2 -2 -2 -2 -1 2 16 50 97 97 50 16 2 -1 -2 -2 -2 -2 -2 0 11 42 92 100 52 16 2 0 1 11 43 101 
141 116 71 33 11 2 -1 -2 -2 -2 -2 -2 -2 -2 -2 -2 -2 -2 -1 1 10 33 73 105 88 45 15 3 -1 -2 -2 -2 -2 -2 -2 -2 -2 -2 -1 3 16 46 90 104 65 25 6 2 8 32 80 106 66 23 4 -1 -2 -2 -2 -2 -2 -2 -2 -2 -2 -2 -2 -2 -2 -2 -2 -2 -2 -2 -2 -2 -2 -2 -2 -2 -2 -2 0 6 26 68 106 82 35 9 0 -2 -2 -2 -2 -2 -1 2 16 52 100 92 42 11 1 -1 0 11 43 103 
139 131 106 66 30 9 0 -1 -2 -2 -2 -2 -2 -2 -2 -2 -2 -2 0 6 23 59 100 100 59 23 6 0 -2 -2 -2 -2 -2 -2 -2 -2 -2 -1 0 9 33 74 106 86 41 13 2 0 4 23 66 106 80 32 7 0 -2 -2 -2 -2 -2 -2 -2 -2 -2 -2 -2 -2 -2 -2 -2 -2 -2 -2 -2 -2 -2 -2 -2 -2 -2 -1 1 12 42 89 104 62 22 4 0 -2 -2 -2 -2 -2 -1 4 23 66 106 81 33 8 0 -1 0 11 43 102 
123 112 113 99 58 23 6 0 -2 -2 -2 -2 -2 -2 -2 -2 -2 -1 3 15 45 88 105 73 33 10 1 -1 -2 -2 -2 -2 -2 -2 -2 -2 -2 0 5 22 59 99 99 59 22 5 0 -1 2 17 54 101 89 39 10 0 -2 -2 -2 -2 -2 -2 -2 -2 -2 -2 -2 -2 -2 -2 -2 -2 -2 -2 -2 -2 -2 -2 -2 -2 -2 0 4 22 62 104 89 42 12 1 -1 -2 -2 -2 -2 -2 0 8 33 81 106 66 23 4 0 -1 0 11 44 99 
108 83 89 108 88 46 16 3 0 -2 -2 -2 -2 -2 -2 -2 -1 1 10 33 73 105 88 45 15 3 -1 -2 -2 -2 -2 -2 -2 -2 -2 -2 -1 1 13 41 86 106 74 33 9 0 -1 -1 1 13 47 98 94 42 11 0 -2 -2 -2 -2 -2 -2 -2 -2 -2 -2 -2 -2 -2 -2 -2 -2 -2 -2 -2 -2 -2 -2 -2 -2 -2 0 9 35 82 106 68 26 6 0 -2 -2 -2 -2 -2 -2 0 11 42 92 100 52 16 2 -1 -1 0 12 44 97 
101 63 60 91 106 76 37 13 3 0 -2 -2 -2 -2 -2 -2 0 6 23 59 100 100 59 23 6 0 -2 -2 -2 -2 -2 -2 -2 -2 -2 -2 0 6 25 65 104 90 46 16 3 -1 -2 -1 0 12 44 96 96 44 12 0 -2 -2 -2 -2 -2 -2 -2 -2 -2 -2 -2 -2 -2 -2 -2 -2 -2 -2 -2 -2 -2 -2 -2 -2 -1 2 16 50 97 97 50 16 2 -1 -2 -2 -2 -2 -2 -1 2 16 52 100 92 42 11 0 -1 -1 0 12 44 96 
98 53 38 62 98 103 70 34 13 2 0 -2 -2 -2 -2 -1 3 15 45 88 105 73 33 10 1 -1 -2 -2 -2 -2 -2 -2 -2 -2 -2 -1 1 13 43 89 104 66 26 6 0 -2 -2 -2 0 11 42 94 98 47 13 1 -1 -2 -2 -2 -2 -2 -2 -2 -2 -2 -2 -2 -2 -2 -2 -2 -2 -2 -2 -2 -2 -2 -2 -2 0 6 26 68 106 82 35 9 0 -2 -2 -2 -2 -2 -2 -1 4 23 66 106 81 33 8 0 -2 -1 0 12 44 96 
96 48 24 33 67 101 101 69 34 12 2 0 -2 -2 -1 1 10 33 73 105 88 45 15 3 -1 -2 -2 -2 -2 -2 -2 -2 -2 -2 -2 0 6 26 66 104 89 43 13 1 -1 -2 -2 -2 0 10 39 89 101 54 17 2 -1 -2 -2 -2 -2 -2 -2 -2 -2 -2 -2 -2 -2 -2 -2 -2 -2 -2 -2 -2 -2 -2 -2 -1 1 12 42 89 104 62 22 4 0 -2 -2 -2 -2 -2 -2 0 8 33 81 106 66 23 4 0 -2 -1 0 12 44 95 
96 45 16 15 34 69 101 101 69 34 12 2 0 -1 0 6 23 59 100 100 59 23 6 0 -2 -2 -2 -2 -2 -2 -2 -2 -2 -2 -1 3 16 46 90 104 65 25 6 0 -2 -2 -2 -2 0 7 32 80 106 66 23 4 -1 -2 -2 -2 -2 -2 -2 -2 -2 -2 -2 -2 -2 -2 -2 -2 -2 -2 -2 -2 -2 -2 -2 0 4 22 62 104 89 42 12 1 -1 -2 -2 -2 -2 -2 -2 0 11 42 92 100 52 16 2 -1 -2 -1 0 12 44 95 
96 44 13 6 13 34 69 101 101 69 34 13 3 0 3 15 45 88 105 73 33 10 1 -1 -2 -2 -2 -2 -2 -2 -2 -2 -2 -1 0 9 33 74 106 86 41 13 1 -1 -2 -2 -2 -2 -1 4 23 66 106 80 32 7 0 -2 -2 -2 -2 -2 -2 -2 -2 -2 -2 -2 -2 -2 -2 -2 -2 -2 -2 -2 -2 -2 -2 0 9 35 82 106 68 26 6 0 -2 -2 -2 -2 -2 -2 -1 2 16 52 100 92 42 11 0 -1 -2 -2 0 12 44 95 
95 44 12 2 3 13 34 69 101 101 69 34 13 6 11 33 73 105 88 45 15 3 -1 -2 -2 -2 -2 -2 -2 -2 -2 -2 -2 0 5 22 59 99 99 59 22 5 0 -2 -2 -2 -2 -2 -1 2 17 54 101 89 39 10 0 -2 -2 -2 -2 -2 -2 -2 -2 -2 -2 -2 -2 -2 -2 -2 -2 -2 -2 -2 -2 -2 -1 2 16 50 97 97 50 16 2 -1 -2 -2 -2 -2 -2 -2 -1 4 23 66 106 81 33 8 0 -2 -2 -2 0 12 44 95 
95 44 12 1 0 3 12 34 69 101 101 69 37 21 29 61 100 100 59 23 6 0 -2 -2 -2 -2 -2 -2 -2 -2 -2 -2 -1 1 13 41 86 106 74 33 9 0 -1 -2 -2 -2 -2 -2 -1 1 13 47 97 94 43 11 0 -2 -2 -2 -2 -2 -2 -2 -2 -2 -2 -2 -2 -2 -2 -2 -2 -2 -2 -2 -2 -2 0 6 26 68 106 82 35 9 0 -2 -2 -2 -2 -2 -2 -2 0 8 33 81 106 66 23 4 -1 -2 -2 -2 0 12 44 95 
95 44 12 1 -1 0 2 12 34 69 101 102 74 52 60 92 106 73 33 10 1 -1 -2 -2 -2 -2 -2 -2 -2 -2 -2 -2 0 6 25 65 104 90 46 16 3 -1 -2 -2 -2 -2 -2 -2 -2 0 11 43 94 97 47 13 1 -1 -2 -2 -2 -2 -2 -2 -2 -2 -2 -2 -2 -2 -2 -2 -2 -2 -2 -2 -2 -1 1 12 42 89 104 62 22 4 0 -2 -2 -2 -2 -2 -2 -2 0 11 42 92 100 52 16 2 -1 -2 -2 -2 0 12 44 95 
95 44 12 0 -1 -2 0 2 12 34 69 103 110 99 102 113 89 45 15 3 -1 -2 -2 -2 -2 -2 -2 -2 -2 -2 -2 -1 1 13 43 89 104 66 26 6 0 -2 -2 -2 -2 -2 -2 -2 -2 0 10 39 89 101 54 17 2 -1 -2 -2 -2 -2 -2 -2 -2 -2 -2 -2 -2 -2 -2 -2 -2 -2 -2 -2 -2 0 4 22 62 104 89 42 12 1 -1 -2 -2 -2 -2 -2 -2 -1 2 16 52 100 92 42 11 0 -1 -2 -2 -2 0 12 44 95 
95 44 12 0 -2 -2 -2 0 2 13 34 71 112 135 135 107 60 23 6 0 -2 -2 -2 -2 -2 -2 -2 -2 -2 -2 -2 0 6 26 66 104 89 43 13 1 -1 -2 -2 -2 -2 -2 -2 -2 -2 0 7 32 80 106 66 23 4 -1 -2 -2 -2 -2 -2 -2 -2 -2 -2 -2 -2 -2 -2 -2 -2 -2 -2 -2 -2 0 9 35 82 106 68 26 6 0 -2 -2 -2 -2 -2 -2 -2 -1 4 23 66 106 81 33 8 0 -2 -2 -2 -2 0 12 44 95 
95 44 12 0 -2 -2 -2 -2 0 3 13 38 83 131 132 81 35 10 1 -1 -2 -2 -2 -2 -2 -2 -2 -2 -2 -2 -1 3 16 46 90 104 65 25 6 0 -2 -2 -2 -2 -2 -2 -2 -2 -2 -1 4 23 66 106 80 32 7 0 -2 -2 -2 -2 -2 -2 -2 -2 -2 -2 -2 -2 -2 -2 -2 -2 -2 -2 -1 2 16 50 97 97 50 16 2 -1 -2 -2 -2 -2 -2 -2 -2 0 8 33 81 106 66 23 4 -1 -2 -2 -2 -2 0 12 44 95 
95 44 12 0 -2 -2 -2 -2 -2 0 4 20 57 110 114 62 21 4 0 -2 -2 -2 -2 -2 -2 -2 -2 -2 -2 -1 0 9 33 74 106 86 41 13 1 -1 -2 -2 -2 -2 -2 -2 -2 -2 -2 -1 2 17 54 101 89 39 10 0 -2 -2 -2 -2 -2 -2 -2 -2 -2 -2 -2 -2 -2 -2 -2 -2 -2 -2 0 6 26 68 106 82 35 9 0 -2 -2 -2 -2 -2 -2 -2 -2 0 11 42 92 100 52 16 2 -1 -2 -2 -2 -2 0 12 44 95 
95 44 12 0 -2 -2 -2 -2 -2 -1 1 12 43 95 106 58 19 3 -1 -2 -2 -2 -2 -2 -2 -2 -2 -2 -2 0 5 22 59 99 99 59 22 5 0 -2 -2 -2 -2 -2 -2 -2 -2 -2 -2 -1 1 13 47 98 94 42 11 0 -2 -2 -2 -2 -2 -2 -2 -2 -2 -2 -2 -2 -2 -2 -2 -2 -2 -1 1 12 42 89 104 62 22 4 0 -2 -2 -2 -2 -2 -2 -2 -1 2 16 52 100 92 42 11 0 -1 -2 -2 -2 -2 0 12 44 95 
95 44 12 0 -2 -2 -2 -2 -2 -2 0 8 33 81 107 67 24 4 0 -2 -2 -2 -2 -2 -2 -2 -2 -2 -1 1 13 41 86 106 74 33 9 0 -1 -2 -2 -2 -2 -2 -2 -2 -2 -2 -2 -2 0 12 44 96 96 44 12 0 -2 -2 -2 -2 -2 -2 -2 -2 -2 -2 -2 -2 -2 -2 -2 -2 -2 0 4 22 62 104 89 42 12 1 -1 -2 -2 -2 -2 -2 -2 -2 -1 4 23 66 106 81 33 8 0 -2 -2 -2 -2 -2 0 12 44 95 
95 44 12 0 -2 -2 -2 -2 -2 -2 0 4 23 66 106 80 32 7 0 -2 -2 -2 -2 -2 -2 -2 -2 -2 0 6 25 65 104 90 46 16 3 -1 -2 -2 -2 -2 -2 -2 -2 -2 -2 -2 -2 -2 0 11 42 94 98 47 13 1 -1 -2 -2 -2 -2 -2 -2 -2 -2 -2 -2 -2 -2 -2 -2 -2 -2 0 9 35 82 106 68 26 6 0 -2 -2 -2 -2 -2 -2 -2 -2 0 8 33 81 106 66 23 4 -1 -2 -2 -2 -2 -2 0 12 44 96 
96 44 12 0 -2 -2 -2 -2 -2 -2 -1 2 16 53 101 90 40 10 0 -2 -2 -2 -2 -2 -2 -2 -2 -1 1 13 43 89 104 66 26 6 0 -2 -2 -2 -2 -2 -2 -2 -2 -2 -2 -2 -2 -2 0 10 39 89 101 54 17 2 -1 -2 -2 -2 -2 -2 -2 -2 -2 -2 -2 -2 -2 -2 -2 -2 -1 2 16 50 97 97 50 16 2 -1 -2 -2 -2 -2 -2 -2 -2 -2 0 11 42 92 100 52 16 2 -1 -2 -2 -2 -2 -1 1 12 45 96 
96 44 12 0 -2 -2 -2 -2 -2 -2 -1 1 13 46 96 96 46 13 1 -1 -2 -2 -2 -2 -2 -2 -2 0 6 26 66 104 89 43 13 1 -1 -2 -2 -2 -2 -2 -2 -2 -2 -2 -2 -2 -2 -2 0 7 32 80 106 66 23 4 -1 -2 -2 -2 -2 -2 -2 -2 -2 -2 -2 -2 -2 -2 -2 -2 0 6 26 68 106 82 35 9 0 -2 -2 -2 -2 -2 -2 -2 -2 -1 2 16 52 100 92 42 11 0 -2 -2 -2 -2 -2 -1 1 13 47 99 
97 44 11 0 -2 -2 -2 -2 -2 -2 -2 0 10 40 90 101 53 16 2 -1 -2 -2 -2 -2 -2 -2 -1 3 16 46 90 104 65 25 6 0 -2 -2 -2 -2 -2 -2 -2 -2 -2 -2 -2 -2 -2 -2 -1 4 23 66 106 80 32 7 0 -2 -2 -2 -2 -2 -2 -2 -2 -2 -2 -2 -2 -2 -2 -1 1 12 42 89 104 62 22 4 0 -2 -2 -2 -2 -2 -2 -2 -2 -1 4 23 66 106 81 33 8 0 -2 -2 -2 -2 -2 -1 2 17 55 106 
100 43 11 0 -2 -2 -2 -2 -2 -2 -2 0 7 32 80 106 66 23 4 -1 -2 -2 -2 -2 -2 -1 0 9 33 74 106 86 41 13 1 -1 -2 -2 -2 -2 -2 -2 -2 -2 -2 -2 -2 -2 -2 -2 -1 2 17 54 101 89 39 10 0 -2 -2 -2 -2 -2 -2 -2 -2 -2 -2 -2 -2 -2 -2 0 4 22 62 104 89 42 12 1 -1 -2 -2 -2 -2 -2 -2 -2 -2 0 8 33 81 106 66 23 4 -1 -2 -2 -2 -2 -2 0 6 27 71 120 
102 43 11 0 -2 -2 -2 -2 -2 -2 -2 -1 4 23 66 106 80 32 7 0 -2 -2 -2 -2 -2 0 5 22 59 99 99 59 22 5 0 -2 -2 -2 -2 -2 -2 -2 -2 -2 -2 -2 -2 -2 -2 -2 -1 1 13 47 98 94 42 11 0 -2 -2 -2 -2 -2 -2 -2 -2 -2 -2 -2 -2 -2 -2 0 9 35 82 106 68 26 6 0 -2 -2 -2 -2 -2 -2 -2 -2 -2 0 11 42 92 100 52 16 2 -1 -2 -2 -2 -2 -1 3 15 46 97 135 
102 43 11 0 -2 -2 -2 -2 -2 -2 -2 -1 2 16 53 101 90 40 10 0 -2 -2 -2 -2 -1 1 13 41 86 106 74 33 9 0 -1 -2 -2 -2 -2 -2 -2 -2 -2 -2 -2 -2 -2 -2 -2 -2 -2 0 12 44 96 96 44 12 0 -2 -2 -2 -2 -2 -2 -2 -2 -2 -2 -2 -2 -2 -1 2 16 50 97 97 50 16 2 -1 -2 -2 -2 -2 -2 -2 -2 -2 -1 2 16 52 100 92 42 11 0 -1 -2 -2 -2 -1 1 10 32 74 122 143 
101 43 11 0 -2 -2 -2 -2 -2 -2 -2 -1 1 13 46 96 96 46 13 1 -1 -2 -2 -2 0 6 25 65 104 90 46 16 3 -1 -2 -2 -2 -2 -2 -2 -2 -2 -2 -2 -2 -2 -2 -2 -2 -2 -2 0 11 42 94 98 47 13 1 -1 -2 -2 -2 -2 -2 -2 -2 -2 -2 -2 -2 -2 0 6 26 68 106 82 35 9 0 -2 -2 -2 -2 -2 -2 -2 -2 -2 -1 4 23 66 106 81 33 8 0 -2 -2 -2 -2 0 5 23 59 104 130 136 
99 44 11 0 -2 -2 -2 -2 -2 -2 -2 -2 0 10 40 90 101 53 16 2 -1 -2 -2 -1 1 13 43 89 104 66 26 6 0 -2 -2 -2 -2 -2 -2 -2 -2 -2 -2 -2 -2 -2 -2 -2 -2 -2 -2 0 10 39 89 101 54 17 2 -1 -2 -2 -2 -2 -2 -2 -2 -2 -2 -2 -2 -1 1 12 42 89 104 62 22 4 0 -2 -2 -2 -2 -2 -2 -2 -2 -2 0 8 33 81 106 66 23 4 -1 -2 -2 -2 -1 3 15 45 89 115 114 122 
97 44 12 0 -2 -2 -2 -2 -2 -2 -2 -2 0 7 32 80 106 66 23 4 0 -2 -2 0 6 26 66 104 89 43 13 1 -1 -2 -2 -2 -2 -2 -2 -2 -2 -2 -2 -2 -2 -2 -2 -2 -2 -2 -2 0 7 32 80 106 66 24 5 0 -1 -2 -2 -2 -2 -2 -2 -2 -2 -2 -2 0 4 22 62 104 89 42 12 1 -1 -2 -2 -2 -2 -2 -2 -2 -2 -2 0 11 42 92 100 52 16 2 -1 -2 -2 -1 1 10 33 73 107 101 90 110 
96 44 12 0 -2 -2 -2 -2 -2 -2 -2 -2 -1 4 23 66 106 80 32 7 0 -1 -1 3 16 46 90 104 65 25 6 0 -2 -2 -2 -2 -2 -2 -2 -2 -2 -2 -2 -2 -2 -2 -2 -2 -2 -2 -2 0 5 24 67 107 82 35 11 3 0 0 -1 -1 -1 -2 -2 -2 -2 -2 -1 0 9 35 82 106 68 26 6 0 -2 -2 -2 -2 -2 -2 -2 -2 -2 -1 2 16 52 100 92 42 11 0 -1 -2 -2 0 6 23 59 100 102 73 70 102 
96 44 12 0 -2 -2 -2 -2 -2 -2 -2 -2 -1 2 16 53 101 90 40 10 0 -1 1 9 33 74 106 86 41 13 1 -1 -2 -2 -2 -2 -2 -2 -2 -2 -2 -2 -2 -2 -2 -2 -2 -2 -2 -2 -2 0 4 20 59 108 99 52 24 14 10 7 4 2 1 0 0 0 0 0 0 3 16 50 97 97 50 16 2 -1 -2 -2 -2 -2 -2 -2 -2 -2 -2 -1 4 23 66 106 81 33 8 0 -2 -2 -1 3 15 45 88 106 77 47 57 98 
96 44 12 0 -2 -2 -2 -2 -2 -2 -2 -2 -1 1 13 46 96 96 46 13 1 0 5 22 59 99 99 59 22 5 0 -2 -2 -2 -2 -2 -2 -2 -2 -2 -2 -2 -2 -2 -2 -2 -2 -2 -2 -2 -1 1 8 26 65 117 121 82 56 45 39 32 23 17 13 12 11 10 7 5 4 9 29 70 106 82 35 9 0 -2 -2 -2 -2 -2 -2 -2 -2 -2 -2 0 8 33 81 106 66 23 4 0 -2 -1 1 10 33 73 106 89 48 30 50 97 
95 44 12 0 -2 -2 -2 -2 -2 -2 -2 -2 -2 0 10 40 90 101 53 17 3 2 13 41 86 106 74 33 9 0 -1 -2 -2 -2 -2 -2 -2 -2 -2 -2 -2 -2 -2 -2 -2 -2 -2 -2 -1 0 3 10 25 51 91 134 141 120 103 96 90 80 66 54 47 44 42 39 32 24 20 27 52 94 105 63 22 4 0 -2 -2 -2 -2 -2 -2 -2 -2 -2 -1 0 11 42 92 100 52 16 2 -1 -1 0 6 23 59 100 100 60 27 20 46 96 
95 44 12 0 -2 -2 -2 -2 -2 -2 -2 -2 -2 0 7 32 80 106 66 24 7 7 25 65 104 90 46 16 3 -1 -2 -2 -2 -2 -2 -2 -2 -2 -2 -2 -2 -2 -2 -2 -2 -2 -2 -1 1 6 15 33 60 91 115 123 115 104 99 98 101 106 106 101 98 96 94 89 80 67 59 66 92 117 94 44 13 1 -1 -2 -2 -2 -2 -2 -2 -2 -2 -2 -1 2 16 52 100 92 42 11 1 -1 -1 3 15 45 88 105 73 33 13 15 45 96 
95 44 12 0 -2 -2 -2 -2 -2 -2 -2 -2 -2 -1 4 23 66 106 80 33 12 16 43 89 104 66 26 6 0 -2 -2 -2 -2 -2 -2 -2 -2 -2 -2 -2 -2 -2 -2 -2 -2 -1 0 3 10 23 45 73 100 107 93 72 55 48 46 47 54 66 80 89 94 96 98 101 106 107 107 116 134 132 82 32 8 0 -2 -2 -2 -2 -2 -2 -2 -2 -2 -2 0 4 23 66 106 81 33 8 0 -1 1 10 33 73 105 88 45 16 6 13 44 95 
95 44 12 0 -2 -2 -2 -2 -2 -2 -2 -2 -2 -1 2 16 53 101 90 42 20 29 67 104 89 43 13 1 -1 -2 -2 -2 -2 -2 -2 -2 -2 -2 -2 -2 -2 -2 -2 -2 -1 0 5 15 33 59 88 105 100 74 47 27 17 13 12 13 17 23 32 39 42 44 47 54 66 81 95 112 133 132 83 34 9 0 -1 -2 -2 -2 -2 -2 -2 -2 -2 -2 0 8 33 81 106 66 23 4 0 0 6 23 59 100 100 59 23 6 3 12 44 95 
95 44 12 0 -2 -2 -2 -2 -2 -2 -2 -2 -2 -1 1 13 46 96 97 51 31 50 91 104 65 25 6 0 -2 -2 -2 -2 -2 -2 -2 -2 -2 -2 -2 -2 -2 -2 -2 0 2 9 23 45 73 100 105 88 59 33 16 7 2 1 1 1 2 4 7 10 11 12 13 17 23 33 44 60 90 117 97 50 18 5 0 -1 -1 -1 -2 -2 -2 -2 -1 -1 1 12 43 92 100 52 16 2 0 3 15 45 88 105 73 33 10 1 1 12 44 95 
95 44 12 0 -2 -2 -2 -2 -2 -2 -2 -2 -2 -2 0 10 40 90 104 66 52 78 106 86 41 13 1 -1 -2 -2 -2 -2 -2 -2 -2 -2 -2 -2 -2 -2 -2 -1 0 3 12 30 58 88 105 100 73 45 23 10 3 0 -1 -1 -1 -1 -1 -1 0 0 0 0 1 2 4 8 13 24 50 91 109 78 40 17 7 3 1 1 0 0 0 0 1 2 5 19 55 101 93 43 12 2 1 10 33 73 105 88 45 15 3 0 1 12 44 95 
95 44 12 0 -2 -2 -2 -2 -2 -2 -2 -2 -2 -2 0 7 32 80 111 90 84 105 100 59 22 5 0 -2 -2 -2 -2 -2 -2 -2 -2 -2 -2 -2 -2 -2 -1 1 6 16 36 68 98 106 88 59 33 15 6 1 -1 -2 -2 -2 -2 -2 -2 -2 -2 -2 -2 -2 -1 -1 0 0 2 8 25 61 103 110 79 48 28 18 13 12 12 12 12 12 12 13 19 36 75 112 86 37 10 3 7 23 59 100 100 59 23 6 0 -1 1 12 44 95 
95 44 12 0 -2 -2 -2 -2 -2 -2 -2 -2 -2 -2 -1 4 23 66 113 118 115 111 74 33 9 0 -1 -2 -2 -2 -2 -2 -2 -2 -2 -2 -2 -2 -1 0 3 10 23 46 75 102 102 75 46 23 10 3 0 -1 -2 -2 -2 -2 -2 -2 -2 -2 -2 -2 -2 -2 -2 -2 -2 -2 -1 1 10 35 80 125 126 98 71 55 48 45 44 44 44 44 44 46 53 73 109 125 84 37 14 9 18 46 88 106 73 33 10 1 -1 -1 0 12 44 95 
95 44 12 0 -2 -2 -2 -2 -2 -2 -2 -2 -2 -2 -1 2 16 53 110 137 129 93 46 15 3 -1 -2 -2 -2 -2 -2 -2 -2 -2 -2 -2 -2 -1 1 6 15 33 59 88 106 98 68 36 16 6 1 -1 -2 -2 -2 -2 -2 -2 -2 -2 -2 -2 -2 -2 -2 -2 -2 -2 -2 -2 -2 0 4 21 62 120 144 128 113 103 98 96 96 95 95 95 96 97 102 116 138 139 100 57 32 26 40 76 106 88 45 15 3 -1 -2 -1 0 12 44 95 
95 44 12 0 -2 -2 -2 -2 -2 -2 -2 -2 -2 -2 -1 1 13 46 106 143 119 66 25 6 0 -2 -2 -2 -2 -2 -2 -2 -2 -2 -2 -1 0 2 10 23 45 73 100 105 88 58 30 12 3 0 -1 -2 -2 -2 -2 -2 -2 -2 -2 -2 -2 -2 -2 -2 -2 -2 -2 -2 -2 -2 -2 -1 3 19 58 112 122 99 90 92 94 95 95 95 95 95 96 96 98 103 114 124 117 96 73 64 79 107 103 61 24 6 0 -2 -2 -2 0 12 44 95 
95 44 12 0 -2 -2 -2 -2 -2 -2 -2 -2 -2 -2 -2 0 11 44 103 135 95 42 13 1 -1 -2 -2 -2 -2 -2 -2 -2 -2 -1 -1 0 5 15 32 59 88 106 100 74 45 23 9 2 0 -2 -2 -2 -2 -2 -2 -2 -2 -2 -2 -2 -2 -2 -2 -2 -2 -2 -2 -2 -2 -2 -2 0 4 24 67 110 94 57 42 41 43 44 44 44 44 44 44 44 45 47 55 71 92 107 111 113 125 124 83 37 11 1 -1 -2 -2 -2 0 12 44 95 
95 44 12 0 -2 -2 -2 -2 -2 -2 -2 -2 -2 -2 -2 0 11 44 100 119 70 26 6 0 -2 -2 -2 -2 -2 -2 -2 -1 0 0 3 10 22 44 74 102 109 92 63 35 17 7 1 0 -1 -2 -2 -2 -2 -2 -2 -2 -2 -2 -2 -2 -2 -2 -2 -2 -2 -2 -2 -2 -2 -2 -2 0 7 32 80 107 70 30 15 11 11 11 12 12 12 12 12 12 12 13 17 26 43 66 93 121 143 127 73 28 7 0 -2 -2 -2 -2 0 12 44 95 
95 44 12 0 -2 -2 -2 -2 -2 -2 -2 -2 -2 -2 -2 0 12 45 98 105 54 17 2 -1 -2 -2 -2 -2 -2 -1 0 1 4 10 18 33 59 92 119 119 91 60 37 20 10 4 1 0 0 -1 -1 -2 -2 -2 -2 -2 -2 -2 -2 -2 -2 -2 -2 -2 -2 -2 -2 -2 -2 -2 -2 0 10 39 89 102 55 18 5 1 0 0 0 0 0 0 0 0 1 1 2 6 13 26 47 78 116 124 83 37 11 1 -1 -2 -2 -2 0 12 44 95 
95 44 12 0 -2 -2 -2 -2 -2 -2 -2 -2 -2 -2 -1 1 13 47 98 97 46 13 1 -1 -2 -2 -2 -1 0 1 5 12 22 36 53 77 109 135 141 120 88 64 48 36 25 16 12 8 4 2 1 0 0 -1 -1 -2 -2 -2 -2 -2 -2 -2 -2 -2 -2 -2 -2 -2 -2 -2 -2 0 11 43 94 97 47 13 1 -1 -1 -2 -2 -2 -2 -2 -2 -2 -1 -1 -1 0 1 6 16 37 72 108 103 61 24 6 0 -2 -2 -2 0 12 44 95 
95 44 12 0 -2 -2 -2 -2 -2 -2 -2 -2 -2 -2 -1 2 17 54 102 90 40 10 0 -1 -1 0 0 2 6 13 25 42 62 83 99 112 119 122 125 122 111 101 92 81 66 52 42 33 23 16 13 10 7 4 2 0 0 0 -1 -1 -2 -2 -2 -2 -2 -2 -2 -2 -2 -2 -1 1 13 47 97 94 43 11 0 -1 -2 -2 -2 -2 -2 -2 -2 -2 -2 -2 -2 -2 -1 0 3 14 37 76 107 88 45 15 3 -1 -2 -1 0 12 44 95 
95 44 12 0 -2 -2 -2 -2 -2 -2 -2 -2 -2 -2 -1 4 23 66 106 80 32 8 0 0 1 4 9 16 26 43 65 88 104 106 98 85 70 64 69 82 91 96 101 106 106 100 92 81 66 53 46 40 32 23 16 11 8 4 2 1 0 0 -1 -1 -2 -2 -2 -2 -2 -2 -1 2 17 54 101 89 39 10 0 -2 -2 -2 -2 -2 -2 -2 -2 -2 -2 -2 -2 -2 -2 -2 0 3 16 46 89 106 73 33 10 1 -1 -1 0 12 44 95 
95 44 12 0 -2 -2 -2 -2 -2 -2 -2 -2 -2 -2 0 7 32 80 106 66 24 7 3 6 12 22 35 50 68 90 104 104 90 68 50 36 25 21 24 32 40 46 53 66 81 92 100 106 106 101 96 90 80 65 52 42 33 23 16 13 10 7 4 2 0 0 0 -1 -1 -1 0 5 23 66 106 80 32 7 0 -2 -2 -2 -2 -2 -2 -2 -2 -2 -2 -2 -2 -2 -2 -2 -2 0 6 23 59 100 100 59 23 6 0 -1 1 12 44 95 
95 44 12 0 -2 -2 -2 -2 -2 -2 -2 -2 -2 -2 0 10 40 90 102 56 21 11 14 25 42 62 82 97 106 104 88 65 43 26 16 9 5 4 5 7 10 13 16 23 33 42 52 65 80 90 96 101 106 106 100 92 81 66 53 46 40 32 23 16 11 8 4 2 1 1 2 9 33 80 106 66 23 4 -1 -2 -2 -2 -2 -2 -2 -2 -2 -2 -2 -2 -2 -2 -2 -2 -2 -1 1 10 33 73 105 88 46 16 3 0 1 12 44 95 
95 44 12 0 -2 -2 -2 -2 -2 -2 -2 -2 -2 -1 1 13 46 97 100 55 29 29 44 65 88 104 106 97 82 62 42 25 13 6 2 0 0 -1 0 0 0 1 2 4 8 11 16 23 32 40 46 53 66 81 92 100 106 106 101 96 90 80 65 52 42 33 23 16 13 11 11 17 44 92 102 54 17 2 -1 -2 -2 -2 -2 -2 -2 -2 -2 -2 -2 -2 -2 -2 -2 -2 -2 -2 -1 3 15 45 88 106 75 36 12 2 2 12 44 95 
95 44 12 0 -2 -2 -2 -2 -2 -2 -2 -2 -2 -1 2 17 54 106 106 69 57 69 89 104 104 90 68 50 35 22 12 5 1 0 -1 -2 -2 -2 -2 -2 -2 -1 -1 0 0 0 2 4 7 10 13 16 23 33 42 52 65 80 90 96 101 106 106 100 92 81 66 53 46 40 36 37 60 103 99 47 13 1 -1 -2 -2 -2 -2 -2 -2 -2 -2 -2 -2 -2 -2 -2 -2 -2 -2 -2 -2 0 5 23 58 98 102 68 30 10 4 13 44 95 
95 44 12 0 -2 -2 -2 -2 -2 -2 -2 -2 -2 0 6 26 71 122 123 101 99 106 105 89 65 43 26 16 9 4 1 0 -1 -2 -2 -2 -2 -2 -2 -2 -2 -2 -2 -2 -2 -2 -1 -1 0 0 1 2 4 8 11 16 23 32 40 46 53 66 81 92 100 106 106 101 96 91 83 78 92 121 100 44 12 0 -2 -2 -2 -2 -2 -2 -2 -2 -2 -2 -2 -2 -2 -2 -2 -2 -2 -2 -2 -1 0 9 30 68 102 98 58 24 9 14 45 96 
95 44 12 0 -2 -2 -2 -2 -2 -2 -2 -2 -1 1 13 43 95 139 138 121 107 89 65 43 25 13 6 2 0 0 -1 -2 -2 -2 -2 -2 -2 -2 -2 -2 -2 -2 -2 -2 -2 -2 -2 -2 -2 -2 -1 -1 0 0 0 2 4 7 10 13 16 23 33 42 52 65 80 90 96 101 108 115 129 141 103 44 11 0 -2 -2 -2 -2 -2 -2 -2 -2 -2 -2 -2 -2 -2 -2 -2 -2 -2 -2 -2 -2 -1 2 12 36 75 106 88 46 20 18 46 96 
96 44 12 0 -2 -2 -2 -2 -2 -2 -2 -2 0 6 26 66 115 129 109 85 62 42 25 13 6 1 0 -1 -2 -2 -2 -2 -2 -2 -2 -2 -2 -2 -2 -2 -2 -2 -2 -2 -2 -2 -2 -2 -2 -2 -2 -2 -2 -2 -2 -1 -1 0 0 1 2 4 8 11 16 23 32 40 46 54 68 90 118 138 103 43 11 0 -2 -2 -2 -2 -2 -2 -2 -2 -2 -2 -2 -2 -2 -2 -2 -2 -2 -2 -2 -2 -2 0 3 16 45 88 106 76 40 27 49 97 
96 44 12 0 -2 -2 -2 -2 -2 -2 -2 -1 3 16 46 91 113 88 56 36 22 12 5 1 0 -1 -2 -2 -2 -2 -2 -2 -2 -2 -2 -2 -2 -2 -2 -2 -2 -2 -2 -2 -2 -2 -2 -2 -2 -2 -2 -2 -2 -2 -2 -2 -2 -2 -2 -1 -1 0 0 0 2 4 7 10 13 17 26 45 79 117 99 44 11 0 -2 -2 -2 -2 -2 -2 -2 -2 -2 -2 -2 -2 -2 -2 -2 -2 -2 -2 -2 -2 -2 -2 0 6 23 58 98 103 71 45 56 98 
96 44 12 0 -2 -2 -2 -2 -2 -2 -1 1 10 33 74 107 90 50 23 11 5 1 0 -1 -2 -2 -2 -2 -2 -2 -2 -2 -2 -2 -2 -2 -2 -2 -2 -2 -2 -2 -2 -2 -2 -2 -2 -2 -2 -2 -2 -2 -2 -2 -2 -2 -2 -2 -2 -2 -2 -2 -2 -2 -1 -1 0 0 1 3 8 22 55 103 97 44 12 0 -2 -2 -2 -2 -2 -2 -2 -2 -2 -2 -2 -2 -2 -2 -2 -2 -2 -2 -2 -2 -2 -2 -1 0 9 30 68 102 101 72 69 102 
97 44 12 0 -2 -2 -2 -2 -2 -2 0 6 23 60 100 100 60 24 7 1 0 -1 -2 -2 -2 -2 -2 -2 -2 -2 -2 -2 -2 -2 -2 -2 -2 -2 -2 -2 -2 -2 -2 -2 -2 -2 -2 -2 -2 -2 -2 -2 -2 -2 -2 -2 -2 -2 -2 -2 -2 -2 -2 -2 -2 -2 -2 -2 -1 0 2 14 47 97 97 45 12 1 -1 -2 -2 -2 -2 -2 -2 -2 -2 -2 -2 -2 -2 -2 -2 -2 -2 -2 -2 -2 -2 -2 -2 -1 2 12 36 75 107 100 90 110 
99 44 11 0 -2 -2 -2 -2 -2 0 3 16 46 89 106 74 33 10 1 -1 -2 -2 -2 -2 -2 -2 -2 -2 -2 -2 -2 -2 -2 -2 -2 -2 -2 -2 -2 -2 -2 -2 -2 -2 -2 -2 -2 -2 -2 -2 -2 -2 -2 -2 -2 -2 -2 -2 -2 -2 -2 -2 -2 -2 -2 -2 -2 -2 -2 -1 1 12 44 96 99 49 14 2 -1 -2 -2 -2 -2 -2 -2 -2 -2 -2 -2 -2 -2 -2 -2 -2 -2 -2 -2 -2 -2 -2 -2 -2 0 3 16 45 89 115 114 122 
101 43 11 0 -2 -2 -2 -2 0 2 13 36 76 108 91 48 18 4 0 -1 -1 -1 -2 -2 -2 -2 -2 -2 -2 -2 -2 -2 -2 -2 -2 -2 -2 -2 -2 -2 -2 -2 -2 -2 -2 -2 -2 -2 -2 -2 -2 -2 -2 -2 -2 -2 -2 -2 -2 -2 -2 -2 -2 -2 -2 -2 -2 -2 -2 -1 2 14 46 97 107 59 22 6 0 -1 -2 -2 -2 -2 -2 -2 -2 -2 -2 -2 -2 -2 -2 -2 -2 -2 -2 -2 -2 -2 -2 -2 -2 0 6 23 59 104 130 136 
102 43 11 0 -2 -2 -2 0 2 12 34 70 108 109 72 36 16 7 3 1 1 0 0 0 0 0 0 0 0 -1 -1 -1 -2 -2 -2 -2 -2 -2 -2 -2 -2 -2 -2 -2 -2 -2 -2 -2 -2 -2 -2 -2 -2 -2 -2 -2 -2 -2 -2 -2 -2 -2 -2 -2 -2 -2 -2 -2 -1 1 7 22 55 106 125 84 41 18 7 1 0 -1 -2 -2 -2 -2 -2 -2 -2 -2 -2 -2 -2 -2 -2 -2 -2 -2 -2 -2 -2 -2 -2 -1 1 10 32 74 122 143 
102 43 11 0 -1 -2 0 2 12 33 70 112 130 108 75 51 36 24 17 13 12 12 12 12 12 11 11 10 7 4 2 1 1 0 0 0 0 0 0 0 -1 -1 -1 -2 -2 -2 -2 -2 -2 -2 -2 -2 -2 -2 -2 -2 -2 -2 -2 -2 -2 -2 -2 -2 -2 -2 -1 0 3 10 24 47 82 124 143 119 79 47 26 13 5 0 -1 -2 -2 -2 -2 -2 -2 -2 -2 -2 -2 -2 -2 -2 -2 -2 -2 -2 -2 -2 -2 -2 -1 3 15 46 97 135 
100 43 11 0 -1 0 2 12 34 69 112 140 140 122 105 93 81 66 54 47 45 44 44 44 44 44 42 39 32 23 17 13 12 12 12 12 11 11 10 7 4 2 1 1 0 0 0 0 0 0 0 0 -1 -1 -1 -2 -2 -2 -2 -2 -2 -2 -2 -2 -1 0 1 6 16 33 59 89 111 122 124 122 112 91 66 42 22 9 3 0 -1 -2 -2 -2 -2 -2 -2 -2 -2 -2 -2 -2 -2 -2 -2 -2 -2 -2 -2 -2 -2 0 6 27 71 120 
98 44 12 1 0 3 13 34 69 105 120 116 107 101 99 102 106 106 101 98 96 96 95 95 95 95 93 89 80 66 54 47 45 44 44 44 44 42 39 32 23 17 13 12 12 12 12 12 11 11 10 7 4 2 1 1 0 0 0 0 0 0 0 0 1 5 13 26 46 74 100 106 93 75 66 74 92 105 104 87 59 33 16 6 1 0 -1 -2 -2 -2 -2 -2 -2 -2 -2 -2 -2 -2 -2 -2 -2 -2 -2 -2 -2 -1 2 17 55 106 
96 44 12 3 4 13 34 69 102 105 81 59 48 46 47 54 66 80 89 93 95 95 95 95 96 96 98 101 106 106 101 98 96 96 95 95 95 93 89 80 66 54 47 45 44 44 44 44 44 42 39 32 23 17 13 12 12 12 12 11 11 10 8 7 11 23 42 66 90 106 99 74 47 29 23 28 44 66 90 106 99 74 46 26 13 5 0 -1 -2 -2 -2 -2 -2 -2 -2 -2 -2 -2 -2 -2 -2 -2 -2 -2 -2 -1 1 13 47 99 
96 45 15 9 17 37 70 102 102 71 39 21 14 12 13 17 23 32 39 42 44 44 44 44 44 45 47 54 66 80 89 93 95 95 95 96 96 98 101 106 106 101 98 96 96 95 95 95 95 93 89 80 66 54 47 45 44 44 44 44 42 39 34 31 39 61 87 104 104 87 59 33 16 7 5 7 13 26 46 74 99 106 90 66 42 22 9 3 0 -1 -2 -2 -2 -2 -2 -2 -2 -2 -2 -2 -2 -2 -2 -2 -2 -1 1 12 45 96 
97 49 24 27 46 76 103 101 69 34 14 5 1 1 1 2 4 7 10 11 11 12 12 12 12 12 13 17 23 32 39 42 44 44 44 44 45 47 54 66 80 89 93 95 95 95 95 96 96 98 101 106 106 101 98 96 96 95 95 95 94 91 85 81 89 105 108 91 66 42 22 9 3 0 0 0 2 6 16 33 59 86 104 104 86 59 33 16 6 1 0 -1 -2 -2 -2 -2 -2 -2 -2 -2 -2 -2 -2 -2 -2 -2 0 12 44 96 
100 58 45 62 89 106 98 66 33 12 3 0 -1 -1 -1 -1 -1 0 0 0 0 0 0 0 0 1 1 2 4 7 10 11 11 12 12 12 12 13 17 23 32 39 42 44 44 44 44 44 45 47 54 66 80 89 93 95 95 95 96 96 99 106 119 132 133 113 78 47 26 13 5 0 -1 -2 -2 -2 -1 0 3 9 22 42 66 90 106 99 74 46 26 13 5 0 -1 -2 -2 -2 -2 -2 -2 -2 -2 -2 -2 -2 -2 -2 0 12 44 96 
108 79 80 101 106 88 58 30 11 2 0 -2 -2 -2 -2 -2 -2 -2 -2 -2 -2 -2 -2 -2 -2 -2 -1 -1 -1 0 0 0 0 0 0 0 1 1 2 4 7 10 11 11 12 12 12 12 12 13 17 23 32 39 42 44 44 44 44 45 50 64 95 135 132 85 42 18 7 1 0 -1 -2 -2 -2 -2 -2 -2 -1 0 5 13 26 46 74 99 106 90 66 42 22 9 3 0 -1 -2 -2 -2 -2 -2 -2 -2 -2 -2 -2 -2 0 12 44 97 
123 110 112 104 76 46 23 9 2 -1 -2 -2 -2 -2 -2 -2 -2 -2 -2 -2 -2 -2 -2 -2 -2 -2 -2 -2 -2 -2 -2 -2 -2 -2 -2 -2 -2 -1 -1 -1 0 0 0 0 0 0 0 0 1 1 2 4 7 10 11 11 12 12 12 13 17 30 64 114 113 60 22 6 0 -1 -2 -2 -2 -2 -2 -2 -2 -2 -2 -1 0 1 6 16 33 59 86 104 104 86 59 33 16 6 1 0 -1 -2 -2 -2 -2 -2 -2 -2 -2 -2 0 11 44 99 
139 131 107 70 37 16 6 0 -1 -2 -2 -2 -2 -2 -2 -2 -2 -2 -2 -2 -2 -2 -2 -2 -2 -2 -2 -2 -2 -2 -2 -2 -2 -2 -2 -2 -2 -2 -2 -2 -2 -2 -2 -2 -2 -2 -2 -2 -2 -1 -1 -1 0 0 0 0 0 0 1 1 4 16 50 101 101 49 14 2 -1 -2 -2 -2 -2 -2 -2 -2 -2 -2 -2 -2 -2 -1 0 3 9 22 42 66 90 106 99 74 46 26 13 6 1 0 -1 -2 -2 -2 -2 -2 -2 -2 0 11 43 102 
141 117 71 35 13 3 0 -1 -2 -2 -2 -2 -2 -2 -2 -2 -2 -2 -2 -2 -2 -2 -2 -2 -2 -2 -2 -2 -2 -2 -2 -2 -2 -2 -2 -2 -2 -2 -2 -2 -2 -2 -2 -2 -2 -2 -2 -2 -2 -2 -2 -2 -2 -2 -2 -2 -2 -2 -1 -1 1 13 45 97 97 45 12 1 -1 -2 -2 -2 -2 -2 -2 -2 -2 -2 -2 -2 -2 -2 -2 -1 0 5 13 26 46 74 99 106 90 66 43 25 13 5 0 -1 -2 -2 -2 -2 -2 -2 0 11 43 103 
125 83 38 13 3 0 -2 -2 -2 -2 -2 -2 -2 -2 -2 -2 -2 -2 -2 -2 -2 -2 -2 -2 -2 -2 -2 -2 -2 -2 -2 -2 -2 -2 -2 -2 -2 -2 -2 -2 -2 -2 -2 -2 -2 -2 -2 -2 -2 -2 -2 -2 -2 -2 -2 -2 -2 -2 -2 -1 1 12 44 96 96 44 12 0 -2 -2 -2 -2 -2 -2 -2 -2 -2 -2 -2 -2 -2 -2 -2 -2 -1 0 1 6 16 33 59 86 104 104 89 65 41 22 9 3 0 -1 -1 -2 -2 -1 0 11 43 101 
108 59 21 5 0 -2 -2 -2 -2 -2 -2 -2 -2 -2 -2 -2 -2 -2 -2 -2 -2 -2 -2 -2 -2 -2 -2 -2 -2 -2 -2 -2 -2 -2 -2 -2 -2 -2 -2 -2 -2 -2 -2 -2 -2 -2 -2 -2 -2 -2 -2 -2 -2 -2 -2 -2 -2 -2 -2 -2 0 12 44 95 95 44 12 0 -2 -2 -2 -2 -2 -2 -2 -2 -2 -2 -2 -2 -2 -2 -2 -2 -2 -2 -1 0 3 9 22 41 65 89 104 104 87 59 32 15 6 2 0 0 0 0 1 12 44 98 
100 48 14 2 -1 -2 -2 -2 -2 -2 -2 -2 -2 -2 -2 -2 -2 -2 -2 -2 -2 -2 -2 -2 -2 -2 -2 -2 -2 -2 -2 -2 -2 -2 -2 -2 -2 -2 -2 -2 -2 -2 -2 -2 -2 -2 -2 -2 -2 -2 -2 -2 -2 -2 -2 -2 -2 -2 -2 -2 0 12 44 95 95 44 12 0 -2 -2 -2 -2 -2 -2 -2 -2 -2 -2 -2 -2 -2 -2 -2 -2 -2 -2 -2 -2 -1 0 5 13 25 43 67 91 107 101 74 46 27 17 11 8 4 3 4 14 46 97 
97 45 12 1 -1 -2 -2 -2 -2 -2 -2 -2 -2 -2 -2 -2 -2 -2 -2 -2 -2 -2 -2 -2 -2 -2 -2 -2 -2 -2 -2 -2 -2 -2 -2 -2 -2 -2 -2 -2 -2 -2 -2 -2 -2 -2 -2 -2 -2 -2 -2 -2 -2 -2 -2 -2 -2 -2 -2 -2 0 12 44 95 95 44 12 0 -2 -2 -2 -2 -2 -2 -2 -2 -2 -2 -2 -2 -2 -2 -2 -2 -2 -2 -2 -2 -2 -1 0 2 7 15 29 51 82 111 117 97 71 53 42 33 23 17 15 23 51 99 
98 45 12 1 -1 -1 -2 -2 -2 -2 -2 -2 -2 -2 -2 -2 -2 -2 -2 -2 -2 -2 -2 -2 -2 -2 -2 -2 -2 -2 -2 -2 -2 -2 -2 -2 -2 -2 -2 -2 -2 -2 -2 -2 -2 -2 -2 -2 -2 -2 -2 -2 -2 -2 -2 -2 -2 -2 -2 -2 0 12 44 95 95 44 12 0 -2 -2 -2 -2 -2 -2 -2 -2 -2 -2 -2 -2 -2 -2 -2 -2 -2 -2 -2 -2 -2 -1 -1 0 3 9 18 35 62 101 134 140 123 105 93 81 66 53 46 47 68 107 
103 47 15 4 1 0 0 0 0 -1 -1 -1 -2 -2 -2 -2 -2 -2 -2 -2 -2 -2 -2 -2 -2 -2 -2 -2 -2 -2 -2 -2 -2 -2 -2 -2 -2 -2 -2 -2 -2 -2 -2 -2 -2 -2 -2 -2 -2 -2 -2 -2 -2 -2 -2 -2 -2 -2 -2 -2 0 12 44 95 95 44 12 0 -2 -2 -2 -2 -2 -2 -2 -2 -2 -2 -2 -2 -2 -2 -2 -2 -2 -2 -2 -1 0 0 2 6 13 23 38 56 81 110 130 127 113 104 103 106 106 100 95 93 104 126 
112 57 26 15 12 12 11 10 7 4 2 1 1 0 0 0 0 -1 -1 -1 -2 -2 -2 -2 -2 -2 -2 -2 -2 -2 -2 -2 -2 -2 -2 -2 -2 -2 -2 -2 -2 -2 -2 -2 -2 -2 -2 -2 -2 -2 -2 -2 -2 -2 -2 -2 -2 -2 -2 -2 0 12 44 95 95 44 12 0 -2 -2 -2 -2 -2 -2 -2 -2 -2 -2 -2 -2 -2 -2 -2 -2 -2 -1 0 1 4 9 16 26 42 62 83 98 108 107 92 71 56 51 55 66 81 92 102 114 132 145 
128 84 57 47 45 44 42 39 32 23 17 13 12 12 11 10 7 4 2 1 1 0 0 0 0 0 -1 -1 -1 -2 -2 -2 -2 -2 -2 -2 -2 -2 -2 -2 -2 -2 -2 -2 -2 -2 -2 -2 -2 -2 -2 -2 -2 -2 -2 -2 -2 -2 -2 -2 0 12 44 95 95 44 12 0 -2 -2 -2 -2 -2 -2 -2 -2 -2 -2 -2 -2 -2 -2 -1 0 0 2 6 12 22 35 50 68 89 104 106 97 82 62 42 26 17 15 17 23 33 43 55 75 110 142 
146 124 105 98 96 95 93 89 80 66 54 47 45 44 42 39 32 23 17 13 12 12 11 11 10 7 4 2 1 1 0 0 0 0 -1 -1 -1 -2 -2 -2 -2 -2 -2 -2 -2 -2 -2 -2 -2 -2 -2 -2 -2 -2 -2 -2 -2 -2 -2 -2 0 12 44 95 95 44 12 0 -2 -2 -2 -2 -2 -2 -2 -2 -2 -2 -2 -2 -1 0 1 4 9 16 26 42 62 82 97 106 104 89 68 50 35 22 12 6 2 1 2 4 8 12 19 36 72 125 
142 124 105 98 96 96 98 101 106 106 101 98 96 95 93 89 80 66 54 47 45 44 44 42 39 32 23 17 13 12 12 11 10 7 4 2 1 1 0 0 0 0 0 -1 -1 -1 -2 -2 -2 -2 -2 -2 -2 -2 -2 -2 -2 -2 -2 -1 0 12 44 95 95 44 12 0 -2 -2 -2 -2 -2 -2 -2 -2 -2 -2 -1 0 1 5 12 22 35 50 68 89 104 106 97 82 62 42 26 16 9 4 1 0 -1 -1 -1 0 0 1 5 18 52 110 
119 84 57 47 45 45 47 54 66 80 89 93 95 96 98 101 106 106 101 98 96 95 95 93 89 80 66 54 47 45 44 42 39 32 23 17 13 12 12 11 11 10 7 4 2 1 1 0 0 0 0 -1 -1 -1 -2 -2 -2 -2 -2 -1 1 12 44 96 95 44 12 0 -2 -2 -2 -2 -2 -2 -2 -1 0 0 2 6 13 25 42 62 82 97 106 104 89 68 50 35 22 12 6 2 0 0 -1 -2 -2 -2 -2 -2 -2 -1 1 13 46 101 
103 57 26 15 12 12 13 17 23 32 39 42 44 45 47 54 66 80 89 93 95 95 96 98 101 106 106 101 98 96 95 93 89 80 66 54 47 45 44 44 42 39 32 23 17 13 12 12 11 10 7 4 2 1 1 0 0 0 0 0 2 13 45 96 96 44 12 0 -1 -2 -2 -2 -2 -1 0 1 4 9 16 26 43 65 88 104 106 97 82 62 42 26 16 9 4 1 0 -1 -2 -2 -2 -2 -2 -2 -2 -2 -2 -1 1 12 44 97 
98 47 15 4 1 1 1 2 4 7 10 11 12 12 13 17 23 32 39 42 44 44 45 47 54 66 80 89 93 95 96 98 101 106 106 101 98 96 95 95 93 89 80 66 54 47 45 44 42 39 32 23 17 13 12 12 11 11 10 8 8 17 48 98 97 45 12 1 -1 -2 -1 0 0 2 6 12 22 35 50 68 90 104 104 90 68 50 35 22 12 6 2 0 0 -1 -2 -2 -2 -2 -2 -2 -2 -2 -2 -2 -2 -2 0 12 44 96 
96 45 12 1 -1 -1 -1 -1 -1 0 0 0 0 1 1 2 4 7 10 11 11 12 12 13 17 23 32 39 42 44 45 47 54 66 80 89 93 95 95 96 98 101 106 106 101 98 96 95 93 89 80 66 54 47 45 44 44 42 39 33 27 31 59 105 101 49 14 2 0 0 1 4 9 16 26 42 62 82 97 106 104 88 65 43 26 16 9 4 1 0 -1 -2 -2 -2 -2 -2 -2 -2 -2 -2 -2 -2 -2 -2 -2 -2 0 12 44 96 
96 44 12 1 -1 -2 -2 -2 -2 -2 -2 -2 -2 -2 -1 -1 -1 0 0 0 0 0 1 1 2 4 7 10 11 12 12 13 17 23 32 39 42 44 44 45 47 54 66 80 89 93 95 96 98 101 106 106 101 98 96 95 95 93 89 80 69 67 87 123 114 60 22 7 4 6 12 22 35 50 68 89 104 106 97 82 62 42 25 13 6 2 0 0 -1 -2 -2 -2 -2 -2 -2 -2 -2 -2 -2 -2 -2 -2 -2 -2 -2 -2 0 12 44 95 
95 44 12 0 -2 -2 -2 -2 -2 -2 -2 -2 -2 -2 -2 -2 -2 -2 -2 -2 -2 -2 -2 -1 -1 -1 0 0 0 0 1 1 2 4 7 10 11 11 12 12 13 17 23 32 39 42 44 45 47 54 66 80 89 93 95 95 96 98 101 106 107 109 122 142 132 85 44 24 20 27 42 62 82 97 106 104 89 68 50 35 22 12 5 1 0 -1 -2 -2 -2 -2 -2 -2 -2 -2 -2 -2 -2 -2 -2 -2 -2 -2 -2 -2 -2 -2 0 12 44 95 
95 44 12 0 -2 -2 -2 -2 -2 -2 -2 -2 -2 -2 -2 -2 -2 -2 -2 -2 -2 -2 -2 -2 -2 -2 -2 -2 -2 -2 -1 -1 -1 -1 0 0 0 0 0 1 1 2 4 7 10 11 12 12 13 17 23 32 39 42 44 44 45 47 54 66 80 91 102 116 127 114 85 63 60 71 90 104 106 97 82 62 42 26 16 9 4 1 0 -1 -2 -2 -2 -2 -2 -2 -2 -2 -2 -2 -2 -2 -2 -2 -2 -2 -2 -2 -2 -2 -2 -2 0 12 44 95 
95 44 12 0 -2 -2 -2 -2 -2 -2 -2 -2 -2 -2 -2 -2 -2 -2 -2 -2 -2 -2 -2 -2 -2 -2 -2 -2 -2 -2 -2 -2 -2 -2 -2 -2 -2 -2 -2 -1 -1 -1 -1 0 0 0 0 1 1 2 4 7 10 11 11 12 12 13 17 23 32 40 47 59 84 114 127 120 112 110 105 89 68 50 35 22 12 6 2 0 0 -1 -2 -2 -2 -2 -2 -2 -2 -2 -2 -2 -2 -2 -2 -2 -2 -2 -2 -2 -2 -2 -2 -2 -2 -2 0 12 44 95 
96 44 12 1 -1 -2 -2 -2 -2 -2 -2 -2 -2 -2 -2 -2 -2 -2 -2 -2 -2 -2 -2 -2 -2 -2 -2 -2 -2 -2 -2 -2 -2 -2 -2 -2 -2 -2 -2 -2 -2 -2 -2 -2 -2 -1 -1 -1 -1 -1 0 0 0 0 0 1 1 1 2 4 8 10 14 22 43 85 132 141 115 88 64 43 26 16 9 4 1 0 -1 -1 -2 -2 -2 -2 -2 -2 -2 -2 -2 -2 -2 -2 -2 -2 -2 -2 -2 -2 -2 -2 -2 -2 -2 -2 -2 -1 1 12 44 96 
96 45 12 1 -1 -1 -2 -2 -2 -2 -2 -2 -2 -2 -2 -2 -2 -2 -2 -2 -2 -2 -2 -2 -2 -2 -2 -2 -2 -2 -2 -2 -2 -2 -2 -2 -2 -2 -2 -2 -2 -1 -1 -1 -1 -1 -1 -1 -1 -1 -1 -1 -1 -1 -1 -1 -1 -1 0 0 0 1 2 7 23 61 114 122 80 45 25 14 7 3 1 0 -1 -1 -1 -1 -1 -2 -2 -2 -2 -2 -2 -2 -2 -2 -2 -2 -2 -2 -2 -2 -2 -2 -2 -2 -2 -2 -2 -2 -1 -1 1 12 45 96 
98 47 15 4 1 1 0 0 0 0 0 0 0 0 0 0 0 0 0 0 0 0 0 0 0 0 0 0 0 0 0 0 0 0 0 0 0 0 0 0 0 0 0 0 0 0 0 0 0 0 0 0 0 1 1 1 1 1 1 1 1 1 2 6 18 52 104 107 59 25 11 5 3 2 1 1 1 0 0 0 0 0 0 0 0 0 0 0 0 0 0 0 0 0 0 0 0 0 0 0 0 0 0 0 0 1 4 15 47 98 
105 57 26 15 12 12 12 12 12 12 12 12 12 12 12 12 12 12 12 12 12 12 12 12 12 12 12 12 12 12 12 11 11 11 11 11 12 12 12 12 12 12 12 12 12 12 12 11 11 11 11 11 12 12 12 12 12 12 12 12 12 12 13 16 27 58 107 107 60 29 17 13 12 12 12 12 12 12 12 12 12 12 12 12 12 12 12 12 12 12 11 11 11 11 11 12 12 12 12 12 12 12 11 11 11 12 15 26 57 105 
125 84 57 47 45 44 44 44 44 44 44 44 44 44 44 44 44 44 44 44 44 44 44 44 44 44 44 44 44 44 44 44 43 43 43 44 44 44 44 44 44 44 44 44 44 44 44 44 44 43 43 44 44 44 44 44 44 44 44 44 44 44 45 47 57 84 124 124 84 58 48 45 44 44 44 44 44 44 44 44 44 44 44 44 44 44 44 44 44 44 44 43 43 43 44 44 44 44 44 44 44 44 44 43 43 44 47 57 84 125 
153 125 105 98 96 96 95 95 95 95 95 95 95 95 95 95 95 95 95 95 95 95 95 95 95 95 95 95 96 96 97 99 102 103 101 98 96 96 95 95 95 95 95 95 95 96 96 97 100 103 103 99 97 96 96 95 95 95 95 95 95 96 96 98 103 119 140 140 119 103 98 96 96 95 95 95 95 95 95 95 95 95 95 95 95 95 95 95 96 96 98 101 103 101 98 96 96 95 95 95 96 96 98 101 103 102 101 106 125 153 
