P2
110 110
255
119 72 66 65 65 65 65 65 65 65 65 65 65 65 65 65 65 65 65 65 65 65 65 65 65 65 65 65 65 65 65 68 88 142 108 71 66 65 65 65 65 65 65 65 65 65 65 66 72 117 117 72 66 65 65 65 65 65 65 65 65 65 65 65 65 65 67 67 65 65 65 65 65 65 65 65 65 65 65 65 65 65 65 65 65 65 65 65 65 65 67 83 142 108 71 66 65 65 65 65 65 65 67 83 142 108 71 66 72 119 
72 11 2 1 1 1 1 1 1 1 1 1 1 1 1 1 1 1 1 1 1 1 1 1 1 1 1 1 1 1 4 23 98 94 21 3 1 1 1 1 1 1 1 1 1 1 1 2 11 73 72 11 2 1 1 1 1 1 1 1 1 1 1 1 1 1 1 1 1 1 1 1 1 1 1 1 1 1 1 1 1 1 1 1 1 1 1 1 1 2 11 69 100 22 3 1 1 1 1 1 1 2 10 64 101 22 3 2 11 72 
66 2 -6 -7 -7 -7 -7 -7 -7 -7 -7 -7 -7 -7 -7 -7 -7 -7 -7 -7 -7 -7 -7 -7 -7 -7 -7 -7 -7 -6 2 61 97 20 -3 -6 -7 -7 -7 -7 -7 -7 -7 -7 -7 -7 -7 -6 4 71 66 2 -6 -7 -7 -7 -7 -7 -7 -7 -7 -7 -7 -7 -7 -7 -7 -7 -7 -7 -7 -7 -7 -7 -7 -7 -7 -7 -7 -7 -7 -7 -7 -7 -7 -7 -7 -7 -7 -5 15 97 60 2 -6 -7 -7 -7 -7 -7 -7 -6 2 65 70 3 -6 -6 2 66 
65 1 -7 -7 -7 -7 -7 -7 -7 -7 -7 -7 -7 -7 -7 -7 -7 -7 -7 -7 -7 -7 -7 -7 -7 -7 -7 -7 -7 -4 20 97 60 2 -7 -7 -7 -7 -7 -7 -7 -7 -7 -7 -7 -7 -7 -5 15 107 67 1 -7 -7 -7 -7 -7 -7 -7 -7 -7 -7 -7 -7 -7 -7 -7 -7 -7 -7 -7 -7 -7 -7 -7 -7 -7 -7 -7 -7 -7 -7 -7 -7 -7 -7 -7 -7 -7 0 56 97 15 -5 -7 -7 -7 -7 -7 -7 -7 -7 3 70 64 1 -7 -7 1 65 
65 1 -7 -7 -8 -8 -8 -8 -8 -8 -8 -8 -8 -8 -8 -8 -8 -8 -8 -8 -8 -8 -8 -8 -8 -8 -8 -7 -5 13 91 91 13 -5 -7 -8 -8 -8 -8 -8 -8 -8 -8 -8 -8 -7 -7 1 61 146 68 1 -7 -7 -8 -8 -8 -8 -8 -8 -8 -8 -8 -8 -8 -8 -8 -8 -8 -8 -8 -8 -8 -8 -8 -8 -8 -8 -8 -8 -8 -8 -8 -8 -8 -8 -8 -7 -7 3 69 69 3 -7 -7 -8 -8 -8 -8 -8 -7 -5 14 97 55 0 -7 -7 1 65 
65 1 -7 -7 -8 -8 -8 -8 -8 -8 -8 -8 -8 -8 -8 -8 -8 -8 -8 -8 -8 -8 -8 -8 -8 -8 -7 -7 2 60 97 20 -4 -7 -7 -8 -8 -8 -8 -8 -8 -8 -8 -8 -8 -7 -5 15 99 121 67 1 -7 -7 -8 -8 -8 -8 -8 -8 -8 -8 -8 -8 -8 -8 -8 -8 -8 -8 -8 -8 -8 -8 -8 -8 -8 -8 -8 -8 -8 -8 -8 -8 -8 -8 -8 -7 -5 15 97 56 0 -7 -7 -8 -8 -8 -8 -7 -7 0 55 97 14 -5 -7 -7 1 65 
65 1 -7 -7 -8 -8 -8 -8 -8 -8 -8 -8 -8 -8 -8 -8 -8 -8 -8 -8 -8 -8 -8 -8 -8 -7 -7 -4 20 97 60 2 -7 -7 -8 -8 -8 -8 -8 -8 -8 -8 -8 -8 -7 -7 1 60 104 85 66 1 -7 -7 -8 -8 -8 -8 -8 -8 -8 -8 -8 -8 -8 -8 -8 -8 -8 -8 -8 -8 -8 -8 -8 -8 -8 -8 -8 -8 -8 -8 -8 -8 -8 -8 -7 -7 1 60 96 14 -5 -7 -8 -8 -8 -8 -8 -7 -7 1 64 70 3 -7 -7 -7 1 65 
65 1 -7 -7 -8 -8 -8 -8 -8 -8 -8 -8 -8 -8 -8 -8 -8 -8 -8 -8 -8 -8 -8 -8 -8 -7 -5 13 91 91 13 -5 -7 -8 -8 -8 -8 -8 -8 -8 -8 -8 -8 -8 -7 -5 15 97 68 72 70 3 -7 -7 -8 -8 -8 -8 -8 -8 -8 -8 -8 -8 -8 -8 -8 -8 -8 -8 -8 -8 -8 -8 -8 -8 -8 -8 -8 -8 -8 -8 -8 -8 -8 -8 -7 -5 14 96 60 1 -7 -7 -8 -8 -8 -8 -8 -7 -7 3 70 64 1 -7 -7 -7 1 65 
65 1 -7 -7 -8 -8 -8 -8 -8 -8 -8 -8 -8 -8 -8 -8 -8 -8 -8 -8 -8 -8 -8 -8 -7 -7 2 60 97 20 -4 -7 -7 -8 -8 -8 -8 -8 -8 -8 -8 -8 -8 -7 -7 2 60 97 23 57 97 14 -5 -7 -8 -8 -8 -8 -8 -8 -8 -8 -8 -8 -8 -8 -8 -8 -8 -8 -8 -8 -8 -8 -8 -8 -8 -8 -8 -8 -8 -8 -8 -8 -8 -7 -7 0 56 97 15 -5 -7 -8 -8 -8 -8 -8 -8 -7 -5 14 97 55 0 -7 -7 -7 1 65 
65 1 -7 -7 -8 -8 -8 -8 -8 -8 -8 -8 -8 -8 -8 -8 -8 -8 -8 -8 -8 -8 -8 -7 -7 -4 20 97 60 2 -7 -7 -8 -8 -8 -8 -8 -8 -8 -8 -8 -8 -7 -7 -4 20 97 60 4 15 97 55 0 -7 -7 -8 -8 -8 -8 -8 -8 -8 -8 -8 -8 -8 -8 -8 -8 -8 -8 -8 -8 -8 -8 -8 -8 -8 -8 -8 -8 -8 -8 -8 -8 -7 -7 3 69 69 3 -7 -7 -8 -8 -8 -8 -8 -7 -7 0 55 97 14 -5 -7 -7 -7 1 65 
65 1 -7 -7 -8 -8 -8 -8 -8 -8 -8 -8 -8 -8 -8 -8 -8 -8 -8 -8 -8 -8 -8 -7 -5 13 91 91 13 -5 -7 -8 -8 -8 -8 -8 -8 -8 -8 -8 -8 -8 -7 -5 13 91 91 13 -4 3 70 64 1 -7 -7 -8 -8 -8 -8 -8 -8 -8 -8 -8 -8 -8 -8 -8 -8 -8 -8 -8 -8 -8 -8 -8 -8 -8 -8 -8 -8 -8 -8 -8 -8 -7 -5 15 97 56 0 -7 -7 -8 -8 -8 -8 -8 -7 -7 1 64 70 3 -7 -7 -7 -7 1 65 
65 1 -7 -7 -8 -8 -8 -8 -8 -8 -8 -8 -8 -8 -8 -8 -8 -8 -8 -8 -8 -8 -7 -7 2 60 97 20 -4 -7 -7 -8 -8 -8 -8 -8 -8 -8 -8 -8 -8 -7 -7 1 60 97 20 -4 -6 1 65 65 1 -7 -7 -8 -8 -8 -8 -8 -8 -8 -8 -8 -8 -8 -8 -8 -8 -8 -8 -8 -8 -8 -8 -8 -8 -8 -8 -8 -8 -8 -8 -8 -7 -7 1 60 96 14 -5 -7 -8 -8 -8 -8 -8 -8 -7 -7 3 70 64 1 -7 -7 -7 -7 1 65 
66 1 -7 -7 -8 -8 -8 -8 -8 -8 -8 -8 -8 -8 -8 -8 -8 -8 -8 -8 -8 -7 -7 -4 20 97 60 2 -7 -7 -8 -8 -8 -8 -8 -8 -8 -8 -8 -8 -8 -7 -5 15 96 60 2 -7 -7 1 65 65 1 -7 -7 -8 -8 -8 -8 -8 -8 -8 -8 -8 -8 -8 -8 -8 -8 -8 -8 -8 -8 -8 -8 -8 -8 -8 -8 -8 -8 -8 -8 -8 -7 -5 14 96 60 1 -7 -7 -8 -8 -8 -8 -8 -8 -7 -5 14 97 55 0 -7 -7 -7 -7 1 65 
71 3 -6 -7 -8 -8 -8 -8 -8 -8 -8 -8 -8 -8 -8 -8 -8 -8 -8 -8 -8 -7 -5 13 91 91 13 -5 -7 -8 -8 -8 -8 -8 -8 -8 -8 -8 -8 -8 -7 -7 1 60 96 15 -5 -7 -7 1 65 65 1 -7 -7 -8 -8 -8 -8 -8 -8 -8 -8 -8 -8 -8 -8 -8 -8 -8 -8 -8 -8 -8 -8 -8 -8 -8 -8 -8 -8 -8 -8 -7 -7 0 56 97 15 -5 -7 -8 -8 -8 -8 -8 -8 -7 -7 0 55 97 14 -5 -7 -8 -7 -7 1 65 
108 21 -3 -7 -7 -8 -8 -8 -8 -8 -8 -8 -8 -8 -8 -8 -8 -8 -8 -8 -7 -7 2 60 97 20 -4 -7 -7 -8 -8 -8 -8 -8 -8 -8 -8 -8 -8 -8 -7 -5 15 96 60 1 -7 -7 -7 1 64 70 3 -7 -7 -8 -8 -8 -8 -8 -8 -8 -8 -8 -8 -8 -8 -8 -8 -8 -8 -8 -8 -8 -8 -8 -8 -8 -8 -8 -8 -8 -8 -7 -7 3 69 69 3 -7 -7 -8 -8 -8 -8 -8 -8 -7 -7 1 64 70 3 -7 -7 -8 -7 -7 1 67 
142 94 19 -3 -7 -7 -8 -8 -8 -8 -8 -8 -8 -8 -8 -8 -8 -8 -8 -7 -7 -4 20 97 60 2 -7 -7 -8 -8 -8 -8 -8 -8 -8 -8 -8 -8 -8 -7 -7 2 60 96 15 -5 -7 -7 -7 0 55 97 14 -5 -7 -8 -8 -8 -8 -8 -8 -8 -8 -8 -8 -8 -8 -8 -8 -8 -8 -8 -8 -8 -8 -8 -8 -8 -8 -8 -8 -8 -8 -7 -5 15 97 56 0 -7 -7 -8 -8 -8 -8 -8 -8 -7 -7 3 70 64 1 -7 -7 -8 -7 -7 1 68 
88 99 91 19 -4 -7 -7 -8 -8 -8 -8 -8 -8 -8 -8 -8 -8 -8 -8 -7 -5 13 91 91 13 -5 -7 -8 -8 -8 -8 -8 -8 -8 -8 -8 -8 -8 -7 -7 -4 20 97 60 1 -7 -7 -8 -7 -5 14 97 55 0 -7 -7 -8 -8 -8 -8 -8 -8 -8 -8 -8 -8 -8 -8 -8 -8 -8 -8 -8 -8 -8 -8 -8 -8 -8 -8 -8 -8 -7 -7 1 60 96 14 -5 -7 -8 -8 -8 -8 -8 -8 -8 -7 -5 14 97 55 0 -7 -7 -8 -7 -7 1 66 
69 28 92 90 13 -5 -7 -8 -8 -8 -8 -8 -8 -8 -8 -8 -8 -8 -7 -7 2 60 97 20 -4 -7 -7 -8 -8 -8 -8 -8 -8 -8 -8 -8 -8 -8 -7 -5 13 91 91 13 -5 -7 -8 -8 -7 -7 3 70 64 1 -7 -7 -8 -8 -8 -8 -8 -8 -8 -8 -8 -8 -8 -8 -8 -8 -8 -8 -8 -8 -8 -8 -8 -8 -8 -8 -8 -8 -7 -5 14 96 60 1 -7 -7 -8 -8 -8 -8 -8 -8 -7 -7 0 55 97 14 -5 -7 -8 -8 -7 -7 1 65 
66 6 21 97 60 2 -7 -7 -8 -8 -8 -8 -8 -8 -8 -8 -8 -7 -7 -4 20 97 60 2 -7 -7 -8 -8 -8 -8 -8 -8 -8 -8 -8 -8 -8 -7 -7 1 60 97 20 -4 -7 -7 -8 -8 -7 -7 1 65 65 1 -7 -7 -8 -8 -8 -8 -8 -8 -8 -8 -8 -8 -8 -8 -8 -8 -8 -8 -8 -8 -8 -8 -8 -8 -8 -8 -8 -7 -7 0 56 97 15 -5 -7 -8 -8 -8 -8 -8 -8 -8 -7 -7 1 64 70 3 -7 -7 -8 -8 -7 -7 1 65 
65 2 2 60 97 20 -3 -7 -7 -8 -8 -8 -8 -8 -8 -8 -8 -7 -5 13 91 91 13 -5 -7 -8 -8 -8 -8 -8 -8 -8 -8 -8 -8 -8 -8 -7 -5 15 96 60 2 -7 -7 -8 -8 -8 -7 -7 1 65 65 1 -7 -7 -8 -8 -8 -8 -8 -8 -8 -8 -8 -8 -8 -8 -8 -8 -8 -8 -8 -8 -8 -8 -8 -8 -8 -8 -8 -7 -7 3 69 69 3 -7 -7 -8 -8 -8 -8 -8 -8 -8 -7 -7 3 70 64 1 -7 -7 -8 -8 -7 -7 1 65 
65 1 -4 13 90 91 19 -3 -7 -7 -8 -8 -8 -8 -8 -8 -7 -7 2 60 97 20 -4 -7 -7 -8 -8 -8 -8 -8 -8 -8 -8 -8 -8 -8 -7 -7 1 60 96 15 -5 -7 -8 -8 -8 -8 -7 -7 1 65 65 1 -7 -7 -8 -8 -8 -8 -8 -8 -8 -8 -8 -8 -8 -8 -8 -8 -8 -8 -8 -8 -8 -8 -8 -8 -8 -8 -8 -7 -5 15 97 56 0 -7 -7 -8 -8 -8 -8 -8 -8 -8 -7 -5 14 97 55 0 -7 -7 -8 -8 -7 -7 1 65 
65 1 -6 -4 19 91 91 19 -3 -7 -7 -8 -8 -8 -8 -7 -7 -4 20 97 60 2 -7 -7 -8 -8 -8 -8 -8 -8 -8 -8 -8 -8 -8 -8 -7 -5 15 96 60 1 -7 -7 -8 -8 -8 -8 -7 -7 1 64 70 3 -7 -7 -8 -8 -8 -8 -8 -8 -8 -8 -8 -8 -8 -8 -8 -8 -8 -8 -8 -8 -8 -8 -8 -8 -8 -8 -7 -7 1 60 96 14 -5 -7 -8 -8 -8 -8 -8 -8 -8 -7 -7 0 55 97 14 -5 -7 -8 -8 -8 -7 -7 1 65 
65 1 -7 -7 -3 19 91 91 19 -3 -7 -7 -8 -8 -8 -7 -5 13 91 91 13 -5 -7 -8 -8 -8 -8 -8 -8 -8 -8 -8 -8 -8 -8 -7 -7 2 60 96 15 -5 -7 -8 -8 -8 -8 -8 -7 -7 0 55 97 14 -5 -7 -8 -8 -8 -8 -8 -8 -8 -8 -8 -8 -8 -8 -8 -8 -8 -8 -8 -8 -8 -8 -8 -8 -8 -8 -7 -5 14 96 60 1 -7 -7 -8 -8 -8 -8 -8 -8 -8 -7 -7 1 64 70 3 -7 -7 -8 -8 -8 -7 -7 1 65 
65 1 -7 -7 -7 -3 19 91 91 19 -3 -7 -7 -8 -7 -7 2 60 97 20 -4 -7 -7 -8 -8 -8 -8 -8 -8 -8 -8 -8 -8 -8 -7 -7 -4 20 97 60 1 -7 -7 -8 -8 -8 -8 -8 -8 -7 -5 14 97 55 0 -7 -7 -8 -8 -8 -8 -8 -8 -8 -8 -8 -8 -8 -8 -8 -8 -8 -8 -8 -8 -8 -8 -8 -8 -7 -7 0 56 97 15 -5 -7 -8 -8 -8 -8 -8 -8 -8 -8 -7 -7 3 70 64 1 -7 -7 -8 -8 -8 -7 -7 1 65 
65 1 -7 -7 -7 -7 -3 19 91 91 19 -3 -7 -7 -7 -4 20 97 60 2 -7 -7 -8 -8 -8 -8 -8 -8 -8 -8 -8 -8 -8 -8 -7 -5 13 91 91 13 -5 -7 -8 -8 -8 -8 -8 -8 -8 -7 -7 3 70 64 1 -7 -7 -8 -8 -8 -8 -8 -8 -8 -8 -8 -8 -8 -8 -8 -8 -8 -8 -8 -8 -8 -8 -8 -8 -7 -7 3 69 69 3 -7 -7 -8 -8 -8 -8 -8 -8 -8 -8 -7 -5 14 97 55 0 -7 -7 -8 -8 -8 -7 -7 1 65 
65 1 -7 -7 -8 -7 -7 -3 19 91 91 19 -3 -7 -5 13 91 91 13 -5 -7 -8 -8 -8 -8 -8 -8 -8 -8 -8 -8 -8 -8 -7 -7 1 60 97 20 -4 -7 -7 -8 -8 -8 -8 -8 -8 -8 -7 -7 1 65 65 1 -7 -7 -8 -8 -8 -8 -8 -8 -8 -8 -8 -8 -8 -8 -8 -8 -8 -8 -8 -8 -8 -8 -8 -8 -7 -5 15 97 56 0 -7 -7 -8 -8 -8 -8 -8 -8 -8 -7 -7 0 55 97 14 -5 -7 -8 -8 -8 -8 -7 -7 1 65 
65 1 -7 -7 -8 -8 -7 -7 -3 19 91 91 19 -2 2 60 97 20 -4 -7 -7 -8 -8 -8 -8 -8 -8 -8 -8 -8 -8 -8 -8 -7 -5 15 96 60 2 -7 -7 -8 -8 -8 -8 -8 -8 -8 -8 -7 -7 1 65 65 1 -7 -7 -8 -8 -8 -8 -8 -8 -8 -8 -8 -8 -8 -8 -8 -8 -8 -8 -8 -8 -8 -8 -8 -7 -7 1 60 96 14 -5 -7 -8 -8 -8 -8 -8 -8 -8 -8 -7 -7 1 64 70 3 -7 -7 -8 -8 -8 -8 -7 -7 1 65 
65 1 -7 -7 -8 -8 -8 -7 -7 -3 19 91 91 23 24 97 60 2 -7 -7 -8 -8 -8 -8 -8 -8 -8 -8 -8 -8 -8 -8 -7 -7 1 60 96 15 -5 -7 -8 -8 -8 -8 -8 -8 -8 -8 -8 -7 -7 1 64 70 3 -7 -7 -8 -8 -8 -8 -8 -8 -8 -8 -8 -8 -8 -8 -8 -8 -8 -8 -8 -8 -8 -8 -8 -7 -5 14 96 60 1 -7 -7 -8 -8 -8 -8 -8 -8 -8 -8 -7 -7 3 70 64 1 -7 -7 -8 -8 -8 -8 -7 -7 1 65 
65 1 -7 -7 -8 -8 -8 -8 -7 -7 -3 19 92 107 107 91 13 -5 -7 -8 -8 -8 -8 -8 -8 -8 -8 -8 -8 -8 -8 -8 -7 -5 15 96 60 1 -7 -7 -8 -8 -8 -8 -8 -8 -8 -8 -8 -7 -7 0 55 97 14 -5 -7 -8 -8 -8 -8 -8 -8 -8 -8 -8 -8 -8 -8 -8 -8 -8 -8 -8 -8 -8 -8 -7 -7 0 56 97 15 -5 -7 -8 -8 -8 -8 -8 -8 -8 -8 -8 -7 -5 14 97 55 0 -7 -7 -8 -8 -8 -8 -7 -7 1 65 
65 1 -7 -7 -8 -8 -8 -8 -8 -7 -7 -3 21 109 109 21 -4 -7 -7 -8 -8 -8 -8 -8 -8 -8 -8 -8 -8 -8 -8 -7 -7 2 60 96 15 -5 -7 -8 -8 -8 -8 -8 -8 -8 -8 -8 -8 -8 -7 -5 14 97 55 0 -7 -7 -8 -8 -8 -8 -8 -8 -8 -8 -8 -8 -8 -8 -8 -8 -8 -8 -8 -8 -8 -7 -7 3 69 69 3 -7 -7 -8 -8 -8 -8 -8 -8 -8 -8 -7 -7 0 55 97 14 -5 -7 -8 -8 -8 -8 -8 -7 -7 1 65 
65 1 -7 -7 -8 -8 -8 -8 -8 -8 -7 -6 3 71 71 3 -7 -7 -8 -8 -8 -8 -8 -8 -8 -8 -8 -8 -8 -8 -7 -7 -4 20 97 60 1 -7 -7 -8 -8 -8 -8 -8 -8 -8 -8 -8 -8 -8 -7 -7 3 70 64 1 -7 -7 -8 -8 -8 -8 -8 -8 -8 -8 -8 -8 -8 -8 -8 -8 -8 -8 -8 -8 -8 -7 -5 15 97 56 0 -7 -7 -8 -8 -8 -8 -8 -8 -8 -8 -7 -7 1 64 70 3 -7 -7 -8 -8 -8 -8 -8 -7 -7 1 65 
65 1 -7 -7 -8 -8 -8 -8 -8 -8 -7 -7 1 65 70 3 -7 -7 -8 -8 -8 -8 -8 -8 -8 -8 -8 -8 -8 -8 -7 -5 13 91 91 13 -5 -7 -8 -8 -8 -8 -8 -8 -8 -8 -8 -8 -8 -8 -7 -7 1 65 65 1 -7 -7 -8 -8 -8 -8 -8 -8 -8 -8 -8 -8 -8 -8 -8 -8 -8 -8 -8 -8 -7 -7 1 60 96 14 -5 -7 -8 -8 -8 -8 -8 -8 -8 -8 -8 -7 -7 3 70 64 1 -7 -7 -8 -8 -8 -8 -8 -7 -7 1 65 
65 1 -7 -7 -8 -8 -8 -8 -8 -8 -7 -7 0 55 97 14 -5 -7 -8 -8 -8 -8 -8 -8 -8 -8 -8 -8 -8 -7 -7 1 60 97 20 -4 -7 -7 -8 -8 -8 -8 -8 -8 -8 -8 -8 -8 -8 -8 -7 -7 1 65 65 1 -7 -7 -8 -8 -8 -8 -8 -8 -8 -8 -8 -8 -8 -8 -8 -8 -8 -8 -8 -8 -7 -5 14 96 60 1 -7 -7 -8 -8 -8 -8 -8 -8 -8 -8 -8 -7 -5 14 97 55 0 -7 -7 -8 -8 -8 -8 -8 -7 -7 1 65 
65 1 -7 -7 -8 -8 -8 -8 -8 -8 -8 -7 -5 14 97 55 0 -7 -7 -8 -8 -8 -8 -8 -8 -8 -8 -8 -8 -7 -5 15 96 60 2 -7 -7 -8 -8 -8 -8 -8 -8 -8 -8 -8 -8 -8 -8 -8 -7 -7 1 65 65 1 -7 -7 -8 -8 -8 -8 -8 -8 -8 -8 -8 -8 -8 -8 -8 -8 -8 -8 -8 -7 -7 0 56 97 15 -5 -7 -8 -8 -8 -8 -8 -8 -8 -8 -8 -7 -7 0 55 97 14 -5 -7 -8 -8 -8 -8 -8 -8 -7 -7 1 65 
65 1 -7 -7 -8 -8 -8 -8 -8 -8 -8 -7 -7 3 70 64 1 -7 -7 -8 -8 -8 -8 -8 -8 -8 -8 -8 -7 -7 1 60 96 15 -5 -7 -8 -8 -8 -8 -8 -8 -8 -8 -8 -8 -8 -8 -8 -8 -7 -7 1 64 70 3 -7 -7 -8 -8 -8 -8 -8 -8 -8 -8 -8 -8 -8 -8 -8 -8 -8 -8 -8 -7 -7 3 69 69 3 -7 -7 -8 -8 -8 -8 -8 -8 -8 -8 -8 -7 -7 1 64 70 3 -7 -7 -8 -8 -8 -8 -8 -8 -7 -7 1 65 
65 1 -7 -7 -8 -8 -8 -8 -8 -8 -8 -7 -7 1 65 65 1 -7 -7 -8 -8 -8 -8 -8 -8 -8 -8 -8 -7 -5 15 96 60 1 -7 -7 -8 -8 -8 -8 -8 -8 -8 -8 -8 -8 -8 -8 -8 -8 -7 -7 0 55 97 14 -5 -7 -8 -8 -8 -8 -8 -8 -8 -8 -8 -8 -8 -8 -8 -8 -8 -8 -8 -7 -5 15 97 56 0 -7 -7 -8 -8 -8 -8 -8 -8 -8 -8 -8 -7 -7 3 70 64 1 -7 -7 -8 -8 -8 -8 -8 -8 -7 -7 1 66 
65 1 -7 -7 -8 -8 -8 -8 -8 -8 -8 -7 -7 1 64 70 3 -7 -7 -8 -8 -8 -8 -8 -8 -8 -8 -7 -7 2 60 96 15 -5 -7 -8 -8 -8 -8 -8 -8 -8 -8 -8 -8 -8 -8 -8 -8 -8 -8 -7 -5 14 97 55 0 -7 -7 -8 -8 -8 -8 -8 -8 -8 -8 -8 -8 -8 -8 -8 -8 -8 -7 -7 1 60 96 14 -5 -7 -8 -8 -8 -8 -8 -8 -8 -8 -8 -8 -7 -5 14 97 55 0 -7 -7 -8 -8 -8 -8 -8 -8 -7 -7 3 71 
67 1 -7 -7 -8 -8 -8 -8 -8 -8 -8 -7 -7 0 55 97 14 -5 -7 -8 -8 -8 -8 -8 -8 -8 -7 -7 -4 20 97 60 1 -7 -7 -8 -8 -8 -8 -8 -8 -8 -8 -8 -8 -8 -8 -8 -8 -8 -8 -7 -7 3 70 64 1 -7 -7 -8 -8 -8 -8 -8 -8 -8 -8 -8 -8 -8 -8 -8 -8 -8 -7 -5 14 96 60 1 -7 -7 -8 -8 -8 -8 -8 -8 -8 -8 -8 -7 -7 0 55 97 14 -5 -7 -8 -8 -8 -8 -8 -8 -8 -7 -5 15 107 
68 1 -7 -7 -8 -8 -8 -8 -8 -8 -8 -8 -7 -5 14 97 55 0 -7 -7 -8 -8 -8 -8 -8 -8 -7 -5 13 91 91 13 -5 -7 -8 -8 -8 -8 -8 -8 -8 -8 -8 -8 -8 -8 -8 -8 -8 -8 -8 -7 -7 1 65 65 1 -7 -7 -8 -8 -8 -8 -8 -8 -8 -8 -8 -8 -8 -8 -8 -8 -7 -7 0 56 97 15 -5 -7 -8 -8 -8 -8 -8 -8 -8 -8 -8 -8 -7 -7 1 64 70 3 -7 -7 -8 -8 -8 -8 -8 -8 -7 -7 2 62 146 
67 1 -7 -7 -8 -8 -8 -8 -8 -8 -8 -8 -7 -7 3 70 64 1 -7 -7 -8 -8 -8 -8 -8 -7 -7 1 60 97 20 -4 -7 -7 -8 -8 -8 -8 -8 -8 -8 -8 -8 -8 -8 -8 -8 -8 -8 -8 -8 -7 -7 1 65 65 1 -7 -7 -8 -8 -8 -8 -8 -8 -8 -8 -8 -8 -8 -8 -8 -8 -7 -7 3 69 69 3 -7 -7 -8 -8 -8 -8 -8 -8 -8 -8 -8 -8 -7 -7 3 70 64 1 -7 -7 -8 -8 -8 -8 -8 -7 -7 -4 20 100 121 
66 1 -7 -7 -8 -8 -8 -8 -8 -8 -8 -8 -7 -7 1 65 65 1 -7 -7 -8 -8 -8 -8 -8 -7 -5 15 96 60 2 -7 -7 -8 -8 -8 -8 -8 -8 -8 -8 -8 -8 -8 -8 -8 -8 -8 -8 -8 -8 -7 -7 1 65 65 1 -7 -7 -8 -8 -8 -8 -8 -8 -8 -8 -8 -8 -8 -8 -8 -8 -7 -5 15 97 56 0 -7 -7 -8 -8 -8 -8 -8 -8 -8 -8 -8 -8 -7 -5 14 97 55 0 -7 -7 -8 -8 -8 -8 -8 -7 -5 13 91 98 84 
65 1 -7 -7 -8 -8 -8 -8 -8 -8 -8 -8 -7 -7 1 64 70 3 -7 -7 -8 -8 -8 -8 -7 -7 1 60 96 15 -5 -7 -8 -8 -8 -8 -8 -8 -8 -8 -8 -8 -8 -8 -8 -8 -8 -8 -8 -8 -8 -7 -7 1 64 70 3 -7 -7 -8 -8 -8 -8 -8 -8 -8 -8 -8 -8 -8 -8 -8 -7 -7 1 60 96 14 -5 -7 -8 -8 -8 -8 -8 -8 -8 -8 -8 -8 -7 -7 0 55 97 14 -5 -7 -8 -8 -8 -8 -8 -7 -7 2 60 98 30 68 
65 1 -7 -7 -8 -8 -8 -8 -8 -8 -8 -8 -7 -7 0 55 97 14 -5 -7 -8 -8 -8 -8 -7 -5 15 96 60 1 -7 -7 -8 -8 -8 -8 -8 -8 -8 -8 -8 -8 -8 -8 -8 -8 -8 -8 -8 -8 -8 -7 -7 0 55 97 14 -5 -7 -8 -8 -8 -8 -8 -8 -8 -8 -8 -8 -8 -8 -8 -7 -5 14 96 60 1 -7 -7 -8 -8 -8 -8 -8 -8 -8 -8 -8 -8 -7 -7 1 64 70 3 -7 -7 -8 -8 -8 -8 -7 -7 -4 20 97 61 11 66 
65 1 -7 -7 -8 -8 -8 -8 -8 -8 -8 -8 -8 -7 -5 14 97 55 0 -7 -7 -8 -8 -7 -7 2 60 96 15 -5 -7 -8 -8 -8 -8 -8 -8 -8 -8 -8 -8 -8 -8 -8 -8 -8 -8 -8 -8 -8 -8 -8 -7 -5 14 97 55 0 -7 -7 -7 -7 -8 -8 -8 -8 -8 -8 -8 -8 -8 -7 -7 0 56 97 15 -5 -7 -8 -8 -8 -8 -8 -8 -8 -8 -8 -8 -8 -7 -7 3 70 64 1 -7 -7 -8 -8 -8 -8 -7 -5 13 91 91 14 4 65 
65 1 -7 -7 -8 -8 -8 -8 -8 -8 -8 -8 -8 -7 -7 3 70 64 1 -7 -7 -8 -7 -7 -4 20 97 60 1 -7 -7 -8 -8 -8 -8 -8 -8 -8 -8 -8 -8 -8 -8 -8 -8 -8 -8 -8 -8 -8 -8 -8 -7 -7 3 70 65 2 -6 -7 -7 -7 -7 -7 -7 -7 -7 -7 -7 -8 -8 -7 -7 3 69 69 3 -7 -7 -8 -8 -8 -8 -8 -8 -8 -8 -8 -8 -8 -7 -5 14 97 55 0 -7 -7 -8 -8 -8 -7 -7 2 60 97 20 -3 2 65 
65 1 -7 -7 -8 -8 -8 -8 -8 -8 -8 -8 -8 -7 -7 1 65 65 1 -7 -7 -8 -7 -5 13 91 91 13 -5 -7 -8 -8 -8 -8 -8 -8 -8 -8 -8 -8 -8 -8 -8 -8 -8 -8 -8 -8 -8 -8 -8 -7 -7 -6 4 71 72 11 2 1 1 0 -5 -7 -7 -7 -7 -7 -7 -7 -7 -7 -5 15 97 56 0 -7 -7 -8 -8 -8 -8 -8 -8 -8 -8 -8 -8 -7 -7 0 55 97 14 -5 -7 -8 -8 -8 -7 -7 -4 20 97 60 2 -6 1 65 
65 1 -7 -7 -8 -8 -8 -8 -8 -8 -8 -8 -8 -7 -7 1 64 70 3 -7 -7 -7 -7 1 60 97 20 -4 -7 -7 -8 -8 -8 -8 -8 -8 -8 -8 -8 -8 -8 -8 -8 -8 -8 -8 -8 -8 -8 -8 -7 -7 -5 2 22 109 117 72 66 65 64 55 14 3 1 1 1 1 0 -5 -7 -6 2 60 96 14 -5 -7 -8 -8 -8 -8 -8 -8 -8 -8 -8 -8 -8 -7 -7 1 64 70 3 -7 -7 -8 -8 -8 -7 -5 13 91 91 13 -5 -7 1 65 
65 1 -7 -7 -8 -8 -8 -8 -8 -8 -8 -8 -8 -7 -7 0 55 97 14 -5 -7 -7 -5 15 96 60 2 -7 -7 -8 -8 -8 -8 -8 -8 -8 -8 -8 -8 -8 -8 -8 -8 -8 -8 -8 -8 -8 -7 -7 -7 -4 13 60 98 101 73 66 65 65 70 97 97 70 65 65 65 64 55 14 3 4 22 98 60 1 -7 -7 -8 -8 -8 -8 -8 -8 -8 -8 -8 -8 -8 -7 -7 3 70 64 1 -7 -7 -8 -8 -7 -7 2 60 97 20 -4 -7 -7 1 65 
65 1 -7 -7 -8 -8 -8 -8 -8 -8 -8 -8 -8 -8 -7 -5 14 97 55 0 -7 -7 1 60 96 15 -5 -7 -8 -8 -8 -8 -8 -8 -8 -8 -8 -8 -8 -8 -8 -8 -8 -8 -8 -8 -8 -7 -7 -5 2 20 91 97 60 15 3 1 1 1 3 14 55 64 65 65 65 70 97 97 70 71 109 106 16 -5 -7 -8 -8 -8 -8 -8 -8 -8 -8 -8 -8 -8 -8 -7 -5 14 97 55 0 -7 -7 -8 -7 -7 -4 20 97 60 2 -7 -7 -7 1 65 
65 1 -7 -7 -8 -8 -8 -8 -8 -8 -8 -8 -8 -8 -7 -7 3 70 64 1 -7 -5 15 96 60 1 -7 -7 -8 -8 -8 -8 -8 -8 -8 -8 -8 -8 -8 -8 -8 -8 -8 -8 -8 -7 -7 -7 -4 13 60 97 91 20 2 -5 -7 -7 -7 -7 -7 -5 0 1 1 1 1 3 14 55 65 71 109 106 16 -5 -7 -8 -8 -8 -8 -8 -8 -8 -8 -8 -8 -8 -7 -7 0 55 97 14 -5 -7 -8 -8 -7 -5 13 91 91 13 -5 -7 -7 -7 1 65 
65 1 -7 -7 -8 -8 -8 -8 -8 -8 -8 -8 -8 -8 -7 -7 1 65 65 1 -6 2 60 96 15 -5 -7 -8 -8 -8 -8 -8 -8 -8 -8 -8 -8 -8 -8 -8 -8 -8 -8 -8 -7 -7 -5 2 20 91 97 60 13 -4 -7 -7 -7 -7 -7 -7 -7 -7 -7 -7 -7 -7 -7 -7 -5 0 1 3 22 98 60 2 -7 -7 -8 -8 -8 -8 -8 -8 -8 -8 -8 -8 -7 -7 1 64 70 3 -7 -7 -8 -7 -7 2 60 97 20 -4 -7 -7 -7 -7 1 65 
65 1 -7 -7 -8 -8 -8 -8 -8 -8 -8 -8 -8 -8 -7 -7 1 64 70 3 -3 20 97 60 1 -7 -7 -8 -8 -8 -8 -8 -8 -8 -8 -8 -8 -8 -8 -8 -8 -8 -8 -7 -7 -4 13 60 97 91 20 2 -5 -7 -7 -8 -8 -8 -8 -8 -8 -8 -7 -7 -7 -7 -7 -7 -7 -7 -7 -6 2 60 97 20 -3 -7 -7 -7 -7 -7 -7 -7 -7 -7 -7 -7 -7 -7 3 70 64 1 -7 -7 -7 -7 -4 20 97 60 2 -7 -7 -8 -7 -7 1 65 
65 1 -7 -7 -8 -8 -8 -8 -8 -8 -8 -8 -8 -8 -7 -7 0 55 97 16 15 91 91 13 -5 -7 -8 -8 -8 -8 -8 -8 -8 -8 -8 -8 -8 -8 -8 -8 -8 -7 -7 -7 -3 19 90 97 60 13 -4 -7 -7 -7 -8 -8 -8 -8 -8 -8 -8 -8 -8 -8 -8 -8 -8 -8 -8 -7 -7 -7 -5 13 91 92 21 2 -5 -7 -7 -7 -7 -7 -7 -7 -7 -7 -7 -5 15 97 55 0 -7 -7 -7 -5 13 91 91 13 -5 -7 -8 -8 -7 -7 1 65 
65 1 -7 -7 -8 -8 -8 -8 -8 -8 -8 -8 -8 -8 -8 -7 -5 14 97 64 67 97 20 -4 -7 -7 -8 -8 -8 -8 -8 -8 -8 -8 -8 -8 -8 -8 -8 -8 -7 -7 -5 2 20 91 91 20 2 -5 -7 -7 -8 -8 -8 -8 -8 -8 -8 -8 -8 -8 -8 -8 -8 -8 -8 -8 -8 -8 -8 -7 -7 -4 20 102 108 61 15 3 1 1 1 1 1 1 1 1 2 9 63 102 16 -4 -7 -7 -7 2 60 97 20 -4 -7 -7 -8 -8 -7 -7 1 65 
65 1 -7 -7 -8 -8 -8 -8 -8 -8 -8 -8 -8 -8 -8 -7 -7 3 70 84 103 60 2 -7 -7 -8 -8 -8 -8 -8 -8 -8 -8 -8 -8 -8 -8 -8 -7 -7 -7 -4 13 60 97 90 19 -3 -7 -7 -7 -8 -8 -8 -8 -8 -8 -8 -8 -8 -8 -8 -8 -8 -8 -8 -8 -8 -8 -8 -8 -8 -7 -7 3 73 120 103 97 70 65 65 65 65 65 65 65 65 66 72 116 113 24 2 -5 -6 -4 20 97 60 2 -7 -7 -8 -8 -8 -7 -7 1 65 
65 1 -7 -7 -8 -8 -8 -8 -8 -8 -8 -8 -8 -8 -8 -7 -7 1 67 121 99 15 -5 -7 -8 -8 -8 -8 -8 -8 -8 -8 -8 -8 -8 -8 -8 -7 -7 -5 2 20 91 97 60 13 -4 -7 -7 -8 -8 -8 -8 -8 -8 -8 -8 -8 -8 -8 -8 -8 -8 -8 -8 -8 -8 -8 -8 -8 -8 -8 -7 -7 3 70 72 23 56 64 65 65 65 65 65 65 65 65 65 66 73 101 98 60 15 3 15 91 91 13 -5 -7 -8 -8 -8 -8 -7 -7 1 65 
65 1 -7 -7 -8 -8 -8 -8 -8 -8 -8 -8 -8 -8 -8 -7 -7 1 68 146 61 1 -7 -7 -8 -8 -8 -8 -8 -8 -8 -8 -8 -8 -8 -7 -7 -7 -4 13 60 97 91 20 2 -5 -7 -7 -8 -8 -8 -8 -8 -8 -8 -8 -8 -8 -8 -8 -8 -8 -8 -8 -8 -8 -8 -8 -8 -8 -8 -8 -7 -5 14 97 56 2 0 1 1 1 1 1 1 1 1 1 1 1 3 15 60 96 97 67 74 99 21 -4 -7 -7 -8 -8 -8 -8 -7 -7 1 65 
65 1 -7 -7 -8 -8 -8 -8 -8 -8 -8 -8 -8 -8 -8 -7 -7 1 67 107 15 -5 -7 -8 -8 -8 -8 -8 -8 -8 -8 -8 -8 -7 -7 -7 -5 2 20 91 97 60 13 -4 -7 -7 -7 -8 -8 -8 -8 -8 -8 -8 -8 -8 -8 -8 -8 -8 -8 -8 -8 -8 -8 -8 -8 -8 -8 -8 -8 -7 -7 0 55 97 14 -5 -7 -7 -7 -7 -7 -7 -7 -7 -7 -7 -7 -7 -7 -5 1 15 60 100 141 78 5 -6 -7 -8 -8 -8 -8 -8 -7 -7 1 65 
65 1 -7 -7 -8 -8 -8 -8 -8 -8 -8 -8 -8 -8 -8 -7 -7 1 65 71 3 -7 -7 -8 -8 -8 -8 -8 -8 -8 -8 -7 -7 -7 -7 -4 13 61 99 92 21 2 -4 -7 -7 -7 -7 -7 -8 -8 -8 -8 -8 -8 -8 -8 -8 -8 -8 -8 -8 -8 -8 -8 -8 -8 -8 -8 -8 -8 -8 -7 -7 1 64 70 3 -7 -7 -7 -7 -7 -7 -7 -7 -7 -7 -7 -7 -7 -7 -7 -7 -5 2 21 100 102 21 -4 -7 -7 -8 -8 -8 -8 -7 -7 1 65 
65 1 -7 -7 -8 -8 -8 -8 -8 -8 -8 -8 -8 -8 -8 -7 -7 1 65 65 1 -7 -7 -8 -8 -8 -8 -8 -8 -7 -7 -7 -5 0 3 21 99 145 113 35 7 2 1 0 -5 -7 -7 -7 -7 -7 -7 -7 -7 -8 -8 -8 -8 -8 -8 -8 -8 -8 -8 -8 -8 -8 -8 -8 -8 -8 -8 -7 -7 1 65 65 1 -7 -7 -8 -8 -8 -8 -8 -8 -8 -8 -8 -8 -8 -8 -8 -7 -7 -7 -3 19 92 91 13 -5 -7 -8 -8 -8 -8 -7 -7 1 65 
65 1 -7 -7 -8 -8 -8 -8 -8 -8 -8 -8 -8 -8 -8 -7 -7 3 70 64 1 -7 -7 -8 -8 -8 -7 -7 -7 -7 -5 1 14 56 69 98 101 78 100 99 70 65 64 55 14 3 1 0 -5 -7 -7 -7 -7 -7 -7 -7 -7 -8 -8 -8 -8 -8 -8 -8 -8 -8 -8 -8 -8 -8 -8 -7 -7 1 65 65 1 -7 -7 -8 -8 -8 -8 -8 -8 -8 -8 -8 -8 -8 -8 -8 -8 -8 -7 -7 -3 20 97 60 2 -7 -7 -8 -8 -8 -7 -7 1 65 
65 1 -7 -7 -8 -8 -8 -8 -8 -8 -8 -8 -8 -8 -8 -7 -5 14 97 55 0 -7 -7 -8 -7 -7 -7 -7 -5 1 15 60 96 97 69 56 14 4 14 55 64 65 70 97 97 70 64 55 14 3 1 1 0 -5 -7 -7 -7 -7 -7 -7 -7 -7 -8 -8 -8 -8 -8 -8 -8 -8 -8 -7 -7 3 70 64 1 -7 -7 -8 -8 -8 -8 -8 -8 -8 -8 -8 -8 -8 -8 -8 -8 -8 -8 -7 -7 2 60 97 20 -4 -7 -7 -8 -8 -7 -7 1 65 
65 1 -7 -7 -8 -8 -8 -8 -8 -8 -8 -8 -8 -8 -7 -7 0 55 97 14 -5 -7 -7 -7 -7 -5 0 3 15 60 96 96 60 15 3 0 -5 -6 -5 0 1 1 3 14 55 64 70 97 97 70 65 64 55 14 3 1 0 -5 -7 -7 -7 -7 -7 -7 -7 -7 -8 -8 -8 -8 -8 -7 -5 14 97 55 0 -7 -7 -8 -8 -8 -8 -8 -8 -8 -8 -8 -8 -8 -8 -8 -8 -8 -8 -8 -7 -5 13 91 91 13 -5 -7 -8 -8 -7 -7 1 65 
65 1 -7 -7 -8 -8 -8 -8 -8 -8 -8 -8 -8 -8 -7 -7 1 64 70 3 -7 -7 -7 -5 1 14 56 69 97 96 60 15 1 -5 -7 -7 -7 -7 -7 -7 -7 -7 -7 -5 0 1 3 14 55 64 65 70 97 97 70 64 55 14 3 1 1 0 -5 -7 -7 -7 -7 -7 -7 -7 -7 -7 0 55 97 14 -5 -7 -8 -8 -8 -8 -8 -8 -8 -8 -8 -8 -8 -8 -8 -8 -8 -8 -8 -8 -7 -7 -4 20 97 60 2 -7 -7 -8 -7 -7 1 65 
65 1 -7 -7 -8 -8 -8 -8 -8 -8 -8 -8 -8 -8 -7 -7 1 65 65 2 -6 -5 1 15 60 96 97 69 56 14 1 -5 -7 -7 -7 -7 -8 -8 -8 -7 -7 -7 -7 -7 -7 -7 -7 -5 0 1 1 3 14 55 64 70 97 97 70 65 64 55 14 3 1 0 -5 -7 -7 -7 -7 -7 1 64 70 3 -7 -7 -8 -8 -8 -8 -8 -8 -8 -8 -8 -8 -8 -8 -8 -8 -8 -8 -8 -8 -8 -7 -7 2 60 97 20 -3 -7 -7 -7 -7 1 65 
65 1 -7 -7 -8 -8 -8 -8 -8 -8 -8 -8 -8 -8 -7 -7 3 70 65 4 2 15 60 96 96 60 15 3 0 -5 -7 -7 -7 -8 -8 -8 -8 -8 -8 -8 -8 -8 -8 -8 -7 -7 -7 -7 -7 -7 -7 -7 -5 0 1 3 14 55 64 65 70 97 97 70 64 55 14 3 1 1 0 -4 2 66 65 1 -7 -7 -8 -8 -8 -8 -8 -8 -8 -8 -8 -8 -8 -8 -8 -8 -8 -8 -8 -8 -8 -8 -7 -5 13 90 91 19 -4 -7 -7 -7 1 65 
65 1 -7 -7 -8 -8 -8 -8 -8 -8 -8 -8 -8 -8 -7 -5 15 99 65 23 61 96 96 60 15 1 -5 -7 -7 -7 -7 -8 -8 -8 -8 -8 -8 -8 -8 -8 -8 -8 -8 -8 -8 -8 -8 -8 -7 -7 -7 -7 -7 -7 -7 -7 -5 0 1 1 3 14 55 64 70 97 97 70 65 64 55 15 12 72 65 1 -7 -7 -8 -8 -8 -8 -8 -8 -8 -8 -8 -8 -8 -8 -8 -8 -8 -8 -8 -8 -8 -8 -7 -7 -4 19 91 90 13 -5 -7 -7 1 65 
65 1 -7 -7 -8 -8 -8 -8 -8 -8 -8 -8 -8 -7 -7 1 63 140 88 99 96 60 15 1 -5 -7 -7 -7 -7 -8 -8 -8 -8 -8 -8 -8 -8 -8 -8 -8 -8 -8 -8 -8 -8 -8 -8 -8 -8 -8 -8 -8 -8 -7 -7 -7 -7 -7 -7 -7 -7 -5 0 1 3 14 55 64 65 70 97 97 77 117 67 1 -7 -7 -8 -8 -8 -8 -8 -8 -8 -8 -8 -8 -8 -8 -8 -8 -8 -8 -8 -8 -8 -8 -8 -7 -7 -3 20 97 60 2 -7 -7 1 65 
65 1 -7 -7 -8 -8 -8 -8 -8 -8 -8 -8 -8 -7 -5 15 100 108 70 56 14 1 -5 -7 -7 -7 -8 -8 -8 -8 -8 -8 -8 -8 -8 -8 -8 -8 -8 -8 -8 -8 -8 -8 -8 -8 -8 -8 -8 -8 -8 -8 -8 -8 -8 -8 -8 -7 -7 -7 -7 -7 -7 -7 -7 -5 0 1 1 3 14 56 71 117 67 1 -7 -7 -8 -8 -8 -8 -8 -8 -8 -8 -8 -8 -8 -8 -8 -8 -8 -8 -8 -8 -8 -8 -8 -8 -7 -7 2 60 97 20 -3 -6 1 65 
65 1 -7 -7 -8 -8 -8 -8 -8 -8 -8 -8 -7 -7 2 60 98 22 3 0 -5 -7 -7 -7 -8 -8 -8 -8 -8 -8 -8 -8 -8 -8 -8 -8 -8 -8 -8 -8 -8 -8 -8 -8 -8 -8 -8 -8 -8 -8 -8 -8 -8 -8 -8 -8 -8 -8 -8 -8 -8 -8 -7 -7 -7 -7 -7 -7 -7 -7 -5 1 11 72 65 1 -7 -7 -8 -8 -8 -8 -8 -8 -8 -8 -8 -8 -8 -8 -8 -8 -8 -8 -8 -8 -8 -8 -8 -8 -8 -7 -5 13 90 91 19 -3 2 65 
65 1 -7 -7 -8 -8 -8 -8 -8 -8 -8 -7 -7 -4 20 97 60 2 -6 -7 -7 -7 -8 -8 -8 -8 -8 -8 -8 -8 -8 -8 -8 -8 -8 -8 -8 -8 -8 -8 -8 -8 -8 -8 -8 -8 -8 -8 -8 -8 -8 -8 -8 -8 -8 -8 -8 -8 -8 -8 -8 -8 -8 -8 -8 -8 -7 -7 -7 -7 -7 -6 2 66 65 1 -7 -7 -8 -8 -8 -8 -8 -8 -8 -8 -8 -8 -8 -8 -8 -8 -8 -8 -8 -8 -8 -8 -8 -8 -8 -7 -7 -4 19 91 90 14 4 65 
65 1 -7 -7 -8 -8 -8 -8 -8 -8 -8 -7 -5 13 91 91 13 -5 -7 -7 -8 -8 -8 -8 -8 -8 -8 -8 -8 -8 -8 -8 -8 -8 -8 -8 -8 -8 -8 -8 -8 -8 -8 -8 -8 -8 -8 -8 -8 -8 -8 -8 -8 -8 -8 -8 -8 -8 -8 -8 -8 -8 -8 -8 -8 -8 -8 -8 -8 -8 -7 -7 1 65 65 1 -7 -7 -8 -8 -8 -8 -8 -8 -8 -8 -8 -8 -8 -8 -8 -8 -8 -8 -8 -8 -8 -8 -8 -8 -8 -8 -7 -7 -3 20 97 61 11 66 
65 1 -7 -7 -8 -8 -8 -8 -8 -8 -7 -7 2 60 97 20 -4 -7 -7 -8 -8 -8 -8 -8 -8 -8 -8 -8 -8 -8 -8 -8 -8 -8 -8 -8 -8 -8 -8 -8 -8 -8 -8 -8 -8 -8 -8 -8 -8 -8 -8 -8 -8 -8 -8 -8 -8 -8 -8 -8 -8 -8 -8 -8 -8 -8 -8 -8 -8 -8 -7 -7 1 65 65 1 -7 -7 -8 -8 -8 -8 -8 -8 -8 -8 -8 -8 -8 -8 -8 -8 -8 -8 -8 -8 -8 -8 -8 -8 -8 -8 -8 -7 -7 2 60 98 30 68 
66 1 -7 -7 -8 -8 -8 -8 -8 -7 -7 -3 20 97 60 2 -7 -7 -8 -8 -8 -8 -8 -8 -8 -8 -8 -8 -8 -8 -8 -8 -8 -8 -8 -8 -8 -8 -8 -8 -8 -8 -8 -8 -8 -8 -8 -8 -8 -8 -8 -8 -8 -8 -8 -8 -8 -8 -8 -8 -8 -8 -8 -8 -8 -8 -8 -8 -8 -8 -7 -7 1 65 70 3 -6 -7 -8 -8 -8 -8 -8 -8 -8 -8 -8 -8 -8 -8 -8 -8 -8 -8 -8 -8 -8 -8 -8 -8 -8 -8 -8 -8 -7 -5 13 91 98 84 
67 1 -7 -7 -8 -8 -8 -8 -7 -7 -3 19 91 91 14 -4 -7 -7 -7 -7 -7 -7 -7 -7 -7 -7 -7 -7 -7 -8 -8 -8 -8 -8 -8 -8 -8 -8 -8 -8 -8 -8 -8 -8 -8 -8 -8 -8 -8 -8 -8 -8 -8 -8 -8 -8 -8 -8 -8 -8 -8 -8 -8 -8 -8 -8 -8 -8 -8 -7 -7 -6 2 62 100 21 -3 -7 -7 -7 -8 -8 -8 -8 -8 -8 -8 -8 -8 -8 -8 -8 -8 -8 -8 -8 -8 -8 -8 -8 -8 -8 -8 -8 -7 -7 -4 20 100 121 
68 1 -7 -7 -8 -8 -8 -7 -7 -3 19 94 99 28 5 1 0 -5 -7 -7 -7 -7 -7 -7 -7 -7 -7 -7 -7 -7 -7 -7 -7 -7 -7 -7 -7 -7 -7 -7 -8 -8 -8 -8 -8 -8 -8 -8 -8 -8 -8 -8 -8 -8 -8 -8 -8 -8 -8 -8 -8 -8 -8 -8 -8 -8 -8 -8 -7 -7 -5 1 16 74 141 100 21 2 -5 -7 -7 -7 -8 -8 -8 -8 -8 -8 -8 -8 -8 -8 -8 -8 -8 -8 -8 -8 -8 -8 -8 -8 -8 -8 -8 -7 -7 2 62 146 
67 1 -7 -7 -8 -8 -7 -7 -3 19 100 142 88 69 65 64 55 14 3 1 1 1 1 1 1 1 1 1 0 -5 -7 -7 -7 -7 -7 -7 -7 -7 -7 -7 -7 -7 -7 -7 -7 -7 -7 -7 -7 -7 -7 -7 -8 -8 -8 -8 -8 -8 -8 -8 -8 -8 -8 -8 -8 -8 -7 -7 -7 -4 13 60 96 98 78 101 97 60 15 1 -5 -7 -7 -8 -8 -8 -8 -8 -8 -8 -8 -8 -8 -8 -8 -8 -8 -8 -8 -8 -8 -8 -8 -8 -8 -8 -7 -5 15 107 
65 1 -7 -7 -8 -7 -7 -3 19 92 101 73 66 65 65 70 97 97 70 65 65 65 65 65 65 65 65 64 55 14 3 1 1 1 1 1 1 1 1 0 -5 -7 -7 -7 -7 -7 -7 -7 -7 -7 -7 -7 -7 -7 -7 -7 -7 -7 -7 -7 -7 -7 -7 -8 -7 -7 -7 -5 2 20 91 97 60 15 4 15 60 96 96 60 13 -4 -7 -7 -7 -8 -8 -8 -8 -8 -8 -8 -8 -8 -8 -8 -8 -8 -8 -8 -8 -8 -8 -8 -8 -8 -7 -7 3 71 
65 1 -7 -7 -7 -7 -3 19 91 91 21 3 1 1 1 3 14 55 64 65 65 65 65 65 65 65 65 70 97 97 70 65 65 65 65 65 65 65 64 55 14 3 1 1 1 1 1 1 1 1 1 0 -5 -7 -7 -7 -7 -7 -7 -7 -7 -7 -7 -7 -7 -5 1 15 60 97 91 20 2 -5 -6 -5 1 15 60 97 91 20 2 -5 -7 -7 -7 -8 -8 -8 -8 -8 -8 -8 -8 -8 -8 -8 -8 -8 -8 -8 -8 -8 -8 -8 -7 -7 1 66 
65 1 -7 -7 -7 -3 19 91 91 19 -3 -6 -7 -7 -7 -7 -5 0 1 1 1 1 1 1 1 1 1 3 14 55 64 65 65 65 65 65 65 65 70 97 97 70 65 65 65 65 65 65 65 65 64 55 14 3 1 1 1 1 1 1 1 1 0 -5 -4 13 60 96 96 60 13 -4 -7 -7 -7 -7 -7 -5 2 20 91 97 60 15 1 -5 -7 -7 -8 -8 -8 -8 -8 -8 -8 -8 -8 -8 -8 -8 -8 -8 -8 -8 -8 -8 -7 -7 1 65 
65 1 -6 -5 2 20 91 91 19 -3 -7 -7 -7 -7 -7 -7 -7 -7 -7 -7 -7 -7 -7 -7 -7 -7 -7 -7 -5 0 1 1 1 1 1 1 1 1 3 14 55 64 65 65 65 65 65 65 65 65 70 97 97 70 65 65 65 65 65 65 65 64 55 16 22 91 97 60 15 1 -5 -7 -7 -8 -8 -8 -7 -7 -7 -4 13 60 96 96 60 13 -4 -7 -7 -7 -8 -8 -8 -8 -8 -8 -8 -8 -8 -8 -8 -8 -8 -8 -8 -8 -7 -7 1 65 
65 2 -3 13 60 97 90 19 -3 -7 -7 -8 -8 -8 -8 -8 -8 -7 -7 -7 -7 -7 -7 -7 -7 -7 -7 -7 -7 -7 -7 -7 -7 -7 -7 -7 -7 -7 -7 -5 0 1 1 1 1 1 1 1 1 1 3 14 55 64 65 65 65 65 65 65 65 70 98 106 107 92 20 2 -5 -7 -7 -7 -8 -8 -8 -8 -8 -8 -7 -7 -5 1 15 60 97 91 20 2 -5 -7 -7 -7 -8 -8 -8 -8 -8 -8 -8 -8 -8 -8 -8 -8 -8 -8 -7 -7 1 65 
66 5 20 90 97 60 13 -4 -7 -7 -8 -8 -8 -8 -8 -8 -8 -8 -8 -8 -8 -8 -8 -8 -8 -8 -8 -8 -8 -7 -7 -7 -7 -7 -7 -7 -7 -7 -7 -7 -7 -7 -7 -7 -7 -7 -7 -7 -7 -7 -7 -5 0 1 1 1 1 1 1 1 1 3 22 109 109 21 -3 -7 -7 -7 -8 -8 -8 -8 -8 -8 -8 -8 -8 -7 -7 -7 -5 2 20 91 97 60 15 1 -5 -7 -7 -8 -8 -8 -8 -8 -8 -8 -8 -8 -8 -8 -8 -8 -7 -7 1 65 
69 28 92 91 20 2 -5 -7 -7 -8 -8 -8 -8 -8 -8 -8 -8 -8 -8 -8 -8 -8 -8 -8 -8 -8 -8 -8 -8 -8 -8 -8 -8 -8 -8 -8 -8 -8 -8 -8 -7 -7 -7 -7 -7 -7 -7 -7 -7 -7 -7 -7 -7 -7 -7 -7 -7 -7 -7 -7 -7 -6 3 71 71 3 -6 -7 -8 -8 -8 -8 -8 -8 -8 -8 -8 -8 -8 -8 -8 -7 -7 -7 -4 13 60 96 96 60 13 -4 -7 -7 -7 -8 -8 -8 -8 -8 -8 -8 -8 -8 -8 -8 -7 -7 1 65 
88 99 91 19 -3 -7 -7 -7 -8 -8 -8 -8 -8 -8 -8 -8 -8 -8 -8 -8 -8 -8 -8 -8 -8 -8 -8 -8 -8 -8 -8 -8 -8 -8 -8 -8 -8 -8 -8 -8 -8 -8 -8 -8 -8 -8 -8 -8 -8 -8 -8 -8 -7 -7 -7 -7 -7 -7 -7 -7 -7 -7 1 66 66 1 -7 -7 -8 -8 -8 -8 -8 -8 -8 -8 -8 -8 -8 -8 -8 -8 -8 -7 -7 -5 1 15 60 97 91 20 2 -5 -7 -7 -7 -8 -8 -8 -8 -8 -8 -8 -8 -8 -7 -7 1 66 
142 94 19 -3 -7 -7 -8 -8 -8 -8 -8 -8 -8 -8 -8 -8 -8 -8 -8 -8 -8 -8 -8 -8 -8 -8 -8 -8 -8 -8 -8 -8 -8 -8 -8 -8 -8 -8 -8 -8 -8 -8 -8 -8 -8 -8 -8 -8 -8 -8 -8 -8 -8 -8 -8 -8 -8 -8 -8 -8 -7 -7 1 65 65 1 -7 -7 -8 -8 -8 -8 -8 -8 -8 -8 -8 -8 -8 -8 -8 -8 -8 -8 -7 -7 -7 -5 2 20 91 97 60 15 1 -5 -7 -7 -7 -8 -8 -8 -8 -8 -8 -8 -7 -7 1 68 
108 21 -3 -7 -7 -8 -8 -8 -8 -8 -8 -8 -8 -8 -8 -8 -8 -8 -8 -8 -8 -8 -8 -8 -8 -8 -8 -8 -8 -8 -8 -8 -8 -8 -8 -8 -8 -8 -8 -8 -8 -8 -8 -8 -8 -8 -8 -8 -8 -8 -8 -8 -8 -8 -8 -8 -8 -8 -8 -8 -7 -7 1 65 65 1 -7 -7 -8 -8 -8 -8 -8 -8 -8 -8 -8 -8 -8 -8 -8 -8 -8 -8 -8 -8 -7 -7 -7 -4 13 60 96 96 60 15 1 -5 -7 -7 -8 -8 -8 -8 -8 -8 -7 -7 1 67 
71 3 -6 -7 -8 -8 -8 -8 -8 -8 -8 -8 -8 -8 -8 -8 -8 -8 -8 -8 -8 -8 -8 -8 -8 -8 -8 -8 -8 -8 -8 -8 -8 -8 -8 -8 -8 -8 -8 -8 -8 -8 -8 -8 -8 -8 -8 -8 -8 -8 -8 -8 -8 -8 -8 -8 -8 -8 -8 -8 -7 -7 1 65 65 1 -7 -7 -8 -8 -8 -8 -8 -8 -8 -8 -8 -8 -8 -8 -8 -8 -8 -8 -8 -8 -8 -8 -7 -7 -5 1 15 60 96 96 60 13 -4 -7 -7 -7 -7 -7 -8 -8 -7 -7 1 65 
66 1 -7 -7 -8 -8 -8 -8 -8 -8 -8 -8 -8 -8 -8 -8 -8 -8 -8 -8 -8 -8 -8 -8 -8 -8 -8 -8 -8 -8 -8 -8 -8 -8 -8 -8 -8 -8 -8 -8 -8 -8 -8 -8 -8 -8 -8 -8 -8 -8 -8 -8 -8 -8 -8 -8 -8 -8 -8 -8 -7 -7 1 65 65 1 -7 -7 -8 -8 -8 -8 -8 -8 -8 -8 -8 -8 -8 -8 -8 -8 -8 -8 -8 -8 -8 -8 -8 -7 -7 -7 -5 1 15 60 97 91 20 2 -5 -7 -7 -7 -7 -7 -7 -7 1 65 
65 1 -7 -7 -8 -8 -8 -8 -8 -8 -8 -8 -8 -8 -8 -8 -8 -8 -8 -8 -8 -8 -8 -8 -8 -8 -8 -8 -8 -8 -8 -8 -8 -8 -8 -8 -8 -8 -8 -8 -8 -8 -8 -8 -8 -8 -8 -8 -8 -8 -8 -8 -8 -8 -8 -8 -8 -8 -8 -8 -7 -7 1 65 65 1 -7 -7 -8 -8 -8 -8 -8 -8 -8 -8 -8 -8 -8 -8 -8 -8 -8 -8 -8 -8 -8 -8 -8 -8 -8 -7 -7 -7 -5 2 20 91 98 61 15 3 1 0 -5 -7 -7 -6 1 65 
65 1 -7 -7 -8 -8 -8 -8 -8 -8 -8 -8 -8 -8 -8 -8 -8 -8 -8 -8 -8 -8 -8 -8 -8 -8 -8 -8 -8 -8 -8 -8 -8 -8 -8 -8 -8 -8 -8 -8 -8 -8 -8 -8 -8 -8 -8 -8 -8 -8 -8 -8 -8 -8 -8 -8 -8 -8 -8 -8 -7 -7 1 65 65 1 -7 -7 -8 -8 -8 -8 -8 -8 -8 -8 -8 -8 -8 -8 -8 -8 -8 -8 -8 -8 -8 -8 -8 -8 -8 -8 -7 -7 -7 -6 -1 23 80 140 107 71 64 55 14 3 1 1 4 66 
65 1 -7 -7 -7 -7 -7 -7 -7 -8 -8 -8 -8 -8 -8 -8 -8 -8 -8 -8 -8 -8 -8 -8 -8 -8 -8 -8 -8 -8 -8 -8 -8 -8 -8 -8 -8 -8 -8 -8 -8 -8 -8 -8 -8 -8 -8 -8 -8 -8 -8 -8 -8 -8 -8 -8 -8 -8 -8 -8 -7 -7 1 65 65 1 -7 -7 -8 -8 -8 -8 -8 -8 -8 -8 -8 -8 -8 -8 -8 -8 -8 -8 -8 -8 -8 -8 -8 -7 -7 -7 -7 -5 0 3 15 62 103 103 73 66 70 97 97 70 64 56 24 73 
68 2 -6 -7 -7 -7 -7 -7 -7 -7 -7 -7 -7 -7 -7 -7 -7 -8 -8 -8 -8 -8 -8 -8 -8 -8 -8 -8 -8 -8 -8 -8 -8 -8 -8 -8 -8 -8 -8 -8 -8 -8 -8 -8 -8 -8 -8 -8 -8 -8 -8 -8 -8 -8 -8 -8 -8 -8 -8 -8 -7 -7 1 65 65 1 -7 -7 -8 -8 -8 -8 -8 -8 -8 -8 -8 -8 -8 -8 -8 -8 -8 -8 -8 -8 -8 -7 -7 -7 -7 -5 1 14 56 69 97 96 60 15 3 2 3 14 55 64 70 97 104 120 
74 11 2 1 1 1 1 1 0 -5 -7 -7 -7 -7 -7 -7 -7 -7 -7 -7 -7 -7 -7 -7 -7 -7 -8 -8 -8 -8 -8 -8 -8 -8 -8 -8 -8 -8 -8 -8 -8 -8 -8 -8 -8 -8 -8 -8 -8 -8 -8 -8 -8 -8 -8 -8 -8 -8 -8 -8 -7 -7 1 65 65 1 -7 -7 -8 -8 -8 -8 -8 -8 -8 -8 -8 -8 -8 -8 -8 -8 -8 -8 -7 -7 -7 -7 -5 0 3 15 60 96 97 69 56 14 1 -5 -7 -7 -7 -5 0 1 3 15 63 116 
117 72 66 65 65 65 65 64 55 14 3 1 1 1 1 1 0 -5 -7 -7 -7 -7 -7 -7 -7 -7 -7 -7 -7 -7 -7 -7 -7 -7 -8 -8 -8 -8 -8 -8 -8 -8 -8 -8 -8 -8 -8 -8 -8 -8 -8 -8 -8 -8 -8 -8 -8 -8 -8 -8 -7 -7 1 65 65 1 -7 -7 -8 -8 -8 -8 -8 -8 -8 -8 -8 -8 -8 -8 -8 -8 -7 -7 -7 -7 -5 1 14 56 69 97 96 60 15 3 0 -5 -7 -7 -7 -7 -7 -7 -7 -7 -7 -5 9 74 
117 72 66 65 65 65 65 70 97 97 70 65 65 65 65 64 55 14 3 1 1 1 1 1 1 0 -5 -7 -7 -7 -7 -7 -7 -7 -7 -7 -7 -7 -7 -7 -7 -7 -7 -8 -8 -8 -8 -8 -8 -8 -8 -8 -8 -8 -8 -8 -8 -8 -8 -8 -7 -7 1 65 65 1 -7 -7 -8 -8 -8 -8 -8 -8 -8 -8 -8 -8 -8 -8 -7 -7 -7 -5 0 3 15 60 96 97 69 56 14 1 -5 -7 -7 -7 -7 -8 -8 -8 -8 -8 -7 -7 -7 -7 2 68 
72 11 2 1 1 1 1 3 14 55 64 65 65 65 65 70 97 97 70 65 65 65 65 65 64 55 14 3 1 1 1 1 1 0 -5 -7 -7 -7 -7 -7 -7 -7 -7 -7 -7 -7 -7 -7 -7 -7 -7 -8 -8 -8 -8 -8 -8 -8 -8 -8 -7 -7 1 65 65 1 -7 -7 -8 -8 -8 -8 -8 -8 -8 -8 -8 -7 -7 -7 -7 -5 1 14 56 69 97 96 60 15 3 0 -5 -7 -7 -7 -7 -8 -8 -8 -8 -8 -8 -8 -8 -8 -7 -7 1 65 
66 2 -6 -7 -7 -7 -7 -7 -5 0 1 1 1 1 1 3 14 55 64 65 65 65 65 65 70 97 97 70 65 65 65 65 64 55 14 3 1 1 1 1 1 1 0 -5 -7 -7 -7 -7 -7 -7 -7 -7 -7 -7 -7 -7 -7 -7 -7 -7 -7 -7 1 65 65 1 -7 -7 -8 -8 -8 -8 -8 -8 -8 -7 -7 -7 -7 -5 1 15 60 96 97 69 56 14 1 -5 -7 -7 -7 -7 -8 -8 -8 -8 -8 -8 -8 -8 -8 -8 -8 -8 -7 -7 1 65 
65 1 -7 -7 -7 -7 -7 -7 -7 -7 -7 -7 -7 -7 -7 -7 -5 0 1 1 1 1 1 1 3 14 55 64 65 65 65 65 70 97 97 70 65 65 65 65 65 64 55 14 3 1 1 1 1 1 0 -5 -7 -7 -7 -7 -7 -7 -7 -7 -7 -7 1 65 65 1 -7 -7 -8 -8 -8 -8 -7 -7 -7 -7 -5 0 3 15 60 96 96 60 15 3 0 -5 -7 -7 -7 -7 -8 -8 -8 -8 -8 -8 -8 -8 -8 -8 -8 -8 -8 -8 -7 -7 1 65 
65 1 -7 -7 -8 -8 -8 -8 -8 -7 -7 -7 -7 -7 -7 -7 -7 -7 -7 -7 -7 -7 -7 -7 -7 -5 0 1 1 1 1 1 3 14 55 64 65 65 65 65 65 70 97 97 70 65 65 65 65 64 55 14 3 1 1 1 1 1 1 0 -5 -6 2 66 66 1 -7 -7 -8 -8 -7 -7 -7 -7 -5 1 14 56 69 97 96 60 15 1 -5 -7 -7 -7 -7 -8 -8 -8 -8 -8 -8 -8 -8 -8 -8 -8 -8 -8 -8 -8 -8 -8 -7 -7 1 65 
65 1 -7 -7 -8 -8 -8 -8 -8 -8 -8 -8 -8 -8 -8 -8 -8 -7 -7 -7 -7 -7 -7 -7 -7 -7 -7 -7 -7 -7 -7 -7 -7 -5 0 1 1 1 1 1 1 3 14 55 64 65 65 65 65 70 97 97 70 65 65 65 65 65 64 55 14 4 11 72 71 3 -6 -7 -7 -7 -7 -5 0 3 15 60 96 97 69 56 14 1 -5 -7 -7 -7 -7 -8 -8 -8 -8 -8 -8 -8 -8 -8 -8 -8 -8 -8 -8 -8 -8 -8 -8 -8 -7 -7 1 65 
65 1 -7 -7 -8 -8 -8 -8 -8 -8 -8 -8 -8 -8 -8 -8 -8 -8 -8 -8 -8 -8 -8 -8 -8 -8 -7 -7 -7 -7 -7 -7 -7 -7 -7 -7 -7 -7 -7 -7 -7 -7 -5 0 1 1 1 1 1 3 14 55 64 65 65 65 65 65 70 97 97 70 73 117 109 21 -3 -6 -7 -5 1 14 56 69 97 96 60 15 3 0 -5 -7 -7 -7 -8 -8 -8 -8 -8 -8 -8 -8 -8 -8 -8 -8 -8 -8 -8 -8 -8 -8 -8 -8 -8 -8 -7 -7 1 65 
65 1 -7 -7 -8 -8 -8 -8 -8 -8 -8 -8 -8 -8 -8 -8 -8 -8 -8 -8 -8 -8 -8 -8 -8 -8 -8 -8 -8 -8 -8 -8 -8 -8 -7 -7 -7 -7 -7 -7 -7 -7 -7 -7 -7 -7 -7 -7 -7 -7 -5 0 1 1 1 1 1 1 3 14 55 64 66 73 102 92 21 3 3 15 60 96 97 69 56 14 1 -5 -7 -7 -7 -7 -8 -8 -8 -8 -8 -8 -8 -8 -8 -8 -8 -8 -8 -8 -8 -8 -8 -8 -8 -8 -8 -8 -8 -8 -7 -7 1 65 
65 1 -7 -7 -8 -8 -8 -8 -8 -8 -8 -8 -8 -8 -8 -8 -8 -8 -8 -8 -8 -8 -8 -8 -8 -8 -8 -8 -8 -8 -8 -8 -8 -8 -8 -8 -8 -8 -8 -8 -8 -8 -8 -7 -7 -7 -7 -7 -7 -7 -7 -7 -7 -7 -7 -7 -7 -7 -7 -5 0 1 1 3 21 92 102 73 70 97 96 60 15 3 0 -5 -7 -7 -7 -7 -8 -8 -8 -8 -8 -8 -8 -8 -8 -8 -8 -8 -8 -8 -8 -8 -8 -8 -8 -8 -8 -8 -8 -8 -8 -8 -7 -7 1 65 
65 1 -7 -7 -8 -8 -8 -8 -8 -8 -8 -8 -8 -8 -8 -8 -8 -8 -8 -8 -8 -8 -8 -8 -8 -8 -8 -8 -8 -8 -8 -8 -8 -8 -8 -8 -8 -8 -8 -8 -8 -8 -8 -8 -8 -8 -8 -8 -8 -8 -8 -7 -7 -7 -7 -7 -7 -7 -7 -7 -7 -7 -7 -6 -3 21 109 117 71 56 14 1 -5 -7 -7 -7 -7 -8 -8 -8 -8 -8 -8 -8 -8 -8 -8 -8 -8 -8 -8 -8 -8 -8 -8 -8 -8 -8 -8 -8 -8 -8 -8 -8 -8 -8 -7 -7 1 65 
65 1 -7 -7 -8 -8 -8 -8 -8 -8 -8 -8 -8 -8 -8 -8 -8 -8 -8 -8 -8 -8 -8 -8 -8 -8 -8 -8 -8 -8 -8 -8 -8 -8 -8 -8 -8 -8 -8 -8 -8 -8 -8 -8 -8 -8 -8 -8 -8 -8 -8 -8 -8 -8 -8 -8 -8 -8 -8 -8 -7 -7 -7 -7 -6 3 71 72 11 1 -5 -7 -7 -7 -7 -8 -8 -8 -8 -8 -8 -8 -8 -8 -8 -8 -8 -8 -8 -8 -8 -8 -8 -8 -8 -8 -8 -8 -8 -8 -8 -8 -8 -8 -8 -8 -7 -7 1 65 
65 1 -7 -7 -7 -7 -7 -7 -7 -7 -7 -7 -7 -7 -7 -7 -7 -7 -7 -7 -7 -7 -7 -7 -7 -7 -7 -7 -7 -7 -7 -7 -7 -7 -7 -7 -7 -7 -7 -7 -7 -7 -7 -7 -7 -7 -7 -7 -7 -7 -7 -7 -7 -7 -7 -7 -7 -7 -7 -7 -7 -7 -7 -7 -7 2 66 66 2 -6 -7 -7 -7 -7 -7 -7 -7 -7 -7 -7 -7 -7 -7 -7 -7 -7 -7 -7 -7 -7 -7 -7 -7 -7 -7 -7 -7 -7 -7 -7 -7 -7 -7 -7 -7 -7 -7 -7 1 65 
66 2 -6 -7 -7 -7 -7 -7 -7 -7 -7 -7 -7 -7 -7 -7 -7 -7 -7 -7 -7 -7 -7 -7 -7 -7 -7 -7 -7 -7 -7 -7 -7 -7 -7 -7 -7 -7 -7 -7 -7 -7 -7 -7 -7 -7 -7 -7 -7 -7 -7 -7 -7 -7 -7 -7 -7 -7 -7 -7 -7 -7 -7 -7 -6 2 66 66 2 -6 -7 -7 -7 -7 -7 -7 -7 -7 -7 -7 -7 -7 -7 -7 -7 -7 -7 -7 -7 -7 -7 -7 -7 -7 -7 -7 -7 -7 -7 -7 -7 -7 -7 -7 -7 -7 -7 -6 2 66 
72 11 2 1 1 1 1 1 1 1 1 1 1 1 1 1 1 1 1 1 1 1 1 1 1 1 1 1 1 1 1 1 1 1 1 1 1 1 1 1 1 1 1 1 1 1 1 1 1 1 1 1 1 1 1 1 1 1 1 1 1 1 1 1 2 11 72 72 11 2 1 1 1 1 1 1 1 1 1 1 1 1 1 1 1 1 1 1 1 1 1 1 1 1 1 1 1 1 1 1 1 1 1 1 1 1 1 2 11 72 
119 72 66 65 65 65 65 65 65 65 65 65 65 65 65 65 65 65 65 65 65 65 65 65 65 65 65 65 65 65 65 65 66 68 67 65 65 65 65 65 65 65 65 65 65 65 65 65 65 67 67 65 65 65 65 65 65 65 65 65 65 65 65 65 66 72 117 117 72 66 65 65 65 65 65 65 65 65 65 65 65 65 65 65 65 65 65 65 65 65 65 66 68 67 65 65 65 65 65 65 65 65 65 66 68 67 65 66 72 119 
