P2
110 110
255
153 125 106 98 96 95 95 95 95 95 95 95 95 95 95 95 95 95 95 95 95 95 95 95 95 95 95 96 96 99 106 121 138 140 125 108 100 97 96 95 95 95 95 95 95 96 98 104 120 139 139 119 104 98 96 95 95 95 95 95 95 95 95 96 97 99 103 103 99 97 96 95 95 95 95 95 95 95 95 95 95 95 95 95 95 95 95 96 97 102 115 134 142 127 109 100 97 96 95 96 97 101 113 132 142 129 113 110 126 153 
125 86 59 49 46 46 45 45 45 45 45 45 45 45 45 45 45 45 45 45 45 45 45 45 45 45 46 46 48 55 72 104 130 119 86 61 50 47 46 46 45 45 45 45 46 46 50 61 89 127 125 86 59 49 46 46 45 45 45 45 45 45 45 45 45 45 45 45 45 45 45 45 45 45 45 45 45 45 45 45 45 45 45 45 45 46 46 47 50 62 89 124 126 92 64 51 47 46 46 46 48 57 80 118 129 98 69 65 88 126 
106 59 28 17 14 13 13 13 13 13 13 13 13 13 13 13 13 13 13 13 13 13 13 13 13 13 13 15 19 33 62 102 113 80 43 23 16 14 13 13 13 13 13 13 13 14 19 34 70 116 108 59 28 17 14 13 13 13 13 13 13 13 13 13 13 12 12 12 12 13 13 13 13 13 13 13 13 13 13 13 13 13 13 13 13 13 13 15 21 39 78 114 97 54 27 17 14 13 13 14 17 29 59 104 108 65 35 33 60 106 
98 49 17 5 2 1 1 1 1 1 1 1 1 1 1 1 1 1 1 1 1 1 1 1 1 1 2 5 15 38 78 108 90 47 19 7 3 1 1 1 1 1 1 1 2 4 11 31 75 121 103 48 16 5 2 1 1 1 1 1 1 1 1 1 1 1 1 1 1 1 1 1 1 1 1 1 1 1 1 1 1 1 1 1 1 1 2 5 14 40 86 107 71 30 10 3 2 1 1 2 7 21 58 103 94 47 20 21 50 98 
96 46 14 2 0 -1 -1 -1 -1 -1 -1 -1 -1 -1 -1 -1 -1 -1 -1 -1 -1 -1 -1 -1 -1 0 1 7 25 61 100 99 60 25 7 0 -1 -1 -1 -1 -1 -1 -1 -1 0 3 15 44 95 134 103 45 13 2 0 -1 -1 -1 -1 -1 -1 -1 -1 -1 -1 -1 -1 -1 -1 -1 -1 -1 -1 -1 -1 -1 -1 -1 -1 -1 -1 -1 -1 -1 -1 -1 0 4 18 52 98 97 51 17 3 0 -1 -1 -1 0 6 25 68 106 82 35 13 17 47 96 
95 46 13 1 -1 -2 -2 -2 -2 -2 -2 -2 -2 -2 -2 -2 -2 -2 -2 -2 -2 -2 -2 -2 -1 0 3 17 46 88 105 74 34 11 1 -1 -2 -2 -2 -2 -2 -2 -2 -1 0 7 26 66 118 141 103 45 13 1 -1 -2 -2 -2 -2 -2 -2 -2 -2 -2 -2 -2 -2 -2 -2 -2 -2 -2 -2 -2 -2 -2 -2 -2 -2 -2 -2 -2 -2 -2 -2 -1 0 7 28 70 105 82 36 10 1 -1 -2 -2 -1 0 9 34 81 105 67 26 9 15 46 96 
95 45 13 1 -1 -2 -2 -2 -2 -2 -2 -2 -2 -2 -2 -2 -2 -2 -2 -2 -2 -2 -2 -2 -1 1 11 34 74 105 88 46 17 3 0 -2 -2 -2 -2 -2 -2 -2 -2 -1 2 14 44 91 130 138 104 48 14 2 -1 -2 -2 -2 -2 -2 -2 -2 -2 -2 -2 -2 -2 -2 -2 -2 -2 -2 -2 -2 -2 -2 -2 -2 -2 -2 -2 -2 -2 -2 -2 -1 2 14 44 89 103 63 23 5 0 -2 -2 -2 -1 1 12 43 92 100 54 18 7 14 46 95 
95 45 13 1 -1 -2 -2 -2 -2 -2 -2 -2 -2 -2 -2 -2 -2 -2 -2 -2 -2 -2 -2 -1 0 6 25 60 99 99 60 25 6 0 -1 -2 -2 -2 -2 -2 -2 -2 -1 0 7 27 67 110 122 125 107 55 18 3 -1 -2 -2 -2 -2 -2 -2 -2 -2 -2 -2 -2 -2 -2 -2 -2 -2 -2 -2 -2 -2 -2 -2 -2 -2 -2 -2 -2 -2 -2 -2 0 5 23 63 103 89 44 14 2 -1 -2 -2 -2 -1 3 17 54 100 92 44 13 5 14 46 95 
95 45 13 1 -1 -2 -2 -2 -2 -2 -2 -2 -2 -2 -2 -2 -2 -2 -2 -2 -2 -2 -2 0 3 17 46 88 105 74 34 11 1 -1 -2 -2 -2 -2 -2 -2 -2 -2 0 3 17 48 91 111 99 106 110 67 24 5 0 -2 -2 -2 -2 -2 -2 -2 -2 -2 -2 -2 -2 -2 -2 -2 -2 -2 -2 -2 -2 -2 -2 -2 -2 -2 -2 -2 -2 -2 -1 0 10 36 82 105 69 28 7 0 -1 -2 -2 -2 0 5 25 67 105 81 34 10 4 13 46 95 
95 46 13 1 -1 -2 -2 -2 -2 -2 -2 -2 -2 -2 -2 -2 -2 -2 -2 -2 -2 -2 -1 1 11 34 74 105 88 46 17 3 0 -2 -2 -2 -2 -2 -2 -2 -2 -1 1 11 34 74 106 94 70 83 108 80 33 8 0 -1 -2 -2 -2 -2 -2 -2 -2 -2 -2 -2 -2 -2 -2 -2 -2 -2 -2 -2 -2 -2 -2 -2 -2 -2 -2 -2 -2 -2 -1 3 17 51 97 97 51 17 3 -1 -2 -2 -2 -1 0 9 34 81 105 67 25 6 3 13 46 95 
96 46 13 1 -1 -2 -2 -2 -2 -2 -2 -2 -2 -2 -2 -2 -2 -2 -2 -2 -2 -1 0 6 25 60 99 99 60 25 6 0 -1 -2 -2 -2 -2 -2 -2 -2 -2 0 6 24 60 99 100 65 45 64 103 89 40 11 0 -1 -2 -2 -2 -2 -2 -2 -2 -2 -2 -2 -2 -2 -2 -2 -2 -2 -2 -2 -2 -2 -2 -2 -2 -2 -2 -2 -2 -1 0 7 28 69 105 82 36 10 0 -1 -2 -2 -2 -1 1 12 43 92 100 54 17 4 2 13 45 95 
97 47 13 1 -1 -2 -2 -2 -2 -2 -2 -2 -2 -2 -2 -2 -2 -2 -2 -2 -2 0 3 17 46 88 105 74 34 11 1 -1 -2 -2 -2 -2 -2 -2 -2 -2 -1 2 14 43 86 105 75 39 28 53 98 93 44 12 1 -1 -2 -2 -2 -2 -2 -2 -2 -2 -2 -2 -2 -2 -2 -2 -2 -2 -2 -2 -2 -2 -2 -2 -2 -2 -2 -2 -2 -1 2 14 44 89 103 63 23 5 0 -2 -2 -2 -2 -1 3 17 54 100 92 43 13 2 2 13 45 96 
100 50 16 2 -1 -2 -2 -2 -2 -2 -2 -2 -2 -2 -2 -2 -2 -2 -2 -2 -1 1 11 34 74 105 88 46 17 3 0 -2 -2 -2 -2 -2 -2 -2 -2 -1 0 6 26 66 103 91 48 21 19 48 96 95 46 13 1 -1 -2 -2 -2 -2 -2 -2 -2 -2 -2 -2 -2 -2 -2 -2 -2 -2 -2 -2 -2 -2 -2 -2 -2 -2 -2 -2 -2 0 5 23 63 103 89 44 14 2 -1 -2 -2 -2 -2 0 5 25 67 105 81 34 9 1 2 13 45 96 
108 61 22 5 0 -1 -2 -2 -2 -2 -2 -2 -2 -2 -2 -2 -2 -2 -2 -1 0 6 25 60 99 99 60 25 6 0 -1 -2 -2 -2 -2 -2 -2 -2 -2 -1 2 14 44 89 104 67 28 11 15 44 94 98 49 15 2 -1 -2 -2 -2 -2 -2 -2 -2 -2 -2 -2 -2 -2 -2 -2 -2 -2 -2 -2 -2 -2 -2 -2 -2 -2 -2 -2 -1 0 10 36 82 105 69 28 7 0 -1 -2 -2 -2 -1 0 9 34 81 105 67 25 5 0 1 13 45 98 
124 84 40 15 3 0 -2 -2 -2 -2 -2 -2 -2 -2 -2 -2 -2 -2 -2 0 3 17 46 88 105 74 34 11 1 -1 -2 -2 -2 -2 -2 -2 -2 -2 -1 0 7 27 67 104 89 44 15 6 12 40 89 101 55 18 3 -1 -2 -2 -2 -2 -2 -2 -2 -2 -2 -2 -2 -2 -2 -2 -2 -2 -2 -2 -2 -2 -2 -2 -2 -2 -2 -2 -1 3 17 51 97 97 51 17 3 -1 -2 -2 -2 -2 -1 1 12 43 92 100 54 17 3 0 1 12 45 101 
140 116 72 35 12 2 -1 -2 -2 -2 -2 -2 -2 -2 -2 -2 -2 -2 -1 1 11 34 74 105 88 46 17 3 0 -2 -2 -2 -2 -2 -2 -2 -2 -2 0 3 17 48 91 103 66 26 7 2 9 33 80 105 67 25 5 0 -2 -2 -2 -2 -2 -2 -2 -2 -2 -2 -2 -2 -2 -2 -2 -2 -2 -2 -2 -2 -2 -2 -2 -2 -2 -1 0 7 28 69 105 82 36 10 0 -1 -2 -2 -2 -2 -1 3 17 54 100 92 43 12 1 0 1 12 44 103 
139 131 106 67 31 10 1 -1 -2 -2 -2 -2 -2 -2 -2 -2 -2 -1 0 6 25 60 99 99 60 25 6 0 -1 -2 -2 -2 -2 -2 -2 -2 -2 -1 1 11 34 74 105 86 43 14 2 0 5 25 67 105 80 33 8 0 -1 -2 -2 -2 -2 -2 -2 -2 -2 -2 -2 -2 -2 -2 -2 -2 -2 -2 -2 -2 -2 -2 -2 -2 -2 -1 2 14 44 89 103 63 23 5 0 -2 -2 -2 -2 -2 0 5 25 67 105 81 34 9 0 -1 1 12 45 102 
124 114 113 99 59 24 7 0 -1 -2 -2 -2 -2 -2 -2 -2 -2 0 3 17 46 88 105 74 34 11 1 -1 -2 -2 -2 -2 -2 -2 -2 -2 -2 0 6 24 60 99 99 60 24 6 0 0 3 18 55 101 89 40 11 0 -1 -2 -2 -2 -2 -2 -2 -2 -2 -2 -2 -2 -2 -2 -2 -2 -2 -2 -2 -2 -2 -2 -2 -2 -2 0 5 23 63 103 89 44 14 2 -1 -2 -2 -2 -2 -1 0 9 34 81 105 67 25 5 0 -1 1 13 45 99 
109 86 91 108 88 47 18 4 0 -1 -2 -2 -2 -2 -2 -2 -1 1 11 34 74 105 88 46 17 3 0 -2 -2 -2 -2 -2 -2 -2 -2 -2 -1 2 14 43 86 105 74 34 11 1 -1 -1 2 15 49 98 93 44 12 1 -1 -2 -2 -2 -2 -2 -2 -2 -2 -2 -2 -2 -2 -2 -2 -2 -2 -2 -2 -2 -2 -2 -2 -2 -1 0 10 36 82 105 69 28 7 0 -1 -2 -2 -2 -2 -1 1 12 43 92 100 54 17 3 -1 -1 1 13 45 97 
101 66 62 92 106 77 39 15 3 0 -1 -2 -2 -2 -2 -1 0 6 25 60 99 99 60 25 6 0 -1 -2 -2 -2 -2 -2 -2 -2 -2 -1 0 6 26 66 103 91 48 17 3 0 -1 -1 1 13 46 95 95 46 13 1 -1 -2 -2 -2 -2 -2 -2 -2 -2 -2 -2 -2 -2 -2 -2 -2 -2 -2 -2 -2 -2 -2 -2 -2 -1 3 17 51 97 97 51 17 3 -1 -2 -2 -2 -2 -2 -1 3 17 54 100 92 43 12 1 -1 -1 1 13 45 96 
98 55 40 63 98 102 71 36 14 3 0 -1 -2 -2 -2 0 3 17 46 88 105 74 34 11 1 -1 -2 -2 -2 -2 -2 -2 -2 -2 -2 -1 2 14 44 89 104 67 27 7 0 -1 -2 -1 1 12 44 93 98 49 15 2 -1 -2 -2 -2 -2 -2 -2 -2 -2 -2 -2 -2 -2 -2 -2 -2 -2 -2 -2 -2 -2 -2 -2 -1 0 7 28 69 105 82 36 10 0 -1 -2 -2 -2 -2 -2 0 5 25 67 105 81 34 9 0 -1 -1 1 13 45 96 
96 49 26 35 68 100 101 70 36 14 3 0 -1 -2 -1 1 11 34 74 105 88 46 17 3 0 -2 -2 -2 -2 -2 -2 -2 -2 -2 -1 0 7 27 67 104 89 44 14 2 -1 -2 -2 -1 0 11 40 89 101 55 18 3 -1 -2 -2 -2 -2 -2 -2 -2 -2 -2 -2 -2 -2 -2 -2 -2 -2 -2 -2 -2 -2 -2 -2 -1 2 14 44 89 103 63 23 5 0 -2 -2 -2 -2 -2 -1 0 9 34 81 105 67 25 5 0 -1 -1 1 13 45 95 
96 47 18 17 35 70 101 101 70 36 14 3 0 -1 0 7 25 60 99 99 60 25 6 0 -1 -2 -2 -2 -2 -2 -2 -2 -2 -2 0 3 17 48 91 103 66 26 6 0 -1 -2 -2 -1 0 8 33 80 105 67 25 5 0 -2 -2 -2 -2 -2 -2 -2 -2 -2 -2 -2 -2 -2 -2 -2 -2 -2 -2 -2 -2 -2 -2 0 5 23 63 103 89 44 14 2 -1 -2 -2 -2 -2 -2 -1 1 12 43 92 100 54 17 3 -1 -2 -1 1 13 45 95 
95 46 15 7 14 36 70 101 101 70 36 14 4 1 4 17 46 88 105 74 34 11 1 -1 -2 -2 -2 -2 -2 -2 -2 -2 -2 -1 1 11 34 74 105 86 43 14 2 -1 -2 -2 -2 -2 0 5 25 67 105 80 33 8 0 -1 -2 -2 -2 -2 -2 -2 -2 -2 -2 -2 -2 -2 -2 -2 -2 -2 -2 -2 -2 -2 -1 0 10 36 82 105 69 28 7 0 -1 -2 -2 -2 -2 -2 -1 3 17 54 100 92 43 12 1 -1 -2 -1 1 13 45 95 
95 46 13 3 4 14 36 70 101 101 70 36 15 8 13 35 74 105 88 46 17 3 0 -2 -2 -2 -2 -2 -2 -2 -2 -2 -2 0 6 24 60 99 99 60 24 6 0 -2 -2 -2 -2 -2 -1 3 18 55 101 89 40 11 0 -1 -2 -2 -2 -2 -2 -2 -2 -2 -2 -2 -2 -2 -2 -2 -2 -2 -2 -2 -2 -2 -1 3 17 51 97 97 51 17 3 -1 -2 -2 -2 -2 -2 -2 0 5 25 67 105 81 34 9 0 -1 -2 -1 1 13 45 95 
95 46 13 2 0 3 14 36 70 101 101 70 38 23 31 62 100 99 60 25 6 0 -1 -2 -2 -2 -2 -2 -2 -2 -2 -2 -1 2 14 43 86 105 74 34 11 1 -1 -2 -2 -2 -2 -2 -1 2 14 48 97 94 44 13 1 -1 -2 -2 -2 -2 -2 -2 -2 -2 -2 -2 -2 -2 -2 -2 -2 -2 -2 -2 -2 -1 0 7 28 69 105 82 36 10 0 -1 -2 -2 -2 -2 -2 -1 0 9 34 81 105 67 25 5 0 -2 -2 -1 1 13 45 95 
95 45 13 1 -1 0 3 14 36 70 101 102 76 55 62 93 106 74 34 11 1 -1 -2 -2 -2 -2 -2 -2 -2 -2 -2 -1 0 6 26 66 103 91 48 17 3 0 -2 -2 -2 -2 -2 -2 -1 1 13 44 94 97 48 14 2 -1 -2 -2 -2 -2 -2 -2 -2 -2 -2 -2 -2 -2 -2 -2 -2 -2 -2 -2 -2 -1 2 14 44 89 103 63 23 5 0 -2 -2 -2 -2 -2 -2 -1 1 12 43 92 100 54 17 3 -1 -2 -2 -1 1 13 45 95 
95 45 13 1 -1 -1 0 3 14 36 70 103 110 101 104 113 89 46 17 3 0 -2 -2 -2 -2 -2 -2 -2 -2 -2 -2 -1 2 14 44 89 104 67 27 7 0 -1 -2 -2 -2 -2 -2 -2 -1 0 11 40 89 101 55 18 3 -1 -2 -2 -2 -2 -2 -2 -2 -2 -2 -2 -2 -2 -2 -2 -2 -2 -2 -2 -2 0 5 23 63 103 89 44 14 2 -1 -2 -2 -2 -2 -2 -2 -1 3 17 54 100 92 43 12 1 -1 -2 -2 -1 1 13 45 95 
95 45 13 1 -1 -2 -1 0 3 14 36 72 112 135 135 107 61 25 6 0 -1 -2 -2 -2 -2 -2 -2 -2 -2 -2 -1 0 7 27 67 104 89 44 14 2 -1 -2 -2 -2 -2 -2 -2 -2 -1 0 8 33 80 105 67 25 5 0 -2 -2 -2 -2 -2 -2 -2 -2 -2 -2 -2 -2 -2 -2 -2 -2 -2 -2 -1 0 10 36 82 105 69 28 7 0 -1 -2 -2 -2 -2 -2 -2 0 5 25 67 105 81 34 9 0 -1 -2 -2 -1 1 13 45 95 
95 45 13 1 -1 -2 -2 -1 0 3 15 40 84 131 131 83 36 11 1 -1 -2 -2 -2 -2 -2 -2 -2 -2 -2 -2 0 3 17 48 91 103 66 26 6 0 -1 -2 -2 -2 -2 -2 -2 -2 -2 0 5 25 67 105 80 33 8 0 -1 -2 -2 -2 -2 -2 -2 -2 -2 -2 -2 -2 -2 -2 -2 -2 -2 -2 -1 3 17 51 97 97 51 17 3 -1 -2 -2 -2 -2 -2 -2 -1 0 9 34 81 105 67 25 5 0 -2 -2 -2 -1 1 13 45 95 
95 45 13 1 -1 -2 -2 -2 -1 0 5 22 59 110 114 64 23 5 0 -2 -2 -2 -2 -2 -2 -2 -2 -2 -2 -1 1 11 34 74 105 86 43 14 2 -1 -2 -2 -2 -2 -2 -2 -2 -2 -2 -1 3 18 55 101 89 40 11 0 -1 -2 -2 -2 -2 -2 -2 -2 -2 -2 -2 -2 -2 -2 -2 -2 -2 -1 0 7 28 69 105 82 36 10 0 -1 -2 -2 -2 -2 -2 -2 -1 1 12 43 92 100 54 17 3 -1 -2 -2 -2 -1 1 13 45 95 
95 45 13 1 -1 -2 -2 -2 -2 -1 2 13 45 95 107 60 21 4 0 -2 -2 -2 -2 -2 -2 -2 -2 -2 -2 0 6 24 60 99 99 60 24 6 0 -2 -2 -2 -2 -2 -2 -2 -2 -2 -2 -1 2 15 49 98 93 44 12 1 -1 -2 -2 -2 -2 -2 -2 -2 -2 -2 -2 -2 -2 -2 -2 -2 -2 -1 2 14 44 89 103 63 23 5 0 -2 -2 -2 -2 -2 -2 -2 -1 3 17 54 100 92 43 12 1 -1 -2 -2 -2 -1 1 13 45 95 
95 45 13 1 -1 -2 -2 -2 -2 -1 0 9 34 82 107 68 25 5 0 -2 -2 -2 -2 -2 -2 -2 -2 -2 -1 2 14 43 86 105 74 34 11 1 -1 -2 -2 -2 -2 -2 -2 -2 -2 -2 -2 -1 1 13 46 95 95 46 13 1 -1 -2 -2 -2 -2 -2 -2 -2 -2 -2 -2 -2 -2 -2 -2 -2 -2 0 5 23 63 103 89 44 14 2 -1 -2 -2 -2 -2 -2 -2 -2 0 5 25 67 105 81 34 9 0 -1 -2 -2 -2 -1 1 13 46 95 
95 45 13 1 -1 -2 -2 -2 -2 -2 0 5 25 67 105 81 33 8 0 -1 -2 -2 -2 -2 -2 -2 -2 -1 0 6 26 66 103 91 48 17 3 0 -2 -2 -2 -2 -2 -2 -2 -2 -2 -2 -2 -1 1 12 44 93 98 49 15 2 -1 -2 -2 -2 -2 -2 -2 -2 -2 -2 -2 -2 -2 -2 -2 -2 -1 0 10 36 82 105 69 28 7 0 -1 -2 -2 -2 -2 -2 -2 -1 0 9 34 81 105 67 25 5 0 -2 -2 -2 -2 -1 1 13 46 96 
96 45 13 1 -1 -2 -2 -2 -2 -2 -1 3 18 55 101 90 41 11 1 -1 -2 -2 -2 -2 -2 -2 -2 -1 2 14 44 89 104 67 27 7 0 -1 -2 -2 -2 -2 -2 -2 -2 -2 -2 -2 -2 -1 0 11 40 89 101 55 18 3 -1 -2 -2 -2 -2 -2 -2 -2 -2 -2 -2 -2 -2 -2 -2 -2 -1 3 17 51 97 97 51 17 3 -1 -2 -2 -2 -2 -2 -2 -2 -1 1 12 43 92 100 54 17 3 -1 -2 -2 -2 -2 -1 1 13 46 96 
96 45 13 1 -1 -2 -2 -2 -2 -2 -1 1 14 47 96 96 47 14 1 -1 -2 -2 -2 -2 -2 -2 -1 0 7 27 67 104 89 44 14 2 -1 -2 -2 -2 -2 -2 -2 -2 -2 -2 -2 -2 -2 -1 0 8 33 80 105 67 25 5 0 -2 -2 -2 -2 -2 -2 -2 -2 -2 -2 -2 -2 -2 -2 -1 0 7 28 69 105 82 36 10 0 -1 -2 -2 -2 -2 -2 -2 -2 -1 3 17 54 100 92 43 12 1 -1 -2 -2 -2 -2 -1 2 15 49 99 
97 45 12 1 -1 -2 -2 -2 -2 -2 -1 1 11 41 90 101 55 18 3 -1 -2 -2 -2 -2 -2 -2 0 3 17 48 91 103 66 26 6 0 -1 -2 -2 -2 -2 -2 -2 -2 -2 -2 -2 -2 -2 -2 0 5 25 67 105 80 33 8 0 -1 -2 -2 -2 -2 -2 -2 -2 -2 -2 -2 -2 -2 -2 -1 2 14 44 89 103 63 23 5 0 -2 -2 -2 -2 -2 -2 -2 -2 0 5 25 67 105 81 34 9 0 -1 -2 -2 -2 -2 0 3 19 56 106 
100 44 12 1 -1 -2 -2 -2 -2 -2 -1 0 8 33 80 105 67 25 5 0 -2 -2 -2 -2 -2 -1 1 11 34 74 105 86 43 14 2 -1 -2 -2 -2 -2 -2 -2 -2 -2 -2 -2 -2 -2 -2 -2 -1 3 18 55 101 89 40 11 0 -1 -2 -2 -2 -2 -2 -2 -2 -2 -2 -2 -2 -2 -2 0 5 23 63 103 89 44 14 2 -1 -2 -2 -2 -2 -2 -2 -2 -1 0 9 34 81 105 67 25 5 0 -2 -2 -2 -2 -1 0 7 28 72 119 
102 44 12 1 -1 -2 -2 -2 -2 -2 -2 0 5 25 67 105 80 33 8 0 -1 -2 -2 -2 -2 0 6 24 60 99 99 60 24 6 0 -2 -2 -2 -2 -2 -2 -2 -2 -2 -2 -2 -2 -2 -2 -2 -1 2 15 49 98 93 44 12 1 -1 -2 -2 -2 -2 -2 -2 -2 -2 -2 -2 -2 -2 -1 0 10 36 82 105 69 28 7 0 -1 -2 -2 -2 -2 -2 -2 -2 -1 1 12 43 92 100 54 17 3 -1 -2 -2 -2 -2 0 3 17 47 97 134 
102 44 12 1 -1 -2 -2 -2 -2 -2 -2 -1 3 18 55 101 90 41 11 1 -1 -2 -2 -2 -1 2 14 43 86 105 74 34 11 1 -1 -2 -2 -2 -2 -2 -2 -2 -2 -2 -2 -2 -2 -2 -2 -2 -1 1 13 46 95 95 46 13 1 -1 -2 -2 -2 -2 -2 -2 -2 -2 -2 -2 -2 -2 -1 3 17 51 97 97 51 17 3 -1 -2 -2 -2 -2 -2 -2 -2 -2 -1 3 17 54 100 92 43 12 1 -1 -2 -2 -2 -1 1 11 34 75 122 141 
101 44 12 1 -1 -2 -2 -2 -2 -2 -2 -1 1 14 47 96 96 47 14 1 -1 -2 -2 -1 0 6 26 66 103 91 48 17 3 0 -2 -2 -2 -2 -2 -2 -2 -2 -2 -2 -2 -2 -2 -2 -2 -2 -1 1 12 44 93 98 49 15 2 -1 -2 -2 -2 -2 -2 -2 -2 -2 -2 -2 -2 -1 0 7 28 69 105 82 36 10 0 -1 -2 -2 -2 -2 -2 -2 -2 -2 0 5 25 67 105 81 34 9 0 -1 -2 -2 -1 0 6 24 60 104 131 136 
99 45 13 1 -1 -2 -2 -2 -2 -2 -2 -1 1 11 41 90 101 55 18 3 -1 -2 -2 -1 2 14 44 89 104 67 27 7 0 -1 -2 -2 -2 -2 -2 -2 -2 -2 -2 -2 -2 -2 -2 -2 -2 -2 -1 0 11 40 89 101 55 18 3 -1 -2 -2 -2 -2 -2 -2 -2 -2 -2 -2 -2 -1 2 14 44 89 103 63 23 5 0 -2 -2 -2 -2 -2 -2 -2 -2 -1 0 9 34 81 105 67 25 5 0 -2 -2 -2 0 3 17 46 89 115 116 123 
97 45 13 1 -1 -2 -2 -2 -2 -2 -2 -1 0 8 33 80 105 67 25 5 0 -1 -1 0 7 27 67 104 89 44 14 2 -1 -2 -2 -2 -2 -2 -2 -2 -2 -2 -2 -2 -2 -2 -2 -2 -2 -2 -1 0 8 33 80 106 67 25 6 0 -1 -1 -2 -2 -2 -2 -2 -2 -2 -2 -2 0 5 24 63 103 89 44 14 2 -1 -2 -2 -2 -2 -2 -2 -2 -2 -1 1 12 43 92 100 54 17 3 -1 -2 -2 -1 1 11 34 74 107 102 92 111 
96 45 13 1 -1 -2 -2 -2 -2 -2 -2 -2 0 5 25 67 105 80 33 8 0 -1 0 3 17 48 91 103 66 26 6 0 -1 -2 -2 -2 -2 -2 -2 -2 -2 -2 -2 -2 -2 -2 -2 -2 -2 -2 -2 0 6 25 68 107 83 37 12 4 1 0 0 -1 -1 -1 -1 -1 -1 -1 -1 1 10 36 82 105 69 28 7 0 -1 -2 -2 -2 -2 -2 -2 -2 -2 -1 3 17 54 100 92 43 12 1 -1 -2 -1 0 6 25 60 99 102 75 72 103 
96 45 13 1 -1 -2 -2 -2 -2 -2 -2 -2 -1 3 18 55 101 90 41 11 1 0 1 11 34 74 105 86 43 14 2 -1 -2 -2 -2 -2 -2 -2 -2 -2 -2 -2 -2 -2 -2 -2 -2 -2 -2 -2 -1 0 5 22 61 108 99 54 26 15 11 8 5 3 2 1 1 0 0 0 0 4 18 52 97 97 51 17 3 -1 -2 -2 -2 -2 -2 -2 -2 -2 -2 0 5 25 67 105 81 34 9 0 -1 -2 0 3 17 46 88 105 78 50 59 99 
96 45 13 1 -1 -2 -2 -2 -2 -2 -2 -2 -1 1 14 47 96 96 47 14 2 0 6 24 60 99 99 60 24 6 0 -2 -2 -2 -2 -2 -2 -2 -2 -2 -2 -2 -2 -2 -2 -2 -2 -2 -2 -1 0 2 10 28 68 117 121 84 58 47 41 33 25 18 15 13 12 11 8 6 5 11 31 71 106 83 36 10 0 -1 -2 -2 -2 -2 -2 -2 -2 -2 -1 0 9 34 81 105 67 25 5 0 -1 -1 1 11 34 74 105 89 50 32 52 97 
95 45 13 1 -1 -2 -2 -2 -2 -2 -2 -2 -1 1 11 41 90 101 55 18 4 3 14 43 86 105 74 34 11 1 -1 -2 -2 -2 -2 -2 -2 -2 -2 -2 -2 -2 -2 -2 -2 -2 -2 -2 -1 0 3 11 26 52 92 134 141 120 103 96 90 80 67 55 49 46 44 40 33 25 22 29 54 95 105 64 24 5 0 -2 -2 -2 -2 -2 -2 -2 -2 -2 -1 1 12 43 92 100 54 17 3 -1 -1 0 6 25 60 99 99 61 29 22 48 96 
95 45 13 1 -1 -2 -2 -2 -2 -2 -2 -2 -1 0 8 33 80 105 67 25 8 9 27 66 103 91 48 17 3 0 -2 -2 -2 -2 -2 -2 -2 -2 -2 -2 -2 -2 -2 -2 -2 -2 -1 0 1 6 17 34 61 91 115 123 115 104 99 98 101 105 105 101 98 95 93 89 80 68 61 68 93 117 95 46 14 2 -1 -2 -2 -2 -2 -2 -2 -2 -2 -2 -1 3 17 54 100 92 43 12 1 -1 0 3 17 46 88 105 74 35 15 17 47 96 
95 45 13 1 -1 -2 -2 -2 -2 -2 -2 -2 -2 0 5 25 67 105 81 35 14 17 45 89 104 67 27 7 0 -1 -2 -2 -2 -2 -2 -2 -2 -2 -2 -2 -2 -2 -2 -2 -2 -1 0 3 11 25 46 74 99 106 93 73 57 49 47 49 55 67 80 89 93 95 98 101 105 107 107 116 134 131 83 34 9 0 -1 -2 -2 -2 -2 -2 -2 -2 -2 -2 0 5 25 67 105 81 34 9 0 0 1 11 34 74 105 88 46 17 7 15 46 95 
95 45 13 1 -1 -2 -2 -2 -2 -2 -2 -2 -2 -1 3 18 55 101 90 44 21 31 68 104 89 44 14 2 -1 -2 -2 -2 -2 -2 -2 -2 -2 -2 -2 -2 -2 -2 -2 -2 0 1 6 17 34 60 88 105 99 75 48 29 19 15 14 15 18 25 33 40 44 46 49 55 67 82 95 112 133 131 84 36 10 1 -1 -2 -2 -2 -2 -2 -2 -2 -2 -1 0 9 34 81 105 67 25 5 0 0 7 25 60 99 99 60 25 7 4 13 46 95 
95 45 13 1 -1 -2 -2 -2 -2 -2 -2 -2 -2 -1 1 14 47 96 97 53 34 52 91 103 66 26 6 0 -1 -2 -2 -2 -2 -2 -2 -2 -2 -2 -2 -2 -2 -2 -1 0 2 10 24 46 74 99 105 88 60 34 17 8 3 2 1 2 3 5 8 11 12 13 15 18 25 34 45 62 91 117 97 51 20 6 0 0 -1 -1 -1 -1 -1 -1 -1 0 2 13 44 92 100 54 17 3 0 4 17 46 88 105 74 34 11 2 2 13 46 95 
95 45 13 1 -1 -2 -2 -2 -2 -2 -2 -2 -2 -1 1 11 41 90 104 68 55 80 106 87 43 14 2 -1 -2 -2 -2 -2 -2 -2 -2 -2 -2 -2 -2 -2 -2 -1 0 4 13 32 59 88 105 99 74 46 25 11 3 0 0 -1 -1 -1 -1 0 0 0 1 1 2 3 5 9 15 26 52 92 109 79 42 19 8 4 2 1 1 1 1 1 1 2 7 21 56 101 93 44 13 2 2 11 34 74 105 88 46 17 3 0 1 13 45 95 
95 45 13 1 -1 -2 -2 -2 -2 -2 -2 -2 -2 -1 0 8 33 81 111 92 86 105 100 60 24 6 0 -2 -2 -2 -2 -2 -2 -2 -2 -2 -2 -2 -2 -1 0 1 7 18 38 68 98 105 89 61 34 17 6 1 0 -1 -2 -2 -2 -2 -2 -2 -1 -1 -1 -1 -1 -1 0 0 3 9 26 62 103 110 80 49 29 19 15 13 13 13 13 13 13 15 21 38 77 112 87 38 12 4 8 25 60 99 99 60 25 7 0 0 1 13 45 95 
95 45 13 1 -1 -2 -2 -2 -2 -2 -2 -2 -2 -2 0 5 24 67 113 119 116 111 74 34 11 1 -1 -2 -2 -2 -2 -2 -2 -2 -2 -2 -2 -2 -1 0 3 11 25 47 76 102 102 76 47 25 11 3 0 -1 -2 -2 -2 -2 -2 -2 -2 -2 -2 -2 -2 -2 -2 -2 -2 -1 0 2 12 37 82 124 125 98 73 57 49 47 46 46 45 46 46 48 55 75 110 125 86 40 16 10 19 47 89 105 74 34 11 1 -1 -1 1 13 45 95 
95 45 13 1 -1 -2 -2 -2 -2 -2 -2 -2 -2 -2 -1 3 18 55 110 137 128 93 47 17 3 0 -2 -2 -2 -2 -2 -2 -2 -2 -2 -2 -1 0 1 6 17 34 61 89 105 98 68 38 18 7 1 0 -1 -2 -2 -2 -2 -2 -2 -2 -2 -2 -2 -2 -2 -2 -2 -2 -2 -2 -1 0 5 23 64 120 143 128 112 103 98 96 96 95 95 95 96 97 103 116 137 138 101 59 34 28 42 77 106 89 46 17 3 0 -1 -1 1 13 45 95 
95 45 13 1 -1 -2 -2 -2 -2 -2 -2 -2 -2 -2 -1 1 14 48 106 141 118 67 27 7 0 -1 -2 -2 -2 -2 -2 -2 -2 -2 -2 -1 0 3 11 24 46 74 99 105 88 59 32 13 4 0 -1 -2 -2 -2 -2 -2 -2 -2 -2 -2 -2 -2 -2 -2 -2 -2 -2 -2 -2 -2 -2 0 4 20 60 113 123 101 91 92 94 95 95 95 95 95 95 96 98 103 114 124 117 97 75 66 81 107 103 62 25 7 0 -1 -2 -1 1 13 45 95 
95 45 13 1 -1 -2 -2 -2 -2 -2 -2 -2 -2 -2 -1 1 13 45 103 133 95 44 14 2 -1 -2 -2 -2 -2 -2 -2 -2 -2 -1 0 1 6 16 34 60 89 105 100 75 46 24 10 3 0 -1 -2 -2 -2 -2 -2 -2 -2 -2 -2 -2 -2 -2 -2 -2 -2 -2 -2 -2 -2 -2 -2 0 5 25 68 110 95 59 44 43 44 45 45 45 45 45 45 46 46 49 57 72 92 106 111 114 125 124 85 39 12 2 -1 -2 -2 -1 1 13 45 95 
95 45 13 1 -1 -2 -2 -2 -2 -2 -2 -2 -2 -2 -1 1 12 45 100 118 71 27 7 0 -1 -2 -2 -2 -2 -2 -2 -1 0 1 4 11 24 45 74 102 109 92 64 37 19 8 2 0 -1 -2 -2 -2 -2 -2 -2 -2 -2 -2 -2 -2 -2 -2 -2 -2 -2 -2 -2 -2 -2 -2 -1 0 8 33 80 107 71 33 16 13 12 13 13 13 13 13 13 13 13 14 18 28 45 67 93 120 141 127 75 30 8 0 -1 -2 -2 -1 1 13 45 95 
95 45 13 1 -1 -2 -2 -2 -2 -2 -2 -2 -2 -2 -1 1 13 46 98 105 56 18 3 -1 -2 -2 -2 -2 -1 -1 0 2 5 11 19 35 60 92 118 119 93 63 39 22 11 5 2 0 0 -1 -1 -1 -1 -2 -2 -2 -2 -2 -2 -2 -2 -2 -2 -2 -2 -2 -2 -2 -2 -2 -1 0 11 40 89 101 56 20 6 2 1 1 1 1 1 1 1 1 1 2 3 7 14 27 48 79 116 124 85 39 12 2 -1 -2 -2 -1 1 13 45 95 
95 45 13 1 -1 -2 -2 -2 -2 -2 -2 -2 -2 -2 -1 2 14 49 98 97 47 14 2 -1 -2 -2 -1 -1 0 2 6 13 24 37 54 78 108 134 141 122 91 66 50 37 26 18 13 9 5 3 1 1 0 0 -1 -1 -1 -2 -2 -2 -2 -2 -2 -2 -2 -2 -2 -2 -2 -2 -1 1 13 44 94 97 49 15 2 0 -1 -1 -1 -1 -1 -1 -1 -1 -1 -1 -1 0 2 7 18 38 73 107 103 62 25 7 0 -1 -2 -1 1 13 45 95 
95 45 13 1 -1 -2 -2 -2 -2 -2 -2 -2 -2 -2 -1 3 18 55 101 90 41 11 1 -1 -1 0 0 3 7 14 26 43 63 83 99 111 118 121 125 121 111 101 92 81 67 54 43 34 25 18 14 11 8 5 3 1 0 0 -1 -1 -1 -1 -2 -2 -2 -2 -2 -2 -2 -2 -1 2 14 48 97 94 44 13 1 -1 -2 -2 -2 -2 -2 -2 -2 -2 -2 -2 -2 -1 -1 0 4 15 38 77 106 89 46 17 3 0 -1 -1 1 13 45 95 
95 45 13 1 -1 -2 -2 -2 -2 -2 -2 -2 -2 -2 0 5 25 67 105 80 34 9 1 0 2 5 10 17 28 45 66 88 103 105 98 85 72 65 71 82 91 96 101 105 105 100 92 81 67 55 47 41 33 24 17 12 9 5 3 1 1 0 0 -1 -1 -1 -2 -2 -2 -2 -1 3 18 55 101 89 40 11 0 -1 -2 -2 -2 -2 -2 -2 -2 -2 -2 -2 -2 -2 -2 -1 0 4 18 47 89 105 74 34 11 1 -1 -1 1 13 45 95 
95 45 13 1 -1 -2 -2 -2 -2 -2 -2 -2 -2 -1 0 8 33 80 105 67 26 8 4 7 13 23 36 51 70 90 104 104 90 70 51 37 27 23 26 33 41 47 55 67 81 92 100 105 105 101 96 90 80 66 53 43 34 25 18 14 11 8 5 3 1 0 0 -1 -1 -1 0 6 25 67 105 80 33 8 0 -1 -2 -2 -2 -2 -2 -2 -2 -2 -2 -2 -2 -2 -2 -2 -1 0 7 25 61 99 99 61 25 7 0 0 1 13 45 95 
95 45 13 1 -1 -2 -2 -2 -2 -2 -2 -2 -2 -1 1 11 41 90 102 57 23 12 15 26 43 63 82 97 105 103 88 66 45 28 17 10 6 5 6 8 11 14 18 25 34 43 53 66 80 90 96 101 105 105 100 92 81 67 55 47 41 33 24 17 12 9 5 3 2 1 3 10 34 81 105 67 25 5 0 -2 -2 -2 -2 -2 -2 -2 -2 -2 -2 -2 -2 -2 -2 -2 -2 -1 1 11 34 74 105 89 47 18 4 0 2 13 45 95 
95 45 13 1 -1 -2 -2 -2 -2 -2 -2 -2 -2 -1 1 14 47 97 101 57 31 31 45 66 88 103 105 97 82 63 43 26 14 7 3 1 0 0 0 0 1 1 3 5 9 12 17 24 33 41 47 55 67 81 92 100 105 105 101 96 90 80 66 53 43 34 25 18 14 12 12 19 45 92 102 55 18 3 -1 -2 -2 -2 -2 -2 -2 -2 -2 -2 -2 -2 -2 -2 -2 -2 -2 -2 0 3 17 46 88 105 76 38 13 3 3 13 46 95 
95 45 13 1 -1 -2 -2 -2 -2 -2 -2 -2 -2 -1 3 18 56 106 107 71 59 70 90 104 104 90 70 51 36 23 13 6 2 0 -1 -1 -2 -2 -2 -1 -1 -1 -1 0 0 1 3 5 8 11 14 18 25 34 43 53 66 80 90 96 101 105 105 100 92 81 67 55 47 42 37 39 62 103 99 49 14 2 -1 -2 -2 -2 -2 -2 -2 -2 -2 -2 -2 -2 -2 -2 -2 -2 -2 -2 -1 0 6 24 59 98 102 68 32 11 5 14 46 95 
95 45 13 1 -1 -2 -2 -2 -2 -2 -2 -2 -1 0 7 28 72 121 124 102 100 106 104 89 66 45 28 17 10 5 2 0 -1 -1 -2 -2 -2 -2 -2 -2 -2 -2 -2 -2 -1 -1 -1 0 0 1 1 3 5 9 12 17 24 33 41 47 55 67 81 92 100 105 105 101 96 91 84 80 95 121 101 46 13 1 -1 -2 -2 -2 -2 -2 -2 -2 -2 -2 -2 -2 -2 -2 -2 -2 -2 -2 -2 -1 1 10 32 68 102 98 59 25 11 16 46 96 
95 45 13 1 -1 -2 -2 -2 -2 -2 -2 -2 -1 2 14 44 96 138 137 120 106 89 66 44 26 14 7 3 0 0 -1 -2 -2 -2 -2 -2 -2 -2 -2 -2 -2 -2 -2 -2 -2 -2 -2 -2 -1 -1 -1 -1 0 0 1 3 5 8 11 14 18 25 34 43 53 66 80 90 96 101 108 115 129 140 103 45 12 1 -1 -2 -2 -2 -2 -2 -2 -2 -2 -2 -2 -2 -2 -2 -2 -2 -2 -2 -2 -2 0 2 13 38 76 105 88 48 22 20 48 96 
95 45 13 1 -1 -2 -2 -2 -2 -2 -2 -1 0 7 27 67 114 128 109 85 63 43 26 14 6 2 0 -1 -1 -2 -2 -2 -2 -2 -2 -2 -2 -2 -2 -2 -2 -2 -2 -2 -2 -2 -2 -2 -2 -2 -2 -2 -2 -1 -1 -1 0 0 1 1 3 5 9 12 17 24 33 41 47 55 70 91 118 137 103 45 12 1 -1 -2 -2 -2 -2 -2 -2 -2 -2 -2 -2 -2 -2 -2 -2 -2 -2 -2 -2 -2 -2 0 4 18 47 88 105 77 42 29 51 97 
96 45 13 1 -1 -2 -2 -2 -2 -2 -2 0 3 17 47 92 112 89 58 38 24 13 6 2 0 -1 -1 -2 -2 -2 -2 -2 -2 -2 -2 -2 -2 -2 -2 -2 -2 -2 -2 -2 -2 -2 -2 -2 -2 -2 -2 -2 -2 -2 -2 -2 -2 -1 -1 -1 -1 0 0 1 3 5 8 11 14 19 28 47 81 117 99 45 12 1 -1 -2 -2 -2 -2 -2 -2 -2 -2 -2 -2 -2 -2 -2 -2 -2 -2 -2 -2 -2 -2 -1 0 7 24 59 98 102 72 47 58 99 
96 45 13 1 -1 -2 -2 -2 -2 -2 -1 1 11 34 74 106 91 51 24 12 5 2 0 -1 -1 -2 -2 -2 -2 -2 -2 -2 -2 -2 -2 -2 -2 -2 -2 -2 -2 -2 -2 -2 -2 -2 -2 -2 -2 -2 -2 -2 -2 -2 -2 -2 -2 -2 -2 -2 -2 -2 -1 -1 -1 0 0 1 2 4 9 24 57 103 97 45 13 1 -1 -2 -2 -2 -2 -2 -2 -2 -2 -2 -2 -2 -2 -2 -2 -2 -2 -2 -2 -2 -2 -2 -1 1 10 32 68 102 101 74 72 103 
97 45 13 1 -1 -2 -2 -2 -2 -1 0 7 25 61 99 100 61 26 9 2 0 -1 -1 -2 -2 -2 -2 -2 -2 -2 -2 -2 -2 -2 -2 -2 -2 -2 -2 -2 -2 -2 -2 -2 -2 -2 -2 -2 -2 -2 -2 -2 -2 -2 -2 -2 -2 -2 -2 -2 -2 -2 -2 -2 -2 -2 -1 -1 -1 0 3 16 48 97 97 47 14 1 -1 -2 -2 -2 -2 -2 -2 -2 -2 -2 -2 -2 -2 -2 -2 -2 -2 -2 -2 -2 -2 -2 -2 0 2 13 38 76 107 101 92 111 
99 45 13 1 -1 -2 -2 -2 -1 0 4 18 47 89 105 75 35 11 2 0 -1 -2 -2 -2 -2 -2 -2 -2 -2 -2 -2 -2 -2 -2 -2 -2 -2 -2 -2 -2 -2 -2 -2 -2 -2 -2 -2 -2 -2 -2 -2 -2 -2 -2 -2 -2 -2 -2 -2 -2 -2 -2 -2 -2 -2 -2 -2 -2 -2 -1 2 14 46 96 99 50 16 3 -1 -2 -2 -2 -2 -2 -2 -2 -2 -2 -2 -2 -2 -2 -2 -2 -2 -2 -2 -2 -2 -2 -2 -2 0 4 18 47 89 115 116 123 
101 44 12 1 -1 -2 -2 -1 0 3 14 38 77 107 91 50 19 5 0 0 -1 -1 -1 -1 -1 -1 -1 -1 -1 -2 -2 -2 -2 -2 -2 -2 -2 -2 -2 -2 -2 -2 -2 -2 -2 -2 -2 -2 -2 -2 -2 -2 -2 -2 -2 -2 -2 -2 -2 -2 -2 -2 -2 -2 -2 -2 -2 -2 -1 0 3 15 47 98 107 61 23 7 1 -1 -1 -2 -2 -2 -2 -2 -2 -2 -2 -2 -2 -2 -2 -2 -2 -2 -2 -2 -2 -2 -2 -2 -1 0 7 25 60 104 131 136 
102 44 12 1 -1 -2 -1 0 3 13 35 71 108 110 74 38 18 8 4 2 1 1 1 1 1 1 1 0 0 0 -1 -1 -1 -1 -1 -1 -1 -1 -1 -1 -2 -2 -2 -2 -2 -2 -2 -2 -2 -2 -2 -2 -2 -2 -2 -2 -2 -2 -2 -2 -2 -2 -2 -2 -2 -2 -2 -1 0 2 8 24 57 107 124 86 43 19 8 2 0 -1 -2 -2 -2 -2 -2 -2 -2 -2 -2 -2 -2 -2 -2 -2 -2 -2 -2 -2 -2 -2 -2 -1 1 11 34 75 122 141 
102 44 12 1 -1 -1 0 3 13 34 70 112 130 110 77 53 37 26 18 15 13 13 13 13 13 13 12 11 8 5 3 2 1 1 1 1 1 1 0 0 0 -1 -1 -1 -1 -1 -1 -1 -1 -1 -1 -1 -2 -2 -2 -2 -2 -2 -2 -2 -2 -2 -2 -2 -2 -1 -1 0 3 11 25 49 83 124 142 119 80 49 27 14 6 1 0 -1 -2 -2 -2 -2 -2 -2 -2 -2 -2 -2 -2 -2 -2 -2 -2 -2 -2 -2 -2 -2 0 3 17 47 97 134 
100 44 12 1 -1 0 3 13 35 70 111 139 139 123 106 94 82 67 55 49 46 46 46 45 45 45 43 40 33 25 18 15 13 13 13 13 13 12 11 8 5 3 2 1 1 1 1 1 1 1 0 0 0 -1 -1 -1 -1 -1 -1 -1 -1 -1 -1 -1 -1 0 2 7 17 34 60 89 111 122 124 122 112 92 67 43 24 11 3 0 -1 -1 -2 -2 -2 -2 -2 -2 -2 -2 -2 -2 -2 -2 -2 -2 -2 -2 -2 -2 -1 0 7 28 72 119 
97 45 13 2 0 4 14 35 70 104 120 116 107 101 100 102 105 105 101 98 96 96 95 95 95 95 93 89 80 67 55 49 46 46 45 45 45 43 40 33 25 18 15 13 13 13 13 13 13 12 11 8 5 3 2 1 1 1 1 1 1 1 0 0 2 6 14 27 48 74 99 106 94 76 68 76 92 105 104 87 60 34 17 7 2 0 -1 -2 -2 -2 -2 -2 -2 -2 -2 -2 -2 -2 -2 -2 -2 -2 -2 -2 -2 0 3 19 56 106 
96 46 14 4 5 15 36 70 102 105 83 61 50 47 49 55 67 80 89 93 95 95 95 95 96 96 98 101 105 105 101 98 96 96 95 95 95 93 89 80 67 55 49 46 46 46 45 45 45 43 40 33 25 18 15 13 13 13 13 13 12 11 9 9 13 24 43 67 91 105 99 75 49 31 25 30 45 67 91 105 99 74 48 27 14 6 1 0 -1 -2 -2 -2 -2 -2 -2 -2 -2 -2 -2 -2 -2 -2 -2 -2 -2 -1 2 15 49 99 
96 47 17 11 19 39 71 101 101 72 40 22 15 14 15 18 25 33 40 43 45 45 45 46 46 46 49 55 67 80 89 93 95 95 95 96 96 98 101 105 105 101 98 96 96 95 95 95 95 93 89 80 67 55 49 46 46 45 45 45 44 40 36 33 41 62 87 104 104 87 60 34 17 8 6 8 15 28 48 74 99 105 91 67 43 24 11 3 0 -1 -1 -2 -2 -2 -2 -2 -2 -2 -2 -2 -2 -2 -2 -2 -2 -1 1 13 46 96 
97 51 26 28 48 77 102 100 70 36 15 6 2 1 2 3 5 8 11 12 13 13 13 13 13 13 15 18 25 33 40 43 45 45 45 46 46 49 55 67 80 89 93 95 95 95 95 96 96 98 101 105 105 101 98 96 96 95 95 95 94 91 85 82 90 105 107 91 67 43 24 11 3 0 0 0 2 7 17 34 60 87 103 103 87 60 34 17 7 2 0 -1 -2 -2 -2 -2 -2 -2 -2 -2 -2 -2 -2 -2 -2 -1 1 13 46 96 
100 61 47 63 89 105 97 67 35 14 3 0 -1 -1 -1 -1 0 0 0 1 1 1 1 1 1 1 2 3 5 8 11 12 13 13 13 13 13 15 18 25 33 40 43 45 45 45 46 46 46 49 55 67 80 89 93 95 95 95 96 96 99 106 119 131 132 113 79 49 28 14 6 1 0 -1 -2 -1 -1 0 3 11 24 43 67 91 105 99 74 48 27 14 6 1 0 -1 -2 -2 -2 -2 -2 -2 -2 -2 -2 -2 -2 -1 1 13 45 96 
109 82 82 101 106 88 59 31 12 3 0 -1 -2 -2 -2 -2 -2 -1 -1 -1 -1 -1 -1 -1 -1 -1 -1 -1 0 0 0 1 1 1 1 1 1 2 3 5 8 11 12 13 13 13 13 13 13 15 18 25 33 40 43 45 45 46 46 47 52 66 97 134 132 86 44 19 8 2 0 -1 -2 -2 -2 -2 -2 -1 0 1 6 14 27 48 74 99 105 91 67 43 24 11 3 0 -1 -1 -2 -2 -2 -2 -2 -2 -2 -2 -2 -1 1 13 45 97 
123 112 112 104 77 47 24 10 2 0 -1 -2 -2 -2 -2 -2 -2 -2 -2 -2 -2 -2 -2 -2 -2 -2 -2 -2 -2 -1 -1 -1 -1 -1 -1 -1 -1 -1 -1 0 0 0 1 1 1 1 1 1 1 2 3 5 8 11 12 13 13 13 13 14 18 32 66 114 113 62 23 7 1 -1 -1 -2 -2 -2 -2 -2 -2 -2 -2 -1 0 2 7 17 34 60 87 103 103 87 60 34 17 7 2 0 -1 -2 -2 -2 -2 -2 -2 -2 -2 -1 1 13 45 99 
139 131 107 71 38 18 7 1 -1 -2 -2 -2 -2 -2 -2 -2 -2 -2 -2 -2 -2 -2 -2 -2 -2 -2 -2 -2 -2 -2 -2 -2 -2 -2 -2 -2 -2 -2 -2 -2 -1 -1 -1 -1 -1 -1 -1 -1 -1 -1 -1 0 0 0 1 1 1 1 1 2 6 18 52 101 101 50 16 3 -1 -2 -2 -2 -2 -2 -2 -2 -2 -2 -2 -2 -1 -1 0 3 11 24 43 67 91 105 99 74 48 27 14 6 2 0 -1 -2 -2 -2 -2 -2 -2 -1 1 12 45 102 
140 116 72 36 15 4 0 -1 -2 -2 -2 -2 -2 -2 -2 -2 -2 -2 -2 -2 -2 -2 -2 -2 -2 -2 -2 -2 -2 -2 -2 -2 -2 -2 -2 -2 -2 -2 -2 -2 -2 -2 -2 -2 -2 -2 -2 -2 -2 -2 -2 -2 -1 -1 -1 -1 -1 -1 -1 0 2 14 47 97 97 47 14 1 -1 -2 -2 -2 -2 -2 -2 -2 -2 -2 -2 -2 -2 -2 -1 0 1 6 14 27 48 74 99 105 91 67 44 26 14 6 1 0 -1 -2 -2 -2 -2 -1 1 12 44 103 
124 84 40 15 4 0 -1 -2 -2 -2 -2 -2 -2 -2 -2 -2 -2 -2 -2 -2 -2 -2 -2 -2 -2 -2 -2 -2 -2 -2 -2 -2 -2 -2 -2 -2 -2 -2 -2 -2 -2 -2 -2 -2 -2 -2 -2 -2 -2 -2 -2 -2 -2 -2 -2 -2 -2 -2 -2 -1 1 13 46 96 96 46 13 1 -1 -2 -2 -2 -2 -2 -2 -2 -2 -2 -2 -2 -2 -2 -2 -2 -1 0 2 7 17 34 60 86 103 104 89 66 43 23 10 3 0 -1 -1 -1 -1 -1 1 12 45 101 
108 61 22 6 0 -1 -2 -2 -2 -2 -2 -2 -2 -2 -2 -2 -2 -2 -2 -2 -2 -2 -2 -2 -2 -2 -2 -2 -2 -2 -2 -2 -2 -2 -2 -2 -2 -2 -2 -2 -2 -2 -2 -2 -2 -2 -2 -2 -2 -2 -2 -2 -2 -2 -2 -2 -2 -2 -2 -1 1 13 46 95 95 46 13 1 -1 -2 -2 -2 -2 -2 -2 -2 -2 -2 -2 -2 -2 -2 -2 -2 -2 -1 -1 0 3 11 24 43 66 89 104 104 87 60 34 17 7 3 1 0 0 0 2 13 45 98 
100 50 16 2 -1 -2 -2 -2 -2 -2 -2 -2 -2 -2 -2 -2 -2 -2 -2 -2 -2 -2 -2 -2 -2 -2 -2 -2 -2 -2 -2 -2 -2 -2 -2 -2 -2 -2 -2 -2 -2 -2 -2 -2 -2 -2 -2 -2 -2 -2 -2 -2 -2 -2 -2 -2 -2 -2 -2 -1 1 13 45 95 95 45 13 1 -1 -2 -2 -2 -2 -2 -2 -2 -2 -2 -2 -2 -2 -2 -2 -2 -2 -2 -2 -1 0 1 6 14 26 45 68 92 107 101 75 47 28 18 13 9 5 4 5 16 47 97 
97 47 14 1 -1 -2 -2 -2 -2 -2 -2 -2 -2 -2 -2 -2 -2 -2 -2 -2 -2 -2 -2 -2 -2 -2 -2 -2 -2 -2 -2 -2 -2 -2 -2 -2 -2 -2 -2 -2 -2 -2 -2 -2 -2 -2 -2 -2 -2 -2 -2 -2 -2 -2 -2 -2 -2 -2 -2 -1 1 13 45 95 95 45 13 1 -1 -2 -2 -2 -2 -2 -2 -2 -2 -2 -2 -2 -2 -2 -2 -2 -2 -2 -2 -2 -2 -1 0 2 8 16 31 53 84 112 117 97 72 55 43 34 25 18 17 25 53 99 
98 46 14 2 0 -1 -1 -1 -1 -2 -2 -2 -2 -2 -2 -2 -2 -2 -2 -2 -2 -2 -2 -2 -2 -2 -2 -2 -2 -2 -2 -2 -2 -2 -2 -2 -2 -2 -2 -2 -2 -2 -2 -2 -2 -2 -2 -2 -2 -2 -2 -2 -2 -2 -2 -2 -2 -2 -2 -1 1 13 45 95 95 45 13 1 -1 -2 -2 -2 -2 -2 -2 -2 -2 -2 -2 -2 -2 -2 -2 -2 -2 -2 -2 -2 -2 -1 0 1 4 10 20 37 65 103 134 138 122 105 93 81 67 54 47 50 71 108 
103 49 16 5 2 1 1 0 0 0 -1 -1 -1 -1 -1 -1 -1 -2 -2 -2 -2 -2 -2 -2 -2 -2 -2 -2 -2 -2 -2 -2 -2 -2 -2 -2 -2 -2 -2 -2 -2 -2 -2 -2 -2 -2 -2 -2 -2 -2 -2 -2 -2 -2 -2 -2 -2 -2 -2 -1 1 13 45 95 95 45 13 1 -1 -2 -2 -2 -2 -2 -2 -2 -2 -2 -2 -2 -2 -2 -2 -2 -2 -2 -1 -1 0 0 3 7 14 25 39 58 83 112 130 126 113 104 103 106 105 100 95 94 106 126 
113 59 28 17 14 13 12 11 8 5 3 2 1 1 1 0 0 0 -1 -1 -1 -1 -1 -1 -1 -1 -2 -2 -2 -2 -2 -2 -2 -2 -2 -2 -2 -2 -2 -2 -2 -2 -2 -2 -2 -2 -2 -2 -2 -2 -2 -2 -2 -2 -2 -2 -2 -2 -2 -1 1 13 45 95 95 45 13 1 -1 -2 -2 -2 -2 -2 -2 -2 -2 -2 -2 -2 -2 -2 -2 -2 -1 -1 0 2 5 10 17 28 44 63 83 98 108 107 93 72 57 52 56 67 81 92 102 114 132 145 
129 86 59 49 46 45 43 40 33 25 18 15 13 13 12 11 8 5 3 2 1 1 1 1 0 0 0 -1 -1 -1 -1 -1 -1 -1 -2 -2 -2 -2 -2 -2 -2 -2 -2 -2 -2 -2 -2 -2 -2 -2 -2 -2 -2 -2 -2 -2 -2 -2 -2 -1 1 13 45 95 95 45 13 1 -1 -2 -2 -2 -2 -2 -2 -2 -2 -2 -2 -2 -2 -2 -1 0 0 3 7 14 23 36 51 69 89 103 105 97 83 63 43 28 19 16 18 25 34 44 56 77 110 142 
145 125 106 98 96 95 93 89 80 67 55 49 46 45 43 40 33 25 18 15 13 13 13 12 11 8 5 3 2 1 1 1 0 0 0 -1 -1 -1 -1 -1 -1 -1 -1 -2 -2 -2 -2 -2 -2 -2 -2 -2 -2 -2 -2 -2 -2 -2 -2 -1 1 13 45 95 95 45 13 1 -1 -2 -2 -2 -2 -2 -2 -2 -2 -2 -2 -1 -1 0 2 5 10 17 28 44 63 82 97 105 103 89 69 51 36 23 13 7 3 2 3 5 9 13 21 38 74 125 
141 124 106 98 96 96 98 101 105 105 101 98 96 95 93 89 80 67 55 49 46 46 45 43 40 33 25 18 15 13 13 12 11 8 5 3 2 1 1 1 1 0 0 0 -1 -1 -1 -1 -1 -1 -1 -2 -2 -2 -2 -2 -2 -2 -2 -1 1 13 45 95 95 45 13 1 -1 -2 -2 -2 -2 -2 -2 -2 -2 -1 -1 0 2 6 13 23 36 51 69 89 103 105 97 82 63 44 28 17 10 5 2 0 -1 -1 -1 0 0 2 6 20 54 111 
120 86 59 49 47 47 49 55 67 80 89 93 95 96 98 101 105 105 101 98 96 95 95 93 89 80 67 55 49 46 45 43 40 33 25 18 15 13 13 13 12 11 8 5 3 2 1 1 1 0 0 0 -1 -1 -1 -1 -1 -1 -1 -1 1 13 46 95 95 46 13 1 -1 -2 -2 -2 -2 -2 -1 -1 0 0 3 7 14 26 43 63 82 97 105 103 89 69 51 36 23 14 7 3 0 0 -1 -1 -2 -2 -2 -2 -1 0 2 14 47 102 
104 59 28 17 14 13 15 18 25 33 40 43 45 46 49 55 67 80 89 93 95 95 96 98 101 105 105 101 98 96 95 93 89 80 67 55 49 46 46 45 43 40 33 25 18 15 13 13 12 11 8 5 3 2 1 1 1 1 1 1 3 14 46 96 96 46 13 1 -1 -2 -2 -2 -1 -1 0 2 5 10 17 28 45 66 88 103 105 97 82 63 44 28 17 10 5 2 0 -1 -1 -2 -2 -2 -2 -2 -2 -2 -2 -1 1 13 46 97 
98 49 17 5 2 1 2 3 5 8 11 12 13 13 15 18 25 33 40 43 45 46 46 49 55 67 80 89 93 95 96 98 101 105 105 101 98 96 95 95 93 89 80 67 55 49 46 45 43 40 33 25 18 15 13 13 13 12 11 9 9 19 50 98 97 47 14 1 -1 -1 -1 0 0 3 7 14 23 36 51 70 90 104 104 90 70 51 36 23 14 7 3 0 0 -1 -1 -2 -2 -2 -2 -2 -2 -2 -2 -2 -2 -1 1 13 45 96 
96 46 14 2 0 -1 -1 -1 0 0 0 1 1 1 2 3 5 8 11 12 13 13 13 15 18 25 33 40 43 45 46 49 55 67 80 89 93 95 95 96 98 101 105 105 101 98 96 95 93 89 80 67 55 49 46 46 45 43 40 34 29 33 61 106 102 50 16 3 0 0 2 5 10 17 28 44 63 82 97 105 103 88 66 45 28 17 10 5 2 0 -1 -1 -2 -2 -2 -2 -2 -2 -2 -2 -2 -2 -2 -2 -2 -1 1 13 45 95 
95 46 13 1 -1 -2 -2 -2 -2 -1 -1 -1 -1 -1 -1 -1 0 0 0 1 1 1 1 2 3 5 8 11 12 13 13 15 18 25 33 40 43 45 46 46 49 55 67 80 89 93 95 96 98 101 105 105 101 98 96 95 95 93 89 81 70 69 89 123 114 62 24 9 5 7 14 24 36 51 69 89 103 105 97 82 63 43 26 14 7 3 0 0 -1 -1 -2 -2 -2 -2 -2 -2 -2 -2 -2 -2 -2 -2 -2 -2 -2 -1 1 13 45 95 
95 45 13 1 -1 -2 -2 -2 -2 -2 -2 -2 -2 -2 -2 -2 -2 -1 -1 -1 -1 -1 -1 -1 -1 0 0 0 1 1 1 2 3 5 8 11 12 13 13 13 15 18 25 33 40 43 45 46 49 55 67 80 89 93 95 95 96 98 101 105 107 109 122 141 132 87 46 26 22 29 44 63 82 97 105 103 89 69 51 36 23 13 6 2 0 -1 -1 -2 -2 -2 -2 -2 -2 -2 -2 -2 -2 -2 -2 -2 -2 -2 -2 -2 -2 -1 1 13 45 95 
95 45 13 1 -1 -2 -2 -2 -2 -2 -2 -2 -2 -2 -2 -2 -2 -2 -2 -2 -2 -2 -2 -2 -2 -2 -1 -1 -1 -1 -1 -1 -1 0 0 0 1 1 1 1 2 3 5 8 11 12 13 13 15 18 25 33 40 43 45 46 46 49 55 67 81 91 102 116 126 115 87 66 62 72 90 103 105 97 82 63 44 28 17 10 5 2 0 -1 -1 -2 -2 -2 -2 -2 -2 -2 -2 -2 -2 -2 -2 -2 -2 -2 -2 -2 -2 -2 -2 -1 1 13 45 95 
95 45 13 1 -1 -2 -2 -2 -2 -2 -2 -2 -2 -2 -2 -2 -2 -2 -2 -2 -2 -2 -2 -2 -2 -2 -2 -2 -2 -2 -2 -2 -2 -2 -1 -1 -1 -1 -1 -1 -1 -1 0 0 0 1 1 1 2 3 5 8 11 12 13 13 13 15 18 25 33 41 48 61 86 115 127 120 112 110 104 89 69 51 36 24 14 7 3 0 0 -1 -1 -2 -2 -2 -2 -2 -2 -2 -2 -2 -2 -2 -2 -2 -2 -2 -2 -2 -2 -2 -2 -2 -2 -1 1 13 45 95 
95 46 13 1 -1 -2 -2 -2 -2 -2 -2 -2 -2 -2 -2 -2 -2 -2 -2 -2 -2 -2 -2 -2 -2 -2 -2 -2 -2 -2 -2 -2 -2 -2 -2 -2 -2 -2 -2 -2 -2 -2 -1 -1 -1 -1 -1 -1 -1 -1 0 0 1 1 1 1 1 2 3 5 8 11 15 24 45 87 132 141 116 89 65 44 28 17 10 5 2 0 0 -1 -1 -2 -2 -2 -2 -2 -2 -2 -2 -2 -2 -2 -2 -2 -2 -2 -2 -2 -2 -2 -2 -2 -2 -2 -2 -1 1 13 46 95 
96 46 14 2 0 -1 -1 -1 -1 -1 -1 -1 -1 -1 -1 -1 -1 -1 -1 -1 -1 -1 -1 -1 -1 -1 -1 -1 -1 -1 -1 -1 -1 -1 -1 -1 -1 -1 -1 -1 -1 -1 -1 -1 -1 -1 -1 -1 -1 -1 -1 -1 0 0 0 0 0 0 0 0 1 2 3 9 25 63 115 122 82 47 27 15 8 4 1 0 0 -1 -1 -1 -1 -1 -1 -1 -1 -1 -1 -1 -1 -1 -1 -1 -1 -1 -1 -1 -1 -1 -1 -1 -1 -1 -1 -1 -1 0 2 14 46 96 
98 49 17 5 2 1 1 1 1 1 1 1 1 1 1 1 1 1 1 1 1 1 1 1 1 1 1 1 1 1 1 1 1 1 1 1 1 1 1 1 1 1 1 1 1 1 1 1 1 1 1 1 1 1 1 1 1 1 1 1 2 2 3 7 20 54 104 107 61 27 13 6 4 2 2 1 1 1 1 1 1 1 1 1 1 1 1 1 1 1 1 1 1 1 1 1 1 1 1 1 1 1 1 1 1 2 5 17 49 98 
106 59 28 17 14 13 13 13 13 13 13 13 13 13 13 13 13 13 13 13 13 13 13 13 13 13 13 13 13 13 13 13 12 12 12 12 13 13 13 13 13 13 13 13 13 13 13 13 12 12 12 12 13 13 13 13 13 13 13 13 13 13 14 17 29 61 107 108 62 31 19 15 14 13 13 13 13 13 13 13 13 13 13 13 13 13 13 13 13 13 13 12 12 12 12 13 13 13 13 13 13 13 13 12 12 13 16 28 59 106 
125 86 59 49 46 46 45 45 45 45 45 45 45 45 45 45 45 45 45 45 45 45 45 45 45 45 45 45 45 45 45 45 45 44 45 45 45 45 45 45 45 45 45 45 45 45 45 45 45 45 45 45 45 45 45 45 45 45 45 45 46 46 46 49 59 86 124 125 87 60 50 46 46 46 45 45 45 45 45 45 45 45 45 45 45 45 45 45 45 45 45 45 44 45 45 45 45 45 45 45 45 45 45 45 45 45 49 59 86 125 
153 125 106 98 96 95 95 95 95 95 95 95 95 95 95 95 95 95 95 95 95 95 95 95 95 95 95 95 95 96 97 99 102 103 101 98 96 96 95 95 95 95 95 95 95 95 96 97 100 103 103 99 97 96 95 95 95 95 95 95 95 95 96 98 104 119 139 139 119 104 98 96 95 95 95 95 95 95 95 95 95 95 95 95 95 95 95 95 96 96 98 101 103 101 98 96 96 95 95 95 96 96 98 101 103 102 101 107 126 153 
