P2
110 110
255
152 126 106 98 96 95 95 95 95 95 95 95 95 95 95 95 95 95 95 95 95 95 95 95 95 95 95 96 96 99 106 121 137 139 124 108 100 97 96 95 95 95 95 95 95 96 98 104 120 139 138 119 104 98 96 95 95 95 95 95 95 95 95 96 97 99 103 103 99 97 96 95 95 95 95 95 95 95 95 95 95 95 95 95 95 95 95 96 98 103 116 134 140 126 109 100 97 96 95 96 97 101 113 132 141 128 113 111 127 152 
126 88 61 51 48 47 47 47 47 47 47 47 47 47 47 47 47 47 47 47 47 47 47 47 47 47 47 48 50 57 75 106 130 119 87 63 52 48 47 47 47 47 47 47 47 48 52 63 91 128 125 88 61 51 48 47 47 47 47 47 47 47 47 47 46 46 46 46 46 46 47 47 47 47 47 47 47 47 47 47 47 47 47 47 47 47 47 48 52 64 91 125 126 94 66 53 48 47 47 48 50 59 82 118 129 99 72 68 90 126 
106 61 30 18 15 14 14 14 14 14 14 14 14 14 14 14 14 14 14 14 14 14 14 14 14 14 14 16 21 35 64 103 113 81 45 25 17 15 14 14 14 14 14 14 14 16 21 36 72 116 108 61 30 18 15 14 14 14 14 14 14 14 14 14 14 13 13 13 13 14 14 14 14 14 14 14 14 14 14 14 14 14 14 14 14 14 14 16 23 42 80 114 97 56 29 18 15 14 14 15 19 31 61 105 108 67 37 36 62 106 
98 51 18 6 3 2 2 2 2 2 2 2 2 2 2 2 2 2 2 2 2 2 2 2 2 2 3 6 16 40 79 107 90 49 20 8 3 2 2 2 2 2 2 2 2 5 12 33 76 120 102 50 18 6 3 2 2 2 2 2 2 2 2 2 2 2 1 1 2 2 2 2 2 2 2 2 2 2 2 2 2 2 2 2 2 2 3 6 16 42 87 107 72 32 11 4 2 2 2 3 8 23 59 103 94 49 22 23 52 98 
96 48 15 3 0 -1 -1 -1 -1 -1 -1 -1 -1 -1 -1 -1 -1 -1 -1 -1 -1 -1 -1 -1 -1 0 1 8 27 62 100 99 61 26 8 1 0 -1 -1 -1 -1 -1 -1 -1 0 4 16 46 96 132 102 46 14 2 0 -1 -1 -1 -1 -1 -1 -1 -1 -1 -1 -1 -1 -1 -1 -1 -1 -1 -1 -1 -1 -1 -1 -1 -1 -1 -1 -1 -1 -1 -1 0 0 4 19 53 97 97 53 19 4 0 0 -1 0 0 7 27 69 105 82 37 15 18 48 96 
95 47 14 2 -1 -1 -2 -2 -2 -2 -2 -2 -2 -2 -2 -2 -2 -2 -2 -2 -2 -2 -2 -2 -1 0 4 18 48 89 104 75 35 12 2 0 -1 -2 -2 -2 -2 -2 -2 -1 0 7 27 67 117 140 103 46 14 2 -1 -1 -2 -2 -2 -2 -2 -2 -2 -2 -2 -2 -2 -2 -2 -2 -2 -2 -2 -2 -2 -2 -2 -2 -2 -2 -2 -2 -2 -2 -2 -1 0 8 29 70 105 83 38 11 1 -1 -1 -1 -1 1 10 35 81 105 68 27 11 16 47 95 
95 47 14 2 -1 -2 -2 -2 -2 -2 -2 -2 -2 -2 -2 -2 -2 -2 -2 -2 -2 -2 -2 -2 -1 2 12 36 75 104 88 47 18 4 0 -1 -2 -2 -2 -2 -2 -2 -1 0 3 15 45 92 129 137 104 49 15 2 -1 -2 -2 -2 -2 -2 -2 -2 -2 -2 -2 -2 -2 -2 -2 -2 -2 -2 -2 -2 -2 -2 -2 -2 -2 -2 -2 -2 -2 -2 -2 -1 2 15 45 89 103 64 25 6 0 -1 -2 -2 -1 2 14 45 92 99 55 20 8 15 47 95 
95 47 14 2 -1 -2 -2 -2 -2 -2 -2 -2 -2 -2 -2 -2 -2 -2 -2 -2 -2 -2 -2 -1 0 7 26 61 99 99 61 26 7 0 -1 -2 -2 -2 -2 -2 -2 -2 -1 0 8 29 68 109 123 126 107 56 19 3 0 -2 -2 -2 -2 -2 -2 -2 -2 -2 -2 -2 -2 -2 -2 -2 -2 -2 -2 -2 -2 -2 -2 -2 -2 -2 -2 -2 -2 -2 -1 0 6 25 64 103 89 45 15 2 -1 -2 -2 -2 0 3 19 55 99 92 45 15 6 15 47 95 
95 47 14 2 -1 -2 -2 -2 -2 -2 -2 -2 -2 -2 -2 -2 -2 -2 -2 -2 -2 -2 -1 0 4 18 47 88 104 75 36 12 2 -1 -2 -2 -2 -2 -2 -2 -2 -1 0 4 18 49 91 111 101 107 110 68 26 6 0 -1 -2 -2 -2 -2 -2 -2 -2 -2 -2 -2 -2 -2 -2 -2 -2 -2 -2 -2 -2 -2 -2 -2 -2 -2 -2 -2 -2 -2 -1 1 11 37 83 105 70 29 8 0 -1 -2 -2 -1 0 6 26 68 104 81 35 11 5 15 47 95 
95 47 14 2 -1 -2 -2 -2 -2 -2 -2 -2 -2 -2 -2 -2 -2 -2 -2 -2 -2 -2 -1 2 12 36 75 104 88 47 18 4 0 -1 -2 -2 -2 -2 -2 -2 -2 -1 2 12 35 75 106 94 72 85 108 80 34 9 0 -1 -2 -2 -2 -2 -2 -2 -2 -2 -2 -2 -2 -2 -2 -2 -2 -2 -2 -2 -2 -2 -2 -2 -2 -2 -2 -2 -2 -2 0 3 18 52 97 97 52 18 3 0 -2 -2 -2 -1 0 10 35 81 104 68 26 7 4 14 47 95 
96 47 14 2 -1 -2 -2 -2 -2 -2 -2 -2 -2 -2 -2 -2 -2 -2 -2 -2 -2 -1 0 7 26 61 99 99 61 26 7 0 -1 -2 -2 -2 -2 -2 -2 -2 -1 0 7 25 60 99 100 67 47 66 103 89 41 12 1 -1 -2 -2 -2 -2 -2 -2 -2 -2 -2 -2 -2 -2 -2 -2 -2 -2 -2 -2 -2 -2 -2 -2 -2 -2 -2 -2 -2 -1 0 8 29 70 105 83 37 11 1 -1 -2 -2 -2 -1 2 14 45 92 99 55 19 4 3 14 47 95 
97 48 15 2 -1 -2 -2 -2 -2 -2 -2 -2 -2 -2 -2 -2 -2 -2 -2 -2 -1 0 4 18 47 88 104 75 36 12 2 -1 -2 -2 -2 -2 -2 -2 -2 -2 0 3 15 44 86 105 76 41 30 55 98 93 45 13 1 -1 -2 -2 -2 -2 -2 -2 -2 -2 -2 -2 -2 -2 -2 -2 -2 -2 -2 -2 -2 -2 -2 -2 -2 -2 -2 -2 -2 -1 2 15 45 89 103 64 25 6 0 -1 -2 -2 -2 0 3 19 55 99 92 45 14 3 3 14 47 95 
100 52 17 3 0 -2 -2 -2 -2 -2 -2 -2 -2 -2 -2 -2 -2 -2 -2 -2 -1 2 12 36 75 104 88 47 18 4 0 -1 -2 -2 -2 -2 -2 -2 -2 -1 0 7 28 67 103 91 50 23 21 49 96 95 47 14 2 -1 -2 -2 -2 -2 -2 -2 -2 -2 -2 -2 -2 -2 -2 -2 -2 -2 -2 -2 -2 -2 -2 -2 -2 -2 -2 -2 -1 0 6 25 64 103 89 45 15 2 -1 -2 -2 -2 -1 0 6 26 68 104 81 35 10 1 2 14 46 96 
108 62 24 6 0 -1 -2 -2 -2 -2 -2 -2 -2 -2 -2 -2 -2 -2 -2 -1 0 7 26 61 99 99 61 26 7 0 -1 -2 -2 -2 -2 -2 -2 -2 -2 0 3 16 45 89 103 68 30 13 16 46 93 97 50 16 2 -1 -2 -2 -2 -2 -2 -2 -2 -2 -2 -2 -2 -2 -2 -2 -2 -2 -2 -2 -2 -2 -2 -2 -2 -2 -2 -2 -1 1 11 37 83 105 70 29 8 0 -1 -2 -2 -2 -1 0 10 35 81 104 68 26 6 0 2 14 46 98 
123 85 41 16 4 0 -1 -2 -2 -2 -2 -2 -2 -2 -2 -2 -2 -2 -1 0 4 18 47 88 104 75 36 12 2 -1 -2 -2 -2 -2 -2 -2 -2 -2 -1 0 8 29 68 103 89 46 16 7 13 41 89 101 57 19 4 0 -2 -2 -2 -2 -2 -2 -2 -2 -2 -2 -2 -2 -2 -2 -2 -2 -2 -2 -2 -2 -2 -2 -2 -2 -2 -2 0 3 18 52 97 97 52 18 3 0 -2 -2 -2 -2 -1 2 14 45 92 99 55 19 4 0 2 13 46 100 
138 116 73 36 13 3 0 -1 -2 -2 -2 -2 -2 -2 -2 -2 -2 -2 -1 2 12 36 75 104 88 47 18 4 0 -1 -2 -2 -2 -2 -2 -2 -2 -1 0 4 18 49 91 103 67 28 8 3 10 34 80 105 68 26 6 0 -1 -2 -2 -2 -2 -2 -2 -2 -2 -2 -2 -2 -2 -2 -2 -2 -2 -2 -2 -2 -2 -2 -2 -2 -2 -1 0 8 29 70 105 83 37 11 1 -1 -2 -2 -2 -2 0 3 19 55 99 92 45 14 2 0 2 13 45 102 
138 131 106 68 32 11 2 -1 -2 -2 -2 -2 -2 -2 -2 -2 -2 -1 0 7 26 61 99 99 61 26 7 0 -1 -2 -2 -2 -2 -2 -2 -2 -2 -1 2 12 35 75 105 86 44 15 3 1 6 26 68 105 80 34 9 0 -1 -2 -2 -2 -2 -2 -2 -2 -2 -2 -2 -2 -2 -2 -2 -2 -2 -2 -2 -2 -2 -2 -2 -2 -2 -1 2 15 45 89 103 64 25 6 0 -1 -2 -2 -2 -1 0 6 26 68 104 81 35 10 1 0 2 13 46 102 
124 115 114 98 60 26 8 0 -1 -2 -2 -2 -2 -2 -2 -2 -1 0 4 18 47 88 104 75 36 12 2 -1 -2 -2 -2 -2 -2 -2 -2 -2 -1 0 7 25 60 99 99 60 25 7 0 0 4 19 57 101 89 41 12 1 -1 -2 -2 -2 -2 -2 -2 -2 -2 -2 -2 -2 -2 -2 -2 -2 -2 -2 -2 -2 -2 -2 -2 -2 -1 0 6 25 64 103 89 45 15 2 -1 -2 -2 -2 -2 -1 0 10 35 81 104 68 26 6 0 0 2 14 46 99 
110 88 93 107 88 48 19 5 0 -1 -2 -2 -2 -2 -2 -2 -1 2 12 36 75 104 88 47 18 4 0 -1 -2 -2 -2 -2 -2 -2 -2 -2 0 3 15 44 86 105 75 35 12 2 0 0 2 16 50 97 93 45 13 1 -1 -2 -2 -2 -2 -2 -2 -2 -2 -2 -2 -2 -2 -2 -2 -2 -2 -2 -2 -2 -2 -2 -2 -2 -1 1 11 37 83 105 70 29 8 0 -1 -2 -2 -2 -2 -1 2 14 45 92 99 55 19 3 0 -1 2 14 46 97 
102 68 65 92 105 77 40 16 4 0 -1 -2 -2 -2 -2 -1 0 7 26 61 99 99 61 26 7 0 -1 -2 -2 -2 -2 -2 -2 -2 -2 -1 0 7 28 67 103 91 49 18 4 0 -1 -1 2 14 47 95 95 47 14 2 -1 -2 -2 -2 -2 -2 -2 -2 -2 -2 -2 -2 -2 -2 -2 -2 -2 -2 -2 -2 -2 -2 -2 -2 0 3 18 52 97 97 52 18 3 0 -2 -2 -2 -2 -2 0 3 19 55 99 92 45 14 2 -1 -1 2 14 47 96 
98 57 42 64 98 102 72 37 15 4 0 -1 -2 -2 -1 0 4 18 47 88 104 75 36 12 2 -1 -2 -2 -2 -2 -2 -2 -2 -2 -2 0 3 16 45 89 103 68 29 8 0 -1 -1 -1 1 13 45 93 97 50 16 2 -1 -2 -2 -2 -2 -2 -2 -2 -2 -2 -2 -2 -2 -2 -2 -2 -2 -2 -2 -2 -2 -2 -2 -1 0 8 29 70 105 83 37 11 1 -1 -2 -2 -2 -2 -1 0 6 26 68 104 81 35 10 0 -1 -1 2 14 47 96 
96 51 28 37 69 100 101 71 37 15 4 0 -1 -1 -1 2 12 36 75 104 88 47 18 4 0 -1 -2 -2 -2 -2 -2 -2 -2 -2 -1 0 8 29 68 103 89 45 16 3 0 -1 -2 -1 1 12 41 89 101 57 19 4 0 -2 -2 -2 -2 -2 -2 -2 -2 -2 -2 -2 -2 -2 -2 -2 -2 -2 -2 -2 -2 -2 -2 -1 2 15 45 89 103 64 25 6 0 -1 -2 -2 -2 -2 -1 0 10 35 81 104 68 26 6 0 -1 -1 2 14 47 95 
96 48 20 18 37 70 100 101 71 37 15 4 0 0 0 7 26 61 99 99 61 26 7 0 -1 -2 -2 -2 -2 -2 -2 -2 -2 -1 0 4 18 49 91 103 67 28 7 0 -1 -2 -2 -1 0 9 34 80 105 68 26 6 0 -1 -2 -2 -2 -2 -2 -2 -2 -2 -2 -2 -2 -2 -2 -2 -2 -2 -2 -2 -2 -2 -1 0 6 25 64 103 89 45 15 2 -1 -2 -2 -2 -2 -2 -1 2 14 45 92 99 55 19 3 0 -1 -1 2 14 47 95 
95 47 16 8 16 37 70 100 100 71 37 15 5 2 5 18 47 88 104 75 36 12 2 -1 -2 -2 -2 -2 -2 -2 -2 -2 -2 -1 2 12 35 75 105 86 44 15 3 0 -2 -2 -2 -1 0 6 26 68 105 80 34 9 0 -1 -2 -2 -2 -2 -2 -2 -2 -2 -2 -2 -2 -2 -2 -2 -2 -2 -2 -2 -2 -2 -1 1 11 37 83 105 70 29 8 0 -1 -2 -2 -2 -2 -2 0 3 19 55 99 92 45 14 2 -1 -1 -1 2 14 47 95 
95 47 15 4 5 15 37 70 100 100 71 37 16 9 14 36 75 104 88 47 18 4 0 -1 -2 -2 -2 -2 -2 -2 -2 -2 -1 0 7 25 60 99 99 60 25 7 0 -1 -2 -2 -2 -2 0 4 19 57 101 89 41 12 1 -1 -2 -2 -2 -2 -2 -2 -2 -2 -2 -2 -2 -2 -2 -2 -2 -2 -2 -2 -2 -2 0 3 18 52 97 97 52 18 3 0 -2 -2 -2 -2 -2 -1 0 6 26 68 104 81 35 10 0 -1 -2 -1 2 14 47 95 
95 47 14 2 1 4 15 37 70 101 101 71 40 25 33 64 99 99 61 26 7 0 -1 -2 -2 -2 -2 -2 -2 -2 -2 -2 0 3 15 44 86 105 75 35 12 2 -1 -2 -2 -2 -2 -2 -1 2 16 50 97 94 46 14 2 -1 -2 -2 -2 -2 -2 -2 -2 -2 -2 -2 -2 -2 -2 -2 -2 -2 -2 -2 -2 -1 0 8 29 70 105 83 37 11 1 -1 -2 -2 -2 -2 -2 -1 0 10 35 81 104 68 26 6 0 -1 -2 -1 2 14 47 95 
95 47 14 2 0 0 4 15 37 71 101 102 77 57 64 94 105 75 35 12 2 -1 -2 -2 -2 -2 -2 -2 -2 -2 -2 -1 0 7 28 67 103 91 49 18 4 0 -1 -2 -2 -2 -2 -2 -1 2 14 46 94 97 50 16 2 -1 -2 -2 -2 -2 -2 -2 -2 -2 -2 -2 -2 -2 -2 -2 -2 -2 -2 -2 -2 -1 2 15 45 89 103 64 25 6 0 -1 -2 -2 -2 -2 -2 -1 2 14 45 92 99 55 19 3 0 -2 -2 -1 2 14 47 95 
95 47 14 2 -1 -1 0 4 15 37 71 102 110 102 105 113 89 47 18 4 0 -1 -2 -2 -2 -2 -2 -2 -2 -2 -2 0 3 16 45 89 103 68 29 8 0 -1 -2 -2 -2 -2 -2 -2 -1 1 12 41 89 101 57 19 4 0 -2 -2 -2 -2 -2 -2 -2 -2 -2 -2 -2 -2 -2 -2 -2 -2 -2 -2 -1 0 6 25 64 103 89 45 15 2 -1 -2 -2 -2 -2 -2 -2 0 3 19 55 99 92 45 14 2 -1 -2 -2 -1 2 14 47 95 
95 47 14 2 -1 -1 -1 0 4 15 37 73 111 135 135 107 62 26 7 0 -1 -2 -2 -2 -2 -2 -2 -2 -2 -2 -1 0 8 29 68 103 89 45 16 3 0 -2 -2 -2 -2 -2 -2 -2 -1 0 9 34 80 105 68 26 6 0 -1 -2 -2 -2 -2 -2 -2 -2 -2 -2 -2 -2 -2 -2 -2 -2 -2 -2 -1 1 11 37 83 105 70 29 8 0 -1 -2 -2 -2 -2 -2 -1 0 6 26 68 104 81 35 10 0 -1 -2 -2 -1 2 14 47 95 
95 47 14 2 -1 -2 -2 -1 0 4 16 42 85 130 130 84 38 12 2 -1 -2 -2 -2 -2 -2 -2 -2 -2 -2 -1 0 4 18 49 91 103 67 28 7 0 -1 -2 -2 -2 -2 -2 -2 -2 -1 0 6 26 68 105 80 34 9 0 -1 -2 -2 -2 -2 -2 -2 -2 -2 -2 -2 -2 -2 -2 -2 -2 -2 -2 0 3 18 52 97 97 52 18 3 0 -2 -2 -2 -2 -2 -2 -1 0 10 35 81 104 68 26 6 0 -1 -2 -2 -1 2 14 47 95 
95 47 14 2 -1 -2 -2 -2 -1 0 6 23 60 110 114 65 25 6 0 -1 -2 -2 -2 -2 -2 -2 -2 -2 -2 -1 2 12 35 75 105 86 44 15 3 0 -2 -2 -2 -2 -2 -2 -2 -2 -2 0 4 19 57 101 89 41 12 1 -1 -2 -2 -2 -2 -2 -2 -2 -2 -2 -2 -2 -2 -2 -2 -2 -2 -1 0 8 29 70 105 83 37 11 1 -1 -2 -2 -2 -2 -2 -2 -1 2 14 45 92 99 55 19 3 0 -2 -2 -2 -1 2 14 47 95 
95 47 14 2 -1 -2 -2 -2 -2 0 2 15 46 95 107 62 22 5 0 -1 -2 -2 -2 -2 -2 -2 -2 -2 -1 0 7 25 60 99 99 60 25 7 0 -1 -2 -2 -2 -2 -2 -2 -2 -2 -2 -1 2 16 50 97 93 45 13 1 -1 -2 -2 -2 -2 -2 -2 -2 -2 -2 -2 -2 -2 -2 -2 -2 -2 -1 2 15 45 89 103 64 25 6 0 -1 -2 -2 -2 -2 -2 -2 0 3 19 55 99 92 45 14 2 -1 -2 -2 -2 -1 2 14 47 95 
95 47 14 2 -1 -2 -2 -2 -2 -1 1 10 35 82 106 69 27 6 0 -1 -2 -2 -2 -2 -2 -2 -2 -2 0 3 15 44 86 105 75 35 12 2 -1 -2 -2 -2 -2 -2 -2 -2 -2 -2 -2 -1 2 14 47 95 95 47 14 2 -1 -2 -2 -2 -2 -2 -2 -2 -2 -2 -2 -2 -2 -2 -2 -2 -1 0 6 25 64 103 89 45 15 2 -1 -2 -2 -2 -2 -2 -2 -1 0 6 26 68 104 81 35 10 0 -1 -2 -2 -2 -1 2 14 47 95 
95 47 14 2 -1 -2 -2 -2 -2 -1 0 6 26 68 105 81 35 9 0 -1 -2 -2 -2 -2 -2 -2 -2 -1 0 7 28 67 103 91 49 18 4 0 -1 -2 -2 -2 -2 -2 -2 -2 -2 -2 -2 -1 1 13 45 93 97 50 16 2 -1 -2 -2 -2 -2 -2 -2 -2 -2 -2 -2 -2 -2 -2 -2 -2 -1 1 11 37 83 105 70 29 8 0 -1 -2 -2 -2 -2 -2 -2 -1 0 10 35 81 104 68 26 6 0 -1 -2 -2 -2 -1 2 14 47 96 
95 47 14 2 -1 -2 -2 -2 -2 -2 0 4 19 56 101 90 42 12 1 -1 -2 -2 -2 -2 -2 -2 -2 0 3 16 45 89 103 68 29 8 0 -1 -2 -2 -2 -2 -2 -2 -2 -2 -2 -2 -2 -1 1 12 41 89 101 57 19 4 0 -2 -2 -2 -2 -2 -2 -2 -2 -2 -2 -2 -2 -2 -2 -2 0 3 18 52 97 97 52 18 3 0 -2 -2 -2 -2 -2 -2 -2 -1 2 14 45 92 99 55 19 3 0 -2 -2 -2 -2 -1 2 14 48 96 
96 46 14 2 -1 -2 -2 -2 -2 -2 -1 2 15 48 96 96 48 15 2 -1 -2 -2 -2 -2 -2 -2 -1 0 8 29 68 103 89 45 16 3 0 -2 -2 -2 -2 -2 -2 -2 -2 -2 -2 -2 -2 -1 0 9 34 80 105 68 26 6 0 -1 -2 -2 -2 -2 -2 -2 -2 -2 -2 -2 -2 -2 -2 -1 0 8 29 70 105 83 37 11 1 -1 -2 -2 -2 -2 -2 -2 -2 0 3 19 55 99 92 45 14 2 -1 -2 -2 -2 -2 -1 2 16 50 99 
97 46 14 2 -1 -2 -2 -2 -2 -2 -1 1 12 42 90 100 56 19 3 0 -2 -2 -2 -2 -2 -1 0 4 18 49 91 103 67 28 7 0 -1 -2 -2 -2 -2 -2 -2 -2 -2 -2 -2 -2 -2 -1 0 6 26 68 105 80 34 9 0 -1 -2 -2 -2 -2 -2 -2 -2 -2 -2 -2 -2 -2 -2 -1 2 15 45 89 103 64 25 6 0 -1 -2 -2 -2 -2 -2 -2 -1 0 6 26 68 104 81 35 10 0 -1 -2 -2 -2 -1 0 4 20 58 105 
99 46 13 1 -1 -2 -2 -2 -2 -2 -1 0 9 34 80 105 68 26 6 0 -1 -2 -2 -2 -2 -1 2 12 35 75 105 86 44 15 3 0 -2 -2 -2 -2 -2 -2 -2 -2 -2 -2 -2 -2 -2 -2 0 4 19 57 101 89 41 12 1 -1 -2 -2 -2 -2 -2 -2 -2 -2 -2 -2 -2 -2 -1 0 6 25 64 103 89 45 15 2 -1 -2 -2 -2 -2 -2 -2 -2 -1 0 10 35 81 104 68 26 6 0 -1 -2 -2 -2 -1 0 8 30 73 118 
101 45 13 1 -1 -2 -2 -2 -2 -2 -1 0 6 26 68 105 80 34 9 0 -1 -2 -2 -2 -1 0 7 25 60 99 99 60 25 7 0 -1 -2 -2 -2 -2 -2 -2 -2 -2 -2 -2 -2 -2 -2 -2 -1 2 16 50 97 93 45 13 1 -1 -2 -2 -2 -2 -2 -2 -2 -2 -2 -2 -2 -2 -1 1 11 37 83 105 70 29 8 0 -1 -2 -2 -2 -2 -2 -2 -2 -1 2 14 45 92 99 55 19 3 0 -2 -2 -2 -1 0 4 18 48 97 132 
102 45 13 1 -1 -2 -2 -2 -2 -2 -2 0 3 19 56 100 90 42 12 1 -1 -2 -2 -2 0 3 15 44 86 105 75 35 12 2 -1 -2 -2 -2 -2 -2 -2 -2 -2 -2 -2 -2 -2 -2 -2 -2 -1 2 14 47 95 95 47 14 2 -1 -2 -2 -2 -2 -2 -2 -2 -2 -2 -2 -2 -2 0 3 18 52 97 97 52 18 3 0 -2 -2 -2 -2 -2 -2 -2 -2 0 3 19 55 99 92 45 14 2 -1 -2 -2 -2 -1 2 12 35 76 121 140 
101 46 13 1 -1 -2 -2 -2 -2 -2 -2 -1 2 15 48 96 96 48 15 2 -1 -2 -2 -1 0 7 28 67 103 91 49 18 4 0 -1 -2 -2 -2 -2 -2 -2 -2 -2 -2 -2 -2 -2 -2 -2 -2 -1 1 13 45 93 97 50 16 2 -1 -2 -2 -2 -2 -2 -2 -2 -2 -2 -2 -2 -1 0 8 29 70 105 83 37 11 1 -1 -2 -2 -2 -2 -2 -2 -2 -1 0 6 26 68 104 81 35 10 0 -1 -2 -2 -1 0 7 26 61 104 130 136 
99 46 14 2 -1 -2 -2 -2 -2 -2 -2 -1 1 12 42 90 100 56 19 3 0 -1 -1 0 3 16 45 89 103 68 29 8 0 -1 -2 -2 -2 -2 -2 -2 -2 -2 -2 -2 -2 -2 -2 -2 -2 -2 -1 1 12 41 89 101 57 20 4 0 -1 -2 -2 -2 -2 -2 -2 -2 -2 -2 -2 -1 2 15 45 89 103 64 25 6 0 -1 -2 -2 -2 -2 -2 -2 -2 -1 0 10 35 81 104 68 26 6 0 -1 -2 -1 0 4 18 47 89 115 117 123 
97 46 14 2 -1 -2 -2 -2 -2 -2 -2 -1 0 9 34 80 105 68 26 6 0 -1 -1 0 8 29 68 103 89 45 16 3 0 -2 -2 -2 -2 -2 -2 -2 -2 -2 -2 -2 -2 -2 -2 -2 -2 -2 -1 0 9 34 81 105 68 27 7 0 -1 -1 -1 -2 -2 -2 -2 -2 -2 -2 -1 0 6 25 64 103 89 45 15 2 -1 -2 -2 -2 -2 -2 -2 -2 -2 -1 2 14 45 92 99 55 19 3 0 -1 -1 -1 2 12 35 75 107 102 95 111 
96 47 14 2 -1 -2 -2 -2 -2 -2 -2 -1 0 6 26 68 105 80 34 9 0 -1 0 4 18 49 91 103 67 28 7 0 -1 -2 -2 -2 -2 -2 -2 -2 -2 -2 -2 -2 -2 -2 -2 -2 -2 -2 -1 0 6 27 69 107 83 38 13 4 2 0 0 0 -1 -1 -1 -1 -1 -1 -1 1 11 38 83 105 70 29 8 0 -1 -2 -2 -2 -2 -2 -2 -2 -2 0 3 19 55 99 92 45 14 2 -1 -1 -1 0 7 26 61 99 102 77 75 104 
96 47 14 2 -1 -2 -2 -2 -2 -2 -2 -2 0 3 19 56 100 90 42 12 1 0 2 12 35 75 105 86 44 15 3 0 -2 -2 -2 -2 -2 -2 -2 -2 -2 -2 -2 -2 -2 -2 -2 -2 -2 -2 -1 0 6 24 63 108 100 56 28 17 12 9 6 4 2 2 1 1 0 0 0 5 19 53 97 97 52 18 3 0 -2 -2 -2 -2 -2 -2 -2 -2 -1 0 6 26 68 104 81 35 10 0 -1 -1 0 4 18 47 88 105 79 52 61 99 
95 47 14 2 -1 -2 -2 -2 -2 -2 -2 -2 -1 2 15 48 96 96 48 15 3 1 7 25 60 99 99 60 25 7 0 -1 -2 -2 -2 -2 -2 -2 -2 -2 -2 -2 -2 -2 -2 -2 -2 -2 -2 -1 0 3 11 30 70 118 121 86 60 48 42 34 26 19 16 14 13 12 9 7 6 12 32 72 105 83 38 11 1 -1 -2 -2 -2 -2 -2 -2 -2 -2 -1 0 10 35 81 104 68 26 6 0 -1 0 2 12 36 75 104 89 52 34 54 97 
95 47 14 2 -1 -2 -2 -2 -2 -2 -2 -2 -1 1 12 42 90 100 56 19 5 4 15 44 86 105 75 35 12 2 -1 -2 -2 -2 -2 -2 -2 -2 -2 -2 -2 -2 -2 -2 -2 -2 -2 -1 -1 0 4 12 28 54 94 133 140 120 104 96 89 80 68 57 50 47 45 41 34 27 24 31 56 95 105 65 25 6 0 -1 -2 -2 -2 -2 -2 -2 -2 -2 -1 2 14 45 92 99 55 19 3 0 -1 0 7 26 61 99 99 62 30 24 50 96 
95 47 14 2 -1 -2 -2 -2 -2 -2 -2 -2 -1 0 9 34 80 105 68 27 9 10 28 67 103 91 49 18 4 0 -1 -2 -2 -2 -2 -2 -2 -2 -2 -2 -2 -2 -2 -2 -2 -2 -1 0 2 7 18 36 62 92 114 122 115 104 99 98 101 105 105 101 97 95 93 89 81 69 63 70 95 117 95 47 15 3 -1 -2 -2 -2 -2 -2 -2 -2 -2 -2 0 3 19 55 99 92 45 14 2 0 0 4 18 47 88 104 75 37 16 19 48 96 
95 47 14 2 -1 -2 -2 -2 -2 -2 -2 -2 -1 0 6 26 68 105 81 36 15 19 46 89 103 68 29 8 0 -1 -2 -2 -2 -2 -2 -2 -2 -2 -2 -2 -2 -2 -2 -2 -1 -1 0 4 12 26 47 75 99 106 94 74 58 51 49 51 57 68 80 89 93 95 97 101 105 106 107 116 134 131 85 36 11 1 -1 -2 -2 -2 -2 -2 -2 -2 -2 -1 0 6 26 68 104 81 35 10 1 0 2 12 36 75 104 88 48 19 9 16 47 95 
95 47 14 2 -1 -2 -2 -2 -2 -2 -2 -2 -2 0 3 19 56 101 90 45 23 33 69 103 89 45 16 3 0 -2 -2 -2 -2 -2 -2 -2 -2 -2 -2 -2 -2 -2 -2 -1 0 2 7 18 35 61 88 104 99 75 50 31 20 16 15 16 19 26 34 41 45 47 50 57 68 82 95 112 132 131 86 38 12 2 0 -1 -2 -2 -2 -2 -2 -2 -2 -1 1 10 35 81 105 68 26 6 0 1 7 26 61 99 99 61 26 8 5 15 47 95 
95 47 14 2 -1 -2 -2 -2 -2 -2 -2 -2 -2 -1 2 15 48 96 97 55 36 54 92 103 67 28 7 0 -1 -2 -2 -2 -2 -2 -2 -2 -2 -2 -2 -2 -2 -2 -1 0 3 11 25 47 75 99 104 88 61 36 18 9 4 2 2 2 4 6 9 12 13 14 16 19 26 36 47 64 92 117 98 53 21 7 1 0 -1 -1 -1 -1 -1 -1 -1 0 3 14 45 92 100 55 19 4 1 4 18 47 88 104 75 36 12 3 3 14 47 95 
95 47 14 2 -1 -2 -2 -2 -2 -2 -2 -2 -2 -1 1 12 42 90 104 70 57 81 106 87 44 15 3 0 -2 -2 -2 -2 -2 -2 -2 -2 -2 -2 -2 -2 -1 -1 0 5 14 33 60 88 104 99 75 47 26 12 4 1 0 -1 -1 -1 0 0 0 1 1 2 2 4 6 10 16 28 53 92 108 80 43 20 9 4 2 2 2 2 2 2 2 3 8 23 58 101 93 46 14 3 3 12 36 75 104 88 47 18 4 0 2 14 47 95 
95 47 14 2 -1 -2 -2 -2 -2 -2 -2 -2 -2 -1 0 9 34 81 111 94 88 106 99 60 25 7 0 -1 -2 -2 -2 -2 -2 -2 -2 -2 -2 -2 -2 -1 0 2 8 19 39 69 97 105 89 61 36 18 7 2 0 -1 -1 -2 -2 -2 -2 -1 -1 -1 -1 -1 -1 0 0 1 3 10 28 63 103 110 81 51 31 21 16 15 14 14 14 14 14 16 22 40 78 112 87 40 13 5 9 26 61 99 99 61 26 7 0 0 2 14 47 95 
95 47 14 2 -1 -2 -2 -2 -2 -2 -2 -2 -2 -1 0 6 26 68 113 119 117 110 75 35 12 2 -1 -2 -2 -2 -2 -2 -2 -2 -2 -2 -2 -1 -1 0 4 12 26 48 77 101 101 77 48 26 12 4 0 -1 -1 -2 -2 -2 -2 -2 -2 -2 -2 -2 -2 -2 -2 -2 -1 -1 0 3 13 38 83 124 125 98 74 58 51 48 47 47 47 47 47 49 57 76 110 125 87 42 18 12 21 48 89 104 75 36 12 2 0 -1 2 14 47 95 
95 47 14 2 -1 -2 -2 -2 -2 -2 -2 -2 -2 -2 0 3 19 56 110 137 128 93 48 18 4 0 -1 -2 -2 -2 -2 -2 -2 -2 -2 -2 -1 0 2 7 18 36 61 89 105 97 69 39 19 8 2 0 -1 -2 -2 -2 -2 -2 -2 -2 -2 -2 -2 -2 -2 -2 -2 -2 -2 -2 -1 0 6 25 65 120 142 128 112 103 98 96 95 95 95 95 96 97 103 116 137 138 102 62 37 30 44 78 105 89 48 18 4 0 -1 -1 2 14 47 95 
95 47 14 2 -1 -2 -2 -2 -2 -2 -2 -2 -2 -2 -1 2 15 49 106 140 117 68 28 8 0 -1 -2 -2 -2 -2 -2 -2 -2 -2 -1 -1 0 4 12 26 47 75 99 104 88 60 33 14 5 0 -1 -1 -2 -2 -2 -2 -2 -2 -2 -2 -2 -2 -2 -2 -2 -2 -2 -2 -2 -2 -1 0 5 22 62 113 123 102 92 92 94 95 95 95 95 95 95 96 98 103 114 123 117 97 76 68 83 108 102 63 26 8 0 -1 -1 -1 2 14 47 95 
95 47 14 2 -1 -2 -2 -2 -2 -2 -2 -2 -2 -2 -1 2 14 46 103 132 95 45 15 3 0 -2 -2 -2 -2 -2 -2 -2 -1 -1 0 2 7 17 35 61 89 105 99 75 48 26 11 3 0 -1 -1 -2 -2 -2 -2 -2 -2 -2 -2 -2 -2 -2 -2 -2 -2 -2 -2 -2 -2 -2 -1 0 6 26 69 110 95 61 46 44 45 46 47 47 47 47 47 47 48 50 58 73 92 106 111 114 125 124 86 41 14 2 0 -1 -2 -1 2 14 47 95 
95 47 14 2 -1 -2 -2 -2 -2 -2 -2 -2 -2 -2 -1 2 14 46 100 117 72 29 8 0 -1 -2 -2 -2 -2 -2 -1 -1 0 1 5 12 25 46 75 102 109 93 65 39 20 9 3 0 -1 -1 -2 -2 -2 -2 -2 -2 -2 -2 -2 -2 -2 -2 -2 -2 -2 -2 -2 -2 -2 -2 -1 0 9 34 81 106 73 34 18 14 14 14 14 14 14 14 14 14 14 16 20 29 46 68 94 120 140 127 77 32 10 1 -1 -2 -2 -1 2 14 47 95 
95 47 14 2 -1 -2 -2 -2 -2 -2 -2 -2 -2 -2 -1 2 14 47 98 105 57 20 4 0 -1 -2 -2 -2 -1 0 0 2 6 12 21 36 61 92 118 119 95 65 41 24 13 6 3 1 0 0 -1 -1 -1 -1 -2 -2 -2 -2 -2 -2 -2 -2 -2 -2 -2 -2 -2 -2 -2 -2 -1 1 12 41 89 101 58 22 7 3 2 2 2 2 2 2 2 2 2 2 4 8 16 29 49 80 115 123 86 41 14 2 0 -1 -2 -1 2 14 47 95 
95 47 14 2 -1 -2 -2 -2 -2 -2 -2 -2 -2 -2 -1 2 16 50 98 97 48 15 2 -1 -1 -1 -1 0 0 3 7 14 25 38 55 79 107 132 140 123 93 69 52 39 28 19 14 10 6 4 2 1 0 0 0 -1 -1 -1 -2 -2 -2 -2 -2 -2 -2 -2 -2 -2 -2 -2 -1 2 14 46 94 97 50 16 3 0 -1 -1 -1 -1 -1 -1 -1 -1 -1 -1 0 0 3 8 19 40 74 107 103 63 26 8 0 -1 -1 -1 2 14 47 95 
95 47 14 2 -1 -2 -2 -2 -2 -2 -2 -2 -2 -2 0 4 19 57 101 90 42 12 1 0 0 0 1 3 8 15 27 44 64 83 99 111 117 121 124 121 111 101 92 82 68 55 45 35 26 19 15 12 9 6 3 2 0 0 0 -1 -1 -1 -1 -2 -2 -2 -2 -2 -2 -2 -1 2 16 50 97 94 46 14 2 -1 -1 -2 -2 -2 -2 -2 -2 -2 -2 -2 -1 -1 0 1 5 16 40 78 106 89 48 18 4 0 -1 -1 2 14 47 95 
95 47 14 2 -1 -2 -2 -2 -2 -2 -2 -2 -2 -1 0 6 26 68 105 81 35 10 2 1 2 6 11 18 29 46 67 88 103 105 98 86 73 67 72 82 91 96 101 105 104 99 92 81 68 56 48 42 34 26 18 14 10 6 4 2 1 0 0 0 -1 -1 -1 -2 -2 -1 0 4 19 57 101 89 41 12 1 -1 -2 -2 -2 -2 -2 -2 -2 -2 -2 -2 -2 -2 -1 -1 0 5 19 48 89 104 75 36 12 2 0 -1 2 14 47 95 
95 47 14 2 -1 -2 -2 -2 -2 -2 -2 -2 -2 -1 0 9 34 81 105 68 27 9 5 8 14 25 37 52 70 90 103 103 90 71 53 39 28 24 27 34 42 48 56 68 81 92 99 104 105 101 96 90 80 67 55 45 35 26 19 15 12 9 6 3 2 0 0 0 -1 0 0 6 26 68 105 80 34 9 0 -1 -2 -2 -2 -2 -2 -2 -2 -2 -2 -2 -2 -2 -2 -2 -1 1 8 26 61 99 99 61 26 8 1 0 2 14 47 95 
95 47 14 2 -1 -2 -2 -2 -2 -2 -2 -2 -2 -1 1 12 42 90 102 59 25 14 17 28 44 64 83 97 105 102 88 67 46 29 18 11 7 5 6 9 12 15 19 26 35 45 55 67 80 90 96 101 105 104 99 92 81 68 56 48 42 34 26 18 14 10 6 4 2 2 3 11 36 81 105 68 26 6 0 -1 -2 -2 -2 -2 -2 -2 -2 -2 -2 -2 -2 -2 -2 -2 -2 -1 2 12 36 75 104 89 48 19 5 1 2 14 47 95 
95 47 14 2 -1 -2 -2 -2 -2 -2 -2 -2 -2 -1 2 15 48 97 101 59 34 33 46 67 88 102 105 97 83 64 44 27 15 8 4 1 0 0 0 0 1 2 4 6 10 14 18 26 34 42 48 56 68 81 92 99 104 105 101 96 90 80 67 55 45 35 26 19 15 13 13 20 47 92 102 57 19 4 0 -2 -2 -2 -2 -2 -2 -2 -2 -2 -2 -2 -2 -2 -2 -2 -2 -1 0 4 18 47 88 105 77 39 15 4 3 14 47 95 
95 47 14 2 -1 -2 -2 -2 -2 -2 -2 -2 -1 0 4 20 57 106 107 74 61 71 90 103 103 90 70 52 37 25 14 7 3 0 0 -1 -1 -1 -1 -1 -1 -1 0 0 0 2 3 6 9 12 15 19 26 35 45 55 67 80 90 96 101 105 104 99 92 81 68 56 48 43 39 41 64 104 100 50 16 2 -1 -2 -2 -2 -2 -2 -2 -2 -2 -2 -2 -2 -2 -2 -2 -2 -2 -2 -1 0 7 25 60 97 101 69 33 12 6 15 47 95 
95 47 14 2 -1 -2 -2 -2 -2 -2 -2 -2 -1 0 8 29 73 121 124 104 100 106 104 89 67 46 29 18 11 6 2 0 0 -1 -2 -2 -2 -2 -2 -2 -2 -2 -2 -1 -1 -1 0 0 0 1 2 4 6 10 14 18 26 34 42 48 56 68 81 92 99 104 105 101 96 91 84 82 96 121 101 47 14 2 -1 -2 -2 -2 -2 -2 -2 -2 -2 -2 -2 -2 -2 -2 -2 -2 -2 -2 -2 -1 2 11 33 69 101 97 60 27 12 17 48 95 
95 47 14 2 -1 -2 -2 -2 -2 -2 -2 -2 0 3 15 45 96 137 137 120 106 89 67 45 28 16 8 3 1 0 -1 -1 -2 -2 -2 -2 -2 -2 -2 -2 -2 -2 -2 -2 -2 -2 -2 -1 -1 -1 -1 0 0 0 2 3 6 9 12 15 19 26 35 45 55 67 80 90 96 101 107 115 129 139 103 46 13 2 -1 -2 -2 -2 -2 -2 -2 -2 -2 -2 -2 -2 -2 -2 -2 -2 -2 -2 -2 -1 0 3 14 39 77 105 88 49 23 22 49 96 
95 47 14 2 -1 -2 -2 -2 -2 -2 -2 -1 0 8 28 68 114 127 109 86 64 44 27 15 7 3 0 0 -1 -1 -2 -2 -2 -2 -2 -2 -2 -2 -2 -2 -2 -2 -2 -2 -2 -2 -2 -2 -2 -2 -2 -2 -1 -1 -1 0 0 0 1 2 4 6 10 14 18 26 34 42 48 57 71 92 119 136 102 46 13 1 -1 -2 -2 -2 -2 -2 -2 -2 -2 -2 -2 -2 -2 -2 -2 -2 -2 -2 -2 -2 -1 0 5 19 48 88 105 78 43 31 53 97 
96 47 14 2 -1 -2 -2 -2 -2 -2 -1 0 4 18 49 92 112 90 59 39 25 14 7 3 0 0 -1 -2 -2 -2 -2 -2 -2 -2 -2 -2 -2 -2 -2 -2 -2 -2 -2 -2 -2 -2 -2 -2 -2 -2 -2 -2 -2 -2 -2 -2 -1 -1 -1 -1 0 0 0 2 3 6 9 12 15 20 30 49 82 117 99 46 14 2 -1 -2 -2 -2 -2 -2 -2 -2 -2 -2 -2 -2 -2 -2 -2 -2 -2 -2 -2 -2 -2 -1 0 8 26 60 97 102 73 49 60 99 
96 47 14 2 -1 -2 -2 -2 -2 -2 -1 2 12 36 75 106 91 53 26 13 6 2 0 0 -1 -2 -2 -2 -2 -2 -2 -2 -2 -2 -2 -2 -2 -2 -2 -2 -2 -2 -2 -2 -2 -2 -2 -2 -2 -2 -2 -2 -2 -2 -2 -2 -2 -2 -2 -2 -2 -1 -1 -1 0 0 0 1 2 4 10 25 59 103 97 47 14 2 -1 -2 -2 -2 -2 -2 -2 -2 -2 -2 -2 -2 -2 -2 -2 -2 -2 -2 -2 -2 -2 -2 -1 2 11 33 69 102 101 76 74 103 
97 46 14 2 -1 -2 -2 -2 -2 -1 0 8 26 61 99 99 62 27 10 3 0 0 -1 -2 -2 -2 -2 -2 -2 -2 -2 -2 -2 -2 -2 -2 -2 -2 -2 -2 -2 -2 -2 -2 -2 -2 -2 -2 -2 -2 -2 -2 -2 -2 -2 -2 -2 -2 -2 -2 -2 -2 -2 -2 -2 -1 -1 -1 0 0 4 17 50 98 97 48 15 2 -1 -2 -2 -2 -2 -2 -2 -2 -2 -2 -2 -2 -2 -2 -2 -2 -2 -2 -2 -2 -2 -2 -1 0 3 14 39 77 107 102 94 111 
99 46 14 2 -1 -2 -2 -2 -1 0 5 19 48 89 105 76 36 13 3 0 -1 -1 -2 -2 -2 -2 -2 -2 -2 -2 -2 -2 -2 -2 -2 -2 -2 -2 -2 -2 -2 -2 -2 -2 -2 -2 -2 -2 -2 -2 -2 -2 -2 -2 -2 -2 -2 -2 -2 -2 -2 -2 -2 -2 -2 -2 -2 -2 -1 0 2 15 47 96 99 52 17 3 0 -1 -2 -2 -2 -2 -2 -2 -2 -2 -2 -2 -2 -2 -2 -2 -2 -2 -2 -2 -2 -2 -2 -1 0 5 19 48 89 115 117 123 
101 46 13 1 -1 -2 -2 -1 0 4 15 39 78 107 92 51 21 6 1 0 -1 -1 -1 -1 -1 -1 -1 -1 -1 -1 -2 -2 -2 -2 -2 -2 -2 -2 -2 -2 -2 -2 -2 -2 -2 -2 -2 -2 -2 -2 -2 -2 -2 -2 -2 -2 -2 -2 -2 -2 -2 -2 -2 -2 -2 -2 -2 -2 -1 0 4 17 49 98 107 63 25 8 1 0 -1 -2 -2 -2 -2 -2 -2 -2 -2 -2 -2 -2 -2 -2 -2 -2 -2 -2 -2 -2 -2 -2 -1 0 8 26 61 104 130 136 
102 45 13 1 -1 -1 -1 0 4 14 36 72 108 110 75 40 19 9 4 3 2 2 2 2 2 2 1 1 0 0 0 -1 -1 -1 -1 -1 -1 -1 -1 -1 -1 -2 -2 -2 -2 -2 -2 -2 -2 -2 -2 -2 -2 -2 -2 -2 -2 -2 -2 -2 -2 -2 -2 -2 -2 -2 -2 -1 0 2 9 25 59 107 124 87 45 21 9 3 0 -1 -1 -2 -2 -2 -2 -2 -2 -2 -2 -2 -2 -2 -2 -2 -2 -2 -2 -2 -2 -2 -2 -1 2 12 35 76 121 140 
101 45 13 1 -1 -1 0 4 14 36 71 111 130 111 79 55 39 27 20 16 14 14 14 14 14 14 13 12 9 6 4 2 2 2 2 2 2 1 1 0 0 0 -1 -1 -1 -1 -1 -1 -1 -1 -1 -1 -1 -2 -2 -2 -2 -2 -2 -2 -2 -2 -2 -2 -2 -1 0 0 4 12 26 50 85 124 141 119 81 50 29 15 7 2 0 -1 -2 -2 -2 -2 -2 -2 -2 -2 -2 -2 -2 -2 -2 -2 -2 -2 -2 -2 -2 -1 0 4 18 48 97 132 
99 46 13 2 0 0 4 15 36 70 110 137 139 123 107 94 82 68 57 50 48 47 47 47 47 46 45 41 34 26 19 16 14 14 14 14 14 13 12 9 6 4 2 2 2 2 2 2 2 1 1 0 0 0 -1 -1 -1 -1 -1 -1 -1 -1 -1 -1 -1 0 3 8 18 36 61 89 111 122 124 122 111 92 68 44 25 12 4 0 0 -1 -2 -2 -2 -2 -2 -2 -2 -2 -2 -2 -2 -2 -2 -2 -2 -2 -2 -2 -1 0 8 30 73 118 
97 46 14 2 1 4 15 37 70 104 119 115 107 102 100 102 105 105 101 98 96 95 95 95 95 95 93 89 80 68 57 50 48 47 47 47 46 45 41 34 26 19 16 14 14 14 14 14 14 13 12 9 6 4 2 2 2 2 2 2 1 1 1 1 2 7 15 29 49 75 99 106 94 78 70 77 93 105 103 87 61 35 18 8 3 0 -1 -1 -2 -2 -2 -2 -2 -2 -2 -2 -2 -2 -2 -2 -2 -2 -2 -2 -1 0 4 20 58 105 
96 47 15 5 6 16 37 71 101 105 84 62 52 49 51 57 68 80 89 93 95 95 95 95 95 96 98 101 105 105 101 98 96 95 95 95 95 93 89 80 68 57 50 48 47 47 47 47 46 45 41 34 26 19 16 14 14 14 14 14 13 12 10 10 14 26 44 67 91 105 99 75 50 33 27 32 47 68 91 105 99 75 49 29 15 7 2 0 -1 -2 -2 -2 -2 -2 -2 -2 -2 -2 -2 -2 -2 -2 -2 -2 -2 -1 2 16 50 99 
96 48 18 12 20 40 72 101 101 73 42 24 17 15 16 19 26 34 41 45 46 47 47 47 47 48 50 57 68 80 89 93 95 95 95 95 96 98 101 105 105 101 98 96 95 95 95 95 95 93 89 80 68 57 50 48 47 47 47 46 45 41 37 35 43 63 87 103 103 87 61 36 19 10 7 9 16 29 49 75 99 105 91 67 44 25 12 4 0 0 -1 -2 -2 -2 -2 -2 -2 -2 -2 -2 -2 -2 -2 -2 -2 -1 2 14 48 96 
97 53 28 30 49 77 102 100 70 37 16 7 3 2 2 4 6 9 12 13 14 14 14 14 14 14 16 19 26 34 41 45 46 47 47 47 48 50 57 68 80 89 93 95 95 95 95 95 96 98 101 105 105 101 98 96 95 95 95 95 93 91 86 83 91 105 107 91 68 44 25 12 4 1 0 0 3 8 18 35 61 87 103 103 87 61 35 18 8 3 0 -1 -1 -2 -2 -2 -2 -2 -2 -2 -2 -2 -2 -2 -2 -1 2 14 47 96 
101 63 49 64 89 105 97 68 36 15 4 0 0 -1 -1 0 0 0 1 1 2 2 2 2 2 2 2 4 6 9 12 13 14 14 14 14 14 16 19 26 34 41 45 46 47 47 47 47 48 50 57 68 80 89 93 95 95 95 96 96 99 106 119 131 132 113 81 50 29 15 7 2 0 -1 -1 -1 0 0 4 12 25 44 67 91 105 99 75 49 29 15 7 2 0 -1 -2 -2 -2 -2 -2 -2 -2 -2 -2 -2 -2 -1 2 14 47 96 
109 84 84 101 105 88 60 32 14 4 0 -1 -2 -2 -2 -2 -1 -1 -1 -1 -1 -1 -1 -1 -1 -1 -1 0 0 0 1 1 2 2 2 2 2 2 4 6 9 12 13 14 14 14 14 14 14 16 19 26 34 41 45 46 47 47 47 49 54 68 98 134 131 87 45 21 9 3 0 -1 -1 -2 -2 -2 -2 -1 0 2 7 15 29 49 75 99 105 91 67 44 25 12 4 0 0 -1 -2 -2 -2 -2 -2 -2 -2 -2 -2 -1 2 14 46 97 
124 114 112 104 77 48 26 11 3 0 -1 -2 -2 -2 -2 -2 -2 -2 -2 -2 -2 -2 -2 -2 -2 -2 -2 -2 -1 -1 -1 -1 -1 -1 -1 -1 -1 -1 0 0 0 1 1 2 2 2 2 2 2 2 4 6 9 12 13 14 14 14 14 15 20 34 68 114 113 63 25 8 1 0 -1 -2 -2 -2 -2 -2 -2 -2 -1 -1 0 3 8 18 35 61 87 103 103 87 61 35 18 8 3 0 0 -1 -2 -2 -2 -2 -2 -2 -2 -1 2 14 46 99 
138 131 107 72 40 19 8 2 0 -1 -2 -2 -2 -2 -2 -2 -2 -2 -2 -2 -2 -2 -2 -2 -2 -2 -2 -2 -2 -2 -2 -2 -2 -2 -2 -2 -2 -2 -2 -1 -1 -1 -1 -1 -1 -1 -1 -1 -1 -1 0 0 0 1 1 2 2 2 2 3 7 20 53 102 101 52 17 3 0 -1 -2 -2 -2 -2 -2 -2 -2 -2 -2 -2 -1 0 0 4 12 25 44 67 91 105 99 75 49 29 16 7 3 0 -1 -1 -2 -2 -2 -2 -2 -1 1 13 46 102 
138 116 73 37 16 5 0 -1 -1 -2 -2 -2 -2 -2 -2 -2 -2 -2 -2 -2 -2 -2 -2 -2 -2 -2 -2 -2 -2 -2 -2 -2 -2 -2 -2 -2 -2 -2 -2 -2 -2 -2 -2 -2 -2 -2 -2 -2 -2 -2 -2 -1 -1 -1 -1 -1 -1 -1 -1 0 3 15 48 97 97 48 15 2 -1 -2 -2 -2 -2 -2 -2 -2 -2 -2 -2 -2 -2 -2 -1 0 2 7 15 29 49 75 99 105 91 68 45 28 15 7 2 0 -1 -1 -2 -2 -2 -1 1 13 45 102 
124 85 42 16 4 0 -1 -2 -2 -2 -2 -2 -2 -2 -2 -2 -2 -2 -2 -2 -2 -2 -2 -2 -2 -2 -2 -2 -2 -2 -2 -2 -2 -2 -2 -2 -2 -2 -2 -2 -2 -2 -2 -2 -2 -2 -2 -2 -2 -2 -2 -2 -2 -2 -2 -2 -2 -2 -1 -1 2 14 47 96 96 47 14 2 -1 -2 -2 -2 -2 -2 -2 -2 -2 -2 -2 -2 -2 -2 -2 -1 -1 0 3 8 18 35 60 86 103 103 89 67 44 25 11 4 0 0 -1 -1 -1 -1 2 13 46 100 
108 62 24 7 0 -1 -2 -2 -2 -2 -2 -2 -2 -2 -2 -2 -2 -2 -2 -2 -2 -2 -2 -2 -2 -2 -2 -2 -2 -2 -2 -2 -2 -2 -2 -2 -2 -2 -2 -2 -2 -2 -2 -2 -2 -2 -2 -2 -2 -2 -2 -2 -2 -2 -2 -2 -2 -2 -2 -1 2 14 47 95 95 47 14 2 -1 -2 -2 -2 -2 -2 -2 -2 -2 -2 -2 -2 -2 -2 -2 -2 -2 -1 0 0 4 12 25 44 67 89 103 103 87 60 35 18 8 4 2 0 0 0 3 14 47 98 
100 52 17 3 0 -1 -2 -2 -2 -2 -2 -2 -2 -2 -2 -2 -2 -2 -2 -2 -2 -2 -2 -2 -2 -2 -2 -2 -2 -2 -2 -2 -2 -2 -2 -2 -2 -2 -2 -2 -2 -2 -2 -2 -2 -2 -2 -2 -2 -2 -2 -2 -2 -2 -2 -2 -2 -2 -2 -1 2 14 47 95 95 47 14 2 -1 -2 -2 -2 -2 -2 -2 -2 -2 -2 -2 -2 -2 -2 -2 -2 -2 -2 -2 -1 0 2 7 15 28 46 69 92 106 100 76 49 30 19 14 10 6 4 6 17 49 97 
97 48 15 2 -1 -1 -2 -2 -2 -2 -2 -2 -2 -2 -2 -2 -2 -2 -2 -2 -2 -2 -2 -2 -2 -2 -2 -2 -2 -2 -2 -2 -2 -2 -2 -2 -2 -2 -2 -2 -2 -2 -2 -2 -2 -2 -2 -2 -2 -2 -2 -2 -2 -2 -2 -2 -2 -2 -2 -1 2 14 47 95 95 47 14 2 -1 -2 -2 -2 -2 -2 -2 -2 -2 -2 -2 -2 -2 -2 -2 -2 -2 -2 -2 -2 -1 0 0 3 9 18 33 55 85 112 116 97 73 56 45 35 26 20 18 26 55 100 
98 48 15 3 0 -1 -1 -1 -1 -1 -2 -2 -2 -2 -2 -2 -2 -2 -2 -2 -2 -2 -2 -2 -2 -2 -2 -2 -2 -2 -2 -2 -2 -2 -2 -2 -2 -2 -2 -2 -2 -2 -2 -2 -2 -2 -2 -2 -2 -2 -2 -2 -2 -2 -2 -2 -2 -2 -2 -1 2 14 47 95 95 47 14 2 -1 -2 -2 -2 -2 -2 -2 -2 -2 -2 -2 -2 -2 -2 -2 -2 -2 -2 -2 -2 -1 -1 0 1 5 12 22 39 68 105 134 137 121 105 93 81 68 56 49 52 73 108 
103 50 18 6 3 2 1 1 0 0 0 -1 -1 -1 -1 -1 -1 -1 -2 -2 -2 -2 -2 -2 -2 -2 -2 -2 -2 -2 -2 -2 -2 -2 -2 -2 -2 -2 -2 -2 -2 -2 -2 -2 -2 -2 -2 -2 -2 -2 -2 -2 -2 -2 -2 -2 -2 -2 -2 -1 2 14 47 95 95 47 14 2 -1 -2 -2 -2 -2 -2 -2 -2 -2 -2 -2 -2 -2 -2 -2 -2 -2 -2 -1 -1 0 1 4 8 15 26 41 59 84 112 129 126 113 104 103 105 105 100 95 95 107 126 
113 61 30 18 15 14 13 12 9 6 4 2 2 2 1 1 0 0 0 -1 -1 -1 -1 -1 -1 -1 -1 -2 -2 -2 -2 -2 -2 -2 -2 -2 -2 -2 -2 -2 -2 -2 -2 -2 -2 -2 -2 -2 -2 -2 -2 -2 -2 -2 -2 -2 -2 -2 -2 -1 2 14 47 95 95 47 14 2 -1 -2 -2 -2 -2 -2 -2 -2 -2 -2 -2 -2 -2 -2 -2 -1 -1 0 0 2 6 11 18 29 45 64 83 98 108 107 93 73 59 54 58 68 81 92 102 114 132 144 
129 88 61 51 47 46 45 41 34 26 19 16 14 14 13 12 9 6 4 2 2 2 2 1 1 0 0 0 -1 -1 -1 -1 -1 -1 -1 -2 -2 -2 -2 -2 -2 -2 -2 -2 -2 -2 -2 -2 -2 -2 -2 -2 -2 -2 -2 -2 -2 -2 -2 -1 2 14 47 95 95 47 14 2 -1 -2 -2 -2 -2 -2 -2 -2 -2 -2 -2 -2 -2 -1 -1 0 1 3 8 15 25 37 52 70 89 103 105 97 83 64 44 29 20 18 20 26 35 45 58 78 111 141 
145 125 106 98 96 95 93 89 80 68 57 50 48 46 45 41 34 26 19 16 14 14 14 13 12 9 6 4 2 2 2 1 1 0 0 0 -1 -1 -1 -1 -1 -1 -1 -1 -2 -2 -2 -2 -2 -2 -2 -2 -2 -2 -2 -2 -2 -2 -2 -1 2 14 47 95 95 47 14 2 -1 -2 -2 -2 -2 -2 -2 -2 -2 -2 -2 -1 0 0 2 6 11 18 29 45 64 83 97 105 103 89 70 52 37 25 14 8 4 3 4 6 10 14 22 40 76 125 
141 125 106 98 96 96 98 101 105 105 101 98 96 95 93 89 80 68 57 50 48 47 46 45 41 34 26 19 16 14 14 13 12 9 6 4 2 2 2 2 1 1 0 0 0 -1 -1 -1 -1 -1 -1 -1 -2 -2 -2 -2 -2 -2 -2 -1 2 14 47 95 95 47 14 2 -1 -2 -2 -2 -2 -2 -2 -2 -1 -1 0 0 3 7 14 25 37 52 70 89 103 105 97 83 64 45 29 18 11 6 2 0 0 0 0 0 1 3 8 22 56 111 
120 88 61 51 48 48 50 57 68 80 89 93 95 96 98 101 105 105 101 98 96 95 95 93 89 80 68 57 50 48 46 45 41 34 26 19 16 14 14 14 13 12 9 6 4 2 2 2 1 1 0 0 0 -1 -1 -1 -1 -1 -1 0 2 14 47 95 95 47 14 2 -1 -2 -2 -2 -2 -2 -1 -1 0 1 3 8 15 27 44 64 83 97 105 103 89 70 52 37 25 15 8 3 1 0 -1 -1 -1 -2 -2 -1 -1 0 3 16 49 102 
104 61 30 18 15 15 16 19 26 34 41 45 46 48 50 57 68 80 89 93 95 95 96 98 101 105 105 101 98 96 95 93 89 80 68 57 50 48 47 46 45 41 34 26 19 16 14 14 13 12 9 6 4 2 2 2 2 1 1 1 4 15 48 96 96 47 14 2 -1 -2 -2 -1 -1 0 0 2 6 11 18 29 46 67 88 102 105 97 83 64 45 29 18 11 6 2 0 0 -1 -1 -2 -2 -2 -2 -2 -2 -2 -1 2 14 47 97 
98 51 18 6 3 2 2 4 6 9 12 13 14 14 16 19 26 34 41 45 46 47 48 50 57 68 80 89 93 95 96 98 101 105 105 101 98 96 95 95 93 89 80 68 57 50 48 46 45 41 34 26 19 16 14 14 14 13 12 10 10 20 51 98 97 48 15 2 0 -1 -1 0 1 3 8 15 25 37 52 70 90 103 103 90 70 52 37 25 15 8 3 1 0 -1 -1 -2 -2 -2 -2 -2 -2 -2 -2 -2 -2 -1 2 14 47 96 
96 48 15 3 0 -1 -1 0 0 0 1 1 2 2 2 4 6 9 12 13 14 14 14 16 19 26 34 41 45 46 48 50 57 68 80 89 93 95 95 96 98 101 105 105 101 98 96 95 93 89 80 68 57 50 48 47 46 45 41 35 30 36 63 106 102 52 17 4 0 0 2 6 11 18 29 45 64 83 97 105 102 88 67 46 29 18 11 6 2 0 0 -1 -1 -2 -2 -2 -2 -2 -2 -2 -2 -2 -2 -2 -2 -1 2 14 47 95 
95 47 14 2 -1 -1 -2 -2 -1 -1 -1 -1 -1 -1 -1 0 0 0 1 1 2 2 2 2 4 6 9 12 13 14 14 16 19 26 34 41 45 46 47 48 50 57 68 80 89 93 95 96 98 101 105 105 101 98 96 95 95 93 89 81 72 71 91 124 114 63 26 10 6 8 15 25 37 52 70 89 103 105 97 83 64 44 27 15 8 3 1 0 -1 -1 -2 -2 -2 -2 -2 -2 -2 -2 -2 -2 -2 -2 -2 -2 -2 -1 2 14 47 95 
95 47 14 2 -1 -2 -2 -2 -2 -2 -2 -2 -2 -2 -2 -2 -1 -1 -1 -1 -1 -1 -1 -1 0 0 0 1 1 2 2 2 4 6 9 12 13 14 14 14 16 19 26 34 41 45 46 48 50 57 68 80 89 93 95 95 96 98 101 105 107 109 122 141 131 88 48 28 24 31 45 64 83 97 105 103 89 70 52 37 25 14 7 3 0 0 -1 -1 -2 -2 -2 -2 -2 -2 -2 -2 -2 -2 -2 -2 -2 -2 -2 -2 -2 -1 2 14 47 95 
95 47 14 2 -1 -2 -2 -2 -2 -2 -2 -2 -2 -2 -2 -2 -2 -2 -2 -2 -2 -2 -2 -2 -2 -1 -1 -1 -1 -1 -1 -1 0 0 0 1 1 2 2 2 2 4 6 9 12 13 14 14 16 19 26 34 41 45 46 47 48 50 57 68 81 91 102 116 126 115 88 67 63 74 90 103 105 97 83 64 45 29 18 11 6 2 0 0 -1 -2 -2 -2 -2 -2 -2 -2 -2 -2 -2 -2 -2 -2 -2 -2 -2 -2 -2 -2 -2 -1 2 14 47 95 
95 47 14 2 -1 -2 -2 -2 -2 -2 -2 -2 -2 -2 -2 -2 -2 -2 -2 -2 -2 -2 -2 -2 -2 -2 -2 -2 -2 -2 -2 -2 -2 -1 -1 -1 -1 -1 -1 -1 -1 0 0 0 1 1 2 2 2 4 6 9 12 13 14 14 14 16 19 26 34 42 50 63 87 115 127 121 112 109 104 90 70 52 38 25 15 8 3 1 0 -1 -1 -2 -2 -2 -2 -2 -2 -2 -2 -2 -2 -2 -2 -2 -2 -2 -2 -2 -2 -2 -2 -2 -2 -1 2 14 47 95 
95 47 14 2 -1 -1 -2 -2 -2 -2 -2 -2 -2 -2 -2 -2 -2 -2 -2 -2 -2 -2 -2 -2 -2 -2 -2 -2 -2 -2 -2 -2 -2 -2 -2 -2 -1 -1 -1 -1 -1 -1 -1 -1 -1 -1 -1 -1 0 0 0 0 1 2 2 2 2 3 4 6 9 12 16 25 47 88 132 140 116 89 66 45 29 18 11 6 2 0 0 -1 -1 -1 -2 -2 -2 -2 -2 -2 -2 -2 -2 -2 -2 -2 -2 -2 -2 -2 -2 -2 -2 -2 -2 -2 -1 -1 2 14 47 95 
96 48 15 3 0 -1 -1 -1 -1 -1 -1 -1 -1 -1 -1 -1 -1 -1 -1 -1 -1 -1 -1 -1 -1 -1 -1 -1 -1 -1 -1 -1 -1 -1 -1 -1 -1 -1 -1 -1 -1 -1 -1 -1 -1 -1 -1 -1 -1 -1 0 0 0 0 0 0 0 0 0 0 1 2 4 10 27 64 115 122 83 49 29 16 9 4 2 0 0 0 0 -1 -1 -1 -1 -1 -1 -1 -1 -1 -1 -1 -1 -1 -1 -1 -1 -1 -1 -1 -1 -1 -1 -1 -1 -1 -1 0 3 15 48 96 
98 51 18 6 3 2 2 2 2 2 2 2 2 2 2 2 2 2 2 2 2 2 2 2 2 2 2 2 2 2 2 2 1 1 1 2 2 2 2 2 2 2 2 2 2 2 2 2 2 2 2 2 2 2 2 2 2 2 2 2 2 3 4 8 22 56 105 108 63 30 14 8 5 3 3 2 2 2 2 2 2 2 2 2 2 2 2 2 2 2 2 1 1 1 2 2 2 2 2 2 2 2 2 2 2 2 6 18 51 98 
106 61 30 18 15 14 14 14 14 14 14 14 14 14 14 14 14 14 14 14 14 14 14 14 14 14 14 14 14 14 14 14 13 13 13 14 14 14 14 14 14 14 14 14 14 14 14 14 13 13 13 14 14 14 14 14 14 14 14 14 14 14 15 19 31 63 108 109 65 33 20 16 15 14 14 14 14 14 14 14 14 14 14 14 14 14 14 14 14 14 14 13 13 13 14 14 14 14 14 14 14 14 14 13 13 14 18 30 61 106 
126 88 61 51 48 47 47 47 47 47 47 47 47 47 47 47 47 47 47 47 47 47 47 47 47 47 47 47 47 47 46 46 46 45 46 46 46 47 47 47 47 47 47 47 47 47 47 46 46 46 46 46 46 47 47 47 47 47 47 47 47 47 48 51 62 88 125 125 89 62 51 48 47 47 47 47 47 47 47 47 47 47 47 47 47 47 47 47 47 47 46 46 45 46 46 46 47 47 47 47 47 47 46 46 46 47 50 61 88 126 
152 126 106 98 96 95 95 95 95 95 95 95 95 95 95 95 95 95 95 95 95 95 95 95 95 95 95 95 95 96 97 99 102 102 100 98 96 95 95 95 95 95 95 95 95 95 96 97 99 103 103 99 97 96 95 95 95 95 95 95 95 95 96 98 104 119 138 138 119 104 98 96 95 95 95 95 95 95 95 95 95 95 95 95 95 95 95 95 96 96 98 101 103 101 98 96 96 95 95 95 96 96 98 101 103 102 101 107 126 152 
