P2
110 110
255
152 126 106 98 96 95 95 95 95 95 95 95 95 95 95 95 95 95 95 95 95 95 95 95 95 95 95 96 96 99 107 121 137 138 124 108 100 96 96 95 95 95 95 95 95 96 98 105 120 138 138 119 104 98 96 95 95 95 95 95 95 95 95 96 97 99 102 102 99 97 96 95 95 95 95 95 95 95 95 95 95 95 95 95 95 95 95 96 98 103 116 134 140 126 109 100 97 96 95 96 97 102 113 132 140 128 113 111 127 152 
126 89 62 51 48 48 47 47 47 47 47 47 47 47 47 47 47 47 47 47 47 47 47 47 47 47 48 48 51 58 76 107 130 119 87 64 53 49 48 47 47 47 47 47 48 49 52 64 92 128 125 89 62 52 48 48 47 47 47 47 47 47 47 47 47 47 46 46 47 47 47 47 47 47 47 47 47 47 47 47 47 47 47 47 47 47 48 49 53 65 92 125 126 94 67 54 49 48 48 48 51 60 83 119 129 100 73 69 91 126 
106 62 31 19 15 15 14 14 14 14 14 14 14 14 14 14 14 14 14 14 14 14 14 14 14 15 15 17 22 36 65 103 113 81 46 26 18 15 15 14 14 14 14 15 15 16 21 37 73 116 108 62 31 19 15 15 14 14 14 14 14 14 14 14 14 14 14 14 14 14 14 14 14 14 14 14 14 14 14 14 14 14 14 14 14 15 15 17 24 43 81 114 97 56 30 19 16 15 15 16 19 32 62 105 109 68 39 37 64 107 
98 51 19 7 3 2 2 2 2 2 2 2 2 2 2 2 2 2 2 2 2 2 2 2 2 2 3 7 17 41 79 107 90 49 21 8 4 2 2 2 2 2 2 2 3 5 13 34 77 120 102 50 18 6 3 2 2 2 2 2 2 2 2 2 2 2 2 2 2 2 2 2 2 2 2 2 2 2 2 2 2 2 2 2 2 2 3 6 16 43 87 107 73 33 12 5 3 2 2 4 8 24 60 103 94 49 23 24 53 99 
96 48 15 3 0 0 -1 -1 -1 -1 -1 -1 -1 -1 -1 -1 -1 -1 -1 -1 -1 -1 -1 -1 0 0 2 9 28 63 99 99 62 27 8 1 0 -1 -1 -1 -1 -1 -1 0 0 4 16 46 96 131 102 47 15 3 0 0 -1 -1 -1 -1 -1 -1 -1 -1 -1 -1 -1 -1 -1 -1 -1 -1 -1 -1 -1 -1 -1 -1 -1 -1 -1 -1 -1 -1 -1 0 0 5 20 54 97 97 53 19 5 0 0 -1 0 1 7 28 69 105 82 37 16 19 49 96 
95 48 15 2 0 -1 -2 -2 -2 -2 -2 -2 -2 -2 -2 -2 -2 -2 -2 -2 -2 -2 -2 -1 -1 0 5 19 48 89 104 75 36 12 2 0 -1 -1 -2 -2 -2 -2 -1 -1 0 8 28 67 117 139 103 47 14 2 0 -1 -2 -2 -2 -2 -2 -2 -2 -2 -2 -2 -2 -2 -2 -2 -2 -2 -2 -2 -2 -2 -2 -2 -2 -2 -2 -2 -2 -2 -1 -1 0 8 30 71 104 83 38 12 1 -1 -1 -1 -1 1 10 36 82 104 68 28 11 17 48 95 
95 47 14 2 -1 -2 -2 -2 -2 -2 -2 -2 -2 -2 -2 -2 -2 -2 -2 -2 -2 -2 -2 -1 0 2 12 36 75 104 88 48 18 4 0 -1 -2 -2 -2 -2 -2 -2 -1 0 3 16 45 92 129 137 104 50 16 3 0 -1 -2 -2 -2 -2 -2 -2 -2 -2 -2 -2 -2 -2 -2 -2 -2 -2 -2 -2 -2 -2 -2 -2 -2 -2 -2 -2 -2 -2 -1 0 3 15 45 89 102 64 25 6 0 -1 -2 -1 -1 2 14 45 92 99 56 20 8 16 48 95 
95 47 14 2 -1 -2 -2 -2 -2 -2 -2 -2 -2 -2 -2 -2 -2 -2 -2 -2 -2 -2 -2 -1 1 8 26 62 99 99 62 26 8 1 -1 -2 -2 -2 -2 -2 -2 -2 -1 1 9 29 68 109 123 126 107 57 20 4 0 -1 -2 -2 -2 -2 -2 -2 -2 -2 -2 -2 -2 -2 -2 -2 -2 -2 -2 -2 -2 -2 -2 -2 -2 -2 -2 -2 -2 -2 -1 0 6 25 64 102 89 45 15 3 0 -1 -2 -1 0 4 19 55 99 92 45 15 7 16 48 95 
95 47 14 2 -1 -2 -2 -2 -2 -2 -2 -2 -2 -2 -2 -2 -2 -2 -2 -2 -2 -2 -1 0 4 18 48 88 104 75 36 12 2 0 -1 -2 -2 -2 -2 -2 -2 -1 0 5 19 49 91 111 101 107 109 68 26 6 0 -1 -2 -2 -2 -2 -2 -2 -2 -2 -2 -2 -2 -2 -2 -2 -2 -2 -2 -2 -2 -2 -2 -2 -2 -2 -2 -2 -2 -2 -1 1 11 38 83 104 71 30 8 0 -1 -2 -2 -1 0 6 26 68 104 81 36 11 5 15 47 95 
95 47 14 2 -1 -2 -2 -2 -2 -2 -2 -2 -2 -2 -2 -2 -2 -2 -2 -2 -2 -1 0 2 12 36 75 104 88 48 18 4 0 -1 -2 -2 -2 -2 -2 -2 -1 0 2 12 36 75 105 94 73 85 108 80 34 9 0 -1 -2 -2 -2 -2 -2 -2 -2 -2 -2 -2 -2 -2 -2 -2 -2 -2 -2 -2 -2 -2 -2 -2 -2 -2 -2 -2 -2 -1 0 4 19 53 97 97 53 19 4 0 -1 -2 -2 -1 1 10 36 81 104 68 27 7 4 15 47 95 
96 48 15 2 -1 -2 -2 -2 -2 -2 -2 -2 -2 -2 -2 -2 -2 -2 -2 -2 -2 -1 1 8 26 62 99 99 62 26 8 1 -1 -2 -2 -2 -2 -2 -2 -2 -1 0 7 25 61 99 100 67 48 67 103 89 41 12 1 -1 -2 -2 -2 -2 -2 -2 -2 -2 -2 -2 -2 -2 -2 -2 -2 -2 -2 -2 -2 -2 -2 -2 -2 -2 -2 -2 -2 -1 0 8 30 71 104 83 38 11 1 -1 -2 -2 -2 -1 2 14 45 92 99 55 19 5 4 15 47 95 
96 49 15 2 -1 -2 -2 -2 -2 -2 -2 -2 -2 -2 -2 -2 -2 -2 -2 -2 -1 0 4 18 48 88 104 75 36 12 2 0 -1 -2 -2 -2 -2 -2 -2 -1 0 3 15 44 86 104 77 41 31 56 98 93 45 14 2 -1 -2 -2 -2 -2 -2 -2 -2 -2 -2 -2 -2 -2 -2 -2 -2 -2 -2 -2 -2 -2 -2 -2 -2 -2 -2 -2 -1 0 3 15 45 89 102 64 25 6 0 -1 -2 -2 -1 0 4 19 55 99 92 45 14 3 3 15 47 95 
100 52 18 3 0 -1 -2 -2 -2 -2 -2 -2 -2 -2 -2 -2 -2 -2 -2 -1 0 2 12 36 75 104 88 48 18 4 0 -1 -2 -2 -2 -2 -2 -2 -2 -1 0 8 28 67 103 91 51 24 22 50 96 95 48 15 2 -1 -2 -2 -2 -2 -2 -2 -2 -2 -2 -2 -2 -2 -2 -2 -2 -2 -2 -2 -2 -2 -2 -2 -2 -2 -2 -2 -1 0 6 25 64 102 89 45 15 3 0 -1 -2 -2 -1 0 6 26 68 104 81 36 10 2 3 14 47 96 
108 63 25 7 0 -1 -2 -2 -2 -2 -2 -2 -2 -2 -2 -2 -2 -2 -2 -1 1 8 26 62 99 99 62 26 8 1 -1 -2 -2 -2 -2 -2 -2 -2 -1 0 3 16 46 89 103 69 30 13 17 46 93 97 51 16 3 0 -2 -2 -2 -2 -2 -2 -2 -2 -2 -2 -2 -2 -2 -2 -2 -2 -2 -2 -2 -2 -2 -2 -2 -2 -2 -2 -1 1 11 38 83 104 71 30 8 0 -1 -2 -2 -2 -1 1 10 36 81 104 68 26 7 1 2 14 47 98 
123 85 42 16 4 0 -1 -2 -2 -2 -2 -2 -2 -2 -2 -2 -2 -2 -1 0 4 18 48 88 104 75 36 12 2 0 -1 -2 -2 -2 -2 -2 -2 -2 -1 1 9 29 68 103 89 46 17 7 14 42 89 101 57 20 4 0 -1 -2 -2 -2 -2 -2 -2 -2 -2 -2 -2 -2 -2 -2 -2 -2 -2 -2 -2 -2 -2 -2 -2 -2 -2 -1 0 4 19 53 97 97 53 19 4 0 -1 -2 -2 -2 -1 2 14 45 92 99 55 19 4 0 2 14 46 100 
138 116 73 36 14 3 0 -1 -2 -2 -2 -2 -2 -2 -2 -2 -2 -1 0 2 12 36 75 104 88 48 18 4 0 -1 -2 -2 -2 -2 -2 -2 -2 -1 0 5 19 50 91 103 67 28 9 4 10 35 80 104 68 26 6 0 -1 -2 -2 -2 -2 -2 -2 -2 -2 -2 -2 -2 -2 -2 -2 -2 -2 -2 -2 -2 -2 -2 -2 -2 -2 -1 0 8 30 71 104 83 38 11 1 -1 -2 -2 -2 -1 0 4 19 55 99 92 45 14 2 0 2 14 46 102 
138 131 106 68 33 11 2 0 -1 -2 -2 -2 -2 -2 -2 -2 -2 -1 1 8 26 62 99 99 62 26 8 1 -1 -2 -2 -2 -2 -2 -2 -2 -1 0 2 12 36 75 104 86 44 15 3 1 7 26 68 104 80 35 9 0 -1 -2 -2 -2 -2 -2 -2 -2 -2 -2 -2 -2 -2 -2 -2 -2 -2 -2 -2 -2 -2 -2 -2 -2 -1 0 3 15 45 89 102 64 25 6 0 -1 -2 -2 -2 -1 0 6 26 68 104 81 36 10 1 0 2 14 46 102 
124 116 114 98 60 26 8 1 -1 -2 -2 -2 -2 -2 -2 -2 -1 0 4 18 48 88 104 75 36 12 2 0 -1 -2 -2 -2 -2 -2 -2 -2 -1 0 7 25 61 98 98 61 25 7 0 0 4 20 57 101 89 41 12 1 -1 -2 -2 -2 -2 -2 -2 -2 -2 -2 -2 -2 -2 -2 -2 -2 -2 -2 -2 -2 -2 -2 -2 -2 -1 0 6 25 64 102 89 45 15 3 0 -1 -2 -2 -2 -1 1 10 36 81 104 68 26 6 0 0 2 14 47 99 
110 89 93 107 88 49 20 6 0 -1 -2 -2 -2 -2 -2 -1 0 2 12 36 75 104 88 48 18 4 0 -1 -2 -2 -2 -2 -2 -2 -2 -1 0 3 15 44 86 104 75 36 12 2 0 0 3 16 51 97 93 45 14 2 -1 -2 -2 -2 -2 -2 -2 -2 -2 -2 -2 -2 -2 -2 -2 -2 -2 -2 -2 -2 -2 -2 -2 -2 -1 1 11 38 83 104 71 30 8 0 -1 -2 -2 -2 -2 -1 2 14 45 92 99 55 19 4 0 0 2 14 47 97 
102 69 66 92 105 78 41 16 5 0 -1 -2 -2 -2 -2 -1 1 8 26 62 99 99 62 26 8 1 -1 -2 -2 -2 -2 -2 -2 -2 -2 -1 0 8 28 67 103 91 50 19 5 0 -1 -1 2 15 48 95 95 48 15 2 -1 -2 -2 -2 -2 -2 -2 -2 -2 -2 -2 -2 -2 -2 -2 -2 -2 -2 -2 -2 -2 -2 -2 -1 0 4 19 53 97 97 53 19 4 0 -1 -2 -2 -2 -1 0 4 19 55 99 92 45 14 2 0 0 2 14 47 96 
98 58 43 65 98 102 72 38 16 4 0 -1 -2 -2 -1 0 4 18 48 88 104 75 36 12 2 0 -1 -2 -2 -2 -2 -2 -2 -2 -1 0 3 16 46 89 103 68 29 9 1 -1 -1 -1 2 14 45 93 97 51 16 3 0 -2 -2 -2 -2 -2 -2 -2 -2 -2 -2 -2 -2 -2 -2 -2 -2 -2 -2 -2 -2 -2 -2 -1 0 8 30 71 104 83 38 11 1 -1 -2 -2 -2 -2 -1 0 6 26 68 104 81 36 10 1 -1 -1 2 14 47 96 
96 52 29 37 69 100 101 71 38 15 4 0 -1 -1 0 2 12 36 75 104 88 48 18 4 0 -1 -2 -2 -2 -2 -2 -2 -2 -2 -1 1 9 29 68 103 89 46 16 3 0 -1 -2 -1 1 12 41 89 101 57 20 4 0 -1 -2 -2 -2 -2 -2 -2 -2 -2 -2 -2 -2 -2 -2 -2 -2 -2 -2 -2 -2 -2 -1 0 3 15 45 89 102 64 25 6 0 -1 -2 -2 -2 -2 -1 1 10 36 81 104 68 26 6 0 -1 -1 2 14 47 95 
96 49 20 19 37 71 100 100 71 37 15 4 0 0 1 8 26 62 99 99 62 26 8 1 -1 -2 -2 -2 -2 -2 -2 -2 -2 -1 0 5 19 50 91 103 67 28 8 0 -1 -2 -2 -1 0 9 35 80 104 68 26 6 0 -1 -2 -2 -2 -2 -2 -2 -2 -2 -2 -2 -2 -2 -2 -2 -2 -2 -2 -2 -2 -2 -1 0 6 25 64 102 89 45 15 3 0 -1 -2 -2 -2 -2 -1 2 14 45 92 99 55 19 4 0 -1 -1 2 14 47 95 
95 48 17 9 16 38 71 100 100 71 37 16 5 2 5 19 48 88 104 75 36 12 2 0 -1 -2 -2 -2 -2 -2 -2 -2 -1 0 2 12 36 75 104 86 44 15 3 0 -1 -2 -2 -1 0 6 26 68 104 80 35 9 0 -1 -2 -2 -2 -2 -2 -2 -2 -2 -2 -2 -2 -2 -2 -2 -2 -2 -2 -2 -2 -2 -1 1 11 38 83 104 71 30 8 0 -1 -2 -2 -2 -2 -1 0 4 19 55 99 92 45 14 2 -1 -1 -1 2 14 47 95 
95 48 15 4 5 16 37 71 100 100 71 38 17 9 15 37 75 104 88 48 18 4 0 -1 -2 -2 -2 -2 -2 -2 -2 -2 -1 0 7 25 61 98 98 61 25 7 0 -1 -2 -2 -2 -1 0 4 20 57 101 89 42 12 1 -1 -2 -2 -2 -2 -2 -2 -2 -2 -2 -2 -2 -2 -2 -2 -2 -2 -2 -2 -2 -1 0 4 19 53 97 97 53 19 4 0 -1 -2 -2 -2 -2 -1 0 6 26 68 104 81 36 10 1 -1 -1 -1 2 14 47 95 
95 47 15 3 1 5 15 37 71 100 100 72 41 26 34 64 99 99 62 26 8 1 -1 -2 -2 -2 -2 -2 -2 -2 -2 -1 0 3 15 44 86 104 75 36 12 2 0 -1 -2 -2 -2 -2 -1 3 16 50 97 94 46 14 2 -1 -2 -2 -2 -2 -2 -2 -2 -2 -2 -2 -2 -2 -2 -2 -2 -2 -2 -2 -2 -1 0 8 30 71 104 83 38 11 1 -1 -2 -2 -2 -2 -2 -1 1 10 36 81 104 68 26 6 0 -1 -1 -1 2 14 47 95 
95 47 14 2 0 0 4 15 37 71 101 102 78 58 65 94 105 75 36 12 2 0 -1 -2 -2 -2 -2 -2 -2 -2 -2 -1 0 8 28 67 103 91 50 19 5 0 -1 -2 -2 -2 -2 -2 -1 2 14 46 94 97 50 16 3 -1 -2 -2 -2 -2 -2 -2 -2 -2 -2 -2 -2 -2 -2 -2 -2 -2 -2 -2 -1 0 3 15 45 89 102 64 25 6 0 -1 -2 -2 -2 -2 -2 -1 2 14 45 92 99 55 19 4 0 -1 -1 -1 2 14 47 95 
95 47 14 2 0 -1 0 4 15 37 71 102 110 103 106 113 89 48 18 4 0 -1 -2 -2 -2 -2 -2 -2 -2 -2 -1 0 3 16 46 89 103 68 29 9 1 -1 -2 -2 -2 -2 -2 -2 -1 1 12 42 89 101 57 20 4 0 -1 -2 -2 -2 -2 -2 -2 -2 -2 -2 -2 -2 -2 -2 -2 -2 -2 -2 -1 0 6 25 64 102 89 45 15 3 0 -1 -2 -2 -2 -2 -1 0 4 19 55 99 92 45 14 2 -1 -2 -2 -1 2 14 47 95 
95 47 14 2 -1 -1 -1 0 4 16 38 73 111 134 134 107 62 26 8 1 -1 -2 -2 -2 -2 -2 -2 -2 -2 -2 -1 1 9 29 68 103 89 46 16 3 0 -1 -2 -2 -2 -2 -2 -2 -1 0 9 35 80 104 68 26 6 0 -1 -2 -2 -2 -2 -2 -2 -2 -2 -2 -2 -2 -2 -2 -2 -2 -2 -2 -1 1 11 38 83 104 71 30 8 0 -1 -2 -2 -2 -2 -2 -1 0 6 26 68 104 81 36 10 1 -1 -2 -2 -1 2 14 47 95 
95 47 14 2 -1 -2 -2 -1 0 5 17 42 85 130 130 84 38 13 2 0 -1 -2 -2 -2 -2 -2 -2 -2 -2 -1 0 5 19 50 91 103 67 28 8 0 -1 -2 -2 -2 -2 -2 -2 -2 -1 0 6 26 68 104 80 35 9 0 -1 -2 -2 -2 -2 -2 -2 -2 -2 -2 -2 -2 -2 -2 -2 -2 -2 -1 0 4 19 53 97 97 53 19 4 0 -1 -2 -2 -2 -2 -2 -1 1 10 36 81 104 68 26 6 0 -1 -2 -2 -1 2 14 47 95 
95 47 14 2 -1 -2 -2 -2 -1 0 7 24 61 110 114 66 25 7 0 -1 -2 -2 -2 -2 -2 -2 -2 -2 -1 0 2 12 36 75 104 86 44 15 3 0 -1 -2 -2 -2 -2 -2 -2 -2 -1 0 4 20 57 101 89 41 12 1 -1 -2 -2 -2 -2 -2 -2 -2 -2 -2 -2 -2 -2 -2 -2 -2 -2 -1 0 8 30 71 104 83 38 11 1 -1 -2 -2 -2 -2 -2 -2 -1 2 14 45 92 99 55 19 4 0 -1 -2 -2 -1 2 14 47 95 
95 47 14 2 -1 -2 -2 -2 -1 0 3 15 46 95 107 62 23 5 0 -1 -2 -2 -2 -2 -2 -2 -2 -2 -1 0 7 25 61 98 98 61 25 7 0 -1 -2 -2 -2 -2 -2 -2 -2 -2 -2 0 3 16 51 97 93 45 14 2 -1 -2 -2 -2 -2 -2 -2 -2 -2 -2 -2 -2 -2 -2 -2 -2 -1 0 3 15 45 89 102 64 25 6 0 -1 -2 -2 -2 -2 -2 -1 0 4 19 55 99 92 45 14 2 -1 -2 -2 -2 -1 2 14 47 95 
95 47 14 2 -1 -2 -2 -2 -2 -1 1 10 36 82 106 70 27 7 0 -1 -2 -2 -2 -2 -2 -2 -2 -1 0 3 15 44 86 104 75 36 12 2 0 -1 -2 -2 -2 -2 -2 -2 -2 -2 -2 -1 2 15 48 95 95 48 15 2 -1 -2 -2 -2 -2 -2 -2 -2 -2 -2 -2 -2 -2 -2 -2 -2 -1 0 6 25 64 102 89 45 15 3 0 -1 -2 -2 -2 -2 -2 -1 0 6 26 68 104 81 36 10 1 -1 -2 -2 -2 -1 2 14 47 95 
95 47 14 2 -1 -2 -2 -2 -2 -1 0 6 27 68 105 81 35 10 1 -1 -2 -2 -2 -2 -2 -2 -2 -1 0 8 28 67 103 91 50 19 5 0 -1 -2 -2 -2 -2 -2 -2 -2 -2 -2 -2 -1 2 14 45 93 97 51 16 3 0 -2 -2 -2 -2 -2 -2 -2 -2 -2 -2 -2 -2 -2 -2 -2 -1 1 11 38 83 104 71 30 8 0 -1 -2 -2 -2 -2 -2 -2 -1 1 10 36 81 104 68 26 6 0 -1 -2 -2 -2 -1 2 15 48 95 
95 47 14 2 -1 -2 -2 -2 -2 -1 0 4 20 57 100 90 42 13 1 -1 -2 -2 -2 -2 -2 -2 -1 0 3 16 46 89 103 68 29 9 1 -1 -2 -2 -2 -2 -2 -2 -2 -2 -2 -2 -2 -1 1 12 41 89 101 57 20 4 0 -1 -2 -2 -2 -2 -2 -2 -2 -2 -2 -2 -2 -2 -2 -1 0 4 19 53 97 97 53 19 4 0 -1 -2 -2 -2 -2 -2 -2 -1 2 14 45 92 99 55 19 4 0 -1 -2 -2 -2 -1 2 15 48 96 
96 47 14 2 -1 -2 -2 -2 -2 -2 -1 2 16 49 96 96 49 16 2 -1 -2 -2 -2 -2 -2 -2 -1 1 9 29 68 103 89 46 16 3 0 -1 -2 -2 -2 -2 -2 -2 -2 -2 -2 -2 -2 -1 0 9 35 80 104 68 26 6 0 -1 -2 -2 -2 -2 -2 -2 -2 -2 -2 -2 -2 -2 -2 -1 0 8 30 71 104 83 38 11 1 -1 -2 -2 -2 -2 -2 -2 -1 0 4 19 55 99 92 45 14 2 -1 -2 -2 -2 -1 0 3 17 51 99 
97 47 14 2 -1 -2 -2 -2 -2 -2 -1 1 13 42 90 100 57 20 4 0 -1 -2 -2 -2 -2 -1 0 5 19 50 91 103 67 28 8 0 -1 -2 -2 -2 -2 -2 -2 -2 -2 -2 -2 -2 -2 -1 0 6 26 68 104 80 35 9 0 -1 -2 -2 -2 -2 -2 -2 -2 -2 -2 -2 -2 -2 -1 0 3 15 45 89 102 64 25 6 0 -1 -2 -2 -2 -2 -2 -2 -1 0 6 26 68 104 81 36 10 1 -1 -2 -2 -2 -1 0 5 21 58 105 
99 46 14 2 -1 -2 -2 -2 -2 -2 -1 1 10 35 81 104 68 26 6 0 -1 -2 -2 -2 -1 0 2 12 36 75 104 86 44 15 3 0 -1 -2 -2 -2 -2 -2 -2 -2 -2 -2 -2 -2 -2 -1 0 4 20 57 101 89 41 12 1 -1 -2 -2 -2 -2 -2 -2 -2 -2 -2 -2 -2 -2 -1 0 6 25 64 102 89 45 15 3 0 -1 -2 -2 -2 -2 -2 -2 -1 1 10 36 81 104 68 26 6 0 -1 -2 -2 -2 -1 1 9 31 74 117 
101 46 14 2 -1 -2 -2 -2 -2 -2 -1 0 6 26 68 104 81 35 10 1 -1 -2 -2 -2 -1 0 7 25 61 98 98 61 25 7 0 -1 -2 -2 -2 -2 -2 -2 -2 -2 -2 -2 -2 -2 -2 -2 0 3 16 51 97 93 45 14 2 -1 -2 -2 -2 -2 -2 -2 -2 -2 -2 -2 -2 -2 -1 1 11 38 83 104 71 30 8 0 -1 -2 -2 -2 -2 -2 -2 -2 -1 2 14 45 92 99 55 19 4 0 -1 -2 -2 -1 0 4 18 49 97 131 
102 46 14 2 -1 -2 -2 -2 -2 -2 -1 0 4 20 57 100 90 42 13 1 -1 -2 -2 -1 0 3 15 44 86 104 75 36 12 2 0 -1 -2 -2 -2 -2 -2 -2 -2 -2 -2 -2 -2 -2 -2 -2 -1 2 15 48 95 95 48 15 2 -1 -2 -2 -2 -2 -2 -2 -2 -2 -2 -2 -2 -1 0 4 19 53 97 97 53 19 4 0 -1 -2 -2 -2 -2 -2 -2 -1 0 4 19 55 99 92 45 14 2 -1 -2 -2 -1 0 2 12 35 76 121 139 
101 46 14 2 -1 -2 -2 -2 -2 -2 -2 -1 2 16 49 96 96 49 16 2 -1 -1 -2 -1 0 8 28 67 103 91 50 19 5 0 -1 -2 -2 -2 -2 -2 -2 -2 -2 -2 -2 -2 -2 -2 -2 -2 -1 2 14 45 93 97 51 16 3 0 -1 -2 -2 -2 -2 -2 -2 -2 -2 -2 -2 -1 0 8 30 71 104 83 38 11 1 -1 -2 -2 -2 -2 -2 -2 -2 -1 0 6 26 68 104 81 36 10 1 -1 -2 -2 -1 0 8 26 61 104 130 135 
99 47 14 2 -1 -2 -2 -2 -2 -2 -2 -1 1 13 42 90 100 57 20 4 0 -1 -1 0 3 16 46 89 103 68 29 9 1 -1 -2 -2 -2 -2 -2 -2 -2 -2 -2 -2 -2 -2 -2 -2 -2 -2 -1 1 12 41 89 101 58 20 4 0 -1 -2 -2 -2 -2 -2 -2 -2 -2 -2 -1 0 3 15 45 89 102 64 25 6 0 -1 -2 -2 -2 -2 -2 -2 -2 -1 1 10 36 81 104 68 26 6 0 -1 -2 -1 0 4 18 48 89 115 118 123 
97 47 14 2 -1 -2 -2 -2 -2 -2 -2 -1 1 10 35 81 104 68 26 6 0 -1 -1 1 9 29 68 103 89 46 16 3 0 -1 -2 -2 -2 -2 -2 -2 -2 -2 -2 -2 -2 -2 -2 -2 -2 -2 -1 1 10 35 81 105 69 27 7 1 0 -1 -1 -1 -2 -2 -2 -2 -2 -2 -1 0 6 25 64 102 89 45 15 3 0 -1 -2 -2 -2 -2 -2 -2 -2 -1 2 14 45 92 99 55 19 4 0 -1 -1 0 2 12 36 75 106 103 96 112 
96 47 14 2 -1 -2 -2 -2 -2 -2 -2 -1 0 6 26 68 104 81 35 10 1 0 0 5 19 50 91 103 67 28 8 0 -1 -2 -2 -2 -2 -2 -2 -2 -2 -2 -2 -2 -2 -2 -2 -2 -2 -2 -1 0 7 28 70 106 84 39 14 5 2 1 0 0 0 -1 -1 -1 -1 -1 0 2 12 38 83 104 71 30 8 0 -1 -2 -2 -2 -2 -2 -2 -2 -1 0 4 19 55 99 92 45 14 2 -1 -1 -1 1 8 26 62 99 102 78 76 104 
96 47 14 2 -1 -2 -2 -2 -2 -2 -2 -1 0 4 20 57 100 90 42 13 2 0 2 12 36 75 104 86 44 15 3 0 -1 -2 -2 -2 -2 -2 -2 -2 -2 -2 -2 -2 -2 -2 -2 -2 -2 -2 -1 0 6 24 64 108 100 56 29 17 13 10 6 4 3 2 2 1 1 0 1 5 19 53 97 97 53 19 4 0 -1 -2 -2 -2 -2 -2 -2 -2 -1 0 6 26 68 104 81 36 10 1 -1 -1 0 4 18 48 88 105 79 53 62 99 
95 47 14 2 -1 -2 -2 -2 -2 -2 -2 -2 -1 2 16 49 96 96 49 16 3 1 7 25 61 98 98 61 25 7 0 -1 -2 -2 -2 -2 -2 -2 -2 -2 -2 -2 -2 -2 -2 -2 -2 -2 -1 -1 0 3 12 31 70 118 121 87 61 49 42 35 26 20 16 15 14 12 10 7 7 13 33 73 105 83 38 11 1 -1 -2 -2 -2 -2 -2 -2 -2 -2 -1 1 10 36 81 104 68 26 6 0 -1 0 2 12 36 75 104 89 53 35 54 97 
95 47 14 2 -1 -2 -2 -2 -2 -2 -2 -2 -1 1 13 42 90 100 57 20 5 5 16 44 86 104 75 36 12 2 0 -1 -2 -2 -2 -2 -2 -2 -2 -2 -2 -2 -2 -2 -2 -2 -2 -1 0 1 5 13 28 55 94 133 139 120 104 96 89 80 68 57 51 48 45 41 35 28 25 32 57 96 104 65 25 6 0 -1 -2 -2 -2 -2 -2 -2 -2 -2 -1 2 14 45 92 99 55 19 4 0 -1 1 8 26 62 99 99 63 31 25 51 96 
95 47 14 2 -1 -2 -2 -2 -2 -2 -2 -2 -1 1 10 35 81 104 68 27 9 10 29 67 103 91 50 19 5 0 -1 -2 -2 -2 -2 -2 -2 -2 -2 -2 -2 -2 -2 -2 -2 -1 -1 0 2 8 18 36 63 92 114 122 114 104 99 98 101 104 104 101 97 95 93 89 81 70 64 71 95 117 95 48 16 3 0 -1 -2 -2 -2 -2 -2 -2 -2 -1 0 4 19 55 99 92 45 14 2 0 0 5 18 48 88 104 75 37 17 19 49 95 
95 47 14 2 -1 -2 -2 -2 -2 -2 -2 -2 -1 0 6 26 68 104 81 36 16 19 47 89 103 68 29 9 1 -1 -2 -2 -2 -2 -2 -2 -2 -2 -2 -2 -2 -2 -2 -2 -1 0 0 4 12 26 48 75 99 106 94 74 59 51 49 51 57 68 80 89 93 95 97 101 105 106 107 116 133 131 85 37 11 1 -1 -2 -2 -2 -2 -2 -2 -2 -2 -1 0 6 26 68 104 81 36 10 1 0 2 12 36 75 104 88 48 19 9 17 48 95 
95 47 14 2 -1 -2 -2 -2 -2 -2 -2 -2 -1 0 4 20 57 100 90 46 24 34 69 103 89 46 16 3 0 -1 -2 -2 -2 -2 -2 -2 -2 -2 -2 -2 -2 -2 -2 -1 0 2 8 18 36 62 88 104 99 76 50 31 21 16 15 17 20 26 35 41 45 48 51 57 69 82 95 112 132 130 86 38 12 2 0 -1 -1 -2 -2 -2 -2 -2 -1 -1 1 10 36 81 104 68 27 7 1 1 8 26 62 99 99 62 27 9 5 15 48 95 
95 47 14 2 -1 -2 -2 -2 -2 -2 -2 -2 -2 -1 2 16 49 96 97 56 37 55 92 103 67 28 8 0 -1 -2 -2 -2 -2 -2 -2 -2 -2 -2 -2 -2 -2 -1 -1 0 3 11 26 48 75 99 104 88 62 36 19 9 5 3 2 3 4 6 9 12 14 15 16 20 27 36 47 64 93 117 98 54 22 7 1 0 0 -1 -1 -1 -1 -1 0 0 3 15 46 92 100 56 19 4 1 5 18 48 88 104 75 36 13 3 3 15 47 95 
95 47 14 2 -1 -2 -2 -2 -2 -2 -2 -2 -2 -1 1 13 42 90 104 71 59 82 105 86 44 15 3 0 -1 -2 -2 -2 -2 -2 -2 -2 -2 -2 -2 -2 -1 0 1 5 15 33 60 88 104 99 75 48 26 12 5 1 0 0 -1 0 0 0 0 1 2 2 3 4 7 11 16 28 54 92 108 81 44 21 10 5 3 2 2 2 2 2 2 3 8 23 59 101 93 46 15 4 3 13 36 75 104 88 48 18 5 0 2 15 47 95 
95 47 14 2 -1 -2 -2 -2 -2 -2 -2 -2 -2 -1 1 10 35 81 111 95 89 106 99 61 25 7 0 -1 -2 -2 -2 -2 -2 -2 -2 -2 -2 -2 -1 -1 0 2 8 19 40 69 97 104 89 62 36 18 8 2 0 -1 -1 -1 -2 -2 -1 -1 -1 -1 -1 -1 0 0 0 1 4 11 28 63 103 110 82 51 32 21 17 15 15 14 14 15 15 17 23 41 79 112 88 41 14 5 9 27 62 99 99 62 26 8 1 0 2 14 47 95 
95 47 14 2 -1 -2 -2 -2 -2 -2 -2 -2 -2 -1 0 6 26 68 113 120 117 110 75 36 12 2 0 -1 -2 -2 -2 -2 -2 -2 -2 -2 -2 -1 0 0 4 12 27 49 77 101 101 77 49 27 12 4 1 0 -1 -2 -2 -2 -2 -2 -2 -2 -2 -2 -2 -2 -2 -1 -1 -1 0 3 13 39 83 123 124 99 74 59 51 49 48 47 47 47 48 50 57 77 111 125 88 43 18 12 21 49 89 104 75 36 12 2 0 0 2 14 47 95 
95 47 14 2 -1 -2 -2 -2 -2 -2 -2 -2 -2 -1 0 4 19 57 110 136 128 93 49 19 4 0 -1 -2 -2 -2 -2 -2 -2 -2 -2 -1 -1 0 2 8 18 36 62 89 104 97 69 40 19 8 2 0 -1 -1 -2 -2 -2 -2 -2 -2 -2 -2 -2 -2 -2 -2 -2 -2 -2 -1 -1 0 7 26 66 120 141 127 112 103 98 96 95 95 95 95 96 97 103 116 136 138 103 63 38 31 45 78 105 89 48 18 4 0 -1 -1 2 14 47 95 
95 47 14 2 -1 -2 -2 -2 -2 -2 -2 -2 -2 -2 -1 2 16 50 106 139 117 68 29 8 1 -1 -2 -2 -2 -2 -2 -2 -2 -2 -1 0 0 4 12 26 48 75 99 104 88 60 33 15 5 1 0 -1 -2 -2 -2 -2 -2 -2 -2 -2 -2 -2 -2 -2 -2 -2 -2 -2 -2 -2 -1 0 5 23 62 113 123 103 92 92 94 95 95 95 95 95 95 96 98 103 114 123 117 98 77 69 83 108 102 63 27 8 1 -1 -1 -1 2 14 47 95 
95 47 14 2 -1 -2 -2 -2 -2 -2 -2 -2 -2 -2 -1 2 14 47 102 131 95 45 16 3 0 -1 -2 -2 -2 -2 -2 -1 -1 -1 0 2 7 18 35 61 89 105 99 76 48 26 12 4 0 -1 -1 -2 -2 -2 -2 -2 -2 -2 -2 -2 -2 -2 -2 -2 -2 -2 -2 -2 -2 -2 -1 0 7 27 70 110 96 62 46 45 46 47 47 47 47 47 47 48 48 51 59 74 92 106 111 115 125 124 86 41 14 3 0 -1 -1 -1 2 14 47 95 
95 47 14 2 -1 -2 -2 -2 -2 -2 -2 -2 -2 -2 -1 2 14 47 100 117 73 29 8 0 -1 -2 -2 -2 -2 -1 -1 0 0 2 5 12 25 47 75 101 108 93 66 39 21 9 3 0 -1 -1 -1 -2 -2 -2 -2 -2 -2 -2 -2 -2 -2 -2 -2 -2 -2 -2 -2 -2 -2 -2 -1 0 9 35 81 106 73 35 19 14 14 14 14 14 14 14 14 15 15 16 20 30 47 69 94 120 140 127 78 33 10 1 -1 -1 -2 -1 2 14 47 95 
95 47 14 2 -1 -2 -2 -2 -2 -2 -2 -2 -2 -2 -1 2 15 48 98 105 57 20 4 0 -1 -2 -2 -1 -1 0 0 3 6 12 21 37 61 92 118 119 96 66 42 25 14 7 3 1 0 0 -1 -1 -1 -1 -1 -2 -2 -2 -2 -2 -2 -2 -2 -2 -2 -2 -2 -2 -2 -2 -1 1 12 42 89 101 59 22 7 3 2 2 2 2 2 2 2 2 2 3 4 8 16 29 50 80 115 123 86 41 14 3 0 -1 -1 -1 2 14 47 95 
95 47 14 2 -1 -2 -2 -2 -2 -2 -2 -2 -2 -2 0 3 16 51 98 97 49 16 3 0 -1 -1 -1 0 0 3 8 15 25 39 56 79 107 132 140 123 94 70 53 40 28 20 14 10 6 4 2 1 1 0 0 -1 -1 -1 -1 -2 -2 -2 -2 -2 -2 -2 -2 -2 -2 -2 -1 2 14 46 94 97 51 17 3 0 0 -1 -1 -1 -1 -1 -1 -1 -1 0 0 0 3 9 20 40 74 107 103 63 27 8 1 -1 -1 -1 2 14 47 95 
95 47 14 2 -1 -2 -2 -2 -2 -2 -2 -2 -2 -1 0 4 20 57 101 90 42 13 2 0 0 0 1 4 8 16 28 45 64 83 99 110 117 121 124 121 112 101 93 82 68 55 45 36 27 20 16 13 10 6 4 2 1 0 0 -1 -1 -1 -1 -1 -2 -2 -2 -2 -2 -1 0 3 16 50 97 94 46 14 2 -1 -1 -2 -2 -2 -2 -2 -2 -2 -2 -1 -1 -1 0 1 6 17 41 78 105 89 48 18 4 0 -1 -1 2 14 47 95 
95 47 14 2 -1 -2 -2 -2 -2 -2 -2 -2 -2 -1 0 6 26 68 104 81 35 10 2 1 3 6 11 19 30 46 67 88 102 105 98 86 73 67 72 82 91 96 101 105 104 99 92 81 68 57 49 42 35 26 19 14 10 6 4 2 1 1 0 0 -1 -1 -1 -1 -1 -1 0 4 20 57 101 89 42 12 1 -1 -2 -2 -2 -2 -2 -2 -2 -2 -2 -2 -2 -2 -1 -1 0 6 20 49 89 104 75 36 12 2 0 0 2 14 47 95 
95 47 14 2 -1 -2 -2 -2 -2 -2 -2 -2 -2 -1 1 10 35 81 105 69 28 9 5 8 15 25 38 53 71 90 103 103 90 71 53 39 29 25 28 35 42 49 57 68 81 92 99 104 104 100 96 90 80 68 55 45 36 27 20 16 13 10 6 4 2 1 0 0 0 0 0 7 27 68 104 80 35 9 0 -1 -2 -2 -2 -2 -2 -2 -2 -2 -2 -2 -2 -2 -2 -1 -1 1 8 27 62 99 99 62 27 8 1 0 2 14 47 95 
95 47 14 2 -1 -2 -2 -2 -2 -2 -2 -2 -2 -1 1 13 42 90 102 60 26 15 17 28 45 64 83 97 104 102 88 67 46 30 19 12 7 6 7 10 13 16 20 27 36 45 55 68 80 90 96 100 104 104 99 92 81 68 57 49 42 35 26 19 14 10 6 4 3 2 4 12 36 81 105 68 26 6 0 -1 -2 -2 -2 -2 -2 -2 -2 -2 -2 -2 -2 -2 -2 -2 -1 0 2 12 36 75 104 89 49 20 5 1 3 15 47 95 
95 47 14 2 -1 -2 -2 -2 -2 -2 -2 -2 -2 -1 2 16 49 97 101 60 35 34 47 68 88 102 104 97 83 64 45 28 16 8 4 1 0 0 0 1 1 2 4 6 10 14 19 26 35 42 49 57 68 81 92 99 104 104 100 96 90 80 68 55 45 36 27 20 16 14 14 21 48 92 102 57 20 4 0 -1 -2 -2 -2 -2 -2 -2 -2 -2 -2 -2 -2 -2 -2 -2 -2 -1 0 4 18 48 88 104 77 40 15 5 4 15 47 95 
95 47 14 2 -1 -2 -2 -2 -2 -2 -2 -2 -1 0 4 20 58 106 108 75 62 72 90 103 103 90 71 53 38 25 15 8 3 0 0 -1 -1 -1 -1 -1 -1 -1 0 0 1 2 4 6 10 13 16 20 27 36 45 55 68 80 90 96 100 104 104 99 92 81 68 57 49 43 39 42 65 104 100 51 16 3 0 -2 -2 -2 -2 -2 -2 -2 -2 -2 -2 -2 -2 -2 -2 -2 -2 -2 -1 0 8 26 60 97 101 69 34 13 7 16 48 95 
95 47 14 2 -1 -2 -2 -2 -2 -2 -2 -2 -1 0 8 30 73 121 125 105 101 105 103 89 68 47 30 19 11 6 3 0 0 -1 -1 -2 -2 -2 -2 -2 -2 -2 -1 -1 -1 -1 0 0 1 1 2 4 6 10 14 19 26 35 42 49 57 68 81 92 99 104 104 100 96 91 84 83 97 121 101 48 15 2 -1 -2 -2 -2 -2 -2 -2 -2 -2 -2 -2 -2 -2 -2 -2 -2 -2 -2 -1 0 2 11 33 69 101 97 61 27 13 18 48 95 
95 47 14 2 -1 -2 -2 -2 -2 -2 -2 -1 0 3 16 46 95 136 137 120 106 89 67 46 28 16 8 4 1 0 0 -1 -1 -2 -2 -2 -2 -2 -2 -2 -2 -2 -2 -2 -2 -2 -1 -1 -1 -1 -1 0 0 1 2 4 6 10 13 16 20 27 36 45 55 68 80 90 96 101 107 115 129 139 103 46 14 2 -1 -2 -2 -2 -2 -2 -2 -2 -2 -2 -2 -2 -2 -2 -2 -2 -2 -2 -2 -1 0 3 15 40 77 104 88 50 24 22 50 96 
95 47 14 2 -1 -2 -2 -2 -2 -2 -2 -1 1 9 29 68 113 127 109 86 64 44 28 16 8 3 0 0 -1 -1 -1 -2 -2 -2 -2 -2 -2 -2 -2 -2 -2 -2 -2 -2 -2 -2 -2 -2 -2 -2 -2 -1 -1 -1 -1 0 0 1 1 2 4 6 10 14 19 26 35 42 49 58 71 92 119 136 102 46 14 2 -1 -2 -2 -2 -2 -2 -2 -2 -2 -2 -2 -2 -2 -2 -2 -2 -2 -2 -2 -2 -1 0 5 19 49 88 104 78 44 32 53 97 
96 47 14 2 -1 -2 -2 -2 -2 -2 -1 0 5 19 49 92 112 90 60 39 25 15 8 3 0 0 -1 -1 -2 -2 -2 -2 -2 -2 -2 -2 -2 -2 -2 -2 -2 -2 -2 -2 -2 -2 -2 -2 -2 -2 -2 -2 -2 -2 -2 -1 -1 -1 -1 -1 0 0 1 2 4 6 10 13 16 21 31 50 83 117 99 47 14 2 -1 -2 -2 -2 -2 -2 -2 -2 -2 -2 -2 -2 -2 -2 -2 -2 -2 -2 -2 -2 -2 -1 1 8 26 60 97 102 74 50 61 99 
96 47 14 2 -1 -2 -2 -2 -2 -1 0 2 12 36 76 105 91 53 27 13 7 3 0 0 -1 -1 -2 -2 -2 -2 -2 -2 -2 -2 -2 -2 -2 -2 -2 -2 -2 -2 -2 -2 -2 -2 -2 -2 -2 -2 -2 -2 -2 -2 -2 -2 -2 -2 -2 -2 -1 -1 -1 -1 0 0 1 1 3 5 11 26 60 103 97 47 14 2 -1 -2 -2 -2 -2 -2 -2 -2 -2 -2 -2 -2 -2 -2 -2 -2 -2 -2 -2 -2 -2 -1 0 2 12 33 69 102 101 77 75 104 
97 47 14 2 -1 -2 -2 -2 -2 -1 1 8 27 62 99 99 63 28 10 3 0 0 -1 -1 -2 -2 -2 -2 -2 -2 -2 -2 -2 -2 -2 -2 -2 -2 -2 -2 -2 -2 -2 -2 -2 -2 -2 -2 -2 -2 -2 -2 -2 -2 -2 -2 -2 -2 -2 -2 -2 -2 -2 -2 -1 -1 -1 -1 0 0 4 18 51 98 97 49 15 2 -1 -1 -2 -2 -2 -2 -2 -2 -2 -2 -2 -2 -2 -2 -2 -2 -2 -2 -2 -2 -2 -2 -1 0 3 15 40 77 107 103 95 112 
99 47 14 2 -1 -2 -2 -2 -1 0 5 20 49 89 105 76 37 13 3 0 -1 -1 -1 -1 -2 -2 -2 -2 -2 -2 -2 -2 -2 -2 -2 -2 -2 -2 -2 -2 -2 -2 -2 -2 -2 -2 -2 -2 -2 -2 -2 -2 -2 -2 -2 -2 -2 -2 -2 -2 -2 -2 -2 -2 -2 -2 -2 -1 -1 0 3 16 48 96 99 53 18 4 0 -1 -2 -2 -2 -2 -2 -2 -2 -2 -2 -2 -2 -2 -2 -2 -2 -2 -2 -2 -2 -2 -2 -1 0 5 19 49 90 115 118 123 
101 46 14 2 -1 -2 -2 -1 0 4 16 40 78 107 92 52 22 7 1 0 0 -1 -1 -1 -1 -1 -1 -1 -1 -1 -1 -2 -2 -2 -2 -2 -2 -2 -2 -2 -2 -2 -2 -2 -2 -2 -2 -2 -2 -2 -2 -2 -2 -2 -2 -2 -2 -2 -2 -2 -2 -2 -2 -2 -2 -2 -2 -1 -1 0 4 17 50 98 107 64 26 8 2 0 -1 -1 -2 -2 -2 -2 -2 -2 -2 -2 -2 -2 -2 -2 -2 -2 -2 -2 -2 -2 -2 -2 -1 1 8 26 61 104 130 135 
102 46 14 2 -1 -1 -1 0 4 15 37 72 108 110 76 41 20 10 5 3 2 2 2 2 2 2 2 1 0 0 0 0 -1 -1 -1 -1 -1 -1 -1 -1 -1 -1 -2 -2 -2 -2 -2 -2 -2 -2 -2 -2 -2 -2 -2 -2 -2 -2 -2 -2 -2 -2 -2 -2 -2 -2 -1 -1 0 3 10 26 60 107 124 87 46 21 9 3 0 0 -1 -2 -2 -2 -2 -2 -2 -2 -2 -2 -2 -2 -2 -2 -2 -2 -2 -2 -2 -2 -1 0 2 12 36 76 121 139 
101 46 14 2 0 -1 0 4 15 36 71 111 130 112 80 56 39 28 20 17 15 15 14 14 14 14 13 12 9 6 4 3 2 2 2 2 2 2 1 0 0 0 0 -1 -1 -1 -1 -1 -1 -1 -1 -1 -1 -1 -2 -2 -2 -2 -2 -2 -2 -2 -2 -2 -1 -1 0 1 5 13 27 51 85 124 141 119 82 51 29 16 7 2 0 -1 -1 -2 -2 -2 -2 -2 -2 -2 -2 -2 -2 -2 -2 -2 -2 -2 -2 -2 -2 -1 0 4 18 49 97 131 
99 46 14 2 0 0 4 15 37 71 110 137 139 123 107 94 82 69 58 51 48 48 47 47 47 47 45 41 35 26 20 16 15 15 14 14 14 13 12 9 6 4 3 2 2 2 2 2 2 2 1 0 0 0 0 -1 -1 -1 -1 -1 -1 -1 -1 -1 0 0 3 9 19 36 62 89 111 121 124 121 111 92 68 45 25 12 5 1 0 -1 -1 -2 -2 -2 -2 -2 -2 -2 -2 -2 -2 -2 -2 -2 -2 -2 -2 -2 -1 1 9 31 74 117 
97 47 14 3 1 5 16 37 71 104 119 115 107 102 100 102 105 104 101 98 96 95 95 95 95 95 93 89 80 68 57 51 48 48 47 47 47 45 41 35 26 20 16 15 15 14 14 14 14 13 12 9 6 4 3 2 2 2 2 2 2 1 1 1 3 7 16 29 49 75 99 105 94 78 71 77 93 104 103 87 61 36 19 9 3 0 0 -1 -2 -2 -2 -2 -2 -2 -2 -2 -2 -2 -2 -2 -2 -2 -2 -2 -1 0 5 21 58 105 
96 48 16 5 7 17 38 71 101 105 84 63 52 49 51 57 68 80 89 93 95 95 95 95 95 96 98 101 104 104 101 98 96 95 95 95 95 93 89 80 68 57 51 48 48 47 47 47 47 45 41 35 26 20 16 15 15 14 14 14 14 12 11 10 15 26 45 68 91 104 99 76 51 34 28 33 47 69 91 104 98 75 49 29 16 7 2 0 -1 -1 -2 -2 -2 -2 -2 -2 -2 -2 -2 -2 -2 -2 -2 -2 -1 0 3 17 51 99 
96 49 19 13 21 41 72 101 101 73 43 25 17 16 17 20 26 35 41 45 47 47 47 47 48 48 51 57 68 80 89 93 95 95 95 95 96 98 101 104 104 101 98 96 95 95 95 95 95 93 89 80 68 57 51 48 48 47 47 47 45 42 37 35 43 64 87 103 103 87 61 36 19 10 7 9 17 30 50 75 98 104 91 68 45 25 12 5 1 0 -1 -1 -2 -2 -2 -2 -2 -2 -2 -2 -2 -2 -2 -2 -2 -1 2 15 48 96 
97 53 29 31 50 78 102 100 71 38 17 7 3 2 3 4 6 9 12 13 14 14 14 14 15 15 16 20 26 35 41 45 47 47 47 48 48 51 57 68 80 89 93 95 95 95 95 95 96 98 101 104 104 101 98 96 95 95 95 95 93 90 86 84 92 105 107 91 68 45 25 12 5 1 0 1 3 9 19 36 61 87 103 103 87 61 36 19 9 3 0 0 -1 -2 -2 -2 -2 -2 -2 -2 -2 -2 -2 -2 -2 -1 2 15 48 96 
101 64 50 65 89 104 97 68 36 15 5 0 0 -1 0 0 0 0 1 2 2 2 2 2 2 2 3 4 6 9 12 13 14 14 14 15 15 16 20 26 35 41 45 47 47 47 47 48 48 51 57 68 80 89 93 95 95 95 95 96 99 106 119 131 131 113 81 51 30 16 7 2 0 -1 -1 -1 0 1 5 12 25 45 68 91 104 98 75 49 29 16 7 2 0 -1 -1 -2 -2 -2 -2 -2 -2 -2 -2 -2 -2 -1 2 14 47 96 
109 85 84 101 105 88 60 33 14 4 0 -1 -1 -2 -2 -1 -1 -1 -1 -1 -1 -1 -1 -1 -1 -1 0 0 0 0 1 2 2 2 2 2 2 3 4 6 9 12 13 14 14 14 14 15 15 16 20 26 35 41 45 47 47 47 48 49 54 69 99 134 131 88 46 22 9 3 0 0 -1 -2 -2 -2 -1 -1 0 2 7 16 29 49 75 98 104 91 68 45 25 12 5 1 0 -1 -1 -2 -2 -2 -2 -2 -2 -2 -2 -1 2 14 47 97 
124 114 112 104 78 49 26 11 3 0 -1 -2 -2 -2 -2 -2 -2 -2 -2 -2 -2 -2 -2 -2 -2 -2 -2 -1 -1 -1 -1 -1 -1 -1 -1 -1 -1 0 0 0 0 1 2 2 2 2 2 2 2 3 4 6 9 12 13 14 14 14 15 16 21 35 69 114 113 64 26 8 2 0 -1 -1 -2 -2 -2 -2 -2 -2 -1 0 0 3 9 19 36 61 87 103 103 87 61 36 19 9 3 0 0 -1 -1 -2 -2 -2 -2 -2 -2 -1 2 14 47 99 
138 131 107 73 41 20 8 2 0 -1 -2 -2 -2 -2 -2 -2 -2 -2 -2 -2 -2 -2 -2 -2 -2 -2 -2 -2 -2 -2 -2 -2 -2 -2 -2 -2 -2 -2 -1 -1 -1 -1 -1 -1 -1 -1 -1 -1 -1 0 0 0 0 1 2 2 2 2 2 3 7 20 54 102 101 53 18 4 0 -1 -2 -2 -2 -2 -2 -2 -2 -2 -2 -1 -1 0 1 5 12 25 45 68 91 104 98 75 50 29 16 8 3 0 0 -1 -2 -2 -2 -2 -2 -1 2 14 46 102 
138 116 74 38 16 6 1 0 -1 -2 -2 -2 -2 -2 -2 -2 -2 -2 -2 -2 -2 -2 -2 -2 -2 -2 -2 -2 -2 -2 -2 -2 -2 -2 -2 -2 -2 -2 -2 -2 -2 -2 -2 -2 -2 -2 -2 -2 -2 -2 -1 -1 -1 -1 -1 -1 -1 -1 0 0 3 16 49 97 97 49 15 2 -1 -1 -2 -2 -2 -2 -2 -2 -2 -2 -2 -2 -2 -1 -1 0 2 7 16 29 49 75 98 104 91 68 46 28 15 7 2 0 -1 -1 -2 -2 -1 -1 2 14 46 102 
123 85 42 17 5 0 -1 -1 -2 -2 -2 -2 -2 -2 -2 -2 -2 -2 -2 -2 -2 -2 -2 -2 -2 -2 -2 -2 -2 -2 -2 -2 -2 -2 -2 -2 -2 -2 -2 -2 -2 -2 -2 -2 -2 -2 -2 -2 -2 -2 -2 -2 -2 -2 -2 -2 -2 -2 -1 0 2 15 48 96 96 48 15 2 -1 -2 -2 -2 -2 -2 -2 -2 -2 -2 -2 -2 -2 -2 -2 -1 0 0 3 9 19 36 61 86 103 103 89 67 44 25 12 4 1 0 -1 -1 -1 0 2 14 46 100 
108 63 25 7 0 -1 -1 -2 -2 -2 -2 -2 -2 -2 -2 -2 -2 -2 -2 -2 -2 -2 -2 -2 -2 -2 -2 -2 -2 -2 -2 -2 -2 -2 -2 -2 -2 -2 -2 -2 -2 -2 -2 -2 -2 -2 -2 -2 -2 -2 -2 -2 -2 -2 -2 -2 -2 -2 -2 -1 2 14 47 95 95 47 14 2 -1 -2 -2 -2 -2 -2 -2 -2 -2 -2 -2 -2 -2 -2 -2 -2 -1 -1 0 1 5 12 25 44 67 89 103 103 87 61 36 18 9 4 2 1 0 0 3 15 47 98 
100 52 18 3 0 -1 -2 -2 -2 -2 -2 -2 -2 -2 -2 -2 -2 -2 -2 -2 -2 -2 -2 -2 -2 -2 -2 -2 -2 -2 -2 -2 -2 -2 -2 -2 -2 -2 -2 -2 -2 -2 -2 -2 -2 -2 -2 -2 -2 -2 -2 -2 -2 -2 -2 -2 -2 -2 -2 -1 2 14 47 95 95 47 14 2 -1 -2 -2 -2 -2 -2 -2 -2 -2 -2 -2 -2 -2 -2 -2 -2 -2 -2 -1 -1 0 2 7 16 28 47 69 92 106 100 76 49 30 20 14 10 7 5 7 18 49 97 
97 49 15 2 0 -1 -2 -2 -2 -2 -2 -2 -2 -2 -2 -2 -2 -2 -2 -2 -2 -2 -2 -2 -2 -2 -2 -2 -2 -2 -2 -2 -2 -2 -2 -2 -2 -2 -2 -2 -2 -2 -2 -2 -2 -2 -2 -2 -2 -2 -2 -2 -2 -2 -2 -2 -2 -2 -2 -1 2 14 47 95 95 47 14 2 -1 -2 -2 -2 -2 -2 -2 -2 -2 -2 -2 -2 -2 -2 -2 -2 -2 -2 -2 -2 -1 0 0 4 9 19 34 56 86 112 116 98 74 56 45 36 27 20 19 27 56 100 
98 48 15 3 0 0 -1 -1 -1 -1 -1 -2 -2 -2 -2 -2 -2 -2 -2 -2 -2 -2 -2 -2 -2 -2 -2 -2 -2 -2 -2 -2 -2 -2 -2 -2 -2 -2 -2 -2 -2 -2 -2 -2 -2 -2 -2 -2 -2 -2 -2 -2 -2 -2 -2 -2 -2 -2 -2 -1 2 14 47 95 95 47 14 2 -1 -2 -2 -2 -2 -2 -2 -2 -2 -2 -2 -2 -2 -2 -2 -2 -2 -2 -2 -1 -1 0 0 2 6 12 23 41 69 106 134 137 121 105 93 81 68 56 50 53 74 109 
103 51 19 6 3 2 2 1 0 0 0 0 -1 -1 -1 -1 -1 -1 -1 -2 -2 -2 -2 -2 -2 -2 -2 -2 -2 -2 -2 -2 -2 -2 -2 -2 -2 -2 -2 -2 -2 -2 -2 -2 -2 -2 -2 -2 -2 -2 -2 -2 -2 -2 -2 -2 -2 -2 -2 -1 2 14 47 95 95 47 14 2 -1 -2 -2 -2 -2 -2 -2 -2 -2 -2 -2 -2 -2 -2 -2 -2 -2 -1 -1 0 0 1 4 8 16 27 42 60 85 113 129 125 112 104 103 105 104 100 96 95 108 126 
113 61 31 19 15 14 14 12 9 6 4 3 2 2 2 1 0 0 0 0 -1 -1 -1 -1 -1 -1 -1 -1 -2 -2 -2 -2 -2 -2 -2 -2 -2 -2 -2 -2 -2 -2 -2 -2 -2 -2 -2 -2 -2 -2 -2 -2 -2 -2 -2 -2 -2 -2 -2 -1 2 14 47 95 95 47 14 2 -1 -2 -2 -2 -2 -2 -2 -2 -2 -2 -2 -2 -2 -2 -1 -1 -1 0 0 3 6 11 19 30 45 65 83 98 107 106 93 74 59 55 58 69 82 92 102 114 132 143 
129 89 62 51 48 47 45 41 35 26 20 16 15 14 14 12 9 6 4 3 2 2 2 2 1 0 0 0 0 -1 -1 -1 -1 -1 -1 -1 -2 -2 -2 -2 -2 -2 -2 -2 -2 -2 -2 -2 -2 -2 -2 -2 -2 -2 -2 -2 -2 -2 -2 -1 2 14 47 95 95 47 14 2 -1 -2 -2 -2 -2 -2 -2 -2 -2 -2 -2 -2 -1 -1 0 0 1 4 8 15 25 38 53 71 89 102 104 97 83 64 45 30 21 18 21 27 36 46 58 79 111 141 
144 125 106 98 96 95 93 89 80 68 57 51 48 47 45 41 35 26 20 16 15 15 14 13 12 9 6 4 3 2 2 2 1 0 0 0 0 -1 -1 -1 -1 -1 -1 -1 -1 -2 -2 -2 -2 -2 -2 -2 -2 -2 -2 -2 -2 -2 -2 -1 2 14 47 95 95 47 14 2 -1 -2 -2 -2 -2 -2 -2 -2 -2 -2 -1 -1 0 0 3 6 11 19 30 45 64 83 97 104 102 89 71 53 38 25 15 8 4 3 4 7 10 15 23 41 76 125 
140 125 107 98 96 96 98 101 104 104 101 98 96 95 93 89 80 68 57 51 48 47 47 45 41 35 26 20 16 15 14 14 12 9 6 4 3 2 2 2 2 1 0 0 0 0 -1 -1 -1 -1 -1 -1 -1 -2 -2 -2 -2 -2 -1 -1 2 14 47 95 95 47 14 2 -1 -2 -2 -2 -2 -2 -2 -1 -1 -1 0 0 3 8 15 25 38 53 71 89 102 104 97 83 64 45 30 19 11 6 3 0 0 0 0 0 1 3 8 22 57 111 
120 89 62 52 49 49 51 57 68 80 89 93 95 96 98 101 104 104 101 98 96 95 95 93 89 80 68 57 51 48 47 45 41 35 26 20 16 15 15 14 13 12 9 6 4 3 2 2 2 1 0 0 0 0 -1 -1 -1 -1 -1 0 2 15 48 95 95 47 14 2 -1 -2 -2 -2 -2 -1 -1 0 0 1 4 8 16 28 45 64 83 97 104 102 89 71 53 38 25 15 8 4 1 0 0 -1 -1 -1 -1 -1 -1 0 3 16 49 102 
104 62 31 19 16 15 17 20 26 35 41 45 47 48 51 57 68 80 89 93 95 95 96 98 101 104 104 101 98 96 95 93 89 80 68 57 51 48 47 47 45 41 35 26 20 16 15 14 14 12 9 6 4 3 2 2 2 2 1 2 4 16 49 96 96 48 15 2 -1 -1 -1 -1 -1 0 0 3 6 11 19 30 46 67 88 102 104 97 83 64 45 30 19 11 6 3 0 0 -1 -1 -1 -2 -2 -2 -2 -2 -1 0 2 15 48 97 
98 52 19 7 3 2 3 4 6 9 12 14 14 15 16 20 26 35 41 45 47 47 48 51 57 68 80 89 93 95 96 98 101 104 104 101 98 96 95 95 93 89 80 68 57 51 48 47 45 41 35 26 20 16 15 15 14 14 12 10 11 21 52 98 97 49 15 2 0 -1 0 0 1 4 8 15 25 38 53 71 90 103 103 90 71 53 38 25 15 8 4 1 0 0 -1 -1 -2 -2 -2 -2 -2 -2 -2 -2 -2 -1 2 14 47 96 
96 48 16 3 0 0 0 0 0 0 1 2 2 2 3 4 6 9 12 13 14 15 15 16 20 26 35 41 45 47 48 51 57 68 80 89 93 95 95 96 98 101 104 104 101 98 96 95 93 89 80 68 57 51 48 47 47 45 41 36 31 37 64 106 102 53 18 4 1 1 3 6 11 19 30 45 64 83 97 104 102 88 67 46 30 19 11 6 3 0 0 -1 -1 -1 -2 -2 -2 -2 -2 -2 -2 -2 -2 -2 -2 -1 2 14 47 95 
95 48 15 2 0 -1 -1 -1 -1 -1 -1 -1 -1 -1 0 0 0 0 1 2 2 2 2 3 4 6 9 12 14 14 15 16 20 26 35 41 45 47 47 48 51 57 68 80 89 93 95 96 98 101 104 104 101 98 96 95 95 93 89 81 72 72 92 124 114 64 27 11 7 9 15 25 38 53 71 89 102 104 97 83 64 45 28 16 8 4 1 0 0 -1 -1 -2 -2 -2 -2 -2 -2 -2 -2 -2 -2 -2 -2 -2 -2 -1 2 14 47 95 
95 47 14 2 -1 -2 -2 -2 -2 -2 -2 -2 -2 -2 -2 -1 -1 -1 -1 -1 -1 -1 -1 0 0 0 0 1 2 2 2 3 4 6 9 12 13 14 15 15 16 20 26 35 41 45 47 48 51 57 68 80 89 93 95 95 96 98 101 105 106 109 122 140 131 88 49 29 25 31 46 64 83 97 104 102 89 71 53 38 25 15 8 3 0 0 -1 -1 -1 -2 -2 -2 -2 -2 -2 -2 -2 -2 -2 -2 -2 -2 -2 -2 -2 -1 2 14 47 95 
95 47 14 2 -1 -2 -2 -2 -2 -2 -2 -2 -2 -2 -2 -2 -2 -2 -2 -2 -2 -2 -2 -2 -1 -1 -1 -1 -1 -1 -1 0 0 0 0 1 2 2 2 2 3 4 6 9 12 14 14 15 16 20 26 35 41 45 47 47 48 51 57 68 81 91 102 116 126 115 89 68 64 74 90 103 104 97 83 64 45 30 19 11 6 3 0 0 -1 -1 -2 -2 -2 -2 -2 -2 -2 -2 -2 -2 -2 -2 -2 -2 -2 -2 -2 -2 -2 -1 2 14 47 95 
95 47 14 2 -1 -2 -2 -2 -2 -2 -2 -2 -2 -2 -2 -2 -2 -2 -2 -2 -2 -2 -2 -2 -2 -2 -2 -2 -2 -2 -2 -1 -1 -1 -1 -1 -1 -1 -1 -1 0 0 0 1 1 2 2 2 3 4 6 9 12 14 14 15 15 17 20 26 35 42 50 63 87 115 127 121 112 109 104 90 71 53 38 25 15 8 4 1 0 0 -1 -1 -2 -2 -2 -2 -2 -2 -2 -2 -2 -2 -2 -2 -2 -2 -2 -2 -2 -2 -2 -2 -2 -1 2 14 47 95 
95 48 15 2 0 -1 -2 -2 -2 -2 -2 -2 -2 -2 -2 -2 -2 -2 -2 -2 -2 -2 -2 -2 -2 -2 -2 -2 -2 -2 -2 -2 -1 -1 -1 -1 -1 -1 -1 -1 -1 -1 -1 -1 -1 -1 0 0 0 0 0 1 1 2 2 2 2 3 4 7 10 13 17 26 48 88 131 140 116 90 66 46 30 19 12 6 3 0 0 -1 -1 -1 -1 -1 -2 -2 -2 -2 -2 -2 -2 -2 -2 -2 -2 -2 -2 -2 -2 -2 -2 -2 -2 -2 -1 0 2 15 48 95 
96 48 15 3 0 0 -1 -1 -1 -1 -1 -1 -1 -1 -1 -1 -1 -1 -1 -1 -1 -1 -1 -1 -1 -1 -1 -1 -1 -1 -1 -1 -1 -1 -1 -1 -1 -1 -1 -1 -1 -1 -1 -1 -1 0 0 0 0 0 0 0 0 0 0 0 0 0 0 1 2 3 5 11 27 65 115 122 84 50 29 17 9 5 2 1 0 0 0 0 -1 -1 -1 -1 -1 -1 -1 -1 -1 -1 -1 -1 -1 -1 -1 -1 -1 -1 -1 -1 -1 -1 -1 -1 -1 0 3 15 48 96 
98 51 19 7 3 2 2 2 2 2 2 2 2 2 2 2 2 2 2 2 2 2 2 2 2 2 2 2 2 2 2 2 2 2 2 2 2 2 2 2 2 2 2 2 2 2 2 2 2 2 2 2 2 2 2 2 2 2 2 2 3 3 4 9 23 57 105 108 64 31 15 8 5 4 3 2 2 2 2 2 2 2 2 2 2 2 2 2 2 2 2 2 2 2 2 2 2 2 2 2 2 2 2 2 2 3 6 19 51 98 
106 62 31 19 15 15 14 14 14 14 14 14 14 14 14 14 14 14 14 14 14 14 14 14 14 14 14 14 14 14 14 14 14 14 14 14 14 14 14 14 14 14 14 14 14 14 14 14 14 14 14 14 14 14 14 14 14 14 14 15 15 15 16 20 32 64 108 109 66 34 21 17 15 15 15 15 14 14 14 14 14 14 14 14 14 14 14 14 14 14 14 14 14 14 14 14 14 14 14 14 14 14 14 14 14 15 19 31 62 106 
126 89 62 51 48 48 47 47 47 47 47 47 47 47 47 47 47 47 47 47 47 47 47 47 47 47 47 47 47 47 47 47 46 46 46 47 47 47 47 47 47 47 47 47 47 47 47 47 47 46 46 47 47 47 47 47 47 47 47 47 47 48 48 52 63 89 125 125 90 63 52 49 48 47 47 47 47 47 47 47 47 47 47 47 47 47 47 47 47 47 47 46 46 46 47 47 47 47 47 47 47 47 47 46 46 47 51 62 89 126 
152 126 106 98 96 95 95 95 95 95 95 95 95 95 95 95 95 95 95 95 95 95 95 95 95 95 95 95 95 96 97 99 101 102 100 98 96 95 95 95 95 95 95 95 95 95 96 97 99 102 102 99 97 96 95 95 95 95 95 95 95 95 96 98 104 119 137 138 119 104 98 96 95 95 95 95 95 95 95 95 95 95 95 95 95 95 95 95 96 96 98 101 103 101 98 96 95 95 95 95 95 96 98 101 103 102 101 107 126 152 
