P2
110 110
255
152 112 96 92 92 92 92 92 92 92 92 92 92 92 92 92 92 92 92 92 92 92 92 92 92 92 92 92 92 92 95 107 134 153 129 103 94 92 92 92 92 92 92 92 92 92 92 95 110 143 143 110 95 92 92 92 92 92 92 92 92 92 92 92 92 94 98 98 94 92 92 92 92 92 92 92 92 92 92 92 92 92 92 92 92 92 92 92 92 94 103 128 153 130 103 94 92 92 92 92 92 93 102 127 153 130 104 98 113 152 
112 56 32 28 27 27 27 27 27 27 27 27 27 27 27 27 27 27 27 27 27 27 27 27 27 27 27 27 27 30 41 75 123 115 65 36 28 27 27 27 27 27 27 27 27 27 28 33 57 114 112 55 32 28 27 27 27 27 27 27 27 27 27 27 27 27 27 27 27 27 27 27 27 27 27 27 27 27 27 27 27 27 27 27 27 27 27 27 28 33 56 109 123 70 38 29 27 27 27 27 27 31 50 101 125 72 39 35 56 113 
96 32 7 2 1 1 1 1 1 1 1 1 1 1 1 1 1 1 1 1 1 1 1 1 1 1 1 1 2 9 34 89 112 61 20 5 2 1 1 1 1 1 1 1 1 1 2 10 40 106 98 32 7 2 1 1 1 1 1 1 1 1 1 1 1 1 1 1 1 1 1 1 1 1 1 1 1 1 1 1 1 1 1 1 1 1 1 1 3 15 54 112 87 30 7 2 1 1 1 1 2 7 32 94 100 38 10 9 33 96 
92 28 2 -3 -3 -4 -4 -4 -4 -4 -4 -4 -4 -4 -4 -4 -4 -4 -4 -4 -4 -4 -4 -4 -4 -4 -3 -3 0 17 60 110 84 28 3 -2 -3 -4 -4 -4 -4 -4 -4 -4 -4 -3 -1 11 54 126 97 27 2 -3 -3 -4 -4 -4 -4 -4 -4 -4 -4 -4 -4 -4 -4 -4 -4 -4 -4 -4 -4 -4 -4 -4 -4 -4 -4 -4 -4 -4 -4 -4 -4 -4 -4 -3 1 21 77 110 52 11 -1 -3 -4 -4 -4 -3 -2 4 34 98 89 27 3 3 28 92 
92 27 1 -3 -4 -4 -4 -4 -4 -4 -4 -4 -4 -4 -4 -4 -4 -4 -4 -4 -4 -4 -4 -4 -4 -4 -4 -1 9 45 102 102 45 9 -2 -4 -4 -4 -4 -4 -4 -4 -4 -4 -4 -3 2 26 89 150 99 27 1 -4 -4 -4 -4 -4 -4 -4 -4 -4 -4 -4 -4 -4 -4 -4 -4 -4 -4 -4 -4 -4 -4 -4 -4 -4 -4 -4 -4 -4 -4 -4 -4 -4 -4 -3 3 32 95 95 32 3 -3 -4 -4 -4 -4 -4 -2 9 50 109 75 19 0 2 27 92 
92 27 1 -4 -4 -5 -5 -5 -5 -5 -5 -5 -5 -5 -5 -5 -5 -5 -5 -5 -5 -5 -5 -5 -5 -4 -3 3 28 83 109 59 16 0 -4 -4 -5 -5 -5 -5 -5 -5 -5 -5 -4 -2 10 50 119 149 98 27 1 -4 -4 -5 -5 -5 -5 -5 -5 -5 -5 -5 -5 -5 -5 -5 -5 -5 -5 -5 -5 -5 -5 -5 -5 -5 -5 -5 -5 -5 -5 -5 -5 -5 -4 -2 10 52 109 77 20 0 -4 -4 -5 -5 -4 -4 0 19 75 109 50 9 -1 1 27 92 
92 27 1 -4 -4 -5 -5 -5 -5 -5 -5 -5 -5 -5 -5 -5 -5 -5 -5 -5 -5 -5 -5 -5 -4 -4 0 16 59 109 83 28 3 -3 -4 -5 -5 -5 -5 -5 -5 -5 -5 -4 -3 2 26 85 128 132 97 28 1 -4 -4 -5 -5 -5 -5 -5 -5 -5 -5 -5 -5 -5 -5 -5 -5 -5 -5 -5 -5 -5 -5 -5 -5 -5 -5 -5 -5 -5 -5 -5 -5 -4 -3 1 26 84 107 48 8 -2 -4 -5 -5 -5 -4 -4 1 26 89 97 33 3 -2 1 27 92 
92 27 1 -4 -4 -5 -5 -5 -5 -5 -5 -5 -5 -5 -5 -5 -5 -5 -5 -5 -5 -5 -5 -5 -4 -2 9 45 101 101 45 9 -2 -4 -5 -5 -5 -5 -5 -5 -5 -5 -5 -4 -1 10 50 110 108 112 100 33 3 -3 -4 -5 -5 -5 -5 -5 -5 -5 -5 -5 -5 -5 -5 -5 -5 -5 -5 -5 -5 -5 -5 -5 -5 -5 -5 -5 -5 -5 -5 -5 -5 -4 -2 8 48 107 84 26 1 -3 -4 -5 -5 -5 -4 -3 3 33 97 89 26 1 -3 1 27 92 
92 27 1 -4 -4 -5 -5 -5 -5 -5 -5 -5 -5 -5 -5 -5 -5 -5 -5 -5 -5 -5 -5 -4 -3 3 28 83 109 59 16 0 -4 -4 -5 -5 -5 -5 -5 -5 -5 -5 -4 -3 3 28 85 111 72 88 111 50 9 -2 -4 -5 -5 -5 -5 -5 -5 -5 -5 -5 -5 -5 -5 -5 -5 -5 -5 -5 -5 -5 -5 -5 -5 -5 -5 -5 -5 -5 -5 -5 -4 -4 0 20 77 109 52 10 -2 -4 -5 -5 -5 -5 -4 -2 9 50 109 75 19 0 -3 1 27 92 
92 27 1 -4 -4 -5 -5 -5 -5 -5 -5 -5 -5 -5 -5 -5 -5 -5 -5 -5 -5 -5 -4 -4 0 16 59 109 83 28 3 -3 -4 -5 -5 -5 -5 -5 -5 -5 -5 -4 -4 0 16 59 109 85 39 56 110 75 19 0 -4 -4 -5 -5 -5 -5 -5 -5 -5 -5 -5 -5 -5 -5 -5 -5 -5 -5 -5 -5 -5 -5 -5 -5 -5 -5 -5 -5 -5 -5 -4 -3 3 32 95 95 32 3 -3 -4 -5 -5 -5 -4 -4 0 19 75 109 50 9 -2 -3 1 27 92 
92 27 1 -4 -4 -5 -5 -5 -5 -5 -5 -5 -5 -5 -5 -5 -5 -5 -5 -5 -5 -5 -4 -2 9 45 101 101 45 9 -2 -4 -5 -5 -5 -5 -5 -5 -5 -5 -5 -4 -2 8 45 101 102 46 17 36 98 87 24 0 -4 -4 -5 -5 -5 -5 -5 -5 -5 -5 -5 -5 -5 -5 -5 -5 -5 -5 -5 -5 -5 -5 -5 -5 -5 -5 -5 -5 -5 -5 -4 -2 10 52 109 77 20 0 -4 -4 -5 -5 -5 -4 -4 1 26 89 97 33 3 -3 -3 1 27 92 
92 27 1 -4 -4 -5 -5 -5 -5 -5 -5 -5 -5 -5 -5 -5 -5 -5 -5 -5 -5 -4 -3 3 28 83 109 59 16 0 -4 -4 -5 -5 -5 -5 -5 -5 -5 -5 -4 -3 2 26 83 109 59 17 6 29 93 91 26 1 -4 -4 -5 -5 -5 -5 -5 -5 -5 -5 -5 -5 -5 -5 -5 -5 -5 -5 -5 -5 -5 -5 -5 -5 -5 -5 -5 -5 -5 -4 -3 1 26 84 107 48 8 -2 -4 -5 -5 -5 -5 -4 -3 3 33 97 89 26 1 -3 -3 1 27 92 
94 28 2 -3 -4 -5 -5 -5 -5 -5 -5 -5 -5 -5 -5 -5 -5 -5 -5 -5 -4 -4 0 16 59 109 83 28 3 -3 -4 -5 -5 -5 -5 -5 -5 -5 -5 -5 -4 -2 10 50 108 85 28 4 3 27 92 92 27 1 -4 -4 -5 -5 -5 -5 -5 -5 -5 -5 -5 -5 -5 -5 -5 -5 -5 -5 -5 -5 -5 -5 -5 -5 -5 -5 -5 -5 -5 -4 -2 8 48 107 84 26 1 -3 -4 -5 -5 -5 -5 -4 -2 9 50 109 75 19 0 -4 -4 1 27 92 
103 36 5 -2 -4 -5 -5 -5 -5 -5 -5 -5 -5 -5 -5 -5 -5 -5 -5 -5 -4 -2 9 45 101 101 45 9 -2 -4 -5 -5 -5 -5 -5 -5 -5 -5 -5 -4 -3 2 26 84 108 50 10 0 1 26 91 93 28 1 -4 -4 -5 -5 -5 -5 -5 -5 -5 -5 -5 -5 -5 -5 -5 -5 -5 -5 -5 -5 -5 -5 -5 -5 -5 -5 -5 -5 -4 -4 0 20 77 109 52 10 -2 -4 -5 -5 -5 -5 -4 -4 0 19 75 109 50 9 -2 -4 -4 1 27 93 
129 64 19 1 -3 -4 -5 -5 -5 -5 -5 -5 -5 -5 -5 -5 -5 -5 -5 -4 -3 3 28 83 109 59 16 0 -4 -4 -5 -5 -5 -5 -5 -5 -5 -5 -5 -4 -1 10 50 108 84 26 2 -2 1 24 87 98 33 3 -3 -4 -5 -5 -5 -5 -5 -5 -5 -5 -5 -5 -5 -5 -5 -5 -5 -5 -5 -5 -5 -5 -5 -5 -5 -5 -5 -5 -4 -3 3 32 95 95 32 3 -3 -4 -5 -5 -5 -5 -4 -4 1 26 89 97 33 3 -3 -4 -4 1 27 97 
153 114 56 17 0 -3 -4 -5 -5 -5 -5 -5 -5 -5 -5 -5 -5 -5 -4 -4 0 16 59 109 83 28 3 -3 -4 -5 -5 -5 -5 -5 -5 -5 -5 -5 -4 -3 3 28 85 108 50 10 -2 -3 0 19 75 109 50 9 -2 -4 -5 -5 -5 -5 -5 -5 -5 -5 -5 -5 -5 -5 -5 -5 -5 -5 -5 -5 -5 -5 -5 -5 -5 -5 -5 -5 -4 -2 10 52 109 77 20 0 -4 -4 -5 -5 -5 -5 -4 -3 3 33 97 89 26 1 -4 -4 -4 1 27 99 
135 125 105 54 14 0 -4 -4 -5 -5 -5 -5 -5 -5 -5 -5 -5 -5 -4 -2 9 45 101 101 45 9 -2 -4 -5 -5 -5 -5 -5 -5 -5 -5 -5 -4 -4 0 16 59 109 83 26 2 -3 -4 -2 9 50 109 75 19 0 -4 -4 -5 -5 -5 -5 -5 -5 -5 -5 -5 -5 -5 -5 -5 -5 -5 -5 -5 -5 -5 -5 -5 -5 -5 -5 -4 -3 1 26 84 107 48 8 -2 -4 -5 -5 -5 -5 -5 -4 -2 9 50 109 75 19 0 -4 -4 -4 1 27 96 
109 84 109 101 45 9 -2 -4 -5 -5 -5 -5 -5 -5 -5 -5 -5 -4 -3 3 28 83 109 59 16 0 -4 -4 -5 -5 -5 -5 -5 -5 -5 -5 -5 -4 -2 8 45 101 101 45 8 -2 -4 -4 -3 3 33 98 87 24 0 -4 -4 -5 -5 -5 -5 -5 -5 -5 -5 -5 -5 -5 -5 -5 -5 -5 -5 -5 -5 -5 -5 -5 -5 -5 -5 -4 -2 8 48 107 84 26 1 -3 -4 -5 -5 -5 -5 -4 -4 0 19 75 109 50 9 -2 -4 -4 -4 1 27 93 
97 49 66 110 83 28 3 -3 -4 -5 -5 -5 -5 -5 -5 -5 -4 -4 0 16 59 109 83 28 3 -3 -4 -5 -5 -5 -5 -5 -5 -5 -5 -5 -4 -3 2 26 83 109 59 16 0 -4 -4 -4 -4 1 28 93 91 26 1 -4 -4 -5 -5 -5 -5 -5 -5 -5 -5 -5 -5 -5 -5 -5 -5 -5 -5 -5 -5 -5 -5 -5 -5 -5 -4 -4 0 20 77 109 52 10 -2 -4 -5 -5 -5 -5 -5 -4 -4 1 26 89 97 33 3 -3 -4 -4 -4 1 27 92 
93 35 34 84 109 60 18 1 -3 -4 -5 -5 -5 -5 -5 -5 -4 -2 9 45 101 101 45 9 -2 -4 -5 -5 -5 -5 -5 -5 -5 -5 -5 -5 -4 -2 10 50 108 85 28 3 -3 -4 -5 -4 -4 1 27 92 92 27 1 -4 -4 -5 -5 -5 -5 -5 -5 -5 -5 -5 -5 -5 -5 -5 -5 -5 -5 -5 -5 -5 -5 -5 -5 -5 -4 -3 3 32 95 95 32 3 -3 -4 -5 -5 -5 -5 -5 -4 -3 3 33 97 89 26 1 -4 -4 -4 -4 1 27 92 
92 30 15 46 101 104 55 17 1 -3 -4 -5 -5 -5 -5 -4 -3 3 28 83 109 59 16 0 -4 -4 -5 -5 -5 -5 -5 -5 -5 -5 -5 -4 -3 2 26 84 108 50 10 -1 -4 -5 -5 -4 -4 1 26 91 93 28 1 -4 -4 -5 -5 -5 -5 -5 -5 -5 -5 -5 -5 -5 -5 -5 -5 -5 -5 -5 -5 -5 -5 -5 -5 -5 -4 -2 10 52 109 77 20 0 -4 -4 -5 -5 -5 -5 -5 -4 -2 9 50 109 75 19 0 -4 -4 -4 -4 1 27 92 
92 27 6 15 54 103 103 55 17 1 -3 -4 -5 -5 -4 -4 0 16 59 109 83 28 3 -3 -4 -5 -5 -5 -5 -5 -5 -5 -5 -5 -5 -4 -1 10 50 108 84 26 2 -3 -4 -5 -5 -4 -4 0 24 87 98 33 3 -3 -4 -5 -5 -5 -5 -5 -5 -5 -5 -5 -5 -5 -5 -5 -5 -5 -5 -5 -5 -5 -5 -5 -5 -4 -3 1 26 84 107 48 8 -2 -4 -5 -5 -5 -5 -5 -4 -4 0 19 75 109 50 9 -2 -4 -5 -4 -4 1 27 92 
92 27 2 1 17 55 103 103 55 17 1 -3 -4 -4 -4 -2 9 45 101 101 45 9 -2 -4 -5 -5 -5 -5 -5 -5 -5 -5 -5 -5 -4 -3 3 28 85 108 50 10 -2 -4 -5 -5 -5 -4 -4 0 19 75 109 50 9 -2 -4 -5 -5 -5 -5 -5 -5 -5 -5 -5 -5 -5 -5 -5 -5 -5 -5 -5 -5 -5 -5 -5 -5 -4 -2 8 48 107 84 26 1 -3 -4 -5 -5 -5 -5 -5 -4 -4 1 26 89 97 33 3 -3 -4 -5 -4 -4 1 27 92 
92 27 1 -2 1 17 55 103 103 55 17 1 -3 -4 -3 3 28 83 109 59 16 0 -4 -4 -5 -5 -5 -5 -5 -5 -5 -5 -5 -4 -4 0 16 59 109 83 26 2 -3 -4 -5 -5 -5 -5 -4 -2 9 50 109 75 19 0 -4 -4 -5 -5 -5 -5 -5 -5 -5 -5 -5 -5 -5 -5 -5 -5 -5 -5 -5 -5 -5 -5 -4 -4 0 20 77 109 52 10 -2 -4 -5 -5 -5 -5 -5 -5 -4 -3 3 33 97 89 26 1 -4 -4 -5 -4 -4 1 27 92 
92 27 1 -3 -3 1 17 55 103 103 55 17 1 -2 0 16 59 109 83 28 3 -3 -4 -5 -5 -5 -5 -5 -5 -5 -5 -5 -5 -4 -2 8 45 101 101 45 8 -2 -4 -5 -5 -5 -5 -5 -4 -3 3 33 98 87 24 0 -4 -4 -5 -5 -5 -5 -5 -5 -5 -5 -5 -5 -5 -5 -5 -5 -5 -5 -5 -5 -5 -5 -4 -3 3 32 95 95 32 3 -3 -4 -5 -5 -5 -5 -5 -5 -4 -2 9 50 109 75 19 0 -4 -4 -5 -4 -4 1 27 92 
92 27 1 -4 -4 -3 1 17 55 103 103 55 17 4 10 45 102 101 45 9 -2 -4 -5 -5 -5 -5 -5 -5 -5 -5 -5 -5 -4 -3 2 26 83 109 59 16 0 -4 -4 -5 -5 -5 -5 -5 -4 -4 1 28 93 91 26 1 -4 -4 -5 -5 -5 -5 -5 -5 -5 -5 -5 -5 -5 -5 -5 -5 -5 -5 -5 -5 -5 -5 -4 -2 10 52 109 77 20 0 -4 -4 -5 -5 -5 -5 -5 -4 -4 0 19 75 109 50 9 -2 -4 -5 -5 -4 -4 1 27 92 
92 27 1 -4 -4 -4 -3 1 17 55 103 103 57 25 34 84 109 59 16 0 -4 -4 -5 -5 -5 -5 -5 -5 -5 -5 -5 -5 -4 -2 10 50 108 85 28 3 -3 -4 -5 -5 -5 -5 -5 -5 -4 -4 1 26 91 93 28 1 -4 -4 -5 -5 -5 -5 -5 -5 -5 -5 -5 -5 -5 -5 -5 -5 -5 -5 -5 -5 -5 -4 -3 1 26 84 107 48 8 -2 -4 -5 -5 -5 -5 -5 -5 -4 -4 1 26 89 97 33 3 -3 -4 -5 -5 -4 -4 1 27 92 
92 27 1 -4 -4 -5 -4 -3 1 17 55 104 107 74 77 112 84 28 3 -3 -4 -5 -5 -5 -5 -5 -5 -5 -5 -5 -5 -4 -3 2 26 84 108 50 10 -1 -4 -5 -5 -5 -5 -5 -5 -5 -4 -4 0 24 87 98 33 3 -3 -4 -5 -5 -5 -5 -5 -5 -5 -5 -5 -5 -5 -5 -5 -5 -5 -5 -5 -5 -5 -4 -2 8 48 107 84 26 1 -3 -4 -5 -5 -5 -5 -5 -5 -4 -3 3 33 97 89 26 1 -4 -4 -5 -5 -4 -4 1 27 92 
92 27 1 -4 -4 -5 -5 -4 -3 1 17 56 109 134 134 106 45 9 -2 -4 -5 -5 -5 -5 -5 -5 -5 -5 -5 -5 -5 -4 -1 10 50 108 84 26 2 -3 -4 -5 -5 -5 -5 -5 -5 -5 -4 -4 0 19 75 109 50 9 -2 -4 -5 -5 -5 -5 -5 -5 -5 -5 -5 -5 -5 -5 -5 -5 -5 -5 -5 -5 -4 -4 0 20 77 109 52 10 -2 -4 -5 -5 -5 -5 -5 -5 -5 -4 -2 9 50 109 75 19 0 -4 -4 -5 -5 -4 -4 1 27 92 
92 27 1 -4 -4 -5 -5 -5 -4 -3 1 19 64 133 133 63 16 0 -4 -4 -5 -5 -5 -5 -5 -5 -5 -5 -5 -5 -4 -3 3 28 85 108 50 10 -2 -4 -5 -5 -5 -5 -5 -5 -5 -5 -5 -4 -2 9 50 109 75 19 0 -4 -4 -5 -5 -5 -5 -5 -5 -5 -5 -5 -5 -5 -5 -5 -5 -5 -5 -5 -4 -3 3 32 95 95 32 3 -3 -4 -5 -5 -5 -5 -5 -5 -4 -4 0 19 75 109 50 9 -2 -4 -5 -5 -5 -4 -4 1 27 92 
92 27 1 -4 -4 -5 -5 -5 -5 -4 -2 5 36 104 106 38 5 -3 -4 -5 -5 -5 -5 -5 -5 -5 -5 -5 -5 -4 -4 0 16 59 109 83 26 2 -3 -4 -5 -5 -5 -5 -5 -5 -5 -5 -5 -4 -3 3 33 98 87 24 0 -4 -4 -5 -5 -5 -5 -5 -5 -5 -5 -5 -5 -5 -5 -5 -5 -5 -5 -5 -4 -2 10 52 109 77 20 0 -4 -4 -5 -5 -5 -5 -5 -5 -4 -4 1 26 89 97 33 3 -3 -4 -5 -5 -5 -4 -4 1 27 92 
92 27 1 -4 -4 -5 -5 -5 -5 -4 -4 1 26 90 101 35 4 -3 -4 -5 -5 -5 -5 -5 -5 -5 -5 -5 -5 -4 -2 8 45 101 101 45 8 -2 -4 -5 -5 -5 -5 -5 -5 -5 -5 -5 -5 -4 -4 1 28 93 91 26 1 -4 -4 -5 -5 -5 -5 -5 -5 -5 -5 -5 -5 -5 -5 -5 -5 -5 -5 -4 -3 1 26 84 107 48 8 -2 -4 -5 -5 -5 -5 -5 -5 -5 -4 -3 3 33 97 89 26 1 -4 -4 -5 -5 -5 -4 -4 1 27 92 
92 27 1 -4 -4 -5 -5 -5 -5 -4 -4 0 19 75 110 50 9 -2 -4 -5 -5 -5 -5 -5 -5 -5 -5 -5 -4 -3 2 26 83 109 59 16 0 -4 -4 -5 -5 -5 -5 -5 -5 -5 -5 -5 -5 -4 -4 1 27 92 92 27 1 -4 -4 -5 -5 -5 -5 -5 -5 -5 -5 -5 -5 -5 -5 -5 -5 -5 -5 -4 -2 8 48 107 84 26 1 -3 -4 -5 -5 -5 -5 -5 -5 -5 -4 -2 9 50 109 75 19 0 -4 -4 -5 -5 -5 -4 -4 1 27 92 
92 27 1 -4 -4 -5 -5 -5 -5 -5 -4 -2 9 50 109 75 19 0 -4 -4 -5 -5 -5 -5 -5 -5 -5 -5 -4 -2 10 50 108 85 28 3 -3 -4 -5 -5 -5 -5 -5 -5 -5 -5 -5 -5 -5 -4 -4 1 26 91 93 28 1 -4 -4 -5 -5 -5 -5 -5 -5 -5 -5 -5 -5 -5 -5 -5 -5 -5 -4 -4 0 20 77 109 52 10 -2 -4 -5 -5 -5 -5 -5 -5 -5 -4 -4 0 19 75 109 50 9 -2 -4 -5 -5 -5 -5 -4 -4 1 27 92 
92 27 1 -4 -4 -5 -5 -5 -5 -5 -4 -3 3 33 98 87 25 0 -4 -4 -5 -5 -5 -5 -5 -5 -5 -4 -3 2 26 84 108 50 10 -1 -4 -5 -5 -5 -5 -5 -5 -5 -5 -5 -5 -5 -5 -4 -4 0 24 87 98 33 3 -3 -4 -5 -5 -5 -5 -5 -5 -5 -5 -5 -5 -5 -5 -5 -5 -5 -4 -3 3 32 95 95 32 3 -3 -4 -5 -5 -5 -5 -5 -5 -5 -4 -4 1 26 89 97 33 3 -3 -4 -5 -5 -5 -5 -4 -4 1 27 92 
92 27 1 -4 -4 -5 -5 -5 -5 -5 -4 -4 1 28 92 92 28 1 -4 -4 -5 -5 -5 -5 -5 -5 -5 -4 -1 10 50 108 84 26 2 -3 -4 -5 -5 -5 -5 -5 -5 -5 -5 -5 -5 -5 -5 -4 -4 0 19 75 109 50 9 -2 -4 -5 -5 -5 -5 -5 -5 -5 -5 -5 -5 -5 -5 -5 -5 -5 -4 -2 10 52 109 77 20 0 -4 -4 -5 -5 -5 -5 -5 -5 -5 -4 -3 3 33 97 89 26 1 -4 -4 -5 -5 -5 -5 -4 -4 1 28 94 
93 27 1 -4 -4 -5 -5 -5 -5 -5 -4 -4 0 25 87 98 33 3 -3 -4 -5 -5 -5 -5 -5 -5 -4 -3 3 28 85 108 50 10 -2 -4 -5 -5 -5 -5 -5 -5 -5 -5 -5 -5 -5 -5 -5 -5 -4 -2 9 50 109 75 19 0 -4 -4 -5 -5 -5 -5 -5 -5 -5 -5 -5 -5 -5 -5 -5 -4 -3 1 26 84 107 48 8 -2 -4 -5 -5 -5 -5 -5 -5 -5 -5 -4 -2 9 50 109 75 19 0 -4 -4 -5 -5 -5 -5 -4 -3 3 34 102 
97 27 1 -4 -4 -5 -5 -5 -5 -5 -4 -4 0 19 75 109 50 9 -2 -4 -5 -5 -5 -5 -5 -4 -4 0 16 59 109 83 26 2 -3 -4 -5 -5 -5 -5 -5 -5 -5 -5 -5 -5 -5 -5 -5 -5 -4 -3 3 33 98 87 24 0 -4 -4 -5 -5 -5 -5 -5 -5 -5 -5 -5 -5 -5 -5 -5 -4 -2 8 48 107 84 26 1 -3 -4 -5 -5 -5 -5 -5 -5 -5 -4 -4 0 19 75 109 50 9 -2 -4 -5 -5 -5 -5 -5 -4 -1 10 53 125 
99 27 1 -4 -4 -5 -5 -5 -5 -5 -5 -4 -2 9 50 109 75 19 0 -4 -4 -5 -5 -5 -5 -4 -2 8 45 101 101 45 8 -2 -4 -5 -5 -5 -5 -5 -5 -5 -5 -5 -5 -5 -5 -5 -5 -5 -4 -4 1 28 93 91 26 1 -4 -4 -5 -5 -5 -5 -5 -5 -5 -5 -5 -5 -5 -5 -4 -4 0 20 77 109 52 10 -2 -4 -5 -5 -5 -5 -5 -5 -5 -5 -4 -4 1 26 89 97 33 3 -3 -4 -5 -5 -5 -5 -4 -3 3 28 90 150 
98 27 1 -4 -4 -5 -5 -5 -5 -5 -5 -4 -3 3 33 98 87 25 0 -4 -4 -5 -5 -5 -4 -3 2 26 83 109 59 16 0 -4 -4 -5 -5 -5 -5 -5 -5 -5 -5 -5 -5 -5 -5 -5 -5 -5 -4 -4 1 27 92 92 27 1 -4 -4 -5 -5 -5 -5 -5 -5 -5 -5 -5 -5 -5 -5 -4 -3 3 32 95 95 32 3 -3 -4 -5 -5 -5 -5 -5 -5 -5 -5 -4 -3 3 33 97 89 26 1 -4 -4 -5 -5 -5 -4 -4 0 16 60 121 149 
95 27 1 -4 -4 -5 -5 -5 -5 -5 -5 -4 -4 1 28 92 92 28 1 -4 -4 -5 -5 -5 -4 -2 10 50 108 85 28 3 -3 -4 -5 -5 -5 -5 -5 -5 -5 -5 -5 -5 -5 -5 -5 -5 -5 -5 -4 -4 1 26 91 93 28 1 -4 -4 -5 -5 -5 -5 -5 -5 -5 -5 -5 -5 -5 -5 -4 -2 10 52 109 77 20 0 -4 -4 -5 -5 -5 -5 -5 -5 -5 -5 -4 -2 9 50 109 75 19 0 -4 -4 -5 -5 -5 -4 -2 9 45 104 124 129 
93 27 1 -4 -4 -5 -5 -5 -5 -5 -5 -4 -4 0 25 87 98 33 3 -3 -4 -5 -5 -4 -3 2 26 84 108 50 10 -1 -4 -5 -5 -5 -5 -5 -5 -5 -5 -5 -5 -5 -5 -5 -5 -5 -5 -5 -4 -4 0 24 87 98 33 3 -3 -4 -5 -5 -5 -5 -5 -5 -5 -5 -5 -5 -5 -4 -3 1 26 84 107 48 8 -2 -4 -5 -5 -5 -5 -5 -5 -5 -5 -4 -4 0 19 75 109 50 9 -2 -4 -5 -5 -5 -4 -3 3 28 84 113 88 108 
92 27 1 -4 -4 -5 -5 -5 -5 -5 -5 -4 -4 0 19 75 109 50 9 -2 -4 -5 -5 -4 -1 10 50 108 84 26 2 -3 -4 -5 -5 -5 -5 -5 -5 -5 -5 -5 -5 -5 -5 -5 -5 -5 -5 -5 -4 -4 0 19 75 109 50 9 -2 -4 -4 -4 -5 -5 -5 -5 -5 -5 -5 -5 -5 -4 -2 8 48 107 84 26 1 -3 -4 -5 -5 -5 -5 -5 -5 -5 -5 -4 -4 1 26 89 97 33 3 -3 -4 -5 -5 -4 -4 0 16 59 110 89 59 98 
92 27 1 -4 -4 -5 -5 -5 -5 -5 -5 -5 -4 -2 9 50 109 75 19 0 -4 -4 -4 -3 3 28 85 108 50 10 -2 -4 -5 -5 -5 -5 -5 -5 -5 -5 -5 -5 -5 -5 -5 -5 -5 -5 -5 -5 -5 -4 -2 9 50 110 76 20 0 -3 -4 -4 -4 -4 -4 -4 -4 -4 -4 -5 -4 -4 0 20 77 109 52 10 -2 -4 -5 -5 -5 -5 -5 -5 -5 -5 -5 -4 -3 3 33 97 89 26 1 -4 -4 -5 -5 -4 -2 9 45 102 102 51 40 94 
92 27 1 -4 -4 -5 -5 -5 -5 -5 -5 -5 -4 -3 3 33 98 87 25 0 -4 -4 -4 0 16 59 109 83 26 2 -3 -4 -5 -5 -5 -5 -5 -5 -5 -5 -5 -5 -5 -5 -5 -5 -5 -5 -5 -5 -5 -4 -3 4 35 101 91 30 7 2 0 0 -2 -3 -4 -4 -4 -4 -4 -4 -4 -3 3 32 95 95 32 3 -3 -4 -5 -5 -5 -5 -5 -5 -5 -5 -5 -4 -2 9 50 109 75 19 0 -4 -4 -5 -4 -3 3 28 83 109 60 22 31 92 
92 27 1 -4 -4 -5 -5 -5 -5 -5 -5 -5 -4 -4 1 28 92 92 28 1 -3 -4 -2 8 45 101 101 45 8 -2 -4 -5 -5 -5 -5 -5 -5 -5 -5 -5 -5 -5 -5 -5 -5 -5 -5 -5 -5 -5 -4 -4 -1 8 39 107 111 55 32 27 24 19 9 3 1 1 1 0 0 -2 -3 -1 11 52 109 77 20 0 -4 -4 -5 -5 -5 -5 -5 -5 -5 -5 -4 -4 0 19 75 109 50 9 -2 -4 -5 -4 -4 0 16 59 109 84 29 9 28 92 
92 27 1 -4 -4 -5 -5 -5 -5 -5 -5 -5 -4 -4 0 25 87 98 33 3 -3 -3 2 26 83 109 59 16 0 -4 -4 -5 -5 -5 -5 -5 -5 -5 -5 -5 -5 -5 -5 -5 -5 -5 -5 -5 -4 -4 -3 0 9 30 70 134 144 110 95 91 87 75 50 33 28 27 26 24 19 9 4 8 30 86 108 48 8 -2 -4 -5 -5 -5 -5 -5 -5 -5 -5 -5 -4 -4 1 26 89 97 33 3 -3 -4 -4 -4 -2 9 45 101 101 45 10 4 27 92 
92 27 1 -4 -4 -5 -5 -5 -5 -5 -5 -5 -4 -4 0 19 75 109 50 9 -2 -1 10 50 108 85 28 3 -3 -4 -5 -5 -5 -5 -5 -5 -5 -5 -5 -5 -5 -5 -5 -5 -5 -5 -5 -4 -4 -2 3 16 45 84 114 123 109 96 93 93 98 109 109 98 93 92 91 87 75 50 35 39 70 115 86 26 1 -3 -4 -5 -5 -5 -5 -5 -5 -5 -5 -5 -4 -3 3 33 97 89 26 1 -4 -4 -4 -3 3 28 83 109 59 16 0 2 27 92 
92 27 1 -4 -4 -5 -5 -5 -5 -5 -5 -5 -5 -4 -2 9 50 109 75 19 0 2 26 84 108 50 10 -1 -4 -5 -5 -5 -5 -5 -5 -5 -5 -5 -5 -5 -5 -5 -5 -5 -5 -4 -4 -3 0 9 28 59 102 109 85 53 34 28 27 28 33 50 75 87 91 92 93 98 109 110 101 107 134 131 60 13 -1 -4 -5 -5 -5 -5 -5 -5 -5 -5 -5 -5 -4 -2 9 50 109 75 19 0 -4 -4 -4 0 16 59 109 83 28 3 -2 1 27 92 
92 27 1 -4 -4 -5 -5 -5 -5 -5 -5 -5 -5 -4 -3 3 33 98 88 25 4 11 50 108 84 26 2 -3 -4 -5 -5 -5 -5 -5 -5 -5 -5 -5 -5 -5 -5 -5 -5 -5 -4 -4 -2 3 16 45 83 109 101 59 28 11 3 1 1 1 3 9 19 24 26 27 28 33 50 75 90 105 133 131 60 13 -1 -4 -4 -5 -5 -5 -5 -5 -5 -5 -5 -4 -4 0 19 75 109 50 9 -2 -4 -4 -2 9 45 101 101 45 9 -1 -3 1 27 92 
92 27 1 -4 -4 -5 -5 -5 -5 -5 -5 -5 -5 -4 -4 1 28 92 92 29 10 29 85 108 50 10 -2 -4 -5 -5 -5 -5 -5 -5 -5 -5 -5 -5 -5 -5 -5 -5 -5 -4 -3 0 9 28 59 101 109 83 45 16 3 -1 -3 -4 -4 -4 -3 -2 0 0 1 1 1 3 9 19 26 37 69 115 87 29 4 -2 -4 -4 -4 -4 -4 -4 -4 -4 -4 -4 -3 1 26 89 97 33 3 -3 -4 -3 3 28 83 109 59 16 0 -4 -3 1 27 92 
92 27 1 -4 -4 -5 -5 -5 -5 -5 -5 -5 -5 -4 -4 0 25 87 99 38 24 60 109 83 26 2 -3 -4 -5 -5 -5 -5 -5 -5 -5 -5 -5 -5 -5 -5 -5 -4 -4 -3 1 15 45 83 109 101 59 28 9 0 -3 -4 -4 -4 -4 -4 -4 -4 -4 -4 -4 -4 -4 -3 -2 0 1 7 30 84 110 61 20 3 -1 -3 -4 -4 -4 -4 -4 -4 -4 -3 -2 4 34 98 89 26 1 -3 -4 0 16 59 109 83 28 3 -3 -4 -4 1 27 92 
92 27 1 -4 -4 -5 -5 -5 -5 -5 -5 -5 -5 -4 -4 0 19 75 111 63 58 103 102 45 8 -2 -4 -5 -5 -5 -5 -5 -5 -5 -5 -5 -5 -5 -5 -5 -4 -4 -2 3 18 54 101 109 83 45 16 3 -2 -4 -4 -5 -5 -5 -5 -5 -5 -5 -4 -4 -4 -4 -4 -4 -4 -4 -3 -1 9 45 103 108 62 29 11 3 1 1 1 1 1 1 1 1 3 15 54 112 77 20 0 -3 -1 9 45 101 101 45 9 -2 -4 -4 -4 1 27 92 
92 27 1 -4 -4 -5 -5 -5 -5 -5 -5 -5 -5 -5 -4 -2 9 50 112 102 103 111 59 16 0 -4 -4 -5 -5 -5 -5 -5 -5 -5 -5 -5 -5 -5 -4 -4 -3 0 9 28 60 104 104 60 28 9 0 -3 -4 -4 -5 -5 -5 -5 -5 -5 -5 -5 -5 -5 -5 -5 -5 -5 -5 -4 -4 -4 0 16 62 125 129 89 53 34 28 27 27 27 27 27 27 27 31 48 96 123 61 15 0 -1 3 28 83 109 59 16 0 -4 -4 -4 -4 1 27 92 
92 27 1 -4 -4 -5 -5 -5 -5 -5 -5 -5 -5 -5 -4 -3 3 33 103 129 127 86 28 3 -3 -4 -5 -5 -5 -5 -5 -5 -5 -5 -5 -5 -5 -4 -4 -2 3 16 45 83 109 101 54 18 3 -2 -4 -4 -5 -5 -5 -5 -5 -5 -5 -5 -5 -5 -5 -5 -5 -5 -5 -5 -5 -5 -5 -4 -3 5 38 111 147 127 112 99 93 92 92 92 92 92 92 92 95 108 141 139 76 32 12 6 18 60 109 83 28 3 -3 -4 -5 -4 -4 1 27 92 
92 27 1 -4 -4 -5 -5 -5 -5 -5 -5 -5 -5 -5 -4 -4 1 28 99 149 119 51 10 -1 -4 -5 -5 -5 -5 -5 -5 -5 -5 -5 -5 -4 -4 -3 0 9 28 59 101 109 83 45 15 1 -3 -4 -4 -5 -5 -5 -5 -5 -5 -5 -5 -5 -5 -5 -5 -5 -5 -5 -5 -5 -5 -5 -5 -4 -3 4 35 104 112 75 80 88 91 91 92 92 92 92 92 92 92 96 109 124 115 86 53 38 56 104 102 45 9 -2 -4 -5 -5 -4 -4 1 27 92 
92 27 1 -4 -4 -5 -5 -5 -5 -5 -5 -5 -5 -5 -4 -4 1 27 99 150 89 26 2 -3 -4 -5 -5 -5 -5 -5 -5 -5 -5 -4 -4 -4 -2 3 16 45 83 109 102 59 28 9 0 -3 -4 -5 -5 -5 -5 -5 -5 -5 -5 -5 -5 -5 -5 -5 -5 -5 -5 -5 -5 -5 -5 -5 -5 -4 -2 9 50 111 81 32 23 25 26 27 27 27 27 27 27 27 27 28 34 53 85 108 111 102 115 120 63 17 0 -4 -4 -5 -5 -4 -4 1 27 92 
92 27 1 -4 -4 -5 -5 -5 -5 -5 -5 -5 -5 -5 -4 -4 1 27 97 125 53 10 -2 -4 -5 -5 -5 -5 -5 -5 -5 -4 -4 -4 -3 0 9 28 59 102 110 84 46 16 3 -1 -4 -4 -4 -5 -5 -5 -5 -5 -5 -5 -5 -5 -5 -5 -5 -5 -5 -5 -5 -5 -5 -5 -5 -5 -4 -4 0 19 75 110 51 11 2 1 1 1 1 1 1 1 1 1 1 1 3 10 26 50 86 120 151 119 46 8 -2 -4 -5 -5 -5 -4 -4 1 27 92 
92 27 1 -4 -4 -5 -5 -5 -5 -5 -5 -5 -5 -5 -4 -4 1 27 94 102 34 3 -3 -4 -5 -5 -5 -5 -5 -4 -4 -3 -2 0 4 16 46 88 119 112 67 34 15 4 0 -3 -3 -4 -4 -4 -4 -4 -4 -5 -5 -5 -5 -5 -5 -5 -5 -5 -5 -5 -5 -5 -5 -5 -5 -5 -4 -4 0 24 87 98 34 3 -2 -4 -4 -4 -4 -4 -4 -4 -4 -4 -4 -4 -3 -2 2 10 28 62 117 124 64 17 0 -4 -4 -5 -5 -4 -4 1 27 92 
92 27 1 -4 -4 -5 -5 -5 -5 -5 -5 -5 -5 -5 -4 -4 1 28 93 93 28 1 -4 -4 -5 -5 -4 -4 -4 -3 -2 1 9 20 34 62 113 149 142 96 54 36 27 20 9 3 1 0 -2 -3 -4 -4 -4 -4 -4 -4 -4 -5 -5 -5 -5 -5 -5 -5 -5 -5 -5 -5 -5 -5 -4 -4 1 26 91 93 28 1 -3 -4 -4 -4 -4 -4 -4 -4 -4 -4 -4 -4 -4 -4 -3 -1 3 18 57 107 103 45 9 -2 -4 -5 -5 -4 -4 1 27 92 
92 27 1 -4 -4 -5 -5 -5 -5 -5 -5 -5 -5 -5 -4 -3 3 33 98 88 25 0 -4 -4 -4 -4 -4 -3 -2 2 10 26 48 77 96 114 121 117 123 119 102 93 88 75 50 33 26 19 9 3 1 0 0 -2 -3 -4 -4 -4 -4 -4 -4 -4 -5 -5 -5 -5 -5 -5 -5 -5 -4 -4 1 28 93 91 26 1 -4 -4 -5 -5 -5 -5 -5 -5 -5 -5 -5 -5 -5 -5 -4 -4 -3 1 18 60 109 83 28 3 -3 -4 -5 -4 -4 1 27 92 
92 27 1 -4 -4 -5 -5 -5 -5 -5 -5 -5 -5 -5 -4 -2 9 50 109 75 19 0 -4 -4 -3 -2 0 3 10 26 50 84 107 109 95 78 52 41 52 76 88 92 98 109 109 97 89 75 50 33 28 25 19 9 3 1 0 -2 -3 -4 -4 -4 -4 -4 -4 -4 -5 -5 -5 -5 -4 -3 3 33 98 87 24 0 -4 -4 -5 -5 -5 -5 -5 -5 -5 -5 -5 -5 -5 -5 -5 -4 -4 -3 3 28 83 109 59 16 0 -4 -4 -4 -4 1 27 92 
92 27 1 -4 -4 -5 -5 -5 -5 -5 -5 -5 -5 -4 -4 0 19 75 109 50 9 -2 -3 -2 1 8 20 32 52 84 108 108 84 52 32 20 9 5 9 19 25 28 33 50 75 89 97 109 109 98 92 87 75 50 33 26 19 9 3 1 0 0 -2 -3 -4 -4 -4 -4 -4 -4 -4 -2 9 50 109 75 19 0 -4 -4 -5 -5 -5 -5 -5 -5 -5 -5 -5 -5 -5 -5 -5 -5 -5 -4 -2 9 45 101 101 45 9 -2 -4 -4 -4 1 27 92 
92 27 1 -4 -4 -5 -5 -5 -5 -5 -5 -5 -5 -4 -4 0 25 87 98 34 4 0 2 10 26 48 77 95 109 107 84 50 26 10 3 0 -2 -3 -2 0 0 1 3 9 19 26 33 50 75 87 92 98 109 109 97 89 75 50 33 28 25 19 9 3 1 0 -2 -3 -4 -4 -3 0 19 75 109 50 9 -2 -4 -5 -5 -5 -5 -5 -5 -5 -5 -5 -5 -5 -5 -5 -5 -5 -5 -4 -4 0 16 59 109 83 28 3 -3 -4 -4 1 27 92 
92 27 1 -4 -4 -5 -5 -5 -5 -5 -5 -5 -5 -4 -4 1 28 92 93 31 8 11 26 50 84 107 109 95 77 48 26 10 2 -2 -3 -4 -4 -4 -4 -4 -4 -4 -3 -2 0 1 3 9 19 25 28 33 50 75 89 97 109 109 98 92 87 75 50 33 26 19 9 3 1 1 0 3 26 88 98 33 3 -3 -4 -5 -5 -5 -5 -5 -5 -5 -5 -5 -5 -5 -5 -5 -5 -5 -5 -5 -4 -3 3 28 83 109 60 18 1 -3 -3 1 27 92 
92 27 1 -4 -4 -5 -5 -5 -5 -5 -5 -5 -5 -4 -3 3 34 100 94 40 32 51 84 108 108 84 52 32 20 8 1 -2 -3 -4 -4 -4 -5 -5 -5 -4 -4 -4 -4 -4 -4 -4 -3 -2 0 0 1 3 9 19 26 33 50 75 87 92 98 109 109 97 89 75 50 33 28 25 20 15 34 95 94 28 1 -4 -4 -5 -5 -5 -5 -5 -5 -5 -5 -5 -5 -5 -5 -5 -5 -5 -5 -5 -5 -4 -2 9 45 101 104 54 15 0 -3 1 27 92 
92 27 1 -4 -4 -5 -5 -5 -5 -5 -5 -5 -5 -4 -2 10 53 120 106 74 88 108 108 84 50 26 10 3 0 -2 -3 -4 -4 -5 -5 -5 -5 -5 -5 -5 -5 -5 -5 -5 -4 -4 -4 -4 -4 -4 -4 -3 -2 0 1 3 9 19 25 28 33 50 75 89 97 109 109 98 92 88 76 55 62 111 94 27 1 -4 -4 -5 -5 -5 -5 -5 -5 -5 -5 -5 -5 -5 -5 -5 -5 -5 -5 -5 -5 -4 -4 0 15 54 104 101 45 9 -1 1 27 92 
92 27 1 -4 -4 -5 -5 -5 -5 -5 -5 -5 -4 -3 2 26 90 149 133 118 108 84 50 26 10 2 -2 -3 -4 -4 -4 -5 -5 -5 -5 -5 -5 -5 -5 -5 -5 -5 -5 -5 -5 -5 -5 -5 -4 -4 -4 -4 -4 -4 -4 -3 -2 0 0 1 3 9 19 26 33 50 75 87 92 98 110 113 118 144 99 27 1 -4 -4 -5 -5 -5 -5 -5 -5 -5 -5 -5 -5 -5 -5 -5 -5 -5 -5 -5 -5 -5 -4 -3 1 18 60 109 83 28 4 3 27 92 
92 27 1 -4 -4 -5 -5 -5 -5 -5 -5 -5 -4 -1 10 51 118 131 103 78 48 26 10 2 -2 -3 -4 -4 -4 -5 -5 -5 -5 -5 -5 -5 -5 -5 -5 -5 -5 -5 -5 -5 -5 -5 -5 -5 -5 -5 -5 -5 -5 -4 -4 -4 -4 -4 -4 -4 -3 -2 0 1 3 9 19 25 28 33 51 80 108 142 98 27 1 -4 -4 -5 -5 -5 -5 -5 -5 -5 -5 -5 -5 -5 -5 -5 -5 -5 -5 -5 -5 -5 -5 -4 -3 3 28 83 109 60 19 7 28 92 
92 27 1 -4 -4 -5 -5 -5 -5 -5 -5 -4 -3 3 28 85 113 69 36 21 9 1 -2 -3 -4 -4 -5 -5 -5 -5 -5 -5 -5 -5 -5 -5 -5 -5 -5 -5 -5 -5 -5 -5 -5 -5 -5 -5 -5 -5 -5 -5 -5 -5 -5 -5 -5 -4 -4 -4 -4 -4 -4 -4 -3 -2 0 0 1 3 10 25 53 109 94 27 1 -4 -4 -5 -5 -5 -5 -5 -5 -5 -5 -5 -5 -5 -5 -5 -5 -5 -5 -5 -5 -5 -5 -5 -4 -2 9 45 101 104 55 21 31 92 
92 27 1 -4 -4 -5 -5 -5 -5 -5 -4 -4 0 16 59 109 84 30 7 0 -2 -3 -4 -4 -5 -5 -5 -5 -5 -5 -5 -5 -5 -5 -5 -5 -5 -5 -5 -5 -5 -5 -5 -5 -5 -5 -5 -5 -5 -5 -5 -5 -5 -5 -5 -5 -5 -5 -5 -5 -5 -5 -4 -4 -4 -4 -4 -4 -4 -3 -1 6 32 95 92 27 1 -4 -4 -5 -5 -5 -5 -5 -5 -5 -5 -5 -5 -5 -5 -5 -5 -5 -5 -5 -5 -5 -5 -5 -4 -4 0 15 54 104 101 51 40 94 
92 27 1 -4 -4 -5 -5 -5 -5 -5 -4 -2 9 45 101 102 45 9 -1 -3 -4 -4 -5 -5 -5 -5 -5 -5 -5 -5 -5 -5 -5 -5 -5 -5 -5 -5 -5 -5 -5 -5 -5 -5 -5 -5 -5 -5 -5 -5 -5 -5 -5 -5 -5 -5 -5 -5 -5 -5 -5 -5 -5 -5 -5 -5 -4 -4 -4 -4 -3 2 27 92 92 27 1 -4 -4 -5 -5 -5 -5 -5 -5 -5 -5 -5 -5 -5 -5 -5 -5 -5 -5 -5 -5 -5 -5 -5 -5 -4 -3 1 18 60 110 89 59 98 
93 27 1 -4 -4 -5 -5 -5 -5 -4 -3 3 28 83 109 59 16 0 -4 -4 -5 -5 -5 -5 -5 -5 -5 -5 -5 -5 -5 -5 -5 -5 -5 -5 -5 -5 -5 -5 -5 -5 -5 -5 -5 -5 -5 -5 -5 -5 -5 -5 -5 -5 -5 -5 -5 -5 -5 -5 -5 -5 -5 -5 -5 -5 -5 -5 -5 -4 -4 1 27 91 93 28 2 -3 -4 -5 -5 -5 -5 -5 -5 -5 -5 -5 -5 -5 -5 -5 -5 -5 -5 -5 -5 -5 -5 -5 -5 -5 -4 -3 3 28 84 113 88 108 
95 27 1 -4 -4 -5 -5 -5 -4 -3 1 18 60 110 84 29 3 -3 -4 -4 -4 -4 -4 -4 -4 -4 -4 -4 -4 -5 -5 -5 -5 -5 -5 -5 -5 -5 -5 -5 -5 -5 -5 -5 -5 -5 -5 -5 -5 -5 -5 -5 -5 -5 -5 -5 -5 -5 -5 -5 -5 -5 -5 -5 -5 -5 -5 -5 -5 -4 -3 2 27 91 101 36 5 -2 -4 -4 -5 -5 -5 -5 -5 -5 -5 -5 -5 -5 -5 -5 -5 -5 -5 -5 -5 -5 -5 -5 -5 -5 -5 -4 -2 9 45 104 124 129 
98 27 1 -4 -4 -5 -5 -4 -3 1 17 56 106 105 51 15 2 -2 -3 -4 -4 -4 -4 -4 -4 -4 -4 -4 -4 -4 -4 -4 -4 -4 -4 -4 -4 -4 -4 -4 -5 -5 -5 -5 -5 -5 -5 -5 -5 -5 -5 -5 -5 -5 -5 -5 -5 -5 -5 -5 -5 -5 -5 -5 -5 -5 -5 -5 -4 -4 -1 6 32 94 123 64 20 3 -1 -3 -4 -4 -5 -5 -5 -5 -5 -5 -5 -5 -5 -5 -5 -5 -5 -5 -5 -5 -5 -5 -5 -5 -5 -4 -4 0 16 60 121 149 
99 27 1 -4 -4 -5 -4 -3 1 17 56 112 125 83 46 29 20 9 3 1 1 1 1 1 1 1 1 0 0 -2 -3 -4 -4 -4 -4 -4 -4 -4 -4 -4 -4 -4 -4 -4 -4 -4 -4 -4 -4 -4 -4 -4 -5 -5 -5 -5 -5 -5 -5 -5 -5 -5 -5 -5 -5 -5 -4 -4 -3 0 9 28 60 114 151 119 62 29 10 2 -2 -4 -4 -5 -5 -5 -5 -5 -5 -5 -5 -5 -5 -5 -5 -5 -5 -5 -5 -5 -5 -5 -5 -5 -4 -3 3 28 90 150 
97 27 1 -4 -4 -4 -3 1 17 56 116 152 135 109 96 88 75 50 33 28 27 27 27 27 27 27 26 24 19 9 3 1 1 1 1 1 1 1 0 0 -2 -3 -4 -4 -4 -4 -4 -4 -4 -4 -4 -4 -4 -4 -4 -4 -4 -4 -4 -4 -4 -4 -4 -5 -4 -4 -3 -1 3 16 45 83 110 119 118 122 113 85 50 26 8 0 -3 -4 -4 -5 -5 -5 -5 -5 -5 -5 -5 -5 -5 -5 -5 -5 -5 -5 -5 -5 -5 -5 -5 -4 -1 10 53 125 
93 27 1 -4 -4 -3 1 17 55 106 122 110 99 94 93 98 109 109 98 93 92 92 92 92 92 91 91 87 75 50 33 28 27 27 27 27 27 26 24 19 9 3 1 1 1 1 1 1 1 1 0 0 -2 -3 -4 -4 -4 -4 -4 -4 -4 -4 -4 -4 -4 -2 2 10 28 59 101 109 85 54 41 54 85 108 108 83 45 16 3 -1 -3 -4 -4 -5 -5 -5 -5 -5 -5 -5 -5 -5 -5 -5 -5 -5 -5 -5 -5 -5 -5 -4 -3 3 34 102 
92 27 1 -3 -3 1 17 55 103 105 63 36 28 27 28 33 50 75 87 91 91 92 92 92 92 92 93 98 109 109 98 93 92 92 92 92 91 91 87 75 50 33 28 27 27 27 27 27 27 26 24 19 9 3 1 1 1 1 1 1 1 0 0 -1 0 9 26 50 85 109 101 59 28 11 6 11 26 50 85 109 101 59 28 10 2 -2 -4 -4 -5 -5 -5 -5 -5 -5 -5 -5 -5 -5 -5 -5 -5 -5 -5 -5 -5 -4 -4 1 28 94 
92 27 2 -1 3 18 55 103 103 56 19 5 2 1 1 3 9 19 24 26 27 27 27 27 27 27 28 33 50 75 87 91 91 92 92 92 92 93 98 109 109 98 93 92 92 92 92 92 91 91 87 75 50 33 28 27 27 27 27 27 26 24 19 12 18 46 83 108 108 83 45 16 3 -1 -3 -1 2 10 28 59 101 109 85 50 26 8 0 -3 -4 -4 -5 -5 -5 -5 -5 -5 -5 -5 -5 -5 -5 -5 -5 -5 -5 -4 -4 1 27 92 
92 28 6 10 28 60 104 103 55 17 1 -2 -3 -4 -4 -3 -2 0 0 1 1 1 1 1 1 1 1 3 9 19 24 26 27 27 27 27 27 28 33 50 75 87 91 91 92 92 92 92 92 93 98 109 109 98 93 92 92 92 92 91 91 88 77 60 69 104 110 85 50 26 8 0 -3 -4 -4 -4 -3 -1 3 16 45 83 108 108 83 45 16 3 -1 -3 -4 -4 -5 -5 -5 -5 -5 -5 -5 -5 -5 -5 -5 -5 -5 -4 -4 1 27 92 
93 32 21 46 84 109 101 54 17 1 -3 -4 -4 -4 -4 -4 -4 -4 -4 -4 -4 -4 -4 -4 -4 -4 -4 -3 -2 0 0 1 1 1 1 1 1 1 3 9 19 24 26 27 27 27 27 27 27 28 33 50 75 87 91 91 92 92 92 92 93 100 117 131 133 109 61 28 10 2 -2 -4 -4 -5 -5 -5 -4 -4 -3 0 8 26 50 85 109 101 59 28 10 2 -2 -4 -4 -5 -5 -5 -5 -5 -5 -5 -5 -5 -5 -5 -5 -4 -4 1 27 92 
97 48 60 101 109 83 45 15 0 -3 -4 -5 -5 -5 -5 -5 -5 -4 -4 -4 -4 -4 -4 -4 -4 -4 -4 -4 -4 -4 -4 -4 -4 -4 -4 -4 -4 -4 -3 -2 0 0 1 1 1 1 1 1 1 1 3 9 19 24 26 27 27 27 27 27 29 38 72 134 133 65 20 3 -1 -3 -4 -4 -5 -5 -5 -5 -5 -5 -4 -4 -2 2 10 28 59 101 109 85 50 26 8 0 -3 -4 -4 -5 -5 -5 -5 -5 -5 -5 -5 -5 -5 -4 -4 1 27 92 
109 84 108 104 60 28 9 0 -3 -4 -5 -5 -5 -5 -5 -5 -5 -5 -5 -5 -5 -5 -5 -5 -5 -5 -5 -5 -5 -4 -4 -4 -4 -4 -4 -4 -4 -4 -4 -4 -4 -4 -4 -4 -4 -4 -4 -4 -4 -4 -3 -2 0 0 1 1 1 1 1 1 2 9 38 106 105 37 5 -2 -4 -4 -5 -5 -5 -5 -5 -5 -5 -5 -5 -4 -4 -3 -1 3 16 45 83 108 108 83 45 16 3 -1 -3 -4 -4 -5 -5 -5 -5 -5 -5 -5 -5 -4 -4 1 27 93 
135 125 106 56 18 3 -2 -4 -4 -5 -5 -5 -5 -5 -5 -5 -5 -5 -5 -5 -5 -5 -5 -5 -5 -5 -5 -5 -5 -5 -5 -5 -5 -5 -5 -5 -5 -5 -5 -5 -4 -4 -4 -4 -4 -4 -4 -4 -4 -4 -4 -4 -4 -4 -4 -4 -4 -4 -4 -3 -3 2 29 94 94 28 2 -3 -4 -5 -5 -5 -5 -5 -5 -5 -5 -5 -5 -5 -5 -4 -4 -3 0 8 26 50 85 109 101 59 28 10 2 -2 -3 -4 -4 -5 -5 -5 -5 -5 -5 -4 -4 1 27 96 
153 114 56 17 1 -3 -4 -4 -5 -5 -5 -5 -5 -5 -5 -5 -5 -5 -5 -5 -5 -5 -5 -5 -5 -5 -5 -5 -5 -5 -5 -5 -5 -5 -5 -5 -5 -5 -5 -5 -5 -5 -5 -5 -5 -5 -5 -5 -5 -5 -5 -5 -4 -4 -4 -4 -4 -4 -4 -4 -3 1 27 92 92 27 1 -4 -4 -5 -5 -5 -5 -5 -5 -5 -5 -5 -5 -5 -5 -5 -5 -4 -4 -2 2 10 28 59 101 109 85 50 26 10 2 -2 -4 -4 -5 -5 -5 -5 -5 -4 -4 1 27 99 
129 64 19 1 -3 -4 -5 -5 -5 -5 -5 -5 -5 -5 -5 -5 -5 -5 -5 -5 -5 -5 -5 -5 -5 -5 -5 -5 -5 -5 -5 -5 -5 -5 -5 -5 -5 -5 -5 -5 -5 -5 -5 -5 -5 -5 -5 -5 -5 -5 -5 -5 -5 -5 -5 -5 -5 -5 -5 -4 -4 1 27 92 92 27 1 -4 -4 -5 -5 -5 -5 -5 -5 -5 -5 -5 -5 -5 -5 -5 -5 -5 -4 -4 -3 -1 3 16 45 83 108 108 84 50 26 8 0 -3 -4 -4 -4 -4 -5 -4 -4 1 27 97 
103 36 5 -2 -4 -5 -5 -5 -5 -5 -5 -5 -5 -5 -5 -5 -5 -5 -5 -5 -5 -5 -5 -5 -5 -5 -5 -5 -5 -5 -5 -5 -5 -5 -5 -5 -5 -5 -5 -5 -5 -5 -5 -5 -5 -5 -5 -5 -5 -5 -5 -5 -5 -5 -5 -5 -5 -5 -5 -4 -4 1 27 92 92 27 1 -4 -4 -5 -5 -5 -5 -5 -5 -5 -5 -5 -5 -5 -5 -5 -5 -5 -5 -5 -4 -4 -3 0 8 26 50 84 108 108 83 45 16 3 -1 -3 -4 -4 -4 -4 -3 1 27 93 
94 28 2 -3 -4 -5 -5 -5 -5 -5 -5 -5 -5 -5 -5 -5 -5 -5 -5 -5 -5 -5 -5 -5 -5 -5 -5 -5 -5 -5 -5 -5 -5 -5 -5 -5 -5 -5 -5 -5 -5 -5 -5 -5 -5 -5 -5 -5 -5 -5 -5 -5 -5 -5 -5 -5 -5 -5 -5 -4 -4 1 27 92 92 27 1 -4 -4 -5 -5 -5 -5 -5 -5 -5 -5 -5 -5 -5 -5 -5 -5 -5 -5 -5 -5 -5 -4 -4 -2 2 10 26 50 85 110 102 59 28 10 3 1 0 -2 -3 -3 2 27 92 
92 27 1 -4 -4 -5 -5 -5 -5 -5 -5 -5 -5 -5 -5 -5 -5 -5 -5 -5 -5 -5 -5 -5 -5 -5 -5 -5 -5 -5 -5 -5 -5 -5 -5 -5 -5 -5 -5 -5 -5 -5 -5 -5 -5 -5 -5 -5 -5 -5 -5 -5 -5 -5 -5 -5 -5 -5 -5 -4 -4 1 27 92 92 27 1 -4 -4 -5 -5 -5 -5 -5 -5 -5 -5 -5 -5 -5 -5 -5 -5 -5 -5 -5 -5 -5 -5 -4 -4 -3 -1 2 11 30 62 107 115 89 53 34 26 19 9 3 2 6 29 93 
92 27 1 -3 -4 -4 -4 -4 -4 -5 -5 -5 -5 -5 -5 -5 -5 -5 -5 -5 -5 -5 -5 -5 -5 -5 -5 -5 -5 -5 -5 -5 -5 -5 -5 -5 -5 -5 -5 -5 -5 -5 -5 -5 -5 -5 -5 -5 -5 -5 -5 -5 -5 -5 -5 -5 -5 -5 -5 -4 -4 1 27 92 92 27 1 -4 -4 -5 -5 -5 -5 -5 -5 -5 -5 -5 -5 -5 -5 -5 -5 -5 -5 -5 -5 -5 -5 -4 -4 -4 -3 -1 3 11 31 74 125 149 127 102 89 75 50 33 27 25 40 97 
95 28 2 -3 -3 -4 -4 -4 -4 -4 -4 -4 -4 -4 -4 -4 -4 -5 -5 -5 -5 -5 -5 -5 -5 -5 -5 -5 -5 -5 -5 -5 -5 -5 -5 -5 -5 -5 -5 -5 -5 -5 -5 -5 -5 -5 -5 -5 -5 -5 -5 -5 -5 -5 -5 -5 -5 -5 -5 -4 -4 1 27 92 92 27 1 -4 -4 -5 -5 -5 -5 -5 -5 -5 -5 -5 -5 -5 -5 -5 -5 -5 -5 -5 -5 -4 -4 -4 -3 -2 1 9 21 33 56 96 127 127 108 97 99 109 109 98 90 81 77 115 
103 33 7 2 1 1 1 0 0 -2 -3 -4 -4 -4 -4 -4 -4 -4 -4 -4 -4 -4 -4 -4 -4 -4 -5 -5 -5 -5 -5 -5 -5 -5 -5 -5 -5 -5 -5 -5 -5 -5 -5 -5 -5 -5 -5 -5 -5 -5 -5 -5 -5 -5 -5 -5 -5 -5 -5 -4 -4 1 27 92 92 27 1 -4 -4 -5 -5 -5 -5 -5 -5 -5 -5 -5 -5 -5 -5 -5 -5 -5 -4 -4 -4 -3 -2 0 3 10 26 48 77 95 110 109 85 53 34 29 34 50 75 89 98 113 128 148 
117 56 32 28 27 27 26 24 19 9 3 1 1 1 1 0 0 -2 -3 -4 -4 -4 -4 -4 -4 -4 -4 -4 -4 -4 -4 -4 -4 -4 -5 -5 -5 -5 -5 -5 -5 -5 -5 -5 -5 -5 -5 -5 -5 -5 -5 -5 -5 -5 -5 -5 -5 -5 -5 -4 -4 1 27 92 92 27 1 -4 -4 -5 -5 -5 -5 -5 -5 -5 -5 -5 -5 -5 -5 -5 -4 -4 -4 -3 -2 1 8 20 32 52 84 107 109 95 77 48 26 10 3 2 3 9 19 26 34 54 97 143 
146 112 96 92 92 91 91 87 75 50 33 28 27 27 26 24 19 9 3 1 1 1 1 1 0 0 -2 -3 -4 -4 -4 -4 -4 -4 -4 -4 -4 -4 -4 -4 -4 -4 -4 -5 -5 -5 -5 -5 -5 -5 -5 -5 -5 -5 -5 -5 -5 -5 -5 -4 -4 1 27 92 92 27 1 -4 -4 -5 -5 -5 -5 -5 -5 -5 -5 -5 -5 -5 -4 -4 -3 -2 0 3 10 26 48 77 95 109 107 84 52 32 20 8 1 -2 -3 -3 -3 -2 0 1 4 15 48 115 
144 112 96 92 92 92 93 98 109 109 98 93 92 91 91 87 75 50 33 28 27 27 27 26 24 19 9 3 1 1 1 1 0 0 -2 -3 -4 -4 -4 -4 -4 -4 -4 -4 -4 -4 -4 -4 -4 -4 -4 -5 -5 -5 -5 -5 -5 -5 -5 -4 -4 1 27 92 92 27 1 -4 -4 -5 -5 -5 -5 -5 -5 -5 -5 -4 -4 -4 -3 -2 1 8 20 32 52 84 107 109 95 77 48 26 10 3 0 -2 -3 -4 -4 -4 -4 -4 -4 -3 -2 3 31 102 
110 55 33 28 27 27 28 33 50 75 87 91 91 92 93 98 109 109 98 93 92 92 91 91 87 75 50 33 28 27 27 26 24 19 9 3 1 1 1 1 1 0 0 -2 -3 -4 -4 -4 -4 -4 -4 -4 -4 -4 -4 -4 -4 -4 -4 -4 -4 1 27 92 92 27 1 -4 -4 -5 -5 -5 -5 -5 -5 -4 -4 -4 -3 -2 2 10 26 48 77 95 109 107 84 52 32 20 8 1 -2 -3 -4 -4 -4 -5 -5 -5 -5 -5 -4 -4 -3 1 27 95 
95 32 7 2 1 1 1 3 9 19 24 26 27 27 28 33 50 75 87 91 91 92 92 93 98 109 109 98 93 92 91 91 87 75 50 33 28 27 27 27 26 24 19 9 3 1 1 1 1 0 0 -2 -3 -4 -4 -4 -4 -4 -4 -4 -3 1 27 92 92 27 1 -4 -4 -5 -5 -5 -4 -4 -4 -3 -2 0 3 10 26 50 84 107 109 95 77 48 26 10 3 0 -2 -3 -4 -4 -4 -5 -5 -5 -5 -5 -5 -5 -5 -4 -4 1 27 92 
92 28 2 -3 -3 -4 -4 -3 -2 0 0 1 1 1 1 3 9 19 24 26 27 27 27 28 33 50 75 87 91 91 92 93 98 109 109 98 93 92 92 91 91 87 75 50 33 28 27 27 26 24 19 9 3 1 1 1 1 1 0 0 -1 2 28 92 92 27 1 -4 -4 -5 -4 -4 -4 -3 -2 1 8 20 32 52 84 108 108 84 52 32 20 8 1 -2 -3 -4 -4 -4 -5 -5 -5 -5 -5 -5 -5 -5 -5 -5 -5 -4 -4 1 27 92 
92 27 1 -3 -4 -4 -4 -4 -4 -4 -4 -4 -4 -4 -4 -3 -2 0 0 1 1 1 1 1 3 9 19 24 26 27 27 28 33 50 75 87 91 91 92 92 93 98 109 109 98 93 92 91 91 87 75 50 33 28 27 27 27 26 24 19 10 9 33 96 94 28 2 -3 -4 -4 -3 -2 0 3 10 26 48 77 95 109 107 84 50 26 10 3 0 -2 -3 -4 -4 -4 -5 -5 -5 -5 -5 -5 -5 -5 -5 -5 -5 -5 -5 -4 -4 1 27 92 
92 27 1 -4 -4 -5 -5 -5 -5 -4 -4 -4 -4 -4 -4 -4 -4 -4 -4 -4 -4 -4 -4 -4 -3 -2 0 0 1 1 1 1 3 9 19 24 26 27 27 27 28 33 50 75 87 91 91 92 93 98 109 109 98 93 92 92 91 91 87 75 51 39 57 112 106 37 5 -2 -3 -2 1 8 20 32 52 84 107 109 95 77 48 26 10 2 -2 -3 -4 -4 -4 -5 -5 -5 -5 -5 -5 -5 -5 -5 -5 -5 -5 -5 -5 -5 -5 -4 -4 1 27 92 
92 27 1 -4 -4 -5 -5 -5 -5 -5 -5 -5 -5 -5 -5 -5 -5 -4 -4 -4 -4 -4 -4 -4 -4 -4 -4 -4 -4 -4 -4 -4 -3 -2 0 0 1 1 1 1 1 3 9 19 24 26 27 27 28 33 50 75 87 91 91 92 92 93 98 109 110 102 111 144 133 65 21 6 4 10 26 48 77 95 109 107 84 52 32 20 8 1 -2 -3 -4 -4 -4 -5 -5 -5 -5 -5 -5 -5 -5 -5 -5 -5 -5 -5 -5 -5 -5 -5 -5 -4 -4 1 27 92 
92 27 1 -4 -4 -5 -5 -5 -5 -5 -5 -5 -5 -5 -5 -5 -5 -5 -5 -5 -5 -5 -5 -5 -5 -5 -4 -4 -4 -4 -4 -4 -4 -4 -4 -4 -4 -4 -4 -4 -4 -3 -2 0 0 1 1 1 1 3 9 19 24 26 27 27 27 28 33 50 75 88 96 110 125 110 64 38 36 52 84 107 109 95 77 48 26 10 3 0 -2 -3 -4 -4 -5 -5 -5 -5 -5 -5 -5 -5 -5 -5 -5 -5 -5 -5 -5 -5 -5 -5 -5 -5 -5 -4 -4 1 27 92 
92 27 1 -4 -4 -5 -5 -5 -5 -5 -5 -5 -5 -5 -5 -5 -5 -5 -5 -5 -5 -5 -5 -5 -5 -5 -5 -5 -5 -5 -5 -5 -5 -5 -4 -4 -4 -4 -4 -4 -4 -4 -4 -4 -4 -4 -4 -4 -4 -3 -2 0 0 1 1 1 1 1 3 9 19 25 28 37 64 110 126 111 104 111 108 84 52 32 20 8 1 -2 -3 -4 -4 -4 -5 -5 -5 -5 -5 -5 -5 -5 -5 -5 -5 -5 -5 -5 -5 -5 -5 -5 -5 -5 -5 -5 -5 -4 -4 1 27 92 
92 27 1 -4 -4 -5 -5 -5 -5 -5 -5 -5 -5 -5 -5 -5 -5 -5 -5 -5 -5 -5 -5 -5 -5 -5 -5 -5 -5 -5 -5 -5 -5 -5 -5 -5 -5 -5 -5 -5 -5 -5 -5 -4 -4 -4 -4 -4 -4 -4 -4 -4 -4 -4 -4 -4 -4 -4 -3 -2 0 0 2 5 20 65 133 143 106 79 48 26 10 3 0 -2 -3 -4 -4 -4 -5 -5 -5 -5 -5 -5 -5 -5 -5 -5 -5 -5 -5 -5 -5 -5 -5 -5 -5 -5 -5 -5 -5 -5 -5 -4 -4 1 27 92 
92 27 1 -3 -4 -4 -4 -4 -4 -4 -4 -4 -4 -4 -4 -4 -4 -4 -4 -4 -4 -4 -4 -4 -4 -4 -4 -4 -4 -4 -4 -4 -4 -4 -4 -4 -4 -4 -4 -4 -4 -4 -4 -4 -4 -4 -4 -4 -4 -4 -4 -4 -4 -4 -4 -4 -4 -4 -4 -4 -4 -4 -3 -2 5 37 106 111 53 25 9 2 -1 -3 -4 -4 -4 -4 -4 -4 -4 -4 -4 -4 -4 -4 -4 -4 -4 -4 -4 -4 -4 -4 -4 -4 -4 -4 -4 -4 -4 -4 -4 -4 -4 -4 -3 1 27 92 
92 28 2 -3 -3 -4 -4 -4 -4 -4 -4 -4 -4 -4 -4 -4 -4 -4 -4 -4 -4 -4 -4 -4 -4 -4 -4 -4 -4 -4 -4 -4 -4 -4 -4 -4 -4 -4 -4 -4 -4 -4 -4 -4 -4 -4 -4 -4 -4 -4 -4 -4 -4 -4 -4 -4 -4 -4 -4 -4 -4 -3 -3 -2 3 29 95 96 33 6 0 -2 -3 -3 -4 -4 -4 -4 -4 -4 -4 -4 -4 -4 -4 -4 -4 -4 -4 -4 -4 -4 -4 -4 -4 -4 -4 -4 -4 -4 -4 -4 -4 -4 -4 -4 -3 2 28 92 
96 32 7 2 1 1 1 1 1 1 1 1 1 1 1 1 1 1 1 1 1 1 1 1 1 1 1 1 1 1 1 1 1 1 1 1 1 1 1 1 1 1 1 1 1 1 1 1 1 1 1 1 1 1 1 1 1 1 1 1 1 1 1 2 7 33 96 97 33 8 2 1 1 1 1 1 1 1 1 1 1 1 1 1 1 1 1 1 1 1 1 1 1 1 1 1 1 1 1 1 1 1 1 1 1 1 2 7 32 96 
112 56 32 28 27 27 27 27 27 27 27 27 27 27 27 27 27 27 27 27 27 27 27 27 27 27 27 27 27 27 27 27 27 27 27 27 27 27 27 27 27 27 27 27 27 27 27 27 27 27 27 27 27 27 27 27 27 27 27 27 27 27 27 28 32 56 112 112 56 33 28 27 27 27 27 27 27 27 27 27 27 27 27 27 27 27 27 27 27 27 27 27 27 27 27 27 27 27 27 27 27 27 27 27 27 27 27 32 56 112 
152 112 96 92 92 92 92 92 92 92 92 92 92 92 92 92 92 92 92 92 92 92 92 92 92 92 92 92 92 92 92 93 96 99 97 93 92 92 92 92 92 92 92 92 92 92 92 92 94 98 98 94 92 92 92 92 92 92 92 92 92 92 92 92 95 110 143 143 110 95 92 92 92 92 92 92 92 92 92 92 92 92 92 92 92 92 92 92 92 92 93 96 99 97 93 92 92 92 92 92 92 92 93 96 99 97 94 96 113 152 
