P2
110 110
255
153 114 97 93 92 92 92 92 92 92 92 92 92 92 92 92 92 92 92 92 92 92 92 92 92 92 92 92 92 93 97 109 135 152 129 104 95 93 92 92 92 92 92 92 92 92 93 96 111 144 143 111 96 93 92 92 92 92 92 92 92 92 92 92 93 95 99 99 95 93 92 92 92 92 92 92 92 92 92 92 92 92 92 92 92 92 92 92 93 95 104 130 152 130 104 95 93 92 92 92 93 94 103 128 152 131 105 100 114 153 
114 58 35 29 28 28 28 28 28 28 28 28 28 28 28 28 28 28 28 28 28 28 28 28 28 28 28 28 29 32 43 78 124 116 67 39 30 29 28 28 28 28 28 28 28 28 29 35 60 116 114 58 35 29 28 28 28 28 28 28 28 28 28 28 28 28 28 28 28 28 28 28 28 28 28 28 28 28 28 28 28 28 28 28 28 28 28 29 30 36 59 111 123 72 40 31 29 28 28 28 29 33 53 103 126 75 42 37 59 114 
97 35 9 3 2 2 2 2 2 2 2 2 2 2 2 2 2 2 2 2 2 2 2 2 2 2 2 2 4 11 36 90 112 63 22 6 3 2 2 2 2 2 2 2 2 2 3 11 42 107 99 35 9 3 2 2 2 2 2 2 2 2 2 2 2 2 2 2 2 2 2 2 2 2 2 2 2 2 2 2 2 2 2 2 2 2 2 2 5 17 56 112 88 32 9 3 2 2 2 2 3 9 34 95 101 40 12 10 35 97 
93 29 3 -2 -3 -3 -3 -3 -3 -3 -3 -3 -3 -3 -3 -3 -3 -3 -3 -3 -3 -3 -3 -3 -3 -3 -3 -2 1 18 62 110 84 30 5 -2 -3 -3 -3 -3 -3 -3 -3 -3 -3 -3 0 13 56 126 98 29 3 -2 -3 -3 -3 -3 -3 -3 -3 -3 -3 -3 -3 -3 -3 -3 -3 -3 -3 -3 -3 -3 -3 -3 -3 -3 -3 -3 -3 -3 -3 -3 -3 -3 -3 -2 1 23 78 110 54 12 0 -3 -3 -3 -3 -3 -2 5 36 99 90 28 4 4 30 93 
92 28 2 -3 -4 -4 -4 -4 -4 -4 -4 -4 -4 -4 -4 -4 -4 -4 -4 -4 -4 -4 -4 -4 -4 -4 -4 -1 10 47 102 102 47 10 -1 -4 -4 -4 -4 -4 -4 -4 -4 -4 -4 -3 3 28 90 149 100 28 2 -3 -4 -4 -4 -4 -4 -4 -4 -4 -4 -4 -4 -4 -4 -4 -4 -4 -4 -4 -4 -4 -4 -4 -4 -4 -4 -4 -4 -4 -4 -4 -4 -4 -4 -3 4 34 95 95 34 4 -3 -4 -4 -4 -4 -4 -1 10 52 109 76 20 1 3 29 92 
92 28 2 -3 -4 -4 -4 -4 -4 -4 -4 -4 -4 -4 -4 -4 -4 -4 -4 -4 -4 -4 -4 -4 -4 -4 -3 4 30 84 109 61 17 0 -3 -4 -4 -4 -4 -4 -4 -4 -4 -4 -4 -1 11 52 119 149 99 28 2 -3 -4 -4 -4 -4 -4 -4 -4 -4 -4 -4 -4 -4 -4 -4 -4 -4 -4 -4 -4 -4 -4 -4 -4 -4 -4 -4 -4 -4 -4 -4 -4 -4 -4 -1 12 54 109 77 21 0 -3 -4 -4 -4 -4 -4 0 20 76 109 52 10 0 2 28 92 
92 28 2 -3 -4 -4 -4 -4 -4 -4 -4 -4 -4 -4 -4 -4 -4 -4 -4 -4 -4 -4 -4 -4 -4 -3 0 17 61 109 84 30 4 -3 -4 -4 -4 -4 -4 -4 -4 -4 -4 -4 -3 3 28 86 128 133 98 30 2 -3 -4 -4 -4 -4 -4 -4 -4 -4 -4 -4 -4 -4 -4 -4 -4 -4 -4 -4 -4 -4 -4 -4 -4 -4 -4 -4 -4 -4 -4 -4 -4 -4 -3 2 27 85 107 50 10 -1 -4 -4 -4 -4 -4 -3 2 27 89 98 35 4 -2 2 28 92 
92 28 2 -3 -4 -4 -4 -4 -4 -4 -4 -4 -4 -4 -4 -4 -4 -4 -4 -4 -4 -4 -4 -4 -4 -1 10 47 101 101 47 10 -1 -4 -4 -4 -4 -4 -4 -4 -4 -4 -4 -4 -1 11 52 110 110 114 101 36 4 -3 -4 -4 -4 -4 -4 -4 -4 -4 -4 -4 -4 -4 -4 -4 -4 -4 -4 -4 -4 -4 -4 -4 -4 -4 -4 -4 -4 -4 -4 -4 -4 -4 -1 10 50 107 85 27 2 -3 -4 -4 -4 -4 -4 -3 4 35 98 89 27 2 -2 2 28 92 
92 28 2 -3 -4 -4 -4 -4 -4 -4 -4 -4 -4 -4 -4 -4 -4 -4 -4 -4 -4 -4 -4 -4 -3 4 30 84 109 61 17 0 -3 -4 -4 -4 -4 -4 -4 -4 -4 -4 -4 -3 4 30 86 111 75 90 111 52 10 -1 -4 -4 -4 -4 -4 -4 -4 -4 -4 -4 -4 -4 -4 -4 -4 -4 -4 -4 -4 -4 -4 -4 -4 -4 -4 -4 -4 -4 -4 -4 -4 -3 0 21 77 109 54 11 -1 -4 -4 -4 -4 -4 -4 -1 10 52 109 76 20 0 -2 2 28 92 
92 28 2 -3 -4 -4 -4 -4 -4 -4 -4 -4 -4 -4 -4 -4 -4 -4 -4 -4 -4 -4 -4 -3 0 17 61 109 84 30 4 -3 -4 -4 -4 -4 -4 -4 -4 -4 -4 -4 -3 0 17 61 109 86 42 59 110 76 20 0 -4 -4 -4 -4 -4 -4 -4 -4 -4 -4 -4 -4 -4 -4 -4 -4 -4 -4 -4 -4 -4 -4 -4 -4 -4 -4 -4 -4 -4 -4 -4 -3 4 34 95 95 34 4 -3 -4 -4 -4 -4 -4 -4 0 20 76 109 52 10 -1 -3 2 28 92 
92 28 2 -3 -4 -4 -4 -4 -4 -4 -4 -4 -4 -4 -4 -4 -4 -4 -4 -4 -4 -4 -4 -1 10 47 101 101 47 10 -1 -4 -4 -4 -4 -4 -4 -4 -4 -4 -4 -4 -1 10 47 101 102 48 19 39 99 88 26 1 -3 -4 -4 -4 -4 -4 -4 -4 -4 -4 -4 -4 -4 -4 -4 -4 -4 -4 -4 -4 -4 -4 -4 -4 -4 -4 -4 -4 -4 -4 -4 -1 11 54 109 77 21 0 -3 -4 -4 -4 -4 -4 -3 2 27 89 98 35 4 -3 -3 2 28 92 
93 29 2 -3 -4 -4 -4 -4 -4 -4 -4 -4 -4 -4 -4 -4 -4 -4 -4 -4 -4 -4 -3 4 30 84 109 61 17 0 -3 -4 -4 -4 -4 -4 -4 -4 -4 -4 -4 -3 2 27 83 109 61 19 8 31 94 91 28 2 -3 -4 -4 -4 -4 -4 -4 -4 -4 -4 -4 -4 -4 -4 -4 -4 -4 -4 -4 -4 -4 -4 -4 -4 -4 -4 -4 -4 -4 -4 -3 2 27 85 107 50 10 -1 -4 -4 -4 -4 -4 -4 -3 4 35 98 89 27 2 -3 -3 2 28 92 
95 30 3 -3 -4 -4 -4 -4 -4 -4 -4 -4 -4 -4 -4 -4 -4 -4 -4 -4 -4 -3 0 17 61 109 84 30 4 -3 -4 -4 -4 -4 -4 -4 -4 -4 -4 -4 -4 -1 11 52 108 85 30 5 4 29 92 92 29 2 -3 -4 -4 -4 -4 -4 -4 -4 -4 -4 -4 -4 -4 -4 -4 -4 -4 -4 -4 -4 -4 -4 -4 -4 -4 -4 -4 -4 -4 -4 -1 10 50 107 85 27 2 -3 -4 -4 -4 -4 -4 -4 -1 10 52 109 76 20 0 -3 -3 2 28 93 
104 39 6 -2 -4 -4 -4 -4 -4 -4 -4 -4 -4 -4 -4 -4 -4 -4 -4 -4 -4 -1 10 47 101 101 47 10 -1 -4 -4 -4 -4 -4 -4 -4 -4 -4 -4 -4 -3 3 28 85 108 52 12 0 2 28 91 94 30 2 -3 -4 -4 -4 -4 -4 -4 -4 -4 -4 -4 -4 -4 -4 -4 -4 -4 -4 -4 -4 -4 -4 -4 -4 -4 -4 -4 -4 -4 -3 0 21 77 109 54 11 -1 -4 -4 -4 -4 -4 -4 -4 0 20 76 109 52 10 -1 -4 -3 2 28 94 
129 66 20 2 -3 -4 -4 -4 -4 -4 -4 -4 -4 -4 -4 -4 -4 -4 -4 -4 -3 4 30 84 109 61 17 0 -3 -4 -4 -4 -4 -4 -4 -4 -4 -4 -4 -4 -1 12 52 108 85 28 3 -2 1 26 88 99 36 4 -3 -4 -4 -4 -4 -4 -4 -4 -4 -4 -4 -4 -4 -4 -4 -4 -4 -4 -4 -4 -4 -4 -4 -4 -4 -4 -4 -4 -4 -3 4 34 95 95 34 4 -3 -4 -4 -4 -4 -4 -4 -3 2 27 89 98 35 4 -3 -4 -3 2 28 98 
152 115 58 18 1 -3 -4 -4 -4 -4 -4 -4 -4 -4 -4 -4 -4 -4 -4 -3 0 17 61 109 84 30 4 -3 -4 -4 -4 -4 -4 -4 -4 -4 -4 -4 -4 -3 4 30 85 108 52 11 -1 -3 0 20 76 109 52 10 -1 -4 -4 -4 -4 -4 -4 -4 -4 -4 -4 -4 -4 -4 -4 -4 -4 -4 -4 -4 -4 -4 -4 -4 -4 -4 -4 -4 -4 -1 11 54 109 77 21 0 -3 -4 -4 -4 -4 -4 -4 -3 4 35 98 89 27 2 -3 -4 -3 2 28 100 
136 126 106 56 16 0 -3 -4 -4 -4 -4 -4 -4 -4 -4 -4 -4 -4 -4 -1 10 47 101 101 47 10 -1 -4 -4 -4 -4 -4 -4 -4 -4 -4 -4 -4 -3 0 17 61 109 83 27 2 -3 -4 -1 10 52 109 76 20 0 -4 -4 -4 -4 -4 -4 -4 -4 -4 -4 -4 -4 -4 -4 -4 -4 -4 -4 -4 -4 -4 -4 -4 -4 -4 -4 -4 -3 2 27 85 107 50 10 -1 -4 -4 -4 -4 -4 -4 -4 -1 10 52 109 76 20 0 -4 -4 -3 2 28 97 
111 88 109 101 46 10 -1 -4 -4 -4 -4 -4 -4 -4 -4 -4 -4 -4 -3 4 30 84 109 61 17 0 -3 -4 -4 -4 -4 -4 -4 -4 -4 -4 -4 -4 -1 10 47 101 101 47 10 -1 -4 -4 -3 4 36 99 88 26 1 -3 -4 -4 -4 -4 -4 -4 -4 -4 -4 -4 -4 -4 -4 -4 -4 -4 -4 -4 -4 -4 -4 -4 -4 -4 -4 -4 -1 10 50 107 85 27 2 -3 -4 -4 -4 -4 -4 -4 -4 0 20 76 109 52 10 -1 -4 -4 -3 2 28 94 
98 53 68 110 84 30 4 -2 -4 -4 -4 -4 -4 -4 -4 -4 -4 -3 0 17 61 109 84 30 4 -3 -4 -4 -4 -4 -4 -4 -4 -4 -4 -4 -4 -3 2 27 83 109 61 17 0 -3 -4 -4 -3 2 30 94 91 28 2 -3 -4 -4 -4 -4 -4 -4 -4 -4 -4 -4 -4 -4 -4 -4 -4 -4 -4 -4 -4 -4 -4 -4 -4 -4 -4 -3 0 21 77 109 54 11 -1 -4 -4 -4 -4 -4 -4 -4 -3 2 27 89 98 35 4 -3 -4 -4 -3 2 28 93 
94 38 37 85 109 62 20 2 -3 -4 -4 -4 -4 -4 -4 -4 -4 -1 10 47 101 101 47 10 -1 -4 -4 -4 -4 -4 -4 -4 -4 -4 -4 -4 -4 -1 11 52 108 85 30 4 -3 -4 -4 -4 -3 2 29 92 92 29 2 -3 -4 -4 -4 -4 -4 -4 -4 -4 -4 -4 -4 -4 -4 -4 -4 -4 -4 -4 -4 -4 -4 -4 -4 -4 -4 -3 4 34 95 95 34 4 -3 -4 -4 -4 -4 -4 -4 -4 -3 4 35 98 89 27 2 -3 -4 -4 -3 2 28 92 
93 32 17 47 101 104 57 19 2 -3 -4 -4 -4 -4 -4 -4 -3 4 30 84 109 61 17 0 -3 -4 -4 -4 -4 -4 -4 -4 -4 -4 -4 -4 -3 3 28 85 108 52 12 -1 -4 -4 -4 -4 -3 2 28 91 94 30 2 -3 -4 -4 -4 -4 -4 -4 -4 -4 -4 -4 -4 -4 -4 -4 -4 -4 -4 -4 -4 -4 -4 -4 -4 -4 -4 -1 11 54 109 77 21 0 -3 -4 -4 -4 -4 -4 -4 -4 -1 10 52 109 76 20 0 -4 -4 -4 -3 2 28 92 
92 29 7 17 56 103 103 57 19 2 -3 -4 -4 -4 -4 -3 0 17 61 109 84 30 4 -3 -4 -4 -4 -4 -4 -4 -4 -4 -4 -4 -4 -4 -1 12 52 108 85 28 3 -3 -4 -4 -4 -4 -3 1 26 88 99 36 4 -3 -4 -4 -4 -4 -4 -4 -4 -4 -4 -4 -4 -4 -4 -4 -4 -4 -4 -4 -4 -4 -4 -4 -4 -4 -3 2 27 85 107 50 10 -1 -4 -4 -4 -4 -4 -4 -4 -4 0 20 76 109 52 10 -1 -4 -4 -4 -3 2 28 92 
92 29 3 2 18 57 103 103 57 19 2 -3 -4 -4 -4 -1 10 47 101 101 47 10 -1 -4 -4 -4 -4 -4 -4 -4 -4 -4 -4 -4 -4 -3 4 30 85 108 52 11 -1 -4 -4 -4 -4 -4 -4 0 20 76 109 52 10 -1 -4 -4 -4 -4 -4 -4 -4 -4 -4 -4 -4 -4 -4 -4 -4 -4 -4 -4 -4 -4 -4 -4 -4 -4 -1 10 50 107 85 27 2 -3 -4 -4 -4 -4 -4 -4 -4 -3 2 27 89 98 35 4 -3 -4 -4 -4 -3 2 28 92 
92 28 2 -2 2 19 57 103 103 57 19 2 -3 -4 -2 4 30 84 109 61 17 0 -3 -4 -4 -4 -4 -4 -4 -4 -4 -4 -4 -4 -3 0 17 61 109 83 27 2 -3 -4 -4 -4 -4 -4 -4 -1 10 52 109 76 20 0 -4 -4 -4 -4 -4 -4 -4 -4 -4 -4 -4 -4 -4 -4 -4 -4 -4 -4 -4 -4 -4 -4 -4 -3 0 21 77 109 54 11 -1 -4 -4 -4 -4 -4 -4 -4 -4 -3 4 35 98 89 27 2 -3 -4 -4 -4 -3 2 28 92 
92 28 2 -3 -3 2 19 57 103 103 57 19 2 -2 1 17 61 109 84 30 4 -3 -4 -4 -4 -4 -4 -4 -4 -4 -4 -4 -4 -4 -1 10 47 101 101 47 10 -1 -4 -4 -4 -4 -4 -4 -4 -3 4 36 99 88 26 1 -3 -4 -4 -4 -4 -4 -4 -4 -4 -4 -4 -4 -4 -4 -4 -4 -4 -4 -4 -4 -4 -4 -4 -3 4 34 95 95 34 4 -3 -4 -4 -4 -4 -4 -4 -4 -4 -1 10 52 109 76 20 0 -4 -4 -4 -4 -3 2 28 92 
92 28 2 -3 -4 -3 2 19 57 103 103 57 19 5 12 47 102 101 47 10 -1 -4 -4 -4 -4 -4 -4 -4 -4 -4 -4 -4 -4 -3 2 27 83 109 61 17 0 -3 -4 -4 -4 -4 -4 -4 -4 -3 2 30 94 92 28 2 -3 -4 -4 -4 -4 -4 -4 -4 -4 -4 -4 -4 -4 -4 -4 -4 -4 -4 -4 -4 -4 -4 -4 -1 11 54 109 77 21 0 -3 -4 -4 -4 -4 -4 -4 -4 -4 0 20 76 109 52 10 -1 -4 -4 -4 -4 -3 2 28 92 
92 28 2 -3 -4 -4 -3 2 19 57 103 103 58 27 36 85 109 61 17 0 -3 -4 -4 -4 -4 -4 -4 -4 -4 -4 -4 -4 -4 -1 11 52 108 85 30 4 -3 -4 -4 -4 -4 -4 -4 -4 -4 -3 2 28 92 94 30 2 -3 -4 -4 -4 -4 -4 -4 -4 -4 -4 -4 -4 -4 -4 -4 -4 -4 -4 -4 -4 -4 -4 -3 2 27 85 107 50 10 -1 -4 -4 -4 -4 -4 -4 -4 -4 -3 2 27 89 98 35 4 -3 -4 -4 -4 -4 -3 2 28 92 
92 28 2 -3 -4 -4 -4 -3 2 19 57 104 107 76 80 112 84 30 4 -3 -4 -4 -4 -4 -4 -4 -4 -4 -4 -4 -4 -4 -3 3 28 85 108 52 12 -1 -4 -4 -4 -4 -4 -4 -4 -4 -4 -3 1 26 88 99 36 4 -3 -4 -4 -4 -4 -4 -4 -4 -4 -4 -4 -4 -4 -4 -4 -4 -4 -4 -4 -4 -4 -4 -1 10 50 107 85 27 2 -3 -4 -4 -4 -4 -4 -4 -4 -4 -3 4 35 98 89 27 2 -3 -4 -4 -4 -4 -3 2 28 92 
92 28 2 -3 -4 -4 -4 -4 -3 2 19 57 109 134 135 106 47 10 -1 -4 -4 -4 -4 -4 -4 -4 -4 -4 -4 -4 -4 -4 -1 12 52 108 85 28 3 -3 -4 -4 -4 -4 -4 -4 -4 -4 -4 -4 0 20 76 109 52 10 -1 -4 -4 -4 -4 -4 -4 -4 -4 -4 -4 -4 -4 -4 -4 -4 -4 -4 -4 -4 -4 -3 0 21 77 109 54 11 -1 -4 -4 -4 -4 -4 -4 -4 -4 -4 -1 10 52 109 76 20 0 -4 -4 -4 -4 -4 -3 2 28 92 
92 28 2 -3 -4 -4 -4 -4 -4 -3 2 21 66 133 133 65 18 0 -3 -4 -4 -4 -4 -4 -4 -4 -4 -4 -4 -4 -4 -3 4 30 85 108 52 11 -1 -4 -4 -4 -4 -4 -4 -4 -4 -4 -4 -4 -1 10 52 109 76 20 0 -4 -4 -4 -4 -4 -4 -4 -4 -4 -4 -4 -4 -4 -4 -4 -4 -4 -4 -4 -4 -3 4 34 95 95 34 4 -3 -4 -4 -4 -4 -4 -4 -4 -4 -4 0 20 76 109 52 10 -1 -4 -4 -4 -4 -4 -3 2 28 92 
92 28 2 -3 -4 -4 -4 -4 -4 -4 -2 6 38 105 108 40 6 -2 -4 -4 -4 -4 -4 -4 -4 -4 -4 -4 -4 -4 -3 0 17 61 109 83 27 2 -3 -4 -4 -4 -4 -4 -4 -4 -4 -4 -4 -4 -3 4 36 99 88 26 1 -3 -4 -4 -4 -4 -4 -4 -4 -4 -4 -4 -4 -4 -4 -4 -4 -4 -4 -4 -4 -1 11 54 109 77 21 0 -3 -4 -4 -4 -4 -4 -4 -4 -4 -3 2 27 89 98 35 4 -3 -4 -4 -4 -4 -4 -3 2 28 92 
92 28 2 -3 -4 -4 -4 -4 -4 -4 -3 2 28 91 102 38 5 -3 -4 -4 -4 -4 -4 -4 -4 -4 -4 -4 -4 -4 -1 10 47 101 101 47 10 -1 -4 -4 -4 -4 -4 -4 -4 -4 -4 -4 -4 -4 -3 2 30 94 91 28 2 -3 -4 -4 -4 -4 -4 -4 -4 -4 -4 -4 -4 -4 -4 -4 -4 -4 -4 -4 -3 2 27 85 107 50 10 -1 -4 -4 -4 -4 -4 -4 -4 -4 -4 -3 4 35 98 89 27 2 -3 -4 -4 -4 -4 -4 -3 2 28 92 
92 28 2 -3 -4 -4 -4 -4 -4 -4 -4 0 20 76 110 52 10 -1 -4 -4 -4 -4 -4 -4 -4 -4 -4 -4 -4 -3 2 27 83 109 61 17 0 -3 -4 -4 -4 -4 -4 -4 -4 -4 -4 -4 -4 -4 -3 2 29 92 92 29 2 -3 -4 -4 -4 -4 -4 -4 -4 -4 -4 -4 -4 -4 -4 -4 -4 -4 -4 -4 -1 10 50 107 85 27 2 -3 -4 -4 -4 -4 -4 -4 -4 -4 -4 -1 10 52 109 76 20 0 -4 -4 -4 -4 -4 -4 -3 2 28 92 
92 28 2 -3 -4 -4 -4 -4 -4 -4 -4 -1 10 52 109 76 20 0 -4 -4 -4 -4 -4 -4 -4 -4 -4 -4 -4 -1 11 52 108 85 30 4 -3 -4 -4 -4 -4 -4 -4 -4 -4 -4 -4 -4 -4 -4 -3 2 28 91 94 30 2 -3 -4 -4 -4 -4 -4 -4 -4 -4 -4 -4 -4 -4 -4 -4 -4 -4 -4 -3 0 21 77 109 54 11 -1 -4 -4 -4 -4 -4 -4 -4 -4 -4 -4 0 20 76 109 52 10 -1 -4 -4 -4 -4 -4 -4 -3 2 28 92 
92 28 2 -3 -4 -4 -4 -4 -4 -4 -4 -3 4 35 99 88 26 1 -3 -4 -4 -4 -4 -4 -4 -4 -4 -4 -3 3 28 85 108 52 12 -1 -4 -4 -4 -4 -4 -4 -4 -4 -4 -4 -4 -4 -4 -4 -3 1 26 88 99 36 4 -3 -4 -4 -4 -4 -4 -4 -4 -4 -4 -4 -4 -4 -4 -4 -4 -4 -4 -3 4 34 95 95 34 4 -3 -4 -4 -4 -4 -4 -4 -4 -4 -4 -3 2 27 89 98 35 4 -3 -4 -4 -4 -4 -4 -4 -3 2 29 93 
93 28 2 -3 -4 -4 -4 -4 -4 -4 -4 -3 2 29 93 93 29 2 -3 -4 -4 -4 -4 -4 -4 -4 -4 -4 -1 12 52 108 85 28 3 -3 -4 -4 -4 -4 -4 -4 -4 -4 -4 -4 -4 -4 -4 -4 -4 0 20 76 109 52 10 -1 -4 -4 -4 -4 -4 -4 -4 -4 -4 -4 -4 -4 -4 -4 -4 -4 -4 -1 11 54 109 77 21 0 -3 -4 -4 -4 -4 -4 -4 -4 -4 -4 -3 4 35 98 89 27 2 -3 -4 -4 -4 -4 -4 -4 -3 2 30 95 
94 28 2 -3 -4 -4 -4 -4 -4 -4 -4 -3 1 26 88 99 35 4 -3 -4 -4 -4 -4 -4 -4 -4 -4 -3 4 30 85 108 52 11 -1 -4 -4 -4 -4 -4 -4 -4 -4 -4 -4 -4 -4 -4 -4 -4 -4 -1 10 52 109 76 20 0 -4 -4 -4 -4 -4 -4 -4 -4 -4 -4 -4 -4 -4 -4 -4 -4 -3 2 27 85 107 50 10 -1 -4 -4 -4 -4 -4 -4 -4 -4 -4 -4 -1 10 52 109 76 20 0 -4 -4 -4 -4 -4 -4 -4 -3 4 36 103 
98 28 2 -3 -4 -4 -4 -4 -4 -4 -4 -4 0 20 76 109 52 10 -1 -4 -4 -4 -4 -4 -4 -4 -3 0 17 61 109 83 27 2 -3 -4 -4 -4 -4 -4 -4 -4 -4 -4 -4 -4 -4 -4 -4 -4 -4 -3 4 36 99 88 26 1 -3 -4 -4 -4 -4 -4 -4 -4 -4 -4 -4 -4 -4 -4 -4 -4 -1 10 50 107 85 27 2 -3 -4 -4 -4 -4 -4 -4 -4 -4 -4 -4 0 20 76 109 52 10 -1 -4 -4 -4 -4 -4 -4 -4 -1 12 55 125 
100 28 2 -3 -4 -4 -4 -4 -4 -4 -4 -4 -1 10 52 109 76 20 0 -4 -4 -4 -4 -4 -4 -4 -1 10 47 101 101 47 10 -1 -4 -4 -4 -4 -4 -4 -4 -4 -4 -4 -4 -4 -4 -4 -4 -4 -4 -3 2 30 94 91 28 2 -3 -4 -4 -4 -4 -4 -4 -4 -4 -4 -4 -4 -4 -4 -4 -3 0 21 77 109 54 11 -1 -4 -4 -4 -4 -4 -4 -4 -4 -4 -4 -3 2 27 89 98 35 4 -3 -4 -4 -4 -4 -4 -4 -3 4 30 91 149 
99 28 2 -3 -4 -4 -4 -4 -4 -4 -4 -4 -3 4 35 99 88 26 1 -3 -4 -4 -4 -4 -4 -3 2 27 83 109 61 17 0 -3 -4 -4 -4 -4 -4 -4 -4 -4 -4 -4 -4 -4 -4 -4 -4 -4 -4 -3 2 29 92 92 29 2 -3 -4 -4 -4 -4 -4 -4 -4 -4 -4 -4 -4 -4 -4 -4 -3 4 34 95 95 34 4 -3 -4 -4 -4 -4 -4 -4 -4 -4 -4 -4 -3 4 35 98 89 27 2 -3 -4 -4 -4 -4 -4 -3 0 17 62 122 149 
96 28 2 -3 -4 -4 -4 -4 -4 -4 -4 -4 -3 2 29 93 93 29 2 -3 -4 -4 -4 -4 -4 -1 11 52 108 85 30 4 -3 -4 -4 -4 -4 -4 -4 -4 -4 -4 -4 -4 -4 -4 -4 -4 -4 -4 -4 -3 2 28 91 94 30 2 -3 -4 -4 -4 -4 -4 -4 -4 -4 -4 -4 -4 -4 -4 -4 -1 11 54 109 77 21 0 -3 -4 -4 -4 -4 -4 -4 -4 -4 -4 -4 -1 10 52 109 76 20 0 -4 -4 -4 -4 -4 -4 -1 10 47 104 125 131 
94 28 2 -3 -4 -4 -4 -4 -4 -4 -4 -4 -3 1 26 88 99 35 4 -3 -4 -4 -4 -4 -3 3 28 85 108 52 12 -1 -4 -4 -4 -4 -4 -4 -4 -4 -4 -4 -4 -4 -4 -4 -4 -4 -4 -4 -4 -3 1 26 88 99 36 4 -3 -4 -4 -4 -4 -4 -4 -4 -4 -4 -4 -4 -4 -4 -3 2 27 85 107 50 10 -1 -4 -4 -4 -4 -4 -4 -4 -4 -4 -4 -4 0 20 76 109 52 10 -1 -4 -4 -4 -4 -4 -3 4 30 84 114 91 110 
93 28 2 -3 -4 -4 -4 -4 -4 -4 -4 -4 -4 0 20 76 109 52 10 -1 -4 -4 -4 -4 -1 12 52 108 85 28 3 -3 -4 -4 -4 -4 -4 -4 -4 -4 -4 -4 -4 -4 -4 -4 -4 -4 -4 -4 -4 -4 0 20 76 109 52 10 -1 -4 -4 -4 -4 -4 -4 -4 -4 -4 -4 -4 -4 -4 -1 10 50 107 85 27 2 -3 -4 -4 -4 -4 -4 -4 -4 -4 -4 -4 -3 2 27 89 98 35 4 -3 -4 -4 -4 -4 -3 0 17 61 110 90 62 100 
92 28 2 -3 -4 -4 -4 -4 -4 -4 -4 -4 -4 -1 10 52 109 76 20 0 -4 -4 -4 -3 4 30 85 108 52 11 -1 -4 -4 -4 -4 -4 -4 -4 -4 -4 -4 -4 -4 -4 -4 -4 -4 -4 -4 -4 -4 -4 -1 10 52 110 77 21 1 -2 -3 -4 -4 -4 -4 -4 -4 -4 -4 -4 -4 -3 0 21 77 109 54 11 -1 -4 -4 -4 -4 -4 -4 -4 -4 -4 -4 -4 -3 4 35 98 89 27 2 -3 -4 -4 -4 -4 -1 10 47 102 102 53 43 95 
92 28 2 -3 -4 -4 -4 -4 -4 -4 -4 -4 -4 -3 4 35 99 88 26 1 -3 -4 -3 0 17 61 109 83 27 2 -3 -4 -4 -4 -4 -4 -4 -4 -4 -4 -4 -4 -4 -4 -4 -4 -4 -4 -4 -4 -4 -4 -2 5 38 102 92 32 8 3 1 0 -1 -3 -3 -3 -3 -3 -4 -4 -4 -3 4 34 95 95 34 4 -3 -4 -4 -4 -4 -4 -4 -4 -4 -4 -4 -4 -1 10 52 109 76 20 0 -4 -4 -4 -4 -3 4 30 84 109 62 24 34 93 
92 28 2 -3 -4 -4 -4 -4 -4 -4 -4 -4 -4 -3 2 29 93 93 29 2 -3 -4 -1 10 47 101 101 47 10 -1 -4 -4 -4 -4 -4 -4 -4 -4 -4 -4 -4 -4 -4 -4 -4 -4 -4 -4 -4 -4 -4 -3 0 9 42 109 112 58 35 29 26 20 10 4 2 2 2 1 0 -1 -2 0 12 54 109 77 21 0 -3 -4 -4 -4 -4 -4 -4 -4 -4 -4 -4 -4 0 20 76 109 52 10 -1 -4 -4 -4 -3 0 17 61 109 84 31 11 30 93 
92 28 2 -3 -4 -4 -4 -4 -4 -4 -4 -4 -4 -3 1 26 88 99 35 4 -3 -3 2 27 83 109 61 17 0 -3 -4 -4 -4 -4 -4 -4 -4 -4 -4 -4 -4 -4 -4 -4 -4 -4 -4 -4 -4 -4 -3 0 10 32 72 134 144 111 96 92 88 76 52 36 30 29 28 26 20 10 5 9 32 87 108 50 10 -1 -4 -4 -4 -4 -4 -4 -4 -4 -4 -4 -4 -3 2 27 89 98 35 4 -3 -4 -4 -4 -1 10 47 101 101 47 11 5 29 92 
92 28 2 -3 -4 -4 -4 -4 -4 -4 -4 -4 -4 -4 0 20 76 109 52 10 -1 -1 11 52 108 85 30 4 -3 -4 -4 -4 -4 -4 -4 -4 -4 -4 -4 -4 -4 -4 -4 -4 -4 -4 -4 -4 -3 -1 4 17 47 85 114 123 110 97 94 94 99 109 109 99 94 92 91 88 76 52 38 42 72 116 87 28 2 -3 -4 -4 -4 -4 -4 -4 -4 -4 -4 -4 -4 -3 4 35 98 89 27 2 -3 -4 -4 -3 4 30 84 109 61 18 1 3 29 92 
92 28 2 -3 -4 -4 -4 -4 -4 -4 -4 -4 -4 -4 -1 10 52 109 76 20 1 3 28 85 108 52 12 -1 -4 -4 -4 -4 -4 -4 -4 -4 -4 -4 -4 -4 -4 -4 -4 -4 -4 -4 -4 -3 0 10 30 61 102 109 86 55 36 30 29 30 36 52 76 88 91 92 94 99 109 110 102 108 134 131 63 14 0 -4 -4 -4 -4 -4 -4 -4 -4 -4 -4 -4 -4 -1 10 52 109 76 20 0 -4 -4 -3 0 17 61 109 84 30 4 -1 2 28 92 
92 28 2 -3 -4 -4 -4 -4 -4 -4 -4 -4 -4 -4 -3 4 35 99 88 27 5 13 52 108 85 28 3 -3 -4 -4 -4 -4 -4 -4 -4 -4 -4 -4 -4 -4 -4 -4 -4 -4 -4 -3 -1 4 17 47 84 109 101 61 30 12 4 2 2 2 4 10 20 26 28 29 30 36 52 76 91 106 134 131 63 15 0 -4 -4 -4 -4 -4 -4 -4 -4 -4 -4 -4 -4 0 20 76 109 52 10 -1 -4 -4 -1 10 47 101 101 47 10 -1 -3 2 28 92 
92 28 2 -3 -4 -4 -4 -4 -4 -4 -4 -4 -4 -4 -3 2 29 93 93 31 11 31 86 108 52 11 -1 -4 -4 -4 -4 -4 -4 -4 -4 -4 -4 -4 -4 -4 -4 -4 -4 -4 -3 0 10 30 61 101 109 84 47 17 4 -1 -3 -3 -3 -3 -3 -1 0 1 2 2 2 4 10 20 28 40 72 116 88 31 5 -2 -4 -4 -4 -4 -4 -4 -4 -4 -4 -4 -3 2 28 89 98 35 4 -3 -4 -2 4 30 84 109 61 17 0 -3 -3 2 28 92 
92 28 2 -3 -4 -4 -4 -4 -4 -4 -4 -4 -4 -4 -3 1 26 88 100 41 27 62 109 83 27 2 -3 -4 -4 -4 -4 -4 -4 -4 -4 -4 -4 -4 -4 -4 -4 -4 -4 -2 2 16 46 84 109 101 61 30 10 0 -3 -4 -4 -4 -4 -4 -4 -4 -4 -3 -3 -3 -3 -3 -1 0 2 9 32 85 110 63 21 4 -1 -3 -3 -3 -3 -3 -3 -3 -3 -3 -2 5 36 99 90 28 2 -3 -3 0 17 61 109 84 30 4 -3 -4 -3 2 28 92 
92 28 2 -3 -4 -4 -4 -4 -4 -4 -4 -4 -4 -4 -4 0 20 76 111 66 61 104 102 47 10 -1 -4 -4 -4 -4 -4 -4 -4 -4 -4 -4 -4 -4 -4 -4 -4 -3 -1 4 20 56 101 109 84 47 17 4 -1 -3 -4 -4 -4 -4 -4 -4 -4 -4 -4 -4 -4 -4 -4 -4 -4 -4 -3 0 10 47 103 108 64 31 12 4 2 2 2 2 2 2 2 2 5 17 57 112 78 21 0 -3 -1 10 47 101 101 47 10 -1 -4 -4 -3 2 28 92 
92 28 2 -3 -4 -4 -4 -4 -4 -4 -4 -4 -4 -4 -4 -1 10 52 113 103 104 111 61 17 0 -3 -4 -4 -4 -4 -4 -4 -4 -4 -4 -4 -4 -4 -4 -4 -3 0 10 30 62 104 104 62 30 10 0 -3 -4 -4 -4 -4 -4 -4 -4 -4 -4 -4 -4 -4 -4 -4 -4 -4 -4 -4 -4 -3 0 18 64 125 129 90 55 36 30 29 28 28 28 28 28 29 33 50 98 124 63 17 1 -1 4 30 84 109 61 17 0 -3 -4 -4 -3 2 28 92 
92 28 2 -3 -4 -4 -4 -4 -4 -4 -4 -4 -4 -4 -4 -3 4 36 104 131 127 87 30 4 -3 -4 -4 -4 -4 -4 -4 -4 -4 -4 -4 -4 -4 -4 -3 -1 4 17 47 84 109 101 56 20 4 -1 -3 -4 -4 -4 -4 -4 -4 -4 -4 -4 -4 -4 -4 -4 -4 -4 -4 -4 -4 -4 -4 -4 -2 6 40 113 148 127 112 99 94 93 92 92 92 92 92 93 96 110 141 140 79 35 13 8 20 62 109 84 30 4 -3 -4 -4 -4 -3 2 28 92 
92 28 2 -3 -4 -4 -4 -4 -4 -4 -4 -4 -4 -4 -4 -3 2 30 101 149 119 52 11 -1 -4 -4 -4 -4 -4 -4 -4 -4 -4 -4 -4 -4 -4 -3 0 10 30 61 101 109 84 46 16 2 -2 -4 -4 -4 -4 -4 -4 -4 -4 -4 -4 -4 -4 -4 -4 -4 -4 -4 -4 -4 -4 -4 -4 -4 -3 5 38 105 113 78 81 89 91 92 92 92 92 92 92 92 93 97 110 124 116 87 55 41 58 105 102 47 10 -1 -4 -4 -4 -4 -3 2 28 92 
92 28 2 -3 -4 -4 -4 -4 -4 -4 -4 -4 -4 -4 -4 -3 2 28 100 149 90 28 2 -3 -4 -4 -4 -4 -4 -4 -4 -4 -4 -4 -4 -3 -1 4 17 47 84 109 102 61 30 10 0 -3 -4 -4 -4 -4 -4 -4 -4 -4 -4 -4 -4 -4 -4 -4 -4 -4 -4 -4 -4 -4 -4 -4 -4 -4 -1 10 52 111 82 35 25 27 28 28 28 28 28 28 28 28 29 30 36 55 86 108 111 104 117 121 65 19 0 -3 -4 -4 -4 -4 -3 2 28 92 
92 28 2 -3 -4 -4 -4 -4 -4 -4 -4 -4 -4 -4 -4 -3 2 28 98 125 55 11 -1 -4 -4 -4 -4 -4 -4 -4 -4 -4 -4 -3 -2 0 10 29 61 102 110 85 48 18 4 -1 -3 -4 -4 -4 -4 -4 -4 -4 -4 -4 -4 -4 -4 -4 -4 -4 -4 -4 -4 -4 -4 -4 -4 -4 -4 -4 0 20 76 109 53 13 3 2 2 2 2 2 2 2 2 2 2 2 4 12 28 52 87 121 151 120 49 10 -1 -4 -4 -4 -4 -4 -3 2 28 92 
92 28 2 -3 -4 -4 -4 -4 -4 -4 -4 -4 -4 -4 -4 -3 2 29 94 103 36 4 -3 -4 -4 -4 -4 -4 -4 -4 -4 -3 -1 1 5 18 47 88 119 113 70 37 17 5 0 -2 -3 -4 -4 -4 -4 -4 -4 -4 -4 -4 -4 -4 -4 -4 -4 -4 -4 -4 -4 -4 -4 -4 -4 -4 -4 -3 1 26 88 99 36 5 -2 -3 -3 -3 -3 -3 -3 -3 -3 -3 -3 -3 -3 -1 3 12 30 64 117 124 66 19 0 -3 -4 -4 -4 -4 -3 2 28 92 
92 28 2 -3 -4 -4 -4 -4 -4 -4 -4 -4 -4 -4 -4 -3 2 30 94 94 29 2 -3 -4 -4 -4 -4 -4 -4 -3 -1 2 10 22 36 64 113 148 142 99 57 38 29 21 10 4 2 0 -1 -3 -3 -3 -4 -4 -4 -4 -4 -4 -4 -4 -4 -4 -4 -4 -4 -4 -4 -4 -4 -4 -4 -3 2 28 92 94 30 2 -3 -4 -4 -4 -4 -4 -4 -4 -4 -4 -4 -4 -4 -4 -3 -1 4 20 59 107 103 47 10 -1 -4 -4 -4 -4 -3 2 28 92 
92 28 2 -3 -4 -4 -4 -4 -4 -4 -4 -4 -4 -4 -4 -3 4 36 99 88 26 1 -3 -4 -4 -4 -3 -3 -1 2 11 27 50 78 96 114 121 118 123 119 103 94 88 76 52 35 27 20 10 4 2 1 0 -1 -3 -3 -4 -4 -4 -4 -4 -4 -4 -4 -4 -4 -4 -4 -4 -4 -4 -3 2 30 94 92 28 2 -3 -4 -4 -4 -4 -4 -4 -4 -4 -4 -4 -4 -4 -4 -4 -4 -2 2 20 62 109 84 30 4 -3 -4 -4 -4 -3 2 28 92 
92 28 2 -3 -4 -4 -4 -4 -4 -4 -4 -4 -4 -4 -4 -1 10 52 109 76 20 0 -3 -4 -3 -1 0 4 12 28 52 84 107 109 95 78 54 43 54 77 88 93 99 109 109 98 89 76 52 35 29 26 20 10 4 2 0 -1 -3 -3 -3 -4 -4 -4 -4 -4 -4 -4 -4 -4 -4 -3 4 36 99 88 26 1 -3 -4 -4 -4 -4 -4 -4 -4 -4 -4 -4 -4 -4 -4 -4 -4 -4 -2 4 30 84 109 61 17 0 -3 -4 -4 -3 2 28 92 
92 28 2 -3 -4 -4 -4 -4 -4 -4 -4 -4 -4 -4 -4 0 20 76 109 52 10 -1 -3 -1 2 10 21 34 54 85 108 108 85 54 34 22 11 6 10 20 26 29 35 52 76 89 98 109 109 99 93 88 76 52 35 27 20 10 4 2 1 0 -1 -3 -3 -4 -4 -4 -4 -4 -4 -1 10 52 109 76 20 0 -4 -4 -4 -4 -4 -4 -4 -4 -4 -4 -4 -4 -4 -4 -4 -4 -4 -4 -1 10 47 101 101 47 10 -1 -4 -4 -3 2 28 92 
92 28 2 -3 -4 -4 -4 -4 -4 -4 -4 -4 -4 -4 -3 1 26 88 99 36 6 0 3 11 27 50 77 95 109 107 84 52 28 12 4 0 -1 -2 -1 0 1 2 4 10 20 27 35 52 76 88 93 99 109 109 98 89 76 52 35 29 26 20 10 4 2 0 -1 -3 -3 -3 -3 0 20 76 109 52 10 -1 -4 -4 -4 -4 -4 -4 -4 -4 -4 -4 -4 -4 -4 -4 -4 -4 -4 -4 -3 0 17 61 109 84 30 4 -2 -4 -3 2 28 92 
92 28 2 -3 -4 -4 -4 -4 -4 -4 -4 -4 -4 -4 -3 2 29 93 94 33 10 12 28 52 84 107 109 95 77 50 27 11 2 -1 -3 -3 -4 -4 -4 -4 -3 -3 -3 -1 0 2 4 10 20 26 29 35 52 76 89 98 109 109 99 93 88 76 52 35 27 20 10 4 2 1 1 4 27 89 99 36 4 -3 -4 -4 -4 -4 -4 -4 -4 -4 -4 -4 -4 -4 -4 -4 -4 -4 -4 -4 -4 -3 4 30 84 109 62 20 2 -3 -3 2 28 92 
92 28 2 -3 -4 -4 -4 -4 -4 -4 -4 -4 -4 -4 -3 4 36 101 96 43 34 53 85 108 108 85 54 34 21 10 2 -1 -3 -4 -4 -4 -4 -4 -4 -4 -4 -4 -4 -4 -4 -3 -3 -1 0 1 2 4 10 20 27 35 52 76 88 93 99 109 109 98 89 76 52 35 29 26 21 17 37 96 94 30 2 -3 -4 -4 -4 -4 -4 -4 -4 -4 -4 -4 -4 -4 -4 -4 -4 -4 -4 -4 -4 -4 -1 10 46 101 104 56 16 0 -2 2 28 92 
92 28 2 -3 -4 -4 -4 -4 -4 -4 -4 -4 -4 -4 -1 12 55 120 108 77 89 108 108 85 52 28 12 4 0 -1 -3 -4 -4 -4 -4 -4 -4 -4 -4 -4 -4 -4 -4 -4 -4 -4 -4 -4 -4 -3 -3 -3 -1 0 2 4 10 20 26 29 35 52 76 89 98 109 109 99 93 88 77 58 65 112 95 29 2 -3 -4 -4 -4 -4 -4 -4 -4 -4 -4 -4 -4 -4 -4 -4 -4 -4 -4 -4 -4 -4 -3 0 16 56 104 101 46 10 0 2 28 92 
92 28 2 -3 -4 -4 -4 -4 -4 -4 -4 -4 -4 -3 2 28 91 148 134 119 108 84 52 28 11 2 -1 -3 -3 -4 -4 -4 -4 -4 -4 -4 -4 -4 -4 -4 -4 -4 -4 -4 -4 -4 -4 -4 -4 -4 -4 -4 -4 -4 -3 -3 -1 0 1 2 4 10 20 27 35 52 76 88 93 99 110 113 120 144 99 28 2 -3 -4 -4 -4 -4 -4 -4 -4 -4 -4 -4 -4 -4 -4 -4 -4 -4 -4 -4 -4 -4 -4 -3 2 20 62 109 84 30 5 4 29 92 
92 28 2 -3 -4 -4 -4 -4 -4 -4 -4 -4 -4 -1 11 53 118 131 104 79 50 27 11 2 -1 -3 -4 -4 -4 -4 -4 -4 -4 -4 -4 -4 -4 -4 -4 -4 -4 -4 -4 -4 -4 -4 -4 -4 -4 -4 -4 -4 -4 -4 -4 -4 -4 -4 -3 -3 -3 -1 0 2 4 10 20 26 29 36 52 81 109 143 99 28 2 -3 -4 -4 -4 -4 -4 -4 -4 -4 -4 -4 -4 -4 -4 -4 -4 -4 -4 -4 -4 -4 -4 -4 -2 4 30 84 109 62 21 9 30 93 
92 28 2 -3 -4 -4 -4 -4 -4 -4 -4 -4 -3 4 30 86 114 71 38 22 10 2 -1 -3 -4 -4 -4 -4 -4 -4 -4 -4 -4 -4 -4 -4 -4 -4 -4 -4 -4 -4 -4 -4 -4 -4 -4 -4 -4 -4 -4 -4 -4 -4 -4 -4 -4 -4 -4 -4 -4 -4 -4 -3 -3 -1 0 1 2 4 11 26 56 111 95 28 2 -3 -4 -4 -4 -4 -4 -4 -4 -4 -4 -4 -4 -4 -4 -4 -4 -4 -4 -4 -4 -4 -4 -4 -4 -1 10 46 101 104 57 23 33 93 
92 28 2 -3 -4 -4 -4 -4 -4 -4 -4 -3 0 17 61 109 85 32 8 1 -1 -3 -4 -4 -4 -4 -4 -4 -4 -4 -4 -4 -4 -4 -4 -4 -4 -4 -4 -4 -4 -4 -4 -4 -4 -4 -4 -4 -4 -4 -4 -4 -4 -4 -4 -4 -4 -4 -4 -4 -4 -4 -4 -4 -4 -4 -4 -3 -3 -3 0 7 34 96 93 28 2 -3 -4 -4 -4 -4 -4 -4 -4 -4 -4 -4 -4 -4 -4 -4 -4 -4 -4 -4 -4 -4 -4 -4 -4 -3 0 16 56 104 101 53 43 95 
93 28 2 -3 -4 -4 -4 -4 -4 -4 -4 -1 10 47 101 102 47 10 0 -3 -4 -4 -4 -4 -4 -4 -4 -4 -4 -4 -4 -4 -4 -4 -4 -4 -4 -4 -4 -4 -4 -4 -4 -4 -4 -4 -4 -4 -4 -4 -4 -4 -4 -4 -4 -4 -4 -4 -4 -4 -4 -4 -4 -4 -4 -4 -4 -4 -4 -4 -3 3 29 93 93 29 2 -3 -4 -4 -4 -4 -4 -4 -4 -4 -4 -4 -4 -4 -4 -4 -4 -4 -4 -4 -4 -4 -4 -4 -4 -4 -3 2 20 62 110 90 62 100 
94 28 2 -3 -4 -4 -4 -4 -4 -4 -2 4 30 84 109 61 18 0 -3 -4 -4 -4 -4 -4 -4 -4 -4 -4 -4 -4 -4 -4 -4 -4 -4 -4 -4 -4 -4 -4 -4 -4 -4 -4 -4 -4 -4 -4 -4 -4 -4 -4 -4 -4 -4 -4 -4 -4 -4 -4 -4 -4 -4 -4 -4 -4 -4 -4 -4 -4 -3 2 28 92 94 30 3 -3 -4 -4 -4 -4 -4 -4 -4 -4 -4 -4 -4 -4 -4 -4 -4 -4 -4 -4 -4 -4 -4 -4 -4 -4 -4 -2 4 30 84 114 91 110 
96 28 2 -3 -4 -4 -4 -4 -4 -3 2 20 62 110 85 31 5 -2 -4 -4 -4 -4 -4 -4 -4 -4 -4 -4 -4 -4 -4 -4 -4 -4 -4 -4 -4 -4 -4 -4 -4 -4 -4 -4 -4 -4 -4 -4 -4 -4 -4 -4 -4 -4 -4 -4 -4 -4 -4 -4 -4 -4 -4 -4 -4 -4 -4 -4 -4 -4 -3 2 29 92 102 39 6 -2 -4 -4 -4 -4 -4 -4 -4 -4 -4 -4 -4 -4 -4 -4 -4 -4 -4 -4 -4 -4 -4 -4 -4 -4 -4 -4 -1 10 47 104 125 131 
99 28 2 -3 -4 -4 -4 -4 -3 2 19 58 107 106 53 16 3 -1 -3 -3 -3 -3 -3 -3 -3 -3 -3 -3 -4 -4 -4 -4 -4 -4 -4 -4 -4 -4 -4 -4 -4 -4 -4 -4 -4 -4 -4 -4 -4 -4 -4 -4 -4 -4 -4 -4 -4 -4 -4 -4 -4 -4 -4 -4 -4 -4 -4 -4 -4 -3 0 7 34 96 123 67 22 5 -1 -3 -4 -4 -4 -4 -4 -4 -4 -4 -4 -4 -4 -4 -4 -4 -4 -4 -4 -4 -4 -4 -4 -4 -4 -4 -3 0 17 62 122 149 
100 28 2 -3 -4 -4 -4 -3 2 18 58 113 126 86 48 31 21 10 4 2 2 2 2 2 2 2 2 1 0 -1 -3 -3 -3 -3 -3 -3 -3 -3 -3 -4 -4 -4 -4 -4 -4 -4 -4 -4 -4 -4 -4 -4 -4 -4 -4 -4 -4 -4 -4 -4 -4 -4 -4 -4 -4 -4 -4 -4 -3 0 10 29 62 116 151 119 64 30 12 2 -1 -3 -4 -4 -4 -4 -4 -4 -4 -4 -4 -4 -4 -4 -4 -4 -4 -4 -4 -4 -4 -4 -4 -4 -4 -3 4 30 91 149 
98 28 2 -3 -4 -4 -3 2 19 58 116 151 136 111 97 89 76 52 36 30 29 28 28 28 28 28 28 26 20 10 4 2 2 2 2 2 2 2 1 0 -1 -3 -3 -3 -3 -3 -3 -3 -3 -3 -3 -4 -4 -4 -4 -4 -4 -4 -4 -4 -4 -4 -4 -4 -4 -4 -3 -1 4 17 47 84 111 119 119 123 113 86 52 27 10 0 -3 -4 -4 -4 -4 -4 -4 -4 -4 -4 -4 -4 -4 -4 -4 -4 -4 -4 -4 -4 -4 -4 -4 -4 -1 12 55 125 
94 28 2 -3 -4 -3 2 19 57 106 122 111 100 95 94 99 109 109 99 94 93 92 92 92 92 92 91 88 76 52 36 30 29 28 28 28 28 28 26 20 10 4 2 2 2 2 2 2 2 2 1 0 -1 -3 -3 -3 -3 -3 -3 -3 -3 -3 -4 -4 -3 -1 2 11 30 61 101 109 86 56 44 56 86 108 108 83 47 17 4 -1 -3 -4 -4 -4 -4 -4 -4 -4 -4 -4 -4 -4 -4 -4 -4 -4 -4 -4 -4 -4 -4 -4 -3 4 36 103 
93 28 2 -3 -2 2 19 57 103 105 65 39 30 29 30 36 52 76 88 91 92 92 92 92 92 93 94 99 109 109 99 94 93 92 92 92 92 91 88 76 52 36 30 29 28 28 28 28 28 28 26 20 10 4 2 2 2 2 2 2 2 1 0 0 1 10 27 52 85 109 101 61 30 13 7 12 28 52 85 109 101 61 30 11 2 -1 -3 -4 -4 -4 -4 -4 -4 -4 -4 -4 -4 -4 -4 -4 -4 -4 -4 -4 -4 -4 -3 2 30 95 
92 29 3 0 4 20 57 103 103 57 21 6 2 2 2 4 10 20 26 28 28 28 28 28 28 29 30 36 52 76 88 91 92 92 92 92 93 94 99 109 109 99 94 93 92 92 92 92 92 91 88 76 52 36 30 29 28 28 28 28 28 26 21 14 20 47 83 108 108 83 47 17 4 -1 -2 -1 3 12 30 61 101 109 85 52 27 10 0 -3 -4 -4 -4 -4 -4 -4 -4 -4 -4 -4 -4 -4 -4 -4 -4 -4 -4 -4 -3 2 29 93 
93 30 7 11 30 62 104 103 57 19 2 -2 -3 -3 -3 -3 -1 0 1 2 2 2 2 2 2 2 2 4 10 20 26 28 28 28 28 28 29 30 36 52 76 88 91 92 92 92 92 92 93 94 99 109 109 99 94 93 92 92 92 92 91 88 78 62 71 104 110 86 52 27 10 0 -3 -4 -4 -4 -3 -1 4 17 47 83 108 108 83 47 17 4 -1 -3 -4 -4 -4 -4 -4 -4 -4 -4 -4 -4 -4 -4 -4 -4 -4 -4 -3 2 28 92 
94 35 23 47 84 109 101 56 18 2 -3 -4 -4 -4 -4 -4 -4 -4 -3 -3 -3 -3 -3 -3 -3 -3 -3 -3 -1 0 1 2 2 2 2 2 2 2 4 10 20 26 28 28 28 28 28 28 29 30 36 52 76 88 91 92 92 92 92 93 94 101 118 132 133 110 63 30 12 2 -1 -3 -4 -4 -4 -4 -4 -4 -3 0 10 27 52 85 109 101 61 30 11 2 -1 -3 -4 -4 -4 -4 -4 -4 -4 -4 -4 -4 -4 -4 -4 -4 -3 2 28 92 
98 51 62 101 109 84 46 16 1 -3 -4 -4 -4 -4 -4 -4 -4 -4 -4 -4 -4 -4 -4 -4 -4 -4 -4 -4 -4 -4 -3 -3 -3 -3 -3 -3 -3 -3 -3 -1 0 1 2 2 2 2 2 2 2 2 4 10 20 26 28 28 28 28 28 29 31 40 74 134 133 67 22 5 -1 -3 -4 -4 -4 -4 -4 -4 -4 -4 -4 -3 -1 2 11 30 61 101 109 85 52 27 10 0 -3 -4 -4 -4 -4 -4 -4 -4 -4 -4 -4 -4 -4 -4 -3 2 28 93 
111 87 108 104 62 30 10 0 -3 -4 -4 -4 -4 -4 -4 -4 -4 -4 -4 -4 -4 -4 -4 -4 -4 -4 -4 -4 -4 -4 -4 -4 -4 -4 -4 -4 -4 -4 -4 -4 -4 -3 -3 -3 -3 -3 -3 -3 -3 -3 -3 -1 0 1 2 2 2 2 2 2 3 11 41 107 106 39 6 -2 -4 -4 -4 -4 -4 -4 -4 -4 -4 -4 -4 -4 -4 -3 -1 4 17 47 83 108 108 83 47 17 4 -1 -3 -4 -4 -4 -4 -4 -4 -4 -4 -4 -4 -4 -3 2 28 94 
136 126 106 57 20 4 -1 -3 -4 -4 -4 -4 -4 -4 -4 -4 -4 -4 -4 -4 -4 -4 -4 -4 -4 -4 -4 -4 -4 -4 -4 -4 -4 -4 -4 -4 -4 -4 -4 -4 -4 -4 -4 -4 -4 -4 -4 -4 -4 -4 -4 -4 -4 -3 -3 -3 -3 -3 -3 -3 -2 3 31 95 95 30 3 -3 -4 -4 -4 -4 -4 -4 -4 -4 -4 -4 -4 -4 -4 -4 -4 -3 0 10 27 52 85 109 101 61 30 12 3 -1 -3 -4 -4 -4 -4 -4 -4 -4 -4 -4 -3 2 28 97 
152 115 58 19 2 -2 -4 -4 -4 -4 -4 -4 -4 -4 -4 -4 -4 -4 -4 -4 -4 -4 -4 -4 -4 -4 -4 -4 -4 -4 -4 -4 -4 -4 -4 -4 -4 -4 -4 -4 -4 -4 -4 -4 -4 -4 -4 -4 -4 -4 -4 -4 -4 -4 -4 -4 -4 -4 -4 -4 -3 2 29 93 93 29 2 -3 -4 -4 -4 -4 -4 -4 -4 -4 -4 -4 -4 -4 -4 -4 -4 -4 -3 -1 2 11 30 61 101 109 85 52 28 11 2 -1 -3 -4 -4 -4 -4 -4 -4 -4 -3 2 28 100 
129 66 20 2 -3 -4 -4 -4 -4 -4 -4 -4 -4 -4 -4 -4 -4 -4 -4 -4 -4 -4 -4 -4 -4 -4 -4 -4 -4 -4 -4 -4 -4 -4 -4 -4 -4 -4 -4 -4 -4 -4 -4 -4 -4 -4 -4 -4 -4 -4 -4 -4 -4 -4 -4 -4 -4 -4 -4 -4 -3 2 28 92 92 28 2 -3 -4 -4 -4 -4 -4 -4 -4 -4 -4 -4 -4 -4 -4 -4 -4 -4 -4 -4 -3 -1 4 17 47 83 108 108 85 52 27 10 0 -3 -4 -4 -4 -4 -4 -4 -3 2 28 98 
104 39 6 -2 -4 -4 -4 -4 -4 -4 -4 -4 -4 -4 -4 -4 -4 -4 -4 -4 -4 -4 -4 -4 -4 -4 -4 -4 -4 -4 -4 -4 -4 -4 -4 -4 -4 -4 -4 -4 -4 -4 -4 -4 -4 -4 -4 -4 -4 -4 -4 -4 -4 -4 -4 -4 -4 -4 -4 -4 -3 2 28 92 92 28 2 -3 -4 -4 -4 -4 -4 -4 -4 -4 -4 -4 -4 -4 -4 -4 -4 -4 -4 -4 -4 -4 -3 0 10 27 52 85 108 108 83 47 17 4 -1 -3 -3 -4 -4 -4 -3 2 28 94 
95 30 3 -3 -4 -4 -4 -4 -4 -4 -4 -4 -4 -4 -4 -4 -4 -4 -4 -4 -4 -4 -4 -4 -4 -4 -4 -4 -4 -4 -4 -4 -4 -4 -4 -4 -4 -4 -4 -4 -4 -4 -4 -4 -4 -4 -4 -4 -4 -4 -4 -4 -4 -4 -4 -4 -4 -4 -4 -4 -3 2 28 92 92 28 2 -3 -4 -4 -4 -4 -4 -4 -4 -4 -4 -4 -4 -4 -4 -4 -4 -4 -4 -4 -4 -4 -4 -3 -1 2 11 28 52 86 109 102 61 30 12 4 2 0 -1 -3 -2 3 29 93 
93 29 2 -3 -4 -4 -4 -4 -4 -4 -4 -4 -4 -4 -4 -4 -4 -4 -4 -4 -4 -4 -4 -4 -4 -4 -4 -4 -4 -4 -4 -4 -4 -4 -4 -4 -4 -4 -4 -4 -4 -4 -4 -4 -4 -4 -4 -4 -4 -4 -4 -4 -4 -4 -4 -4 -4 -4 -4 -4 -3 2 28 92 92 28 2 -3 -4 -4 -4 -4 -4 -4 -4 -4 -4 -4 -4 -4 -4 -4 -4 -4 -4 -4 -4 -4 -4 -4 -4 -3 -1 3 12 32 64 107 116 90 56 36 27 20 10 4 3 7 31 93 
93 29 2 -3 -4 -4 -4 -4 -4 -4 -4 -4 -4 -4 -4 -4 -4 -4 -4 -4 -4 -4 -4 -4 -4 -4 -4 -4 -4 -4 -4 -4 -4 -4 -4 -4 -4 -4 -4 -4 -4 -4 -4 -4 -4 -4 -4 -4 -4 -4 -4 -4 -4 -4 -4 -4 -4 -4 -4 -4 -3 2 28 92 92 28 2 -3 -4 -4 -4 -4 -4 -4 -4 -4 -4 -4 -4 -4 -4 -4 -4 -4 -4 -4 -4 -4 -4 -4 -4 -4 -2 0 4 13 34 77 126 148 127 102 90 76 52 35 28 27 43 98 
96 29 3 -2 -3 -3 -3 -3 -4 -4 -4 -4 -4 -4 -4 -4 -4 -4 -4 -4 -4 -4 -4 -4 -4 -4 -4 -4 -4 -4 -4 -4 -4 -4 -4 -4 -4 -4 -4 -4 -4 -4 -4 -4 -4 -4 -4 -4 -4 -4 -4 -4 -4 -4 -4 -4 -4 -4 -4 -4 -3 2 28 92 92 28 2 -3 -4 -4 -4 -4 -4 -4 -4 -4 -4 -4 -4 -4 -4 -4 -4 -4 -4 -4 -4 -4 -4 -3 -3 -1 2 10 22 35 59 97 128 128 109 98 100 109 109 98 90 82 80 116 
104 35 9 3 2 2 2 1 0 -1 -3 -3 -3 -3 -3 -3 -4 -4 -4 -4 -4 -4 -4 -4 -4 -4 -4 -4 -4 -4 -4 -4 -4 -4 -4 -4 -4 -4 -4 -4 -4 -4 -4 -4 -4 -4 -4 -4 -4 -4 -4 -4 -4 -4 -4 -4 -4 -4 -4 -4 -3 2 28 92 92 28 2 -3 -4 -4 -4 -4 -4 -4 -4 -4 -4 -4 -4 -4 -4 -4 -4 -4 -4 -4 -4 -3 -1 0 4 11 27 50 77 95 110 109 86 55 37 32 36 52 76 89 99 113 129 148 
119 59 35 29 28 28 28 26 20 10 4 2 2 2 2 1 0 -1 -3 -3 -3 -3 -3 -3 -3 -4 -4 -4 -4 -4 -4 -4 -4 -4 -4 -4 -4 -4 -4 -4 -4 -4 -4 -4 -4 -4 -4 -4 -4 -4 -4 -4 -4 -4 -4 -4 -4 -4 -4 -4 -3 2 28 92 92 28 2 -3 -4 -4 -4 -4 -4 -4 -4 -4 -4 -4 -4 -4 -4 -4 -4 -4 -3 -3 -1 2 10 21 34 54 85 107 109 95 77 50 27 12 4 3 4 10 20 28 36 57 98 143 
147 114 97 93 92 92 91 88 76 52 36 30 29 28 28 26 20 10 4 2 2 2 2 2 1 0 -1 -3 -3 -3 -3 -3 -3 -4 -4 -4 -4 -4 -4 -4 -4 -4 -4 -4 -4 -4 -4 -4 -4 -4 -4 -4 -4 -4 -4 -4 -4 -4 -4 -4 -3 2 28 92 92 28 2 -3 -4 -4 -4 -4 -4 -4 -4 -4 -4 -4 -4 -4 -4 -4 -3 -1 0 4 11 27 50 77 95 109 107 85 54 34 21 10 2 -1 -3 -3 -3 -1 0 2 5 16 50 117 
144 114 97 93 92 93 94 99 109 109 99 94 93 92 91 88 76 52 36 30 29 28 28 28 26 20 10 4 2 2 2 2 1 0 -1 -3 -3 -3 -3 -3 -3 -3 -4 -4 -4 -4 -4 -4 -4 -4 -4 -4 -4 -4 -4 -4 -4 -4 -4 -4 -3 2 28 92 92 28 2 -3 -4 -4 -4 -4 -4 -4 -4 -4 -4 -4 -4 -4 -3 -1 2 10 21 34 54 85 107 109 95 77 50 27 11 4 0 -1 -3 -4 -4 -4 -4 -4 -4 -3 -2 4 33 103 
111 58 35 29 29 29 30 36 52 76 88 91 92 93 94 99 109 109 99 94 93 92 92 91 88 76 52 36 30 29 28 28 26 20 10 4 2 2 2 2 2 1 0 -1 -3 -3 -3 -3 -3 -3 -4 -4 -4 -4 -4 -4 -4 -4 -4 -4 -3 2 28 92 92 28 2 -3 -4 -4 -4 -4 -4 -4 -4 -4 -4 -3 -3 -1 2 11 27 50 77 95 109 107 85 54 34 21 10 2 -1 -3 -3 -4 -4 -4 -4 -4 -4 -4 -4 -4 -3 2 29 96 
96 35 9 3 2 2 2 4 10 20 26 28 28 29 30 36 52 76 88 91 92 92 93 94 99 109 109 99 94 93 92 91 88 76 52 36 30 29 28 28 28 26 20 10 4 2 2 2 2 1 0 -1 -3 -3 -3 -3 -3 -3 -3 -3 -3 2 28 92 92 28 2 -3 -4 -4 -4 -4 -4 -4 -4 -3 -1 0 4 12 28 52 84 107 109 95 77 50 27 11 4 0 -1 -3 -4 -4 -4 -4 -4 -4 -4 -4 -4 -4 -4 -4 -3 2 28 93 
93 29 3 -2 -3 -3 -3 -3 -1 0 1 2 2 2 2 4 10 20 26 28 28 28 29 30 36 52 76 88 91 92 93 94 99 109 109 99 94 93 92 92 91 88 76 52 36 30 29 28 28 26 20 10 4 2 2 2 2 2 1 0 0 3 29 93 93 29 2 -3 -4 -4 -4 -4 -3 -3 -1 2 10 21 34 54 85 108 108 85 54 34 21 10 2 -1 -3 -3 -4 -4 -4 -4 -4 -4 -4 -4 -4 -4 -4 -4 -4 -4 -3 2 28 92 
92 28 2 -3 -4 -4 -4 -4 -4 -4 -3 -3 -3 -3 -3 -3 -1 0 1 2 2 2 2 2 4 10 20 26 28 28 29 30 36 52 76 88 91 92 92 93 94 99 109 109 99 94 93 92 91 88 76 52 36 30 29 28 28 28 26 20 11 11 35 97 95 30 3 -3 -4 -4 -3 -1 0 4 11 27 50 77 95 109 107 84 52 28 12 4 0 -1 -3 -4 -4 -4 -4 -4 -4 -4 -4 -4 -4 -4 -4 -4 -4 -4 -4 -4 -3 2 28 92 
92 28 2 -3 -4 -4 -4 -4 -4 -4 -4 -4 -4 -4 -4 -4 -4 -4 -3 -3 -3 -3 -3 -3 -3 -1 0 1 2 2 2 2 4 10 20 26 28 28 28 29 30 36 52 76 88 91 92 93 94 99 109 109 99 94 93 92 92 91 88 76 53 42 60 113 107 39 7 -1 -2 -1 2 10 21 34 54 85 107 109 95 77 50 27 11 2 -1 -3 -3 -4 -4 -4 -4 -4 -4 -4 -4 -4 -4 -4 -4 -4 -4 -4 -4 -4 -4 -4 -3 2 28 92 
92 28 2 -3 -4 -4 -4 -4 -4 -4 -4 -4 -4 -4 -4 -4 -4 -4 -4 -4 -4 -4 -4 -4 -4 -4 -4 -3 -3 -3 -3 -3 -3 -1 0 1 2 2 2 2 2 4 10 20 26 28 28 29 30 36 52 76 88 91 92 92 93 94 99 109 110 103 113 144 133 67 23 7 5 12 27 50 77 95 109 107 85 54 34 21 10 2 -1 -3 -4 -4 -4 -4 -4 -4 -4 -4 -4 -4 -4 -4 -4 -4 -4 -4 -4 -4 -4 -4 -4 -4 -3 2 28 92 
92 28 2 -3 -4 -4 -4 -4 -4 -4 -4 -4 -4 -4 -4 -4 -4 -4 -4 -4 -4 -4 -4 -4 -4 -4 -4 -4 -4 -4 -4 -4 -4 -4 -4 -3 -3 -3 -3 -3 -3 -3 -1 0 1 2 2 2 2 4 10 20 26 28 28 28 29 30 36 52 76 89 97 111 126 110 66 41 38 55 85 107 109 95 77 50 27 11 4 0 -1 -3 -4 -4 -4 -4 -4 -4 -4 -4 -4 -4 -4 -4 -4 -4 -4 -4 -4 -4 -4 -4 -4 -4 -4 -4 -3 2 28 92 
92 28 2 -3 -4 -4 -4 -4 -4 -4 -4 -4 -4 -4 -4 -4 -4 -4 -4 -4 -4 -4 -4 -4 -4 -4 -4 -4 -4 -4 -4 -4 -4 -4 -4 -4 -4 -4 -4 -4 -4 -4 -4 -4 -3 -3 -3 -3 -3 -3 -1 0 1 2 2 2 2 2 4 10 20 26 30 39 66 110 126 113 105 111 108 85 54 34 21 10 2 -1 -3 -3 -4 -4 -4 -4 -4 -4 -4 -4 -4 -4 -4 -4 -4 -4 -4 -4 -4 -4 -4 -4 -4 -4 -4 -4 -4 -4 -3 2 28 92 
92 28 2 -3 -4 -4 -4 -4 -4 -4 -4 -4 -4 -4 -4 -4 -4 -4 -4 -4 -4 -4 -4 -4 -4 -4 -4 -4 -4 -4 -4 -4 -4 -4 -4 -4 -4 -4 -4 -4 -4 -4 -4 -4 -4 -4 -4 -4 -4 -4 -4 -4 -3 -3 -3 -3 -3 -3 -3 -1 0 1 2 6 22 67 133 144 107 80 50 27 12 4 0 -1 -3 -4 -4 -4 -4 -4 -4 -4 -4 -4 -4 -4 -4 -4 -4 -4 -4 -4 -4 -4 -4 -4 -4 -4 -4 -4 -4 -4 -4 -4 -3 2 28 92 
92 28 2 -3 -4 -4 -4 -4 -4 -4 -4 -4 -4 -4 -4 -4 -4 -4 -4 -4 -4 -4 -4 -4 -4 -4 -4 -4 -4 -4 -4 -4 -4 -4 -4 -4 -4 -4 -4 -4 -4 -4 -4 -4 -4 -4 -4 -4 -4 -4 -4 -4 -4 -4 -4 -4 -4 -4 -4 -4 -3 -3 -3 -1 7 39 107 113 56 26 11 2 -1 -3 -3 -4 -4 -4 -4 -4 -4 -4 -4 -4 -4 -4 -4 -4 -4 -4 -4 -4 -4 -4 -4 -4 -4 -4 -4 -4 -4 -4 -4 -4 -4 -4 -3 2 28 92 
93 29 3 -2 -3 -3 -3 -3 -3 -3 -3 -3 -3 -3 -3 -3 -3 -3 -3 -3 -3 -3 -3 -3 -3 -3 -3 -3 -3 -3 -3 -3 -3 -3 -3 -3 -3 -3 -3 -3 -3 -3 -3 -3 -3 -3 -3 -3 -3 -3 -3 -3 -3 -3 -3 -3 -3 -3 -3 -3 -3 -3 -3 -2 4 31 96 98 35 8 0 -2 -3 -3 -3 -3 -3 -3 -3 -3 -3 -3 -3 -3 -3 -3 -3 -3 -3 -3 -3 -3 -3 -3 -3 -3 -3 -3 -3 -3 -3 -3 -3 -3 -3 -3 -2 3 29 93 
97 35 9 3 2 2 2 2 2 2 2 2 2 2 2 2 2 2 2 2 2 2 2 2 2 2 2 2 2 2 2 2 2 2 2 2 2 2 2 2 2 2 2 2 2 2 2 2 2 2 2 2 2 2 2 2 2 2 2 2 2 2 2 3 9 35 98 98 36 9 3 2 2 2 2 2 2 2 2 2 2 2 2 2 2 2 2 2 2 2 2 2 2 2 2 2 2 2 2 2 2 2 2 2 2 2 3 9 35 97 
114 58 35 29 28 28 28 28 28 28 28 28 28 28 28 28 28 28 28 28 28 28 28 28 28 28 28 28 28 28 28 28 28 28 28 28 28 28 28 28 28 28 28 28 28 28 28 28 28 28 28 28 28 28 28 28 28 28 28 28 28 28 28 29 35 58 114 114 59 35 29 29 28 28 28 28 28 28 28 28 28 28 28 28 28 28 28 28 28 28 28 28 28 28 28 28 28 28 28 28 28 28 28 28 28 28 29 35 58 114 
153 114 97 93 92 92 92 92 92 92 92 92 92 92 92 92 92 92 92 92 92 92 92 92 92 92 92 92 92 92 93 94 97 100 98 94 93 92 92 92 92 92 92 92 92 92 92 93 95 99 99 95 93 92 92 92 92 92 92 92 92 92 92 93 96 111 143 143 111 96 93 92 92 92 92 92 92 92 92 92 92 92 92 92 92 92 92 92 92 93 94 97 100 98 94 93 92 92 92 92 92 93 94 97 100 98 95 97 114 153 
