P2
110 110
255
155 121 102 96 95 95 95 95 95 95 95 95 95 95 95 95 95 95 95 95 95 95 95 95 95 95 95 95 95 97 102 116 139 147 128 107 98 95 95 95 95 95 95 95 95 95 96 101 117 143 143 116 101 96 95 95 95 95 95 95 95 95 95 95 96 98 103 103 98 96 95 95 95 95 95 95 95 95 95 95 95 95 95 95 95 95 95 95 96 99 111 134 148 130 108 98 96 95 95 95 96 98 109 132 148 131 110 105 121 155 
121 73 46 39 37 37 37 37 37 37 37 37 37 37 37 37 37 37 37 37 37 37 37 37 37 37 37 37 38 43 57 91 128 118 77 50 40 37 37 37 37 37 37 37 37 37 39 47 75 123 121 72 46 39 37 37 37 37 37 37 37 37 37 37 37 37 37 37 37 37 37 37 37 37 37 37 37 37 37 37 37 37 37 37 37 37 37 37 39 48 74 118 126 83 52 41 38 37 37 37 38 45 66 111 128 87 55 50 73 121 
102 46 17 9 7 7 7 6 6 6 6 6 6 6 6 6 6 6 6 6 6 6 6 6 6 7 7 7 10 20 48 96 113 72 32 14 8 7 7 7 6 6 6 7 7 7 10 21 56 112 104 46 17 9 7 7 7 6 6 6 6 6 6 6 6 6 6 6 6 6 6 6 6 6 6 6 6 6 6 6 6 6 6 6 6 7 7 7 11 27 67 113 92 43 17 9 7 7 7 7 9 17 46 100 105 52 22 20 47 102 
96 39 9 0 -1 -1 -1 -1 -1 -1 -1 -1 -1 -1 -1 -1 -1 -1 -1 -1 -1 -1 -1 -1 -1 -1 -1 0 7 28 70 109 88 39 11 1 0 -1 -1 -1 -1 -1 -1 -1 -1 0 4 21 66 124 102 38 8 0 -1 -1 -1 -1 -1 -1 -1 -1 -1 -1 -1 -1 -1 -1 -1 -1 -1 -1 -1 -1 -1 -1 -1 -1 -1 -1 -1 -1 -1 -1 -1 -1 -1 0 7 31 82 109 63 20 4 0 -1 -1 -1 -1 1 12 47 102 93 37 10 11 39 96 
95 37 7 -1 -3 -3 -3 -3 -3 -3 -3 -3 -3 -3 -3 -3 -3 -3 -3 -3 -3 -3 -3 -3 -3 -3 -2 2 17 54 101 101 54 17 2 -2 -3 -3 -3 -3 -3 -3 -3 -3 -2 0 8 36 94 142 103 37 7 -1 -3 -3 -3 -3 -3 -3 -3 -3 -3 -3 -3 -3 -3 -3 -3 -3 -3 -3 -3 -3 -3 -3 -3 -3 -3 -3 -3 -3 -3 -3 -3 -3 -2 0 10 43 97 97 43 10 0 -2 -3 -3 -3 -2 1 17 60 108 79 27 6 8 37 95 
95 37 7 -1 -3 -3 -3 -3 -3 -3 -3 -3 -3 -3 -3 -3 -3 -3 -3 -3 -3 -3 -3 -3 -3 -2 0 10 38 87 108 68 26 5 -1 -3 -3 -3 -3 -3 -3 -3 -3 -3 -2 2 18 60 120 147 103 37 7 -1 -3 -3 -3 -3 -3 -3 -3 -3 -3 -3 -3 -3 -3 -3 -3 -3 -3 -3 -3 -3 -3 -3 -3 -3 -3 -3 -3 -3 -3 -3 -3 -3 -2 2 19 62 108 80 29 4 -1 -3 -3 -3 -3 -2 4 27 79 108 60 17 3 7 37 95 
95 37 7 -1 -3 -3 -3 -3 -3 -3 -3 -3 -3 -3 -3 -3 -3 -3 -3 -3 -3 -3 -3 -3 -3 -1 5 26 68 108 87 38 9 0 -3 -3 -3 -3 -3 -3 -3 -3 -3 -3 0 8 36 90 130 138 102 39 7 -1 -3 -3 -3 -3 -3 -3 -3 -3 -3 -3 -3 -3 -3 -3 -3 -3 -3 -3 -3 -3 -3 -3 -3 -3 -3 -3 -3 -3 -3 -3 -3 -3 -1 7 35 88 106 57 16 1 -2 -3 -3 -3 -3 -1 6 35 91 100 45 10 1 7 37 95 
95 37 6 -1 -3 -3 -3 -3 -3 -3 -3 -3 -3 -3 -3 -3 -3 -3 -3 -3 -3 -3 -3 -3 -2 2 17 54 101 101 54 17 2 -2 -3 -3 -3 -3 -3 -3 -3 -3 -3 -2 2 19 60 111 117 121 105 45 10 0 -3 -3 -3 -3 -3 -3 -3 -3 -3 -3 -3 -3 -3 -3 -3 -3 -3 -3 -3 -3 -3 -3 -3 -3 -3 -3 -3 -3 -3 -3 -3 -2 1 16 57 106 88 35 7 -1 -3 -3 -3 -3 -3 0 10 45 100 91 35 7 0 7 37 95 
95 37 6 -1 -3 -3 -3 -3 -3 -3 -3 -3 -3 -3 -3 -3 -3 -3 -3 -3 -3 -3 -3 -3 0 9 38 87 108 68 26 5 -1 -3 -3 -3 -3 -3 -3 -3 -3 -3 -3 0 10 39 89 111 88 98 111 60 17 1 -2 -3 -3 -3 -3 -3 -3 -3 -3 -3 -3 -3 -3 -3 -3 -3 -3 -3 -3 -3 -3 -3 -3 -3 -3 -3 -3 -3 -3 -3 -3 -1 4 29 80 108 62 19 2 -2 -3 -3 -3 -3 -2 1 17 60 108 79 27 4 0 7 37 95 
95 37 7 -1 -3 -3 -3 -3 -3 -3 -3 -3 -3 -3 -3 -3 -3 -3 -3 -3 -3 -3 -3 -1 5 26 68 108 87 38 9 0 -3 -3 -3 -3 -3 -3 -3 -3 -3 -3 -1 5 26 69 108 90 55 71 110 78 26 3 -2 -3 -3 -3 -3 -3 -3 -3 -3 -3 -3 -3 -3 -3 -3 -3 -3 -3 -3 -3 -3 -3 -3 -3 -3 -3 -3 -3 -3 -3 -3 0 10 43 97 97 43 10 0 -3 -3 -3 -3 -3 -2 4 27 79 108 60 17 1 0 7 37 95 
95 37 7 -1 -3 -3 -3 -3 -3 -3 -3 -3 -3 -3 -3 -3 -3 -3 -3 -3 -3 -3 -2 2 17 54 101 101 54 17 2 -2 -3 -3 -3 -3 -3 -3 -3 -3 -3 -2 1 16 54 101 101 57 30 51 102 89 33 5 -1 -3 -3 -3 -3 -3 -3 -3 -3 -3 -3 -3 -3 -3 -3 -3 -3 -3 -3 -3 -3 -3 -3 -3 -3 -3 -3 -3 -3 -3 -2 2 19 62 108 80 29 4 -1 -3 -3 -3 -3 -3 -1 6 35 91 100 45 10 0 -1 7 37 95 
95 37 7 -1 -3 -3 -3 -3 -3 -3 -3 -3 -3 -3 -3 -3 -3 -3 -3 -3 -3 -3 0 9 38 87 108 68 26 5 -1 -3 -3 -3 -3 -3 -3 -3 -3 -3 -3 -1 7 35 86 108 69 28 16 41 97 93 36 6 -1 -3 -3 -3 -3 -3 -3 -3 -3 -3 -3 -3 -3 -3 -3 -3 -3 -3 -3 -3 -3 -3 -3 -3 -3 -3 -3 -3 -3 -3 -1 7 35 88 106 57 16 1 -2 -3 -3 -3 -3 -3 0 10 45 100 91 35 6 -1 -1 7 37 95 
98 40 8 -1 -3 -3 -3 -3 -3 -3 -3 -3 -3 -3 -3 -3 -3 -3 -3 -3 -3 -1 5 26 68 108 87 38 9 0 -3 -3 -3 -3 -3 -3 -3 -3 -3 -3 -2 2 18 60 106 89 39 12 10 38 95 95 37 7 -1 -3 -3 -3 -3 -3 -3 -3 -3 -3 -3 -3 -3 -3 -3 -3 -3 -3 -3 -3 -3 -3 -3 -3 -3 -3 -3 -3 -3 -2 1 16 57 106 88 35 7 -1 -3 -3 -3 -3 -3 -2 1 17 60 108 79 27 4 -1 -1 7 37 95 
107 50 13 0 -2 -3 -3 -3 -3 -3 -3 -3 -3 -3 -3 -3 -3 -3 -3 -3 -2 2 17 54 101 101 54 17 2 -2 -3 -3 -3 -3 -3 -3 -3 -3 -3 -3 0 8 36 87 106 60 19 4 8 36 93 97 39 7 -1 -3 -3 -3 -3 -3 -3 -3 -3 -3 -3 -3 -3 -3 -3 -3 -3 -3 -3 -3 -3 -3 -3 -3 -3 -3 -3 -3 -3 -1 4 29 80 108 62 19 2 -2 -3 -3 -3 -3 -3 -2 4 27 79 108 60 17 1 -2 -1 6 37 97 
128 76 30 7 0 -2 -3 -3 -3 -3 -3 -3 -3 -3 -3 -3 -3 -3 -3 -3 0 9 38 87 108 68 26 5 -1 -3 -3 -3 -3 -3 -3 -3 -3 -3 -3 -2 2 19 60 106 87 36 8 0 6 33 89 101 46 10 0 -3 -3 -3 -3 -3 -3 -3 -3 -3 -3 -3 -3 -3 -3 -3 -3 -3 -3 -3 -3 -3 -3 -3 -3 -3 -3 -3 -3 0 10 43 97 97 43 10 0 -3 -3 -3 -3 -3 -3 -1 6 35 91 100 45 10 0 -2 -1 6 37 101 
147 116 65 26 6 0 -3 -3 -3 -3 -3 -3 -3 -3 -3 -3 -3 -3 -3 -1 5 26 68 108 87 38 9 0 -3 -3 -3 -3 -3 -3 -3 -3 -3 -3 -3 0 10 39 89 106 60 18 2 -1 4 26 78 108 60 17 1 -2 -3 -3 -3 -3 -3 -3 -3 -3 -3 -3 -3 -3 -3 -3 -3 -3 -3 -3 -3 -3 -3 -3 -3 -3 -3 -3 -2 2 19 62 108 80 29 4 -1 -3 -3 -3 -3 -3 -3 0 10 45 100 91 35 6 -1 -3 -1 6 36 103 
140 130 106 62 23 4 -1 -3 -3 -3 -3 -3 -3 -3 -3 -3 -3 -3 -2 2 17 54 101 101 54 17 2 -2 -3 -3 -3 -3 -3 -3 -3 -3 -3 -3 -1 5 26 69 108 86 35 7 0 -2 1 17 60 108 78 26 3 -2 -3 -3 -3 -3 -3 -3 -3 -3 -3 -3 -3 -3 -3 -3 -3 -3 -3 -3 -3 -3 -3 -3 -3 -3 -3 -3 -1 7 35 88 106 57 16 1 -2 -3 -3 -3 -3 -3 -2 1 17 60 108 79 27 4 -2 -3 -1 6 37 101 
118 101 111 100 53 17 2 -2 -3 -3 -3 -3 -3 -3 -3 -3 -3 -3 0 9 38 87 108 68 26 5 -1 -3 -3 -3 -3 -3 -3 -3 -3 -3 -3 -2 1 16 54 101 101 54 16 1 -2 -3 0 10 46 101 89 33 5 -1 -3 -3 -3 -3 -3 -3 -3 -3 -3 -3 -3 -3 -3 -3 -3 -3 -3 -3 -3 -3 -3 -3 -3 -3 -3 -2 1 16 57 106 88 35 7 -1 -3 -3 -3 -3 -3 -3 -2 4 27 79 108 60 17 1 -2 -3 -1 6 37 98 
104 69 80 109 87 38 10 0 -2 -3 -3 -3 -3 -3 -3 -3 -3 -1 5 26 68 108 87 38 9 0 -3 -3 -3 -3 -3 -3 -3 -3 -3 -3 -3 -1 7 35 86 108 69 26 5 -1 -3 -3 -1 7 39 97 93 36 6 -1 -3 -3 -3 -3 -3 -3 -3 -3 -3 -3 -3 -3 -3 -3 -3 -3 -3 -3 -3 -3 -3 -3 -3 -3 -3 -1 4 29 80 108 62 19 2 -2 -3 -3 -3 -3 -3 -3 -1 6 35 91 100 45 10 0 -3 -3 -1 6 37 96 
98 51 49 89 108 70 29 7 0 -2 -3 -3 -3 -3 -3 -3 -2 2 17 54 101 101 54 17 2 -2 -3 -3 -3 -3 -3 -3 -3 -3 -3 -3 -2 2 18 60 106 89 39 10 0 -3 -3 -3 -1 7 37 95 95 37 7 -1 -3 -3 -3 -3 -3 -3 -3 -3 -3 -3 -3 -3 -3 -3 -3 -3 -3 -3 -3 -3 -3 -3 -3 -3 -3 0 10 43 97 97 43 10 0 -3 -3 -3 -3 -3 -3 -3 0 10 45 100 91 35 6 -1 -3 -3 -1 6 37 95 
96 43 27 55 100 104 65 27 7 0 -2 -3 -3 -3 -3 -3 0 9 38 87 108 68 26 5 -1 -3 -3 -3 -3 -3 -3 -3 -3 -3 -3 -3 0 8 36 87 106 60 19 2 -2 -3 -3 -3 -1 6 36 93 97 39 7 -1 -3 -3 -3 -3 -3 -3 -3 -3 -3 -3 -3 -3 -3 -3 -3 -3 -3 -3 -3 -3 -3 -3 -3 -3 -2 2 19 62 108 80 29 4 -1 -3 -3 -3 -3 -3 -3 -2 1 17 60 108 79 27 4 -2 -3 -3 -1 6 37 95 
95 39 15 26 62 102 103 64 27 7 0 -2 -3 -3 -3 -1 5 26 68 108 87 38 9 0 -3 -3 -3 -3 -3 -3 -3 -3 -3 -3 -3 -2 2 19 60 106 87 36 8 0 -3 -3 -3 -3 -1 5 33 89 101 46 10 0 -3 -3 -3 -3 -3 -3 -3 -3 -3 -3 -3 -3 -3 -3 -3 -3 -3 -3 -3 -3 -3 -3 -3 -3 -1 7 35 88 106 57 16 1 -2 -3 -3 -3 -3 -3 -3 -2 4 27 79 108 60 17 1 -2 -3 -3 -1 6 37 95 
95 37 9 8 27 64 103 103 64 27 7 0 -2 -3 -2 2 17 54 101 101 54 17 2 -2 -3 -3 -3 -3 -3 -3 -3 -3 -3 -3 -3 0 10 39 89 106 60 18 2 -2 -3 -3 -3 -3 -2 3 26 78 108 60 17 1 -2 -3 -3 -3 -3 -3 -3 -3 -3 -3 -3 -3 -3 -3 -3 -3 -3 -3 -3 -3 -3 -3 -3 -2 1 16 57 106 88 35 7 -1 -3 -3 -3 -3 -3 -3 -3 -1 6 35 91 100 45 10 0 -3 -3 -3 -1 6 37 95 
95 37 7 1 7 27 64 103 103 64 27 7 0 -2 0 10 38 87 108 68 26 5 -1 -3 -3 -3 -3 -3 -3 -3 -3 -3 -3 -3 -1 5 26 69 108 86 35 7 -1 -3 -3 -3 -3 -3 -2 1 17 60 108 78 26 3 -2 -3 -3 -3 -3 -3 -3 -3 -3 -3 -3 -3 -3 -3 -3 -3 -3 -3 -3 -3 -3 -3 -3 -1 4 29 80 108 62 19 2 -2 -3 -3 -3 -3 -3 -3 -3 0 10 45 100 91 35 6 -1 -3 -3 -3 -1 6 37 95 
95 37 7 0 0 7 27 64 103 103 64 27 7 1 6 26 68 108 87 38 9 0 -3 -3 -3 -3 -3 -3 -3 -3 -3 -3 -3 -2 1 16 54 101 101 54 16 1 -2 -3 -3 -3 -3 -3 -3 0 10 46 101 89 33 5 -1 -3 -3 -3 -3 -3 -3 -3 -3 -3 -3 -3 -3 -3 -3 -3 -3 -3 -3 -3 -3 -3 -3 0 10 43 97 97 43 10 0 -3 -3 -3 -3 -3 -3 -3 -2 1 17 60 108 79 27 4 -2 -3 -3 -3 -1 6 37 95 
95 37 7 -1 -2 0 7 27 64 103 103 64 28 13 20 55 101 101 54 17 2 -2 -3 -3 -3 -3 -3 -3 -3 -3 -3 -3 -3 -1 7 35 86 108 69 26 5 -1 -3 -3 -3 -3 -3 -3 -3 -1 7 39 96 94 36 6 -1 -3 -3 -3 -3 -3 -3 -3 -3 -3 -3 -3 -3 -3 -3 -3 -3 -3 -3 -3 -3 -3 -2 2 19 62 108 80 29 4 -1 -3 -3 -3 -3 -3 -3 -3 -2 4 27 79 108 60 17 1 -2 -3 -3 -3 -1 6 37 95 
95 37 7 -1 -3 -2 0 7 27 64 103 103 67 40 48 89 108 68 26 5 -1 -3 -3 -3 -3 -3 -3 -3 -3 -3 -3 -3 -2 2 18 60 106 89 39 10 0 -3 -3 -3 -3 -3 -3 -3 -3 -1 6 36 94 96 39 7 -1 -3 -3 -3 -3 -3 -3 -3 -3 -3 -3 -3 -3 -3 -3 -3 -3 -3 -3 -3 -3 -3 -1 7 35 88 106 57 16 1 -2 -3 -3 -3 -3 -3 -3 -3 -1 6 35 91 100 45 10 0 -3 -3 -3 -3 -1 6 37 95 
95 37 6 -1 -3 -3 -2 0 7 27 64 104 109 89 93 113 87 38 9 0 -3 -3 -3 -3 -3 -3 -3 -3 -3 -3 -3 -3 0 8 36 87 106 60 19 2 -2 -3 -3 -3 -3 -3 -3 -3 -3 -1 5 33 89 101 46 10 0 -3 -3 -3 -3 -3 -3 -3 -3 -3 -3 -3 -3 -3 -3 -3 -3 -3 -3 -3 -3 -2 1 16 57 106 88 35 7 -1 -3 -3 -3 -3 -3 -3 -3 -3 0 10 45 100 91 35 6 -1 -3 -3 -3 -3 -1 6 37 95 
95 37 6 -1 -3 -3 -3 -2 0 7 27 65 111 136 136 107 54 17 2 -2 -3 -3 -3 -3 -3 -3 -3 -3 -3 -3 -3 -2 2 19 60 106 87 36 8 0 -3 -3 -3 -3 -3 -3 -3 -3 -3 -2 3 26 78 108 60 17 1 -2 -3 -3 -3 -3 -3 -3 -3 -3 -3 -3 -3 -3 -3 -3 -3 -3 -3 -3 -3 -1 4 29 80 108 62 19 2 -2 -3 -3 -3 -3 -3 -3 -3 -2 1 17 60 108 79 27 4 -2 -3 -3 -3 -3 -1 6 37 95 
95 37 6 -1 -3 -3 -3 -3 -2 0 8 30 76 133 133 75 27 5 -1 -3 -3 -3 -3 -3 -3 -3 -3 -3 -3 -3 -3 0 10 39 89 106 60 18 2 -2 -3 -3 -3 -3 -3 -3 -3 -3 -3 -2 1 17 60 108 78 26 3 -2 -3 -3 -3 -3 -3 -3 -3 -3 -3 -3 -3 -3 -3 -3 -3 -3 -3 -3 -3 0 10 43 97 97 43 10 0 -3 -3 -3 -3 -3 -3 -3 -3 -2 4 27 79 108 60 17 1 -2 -3 -3 -3 -3 -1 6 37 95 
95 37 6 -1 -3 -3 -3 -3 -3 -2 0 13 49 109 112 52 14 0 -2 -3 -3 -3 -3 -3 -3 -3 -3 -3 -3 -3 -1 5 26 69 108 86 35 7 -1 -3 -3 -3 -3 -3 -3 -3 -3 -3 -3 -3 0 10 46 101 89 33 5 -1 -3 -3 -3 -3 -3 -3 -3 -3 -3 -3 -3 -3 -3 -3 -3 -3 -3 -3 -2 2 19 62 108 80 29 4 -1 -3 -3 -3 -3 -3 -3 -3 -3 -1 6 35 91 100 45 10 0 -3 -3 -3 -3 -3 -1 6 37 95 
95 37 6 -1 -3 -3 -3 -3 -3 -3 -1 7 36 93 105 49 12 0 -3 -3 -3 -3 -3 -3 -3 -3 -3 -3 -3 -2 1 16 54 101 101 54 16 1 -2 -3 -3 -3 -3 -3 -3 -3 -3 -3 -3 -3 -1 7 39 97 93 36 6 -1 -3 -3 -3 -3 -3 -3 -3 -3 -3 -3 -3 -3 -3 -3 -3 -3 -3 -3 -1 7 35 88 106 57 16 1 -2 -3 -3 -3 -3 -3 -3 -3 -3 0 10 45 100 91 35 6 -1 -3 -3 -3 -3 -3 -1 6 37 95 
95 37 6 -1 -3 -3 -3 -3 -3 -3 -2 4 27 79 109 61 17 1 -2 -3 -3 -3 -3 -3 -3 -3 -3 -3 -3 -1 7 35 86 108 69 26 5 -1 -3 -3 -3 -3 -3 -3 -3 -3 -3 -3 -3 -3 -1 7 37 95 95 37 7 -1 -3 -3 -3 -3 -3 -3 -3 -3 -3 -3 -3 -3 -3 -3 -3 -3 -3 -2 1 16 57 106 88 35 7 -1 -3 -3 -3 -3 -3 -3 -3 -3 -2 1 17 60 108 79 27 4 -2 -3 -3 -3 -3 -3 -1 7 37 95 
95 37 6 -1 -3 -3 -3 -3 -3 -3 -2 1 17 60 108 79 26 3 -2 -3 -3 -3 -3 -3 -3 -3 -3 -3 -2 2 18 60 106 89 39 10 0 -3 -3 -3 -3 -3 -3 -3 -3 -3 -3 -3 -3 -3 -1 6 36 93 97 39 7 -1 -3 -3 -3 -3 -3 -3 -3 -3 -3 -3 -3 -3 -3 -3 -3 -3 -3 -1 4 29 80 108 62 19 2 -2 -3 -3 -3 -3 -3 -3 -3 -3 -2 4 27 79 108 60 17 1 -2 -3 -3 -3 -3 -3 -1 7 37 95 
95 37 6 -1 -3 -3 -3 -3 -3 -3 -3 0 10 45 101 90 33 6 -1 -3 -3 -3 -3 -3 -3 -3 -3 -3 0 8 36 87 106 60 19 2 -2 -3 -3 -3 -3 -3 -3 -3 -3 -3 -3 -3 -3 -3 -1 5 33 89 101 46 10 0 -3 -3 -3 -3 -3 -3 -3 -3 -3 -3 -3 -3 -3 -3 -3 -3 -3 0 10 43 97 97 43 10 0 -3 -3 -3 -3 -3 -3 -3 -3 -3 -1 6 35 91 100 45 10 0 -3 -3 -3 -3 -3 -3 -1 7 37 95 
95 37 6 -1 -3 -3 -3 -3 -3 -3 -3 -1 7 38 95 95 38 7 -1 -3 -3 -3 -3 -3 -3 -3 -3 -2 2 19 60 106 87 36 8 0 -3 -3 -3 -3 -3 -3 -3 -3 -3 -3 -3 -3 -3 -3 -2 3 26 78 108 60 17 1 -2 -3 -3 -3 -3 -3 -3 -3 -3 -3 -3 -3 -3 -3 -3 -3 -2 2 19 62 108 80 29 4 -1 -3 -3 -3 -3 -3 -3 -3 -3 -3 0 10 45 100 91 35 6 -1 -3 -3 -3 -3 -3 -3 -1 8 39 98 
97 37 6 -1 -3 -3 -3 -3 -3 -3 -3 -1 6 33 90 101 45 10 0 -3 -3 -3 -3 -3 -3 -3 -3 0 10 39 89 106 60 18 2 -2 -3 -3 -3 -3 -3 -3 -3 -3 -3 -3 -3 -3 -3 -3 -2 1 17 60 108 78 26 3 -2 -3 -3 -3 -3 -3 -3 -3 -3 -3 -3 -3 -3 -3 -3 -3 -1 7 35 88 106 57 16 1 -2 -3 -3 -3 -3 -3 -3 -3 -3 -2 1 17 60 108 79 27 4 -2 -3 -3 -3 -3 -3 -3 0 11 46 106 
100 37 6 -1 -3 -3 -3 -3 -3 -3 -3 -2 3 26 78 108 60 17 1 -2 -3 -3 -3 -3 -3 -3 -1 5 26 69 108 86 35 7 -1 -3 -3 -3 -3 -3 -3 -3 -3 -3 -3 -3 -3 -3 -3 -3 -3 0 10 46 101 89 33 5 -1 -3 -3 -3 -3 -3 -3 -3 -3 -3 -3 -3 -3 -3 -3 -2 1 16 57 106 88 35 7 -1 -3 -3 -3 -3 -3 -3 -3 -3 -3 -2 4 27 79 108 60 17 1 -2 -3 -3 -3 -3 -3 -2 2 20 65 123 
102 36 6 -1 -3 -3 -3 -3 -3 -3 -3 -2 1 17 60 108 78 26 3 -2 -3 -3 -3 -3 -3 -2 1 16 54 101 101 54 16 1 -2 -3 -3 -3 -3 -3 -3 -3 -3 -3 -3 -3 -3 -3 -3 -3 -3 -1 7 39 97 93 36 6 -1 -3 -3 -3 -3 -3 -3 -3 -3 -3 -3 -3 -3 -3 -3 -1 4 29 80 108 62 19 2 -2 -3 -3 -3 -3 -3 -3 -3 -3 -3 -1 6 35 91 100 45 10 0 -3 -3 -3 -3 -3 -3 0 9 39 95 142 
102 36 6 -1 -3 -3 -3 -3 -3 -3 -3 -3 0 10 45 101 90 33 6 -1 -3 -3 -3 -3 -3 -1 7 35 86 108 69 26 5 -1 -3 -3 -3 -3 -3 -3 -3 -3 -3 -3 -3 -3 -3 -3 -3 -3 -3 -1 7 37 95 95 37 7 -1 -3 -3 -3 -3 -3 -3 -3 -3 -3 -3 -3 -3 -3 -3 0 10 43 97 97 43 10 0 -3 -3 -3 -3 -3 -3 -3 -3 -3 -3 0 10 45 100 91 35 6 -1 -3 -3 -3 -3 -3 -1 5 25 69 123 147 
100 37 6 -1 -3 -3 -3 -3 -3 -3 -3 -3 -1 7 38 95 95 38 7 -1 -3 -3 -3 -3 -2 2 18 60 106 89 39 10 0 -3 -3 -3 -3 -3 -3 -3 -3 -3 -3 -3 -3 -3 -3 -3 -3 -3 -3 -1 6 36 93 97 39 7 -1 -3 -3 -3 -3 -3 -3 -3 -3 -3 -3 -3 -3 -3 -2 2 19 62 108 80 29 4 -1 -3 -3 -3 -3 -3 -3 -3 -3 -3 -2 1 17 60 108 79 27 4 -2 -3 -3 -3 -3 -2 2 17 54 104 129 135 
97 37 6 -1 -3 -3 -3 -3 -3 -3 -3 -3 -1 6 33 90 101 45 10 0 -3 -3 -3 -3 0 8 36 87 106 60 19 2 -2 -3 -3 -3 -3 -3 -3 -3 -3 -3 -3 -3 -3 -3 -3 -3 -3 -3 -3 -1 5 33 89 101 46 10 0 -3 -3 -3 -3 -3 -3 -3 -3 -3 -3 -3 -3 -3 -1 7 35 88 106 57 16 1 -2 -3 -3 -3 -3 -3 -3 -3 -3 -3 -2 4 27 79 108 60 17 1 -2 -3 -3 -3 -3 0 9 38 87 115 104 118 
96 37 6 -1 -3 -3 -3 -3 -3 -3 -3 -3 -2 3 26 78 108 60 17 1 -2 -3 -3 -2 2 19 60 106 87 36 8 0 -3 -3 -3 -3 -3 -3 -3 -3 -3 -3 -3 -3 -3 -3 -3 -3 -3 -3 -3 -2 3 26 79 108 60 17 1 -2 -3 -3 -3 -3 -3 -3 -3 -3 -3 -3 -3 -2 1 16 57 106 88 35 7 -1 -3 -3 -3 -3 -3 -3 -3 -3 -3 -3 -1 6 35 91 100 45 10 0 -3 -3 -3 -3 -1 5 26 68 109 96 77 106 
95 37 6 -1 -3 -3 -3 -3 -3 -3 -3 -3 -2 1 17 60 108 78 26 3 -2 -3 -3 0 10 39 89 106 60 18 2 -2 -3 -3 -3 -3 -3 -3 -3 -3 -3 -3 -3 -3 -3 -3 -3 -3 -3 -3 -3 -2 1 17 61 109 80 28 6 0 -1 -2 -2 -3 -3 -3 -3 -3 -3 -3 -3 -1 4 29 80 108 62 19 2 -2 -3 -3 -3 -3 -3 -3 -3 -3 -3 -3 0 10 45 100 91 35 6 -1 -3 -3 -3 -2 2 17 54 101 102 64 57 99 
95 37 6 -1 -3 -3 -3 -3 -3 -3 -3 -3 -3 0 10 45 101 90 33 6 -1 -3 -1 5 26 69 108 86 35 7 -1 -3 -3 -3 -3 -3 -3 -3 -3 -3 -3 -3 -3 -3 -3 -3 -3 -3 -3 -3 -3 -2 0 12 49 106 96 43 16 8 6 3 1 0 -1 -1 -1 -1 -2 -2 -2 0 10 43 97 97 43 10 0 -3 -3 -3 -3 -3 -3 -3 -3 -3 -3 -2 1 17 60 108 79 27 4 -2 -3 -3 -3 0 9 38 87 108 70 36 46 97 
95 37 6 -1 -3 -3 -3 -3 -3 -3 -3 -3 -3 -1 7 38 95 95 38 7 -1 -2 1 16 54 101 101 54 16 1 -2 -3 -3 -3 -3 -3 -3 -3 -3 -3 -3 -3 -3 -3 -3 -3 -3 -3 -3 -3 -3 -1 3 18 55 114 118 71 46 38 33 26 17 10 7 7 6 5 3 1 0 4 21 63 108 80 29 4 -1 -3 -3 -3 -3 -3 -3 -3 -3 -3 -3 -2 4 27 79 108 60 17 1 -2 -3 -3 -1 5 26 68 108 87 40 20 40 95 
95 37 6 -1 -3 -3 -3 -3 -3 -3 -3 -3 -3 -1 6 33 90 101 45 10 0 0 7 35 86 108 69 26 5 -1 -3 -3 -3 -3 -3 -3 -3 -3 -3 -3 -3 -3 -3 -3 -3 -3 -3 -3 -3 -2 0 5 18 42 83 135 144 117 101 95 89 78 60 46 39 37 36 33 26 17 12 18 43 91 107 57 16 1 -2 -3 -3 -3 -3 -3 -3 -3 -3 -3 -3 -1 6 35 91 100 45 10 0 -3 -3 -2 2 17 54 101 101 54 19 12 38 95 
95 37 6 -1 -3 -3 -3 -3 -3 -3 -3 -3 -3 -2 3 26 78 108 60 17 2 2 18 60 106 89 39 10 0 -3 -3 -3 -3 -3 -3 -3 -3 -3 -3 -3 -3 -3 -3 -3 -3 -3 -3 -3 -1 2 9 26 54 89 115 124 114 102 97 97 101 108 108 101 97 95 93 89 78 61 49 55 84 117 91 37 8 -1 -3 -3 -3 -3 -3 -3 -3 -3 -3 -3 -3 0 10 45 100 91 35 6 -1 -3 -2 0 9 38 87 108 68 26 7 9 37 95 
95 37 6 -1 -3 -3 -3 -3 -3 -3 -3 -3 -3 -2 1 17 60 108 79 27 6 9 36 87 106 60 19 2 -2 -3 -3 -3 -3 -3 -3 -3 -3 -3 -3 -3 -3 -3 -3 -3 -3 -3 -2 0 5 17 38 68 101 108 91 65 47 39 38 39 46 60 78 89 93 95 97 101 108 109 105 113 135 133 74 23 3 -2 -3 -3 -3 -3 -3 -3 -3 -3 -3 -3 -2 1 17 60 108 79 27 4 -2 -3 -1 5 26 68 108 87 38 10 1 7 37 95 
95 37 6 -1 -3 -3 -3 -3 -3 -3 -3 -3 -3 -3 0 10 45 101 90 35 12 21 61 106 87 36 8 0 -3 -3 -3 -3 -3 -3 -3 -3 -3 -3 -3 -3 -3 -3 -3 -3 -3 -1 1 9 26 54 87 108 101 69 39 20 11 8 7 8 10 17 26 33 36 37 39 46 60 79 94 110 135 133 74 24 4 -1 -3 -3 -3 -3 -3 -3 -3 -3 -3 -3 -2 4 27 79 108 60 17 1 -2 -2 2 17 54 101 101 54 17 2 0 7 37 95 
95 37 6 -1 -3 -3 -3 -3 -3 -3 -3 -3 -3 -3 -1 7 38 95 96 42 21 41 89 106 60 18 2 -2 -3 -3 -3 -3 -3 -3 -3 -3 -3 -3 -3 -3 -3 -3 -3 -2 0 4 17 38 68 101 108 87 54 26 10 2 0 -1 -1 -1 0 1 3 5 6 7 7 10 17 27 37 51 83 117 93 41 11 1 -2 -3 -3 -3 -3 -3 -3 -3 -3 -3 -1 7 36 92 100 45 10 0 -2 0 9 38 87 108 68 26 5 -1 -1 7 37 95 
95 37 6 -1 -3 -3 -3 -3 -3 -3 -3 -3 -3 -3 -1 6 33 90 102 54 40 71 108 86 35 7 -1 -3 -3 -3 -3 -3 -3 -3 -3 -3 -3 -3 -3 -3 -3 -3 -2 0 7 24 53 87 108 101 68 38 17 5 0 -2 -3 -3 -3 -3 -3 -2 -2 -1 -1 -1 -1 0 1 4 8 16 42 89 110 72 31 11 2 0 -1 -1 -1 -1 -1 -1 -1 -1 1 12 46 101 92 36 7 -1 -1 5 26 68 108 87 38 9 0 -2 -1 7 37 95 
95 37 6 -1 -3 -3 -3 -3 -3 -3 -3 -3 -3 -3 -2 3 26 79 111 79 73 105 101 54 16 1 -2 -3 -3 -3 -3 -3 -3 -3 -3 -3 -3 -3 -3 -3 -3 -1 2 10 28 63 100 108 87 54 26 9 2 -1 -3 -3 -3 -3 -3 -3 -3 -3 -3 -3 -3 -3 -3 -3 -2 -2 0 3 18 55 103 110 73 40 20 11 8 7 7 7 6 7 7 7 11 26 67 112 83 29 5 0 2 17 54 101 101 54 17 2 -2 -3 -1 7 37 95 
95 37 6 -1 -3 -3 -3 -3 -3 -3 -3 -3 -3 -3 -2 1 17 60 113 112 111 111 69 26 5 -1 -3 -3 -3 -3 -3 -3 -3 -3 -3 -3 -3 -3 -3 -2 0 5 17 38 70 103 103 70 38 17 5 0 -2 -3 -3 -3 -3 -3 -3 -3 -3 -3 -3 -3 -3 -3 -3 -3 -3 -3 -3 -1 5 27 74 126 128 95 64 46 39 37 37 37 37 37 37 38 43 63 104 125 75 27 7 3 11 38 87 108 68 26 5 -1 -3 -3 -1 6 37 95 
95 37 6 -1 -3 -3 -3 -3 -3 -3 -3 -3 -3 -3 -3 0 10 45 108 136 129 91 39 10 0 -3 -3 -3 -3 -3 -3 -3 -3 -3 -3 -3 -3 -3 -1 2 9 26 54 87 108 100 63 28 10 2 -1 -3 -3 -3 -3 -3 -3 -3 -3 -3 -3 -3 -3 -3 -3 -3 -3 -3 -3 -3 -3 -2 0 14 52 118 147 129 113 102 97 95 95 95 95 95 95 96 100 114 141 140 91 46 23 16 30 70 108 87 38 9 0 -3 -3 -3 -1 6 37 95 
95 37 6 -1 -3 -3 -3 -3 -3 -3 -3 -3 -3 -3 -3 -1 7 39 105 147 120 61 19 2 -2 -3 -3 -3 -3 -3 -3 -3 -3 -3 -3 -3 -2 0 5 17 38 68 101 108 87 53 24 7 0 -2 -3 -3 -3 -3 -3 -3 -3 -3 -3 -3 -3 -3 -3 -3 -3 -3 -3 -3 -3 -3 -3 -3 0 12 49 110 119 90 86 91 94 95 95 95 95 95 95 95 96 101 113 125 117 92 65 53 70 106 103 55 17 2 -2 -3 -3 -3 -1 6 37 95 
95 37 6 -1 -3 -3 -3 -3 -3 -3 -3 -3 -3 -3 -3 -1 6 37 103 142 93 36 8 -1 -3 -3 -3 -3 -3 -3 -3 -3 -3 -3 -2 -1 1 9 25 54 87 108 101 69 38 17 4 0 -2 -3 -3 -3 -3 -3 -3 -3 -3 -3 -3 -3 -3 -3 -3 -3 -3 -3 -3 -3 -3 -3 -3 -2 1 17 61 111 88 46 34 34 36 37 37 37 37 37 37 37 37 39 47 64 89 108 111 110 122 123 76 28 5 -1 -3 -3 -3 -3 -1 6 37 95 
95 37 6 -1 -3 -3 -3 -3 -3 -3 -3 -3 -3 -3 -3 -1 6 37 100 123 64 19 2 -2 -3 -3 -3 -3 -3 -3 -3 -3 -2 -1 0 5 16 38 69 103 110 89 56 27 10 2 -1 -2 -3 -3 -3 -3 -3 -3 -3 -3 -3 -3 -3 -3 -3 -3 -3 -3 -3 -3 -3 -3 -3 -3 -3 -2 3 26 79 109 62 22 8 6 6 6 6 6 6 6 6 7 7 7 11 19 36 60 91 122 147 125 62 19 2 -2 -3 -3 -3 -3 -1 6 37 95 
95 37 6 -1 -3 -3 -3 -3 -3 -3 -3 -3 -3 -3 -3 -1 7 37 97 105 46 10 0 -3 -3 -3 -3 -3 -3 -3 -2 -1 1 5 11 26 54 92 120 116 82 49 27 12 4 0 -1 -2 -2 -3 -3 -3 -3 -3 -3 -3 -3 -3 -3 -3 -3 -3 -3 -3 -3 -3 -3 -3 -3 -3 -3 -1 5 33 89 101 46 11 0 -1 -1 -1 -1 -1 -1 -1 -1 -1 -1 -1 0 2 8 19 39 73 117 125 76 28 5 -1 -3 -3 -3 -3 -1 6 37 95 
95 37 6 -1 -3 -3 -3 -3 -3 -3 -3 -3 -3 -3 -3 -1 7 39 97 96 38 7 -1 -3 -3 -3 -3 -3 -2 -1 1 7 16 29 45 72 111 142 143 112 74 51 39 29 17 10 6 4 1 0 -1 -1 -2 -2 -3 -3 -3 -3 -3 -3 -3 -3 -3 -3 -3 -3 -3 -3 -3 -3 -3 -1 6 36 94 96 39 8 -1 -3 -3 -3 -3 -3 -3 -3 -3 -3 -3 -3 -3 -2 0 2 10 29 67 108 103 55 17 2 -2 -3 -3 -3 -1 6 37 95 
95 37 6 -1 -3 -3 -3 -3 -3 -3 -3 -3 -3 -3 -3 0 10 46 101 90 33 6 -1 -3 -3 -2 -1 0 2 8 18 35 57 81 99 114 121 122 125 121 108 98 91 79 60 45 35 27 17 10 7 6 3 1 0 -1 -2 -2 -3 -3 -3 -3 -3 -3 -3 -3 -3 -3 -3 -3 -3 -1 7 39 96 94 36 6 -1 -3 -3 -3 -3 -3 -3 -3 -3 -3 -3 -3 -3 -3 -3 -2 0 8 29 71 108 87 38 9 0 -3 -3 -3 -1 6 37 95 
95 37 6 -1 -3 -3 -3 -3 -3 -3 -3 -3 -3 -3 -2 1 17 60 108 79 26 4 -1 -2 -1 1 4 10 19 36 60 87 106 108 97 82 63 55 63 80 90 96 101 108 108 100 91 79 60 45 38 33 26 17 10 6 4 1 0 -1 -1 -2 -2 -3 -3 -3 -3 -3 -3 -3 -3 0 10 46 101 89 33 5 -1 -3 -3 -3 -3 -3 -3 -3 -3 -3 -3 -3 -3 -3 -3 -3 -2 0 10 38 87 108 68 26 5 -1 -3 -3 -1 6 37 95 
95 37 6 -1 -3 -3 -3 -3 -3 -3 -3 -3 -3 -3 -2 3 26 79 108 60 17 2 0 2 7 16 29 43 62 88 106 106 88 62 43 29 18 14 18 26 33 38 45 60 79 91 100 108 108 101 95 90 78 60 45 35 27 17 10 7 6 3 1 0 -1 -2 -2 -3 -3 -3 -2 1 17 60 108 78 26 3 -2 -3 -3 -3 -3 -3 -3 -3 -3 -3 -3 -3 -3 -3 -3 -3 -3 -2 2 17 54 101 101 54 17 2 -2 -3 -1 7 37 95 
95 37 6 -1 -3 -3 -3 -3 -3 -3 -3 -3 -3 -3 -1 6 33 90 101 47 13 5 8 18 35 57 80 97 108 106 87 60 36 19 10 5 1 0 1 3 6 7 10 17 27 35 45 60 78 90 95 101 108 108 100 91 79 60 45 38 33 26 17 10 6 4 1 0 -1 -1 0 4 27 79 108 60 17 1 -2 -3 -3 -3 -3 -3 -3 -3 -3 -3 -3 -3 -3 -3 -3 -3 -3 -3 -1 5 26 68 108 87 38 10 0 -2 -1 7 37 95 
95 37 6 -1 -3 -3 -3 -3 -3 -3 -3 -3 -3 -3 -1 7 38 96 98 44 19 21 36 60 87 106 108 97 80 57 35 18 8 2 0 -1 -2 -3 -2 -2 -1 -1 0 1 4 6 10 17 26 33 38 45 60 79 91 100 108 108 101 95 90 78 60 45 35 27 17 10 7 6 5 10 36 91 101 46 10 0 -3 -3 -3 -3 -3 -3 -3 -3 -3 -3 -3 -3 -3 -3 -3 -3 -3 -3 -3 0 9 38 87 108 70 29 7 0 0 7 37 95 
95 37 6 -1 -3 -3 -3 -3 -3 -3 -3 -3 -3 -3 0 11 46 104 101 56 46 62 88 106 106 88 62 43 29 16 7 1 -1 -2 -3 -3 -3 -3 -3 -3 -3 -3 -3 -2 -2 -1 0 1 3 6 7 10 17 27 35 45 60 78 90 95 101 108 108 100 91 79 60 45 38 34 28 27 49 100 98 39 7 -1 -3 -3 -3 -3 -3 -3 -3 -3 -3 -3 -3 -3 -3 -3 -3 -3 -3 -3 -3 -2 1 17 53 100 103 63 24 5 0 7 37 95 
95 37 6 -1 -3 -3 -3 -3 -3 -3 -3 -3 -3 -2 2 19 64 122 117 90 95 107 106 87 60 36 19 10 4 1 -1 -2 -3 -3 -3 -3 -3 -3 -3 -3 -3 -3 -3 -3 -3 -3 -3 -2 -2 -1 -1 0 1 4 6 10 17 26 33 38 45 60 79 91 100 108 108 101 95 90 80 69 80 118 99 37 7 -1 -3 -3 -3 -3 -3 -3 -3 -3 -3 -3 -3 -3 -3 -3 -3 -3 -3 -3 -3 -3 -1 4 24 63 103 100 53 17 4 8 37 95 
95 37 6 -1 -3 -3 -3 -3 -3 -3 -3 -3 -3 -1 8 36 94 144 138 120 108 87 60 36 18 8 2 0 -1 -2 -3 -3 -3 -3 -3 -3 -3 -3 -3 -3 -3 -3 -3 -3 -3 -3 -3 -3 -3 -3 -3 -3 -2 -2 -1 0 1 3 6 7 10 17 27 35 45 60 78 90 95 101 109 114 126 144 103 37 6 -1 -3 -3 -3 -3 -3 -3 -3 -3 -3 -3 -3 -3 -3 -3 -3 -3 -3 -3 -3 -3 -3 0 7 28 70 108 87 39 12 10 38 95 
95 37 6 -1 -3 -3 -3 -3 -3 -3 -3 -3 -2 2 19 61 117 131 108 83 57 35 18 8 2 -1 -2 -3 -3 -3 -3 -3 -3 -3 -3 -3 -3 -3 -3 -3 -3 -3 -3 -3 -3 -3 -3 -3 -3 -3 -3 -3 -3 -3 -3 -3 -2 -2 -1 -1 0 1 4 6 10 17 26 33 38 46 61 86 115 142 102 37 6 -1 -3 -3 -3 -3 -3 -3 -3 -3 -3 -3 -3 -3 -3 -3 -3 -3 -3 -3 -3 -3 -3 -2 0 10 38 87 108 70 31 17 40 95 
95 37 6 -1 -3 -3 -3 -3 -3 -3 -3 -3 0 10 39 90 114 81 48 30 16 7 1 -1 -2 -3 -3 -3 -3 -3 -3 -3 -3 -3 -3 -3 -3 -3 -3 -3 -3 -3 -3 -3 -3 -3 -3 -3 -3 -3 -3 -3 -3 -3 -3 -3 -3 -3 -3 -3 -3 -2 -2 -1 0 1 3 6 7 10 19 36 69 115 98 37 6 -1 -3 -3 -3 -3 -3 -3 -3 -3 -3 -3 -3 -3 -3 -3 -3 -3 -3 -3 -3 -3 -3 -3 -2 2 17 53 100 104 65 34 45 96 
95 37 6 -1 -3 -3 -3 -3 -3 -3 -3 -1 5 26 69 108 88 41 15 6 1 -1 -2 -3 -3 -3 -3 -3 -3 -3 -3 -3 -3 -3 -3 -3 -3 -3 -3 -3 -3 -3 -3 -3 -3 -3 -3 -3 -3 -3 -3 -3 -3 -3 -3 -3 -3 -3 -3 -3 -3 -3 -3 -3 -3 -2 -2 -1 -1 0 3 14 45 100 96 37 7 -1 -3 -3 -3 -3 -3 -3 -3 -3 -3 -3 -3 -3 -3 -3 -3 -3 -3 -3 -3 -3 -3 -3 -3 -1 4 24 63 104 101 63 57 99 
96 37 6 -1 -3 -3 -3 -3 -3 -3 -2 2 17 54 101 101 54 18 3 -1 -2 -3 -3 -3 -3 -3 -3 -3 -3 -3 -3 -3 -3 -3 -3 -3 -3 -3 -3 -3 -3 -3 -3 -3 -3 -3 -3 -3 -3 -3 -3 -3 -3 -3 -3 -3 -3 -3 -3 -3 -3 -3 -3 -3 -3 -3 -3 -3 -3 -2 0 8 39 96 96 37 7 -1 -3 -3 -3 -3 -3 -3 -3 -3 -3 -3 -3 -3 -3 -3 -3 -3 -3 -3 -3 -3 -3 -3 -3 -3 0 7 28 70 109 96 77 106 
97 37 6 -1 -3 -3 -3 -3 -3 -2 0 10 38 87 108 69 26 5 -1 -3 -3 -3 -3 -3 -3 -3 -3 -3 -3 -3 -3 -3 -3 -3 -3 -3 -3 -3 -3 -3 -3 -3 -3 -3 -3 -3 -3 -3 -3 -3 -3 -3 -3 -3 -3 -3 -3 -3 -3 -3 -3 -3 -3 -3 -3 -3 -3 -3 -3 -3 -1 7 37 95 98 40 8 0 -3 -3 -3 -3 -3 -3 -3 -3 -3 -3 -3 -3 -3 -3 -3 -3 -3 -3 -3 -3 -3 -3 -3 -3 -2 0 10 38 88 115 104 118 
100 37 6 -1 -3 -3 -3 -3 -2 0 7 29 70 109 89 40 11 0 -2 -3 -3 -3 -3 -3 -3 -3 -3 -3 -3 -3 -3 -3 -3 -3 -3 -3 -3 -3 -3 -3 -3 -3 -3 -3 -3 -3 -3 -3 -3 -3 -3 -3 -3 -3 -3 -3 -3 -3 -3 -3 -3 -3 -3 -3 -3 -3 -3 -3 -3 -3 0 8 38 95 105 50 14 1 -2 -3 -3 -3 -3 -3 -3 -3 -3 -3 -3 -3 -3 -3 -3 -3 -3 -3 -3 -3 -3 -3 -3 -3 -3 -2 2 17 54 104 129 135 
102 36 6 -1 -3 -3 -3 -2 0 7 27 65 108 108 63 26 9 2 0 -1 -1 -1 -1 -1 -1 -1 -1 -1 -2 -2 -3 -3 -3 -3 -3 -3 -3 -3 -3 -3 -3 -3 -3 -3 -3 -3 -3 -3 -3 -3 -3 -3 -3 -3 -3 -3 -3 -3 -3 -3 -3 -3 -3 -3 -3 -3 -3 -3 -3 -1 3 15 45 102 125 77 32 11 2 0 -2 -3 -3 -3 -3 -3 -3 -3 -3 -3 -3 -3 -3 -3 -3 -3 -3 -3 -3 -3 -3 -3 -3 -3 -1 5 25 69 123 147 
102 36 6 -1 -3 -3 -2 0 7 26 65 113 129 99 63 41 28 17 10 8 7 7 7 6 6 6 6 5 3 1 0 -1 -1 -1 -1 -1 -1 -1 -1 -2 -2 -3 -3 -3 -3 -3 -3 -3 -3 -3 -3 -3 -3 -3 -3 -3 -3 -3 -3 -3 -3 -3 -3 -3 -3 -3 -3 -2 0 5 17 39 73 121 147 120 73 39 19 8 1 -1 -3 -3 -3 -3 -3 -3 -3 -3 -3 -3 -3 -3 -3 -3 -3 -3 -3 -3 -3 -3 -3 -3 -3 0 9 39 95 142 
100 37 6 -1 -3 -2 0 7 27 65 114 146 140 118 102 92 79 60 46 39 37 37 37 37 37 37 36 33 26 17 10 7 7 7 6 6 6 6 5 3 1 0 -1 -1 -1 -1 -1 -1 -1 -1 -1 -2 -2 -3 -3 -3 -3 -3 -3 -3 -3 -3 -3 -3 -3 -2 -1 2 10 26 54 87 111 121 123 123 113 89 60 35 16 5 0 -2 -3 -3 -3 -3 -3 -3 -3 -3 -3 -3 -3 -3 -3 -3 -3 -3 -3 -3 -3 -3 -3 -2 2 20 65 123 
97 37 6 -1 -2 0 7 27 64 106 122 115 105 99 98 101 108 108 101 97 95 95 95 95 95 94 93 89 78 60 46 39 37 37 37 37 37 36 33 26 17 10 7 7 7 7 6 6 6 6 5 3 1 0 -1 -1 -1 -1 -1 -1 -1 -1 -2 -2 -1 1 8 19 39 69 101 108 90 67 56 67 89 107 106 86 54 26 10 2 -1 -2 -3 -3 -3 -3 -3 -3 -3 -3 -3 -3 -3 -3 -3 -3 -3 -3 -3 -3 -3 -3 0 11 46 106 
95 37 7 0 0 7 27 64 103 106 75 50 40 38 39 46 60 78 89 93 94 95 95 95 95 95 97 101 108 108 101 97 95 95 95 95 94 93 89 78 60 46 39 37 37 37 37 37 37 36 33 26 17 10 7 7 7 6 6 6 6 5 4 3 6 17 35 60 89 108 101 69 39 21 15 20 36 60 89 108 101 69 39 19 8 1 -1 -3 -3 -3 -3 -3 -3 -3 -3 -3 -3 -3 -3 -3 -3 -3 -3 -3 -3 -3 -1 8 39 98 
95 37 9 4 11 29 65 103 103 65 30 13 8 7 8 10 17 26 33 36 37 37 37 37 37 37 39 46 60 78 89 93 94 95 95 95 95 97 101 108 108 101 97 95 95 95 95 95 94 93 89 78 60 46 39 37 37 37 37 37 36 33 28 23 30 55 86 106 106 86 54 26 10 2 0 2 8 19 39 69 101 108 89 60 35 16 5 0 -2 -3 -3 -3 -3 -3 -3 -3 -3 -3 -3 -3 -3 -3 -3 -3 -3 -3 -1 7 37 95 
95 40 15 19 39 70 104 102 64 27 8 0 -1 -1 -1 0 1 3 5 6 6 6 6 7 7 7 7 10 17 26 33 36 37 37 37 37 37 39 46 60 78 89 93 94 95 95 95 95 95 97 101 108 108 101 97 95 95 95 95 95 93 90 82 73 82 105 109 89 60 35 16 5 0 -2 -2 -2 0 2 10 26 54 86 106 106 86 54 26 10 2 -1 -2 -3 -3 -3 -3 -3 -3 -3 -3 -3 -3 -3 -3 -3 -3 -3 -1 7 37 95 
97 47 34 55 87 108 100 62 26 7 0 -2 -3 -3 -3 -3 -2 -2 -1 -1 -1 -1 -1 -1 -1 -1 -1 0 1 3 5 6 6 6 6 7 7 7 10 17 26 33 36 37 37 37 37 37 37 39 46 60 78 89 93 94 95 95 95 95 97 104 119 133 134 112 72 39 19 8 1 -1 -3 -3 -3 -3 -3 -2 0 5 16 35 60 89 108 101 69 39 19 8 1 -1 -3 -3 -3 -3 -3 -3 -3 -3 -3 -3 -3 -3 -3 -3 -1 6 37 95 
104 66 72 101 108 87 53 23 6 0 -2 -3 -3 -3 -3 -3 -3 -3 -3 -3 -3 -3 -3 -3 -3 -3 -3 -3 -2 -2 -1 -1 -1 -1 -1 -1 -1 -1 0 1 3 5 6 6 6 6 7 7 7 7 10 17 26 33 36 37 37 37 37 38 41 53 86 135 134 77 32 11 2 0 -2 -3 -3 -3 -3 -3 -3 -3 -3 -1 1 8 19 39 69 101 108 89 60 35 16 5 0 -2 -3 -3 -3 -3 -3 -3 -3 -3 -3 -3 -3 -3 -1 6 37 96 
118 101 110 105 70 38 17 4 0 -2 -3 -3 -3 -3 -3 -3 -3 -3 -3 -3 -3 -3 -3 -3 -3 -3 -3 -3 -3 -3 -3 -3 -3 -3 -3 -3 -3 -3 -3 -2 -2 -1 -1 -1 -1 -1 -1 -1 -1 -1 0 1 3 5 6 6 6 7 7 7 9 20 53 111 111 50 14 1 -2 -3 -3 -3 -3 -3 -3 -3 -3 -3 -3 -3 -2 -1 2 10 26 54 86 106 106 86 54 26 10 2 0 -2 -3 -3 -3 -3 -3 -3 -3 -3 -3 -3 -1 6 37 98 
140 130 107 65 29 10 2 -1 -3 -3 -3 -3 -3 -3 -3 -3 -3 -3 -3 -3 -3 -3 -3 -3 -3 -3 -3 -3 -3 -3 -3 -3 -3 -3 -3 -3 -3 -3 -3 -3 -3 -3 -3 -3 -3 -3 -3 -3 -3 -3 -3 -2 -2 -1 -1 -1 -1 -1 -1 -1 0 9 41 99 99 40 8 0 -3 -3 -3 -3 -3 -3 -3 -3 -3 -3 -3 -3 -3 -3 -2 0 5 16 35 60 89 108 101 69 39 19 8 2 -1 -2 -3 -3 -3 -3 -3 -3 -3 -3 -1 6 37 101 
147 116 66 27 7 0 -2 -3 -3 -3 -3 -3 -3 -3 -3 -3 -3 -3 -3 -3 -3 -3 -3 -3 -3 -3 -3 -3 -3 -3 -3 -3 -3 -3 -3 -3 -3 -3 -3 -3 -3 -3 -3 -3 -3 -3 -3 -3 -3 -3 -3 -3 -3 -3 -3 -3 -3 -3 -3 -3 -1 7 38 96 96 37 7 -1 -3 -3 -3 -3 -3 -3 -3 -3 -3 -3 -3 -3 -3 -3 -3 -3 -1 1 8 19 39 69 101 108 89 60 36 18 7 1 -1 -3 -3 -3 -3 -3 -3 -3 -1 6 36 103 
128 76 30 8 0 -2 -3 -3 -3 -3 -3 -3 -3 -3 -3 -3 -3 -3 -3 -3 -3 -3 -3 -3 -3 -3 -3 -3 -3 -3 -3 -3 -3 -3 -3 -3 -3 -3 -3 -3 -3 -3 -3 -3 -3 -3 -3 -3 -3 -3 -3 -3 -3 -3 -3 -3 -3 -3 -3 -3 -1 7 37 95 95 37 7 -1 -3 -3 -3 -3 -3 -3 -3 -3 -3 -3 -3 -3 -3 -3 -3 -3 -3 -2 -1 2 10 26 54 86 106 106 87 60 35 16 5 0 -2 -3 -3 -3 -3 -3 -1 6 37 101 
107 50 13 0 -2 -3 -3 -3 -3 -3 -3 -3 -3 -3 -3 -3 -3 -3 -3 -3 -3 -3 -3 -3 -3 -3 -3 -3 -3 -3 -3 -3 -3 -3 -3 -3 -3 -3 -3 -3 -3 -3 -3 -3 -3 -3 -3 -3 -3 -3 -3 -3 -3 -3 -3 -3 -3 -3 -3 -3 -1 7 37 95 95 37 7 -1 -3 -3 -3 -3 -3 -3 -3 -3 -3 -3 -3 -3 -3 -3 -3 -3 -3 -3 -3 -2 0 5 16 35 60 87 106 106 86 54 25 10 2 0 -1 -2 -2 -2 -1 7 37 97 
98 40 8 -1 -3 -3 -3 -3 -3 -3 -3 -3 -3 -3 -3 -3 -3 -3 -3 -3 -3 -3 -3 -3 -3 -3 -3 -3 -3 -3 -3 -3 -3 -3 -3 -3 -3 -3 -3 -3 -3 -3 -3 -3 -3 -3 -3 -3 -3 -3 -3 -3 -3 -3 -3 -3 -3 -3 -3 -3 -1 6 37 95 95 37 6 -1 -3 -3 -3 -3 -3 -3 -3 -3 -3 -3 -3 -3 -3 -3 -3 -3 -3 -3 -3 -3 -3 -1 1 7 18 36 61 89 109 102 69 39 20 10 6 4 1 0 0 8 38 96 
96 38 7 -1 -3 -3 -3 -3 -3 -3 -3 -3 -3 -3 -3 -3 -3 -3 -3 -3 -3 -3 -3 -3 -3 -3 -3 -3 -3 -3 -3 -3 -3 -3 -3 -3 -3 -3 -3 -3 -3 -3 -3 -3 -3 -3 -3 -3 -3 -3 -3 -3 -3 -3 -3 -3 -3 -3 -3 -3 -1 6 37 95 95 37 6 -1 -3 -3 -3 -3 -3 -3 -3 -3 -3 -3 -3 -3 -3 -3 -3 -3 -3 -3 -3 -3 -3 -3 -2 0 2 9 21 42 74 109 117 95 65 45 35 27 17 10 9 14 42 97 
96 37 7 -1 -3 -3 -3 -3 -3 -3 -3 -3 -3 -3 -3 -3 -3 -3 -3 -3 -3 -3 -3 -3 -3 -3 -3 -3 -3 -3 -3 -3 -3 -3 -3 -3 -3 -3 -3 -3 -3 -3 -3 -3 -3 -3 -3 -3 -3 -3 -3 -3 -3 -3 -3 -3 -3 -3 -3 -3 -1 6 37 95 95 37 6 -1 -3 -3 -3 -3 -3 -3 -3 -3 -3 -3 -3 -3 -3 -3 -3 -3 -3 -3 -3 -3 -3 -3 -3 -2 0 3 11 23 49 91 132 144 126 105 92 79 60 45 38 37 56 104 
100 39 9 0 -1 -1 -1 -1 -2 -2 -3 -3 -3 -3 -3 -3 -3 -3 -3 -3 -3 -3 -3 -3 -3 -3 -3 -3 -3 -3 -3 -3 -3 -3 -3 -3 -3 -3 -3 -3 -3 -3 -3 -3 -3 -3 -3 -3 -3 -3 -3 -3 -3 -3 -3 -3 -3 -3 -3 -3 -1 6 37 95 95 37 6 -1 -3 -3 -3 -3 -3 -3 -3 -3 -3 -3 -3 -3 -3 -3 -3 -3 -3 -3 -3 -3 -2 -1 0 2 7 17 30 46 71 105 130 128 112 102 102 108 108 100 93 88 94 123 
109 46 17 9 7 6 6 5 3 1 0 -1 -1 -1 -1 -1 -2 -2 -3 -3 -3 -3 -3 -3 -3 -3 -3 -3 -3 -3 -3 -3 -3 -3 -3 -3 -3 -3 -3 -3 -3 -3 -3 -3 -3 -3 -3 -3 -3 -3 -3 -3 -3 -3 -3 -3 -3 -3 -3 -3 -1 6 37 95 95 37 6 -1 -3 -3 -3 -3 -3 -3 -3 -3 -3 -3 -3 -3 -3 -3 -3 -3 -3 -3 -2 -1 1 4 10 19 35 57 81 98 109 108 90 64 47 42 46 60 79 92 101 114 131 148 
125 73 46 39 37 37 36 33 26 17 10 7 7 6 6 5 3 1 0 -1 -1 -1 -1 -1 -1 -2 -2 -3 -3 -3 -3 -3 -3 -3 -3 -3 -3 -3 -3 -3 -3 -3 -3 -3 -3 -3 -3 -3 -3 -3 -3 -3 -3 -3 -3 -3 -3 -3 -3 -3 -1 6 37 95 95 37 6 -1 -3 -3 -3 -3 -3 -3 -3 -3 -3 -3 -3 -3 -3 -3 -3 -2 -1 0 2 7 16 29 43 62 88 106 108 97 80 57 35 19 11 8 10 17 27 36 46 67 105 144 
148 120 102 96 95 95 93 89 78 60 46 39 37 37 36 33 26 17 10 7 7 7 6 6 5 3 1 0 -1 -1 -1 -1 -1 -2 -2 -3 -3 -3 -3 -3 -3 -3 -3 -3 -3 -3 -3 -3 -3 -3 -3 -3 -3 -3 -3 -3 -3 -3 -3 -3 -1 6 37 95 95 37 6 -1 -3 -3 -3 -3 -3 -3 -3 -3 -3 -3 -3 -3 -3 -2 -1 1 4 10 19 35 57 80 97 108 106 88 62 43 29 16 7 2 0 -1 0 1 4 7 12 26 62 122 
144 120 102 96 95 95 97 101 108 108 101 97 95 95 93 89 78 60 46 39 37 37 37 36 33 26 17 10 7 7 6 6 5 3 1 0 -1 -1 -1 -1 -1 -1 -2 -2 -3 -3 -3 -3 -3 -3 -3 -3 -3 -3 -3 -3 -3 -3 -3 -3 -1 7 37 95 95 37 6 -1 -3 -3 -3 -3 -3 -3 -3 -3 -3 -3 -3 -2 -1 1 7 16 29 43 62 88 106 108 97 80 57 35 19 10 4 1 -1 -2 -3 -3 -3 -2 -2 -1 1 11 43 108 
116 72 46 39 37 37 39 46 60 78 89 93 95 95 97 101 108 108 101 97 95 95 95 93 89 78 60 46 39 37 37 36 33 26 17 10 7 7 7 6 6 5 3 1 0 -1 -1 -1 -1 -1 -2 -2 -3 -3 -3 -3 -3 -3 -3 -3 -1 7 37 95 95 37 7 -1 -3 -3 -3 -3 -3 -3 -3 -3 -2 -1 0 2 8 18 35 57 80 97 108 106 88 62 43 29 16 7 2 0 -1 -2 -3 -3 -3 -3 -3 -3 -3 -3 -1 7 38 99 
101 46 17 9 7 7 7 10 17 26 33 36 37 37 39 46 60 78 89 93 95 95 95 97 101 108 108 101 97 95 95 93 89 78 60 46 39 37 37 37 36 33 26 17 10 7 7 6 6 5 3 1 0 -1 -1 -1 -1 -1 -1 -1 0 7 37 95 95 37 7 -1 -3 -3 -3 -3 -3 -3 -2 -1 1 4 10 19 36 60 87 106 108 97 80 57 35 19 10 4 1 -1 -2 -3 -3 -3 -3 -3 -3 -3 -3 -3 -3 -3 -1 7 37 96 
96 39 9 0 -1 -1 -1 0 1 3 5 6 6 7 7 10 17 26 33 36 37 37 37 39 46 60 78 89 93 95 95 97 101 108 108 101 97 95 95 95 93 89 78 60 46 39 37 37 36 33 26 17 10 7 7 7 6 6 5 4 3 10 39 96 96 37 7 -1 -3 -3 -3 -2 -1 0 2 7 16 29 43 62 88 106 106 88 62 43 29 16 7 2 0 -1 -2 -3 -3 -3 -3 -3 -3 -3 -3 -3 -3 -3 -3 -3 -1 7 37 95 
95 37 7 -1 -3 -3 -3 -3 -2 -2 -1 -1 -1 -1 -1 0 1 3 5 6 6 7 7 7 10 17 26 33 36 37 37 39 46 60 78 89 93 95 95 95 97 101 108 108 101 97 95 95 93 89 78 60 46 39 37 37 37 36 33 27 19 21 47 102 99 40 8 0 -2 -2 -1 1 4 10 19 35 57 80 97 108 106 87 60 36 19 10 4 1 -1 -2 -3 -3 -3 -3 -3 -3 -3 -3 -3 -3 -3 -3 -3 -3 -3 -3 -1 6 37 95 
95 37 7 -1 -3 -3 -3 -3 -3 -3 -3 -3 -3 -3 -3 -3 -2 -2 -1 -1 -1 -1 -1 -1 0 1 3 5 6 6 7 7 10 17 26 33 36 37 37 37 39 46 60 78 89 93 95 95 97 101 108 108 101 97 95 95 95 93 89 79 62 55 75 119 112 50 14 2 0 2 7 16 29 43 62 88 106 108 97 80 57 35 18 8 2 0 -1 -2 -3 -3 -3 -3 -3 -3 -3 -3 -3 -3 -3 -3 -3 -3 -3 -3 -3 -3 -1 6 37 95 
95 37 7 -1 -3 -3 -3 -3 -3 -3 -3 -3 -3 -3 -3 -3 -3 -3 -3 -3 -3 -3 -3 -3 -3 -2 -2 -1 -1 -1 -1 -1 0 1 3 5 6 6 7 7 7 10 17 26 33 36 37 37 39 46 60 78 89 93 95 95 95 97 101 108 109 107 119 144 134 77 33 15 12 20 36 57 80 97 108 106 88 62 43 29 16 7 1 -1 -2 -3 -3 -3 -3 -3 -3 -3 -3 -3 -3 -3 -3 -3 -3 -3 -3 -3 -3 -3 -3 -3 -1 6 37 95 
95 37 6 -1 -3 -3 -3 -3 -3 -3 -3 -3 -3 -3 -3 -3 -3 -3 -3 -3 -3 -3 -3 -3 -3 -3 -3 -3 -3 -3 -3 -3 -3 -2 -2 -1 -1 -1 -1 -1 -1 0 1 3 5 6 6 7 7 10 17 26 33 36 37 37 37 39 46 60 79 91 100 115 127 113 77 53 50 64 88 106 108 97 80 57 35 19 10 4 1 -1 -2 -3 -3 -3 -3 -3 -3 -3 -3 -3 -3 -3 -3 -3 -3 -3 -3 -3 -3 -3 -3 -3 -3 -3 -1 6 37 95 
95 37 7 -1 -3 -3 -3 -3 -3 -3 -3 -3 -3 -3 -3 -3 -3 -3 -3 -3 -3 -3 -3 -3 -3 -3 -3 -3 -3 -3 -3 -3 -3 -3 -3 -3 -3 -3 -3 -3 -3 -3 -2 -2 -1 -1 -1 -1 -1 0 1 3 5 6 6 7 7 7 10 17 26 34 39 50 76 113 128 118 109 111 106 88 62 43 29 16 7 2 0 -1 -2 -3 -3 -3 -3 -3 -3 -3 -3 -3 -3 -3 -3 -3 -3 -3 -3 -3 -3 -3 -3 -3 -3 -3 -3 -3 -1 7 37 95 
95 37 7 -1 -3 -3 -3 -3 -3 -3 -3 -3 -3 -3 -3 -3 -3 -3 -3 -3 -3 -3 -3 -3 -3 -3 -3 -3 -3 -3 -3 -3 -3 -3 -3 -3 -3 -3 -3 -3 -3 -3 -3 -3 -3 -3 -3 -3 -3 -3 -2 -2 -1 -1 -1 -1 -1 -1 0 1 4 6 8 14 33 77 134 144 113 85 58 36 19 10 4 1 -1 -2 -3 -3 -3 -3 -3 -3 -3 -3 -3 -3 -3 -3 -3 -3 -3 -3 -3 -3 -3 -3 -3 -3 -3 -3 -3 -3 -3 -3 -1 7 37 95 
95 37 7 -1 -3 -3 -3 -3 -3 -3 -3 -3 -3 -3 -3 -3 -3 -3 -3 -3 -3 -3 -3 -3 -3 -3 -3 -3 -3 -3 -3 -3 -3 -3 -3 -3 -3 -3 -3 -3 -3 -3 -3 -3 -3 -3 -3 -3 -3 -3 -3 -3 -3 -3 -3 -3 -3 -3 -2 -2 -1 -1 0 2 14 51 112 119 69 36 18 8 2 0 -1 -2 -2 -3 -3 -3 -3 -3 -3 -3 -3 -3 -3 -3 -3 -3 -3 -3 -3 -3 -3 -3 -3 -3 -3 -3 -3 -3 -3 -3 -3 -3 -1 7 37 95 
96 39 9 0 -1 -1 -1 -1 -1 -1 -1 -1 -1 -1 -1 -1 -1 -1 -1 -1 -1 -1 -1 -1 -1 -1 -1 -1 -1 -1 -1 -1 -1 -1 -1 -1 -1 -1 -1 -1 -1 -1 -1 -1 -1 -1 -1 -1 -1 -1 -1 -1 -1 -1 -1 -1 -1 -1 -1 -1 -1 -1 0 1 10 42 101 103 47 16 5 1 0 -1 -1 -1 -1 -1 -1 -1 -1 -1 -1 -1 -1 -1 -1 -1 -1 -1 -1 -1 -1 -1 -1 -1 -1 -1 -1 -1 -1 -1 -1 -1 -1 -1 0 9 39 96 
102 46 17 9 7 7 7 6 6 6 6 6 6 6 6 6 6 6 6 6 6 6 6 6 6 6 6 6 6 6 6 6 6 6 6 6 6 6 6 6 6 6 6 6 6 6 6 6 6 6 6 6 6 6 6 7 7 7 7 7 7 7 7 9 17 47 103 103 48 19 10 7 7 7 7 7 7 6 6 6 6 6 6 6 6 6 6 6 6 6 6 6 6 6 6 6 6 6 6 6 6 6 6 6 6 7 9 17 46 102 
121 73 46 39 37 37 37 37 37 37 37 37 37 37 37 37 37 37 37 37 37 37 37 37 37 37 37 37 37 37 37 37 37 36 37 37 37 37 37 37 37 37 37 37 37 37 37 37 37 37 37 37 37 37 37 37 37 37 37 37 37 37 37 39 46 73 120 120 73 47 39 37 37 37 37 37 37 37 37 37 37 37 37 37 37 37 37 37 37 37 37 37 37 37 37 37 37 37 37 37 37 37 37 37 37 37 39 46 73 121 
155 121 102 96 95 95 95 95 95 95 95 95 95 95 95 95 95 95 95 95 95 95 95 95 95 95 95 95 95 95 96 97 101 103 101 97 95 95 95 95 95 95 95 95 95 95 95 96 98 103 103 98 96 95 95 95 95 95 95 95 95 95 95 96 101 116 143 143 116 101 96 95 95 95 95 95 95 95 95 95 95 95 95 95 95 95 95 95 95 95 97 100 103 101 97 95 95 95 95 95 95 95 97 100 103 101 99 103 121 155 
