P2
110 110
255
152 126 106 98 96 95 95 95 95 95 95 95 95 95 95 95 95 95 95 95 95 95 95 95 95 95 95 96 96 99 107 121 137 139 124 108 100 96 96 95 95 95 95 95 95 96 98 105 120 138 138 119 104 98 96 95 95 95 95 95 95 95 95 96 97 99 102 102 99 97 96 95 95 95 95 95 95 95 95 95 95 95 95 95 95 95 95 96 98 103 116 134 140 126 109 100 97 96 95 96 97 102 113 132 141 128 113 111 127 152 
126 89 62 51 48 47 47 47 47 47 47 47 47 47 47 47 47 47 47 47 47 47 47 47 47 47 47 48 50 58 75 106 130 119 87 63 52 48 47 47 47 47 47 47 47 48 52 64 92 128 125 88 62 51 48 47 47 47 47 47 47 47 47 47 47 46 46 46 46 47 47 47 47 47 47 47 47 47 47 47 47 47 47 47 47 47 47 48 52 64 91 125 126 94 66 53 49 47 47 48 50 59 83 119 129 99 72 68 90 126 
106 62 31 19 15 14 14 14 14 14 14 14 14 14 14 14 14 14 14 14 14 14 14 14 14 14 15 16 21 35 65 103 113 81 45 25 18 15 14 14 14 14 14 14 15 16 21 37 73 116 108 61 30 19 15 14 14 14 14 14 14 14 14 14 14 14 13 13 14 14 14 14 14 14 14 14 14 14 14 14 14 14 14 14 14 14 15 17 23 42 80 114 97 56 29 19 15 14 14 15 19 31 62 105 109 67 38 36 63 106 
98 51 19 6 3 2 2 2 2 2 2 2 2 2 2 2 2 2 2 2 2 2 2 2 2 2 3 7 17 40 79 107 90 49 21 8 3 2 2 2 2 2 2 2 3 5 12 34 77 120 102 50 18 6 3 2 2 2 2 2 2 2 2 2 2 2 2 2 2 2 2 2 2 2 2 2 2 2 2 2 2 2 2 2 2 2 3 6 16 42 87 107 72 32 12 5 2 2 2 3 8 24 60 103 94 49 22 23 52 98 
96 48 15 3 0 -1 -1 -1 -1 -1 -1 -1 -1 -1 -1 -1 -1 -1 -1 -1 -1 -1 -1 -1 -1 0 1 9 27 63 100 99 62 26 8 1 0 -1 -1 -1 -1 -1 -1 0 0 4 16 46 96 132 102 47 14 3 0 -1 -1 -1 -1 -1 -1 -1 -1 -1 -1 -1 -1 -1 -1 -1 -1 -1 -1 -1 -1 -1 -1 -1 -1 -1 -1 -1 -1 -1 -1 0 0 5 19 54 97 97 53 19 5 0 0 -1 0 1 7 27 69 105 82 37 15 19 49 96 
95 47 14 2 -1 -1 -2 -2 -2 -2 -2 -2 -2 -2 -2 -2 -2 -2 -2 -2 -2 -2 -2 -1 -1 0 4 18 48 89 104 75 36 12 2 0 -1 -2 -2 -2 -2 -2 -1 -1 0 8 27 67 117 139 103 47 14 2 -1 -1 -2 -2 -2 -2 -2 -2 -2 -2 -2 -2 -2 -2 -2 -2 -2 -2 -2 -2 -2 -2 -2 -2 -2 -2 -2 -2 -2 -2 -1 -1 0 8 29 71 105 83 38 11 1 -1 -1 -1 -1 1 10 36 81 104 68 27 11 17 48 95 
95 47 14 2 -1 -2 -2 -2 -2 -2 -2 -2 -2 -2 -2 -2 -2 -2 -2 -2 -2 -2 -2 -1 0 2 12 36 75 104 88 48 18 4 0 -1 -2 -2 -2 -2 -2 -2 -1 0 3 16 45 92 129 137 104 50 16 2 -1 -2 -2 -2 -2 -2 -2 -2 -2 -2 -2 -2 -2 -2 -2 -2 -2 -2 -2 -2 -2 -2 -2 -2 -2 -2 -2 -2 -2 -2 -1 0 2 15 45 89 102 64 25 6 0 -1 -2 -2 -1 2 14 45 92 99 55 20 8 16 47 95 
95 47 14 2 -1 -2 -2 -2 -2 -2 -2 -2 -2 -2 -2 -2 -2 -2 -2 -2 -2 -2 -2 -1 0 8 26 61 99 99 61 26 8 0 -1 -2 -2 -2 -2 -2 -2 -2 -1 1 8 29 68 109 123 126 107 57 19 4 0 -1 -2 -2 -2 -2 -2 -2 -2 -2 -2 -2 -2 -2 -2 -2 -2 -2 -2 -2 -2 -2 -2 -2 -2 -2 -2 -2 -2 -2 -1 0 6 25 64 102 89 45 15 2 0 -2 -2 -1 0 4 19 55 99 92 45 15 6 15 47 95 
95 47 14 2 -1 -2 -2 -2 -2 -2 -2 -2 -2 -2 -2 -2 -2 -2 -2 -2 -2 -2 -1 0 4 18 48 88 104 75 36 12 2 0 -1 -2 -2 -2 -2 -2 -2 -1 0 4 18 49 91 111 101 107 110 68 26 6 0 -1 -2 -2 -2 -2 -2 -2 -2 -2 -2 -2 -2 -2 -2 -2 -2 -2 -2 -2 -2 -2 -2 -2 -2 -2 -2 -2 -2 -2 -1 1 11 38 83 104 70 29 8 0 -1 -2 -2 -1 0 6 26 68 104 81 36 11 5 15 47 95 
95 47 14 2 -1 -2 -2 -2 -2 -2 -2 -2 -2 -2 -2 -2 -2 -2 -2 -2 -2 -1 0 2 12 36 75 104 88 48 18 4 0 -1 -2 -2 -2 -2 -2 -2 -2 -1 2 12 36 75 106 94 73 85 108 80 34 9 0 -1 -2 -2 -2 -2 -2 -2 -2 -2 -2 -2 -2 -2 -2 -2 -2 -2 -2 -2 -2 -2 -2 -2 -2 -2 -2 -2 -2 -1 0 4 18 53 97 97 53 18 4 0 -1 -2 -2 -1 1 10 35 81 104 68 26 7 4 15 47 95 
96 47 14 2 -1 -2 -2 -2 -2 -2 -2 -2 -2 -2 -2 -2 -2 -2 -2 -2 -2 -1 0 8 26 61 99 99 61 26 8 0 -1 -2 -2 -2 -2 -2 -2 -2 -1 0 7 25 61 99 100 67 48 66 103 89 41 12 1 -1 -2 -2 -2 -2 -2 -2 -2 -2 -2 -2 -2 -2 -2 -2 -2 -2 -2 -2 -2 -2 -2 -2 -2 -2 -2 -2 -2 -1 0 8 29 70 104 83 38 11 1 -1 -2 -2 -2 -1 2 14 45 92 99 55 19 5 3 14 47 95 
96 48 15 2 -1 -2 -2 -2 -2 -2 -2 -2 -2 -2 -2 -2 -2 -2 -2 -2 -1 0 4 18 48 88 104 75 36 12 2 0 -1 -2 -2 -2 -2 -2 -2 -1 0 3 15 44 86 105 76 41 31 55 98 93 45 13 2 -1 -2 -2 -2 -2 -2 -2 -2 -2 -2 -2 -2 -2 -2 -2 -2 -2 -2 -2 -2 -2 -2 -2 -2 -2 -2 -2 -2 0 2 15 45 89 102 64 25 6 0 -1 -2 -2 -1 0 4 19 55 99 92 45 14 3 3 14 47 95 
100 52 17 3 0 -1 -2 -2 -2 -2 -2 -2 -2 -2 -2 -2 -2 -2 -2 -1 0 2 12 36 75 104 88 48 18 4 0 -1 -2 -2 -2 -2 -2 -2 -2 -1 0 8 28 67 103 91 50 23 22 49 96 95 47 14 2 -1 -2 -2 -2 -2 -2 -2 -2 -2 -2 -2 -2 -2 -2 -2 -2 -2 -2 -2 -2 -2 -2 -2 -2 -2 -2 -2 -1 0 6 25 64 102 89 45 15 2 0 -2 -2 -2 -1 0 6 26 68 104 81 35 10 2 2 14 47 96 
108 63 24 7 0 -1 -2 -2 -2 -2 -2 -2 -2 -2 -2 -2 -2 -2 -2 -1 0 8 26 61 99 99 61 26 8 0 -1 -2 -2 -2 -2 -2 -2 -2 -1 0 3 16 46 89 103 68 30 13 17 46 93 97 51 16 2 -1 -2 -2 -2 -2 -2 -2 -2 -2 -2 -2 -2 -2 -2 -2 -2 -2 -2 -2 -2 -2 -2 -2 -2 -2 -2 -2 -1 1 11 38 83 104 70 29 8 0 -1 -2 -2 -2 -1 1 10 35 81 104 68 26 6 1 2 14 46 98 
123 85 42 16 4 0 -1 -2 -2 -2 -2 -2 -2 -2 -2 -2 -2 -2 -1 0 4 18 48 88 104 75 36 12 2 0 -1 -2 -2 -2 -2 -2 -2 -2 -1 1 8 29 68 103 89 46 17 7 13 41 89 101 57 20 4 0 -1 -2 -2 -2 -2 -2 -2 -2 -2 -2 -2 -2 -2 -2 -2 -2 -2 -2 -2 -2 -2 -2 -2 -2 -2 -1 0 4 18 53 97 97 53 18 4 0 -1 -2 -2 -2 -1 2 14 45 92 99 55 19 4 0 2 14 46 100 
138 116 73 36 14 3 0 -1 -2 -2 -2 -2 -2 -2 -2 -2 -2 -1 0 2 12 36 75 104 88 48 18 4 0 -1 -2 -2 -2 -2 -2 -2 -2 -1 0 4 19 49 91 103 67 28 8 3 10 34 80 104 68 26 6 0 -1 -2 -2 -2 -2 -2 -2 -2 -2 -2 -2 -2 -2 -2 -2 -2 -2 -2 -2 -2 -2 -2 -2 -2 -2 -1 0 8 29 70 104 83 38 11 1 -1 -2 -2 -2 -1 0 4 19 55 99 92 45 14 2 0 2 13 46 102 
138 131 106 68 32 11 2 0 -1 -2 -2 -2 -2 -2 -2 -2 -2 -1 0 8 26 61 99 99 61 26 8 0 -1 -2 -2 -2 -2 -2 -2 -2 -2 -1 2 12 36 75 104 86 44 15 3 1 6 26 68 104 80 34 9 0 -1 -2 -2 -2 -2 -2 -2 -2 -2 -2 -2 -2 -2 -2 -2 -2 -2 -2 -2 -2 -2 -2 -2 -2 -2 0 2 15 45 89 102 64 25 6 0 -1 -2 -2 -2 -1 0 6 26 68 104 81 35 10 1 0 2 14 46 102 
124 115 114 98 60 26 8 1 -1 -2 -2 -2 -2 -2 -2 -2 -1 0 4 18 48 88 104 75 36 12 2 0 -1 -2 -2 -2 -2 -2 -2 -2 -1 0 7 25 61 99 99 61 25 7 0 0 4 20 57 101 89 41 12 1 -1 -2 -2 -2 -2 -2 -2 -2 -2 -2 -2 -2 -2 -2 -2 -2 -2 -2 -2 -2 -2 -2 -2 -2 -1 0 6 25 64 102 89 45 15 2 0 -2 -2 -2 -2 -1 1 10 35 81 104 68 26 6 0 0 2 14 46 99 
110 89 93 107 88 48 19 5 0 -1 -2 -2 -2 -2 -2 -1 0 2 12 36 75 104 88 48 18 4 0 -1 -2 -2 -2 -2 -2 -2 -2 -1 0 3 15 44 86 104 75 36 12 2 0 0 3 16 51 97 93 45 13 2 -1 -2 -2 -2 -2 -2 -2 -2 -2 -2 -2 -2 -2 -2 -2 -2 -2 -2 -2 -2 -2 -2 -2 -2 -1 1 11 38 83 104 70 29 8 0 -1 -2 -2 -2 -2 -1 2 14 45 92 99 55 19 4 0 0 2 14 47 97 
102 69 65 92 105 77 40 16 4 0 -1 -2 -2 -2 -2 -1 0 8 26 61 99 99 61 26 8 0 -1 -2 -2 -2 -2 -2 -2 -2 -2 -1 0 8 28 67 103 91 49 19 4 0 -1 -1 2 14 47 95 95 47 14 2 -1 -2 -2 -2 -2 -2 -2 -2 -2 -2 -2 -2 -2 -2 -2 -2 -2 -2 -2 -2 -2 -2 -2 -1 0 4 18 53 97 97 53 18 4 0 -1 -2 -2 -2 -1 0 4 19 55 99 92 45 14 2 -1 -1 2 14 47 96 
98 57 43 64 98 102 72 38 15 4 0 -1 -2 -2 -1 0 4 18 48 88 104 75 36 12 2 0 -1 -2 -2 -2 -2 -2 -2 -2 -1 0 3 16 46 89 103 68 29 8 1 -1 -1 -1 2 13 45 93 97 51 16 2 -1 -2 -2 -2 -2 -2 -2 -2 -2 -2 -2 -2 -2 -2 -2 -2 -2 -2 -2 -2 -2 -2 -2 -1 0 8 29 70 104 83 38 11 1 -1 -2 -2 -2 -2 -1 0 6 26 68 104 81 35 10 1 -1 -1 2 14 47 96 
96 52 28 37 69 100 101 71 37 15 4 0 -1 -1 0 2 12 36 75 104 88 48 18 4 0 -1 -2 -2 -2 -2 -2 -2 -2 -2 -1 1 8 29 68 103 89 46 16 3 0 -1 -2 -1 1 12 41 89 101 57 20 4 0 -1 -2 -2 -2 -2 -2 -2 -2 -2 -2 -2 -2 -2 -2 -2 -2 -2 -2 -2 -2 -2 -2 0 2 15 45 89 102 64 25 6 0 -1 -2 -2 -2 -2 -1 1 10 35 81 104 68 26 6 0 -1 -1 2 14 47 95 
96 49 20 18 37 70 100 100 71 37 15 4 0 0 1 8 26 61 99 99 61 26 8 0 -1 -2 -2 -2 -2 -2 -2 -2 -2 -1 0 4 19 49 91 103 67 28 8 0 -1 -2 -2 -1 0 9 34 80 104 68 26 6 0 -1 -2 -2 -2 -2 -2 -2 -2 -2 -2 -2 -2 -2 -2 -2 -2 -2 -2 -2 -2 -2 -1 0 6 25 64 102 89 45 15 2 0 -2 -2 -2 -2 -2 -1 2 14 45 92 99 55 19 4 0 -1 -1 2 14 47 95 
95 48 16 8 16 37 71 100 100 71 37 15 5 2 5 18 48 88 104 75 36 12 2 0 -1 -2 -2 -2 -2 -2 -2 -2 -2 -1 2 12 36 75 104 86 44 15 3 0 -1 -2 -2 -1 0 6 26 68 104 80 34 9 0 -1 -2 -2 -2 -2 -2 -2 -2 -2 -2 -2 -2 -2 -2 -2 -2 -2 -2 -2 -2 -2 -1 1 11 38 83 104 70 29 8 0 -1 -2 -2 -2 -2 -1 0 4 19 55 99 92 45 14 2 -1 -1 -1 2 14 47 95 
95 47 15 4 5 15 37 71 100 100 71 38 17 9 15 37 75 104 88 48 18 4 0 -1 -2 -2 -2 -2 -2 -2 -2 -2 -1 0 7 25 61 99 99 61 25 7 0 -1 -2 -2 -2 -1 0 4 20 57 101 89 41 12 1 -1 -2 -2 -2 -2 -2 -2 -2 -2 -2 -2 -2 -2 -2 -2 -2 -2 -2 -2 -2 -1 0 4 18 53 97 97 53 18 4 0 -1 -2 -2 -2 -2 -1 0 6 26 68 104 81 35 10 1 -1 -1 -1 2 14 47 95 
95 47 14 3 1 4 15 37 71 100 101 71 40 26 33 64 99 99 61 26 8 0 -1 -2 -2 -2 -2 -2 -2 -2 -2 -1 0 3 15 44 86 104 75 36 12 2 -1 -2 -2 -2 -2 -2 -1 2 16 50 97 94 46 14 2 -1 -2 -2 -2 -2 -2 -2 -2 -2 -2 -2 -2 -2 -2 -2 -2 -2 -2 -2 -2 -1 0 8 29 70 104 83 38 11 1 -1 -2 -2 -2 -2 -2 -1 1 10 35 81 104 68 26 6 0 -1 -2 -1 2 14 47 95 
95 47 14 2 0 0 4 15 37 71 101 102 77 58 65 94 105 75 36 12 2 0 -1 -2 -2 -2 -2 -2 -2 -2 -2 -1 0 8 28 67 103 91 49 19 4 0 -1 -2 -2 -2 -2 -2 -1 2 14 46 94 97 50 16 2 -1 -2 -2 -2 -2 -2 -2 -2 -2 -2 -2 -2 -2 -2 -2 -2 -2 -2 -2 -2 0 2 15 45 89 102 64 25 6 0 -1 -2 -2 -2 -2 -2 -1 2 14 45 92 99 55 19 4 0 -1 -2 -1 2 14 47 95 
95 47 14 2 -1 -1 0 4 15 37 71 102 110 102 106 113 89 48 18 4 0 -1 -2 -2 -2 -2 -2 -2 -2 -2 -1 0 3 16 46 89 103 68 29 8 1 -1 -2 -2 -2 -2 -2 -2 -1 1 12 41 89 101 57 20 4 0 -1 -2 -2 -2 -2 -2 -2 -2 -2 -2 -2 -2 -2 -2 -2 -2 -2 -2 -1 0 6 25 64 102 89 45 15 2 0 -2 -2 -2 -2 -2 -1 0 4 19 55 99 92 45 14 2 -1 -2 -2 -1 2 14 47 95 
95 47 14 2 -1 -1 -1 0 4 15 38 73 111 135 134 107 62 26 8 0 -1 -2 -2 -2 -2 -2 -2 -2 -2 -2 -1 1 8 29 68 103 89 46 16 3 0 -1 -2 -2 -2 -2 -2 -2 -1 0 9 34 80 104 68 26 6 0 -1 -2 -2 -2 -2 -2 -2 -2 -2 -2 -2 -2 -2 -2 -2 -2 -2 -2 -1 1 11 38 83 104 70 29 8 0 -1 -2 -2 -2 -2 -2 -1 0 6 26 68 104 81 35 10 1 -1 -2 -2 -1 2 14 47 95 
95 47 14 2 -1 -2 -2 -1 0 5 16 42 85 130 130 84 38 13 2 0 -1 -2 -2 -2 -2 -2 -2 -2 -2 -1 0 4 19 49 91 103 67 28 8 0 -1 -2 -2 -2 -2 -2 -2 -2 -1 0 6 26 68 104 80 34 9 0 -1 -2 -2 -2 -2 -2 -2 -2 -2 -2 -2 -2 -2 -2 -2 -2 -2 -1 0 4 18 53 97 97 53 18 4 0 -1 -2 -2 -2 -2 -2 -1 1 10 35 81 104 68 26 6 0 -1 -2 -2 -1 2 14 47 95 
95 47 14 2 -1 -2 -2 -2 -1 0 7 24 61 110 114 66 25 6 0 -1 -2 -2 -2 -2 -2 -2 -2 -2 -2 -1 2 12 36 75 104 86 44 15 3 0 -1 -2 -2 -2 -2 -2 -2 -2 -1 0 4 20 57 101 89 41 12 1 -1 -2 -2 -2 -2 -2 -2 -2 -2 -2 -2 -2 -2 -2 -2 -2 -2 -1 0 8 29 70 104 83 38 11 1 -1 -2 -2 -2 -2 -2 -2 -1 2 14 45 92 99 55 19 4 0 -1 -2 -2 -1 2 14 47 95 
95 47 14 2 -1 -2 -2 -2 -1 0 3 15 46 95 107 62 22 5 0 -1 -2 -2 -2 -2 -2 -2 -2 -2 -1 0 7 25 61 99 99 61 25 7 0 -1 -2 -2 -2 -2 -2 -2 -2 -2 -2 -1 2 16 51 97 93 45 13 2 -1 -2 -2 -2 -2 -2 -2 -2 -2 -2 -2 -2 -2 -2 -2 -2 -2 0 2 15 45 89 102 64 25 6 0 -1 -2 -2 -2 -2 -2 -1 0 4 19 55 99 92 45 14 2 -1 -2 -2 -2 -1 2 14 47 95 
95 47 14 2 -1 -2 -2 -2 -2 -1 1 10 36 82 106 69 27 6 0 -1 -2 -2 -2 -2 -2 -2 -2 -1 0 3 15 44 86 104 75 36 12 2 -1 -2 -2 -2 -2 -2 -2 -2 -2 -2 -2 -1 2 14 47 95 95 47 14 2 -1 -2 -2 -2 -2 -2 -2 -2 -2 -2 -2 -2 -2 -2 -2 -2 -1 0 6 25 64 102 89 45 15 2 0 -2 -2 -2 -2 -2 -2 -1 0 6 26 68 104 81 35 10 1 -1 -2 -2 -2 -1 2 14 47 95 
95 47 14 2 -1 -2 -2 -2 -2 -1 0 6 26 68 105 81 35 9 0 -1 -2 -2 -2 -2 -2 -2 -2 -1 0 8 28 67 103 91 49 19 4 0 -1 -2 -2 -2 -2 -2 -2 -2 -2 -2 -2 -1 2 13 45 93 97 51 16 2 -1 -2 -2 -2 -2 -2 -2 -2 -2 -2 -2 -2 -2 -2 -2 -2 -1 1 11 38 83 104 70 29 8 0 -1 -2 -2 -2 -2 -2 -2 -1 1 10 35 81 104 68 26 6 0 -1 -2 -2 -2 -1 2 14 47 96 
95 47 14 2 -1 -2 -2 -2 -2 -1 0 4 19 57 100 90 42 12 1 -1 -2 -2 -2 -2 -2 -2 -1 0 3 16 46 89 103 68 29 8 1 -1 -2 -2 -2 -2 -2 -2 -2 -2 -2 -2 -2 -1 1 12 41 89 101 57 20 4 0 -1 -2 -2 -2 -2 -2 -2 -2 -2 -2 -2 -2 -2 -2 -1 0 4 18 53 97 97 53 18 4 0 -1 -2 -2 -2 -2 -2 -2 -1 2 14 45 92 99 55 19 4 0 -1 -2 -2 -2 -1 2 15 48 96 
96 47 14 2 -1 -2 -2 -2 -2 -2 -1 2 15 49 96 96 49 15 2 -1 -2 -2 -2 -2 -2 -2 -1 1 8 29 68 103 89 46 16 3 0 -1 -2 -2 -2 -2 -2 -2 -2 -2 -2 -2 -2 -1 0 9 34 80 104 68 26 6 0 -1 -2 -2 -2 -2 -2 -2 -2 -2 -2 -2 -2 -2 -2 -1 0 8 29 70 104 83 38 11 1 -1 -2 -2 -2 -2 -2 -2 -1 0 4 19 55 99 92 45 14 2 -1 -2 -2 -2 -2 -1 3 16 51 99 
97 46 14 2 -1 -2 -2 -2 -2 -2 -1 1 12 42 90 100 56 19 4 0 -1 -2 -2 -2 -2 -1 0 4 19 49 91 103 67 28 8 0 -1 -2 -2 -2 -2 -2 -2 -2 -2 -2 -2 -2 -2 -1 0 6 26 68 104 80 34 9 0 -1 -2 -2 -2 -2 -2 -2 -2 -2 -2 -2 -2 -2 -2 0 2 15 45 89 102 64 25 6 0 -1 -2 -2 -2 -2 -2 -2 -1 0 6 26 68 104 81 35 10 1 -1 -2 -2 -2 -1 0 4 20 58 105 
99 46 13 2 -1 -2 -2 -2 -2 -2 -1 0 9 35 81 104 68 26 6 0 -1 -2 -2 -2 -2 -1 2 12 36 75 104 86 44 15 3 0 -1 -2 -2 -2 -2 -2 -2 -2 -2 -2 -2 -2 -2 -1 0 4 20 57 101 89 41 12 1 -1 -2 -2 -2 -2 -2 -2 -2 -2 -2 -2 -2 -2 -1 0 6 25 64 102 89 45 15 2 0 -2 -2 -2 -2 -2 -2 -2 -1 1 10 35 81 104 68 26 6 0 -1 -2 -2 -2 -1 1 9 30 73 117 
101 45 13 2 -1 -2 -2 -2 -2 -2 -1 0 6 26 68 104 81 35 9 0 -1 -2 -2 -2 -1 0 7 25 61 99 99 61 25 7 0 -1 -2 -2 -2 -2 -2 -2 -2 -2 -2 -2 -2 -2 -2 -2 -1 2 16 51 97 93 45 13 2 -1 -2 -2 -2 -2 -2 -2 -2 -2 -2 -2 -2 -2 -1 1 11 38 83 104 70 29 8 0 -1 -2 -2 -2 -2 -2 -2 -2 -1 2 14 45 92 99 55 19 4 0 -1 -2 -2 -1 0 4 18 49 97 132 
102 45 13 2 -1 -2 -2 -2 -2 -2 -1 0 4 19 56 100 90 42 12 1 -1 -2 -2 -1 0 3 15 44 86 104 75 36 12 2 -1 -2 -2 -2 -2 -2 -2 -2 -2 -2 -2 -2 -2 -2 -2 -2 -1 2 14 47 95 95 47 14 2 -1 -2 -2 -2 -2 -2 -2 -2 -2 -2 -2 -2 -1 0 4 18 53 97 97 53 18 4 0 -1 -2 -2 -2 -2 -2 -2 -1 0 4 19 55 99 92 45 14 2 -1 -2 -2 -1 0 2 12 35 76 121 140 
101 46 14 2 -1 -2 -2 -2 -2 -2 -2 -1 2 15 49 96 96 49 15 2 -1 -2 -2 -1 0 8 28 67 103 91 49 19 4 0 -1 -2 -2 -2 -2 -2 -2 -2 -2 -2 -2 -2 -2 -2 -2 -2 -1 2 13 45 93 97 51 16 2 -1 -2 -2 -2 -2 -2 -2 -2 -2 -2 -2 -2 -1 0 8 29 70 104 83 38 11 1 -1 -2 -2 -2 -2 -2 -2 -2 -1 0 6 26 68 104 81 35 10 1 -1 -2 -2 -1 0 8 26 61 104 130 136 
99 46 14 2 -1 -2 -2 -2 -2 -2 -2 -1 1 12 42 90 100 56 19 4 0 -1 -1 0 3 16 46 89 103 68 29 8 1 -1 -2 -2 -2 -2 -2 -2 -2 -2 -2 -2 -2 -2 -2 -2 -2 -2 -1 1 12 41 89 101 57 20 4 0 -1 -2 -2 -2 -2 -2 -2 -2 -2 -2 -2 0 2 15 45 89 102 64 25 6 0 -1 -2 -2 -2 -2 -2 -2 -2 -1 1 10 35 81 104 68 26 6 0 -1 -2 -1 0 4 18 48 89 115 118 123 
97 47 14 2 -1 -2 -2 -2 -2 -2 -2 -1 0 9 35 81 104 68 26 6 0 -1 -1 1 8 29 68 103 89 46 16 3 0 -1 -2 -2 -2 -2 -2 -2 -2 -2 -2 -2 -2 -2 -2 -2 -2 -2 -1 0 9 35 81 105 69 27 7 0 0 -1 -1 -1 -2 -2 -2 -2 -2 -2 -1 0 6 25 64 102 89 45 15 2 0 -2 -2 -2 -2 -2 -2 -2 -2 -1 2 14 45 92 99 55 19 4 0 -1 -1 0 2 12 36 75 106 103 95 112 
96 47 14 2 -1 -2 -2 -2 -2 -2 -2 -1 0 6 26 68 104 81 35 9 1 -1 0 4 19 49 91 103 67 28 8 0 -1 -2 -2 -2 -2 -2 -2 -2 -2 -2 -2 -2 -2 -2 -2 -2 -2 -2 -1 0 7 27 70 106 83 39 14 5 2 0 0 0 -1 -1 -1 -1 -1 -1 -1 1 11 38 83 104 70 29 8 0 -1 -2 -2 -2 -2 -2 -2 -2 -1 0 4 19 55 99 92 45 14 2 -1 -1 -1 0 8 26 61 99 102 78 75 104 
96 47 14 2 -1 -2 -2 -2 -2 -2 -2 -1 0 4 19 56 100 90 42 12 2 0 2 12 36 75 104 86 44 15 3 0 -1 -2 -2 -2 -2 -2 -2 -2 -2 -2 -2 -2 -2 -2 -2 -2 -2 -2 -1 0 6 24 63 108 100 56 28 17 13 9 6 4 2 2 2 1 0 0 0 5 19 53 97 97 53 18 4 0 -1 -2 -2 -2 -2 -2 -2 -2 -1 0 6 26 68 104 81 35 10 1 -1 -1 0 4 18 48 88 105 79 53 62 99 
95 47 14 2 -1 -2 -2 -2 -2 -2 -2 -2 -1 2 15 49 96 96 49 15 3 1 7 25 61 99 99 61 25 7 0 -1 -2 -2 -2 -2 -2 -2 -2 -2 -2 -2 -2 -2 -2 -2 -2 -2 -1 -1 0 3 11 31 70 118 121 86 60 49 42 35 26 20 16 14 13 12 9 7 7 13 33 72 105 83 38 11 1 -1 -2 -2 -2 -2 -2 -2 -2 -2 -1 1 10 35 81 104 68 26 6 0 -1 0 2 12 36 75 104 89 52 35 54 97 
95 47 14 2 -1 -2 -2 -2 -2 -2 -2 -2 -1 1 12 42 90 100 57 20 5 4 15 44 86 104 75 36 12 2 -1 -2 -2 -2 -2 -2 -2 -2 -2 -2 -2 -2 -2 -2 -2 -2 -2 -1 0 0 4 13 28 55 94 133 140 120 104 96 89 80 68 57 51 47 45 41 35 27 24 31 57 95 105 65 25 6 0 -1 -2 -2 -2 -2 -2 -2 -2 -2 -1 2 14 45 92 99 55 19 4 0 -1 0 8 26 61 99 99 62 31 25 50 96 
95 47 14 2 -1 -2 -2 -2 -2 -2 -2 -2 -1 0 9 35 81 104 68 27 9 10 28 67 103 91 49 19 4 0 -1 -2 -2 -2 -2 -2 -2 -2 -2 -2 -2 -2 -2 -2 -2 -2 -1 0 2 8 18 36 62 92 114 122 115 104 99 98 101 105 104 101 97 95 93 89 81 70 63 70 95 117 95 47 16 3 0 -2 -2 -2 -2 -2 -2 -2 -2 -1 0 4 19 55 99 92 45 14 2 0 0 4 18 48 88 104 75 37 17 19 48 96 
95 47 14 2 -1 -2 -2 -2 -2 -2 -2 -2 -1 0 6 26 68 104 81 36 15 19 46 89 103 68 29 8 1 -1 -2 -2 -2 -2 -2 -2 -2 -2 -2 -2 -2 -2 -2 -2 -1 -1 0 4 12 26 48 75 99 106 94 74 59 51 49 51 57 68 80 89 93 95 97 101 105 106 107 116 133 131 85 37 11 1 -1 -2 -2 -2 -2 -2 -2 -2 -2 -1 0 6 26 68 104 81 35 10 1 0 2 12 36 75 104 88 48 19 9 16 48 95 
95 47 14 2 -1 -2 -2 -2 -2 -2 -2 -2 -1 0 4 19 56 101 90 46 24 33 69 103 89 46 16 3 0 -1 -2 -2 -2 -2 -2 -2 -2 -2 -2 -2 -2 -2 -2 -1 0 2 7 18 36 61 88 104 99 76 50 31 20 16 15 16 20 26 34 41 45 47 51 57 68 82 95 112 132 131 86 38 12 2 0 -1 -2 -2 -2 -2 -2 -2 -1 -1 1 10 36 81 104 68 26 6 0 1 8 26 61 99 99 62 26 9 5 15 47 95 
95 47 14 2 -1 -2 -2 -2 -2 -2 -2 -2 -2 -1 2 15 49 96 97 56 37 54 92 103 67 28 8 0 -1 -2 -2 -2 -2 -2 -2 -2 -2 -2 -2 -2 -2 -1 -1 0 3 11 26 47 75 99 104 88 62 36 19 9 4 3 2 3 4 6 9 12 13 14 16 20 26 36 47 64 93 117 98 53 22 7 1 0 0 -1 -1 -1 -1 -1 -1 0 3 15 46 92 100 55 19 4 1 5 18 48 88 104 75 36 12 3 3 14 47 95 
95 47 14 2 -1 -2 -2 -2 -2 -2 -2 -2 -2 -1 1 12 42 90 104 71 58 81 105 87 44 15 3 0 -1 -2 -2 -2 -2 -2 -2 -2 -2 -2 -2 -2 -1 0 1 5 15 33 60 88 104 99 75 48 26 12 4 1 0 -1 -1 -1 0 0 0 1 2 2 2 4 6 10 16 28 54 92 108 81 44 21 9 5 3 2 2 2 2 2 2 3 8 23 58 101 93 46 15 3 3 12 36 75 104 88 48 18 4 0 2 14 47 95 
95 47 14 2 -1 -2 -2 -2 -2 -2 -2 -2 -2 -1 0 9 34 81 111 94 89 106 99 61 25 7 0 -1 -2 -2 -2 -2 -2 -2 -2 -2 -2 -2 -1 -1 0 2 8 19 39 69 97 104 89 62 36 18 8 2 0 -1 -1 -2 -2 -2 -1 -1 -1 -1 -1 -1 -1 0 0 1 4 10 28 63 103 110 82 51 31 21 16 15 14 14 14 14 15 16 23 41 79 112 87 40 13 5 9 27 62 99 99 61 26 8 1 0 2 14 47 95 
95 47 14 2 -1 -2 -2 -2 -2 -2 -2 -2 -2 -1 0 6 26 68 113 120 117 110 75 36 12 2 -1 -2 -2 -2 -2 -2 -2 -2 -2 -2 -2 -1 0 0 4 12 26 49 77 101 101 77 49 26 12 4 0 0 -1 -2 -2 -2 -2 -2 -2 -2 -2 -2 -2 -2 -2 -1 -1 -1 0 3 13 39 83 123 125 98 74 59 51 48 47 47 47 47 48 50 57 77 110 125 88 42 18 12 21 49 89 104 75 36 12 2 0 0 2 14 47 95 
95 47 14 2 -1 -2 -2 -2 -2 -2 -2 -2 -2 -1 0 4 19 56 110 136 128 93 49 18 4 0 -1 -2 -2 -2 -2 -2 -2 -2 -2 -1 -1 0 2 8 18 36 62 89 104 97 69 39 19 8 2 0 -1 -1 -2 -2 -2 -2 -2 -2 -2 -2 -2 -2 -2 -2 -2 -2 -2 -2 -1 0 6 25 66 120 141 128 112 103 98 96 95 95 95 95 96 97 103 116 137 138 103 62 37 31 44 78 105 89 48 18 4 0 -1 -1 2 14 47 95 
95 47 14 2 -1 -2 -2 -2 -2 -2 -2 -2 -2 -2 -1 2 15 49 106 140 117 68 28 8 1 -1 -2 -2 -2 -2 -2 -2 -2 -2 -1 0 0 4 12 26 48 75 99 104 88 60 33 15 5 1 0 -1 -2 -2 -2 -2 -2 -2 -2 -2 -2 -2 -2 -2 -2 -2 -2 -2 -2 -2 -1 0 5 22 62 113 123 102 92 92 94 95 95 95 95 95 95 96 98 103 114 123 117 97 77 69 83 108 102 63 27 8 0 -1 -1 -1 2 14 47 95 
95 47 14 2 -1 -2 -2 -2 -2 -2 -2 -2 -2 -2 -1 2 14 47 102 131 95 45 15 3 0 -1 -2 -2 -2 -2 -2 -2 -1 -1 0 2 7 17 35 61 89 105 99 75 48 26 11 3 0 -1 -1 -2 -2 -2 -2 -2 -2 -2 -2 -2 -2 -2 -2 -2 -2 -2 -2 -2 -2 -2 -1 0 6 27 69 110 96 61 46 44 46 47 47 47 47 47 47 47 48 51 58 73 92 106 111 115 125 124 86 41 14 3 0 -1 -2 -1 2 14 47 95 
95 47 14 2 -1 -2 -2 -2 -2 -2 -2 -2 -2 -2 -1 2 14 46 100 117 72 29 8 0 -1 -2 -2 -2 -2 -1 -1 0 0 2 5 12 25 46 75 102 108 93 65 39 20 9 3 0 -1 -1 -2 -2 -2 -2 -2 -2 -2 -2 -2 -2 -2 -2 -2 -2 -2 -2 -2 -2 -2 -2 -1 0 9 35 81 106 73 35 18 14 14 14 14 14 14 14 14 14 15 16 20 30 46 68 94 120 140 127 77 33 10 1 -1 -2 -2 -1 2 14 47 95 
95 47 14 2 -1 -2 -2 -2 -2 -2 -2 -2 -2 -2 -1 2 14 48 98 105 57 20 4 0 -1 -2 -2 -1 -1 0 0 2 6 12 21 36 61 92 118 119 95 66 41 24 13 7 3 1 0 0 -1 -1 -1 -1 -1 -2 -2 -2 -2 -2 -2 -2 -2 -2 -2 -2 -2 -2 -2 -2 -1 1 12 41 89 101 58 22 7 3 2 2 2 2 2 2 2 2 2 2 4 8 16 29 50 80 115 123 86 41 14 3 0 -1 -2 -1 2 14 47 95 
95 47 14 2 -1 -2 -2 -2 -2 -2 -2 -2 -2 -2 -1 2 16 51 98 97 49 15 2 0 -1 -1 -1 0 0 3 7 15 25 39 56 79 107 132 140 123 94 69 53 39 28 20 14 10 6 4 2 1 0 0 0 -1 -1 -1 -1 -2 -2 -2 -2 -2 -2 -2 -2 -2 -2 -2 -1 2 14 46 94 97 50 16 3 0 -1 -1 -1 -1 -1 -1 -1 -1 -1 -1 0 0 3 9 19 40 74 107 103 63 27 8 0 -1 -1 -1 2 14 47 95 
95 47 14 2 -1 -2 -2 -2 -2 -2 -2 -2 -2 -1 0 4 20 57 101 90 42 12 2 0 0 0 1 4 8 16 28 44 64 83 99 111 117 121 124 121 111 101 92 82 68 55 45 36 26 19 15 12 9 6 3 2 1 0 0 -1 -1 -1 -1 -1 -2 -2 -2 -2 -2 -2 -1 2 16 50 97 94 46 14 2 -1 -1 -2 -2 -2 -2 -2 -2 -2 -2 -2 -1 -1 0 1 5 17 40 78 106 89 48 18 4 0 -1 -1 2 14 47 95 
95 47 14 2 -1 -2 -2 -2 -2 -2 -2 -2 -2 -1 0 6 26 68 105 81 35 10 2 1 3 6 11 18 30 46 67 88 102 105 98 86 73 67 72 82 91 96 101 105 104 99 92 81 68 57 49 42 35 26 19 14 10 6 4 2 1 0 0 0 -1 -1 -1 -1 -2 -1 0 4 20 57 101 89 41 12 1 -1 -2 -2 -2 -2 -2 -2 -2 -2 -2 -2 -2 -2 -1 -1 0 5 19 49 89 104 75 36 12 2 0 0 2 14 47 95 
95 47 14 2 -1 -2 -2 -2 -2 -2 -2 -2 -2 -1 0 9 35 81 105 69 28 9 5 8 15 25 38 53 71 90 103 103 90 71 53 39 29 24 27 35 42 49 57 68 81 92 99 104 104 100 96 90 80 67 55 45 36 26 19 15 12 9 6 3 2 1 0 0 -1 0 0 7 26 68 105 80 34 9 0 -1 -2 -2 -2 -2 -2 -2 -2 -2 -2 -2 -2 -2 -2 -2 -1 1 8 26 62 99 99 62 26 8 1 0 2 14 47 95 
95 47 14 2 -1 -2 -2 -2 -2 -2 -2 -2 -2 -1 1 12 42 90 102 60 25 14 17 28 44 64 83 97 104 102 88 67 46 30 19 12 7 6 7 9 12 15 19 26 36 45 55 67 80 90 96 100 104 104 99 92 81 68 57 49 42 35 26 19 14 10 6 4 2 2 4 12 36 81 105 68 26 6 0 -1 -2 -2 -2 -2 -2 -2 -2 -2 -2 -2 -2 -2 -2 -2 -1 0 2 12 36 75 104 89 49 19 5 1 2 14 47 95 
95 47 14 2 -1 -2 -2 -2 -2 -2 -2 -2 -2 -1 2 15 49 97 101 60 34 33 47 67 88 102 104 97 83 64 44 28 16 8 4 1 0 0 0 0 1 2 4 6 10 14 19 26 35 42 49 57 68 81 92 99 104 104 100 96 90 80 67 55 45 36 26 19 15 13 13 21 47 92 102 57 20 4 0 -1 -2 -2 -2 -2 -2 -2 -2 -2 -2 -2 -2 -2 -2 -2 -2 -1 0 4 18 47 88 104 77 39 15 4 4 15 47 95 
95 47 14 2 -1 -2 -2 -2 -2 -2 -2 -2 -1 0 4 20 57 106 108 74 62 72 90 103 103 90 71 53 38 25 15 7 3 0 0 -1 -1 -1 -1 -1 -1 -1 0 0 1 2 3 6 9 12 15 19 26 36 45 55 67 80 90 96 100 104 104 99 92 81 68 57 49 43 39 42 65 104 100 50 16 2 -1 -2 -2 -2 -2 -2 -2 -2 -2 -2 -2 -2 -2 -2 -2 -2 -2 -2 -1 0 7 26 60 97 101 69 33 12 6 16 47 95 
95 47 14 2 -1 -2 -2 -2 -2 -2 -2 -2 -1 0 8 29 73 121 125 105 100 105 103 89 67 46 30 18 11 6 2 0 0 -1 -1 -2 -2 -2 -2 -2 -2 -2 -1 -1 -1 -1 0 0 0 1 2 4 6 10 14 19 26 35 42 49 57 68 81 92 99 104 104 100 96 91 84 82 97 121 101 47 14 2 -1 -2 -2 -2 -2 -2 -2 -2 -2 -2 -2 -2 -2 -2 -2 -2 -2 -2 -2 -1 2 11 33 69 101 97 60 27 12 18 48 95 
95 47 14 2 -1 -2 -2 -2 -2 -2 -2 -1 0 3 15 45 95 136 137 120 106 89 67 46 28 16 8 4 1 0 -1 -1 -1 -2 -2 -2 -2 -2 -2 -2 -2 -2 -2 -2 -2 -2 -1 -1 -1 -1 -1 0 0 1 2 3 6 9 12 15 19 26 36 45 55 67 80 90 96 101 107 115 129 139 103 46 14 2 -1 -2 -2 -2 -2 -2 -2 -2 -2 -2 -2 -2 -2 -2 -2 -2 -2 -2 -2 -1 0 3 15 39 77 104 88 49 24 22 49 96 
95 47 14 2 -1 -2 -2 -2 -2 -2 -2 -1 1 8 29 68 113 127 109 86 64 44 28 16 8 3 0 0 -1 -1 -2 -2 -2 -2 -2 -2 -2 -2 -2 -2 -2 -2 -2 -2 -2 -2 -2 -2 -2 -2 -2 -1 -1 -1 -1 0 0 0 1 2 4 6 10 14 19 26 35 42 49 57 71 92 119 136 102 46 14 2 -1 -2 -2 -2 -2 -2 -2 -2 -2 -2 -2 -2 -2 -2 -2 -2 -2 -2 -2 -2 -1 0 5 19 48 88 104 78 44 32 53 97 
96 47 14 2 -1 -2 -2 -2 -2 -2 -1 0 4 18 49 92 112 90 60 39 25 15 7 3 0 0 -1 -1 -2 -2 -2 -2 -2 -2 -2 -2 -2 -2 -2 -2 -2 -2 -2 -2 -2 -2 -2 -2 -2 -2 -2 -2 -2 -2 -2 -1 -1 -1 -1 -1 0 0 1 2 3 6 9 12 15 20 30 49 83 117 99 46 14 2 -1 -2 -2 -2 -2 -2 -2 -2 -2 -2 -2 -2 -2 -2 -2 -2 -2 -2 -2 -2 -2 -1 1 8 26 60 97 102 73 50 61 99 
96 47 14 2 -1 -2 -2 -2 -2 -1 0 2 12 36 75 105 91 53 26 13 6 2 0 0 -1 -1 -2 -2 -2 -2 -2 -2 -2 -2 -2 -2 -2 -2 -2 -2 -2 -2 -2 -2 -2 -2 -2 -2 -2 -2 -2 -2 -2 -2 -2 -2 -2 -2 -2 -2 -1 -1 -1 -1 0 0 0 1 2 5 11 26 60 103 97 47 14 2 -1 -2 -2 -2 -2 -2 -2 -2 -2 -2 -2 -2 -2 -2 -2 -2 -2 -2 -2 -2 -2 -1 0 2 11 33 69 102 101 76 75 104 
97 47 14 2 -1 -2 -2 -2 -2 -1 1 8 26 62 99 99 62 28 10 3 0 0 -1 -1 -2 -2 -2 -2 -2 -2 -2 -2 -2 -2 -2 -2 -2 -2 -2 -2 -2 -2 -2 -2 -2 -2 -2 -2 -2 -2 -2 -2 -2 -2 -2 -2 -2 -2 -2 -2 -2 -2 -2 -2 -1 -1 -1 -1 0 0 4 17 50 98 97 48 15 2 -1 -2 -2 -2 -2 -2 -2 -2 -2 -2 -2 -2 -2 -2 -2 -2 -2 -2 -2 -2 -2 -2 -1 0 3 15 39 77 107 102 95 112 
99 46 14 2 -1 -2 -2 -2 -1 0 5 19 49 89 105 76 37 13 3 0 -1 -1 -1 -2 -2 -2 -2 -2 -2 -2 -2 -2 -2 -2 -2 -2 -2 -2 -2 -2 -2 -2 -2 -2 -2 -2 -2 -2 -2 -2 -2 -2 -2 -2 -2 -2 -2 -2 -2 -2 -2 -2 -2 -2 -2 -2 -2 -2 -1 0 3 15 48 96 99 52 18 4 0 -1 -2 -2 -2 -2 -2 -2 -2 -2 -2 -2 -2 -2 -2 -2 -2 -2 -2 -2 -2 -2 -2 -1 0 5 19 48 90 115 117 123 
101 46 14 2 -1 -2 -2 -1 0 4 16 40 78 107 92 51 21 7 1 0 -1 -1 -1 -1 -1 -1 -1 -1 -1 -1 -1 -2 -2 -2 -2 -2 -2 -2 -2 -2 -2 -2 -2 -2 -2 -2 -2 -2 -2 -2 -2 -2 -2 -2 -2 -2 -2 -2 -2 -2 -2 -2 -2 -2 -2 -2 -2 -2 -1 0 4 17 49 98 107 63 26 8 1 0 -1 -2 -2 -2 -2 -2 -2 -2 -2 -2 -2 -2 -2 -2 -2 -2 -2 -2 -2 -2 -2 -2 -1 1 8 26 61 104 130 136 
102 45 13 2 -1 -1 -1 0 4 14 36 72 108 110 76 41 20 9 5 3 2 2 2 2 2 2 2 1 0 0 0 -1 -1 -1 -1 -1 -1 -1 -1 -1 -1 -1 -2 -2 -2 -2 -2 -2 -2 -2 -2 -2 -2 -2 -2 -2 -2 -2 -2 -2 -2 -2 -2 -2 -2 -2 -1 -1 0 2 10 26 59 107 124 87 45 21 9 3 0 -1 -1 -2 -2 -2 -2 -2 -2 -2 -2 -2 -2 -2 -2 -2 -2 -2 -2 -2 -2 -2 -1 0 2 12 35 76 121 140 
101 45 13 2 -1 -1 0 4 15 36 71 111 130 112 80 55 39 27 20 16 15 14 14 14 14 14 13 12 9 6 4 2 2 2 2 2 2 2 1 0 0 0 -1 -1 -1 -1 -1 -1 -1 -1 -1 -1 -1 -1 -2 -2 -2 -2 -2 -2 -2 -2 -2 -2 -1 -1 0 1 4 12 27 50 85 124 141 119 82 51 29 15 7 2 0 -1 -1 -2 -2 -2 -2 -2 -2 -2 -2 -2 -2 -2 -2 -2 -2 -2 -2 -2 -2 -1 0 4 18 49 97 132 
99 46 14 2 0 0 4 15 36 71 110 137 139 123 107 94 82 68 57 51 48 47 47 47 47 46 45 41 34 26 20 16 15 14 14 14 14 13 12 9 6 4 2 2 2 2 2 2 2 2 1 0 0 0 -1 -1 -1 -1 -1 -1 -1 -1 -1 -1 0 0 3 8 19 36 61 89 111 121 124 121 111 92 68 44 25 12 4 1 0 -1 -2 -2 -2 -2 -2 -2 -2 -2 -2 -2 -2 -2 -2 -2 -2 -2 -2 -2 -1 1 9 30 73 117 
97 46 14 3 1 5 15 37 71 104 119 115 107 102 100 102 105 105 101 98 96 95 95 95 95 95 93 89 80 68 57 51 48 47 47 47 46 45 41 34 26 20 16 15 14 14 14 14 14 13 12 9 6 4 2 2 2 2 2 2 2 1 1 1 3 7 15 29 49 75 99 105 94 78 70 77 93 104 103 87 61 36 19 8 3 0 -1 -1 -2 -2 -2 -2 -2 -2 -2 -2 -2 -2 -2 -2 -2 -2 -2 -2 -1 0 4 20 58 105 
96 47 15 5 6 16 38 71 101 105 84 63 52 49 51 57 68 80 89 93 95 95 95 95 95 96 98 101 104 104 101 98 96 95 95 95 95 93 89 80 68 57 51 48 47 47 47 47 46 45 41 34 26 20 16 15 14 14 14 14 13 12 10 10 14 26 45 68 91 104 99 76 51 33 27 32 47 68 91 104 99 75 49 29 15 7 2 0 -1 -1 -2 -2 -2 -2 -2 -2 -2 -2 -2 -2 -2 -2 -2 -2 -2 -1 3 16 51 99 
96 49 19 12 20 41 72 101 101 73 42 24 17 15 16 20 26 34 41 45 46 47 47 47 47 48 51 57 68 80 89 93 95 95 95 95 96 98 101 104 104 101 98 96 95 95 95 95 95 93 89 80 68 57 51 48 47 47 47 46 45 42 37 35 43 63 87 103 103 87 61 36 19 10 7 9 16 29 49 75 99 104 91 68 44 25 12 4 1 0 -1 -2 -2 -2 -2 -2 -2 -2 -2 -2 -2 -2 -2 -2 -2 -1 2 15 48 96 
97 53 28 30 50 78 102 100 70 38 17 7 3 2 3 4 6 9 12 13 14 14 14 14 14 15 16 20 26 34 41 45 46 47 47 47 48 51 57 68 80 89 93 95 95 95 95 95 96 98 101 104 104 101 98 96 95 95 95 95 93 91 86 84 91 105 107 91 68 44 25 12 4 1 0 1 3 9 19 36 61 87 103 103 87 61 36 19 8 3 0 -1 -1 -2 -2 -2 -2 -2 -2 -2 -2 -2 -2 -2 -2 -1 2 14 47 96 
101 64 50 65 89 105 97 68 36 15 5 0 0 -1 -1 0 0 0 1 2 2 2 2 2 2 2 2 4 6 9 12 13 14 14 14 14 15 16 20 26 34 41 45 46 47 47 47 47 48 51 57 68 80 89 93 95 95 95 95 96 99 106 119 131 132 113 81 51 29 15 7 2 0 -1 -1 -1 0 1 4 12 25 44 68 91 104 99 75 49 29 15 7 2 0 -1 -1 -2 -2 -2 -2 -2 -2 -2 -2 -2 -2 -1 2 14 47 96 
109 85 84 101 105 88 60 33 14 4 0 -1 -1 -2 -2 -1 -1 -1 -1 -1 -1 -1 -1 -1 -1 -1 -1 0 0 0 1 2 2 2 2 2 2 2 4 6 9 12 13 14 14 14 14 14 15 16 20 26 34 41 45 46 47 47 47 49 54 68 99 134 131 87 46 21 9 3 0 -1 -1 -2 -2 -2 -1 -1 0 2 7 15 29 49 75 99 104 91 68 44 25 12 4 1 0 -1 -1 -2 -2 -2 -2 -2 -2 -2 -2 -1 2 14 47 97 
124 114 112 104 78 48 26 11 3 0 -1 -2 -2 -2 -2 -2 -2 -2 -2 -2 -2 -2 -2 -2 -2 -2 -2 -1 -1 -1 -1 -1 -1 -1 -1 -1 -1 -1 0 0 0 1 2 2 2 2 2 2 2 2 4 6 9 12 13 14 14 14 14 16 20 35 69 114 113 64 26 8 1 0 -1 -2 -2 -2 -2 -2 -2 -2 -1 -1 0 3 8 19 36 61 87 103 103 87 61 36 19 8 3 0 0 -1 -2 -2 -2 -2 -2 -2 -2 -1 2 14 46 99 
138 131 107 72 40 19 8 2 0 -1 -2 -2 -2 -2 -2 -2 -2 -2 -2 -2 -2 -2 -2 -2 -2 -2 -2 -2 -2 -2 -2 -2 -2 -2 -2 -2 -2 -2 -1 -1 -1 -1 -1 -1 -1 -1 -1 -1 -1 -1 0 0 0 1 2 2 2 2 2 3 7 20 54 102 101 52 18 4 0 -1 -2 -2 -2 -2 -2 -2 -2 -2 -2 -2 -1 0 1 4 12 25 44 68 91 104 99 75 49 29 16 8 3 0 -1 -1 -2 -2 -2 -2 -2 -1 2 14 46 102 
138 116 73 38 16 5 1 0 -1 -2 -2 -2 -2 -2 -2 -2 -2 -2 -2 -2 -2 -2 -2 -2 -2 -2 -2 -2 -2 -2 -2 -2 -2 -2 -2 -2 -2 -2 -2 -2 -2 -2 -2 -2 -2 -2 -2 -2 -2 -2 -1 -1 -1 -1 -1 -1 -1 -1 -1 0 3 16 49 97 97 48 15 2 -1 -2 -2 -2 -2 -2 -2 -2 -2 -2 -2 -2 -2 -1 -1 0 2 7 15 29 49 75 99 104 91 68 46 28 15 7 2 0 -1 -1 -2 -2 -2 -1 2 13 46 102 
123 85 42 16 5 0 -1 -1 -2 -2 -2 -2 -2 -2 -2 -2 -2 -2 -2 -2 -2 -2 -2 -2 -2 -2 -2 -2 -2 -2 -2 -2 -2 -2 -2 -2 -2 -2 -2 -2 -2 -2 -2 -2 -2 -2 -2 -2 -2 -2 -2 -2 -2 -2 -2 -2 -2 -2 -1 -1 2 14 47 96 96 47 14 2 -1 -2 -2 -2 -2 -2 -2 -2 -2 -2 -2 -2 -2 -2 -2 -1 -1 0 3 8 19 36 61 86 103 103 89 67 44 25 12 4 1 0 -1 -1 -1 0 2 14 46 100 
108 63 24 7 0 -1 -2 -2 -2 -2 -2 -2 -2 -2 -2 -2 -2 -2 -2 -2 -2 -2 -2 -2 -2 -2 -2 -2 -2 -2 -2 -2 -2 -2 -2 -2 -2 -2 -2 -2 -2 -2 -2 -2 -2 -2 -2 -2 -2 -2 -2 -2 -2 -2 -2 -2 -2 -2 -2 -1 2 14 47 95 95 47 14 2 -1 -2 -2 -2 -2 -2 -2 -2 -2 -2 -2 -2 -2 -2 -2 -2 -2 -1 0 1 4 12 25 44 67 89 103 103 87 61 35 18 9 4 2 1 0 0 3 15 47 98 
100 52 17 3 0 -1 -2 -2 -2 -2 -2 -2 -2 -2 -2 -2 -2 -2 -2 -2 -2 -2 -2 -2 -2 -2 -2 -2 -2 -2 -2 -2 -2 -2 -2 -2 -2 -2 -2 -2 -2 -2 -2 -2 -2 -2 -2 -2 -2 -2 -2 -2 -2 -2 -2 -2 -2 -2 -2 -1 2 14 47 95 95 47 14 2 -1 -2 -2 -2 -2 -2 -2 -2 -2 -2 -2 -2 -2 -2 -2 -2 -2 -2 -1 -1 0 2 7 15 28 46 69 92 106 100 76 49 30 20 14 10 6 5 6 17 49 97 
97 48 15 2 0 -1 -2 -2 -2 -2 -2 -2 -2 -2 -2 -2 -2 -2 -2 -2 -2 -2 -2 -2 -2 -2 -2 -2 -2 -2 -2 -2 -2 -2 -2 -2 -2 -2 -2 -2 -2 -2 -2 -2 -2 -2 -2 -2 -2 -2 -2 -2 -2 -2 -2 -2 -2 -2 -2 -1 2 14 47 95 95 47 14 2 -1 -2 -2 -2 -2 -2 -2 -2 -2 -2 -2 -2 -2 -2 -2 -2 -2 -2 -2 -2 -1 0 0 3 9 18 33 56 86 112 116 98 73 56 45 35 26 20 18 27 56 100 
98 48 15 3 0 -1 -1 -1 -1 -1 -1 -2 -2 -2 -2 -2 -2 -2 -2 -2 -2 -2 -2 -2 -2 -2 -2 -2 -2 -2 -2 -2 -2 -2 -2 -2 -2 -2 -2 -2 -2 -2 -2 -2 -2 -2 -2 -2 -2 -2 -2 -2 -2 -2 -2 -2 -2 -2 -2 -1 2 14 47 95 95 47 14 2 -1 -2 -2 -2 -2 -2 -2 -2 -2 -2 -2 -2 -2 -2 -2 -2 -2 -2 -2 -1 -1 -1 0 2 5 12 23 40 68 106 134 137 121 105 93 81 68 56 49 52 74 109 
103 51 18 6 3 2 2 1 0 0 0 -1 -1 -1 -1 -1 -1 -1 -1 -2 -2 -2 -2 -2 -2 -2 -2 -2 -2 -2 -2 -2 -2 -2 -2 -2 -2 -2 -2 -2 -2 -2 -2 -2 -2 -2 -2 -2 -2 -2 -2 -2 -2 -2 -2 -2 -2 -2 -2 -1 2 14 47 95 95 47 14 2 -1 -2 -2 -2 -2 -2 -2 -2 -2 -2 -2 -2 -2 -2 -2 -2 -2 -1 -1 0 0 1 4 8 16 27 41 60 85 113 129 125 112 104 103 105 105 100 96 95 108 126 
113 61 30 19 15 14 13 12 9 6 4 2 2 2 2 1 0 0 0 -1 -1 -1 -1 -1 -1 -1 -1 -1 -2 -2 -2 -2 -2 -2 -2 -2 -2 -2 -2 -2 -2 -2 -2 -2 -2 -2 -2 -2 -2 -2 -2 -2 -2 -2 -2 -2 -2 -2 -2 -1 2 14 47 95 95 47 14 2 -1 -2 -2 -2 -2 -2 -2 -2 -2 -2 -2 -2 -2 -2 -2 -1 -1 0 0 2 6 11 18 29 45 64 83 98 107 106 93 73 59 54 58 69 82 92 102 114 132 144 
129 88 61 51 48 47 45 41 34 26 20 16 15 14 13 12 9 6 4 2 2 2 2 2 1 0 0 0 -1 -1 -1 -1 -1 -1 -1 -1 -2 -2 -2 -2 -2 -2 -2 -2 -2 -2 -2 -2 -2 -2 -2 -2 -2 -2 -2 -2 -2 -2 -2 -1 2 14 47 95 95 47 14 2 -1 -2 -2 -2 -2 -2 -2 -2 -2 -2 -2 -2 -1 -1 -1 0 1 4 8 15 25 38 53 70 89 103 105 97 83 64 45 29 21 18 20 27 36 46 58 79 111 141 
145 125 106 98 96 95 93 89 80 68 57 51 48 47 45 41 34 26 20 16 15 14 14 13 12 9 6 4 2 2 2 2 1 0 0 0 -1 -1 -1 -1 -1 -1 -1 -1 -1 -2 -2 -2 -2 -2 -2 -2 -2 -2 -2 -2 -2 -2 -2 -1 2 14 47 95 95 47 14 2 -1 -2 -2 -2 -2 -2 -2 -2 -2 -2 -1 -1 0 0 2 6 11 18 29 45 64 83 97 104 102 89 70 53 38 25 15 8 4 3 4 6 10 15 23 40 76 125 
141 125 106 98 96 96 98 101 104 104 101 98 96 95 93 89 80 68 57 51 48 47 46 45 41 34 26 20 16 15 14 13 12 9 6 4 2 2 2 2 2 1 0 0 0 -1 -1 -1 -1 -1 -1 -1 -1 -2 -2 -2 -2 -2 -1 -1 2 14 47 95 95 47 14 2 -1 -2 -2 -2 -2 -2 -2 -2 -1 -1 0 0 3 7 15 25 38 53 70 89 102 104 97 83 64 45 29 18 11 6 2 0 0 0 0 0 1 3 8 22 56 111 
120 88 62 51 48 48 51 57 68 80 89 93 95 96 98 101 104 104 101 98 96 95 95 93 89 80 68 57 51 48 47 45 41 34 26 20 16 15 14 14 13 12 9 6 4 2 2 2 2 1 0 0 0 -1 -1 -1 -1 -1 -1 0 2 15 47 95 95 47 14 2 -1 -2 -2 -2 -2 -1 -1 0 0 1 4 8 16 28 44 64 83 97 104 102 89 70 53 38 25 15 8 4 1 0 -1 -1 -1 -2 -1 -1 -1 0 3 16 49 102 
104 62 31 19 15 15 16 20 26 34 41 45 47 48 51 57 68 80 89 93 95 95 96 98 101 104 104 101 98 96 95 93 89 80 68 57 51 48 47 46 45 41 34 26 20 16 15 14 13 12 9 6 4 2 2 2 2 2 1 1 4 16 48 96 96 47 14 2 -1 -1 -1 -1 -1 0 0 2 6 11 18 30 46 67 88 102 104 97 83 64 45 29 18 11 6 2 0 0 -1 -1 -2 -2 -2 -2 -2 -2 -1 -1 2 14 47 97 
98 51 19 6 3 2 3 4 6 9 12 13 14 15 16 20 26 34 41 45 46 47 48 51 57 68 80 89 93 95 96 98 101 104 104 101 98 96 95 95 93 89 80 68 57 51 48 47 45 41 34 26 20 16 15 14 14 13 12 10 11 21 52 98 97 48 15 2 0 -1 0 0 1 4 8 15 25 38 53 71 90 103 103 90 71 53 38 25 15 8 4 1 0 0 -1 -1 -2 -2 -2 -2 -2 -2 -2 -2 -2 -1 2 14 47 96 
96 48 15 3 0 -1 -1 0 0 0 1 2 2 2 2 4 6 9 12 13 14 14 15 16 20 26 34 41 45 47 48 51 57 68 80 89 93 95 95 96 98 101 104 104 101 98 96 95 93 89 80 68 57 51 48 47 46 45 41 35 31 36 64 106 102 52 18 4 0 0 3 6 11 18 29 45 64 83 97 104 102 88 67 46 30 18 11 6 2 0 0 -1 -1 -2 -2 -2 -2 -2 -2 -2 -2 -2 -2 -2 -2 -1 2 14 47 95 
95 47 14 2 -1 -1 -2 -1 -1 -1 -1 -1 -1 -1 -1 0 0 0 1 2 2 2 2 2 4 6 9 12 13 14 15 16 20 26 34 41 45 46 47 48 51 57 68 80 89 93 95 96 98 101 104 104 101 98 96 95 95 93 89 81 72 72 92 124 114 64 26 10 6 9 15 25 38 53 70 89 102 104 97 83 64 44 28 16 8 4 1 0 0 -1 -1 -2 -2 -2 -2 -2 -2 -2 -2 -2 -2 -2 -2 -2 -2 -1 2 14 47 95 
95 47 14 2 -1 -2 -2 -2 -2 -2 -2 -2 -2 -2 -2 -1 -1 -1 -1 -1 -1 -1 -1 -1 0 0 0 1 2 2 2 2 4 6 9 12 13 14 14 15 16 20 26 34 41 45 47 48 51 57 68 80 89 93 95 95 96 98 101 105 107 109 122 140 131 88 48 28 24 31 45 64 83 97 104 102 89 70 53 38 25 15 7 3 0 0 -1 -1 -2 -2 -2 -2 -2 -2 -2 -2 -2 -2 -2 -2 -2 -2 -2 -2 -2 -1 2 14 47 95 
95 47 14 2 -1 -2 -2 -2 -2 -2 -2 -2 -2 -2 -2 -2 -2 -2 -2 -2 -2 -2 -2 -2 -1 -1 -1 -1 -1 -1 -1 -1 0 0 0 1 2 2 2 2 2 4 6 9 12 13 14 15 16 20 26 34 41 45 46 47 48 51 57 68 81 91 102 116 126 115 88 68 64 74 90 103 104 97 83 64 45 29 18 11 6 2 0 0 -1 -1 -2 -2 -2 -2 -2 -2 -2 -2 -2 -2 -2 -2 -2 -2 -2 -2 -2 -2 -2 -1 2 14 47 95 
95 47 14 2 -1 -2 -2 -2 -2 -2 -2 -2 -2 -2 -2 -2 -2 -2 -2 -2 -2 -2 -2 -2 -2 -2 -2 -2 -2 -2 -2 -2 -1 -1 -1 -1 -1 -1 -1 -1 -1 0 0 0 1 2 2 2 3 4 6 9 12 13 14 14 15 16 20 26 35 42 50 63 87 115 127 121 112 109 104 90 71 53 38 25 15 8 4 1 0 0 -1 -1 -2 -2 -2 -2 -2 -2 -2 -2 -2 -2 -2 -2 -2 -2 -2 -2 -2 -2 -2 -2 -2 -1 2 14 47 95 
95 47 14 2 -1 -1 -2 -2 -2 -2 -2 -2 -2 -2 -2 -2 -2 -2 -2 -2 -2 -2 -2 -2 -2 -2 -2 -2 -2 -2 -2 -2 -2 -2 -1 -1 -1 -1 -1 -1 -1 -1 -1 -1 -1 -1 -1 -1 0 0 0 1 1 2 2 2 2 3 4 6 10 13 17 26 48 88 131 140 116 89 66 46 30 19 11 6 3 0 0 -1 -1 -1 -1 -2 -2 -2 -2 -2 -2 -2 -2 -2 -2 -2 -2 -2 -2 -2 -2 -2 -2 -2 -2 -2 -1 -1 2 14 47 95 
96 48 15 3 0 -1 -1 -1 -1 -1 -1 -1 -1 -1 -1 -1 -1 -1 -1 -1 -1 -1 -1 -1 -1 -1 -1 -1 -1 -1 -1 -1 -1 -1 -1 -1 -1 -1 -1 -1 -1 -1 -1 -1 -1 -1 -1 -1 -1 0 0 0 0 0 0 0 0 0 0 1 1 3 5 10 27 65 115 122 84 50 29 17 9 5 2 1 0 0 0 -1 -1 -1 -1 -1 -1 -1 -1 -1 -1 -1 -1 -1 -1 -1 -1 -1 -1 -1 -1 -1 -1 -1 -1 -1 -1 0 3 15 48 96 
98 51 19 6 3 2 2 2 2 2 2 2 2 2 2 2 2 2 2 2 2 2 2 2 2 2 2 2 2 2 2 2 2 2 2 2 2 2 2 2 2 2 2 2 2 2 2 2 2 2 2 2 2 2 2 2 2 2 2 2 3 3 4 8 22 56 105 108 64 30 15 8 5 3 3 2 2 2 2 2 2 2 2 2 2 2 2 2 2 2 2 2 2 2 2 2 2 2 2 2 2 2 2 2 2 3 6 19 51 98 
106 62 31 19 15 14 14 14 14 14 14 14 14 14 14 14 14 14 14 14 14 14 14 14 14 14 14 14 14 14 14 14 14 13 14 14 14 14 14 14 14 14 14 14 14 14 14 14 14 13 14 14 14 14 14 14 14 14 14 14 14 15 15 19 32 63 108 109 65 34 21 16 15 15 14 14 14 14 14 14 14 14 14 14 14 14 14 14 14 14 14 14 13 14 14 14 14 14 14 14 14 14 14 14 14 15 18 30 62 106 
126 89 62 51 48 47 47 47 47 47 47 47 47 47 47 47 47 47 47 47 47 47 47 47 47 47 47 47 47 47 47 46 46 46 46 46 47 47 47 47 47 47 47 47 47 47 47 47 46 46 46 46 47 47 47 47 47 47 47 47 47 47 48 51 62 89 125 125 89 63 52 48 47 47 47 47 47 47 47 47 47 47 47 47 47 47 47 47 47 47 46 46 46 46 46 47 47 47 47 47 47 47 46 46 46 47 50 61 88 126 
152 126 106 98 96 95 95 95 95 95 95 95 95 95 95 95 95 95 95 95 95 95 95 95 95 95 95 95 95 96 97 99 102 102 100 98 96 95 95 95 95 95 95 95 95 95 96 97 99 103 102 99 97 96 95 95 95 95 95 95 95 95 96 98 104 119 138 138 119 104 98 96 95 95 95 95 95 95 95 95 95 95 95 95 95 95 95 95 96 96 98 101 103 101 98 96 95 95 95 95 95 96 98 101 103 102 101 107 126 152 
