P2
110 110
255
151 126 107 98 96 95 95 95 95 95 95 95 95 95 95 95 95 95 95 95 95 95 95 95 95 95 95 95 96 99 107 122 136 137 123 108 100 96 95 95 95 95 95 95 95 96 98 105 120 137 136 119 104 98 96 95 95 95 95 95 95 95 95 95 97 99 102 102 99 97 95 95 95 95 95 95 95 95 95 95 95 95 95 95 95 95 95 96 98 103 116 133 138 125 109 100 97 95 95 96 97 102 114 131 139 127 113 112 128 151 
126 91 64 53 50 49 49 49 49 49 49 49 49 49 49 49 49 49 49 49 49 49 49 49 49 49 49 50 52 60 79 108 130 118 88 65 54 50 49 49 49 49 49 49 49 50 54 67 94 128 126 91 64 53 50 49 49 49 49 49 49 49 49 48 48 48 47 47 48 48 48 49 49 49 49 49 49 49 49 49 49 49 49 49 49 49 49 50 55 67 94 125 126 95 68 55 51 49 49 50 53 62 85 119 129 101 75 71 93 127 
107 64 33 21 17 16 16 16 16 16 16 16 16 16 16 16 16 16 16 16 16 16 16 16 16 16 16 18 24 38 68 104 113 82 47 28 19 17 16 16 16 16 16 16 16 18 23 40 75 117 109 64 33 21 17 16 16 16 16 16 16 16 16 16 15 15 15 15 15 15 16 16 16 16 16 16 16 16 16 16 16 16 16 16 16 16 16 18 26 45 82 114 98 58 32 21 17 16 16 17 21 34 64 106 109 70 41 40 66 107 
99 53 21 8 4 3 3 3 3 3 3 3 3 3 3 3 3 3 3 3 3 3 3 3 3 3 4 8 19 43 81 107 90 51 22 9 5 3 3 3 3 3 3 3 4 6 14 36 78 119 102 52 20 8 4 3 3 3 3 3 3 3 3 3 3 2 2 2 2 3 3 3 3 3 3 3 3 3 3 3 3 3 3 3 3 3 4 7 18 45 88 107 74 34 14 6 3 3 3 5 10 26 62 103 94 51 25 26 54 99 
96 50 17 4 0 0 0 0 0 0 0 0 0 0 0 0 0 0 0 0 0 0 0 0 0 0 2 10 29 64 99 99 63 28 10 2 0 0 0 0 0 0 0 0 0 5 18 47 95 129 102 48 16 4 0 0 0 0 0 0 0 0 0 0 0 0 0 0 0 0 0 0 0 0 0 0 0 0 0 0 0 0 0 0 0 0 1 6 21 55 97 97 55 21 6 1 0 0 0 1 9 29 70 104 82 39 17 21 51 96 
95 49 16 3 0 -1 -1 -1 -1 -1 -1 -1 -1 -1 -1 -1 -1 -1 -1 -1 -1 -1 -1 -1 -1 0 6 20 49 89 104 76 38 14 3 0 -1 -1 -1 -1 -1 -1 -1 0 1 9 29 68 116 137 103 48 16 3 0 -1 -1 -1 -1 -1 -1 -1 -1 -1 -1 -1 -1 -1 -1 -1 -1 -1 -1 -1 -1 -1 -1 -1 -1 -1 -1 -1 -1 -1 -1 0 1 9 31 72 104 83 39 13 2 0 -1 -1 0 2 11 37 82 104 69 29 13 19 50 95 
95 49 16 3 0 -1 -1 -2 -2 -2 -2 -2 -2 -2 -2 -2 -2 -2 -2 -2 -2 -1 -1 -1 0 3 14 38 76 103 88 49 20 5 0 -1 -1 -1 -2 -2 -1 -1 -1 0 4 17 47 91 128 136 104 51 17 3 0 -1 -1 -2 -2 -2 -2 -2 -2 -2 -2 -2 -2 -2 -2 -2 -2 -2 -2 -2 -2 -2 -2 -2 -2 -2 -2 -2 -1 -1 -1 0 3 16 47 89 102 65 27 7 0 -1 -1 -1 0 3 15 46 92 99 57 22 10 18 49 95 
95 49 16 3 0 -1 -2 -2 -2 -2 -2 -2 -2 -2 -2 -2 -2 -2 -2 -2 -2 -1 -1 -1 1 9 28 63 98 98 63 28 9 1 -1 -1 -1 -2 -2 -2 -1 -1 0 1 10 31 69 109 124 126 107 58 21 5 0 -1 -1 -2 -2 -2 -2 -2 -2 -2 -2 -2 -2 -2 -2 -2 -2 -2 -2 -2 -2 -2 -2 -2 -2 -2 -2 -2 -2 -1 -1 0 7 27 65 102 89 47 16 3 0 -1 -1 -1 0 5 21 57 99 92 47 16 8 17 49 95 
95 49 16 3 0 -1 -2 -2 -2 -2 -2 -2 -2 -2 -2 -2 -2 -2 -2 -2 -2 -1 -1 0 5 20 49 88 103 76 38 14 3 0 -1 -1 -2 -2 -2 -2 -1 -1 0 5 20 51 92 111 103 109 109 69 28 7 0 -1 -1 -2 -2 -2 -2 -2 -2 -2 -2 -2 -2 -2 -2 -2 -2 -2 -2 -2 -2 -2 -2 -2 -2 -2 -2 -2 -2 -1 0 2 13 39 83 104 72 31 9 1 -1 -1 -1 -1 0 7 28 69 104 82 37 12 6 17 49 95 
95 49 16 3 0 -1 -2 -2 -2 -2 -2 -2 -2 -2 -2 -2 -2 -2 -2 -2 -1 -1 0 3 14 38 76 103 88 49 20 5 0 -1 -1 -2 -2 -2 -2 -1 -1 0 3 13 37 76 105 95 76 87 108 81 36 10 1 -1 -1 -2 -2 -2 -2 -2 -2 -2 -2 -2 -2 -2 -2 -2 -2 -2 -2 -2 -2 -2 -2 -2 -2 -2 -2 -2 -1 -1 0 5 20 54 96 96 54 20 5 0 -1 -1 -1 -1 1 11 37 82 104 69 28 9 5 16 49 95 
95 49 16 3 0 -1 -2 -2 -2 -2 -2 -2 -2 -2 -2 -2 -2 -2 -2 -2 -1 -1 1 9 28 63 98 98 63 28 9 1 -1 -1 -2 -2 -2 -2 -2 -1 -1 1 8 27 62 98 100 69 51 69 103 89 42 13 2 0 -1 -2 -2 -2 -2 -2 -2 -2 -2 -2 -2 -2 -2 -2 -2 -2 -2 -2 -2 -2 -2 -2 -2 -2 -2 -2 -1 -1 1 9 31 72 104 83 39 13 2 0 -1 -1 -1 0 3 15 46 92 99 57 21 6 4 16 49 95 
96 50 17 3 0 -1 -1 -2 -2 -2 -2 -2 -2 -2 -2 -2 -2 -2 -2 -1 -1 0 5 20 49 88 103 76 38 14 3 0 -1 -1 -2 -2 -2 -2 -1 -1 0 4 17 45 86 104 77 43 34 58 98 93 46 15 2 0 -1 -2 -2 -2 -2 -2 -2 -2 -2 -2 -2 -2 -2 -2 -2 -2 -2 -2 -2 -2 -2 -2 -2 -2 -2 -1 -1 0 3 16 47 89 102 65 27 7 0 -1 -1 -1 -1 0 5 21 57 99 92 46 16 4 4 16 49 95 
100 54 19 4 0 -1 -1 -2 -2 -2 -2 -2 -2 -2 -2 -2 -2 -2 -1 -1 0 3 14 38 76 103 88 49 20 5 0 -1 -1 -2 -2 -2 -2 -2 -1 -1 1 9 29 68 102 91 52 26 24 52 96 95 49 16 3 0 -1 -2 -2 -2 -2 -2 -2 -2 -2 -2 -2 -2 -2 -2 -2 -2 -2 -2 -2 -2 -2 -2 -2 -2 -2 -1 -1 0 7 27 65 102 89 47 16 3 0 -1 -1 -1 -1 0 7 28 69 104 82 37 11 3 3 16 48 96 
108 65 26 8 1 -1 -1 -1 -2 -2 -2 -2 -2 -2 -2 -2 -2 -2 -1 -1 1 9 28 63 98 98 63 28 9 1 -1 -1 -2 -2 -2 -2 -2 -1 -1 0 4 17 47 89 102 69 32 15 19 48 93 97 52 18 3 0 -1 -1 -2 -2 -2 -2 -2 -2 -2 -2 -2 -2 -2 -2 -2 -2 -2 -2 -2 -2 -2 -2 -2 -2 -2 -1 0 2 13 39 83 104 72 31 9 1 -1 -1 -1 -1 -1 1 11 37 82 104 69 28 8 1 3 15 48 97 
122 86 44 18 5 0 -1 -1 -2 -2 -2 -2 -2 -2 -2 -2 -2 -1 -1 0 5 20 49 88 103 76 38 14 3 0 -1 -1 -2 -2 -2 -2 -2 -1 0 1 10 31 69 102 89 48 19 8 15 43 89 100 59 21 5 0 -1 -1 -2 -2 -2 -2 -2 -2 -2 -2 -2 -2 -2 -2 -2 -2 -2 -2 -2 -2 -2 -2 -2 -2 -1 -1 0 5 20 54 96 96 54 20 5 0 -1 -1 -1 -1 0 3 15 46 92 99 57 21 5 1 3 15 47 100 
136 115 74 38 15 4 0 -1 -1 -2 -2 -2 -2 -2 -2 -2 -1 -1 0 3 14 38 76 103 88 49 20 5 0 -1 -1 -2 -2 -2 -2 -2 -1 -1 0 5 20 51 91 102 68 30 10 4 11 36 80 104 69 28 7 0 -1 -1 -2 -2 -2 -2 -2 -2 -2 -2 -2 -2 -2 -2 -2 -2 -2 -2 -2 -2 -2 -2 -2 -2 -1 -1 1 9 31 72 104 83 39 13 2 0 -1 -1 -1 -1 0 5 21 57 99 92 46 15 3 0 3 15 47 102 
137 131 105 68 34 12 3 0 -1 -1 -2 -2 -2 -2 -2 -2 -1 -1 1 9 28 63 98 98 63 28 9 1 -1 -1 -2 -2 -2 -2 -2 -1 -1 0 3 13 37 76 104 86 45 17 4 2 8 28 69 104 80 36 10 1 -1 -1 -2 -2 -2 -2 -2 -2 -2 -2 -2 -2 -2 -2 -2 -2 -2 -2 -2 -2 -2 -2 -2 -1 -1 0 3 16 47 89 102 65 27 7 0 -1 -1 -2 -1 -1 0 7 28 69 104 82 37 11 2 0 3 15 47 101 
125 117 114 98 61 27 9 1 0 -1 -1 -2 -2 -2 -2 -1 -1 0 5 20 49 88 103 76 38 14 3 0 -1 -1 -2 -2 -2 -2 -2 -1 -1 1 8 27 62 98 98 62 27 8 1 0 5 22 59 100 88 42 13 2 0 -1 -2 -2 -2 -2 -2 -2 -2 -2 -2 -2 -2 -2 -2 -2 -2 -2 -2 -2 -2 -2 -2 -1 -1 0 7 27 65 102 89 47 16 3 0 -1 -1 -2 -1 -1 1 11 37 82 104 69 28 7 0 0 3 15 48 99 
111 92 95 107 89 50 21 7 1 -1 -1 -1 -2 -2 -1 -1 0 3 14 38 76 103 88 49 20 5 0 -1 -1 -2 -2 -2 -2 -2 -1 -1 0 4 17 45 86 104 76 37 13 3 0 0 4 18 52 97 93 46 15 2 0 -1 -2 -2 -2 -2 -2 -2 -2 -2 -2 -2 -2 -2 -2 -2 -2 -2 -2 -2 -2 -2 -2 -1 0 2 13 39 83 104 72 31 9 1 -1 -1 -2 -1 -1 0 3 15 46 92 99 57 21 5 0 0 3 15 48 97 
102 72 68 93 104 78 42 18 6 0 -1 -1 -1 -1 -1 -1 1 9 28 63 98 98 63 28 9 1 -1 -1 -2 -2 -2 -2 -2 -2 -1 -1 1 9 29 68 102 91 51 20 5 0 -1 0 3 16 49 95 95 49 16 3 0 -1 -2 -2 -2 -2 -2 -2 -2 -2 -2 -2 -2 -2 -2 -2 -2 -2 -2 -2 -2 -2 -1 -1 0 5 20 54 96 96 54 20 5 0 -1 -1 -2 -1 -1 0 5 21 57 99 92 46 15 3 0 0 3 16 48 96 
98 60 46 66 97 101 73 39 17 5 0 -1 -1 -1 -1 0 5 20 49 88 103 76 38 14 3 0 -1 -1 -2 -2 -2 -2 -2 -1 -1 0 4 17 47 89 102 69 31 10 1 0 -1 0 2 15 46 93 97 52 18 3 0 -1 -1 -2 -2 -2 -2 -2 -2 -2 -2 -2 -2 -2 -2 -2 -2 -2 -2 -2 -2 -2 -1 -1 1 9 31 72 104 83 39 13 2 0 -1 -2 -2 -1 -1 0 7 28 69 104 82 37 11 1 0 0 3 16 49 95 
96 54 31 39 70 99 100 72 39 17 5 0 0 -1 0 3 14 38 76 103 88 49 20 5 0 -1 -1 -2 -2 -2 -2 -2 -2 -1 0 1 10 31 69 102 89 47 17 4 0 -1 -1 0 2 13 42 88 100 59 21 5 0 -1 -1 -2 -2 -2 -2 -2 -2 -2 -2 -2 -2 -2 -2 -2 -2 -2 -2 -2 -2 -1 -1 0 3 16 47 89 102 65 27 7 0 -1 -1 -2 -2 -1 -1 1 11 37 82 104 69 28 7 0 -1 0 3 16 49 95 
96 51 22 20 39 71 100 100 72 39 17 5 1 0 1 9 28 63 98 98 63 28 9 1 -1 -1 -2 -2 -2 -2 -2 -2 -1 -1 0 5 20 51 91 102 68 29 9 1 -1 -1 -1 -1 1 10 36 80 104 69 28 7 0 -1 -1 -2 -2 -2 -2 -2 -2 -2 -2 -2 -2 -2 -2 -2 -2 -2 -2 -2 -2 -1 -1 0 7 27 65 102 89 47 16 3 0 -1 -1 -2 -2 -1 0 3 15 46 92 99 57 21 5 0 -1 0 3 16 49 95 
95 49 18 10 18 39 71 100 100 72 39 17 6 3 6 20 49 88 103 76 38 14 3 0 -1 -1 -2 -2 -2 -2 -2 -1 -1 0 3 13 37 76 104 86 45 17 4 0 -1 -1 -1 -1 0 7 28 69 104 80 36 10 1 -1 -1 -2 -2 -2 -2 -2 -2 -2 -2 -2 -2 -2 -2 -2 -2 -2 -2 -2 -2 -1 0 2 13 39 83 104 72 31 9 1 -1 -1 -2 -2 -1 -1 0 5 21 57 99 92 46 15 3 0 -1 0 3 16 49 95 
95 49 17 5 6 17 39 72 100 100 72 39 18 11 16 39 76 103 88 49 20 5 0 -1 -1 -2 -2 -2 -2 -2 -2 -1 -1 1 8 27 62 98 98 62 27 8 1 -1 -1 -2 -1 -1 0 5 21 59 100 89 43 13 2 0 -1 -2 -2 -2 -2 -2 -2 -2 -2 -2 -2 -2 -2 -2 -2 -2 -2 -2 -1 -1 0 5 20 54 96 96 54 20 5 0 -1 -1 -2 -2 -1 -1 0 7 28 69 104 82 37 11 1 -1 -1 0 3 16 49 95 
95 49 16 4 2 6 17 39 72 100 100 73 43 28 36 65 99 98 63 28 9 1 -1 -1 -2 -2 -2 -2 -2 -2 -1 -1 0 4 17 45 86 104 76 37 13 3 0 -1 -1 -2 -1 -1 0 3 18 52 97 93 47 15 3 0 -1 -2 -2 -2 -2 -2 -2 -2 -2 -2 -2 -2 -2 -2 -2 -2 -2 -2 -1 -1 1 9 31 72 104 83 39 13 2 0 -1 -2 -2 -2 -1 -1 1 11 37 82 104 69 28 7 0 -1 -1 0 3 16 49 95 
95 49 16 3 0 1 5 17 39 72 100 102 79 61 68 94 104 76 37 14 3 0 -1 -1 -2 -2 -2 -2 -2 -2 -1 -1 1 9 29 68 102 91 51 20 5 0 -1 -1 -2 -2 -2 -1 0 3 15 47 93 97 52 18 3 0 -1 -1 -2 -2 -2 -2 -2 -2 -2 -2 -2 -2 -2 -2 -2 -2 -2 -1 -1 0 3 16 47 89 102 65 27 7 0 -1 -1 -2 -2 -2 -1 0 3 15 46 92 99 57 21 5 0 -1 -1 0 3 16 49 95 
95 49 16 3 0 0 0 5 17 39 72 102 110 104 107 112 89 49 20 5 0 -1 -1 -2 -2 -2 -2 -2 -2 -1 -1 0 4 17 47 89 102 69 31 10 1 0 -1 -2 -2 -2 -2 -1 0 2 13 43 89 100 59 21 5 0 -1 -1 -2 -2 -2 -2 -2 -2 -2 -2 -2 -2 -2 -2 -2 -2 -2 -1 -1 0 7 27 65 102 89 47 16 3 0 -1 -1 -2 -2 -1 -1 0 5 21 57 99 92 46 15 3 0 -1 -1 0 3 16 49 95 
95 49 16 3 0 -1 -1 0 5 17 39 74 111 134 134 107 63 28 9 1 -1 -1 -2 -2 -2 -2 -2 -2 -2 -1 0 1 10 31 69 102 89 47 17 4 0 -1 -1 -2 -2 -2 -2 -1 -1 1 10 36 80 104 69 28 7 0 -1 -1 -2 -2 -2 -2 -2 -2 -2 -2 -2 -2 -2 -2 -2 -2 -2 -1 0 2 13 39 83 104 72 31 9 1 -1 -1 -2 -2 -2 -1 -1 0 7 28 69 104 82 37 11 1 -1 -1 -1 0 3 16 49 95 
95 49 16 3 0 -1 -1 -1 0 6 18 44 86 129 129 85 40 14 3 0 -1 -1 -2 -2 -2 -2 -2 -2 -1 -1 0 5 20 51 91 102 68 29 9 1 -1 -1 -2 -2 -2 -2 -2 -1 -1 0 7 28 69 104 80 36 10 1 -1 -1 -2 -2 -2 -2 -2 -2 -2 -2 -2 -2 -2 -2 -2 -2 -1 -1 0 5 20 54 96 96 54 20 5 0 -1 -1 -2 -2 -2 -1 -1 1 11 37 82 104 69 28 7 0 -1 -1 -1 0 3 16 49 95 
95 49 16 3 0 -1 -1 -1 0 1 8 26 63 110 114 68 27 8 1 -1 -1 -2 -2 -2 -2 -2 -2 -1 -1 0 3 13 37 76 104 86 45 17 4 0 -1 -1 -2 -2 -2 -2 -2 -1 -1 0 5 21 59 100 88 42 13 2 0 -1 -2 -2 -2 -2 -2 -2 -2 -2 -2 -2 -2 -2 -2 -2 -1 -1 1 9 31 72 104 83 39 13 2 0 -1 -2 -2 -2 -2 -1 0 3 15 46 92 99 57 21 5 0 -1 -1 -1 0 3 16 49 95 
95 49 16 3 0 -1 -1 -1 -1 0 3 16 48 95 106 64 25 6 0 -1 -1 -2 -2 -2 -2 -2 -2 -1 -1 1 8 27 62 98 98 62 27 8 1 -1 -1 -2 -2 -2 -2 -2 -2 -1 -1 0 3 18 52 97 93 46 15 2 0 -1 -2 -2 -2 -2 -2 -2 -2 -2 -2 -2 -2 -2 -2 -1 -1 0 3 16 47 89 102 65 27 7 0 -1 -1 -2 -2 -2 -1 -1 0 5 21 57 99 92 46 15 3 0 -1 -1 -1 0 3 16 49 95 
95 49 16 3 0 -1 -2 -2 -1 -1 1 11 37 82 105 71 29 8 0 -1 -1 -2 -2 -2 -2 -2 -1 -1 0 4 17 45 86 104 76 37 13 3 0 -1 -1 -2 -2 -2 -2 -2 -2 -2 -1 0 3 16 49 95 95 49 16 3 0 -1 -2 -2 -2 -2 -2 -2 -2 -2 -2 -2 -2 -2 -2 -1 -1 0 7 27 65 102 89 47 16 3 0 -1 -1 -2 -2 -2 -1 -1 0 7 28 69 104 82 37 11 1 -1 -1 -1 -1 0 3 16 49 95 
95 49 16 3 0 -1 -2 -2 -1 -1 0 7 28 69 104 81 36 11 1 -1 -1 -2 -2 -2 -2 -2 -1 -1 1 9 29 68 102 91 51 20 5 0 -1 -1 -2 -2 -2 -2 -2 -2 -2 -2 -1 0 2 15 46 93 97 52 18 3 0 -1 -1 -2 -2 -2 -2 -2 -2 -2 -2 -2 -2 -2 -2 -1 0 2 13 39 83 104 72 31 9 1 -1 -1 -2 -2 -2 -2 -1 -1 1 11 37 82 104 69 28 7 0 -1 -1 -1 -1 0 3 16 49 95 
95 49 16 3 0 -1 -2 -2 -1 -1 0 5 21 58 100 90 44 14 2 0 -1 -2 -2 -2 -2 -1 -1 0 4 17 47 89 102 69 31 10 1 0 -1 -2 -2 -2 -2 -2 -2 -2 -2 -2 -1 0 2 13 42 88 100 59 21 5 0 -1 -1 -2 -2 -2 -2 -2 -2 -2 -2 -2 -2 -2 -1 -1 0 5 20 54 96 96 54 20 5 0 -1 -1 -2 -2 -2 -2 -1 0 3 15 46 92 99 57 21 5 0 -1 -1 -1 -1 0 3 16 50 96 
96 48 15 3 0 -1 -2 -2 -1 -1 0 3 17 50 95 95 50 17 3 0 -1 -2 -2 -2 -2 -1 0 1 10 31 69 102 89 47 17 4 0 -1 -1 -2 -2 -2 -2 -2 -2 -2 -2 -2 -1 -1 1 10 36 80 104 69 28 7 0 -1 -1 -2 -2 -2 -2 -2 -2 -2 -2 -2 -2 -2 -1 -1 1 9 31 72 104 83 39 13 2 0 -1 -2 -2 -2 -2 -1 -1 0 5 21 57 99 92 46 15 3 0 -1 -1 -1 -1 0 4 18 53 99 
97 48 15 2 0 -1 -2 -2 -2 -1 0 2 14 44 89 100 58 21 5 0 -1 -1 -2 -2 -1 -1 0 5 20 51 91 102 68 29 9 1 -1 -1 -2 -2 -2 -2 -2 -2 -2 -2 -2 -2 -1 -1 0 7 28 69 104 80 36 10 1 -1 -1 -2 -2 -2 -2 -2 -2 -2 -2 -2 -2 -1 -1 0 3 16 47 89 102 65 27 7 0 -1 -1 -2 -2 -2 -2 -1 -1 0 7 28 69 104 82 37 11 1 -1 -1 -1 -1 -1 0 5 22 60 105 
99 47 15 2 0 -1 -2 -2 -2 -1 -1 1 11 36 81 104 69 28 7 0 -1 -1 -2 -1 -1 0 3 13 37 76 104 86 45 17 4 0 -1 -1 -2 -2 -2 -2 -2 -2 -2 -2 -2 -2 -1 -1 0 5 21 59 100 88 42 13 2 0 -1 -2 -2 -2 -2 -2 -2 -2 -2 -2 -2 -1 -1 0 7 27 65 102 89 47 16 3 0 -1 -1 -2 -2 -2 -2 -1 -1 1 11 37 82 104 69 28 7 0 -1 -1 -1 -1 0 1 10 32 75 116 
100 47 15 2 0 -1 -2 -2 -2 -1 -1 0 7 28 69 104 81 36 11 1 -1 -1 -1 -1 -1 1 8 27 62 98 98 62 27 8 1 -1 -1 -2 -2 -2 -2 -2 -2 -2 -2 -2 -2 -2 -1 -1 0 3 18 52 97 93 46 15 2 0 -1 -2 -2 -2 -2 -2 -2 -2 -2 -2 -2 -1 0 2 13 39 83 104 72 31 9 1 -1 -1 -2 -2 -2 -2 -2 -1 0 3 15 46 92 99 57 21 5 0 -1 -1 -1 -1 0 5 20 50 97 129 
101 47 15 2 0 -1 -2 -2 -2 -1 -1 0 5 21 58 100 89 44 14 2 0 -1 -1 -1 0 4 17 45 86 104 76 37 13 3 0 -1 -1 -2 -2 -2 -2 -2 -2 -2 -2 -2 -2 -2 -2 -1 0 3 16 49 95 95 49 16 3 0 -1 -2 -2 -2 -2 -2 -2 -2 -2 -2 -1 -1 0 5 20 54 96 96 54 20 5 0 -1 -1 -2 -2 -2 -2 -1 -1 0 5 21 57 99 92 46 15 3 0 -1 -1 -1 0 3 13 37 77 120 138 
100 47 15 2 0 -1 -2 -2 -2 -2 -1 0 3 17 50 95 95 50 17 3 0 -1 -1 -1 1 9 29 68 102 91 51 20 5 0 -1 -1 -2 -2 -2 -2 -2 -2 -2 -2 -2 -2 -2 -2 -2 -1 0 2 15 46 93 97 53 18 3 0 -1 -1 -2 -2 -2 -2 -2 -2 -2 -2 -1 -1 1 9 31 72 104 83 39 13 2 0 -1 -2 -2 -2 -2 -2 -1 -1 0 7 28 69 104 82 37 11 1 -1 -1 -1 -1 1 9 27 62 103 130 135 
99 48 15 3 0 -1 -2 -2 -2 -2 -1 0 2 14 44 89 100 58 21 5 0 -1 -1 0 4 17 47 89 102 69 31 10 1 0 -1 -2 -2 -2 -2 -2 -2 -2 -2 -2 -2 -2 -2 -2 -2 -1 0 2 13 42 89 101 59 22 5 0 -1 -1 -1 -1 -1 -2 -2 -2 -2 -1 -1 0 3 16 47 89 102 65 27 7 0 -1 -1 -2 -2 -2 -2 -2 -1 -1 1 11 37 82 104 69 28 7 0 -1 -1 -1 0 5 20 49 89 115 119 124 
97 48 15 3 0 -1 -2 -2 -2 -2 -1 -1 1 11 36 81 104 69 28 7 0 -1 0 1 10 31 69 102 89 47 17 4 0 -1 -1 -2 -2 -2 -2 -2 -2 -2 -2 -2 -2 -2 -2 -2 -2 -1 -1 1 11 36 81 104 70 29 8 1 0 -1 -1 -1 -1 -1 -1 -1 -1 -1 -1 0 7 27 65 102 89 47 16 3 0 -1 -1 -2 -2 -2 -2 -2 -1 0 3 15 46 92 99 57 21 5 0 -1 -1 0 3 14 37 76 106 104 98 112 
96 48 16 3 0 -1 -2 -2 -2 -2 -1 -1 0 7 28 69 104 81 36 11 1 0 0 5 20 51 91 102 68 29 9 1 -1 -1 -2 -2 -2 -2 -2 -2 -2 -2 -2 -2 -2 -2 -2 -2 -2 -1 -1 0 8 29 71 106 84 40 15 6 3 1 0 0 0 0 0 0 -1 -1 0 2 13 39 83 104 72 31 9 1 -1 -1 -2 -2 -2 -2 -2 -1 -1 0 5 21 57 99 92 46 15 3 0 -1 0 1 9 28 63 99 102 80 78 104 
95 49 16 3 0 -1 -2 -2 -2 -2 -1 -1 0 5 21 58 100 89 44 14 2 0 3 13 37 76 104 86 45 17 4 0 -1 -1 -2 -2 -2 -2 -2 -2 -2 -2 -2 -2 -2 -2 -2 -2 -1 -1 0 1 8 26 65 108 100 58 30 19 14 11 7 5 3 3 2 2 1 1 1 6 21 55 96 96 54 20 5 0 -1 -1 -2 -2 -2 -2 -2 -1 -1 0 7 28 69 104 82 37 11 1 0 -1 0 5 20 49 88 104 80 56 64 99 
95 49 16 3 0 -1 -2 -2 -2 -2 -2 -1 0 3 17 50 95 95 50 17 4 2 8 27 62 98 98 62 27 8 1 -1 -1 -2 -2 -2 -2 -2 -2 -2 -2 -2 -2 -2 -2 -2 -2 -1 -1 0 0 4 13 33 72 118 122 88 63 51 43 36 28 21 18 16 15 13 11 8 8 14 35 74 104 83 39 13 2 0 -1 -2 -2 -2 -2 -2 -2 -1 -1 1 11 37 82 104 69 28 7 0 0 0 3 14 38 76 104 89 54 38 56 97 
95 49 16 3 0 -1 -2 -2 -2 -2 -2 -1 0 2 14 44 89 100 58 22 6 6 17 45 86 104 76 37 13 3 0 -1 -1 -2 -2 -2 -2 -2 -2 -2 -2 -2 -2 -2 -2 -1 -1 -1 0 1 5 14 30 57 95 132 138 120 104 96 89 81 69 59 52 49 46 42 36 29 26 34 59 96 104 66 27 7 0 -1 -1 -2 -2 -2 -2 -2 -2 -1 0 3 15 46 92 99 57 21 5 0 0 1 9 28 63 98 98 64 33 27 52 96 
95 49 16 3 0 -1 -2 -2 -2 -2 -2 -1 -1 1 11 36 81 104 69 29 11 12 30 68 102 91 51 20 5 0 -1 -1 -2 -2 -2 -2 -2 -2 -2 -2 -2 -2 -2 -2 -1 -1 -1 0 3 9 20 38 64 92 114 121 114 104 99 98 101 104 104 100 97 95 93 89 81 71 65 73 96 117 95 49 17 4 0 -1 -1 -2 -2 -2 -2 -2 -1 -1 0 5 21 57 99 92 46 15 3 0 0 5 20 49 88 103 76 39 19 21 50 95 
95 49 16 3 0 -1 -2 -2 -2 -2 -2 -1 -1 0 7 28 69 104 81 38 17 21 48 89 102 69 31 10 1 0 -1 -2 -2 -2 -2 -2 -2 -2 -2 -2 -2 -2 -1 -1 -1 0 1 5 14 28 49 76 99 105 94 76 60 53 51 53 59 69 80 88 93 95 97 101 104 106 107 116 133 130 87 39 12 2 0 -1 -1 -1 -2 -2 -2 -1 -1 -1 0 7 28 69 104 82 37 11 2 0 3 14 38 76 103 88 49 21 11 18 49 95 
95 49 16 3 0 -1 -2 -2 -2 -2 -2 -1 -1 0 5 21 58 100 90 47 26 36 70 103 89 47 17 4 0 -1 -1 -2 -2 -2 -2 -2 -2 -2 -2 -2 -2 -1 -1 -1 0 3 9 20 37 63 88 103 98 76 52 33 22 18 17 18 22 28 36 42 46 49 52 59 70 82 95 112 131 130 88 40 14 3 0 -1 -1 -1 -1 -1 -1 -1 -1 0 2 11 37 82 104 69 28 8 1 2 9 28 63 98 98 63 28 10 6 17 49 95 
95 49 16 3 0 -1 -2 -2 -2 -2 -2 -2 -1 0 3 17 50 95 97 58 40 57 92 102 68 29 9 1 -1 -1 -2 -2 -2 -2 -2 -2 -2 -2 -2 -2 -1 -1 0 0 4 13 27 49 75 98 103 88 63 38 20 10 6 4 3 4 5 7 10 13 15 16 18 22 28 37 49 66 94 116 99 56 24 8 2 0 0 0 0 0 0 0 0 0 4 16 47 92 99 57 21 5 2 6 20 49 88 103 76 38 14 4 4 16 49 95 
95 49 16 3 0 -1 -2 -2 -2 -2 -2 -2 -1 0 2 14 44 90 104 74 61 83 105 86 45 17 4 0 -1 -1 -2 -2 -2 -2 -2 -2 -2 -2 -1 -1 -1 0 1 6 16 35 61 88 103 98 76 49 28 14 6 2 0 0 0 0 0 0 1 2 2 3 3 5 8 12 18 30 56 93 108 82 46 22 11 6 4 3 3 3 3 3 3 4 10 25 60 101 93 48 16 5 4 14 38 76 103 88 49 20 6 1 3 16 49 95 
95 49 16 3 0 -1 -2 -2 -2 -2 -2 -2 -1 -1 1 10 36 81 110 97 91 106 99 62 27 8 1 -1 -1 -2 -2 -2 -2 -2 -2 -2 -2 -1 -1 -1 0 3 9 21 41 70 96 104 89 63 38 20 9 3 0 0 -1 -1 -1 -1 -1 -1 -1 0 0 0 0 0 0 2 5 12 30 64 103 109 83 53 33 23 18 16 16 16 16 16 16 18 25 44 81 111 88 42 15 7 11 28 63 98 98 63 28 9 1 0 3 16 49 95 
95 49 16 3 0 -1 -2 -2 -2 -2 -2 -2 -1 -1 0 7 27 69 112 121 118 110 76 37 13 3 0 -1 -1 -2 -2 -2 -2 -2 -2 -1 -1 -1 0 1 5 14 28 50 78 101 101 78 50 28 14 5 1 0 -1 -1 -1 -1 -2 -1 -1 -1 -1 -1 -1 -1 -1 -1 -1 0 0 4 15 41 84 123 124 99 75 61 53 50 49 49 49 49 49 52 59 79 111 125 89 45 20 14 23 51 89 104 76 38 14 3 0 0 3 16 49 95 
95 49 16 3 0 -1 -2 -2 -2 -2 -2 -2 -1 -1 0 5 21 58 109 136 127 93 50 20 5 0 -1 -1 -2 -2 -2 -2 -2 -1 -1 -1 -1 0 3 9 20 38 63 89 104 96 70 41 21 9 3 0 -1 -1 -1 -1 -2 -2 -2 -2 -2 -2 -2 -2 -2 -2 -1 -1 -1 -1 -1 1 8 27 68 120 140 127 112 103 98 96 95 95 95 95 96 97 103 116 135 137 104 65 40 33 47 79 105 89 49 20 5 0 -1 0 3 16 49 95 
95 49 16 3 0 -1 -2 -2 -2 -2 -2 -2 -1 -1 0 3 17 51 105 138 116 69 30 10 1 0 -1 -1 -2 -2 -2 -1 -1 -1 -1 0 1 5 13 28 49 76 98 103 88 61 35 16 6 1 0 -1 -1 -1 -2 -2 -2 -2 -2 -2 -2 -2 -2 -2 -2 -2 -2 -2 -2 -1 -1 0 6 24 64 113 123 104 93 92 93 94 95 95 95 95 95 96 98 103 114 122 117 98 79 72 85 108 102 64 29 9 1 0 -1 0 3 16 49 95 
95 49 16 3 0 -1 -2 -2 -2 -2 -2 -2 -2 -1 0 3 15 48 102 129 95 46 17 4 0 -1 -1 -2 -2 -1 -1 -1 -1 0 0 3 8 19 37 62 89 104 99 76 50 28 13 5 0 0 -1 -1 -1 -2 -2 -2 -2 -2 -2 -2 -2 -2 -2 -2 -2 -2 -2 -2 -2 -1 -1 0 8 29 71 109 97 64 48 46 47 48 48 49 49 49 49 49 50 52 60 75 93 106 111 115 126 124 88 43 16 4 0 -1 -1 0 3 16 49 95 
95 49 16 3 0 -1 -2 -2 -2 -2 -2 -2 -2 -1 0 3 15 48 99 116 73 31 9 1 -1 -1 -1 -1 -1 -1 -1 0 0 2 6 13 26 48 76 101 108 93 67 41 22 11 4 1 0 -1 -1 -1 -1 -1 -1 -2 -2 -2 -2 -2 -2 -2 -2 -2 -2 -2 -2 -2 -2 -1 -1 1 10 36 81 106 75 37 20 16 15 15 16 16 16 16 16 16 16 18 22 32 48 69 94 119 139 127 80 35 12 2 0 -1 -1 0 3 16 49 95 
95 49 16 3 0 -1 -2 -2 -2 -2 -2 -2 -2 -1 0 3 16 49 98 104 59 22 5 0 -1 -1 -1 -1 -1 0 1 3 7 13 23 38 62 92 117 120 98 69 44 27 15 8 4 2 0 0 0 0 -1 -1 -1 -1 -1 -1 -1 -2 -2 -2 -2 -2 -2 -2 -2 -2 -2 -1 0 2 13 43 89 101 60 24 8 4 3 3 3 3 3 3 3 3 3 3 5 9 17 31 51 81 114 122 88 43 16 4 0 -1 -1 0 3 16 49 95 
95 49 16 3 0 -1 -2 -2 -2 -2 -2 -2 -1 -1 0 3 18 52 98 96 50 17 3 0 -1 -1 0 0 1 4 9 16 27 40 57 80 106 130 139 124 97 72 55 41 30 21 16 11 7 5 3 2 1 0 0 0 -1 -1 -1 -1 -1 -1 -1 -1 -2 -2 -2 -2 -2 -1 0 3 15 47 93 97 52 18 4 0 0 0 0 0 0 0 0 0 0 0 0 1 4 10 21 42 75 107 102 64 28 9 1 0 -1 0 3 16 49 95 
95 49 16 3 0 -1 -2 -2 -2 -2 -2 -2 -1 -1 0 5 21 59 101 90 44 14 3 0 0 0 2 5 9 17 29 46 65 83 99 110 116 120 123 121 112 102 93 82 69 57 47 37 28 21 17 14 11 7 4 3 1 0 0 0 0 -1 -1 -1 -1 -1 -1 -1 -1 -1 0 3 18 52 97 93 48 15 3 0 -1 -1 -1 -1 -1 -1 -1 -1 -1 -1 -1 -1 0 2 7 18 42 79 105 89 49 20 5 0 -1 0 3 16 49 95 
95 49 16 3 0 -1 -2 -2 -2 -2 -2 -2 -1 -1 0 7 28 69 104 81 36 11 3 2 3 7 13 20 31 48 68 88 102 104 97 86 74 69 73 83 91 96 100 104 104 99 92 82 69 58 50 44 36 28 20 15 11 7 5 3 2 1 0 0 0 -1 -1 -1 -1 -1 0 5 21 59 100 89 43 13 2 0 -1 -1 -2 -2 -2 -2 -2 -2 -2 -1 -1 -1 -1 0 1 7 21 50 89 104 76 38 14 3 0 0 3 16 49 95 
95 49 16 3 0 -1 -2 -2 -2 -2 -2 -2 -1 -1 1 11 36 81 104 70 30 11 6 9 16 26 39 54 72 90 102 102 90 72 55 41 31 26 29 36 43 50 58 69 82 92 99 103 104 100 95 89 81 68 57 46 37 28 21 17 14 11 7 4 3 1 0 0 0 0 1 8 28 69 104 80 36 10 1 -1 -1 -2 -2 -2 -2 -2 -2 -2 -2 -2 -2 -2 -1 -1 0 1 9 28 63 98 98 63 28 9 2 0 3 16 49 95 
95 49 16 3 0 -1 -2 -2 -2 -2 -2 -2 -1 0 2 14 44 90 102 62 28 16 19 30 46 65 83 96 104 102 88 68 48 31 20 13 9 7 8 11 14 17 21 28 37 46 57 68 81 89 95 100 104 103 99 92 82 69 58 50 44 36 28 20 15 11 7 5 3 3 5 13 38 81 104 69 28 7 0 -1 -1 -2 -2 -2 -2 -2 -2 -2 -2 -2 -2 -2 -2 -1 -1 0 3 14 38 76 103 89 50 21 6 2 3 16 49 95 
95 49 16 3 0 -1 -2 -2 -2 -2 -2 -1 -1 0 3 17 50 97 101 63 37 36 49 68 88 102 104 96 83 65 46 29 17 9 5 2 1 0 0 1 2 3 5 7 11 15 20 28 36 44 50 58 69 82 92 99 103 104 100 95 89 81 68 57 46 37 28 21 17 15 15 23 49 92 101 59 21 5 0 -1 -1 -2 -2 -2 -2 -2 -2 -2 -2 -2 -2 -2 -2 -2 -1 -1 0 5 20 49 88 104 78 41 17 6 5 16 49 95 
95 49 16 3 0 -1 -2 -2 -2 -2 -2 -1 -1 0 5 22 59 106 109 78 64 73 90 102 102 90 72 54 39 26 16 9 4 1 0 0 -1 -1 -1 -1 0 0 0 0 1 3 4 7 11 14 17 21 28 37 46 57 68 81 89 95 100 104 103 99 92 82 69 58 50 45 41 45 68 104 100 52 18 3 0 -1 -1 -2 -2 -2 -2 -2 -2 -2 -2 -2 -2 -2 -2 -2 -2 -1 -1 1 9 27 61 96 101 70 35 14 8 17 49 95 
95 49 16 3 0 -1 -2 -2 -2 -2 -2 -1 -1 1 9 31 74 121 125 107 101 105 103 89 69 48 31 20 13 7 3 1 0 -1 -1 -1 -1 -1 -1 -1 -1 -1 -1 -1 -1 0 0 0 1 2 3 5 7 11 15 20 28 36 44 50 58 69 82 92 99 103 104 100 96 91 85 84 99 121 100 49 16 3 0 -1 -2 -2 -2 -2 -2 -2 -2 -2 -2 -2 -2 -2 -2 -2 -2 -1 -1 0 3 13 35 70 101 97 61 29 14 20 50 95 
95 49 16 3 0 -1 -2 -2 -2 -2 -1 -1 0 4 17 47 95 135 136 120 105 89 68 47 30 17 9 5 2 0 0 -1 -1 -1 -1 -2 -2 -2 -2 -2 -2 -2 -1 -1 -1 -1 -1 -1 -1 0 0 0 0 1 3 4 7 11 14 17 21 28 37 46 57 68 81 89 95 101 107 115 129 138 102 48 15 2 0 -1 -2 -2 -2 -2 -2 -2 -2 -2 -2 -2 -2 -2 -2 -2 -2 -2 -1 -1 0 4 16 41 78 104 89 51 26 24 52 96 
95 49 16 3 0 -1 -2 -2 -2 -1 -1 0 1 10 30 69 112 126 109 86 65 46 29 17 9 4 1 0 0 -1 -1 -1 -1 -2 -2 -2 -2 -2 -2 -2 -2 -2 -2 -2 -2 -2 -1 -1 -1 -1 -1 -1 -1 -1 0 0 0 1 2 3 5 7 11 15 20 28 36 44 50 59 73 93 119 135 102 47 15 2 0 -1 -2 -2 -2 -2 -2 -2 -2 -2 -2 -2 -2 -2 -2 -2 -2 -2 -2 -1 -1 0 6 21 50 88 104 79 46 35 55 97 
95 49 16 3 0 -1 -2 -2 -2 -1 -1 0 5 20 51 92 111 91 61 41 26 16 9 4 1 0 -1 -1 -1 -1 -1 -2 -2 -2 -2 -2 -2 -2 -2 -2 -2 -2 -2 -2 -2 -2 -2 -2 -2 -2 -2 -1 -1 -1 -1 -1 -1 -1 0 0 0 0 1 3 4 7 11 14 17 22 32 52 85 117 99 48 15 3 0 -1 -2 -2 -2 -2 -2 -2 -2 -2 -2 -2 -2 -2 -2 -2 -2 -2 -2 -1 -1 0 1 9 28 61 97 102 75 53 64 99 
96 48 16 3 0 -1 -2 -2 -1 -1 0 3 14 38 76 105 91 55 28 15 8 3 1 0 -1 -1 -1 -1 -2 -2 -2 -2 -2 -2 -2 -2 -2 -2 -2 -2 -2 -2 -2 -2 -2 -2 -2 -2 -2 -2 -2 -2 -2 -2 -2 -1 -1 -1 -1 -1 -1 -1 -1 0 0 0 1 2 3 6 12 28 62 104 97 49 16 3 0 -1 -2 -2 -2 -2 -2 -2 -2 -2 -2 -2 -2 -2 -2 -2 -2 -2 -2 -2 -1 -1 0 3 13 35 70 101 101 79 78 104 
97 48 15 3 0 -1 -1 -1 -1 0 1 9 28 63 98 99 64 30 11 4 1 0 -1 -1 -1 -1 -1 -2 -2 -2 -2 -2 -2 -2 -2 -2 -2 -2 -2 -2 -2 -2 -2 -2 -2 -2 -2 -2 -2 -2 -2 -2 -2 -2 -2 -2 -2 -2 -2 -2 -1 -1 -1 -1 -1 -1 -1 0 0 1 5 19 52 98 97 50 17 3 0 -1 -1 -2 -2 -2 -2 -2 -2 -2 -2 -2 -2 -2 -2 -2 -2 -2 -2 -2 -2 -1 -1 0 4 16 41 78 106 103 98 112 
99 48 15 3 0 -1 -1 -1 -1 1 6 21 50 89 104 77 39 15 4 0 0 -1 -1 -1 -1 -1 -1 -1 -1 -1 -1 -1 -2 -2 -2 -2 -2 -2 -2 -2 -2 -2 -2 -2 -2 -2 -2 -2 -2 -2 -2 -2 -2 -2 -2 -2 -2 -2 -2 -2 -2 -2 -2 -2 -1 -1 -1 -1 -1 0 4 17 50 96 99 54 20 5 0 -1 -1 -1 -2 -2 -2 -2 -2 -2 -2 -2 -2 -2 -2 -2 -2 -2 -2 -2 -2 -2 -1 -1 0 6 21 50 90 115 119 124 
100 47 15 2 0 -1 -1 -1 0 5 17 41 79 106 92 53 23 8 2 0 0 0 0 0 0 0 0 -1 -1 -1 -1 -1 -1 -1 -1 -1 -1 -1 -1 -1 -1 -1 -1 -2 -2 -2 -2 -2 -2 -2 -2 -2 -2 -2 -2 -2 -2 -2 -2 -2 -2 -2 -2 -2 -2 -1 -1 -1 -1 0 5 19 51 98 108 65 28 10 2 0 -1 -1 -1 -2 -2 -2 -2 -2 -2 -2 -2 -2 -2 -2 -2 -2 -2 -2 -2 -2 -1 -1 0 1 9 28 62 103 130 135 
101 47 15 2 0 -1 -1 0 5 16 38 73 107 110 78 43 22 11 6 4 3 3 3 3 3 3 2 2 1 0 0 0 0 0 0 0 0 0 -1 -1 -1 -1 -1 -1 -1 -1 -1 -1 -1 -1 -1 -1 -1 -1 -1 -2 -2 -2 -2 -2 -2 -2 -2 -2 -1 -1 -1 0 0 3 11 28 62 108 124 89 48 23 10 4 1 0 -1 -1 -1 -2 -2 -2 -2 -2 -2 -2 -2 -2 -2 -2 -2 -2 -2 -2 -2 -1 -1 0 3 13 37 77 120 138 
100 47 15 2 0 0 0 5 16 37 71 110 129 113 83 58 41 29 22 18 16 16 16 16 16 15 15 13 10 7 5 3 3 3 3 3 3 2 2 1 0 0 0 0 0 0 0 0 0 0 -1 -1 -1 -1 -1 -1 -1 -1 -1 -1 -1 -1 -1 -1 -1 -1 0 1 6 14 29 52 86 124 140 118 83 52 31 17 8 3 0 0 -1 -1 -1 -2 -2 -2 -2 -2 -2 -2 -2 -2 -2 -2 -2 -2 -2 -2 -1 -1 0 5 20 50 97 129 
99 47 15 3 0 1 5 16 38 71 109 135 138 124 107 95 82 70 59 53 50 49 49 49 48 48 46 42 36 28 21 18 16 16 16 16 15 15 13 10 7 5 3 3 3 3 3 3 3 2 2 1 0 0 0 0 0 0 0 0 0 0 -1 0 0 1 4 10 20 38 63 90 110 121 124 121 111 92 69 46 27 13 5 1 0 -1 -1 -1 -2 -2 -2 -2 -2 -2 -2 -2 -2 -2 -2 -2 -2 -2 -1 -1 0 1 10 32 75 116 
97 48 16 4 2 6 17 39 71 103 118 115 107 102 100 102 104 104 101 97 96 95 95 95 95 94 93 88 80 69 59 53 50 49 49 48 48 46 42 36 28 21 18 16 16 16 16 16 15 15 13 10 7 5 3 3 3 3 3 3 2 2 2 2 3 8 17 31 51 76 98 105 95 80 72 79 93 104 102 86 62 37 20 10 4 1 0 -1 -1 -1 -2 -2 -2 -2 -2 -2 -2 -2 -2 -2 -2 -2 -2 -1 -1 0 5 22 60 105 
96 49 17 7 8 18 40 72 100 104 85 65 54 51 53 59 69 80 88 93 94 95 95 95 95 96 97 101 104 104 101 97 96 95 95 95 94 93 88 80 69 59 53 50 49 49 49 48 48 46 42 36 28 21 18 16 16 16 16 15 15 13 12 12 16 28 46 69 91 104 98 76 52 36 29 34 49 70 91 104 98 76 51 31 17 8 3 0 0 -1 -1 -1 -2 -2 -2 -2 -2 -2 -2 -2 -2 -2 -2 -1 -1 0 4 18 53 99 
96 51 21 14 22 43 73 100 100 74 45 27 19 17 18 21 28 36 42 46 48 48 49 49 49 50 53 59 69 80 88 93 94 95 95 95 96 97 101 104 104 101 97 96 95 95 95 95 94 93 88 80 69 59 53 50 49 49 48 48 46 43 39 37 45 65 87 102 102 86 62 38 21 11 8 11 18 31 51 76 98 104 91 69 46 27 13 5 1 0 -1 -1 -1 -2 -2 -2 -2 -2 -2 -2 -2 -2 -2 -2 -1 0 3 16 50 96 
97 55 31 33 51 79 101 99 71 40 18 8 4 3 4 5 7 10 13 15 15 16 16 16 16 16 18 21 28 36 42 46 48 48 49 49 50 53 59 69 80 88 93 94 95 95 95 95 96 97 101 104 104 101 97 96 95 95 95 94 93 90 86 85 93 105 106 92 69 46 27 13 6 2 1 1 4 10 20 37 62 86 102 102 86 62 37 20 10 4 1 0 -1 -1 -1 -2 -2 -2 -2 -2 -2 -2 -2 -2 -1 0 3 16 49 96 
101 67 52 66 89 104 96 68 38 17 6 1 0 0 0 0 0 1 2 2 3 3 3 3 3 3 3 5 7 10 13 15 15 16 16 16 16 18 21 28 36 42 46 48 48 49 49 49 50 53 59 69 80 88 93 94 95 95 95 96 99 106 118 130 131 113 82 53 31 17 8 3 0 0 -1 -1 0 1 5 13 27 46 69 91 104 98 76 51 31 17 8 3 0 0 -1 -1 -1 -2 -2 -2 -2 -2 -2 -2 -1 0 3 16 49 96 
110 88 86 100 104 88 61 34 15 5 0 0 -1 -1 -1 -1 -1 -1 -1 0 0 0 0 0 0 0 0 0 0 1 2 2 3 3 3 3 3 3 5 7 10 13 15 15 16 16 16 16 16 18 21 28 36 42 46 48 48 49 49 51 56 71 100 133 130 89 48 23 11 4 1 0 -1 -1 -1 -1 -1 0 0 3 8 17 31 51 76 98 104 91 69 46 27 13 5 1 0 -1 -1 -1 -1 -2 -2 -2 -2 -2 -1 0 3 15 48 97 
124 116 113 103 78 50 27 12 4 0 -1 -1 -1 -1 -1 -1 -1 -1 -1 -1 -1 -1 -1 -1 -1 -1 -1 -1 -1 -1 -1 0 0 0 0 0 0 0 0 0 1 2 2 3 3 3 3 3 3 3 5 7 10 13 15 15 16 16 16 17 22 37 71 115 113 66 28 10 2 0 -1 -1 -1 -1 -2 -2 -1 -1 -1 0 1 4 10 20 37 62 86 102 102 86 62 37 20 10 4 1 0 -1 -1 -1 -2 -2 -2 -2 -1 0 2 15 48 99 
137 131 107 73 42 21 9 3 0 -1 -1 -1 -2 -2 -2 -2 -2 -2 -2 -2 -2 -2 -2 -2 -2 -2 -1 -1 -1 -1 -1 -1 -1 -1 -1 -1 -1 -1 -1 -1 -1 -1 0 0 0 0 0 0 0 0 0 0 1 2 2 3 3 3 3 4 8 22 56 102 101 54 19 5 0 -1 -1 -1 -2 -2 -2 -2 -2 -2 -1 -1 -1 0 1 5 13 27 46 69 91 104 98 76 51 31 17 9 4 1 0 -1 -1 -1 -1 -1 -1 0 2 15 47 101 
136 116 74 40 18 7 1 0 -1 -1 -1 -2 -2 -2 -2 -2 -2 -2 -2 -2 -2 -2 -2 -2 -2 -2 -2 -2 -2 -2 -2 -2 -2 -2 -2 -2 -2 -1 -1 -1 -1 -1 -1 -1 -1 -1 -1 -1 -1 -1 -1 -1 -1 -1 0 0 0 0 0 0 4 17 51 97 97 50 17 3 0 -1 -1 -2 -2 -2 -2 -2 -2 -2 -2 -1 -1 -1 0 0 3 8 17 31 51 76 98 104 91 69 47 29 17 8 3 0 0 -1 -1 -1 -1 0 2 15 47 102 
122 86 44 18 6 1 0 -1 -1 -2 -2 -2 -2 -2 -2 -2 -2 -2 -2 -2 -2 -2 -2 -2 -2 -2 -2 -2 -2 -2 -2 -2 -2 -2 -2 -2 -2 -2 -2 -2 -2 -2 -2 -2 -2 -2 -2 -2 -2 -1 -1 -1 -1 -1 -1 -1 -1 -1 -1 0 3 16 49 95 95 49 16 3 0 -1 -2 -2 -2 -2 -2 -2 -2 -2 -2 -2 -2 -1 -1 -1 0 1 4 10 20 37 62 86 102 102 89 68 45 26 13 5 1 0 0 -1 -1 0 3 15 47 100 
108 65 27 8 1 0 -1 -1 -2 -2 -2 -2 -2 -2 -2 -2 -2 -2 -2 -2 -2 -2 -2 -2 -2 -2 -2 -2 -2 -2 -2 -2 -2 -2 -2 -2 -2 -2 -2 -2 -2 -2 -2 -2 -2 -2 -2 -2 -2 -2 -2 -2 -2 -2 -2 -2 -2 -1 -1 0 3 16 49 95 95 49 16 3 0 -1 -2 -2 -2 -2 -2 -2 -2 -2 -2 -2 -2 -2 -2 -1 -1 -1 0 1 5 13 27 45 68 89 103 102 86 61 37 20 10 5 3 1 0 1 4 16 48 98 
100 54 19 4 0 -1 -1 -1 -2 -2 -2 -2 -2 -2 -2 -2 -2 -2 -2 -2 -2 -2 -2 -2 -2 -2 -2 -2 -2 -2 -2 -2 -2 -2 -2 -2 -2 -2 -2 -2 -2 -2 -2 -2 -2 -2 -2 -2 -2 -2 -2 -2 -2 -2 -2 -2 -2 -2 -1 0 3 16 49 95 95 49 16 3 0 -1 -2 -2 -2 -2 -2 -2 -2 -2 -2 -2 -2 -2 -2 -2 -1 -1 -1 0 0 3 8 17 30 48 70 93 106 100 77 51 32 21 15 11 8 6 8 19 51 97 
97 50 17 3 0 -1 -1 -1 -1 -1 -1 -1 -2 -2 -2 -2 -2 -2 -2 -2 -2 -2 -2 -2 -2 -2 -2 -2 -2 -2 -2 -2 -2 -2 -2 -2 -2 -2 -2 -2 -2 -2 -2 -2 -2 -2 -2 -2 -2 -2 -2 -2 -2 -2 -2 -2 -2 -2 -1 0 3 16 49 95 95 49 16 3 0 -1 -2 -2 -2 -2 -2 -2 -2 -2 -2 -2 -2 -2 -2 -2 -2 -1 -1 -1 -1 0 1 5 10 20 36 58 87 112 116 98 75 58 46 37 28 22 21 29 58 100 
98 50 17 4 0 0 0 0 -1 -1 -1 -1 -1 -1 -1 -1 -1 -1 -1 -1 -2 -2 -2 -2 -2 -2 -2 -2 -2 -2 -2 -2 -2 -2 -2 -2 -2 -2 -2 -2 -2 -2 -2 -2 -2 -2 -2 -2 -2 -2 -2 -2 -2 -2 -2 -2 -2 -2 -1 0 3 16 49 95 95 49 16 3 0 -1 -2 -2 -2 -2 -2 -2 -2 -2 -2 -2 -2 -2 -2 -2 -2 -1 -1 -1 -1 0 0 3 7 14 25 43 72 108 134 135 120 104 93 82 69 58 52 55 77 109 
103 52 20 8 4 3 2 2 1 0 0 0 0 0 0 -1 -1 -1 -1 -1 -1 -1 -1 -1 -1 -1 -1 -1 -1 -2 -2 -2 -2 -2 -2 -2 -2 -2 -2 -2 -2 -2 -2 -2 -2 -2 -2 -2 -2 -2 -2 -2 -2 -2 -2 -2 -2 -2 -1 0 3 16 49 95 95 49 16 3 0 -1 -2 -2 -2 -2 -2 -2 -2 -2 -2 -2 -2 -2 -1 -1 -1 -1 -1 0 0 2 5 10 17 28 43 62 87 114 129 124 112 104 103 104 104 100 96 96 109 126 
113 63 33 21 17 16 15 13 10 7 5 3 3 3 2 2 1 0 0 0 0 0 0 0 -1 -1 -1 -1 -1 -1 -1 -1 -1 -1 -1 -1 -1 -2 -2 -2 -2 -2 -2 -2 -2 -2 -2 -2 -2 -2 -2 -2 -2 -2 -2 -2 -2 -2 -1 0 3 16 49 95 95 49 16 3 0 -1 -2 -2 -2 -2 -2 -2 -2 -2 -2 -2 -1 -1 -1 -1 0 0 1 3 7 13 20 31 47 65 84 98 107 106 93 75 61 56 60 70 82 92 102 114 131 142 
129 90 64 53 50 48 46 42 36 28 21 18 16 16 15 13 10 7 5 3 3 3 3 2 2 1 0 0 0 0 0 0 -1 -1 -1 -1 -1 -1 -1 -1 -1 -1 -1 -1 -1 -1 -2 -2 -2 -2 -2 -2 -2 -2 -2 -2 -2 -2 -1 0 3 16 49 95 95 49 16 3 0 -1 -2 -2 -2 -2 -2 -2 -2 -2 -1 -1 -1 -1 0 0 2 5 9 16 27 39 54 72 89 102 104 96 83 65 46 31 22 20 22 28 37 47 60 80 112 140 
144 125 107 98 96 94 93 88 80 69 59 53 50 48 46 42 36 28 21 18 16 16 15 15 13 10 7 5 3 3 3 2 2 1 0 0 0 0 0 0 0 -1 -1 -1 -1 -1 -1 -1 -1 -1 -1 -1 -1 -1 -2 -2 -2 -1 -1 0 3 16 49 95 95 49 16 3 0 -1 -2 -2 -2 -2 -2 -1 -1 -1 -1 -1 0 1 3 7 13 20 31 47 65 83 96 104 102 89 72 54 39 26 16 9 5 4 5 8 11 16 25 43 78 125 
140 125 107 99 96 96 97 101 104 104 100 97 96 94 93 88 80 69 59 53 50 49 48 46 42 36 28 21 18 16 16 15 13 10 7 5 3 3 3 3 2 2 1 0 0 0 0 0 0 -1 -1 -1 -1 -1 -1 -1 -1 -1 -1 0 3 16 49 95 95 49 16 3 0 -1 -1 -2 -2 -1 -1 -1 -1 0 0 1 4 9 16 26 39 54 72 89 102 104 96 83 65 47 31 20 13 7 3 1 0 0 0 0 2 4 9 24 58 111 
120 91 65 53 50 50 53 59 69 80 88 93 94 96 97 100 104 104 101 97 96 95 94 93 88 80 69 59 53 50 48 46 42 36 28 21 18 16 16 15 15 13 10 7 5 3 3 3 2 2 1 0 0 0 0 0 0 0 0 0 3 16 49 95 95 49 16 3 0 -1 -1 -1 -1 -1 -1 0 0 2 5 9 17 29 46 65 83 96 104 102 89 72 54 39 27 16 9 5 2 0 0 -1 -1 -1 -1 -1 0 0 4 18 51 102 
105 65 33 21 17 17 18 21 28 36 42 46 48 50 53 59 69 80 88 93 94 95 96 97 101 104 104 100 97 96 94 93 88 80 69 59 53 50 49 48 46 42 36 28 21 18 16 16 15 13 10 7 5 3 3 3 3 2 2 2 5 18 50 96 96 49 16 3 0 -1 -1 -1 0 0 1 3 7 13 20 31 48 68 88 102 104 96 83 65 47 31 20 13 7 3 1 0 0 -1 -1 -1 -1 -1 -1 -1 -1 0 3 16 49 97 
98 53 21 8 4 3 4 5 7 10 13 15 16 16 18 21 28 36 42 46 48 49 50 53 59 69 80 88 93 94 96 97 100 104 104 101 97 96 95 94 93 88 80 69 59 53 50 48 46 42 36 28 21 18 16 16 15 15 13 12 12 23 54 99 97 50 17 3 0 0 0 0 2 5 9 16 27 39 54 72 90 102 102 90 72 54 39 27 16 9 5 2 0 0 -1 -1 -1 -1 -1 -2 -2 -2 -2 -1 -1 0 3 16 49 96 
96 50 17 4 0 0 0 0 0 1 2 2 3 3 3 5 7 10 13 15 15 16 16 18 21 28 36 42 46 48 50 53 59 69 80 88 93 94 95 96 97 101 104 104 100 97 96 94 93 88 80 69 59 53 50 49 48 46 43 37 33 39 67 107 102 54 20 5 1 1 3 7 13 20 31 47 65 83 96 104 102 88 68 48 31 20 13 7 3 1 0 0 -1 -1 -1 -1 -2 -2 -2 -2 -2 -2 -2 -2 -1 0 3 16 49 95 
95 49 16 3 0 -1 -1 -1 -1 -1 -1 0 0 0 0 0 0 1 2 2 3 3 3 3 5 7 10 13 15 16 16 18 21 28 36 42 46 48 49 50 53 59 69 80 88 93 94 96 97 100 104 104 101 97 96 95 94 93 89 81 73 74 94 124 114 66 29 12 8 10 17 27 39 54 72 89 102 104 96 83 65 46 29 17 9 5 2 0 0 -1 -1 -1 -1 -1 -2 -2 -2 -2 -2 -2 -2 -2 -2 -2 -1 0 3 16 49 95 
95 49 16 3 0 -1 -1 -1 -1 -1 -1 -1 -1 -1 -1 -1 -1 -1 -1 0 0 0 0 0 0 0 1 2 2 3 3 3 5 7 10 13 15 15 16 16 18 21 28 36 42 46 48 50 53 59 69 80 88 93 94 95 96 97 101 104 106 110 122 139 130 90 51 31 27 33 47 65 83 96 104 102 89 72 54 39 26 16 9 4 1 0 0 -1 -1 -1 -1 -2 -2 -2 -2 -2 -2 -2 -2 -2 -2 -2 -2 -2 -1 0 3 16 49 95 
95 49 16 3 0 -1 -1 -2 -2 -2 -2 -2 -2 -1 -1 -1 -1 -1 -1 -1 -1 -1 -1 -1 -1 -1 -1 0 0 0 0 0 0 0 1 2 2 3 3 3 3 5 7 10 13 15 16 16 18 21 28 36 42 46 48 49 50 53 59 69 81 91 102 116 125 115 90 70 66 75 90 102 104 96 83 65 47 31 20 13 7 3 1 0 -1 -1 -1 -1 -1 -2 -2 -2 -2 -2 -2 -2 -2 -2 -2 -2 -2 -2 -2 -2 -1 0 3 16 49 95 
95 49 16 3 0 -1 -1 -2 -2 -2 -2 -2 -2 -2 -2 -1 -1 -1 -1 -1 -1 -1 -1 -1 -1 -1 -1 -1 -1 -1 -1 -1 -1 -1 -1 0 0 0 0 0 0 0 0 1 2 2 3 3 3 5 7 10 13 15 15 16 16 18 22 28 36 44 52 65 88 115 126 121 113 109 103 90 72 54 39 27 16 9 5 2 0 0 -1 -1 -1 -1 -1 -1 -1 -2 -2 -2 -2 -2 -2 -2 -2 -2 -2 -2 -2 -2 -2 -1 -1 0 3 16 49 95 
95 49 16 3 0 -1 -1 -1 -1 -1 -1 -1 -1 -1 -1 -1 -1 -1 -1 -1 -1 -1 -1 -1 -1 -1 -1 -1 -1 -1 -1 -1 -1 -1 -1 -1 -1 -1 -1 -1 -1 -1 -1 0 0 0 0 0 0 0 0 1 2 3 3 3 3 4 5 8 11 14 19 28 50 90 131 139 116 90 67 47 31 20 13 7 4 1 0 0 -1 -1 -1 -1 -1 -1 -1 -1 -1 -1 -1 -1 -1 -1 -1 -1 -1 -1 -1 -1 -1 -1 -1 -1 -1 0 3 16 49 95 
96 50 17 4 0 0 0 0 0 0 0 0 0 0 0 0 0 0 0 0 0 0 0 0 0 0 0 0 0 0 0 0 0 0 0 0 0 0 0 0 0 0 0 0 0 0 0 0 0 0 0 0 0 0 0 0 0 0 1 1 2 4 6 12 30 67 115 123 86 52 31 18 11 6 3 1 0 0 0 0 0 0 0 0 0 0 0 0 0 0 0 0 0 0 0 0 0 0 0 0 0 0 0 0 0 0 4 17 50 96 
98 53 21 8 4 3 3 3 3 3 3 3 3 3 3 3 3 3 3 3 3 3 3 3 3 3 3 3 3 3 3 3 2 2 2 2 3 3 3 3 3 3 3 3 3 3 3 3 3 2 3 3 3 3 3 3 3 3 3 3 4 4 5 10 25 59 106 109 67 33 17 10 6 5 4 3 3 3 3 3 3 3 3 3 3 3 3 3 3 3 3 2 2 2 2 3 3 3 3 3 3 3 3 2 3 4 8 21 53 98 
107 64 33 21 17 16 16 16 16 16 16 16 16 16 16 16 16 16 16 16 16 16 16 16 16 16 16 16 16 16 15 15 15 15 15 15 15 16 16 16 16 16 16 16 16 16 16 15 15 15 15 15 15 16 16 16 16 16 16 16 16 16 17 21 34 66 109 110 68 37 23 18 17 16 16 16 16 16 16 16 16 16 16 16 16 16 16 16 16 15 15 15 15 15 15 15 16 16 16 16 16 16 15 15 15 16 20 33 64 107 
126 91 64 53 50 49 49 49 49 49 49 49 49 49 49 49 49 49 49 49 49 49 49 49 49 49 49 49 49 49 48 48 47 47 47 48 48 49 49 49 49 49 49 49 49 49 48 48 48 47 47 48 48 48 49 49 49 49 49 49 49 49 50 53 65 91 125 126 92 65 54 50 49 49 49 49 49 49 49 49 49 49 49 49 49 49 49 49 49 48 48 47 47 47 48 48 49 49 49 49 49 48 48 47 47 48 52 64 91 126 
151 126 107 98 96 95 95 95 95 95 95 95 95 95 95 95 95 95 95 95 95 95 95 95 95 95 95 95 95 96 97 99 101 102 100 97 96 95 95 95 95 95 95 95 95 95 95 97 99 102 102 99 97 95 95 95 95 95 95 95 95 95 96 98 105 119 136 136 119 105 98 96 95 95 95 95 95 95 95 95 95 95 95 95 95 95 95 95 95 96 98 101 102 100 98 96 95 95 95 95 95 96 98 101 102 101 101 108 126 151 
