P2
110 110
255
147 104 90 87 87 87 87 87 87 87 87 87 87 87 87 87 87 87 87 87 87 87 87 87 87 87 87 87 87 87 89 99 126 154 127 97 89 87 87 87 87 87 87 87 87 87 87 89 102 140 140 102 89 87 87 87 87 87 87 87 87 87 87 87 87 89 93 93 89 87 87 87 87 87 87 87 87 87 87 87 87 87 87 87 87 87 87 87 87 88 95 120 154 128 97 89 87 87 87 87 87 88 94 119 154 128 98 91 104 147 
104 42 22 19 19 19 19 19 19 19 19 19 19 19 19 19 19 19 19 19 19 19 19 19 19 19 19 19 19 20 28 60 118 111 53 26 20 19 19 19 19 19 19 19 19 19 19 23 43 105 104 42 22 19 19 19 19 19 19 19 19 19 19 19 19 19 19 19 19 19 19 19 19 19 19 19 19 19 19 19 19 19 19 19 19 19 19 19 19 23 42 99 119 57 27 20 19 19 19 19 19 22 37 92 120 58 27 24 42 104 
90 22 1 -1 -1 -1 -1 -1 -1 -1 -1 -1 -1 -1 -1 -1 -1 -1 -1 -1 -1 -1 -1 -1 -1 -1 -1 -1 -1 3 24 82 110 51 11 0 -1 -1 -1 -1 -1 -1 -1 -1 -1 -1 -1 3 28 99 91 22 1 -1 -1 -1 -1 -1 -1 -1 -1 -1 -1 -1 -1 -2 -2 -2 -2 -1 -1 -1 -1 -1 -1 -1 -1 -1 -1 -1 -1 -1 -1 -1 -1 -1 -1 -1 0 7 43 110 81 21 2 -1 -1 -1 -1 -1 -1 1 22 88 95 27 3 2 22 90 
87 19 -1 -5 -5 -5 -5 -5 -5 -5 -5 -5 -5 -5 -5 -5 -5 -5 -5 -5 -5 -5 -5 -5 -5 -5 -5 -5 -2 9 50 109 79 20 0 -4 -5 -5 -5 -5 -5 -5 -5 -5 -5 -5 -3 5 43 124 92 19 -1 -5 -5 -5 -5 -5 -5 -5 -5 -5 -5 -5 -5 -5 -5 -5 -5 -5 -5 -5 -5 -5 -5 -5 -5 -5 -5 -5 -5 -5 -5 -5 -5 -5 -5 -5 -2 14 73 109 42 4 -3 -5 -5 -5 -5 -5 -4 0 24 93 85 19 -1 -1 19 87 
87 19 -1 -5 -5 -5 -5 -5 -5 -5 -5 -5 -5 -5 -5 -5 -5 -5 -5 -5 -5 -5 -5 -5 -5 -5 -5 -4 3 37 101 101 37 3 -4 -5 -5 -5 -5 -5 -5 -5 -5 -5 -5 -5 -1 18 83 154 94 19 -1 -5 -5 -5 -5 -5 -5 -5 -5 -5 -5 -5 -5 -5 -5 -5 -5 -5 -5 -5 -5 -5 -5 -5 -5 -5 -5 -5 -5 -5 -5 -5 -5 -5 -5 -5 0 23 91 91 23 0 -5 -5 -5 -5 -5 -5 -4 3 41 109 71 13 -2 -1 19 87 
87 19 -1 -5 -5 -5 -5 -5 -5 -5 -5 -5 -5 -5 -5 -5 -5 -5 -5 -5 -5 -5 -5 -5 -5 -5 -5 0 20 79 109 50 9 -3 -5 -5 -5 -5 -5 -5 -5 -5 -5 -5 -5 -4 4 41 116 147 92 19 -1 -5 -5 -5 -5 -5 -5 -5 -5 -5 -5 -5 -5 -5 -5 -5 -5 -5 -5 -5 -5 -5 -5 -5 -5 -5 -5 -5 -5 -5 -5 -5 -5 -5 -5 -4 4 42 109 73 14 -2 -5 -5 -5 -5 -5 -5 -2 13 71 109 41 3 -4 -1 19 87 
87 19 -1 -5 -5 -5 -5 -5 -5 -5 -5 -5 -5 -5 -5 -5 -5 -5 -5 -5 -5 -5 -5 -5 -5 -5 -3 9 50 109 79 20 0 -5 -5 -5 -5 -5 -5 -5 -5 -5 -5 -5 -5 -1 18 80 124 123 90 20 -1 -5 -5 -5 -5 -5 -5 -5 -5 -5 -5 -5 -5 -5 -5 -5 -5 -5 -5 -5 -5 -5 -5 -5 -5 -5 -5 -5 -5 -5 -5 -5 -5 -5 -5 -1 18 79 107 40 3 -4 -5 -5 -5 -5 -5 -5 -2 18 85 93 24 0 -4 -1 19 87 
87 19 -1 -5 -5 -5 -5 -5 -5 -5 -5 -5 -5 -5 -5 -5 -5 -5 -5 -5 -5 -5 -5 -5 -5 -4 3 37 101 101 37 3 -4 -5 -5 -5 -5 -5 -5 -5 -5 -5 -5 -5 -4 4 41 109 99 104 95 24 0 -5 -5 -5 -5 -5 -5 -5 -5 -5 -5 -5 -5 -5 -5 -5 -5 -5 -5 -5 -5 -5 -5 -5 -5 -5 -5 -5 -5 -5 -5 -5 -5 -5 -4 3 40 107 79 18 -1 -5 -5 -5 -5 -5 -5 -5 0 24 93 85 18 -1 -5 -1 19 87 
87 19 -1 -5 -5 -5 -5 -5 -5 -5 -5 -5 -5 -5 -5 -5 -5 -5 -5 -5 -5 -5 -5 -5 -5 0 20 79 109 50 9 -3 -5 -5 -5 -5 -5 -5 -5 -5 -5 -5 -5 -5 0 20 80 109 59 80 109 41 3 -4 -5 -5 -5 -5 -5 -5 -5 -5 -5 -5 -5 -5 -5 -5 -5 -5 -5 -5 -5 -5 -5 -5 -5 -5 -5 -5 -5 -5 -5 -5 -5 -5 -2 14 73 109 42 4 -4 -5 -5 -5 -5 -5 -5 -4 3 41 109 71 13 -2 -5 -1 19 87 
87 19 -1 -5 -5 -5 -5 -5 -5 -5 -5 -5 -5 -5 -5 -5 -5 -5 -5 -5 -5 -5 -5 -5 -3 9 50 109 79 20 0 -5 -5 -5 -5 -5 -5 -5 -5 -5 -5 -5 -5 -3 9 50 109 80 28 45 109 71 13 -2 -5 -5 -5 -5 -5 -5 -5 -5 -5 -5 -5 -5 -5 -5 -5 -5 -5 -5 -5 -5 -5 -5 -5 -5 -5 -5 -5 -5 -5 -5 -5 -5 0 23 90 90 23 0 -5 -5 -5 -5 -5 -5 -5 -2 13 71 109 41 3 -4 -5 -1 19 87 
87 19 -1 -5 -5 -5 -5 -5 -5 -5 -5 -5 -5 -5 -5 -5 -5 -5 -5 -5 -5 -5 -5 -4 3 37 101 101 37 3 -4 -5 -5 -5 -5 -5 -5 -5 -5 -5 -5 -5 -4 3 37 101 101 38 8 25 94 84 17 -2 -5 -5 -5 -5 -5 -5 -5 -5 -5 -5 -5 -5 -5 -5 -5 -5 -5 -5 -5 -5 -5 -5 -5 -5 -5 -5 -5 -5 -5 -5 -5 -4 4 42 109 73 14 -2 -5 -5 -5 -5 -5 -5 -5 -2 18 85 93 24 0 -5 -5 -1 19 87 
87 19 -1 -5 -5 -5 -5 -5 -5 -5 -5 -5 -5 -5 -5 -5 -5 -5 -5 -5 -5 -5 -5 0 20 79 109 50 9 -3 -5 -5 -5 -5 -5 -5 -5 -5 -5 -5 -5 -5 -1 18 79 109 50 9 0 20 88 86 19 -2 -5 -5 -5 -5 -5 -5 -5 -5 -5 -5 -5 -5 -5 -5 -5 -5 -5 -5 -5 -5 -5 -5 -5 -5 -5 -5 -5 -5 -5 -5 -5 -1 18 79 107 40 3 -4 -5 -5 -5 -5 -5 -5 -5 0 24 93 85 18 -2 -5 -5 -1 19 87 
89 20 -1 -5 -5 -5 -5 -5 -5 -5 -5 -5 -5 -5 -5 -5 -5 -5 -5 -5 -5 -5 -3 9 50 109 79 20 0 -5 -5 -5 -5 -5 -5 -5 -5 -5 -5 -5 -5 -4 4 41 107 80 20 0 -1 19 87 87 19 -1 -5 -5 -5 -5 -5 -5 -5 -5 -5 -5 -5 -5 -5 -5 -5 -5 -5 -5 -5 -5 -5 -5 -5 -5 -5 -5 -5 -5 -5 -5 -4 3 40 107 79 18 -1 -5 -5 -5 -5 -5 -5 -5 -4 3 41 109 71 13 -2 -5 -5 -1 19 87 
97 26 0 -5 -5 -5 -5 -5 -5 -5 -5 -5 -5 -5 -5 -5 -5 -5 -5 -5 -5 -4 3 37 101 101 37 3 -4 -5 -5 -5 -5 -5 -5 -5 -5 -5 -5 -5 -5 -1 18 79 107 41 4 -3 -1 19 86 88 20 -1 -5 -5 -5 -5 -5 -5 -5 -5 -5 -5 -5 -5 -5 -5 -5 -5 -5 -5 -5 -5 -5 -5 -5 -5 -5 -5 -5 -5 -5 -5 -2 14 73 109 42 4 -4 -5 -5 -5 -5 -5 -5 -5 -2 13 71 109 41 3 -4 -5 -5 -2 19 88 
127 53 11 -2 -5 -5 -5 -5 -5 -5 -5 -5 -5 -5 -5 -5 -5 -5 -5 -5 -5 0 20 79 109 50 9 -3 -5 -5 -5 -5 -5 -5 -5 -5 -5 -5 -5 -5 -4 4 41 107 79 18 -1 -4 -2 17 84 93 24 0 -5 -5 -5 -5 -5 -5 -5 -5 -5 -5 -5 -5 -5 -5 -5 -5 -5 -5 -5 -5 -5 -5 -5 -5 -5 -5 -5 -5 -5 -5 0 23 90 90 23 0 -5 -5 -5 -5 -5 -5 -5 -5 -2 18 85 93 24 0 -5 -5 -5 -2 19 92 
154 110 47 10 -2 -5 -5 -5 -5 -5 -5 -5 -5 -5 -5 -5 -5 -5 -5 -5 -3 9 50 109 79 20 0 -5 -5 -5 -5 -5 -5 -5 -5 -5 -5 -5 -5 -5 0 20 80 107 41 4 -4 -5 -2 13 71 109 41 3 -4 -5 -5 -5 -5 -5 -5 -5 -5 -5 -5 -5 -5 -5 -5 -5 -5 -5 -5 -5 -5 -5 -5 -5 -5 -5 -5 -5 -5 -4 4 42 109 73 14 -2 -5 -5 -5 -5 -5 -5 -5 -5 0 24 93 85 18 -2 -5 -5 -5 -2 19 94 
127 120 104 46 8 -3 -5 -5 -5 -5 -5 -5 -5 -5 -5 -5 -5 -5 -5 -4 3 37 101 101 37 3 -4 -5 -5 -5 -5 -5 -5 -5 -5 -5 -5 -5 -5 -3 9 50 109 79 18 -1 -5 -5 -4 3 41 109 71 13 -2 -5 -5 -5 -5 -5 -5 -5 -5 -5 -5 -5 -5 -5 -5 -5 -5 -5 -5 -5 -5 -5 -5 -5 -5 -5 -5 -5 -5 -1 18 79 107 40 3 -4 -5 -5 -5 -5 -5 -5 -5 -4 3 41 109 71 13 -2 -5 -5 -5 -2 19 90 
100 70 106 100 37 3 -4 -5 -5 -5 -5 -5 -5 -5 -5 -5 -5 -5 -5 0 20 79 109 50 9 -3 -5 -5 -5 -5 -5 -5 -5 -5 -5 -5 -5 -5 -4 3 37 101 101 37 3 -4 -5 -5 -5 0 24 93 84 17 -2 -5 -5 -5 -5 -5 -5 -5 -5 -5 -5 -5 -5 -5 -5 -5 -5 -5 -5 -5 -5 -5 -5 -5 -5 -5 -5 -5 -4 3 40 107 79 18 -1 -5 -5 -5 -5 -5 -5 -5 -5 -2 13 71 109 41 3 -4 -5 -5 -5 -1 19 88 
90 35 54 109 79 20 0 -5 -5 -5 -5 -5 -5 -5 -5 -5 -5 -5 -3 9 50 109 79 20 0 -5 -5 -5 -5 -5 -5 -5 -5 -5 -5 -5 -5 -5 -1 18 79 109 50 9 -3 -5 -5 -5 -5 -1 20 88 86 19 -2 -5 -5 -5 -5 -5 -5 -5 -5 -5 -5 -5 -5 -5 -5 -5 -5 -5 -5 -5 -5 -5 -5 -5 -5 -5 -5 -5 -2 14 73 109 42 4 -4 -5 -5 -5 -5 -5 -5 -5 -5 -2 18 85 93 24 0 -5 -5 -5 -5 -1 19 87 
88 24 24 79 109 50 10 -2 -5 -5 -5 -5 -5 -5 -5 -5 -5 -4 3 37 101 101 37 3 -4 -5 -5 -5 -5 -5 -5 -5 -5 -5 -5 -5 -5 -4 4 41 107 80 20 0 -5 -5 -5 -5 -5 -1 19 87 87 19 -1 -5 -5 -5 -5 -5 -5 -5 -5 -5 -5 -5 -5 -5 -5 -5 -5 -5 -5 -5 -5 -5 -5 -5 -5 -5 -5 -5 0 23 90 90 23 0 -5 -5 -5 -5 -5 -5 -5 -5 -5 0 24 93 85 18 -2 -5 -5 -5 -5 -1 19 87 
87 20 7 37 100 103 47 10 -2 -5 -5 -5 -5 -5 -5 -5 -5 0 20 79 109 50 9 -3 -5 -5 -5 -5 -5 -5 -5 -5 -5 -5 -5 -5 -5 -1 18 79 107 41 4 -4 -5 -5 -5 -5 -5 -2 19 86 88 20 -1 -5 -5 -5 -5 -5 -5 -5 -5 -5 -5 -5 -5 -5 -5 -5 -5 -5 -5 -5 -5 -5 -5 -5 -5 -5 -5 -4 4 42 109 73 14 -2 -5 -5 -5 -5 -5 -5 -5 -5 -4 3 41 109 71 13 -2 -5 -5 -5 -5 -1 19 87 
87 19 0 8 46 102 102 46 10 -2 -5 -5 -5 -5 -5 -5 -3 9 50 109 79 20 0 -5 -5 -5 -5 -5 -5 -5 -5 -5 -5 -5 -5 -5 -4 4 41 107 79 18 -1 -5 -5 -5 -5 -5 -5 -2 17 84 93 24 0 -5 -5 -5 -5 -5 -5 -5 -5 -5 -5 -5 -5 -5 -5 -5 -5 -5 -5 -5 -5 -5 -5 -5 -5 -5 -5 -1 18 79 107 40 3 -4 -5 -5 -5 -5 -5 -5 -5 -5 -2 13 71 109 41 3 -4 -5 -5 -5 -5 -1 19 87 
87 19 -1 -2 10 46 102 102 46 10 -2 -5 -5 -5 -5 -4 3 37 101 101 37 3 -4 -5 -5 -5 -5 -5 -5 -5 -5 -5 -5 -5 -5 -5 0 20 80 107 41 4 -4 -5 -5 -5 -5 -5 -5 -2 13 71 109 41 3 -4 -5 -5 -5 -5 -5 -5 -5 -5 -5 -5 -5 -5 -5 -5 -5 -5 -5 -5 -5 -5 -5 -5 -5 -5 -4 3 40 107 79 18 -1 -5 -5 -5 -5 -5 -5 -5 -5 -5 -2 18 85 93 24 0 -5 -5 -5 -5 -5 -1 19 87 
87 19 -1 -4 -2 10 46 102 102 46 10 -2 -5 -5 -5 0 20 79 109 50 9 -3 -5 -5 -5 -5 -5 -5 -5 -5 -5 -5 -5 -5 -5 -3 9 50 109 79 18 -1 -5 -5 -5 -5 -5 -5 -5 -4 3 41 109 71 13 -2 -5 -5 -5 -5 -5 -5 -5 -5 -5 -5 -5 -5 -5 -5 -5 -5 -5 -5 -5 -5 -5 -5 -5 -5 -2 14 73 109 42 4 -4 -5 -5 -5 -5 -5 -5 -5 -5 -5 0 24 93 85 18 -2 -5 -5 -5 -5 -5 -1 19 87 
87 19 -1 -5 -5 -2 10 46 102 102 46 10 -2 -4 -3 9 50 109 79 20 0 -5 -5 -5 -5 -5 -5 -5 -5 -5 -5 -5 -5 -5 -4 3 37 101 101 37 3 -4 -5 -5 -5 -5 -5 -5 -5 -5 0 24 93 84 17 -2 -5 -5 -5 -5 -5 -5 -5 -5 -5 -5 -5 -5 -5 -5 -5 -5 -5 -5 -5 -5 -5 -5 -5 -5 0 23 90 90 23 0 -5 -5 -5 -5 -5 -5 -5 -5 -5 -4 3 41 109 71 13 -2 -5 -5 -5 -5 -5 -1 19 87 
87 19 -1 -5 -5 -5 -2 10 46 102 102 46 10 0 4 37 101 101 37 3 -4 -5 -5 -5 -5 -5 -5 -5 -5 -5 -5 -5 -5 -5 -1 18 79 109 50 9 -3 -5 -5 -5 -5 -5 -5 -5 -5 -5 -1 20 88 87 19 -2 -5 -5 -5 -5 -5 -5 -5 -5 -5 -5 -5 -5 -5 -5 -5 -5 -5 -5 -5 -5 -5 -5 -5 -4 4 42 109 73 14 -2 -5 -5 -5 -5 -5 -5 -5 -5 -5 -2 13 71 109 41 3 -4 -5 -5 -5 -5 -5 -1 19 87 
87 19 -1 -5 -5 -5 -5 -2 10 46 102 102 47 15 23 80 109 50 9 -3 -5 -5 -5 -5 -5 -5 -5 -5 -5 -5 -5 -5 -5 -4 4 41 107 80 20 0 -5 -5 -5 -5 -5 -5 -5 -5 -5 -5 -2 19 87 88 20 -1 -5 -5 -5 -5 -5 -5 -5 -5 -5 -5 -5 -5 -5 -5 -5 -5 -5 -5 -5 -5 -5 -5 -5 -1 18 79 107 40 3 -4 -5 -5 -5 -5 -5 -5 -5 -5 -5 -2 18 85 93 24 0 -5 -5 -5 -5 -5 -5 -1 19 87 
87 19 -1 -5 -5 -5 -5 -5 -2 10 46 102 104 60 63 111 79 20 0 -5 -5 -5 -5 -5 -5 -5 -5 -5 -5 -5 -5 -5 -5 -1 18 79 107 41 4 -4 -5 -5 -5 -5 -5 -5 -5 -5 -5 -5 -2 17 84 93 24 0 -5 -5 -5 -5 -5 -5 -5 -5 -5 -5 -5 -5 -5 -5 -5 -5 -5 -5 -5 -5 -5 -5 -4 3 40 107 79 18 -1 -5 -5 -5 -5 -5 -5 -5 -5 -5 -5 0 24 93 85 18 -2 -5 -5 -5 -5 -5 -5 -1 19 87 
87 19 -1 -5 -5 -5 -5 -5 -5 -2 10 47 106 130 130 104 37 3 -4 -5 -5 -5 -5 -5 -5 -5 -5 -5 -5 -5 -5 -5 -4 4 41 107 79 18 -1 -5 -5 -5 -5 -5 -5 -5 -5 -5 -5 -5 -2 13 71 109 41 3 -4 -5 -5 -5 -5 -5 -5 -5 -5 -5 -5 -5 -5 -5 -5 -5 -5 -5 -5 -5 -5 -5 -2 14 73 109 42 4 -4 -5 -5 -5 -5 -5 -5 -5 -5 -5 -4 3 41 109 71 13 -2 -5 -5 -5 -5 -5 -5 -1 19 87 
87 19 -1 -5 -5 -5 -5 -5 -5 -5 -2 11 53 130 130 52 9 -3 -5 -5 -5 -5 -5 -5 -5 -5 -5 -5 -5 -5 -5 -5 0 20 80 107 41 4 -4 -5 -5 -5 -5 -5 -5 -5 -5 -5 -5 -5 -4 3 41 109 71 13 -2 -5 -5 -5 -5 -5 -5 -5 -5 -5 -5 -5 -5 -5 -5 -5 -5 -5 -5 -5 -5 -5 0 23 90 90 23 0 -5 -5 -5 -5 -5 -5 -5 -5 -5 -5 -2 13 71 109 41 3 -4 -5 -5 -5 -5 -5 -5 -1 19 87 
87 19 -1 -5 -5 -5 -5 -5 -5 -5 -5 0 26 98 100 27 0 -5 -5 -5 -5 -5 -5 -5 -5 -5 -5 -5 -5 -5 -5 -3 9 50 109 79 18 -1 -5 -5 -5 -5 -5 -5 -5 -5 -5 -5 -5 -5 -5 0 24 93 84 17 -2 -5 -5 -5 -5 -5 -5 -5 -5 -5 -5 -5 -5 -5 -5 -5 -5 -5 -5 -5 -5 -4 4 42 109 73 14 -2 -5 -5 -5 -5 -5 -5 -5 -5 -5 -5 -2 18 85 93 24 0 -5 -5 -5 -5 -5 -5 -5 -1 19 87 
87 19 -1 -5 -5 -5 -5 -5 -5 -5 -5 -1 18 85 95 25 0 -5 -5 -5 -5 -5 -5 -5 -5 -5 -5 -5 -5 -5 -4 3 37 101 101 37 3 -4 -5 -5 -5 -5 -5 -5 -5 -5 -5 -5 -5 -5 -5 -1 20 88 86 19 -2 -5 -5 -5 -5 -5 -5 -5 -5 -5 -5 -5 -5 -5 -5 -5 -5 -5 -5 -5 -5 -1 18 79 107 40 3 -4 -5 -5 -5 -5 -5 -5 -5 -5 -5 -5 0 24 93 85 18 -2 -5 -5 -5 -5 -5 -5 -5 -1 19 87 
87 19 -1 -5 -5 -5 -5 -5 -5 -5 -5 -2 13 72 109 41 3 -4 -5 -5 -5 -5 -5 -5 -5 -5 -5 -5 -5 -5 -1 18 79 109 50 9 -3 -5 -5 -5 -5 -5 -5 -5 -5 -5 -5 -5 -5 -5 -5 -1 19 87 87 19 -1 -5 -5 -5 -5 -5 -5 -5 -5 -5 -5 -5 -5 -5 -5 -5 -5 -5 -5 -5 -4 3 40 107 79 18 -1 -5 -5 -5 -5 -5 -5 -5 -5 -5 -5 -4 3 41 109 71 13 -2 -5 -5 -5 -5 -5 -5 -5 -1 19 87 
87 19 -1 -5 -5 -5 -5 -5 -5 -5 -5 -4 3 41 109 71 13 -2 -5 -5 -5 -5 -5 -5 -5 -5 -5 -5 -5 -4 4 41 107 80 20 0 -5 -5 -5 -5 -5 -5 -5 -5 -5 -5 -5 -5 -5 -5 -5 -2 19 86 88 20 -1 -5 -5 -5 -5 -5 -5 -5 -5 -5 -5 -5 -5 -5 -5 -5 -5 -5 -5 -5 -2 14 73 109 42 4 -4 -5 -5 -5 -5 -5 -5 -5 -5 -5 -5 -2 13 71 109 41 3 -4 -5 -5 -5 -5 -5 -5 -5 -1 19 87 
87 19 -1 -5 -5 -5 -5 -5 -5 -5 -5 -5 0 24 93 84 17 -2 -5 -5 -5 -5 -5 -5 -5 -5 -5 -5 -5 -1 18 79 107 41 4 -4 -5 -5 -5 -5 -5 -5 -5 -5 -5 -5 -5 -5 -5 -5 -5 -2 17 84 93 24 0 -5 -5 -5 -5 -5 -5 -5 -5 -5 -5 -5 -5 -5 -5 -5 -5 -5 -5 -5 0 23 90 90 23 0 -5 -5 -5 -5 -5 -5 -5 -5 -5 -5 -5 -2 18 85 93 24 0 -5 -5 -5 -5 -5 -5 -5 -5 -1 19 87 
87 19 -1 -5 -5 -5 -5 -5 -5 -5 -5 -5 -1 19 88 88 19 -1 -5 -5 -5 -5 -5 -5 -5 -5 -5 -5 -4 4 41 107 79 18 -1 -5 -5 -5 -5 -5 -5 -5 -5 -5 -5 -5 -5 -5 -5 -5 -5 -2 13 71 109 41 3 -4 -5 -5 -5 -5 -5 -5 -5 -5 -5 -5 -5 -5 -5 -5 -5 -5 -5 -4 4 42 109 73 14 -2 -5 -5 -5 -5 -5 -5 -5 -5 -5 -5 -5 0 24 93 85 18 -2 -5 -5 -5 -5 -5 -5 -5 -5 -1 20 89 
88 19 -2 -5 -5 -5 -5 -5 -5 -5 -5 -5 -2 17 84 93 24 0 -5 -5 -5 -5 -5 -5 -5 -5 -5 -5 0 20 80 107 41 4 -4 -5 -5 -5 -5 -5 -5 -5 -5 -5 -5 -5 -5 -5 -5 -5 -5 -4 3 41 109 71 13 -2 -5 -5 -5 -5 -5 -5 -5 -5 -5 -5 -5 -5 -5 -5 -5 -5 -5 -1 18 79 107 40 3 -4 -5 -5 -5 -5 -5 -5 -5 -5 -5 -5 -4 3 41 109 71 13 -2 -5 -5 -5 -5 -5 -5 -5 -5 0 24 97 
92 19 -2 -5 -5 -5 -5 -5 -5 -5 -5 -5 -2 13 71 109 41 3 -4 -5 -5 -5 -5 -5 -5 -5 -5 -3 9 50 109 79 18 -1 -5 -5 -5 -5 -5 -5 -5 -5 -5 -5 -5 -5 -5 -5 -5 -5 -5 -5 0 24 93 84 17 -2 -5 -5 -5 -5 -5 -5 -5 -5 -5 -5 -5 -5 -5 -5 -5 -5 -4 3 40 107 79 18 -1 -5 -5 -5 -5 -5 -5 -5 -5 -5 -5 -5 -2 13 71 109 41 3 -4 -5 -5 -5 -5 -5 -5 -5 -4 4 43 124 
94 19 -2 -5 -5 -5 -5 -5 -5 -5 -5 -5 -4 3 41 109 71 13 -2 -5 -5 -5 -5 -5 -5 -5 -4 3 37 101 101 37 3 -4 -5 -5 -5 -5 -5 -5 -5 -5 -5 -5 -5 -5 -5 -5 -5 -5 -5 -5 -1 20 88 86 19 -2 -5 -5 -5 -5 -5 -5 -5 -5 -5 -5 -5 -5 -5 -5 -5 -5 -2 14 73 109 42 4 -4 -5 -5 -5 -5 -5 -5 -5 -5 -5 -5 -5 -2 18 85 93 24 0 -5 -5 -5 -5 -5 -5 -5 -5 0 20 84 154 
92 19 -2 -5 -5 -5 -5 -5 -5 -5 -5 -5 -5 0 24 93 84 17 -2 -5 -5 -5 -5 -5 -5 -5 -1 18 79 109 50 9 -3 -5 -5 -5 -5 -5 -5 -5 -5 -5 -5 -5 -5 -5 -5 -5 -5 -5 -5 -5 -1 19 87 87 19 -1 -5 -5 -5 -5 -5 -5 -5 -5 -5 -5 -5 -5 -5 -5 -5 -5 0 23 90 90 23 0 -5 -5 -5 -5 -5 -5 -5 -5 -5 -5 -5 -5 0 24 93 85 18 -2 -5 -5 -5 -5 -5 -5 -5 -3 9 50 118 147 
89 19 -2 -5 -5 -5 -5 -5 -5 -5 -5 -5 -5 -1 19 88 88 19 -1 -5 -5 -5 -5 -5 -5 -4 4 41 107 80 20 0 -5 -5 -5 -5 -5 -5 -5 -5 -5 -5 -5 -5 -5 -5 -5 -5 -5 -5 -5 -5 -2 19 86 88 20 -1 -5 -5 -5 -5 -5 -5 -5 -5 -5 -5 -5 -5 -5 -5 -5 -4 4 42 109 73 14 -2 -5 -5 -5 -5 -5 -5 -5 -5 -5 -5 -5 -4 3 41 109 71 13 -2 -5 -5 -5 -5 -5 -5 -4 3 37 102 119 120 
88 19 -1 -5 -5 -5 -5 -5 -5 -5 -5 -5 -5 -2 17 84 93 24 0 -5 -5 -5 -5 -5 -5 -1 18 79 107 41 4 -4 -5 -5 -5 -5 -5 -5 -5 -5 -5 -5 -5 -5 -5 -5 -5 -5 -5 -5 -5 -5 -2 17 84 93 24 0 -5 -5 -5 -5 -5 -5 -5 -5 -5 -5 -5 -5 -5 -5 -5 -1 18 79 107 40 3 -4 -5 -5 -5 -5 -5 -5 -5 -5 -5 -5 -5 -2 13 71 109 41 3 -4 -5 -5 -5 -5 -5 -5 0 20 79 111 73 99 
87 19 -1 -5 -5 -5 -5 -5 -5 -5 -5 -5 -5 -2 13 71 109 41 3 -4 -5 -5 -5 -5 -4 4 41 107 79 18 -1 -5 -5 -5 -5 -5 -5 -5 -5 -5 -5 -5 -5 -5 -5 -5 -5 -5 -5 -5 -5 -5 -2 13 71 109 41 3 -4 -5 -5 -5 -5 -5 -5 -5 -5 -5 -5 -5 -5 -5 -4 3 40 107 79 18 -1 -5 -5 -5 -5 -5 -5 -5 -5 -5 -5 -5 -5 -2 18 85 93 24 0 -5 -5 -5 -5 -5 -5 -3 9 50 109 82 44 91 
87 19 -1 -5 -5 -5 -5 -5 -5 -5 -5 -5 -5 -4 3 41 109 71 13 -2 -5 -5 -5 -5 0 20 80 107 41 4 -4 -5 -5 -5 -5 -5 -5 -5 -5 -5 -5 -5 -5 -5 -5 -5 -5 -5 -5 -5 -5 -5 -4 3 41 109 72 13 -2 -5 -5 -5 -5 -5 -5 -5 -5 -5 -5 -5 -5 -5 -2 14 73 109 42 4 -4 -5 -5 -5 -5 -5 -5 -5 -5 -5 -5 -5 -5 0 24 93 85 18 -2 -5 -5 -5 -5 -5 -4 3 37 101 101 41 28 88 
87 19 -1 -5 -5 -5 -5 -5 -5 -5 -5 -5 -5 -5 0 24 93 84 17 -2 -5 -5 -5 -3 9 50 109 79 18 -1 -5 -5 -5 -5 -5 -5 -5 -5 -5 -5 -5 -5 -5 -5 -5 -5 -5 -5 -5 -5 -5 -5 -5 0 25 95 86 21 1 -1 -2 -2 -4 -5 -5 -5 -5 -5 -5 -5 -5 -5 0 23 90 90 23 0 -5 -5 -5 -5 -5 -5 -5 -5 -5 -5 -5 -5 -4 3 41 109 71 13 -2 -5 -5 -5 -5 -5 0 20 79 109 50 13 21 87 
87 19 -1 -5 -5 -5 -5 -5 -5 -5 -5 -5 -5 -5 -1 19 88 88 19 -1 -5 -5 -4 3 37 101 101 37 3 -4 -5 -5 -5 -5 -5 -5 -5 -5 -5 -5 -5 -5 -5 -5 -5 -5 -5 -5 -5 -5 -5 -5 -4 2 28 100 103 42 22 19 17 13 3 0 -1 -1 -2 -2 -2 -4 -5 -3 4 42 109 73 14 -2 -5 -5 -5 -5 -5 -5 -5 -5 -5 -5 -5 -5 -2 13 71 109 41 3 -4 -5 -5 -5 -5 -3 9 50 109 79 20 3 19 87 
87 19 -1 -5 -5 -5 -5 -5 -5 -5 -5 -5 -5 -5 -2 17 84 93 24 0 -5 -5 -1 18 79 109 50 9 -3 -5 -5 -5 -5 -5 -5 -5 -5 -5 -5 -5 -5 -5 -5 -5 -5 -5 -5 -5 -5 -5 -5 -3 4 21 57 130 141 102 89 87 84 71 41 24 20 19 19 17 13 3 0 2 21 80 107 40 3 -4 -5 -5 -5 -5 -5 -5 -5 -5 -5 -5 -5 -5 -2 18 85 93 24 0 -5 -5 -5 -5 -4 3 37 101 101 37 4 0 19 87 
87 19 -1 -5 -5 -5 -5 -5 -5 -5 -5 -5 -5 -5 -2 13 71 109 41 3 -4 -4 4 41 107 80 20 0 -5 -5 -5 -5 -5 -5 -5 -5 -5 -5 -5 -5 -5 -5 -5 -5 -5 -5 -5 -5 -5 -4 0 9 37 79 112 120 102 90 88 88 93 109 109 93 88 87 86 84 71 41 25 28 57 113 80 18 -1 -5 -5 -5 -5 -5 -5 -5 -5 -5 -5 -5 -5 -5 0 24 93 85 18 -2 -5 -5 -5 -5 0 20 79 109 50 9 -2 -1 19 87 
87 19 -1 -5 -5 -5 -5 -5 -5 -5 -5 -5 -5 -5 -4 3 41 109 71 13 -2 -1 18 79 107 41 4 -4 -5 -5 -5 -5 -5 -5 -5 -5 -5 -5 -5 -5 -5 -5 -5 -5 -5 -5 -5 -5 -3 3 20 50 101 109 80 43 24 20 19 20 24 41 71 84 86 87 88 93 109 109 95 100 130 127 48 6 -4 -5 -5 -5 -5 -5 -5 -5 -5 -5 -5 -5 -5 -4 3 41 109 71 13 -2 -5 -5 -5 -3 9 50 109 79 20 0 -4 -1 19 87 
87 19 -1 -5 -5 -5 -5 -5 -5 -5 -5 -5 -5 -5 -5 0 24 93 84 18 0 5 41 107 79 18 -1 -5 -5 -5 -5 -5 -5 -5 -5 -5 -5 -5 -5 -5 -5 -5 -5 -5 -5 -5 -4 0 9 37 79 109 101 50 20 4 0 -1 -1 -1 0 3 13 17 19 19 20 24 41 72 85 98 130 127 48 6 -4 -5 -5 -5 -5 -5 -5 -5 -5 -5 -5 -5 -5 -2 13 71 109 41 3 -4 -5 -5 -4 3 37 101 101 37 3 -4 -5 -1 19 87 
87 19 -1 -5 -5 -5 -5 -5 -5 -5 -5 -5 -5 -5 -5 -1 19 88 88 20 3 20 80 107 41 4 -4 -5 -5 -5 -5 -5 -5 -5 -5 -5 -5 -5 -5 -5 -5 -5 -5 -5 -5 -3 3 20 50 101 109 79 37 9 0 -4 -5 -5 -5 -5 -5 -4 -2 -2 -2 -1 -1 0 3 13 19 27 57 113 81 20 0 -4 -5 -5 -5 -5 -5 -5 -5 -5 -5 -5 -5 -1 18 85 93 24 0 -5 -5 -5 0 20 79 109 50 9 -3 -5 -5 -1 19 87 
87 19 -1 -5 -5 -5 -5 -5 -5 -5 -5 -5 -5 -5 -5 -2 17 84 94 27 14 50 109 79 18 -1 -5 -5 -5 -5 -5 -5 -5 -5 -5 -5 -5 -5 -5 -5 -5 -5 -5 -5 -2 8 37 79 109 101 50 20 3 -3 -5 -5 -5 -5 -5 -5 -5 -5 -5 -5 -5 -5 -5 -5 -4 -2 -1 2 21 80 109 51 11 0 -4 -5 -5 -5 -5 -5 -5 -5 -5 -5 -4 0 24 93 85 18 -1 -5 -5 -3 9 50 109 79 20 0 -5 -5 -5 -1 19 87 
87 19 -1 -5 -5 -5 -5 -5 -5 -5 -5 -5 -5 -5 -5 -2 13 71 110 50 46 102 101 37 3 -4 -5 -5 -5 -5 -5 -5 -5 -5 -5 -5 -5 -5 -5 -5 -5 -5 -4 0 10 46 100 109 79 37 9 0 -4 -5 -5 -5 -5 -5 -5 -5 -5 -5 -5 -5 -5 -5 -5 -5 -5 -5 -5 -4 4 37 101 106 52 20 4 0 -1 -1 -1 -1 -1 -1 -1 -1 0 7 43 110 73 14 -2 -5 -4 3 37 101 101 37 3 -4 -5 -5 -5 -1 19 87 
87 19 -1 -5 -5 -5 -5 -5 -5 -5 -5 -5 -5 -5 -5 -4 3 41 111 92 95 110 50 9 -3 -5 -5 -5 -5 -5 -5 -5 -5 -5 -5 -5 -5 -5 -5 -5 -5 -3 3 20 50 103 103 50 20 3 -3 -5 -5 -5 -5 -5 -5 -5 -5 -5 -5 -5 -5 -5 -5 -5 -5 -5 -5 -5 -5 -5 -3 9 52 121 127 83 43 24 20 19 19 19 19 19 19 19 21 36 88 120 48 7 -2 -4 0 20 79 109 50 9 -3 -5 -5 -5 -5 -1 19 87 
87 19 -1 -5 -5 -5 -5 -5 -5 -5 -5 -5 -5 -5 -5 -5 0 24 96 121 123 81 20 0 -5 -5 -5 -5 -5 -5 -5 -5 -5 -5 -5 -5 -5 -5 -5 -4 0 9 37 79 109 100 46 10 0 -4 -5 -5 -5 -5 -5 -5 -5 -5 -5 -5 -5 -5 -5 -5 -5 -5 -5 -5 -5 -5 -5 -5 -5 0 27 104 145 123 111 94 88 87 87 87 87 87 87 87 89 101 138 136 62 22 5 1 10 50 109 79 20 0 -5 -5 -5 -5 -5 -1 19 87 
87 19 -1 -5 -5 -5 -5 -5 -5 -5 -5 -5 -5 -5 -5 -5 -1 20 93 147 116 41 4 -4 -5 -5 -5 -5 -5 -5 -5 -5 -5 -5 -5 -5 -5 -5 -3 3 20 50 101 109 79 37 8 -2 -5 -5 -5 -5 -5 -5 -5 -5 -5 -5 -5 -5 -5 -5 -5 -5 -5 -5 -5 -5 -5 -5 -5 -5 -5 0 25 97 103 62 74 84 86 87 87 87 87 87 87 87 87 90 102 120 113 81 42 27 44 102 101 37 3 -4 -5 -5 -5 -5 -5 -1 19 87 
87 19 -1 -5 -5 -5 -5 -5 -5 -5 -5 -5 -5 -5 -5 -5 -2 19 94 154 83 18 -1 -5 -5 -5 -5 -5 -5 -5 -5 -5 -5 -5 -5 -5 -4 0 9 37 79 109 101 50 20 3 -3 -5 -5 -5 -5 -5 -5 -5 -5 -5 -5 -5 -5 -5 -5 -5 -5 -5 -5 -5 -5 -5 -5 -5 -5 -5 -4 3 41 110 75 22 16 18 19 19 19 19 19 19 19 19 19 20 24 43 80 108 110 95 107 117 52 9 -3 -5 -5 -5 -5 -5 -5 -1 19 87 
87 19 -1 -5 -5 -5 -5 -5 -5 -5 -5 -5 -5 -5 -5 -5 -2 19 92 124 43 4 -4 -5 -5 -5 -5 -5 -5 -5 -5 -5 -5 -5 -5 -3 3 20 50 101 109 80 37 9 0 -4 -5 -5 -5 -5 -5 -5 -5 -5 -5 -5 -5 -5 -5 -5 -5 -5 -5 -5 -5 -5 -5 -5 -5 -5 -5 -5 -2 13 71 109 41 5 -1 -2 -2 -1 -1 -1 -1 -1 -1 -1 -1 -1 0 4 18 41 81 117 152 111 33 2 -4 -5 -5 -5 -5 -5 -5 -1 19 87 
87 19 -1 -5 -5 -5 -5 -5 -5 -5 -5 -5 -5 -5 -5 -5 -1 19 88 96 24 0 -5 -5 -5 -5 -5 -5 -5 -5 -5 -5 -4 -2 0 9 37 83 116 108 55 24 7 0 -3 -5 -5 -5 -5 -5 -5 -5 -5 -5 -5 -5 -5 -5 -5 -5 -5 -5 -5 -5 -5 -5 -5 -5 -5 -5 -5 -5 -2 17 84 93 24 0 -4 -5 -5 -5 -5 -5 -5 -5 -5 -5 -5 -5 -5 -4 -1 4 20 52 115 121 52 9 -3 -5 -5 -5 -5 -5 -5 -1 19 87 
87 19 -1 -5 -5 -5 -5 -5 -5 -5 -5 -5 -5 -5 -5 -5 -1 20 88 88 19 -1 -5 -5 -5 -5 -5 -5 -5 -5 -4 -1 3 14 24 52 112 152 138 81 38 24 19 13 3 0 -2 -2 -4 -5 -5 -5 -5 -5 -5 -5 -5 -5 -5 -5 -5 -5 -5 -5 -5 -5 -5 -5 -5 -5 -5 -5 -2 19 87 88 20 -1 -5 -5 -5 -5 -5 -5 -5 -5 -5 -5 -5 -5 -5 -5 -5 -4 0 10 47 105 101 37 3 -4 -5 -5 -5 -5 -5 -1 19 87 
87 19 -1 -5 -5 -5 -5 -5 -5 -5 -5 -5 -5 -5 -5 -5 0 24 93 84 17 -2 -5 -5 -5 -5 -5 -5 -4 -1 4 18 40 73 91 112 119 110 119 115 96 88 84 71 41 24 18 13 3 0 -1 -2 -2 -4 -5 -5 -5 -5 -5 -5 -5 -5 -5 -5 -5 -5 -5 -5 -5 -5 -5 -5 -1 20 88 87 19 -2 -5 -5 -5 -5 -5 -5 -5 -5 -5 -5 -5 -5 -5 -5 -5 -5 -5 -2 10 50 109 79 20 0 -5 -5 -5 -5 -5 -1 19 87 
87 19 -1 -5 -5 -5 -5 -5 -5 -5 -5 -5 -5 -5 -5 -4 3 41 109 71 13 -2 -5 -5 -5 -4 -2 0 4 18 41 79 107 109 91 73 42 29 42 72 84 88 93 109 109 93 85 71 41 24 19 17 13 3 0 -2 -2 -4 -5 -5 -5 -5 -5 -5 -5 -5 -5 -5 -5 -5 -5 -5 0 24 93 84 17 -2 -5 -5 -5 -5 -5 -5 -5 -5 -5 -5 -5 -5 -5 -5 -5 -5 -5 -5 0 20 79 109 50 9 -3 -5 -5 -5 -5 -1 19 87 
87 19 -1 -5 -5 -5 -5 -5 -5 -5 -5 -5 -5 -5 -5 -2 13 71 109 41 3 -4 -5 -4 -1 3 14 23 42 79 107 107 79 42 23 14 4 0 3 13 17 19 24 41 71 85 93 109 109 93 88 84 71 41 24 18 13 3 0 -1 -2 -2 -4 -5 -5 -5 -5 -5 -5 -5 -5 -4 3 41 109 71 13 -2 -5 -5 -5 -5 -5 -5 -5 -5 -5 -5 -5 -5 -5 -5 -5 -5 -5 -5 -4 3 37 101 101 37 3 -4 -5 -5 -5 -1 19 87 
87 19 -1 -5 -5 -5 -5 -5 -5 -5 -5 -5 -5 -5 -5 -2 17 84 93 24 0 -3 -1 4 18 40 73 90 109 107 79 41 18 4 0 -2 -4 -5 -4 -2 -2 -1 0 3 13 18 24 41 71 84 88 93 109 109 93 85 71 41 24 19 17 13 3 0 -2 -2 -4 -5 -5 -5 -5 -2 13 71 109 41 3 -4 -5 -5 -5 -5 -5 -5 -5 -5 -5 -5 -5 -5 -5 -5 -5 -5 -5 -5 -5 -3 9 50 109 79 20 0 -5 -5 -5 -1 19 87 
87 19 -1 -5 -5 -5 -5 -5 -5 -5 -5 -5 -5 -5 -5 -1 19 88 88 21 2 4 18 41 79 107 109 90 73 40 18 4 -1 -4 -5 -5 -5 -5 -5 -5 -5 -5 -5 -4 -2 -2 0 3 13 17 19 24 41 71 85 93 109 109 93 88 84 71 41 24 18 13 3 0 -1 -2 -2 0 18 84 93 24 0 -5 -5 -5 -5 -5 -5 -5 -5 -5 -5 -5 -5 -5 -5 -5 -5 -5 -5 -5 -5 -5 0 20 79 109 50 10 -2 -5 -5 -1 19 87 
87 19 -1 -5 -5 -5 -5 -5 -5 -5 -5 -5 -5 -5 -5 0 24 94 88 28 22 41 79 107 107 79 42 23 14 3 -1 -4 -5 -5 -5 -5 -5 -5 -5 -5 -5 -5 -5 -5 -5 -5 -5 -4 -2 -2 -1 0 3 13 18 24 41 71 84 88 93 109 109 93 85 71 41 24 19 18 13 7 23 89 88 20 -1 -5 -5 -5 -5 -5 -5 -5 -5 -5 -5 -5 -5 -5 -5 -5 -5 -5 -5 -5 -5 -5 -4 3 37 100 103 46 8 -3 -5 -1 19 87 
87 19 -1 -5 -5 -5 -5 -5 -5 -5 -5 -5 -5 -5 -4 4 43 117 96 60 82 108 108 79 41 18 4 0 -2 -4 -5 -5 -5 -5 -5 -5 -5 -5 -5 -5 -5 -5 -5 -5 -5 -5 -5 -5 -5 -5 -5 -5 -4 -2 -2 0 3 13 17 19 24 41 71 85 93 109 109 93 88 84 72 44 47 103 89 19 -1 -5 -5 -5 -5 -5 -5 -5 -5 -5 -5 -5 -5 -5 -5 -5 -5 -5 -5 -5 -5 -5 -5 -3 8 46 103 100 37 3 -3 -1 19 87 
87 19 -1 -5 -5 -5 -5 -5 -5 -5 -5 -5 -5 -5 -1 18 85 150 125 115 108 79 41 18 4 -1 -4 -5 -5 -5 -5 -5 -5 -5 -5 -5 -5 -5 -5 -5 -5 -5 -5 -5 -5 -5 -5 -5 -5 -5 -5 -5 -5 -5 -5 -5 -4 -2 -2 -1 0 3 13 18 24 41 71 84 88 93 109 111 110 141 93 19 -2 -5 -5 -5 -5 -5 -5 -5 -5 -5 -5 -5 -5 -5 -5 -5 -5 -5 -5 -5 -5 -5 -5 -5 -2 10 50 109 79 20 0 -1 19 87 
87 19 -1 -5 -5 -5 -5 -5 -5 -5 -5 -5 -5 -4 4 41 116 129 97 73 40 18 4 -1 -4 -5 -5 -5 -5 -5 -5 -5 -5 -5 -5 -5 -5 -5 -5 -5 -5 -5 -5 -5 -5 -5 -5 -5 -5 -5 -5 -5 -5 -5 -5 -5 -5 -5 -5 -5 -5 -4 -2 -2 0 3 13 17 19 24 41 74 100 140 93 19 -2 -5 -5 -5 -5 -5 -5 -5 -5 -5 -5 -5 -5 -5 -5 -5 -5 -5 -5 -5 -5 -5 -5 -5 -5 0 20 79 109 50 11 1 19 87 
87 19 -1 -5 -5 -5 -5 -5 -5 -5 -5 -5 -5 0 20 80 112 57 25 14 3 -1 -4 -5 -5 -5 -5 -5 -5 -5 -5 -5 -5 -5 -5 -5 -5 -5 -5 -5 -5 -5 -5 -5 -5 -5 -5 -5 -5 -5 -5 -5 -5 -5 -5 -5 -5 -5 -5 -5 -5 -5 -5 -5 -5 -4 -2 -2 -1 0 4 17 41 102 89 19 -2 -5 -5 -5 -5 -5 -5 -5 -5 -5 -5 -5 -5 -5 -5 -5 -5 -5 -5 -5 -5 -5 -5 -5 -5 -4 3 37 100 103 46 12 21 87 
87 19 -1 -5 -5 -5 -5 -5 -5 -5 -5 -5 -3 9 50 109 79 21 1 -2 -4 -5 -5 -5 -5 -5 -5 -5 -5 -5 -5 -5 -5 -5 -5 -5 -5 -5 -5 -5 -5 -5 -5 -5 -5 -5 -5 -5 -5 -5 -5 -5 -5 -5 -5 -5 -5 -5 -5 -5 -5 -5 -5 -5 -5 -5 -5 -5 -5 -5 -4 0 22 89 87 19 -1 -5 -5 -5 -5 -5 -5 -5 -5 -5 -5 -5 -5 -5 -5 -5 -5 -5 -5 -5 -5 -5 -5 -5 -5 -5 -3 8 46 103 101 41 28 88 
87 19 -1 -5 -5 -5 -5 -5 -5 -5 -5 -4 3 37 101 101 37 4 -4 -5 -5 -5 -5 -5 -5 -5 -5 -5 -5 -5 -5 -5 -5 -5 -5 -5 -5 -5 -5 -5 -5 -5 -5 -5 -5 -5 -5 -5 -5 -5 -5 -5 -5 -5 -5 -5 -5 -5 -5 -5 -5 -5 -5 -5 -5 -5 -5 -5 -5 -5 -5 -1 19 87 87 19 -1 -5 -5 -5 -5 -5 -5 -5 -5 -5 -5 -5 -5 -5 -5 -5 -5 -5 -5 -5 -5 -5 -5 -5 -5 -5 -5 -2 10 50 109 82 44 91 
88 19 -1 -5 -5 -5 -5 -5 -5 -5 -5 0 20 79 109 50 9 -3 -5 -5 -5 -5 -5 -5 -5 -5 -5 -5 -5 -5 -5 -5 -5 -5 -5 -5 -5 -5 -5 -5 -5 -5 -5 -5 -5 -5 -5 -5 -5 -5 -5 -5 -5 -5 -5 -5 -5 -5 -5 -5 -5 -5 -5 -5 -5 -5 -5 -5 -5 -5 -5 -1 19 87 88 20 -1 -5 -5 -5 -5 -5 -5 -5 -5 -5 -5 -5 -5 -5 -5 -5 -5 -5 -5 -5 -5 -5 -5 -5 -5 -5 -5 -5 0 20 79 111 73 99 
89 19 -2 -5 -5 -5 -5 -5 -5 -5 -2 10 50 109 79 20 0 -5 -5 -5 -5 -5 -5 -5 -5 -5 -5 -5 -5 -5 -5 -5 -5 -5 -5 -5 -5 -5 -5 -5 -5 -5 -5 -5 -5 -5 -5 -5 -5 -5 -5 -5 -5 -5 -5 -5 -5 -5 -5 -5 -5 -5 -5 -5 -5 -5 -5 -5 -5 -5 -5 -1 19 86 95 26 0 -4 -5 -5 -5 -5 -5 -5 -5 -5 -5 -5 -5 -5 -5 -5 -5 -5 -5 -5 -5 -5 -5 -5 -5 -5 -5 -5 -4 3 37 102 119 120 
92 19 -2 -5 -5 -5 -5 -5 -5 -2 10 47 104 103 41 7 -1 -4 -5 -5 -5 -5 -5 -5 -5 -5 -5 -5 -5 -5 -5 -5 -5 -5 -5 -5 -5 -5 -5 -5 -5 -5 -5 -5 -5 -5 -5 -5 -5 -5 -5 -5 -5 -5 -5 -5 -5 -5 -5 -5 -5 -5 -5 -5 -5 -5 -5 -5 -5 -5 -4 1 22 87 119 53 11 0 -4 -5 -5 -5 -5 -5 -5 -5 -5 -5 -5 -5 -5 -5 -5 -5 -5 -5 -5 -5 -5 -5 -5 -5 -5 -5 -5 -3 9 50 118 147 
94 19 -2 -5 -5 -5 -5 -5 -2 10 47 109 120 69 32 20 13 3 0 -1 -1 -1 -1 -1 -1 -1 -2 -2 -2 -4 -5 -5 -5 -5 -5 -5 -5 -5 -5 -5 -5 -5 -5 -5 -5 -5 -5 -5 -5 -5 -5 -5 -5 -5 -5 -5 -5 -5 -5 -5 -5 -5 -5 -5 -5 -5 -5 -5 -5 -3 3 19 48 106 152 116 52 20 4 -1 -4 -5 -5 -5 -5 -5 -5 -5 -5 -5 -5 -5 -5 -5 -5 -5 -5 -5 -5 -5 -5 -5 -5 -5 -5 -5 0 20 84 154 
92 19 -2 -5 -5 -5 -5 -2 10 47 115 154 127 100 89 84 71 41 24 20 19 19 19 19 19 19 19 17 13 3 0 -1 -1 -1 -1 -1 -1 -2 -2 -2 -4 -5 -5 -5 -5 -5 -5 -5 -5 -5 -5 -5 -5 -5 -5 -5 -5 -5 -5 -5 -5 -5 -5 -5 -5 -5 -5 -4 0 9 37 79 109 115 110 119 111 80 41 18 3 -3 -5 -5 -5 -5 -5 -5 -5 -5 -5 -5 -5 -5 -5 -5 -5 -5 -5 -5 -5 -5 -5 -5 -5 -5 -4 4 43 124 
88 19 -1 -5 -5 -5 -2 10 46 104 120 103 92 88 88 93 109 109 93 88 87 87 87 87 87 87 86 84 71 41 24 20 19 19 19 19 19 19 17 13 3 0 -1 -1 -1 -1 -1 -1 -1 -2 -2 -2 -4 -5 -5 -5 -5 -5 -5 -5 -5 -5 -5 -5 -5 -4 -1 4 20 50 101 109 80 43 30 43 80 108 107 79 37 9 0 -4 -5 -5 -5 -5 -5 -5 -5 -5 -5 -5 -5 -5 -5 -5 -5 -5 -5 -5 -5 -5 -5 -5 -5 0 24 97 
87 19 -1 -5 -5 -2 10 46 102 103 52 26 20 19 20 24 41 71 84 86 87 87 87 87 87 87 88 93 109 109 93 88 87 87 87 87 87 86 84 71 41 24 20 19 19 19 19 19 19 19 17 13 3 0 -1 -1 -1 -1 -1 -1 -2 -2 -2 -4 -3 3 18 41 80 109 101 50 20 5 0 4 18 41 80 109 101 50 20 4 -1 -4 -5 -5 -5 -5 -5 -5 -5 -5 -5 -5 -5 -5 -5 -5 -5 -5 -5 -5 -5 -5 -5 -1 20 89 
87 19 -1 -3 0 10 47 102 102 47 11 0 -1 -1 -1 0 3 13 17 19 19 19 19 19 19 19 20 24 41 71 84 86 87 87 87 87 87 88 93 109 109 93 88 87 87 87 87 87 87 86 84 71 41 24 20 19 19 19 19 19 19 17 13 5 10 37 79 107 107 79 37 9 0 -4 -5 -4 -1 4 20 50 101 109 80 41 18 3 -3 -5 -5 -5 -5 -5 -5 -5 -5 -5 -5 -5 -5 -5 -5 -5 -5 -5 -5 -5 -5 -1 19 87 
87 19 0 4 20 50 103 102 46 10 -2 -5 -5 -5 -5 -5 -4 -2 -2 -2 -1 -1 -1 -1 -1 -1 -1 0 3 13 17 19 19 19 19 19 19 20 24 41 71 84 86 87 87 87 87 87 87 88 93 109 109 93 88 87 87 87 87 87 86 84 73 48 57 102 109 80 41 18 3 -3 -5 -5 -5 -5 -5 -4 0 9 37 79 107 107 79 37 9 0 -4 -5 -5 -5 -5 -5 -5 -5 -5 -5 -5 -5 -5 -5 -5 -5 -5 -5 -5 -1 19 87 
87 22 12 37 79 109 100 46 10 -2 -5 -5 -5 -5 -5 -5 -5 -5 -5 -5 -5 -5 -5 -5 -5 -5 -5 -5 -4 -2 -2 -2 -1 -1 -1 -1 -1 -1 0 3 13 17 19 19 19 19 19 19 19 20 24 41 71 84 86 87 87 87 87 87 88 94 114 128 129 106 51 20 4 -1 -4 -5 -5 -5 -5 -5 -5 -5 -5 -3 3 18 41 80 109 101 50 20 4 -1 -4 -5 -5 -5 -5 -5 -5 -5 -5 -5 -5 -5 -5 -5 -5 -5 -5 -1 19 87 
90 34 49 101 109 79 37 8 -2 -5 -5 -5 -5 -5 -5 -5 -5 -5 -5 -5 -5 -5 -5 -5 -5 -5 -5 -5 -5 -5 -5 -5 -5 -5 -5 -5 -5 -5 -5 -4 -2 -2 -2 -1 -1 -1 -1 -1 -1 -1 0 3 13 17 19 19 19 19 19 19 20 27 58 130 130 53 11 0 -4 -5 -5 -5 -5 -5 -5 -5 -5 -5 -5 -5 -4 -1 4 20 50 101 109 80 41 18 3 -3 -5 -5 -5 -5 -5 -5 -5 -5 -5 -5 -5 -5 -5 -5 -5 -1 19 87 
100 69 105 103 50 20 3 -3 -5 -5 -5 -5 -5 -5 -5 -5 -5 -5 -5 -5 -5 -5 -5 -5 -5 -5 -5 -5 -5 -5 -5 -5 -5 -5 -5 -5 -5 -5 -5 -5 -5 -5 -5 -5 -5 -5 -5 -5 -5 -5 -5 -4 -2 -2 -2 -1 -1 -1 -1 -1 -1 3 27 99 99 26 0 -4 -5 -5 -5 -5 -5 -5 -5 -5 -5 -5 -5 -5 -5 -5 -4 0 9 37 79 107 107 79 37 9 0 -4 -5 -5 -5 -5 -5 -5 -5 -5 -5 -5 -5 -5 -5 -1 19 88 
127 120 104 47 10 0 -4 -5 -5 -5 -5 -5 -5 -5 -5 -5 -5 -5 -5 -5 -5 -5 -5 -5 -5 -5 -5 -5 -5 -5 -5 -5 -5 -5 -5 -5 -5 -5 -5 -5 -5 -5 -5 -5 -5 -5 -5 -5 -5 -5 -5 -5 -5 -5 -5 -5 -5 -5 -5 -5 -5 -1 20 89 89 20 -1 -5 -5 -5 -5 -5 -5 -5 -5 -5 -5 -5 -5 -5 -5 -5 -5 -5 -3 3 18 41 80 109 101 50 20 4 -1 -4 -5 -5 -5 -5 -5 -5 -5 -5 -5 -5 -5 -2 19 90 
154 110 47 10 -2 -5 -5 -5 -5 -5 -5 -5 -5 -5 -5 -5 -5 -5 -5 -5 -5 -5 -5 -5 -5 -5 -5 -5 -5 -5 -5 -5 -5 -5 -5 -5 -5 -5 -5 -5 -5 -5 -5 -5 -5 -5 -5 -5 -5 -5 -5 -5 -5 -5 -5 -5 -5 -5 -5 -5 -5 -1 19 87 87 19 -1 -5 -5 -5 -5 -5 -5 -5 -5 -5 -5 -5 -5 -5 -5 -5 -5 -5 -5 -4 -1 4 20 50 101 109 80 41 18 4 -1 -4 -5 -5 -5 -5 -5 -5 -5 -5 -5 -2 19 94 
127 53 11 -2 -5 -5 -5 -5 -5 -5 -5 -5 -5 -5 -5 -5 -5 -5 -5 -5 -5 -5 -5 -5 -5 -5 -5 -5 -5 -5 -5 -5 -5 -5 -5 -5 -5 -5 -5 -5 -5 -5 -5 -5 -5 -5 -5 -5 -5 -5 -5 -5 -5 -5 -5 -5 -5 -5 -5 -5 -5 -1 19 87 87 19 -1 -5 -5 -5 -5 -5 -5 -5 -5 -5 -5 -5 -5 -5 -5 -5 -5 -5 -5 -5 -5 -4 0 9 37 79 107 107 79 41 18 3 -3 -5 -5 -5 -5 -5 -5 -5 -5 -2 19 92 
97 26 0 -5 -5 -5 -5 -5 -5 -5 -5 -5 -5 -5 -5 -5 -5 -5 -5 -5 -5 -5 -5 -5 -5 -5 -5 -5 -5 -5 -5 -5 -5 -5 -5 -5 -5 -5 -5 -5 -5 -5 -5 -5 -5 -5 -5 -5 -5 -5 -5 -5 -5 -5 -5 -5 -5 -5 -5 -5 -5 -1 19 87 87 19 -1 -5 -5 -5 -5 -5 -5 -5 -5 -5 -5 -5 -5 -5 -5 -5 -5 -5 -5 -5 -5 -5 -5 -3 3 18 41 79 107 107 79 37 9 0 -4 -5 -5 -5 -5 -5 -5 -1 19 88 
89 20 -1 -5 -5 -5 -5 -5 -5 -5 -5 -5 -5 -5 -5 -5 -5 -5 -5 -5 -5 -5 -5 -5 -5 -5 -5 -5 -5 -5 -5 -5 -5 -5 -5 -5 -5 -5 -5 -5 -5 -5 -5 -5 -5 -5 -5 -5 -5 -5 -5 -5 -5 -5 -5 -5 -5 -5 -5 -5 -5 -1 19 87 87 19 -1 -5 -5 -5 -5 -5 -5 -5 -5 -5 -5 -5 -5 -5 -5 -5 -5 -5 -5 -5 -5 -5 -5 -5 -4 -1 4 18 41 80 109 101 50 20 4 0 -2 -2 -4 -5 -5 -1 19 87 
87 19 -1 -5 -5 -5 -5 -5 -5 -5 -5 -5 -5 -5 -5 -5 -5 -5 -5 -5 -5 -5 -5 -5 -5 -5 -5 -5 -5 -5 -5 -5 -5 -5 -5 -5 -5 -5 -5 -5 -5 -5 -5 -5 -5 -5 -5 -5 -5 -5 -5 -5 -5 -5 -5 -5 -5 -5 -5 -5 -5 -1 19 87 87 19 -1 -5 -5 -5 -5 -5 -5 -5 -5 -5 -5 -5 -5 -5 -5 -5 -5 -5 -5 -5 -5 -5 -5 -5 -5 -5 -4 -1 5 21 51 104 113 83 43 24 18 13 3 0 -1 1 20 87 
87 19 -1 -5 -5 -5 -5 -5 -5 -5 -5 -5 -5 -5 -5 -5 -5 -5 -5 -5 -5 -5 -5 -5 -5 -5 -5 -5 -5 -5 -5 -5 -5 -5 -5 -5 -5 -5 -5 -5 -5 -5 -5 -5 -5 -5 -5 -5 -5 -5 -5 -5 -5 -5 -5 -5 -5 -5 -5 -5 -5 -1 19 87 87 19 -1 -5 -5 -5 -5 -5 -5 -5 -5 -5 -5 -5 -5 -5 -5 -5 -5 -5 -5 -5 -5 -5 -5 -5 -5 -5 -5 -4 -1 4 19 60 116 150 125 96 85 72 41 24 19 17 28 90 
89 19 -1 -5 -5 -5 -5 -5 -5 -5 -5 -5 -5 -5 -5 -5 -5 -5 -5 -5 -5 -5 -5 -5 -5 -5 -5 -5 -5 -5 -5 -5 -5 -5 -5 -5 -5 -5 -5 -5 -5 -5 -5 -5 -5 -5 -5 -5 -5 -5 -5 -5 -5 -5 -5 -5 -5 -5 -5 -5 -5 -1 19 87 87 19 -1 -5 -5 -5 -5 -5 -5 -5 -5 -5 -5 -5 -5 -5 -5 -5 -5 -5 -5 -5 -5 -5 -5 -5 -5 -4 -1 3 14 24 45 88 124 124 101 91 94 109 109 93 85 75 63 106 
95 22 1 -1 -1 -1 -2 -2 -2 -4 -5 -5 -5 -5 -5 -5 -5 -5 -5 -5 -5 -5 -5 -5 -5 -5 -5 -5 -5 -5 -5 -5 -5 -5 -5 -5 -5 -5 -5 -5 -5 -5 -5 -5 -5 -5 -5 -5 -5 -5 -5 -5 -5 -5 -5 -5 -5 -5 -5 -5 -5 -1 19 87 87 19 -1 -5 -5 -5 -5 -5 -5 -5 -5 -5 -5 -5 -5 -5 -5 -5 -5 -5 -5 -5 -5 -5 -4 -2 0 4 18 40 73 91 109 108 80 43 24 20 24 41 71 85 93 111 124 145 
108 42 22 19 19 19 19 17 13 3 0 -1 -1 -1 -2 -2 -2 -4 -5 -5 -5 -5 -5 -5 -5 -5 -5 -5 -5 -5 -5 -5 -5 -5 -5 -5 -5 -5 -5 -5 -5 -5 -5 -5 -5 -5 -5 -5 -5 -5 -5 -5 -5 -5 -5 -5 -5 -5 -5 -5 -5 -1 19 87 87 19 -1 -5 -5 -5 -5 -5 -5 -5 -5 -5 -5 -5 -5 -5 -5 -5 -5 -5 -5 -5 -4 -1 3 14 23 42 79 107 109 90 73 40 18 4 0 -1 0 3 13 18 24 43 89 140 
142 104 90 87 87 87 86 84 71 41 24 20 19 19 19 17 13 3 0 -1 -1 -1 -1 -2 -2 -2 -4 -5 -5 -5 -5 -5 -5 -5 -5 -5 -5 -5 -5 -5 -5 -5 -5 -5 -5 -5 -5 -5 -5 -5 -5 -5 -5 -5 -5 -5 -5 -5 -5 -5 -5 -1 19 87 87 19 -1 -5 -5 -5 -5 -5 -5 -5 -5 -5 -5 -5 -5 -5 -5 -5 -5 -4 -2 0 4 18 40 73 90 109 107 79 42 23 14 3 -1 -4 -5 -5 -5 -4 -2 -1 0 7 36 107 
141 104 90 87 87 87 88 93 109 109 93 88 87 87 86 84 71 41 24 20 19 19 19 19 17 13 3 0 -1 -1 -1 -2 -2 -2 -4 -5 -5 -5 -5 -5 -5 -5 -5 -5 -5 -5 -5 -5 -5 -5 -5 -5 -5 -5 -5 -5 -5 -5 -5 -5 -5 -1 19 87 87 19 -1 -5 -5 -5 -5 -5 -5 -5 -5 -5 -5 -5 -5 -5 -5 -4 -1 3 14 23 42 79 107 109 90 73 40 18 4 0 -2 -4 -5 -5 -5 -5 -5 -5 -5 -5 -4 0 22 95 
102 42 22 19 19 19 20 24 41 71 84 86 87 87 88 93 109 109 93 88 87 87 87 86 84 71 41 24 20 19 19 19 17 13 3 0 -1 -1 -1 -1 -2 -2 -2 -4 -5 -5 -5 -5 -5 -5 -5 -5 -5 -5 -5 -5 -5 -5 -5 -5 -5 -1 19 87 87 19 -1 -5 -5 -5 -5 -5 -5 -5 -5 -5 -5 -5 -5 -4 -1 4 18 40 73 90 109 107 79 42 23 14 3 -1 -4 -5 -5 -5 -5 -5 -5 -5 -5 -5 -5 -5 -5 -1 19 89 
89 22 1 -1 -1 -1 -1 0 3 13 17 19 19 19 20 24 41 71 84 86 87 87 87 88 93 109 109 93 88 87 87 86 84 71 41 24 20 19 19 19 19 17 13 3 0 -1 -1 -1 -2 -2 -2 -4 -5 -5 -5 -5 -5 -5 -5 -5 -5 -1 19 87 87 19 -1 -5 -5 -5 -5 -5 -5 -5 -5 -5 -4 -2 0 4 18 41 79 107 109 90 73 40 18 4 0 -2 -4 -5 -5 -5 -5 -5 -5 -5 -5 -5 -5 -5 -5 -5 -5 -1 19 87 
87 19 -1 -5 -5 -5 -5 -5 -4 -2 -2 -2 -1 -1 -1 0 3 13 17 19 19 19 19 20 24 41 71 84 86 87 87 88 93 109 109 93 88 87 87 87 86 84 71 41 24 20 19 19 19 17 13 3 0 -1 -1 -1 -1 -2 -2 -2 -4 -1 19 87 87 19 -1 -5 -5 -5 -5 -5 -5 -5 -4 -1 3 14 23 42 79 107 107 79 42 23 14 3 -1 -4 -5 -5 -5 -5 -5 -5 -5 -5 -5 -5 -5 -5 -5 -5 -5 -5 -5 -1 19 87 
87 19 -1 -5 -5 -5 -5 -5 -5 -5 -5 -5 -5 -5 -5 -5 -4 -2 -2 -2 -1 -1 -1 -1 0 3 13 17 19 19 19 20 24 41 71 84 86 87 87 87 88 93 109 109 93 88 87 87 86 84 71 41 24 20 19 19 19 19 17 13 4 3 23 90 89 20 -1 -5 -5 -5 -5 -4 -2 0 4 18 40 73 90 109 107 79 41 18 4 0 -2 -4 -5 -5 -5 -5 -5 -5 -5 -5 -5 -5 -5 -5 -5 -5 -5 -5 -5 -5 -5 -1 19 87 
87 19 -1 -5 -5 -5 -5 -5 -5 -5 -5 -5 -5 -5 -5 -5 -5 -5 -5 -5 -5 -5 -5 -5 -5 -4 -2 -2 -2 -1 -1 -1 0 3 13 17 19 19 19 19 20 24 41 71 84 86 87 87 88 93 109 109 93 88 87 87 87 86 84 71 41 28 43 103 99 26 0 -4 -5 -4 -1 3 14 23 42 79 107 109 90 73 40 18 4 -1 -4 -5 -5 -5 -5 -5 -5 -5 -5 -5 -5 -5 -5 -5 -5 -5 -5 -5 -5 -5 -5 -5 -5 -1 19 87 
87 19 -1 -5 -5 -5 -5 -5 -5 -5 -5 -5 -5 -5 -5 -5 -5 -5 -5 -5 -5 -5 -5 -5 -5 -5 -5 -5 -5 -5 -5 -5 -5 -4 -2 -2 -2 -1 -1 -1 -1 0 3 13 17 19 19 19 20 24 41 71 84 86 87 87 87 88 93 109 109 96 103 141 130 53 12 0 0 4 18 40 73 90 109 107 79 42 23 14 3 -1 -4 -5 -5 -5 -5 -5 -5 -5 -5 -5 -5 -5 -5 -5 -5 -5 -5 -5 -5 -5 -5 -5 -5 -5 -5 -1 19 87 
87 19 -1 -5 -5 -5 -5 -5 -5 -5 -5 -5 -5 -5 -5 -5 -5 -5 -5 -5 -5 -5 -5 -5 -5 -5 -5 -5 -5 -5 -5 -5 -5 -5 -5 -5 -5 -5 -5 -5 -5 -5 -4 -2 -2 -2 -1 -1 -1 0 3 13 17 19 19 19 19 20 24 41 71 84 90 102 122 106 53 27 25 42 79 107 109 90 73 40 18 4 0 -2 -4 -5 -5 -5 -5 -5 -5 -5 -5 -5 -5 -5 -5 -5 -5 -5 -5 -5 -5 -5 -5 -5 -5 -5 -5 -5 -5 -1 19 87 
87 19 -1 -5 -5 -5 -5 -5 -5 -5 -5 -5 -5 -5 -5 -5 -5 -5 -5 -5 -5 -5 -5 -5 -5 -5 -5 -5 -5 -5 -5 -5 -5 -5 -5 -5 -5 -5 -5 -5 -5 -5 -5 -5 -5 -5 -5 -5 -5 -5 -4 -2 -2 -2 -1 -1 -1 -1 0 3 13 18 20 26 52 106 122 104 97 110 107 79 42 23 14 3 -1 -4 -5 -5 -5 -5 -5 -5 -5 -5 -5 -5 -5 -5 -5 -5 -5 -5 -5 -5 -5 -5 -5 -5 -5 -5 -5 -5 -5 -5 -5 -1 19 87 
87 19 -1 -5 -5 -5 -5 -5 -5 -5 -5 -5 -5 -5 -5 -5 -5 -5 -5 -5 -5 -5 -5 -5 -5 -5 -5 -5 -5 -5 -5 -5 -5 -5 -5 -5 -5 -5 -5 -5 -5 -5 -5 -5 -5 -5 -5 -5 -5 -5 -5 -5 -5 -5 -5 -5 -5 -5 -5 -4 -2 -2 -1 0 12 53 130 140 99 74 40 18 4 0 -2 -4 -5 -5 -5 -5 -5 -5 -5 -5 -5 -5 -5 -5 -5 -5 -5 -5 -5 -5 -5 -5 -5 -5 -5 -5 -5 -5 -5 -5 -5 -5 -5 -1 19 87 
87 19 -1 -5 -5 -5 -5 -5 -5 -5 -5 -5 -5 -5 -5 -5 -5 -5 -5 -5 -5 -5 -5 -5 -5 -5 -5 -5 -5 -5 -5 -5 -5 -5 -5 -5 -5 -5 -5 -5 -5 -5 -5 -5 -5 -5 -5 -5 -5 -5 -5 -5 -5 -5 -5 -5 -5 -5 -5 -5 -5 -5 -5 -4 0 26 99 103 41 17 4 -1 -4 -5 -5 -5 -5 -5 -5 -5 -5 -5 -5 -5 -5 -5 -5 -5 -5 -5 -5 -5 -5 -5 -5 -5 -5 -5 -5 -5 -5 -5 -5 -5 -5 -5 -5 -1 19 87 
87 19 -1 -5 -5 -5 -5 -5 -5 -5 -5 -5 -5 -5 -5 -5 -5 -5 -5 -5 -5 -5 -5 -5 -5 -5 -5 -5 -5 -5 -5 -5 -5 -5 -5 -5 -5 -5 -5 -5 -5 -5 -5 -5 -5 -5 -5 -5 -5 -5 -5 -5 -5 -5 -5 -5 -5 -5 -5 -5 -5 -5 -5 -4 -1 20 89 90 23 1 -3 -4 -5 -5 -5 -5 -5 -5 -5 -5 -5 -5 -5 -5 -5 -5 -5 -5 -5 -5 -5 -5 -5 -5 -5 -5 -5 -5 -5 -5 -5 -5 -5 -5 -5 -5 -5 -1 19 87 
90 22 1 -1 -1 -1 -1 -1 -1 -1 -1 -1 -1 -1 -1 -1 -1 -1 -1 -1 -1 -1 -1 -1 -1 -1 -1 -1 -1 -1 -1 -1 -2 -2 -2 -2 -1 -1 -1 -1 -1 -1 -1 -1 -1 -1 -1 -1 -2 -2 -2 -2 -1 -1 -1 -1 -1 -1 -1 -1 -1 -1 -1 -1 1 23 90 90 23 2 -1 -1 -1 -1 -1 -1 -1 -1 -1 -1 -1 -1 -1 -1 -1 -1 -1 -1 -1 -1 -1 -2 -2 -2 -2 -1 -1 -1 -1 -1 -1 -1 -1 -2 -2 -1 -1 1 22 90 
104 42 22 19 19 19 19 19 19 19 19 19 19 19 19 19 19 19 19 19 19 19 19 19 19 19 19 19 19 19 19 19 19 19 19 19 19 19 19 19 19 19 19 19 19 19 19 19 19 19 19 19 19 19 19 19 19 19 19 19 19 19 19 19 22 42 104 104 42 22 19 19 19 19 19 19 19 19 19 19 19 19 19 19 19 19 19 19 19 19 19 19 19 19 19 19 19 19 19 19 19 19 19 19 19 19 19 22 42 104 
147 104 90 87 87 87 87 87 87 87 87 87 87 87 87 87 87 87 87 87 87 87 87 87 87 87 87 87 87 87 87 88 90 94 92 88 87 87 87 87 87 87 87 87 87 87 87 87 89 93 93 89 87 87 87 87 87 87 87 87 87 87 87 87 89 102 140 140 102 89 87 87 87 87 87 87 87 87 87 87 87 87 87 87 87 87 87 87 87 87 88 90 94 92 88 87 87 87 87 87 87 87 88 90 94 92 89 90 104 147 
