P2
110 110
255
148 126 108 99 95 95 94 94 94 94 94 94 94 94 94 94 94 94 94 94 94 94 94 94 94 94 94 95 96 100 108 122 133 132 120 107 99 96 95 94 94 94 94 94 95 95 98 105 119 134 133 118 105 98 95 95 94 94 94 94 94 94 94 95 96 98 100 100 98 96 95 94 94 94 94 94 94 94 94 94 94 94 94 94 94 94 95 95 98 104 117 131 134 122 109 100 96 95 95 95 97 102 114 129 135 125 114 113 128 149 
126 95 69 57 53 52 52 52 52 52 52 52 52 52 52 52 52 52 52 52 52 52 52 52 52 52 52 53 57 66 85 112 129 117 90 69 58 54 52 52 52 52 52 52 52 54 59 72 99 128 126 95 70 58 53 52 52 52 52 52 52 52 52 51 51 50 49 49 50 51 51 52 52 52 52 52 52 52 52 52 52 52 52 52 52 52 52 54 59 73 99 126 124 97 73 59 54 53 52 53 57 67 91 121 128 104 81 78 98 127 
108 69 39 25 21 19 19 19 19 19 19 19 19 19 19 19 19 19 19 19 19 19 19 19 19 19 20 22 29 45 73 106 112 84 52 32 23 20 19 19 19 19 19 19 20 22 29 46 81 117 109 69 39 25 21 19 19 19 19 19 19 19 19 19 18 18 18 18 18 18 19 19 19 19 19 19 19 19 19 19 19 19 19 19 19 19 20 23 31 51 87 114 99 63 37 25 21 19 19 21 26 40 70 107 109 75 48 47 72 108 
99 57 25 11 6 5 5 5 5 5 5 5 5 5 5 5 5 5 5 5 5 5 5 5 5 5 7 11 23 48 83 106 90 54 26 13 7 5 5 5 5 5 5 5 6 9 18 41 81 117 101 56 24 11 6 5 5 5 5 5 5 5 5 4 4 4 4 4 4 4 4 5 5 5 5 5 5 5 5 5 5 5 5 5 5 5 6 10 22 49 89 106 76 39 17 9 6 5 5 7 13 31 66 103 95 55 30 31 59 99 
96 53 21 6 2 0 0 0 0 0 0 0 0 0 0 0 0 0 0 0 0 0 0 0 0 1 5 13 33 66 98 98 65 31 12 4 1 0 0 0 0 0 0 0 2 7 21 50 95 125 100 51 19 6 1 0 0 0 0 0 0 0 0 0 0 0 0 0 0 0 0 0 0 0 0 0 0 0 0 0 0 0 0 0 0 1 2 9 25 59 97 96 58 25 8 2 1 0 1 3 12 33 72 103 83 43 22 25 55 96 
95 52 19 5 0 0 0 -1 -1 -1 -1 -1 -1 -1 -1 -1 -1 -1 -1 -1 -1 -1 -1 0 0 2 8 23 53 89 102 77 41 17 5 1 0 0 -1 -1 -1 0 0 0 3 12 32 69 113 132 101 51 19 5 0 0 0 -1 -1 -1 -1 -1 -1 -1 -1 -1 -1 -1 -1 -1 -1 -1 -1 -1 -1 -1 -1 -1 -1 -1 -1 -1 -1 -1 0 0 3 12 35 74 102 83 42 16 4 0 0 0 0 3 14 40 82 102 71 33 17 23 53 95 
94 52 19 5 0 0 -1 -1 -1 -1 -1 -1 -1 -1 -1 -1 -1 -1 -1 -1 -1 -1 -1 0 0 5 17 41 77 102 88 52 23 8 1 0 -1 -1 -1 -1 -1 -1 0 1 6 20 49 91 126 134 103 54 20 5 0 0 -1 -1 -1 -1 -1 -1 -1 -1 -1 -1 -1 -1 -1 -1 -1 -1 -1 -1 -1 -1 -1 -1 -1 -1 -1 -1 -1 -1 0 0 5 19 50 89 100 67 30 10 2 0 -1 0 0 5 18 49 91 98 60 26 13 21 52 94 
94 52 19 5 0 -1 -1 -1 -1 -1 -1 -1 -1 -1 -1 -1 -1 -1 -1 -1 -1 -1 -1 0 3 12 31 65 97 97 65 31 12 3 0 -1 -1 -1 -1 -1 -1 -1 0 3 13 34 70 108 124 127 106 61 24 7 1 0 -1 -1 -1 -1 -1 -1 -1 -1 -1 -1 -1 -1 -1 -1 -1 -1 -1 -1 -1 -1 -1 -1 -1 -1 -1 -1 -1 -1 0 2 10 30 67 100 89 50 19 5 0 0 -1 0 1 7 24 59 98 91 50 20 11 21 52 94 
94 52 19 5 0 -1 -1 -1 -1 -1 -1 -1 -1 -1 -1 -1 -1 -1 -1 -1 -1 -1 0 1 8 23 52 88 102 77 41 17 5 0 0 -1 -1 -1 -1 -1 -1 0 1 8 24 54 92 110 107 111 108 70 31 10 1 0 -1 -1 -1 -1 -1 -1 -1 -1 -1 -1 -1 -1 -1 -1 -1 -1 -1 -1 -1 -1 -1 -1 -1 -1 -1 -1 -1 -1 0 4 15 42 83 102 73 35 12 2 0 -1 -1 0 2 10 31 71 102 82 40 15 9 20 52 94 
94 52 19 5 0 -1 -1 -1 -1 -1 -1 -1 -1 -1 -1 -1 -1 -1 -1 -1 -1 0 0 5 17 41 77 102 88 52 23 8 1 0 -1 -1 -1 -1 -1 -1 0 0 5 16 41 77 104 97 82 92 107 80 38 13 2 0 -1 -1 -1 -1 -1 -1 -1 -1 -1 -1 -1 -1 -1 -1 -1 -1 -1 -1 -1 -1 -1 -1 -1 -1 -1 -1 -1 0 1 7 23 57 95 95 57 23 7 1 0 -1 -1 0 3 14 40 82 102 71 32 12 8 20 52 94 
95 52 19 5 0 -1 -1 -1 -1 -1 -1 -1 -1 -1 -1 -1 -1 -1 -1 -1 -1 0 3 12 31 65 97 97 65 31 12 3 0 -1 -1 -1 -1 -1 -1 -1 0 2 10 30 63 97 99 73 57 75 103 88 45 16 3 0 -1 -1 -1 -1 -1 -1 -1 -1 -1 -1 -1 -1 -1 -1 -1 -1 -1 -1 -1 -1 -1 -1 -1 -1 -1 -1 -1 0 2 12 35 73 102 83 42 15 4 0 -1 -1 -1 0 5 18 49 91 98 59 24 9 7 19 52 94 
96 54 20 5 0 0 -1 -1 -1 -1 -1 -1 -1 -1 -1 -1 -1 -1 -1 -1 0 1 8 23 52 88 102 77 41 17 5 0 0 -1 -1 -1 -1 -1 -1 0 0 6 20 48 86 102 79 49 40 63 98 92 49 18 4 0 -1 -1 -1 -1 -1 -1 -1 -1 -1 -1 -1 -1 -1 -1 -1 -1 -1 -1 -1 -1 -1 -1 -1 -1 -1 -1 0 0 5 19 50 89 100 67 30 10 2 0 -1 -1 0 1 7 24 59 98 91 49 19 6 6 19 52 94 
99 58 23 7 1 0 -1 -1 -1 -1 -1 -1 -1 -1 -1 -1 -1 -1 -1 0 0 5 17 41 77 102 88 52 23 8 1 0 -1 -1 -1 -1 -1 -1 -1 0 3 12 33 69 100 91 56 31 29 56 95 94 52 19 5 0 -1 -1 -1 -1 -1 -1 -1 -1 -1 -1 -1 -1 -1 -1 -1 -1 -1 -1 -1 -1 -1 -1 -1 -1 -1 -1 0 2 10 30 67 100 89 50 19 5 0 0 -1 -1 0 2 10 31 71 102 82 40 14 5 6 19 51 95 
107 68 31 11 3 0 -1 -1 -1 -1 -1 -1 -1 -1 -1 -1 -1 -1 -1 0 3 12 31 65 97 97 65 31 12 3 0 -1 -1 -1 -1 -1 -1 -1 0 1 6 21 50 89 101 71 36 19 23 51 92 97 56 21 6 0 0 -1 -1 -1 -1 -1 -1 -1 -1 -1 -1 -1 -1 -1 -1 -1 -1 -1 -1 -1 -1 -1 -1 -1 -1 -1 0 4 15 42 83 102 73 35 12 2 0 -1 -1 -1 0 3 14 40 82 102 71 31 10 3 5 18 50 96 
119 88 47 21 8 2 0 -1 -1 -1 -1 -1 -1 -1 -1 -1 -1 -1 0 1 8 23 52 88 102 77 41 17 5 0 0 -1 -1 -1 -1 -1 -1 -1 0 3 13 35 71 101 89 51 22 12 18 45 88 99 62 25 7 1 0 -1 -1 -1 -1 -1 -1 -1 -1 -1 -1 -1 -1 -1 -1 -1 -1 -1 -1 -1 -1 -1 -1 -1 -1 0 1 7 23 57 95 95 57 23 7 1 0 -1 -1 -1 0 5 18 49 91 98 59 24 7 2 5 18 50 98 
131 114 75 40 18 6 1 0 -1 -1 -1 -1 -1 -1 -1 -1 -1 0 0 5 17 41 77 102 88 52 23 8 1 0 -1 -1 -1 -1 -1 -1 -1 0 1 8 24 54 91 100 69 33 13 7 14 39 81 102 71 31 10 1 0 -1 -1 -1 -1 -1 -1 -1 -1 -1 -1 -1 -1 -1 -1 -1 -1 -1 -1 -1 -1 -1 -1 -1 -1 0 2 12 35 73 102 83 42 15 4 0 -1 -1 -1 0 1 7 24 59 98 91 49 18 5 2 5 17 49 100 
134 129 104 69 36 15 5 0 0 -1 -1 -1 -1 -1 -1 -1 -1 0 3 12 31 65 97 97 65 31 12 3 0 -1 -1 -1 -1 -1 -1 -1 0 0 5 16 41 77 102 86 48 20 7 4 10 31 71 102 80 38 13 3 0 -1 -1 -1 -1 -1 -1 -1 -1 -1 -1 -1 -1 -1 -1 -1 -1 -1 -1 -1 -1 -1 -1 -1 0 0 5 19 50 89 100 67 30 10 2 0 -1 -1 -1 0 2 10 31 71 102 82 40 14 3 1 4 18 49 100 
125 121 114 96 62 31 12 3 0 0 -1 -1 -1 -1 -1 -1 0 1 8 23 52 88 102 77 41 17 5 0 0 -1 -1 -1 -1 -1 -1 -1 0 2 10 30 63 97 97 63 30 11 3 2 7 25 62 99 88 45 16 3 0 -1 -1 -1 -1 -1 -1 -1 -1 -1 -1 -1 -1 -1 -1 -1 -1 -1 -1 -1 -1 -1 -1 -1 0 2 10 30 67 100 89 50 19 5 0 0 -1 -1 -1 0 3 14 40 82 102 71 31 10 2 1 5 18 50 98 
112 98 99 106 88 53 25 9 2 0 -1 -1 -1 -1 -1 0 0 5 17 41 77 102 88 52 23 8 1 0 -1 -1 -1 -1 -1 -1 -1 0 0 6 20 48 86 102 77 41 16 5 1 1 6 21 56 97 92 49 18 4 0 -1 -1 -1 -1 -1 -1 -1 -1 -1 -1 -1 -1 -1 -1 -1 -1 -1 -1 -1 -1 -1 -1 -1 0 4 15 42 83 102 73 35 12 2 0 -1 -1 -1 -1 0 5 18 49 91 98 59 24 7 1 0 5 18 51 96 
104 79 74 94 103 80 46 21 8 2 0 -1 -1 -1 -1 0 3 12 31 65 97 97 65 31 12 3 0 -1 -1 -1 -1 -1 -1 -1 -1 0 3 12 33 69 100 91 54 24 8 1 0 0 5 19 52 94 94 52 19 5 0 -1 -1 -1 -1 -1 -1 -1 -1 -1 -1 -1 -1 -1 -1 -1 -1 -1 -1 -1 -1 -1 -1 0 1 7 23 57 95 95 57 23 7 1 0 -1 -1 -1 0 1 7 24 59 98 91 49 18 5 0 0 5 19 51 95 
99 66 52 69 96 100 75 43 20 8 2 0 0 -1 0 1 8 23 52 88 102 77 41 17 5 0 0 -1 -1 -1 -1 -1 -1 -1 0 1 6 21 50 89 101 71 35 13 3 0 0 0 4 18 49 92 97 56 21 6 0 0 -1 -1 -1 -1 -1 -1 -1 -1 -1 -1 -1 -1 -1 -1 -1 -1 -1 -1 -1 -1 -1 0 2 12 35 73 102 83 42 15 4 0 -1 -1 -1 -1 0 2 10 31 71 102 82 40 14 3 0 0 5 19 52 95 
96 58 36 44 71 98 99 73 42 20 8 2 0 0 0 5 17 41 77 102 88 52 23 8 1 0 -1 -1 -1 -1 -1 -1 -1 -1 0 3 13 35 71 101 89 50 21 6 1 0 0 0 3 16 45 88 99 62 25 7 1 0 -1 -1 -1 -1 -1 -1 -1 -1 -1 -1 -1 -1 -1 -1 -1 -1 -1 -1 -1 -1 0 0 5 19 50 89 100 67 30 10 2 0 -1 -1 -1 -1 0 3 14 40 82 102 71 31 10 2 0 0 5 19 52 94 
95 55 27 25 42 73 98 98 73 42 20 8 2 1 3 12 31 65 97 97 65 31 12 3 0 -1 -1 -1 -1 -1 -1 -1 -1 0 1 8 24 54 91 100 69 33 12 3 0 -1 -1 0 3 13 38 80 102 71 31 10 1 0 -1 -1 -1 -1 -1 -1 -1 -1 -1 -1 -1 -1 -1 -1 -1 -1 -1 -1 -1 -1 0 2 10 30 67 100 89 50 19 5 0 0 -1 -1 -1 -1 0 5 18 49 91 98 59 24 7 1 0 0 5 19 52 94 
95 53 22 14 21 42 73 98 98 73 42 20 9 5 9 24 52 88 102 77 41 17 5 0 0 -1 -1 -1 -1 -1 -1 -1 0 0 5 16 41 77 102 86 48 20 6 0 0 -1 -1 0 1 10 31 71 102 81 39 13 3 0 -1 -1 -1 -1 -1 -1 -1 -1 -1 -1 -1 -1 -1 -1 -1 -1 -1 -1 -1 -1 0 4 15 42 83 102 73 35 12 2 0 -1 -1 -1 -1 0 1 7 24 59 98 91 49 18 5 0 0 0 5 19 52 94 
94 52 20 8 9 20 42 73 98 98 73 43 22 15 21 42 77 102 88 52 23 8 1 0 -1 -1 -1 -1 -1 -1 -1 -1 0 2 10 30 63 97 97 63 30 10 2 0 -1 -1 -1 0 1 7 25 62 99 88 45 16 4 0 -1 -1 -1 -1 -1 -1 -1 -1 -1 -1 -1 -1 -1 -1 -1 -1 -1 -1 -1 0 1 7 23 57 95 95 57 23 7 1 0 -1 -1 -1 -1 0 2 10 31 71 102 82 40 14 3 0 0 0 5 19 52 94 
94 52 19 6 4 8 20 42 73 98 99 74 47 34 41 68 98 97 64 31 12 3 0 -1 -1 -1 -1 -1 -1 -1 -1 0 0 6 20 48 86 102 77 41 16 5 0 0 -1 -1 -1 0 0 5 21 55 96 93 50 18 4 0 -1 -1 -1 -1 -1 -1 -1 -1 -1 -1 -1 -1 -1 -1 -1 -1 -1 -1 -1 0 2 12 35 73 102 83 42 15 4 0 -1 -1 -1 -1 -1 0 3 14 40 82 102 71 31 10 2 0 0 0 5 19 52 94 
94 52 19 5 1 2 8 20 42 73 99 101 82 67 73 96 103 77 41 17 5 0 0 -1 -1 -1 -1 -1 -1 -1 -1 0 3 12 33 69 100 91 54 24 8 1 0 -1 -1 -1 -1 -1 0 4 18 50 93 96 55 21 5 0 0 -1 -1 -1 -1 -1 -1 -1 -1 -1 -1 -1 -1 -1 -1 -1 -1 -1 0 0 5 19 50 89 100 67 30 10 2 0 -1 -1 -1 -1 -1 0 5 18 49 91 98 59 24 7 1 0 0 0 5 19 52 94 
94 52 19 5 0 0 2 8 20 42 73 101 111 108 110 112 89 52 23 8 1 0 -1 -1 -1 -1 -1 -1 -1 -1 0 1 6 21 50 89 101 71 35 13 3 0 -1 -1 -1 -1 -1 -1 0 4 16 45 88 99 62 25 7 1 0 -1 -1 -1 -1 -1 -1 -1 -1 -1 -1 -1 -1 -1 -1 -1 -1 -1 0 2 10 30 67 100 89 50 19 5 0 0 -1 -1 -1 -1 0 1 7 24 59 98 91 49 18 5 0 0 0 0 5 19 52 94 
94 52 19 5 0 0 0 2 8 20 43 76 111 132 132 106 65 31 12 3 0 -1 -1 -1 -1 -1 -1 -1 -1 -1 0 3 13 35 71 101 89 50 21 6 1 0 -1 -1 -1 -1 -1 -1 0 3 13 39 81 102 71 31 10 1 0 -1 -1 -1 -1 -1 -1 -1 -1 -1 -1 -1 -1 -1 -1 -1 -1 -1 0 4 15 42 83 102 73 35 12 2 0 -1 -1 -1 -1 -1 0 2 10 31 71 102 82 40 14 3 0 -1 -1 0 5 19 52 94 
94 52 19 5 0 0 0 0 2 8 22 48 88 126 127 87 44 17 5 0 0 -1 -1 -1 -1 -1 -1 -1 -1 0 1 8 24 54 91 100 69 33 12 3 0 -1 -1 -1 -1 -1 -1 -1 0 1 10 31 71 102 80 38 13 3 0 -1 -1 -1 -1 -1 -1 -1 -1 -1 -1 -1 -1 -1 -1 -1 -1 0 1 7 23 57 95 95 57 23 7 1 0 -1 -1 -1 -1 -1 0 3 14 40 82 102 71 31 10 2 0 -1 -1 0 5 19 52 94 
94 52 19 5 0 -1 -1 0 0 3 11 29 66 109 113 72 32 11 2 0 -1 -1 -1 -1 -1 -1 -1 -1 0 0 5 16 41 77 102 86 48 20 6 0 0 -1 -1 -1 -1 -1 -1 -1 0 1 7 25 62 99 88 45 16 3 0 -1 -1 -1 -1 -1 -1 -1 -1 -1 -1 -1 -1 -1 -1 -1 -1 0 2 12 35 73 102 83 42 15 4 0 -1 -1 -1 -1 -1 -1 0 5 18 49 91 98 59 24 7 1 0 -1 -1 0 5 19 52 94 
94 52 19 5 0 -1 -1 -1 0 0 6 20 51 94 106 68 29 9 1 0 -1 -1 -1 -1 -1 -1 -1 -1 0 2 10 30 63 97 97 63 30 10 2 0 -1 -1 -1 -1 -1 -1 -1 -1 0 0 6 21 56 97 92 49 18 4 0 -1 -1 -1 -1 -1 -1 -1 -1 -1 -1 -1 -1 -1 -1 -1 0 0 5 19 50 89 100 67 30 10 2 0 -1 -1 -1 -1 -1 0 1 7 24 59 98 91 49 18 5 0 -1 -1 -1 0 5 19 52 94 
94 52 19 5 0 -1 -1 -1 -1 0 3 14 40 82 104 73 33 10 2 0 -1 -1 -1 -1 -1 -1 -1 0 0 6 20 48 86 102 77 41 16 5 0 0 -1 -1 -1 -1 -1 -1 -1 -1 -1 0 5 19 52 94 94 52 19 5 0 -1 -1 -1 -1 -1 -1 -1 -1 -1 -1 -1 -1 -1 -1 -1 0 2 10 30 67 100 89 50 19 5 0 0 -1 -1 -1 -1 -1 0 2 10 31 71 102 82 40 14 3 0 -1 -1 -1 0 5 19 52 94 
94 52 19 5 0 -1 -1 -1 -1 0 2 10 32 71 102 81 39 13 3 0 -1 -1 -1 -1 -1 -1 -1 0 3 12 33 69 100 91 54 24 8 1 0 -1 -1 -1 -1 -1 -1 -1 -1 -1 -1 0 4 18 49 92 97 56 21 6 0 0 -1 -1 -1 -1 -1 -1 -1 -1 -1 -1 -1 -1 -1 -1 0 4 15 42 83 102 73 35 12 2 0 -1 -1 -1 -1 -1 -1 0 3 14 40 82 102 71 31 10 2 0 -1 -1 -1 0 5 19 52 95 
94 51 19 4 0 -1 -1 -1 -1 0 1 7 25 61 99 89 46 17 4 0 -1 -1 -1 -1 -1 -1 0 1 6 21 50 89 101 71 35 13 3 0 -1 -1 -1 -1 -1 -1 -1 -1 -1 -1 -1 0 3 16 45 88 99 62 25 7 1 0 -1 -1 -1 -1 -1 -1 -1 -1 -1 -1 -1 -1 -1 0 1 7 23 57 95 95 57 23 7 1 0 -1 -1 -1 -1 -1 -1 0 5 18 49 91 98 59 24 7 1 0 -1 -1 -1 0 5 20 53 96 
95 51 18 4 0 -1 -1 -1 -1 -1 0 5 20 53 95 95 53 20 5 0 -1 -1 -1 -1 -1 -1 0 3 13 35 71 101 89 50 21 6 1 0 -1 -1 -1 -1 -1 -1 -1 -1 -1 -1 -1 0 3 13 38 80 102 71 31 10 1 0 -1 -1 -1 -1 -1 -1 -1 -1 -1 -1 -1 -1 -1 0 2 12 35 73 102 83 42 15 4 0 -1 -1 -1 -1 -1 -1 0 1 7 24 59 98 91 49 18 5 0 -1 -1 -1 0 0 6 22 56 98 
95 50 18 4 0 -1 -1 -1 -1 -1 0 4 17 46 89 99 61 25 7 1 0 -1 -1 -1 -1 0 1 8 24 54 91 100 69 33 12 3 0 -1 -1 -1 -1 -1 -1 -1 -1 -1 -1 -1 -1 0 1 10 31 71 102 80 38 13 3 0 -1 -1 -1 -1 -1 -1 -1 -1 -1 -1 -1 -1 0 0 5 19 50 89 100 67 30 10 2 0 -1 -1 -1 -1 -1 -1 0 2 10 31 71 102 82 40 14 3 0 -1 -1 -1 0 1 8 26 63 104 
97 49 18 4 0 -1 -1 -1 -1 -1 0 3 13 39 81 102 71 31 10 1 0 -1 -1 -1 0 0 5 16 41 77 102 86 48 20 6 0 0 -1 -1 -1 -1 -1 -1 -1 -1 -1 -1 -1 -1 0 1 7 25 62 99 88 45 16 3 0 -1 -1 -1 -1 -1 -1 -1 -1 -1 -1 -1 -1 0 2 10 30 67 100 89 50 19 5 0 0 -1 -1 -1 -1 -1 -1 0 3 14 40 82 102 71 31 10 2 0 -1 -1 -1 0 3 13 36 76 113 
98 49 17 4 0 -1 -1 -1 -1 -1 0 1 10 31 71 102 81 39 13 3 0 -1 -1 -1 0 2 10 30 63 97 97 63 30 10 2 0 -1 -1 -1 -1 -1 -1 -1 -1 -1 -1 -1 -1 -1 0 0 6 21 56 97 92 49 18 4 0 -1 -1 -1 -1 -1 -1 -1 -1 -1 -1 -1 -1 0 4 15 42 83 102 73 35 12 2 0 -1 -1 -1 -1 -1 -1 -1 0 5 18 49 91 98 59 24 7 1 0 -1 -1 0 1 8 23 53 97 125 
99 49 17 4 0 -1 -1 -1 -1 -1 0 1 7 25 61 99 89 46 17 4 0 -1 -1 0 0 6 20 48 86 102 77 41 16 5 0 0 -1 -1 -1 -1 -1 -1 -1 -1 -1 -1 -1 -1 -1 -1 0 5 19 52 94 94 52 19 5 0 -1 -1 -1 -1 -1 -1 -1 -1 -1 -1 -1 0 1 7 23 57 95 95 57 23 7 1 0 -1 -1 -1 -1 -1 -1 0 1 7 24 59 98 91 49 18 5 0 -1 -1 0 0 5 16 40 77 118 133 
99 49 18 4 0 -1 -1 -1 -1 -1 -1 0 5 20 53 94 94 53 20 5 0 0 -1 0 3 12 33 69 100 91 54 24 8 1 0 -1 -1 -1 -1 -1 -1 -1 -1 -1 -1 -1 -1 -1 -1 -1 0 4 18 49 92 97 56 22 6 0 0 -1 -1 -1 -1 -1 -1 -1 -1 -1 -1 0 2 12 35 73 102 83 42 15 4 0 -1 -1 -1 -1 -1 -1 -1 0 2 10 31 71 102 82 40 14 3 0 -1 -1 0 3 11 30 64 102 129 132 
98 50 18 4 0 -1 -1 -1 -1 -1 -1 0 4 17 46 89 99 61 25 7 1 0 0 1 6 21 50 89 101 71 35 13 3 0 -1 -1 -1 -1 -1 -1 -1 -1 -1 -1 -1 -1 -1 -1 -1 -1 0 3 16 45 88 100 62 26 8 1 0 -1 -1 -1 -1 -1 -1 -1 -1 -1 0 0 5 19 50 89 100 67 30 10 2 0 -1 -1 -1 -1 -1 -1 -1 0 3 14 40 82 102 71 31 10 2 0 -1 0 1 8 23 52 89 114 122 124 
96 51 18 4 0 -1 -1 -1 -1 -1 -1 0 3 13 39 81 102 71 31 10 2 0 0 3 13 35 71 101 89 50 21 6 1 0 -1 -1 -1 -1 -1 -1 -1 -1 -1 -1 -1 -1 -1 -1 -1 -1 0 3 13 39 81 103 72 33 11 3 0 0 0 0 0 -1 -1 -1 -1 -1 0 2 10 30 67 100 89 50 19 5 0 0 -1 -1 -1 -1 -1 -1 -1 0 5 18 49 91 98 59 24 7 1 0 0 0 5 17 41 77 105 106 104 114 
95 51 19 4 0 -1 -1 -1 -1 -1 -1 0 1 10 31 71 102 81 39 13 3 0 2 8 24 54 91 100 69 33 12 3 0 -1 -1 -1 -1 -1 -1 -1 -1 -1 -1 -1 -1 -1 -1 -1 -1 -1 0 2 11 33 73 105 85 44 19 9 5 3 2 1 0 0 0 0 0 0 0 4 16 43 83 102 73 35 12 2 0 -1 -1 -1 -1 -1 -1 -1 0 1 7 24 59 98 91 49 18 5 0 0 0 3 12 31 64 97 102 85 85 105 
95 52 19 5 0 -1 -1 -1 -1 -1 -1 0 1 7 25 61 99 89 46 17 4 2 5 16 41 77 102 86 48 20 6 0 0 -1 -1 -1 -1 -1 -1 -1 -1 -1 -1 -1 -1 -1 -1 -1 -1 0 0 3 11 31 70 108 101 63 35 23 17 13 10 7 6 5 4 3 3 2 3 9 25 58 96 95 57 23 7 1 0 -1 -1 -1 -1 -1 -1 -1 0 2 10 31 71 102 82 40 14 3 0 0 1 8 23 52 88 103 83 62 70 100 
95 52 19 5 0 -1 -1 -1 -1 -1 -1 -1 0 5 20 53 94 94 53 20 6 4 11 30 63 97 97 63 30 10 2 0 -1 -1 -1 -1 -1 -1 -1 -1 -1 -1 -1 -1 -1 -1 -1 -1 0 0 2 6 17 39 77 118 121 92 67 54 46 39 31 25 21 19 18 16 13 11 11 19 40 76 103 83 42 15 4 0 -1 -1 -1 -1 -1 -1 -1 -1 0 3 14 40 82 102 71 31 10 2 0 0 5 17 41 77 102 90 59 44 61 97 
94 52 19 5 0 -1 -1 -1 -1 -1 -1 -1 0 4 17 46 89 99 61 25 9 8 20 48 86 102 77 41 16 5 0 0 -1 -1 -1 -1 -1 -1 -1 -1 -1 -1 -1 -1 -1 -1 -1 0 0 3 8 17 34 61 98 130 136 120 104 95 89 81 71 62 56 52 49 45 39 33 31 40 64 97 103 68 30 10 2 0 -1 -1 -1 -1 -1 -1 -1 -1 0 5 18 49 91 98 59 24 7 1 0 3 12 31 65 97 97 66 38 32 57 96 
94 52 19 5 0 -1 -1 -1 -1 -1 -1 -1 0 3 13 39 81 102 71 33 14 15 34 69 100 91 54 24 8 1 0 -1 -1 -1 -1 -1 -1 -1 -1 -1 -1 -1 -1 -1 -1 0 0 1 5 12 23 41 66 93 113 119 113 104 99 98 100 102 102 99 97 94 92 88 81 73 70 78 99 116 96 53 21 6 0 0 -1 -1 -1 -1 -1 -1 -1 0 1 7 24 59 98 91 49 18 5 1 2 8 23 52 88 102 77 43 23 26 54 95 
94 52 19 5 0 -1 -1 -1 -1 -1 -1 -1 0 1 10 31 71 102 82 42 21 25 52 89 101 71 35 13 3 0 -1 -1 -1 -1 -1 -1 -1 -1 -1 -1 -1 -1 -1 -1 0 0 3 8 17 31 52 77 98 104 94 78 64 56 54 57 62 71 80 88 92 94 97 100 102 104 107 116 131 128 89 44 16 4 0 0 -1 -1 -1 -1 -1 -1 -1 0 2 10 31 71 102 82 40 14 4 2 5 17 41 77 102 88 53 25 14 22 53 94 
94 52 19 5 0 -1 -1 -1 -1 -1 -1 -1 0 1 7 25 61 99 90 52 31 41 73 101 89 50 21 6 1 0 -1 -1 -1 -1 -1 -1 -1 -1 -1 -1 -1 -1 0 0 1 5 11 23 41 64 88 102 97 78 55 37 26 21 20 22 25 31 38 45 49 52 56 62 72 83 95 111 129 128 90 46 18 5 1 0 0 -1 -1 -1 -1 -1 0 0 3 14 40 82 102 71 31 10 3 4 12 31 65 97 97 65 32 13 9 20 52 94 
94 52 19 5 0 -1 -1 -1 -1 -1 -1 -1 -1 0 5 20 53 95 97 63 46 61 93 100 69 33 12 3 0 -1 -1 -1 -1 -1 -1 -1 -1 -1 -1 -1 -1 0 0 2 7 15 30 52 77 97 102 88 65 41 24 13 8 6 5 6 7 10 13 16 18 19 21 25 32 41 52 69 96 115 100 60 28 12 4 1 0 0 0 0 0 0 0 2 6 20 51 92 98 60 25 8 4 8 23 52 88 102 77 41 17 7 7 20 52 94 
94 52 19 5 0 -1 -1 -1 -1 -1 -1 -1 -1 0 4 16 46 89 104 80 68 86 104 86 48 20 6 0 0 -1 -1 -1 -1 -1 -1 -1 -1 -1 -1 -1 0 0 3 9 19 38 63 88 101 97 77 52 31 17 8 3 1 0 0 0 1 1 3 3 4 5 6 7 10 14 21 34 60 93 107 84 50 26 14 8 6 5 5 5 5 5 5 7 13 30 64 101 93 51 20 7 7 17 41 77 102 88 52 23 8 3 6 19 52 94 
94 52 19 5 0 -1 -1 -1 -1 -1 -1 -1 -1 0 3 13 38 81 110 101 96 106 98 63 30 10 2 0 -1 -1 -1 -1 -1 -1 -1 -1 -1 -1 0 0 1 5 12 24 45 71 95 102 89 65 41 23 12 5 1 0 0 0 -1 0 0 0 0 0 0 0 0 1 2 4 7 15 34 67 102 109 84 56 37 27 22 20 19 19 19 19 20 22 30 49 84 111 90 47 19 10 14 32 65 97 97 65 31 12 3 1 5 19 52 94 
94 52 19 5 0 -1 -1 -1 -1 -1 -1 -1 -1 0 1 9 30 70 111 122 119 109 77 40 16 5 0 0 -1 -1 -1 -1 -1 -1 -1 -1 -1 0 0 3 8 17 32 53 79 99 99 79 53 32 17 8 3 0 0 -1 -1 -1 -1 -1 -1 -1 -1 -1 -1 -1 0 0 0 0 1 6 18 45 86 121 121 99 78 64 57 54 52 52 52 52 53 56 64 83 112 124 93 51 26 19 28 54 89 102 77 41 17 5 1 0 5 19 52 94 
94 52 19 5 0 -1 -1 -1 -1 -1 -1 -1 -1 0 1 7 24 60 108 134 125 93 53 23 8 1 0 -1 -1 -1 -1 -1 -1 -1 -1 0 0 1 5 11 23 41 65 89 102 95 71 45 24 12 5 1 0 0 -1 -1 -1 -1 -1 -1 -1 -1 -1 -1 -1 -1 -1 -1 -1 0 0 2 11 32 72 119 137 125 111 102 98 95 95 94 94 94 95 97 103 116 133 134 107 70 46 39 52 82 104 89 52 23 8 1 0 0 5 19 52 94 
94 52 19 5 0 -1 -1 -1 -1 -1 -1 -1 -1 0 0 5 20 54 104 133 114 70 33 12 3 0 -1 -1 -1 -1 -1 -1 -1 0 0 0 3 7 16 31 52 77 97 102 88 63 38 20 9 3 0 0 -1 -1 -1 -1 -1 -1 -1 -1 -1 -1 -1 -1 -1 -1 -1 -1 -1 -1 0 1 9 29 68 113 123 106 94 92 93 94 94 94 94 94 94 95 97 103 112 120 116 100 83 77 89 108 102 67 32 12 3 0 0 0 5 19 52 94 
94 52 19 5 0 -1 -1 -1 -1 -1 -1 -1 -1 -1 0 4 18 51 100 124 94 49 20 6 1 0 -1 -1 -1 -1 -1 0 0 0 2 5 11 22 39 64 88 103 98 78 53 31 16 7 2 0 0 -1 -1 -1 -1 -1 -1 -1 -1 -1 -1 -1 -1 -1 -1 -1 -1 -1 -1 -1 0 2 10 32 73 109 99 69 53 49 50 51 51 52 52 52 52 52 53 56 63 77 93 105 110 116 125 123 90 48 20 6 1 0 0 0 5 19 52 94 
94 52 19 5 0 -1 -1 -1 -1 -1 -1 -1 -1 -1 0 4 18 51 98 113 75 34 12 3 0 -1 -1 -1 -1 0 0 0 2 4 9 16 29 50 76 100 107 95 70 46 26 14 6 2 0 0 0 -1 -1 -1 -1 -1 -1 -1 -1 -1 -1 -1 -1 -1 -1 -1 -1 -1 -1 -1 0 3 13 39 81 105 78 43 25 19 18 19 19 19 19 19 19 19 19 21 26 35 51 71 94 117 135 126 84 41 15 4 0 0 0 0 5 19 52 94 
94 52 19 5 0 -1 -1 -1 -1 -1 -1 -1 -1 -1 0 5 19 52 97 103 62 25 8 1 0 -1 -1 0 0 0 2 5 10 16 26 41 63 91 115 120 102 75 50 32 19 12 7 4 2 1 0 0 0 0 0 -1 -1 -1 -1 -1 -1 -1 -1 -1 -1 -1 -1 -1 -1 -1 0 4 16 45 88 100 64 29 12 6 5 5 4 5 5 5 5 5 5 6 8 12 21 34 54 82 112 121 90 48 20 6 1 0 0 0 5 19 52 94 
94 52 19 5 0 -1 -1 -1 -1 -1 -1 -1 -1 0 0 6 21 56 98 95 53 20 5 0 0 0 0 1 3 6 11 19 30 43 60 81 104 125 136 126 103 79 60 46 34 25 19 14 10 7 5 4 3 1 1 0 0 0 0 -1 -1 -1 -1 -1 -1 -1 -1 -1 -1 -1 0 4 18 50 93 96 56 22 7 2 0 0 0 0 0 0 0 0 0 0 1 3 6 13 24 45 77 105 102 67 32 12 3 0 0 0 5 19 52 94 
94 52 19 5 0 -1 -1 -1 -1 -1 -1 -1 -1 0 1 7 25 62 100 89 46 17 4 1 1 2 4 7 12 21 33 49 67 84 98 108 114 118 121 120 112 103 93 83 71 60 50 40 32 25 20 16 13 10 7 5 3 2 1 0 0 0 0 0 -1 -1 -1 -1 -1 0 0 6 21 55 96 93 50 19 5 0 0 -1 -1 -1 -1 -1 -1 -1 -1 0 0 0 1 3 9 22 46 80 103 89 52 23 8 1 0 0 5 19 52 94 
94 52 19 5 0 -1 -1 -1 -1 -1 -1 -1 -1 0 2 10 31 71 102 81 39 14 5 4 6 10 15 24 35 51 70 88 100 102 97 87 76 72 75 83 90 95 100 102 102 98 91 82 71 61 53 46 39 31 24 18 14 10 7 5 4 3 1 1 0 0 0 0 0 0 1 7 25 62 99 88 45 16 4 0 -1 -1 -1 -1 -1 -1 -1 -1 -1 -1 -1 -1 0 0 3 9 25 53 89 102 77 41 17 5 1 0 5 19 52 94 
94 52 19 5 0 -1 -1 -1 -1 -1 -1 -1 -1 0 3 13 39 81 102 72 34 14 9 12 19 30 42 57 74 90 101 101 90 74 58 44 34 30 32 39 46 53 61 71 82 91 98 102 102 99 94 89 81 70 59 49 40 32 25 20 16 13 10 7 5 3 2 1 0 1 3 11 32 71 102 81 38 13 3 0 -1 -1 -1 -1 -1 -1 -1 -1 -1 -1 -1 -1 -1 0 0 3 12 32 65 97 97 65 32 12 4 1 5 19 52 94 
94 52 19 5 0 -1 -1 -1 -1 -1 -1 -1 -1 0 4 16 46 89 101 66 33 21 23 33 49 66 83 95 102 100 88 70 51 35 24 16 11 10 10 13 16 20 25 32 40 49 59 70 81 89 94 99 102 102 98 91 82 71 61 53 46 39 31 24 18 14 10 7 5 5 7 16 41 82 102 71 31 10 1 0 -1 -1 -1 -1 -1 -1 -1 -1 -1 -1 -1 -1 -1 -1 0 0 5 17 41 77 102 89 53 24 9 4 6 19 52 94 
94 52 19 5 0 -1 -1 -1 -1 -1 -1 -1 0 0 5 20 53 96 102 68 44 41 52 70 88 100 102 95 83 66 49 33 21 12 7 4 2 2 2 3 4 5 7 10 14 18 24 31 39 46 53 61 71 82 91 98 102 102 99 94 89 81 70 59 49 40 32 25 21 18 19 27 53 93 101 62 25 7 1 0 -1 -1 -1 -1 -1 -1 -1 -1 -1 -1 -1 -1 -1 -1 -1 0 1 8 23 52 88 102 79 45 20 8 8 20 52 94 
94 52 19 5 0 -1 -1 -1 -1 -1 -1 -1 0 1 8 25 62 105 110 84 70 76 90 101 101 90 74 57 42 30 19 11 6 3 1 0 0 0 0 0 0 0 1 2 3 5 7 10 13 16 20 25 32 40 49 59 70 81 89 94 99 102 102 98 91 82 71 61 54 48 45 50 73 105 99 56 21 6 0 0 -1 -1 -1 -1 -1 -1 -1 -1 -1 -1 -1 -1 -1 -1 -1 -1 0 3 11 30 63 95 99 71 38 17 11 21 52 94 
94 52 19 5 0 -1 -1 -1 -1 -1 -1 -1 0 3 12 34 76 119 126 110 103 104 101 89 70 51 35 24 15 10 5 2 0 0 0 -1 -1 -1 -1 -1 -1 -1 0 0 0 0 1 1 3 4 5 7 10 14 18 24 31 39 46 53 61 71 82 91 98 102 102 99 95 90 86 88 103 121 100 52 19 5 0 -1 -1 -1 -1 -1 -1 -1 -1 -1 -1 -1 -1 -1 -1 -1 -1 -1 0 0 5 15 38 71 99 95 63 33 18 24 53 95 
94 52 19 5 0 -1 -1 -1 -1 -1 -1 0 1 6 20 50 95 131 133 119 104 88 69 50 33 21 12 7 4 2 0 0 0 -1 -1 -1 -1 -1 -1 -1 -1 -1 -1 -1 -1 -1 0 0 0 0 0 1 2 3 5 7 10 13 16 20 25 32 40 49 59 70 81 89 95 100 106 115 129 134 101 50 18 4 0 -1 -1 -1 -1 -1 -1 -1 -1 -1 -1 -1 -1 -1 -1 -1 -1 -1 -1 0 1 7 19 44 79 102 88 55 31 30 56 95 
95 52 19 5 0 -1 -1 -1 -1 -1 -1 0 3 12 34 71 110 123 107 86 66 48 32 20 12 6 3 1 0 0 0 -1 -1 -1 -1 -1 -1 -1 -1 -1 -1 -1 -1 -1 -1 -1 -1 -1 -1 -1 -1 0 0 0 0 1 1 3 4 5 7 10 14 18 24 31 39 46 54 62 75 94 119 131 100 50 18 4 0 -1 -1 -1 -1 -1 -1 -1 -1 -1 -1 -1 -1 -1 -1 -1 -1 -1 -1 -1 0 2 9 24 53 88 102 81 51 41 60 97 
95 52 19 5 0 -1 -1 -1 -1 -1 0 1 8 24 54 92 109 92 64 44 29 19 11 6 2 0 0 0 -1 -1 -1 -1 -1 -1 -1 -1 -1 -1 -1 -1 -1 -1 -1 -1 -1 -1 -1 -1 -1 -1 -1 -1 -1 -1 -1 0 0 0 0 0 1 2 3 5 7 10 13 17 20 26 37 57 89 116 98 50 18 4 0 -1 -1 -1 -1 -1 -1 -1 -1 -1 -1 -1 -1 -1 -1 -1 -1 -1 -1 -1 -1 0 3 12 31 63 95 101 78 59 69 100 
95 51 19 4 0 -1 -1 -1 -1 0 0 5 17 41 77 103 92 58 32 18 10 5 2 0 0 0 -1 -1 -1 -1 -1 -1 -1 -1 -1 -1 -1 -1 -1 -1 -1 -1 -1 -1 -1 -1 -1 -1 -1 -1 -1 -1 -1 -1 -1 -1 -1 -1 -1 -1 0 0 0 0 1 1 3 4 6 9 16 33 67 104 96 52 19 5 0 -1 -1 -1 -1 -1 -1 -1 -1 -1 -1 -1 -1 -1 -1 -1 -1 -1 -1 -1 -1 0 0 5 16 38 71 100 100 83 84 105 
96 51 18 4 0 -1 -1 -1 0 0 3 12 31 65 97 98 66 33 15 6 2 0 0 0 -1 -1 -1 -1 -1 -1 -1 -1 -1 -1 -1 -1 -1 -1 -1 -1 -1 -1 -1 -1 -1 -1 -1 -1 -1 -1 -1 -1 -1 -1 -1 -1 -1 -1 -1 -1 -1 -1 -1 -1 0 0 0 0 0 2 8 23 56 98 96 54 20 5 0 0 -1 -1 -1 -1 -1 -1 -1 -1 -1 -1 -1 -1 -1 -1 -1 -1 -1 -1 -1 -1 0 1 7 19 44 79 105 106 103 114 
98 50 18 4 0 -1 -1 -1 0 2 9 24 53 89 103 78 42 18 6 2 0 0 0 0 -1 -1 -1 -1 -1 -1 -1 -1 -1 -1 -1 -1 -1 -1 -1 -1 -1 -1 -1 -1 -1 -1 -1 -1 -1 -1 -1 -1 -1 -1 -1 -1 -1 -1 -1 -1 -1 -1 -1 -1 -1 -1 -1 0 0 1 6 21 53 96 99 58 24 7 1 0 -1 -1 -1 -1 -1 -1 -1 -1 -1 -1 -1 -1 -1 -1 -1 -1 -1 -1 -1 -1 -1 0 2 9 24 53 89 114 122 124 
99 49 18 4 0 0 0 0 2 7 20 45 80 105 93 58 28 11 4 1 0 0 0 0 0 0 0 0 0 0 0 0 -1 -1 -1 -1 -1 -1 -1 -1 -1 -1 -1 -1 -1 -1 -1 -1 -1 -1 -1 -1 -1 -1 -1 -1 -1 -1 -1 -1 -1 -1 -1 -1 -1 -1 -1 0 0 2 8 23 55 99 107 69 32 13 4 1 0 0 -1 -1 -1 -1 -1 -1 -1 -1 -1 -1 -1 -1 -1 -1 -1 -1 -1 -1 -1 0 0 3 12 31 64 102 129 132 
99 49 17 4 0 0 0 2 7 19 41 74 107 111 82 49 27 15 9 6 5 5 5 5 4 4 4 3 3 1 1 0 0 0 0 0 0 0 0 0 0 0 0 -1 -1 -1 -1 -1 -1 -1 -1 -1 -1 -1 -1 -1 -1 -1 -1 -1 -1 -1 -1 -1 -1 -1 0 0 2 6 15 33 66 109 122 91 52 27 14 6 2 0 0 -1 -1 -1 -1 -1 -1 -1 -1 -1 -1 -1 -1 -1 -1 -1 -1 -1 -1 -1 0 0 5 16 40 77 118 133 
98 49 17 4 0 0 2 7 19 40 72 108 128 116 88 63 45 34 26 22 20 19 19 19 19 18 17 16 13 10 7 6 5 5 5 4 4 4 3 3 1 1 0 0 0 0 0 0 0 0 0 0 0 0 0 -1 -1 -1 -1 -1 -1 -1 -1 -1 0 0 1 3 8 17 32 56 89 123 136 117 85 56 35 20 10 5 1 0 0 -1 -1 -1 -1 -1 -1 -1 -1 -1 -1 -1 -1 -1 -1 -1 -1 -1 -1 0 1 8 23 53 97 125 
97 50 18 5 1 2 8 19 41 72 106 130 135 124 109 95 83 72 62 56 53 52 52 52 51 51 49 45 38 31 25 22 20 19 19 19 18 17 16 13 10 7 6 5 5 5 5 4 4 4 3 3 1 1 0 0 0 0 0 0 0 0 0 0 0 2 6 13 24 41 65 90 110 120 122 119 110 92 70 48 30 16 8 3 1 0 0 -1 -1 -1 -1 -1 -1 -1 -1 -1 -1 -1 -1 -1 -1 -1 -1 -1 0 3 13 36 76 113 
96 51 19 6 4 8 20 42 72 101 115 113 107 102 100 101 103 102 100 97 95 95 94 94 94 93 91 87 80 71 62 56 53 52 52 51 51 49 45 38 31 25 22 20 19 19 19 19 18 17 16 13 10 7 6 5 5 5 4 4 4 4 3 4 6 11 20 34 54 77 97 103 95 83 76 81 93 102 101 86 63 41 24 13 6 2 0 0 -1 -1 -1 -1 -1 -1 -1 -1 -1 -1 -1 -1 -1 -1 -1 -1 0 1 8 26 63 104 
95 52 21 10 11 22 43 73 99 103 87 68 57 54 56 62 71 80 87 91 93 94 94 94 95 95 97 99 102 102 99 97 95 95 94 94 93 91 87 80 71 62 56 53 52 52 52 51 51 49 45 38 31 25 22 20 19 19 19 18 17 16 14 15 20 31 49 70 91 102 97 78 56 40 34 39 52 72 91 102 97 77 54 34 20 10 5 1 0 0 -1 -1 -1 -1 -1 -1 -1 -1 -1 -1 -1 -1 -1 -1 0 0 6 22 56 98 
95 55 26 18 27 46 75 99 99 76 49 31 23 20 22 25 31 38 45 49 51 51 52 52 52 53 56 62 71 80 87 91 93 94 94 95 95 97 99 102 102 99 97 95 95 94 94 94 93 91 87 80 71 62 56 53 52 52 51 51 49 46 42 41 49 67 87 101 100 86 64 41 24 15 12 14 22 35 54 77 97 102 91 70 48 30 16 8 3 1 0 0 -1 -1 -1 -1 -1 -1 -1 -1 -1 -1 -1 -1 -1 0 5 20 53 96 
97 60 37 38 55 80 100 98 73 43 22 11 7 5 6 7 10 13 16 17 18 19 19 19 19 20 22 25 31 38 45 49 51 51 52 52 53 56 62 71 80 87 91 93 94 94 94 95 95 97 99 102 102 99 97 95 95 94 94 93 92 90 87 87 94 104 105 92 71 49 30 16 8 4 2 3 7 13 24 41 63 86 100 100 86 63 41 24 13 6 2 0 0 -1 -1 -1 -1 -1 -1 -1 -1 -1 -1 -1 -1 0 5 19 52 95 
102 72 58 69 90 102 95 69 41 20 8 3 1 0 0 1 1 3 3 4 4 4 5 5 5 5 6 7 10 13 16 17 18 19 19 19 20 22 25 31 38 45 49 51 51 52 52 52 53 56 62 71 80 87 91 93 94 94 95 96 99 106 117 128 128 112 84 56 35 20 11 5 1 0 0 0 1 3 8 16 30 48 70 91 102 97 77 54 34 20 10 5 1 0 0 -1 -1 -1 -1 -1 -1 -1 -1 -1 -1 0 5 19 51 95 
111 94 90 100 103 88 63 37 18 7 2 0 0 0 0 0 0 0 0 0 0 0 0 0 0 0 0 1 1 3 3 4 4 4 5 5 5 6 7 10 13 16 17 18 19 19 19 19 20 22 25 31 38 45 49 51 51 52 53 55 61 76 103 131 128 91 53 28 14 6 2 0 0 -1 -1 -1 0 0 1 5 10 20 34 54 77 97 102 91 70 48 30 16 8 3 1 0 0 -1 -1 -1 -1 -1 -1 -1 -1 0 4 18 51 96 
124 119 113 103 80 53 31 15 6 1 0 0 -1 -1 -1 -1 -1 -1 -1 -1 -1 -1 -1 -1 -1 -1 0 0 0 0 0 0 0 0 0 0 0 0 1 1 3 3 4 4 4 5 5 5 5 6 7 10 13 16 17 18 19 19 20 21 27 43 76 115 112 70 32 13 5 1 0 0 -1 -1 -1 -1 -1 -1 0 0 2 6 13 24 41 63 86 100 100 86 63 41 24 13 6 3 0 0 0 -1 -1 -1 -1 -1 -1 0 4 18 50 98 
134 129 106 75 46 25 12 5 1 0 -1 -1 -1 -1 -1 -1 -1 -1 -1 -1 -1 -1 -1 -1 -1 -1 -1 -1 -1 -1 -1 -1 -1 -1 -1 -1 -1 0 0 0 0 0 0 0 0 0 0 0 0 0 1 1 3 3 4 4 4 5 5 7 12 27 61 102 101 58 23 7 1 0 -1 -1 -1 -1 -1 -1 -1 -1 -1 0 0 1 3 8 16 30 48 70 91 102 97 77 54 35 21 12 6 2 0 0 -1 -1 -1 -1 -1 0 4 18 49 100 
131 114 76 43 21 9 3 0 0 -1 -1 -1 -1 -1 -1 -1 -1 -1 -1 -1 -1 -1 -1 -1 -1 -1 -1 -1 -1 -1 -1 -1 -1 -1 -1 -1 -1 -1 -1 -1 -1 -1 -1 -1 -1 -1 -1 -1 -1 0 0 0 0 0 0 0 0 0 0 2 7 21 54 97 96 54 20 5 0 0 -1 -1 -1 -1 -1 -1 -1 -1 -1 -1 -1 0 0 1 5 10 20 34 54 77 97 102 91 71 50 33 20 10 5 1 0 0 0 -1 0 0 4 17 49 100 
119 88 48 22 8 2 0 0 -1 -1 -1 -1 -1 -1 -1 -1 -1 -1 -1 -1 -1 -1 -1 -1 -1 -1 -1 -1 -1 -1 -1 -1 -1 -1 -1 -1 -1 -1 -1 -1 -1 -1 -1 -1 -1 -1 -1 -1 -1 -1 -1 -1 -1 -1 -1 -1 -1 0 0 0 5 19 52 95 95 52 19 5 0 -1 -1 -1 -1 -1 -1 -1 -1 -1 -1 -1 -1 -1 -1 0 0 2 6 13 24 41 63 86 100 101 89 69 48 29 16 8 3 1 0 0 0 0 5 18 50 98 
107 68 31 11 3 0 0 -1 -1 -1 -1 -1 -1 -1 -1 -1 -1 -1 -1 -1 -1 -1 -1 -1 -1 -1 -1 -1 -1 -1 -1 -1 -1 -1 -1 -1 -1 -1 -1 -1 -1 -1 -1 -1 -1 -1 -1 -1 -1 -1 -1 -1 -1 -1 -1 -1 -1 -1 0 0 5 19 52 94 94 52 19 5 0 -1 -1 -1 -1 -1 -1 -1 -1 -1 -1 -1 -1 -1 -1 -1 0 0 1 3 8 16 30 48 69 89 101 100 86 63 40 23 13 7 5 3 2 2 6 19 51 97 
100 58 23 7 1 0 -1 -1 -1 -1 -1 -1 -1 -1 -1 -1 -1 -1 -1 -1 -1 -1 -1 -1 -1 -1 -1 -1 -1 -1 -1 -1 -1 -1 -1 -1 -1 -1 -1 -1 -1 -1 -1 -1 -1 -1 -1 -1 -1 -1 -1 -1 -1 -1 -1 -1 -1 -1 -1 0 5 19 52 94 94 52 19 5 0 -1 -1 -1 -1 -1 -1 -1 -1 -1 -1 -1 -1 -1 -1 -1 -1 -1 0 0 1 5 11 20 33 51 73 93 105 99 78 53 35 25 18 14 10 9 11 24 55 97 
97 54 20 6 0 0 0 -1 -1 -1 -1 -1 -1 -1 -1 -1 -1 -1 -1 -1 -1 -1 -1 -1 -1 -1 -1 -1 -1 -1 -1 -1 -1 -1 -1 -1 -1 -1 -1 -1 -1 -1 -1 -1 -1 -1 -1 -1 -1 -1 -1 -1 -1 -1 -1 -1 -1 -1 -1 0 5 19 52 94 94 52 19 5 0 -1 -1 -1 -1 -1 -1 -1 -1 -1 -1 -1 -1 -1 -1 -1 -1 -1 -1 0 0 1 3 7 14 24 41 64 91 113 115 97 76 60 49 40 32 26 25 35 63 100 
98 53 20 6 2 0 0 0 0 0 0 0 -1 -1 -1 -1 -1 -1 -1 -1 -1 -1 -1 -1 -1 -1 -1 -1 -1 -1 -1 -1 -1 -1 -1 -1 -1 -1 -1 -1 -1 -1 -1 -1 -1 -1 -1 -1 -1 -1 -1 -1 -1 -1 -1 -1 -1 -1 -1 0 5 19 52 94 94 52 19 5 0 -1 -1 -1 -1 -1 -1 -1 -1 -1 -1 -1 -1 -1 -1 -1 -1 -1 -1 0 0 0 2 5 10 18 31 50 79 112 133 131 117 103 92 82 71 61 56 61 82 110 
103 56 24 11 6 5 4 3 3 1 1 0 0 0 0 0 0 0 0 0 -1 -1 -1 -1 -1 -1 -1 -1 -1 -1 -1 -1 -1 -1 -1 -1 -1 -1 -1 -1 -1 -1 -1 -1 -1 -1 -1 -1 -1 -1 -1 -1 -1 -1 -1 -1 -1 -1 -1 0 5 19 52 94 94 52 19 5 0 -1 -1 -1 -1 -1 -1 -1 -1 -1 -1 -1 -1 -1 -1 -1 -1 0 0 0 2 4 7 13 21 32 48 67 92 115 127 122 111 104 102 103 102 99 96 99 112 126 
113 68 38 25 20 19 17 16 13 10 7 6 5 4 4 3 3 1 1 0 0 0 0 0 0 0 0 0 0 -1 -1 -1 -1 -1 -1 -1 -1 -1 -1 -1 -1 -1 -1 -1 -1 -1 -1 -1 -1 -1 -1 -1 -1 -1 -1 -1 -1 -1 -1 0 5 19 52 94 94 52 19 5 0 -1 -1 -1 -1 -1 -1 -1 -1 -1 -1 -1 -1 -1 0 0 0 1 2 5 10 15 24 35 50 67 84 98 106 105 93 76 64 60 64 72 82 92 101 114 130 140 
128 95 69 57 53 51 49 45 38 31 25 22 20 19 17 16 13 10 7 6 5 5 4 4 3 3 1 1 0 0 0 0 0 0 0 0 0 -1 -1 -1 -1 -1 -1 -1 -1 -1 -1 -1 -1 -1 -1 -1 -1 -1 -1 -1 -1 -1 -1 0 5 19 52 94 94 52 19 5 0 -1 -1 -1 -1 -1 -1 -1 -1 -1 -1 -1 0 0 0 2 4 7 12 19 30 42 57 73 89 100 102 96 83 66 49 35 26 24 26 32 40 51 64 83 112 137 
141 125 108 99 95 94 92 87 80 71 62 56 53 51 49 45 38 31 25 22 20 19 18 17 16 13 10 7 6 5 4 4 3 3 1 1 0 0 0 0 0 0 0 0 0 0 -1 -1 -1 -1 -1 -1 -1 -1 -1 -1 -1 -1 -1 0 5 19 52 94 94 52 19 5 0 -1 -1 -1 -1 -1 -1 -1 -1 -1 0 0 0 2 5 10 15 23 35 50 67 83 95 102 100 89 73 57 42 29 19 12 8 7 8 10 14 20 29 48 82 124 
137 125 108 99 96 96 97 99 102 102 99 97 95 94 92 88 80 71 62 56 53 52 51 49 45 38 31 25 22 20 19 17 16 13 10 7 6 5 5 4 4 3 3 1 1 0 0 0 0 0 0 0 0 0 -1 -1 -1 -1 0 0 5 19 52 94 94 52 19 5 0 -1 -1 -1 -1 -1 -1 0 0 0 1 3 6 11 19 30 42 57 73 89 100 102 95 83 67 50 35 23 15 9 5 2 1 1 1 2 3 6 13 28 62 110 
120 95 70 58 54 54 56 62 71 80 88 92 94 95 97 99 102 102 99 97 95 94 93 91 87 80 71 62 56 53 51 49 45 38 31 25 22 20 19 18 17 16 13 10 7 6 5 4 4 3 3 1 1 0 0 0 0 0 0 1 5 20 52 95 94 52 19 5 0 -1 -1 -1 -1 0 0 0 2 4 7 12 21 33 49 66 83 95 102 100 89 73 57 42 30 19 12 7 4 2 0 0 0 0 0 0 0 2 7 21 54 101 
105 70 39 25 21 20 22 25 31 38 45 49 51 53 56 62 71 80 87 91 93 94 95 97 99 102 102 99 97 95 94 92 88 80 71 62 56 53 52 51 49 45 38 31 25 22 20 19 17 16 13 10 7 6 5 5 4 4 4 4 8 22 54 96 95 52 19 5 0 0 0 0 0 1 2 5 10 15 24 35 51 70 88 100 102 95 83 67 50 35 23 15 10 5 2 1 0 0 0 -1 -1 -1 -1 -1 0 0 5 19 52 97 
98 58 25 11 6 5 6 7 10 13 16 17 19 20 22 25 31 38 45 49 51 52 53 56 62 71 80 88 92 94 95 97 99 102 102 99 97 95 94 93 91 87 80 71 62 56 53 51 49 45 38 31 25 22 20 19 18 17 16 15 16 28 59 99 97 54 20 6 1 0 0 2 4 7 12 19 30 42 57 74 90 101 101 90 74 57 42 30 19 12 7 4 2 0 0 0 -1 -1 -1 -1 -1 -1 -1 -1 -1 0 5 19 52 95 
95 53 21 6 2 0 0 1 1 3 3 4 4 5 6 7 10 13 16 17 18 19 20 22 25 31 38 45 49 51 53 56 62 71 80 87 91 93 94 95 97 99 102 102 99 97 95 94 92 88 80 71 62 56 53 52 51 49 45 40 38 46 73 108 102 58 24 8 3 3 6 10 15 23 35 50 67 83 95 102 100 88 70 51 35 24 15 10 5 2 1 0 0 0 -1 -1 -1 -1 -1 -1 -1 -1 -1 -1 -1 0 5 19 52 94 
95 52 19 5 0 0 0 0 0 0 0 0 0 0 0 1 1 3 3 4 4 5 5 6 7 10 13 16 17 19 20 22 25 31 38 45 49 51 52 53 56 62 71 80 88 92 94 95 97 99 102 102 99 97 95 94 93 92 88 82 77 80 99 124 114 70 34 16 11 13 20 30 42 57 73 89 100 102 95 83 66 49 33 21 12 7 4 2 0 0 0 -1 -1 -1 -1 -1 -1 -1 -1 -1 -1 -1 -1 -1 -1 0 5 19 52 94 
94 52 19 5 0 0 -1 -1 -1 -1 -1 -1 -1 -1 0 0 0 0 0 0 0 0 0 0 1 1 3 3 4 4 5 6 7 10 13 16 17 18 19 20 22 25 31 38 45 49 51 53 56 62 71 80 87 91 93 94 95 97 100 103 105 110 122 136 128 92 56 36 31 37 50 67 83 95 102 100 89 73 57 42 30 19 11 6 3 1 0 0 0 -1 -1 -1 -1 -1 -1 -1 -1 -1 -1 -1 -1 -1 -1 -1 -1 0 5 19 52 94 
94 52 19 5 0 -1 -1 -1 -1 -1 -1 -1 -1 -1 -1 -1 -1 -1 -1 -1 -1 -1 -1 0 0 0 0 0 0 0 0 0 1 1 3 3 4 4 5 5 6 7 10 13 16 17 19 20 22 25 31 38 45 49 51 52 53 56 62 71 81 91 101 115 123 115 93 75 71 78 91 100 102 95 83 67 50 35 23 15 10 5 2 0 0 0 -1 -1 -1 -1 -1 -1 -1 -1 -1 -1 -1 -1 -1 -1 -1 -1 -1 -1 -1 0 5 19 52 94 
94 52 19 5 0 0 -1 -1 -1 -1 -1 -1 -1 -1 -1 -1 -1 -1 -1 -1 -1 -1 -1 -1 -1 -1 -1 -1 -1 0 0 0 0 0 0 0 0 0 0 0 0 1 2 3 4 4 5 5 6 7 10 13 16 17 18 19 20 22 25 31 39 46 55 68 91 115 125 120 113 108 102 90 74 57 42 30 19 12 7 4 2 0 0 0 -1 -1 -1 -1 -1 -1 -1 -1 -1 -1 -1 -1 -1 -1 -1 -1 -1 -1 -1 -1 0 0 5 19 52 94 
95 52 19 5 0 0 0 -1 -1 -1 -1 -1 -1 -1 -1 -1 -1 -1 -1 -1 -1 -1 -1 -1 -1 -1 -1 -1 -1 0 0 0 0 0 0 0 0 0 0 0 0 0 0 0 0 0 0 0 1 1 2 3 4 4 5 5 5 6 8 10 13 17 22 33 55 92 129 136 116 92 70 51 35 24 16 10 6 3 1 0 0 0 0 0 -1 -1 -1 -1 -1 -1 -1 -1 -1 -1 -1 -1 -1 -1 -1 -1 -1 -1 -1 -1 0 0 5 19 52 95 
95 53 21 6 2 0 0 0 0 0 0 0 0 0 0 0 0 0 0 0 0 0 0 0 0 0 0 0 0 0 0 0 0 0 0 0 0 0 0 0 0 0 0 0 0 0 0 0 0 0 1 1 1 1 1 2 2 2 2 3 4 6 9 16 35 71 115 123 90 57 36 22 14 9 6 3 2 1 1 0 0 0 0 0 0 0 0 0 0 0 0 0 0 0 0 0 0 0 0 0 0 0 0 0 0 1 6 21 53 95 
99 57 25 11 6 5 5 5 5 5 5 5 5 5 5 5 5 5 5 5 5 5 5 5 5 5 5 5 5 4 4 4 4 4 4 4 4 4 5 5 5 5 5 5 5 5 5 4 4 4 4 5 5 5 5 5 5 5 5 5 6 7 9 14 30 64 107 110 72 39 22 13 9 7 6 6 5 5 5 5 5 5 5 5 5 5 5 5 4 4 4 4 4 4 4 4 4 5 5 5 4 4 4 4 5 6 11 25 57 99 
108 69 39 25 21 19 19 19 19 19 19 19 19 19 19 19 19 19 19 19 19 19 19 19 19 19 19 19 19 19 18 18 18 17 18 18 18 19 19 19 19 19 19 19 19 19 19 18 18 18 18 18 18 19 19 19 19 19 19 19 19 20 21 26 41 72 110 112 75 44 29 23 21 20 19 19 19 19 19 19 19 19 19 19 19 19 19 19 19 18 18 18 17 18 18 18 19 19 19 19 19 18 18 18 18 19 24 38 69 108 
126 95 69 57 53 52 52 52 52 52 52 52 52 52 52 52 52 52 52 52 52 52 52 52 52 52 52 52 52 51 51 50 49 49 50 50 51 51 52 52 52 52 52 52 52 52 51 51 50 49 49 50 51 51 52 52 52 52 52 52 52 52 54 58 70 96 126 126 96 71 59 54 52 52 52 52 52 52 52 52 52 52 52 52 52 52 52 52 51 51 50 50 49 50 50 51 51 52 52 52 52 51 50 50 50 51 56 69 95 126 
148 126 108 99 95 95 94 94 94 94 94 94 94 94 94 94 94 94 94 94 94 94 94 94 94 94 94 94 94 95 96 98 100 100 98 96 95 94 94 94 94 94 94 94 94 94 95 96 98 100 100 98 96 95 94 94 94 94 94 94 94 95 95 98 105 118 133 133 119 105 98 95 95 94 94 94 94 94 94 94 94 94 94 94 94 94 94 94 95 96 97 99 100 98 96 95 94 94 94 94 95 95 97 99 100 100 101 108 127 148 
