P2
110 110
255
126 79 71 70 70 70 70 70 70 70 70 70 70 70 70 70 70 70 70 70 70 70 70 70 70 70 70 70 70 70 71 74 97 147 113 77 71 70 70 70 70 70 70 70 70 70 70 71 79 123 123 79 71 70 70 70 70 70 70 70 70 70 70 70 70 71 73 73 71 70 70 70 70 70 70 70 70 70 70 70 70 70 70 70 70 70 70 70 70 70 73 91 146 114 77 71 70 70 70 70 70 70 73 91 146 114 77 72 79 126 
79 16 5 4 4 4 4 4 4 4 4 4 4 4 4 4 4 4 4 4 4 4 4 4 4 4 4 4 4 4 7 29 103 98 27 7 4 4 4 4 4 4 4 4 4 4 4 5 16 80 79 16 5 4 4 4 4 4 4 4 4 4 4 4 4 4 4 4 4 4 4 4 4 4 4 4 4 4 4 4 4 4 4 4 4 4 4 4 4 5 16 75 104 28 7 4 4 4 4 4 4 5 14 69 105 29 7 5 16 79 
71 5 -5 -6 -6 -6 -6 -6 -6 -6 -6 -6 -6 -6 -6 -6 -6 -6 -6 -6 -6 -6 -6 -6 -6 -6 -6 -6 -6 -5 6 65 101 26 -1 -6 -6 -6 -6 -6 -6 -6 -6 -6 -6 -6 -6 -5 7 77 71 5 -5 -6 -6 -6 -6 -6 -6 -6 -6 -6 -6 -6 -6 -6 -6 -6 -6 -6 -6 -6 -6 -6 -6 -6 -6 -6 -6 -6 -6 -6 -6 -6 -6 -6 -6 -6 -6 -3 20 101 65 5 -5 -6 -6 -6 -6 -6 -6 -5 5 70 75 7 -5 -5 5 71 
70 4 -6 -7 -7 -7 -7 -7 -7 -7 -7 -7 -7 -7 -7 -7 -7 -7 -7 -7 -7 -7 -7 -7 -7 -7 -7 -7 -7 -2 26 101 64 5 -6 -7 -7 -7 -7 -7 -7 -7 -7 -7 -7 -7 -7 -4 20 112 73 4 -6 -7 -7 -7 -7 -7 -7 -7 -7 -7 -7 -7 -7 -7 -7 -7 -7 -7 -7 -7 -7 -7 -7 -7 -7 -7 -7 -7 -7 -7 -7 -7 -7 -7 -7 -7 -6 2 60 101 20 -4 -7 -7 -7 -7 -7 -7 -7 -6 6 75 69 4 -6 -6 4 70 
70 4 -6 -7 -7 -7 -7 -7 -7 -7 -7 -7 -7 -7 -7 -7 -7 -7 -7 -7 -7 -7 -7 -7 -7 -7 -7 -7 -4 18 94 94 18 -4 -7 -7 -7 -7 -7 -7 -7 -7 -7 -7 -7 -7 -6 4 66 150 74 4 -6 -7 -7 -7 -7 -7 -7 -7 -7 -7 -7 -7 -7 -7 -7 -7 -7 -7 -7 -7 -7 -7 -7 -7 -7 -7 -7 -7 -7 -7 -7 -7 -7 -7 -7 -7 -6 6 74 74 6 -6 -7 -7 -7 -7 -7 -7 -7 -4 19 101 59 2 -6 -6 4 70 
70 4 -6 -7 -7 -7 -7 -7 -7 -7 -7 -7 -7 -7 -7 -7 -7 -7 -7 -7 -7 -7 -7 -7 -7 -7 -7 -6 5 64 101 26 -2 -7 -7 -7 -7 -7 -7 -7 -7 -7 -7 -7 -7 -7 -4 19 103 128 72 4 -6 -7 -7 -7 -7 -7 -7 -7 -7 -7 -7 -7 -7 -7 -7 -7 -7 -7 -7 -7 -7 -7 -7 -7 -7 -7 -7 -7 -7 -7 -7 -7 -7 -7 -7 -7 -4 20 101 59 2 -6 -7 -7 -7 -7 -7 -7 -6 2 59 101 19 -4 -7 -6 4 70 
70 4 -6 -7 -7 -7 -7 -7 -7 -7 -7 -7 -7 -7 -7 -7 -7 -7 -7 -7 -7 -7 -7 -7 -7 -7 -7 -2 26 101 64 5 -6 -7 -7 -7 -7 -7 -7 -7 -7 -7 -7 -7 -7 -6 4 65 109 93 71 4 -6 -7 -7 -7 -7 -7 -7 -7 -7 -7 -7 -7 -7 -7 -7 -7 -7 -7 -7 -7 -7 -7 -7 -7 -7 -7 -7 -7 -7 -7 -7 -7 -7 -7 -7 -6 4 65 100 19 -4 -7 -7 -7 -7 -7 -7 -7 -6 4 69 75 6 -6 -7 -6 4 70 
70 4 -6 -7 -7 -7 -7 -7 -7 -7 -7 -7 -7 -7 -7 -7 -7 -7 -7 -7 -7 -7 -7 -7 -7 -7 -4 18 94 94 18 -4 -7 -7 -7 -7 -7 -7 -7 -7 -7 -7 -7 -7 -7 -4 19 100 75 79 75 6 -6 -7 -7 -7 -7 -7 -7 -7 -7 -7 -7 -7 -7 -7 -7 -7 -7 -7 -7 -7 -7 -7 -7 -7 -7 -7 -7 -7 -7 -7 -7 -7 -7 -7 -7 -4 19 100 65 4 -6 -7 -7 -7 -7 -7 -7 -7 -6 6 75 69 4 -6 -7 -6 4 70 
70 4 -6 -7 -7 -7 -7 -7 -7 -7 -7 -7 -7 -7 -7 -7 -7 -7 -7 -7 -7 -7 -7 -7 -7 -6 5 64 101 26 -2 -7 -7 -7 -7 -7 -7 -7 -7 -7 -7 -7 -7 -7 -6 5 65 101 29 62 101 19 -4 -7 -7 -7 -7 -7 -7 -7 -7 -7 -7 -7 -7 -7 -7 -7 -7 -7 -7 -7 -7 -7 -7 -7 -7 -7 -7 -7 -7 -7 -7 -7 -7 -7 -6 2 59 101 20 -4 -7 -7 -7 -7 -7 -7 -7 -7 -4 19 101 59 2 -6 -7 -6 4 70 
70 4 -6 -7 -7 -7 -7 -7 -7 -7 -7 -7 -7 -7 -7 -7 -7 -7 -7 -7 -7 -7 -7 -7 -7 -2 26 101 64 5 -6 -7 -7 -7 -7 -7 -7 -7 -7 -7 -7 -7 -7 -7 -2 26 101 65 7 20 101 59 2 -6 -7 -7 -7 -7 -7 -7 -7 -7 -7 -7 -7 -7 -7 -7 -7 -7 -7 -7 -7 -7 -7 -7 -7 -7 -7 -7 -7 -7 -7 -7 -7 -7 -6 6 74 74 6 -6 -7 -7 -7 -7 -7 -7 -7 -6 2 59 101 19 -4 -7 -7 -6 4 70 
70 4 -6 -7 -7 -7 -7 -7 -7 -7 -7 -7 -7 -7 -7 -7 -7 -7 -7 -7 -7 -7 -7 -7 -4 18 94 94 18 -4 -7 -7 -7 -7 -7 -7 -7 -7 -7 -7 -7 -7 -7 -4 18 94 94 18 -3 6 75 69 4 -6 -7 -7 -7 -7 -7 -7 -7 -7 -7 -7 -7 -7 -7 -7 -7 -7 -7 -7 -7 -7 -7 -7 -7 -7 -7 -7 -7 -7 -7 -7 -7 -7 -4 20 101 59 2 -6 -7 -7 -7 -7 -7 -7 -7 -6 4 69 75 6 -6 -7 -7 -6 4 70 
70 4 -6 -7 -7 -7 -7 -7 -7 -7 -7 -7 -7 -7 -7 -7 -7 -7 -7 -7 -7 -7 -7 -6 5 64 101 26 -2 -7 -7 -7 -7 -7 -7 -7 -7 -7 -7 -7 -7 -7 -6 4 64 101 26 -2 -6 4 71 70 4 -6 -7 -7 -7 -7 -7 -7 -7 -7 -7 -7 -7 -7 -7 -7 -7 -7 -7 -7 -7 -7 -7 -7 -7 -7 -7 -7 -7 -7 -7 -7 -7 -6 4 65 100 19 -4 -7 -7 -7 -7 -7 -7 -7 -7 -6 6 75 69 4 -6 -7 -7 -6 4 70 
71 4 -6 -7 -7 -7 -7 -7 -7 -7 -7 -7 -7 -7 -7 -7 -7 -7 -7 -7 -7 -7 -7 -2 26 101 64 5 -6 -7 -7 -7 -7 -7 -7 -7 -7 -7 -7 -7 -7 -7 -4 19 100 65 5 -6 -6 4 70 70 4 -6 -7 -7 -7 -7 -7 -7 -7 -7 -7 -7 -7 -7 -7 -7 -7 -7 -7 -7 -7 -7 -7 -7 -7 -7 -7 -7 -7 -7 -7 -7 -7 -4 19 100 65 4 -6 -7 -7 -7 -7 -7 -7 -7 -7 -4 19 101 59 2 -6 -7 -7 -6 4 70 
77 7 -6 -7 -7 -7 -7 -7 -7 -7 -7 -7 -7 -7 -7 -7 -7 -7 -7 -7 -7 -7 -4 18 94 94 18 -4 -7 -7 -7 -7 -7 -7 -7 -7 -7 -7 -7 -7 -7 -6 4 65 100 19 -4 -7 -6 4 70 71 4 -6 -7 -7 -7 -7 -7 -7 -7 -7 -7 -7 -7 -7 -7 -7 -7 -7 -7 -7 -7 -7 -7 -7 -7 -7 -7 -7 -7 -7 -7 -7 -6 2 59 101 20 -4 -7 -7 -7 -7 -7 -7 -7 -7 -6 2 59 101 19 -4 -7 -7 -7 -6 4 71 
113 27 -1 -6 -7 -7 -7 -7 -7 -7 -7 -7 -7 -7 -7 -7 -7 -7 -7 -7 -7 -6 5 64 101 26 -2 -7 -7 -7 -7 -7 -7 -7 -7 -7 -7 -7 -7 -7 -7 -4 19 100 65 4 -6 -7 -6 4 69 75 6 -6 -7 -7 -7 -7 -7 -7 -7 -7 -7 -7 -7 -7 -7 -7 -7 -7 -7 -7 -7 -7 -7 -7 -7 -7 -7 -7 -7 -7 -7 -7 -6 6 74 74 6 -6 -7 -7 -7 -7 -7 -7 -7 -7 -6 4 69 75 6 -6 -7 -7 -7 -6 4 73 
147 98 24 -1 -7 -7 -7 -7 -7 -7 -7 -7 -7 -7 -7 -7 -7 -7 -7 -7 -7 -2 26 101 64 5 -6 -7 -7 -7 -7 -7 -7 -7 -7 -7 -7 -7 -7 -7 -6 5 65 100 19 -4 -7 -7 -6 2 59 101 19 -4 -7 -7 -7 -7 -7 -7 -7 -7 -7 -7 -7 -7 -7 -7 -7 -7 -7 -7 -7 -7 -7 -7 -7 -7 -7 -7 -7 -7 -7 -7 -4 20 101 59 2 -6 -7 -7 -7 -7 -7 -7 -7 -7 -6 6 75 69 4 -6 -7 -7 -7 -6 4 74 
97 104 95 24 -2 -7 -7 -7 -7 -7 -7 -7 -7 -7 -7 -7 -7 -7 -7 -7 -4 18 94 94 18 -4 -7 -7 -7 -7 -7 -7 -7 -7 -7 -7 -7 -7 -7 -7 -2 26 101 64 4 -6 -7 -7 -7 -4 19 101 59 2 -6 -7 -7 -7 -7 -7 -7 -7 -7 -7 -7 -7 -7 -7 -7 -7 -7 -7 -7 -7 -7 -7 -7 -7 -7 -7 -7 -7 -7 -6 4 65 100 19 -4 -7 -7 -7 -7 -7 -7 -7 -7 -7 -4 19 101 59 2 -6 -7 -7 -7 -6 4 71 
75 36 95 94 18 -4 -7 -7 -7 -7 -7 -7 -7 -7 -7 -7 -7 -7 -7 -6 5 64 101 26 -2 -7 -7 -7 -7 -7 -7 -7 -7 -7 -7 -7 -7 -7 -7 -4 18 94 94 18 -4 -7 -7 -7 -7 -6 6 75 69 4 -6 -7 -7 -7 -7 -7 -7 -7 -7 -7 -7 -7 -7 -7 -7 -7 -7 -7 -7 -7 -7 -7 -7 -7 -7 -7 -7 -7 -7 -4 19 100 65 4 -6 -7 -7 -7 -7 -7 -7 -7 -7 -6 2 59 101 19 -4 -7 -7 -7 -7 -6 4 70 
71 10 27 101 64 5 -6 -7 -7 -7 -7 -7 -7 -7 -7 -7 -7 -7 -7 -2 26 101 64 5 -6 -7 -7 -7 -7 -7 -7 -7 -7 -7 -7 -7 -7 -7 -6 4 64 101 26 -2 -7 -7 -7 -7 -7 -6 4 71 70 4 -6 -7 -7 -7 -7 -7 -7 -7 -7 -7 -7 -7 -7 -7 -7 -7 -7 -7 -7 -7 -7 -7 -7 -7 -7 -7 -7 -7 -6 2 59 101 20 -4 -7 -7 -7 -7 -7 -7 -7 -7 -7 -6 4 69 75 6 -6 -7 -7 -7 -7 -6 4 70 
70 5 6 65 101 26 -1 -6 -7 -7 -7 -7 -7 -7 -7 -7 -7 -7 -4 18 94 94 18 -4 -7 -7 -7 -7 -7 -7 -7 -7 -7 -7 -7 -7 -7 -7 -4 19 100 65 5 -6 -7 -7 -7 -7 -7 -6 4 70 70 4 -6 -7 -7 -7 -7 -7 -7 -7 -7 -7 -7 -7 -7 -7 -7 -7 -7 -7 -7 -7 -7 -7 -7 -7 -7 -7 -7 -7 -6 6 74 74 6 -6 -7 -7 -7 -7 -7 -7 -7 -7 -7 -6 6 75 69 4 -6 -7 -7 -7 -7 -6 4 70 
70 4 -3 18 94 95 24 -1 -6 -7 -7 -7 -7 -7 -7 -7 -7 -6 5 64 101 26 -2 -7 -7 -7 -7 -7 -7 -7 -7 -7 -7 -7 -7 -7 -7 -6 4 65 100 19 -4 -7 -7 -7 -7 -7 -7 -6 4 70 71 4 -6 -7 -7 -7 -7 -7 -7 -7 -7 -7 -7 -7 -7 -7 -7 -7 -7 -7 -7 -7 -7 -7 -7 -7 -7 -7 -7 -7 -4 20 101 59 2 -6 -7 -7 -7 -7 -7 -7 -7 -7 -7 -4 19 101 59 2 -6 -7 -7 -7 -7 -6 4 70 
70 4 -6 -2 24 94 94 24 -1 -6 -7 -7 -7 -7 -7 -7 -7 -2 26 101 64 5 -6 -7 -7 -7 -7 -7 -7 -7 -7 -7 -7 -7 -7 -7 -7 -4 19 100 65 4 -6 -7 -7 -7 -7 -7 -7 -6 4 69 75 6 -6 -7 -7 -7 -7 -7 -7 -7 -7 -7 -7 -7 -7 -7 -7 -7 -7 -7 -7 -7 -7 -7 -7 -7 -7 -7 -7 -6 4 65 100 19 -4 -7 -7 -7 -7 -7 -7 -7 -7 -7 -6 2 59 101 19 -4 -7 -7 -7 -7 -7 -6 4 70 
70 4 -6 -6 -1 24 94 94 24 -1 -6 -7 -7 -7 -7 -7 -4 18 94 94 18 -4 -7 -7 -7 -7 -7 -7 -7 -7 -7 -7 -7 -7 -7 -7 -6 5 65 100 19 -4 -7 -7 -7 -7 -7 -7 -7 -6 2 59 101 19 -4 -7 -7 -7 -7 -7 -7 -7 -7 -7 -7 -7 -7 -7 -7 -7 -7 -7 -7 -7 -7 -7 -7 -7 -7 -7 -7 -4 19 100 65 4 -6 -7 -7 -7 -7 -7 -7 -7 -7 -7 -6 4 69 75 6 -6 -7 -7 -7 -7 -7 -6 4 70 
70 4 -6 -7 -6 -1 24 94 94 24 -1 -6 -7 -7 -7 -6 5 64 101 26 -2 -7 -7 -7 -7 -7 -7 -7 -7 -7 -7 -7 -7 -7 -7 -7 -2 26 101 64 4 -6 -7 -7 -7 -7 -7 -7 -7 -7 -4 19 101 59 2 -6 -7 -7 -7 -7 -7 -7 -7 -7 -7 -7 -7 -7 -7 -7 -7 -7 -7 -7 -7 -7 -7 -7 -7 -7 -6 2 59 101 20 -4 -7 -7 -7 -7 -7 -7 -7 -7 -7 -7 -6 6 75 69 4 -6 -7 -7 -7 -7 -7 -6 4 70 
70 4 -6 -7 -7 -6 -1 24 94 94 24 -1 -6 -7 -7 -2 26 101 64 5 -6 -7 -7 -7 -7 -7 -7 -7 -7 -7 -7 -7 -7 -7 -7 -4 18 94 94 18 -4 -7 -7 -7 -7 -7 -7 -7 -7 -7 -6 6 75 69 4 -6 -7 -7 -7 -7 -7 -7 -7 -7 -7 -7 -7 -7 -7 -7 -7 -7 -7 -7 -7 -7 -7 -7 -7 -7 -6 6 74 74 6 -6 -7 -7 -7 -7 -7 -7 -7 -7 -7 -7 -4 19 101 59 2 -6 -7 -7 -7 -7 -7 -6 4 70 
70 4 -6 -7 -7 -7 -6 -1 24 94 94 24 -1 -6 -4 18 94 94 18 -4 -7 -7 -7 -7 -7 -7 -7 -7 -7 -7 -7 -7 -7 -7 -6 4 64 101 26 -2 -7 -7 -7 -7 -7 -7 -7 -7 -7 -7 -6 4 71 70 4 -6 -7 -7 -7 -7 -7 -7 -7 -7 -7 -7 -7 -7 -7 -7 -7 -7 -7 -7 -7 -7 -7 -7 -7 -7 -4 20 101 59 2 -6 -7 -7 -7 -7 -7 -7 -7 -7 -7 -6 2 59 101 19 -4 -7 -7 -7 -7 -7 -7 -6 4 70 
70 4 -6 -7 -7 -7 -7 -6 -1 24 94 94 24 0 5 65 101 26 -2 -7 -7 -7 -7 -7 -7 -7 -7 -7 -7 -7 -7 -7 -7 -7 -4 19 100 65 5 -6 -7 -7 -7 -7 -7 -7 -7 -7 -7 -7 -6 4 70 71 4 -6 -7 -7 -7 -7 -7 -7 -7 -7 -7 -7 -7 -7 -7 -7 -7 -7 -7 -7 -7 -7 -7 -7 -7 -6 4 65 100 19 -4 -7 -7 -7 -7 -7 -7 -7 -7 -7 -7 -6 4 69 75 6 -6 -7 -7 -7 -7 -7 -7 -6 4 70 
70 4 -6 -7 -7 -7 -7 -7 -6 -1 24 94 95 29 31 101 64 5 -6 -7 -7 -7 -7 -7 -7 -7 -7 -7 -7 -7 -7 -7 -7 -6 4 65 100 19 -4 -7 -7 -7 -7 -7 -7 -7 -7 -7 -7 -7 -6 4 69 75 6 -6 -7 -7 -7 -7 -7 -7 -7 -7 -7 -7 -7 -7 -7 -7 -7 -7 -7 -7 -7 -7 -7 -7 -7 -4 19 100 65 4 -6 -7 -7 -7 -7 -7 -7 -7 -7 -7 -7 -6 6 75 69 4 -6 -7 -7 -7 -7 -7 -7 -6 4 70 
70 4 -6 -7 -7 -7 -7 -7 -7 -6 -1 24 95 112 112 95 18 -4 -7 -7 -7 -7 -7 -7 -7 -7 -7 -7 -7 -7 -7 -7 -7 -4 19 100 65 4 -6 -7 -7 -7 -7 -7 -7 -7 -7 -7 -7 -7 -6 2 59 101 19 -4 -7 -7 -7 -7 -7 -7 -7 -7 -7 -7 -7 -7 -7 -7 -7 -7 -7 -7 -7 -7 -7 -7 -6 2 59 101 20 -4 -7 -7 -7 -7 -7 -7 -7 -7 -7 -7 -7 -4 19 101 59 2 -6 -7 -7 -7 -7 -7 -7 -6 4 70 
70 4 -6 -7 -7 -7 -7 -7 -7 -7 -6 -1 27 114 114 26 -2 -7 -7 -7 -7 -7 -7 -7 -7 -7 -7 -7 -7 -7 -7 -7 -6 5 65 100 19 -4 -7 -7 -7 -7 -7 -7 -7 -7 -7 -7 -7 -7 -7 -4 19 101 59 2 -6 -7 -7 -7 -7 -7 -7 -7 -7 -7 -7 -7 -7 -7 -7 -7 -7 -7 -7 -7 -7 -7 -6 6 74 74 6 -6 -7 -7 -7 -7 -7 -7 -7 -7 -7 -7 -6 2 59 101 19 -4 -7 -7 -7 -7 -7 -7 -7 -6 4 70 
70 4 -6 -7 -7 -7 -7 -7 -7 -7 -7 -6 7 77 78 7 -6 -7 -7 -7 -7 -7 -7 -7 -7 -7 -7 -7 -7 -7 -7 -7 -2 26 101 64 4 -6 -7 -7 -7 -7 -7 -7 -7 -7 -7 -7 -7 -7 -7 -6 6 75 69 4 -6 -7 -7 -7 -7 -7 -7 -7 -7 -7 -7 -7 -7 -7 -7 -7 -7 -7 -7 -7 -7 -7 -4 20 101 59 2 -6 -7 -7 -7 -7 -7 -7 -7 -7 -7 -7 -6 4 69 75 6 -6 -7 -7 -7 -7 -7 -7 -7 -6 4 70 
70 4 -6 -7 -7 -7 -7 -7 -7 -7 -7 -6 4 69 76 6 -6 -7 -7 -7 -7 -7 -7 -7 -7 -7 -7 -7 -7 -7 -7 -4 18 94 94 18 -4 -7 -7 -7 -7 -7 -7 -7 -7 -7 -7 -7 -7 -7 -7 -6 4 71 70 4 -6 -7 -7 -7 -7 -7 -7 -7 -7 -7 -7 -7 -7 -7 -7 -7 -7 -7 -7 -7 -7 -6 4 65 100 19 -4 -7 -7 -7 -7 -7 -7 -7 -7 -7 -7 -7 -6 6 75 69 4 -6 -7 -7 -7 -7 -7 -7 -7 -6 4 70 
70 4 -6 -7 -7 -7 -7 -7 -7 -7 -7 -6 2 59 101 19 -4 -7 -7 -7 -7 -7 -7 -7 -7 -7 -7 -7 -7 -7 -6 4 64 101 26 -2 -7 -7 -7 -7 -7 -7 -7 -7 -7 -7 -7 -7 -7 -7 -7 -6 4 70 70 4 -6 -7 -7 -7 -7 -7 -7 -7 -7 -7 -7 -7 -7 -7 -7 -7 -7 -7 -7 -7 -7 -4 19 100 65 4 -6 -7 -7 -7 -7 -7 -7 -7 -7 -7 -7 -7 -4 19 101 59 2 -6 -7 -7 -7 -7 -7 -7 -7 -6 4 70 
70 4 -6 -7 -7 -7 -7 -7 -7 -7 -7 -7 -4 19 101 59 2 -6 -7 -7 -7 -7 -7 -7 -7 -7 -7 -7 -7 -7 -4 19 100 65 5 -6 -7 -7 -7 -7 -7 -7 -7 -7 -7 -7 -7 -7 -7 -7 -7 -6 4 70 71 4 -6 -7 -7 -7 -7 -7 -7 -7 -7 -7 -7 -7 -7 -7 -7 -7 -7 -7 -7 -7 -6 2 59 101 20 -4 -7 -7 -7 -7 -7 -7 -7 -7 -7 -7 -7 -6 2 59 101 19 -4 -7 -7 -7 -7 -7 -7 -7 -7 -6 4 70 
70 4 -6 -7 -7 -7 -7 -7 -7 -7 -7 -7 -6 6 75 69 4 -6 -7 -7 -7 -7 -7 -7 -7 -7 -7 -7 -7 -6 4 65 100 19 -4 -7 -7 -7 -7 -7 -7 -7 -7 -7 -7 -7 -7 -7 -7 -7 -7 -6 4 69 75 6 -6 -7 -7 -7 -7 -7 -7 -7 -7 -7 -7 -7 -7 -7 -7 -7 -7 -7 -7 -7 -6 6 74 74 6 -6 -7 -7 -7 -7 -7 -7 -7 -7 -7 -7 -7 -6 4 69 75 6 -6 -7 -7 -7 -7 -7 -7 -7 -7 -6 4 70 
70 4 -6 -7 -7 -7 -7 -7 -7 -7 -7 -7 -6 4 70 70 4 -6 -7 -7 -7 -7 -7 -7 -7 -7 -7 -7 -7 -4 19 100 65 4 -6 -7 -7 -7 -7 -7 -7 -7 -7 -7 -7 -7 -7 -7 -7 -7 -7 -6 2 59 101 19 -4 -7 -7 -7 -7 -7 -7 -7 -7 -7 -7 -7 -7 -7 -7 -7 -7 -7 -7 -7 -4 20 101 59 2 -6 -7 -7 -7 -7 -7 -7 -7 -7 -7 -7 -7 -6 6 75 69 4 -6 -7 -7 -7 -7 -7 -7 -7 -7 -6 4 71 
71 4 -6 -7 -7 -7 -7 -7 -7 -7 -7 -7 -6 4 69 75 6 -6 -7 -7 -7 -7 -7 -7 -7 -7 -7 -7 -6 5 65 100 19 -4 -7 -7 -7 -7 -7 -7 -7 -7 -7 -7 -7 -7 -7 -7 -7 -7 -7 -7 -4 19 101 59 2 -6 -7 -7 -7 -7 -7 -7 -7 -7 -7 -7 -7 -7 -7 -7 -7 -7 -7 -6 4 65 100 19 -4 -7 -7 -7 -7 -7 -7 -7 -7 -7 -7 -7 -7 -4 19 101 59 2 -6 -7 -7 -7 -7 -7 -7 -7 -7 -6 6 77 
73 4 -6 -7 -7 -7 -7 -7 -7 -7 -7 -7 -6 2 59 101 19 -4 -7 -7 -7 -7 -7 -7 -7 -7 -7 -7 -2 26 101 64 4 -6 -7 -7 -7 -7 -7 -7 -7 -7 -7 -7 -7 -7 -7 -7 -7 -7 -7 -7 -6 6 75 69 4 -6 -7 -7 -7 -7 -7 -7 -7 -7 -7 -7 -7 -7 -7 -7 -7 -7 -7 -4 19 100 65 4 -6 -7 -7 -7 -7 -7 -7 -7 -7 -7 -7 -7 -6 2 59 101 19 -4 -7 -7 -7 -7 -7 -7 -7 -7 -7 -4 20 112 
74 4 -6 -7 -7 -7 -7 -7 -7 -7 -7 -7 -7 -4 19 101 59 2 -6 -7 -7 -7 -7 -7 -7 -7 -7 -4 18 94 94 18 -4 -7 -7 -7 -7 -7 -7 -7 -7 -7 -7 -7 -7 -7 -7 -7 -7 -7 -7 -7 -6 4 71 70 4 -6 -7 -7 -7 -7 -7 -7 -7 -7 -7 -7 -7 -7 -7 -7 -7 -7 -6 2 59 101 20 -4 -7 -7 -7 -7 -7 -7 -7 -7 -7 -7 -7 -7 -6 4 69 75 6 -6 -7 -7 -7 -7 -7 -7 -7 -7 -6 5 66 150 
72 4 -6 -7 -7 -7 -7 -7 -7 -7 -7 -7 -7 -6 6 75 69 4 -6 -7 -7 -7 -7 -7 -7 -7 -6 4 64 101 26 -2 -7 -7 -7 -7 -7 -7 -7 -7 -7 -7 -7 -7 -7 -7 -7 -7 -7 -7 -7 -7 -6 4 70 70 4 -6 -7 -7 -7 -7 -7 -7 -7 -7 -7 -7 -7 -7 -7 -7 -7 -7 -6 6 74 74 6 -6 -7 -7 -7 -7 -7 -7 -7 -7 -7 -7 -7 -7 -6 6 75 69 4 -6 -7 -7 -7 -7 -7 -7 -7 -7 -2 26 104 128 
71 4 -6 -7 -7 -7 -7 -7 -7 -7 -7 -7 -7 -6 4 70 70 4 -6 -7 -7 -7 -7 -7 -7 -7 -4 19 100 65 5 -6 -7 -7 -7 -7 -7 -7 -7 -7 -7 -7 -7 -7 -7 -7 -7 -7 -7 -7 -7 -7 -6 4 70 71 4 -6 -7 -7 -7 -7 -7 -7 -7 -7 -7 -7 -7 -7 -7 -7 -7 -7 -4 20 101 59 2 -6 -7 -7 -7 -7 -7 -7 -7 -7 -7 -7 -7 -7 -4 19 101 59 2 -6 -7 -7 -7 -7 -7 -7 -7 -4 18 94 103 92 
70 4 -6 -7 -7 -7 -7 -7 -7 -7 -7 -7 -7 -6 4 69 75 6 -6 -7 -7 -7 -7 -7 -7 -6 4 65 100 19 -4 -7 -7 -7 -7 -7 -7 -7 -7 -7 -7 -7 -7 -7 -7 -7 -7 -7 -7 -7 -7 -7 -6 4 69 75 6 -6 -7 -7 -7 -7 -7 -7 -7 -7 -7 -7 -7 -7 -7 -7 -7 -6 4 65 100 19 -4 -7 -7 -7 -7 -7 -7 -7 -7 -7 -7 -7 -7 -6 2 59 101 19 -4 -7 -7 -7 -7 -7 -7 -7 -6 5 64 101 37 75 
70 4 -6 -7 -7 -7 -7 -7 -7 -7 -7 -7 -7 -6 2 59 101 19 -4 -7 -7 -7 -7 -7 -7 -4 19 100 65 4 -6 -7 -7 -7 -7 -7 -7 -7 -7 -7 -7 -7 -7 -7 -7 -7 -7 -7 -7 -7 -7 -7 -6 2 59 101 19 -4 -7 -7 -7 -7 -7 -7 -7 -7 -7 -7 -7 -7 -7 -7 -7 -4 19 100 65 4 -6 -7 -7 -7 -7 -7 -7 -7 -7 -7 -7 -7 -7 -6 4 69 75 6 -6 -7 -7 -7 -7 -7 -7 -7 -2 26 101 65 16 71 
70 4 -6 -7 -7 -7 -7 -7 -7 -7 -7 -7 -7 -7 -4 19 101 59 2 -6 -7 -7 -7 -7 -6 5 65 100 19 -4 -7 -7 -7 -7 -7 -7 -7 -7 -7 -7 -7 -7 -7 -7 -7 -7 -7 -7 -7 -7 -7 -7 -7 -4 19 101 59 2 -6 -7 -7 -7 -7 -7 -7 -7 -7 -7 -7 -7 -7 -7 -6 2 59 101 20 -4 -7 -7 -7 -7 -7 -7 -7 -7 -7 -7 -7 -7 -7 -6 6 75 69 4 -6 -7 -7 -7 -7 -7 -7 -4 18 94 94 19 7 70 
70 4 -6 -7 -7 -7 -7 -7 -7 -7 -7 -7 -7 -7 -6 6 75 69 4 -6 -7 -7 -7 -7 -2 26 101 64 4 -6 -7 -7 -7 -7 -7 -7 -7 -7 -7 -7 -7 -7 -7 -7 -7 -7 -7 -7 -7 -7 -7 -7 -7 -6 6 76 70 5 -5 -6 -6 -6 -7 -7 -7 -7 -7 -7 -7 -7 -7 -7 -6 6 74 74 6 -6 -7 -7 -7 -7 -7 -7 -7 -7 -7 -7 -7 -7 -7 -4 19 101 59 2 -6 -7 -7 -7 -7 -7 -6 5 64 101 26 -1 4 70 
70 4 -6 -7 -7 -7 -7 -7 -7 -7 -7 -7 -7 -7 -6 4 70 70 4 -6 -7 -7 -7 -4 18 94 94 18 -4 -7 -7 -7 -7 -7 -7 -7 -7 -7 -7 -7 -7 -7 -7 -7 -7 -7 -7 -7 -7 -7 -7 -7 -7 -5 7 78 79 16 5 4 4 2 -4 -6 -6 -6 -6 -6 -6 -7 -7 -7 -4 20 101 59 2 -6 -7 -7 -7 -7 -7 -7 -7 -7 -7 -7 -7 -7 -6 2 59 101 19 -4 -7 -7 -7 -7 -7 -7 -2 26 101 64 5 -5 4 70 
70 4 -6 -7 -7 -7 -7 -7 -7 -7 -7 -7 -7 -7 -6 4 69 75 6 -6 -7 -7 -6 4 64 101 26 -2 -7 -7 -7 -7 -7 -7 -7 -7 -7 -7 -7 -7 -7 -7 -7 -7 -7 -7 -7 -7 -7 -7 -7 -7 -4 5 28 114 123 79 71 70 69 59 19 6 4 4 4 4 2 -4 -6 -5 5 65 100 19 -4 -7 -7 -7 -7 -7 -7 -7 -7 -7 -7 -7 -7 -7 -6 4 69 75 6 -6 -7 -7 -7 -7 -7 -4 18 94 94 18 -4 -6 4 70 
70 4 -6 -7 -7 -7 -7 -7 -7 -7 -7 -7 -7 -7 -6 2 59 101 19 -4 -7 -7 -4 19 100 65 5 -6 -7 -7 -7 -7 -7 -7 -7 -7 -7 -7 -7 -7 -7 -7 -7 -7 -7 -7 -7 -7 -7 -7 -6 -2 18 65 102 106 79 71 70 71 75 101 101 75 71 70 70 69 59 19 6 7 28 102 65 4 -6 -7 -7 -7 -7 -7 -7 -7 -7 -7 -7 -7 -7 -7 -6 6 75 69 4 -6 -7 -7 -7 -7 -6 5 64 101 26 -2 -7 -6 4 70 
70 4 -6 -7 -7 -7 -7 -7 -7 -7 -7 -7 -7 -7 -7 -4 19 101 59 2 -6 -6 4 65 100 19 -4 -7 -7 -7 -7 -7 -7 -7 -7 -7 -7 -7 -7 -7 -7 -7 -7 -7 -7 -7 -7 -7 -7 -4 5 26 94 101 65 20 6 4 4 4 6 19 59 69 70 70 71 75 101 101 76 78 114 111 22 -4 -7 -7 -7 -7 -7 -7 -7 -7 -7 -7 -7 -7 -7 -7 -4 19 101 59 2 -6 -7 -7 -7 -7 -2 26 101 64 5 -6 -7 -6 4 70 
70 4 -6 -7 -7 -7 -7 -7 -7 -7 -7 -7 -7 -7 -7 -6 6 75 69 4 -6 -4 19 100 65 4 -6 -7 -7 -7 -7 -7 -7 -7 -7 -7 -7 -7 -7 -7 -7 -7 -7 -7 -7 -7 -7 -6 -2 18 64 101 94 26 5 -4 -6 -6 -6 -6 -6 -4 2 4 4 4 4 6 19 59 69 77 114 111 22 -4 -7 -7 -7 -7 -7 -7 -7 -7 -7 -7 -7 -7 -7 -6 2 59 101 19 -4 -7 -7 -7 -7 -4 18 94 94 18 -4 -7 -7 -6 4 70 
70 4 -6 -7 -7 -7 -7 -7 -7 -7 -7 -7 -7 -7 -7 -6 4 70 71 4 -5 5 65 100 19 -4 -7 -7 -7 -7 -7 -7 -7 -7 -7 -7 -7 -7 -7 -7 -7 -7 -7 -7 -7 -7 -4 5 26 94 101 64 18 -2 -6 -7 -7 -7 -7 -7 -7 -7 -6 -6 -6 -6 -6 -6 -4 2 4 7 28 102 65 5 -6 -7 -7 -7 -7 -7 -7 -7 -7 -7 -7 -7 -7 -6 4 69 75 6 -6 -7 -7 -7 -6 5 64 101 26 -2 -7 -7 -7 -6 4 70 
70 4 -6 -7 -7 -7 -7 -7 -7 -7 -7 -7 -7 -7 -7 -6 4 69 75 6 -1 26 101 64 4 -6 -7 -7 -7 -7 -7 -7 -7 -7 -7 -7 -7 -7 -7 -7 -7 -7 -7 -7 -7 -2 18 64 101 94 26 5 -4 -7 -7 -7 -7 -7 -7 -7 -7 -7 -7 -7 -7 -7 -7 -7 -7 -6 -6 -5 5 65 101 26 -1 -6 -7 -7 -7 -7 -7 -7 -7 -7 -7 -7 -7 -6 6 75 69 4 -6 -7 -7 -7 -2 26 101 64 5 -6 -7 -7 -7 -6 4 70 
70 4 -6 -7 -7 -7 -7 -7 -7 -7 -7 -7 -7 -7 -7 -6 2 59 101 22 21 94 94 18 -4 -7 -7 -7 -7 -7 -7 -7 -7 -7 -7 -7 -7 -7 -7 -7 -7 -7 -7 -6 -1 24 94 101 64 18 -2 -6 -7 -7 -7 -7 -7 -7 -7 -7 -7 -7 -7 -7 -7 -7 -7 -7 -7 -7 -7 -7 -4 18 94 95 26 5 -4 -6 -6 -6 -6 -6 -6 -6 -6 -6 -6 -3 20 101 59 2 -6 -7 -7 -4 18 94 94 18 -4 -7 -7 -7 -7 -6 4 70 
70 4 -6 -7 -7 -7 -7 -7 -7 -7 -7 -7 -7 -7 -7 -7 -4 19 101 69 73 101 26 -2 -7 -7 -7 -7 -7 -7 -7 -7 -7 -7 -7 -7 -7 -7 -7 -7 -7 -7 -4 5 26 95 95 26 5 -4 -7 -7 -7 -7 -7 -7 -7 -7 -7 -7 -7 -7 -7 -7 -7 -7 -7 -7 -7 -7 -7 -7 -7 -2 26 107 113 66 20 6 4 4 4 4 4 4 4 4 5 14 68 107 22 -3 -7 -7 -6 5 64 101 26 -2 -7 -7 -7 -7 -7 -6 4 70 
70 4 -6 -7 -7 -7 -7 -7 -7 -7 -7 -7 -7 -7 -7 -7 -6 6 76 92 108 65 5 -6 -7 -7 -7 -7 -7 -7 -7 -7 -7 -7 -7 -7 -7 -7 -7 -7 -6 -2 18 64 101 94 24 -1 -6 -7 -7 -7 -7 -7 -7 -7 -7 -7 -7 -7 -7 -7 -7 -7 -7 -7 -7 -7 -7 -7 -7 -7 -7 -6 7 80 127 108 101 75 71 70 70 70 70 70 70 70 71 78 122 119 30 5 -4 -6 -2 26 101 64 5 -6 -7 -7 -7 -7 -7 -6 4 70 
70 4 -6 -7 -7 -7 -7 -7 -7 -7 -7 -7 -7 -7 -7 -7 -6 4 73 128 103 19 -4 -7 -7 -7 -7 -7 -7 -7 -7 -7 -7 -7 -7 -7 -7 -7 -7 -4 5 26 94 101 64 18 -2 -7 -7 -7 -7 -7 -7 -7 -7 -7 -7 -7 -7 -7 -7 -7 -7 -7 -7 -7 -7 -7 -7 -7 -7 -7 -7 -6 6 76 79 30 60 69 70 70 70 70 70 70 70 70 70 71 79 106 102 65 20 7 20 94 94 18 -4 -7 -7 -7 -7 -7 -7 -6 4 70 
70 4 -6 -7 -7 -7 -7 -7 -7 -7 -7 -7 -7 -7 -7 -7 -6 4 74 150 66 4 -6 -7 -7 -7 -7 -7 -7 -7 -7 -7 -7 -7 -7 -7 -7 -6 -2 18 64 101 94 26 5 -4 -7 -7 -7 -7 -7 -7 -7 -7 -7 -7 -7 -7 -7 -7 -7 -7 -7 -7 -7 -7 -7 -7 -7 -7 -7 -7 -7 -4 19 101 60 5 3 4 4 4 4 4 4 4 4 4 4 4 6 20 65 100 101 73 81 103 26 -2 -7 -7 -7 -7 -7 -7 -7 -6 4 70 
70 4 -6 -7 -7 -7 -7 -7 -7 -7 -7 -7 -7 -7 -7 -7 -6 4 73 112 20 -4 -7 -7 -7 -7 -7 -7 -7 -7 -7 -7 -7 -7 -7 -7 -4 5 26 94 101 65 18 -2 -6 -7 -7 -7 -7 -7 -7 -7 -7 -7 -7 -7 -7 -7 -7 -7 -7 -7 -7 -7 -7 -7 -7 -7 -7 -7 -7 -7 -6 2 59 101 19 -4 -6 -6 -6 -6 -6 -6 -6 -6 -6 -6 -6 -6 -6 -4 4 19 65 104 145 85 9 -5 -7 -7 -7 -7 -7 -7 -7 -6 4 70 
70 4 -6 -7 -7 -7 -7 -7 -7 -7 -7 -7 -7 -7 -7 -7 -6 4 71 77 6 -6 -7 -7 -7 -7 -7 -7 -7 -7 -7 -7 -7 -6 -6 -2 18 66 104 96 27 6 -3 -6 -7 -7 -7 -7 -7 -7 -7 -7 -7 -7 -7 -7 -7 -7 -7 -7 -7 -7 -7 -7 -7 -7 -7 -7 -7 -7 -7 -7 -6 4 69 75 6 -6 -7 -7 -7 -7 -7 -7 -7 -7 -7 -7 -7 -7 -7 -7 -6 -4 5 26 104 107 26 -2 -7 -7 -7 -7 -7 -7 -7 -6 4 70 
70 4 -6 -7 -7 -7 -7 -7 -7 -7 -7 -7 -7 -7 -7 -7 -6 4 71 71 4 -6 -7 -7 -7 -7 -7 -7 -7 -7 -7 -6 -4 2 6 26 103 149 120 44 11 5 4 2 -4 -6 -6 -6 -7 -7 -7 -7 -7 -7 -7 -7 -7 -7 -7 -7 -7 -7 -7 -7 -7 -7 -7 -7 -7 -7 -7 -7 -6 4 70 71 4 -6 -7 -7 -7 -7 -7 -7 -7 -7 -7 -7 -7 -7 -7 -7 -7 -7 -6 -1 24 95 94 18 -4 -7 -7 -7 -7 -7 -7 -6 4 70 
70 4 -6 -7 -7 -7 -7 -7 -7 -7 -7 -7 -7 -7 -7 -7 -6 6 75 69 4 -6 -7 -7 -7 -7 -7 -7 -7 -6 -4 4 19 59 74 102 106 85 105 103 76 71 69 59 19 6 4 2 -4 -6 -6 -6 -6 -7 -7 -7 -7 -7 -7 -7 -7 -7 -7 -7 -7 -7 -7 -7 -7 -7 -7 -7 -6 4 71 70 4 -6 -7 -7 -7 -7 -7 -7 -7 -7 -7 -7 -7 -7 -7 -7 -7 -7 -7 -6 -1 26 101 64 5 -6 -7 -7 -7 -7 -7 -6 4 70 
70 4 -6 -7 -7 -7 -7 -7 -7 -7 -7 -7 -7 -7 -7 -7 -4 19 101 59 2 -6 -7 -7 -7 -7 -6 -6 -4 4 19 65 100 101 74 60 19 8 19 59 69 70 75 101 101 75 69 59 19 6 4 4 2 -4 -6 -6 -6 -7 -7 -7 -7 -7 -7 -7 -7 -7 -7 -7 -7 -7 -7 -7 -6 6 75 69 4 -6 -7 -7 -7 -7 -7 -7 -7 -7 -7 -7 -7 -7 -7 -7 -7 -7 -7 -7 -6 5 64 101 26 -2 -7 -7 -7 -7 -7 -6 4 70 
70 4 -6 -7 -7 -7 -7 -7 -7 -7 -7 -7 -7 -7 -7 -6 2 59 101 19 -4 -7 -7 -7 -6 -4 2 6 20 65 100 100 65 20 6 2 -4 -6 -4 2 4 4 6 19 59 69 75 101 101 75 70 69 59 19 6 4 2 -4 -6 -6 -6 -6 -7 -7 -7 -7 -7 -7 -7 -7 -7 -7 -4 19 101 59 2 -6 -7 -7 -7 -7 -7 -7 -7 -7 -7 -7 -7 -7 -7 -7 -7 -7 -7 -7 -7 -4 18 94 94 18 -4 -7 -7 -7 -7 -6 4 70 
70 4 -6 -7 -7 -7 -7 -7 -7 -7 -7 -7 -7 -7 -7 -6 4 69 75 6 -6 -7 -6 -4 4 19 59 74 101 100 65 19 4 -4 -6 -6 -7 -7 -7 -6 -6 -6 -6 -4 2 4 6 19 59 69 70 75 101 101 75 69 59 19 6 4 4 2 -4 -6 -6 -6 -7 -7 -7 -7 -7 -6 2 59 101 19 -4 -7 -7 -7 -7 -7 -7 -7 -7 -7 -7 -7 -7 -7 -7 -7 -7 -7 -7 -7 -7 -7 -2 26 101 64 5 -6 -7 -7 -7 -6 4 70 
70 4 -6 -7 -7 -7 -7 -7 -7 -7 -7 -7 -7 -7 -7 -6 4 71 71 4 -5 -4 4 19 65 100 101 74 59 19 4 -4 -6 -7 -7 -7 -7 -7 -7 -7 -7 -7 -7 -7 -6 -6 -6 -4 2 4 4 6 19 59 69 75 101 101 75 70 69 59 19 6 4 2 -4 -6 -6 -6 -6 -6 4 69 75 6 -6 -7 -7 -7 -7 -7 -7 -7 -7 -7 -7 -7 -7 -7 -7 -7 -7 -7 -7 -7 -7 -7 -6 5 64 101 26 -1 -7 -7 -7 -6 4 70 
70 4 -6 -7 -7 -7 -7 -7 -7 -7 -7 -7 -7 -7 -7 -6 6 75 70 7 5 19 65 100 100 65 20 6 2 -4 -6 -7 -7 -7 -7 -7 -7 -7 -7 -7 -7 -7 -7 -7 -7 -7 -7 -7 -6 -6 -6 -6 -4 2 4 6 19 59 69 70 75 101 101 75 69 59 19 6 4 4 2 -3 5 71 71 4 -6 -7 -7 -7 -7 -7 -7 -7 -7 -7 -7 -7 -7 -7 -7 -7 -7 -7 -7 -7 -7 -7 -7 -4 18 94 95 24 -2 -7 -7 -6 4 70 
70 4 -6 -7 -7 -7 -7 -7 -7 -7 -7 -7 -7 -7 -7 -4 20 104 71 29 65 100 100 65 19 4 -4 -6 -6 -7 -7 -7 -7 -7 -7 -7 -7 -7 -7 -7 -7 -7 -7 -7 -7 -7 -7 -7 -7 -7 -7 -7 -7 -6 -6 -6 -4 2 4 4 6 19 59 69 75 101 101 75 70 69 59 20 18 79 71 4 -6 -7 -7 -7 -7 -7 -7 -7 -7 -7 -7 -7 -7 -7 -7 -7 -7 -7 -7 -7 -7 -7 -7 -7 -2 24 95 94 18 -4 -7 -6 4 70 
70 4 -6 -7 -7 -7 -7 -7 -7 -7 -7 -7 -7 -7 -6 4 68 144 96 103 100 65 19 4 -4 -6 -7 -7 -7 -7 -7 -7 -7 -7 -7 -7 -7 -7 -7 -7 -7 -7 -7 -7 -7 -7 -7 -7 -7 -7 -7 -7 -7 -7 -7 -7 -7 -6 -6 -6 -6 -4 2 4 6 19 59 69 70 75 101 101 84 123 73 4 -6 -7 -7 -7 -7 -7 -7 -7 -7 -7 -7 -7 -7 -7 -7 -7 -7 -7 -7 -7 -7 -7 -7 -7 -7 -1 26 101 64 5 -6 -6 4 70 
70 4 -6 -7 -7 -7 -7 -7 -7 -7 -7 -7 -7 -7 -4 19 104 114 76 60 19 4 -4 -6 -7 -7 -7 -7 -7 -7 -7 -7 -7 -7 -7 -7 -7 -7 -7 -7 -7 -7 -7 -7 -7 -7 -7 -7 -7 -7 -7 -7 -7 -7 -7 -7 -7 -7 -7 -7 -7 -7 -6 -6 -6 -4 2 4 4 6 19 60 78 123 73 4 -6 -7 -7 -7 -7 -7 -7 -7 -7 -7 -7 -7 -7 -7 -7 -7 -7 -7 -7 -7 -7 -7 -7 -7 -7 -6 5 64 101 26 -1 -5 4 70 
70 4 -6 -7 -7 -7 -7 -7 -7 -7 -7 -7 -7 -6 5 65 101 28 7 2 -4 -6 -7 -7 -7 -7 -7 -7 -7 -7 -7 -7 -7 -7 -7 -7 -7 -7 -7 -7 -7 -7 -7 -7 -7 -7 -7 -7 -7 -7 -7 -7 -7 -7 -7 -7 -7 -7 -7 -7 -7 -7 -7 -7 -7 -7 -6 -6 -6 -6 -4 3 15 79 71 4 -6 -7 -7 -7 -7 -7 -7 -7 -7 -7 -7 -7 -7 -7 -7 -7 -7 -7 -7 -7 -7 -7 -7 -7 -7 -7 -4 18 94 95 24 -1 4 70 
70 4 -6 -7 -7 -7 -7 -7 -7 -7 -7 -7 -7 -2 26 101 65 5 -5 -6 -7 -7 -7 -7 -7 -7 -7 -7 -7 -7 -7 -7 -7 -7 -7 -7 -7 -7 -7 -7 -7 -7 -7 -7 -7 -7 -7 -7 -7 -7 -7 -7 -7 -7 -7 -7 -7 -7 -7 -7 -7 -7 -7 -7 -7 -7 -7 -7 -7 -7 -7 -5 5 71 70 4 -6 -7 -7 -7 -7 -7 -7 -7 -7 -7 -7 -7 -7 -7 -7 -7 -7 -7 -7 -7 -7 -7 -7 -7 -7 -7 -7 -2 24 95 94 19 7 70 
70 4 -6 -7 -7 -7 -7 -7 -7 -7 -7 -7 -4 18 94 94 18 -4 -7 -7 -7 -7 -7 -7 -7 -7 -7 -7 -7 -7 -7 -7 -7 -7 -7 -7 -7 -7 -7 -7 -7 -7 -7 -7 -7 -7 -7 -7 -7 -7 -7 -7 -7 -7 -7 -7 -7 -7 -7 -7 -7 -7 -7 -7 -7 -7 -7 -7 -7 -7 -7 -6 4 70 70 4 -6 -7 -7 -7 -7 -7 -7 -7 -7 -7 -7 -7 -7 -7 -7 -7 -7 -7 -7 -7 -7 -7 -7 -7 -7 -7 -7 -7 -1 26 101 65 16 71 
70 4 -6 -7 -7 -7 -7 -7 -7 -7 -7 -6 5 64 101 26 -2 -7 -7 -7 -7 -7 -7 -7 -7 -7 -7 -7 -7 -7 -7 -7 -7 -7 -7 -7 -7 -7 -7 -7 -7 -7 -7 -7 -7 -7 -7 -7 -7 -7 -7 -7 -7 -7 -7 -7 -7 -7 -7 -7 -7 -7 -7 -7 -7 -7 -7 -7 -7 -7 -7 -6 4 70 71 4 -6 -7 -7 -7 -7 -7 -7 -7 -7 -7 -7 -7 -7 -7 -7 -7 -7 -7 -7 -7 -7 -7 -7 -7 -7 -7 -7 -7 -6 5 64 101 37 75 
71 4 -6 -7 -7 -7 -7 -7 -7 -7 -6 -1 26 101 65 5 -6 -7 -7 -7 -7 -7 -7 -7 -7 -7 -7 -7 -7 -7 -7 -7 -7 -7 -7 -7 -7 -7 -7 -7 -7 -7 -7 -7 -7 -7 -7 -7 -7 -7 -7 -7 -7 -7 -7 -7 -7 -7 -7 -7 -7 -7 -7 -7 -7 -7 -7 -7 -7 -7 -7 -6 4 69 75 7 -6 -7 -7 -7 -7 -7 -7 -7 -7 -7 -7 -7 -7 -7 -7 -7 -7 -7 -7 -7 -7 -7 -7 -7 -7 -7 -7 -7 -7 -4 18 94 103 92 
72 4 -6 -7 -7 -7 -7 -7 -7 -6 -1 24 95 94 19 -3 -6 -7 -7 -7 -7 -7 -7 -7 -7 -7 -7 -7 -7 -7 -7 -7 -7 -7 -7 -7 -7 -7 -7 -7 -7 -7 -7 -7 -7 -7 -7 -7 -7 -7 -7 -7 -7 -7 -7 -7 -7 -7 -7 -7 -7 -7 -7 -7 -7 -7 -7 -7 -7 -7 -7 -5 5 68 105 27 -1 -6 -7 -7 -7 -7 -7 -7 -7 -7 -7 -7 -7 -7 -7 -7 -7 -7 -7 -7 -7 -7 -7 -7 -7 -7 -7 -7 -7 -7 -2 26 104 128 
74 4 -6 -7 -7 -7 -7 -7 -6 -1 24 98 104 35 9 4 2 -4 -6 -6 -6 -6 -6 -6 -6 -6 -6 -6 -6 -7 -7 -7 -7 -7 -7 -7 -7 -7 -7 -7 -7 -7 -7 -7 -7 -7 -7 -7 -7 -7 -7 -7 -7 -7 -7 -7 -7 -7 -7 -7 -7 -7 -7 -7 -7 -7 -7 -7 -7 -7 -4 4 22 81 145 104 26 5 -4 -6 -7 -7 -7 -7 -7 -7 -7 -7 -7 -7 -7 -7 -7 -7 -7 -7 -7 -7 -7 -7 -7 -7 -7 -7 -7 -7 -6 5 66 150 
73 4 -6 -7 -7 -7 -7 -6 -1 24 104 146 97 75 71 69 59 19 6 4 4 4 4 4 4 4 4 4 2 -4 -6 -6 -6 -6 -6 -6 -6 -6 -6 -6 -7 -7 -7 -7 -7 -7 -7 -7 -7 -7 -7 -7 -7 -7 -7 -7 -7 -7 -7 -7 -7 -7 -7 -7 -7 -7 -7 -7 -6 -2 18 64 100 103 85 106 101 65 19 4 -4 -7 -7 -7 -7 -7 -7 -7 -7 -7 -7 -7 -7 -7 -7 -7 -7 -7 -7 -7 -7 -7 -7 -7 -7 -7 -7 -4 20 112 
71 4 -6 -7 -7 -7 -6 -1 24 95 106 80 72 70 71 75 101 101 75 71 70 70 70 70 70 70 70 69 59 19 6 4 4 4 4 4 4 4 4 2 -4 -6 -6 -6 -6 -6 -6 -6 -6 -6 -6 -6 -7 -7 -7 -7 -7 -7 -7 -7 -7 -7 -7 -7 -7 -7 -6 -4 5 26 94 101 65 20 8 20 65 100 100 64 18 -2 -6 -7 -7 -7 -7 -7 -7 -7 -7 -7 -7 -7 -7 -7 -7 -7 -7 -7 -7 -7 -7 -7 -7 -7 -7 -6 6 77 
70 4 -6 -7 -7 -6 -1 24 94 95 26 7 4 4 4 6 19 59 69 70 70 70 70 70 70 70 71 75 101 101 75 71 70 70 70 70 70 70 69 59 19 6 4 4 4 4 4 4 4 4 4 2 -4 -6 -6 -6 -6 -6 -6 -6 -6 -6 -6 -7 -7 -4 4 19 65 101 94 26 5 -4 -6 -4 4 19 65 101 94 26 5 -4 -6 -7 -7 -7 -7 -7 -7 -7 -7 -7 -7 -7 -7 -7 -7 -7 -7 -7 -7 -7 -7 -7 -7 -6 4 71 
70 4 -6 -7 -6 -1 24 94 94 24 -1 -6 -6 -6 -6 -6 -4 2 4 4 4 4 4 4 4 4 4 6 19 59 69 70 70 70 70 70 70 71 75 101 101 75 71 70 70 70 70 70 70 70 69 59 19 6 4 4 4 4 4 4 4 4 2 -4 -2 18 64 100 100 64 18 -2 -6 -7 -7 -7 -6 -4 5 26 94 101 65 19 4 -4 -7 -7 -7 -7 -7 -7 -7 -7 -7 -7 -7 -7 -7 -7 -7 -7 -7 -7 -7 -7 -7 -6 4 70 
70 4 -6 -4 5 26 95 94 24 -1 -6 -7 -7 -7 -7 -7 -7 -6 -6 -6 -6 -6 -6 -6 -6 -6 -6 -6 -4 2 4 4 4 4 4 4 4 4 6 19 59 69 70 70 70 70 70 70 70 71 75 101 101 75 71 70 70 70 70 70 70 69 59 22 28 94 101 65 19 4 -4 -7 -7 -7 -7 -7 -7 -7 -6 -2 18 64 100 100 64 18 -2 -6 -7 -7 -7 -7 -7 -7 -7 -7 -7 -7 -7 -7 -7 -7 -7 -7 -7 -7 -7 -6 4 70 
70 5 -1 18 64 101 94 24 -1 -6 -7 -7 -7 -7 -7 -7 -7 -7 -7 -7 -7 -7 -7 -7 -7 -7 -7 -7 -7 -6 -6 -6 -6 -6 -6 -6 -6 -6 -6 -4 2 4 4 4 4 4 4 4 4 4 6 19 59 69 70 70 70 70 70 70 71 75 103 111 112 96 26 5 -4 -6 -7 -7 -7 -7 -7 -7 -7 -7 -7 -7 -4 4 19 65 101 94 26 5 -4 -6 -7 -7 -7 -7 -7 -7 -7 -7 -7 -7 -7 -7 -7 -7 -7 -7 -7 -6 4 70 
71 10 25 94 101 64 18 -2 -7 -7 -7 -7 -7 -7 -7 -7 -7 -7 -7 -7 -7 -7 -7 -7 -7 -7 -7 -7 -7 -7 -7 -7 -7 -7 -7 -7 -7 -7 -7 -7 -6 -6 -6 -6 -6 -6 -6 -6 -6 -6 -6 -4 2 4 4 4 4 4 4 4 4 7 28 114 114 27 -1 -6 -7 -7 -7 -7 -7 -7 -7 -7 -7 -7 -7 -7 -7 -6 -4 5 26 94 101 65 19 4 -4 -7 -7 -7 -7 -7 -7 -7 -7 -7 -7 -7 -7 -7 -7 -7 -7 -6 4 70 
75 36 95 95 26 5 -4 -7 -7 -7 -7 -7 -7 -7 -7 -7 -7 -7 -7 -7 -7 -7 -7 -7 -7 -7 -7 -7 -7 -7 -7 -7 -7 -7 -7 -7 -7 -7 -7 -7 -7 -7 -7 -7 -7 -7 -7 -7 -7 -7 -7 -7 -6 -6 -6 -6 -6 -6 -6 -6 -6 -5 7 77 77 7 -6 -7 -7 -7 -7 -7 -7 -7 -7 -7 -7 -7 -7 -7 -7 -7 -7 -6 -2 18 64 100 100 64 18 -2 -6 -7 -7 -7 -7 -7 -7 -7 -7 -7 -7 -7 -7 -7 -7 -6 4 70 
97 104 95 24 -1 -6 -7 -7 -7 -7 -7 -7 -7 -7 -7 -7 -7 -7 -7 -7 -7 -7 -7 -7 -7 -7 -7 -7 -7 -7 -7 -7 -7 -7 -7 -7 -7 -7 -7 -7 -7 -7 -7 -7 -7 -7 -7 -7 -7 -7 -7 -7 -7 -7 -7 -7 -7 -7 -7 -7 -7 -6 4 71 71 4 -6 -7 -7 -7 -7 -7 -7 -7 -7 -7 -7 -7 -7 -7 -7 -7 -7 -7 -7 -4 4 19 65 101 94 26 5 -4 -6 -7 -7 -7 -7 -7 -7 -7 -7 -7 -7 -7 -7 -6 4 71 
147 98 24 -1 -6 -7 -7 -7 -7 -7 -7 -7 -7 -7 -7 -7 -7 -7 -7 -7 -7 -7 -7 -7 -7 -7 -7 -7 -7 -7 -7 -7 -7 -7 -7 -7 -7 -7 -7 -7 -7 -7 -7 -7 -7 -7 -7 -7 -7 -7 -7 -7 -7 -7 -7 -7 -7 -7 -7 -7 -7 -6 4 70 70 4 -6 -7 -7 -7 -7 -7 -7 -7 -7 -7 -7 -7 -7 -7 -7 -7 -7 -7 -7 -7 -6 -4 5 26 94 101 65 19 4 -4 -6 -7 -7 -7 -7 -7 -7 -7 -7 -7 -7 -6 4 74 
113 27 -1 -6 -7 -7 -7 -7 -7 -7 -7 -7 -7 -7 -7 -7 -7 -7 -7 -7 -7 -7 -7 -7 -7 -7 -7 -7 -7 -7 -7 -7 -7 -7 -7 -7 -7 -7 -7 -7 -7 -7 -7 -7 -7 -7 -7 -7 -7 -7 -7 -7 -7 -7 -7 -7 -7 -7 -7 -7 -7 -6 4 70 70 4 -6 -7 -7 -7 -7 -7 -7 -7 -7 -7 -7 -7 -7 -7 -7 -7 -7 -7 -7 -7 -7 -7 -6 -2 18 64 100 100 65 19 4 -4 -7 -7 -7 -7 -7 -7 -7 -7 -7 -6 4 73 
77 7 -6 -7 -7 -7 -7 -7 -7 -7 -7 -7 -7 -7 -7 -7 -7 -7 -7 -7 -7 -7 -7 -7 -7 -7 -7 -7 -7 -7 -7 -7 -7 -7 -7 -7 -7 -7 -7 -7 -7 -7 -7 -7 -7 -7 -7 -7 -7 -7 -7 -7 -7 -7 -7 -7 -7 -7 -7 -7 -7 -6 4 70 70 4 -6 -7 -7 -7 -7 -7 -7 -7 -7 -7 -7 -7 -7 -7 -7 -7 -7 -7 -7 -7 -7 -7 -7 -7 -4 4 19 65 100 100 64 18 -2 -6 -7 -7 -7 -7 -7 -7 -7 -6 4 71 
71 4 -6 -7 -7 -7 -7 -7 -7 -7 -7 -7 -7 -7 -7 -7 -7 -7 -7 -7 -7 -7 -7 -7 -7 -7 -7 -7 -7 -7 -7 -7 -7 -7 -7 -7 -7 -7 -7 -7 -7 -7 -7 -7 -7 -7 -7 -7 -7 -7 -7 -7 -7 -7 -7 -7 -7 -7 -7 -7 -7 -6 4 70 70 4 -6 -7 -7 -7 -7 -7 -7 -7 -7 -7 -7 -7 -7 -7 -7 -7 -7 -7 -7 -7 -7 -7 -7 -7 -7 -6 -4 4 19 65 101 94 26 5 -4 -6 -6 -6 -7 -7 -7 -6 4 70 
70 4 -6 -7 -7 -7 -7 -7 -7 -7 -7 -7 -7 -7 -7 -7 -7 -7 -7 -7 -7 -7 -7 -7 -7 -7 -7 -7 -7 -7 -7 -7 -7 -7 -7 -7 -7 -7 -7 -7 -7 -7 -7 -7 -7 -7 -7 -7 -7 -7 -7 -7 -7 -7 -7 -7 -7 -7 -7 -7 -7 -6 4 70 70 4 -6 -7 -7 -7 -7 -7 -7 -7 -7 -7 -7 -7 -7 -7 -7 -7 -7 -7 -7 -7 -7 -7 -7 -7 -7 -7 -7 -6 -4 5 26 95 102 66 20 6 4 2 -4 -6 -6 -5 4 70 
70 4 -6 -7 -7 -7 -7 -7 -7 -7 -7 -7 -7 -7 -7 -7 -7 -7 -7 -7 -7 -7 -7 -7 -7 -7 -7 -7 -7 -7 -7 -7 -7 -7 -7 -7 -7 -7 -7 -7 -7 -7 -7 -7 -7 -7 -7 -7 -7 -7 -7 -7 -7 -7 -7 -7 -7 -7 -7 -7 -7 -6 4 70 70 4 -6 -7 -7 -7 -7 -7 -7 -7 -7 -7 -7 -7 -7 -7 -7 -7 -7 -7 -7 -7 -7 -7 -7 -7 -7 -7 -7 -7 -6 -5 0 29 87 144 112 77 69 59 19 6 4 3 7 71 
71 4 -6 -7 -7 -7 -7 -7 -7 -7 -7 -7 -7 -7 -7 -7 -7 -7 -7 -7 -7 -7 -7 -7 -7 -7 -7 -7 -7 -7 -7 -7 -7 -7 -7 -7 -7 -7 -7 -7 -7 -7 -7 -7 -7 -7 -7 -7 -7 -7 -7 -7 -7 -7 -7 -7 -7 -7 -7 -7 -7 -6 4 70 70 4 -6 -7 -7 -7 -7 -7 -7 -7 -7 -7 -7 -7 -7 -7 -7 -7 -7 -7 -7 -7 -7 -7 -7 -7 -7 -7 -6 -4 2 6 20 67 109 108 79 72 75 101 101 75 69 60 30 80 
74 5 -5 -6 -6 -6 -6 -6 -6 -7 -7 -7 -7 -7 -7 -7 -7 -7 -7 -7 -7 -7 -7 -7 -7 -7 -7 -7 -7 -7 -7 -7 -7 -7 -7 -7 -7 -7 -7 -7 -7 -7 -7 -7 -7 -7 -7 -7 -7 -7 -7 -7 -7 -7 -7 -7 -7 -7 -7 -7 -7 -6 4 70 70 4 -6 -7 -7 -7 -7 -7 -7 -7 -7 -7 -7 -7 -7 -7 -7 -7 -7 -7 -7 -7 -7 -7 -7 -6 -6 -4 4 19 59 74 101 100 65 20 6 4 6 19 59 69 75 101 109 127 
81 16 5 4 4 4 4 4 2 -4 -6 -6 -6 -6 -6 -6 -6 -7 -7 -7 -7 -7 -7 -7 -7 -7 -7 -7 -7 -7 -7 -7 -7 -7 -7 -7 -7 -7 -7 -7 -7 -7 -7 -7 -7 -7 -7 -7 -7 -7 -7 -7 -7 -7 -7 -7 -7 -7 -7 -7 -7 -6 4 70 70 4 -6 -7 -7 -7 -7 -7 -7 -7 -7 -7 -7 -7 -7 -7 -7 -7 -7 -7 -7 -7 -7 -6 -4 2 6 20 65 100 101 74 59 19 4 -4 -6 -6 -6 -4 2 4 6 20 68 122 
123 79 71 70 70 70 70 69 59 19 6 4 4 4 4 4 2 -4 -6 -6 -6 -6 -6 -6 -6 -6 -7 -7 -7 -7 -7 -7 -7 -7 -7 -7 -7 -7 -7 -7 -7 -7 -7 -7 -7 -7 -7 -7 -7 -7 -7 -7 -7 -7 -7 -7 -7 -7 -7 -7 -7 -6 4 70 70 4 -6 -7 -7 -7 -7 -7 -7 -7 -7 -7 -7 -7 -7 -7 -7 -7 -7 -7 -6 -6 -4 4 19 59 74 101 100 65 20 6 2 -4 -6 -7 -7 -7 -7 -7 -6 -6 -6 -3 14 81 
123 79 71 70 70 70 71 75 101 101 75 71 70 70 70 69 59 19 6 4 4 4 4 4 4 2 -4 -6 -6 -6 -6 -6 -6 -6 -7 -7 -7 -7 -7 -7 -7 -7 -7 -7 -7 -7 -7 -7 -7 -7 -7 -7 -7 -7 -7 -7 -7 -7 -7 -7 -7 -6 4 70 70 4 -6 -7 -7 -7 -7 -7 -7 -7 -7 -7 -7 -7 -7 -7 -7 -7 -6 -4 2 6 20 65 100 101 74 59 19 4 -4 -6 -6 -7 -7 -7 -7 -7 -7 -7 -7 -7 -7 -6 5 74 
79 16 5 4 4 4 4 6 19 59 69 70 70 70 71 75 101 101 75 71 70 70 70 70 69 59 19 6 4 4 4 4 4 2 -4 -6 -6 -6 -6 -6 -6 -6 -6 -7 -7 -7 -7 -7 -7 -7 -7 -7 -7 -7 -7 -7 -7 -7 -7 -7 -7 -6 4 70 70 4 -6 -7 -7 -7 -7 -7 -7 -7 -7 -7 -7 -7 -7 -7 -6 -4 4 19 59 74 101 100 65 20 6 2 -4 -6 -7 -7 -7 -7 -7 -7 -7 -7 -7 -7 -7 -7 -7 -6 4 71 
71 5 -5 -6 -6 -6 -6 -6 -4 2 4 4 4 4 4 6 19 59 69 70 70 70 70 71 75 101 101 75 71 70 70 70 69 59 19 6 4 4 4 4 4 4 2 -4 -6 -6 -6 -6 -6 -6 -6 -7 -7 -7 -7 -7 -7 -7 -7 -7 -7 -6 4 70 70 4 -6 -7 -7 -7 -7 -7 -7 -7 -7 -7 -7 -6 -6 -4 4 19 65 100 101 74 59 19 4 -4 -6 -6 -7 -7 -7 -7 -7 -7 -7 -7 -7 -7 -7 -7 -7 -7 -7 -6 4 70 
70 4 -6 -7 -7 -7 -7 -7 -7 -6 -6 -6 -6 -6 -6 -6 -4 2 4 4 4 4 4 4 6 19 59 69 70 70 70 71 75 101 101 75 71 70 70 70 70 69 59 19 6 4 4 4 4 4 2 -4 -6 -6 -6 -6 -6 -6 -6 -6 -7 -6 4 70 70 4 -6 -7 -7 -7 -7 -7 -7 -7 -7 -6 -4 2 6 20 65 100 100 65 20 6 2 -4 -6 -7 -7 -7 -7 -7 -7 -7 -7 -7 -7 -7 -7 -7 -7 -7 -7 -7 -7 -6 4 70 
70 4 -6 -7 -7 -7 -7 -7 -7 -7 -7 -7 -7 -7 -7 -7 -7 -6 -6 -6 -6 -6 -6 -6 -6 -4 2 4 4 4 4 4 6 19 59 69 70 70 70 70 71 75 101 101 75 71 70 70 70 69 59 19 6 4 4 4 4 4 4 2 -4 -5 5 71 71 4 -6 -7 -7 -7 -7 -7 -6 -6 -4 4 19 59 74 101 100 65 19 4 -4 -6 -6 -7 -7 -7 -7 -7 -7 -7 -7 -7 -7 -7 -7 -7 -7 -7 -7 -7 -7 -7 -7 -6 4 70 
70 4 -6 -7 -7 -7 -7 -7 -7 -7 -7 -7 -7 -7 -7 -7 -7 -7 -7 -7 -7 -7 -7 -7 -7 -7 -6 -6 -6 -6 -6 -6 -6 -4 2 4 4 4 4 4 4 6 19 59 69 70 70 70 71 75 101 101 75 71 70 70 70 70 69 59 19 7 16 79 77 7 -6 -7 -7 -7 -6 -4 2 6 20 65 100 101 74 59 19 4 -4 -6 -7 -7 -7 -7 -7 -7 -7 -7 -7 -7 -7 -7 -7 -7 -7 -7 -7 -7 -7 -7 -7 -7 -7 -6 4 70 
70 4 -6 -7 -7 -7 -7 -7 -7 -7 -7 -7 -7 -7 -7 -7 -7 -7 -7 -7 -7 -7 -7 -7 -7 -7 -7 -7 -7 -7 -7 -7 -7 -7 -6 -6 -6 -6 -6 -6 -6 -6 -4 2 4 4 4 4 4 6 19 59 69 70 70 70 70 71 75 101 101 76 79 123 114 27 -1 -6 -6 -4 4 19 59 74 101 100 65 20 6 2 -4 -6 -7 -7 -7 -7 -7 -7 -7 -7 -7 -7 -7 -7 -7 -7 -7 -7 -7 -7 -7 -7 -7 -7 -7 -7 -7 -6 4 70 
70 4 -6 -7 -7 -7 -7 -7 -7 -7 -7 -7 -7 -7 -7 -7 -7 -7 -7 -7 -7 -7 -7 -7 -7 -7 -7 -7 -7 -7 -7 -7 -7 -7 -7 -7 -7 -7 -7 -7 -7 -7 -7 -6 -6 -6 -6 -6 -6 -6 -4 2 4 4 4 4 4 4 6 19 59 69 71 79 107 95 26 7 6 20 65 100 101 74 59 19 4 -4 -6 -6 -7 -7 -7 -7 -7 -7 -7 -7 -7 -7 -7 -7 -7 -7 -7 -7 -7 -7 -7 -7 -7 -7 -7 -7 -7 -7 -7 -6 4 70 
70 4 -6 -7 -7 -7 -7 -7 -7 -7 -7 -7 -7 -7 -7 -7 -7 -7 -7 -7 -7 -7 -7 -7 -7 -7 -7 -7 -7 -7 -7 -7 -7 -7 -7 -7 -7 -7 -7 -7 -7 -7 -7 -7 -7 -7 -7 -7 -7 -7 -7 -6 -6 -6 -6 -6 -6 -6 -6 -4 2 4 4 7 26 95 107 80 76 101 100 65 20 6 2 -4 -6 -7 -7 -7 -7 -7 -7 -7 -7 -7 -7 -7 -7 -7 -7 -7 -7 -7 -7 -7 -7 -7 -7 -7 -7 -7 -7 -7 -7 -7 -7 -6 4 70 
70 4 -6 -7 -7 -7 -7 -7 -7 -7 -7 -7 -7 -7 -7 -7 -7 -7 -7 -7 -7 -7 -7 -7 -7 -7 -7 -7 -7 -7 -7 -7 -7 -7 -7 -7 -7 -7 -7 -7 -7 -7 -7 -7 -7 -7 -7 -7 -7 -7 -7 -7 -7 -7 -7 -7 -7 -7 -7 -7 -6 -6 -6 -6 -1 27 114 123 77 60 19 4 -4 -6 -6 -7 -7 -7 -7 -7 -7 -7 -7 -7 -7 -7 -7 -7 -7 -7 -7 -7 -7 -7 -7 -7 -7 -7 -7 -7 -7 -7 -7 -7 -7 -7 -7 -6 4 70 
70 4 -6 -7 -7 -7 -7 -7 -7 -7 -7 -7 -7 -7 -7 -7 -7 -7 -7 -7 -7 -7 -7 -7 -7 -7 -7 -7 -7 -7 -7 -7 -7 -7 -7 -7 -7 -7 -7 -7 -7 -7 -7 -7 -7 -7 -7 -7 -7 -7 -7 -7 -7 -7 -7 -7 -7 -7 -7 -7 -7 -7 -7 -7 -6 7 77 79 15 3 -4 -6 -7 -7 -7 -7 -7 -7 -7 -7 -7 -7 -7 -7 -7 -7 -7 -7 -7 -7 -7 -7 -7 -7 -7 -7 -7 -7 -7 -7 -7 -7 -7 -7 -7 -7 -7 -6 4 70 
70 4 -6 -7 -7 -7 -7 -7 -7 -7 -7 -7 -7 -7 -7 -7 -7 -7 -7 -7 -7 -7 -7 -7 -7 -7 -7 -7 -7 -7 -7 -7 -7 -7 -7 -7 -7 -7 -7 -7 -7 -7 -7 -7 -7 -7 -7 -7 -7 -7 -7 -7 -7 -7 -7 -7 -7 -7 -7 -7 -7 -7 -7 -7 -6 4 71 71 5 -5 -7 -7 -7 -7 -7 -7 -7 -7 -7 -7 -7 -7 -7 -7 -7 -7 -7 -7 -7 -7 -7 -7 -7 -7 -7 -7 -7 -7 -7 -7 -7 -7 -7 -7 -7 -7 -7 -6 4 70 
71 5 -5 -6 -6 -6 -6 -6 -6 -6 -6 -6 -6 -6 -6 -6 -6 -6 -6 -6 -6 -6 -6 -6 -6 -6 -6 -6 -6 -6 -6 -6 -6 -6 -6 -6 -6 -6 -6 -6 -6 -6 -6 -6 -6 -6 -6 -6 -6 -6 -6 -6 -6 -6 -6 -6 -6 -6 -6 -6 -6 -6 -6 -6 -5 5 71 71 5 -5 -6 -6 -6 -6 -6 -6 -6 -6 -6 -6 -6 -6 -6 -6 -6 -6 -6 -6 -6 -6 -6 -6 -6 -6 -6 -6 -6 -6 -6 -6 -6 -6 -6 -6 -6 -6 -6 -5 5 71 
79 16 5 4 4 4 4 4 4 4 4 4 4 4 4 4 4 4 4 4 4 4 4 4 4 4 4 4 4 4 4 4 4 4 4 4 4 4 4 4 4 4 4 4 4 4 4 4 4 4 4 4 4 4 4 4 4 4 4 4 4 4 4 4 5 16 79 79 16 5 4 4 4 4 4 4 4 4 4 4 4 4 4 4 4 4 4 4 4 4 4 4 4 4 4 4 4 4 4 4 4 4 4 4 4 4 4 5 16 79 
126 79 71 70 70 70 70 70 70 70 70 70 70 70 70 70 70 70 70 70 70 70 70 70 70 70 70 70 70 70 70 70 71 74 73 71 70 70 70 70 70 70 70 70 70 70 70 70 71 73 73 71 70 70 70 70 70 70 70 70 70 70 70 70 71 79 123 123 79 71 70 70 70 70 70 70 70 70 70 70 70 70 70 70 70 70 70 70 70 70 70 71 74 73 71 70 70 70 70 70 70 70 70 71 74 73 71 71 79 126 
