P2
110 110
255
149 126 107 99 96 95 95 94 94 94 94 94 94 94 94 94 94 94 94 94 94 94 94 94 94 95 95 95 96 100 108 122 134 133 120 107 99 96 95 95 94 94 94 95 95 96 98 105 120 135 134 118 105 98 95 95 95 94 94 94 94 95 95 95 96 98 101 101 98 96 95 95 95 94 94 94 94 94 94 94 94 94 94 94 94 95 95 95 98 104 117 132 135 123 109 100 96 95 95 95 97 102 114 130 136 126 114 113 128 149 
126 94 68 56 53 51 51 51 51 51 51 51 51 51 51 51 51 51 51 51 51 51 51 51 51 51 51 53 56 64 83 111 130 118 90 68 57 53 52 51 51 51 51 51 52 53 58 71 98 128 126 94 68 57 53 51 51 51 51 51 51 51 51 51 50 50 49 49 50 50 51 51 51 51 51 51 51 51 51 51 51 51 51 51 51 51 52 53 58 72 98 126 125 97 72 58 53 52 52 52 56 66 89 121 129 103 80 76 97 127 
107 68 37 24 20 18 18 18 18 18 18 18 18 18 18 18 18 18 18 18 18 18 18 18 18 18 19 21 28 43 72 106 112 83 51 31 23 19 18 18 18 18 18 18 19 21 27 45 80 117 109 68 37 24 20 18 18 18 18 18 18 18 18 18 18 17 17 17 17 18 18 18 18 18 18 18 18 18 18 18 18 18 18 18 18 18 19 22 30 50 86 114 99 62 36 24 20 19 19 20 25 38 69 107 109 74 46 45 70 108 
99 56 24 10 6 4 4 4 4 4 4 4 4 4 4 4 4 4 4 4 4 4 4 4 4 5 6 11 22 47 83 106 90 53 25 12 7 5 4 4 4 4 4 4 5 8 17 40 80 118 102 55 23 10 6 4 4 4 4 4 4 4 4 4 4 4 4 4 4 4 4 4 4 4 4 4 4 4 4 4 4 4 4 4 4 4 6 10 21 48 89 106 76 38 16 8 5 4 5 6 13 30 65 103 95 54 29 30 58 99 
96 53 20 6 1 0 0 0 0 0 0 0 0 0 0 0 0 0 0 0 0 0 0 0 0 1 4 13 32 66 99 98 64 31 12 4 1 0 0 0 0 0 0 0 2 7 20 50 95 126 100 50 19 5 1 0 0 0 0 0 0 0 0 0 0 0 0 0 0 0 0 0 0 0 0 0 0 0 0 0 0 0 0 0 0 0 2 8 24 58 97 96 57 24 8 2 0 0 0 3 11 32 72 103 83 42 21 24 54 96 
95 51 18 4 0 0 -1 -1 -1 -1 -1 -1 -1 -1 -1 -1 -1 -1 -1 -1 -1 -1 -1 -1 0 1 8 23 52 89 102 76 40 16 5 0 0 -1 -1 -1 -1 -1 0 0 2 11 31 69 114 134 101 50 18 4 0 0 -1 -1 -1 -1 -1 -1 -1 -1 -1 -1 -1 -1 -1 -1 -1 -1 -1 -1 -1 -1 -1 -1 -1 -1 -1 -1 -1 -1 0 0 2 12 34 73 103 83 42 15 4 0 0 0 0 3 13 40 82 102 71 32 16 22 52 95 
95 51 18 4 0 -1 -1 -1 -1 -1 -1 -1 -1 -1 -1 -1 -1 -1 -1 -1 -1 -1 -1 0 0 4 16 40 77 102 88 51 22 7 1 0 -1 -1 -1 -1 -1 -1 0 0 6 19 48 91 127 135 104 53 20 5 0 -1 -1 -1 -1 -1 -1 -1 -1 -1 -1 -1 -1 -1 -1 -1 -1 -1 -1 -1 -1 -1 -1 -1 -1 -1 -1 -1 -1 -1 -1 0 5 19 49 89 100 66 29 9 1 0 -1 -1 0 4 18 49 91 98 59 25 12 20 52 95 
94 51 18 4 0 -1 -1 -1 -1 -1 -1 -1 -1 -1 -1 -1 -1 -1 -1 -1 -1 -1 -1 0 2 11 30 64 97 97 64 30 11 2 0 -1 -1 -1 -1 -1 -1 -1 0 3 12 33 70 108 124 127 107 60 24 6 0 -1 -1 -1 -1 -1 -1 -1 -1 -1 -1 -1 -1 -1 -1 -1 -1 -1 -1 -1 -1 -1 -1 -1 -1 -1 -1 -1 -1 -1 0 1 9 29 66 100 89 49 19 5 0 -1 -1 -1 0 6 23 59 98 91 49 19 10 20 51 95 
95 51 18 4 0 -1 -1 -1 -1 -1 -1 -1 -1 -1 -1 -1 -1 -1 -1 -1 -1 -1 0 1 7 22 51 88 102 76 40 16 4 0 -1 -1 -1 -1 -1 -1 -1 0 1 7 23 53 92 110 106 111 109 70 30 9 1 0 -1 -1 -1 -1 -1 -1 -1 -1 -1 -1 -1 -1 -1 -1 -1 -1 -1 -1 -1 -1 -1 -1 -1 -1 -1 -1 -1 -1 0 3 15 42 83 102 73 34 11 2 0 -1 -1 0 1 9 30 70 102 82 40 15 9 19 51 95 
95 51 18 4 0 -1 -1 -1 -1 -1 -1 -1 -1 -1 -1 -1 -1 -1 -1 -1 -1 -1 0 4 16 40 76 102 88 51 22 7 1 0 -1 -1 -1 -1 -1 -1 -1 0 4 15 40 77 104 96 80 91 107 81 38 12 2 0 -1 -1 -1 -1 -1 -1 -1 -1 -1 -1 -1 -1 -1 -1 -1 -1 -1 -1 -1 -1 -1 -1 -1 -1 -1 -1 -1 0 0 6 23 56 96 96 56 23 6 0 0 -1 -1 0 2 13 39 82 102 70 31 11 7 19 51 95 
95 52 18 4 0 -1 -1 -1 -1 -1 -1 -1 -1 -1 -1 -1 -1 -1 -1 -1 -1 0 2 11 30 64 97 97 64 30 11 2 0 -1 -1 -1 -1 -1 -1 -1 0 2 10 29 63 97 99 72 56 73 103 88 44 15 3 0 -1 -1 -1 -1 -1 -1 -1 -1 -1 -1 -1 -1 -1 -1 -1 -1 -1 -1 -1 -1 -1 -1 -1 -1 -1 -1 -1 0 2 11 34 73 102 83 42 15 3 0 -1 -1 -1 0 4 18 49 91 98 59 23 8 6 19 51 95 
96 53 19 5 0 -1 -1 -1 -1 -1 -1 -1 -1 -1 -1 -1 -1 -1 -1 -1 0 1 7 22 51 88 102 76 40 16 4 0 -1 -1 -1 -1 -1 -1 -1 -1 0 5 19 47 86 103 79 47 38 61 98 92 48 17 4 0 -1 -1 -1 -1 -1 -1 -1 -1 -1 -1 -1 -1 -1 -1 -1 -1 -1 -1 -1 -1 -1 -1 -1 -1 -1 -1 -1 0 5 19 49 89 100 66 29 9 1 0 -1 -1 -1 0 6 23 59 98 91 49 18 6 6 18 51 95 
99 57 22 6 0 0 -1 -1 -1 -1 -1 -1 -1 -1 -1 -1 -1 -1 -1 -1 0 4 16 40 76 102 88 51 22 7 1 0 -1 -1 -1 -1 -1 -1 -1 0 2 11 32 69 101 91 55 29 28 55 95 95 52 18 4 0 -1 -1 -1 -1 -1 -1 -1 -1 -1 -1 -1 -1 -1 -1 -1 -1 -1 -1 -1 -1 -1 -1 -1 -1 -1 -1 0 1 9 29 66 100 89 49 19 5 0 -1 -1 -1 0 1 9 30 70 102 82 39 13 4 5 18 50 95 
107 67 30 10 2 0 -1 -1 -1 -1 -1 -1 -1 -1 -1 -1 -1 -1 -1 0 2 11 30 64 97 97 64 30 11 2 0 -1 -1 -1 -1 -1 -1 -1 0 0 6 20 50 89 101 71 35 18 22 50 92 97 55 21 5 0 -1 -1 -1 -1 -1 -1 -1 -1 -1 -1 -1 -1 -1 -1 -1 -1 -1 -1 -1 -1 -1 -1 -1 -1 -1 -1 0 3 15 42 83 102 73 34 11 2 0 -1 -1 -1 0 2 13 39 82 102 70 30 10 3 5 18 50 96 
120 88 46 20 7 1 0 -1 -1 -1 -1 -1 -1 -1 -1 -1 -1 -1 0 1 7 22 51 88 102 76 40 16 4 0 -1 -1 -1 -1 -1 -1 -1 -1 0 3 12 34 71 101 89 50 21 11 17 45 88 100 61 24 7 0 -1 -1 -1 -1 -1 -1 -1 -1 -1 -1 -1 -1 -1 -1 -1 -1 -1 -1 -1 -1 -1 -1 -1 -1 -1 0 0 6 23 56 96 96 56 23 6 0 0 -1 -1 -1 0 4 18 49 91 98 59 23 7 2 4 17 49 98 
132 114 75 40 17 6 1 0 -1 -1 -1 -1 -1 -1 -1 -1 -1 -1 0 4 16 40 76 102 88 51 22 7 1 0 -1 -1 -1 -1 -1 -1 -1 0 1 7 23 53 91 101 69 32 12 6 13 38 81 102 71 30 9 1 0 -1 -1 -1 -1 -1 -1 -1 -1 -1 -1 -1 -1 -1 -1 -1 -1 -1 -1 -1 -1 -1 -1 -1 -1 0 2 11 34 73 102 83 42 15 3 0 -1 -1 -1 -1 0 6 23 59 98 91 49 18 4 1 4 17 49 100 
135 130 104 69 36 14 4 0 0 -1 -1 -1 -1 -1 -1 -1 -1 0 2 11 30 64 97 97 64 30 11 2 0 -1 -1 -1 -1 -1 -1 -1 -1 0 4 15 40 77 102 86 47 19 6 3 10 31 71 102 80 38 12 2 0 -1 -1 -1 -1 -1 -1 -1 -1 -1 -1 -1 -1 -1 -1 -1 -1 -1 -1 -1 -1 -1 -1 -1 -1 0 5 19 49 89 100 66 29 9 1 0 -1 -1 -1 0 1 9 30 70 102 82 39 13 3 1 4 17 49 100 
125 120 114 97 62 30 11 3 0 -1 -1 -1 -1 -1 -1 -1 0 1 7 22 51 88 102 76 40 16 4 0 -1 -1 -1 -1 -1 -1 -1 -1 0 2 10 29 63 97 97 63 29 10 2 1 7 24 61 100 88 44 15 3 0 -1 -1 -1 -1 -1 -1 -1 -1 -1 -1 -1 -1 -1 -1 -1 -1 -1 -1 -1 -1 -1 -1 -1 0 1 9 29 66 100 89 49 19 5 0 -1 -1 -1 -1 0 2 13 39 82 102 70 30 9 2 0 4 17 50 98 
112 97 98 106 88 52 24 9 2 0 -1 -1 -1 -1 -1 -1 0 4 16 40 76 102 88 51 22 7 1 0 -1 -1 -1 -1 -1 -1 -1 -1 0 5 19 47 86 102 77 40 16 4 0 0 5 21 55 97 92 48 17 4 0 -1 -1 -1 -1 -1 -1 -1 -1 -1 -1 -1 -1 -1 -1 -1 -1 -1 -1 -1 -1 -1 -1 -1 0 3 15 42 83 102 73 34 11 2 0 -1 -1 -1 -1 0 4 18 49 91 98 59 23 6 1 0 4 18 50 97 
103 77 73 94 103 80 45 21 7 2 0 -1 -1 -1 -1 0 2 11 30 64 97 97 64 30 11 2 0 -1 -1 -1 -1 -1 -1 -1 -1 0 2 11 32 69 101 91 53 23 7 1 0 0 4 18 52 95 95 52 18 4 0 -1 -1 -1 -1 -1 -1 -1 -1 -1 -1 -1 -1 -1 -1 -1 -1 -1 -1 -1 -1 -1 -1 0 0 6 23 56 96 96 56 23 6 0 0 -1 -1 -1 -1 0 6 23 59 98 91 49 18 4 0 0 4 18 51 95 
99 64 50 68 96 100 74 42 19 7 1 0 -1 -1 0 1 7 22 51 88 102 76 40 16 4 0 -1 -1 -1 -1 -1 -1 -1 -1 0 0 6 20 50 89 101 71 34 12 3 0 0 0 4 17 48 92 97 55 21 5 0 -1 -1 -1 -1 -1 -1 -1 -1 -1 -1 -1 -1 -1 -1 -1 -1 -1 -1 -1 -1 -1 -1 0 2 11 34 73 102 83 42 15 3 0 -1 -1 -1 -1 0 1 9 30 70 102 82 39 13 3 0 0 4 18 51 95 
96 57 35 42 71 98 99 73 42 19 7 2 0 0 0 4 16 40 76 102 88 51 22 7 1 0 -1 -1 -1 -1 -1 -1 -1 -1 0 3 12 34 71 101 89 50 20 6 0 0 -1 0 3 15 44 88 100 61 24 7 0 -1 -1 -1 -1 -1 -1 -1 -1 -1 -1 -1 -1 -1 -1 -1 -1 -1 -1 -1 -1 -1 -1 0 5 19 49 89 100 66 29 9 1 0 -1 -1 -1 -1 0 2 13 39 82 102 70 30 9 1 0 0 4 18 51 95 
95 54 26 24 42 72 99 99 73 41 19 7 2 1 3 11 30 64 97 97 64 30 11 2 0 -1 -1 -1 -1 -1 -1 -1 -1 0 1 7 23 53 91 101 69 32 11 2 0 -1 -1 0 2 12 38 80 102 71 30 9 1 0 -1 -1 -1 -1 -1 -1 -1 -1 -1 -1 -1 -1 -1 -1 -1 -1 -1 -1 -1 -1 0 1 9 29 66 100 89 49 19 5 0 -1 -1 -1 -1 -1 0 4 18 49 91 98 59 23 6 0 0 0 4 18 51 95 
95 52 21 13 20 42 73 99 99 73 41 19 8 5 8 23 52 88 102 76 40 16 4 0 -1 -1 -1 -1 -1 -1 -1 -1 -1 0 4 15 40 77 102 86 47 19 5 0 -1 -1 -1 0 1 9 30 71 102 81 38 12 2 0 -1 -1 -1 -1 -1 -1 -1 -1 -1 -1 -1 -1 -1 -1 -1 -1 -1 -1 -1 -1 0 3 15 42 83 102 73 34 11 2 0 -1 -1 -1 -1 -1 0 6 23 59 98 91 49 18 4 0 0 0 4 18 51 95 
95 51 19 8 9 20 41 73 99 99 73 42 21 14 20 41 77 102 88 51 22 7 1 0 -1 -1 -1 -1 -1 -1 -1 -1 0 2 10 29 63 97 97 63 29 10 2 0 -1 -1 -1 -1 0 7 24 61 100 88 45 15 3 0 -1 -1 -1 -1 -1 -1 -1 -1 -1 -1 -1 -1 -1 -1 -1 -1 -1 -1 -1 0 0 6 23 56 96 96 56 23 6 0 0 -1 -1 -1 -1 0 1 9 30 70 102 82 39 13 3 0 0 0 4 18 51 94 
95 51 18 5 3 7 19 41 73 99 99 74 46 33 40 68 98 97 64 30 11 2 0 -1 -1 -1 -1 -1 -1 -1 -1 -1 0 5 19 47 86 102 77 40 15 4 0 -1 -1 -1 -1 -1 0 5 20 54 96 93 50 18 4 0 -1 -1 -1 -1 -1 -1 -1 -1 -1 -1 -1 -1 -1 -1 -1 -1 -1 -1 -1 0 2 11 34 73 102 83 42 15 3 0 -1 -1 -1 -1 -1 0 2 13 39 82 102 70 30 9 1 0 -1 0 4 18 51 94 
94 51 18 4 1 2 7 19 41 73 99 101 81 65 72 95 103 76 40 16 4 0 -1 -1 -1 -1 -1 -1 -1 -1 -1 0 2 11 32 69 101 91 53 23 7 1 0 -1 -1 -1 -1 -1 0 4 18 50 93 96 54 20 5 0 -1 -1 -1 -1 -1 -1 -1 -1 -1 -1 -1 -1 -1 -1 -1 -1 -1 -1 -1 0 5 19 49 89 100 66 29 9 1 0 -1 -1 -1 -1 -1 0 4 18 49 91 98 59 23 6 0 0 -1 0 4 18 51 94 
94 51 18 4 0 0 2 7 19 41 73 101 111 107 110 112 89 51 22 7 1 0 -1 -1 -1 -1 -1 -1 -1 -1 0 0 6 20 50 89 101 71 34 12 3 0 -1 -1 -1 -1 -1 -1 0 3 15 45 88 100 61 24 7 0 -1 -1 -1 -1 -1 -1 -1 -1 -1 -1 -1 -1 -1 -1 -1 -1 -1 -1 0 1 9 29 66 100 89 49 19 5 0 -1 -1 -1 -1 -1 -1 0 6 23 59 98 91 49 18 4 0 -1 -1 0 4 18 51 94 
94 51 18 4 0 0 0 2 7 19 42 76 111 132 132 106 65 30 11 2 0 -1 -1 -1 -1 -1 -1 -1 -1 -1 0 3 12 34 71 101 89 50 20 6 0 0 -1 -1 -1 -1 -1 -1 0 2 12 38 81 102 71 30 9 1 0 -1 -1 -1 -1 -1 -1 -1 -1 -1 -1 -1 -1 -1 -1 -1 -1 -1 0 3 15 42 83 102 73 34 11 2 0 -1 -1 -1 -1 -1 0 1 9 30 70 102 82 39 13 2 0 -1 -1 0 4 18 51 94 
94 51 18 4 0 -1 -1 0 2 8 21 47 88 127 127 86 43 17 5 0 -1 -1 -1 -1 -1 -1 -1 -1 -1 0 1 7 23 53 91 101 69 32 11 2 0 -1 -1 -1 -1 -1 -1 -1 0 1 9 30 71 102 80 38 12 2 0 -1 -1 -1 -1 -1 -1 -1 -1 -1 -1 -1 -1 -1 -1 -1 -1 0 0 6 23 56 96 96 56 23 6 0 0 -1 -1 -1 -1 -1 0 2 13 39 82 102 70 30 9 1 0 -1 -1 0 4 18 51 94 
94 51 18 4 0 -1 -1 -1 0 2 10 28 65 109 113 71 31 10 2 0 -1 -1 -1 -1 -1 -1 -1 -1 -1 0 4 15 40 77 102 86 47 19 5 0 -1 -1 -1 -1 -1 -1 -1 -1 -1 0 7 24 61 100 88 44 15 3 0 -1 -1 -1 -1 -1 -1 -1 -1 -1 -1 -1 -1 -1 -1 -1 -1 0 2 11 34 73 102 83 42 15 3 0 -1 -1 -1 -1 -1 -1 0 4 18 49 91 98 59 23 6 0 -1 -1 -1 0 4 18 51 94 
94 51 18 4 0 -1 -1 -1 0 0 5 19 50 94 106 67 28 8 1 0 -1 -1 -1 -1 -1 -1 -1 -1 0 2 10 29 63 97 97 63 29 10 2 0 -1 -1 -1 -1 -1 -1 -1 -1 -1 0 5 21 55 97 92 48 17 4 0 -1 -1 -1 -1 -1 -1 -1 -1 -1 -1 -1 -1 -1 -1 -1 -1 0 5 19 49 89 100 66 29 9 1 0 -1 -1 -1 -1 -1 -1 0 6 23 59 98 91 49 18 4 0 -1 -1 -1 0 4 18 51 94 
94 51 18 4 0 -1 -1 -1 -1 0 3 13 39 82 104 72 32 10 1 0 -1 -1 -1 -1 -1 -1 -1 -1 0 5 19 47 86 102 77 40 15 4 0 -1 -1 -1 -1 -1 -1 -1 -1 -1 -1 0 4 18 52 95 95 52 18 4 0 -1 -1 -1 -1 -1 -1 -1 -1 -1 -1 -1 -1 -1 -1 -1 0 1 9 29 66 100 89 49 19 5 0 -1 -1 -1 -1 -1 -1 0 1 9 30 70 102 82 39 13 2 0 -1 -1 -1 0 4 18 51 95 
95 51 18 4 0 -1 -1 -1 -1 0 1 9 31 71 103 81 39 13 2 0 -1 -1 -1 -1 -1 -1 -1 0 2 11 32 69 101 91 53 23 7 1 0 -1 -1 -1 -1 -1 -1 -1 -1 -1 -1 0 4 17 48 92 97 55 21 5 0 -1 -1 -1 -1 -1 -1 -1 -1 -1 -1 -1 -1 -1 -1 -1 0 3 15 42 83 102 73 34 11 2 0 -1 -1 -1 -1 -1 -1 0 2 13 39 82 102 70 30 9 1 0 -1 -1 -1 0 4 18 51 95 
95 51 18 4 0 -1 -1 -1 -1 -1 0 6 24 61 99 89 46 16 3 0 -1 -1 -1 -1 -1 -1 0 0 6 20 50 89 101 71 34 12 3 0 -1 -1 -1 -1 -1 -1 -1 -1 -1 -1 -1 0 3 15 44 88 100 61 24 7 0 -1 -1 -1 -1 -1 -1 -1 -1 -1 -1 -1 -1 -1 -1 0 0 6 23 56 96 96 56 23 6 0 0 -1 -1 -1 -1 -1 -1 0 4 18 49 91 98 59 23 6 0 -1 -1 -1 -1 0 4 19 52 96 
95 50 18 4 0 -1 -1 -1 -1 -1 0 5 19 53 95 95 53 19 5 0 -1 -1 -1 -1 -1 -1 0 3 12 34 71 101 89 50 20 6 0 0 -1 -1 -1 -1 -1 -1 -1 -1 -1 -1 -1 0 2 12 38 80 102 71 30 9 1 0 -1 -1 -1 -1 -1 -1 -1 -1 -1 -1 -1 -1 -1 0 2 11 34 73 102 83 42 15 3 0 -1 -1 -1 -1 -1 -1 -1 0 6 23 59 98 91 49 18 4 0 -1 -1 -1 -1 0 5 21 55 98 
96 50 17 4 0 -1 -1 -1 -1 -1 0 3 16 46 89 99 60 24 6 0 -1 -1 -1 -1 -1 0 1 7 23 53 91 101 69 32 11 2 0 -1 -1 -1 -1 -1 -1 -1 -1 -1 -1 -1 -1 0 1 9 30 71 102 80 38 12 2 0 -1 -1 -1 -1 -1 -1 -1 -1 -1 -1 -1 -1 -1 0 5 19 49 89 100 66 29 9 1 0 -1 -1 -1 -1 -1 -1 0 1 9 30 70 102 82 39 13 2 0 -1 -1 -1 0 1 7 25 62 104 
97 49 17 4 0 -1 -1 -1 -1 -1 0 2 12 38 81 102 70 30 9 1 0 -1 -1 -1 -1 0 4 15 40 77 102 86 47 19 5 0 -1 -1 -1 -1 -1 -1 -1 -1 -1 -1 -1 -1 -1 -1 0 7 24 61 100 88 44 15 3 0 -1 -1 -1 -1 -1 -1 -1 -1 -1 -1 -1 -1 0 1 9 29 66 100 89 49 19 5 0 -1 -1 -1 -1 -1 -1 -1 0 2 13 39 82 102 70 30 9 1 0 -1 -1 -1 0 3 12 35 76 114 
99 48 17 4 0 -1 -1 -1 -1 -1 0 1 9 30 70 102 81 38 12 2 0 -1 -1 -1 0 2 10 29 63 97 97 63 29 10 2 0 -1 -1 -1 -1 -1 -1 -1 -1 -1 -1 -1 -1 -1 -1 0 5 21 55 97 92 49 17 4 0 -1 -1 -1 -1 -1 -1 -1 -1 -1 -1 -1 -1 0 3 15 42 83 102 73 34 11 2 0 -1 -1 -1 -1 -1 -1 -1 0 4 18 49 91 98 59 23 6 0 -1 -1 -1 0 1 7 22 52 97 126 
100 48 17 4 0 -1 -1 -1 -1 -1 -1 0 6 24 60 99 89 46 16 3 0 -1 -1 -1 0 5 19 47 86 102 77 40 15 4 0 -1 -1 -1 -1 -1 -1 -1 -1 -1 -1 -1 -1 -1 -1 -1 0 4 18 52 95 95 52 18 4 0 -1 -1 -1 -1 -1 -1 -1 -1 -1 -1 -1 0 0 6 23 56 96 96 56 23 6 0 0 -1 -1 -1 -1 -1 -1 -1 0 6 23 59 98 91 49 18 4 0 -1 -1 -1 0 4 15 39 77 119 134 
99 49 17 4 0 -1 -1 -1 -1 -1 -1 0 5 19 53 95 95 53 19 5 0 -1 -1 0 2 11 32 69 101 91 53 23 7 1 0 -1 -1 -1 -1 -1 -1 -1 -1 -1 -1 -1 -1 -1 -1 -1 0 4 17 49 92 97 55 21 5 0 -1 -1 -1 -1 -1 -1 -1 -1 -1 -1 -1 0 2 11 34 73 102 83 42 15 3 0 -1 -1 -1 -1 -1 -1 -1 0 1 9 30 70 102 82 39 13 2 0 -1 -1 0 2 11 30 63 103 129 133 
98 50 17 4 0 -1 -1 -1 -1 -1 -1 0 3 16 46 89 99 60 24 6 0 0 0 0 6 20 50 89 101 71 34 12 3 0 -1 -1 -1 -1 -1 -1 -1 -1 -1 -1 -1 -1 -1 -1 -1 -1 0 3 15 44 88 100 62 25 7 1 0 -1 -1 -1 -1 -1 -1 -1 -1 -1 -1 0 5 19 49 89 100 66 29 9 1 0 -1 -1 -1 -1 -1 -1 -1 0 2 13 39 82 102 70 30 9 1 0 -1 0 1 7 22 51 89 114 121 124 
97 50 18 4 0 -1 -1 -1 -1 -1 -1 0 2 12 38 81 102 70 30 9 1 0 0 3 12 34 71 101 89 50 20 6 0 0 -1 -1 -1 -1 -1 -1 -1 -1 -1 -1 -1 -1 -1 -1 -1 -1 0 2 12 38 81 103 72 32 11 3 0 0 0 -1 -1 -1 -1 -1 -1 -1 0 1 9 29 66 100 89 49 19 5 0 -1 -1 -1 -1 -1 -1 -1 -1 0 4 18 49 91 98 59 23 6 0 0 0 0 4 16 40 76 105 105 102 113 
96 51 18 4 0 -1 -1 -1 -1 -1 -1 0 1 9 30 70 102 81 38 12 2 0 1 7 23 53 91 101 69 32 11 2 0 -1 -1 -1 -1 -1 -1 -1 -1 -1 -1 -1 -1 -1 -1 -1 -1 -1 0 2 10 32 73 105 85 43 18 8 4 2 1 0 0 0 0 0 0 0 0 4 15 42 83 102 73 34 11 2 0 -1 -1 -1 -1 -1 -1 -1 -1 0 6 23 59 98 91 49 18 4 0 0 0 2 11 30 64 98 102 84 83 105 
95 51 18 4 0 -1 -1 -1 -1 -1 -1 -1 0 6 24 60 99 89 46 16 4 1 4 16 40 77 102 86 47 19 5 0 -1 -1 -1 -1 -1 -1 -1 -1 -1 -1 -1 -1 -1 -1 -1 -1 -1 -1 0 2 10 30 69 108 101 62 34 22 16 12 9 7 5 4 4 3 2 2 3 8 24 57 96 96 56 23 6 0 0 -1 -1 -1 -1 -1 -1 -1 0 1 9 30 70 102 82 39 13 3 0 0 1 7 22 51 88 103 82 60 69 100 
95 51 18 4 0 -1 -1 -1 -1 -1 -1 -1 0 5 19 53 95 95 53 20 6 4 10 29 63 97 97 63 29 10 2 0 -1 -1 -1 -1 -1 -1 -1 -1 -1 -1 -1 -1 -1 -1 -1 -1 -1 0 1 6 16 37 76 118 122 91 66 53 46 38 30 24 21 18 17 15 12 10 10 18 38 76 103 83 42 15 3 0 -1 -1 -1 -1 -1 -1 -1 -1 0 2 13 39 82 102 70 30 9 1 0 0 4 16 40 76 102 90 58 43 60 97 
95 51 18 4 0 -1 -1 -1 -1 -1 -1 -1 0 3 16 46 89 99 61 25 9 8 19 48 86 102 77 40 15 4 0 -1 -1 -1 -1 -1 -1 -1 -1 -1 -1 -1 -1 -1 -1 -1 -1 0 0 2 7 17 33 60 97 131 136 120 104 95 89 81 71 61 55 52 49 44 38 32 30 38 63 97 103 67 29 9 1 0 -1 -1 -1 -1 -1 -1 -1 -1 0 4 18 49 91 98 59 23 6 1 0 3 11 30 64 97 97 66 37 31 56 96 
95 51 18 4 0 -1 -1 -1 -1 -1 -1 -1 0 2 12 38 81 102 71 32 13 14 33 69 101 91 53 23 7 1 0 -1 -1 -1 -1 -1 -1 -1 -1 -1 -1 -1 -1 -1 -1 -1 0 1 4 11 22 40 65 92 113 120 113 104 99 98 100 102 102 100 97 95 92 88 81 73 69 76 99 117 96 52 20 5 0 -1 -1 -1 -1 -1 -1 -1 -1 -1 0 6 23 59 98 91 49 18 4 0 1 7 22 51 88 102 77 42 22 25 53 95 
94 51 18 4 0 -1 -1 -1 -1 -1 -1 -1 0 1 9 30 70 102 81 41 20 24 51 89 101 71 34 12 3 0 -1 -1 -1 -1 -1 -1 -1 -1 -1 -1 -1 -1 -1 -1 0 0 2 7 16 30 51 77 98 104 94 77 63 55 54 56 61 71 80 88 92 95 97 100 103 105 107 116 131 129 89 43 15 4 0 -1 -1 -1 -1 -1 -1 -1 -1 0 1 9 30 70 102 82 39 13 3 1 5 16 40 76 102 88 52 24 13 21 52 95 
94 51 18 4 0 -1 -1 -1 -1 -1 -1 -1 -1 0 6 24 60 99 90 51 30 39 72 101 89 50 20 6 0 0 -1 -1 -1 -1 -1 -1 -1 -1 -1 -1 -1 -1 -1 0 1 4 11 22 40 64 88 102 98 78 54 36 25 21 20 21 24 30 38 44 48 52 55 61 71 83 95 111 130 128 90 44 17 5 0 0 -1 -1 -1 -1 -1 -1 0 0 3 13 40 82 102 70 31 10 3 3 11 30 64 97 97 64 31 13 9 19 51 95 
94 51 18 4 0 -1 -1 -1 -1 -1 -1 -1 -1 0 5 19 53 95 97 62 45 60 92 101 69 32 11 2 0 -1 -1 -1 -1 -1 -1 -1 -1 -1 -1 -1 -1 0 0 1 6 15 30 51 76 97 102 88 64 40 23 13 7 5 5 5 7 9 12 15 17 18 21 24 31 40 51 69 95 116 100 59 27 11 4 1 0 0 0 0 0 0 0 1 6 19 50 92 99 59 24 7 3 8 22 51 88 102 76 40 16 6 6 19 51 95 
94 51 18 4 0 -1 -1 -1 -1 -1 -1 -1 -1 0 3 16 46 89 104 78 67 85 104 86 47 19 5 0 -1 -1 -1 -1 -1 -1 -1 -1 -1 -1 -1 -1 0 0 3 8 19 37 62 88 102 97 77 51 30 16 7 3 1 0 0 0 0 1 2 3 4 4 5 7 9 14 20 33 59 93 107 84 49 25 13 8 5 4 4 4 4 4 5 6 12 29 63 101 93 51 19 7 6 16 40 77 102 88 51 22 8 3 5 18 51 94 
94 51 18 4 0 -1 -1 -1 -1 -1 -1 -1 -1 0 2 12 38 81 110 100 95 106 98 63 29 10 2 0 -1 -1 -1 -1 -1 -1 -1 -1 -1 -1 -1 0 1 4 11 24 44 71 95 102 89 64 40 22 11 4 1 0 0 -1 -1 -1 -1 0 0 0 0 0 0 0 1 3 6 14 33 66 102 109 84 55 36 26 21 19 18 18 18 18 19 21 29 48 83 111 89 46 18 9 13 31 64 97 97 64 30 11 3 1 4 18 51 94 
94 51 18 4 0 -1 -1 -1 -1 -1 -1 -1 -1 0 1 9 30 70 112 122 119 109 77 40 15 4 0 -1 -1 -1 -1 -1 -1 -1 -1 -1 -1 0 0 2 7 16 31 53 79 100 100 79 53 31 16 7 2 0 0 -1 -1 -1 -1 -1 -1 -1 -1 -1 -1 -1 -1 -1 0 0 1 6 18 44 86 121 122 99 77 63 56 53 52 51 51 51 52 55 63 82 112 124 92 49 24 17 27 53 89 102 77 40 16 4 0 0 4 18 51 94 
94 51 18 4 0 -1 -1 -1 -1 -1 -1 -1 -1 -1 0 6 23 60 109 134 126 93 52 22 7 1 0 -1 -1 -1 -1 -1 -1 -1 -1 -1 0 1 4 11 22 40 64 89 102 95 71 44 24 11 4 1 0 -1 -1 -1 -1 -1 -1 -1 -1 -1 -1 -1 -1 -1 -1 -1 -1 -1 0 2 10 31 71 119 138 126 111 102 98 96 95 95 95 95 95 97 103 116 133 135 106 69 45 38 51 81 104 89 52 22 7 1 0 0 4 18 51 94 
94 51 18 4 0 -1 -1 -1 -1 -1 -1 -1 -1 -1 0 5 19 53 104 134 114 70 32 12 3 0 -1 -1 -1 -1 -1 -1 -1 -1 0 0 2 7 15 30 51 76 97 102 88 62 37 19 8 3 0 0 -1 -1 -1 -1 -1 -1 -1 -1 -1 -1 -1 -1 -1 -1 -1 -1 -1 -1 0 1 8 28 67 113 124 106 94 92 93 94 94 94 94 95 95 95 97 103 113 121 116 100 82 76 88 108 102 66 31 11 3 0 0 0 4 18 51 94 
94 51 18 4 0 -1 -1 -1 -1 -1 -1 -1 -1 -1 0 4 18 50 101 125 94 48 19 5 0 0 -1 -1 -1 -1 -1 -1 0 0 1 4 10 21 39 64 89 103 98 77 52 30 15 6 2 0 0 -1 -1 -1 -1 -1 -1 -1 -1 -1 -1 -1 -1 -1 -1 -1 -1 -1 -1 -1 0 1 10 31 72 109 99 68 52 48 49 50 51 51 51 51 51 51 52 55 62 76 93 105 110 115 125 123 90 47 19 5 0 0 -1 0 4 18 51 94 
94 51 18 4 0 -1 -1 -1 -1 -1 -1 -1 -1 -1 0 4 17 50 98 113 75 33 11 2 0 -1 -1 -1 -1 -1 0 0 1 4 8 15 29 49 76 100 108 94 70 44 25 13 6 2 0 0 -1 -1 -1 -1 -1 -1 -1 -1 -1 -1 -1 -1 -1 -1 -1 -1 -1 -1 -1 -1 0 2 12 38 81 105 77 41 24 18 18 18 18 18 18 18 18 18 19 20 25 34 50 71 94 118 136 126 83 39 14 4 0 -1 -1 0 4 18 51 94 
94 51 18 4 0 -1 -1 -1 -1 -1 -1 -1 -1 -1 0 4 18 52 97 103 61 24 7 1 0 -1 -1 0 0 0 2 5 9 16 25 40 63 91 115 120 101 73 49 31 18 11 6 3 2 0 0 0 0 0 -1 -1 -1 -1 -1 -1 -1 -1 -1 -1 -1 -1 -1 -1 -1 -1 0 3 15 45 88 100 63 28 11 6 4 4 4 4 4 4 4 4 4 5 7 12 20 33 53 82 113 121 90 47 19 5 0 0 -1 0 4 18 51 94 
94 51 18 4 0 -1 -1 -1 -1 -1 -1 -1 -1 -1 0 5 20 55 98 96 52 19 5 0 0 0 0 0 2 5 11 18 29 43 59 80 105 127 136 126 101 77 59 45 33 24 18 13 9 7 5 3 2 1 0 0 0 0 -1 -1 -1 -1 -1 -1 -1 -1 -1 -1 -1 -1 0 4 18 50 93 96 55 21 6 1 0 0 0 0 0 0 0 0 0 0 1 2 6 12 24 44 76 106 102 66 31 11 3 0 0 0 4 18 51 94 
94 51 18 4 0 -1 -1 -1 -1 -1 -1 -1 -1 -1 0 7 24 61 100 89 46 16 4 0 0 1 3 6 12 20 32 48 66 84 98 108 114 118 122 120 112 102 93 83 71 59 49 39 31 24 19 16 12 9 6 4 2 1 0 0 0 0 0 -1 -1 -1 -1 -1 -1 -1 0 5 20 54 96 93 50 18 4 0 0 -1 -1 -1 -1 -1 -1 -1 -1 -1 0 0 0 3 9 21 45 80 104 89 52 22 7 1 0 0 4 18 51 94 
94 51 18 4 0 -1 -1 -1 -1 -1 -1 -1 -1 0 1 9 30 71 103 81 39 14 4 3 5 9 15 23 34 50 70 88 100 103 97 86 76 71 74 83 90 96 100 103 102 98 91 82 71 61 53 46 38 30 23 18 13 9 6 5 3 2 1 0 0 0 0 -1 -1 0 1 7 24 61 100 88 45 15 3 0 -1 -1 -1 -1 -1 -1 -1 -1 -1 -1 -1 -1 0 0 2 9 24 53 89 102 77 40 16 5 0 0 4 18 51 94 
94 51 18 4 0 -1 -1 -1 -1 -1 -1 -1 -1 0 2 12 38 81 103 72 33 13 9 11 19 29 42 56 73 90 101 101 90 73 57 43 34 29 32 38 45 52 61 71 82 91 98 102 102 99 95 89 81 70 59 49 39 31 24 19 16 12 9 6 4 2 1 0 0 0 2 10 31 71 102 81 38 12 2 0 -1 -1 -1 -1 -1 -1 -1 -1 -1 -1 -1 -1 -1 -1 0 3 11 31 64 97 97 64 31 11 3 1 5 18 51 94 
94 51 18 4 0 -1 -1 -1 -1 -1 -1 -1 -1 0 3 16 46 89 101 65 32 20 22 32 48 66 83 96 102 100 88 70 50 34 23 15 11 9 10 12 16 19 24 31 39 49 59 70 81 89 95 99 102 102 98 91 82 71 61 53 46 38 30 23 18 13 9 7 5 5 7 16 40 82 103 71 30 9 1 0 -1 -1 -1 -1 -1 -1 -1 -1 -1 -1 -1 -1 -1 -1 0 0 4 16 40 76 102 89 53 24 9 3 5 18 51 94 
94 51 18 4 0 -1 -1 -1 -1 -1 -1 -1 -1 0 5 19 52 96 102 67 42 39 51 70 88 100 102 96 83 66 48 32 20 12 6 3 2 1 1 2 3 5 6 9 13 18 23 30 38 46 53 61 71 82 91 98 102 102 99 95 89 81 70 59 49 39 31 24 20 17 18 26 52 92 101 61 24 7 0 -1 -1 -1 -1 -1 -1 -1 -1 -1 -1 -1 -1 -1 -1 -1 -1 0 1 7 22 51 88 102 79 44 19 8 7 19 51 95 
94 51 18 4 0 -1 -1 -1 -1 -1 -1 -1 0 1 7 25 61 105 110 83 69 76 90 101 101 90 73 56 42 29 18 11 5 2 0 0 0 0 0 0 0 0 0 1 2 4 6 9 12 16 19 24 31 39 49 59 70 81 89 95 99 102 102 98 91 82 71 61 53 47 44 49 72 105 99 55 20 5 0 -1 -1 -1 -1 -1 -1 -1 -1 -1 -1 -1 -1 -1 -1 -1 -1 -1 0 2 11 30 62 95 100 71 37 16 10 20 52 95 
95 51 18 4 0 -1 -1 -1 -1 -1 -1 -1 0 2 11 34 75 119 126 110 103 104 101 89 70 50 34 23 15 9 5 2 0 0 0 -1 -1 -1 -1 -1 -1 -1 -1 0 0 0 0 1 2 3 5 6 9 13 18 23 30 38 46 53 61 71 82 91 98 102 102 99 95 90 86 87 103 121 100 51 18 4 0 -1 -1 -1 -1 -1 -1 -1 -1 -1 -1 -1 -1 -1 -1 -1 -1 -1 -1 0 4 15 37 71 100 96 63 32 17 23 53 95 
95 51 18 4 0 -1 -1 -1 -1 -1 -1 0 0 6 19 49 95 132 134 119 104 88 69 49 32 20 12 6 3 1 0 0 -1 -1 -1 -1 -1 -1 -1 -1 -1 -1 -1 -1 -1 -1 -1 0 0 0 0 0 1 2 4 6 9 12 16 19 24 31 39 49 59 70 81 89 95 100 106 115 129 135 101 50 17 4 0 -1 -1 -1 -1 -1 -1 -1 -1 -1 -1 -1 -1 -1 -1 -1 -1 -1 -1 0 1 6 19 44 79 102 88 54 30 28 55 95 
95 51 18 4 0 -1 -1 -1 -1 -1 -1 0 3 12 33 70 111 123 108 86 66 47 32 19 11 5 2 0 0 0 -1 -1 -1 -1 -1 -1 -1 -1 -1 -1 -1 -1 -1 -1 -1 -1 -1 -1 -1 -1 -1 -1 0 0 0 0 1 2 3 5 6 9 13 18 23 30 38 46 53 62 75 94 119 132 101 49 17 4 0 -1 -1 -1 -1 -1 -1 -1 -1 -1 -1 -1 -1 -1 -1 -1 -1 -1 -1 -1 0 1 8 23 52 88 102 80 50 39 59 97 
95 51 18 4 0 -1 -1 -1 -1 -1 0 1 7 23 53 92 110 92 64 43 29 18 10 5 2 0 0 0 -1 -1 -1 -1 -1 -1 -1 -1 -1 -1 -1 -1 -1 -1 -1 -1 -1 -1 -1 -1 -1 -1 -1 -1 -1 -1 -1 -1 0 0 0 0 0 1 2 4 6 9 12 16 20 25 36 56 88 117 98 50 17 4 0 -1 -1 -1 -1 -1 -1 -1 -1 -1 -1 -1 -1 -1 -1 -1 -1 -1 -1 -1 -1 0 3 11 30 63 96 101 77 57 68 100 
96 51 18 4 0 -1 -1 -1 -1 0 0 4 16 40 77 104 92 58 31 17 9 5 2 0 0 -1 -1 -1 -1 -1 -1 -1 -1 -1 -1 -1 -1 -1 -1 -1 -1 -1 -1 -1 -1 -1 -1 -1 -1 -1 -1 -1 -1 -1 -1 -1 -1 -1 -1 -1 -1 0 0 0 0 1 2 3 5 8 15 32 65 104 96 51 18 4 0 -1 -1 -1 -1 -1 -1 -1 -1 -1 -1 -1 -1 -1 -1 -1 -1 -1 -1 -1 -1 -1 0 4 15 37 71 100 100 82 82 105 
97 50 18 4 0 -1 -1 -1 -1 0 3 11 31 64 98 98 65 32 14 5 2 0 0 0 -1 -1 -1 -1 -1 -1 -1 -1 -1 -1 -1 -1 -1 -1 -1 -1 -1 -1 -1 -1 -1 -1 -1 -1 -1 -1 -1 -1 -1 -1 -1 -1 -1 -1 -1 -1 -1 -1 -1 -1 -1 0 0 0 0 2 7 22 55 98 96 53 19 5 0 -1 -1 -1 -1 -1 -1 -1 -1 -1 -1 -1 -1 -1 -1 -1 -1 -1 -1 -1 -1 -1 0 1 6 19 44 79 105 105 102 113 
98 50 17 4 0 -1 -1 -1 0 2 8 23 52 89 103 78 41 17 6 1 0 0 0 -1 -1 -1 -1 -1 -1 -1 -1 -1 -1 -1 -1 -1 -1 -1 -1 -1 -1 -1 -1 -1 -1 -1 -1 -1 -1 -1 -1 -1 -1 -1 -1 -1 -1 -1 -1 -1 -1 -1 -1 -1 -1 -1 -1 -1 0 1 6 20 52 96 99 57 23 7 1 0 -1 -1 -1 -1 -1 -1 -1 -1 -1 -1 -1 -1 -1 -1 -1 -1 -1 -1 -1 -1 -1 0 1 8 23 52 90 114 121 124 
99 49 17 4 0 -1 -1 0 1 7 19 44 80 105 93 57 27 11 4 1 0 0 0 0 0 0 0 0 0 0 -1 -1 -1 -1 -1 -1 -1 -1 -1 -1 -1 -1 -1 -1 -1 -1 -1 -1 -1 -1 -1 -1 -1 -1 -1 -1 -1 -1 -1 -1 -1 -1 -1 -1 -1 -1 -1 -1 0 1 7 22 54 99 107 68 31 12 4 1 0 -1 -1 -1 -1 -1 -1 -1 -1 -1 -1 -1 -1 -1 -1 -1 -1 -1 -1 -1 -1 -1 0 3 11 30 63 103 129 133 
100 48 17 4 0 0 0 1 7 18 40 74 107 111 81 47 25 14 8 6 5 4 4 4 4 4 4 3 2 1 0 0 0 0 0 0 0 0 0 0 0 -1 -1 -1 -1 -1 -1 -1 -1 -1 -1 -1 -1 -1 -1 -1 -1 -1 -1 -1 -1 -1 -1 -1 -1 -1 0 0 1 5 14 32 65 108 123 90 51 26 13 6 2 0 0 -1 -1 -1 -1 -1 -1 -1 -1 -1 -1 -1 -1 -1 -1 -1 -1 -1 -1 -1 -1 0 4 15 39 77 119 134 
99 48 17 4 0 0 1 7 18 39 72 109 128 116 87 62 44 33 25 21 19 18 18 18 18 18 17 15 12 9 7 5 4 4 4 4 4 4 3 2 1 0 0 0 0 0 0 0 0 0 0 0 0 -1 -1 -1 -1 -1 -1 -1 -1 -1 -1 -1 -1 0 0 3 7 16 31 55 89 124 137 118 84 55 34 19 10 4 1 0 0 -1 -1 -1 -1 -1 -1 -1 -1 -1 -1 -1 -1 -1 -1 -1 -1 -1 -1 0 1 7 22 52 97 126 
97 49 17 4 1 2 7 19 40 72 107 131 136 124 108 95 83 71 62 56 53 52 51 51 51 50 48 44 38 30 24 21 19 18 18 18 18 17 15 12 9 7 5 4 4 4 4 4 4 4 3 2 1 0 0 0 0 0 0 0 0 0 0 0 0 2 6 12 23 40 64 90 110 121 123 120 110 92 70 48 29 16 7 3 0 0 -1 -1 -1 -1 -1 -1 -1 -1 -1 -1 -1 -1 -1 -1 -1 -1 -1 -1 0 3 12 35 76 114 
96 50 18 6 3 8 19 41 72 102 116 114 107 102 100 101 103 103 100 97 95 95 95 94 94 94 92 88 80 71 61 56 53 52 51 51 50 48 44 38 30 24 21 19 18 18 18 18 18 17 15 12 9 7 5 4 4 4 4 4 4 3 3 3 5 10 19 33 53 77 98 104 95 82 75 81 93 103 101 86 63 40 23 12 6 2 0 0 -1 -1 -1 -1 -1 -1 -1 -1 -1 -1 -1 -1 -1 -1 -1 -1 0 1 7 25 62 104 
95 51 20 9 10 21 42 73 99 104 87 67 57 54 55 61 71 80 88 92 94 94 94 95 95 95 97 100 102 102 100 97 95 95 94 94 94 92 88 80 71 61 56 53 52 51 51 51 50 48 44 38 30 24 21 19 18 18 18 18 17 15 14 14 19 30 48 70 91 102 97 78 55 39 33 38 52 71 91 102 97 77 53 33 19 10 4 1 0 0 -1 -1 -1 -1 -1 -1 -1 -1 -1 -1 -1 -1 -1 -1 -1 0 5 21 55 98 
96 54 24 17 26 46 75 99 99 75 48 30 22 20 21 24 30 38 44 48 50 51 51 51 52 53 56 61 71 80 88 92 94 94 94 95 95 97 100 102 102 100 97 95 95 95 94 94 94 92 88 80 71 61 56 53 52 51 51 50 48 45 41 40 48 66 87 101 101 86 63 40 24 14 11 13 21 34 53 77 97 102 91 70 48 29 16 7 3 0 0 -1 -1 -1 -1 -1 -1 -1 -1 -1 -1 -1 -1 -1 -1 0 4 19 52 96 
97 59 35 36 54 80 100 98 72 42 21 10 6 5 5 7 9 12 15 17 18 18 18 18 18 19 21 24 30 38 44 48 50 51 51 52 53 56 61 71 80 88 92 94 94 94 95 95 95 97 100 102 102 100 97 95 95 94 94 94 92 90 87 87 94 105 105 92 70 48 29 16 7 3 2 3 6 12 23 40 63 86 101 101 86 63 40 23 12 6 2 0 0 -1 -1 -1 -1 -1 -1 -1 -1 -1 -1 -1 -1 0 4 18 51 95 
102 71 57 69 90 103 95 69 40 19 8 2 0 0 0 0 1 2 3 4 4 4 4 4 4 4 5 7 9 12 15 17 18 18 18 18 19 21 24 30 38 44 48 50 51 51 51 52 53 56 61 71 80 88 92 94 94 95 95 96 99 106 118 128 129 112 84 56 34 19 10 4 1 0 0 0 0 3 7 16 29 48 70 91 102 97 77 53 33 19 10 4 1 0 0 -1 -1 -1 -1 -1 -1 -1 -1 -1 -1 0 4 18 51 95 
111 93 89 100 103 88 62 36 17 7 2 0 0 -1 -1 -1 0 0 0 0 0 0 0 0 0 0 0 0 1 2 3 4 4 4 4 4 4 5 7 9 12 15 17 18 18 18 18 18 19 21 24 30 38 44 48 50 51 51 52 54 60 75 103 132 129 91 52 27 13 6 2 0 0 -1 -1 -1 0 0 1 4 10 19 33 53 77 97 102 91 70 48 29 16 7 3 0 0 -1 -1 -1 -1 -1 -1 -1 -1 -1 0 4 18 50 96 
124 118 113 103 80 52 30 15 6 1 0 -1 -1 -1 -1 -1 -1 -1 -1 -1 -1 -1 -1 -1 -1 -1 -1 -1 0 0 0 0 0 0 0 0 0 0 0 1 2 3 4 4 4 4 4 4 4 5 7 9 12 15 17 18 18 18 19 20 26 42 75 115 112 69 31 12 4 1 0 -1 -1 -1 -1 -1 -1 -1 0 0 2 6 12 23 40 63 86 101 101 86 63 40 23 12 6 2 0 0 -1 -1 -1 -1 -1 -1 -1 0 4 17 50 98 
135 130 106 75 45 24 11 4 1 0 -1 -1 -1 -1 -1 -1 -1 -1 -1 -1 -1 -1 -1 -1 -1 -1 -1 -1 -1 -1 -1 -1 -1 -1 -1 -1 -1 -1 -1 0 0 0 0 0 0 0 0 0 0 0 0 1 2 3 4 4 4 4 5 6 11 26 60 102 101 57 22 7 1 0 -1 -1 -1 -1 -1 -1 -1 -1 -1 -1 0 0 3 7 16 29 48 70 91 102 97 77 53 34 20 11 5 2 0 0 -1 -1 -1 -1 -1 0 4 17 49 100 
132 115 76 42 20 9 3 0 0 -1 -1 -1 -1 -1 -1 -1 -1 -1 -1 -1 -1 -1 -1 -1 -1 -1 -1 -1 -1 -1 -1 -1 -1 -1 -1 -1 -1 -1 -1 -1 -1 -1 -1 -1 -1 -1 -1 -1 -1 -1 -1 0 0 0 0 0 0 0 0 1 6 20 54 97 97 53 19 5 0 -1 -1 -1 -1 -1 -1 -1 -1 -1 -1 -1 -1 0 0 1 4 10 19 33 53 77 97 102 91 71 50 32 19 10 4 1 0 0 -1 -1 -1 0 4 17 49 100 
120 88 47 21 8 2 0 0 -1 -1 -1 -1 -1 -1 -1 -1 -1 -1 -1 -1 -1 -1 -1 -1 -1 -1 -1 -1 -1 -1 -1 -1 -1 -1 -1 -1 -1 -1 -1 -1 -1 -1 -1 -1 -1 -1 -1 -1 -1 -1 -1 -1 -1 -1 -1 -1 -1 -1 0 0 5 19 52 95 95 52 18 4 0 -1 -1 -1 -1 -1 -1 -1 -1 -1 -1 -1 -1 -1 -1 0 0 2 6 12 23 40 63 86 101 101 89 69 47 29 15 7 3 1 0 0 0 0 4 17 49 99 
107 67 30 10 2 0 -1 -1 -1 -1 -1 -1 -1 -1 -1 -1 -1 -1 -1 -1 -1 -1 -1 -1 -1 -1 -1 -1 -1 -1 -1 -1 -1 -1 -1 -1 -1 -1 -1 -1 -1 -1 -1 -1 -1 -1 -1 -1 -1 -1 -1 -1 -1 -1 -1 -1 -1 -1 -1 0 4 18 51 95 95 51 18 4 0 -1 -1 -1 -1 -1 -1 -1 -1 -1 -1 -1 -1 -1 -1 -1 -1 0 0 3 7 16 29 47 69 89 101 101 86 63 39 22 12 7 4 3 2 2 6 19 51 97 
100 57 22 6 0 0 -1 -1 -1 -1 -1 -1 -1 -1 -1 -1 -1 -1 -1 -1 -1 -1 -1 -1 -1 -1 -1 -1 -1 -1 -1 -1 -1 -1 -1 -1 -1 -1 -1 -1 -1 -1 -1 -1 -1 -1 -1 -1 -1 -1 -1 -1 -1 -1 -1 -1 -1 -1 -1 0 4 18 51 95 95 51 18 4 0 -1 -1 -1 -1 -1 -1 -1 -1 -1 -1 -1 -1 -1 -1 -1 -1 -1 0 0 1 4 10 19 33 51 72 93 105 99 77 53 35 24 18 13 10 8 10 23 54 97 
97 53 20 5 0 0 -1 -1 -1 -1 -1 -1 -1 -1 -1 -1 -1 -1 -1 -1 -1 -1 -1 -1 -1 -1 -1 -1 -1 -1 -1 -1 -1 -1 -1 -1 -1 -1 -1 -1 -1 -1 -1 -1 -1 -1 -1 -1 -1 -1 -1 -1 -1 -1 -1 -1 -1 -1 -1 0 4 18 51 94 94 51 18 4 0 -1 -1 -1 -1 -1 -1 -1 -1 -1 -1 -1 -1 -1 -1 -1 -1 -1 -1 -1 0 0 2 6 13 23 39 62 90 113 115 97 76 60 48 39 31 25 24 33 62 100 
98 52 20 6 1 0 0 0 0 0 -1 -1 -1 -1 -1 -1 -1 -1 -1 -1 -1 -1 -1 -1 -1 -1 -1 -1 -1 -1 -1 -1 -1 -1 -1 -1 -1 -1 -1 -1 -1 -1 -1 -1 -1 -1 -1 -1 -1 -1 -1 -1 -1 -1 -1 -1 -1 -1 -1 0 4 18 51 94 94 51 18 4 0 -1 -1 -1 -1 -1 -1 -1 -1 -1 -1 -1 -1 -1 -1 -1 -1 -1 -1 -1 0 0 2 4 9 17 29 49 77 111 133 132 118 103 92 82 71 60 55 59 81 110 
103 55 23 10 6 4 4 3 2 1 0 0 0 0 0 0 0 0 -1 -1 -1 -1 -1 -1 -1 -1 -1 -1 -1 -1 -1 -1 -1 -1 -1 -1 -1 -1 -1 -1 -1 -1 -1 -1 -1 -1 -1 -1 -1 -1 -1 -1 -1 -1 -1 -1 -1 -1 -1 0 4 18 51 94 94 51 18 4 0 -1 -1 -1 -1 -1 -1 -1 -1 -1 -1 -1 -1 -1 -1 -1 -1 0 0 0 1 3 7 12 20 31 47 66 91 115 127 123 111 104 102 103 103 99 96 98 112 126 
113 67 37 24 19 18 17 15 12 9 7 5 4 4 4 3 2 1 0 0 0 0 0 0 0 0 0 -1 -1 -1 -1 -1 -1 -1 -1 -1 -1 -1 -1 -1 -1 -1 -1 -1 -1 -1 -1 -1 -1 -1 -1 -1 -1 -1 -1 -1 -1 -1 -1 0 4 18 51 94 94 51 18 4 0 -1 -1 -1 -1 -1 -1 -1 -1 -1 -1 -1 -1 -1 -1 0 0 0 2 5 9 15 23 34 49 67 84 98 106 105 93 76 64 59 63 71 82 92 102 114 131 140 
129 94 68 56 52 50 48 44 38 30 24 21 19 18 17 15 12 9 7 5 4 4 4 4 3 2 1 0 0 0 0 0 0 0 0 -1 -1 -1 -1 -1 -1 -1 -1 -1 -1 -1 -1 -1 -1 -1 -1 -1 -1 -1 -1 -1 -1 -1 -1 0 4 18 51 94 94 51 18 4 0 -1 -1 -1 -1 -1 -1 -1 -1 -1 -1 -1 -1 0 0 1 3 6 11 19 29 42 56 73 89 101 102 96 83 66 48 34 25 23 25 31 40 50 63 83 112 138 
142 125 107 99 95 94 92 88 80 71 61 55 52 50 48 44 38 30 24 21 19 18 18 17 15 12 9 7 5 4 4 4 3 2 1 0 0 0 0 0 0 0 0 0 -1 -1 -1 -1 -1 -1 -1 -1 -1 -1 -1 -1 -1 -1 -1 0 4 18 51 94 94 51 18 4 0 -1 -1 -1 -1 -1 -1 -1 -1 -1 0 0 0 2 5 9 15 23 34 49 66 83 96 102 100 89 73 56 41 29 18 11 7 6 7 9 13 19 28 47 81 124 
138 125 108 99 96 96 97 100 102 102 100 97 95 94 92 88 80 71 61 55 53 51 50 48 44 38 30 24 21 19 18 17 15 12 9 7 5 4 4 4 4 3 2 1 0 0 0 0 0 0 0 0 -1 -1 -1 -1 -1 -1 0 0 4 18 51 95 95 51 18 4 0 -1 -1 -1 -1 -1 -1 -1 0 0 0 2 5 11 18 29 42 56 73 89 100 102 96 83 66 49 34 23 15 9 5 2 1 0 0 1 3 6 12 27 61 111 
120 94 69 57 53 53 56 61 71 80 88 92 94 95 97 100 102 102 100 97 95 94 94 92 88 80 71 61 55 52 50 48 44 38 30 24 21 19 18 18 17 15 12 9 7 5 4 4 4 3 2 1 0 0 0 0 0 0 0 1 5 19 52 95 95 51 18 4 0 -1 -1 -1 -1 0 0 0 1 3 6 12 20 32 48 66 83 96 102 100 89 73 56 42 29 19 11 6 3 1 0 0 0 -1 0 0 0 1 6 20 53 101 
105 69 38 24 20 19 21 24 30 38 44 48 50 52 55 61 71 80 88 92 94 94 95 97 100 102 102 100 97 95 94 92 88 80 71 61 55 53 51 50 48 44 38 30 24 21 19 18 17 15 12 9 7 5 4 4 4 4 3 4 7 21 53 96 95 52 18 4 0 0 -1 0 0 0 2 5 9 15 23 34 50 70 88 100 102 96 83 66 49 34 23 15 9 5 2 0 0 0 -1 -1 -1 -1 -1 -1 0 0 5 18 51 97 
98 57 24 10 6 5 5 7 9 12 15 17 18 19 21 24 30 38 44 48 50 51 53 55 61 71 80 88 92 94 95 97 100 102 102 100 97 95 94 94 92 88 80 71 61 55 52 50 48 44 38 30 24 21 19 18 18 17 15 14 15 27 58 99 97 53 19 5 0 0 0 1 3 6 11 19 29 42 56 73 90 101 101 90 73 56 42 29 19 11 6 3 1 0 0 0 -1 -1 -1 -1 -1 -1 -1 -1 -1 0 4 18 51 95 
95 53 20 6 1 0 0 0 1 2 3 4 4 4 5 7 9 12 15 17 18 18 19 21 24 30 38 44 48 50 52 55 61 71 80 88 92 94 94 95 97 100 102 102 100 97 95 94 92 88 80 71 61 55 53 51 50 48 44 39 37 44 71 107 102 57 23 7 3 3 5 9 15 23 34 49 66 83 96 102 100 88 70 50 34 23 15 9 5 2 0 0 0 -1 -1 -1 -1 -1 -1 -1 -1 -1 -1 -1 -1 0 4 18 51 95 
95 51 18 4 0 0 -1 -1 0 0 0 0 0 0 0 0 1 2 3 4 4 4 4 5 7 9 12 15 17 18 19 21 24 30 38 44 48 50 51 53 55 61 71 80 88 92 94 95 97 100 102 102 100 97 95 94 94 92 88 82 76 79 98 124 114 69 32 15 10 12 19 29 42 56 73 89 100 102 96 83 66 48 32 20 12 6 3 1 0 0 0 -1 -1 -1 -1 -1 -1 -1 -1 -1 -1 -1 -1 -1 -1 0 4 18 51 95 
95 51 18 4 0 -1 -1 -1 -1 -1 -1 -1 -1 -1 -1 -1 0 0 0 0 0 0 0 0 0 1 2 3 4 4 4 5 7 9 12 15 17 18 18 19 21 24 30 38 44 48 50 52 55 61 71 80 88 92 94 94 95 97 100 103 105 110 122 137 129 92 55 35 30 36 50 66 83 96 102 100 89 73 56 42 29 18 11 5 2 0 0 0 -1 -1 -1 -1 -1 -1 -1 -1 -1 -1 -1 -1 -1 -1 -1 -1 -1 0 4 18 51 94 
94 51 18 4 0 -1 -1 -1 -1 -1 -1 -1 -1 -1 -1 -1 -1 -1 -1 -1 -1 -1 -1 -1 -1 0 0 0 0 0 0 0 0 1 2 3 4 4 4 4 5 7 9 12 15 17 18 19 21 24 30 38 44 48 50 51 53 55 61 71 81 91 102 115 124 115 92 74 70 77 91 101 102 96 83 66 49 34 23 15 9 5 2 0 0 0 -1 -1 -1 -1 -1 -1 -1 -1 -1 -1 -1 -1 -1 -1 -1 -1 -1 -1 -1 0 4 18 51 94 
95 51 18 4 0 -1 -1 -1 -1 -1 -1 -1 -1 -1 -1 -1 -1 -1 -1 -1 -1 -1 -1 -1 -1 -1 -1 -1 -1 -1 -1 -1 0 0 0 0 0 0 0 0 0 0 1 2 3 4 4 4 5 7 9 12 15 17 18 18 19 21 24 30 38 46 54 68 90 115 126 120 113 108 102 90 73 56 42 29 19 11 6 3 1 0 0 0 -1 -1 -1 -1 -1 -1 -1 -1 -1 -1 -1 -1 -1 -1 -1 -1 -1 -1 -1 -1 -1 0 4 18 51 95 
95 51 18 4 0 0 -1 -1 -1 -1 -1 -1 -1 -1 -1 -1 -1 -1 -1 -1 -1 -1 -1 -1 -1 -1 -1 -1 -1 -1 -1 -1 -1 -1 -1 0 0 0 0 0 0 0 0 0 0 0 0 0 0 1 2 3 3 4 4 4 5 5 7 9 13 16 21 32 54 92 129 137 116 91 69 50 34 23 15 9 5 2 1 0 0 0 0 -1 -1 -1 -1 -1 -1 -1 -1 -1 -1 -1 -1 -1 -1 -1 -1 -1 -1 -1 -1 -1 0 0 4 18 51 95 
96 53 20 6 1 0 0 0 0 0 0 0 0 0 0 0 0 0 0 0 0 0 0 0 0 0 0 0 0 0 0 0 0 0 0 0 0 0 0 0 0 0 0 0 0 0 0 0 0 0 0 1 1 1 1 1 1 1 2 3 4 5 8 15 34 70 115 123 89 56 35 21 13 8 5 3 2 1 0 0 0 0 0 0 0 0 0 0 0 0 0 0 0 0 0 0 0 0 0 0 0 0 0 0 0 1 6 20 53 96 
99 56 24 10 6 4 4 4 4 4 4 4 4 4 4 4 4 4 4 4 4 4 4 4 4 4 4 4 4 4 4 4 4 4 4 4 4 4 4 4 4 4 4 4 4 4 4 4 4 4 4 4 4 4 4 4 4 5 5 5 5 6 8 13 29 63 106 110 71 38 20 12 9 7 6 5 5 4 4 4 4 4 4 4 4 4 4 4 4 4 4 4 4 4 4 4 4 4 4 4 4 4 4 4 4 5 10 24 56 99 
107 68 37 24 20 18 18 18 18 18 18 18 18 18 18 18 18 18 18 18 18 18 18 18 18 18 18 18 18 18 18 17 17 17 17 17 18 18 18 18 18 18 18 18 18 18 18 18 17 17 17 17 18 18 18 18 18 18 18 18 18 19 20 25 39 71 110 111 73 42 27 22 20 19 18 18 18 18 18 18 18 18 18 18 18 18 18 18 18 18 17 17 17 17 17 18 18 18 18 18 18 18 17 17 17 19 23 37 68 107 
126 94 68 56 53 51 51 51 51 51 51 51 51 51 51 51 51 51 51 51 51 51 51 51 51 51 51 51 51 51 50 50 49 49 49 50 50 51 51 51 51 51 51 51 51 51 51 50 50 49 49 50 50 51 51 51 51 51 51 51 51 52 53 57 69 95 126 126 95 70 57 53 52 51 51 51 51 51 51 51 51 51 51 51 51 51 51 51 51 50 50 49 49 49 50 50 51 51 51 51 51 51 50 49 49 51 55 68 94 126 
149 126 107 99 96 95 95 94 94 94 94 94 94 94 94 94 94 94 94 94 94 94 94 94 94 94 94 95 95 95 96 98 100 100 99 96 95 95 95 94 94 94 94 94 95 95 95 96 98 101 101 98 96 95 95 95 94 94 94 94 95 95 95 98 105 119 134 134 119 105 98 96 95 95 94 94 94 94 94 94 94 94 94 94 94 94 95 95 95 96 98 100 101 99 97 95 95 95 95 95 95 96 97 100 101 100 101 108 127 149 
