P2
110 110
255
150 126 107 99 96 95 95 95 95 95 95 95 95 95 95 95 95 95 95 95 95 95 95 95 95 95 95 95 96 100 108 122 135 134 121 107 100 96 95 95 95 95 95 95 95 96 98 105 120 135 135 119 105 98 96 95 95 95 95 95 95 95 95 95 96 99 101 101 99 96 95 95 95 95 95 95 95 95 95 95 95 95 95 95 95 95 95 96 98 104 117 132 136 124 109 100 96 95 95 95 97 102 114 130 137 126 114 113 128 150 
126 93 67 56 52 51 51 50 50 50 50 50 50 50 50 50 50 50 50 50 50 50 50 50 50 51 51 52 55 63 82 111 130 118 89 67 57 52 51 51 50 50 50 51 51 52 57 70 97 128 126 93 67 56 52 51 51 50 50 50 50 50 50 50 50 49 49 49 49 50 50 50 50 50 50 50 50 50 50 50 50 50 50 50 50 51 51 52 57 71 97 126 125 97 71 58 53 51 51 52 55 65 88 120 129 103 78 75 96 127 
107 67 36 23 19 18 18 17 17 17 17 17 17 17 17 17 17 17 17 17 17 17 17 17 18 18 18 20 27 42 71 105 112 83 50 30 22 19 18 18 17 17 17 18 18 20 26 43 78 117 109 67 36 23 19 18 18 17 17 17 17 17 17 17 17 17 16 16 17 17 17 17 17 17 17 17 17 17 17 17 17 17 17 17 17 18 18 21 29 49 85 114 99 61 35 23 19 18 18 19 24 37 68 107 109 73 45 44 69 108 
99 56 23 10 5 4 4 4 4 4 4 4 4 4 4 4 4 4 4 4 4 4 4 4 4 4 6 10 21 46 82 106 90 52 25 11 6 4 4 4 4 4 4 4 5 8 17 39 80 118 102 54 22 9 5 4 4 4 4 4 4 4 4 4 4 3 3 3 3 4 4 4 4 4 4 4 4 4 4 4 4 4 4 4 4 4 5 9 20 47 88 106 75 37 16 7 5 4 4 6 12 29 64 103 95 54 28 29 57 99 
96 52 19 5 1 0 0 0 0 0 0 0 0 0 0 0 0 0 0 0 0 0 0 0 0 1 4 12 31 65 99 98 64 30 11 3 0 0 0 0 0 0 0 0 1 6 20 49 95 127 101 50 18 5 1 0 0 0 0 0 0 0 0 0 0 0 0 0 0 0 0 0 0 0 0 0 0 0 0 0 0 0 0 0 0 0 2 7 24 57 97 96 56 23 7 2 0 0 0 2 10 31 71 104 83 41 20 23 53 96 
95 51 18 4 0 -1 -1 -1 -1 -1 -1 -1 -1 -1 -1 -1 -1 -1 -1 -1 -1 -1 -1 -1 0 1 7 22 51 89 103 76 39 15 4 0 0 -1 -1 -1 -1 -1 -1 0 2 10 31 69 115 135 102 50 17 4 0 -1 -1 -1 -1 -1 -1 -1 -1 -1 -1 -1 -1 -1 -1 -1 -1 -1 -1 -1 -1 -1 -1 -1 -1 -1 -1 -1 -1 -1 -1 0 2 11 33 73 103 83 41 14 3 0 -1 -1 0 3 13 39 82 103 70 31 15 21 52 95 
95 51 18 4 0 -1 -1 -1 -1 -1 -1 -1 -1 -1 -1 -1 -1 -1 -1 -1 -1 -1 -1 -1 0 4 15 40 76 102 88 51 22 7 1 0 -1 -1 -1 -1 -1 -1 -1 0 5 19 48 91 127 135 104 53 19 4 0 -1 -1 -1 -1 -1 -1 -1 -1 -1 -1 -1 -1 -1 -1 -1 -1 -1 -1 -1 -1 -1 -1 -1 -1 -1 -1 -1 -1 -1 -1 0 5 18 48 89 101 66 28 9 1 0 -1 -1 0 4 17 48 91 98 59 24 12 20 51 95 
95 50 17 4 0 -1 -1 -1 -1 -1 -1 -1 -1 -1 -1 -1 -1 -1 -1 -1 -1 -1 -1 0 2 10 30 64 97 97 64 30 10 2 0 -1 -1 -1 -1 -1 -1 -1 0 2 11 33 70 108 124 127 107 60 23 6 0 -1 -1 -1 -1 -1 -1 -1 -1 -1 -1 -1 -1 -1 -1 -1 -1 -1 -1 -1 -1 -1 -1 -1 -1 -1 -1 -1 -1 -1 0 1 9 28 66 101 89 48 18 4 0 -1 -1 -1 0 6 22 58 98 91 48 18 10 19 51 95 
95 50 17 4 0 -1 -1 -1 -1 -1 -1 -1 -1 -1 -1 -1 -1 -1 -1 -1 -1 -1 0 1 7 22 51 88 102 76 39 15 4 0 -1 -1 -1 -1 -1 -1 -1 0 1 7 22 52 92 111 105 110 109 70 29 8 1 0 -1 -1 -1 -1 -1 -1 -1 -1 -1 -1 -1 -1 -1 -1 -1 -1 -1 -1 -1 -1 -1 -1 -1 -1 -1 -1 -1 -1 0 3 14 41 83 103 73 33 11 2 0 -1 -1 0 1 9 30 70 103 82 39 14 8 19 51 95 
95 51 18 4 0 -1 -1 -1 -1 -1 -1 -1 -1 -1 -1 -1 -1 -1 -1 -1 -1 -1 0 4 15 39 76 102 88 51 22 7 1 0 -1 -1 -1 -1 -1 -1 -1 0 4 15 39 77 104 96 79 90 107 81 37 12 2 0 -1 -1 -1 -1 -1 -1 -1 -1 -1 -1 -1 -1 -1 -1 -1 -1 -1 -1 -1 -1 -1 -1 -1 -1 -1 -1 -1 -1 0 6 22 56 96 96 56 22 6 0 -1 -1 -1 0 2 13 39 82 103 70 30 10 7 18 51 95 
95 51 18 4 0 -1 -1 -1 -1 -1 -1 -1 -1 -1 -1 -1 -1 -1 -1 -1 -1 0 2 10 30 64 97 97 64 30 10 2 0 -1 -1 -1 -1 -1 -1 -1 0 1 9 28 63 97 99 71 55 72 103 88 44 14 3 0 -1 -1 -1 -1 -1 -1 -1 -1 -1 -1 -1 -1 -1 -1 -1 -1 -1 -1 -1 -1 -1 -1 -1 -1 -1 -1 -1 0 2 11 33 73 103 83 41 14 3 0 -1 -1 -1 0 4 17 48 91 98 58 23 7 6 18 51 95 
96 52 19 4 0 -1 -1 -1 -1 -1 -1 -1 -1 -1 -1 -1 -1 -1 -1 -1 0 1 7 22 51 88 102 76 39 15 4 0 -1 -1 -1 -1 -1 -1 -1 -1 0 5 18 47 86 103 79 46 37 60 98 92 48 16 3 0 -1 -1 -1 -1 -1 -1 -1 -1 -1 -1 -1 -1 -1 -1 -1 -1 -1 -1 -1 -1 -1 -1 -1 -1 -1 -1 -1 0 4 18 48 89 101 66 28 8 1 0 -1 -1 -1 0 6 22 58 98 91 48 17 5 5 18 50 95 
99 56 21 6 0 -1 -1 -1 -1 -1 -1 -1 -1 -1 -1 -1 -1 -1 -1 -1 0 4 15 39 76 102 88 51 22 7 1 0 -1 -1 -1 -1 -1 -1 -1 0 2 10 31 69 101 91 54 28 27 54 95 95 51 18 4 0 -1 -1 -1 -1 -1 -1 -1 -1 -1 -1 -1 -1 -1 -1 -1 -1 -1 -1 -1 -1 -1 -1 -1 -1 -1 -1 0 1 8 28 66 101 89 48 18 4 0 -1 -1 -1 0 1 9 30 70 103 82 39 13 4 5 17 50 95 
107 67 29 10 2 0 -1 -1 -1 -1 -1 -1 -1 -1 -1 -1 -1 -1 -1 0 2 10 30 64 97 97 64 30 10 2 0 -1 -1 -1 -1 -1 -1 -1 -1 0 5 19 49 89 102 71 34 17 21 49 93 97 55 20 5 0 -1 -1 -1 -1 -1 -1 -1 -1 -1 -1 -1 -1 -1 -1 -1 -1 -1 -1 -1 -1 -1 -1 -1 -1 -1 -1 0 3 14 41 83 103 73 33 11 2 0 -1 -1 -1 0 2 13 39 82 103 70 30 9 2 4 17 49 97 
120 87 46 20 6 1 0 -1 -1 -1 -1 -1 -1 -1 -1 -1 -1 -1 0 1 7 22 51 88 102 76 39 15 4 0 -1 -1 -1 -1 -1 -1 -1 -1 0 2 11 33 70 102 89 49 21 10 17 44 88 100 61 24 6 0 -1 -1 -1 -1 -1 -1 -1 -1 -1 -1 -1 -1 -1 -1 -1 -1 -1 -1 -1 -1 -1 -1 -1 -1 -1 -1 0 6 22 56 96 96 56 22 6 0 -1 -1 -1 -1 0 4 17 48 91 98 58 23 6 1 4 17 49 99 
133 114 74 39 17 5 0 0 -1 -1 -1 -1 -1 -1 -1 -1 -1 -1 0 4 15 39 76 102 88 51 22 7 1 0 -1 -1 -1 -1 -1 -1 -1 0 1 7 22 53 91 101 69 32 11 6 13 38 81 103 70 30 9 1 0 -1 -1 -1 -1 -1 -1 -1 -1 -1 -1 -1 -1 -1 -1 -1 -1 -1 -1 -1 -1 -1 -1 -1 -1 0 2 11 33 73 103 83 41 14 3 0 -1 -1 -1 -1 0 6 22 58 98 91 48 17 4 1 4 16 48 101 
135 130 105 69 35 14 4 0 -1 -1 -1 -1 -1 -1 -1 -1 -1 0 2 10 30 64 97 97 64 30 10 2 0 -1 -1 -1 -1 -1 -1 -1 -1 0 4 15 39 77 103 86 47 18 6 3 9 30 70 103 80 37 12 2 0 -1 -1 -1 -1 -1 -1 -1 -1 -1 -1 -1 -1 -1 -1 -1 -1 -1 -1 -1 -1 -1 -1 -1 -1 0 4 18 48 89 101 66 28 8 1 0 -1 -1 -1 0 1 9 30 70 103 82 39 13 3 0 4 16 48 100 
125 119 114 97 62 29 11 2 0 -1 -1 -1 -1 -1 -1 -1 0 1 7 22 51 88 102 76 39 15 4 0 -1 -1 -1 -1 -1 -1 -1 -1 0 1 9 28 63 97 97 63 28 9 2 1 6 24 61 100 88 44 14 3 0 -1 -1 -1 -1 -1 -1 -1 -1 -1 -1 -1 -1 -1 -1 -1 -1 -1 -1 -1 -1 -1 -1 -1 0 1 8 28 66 101 89 48 18 4 0 -1 -1 -1 -1 0 2 13 39 82 103 70 30 9 1 0 4 17 49 99 
112 96 97 106 88 52 23 8 2 0 -1 -1 -1 -1 -1 -1 0 4 15 39 76 102 88 51 22 7 1 0 -1 -1 -1 -1 -1 -1 -1 -1 0 5 18 47 86 103 77 39 15 4 0 0 5 20 55 97 92 48 16 3 0 -1 -1 -1 -1 -1 -1 -1 -1 -1 -1 -1 -1 -1 -1 -1 -1 -1 -1 -1 -1 -1 -1 -1 0 3 14 41 83 103 73 33 11 2 0 -1 -1 -1 -1 0 4 17 48 91 98 58 22 6 0 0 4 17 50 97 
103 76 71 93 103 79 44 20 7 1 0 -1 -1 -1 -1 0 2 10 30 64 97 97 64 30 10 2 0 -1 -1 -1 -1 -1 -1 -1 -1 0 2 10 31 69 101 91 53 22 7 1 0 0 4 18 51 95 95 51 18 4 0 -1 -1 -1 -1 -1 -1 -1 -1 -1 -1 -1 -1 -1 -1 -1 -1 -1 -1 -1 -1 -1 -1 -1 0 6 22 56 96 96 56 22 6 0 -1 -1 -1 -1 -1 0 6 22 58 98 91 48 17 4 0 0 4 17 50 96 
98 63 49 68 97 101 74 42 19 7 1 0 -1 -1 0 1 7 22 51 88 102 76 39 15 4 0 -1 -1 -1 -1 -1 -1 -1 -1 -1 0 5 19 49 89 102 70 33 11 2 0 -1 0 3 16 48 92 97 55 20 5 0 -1 -1 -1 -1 -1 -1 -1 -1 -1 -1 -1 -1 -1 -1 -1 -1 -1 -1 -1 -1 -1 -1 0 2 11 33 73 103 83 41 14 3 0 -1 -1 -1 -1 0 1 9 30 70 103 82 39 13 2 0 0 4 17 50 95 
96 56 34 42 70 98 99 73 41 19 7 1 0 0 0 4 15 39 76 102 88 51 22 7 1 0 -1 -1 -1 -1 -1 -1 -1 -1 0 2 11 33 70 102 89 49 19 5 0 -1 -1 0 3 14 44 88 100 61 24 6 0 -1 -1 -1 -1 -1 -1 -1 -1 -1 -1 -1 -1 -1 -1 -1 -1 -1 -1 -1 -1 -1 -1 0 4 18 48 89 101 66 28 8 1 0 -1 -1 -1 -1 0 2 13 39 82 103 70 30 9 1 0 0 4 17 50 95 
95 53 25 23 41 72 99 99 72 41 19 7 2 0 2 10 30 64 97 97 64 30 10 2 0 -1 -1 -1 -1 -1 -1 -1 -1 0 1 7 22 53 91 101 69 31 10 2 0 -1 -1 0 2 12 37 80 103 70 30 9 1 0 -1 -1 -1 -1 -1 -1 -1 -1 -1 -1 -1 -1 -1 -1 -1 -1 -1 -1 -1 -1 0 1 8 28 66 101 89 48 18 4 0 -1 -1 -1 -1 -1 0 4 17 48 91 98 58 22 6 0 0 0 4 17 50 95 
95 51 21 12 20 41 72 99 99 72 41 19 8 4 8 22 51 88 102 76 39 15 4 0 -1 -1 -1 -1 -1 -1 -1 -1 -1 0 4 15 39 77 103 86 47 18 5 0 -1 -1 -1 0 1 9 30 70 103 81 37 12 2 0 -1 -1 -1 -1 -1 -1 -1 -1 -1 -1 -1 -1 -1 -1 -1 -1 -1 -1 -1 -1 0 3 14 41 83 103 73 33 11 2 0 -1 -1 -1 -1 -1 0 6 22 58 98 91 48 17 4 0 -1 0 4 17 50 95 
95 51 19 7 8 19 41 72 99 99 73 41 21 13 19 41 77 102 88 51 22 7 1 0 -1 -1 -1 -1 -1 -1 -1 -1 0 1 9 28 63 97 97 63 28 9 1 0 -1 -1 -1 -1 0 6 23 61 100 88 44 15 3 0 -1 -1 -1 -1 -1 -1 -1 -1 -1 -1 -1 -1 -1 -1 -1 -1 -1 -1 -1 -1 0 6 22 56 96 96 56 22 6 0 -1 -1 -1 -1 -1 0 1 9 30 70 103 82 39 13 2 0 -1 0 4 17 50 95 
95 51 18 5 3 7 19 41 72 99 99 74 45 32 39 67 98 98 64 30 10 2 0 -1 -1 -1 -1 -1 -1 -1 -1 -1 0 5 18 47 86 103 77 39 15 4 0 -1 -1 -1 -1 -1 0 5 20 54 96 93 49 17 4 0 -1 -1 -1 -1 -1 -1 -1 -1 -1 -1 -1 -1 -1 -1 -1 -1 -1 -1 -1 0 2 11 33 73 103 83 41 14 3 0 -1 -1 -1 -1 -1 0 2 13 39 82 103 70 30 9 1 0 -1 0 4 17 50 95 
95 51 18 4 0 2 7 19 41 72 99 101 81 64 71 95 104 76 39 15 4 0 -1 -1 -1 -1 -1 -1 -1 -1 -1 0 2 10 31 69 101 91 53 22 7 1 0 -1 -1 -1 -1 -1 0 4 17 49 93 96 54 20 5 0 -1 -1 -1 -1 -1 -1 -1 -1 -1 -1 -1 -1 -1 -1 -1 -1 -1 -1 -1 0 4 18 48 89 101 66 28 8 1 0 -1 -1 -1 -1 -1 0 4 17 48 91 98 58 22 6 0 -1 -1 0 4 17 50 95 
95 50 17 4 0 0 1 7 19 41 73 102 111 106 109 112 89 51 21 7 1 0 -1 -1 -1 -1 -1 -1 -1 -1 -1 0 5 19 49 89 102 70 33 11 2 0 -1 -1 -1 -1 -1 -1 0 3 15 44 88 100 61 23 6 0 -1 -1 -1 -1 -1 -1 -1 -1 -1 -1 -1 -1 -1 -1 -1 -1 -1 -1 0 1 8 28 66 101 89 48 18 4 0 -1 -1 -1 -1 -1 -1 0 6 22 58 98 91 48 17 4 0 -1 -1 0 4 17 50 95 
95 50 17 4 0 -1 0 1 7 19 41 75 111 133 133 107 65 30 10 2 0 -1 -1 -1 -1 -1 -1 -1 -1 -1 0 2 11 33 70 102 89 49 19 5 0 -1 -1 -1 -1 -1 -1 -1 0 2 12 37 81 103 70 30 9 1 0 -1 -1 -1 -1 -1 -1 -1 -1 -1 -1 -1 -1 -1 -1 -1 -1 -1 0 3 14 41 83 103 73 33 11 2 0 -1 -1 -1 -1 -1 0 1 9 30 70 103 82 39 13 2 0 -1 -1 0 4 17 50 95 
95 50 17 4 0 -1 -1 0 1 7 20 46 87 127 128 86 42 16 4 0 -1 -1 -1 -1 -1 -1 -1 -1 -1 0 1 7 22 53 91 101 69 31 10 2 0 -1 -1 -1 -1 -1 -1 -1 0 1 9 30 70 103 80 37 12 2 0 -1 -1 -1 -1 -1 -1 -1 -1 -1 -1 -1 -1 -1 -1 -1 -1 -1 0 6 22 56 96 96 56 22 6 0 -1 -1 -1 -1 -1 -1 0 2 13 39 82 103 70 30 9 1 0 -1 -1 0 4 17 50 95 
95 50 17 4 0 -1 -1 -1 0 2 9 28 64 109 114 70 30 9 1 0 -1 -1 -1 -1 -1 -1 -1 -1 -1 0 4 15 39 77 103 86 47 18 5 0 -1 -1 -1 -1 -1 -1 -1 -1 -1 0 6 24 61 100 88 44 14 3 0 -1 -1 -1 -1 -1 -1 -1 -1 -1 -1 -1 -1 -1 -1 -1 -1 0 2 11 33 73 103 83 41 14 3 0 -1 -1 -1 -1 -1 -1 0 4 17 48 91 98 58 22 6 0 -1 -1 -1 0 4 17 50 95 
95 50 17 4 0 -1 -1 -1 -1 0 5 18 49 94 106 66 27 8 1 0 -1 -1 -1 -1 -1 -1 -1 -1 0 1 9 28 63 97 97 63 28 9 1 0 -1 -1 -1 -1 -1 -1 -1 -1 -1 0 5 20 55 97 92 48 16 3 0 -1 -1 -1 -1 -1 -1 -1 -1 -1 -1 -1 -1 -1 -1 -1 -1 0 4 18 48 89 101 66 28 8 1 0 -1 -1 -1 -1 -1 -1 0 6 22 58 98 91 48 17 4 0 -1 -1 -1 0 4 17 50 95 
95 50 17 4 0 -1 -1 -1 -1 0 2 13 39 82 105 72 31 9 1 0 -1 -1 -1 -1 -1 -1 -1 -1 0 5 18 47 86 103 77 39 15 4 0 -1 -1 -1 -1 -1 -1 -1 -1 -1 -1 0 4 18 51 95 95 51 18 4 0 -1 -1 -1 -1 -1 -1 -1 -1 -1 -1 -1 -1 -1 -1 -1 0 1 8 28 66 101 89 48 18 4 0 -1 -1 -1 -1 -1 -1 0 1 9 30 70 103 82 39 13 2 0 -1 -1 -1 0 4 18 51 95 
95 50 17 4 0 -1 -1 -1 -1 0 1 9 30 70 103 81 38 12 2 0 -1 -1 -1 -1 -1 -1 -1 0 2 10 31 69 101 91 53 22 7 1 0 -1 -1 -1 -1 -1 -1 -1 -1 -1 -1 0 3 16 48 92 97 55 20 5 0 -1 -1 -1 -1 -1 -1 -1 -1 -1 -1 -1 -1 -1 -1 -1 0 3 14 41 83 103 73 33 11 2 0 -1 -1 -1 -1 -1 -1 0 2 13 39 82 103 70 30 9 1 0 -1 -1 -1 0 4 18 51 95 
95 50 17 4 0 -1 -1 -1 -1 -1 0 6 23 60 100 89 45 15 3 0 -1 -1 -1 -1 -1 -1 -1 0 5 19 49 89 102 70 33 11 2 0 -1 -1 -1 -1 -1 -1 -1 -1 -1 -1 -1 0 3 14 44 88 100 61 24 6 0 -1 -1 -1 -1 -1 -1 -1 -1 -1 -1 -1 -1 -1 -1 -1 0 6 22 56 96 96 56 22 6 0 -1 -1 -1 -1 -1 -1 -1 0 4 17 48 91 98 58 22 6 0 -1 -1 -1 -1 0 4 18 52 96 
95 50 17 4 0 -1 -1 -1 -1 -1 0 4 19 52 95 95 52 19 4 0 -1 -1 -1 -1 -1 -1 0 2 11 33 70 102 89 49 19 5 0 -1 -1 -1 -1 -1 -1 -1 -1 -1 -1 -1 -1 0 2 12 37 80 103 70 30 9 1 0 -1 -1 -1 -1 -1 -1 -1 -1 -1 -1 -1 -1 -1 0 2 11 33 73 103 83 41 14 3 0 -1 -1 -1 -1 -1 -1 -1 0 6 22 58 98 91 48 17 4 0 -1 -1 -1 -1 0 5 20 55 98 
96 49 17 4 0 -1 -1 -1 -1 -1 0 3 15 45 89 99 60 23 6 0 -1 -1 -1 -1 -1 0 1 7 22 53 91 101 69 31 10 2 0 -1 -1 -1 -1 -1 -1 -1 -1 -1 -1 -1 -1 0 1 9 30 70 103 80 37 12 2 0 -1 -1 -1 -1 -1 -1 -1 -1 -1 -1 -1 -1 -1 0 4 18 48 89 101 66 28 8 1 0 -1 -1 -1 -1 -1 -1 0 1 9 30 70 103 82 39 13 2 0 -1 -1 -1 -1 0 7 24 62 104 
98 49 16 3 0 -1 -1 -1 -1 -1 0 2 12 38 81 103 70 30 9 1 0 -1 -1 -1 -1 0 4 15 39 77 103 86 47 18 5 0 -1 -1 -1 -1 -1 -1 -1 -1 -1 -1 -1 -1 -1 -1 0 6 24 61 100 88 44 14 3 0 -1 -1 -1 -1 -1 -1 -1 -1 -1 -1 -1 -1 0 1 8 28 66 101 89 48 18 4 0 -1 -1 -1 -1 -1 -1 -1 0 2 13 39 82 103 70 30 9 1 0 -1 -1 -1 0 2 12 34 76 114 
99 48 16 3 0 -1 -1 -1 -1 -1 0 1 9 30 70 103 81 38 12 2 0 -1 -1 -1 0 1 9 28 63 97 97 63 28 9 1 0 -1 -1 -1 -1 -1 -1 -1 -1 -1 -1 -1 -1 -1 -1 0 5 20 55 97 92 48 16 3 0 -1 -1 -1 -1 -1 -1 -1 -1 -1 -1 -1 -1 0 3 14 41 83 103 73 33 11 2 0 -1 -1 -1 -1 -1 -1 -1 0 4 17 48 91 98 58 22 6 0 -1 -1 -1 0 1 7 21 52 97 127 
100 48 16 3 0 -1 -1 -1 -1 -1 -1 0 6 23 60 99 89 45 15 3 0 -1 -1 -1 0 5 18 47 86 103 77 39 15 4 0 -1 -1 -1 -1 -1 -1 -1 -1 -1 -1 -1 -1 -1 -1 -1 0 4 18 51 95 95 51 18 4 0 -1 -1 -1 -1 -1 -1 -1 -1 -1 -1 -1 -1 0 6 22 56 96 96 56 22 6 0 -1 -1 -1 -1 -1 -1 -1 -1 0 6 22 58 98 91 48 17 4 0 -1 -1 -1 0 4 15 38 77 119 135 
100 48 16 3 0 -1 -1 -1 -1 -1 -1 0 4 19 52 95 95 52 19 4 0 -1 -1 0 2 10 31 69 101 91 53 22 7 1 0 -1 -1 -1 -1 -1 -1 -1 -1 -1 -1 -1 -1 -1 -1 -1 0 3 16 48 92 97 55 20 5 0 -1 -1 -1 -1 -1 -1 -1 -1 -1 -1 -1 0 2 11 33 73 103 83 41 14 3 0 -1 -1 -1 -1 -1 -1 -1 0 1 9 30 70 103 82 39 13 2 0 -1 -1 0 2 10 29 63 103 130 134 
98 49 17 4 0 -1 -1 -1 -1 -1 -1 0 3 15 45 89 99 60 23 6 0 -1 0 0 5 19 49 89 102 70 33 11 2 0 -1 -1 -1 -1 -1 -1 -1 -1 -1 -1 -1 -1 -1 -1 -1 -1 0 3 15 44 88 100 61 24 6 0 0 -1 -1 -1 -1 -1 -1 -1 -1 -1 -1 0 4 18 48 89 101 66 28 8 1 0 -1 -1 -1 -1 -1 -1 -1 0 2 13 39 82 103 70 30 9 1 0 -1 0 1 7 21 50 89 114 121 124 
97 50 17 4 0 -1 -1 -1 -1 -1 -1 0 2 12 38 81 103 70 30 9 1 0 0 2 11 33 70 102 89 49 19 5 0 -1 -1 -1 -1 -1 -1 -1 -1 -1 -1 -1 -1 -1 -1 -1 -1 -1 0 2 12 38 81 103 71 31 10 2 0 0 0 -1 -1 -1 -1 -1 -1 -1 0 1 9 28 66 101 89 48 18 4 0 -1 -1 -1 -1 -1 -1 -1 -1 0 4 17 48 91 98 58 22 6 0 -1 -1 0 4 15 39 76 105 105 101 113 
96 50 17 4 0 -1 -1 -1 -1 -1 -1 0 1 9 30 70 103 81 38 12 2 0 1 7 22 53 91 101 69 31 10 2 0 -1 -1 -1 -1 -1 -1 -1 -1 -1 -1 -1 -1 -1 -1 -1 -1 -1 0 1 9 31 72 105 85 43 17 7 4 2 1 0 0 0 0 0 0 0 0 3 14 41 83 103 73 33 11 2 0 -1 -1 -1 -1 -1 -1 -1 -1 0 6 22 58 98 91 48 17 4 0 -1 0 2 10 30 64 98 102 83 82 105 
95 50 17 4 0 -1 -1 -1 -1 -1 -1 -1 0 6 23 60 99 89 45 15 4 1 4 15 39 77 103 86 47 18 5 0 -1 -1 -1 -1 -1 -1 -1 -1 -1 -1 -1 -1 -1 -1 -1 -1 -1 -1 0 2 9 29 68 108 101 61 33 21 16 12 9 6 5 4 3 3 2 1 2 8 23 57 96 96 56 22 6 0 -1 -1 -1 -1 -1 -1 -1 -1 0 1 9 30 70 103 82 39 13 2 0 0 1 7 22 51 88 103 82 59 68 100 
95 50 17 4 0 -1 -1 -1 -1 -1 -1 -1 0 4 19 52 95 95 52 19 5 3 10 28 63 97 97 63 28 9 1 0 -1 -1 -1 -1 -1 -1 -1 -1 -1 -1 -1 -1 -1 -1 -1 -1 -1 0 1 5 15 36 75 118 122 91 65 53 45 38 30 24 20 18 16 15 12 10 10 17 38 75 104 83 41 14 3 0 -1 -1 -1 -1 -1 -1 -1 -1 0 2 13 39 82 103 70 30 9 1 0 0 4 15 39 76 103 90 57 41 59 97 
95 50 17 4 0 -1 -1 -1 -1 -1 -1 -1 0 3 15 45 89 99 60 24 8 7 19 47 86 103 77 39 15 4 0 -1 -1 -1 -1 -1 -1 -1 -1 -1 -1 -1 -1 -1 -1 -1 -1 0 0 2 7 16 32 59 97 131 137 120 104 95 89 81 70 61 55 51 48 44 38 31 29 37 62 97 103 67 29 9 1 0 -1 -1 -1 -1 -1 -1 -1 -1 0 4 17 48 91 98 58 22 6 0 0 2 10 30 64 97 98 65 36 30 55 96 
95 50 17 4 0 -1 -1 -1 -1 -1 -1 -1 0 2 12 38 81 103 70 31 13 14 32 69 101 91 53 22 7 1 0 -1 -1 -1 -1 -1 -1 -1 -1 -1 -1 -1 -1 -1 -1 -1 0 1 4 10 22 40 65 92 113 120 114 104 99 98 100 103 103 100 97 95 92 88 81 72 68 76 98 117 96 51 19 5 0 -1 -1 -1 -1 -1 -1 -1 -1 -1 0 6 22 58 98 91 48 17 4 0 1 7 22 51 88 102 77 41 21 24 52 95 
95 50 17 4 0 -1 -1 -1 -1 -1 -1 -1 0 1 9 30 70 103 81 40 20 24 50 89 102 70 33 11 2 0 -1 -1 -1 -1 -1 -1 -1 -1 -1 -1 -1 -1 -1 -1 0 0 2 7 15 30 51 76 98 105 94 77 62 55 53 55 61 70 80 88 92 95 97 100 103 105 107 116 132 129 88 42 15 3 0 -1 -1 -1 -1 -1 -1 -1 -1 0 1 9 30 70 103 82 39 13 3 1 4 15 39 76 102 88 51 23 13 20 51 95 
95 50 17 4 0 -1 -1 -1 -1 -1 -1 -1 -1 0 6 23 60 100 90 50 29 38 72 102 89 49 19 5 0 -1 -1 -1 -1 -1 -1 -1 -1 -1 -1 -1 -1 -1 -1 0 0 4 10 21 39 64 88 102 98 77 54 35 24 20 19 20 24 30 37 44 48 51 55 61 71 83 95 111 130 129 89 43 16 4 0 0 -1 -1 -1 -1 -1 -1 -1 0 3 13 39 82 103 70 30 9 2 3 11 30 64 97 97 64 30 12 8 19 51 95 
95 50 17 4 0 -1 -1 -1 -1 -1 -1 -1 -1 0 4 19 52 95 97 61 43 59 92 101 69 31 10 2 0 -1 -1 -1 -1 -1 -1 -1 -1 -1 -1 -1 -1 -1 0 1 6 14 29 51 76 97 102 88 64 40 22 12 7 5 4 5 6 9 12 14 16 18 20 24 30 39 51 68 95 116 99 58 26 10 3 1 0 0 0 0 0 0 0 1 5 18 49 92 99 59 23 7 3 7 22 51 88 102 76 40 16 6 6 18 51 95 
95 50 17 4 0 -1 -1 -1 -1 -1 -1 -1 -1 0 3 15 45 89 104 77 65 85 104 86 47 18 5 0 -1 -1 -1 -1 -1 -1 -1 -1 -1 -1 -1 -1 0 0 2 8 18 36 62 88 102 97 76 51 30 15 7 3 1 0 0 0 0 1 2 3 3 4 5 6 9 13 20 33 58 93 107 83 48 25 13 7 5 4 4 4 4 4 4 6 12 28 62 101 93 50 19 6 6 16 40 76 102 88 51 22 7 2 5 18 51 95 
95 50 17 4 0 -1 -1 -1 -1 -1 -1 -1 -1 0 2 12 37 81 110 99 94 106 98 63 28 9 1 0 -1 -1 -1 -1 -1 -1 -1 -1 -1 -1 -1 0 1 4 11 23 43 71 96 103 89 64 39 22 10 4 1 0 -1 -1 -1 -1 -1 0 0 0 0 0 0 0 1 3 6 14 32 66 102 109 84 55 36 25 20 18 18 18 18 18 18 20 28 47 83 111 89 45 17 8 13 30 64 98 97 64 30 10 2 1 4 18 50 95 
95 50 17 4 0 -1 -1 -1 -1 -1 -1 -1 -1 0 1 8 29 70 112 122 119 109 77 39 15 4 0 -1 -1 -1 -1 -1 -1 -1 -1 -1 -1 0 0 2 7 15 30 52 79 100 100 79 52 30 15 7 2 0 0 -1 -1 -1 -1 -1 -1 -1 -1 -1 -1 -1 -1 -1 0 0 1 5 17 43 85 122 122 99 77 63 55 52 51 51 51 51 51 54 62 81 112 124 91 48 23 17 26 53 89 103 76 39 15 4 0 0 4 17 50 95 
95 50 17 4 0 -1 -1 -1 -1 -1 -1 -1 -1 -1 0 6 23 59 109 135 126 93 52 22 7 1 0 -1 -1 -1 -1 -1 -1 -1 -1 -1 0 1 4 10 22 39 64 89 103 96 71 43 23 11 4 1 0 -1 -1 -1 -1 -1 -1 -1 -1 -1 -1 -1 -1 -1 -1 -1 -1 -1 0 2 10 30 70 119 138 126 111 102 98 96 95 95 95 95 95 97 103 116 134 135 106 68 43 37 50 81 104 89 51 22 7 1 0 0 4 17 50 95 
95 50 17 4 0 -1 -1 -1 -1 -1 -1 -1 -1 -1 0 4 19 52 105 135 115 69 32 11 2 0 -1 -1 -1 -1 -1 -1 -1 -1 0 0 2 6 15 29 51 76 98 102 88 62 36 18 8 2 0 0 -1 -1 -1 -1 -1 -1 -1 -1 -1 -1 -1 -1 -1 -1 -1 -1 -1 -1 0 1 8 27 66 113 124 105 94 92 93 94 94 95 95 95 95 95 98 103 113 121 117 99 81 75 87 108 102 66 31 11 2 0 -1 0 4 17 50 95 
95 50 17 4 0 -1 -1 -1 -1 -1 -1 -1 -1 -1 0 4 17 50 101 126 94 48 18 5 0 -1 -1 -1 -1 -1 -1 -1 0 0 1 4 10 20 38 63 89 103 99 77 51 30 15 6 1 0 -1 -1 -1 -1 -1 -1 -1 -1 -1 -1 -1 -1 -1 -1 -1 -1 -1 -1 -1 -1 0 1 9 31 72 109 98 67 51 48 49 50 50 50 50 50 50 51 51 54 62 76 93 105 111 115 125 124 89 46 18 5 0 -1 -1 0 4 17 50 95 
95 50 17 4 0 -1 -1 -1 -1 -1 -1 -1 -1 -1 0 4 17 49 98 114 74 33 11 2 0 -1 -1 -1 -1 -1 0 0 1 3 7 15 28 49 76 101 108 94 69 44 25 12 5 2 0 0 -1 -1 -1 -1 -1 -1 -1 -1 -1 -1 -1 -1 -1 -1 -1 -1 -1 -1 -1 -1 0 2 12 38 81 105 77 40 23 18 17 17 17 17 17 17 17 18 18 20 24 34 50 70 94 118 137 126 82 38 14 3 0 -1 -1 0 4 17 50 95 
95 50 17 4 0 -1 -1 -1 -1 -1 -1 -1 -1 -1 0 4 18 51 97 103 60 24 6 0 0 -1 -1 -1 0 0 2 4 9 15 25 40 63 91 116 120 100 72 48 30 17 10 6 3 1 0 0 0 0 0 -1 -1 -1 -1 -1 -1 -1 -1 -1 -1 -1 -1 -1 -1 -1 -1 0 3 15 44 88 101 63 27 10 5 4 4 4 4 4 4 4 4 4 5 7 11 19 33 53 81 113 122 89 46 18 5 0 -1 -1 0 4 17 50 95 
95 50 17 4 0 -1 -1 -1 -1 -1 -1 -1 -1 -1 0 5 20 54 98 96 52 19 4 0 0 0 0 0 2 5 10 18 29 42 59 80 105 127 137 125 100 76 58 44 32 24 18 13 9 6 4 3 2 1 0 0 0 0 -1 -1 -1 -1 -1 -1 -1 -1 -1 -1 -1 -1 0 4 17 49 93 97 54 20 6 1 0 0 0 0 0 0 0 0 0 0 0 2 5 12 23 44 76 106 102 66 31 11 2 0 -1 0 4 17 50 95 
95 50 17 4 0 -1 -1 -1 -1 -1 -1 -1 -1 -1 0 6 24 61 100 89 45 15 4 0 0 1 3 6 11 19 31 48 66 84 98 109 115 119 122 121 112 102 93 83 70 58 48 39 30 23 19 15 12 9 6 4 2 1 0 0 0 0 0 -1 -1 -1 -1 -1 -1 -1 0 5 20 54 96 93 49 17 4 0 -1 -1 -1 -1 -1 -1 -1 -1 -1 -1 -1 0 0 3 8 20 44 80 104 89 51 22 7 1 0 0 4 17 50 95 
95 50 17 4 0 -1 -1 -1 -1 -1 -1 -1 -1 0 1 9 30 70 103 81 38 13 4 3 5 9 14 22 34 50 69 88 101 103 97 86 76 70 74 83 90 96 100 103 103 98 91 82 70 60 52 45 38 29 22 17 13 9 6 4 3 2 1 0 0 0 0 -1 -1 0 0 6 24 61 100 88 44 15 3 0 -1 -1 -1 -1 -1 -1 -1 -1 -1 -1 -1 -1 -1 0 2 8 23 52 89 103 76 40 15 4 0 0 4 17 50 95 
95 50 17 4 0 -1 -1 -1 -1 -1 -1 -1 -1 0 2 12 38 81 103 71 32 13 8 11 18 28 41 56 73 90 101 101 90 73 56 43 33 29 31 38 45 52 60 70 82 91 98 102 103 99 95 89 81 69 58 48 39 30 23 19 15 12 9 6 4 2 1 0 0 0 2 9 30 71 103 81 37 12 2 0 -1 -1 -1 -1 -1 -1 -1 -1 -1 -1 -1 -1 -1 -1 0 2 11 30 64 98 98 64 30 11 3 1 4 18 50 95 
95 50 17 4 0 -1 -1 -1 -1 -1 -1 -1 -1 0 3 15 45 89 101 64 31 19 21 32 48 66 83 96 103 101 88 69 50 34 22 15 10 8 9 12 15 19 23 30 39 48 58 69 81 89 95 99 103 102 98 91 82 70 60 52 45 38 29 22 17 13 9 6 5 4 6 15 40 82 103 70 30 9 1 0 -1 -1 -1 -1 -1 -1 -1 -1 -1 -1 -1 -1 -1 -1 -1 0 4 15 39 76 102 89 52 23 8 3 5 18 51 95 
95 50 17 4 0 -1 -1 -1 -1 -1 -1 -1 -1 0 4 19 52 96 102 66 41 38 51 69 88 101 103 96 83 66 47 31 19 11 6 3 1 1 1 2 3 4 6 9 13 17 22 29 38 45 52 60 70 82 91 98 102 103 99 95 89 81 69 58 48 39 30 23 19 17 17 25 52 92 101 61 23 6 0 -1 -1 -1 -1 -1 -1 -1 -1 -1 -1 -1 -1 -1 -1 -1 -1 0 1 7 21 51 88 103 79 43 18 7 6 18 51 95 
95 50 17 4 0 -1 -1 -1 -1 -1 -1 -1 -1 0 7 24 61 105 110 81 68 75 90 102 102 90 73 56 41 28 18 10 5 2 0 0 0 0 0 0 0 0 0 1 2 4 6 9 12 15 19 23 30 39 48 58 69 81 89 95 99 103 102 98 91 82 70 60 52 47 43 48 71 104 99 54 20 5 0 -1 -1 -1 -1 -1 -1 -1 -1 -1 -1 -1 -1 -1 -1 -1 -1 -1 0 2 10 29 62 96 100 71 37 16 10 19 51 95 
95 50 17 4 0 -1 -1 -1 -1 -1 -1 -1 0 2 11 33 75 120 126 109 102 105 102 89 70 50 34 22 14 8 4 2 0 0 -1 -1 -1 -1 -1 -1 -1 -1 -1 0 0 0 0 1 2 3 4 6 9 13 17 22 29 38 45 52 60 70 82 91 98 102 103 99 95 90 86 87 102 121 100 51 18 4 0 -1 -1 -1 -1 -1 -1 -1 -1 -1 -1 -1 -1 -1 -1 -1 -1 -1 -1 0 4 14 36 71 100 96 63 31 16 22 52 95 
95 50 17 4 0 -1 -1 -1 -1 -1 -1 -1 0 5 19 49 95 133 135 119 105 89 69 49 32 19 11 6 3 1 0 0 -1 -1 -1 -1 -1 -1 -1 -1 -1 -1 -1 -1 -1 -1 -1 0 0 0 0 0 1 2 4 6 9 12 15 19 23 30 39 48 58 69 81 89 95 100 106 115 129 136 102 49 17 3 0 -1 -1 -1 -1 -1 -1 -1 -1 -1 -1 -1 -1 -1 -1 -1 -1 -1 -1 0 0 6 18 43 79 103 88 53 29 27 54 96 
95 50 17 4 0 -1 -1 -1 -1 -1 -1 0 2 11 32 70 111 124 108 86 66 47 31 19 10 5 2 0 0 0 -1 -1 -1 -1 -1 -1 -1 -1 -1 -1 -1 -1 -1 -1 -1 -1 -1 -1 -1 -1 -1 -1 0 0 0 0 1 2 3 4 6 9 13 17 22 29 38 45 52 61 74 94 119 133 101 49 16 3 0 -1 -1 -1 -1 -1 -1 -1 -1 -1 -1 -1 -1 -1 -1 -1 -1 -1 -1 -1 0 1 8 23 52 88 103 80 49 38 58 97 
95 50 17 4 0 -1 -1 -1 -1 -1 0 1 7 22 52 92 110 92 63 42 28 18 10 5 2 0 0 -1 -1 -1 -1 -1 -1 -1 -1 -1 -1 -1 -1 -1 -1 -1 -1 -1 -1 -1 -1 -1 -1 -1 -1 -1 -1 -1 -1 -1 0 0 0 0 0 1 2 4 6 9 12 15 19 25 35 55 87 117 98 49 17 4 0 -1 -1 -1 -1 -1 -1 -1 -1 -1 -1 -1 -1 -1 -1 -1 -1 -1 -1 -1 -1 0 2 11 29 62 96 101 76 56 67 100 
96 50 17 4 0 -1 -1 -1 -1 -1 0 4 15 40 77 104 91 57 30 16 9 4 2 0 0 -1 -1 -1 -1 -1 -1 -1 -1 -1 -1 -1 -1 -1 -1 -1 -1 -1 -1 -1 -1 -1 -1 -1 -1 -1 -1 -1 -1 -1 -1 -1 -1 -1 -1 -1 -1 0 0 0 0 1 2 3 5 8 14 31 65 104 97 50 17 4 0 -1 -1 -1 -1 -1 -1 -1 -1 -1 -1 -1 -1 -1 -1 -1 -1 -1 -1 -1 -1 -1 0 4 14 36 71 100 100 81 81 105 
97 50 17 4 0 -1 -1 -1 -1 0 2 11 30 64 98 98 65 32 13 5 2 0 0 -1 -1 -1 -1 -1 -1 -1 -1 -1 -1 -1 -1 -1 -1 -1 -1 -1 -1 -1 -1 -1 -1 -1 -1 -1 -1 -1 -1 -1 -1 -1 -1 -1 -1 -1 -1 -1 -1 -1 -1 -1 -1 0 0 0 0 2 7 22 55 98 97 52 19 4 0 -1 -1 -1 -1 -1 -1 -1 -1 -1 -1 -1 -1 -1 -1 -1 -1 -1 -1 -1 -1 -1 0 0 6 18 43 79 106 105 101 113 
98 49 17 4 0 -1 -1 -1 0 1 8 23 52 89 103 78 41 17 5 1 0 0 -1 -1 -1 -1 -1 -1 -1 -1 -1 -1 -1 -1 -1 -1 -1 -1 -1 -1 -1 -1 -1 -1 -1 -1 -1 -1 -1 -1 -1 -1 -1 -1 -1 -1 -1 -1 -1 -1 -1 -1 -1 -1 -1 -1 -1 -1 0 0 5 19 52 96 99 57 22 6 1 0 -1 -1 -1 -1 -1 -1 -1 -1 -1 -1 -1 -1 -1 -1 -1 -1 -1 -1 -1 -1 -1 0 1 8 23 52 90 114 121 124 
100 48 16 3 0 -1 -1 0 1 7 19 43 79 106 93 56 26 10 3 1 0 0 0 0 0 0 0 0 0 0 -1 -1 -1 -1 -1 -1 -1 -1 -1 -1 -1 -1 -1 -1 -1 -1 -1 -1 -1 -1 -1 -1 -1 -1 -1 -1 -1 -1 -1 -1 -1 -1 -1 -1 -1 -1 -1 -1 0 1 6 21 54 99 108 68 30 11 4 0 0 -1 -1 -1 -1 -1 -1 -1 -1 -1 -1 -1 -1 -1 -1 -1 -1 -1 -1 -1 -1 -1 0 2 11 30 63 103 130 134 
100 48 16 3 0 -1 0 1 6 18 39 74 107 110 80 46 24 13 7 5 4 4 4 4 4 4 3 3 2 1 0 0 0 0 0 0 0 0 0 0 0 -1 -1 -1 -1 -1 -1 -1 -1 -1 -1 -1 -1 -1 -1 -1 -1 -1 -1 -1 -1 -1 -1 -1 -1 -1 -1 0 1 5 13 31 64 108 123 90 50 25 12 5 2 0 0 -1 -1 -1 -1 -1 -1 -1 -1 -1 -1 -1 -1 -1 -1 -1 -1 -1 -1 -1 -1 0 4 15 38 77 119 135 
99 48 16 3 0 0 1 6 18 39 72 109 129 115 86 61 44 32 24 20 18 18 18 17 17 17 16 14 12 9 6 5 4 4 4 4 4 3 3 2 1 0 0 0 0 0 0 0 0 0 0 0 0 -1 -1 -1 -1 -1 -1 -1 -1 -1 -1 -1 -1 0 0 2 7 16 31 55 88 124 138 118 84 54 33 19 9 4 1 0 -1 -1 -1 -1 -1 -1 -1 -1 -1 -1 -1 -1 -1 -1 -1 -1 -1 -1 -1 0 1 7 21 52 97 127 
98 49 17 4 1 2 7 18 40 72 107 132 136 124 108 95 83 71 61 55 52 51 51 50 50 49 48 44 37 30 24 20 18 18 17 17 17 16 14 12 9 6 5 4 4 4 4 4 4 3 3 2 1 0 0 0 0 0 0 0 0 0 0 0 0 2 5 11 22 40 64 90 110 121 123 120 110 92 70 47 28 15 7 2 0 0 -1 -1 -1 -1 -1 -1 -1 -1 -1 -1 -1 -1 -1 -1 -1 -1 -1 -1 0 2 12 34 76 114 
96 50 17 5 3 7 19 41 72 102 116 114 107 102 100 101 103 103 100 97 96 95 95 95 94 94 92 88 80 70 61 55 52 51 51 50 49 48 44 37 30 24 20 18 18 18 17 17 17 16 14 12 9 6 5 4 4 4 4 4 3 3 2 3 5 10 19 33 53 77 98 104 95 81 75 80 93 103 101 86 63 39 22 11 5 2 0 0 -1 -1 -1 -1 -1 -1 -1 -1 -1 -1 -1 -1 -1 -1 -1 -1 -1 0 7 24 62 104 
95 51 19 8 10 20 42 73 100 104 86 67 56 53 55 61 70 80 88 92 94 94 95 95 95 96 97 100 103 103 100 97 96 95 95 94 94 92 88 80 70 61 55 52 51 51 50 50 49 48 44 37 30 24 20 18 18 17 17 17 16 15 13 13 18 30 48 70 91 103 97 77 55 38 32 37 51 71 91 103 97 77 53 33 19 9 4 1 0 -1 -1 -1 -1 -1 -1 -1 -1 -1 -1 -1 -1 -1 -1 -1 -1 0 5 20 55 98 
96 53 23 17 25 45 74 99 100 75 47 29 21 19 20 24 30 37 44 48 49 50 50 51 51 52 55 61 70 80 88 92 94 94 95 95 96 97 100 103 103 100 97 96 95 95 95 94 94 92 88 80 70 61 55 52 51 51 50 49 48 44 40 40 48 66 87 101 101 86 63 40 23 13 10 12 20 33 53 77 97 103 91 70 47 28 15 7 2 0 0 -1 -1 -1 -1 -1 -1 -1 -1 -1 -1 -1 -1 -1 -1 0 4 18 52 96 
97 58 34 35 53 80 101 98 72 42 21 10 6 4 5 6 9 12 14 16 17 17 17 18 18 18 20 24 30 37 44 48 49 50 51 51 52 55 61 70 80 88 92 94 94 95 95 95 96 97 100 103 103 100 97 96 95 95 94 94 93 90 87 86 94 105 106 92 70 47 28 15 7 3 2 2 5 12 22 39 63 86 101 101 86 63 39 22 11 5 2 0 0 -1 -1 -1 -1 -1 -1 -1 -1 -1 -1 -1 -1 0 4 18 51 95 
102 70 56 68 90 103 95 69 39 18 7 2 0 0 0 0 1 2 3 3 4 4 4 4 4 4 5 6 9 12 14 16 17 17 17 18 18 20 24 30 37 44 48 49 50 50 51 51 52 55 61 70 80 88 92 94 94 95 95 96 99 106 118 129 129 112 83 55 33 19 9 4 1 0 0 0 0 2 7 15 28 47 70 91 103 97 77 53 33 19 9 4 1 0 -1 -1 -1 -1 -1 -1 -1 -1 -1 -1 -1 0 4 17 50 96 
111 91 88 100 103 88 62 36 17 6 1 0 -1 -1 -1 -1 0 0 0 0 0 0 0 0 0 0 0 0 1 2 3 3 4 4 4 4 4 5 6 9 12 14 16 17 17 17 18 18 18 20 24 30 37 44 48 49 50 51 51 53 59 74 102 132 129 90 51 26 12 5 2 0 0 -1 -1 -1 -1 0 1 4 9 19 33 53 77 97 103 91 70 47 28 15 7 2 0 0 -1 -1 -1 -1 -1 -1 -1 -1 -1 0 4 17 50 97 
124 118 113 103 79 52 29 14 5 1 0 -1 -1 -1 -1 -1 -1 -1 -1 -1 -1 -1 -1 -1 -1 -1 -1 -1 0 0 0 0 0 0 0 0 0 0 0 1 2 3 3 4 4 4 4 4 4 5 6 9 12 14 16 17 17 18 18 20 25 41 74 115 113 68 30 11 4 0 0 -1 -1 -1 -1 -1 -1 -1 0 0 2 5 11 22 39 63 86 101 101 86 63 39 22 11 5 2 0 0 -1 -1 -1 -1 -1 -1 -1 0 4 17 49 99 
135 130 106 74 44 23 11 4 0 0 -1 -1 -1 -1 -1 -1 -1 -1 -1 -1 -1 -1 -1 -1 -1 -1 -1 -1 -1 -1 -1 -1 -1 -1 -1 -1 -1 -1 -1 0 0 0 0 0 0 0 0 0 0 0 0 1 2 3 3 4 4 4 4 5 10 25 59 102 101 57 22 6 1 0 -1 -1 -1 -1 -1 -1 -1 -1 -1 -1 0 0 2 7 15 28 47 70 91 103 97 77 53 33 19 10 5 1 0 0 -1 -1 -1 -1 -1 0 3 16 48 100 
133 115 76 42 20 8 2 0 0 -1 -1 -1 -1 -1 -1 -1 -1 -1 -1 -1 -1 -1 -1 -1 -1 -1 -1 -1 -1 -1 -1 -1 -1 -1 -1 -1 -1 -1 -1 -1 -1 -1 -1 -1 -1 -1 -1 -1 -1 -1 -1 0 0 0 0 0 0 0 0 1 5 20 53 97 97 52 19 4 0 -1 -1 -1 -1 -1 -1 -1 -1 -1 -1 -1 -1 -1 0 1 4 9 19 33 53 77 97 103 91 70 49 31 18 9 4 1 0 -1 -1 -1 -1 0 3 16 48 101 
120 87 46 20 7 2 0 -1 -1 -1 -1 -1 -1 -1 -1 -1 -1 -1 -1 -1 -1 -1 -1 -1 -1 -1 -1 -1 -1 -1 -1 -1 -1 -1 -1 -1 -1 -1 -1 -1 -1 -1 -1 -1 -1 -1 -1 -1 -1 -1 -1 -1 -1 -1 -1 -1 -1 -1 -1 0 4 18 51 95 95 51 18 4 0 -1 -1 -1 -1 -1 -1 -1 -1 -1 -1 -1 -1 -1 -1 0 0 2 5 11 22 39 63 86 101 102 89 69 47 28 15 7 2 0 0 0 0 0 4 17 49 99 
107 67 29 10 2 0 -1 -1 -1 -1 -1 -1 -1 -1 -1 -1 -1 -1 -1 -1 -1 -1 -1 -1 -1 -1 -1 -1 -1 -1 -1 -1 -1 -1 -1 -1 -1 -1 -1 -1 -1 -1 -1 -1 -1 -1 -1 -1 -1 -1 -1 -1 -1 -1 -1 -1 -1 -1 -1 0 4 18 51 95 95 51 18 4 0 -1 -1 -1 -1 -1 -1 -1 -1 -1 -1 -1 -1 -1 -1 -1 -1 0 0 2 7 15 28 47 69 89 102 101 86 62 39 22 12 6 4 2 1 1 5 18 50 97 
100 56 21 6 0 0 -1 -1 -1 -1 -1 -1 -1 -1 -1 -1 -1 -1 -1 -1 -1 -1 -1 -1 -1 -1 -1 -1 -1 -1 -1 -1 -1 -1 -1 -1 -1 -1 -1 -1 -1 -1 -1 -1 -1 -1 -1 -1 -1 -1 -1 -1 -1 -1 -1 -1 -1 -1 -1 0 4 17 50 95 95 50 17 4 0 -1 -1 -1 -1 -1 -1 -1 -1 -1 -1 -1 -1 -1 -1 -1 -1 -1 -1 0 1 4 9 19 32 50 72 93 105 99 77 52 34 23 17 13 9 7 10 22 53 97 
97 52 19 5 0 0 -1 -1 -1 -1 -1 -1 -1 -1 -1 -1 -1 -1 -1 -1 -1 -1 -1 -1 -1 -1 -1 -1 -1 -1 -1 -1 -1 -1 -1 -1 -1 -1 -1 -1 -1 -1 -1 -1 -1 -1 -1 -1 -1 -1 -1 -1 -1 -1 -1 -1 -1 -1 -1 0 4 17 50 95 95 50 17 4 0 -1 -1 -1 -1 -1 -1 -1 -1 -1 -1 -1 -1 -1 -1 -1 -1 -1 -1 -1 0 0 2 6 12 23 38 61 90 113 115 98 76 59 48 39 30 24 23 32 61 100 
98 52 19 5 1 0 0 0 0 0 -1 -1 -1 -1 -1 -1 -1 -1 -1 -1 -1 -1 -1 -1 -1 -1 -1 -1 -1 -1 -1 -1 -1 -1 -1 -1 -1 -1 -1 -1 -1 -1 -1 -1 -1 -1 -1 -1 -1 -1 -1 -1 -1 -1 -1 -1 -1 -1 -1 0 4 17 50 95 95 50 17 4 0 -1 -1 -1 -1 -1 -1 -1 -1 -1 -1 -1 -1 -1 -1 -1 -1 -1 -1 -1 0 0 1 4 9 16 28 47 76 110 134 133 118 104 92 82 70 60 54 58 80 110 
103 55 23 9 5 4 3 3 2 1 0 0 0 0 0 0 0 0 -1 -1 -1 -1 -1 -1 -1 -1 -1 -1 -1 -1 -1 -1 -1 -1 -1 -1 -1 -1 -1 -1 -1 -1 -1 -1 -1 -1 -1 -1 -1 -1 -1 -1 -1 -1 -1 -1 -1 -1 -1 0 4 17 50 95 95 50 17 4 0 -1 -1 -1 -1 -1 -1 -1 -1 -1 -1 -1 -1 -1 -1 -1 -1 -1 0 0 1 3 6 11 19 31 46 65 90 115 128 123 111 104 102 104 103 100 96 98 111 126 
113 66 36 23 19 17 16 14 12 9 6 5 4 4 3 3 2 1 0 0 0 0 0 0 0 0 0 -1 -1 -1 -1 -1 -1 -1 -1 -1 -1 -1 -1 -1 -1 -1 -1 -1 -1 -1 -1 -1 -1 -1 -1 -1 -1 -1 -1 -1 -1 -1 -1 0 4 17 50 95 95 50 17 4 0 -1 -1 -1 -1 -1 -1 -1 -1 -1 -1 -1 -1 -1 -1 0 0 0 2 4 9 14 22 33 49 67 84 98 107 105 93 76 63 59 62 71 82 92 102 114 131 141 
129 93 67 55 52 50 48 44 37 30 24 20 18 17 16 14 12 9 6 5 4 4 4 3 3 2 1 0 0 0 0 0 0 0 0 -1 -1 -1 -1 -1 -1 -1 -1 -1 -1 -1 -1 -1 -1 -1 -1 -1 -1 -1 -1 -1 -1 -1 -1 0 4 17 50 95 95 50 17 4 0 -1 -1 -1 -1 -1 -1 -1 -1 -1 -1 -1 -1 0 0 1 3 6 11 18 28 41 56 73 89 101 103 96 83 66 48 33 25 22 24 30 39 49 62 82 112 139 
142 125 107 99 95 94 92 88 80 70 61 55 52 50 48 44 37 30 24 20 18 18 17 16 14 12 9 6 5 4 4 3 3 2 1 0 0 0 0 0 0 0 0 0 -1 -1 -1 -1 -1 -1 -1 -1 -1 -1 -1 -1 -1 -1 -1 0 4 17 50 95 95 50 17 4 0 -1 -1 -1 -1 -1 -1 -1 -1 -1 -1 0 0 2 4 8 14 22 33 48 66 83 96 103 101 89 73 56 41 28 18 11 7 6 6 9 13 18 27 46 80 124 
138 125 108 99 96 96 97 100 103 103 100 97 95 94 92 88 80 70 61 55 52 51 50 48 44 37 30 24 20 18 17 16 14 12 9 6 5 4 4 4 3 3 2 1 0 0 0 0 0 0 0 0 -1 -1 -1 -1 -1 -1 -1 0 4 18 51 95 95 50 17 4 0 -1 -1 -1 -1 -1 -1 -1 0 0 0 2 5 10 18 28 41 56 73 89 101 103 96 83 66 48 33 22 14 8 4 2 0 0 0 1 3 5 11 27 60 111 
120 93 68 56 52 52 55 61 70 80 88 92 94 95 97 100 103 103 100 97 95 95 94 92 88 80 70 61 55 52 50 48 44 37 30 24 20 18 18 17 16 14 12 9 6 5 4 4 3 3 2 1 0 0 0 0 0 0 0 0 4 18 51 95 95 51 18 4 0 -1 -1 -1 -1 -1 0 0 1 3 6 11 19 31 47 66 83 96 103 101 89 73 56 41 28 18 11 6 3 1 0 0 -1 -1 -1 0 0 1 6 20 53 102 
105 68 37 23 19 19 20 24 30 37 44 48 50 52 55 61 70 80 88 92 94 95 95 97 100 103 103 100 97 95 94 92 88 80 70 61 55 52 51 50 48 44 37 30 24 20 18 17 16 14 12 9 6 5 4 4 4 3 3 3 7 20 52 96 95 51 18 4 0 -1 -1 0 0 0 2 4 8 14 22 34 50 69 88 101 103 96 83 66 48 33 22 14 8 4 2 0 0 0 -1 -1 -1 -1 -1 -1 -1 0 4 18 51 97 
98 56 23 10 5 4 5 6 9 12 14 16 17 18 20 24 30 37 44 48 50 51 52 55 61 70 80 88 92 94 95 97 100 103 103 100 97 95 95 94 92 88 80 70 61 55 52 50 48 44 37 30 24 20 18 18 17 16 15 13 15 26 57 99 97 52 19 5 0 0 0 1 3 6 11 18 28 41 56 73 90 101 101 90 73 56 41 28 18 11 6 3 1 0 0 -1 -1 -1 -1 -1 -1 -1 -1 -1 -1 0 4 17 50 95 
96 52 19 5 1 0 0 0 1 2 3 3 4 4 5 6 9 12 14 16 17 18 18 20 24 30 37 44 48 50 52 55 61 70 80 88 92 94 95 95 97 100 103 103 100 97 95 94 92 88 80 70 61 55 52 51 50 48 44 39 36 43 70 107 102 57 22 7 2 2 5 9 14 22 33 48 66 83 96 103 101 88 69 50 34 22 14 9 4 2 0 0 0 -1 -1 -1 -1 -1 -1 -1 -1 -1 -1 -1 -1 0 4 17 50 95 
95 51 18 4 0 -1 -1 -1 0 0 0 0 0 0 0 0 1 2 3 3 4 4 4 5 6 9 12 14 16 17 18 20 24 30 37 44 48 50 51 52 55 61 70 80 88 92 94 95 97 100 103 103 100 97 95 95 94 92 88 82 75 77 97 124 114 68 31 14 10 12 18 28 41 56 73 89 101 103 96 83 66 47 31 19 11 6 3 1 0 0 -1 -1 -1 -1 -1 -1 -1 -1 -1 -1 -1 -1 -1 -1 -1 0 4 17 50 95 
95 51 18 4 0 -1 -1 -1 -1 -1 -1 -1 -1 -1 -1 -1 0 0 0 0 0 0 0 0 0 1 2 3 3 4 4 5 6 9 12 14 16 17 18 18 20 24 30 37 44 48 50 52 55 61 70 80 88 92 94 95 95 97 100 103 105 110 122 138 129 91 54 34 29 36 49 66 83 96 103 101 89 73 56 41 28 18 10 5 2 0 0 0 -1 -1 -1 -1 -1 -1 -1 -1 -1 -1 -1 -1 -1 -1 -1 -1 -1 0 4 17 50 95 
95 50 17 4 0 -1 -1 -1 -1 -1 -1 -1 -1 -1 -1 -1 -1 -1 -1 -1 -1 -1 -1 -1 -1 0 0 0 0 0 0 0 0 1 2 3 3 4 4 4 5 6 9 12 14 16 17 18 20 24 30 37 44 48 50 51 52 55 61 70 81 91 102 115 124 115 92 73 69 77 91 101 103 96 83 66 48 33 22 14 8 4 2 0 0 -1 -1 -1 -1 -1 -1 -1 -1 -1 -1 -1 -1 -1 -1 -1 -1 -1 -1 -1 -1 0 4 17 50 95 
95 51 18 4 0 -1 -1 -1 -1 -1 -1 -1 -1 -1 -1 -1 -1 -1 -1 -1 -1 -1 -1 -1 -1 -1 -1 -1 -1 -1 -1 -1 -1 0 0 0 0 0 0 0 0 0 1 2 3 3 4 4 5 6 9 12 14 16 17 18 18 20 24 30 38 45 53 67 90 115 126 120 113 108 102 90 73 56 41 28 18 11 6 3 1 0 0 -1 -1 -1 -1 -1 -1 -1 -1 -1 -1 -1 -1 -1 -1 -1 -1 -1 -1 -1 -1 -1 -1 0 4 18 51 95 
95 51 18 4 0 -1 -1 -1 -1 -1 -1 -1 -1 -1 -1 -1 -1 -1 -1 -1 -1 -1 -1 -1 -1 -1 -1 -1 -1 -1 -1 -1 -1 -1 -1 -1 -1 -1 -1 -1 0 0 0 0 0 0 0 0 0 0 1 2 3 4 4 4 4 5 6 9 12 16 21 31 53 91 130 137 116 91 69 49 34 22 15 9 5 2 0 0 0 0 -1 -1 -1 -1 -1 -1 -1 -1 -1 -1 -1 -1 -1 -1 -1 -1 -1 -1 -1 -1 -1 -1 -1 0 4 18 51 95 
96 52 19 5 1 0 0 0 0 0 0 0 0 0 0 0 0 0 0 0 0 0 0 0 0 0 0 0 0 0 0 0 0 0 0 0 0 0 0 0 0 0 0 0 0 0 0 0 0 0 0 0 1 1 1 1 1 1 2 2 4 5 8 15 33 70 115 123 88 55 34 21 12 7 4 2 1 0 0 0 0 0 0 0 0 0 0 0 0 0 0 0 0 0 0 0 0 0 0 0 0 0 0 0 0 1 5 19 52 96 
99 56 23 10 5 4 4 4 4 4 4 4 4 4 4 4 4 4 4 4 4 4 4 4 4 4 4 4 4 4 4 4 3 3 3 4 4 4 4 4 4 4 4 4 4 4 4 4 4 4 4 4 4 4 4 4 4 4 4 4 5 5 7 12 28 62 106 110 70 36 19 12 8 6 5 5 4 4 4 4 4 4 4 4 4 4 4 4 4 4 4 3 3 3 3 4 4 4 4 4 4 4 4 3 4 5 9 23 56 99 
107 67 36 23 19 18 18 17 17 17 17 17 17 17 17 17 17 17 17 17 17 17 17 17 17 17 17 17 17 17 17 17 16 16 16 17 17 17 17 17 17 17 17 17 17 17 17 17 17 16 16 17 17 17 17 18 18 18 18 18 18 18 19 24 38 69 110 111 72 41 26 21 19 18 18 18 18 18 17 17 17 17 17 17 17 17 17 17 17 17 17 16 16 16 17 17 17 17 17 17 17 17 17 17 17 18 23 36 67 107 
126 93 67 56 52 51 51 50 50 50 50 50 50 50 50 50 50 50 50 50 50 50 50 50 50 50 50 50 50 50 50 49 49 48 49 49 50 50 50 50 50 50 50 50 50 50 50 50 49 49 49 49 50 50 50 50 50 50 50 51 51 51 52 56 68 94 126 126 94 69 57 52 51 51 51 51 50 50 50 50 50 50 50 50 50 50 50 50 50 50 49 49 48 49 49 50 50 50 50 50 50 50 49 49 49 50 55 67 93 126 
150 126 107 99 96 95 95 95 95 95 95 95 95 95 95 95 95 95 95 95 95 95 95 95 95 95 95 95 95 95 96 98 100 101 99 97 95 95 95 95 95 95 95 95 95 95 95 96 99 101 101 98 96 95 95 95 95 95 95 95 95 95 96 98 105 119 135 135 119 105 98 96 95 95 95 95 95 95 95 95 95 95 95 95 95 95 95 95 95 96 98 100 101 99 97 95 95 95 95 95 95 96 97 100 101 101 101 108 127 150 
