P2
110 110
255
136 90 79 78 78 78 78 78 78 78 78 78 78 78 78 78 78 78 78 78 78 78 78 78 78 78 78 78 78 78 79 84 110 152 121 86 79 78 78 78 78 78 78 78 78 78 78 79 89 132 132 89 79 78 78 78 78 78 78 78 78 78 78 78 78 79 82 82 79 78 78 78 78 78 78 78 78 78 78 78 78 78 78 78 78 78 78 78 78 78 82 104 151 121 86 79 78 78 78 78 78 78 82 103 151 121 86 80 90 136 
90 25 11 9 9 9 9 9 9 9 9 9 9 9 9 9 9 9 9 9 9 9 9 9 9 9 9 9 9 10 14 41 110 104 37 13 10 9 9 9 9 9 9 9 9 9 9 11 25 90 90 25 11 9 9 9 9 9 9 9 9 9 9 9 9 9 9 9 9 9 9 9 9 9 9 9 9 9 9 9 9 9 9 9 9 9 9 9 9 11 25 85 111 40 14 10 9 9 9 9 9 11 22 79 112 40 14 11 25 90 
79 11 -3 -5 -5 -5 -5 -5 -5 -5 -5 -5 -5 -5 -5 -5 -5 -5 -5 -5 -5 -5 -5 -5 -5 -5 -5 -5 -4 -2 12 73 106 36 2 -4 -5 -5 -5 -5 -5 -5 -5 -5 -5 -5 -4 -2 14 87 80 11 -3 -5 -5 -5 -5 -5 -5 -5 -5 -5 -5 -5 -5 -5 -5 -5 -5 -5 -5 -5 -5 -5 -5 -5 -5 -5 -5 -5 -5 -5 -5 -5 -5 -5 -5 -5 -4 0 29 105 72 10 -3 -5 -5 -5 -5 -5 -5 -3 11 78 84 14 -2 -3 11 79 
78 9 -5 -6 -6 -6 -6 -6 -6 -6 -6 -6 -6 -6 -6 -6 -6 -6 -6 -6 -6 -6 -6 -6 -6 -6 -6 -6 -5 1 35 105 71 10 -4 -6 -6 -6 -6 -6 -6 -6 -6 -6 -6 -6 -6 -1 29 119 81 9 -5 -6 -6 -6 -6 -6 -6 -6 -6 -6 -6 -6 -6 -6 -6 -6 -6 -6 -6 -6 -6 -6 -6 -6 -6 -6 -6 -6 -6 -6 -6 -6 -6 -6 -6 -6 -5 6 65 105 28 -1 -6 -6 -6 -6 -6 -6 -6 -4 12 83 76 9 -4 -4 9 78 
78 9 -5 -6 -7 -7 -7 -7 -7 -7 -7 -7 -7 -7 -7 -7 -7 -7 -7 -7 -7 -7 -7 -7 -7 -7 -7 -6 -1 25 98 98 25 -1 -6 -7 -7 -7 -7 -7 -7 -7 -7 -7 -7 -6 -5 9 74 154 83 9 -5 -6 -7 -7 -7 -7 -7 -7 -7 -7 -7 -7 -7 -7 -7 -7 -7 -7 -7 -7 -7 -7 -7 -7 -7 -7 -7 -7 -7 -7 -7 -7 -7 -7 -7 -6 -4 12 82 82 12 -4 -6 -7 -7 -7 -7 -7 -6 -1 27 105 65 6 -5 -5 9 78 
78 9 -5 -6 -7 -7 -7 -7 -7 -7 -7 -7 -7 -7 -7 -7 -7 -7 -7 -7 -7 -7 -7 -7 -7 -7 -6 -4 10 71 105 35 1 -5 -6 -7 -7 -7 -7 -7 -7 -7 -7 -7 -7 -6 -1 28 110 138 81 9 -5 -6 -7 -7 -7 -7 -7 -7 -7 -7 -7 -7 -7 -7 -7 -7 -7 -7 -7 -7 -7 -7 -7 -7 -7 -7 -7 -7 -7 -7 -7 -7 -7 -7 -7 -6 -1 28 105 65 6 -5 -6 -7 -7 -7 -7 -6 -5 6 65 105 27 -1 -6 -5 9 78 
78 9 -5 -6 -7 -7 -7 -7 -7 -7 -7 -7 -7 -7 -7 -7 -7 -7 -7 -7 -7 -7 -7 -7 -7 -6 -5 1 35 105 71 10 -4 -6 -7 -7 -7 -7 -7 -7 -7 -7 -7 -7 -6 -5 9 72 116 106 80 10 -5 -6 -7 -7 -7 -7 -7 -7 -7 -7 -7 -7 -7 -7 -7 -7 -7 -7 -7 -7 -7 -7 -7 -7 -7 -7 -7 -7 -7 -7 -7 -7 -7 -7 -6 -5 9 71 104 27 -1 -6 -7 -7 -7 -7 -7 -6 -5 9 76 83 12 -4 -6 -5 9 78 
78 9 -5 -6 -7 -7 -7 -7 -7 -7 -7 -7 -7 -7 -7 -7 -7 -7 -7 -7 -7 -7 -7 -7 -7 -6 -1 25 98 98 25 -1 -6 -7 -7 -7 -7 -7 -7 -7 -7 -7 -7 -7 -6 -1 28 105 85 89 84 12 -4 -6 -7 -7 -7 -7 -7 -7 -7 -7 -7 -7 -7 -7 -7 -7 -7 -7 -7 -7 -7 -7 -7 -7 -7 -7 -7 -7 -7 -7 -7 -7 -7 -7 -6 -1 27 104 71 9 -5 -6 -7 -7 -7 -7 -7 -6 -4 12 83 76 9 -5 -6 -5 9 78 
78 9 -5 -6 -7 -7 -7 -7 -7 -7 -7 -7 -7 -7 -7 -7 -7 -7 -7 -7 -7 -7 -7 -7 -6 -4 10 71 105 35 1 -5 -6 -7 -7 -7 -7 -7 -7 -7 -7 -7 -7 -6 -4 10 71 105 40 69 106 27 -1 -6 -7 -7 -7 -7 -7 -7 -7 -7 -7 -7 -7 -7 -7 -7 -7 -7 -7 -7 -7 -7 -7 -7 -7 -7 -7 -7 -7 -7 -7 -7 -7 -6 -5 6 65 105 28 -1 -6 -7 -7 -7 -7 -7 -7 -6 -1 27 105 65 6 -5 -6 -5 9 78 
78 9 -5 -6 -7 -7 -7 -7 -7 -7 -7 -7 -7 -7 -7 -7 -7 -7 -7 -7 -7 -7 -7 -6 -5 1 35 105 71 10 -4 -6 -7 -7 -7 -7 -7 -7 -7 -7 -7 -7 -6 -5 1 35 105 71 14 29 105 65 6 -5 -6 -7 -7 -7 -7 -7 -7 -7 -7 -7 -7 -7 -7 -7 -7 -7 -7 -7 -7 -7 -7 -7 -7 -7 -7 -7 -7 -7 -7 -7 -7 -6 -4 12 82 82 12 -4 -6 -7 -7 -7 -7 -7 -6 -5 6 65 105 27 -1 -6 -6 -5 9 78 
78 9 -5 -6 -7 -7 -7 -7 -7 -7 -7 -7 -7 -7 -7 -7 -7 -7 -7 -7 -7 -7 -7 -6 -1 25 98 98 25 -1 -6 -7 -7 -7 -7 -7 -7 -7 -7 -7 -7 -7 -6 -1 25 98 98 25 0 13 84 76 9 -5 -6 -7 -7 -7 -7 -7 -7 -7 -7 -7 -7 -7 -7 -7 -7 -7 -7 -7 -7 -7 -7 -7 -7 -7 -7 -7 -7 -7 -7 -7 -7 -6 -1 28 105 65 6 -5 -6 -7 -7 -7 -7 -7 -6 -5 9 76 83 12 -4 -6 -6 -5 9 78 
78 9 -5 -6 -7 -7 -7 -7 -7 -7 -7 -7 -7 -7 -7 -7 -7 -7 -7 -7 -7 -7 -6 -4 10 71 105 35 1 -5 -6 -7 -7 -7 -7 -7 -7 -7 -7 -7 -7 -6 -5 9 71 105 35 1 -4 10 78 78 9 -5 -6 -7 -7 -7 -7 -7 -7 -7 -7 -7 -7 -7 -7 -7 -7 -7 -7 -7 -7 -7 -7 -7 -7 -7 -7 -7 -7 -7 -7 -7 -6 -5 9 71 104 27 -1 -6 -7 -7 -7 -7 -7 -7 -6 -4 12 83 76 9 -5 -6 -6 -5 9 78 
79 10 -5 -6 -7 -7 -7 -7 -7 -7 -7 -7 -7 -7 -7 -7 -7 -7 -7 -7 -7 -6 -5 1 35 105 71 10 -4 -6 -7 -7 -7 -7 -7 -7 -7 -7 -7 -7 -7 -6 -1 28 104 71 10 -4 -4 9 78 78 9 -5 -6 -7 -7 -7 -7 -7 -7 -7 -7 -7 -7 -7 -7 -7 -7 -7 -7 -7 -7 -7 -7 -7 -7 -7 -7 -7 -7 -7 -7 -7 -6 -1 27 104 71 9 -5 -6 -7 -7 -7 -7 -7 -7 -6 -1 27 105 65 6 -5 -6 -6 -5 9 78 
86 13 -4 -6 -7 -7 -7 -7 -7 -7 -7 -7 -7 -7 -7 -7 -7 -7 -7 -7 -7 -6 -1 25 98 98 25 -1 -6 -7 -7 -7 -7 -7 -7 -7 -7 -7 -7 -7 -6 -5 9 71 104 28 -1 -6 -5 9 78 78 10 -5 -6 -7 -7 -7 -7 -7 -7 -7 -7 -7 -7 -7 -7 -7 -7 -7 -7 -7 -7 -7 -7 -7 -7 -7 -7 -7 -7 -7 -7 -6 -5 6 65 105 28 -1 -6 -7 -7 -7 -7 -7 -7 -6 -5 6 65 105 27 -1 -6 -7 -6 -5 9 78 
121 37 2 -5 -6 -7 -7 -7 -7 -7 -7 -7 -7 -7 -7 -7 -7 -7 -7 -7 -6 -4 10 71 105 35 1 -5 -6 -7 -7 -7 -7 -7 -7 -7 -7 -7 -7 -7 -6 -1 28 104 71 9 -5 -6 -5 9 76 84 12 -4 -6 -7 -7 -7 -7 -7 -7 -7 -7 -7 -7 -7 -7 -7 -7 -7 -7 -7 -7 -7 -7 -7 -7 -7 -7 -7 -7 -7 -7 -6 -4 12 82 82 12 -4 -6 -7 -7 -7 -7 -7 -7 -6 -5 9 76 83 12 -4 -6 -7 -6 -5 9 81 
152 104 33 2 -5 -6 -7 -7 -7 -7 -7 -7 -7 -7 -7 -7 -7 -7 -7 -6 -5 1 35 105 71 10 -4 -6 -7 -7 -7 -7 -7 -7 -7 -7 -7 -7 -7 -6 -4 10 71 104 28 -1 -6 -6 -5 6 65 105 27 -1 -6 -7 -7 -7 -7 -7 -7 -7 -7 -7 -7 -7 -7 -7 -7 -7 -7 -7 -7 -7 -7 -7 -7 -7 -7 -7 -7 -7 -7 -6 -1 28 105 65 6 -5 -6 -7 -7 -7 -7 -7 -7 -6 -4 12 83 76 9 -5 -6 -7 -6 -5 9 83 
110 111 99 33 1 -6 -6 -7 -7 -7 -7 -7 -7 -7 -7 -7 -7 -7 -7 -6 -1 25 98 98 25 -1 -6 -7 -7 -7 -7 -7 -7 -7 -7 -7 -7 -7 -6 -5 1 35 105 71 9 -5 -6 -7 -6 -1 27 105 65 6 -5 -6 -7 -7 -7 -7 -7 -7 -7 -7 -7 -7 -7 -7 -7 -7 -7 -7 -7 -7 -7 -7 -7 -7 -7 -7 -7 -7 -6 -5 9 71 104 27 -1 -6 -7 -7 -7 -7 -7 -7 -7 -6 -1 27 105 65 6 -5 -6 -7 -6 -5 9 79 
85 49 100 97 25 -1 -6 -7 -7 -7 -7 -7 -7 -7 -7 -7 -7 -7 -6 -4 10 71 105 35 1 -5 -6 -7 -7 -7 -7 -7 -7 -7 -7 -7 -7 -7 -6 -1 25 98 98 25 -1 -6 -7 -7 -6 -4 12 84 76 9 -5 -6 -7 -7 -7 -7 -7 -7 -7 -7 -7 -7 -7 -7 -7 -7 -7 -7 -7 -7 -7 -7 -7 -7 -7 -7 -7 -7 -6 -1 27 104 71 9 -5 -6 -7 -7 -7 -7 -7 -7 -6 -5 6 65 105 27 -1 -6 -7 -7 -6 -5 9 78 
79 18 37 105 71 10 -4 -6 -7 -7 -7 -7 -7 -7 -7 -7 -7 -6 -5 1 35 105 71 10 -4 -6 -7 -7 -7 -7 -7 -7 -7 -7 -7 -7 -7 -6 -5 9 71 105 35 1 -5 -6 -7 -7 -6 -5 10 78 78 9 -5 -6 -7 -7 -7 -7 -7 -7 -7 -7 -7 -7 -7 -7 -7 -7 -7 -7 -7 -7 -7 -7 -7 -7 -7 -7 -7 -6 -5 6 65 105 28 -1 -6 -7 -7 -7 -7 -7 -7 -7 -6 -5 9 76 83 12 -4 -6 -7 -7 -6 -5 9 78 
78 12 12 71 105 36 2 -5 -6 -7 -7 -7 -7 -7 -7 -7 -7 -6 -1 25 98 98 25 -1 -6 -7 -7 -7 -7 -7 -7 -7 -7 -7 -7 -7 -7 -6 -1 28 104 71 10 -4 -6 -7 -7 -7 -6 -5 9 78 78 9 -5 -6 -7 -7 -7 -7 -7 -7 -7 -7 -7 -7 -7 -7 -7 -7 -7 -7 -7 -7 -7 -7 -7 -7 -7 -7 -7 -6 -4 12 82 82 12 -4 -6 -7 -7 -7 -7 -7 -7 -7 -6 -4 12 83 76 9 -5 -6 -7 -7 -6 -5 9 78 
78 10 0 25 97 99 33 2 -5 -6 -7 -7 -7 -7 -7 -7 -6 -4 10 71 105 35 1 -5 -6 -7 -7 -7 -7 -7 -7 -7 -7 -7 -7 -7 -6 -5 9 71 104 28 -1 -6 -7 -7 -7 -7 -6 -5 9 78 78 10 -5 -6 -7 -7 -7 -7 -7 -7 -7 -7 -7 -7 -7 -7 -7 -7 -7 -7 -7 -7 -7 -7 -7 -7 -7 -7 -7 -6 -1 28 105 65 6 -5 -6 -7 -7 -7 -7 -7 -7 -7 -6 -1 27 105 65 6 -5 -6 -7 -7 -6 -5 9 78 
78 9 -4 1 33 99 99 33 2 -5 -6 -7 -7 -7 -7 -6 -5 1 35 105 71 10 -4 -6 -7 -7 -7 -7 -7 -7 -7 -7 -7 -7 -7 -7 -6 -1 28 104 71 9 -5 -6 -7 -7 -7 -7 -6 -5 9 76 84 12 -4 -6 -7 -7 -7 -7 -7 -7 -7 -7 -7 -7 -7 -7 -7 -7 -7 -7 -7 -7 -7 -7 -7 -7 -7 -7 -6 -5 9 71 104 27 -1 -6 -7 -7 -7 -7 -7 -7 -7 -6 -5 6 65 105 27 -1 -6 -7 -7 -7 -6 -5 9 78 
78 9 -5 -5 2 33 99 99 33 2 -5 -6 -7 -7 -7 -6 -1 25 98 98 25 -1 -6 -7 -7 -7 -7 -7 -7 -7 -7 -7 -7 -7 -7 -6 -4 10 71 104 28 -1 -6 -7 -7 -7 -7 -7 -6 -5 6 65 105 27 -1 -6 -7 -7 -7 -7 -7 -7 -7 -7 -7 -7 -7 -7 -7 -7 -7 -7 -7 -7 -7 -7 -7 -7 -7 -7 -6 -1 27 104 71 9 -5 -6 -7 -7 -7 -7 -7 -7 -7 -6 -5 9 76 83 12 -4 -6 -7 -7 -7 -6 -5 9 78 
78 9 -5 -6 -5 2 33 99 99 33 2 -5 -6 -7 -6 -4 10 71 105 35 1 -5 -6 -7 -7 -7 -7 -7 -7 -7 -7 -7 -7 -7 -6 -5 1 35 105 71 9 -5 -6 -7 -7 -7 -7 -7 -7 -6 -1 27 105 65 6 -5 -6 -7 -7 -7 -7 -7 -7 -7 -7 -7 -7 -7 -7 -7 -7 -7 -7 -7 -7 -7 -7 -7 -7 -6 -5 6 65 105 28 -1 -6 -7 -7 -7 -7 -7 -7 -7 -7 -6 -4 12 83 76 9 -5 -6 -7 -7 -7 -6 -5 9 78 
78 9 -5 -6 -6 -5 2 33 99 99 33 2 -5 -6 -5 1 35 105 71 10 -4 -6 -7 -7 -7 -7 -7 -7 -7 -7 -7 -7 -7 -7 -6 -1 25 98 98 25 -1 -6 -7 -7 -7 -7 -7 -7 -7 -6 -4 12 84 76 9 -5 -6 -7 -7 -7 -7 -7 -7 -7 -7 -7 -7 -7 -7 -7 -7 -7 -7 -7 -7 -7 -7 -7 -7 -6 -4 12 82 82 12 -4 -6 -7 -7 -7 -7 -7 -7 -7 -7 -6 -1 27 105 65 6 -5 -6 -7 -7 -7 -6 -5 9 78 
78 9 -5 -6 -7 -6 -5 2 33 99 99 33 2 -5 -1 25 98 98 25 -1 -6 -7 -7 -7 -7 -7 -7 -7 -7 -7 -7 -7 -7 -6 -5 9 71 105 35 1 -5 -6 -7 -7 -7 -7 -7 -7 -7 -6 -5 10 78 78 9 -5 -6 -7 -7 -7 -7 -7 -7 -7 -7 -7 -7 -7 -7 -7 -7 -7 -7 -7 -7 -7 -7 -7 -7 -6 -1 28 105 65 6 -5 -6 -7 -7 -7 -7 -7 -7 -7 -6 -5 6 65 105 27 -1 -6 -7 -7 -7 -7 -6 -5 9 78 
78 9 -5 -6 -7 -7 -6 -5 2 33 99 99 33 4 11 71 105 35 1 -5 -6 -7 -7 -7 -7 -7 -7 -7 -7 -7 -7 -7 -7 -6 -1 28 104 71 10 -4 -6 -7 -7 -7 -7 -7 -7 -7 -7 -6 -5 9 78 78 10 -5 -6 -7 -7 -7 -7 -7 -7 -7 -7 -7 -7 -7 -7 -7 -7 -7 -7 -7 -7 -7 -7 -7 -6 -5 9 71 104 27 -1 -6 -7 -7 -7 -7 -7 -7 -7 -7 -6 -5 9 76 83 12 -4 -6 -7 -7 -7 -7 -6 -5 9 78 
78 9 -5 -6 -7 -7 -7 -6 -5 2 33 99 99 41 43 106 71 10 -4 -6 -7 -7 -7 -7 -7 -7 -7 -7 -7 -7 -7 -7 -6 -5 9 71 104 28 -1 -6 -7 -7 -7 -7 -7 -7 -7 -7 -7 -6 -5 9 76 84 12 -4 -6 -7 -7 -7 -7 -7 -7 -7 -7 -7 -7 -7 -7 -7 -7 -7 -7 -7 -7 -7 -7 -7 -6 -1 27 104 71 9 -5 -6 -7 -7 -7 -7 -7 -7 -7 -7 -6 -4 12 83 76 9 -5 -6 -7 -7 -7 -7 -6 -5 9 78 
78 9 -5 -6 -7 -7 -7 -7 -6 -5 2 33 100 120 121 99 25 -1 -6 -7 -7 -7 -7 -7 -7 -7 -7 -7 -7 -7 -7 -7 -6 -1 28 104 71 9 -5 -6 -7 -7 -7 -7 -7 -7 -7 -7 -7 -6 -5 6 65 105 27 -1 -6 -7 -7 -7 -7 -7 -7 -7 -7 -7 -7 -7 -7 -7 -7 -7 -7 -7 -7 -7 -7 -6 -5 6 65 105 28 -1 -6 -7 -7 -7 -7 -7 -7 -7 -7 -7 -6 -1 27 105 65 6 -5 -6 -7 -7 -7 -7 -6 -5 9 78 
78 9 -5 -6 -7 -7 -7 -7 -7 -6 -5 2 37 122 122 37 1 -5 -6 -7 -7 -7 -7 -7 -7 -7 -7 -7 -7 -7 -7 -6 -4 10 71 104 28 -1 -6 -7 -7 -7 -7 -7 -7 -7 -7 -7 -7 -7 -6 -1 27 105 65 6 -5 -6 -7 -7 -7 -7 -7 -7 -7 -7 -7 -7 -7 -7 -7 -7 -7 -7 -7 -7 -7 -6 -4 12 82 82 12 -4 -6 -7 -7 -7 -7 -7 -7 -7 -7 -6 -5 6 65 105 27 -1 -6 -7 -7 -7 -7 -7 -6 -5 9 78 
78 9 -5 -6 -7 -7 -7 -7 -7 -7 -6 -4 13 86 87 14 -4 -6 -7 -7 -7 -7 -7 -7 -7 -7 -7 -7 -7 -7 -6 -5 1 35 105 71 9 -5 -6 -7 -7 -7 -7 -7 -7 -7 -7 -7 -7 -7 -6 -4 12 84 76 9 -5 -6 -7 -7 -7 -7 -7 -7 -7 -7 -7 -7 -7 -7 -7 -7 -7 -7 -7 -7 -7 -6 -1 28 105 65 6 -5 -6 -7 -7 -7 -7 -7 -7 -7 -7 -6 -5 9 76 83 12 -4 -6 -7 -7 -7 -7 -7 -6 -5 9 78 
78 9 -5 -6 -7 -7 -7 -7 -7 -7 -6 -5 9 77 85 13 -4 -6 -7 -7 -7 -7 -7 -7 -7 -7 -7 -7 -7 -7 -6 -1 25 98 98 25 -1 -6 -7 -7 -7 -7 -7 -7 -7 -7 -7 -7 -7 -7 -6 -5 10 78 78 9 -5 -6 -7 -7 -7 -7 -7 -7 -7 -7 -7 -7 -7 -7 -7 -7 -7 -7 -7 -7 -6 -5 9 71 104 27 -1 -6 -7 -7 -7 -7 -7 -7 -7 -7 -7 -6 -4 12 83 76 9 -5 -6 -7 -7 -7 -7 -7 -6 -5 9 78 
78 9 -5 -6 -7 -7 -7 -7 -7 -7 -6 -5 6 65 105 27 -1 -6 -7 -7 -7 -7 -7 -7 -7 -7 -7 -7 -7 -6 -5 9 71 105 35 1 -5 -6 -7 -7 -7 -7 -7 -7 -7 -7 -7 -7 -7 -7 -6 -5 9 78 78 9 -5 -6 -7 -7 -7 -7 -7 -7 -7 -7 -7 -7 -7 -7 -7 -7 -7 -7 -7 -7 -6 -1 27 104 71 9 -5 -6 -7 -7 -7 -7 -7 -7 -7 -7 -7 -6 -1 27 105 65 6 -5 -6 -7 -7 -7 -7 -7 -6 -5 9 78 
78 9 -5 -6 -7 -7 -7 -7 -7 -7 -7 -6 -1 27 105 65 6 -5 -6 -7 -7 -7 -7 -7 -7 -7 -7 -7 -7 -6 -1 28 104 71 10 -4 -6 -7 -7 -7 -7 -7 -7 -7 -7 -7 -7 -7 -7 -7 -6 -5 9 78 78 10 -5 -6 -7 -7 -7 -7 -7 -7 -7 -7 -7 -7 -7 -7 -7 -7 -7 -7 -7 -6 -5 6 65 105 28 -1 -6 -7 -7 -7 -7 -7 -7 -7 -7 -7 -6 -5 6 65 105 27 -1 -6 -7 -7 -7 -7 -7 -7 -6 -5 9 78 
78 9 -5 -6 -7 -7 -7 -7 -7 -7 -7 -6 -4 12 84 76 9 -5 -6 -7 -7 -7 -7 -7 -7 -7 -7 -7 -6 -5 9 71 104 28 -1 -6 -7 -7 -7 -7 -7 -7 -7 -7 -7 -7 -7 -7 -7 -7 -6 -5 9 76 84 12 -4 -6 -7 -7 -7 -7 -7 -7 -7 -7 -7 -7 -7 -7 -7 -7 -7 -7 -7 -6 -4 12 82 82 12 -4 -6 -7 -7 -7 -7 -7 -7 -7 -7 -7 -6 -5 9 76 83 12 -4 -6 -7 -7 -7 -7 -7 -7 -6 -5 9 78 
78 9 -5 -6 -7 -7 -7 -7 -7 -7 -7 -6 -5 9 78 78 9 -5 -6 -7 -7 -7 -7 -7 -7 -7 -7 -7 -6 -1 28 104 71 9 -5 -6 -7 -7 -7 -7 -7 -7 -7 -7 -7 -7 -7 -7 -7 -7 -6 -5 6 65 105 27 -1 -6 -7 -7 -7 -7 -7 -7 -7 -7 -7 -7 -7 -7 -7 -7 -7 -7 -7 -6 -1 28 105 65 6 -5 -6 -7 -7 -7 -7 -7 -7 -7 -7 -7 -6 -4 12 83 76 9 -5 -6 -7 -7 -7 -7 -7 -7 -6 -5 10 79 
78 9 -5 -6 -7 -7 -7 -7 -7 -7 -7 -6 -5 9 76 84 12 -4 -6 -7 -7 -7 -7 -7 -7 -7 -7 -6 -4 10 71 104 28 -1 -6 -7 -7 -7 -7 -7 -7 -7 -7 -7 -7 -7 -7 -7 -7 -7 -7 -6 -1 27 105 65 6 -5 -6 -7 -7 -7 -7 -7 -7 -7 -7 -7 -7 -7 -7 -7 -7 -7 -6 -5 9 71 104 27 -1 -6 -7 -7 -7 -7 -7 -7 -7 -7 -7 -7 -6 -1 27 105 65 6 -5 -6 -7 -7 -7 -7 -7 -7 -6 -4 12 86 
81 9 -5 -6 -7 -7 -7 -7 -7 -7 -7 -6 -5 6 65 105 27 -1 -6 -7 -7 -7 -7 -7 -7 -7 -6 -5 1 35 105 71 9 -5 -6 -7 -7 -7 -7 -7 -7 -7 -7 -7 -7 -7 -7 -7 -7 -7 -7 -6 -4 12 84 76 9 -5 -6 -7 -7 -7 -7 -7 -7 -7 -7 -7 -7 -7 -7 -7 -7 -7 -6 -1 27 104 71 9 -5 -6 -7 -7 -7 -7 -7 -7 -7 -7 -7 -6 -5 6 65 105 27 -1 -6 -7 -7 -7 -7 -7 -7 -7 -6 -1 29 119 
83 9 -5 -6 -7 -7 -7 -7 -7 -7 -7 -7 -6 -1 27 105 65 6 -5 -6 -7 -7 -7 -7 -7 -7 -6 -1 25 98 98 25 -1 -6 -7 -7 -7 -7 -7 -7 -7 -7 -7 -7 -7 -7 -7 -7 -7 -7 -7 -6 -5 10 78 78 9 -5 -6 -7 -7 -7 -7 -7 -7 -7 -7 -7 -7 -7 -7 -7 -7 -6 -5 6 65 105 28 -1 -6 -7 -7 -7 -7 -7 -7 -7 -7 -7 -7 -6 -5 9 76 83 12 -4 -6 -7 -7 -7 -7 -7 -7 -6 -4 10 74 154 
81 9 -5 -6 -7 -7 -7 -7 -7 -7 -7 -7 -6 -4 12 84 76 9 -5 -6 -7 -7 -7 -7 -7 -6 -5 9 71 105 35 1 -5 -6 -7 -7 -7 -7 -7 -7 -7 -7 -7 -7 -7 -7 -7 -7 -7 -7 -7 -6 -5 9 78 78 9 -5 -6 -7 -7 -7 -7 -7 -7 -7 -7 -7 -7 -7 -7 -7 -7 -6 -4 12 82 82 12 -4 -6 -7 -7 -7 -7 -7 -7 -7 -7 -7 -7 -6 -4 12 83 76 9 -5 -6 -7 -7 -7 -7 -7 -6 -5 1 35 111 137 
79 9 -5 -6 -7 -7 -7 -7 -7 -7 -7 -7 -6 -5 9 78 78 9 -5 -6 -7 -7 -7 -7 -7 -6 -1 28 104 71 10 -4 -6 -7 -7 -7 -7 -7 -7 -7 -7 -7 -7 -7 -7 -7 -7 -7 -7 -7 -7 -6 -5 9 78 78 10 -5 -6 -7 -7 -7 -7 -7 -7 -7 -7 -7 -7 -7 -7 -7 -7 -6 -1 28 105 65 6 -5 -6 -7 -7 -7 -7 -7 -7 -7 -7 -7 -7 -6 -1 27 105 65 6 -5 -6 -7 -7 -7 -7 -7 -6 -1 25 98 110 104 
78 9 -5 -6 -7 -7 -7 -7 -7 -7 -7 -7 -6 -5 9 76 84 12 -4 -6 -7 -7 -7 -7 -6 -5 9 71 104 28 -1 -6 -7 -7 -7 -7 -7 -7 -7 -7 -7 -7 -7 -7 -7 -7 -7 -7 -7 -7 -7 -6 -5 9 76 84 12 -4 -6 -7 -7 -7 -7 -7 -7 -7 -7 -7 -7 -7 -7 -7 -6 -5 9 71 104 27 -1 -6 -7 -7 -7 -7 -7 -7 -7 -7 -7 -7 -6 -5 6 65 105 27 -1 -6 -7 -7 -7 -7 -7 -6 -4 10 71 107 51 85 
78 9 -5 -6 -7 -7 -7 -7 -7 -7 -7 -7 -6 -5 6 65 105 27 -1 -6 -7 -7 -7 -7 -6 -1 28 104 71 9 -5 -6 -7 -7 -7 -7 -7 -7 -7 -7 -7 -7 -7 -7 -7 -7 -7 -7 -7 -7 -7 -6 -5 6 65 105 27 -1 -6 -7 -7 -7 -7 -7 -7 -7 -7 -7 -7 -7 -7 -7 -6 -1 27 104 71 9 -5 -6 -7 -7 -7 -7 -7 -7 -7 -7 -7 -7 -6 -5 9 76 83 12 -4 -6 -7 -7 -7 -7 -6 -5 1 35 105 73 26 80 
78 9 -5 -6 -7 -7 -7 -7 -7 -7 -7 -7 -7 -6 -1 27 105 65 6 -5 -6 -7 -7 -6 -4 10 71 104 28 -1 -6 -7 -7 -7 -7 -7 -7 -7 -7 -7 -7 -7 -7 -7 -7 -7 -7 -7 -7 -7 -7 -7 -6 -1 27 105 65 6 -5 -6 -6 -6 -7 -7 -7 -7 -7 -7 -7 -7 -7 -6 -5 6 65 105 28 -1 -6 -7 -7 -7 -7 -7 -7 -7 -7 -7 -7 -7 -6 -4 12 83 76 9 -5 -6 -7 -7 -7 -7 -6 -1 25 98 98 27 14 78 
78 9 -5 -6 -7 -7 -7 -7 -7 -7 -7 -7 -7 -6 -4 12 84 76 9 -5 -6 -7 -6 -5 1 35 105 71 9 -5 -6 -7 -7 -7 -7 -7 -7 -7 -7 -7 -7 -7 -7 -7 -7 -7 -7 -7 -7 -7 -7 -7 -6 -4 13 85 77 10 -3 -5 -5 -5 -6 -6 -6 -6 -6 -6 -6 -7 -7 -6 -4 12 82 82 12 -4 -6 -7 -7 -7 -7 -7 -7 -7 -7 -7 -7 -7 -6 -1 27 105 65 6 -5 -6 -7 -7 -7 -6 -4 10 71 105 35 3 10 78 
78 9 -5 -6 -7 -7 -7 -7 -7 -7 -7 -7 -7 -6 -5 9 78 78 9 -5 -6 -7 -6 -1 25 98 98 25 -1 -6 -7 -7 -7 -7 -7 -7 -7 -7 -7 -7 -7 -7 -7 -7 -7 -7 -7 -7 -7 -7 -7 -6 -6 -3 14 87 89 25 11 9 9 6 -1 -4 -5 -5 -5 -5 -5 -6 -6 -6 -1 28 105 65 6 -5 -6 -7 -7 -7 -7 -7 -7 -7 -7 -7 -7 -6 -5 6 65 105 27 -1 -6 -7 -7 -7 -6 -5 1 35 105 71 10 -2 9 78 
78 9 -5 -6 -7 -7 -7 -7 -7 -7 -7 -7 -7 -6 -5 9 76 84 12 -4 -6 -6 -5 9 71 105 35 1 -5 -6 -7 -7 -7 -7 -7 -7 -7 -7 -7 -7 -7 -7 -7 -7 -7 -7 -7 -7 -7 -7 -6 -5 -1 10 39 122 132 89 79 78 76 65 27 12 10 9 9 9 6 -1 -4 -3 10 72 104 27 -1 -6 -7 -7 -7 -7 -7 -7 -7 -7 -7 -7 -7 -6 -5 9 76 83 12 -4 -6 -7 -7 -7 -6 -1 25 98 98 25 -1 -4 9 78 
78 9 -5 -6 -7 -7 -7 -7 -7 -7 -7 -7 -7 -6 -5 6 65 105 27 -1 -6 -6 -1 28 104 71 10 -4 -6 -7 -7 -7 -7 -7 -7 -7 -7 -7 -7 -7 -7 -7 -7 -7 -7 -7 -7 -7 -6 -6 -4 1 25 71 107 113 89 80 78 79 84 105 105 84 78 78 78 76 65 27 13 14 39 107 72 9 -5 -6 -7 -7 -7 -7 -7 -7 -7 -7 -7 -7 -7 -6 -4 12 83 76 9 -5 -6 -7 -7 -6 -4 10 71 105 35 1 -5 -5 9 78 
78 9 -5 -6 -7 -7 -7 -7 -7 -7 -7 -7 -7 -7 -6 -1 27 105 65 6 -5 -4 9 71 104 28 -1 -6 -7 -7 -7 -7 -7 -7 -7 -7 -7 -7 -7 -7 -7 -7 -7 -7 -7 -7 -7 -6 -5 -1 10 35 98 105 72 28 12 10 9 10 12 27 65 76 78 78 78 84 105 105 85 87 122 119 32 0 -6 -7 -7 -7 -7 -7 -7 -7 -7 -7 -7 -7 -7 -6 -1 27 105 65 6 -5 -6 -7 -6 -5 1 35 105 71 10 -4 -6 -5 9 78 
78 9 -5 -6 -7 -7 -7 -7 -7 -7 -7 -7 -7 -7 -6 -4 12 84 76 9 -4 -1 28 104 71 9 -5 -6 -7 -7 -7 -7 -7 -7 -7 -7 -7 -7 -7 -7 -7 -7 -7 -7 -7 -6 -6 -4 1 25 71 105 98 35 10 -1 -4 -5 -5 -5 -4 -1 6 9 9 9 10 12 27 65 77 86 122 119 32 0 -6 -7 -7 -7 -7 -7 -7 -7 -7 -7 -7 -7 -6 -5 6 65 105 27 -1 -6 -7 -7 -6 -1 25 98 98 25 -1 -6 -6 -5 9 78 
78 9 -5 -6 -7 -7 -7 -7 -7 -7 -7 -7 -7 -7 -6 -5 9 78 78 10 -2 10 71 104 28 -1 -6 -7 -7 -7 -7 -7 -7 -7 -7 -7 -7 -7 -7 -7 -7 -7 -7 -7 -6 -6 -1 10 35 98 105 71 25 1 -4 -6 -6 -6 -6 -6 -6 -6 -5 -5 -5 -5 -5 -4 -1 6 9 14 39 107 72 10 -4 -6 -7 -7 -7 -7 -7 -7 -7 -7 -7 -7 -6 -5 9 76 83 12 -4 -6 -7 -6 -4 10 71 105 35 1 -5 -6 -6 -5 9 78 
78 9 -5 -6 -7 -7 -7 -7 -7 -7 -7 -7 -7 -7 -6 -5 9 76 84 13 3 36 105 71 9 -5 -6 -7 -7 -7 -7 -7 -7 -7 -7 -7 -7 -7 -7 -7 -7 -7 -7 -6 -5 1 25 71 105 98 35 10 -1 -5 -6 -7 -7 -7 -7 -7 -7 -7 -6 -6 -6 -6 -6 -6 -6 -5 -5 -3 10 71 105 36 2 -4 -6 -6 -6 -6 -6 -6 -6 -6 -6 -6 -6 -4 12 83 76 9 -5 -6 -6 -5 1 35 105 71 10 -4 -6 -7 -6 -5 9 78 
78 9 -5 -6 -7 -7 -7 -7 -7 -7 -7 -7 -7 -7 -6 -5 6 65 106 32 30 98 98 25 -1 -6 -7 -7 -7 -7 -7 -7 -7 -7 -7 -7 -7 -7 -7 -7 -7 -6 -6 -4 2 33 97 105 71 25 1 -4 -6 -6 -7 -7 -7 -7 -7 -7 -7 -7 -7 -7 -7 -7 -7 -7 -7 -6 -6 -6 -1 25 98 100 36 10 -1 -4 -5 -5 -5 -5 -5 -5 -5 -5 -4 0 29 106 65 6 -5 -6 -6 -1 25 98 98 25 -1 -6 -7 -7 -6 -5 9 78 
78 9 -5 -6 -7 -7 -7 -7 -7 -7 -7 -7 -7 -7 -7 -6 -1 27 106 79 82 106 35 1 -5 -6 -7 -7 -7 -7 -7 -7 -7 -7 -7 -7 -7 -7 -7 -7 -6 -5 -1 10 36 99 99 36 10 -1 -5 -6 -7 -7 -7 -7 -7 -7 -7 -7 -7 -7 -7 -7 -7 -7 -7 -7 -7 -7 -7 -6 -5 1 36 114 120 74 28 12 10 9 9 9 9 9 9 9 11 22 76 113 32 0 -5 -6 -4 10 71 105 35 1 -5 -6 -7 -7 -6 -5 9 78 
78 9 -5 -6 -7 -7 -7 -7 -7 -7 -7 -7 -7 -7 -7 -6 -4 12 85 104 115 72 10 -4 -6 -7 -7 -7 -7 -7 -7 -7 -7 -7 -7 -7 -7 -7 -6 -6 -4 1 25 71 105 97 33 2 -4 -6 -6 -7 -7 -7 -7 -7 -7 -7 -7 -7 -7 -7 -7 -7 -7 -7 -7 -7 -7 -7 -7 -7 -6 -4 14 90 136 115 106 84 78 78 78 78 78 78 78 78 79 88 130 127 42 11 -1 -3 1 35 105 71 10 -4 -6 -7 -7 -7 -6 -5 9 78 
78 9 -5 -6 -7 -7 -7 -7 -7 -7 -7 -7 -7 -7 -7 -6 -5 10 81 137 110 28 -1 -6 -7 -7 -7 -7 -7 -7 -7 -7 -7 -7 -7 -7 -7 -6 -5 -1 10 35 98 105 71 25 1 -5 -6 -7 -7 -7 -7 -7 -7 -7 -7 -7 -7 -7 -7 -7 -7 -7 -7 -7 -7 -7 -7 -7 -7 -7 -6 -4 13 85 89 42 66 76 78 78 78 78 78 78 78 78 78 79 89 113 107 72 28 14 29 98 98 25 -1 -6 -7 -7 -7 -7 -6 -5 9 78 
78 9 -5 -6 -7 -7 -7 -7 -7 -7 -7 -7 -7 -7 -7 -6 -5 9 83 154 74 9 -5 -6 -7 -7 -7 -7 -7 -7 -7 -7 -7 -7 -7 -6 -6 -4 1 25 71 105 98 35 10 -1 -6 -6 -7 -7 -7 -7 -7 -7 -7 -7 -7 -7 -7 -7 -7 -7 -7 -7 -7 -7 -7 -7 -7 -7 -7 -7 -6 -1 27 106 66 11 7 9 9 9 9 9 9 9 9 9 9 10 12 28 71 104 105 82 92 110 36 1 -5 -6 -7 -7 -7 -7 -6 -5 9 78 
78 9 -5 -6 -7 -7 -7 -7 -7 -7 -7 -7 -7 -7 -7 -6 -5 9 81 119 29 -1 -6 -7 -7 -7 -7 -7 -7 -7 -7 -7 -7 -6 -6 -5 -1 10 35 98 105 71 25 1 -4 -6 -6 -7 -7 -7 -7 -7 -7 -7 -7 -7 -7 -7 -7 -7 -7 -7 -7 -7 -7 -7 -7 -7 -7 -7 -7 -6 -5 6 65 105 27 -1 -5 -5 -5 -5 -5 -5 -5 -5 -5 -5 -5 -5 -4 -1 9 28 72 111 150 97 18 -3 -6 -7 -7 -7 -7 -7 -6 -5 9 78 
78 9 -5 -6 -7 -7 -7 -7 -7 -7 -7 -7 -7 -7 -7 -6 -5 9 79 86 12 -4 -6 -7 -7 -7 -7 -7 -7 -7 -7 -6 -6 -5 -4 1 25 73 110 102 38 12 0 -4 -6 -6 -6 -6 -7 -7 -7 -7 -7 -7 -7 -7 -7 -7 -7 -7 -7 -7 -7 -7 -7 -7 -7 -7 -7 -7 -7 -6 -5 9 76 84 12 -4 -6 -6 -6 -6 -6 -6 -6 -6 -6 -6 -6 -6 -6 -6 -5 -1 10 36 110 114 36 1 -5 -6 -7 -7 -7 -7 -6 -5 9 78 
78 9 -5 -6 -7 -7 -7 -7 -7 -7 -7 -7 -7 -7 -7 -6 -5 10 79 78 9 -5 -6 -7 -7 -7 -7 -7 -7 -6 -6 -5 -1 6 13 36 108 153 128 58 20 12 9 6 -1 -4 -5 -5 -6 -6 -6 -6 -6 -7 -7 -7 -7 -7 -7 -7 -7 -7 -7 -7 -7 -7 -7 -7 -7 -7 -7 -6 -5 9 78 78 10 -5 -6 -7 -7 -7 -7 -7 -7 -7 -7 -7 -7 -7 -7 -7 -6 -6 -4 2 34 100 98 25 -1 -6 -7 -7 -7 -7 -6 -5 9 78 
78 9 -5 -6 -7 -7 -7 -7 -7 -7 -7 -7 -7 -7 -7 -6 -4 12 84 76 9 -5 -6 -7 -7 -7 -6 -6 -6 -5 -1 9 27 65 82 107 112 96 112 109 84 78 76 65 27 12 9 6 -1 -4 -5 -5 -5 -6 -6 -6 -6 -7 -7 -7 -7 -7 -7 -7 -7 -7 -7 -7 -7 -7 -7 -6 -5 10 78 78 9 -5 -6 -7 -7 -7 -7 -7 -7 -7 -7 -7 -7 -7 -7 -7 -7 -7 -6 -5 2 36 105 71 10 -4 -6 -7 -7 -7 -6 -5 9 78 
78 9 -5 -6 -7 -7 -7 -7 -7 -7 -7 -7 -7 -7 -7 -6 -1 27 105 65 6 -5 -6 -7 -6 -6 -5 -4 -1 9 28 71 104 105 82 65 28 15 28 65 76 78 84 105 105 83 76 65 27 12 9 9 6 -1 -4 -5 -5 -6 -6 -6 -6 -6 -7 -7 -7 -7 -7 -7 -7 -7 -7 -6 -4 12 84 76 9 -5 -6 -7 -7 -7 -7 -7 -7 -7 -7 -7 -7 -7 -7 -7 -7 -7 -7 -6 -4 10 71 105 35 1 -5 -6 -7 -7 -6 -5 9 78 
78 9 -5 -6 -7 -7 -7 -7 -7 -7 -7 -7 -7 -7 -6 -5 6 65 105 27 -1 -6 -6 -6 -5 -1 6 12 28 71 104 104 71 28 12 6 -1 -4 -1 6 9 9 12 27 65 76 83 105 105 84 78 76 65 27 12 9 6 -1 -4 -5 -5 -5 -6 -6 -6 -6 -7 -7 -7 -7 -7 -6 -1 27 105 65 6 -5 -6 -7 -7 -7 -7 -7 -7 -7 -7 -7 -7 -7 -7 -7 -7 -7 -7 -7 -6 -1 25 98 98 25 -1 -6 -7 -7 -6 -5 9 78 
78 9 -5 -6 -7 -7 -7 -7 -7 -7 -7 -7 -7 -7 -6 -5 9 76 84 12 -4 -6 -5 -1 9 27 65 82 105 104 71 28 9 -1 -4 -5 -6 -6 -6 -5 -5 -5 -4 -1 6 9 12 27 65 76 78 84 105 105 83 76 65 27 12 9 9 6 -1 -4 -5 -5 -6 -6 -6 -6 -6 -5 6 65 105 27 -1 -6 -7 -7 -7 -7 -7 -7 -7 -7 -7 -7 -7 -7 -7 -7 -7 -7 -7 -7 -6 -5 1 35 105 71 10 -4 -6 -7 -6 -5 9 78 
78 9 -5 -6 -7 -7 -7 -7 -7 -7 -7 -7 -7 -7 -6 -5 9 78 78 10 -3 -1 9 28 71 104 105 82 65 27 9 -1 -5 -6 -6 -6 -7 -7 -7 -6 -6 -6 -6 -6 -5 -5 -4 -1 6 9 9 12 27 65 76 83 105 105 84 78 76 65 27 12 9 6 -1 -4 -5 -5 -5 -4 9 76 84 12 -4 -6 -7 -7 -7 -7 -7 -7 -7 -7 -7 -7 -7 -7 -7 -7 -7 -7 -7 -7 -7 -6 -4 10 71 105 36 2 -5 -6 -6 -5 9 78 
78 9 -5 -6 -7 -7 -7 -7 -7 -7 -7 -7 -7 -7 -6 -4 12 84 78 14 11 28 71 104 104 71 28 12 6 -1 -5 -6 -6 -7 -7 -7 -7 -7 -7 -7 -7 -7 -7 -7 -6 -6 -6 -6 -5 -5 -5 -4 -1 6 9 12 27 65 76 78 84 105 105 83 76 65 27 12 9 9 6 0 11 79 79 10 -5 -6 -7 -7 -7 -7 -7 -7 -7 -7 -7 -7 -7 -7 -7 -7 -7 -7 -7 -7 -7 -7 -6 -1 25 97 99 33 1 -6 -6 -5 9 78 
78 9 -5 -6 -7 -7 -7 -7 -7 -7 -7 -7 -7 -7 -6 -1 28 110 81 41 72 104 104 71 28 9 -1 -4 -5 -6 -6 -7 -7 -7 -7 -7 -7 -7 -7 -7 -7 -7 -7 -7 -7 -7 -7 -7 -6 -6 -6 -6 -6 -5 -5 -4 -1 6 9 9 12 27 65 76 83 105 105 84 78 76 65 29 28 89 79 9 -5 -6 -7 -7 -7 -7 -7 -7 -7 -7 -7 -7 -7 -7 -7 -7 -7 -7 -7 -7 -7 -7 -6 -6 1 33 99 97 25 -1 -6 -5 9 78 
78 9 -5 -6 -7 -7 -7 -7 -7 -7 -7 -7 -7 -6 -5 9 75 149 109 109 104 71 28 9 -1 -5 -6 -6 -6 -7 -7 -7 -7 -7 -7 -7 -7 -7 -7 -7 -7 -7 -7 -7 -7 -7 -7 -7 -7 -7 -7 -7 -7 -6 -6 -6 -6 -5 -5 -5 -4 -1 6 9 12 27 65 76 78 84 105 107 95 132 82 9 -5 -6 -7 -7 -7 -7 -7 -7 -7 -7 -7 -7 -7 -7 -7 -7 -7 -7 -7 -7 -7 -7 -7 -6 -5 2 36 105 71 10 -4 -4 9 78 
78 9 -5 -6 -7 -7 -7 -7 -7 -7 -7 -7 -7 -6 -1 28 110 121 85 66 27 9 -1 -5 -6 -6 -7 -7 -7 -7 -7 -7 -7 -7 -7 -7 -7 -7 -7 -7 -7 -7 -7 -7 -7 -7 -7 -7 -7 -7 -7 -7 -7 -7 -7 -7 -7 -6 -6 -6 -6 -6 -5 -5 -4 -1 6 9 9 12 27 66 87 132 82 9 -5 -6 -7 -7 -7 -7 -7 -7 -7 -7 -7 -7 -7 -7 -7 -7 -7 -7 -7 -7 -7 -7 -7 -7 -6 -4 10 71 105 36 2 -3 9 78 
78 9 -5 -6 -7 -7 -7 -7 -7 -7 -7 -7 -6 -4 10 72 107 39 13 6 -1 -5 -6 -6 -7 -7 -7 -7 -7 -7 -7 -7 -7 -7 -7 -7 -7 -7 -7 -7 -7 -7 -7 -7 -7 -7 -7 -7 -7 -7 -7 -7 -7 -7 -7 -7 -7 -7 -7 -7 -7 -7 -6 -6 -6 -6 -5 -5 -5 -4 -1 8 25 89 79 9 -5 -6 -7 -7 -7 -7 -7 -7 -7 -7 -7 -7 -7 -7 -7 -7 -7 -7 -7 -7 -7 -7 -7 -7 -7 -6 -1 25 97 99 33 2 10 78 
78 9 -5 -6 -7 -7 -7 -7 -7 -7 -7 -6 -5 1 35 105 71 10 -3 -5 -6 -6 -7 -7 -7 -7 -7 -7 -7 -7 -7 -7 -7 -7 -7 -7 -7 -7 -7 -7 -7 -7 -7 -7 -7 -7 -7 -7 -7 -7 -7 -7 -7 -7 -7 -7 -7 -7 -7 -7 -7 -7 -7 -7 -7 -7 -6 -6 -6 -6 -6 -3 11 79 78 9 -5 -6 -7 -7 -7 -7 -7 -7 -7 -7 -7 -7 -7 -7 -7 -7 -7 -7 -7 -7 -7 -7 -7 -7 -7 -6 -6 1 33 99 98 27 14 78 
78 9 -5 -6 -7 -7 -7 -7 -7 -7 -7 -6 -1 25 98 98 25 -1 -6 -6 -7 -7 -7 -7 -7 -7 -7 -7 -7 -7 -7 -7 -7 -7 -7 -7 -7 -7 -7 -7 -7 -7 -7 -7 -7 -7 -7 -7 -7 -7 -7 -7 -7 -7 -7 -7 -7 -7 -7 -7 -7 -7 -7 -7 -7 -7 -7 -7 -7 -7 -6 -5 9 78 78 9 -5 -6 -7 -7 -7 -7 -7 -7 -7 -7 -7 -7 -7 -7 -7 -7 -7 -7 -7 -7 -7 -7 -7 -7 -7 -7 -6 -5 2 36 105 73 26 80 
78 9 -5 -6 -7 -7 -7 -7 -7 -7 -6 -4 10 71 105 35 1 -5 -6 -7 -7 -7 -7 -7 -7 -7 -7 -7 -7 -7 -7 -7 -7 -7 -7 -7 -7 -7 -7 -7 -7 -7 -7 -7 -7 -7 -7 -7 -7 -7 -7 -7 -7 -7 -7 -7 -7 -7 -7 -7 -7 -7 -7 -7 -7 -7 -7 -7 -7 -7 -6 -5 9 78 79 10 -5 -6 -7 -7 -7 -7 -7 -7 -7 -7 -7 -7 -7 -7 -7 -7 -7 -7 -7 -7 -7 -7 -7 -7 -7 -7 -7 -6 -4 10 71 107 51 85 
79 9 -5 -6 -7 -7 -7 -7 -7 -6 -5 2 36 105 71 10 -4 -6 -7 -7 -7 -7 -7 -7 -7 -7 -7 -7 -7 -7 -7 -7 -7 -7 -7 -7 -7 -7 -7 -7 -7 -7 -7 -7 -7 -7 -7 -7 -7 -7 -7 -7 -7 -7 -7 -7 -7 -7 -7 -7 -7 -7 -7 -7 -7 -7 -7 -7 -7 -7 -6 -5 9 77 84 13 -4 -6 -7 -7 -7 -7 -7 -7 -7 -7 -7 -7 -7 -7 -7 -7 -7 -7 -7 -7 -7 -7 -7 -7 -7 -7 -7 -7 -6 -1 25 98 110 104 
81 9 -5 -6 -7 -7 -7 -7 -6 -5 2 33 100 99 27 0 -5 -6 -6 -6 -6 -6 -6 -6 -6 -6 -6 -6 -6 -7 -7 -7 -7 -7 -7 -7 -7 -7 -7 -7 -7 -7 -7 -7 -7 -7 -7 -7 -7 -7 -7 -7 -7 -7 -7 -7 -7 -7 -7 -7 -7 -7 -7 -7 -7 -7 -7 -7 -7 -6 -6 -3 11 76 112 37 2 -4 -6 -6 -7 -7 -7 -7 -7 -7 -7 -7 -7 -7 -7 -7 -7 -7 -7 -7 -7 -7 -7 -7 -7 -7 -7 -7 -6 -5 1 35 111 137 
83 9 -5 -6 -7 -7 -7 -6 -5 2 34 103 111 48 17 10 6 -1 -4 -5 -5 -5 -5 -5 -5 -5 -5 -5 -5 -6 -6 -6 -6 -6 -6 -6 -6 -6 -6 -6 -7 -7 -7 -7 -7 -7 -7 -7 -7 -7 -7 -7 -7 -7 -7 -7 -7 -7 -7 -7 -7 -7 -7 -7 -7 -7 -7 -7 -6 -5 -1 9 31 92 150 110 36 10 -1 -5 -6 -6 -7 -7 -7 -7 -7 -7 -7 -7 -7 -7 -7 -7 -7 -7 -7 -7 -7 -7 -7 -7 -7 -7 -7 -6 -4 10 74 154 
81 9 -5 -6 -7 -7 -6 -5 2 34 110 152 110 85 79 76 65 27 12 10 9 9 9 9 9 9 9 9 6 -1 -4 -5 -5 -5 -5 -5 -5 -5 -5 -5 -6 -6 -6 -6 -6 -6 -6 -6 -6 -6 -6 -6 -7 -7 -7 -7 -7 -7 -7 -7 -7 -7 -7 -7 -7 -7 -6 -6 -4 1 25 71 105 109 96 113 107 71 28 9 -1 -5 -6 -7 -7 -7 -7 -7 -7 -7 -7 -7 -7 -7 -7 -7 -7 -7 -7 -7 -7 -7 -7 -7 -7 -7 -6 -1 29 119 
78 9 -5 -6 -7 -6 -5 2 33 100 113 90 80 78 79 84 105 105 84 78 78 78 78 78 78 78 78 76 65 27 12 10 9 9 9 9 9 9 9 6 -1 -4 -5 -5 -5 -5 -5 -5 -5 -5 -5 -5 -6 -6 -6 -6 -6 -6 -6 -6 -6 -6 -6 -7 -6 -6 -5 -1 10 35 98 105 71 29 16 29 71 104 104 71 25 1 -4 -6 -6 -7 -7 -7 -7 -7 -7 -7 -7 -7 -7 -7 -7 -7 -7 -7 -7 -7 -7 -7 -7 -7 -6 -4 12 86 
78 9 -5 -6 -6 -5 2 33 99 99 36 13 10 9 10 12 27 65 76 78 78 78 78 78 78 78 78 84 105 105 84 78 78 78 78 78 78 78 76 65 27 12 10 9 9 9 9 9 9 9 9 6 -1 -4 -5 -5 -5 -5 -5 -5 -5 -5 -5 -6 -5 -1 9 28 71 105 98 35 10 -1 -4 -1 9 28 71 105 98 35 10 -1 -5 -6 -6 -7 -7 -7 -7 -7 -7 -7 -7 -7 -7 -7 -7 -7 -7 -7 -7 -7 -7 -7 -6 -5 10 79 
78 9 -5 -6 -4 2 33 99 99 33 2 -4 -5 -5 -5 -4 -1 6 9 9 9 9 9 9 9 9 10 12 27 65 76 78 78 78 78 78 78 78 84 105 105 84 78 78 78 78 78 78 78 78 76 65 27 12 10 9 9 9 9 9 9 9 6 0 1 25 71 104 104 71 25 1 -4 -6 -6 -6 -5 -1 10 35 98 105 71 28 9 -1 -5 -6 -7 -7 -7 -7 -7 -7 -7 -7 -7 -7 -7 -7 -7 -7 -7 -7 -7 -7 -6 -5 9 78 
78 9 -4 -1 10 36 99 99 33 2 -5 -6 -6 -6 -6 -6 -6 -5 -5 -5 -5 -5 -5 -5 -5 -5 -5 -4 -1 6 9 9 9 9 9 9 9 10 12 27 65 76 78 78 78 78 78 78 78 78 84 105 105 84 78 78 78 78 78 78 78 76 65 32 39 98 105 71 28 9 -1 -5 -6 -7 -7 -7 -6 -6 -4 1 25 71 104 104 71 25 1 -4 -6 -6 -7 -7 -7 -7 -7 -7 -7 -7 -7 -7 -7 -7 -7 -7 -7 -7 -6 -5 9 78 
78 11 2 25 71 105 97 33 2 -5 -6 -7 -7 -7 -7 -7 -7 -6 -6 -6 -6 -6 -6 -6 -6 -6 -6 -6 -6 -5 -5 -5 -5 -5 -5 -5 -5 -5 -4 -1 6 9 9 9 9 9 9 9 9 10 12 27 65 76 78 78 78 78 78 78 79 84 108 119 120 101 36 10 -1 -5 -6 -6 -7 -7 -7 -7 -7 -7 -6 -5 -1 9 28 71 105 98 35 10 -1 -5 -6 -6 -7 -7 -7 -7 -7 -7 -7 -7 -7 -7 -7 -7 -7 -7 -6 -5 9 78 
79 18 35 98 105 71 25 1 -5 -6 -7 -7 -7 -7 -7 -7 -7 -7 -7 -7 -7 -7 -7 -7 -7 -7 -7 -7 -7 -6 -6 -6 -6 -6 -6 -6 -6 -6 -6 -6 -5 -5 -5 -5 -5 -5 -5 -5 -5 -5 -4 -1 6 9 9 9 9 9 9 9 10 14 40 122 122 37 2 -4 -6 -6 -7 -7 -7 -7 -7 -7 -7 -7 -7 -6 -6 -5 -1 10 35 98 105 71 28 9 -1 -5 -6 -7 -7 -7 -7 -7 -7 -7 -7 -7 -7 -7 -7 -7 -6 -5 9 78 
85 49 100 99 36 10 -1 -6 -6 -7 -7 -7 -7 -7 -7 -7 -7 -7 -7 -7 -7 -7 -7 -7 -7 -7 -7 -7 -7 -7 -7 -7 -7 -7 -7 -7 -7 -7 -7 -7 -6 -6 -6 -6 -6 -6 -6 -6 -6 -6 -6 -6 -5 -5 -5 -5 -5 -5 -5 -5 -4 -2 14 87 87 13 -4 -6 -7 -7 -7 -7 -7 -7 -7 -7 -7 -7 -7 -7 -7 -6 -6 -4 1 25 71 104 104 71 25 1 -4 -6 -6 -7 -7 -7 -7 -7 -7 -7 -7 -7 -7 -7 -6 -5 9 78 
110 111 99 33 2 -4 -6 -6 -7 -7 -7 -7 -7 -7 -7 -7 -7 -7 -7 -7 -7 -7 -7 -7 -7 -7 -7 -7 -7 -7 -7 -7 -7 -7 -7 -7 -7 -7 -7 -7 -7 -7 -7 -7 -7 -7 -7 -7 -7 -7 -7 -7 -6 -6 -6 -6 -6 -6 -6 -6 -6 -4 10 79 79 10 -5 -6 -7 -7 -7 -7 -7 -7 -7 -7 -7 -7 -7 -7 -7 -7 -7 -6 -5 -1 9 28 71 105 98 35 10 -1 -5 -6 -6 -7 -7 -7 -7 -7 -7 -7 -7 -7 -6 -5 9 79 
152 104 33 2 -5 -6 -7 -7 -7 -7 -7 -7 -7 -7 -7 -7 -7 -7 -7 -7 -7 -7 -7 -7 -7 -7 -7 -7 -7 -7 -7 -7 -7 -7 -7 -7 -7 -7 -7 -7 -7 -7 -7 -7 -7 -7 -7 -7 -7 -7 -7 -7 -7 -7 -7 -7 -7 -7 -7 -7 -6 -5 9 78 78 9 -5 -6 -7 -7 -7 -7 -7 -7 -7 -7 -7 -7 -7 -7 -7 -7 -7 -7 -6 -6 -5 -1 10 35 98 105 71 28 9 -1 -5 -6 -6 -7 -7 -7 -7 -7 -7 -7 -6 -5 9 83 
121 37 2 -5 -6 -7 -7 -7 -7 -7 -7 -7 -7 -7 -7 -7 -7 -7 -7 -7 -7 -7 -7 -7 -7 -7 -7 -7 -7 -7 -7 -7 -7 -7 -7 -7 -7 -7 -7 -7 -7 -7 -7 -7 -7 -7 -7 -7 -7 -7 -7 -7 -7 -7 -7 -7 -7 -7 -7 -7 -6 -5 9 78 78 9 -5 -6 -7 -7 -7 -7 -7 -7 -7 -7 -7 -7 -7 -7 -7 -7 -7 -7 -7 -7 -6 -6 -4 1 25 71 104 104 71 28 9 -1 -5 -6 -7 -7 -7 -7 -7 -7 -6 -5 9 81 
86 13 -4 -6 -7 -7 -7 -7 -7 -7 -7 -7 -7 -7 -7 -7 -7 -7 -7 -7 -7 -7 -7 -7 -7 -7 -7 -7 -7 -7 -7 -7 -7 -7 -7 -7 -7 -7 -7 -7 -7 -7 -7 -7 -7 -7 -7 -7 -7 -7 -7 -7 -7 -7 -7 -7 -7 -7 -7 -7 -6 -5 9 78 78 9 -5 -6 -7 -7 -7 -7 -7 -7 -7 -7 -7 -7 -7 -7 -7 -7 -7 -7 -7 -7 -7 -7 -6 -5 -1 9 28 71 104 104 71 25 1 -4 -6 -6 -6 -6 -7 -7 -6 -5 9 78 
79 10 -5 -6 -7 -7 -7 -7 -7 -7 -7 -7 -7 -7 -7 -7 -7 -7 -7 -7 -7 -7 -7 -7 -7 -7 -7 -7 -7 -7 -7 -7 -7 -7 -7 -7 -7 -7 -7 -7 -7 -7 -7 -7 -7 -7 -7 -7 -7 -7 -7 -7 -7 -7 -7 -7 -7 -7 -7 -7 -6 -5 9 78 78 9 -5 -6 -7 -7 -7 -7 -7 -7 -7 -7 -7 -7 -7 -7 -7 -7 -7 -7 -7 -7 -7 -7 -7 -6 -6 -5 -1 9 28 71 105 98 35 10 -1 -4 -5 -5 -6 -6 -6 -5 9 78 
78 9 -5 -6 -7 -7 -7 -7 -7 -7 -7 -7 -7 -7 -7 -7 -7 -7 -7 -7 -7 -7 -7 -7 -7 -7 -7 -7 -7 -7 -7 -7 -7 -7 -7 -7 -7 -7 -7 -7 -7 -7 -7 -7 -7 -7 -7 -7 -7 -7 -7 -7 -7 -7 -7 -7 -7 -7 -7 -7 -6 -5 9 78 78 9 -5 -6 -7 -7 -7 -7 -7 -7 -7 -7 -7 -7 -7 -7 -7 -7 -7 -7 -7 -7 -7 -7 -7 -7 -7 -6 -6 -4 -1 10 36 99 107 74 29 12 9 6 -1 -4 -5 -3 10 78 
78 9 -5 -6 -7 -7 -7 -7 -7 -7 -7 -7 -7 -7 -7 -7 -7 -7 -7 -7 -7 -7 -7 -7 -7 -7 -7 -7 -7 -7 -7 -7 -7 -7 -7 -7 -7 -7 -7 -7 -7 -7 -7 -7 -7 -7 -7 -7 -7 -7 -7 -7 -7 -7 -7 -7 -7 -7 -7 -7 -6 -5 9 78 78 9 -5 -6 -7 -7 -7 -7 -7 -7 -7 -7 -7 -7 -7 -7 -7 -7 -7 -7 -7 -7 -7 -7 -7 -7 -7 -7 -6 -6 -4 -2 6 41 100 149 119 86 77 65 27 12 9 8 14 79 
79 9 -5 -6 -6 -6 -6 -6 -6 -7 -7 -7 -7 -7 -7 -7 -7 -7 -7 -7 -7 -7 -7 -7 -7 -7 -7 -7 -7 -7 -7 -7 -7 -7 -7 -7 -7 -7 -7 -7 -7 -7 -7 -7 -7 -7 -7 -7 -7 -7 -7 -7 -7 -7 -7 -7 -7 -7 -7 -7 -6 -5 9 78 78 9 -5 -6 -7 -7 -7 -7 -7 -7 -7 -7 -7 -7 -7 -7 -7 -7 -7 -7 -7 -7 -7 -7 -7 -6 -6 -6 -5 -1 6 12 29 76 116 116 89 80 84 105 105 83 77 66 43 91 
83 11 -3 -5 -5 -5 -5 -5 -5 -6 -6 -6 -6 -6 -6 -6 -6 -7 -7 -7 -7 -7 -7 -7 -7 -7 -7 -7 -7 -7 -7 -7 -7 -7 -7 -7 -7 -7 -7 -7 -7 -7 -7 -7 -7 -7 -7 -7 -7 -7 -7 -7 -7 -7 -7 -7 -7 -7 -7 -7 -6 -5 9 78 78 9 -5 -6 -7 -7 -7 -7 -7 -7 -7 -7 -7 -7 -7 -7 -7 -7 -7 -7 -7 -7 -7 -6 -6 -5 -4 -1 9 27 65 82 105 104 72 29 12 10 12 27 65 76 83 106 116 136 
93 25 11 9 9 9 9 9 6 -1 -4 -5 -5 -5 -5 -5 -5 -6 -6 -6 -6 -6 -6 -6 -6 -6 -7 -7 -7 -7 -7 -7 -7 -7 -7 -7 -7 -7 -7 -7 -7 -7 -7 -7 -7 -7 -7 -7 -7 -7 -7 -7 -7 -7 -7 -7 -7 -7 -7 -7 -6 -5 9 78 78 9 -5 -6 -7 -7 -7 -7 -7 -7 -7 -7 -7 -7 -7 -7 -7 -7 -7 -7 -6 -6 -6 -5 -1 6 12 28 71 104 105 82 65 27 9 -1 -4 -5 -4 -1 6 9 12 29 77 131 
133 89 79 78 78 78 78 76 65 27 12 10 9 9 9 9 6 -1 -4 -5 -5 -5 -5 -5 -5 -5 -6 -6 -6 -6 -6 -6 -6 -6 -7 -7 -7 -7 -7 -7 -7 -7 -7 -7 -7 -7 -7 -7 -7 -7 -7 -7 -7 -7 -7 -7 -7 -7 -7 -7 -6 -5 9 78 78 9 -5 -6 -7 -7 -7 -7 -7 -7 -7 -7 -7 -7 -7 -7 -7 -7 -6 -6 -5 -4 -1 9 27 65 82 105 104 71 28 12 6 -1 -5 -6 -6 -6 -6 -6 -5 -5 -4 0 22 92 
132 89 79 78 78 78 78 84 105 105 84 78 78 78 78 76 65 27 12 10 9 9 9 9 9 6 -1 -4 -5 -5 -5 -5 -5 -5 -6 -6 -6 -6 -6 -6 -6 -6 -6 -7 -7 -7 -7 -7 -7 -7 -7 -7 -7 -7 -7 -7 -7 -7 -7 -7 -6 -5 9 78 78 9 -5 -6 -7 -7 -7 -7 -7 -7 -7 -7 -7 -7 -7 -7 -6 -6 -5 -1 6 12 28 71 104 105 82 65 27 9 -1 -4 -5 -6 -6 -7 -7 -7 -7 -7 -6 -6 -6 -4 11 83 
89 25 11 9 9 9 10 12 27 65 76 78 78 78 78 84 105 105 84 78 78 78 78 78 76 65 27 12 10 9 9 9 9 6 -1 -4 -5 -5 -5 -5 -5 -5 -5 -6 -6 -6 -6 -6 -6 -6 -6 -7 -7 -7 -7 -7 -7 -7 -7 -7 -6 -5 9 78 78 9 -5 -6 -7 -7 -7 -7 -7 -7 -7 -7 -7 -6 -6 -6 -5 -1 9 27 65 82 105 104 71 28 12 6 -1 -5 -6 -6 -6 -7 -7 -7 -7 -7 -7 -7 -7 -7 -6 -5 9 79 
79 11 -3 -5 -5 -5 -5 -4 -1 6 9 9 9 9 10 12 27 65 76 78 78 78 78 78 84 105 105 84 78 78 78 78 76 65 27 12 10 9 9 9 9 9 6 -1 -4 -5 -5 -5 -5 -5 -5 -6 -6 -6 -6 -6 -6 -6 -6 -6 -6 -5 9 78 78 9 -5 -6 -7 -7 -7 -7 -7 -7 -7 -6 -6 -5 -4 -1 9 28 71 104 105 82 65 27 9 -1 -4 -5 -6 -6 -7 -7 -7 -7 -7 -7 -7 -7 -7 -7 -7 -7 -6 -5 9 78 
78 9 -5 -6 -6 -6 -6 -6 -6 -5 -5 -5 -5 -5 -5 -4 -1 6 9 9 9 9 9 10 12 27 65 76 78 78 78 78 84 105 105 84 78 78 78 78 78 76 65 27 12 10 9 9 9 9 6 -1 -4 -5 -5 -5 -5 -5 -5 -5 -6 -4 9 78 78 9 -5 -6 -7 -7 -7 -7 -6 -6 -6 -5 -1 6 12 28 71 104 104 71 28 12 6 -1 -5 -6 -6 -6 -7 -7 -7 -7 -7 -7 -7 -7 -7 -7 -7 -7 -7 -7 -6 -5 9 78 
78 9 -5 -6 -7 -7 -7 -7 -7 -6 -6 -6 -6 -6 -6 -6 -6 -5 -5 -5 -5 -5 -5 -5 -4 -1 6 9 9 9 9 10 12 27 65 76 78 78 78 78 78 84 105 105 84 78 78 78 78 76 65 27 12 10 9 9 9 9 9 6 -1 -2 11 79 79 10 -5 -6 -7 -7 -6 -6 -5 -4 -1 9 27 65 82 105 104 71 28 9 -1 -4 -5 -6 -6 -7 -7 -7 -7 -7 -7 -7 -7 -7 -7 -7 -7 -7 -7 -7 -7 -7 -6 -5 9 78 
78 9 -5 -6 -7 -7 -7 -7 -7 -7 -7 -7 -7 -7 -7 -7 -7 -6 -6 -6 -6 -6 -6 -6 -6 -6 -5 -5 -5 -5 -5 -5 -4 -1 6 9 9 9 9 9 10 12 27 65 76 78 78 78 78 84 105 105 84 78 78 78 78 78 76 65 27 14 25 89 87 13 -4 -6 -6 -6 -5 -1 6 12 28 71 104 105 82 65 27 9 -1 -5 -6 -6 -6 -7 -7 -7 -7 -7 -7 -7 -7 -7 -7 -7 -7 -7 -7 -7 -7 -7 -7 -7 -6 -5 9 78 
78 9 -5 -6 -7 -7 -7 -7 -7 -7 -7 -7 -7 -7 -7 -7 -7 -7 -7 -7 -7 -7 -7 -7 -7 -7 -6 -6 -6 -6 -6 -6 -6 -6 -5 -5 -5 -5 -5 -5 -5 -4 -1 6 9 9 9 9 10 12 27 65 76 78 78 78 78 78 84 105 105 85 89 132 122 37 2 -4 -4 -1 9 27 65 82 105 104 71 28 12 6 -1 -5 -6 -6 -7 -7 -7 -7 -7 -7 -7 -7 -7 -7 -7 -7 -7 -7 -7 -7 -7 -7 -7 -7 -7 -7 -6 -5 9 78 
78 9 -5 -6 -7 -7 -7 -7 -7 -7 -7 -7 -7 -7 -7 -7 -7 -7 -7 -7 -7 -7 -7 -7 -7 -7 -7 -7 -7 -7 -7 -7 -7 -7 -6 -6 -6 -6 -6 -6 -6 -6 -6 -5 -5 -5 -5 -5 -5 -4 -1 6 9 9 9 9 9 10 12 27 65 76 79 90 114 101 36 14 13 28 71 104 105 82 65 27 9 -1 -4 -5 -6 -6 -7 -7 -7 -7 -7 -7 -7 -7 -7 -7 -7 -7 -7 -7 -7 -7 -7 -7 -7 -7 -7 -7 -7 -7 -6 -5 9 78 
78 9 -5 -6 -7 -7 -7 -7 -7 -7 -7 -7 -7 -7 -7 -7 -7 -7 -7 -7 -7 -7 -7 -7 -7 -7 -7 -7 -7 -7 -7 -7 -7 -7 -7 -7 -7 -7 -7 -7 -7 -7 -7 -6 -6 -6 -6 -6 -6 -6 -6 -5 -5 -5 -5 -5 -5 -5 -4 -1 6 9 10 13 36 101 114 90 85 106 104 71 28 12 6 -1 -5 -6 -6 -6 -7 -7 -7 -7 -7 -7 -7 -7 -7 -7 -7 -7 -7 -7 -7 -7 -7 -7 -7 -7 -7 -7 -7 -7 -7 -7 -6 -5 9 78 
78 9 -5 -6 -7 -7 -7 -7 -7 -7 -7 -7 -7 -7 -7 -7 -7 -7 -7 -7 -7 -7 -7 -7 -7 -7 -7 -7 -7 -7 -7 -7 -7 -7 -7 -7 -7 -7 -7 -7 -7 -7 -7 -7 -7 -7 -7 -7 -7 -7 -7 -6 -6 -6 -6 -6 -6 -6 -6 -6 -5 -5 -5 -4 2 37 122 132 87 66 27 9 -1 -4 -5 -6 -6 -7 -7 -7 -7 -7 -7 -7 -7 -7 -7 -7 -7 -7 -7 -7 -7 -7 -7 -7 -7 -7 -7 -7 -7 -7 -7 -7 -7 -7 -6 -5 9 78 
78 9 -5 -6 -7 -7 -7 -7 -7 -7 -7 -7 -7 -7 -7 -7 -7 -7 -7 -7 -7 -7 -7 -7 -7 -7 -7 -7 -7 -7 -7 -7 -7 -7 -7 -7 -7 -7 -7 -7 -7 -7 -7 -7 -7 -7 -7 -7 -7 -7 -7 -7 -7 -7 -7 -7 -7 -7 -7 -7 -6 -6 -6 -6 -4 13 87 89 25 8 -1 -5 -6 -6 -6 -7 -7 -7 -7 -7 -7 -7 -7 -7 -7 -7 -7 -7 -7 -7 -7 -7 -7 -7 -7 -7 -7 -7 -7 -7 -7 -7 -7 -7 -7 -7 -6 -5 9 78 
78 9 -5 -6 -6 -6 -6 -6 -6 -6 -6 -6 -6 -6 -6 -6 -6 -6 -6 -6 -6 -6 -6 -6 -6 -6 -6 -6 -6 -6 -6 -6 -6 -6 -6 -6 -6 -6 -6 -6 -6 -6 -6 -6 -6 -6 -6 -6 -6 -6 -6 -6 -6 -6 -6 -6 -6 -6 -6 -6 -6 -6 -6 -6 -4 10 79 79 11 -3 -6 -6 -6 -6 -6 -6 -6 -6 -6 -6 -6 -6 -6 -6 -6 -6 -6 -6 -6 -6 -6 -6 -6 -6 -6 -6 -6 -6 -6 -6 -6 -6 -6 -6 -6 -6 -6 -5 9 78 
79 11 -3 -5 -5 -5 -5 -5 -5 -5 -5 -5 -5 -5 -5 -5 -5 -5 -5 -5 -5 -5 -5 -5 -5 -5 -5 -5 -5 -5 -5 -5 -5 -5 -5 -5 -5 -5 -5 -5 -5 -5 -5 -5 -5 -5 -5 -5 -5 -5 -5 -5 -5 -5 -5 -5 -5 -5 -5 -5 -5 -5 -5 -5 -3 11 79 79 11 -3 -5 -5 -5 -5 -5 -5 -5 -5 -5 -5 -5 -5 -5 -5 -5 -5 -5 -5 -5 -5 -5 -5 -5 -5 -5 -5 -5 -5 -5 -5 -5 -5 -5 -5 -5 -5 -5 -3 11 79 
90 25 11 9 9 9 9 9 9 9 9 9 9 9 9 9 9 9 9 9 9 9 9 9 9 9 9 9 9 9 9 9 9 9 9 9 9 9 9 9 9 9 9 9 9 9 9 9 9 9 9 9 9 9 9 9 9 9 9 9 9 9 9 9 11 25 89 89 25 11 9 9 9 9 9 9 9 9 9 9 9 9 9 9 9 9 9 9 9 9 9 9 9 9 9 9 9 9 9 9 9 9 9 9 9 9 9 11 25 90 
136 90 79 78 78 78 78 78 78 78 78 78 78 78 78 78 78 78 78 78 78 78 78 78 78 78 78 78 78 78 78 78 79 83 81 78 78 78 78 78 78 78 78 78 78 78 78 78 79 82 82 79 78 78 78 78 78 78 78 78 78 78 78 78 79 89 132 132 89 79 78 78 78 78 78 78 78 78 78 78 78 78 78 78 78 78 78 78 78 78 78 79 83 81 78 78 78 78 78 78 78 78 78 79 83 81 79 79 90 136 
