P2
110 110
255
154 125 105 98 96 96 95 95 95 95 95 95 95 95 95 95 95 95 95 95 95 95 95 95 95 95 95 96 96 98 105 120 138 142 126 108 99 96 96 95 95 95 95 95 96 96 98 104 119 141 140 119 103 97 96 96 95 95 95 95 95 95 96 96 97 99 103 103 99 97 96 96 95 95 95 95 95 95 95 95 95 95 95 95 95 95 96 96 97 102 114 135 143 128 109 100 97 96 96 96 97 101 112 133 144 129 112 109 126 154 
125 83 56 47 44 44 44 44 44 44 44 44 44 44 44 44 44 44 44 44 44 44 44 44 44 44 44 44 46 52 69 101 130 119 84 59 48 45 44 44 44 44 44 44 44 44 47 58 86 127 124 83 56 47 44 44 44 44 44 44 44 44 44 44 43 43 43 43 43 43 44 44 44 44 44 44 44 44 44 44 44 44 44 44 44 44 44 45 48 59 86 123 126 91 61 49 45 44 44 44 46 54 77 116 129 95 66 62 85 125 
105 56 26 15 12 11 11 11 11 11 11 11 11 11 11 11 11 11 11 11 11 11 11 11 11 11 12 13 17 30 59 100 113 78 41 21 14 12 11 11 11 11 11 11 12 13 17 31 67 115 107 56 25 15 12 11 11 11 11 11 11 11 11 11 11 11 11 11 11 11 11 11 11 11 11 11 11 11 11 11 11 11 11 11 11 11 12 13 19 37 76 114 96 51 25 15 12 11 11 12 15 26 56 103 108 62 32 30 57 105 
98 47 15 4 1 0 0 0 0 0 0 0 0 0 0 0 0 0 0 0 0 0 0 0 0 0 1 4 13 36 76 108 89 46 17 5 1 0 0 0 0 0 0 0 1 2 9 29 73 122 102 46 14 4 1 0 0 0 0 0 0 0 0 0 0 0 0 0 0 0 0 0 0 0 0 0 0 0 0 0 0 0 0 0 0 0 1 3 12 38 85 108 69 28 9 2 1 0 0 1 5 19 55 103 94 45 18 18 48 98 
96 44 12 1 -1 -1 -2 -2 -2 -2 -2 -2 -2 -2 -2 -2 -2 -2 -2 -2 -2 -2 -2 -2 -2 -1 0 6 24 60 100 100 59 23 6 0 -1 -2 -2 -2 -2 -2 -2 -1 -1 2 13 43 95 136 103 43 12 1 -1 -1 -2 -2 -2 -2 -2 -2 -2 -2 -2 -2 -2 -2 -2 -2 -2 -2 -2 -2 -2 -2 -2 -2 -2 -2 -2 -2 -2 -2 -2 -1 0 2 16 50 98 97 50 16 2 0 -1 -2 -1 0 5 24 66 106 81 34 12 15 45 96 
96 44 11 0 -1 -2 -2 -2 -2 -2 -2 -2 -2 -2 -2 -2 -2 -2 -2 -2 -2 -2 -2 -2 -2 -1 2 15 45 88 106 73 32 9 0 -1 -2 -2 -2 -2 -2 -2 -2 -2 0 5 24 65 119 143 103 44 11 0 -1 -2 -2 -2 -2 -2 -2 -2 -2 -2 -2 -2 -2 -2 -2 -2 -2 -2 -2 -2 -2 -2 -2 -2 -2 -2 -2 -2 -2 -2 -2 -2 0 6 26 68 106 82 35 9 0 -2 -2 -2 -2 0 8 33 81 106 65 24 8 13 44 96 
95 44 11 0 -2 -2 -2 -2 -2 -2 -2 -2 -2 -2 -2 -2 -2 -2 -2 -2 -2 -2 -2 -2 -1 0 9 32 73 106 88 44 15 2 -1 -2 -2 -2 -2 -2 -2 -2 -2 -1 1 13 42 91 130 138 104 46 13 1 -1 -2 -2 -2 -2 -2 -2 -2 -2 -2 -2 -2 -2 -2 -2 -2 -2 -2 -2 -2 -2 -2 -2 -2 -2 -2 -2 -2 -2 -2 -2 -1 1 12 42 89 104 62 22 4 -1 -2 -2 -2 -2 0 11 42 92 100 52 16 5 12 44 95 
95 44 11 0 -2 -2 -2 -2 -2 -2 -2 -2 -2 -2 -2 -2 -2 -2 -2 -2 -2 -2 -2 -2 0 5 23 59 100 100 59 23 5 0 -2 -2 -2 -2 -2 -2 -2 -2 -2 0 6 25 66 110 121 125 107 53 16 2 -1 -2 -2 -2 -2 -2 -2 -2 -2 -2 -2 -2 -2 -2 -2 -2 -2 -2 -2 -2 -2 -2 -2 -2 -2 -2 -2 -2 -2 -2 -2 -1 4 22 62 104 89 42 12 1 -1 -2 -2 -2 -1 2 16 52 100 92 42 12 4 12 44 95 
95 44 11 0 -2 -2 -2 -2 -2 -2 -2 -2 -2 -2 -2 -2 -2 -2 -2 -2 -2 -2 -2 -1 2 15 44 88 106 73 32 9 0 -1 -2 -2 -2 -2 -2 -2 -2 -2 -1 2 15 46 91 111 97 104 110 66 23 4 -1 -2 -2 -2 -2 -2 -2 -2 -2 -2 -2 -2 -2 -2 -2 -2 -2 -2 -2 -2 -2 -2 -2 -2 -2 -2 -2 -2 -2 -2 -2 0 9 35 82 106 68 26 5 0 -2 -2 -2 -2 -1 4 23 65 106 81 33 8 3 12 44 95 
95 44 11 0 -2 -2 -2 -2 -2 -2 -2 -2 -2 -2 -2 -2 -2 -2 -2 -2 -2 -2 -1 0 9 32 73 106 88 44 15 2 -1 -2 -2 -2 -2 -2 -2 -2 -2 -1 0 9 32 73 107 93 67 80 109 80 32 7 0 -2 -2 -2 -2 -2 -2 -2 -2 -2 -2 -2 -2 -2 -2 -2 -2 -2 -2 -2 -2 -2 -2 -2 -2 -2 -2 -2 -2 -2 -1 2 15 49 97 97 49 15 2 -1 -2 -2 -2 -2 0 7 32 81 106 65 23 5 2 12 44 95 
96 44 11 0 -2 -2 -2 -2 -2 -2 -2 -2 -2 -2 -2 -2 -2 -2 -2 -2 -2 -2 0 5 23 59 100 100 59 23 5 0 -2 -2 -2 -2 -2 -2 -2 -2 -2 0 5 22 58 100 100 63 41 61 103 89 38 9 0 -2 -2 -2 -2 -2 -2 -2 -2 -2 -2 -2 -2 -2 -2 -2 -2 -2 -2 -2 -2 -2 -2 -2 -2 -2 -2 -2 -2 -2 0 5 26 68 106 82 35 9 0 -2 -2 -2 -2 -2 0 11 42 92 100 52 16 2 1 12 44 95 
96 45 12 0 -2 -2 -2 -2 -2 -2 -2 -2 -2 -2 -2 -2 -2 -2 -2 -2 -2 -1 2 15 44 88 106 73 32 9 0 -1 -2 -2 -2 -2 -2 -2 -2 -2 -1 1 12 41 86 106 74 36 25 50 98 94 42 11 0 -2 -2 -2 -2 -2 -2 -2 -2 -2 -2 -2 -2 -2 -2 -2 -2 -2 -2 -2 -2 -2 -2 -2 -2 -2 -2 -2 -2 -1 1 12 42 89 104 62 22 4 -1 -2 -2 -2 -2 -1 2 16 52 100 92 42 11 1 1 11 44 96 
99 48 14 1 -1 -2 -2 -2 -2 -2 -2 -2 -2 -2 -2 -2 -2 -2 -2 -2 -1 0 9 32 73 106 88 44 15 2 -1 -2 -2 -2 -2 -2 -2 -2 -2 -2 0 5 24 65 104 90 46 19 17 45 96 96 44 12 0 -2 -2 -2 -2 -2 -2 -2 -2 -2 -2 -2 -2 -2 -2 -2 -2 -2 -2 -2 -2 -2 -2 -2 -2 -2 -2 -2 -2 -1 4 22 62 104 89 42 12 1 -1 -2 -2 -2 -2 -1 4 23 65 106 81 32 8 0 1 11 43 96 
108 58 20 4 0 -2 -2 -2 -2 -2 -2 -2 -2 -2 -2 -2 -2 -2 -2 -2 0 5 23 59 100 100 59 23 5 0 -2 -2 -2 -2 -2 -2 -2 -2 -2 -1 1 13 42 89 105 66 26 9 13 43 94 98 47 13 1 -1 -2 -2 -2 -2 -2 -2 -2 -2 -2 -2 -2 -2 -2 -2 -2 -2 -2 -2 -2 -2 -2 -2 -2 -2 -2 -2 -2 0 9 35 82 106 68 26 5 0 -2 -2 -2 -2 -2 0 7 32 81 106 65 23 4 0 1 11 43 98 
125 83 38 13 2 -1 -2 -2 -2 -2 -2 -2 -2 -2 -2 -2 -2 -2 -2 -1 2 15 44 88 106 73 32 9 0 -1 -2 -2 -2 -2 -2 -2 -2 -2 -2 0 6 26 66 104 89 43 13 4 11 39 89 101 53 16 2 -1 -2 -2 -2 -2 -2 -2 -2 -2 -2 -2 -2 -2 -2 -2 -2 -2 -2 -2 -2 -2 -2 -2 -2 -2 -2 -2 -1 2 15 49 97 97 49 15 2 -1 -2 -2 -2 -2 -2 0 11 42 92 100 52 16 2 -1 0 11 43 101 
142 117 71 33 11 1 -1 -2 -2 -2 -2 -2 -2 -2 -2 -2 -2 -2 -1 0 9 32 73 106 88 44 15 2 -1 -2 -2 -2 -2 -2 -2 -2 -2 -2 -1 2 15 46 90 104 65 25 6 1 8 32 80 106 65 23 4 -1 -2 -2 -2 -2 -2 -2 -2 -2 -2 -2 -2 -2 -2 -2 -2 -2 -2 -2 -2 -2 -2 -2 -2 -2 -2 -2 0 5 26 68 106 82 35 9 0 -2 -2 -2 -2 -2 -1 2 16 52 100 92 42 11 0 -1 0 11 43 103 
139 131 106 66 29 9 0 -1 -2 -2 -2 -2 -2 -2 -2 -2 -2 -2 0 5 23 59 100 100 59 23 5 0 -2 -2 -2 -2 -2 -2 -2 -2 -2 -1 0 9 32 73 106 86 41 12 1 0 4 23 65 106 80 32 7 0 -2 -2 -2 -2 -2 -2 -2 -2 -2 -2 -2 -2 -2 -2 -2 -2 -2 -2 -2 -2 -2 -2 -2 -2 -2 -1 1 12 42 89 104 62 22 4 -1 -2 -2 -2 -2 -2 -1 4 23 65 106 81 32 7 0 -1 0 11 43 102 
123 111 113 99 58 23 5 0 -2 -2 -2 -2 -2 -2 -2 -2 -2 -1 2 15 44 88 106 73 32 9 0 -1 -2 -2 -2 -2 -2 -2 -2 -2 -2 0 5 22 58 100 100 58 22 5 0 -1 2 16 53 101 89 38 9 0 -2 -2 -2 -2 -2 -2 -2 -2 -2 -2 -2 -2 -2 -2 -2 -2 -2 -2 -2 -2 -2 -2 -2 -2 -2 -1 4 22 62 104 89 42 12 1 -1 -2 -2 -2 -2 -2 0 7 32 81 106 65 23 4 0 -1 0 11 43 99 
108 82 89 108 88 45 16 3 0 -2 -2 -2 -2 -2 -2 -2 -1 0 9 32 73 106 88 44 15 2 -1 -2 -2 -2 -2 -2 -2 -2 -2 -2 -1 1 12 41 86 106 73 32 9 0 -1 -1 1 13 47 97 94 42 11 0 -2 -2 -2 -2 -2 -2 -2 -2 -2 -2 -2 -2 -2 -2 -2 -2 -2 -2 -2 -2 -2 -2 -2 -2 -2 0 9 35 82 106 68 26 5 0 -2 -2 -2 -2 -2 -2 0 11 42 92 100 52 16 2 -1 -1 0 11 43 97 
101 62 59 91 106 75 36 13 2 -1 -2 -2 -2 -2 -2 -2 0 5 23 59 100 100 59 23 5 0 -2 -2 -2 -2 -2 -2 -2 -2 -2 -2 0 5 24 65 104 90 46 15 2 -1 -2 -2 0 12 44 96 96 44 12 0 -2 -2 -2 -2 -2 -2 -2 -2 -2 -2 -2 -2 -2 -2 -2 -2 -2 -2 -2 -2 -2 -2 -2 -2 -1 2 15 49 97 97 49 15 2 -1 -2 -2 -2 -2 -2 -1 2 16 52 100 92 42 11 0 -1 -1 0 11 44 96 
97 52 37 61 99 103 70 34 12 2 -1 -2 -2 -2 -2 -1 2 15 44 88 106 73 32 9 0 -1 -2 -2 -2 -2 -2 -2 -2 -2 -2 -1 1 13 42 89 104 66 26 6 0 -2 -2 -2 0 11 42 94 97 47 13 1 -1 -2 -2 -2 -2 -2 -2 -2 -2 -2 -2 -2 -2 -2 -2 -2 -2 -2 -2 -2 -2 -2 -2 -2 0 5 26 68 106 82 35 9 0 -2 -2 -2 -2 -2 -2 -1 4 23 65 106 81 32 7 0 -2 -2 0 11 44 96 
96 47 23 33 67 101 102 69 34 12 2 -1 -2 -2 -1 0 9 32 73 106 88 44 15 2 -1 -2 -2 -2 -2 -2 -2 -2 -2 -2 -2 0 6 26 66 104 89 42 13 1 -1 -2 -2 -2 0 9 38 89 101 53 16 2 -1 -2 -2 -2 -2 -2 -2 -2 -2 -2 -2 -2 -2 -2 -2 -2 -2 -2 -2 -2 -2 -2 -2 -1 1 12 42 89 104 62 22 4 -1 -2 -2 -2 -2 -2 -2 0 7 32 81 106 65 23 4 -1 -2 -2 0 11 44 95 
96 45 16 15 34 68 101 101 69 34 12 2 0 -1 0 5 23 59 100 100 59 23 5 0 -2 -2 -2 -2 -2 -2 -2 -2 -2 -2 -1 2 15 46 90 104 65 24 5 0 -2 -2 -2 -2 0 7 32 80 106 65 23 4 -1 -2 -2 -2 -2 -2 -2 -2 -2 -2 -2 -2 -2 -2 -2 -2 -2 -2 -2 -2 -2 -2 -2 -1 4 22 62 104 89 42 12 1 -1 -2 -2 -2 -2 -2 -2 0 11 42 92 100 52 16 2 -1 -2 -2 0 11 44 95 
96 44 13 6 13 34 69 101 101 69 34 12 3 0 3 15 45 88 106 73 32 9 0 -1 -2 -2 -2 -2 -2 -2 -2 -2 -2 -1 0 9 32 73 106 86 41 12 1 -1 -2 -2 -2 -2 -1 4 23 65 106 80 32 7 0 -2 -2 -2 -2 -2 -2 -2 -2 -2 -2 -2 -2 -2 -2 -2 -2 -2 -2 -2 -2 -2 -2 0 9 35 82 106 68 26 5 0 -2 -2 -2 -2 -2 -2 -1 2 16 52 100 92 42 11 0 -2 -2 -2 0 11 44 95 
95 44 12 2 3 12 34 69 101 101 69 34 13 6 11 33 73 106 88 44 15 2 -1 -2 -2 -2 -2 -2 -2 -2 -2 -2 -2 0 5 22 58 100 100 58 22 5 0 -2 -2 -2 -2 -2 -1 2 16 53 101 89 39 10 0 -2 -2 -2 -2 -2 -2 -2 -2 -2 -2 -2 -2 -2 -2 -2 -2 -2 -2 -2 -2 -2 -1 2 15 49 97 97 49 15 2 -1 -2 -2 -2 -2 -2 -2 -1 4 23 65 106 81 32 7 0 -2 -2 -2 0 11 44 95 
95 44 11 1 0 2 12 34 69 101 101 69 36 21 28 61 100 100 59 23 5 0 -2 -2 -2 -2 -2 -2 -2 -2 -2 -2 -1 1 12 41 86 106 73 32 9 0 -1 -2 -2 -2 -2 -2 -2 1 13 46 97 94 43 11 0 -2 -2 -2 -2 -2 -2 -2 -2 -2 -2 -2 -2 -2 -2 -2 -2 -2 -2 -2 -2 -2 0 5 26 68 106 82 35 9 0 -2 -2 -2 -2 -2 -2 -2 0 7 32 81 106 65 23 4 -1 -2 -2 -2 0 11 44 95 
95 44 11 0 -1 0 2 12 34 69 102 102 74 51 59 92 106 73 32 9 0 -1 -2 -2 -2 -2 -2 -2 -2 -2 -2 -2 0 5 24 65 104 90 46 15 2 -1 -2 -2 -2 -2 -2 -2 -2 0 11 43 94 97 46 13 1 -2 -2 -2 -2 -2 -2 -2 -2 -2 -2 -2 -2 -2 -2 -2 -2 -2 -2 -2 -2 -1 1 12 42 89 104 62 22 4 -1 -2 -2 -2 -2 -2 -2 -2 0 11 42 92 100 52 16 2 -1 -2 -2 -2 0 11 44 95 
95 44 11 0 -1 -2 -1 2 12 34 69 103 110 98 102 113 89 44 15 2 -1 -2 -2 -2 -2 -2 -2 -2 -2 -2 -2 -1 1 13 42 89 104 66 26 6 0 -2 -2 -2 -2 -2 -2 -2 -2 0 10 39 89 101 53 16 2 -1 -2 -2 -2 -2 -2 -2 -2 -2 -2 -2 -2 -2 -2 -2 -2 -2 -2 -2 -2 -1 4 22 62 104 89 42 12 1 -1 -2 -2 -2 -2 -2 -2 -1 2 16 52 100 92 42 11 0 -2 -2 -2 -2 0 11 44 95 
95 44 11 0 -2 -2 -2 -1 2 12 34 71 112 135 135 107 60 23 5 0 -2 -2 -2 -2 -2 -2 -2 -2 -2 -2 -2 0 6 26 66 104 89 42 13 1 -1 -2 -2 -2 -2 -2 -2 -2 -2 0 7 32 80 106 65 23 4 -1 -2 -2 -2 -2 -2 -2 -2 -2 -2 -2 -2 -2 -2 -2 -2 -2 -2 -2 -2 0 9 35 82 106 68 26 5 0 -2 -2 -2 -2 -2 -2 -2 -1 4 23 65 106 81 32 7 0 -2 -2 -2 -2 0 11 44 95 
95 44 11 0 -2 -2 -2 -2 -1 2 13 38 83 131 132 81 34 10 0 -1 -2 -2 -2 -2 -2 -2 -2 -2 -2 -2 -1 2 15 46 90 104 65 24 5 0 -2 -2 -2 -2 -2 -2 -2 -2 -2 -1 4 23 65 106 80 32 7 0 -2 -2 -2 -2 -2 -2 -2 -2 -2 -2 -2 -2 -2 -2 -2 -2 -2 -2 -1 2 15 49 97 97 49 15 2 -1 -2 -2 -2 -2 -2 -2 -2 0 7 32 81 106 65 23 4 -1 -2 -2 -2 -2 0 11 44 95 
95 44 11 0 -2 -2 -2 -2 -2 0 4 20 57 110 114 61 21 4 -1 -2 -2 -2 -2 -2 -2 -2 -2 -2 -2 -1 0 9 32 73 106 86 41 12 1 -1 -2 -2 -2 -2 -2 -2 -2 -2 -2 -1 2 16 53 101 89 38 9 0 -2 -2 -2 -2 -2 -2 -2 -2 -2 -2 -2 -2 -2 -2 -2 -2 -2 -2 0 5 26 68 106 82 35 9 0 -2 -2 -2 -2 -2 -2 -2 -2 0 11 42 92 100 52 16 2 -1 -2 -2 -2 -2 0 11 44 95 
95 44 11 0 -2 -2 -2 -2 -2 -1 1 12 43 95 106 58 18 3 -1 -2 -2 -2 -2 -2 -2 -2 -2 -2 -2 0 5 22 58 100 100 58 22 5 0 -2 -2 -2 -2 -2 -2 -2 -2 -2 -2 -1 1 13 47 97 94 42 11 0 -2 -2 -2 -2 -2 -2 -2 -2 -2 -2 -2 -2 -2 -2 -2 -2 -2 -1 1 12 42 89 104 62 22 4 -1 -2 -2 -2 -2 -2 -2 -2 -1 2 16 52 100 92 42 11 0 -2 -2 -2 -2 -2 0 11 44 95 
95 44 11 0 -2 -2 -2 -2 -2 -2 0 8 33 81 107 67 23 4 -1 -2 -2 -2 -2 -2 -2 -2 -2 -2 -1 1 12 41 86 106 73 32 9 0 -1 -2 -2 -2 -2 -2 -2 -2 -2 -2 -2 -2 0 12 44 96 96 44 12 0 -2 -2 -2 -2 -2 -2 -2 -2 -2 -2 -2 -2 -2 -2 -2 -2 -2 -1 4 22 62 104 89 42 12 1 -1 -2 -2 -2 -2 -2 -2 -2 -1 4 23 65 106 81 32 7 0 -2 -2 -2 -2 -2 0 11 44 95 
95 44 11 0 -2 -2 -2 -2 -2 -2 -1 4 23 66 106 80 32 7 0 -2 -2 -2 -2 -2 -2 -2 -2 -2 0 5 24 65 104 90 46 15 2 -1 -2 -2 -2 -2 -2 -2 -2 -2 -2 -2 -2 -2 0 11 42 94 97 47 13 1 -1 -2 -2 -2 -2 -2 -2 -2 -2 -2 -2 -2 -2 -2 -2 -2 -2 0 9 35 82 106 68 26 5 0 -2 -2 -2 -2 -2 -2 -2 -2 0 7 32 81 106 65 23 4 -1 -2 -2 -2 -2 -2 0 11 44 96 
96 44 11 0 -2 -2 -2 -2 -2 -2 -1 2 16 53 101 90 39 10 0 -2 -2 -2 -2 -2 -2 -2 -2 -1 1 13 42 89 104 66 26 6 0 -2 -2 -2 -2 -2 -2 -2 -2 -2 -2 -2 -2 -2 0 9 38 89 101 53 16 2 -1 -2 -2 -2 -2 -2 -2 -2 -2 -2 -2 -2 -2 -2 -2 -2 -1 2 15 49 97 97 49 15 2 -1 -2 -2 -2 -2 -2 -2 -2 -2 0 11 42 92 100 52 16 2 -1 -2 -2 -2 -2 -2 0 12 44 96 
96 43 11 0 -2 -2 -2 -2 -2 -2 -2 1 12 45 96 96 45 12 1 -2 -2 -2 -2 -2 -2 -2 -2 0 6 26 66 104 89 42 13 1 -1 -2 -2 -2 -2 -2 -2 -2 -2 -2 -2 -2 -2 -2 0 7 32 80 106 65 23 4 -1 -2 -2 -2 -2 -2 -2 -2 -2 -2 -2 -2 -2 -2 -2 -2 0 5 26 68 106 82 35 9 0 -2 -2 -2 -2 -2 -2 -2 -2 -1 2 16 52 100 92 42 11 0 -2 -2 -2 -2 -2 -1 1 13 47 99 
98 43 11 0 -2 -2 -2 -2 -2 -2 -2 0 10 39 90 101 53 16 2 -1 -2 -2 -2 -2 -2 -2 -1 2 15 46 90 104 65 24 5 0 -2 -2 -2 -2 -2 -2 -2 -2 -2 -2 -2 -2 -2 -2 -1 4 23 65 106 80 32 7 0 -2 -2 -2 -2 -2 -2 -2 -2 -2 -2 -2 -2 -2 -2 -1 1 12 42 89 104 62 22 4 -1 -2 -2 -2 -2 -2 -2 -2 -2 -1 4 23 65 106 81 32 7 0 -2 -2 -2 -2 -2 -1 2 17 54 106 
100 43 11 0 -2 -2 -2 -2 -2 -2 -2 0 7 32 80 106 65 23 4 -1 -2 -2 -2 -2 -2 -1 0 9 32 73 106 86 41 12 1 -1 -2 -2 -2 -2 -2 -2 -2 -2 -2 -2 -2 -2 -2 -2 -1 2 16 53 101 89 38 9 0 -2 -2 -2 -2 -2 -2 -2 -2 -2 -2 -2 -2 -2 -2 -1 4 22 62 104 89 42 12 1 -1 -2 -2 -2 -2 -2 -2 -2 -2 0 7 32 81 106 65 23 4 -1 -2 -2 -2 -2 -2 0 6 26 71 120 
102 42 11 0 -2 -2 -2 -2 -2 -2 -2 -1 4 23 65 106 80 32 7 0 -2 -2 -2 -2 -2 0 5 22 58 100 100 58 22 5 0 -2 -2 -2 -2 -2 -2 -2 -2 -2 -2 -2 -2 -2 -2 -2 -1 1 13 47 97 94 42 11 0 -2 -2 -2 -2 -2 -2 -2 -2 -2 -2 -2 -2 -2 -2 0 9 35 82 106 68 26 5 0 -2 -2 -2 -2 -2 -2 -2 -2 -2 0 11 42 92 100 52 16 2 -1 -2 -2 -2 -2 -1 2 15 45 97 136 
102 43 11 0 -2 -2 -2 -2 -2 -2 -2 -1 2 16 53 101 90 39 10 0 -2 -2 -2 -2 -1 1 12 41 86 106 73 32 9 0 -1 -2 -2 -2 -2 -2 -2 -2 -2 -2 -2 -2 -2 -2 -2 -2 -2 0 12 44 96 96 44 12 0 -2 -2 -2 -2 -2 -2 -2 -2 -2 -2 -2 -2 -2 -1 2 15 49 97 97 49 15 2 -1 -2 -2 -2 -2 -2 -2 -2 -2 -1 2 16 52 100 92 42 11 0 -2 -2 -2 -2 -1 0 9 32 74 123 143 
101 43 11 0 -2 -2 -2 -2 -2 -2 -2 -2 1 12 45 96 96 45 12 1 -2 -2 -2 -2 0 5 24 65 104 90 46 15 2 -1 -2 -2 -2 -2 -2 -2 -2 -2 -2 -2 -2 -2 -2 -2 -2 -2 -2 0 11 42 94 98 47 13 1 -1 -2 -2 -2 -2 -2 -2 -2 -2 -2 -2 -2 -2 0 5 26 68 106 82 35 9 0 -2 -2 -2 -2 -2 -2 -2 -2 -2 -1 4 23 65 106 81 32 7 0 -2 -2 -2 -2 0 5 23 59 104 130 136 
99 43 11 0 -2 -2 -2 -2 -2 -2 -2 -2 0 10 39 90 101 53 16 2 -1 -2 -2 -1 1 13 42 89 104 66 26 6 0 -2 -2 -2 -2 -2 -2 -2 -2 -2 -2 -2 -2 -2 -2 -2 -2 -2 -2 0 9 38 89 101 53 16 2 -1 -2 -2 -2 -2 -2 -2 -2 -2 -2 -2 -2 -1 1 12 42 89 104 62 22 4 -1 -2 -2 -2 -2 -2 -2 -2 -2 -2 0 7 32 81 106 65 23 4 -1 -2 -2 -2 -1 2 15 44 89 115 114 122 
97 43 11 0 -2 -2 -2 -2 -2 -2 -2 -2 0 7 32 80 106 65 23 4 -1 -2 -2 0 6 26 66 104 89 42 13 1 -1 -2 -2 -2 -2 -2 -2 -2 -2 -2 -2 -2 -2 -2 -2 -2 -2 -2 -2 0 7 32 80 106 66 23 5 0 -1 -2 -2 -2 -2 -2 -2 -2 -2 -2 -2 -1 4 22 62 104 89 42 12 1 -1 -2 -2 -2 -2 -2 -2 -2 -2 -2 0 11 42 92 100 52 16 2 -1 -2 -2 -1 0 9 32 73 107 100 89 110 
96 44 11 0 -2 -2 -2 -2 -2 -2 -2 -2 -1 4 23 65 106 80 32 7 0 -2 -1 2 15 46 90 104 65 24 5 0 -2 -2 -2 -2 -2 -2 -2 -2 -2 -2 -2 -2 -2 -2 -2 -2 -2 -2 -2 0 4 24 67 107 82 35 11 3 0 0 -1 -1 -1 -2 -2 -2 -2 -2 -1 0 9 35 82 106 68 26 5 0 -2 -2 -2 -2 -2 -2 -2 -2 -2 -1 2 16 52 100 92 42 11 0 -2 -2 -2 0 5 23 59 100 102 73 69 102 
96 44 11 0 -2 -2 -2 -2 -2 -2 -2 -2 -1 2 16 53 101 90 39 10 0 -1 0 9 32 73 106 86 41 12 1 -1 -2 -2 -2 -2 -2 -2 -2 -2 -2 -2 -2 -2 -2 -2 -2 -2 -2 -2 -2 0 4 20 58 108 99 51 24 14 10 7 4 2 1 0 0 0 0 0 0 3 16 50 97 97 49 15 2 -1 -2 -2 -2 -2 -2 -2 -2 -2 -2 -1 4 23 65 106 81 32 7 0 -2 -2 -1 2 15 44 88 106 76 47 56 98 
96 44 11 0 -2 -2 -2 -2 -2 -2 -2 -2 -2 1 12 45 96 96 45 12 1 0 5 22 58 100 100 58 22 5 0 -2 -2 -2 -2 -2 -2 -2 -2 -2 -2 -2 -2 -2 -2 -2 -2 -2 -2 -2 -1 1 8 26 65 117 121 82 55 45 39 32 23 16 13 12 11 9 7 4 4 9 28 69 106 82 35 9 0 -2 -2 -2 -2 -2 -2 -2 -2 -2 -2 0 7 32 81 106 65 23 4 -1 -2 -1 0 9 32 73 106 89 48 29 49 97 
95 44 11 0 -2 -2 -2 -2 -2 -2 -2 -2 -2 0 10 39 90 101 53 16 3 2 12 41 86 106 73 32 9 0 -1 -2 -2 -2 -2 -2 -2 -2 -2 -2 -2 -2 -2 -2 -2 -2 -2 -2 -1 0 2 10 24 50 91 134 142 119 103 96 90 80 66 53 47 44 42 38 32 24 20 26 52 94 105 62 22 4 -1 -2 -2 -2 -2 -2 -2 -2 -2 -2 -2 0 11 42 92 100 52 16 2 -1 -2 0 5 23 59 100 100 60 26 20 46 96 
95 44 11 0 -2 -2 -2 -2 -2 -2 -2 -2 -2 0 7 32 80 106 66 23 6 7 25 65 104 90 46 15 2 -1 -2 -2 -2 -2 -2 -2 -2 -2 -2 -2 -2 -2 -2 -2 -2 -2 -2 -1 0 5 15 32 60 91 115 123 115 104 98 98 101 106 106 101 97 96 94 89 80 67 58 65 91 117 94 44 13 1 -1 -2 -2 -2 -2 -2 -2 -2 -2 -2 -1 2 16 52 100 92 42 11 0 -1 -1 2 15 44 88 106 73 33 13 15 45 96 
95 44 11 0 -2 -2 -2 -2 -2 -2 -2 -2 -2 -1 4 23 65 106 80 33 12 15 43 89 105 66 26 6 0 -2 -2 -2 -2 -2 -2 -2 -2 -2 -2 -2 -2 -2 -2 -2 -2 -1 0 2 9 23 44 73 100 107 93 71 55 47 45 47 53 65 80 89 94 96 98 101 106 107 107 115 134 132 82 32 8 0 -2 -2 -2 -2 -2 -2 -2 -2 -2 -2 -1 4 23 65 106 81 32 7 0 -1 0 9 32 73 106 88 45 16 6 13 44 95 
95 44 11 0 -2 -2 -2 -2 -2 -2 -2 -2 -2 -1 2 16 53 101 90 42 19 29 66 105 89 42 13 1 -1 -2 -2 -2 -2 -2 -2 -2 -2 -2 -2 -2 -2 -2 -2 -2 -1 0 5 15 32 59 88 106 100 74 46 27 17 13 12 13 16 23 32 38 42 44 47 53 66 81 95 111 133 132 82 33 9 0 -1 -2 -2 -2 -2 -2 -2 -2 -2 -2 0 8 33 81 106 65 23 4 0 0 5 23 59 100 100 59 23 6 3 12 44 95 
95 44 11 0 -2 -2 -2 -2 -2 -2 -2 -2 -2 -2 1 12 45 96 97 51 31 50 91 104 65 24 5 0 -2 -2 -2 -2 -2 -2 -2 -2 -2 -2 -2 -2 -2 -2 -2 -1 1 9 23 44 73 100 106 88 59 32 15 6 2 1 0 1 2 4 7 9 11 12 13 16 23 33 44 60 90 117 96 49 18 4 0 -1 -1 -2 -2 -2 -2 -2 -1 -1 1 12 42 92 100 52 16 2 0 3 15 44 88 106 73 32 9 1 1 11 44 95 
95 44 11 0 -2 -2 -2 -2 -2 -2 -2 -2 -2 -2 0 10 39 90 104 65 52 78 107 86 41 12 1 -1 -2 -2 -2 -2 -2 -2 -2 -2 -2 -2 -2 -2 -2 -1 0 3 12 30 58 88 106 100 73 44 23 9 2 0 -1 -1 -2 -1 -1 -1 0 0 0 0 1 2 4 8 13 24 50 91 109 78 39 17 7 2 1 0 0 0 0 0 0 1 5 19 54 101 93 43 12 1 1 10 32 73 106 88 44 15 2 0 1 11 44 95 
95 44 11 0 -2 -2 -2 -2 -2 -2 -2 -2 -2 -2 0 7 32 80 111 89 83 105 100 58 22 5 0 -2 -2 -2 -2 -2 -2 -2 -2 -2 -2 -2 -2 -2 -1 0 5 16 36 67 98 106 88 59 32 15 5 0 -1 -2 -2 -2 -2 -2 -2 -2 -2 -2 -2 -2 -1 -1 -1 0 2 7 24 60 103 110 79 47 27 17 13 12 11 11 11 11 12 13 18 36 75 112 86 36 10 3 6 23 59 100 100 59 23 5 0 -1 0 11 44 95 
95 44 11 0 -2 -2 -2 -2 -2 -2 -2 -2 -2 -2 -1 4 23 66 113 117 115 111 73 32 9 0 -1 -2 -2 -2 -2 -2 -2 -2 -2 -2 -2 -2 -1 0 2 9 23 45 75 102 102 75 45 23 9 2 0 -1 -2 -2 -2 -2 -2 -2 -2 -2 -2 -2 -2 -2 -2 -2 -2 -2 -1 1 10 34 80 125 126 98 71 55 47 45 44 44 44 44 44 46 52 72 109 125 84 37 14 8 17 45 88 106 73 32 9 0 -1 -1 0 11 44 95 
95 44 11 0 -2 -2 -2 -2 -2 -2 -2 -2 -2 -2 -1 2 16 53 110 137 129 93 45 15 2 -1 -2 -2 -2 -2 -2 -2 -2 -2 -2 -2 -2 -1 0 5 15 32 59 88 106 98 67 36 16 5 0 -1 -2 -2 -2 -2 -2 -2 -2 -2 -2 -2 -2 -2 -2 -2 -2 -2 -2 -2 -2 0 4 21 61 120 144 128 113 103 98 96 96 95 95 95 96 97 102 116 138 139 99 57 32 25 39 76 106 88 45 15 2 -1 -2 -2 0 11 44 95 
95 44 11 0 -2 -2 -2 -2 -2 -2 -2 -2 -2 -2 -2 1 12 46 106 143 119 66 25 6 0 -2 -2 -2 -2 -2 -2 -2 -2 -2 -2 -1 0 2 9 23 44 73 100 106 88 58 30 12 3 0 -1 -2 -2 -2 -2 -2 -2 -2 -2 -2 -2 -2 -2 -2 -2 -2 -2 -2 -2 -2 -2 -1 3 18 58 112 122 99 90 92 94 95 95 95 95 95 96 96 98 103 114 124 117 96 73 63 79 107 103 60 23 5 0 -2 -2 -2 0 11 44 95 
95 44 11 0 -2 -2 -2 -2 -2 -2 -2 -2 -2 -2 -2 0 11 43 103 135 95 42 12 1 -1 -2 -2 -2 -2 -2 -2 -2 -2 -2 -1 0 5 14 32 59 88 106 100 73 45 23 9 2 -1 -2 -2 -2 -2 -2 -2 -2 -2 -2 -2 -2 -2 -2 -2 -2 -2 -2 -2 -2 -2 -2 -2 -1 4 23 67 110 93 56 42 41 42 43 44 44 44 44 44 44 44 47 55 71 92 107 111 113 125 124 83 36 11 1 -1 -2 -2 -2 0 11 44 95 
95 44 11 0 -2 -2 -2 -2 -2 -2 -2 -2 -2 -2 -2 0 11 43 100 119 70 25 5 0 -2 -2 -2 -2 -2 -2 -2 -1 -1 0 3 9 22 44 73 102 109 92 62 35 17 6 1 0 -2 -2 -2 -2 -2 -2 -2 -2 -2 -2 -2 -2 -2 -2 -2 -2 -2 -2 -2 -2 -2 -2 -2 0 7 32 80 107 70 30 14 11 11 11 11 11 11 11 11 11 12 13 17 26 43 66 93 121 143 127 72 28 7 0 -2 -2 -2 -2 0 11 44 95 
95 44 11 0 -2 -2 -2 -2 -2 -2 -2 -2 -2 -2 -2 0 12 44 98 105 54 16 2 -1 -2 -2 -2 -2 -2 -1 0 1 4 9 17 33 59 92 119 118 91 60 36 20 10 4 1 0 -1 -1 -2 -2 -2 -2 -2 -2 -2 -2 -2 -2 -2 -2 -2 -2 -2 -2 -2 -2 -2 -2 -2 0 10 39 89 102 54 18 4 1 0 0 0 0 0 0 0 0 0 1 2 6 13 25 46 78 116 124 83 36 11 1 -1 -2 -2 -2 0 11 44 95 
95 44 11 0 -2 -2 -2 -2 -2 -2 -2 -2 -2 -2 -1 1 13 47 98 97 45 12 1 -1 -2 -2 -2 -1 0 1 5 12 22 35 52 77 109 136 142 120 87 63 48 35 24 16 11 8 4 2 1 0 0 -1 -1 -2 -2 -2 -2 -2 -2 -2 -2 -2 -2 -2 -2 -2 -2 -2 -2 0 11 43 94 97 47 13 1 -1 -2 -2 -2 -2 -2 -2 -2 -2 -2 -1 -1 0 1 6 16 36 72 108 103 60 23 5 0 -2 -2 -2 0 11 44 95 
95 44 11 0 -2 -2 -2 -2 -2 -2 -2 -2 -2 -2 -1 2 16 53 102 90 39 10 0 -1 -1 -1 0 2 6 13 24 41 62 83 99 112 119 122 125 122 110 100 92 81 65 52 42 32 23 16 12 10 7 4 2 0 0 -1 -1 -2 -2 -2 -2 -2 -2 -2 -2 -2 -2 -2 -1 1 13 46 97 94 43 11 0 -2 -2 -2 -2 -2 -2 -2 -2 -2 -2 -2 -2 -2 -1 0 3 13 36 76 107 88 45 15 2 -1 -2 -2 0 11 44 95 
95 44 11 0 -2 -2 -2 -2 -2 -2 -2 -2 -2 -2 -1 4 23 66 106 80 32 8 0 0 1 4 9 15 26 43 65 88 104 106 98 85 70 63 69 82 91 96 101 106 106 100 92 81 66 53 45 39 32 23 16 11 7 4 2 1 0 0 -1 -1 -2 -2 -2 -2 -2 -2 -1 2 16 53 101 89 39 10 0 -2 -2 -2 -2 -2 -2 -2 -2 -2 -2 -2 -2 -2 -2 -2 0 3 16 45 88 106 73 32 9 0 -1 -1 0 11 44 95 
95 44 11 0 -2 -2 -2 -2 -2 -2 -2 -2 -2 -2 0 7 32 80 106 66 24 6 3 5 12 22 35 49 68 90 104 104 90 68 50 35 25 21 24 32 39 45 53 66 81 92 100 106 106 101 96 90 80 65 52 42 32 23 16 12 10 7 4 2 0 0 -1 -1 -1 -1 0 4 23 66 106 80 32 7 0 -2 -2 -2 -2 -2 -2 -2 -2 -2 -2 -2 -2 -2 -2 -2 -2 0 5 23 59 100 100 59 23 6 0 -1 0 11 44 95 
95 44 11 0 -2 -2 -2 -2 -2 -2 -2 -2 -2 -2 0 10 39 90 102 55 21 10 14 25 41 62 82 97 106 104 88 65 43 26 15 9 5 3 4 7 10 12 16 23 32 42 52 65 80 90 96 101 106 106 100 92 81 66 53 45 39 32 23 16 11 7 4 2 1 0 2 9 33 80 106 65 23 4 -1 -2 -2 -2 -2 -2 -2 -2 -2 -2 -2 -2 -2 -2 -2 -2 -2 -1 0 9 32 73 106 88 45 16 3 0 1 11 44 95 
95 44 11 0 -2 -2 -2 -2 -2 -2 -2 -2 -2 -1 1 12 45 97 100 54 28 29 43 65 88 104 106 97 82 62 41 24 13 6 2 0 0 -1 -1 0 0 1 2 4 7 11 16 23 32 39 45 53 66 81 92 100 106 106 101 96 90 80 65 52 42 32 23 16 12 10 10 17 43 92 102 53 16 2 -1 -2 -2 -2 -2 -2 -2 -2 -2 -2 -2 -2 -2 -2 -2 -2 -2 -2 -1 2 15 44 88 106 75 36 12 2 2 12 44 95 
95 44 11 0 -2 -2 -2 -2 -2 -2 -2 -2 -2 -1 2 17 54 105 106 68 56 68 89 104 105 90 68 49 35 22 12 5 1 0 -1 -2 -2 -2 -2 -2 -2 -2 -1 -1 0 0 2 4 7 10 12 16 23 32 42 52 65 80 90 96 101 106 106 100 92 81 66 53 45 40 35 36 59 103 99 47 13 1 -1 -2 -2 -2 -2 -2 -2 -2 -2 -2 -2 -2 -2 -2 -2 -2 -2 -2 -2 0 5 23 58 98 102 67 30 9 4 12 44 95 
95 44 11 0 -2 -2 -2 -2 -2 -2 -2 -2 -2 0 6 26 70 122 123 100 98 106 105 89 65 43 26 15 9 4 1 0 -1 -2 -2 -2 -2 -2 -2 -2 -2 -2 -2 -2 -2 -2 -1 -1 0 0 1 2 4 7 11 16 23 32 39 45 53 66 81 92 100 106 106 101 96 91 83 78 92 120 100 44 11 0 -2 -2 -2 -2 -2 -2 -2 -2 -2 -2 -2 -2 -2 -2 -2 -2 -2 -2 -2 -1 0 9 30 67 102 98 58 23 9 14 44 96 
95 44 11 0 -2 -2 -2 -2 -2 -2 -2 -2 -1 1 13 42 95 140 138 121 107 89 65 42 25 13 6 2 0 -1 -1 -2 -2 -2 -2 -2 -2 -2 -2 -2 -2 -2 -2 -2 -2 -2 -2 -2 -2 -2 -2 -1 -1 0 0 2 4 7 10 12 16 23 32 42 52 65 80 90 96 101 108 115 128 141 103 43 11 0 -2 -2 -2 -2 -2 -2 -2 -2 -2 -2 -2 -2 -2 -2 -2 -2 -2 -2 -2 -2 -1 1 12 36 75 106 88 46 19 18 45 96 
96 44 11 0 -2 -2 -2 -2 -2 -2 -2 -2 0 6 25 66 115 129 109 85 62 41 24 13 5 1 0 -1 -2 -2 -2 -2 -2 -2 -2 -2 -2 -2 -2 -2 -2 -2 -2 -2 -2 -2 -2 -2 -2 -2 -2 -2 -2 -2 -2 -1 -1 0 0 1 2 4 7 11 16 23 32 39 45 53 68 90 118 139 103 43 11 0 -2 -2 -2 -2 -2 -2 -2 -2 -2 -2 -2 -2 -2 -2 -2 -2 -2 -2 -2 -2 -2 -1 3 16 45 88 106 76 39 26 48 96 
96 44 11 0 -2 -2 -2 -2 -2 -2 -2 -1 2 15 46 91 113 87 56 36 22 12 5 1 0 -1 -2 -2 -2 -2 -2 -2 -2 -2 -2 -2 -2 -2 -2 -2 -2 -2 -2 -2 -2 -2 -2 -2 -2 -2 -2 -2 -2 -2 -2 -2 -2 -2 -2 -2 -1 -1 0 0 2 4 7 10 12 17 26 45 78 117 99 43 11 0 -2 -2 -2 -2 -2 -2 -2 -2 -2 -2 -2 -2 -2 -2 -2 -2 -2 -2 -2 -2 -2 -2 0 5 23 58 98 103 71 44 55 98 
96 44 11 0 -2 -2 -2 -2 -2 -2 -1 0 9 32 73 107 90 49 22 10 4 1 0 -1 -2 -2 -2 -2 -2 -2 -2 -2 -2 -2 -2 -2 -2 -2 -2 -2 -2 -2 -2 -2 -2 -2 -2 -2 -2 -2 -2 -2 -2 -2 -2 -2 -2 -2 -2 -2 -2 -2 -2 -2 -1 -1 0 0 1 3 8 21 55 103 97 44 11 0 -2 -2 -2 -2 -2 -2 -2 -2 -2 -2 -2 -2 -2 -2 -2 -2 -2 -2 -2 -2 -2 -2 -1 0 9 30 67 103 101 72 69 102 
97 43 11 0 -2 -2 -2 -2 -2 -2 0 5 23 59 100 100 60 24 7 1 0 -1 -2 -2 -2 -2 -2 -2 -2 -2 -2 -2 -2 -2 -2 -2 -2 -2 -2 -2 -2 -2 -2 -2 -2 -2 -2 -2 -2 -2 -2 -2 -2 -2 -2 -2 -2 -2 -2 -2 -2 -2 -2 -2 -2 -2 -2 -2 -1 0 2 14 46 97 97 45 12 0 -2 -2 -2 -2 -2 -2 -2 -2 -2 -2 -2 -2 -2 -2 -2 -2 -2 -2 -2 -2 -2 -2 -2 -1 1 12 36 75 108 100 89 110 
99 43 11 0 -2 -2 -2 -2 -2 0 3 16 45 89 106 74 33 10 1 -1 -2 -2 -2 -2 -2 -2 -2 -2 -2 -2 -2 -2 -2 -2 -2 -2 -2 -2 -2 -2 -2 -2 -2 -2 -2 -2 -2 -2 -2 -2 -2 -2 -2 -2 -2 -2 -2 -2 -2 -2 -2 -2 -2 -2 -2 -2 -2 -2 -2 -1 1 12 44 96 99 48 14 2 -1 -2 -2 -2 -2 -2 -2 -2 -2 -2 -2 -2 -2 -2 -2 -2 -2 -2 -2 -2 -2 -2 -2 -2 -1 3 16 45 89 115 114 122 
101 43 11 0 -2 -2 -2 -2 -1 2 13 36 76 108 91 47 17 4 0 -1 -1 -2 -2 -2 -2 -2 -2 -2 -2 -2 -2 -2 -2 -2 -2 -2 -2 -2 -2 -2 -2 -2 -2 -2 -2 -2 -2 -2 -2 -2 -2 -2 -2 -2 -2 -2 -2 -2 -2 -2 -2 -2 -2 -2 -2 -2 -2 -2 -2 -1 2 14 45 97 107 59 21 5 0 -1 -2 -2 -2 -2 -2 -2 -2 -2 -2 -2 -2 -2 -2 -2 -2 -2 -2 -2 -2 -2 -2 -2 -2 0 5 23 59 104 130 136 
102 43 11 0 -2 -2 -2 -1 2 12 33 70 108 109 71 35 16 6 2 1 0 0 0 0 0 0 0 0 0 -1 -1 -1 -2 -2 -2 -2 -2 -2 -2 -2 -2 -2 -2 -2 -2 -2 -2 -2 -2 -2 -2 -2 -2 -2 -2 -2 -2 -2 -2 -2 -2 -2 -2 -2 -2 -2 -2 -2 -1 1 7 22 54 106 125 84 41 17 6 1 0 -1 -2 -2 -2 -2 -2 -2 -2 -2 -2 -2 -2 -2 -2 -2 -2 -2 -2 -2 -2 -2 -2 -1 0 9 32 74 123 143 
102 42 11 0 -2 -2 -1 2 12 33 69 113 130 108 74 50 35 24 16 13 12 11 11 11 11 11 11 9 7 4 2 1 0 0 0 0 0 0 0 0 -1 -1 -1 -2 -2 -2 -2 -2 -2 -2 -2 -2 -2 -2 -2 -2 -2 -2 -2 -2 -2 -2 -2 -2 -2 -2 -1 0 2 9 23 46 81 124 144 119 79 47 26 13 5 0 -1 -2 -2 -2 -2 -2 -2 -2 -2 -2 -2 -2 -2 -2 -2 -2 -2 -2 -2 -2 -2 -2 -1 2 15 45 97 136 
100 43 11 0 -1 0 2 12 33 69 112 141 140 122 105 93 81 66 53 47 45 44 44 44 44 43 42 38 32 23 16 13 12 11 11 11 11 11 9 7 4 2 1 0 0 0 0 0 0 0 0 0 -1 -1 -1 -2 -2 -2 -2 -2 -2 -2 -2 -2 -1 0 1 6 15 32 59 89 111 122 124 122 112 91 65 41 22 9 2 0 -1 -2 -2 -2 -2 -2 -2 -2 -2 -2 -2 -2 -2 -2 -2 -2 -2 -2 -2 -2 -2 0 6 26 71 120 
98 43 11 1 0 2 12 34 69 105 120 116 107 101 99 102 106 106 101 98 96 96 95 95 95 95 93 89 80 65 53 47 44 44 44 44 43 42 38 32 23 16 13 12 11 11 11 11 11 11 9 7 4 2 1 0 0 0 0 0 0 0 0 0 1 5 13 25 46 73 100 107 93 74 66 74 92 105 104 86 58 32 15 6 1 0 -1 -2 -2 -2 -2 -2 -2 -2 -2 -2 -2 -2 -2 -2 -2 -2 -2 -2 -2 -1 2 17 54 106 
96 44 12 3 4 13 34 69 102 105 81 58 48 45 47 53 65 80 89 93 95 95 95 95 96 96 98 101 106 106 101 98 96 96 95 95 95 93 89 80 65 53 47 45 44 44 44 44 43 42 38 32 23 16 13 12 11 11 11 11 11 10 8 7 11 23 41 65 90 106 100 74 47 29 23 28 43 66 90 106 100 73 46 25 12 5 0 -1 -2 -2 -2 -2 -2 -2 -2 -2 -2 -2 -2 -2 -2 -2 -2 -2 -2 -1 1 13 47 99 
96 45 15 9 17 37 70 102 102 70 38 20 14 12 13 16 23 32 38 42 43 44 44 44 44 45 47 53 65 80 89 93 95 95 95 96 96 98 101 106 106 101 98 96 96 95 95 95 95 93 89 80 65 53 47 44 44 44 44 43 42 39 34 31 39 61 87 104 104 86 59 32 16 7 4 6 13 26 46 73 100 106 90 65 41 22 9 2 0 -1 -2 -2 -2 -2 -2 -2 -2 -2 -2 -2 -2 -2 -2 -2 -2 -2 0 12 44 96 
97 48 23 26 46 75 103 101 68 34 13 4 1 1 1 2 4 7 9 11 11 11 11 11 11 12 13 16 23 32 38 42 43 44 44 44 44 47 53 65 80 89 93 95 95 95 95 96 96 98 101 106 106 101 98 96 96 95 95 95 94 91 85 80 89 105 108 91 65 41 22 9 2 0 0 0 1 6 15 32 58 86 104 104 86 58 32 15 6 1 0 -1 -2 -2 -2 -2 -2 -2 -2 -2 -2 -2 -2 -2 -2 -2 0 11 44 96 
100 58 44 61 89 106 98 66 33 12 2 0 -1 -2 -1 -1 -1 0 0 0 0 0 0 0 0 0 1 2 4 7 9 11 11 11 11 11 12 13 16 23 32 38 42 43 44 44 44 44 45 47 53 65 80 89 93 95 95 95 96 96 99 106 119 132 133 113 78 47 26 13 5 0 -1 -2 -2 -2 -1 0 2 9 22 41 65 90 106 100 73 46 25 12 5 0 -1 -2 -2 -2 -2 -2 -2 -2 -2 -2 -2 -2 -2 -2 0 11 44 96 
108 79 80 101 106 88 58 29 11 2 -1 -2 -2 -2 -2 -2 -2 -2 -2 -2 -2 -2 -2 -2 -2 -2 -1 -1 -1 0 0 0 0 0 0 0 0 1 2 4 7 9 11 11 11 11 11 11 12 13 16 23 32 38 42 43 44 44 44 45 49 63 95 135 132 84 41 17 6 1 0 -1 -2 -2 -2 -2 -2 -2 -1 0 5 12 25 46 73 100 106 90 65 41 22 9 2 0 -1 -2 -2 -2 -2 -2 -2 -2 -2 -2 -2 -2 0 11 43 97 
122 110 112 104 75 45 23 9 1 -1 -2 -2 -2 -2 -2 -2 -2 -2 -2 -2 -2 -2 -2 -2 -2 -2 -2 -2 -2 -2 -2 -2 -2 -2 -2 -2 -2 -1 -1 -1 0 0 0 0 0 0 0 0 0 1 2 4 7 9 11 11 11 11 12 12 16 29 64 114 112 59 21 5 0 -1 -2 -2 -2 -2 -2 -2 -2 -2 -2 -1 0 1 6 15 32 58 86 104 104 86 58 32 15 6 1 0 -1 -2 -2 -2 -2 -2 -2 -2 -2 -2 0 11 43 99 
139 131 107 70 36 16 5 0 -1 -2 -2 -2 -2 -2 -2 -2 -2 -2 -2 -2 -2 -2 -2 -2 -2 -2 -2 -2 -2 -2 -2 -2 -2 -2 -2 -2 -2 -2 -2 -2 -2 -2 -2 -2 -2 -2 -2 -2 -2 -1 -1 -1 0 0 0 0 0 0 0 1 4 16 49 101 101 48 14 1 -1 -2 -2 -2 -2 -2 -2 -2 -2 -2 -2 -2 -2 -1 0 2 9 22 41 65 90 106 100 73 46 26 13 5 1 0 -1 -2 -2 -2 -2 -2 -2 -2 0 11 43 102 
142 117 71 34 13 3 0 -1 -2 -2 -2 -2 -2 -2 -2 -2 -2 -2 -2 -2 -2 -2 -2 -2 -2 -2 -2 -2 -2 -2 -2 -2 -2 -2 -2 -2 -2 -2 -2 -2 -2 -2 -2 -2 -2 -2 -2 -2 -2 -2 -2 -2 -2 -2 -2 -2 -2 -2 -1 -1 1 12 45 97 97 45 12 0 -2 -2 -2 -2 -2 -2 -2 -2 -2 -2 -2 -2 -2 -2 -2 -1 0 5 12 25 46 73 100 106 90 66 42 24 12 5 0 -1 -2 -2 -2 -2 -2 -2 0 11 43 103 
125 83 38 13 3 0 -2 -2 -2 -2 -2 -2 -2 -2 -2 -2 -2 -2 -2 -2 -2 -2 -2 -2 -2 -2 -2 -2 -2 -2 -2 -2 -2 -2 -2 -2 -2 -2 -2 -2 -2 -2 -2 -2 -2 -2 -2 -2 -2 -2 -2 -2 -2 -2 -2 -2 -2 -2 -2 -1 0 11 44 96 96 44 11 0 -2 -2 -2 -2 -2 -2 -2 -2 -2 -2 -2 -2 -2 -2 -2 -2 -1 0 1 6 15 32 58 86 104 104 89 65 41 22 9 2 0 -1 -2 -2 -2 -1 0 11 43 101 
108 58 20 4 0 -2 -2 -2 -2 -2 -2 -2 -2 -2 -2 -2 -2 -2 -2 -2 -2 -2 -2 -2 -2 -2 -2 -2 -2 -2 -2 -2 -2 -2 -2 -2 -2 -2 -2 -2 -2 -2 -2 -2 -2 -2 -2 -2 -2 -2 -2 -2 -2 -2 -2 -2 -2 -2 -2 -2 0 11 44 95 95 44 11 0 -2 -2 -2 -2 -2 -2 -2 -2 -2 -2 -2 -2 -2 -2 -2 -2 -2 -2 -1 0 2 9 22 41 65 89 105 104 87 58 32 15 6 2 0 0 0 -1 1 12 44 98 
100 48 14 1 -1 -2 -2 -2 -2 -2 -2 -2 -2 -2 -2 -2 -2 -2 -2 -2 -2 -2 -2 -2 -2 -2 -2 -2 -2 -2 -2 -2 -2 -2 -2 -2 -2 -2 -2 -2 -2 -2 -2 -2 -2 -2 -2 -2 -2 -2 -2 -2 -2 -2 -2 -2 -2 -2 -2 -2 0 11 44 95 95 44 11 0 -2 -2 -2 -2 -2 -2 -2 -2 -2 -2 -2 -2 -2 -2 -2 -2 -2 -2 -2 -2 -1 0 5 12 25 43 66 91 107 101 74 46 26 16 11 7 4 2 4 14 45 97 
97 45 12 1 -1 -2 -2 -2 -2 -2 -2 -2 -2 -2 -2 -2 -2 -2 -2 -2 -2 -2 -2 -2 -2 -2 -2 -2 -2 -2 -2 -2 -2 -2 -2 -2 -2 -2 -2 -2 -2 -2 -2 -2 -2 -2 -2 -2 -2 -2 -2 -2 -2 -2 -2 -2 -2 -2 -2 -2 0 11 44 95 95 44 11 0 -2 -2 -2 -2 -2 -2 -2 -2 -2 -2 -2 -2 -2 -2 -2 -2 -2 -2 -2 -2 -2 -1 0 2 6 15 29 51 82 111 117 97 71 53 42 32 23 16 15 22 51 99 
98 44 12 1 -1 -2 -2 -2 -2 -2 -2 -2 -2 -2 -2 -2 -2 -2 -2 -2 -2 -2 -2 -2 -2 -2 -2 -2 -2 -2 -2 -2 -2 -2 -2 -2 -2 -2 -2 -2 -2 -2 -2 -2 -2 -2 -2 -2 -2 -2 -2 -2 -2 -2 -2 -2 -2 -2 -2 -2 0 11 44 95 95 44 11 0 -2 -2 -2 -2 -2 -2 -2 -2 -2 -2 -2 -2 -2 -2 -2 -2 -2 -2 -2 -2 -2 -2 -1 0 3 9 18 34 61 101 134 140 123 105 93 81 65 52 45 47 68 107 
102 46 15 4 1 0 0 0 0 -1 -1 -1 -2 -2 -2 -2 -2 -2 -2 -2 -2 -2 -2 -2 -2 -2 -2 -2 -2 -2 -2 -2 -2 -2 -2 -2 -2 -2 -2 -2 -2 -2 -2 -2 -2 -2 -2 -2 -2 -2 -2 -2 -2 -2 -2 -2 -2 -2 -2 -2 0 11 44 95 95 44 11 0 -2 -2 -2 -2 -2 -2 -2 -2 -2 -2 -2 -2 -2 -2 -2 -2 -2 -2 -2 -1 -1 0 2 6 13 23 37 55 80 110 130 127 113 104 103 106 106 100 95 93 103 126 
112 56 25 15 12 11 11 9 7 4 2 1 0 0 0 0 0 -1 -1 -1 -2 -2 -2 -2 -2 -2 -2 -2 -2 -2 -2 -2 -2 -2 -2 -2 -2 -2 -2 -2 -2 -2 -2 -2 -2 -2 -2 -2 -2 -2 -2 -2 -2 -2 -2 -2 -2 -2 -2 -2 0 11 44 95 95 44 11 0 -2 -2 -2 -2 -2 -2 -2 -2 -2 -2 -2 -2 -2 -2 -2 -2 -2 -1 0 1 4 9 15 26 42 62 83 98 108 107 92 71 55 50 54 66 81 92 102 114 132 146 
128 83 56 47 44 43 42 38 32 23 16 13 12 11 11 9 7 4 2 1 0 0 0 0 0 0 -1 -1 -1 -2 -2 -2 -2 -2 -2 -2 -2 -2 -2 -2 -2 -2 -2 -2 -2 -2 -2 -2 -2 -2 -2 -2 -2 -2 -2 -2 -2 -2 -2 -2 0 11 44 95 95 44 11 0 -2 -2 -2 -2 -2 -2 -2 -2 -2 -2 -2 -2 -2 -2 -1 -1 0 2 5 12 22 35 49 68 89 104 106 97 82 62 42 26 17 14 17 23 33 42 54 75 109 142 
146 124 105 98 96 95 93 89 80 65 53 47 44 43 42 38 32 23 16 13 12 11 11 11 9 7 4 2 1 0 0 0 0 0 -1 -1 -1 -2 -2 -2 -2 -2 -2 -2 -2 -2 -2 -2 -2 -2 -2 -2 -2 -2 -2 -2 -2 -2 -2 -2 0 11 44 95 95 44 11 0 -2 -2 -2 -2 -2 -2 -2 -2 -2 -2 -2 -2 -1 0 1 4 9 15 26 42 62 82 97 106 104 89 68 49 35 22 12 5 2 1 2 4 8 12 19 35 72 125 
142 124 105 98 96 96 98 101 106 106 101 98 96 95 93 89 80 65 53 47 44 44 43 42 38 32 23 16 13 12 11 11 9 7 4 2 1 0 0 0 0 0 0 -1 -1 -1 -2 -2 -2 -2 -2 -2 -2 -2 -2 -2 -2 -2 -2 -2 0 11 44 95 95 44 11 0 -2 -2 -2 -2 -2 -2 -2 -2 -2 -2 -1 0 1 5 12 22 35 49 68 89 104 106 97 82 62 42 26 15 9 4 1 0 -1 -1 -1 -1 0 1 5 18 52 110 
119 83 57 47 44 45 47 53 65 80 89 93 95 96 98 101 106 106 101 98 96 95 95 93 89 80 65 53 47 44 43 42 38 32 23 16 13 12 11 11 11 9 7 4 2 1 0 0 0 0 0 -1 -1 -1 -2 -2 -2 -2 -2 -1 1 12 44 96 95 44 11 0 -2 -2 -2 -2 -2 -2 -2 -1 -1 0 2 6 13 24 41 62 82 97 106 104 89 68 49 35 22 12 5 2 0 -1 -1 -2 -2 -2 -2 -2 -2 -1 1 13 45 101 
103 56 26 15 12 12 13 16 23 32 38 42 43 44 47 53 65 80 89 93 95 95 96 98 101 106 106 101 98 96 95 93 89 80 65 53 47 44 44 43 42 38 32 23 16 13 12 11 11 9 7 4 2 1 0 0 0 0 0 0 2 12 44 96 96 44 11 0 -2 -2 -2 -2 -2 -1 0 1 4 9 15 26 43 65 88 104 106 97 82 62 42 26 15 9 4 1 0 -1 -2 -2 -2 -2 -2 -2 -2 -2 -2 -1 0 12 44 97 
97 47 15 4 1 0 1 2 4 7 9 11 11 12 13 16 23 32 38 42 43 44 44 47 53 65 80 89 93 95 96 98 101 106 106 101 98 96 95 95 93 89 80 65 53 47 44 43 42 38 32 23 16 13 12 11 11 11 10 8 8 16 47 98 97 45 12 1 -1 -2 -1 -1 0 2 5 12 22 35 49 68 90 104 104 90 68 49 35 22 12 5 2 0 -1 -1 -2 -2 -2 -2 -2 -2 -2 -2 -2 -2 -2 -2 0 11 44 96 
96 44 12 1 -1 -1 -1 -1 -1 0 0 0 0 0 1 2 4 7 9 11 11 11 12 13 16 23 32 38 42 43 44 47 53 65 80 89 93 95 95 96 98 101 106 106 101 98 96 95 93 89 80 65 53 47 44 44 43 42 39 32 26 30 58 105 101 48 14 2 0 0 1 4 9 15 26 42 62 82 97 106 104 88 65 43 26 15 9 4 1 0 -1 -2 -2 -2 -2 -2 -2 -2 -2 -2 -2 -2 -2 -2 -2 -2 0 11 44 96 
96 44 11 0 -1 -2 -2 -2 -2 -2 -2 -2 -2 -2 -1 -1 -1 0 0 0 0 0 0 1 2 4 7 9 11 11 12 13 16 23 32 38 42 43 44 44 47 53 65 80 89 93 95 96 98 101 106 106 101 98 96 95 95 93 89 80 69 66 86 123 114 59 22 7 4 6 12 22 35 49 68 89 104 106 97 82 62 41 24 13 6 2 0 -1 -1 -2 -2 -2 -2 -2 -2 -2 -2 -2 -2 -2 -2 -2 -2 -2 -2 -2 0 11 44 95 
95 44 11 0 -2 -2 -2 -2 -2 -2 -2 -2 -2 -2 -2 -2 -2 -2 -2 -2 -2 -2 -2 -1 -1 -1 0 0 0 0 0 1 2 4 7 9 11 11 11 12 13 16 23 32 38 42 43 44 47 53 65 80 89 93 95 95 96 98 101 106 107 109 121 142 132 85 43 23 20 27 42 62 82 97 106 104 89 68 49 35 22 12 5 1 0 -1 -2 -2 -2 -2 -2 -2 -2 -2 -2 -2 -2 -2 -2 -2 -2 -2 -2 -2 -2 -2 0 11 44 95 
95 44 11 0 -2 -2 -2 -2 -2 -2 -2 -2 -2 -2 -2 -2 -2 -2 -2 -2 -2 -2 -2 -2 -2 -2 -2 -2 -2 -2 -2 -1 -1 -1 0 0 0 0 0 0 1 2 4 7 9 11 11 12 13 16 23 32 38 42 43 44 44 47 53 66 80 91 102 116 127 114 85 63 59 71 90 104 106 97 82 62 42 26 15 9 4 1 0 -1 -2 -2 -2 -2 -2 -2 -2 -2 -2 -2 -2 -2 -2 -2 -2 -2 -2 -2 -2 -2 -2 -2 0 11 44 95 
95 44 11 0 -2 -2 -2 -2 -2 -2 -2 -2 -2 -2 -2 -2 -2 -2 -2 -2 -2 -2 -2 -2 -2 -2 -2 -2 -2 -2 -2 -2 -2 -2 -2 -2 -2 -2 -2 -2 -1 -1 -1 0 0 0 0 0 1 2 4 7 9 11 11 11 12 13 16 23 32 39 46 59 84 114 128 120 112 110 105 89 68 49 35 22 12 5 2 0 -1 -1 -2 -2 -2 -2 -2 -2 -2 -2 -2 -2 -2 -2 -2 -2 -2 -2 -2 -2 -2 -2 -2 -2 -2 -2 0 11 44 95 
96 44 11 0 -1 -2 -2 -2 -2 -2 -2 -2 -2 -2 -2 -2 -2 -2 -2 -2 -2 -2 -2 -2 -2 -2 -2 -2 -2 -2 -2 -2 -2 -2 -2 -2 -2 -2 -2 -2 -2 -2 -2 -2 -2 -2 -1 -1 -1 -1 -1 0 0 0 0 0 0 1 2 4 7 10 13 21 43 85 133 142 115 88 63 42 26 15 9 4 1 0 -1 -2 -2 -2 -2 -2 -2 -2 -2 -2 -2 -2 -2 -2 -2 -2 -2 -2 -2 -2 -2 -2 -2 -2 -2 -2 -2 -1 0 11 44 96 
96 44 12 1 -1 -1 -2 -2 -2 -2 -2 -2 -2 -2 -2 -2 -2 -2 -2 -2 -2 -2 -2 -2 -2 -2 -2 -2 -2 -2 -2 -2 -2 -2 -2 -2 -2 -2 -2 -2 -2 -2 -2 -2 -2 -2 -1 -1 -1 -1 -1 -1 -1 -1 -1 -1 -1 -1 0 0 0 1 2 7 22 60 114 122 79 45 25 13 6 2 0 0 -1 -1 -1 -2 -2 -2 -2 -2 -2 -2 -2 -2 -2 -2 -2 -2 -2 -2 -2 -2 -2 -2 -2 -2 -2 -2 -2 -2 -2 -1 1 12 44 96 
98 47 15 4 1 0 0 0 0 0 0 0 0 0 0 0 0 0 0 0 0 0 0 0 0 0 0 0 0 0 0 0 0 0 0 0 0 0 0 0 0 0 0 0 0 0 0 0 0 0 0 0 0 0 0 0 0 0 0 1 1 1 2 5 18 51 104 106 58 25 11 5 3 1 1 1 0 0 0 0 0 0 0 0 0 0 0 0 0 0 0 0 0 0 0 0 0 0 0 0 0 0 0 0 0 1 4 15 47 98 
105 56 26 15 12 11 11 11 11 11 11 11 11 11 11 11 11 11 11 11 11 11 11 11 11 11 11 11 11 11 11 11 11 11 11 11 11 11 11 11 11 11 11 11 11 11 11 11 11 11 11 11 11 11 11 11 11 11 11 11 11 12 12 15 26 58 107 107 59 28 16 13 12 12 11 11 11 11 11 11 11 11 11 11 11 11 11 11 11 11 11 11 11 11 11 11 11 11 11 11 11 11 11 11 11 12 15 25 56 105 
125 83 56 47 44 44 44 44 44 44 44 44 44 44 44 44 44 44 44 44 44 44 44 44 44 44 44 44 44 44 43 43 43 43 43 43 43 44 44 44 44 44 44 44 44 44 44 43 43 43 43 43 43 44 44 44 44 44 44 44 44 44 44 47 57 83 124 124 84 57 47 44 44 44 44 44 44 44 44 44 44 44 44 44 44 44 44 44 44 44 43 43 43 43 43 43 44 44 44 44 44 44 43 43 43 44 46 56 83 125 
154 125 105 98 96 96 95 95 95 95 95 95 95 95 95 95 95 95 95 95 95 95 95 95 95 95 95 95 96 96 97 99 102 103 101 98 96 96 95 95 95 95 95 95 95 96 96 97 100 103 103 99 97 96 96 95 95 95 95 95 95 96 96 97 103 119 140 140 119 103 97 96 96 95 95 95 95 95 95 95 95 95 95 95 95 95 95 95 96 96 98 101 103 101 98 96 96 95 95 95 96 96 98 101 103 102 101 106 125 154 
