P2
110 110
255
150 126 107 99 96 95 95 95 95 95 95 95 95 95 95 95 95 95 95 95 95 95 95 95 95 95 95 95 96 100 108 122 135 134 121 107 100 96 95 95 95 95 95 95 95 96 98 105 120 135 135 119 105 98 96 95 95 95 95 95 95 95 95 95 96 99 101 101 99 96 95 95 95 95 95 95 95 95 95 95 95 95 95 95 95 95 95 96 98 104 117 132 136 124 109 100 96 95 95 95 97 102 114 130 137 126 114 113 128 150 
126 93 67 55 52 51 50 50 50 50 50 50 50 50 50 50 50 50 50 50 50 50 50 50 50 50 51 52 55 63 82 110 130 118 89 67 56 52 51 50 50 50 50 50 51 52 57 70 97 128 126 93 67 56 52 51 50 50 50 50 50 50 50 50 50 49 48 48 49 50 50 50 50 50 50 50 50 50 50 50 50 50 50 50 50 50 51 52 57 70 97 126 125 96 71 57 52 51 51 51 55 65 88 120 129 103 78 75 95 127 
107 67 36 23 19 18 17 17 17 17 17 17 17 17 17 17 17 17 17 17 17 17 17 17 17 17 18 20 26 41 70 105 112 83 50 30 21 18 18 17 17 17 17 17 18 20 26 43 78 117 109 66 36 23 19 18 17 17 17 17 17 17 17 17 17 17 16 16 17 17 17 17 17 17 17 17 17 17 17 17 17 17 17 17 17 17 18 21 28 48 85 114 99 60 34 23 19 18 18 19 23 37 67 107 109 72 45 43 69 108 
99 55 23 9 5 4 4 4 4 4 4 4 4 4 4 4 4 4 4 4 4 4 4 4 4 4 5 10 21 45 82 106 90 52 24 11 6 4 4 4 4 4 4 4 5 8 16 38 80 118 102 54 22 9 5 4 4 4 4 4 4 4 4 4 3 3 3 3 3 3 4 4 4 4 4 4 4 4 4 4 4 4 4 4 4 4 5 9 20 47 88 106 75 37 15 7 5 4 4 6 12 28 64 103 95 53 28 29 57 99 
96 52 19 5 1 0 0 0 0 0 0 0 0 0 0 0 0 0 0 0 0 0 0 0 0 0 3 12 31 65 99 98 64 30 11 3 0 0 0 0 0 0 0 0 1 6 19 49 95 127 101 50 18 5 1 0 0 0 0 0 0 0 0 0 0 0 0 0 0 0 0 0 0 0 0 0 0 0 0 0 0 0 0 0 0 0 2 7 23 57 97 96 56 23 7 1 0 0 0 2 10 31 71 104 83 41 19 23 53 96 
95 51 18 4 0 -1 -1 -1 -1 -1 -1 -1 -1 -1 -1 -1 -1 -1 -1 -1 -1 -1 -1 -1 0 1 7 22 51 89 103 76 39 15 4 0 0 -1 -1 -1 -1 -1 -1 0 2 10 30 69 115 135 102 50 17 4 0 -1 -1 -1 -1 -1 -1 -1 -1 -1 -1 -1 -1 -1 -1 -1 -1 -1 -1 -1 -1 -1 -1 -1 -1 -1 -1 -1 -1 -1 -1 0 2 11 33 73 103 83 41 14 3 0 -1 -1 0 2 13 39 82 103 70 31 15 21 51 95 
95 50 17 4 0 -1 -1 -1 -1 -1 -1 -1 -1 -1 -1 -1 -1 -1 -1 -1 -1 -1 -1 -1 0 4 15 39 76 103 88 51 21 7 1 0 -1 -1 -1 -1 -1 -1 -1 0 5 19 48 91 127 135 104 53 19 4 0 -1 -1 -1 -1 -1 -1 -1 -1 -1 -1 -1 -1 -1 -1 -1 -1 -1 -1 -1 -1 -1 -1 -1 -1 -1 -1 -1 -1 -1 -1 0 4 18 48 89 101 66 28 8 1 0 -1 -1 0 4 17 48 91 98 58 24 11 19 51 95 
95 50 17 4 0 -1 -1 -1 -1 -1 -1 -1 -1 -1 -1 -1 -1 -1 -1 -1 -1 -1 -1 0 2 10 30 64 98 98 64 30 10 2 0 -1 -1 -1 -1 -1 -1 -1 0 2 11 32 70 108 124 127 107 60 23 6 0 -1 -1 -1 -1 -1 -1 -1 -1 -1 -1 -1 -1 -1 -1 -1 -1 -1 -1 -1 -1 -1 -1 -1 -1 -1 -1 -1 -1 -1 0 1 8 28 66 101 89 48 18 4 0 -1 -1 -1 0 6 22 58 98 91 48 18 9 19 51 95 
95 50 17 4 0 -1 -1 -1 -1 -1 -1 -1 -1 -1 -1 -1 -1 -1 -1 -1 -1 -1 0 1 7 21 51 88 102 76 39 15 4 0 -1 -1 -1 -1 -1 -1 -1 0 1 7 22 52 92 111 105 110 109 70 29 8 1 -1 -1 -1 -1 -1 -1 -1 -1 -1 -1 -1 -1 -1 -1 -1 -1 -1 -1 -1 -1 -1 -1 -1 -1 -1 -1 -1 -1 -1 0 3 14 41 83 103 73 33 10 2 0 -1 -1 0 1 9 30 70 103 82 39 14 8 18 51 95 
95 50 17 4 0 -1 -1 -1 -1 -1 -1 -1 -1 -1 -1 -1 -1 -1 -1 -1 -1 -1 0 4 15 39 76 102 88 51 21 7 1 0 -1 -1 -1 -1 -1 -1 -1 0 4 15 39 77 104 96 79 90 107 81 37 11 2 0 -1 -1 -1 -1 -1 -1 -1 -1 -1 -1 -1 -1 -1 -1 -1 -1 -1 -1 -1 -1 -1 -1 -1 -1 -1 -1 -1 -1 0 6 22 56 96 96 56 22 6 0 -1 -1 -1 0 2 12 38 82 103 70 30 10 7 18 50 95 
95 51 18 4 0 -1 -1 -1 -1 -1 -1 -1 -1 -1 -1 -1 -1 -1 -1 -1 -1 0 2 10 30 64 98 98 64 30 10 2 0 -1 -1 -1 -1 -1 -1 -1 0 1 9 28 63 98 99 71 54 72 103 88 43 14 3 0 -1 -1 -1 -1 -1 -1 -1 -1 -1 -1 -1 -1 -1 -1 -1 -1 -1 -1 -1 -1 -1 -1 -1 -1 -1 -1 -1 0 2 10 33 73 103 83 41 14 3 0 -1 -1 -1 0 4 17 48 91 98 58 23 7 6 18 50 95 
96 52 18 4 0 -1 -1 -1 -1 -1 -1 -1 -1 -1 -1 -1 -1 -1 -1 -1 0 1 7 21 51 88 102 76 39 15 4 0 -1 -1 -1 -1 -1 -1 -1 -1 0 5 18 47 86 103 78 46 37 60 98 92 48 16 3 0 -1 -1 -1 -1 -1 -1 -1 -1 -1 -1 -1 -1 -1 -1 -1 -1 -1 -1 -1 -1 -1 -1 -1 -1 -1 -1 -1 0 4 18 48 89 101 66 28 8 1 0 -1 -1 -1 0 6 22 58 98 91 48 17 5 5 18 50 95 
99 56 21 5 0 -1 -1 -1 -1 -1 -1 -1 -1 -1 -1 -1 -1 -1 -1 -1 0 4 15 39 76 102 88 51 21 7 1 0 -1 -1 -1 -1 -1 -1 -1 0 2 10 31 68 101 91 54 28 27 54 95 95 51 18 4 0 -1 -1 -1 -1 -1 -1 -1 -1 -1 -1 -1 -1 -1 -1 -1 -1 -1 -1 -1 -1 -1 -1 -1 -1 -1 -1 0 1 8 28 66 101 89 48 18 4 0 -1 -1 -1 -1 1 9 30 70 103 82 39 13 4 5 17 50 95 
107 66 29 9 2 0 -1 -1 -1 -1 -1 -1 -1 -1 -1 -1 -1 -1 -1 0 2 10 30 64 98 98 64 30 10 2 0 -1 -1 -1 -1 -1 -1 -1 -1 0 5 19 49 89 102 70 34 17 21 49 93 97 54 20 4 0 -1 -1 -1 -1 -1 -1 -1 -1 -1 -1 -1 -1 -1 -1 -1 -1 -1 -1 -1 -1 -1 -1 -1 -1 -1 -1 0 3 14 41 83 103 73 33 10 2 0 -1 -1 -1 0 2 12 38 82 103 70 30 9 2 4 17 49 97 
121 87 46 19 6 1 0 -1 -1 -1 -1 -1 -1 -1 -1 -1 -1 -1 0 1 7 21 51 88 102 76 39 15 4 0 -1 -1 -1 -1 -1 -1 -1 -1 0 2 11 33 70 102 89 49 20 10 17 44 88 100 61 23 6 0 -1 -1 -1 -1 -1 -1 -1 -1 -1 -1 -1 -1 -1 -1 -1 -1 -1 -1 -1 -1 -1 -1 -1 -1 -1 -1 0 6 22 56 96 96 56 22 6 0 -1 -1 -1 -1 0 4 17 48 91 98 58 22 6 1 4 16 48 99 
134 115 74 39 17 5 0 -1 -1 -1 -1 -1 -1 -1 -1 -1 -1 -1 0 4 15 39 76 102 88 51 21 7 1 0 -1 -1 -1 -1 -1 -1 -1 0 1 7 22 53 91 101 69 31 11 6 13 37 81 103 70 30 8 1 -1 -1 -1 -1 -1 -1 -1 -1 -1 -1 -1 -1 -1 -1 -1 -1 -1 -1 -1 -1 -1 -1 -1 -1 -1 0 2 10 33 73 103 83 41 14 3 0 -1 -1 -1 -1 0 6 22 58 98 91 48 17 4 1 4 16 48 101 
136 130 105 69 35 14 4 0 -1 -1 -1 -1 -1 -1 -1 -1 -1 0 2 10 30 64 98 98 64 30 10 2 0 -1 -1 -1 -1 -1 -1 -1 -1 0 4 15 39 77 103 86 47 18 5 3 9 30 70 103 80 37 12 2 0 -1 -1 -1 -1 -1 -1 -1 -1 -1 -1 -1 -1 -1 -1 -1 -1 -1 -1 -1 -1 -1 -1 -1 -1 0 4 18 48 89 101 66 28 8 1 0 -1 -1 -1 -1 1 9 30 70 103 82 39 12 2 0 4 16 48 100 
125 119 114 97 62 29 10 2 0 -1 -1 -1 -1 -1 -1 -1 0 1 7 21 51 88 102 76 39 15 4 0 -1 -1 -1 -1 -1 -1 -1 -1 0 1 9 28 63 97 97 63 28 9 2 1 6 23 61 100 88 44 14 3 0 -1 -1 -1 -1 -1 -1 -1 -1 -1 -1 -1 -1 -1 -1 -1 -1 -1 -1 -1 -1 -1 -1 -1 0 1 8 28 66 101 89 48 18 4 0 -1 -1 -1 -1 0 2 12 38 82 103 70 30 9 1 0 4 17 49 99 
112 95 97 106 88 52 23 8 1 0 -1 -1 -1 -1 -1 -1 0 4 15 39 76 102 88 51 21 7 1 0 -1 -1 -1 -1 -1 -1 -1 -1 0 5 18 47 86 103 77 39 15 4 0 0 5 20 54 97 92 48 16 3 0 -1 -1 -1 -1 -1 -1 -1 -1 -1 -1 -1 -1 -1 -1 -1 -1 -1 -1 -1 -1 -1 -1 -1 0 3 14 41 83 103 73 33 10 2 0 -1 -1 -1 -1 0 4 17 48 91 98 58 22 6 0 0 4 17 50 97 
103 75 71 93 104 79 44 20 7 1 0 -1 -1 -1 -1 0 2 10 30 64 98 98 64 30 10 2 0 -1 -1 -1 -1 -1 -1 -1 -1 0 2 10 31 68 101 91 53 22 7 1 0 0 4 18 51 95 95 51 18 4 0 -1 -1 -1 -1 -1 -1 -1 -1 -1 -1 -1 -1 -1 -1 -1 -1 -1 -1 -1 -1 -1 -1 -1 0 6 22 56 96 96 56 22 6 0 -1 -1 -1 -1 -1 0 6 22 58 98 91 48 17 4 0 0 4 17 50 96 
98 63 49 67 97 101 74 41 19 7 1 0 -1 -1 0 1 7 21 51 88 102 76 39 15 4 0 -1 -1 -1 -1 -1 -1 -1 -1 -1 0 5 19 49 89 102 70 33 11 2 0 -1 0 3 16 48 92 97 54 20 4 0 -1 -1 -1 -1 -1 -1 -1 -1 -1 -1 -1 -1 -1 -1 -1 -1 -1 -1 -1 -1 -1 -1 0 2 10 33 73 103 83 41 14 3 0 -1 -1 -1 -1 -1 1 9 30 70 103 82 38 12 2 0 0 4 17 50 95 
96 56 33 41 70 99 99 73 41 18 6 1 0 0 0 4 15 39 76 102 88 51 21 7 1 0 -1 -1 -1 -1 -1 -1 -1 -1 0 2 11 33 70 102 89 49 19 5 0 -1 -1 0 3 14 44 88 100 61 23 6 0 -1 -1 -1 -1 -1 -1 -1 -1 -1 -1 -1 -1 -1 -1 -1 -1 -1 -1 -1 -1 -1 -1 0 4 18 48 89 101 66 28 8 1 0 -1 -1 -1 -1 0 2 12 38 82 103 70 30 9 1 0 0 4 17 50 95 
95 53 25 23 41 72 99 99 72 41 18 7 1 0 2 10 30 64 98 98 64 30 10 2 0 -1 -1 -1 -1 -1 -1 -1 -1 0 1 7 22 53 91 101 68 31 10 2 0 -1 -1 0 2 12 37 80 103 70 30 8 1 -1 -1 -1 -1 -1 -1 -1 -1 -1 -1 -1 -1 -1 -1 -1 -1 -1 -1 -1 -1 -1 0 1 8 28 66 101 89 48 18 4 0 -1 -1 -1 -1 -1 0 4 17 48 91 98 58 22 6 0 0 0 4 17 50 95 
95 51 20 12 19 41 72 99 99 72 41 19 7 4 8 22 51 88 102 76 39 15 4 0 -1 -1 -1 -1 -1 -1 -1 -1 -1 0 4 15 39 77 103 86 47 18 5 0 -1 -1 -1 -1 1 8 30 70 103 81 37 12 2 0 -1 -1 -1 -1 -1 -1 -1 -1 -1 -1 -1 -1 -1 -1 -1 -1 -1 -1 -1 -1 0 3 14 41 83 103 73 33 10 2 0 -1 -1 -1 -1 -1 0 6 22 58 98 91 48 17 4 0 -1 0 4 17 50 95 
95 51 18 7 8 19 41 72 99 99 72 41 20 13 19 40 77 103 88 51 21 7 1 0 -1 -1 -1 -1 -1 -1 -1 -1 0 1 9 28 63 97 97 63 28 9 1 0 -1 -1 -1 -1 0 6 23 60 100 88 44 15 3 0 -1 -1 -1 -1 -1 -1 -1 -1 -1 -1 -1 -1 -1 -1 -1 -1 -1 -1 -1 -1 0 6 22 56 96 96 56 22 6 0 -1 -1 -1 -1 -1 -1 1 9 30 70 103 82 38 12 2 0 -1 0 4 17 50 95 
95 50 18 5 3 7 18 41 72 99 99 74 45 31 39 67 98 98 64 30 10 2 0 -1 -1 -1 -1 -1 -1 -1 -1 -1 0 5 18 47 86 103 77 39 15 4 0 -1 -1 -1 -1 -1 0 4 19 54 96 93 49 17 3 0 -1 -1 -1 -1 -1 -1 -1 -1 -1 -1 -1 -1 -1 -1 -1 -1 -1 -1 -1 0 2 10 33 73 103 83 41 14 3 0 -1 -1 -1 -1 -1 0 2 12 38 82 103 70 30 9 1 0 -1 0 4 17 50 95 
95 50 17 4 0 1 7 18 41 72 99 101 80 64 70 95 104 76 39 15 4 0 -1 -1 -1 -1 -1 -1 -1 -1 -1 0 2 10 31 68 101 91 53 22 7 1 0 -1 -1 -1 -1 -1 0 3 17 49 93 96 54 19 4 0 -1 -1 -1 -1 -1 -1 -1 -1 -1 -1 -1 -1 -1 -1 -1 -1 -1 -1 -1 0 4 18 48 89 101 66 28 8 1 0 -1 -1 -1 -1 -1 0 4 17 48 91 98 58 22 6 0 -1 -1 0 4 17 50 95 
95 50 17 4 0 0 1 6 18 41 73 102 111 106 109 112 89 51 21 7 1 0 -1 -1 -1 -1 -1 -1 -1 -1 -1 0 5 19 49 89 102 70 33 11 2 0 -1 -1 -1 -1 -1 -1 0 3 15 44 88 100 60 23 6 0 -1 -1 -1 -1 -1 -1 -1 -1 -1 -1 -1 -1 -1 -1 -1 -1 -1 -1 0 1 8 28 66 101 89 48 18 4 0 -1 -1 -1 -1 -1 -1 0 6 22 58 98 91 48 17 4 0 -1 -1 0 4 17 50 95 
95 50 17 4 0 -1 0 1 7 18 41 75 111 133 133 107 64 29 10 2 0 -1 -1 -1 -1 -1 -1 -1 -1 -1 0 2 11 33 70 102 89 49 19 5 0 -1 -1 -1 -1 -1 -1 -1 0 2 12 37 81 103 70 30 8 1 -1 -1 -1 -1 -1 -1 -1 -1 -1 -1 -1 -1 -1 -1 -1 -1 -1 -1 0 3 14 41 83 103 73 33 10 2 0 -1 -1 -1 -1 -1 -1 1 9 30 70 103 82 38 12 2 0 -1 -1 0 4 17 50 95 
95 50 17 4 0 -1 -1 0 1 7 20 46 87 128 128 86 42 16 4 0 -1 -1 -1 -1 -1 -1 -1 -1 -1 0 1 7 22 53 91 101 68 31 10 2 0 -1 -1 -1 -1 -1 -1 -1 -1 1 8 30 70 103 80 37 12 2 0 -1 -1 -1 -1 -1 -1 -1 -1 -1 -1 -1 -1 -1 -1 -1 -1 -1 0 6 22 56 96 96 56 22 6 0 -1 -1 -1 -1 -1 -1 0 2 12 38 82 103 70 30 9 1 0 -1 -1 0 4 17 50 95 
95 50 17 4 0 -1 -1 -1 0 2 9 27 64 109 114 70 30 9 1 0 -1 -1 -1 -1 -1 -1 -1 -1 -1 0 4 15 39 77 103 86 47 18 5 0 -1 -1 -1 -1 -1 -1 -1 -1 -1 0 6 23 61 100 88 44 14 3 0 -1 -1 -1 -1 -1 -1 -1 -1 -1 -1 -1 -1 -1 -1 -1 -1 0 2 10 33 73 103 83 41 14 3 0 -1 -1 -1 -1 -1 -1 0 4 17 48 91 98 58 22 6 0 -1 -1 -1 0 4 17 50 95 
95 50 17 4 0 -1 -1 -1 -1 0 5 18 49 94 106 66 27 8 1 -1 -1 -1 -1 -1 -1 -1 -1 -1 0 1 9 28 63 97 97 63 28 9 1 0 -1 -1 -1 -1 -1 -1 -1 -1 -1 0 4 20 54 97 92 48 16 3 0 -1 -1 -1 -1 -1 -1 -1 -1 -1 -1 -1 -1 -1 -1 -1 -1 0 4 18 48 89 101 66 28 8 1 0 -1 -1 -1 -1 -1 -1 0 6 22 58 98 91 48 17 4 0 -1 -1 -1 0 4 17 50 95 
95 50 17 4 0 -1 -1 -1 -1 0 2 13 39 82 105 72 31 9 1 0 -1 -1 -1 -1 -1 -1 -1 -1 0 5 18 47 86 103 77 39 15 4 0 -1 -1 -1 -1 -1 -1 -1 -1 -1 -1 0 4 18 51 95 95 51 18 4 0 -1 -1 -1 -1 -1 -1 -1 -1 -1 -1 -1 -1 -1 -1 -1 0 1 8 28 66 101 89 48 18 4 0 -1 -1 -1 -1 -1 -1 -1 1 9 30 70 103 82 38 12 2 0 -1 -1 -1 0 4 17 50 95 
95 50 17 4 0 -1 -1 -1 -1 0 1 9 30 70 103 81 38 12 2 0 -1 -1 -1 -1 -1 -1 -1 0 2 10 31 68 101 91 53 22 7 1 0 -1 -1 -1 -1 -1 -1 -1 -1 -1 -1 0 3 16 48 92 97 54 20 4 0 -1 -1 -1 -1 -1 -1 -1 -1 -1 -1 -1 -1 -1 -1 -1 0 3 14 41 83 103 73 33 10 2 0 -1 -1 -1 -1 -1 -1 0 2 12 38 82 103 70 30 9 1 -1 -1 -1 -1 0 4 17 51 95 
95 50 17 4 0 -1 -1 -1 -1 -1 0 6 23 60 100 89 45 15 3 0 -1 -1 -1 -1 -1 -1 -1 0 5 19 49 89 102 70 33 11 2 0 -1 -1 -1 -1 -1 -1 -1 -1 -1 -1 -1 0 3 14 44 88 100 61 23 6 0 -1 -1 -1 -1 -1 -1 -1 -1 -1 -1 -1 -1 -1 -1 -1 0 6 22 56 96 96 56 22 6 0 -1 -1 -1 -1 -1 -1 -1 0 4 17 48 91 98 58 22 6 0 -1 -1 -1 -1 0 4 18 52 96 
95 50 17 3 0 -1 -1 -1 -1 -1 0 4 18 52 95 95 52 18 4 0 -1 -1 -1 -1 -1 -1 0 2 11 33 70 102 89 49 19 5 0 -1 -1 -1 -1 -1 -1 -1 -1 -1 -1 -1 -1 0 2 12 37 80 103 70 30 8 1 -1 -1 -1 -1 -1 -1 -1 -1 -1 -1 -1 -1 -1 -1 0 2 10 33 73 103 83 41 14 3 0 -1 -1 -1 -1 -1 -1 -1 0 6 22 58 98 91 48 17 4 0 -1 -1 -1 -1 0 5 20 55 98 
96 49 17 3 0 -1 -1 -1 -1 -1 0 3 15 45 89 99 60 23 6 0 -1 -1 -1 -1 -1 0 1 7 22 53 91 101 68 31 10 2 0 -1 -1 -1 -1 -1 -1 -1 -1 -1 -1 -1 -1 -1 1 8 30 70 103 80 37 12 2 0 -1 -1 -1 -1 -1 -1 -1 -1 -1 -1 -1 -1 -1 0 4 18 48 89 101 66 28 8 1 0 -1 -1 -1 -1 -1 -1 -1 1 9 30 70 103 82 38 12 2 0 -1 -1 -1 -1 0 7 24 62 104 
98 48 16 3 0 -1 -1 -1 -1 -1 0 2 12 37 81 103 70 30 8 1 -1 -1 -1 -1 -1 0 4 15 39 77 103 86 47 18 5 0 -1 -1 -1 -1 -1 -1 -1 -1 -1 -1 -1 -1 -1 -1 0 6 23 61 100 88 44 14 3 0 -1 -1 -1 -1 -1 -1 -1 -1 -1 -1 -1 -1 0 1 8 28 66 101 89 48 18 4 0 -1 -1 -1 -1 -1 -1 -1 0 2 12 38 82 103 70 30 9 1 -1 -1 -1 -1 0 2 11 34 76 115 
99 48 16 3 0 -1 -1 -1 -1 -1 -1 1 8 30 70 103 81 37 12 2 0 -1 -1 -1 0 1 9 28 63 97 97 63 28 9 1 0 -1 -1 -1 -1 -1 -1 -1 -1 -1 -1 -1 -1 -1 -1 0 4 20 54 97 92 48 16 3 0 -1 -1 -1 -1 -1 -1 -1 -1 -1 -1 -1 -1 0 3 14 41 83 103 73 33 10 2 0 -1 -1 -1 -1 -1 -1 -1 0 4 17 48 91 98 58 22 6 0 -1 -1 -1 0 1 6 21 52 97 127 
100 48 16 3 0 -1 -1 -1 -1 -1 -1 0 6 23 60 99 89 45 15 3 0 -1 -1 -1 0 5 18 47 86 103 77 39 15 4 0 -1 -1 -1 -1 -1 -1 -1 -1 -1 -1 -1 -1 -1 -1 -1 0 4 18 51 95 95 51 18 4 0 -1 -1 -1 -1 -1 -1 -1 -1 -1 -1 -1 -1 0 6 22 56 96 96 56 22 6 0 -1 -1 -1 -1 -1 -1 -1 -1 0 6 22 58 98 91 48 17 4 0 -1 -1 -1 0 4 15 38 77 119 135 
100 48 16 3 0 -1 -1 -1 -1 -1 -1 0 4 18 52 95 95 52 18 4 0 -1 -1 0 2 10 31 68 101 91 53 22 7 1 0 -1 -1 -1 -1 -1 -1 -1 -1 -1 -1 -1 -1 -1 -1 -1 0 3 16 48 92 97 54 20 5 0 -1 -1 -1 -1 -1 -1 -1 -1 -1 -1 -1 0 2 10 33 73 103 83 41 14 3 0 -1 -1 -1 -1 -1 -1 -1 -1 1 9 30 70 103 82 38 12 2 0 -1 -1 0 2 10 29 63 103 130 134 
98 49 17 3 0 -1 -1 -1 -1 -1 -1 0 3 15 45 89 99 60 23 6 0 -1 -1 0 5 19 49 89 102 70 33 11 2 0 -1 -1 -1 -1 -1 -1 -1 -1 -1 -1 -1 -1 -1 -1 -1 -1 0 3 14 44 88 100 61 24 6 0 0 -1 -1 -1 -1 -1 -1 -1 -1 -1 -1 0 4 18 48 89 101 66 28 8 1 0 -1 -1 -1 -1 -1 -1 -1 0 2 12 38 82 103 70 30 9 1 0 -1 0 1 6 21 50 89 114 121 124 
97 50 17 3 0 -1 -1 -1 -1 -1 -1 0 2 12 37 81 103 70 30 8 1 0 0 2 11 33 70 102 89 49 19 5 0 -1 -1 -1 -1 -1 -1 -1 -1 -1 -1 -1 -1 -1 -1 -1 -1 -1 0 2 12 37 81 103 71 31 10 2 0 0 0 -1 -1 -1 -1 -1 -1 -1 0 1 8 28 66 101 89 48 18 4 0 -1 -1 -1 -1 -1 -1 -1 -1 0 4 17 48 91 98 58 22 6 0 -1 -1 0 4 15 39 76 105 105 101 113 
96 50 17 4 0 -1 -1 -1 -1 -1 -1 -1 1 8 30 70 103 81 37 12 2 0 1 7 22 53 91 101 68 31 10 2 0 -1 -1 -1 -1 -1 -1 -1 -1 -1 -1 -1 -1 -1 -1 -1 -1 -1 0 1 9 31 72 105 84 42 17 7 4 2 1 0 0 0 0 0 0 0 0 3 14 41 83 103 73 33 10 2 0 -1 -1 -1 -1 -1 -1 -1 -1 0 6 22 58 98 91 48 17 4 0 -1 0 2 10 29 64 98 102 82 81 105 
95 50 17 4 0 -1 -1 -1 -1 -1 -1 -1 0 6 23 60 99 89 45 15 3 1 4 15 39 77 103 86 47 18 5 0 -1 -1 -1 -1 -1 -1 -1 -1 -1 -1 -1 -1 -1 -1 -1 -1 -1 -1 0 2 9 29 68 108 100 61 33 21 16 12 8 6 4 4 3 3 2 1 2 7 23 56 96 96 56 22 6 0 -1 -1 -1 -1 -1 -1 -1 -1 -1 1 9 30 70 103 82 38 12 2 0 0 1 7 21 51 88 103 82 59 67 100 
95 50 17 4 0 -1 -1 -1 -1 -1 -1 -1 0 4 18 52 95 95 52 19 5 3 10 28 63 97 97 63 28 9 1 0 -1 -1 -1 -1 -1 -1 -1 -1 -1 -1 -1 -1 -1 -1 -1 -1 -1 0 1 5 15 36 75 118 122 91 65 52 45 37 30 23 20 18 16 14 12 9 10 17 37 75 104 83 41 14 3 0 -1 -1 -1 -1 -1 -1 -1 -1 0 2 12 38 82 103 70 30 9 1 0 0 4 15 39 76 103 90 56 41 59 97 
95 50 17 4 0 -1 -1 -1 -1 -1 -1 -1 0 3 15 45 89 100 60 24 8 7 19 47 86 103 77 39 15 4 0 -1 -1 -1 -1 -1 -1 -1 -1 -1 -1 -1 -1 -1 -1 -1 -1 0 0 2 7 16 32 59 96 131 137 120 104 95 89 81 70 61 54 51 48 44 37 31 29 37 62 97 103 67 28 8 1 0 -1 -1 -1 -1 -1 -1 -1 -1 0 4 17 48 91 98 58 22 6 0 0 2 10 30 64 98 98 65 35 30 54 96 
95 50 17 4 0 -1 -1 -1 -1 -1 -1 -1 0 2 12 37 81 103 70 31 12 13 32 69 101 91 53 22 7 1 0 -1 -1 -1 -1 -1 -1 -1 -1 -1 -1 -1 -1 -1 -1 -1 0 1 4 10 21 40 65 92 114 120 114 104 99 98 100 103 103 100 97 95 92 88 81 72 68 75 98 117 96 51 19 5 0 -1 -1 -1 -1 -1 -1 -1 -1 -1 0 6 22 58 98 91 48 17 4 0 1 7 21 51 88 103 77 41 21 23 52 95 
95 50 17 4 0 -1 -1 -1 -1 -1 -1 -1 -1 1 8 30 70 103 81 40 19 23 50 89 102 70 33 11 2 0 -1 -1 -1 -1 -1 -1 -1 -1 -1 -1 -1 -1 -1 -1 -1 0 2 6 15 30 51 76 98 105 94 77 62 55 53 55 61 70 80 88 92 95 97 100 103 105 107 116 132 129 88 41 14 3 0 -1 -1 -1 -1 -1 -1 -1 -1 0 1 9 30 70 103 82 39 12 3 1 4 15 39 76 102 88 51 23 12 20 51 95 
95 50 17 4 0 -1 -1 -1 -1 -1 -1 -1 -1 0 6 23 60 100 90 50 29 38 71 102 89 49 19 5 0 -1 -1 -1 -1 -1 -1 -1 -1 -1 -1 -1 -1 -1 -1 0 0 4 10 21 39 64 88 103 98 77 53 35 24 20 19 20 23 30 37 44 48 51 54 61 71 83 95 111 130 129 89 43 16 4 0 0 -1 -1 -1 -1 -1 -1 -1 0 2 13 39 82 103 70 30 9 2 3 10 30 64 98 98 64 30 12 8 19 51 95 
95 50 17 4 0 -1 -1 -1 -1 -1 -1 -1 -1 0 4 18 52 95 97 61 43 59 92 101 68 31 10 2 0 -1 -1 -1 -1 -1 -1 -1 -1 -1 -1 -1 -1 -1 0 1 5 14 29 50 76 98 102 88 64 40 22 12 7 5 4 5 6 8 12 14 16 18 20 23 30 39 50 68 95 116 99 58 26 10 3 1 0 0 0 0 0 0 0 1 5 18 49 92 99 59 23 7 3 7 21 51 88 102 76 39 15 5 5 18 50 95 
95 50 17 4 0 -1 -1 -1 -1 -1 -1 -1 -1 0 3 15 45 89 104 77 65 85 104 86 47 18 5 0 -1 -1 -1 -1 -1 -1 -1 -1 -1 -1 -1 -1 0 0 2 7 18 36 62 88 102 98 76 51 30 15 7 2 0 0 0 0 0 1 2 3 3 4 4 6 9 13 20 32 58 93 108 83 48 24 13 7 5 4 4 4 4 4 4 6 11 27 62 101 93 50 18 6 6 16 39 76 102 88 51 21 7 2 4 17 50 95 
95 50 17 4 0 -1 -1 -1 -1 -1 -1 -1 -1 0 2 12 37 81 110 99 94 106 98 62 28 9 1 0 -1 -1 -1 -1 -1 -1 -1 -1 -1 -1 -1 0 1 4 11 23 43 71 96 103 89 64 39 21 10 4 1 0 -1 -1 -1 -1 -1 -1 0 0 0 0 0 0 1 3 6 14 32 66 102 109 84 55 35 25 20 18 17 17 17 17 18 20 27 46 82 111 89 45 17 8 12 30 64 98 98 64 30 10 2 0 4 17 50 95 
95 50 17 4 0 -1 -1 -1 -1 -1 -1 -1 -1 -1 1 8 29 70 112 122 119 109 77 39 15 4 0 -1 -1 -1 -1 -1 -1 -1 -1 -1 -1 0 0 2 7 15 30 52 79 100 100 79 52 30 15 7 2 0 0 -1 -1 -1 -1 -1 -1 -1 -1 -1 -1 -1 -1 -1 0 0 1 5 17 43 85 122 122 99 77 62 55 52 51 50 50 50 51 54 62 81 112 124 91 48 23 16 26 52 89 103 76 39 15 4 0 0 4 17 50 95 
95 50 17 4 0 -1 -1 -1 -1 -1 -1 -1 -1 -1 0 6 22 59 109 135 126 93 51 21 6 1 0 -1 -1 -1 -1 -1 -1 -1 -1 -1 0 1 4 10 21 39 64 89 103 96 71 43 23 11 4 1 0 -1 -1 -1 -1 -1 -1 -1 -1 -1 -1 -1 -1 -1 -1 -1 -1 -1 0 2 9 30 70 119 139 126 112 102 98 96 95 95 95 95 95 97 103 116 134 136 106 68 43 36 50 81 104 89 51 21 7 1 0 0 4 17 50 95 
95 50 17 4 0 -1 -1 -1 -1 -1 -1 -1 -1 -1 0 4 18 52 105 136 115 69 31 11 2 0 -1 -1 -1 -1 -1 -1 -1 -1 0 0 2 6 15 29 51 76 98 103 88 62 36 18 8 2 0 0 -1 -1 -1 -1 -1 -1 -1 -1 -1 -1 -1 -1 -1 -1 -1 -1 -1 -1 0 1 8 26 66 113 124 105 94 92 93 94 94 95 95 95 95 95 98 103 113 121 117 99 81 74 87 108 102 66 30 10 2 0 -1 0 4 17 50 95 
95 50 17 4 0 -1 -1 -1 -1 -1 -1 -1 -1 -1 0 4 17 49 101 127 94 48 18 5 0 -1 -1 -1 -1 -1 -1 -1 0 0 1 4 10 20 38 63 89 103 99 77 51 29 14 6 1 0 -1 -1 -1 -1 -1 -1 -1 -1 -1 -1 -1 -1 -1 -1 -1 -1 -1 -1 -1 -1 0 1 9 30 72 109 98 67 51 48 48 50 50 50 50 50 50 50 51 54 62 76 93 105 111 115 125 124 89 46 18 5 0 -1 -1 0 4 17 50 95 
95 50 17 4 0 -1 -1 -1 -1 -1 -1 -1 -1 -1 0 3 17 49 99 114 74 32 10 2 0 -1 -1 -1 -1 -1 0 0 1 3 7 15 28 49 76 101 108 94 69 43 24 12 5 1 0 0 -1 -1 -1 -1 -1 -1 -1 -1 -1 -1 -1 -1 -1 -1 -1 -1 -1 -1 -1 -1 0 2 12 37 81 105 77 40 22 17 17 17 17 17 17 17 17 17 18 19 24 33 49 70 94 118 137 126 82 38 13 3 0 -1 -1 0 4 17 50 95 
95 50 17 4 0 -1 -1 -1 -1 -1 -1 -1 -1 -1 0 4 18 51 97 104 60 23 6 0 -1 -1 -1 -1 0 0 1 4 9 15 24 40 63 91 116 120 100 72 47 29 17 10 5 3 1 0 0 0 0 -1 -1 -1 -1 -1 -1 -1 -1 -1 -1 -1 -1 -1 -1 -1 -1 -1 0 3 15 44 88 101 62 26 10 5 4 4 4 4 4 4 4 4 4 4 6 11 19 32 53 81 113 122 89 46 18 5 0 -1 -1 0 4 17 50 95 
95 50 17 4 0 -1 -1 -1 -1 -1 -1 -1 -1 -1 0 4 19 54 98 96 52 18 4 0 0 0 0 0 2 5 10 18 28 42 59 80 105 128 137 125 100 76 58 44 32 23 17 13 9 6 4 3 2 1 0 0 0 -1 -1 -1 -1 -1 -1 -1 -1 -1 -1 -1 -1 -1 0 3 17 49 93 97 54 20 5 1 0 0 0 0 0 0 0 0 0 0 0 2 5 11 23 43 76 106 102 66 30 10 2 0 -1 0 4 17 50 95 
95 50 17 4 0 -1 -1 -1 -1 -1 -1 -1 -1 -1 0 6 23 60 100 89 45 15 3 0 0 1 3 6 11 19 31 47 66 84 98 109 115 119 122 121 112 102 93 82 70 58 48 39 30 23 18 15 12 8 6 4 2 1 0 0 0 0 -1 -1 -1 -1 -1 -1 -1 -1 0 4 19 54 96 93 49 17 4 0 -1 -1 -1 -1 -1 -1 -1 -1 -1 -1 -1 0 0 2 8 20 44 80 104 89 51 21 7 1 0 0 4 17 50 95 
95 50 17 4 0 -1 -1 -1 -1 -1 -1 -1 -1 -1 1 8 30 70 103 81 38 13 4 3 4 8 14 22 33 49 69 88 101 103 97 86 75 70 74 83 90 96 100 103 103 98 91 82 70 60 52 45 37 29 22 17 12 9 6 4 3 2 1 0 0 0 0 -1 -1 0 0 6 23 60 100 88 44 15 3 0 -1 -1 -1 -1 -1 -1 -1 -1 -1 -1 -1 -1 -1 0 2 8 23 52 89 103 76 39 15 4 0 0 4 17 50 95 
95 50 17 4 0 -1 -1 -1 -1 -1 -1 -1 -1 0 2 12 37 81 103 71 32 12 8 11 18 28 41 56 73 90 102 102 90 73 56 42 33 28 31 37 45 52 60 70 82 91 98 103 103 100 95 89 81 69 58 48 39 30 23 18 15 12 8 6 4 2 1 0 0 0 2 9 30 70 103 81 37 12 2 0 -1 -1 -1 -1 -1 -1 -1 -1 -1 -1 -1 -1 -1 -1 0 2 11 30 64 98 98 64 30 11 3 1 4 17 50 95 
95 50 17 4 0 -1 -1 -1 -1 -1 -1 -1 -1 0 3 15 45 89 101 64 30 18 21 32 47 66 83 96 103 101 88 69 49 33 22 15 10 8 9 12 15 18 23 30 39 48 58 69 81 89 95 100 103 103 98 91 82 70 60 52 45 37 29 22 17 12 9 6 4 4 6 15 39 82 103 70 30 8 1 -1 -1 -1 -1 -1 -1 -1 -1 -1 -1 -1 -1 -1 -1 -1 -1 0 4 15 39 76 102 89 52 23 8 3 5 18 50 95 
95 50 17 4 0 -1 -1 -1 -1 -1 -1 -1 -1 0 4 19 52 96 102 65 40 38 50 69 88 101 103 96 83 66 47 31 19 11 6 3 1 1 1 2 3 4 6 9 12 17 22 29 37 45 52 60 70 82 91 98 103 103 100 95 89 81 69 58 48 39 30 23 19 16 17 25 51 92 101 60 23 6 0 -1 -1 -1 -1 -1 -1 -1 -1 -1 -1 -1 -1 -1 -1 -1 -1 0 1 7 21 50 88 103 79 43 18 7 6 18 50 95 
95 50 17 4 0 -1 -1 -1 -1 -1 -1 -1 -1 0 6 24 61 106 110 81 67 75 90 102 102 90 73 56 41 28 18 10 5 2 0 0 0 -1 0 0 0 0 0 1 2 4 6 8 12 15 18 23 30 39 48 58 69 81 89 95 100 103 103 98 91 82 70 60 52 46 43 47 70 104 99 54 19 4 0 -1 -1 -1 -1 -1 -1 -1 -1 -1 -1 -1 -1 -1 -1 -1 -1 -1 0 2 10 29 62 96 100 71 37 16 10 19 51 95 
95 50 17 4 0 -1 -1 -1 -1 -1 -1 -1 0 2 11 33 75 120 126 109 102 105 102 89 69 50 33 22 14 8 4 1 0 0 -1 -1 -1 -1 -1 -1 -1 -1 -1 -1 0 0 0 1 2 3 4 6 9 12 17 22 29 37 45 52 60 70 82 91 98 103 103 100 95 90 86 86 102 121 100 51 17 4 0 -1 -1 -1 -1 -1 -1 -1 -1 -1 -1 -1 -1 -1 -1 -1 -1 -1 -1 0 4 14 36 71 100 96 62 31 16 22 52 95 
95 50 17 4 0 -1 -1 -1 -1 -1 -1 -1 0 5 19 48 95 133 135 119 105 89 69 49 31 19 11 6 3 1 0 0 -1 -1 -1 -1 -1 -1 -1 -1 -1 -1 -1 -1 -1 -1 -1 -1 0 0 0 0 1 2 4 6 8 12 15 18 23 30 39 48 58 69 81 89 95 100 106 115 129 136 102 49 16 3 0 -1 -1 -1 -1 -1 -1 -1 -1 -1 -1 -1 -1 -1 -1 -1 -1 -1 -1 -1 0 5 18 43 79 103 88 53 28 27 54 96 
95 50 17 4 0 -1 -1 -1 -1 -1 -1 0 2 11 32 70 111 124 108 86 65 47 31 19 10 5 2 0 0 0 -1 -1 -1 -1 -1 -1 -1 -1 -1 -1 -1 -1 -1 -1 -1 -1 -1 -1 -1 -1 -1 -1 -1 0 0 0 1 2 3 4 6 9 12 17 22 29 37 45 52 61 74 94 119 133 101 49 16 3 0 -1 -1 -1 -1 -1 -1 -1 -1 -1 -1 -1 -1 -1 -1 -1 -1 -1 -1 -1 0 1 7 23 52 88 103 80 49 38 58 97 
95 50 17 4 0 -1 -1 -1 -1 -1 0 1 7 22 52 92 110 91 63 42 28 17 10 5 2 0 0 -1 -1 -1 -1 -1 -1 -1 -1 -1 -1 -1 -1 -1 -1 -1 -1 -1 -1 -1 -1 -1 -1 -1 -1 -1 -1 -1 -1 -1 -1 0 0 0 0 1 2 4 6 8 12 15 19 24 35 54 87 117 98 49 17 3 0 -1 -1 -1 -1 -1 -1 -1 -1 -1 -1 -1 -1 -1 -1 -1 -1 -1 -1 -1 -1 0 2 10 29 62 96 101 76 56 66 100 
96 50 17 4 0 -1 -1 -1 -1 -1 0 4 15 39 77 104 91 57 30 16 9 4 1 0 0 -1 -1 -1 -1 -1 -1 -1 -1 -1 -1 -1 -1 -1 -1 -1 -1 -1 -1 -1 -1 -1 -1 -1 -1 -1 -1 -1 -1 -1 -1 -1 -1 -1 -1 -1 -1 0 0 0 0 1 2 3 4 7 14 31 64 104 97 50 17 4 0 -1 -1 -1 -1 -1 -1 -1 -1 -1 -1 -1 -1 -1 -1 -1 -1 -1 -1 -1 -1 -1 0 4 14 36 71 101 100 81 81 105 
97 50 17 3 0 -1 -1 -1 -1 0 2 11 30 64 98 98 65 31 13 5 1 0 0 -1 -1 -1 -1 -1 -1 -1 -1 -1 -1 -1 -1 -1 -1 -1 -1 -1 -1 -1 -1 -1 -1 -1 -1 -1 -1 -1 -1 -1 -1 -1 -1 -1 -1 -1 -1 -1 -1 -1 -1 -1 -1 -1 0 0 0 2 7 21 54 98 97 52 18 4 0 -1 -1 -1 -1 -1 -1 -1 -1 -1 -1 -1 -1 -1 -1 -1 -1 -1 -1 -1 -1 -1 -1 0 5 18 43 79 106 104 101 113 
98 49 17 3 0 -1 -1 -1 0 1 8 23 52 89 103 77 40 16 5 1 0 0 -1 -1 -1 -1 -1 -1 -1 -1 -1 -1 -1 -1 -1 -1 -1 -1 -1 -1 -1 -1 -1 -1 -1 -1 -1 -1 -1 -1 -1 -1 -1 -1 -1 -1 -1 -1 -1 -1 -1 -1 -1 -1 -1 -1 -1 -1 0 0 5 19 51 96 99 56 22 6 0 0 -1 -1 -1 -1 -1 -1 -1 -1 -1 -1 -1 -1 -1 -1 -1 -1 -1 -1 -1 -1 -1 0 1 7 23 51 90 114 121 124 
100 48 16 3 0 -1 -1 0 1 6 19 43 79 106 93 56 25 10 3 1 0 0 0 0 0 0 0 0 0 -1 -1 -1 -1 -1 -1 -1 -1 -1 -1 -1 -1 -1 -1 -1 -1 -1 -1 -1 -1 -1 -1 -1 -1 -1 -1 -1 -1 -1 -1 -1 -1 -1 -1 -1 -1 -1 -1 -1 0 1 6 21 53 99 108 67 30 11 3 0 0 -1 -1 -1 -1 -1 -1 -1 -1 -1 -1 -1 -1 -1 -1 -1 -1 -1 -1 -1 -1 -1 0 2 10 29 63 103 130 134 
100 48 16 3 0 -1 0 1 6 17 39 74 107 110 80 46 24 13 7 5 4 4 4 4 4 3 3 3 2 1 0 0 0 0 0 0 0 0 0 0 -1 -1 -1 -1 -1 -1 -1 -1 -1 -1 -1 -1 -1 -1 -1 -1 -1 -1 -1 -1 -1 -1 -1 -1 -1 -1 -1 0 1 5 13 30 64 108 123 90 50 25 12 5 1 0 0 -1 -1 -1 -1 -1 -1 -1 -1 -1 -1 -1 -1 -1 -1 -1 -1 -1 -1 -1 -1 0 4 15 38 77 119 135 
99 48 16 3 0 0 1 6 17 39 72 109 129 115 85 60 43 32 24 20 18 17 17 17 17 17 16 14 12 8 6 5 4 4 4 4 3 3 3 2 1 0 0 0 0 0 0 0 0 0 0 0 -1 -1 -1 -1 -1 -1 -1 -1 -1 -1 -1 -1 -1 0 0 2 7 15 30 54 88 124 138 118 84 54 33 18 9 4 1 0 -1 -1 -1 -1 -1 -1 -1 -1 -1 -1 -1 -1 -1 -1 -1 -1 -1 -1 -1 0 1 6 21 52 97 127 
98 48 16 4 0 1 6 18 39 72 107 133 137 124 108 95 83 71 61 55 52 51 50 50 50 49 47 43 37 30 23 20 18 17 17 17 17 16 14 12 8 6 5 4 4 4 4 4 3 3 3 2 1 0 0 0 0 0 0 0 0 0 0 0 0 2 5 11 22 39 64 90 110 121 123 120 110 92 70 47 28 15 7 2 0 0 -1 -1 -1 -1 -1 -1 -1 -1 -1 -1 -1 -1 -1 -1 -1 -1 -1 -1 0 2 11 34 76 115 
96 49 17 5 3 7 19 40 72 102 116 114 107 102 100 101 103 103 100 97 96 95 95 95 94 94 92 88 80 70 61 55 52 51 50 50 49 47 43 37 30 23 20 18 17 17 17 17 17 16 14 12 8 6 5 4 4 4 4 3 3 3 2 3 5 10 19 33 52 77 98 104 95 81 75 80 93 103 102 86 63 39 22 11 5 1 0 0 -1 -1 -1 -1 -1 -1 -1 -1 -1 -1 -1 -1 -1 -1 -1 -1 -1 0 7 24 62 104 
95 51 19 8 9 20 41 72 100 104 86 66 56 53 55 61 70 80 88 92 94 94 95 95 95 96 97 100 103 103 100 97 96 95 95 94 94 92 88 80 70 61 55 52 51 50 50 50 49 47 43 37 30 23 20 18 17 17 17 17 16 15 13 13 18 29 47 70 91 103 98 77 54 38 32 37 51 71 91 103 97 77 52 32 18 9 4 1 0 -1 -1 -1 -1 -1 -1 -1 -1 -1 -1 -1 -1 -1 -1 -1 -1 0 5 20 55 98 
96 53 23 16 24 45 74 100 100 75 47 29 21 19 20 23 30 37 43 47 49 50 50 50 51 52 55 61 70 80 88 92 94 94 95 95 96 97 100 103 103 100 97 96 95 95 95 94 94 92 88 80 70 61 55 52 51 50 50 49 48 44 40 39 47 66 87 102 101 86 63 39 23 13 10 12 20 33 53 77 97 103 91 69 47 28 15 7 2 0 0 -1 -1 -1 -1 -1 -1 -1 -1 -1 -1 -1 -1 -1 -1 0 4 18 52 96 
97 58 34 35 53 79 101 98 72 41 20 10 5 4 5 6 8 12 14 16 17 17 17 17 17 18 20 23 30 37 43 47 49 50 50 51 52 55 61 70 80 88 92 94 94 95 95 95 96 97 100 103 103 100 97 96 95 95 94 94 93 90 87 86 94 105 106 92 70 47 28 15 7 3 2 2 5 11 22 39 63 86 101 101 86 63 39 22 11 5 1 0 0 -1 -1 -1 -1 -1 -1 -1 -1 -1 -1 -1 -1 0 4 17 51 95 
102 70 55 68 90 103 95 69 39 18 7 2 0 0 0 0 1 2 3 3 3 4 4 4 4 4 5 6 8 12 14 16 17 17 17 17 18 20 23 30 37 43 47 49 50 50 50 51 52 55 61 70 80 88 92 94 94 95 95 96 99 106 118 129 130 113 83 55 33 19 9 4 1 0 0 0 0 2 7 15 28 47 69 91 103 97 77 52 32 18 9 4 1 0 -1 -1 -1 -1 -1 -1 -1 -1 -1 -1 -1 0 4 17 50 96 
111 91 88 100 104 88 62 36 17 6 1 0 -1 -1 -1 -1 -1 0 0 0 0 0 0 0 0 0 0 0 1 2 3 3 3 4 4 4 4 5 6 8 12 14 16 17 17 17 17 17 18 20 23 30 37 43 47 49 50 50 51 53 59 73 102 132 129 90 50 25 12 5 1 0 0 -1 -1 -1 -1 0 1 4 9 18 32 52 77 97 103 91 69 47 28 15 7 2 0 0 -1 -1 -1 -1 -1 -1 -1 -1 -1 0 3 17 50 97 
124 118 113 103 79 52 29 14 5 1 0 -1 -1 -1 -1 -1 -1 -1 -1 -1 -1 -1 -1 -1 -1 -1 -1 -1 -1 0 0 0 0 0 0 0 0 0 0 1 2 3 3 3 4 4 4 4 4 5 6 8 12 14 16 17 17 17 18 19 25 40 74 115 113 68 30 11 3 0 0 -1 -1 -1 -1 -1 -1 -1 0 0 1 5 11 22 39 63 86 101 101 86 63 39 22 11 5 2 0 0 -1 -1 -1 -1 -1 -1 -1 0 3 17 49 99 
135 130 106 74 44 23 10 4 0 0 -1 -1 -1 -1 -1 -1 -1 -1 -1 -1 -1 -1 -1 -1 -1 -1 -1 -1 -1 -1 -1 -1 -1 -1 -1 -1 -1 -1 -1 -1 0 0 0 0 0 0 0 0 0 0 0 1 2 3 3 3 4 4 4 5 10 25 58 102 101 56 21 6 0 0 -1 -1 -1 -1 -1 -1 -1 -1 -1 -1 0 0 2 7 15 28 47 69 91 103 97 77 53 33 19 10 5 1 0 0 -1 -1 -1 -1 -1 0 3 16 48 100 
134 115 75 41 19 8 2 0 -1 -1 -1 -1 -1 -1 -1 -1 -1 -1 -1 -1 -1 -1 -1 -1 -1 -1 -1 -1 -1 -1 -1 -1 -1 -1 -1 -1 -1 -1 -1 -1 -1 -1 -1 -1 -1 -1 -1 -1 -1 -1 -1 -1 0 0 0 0 0 0 0 1 5 19 53 97 97 52 18 4 0 -1 -1 -1 -1 -1 -1 -1 -1 -1 -1 -1 -1 -1 0 1 4 9 18 32 52 77 97 103 91 70 49 31 18 9 4 1 0 -1 -1 -1 -1 0 3 16 48 101 
121 87 46 20 7 2 0 -1 -1 -1 -1 -1 -1 -1 -1 -1 -1 -1 -1 -1 -1 -1 -1 -1 -1 -1 -1 -1 -1 -1 -1 -1 -1 -1 -1 -1 -1 -1 -1 -1 -1 -1 -1 -1 -1 -1 -1 -1 -1 -1 -1 -1 -1 -1 -1 -1 -1 -1 -1 0 4 18 51 95 95 51 18 4 0 -1 -1 -1 -1 -1 -1 -1 -1 -1 -1 -1 -1 -1 -1 0 0 1 5 11 22 39 63 86 101 102 89 68 47 28 15 6 2 0 0 0 0 0 4 17 49 99 
107 66 29 10 2 0 -1 -1 -1 -1 -1 -1 -1 -1 -1 -1 -1 -1 -1 -1 -1 -1 -1 -1 -1 -1 -1 -1 -1 -1 -1 -1 -1 -1 -1 -1 -1 -1 -1 -1 -1 -1 -1 -1 -1 -1 -1 -1 -1 -1 -1 -1 -1 -1 -1 -1 -1 -1 -1 0 4 17 50 95 95 50 17 4 0 -1 -1 -1 -1 -1 -1 -1 -1 -1 -1 -1 -1 -1 -1 -1 -1 0 0 2 7 15 28 47 69 89 102 101 86 62 39 21 11 6 4 2 1 1 5 18 50 97 
100 56 21 6 0 -1 -1 -1 -1 -1 -1 -1 -1 -1 -1 -1 -1 -1 -1 -1 -1 -1 -1 -1 -1 -1 -1 -1 -1 -1 -1 -1 -1 -1 -1 -1 -1 -1 -1 -1 -1 -1 -1 -1 -1 -1 -1 -1 -1 -1 -1 -1 -1 -1 -1 -1 -1 -1 -1 0 4 17 50 95 95 50 17 4 0 -1 -1 -1 -1 -1 -1 -1 -1 -1 -1 -1 -1 -1 -1 -1 -1 -1 -1 0 1 4 9 18 32 50 72 93 105 99 77 52 34 23 17 12 9 7 9 21 53 97 
97 52 19 4 0 -1 -1 -1 -1 -1 -1 -1 -1 -1 -1 -1 -1 -1 -1 -1 -1 -1 -1 -1 -1 -1 -1 -1 -1 -1 -1 -1 -1 -1 -1 -1 -1 -1 -1 -1 -1 -1 -1 -1 -1 -1 -1 -1 -1 -1 -1 -1 -1 -1 -1 -1 -1 -1 -1 0 4 17 50 95 95 50 17 4 0 -1 -1 -1 -1 -1 -1 -1 -1 -1 -1 -1 -1 -1 -1 -1 -1 -1 -1 -1 0 0 2 6 12 22 38 61 89 113 115 98 75 59 48 38 30 24 23 32 61 100 
98 51 19 5 1 0 0 0 0 -1 -1 -1 -1 -1 -1 -1 -1 -1 -1 -1 -1 -1 -1 -1 -1 -1 -1 -1 -1 -1 -1 -1 -1 -1 -1 -1 -1 -1 -1 -1 -1 -1 -1 -1 -1 -1 -1 -1 -1 -1 -1 -1 -1 -1 -1 -1 -1 -1 -1 0 4 17 50 95 95 50 17 4 0 -1 -1 -1 -1 -1 -1 -1 -1 -1 -1 -1 -1 -1 -1 -1 -1 -1 -1 -1 0 0 1 4 8 16 28 47 75 110 134 133 119 104 93 82 70 60 54 58 79 110 
103 54 22 9 5 4 3 3 2 1 0 0 0 0 0 0 0 -1 -1 -1 -1 -1 -1 -1 -1 -1 -1 -1 -1 -1 -1 -1 -1 -1 -1 -1 -1 -1 -1 -1 -1 -1 -1 -1 -1 -1 -1 -1 -1 -1 -1 -1 -1 -1 -1 -1 -1 -1 -1 0 4 17 50 95 95 50 17 4 0 -1 -1 -1 -1 -1 -1 -1 -1 -1 -1 -1 -1 -1 -1 -1 -1 -1 0 0 1 3 6 11 19 30 46 65 89 115 128 123 111 104 103 104 103 100 96 98 111 126 
113 66 35 23 19 17 16 14 12 8 6 5 4 4 3 3 2 1 0 0 0 0 0 0 0 0 -1 -1 -1 -1 -1 -1 -1 -1 -1 -1 -1 -1 -1 -1 -1 -1 -1 -1 -1 -1 -1 -1 -1 -1 -1 -1 -1 -1 -1 -1 -1 -1 -1 0 4 17 50 95 95 50 17 4 0 -1 -1 -1 -1 -1 -1 -1 -1 -1 -1 -1 -1 -1 -1 0 0 0 2 4 8 14 22 33 48 66 84 98 107 105 93 76 63 58 62 71 82 92 102 114 131 141 
129 93 66 55 51 50 47 43 37 30 23 20 18 17 16 14 12 8 6 5 4 4 3 3 3 2 1 0 0 0 0 0 0 0 -1 -1 -1 -1 -1 -1 -1 -1 -1 -1 -1 -1 -1 -1 -1 -1 -1 -1 -1 -1 -1 -1 -1 -1 -1 0 4 17 50 95 95 50 17 4 0 -1 -1 -1 -1 -1 -1 -1 -1 -1 -1 -1 -1 0 0 1 3 6 10 18 28 41 56 73 89 101 103 96 83 66 47 33 24 22 24 30 39 49 62 82 112 139 
142 125 107 99 95 94 92 88 80 70 61 54 51 50 48 43 37 30 23 20 18 17 17 16 14 12 8 6 5 4 4 3 3 2 1 0 0 0 0 0 0 0 0 -1 -1 -1 -1 -1 -1 -1 -1 -1 -1 -1 -1 -1 -1 -1 -1 0 4 17 50 95 95 50 17 4 0 -1 -1 -1 -1 -1 -1 -1 -1 -1 -1 0 0 1 4 8 14 22 33 48 66 83 96 103 101 89 72 56 41 28 18 10 7 5 6 9 13 18 27 45 80 124 
138 125 108 99 96 96 97 100 103 103 100 97 95 94 92 88 80 70 61 55 52 50 49 47 43 37 30 23 20 18 17 16 14 12 8 6 5 4 4 3 3 3 2 1 0 0 0 0 0 0 0 -1 -1 -1 -1 -1 -1 -1 -1 0 4 17 50 95 95 50 17 4 0 -1 -1 -1 -1 -1 -1 -1 0 0 0 2 5 10 18 28 41 56 73 89 101 103 96 83 66 48 33 22 14 8 4 2 0 0 0 1 2 5 11 26 60 111 
120 93 67 56 52 52 55 61 70 80 88 92 94 95 97 100 103 103 100 97 96 95 94 92 88 80 70 61 54 51 50 48 43 37 30 23 20 18 17 17 16 14 12 8 6 5 4 4 3 3 2 1 0 0 0 0 0 0 0 0 4 18 51 95 95 50 17 4 0 -1 -1 -1 -1 -1 0 0 1 3 6 11 19 31 47 66 83 96 103 101 89 73 56 41 28 18 10 6 3 1 0 0 -1 -1 -1 0 0 1 5 19 53 102 
105 67 36 23 19 18 20 23 30 37 43 48 50 51 54 61 70 80 88 92 94 95 96 97 100 103 103 100 97 95 94 92 88 80 70 61 55 52 50 49 47 43 37 30 23 20 18 17 16 14 12 8 6 5 4 4 3 3 3 3 7 20 52 96 95 51 18 4 0 -1 -1 0 0 0 2 4 8 14 22 33 49 69 88 101 103 96 83 66 48 33 22 14 8 4 2 0 0 0 -1 -1 -1 -1 -1 -1 -1 0 4 18 51 97 
98 56 23 9 5 4 5 6 8 12 14 16 17 18 20 23 30 37 43 47 49 50 52 55 61 70 80 88 92 94 95 97 100 103 103 100 97 96 95 94 92 88 80 70 61 54 51 50 48 43 37 30 23 20 18 17 17 16 15 13 14 25 57 99 97 52 18 4 0 0 0 1 3 6 10 18 28 41 56 73 90 102 102 90 73 56 41 28 18 10 6 3 1 0 0 -1 -1 -1 -1 -1 -1 -1 -1 -1 -1 0 4 17 50 95 
96 52 19 5 1 0 0 0 1 2 3 3 4 4 5 6 8 12 14 16 17 17 18 20 23 30 37 43 48 50 51 54 61 70 80 88 92 94 95 96 97 100 103 103 100 97 95 94 92 88 80 70 61 55 52 50 49 47 44 39 35 42 70 107 102 56 22 7 2 2 4 8 14 22 33 48 66 83 96 103 101 88 69 49 33 22 14 8 4 2 0 0 0 -1 -1 -1 -1 -1 -1 -1 -1 -1 -1 -1 -1 0 4 17 50 95 
95 51 18 4 0 -1 -1 -1 -1 0 0 0 0 0 0 0 1 2 3 3 3 4 4 5 6 8 12 14 16 17 18 20 23 30 37 43 47 49 50 52 55 61 70 80 88 92 94 95 97 100 103 103 100 97 96 95 94 92 88 82 75 77 97 124 114 68 31 14 9 12 18 28 41 56 73 89 101 103 96 83 66 47 31 19 11 6 3 1 0 0 -1 -1 -1 -1 -1 -1 -1 -1 -1 -1 -1 -1 -1 -1 -1 0 4 17 50 95 
95 50 17 4 0 -1 -1 -1 -1 -1 -1 -1 -1 -1 -1 -1 -1 0 0 0 0 0 0 0 0 1 2 3 3 4 4 5 6 8 12 14 16 17 17 18 20 23 30 37 43 48 50 51 54 61 70 80 88 92 94 95 96 97 100 103 105 110 122 138 129 91 54 33 29 35 49 66 83 96 103 101 89 73 56 41 28 18 10 5 2 0 0 0 -1 -1 -1 -1 -1 -1 -1 -1 -1 -1 -1 -1 -1 -1 -1 -1 -1 0 4 17 50 95 
95 50 17 4 0 -1 -1 -1 -1 -1 -1 -1 -1 -1 -1 -1 -1 -1 -1 -1 -1 -1 -1 -1 -1 -1 0 0 0 0 0 0 0 1 2 3 3 3 4 4 5 6 8 12 14 16 17 18 20 23 30 37 43 47 49 50 52 55 61 70 81 91 102 115 124 115 91 73 68 77 91 101 103 96 83 66 48 33 22 14 8 4 1 0 0 -1 -1 -1 -1 -1 -1 -1 -1 -1 -1 -1 -1 -1 -1 -1 -1 -1 -1 -1 -1 0 4 17 50 95 
95 50 17 4 0 -1 -1 -1 -1 -1 -1 -1 -1 -1 -1 -1 -1 -1 -1 -1 -1 -1 -1 -1 -1 -1 -1 -1 -1 -1 -1 -1 -1 0 0 0 0 0 0 0 0 0 1 2 3 3 4 4 5 6 9 12 14 16 17 17 18 20 23 30 37 45 53 67 90 115 126 121 113 109 102 90 73 56 41 28 18 11 6 3 1 0 0 -1 -1 -1 -1 -1 -1 -1 -1 -1 -1 -1 -1 -1 -1 -1 -1 -1 -1 -1 -1 -1 -1 0 4 17 50 95 
95 51 18 4 0 -1 -1 -1 -1 -1 -1 -1 -1 -1 -1 -1 -1 -1 -1 -1 -1 -1 -1 -1 -1 -1 -1 -1 -1 -1 -1 -1 -1 -1 -1 -1 -1 -1 -1 -1 -1 0 0 0 0 0 0 0 0 0 1 2 3 3 4 4 4 5 6 9 12 16 20 30 53 91 130 137 116 91 69 49 33 22 14 9 5 2 0 0 0 0 -1 -1 -1 -1 -1 -1 -1 -1 -1 -1 -1 -1 -1 -1 -1 -1 -1 -1 -1 -1 -1 -1 -1 0 4 18 51 95 
96 52 19 5 1 0 0 0 0 0 0 0 0 0 0 0 0 0 0 0 0 0 0 0 0 0 0 0 0 0 0 0 0 0 0 0 0 0 0 0 0 0 0 0 0 0 0 0 0 0 0 0 0 1 1 1 1 1 1 2 3 5 7 14 32 69 115 123 88 55 33 20 12 7 4 2 1 0 0 0 0 0 0 0 0 0 0 0 0 0 0 0 0 0 0 0 0 0 0 0 0 0 0 0 0 1 5 19 52 96 
99 55 23 9 5 4 4 4 4 4 4 4 4 4 4 4 4 4 4 4 4 4 4 4 4 4 4 4 4 4 3 3 3 3 3 3 3 4 4 4 4 4 4 4 4 4 4 4 3 3 3 4 4 4 4 4 4 4 4 4 5 5 7 12 27 62 106 110 70 36 19 11 8 6 5 4 4 4 4 4 4 4 4 4 4 4 4 4 4 3 3 3 3 3 3 3 4 4 4 4 4 3 3 3 4 5 9 23 55 99 
107 67 36 23 19 18 17 17 17 17 17 17 17 17 17 17 17 17 17 17 17 17 17 17 17 17 17 17 17 17 17 17 16 16 16 17 17 17 17 17 17 17 17 17 17 17 17 17 17 16 16 17 17 17 17 17 17 17 17 17 18 18 19 24 38 69 110 111 72 40 26 21 19 18 18 17 17 17 17 17 17 17 17 17 17 17 17 17 17 17 17 16 16 16 17 17 17 17 17 17 17 17 17 16 16 18 22 36 67 107 
126 93 67 55 52 51 50 50 50 50 50 50 50 50 50 50 50 50 50 50 50 50 50 50 50 50 50 50 50 50 50 49 48 48 48 49 50 50 50 50 50 50 50 50 50 50 50 50 49 48 48 49 50 50 50 50 50 50 50 50 50 51 52 56 67 94 126 126 94 68 56 52 51 50 50 50 50 50 50 50 50 50 50 50 50 50 50 50 50 50 49 49 48 48 49 50 50 50 50 50 50 50 49 49 49 50 54 66 93 126 
150 126 107 99 96 95 95 95 95 95 95 95 95 95 95 95 95 95 95 95 95 95 95 95 95 95 95 95 95 95 96 98 100 101 99 97 95 95 95 95 95 95 95 95 95 95 95 96 99 101 101 99 96 95 95 95 95 95 95 95 95 95 96 98 105 119 135 135 119 105 98 96 95 95 95 95 95 95 95 95 95 95 95 95 95 95 95 95 95 96 98 100 101 99 97 96 95 95 95 95 95 96 97 100 101 101 101 108 127 150 
