P2
110 110
255
154 116 98 94 93 93 93 93 93 93 93 93 93 93 93 93 93 93 93 93 93 93 93 93 93 93 93 93 93 94 98 111 136 151 129 105 96 93 93 93 93 93 93 93 93 93 94 97 112 144 143 112 97 94 93 93 93 93 93 93 93 93 93 93 94 96 100 100 96 94 93 93 93 93 93 93 93 93 93 93 93 93 93 93 93 93 93 93 93 96 106 131 152 130 105 96 93 93 93 93 93 95 104 129 152 131 106 101 116 154 
116 61 37 31 30 30 30 30 30 30 30 30 30 30 30 30 30 30 30 30 30 30 30 30 30 30 30 30 31 34 46 80 125 116 69 41 32 30 30 30 30 30 30 30 30 30 31 38 63 117 115 61 37 31 30 30 30 30 30 30 30 30 30 30 30 30 30 30 30 30 30 30 30 30 30 30 30 30 30 30 30 30 30 30 30 30 30 30 31 38 62 112 124 75 42 32 30 30 30 30 31 35 55 105 126 77 44 40 62 116 
98 37 10 4 3 3 3 3 3 3 3 3 3 3 3 3 3 3 3 3 3 3 3 3 3 3 3 3 5 12 39 91 112 65 24 8 4 3 3 3 3 3 3 3 3 3 4 13 45 109 100 37 10 4 3 3 3 3 3 3 3 3 3 3 3 3 2 2 3 3 3 3 3 3 3 3 3 3 3 3 3 3 3 3 3 3 3 3 6 19 59 112 89 34 10 4 3 3 3 3 4 10 36 96 102 42 13 12 37 98 
94 31 4 -2 -3 -3 -3 -3 -3 -3 -3 -3 -3 -3 -3 -3 -3 -3 -3 -3 -3 -3 -3 -3 -3 -3 -3 -2 2 20 64 110 85 32 6 -1 -3 -3 -3 -3 -3 -3 -3 -3 -3 -2 0 14 58 125 99 31 4 -2 -3 -3 -3 -3 -3 -3 -3 -3 -3 -3 -3 -3 -3 -3 -3 -3 -3 -3 -3 -3 -3 -3 -3 -3 -3 -3 -3 -3 -3 -3 -3 -3 -3 -2 2 24 79 110 56 14 0 -2 -3 -3 -3 -3 -1 6 38 100 91 30 5 5 31 94 
93 30 3 -3 -4 -4 -4 -4 -4 -4 -4 -4 -4 -4 -4 -4 -4 -4 -4 -4 -4 -4 -4 -4 -4 -4 -3 0 12 48 102 102 48 11 0 -3 -4 -4 -4 -4 -4 -4 -4 -4 -4 -2 3 29 91 148 101 30 3 -3 -4 -4 -4 -4 -4 -4 -4 -4 -4 -4 -4 -4 -4 -4 -4 -4 -4 -4 -4 -4 -4 -4 -4 -4 -4 -4 -4 -4 -4 -4 -4 -4 -4 -2 5 35 96 96 35 5 -2 -4 -4 -4 -4 -3 -1 11 53 109 77 22 2 4 30 93 
93 30 3 -3 -4 -4 -4 -4 -4 -4 -4 -4 -4 -4 -4 -4 -4 -4 -4 -4 -4 -4 -4 -4 -4 -4 -2 5 31 85 109 63 19 1 -3 -4 -4 -4 -4 -4 -4 -4 -4 -4 -4 0 12 54 120 149 100 30 3 -3 -4 -4 -4 -4 -4 -4 -4 -4 -4 -4 -4 -4 -4 -4 -4 -4 -4 -4 -4 -4 -4 -4 -4 -4 -4 -4 -4 -4 -4 -4 -4 -4 -4 0 13 56 109 78 23 1 -3 -4 -4 -4 -4 -3 1 21 77 109 53 11 0 3 30 93 
93 30 3 -3 -4 -4 -4 -4 -4 -4 -4 -4 -4 -4 -4 -4 -4 -4 -4 -4 -4 -4 -4 -4 -4 -3 1 19 63 109 85 31 5 -2 -4 -4 -4 -4 -4 -4 -4 -4 -4 -4 -3 3 29 87 129 134 99 32 3 -3 -4 -4 -4 -4 -4 -4 -4 -4 -4 -4 -4 -4 -4 -4 -4 -4 -4 -4 -4 -4 -4 -4 -4 -4 -4 -4 -4 -4 -4 -4 -4 -4 -3 3 29 85 107 51 11 -1 -4 -4 -4 -4 -4 -3 2 29 90 99 37 5 -1 3 30 93 
93 30 3 -3 -4 -4 -4 -4 -4 -4 -4 -4 -4 -4 -4 -4 -4 -4 -4 -4 -4 -4 -4 -4 -3 0 11 48 101 101 48 11 0 -3 -4 -4 -4 -4 -4 -4 -4 -4 -4 -3 0 13 54 110 111 115 102 37 5 -2 -4 -4 -4 -4 -4 -4 -4 -4 -4 -4 -4 -4 -4 -4 -4 -4 -4 -4 -4 -4 -4 -4 -4 -4 -4 -4 -4 -4 -4 -4 -4 -4 -1 11 51 107 85 29 3 -3 -4 -4 -4 -4 -4 -2 5 37 99 90 29 3 -2 3 30 93 
93 30 3 -3 -4 -4 -4 -4 -4 -4 -4 -4 -4 -4 -4 -4 -4 -4 -4 -4 -4 -4 -4 -4 -2 5 31 85 109 63 19 1 -3 -4 -4 -4 -4 -4 -4 -4 -4 -4 -4 -2 5 32 86 111 78 91 111 53 11 -1 -4 -4 -4 -4 -4 -4 -4 -4 -4 -4 -4 -4 -4 -4 -4 -4 -4 -4 -4 -4 -4 -4 -4 -4 -4 -4 -4 -4 -4 -4 -4 -3 1 23 78 109 55 13 0 -4 -4 -4 -4 -4 -4 -1 11 53 109 77 21 1 -2 3 30 93 
93 30 3 -3 -4 -4 -4 -4 -4 -4 -4 -4 -4 -4 -4 -4 -4 -4 -4 -4 -4 -4 -4 -3 1 19 63 109 85 31 5 -2 -4 -4 -4 -4 -4 -4 -4 -4 -4 -4 -3 1 19 63 109 87 45 61 110 76 21 0 -3 -4 -4 -4 -4 -4 -4 -4 -4 -4 -4 -4 -4 -4 -4 -4 -4 -4 -4 -4 -4 -4 -4 -4 -4 -4 -4 -4 -4 -4 -4 -2 5 35 96 96 35 5 -2 -4 -4 -4 -4 -4 -3 1 21 77 109 53 11 -1 -2 3 30 93 
93 30 3 -3 -4 -4 -4 -4 -4 -4 -4 -4 -4 -4 -4 -4 -4 -4 -4 -4 -4 -4 -3 0 11 48 101 101 48 11 0 -3 -4 -4 -4 -4 -4 -4 -4 -4 -4 -4 -1 11 48 101 102 50 21 41 100 88 27 2 -3 -4 -4 -4 -4 -4 -4 -4 -4 -4 -4 -4 -4 -4 -4 -4 -4 -4 -4 -4 -4 -4 -4 -4 -4 -4 -4 -4 -4 -4 -4 0 13 55 109 78 23 1 -3 -4 -4 -4 -4 -4 -3 2 29 90 99 37 5 -2 -3 3 30 93 
93 30 3 -3 -4 -4 -4 -4 -4 -4 -4 -4 -4 -4 -4 -4 -4 -4 -4 -4 -4 -4 -2 5 31 85 109 63 19 1 -3 -4 -4 -4 -4 -4 -4 -4 -4 -4 -4 -3 3 29 84 109 63 20 9 33 95 92 29 2 -3 -4 -4 -4 -4 -4 -4 -4 -4 -4 -4 -4 -4 -4 -4 -4 -4 -4 -4 -4 -4 -4 -4 -4 -4 -4 -4 -4 -4 -4 -3 3 29 85 107 51 11 -1 -4 -4 -4 -4 -4 -4 -2 5 37 99 90 29 2 -3 -3 3 30 93 
96 32 3 -3 -4 -4 -4 -4 -4 -4 -4 -4 -4 -4 -4 -4 -4 -4 -4 -4 -4 -3 1 19 63 109 85 31 5 -2 -4 -4 -4 -4 -4 -4 -4 -4 -4 -4 -4 0 12 54 107 86 32 6 5 31 93 93 30 3 -3 -4 -4 -4 -4 -4 -4 -4 -4 -4 -4 -4 -4 -4 -4 -4 -4 -4 -4 -4 -4 -4 -4 -4 -4 -4 -4 -4 -4 -4 -1 11 51 107 85 29 3 -3 -4 -4 -4 -4 -4 -4 -1 11 53 109 77 21 1 -3 -3 3 30 93 
105 41 7 -1 -4 -4 -4 -4 -4 -4 -4 -4 -4 -4 -4 -4 -4 -4 -4 -4 -3 0 11 48 101 101 48 11 0 -3 -4 -4 -4 -4 -4 -4 -4 -4 -4 -4 -3 3 29 85 108 54 13 0 3 30 92 95 32 3 -3 -4 -4 -4 -4 -4 -4 -4 -4 -4 -4 -4 -4 -4 -4 -4 -4 -4 -4 -4 -4 -4 -4 -4 -4 -4 -4 -4 -4 -3 1 23 78 109 55 13 0 -4 -4 -4 -4 -4 -4 -3 1 21 77 109 53 11 -1 -3 -3 3 30 95 
129 69 22 3 -2 -4 -4 -4 -4 -4 -4 -4 -4 -4 -4 -4 -4 -4 -4 -4 -2 5 31 85 109 63 19 1 -3 -4 -4 -4 -4 -4 -4 -4 -4 -4 -4 -3 0 13 54 108 85 29 4 -1 2 27 88 99 37 5 -2 -4 -4 -4 -4 -4 -4 -4 -4 -4 -4 -4 -4 -4 -4 -4 -4 -4 -4 -4 -4 -4 -4 -4 -4 -4 -4 -4 -4 -2 5 35 96 96 35 5 -2 -4 -4 -4 -4 -4 -4 -3 2 29 90 99 37 5 -2 -4 -3 2 30 99 
151 115 59 20 2 -3 -4 -4 -4 -4 -4 -4 -4 -4 -4 -4 -4 -4 -4 -3 1 19 63 109 85 31 5 -2 -4 -4 -4 -4 -4 -4 -4 -4 -4 -4 -4 -2 5 32 86 107 54 12 0 -3 1 21 76 109 53 11 -1 -4 -4 -4 -4 -4 -4 -4 -4 -4 -4 -4 -4 -4 -4 -4 -4 -4 -4 -4 -4 -4 -4 -4 -4 -4 -4 -4 -4 0 13 55 109 78 23 1 -3 -4 -4 -4 -4 -4 -4 -2 5 37 99 90 29 2 -3 -4 -3 2 30 101 
137 127 106 57 17 1 -3 -4 -4 -4 -4 -4 -4 -4 -4 -4 -4 -4 -3 0 11 48 101 101 48 11 0 -3 -4 -4 -4 -4 -4 -4 -4 -4 -4 -4 -3 1 19 63 109 84 29 3 -3 -3 -1 11 53 109 76 21 0 -3 -4 -4 -4 -4 -4 -4 -4 -4 -4 -4 -4 -4 -4 -4 -4 -4 -4 -4 -4 -4 -4 -4 -4 -4 -4 -4 -3 3 29 85 107 51 11 -1 -4 -4 -4 -4 -4 -4 -4 -1 11 53 109 77 21 1 -3 -4 -3 2 30 98 
113 90 110 101 48 11 0 -3 -4 -4 -4 -4 -4 -4 -4 -4 -4 -4 -2 5 31 85 109 63 19 1 -3 -4 -4 -4 -4 -4 -4 -4 -4 -4 -4 -4 -1 11 48 101 101 48 11 -1 -4 -4 -2 5 37 99 88 27 2 -3 -4 -4 -4 -4 -4 -4 -4 -4 -4 -4 -4 -4 -4 -4 -4 -4 -4 -4 -4 -4 -4 -4 -4 -4 -4 -4 -1 11 51 107 85 29 3 -3 -4 -4 -4 -4 -4 -4 -3 1 21 77 109 53 11 -1 -4 -4 -3 3 30 95 
99 56 71 110 85 31 5 -2 -4 -4 -4 -4 -4 -4 -4 -4 -4 -3 1 19 63 109 85 31 5 -2 -4 -4 -4 -4 -4 -4 -4 -4 -4 -4 -4 -3 3 29 84 109 63 19 1 -3 -4 -4 -3 3 32 95 92 29 2 -3 -4 -4 -4 -4 -4 -4 -4 -4 -4 -4 -4 -4 -4 -4 -4 -4 -4 -4 -4 -4 -4 -4 -4 -4 -4 -3 1 23 78 109 55 13 0 -4 -4 -4 -4 -4 -4 -4 -3 2 29 90 99 37 5 -2 -4 -4 -3 3 30 93 
95 40 39 86 109 64 22 3 -2 -4 -4 -4 -4 -4 -4 -4 -3 0 11 48 101 101 48 11 0 -3 -4 -4 -4 -4 -4 -4 -4 -4 -4 -4 -4 0 12 54 107 86 32 5 -2 -4 -4 -4 -3 3 30 93 93 30 3 -3 -4 -4 -4 -4 -4 -4 -4 -4 -4 -4 -4 -4 -4 -4 -4 -4 -4 -4 -4 -4 -4 -4 -4 -4 -4 -2 5 35 96 96 35 5 -2 -4 -4 -4 -4 -4 -4 -4 -2 5 37 99 90 29 2 -3 -4 -4 -3 3 30 93 
94 34 19 49 101 104 59 20 3 -2 -4 -4 -4 -4 -4 -4 -2 5 31 85 109 63 19 1 -3 -4 -4 -4 -4 -4 -4 -4 -4 -4 -4 -4 -3 3 29 85 108 54 13 0 -3 -4 -4 -4 -3 2 29 92 95 32 3 -3 -4 -4 -4 -4 -4 -4 -4 -4 -4 -4 -4 -4 -4 -4 -4 -4 -4 -4 -4 -4 -4 -4 -4 -4 -4 0 13 55 109 78 23 1 -3 -4 -4 -4 -4 -4 -4 -4 -1 11 53 109 77 21 1 -3 -4 -4 -3 3 30 93 
93 31 8 19 57 103 103 58 20 3 -2 -4 -4 -4 -4 -3 1 19 63 109 85 31 5 -2 -4 -4 -4 -4 -4 -4 -4 -4 -4 -4 -4 -3 0 13 54 108 85 29 3 -3 -4 -4 -4 -4 -3 2 27 88 99 37 5 -2 -4 -4 -4 -4 -4 -4 -4 -4 -4 -4 -4 -4 -4 -4 -4 -4 -4 -4 -4 -4 -4 -4 -4 -4 -3 3 29 85 107 51 11 -1 -4 -4 -4 -4 -4 -4 -4 -3 1 21 77 109 53 11 -1 -4 -4 -4 -3 3 30 93 
93 30 4 3 20 58 103 103 58 20 3 -2 -4 -4 -3 0 11 48 101 101 48 11 0 -3 -4 -4 -4 -4 -4 -4 -4 -4 -4 -4 -4 -2 5 32 86 107 54 12 0 -4 -4 -4 -4 -4 -3 0 21 76 109 53 11 -1 -4 -4 -4 -4 -4 -4 -4 -4 -4 -4 -4 -4 -4 -4 -4 -4 -4 -4 -4 -4 -4 -4 -4 -4 -1 11 51 107 85 29 3 -3 -4 -4 -4 -4 -4 -4 -4 -3 2 29 90 99 37 5 -2 -4 -4 -4 -3 3 30 93 
93 30 3 -1 3 20 58 103 103 58 20 3 -2 -3 -2 5 31 85 109 63 19 1 -3 -4 -4 -4 -4 -4 -4 -4 -4 -4 -4 -4 -3 1 19 63 109 84 29 3 -3 -4 -4 -4 -4 -4 -4 -1 11 53 109 76 21 0 -3 -4 -4 -4 -4 -4 -4 -4 -4 -4 -4 -4 -4 -4 -4 -4 -4 -4 -4 -4 -4 -4 -4 -3 1 23 78 109 55 13 0 -4 -4 -4 -4 -4 -4 -4 -4 -2 5 37 99 90 29 2 -3 -4 -4 -4 -3 3 30 93 
93 30 3 -2 -2 3 20 58 103 103 58 20 3 -1 1 19 63 109 85 31 5 -2 -4 -4 -4 -4 -4 -4 -4 -4 -4 -4 -4 -4 -1 11 48 101 101 48 11 -1 -4 -4 -4 -4 -4 -4 -4 -2 5 37 99 88 27 2 -3 -4 -4 -4 -4 -4 -4 -4 -4 -4 -4 -4 -4 -4 -4 -4 -4 -4 -4 -4 -4 -4 -4 -2 5 35 96 96 35 5 -2 -4 -4 -4 -4 -4 -4 -4 -4 -1 11 53 109 77 21 1 -3 -4 -4 -4 -3 3 30 93 
93 30 3 -3 -4 -2 3 20 58 103 103 58 21 6 13 49 101 101 48 11 0 -3 -4 -4 -4 -4 -4 -4 -4 -4 -4 -4 -4 -3 3 29 84 109 63 19 1 -3 -4 -4 -4 -4 -4 -4 -4 -3 3 32 94 92 30 2 -3 -4 -4 -4 -4 -4 -4 -4 -4 -4 -4 -4 -4 -4 -4 -4 -4 -4 -4 -4 -4 -4 -4 0 13 55 109 78 23 1 -3 -4 -4 -4 -4 -4 -4 -4 -3 1 21 77 109 53 11 -1 -4 -4 -4 -4 -3 3 30 93 
93 30 3 -3 -4 -4 -2 3 20 58 103 104 60 30 38 86 109 63 19 1 -3 -4 -4 -4 -4 -4 -4 -4 -4 -4 -4 -4 -4 0 12 54 107 86 32 5 -2 -4 -4 -4 -4 -4 -4 -4 -4 -3 2 30 92 94 32 3 -3 -4 -4 -4 -4 -4 -4 -4 -4 -4 -4 -4 -4 -4 -4 -4 -4 -4 -4 -4 -4 -4 -3 3 29 85 107 51 11 -1 -4 -4 -4 -4 -4 -4 -4 -4 -3 2 29 90 99 37 5 -2 -4 -4 -4 -4 -3 3 30 93 
93 30 3 -3 -4 -4 -4 -2 3 20 58 104 107 79 83 113 85 31 5 -2 -4 -4 -4 -4 -4 -4 -4 -4 -4 -4 -4 -4 -3 3 29 85 108 54 13 0 -3 -4 -4 -4 -4 -4 -4 -4 -4 -3 2 27 88 99 37 5 -2 -4 -4 -4 -4 -4 -4 -4 -4 -4 -4 -4 -4 -4 -4 -4 -4 -4 -4 -4 -4 -4 -1 11 51 107 85 29 3 -3 -4 -4 -4 -4 -4 -4 -4 -4 -2 5 37 99 90 29 2 -3 -4 -4 -4 -4 -3 3 30 93 
93 30 3 -3 -4 -4 -4 -4 -2 3 20 59 110 135 135 107 49 11 0 -3 -4 -4 -4 -4 -4 -4 -4 -4 -4 -4 -4 -3 0 13 54 108 85 29 3 -3 -4 -4 -4 -4 -4 -4 -4 -4 -4 -3 0 21 76 109 53 11 -1 -4 -4 -4 -4 -4 -4 -4 -4 -4 -4 -4 -4 -4 -4 -4 -4 -4 -4 -4 -4 -3 1 23 78 109 55 13 0 -4 -4 -4 -4 -4 -4 -4 -4 -4 -1 11 53 109 77 21 1 -3 -4 -4 -4 -4 -3 3 30 93 
93 30 3 -3 -4 -4 -4 -4 -4 -2 3 22 68 133 133 67 20 1 -3 -4 -4 -4 -4 -4 -4 -4 -4 -4 -4 -4 -4 -2 5 32 86 107 54 12 0 -4 -4 -4 -4 -4 -4 -4 -4 -4 -4 -4 -1 11 53 109 76 21 0 -3 -4 -4 -4 -4 -4 -4 -4 -4 -4 -4 -4 -4 -4 -4 -4 -4 -4 -4 -4 -2 5 35 96 96 35 5 -2 -4 -4 -4 -4 -4 -4 -4 -4 -3 1 21 77 109 53 11 -1 -4 -4 -4 -4 -4 -3 3 30 93 
93 30 3 -3 -4 -4 -4 -4 -4 -4 -1 7 40 106 109 42 8 -2 -4 -4 -4 -4 -4 -4 -4 -4 -4 -4 -4 -4 -3 1 19 63 109 84 29 3 -3 -4 -4 -4 -4 -4 -4 -4 -4 -4 -4 -4 -2 5 37 99 88 27 2 -3 -4 -4 -4 -4 -4 -4 -4 -4 -4 -4 -4 -4 -4 -4 -4 -4 -4 -4 -4 0 13 55 109 78 23 1 -3 -4 -4 -4 -4 -4 -4 -4 -4 -3 2 29 90 99 37 5 -2 -4 -4 -4 -4 -4 -3 3 30 93 
93 30 3 -3 -4 -4 -4 -4 -4 -4 -3 3 29 91 103 40 6 -2 -4 -4 -4 -4 -4 -4 -4 -4 -4 -4 -4 -4 -1 11 48 101 101 48 11 -1 -4 -4 -4 -4 -4 -4 -4 -4 -4 -4 -4 -4 -3 3 32 95 92 29 2 -3 -4 -4 -4 -4 -4 -4 -4 -4 -4 -4 -4 -4 -4 -4 -4 -4 -4 -4 -3 3 29 85 107 51 11 -1 -4 -4 -4 -4 -4 -4 -4 -4 -4 -2 5 37 99 90 29 2 -3 -4 -4 -4 -4 -4 -3 3 30 93 
93 30 3 -3 -4 -4 -4 -4 -4 -4 -3 1 22 77 110 54 11 -1 -4 -4 -4 -4 -4 -4 -4 -4 -4 -4 -4 -3 3 29 84 109 63 19 1 -3 -4 -4 -4 -4 -4 -4 -4 -4 -4 -4 -4 -4 -3 3 30 93 93 30 3 -3 -4 -4 -4 -4 -4 -4 -4 -4 -4 -4 -4 -4 -4 -4 -4 -4 -4 -4 -1 11 51 107 85 29 3 -3 -4 -4 -4 -4 -4 -4 -4 -4 -4 -1 11 53 109 77 21 1 -3 -4 -4 -4 -4 -4 -3 3 30 93 
93 30 3 -3 -4 -4 -4 -4 -4 -4 -4 -1 11 53 109 76 21 0 -3 -4 -4 -4 -4 -4 -4 -4 -4 -4 -4 0 12 54 107 86 32 5 -2 -4 -4 -4 -4 -4 -4 -4 -4 -4 -4 -4 -4 -4 -3 2 29 92 95 32 3 -3 -4 -4 -4 -4 -4 -4 -4 -4 -4 -4 -4 -4 -4 -4 -4 -4 -4 -3 1 23 78 109 55 13 0 -4 -4 -4 -4 -4 -4 -4 -4 -4 -3 1 21 77 109 53 11 -1 -4 -4 -4 -4 -4 -4 -3 3 30 93 
93 30 3 -3 -4 -4 -4 -4 -4 -4 -4 -2 5 37 99 88 28 2 -3 -4 -4 -4 -4 -4 -4 -4 -4 -4 -3 3 29 85 108 54 13 0 -3 -4 -4 -4 -4 -4 -4 -4 -4 -4 -4 -4 -4 -4 -3 2 27 88 99 37 5 -2 -4 -4 -4 -4 -4 -4 -4 -4 -4 -4 -4 -4 -4 -4 -4 -4 -4 -2 5 35 96 96 35 5 -2 -4 -4 -4 -4 -4 -4 -4 -4 -4 -3 2 29 90 99 37 5 -2 -4 -4 -4 -4 -4 -4 -3 3 30 93 
93 30 3 -3 -4 -4 -4 -4 -4 -4 -4 -3 3 31 94 94 31 3 -3 -4 -4 -4 -4 -4 -4 -4 -4 -3 0 13 54 108 85 29 3 -3 -4 -4 -4 -4 -4 -4 -4 -4 -4 -4 -4 -4 -4 -4 -3 0 21 76 109 53 11 -1 -4 -4 -4 -4 -4 -4 -4 -4 -4 -4 -4 -4 -4 -4 -4 -4 -4 0 13 55 109 78 23 1 -3 -4 -4 -4 -4 -4 -4 -4 -4 -4 -2 5 37 99 90 29 2 -3 -4 -4 -4 -4 -4 -4 -3 3 32 95 
95 30 3 -3 -4 -4 -4 -4 -4 -4 -4 -3 2 28 88 99 37 5 -2 -4 -4 -4 -4 -4 -4 -4 -4 -2 5 32 86 107 54 12 0 -4 -4 -4 -4 -4 -4 -4 -4 -4 -4 -4 -4 -4 -4 -4 -4 -1 11 53 109 76 21 0 -3 -4 -4 -4 -4 -4 -4 -4 -4 -4 -4 -4 -4 -4 -4 -4 -3 3 29 85 107 51 11 -1 -4 -4 -4 -4 -4 -4 -4 -4 -4 -4 -1 11 53 109 77 21 1 -3 -4 -4 -4 -4 -4 -4 -2 5 38 104 
98 30 2 -3 -4 -4 -4 -4 -4 -4 -4 -3 0 21 76 109 53 11 -1 -4 -4 -4 -4 -4 -4 -4 -3 1 19 63 109 84 29 3 -3 -4 -4 -4 -4 -4 -4 -4 -4 -4 -4 -4 -4 -4 -4 -4 -4 -2 5 37 99 88 27 2 -3 -4 -4 -4 -4 -4 -4 -4 -4 -4 -4 -4 -4 -4 -4 -4 -1 11 51 107 85 29 3 -3 -4 -4 -4 -4 -4 -4 -4 -4 -4 -3 1 21 77 109 53 11 -1 -4 -4 -4 -4 -4 -4 -3 0 13 57 125 
101 30 2 -3 -4 -4 -4 -4 -4 -4 -4 -4 -1 11 53 109 76 21 0 -3 -4 -4 -4 -4 -4 -4 -1 11 48 101 101 48 11 -1 -4 -4 -4 -4 -4 -4 -4 -4 -4 -4 -4 -4 -4 -4 -4 -4 -4 -3 3 32 95 92 29 2 -3 -4 -4 -4 -4 -4 -4 -4 -4 -4 -4 -4 -4 -4 -4 -3 1 23 78 109 55 13 0 -4 -4 -4 -4 -4 -4 -4 -4 -4 -4 -3 2 29 90 99 37 5 -2 -4 -4 -4 -4 -4 -4 -2 5 32 92 148 
99 30 2 -3 -4 -4 -4 -4 -4 -4 -4 -4 -2 5 37 99 88 28 2 -3 -4 -4 -4 -4 -4 -3 3 29 84 109 63 19 1 -3 -4 -4 -4 -4 -4 -4 -4 -4 -4 -4 -4 -4 -4 -4 -4 -4 -4 -3 3 30 93 93 30 3 -3 -4 -4 -4 -4 -4 -4 -4 -4 -4 -4 -4 -4 -4 -4 -2 5 35 96 96 35 5 -2 -4 -4 -4 -4 -4 -4 -4 -4 -4 -4 -2 5 37 99 90 29 2 -3 -4 -4 -4 -4 -4 -3 1 19 63 122 149 
97 30 2 -3 -4 -4 -4 -4 -4 -4 -4 -4 -3 3 31 94 94 31 3 -3 -4 -4 -4 -4 -4 0 12 54 107 86 32 5 -2 -4 -4 -4 -4 -4 -4 -4 -4 -4 -4 -4 -4 -4 -4 -4 -4 -4 -4 -3 2 29 92 95 32 3 -3 -4 -4 -4 -4 -4 -4 -4 -4 -4 -4 -4 -4 -4 -4 0 13 55 109 78 23 1 -3 -4 -4 -4 -4 -4 -4 -4 -4 -4 -4 -1 11 53 109 77 21 1 -3 -4 -4 -4 -4 -3 0 11 48 104 126 132 
95 30 3 -3 -4 -4 -4 -4 -4 -4 -4 -4 -3 2 28 88 99 37 5 -2 -4 -4 -4 -4 -3 3 29 85 108 54 13 0 -3 -4 -4 -4 -4 -4 -4 -4 -4 -4 -4 -4 -4 -4 -4 -4 -4 -4 -4 -3 2 27 88 99 37 5 -2 -4 -4 -4 -4 -4 -4 -4 -4 -4 -4 -4 -4 -4 -3 3 29 85 107 51 11 -1 -4 -4 -4 -4 -4 -4 -4 -4 -4 -4 -3 1 21 77 109 53 11 -1 -4 -4 -4 -4 -4 -2 5 31 85 114 94 112 
94 30 3 -3 -4 -4 -4 -4 -4 -4 -4 -4 -3 0 21 76 109 53 11 -1 -4 -4 -4 -3 0 13 54 108 85 29 3 -3 -4 -4 -4 -4 -4 -4 -4 -4 -4 -4 -4 -4 -4 -4 -4 -4 -4 -4 -4 -3 0 21 76 109 53 11 -1 -3 -4 -4 -4 -4 -4 -4 -4 -4 -4 -4 -4 -4 -1 11 51 107 85 29 3 -3 -4 -4 -4 -4 -4 -4 -4 -4 -4 -4 -3 2 29 90 99 37 5 -2 -4 -4 -4 -4 -3 1 19 63 109 91 65 101 
93 30 3 -3 -4 -4 -4 -4 -4 -4 -4 -4 -4 -1 11 53 109 76 21 0 -3 -4 -4 -2 5 32 86 107 54 12 0 -4 -4 -4 -4 -4 -4 -4 -4 -4 -4 -4 -4 -4 -4 -4 -4 -4 -4 -4 -4 -4 -1 11 54 110 77 22 2 -2 -3 -3 -4 -4 -4 -4 -4 -4 -4 -4 -4 -3 1 23 78 109 55 13 0 -4 -4 -4 -4 -4 -4 -4 -4 -4 -4 -4 -2 5 37 99 90 29 2 -3 -4 -4 -4 -3 0 11 48 101 102 55 46 96 
93 30 3 -3 -4 -4 -4 -4 -4 -4 -4 -4 -4 -2 5 37 99 88 28 2 -3 -4 -3 1 19 63 109 84 29 3 -3 -4 -4 -4 -4 -4 -4 -4 -4 -4 -4 -4 -4 -4 -4 -4 -4 -4 -4 -4 -4 -4 -2 7 40 103 93 34 9 4 2 0 -1 -2 -3 -3 -3 -3 -3 -4 -4 -2 5 35 96 96 35 5 -2 -4 -4 -4 -4 -4 -4 -4 -4 -4 -4 -4 -1 11 53 109 77 21 1 -3 -4 -4 -4 -2 5 31 85 109 64 26 36 94 
93 30 3 -3 -4 -4 -4 -4 -4 -4 -4 -4 -4 -3 3 31 94 94 31 3 -3 -3 -1 11 48 101 101 48 11 -1 -4 -4 -4 -4 -4 -4 -4 -4 -4 -4 -4 -4 -4 -4 -4 -4 -4 -4 -4 -4 -4 -3 0 11 44 110 113 61 37 31 27 21 11 5 3 3 2 2 0 -1 -2 0 14 56 109 78 23 1 -3 -4 -4 -4 -4 -4 -4 -4 -4 -4 -4 -3 1 21 77 109 53 11 -1 -4 -4 -4 -3 1 19 63 109 85 32 12 32 93 
93 30 3 -3 -4 -4 -4 -4 -4 -4 -4 -4 -4 -3 2 28 88 99 37 5 -2 -2 3 29 84 109 63 19 1 -3 -4 -4 -4 -4 -4 -4 -4 -4 -4 -4 -4 -4 -4 -4 -4 -4 -4 -4 -4 -3 -2 1 12 34 74 135 144 113 97 93 88 76 53 37 32 30 29 27 21 11 7 11 34 88 108 51 11 -1 -4 -4 -4 -4 -4 -4 -4 -4 -4 -4 -4 -3 2 29 90 99 37 5 -2 -4 -4 -3 0 11 48 101 101 48 13 6 31 93 
93 30 3 -3 -4 -4 -4 -4 -4 -4 -4 -4 -4 -3 0 21 76 109 53 11 0 0 12 54 107 86 32 5 -2 -4 -4 -4 -4 -4 -4 -4 -4 -4 -4 -4 -4 -4 -4 -4 -4 -4 -4 -4 -3 0 5 19 48 86 115 124 111 98 94 95 99 109 109 99 95 93 92 88 76 54 40 44 75 116 88 30 3 -3 -4 -4 -4 -4 -4 -4 -4 -4 -4 -4 -4 -2 5 37 99 90 29 2 -3 -4 -4 -2 5 31 85 109 63 19 2 4 30 93 
93 30 3 -3 -4 -4 -4 -4 -4 -4 -4 -4 -4 -4 -1 11 53 109 76 21 2 4 29 85 108 54 13 0 -3 -4 -4 -4 -4 -4 -4 -4 -4 -4 -4 -4 -4 -4 -4 -4 -4 -4 -3 -2 1 11 31 63 101 109 87 57 38 32 31 32 37 53 76 88 92 93 95 99 109 110 103 109 135 132 65 16 0 -3 -4 -4 -4 -4 -4 -4 -4 -4 -4 -4 -4 -1 11 53 109 77 21 1 -3 -4 -3 1 19 63 109 85 31 5 -1 3 30 93 
93 30 3 -3 -4 -4 -4 -4 -4 -4 -4 -4 -4 -4 -2 5 37 99 89 28 6 14 54 108 85 29 3 -3 -4 -4 -4 -4 -4 -4 -4 -4 -4 -4 -4 -4 -4 -4 -4 -4 -4 -3 0 5 19 48 85 109 101 63 32 13 5 3 3 3 5 11 21 27 29 30 32 37 53 77 91 107 134 132 65 16 0 -3 -4 -4 -4 -4 -4 -4 -4 -4 -4 -4 -3 1 21 77 109 53 11 -1 -4 -3 0 11 48 101 101 48 11 0 -2 3 30 93 
93 30 3 -3 -4 -4 -4 -4 -4 -4 -4 -4 -4 -4 -3 3 31 94 94 33 13 33 86 107 54 12 0 -4 -4 -4 -4 -4 -4 -4 -4 -4 -4 -4 -4 -4 -4 -4 -4 -4 -2 1 11 31 63 101 109 85 48 19 5 0 -2 -3 -3 -3 -2 -1 0 2 2 3 3 5 11 22 30 42 74 116 89 33 6 -1 -3 -4 -4 -4 -4 -4 -4 -4 -4 -4 -3 3 29 90 99 37 5 -2 -4 -2 5 31 85 109 63 19 1 -3 -3 3 30 93 
93 30 3 -3 -4 -4 -4 -4 -4 -4 -4 -4 -4 -4 -3 2 28 89 100 43 29 64 109 84 29 3 -3 -4 -4 -4 -4 -4 -4 -4 -4 -4 -4 -4 -4 -4 -4 -4 -3 -2 2 17 48 85 109 101 63 31 11 1 -2 -3 -4 -4 -4 -4 -4 -4 -3 -3 -3 -3 -3 -2 -1 1 3 10 34 86 110 65 23 6 0 -2 -3 -3 -3 -3 -3 -3 -3 -3 -1 6 38 99 90 29 3 -3 -3 1 19 63 109 85 31 5 -2 -4 -3 3 30 93 
93 30 3 -3 -4 -4 -4 -4 -4 -4 -4 -4 -4 -4 -3 0 21 76 111 68 63 104 102 48 11 -1 -4 -4 -4 -4 -4 -4 -4 -4 -4 -4 -4 -4 -4 -4 -4 -3 0 5 21 57 101 109 85 48 19 5 0 -3 -4 -4 -4 -4 -4 -4 -4 -4 -4 -4 -4 -4 -4 -4 -4 -3 -2 0 12 49 103 109 66 32 13 6 3 3 3 3 3 3 3 3 6 18 59 112 79 23 1 -2 0 11 48 101 101 48 11 0 -3 -4 -3 3 30 93 
93 30 3 -3 -4 -4 -4 -4 -4 -4 -4 -4 -4 -4 -4 -1 11 53 113 105 105 112 63 19 1 -3 -4 -4 -4 -4 -4 -4 -4 -4 -4 -4 -4 -4 -4 -3 -2 1 11 31 64 104 104 64 31 11 1 -2 -3 -4 -4 -4 -4 -4 -4 -4 -4 -4 -4 -4 -4 -4 -4 -4 -4 -4 -4 -3 1 20 66 125 129 91 57 38 32 30 30 30 30 30 30 31 35 53 99 124 66 19 2 0 5 31 85 109 63 19 1 -3 -4 -4 -3 3 30 93 
93 30 3 -3 -4 -4 -4 -4 -4 -4 -4 -4 -4 -4 -4 -2 5 37 105 132 128 88 32 5 -2 -4 -4 -4 -4 -4 -4 -4 -4 -4 -4 -4 -4 -4 -3 0 5 19 48 85 109 101 57 21 5 0 -3 -4 -4 -4 -4 -4 -4 -4 -4 -4 -4 -4 -4 -4 -4 -4 -4 -4 -4 -4 -4 -4 -2 8 42 114 148 128 113 100 95 93 93 93 93 93 93 94 97 111 141 140 81 37 15 9 22 63 109 85 31 5 -2 -4 -4 -4 -3 3 30 93 
93 30 3 -3 -4 -4 -4 -4 -4 -4 -4 -4 -4 -4 -4 -3 3 32 102 149 120 54 13 0 -3 -4 -4 -4 -4 -4 -4 -4 -4 -4 -4 -4 -3 -2 1 11 31 63 101 109 85 48 17 2 -2 -3 -4 -4 -4 -4 -4 -4 -4 -4 -4 -4 -4 -4 -4 -4 -4 -4 -4 -4 -4 -4 -4 -4 -2 6 40 106 114 81 82 89 92 93 93 93 93 93 93 93 94 98 111 124 116 88 57 43 61 105 102 49 11 0 -3 -4 -4 -4 -3 3 30 93 
93 30 3 -3 -4 -4 -4 -4 -4 -4 -4 -4 -4 -4 -4 -3 3 30 101 148 91 29 3 -3 -4 -4 -4 -4 -4 -4 -4 -4 -4 -4 -4 -3 0 5 19 48 85 109 102 63 31 11 1 -2 -4 -4 -4 -4 -4 -4 -4 -4 -4 -4 -4 -4 -4 -4 -4 -4 -4 -4 -4 -4 -4 -4 -4 -4 -1 11 54 111 84 37 27 28 29 30 30 30 30 30 30 30 30 32 38 57 86 108 111 105 118 122 68 20 1 -3 -4 -4 -4 -4 -3 3 30 93 
93 30 3 -3 -4 -4 -4 -4 -4 -4 -4 -4 -4 -4 -4 -3 2 30 98 125 57 13 0 -4 -4 -4 -4 -4 -4 -4 -4 -4 -4 -3 -2 1 11 31 63 103 110 86 49 20 5 0 -3 -4 -4 -4 -4 -4 -4 -4 -4 -4 -4 -4 -4 -4 -4 -4 -4 -4 -4 -4 -4 -4 -4 -4 -4 -3 0 21 76 109 55 14 4 2 2 3 3 3 3 3 3 3 3 3 5 13 29 54 88 121 150 122 51 11 0 -4 -4 -4 -4 -4 -3 3 30 93 
93 30 3 -3 -4 -4 -4 -4 -4 -4 -4 -4 -4 -4 -4 -3 3 30 95 103 38 5 -2 -4 -4 -4 -4 -4 -4 -4 -4 -3 -1 1 6 19 49 89 119 113 72 39 18 7 0 -2 -3 -3 -4 -4 -4 -4 -4 -4 -4 -4 -4 -4 -4 -4 -4 -4 -4 -4 -4 -4 -4 -4 -4 -4 -4 -3 2 27 88 100 38 6 -1 -3 -3 -3 -3 -3 -3 -3 -3 -3 -3 -3 -2 0 3 13 32 66 117 125 68 20 1 -3 -4 -4 -4 -4 -3 3 30 93 
93 30 3 -3 -4 -4 -4 -4 -4 -4 -4 -4 -4 -4 -4 -3 3 32 95 94 31 3 -3 -4 -4 -4 -4 -4 -4 -3 0 3 11 23 38 65 112 147 143 102 60 41 31 22 12 5 2 1 -1 -2 -3 -3 -3 -4 -4 -4 -4 -4 -4 -4 -4 -4 -4 -4 -4 -4 -4 -4 -4 -4 -4 -3 2 30 92 94 32 3 -3 -4 -4 -4 -4 -4 -4 -4 -4 -4 -4 -4 -4 -4 -3 0 5 22 60 107 103 49 11 0 -3 -4 -4 -4 -3 3 30 93 
93 30 3 -3 -4 -4 -4 -4 -4 -4 -4 -4 -4 -4 -4 -2 5 37 100 89 28 2 -3 -4 -4 -4 -3 -2 0 3 12 29 51 78 97 114 121 119 124 120 104 95 89 77 53 37 29 21 11 5 3 2 0 -1 -2 -3 -3 -4 -4 -4 -4 -4 -4 -4 -4 -4 -4 -4 -4 -4 -4 -3 3 32 94 92 30 3 -3 -4 -4 -4 -4 -4 -4 -4 -4 -4 -4 -4 -4 -4 -4 -3 -2 3 22 64 109 85 31 5 -2 -4 -4 -4 -3 3 30 93 
93 30 3 -3 -4 -4 -4 -4 -4 -4 -4 -4 -4 -4 -4 -1 11 53 109 76 21 1 -3 -3 -3 -1 1 5 13 29 54 85 107 109 96 79 56 45 55 77 89 94 99 109 109 99 90 77 53 37 31 28 21 11 5 2 1 -1 -2 -3 -3 -3 -4 -4 -4 -4 -4 -4 -4 -4 -4 -2 5 37 99 88 27 2 -3 -4 -4 -4 -4 -4 -4 -4 -4 -4 -4 -4 -4 -4 -4 -4 -4 -2 5 31 85 109 63 19 1 -3 -4 -4 -3 3 30 93 
93 30 3 -3 -4 -4 -4 -4 -4 -4 -4 -4 -4 -4 -3 0 21 76 109 53 11 0 -2 0 3 11 23 35 56 86 108 108 86 56 35 23 12 8 12 21 28 31 37 53 77 90 99 109 109 99 94 88 76 53 37 29 21 11 5 3 2 0 -1 -2 -3 -3 -4 -4 -4 -4 -4 -1 11 53 109 76 21 0 -3 -4 -4 -4 -4 -4 -4 -4 -4 -4 -4 -4 -4 -4 -4 -4 -4 -3 0 11 48 101 101 48 11 0 -3 -4 -3 3 30 93 
93 30 3 -3 -4 -4 -4 -4 -4 -4 -4 -4 -4 -4 -3 2 28 89 100 38 7 0 4 12 29 51 78 96 109 107 85 54 29 13 5 1 -1 -2 -1 0 2 3 5 11 21 29 37 53 76 88 94 99 109 109 99 90 77 53 37 31 28 21 11 5 2 1 -1 -2 -3 -3 -2 1 21 76 109 53 11 -1 -4 -4 -4 -4 -4 -4 -4 -4 -4 -4 -4 -4 -4 -4 -4 -4 -4 -4 -3 1 19 63 109 85 31 5 -2 -4 -3 3 30 93 
93 30 3 -3 -4 -4 -4 -4 -4 -4 -4 -4 -4 -4 -3 3 31 94 95 35 12 14 29 54 85 107 109 96 78 51 29 12 3 0 -2 -3 -4 -4 -4 -3 -3 -3 -2 -1 1 2 5 11 21 28 31 37 53 77 90 99 109 109 99 94 88 76 53 37 29 21 11 5 3 2 2 5 29 89 100 37 5 -2 -4 -4 -4 -4 -4 -4 -4 -4 -4 -4 -4 -4 -4 -4 -4 -4 -4 -4 -4 -2 5 31 85 109 64 21 2 -2 -3 3 30 93 
93 30 3 -3 -4 -4 -4 -4 -4 -4 -4 -4 -4 -4 -2 5 38 101 97 45 36 55 85 108 108 86 56 35 23 11 3 0 -3 -4 -4 -4 -4 -4 -4 -4 -4 -4 -4 -4 -3 -3 -2 -1 0 2 3 5 11 21 29 37 53 76 88 94 99 109 109 99 90 77 53 37 31 28 22 19 39 97 95 32 3 -3 -4 -4 -4 -4 -4 -4 -4 -4 -4 -4 -4 -4 -4 -4 -4 -4 -4 -4 -4 -3 0 11 48 101 104 57 17 1 -2 3 30 93 
93 30 3 -3 -4 -4 -4 -4 -4 -4 -4 -4 -4 -4 0 13 57 121 110 80 90 108 108 85 54 29 13 5 1 -1 -3 -4 -4 -4 -4 -4 -4 -4 -4 -4 -4 -4 -4 -4 -4 -4 -4 -4 -3 -3 -3 -2 -1 1 2 5 11 21 28 31 37 53 77 90 99 109 109 99 94 89 77 60 68 113 96 30 3 -3 -4 -4 -4 -4 -4 -4 -4 -4 -4 -4 -4 -4 -4 -4 -4 -4 -4 -4 -4 -4 -3 1 17 57 104 101 48 11 0 3 30 93 
93 30 3 -3 -4 -4 -4 -4 -4 -4 -4 -4 -4 -3 3 29 92 148 135 119 108 85 54 29 12 3 0 -2 -3 -4 -4 -4 -4 -4 -4 -4 -4 -4 -4 -4 -4 -4 -4 -4 -4 -4 -4 -4 -4 -4 -4 -4 -4 -3 -3 -2 -1 0 2 3 5 11 21 29 37 53 76 88 94 99 110 114 121 144 100 30 2 -3 -4 -4 -4 -4 -4 -4 -4 -4 -4 -4 -4 -4 -4 -4 -4 -4 -4 -4 -4 -4 -4 -2 2 21 64 109 85 32 6 5 30 93 
93 30 3 -3 -4 -4 -4 -4 -4 -4 -4 -4 -3 0 13 54 118 132 105 80 51 29 12 3 0 -3 -4 -4 -4 -4 -4 -4 -4 -4 -4 -4 -4 -4 -4 -4 -4 -4 -4 -4 -4 -4 -4 -4 -4 -4 -4 -4 -4 -4 -4 -4 -4 -3 -3 -3 -2 -1 1 2 5 11 21 28 31 37 54 82 111 143 100 30 2 -3 -4 -4 -4 -4 -4 -4 -4 -4 -4 -4 -4 -4 -4 -4 -4 -4 -4 -4 -4 -4 -4 -4 -2 5 31 85 109 64 23 10 32 93 
93 30 3 -3 -4 -4 -4 -4 -4 -4 -4 -4 -2 5 32 87 114 73 40 24 11 3 0 -3 -4 -4 -4 -4 -4 -4 -4 -4 -4 -4 -4 -4 -4 -4 -4 -4 -4 -4 -4 -4 -4 -4 -4 -4 -4 -4 -4 -4 -4 -4 -4 -4 -4 -4 -4 -4 -4 -4 -3 -3 -2 -1 0 2 3 5 12 28 59 112 96 30 3 -3 -4 -4 -4 -4 -4 -4 -4 -4 -4 -4 -4 -4 -4 -4 -4 -4 -4 -4 -4 -4 -4 -4 -3 0 11 48 101 104 59 25 36 94 
93 30 3 -3 -4 -4 -4 -4 -4 -4 -4 -3 1 19 63 109 86 33 9 2 -1 -3 -4 -4 -4 -4 -4 -4 -4 -4 -4 -4 -4 -4 -4 -4 -4 -4 -4 -4 -4 -4 -4 -4 -4 -4 -4 -4 -4 -4 -4 -4 -4 -4 -4 -4 -4 -4 -4 -4 -4 -4 -4 -4 -4 -4 -3 -3 -3 -2 0 8 36 97 94 30 3 -3 -4 -4 -4 -4 -4 -4 -4 -4 -4 -4 -4 -4 -4 -4 -4 -4 -4 -4 -4 -4 -4 -4 -4 -3 1 17 57 104 102 55 46 96 
94 30 3 -3 -4 -4 -4 -4 -4 -4 -3 0 11 48 101 101 48 12 0 -3 -4 -4 -4 -4 -4 -4 -4 -4 -4 -4 -4 -4 -4 -4 -4 -4 -4 -4 -4 -4 -4 -4 -4 -4 -4 -4 -4 -4 -4 -4 -4 -4 -4 -4 -4 -4 -4 -4 -4 -4 -4 -4 -4 -4 -4 -4 -4 -4 -4 -4 -2 3 31 94 93 30 3 -3 -4 -4 -4 -4 -4 -4 -4 -4 -4 -4 -4 -4 -4 -4 -4 -4 -4 -4 -4 -4 -4 -4 -4 -4 -2 2 21 64 110 91 65 101 
95 30 3 -3 -4 -4 -4 -4 -4 -4 -2 5 31 85 109 63 19 1 -3 -4 -4 -4 -4 -4 -4 -4 -4 -4 -4 -4 -4 -4 -4 -4 -4 -4 -4 -4 -4 -4 -4 -4 -4 -4 -4 -4 -4 -4 -4 -4 -4 -4 -4 -4 -4 -4 -4 -4 -4 -4 -4 -4 -4 -4 -4 -4 -4 -4 -4 -4 -3 3 30 93 95 32 4 -3 -4 -4 -4 -4 -4 -4 -4 -4 -4 -4 -4 -4 -4 -4 -4 -4 -4 -4 -4 -4 -4 -4 -4 -4 -4 -2 5 31 85 114 94 112 
97 30 2 -3 -4 -4 -4 -4 -4 -2 3 22 64 110 86 32 6 -2 -4 -4 -4 -4 -4 -4 -4 -4 -4 -4 -4 -4 -4 -4 -4 -4 -4 -4 -4 -4 -4 -4 -4 -4 -4 -4 -4 -4 -4 -4 -4 -4 -4 -4 -4 -4 -4 -4 -4 -4 -4 -4 -4 -4 -4 -4 -4 -4 -4 -4 -4 -4 -2 3 30 93 102 41 8 -1 -3 -4 -4 -4 -4 -4 -4 -4 -4 -4 -4 -4 -4 -4 -4 -4 -4 -4 -4 -4 -4 -4 -4 -4 -4 -3 0 11 48 104 126 132 
99 30 2 -3 -4 -4 -4 -4 -2 3 20 59 107 106 55 18 4 0 -2 -3 -3 -3 -3 -3 -3 -3 -3 -3 -3 -4 -4 -4 -4 -4 -4 -4 -4 -4 -4 -4 -4 -4 -4 -4 -4 -4 -4 -4 -4 -4 -4 -4 -4 -4 -4 -4 -4 -4 -4 -4 -4 -4 -4 -4 -4 -4 -4 -4 -4 -3 0 9 36 97 124 69 24 6 0 -3 -4 -4 -4 -4 -4 -4 -4 -4 -4 -4 -4 -4 -4 -4 -4 -4 -4 -4 -4 -4 -4 -4 -4 -4 -3 1 19 63 122 149 
101 30 2 -3 -4 -4 -4 -2 3 20 60 113 127 89 51 33 22 11 5 3 3 3 3 3 3 3 2 2 0 -1 -2 -3 -3 -3 -3 -3 -3 -3 -3 -3 -4 -4 -4 -4 -4 -4 -4 -4 -4 -4 -4 -4 -4 -4 -4 -4 -4 -4 -4 -4 -4 -4 -4 -4 -4 -4 -4 -3 -2 1 11 31 64 117 150 119 66 32 13 3 -1 -3 -4 -4 -4 -4 -4 -4 -4 -4 -4 -4 -4 -4 -4 -4 -4 -4 -4 -4 -4 -4 -4 -4 -4 -2 5 32 92 148 
98 30 2 -3 -4 -4 -2 3 20 59 116 150 137 112 98 90 77 53 37 32 30 30 30 30 30 30 29 27 21 11 5 3 3 3 3 3 3 2 2 0 -1 -2 -3 -3 -3 -3 -3 -3 -3 -3 -3 -3 -4 -4 -4 -4 -4 -4 -4 -4 -4 -4 -4 -4 -4 -4 -3 0 5 19 48 85 111 120 120 123 113 87 54 29 11 1 -2 -3 -4 -4 -4 -4 -4 -4 -4 -4 -4 -4 -4 -4 -4 -4 -4 -4 -4 -4 -4 -4 -4 -3 0 13 57 125 
95 30 3 -3 -4 -2 3 20 58 106 123 112 101 96 95 100 109 109 99 95 93 93 93 93 93 93 92 88 76 53 37 32 30 30 30 30 30 29 27 21 11 5 3 3 3 3 3 3 3 2 2 0 -1 -2 -3 -3 -3 -3 -3 -3 -3 -3 -3 -3 -3 -1 3 13 32 63 101 109 87 58 46 58 86 108 107 84 48 19 5 0 -3 -4 -4 -4 -4 -4 -4 -4 -4 -4 -4 -4 -4 -4 -4 -4 -4 -4 -4 -4 -4 -4 -2 5 38 104 
93 30 3 -2 -2 3 20 58 103 105 67 41 32 31 32 37 53 76 88 92 93 93 93 93 93 93 95 99 109 109 99 95 93 93 93 93 93 92 88 76 53 37 32 30 30 30 30 30 30 29 27 21 11 5 3 3 3 3 3 3 2 2 1 0 2 11 29 54 86 109 101 63 32 14 8 14 30 54 86 109 101 63 32 13 3 -1 -3 -4 -4 -4 -4 -4 -4 -4 -4 -4 -4 -4 -4 -4 -4 -4 -4 -4 -4 -4 -3 3 32 95 
93 30 4 0 5 22 59 103 103 59 22 7 3 3 3 5 11 21 27 29 30 30 30 30 30 30 32 37 53 76 88 92 93 93 93 93 93 95 99 109 109 99 95 93 93 93 93 93 93 92 88 76 53 37 32 30 30 30 30 30 29 27 22 16 22 49 84 107 107 84 48 19 5 0 -1 0 3 13 32 63 101 109 86 54 29 11 1 -2 -3 -4 -4 -4 -4 -4 -4 -4 -4 -4 -4 -4 -4 -4 -4 -4 -4 -4 -3 3 30 93 
93 32 8 13 32 64 104 103 58 20 3 -1 -3 -3 -3 -2 -1 0 2 2 3 3 3 3 3 3 3 5 11 21 27 29 30 30 30 30 30 32 37 53 76 88 92 93 93 93 93 93 93 95 99 109 109 99 95 93 93 93 93 93 92 89 79 64 73 104 110 86 54 29 11 1 -2 -3 -4 -3 -3 0 5 19 48 84 107 107 84 48 19 5 0 -3 -4 -4 -4 -4 -4 -4 -4 -4 -4 -4 -4 -4 -4 -4 -4 -4 -3 3 30 93 
94 37 25 49 85 109 101 57 20 3 -2 -4 -4 -4 -4 -4 -4 -3 -3 -3 -3 -3 -3 -3 -3 -3 -3 -2 -1 0 2 2 3 3 3 3 3 3 5 11 21 27 29 30 30 30 30 30 30 32 37 53 76 88 92 93 93 93 93 93 95 102 118 132 133 110 65 32 13 3 -1 -3 -4 -4 -4 -4 -4 -3 -2 1 11 29 54 86 109 101 63 32 13 3 -1 -3 -4 -4 -4 -4 -4 -4 -4 -4 -4 -4 -4 -4 -4 -4 -3 3 30 93 
99 54 64 101 109 85 48 17 2 -2 -4 -4 -4 -4 -4 -4 -4 -4 -4 -4 -4 -4 -4 -4 -4 -4 -4 -4 -4 -3 -3 -3 -3 -3 -3 -3 -3 -3 -2 -1 0 2 2 3 3 3 3 3 3 3 5 11 21 27 29 30 30 30 30 30 33 43 77 135 133 69 24 6 0 -3 -4 -4 -4 -4 -4 -4 -4 -4 -4 -3 -1 3 13 32 63 101 109 86 54 29 11 1 -2 -3 -4 -4 -4 -4 -4 -4 -4 -4 -4 -4 -4 -4 -3 3 30 93 
113 90 109 105 64 31 11 1 -3 -4 -4 -4 -4 -4 -4 -4 -4 -4 -4 -4 -4 -4 -4 -4 -4 -4 -4 -4 -4 -4 -4 -4 -4 -4 -4 -4 -4 -4 -4 -4 -3 -3 -3 -3 -3 -3 -3 -3 -3 -3 -2 -1 0 2 2 3 3 3 3 3 4 12 43 108 107 41 8 -1 -3 -4 -4 -4 -4 -4 -4 -4 -4 -4 -4 -4 -4 -3 0 5 19 48 84 107 107 84 48 19 5 0 -3 -4 -4 -4 -4 -4 -4 -4 -4 -4 -4 -4 -3 3 30 95 
137 127 106 59 22 5 0 -3 -4 -4 -4 -4 -4 -4 -4 -4 -4 -4 -4 -4 -4 -4 -4 -4 -4 -4 -4 -4 -4 -4 -4 -4 -4 -4 -4 -4 -4 -4 -4 -4 -4 -4 -4 -4 -4 -4 -4 -4 -4 -4 -4 -4 -3 -3 -3 -3 -3 -3 -3 -3 -2 4 33 96 96 32 4 -3 -4 -4 -4 -4 -4 -4 -4 -4 -4 -4 -4 -4 -4 -4 -3 -2 1 11 29 54 86 109 101 63 32 13 3 0 -3 -4 -4 -4 -4 -4 -4 -4 -4 -4 -3 2 30 98 
151 115 59 20 3 -2 -3 -4 -4 -4 -4 -4 -4 -4 -4 -4 -4 -4 -4 -4 -4 -4 -4 -4 -4 -4 -4 -4 -4 -4 -4 -4 -4 -4 -4 -4 -4 -4 -4 -4 -4 -4 -4 -4 -4 -4 -4 -4 -4 -4 -4 -4 -4 -4 -4 -4 -4 -4 -4 -4 -3 3 30 93 93 30 3 -3 -4 -4 -4 -4 -4 -4 -4 -4 -4 -4 -4 -4 -4 -4 -4 -4 -3 -1 3 13 32 63 101 109 86 54 29 12 3 -1 -3 -4 -4 -4 -4 -4 -4 -4 -3 2 30 101 
129 69 22 3 -2 -4 -4 -4 -4 -4 -4 -4 -4 -4 -4 -4 -4 -4 -4 -4 -4 -4 -4 -4 -4 -4 -4 -4 -4 -4 -4 -4 -4 -4 -4 -4 -4 -4 -4 -4 -4 -4 -4 -4 -4 -4 -4 -4 -4 -4 -4 -4 -4 -4 -4 -4 -4 -4 -4 -4 -3 3 30 93 93 30 3 -3 -4 -4 -4 -4 -4 -4 -4 -4 -4 -4 -4 -4 -4 -4 -4 -4 -4 -4 -3 0 5 19 48 84 107 108 85 54 29 11 1 -2 -3 -4 -4 -4 -4 -4 -3 2 30 99 
105 41 7 -1 -4 -4 -4 -4 -4 -4 -4 -4 -4 -4 -4 -4 -4 -4 -4 -4 -4 -4 -4 -4 -4 -4 -4 -4 -4 -4 -4 -4 -4 -4 -4 -4 -4 -4 -4 -4 -4 -4 -4 -4 -4 -4 -4 -4 -4 -4 -4 -4 -4 -4 -4 -4 -4 -4 -4 -4 -3 3 30 93 93 30 3 -3 -4 -4 -4 -4 -4 -4 -4 -4 -4 -4 -4 -4 -4 -4 -4 -4 -4 -4 -4 -3 -2 1 11 29 54 85 108 107 84 48 19 5 0 -2 -3 -3 -4 -4 -3 3 30 95 
96 32 3 -3 -4 -4 -4 -4 -4 -4 -4 -4 -4 -4 -4 -4 -4 -4 -4 -4 -4 -4 -4 -4 -4 -4 -4 -4 -4 -4 -4 -4 -4 -4 -4 -4 -4 -4 -4 -4 -4 -4 -4 -4 -4 -4 -4 -4 -4 -4 -4 -4 -4 -4 -4 -4 -4 -4 -4 -4 -3 3 30 93 93 30 3 -3 -4 -4 -4 -4 -4 -4 -4 -4 -4 -4 -4 -4 -4 -4 -4 -4 -4 -4 -4 -4 -4 -3 -1 3 12 29 54 86 109 102 63 32 13 5 2 1 -1 -2 -2 3 30 94 
94 30 3 -3 -4 -4 -4 -4 -4 -4 -4 -4 -4 -4 -4 -4 -4 -4 -4 -4 -4 -4 -4 -4 -4 -4 -4 -4 -4 -4 -4 -4 -4 -4 -4 -4 -4 -4 -4 -4 -4 -4 -4 -4 -4 -4 -4 -4 -4 -4 -4 -4 -4 -4 -4 -4 -4 -4 -4 -4 -3 3 30 93 93 30 3 -3 -4 -4 -4 -4 -4 -4 -4 -4 -4 -4 -4 -4 -4 -4 -4 -4 -4 -4 -4 -4 -4 -4 -4 -2 0 4 14 33 66 108 116 91 57 38 29 21 11 5 4 8 33 94 
94 30 3 -3 -4 -4 -4 -4 -4 -4 -4 -4 -4 -4 -4 -4 -4 -4 -4 -4 -4 -4 -4 -4 -4 -4 -4 -4 -4 -4 -4 -4 -4 -4 -4 -4 -4 -4 -4 -4 -4 -4 -4 -4 -4 -4 -4 -4 -4 -4 -4 -4 -4 -4 -4 -4 -4 -4 -4 -4 -3 3 30 93 93 30 3 -3 -4 -4 -4 -4 -4 -4 -4 -4 -4 -4 -4 -4 -4 -4 -4 -4 -4 -4 -4 -4 -4 -4 -4 -3 -2 0 5 15 37 80 128 148 127 103 91 77 53 37 30 29 45 99 
97 31 4 -2 -3 -3 -3 -3 -3 -4 -4 -4 -4 -4 -4 -4 -4 -4 -4 -4 -4 -4 -4 -4 -4 -4 -4 -4 -4 -4 -4 -4 -4 -4 -4 -4 -4 -4 -4 -4 -4 -4 -4 -4 -4 -4 -4 -4 -4 -4 -4 -4 -4 -4 -4 -4 -4 -4 -4 -4 -3 3 30 93 93 30 3 -3 -4 -4 -4 -4 -4 -4 -4 -4 -4 -4 -4 -4 -4 -4 -4 -4 -4 -4 -4 -4 -4 -3 -2 0 3 11 24 37 61 99 128 128 110 99 100 109 109 99 91 83 83 118 
105 37 10 4 3 3 2 2 0 -1 -2 -3 -3 -3 -3 -3 -3 -4 -4 -4 -4 -4 -4 -4 -4 -4 -4 -4 -4 -4 -4 -4 -4 -4 -4 -4 -4 -4 -4 -4 -4 -4 -4 -4 -4 -4 -4 -4 -4 -4 -4 -4 -4 -4 -4 -4 -4 -4 -4 -4 -3 3 30 93 93 30 3 -3 -4 -4 -4 -4 -4 -4 -4 -4 -4 -4 -4 -4 -4 -4 -4 -4 -4 -4 -4 -3 -1 1 5 13 29 51 78 96 110 109 87 57 39 33 38 53 77 90 99 113 129 149 
120 61 37 31 30 30 29 27 21 11 5 3 3 3 2 2 0 -1 -2 -3 -3 -3 -3 -3 -3 -3 -4 -4 -4 -4 -4 -4 -4 -4 -4 -4 -4 -4 -4 -4 -4 -4 -4 -4 -4 -4 -4 -4 -4 -4 -4 -4 -4 -4 -4 -4 -4 -4 -4 -4 -3 3 30 93 93 30 3 -3 -4 -4 -4 -4 -4 -4 -4 -4 -4 -4 -4 -4 -4 -4 -4 -4 -3 -2 0 3 11 23 35 55 85 107 109 96 78 51 29 13 5 4 5 11 21 29 38 59 99 144 
147 115 98 94 93 93 92 88 76 53 37 32 30 30 29 27 21 11 5 3 3 3 3 2 2 0 -1 -2 -3 -3 -3 -3 -3 -3 -4 -4 -4 -4 -4 -4 -4 -4 -4 -4 -4 -4 -4 -4 -4 -4 -4 -4 -4 -4 -4 -4 -4 -4 -4 -4 -3 3 30 93 93 30 3 -3 -4 -4 -4 -4 -4 -4 -4 -4 -4 -4 -4 -4 -4 -4 -3 -1 1 5 13 29 51 78 96 109 107 85 55 35 23 11 3 0 -2 -3 -2 -1 1 3 6 18 53 118 
144 115 98 94 93 93 95 99 109 109 99 95 93 93 92 88 76 53 37 32 30 30 30 29 27 21 11 5 3 3 3 2 2 0 -1 -2 -3 -3 -3 -3 -3 -3 -3 -4 -4 -4 -4 -4 -4 -4 -4 -4 -4 -4 -4 -4 -4 -4 -4 -4 -3 3 30 93 93 30 3 -3 -4 -4 -4 -4 -4 -4 -4 -4 -4 -4 -4 -4 -3 0 3 11 23 35 55 85 107 109 96 78 51 29 13 5 1 -1 -3 -4 -4 -4 -4 -4 -3 -3 -1 6 35 104 
112 61 37 31 30 30 32 37 53 76 88 92 93 93 95 99 109 109 99 95 93 93 93 92 88 76 53 37 32 30 30 29 27 21 11 5 3 3 3 3 2 2 0 -1 -2 -3 -3 -3 -3 -3 -3 -4 -4 -4 -4 -4 -4 -4 -4 -4 -3 3 30 93 93 30 3 -3 -4 -4 -4 -4 -4 -4 -4 -4 -4 -3 -2 0 3 12 29 51 78 96 109 107 85 55 35 23 11 3 0 -2 -3 -4 -4 -4 -4 -4 -4 -4 -4 -4 -3 3 31 96 
97 37 10 4 3 3 3 5 11 21 27 29 30 30 32 37 53 76 88 92 93 93 93 95 99 109 109 99 95 93 93 92 88 76 53 37 32 30 30 30 29 27 21 11 5 3 3 3 2 2 0 -1 -2 -3 -3 -3 -3 -3 -3 -3 -2 3 30 93 93 30 3 -3 -4 -4 -4 -4 -4 -4 -4 -3 -1 1 5 13 29 54 85 107 109 96 78 51 29 13 5 1 -1 -3 -4 -4 -4 -4 -4 -4 -4 -4 -4 -4 -4 -4 -3 3 30 94 
94 31 4 -2 -3 -3 -3 -2 -1 0 2 2 3 3 3 5 11 21 27 29 30 30 30 32 37 53 76 88 92 93 93 95 99 109 109 99 95 93 93 93 92 88 76 53 37 32 30 30 29 27 21 11 5 3 3 3 3 2 2 1 0 4 31 94 94 30 3 -3 -4 -4 -4 -4 -3 -2 0 3 11 23 35 56 86 108 108 86 56 35 23 11 3 0 -2 -3 -4 -4 -4 -4 -4 -4 -4 -4 -4 -4 -4 -4 -4 -4 -3 3 30 93 
93 30 3 -3 -4 -4 -4 -4 -4 -3 -3 -3 -3 -3 -3 -2 -1 0 2 2 3 3 3 3 5 11 21 27 29 30 30 32 37 53 76 88 92 93 93 93 95 99 109 109 99 95 93 93 92 88 76 53 37 32 30 30 30 29 27 21 12 13 38 98 96 32 4 -3 -4 -4 -3 -1 1 5 13 29 51 78 96 109 107 85 54 29 13 5 1 -1 -3 -4 -4 -4 -4 -4 -4 -4 -4 -4 -4 -4 -4 -4 -4 -4 -4 -4 -3 3 30 93 
93 30 3 -3 -4 -4 -4 -4 -4 -4 -4 -4 -4 -4 -4 -4 -4 -3 -3 -3 -3 -3 -3 -3 -2 -1 0 2 2 3 3 3 5 11 21 27 29 30 30 30 32 37 53 76 88 92 93 93 95 99 109 109 99 95 93 93 93 92 88 76 54 44 63 115 108 41 8 0 -2 0 3 11 23 35 55 85 107 109 96 78 51 29 12 3 0 -2 -3 -4 -4 -4 -4 -4 -4 -4 -4 -4 -4 -4 -4 -4 -4 -4 -4 -4 -4 -4 -3 3 30 93 
93 30 3 -3 -4 -4 -4 -4 -4 -4 -4 -4 -4 -4 -4 -4 -4 -4 -4 -4 -4 -4 -4 -4 -4 -4 -3 -3 -3 -3 -3 -3 -2 -1 0 2 2 3 3 3 3 5 11 21 27 29 30 30 32 37 53 76 88 92 93 93 93 95 99 109 110 104 114 145 133 69 25 8 6 13 29 51 78 96 109 107 85 55 35 23 11 3 0 -3 -4 -4 -4 -4 -4 -4 -4 -4 -4 -4 -4 -4 -4 -4 -4 -4 -4 -4 -4 -4 -4 -4 -3 3 30 93 
93 30 3 -3 -4 -4 -4 -4 -4 -4 -4 -4 -4 -4 -4 -4 -4 -4 -4 -4 -4 -4 -4 -4 -4 -4 -4 -4 -4 -4 -4 -4 -4 -4 -3 -3 -3 -3 -3 -3 -3 -2 -1 0 2 2 3 3 3 5 11 21 27 29 30 30 30 32 37 53 76 89 97 112 126 111 68 43 40 56 86 107 109 96 78 51 29 13 5 1 -1 -3 -4 -4 -4 -4 -4 -4 -4 -4 -4 -4 -4 -4 -4 -4 -4 -4 -4 -4 -4 -4 -4 -4 -4 -4 -3 3 30 93 
93 30 3 -3 -4 -4 -4 -4 -4 -4 -4 -4 -4 -4 -4 -4 -4 -4 -4 -4 -4 -4 -4 -4 -4 -4 -4 -4 -4 -4 -4 -4 -4 -4 -4 -4 -4 -4 -4 -4 -4 -4 -4 -3 -3 -3 -3 -3 -3 -2 -1 0 2 2 3 3 3 3 5 11 21 28 32 41 68 111 126 114 106 111 107 85 55 35 23 11 3 0 -2 -3 -4 -4 -4 -4 -4 -4 -4 -4 -4 -4 -4 -4 -4 -4 -4 -4 -4 -4 -4 -4 -4 -4 -4 -4 -4 -4 -3 3 30 93 
93 30 3 -3 -4 -4 -4 -4 -4 -4 -4 -4 -4 -4 -4 -4 -4 -4 -4 -4 -4 -4 -4 -4 -4 -4 -4 -4 -4 -4 -4 -4 -4 -4 -4 -4 -4 -4 -4 -4 -4 -4 -4 -4 -4 -4 -4 -4 -4 -4 -4 -3 -3 -3 -3 -3 -3 -3 -2 -1 0 2 3 8 24 69 133 144 109 81 52 29 13 5 1 -1 -3 -4 -4 -4 -4 -4 -4 -4 -4 -4 -4 -4 -4 -4 -4 -4 -4 -4 -4 -4 -4 -4 -4 -4 -4 -4 -4 -4 -4 -4 -3 3 30 93 
93 30 3 -3 -4 -4 -4 -4 -4 -4 -4 -4 -4 -4 -4 -4 -4 -4 -4 -4 -4 -4 -4 -4 -4 -4 -4 -4 -4 -4 -4 -4 -4 -4 -4 -4 -4 -4 -4 -4 -4 -4 -4 -4 -4 -4 -4 -4 -4 -4 -4 -4 -4 -4 -4 -4 -4 -4 -4 -3 -3 -3 -2 0 8 41 108 114 59 28 12 3 0 -2 -3 -3 -4 -4 -4 -4 -4 -4 -4 -4 -4 -4 -4 -4 -4 -4 -4 -4 -4 -4 -4 -4 -4 -4 -4 -4 -4 -4 -4 -4 -4 -4 -3 3 30 93 
94 31 4 -2 -3 -3 -3 -3 -3 -3 -3 -3 -3 -3 -3 -3 -3 -3 -3 -3 -3 -3 -3 -3 -3 -3 -3 -3 -3 -3 -3 -3 -3 -3 -3 -3 -3 -3 -3 -3 -3 -3 -3 -3 -3 -3 -3 -3 -3 -3 -3 -3 -3 -3 -3 -3 -3 -3 -3 -3 -3 -3 -3 -1 5 33 97 99 37 9 1 -1 -2 -3 -3 -3 -3 -3 -3 -3 -3 -3 -3 -3 -3 -3 -3 -3 -3 -3 -3 -3 -3 -3 -3 -3 -3 -3 -3 -3 -3 -3 -3 -3 -3 -3 -2 4 31 94 
98 37 10 4 3 3 3 3 3 3 3 3 3 3 3 3 3 3 3 3 3 3 3 3 3 3 3 3 3 3 3 3 2 2 2 3 3 3 3 3 3 3 3 3 3 3 3 3 3 2 2 3 3 3 3 3 3 3 3 3 3 3 3 4 10 37 99 99 38 11 4 3 3 3 3 3 3 3 3 3 3 3 3 3 3 3 3 3 3 3 3 2 2 2 3 3 3 3 3 3 3 3 3 2 2 3 4 10 37 98 
116 61 37 31 30 30 30 30 30 30 30 30 30 30 30 30 30 30 30 30 30 30 30 30 30 30 30 30 30 30 30 30 30 30 30 30 30 30 30 30 30 30 30 30 30 30 30 30 30 30 30 30 30 30 30 30 30 30 30 30 30 30 30 31 37 61 115 115 61 37 31 30 30 30 30 30 30 30 30 30 30 30 30 30 30 30 30 30 30 30 30 30 30 30 30 30 30 30 30 30 30 30 30 30 30 30 31 37 61 116 
154 116 98 94 93 93 93 93 93 93 93 93 93 93 93 93 93 93 93 93 93 93 93 93 93 93 93 93 93 93 93 95 98 101 99 95 93 93 93 93 93 93 93 93 93 93 93 94 96 100 100 96 94 93 93 93 93 93 93 93 93 93 93 94 97 112 143 143 112 97 94 93 93 93 93 93 93 93 93 93 93 93 93 93 93 93 93 93 93 93 94 98 101 99 95 93 93 93 93 93 93 93 94 97 101 99 96 99 116 154 
