P2
110 110
255
151 126 107 99 96 95 95 95 95 95 95 95 95 95 95 95 95 95 95 95 95 95 95 95 95 95 95 95 96 100 107 122 136 136 122 108 100 96 95 95 95 95 95 95 95 96 98 105 120 137 136 119 105 98 96 95 95 95 95 95 95 95 95 95 96 99 102 102 99 97 95 95 95 95 95 95 95 95 95 95 95 95 95 95 95 95 95 96 98 104 116 133 138 125 109 100 96 95 95 95 97 102 114 131 138 127 113 112 128 151 
126 92 65 54 50 49 49 49 49 49 49 49 49 49 49 49 49 49 49 49 49 49 49 49 49 49 49 50 53 61 79 109 130 118 89 66 55 51 50 49 49 49 49 49 50 51 55 68 95 128 126 91 65 54 50 49 49 49 49 49 49 49 49 49 49 48 48 48 48 49 49 49 49 49 49 49 49 49 49 49 49 49 49 49 49 49 50 51 55 68 95 125 125 96 69 56 51 50 49 50 53 63 86 120 129 102 76 72 94 127 
107 65 34 21 17 16 16 16 16 16 16 16 16 16 16 16 16 16 16 16 16 16 16 16 16 16 17 19 24 39 68 104 113 82 48 28 20 17 16 16 16 16 16 16 17 18 24 41 76 117 109 65 34 21 17 16 16 16 16 16 16 16 16 16 16 16 15 15 16 16 16 16 16 16 16 16 16 16 16 16 16 16 16 16 16 16 17 19 26 46 83 114 98 59 33 21 18 17 17 18 22 35 65 106 109 71 42 41 67 107 
99 54 21 8 4 3 3 3 3 3 3 3 3 3 3 3 3 3 3 3 3 3 3 3 3 3 5 9 19 44 81 107 90 51 23 10 5 3 3 3 3 3 3 3 4 7 15 37 79 119 102 52 21 8 4 3 3 3 3 3 3 3 3 3 3 3 3 3 3 3 3 3 3 3 3 3 3 3 3 3 3 3 3 3 3 3 4 8 18 45 88 106 74 35 14 6 4 3 3 5 10 27 62 103 95 52 26 27 55 99 
96 50 17 4 0 0 0 0 0 0 0 0 0 0 0 0 0 0 0 0 0 0 0 0 0 0 3 11 30 64 99 98 63 29 10 2 0 0 0 0 0 0 0 0 1 5 18 48 95 129 101 49 17 4 0 0 0 0 0 0 0 0 0 0 0 0 0 0 0 0 0 0 0 0 0 0 0 0 0 0 0 0 0 0 0 0 1 6 22 56 97 97 55 21 6 1 0 0 0 2 9 30 70 104 82 40 18 21 51 96 
95 49 16 3 0 -1 -1 -1 -1 -1 -1 -1 -1 -1 -1 -1 -1 -1 -1 -1 -1 -1 -1 -1 0 0 6 20 50 89 103 76 38 14 3 0 -1 -1 -1 -1 -1 -1 -1 0 1 9 29 68 116 137 102 49 16 3 0 -1 -1 -1 -1 -1 -1 -1 -1 -1 -1 -1 -1 -1 -1 -1 -1 -1 -1 -1 -1 -1 -1 -1 -1 -1 -1 -1 -1 -1 -1 0 1 10 32 72 104 83 40 13 2 0 -1 -1 0 2 12 38 82 103 69 30 13 19 50 95 
95 49 16 3 0 -1 -1 -1 -1 -1 -1 -1 -1 -1 -1 -1 -1 -1 -1 -1 -1 -1 -1 -1 0 3 14 38 76 103 88 50 20 6 0 -1 -1 -1 -1 -1 -1 -1 -1 0 4 18 47 91 128 136 104 52 18 4 0 -1 -1 -1 -1 -1 -1 -1 -1 -1 -1 -1 -1 -1 -1 -1 -1 -1 -1 -1 -1 -1 -1 -1 -1 -1 -1 -1 -1 -1 -1 0 4 17 47 89 101 65 27 8 0 -1 -1 -1 0 3 16 47 92 99 57 22 10 18 50 95 
95 49 16 3 0 -1 -1 -1 -1 -1 -1 -1 -1 -1 -1 -1 -1 -1 -1 -1 -1 -1 -1 0 1 9 28 63 98 98 63 28 9 1 0 -1 -1 -1 -1 -1 -1 -1 0 2 10 31 69 109 124 126 107 59 22 5 0 -1 -1 -1 -1 -1 -1 -1 -1 -1 -1 -1 -1 -1 -1 -1 -1 -1 -1 -1 -1 -1 -1 -1 -1 -1 -1 -1 -1 -1 -1 0 8 27 65 101 89 47 17 4 0 -1 -1 -1 0 5 21 57 99 92 47 17 8 18 49 95 
95 49 16 3 0 -1 -1 -1 -1 -1 -1 -1 -1 -1 -1 -1 -1 -1 -1 -1 -1 -1 -1 0 6 20 50 88 103 76 38 14 3 0 -1 -1 -1 -1 -1 -1 -1 -1 0 6 21 51 92 111 104 109 109 69 28 8 0 -1 -1 -1 -1 -1 -1 -1 -1 -1 -1 -1 -1 -1 -1 -1 -1 -1 -1 -1 -1 -1 -1 -1 -1 -1 -1 -1 -1 -1 0 2 13 40 83 103 72 32 10 1 -1 -1 -1 -1 0 8 28 69 103 82 38 13 7 17 49 95 
95 49 16 3 0 -1 -1 -1 -1 -1 -1 -1 -1 -1 -1 -1 -1 -1 -1 -1 -1 -1 0 3 14 38 76 103 88 50 20 6 0 -1 -1 -1 -1 -1 -1 -1 -1 0 3 14 38 76 105 95 76 88 108 81 36 11 1 -1 -1 -1 -1 -1 -1 -1 -1 -1 -1 -1 -1 -1 -1 -1 -1 -1 -1 -1 -1 -1 -1 -1 -1 -1 -1 -1 -1 -1 0 5 21 55 96 96 55 21 5 0 -1 -1 -1 0 2 11 37 82 103 69 29 9 6 17 49 95 
95 50 16 3 0 -1 -1 -1 -1 -1 -1 -1 -1 -1 -1 -1 -1 -1 -1 -1 -1 0 1 9 28 63 98 98 63 28 9 1 0 -1 -1 -1 -1 -1 -1 -1 -1 1 8 27 62 98 99 69 52 70 103 89 43 13 2 0 -1 -1 -1 -1 -1 -1 -1 -1 -1 -1 -1 -1 -1 -1 -1 -1 -1 -1 -1 -1 -1 -1 -1 -1 -1 -1 -1 -1 1 10 32 72 103 83 40 13 2 0 -1 -1 -1 0 3 16 47 92 99 57 21 6 5 17 49 95 
96 51 17 3 0 -1 -1 -1 -1 -1 -1 -1 -1 -1 -1 -1 -1 -1 -1 -1 -1 0 6 20 50 88 103 76 38 14 3 0 -1 -1 -1 -1 -1 -1 -1 -1 0 4 17 46 86 104 78 44 35 58 98 93 47 15 3 0 -1 -1 -1 -1 -1 -1 -1 -1 -1 -1 -1 -1 -1 -1 -1 -1 -1 -1 -1 -1 -1 -1 -1 -1 -1 -1 -1 0 4 17 47 89 101 65 27 8 0 -1 -1 -1 -1 0 5 21 57 99 92 47 16 4 4 16 49 95 
100 55 20 5 0 -1 -1 -1 -1 -1 -1 -1 -1 -1 -1 -1 -1 -1 -1 -1 0 3 14 38 76 103 88 50 20 6 0 -1 -1 -1 -1 -1 -1 -1 -1 -1 1 9 30 68 102 91 53 26 25 52 96 95 50 17 3 0 -1 -1 -1 -1 -1 -1 -1 -1 -1 -1 -1 -1 -1 -1 -1 -1 -1 -1 -1 -1 -1 -1 -1 -1 -1 -1 -1 0 8 27 65 101 89 47 17 4 0 -1 -1 -1 -1 0 8 28 69 103 82 37 12 3 4 16 49 96 
108 65 27 8 1 0 -1 -1 -1 -1 -1 -1 -1 -1 -1 -1 -1 -1 -1 0 1 9 28 63 98 98 63 28 9 1 0 -1 -1 -1 -1 -1 -1 -1 -1 0 4 18 48 89 102 70 33 15 19 48 93 97 53 18 4 0 -1 -1 -1 -1 -1 -1 -1 -1 -1 -1 -1 -1 -1 -1 -1 -1 -1 -1 -1 -1 -1 -1 -1 -1 -1 -1 0 2 13 40 83 103 72 32 10 1 -1 -1 -1 -1 0 2 11 37 82 103 69 28 8 2 3 16 48 97 
122 87 44 18 6 0 -1 -1 -1 -1 -1 -1 -1 -1 -1 -1 -1 -1 -1 0 6 20 50 88 103 76 38 14 3 0 -1 -1 -1 -1 -1 -1 -1 -1 0 2 10 32 70 102 89 48 19 9 15 43 88 100 59 22 5 0 -1 -1 -1 -1 -1 -1 -1 -1 -1 -1 -1 -1 -1 -1 -1 -1 -1 -1 -1 -1 -1 -1 -1 -1 -1 -1 0 5 21 55 96 96 55 21 5 0 -1 -1 -1 -1 0 3 16 47 92 99 57 21 5 1 3 15 48 99 
135 115 74 38 16 4 0 -1 -1 -1 -1 -1 -1 -1 -1 -1 -1 -1 0 3 14 38 76 103 88 50 20 6 0 -1 -1 -1 -1 -1 -1 -1 -1 -1 0 6 21 51 91 102 68 30 10 5 12 36 80 103 69 28 8 0 -1 -1 -1 -1 -1 -1 -1 -1 -1 -1 -1 -1 -1 -1 -1 -1 -1 -1 -1 -1 -1 -1 -1 -1 -1 -1 1 10 32 72 103 83 40 13 2 0 -1 -1 -1 -1 0 5 21 57 99 92 47 16 3 0 3 15 47 101 
137 130 105 69 34 13 3 0 -1 -1 -1 -1 -1 -1 -1 -1 -1 0 1 9 28 63 98 98 63 28 9 1 0 -1 -1 -1 -1 -1 -1 -1 -1 0 3 14 38 76 103 86 46 17 5 2 8 28 69 103 80 36 11 1 -1 -1 -1 -1 -1 -1 -1 -1 -1 -1 -1 -1 -1 -1 -1 -1 -1 -1 -1 -1 -1 -1 -1 -1 -1 0 4 17 47 89 101 65 27 8 0 -1 -1 -1 -1 -1 0 8 28 69 103 82 37 11 2 0 3 15 48 101 
125 118 114 98 61 28 9 2 0 -1 -1 -1 -1 -1 -1 -1 -1 0 6 20 50 88 103 76 38 14 3 0 -1 -1 -1 -1 -1 -1 -1 -1 -1 1 8 27 62 98 98 62 27 8 1 0 5 22 59 100 88 43 13 2 0 -1 -1 -1 -1 -1 -1 -1 -1 -1 -1 -1 -1 -1 -1 -1 -1 -1 -1 -1 -1 -1 -1 -1 -1 0 8 27 65 101 89 47 17 4 0 -1 -1 -1 -1 0 2 11 37 82 103 69 28 8 1 0 3 16 48 99 
111 93 96 107 88 51 22 7 1 0 -1 -1 -1 -1 -1 -1 0 3 14 38 76 103 88 50 20 6 0 -1 -1 -1 -1 -1 -1 -1 -1 -1 0 4 17 46 86 103 76 38 14 3 0 0 4 18 53 97 93 47 15 3 0 -1 -1 -1 -1 -1 -1 -1 -1 -1 -1 -1 -1 -1 -1 -1 -1 -1 -1 -1 -1 -1 -1 -1 0 2 13 40 83 103 72 32 10 1 -1 -1 -1 -1 -1 0 3 16 47 92 99 57 21 5 0 0 3 16 49 97 
103 73 69 93 104 79 43 18 6 1 0 -1 -1 -1 -1 0 1 9 28 63 98 98 63 28 9 1 0 -1 -1 -1 -1 -1 -1 -1 -1 -1 1 9 30 68 102 91 51 21 6 0 0 0 3 17 50 95 95 50 17 3 0 -1 -1 -1 -1 -1 -1 -1 -1 -1 -1 -1 -1 -1 -1 -1 -1 -1 -1 -1 -1 -1 -1 -1 0 5 21 55 96 96 55 21 5 0 -1 -1 -1 -1 -1 0 5 21 57 99 92 47 16 3 0 0 3 16 49 96 
98 61 47 66 97 101 73 40 17 6 1 0 -1 -1 -1 0 6 20 50 88 103 76 38 14 3 0 -1 -1 -1 -1 -1 -1 -1 -1 -1 0 4 18 48 89 102 70 32 10 2 0 -1 0 3 15 47 93 97 53 18 4 0 -1 -1 -1 -1 -1 -1 -1 -1 -1 -1 -1 -1 -1 -1 -1 -1 -1 -1 -1 -1 -1 -1 -1 1 10 32 72 103 83 40 13 2 0 -1 -1 -1 -1 -1 0 8 28 69 103 82 37 11 2 0 0 3 16 49 95 
96 55 32 40 70 99 100 72 39 17 6 1 0 -1 0 3 14 38 76 103 88 50 20 6 0 -1 -1 -1 -1 -1 -1 -1 -1 -1 0 2 10 32 70 102 89 48 18 4 0 -1 -1 0 2 13 43 88 100 59 22 5 0 -1 -1 -1 -1 -1 -1 -1 -1 -1 -1 -1 -1 -1 -1 -1 -1 -1 -1 -1 -1 -1 -1 0 4 17 47 89 101 65 27 8 0 -1 -1 -1 -1 -1 0 2 11 37 82 103 69 28 8 0 -1 0 3 16 49 95 
95 51 23 21 39 71 100 100 72 39 17 6 1 0 2 9 28 63 98 98 63 28 9 1 0 -1 -1 -1 -1 -1 -1 -1 -1 -1 0 6 21 51 91 102 68 30 9 1 0 -1 -1 -1 1 11 36 80 103 69 28 8 0 -1 -1 -1 -1 -1 -1 -1 -1 -1 -1 -1 -1 -1 -1 -1 -1 -1 -1 -1 -1 -1 -1 0 8 27 65 101 89 47 17 4 0 -1 -1 -1 -1 -1 0 3 16 47 92 99 57 21 5 0 -1 0 3 16 49 95 
95 50 19 11 18 39 72 100 100 72 39 17 6 3 7 21 50 88 103 76 38 14 3 0 -1 -1 -1 -1 -1 -1 -1 -1 -1 0 3 14 38 76 103 86 46 17 4 0 -1 -1 -1 -1 0 8 28 69 103 80 36 11 1 -1 -1 -1 -1 -1 -1 -1 -1 -1 -1 -1 -1 -1 -1 -1 -1 -1 -1 -1 -1 -1 0 2 13 40 83 103 72 32 10 1 -1 -1 -1 -1 -1 -1 0 5 21 57 99 92 47 16 3 0 -1 0 3 16 49 95 
95 49 17 6 7 17 39 72 100 100 72 40 19 11 17 39 76 103 88 50 20 6 0 -1 -1 -1 -1 -1 -1 -1 -1 -1 -1 1 8 27 62 98 98 62 27 8 1 -1 -1 -1 -1 -1 0 5 22 59 100 89 43 14 2 0 -1 -1 -1 -1 -1 -1 -1 -1 -1 -1 -1 -1 -1 -1 -1 -1 -1 -1 -1 -1 0 5 21 55 96 96 55 21 5 0 -1 -1 -1 -1 -1 -1 0 8 28 69 103 82 37 11 2 0 -1 0 3 16 49 95 
95 49 16 4 2 6 17 39 72 100 100 73 43 29 37 66 99 98 63 28 9 1 0 -1 -1 -1 -1 -1 -1 -1 -1 -1 0 4 17 46 86 103 76 38 14 3 0 -1 -1 -1 -1 -1 0 4 18 52 97 93 48 16 3 0 -1 -1 -1 -1 -1 -1 -1 -1 -1 -1 -1 -1 -1 -1 -1 -1 -1 -1 -1 -1 1 10 32 72 103 83 40 13 2 0 -1 -1 -1 -1 -1 0 2 11 37 82 103 69 28 8 0 -1 -1 0 3 16 49 95 
95 49 16 3 0 1 6 17 39 72 100 101 79 62 68 95 104 76 38 14 3 0 -1 -1 -1 -1 -1 -1 -1 -1 -1 -1 1 9 30 68 102 91 51 21 6 0 -1 -1 -1 -1 -1 -1 0 3 16 48 93 97 52 18 4 0 -1 -1 -1 -1 -1 -1 -1 -1 -1 -1 -1 -1 -1 -1 -1 -1 -1 -1 -1 0 4 17 47 89 101 65 27 8 0 -1 -1 -1 -1 -1 -1 0 3 16 47 92 99 57 21 5 0 -1 -1 0 3 16 49 95 
95 49 16 3 0 0 1 6 17 39 72 102 110 105 108 112 89 50 20 6 0 -1 -1 -1 -1 -1 -1 -1 -1 -1 -1 0 4 18 48 89 102 70 32 10 2 0 -1 -1 -1 -1 -1 -1 0 2 14 43 89 100 59 22 5 0 -1 -1 -1 -1 -1 -1 -1 -1 -1 -1 -1 -1 -1 -1 -1 -1 -1 -1 -1 0 8 27 65 101 89 47 17 4 0 -1 -1 -1 -1 -1 -1 0 5 21 57 99 92 47 16 3 0 -1 -1 0 3 16 49 95 
95 49 16 3 0 -1 0 1 6 17 40 75 111 134 133 107 64 28 9 1 0 -1 -1 -1 -1 -1 -1 -1 -1 -1 0 2 10 32 70 102 89 48 18 4 0 -1 -1 -1 -1 -1 -1 -1 -1 1 11 36 80 103 69 28 8 0 -1 -1 -1 -1 -1 -1 -1 -1 -1 -1 -1 -1 -1 -1 -1 -1 -1 -1 0 2 13 40 83 103 72 32 10 1 -1 -1 -1 -1 -1 -1 -1 0 8 28 69 103 82 37 11 2 0 -1 -1 0 3 16 49 95 
95 49 16 3 0 -1 -1 0 1 6 19 45 87 128 129 85 41 15 3 0 -1 -1 -1 -1 -1 -1 -1 -1 -1 -1 0 6 21 51 91 102 68 30 9 1 -1 -1 -1 -1 -1 -1 -1 -1 -1 0 8 28 69 103 80 36 11 1 -1 -1 -1 -1 -1 -1 -1 -1 -1 -1 -1 -1 -1 -1 -1 -1 -1 -1 0 5 21 55 96 96 55 21 5 0 -1 -1 -1 -1 -1 -1 0 2 11 37 82 103 69 28 8 0 -1 -1 -1 0 3 16 49 95 
95 49 16 3 0 -1 -1 -1 0 1 8 26 63 110 114 68 28 8 1 -1 -1 -1 -1 -1 -1 -1 -1 -1 -1 0 3 14 38 76 103 86 46 17 4 0 -1 -1 -1 -1 -1 -1 -1 -1 -1 0 5 22 59 100 88 43 13 2 0 -1 -1 -1 -1 -1 -1 -1 -1 -1 -1 -1 -1 -1 -1 -1 -1 -1 1 10 32 72 103 83 40 13 2 0 -1 -1 -1 -1 -1 -1 0 3 16 47 92 99 57 21 5 0 -1 -1 -1 0 3 16 49 95 
95 49 16 3 0 -1 -1 -1 -1 0 4 17 48 95 106 65 25 7 0 -1 -1 -1 -1 -1 -1 -1 -1 -1 -1 1 8 27 62 98 98 62 27 8 1 -1 -1 -1 -1 -1 -1 -1 -1 -1 -1 0 4 18 53 97 93 47 15 3 0 -1 -1 -1 -1 -1 -1 -1 -1 -1 -1 -1 -1 -1 -1 -1 -1 0 4 17 47 89 101 65 27 8 0 -1 -1 -1 -1 -1 -1 -1 0 5 21 57 99 92 47 16 3 0 -1 -1 -1 0 3 16 49 95 
95 49 16 3 0 -1 -1 -1 -1 0 2 12 38 82 105 71 29 8 0 -1 -1 -1 -1 -1 -1 -1 -1 -1 0 4 17 46 86 103 76 38 14 3 0 -1 -1 -1 -1 -1 -1 -1 -1 -1 -1 0 3 17 50 95 95 50 17 3 0 -1 -1 -1 -1 -1 -1 -1 -1 -1 -1 -1 -1 -1 -1 -1 -1 0 8 27 65 101 89 47 17 4 0 -1 -1 -1 -1 -1 -1 -1 0 8 28 69 103 82 37 11 2 0 -1 -1 -1 0 3 16 49 95 
95 49 16 3 0 -1 -1 -1 -1 -1 0 8 29 70 104 81 37 11 1 -1 -1 -1 -1 -1 -1 -1 -1 -1 1 9 30 68 102 91 51 21 6 0 -1 -1 -1 -1 -1 -1 -1 -1 -1 -1 -1 0 3 15 47 93 97 53 18 4 0 -1 -1 -1 -1 -1 -1 -1 -1 -1 -1 -1 -1 -1 -1 -1 0 2 13 40 83 103 72 32 10 1 -1 -1 -1 -1 -1 -1 -1 0 2 11 37 82 103 69 28 8 0 -1 -1 -1 -1 0 3 16 49 95 
95 49 16 3 0 -1 -1 -1 -1 -1 0 5 22 59 100 89 44 14 2 0 -1 -1 -1 -1 -1 -1 -1 0 4 18 48 89 102 70 32 10 2 0 -1 -1 -1 -1 -1 -1 -1 -1 -1 -1 -1 0 2 13 43 88 100 59 22 5 0 -1 -1 -1 -1 -1 -1 -1 -1 -1 -1 -1 -1 -1 -1 -1 0 5 21 55 96 96 55 21 5 0 -1 -1 -1 -1 -1 -1 -1 0 3 16 47 92 99 57 21 5 0 -1 -1 -1 -1 0 3 17 50 96 
96 49 16 3 0 -1 -1 -1 -1 -1 0 3 17 51 95 95 51 17 3 0 -1 -1 -1 -1 -1 -1 0 2 10 32 70 102 89 48 18 4 0 -1 -1 -1 -1 -1 -1 -1 -1 -1 -1 -1 -1 -1 1 11 36 80 103 69 28 8 0 -1 -1 -1 -1 -1 -1 -1 -1 -1 -1 -1 -1 -1 -1 -1 1 10 32 72 103 83 40 13 2 0 -1 -1 -1 -1 -1 -1 -1 0 5 21 57 99 92 47 16 3 0 -1 -1 -1 -1 0 4 18 53 99 
97 48 16 3 0 -1 -1 -1 -1 -1 0 2 14 44 89 100 59 22 5 0 -1 -1 -1 -1 -1 -1 0 6 21 51 91 102 68 30 9 1 -1 -1 -1 -1 -1 -1 -1 -1 -1 -1 -1 -1 -1 -1 0 8 28 69 103 80 36 11 1 -1 -1 -1 -1 -1 -1 -1 -1 -1 -1 -1 -1 -1 -1 0 4 17 47 89 101 65 27 8 0 -1 -1 -1 -1 -1 -1 -1 -1 0 8 28 69 103 82 37 11 2 0 -1 -1 -1 -1 0 6 23 60 105 
98 48 15 3 0 -1 -1 -1 -1 -1 -1 1 11 36 81 103 69 28 8 0 -1 -1 -1 -1 -1 0 3 14 38 76 103 86 46 17 4 0 -1 -1 -1 -1 -1 -1 -1 -1 -1 -1 -1 -1 -1 -1 0 5 22 59 100 88 43 13 2 0 -1 -1 -1 -1 -1 -1 -1 -1 -1 -1 -1 -1 -1 0 8 27 65 101 89 47 17 4 0 -1 -1 -1 -1 -1 -1 -1 0 2 11 37 82 103 69 28 8 0 -1 -1 -1 -1 0 2 10 33 75 116 
100 47 15 3 0 -1 -1 -1 -1 -1 -1 0 8 28 69 103 81 36 11 1 -1 -1 -1 -1 -1 1 8 27 62 98 98 62 27 8 1 -1 -1 -1 -1 -1 -1 -1 -1 -1 -1 -1 -1 -1 -1 -1 0 4 18 53 97 93 47 15 3 0 -1 -1 -1 -1 -1 -1 -1 -1 -1 -1 -1 -1 0 2 13 40 83 103 72 32 10 1 -1 -1 -1 -1 -1 -1 -1 -1 0 3 16 47 92 99 57 21 5 0 -1 -1 -1 -1 0 6 20 51 97 129 
101 47 15 3 0 -1 -1 -1 -1 -1 -1 0 5 22 59 100 89 44 14 2 0 -1 -1 -1 0 4 17 46 86 103 76 38 14 3 0 -1 -1 -1 -1 -1 -1 -1 -1 -1 -1 -1 -1 -1 -1 -1 0 3 17 50 95 95 50 17 3 0 -1 -1 -1 -1 -1 -1 -1 -1 -1 -1 -1 -1 0 5 21 55 96 96 55 21 5 0 -1 -1 -1 -1 -1 -1 -1 -1 0 5 21 57 99 92 47 16 3 0 -1 -1 -1 0 3 14 37 77 120 137 
100 47 15 3 0 -1 -1 -1 -1 -1 -1 0 3 17 51 95 95 51 17 3 0 -1 -1 0 1 9 30 68 102 91 51 21 6 0 -1 -1 -1 -1 -1 -1 -1 -1 -1 -1 -1 -1 -1 -1 -1 -1 0 3 15 47 93 97 53 18 4 0 -1 -1 -1 -1 -1 -1 -1 -1 -1 -1 -1 -1 1 10 32 72 103 83 40 13 2 0 -1 -1 -1 -1 -1 -1 -1 -1 0 8 28 69 103 82 37 11 2 0 -1 -1 0 1 9 28 62 103 130 135 
98 48 16 3 0 -1 -1 -1 -1 -1 -1 0 2 14 44 89 100 59 22 5 0 -1 -1 0 4 18 48 89 102 70 32 10 2 0 -1 -1 -1 -1 -1 -1 -1 -1 -1 -1 -1 -1 -1 -1 -1 -1 0 2 13 43 88 100 60 22 5 0 -1 -1 -1 -1 -1 -1 -1 -1 -1 -1 -1 0 4 17 47 89 101 65 27 8 0 -1 -1 -1 -1 -1 -1 -1 -1 0 2 11 37 82 103 69 28 8 0 -1 -1 -1 0 6 20 49 89 115 120 124 
97 49 16 3 0 -1 -1 -1 -1 -1 -1 -1 1 11 36 81 103 69 28 8 0 -1 0 2 10 32 70 102 89 48 18 4 0 -1 -1 -1 -1 -1 -1 -1 -1 -1 -1 -1 -1 -1 -1 -1 -1 -1 -1 1 11 36 81 104 70 30 9 2 0 0 -1 -1 -1 -1 -1 -1 -1 -1 -1 0 8 27 65 101 89 47 17 4 0 -1 -1 -1 -1 -1 -1 -1 -1 0 3 16 47 92 99 57 21 5 0 -1 -1 0 3 14 38 76 106 104 99 113 
96 49 16 3 0 -1 -1 -1 -1 -1 -1 -1 0 8 28 69 103 81 36 11 1 0 0 6 21 51 91 102 68 30 9 1 -1 -1 -1 -1 -1 -1 -1 -1 -1 -1 -1 -1 -1 -1 -1 -1 -1 -1 -1 1 8 30 71 106 84 41 16 6 3 1 0 0 0 0 0 0 -1 -1 0 3 13 40 83 103 72 32 10 1 -1 -1 -1 -1 -1 -1 -1 -1 -1 0 5 21 57 99 92 47 16 3 0 -1 0 1 9 28 63 98 102 81 79 104 
95 49 16 3 0 -1 -1 -1 -1 -1 -1 -1 0 5 22 59 100 89 44 14 3 0 3 14 38 76 103 86 46 17 4 0 -1 -1 -1 -1 -1 -1 -1 -1 -1 -1 -1 -1 -1 -1 -1 -1 -1 -1 0 1 8 27 66 108 100 59 31 20 15 11 8 5 4 3 3 2 1 1 2 6 22 55 96 96 55 21 5 0 -1 -1 -1 -1 -1 -1 -1 -1 -1 0 8 28 69 103 82 37 11 2 0 -1 0 6 20 50 88 104 81 57 65 100 
95 49 16 3 0 -1 -1 -1 -1 -1 -1 -1 0 3 17 51 95 95 51 18 4 2 9 27 62 98 98 62 27 8 1 -1 -1 -1 -1 -1 -1 -1 -1 -1 -1 -1 -1 -1 -1 -1 -1 -1 -1 0 0 4 14 34 73 118 122 89 64 51 44 36 28 22 18 17 15 13 11 8 8 15 36 74 104 83 40 13 2 0 -1 -1 -1 -1 -1 -1 -1 -1 0 2 11 37 82 103 69 28 8 0 0 0 3 14 38 76 103 89 55 39 57 97 
95 49 16 3 0 -1 -1 -1 -1 -1 -1 -1 0 2 14 44 89 100 59 22 7 6 17 46 86 103 76 38 14 3 0 -1 -1 -1 -1 -1 -1 -1 -1 -1 -1 -1 -1 -1 -1 -1 -1 -1 0 1 6 15 31 57 96 132 138 120 104 96 89 81 69 59 53 50 47 43 36 30 27 35 60 96 104 66 27 8 0 -1 -1 -1 -1 -1 -1 -1 -1 -1 0 3 16 47 92 99 57 21 5 0 0 1 9 28 63 98 98 64 34 28 53 96 
95 49 16 3 0 -1 -1 -1 -1 -1 -1 -1 -1 1 11 36 81 103 70 29 11 12 31 68 102 91 51 21 6 0 -1 -1 -1 -1 -1 -1 -1 -1 -1 -1 -1 -1 -1 -1 -1 -1 0 0 3 9 20 38 64 92 114 121 114 104 99 98 101 103 103 100 97 95 93 88 81 71 66 73 97 117 96 50 18 4 0 -1 -1 -1 -1 -1 -1 -1 -1 -1 0 5 21 57 99 92 47 16 3 0 0 6 20 50 88 103 76 39 19 22 51 95 
95 49 16 3 0 -1 -1 -1 -1 -1 -1 -1 -1 0 8 28 69 103 81 38 18 22 49 89 102 70 32 10 2 0 -1 -1 -1 -1 -1 -1 -1 -1 -1 -1 -1 -1 -1 -1 -1 0 1 6 14 28 50 76 98 105 94 76 61 53 51 53 59 69 80 88 93 95 97 100 104 105 107 116 132 130 87 40 13 2 0 -1 -1 -1 -1 -1 -1 -1 -1 -1 0 8 28 69 103 82 37 12 2 0 3 14 38 76 103 88 50 21 11 19 50 95 
95 49 16 3 0 -1 -1 -1 -1 -1 -1 -1 -1 0 5 22 59 100 90 48 27 36 71 102 89 48 18 4 0 -1 -1 -1 -1 -1 -1 -1 -1 -1 -1 -1 -1 -1 -1 -1 0 3 9 20 38 63 88 103 98 77 52 34 23 18 17 19 22 28 36 43 47 50 53 59 70 82 95 112 131 130 88 41 14 3 0 -1 -1 -1 -1 -1 -1 -1 -1 0 2 12 38 82 103 69 28 8 1 2 9 28 63 98 98 63 29 11 7 17 49 95 
95 49 16 3 0 -1 -1 -1 -1 -1 -1 -1 -1 0 3 17 51 95 97 59 41 57 92 102 68 30 9 1 -1 -1 -1 -1 -1 -1 -1 -1 -1 -1 -1 -1 -1 -1 0 1 5 13 28 49 76 98 103 88 63 38 21 11 6 4 3 4 5 8 11 13 15 17 18 22 29 38 49 67 94 116 99 56 24 9 2 0 0 0 0 0 0 0 0 0 4 17 48 92 99 57 21 6 2 6 20 50 88 103 76 38 14 5 5 17 49 95 
95 49 16 3 0 -1 -1 -1 -1 -1 -1 -1 -1 0 2 14 44 90 104 75 62 83 105 86 46 17 4 0 -1 -1 -1 -1 -1 -1 -1 -1 -1 -1 -1 -1 -1 0 2 7 17 35 61 88 103 98 76 50 28 14 6 2 0 0 0 0 0 0 1 2 3 3 4 5 8 12 18 31 56 93 108 82 46 23 11 6 4 3 3 3 3 3 3 5 10 26 61 101 93 48 17 5 5 14 38 76 103 88 50 20 6 1 4 16 49 95 
95 49 16 3 0 -1 -1 -1 -1 -1 -1 -1 -1 -1 1 11 36 81 110 97 92 106 99 62 27 8 1 -1 -1 -1 -1 -1 -1 -1 -1 -1 -1 -1 -1 0 0 3 10 21 42 70 96 103 89 63 38 20 9 3 0 0 -1 -1 -1 -1 -1 -1 -1 0 0 0 0 0 0 2 5 12 30 65 103 109 83 53 34 24 19 17 16 16 16 16 17 19 26 44 81 111 89 43 16 7 11 29 63 98 98 63 28 9 2 0 3 16 49 95 
95 49 16 3 0 -1 -1 -1 -1 -1 -1 -1 -1 -1 0 7 28 69 112 121 118 110 76 38 14 3 0 -1 -1 -1 -1 -1 -1 -1 -1 -1 -1 -1 0 1 6 14 29 51 78 100 100 78 51 29 14 6 1 0 -1 -1 -1 -1 -1 -1 -1 -1 -1 -1 -1 -1 -1 -1 -1 0 0 4 15 41 84 122 123 99 76 61 54 51 50 49 49 49 50 52 60 80 111 125 90 46 21 15 24 51 89 103 76 38 14 3 0 0 3 16 49 95 
95 49 16 3 0 -1 -1 -1 -1 -1 -1 -1 -1 -1 0 5 21 58 109 136 127 93 51 20 6 0 -1 -1 -1 -1 -1 -1 -1 -1 -1 -1 0 0 3 9 20 38 63 89 103 96 70 42 21 10 3 0 0 -1 -1 -1 -1 -1 -1 -1 -1 -1 -1 -1 -1 -1 -1 -1 -1 -1 0 1 8 28 69 120 140 127 112 103 98 96 95 95 95 95 96 97 103 116 135 136 105 66 41 34 48 80 105 89 50 20 6 0 0 0 3 16 49 95 
95 49 16 3 0 -1 -1 -1 -1 -1 -1 -1 -1 -1 0 3 17 51 105 137 116 69 30 10 2 0 -1 -1 -1 -1 -1 -1 -1 -1 -1 0 1 5 14 28 50 76 98 103 88 61 35 17 7 2 0 -1 -1 -1 -1 -1 -1 -1 -1 -1 -1 -1 -1 -1 -1 -1 -1 -1 -1 -1 -1 0 7 25 65 113 124 104 93 92 93 94 95 95 95 95 95 96 98 103 113 122 117 99 79 72 86 108 102 65 29 9 1 0 -1 0 3 16 49 95 
95 49 16 3 0 -1 -1 -1 -1 -1 -1 -1 -1 -1 0 3 16 48 102 128 94 47 17 4 0 -1 -1 -1 -1 -1 -1 -1 -1 0 0 3 9 19 37 63 89 104 99 77 50 28 13 5 1 0 -1 -1 -1 -1 -1 -1 -1 -1 -1 -1 -1 -1 -1 -1 -1 -1 -1 -1 -1 -1 -1 0 8 29 71 109 97 65 49 46 47 48 49 49 49 49 49 49 50 53 60 75 93 106 111 115 126 124 88 44 16 4 0 -1 -1 0 3 16 49 95 
95 49 16 3 0 -1 -1 -1 -1 -1 -1 -1 -1 -1 0 3 16 48 99 115 74 31 10 1 0 -1 -1 -1 -1 -1 -1 0 0 3 6 14 27 48 76 101 108 94 68 42 23 11 4 1 0 -1 -1 -1 -1 -1 -1 -1 -1 -1 -1 -1 -1 -1 -1 -1 -1 -1 -1 -1 -1 -1 -1 1 11 36 81 106 75 38 21 16 16 16 16 16 16 16 16 16 17 18 22 32 48 70 94 119 138 127 80 36 12 2 0 -1 -1 0 3 16 49 95 
95 49 16 3 0 -1 -1 -1 -1 -1 -1 -1 -1 -1 0 3 16 50 98 104 59 22 5 0 -1 -1 -1 -1 -1 0 1 4 8 14 23 38 62 92 117 120 98 70 45 27 16 9 5 2 1 0 0 0 -1 -1 -1 -1 -1 -1 -1 -1 -1 -1 -1 -1 -1 -1 -1 -1 -1 -1 0 2 14 43 89 101 61 25 9 4 3 3 3 3 3 3 3 3 3 4 6 10 18 31 52 81 114 122 88 44 16 4 0 -1 -1 0 3 16 49 95 
95 49 16 3 0 -1 -1 -1 -1 -1 -1 -1 -1 -1 0 4 18 53 98 96 51 17 4 0 -1 -1 0 0 1 4 9 17 27 41 58 80 106 129 138 125 98 73 56 42 31 22 16 12 8 5 3 2 1 0 0 0 0 -1 -1 -1 -1 -1 -1 -1 -1 -1 -1 -1 -1 -1 0 3 16 48 93 97 53 19 5 0 0 0 0 0 0 0 0 0 0 0 0 1 4 10 22 42 75 106 102 65 29 9 1 0 -1 0 3 16 49 95 
95 49 16 3 0 -1 -1 -1 -1 -1 -1 -1 -1 -1 0 5 22 59 101 90 44 14 3 0 0 0 2 5 10 18 30 46 65 84 99 110 116 120 123 121 112 102 93 82 69 57 47 38 29 22 17 14 11 8 5 3 2 0 0 0 0 -1 -1 -1 -1 -1 -1 -1 -1 -1 0 4 18 52 97 93 48 16 3 0 -1 -1 -1 -1 -1 -1 -1 -1 -1 -1 -1 0 0 2 7 19 43 79 105 89 50 20 6 0 0 0 3 16 49 95 
95 49 16 3 0 -1 -1 -1 -1 -1 -1 -1 -1 -1 0 8 28 69 104 81 37 12 3 2 4 8 13 21 32 48 69 88 101 104 97 86 75 69 73 83 91 96 100 104 103 99 92 82 70 59 51 44 36 28 21 16 11 8 5 3 2 1 0 0 0 0 -1 -1 -1 -1 0 5 22 59 100 89 43 14 2 0 -1 -1 -1 -1 -1 -1 -1 -1 -1 -1 -1 -1 -1 0 1 7 22 51 89 103 76 38 14 3 0 0 3 16 49 95 
95 49 16 3 0 -1 -1 -1 -1 -1 -1 -1 -1 -1 1 11 36 81 104 70 30 11 7 10 17 27 40 55 72 90 102 102 90 72 55 41 31 27 30 36 44 51 59 70 82 92 99 103 103 100 95 89 81 69 57 47 38 29 22 17 14 11 8 5 3 2 0 0 0 0 1 8 29 70 103 80 36 11 1 -1 -1 -1 -1 -1 -1 -1 -1 -1 -1 -1 -1 -1 -1 -1 0 2 10 29 63 98 98 63 29 10 2 0 3 16 49 95 
95 49 16 3 0 -1 -1 -1 -1 -1 -1 -1 -1 0 2 14 44 90 102 62 29 17 20 30 46 65 83 96 103 101 88 69 48 32 21 13 9 7 8 11 14 17 22 29 38 47 57 69 81 89 95 100 103 103 99 92 82 70 59 51 44 36 28 21 16 11 8 5 4 3 5 14 38 82 104 69 28 8 0 -1 -1 -1 -1 -1 -1 -1 -1 -1 -1 -1 -1 -1 -1 -1 -1 0 3 14 38 76 103 89 51 21 7 2 4 16 49 95 
95 49 16 3 0 -1 -1 -1 -1 -1 -1 -1 -1 0 4 17 51 97 102 63 38 36 49 69 88 101 103 96 83 65 46 30 18 10 5 2 1 0 1 1 2 3 5 8 11 16 21 28 36 44 51 59 70 82 92 99 103 103 100 95 89 81 69 57 47 38 29 22 18 15 15 24 50 92 101 59 22 5 0 -1 -1 -1 -1 -1 -1 -1 -1 -1 -1 -1 -1 -1 -1 -1 -1 -1 0 6 20 49 88 103 78 42 17 6 5 17 49 95 
95 49 16 3 0 -1 -1 -1 -1 -1 -1 -1 -1 0 6 22 60 106 109 79 65 74 90 102 102 90 72 55 40 27 17 9 4 1 0 0 -1 -1 -1 -1 0 0 0 0 2 3 5 8 11 14 17 22 29 38 47 57 69 81 89 95 100 103 103 99 92 82 70 59 51 45 41 45 69 104 99 53 18 4 0 -1 -1 -1 -1 -1 -1 -1 -1 -1 -1 -1 -1 -1 -1 -1 -1 -1 0 1 9 28 61 96 100 70 35 14 8 18 50 95 
95 49 16 3 0 -1 -1 -1 -1 -1 -1 -1 0 1 10 32 74 120 126 107 102 105 102 89 69 48 32 21 13 7 4 1 0 -1 -1 -1 -1 -1 -1 -1 -1 -1 -1 -1 0 0 0 0 1 2 3 5 8 11 16 21 28 36 44 51 59 70 82 92 99 103 103 100 95 91 85 85 100 121 100 49 16 3 0 -1 -1 -1 -1 -1 -1 -1 -1 -1 -1 -1 -1 -1 -1 -1 -1 -1 -1 0 3 13 35 70 100 96 62 29 15 20 50 95 
95 49 16 3 0 -1 -1 -1 -1 -1 -1 -1 0 4 17 47 95 134 136 120 105 89 68 48 30 18 10 5 2 0 0 -1 -1 -1 -1 -1 -1 -1 -1 -1 -1 -1 -1 -1 -1 -1 -1 -1 -1 0 0 0 0 2 3 5 8 11 14 17 22 29 38 47 57 69 81 89 95 101 107 115 129 137 102 48 15 3 0 -1 -1 -1 -1 -1 -1 -1 -1 -1 -1 -1 -1 -1 -1 -1 -1 -1 -1 -1 0 5 17 42 78 103 89 52 27 25 52 96 
95 49 16 3 0 -1 -1 -1 -1 -1 -1 0 2 10 31 69 112 125 108 86 65 46 30 17 9 4 1 0 0 -1 -1 -1 -1 -1 -1 -1 -1 -1 -1 -1 -1 -1 -1 -1 -1 -1 -1 -1 -1 -1 -1 -1 -1 0 0 0 0 1 2 3 5 8 11 16 21 28 36 44 51 60 73 93 119 134 102 48 15 3 0 -1 -1 -1 -1 -1 -1 -1 -1 -1 -1 -1 -1 -1 -1 -1 -1 -1 -1 -1 -1 1 7 21 50 88 103 79 47 35 56 97 
95 49 16 3 0 -1 -1 -1 -1 -1 -1 0 6 21 51 92 111 91 62 41 27 16 9 4 1 0 0 -1 -1 -1 -1 -1 -1 -1 -1 -1 -1 -1 -1 -1 -1 -1 -1 -1 -1 -1 -1 -1 -1 -1 -1 -1 -1 -1 -1 -1 -1 -1 0 0 0 0 2 3 5 8 11 14 18 23 33 53 86 117 99 48 16 3 0 -1 -1 -1 -1 -1 -1 -1 -1 -1 -1 -1 -1 -1 -1 -1 -1 -1 -1 -1 -1 0 2 9 28 61 96 101 75 54 64 99 
96 49 16 3 0 -1 -1 -1 -1 -1 0 3 14 38 76 105 91 55 29 15 8 4 1 0 -1 -1 -1 -1 -1 -1 -1 -1 -1 -1 -1 -1 -1 -1 -1 -1 -1 -1 -1 -1 -1 -1 -1 -1 -1 -1 -1 -1 -1 -1 -1 -1 -1 -1 -1 -1 -1 -1 0 0 0 0 1 2 4 6 13 29 63 104 97 49 16 3 0 -1 -1 -1 -1 -1 -1 -1 -1 -1 -1 -1 -1 -1 -1 -1 -1 -1 -1 -1 -1 -1 0 3 13 35 70 101 101 79 79 104 
97 49 16 3 0 -1 -1 -1 -1 0 2 10 29 63 98 99 64 30 12 4 1 0 -1 -1 -1 -1 -1 -1 -1 -1 -1 -1 -1 -1 -1 -1 -1 -1 -1 -1 -1 -1 -1 -1 -1 -1 -1 -1 -1 -1 -1 -1 -1 -1 -1 -1 -1 -1 -1 -1 -1 -1 -1 -1 -1 -1 -1 0 0 1 6 20 53 98 97 51 17 3 0 -1 -1 -1 -1 -1 -1 -1 -1 -1 -1 -1 -1 -1 -1 -1 -1 -1 -1 -1 -1 -1 -1 0 5 17 42 78 106 104 99 113 
98 48 16 3 0 -1 -1 -1 0 1 7 21 51 89 104 77 39 15 4 0 0 -1 -1 -1 -1 -1 -1 -1 -1 -1 -1 -1 -1 -1 -1 -1 -1 -1 -1 -1 -1 -1 -1 -1 -1 -1 -1 -1 -1 -1 -1 -1 -1 -1 -1 -1 -1 -1 -1 -1 -1 -1 -1 -1 -1 -1 -1 -1 -1 0 4 18 50 96 99 55 20 5 0 -1 -1 -1 -1 -1 -1 -1 -1 -1 -1 -1 -1 -1 -1 -1 -1 -1 -1 -1 -1 -1 -1 -1 1 7 21 50 90 115 120 124 
100 47 15 3 0 -1 -1 0 0 6 18 42 79 106 92 54 24 9 2 0 0 0 0 0 0 0 0 0 -1 -1 -1 -1 -1 -1 -1 -1 -1 -1 -1 -1 -1 -1 -1 -1 -1 -1 -1 -1 -1 -1 -1 -1 -1 -1 -1 -1 -1 -1 -1 -1 -1 -1 -1 -1 -1 -1 -1 -1 0 0 5 19 52 98 108 66 28 10 3 0 -1 -1 -1 -1 -1 -1 -1 -1 -1 -1 -1 -1 -1 -1 -1 -1 -1 -1 -1 -1 -1 -1 0 2 9 28 63 103 130 135 
101 47 15 3 0 -1 0 0 5 16 38 73 107 110 79 44 23 12 6 4 3 3 3 3 3 3 3 2 1 0 0 0 0 0 0 0 0 0 0 -1 -1 -1 -1 -1 -1 -1 -1 -1 -1 -1 -1 -1 -1 -1 -1 -1 -1 -1 -1 -1 -1 -1 -1 -1 -1 -1 -1 0 0 4 12 29 62 108 124 89 48 24 11 4 1 0 -1 -1 -1 -1 -1 -1 -1 -1 -1 -1 -1 -1 -1 -1 -1 -1 -1 -1 -1 -1 -1 0 3 14 37 77 120 137 
100 47 15 3 0 0 1 5 16 38 72 110 129 114 83 58 42 30 23 19 17 16 16 16 16 16 15 13 11 8 5 4 3 3 3 3 3 3 2 1 0 0 0 0 0 0 0 0 0 0 0 -1 -1 -1 -1 -1 -1 -1 -1 -1 -1 -1 -1 -1 -1 -1 0 2 6 14 29 53 87 124 139 118 83 53 32 17 8 3 0 0 -1 -1 -1 -1 -1 -1 -1 -1 -1 -1 -1 -1 -1 -1 -1 -1 -1 -1 -1 -1 0 6 20 51 97 129 
98 48 15 3 0 1 6 17 38 71 108 134 137 124 108 95 83 70 60 53 51 50 49 49 49 48 47 43 36 28 22 18 17 16 16 16 16 15 13 11 8 5 4 3 3 3 3 3 3 3 2 1 0 0 0 0 0 0 0 0 0 0 0 0 0 1 4 10 21 38 63 90 110 121 123 121 111 92 69 46 27 14 6 2 0 -1 -1 -1 -1 -1 -1 -1 -1 -1 -1 -1 -1 -1 -1 -1 -1 -1 -1 -1 0 2 10 33 75 116 
97 48 16 4 2 6 17 39 72 103 117 115 107 102 100 102 104 104 100 97 96 95 95 95 95 94 92 88 80 69 59 53 50 50 49 49 48 47 43 36 28 22 18 17 16 16 16 16 16 15 13 11 8 5 4 3 3 3 3 3 3 2 2 2 4 9 17 31 51 76 98 105 95 80 73 79 93 104 102 86 62 38 21 10 4 1 0 -1 -1 -1 -1 -1 -1 -1 -1 -1 -1 -1 -1 -1 -1 -1 -1 -1 -1 0 6 23 60 105 
96 49 18 7 8 19 40 72 100 104 85 65 54 51 53 59 69 80 88 92 94 95 95 95 95 96 97 100 103 103 100 97 96 95 95 95 94 92 88 80 69 59 53 50 50 49 49 49 48 47 43 36 28 22 18 17 16 16 16 16 15 14 12 12 17 28 46 69 91 103 98 77 53 36 30 35 49 70 91 103 98 76 51 31 17 8 3 0 0 -1 -1 -1 -1 -1 -1 -1 -1 -1 -1 -1 -1 -1 -1 -1 -1 0 4 18 53 99 
96 51 22 15 23 43 73 100 100 74 45 27 19 17 18 22 28 36 43 47 48 49 49 49 50 50 53 59 69 80 88 92 94 95 95 95 96 97 100 103 103 100 97 96 95 95 95 95 94 92 88 80 69 59 53 50 50 49 49 48 47 43 39 38 46 65 87 102 102 86 62 38 21 12 9 11 18 32 51 76 98 103 91 69 46 27 14 6 2 0 -1 -1 -1 -1 -1 -1 -1 -1 -1 -1 -1 -1 -1 -1 -1 0 3 17 50 96 
97 56 32 33 52 79 101 99 71 40 19 9 5 4 4 5 8 11 13 15 16 16 16 16 16 17 18 22 28 36 43 47 48 49 49 50 50 53 59 69 80 88 92 94 95 95 95 95 96 97 100 103 103 100 97 96 95 95 95 94 93 90 86 85 93 105 106 92 69 46 27 14 6 2 1 2 5 10 21 38 62 86 102 102 86 62 38 21 10 4 1 0 -1 -1 -1 -1 -1 -1 -1 -1 -1 -1 -1 -1 -1 0 3 16 49 95 
101 67 53 67 89 104 96 69 38 17 6 1 0 0 0 0 0 1 2 3 3 3 3 3 3 3 4 5 8 11 13 15 16 16 16 16 17 18 22 28 36 43 47 48 49 49 49 50 50 53 59 69 80 88 92 94 95 95 95 96 99 106 118 130 130 113 82 53 32 17 8 3 0 0 -1 0 0 2 6 14 27 46 69 91 103 98 76 51 31 17 8 3 0 0 -1 -1 -1 -1 -1 -1 -1 -1 -1 -1 -1 0 3 16 49 96 
110 89 87 100 104 88 61 34 16 5 1 0 -1 -1 -1 -1 -1 -1 0 0 0 0 0 0 0 0 0 0 0 1 2 3 3 3 3 3 3 4 5 8 11 13 15 16 16 16 16 16 17 18 22 28 36 43 47 48 49 49 50 51 57 72 101 133 130 89 49 24 11 4 1 0 -1 -1 -1 -1 -1 0 0 3 8 17 31 51 76 98 103 91 69 46 27 14 6 2 0 -1 -1 -1 -1 -1 -1 -1 -1 -1 -1 0 3 16 49 97 
124 116 113 103 79 51 28 13 4 0 -1 -1 -1 -1 -1 -1 -1 -1 -1 -1 -1 -1 -1 -1 -1 -1 -1 -1 -1 -1 0 0 0 0 0 0 0 0 0 0 1 2 3 3 3 3 3 3 3 4 5 8 11 13 15 16 16 16 17 18 23 38 72 115 113 66 28 10 3 0 -1 -1 -1 -1 -1 -1 -1 -1 -1 0 1 4 10 21 38 62 86 102 102 86 62 38 21 10 4 1 0 -1 -1 -1 -1 -1 -1 -1 -1 0 3 16 48 99 
136 131 107 74 43 22 9 3 0 -1 -1 -1 -1 -1 -1 -1 -1 -1 -1 -1 -1 -1 -1 -1 -1 -1 -1 -1 -1 -1 -1 -1 -1 -1 -1 -1 -1 -1 -1 -1 -1 0 0 0 0 0 0 0 0 0 0 0 1 2 3 3 3 3 3 4 9 23 57 102 101 55 20 5 0 -1 -1 -1 -1 -1 -1 -1 -1 -1 -1 -1 -1 0 2 6 14 27 46 69 91 103 98 76 51 32 18 9 4 1 0 -1 -1 -1 -1 -1 -1 0 3 15 48 101 
135 115 75 40 18 7 2 0 -1 -1 -1 -1 -1 -1 -1 -1 -1 -1 -1 -1 -1 -1 -1 -1 -1 -1 -1 -1 -1 -1 -1 -1 -1 -1 -1 -1 -1 -1 -1 -1 -1 -1 -1 -1 -1 -1 -1 -1 -1 -1 -1 -1 -1 0 0 0 0 0 0 0 4 18 51 97 97 51 17 3 0 -1 -1 -1 -1 -1 -1 -1 -1 -1 -1 -1 -1 -1 0 0 3 8 17 31 51 76 98 103 91 70 48 30 17 8 3 0 0 -1 -1 -1 -1 0 3 15 47 101 
122 87 45 19 6 1 0 -1 -1 -1 -1 -1 -1 -1 -1 -1 -1 -1 -1 -1 -1 -1 -1 -1 -1 -1 -1 -1 -1 -1 -1 -1 -1 -1 -1 -1 -1 -1 -1 -1 -1 -1 -1 -1 -1 -1 -1 -1 -1 -1 -1 -1 -1 -1 -1 -1 -1 -1 -1 0 3 17 50 95 95 50 16 3 0 -1 -1 -1 -1 -1 -1 -1 -1 -1 -1 -1 -1 -1 -1 -1 0 1 4 10 21 38 62 86 102 102 89 68 46 27 14 6 2 0 0 0 -1 0 3 15 48 100 
108 65 27 9 1 0 -1 -1 -1 -1 -1 -1 -1 -1 -1 -1 -1 -1 -1 -1 -1 -1 -1 -1 -1 -1 -1 -1 -1 -1 -1 -1 -1 -1 -1 -1 -1 -1 -1 -1 -1 -1 -1 -1 -1 -1 -1 -1 -1 -1 -1 -1 -1 -1 -1 -1 -1 -1 -1 0 3 16 49 95 95 49 16 3 0 -1 -1 -1 -1 -1 -1 -1 -1 -1 -1 -1 -1 -1 -1 -1 -1 -1 0 2 6 14 27 46 68 89 102 102 86 62 37 20 10 5 3 2 1 1 4 17 49 97 
100 55 20 5 0 -1 -1 -1 -1 -1 -1 -1 -1 -1 -1 -1 -1 -1 -1 -1 -1 -1 -1 -1 -1 -1 -1 -1 -1 -1 -1 -1 -1 -1 -1 -1 -1 -1 -1 -1 -1 -1 -1 -1 -1 -1 -1 -1 -1 -1 -1 -1 -1 -1 -1 -1 -1 -1 -1 0 3 16 49 95 95 49 16 3 0 -1 -1 -1 -1 -1 -1 -1 -1 -1 -1 -1 -1 -1 -1 -1 -1 -1 -1 0 0 3 8 17 30 49 71 93 106 100 77 51 32 22 16 11 8 6 8 20 52 97 
97 51 17 4 0 -1 -1 -1 -1 -1 -1 -1 -1 -1 -1 -1 -1 -1 -1 -1 -1 -1 -1 -1 -1 -1 -1 -1 -1 -1 -1 -1 -1 -1 -1 -1 -1 -1 -1 -1 -1 -1 -1 -1 -1 -1 -1 -1 -1 -1 -1 -1 -1 -1 -1 -1 -1 -1 -1 0 3 16 49 95 95 49 16 3 0 -1 -1 -1 -1 -1 -1 -1 -1 -1 -1 -1 -1 -1 -1 -1 -1 -1 -1 -1 -1 0 1 5 11 21 36 59 88 113 116 98 75 58 47 37 29 22 21 30 59 100 
98 50 17 4 0 0 0 0 -1 -1 -1 -1 -1 -1 -1 -1 -1 -1 -1 -1 -1 -1 -1 -1 -1 -1 -1 -1 -1 -1 -1 -1 -1 -1 -1 -1 -1 -1 -1 -1 -1 -1 -1 -1 -1 -1 -1 -1 -1 -1 -1 -1 -1 -1 -1 -1 -1 -1 -1 0 3 16 49 95 95 49 16 3 0 -1 -1 -1 -1 -1 -1 -1 -1 -1 -1 -1 -1 -1 -1 -1 -1 -1 -1 -1 -1 0 0 3 7 14 26 44 73 108 134 135 120 104 93 82 69 58 52 56 77 109 
103 53 21 8 4 3 3 2 1 0 0 0 0 0 0 0 -1 -1 -1 -1 -1 -1 -1 -1 -1 -1 -1 -1 -1 -1 -1 -1 -1 -1 -1 -1 -1 -1 -1 -1 -1 -1 -1 -1 -1 -1 -1 -1 -1 -1 -1 -1 -1 -1 -1 -1 -1 -1 -1 0 3 16 49 95 95 49 16 3 0 -1 -1 -1 -1 -1 -1 -1 -1 -1 -1 -1 -1 -1 -1 -1 -1 -1 -1 0 0 2 5 10 18 29 44 63 88 114 128 124 112 104 103 104 104 100 96 97 110 126 
113 64 33 21 17 16 15 13 11 8 5 4 3 3 3 2 1 0 0 0 0 0 0 0 0 -1 -1 -1 -1 -1 -1 -1 -1 -1 -1 -1 -1 -1 -1 -1 -1 -1 -1 -1 -1 -1 -1 -1 -1 -1 -1 -1 -1 -1 -1 -1 -1 -1 -1 0 3 16 49 95 95 49 16 3 0 -1 -1 -1 -1 -1 -1 -1 -1 -1 -1 -1 -1 -1 -1 -1 0 0 1 4 8 13 21 32 47 66 84 98 107 106 93 75 61 57 61 70 82 92 102 114 131 142 
129 91 65 54 50 49 47 43 36 28 22 18 17 16 15 13 11 8 5 4 3 3 3 3 2 1 0 0 0 0 0 0 0 -1 -1 -1 -1 -1 -1 -1 -1 -1 -1 -1 -1 -1 -1 -1 -1 -1 -1 -1 -1 -1 -1 -1 -1 -1 -1 0 3 16 49 95 95 49 16 3 0 -1 -1 -1 -1 -1 -1 -1 -1 -1 -1 -1 -1 -1 0 0 2 5 10 17 27 40 55 72 89 102 104 96 83 65 47 32 23 20 23 29 38 48 61 81 112 140 
143 125 107 99 96 94 92 88 80 69 59 53 50 49 47 43 36 28 22 18 17 16 16 15 13 11 8 5 4 3 3 3 2 1 0 0 0 0 0 0 0 0 -1 -1 -1 -1 -1 -1 -1 -1 -1 -1 -1 -1 -1 -1 -1 -1 -1 0 3 16 49 95 95 49 16 3 0 -1 -1 -1 -1 -1 -1 -1 -1 -1 -1 -1 0 1 4 7 13 21 32 47 65 83 96 103 101 89 72 55 40 27 17 10 6 5 5 8 12 17 25 44 79 125 
139 125 107 99 96 96 97 100 103 103 100 97 96 94 92 88 80 69 59 53 50 49 48 47 43 36 28 22 18 17 16 15 13 11 8 5 4 3 3 3 3 2 1 0 0 0 0 0 0 0 -1 -1 -1 -1 -1 -1 -1 -1 -1 0 3 16 49 95 95 49 16 3 0 -1 -1 -1 -1 -1 -1 -1 -1 0 0 1 4 9 17 27 40 55 72 89 101 103 96 83 65 47 32 21 13 7 4 1 0 0 0 0 2 4 10 25 59 111 
120 92 65 54 51 51 53 59 69 80 88 92 94 96 97 100 103 103 100 97 96 95 94 92 88 80 69 59 53 50 49 47 43 36 28 22 18 17 16 16 15 13 11 8 5 4 3 3 3 2 1 0 0 0 0 0 0 0 0 0 4 17 49 95 95 49 16 3 0 -1 -1 -1 -1 -1 -1 0 0 2 5 10 18 30 46 65 83 96 103 101 89 72 55 40 27 17 10 5 2 0 0 -1 -1 -1 -1 -1 0 0 5 18 51 102 
105 65 34 21 18 17 19 22 28 36 43 47 49 50 53 59 69 80 88 92 94 95 96 97 100 103 103 100 97 96 94 92 88 80 69 59 53 50 49 48 47 43 36 28 22 18 17 16 15 13 11 8 5 4 3 3 3 3 2 3 6 18 51 96 95 50 16 3 0 -1 -1 -1 0 0 1 4 8 13 21 32 48 69 88 101 103 96 83 65 47 32 21 13 8 4 1 0 0 -1 -1 -1 -1 -1 -1 -1 -1 0 3 16 49 97 
98 54 21 8 4 3 4 5 8 11 13 15 16 17 18 22 28 36 43 47 48 49 50 53 59 69 80 88 92 94 96 97 100 103 103 100 97 96 95 94 92 88 80 69 59 53 50 49 47 43 36 28 22 18 17 16 16 15 14 12 13 24 55 99 97 51 17 4 0 0 0 0 2 5 10 17 27 40 55 72 90 102 102 90 72 55 40 27 17 10 5 2 0 0 -1 -1 -1 -1 -1 -1 -1 -1 -1 -1 -1 0 3 16 49 96 
96 50 17 4 0 0 0 0 0 1 2 3 3 3 4 5 8 11 13 15 16 16 17 18 22 28 36 43 47 49 50 53 59 69 80 88 92 94 95 96 97 100 103 103 100 97 96 94 92 88 80 69 59 53 50 49 48 47 43 37 34 40 68 107 102 55 20 6 2 2 4 8 13 21 32 47 65 83 96 103 101 88 69 48 32 21 13 8 4 1 0 0 -1 -1 -1 -1 -1 -1 -1 -1 -1 -1 -1 -1 -1 0 3 16 49 95 
95 49 16 3 0 -1 -1 -1 -1 -1 0 0 0 0 0 0 0 1 2 3 3 3 3 4 5 8 11 13 15 16 17 18 22 28 36 43 47 48 49 50 53 59 69 80 88 92 94 96 97 100 103 103 100 97 96 95 94 92 89 82 74 75 95 124 114 67 29 13 8 11 17 27 40 55 72 89 101 103 96 83 65 46 30 18 10 5 2 0 0 -1 -1 -1 -1 -1 -1 -1 -1 -1 -1 -1 -1 -1 -1 -1 -1 0 3 16 49 95 
95 49 16 3 0 -1 -1 -1 -1 -1 -1 -1 -1 -1 -1 -1 -1 -1 0 0 0 0 0 0 0 0 1 2 3 3 3 4 5 8 11 13 15 16 16 17 18 22 28 36 43 47 49 50 53 59 69 80 88 92 94 95 96 97 100 104 106 110 122 139 130 90 52 32 27 34 48 65 83 96 103 101 89 72 55 40 27 17 9 4 1 0 0 -1 -1 -1 -1 -1 -1 -1 -1 -1 -1 -1 -1 -1 -1 -1 -1 -1 -1 0 3 16 49 95 
95 49 16 3 0 -1 -1 -1 -1 -1 -1 -1 -1 -1 -1 -1 -1 -1 -1 -1 -1 -1 -1 -1 -1 -1 -1 0 0 0 0 0 0 0 1 2 3 3 3 3 4 5 8 11 13 15 16 17 18 22 28 36 43 47 48 49 50 53 59 69 81 91 102 116 125 115 90 71 67 76 90 102 103 96 83 65 47 32 21 13 7 4 1 0 0 -1 -1 -1 -1 -1 -1 -1 -1 -1 -1 -1 -1 -1 -1 -1 -1 -1 -1 -1 -1 0 3 16 49 95 
95 49 16 3 0 -1 -1 -1 -1 -1 -1 -1 -1 -1 -1 -1 -1 -1 -1 -1 -1 -1 -1 -1 -1 -1 -1 -1 -1 -1 -1 -1 -1 -1 -1 0 0 0 0 0 0 0 0 1 2 3 3 3 4 5 8 11 13 15 16 16 17 18 22 28 36 44 52 66 89 115 126 121 113 109 103 90 72 55 40 27 17 10 5 2 0 0 -1 -1 -1 -1 -1 -1 -1 -1 -1 -1 -1 -1 -1 -1 -1 -1 -1 -1 -1 -1 -1 -1 -1 0 3 16 49 95 
95 49 16 3 0 -1 -1 -1 -1 -1 -1 -1 -1 -1 -1 -1 -1 -1 -1 -1 -1 -1 -1 -1 -1 -1 -1 -1 -1 -1 -1 -1 -1 -1 -1 -1 -1 -1 -1 -1 -1 -1 -1 0 0 0 0 0 0 0 1 2 2 3 3 3 3 4 5 8 11 15 19 29 51 90 130 138 116 90 68 48 32 21 13 8 4 1 0 0 0 -1 -1 -1 -1 -1 -1 -1 -1 -1 -1 -1 -1 -1 -1 -1 -1 -1 -1 -1 -1 -1 -1 -1 -1 0 3 16 49 95 
96 50 17 4 0 0 0 0 0 0 0 0 0 0 0 0 0 0 0 0 0 0 0 0 0 0 0 0 0 0 0 0 0 0 0 0 0 0 0 0 0 0 0 0 0 0 0 0 0 0 0 0 0 0 0 0 0 0 1 2 3 4 6 13 30 68 115 123 87 53 32 19 11 6 4 2 1 0 0 0 0 0 0 0 0 0 0 0 0 0 0 0 0 0 0 0 0 0 0 0 0 0 0 0 0 0 4 17 50 96 
99 54 21 8 4 3 3 3 3 3 3 3 3 3 3 3 3 3 3 3 3 3 3 3 3 3 3 3 3 3 3 3 3 3 3 3 3 3 3 3 3 3 3 3 3 3 3 3 3 3 3 3 3 3 3 3 3 3 3 4 4 4 6 11 25 60 106 109 67 34 17 10 7 5 4 4 3 3 3 3 3 3 3 3 3 3 3 3 3 3 3 3 3 3 3 3 3 3 3 3 3 3 3 3 3 4 8 21 54 99 
107 65 34 21 17 16 16 16 16 16 16 16 16 16 16 16 16 16 16 16 16 16 16 16 16 16 16 16 16 16 16 16 15 15 15 16 16 16 16 16 16 16 16 16 16 16 16 16 16 15 15 16 16 16 16 16 16 16 16 16 16 17 18 22 35 67 109 110 69 38 24 19 17 17 16 16 16 16 16 16 16 16 16 16 16 16 16 16 16 16 16 15 15 15 16 16 16 16 16 16 16 16 16 15 15 17 21 34 65 107 
126 92 65 54 50 49 49 49 49 49 49 49 49 49 49 49 49 49 49 49 49 49 49 49 49 49 49 49 49 49 49 48 48 47 48 48 49 49 49 49 49 49 49 49 49 49 49 49 48 48 48 48 49 49 49 49 49 49 49 49 49 49 50 54 66 92 125 126 92 66 55 51 50 49 49 49 49 49 49 49 49 49 49 49 49 49 49 49 49 49 48 48 47 48 48 49 49 49 49 49 49 49 48 48 48 49 53 65 91 126 
151 126 107 99 96 95 95 95 95 95 95 95 95 95 95 95 95 95 95 95 95 95 95 95 95 95 95 95 95 95 97 99 101 101 100 97 96 95 95 95 95 95 95 95 95 95 95 97 99 102 102 99 96 95 95 95 95 95 95 95 95 95 96 98 105 119 136 136 119 105 98 96 95 95 95 95 95 95 95 95 95 95 95 95 95 95 95 95 95 96 98 101 102 100 97 96 95 95 95 95 95 96 98 100 102 101 101 108 127 151 
