P2
110 110
255
151 126 107 98 96 95 95 95 95 95 95 95 95 95 95 95 95 95 95 95 95 95 95 95 95 95 95 95 96 99 107 122 136 137 123 108 100 96 95 95 95 95 95 95 95 96 98 105 120 137 137 119 104 98 96 95 95 95 95 95 95 95 95 96 97 99 102 102 99 97 96 95 95 95 95 95 95 95 95 95 95 95 95 95 95 95 95 96 98 103 116 133 139 125 109 100 97 95 95 96 97 102 114 131 139 127 113 112 128 152 
126 91 64 53 50 49 48 48 48 48 48 48 48 48 48 48 48 48 48 48 48 48 48 48 48 48 49 49 52 60 78 108 130 119 88 65 54 50 49 49 48 48 48 48 49 50 54 66 94 128 126 90 64 53 50 49 48 48 48 48 48 48 48 48 48 47 47 47 47 48 48 48 48 48 48 48 48 48 48 48 48 48 48 48 48 48 49 50 54 67 94 125 126 95 68 55 50 49 49 49 52 62 85 119 129 101 75 71 92 127 
107 64 33 20 17 16 15 15 15 15 15 15 15 15 15 15 15 15 15 15 15 15 15 15 15 16 16 18 23 38 67 104 113 82 47 27 19 16 16 15 15 15 15 16 16 18 23 39 75 117 109 63 33 20 17 16 15 15 15 15 15 15 15 15 15 15 15 15 15 15 15 15 15 15 15 15 15 15 15 15 15 15 15 15 15 16 16 18 25 45 82 114 98 58 31 20 17 16 16 17 21 33 64 106 109 69 41 39 65 107 
98 53 20 8 4 3 3 2 2 2 2 2 2 2 2 2 2 2 2 2 2 2 2 2 3 3 4 8 18 42 80 107 90 50 22 9 4 3 3 2 2 2 3 3 3 6 14 35 78 119 102 52 20 7 4 3 3 2 2 2 2 2 2 2 2 2 2 2 2 2 2 2 2 2 2 2 2 2 2 2 2 2 2 2 3 3 4 7 18 44 87 107 73 34 13 6 3 3 3 4 10 25 61 103 94 51 24 25 54 99 
96 50 17 4 0 0 0 0 0 0 0 0 0 0 0 0 0 0 0 0 0 0 0 0 0 0 2 10 29 64 99 99 62 28 9 2 0 0 0 0 0 0 0 0 0 5 17 47 95 130 102 48 16 4 0 0 0 0 0 0 0 0 0 0 0 0 0 0 0 0 0 0 0 0 0 0 0 0 0 0 0 0 0 0 0 0 1 6 21 55 97 97 54 21 6 0 0 0 0 1 8 29 70 105 82 39 17 20 50 96 
95 49 16 3 0 -1 -1 -1 -1 -1 -1 -1 -1 -1 -1 -1 -1 -1 -1 -1 -1 -1 -1 -1 -1 0 5 20 49 89 104 75 37 13 3 0 -1 -1 -1 -1 -1 -1 -1 0 1 9 29 68 116 138 103 48 15 3 0 -1 -1 -1 -1 -1 -1 -1 -1 -1 -1 -1 -1 -1 -1 -1 -1 -1 -1 -1 -1 -1 -1 -1 -1 -1 -1 -1 -1 -1 -1 -1 1 9 31 72 104 83 39 12 2 0 -1 -1 0 1 11 37 82 104 69 29 12 18 49 95 
95 48 15 3 0 -1 -2 -2 -2 -2 -2 -2 -2 -2 -2 -2 -2 -2 -2 -2 -2 -2 -1 -1 0 3 13 37 75 104 88 49 19 5 0 -1 -1 -2 -2 -2 -2 -1 -1 0 4 17 46 92 128 137 104 51 17 3 0 -1 -1 -2 -2 -2 -2 -2 -2 -2 -2 -2 -2 -2 -2 -2 -2 -2 -2 -2 -2 -2 -2 -2 -2 -2 -2 -2 -2 -1 -1 0 3 16 46 89 102 65 26 7 0 -1 -1 -1 0 3 15 46 92 99 57 21 9 17 49 95 
95 48 15 2 0 -1 -2 -2 -2 -2 -2 -2 -2 -2 -2 -2 -2 -2 -2 -2 -2 -2 -1 -1 1 9 28 62 98 98 62 28 9 1 -1 -1 -2 -2 -2 -2 -2 -1 -1 1 10 30 69 109 123 126 107 58 21 5 0 -1 -2 -2 -2 -2 -2 -2 -2 -2 -2 -2 -2 -2 -2 -2 -2 -2 -2 -2 -2 -2 -2 -2 -2 -2 -2 -2 -2 -1 -1 0 7 26 65 102 89 46 16 3 0 -1 -1 -1 0 4 20 56 99 92 46 16 8 17 49 95 
95 48 15 2 0 -1 -2 -2 -2 -2 -2 -2 -2 -2 -2 -2 -2 -2 -2 -2 -2 -1 -1 0 5 19 49 88 103 75 37 13 3 0 -1 -2 -2 -2 -2 -2 -1 -1 0 5 20 50 92 111 103 108 109 69 27 7 0 -1 -1 -2 -2 -2 -2 -2 -2 -2 -2 -2 -2 -2 -2 -2 -2 -2 -2 -2 -2 -2 -2 -2 -2 -2 -2 -2 -2 -1 0 2 12 39 83 104 71 31 9 1 -1 -1 -1 -1 0 7 28 69 104 82 37 12 6 16 49 95 
95 49 15 2 0 -1 -2 -2 -2 -2 -2 -2 -2 -2 -2 -2 -2 -2 -2 -2 -2 -1 0 3 13 37 75 103 88 49 19 5 0 -1 -1 -2 -2 -2 -2 -2 -1 0 3 13 37 76 105 95 75 87 108 80 35 10 1 -1 -1 -2 -2 -2 -2 -2 -2 -2 -2 -2 -2 -2 -2 -2 -2 -2 -2 -2 -2 -2 -2 -2 -2 -2 -2 -2 -2 -1 0 4 20 54 96 96 54 20 4 0 -1 -1 -1 -1 1 11 37 81 104 69 28 8 5 16 49 95 
95 49 16 3 0 -1 -2 -2 -2 -2 -2 -2 -2 -2 -2 -2 -2 -2 -2 -2 -1 -1 1 9 28 62 98 98 62 28 9 1 -1 -1 -2 -2 -2 -2 -2 -1 -1 1 8 26 61 98 100 69 50 69 103 89 42 13 2 -1 -1 -2 -2 -2 -2 -2 -2 -2 -2 -2 -2 -2 -2 -2 -2 -2 -2 -2 -2 -2 -2 -2 -2 -2 -2 -2 -1 -1 1 9 31 71 104 83 39 12 2 0 -1 -2 -1 0 3 15 46 92 99 56 20 6 4 16 48 95 
96 50 16 3 0 -1 -2 -2 -2 -2 -2 -2 -2 -2 -2 -2 -2 -2 -2 -1 -1 0 5 19 49 88 103 75 37 13 3 0 -1 -2 -2 -2 -2 -2 -2 -1 0 4 16 45 86 104 77 43 33 57 98 93 46 15 2 0 -1 -2 -2 -2 -2 -2 -2 -2 -2 -2 -2 -2 -2 -2 -2 -2 -2 -2 -2 -2 -2 -2 -2 -2 -2 -2 -1 0 3 16 46 89 102 65 26 7 0 -1 -1 -1 -1 0 4 20 56 99 92 46 15 4 4 16 48 95 
100 54 19 4 0 -1 -1 -2 -2 -2 -2 -2 -2 -2 -2 -2 -2 -2 -2 -1 0 3 13 37 75 103 88 49 19 5 0 -1 -1 -2 -2 -2 -2 -2 -1 -1 1 9 29 68 102 91 52 25 24 51 96 95 49 16 3 0 -1 -2 -2 -2 -2 -2 -2 -2 -2 -2 -2 -2 -2 -2 -2 -2 -2 -2 -2 -2 -2 -2 -2 -2 -2 -1 -1 0 7 26 65 102 89 46 16 3 0 -1 -2 -1 -1 0 7 28 69 104 81 37 11 2 3 15 48 96 
108 64 26 8 1 -1 -1 -2 -2 -2 -2 -2 -2 -2 -2 -2 -2 -2 -1 -1 1 9 28 62 98 98 62 28 9 1 -1 -1 -2 -2 -2 -2 -2 -1 -1 0 4 17 47 89 103 69 32 14 18 47 93 97 52 18 3 0 -1 -2 -2 -2 -2 -2 -2 -2 -2 -2 -2 -2 -2 -2 -2 -2 -2 -2 -2 -2 -2 -2 -2 -2 -2 -1 0 2 12 39 83 104 71 31 9 1 -1 -1 -2 -1 -1 1 11 37 81 104 69 28 7 1 3 15 48 97 
122 86 43 17 5 0 -1 -1 -2 -2 -2 -2 -2 -2 -2 -2 -2 -1 -1 0 5 19 49 88 103 75 37 13 3 0 -1 -2 -2 -2 -2 -2 -2 -1 -1 1 10 31 69 103 89 47 18 8 15 43 89 101 59 21 5 0 -1 -2 -2 -2 -2 -2 -2 -2 -2 -2 -2 -2 -2 -2 -2 -2 -2 -2 -2 -2 -2 -2 -2 -2 -2 -1 0 4 20 54 96 96 54 20 4 0 -1 -2 -2 -1 0 3 15 46 92 99 56 20 5 0 3 15 47 100 
136 115 73 37 15 4 0 -1 -1 -2 -2 -2 -2 -2 -2 -2 -2 -1 0 3 13 37 75 103 88 49 19 5 0 -1 -1 -2 -2 -2 -2 -2 -1 -1 0 5 20 51 91 102 68 29 10 4 11 36 80 104 69 28 7 0 -1 -1 -2 -2 -2 -2 -2 -2 -2 -2 -2 -2 -2 -2 -2 -2 -2 -2 -2 -2 -2 -2 -2 -2 -1 -1 1 9 31 71 104 83 39 12 2 0 -1 -2 -2 -1 0 4 20 56 99 92 46 15 3 0 3 15 47 102 
137 131 105 68 34 12 3 0 -1 -1 -2 -2 -2 -2 -2 -2 -1 -1 1 9 28 62 98 98 62 28 9 1 -1 -1 -2 -2 -2 -2 -2 -2 -1 0 3 13 37 76 104 86 45 16 4 2 7 28 69 104 80 35 10 1 -1 -1 -2 -2 -2 -2 -2 -2 -2 -2 -2 -2 -2 -2 -2 -2 -2 -2 -2 -2 -2 -2 -2 -2 -1 0 3 16 46 89 102 65 26 7 0 -1 -1 -2 -1 -1 0 7 28 69 104 81 37 11 1 0 2 15 47 101 
125 117 114 98 61 27 9 1 0 -1 -2 -2 -2 -2 -2 -1 -1 0 5 19 49 88 103 75 37 13 3 0 -1 -2 -2 -2 -2 -2 -2 -1 -1 1 8 26 62 98 98 62 26 8 1 0 5 21 59 101 89 42 13 2 -1 -1 -2 -2 -2 -2 -2 -2 -2 -2 -2 -2 -2 -2 -2 -2 -2 -2 -2 -2 -2 -2 -2 -1 -1 0 7 26 65 102 89 46 16 3 0 -1 -2 -2 -1 -1 1 11 37 81 104 69 28 7 0 0 2 15 47 99 
111 92 95 107 89 50 21 6 1 -1 -1 -2 -2 -2 -2 -1 0 3 13 37 75 103 88 49 19 5 0 -1 -1 -2 -2 -2 -2 -2 -2 -1 0 4 16 45 86 104 76 37 13 3 0 0 3 18 52 97 93 46 15 2 0 -1 -2 -2 -2 -2 -2 -2 -2 -2 -2 -2 -2 -2 -2 -2 -2 -2 -2 -2 -2 -2 -2 -1 0 2 12 39 83 104 71 31 9 1 -1 -1 -2 -2 -1 0 3 15 46 92 99 56 20 4 0 0 3 15 48 97 
102 72 68 93 104 78 42 18 5 0 -1 -1 -2 -2 -1 -1 1 9 28 62 98 98 62 28 9 1 -1 -1 -2 -2 -2 -2 -2 -2 -1 -1 1 9 29 68 102 91 51 20 5 0 -1 0 3 16 49 95 95 49 16 3 0 -1 -2 -2 -2 -2 -2 -2 -2 -2 -2 -2 -2 -2 -2 -2 -2 -2 -2 -2 -2 -2 -2 -1 0 4 20 54 96 96 54 20 4 0 -1 -2 -2 -2 -1 0 4 20 56 99 92 46 15 3 0 0 3 15 48 96 
98 60 45 66 97 101 73 39 17 5 0 -1 -1 -1 -1 0 5 19 49 88 103 75 37 13 3 0 -1 -2 -2 -2 -2 -2 -2 -1 -1 0 4 17 47 89 103 69 31 10 1 -1 -1 0 2 15 46 93 97 52 18 3 0 -1 -2 -2 -2 -2 -2 -2 -2 -2 -2 -2 -2 -2 -2 -2 -2 -2 -2 -2 -2 -2 -1 -1 1 9 31 71 104 83 39 12 2 0 -1 -2 -2 -1 -1 0 7 28 69 104 81 37 11 1 0 0 3 15 48 95 
96 53 30 39 69 99 100 72 39 16 5 0 -1 -1 0 3 13 37 75 103 88 49 19 5 0 -1 -1 -2 -2 -2 -2 -2 -2 -1 -1 1 10 31 69 103 89 47 17 4 0 -1 -1 -1 2 13 42 89 101 59 21 5 0 -1 -2 -2 -2 -2 -2 -2 -2 -2 -2 -2 -2 -2 -2 -2 -2 -2 -2 -2 -2 -2 -1 0 3 16 46 89 102 65 26 7 0 -1 -1 -2 -2 -1 -1 1 11 37 81 104 69 28 7 0 -1 0 2 15 48 95 
96 50 22 20 39 71 100 100 71 39 16 5 0 0 1 9 28 62 98 98 62 28 9 1 -1 -1 -2 -2 -2 -2 -2 -2 -1 -1 0 5 20 51 91 102 68 29 9 1 -1 -1 -1 -1 1 10 35 80 104 69 28 7 0 -1 -1 -2 -2 -2 -2 -2 -2 -2 -2 -2 -2 -2 -2 -2 -2 -2 -2 -2 -2 -1 -1 0 7 26 65 102 89 46 16 3 0 -1 -2 -2 -2 -1 0 3 15 46 92 99 56 20 4 0 -1 0 2 15 48 95 
95 49 18 10 17 39 71 100 100 71 39 17 6 3 6 20 49 88 104 75 37 13 3 0 -1 -2 -2 -2 -2 -2 -2 -2 -1 0 3 13 37 76 104 86 45 16 4 0 -1 -1 -1 -1 0 7 28 69 104 80 36 10 1 -1 -1 -2 -2 -2 -2 -2 -2 -2 -2 -2 -2 -2 -2 -2 -2 -2 -2 -2 -2 -1 0 2 12 39 83 104 71 31 9 1 -1 -1 -2 -2 -2 -1 0 4 20 56 99 92 46 15 3 0 -1 0 2 15 48 95 
95 49 16 5 6 17 39 71 100 100 71 39 18 11 16 38 76 104 88 49 19 5 0 -1 -1 -2 -2 -2 -2 -2 -2 -1 -1 1 8 26 62 98 98 62 26 8 1 -1 -1 -2 -2 -1 0 5 21 58 100 89 42 13 2 -1 -1 -2 -2 -2 -2 -2 -2 -2 -2 -2 -2 -2 -2 -2 -2 -2 -2 -2 -2 -1 0 4 20 54 96 96 54 20 4 0 -1 -2 -2 -2 -1 -1 0 7 28 69 104 81 37 11 1 -1 -1 0 2 15 48 95 
95 48 16 3 1 5 17 39 71 100 100 72 42 28 35 65 99 98 62 28 9 1 -1 -1 -2 -2 -2 -2 -2 -2 -2 -1 0 4 16 45 86 104 76 37 13 3 0 -1 -2 -2 -2 -1 0 3 17 52 97 94 47 15 2 0 -1 -2 -2 -2 -2 -2 -2 -2 -2 -2 -2 -2 -2 -2 -2 -2 -2 -2 -1 -1 1 9 31 71 104 83 39 12 2 0 -1 -2 -2 -2 -1 -1 1 11 37 81 104 69 28 7 0 -1 -1 0 2 15 48 95 
95 48 16 3 0 0 5 16 39 71 100 102 79 60 67 94 105 75 37 13 3 0 -1 -2 -2 -2 -2 -2 -2 -2 -1 -1 1 9 29 68 102 91 51 20 5 0 -1 -1 -2 -2 -2 -1 0 2 15 47 94 97 52 17 3 0 -1 -2 -2 -2 -2 -2 -2 -2 -2 -2 -2 -2 -2 -2 -2 -2 -2 -2 -1 0 3 16 46 89 102 65 26 7 0 -1 -1 -2 -2 -2 -1 0 3 15 46 92 99 56 20 4 0 -1 -1 0 2 15 48 95 
95 48 15 3 0 0 0 5 16 39 72 102 110 104 107 112 89 49 19 5 0 -1 -1 -2 -2 -2 -2 -2 -2 -1 -1 0 4 17 47 89 103 69 31 10 1 -1 -1 -2 -2 -2 -2 -1 -1 2 13 42 89 100 58 21 5 0 -1 -2 -2 -2 -2 -2 -2 -2 -2 -2 -2 -2 -2 -2 -2 -2 -2 -1 -1 0 7 26 65 102 89 46 16 3 0 -1 -2 -2 -2 -2 -1 0 4 20 56 99 92 46 15 3 0 -1 -1 0 2 15 48 95 
95 48 15 2 0 -1 -1 0 5 17 39 74 111 134 134 107 63 28 9 1 -1 -1 -2 -2 -2 -2 -2 -2 -2 -1 -1 1 10 31 69 103 89 47 17 4 0 -1 -1 -2 -2 -2 -2 -1 -1 1 10 36 80 104 69 28 7 0 -1 -1 -2 -2 -2 -2 -2 -2 -2 -2 -2 -2 -2 -2 -2 -2 -2 -1 0 2 12 39 83 104 71 31 9 1 -1 -1 -2 -2 -2 -1 -1 0 7 28 69 104 81 37 11 1 -1 -1 -1 0 2 15 48 95 
95 48 15 2 0 -1 -1 -1 0 5 18 44 86 129 129 85 40 14 3 0 -1 -2 -2 -2 -2 -2 -2 -2 -1 -1 0 5 20 51 91 102 68 29 9 1 -1 -1 -2 -2 -2 -2 -2 -1 -1 0 7 28 69 104 80 35 10 1 -1 -1 -2 -2 -2 -2 -2 -2 -2 -2 -2 -2 -2 -2 -2 -2 -2 -1 0 4 20 54 96 96 54 20 4 0 -1 -2 -2 -2 -2 -1 -1 1 11 37 81 104 69 28 7 0 -1 -1 -1 0 2 15 48 95 
95 48 15 2 0 -1 -1 -1 -1 1 8 25 62 110 114 67 27 8 0 -1 -1 -2 -2 -2 -2 -2 -2 -2 -1 0 3 13 37 76 104 86 45 16 4 0 -1 -2 -2 -2 -2 -2 -2 -2 -1 0 5 21 59 101 89 42 13 2 -1 -1 -2 -2 -2 -2 -2 -2 -2 -2 -2 -2 -2 -2 -2 -2 -1 -1 1 9 31 71 104 83 39 12 2 0 -1 -2 -2 -2 -2 -1 0 3 15 46 92 99 56 20 4 0 -1 -1 -1 0 2 15 48 95 
95 48 15 2 0 -1 -2 -1 -1 0 3 16 47 95 106 64 24 6 0 -1 -1 -2 -2 -2 -2 -2 -2 -1 -1 1 8 26 62 98 98 62 26 8 1 -1 -1 -2 -2 -2 -2 -2 -2 -2 -1 0 3 18 52 97 93 46 15 2 0 -1 -2 -2 -2 -2 -2 -2 -2 -2 -2 -2 -2 -2 -2 -2 -1 0 3 16 46 89 102 65 26 7 0 -1 -1 -2 -2 -2 -2 -1 0 4 20 56 99 92 46 15 3 0 -1 -2 -1 0 2 15 48 95 
95 48 15 2 0 -1 -2 -2 -1 -1 1 11 37 82 105 70 28 7 0 -1 -1 -2 -2 -2 -2 -2 -2 -1 0 4 16 45 86 104 76 37 13 3 0 -1 -2 -2 -2 -2 -2 -2 -2 -2 -1 0 3 16 49 95 95 49 16 3 0 -1 -2 -2 -2 -2 -2 -2 -2 -2 -2 -2 -2 -2 -2 -1 -1 0 7 26 65 102 89 46 16 3 0 -1 -2 -2 -2 -2 -1 -1 0 7 28 69 104 81 37 11 1 -1 -1 -2 -1 0 2 15 48 95 
95 48 15 2 0 -1 -2 -2 -1 -1 0 7 28 69 104 81 36 10 1 -1 -1 -2 -2 -2 -2 -2 -1 -1 1 9 29 68 102 91 51 20 5 0 -1 -1 -2 -2 -2 -2 -2 -2 -2 -2 -1 0 2 15 46 93 97 52 18 3 0 -1 -2 -2 -2 -2 -2 -2 -2 -2 -2 -2 -2 -2 -2 -1 0 2 12 39 83 104 71 31 9 1 -1 -1 -2 -2 -2 -2 -1 -1 1 11 37 81 104 69 28 7 0 -1 -1 -2 -1 0 3 16 49 95 
95 48 15 2 0 -1 -2 -2 -2 -1 0 5 21 58 100 90 43 14 2 0 -1 -2 -2 -2 -2 -1 -1 0 4 17 47 89 103 69 31 10 1 -1 -1 -2 -2 -2 -2 -2 -2 -2 -2 -2 -1 -1 2 13 42 89 101 59 21 5 0 -1 -2 -2 -2 -2 -2 -2 -2 -2 -2 -2 -2 -2 -2 -1 0 4 20 54 96 96 54 20 4 0 -1 -2 -2 -2 -2 -2 -1 0 3 15 46 92 99 56 20 4 0 -1 -2 -2 -1 0 3 16 50 96 
96 48 15 2 0 -1 -2 -2 -2 -1 0 3 17 50 95 95 50 17 3 0 -1 -2 -2 -2 -2 -1 -1 1 10 31 69 103 89 47 17 4 0 -1 -1 -2 -2 -2 -2 -2 -2 -2 -2 -2 -1 -1 1 10 35 80 104 69 28 7 0 -1 -1 -2 -2 -2 -2 -2 -2 -2 -2 -2 -2 -2 -1 -1 1 9 31 71 104 83 39 12 2 0 -1 -2 -2 -2 -2 -2 -1 0 4 20 56 99 92 46 15 3 0 -1 -2 -2 -1 0 3 18 52 99 
97 48 15 2 0 -1 -2 -2 -2 -1 0 2 13 43 90 100 58 21 5 0 -1 -2 -2 -2 -1 -1 0 5 20 51 91 102 68 29 9 1 -1 -1 -2 -2 -2 -2 -2 -2 -2 -2 -2 -2 -1 -1 0 7 28 69 104 80 35 10 1 -1 -1 -2 -2 -2 -2 -2 -2 -2 -2 -2 -2 -2 -1 0 3 16 46 89 102 65 26 7 0 -1 -1 -2 -2 -2 -2 -1 -1 0 7 28 69 104 81 37 11 1 -1 -1 -2 -1 -1 0 5 22 60 105 
99 47 15 2 0 -1 -2 -2 -2 -1 -1 1 10 36 81 104 69 28 7 0 -1 -1 -2 -2 -1 0 3 13 37 76 104 86 45 16 4 0 -1 -2 -2 -2 -2 -2 -2 -2 -2 -2 -2 -2 -2 -1 0 5 21 59 101 89 42 13 2 -1 -1 -2 -2 -2 -2 -2 -2 -2 -2 -2 -2 -1 -1 0 7 26 65 102 89 46 16 3 0 -1 -2 -2 -2 -2 -2 -1 -1 1 11 37 81 104 69 28 7 0 -1 -1 -2 -1 -1 1 10 32 74 116 
101 46 14 2 0 -1 -2 -2 -2 -1 -1 0 7 28 69 104 81 36 10 1 -1 -1 -2 -1 -1 1 8 26 62 98 98 62 26 8 1 -1 -1 -2 -2 -2 -2 -2 -2 -2 -2 -2 -2 -2 -2 -1 0 3 18 52 97 93 46 15 2 0 -1 -2 -2 -2 -2 -2 -2 -2 -2 -2 -2 -1 0 2 12 39 83 104 71 31 9 1 -1 -1 -2 -2 -2 -2 -2 -1 0 3 15 46 92 99 56 20 4 0 -1 -1 -1 -1 0 5 19 50 97 130 
101 46 14 2 0 -1 -2 -2 -2 -2 -1 0 5 21 58 100 90 43 13 2 0 -1 -1 -1 0 4 16 45 86 104 76 37 13 3 0 -1 -2 -2 -2 -2 -2 -2 -2 -2 -2 -2 -2 -2 -2 -1 0 3 16 49 95 95 49 16 3 0 -1 -2 -2 -2 -2 -2 -2 -2 -2 -2 -2 -1 0 4 20 54 96 96 54 20 4 0 -1 -2 -2 -2 -2 -2 -2 -1 0 4 20 56 99 92 46 15 3 0 -1 -1 -1 0 3 13 36 76 121 138 
100 47 15 2 0 -1 -2 -2 -2 -2 -1 0 3 17 50 95 95 50 17 3 0 -1 -1 -1 1 9 29 68 102 91 51 20 5 0 -1 -1 -2 -2 -2 -2 -2 -2 -2 -2 -2 -2 -2 -2 -2 -1 0 2 15 46 93 97 52 18 3 0 -1 -2 -2 -2 -2 -2 -2 -2 -2 -2 -1 -1 1 9 31 71 104 83 39 12 2 0 -1 -2 -2 -2 -2 -2 -1 -1 0 7 28 69 104 81 37 11 1 -1 -1 -1 -1 1 9 27 62 104 130 135 
99 48 15 2 0 -1 -2 -2 -2 -2 -1 0 2 13 43 90 100 58 21 5 0 -1 -1 0 4 17 47 89 103 69 31 10 1 -1 -1 -2 -2 -2 -2 -2 -2 -2 -2 -2 -2 -2 -2 -2 -2 -1 -1 2 13 42 89 101 59 21 5 0 -1 -1 -1 -2 -2 -2 -2 -2 -2 -2 -1 0 3 16 46 89 102 65 26 7 0 -1 -1 -2 -2 -2 -2 -2 -1 -1 1 11 37 81 104 69 28 7 0 -1 -1 -1 0 5 19 49 89 115 119 124 
97 48 15 2 0 -1 -2 -2 -2 -2 -1 -1 1 10 36 81 104 69 28 7 0 -1 0 1 10 31 69 103 89 47 17 4 0 -1 -1 -2 -2 -2 -2 -2 -2 -2 -2 -2 -2 -2 -2 -2 -2 -1 -1 1 10 36 81 104 70 29 8 1 0 -1 -1 -1 -1 -1 -1 -1 -1 -1 -1 0 7 26 65 102 89 46 16 3 0 -1 -2 -2 -2 -2 -2 -2 -1 0 3 15 46 92 99 56 20 4 0 -1 -1 0 3 13 37 75 106 104 98 112 
96 48 15 2 0 -1 -2 -2 -2 -2 -1 -1 0 7 28 69 104 81 36 10 1 0 0 5 20 51 91 102 68 29 9 1 -1 -1 -2 -2 -2 -2 -2 -2 -2 -2 -2 -2 -2 -2 -2 -2 -2 -1 -1 0 8 29 71 106 84 40 15 6 3 1 0 0 0 0 0 -1 -1 -1 0 2 13 39 83 104 71 31 9 1 -1 -1 -2 -2 -2 -2 -2 -2 -1 0 4 20 56 99 92 46 15 3 0 -1 -1 1 9 28 62 99 102 80 78 104 
95 48 15 2 0 -1 -2 -2 -2 -2 -2 -1 0 5 21 58 100 90 43 14 2 0 3 13 37 76 104 86 45 16 4 0 -1 -2 -2 -2 -2 -2 -2 -2 -2 -2 -2 -2 -2 -2 -2 -2 -1 -1 -1 1 7 26 65 108 100 58 30 19 14 10 7 5 3 3 2 2 1 0 1 6 21 54 97 96 54 20 4 0 -1 -2 -2 -2 -2 -2 -2 -1 -1 0 7 28 69 104 81 37 11 1 -1 -1 0 5 19 49 88 104 80 55 64 99 
95 48 15 2 0 -1 -2 -2 -2 -2 -2 -1 0 3 17 50 95 95 50 17 4 2 8 26 62 98 98 62 26 8 1 -1 -1 -2 -2 -2 -2 -2 -2 -2 -2 -2 -2 -2 -2 -2 -2 -1 -1 -1 0 4 13 33 72 118 122 88 62 50 43 36 28 21 18 16 15 13 10 8 8 14 35 73 105 83 39 12 2 0 -1 -2 -2 -2 -2 -2 -2 -1 -1 1 11 37 81 104 69 28 7 0 -1 0 3 13 37 75 104 89 54 37 56 97 
95 48 15 2 0 -1 -2 -2 -2 -2 -2 -1 0 2 13 43 90 100 58 21 6 5 17 45 86 104 76 37 13 3 0 -1 -2 -2 -2 -2 -2 -2 -2 -2 -2 -2 -2 -2 -2 -2 -1 -1 0 1 5 14 30 56 95 132 139 120 104 96 89 81 69 59 52 49 46 42 36 29 26 34 59 96 104 66 27 7 0 -1 -1 -2 -2 -2 -2 -2 -2 -1 0 3 15 46 92 99 56 20 4 0 0 1 9 28 62 98 98 64 33 27 52 96 
95 48 15 2 0 -1 -2 -2 -2 -2 -2 -1 -1 1 10 36 81 104 69 28 10 11 30 68 102 91 51 20 5 0 -1 -1 -2 -2 -2 -2 -2 -2 -2 -2 -2 -2 -2 -2 -1 -1 -1 0 3 9 19 37 63 92 114 121 114 104 99 98 101 104 104 101 97 95 93 89 81 71 65 72 96 117 95 49 17 4 0 -1 -2 -2 -2 -2 -2 -2 -2 -1 0 4 20 56 99 92 46 15 3 0 0 5 19 49 88 104 76 38 18 21 50 95 
95 48 15 2 0 -1 -2 -2 -2 -2 -2 -1 -1 0 7 28 69 104 81 38 17 21 48 89 103 69 31 10 1 -1 -1 -2 -2 -2 -2 -2 -2 -2 -2 -2 -2 -2 -2 -1 -1 0 1 5 13 28 49 76 99 105 94 75 60 52 51 53 59 69 80 89 93 95 97 101 104 106 107 116 133 130 86 39 12 2 0 -1 -1 -2 -2 -2 -2 -2 -1 -1 0 7 28 69 104 81 37 11 2 0 3 13 37 75 104 88 49 21 10 18 49 95 
95 48 15 2 0 -1 -2 -2 -2 -2 -2 -2 -1 0 5 21 58 100 90 47 26 35 70 103 89 47 17 4 0 -1 -1 -2 -2 -2 -2 -2 -2 -2 -2 -2 -2 -1 -1 -1 0 3 9 19 37 62 88 104 98 76 51 33 22 18 17 18 21 28 35 42 46 49 52 59 69 82 95 112 131 130 87 40 14 3 0 -1 -1 -1 -1 -1 -1 -1 -1 0 1 11 37 82 104 69 28 7 1 2 9 28 62 98 98 62 28 10 6 16 49 95 
95 48 15 2 0 -1 -2 -2 -2 -2 -2 -2 -1 0 3 17 50 96 97 58 39 56 92 102 68 29 9 1 -1 -1 -2 -2 -2 -2 -2 -2 -2 -2 -2 -2 -1 -1 0 0 4 12 27 49 75 98 104 88 62 38 20 10 5 3 3 3 5 7 10 13 15 16 18 21 28 37 49 66 94 116 99 55 23 8 2 0 0 0 0 0 0 0 0 0 4 16 47 92 99 57 21 5 2 6 20 49 88 104 75 37 14 4 4 16 49 95 
95 48 15 2 0 -1 -2 -2 -2 -2 -2 -2 -1 0 2 13 43 90 104 73 61 83 105 86 45 16 4 0 -1 -2 -2 -2 -2 -2 -2 -2 -2 -2 -2 -1 -1 0 1 6 16 34 61 88 103 98 75 49 28 13 5 1 0 0 0 0 0 0 1 2 2 3 3 5 7 11 18 30 55 92 108 82 45 22 11 6 4 3 3 2 2 3 3 4 9 25 60 101 93 48 16 4 4 14 37 75 104 88 49 19 5 1 3 16 48 95 
95 48 15 2 0 -1 -2 -2 -2 -2 -2 -2 -1 -1 1 10 36 81 110 96 91 106 99 61 26 8 1 -1 -1 -2 -2 -2 -2 -2 -2 -2 -2 -1 -1 -1 0 3 9 21 41 70 97 104 89 63 37 19 9 3 0 -1 -1 -1 -1 -1 -1 -1 -1 -1 0 0 0 0 0 2 4 12 30 64 103 110 82 52 33 23 18 16 16 15 15 16 16 18 24 43 80 111 88 42 15 6 10 28 63 98 98 62 28 9 1 0 3 15 48 95 
95 48 15 2 0 -1 -2 -2 -2 -2 -2 -2 -1 -1 0 7 27 69 112 121 118 110 76 37 13 3 0 -1 -2 -2 -2 -2 -2 -2 -2 -2 -1 -1 0 1 5 13 28 50 78 101 101 78 50 28 13 5 1 0 -1 -1 -1 -2 -2 -2 -2 -1 -1 -1 -1 -1 -1 -1 -1 0 0 4 15 40 84 123 124 99 75 60 53 50 49 49 48 49 49 51 59 79 111 125 89 44 20 14 23 50 89 104 75 37 13 3 0 0 3 15 48 95 
95 48 15 2 0 -1 -2 -2 -2 -2 -2 -2 -2 -1 0 4 20 58 110 136 127 93 50 20 5 0 -1 -1 -2 -2 -2 -2 -2 -2 -1 -1 -1 0 3 9 19 37 63 89 104 97 70 41 21 9 3 0 -1 -1 -1 -2 -2 -2 -2 -2 -2 -2 -2 -2 -2 -2 -2 -2 -1 -1 -1 1 8 27 68 120 140 127 112 103 98 96 95 95 95 95 96 97 103 116 136 137 104 64 39 33 47 79 105 89 49 19 5 0 -1 0 3 15 48 95 
95 48 15 2 0 -1 -2 -2 -2 -2 -2 -2 -2 -1 0 3 17 51 105 138 116 69 30 9 1 -1 -1 -2 -2 -2 -2 -2 -1 -1 -1 0 1 5 13 27 49 75 98 104 88 61 34 16 6 1 0 -1 -1 -2 -2 -2 -2 -2 -2 -2 -2 -2 -2 -2 -2 -2 -2 -2 -2 -1 -1 0 6 24 64 113 123 104 93 92 93 94 95 95 95 95 95 96 98 103 114 122 117 98 78 71 85 108 102 64 28 9 1 -1 -1 0 2 15 48 95 
95 48 15 2 0 -1 -2 -2 -2 -2 -2 -2 -2 -1 0 2 15 48 102 129 95 46 17 4 0 -1 -1 -2 -2 -2 -1 -1 -1 0 0 3 8 19 36 62 89 104 99 76 49 27 13 4 0 0 -1 -1 -2 -2 -2 -2 -2 -2 -2 -2 -2 -2 -2 -2 -2 -2 -2 -2 -2 -1 -1 0 7 28 70 109 97 64 48 46 47 48 48 48 48 48 48 49 49 52 60 74 93 106 111 115 126 124 87 43 15 3 0 -1 -1 0 2 15 48 95 
95 48 15 2 0 -1 -2 -2 -2 -2 -2 -2 -2 -1 0 2 15 48 99 116 73 30 9 1 -1 -1 -2 -1 -1 -1 -1 0 0 2 6 13 26 47 76 101 108 93 67 41 22 10 4 0 0 -1 -1 -1 -1 -1 -2 -2 -2 -2 -2 -2 -2 -2 -2 -2 -2 -2 -2 -2 -2 -1 -1 1 10 36 81 106 75 37 20 15 15 15 15 15 15 15 15 16 16 17 22 31 48 69 94 119 139 127 79 35 11 2 0 -1 -1 0 2 15 48 95 
95 48 15 2 0 -1 -2 -2 -2 -2 -2 -2 -2 -1 0 3 16 49 98 104 59 21 5 0 -1 -1 -1 -1 -1 0 1 3 7 13 22 38 62 92 117 120 97 68 44 26 15 8 4 2 0 0 0 0 -1 -1 -1 -1 -1 -1 -2 -2 -2 -2 -2 -2 -2 -2 -2 -2 -2 -1 -1 2 13 42 89 101 60 24 8 4 3 2 2 2 2 2 2 3 3 3 5 9 17 30 51 81 114 123 87 43 15 3 0 -1 -1 0 2 15 48 95 
95 48 15 2 0 -1 -2 -2 -2 -2 -2 -2 -2 -1 0 3 17 52 98 96 50 17 3 0 -1 -1 0 0 1 4 8 16 26 40 57 80 107 130 139 124 96 72 55 41 30 21 15 11 7 5 3 2 1 0 0 0 -1 -1 -1 -1 -1 -1 -1 -2 -2 -2 -2 -2 -2 -1 0 2 15 47 94 97 52 18 4 0 0 0 0 0 0 0 0 0 0 0 0 1 4 10 21 41 75 107 103 64 28 9 1 -1 -1 0 2 15 48 95 
95 48 15 2 0 -1 -2 -2 -2 -2 -2 -2 -2 -1 0 5 21 59 101 90 43 14 2 0 0 0 2 5 9 17 29 46 65 83 99 110 116 120 123 121 112 102 93 82 69 57 46 37 28 21 17 13 10 7 4 3 1 0 0 0 0 -1 -1 -1 -1 -1 -1 -2 -1 -1 0 3 17 52 97 94 47 15 3 0 -1 -1 -1 -1 -1 -1 -1 -1 -1 -1 -1 -1 0 1 6 18 42 79 105 89 49 19 5 0 -1 0 3 15 48 95 
95 48 15 2 0 -1 -2 -2 -2 -2 -2 -2 -1 -1 0 7 28 69 104 81 36 11 3 1 3 7 12 20 31 48 68 88 102 104 97 86 74 68 73 83 91 96 101 104 104 99 92 82 69 58 50 43 36 27 20 15 11 7 5 3 2 1 0 0 0 -1 -1 -1 -1 -1 0 5 21 58 100 89 42 13 2 -1 -1 -2 -2 -2 -2 -2 -2 -2 -2 -2 -1 -1 -1 0 1 6 21 50 89 104 76 37 13 3 0 0 3 15 48 95 
95 48 15 2 0 -1 -2 -2 -2 -2 -2 -2 -1 -1 1 10 36 81 104 70 29 10 6 9 16 26 39 54 72 90 103 103 90 72 54 40 30 26 29 36 43 50 58 69 82 92 99 104 104 100 95 90 81 68 56 46 37 28 21 17 13 10 7 4 3 1 0 0 0 0 1 8 28 69 104 80 36 10 1 -1 -1 -2 -2 -2 -2 -2 -2 -2 -2 -2 -2 -2 -1 -1 0 1 9 28 63 98 98 63 28 9 1 0 3 15 48 95 
95 48 15 2 0 -1 -2 -2 -2 -2 -2 -2 -1 0 2 13 43 90 102 61 27 16 19 29 46 65 83 96 104 102 88 68 48 31 20 13 8 7 8 10 13 17 21 28 37 46 56 68 81 90 95 100 104 104 99 92 82 69 58 50 43 36 27 20 15 11 7 5 3 3 5 13 37 81 104 69 28 7 0 -1 -1 -2 -2 -2 -2 -2 -2 -2 -2 -2 -2 -2 -2 -1 -1 0 3 13 37 75 103 89 50 21 6 1 3 16 48 95 
95 48 15 2 0 -1 -2 -2 -2 -2 -2 -2 -1 0 3 17 50 97 101 62 37 35 48 68 88 102 104 96 83 65 46 29 17 9 5 2 0 0 0 1 2 3 5 7 11 15 20 27 36 43 50 58 69 82 92 99 104 104 100 95 90 81 68 56 46 37 28 21 17 15 15 23 49 92 101 58 21 5 0 -1 -2 -2 -2 -2 -2 -2 -2 -2 -2 -2 -2 -2 -2 -2 -1 -1 0 5 19 49 88 104 78 41 16 5 5 16 49 95 
95 48 15 2 0 -1 -2 -2 -2 -2 -2 -1 -1 0 5 22 59 106 108 77 64 73 90 103 103 90 72 54 39 26 16 8 4 1 0 0 -1 -1 -1 -1 0 0 0 0 1 3 4 7 10 13 17 21 28 37 46 56 68 81 90 95 100 104 104 99 92 82 69 58 50 45 41 44 67 104 100 52 17 3 0 -1 -2 -2 -2 -2 -2 -2 -2 -2 -2 -2 -2 -2 -2 -2 -2 -1 -1 1 9 27 61 97 101 70 35 14 8 17 49 95 
95 48 15 2 0 -1 -2 -2 -2 -2 -2 -1 -1 1 9 31 74 121 125 106 101 105 103 89 68 48 31 20 12 7 3 1 0 -1 -1 -1 -1 -1 -1 -1 -1 -1 -1 -1 -1 0 0 0 1 2 3 5 7 11 15 20 27 36 43 50 58 69 82 92 99 104 104 100 96 91 85 84 99 121 100 49 16 3 0 -1 -2 -2 -2 -2 -2 -2 -2 -2 -2 -2 -2 -2 -2 -2 -2 -2 -1 0 3 12 34 70 101 97 61 28 14 19 50 95 
95 48 15 2 0 -1 -2 -2 -2 -2 -1 -1 0 4 17 47 95 135 136 120 105 89 68 47 29 17 9 5 2 0 0 -1 -1 -1 -2 -2 -2 -2 -2 -2 -2 -2 -2 -1 -1 -1 -1 -1 -1 0 0 0 0 1 3 4 7 10 13 17 21 28 37 46 56 68 81 90 95 101 107 115 129 138 102 47 15 2 0 -1 -2 -2 -2 -2 -2 -2 -2 -2 -2 -2 -2 -2 -2 -2 -2 -2 -1 -1 0 4 16 41 78 104 89 51 26 24 51 96 
95 48 15 2 0 -1 -2 -2 -2 -2 -1 -1 1 9 30 69 113 126 109 86 65 45 29 17 9 4 1 0 0 -1 -1 -1 -2 -2 -2 -2 -2 -2 -2 -2 -2 -2 -2 -2 -2 -2 -2 -1 -1 -1 -1 -1 -1 -1 0 0 0 1 2 3 5 7 11 15 20 27 36 43 50 59 72 93 119 135 102 47 15 2 0 -1 -2 -2 -2 -2 -2 -2 -2 -2 -2 -2 -2 -2 -2 -2 -2 -2 -2 -1 -1 0 6 21 50 88 104 79 46 34 55 97 
95 48 15 2 0 -1 -2 -2 -2 -1 -1 0 5 20 50 92 111 91 61 40 26 16 8 4 1 0 -1 -1 -1 -1 -2 -2 -2 -2 -2 -2 -2 -2 -2 -2 -2 -2 -2 -2 -2 -2 -2 -2 -2 -2 -2 -2 -1 -1 -1 -1 -1 -1 0 0 0 0 1 3 4 7 10 14 17 22 32 51 85 117 99 48 15 2 0 -1 -2 -2 -2 -2 -2 -2 -2 -2 -2 -2 -2 -2 -2 -2 -2 -2 -2 -2 -1 0 1 9 27 61 97 102 75 52 63 99 
96 48 15 2 0 -1 -2 -2 -1 -1 0 3 13 37 76 105 91 55 28 14 7 3 1 0 -1 -1 -1 -1 -2 -2 -2 -2 -2 -2 -2 -2 -2 -2 -2 -2 -2 -2 -2 -2 -2 -2 -2 -2 -2 -2 -2 -2 -2 -2 -2 -2 -1 -1 -1 -1 -1 -1 -1 0 0 0 1 2 3 6 12 28 62 104 97 48 15 3 0 -1 -2 -2 -2 -2 -2 -2 -2 -2 -2 -2 -2 -2 -2 -2 -2 -2 -2 -2 -2 -1 0 3 12 34 70 101 101 78 77 104 
97 48 15 2 0 -1 -2 -2 -1 0 1 9 28 63 99 99 63 29 11 4 1 0 -1 -1 -1 -1 -2 -2 -2 -2 -2 -2 -2 -2 -2 -2 -2 -2 -2 -2 -2 -2 -2 -2 -2 -2 -2 -2 -2 -2 -2 -2 -2 -2 -2 -2 -2 -2 -2 -2 -2 -1 -1 -1 -1 -1 -1 0 0 1 5 19 52 98 97 50 16 3 0 -1 -2 -2 -2 -2 -2 -2 -2 -2 -2 -2 -2 -2 -2 -2 -2 -2 -2 -2 -2 -1 -1 0 4 16 41 78 106 103 97 112 
99 48 15 2 0 -1 -1 -1 -1 0 6 21 50 89 104 76 38 14 4 0 0 -1 -1 -1 -1 -1 -1 -1 -1 -1 -2 -2 -2 -2 -2 -2 -2 -2 -2 -2 -2 -2 -2 -2 -2 -2 -2 -2 -2 -2 -2 -2 -2 -2 -2 -2 -2 -2 -2 -2 -2 -2 -2 -2 -2 -1 -1 -1 -1 0 4 17 49 96 99 54 19 4 0 -1 -1 -2 -2 -2 -2 -2 -2 -2 -2 -2 -2 -2 -2 -2 -2 -2 -2 -2 -2 -2 -1 -1 0 6 21 50 90 115 119 124 
100 47 15 2 0 -1 -1 -1 0 5 17 41 78 106 92 53 23 8 2 0 0 0 0 0 0 0 0 -1 -1 -1 -1 -1 -1 -1 -1 -1 -1 -1 -1 -1 -1 -2 -2 -2 -2 -2 -2 -2 -2 -2 -2 -2 -2 -2 -2 -2 -2 -2 -2 -2 -2 -2 -2 -2 -2 -2 -1 -1 -1 0 5 19 51 98 108 65 27 9 2 0 -1 -1 -1 -2 -2 -2 -2 -2 -2 -2 -2 -2 -2 -2 -2 -2 -2 -2 -2 -2 -2 -1 0 1 9 27 62 104 130 135 
101 46 14 2 0 -1 -1 0 5 16 38 73 108 110 78 43 21 11 6 4 3 3 2 2 2 2 2 2 1 0 0 0 0 0 0 0 0 0 -1 -1 -1 -1 -1 -1 -1 -1 -1 -1 -1 -1 -1 -1 -1 -2 -2 -2 -2 -2 -2 -2 -2 -2 -2 -2 -2 -1 -1 -1 0 3 11 28 61 108 124 88 47 23 10 4 1 0 -1 -1 -1 -2 -2 -2 -2 -2 -2 -2 -2 -2 -2 -2 -2 -2 -2 -2 -2 -1 -1 0 3 13 37 76 121 138 
101 46 14 2 0 0 0 5 16 37 71 111 129 113 82 57 41 29 22 18 16 16 15 15 15 15 14 13 10 7 5 3 3 3 2 2 2 2 2 1 0 0 0 0 0 0 0 0 0 0 -1 -1 -1 -1 -1 -1 -1 -1 -1 -1 -1 -1 -1 -1 -1 -1 0 1 5 14 28 52 86 124 140 118 83 52 31 17 8 3 0 -1 -1 -1 -2 -2 -2 -2 -2 -2 -2 -2 -2 -2 -2 -2 -2 -2 -2 -2 -1 -1 0 5 19 50 97 130 
99 47 15 3 0 0 5 16 38 71 109 135 138 124 107 94 82 70 59 52 50 49 48 48 48 48 46 42 35 28 21 18 16 16 15 15 15 14 13 10 7 5 3 3 3 2 2 2 2 2 2 1 0 0 0 0 0 0 0 0 0 -1 -1 -1 0 1 4 10 20 37 62 90 110 121 124 121 111 92 69 45 26 13 5 1 0 -1 -1 -1 -2 -2 -2 -2 -2 -2 -2 -2 -2 -2 -2 -2 -2 -2 -2 -1 -1 1 10 32 74 116 
97 48 15 4 2 6 17 38 71 103 118 115 107 102 100 102 104 104 101 97 96 95 95 95 95 94 93 88 80 69 59 52 50 49 48 48 48 46 42 35 28 21 18 16 16 15 15 15 15 14 13 10 7 5 3 3 3 2 2 2 2 2 1 1 3 8 17 30 51 76 98 105 95 79 72 78 93 104 102 87 62 37 20 10 4 1 0 -1 -1 -1 -2 -2 -2 -2 -2 -2 -2 -2 -2 -2 -2 -2 -2 -1 -1 0 5 22 60 105 
96 49 17 6 8 18 39 72 101 104 85 64 54 51 52 59 69 80 88 93 94 95 95 95 95 96 97 101 104 104 101 97 96 95 95 95 94 93 88 80 69 59 52 50 49 48 48 48 48 46 42 35 28 21 18 16 16 15 15 15 14 13 11 11 16 27 46 68 91 104 98 76 52 35 29 34 49 69 91 104 98 76 51 30 17 8 3 0 -1 -1 -1 -2 -2 -2 -2 -2 -2 -2 -2 -2 -2 -2 -2 -2 -1 0 3 18 52 99 
96 50 21 14 22 42 73 100 100 74 44 26 19 17 18 21 28 35 42 46 48 48 48 48 49 50 52 59 69 80 88 93 94 95 95 95 96 97 101 104 104 101 97 96 95 95 95 95 94 93 88 80 69 59 52 50 49 48 48 48 46 43 38 37 45 64 87 102 102 87 62 37 20 11 8 10 18 31 51 76 98 104 91 68 45 26 13 5 1 0 -1 -1 -1 -2 -2 -2 -2 -2 -2 -2 -2 -2 -2 -2 -1 0 3 16 50 96 
97 55 30 32 51 78 101 99 71 39 18 8 4 3 3 5 7 10 13 14 15 15 15 15 16 16 18 21 28 35 42 46 48 48 48 49 50 52 59 69 80 88 93 94 95 95 95 95 96 97 101 104 104 101 97 96 95 95 95 94 93 90 86 85 92 105 106 92 69 46 26 13 5 2 1 1 4 10 20 37 62 86 102 102 86 62 37 20 10 4 1 0 -1 -1 -1 -2 -2 -2 -2 -2 -2 -2 -2 -2 -1 0 3 16 49 96 
101 66 52 66 89 104 96 68 37 16 5 1 0 0 0 0 0 1 2 2 2 2 2 2 3 3 3 5 7 10 13 14 15 15 15 16 16 18 21 28 35 42 46 48 48 48 48 49 50 52 59 69 80 88 93 94 95 95 95 96 99 106 119 130 131 113 82 52 31 17 8 3 0 0 -1 -1 0 1 5 13 26 45 68 91 104 98 76 51 30 17 8 3 0 -1 -1 -1 -2 -2 -2 -2 -2 -2 -2 -2 -1 0 2 15 48 96 
110 88 86 100 104 88 61 34 15 5 0 -1 -1 -1 -1 -1 -1 -1 -1 0 0 0 0 0 0 0 0 0 0 1 2 2 2 2 2 3 3 3 5 7 10 13 14 15 15 15 15 16 16 18 21 28 35 42 46 48 48 48 49 51 56 70 100 133 130 89 48 23 10 4 1 0 -1 -1 -1 -1 -1 -1 0 3 8 17 30 51 76 98 104 91 68 45 26 13 5 1 0 -1 -1 -1 -2 -2 -2 -2 -2 -2 -1 0 2 15 48 97 
124 116 113 103 78 50 27 12 4 0 -1 -1 -1 -2 -2 -2 -1 -1 -1 -1 -1 -1 -1 -1 -1 -1 -1 -1 -1 -1 -1 0 0 0 0 0 0 0 0 0 1 2 2 2 2 2 2 3 3 3 5 7 10 13 14 15 15 15 16 17 22 37 71 115 113 65 27 9 2 0 -1 -1 -1 -2 -2 -2 -1 -1 -1 0 1 4 10 20 37 62 86 102 102 86 62 37 20 10 4 1 0 -1 -1 -1 -2 -2 -2 -2 -1 0 2 15 48 99 
137 131 107 73 42 21 9 3 0 -1 -1 -2 -2 -2 -2 -2 -2 -2 -2 -2 -2 -2 -2 -2 -2 -2 -2 -2 -1 -1 -1 -1 -1 -1 -1 -1 -1 -1 -1 -1 -1 -1 0 0 0 0 0 0 0 0 0 0 1 2 2 2 2 3 3 4 8 22 56 102 101 54 19 4 0 -1 -1 -2 -2 -2 -2 -2 -2 -2 -1 -1 -1 0 1 5 13 26 45 68 91 104 98 76 51 31 17 9 4 1 0 -1 -1 -1 -2 -2 -1 0 2 15 47 101 
136 116 74 39 17 6 1 0 -1 -1 -2 -2 -2 -2 -2 -2 -2 -2 -2 -2 -2 -2 -2 -2 -2 -2 -2 -2 -2 -2 -2 -2 -2 -2 -2 -2 -2 -2 -2 -1 -1 -1 -1 -1 -1 -1 -1 -1 -1 -1 -1 -1 -1 -1 0 0 0 0 0 0 4 17 50 97 97 50 16 3 0 -1 -2 -2 -2 -2 -2 -2 -2 -2 -2 -2 -1 -1 -1 0 3 8 17 30 51 76 98 104 91 69 47 29 16 8 2 0 -1 -1 -1 -1 -1 0 2 15 47 102 
122 86 44 18 6 1 0 -1 -1 -2 -2 -2 -2 -2 -2 -2 -2 -2 -2 -2 -2 -2 -2 -2 -2 -2 -2 -2 -2 -2 -2 -2 -2 -2 -2 -2 -2 -2 -2 -2 -2 -2 -2 -2 -2 -2 -2 -2 -2 -2 -2 -1 -1 -1 -1 -1 -1 -1 -1 0 3 16 49 96 95 49 16 3 0 -1 -2 -2 -2 -2 -2 -2 -2 -2 -2 -2 -2 -1 -1 -1 0 1 4 10 20 37 62 86 102 103 89 68 45 26 13 5 1 0 0 -1 -1 0 3 15 47 100 
108 64 26 8 1 0 -1 -1 -2 -2 -2 -2 -2 -2 -2 -2 -2 -2 -2 -2 -2 -2 -2 -2 -2 -2 -2 -2 -2 -2 -2 -2 -2 -2 -2 -2 -2 -2 -2 -2 -2 -2 -2 -2 -2 -2 -2 -2 -2 -2 -2 -2 -2 -2 -2 -2 -2 -2 -1 0 3 15 49 95 95 48 15 2 0 -1 -2 -2 -2 -2 -2 -2 -2 -2 -2 -2 -2 -2 -2 -1 -1 -1 0 1 5 13 26 45 68 89 103 102 86 61 37 20 10 5 3 1 0 0 4 16 48 98 
100 54 19 4 0 -1 -1 -2 -2 -2 -2 -2 -2 -2 -2 -2 -2 -2 -2 -2 -2 -2 -2 -2 -2 -2 -2 -2 -2 -2 -2 -2 -2 -2 -2 -2 -2 -2 -2 -2 -2 -2 -2 -2 -2 -2 -2 -2 -2 -2 -2 -2 -2 -2 -2 -2 -2 -2 -1 0 2 15 48 95 95 48 15 2 0 -1 -2 -2 -2 -2 -2 -2 -2 -2 -2 -2 -2 -2 -2 -2 -2 -1 -1 -1 0 3 8 17 30 48 70 93 106 100 76 50 32 21 15 11 7 6 8 19 51 97 
97 50 17 3 0 -1 -1 -1 -1 -1 -2 -2 -2 -2 -2 -2 -2 -2 -2 -2 -2 -2 -2 -2 -2 -2 -2 -2 -2 -2 -2 -2 -2 -2 -2 -2 -2 -2 -2 -2 -2 -2 -2 -2 -2 -2 -2 -2 -2 -2 -2 -2 -2 -2 -2 -2 -2 -2 -1 0 2 15 48 95 95 48 15 2 0 -1 -2 -2 -2 -2 -2 -2 -2 -2 -2 -2 -2 -2 -2 -2 -2 -2 -1 -1 -1 0 1 4 10 20 35 58 87 112 116 98 74 57 46 37 28 21 20 29 58 100 
98 49 17 4 0 0 0 -1 -1 -1 -1 -1 -1 -1 -1 -1 -1 -1 -2 -2 -2 -2 -2 -2 -2 -2 -2 -2 -2 -2 -2 -2 -2 -2 -2 -2 -2 -2 -2 -2 -2 -2 -2 -2 -2 -2 -2 -2 -2 -2 -2 -2 -2 -2 -2 -2 -2 -2 -1 0 2 15 48 95 95 48 15 2 0 -1 -2 -2 -2 -2 -2 -2 -2 -2 -2 -2 -2 -2 -2 -2 -2 -2 -1 -1 -1 0 0 2 7 14 25 43 71 107 134 136 120 104 93 82 69 58 51 54 76 109 
103 52 20 7 4 3 2 2 1 0 0 0 0 0 0 -1 -1 -1 -1 -1 -1 -1 -1 -1 -1 -1 -1 -2 -2 -2 -2 -2 -2 -2 -2 -2 -2 -2 -2 -2 -2 -2 -2 -2 -2 -2 -2 -2 -2 -2 -2 -2 -2 -2 -2 -2 -2 -2 -1 0 2 15 48 95 95 48 15 2 0 -1 -2 -2 -2 -2 -2 -2 -2 -2 -2 -2 -2 -2 -2 -1 -1 -1 -1 0 0 2 5 9 17 28 43 62 87 113 129 125 112 104 103 105 104 100 96 96 109 126 
113 63 32 20 17 15 14 13 10 7 5 3 3 2 2 2 1 0 0 0 0 0 0 0 -1 -1 -1 -1 -1 -1 -1 -1 -1 -1 -1 -2 -2 -2 -2 -2 -2 -2 -2 -2 -2 -2 -2 -2 -2 -2 -2 -2 -2 -2 -2 -2 -2 -2 -1 0 2 15 48 95 95 48 15 2 0 -1 -2 -2 -2 -2 -2 -2 -2 -2 -2 -2 -2 -1 -1 -1 0 0 1 3 7 12 20 31 47 65 84 98 107 106 93 74 61 56 60 70 82 92 102 114 132 143 
129 90 64 53 49 48 46 42 35 28 21 18 16 15 14 13 10 7 5 3 3 3 2 2 2 1 0 0 0 0 0 0 -1 -1 -1 -1 -1 -1 -1 -1 -1 -1 -1 -1 -2 -2 -2 -2 -2 -2 -2 -2 -2 -2 -2 -2 -2 -2 -1 0 2 15 48 95 95 48 15 2 0 -1 -2 -2 -2 -2 -2 -2 -2 -2 -2 -1 -1 -1 0 0 2 4 9 16 26 39 54 71 89 102 104 96 83 65 46 31 22 20 22 28 37 47 60 80 112 140 
144 125 107 98 96 94 93 88 80 69 59 52 49 48 46 42 35 28 21 18 16 16 15 14 13 10 7 5 3 3 2 2 2 1 0 0 0 0 0 0 0 -1 -1 -1 -1 -1 -1 -1 -1 -1 -1 -1 -2 -2 -2 -2 -2 -2 -1 0 2 15 48 95 95 48 15 2 0 -1 -2 -2 -2 -2 -2 -2 -1 -1 -1 -1 0 1 3 7 12 20 31 46 65 83 96 104 102 89 71 54 39 26 16 9 5 4 5 7 11 16 24 42 78 125 
140 125 107 99 96 96 97 101 104 104 101 97 96 95 93 89 80 69 59 52 50 49 48 46 42 35 28 21 18 16 15 14 13 10 7 5 3 3 3 2 2 2 1 0 0 0 0 0 0 -1 -1 -1 -1 -1 -1 -1 -1 -1 -1 0 3 16 48 95 95 48 15 2 0 -1 -2 -2 -2 -2 -1 -1 -1 0 0 1 4 8 16 26 39 54 71 89 102 104 96 83 65 46 31 20 12 7 3 1 0 0 0 0 1 4 9 24 58 111 
120 91 64 53 50 50 52 59 69 80 89 93 95 96 97 101 104 104 101 97 96 95 94 93 88 80 69 59 52 49 48 46 42 35 28 21 18 16 16 15 14 13 10 7 5 3 3 2 2 2 1 0 0 0 0 0 0 0 0 0 3 16 49 95 95 48 15 3 0 -1 -1 -1 -1 -1 -1 0 0 2 5 9 17 29 46 65 83 96 104 102 89 71 54 39 26 16 9 4 2 0 0 -1 -1 -1 -1 -1 0 0 4 17 51 102 
105 64 33 20 17 16 18 21 28 35 42 46 48 49 52 59 69 80 88 93 94 95 96 97 101 104 104 101 97 96 95 93 89 80 69 59 52 50 49 48 46 42 35 28 21 18 16 15 14 13 10 7 5 3 3 3 2 2 2 2 5 17 50 96 96 49 16 3 0 -1 -1 -1 0 0 1 3 7 12 20 31 48 68 88 102 104 96 83 65 46 31 20 12 7 3 1 0 0 -1 -1 -1 -1 -2 -2 -1 -1 0 3 16 49 97 
98 53 20 8 4 3 3 5 7 10 13 14 15 16 18 21 28 35 42 46 48 49 50 52 59 69 80 89 93 95 96 97 101 104 104 101 97 96 95 94 93 88 80 69 59 52 49 48 46 42 35 28 21 18 16 16 15 14 13 11 12 23 54 99 97 50 16 3 0 0 0 0 2 4 9 16 26 39 54 72 90 103 103 90 72 54 39 26 16 9 4 2 0 0 -1 -1 -1 -1 -2 -2 -2 -2 -2 -2 -1 0 3 15 48 96 
96 50 17 4 0 0 0 0 0 1 2 2 2 3 3 5 7 10 13 14 15 16 16 18 21 28 35 42 46 48 49 52 59 69 80 88 93 94 95 96 97 101 104 104 101 97 96 95 93 89 80 69 59 52 50 49 48 46 42 37 33 39 66 107 102 54 19 5 1 1 3 7 12 20 31 46 65 83 96 104 102 88 68 48 31 20 12 7 3 1 0 0 -1 -1 -1 -2 -2 -2 -2 -2 -2 -2 -2 -2 -1 0 2 15 48 95 
95 49 16 3 0 -1 -1 -1 -1 -1 -1 0 0 0 0 0 0 1 2 2 2 3 3 3 5 7 10 13 14 15 16 18 21 28 35 42 46 48 49 50 52 59 69 80 89 93 95 96 97 101 104 104 101 97 96 95 94 93 89 81 73 74 94 124 114 66 28 12 8 10 16 26 39 54 71 89 102 104 96 83 65 46 29 17 9 5 2 0 0 -1 -1 -1 -1 -2 -2 -2 -2 -2 -2 -2 -2 -2 -2 -2 -1 0 2 15 48 95 
95 48 15 3 0 -1 -1 -2 -1 -1 -1 -1 -1 -1 -1 -1 -1 -1 -1 0 0 0 0 0 0 0 1 2 2 2 3 3 5 7 10 13 14 15 16 16 18 21 28 35 42 46 48 49 52 59 69 80 88 93 94 95 96 97 101 104 106 110 122 139 130 89 51 30 26 33 47 65 83 96 104 102 89 71 54 39 26 16 8 4 1 0 0 -1 -1 -1 -2 -2 -2 -2 -2 -2 -2 -2 -2 -2 -2 -2 -2 -2 -1 0 2 15 48 95 
95 48 15 2 0 -1 -2 -2 -2 -2 -2 -2 -2 -2 -2 -2 -1 -1 -1 -1 -1 -1 -1 -1 -1 -1 -1 -1 0 0 0 0 0 0 1 2 2 2 3 3 3 5 7 10 13 14 15 16 18 21 28 35 42 46 48 49 50 52 59 69 81 91 102 116 125 115 90 70 66 75 90 102 104 96 83 65 46 31 20 12 7 3 1 0 -1 -1 -1 -1 -2 -2 -2 -2 -2 -2 -2 -2 -2 -2 -2 -2 -2 -2 -2 -2 -1 0 2 15 48 95 
95 48 15 3 0 -1 -2 -2 -2 -2 -2 -2 -2 -2 -2 -2 -2 -2 -2 -2 -2 -2 -2 -1 -1 -1 -1 -1 -1 -1 -1 -1 -1 -1 -1 -1 0 0 0 0 0 0 0 1 2 2 2 3 3 5 7 10 13 14 15 16 16 18 21 28 36 43 51 65 88 115 127 121 113 109 103 90 71 54 39 26 16 9 5 2 0 0 -1 -1 -1 -1 -2 -2 -2 -2 -2 -2 -2 -2 -2 -2 -2 -2 -2 -2 -2 -2 -2 -2 -1 0 3 15 48 95 
95 49 16 3 0 -1 -1 -1 -1 -1 -1 -1 -1 -1 -1 -1 -1 -1 -1 -1 -1 -1 -1 -1 -1 -1 -1 -1 -1 -1 -1 -1 -1 -1 -1 -1 -1 -1 -1 -1 -1 -1 -1 -1 0 0 0 0 0 0 0 1 2 2 3 3 3 4 5 7 11 14 18 28 50 89 131 139 116 90 67 47 31 20 13 7 3 1 0 0 -1 -1 -1 -1 -1 -1 -1 -1 -1 -1 -1 -1 -1 -1 -1 -1 -1 -1 -1 -1 -1 -1 -1 -1 -1 0 3 16 49 95 
96 50 17 4 0 0 0 0 0 0 0 0 0 0 0 0 0 0 0 0 0 0 0 0 0 0 0 0 0 0 0 0 0 0 0 0 0 0 0 0 0 0 0 0 0 0 0 0 0 0 0 0 0 0 0 0 0 0 0 1 2 3 6 12 29 67 115 123 86 52 31 18 10 6 3 1 0 0 0 0 0 0 0 0 0 0 0 0 0 0 0 0 0 0 0 0 0 0 0 0 0 0 0 0 0 0 4 17 50 96 
98 53 20 8 4 3 3 2 2 2 2 2 2 2 2 2 2 2 2 2 2 2 2 2 2 2 2 2 2 2 2 2 2 2 2 2 2 2 2 2 2 2 2 3 3 3 3 2 2 2 2 3 3 3 3 3 3 3 3 3 3 4 5 10 24 59 105 109 66 32 16 9 6 4 4 3 3 3 3 3 3 2 2 2 2 2 2 2 2 2 2 2 2 2 2 2 2 2 2 2 2 2 2 2 3 4 7 20 53 98 
107 64 33 20 17 16 15 15 15 15 15 15 15 15 15 15 15 15 15 15 15 15 15 15 15 15 15 15 15 15 15 15 15 14 15 15 15 15 15 15 15 15 15 15 15 15 15 15 15 15 15 15 15 15 15 15 15 15 16 16 16 16 17 21 34 66 109 110 68 36 23 18 17 16 16 16 15 15 15 15 15 15 15 15 15 15 15 15 15 15 15 15 15 15 15 15 15 15 15 15 15 15 15 15 15 16 20 33 64 107 
126 91 64 53 50 49 48 48 48 48 48 48 48 48 48 48 48 48 48 48 48 48 48 48 48 48 48 48 48 48 48 48 47 47 47 48 48 48 48 48 48 48 48 48 48 48 48 48 47 47 47 47 48 48 48 48 48 48 48 48 49 49 50 53 64 91 125 126 91 65 54 50 49 49 48 48 48 48 48 48 48 48 48 48 48 48 48 48 48 48 48 47 47 47 48 48 48 48 48 48 48 48 48 47 47 48 52 64 90 126 
151 126 107 98 96 95 95 95 95 95 95 95 95 95 95 95 95 95 95 95 95 95 95 95 95 95 95 95 95 96 97 99 101 102 100 97 96 95 95 95 95 95 95 95 95 95 96 97 99 102 102 99 97 96 95 95 95 95 95 95 95 95 96 98 104 119 137 137 119 105 98 96 95 95 95 95 95 95 95 95 95 95 95 95 95 95 95 95 95 96 98 101 102 100 98 96 95 95 95 95 95 96 98 101 102 101 101 108 126 151 
