P2
110 110
255
67 33 31 31 31 31 31 31 31 31 31 31 31 31 31 31 31 31 31 31 31 31 31 31 31 31 31 31 31 31 31 31 37 93 64 33 31 31 31 31 31 31 31 31 31 31 31 31 33 66 66 33 31 31 31 31 31 31 31 31 31 31 31 31 31 31 32 32 31 31 31 31 31 31 31 31 31 31 31 31 31 31 31 31 31 31 31 31 31 31 31 36 93 64 33 31 31 31 31 31 31 31 31 36 93 64 33 31 33 67 
33 -5 -7 -7 -7 -7 -7 -7 -7 -7 -7 -7 -7 -7 -7 -7 -7 -7 -7 -7 -7 -7 -7 -7 -7 -7 -7 -7 -7 -7 -7 -2 60 58 -2 -7 -7 -7 -7 -7 -7 -7 -7 -7 -7 -7 -7 -7 -5 33 33 -5 -7 -7 -7 -7 -7 -7 -7 -7 -7 -7 -7 -7 -7 -7 -7 -7 -7 -7 -7 -7 -7 -7 -7 -7 -7 -7 -7 -7 -7 -7 -7 -7 -7 -7 -7 -7 -7 -7 -5 32 61 -2 -7 -7 -7 -7 -7 -7 -7 -7 -5 30 61 -2 -7 -7 -5 33 
31 -7 -9 -9 -9 -9 -9 -9 -9 -9 -9 -9 -9 -9 -9 -9 -9 -9 -9 -9 -9 -9 -9 -9 -9 -9 -9 -9 -9 -9 -7 30 60 -2 -9 -9 -9 -9 -9 -9 -9 -9 -9 -9 -9 -9 -9 -9 -7 33 31 -7 -9 -9 -9 -9 -9 -9 -9 -9 -9 -9 -9 -9 -9 -9 -9 -9 -9 -9 -9 -9 -9 -9 -9 -9 -9 -9 -9 -9 -9 -9 -9 -9 -9 -9 -9 -9 -9 -9 -4 60 30 -7 -9 -9 -9 -9 -9 -9 -9 -9 -7 31 33 -7 -9 -9 -7 31 
31 -7 -9 -9 -9 -9 -9 -9 -9 -9 -9 -9 -9 -9 -9 -9 -9 -9 -9 -9 -9 -9 -9 -9 -9 -9 -9 -9 -9 -9 -2 60 30 -7 -9 -9 -9 -9 -9 -9 -9 -9 -9 -9 -9 -9 -9 -9 -4 64 31 -7 -9 -9 -9 -9 -9 -9 -9 -9 -9 -9 -9 -9 -9 -9 -9 -9 -9 -9 -9 -9 -9 -9 -9 -9 -9 -9 -9 -9 -9 -9 -9 -9 -9 -9 -9 -9 -9 -7 29 60 -4 -9 -9 -9 -9 -9 -9 -9 -9 -9 -7 33 31 -7 -9 -9 -7 31 
31 -7 -9 -9 -9 -9 -9 -9 -9 -9 -9 -9 -9 -9 -9 -9 -9 -9 -9 -9 -9 -9 -9 -9 -9 -9 -9 -9 -9 -4 58 58 -4 -9 -9 -9 -9 -9 -9 -9 -9 -9 -9 -9 -9 -9 -9 -7 30 95 32 -7 -9 -9 -9 -9 -9 -9 -9 -9 -9 -9 -9 -9 -9 -9 -9 -9 -9 -9 -9 -9 -9 -9 -9 -9 -9 -9 -9 -9 -9 -9 -9 -9 -9 -9 -9 -9 -9 -7 32 32 -7 -9 -9 -9 -9 -9 -9 -9 -9 -9 -4 60 28 -7 -9 -9 -7 31 
31 -7 -9 -9 -9 -9 -9 -9 -9 -9 -9 -9 -9 -9 -9 -9 -9 -9 -9 -9 -9 -9 -9 -9 -9 -9 -9 -9 -7 30 60 -2 -9 -9 -9 -9 -9 -9 -9 -9 -9 -9 -9 -9 -9 -9 -9 -4 61 68 31 -7 -9 -9 -9 -9 -9 -9 -9 -9 -9 -9 -9 -9 -9 -9 -9 -9 -9 -9 -9 -9 -9 -9 -9 -9 -9 -9 -9 -9 -9 -9 -9 -9 -9 -9 -9 -9 -9 -4 60 29 -7 -9 -9 -9 -9 -9 -9 -9 -9 -7 28 60 -4 -9 -9 -9 -7 31 
31 -7 -9 -9 -9 -9 -9 -9 -9 -9 -9 -9 -9 -9 -9 -9 -9 -9 -9 -9 -9 -9 -9 -9 -9 -9 -9 -9 -2 60 30 -7 -9 -9 -9 -9 -9 -9 -9 -9 -9 -9 -9 -9 -9 -9 -7 30 62 36 31 -7 -9 -9 -9 -9 -9 -9 -9 -9 -9 -9 -9 -9 -9 -9 -9 -9 -9 -9 -9 -9 -9 -9 -9 -9 -9 -9 -9 -9 -9 -9 -9 -9 -9 -9 -9 -9 -7 30 60 -4 -9 -9 -9 -9 -9 -9 -9 -9 -9 -7 31 33 -7 -9 -9 -9 -7 31 
31 -7 -9 -9 -9 -9 -9 -9 -9 -9 -9 -9 -9 -9 -9 -9 -9 -9 -9 -9 -9 -9 -9 -9 -9 -9 -9 -4 58 58 -4 -9 -9 -9 -9 -9 -9 -9 -9 -9 -9 -9 -9 -9 -9 -9 -4 60 32 33 33 -7 -9 -9 -9 -9 -9 -9 -9 -9 -9 -9 -9 -9 -9 -9 -9 -9 -9 -9 -9 -9 -9 -9 -9 -9 -9 -9 -9 -9 -9 -9 -9 -9 -9 -9 -9 -9 -4 60 30 -7 -9 -9 -9 -9 -9 -9 -9 -9 -9 -7 33 31 -7 -9 -9 -9 -7 31 
31 -7 -9 -9 -9 -9 -9 -9 -9 -9 -9 -9 -9 -9 -9 -9 -9 -9 -9 -9 -9 -9 -9 -9 -9 -9 -7 30 60 -2 -9 -9 -9 -9 -9 -9 -9 -9 -9 -9 -9 -9 -9 -9 -9 -7 30 60 -2 29 60 -4 -9 -9 -9 -9 -9 -9 -9 -9 -9 -9 -9 -9 -9 -9 -9 -9 -9 -9 -9 -9 -9 -9 -9 -9 -9 -9 -9 -9 -9 -9 -9 -9 -9 -9 -9 -7 29 60 -4 -9 -9 -9 -9 -9 -9 -9 -9 -9 -9 -4 60 28 -7 -9 -9 -9 -7 31 
31 -7 -9 -9 -9 -9 -9 -9 -9 -9 -9 -9 -9 -9 -9 -9 -9 -9 -9 -9 -9 -9 -9 -9 -9 -9 -2 60 30 -7 -9 -9 -9 -9 -9 -9 -9 -9 -9 -9 -9 -9 -9 -9 -9 -2 60 30 -7 -4 60 28 -7 -9 -9 -9 -9 -9 -9 -9 -9 -9 -9 -9 -9 -9 -9 -9 -9 -9 -9 -9 -9 -9 -9 -9 -9 -9 -9 -9 -9 -9 -9 -9 -9 -9 -9 -7 32 32 -7 -9 -9 -9 -9 -9 -9 -9 -9 -9 -7 28 60 -4 -9 -9 -9 -9 -7 31 
31 -7 -9 -9 -9 -9 -9 -9 -9 -9 -9 -9 -9 -9 -9 -9 -9 -9 -9 -9 -9 -9 -9 -9 -9 -4 58 58 -4 -9 -9 -9 -9 -9 -9 -9 -9 -9 -9 -9 -9 -9 -9 -9 -4 58 58 -4 -9 -7 33 31 -7 -9 -9 -9 -9 -9 -9 -9 -9 -9 -9 -9 -9 -9 -9 -9 -9 -9 -9 -9 -9 -9 -9 -9 -9 -9 -9 -9 -9 -9 -9 -9 -9 -9 -9 -4 60 29 -7 -9 -9 -9 -9 -9 -9 -9 -9 -9 -7 31 33 -7 -9 -9 -9 -9 -7 31 
31 -7 -9 -9 -9 -9 -9 -9 -9 -9 -9 -9 -9 -9 -9 -9 -9 -9 -9 -9 -9 -9 -9 -9 -7 30 60 -2 -9 -9 -9 -9 -9 -9 -9 -9 -9 -9 -9 -9 -9 -9 -9 -7 30 60 -2 -9 -9 -7 31 31 -7 -9 -9 -9 -9 -9 -9 -9 -9 -9 -9 -9 -9 -9 -9 -9 -9 -9 -9 -9 -9 -9 -9 -9 -9 -9 -9 -9 -9 -9 -9 -9 -9 -9 -7 30 60 -4 -9 -9 -9 -9 -9 -9 -9 -9 -9 -9 -7 33 31 -7 -9 -9 -9 -9 -7 31 
31 -7 -9 -9 -9 -9 -9 -9 -9 -9 -9 -9 -9 -9 -9 -9 -9 -9 -9 -9 -9 -9 -9 -9 -2 60 30 -7 -9 -9 -9 -9 -9 -9 -9 -9 -9 -9 -9 -9 -9 -9 -9 -4 60 30 -7 -9 -9 -7 31 31 -7 -9 -9 -9 -9 -9 -9 -9 -9 -9 -9 -9 -9 -9 -9 -9 -9 -9 -9 -9 -9 -9 -9 -9 -9 -9 -9 -9 -9 -9 -9 -9 -9 -9 -4 60 30 -7 -9 -9 -9 -9 -9 -9 -9 -9 -9 -9 -4 60 28 -7 -9 -9 -9 -9 -7 31 
33 -7 -9 -9 -9 -9 -9 -9 -9 -9 -9 -9 -9 -9 -9 -9 -9 -9 -9 -9 -9 -9 -9 -4 58 58 -4 -9 -9 -9 -9 -9 -9 -9 -9 -9 -9 -9 -9 -9 -9 -9 -7 30 60 -4 -9 -9 -9 -7 31 31 -7 -9 -9 -9 -9 -9 -9 -9 -9 -9 -9 -9 -9 -9 -9 -9 -9 -9 -9 -9 -9 -9 -9 -9 -9 -9 -9 -9 -9 -9 -9 -9 -9 -7 29 60 -4 -9 -9 -9 -9 -9 -9 -9 -9 -9 -9 -7 28 60 -4 -9 -9 -9 -9 -9 -7 31 
64 -2 -9 -9 -9 -9 -9 -9 -9 -9 -9 -9 -9 -9 -9 -9 -9 -9 -9 -9 -9 -9 -7 30 60 -2 -9 -9 -9 -9 -9 -9 -9 -9 -9 -9 -9 -9 -9 -9 -9 -9 -4 60 30 -7 -9 -9 -9 -7 31 33 -7 -9 -9 -9 -9 -9 -9 -9 -9 -9 -9 -9 -9 -9 -9 -9 -9 -9 -9 -9 -9 -9 -9 -9 -9 -9 -9 -9 -9 -9 -9 -9 -9 -7 32 32 -7 -9 -9 -9 -9 -9 -9 -9 -9 -9 -9 -7 31 33 -7 -9 -9 -9 -9 -9 -7 31 
93 58 -2 -9 -9 -9 -9 -9 -9 -9 -9 -9 -9 -9 -9 -9 -9 -9 -9 -9 -9 -9 -2 60 30 -7 -9 -9 -9 -9 -9 -9 -9 -9 -9 -9 -9 -9 -9 -9 -9 -7 30 60 -4 -9 -9 -9 -9 -7 28 60 -4 -9 -9 -9 -9 -9 -9 -9 -9 -9 -9 -9 -9 -9 -9 -9 -9 -9 -9 -9 -9 -9 -9 -9 -9 -9 -9 -9 -9 -9 -9 -9 -9 -4 60 29 -7 -9 -9 -9 -9 -9 -9 -9 -9 -9 -9 -7 33 31 -7 -9 -9 -9 -9 -9 -7 32 
37 60 58 -2 -9 -9 -9 -9 -9 -9 -9 -9 -9 -9 -9 -9 -9 -9 -9 -9 -9 -4 58 58 -4 -9 -9 -9 -9 -9 -9 -9 -9 -9 -9 -9 -9 -9 -9 -9 -9 -2 60 30 -7 -9 -9 -9 -9 -9 -4 60 28 -7 -9 -9 -9 -9 -9 -9 -9 -9 -9 -9 -9 -9 -9 -9 -9 -9 -9 -9 -9 -9 -9 -9 -9 -9 -9 -9 -9 -9 -9 -9 -7 30 60 -4 -9 -9 -9 -9 -9 -9 -9 -9 -9 -9 -9 -4 60 28 -7 -9 -9 -9 -9 -9 -7 31 
31 -1 58 58 -4 -9 -9 -9 -9 -9 -9 -9 -9 -9 -9 -9 -9 -9 -9 -9 -7 30 60 -2 -9 -9 -9 -9 -9 -9 -9 -9 -9 -9 -9 -9 -9 -9 -9 -9 -4 58 58 -4 -9 -9 -9 -9 -9 -9 -7 33 31 -7 -9 -9 -9 -9 -9 -9 -9 -9 -9 -9 -9 -9 -9 -9 -9 -9 -9 -9 -9 -9 -9 -9 -9 -9 -9 -9 -9 -9 -9 -9 -4 60 30 -7 -9 -9 -9 -9 -9 -9 -9 -9 -9 -9 -7 28 60 -4 -9 -9 -9 -9 -9 -9 -7 31 
31 -7 -2 60 30 -7 -9 -9 -9 -9 -9 -9 -9 -9 -9 -9 -9 -9 -9 -9 -2 60 30 -7 -9 -9 -9 -9 -9 -9 -9 -9 -9 -9 -9 -9 -9 -9 -9 -7 30 60 -2 -9 -9 -9 -9 -9 -9 -9 -7 31 31 -7 -9 -9 -9 -9 -9 -9 -9 -9 -9 -9 -9 -9 -9 -9 -9 -9 -9 -9 -9 -9 -9 -9 -9 -9 -9 -9 -9 -9 -9 -7 29 60 -4 -9 -9 -9 -9 -9 -9 -9 -9 -9 -9 -9 -7 31 33 -7 -9 -9 -9 -9 -9 -9 -7 31 
31 -7 -7 30 60 -2 -9 -9 -9 -9 -9 -9 -9 -9 -9 -9 -9 -9 -9 -4 58 58 -4 -9 -9 -9 -9 -9 -9 -9 -9 -9 -9 -9 -9 -9 -9 -9 -9 -4 60 30 -7 -9 -9 -9 -9 -9 -9 -9 -7 31 31 -7 -9 -9 -9 -9 -9 -9 -9 -9 -9 -9 -9 -9 -9 -9 -9 -9 -9 -9 -9 -9 -9 -9 -9 -9 -9 -9 -9 -9 -9 -7 32 32 -7 -9 -9 -9 -9 -9 -9 -9 -9 -9 -9 -9 -7 33 31 -7 -9 -9 -9 -9 -9 -9 -7 31 
31 -7 -9 -4 58 58 -2 -9 -9 -9 -9 -9 -9 -9 -9 -9 -9 -9 -7 30 60 -2 -9 -9 -9 -9 -9 -9 -9 -9 -9 -9 -9 -9 -9 -9 -9 -9 -7 30 60 -4 -9 -9 -9 -9 -9 -9 -9 -9 -7 31 31 -7 -9 -9 -9 -9 -9 -9 -9 -9 -9 -9 -9 -9 -9 -9 -9 -9 -9 -9 -9 -9 -9 -9 -9 -9 -9 -9 -9 -9 -9 -4 60 29 -7 -9 -9 -9 -9 -9 -9 -9 -9 -9 -9 -9 -4 60 28 -7 -9 -9 -9 -9 -9 -9 -7 31 
31 -7 -9 -9 -2 58 58 -2 -9 -9 -9 -9 -9 -9 -9 -9 -9 -9 -2 60 30 -7 -9 -9 -9 -9 -9 -9 -9 -9 -9 -9 -9 -9 -9 -9 -9 -9 -4 60 30 -7 -9 -9 -9 -9 -9 -9 -9 -9 -7 31 33 -7 -9 -9 -9 -9 -9 -9 -9 -9 -9 -9 -9 -9 -9 -9 -9 -9 -9 -9 -9 -9 -9 -9 -9 -9 -9 -9 -9 -9 -7 30 60 -4 -9 -9 -9 -9 -9 -9 -9 -9 -9 -9 -9 -7 28 60 -4 -9 -9 -9 -9 -9 -9 -9 -7 31 
31 -7 -9 -9 -9 -2 58 58 -2 -9 -9 -9 -9 -9 -9 -9 -9 -4 58 58 -4 -9 -9 -9 -9 -9 -9 -9 -9 -9 -9 -9 -9 -9 -9 -9 -9 -7 30 60 -4 -9 -9 -9 -9 -9 -9 -9 -9 -9 -7 28 60 -4 -9 -9 -9 -9 -9 -9 -9 -9 -9 -9 -9 -9 -9 -9 -9 -9 -9 -9 -9 -9 -9 -9 -9 -9 -9 -9 -9 -9 -4 60 30 -7 -9 -9 -9 -9 -9 -9 -9 -9 -9 -9 -9 -7 31 33 -7 -9 -9 -9 -9 -9 -9 -9 -7 31 
31 -7 -9 -9 -9 -9 -2 58 58 -2 -9 -9 -9 -9 -9 -9 -7 30 60 -2 -9 -9 -9 -9 -9 -9 -9 -9 -9 -9 -9 -9 -9 -9 -9 -9 -9 -2 60 30 -7 -9 -9 -9 -9 -9 -9 -9 -9 -9 -9 -4 60 28 -7 -9 -9 -9 -9 -9 -9 -9 -9 -9 -9 -9 -9 -9 -9 -9 -9 -9 -9 -9 -9 -9 -9 -9 -9 -9 -9 -7 29 60 -4 -9 -9 -9 -9 -9 -9 -9 -9 -9 -9 -9 -9 -7 33 31 -7 -9 -9 -9 -9 -9 -9 -9 -7 31 
31 -7 -9 -9 -9 -9 -9 -2 58 58 -2 -9 -9 -9 -9 -9 -2 60 30 -7 -9 -9 -9 -9 -9 -9 -9 -9 -9 -9 -9 -9 -9 -9 -9 -9 -4 58 58 -4 -9 -9 -9 -9 -9 -9 -9 -9 -9 -9 -9 -7 33 31 -7 -9 -9 -9 -9 -9 -9 -9 -9 -9 -9 -9 -9 -9 -9 -9 -9 -9 -9 -9 -9 -9 -9 -9 -9 -9 -9 -7 32 32 -7 -9 -9 -9 -9 -9 -9 -9 -9 -9 -9 -9 -9 -4 60 28 -7 -9 -9 -9 -9 -9 -9 -9 -7 31 
31 -7 -9 -9 -9 -9 -9 -9 -2 58 58 -2 -9 -9 -9 -4 58 58 -4 -9 -9 -9 -9 -9 -9 -9 -9 -9 -9 -9 -9 -9 -9 -9 -9 -7 30 60 -2 -9 -9 -9 -9 -9 -9 -9 -9 -9 -9 -9 -9 -7 31 31 -7 -9 -9 -9 -9 -9 -9 -9 -9 -9 -9 -9 -9 -9 -9 -9 -9 -9 -9 -9 -9 -9 -9 -9 -9 -9 -9 -4 60 29 -7 -9 -9 -9 -9 -9 -9 -9 -9 -9 -9 -9 -7 28 60 -4 -9 -9 -9 -9 -9 -9 -9 -9 -7 31 
31 -7 -9 -9 -9 -9 -9 -9 -9 -2 58 58 -2 -9 -7 30 60 -2 -9 -9 -9 -9 -9 -9 -9 -9 -9 -9 -9 -9 -9 -9 -9 -9 -9 -4 60 30 -7 -9 -9 -9 -9 -9 -9 -9 -9 -9 -9 -9 -9 -7 31 31 -7 -9 -9 -9 -9 -9 -9 -9 -9 -9 -9 -9 -9 -9 -9 -9 -9 -9 -9 -9 -9 -9 -9 -9 -9 -9 -7 30 60 -4 -9 -9 -9 -9 -9 -9 -9 -9 -9 -9 -9 -9 -7 31 33 -7 -9 -9 -9 -9 -9 -9 -9 -9 -7 31 
31 -7 -9 -9 -9 -9 -9 -9 -9 -9 -2 58 58 -2 -2 60 30 -7 -9 -9 -9 -9 -9 -9 -9 -9 -9 -9 -9 -9 -9 -9 -9 -9 -7 30 60 -4 -9 -9 -9 -9 -9 -9 -9 -9 -9 -9 -9 -9 -9 -7 31 33 -7 -9 -9 -9 -9 -9 -9 -9 -9 -9 -9 -9 -9 -9 -9 -9 -9 -9 -9 -9 -9 -9 -9 -9 -9 -9 -4 60 30 -7 -9 -9 -9 -9 -9 -9 -9 -9 -9 -9 -9 -9 -7 33 31 -7 -9 -9 -9 -9 -9 -9 -9 -9 -7 31 
31 -7 -9 -9 -9 -9 -9 -9 -9 -9 -9 -2 58 62 62 58 -4 -9 -9 -9 -9 -9 -9 -9 -9 -9 -9 -9 -9 -9 -9 -9 -9 -9 -4 60 30 -7 -9 -9 -9 -9 -9 -9 -9 -9 -9 -9 -9 -9 -9 -7 28 60 -4 -9 -9 -9 -9 -9 -9 -9 -9 -9 -9 -9 -9 -9 -9 -9 -9 -9 -9 -9 -9 -9 -9 -9 -9 -7 29 60 -4 -9 -9 -9 -9 -9 -9 -9 -9 -9 -9 -9 -9 -9 -4 60 28 -7 -9 -9 -9 -9 -9 -9 -9 -9 -7 31 
31 -7 -9 -9 -9 -9 -9 -9 -9 -9 -9 -9 -2 64 64 -2 -9 -9 -9 -9 -9 -9 -9 -9 -9 -9 -9 -9 -9 -9 -9 -9 -9 -7 30 60 -4 -9 -9 -9 -9 -9 -9 -9 -9 -9 -9 -9 -9 -9 -9 -9 -4 60 28 -7 -9 -9 -9 -9 -9 -9 -9 -9 -9 -9 -9 -9 -9 -9 -9 -9 -9 -9 -9 -9 -9 -9 -9 -7 32 32 -7 -9 -9 -9 -9 -9 -9 -9 -9 -9 -9 -9 -9 -7 28 60 -4 -9 -9 -9 -9 -9 -9 -9 -9 -9 -7 31 
31 -7 -9 -9 -9 -9 -9 -9 -9 -9 -9 -9 -7 33 33 -7 -9 -9 -9 -9 -9 -9 -9 -9 -9 -9 -9 -9 -9 -9 -9 -9 -9 -2 60 30 -7 -9 -9 -9 -9 -9 -9 -9 -9 -9 -9 -9 -9 -9 -9 -9 -7 33 31 -7 -9 -9 -9 -9 -9 -9 -9 -9 -9 -9 -9 -9 -9 -9 -9 -9 -9 -9 -9 -9 -9 -9 -9 -4 60 29 -7 -9 -9 -9 -9 -9 -9 -9 -9 -9 -9 -9 -9 -7 31 33 -7 -9 -9 -9 -9 -9 -9 -9 -9 -9 -7 31 
31 -7 -9 -9 -9 -9 -9 -9 -9 -9 -9 -9 -7 31 33 -7 -9 -9 -9 -9 -9 -9 -9 -9 -9 -9 -9 -9 -9 -9 -9 -9 -4 58 58 -4 -9 -9 -9 -9 -9 -9 -9 -9 -9 -9 -9 -9 -9 -9 -9 -9 -7 31 31 -7 -9 -9 -9 -9 -9 -9 -9 -9 -9 -9 -9 -9 -9 -9 -9 -9 -9 -9 -9 -9 -9 -9 -7 30 60 -4 -9 -9 -9 -9 -9 -9 -9 -9 -9 -9 -9 -9 -9 -7 33 31 -7 -9 -9 -9 -9 -9 -9 -9 -9 -9 -7 31 
31 -7 -9 -9 -9 -9 -9 -9 -9 -9 -9 -9 -7 28 60 -4 -9 -9 -9 -9 -9 -9 -9 -9 -9 -9 -9 -9 -9 -9 -9 -7 30 60 -2 -9 -9 -9 -9 -9 -9 -9 -9 -9 -9 -9 -9 -9 -9 -9 -9 -9 -7 31 31 -7 -9 -9 -9 -9 -9 -9 -9 -9 -9 -9 -9 -9 -9 -9 -9 -9 -9 -9 -9 -9 -9 -9 -4 60 30 -7 -9 -9 -9 -9 -9 -9 -9 -9 -9 -9 -9 -9 -9 -4 60 28 -7 -9 -9 -9 -9 -9 -9 -9 -9 -9 -7 31 
31 -7 -9 -9 -9 -9 -9 -9 -9 -9 -9 -9 -9 -4 60 28 -7 -9 -9 -9 -9 -9 -9 -9 -9 -9 -9 -9 -9 -9 -9 -4 60 30 -7 -9 -9 -9 -9 -9 -9 -9 -9 -9 -9 -9 -9 -9 -9 -9 -9 -9 -7 31 31 -7 -9 -9 -9 -9 -9 -9 -9 -9 -9 -9 -9 -9 -9 -9 -9 -9 -9 -9 -9 -9 -9 -7 29 60 -4 -9 -9 -9 -9 -9 -9 -9 -9 -9 -9 -9 -9 -9 -7 28 60 -4 -9 -9 -9 -9 -9 -9 -9 -9 -9 -9 -7 31 
31 -7 -9 -9 -9 -9 -9 -9 -9 -9 -9 -9 -9 -7 33 31 -7 -9 -9 -9 -9 -9 -9 -9 -9 -9 -9 -9 -9 -9 -7 30 60 -4 -9 -9 -9 -9 -9 -9 -9 -9 -9 -9 -9 -9 -9 -9 -9 -9 -9 -9 -7 31 33 -7 -9 -9 -9 -9 -9 -9 -9 -9 -9 -9 -9 -9 -9 -9 -9 -9 -9 -9 -9 -9 -9 -7 32 32 -7 -9 -9 -9 -9 -9 -9 -9 -9 -9 -9 -9 -9 -9 -7 31 33 -7 -9 -9 -9 -9 -9 -9 -9 -9 -9 -9 -7 31 
31 -7 -9 -9 -9 -9 -9 -9 -9 -9 -9 -9 -9 -7 31 31 -7 -9 -9 -9 -9 -9 -9 -9 -9 -9 -9 -9 -9 -9 -4 60 30 -7 -9 -9 -9 -9 -9 -9 -9 -9 -9 -9 -9 -9 -9 -9 -9 -9 -9 -9 -7 28 60 -4 -9 -9 -9 -9 -9 -9 -9 -9 -9 -9 -9 -9 -9 -9 -9 -9 -9 -9 -9 -9 -9 -4 60 29 -7 -9 -9 -9 -9 -9 -9 -9 -9 -9 -9 -9 -9 -9 -7 33 31 -7 -9 -9 -9 -9 -9 -9 -9 -9 -9 -9 -7 31 
31 -7 -9 -9 -9 -9 -9 -9 -9 -9 -9 -9 -9 -7 31 33 -7 -9 -9 -9 -9 -9 -9 -9 -9 -9 -9 -9 -9 -7 30 60 -4 -9 -9 -9 -9 -9 -9 -9 -9 -9 -9 -9 -9 -9 -9 -9 -9 -9 -9 -9 -9 -4 60 28 -7 -9 -9 -9 -9 -9 -9 -9 -9 -9 -9 -9 -9 -9 -9 -9 -9 -9 -9 -9 -7 30 60 -4 -9 -9 -9 -9 -9 -9 -9 -9 -9 -9 -9 -9 -9 -9 -4 60 28 -7 -9 -9 -9 -9 -9 -9 -9 -9 -9 -9 -7 33 
31 -7 -9 -9 -9 -9 -9 -9 -9 -9 -9 -9 -9 -7 28 60 -4 -9 -9 -9 -9 -9 -9 -9 -9 -9 -9 -9 -9 -2 60 30 -7 -9 -9 -9 -9 -9 -9 -9 -9 -9 -9 -9 -9 -9 -9 -9 -9 -9 -9 -9 -9 -7 33 31 -7 -9 -9 -9 -9 -9 -9 -9 -9 -9 -9 -9 -9 -9 -9 -9 -9 -9 -9 -9 -4 60 30 -7 -9 -9 -9 -9 -9 -9 -9 -9 -9 -9 -9 -9 -9 -7 28 60 -4 -9 -9 -9 -9 -9 -9 -9 -9 -9 -9 -9 -4 64 
32 -7 -9 -9 -9 -9 -9 -9 -9 -9 -9 -9 -9 -9 -4 60 28 -7 -9 -9 -9 -9 -9 -9 -9 -9 -9 -9 -4 58 58 -4 -9 -9 -9 -9 -9 -9 -9 -9 -9 -9 -9 -9 -9 -9 -9 -9 -9 -9 -9 -9 -9 -7 31 31 -7 -9 -9 -9 -9 -9 -9 -9 -9 -9 -9 -9 -9 -9 -9 -9 -9 -9 -9 -7 29 60 -4 -9 -9 -9 -9 -9 -9 -9 -9 -9 -9 -9 -9 -9 -9 -7 31 33 -7 -9 -9 -9 -9 -9 -9 -9 -9 -9 -9 -7 30 95 
31 -7 -9 -9 -9 -9 -9 -9 -9 -9 -9 -9 -9 -9 -7 33 31 -7 -9 -9 -9 -9 -9 -9 -9 -9 -9 -7 30 60 -2 -9 -9 -9 -9 -9 -9 -9 -9 -9 -9 -9 -9 -9 -9 -9 -9 -9 -9 -9 -9 -9 -9 -7 31 31 -7 -9 -9 -9 -9 -9 -9 -9 -9 -9 -9 -9 -9 -9 -9 -9 -9 -9 -9 -7 32 32 -7 -9 -9 -9 -9 -9 -9 -9 -9 -9 -9 -9 -9 -9 -9 -7 33 31 -7 -9 -9 -9 -9 -9 -9 -9 -9 -9 -9 -2 61 68 
31 -7 -9 -9 -9 -9 -9 -9 -9 -9 -9 -9 -9 -9 -7 31 31 -7 -9 -9 -9 -9 -9 -9 -9 -9 -9 -4 60 30 -7 -9 -9 -9 -9 -9 -9 -9 -9 -9 -9 -9 -9 -9 -9 -9 -9 -9 -9 -9 -9 -9 -9 -7 31 31 -7 -9 -9 -9 -9 -9 -9 -9 -9 -9 -9 -9 -9 -9 -9 -9 -9 -9 -9 -4 60 29 -7 -9 -9 -9 -9 -9 -9 -9 -9 -9 -9 -9 -9 -9 -9 -4 60 28 -7 -9 -9 -9 -9 -9 -9 -9 -9 -9 -4 58 60 36 
31 -7 -9 -9 -9 -9 -9 -9 -9 -9 -9 -9 -9 -9 -7 31 33 -7 -9 -9 -9 -9 -9 -9 -9 -9 -7 30 60 -4 -9 -9 -9 -9 -9 -9 -9 -9 -9 -9 -9 -9 -9 -9 -9 -9 -9 -9 -9 -9 -9 -9 -9 -7 31 33 -7 -9 -9 -9 -9 -9 -9 -9 -9 -9 -9 -9 -9 -9 -9 -9 -9 -9 -7 30 60 -4 -9 -9 -9 -9 -9 -9 -9 -9 -9 -9 -9 -9 -9 -9 -7 28 60 -4 -9 -9 -9 -9 -9 -9 -9 -9 -9 -7 30 60 -1 31 
31 -7 -9 -9 -9 -9 -9 -9 -9 -9 -9 -9 -9 -9 -7 28 60 -4 -9 -9 -9 -9 -9 -9 -9 -9 -4 60 30 -7 -9 -9 -9 -9 -9 -9 -9 -9 -9 -9 -9 -9 -9 -9 -9 -9 -9 -9 -9 -9 -9 -9 -9 -7 28 60 -4 -9 -9 -9 -9 -9 -9 -9 -9 -9 -9 -9 -9 -9 -9 -9 -9 -9 -4 60 30 -7 -9 -9 -9 -9 -9 -9 -9 -9 -9 -9 -9 -9 -9 -9 -7 31 33 -7 -9 -9 -9 -9 -9 -9 -9 -9 -9 -2 60 30 -5 31 
31 -7 -9 -9 -9 -9 -9 -9 -9 -9 -9 -9 -9 -9 -9 -4 60 28 -7 -9 -9 -9 -9 -9 -9 -7 30 60 -4 -9 -9 -9 -9 -9 -9 -9 -9 -9 -9 -9 -9 -9 -9 -9 -9 -9 -9 -9 -9 -9 -9 -9 -9 -9 -4 60 28 -7 -9 -9 -9 -9 -9 -9 -9 -9 -9 -9 -9 -9 -9 -9 -9 -7 29 60 -4 -9 -9 -9 -9 -9 -9 -9 -9 -9 -9 -9 -9 -9 -9 -9 -7 33 31 -7 -9 -9 -9 -9 -9 -9 -9 -9 -4 58 58 -4 -7 31 
31 -7 -9 -9 -9 -9 -9 -9 -9 -9 -9 -9 -9 -9 -9 -7 33 31 -7 -9 -9 -9 -9 -9 -9 -2 60 30 -7 -9 -9 -9 -9 -9 -9 -9 -9 -9 -9 -9 -9 -9 -9 -9 -9 -9 -9 -9 -9 -9 -9 -9 -9 -9 -7 33 31 -7 -9 -9 -9 -9 -9 -9 -9 -9 -9 -9 -9 -9 -9 -9 -9 -7 32 32 -7 -9 -9 -9 -9 -9 -9 -9 -9 -9 -9 -9 -9 -9 -9 -9 -4 60 28 -7 -9 -9 -9 -9 -9 -9 -9 -7 30 60 -2 -9 -7 31 
31 -7 -9 -9 -9 -9 -9 -9 -9 -9 -9 -9 -9 -9 -9 -7 31 31 -7 -9 -9 -9 -9 -9 -4 58 58 -4 -9 -9 -9 -9 -9 -9 -9 -9 -9 -9 -9 -9 -9 -9 -9 -9 -9 -9 -9 -9 -9 -9 -9 -9 -9 -9 -7 33 33 -5 -7 -7 -7 -7 -9 -9 -9 -9 -9 -9 -9 -9 -9 -9 -9 -4 60 29 -7 -9 -9 -9 -9 -9 -9 -9 -9 -9 -9 -9 -9 -9 -9 -7 28 60 -4 -9 -9 -9 -9 -9 -9 -9 -9 -2 60 30 -7 -9 -7 31 
31 -7 -9 -9 -9 -9 -9 -9 -9 -9 -9 -9 -9 -9 -9 -7 31 33 -7 -9 -9 -9 -9 -7 30 60 -2 -9 -9 -9 -9 -9 -9 -9 -9 -9 -9 -9 -9 -9 -9 -9 -9 -9 -9 -9 -9 -9 -9 -9 -9 -9 -9 -7 -2 64 66 33 31 31 31 28 -4 -7 -7 -7 -7 -7 -7 -9 -9 -9 -7 30 60 -4 -9 -9 -9 -9 -9 -9 -9 -9 -9 -9 -9 -9 -9 -9 -9 -7 31 33 -7 -9 -9 -9 -9 -9 -9 -9 -4 58 58 -4 -9 -9 -7 31 
31 -7 -9 -9 -9 -9 -9 -9 -9 -9 -9 -9 -9 -9 -9 -7 28 60 -4 -9 -9 -9 -9 -4 60 30 -7 -9 -9 -9 -9 -9 -9 -9 -9 -9 -9 -9 -9 -9 -9 -9 -9 -9 -9 -9 -9 -9 -9 -9 -9 -9 -4 30 60 61 33 31 31 31 33 60 60 33 31 31 31 31 28 -4 -7 -7 -2 60 30 -7 -9 -9 -9 -9 -9 -9 -9 -9 -9 -9 -9 -9 -9 -9 -9 -7 33 31 -7 -9 -9 -9 -9 -9 -9 -7 30 60 -2 -9 -9 -9 -7 31 
31 -7 -9 -9 -9 -9 -9 -9 -9 -9 -9 -9 -9 -9 -9 -9 -4 60 28 -7 -9 -9 -7 30 60 -4 -9 -9 -9 -9 -9 -9 -9 -9 -9 -9 -9 -9 -9 -9 -9 -9 -9 -9 -9 -9 -9 -9 -9 -9 -7 -2 58 60 30 -4 -7 -7 -7 -7 -7 -4 28 31 31 31 31 33 60 60 33 33 64 62 -4 -9 -9 -9 -9 -9 -9 -9 -9 -9 -9 -9 -9 -9 -9 -9 -9 -4 60 28 -7 -9 -9 -9 -9 -9 -9 -2 60 30 -7 -9 -9 -9 -7 31 
31 -7 -9 -9 -9 -9 -9 -9 -9 -9 -9 -9 -9 -9 -9 -9 -7 33 31 -7 -9 -9 -4 60 30 -7 -9 -9 -9 -9 -9 -9 -9 -9 -9 -9 -9 -9 -9 -9 -9 -9 -9 -9 -9 -9 -9 -9 -9 -4 30 60 58 -2 -7 -9 -9 -9 -9 -9 -9 -9 -7 -7 -7 -7 -7 -7 -4 28 31 33 64 62 -4 -9 -9 -9 -9 -9 -9 -9 -9 -9 -9 -9 -9 -9 -9 -9 -7 28 60 -4 -9 -9 -9 -9 -9 -9 -4 58 58 -4 -9 -9 -9 -9 -7 31 
31 -7 -9 -9 -9 -9 -9 -9 -9 -9 -9 -9 -9 -9 -9 -9 -7 31 31 -7 -9 -7 30 60 -4 -9 -9 -9 -9 -9 -9 -9 -9 -9 -9 -9 -9 -9 -9 -9 -9 -9 -9 -9 -9 -9 -9 -7 -2 58 60 30 -4 -9 -9 -9 -9 -9 -9 -9 -9 -9 -9 -9 -9 -9 -9 -9 -9 -7 -7 -7 -2 60 30 -7 -9 -9 -9 -9 -9 -9 -9 -9 -9 -9 -9 -9 -9 -9 -7 31 33 -7 -9 -9 -9 -9 -9 -7 30 60 -2 -9 -9 -9 -9 -9 -7 31 
31 -7 -9 -9 -9 -9 -9 -9 -9 -9 -9 -9 -9 -9 -9 -9 -7 31 33 -7 -9 -2 60 30 -7 -9 -9 -9 -9 -9 -9 -9 -9 -9 -9 -9 -9 -9 -9 -9 -9 -9 -9 -9 -9 -9 -4 30 60 58 -2 -7 -9 -9 -9 -9 -9 -9 -9 -9 -9 -9 -9 -9 -9 -9 -9 -9 -9 -9 -9 -9 -7 30 60 -2 -9 -9 -9 -9 -9 -9 -9 -9 -9 -9 -9 -9 -9 -9 -7 33 31 -7 -9 -9 -9 -9 -9 -2 60 30 -7 -9 -9 -9 -9 -9 -7 31 
31 -7 -9 -9 -9 -9 -9 -9 -9 -9 -9 -9 -9 -9 -9 -9 -7 28 60 -4 -4 58 58 -4 -9 -9 -9 -9 -9 -9 -9 -9 -9 -9 -9 -9 -9 -9 -9 -9 -9 -9 -9 -9 -9 -2 58 60 30 -4 -9 -9 -9 -9 -9 -9 -9 -9 -9 -9 -9 -9 -9 -9 -9 -9 -9 -9 -9 -9 -9 -9 -9 -4 58 58 -2 -7 -9 -9 -9 -9 -9 -9 -9 -9 -9 -9 -9 -9 -4 60 28 -7 -9 -9 -9 -9 -4 58 58 -4 -9 -9 -9 -9 -9 -9 -7 31 
31 -7 -9 -9 -9 -9 -9 -9 -9 -9 -9 -9 -9 -9 -9 -9 -9 -4 60 30 31 60 -2 -9 -9 -9 -9 -9 -9 -9 -9 -9 -9 -9 -9 -9 -9 -9 -9 -9 -9 -9 -9 -7 -2 58 58 -2 -7 -9 -9 -9 -9 -9 -9 -9 -9 -9 -9 -9 -9 -9 -9 -9 -9 -9 -9 -9 -9 -9 -9 -9 -9 -9 -2 61 64 30 -4 -7 -7 -7 -7 -7 -7 -7 -7 -7 -7 -5 30 62 -4 -9 -9 -9 -9 -7 30 60 -2 -9 -9 -9 -9 -9 -9 -9 -7 31 
31 -7 -9 -9 -9 -9 -9 -9 -9 -9 -9 -9 -9 -9 -9 -9 -9 -7 33 36 62 30 -7 -9 -9 -9 -9 -9 -9 -9 -9 -9 -9 -9 -9 -9 -9 -9 -9 -9 -9 -9 -4 30 60 58 -2 -9 -9 -9 -9 -9 -9 -9 -9 -9 -9 -9 -9 -9 -9 -9 -9 -9 -9 -9 -9 -9 -9 -9 -9 -9 -9 -9 -7 33 67 62 60 33 31 31 31 31 31 31 31 31 31 33 66 65 -2 -7 -9 -9 -9 -2 60 30 -7 -9 -9 -9 -9 -9 -9 -9 -7 31 
31 -7 -9 -9 -9 -9 -9 -9 -9 -9 -9 -9 -9 -9 -9 -9 -9 -7 31 68 61 -4 -9 -9 -9 -9 -9 -9 -9 -9 -9 -9 -9 -9 -9 -9 -9 -9 -9 -9 -7 -2 58 60 30 -4 -9 -9 -9 -9 -9 -9 -9 -9 -9 -9 -9 -9 -9 -9 -9 -9 -9 -9 -9 -9 -9 -9 -9 -9 -9 -9 -9 -9 -7 33 33 -2 29 31 31 31 31 31 31 31 31 31 31 31 33 61 60 30 -4 -7 -4 58 58 -4 -9 -9 -9 -9 -9 -9 -9 -9 -7 31 
31 -7 -9 -9 -9 -9 -9 -9 -9 -9 -9 -9 -9 -9 -9 -9 -9 -7 32 95 30 -7 -9 -9 -9 -9 -9 -9 -9 -9 -9 -9 -9 -9 -9 -9 -9 -9 -9 -4 30 60 58 -2 -7 -9 -9 -9 -9 -9 -9 -9 -9 -9 -9 -9 -9 -9 -9 -9 -9 -9 -9 -9 -9 -9 -9 -9 -9 -9 -9 -9 -9 -9 -4 60 29 -7 -7 -7 -7 -7 -7 -7 -7 -7 -7 -7 -7 -7 -7 -4 30 60 60 31 33 61 -2 -9 -9 -9 -9 -9 -9 -9 -9 -9 -7 31 
31 -7 -9 -9 -9 -9 -9 -9 -9 -9 -9 -9 -9 -9 -9 -9 -9 -7 31 64 -4 -9 -9 -9 -9 -9 -9 -9 -9 -9 -9 -9 -9 -9 -9 -9 -9 -7 -2 58 60 30 -4 -9 -9 -9 -9 -9 -9 -9 -9 -9 -9 -9 -9 -9 -9 -9 -9 -9 -9 -9 -9 -9 -9 -9 -9 -9 -9 -9 -9 -9 -9 -7 28 60 -4 -9 -9 -9 -9 -9 -9 -9 -9 -9 -9 -9 -9 -9 -9 -9 -7 -4 30 61 93 34 -7 -9 -9 -9 -9 -9 -9 -9 -9 -9 -7 31 
31 -7 -9 -9 -9 -9 -9 -9 -9 -9 -9 -9 -9 -9 -9 -9 -9 -7 31 33 -7 -9 -9 -9 -9 -9 -9 -9 -9 -9 -9 -9 -9 -9 -9 -9 -4 30 61 58 -2 -7 -9 -9 -9 -9 -9 -9 -9 -9 -9 -9 -9 -9 -9 -9 -9 -9 -9 -9 -9 -9 -9 -9 -9 -9 -9 -9 -9 -9 -9 -9 -9 -7 31 33 -7 -9 -9 -9 -9 -9 -9 -9 -9 -9 -9 -9 -9 -9 -9 -9 -9 -9 -7 -2 61 61 -2 -9 -9 -9 -9 -9 -9 -9 -9 -9 -7 31 
31 -7 -9 -9 -9 -9 -9 -9 -9 -9 -9 -9 -9 -9 -9 -9 -9 -7 31 31 -7 -9 -9 -9 -9 -9 -9 -9 -9 -9 -9 -9 -9 -7 -7 -2 61 95 65 0 -7 -7 -7 -7 -9 -9 -9 -9 -9 -9 -9 -9 -9 -9 -9 -9 -9 -9 -9 -9 -9 -9 -9 -9 -9 -9 -9 -9 -9 -9 -9 -9 -9 -7 31 31 -7 -9 -9 -9 -9 -9 -9 -9 -9 -9 -9 -9 -9 -9 -9 -9 -9 -9 -9 -9 -2 58 58 -4 -9 -9 -9 -9 -9 -9 -9 -9 -7 31 
31 -7 -9 -9 -9 -9 -9 -9 -9 -9 -9 -9 -9 -9 -9 -9 -9 -7 33 31 -7 -9 -9 -9 -9 -9 -9 -9 -9 -9 -9 -7 -4 29 32 60 61 34 61 60 33 31 31 28 -4 -7 -7 -7 -9 -9 -9 -9 -9 -9 -9 -9 -9 -9 -9 -9 -9 -9 -9 -9 -9 -9 -9 -9 -9 -9 -9 -9 -9 -7 31 31 -7 -9 -9 -9 -9 -9 -9 -9 -9 -9 -9 -9 -9 -9 -9 -9 -9 -9 -9 -9 -9 -2 60 30 -7 -9 -9 -9 -9 -9 -9 -9 -7 31 
31 -7 -9 -9 -9 -9 -9 -9 -9 -9 -9 -9 -9 -9 -9 -9 -9 -4 60 28 -7 -9 -9 -9 -9 -9 -9 -9 -9 -7 -4 30 60 60 32 29 -4 -7 -4 28 31 31 33 60 60 33 31 28 -4 -7 -7 -7 -7 -9 -9 -9 -9 -9 -9 -9 -9 -9 -9 -9 -9 -9 -9 -9 -9 -9 -9 -9 -9 -7 33 31 -7 -9 -9 -9 -9 -9 -9 -9 -9 -9 -9 -9 -9 -9 -9 -9 -9 -9 -9 -9 -9 -7 30 60 -2 -9 -9 -9 -9 -9 -9 -9 -7 31 
31 -7 -9 -9 -9 -9 -9 -9 -9 -9 -9 -9 -9 -9 -9 -9 -7 28 60 -4 -9 -9 -9 -9 -9 -9 -7 -7 -4 30 60 60 30 -4 -7 -7 -9 -9 -9 -7 -7 -7 -7 -4 28 31 33 60 60 33 31 31 28 -4 -7 -7 -7 -9 -9 -9 -9 -9 -9 -9 -9 -9 -9 -9 -9 -9 -9 -9 -9 -4 60 28 -7 -9 -9 -9 -9 -9 -9 -9 -9 -9 -9 -9 -9 -9 -9 -9 -9 -9 -9 -9 -9 -9 -4 58 58 -4 -9 -9 -9 -9 -9 -9 -7 31 
31 -7 -9 -9 -9 -9 -9 -9 -9 -9 -9 -9 -9 -9 -9 -9 -7 31 33 -7 -9 -9 -9 -9 -7 -4 29 32 60 60 30 -4 -7 -9 -9 -9 -9 -9 -9 -9 -9 -9 -9 -9 -7 -7 -7 -4 28 31 31 33 60 60 33 31 28 -4 -7 -7 -7 -7 -9 -9 -9 -9 -9 -9 -9 -9 -9 -9 -7 28 60 -4 -9 -9 -9 -9 -9 -9 -9 -9 -9 -9 -9 -9 -9 -9 -9 -9 -9 -9 -9 -9 -9 -9 -9 -2 60 30 -7 -9 -9 -9 -9 -9 -7 31 
31 -7 -9 -9 -9 -9 -9 -9 -9 -9 -9 -9 -9 -9 -9 -9 -7 31 31 -7 -9 -9 -7 -4 30 60 60 32 29 -4 -7 -9 -9 -9 -9 -9 -9 -9 -9 -9 -9 -9 -9 -9 -9 -9 -9 -9 -7 -7 -7 -7 -4 28 31 33 60 60 33 31 31 28 -4 -7 -7 -7 -9 -9 -9 -9 -9 -9 -7 31 33 -7 -9 -9 -9 -9 -9 -9 -9 -9 -9 -9 -9 -9 -9 -9 -9 -9 -9 -9 -9 -9 -9 -9 -9 -7 30 60 -2 -9 -9 -9 -9 -9 -7 31 
31 -7 -9 -9 -9 -9 -9 -9 -9 -9 -9 -9 -9 -9 -9 -9 -7 33 31 -7 -7 -4 30 60 60 30 -4 -7 -7 -9 -9 -9 -9 -9 -9 -9 -9 -9 -9 -9 -9 -9 -9 -9 -9 -9 -9 -9 -9 -9 -9 -9 -9 -7 -7 -7 -4 28 31 31 33 60 60 33 31 28 -4 -7 -7 -7 -7 -9 -7 31 31 -7 -9 -9 -9 -9 -9 -9 -9 -9 -9 -9 -9 -9 -9 -9 -9 -9 -9 -9 -9 -9 -9 -9 -9 -9 -4 58 58 -2 -9 -9 -9 -9 -7 31 
31 -7 -9 -9 -9 -9 -9 -9 -9 -9 -9 -9 -9 -9 -9 -9 -4 61 30 -2 30 60 60 30 -4 -7 -9 -9 -9 -9 -9 -9 -9 -9 -9 -9 -9 -9 -9 -9 -9 -9 -9 -9 -9 -9 -9 -9 -9 -9 -9 -9 -9 -9 -9 -9 -9 -7 -7 -7 -7 -4 28 31 33 60 60 33 31 31 28 -4 -5 33 31 -7 -9 -9 -9 -9 -9 -9 -9 -9 -9 -9 -9 -9 -9 -9 -9 -9 -9 -9 -9 -9 -9 -9 -9 -9 -9 -2 58 58 -4 -9 -9 -9 -7 31 
31 -7 -9 -9 -9 -9 -9 -9 -9 -9 -9 -9 -9 -9 -9 -7 30 92 37 60 60 30 -4 -7 -9 -9 -9 -9 -9 -9 -9 -9 -9 -9 -9 -9 -9 -9 -9 -9 -9 -9 -9 -9 -9 -9 -9 -9 -9 -9 -9 -9 -9 -9 -9 -9 -9 -9 -9 -9 -9 -9 -7 -7 -7 -4 28 31 31 33 60 60 34 66 32 -7 -9 -9 -9 -9 -9 -9 -9 -9 -9 -9 -9 -9 -9 -9 -9 -9 -9 -9 -9 -9 -9 -9 -9 -9 -9 -9 -2 60 30 -7 -9 -9 -7 31 
31 -7 -9 -9 -9 -9 -9 -9 -9 -9 -9 -9 -9 -9 -9 -4 61 64 33 29 -4 -7 -9 -9 -9 -9 -9 -9 -9 -9 -9 -9 -9 -9 -9 -9 -9 -9 -9 -9 -9 -9 -9 -9 -9 -9 -9 -9 -9 -9 -9 -9 -9 -9 -9 -9 -9 -9 -9 -9 -9 -9 -9 -9 -9 -9 -7 -7 -7 -7 -4 29 33 66 32 -7 -9 -9 -9 -9 -9 -9 -9 -9 -9 -9 -9 -9 -9 -9 -9 -9 -9 -9 -9 -9 -9 -9 -9 -9 -9 -9 -7 30 60 -2 -9 -9 -7 31 
31 -7 -9 -9 -9 -9 -9 -9 -9 -9 -9 -9 -9 -9 -7 30 60 -2 -7 -7 -9 -9 -9 -9 -9 -9 -9 -9 -9 -9 -9 -9 -9 -9 -9 -9 -9 -9 -9 -9 -9 -9 -9 -9 -9 -9 -9 -9 -9 -9 -9 -9 -9 -9 -9 -9 -9 -9 -9 -9 -9 -9 -9 -9 -9 -9 -9 -9 -9 -9 -9 -7 -5 33 31 -7 -9 -9 -9 -9 -9 -9 -9 -9 -9 -9 -9 -9 -9 -9 -9 -9 -9 -9 -9 -9 -9 -9 -9 -9 -9 -9 -9 -4 58 58 -2 -9 -7 31 
31 -7 -9 -9 -9 -9 -9 -9 -9 -9 -9 -9 -9 -9 -2 60 30 -7 -9 -9 -9 -9 -9 -9 -9 -9 -9 -9 -9 -9 -9 -9 -9 -9 -9 -9 -9 -9 -9 -9 -9 -9 -9 -9 -9 -9 -9 -9 -9 -9 -9 -9 -9 -9 -9 -9 -9 -9 -9 -9 -9 -9 -9 -9 -9 -9 -9 -9 -9 -9 -9 -9 -7 31 31 -7 -9 -9 -9 -9 -9 -9 -9 -9 -9 -9 -9 -9 -9 -9 -9 -9 -9 -9 -9 -9 -9 -9 -9 -9 -9 -9 -9 -9 -2 58 58 -4 -7 31 
31 -7 -9 -9 -9 -9 -9 -9 -9 -9 -9 -9 -9 -4 58 58 -4 -9 -9 -9 -9 -9 -9 -9 -9 -9 -9 -9 -9 -9 -9 -9 -9 -9 -9 -9 -9 -9 -9 -9 -9 -9 -9 -9 -9 -9 -9 -9 -9 -9 -9 -9 -9 -9 -9 -9 -9 -9 -9 -9 -9 -9 -9 -9 -9 -9 -9 -9 -9 -9 -9 -9 -7 31 31 -7 -9 -9 -9 -9 -9 -9 -9 -9 -9 -9 -9 -9 -9 -9 -9 -9 -9 -9 -9 -9 -9 -9 -9 -9 -9 -9 -9 -9 -9 -2 60 30 -5 31 
31 -7 -9 -9 -9 -9 -9 -9 -9 -9 -9 -9 -7 30 60 -2 -9 -9 -9 -9 -9 -9 -9 -9 -9 -9 -9 -9 -9 -9 -9 -9 -9 -9 -9 -9 -9 -9 -9 -9 -9 -9 -9 -9 -9 -9 -9 -9 -9 -9 -9 -9 -9 -9 -9 -9 -9 -9 -9 -9 -9 -9 -9 -9 -9 -9 -9 -9 -9 -9 -9 -9 -7 31 31 -7 -9 -9 -9 -9 -9 -9 -9 -9 -9 -9 -9 -9 -9 -9 -9 -9 -9 -9 -9 -9 -9 -9 -9 -9 -9 -9 -9 -9 -9 -7 30 60 -1 31 
31 -7 -9 -9 -9 -9 -9 -9 -9 -9 -9 -9 -2 60 30 -7 -9 -9 -9 -9 -9 -9 -9 -9 -9 -9 -9 -9 -9 -9 -9 -9 -9 -9 -9 -9 -9 -9 -9 -9 -9 -9 -9 -9 -9 -9 -9 -9 -9 -9 -9 -9 -9 -9 -9 -9 -9 -9 -9 -9 -9 -9 -9 -9 -9 -9 -9 -9 -9 -9 -9 -9 -7 31 33 -7 -9 -9 -9 -9 -9 -9 -9 -9 -9 -9 -9 -9 -9 -9 -9 -9 -9 -9 -9 -9 -9 -9 -9 -9 -9 -9 -9 -9 -9 -9 -4 58 60 36 
31 -7 -9 -9 -9 -9 -9 -9 -9 -9 -9 -2 58 58 -4 -9 -9 -9 -9 -9 -9 -9 -9 -9 -9 -9 -9 -9 -9 -9 -9 -9 -9 -9 -9 -9 -9 -9 -9 -9 -9 -9 -9 -9 -9 -9 -9 -9 -9 -9 -9 -9 -9 -9 -9 -9 -9 -9 -9 -9 -9 -9 -9 -9 -9 -9 -9 -9 -9 -9 -9 -9 -7 30 61 -2 -9 -9 -9 -9 -9 -9 -9 -9 -9 -9 -9 -9 -9 -9 -9 -9 -9 -9 -9 -9 -9 -9 -9 -9 -9 -9 -9 -9 -9 -9 -9 -2 61 68 
32 -7 -9 -9 -9 -9 -9 -9 -9 -9 -2 58 60 -1 -7 -7 -7 -9 -9 -9 -9 -9 -9 -9 -9 -9 -9 -9 -9 -9 -9 -9 -9 -9 -9 -9 -9 -9 -9 -9 -9 -9 -9 -9 -9 -9 -9 -9 -9 -9 -9 -9 -9 -9 -9 -9 -9 -9 -9 -9 -9 -9 -9 -9 -9 -9 -9 -9 -9 -9 -9 -7 -4 33 93 61 -2 -7 -9 -9 -9 -9 -9 -9 -9 -9 -9 -9 -9 -9 -9 -9 -9 -9 -9 -9 -9 -9 -9 -9 -9 -9 -9 -9 -9 -9 -9 -7 30 95 
31 -7 -9 -9 -9 -9 -9 -9 -9 -2 61 93 37 31 31 31 28 -4 -7 -7 -7 -7 -7 -7 -7 -7 -7 -7 -7 -9 -9 -9 -9 -9 -9 -9 -9 -9 -9 -9 -9 -9 -9 -9 -9 -9 -9 -9 -9 -9 -9 -9 -9 -9 -9 -9 -9 -9 -9 -9 -9 -9 -9 -9 -9 -9 -9 -9 -9 -9 -4 30 60 60 34 61 60 30 -4 -7 -9 -9 -9 -9 -9 -9 -9 -9 -9 -9 -9 -9 -9 -9 -9 -9 -9 -9 -9 -9 -9 -9 -9 -9 -9 -9 -9 -9 -4 64 
31 -7 -9 -9 -9 -9 -9 -9 -2 58 61 33 31 31 31 33 60 60 33 31 31 31 31 31 31 31 31 31 28 -4 -7 -7 -7 -7 -7 -7 -7 -7 -7 -7 -9 -9 -9 -9 -9 -9 -9 -9 -9 -9 -9 -9 -9 -9 -9 -9 -9 -9 -9 -9 -9 -9 -9 -9 -9 -9 -9 -9 -7 -2 58 60 30 -4 -7 -4 30 60 60 30 -4 -9 -9 -9 -9 -9 -9 -9 -9 -9 -9 -9 -9 -9 -9 -9 -9 -9 -9 -9 -9 -9 -9 -9 -9 -9 -9 -9 -7 33 
31 -7 -9 -9 -9 -9 -9 -2 58 58 -2 -7 -7 -7 -7 -7 -4 28 31 31 31 31 31 31 31 31 31 33 60 60 33 31 31 31 31 31 31 31 31 28 -4 -7 -7 -7 -7 -7 -7 -7 -7 -7 -7 -7 -9 -9 -9 -9 -9 -9 -9 -9 -9 -9 -9 -9 -9 -9 -7 -4 30 60 58 -2 -7 -9 -9 -9 -7 -4 30 60 58 -2 -7 -9 -9 -9 -9 -9 -9 -9 -9 -9 -9 -9 -9 -9 -9 -9 -9 -9 -9 -9 -9 -9 -9 -9 -9 -9 -7 31 
31 -7 -9 -9 -9 -9 -2 58 58 -2 -9 -9 -9 -9 -9 -9 -9 -7 -7 -7 -7 -7 -7 -7 -7 -7 -7 -7 -4 28 31 31 31 31 31 31 31 31 33 60 60 33 31 31 31 31 31 31 31 31 31 28 -4 -7 -7 -7 -7 -7 -7 -7 -7 -7 -7 -9 -9 -4 30 60 60 30 -4 -9 -9 -9 -9 -9 -9 -9 -7 -2 58 60 30 -4 -7 -9 -9 -9 -9 -9 -9 -9 -9 -9 -9 -9 -9 -9 -9 -9 -9 -9 -9 -9 -9 -9 -9 -9 -7 31 
31 -7 -9 -9 -7 -2 58 58 -2 -9 -9 -9 -9 -9 -9 -9 -9 -9 -9 -9 -9 -9 -9 -9 -9 -9 -9 -9 -9 -7 -7 -7 -7 -7 -7 -7 -7 -7 -7 -4 28 31 31 31 31 31 31 31 31 31 33 60 60 33 31 31 31 31 31 31 31 31 28 -4 -2 58 60 30 -4 -7 -9 -9 -9 -9 -9 -9 -9 -9 -9 -9 -4 30 60 60 30 -4 -9 -9 -9 -9 -9 -9 -9 -9 -9 -9 -9 -9 -9 -9 -9 -9 -9 -9 -9 -9 -9 -9 -7 31 
31 -7 -9 -4 30 60 58 -2 -9 -9 -9 -9 -9 -9 -9 -9 -9 -9 -9 -9 -9 -9 -9 -9 -9 -9 -9 -9 -9 -9 -9 -9 -9 -9 -9 -9 -9 -9 -9 -9 -7 -7 -7 -7 -7 -7 -7 -7 -7 -7 -7 -4 28 31 31 31 31 31 31 31 31 33 60 62 62 58 -2 -7 -9 -9 -9 -9 -9 -9 -9 -9 -9 -9 -9 -9 -9 -7 -4 30 60 58 -2 -7 -9 -9 -9 -9 -9 -9 -9 -9 -9 -9 -9 -9 -9 -9 -9 -9 -9 -9 -9 -9 -7 31 
31 -7 -2 58 60 30 -4 -9 -9 -9 -9 -9 -9 -9 -9 -9 -9 -9 -9 -9 -9 -9 -9 -9 -9 -9 -9 -9 -9 -9 -9 -9 -9 -9 -9 -9 -9 -9 -9 -9 -9 -9 -9 -9 -9 -9 -9 -9 -9 -9 -9 -9 -7 -7 -7 -7 -7 -7 -7 -7 -7 -7 -2 64 64 -2 -9 -9 -9 -9 -9 -9 -9 -9 -9 -9 -9 -9 -9 -9 -9 -9 -9 -7 -2 58 60 30 -4 -7 -9 -9 -9 -9 -9 -9 -9 -9 -9 -9 -9 -9 -9 -9 -9 -9 -9 -9 -7 31 
31 -1 58 58 -2 -7 -9 -9 -9 -9 -9 -9 -9 -9 -9 -9 -9 -9 -9 -9 -9 -9 -9 -9 -9 -9 -9 -9 -9 -9 -9 -9 -9 -9 -9 -9 -9 -9 -9 -9 -9 -9 -9 -9 -9 -9 -9 -9 -9 -9 -9 -9 -9 -9 -9 -9 -9 -9 -9 -9 -9 -9 -7 33 33 -7 -9 -9 -9 -9 -9 -9 -9 -9 -9 -9 -9 -9 -9 -9 -9 -9 -9 -9 -9 -4 30 60 60 30 -4 -9 -9 -9 -9 -9 -9 -9 -9 -9 -9 -9 -9 -9 -9 -9 -9 -9 -7 31 
37 60 58 -2 -9 -9 -9 -9 -9 -9 -9 -9 -9 -9 -9 -9 -9 -9 -9 -9 -9 -9 -9 -9 -9 -9 -9 -9 -9 -9 -9 -9 -9 -9 -9 -9 -9 -9 -9 -9 -9 -9 -9 -9 -9 -9 -9 -9 -9 -9 -9 -9 -9 -9 -9 -9 -9 -9 -9 -9 -9 -9 -7 31 31 -7 -9 -9 -9 -9 -9 -9 -9 -9 -9 -9 -9 -9 -9 -9 -9 -9 -9 -9 -9 -9 -7 -4 30 60 58 -2 -7 -9 -9 -9 -9 -9 -9 -9 -9 -9 -9 -9 -9 -9 -9 -9 -7 31 
93 58 -2 -9 -9 -9 -9 -9 -9 -9 -9 -9 -9 -9 -9 -9 -9 -9 -9 -9 -9 -9 -9 -9 -9 -9 -9 -9 -9 -9 -9 -9 -9 -9 -9 -9 -9 -9 -9 -9 -9 -9 -9 -9 -9 -9 -9 -9 -9 -9 -9 -9 -9 -9 -9 -9 -9 -9 -9 -9 -9 -9 -7 31 31 -7 -9 -9 -9 -9 -9 -9 -9 -9 -9 -9 -9 -9 -9 -9 -9 -9 -9 -9 -9 -9 -9 -9 -7 -2 58 60 30 -4 -7 -9 -9 -9 -9 -9 -9 -9 -9 -9 -9 -9 -9 -9 -7 32 
64 -2 -9 -9 -9 -9 -9 -9 -9 -9 -9 -9 -9 -9 -9 -9 -9 -9 -9 -9 -9 -9 -9 -9 -9 -9 -9 -9 -9 -9 -9 -9 -9 -9 -9 -9 -9 -9 -9 -9 -9 -9 -9 -9 -9 -9 -9 -9 -9 -9 -9 -9 -9 -9 -9 -9 -9 -9 -9 -9 -9 -9 -7 31 31 -7 -9 -9 -9 -9 -9 -9 -9 -9 -9 -9 -9 -9 -9 -9 -9 -9 -9 -9 -9 -9 -9 -9 -9 -9 -4 30 60 60 30 -4 -7 -9 -9 -9 -9 -9 -9 -9 -9 -9 -9 -9 -7 31 
33 -7 -9 -9 -9 -9 -9 -9 -9 -9 -9 -9 -9 -9 -9 -9 -9 -9 -9 -9 -9 -9 -9 -9 -9 -9 -9 -9 -9 -9 -9 -9 -9 -9 -9 -9 -9 -9 -9 -9 -9 -9 -9 -9 -9 -9 -9 -9 -9 -9 -9 -9 -9 -9 -9 -9 -9 -9 -9 -9 -9 -9 -7 31 31 -7 -9 -9 -9 -9 -9 -9 -9 -9 -9 -9 -9 -9 -9 -9 -9 -9 -9 -9 -9 -9 -9 -9 -9 -9 -9 -7 -4 30 60 60 30 -4 -9 -9 -9 -9 -9 -9 -9 -9 -9 -9 -7 31 
31 -7 -9 -9 -9 -9 -9 -9 -9 -9 -9 -9 -9 -9 -9 -9 -9 -9 -9 -9 -9 -9 -9 -9 -9 -9 -9 -9 -9 -9 -9 -9 -9 -9 -9 -9 -9 -9 -9 -9 -9 -9 -9 -9 -9 -9 -9 -9 -9 -9 -9 -9 -9 -9 -9 -9 -9 -9 -9 -9 -9 -9 -7 31 31 -7 -9 -9 -9 -9 -9 -9 -9 -9 -9 -9 -9 -9 -9 -9 -9 -9 -9 -9 -9 -9 -9 -9 -9 -9 -9 -9 -9 -7 -4 30 60 58 -2 -7 -9 -9 -9 -9 -9 -9 -9 -9 -7 31 
31 -7 -9 -9 -9 -9 -9 -9 -9 -9 -9 -9 -9 -9 -9 -9 -9 -9 -9 -9 -9 -9 -9 -9 -9 -9 -9 -9 -9 -9 -9 -9 -9 -9 -9 -9 -9 -9 -9 -9 -9 -9 -9 -9 -9 -9 -9 -9 -9 -9 -9 -9 -9 -9 -9 -9 -9 -9 -9 -9 -9 -9 -7 31 31 -7 -9 -9 -9 -9 -9 -9 -9 -9 -9 -9 -9 -9 -9 -9 -9 -9 -9 -9 -9 -9 -9 -9 -9 -9 -9 -9 -9 -9 -9 -7 -2 58 60 30 -4 -7 -7 -7 -9 -9 -9 -9 -7 31 
31 -7 -9 -9 -9 -9 -9 -9 -9 -9 -9 -9 -9 -9 -9 -9 -9 -9 -9 -9 -9 -9 -9 -9 -9 -9 -9 -9 -9 -9 -9 -9 -9 -9 -9 -9 -9 -9 -9 -9 -9 -9 -9 -9 -9 -9 -9 -9 -9 -9 -9 -9 -9 -9 -9 -9 -9 -9 -9 -9 -9 -9 -7 31 31 -7 -9 -9 -9 -9 -9 -9 -9 -9 -9 -9 -9 -9 -9 -9 -9 -9 -9 -9 -9 -9 -9 -9 -9 -9 -9 -9 -9 -9 -9 -9 -9 -2 34 92 64 33 31 28 -4 -7 -7 -7 -7 31 
31 -7 -9 -9 -9 -9 -9 -9 -9 -9 -9 -9 -9 -9 -9 -9 -9 -9 -9 -9 -9 -9 -9 -9 -9 -9 -9 -9 -9 -9 -9 -9 -9 -9 -9 -9 -9 -9 -9 -9 -9 -9 -9 -9 -9 -9 -9 -9 -9 -9 -9 -9 -9 -9 -9 -9 -9 -9 -9 -9 -9 -9 -7 31 31 -7 -9 -9 -9 -9 -9 -9 -9 -9 -9 -9 -9 -9 -9 -9 -9 -9 -9 -9 -9 -9 -9 -9 -9 -9 -9 -9 -9 -9 -7 -7 -4 30 62 61 33 31 33 60 60 33 31 29 -2 33 
32 -7 -9 -9 -9 -9 -9 -9 -9 -9 -9 -9 -9 -9 -9 -9 -9 -9 -9 -9 -9 -9 -9 -9 -9 -9 -9 -9 -9 -9 -9 -9 -9 -9 -9 -9 -9 -9 -9 -9 -9 -9 -9 -9 -9 -9 -9 -9 -9 -9 -9 -9 -9 -9 -9 -9 -9 -9 -9 -9 -9 -9 -7 31 31 -7 -9 -9 -9 -9 -9 -9 -9 -9 -9 -9 -9 -9 -9 -9 -9 -9 -9 -9 -9 -9 -9 -9 -9 -9 -9 -9 -7 -4 29 32 60 60 30 -4 -7 -7 -7 -4 28 31 33 60 62 67 
33 -5 -7 -7 -7 -7 -7 -7 -7 -9 -9 -9 -9 -9 -9 -9 -9 -9 -9 -9 -9 -9 -9 -9 -9 -9 -9 -9 -9 -9 -9 -9 -9 -9 -9 -9 -9 -9 -9 -9 -9 -9 -9 -9 -9 -9 -9 -9 -9 -9 -9 -9 -9 -9 -9 -9 -9 -9 -9 -9 -9 -9 -7 31 31 -7 -9 -9 -9 -9 -9 -9 -9 -9 -9 -9 -9 -9 -9 -9 -9 -9 -9 -9 -9 -9 -9 -9 -9 -7 -7 -4 30 60 60 32 29 -4 -7 -9 -9 -9 -9 -9 -7 -7 -7 -4 30 66 
66 33 31 31 31 31 31 31 28 -4 -7 -7 -7 -7 -7 -7 -7 -9 -9 -9 -9 -9 -9 -9 -9 -9 -9 -9 -9 -9 -9 -9 -9 -9 -9 -9 -9 -9 -9 -9 -9 -9 -9 -9 -9 -9 -9 -9 -9 -9 -9 -9 -9 -9 -9 -9 -9 -9 -9 -9 -9 -9 -7 31 31 -7 -9 -9 -9 -9 -9 -9 -9 -9 -9 -9 -9 -9 -9 -9 -9 -9 -9 -9 -9 -9 -9 -7 -4 29 32 60 60 30 -4 -7 -7 -9 -9 -9 -9 -9 -9 -9 -9 -9 -9 -9 -5 33 
66 33 31 31 31 31 31 33 60 60 33 31 31 31 31 31 28 -4 -7 -7 -7 -7 -7 -7 -7 -7 -9 -9 -9 -9 -9 -9 -9 -9 -9 -9 -9 -9 -9 -9 -9 -9 -9 -9 -9 -9 -9 -9 -9 -9 -9 -9 -9 -9 -9 -9 -9 -9 -9 -9 -9 -9 -7 31 31 -7 -9 -9 -9 -9 -9 -9 -9 -9 -9 -9 -9 -9 -9 -9 -9 -9 -9 -9 -7 -7 -4 30 60 60 32 29 -4 -7 -9 -9 -9 -9 -9 -9 -9 -9 -9 -9 -9 -9 -9 -9 -7 32 
33 -5 -7 -7 -7 -7 -7 -7 -4 28 31 31 31 31 31 33 60 60 33 31 31 31 31 31 31 28 -4 -7 -7 -7 -7 -7 -7 -7 -9 -9 -9 -9 -9 -9 -9 -9 -9 -9 -9 -9 -9 -9 -9 -9 -9 -9 -9 -9 -9 -9 -9 -9 -9 -9 -9 -9 -7 31 31 -7 -9 -9 -9 -9 -9 -9 -9 -9 -9 -9 -9 -9 -9 -9 -9 -9 -7 -4 29 32 60 60 30 -4 -7 -7 -9 -9 -9 -9 -9 -9 -9 -9 -9 -9 -9 -9 -9 -9 -9 -9 -7 31 
31 -7 -9 -9 -9 -9 -9 -9 -9 -7 -7 -7 -7 -7 -7 -7 -4 28 31 31 31 31 31 31 33 60 60 33 31 31 31 31 31 28 -4 -7 -7 -7 -7 -7 -7 -7 -7 -9 -9 -9 -9 -9 -9 -9 -9 -9 -9 -9 -9 -9 -9 -9 -9 -9 -9 -9 -7 31 31 -7 -9 -9 -9 -9 -9 -9 -9 -9 -9 -9 -9 -9 -9 -9 -7 -4 30 60 60 32 29 -4 -7 -9 -9 -9 -9 -9 -9 -9 -9 -9 -9 -9 -9 -9 -9 -9 -9 -9 -9 -9 -7 31 
31 -7 -9 -9 -9 -9 -9 -9 -9 -9 -9 -9 -9 -9 -9 -9 -9 -7 -7 -7 -7 -7 -7 -7 -7 -4 28 31 31 31 31 31 33 60 60 33 31 31 31 31 31 31 28 -4 -7 -7 -7 -7 -7 -7 -7 -9 -9 -9 -9 -9 -9 -9 -9 -9 -9 -9 -7 31 31 -7 -9 -9 -9 -9 -9 -9 -9 -9 -9 -9 -9 -7 -7 -4 30 60 60 30 -4 -7 -7 -9 -9 -9 -9 -9 -9 -9 -9 -9 -9 -9 -9 -9 -9 -9 -9 -9 -9 -9 -9 -9 -7 31 
31 -7 -9 -9 -9 -9 -9 -9 -9 -9 -9 -9 -9 -9 -9 -9 -9 -9 -9 -9 -9 -9 -9 -9 -9 -9 -7 -7 -7 -7 -7 -7 -7 -4 28 31 31 31 31 31 31 33 60 60 33 31 31 31 31 31 28 -4 -7 -7 -7 -7 -7 -7 -7 -7 -9 -9 -7 31 31 -7 -9 -9 -9 -9 -9 -9 -9 -9 -9 -7 -4 29 32 60 60 30 -4 -7 -9 -9 -9 -9 -9 -9 -9 -9 -9 -9 -9 -9 -9 -9 -9 -9 -9 -9 -9 -9 -9 -9 -9 -9 -7 31 
31 -7 -9 -9 -9 -9 -9 -9 -9 -9 -9 -9 -9 -9 -9 -9 -9 -9 -9 -9 -9 -9 -9 -9 -9 -9 -9 -9 -9 -9 -9 -9 -9 -9 -7 -7 -7 -7 -7 -7 -7 -7 -4 28 31 31 31 31 31 33 60 60 33 31 31 31 31 31 31 28 -4 -7 -5 33 33 -7 -9 -9 -9 -9 -9 -9 -7 -7 -4 30 60 60 32 29 -4 -7 -9 -9 -9 -9 -9 -9 -9 -9 -9 -9 -9 -9 -9 -9 -9 -9 -9 -9 -9 -9 -9 -9 -9 -9 -9 -9 -7 31 
31 -7 -9 -9 -9 -9 -9 -9 -9 -9 -9 -9 -9 -9 -9 -9 -9 -9 -9 -9 -9 -9 -9 -9 -9 -9 -9 -9 -9 -9 -9 -9 -9 -9 -9 -9 -9 -9 -9 -9 -9 -9 -9 -7 -7 -7 -7 -7 -7 -7 -4 28 31 31 31 31 31 31 33 60 60 33 33 66 64 -2 -9 -9 -9 -9 -7 -4 29 32 60 60 30 -4 -7 -7 -9 -9 -9 -9 -9 -9 -9 -9 -9 -9 -9 -9 -9 -9 -9 -9 -9 -9 -9 -9 -9 -9 -9 -9 -9 -9 -9 -9 -7 31 
31 -7 -9 -9 -9 -9 -9 -9 -9 -9 -9 -9 -9 -9 -9 -9 -9 -9 -9 -9 -9 -9 -9 -9 -9 -9 -9 -9 -9 -9 -9 -9 -9 -9 -9 -9 -9 -9 -9 -9 -9 -9 -9 -9 -9 -9 -9 -9 -9 -9 -9 -7 -7 -7 -7 -7 -7 -7 -7 -4 28 31 31 33 61 58 -2 -7 -7 -4 30 60 60 32 29 -4 -7 -9 -9 -9 -9 -9 -9 -9 -9 -9 -9 -9 -9 -9 -9 -9 -9 -9 -9 -9 -9 -9 -9 -9 -9 -9 -9 -9 -9 -9 -9 -9 -7 31 
31 -7 -9 -9 -9 -9 -9 -9 -9 -9 -9 -9 -9 -9 -9 -9 -9 -9 -9 -9 -9 -9 -9 -9 -9 -9 -9 -9 -9 -9 -9 -9 -9 -9 -9 -9 -9 -9 -9 -9 -9 -9 -9 -9 -9 -9 -9 -9 -9 -9 -9 -9 -9 -9 -9 -9 -9 -9 -9 -9 -7 -7 -7 -7 -2 58 61 33 33 60 60 30 -4 -7 -7 -9 -9 -9 -9 -9 -9 -9 -9 -9 -9 -9 -9 -9 -9 -9 -9 -9 -9 -9 -9 -9 -9 -9 -9 -9 -9 -9 -9 -9 -9 -9 -9 -9 -7 31 
31 -7 -9 -9 -9 -9 -9 -9 -9 -9 -9 -9 -9 -9 -9 -9 -9 -9 -9 -9 -9 -9 -9 -9 -9 -9 -9 -9 -9 -9 -9 -9 -9 -9 -9 -9 -9 -9 -9 -9 -9 -9 -9 -9 -9 -9 -9 -9 -9 -9 -9 -9 -9 -9 -9 -9 -9 -9 -9 -9 -9 -9 -9 -9 -9 -2 64 66 33 29 -4 -7 -9 -9 -9 -9 -9 -9 -9 -9 -9 -9 -9 -9 -9 -9 -9 -9 -9 -9 -9 -9 -9 -9 -9 -9 -9 -9 -9 -9 -9 -9 -9 -9 -9 -9 -9 -9 -7 31 
31 -7 -9 -9 -9 -9 -9 -9 -9 -9 -9 -9 -9 -9 -9 -9 -9 -9 -9 -9 -9 -9 -9 -9 -9 -9 -9 -9 -9 -9 -9 -9 -9 -9 -9 -9 -9 -9 -9 -9 -9 -9 -9 -9 -9 -9 -9 -9 -9 -9 -9 -9 -9 -9 -9 -9 -9 -9 -9 -9 -9 -9 -9 -9 -9 -7 33 33 -5 -7 -9 -9 -9 -9 -9 -9 -9 -9 -9 -9 -9 -9 -9 -9 -9 -9 -9 -9 -9 -9 -9 -9 -9 -9 -9 -9 -9 -9 -9 -9 -9 -9 -9 -9 -9 -9 -9 -9 -7 31 
31 -7 -9 -9 -9 -9 -9 -9 -9 -9 -9 -9 -9 -9 -9 -9 -9 -9 -9 -9 -9 -9 -9 -9 -9 -9 -9 -9 -9 -9 -9 -9 -9 -9 -9 -9 -9 -9 -9 -9 -9 -9 -9 -9 -9 -9 -9 -9 -9 -9 -9 -9 -9 -9 -9 -9 -9 -9 -9 -9 -9 -9 -9 -9 -9 -7 31 31 -7 -9 -9 -9 -9 -9 -9 -9 -9 -9 -9 -9 -9 -9 -9 -9 -9 -9 -9 -9 -9 -9 -9 -9 -9 -9 -9 -9 -9 -9 -9 -9 -9 -9 -9 -9 -9 -9 -9 -9 -7 31 
31 -7 -9 -9 -9 -9 -9 -9 -9 -9 -9 -9 -9 -9 -9 -9 -9 -9 -9 -9 -9 -9 -9 -9 -9 -9 -9 -9 -9 -9 -9 -9 -9 -9 -9 -9 -9 -9 -9 -9 -9 -9 -9 -9 -9 -9 -9 -9 -9 -9 -9 -9 -9 -9 -9 -9 -9 -9 -9 -9 -9 -9 -9 -9 -9 -7 31 31 -7 -9 -9 -9 -9 -9 -9 -9 -9 -9 -9 -9 -9 -9 -9 -9 -9 -9 -9 -9 -9 -9 -9 -9 -9 -9 -9 -9 -9 -9 -9 -9 -9 -9 -9 -9 -9 -9 -9 -9 -7 31 
33 -5 -7 -7 -7 -7 -7 -7 -7 -7 -7 -7 -7 -7 -7 -7 -7 -7 -7 -7 -7 -7 -7 -7 -7 -7 -7 -7 -7 -7 -7 -7 -7 -7 -7 -7 -7 -7 -7 -7 -7 -7 -7 -7 -7 -7 -7 -7 -7 -7 -7 -7 -7 -7 -7 -7 -7 -7 -7 -7 -7 -7 -7 -7 -7 -5 33 33 -5 -7 -7 -7 -7 -7 -7 -7 -7 -7 -7 -7 -7 -7 -7 -7 -7 -7 -7 -7 -7 -7 -7 -7 -7 -7 -7 -7 -7 -7 -7 -7 -7 -7 -7 -7 -7 -7 -7 -7 -5 33 
67 33 31 31 31 31 31 31 31 31 31 31 31 31 31 31 31 31 31 31 31 31 31 31 31 31 31 31 31 31 31 31 31 32 31 31 31 31 31 31 31 31 31 31 31 31 31 31 31 32 32 31 31 31 31 31 31 31 31 31 31 31 31 31 31 33 66 66 33 31 31 31 31 31 31 31 31 31 31 31 31 31 31 31 31 31 31 31 31 31 31 31 32 31 31 31 31 31 31 31 31 31 31 31 32 31 31 31 33 67 
