P2
110 110
255
134 87 77 76 76 76 76 76 76 76 76 76 76 76 76 76 76 76 76 76 76 76 76 76 76 76 76 76 76 76 77 82 107 151 119 84 77 76 76 76 76 76 76 76 76 76 76 77 86 130 130 86 77 76 76 76 76 76 76 76 76 76 76 76 76 77 80 80 77 76 76 76 76 76 76 76 76 76 76 76 76 76 76 76 76 76 76 76 76 77 80 101 150 119 84 77 76 76 76 76 76 77 80 101 150 119 84 78 87 134 
87 23 9 8 8 8 8 8 8 8 8 8 8 8 8 8 8 8 8 8 8 8 8 8 8 8 8 8 8 8 13 38 108 103 34 12 8 8 8 8 8 8 8 8 8 8 8 10 23 88 87 23 9 8 8 8 8 8 8 8 8 8 8 8 8 8 8 8 8 8 8 8 8 8 8 8 8 8 8 8 8 8 8 8 8 8 8 8 8 10 23 83 110 37 12 8 8 8 8 8 8 9 20 77 111 37 12 10 23 87 
77 9 -3 -5 -5 -5 -5 -5 -5 -5 -5 -5 -5 -5 -5 -5 -5 -5 -5 -5 -5 -5 -5 -5 -5 -5 -5 -5 -5 -3 10 71 105 33 1 -4 -5 -5 -5 -5 -5 -5 -5 -5 -5 -5 -5 -3 12 85 78 9 -3 -5 -5 -5 -5 -5 -5 -5 -5 -5 -5 -5 -5 -5 -5 -5 -5 -5 -5 -5 -5 -5 -5 -5 -5 -5 -5 -5 -5 -5 -5 -5 -5 -5 -5 -5 -5 0 27 104 70 9 -3 -5 -5 -5 -5 -5 -5 -3 9 76 82 12 -3 -3 9 77 
76 8 -5 -6 -7 -7 -7 -7 -7 -7 -7 -7 -7 -7 -7 -7 -7 -7 -7 -7 -7 -7 -7 -7 -7 -7 -7 -7 -6 0 33 104 70 9 -5 -6 -7 -7 -7 -7 -7 -7 -7 -7 -7 -7 -6 -2 27 118 79 8 -5 -6 -7 -7 -7 -7 -7 -7 -7 -7 -7 -7 -7 -7 -7 -7 -7 -7 -7 -7 -7 -7 -7 -7 -7 -7 -7 -7 -7 -7 -7 -7 -7 -7 -7 -6 -5 5 64 104 26 -2 -6 -7 -7 -7 -7 -7 -6 -4 11 82 75 8 -5 -5 8 76 
76 8 -5 -7 -7 -7 -7 -7 -7 -7 -7 -7 -7 -7 -7 -7 -7 -7 -7 -7 -7 -7 -7 -7 -7 -7 -7 -6 -2 23 97 97 23 -2 -6 -7 -7 -7 -7 -7 -7 -7 -7 -7 -7 -7 -5 8 72 153 81 8 -5 -7 -7 -7 -7 -7 -7 -7 -7 -7 -7 -7 -7 -7 -7 -7 -7 -7 -7 -7 -7 -7 -7 -7 -7 -7 -7 -7 -7 -7 -7 -7 -7 -7 -7 -7 -5 10 80 80 10 -5 -7 -7 -7 -7 -7 -7 -6 -2 25 104 63 5 -5 -5 8 76 
76 8 -5 -7 -7 -7 -7 -7 -7 -7 -7 -7 -7 -7 -7 -7 -7 -7 -7 -7 -7 -7 -7 -7 -7 -7 -7 -5 9 70 104 33 0 -6 -7 -7 -7 -7 -7 -7 -7 -7 -7 -7 -7 -6 -2 26 108 136 79 8 -5 -7 -7 -7 -7 -7 -7 -7 -7 -7 -7 -7 -7 -7 -7 -7 -7 -7 -7 -7 -7 -7 -7 -7 -7 -7 -7 -7 -7 -7 -7 -7 -7 -7 -7 -6 -2 26 104 64 5 -5 -7 -7 -7 -7 -7 -7 -5 5 63 104 25 -2 -6 -5 8 76 
76 8 -5 -7 -7 -7 -7 -7 -7 -7 -7 -7 -7 -7 -7 -7 -7 -7 -7 -7 -7 -7 -7 -7 -7 -7 -6 0 33 104 70 9 -5 -7 -7 -7 -7 -7 -7 -7 -7 -7 -7 -7 -7 -5 8 70 114 103 78 8 -5 -7 -7 -7 -7 -7 -7 -7 -7 -7 -7 -7 -7 -7 -7 -7 -7 -7 -7 -7 -7 -7 -7 -7 -7 -7 -7 -7 -7 -7 -7 -7 -7 -7 -7 -5 8 70 103 25 -2 -6 -7 -7 -7 -7 -7 -7 -5 8 75 82 11 -5 -6 -5 8 76 
76 8 -5 -7 -7 -7 -7 -7 -7 -7 -7 -7 -7 -7 -7 -7 -7 -7 -7 -7 -7 -7 -7 -7 -7 -6 -2 23 97 97 23 -2 -6 -7 -7 -7 -7 -7 -7 -7 -7 -7 -7 -7 -6 -2 26 104 82 87 82 11 -5 -7 -7 -7 -7 -7 -7 -7 -7 -7 -7 -7 -7 -7 -7 -7 -7 -7 -7 -7 -7 -7 -7 -7 -7 -7 -7 -7 -7 -7 -7 -7 -7 -7 -6 -2 25 103 70 8 -5 -7 -7 -7 -7 -7 -7 -7 -5 11 82 75 8 -5 -6 -5 8 76 
76 8 -5 -7 -7 -7 -7 -7 -7 -7 -7 -7 -7 -7 -7 -7 -7 -7 -7 -7 -7 -7 -7 -7 -7 -5 9 70 104 33 0 -6 -7 -7 -7 -7 -7 -7 -7 -7 -7 -7 -7 -7 -5 9 70 104 38 68 105 25 -2 -6 -7 -7 -7 -7 -7 -7 -7 -7 -7 -7 -7 -7 -7 -7 -7 -7 -7 -7 -7 -7 -7 -7 -7 -7 -7 -7 -7 -7 -7 -7 -7 -7 -5 5 64 104 26 -2 -6 -7 -7 -7 -7 -7 -7 -6 -2 25 104 63 5 -5 -6 -5 8 76 
76 8 -5 -7 -7 -7 -7 -7 -7 -7 -7 -7 -7 -7 -7 -7 -7 -7 -7 -7 -7 -7 -7 -7 -6 0 33 104 70 9 -5 -7 -7 -7 -7 -7 -7 -7 -7 -7 -7 -7 -7 -6 0 33 104 70 12 27 105 63 5 -5 -7 -7 -7 -7 -7 -7 -7 -7 -7 -7 -7 -7 -7 -7 -7 -7 -7 -7 -7 -7 -7 -7 -7 -7 -7 -7 -7 -7 -7 -7 -7 -7 -5 10 80 80 10 -5 -7 -7 -7 -7 -7 -7 -7 -5 5 63 104 25 -2 -6 -7 -5 8 76 
76 8 -5 -7 -7 -7 -7 -7 -7 -7 -7 -7 -7 -7 -7 -7 -7 -7 -7 -7 -7 -7 -7 -6 -2 23 97 97 23 -2 -6 -7 -7 -7 -7 -7 -7 -7 -7 -7 -7 -7 -6 -2 23 97 97 24 0 11 82 74 7 -5 -7 -7 -7 -7 -7 -7 -7 -7 -7 -7 -7 -7 -7 -7 -7 -7 -7 -7 -7 -7 -7 -7 -7 -7 -7 -7 -7 -7 -7 -7 -7 -6 -2 26 104 64 5 -5 -7 -7 -7 -7 -7 -7 -7 -5 8 75 82 11 -5 -7 -7 -5 8 76 
76 8 -5 -7 -7 -7 -7 -7 -7 -7 -7 -7 -7 -7 -7 -7 -7 -7 -7 -7 -7 -7 -7 -5 9 70 104 33 0 -6 -7 -7 -7 -7 -7 -7 -7 -7 -7 -7 -7 -7 -5 8 69 104 33 0 -4 8 77 76 8 -5 -7 -7 -7 -7 -7 -7 -7 -7 -7 -7 -7 -7 -7 -7 -7 -7 -7 -7 -7 -7 -7 -7 -7 -7 -7 -7 -7 -7 -7 -7 -7 -5 8 70 103 25 -2 -6 -7 -7 -7 -7 -7 -7 -7 -5 11 82 75 8 -5 -7 -7 -5 8 76 
77 8 -5 -7 -7 -7 -7 -7 -7 -7 -7 -7 -7 -7 -7 -7 -7 -7 -7 -7 -7 -7 -6 0 33 104 70 9 -5 -7 -7 -7 -7 -7 -7 -7 -7 -7 -7 -7 -7 -6 -2 26 103 70 9 -5 -5 8 76 76 8 -5 -7 -7 -7 -7 -7 -7 -7 -7 -7 -7 -7 -7 -7 -7 -7 -7 -7 -7 -7 -7 -7 -7 -7 -7 -7 -7 -7 -7 -7 -7 -6 -2 25 103 70 8 -5 -7 -7 -7 -7 -7 -7 -7 -6 -2 25 104 63 5 -5 -7 -7 -5 8 76 
84 12 -4 -6 -7 -7 -7 -7 -7 -7 -7 -7 -7 -7 -7 -7 -7 -7 -7 -7 -7 -6 -2 23 97 97 23 -2 -6 -7 -7 -7 -7 -7 -7 -7 -7 -7 -7 -7 -7 -5 8 70 103 26 -2 -6 -5 8 76 77 8 -5 -7 -7 -7 -7 -7 -7 -7 -7 -7 -7 -7 -7 -7 -7 -7 -7 -7 -7 -7 -7 -7 -7 -7 -7 -7 -7 -7 -7 -7 -7 -5 5 64 104 26 -2 -6 -7 -7 -7 -7 -7 -7 -7 -5 5 63 104 25 -2 -6 -7 -7 -5 8 77 
119 34 1 -5 -7 -7 -7 -7 -7 -7 -7 -7 -7 -7 -7 -7 -7 -7 -7 -7 -7 -5 9 70 104 33 0 -6 -7 -7 -7 -7 -7 -7 -7 -7 -7 -7 -7 -7 -6 -2 26 103 70 8 -5 -6 -5 7 74 82 11 -5 -7 -7 -7 -7 -7 -7 -7 -7 -7 -7 -7 -7 -7 -7 -7 -7 -7 -7 -7 -7 -7 -7 -7 -7 -7 -7 -7 -7 -7 -7 -5 10 80 80 10 -5 -7 -7 -7 -7 -7 -7 -7 -7 -5 8 75 82 11 -5 -7 -7 -7 -5 8 79 
151 102 31 0 -6 -7 -7 -7 -7 -7 -7 -7 -7 -7 -7 -7 -7 -7 -7 -7 -6 0 33 104 70 9 -5 -7 -7 -7 -7 -7 -7 -7 -7 -7 -7 -7 -7 -7 -5 9 70 103 26 -2 -6 -7 -5 5 63 104 25 -2 -6 -7 -7 -7 -7 -7 -7 -7 -7 -7 -7 -7 -7 -7 -7 -7 -7 -7 -7 -7 -7 -7 -7 -7 -7 -7 -7 -7 -7 -6 -2 26 104 64 5 -5 -7 -7 -7 -7 -7 -7 -7 -7 -5 11 82 75 8 -5 -7 -7 -7 -5 8 81 
107 109 98 31 0 -6 -7 -7 -7 -7 -7 -7 -7 -7 -7 -7 -7 -7 -7 -6 -2 23 97 97 23 -2 -6 -7 -7 -7 -7 -7 -7 -7 -7 -7 -7 -7 -7 -6 0 33 104 69 8 -5 -7 -7 -6 -2 25 104 63 5 -5 -7 -7 -7 -7 -7 -7 -7 -7 -7 -7 -7 -7 -7 -7 -7 -7 -7 -7 -7 -7 -7 -7 -7 -7 -7 -7 -7 -7 -5 8 70 103 25 -2 -6 -7 -7 -7 -7 -7 -7 -7 -6 -2 25 104 63 5 -5 -7 -7 -7 -5 8 78 
83 46 99 97 23 -2 -6 -7 -7 -7 -7 -7 -7 -7 -7 -7 -7 -7 -7 -5 9 70 104 33 0 -6 -7 -7 -7 -7 -7 -7 -7 -7 -7 -7 -7 -7 -6 -2 23 97 97 23 -2 -6 -7 -7 -7 -5 11 82 74 7 -5 -7 -7 -7 -7 -7 -7 -7 -7 -7 -7 -7 -7 -7 -7 -7 -7 -7 -7 -7 -7 -7 -7 -7 -7 -7 -7 -7 -6 -2 25 103 70 8 -5 -7 -7 -7 -7 -7 -7 -7 -7 -5 5 63 104 25 -2 -6 -7 -7 -7 -5 8 76 
77 16 35 105 70 9 -5 -7 -7 -7 -7 -7 -7 -7 -7 -7 -7 -7 -6 0 33 104 70 9 -5 -7 -7 -7 -7 -7 -7 -7 -7 -7 -7 -7 -7 -7 -5 8 69 104 33 0 -6 -7 -7 -7 -7 -5 8 77 76 8 -5 -7 -7 -7 -7 -7 -7 -7 -7 -7 -7 -7 -7 -7 -7 -7 -7 -7 -7 -7 -7 -7 -7 -7 -7 -7 -7 -7 -5 5 64 104 26 -2 -6 -7 -7 -7 -7 -7 -7 -7 -7 -5 8 75 82 11 -5 -7 -7 -7 -7 -5 8 76 
76 10 10 70 104 33 1 -5 -7 -7 -7 -7 -7 -7 -7 -7 -7 -6 -2 23 97 97 23 -2 -6 -7 -7 -7 -7 -7 -7 -7 -7 -7 -7 -7 -7 -6 -2 26 103 70 9 -5 -7 -7 -7 -7 -7 -5 8 76 76 8 -5 -7 -7 -7 -7 -7 -7 -7 -7 -7 -7 -7 -7 -7 -7 -7 -7 -7 -7 -7 -7 -7 -7 -7 -7 -7 -7 -7 -5 10 80 80 10 -5 -7 -7 -7 -7 -7 -7 -7 -7 -7 -5 11 82 75 8 -5 -7 -7 -7 -7 -5 8 76 
76 8 0 23 97 98 31 1 -5 -7 -7 -7 -7 -7 -7 -7 -7 -5 9 70 104 33 0 -6 -7 -7 -7 -7 -7 -7 -7 -7 -7 -7 -7 -7 -7 -5 8 70 103 26 -2 -6 -7 -7 -7 -7 -7 -5 8 76 77 8 -5 -7 -7 -7 -7 -7 -7 -7 -7 -7 -7 -7 -7 -7 -7 -7 -7 -7 -7 -7 -7 -7 -7 -7 -7 -7 -7 -6 -2 26 104 64 5 -5 -7 -7 -7 -7 -7 -7 -7 -7 -6 -2 25 104 63 5 -5 -7 -7 -7 -7 -5 8 76 
76 8 -4 0 31 98 98 31 1 -5 -7 -7 -7 -7 -7 -7 -6 0 33 104 70 9 -5 -7 -7 -7 -7 -7 -7 -7 -7 -7 -7 -7 -7 -7 -6 -2 26 103 70 8 -5 -7 -7 -7 -7 -7 -7 -5 7 74 82 11 -5 -7 -7 -7 -7 -7 -7 -7 -7 -7 -7 -7 -7 -7 -7 -7 -7 -7 -7 -7 -7 -7 -7 -7 -7 -7 -7 -5 8 70 103 25 -2 -6 -7 -7 -7 -7 -7 -7 -7 -7 -5 5 63 104 25 -2 -6 -7 -7 -7 -7 -5 8 76 
76 8 -5 -5 1 31 98 98 31 1 -5 -7 -7 -7 -7 -6 -2 23 97 97 23 -2 -6 -7 -7 -7 -7 -7 -7 -7 -7 -7 -7 -7 -7 -7 -5 9 70 103 26 -2 -6 -7 -7 -7 -7 -7 -7 -5 5 63 104 25 -2 -6 -7 -7 -7 -7 -7 -7 -7 -7 -7 -7 -7 -7 -7 -7 -7 -7 -7 -7 -7 -7 -7 -7 -7 -7 -6 -2 25 103 70 8 -5 -7 -7 -7 -7 -7 -7 -7 -7 -7 -5 8 75 82 11 -5 -7 -7 -7 -7 -7 -5 8 76 
76 8 -5 -6 -5 1 31 98 98 31 1 -5 -7 -7 -7 -5 9 70 104 33 0 -6 -7 -7 -7 -7 -7 -7 -7 -7 -7 -7 -7 -7 -7 -6 0 33 104 69 8 -5 -7 -7 -7 -7 -7 -7 -7 -6 -2 25 104 63 5 -5 -7 -7 -7 -7 -7 -7 -7 -7 -7 -7 -7 -7 -7 -7 -7 -7 -7 -7 -7 -7 -7 -7 -7 -7 -5 5 64 104 26 -2 -6 -7 -7 -7 -7 -7 -7 -7 -7 -7 -5 11 82 75 8 -5 -7 -7 -7 -7 -7 -5 8 76 
76 8 -5 -7 -7 -5 1 31 98 98 31 1 -5 -6 -6 0 33 104 70 9 -5 -7 -7 -7 -7 -7 -7 -7 -7 -7 -7 -7 -7 -7 -6 -2 23 97 97 23 -2 -6 -7 -7 -7 -7 -7 -7 -7 -7 -5 11 82 74 7 -5 -7 -7 -7 -7 -7 -7 -7 -7 -7 -7 -7 -7 -7 -7 -7 -7 -7 -7 -7 -7 -7 -7 -7 -7 -5 10 80 80 10 -5 -7 -7 -7 -7 -7 -7 -7 -7 -7 -6 -2 25 104 63 5 -5 -7 -7 -7 -7 -7 -5 8 76 
76 8 -5 -7 -7 -7 -5 1 31 98 98 31 1 -5 -2 23 97 97 23 -2 -6 -7 -7 -7 -7 -7 -7 -7 -7 -7 -7 -7 -7 -7 -5 8 69 104 33 0 -6 -7 -7 -7 -7 -7 -7 -7 -7 -7 -5 8 77 76 8 -5 -7 -7 -7 -7 -7 -7 -7 -7 -7 -7 -7 -7 -7 -7 -7 -7 -7 -7 -7 -7 -7 -7 -7 -6 -2 26 104 64 5 -5 -7 -7 -7 -7 -7 -7 -7 -7 -7 -5 5 63 104 25 -2 -6 -7 -7 -7 -7 -7 -5 8 76 
76 8 -5 -7 -7 -7 -7 -5 1 31 98 98 31 3 10 70 104 33 0 -6 -7 -7 -7 -7 -7 -7 -7 -7 -7 -7 -7 -7 -7 -6 -2 26 103 70 9 -5 -7 -7 -7 -7 -7 -7 -7 -7 -7 -7 -5 8 76 77 8 -5 -7 -7 -7 -7 -7 -7 -7 -7 -7 -7 -7 -7 -7 -7 -7 -7 -7 -7 -7 -7 -7 -7 -7 -5 8 70 103 25 -2 -6 -7 -7 -7 -7 -7 -7 -7 -7 -7 -5 8 75 82 11 -5 -7 -7 -7 -7 -7 -7 -5 8 76 
76 8 -5 -7 -7 -7 -7 -7 -5 1 31 98 99 38 40 105 70 9 -5 -7 -7 -7 -7 -7 -7 -7 -7 -7 -7 -7 -7 -7 -7 -5 8 70 103 26 -2 -6 -7 -7 -7 -7 -7 -7 -7 -7 -7 -7 -5 7 74 82 11 -5 -7 -7 -7 -7 -7 -7 -7 -7 -7 -7 -7 -7 -7 -7 -7 -7 -7 -7 -7 -7 -7 -7 -6 -2 25 103 70 8 -5 -7 -7 -7 -7 -7 -7 -7 -7 -7 -7 -5 11 82 75 8 -5 -7 -7 -7 -7 -7 -7 -5 8 76 
76 8 -5 -7 -7 -7 -7 -7 -7 -5 1 31 99 119 119 98 23 -2 -6 -7 -7 -7 -7 -7 -7 -7 -7 -7 -7 -7 -7 -7 -6 -2 26 103 70 8 -5 -7 -7 -7 -7 -7 -7 -7 -7 -7 -7 -7 -5 5 63 104 25 -2 -6 -7 -7 -7 -7 -7 -7 -7 -7 -7 -7 -7 -7 -7 -7 -7 -7 -7 -7 -7 -7 -7 -5 5 64 104 26 -2 -6 -7 -7 -7 -7 -7 -7 -7 -7 -7 -6 -2 25 104 63 5 -5 -7 -7 -7 -7 -7 -7 -5 8 76 
76 8 -5 -7 -7 -7 -7 -7 -7 -7 -5 1 34 120 120 34 0 -6 -7 -7 -7 -7 -7 -7 -7 -7 -7 -7 -7 -7 -7 -7 -5 9 70 103 26 -2 -6 -7 -7 -7 -7 -7 -7 -7 -7 -7 -7 -7 -6 -2 25 104 63 5 -5 -7 -7 -7 -7 -7 -7 -7 -7 -7 -7 -7 -7 -7 -7 -7 -7 -7 -7 -7 -7 -7 -5 10 80 80 10 -5 -7 -7 -7 -7 -7 -7 -7 -7 -7 -7 -5 5 63 104 25 -2 -6 -7 -7 -7 -7 -7 -7 -5 8 76 
76 8 -5 -7 -7 -7 -7 -7 -7 -7 -6 -4 12 84 85 12 -4 -7 -7 -7 -7 -7 -7 -7 -7 -7 -7 -7 -7 -7 -7 -6 0 33 104 69 8 -5 -7 -7 -7 -7 -7 -7 -7 -7 -7 -7 -7 -7 -7 -5 11 82 74 7 -5 -7 -7 -7 -7 -7 -7 -7 -7 -7 -7 -7 -7 -7 -7 -7 -7 -7 -7 -7 -7 -6 -2 26 104 64 5 -5 -7 -7 -7 -7 -7 -7 -7 -7 -7 -7 -5 8 75 82 11 -5 -7 -7 -7 -7 -7 -7 -7 -5 8 76 
76 8 -5 -7 -7 -7 -7 -7 -7 -7 -7 -5 8 75 83 11 -5 -7 -7 -7 -7 -7 -7 -7 -7 -7 -7 -7 -7 -7 -6 -2 23 97 97 23 -2 -6 -7 -7 -7 -7 -7 -7 -7 -7 -7 -7 -7 -7 -7 -5 8 77 76 8 -5 -7 -7 -7 -7 -7 -7 -7 -7 -7 -7 -7 -7 -7 -7 -7 -7 -7 -7 -7 -7 -5 8 70 103 25 -2 -6 -7 -7 -7 -7 -7 -7 -7 -7 -7 -7 -5 11 82 75 8 -5 -7 -7 -7 -7 -7 -7 -7 -5 8 76 
76 8 -5 -7 -7 -7 -7 -7 -7 -7 -7 -5 5 63 104 25 -2 -6 -7 -7 -7 -7 -7 -7 -7 -7 -7 -7 -7 -7 -5 8 69 104 33 0 -6 -7 -7 -7 -7 -7 -7 -7 -7 -7 -7 -7 -7 -7 -7 -5 8 76 76 8 -5 -7 -7 -7 -7 -7 -7 -7 -7 -7 -7 -7 -7 -7 -7 -7 -7 -7 -7 -7 -6 -2 25 103 70 8 -5 -7 -7 -7 -7 -7 -7 -7 -7 -7 -7 -6 -2 25 104 63 5 -5 -7 -7 -7 -7 -7 -7 -7 -5 8 76 
76 8 -5 -7 -7 -7 -7 -7 -7 -7 -7 -6 -2 25 104 63 5 -5 -7 -7 -7 -7 -7 -7 -7 -7 -7 -7 -7 -6 -2 26 103 70 9 -5 -7 -7 -7 -7 -7 -7 -7 -7 -7 -7 -7 -7 -7 -7 -7 -5 8 76 77 8 -5 -7 -7 -7 -7 -7 -7 -7 -7 -7 -7 -7 -7 -7 -7 -7 -7 -7 -7 -7 -5 5 64 104 26 -2 -6 -7 -7 -7 -7 -7 -7 -7 -7 -7 -7 -5 5 63 104 25 -2 -6 -7 -7 -7 -7 -7 -7 -7 -5 8 76 
76 8 -5 -7 -7 -7 -7 -7 -7 -7 -7 -7 -5 11 82 74 7 -5 -7 -7 -7 -7 -7 -7 -7 -7 -7 -7 -7 -5 8 70 103 26 -2 -6 -7 -7 -7 -7 -7 -7 -7 -7 -7 -7 -7 -7 -7 -7 -7 -5 7 74 82 11 -5 -7 -7 -7 -7 -7 -7 -7 -7 -7 -7 -7 -7 -7 -7 -7 -7 -7 -7 -7 -5 10 80 80 10 -5 -7 -7 -7 -7 -7 -7 -7 -7 -7 -7 -7 -5 8 75 82 11 -5 -7 -7 -7 -7 -7 -7 -7 -7 -5 8 76 
76 8 -5 -7 -7 -7 -7 -7 -7 -7 -7 -7 -5 8 77 77 8 -5 -7 -7 -7 -7 -7 -7 -7 -7 -7 -7 -6 -2 26 103 70 8 -5 -7 -7 -7 -7 -7 -7 -7 -7 -7 -7 -7 -7 -7 -7 -7 -7 -5 5 63 104 25 -2 -6 -7 -7 -7 -7 -7 -7 -7 -7 -7 -7 -7 -7 -7 -7 -7 -7 -7 -6 -2 26 104 64 5 -5 -7 -7 -7 -7 -7 -7 -7 -7 -7 -7 -7 -5 11 82 75 8 -5 -7 -7 -7 -7 -7 -7 -7 -7 -5 8 77 
77 8 -5 -7 -7 -7 -7 -7 -7 -7 -7 -7 -5 7 74 82 11 -5 -7 -7 -7 -7 -7 -7 -7 -7 -7 -7 -5 9 70 103 26 -2 -6 -7 -7 -7 -7 -7 -7 -7 -7 -7 -7 -7 -7 -7 -7 -7 -7 -6 -2 25 104 63 5 -5 -7 -7 -7 -7 -7 -7 -7 -7 -7 -7 -7 -7 -7 -7 -7 -7 -7 -5 8 70 103 25 -2 -6 -7 -7 -7 -7 -7 -7 -7 -7 -7 -7 -6 -2 25 104 63 5 -5 -7 -7 -7 -7 -7 -7 -7 -7 -5 11 84 
79 8 -5 -7 -7 -7 -7 -7 -7 -7 -7 -7 -5 5 63 104 25 -2 -6 -7 -7 -7 -7 -7 -7 -7 -7 -6 0 33 104 69 8 -5 -7 -7 -7 -7 -7 -7 -7 -7 -7 -7 -7 -7 -7 -7 -7 -7 -7 -7 -5 11 82 74 7 -5 -7 -7 -7 -7 -7 -7 -7 -7 -7 -7 -7 -7 -7 -7 -7 -7 -6 -2 25 103 70 8 -5 -7 -7 -7 -7 -7 -7 -7 -7 -7 -7 -7 -5 5 63 104 25 -2 -6 -7 -7 -7 -7 -7 -7 -7 -6 -2 27 117 
81 8 -5 -7 -7 -7 -7 -7 -7 -7 -7 -7 -6 -2 25 104 63 5 -5 -7 -7 -7 -7 -7 -7 -7 -6 -2 23 97 97 23 -2 -6 -7 -7 -7 -7 -7 -7 -7 -7 -7 -7 -7 -7 -7 -7 -7 -7 -7 -7 -5 8 77 76 8 -5 -7 -7 -7 -7 -7 -7 -7 -7 -7 -7 -7 -7 -7 -7 -7 -7 -5 5 64 104 26 -2 -6 -7 -7 -7 -7 -7 -7 -7 -7 -7 -7 -7 -5 8 75 82 11 -5 -7 -7 -7 -7 -7 -7 -7 -7 -5 9 72 153 
79 8 -5 -7 -7 -7 -7 -7 -7 -7 -7 -7 -7 -5 11 82 74 7 -5 -7 -7 -7 -7 -7 -7 -7 -5 8 69 104 33 0 -6 -7 -7 -7 -7 -7 -7 -7 -7 -7 -7 -7 -7 -7 -7 -7 -7 -7 -7 -7 -5 8 76 76 8 -5 -7 -7 -7 -7 -7 -7 -7 -7 -7 -7 -7 -7 -7 -7 -7 -7 -5 10 80 80 10 -5 -7 -7 -7 -7 -7 -7 -7 -7 -7 -7 -7 -7 -5 11 82 75 8 -5 -7 -7 -7 -7 -7 -7 -7 -6 0 33 109 135 
77 8 -5 -7 -7 -7 -7 -7 -7 -7 -7 -7 -7 -5 8 77 77 8 -5 -7 -7 -7 -7 -7 -7 -6 -2 26 103 70 9 -5 -7 -7 -7 -7 -7 -7 -7 -7 -7 -7 -7 -7 -7 -7 -7 -7 -7 -7 -7 -7 -5 8 76 77 8 -5 -7 -7 -7 -7 -7 -7 -7 -7 -7 -7 -7 -7 -7 -7 -7 -6 -2 26 104 64 5 -5 -7 -7 -7 -7 -7 -7 -7 -7 -7 -7 -7 -6 -2 25 104 63 5 -5 -7 -7 -7 -7 -7 -7 -6 -2 23 97 108 101 
76 8 -5 -7 -7 -7 -7 -7 -7 -7 -7 -7 -7 -5 7 74 82 11 -5 -7 -7 -7 -7 -7 -7 -5 8 70 103 26 -2 -6 -7 -7 -7 -7 -7 -7 -7 -7 -7 -7 -7 -7 -7 -7 -7 -7 -7 -7 -7 -7 -5 7 74 82 11 -5 -7 -7 -7 -7 -7 -7 -7 -7 -7 -7 -7 -7 -7 -7 -7 -5 8 70 103 25 -2 -6 -7 -7 -7 -7 -7 -7 -7 -7 -7 -7 -7 -5 5 63 104 25 -2 -6 -7 -7 -7 -7 -7 -7 -5 9 70 106 48 82 
76 8 -5 -7 -7 -7 -7 -7 -7 -7 -7 -7 -7 -5 5 63 104 25 -2 -6 -7 -7 -7 -7 -6 -2 26 103 70 8 -5 -7 -7 -7 -7 -7 -7 -7 -7 -7 -7 -7 -7 -7 -7 -7 -7 -7 -7 -7 -7 -7 -5 5 63 104 25 -2 -6 -7 -7 -7 -7 -7 -7 -7 -7 -7 -7 -7 -7 -7 -6 -2 25 103 70 8 -5 -7 -7 -7 -7 -7 -7 -7 -7 -7 -7 -7 -7 -5 8 75 82 11 -5 -7 -7 -7 -7 -7 -7 -6 0 33 104 71 24 78 
76 8 -5 -7 -7 -7 -7 -7 -7 -7 -7 -7 -7 -6 -2 25 104 63 5 -5 -7 -7 -7 -7 -5 9 70 103 26 -2 -6 -7 -7 -7 -7 -7 -7 -7 -7 -7 -7 -7 -7 -7 -7 -7 -7 -7 -7 -7 -7 -7 -6 -2 25 104 63 5 -5 -6 -7 -7 -7 -7 -7 -7 -7 -7 -7 -7 -7 -7 -5 5 64 104 26 -2 -6 -7 -7 -7 -7 -7 -7 -7 -7 -7 -7 -7 -7 -5 11 82 75 8 -5 -7 -7 -7 -7 -7 -6 -2 23 97 97 25 13 77 
76 8 -5 -7 -7 -7 -7 -7 -7 -7 -7 -7 -7 -7 -5 11 82 74 7 -5 -7 -7 -7 -6 0 33 104 69 8 -5 -7 -7 -7 -7 -7 -7 -7 -7 -7 -7 -7 -7 -7 -7 -7 -7 -7 -7 -7 -7 -7 -7 -7 -4 11 83 75 9 -3 -5 -5 -5 -6 -7 -7 -7 -7 -7 -7 -7 -7 -7 -5 10 80 80 10 -5 -7 -7 -7 -7 -7 -7 -7 -7 -7 -7 -7 -7 -6 -2 25 104 63 5 -5 -7 -7 -7 -7 -7 -5 9 70 104 33 2 9 76 
76 8 -5 -7 -7 -7 -7 -7 -7 -7 -7 -7 -7 -7 -5 8 77 77 8 -5 -7 -7 -6 -2 23 97 97 23 -2 -6 -7 -7 -7 -7 -7 -7 -7 -7 -7 -7 -7 -7 -7 -7 -7 -7 -7 -7 -7 -7 -7 -7 -6 -3 12 85 87 23 9 8 7 5 -2 -5 -5 -5 -5 -5 -5 -6 -7 -6 -2 26 104 64 5 -5 -7 -7 -7 -7 -7 -7 -7 -7 -7 -7 -7 -7 -5 5 63 104 25 -2 -6 -7 -7 -7 -7 -6 0 33 104 70 9 -3 8 76 
76 8 -5 -7 -7 -7 -7 -7 -7 -7 -7 -7 -7 -7 -5 7 74 82 11 -5 -7 -7 -5 8 69 104 33 0 -6 -7 -7 -7 -7 -7 -7 -7 -7 -7 -7 -7 -7 -7 -7 -7 -7 -7 -7 -7 -7 -7 -7 -6 -2 9 37 120 130 87 77 76 74 63 25 11 8 8 8 7 5 -2 -4 -3 9 70 103 25 -2 -6 -7 -7 -7 -7 -7 -7 -7 -7 -7 -7 -7 -7 -5 8 75 82 11 -5 -7 -7 -7 -7 -6 -2 23 97 97 23 -2 -5 8 76 
76 8 -5 -7 -7 -7 -7 -7 -7 -7 -7 -7 -7 -7 -5 5 63 104 25 -2 -6 -6 -2 26 103 70 9 -5 -7 -7 -7 -7 -7 -7 -7 -7 -7 -7 -7 -7 -7 -7 -7 -7 -7 -7 -7 -7 -7 -6 -5 0 23 70 106 111 87 78 76 77 82 104 104 82 77 76 76 74 63 25 11 12 37 106 70 8 -5 -7 -7 -7 -7 -7 -7 -7 -7 -7 -7 -7 -7 -7 -5 11 82 75 8 -5 -7 -7 -7 -7 -5 9 70 104 33 0 -6 -5 8 76 
76 8 -5 -7 -7 -7 -7 -7 -7 -7 -7 -7 -7 -7 -6 -2 25 104 63 5 -5 -5 8 70 103 26 -2 -6 -7 -7 -7 -7 -7 -7 -7 -7 -7 -7 -7 -7 -7 -7 -7 -7 -7 -7 -7 -7 -6 -2 9 33 97 104 70 26 11 8 8 8 11 25 63 74 76 76 77 82 104 104 83 85 120 117 29 -1 -6 -7 -7 -7 -7 -7 -7 -7 -7 -7 -7 -7 -7 -6 -2 25 104 63 5 -5 -7 -7 -7 -6 0 33 104 70 9 -5 -6 -5 8 76 
76 8 -5 -7 -7 -7 -7 -7 -7 -7 -7 -7 -7 -7 -7 -5 11 82 74 8 -5 -2 26 103 70 8 -5 -7 -7 -7 -7 -7 -7 -7 -7 -7 -7 -7 -7 -7 -7 -7 -7 -7 -7 -7 -6 -5 0 23 70 104 97 33 9 -2 -5 -5 -5 -5 -5 -2 5 7 8 8 8 11 25 63 75 84 120 117 29 -1 -6 -7 -7 -7 -7 -7 -7 -7 -7 -7 -7 -7 -7 -5 5 63 104 25 -2 -6 -7 -7 -6 -2 23 97 97 23 -2 -6 -7 -5 8 76 
76 8 -5 -7 -7 -7 -7 -7 -7 -7 -7 -7 -7 -7 -7 -5 8 77 77 8 -3 9 70 103 26 -2 -6 -7 -7 -7 -7 -7 -7 -7 -7 -7 -7 -7 -7 -7 -7 -7 -7 -7 -7 -6 -2 9 33 97 104 70 23 0 -5 -6 -7 -7 -7 -7 -7 -6 -5 -5 -5 -5 -5 -5 -2 5 8 12 37 106 70 9 -5 -6 -7 -7 -7 -7 -7 -7 -7 -7 -7 -7 -7 -5 8 75 82 11 -5 -7 -7 -7 -5 9 70 104 33 0 -6 -7 -7 -5 8 76 
76 8 -5 -7 -7 -7 -7 -7 -7 -7 -7 -7 -7 -7 -7 -5 7 74 82 12 2 33 104 69 8 -5 -7 -7 -7 -7 -7 -7 -7 -7 -7 -7 -7 -7 -7 -7 -7 -7 -7 -7 -6 0 23 70 104 97 33 9 -2 -6 -7 -7 -7 -7 -7 -7 -7 -7 -7 -7 -7 -7 -7 -7 -6 -5 -5 -3 9 70 104 33 1 -5 -6 -7 -7 -7 -7 -7 -7 -7 -7 -7 -6 -4 11 82 75 8 -5 -7 -7 -6 0 33 104 70 9 -5 -7 -7 -7 -5 8 76 
76 8 -5 -7 -7 -7 -7 -7 -7 -7 -7 -7 -7 -7 -7 -5 5 63 105 30 28 97 97 23 -2 -6 -7 -7 -7 -7 -7 -7 -7 -7 -7 -7 -7 -7 -7 -7 -7 -7 -6 -5 1 31 97 104 70 23 0 -5 -6 -7 -7 -7 -7 -7 -7 -7 -7 -7 -7 -7 -7 -7 -7 -7 -7 -7 -7 -6 -2 23 97 99 34 9 -2 -5 -5 -5 -5 -5 -5 -5 -5 -5 -5 0 27 105 64 5 -5 -7 -6 -2 23 97 97 23 -2 -6 -7 -7 -7 -5 8 76 
76 8 -5 -7 -7 -7 -7 -7 -7 -7 -7 -7 -7 -7 -7 -6 -2 25 105 77 80 105 33 0 -6 -7 -7 -7 -7 -7 -7 -7 -7 -7 -7 -7 -7 -7 -7 -7 -7 -6 -2 9 33 98 98 33 9 -2 -6 -7 -7 -7 -7 -7 -7 -7 -7 -7 -7 -7 -7 -7 -7 -7 -7 -7 -7 -7 -7 -7 -6 0 34 112 119 72 26 11 8 8 8 8 8 8 8 8 9 20 75 112 29 0 -6 -6 -5 9 70 104 33 0 -6 -7 -7 -7 -7 -5 8 76 
76 8 -5 -7 -7 -7 -7 -7 -7 -7 -7 -7 -7 -7 -7 -7 -5 11 83 102 114 70 9 -5 -7 -7 -7 -7 -7 -7 -7 -7 -7 -7 -7 -7 -7 -7 -7 -6 -5 0 23 70 104 97 31 1 -5 -6 -7 -7 -7 -7 -7 -7 -7 -7 -7 -7 -7 -7 -7 -7 -7 -7 -7 -7 -7 -7 -7 -7 -7 -4 12 88 134 114 105 82 77 76 76 76 76 76 76 76 77 86 129 125 39 9 -2 -4 0 33 104 70 9 -5 -7 -7 -7 -7 -7 -5 8 76 
76 8 -5 -7 -7 -7 -7 -7 -7 -7 -7 -7 -7 -7 -7 -7 -5 8 79 135 108 26 -2 -6 -7 -7 -7 -7 -7 -7 -7 -7 -7 -7 -7 -7 -7 -7 -6 -2 9 33 97 104 70 23 0 -6 -7 -7 -7 -7 -7 -7 -7 -7 -7 -7 -7 -7 -7 -7 -7 -7 -7 -7 -7 -7 -7 -7 -7 -7 -7 -5 11 83 87 39 65 74 76 76 76 76 76 76 76 76 76 78 87 112 106 70 26 12 27 97 97 23 -2 -6 -7 -7 -7 -7 -7 -5 8 76 
76 8 -5 -7 -7 -7 -7 -7 -7 -7 -7 -7 -7 -7 -7 -7 -5 8 81 153 72 8 -5 -7 -7 -7 -7 -7 -7 -7 -7 -7 -7 -7 -7 -7 -6 -5 0 23 70 104 97 33 9 -2 -6 -7 -7 -7 -7 -7 -7 -7 -7 -7 -7 -7 -7 -7 -7 -7 -7 -7 -7 -7 -7 -7 -7 -7 -7 -7 -6 -2 25 105 65 9 6 8 8 8 8 8 8 8 8 8 8 8 11 26 70 103 104 80 90 108 34 0 -6 -7 -7 -7 -7 -7 -7 -5 8 76 
76 8 -5 -7 -7 -7 -7 -7 -7 -7 -7 -7 -7 -7 -7 -7 -5 8 79 117 27 -2 -6 -7 -7 -7 -7 -7 -7 -7 -7 -7 -7 -7 -7 -6 -2 9 33 97 105 70 24 0 -5 -6 -7 -7 -7 -7 -7 -7 -7 -7 -7 -7 -7 -7 -7 -7 -7 -7 -7 -7 -7 -7 -7 -7 -7 -7 -7 -7 -5 5 63 104 25 -2 -5 -5 -5 -5 -5 -5 -5 -5 -5 -5 -5 -5 -5 -2 8 26 70 109 149 94 15 -4 -6 -7 -7 -7 -7 -7 -7 -5 8 76 
76 8 -5 -7 -7 -7 -7 -7 -7 -7 -7 -7 -7 -7 -7 -7 -5 8 77 84 11 -5 -7 -7 -7 -7 -7 -7 -7 -7 -7 -7 -6 -5 -4 0 24 72 109 100 35 10 0 -4 -6 -7 -7 -7 -7 -7 -7 -7 -7 -7 -7 -7 -7 -7 -7 -7 -7 -7 -7 -7 -7 -7 -7 -7 -7 -7 -7 -7 -5 7 74 82 11 -5 -6 -7 -7 -7 -7 -7 -7 -7 -7 -7 -7 -7 -7 -6 -5 -2 9 34 109 112 34 0 -6 -7 -7 -7 -7 -7 -7 -5 8 76 
76 8 -5 -7 -7 -7 -7 -7 -7 -7 -7 -7 -7 -7 -7 -7 -5 8 77 77 8 -5 -7 -7 -7 -7 -7 -7 -7 -7 -6 -5 -2 5 11 34 107 152 127 55 18 10 8 5 -2 -5 -5 -5 -6 -7 -7 -7 -7 -7 -7 -7 -7 -7 -7 -7 -7 -7 -7 -7 -7 -7 -7 -7 -7 -7 -7 -7 -5 8 76 77 8 -5 -7 -7 -7 -7 -7 -7 -7 -7 -7 -7 -7 -7 -7 -7 -7 -6 -5 1 31 99 97 23 -2 -6 -7 -7 -7 -7 -7 -5 8 76 
76 8 -5 -7 -7 -7 -7 -7 -7 -7 -7 -7 -7 -7 -7 -7 -5 11 82 74 7 -5 -7 -7 -7 -7 -7 -7 -6 -5 -2 8 25 64 80 106 111 94 110 108 82 77 74 63 25 11 8 5 -2 -5 -5 -5 -5 -6 -7 -7 -7 -7 -7 -7 -7 -7 -7 -7 -7 -7 -7 -7 -7 -7 -7 -7 -5 8 77 76 8 -5 -7 -7 -7 -7 -7 -7 -7 -7 -7 -7 -7 -7 -7 -7 -7 -7 -7 -5 1 33 104 70 9 -5 -7 -7 -7 -7 -7 -5 8 76 
76 8 -5 -7 -7 -7 -7 -7 -7 -7 -7 -7 -7 -7 -7 -6 -2 25 104 63 5 -5 -7 -7 -7 -6 -5 -5 -2 8 26 70 103 104 80 64 26 14 26 63 74 77 82 104 104 82 75 63 25 11 8 7 5 -2 -5 -5 -5 -6 -7 -7 -7 -7 -7 -7 -7 -7 -7 -7 -7 -7 -7 -7 -5 11 82 74 7 -5 -7 -7 -7 -7 -7 -7 -7 -7 -7 -7 -7 -7 -7 -7 -7 -7 -7 -7 -5 9 70 104 33 0 -6 -7 -7 -7 -7 -5 8 76 
76 8 -5 -7 -7 -7 -7 -7 -7 -7 -7 -7 -7 -7 -7 -5 5 63 104 25 -2 -6 -7 -6 -5 -2 5 10 26 70 103 103 70 26 10 5 -2 -4 -2 5 7 8 11 25 63 75 82 104 104 82 77 74 63 25 11 8 5 -2 -5 -5 -5 -5 -6 -7 -7 -7 -7 -7 -7 -7 -7 -6 -2 25 104 63 5 -5 -7 -7 -7 -7 -7 -7 -7 -7 -7 -7 -7 -7 -7 -7 -7 -7 -7 -7 -6 -2 23 97 97 23 -2 -6 -7 -7 -7 -5 8 76 
76 8 -5 -7 -7 -7 -7 -7 -7 -7 -7 -7 -7 -7 -7 -5 7 74 82 11 -4 -6 -5 -2 8 25 64 80 104 103 70 26 8 -2 -5 -5 -6 -7 -6 -5 -5 -5 -5 -2 5 8 11 25 63 74 77 82 104 104 82 75 63 25 11 8 7 5 -2 -5 -5 -5 -6 -7 -7 -7 -7 -5 5 63 104 25 -2 -6 -7 -7 -7 -7 -7 -7 -7 -7 -7 -7 -7 -7 -7 -7 -7 -7 -7 -7 -7 -6 0 33 104 70 9 -5 -7 -7 -7 -5 8 76 
76 8 -5 -7 -7 -7 -7 -7 -7 -7 -7 -7 -7 -7 -7 -5 8 77 77 9 -3 -2 8 26 70 103 104 80 64 25 8 -2 -5 -6 -7 -7 -7 -7 -7 -7 -7 -7 -7 -6 -5 -5 -5 -2 5 7 8 11 25 63 75 82 104 104 82 77 74 63 25 11 8 5 -2 -5 -5 -5 -5 -5 8 74 82 11 -5 -7 -7 -7 -7 -7 -7 -7 -7 -7 -7 -7 -7 -7 -7 -7 -7 -7 -7 -7 -7 -7 -5 9 70 104 33 1 -6 -7 -7 -5 8 76 
76 8 -5 -7 -7 -7 -7 -7 -7 -7 -7 -7 -7 -7 -7 -5 11 82 76 12 9 26 70 103 103 70 26 10 5 -2 -5 -6 -7 -7 -7 -7 -7 -7 -7 -7 -7 -7 -7 -7 -7 -7 -7 -6 -5 -5 -5 -5 -2 5 8 11 25 63 74 77 82 104 104 82 75 63 25 11 8 7 5 0 10 77 77 8 -5 -7 -7 -7 -7 -7 -7 -7 -7 -7 -7 -7 -7 -7 -7 -7 -7 -7 -7 -7 -7 -7 -6 -2 23 97 98 31 0 -6 -7 -5 8 76 
76 8 -5 -7 -7 -7 -7 -7 -7 -7 -7 -7 -7 -7 -6 -2 26 109 79 38 71 104 103 70 26 8 -2 -5 -5 -6 -7 -7 -7 -7 -7 -7 -7 -7 -7 -7 -7 -7 -7 -7 -7 -7 -7 -7 -7 -7 -7 -7 -6 -5 -5 -5 -2 5 7 8 11 25 63 75 82 104 104 82 77 74 63 27 25 87 77 8 -5 -7 -7 -7 -7 -7 -7 -7 -7 -7 -7 -7 -7 -7 -7 -7 -7 -7 -7 -7 -7 -7 -7 -6 0 31 98 97 23 -2 -6 -5 8 76 
76 8 -5 -7 -7 -7 -7 -7 -7 -7 -7 -7 -7 -7 -5 8 74 148 106 108 103 70 26 8 -2 -5 -6 -7 -7 -7 -7 -7 -7 -7 -7 -7 -7 -7 -7 -7 -7 -7 -7 -7 -7 -7 -7 -7 -7 -7 -7 -7 -7 -7 -7 -7 -6 -5 -5 -5 -5 -2 5 8 11 25 63 74 77 82 104 105 93 130 80 8 -5 -7 -7 -7 -7 -7 -7 -7 -7 -7 -7 -7 -7 -7 -7 -7 -7 -7 -7 -7 -7 -7 -7 -7 -6 1 33 104 70 9 -4 -5 8 76 
76 8 -5 -7 -7 -7 -7 -7 -7 -7 -7 -7 -7 -6 -2 26 109 120 83 64 25 8 -2 -5 -6 -7 -7 -7 -7 -7 -7 -7 -7 -7 -7 -7 -7 -7 -7 -7 -7 -7 -7 -7 -7 -7 -7 -7 -7 -7 -7 -7 -7 -7 -7 -7 -7 -7 -7 -7 -7 -6 -5 -5 -5 -2 5 7 8 11 25 65 85 130 80 8 -5 -7 -7 -7 -7 -7 -7 -7 -7 -7 -7 -7 -7 -7 -7 -7 -7 -7 -7 -7 -7 -7 -7 -7 -7 -5 9 70 104 33 1 -4 8 76 
76 8 -5 -7 -7 -7 -7 -7 -7 -7 -7 -7 -7 -5 9 70 106 37 12 5 -2 -5 -6 -7 -7 -7 -7 -7 -7 -7 -7 -7 -7 -7 -7 -7 -7 -7 -7 -7 -7 -7 -7 -7 -7 -7 -7 -7 -7 -7 -7 -7 -7 -7 -7 -7 -7 -7 -7 -7 -7 -7 -7 -7 -7 -6 -5 -5 -5 -5 -2 6 22 86 77 8 -5 -7 -7 -7 -7 -7 -7 -7 -7 -7 -7 -7 -7 -7 -7 -7 -7 -7 -7 -7 -7 -7 -7 -7 -7 -6 -2 23 97 98 31 1 9 76 
76 8 -5 -7 -7 -7 -7 -7 -7 -7 -7 -7 -6 0 33 104 70 9 -3 -5 -6 -7 -7 -7 -7 -7 -7 -7 -7 -7 -7 -7 -7 -7 -7 -7 -7 -7 -7 -7 -7 -7 -7 -7 -7 -7 -7 -7 -7 -7 -7 -7 -7 -7 -7 -7 -7 -7 -7 -7 -7 -7 -7 -7 -7 -7 -7 -7 -7 -7 -6 -4 9 77 76 8 -5 -7 -7 -7 -7 -7 -7 -7 -7 -7 -7 -7 -7 -7 -7 -7 -7 -7 -7 -7 -7 -7 -7 -7 -7 -7 -6 0 31 98 97 25 13 77 
76 8 -5 -7 -7 -7 -7 -7 -7 -7 -7 -6 -2 23 97 97 23 -2 -6 -7 -7 -7 -7 -7 -7 -7 -7 -7 -7 -7 -7 -7 -7 -7 -7 -7 -7 -7 -7 -7 -7 -7 -7 -7 -7 -7 -7 -7 -7 -7 -7 -7 -7 -7 -7 -7 -7 -7 -7 -7 -7 -7 -7 -7 -7 -7 -7 -7 -7 -7 -7 -5 8 76 76 8 -5 -7 -7 -7 -7 -7 -7 -7 -7 -7 -7 -7 -7 -7 -7 -7 -7 -7 -7 -7 -7 -7 -7 -7 -7 -7 -7 -6 1 33 104 71 24 78 
76 8 -5 -7 -7 -7 -7 -7 -7 -7 -7 -5 9 70 104 33 0 -6 -7 -7 -7 -7 -7 -7 -7 -7 -7 -7 -7 -7 -7 -7 -7 -7 -7 -7 -7 -7 -7 -7 -7 -7 -7 -7 -7 -7 -7 -7 -7 -7 -7 -7 -7 -7 -7 -7 -7 -7 -7 -7 -7 -7 -7 -7 -7 -7 -7 -7 -7 -7 -7 -5 8 76 77 8 -5 -7 -7 -7 -7 -7 -7 -7 -7 -7 -7 -7 -7 -7 -7 -7 -7 -7 -7 -7 -7 -7 -7 -7 -7 -7 -7 -7 -5 9 70 106 48 82 
77 8 -5 -7 -7 -7 -7 -7 -7 -7 -5 1 33 104 70 9 -5 -6 -7 -7 -7 -7 -7 -7 -7 -7 -7 -7 -7 -7 -7 -7 -7 -7 -7 -7 -7 -7 -7 -7 -7 -7 -7 -7 -7 -7 -7 -7 -7 -7 -7 -7 -7 -7 -7 -7 -7 -7 -7 -7 -7 -7 -7 -7 -7 -7 -7 -7 -7 -7 -7 -5 8 75 82 12 -4 -6 -7 -7 -7 -7 -7 -7 -7 -7 -7 -7 -7 -7 -7 -7 -7 -7 -7 -7 -7 -7 -7 -7 -7 -7 -7 -7 -6 -2 23 97 108 101 
79 8 -5 -7 -7 -7 -7 -7 -7 -5 1 31 99 98 25 0 -5 -6 -7 -7 -7 -7 -7 -7 -7 -7 -7 -7 -7 -7 -7 -7 -7 -7 -7 -7 -7 -7 -7 -7 -7 -7 -7 -7 -7 -7 -7 -7 -7 -7 -7 -7 -7 -7 -7 -7 -7 -7 -7 -7 -7 -7 -7 -7 -7 -7 -7 -7 -7 -7 -6 -4 9 74 110 34 1 -5 -6 -7 -7 -7 -7 -7 -7 -7 -7 -7 -7 -7 -7 -7 -7 -7 -7 -7 -7 -7 -7 -7 -7 -7 -7 -7 -7 -6 0 33 109 135 
81 8 -5 -7 -7 -7 -7 -7 -5 1 32 102 109 45 15 8 5 -2 -5 -5 -5 -5 -5 -5 -5 -5 -5 -5 -5 -6 -7 -7 -7 -7 -7 -7 -7 -7 -7 -7 -7 -7 -7 -7 -7 -7 -7 -7 -7 -7 -7 -7 -7 -7 -7 -7 -7 -7 -7 -7 -7 -7 -7 -7 -7 -7 -7 -7 -7 -6 -2 8 29 89 149 109 34 9 -2 -5 -6 -7 -7 -7 -7 -7 -7 -7 -7 -7 -7 -7 -7 -7 -7 -7 -7 -7 -7 -7 -7 -7 -7 -7 -7 -7 -5 9 72 153 
79 8 -5 -7 -7 -7 -7 -5 1 31 109 151 107 83 77 74 63 25 11 8 8 8 8 8 8 8 8 7 5 -2 -5 -5 -5 -5 -5 -5 -5 -5 -5 -5 -6 -7 -7 -7 -7 -7 -7 -7 -7 -7 -7 -7 -7 -7 -7 -7 -7 -7 -7 -7 -7 -7 -7 -7 -7 -7 -7 -6 -5 0 23 70 104 107 94 111 105 70 26 8 -2 -6 -7 -7 -7 -7 -7 -7 -7 -7 -7 -7 -7 -7 -7 -7 -7 -7 -7 -7 -7 -7 -7 -7 -7 -7 -6 -2 27 117 
77 8 -5 -7 -7 -7 -5 1 31 99 112 88 78 77 77 82 104 104 82 77 76 76 76 76 76 76 76 74 63 25 11 8 8 8 8 8 8 8 7 5 -2 -5 -5 -5 -5 -5 -5 -5 -5 -5 -5 -5 -6 -7 -7 -7 -7 -7 -7 -7 -7 -7 -7 -7 -7 -6 -5 -2 9 33 97 104 70 27 14 27 70 103 103 69 23 0 -5 -6 -7 -7 -7 -7 -7 -7 -7 -7 -7 -7 -7 -7 -7 -7 -7 -7 -7 -7 -7 -7 -7 -7 -7 -5 11 84 
76 8 -5 -7 -6 -5 1 31 98 98 34 12 8 8 8 11 25 63 74 76 76 76 76 76 76 76 77 82 104 104 82 77 76 76 76 76 76 76 74 63 25 11 8 8 8 8 8 8 8 8 7 5 -2 -5 -5 -5 -5 -5 -5 -5 -5 -5 -5 -6 -6 -2 8 26 70 104 97 33 9 -2 -4 -2 8 26 70 104 97 33 9 -2 -5 -6 -7 -7 -7 -7 -7 -7 -7 -7 -7 -7 -7 -7 -7 -7 -7 -7 -7 -7 -7 -7 -7 -5 8 77 
76 8 -5 -6 -5 1 31 98 98 31 1 -4 -5 -5 -5 -5 -2 5 7 8 8 8 8 8 8 8 8 11 25 63 74 76 76 76 76 76 76 77 82 104 104 82 77 76 76 76 76 76 76 76 74 63 25 11 8 8 8 8 8 8 8 7 5 -1 0 23 69 103 103 69 23 0 -5 -6 -6 -6 -5 -2 9 33 97 104 70 26 8 -2 -6 -7 -7 -7 -7 -7 -7 -7 -7 -7 -7 -7 -7 -7 -7 -7 -7 -7 -7 -7 -7 -5 8 76 
76 8 -4 -2 9 33 98 98 31 1 -5 -6 -7 -7 -7 -7 -6 -5 -5 -5 -5 -5 -5 -5 -5 -5 -5 -5 -2 5 7 8 8 8 8 8 8 8 11 25 63 74 76 76 76 76 76 76 76 77 82 104 104 82 77 76 76 76 76 76 76 74 64 29 36 97 104 70 26 8 -2 -6 -7 -7 -7 -7 -7 -6 -5 0 23 69 103 103 69 23 0 -5 -6 -7 -7 -7 -7 -7 -7 -7 -7 -7 -7 -7 -7 -7 -7 -7 -7 -7 -7 -5 8 76 
76 9 1 23 70 104 97 31 0 -5 -7 -7 -7 -7 -7 -7 -7 -7 -7 -7 -7 -7 -7 -7 -7 -7 -7 -7 -6 -5 -5 -5 -5 -5 -5 -5 -5 -5 -5 -2 5 7 8 8 8 8 8 8 8 8 11 25 63 74 76 76 76 76 76 76 77 82 107 118 118 100 33 9 -2 -5 -6 -7 -7 -7 -7 -7 -7 -7 -7 -6 -2 8 26 70 104 97 33 9 -2 -5 -6 -7 -7 -7 -7 -7 -7 -7 -7 -7 -7 -7 -7 -7 -7 -7 -7 -5 8 76 
77 16 32 97 104 70 23 0 -6 -7 -7 -7 -7 -7 -7 -7 -7 -7 -7 -7 -7 -7 -7 -7 -7 -7 -7 -7 -7 -7 -7 -7 -7 -7 -7 -7 -7 -7 -7 -6 -5 -5 -5 -5 -5 -5 -5 -5 -5 -5 -5 -2 5 7 8 8 8 8 8 8 8 12 37 120 120 34 1 -5 -6 -7 -7 -7 -7 -7 -7 -7 -7 -7 -7 -7 -6 -5 -2 9 33 97 104 70 26 8 -2 -6 -7 -7 -7 -7 -7 -7 -7 -7 -7 -7 -7 -7 -7 -7 -7 -5 8 76 
83 46 99 98 33 9 -2 -6 -7 -7 -7 -7 -7 -7 -7 -7 -7 -7 -7 -7 -7 -7 -7 -7 -7 -7 -7 -7 -7 -7 -7 -7 -7 -7 -7 -7 -7 -7 -7 -7 -7 -7 -7 -7 -7 -7 -7 -7 -7 -7 -7 -6 -5 -5 -5 -5 -5 -5 -5 -5 -5 -3 12 85 85 12 -4 -6 -7 -7 -7 -7 -7 -7 -7 -7 -7 -7 -7 -7 -7 -7 -6 -5 0 23 69 103 103 69 23 0 -5 -6 -7 -7 -7 -7 -7 -7 -7 -7 -7 -7 -7 -7 -7 -5 8 76 
107 109 98 31 1 -5 -6 -7 -7 -7 -7 -7 -7 -7 -7 -7 -7 -7 -7 -7 -7 -7 -7 -7 -7 -7 -7 -7 -7 -7 -7 -7 -7 -7 -7 -7 -7 -7 -7 -7 -7 -7 -7 -7 -7 -7 -7 -7 -7 -7 -7 -7 -7 -7 -7 -7 -7 -7 -7 -7 -6 -5 8 77 77 8 -5 -7 -7 -7 -7 -7 -7 -7 -7 -7 -7 -7 -7 -7 -7 -7 -7 -7 -6 -2 8 26 70 104 97 33 9 -2 -5 -6 -7 -7 -7 -7 -7 -7 -7 -7 -7 -7 -7 -5 8 78 
151 102 31 1 -5 -7 -7 -7 -7 -7 -7 -7 -7 -7 -7 -7 -7 -7 -7 -7 -7 -7 -7 -7 -7 -7 -7 -7 -7 -7 -7 -7 -7 -7 -7 -7 -7 -7 -7 -7 -7 -7 -7 -7 -7 -7 -7 -7 -7 -7 -7 -7 -7 -7 -7 -7 -7 -7 -7 -7 -7 -5 8 76 76 8 -5 -7 -7 -7 -7 -7 -7 -7 -7 -7 -7 -7 -7 -7 -7 -7 -7 -7 -7 -6 -5 -2 9 33 97 104 70 26 8 -2 -5 -6 -7 -7 -7 -7 -7 -7 -7 -7 -7 -5 8 81 
119 34 1 -5 -7 -7 -7 -7 -7 -7 -7 -7 -7 -7 -7 -7 -7 -7 -7 -7 -7 -7 -7 -7 -7 -7 -7 -7 -7 -7 -7 -7 -7 -7 -7 -7 -7 -7 -7 -7 -7 -7 -7 -7 -7 -7 -7 -7 -7 -7 -7 -7 -7 -7 -7 -7 -7 -7 -7 -7 -7 -5 8 76 76 8 -5 -7 -7 -7 -7 -7 -7 -7 -7 -7 -7 -7 -7 -7 -7 -7 -7 -7 -7 -7 -7 -6 -5 0 23 69 103 103 70 26 8 -2 -6 -7 -7 -7 -7 -7 -7 -7 -7 -5 8 79 
84 12 -4 -6 -7 -7 -7 -7 -7 -7 -7 -7 -7 -7 -7 -7 -7 -7 -7 -7 -7 -7 -7 -7 -7 -7 -7 -7 -7 -7 -7 -7 -7 -7 -7 -7 -7 -7 -7 -7 -7 -7 -7 -7 -7 -7 -7 -7 -7 -7 -7 -7 -7 -7 -7 -7 -7 -7 -7 -7 -7 -5 8 76 76 8 -5 -7 -7 -7 -7 -7 -7 -7 -7 -7 -7 -7 -7 -7 -7 -7 -7 -7 -7 -7 -7 -7 -7 -6 -2 8 26 70 103 103 69 23 0 -5 -6 -7 -7 -7 -7 -7 -7 -5 8 77 
77 8 -5 -7 -7 -7 -7 -7 -7 -7 -7 -7 -7 -7 -7 -7 -7 -7 -7 -7 -7 -7 -7 -7 -7 -7 -7 -7 -7 -7 -7 -7 -7 -7 -7 -7 -7 -7 -7 -7 -7 -7 -7 -7 -7 -7 -7 -7 -7 -7 -7 -7 -7 -7 -7 -7 -7 -7 -7 -7 -7 -5 8 76 76 8 -5 -7 -7 -7 -7 -7 -7 -7 -7 -7 -7 -7 -7 -7 -7 -7 -7 -7 -7 -7 -7 -7 -7 -7 -6 -5 -2 8 26 70 104 97 33 9 -2 -5 -5 -5 -6 -7 -6 -5 8 76 
76 8 -5 -7 -7 -7 -7 -7 -7 -7 -7 -7 -7 -7 -7 -7 -7 -7 -7 -7 -7 -7 -7 -7 -7 -7 -7 -7 -7 -7 -7 -7 -7 -7 -7 -7 -7 -7 -7 -7 -7 -7 -7 -7 -7 -7 -7 -7 -7 -7 -7 -7 -7 -7 -7 -7 -7 -7 -7 -7 -7 -5 8 76 76 8 -5 -7 -7 -7 -7 -7 -7 -7 -7 -7 -7 -7 -7 -7 -7 -7 -7 -7 -7 -7 -7 -7 -7 -7 -7 -7 -6 -5 -2 9 34 98 106 72 27 11 8 5 -2 -5 -5 -4 8 76 
76 8 -5 -7 -7 -7 -7 -7 -7 -7 -7 -7 -7 -7 -7 -7 -7 -7 -7 -7 -7 -7 -7 -7 -7 -7 -7 -7 -7 -7 -7 -7 -7 -7 -7 -7 -7 -7 -7 -7 -7 -7 -7 -7 -7 -7 -7 -7 -7 -7 -7 -7 -7 -7 -7 -7 -7 -7 -7 -7 -7 -5 8 76 76 8 -5 -7 -7 -7 -7 -7 -7 -7 -7 -7 -7 -7 -7 -7 -7 -7 -7 -7 -7 -7 -7 -7 -7 -7 -7 -7 -7 -6 -5 -3 5 38 97 148 118 84 75 63 25 11 8 7 12 78 
77 8 -5 -6 -7 -7 -7 -7 -7 -7 -7 -7 -7 -7 -7 -7 -7 -7 -7 -7 -7 -7 -7 -7 -7 -7 -7 -7 -7 -7 -7 -7 -7 -7 -7 -7 -7 -7 -7 -7 -7 -7 -7 -7 -7 -7 -7 -7 -7 -7 -7 -7 -7 -7 -7 -7 -7 -7 -7 -7 -7 -5 8 76 76 8 -5 -7 -7 -7 -7 -7 -7 -7 -7 -7 -7 -7 -7 -7 -7 -7 -7 -7 -7 -7 -7 -7 -7 -7 -7 -6 -5 -2 5 11 27 74 114 114 87 78 82 104 104 82 75 65 40 89 
81 10 -3 -5 -5 -5 -5 -5 -5 -6 -7 -7 -7 -7 -7 -7 -7 -7 -7 -7 -7 -7 -7 -7 -7 -7 -7 -7 -7 -7 -7 -7 -7 -7 -7 -7 -7 -7 -7 -7 -7 -7 -7 -7 -7 -7 -7 -7 -7 -7 -7 -7 -7 -7 -7 -7 -7 -7 -7 -7 -7 -5 8 76 76 8 -5 -7 -7 -7 -7 -7 -7 -7 -7 -7 -7 -7 -7 -7 -7 -7 -7 -7 -7 -7 -7 -7 -6 -5 -5 -2 8 25 64 80 104 103 70 26 11 8 11 25 63 75 82 105 114 134 
90 23 9 8 8 8 8 7 5 -2 -5 -5 -5 -5 -5 -5 -5 -6 -7 -7 -7 -7 -7 -7 -7 -7 -7 -7 -7 -7 -7 -7 -7 -7 -7 -7 -7 -7 -7 -7 -7 -7 -7 -7 -7 -7 -7 -7 -7 -7 -7 -7 -7 -7 -7 -7 -7 -7 -7 -7 -7 -5 8 76 76 8 -5 -7 -7 -7 -7 -7 -7 -7 -7 -7 -7 -7 -7 -7 -7 -7 -7 -7 -7 -7 -6 -5 -2 5 10 26 70 103 104 80 64 25 8 -2 -5 -5 -5 -2 5 8 11 27 75 129 
131 87 77 76 76 76 76 74 63 25 11 8 8 8 8 7 5 -2 -5 -5 -5 -5 -5 -5 -5 -5 -6 -7 -7 -7 -7 -7 -7 -7 -7 -7 -7 -7 -7 -7 -7 -7 -7 -7 -7 -7 -7 -7 -7 -7 -7 -7 -7 -7 -7 -7 -7 -7 -7 -7 -7 -5 8 76 76 8 -5 -7 -7 -7 -7 -7 -7 -7 -7 -7 -7 -7 -7 -7 -7 -7 -7 -6 -5 -5 -2 8 25 64 80 104 103 70 26 10 5 -2 -5 -6 -7 -7 -7 -6 -5 -5 -4 0 20 90 
130 87 77 76 76 76 77 82 104 104 82 77 76 76 76 74 63 25 11 8 8 8 8 8 7 5 -2 -5 -5 -5 -5 -5 -5 -5 -6 -7 -7 -7 -7 -7 -7 -7 -7 -7 -7 -7 -7 -7 -7 -7 -7 -7 -7 -7 -7 -7 -7 -7 -7 -7 -7 -5 8 76 76 8 -5 -7 -7 -7 -7 -7 -7 -7 -7 -7 -7 -7 -7 -7 -7 -6 -5 -2 5 10 26 70 103 104 80 64 25 8 -2 -5 -5 -6 -7 -7 -7 -7 -7 -7 -7 -7 -6 -5 9 81 
86 23 9 8 8 8 8 11 25 63 74 76 76 76 77 82 104 104 82 77 76 76 76 76 74 63 25 11 8 8 8 8 7 5 -2 -5 -5 -5 -5 -5 -5 -5 -5 -6 -7 -7 -7 -7 -7 -7 -7 -7 -7 -7 -7 -7 -7 -7 -7 -7 -7 -5 8 76 76 8 -5 -7 -7 -7 -7 -7 -7 -7 -7 -7 -7 -7 -7 -6 -5 -2 8 25 64 80 104 103 70 26 10 5 -2 -5 -6 -7 -7 -7 -7 -7 -7 -7 -7 -7 -7 -7 -7 -5 8 77 
77 9 -3 -5 -5 -5 -5 -5 -2 5 7 8 8 8 8 11 25 63 74 76 76 76 76 77 82 104 104 82 77 76 76 76 74 63 25 11 8 8 8 8 8 7 5 -2 -5 -5 -5 -5 -5 -5 -5 -6 -7 -7 -7 -7 -7 -7 -7 -7 -7 -5 8 76 76 8 -5 -7 -7 -7 -7 -7 -7 -7 -7 -7 -6 -5 -5 -2 8 26 70 103 104 80 64 25 8 -2 -5 -5 -6 -7 -7 -7 -7 -7 -7 -7 -7 -7 -7 -7 -7 -7 -7 -5 8 76 
76 8 -5 -6 -7 -7 -7 -7 -6 -5 -5 -5 -5 -5 -5 -5 -2 5 7 8 8 8 8 8 11 25 63 74 76 76 76 77 82 104 104 82 77 76 76 76 76 74 63 25 11 8 8 8 8 7 5 -2 -5 -5 -5 -5 -5 -5 -5 -5 -6 -5 8 76 76 8 -5 -7 -7 -7 -7 -7 -7 -7 -6 -5 -2 5 10 26 70 103 103 70 26 10 5 -2 -5 -6 -7 -7 -7 -7 -7 -7 -7 -7 -7 -7 -7 -7 -7 -7 -7 -7 -7 -5 8 76 
76 8 -5 -7 -7 -7 -7 -7 -7 -7 -7 -7 -7 -7 -7 -7 -6 -5 -5 -5 -5 -5 -5 -5 -5 -2 5 7 8 8 8 8 11 25 63 74 76 76 76 76 77 82 104 104 82 77 76 76 76 74 63 25 11 8 8 8 8 8 7 5 -2 -3 10 77 77 8 -5 -7 -7 -7 -7 -6 -5 -5 -2 8 25 64 80 104 103 70 26 8 -2 -5 -5 -6 -7 -7 -7 -7 -7 -7 -7 -7 -7 -7 -7 -7 -7 -7 -7 -7 -7 -7 -7 -5 8 76 
76 8 -5 -7 -7 -7 -7 -7 -7 -7 -7 -7 -7 -7 -7 -7 -7 -7 -7 -7 -7 -7 -7 -7 -7 -6 -5 -5 -5 -5 -5 -5 -5 -2 5 7 8 8 8 8 8 11 25 63 74 76 76 76 77 82 104 104 82 77 76 76 76 76 74 63 25 12 23 87 85 12 -4 -6 -7 -6 -5 -2 5 10 26 70 103 104 80 64 25 8 -2 -5 -6 -7 -7 -7 -7 -7 -7 -7 -7 -7 -7 -7 -7 -7 -7 -7 -7 -7 -7 -7 -7 -7 -7 -5 8 76 
76 8 -5 -7 -7 -7 -7 -7 -7 -7 -7 -7 -7 -7 -7 -7 -7 -7 -7 -7 -7 -7 -7 -7 -7 -7 -7 -7 -7 -7 -7 -7 -7 -6 -5 -5 -5 -5 -5 -5 -5 -5 -2 5 7 8 8 8 8 11 25 63 74 76 76 76 76 77 82 104 104 83 87 130 120 34 1 -4 -5 -2 8 25 64 80 104 103 70 26 10 5 -2 -5 -6 -7 -7 -7 -7 -7 -7 -7 -7 -7 -7 -7 -7 -7 -7 -7 -7 -7 -7 -7 -7 -7 -7 -7 -7 -5 8 76 
76 8 -5 -7 -7 -7 -7 -7 -7 -7 -7 -7 -7 -7 -7 -7 -7 -7 -7 -7 -7 -7 -7 -7 -7 -7 -7 -7 -7 -7 -7 -7 -7 -7 -7 -7 -7 -7 -7 -7 -7 -7 -6 -5 -5 -5 -5 -5 -5 -5 -2 5 7 8 8 8 8 8 11 25 63 74 77 87 112 99 34 12 11 26 70 103 104 80 64 25 8 -2 -5 -5 -6 -7 -7 -7 -7 -7 -7 -7 -7 -7 -7 -7 -7 -7 -7 -7 -7 -7 -7 -7 -7 -7 -7 -7 -7 -7 -7 -5 8 76 
76 8 -5 -7 -7 -7 -7 -7 -7 -7 -7 -7 -7 -7 -7 -7 -7 -7 -7 -7 -7 -7 -7 -7 -7 -7 -7 -7 -7 -7 -7 -7 -7 -7 -7 -7 -7 -7 -7 -7 -7 -7 -7 -7 -7 -7 -7 -7 -7 -7 -6 -5 -5 -5 -5 -5 -5 -5 -5 -2 5 7 8 12 34 99 113 88 83 105 103 70 26 10 5 -2 -5 -6 -7 -7 -7 -7 -7 -7 -7 -7 -7 -7 -7 -7 -7 -7 -7 -7 -7 -7 -7 -7 -7 -7 -7 -7 -7 -7 -7 -7 -7 -5 8 76 
76 8 -5 -7 -7 -7 -7 -7 -7 -7 -7 -7 -7 -7 -7 -7 -7 -7 -7 -7 -7 -7 -7 -7 -7 -7 -7 -7 -7 -7 -7 -7 -7 -7 -7 -7 -7 -7 -7 -7 -7 -7 -7 -7 -7 -7 -7 -7 -7 -7 -7 -7 -7 -7 -7 -7 -7 -7 -7 -6 -5 -5 -5 -4 1 34 120 130 85 64 25 8 -2 -5 -5 -6 -7 -7 -7 -7 -7 -7 -7 -7 -7 -7 -7 -7 -7 -7 -7 -7 -7 -7 -7 -7 -7 -7 -7 -7 -7 -7 -7 -7 -7 -7 -7 -5 8 76 
76 8 -5 -7 -7 -7 -7 -7 -7 -7 -7 -7 -7 -7 -7 -7 -7 -7 -7 -7 -7 -7 -7 -7 -7 -7 -7 -7 -7 -7 -7 -7 -7 -7 -7 -7 -7 -7 -7 -7 -7 -7 -7 -7 -7 -7 -7 -7 -7 -7 -7 -7 -7 -7 -7 -7 -7 -7 -7 -7 -7 -7 -7 -6 -4 12 85 87 22 6 -2 -5 -6 -7 -7 -7 -7 -7 -7 -7 -7 -7 -7 -7 -7 -7 -7 -7 -7 -7 -7 -7 -7 -7 -7 -7 -7 -7 -7 -7 -7 -7 -7 -7 -7 -7 -7 -5 8 76 
76 8 -5 -6 -7 -7 -7 -7 -7 -7 -7 -7 -7 -7 -7 -7 -7 -7 -7 -7 -7 -7 -7 -7 -7 -7 -7 -7 -7 -7 -7 -7 -7 -7 -7 -7 -7 -7 -7 -7 -7 -7 -7 -7 -7 -7 -7 -7 -7 -7 -7 -7 -7 -7 -7 -7 -7 -7 -7 -7 -7 -7 -7 -6 -5 8 77 77 10 -4 -6 -6 -7 -7 -7 -7 -7 -7 -7 -7 -7 -7 -7 -7 -7 -7 -7 -7 -7 -7 -7 -7 -7 -7 -7 -7 -7 -7 -7 -7 -7 -7 -7 -7 -7 -7 -6 -5 8 76 
77 9 -3 -5 -5 -5 -5 -5 -5 -5 -5 -5 -5 -5 -5 -5 -5 -5 -5 -5 -5 -5 -5 -5 -5 -5 -5 -5 -5 -5 -5 -5 -5 -5 -5 -5 -5 -5 -5 -5 -5 -5 -5 -5 -5 -5 -5 -5 -5 -5 -5 -5 -5 -5 -5 -5 -5 -5 -5 -5 -5 -5 -5 -5 -3 10 77 77 10 -3 -5 -5 -5 -5 -5 -5 -5 -5 -5 -5 -5 -5 -5 -5 -5 -5 -5 -5 -5 -5 -5 -5 -5 -5 -5 -5 -5 -5 -5 -5 -5 -5 -5 -5 -5 -5 -5 -3 9 77 
87 23 9 8 8 8 8 8 8 8 8 8 8 8 8 8 8 8 8 8 8 8 8 8 8 8 8 8 8 8 8 8 8 8 8 8 8 8 8 8 8 8 8 8 8 8 8 8 8 8 8 8 8 8 8 8 8 8 8 8 8 8 8 8 9 23 87 87 23 9 8 8 8 8 8 8 8 8 8 8 8 8 8 8 8 8 8 8 8 8 8 8 8 8 8 8 8 8 8 8 8 8 8 8 8 8 8 9 23 87 
134 87 77 76 76 76 76 76 76 76 76 76 76 76 76 76 76 76 76 76 76 76 76 76 76 76 76 76 76 76 76 76 78 81 79 77 76 76 76 76 76 76 76 76 76 76 76 76 77 80 80 77 76 76 76 76 76 76 76 76 76 76 76 76 77 86 130 130 86 77 76 76 76 76 76 76 76 76 76 76 76 76 76 76 76 76 76 76 76 76 76 77 81 79 77 76 76 76 76 76 76 76 76 77 81 79 77 77 87 134 
