P2
110 110
255
149 106 92 89 88 88 88 88 88 88 88 88 88 88 88 88 88 88 88 88 88 88 88 88 88 88 88 88 88 89 91 101 129 154 128 99 90 89 88 88 88 88 88 88 88 88 89 91 104 142 141 104 91 89 88 88 88 88 88 88 88 88 88 88 89 90 94 94 90 89 88 88 88 88 88 88 88 88 88 88 88 88 88 88 88 88 88 88 89 90 97 123 154 129 99 90 89 88 88 88 89 90 96 121 154 129 100 93 107 149 
106 46 25 21 21 21 21 21 21 21 21 21 21 21 21 21 21 21 21 21 21 21 21 21 21 21 21 21 21 23 32 64 120 112 56 29 22 21 21 21 21 21 21 21 21 21 21 25 47 108 106 46 25 21 21 21 21 21 21 21 21 21 21 21 21 21 21 21 21 21 21 21 21 21 21 21 21 21 21 21 21 21 21 21 21 21 21 21 22 26 46 102 120 61 30 22 21 21 21 21 21 24 41 95 122 62 30 26 46 106 
92 25 3 0 -1 -1 -1 -1 -1 -1 -1 -1 -1 -1 -1 -1 -1 -1 -1 -1 -1 -1 -1 -1 -1 -1 -1 -1 0 4 26 84 111 54 14 1 0 -1 -1 -1 -1 -1 -1 -1 -1 -1 0 4 31 101 93 25 3 0 -1 -1 -1 -1 -1 -1 -1 -1 -1 -1 -1 -1 -1 -1 -1 -1 -1 -1 -1 -1 -1 -1 -1 -1 -1 -1 -1 -1 -1 -1 -1 -1 -1 0 0 9 46 111 83 24 3 0 -1 -1 -1 -1 0 3 25 90 96 30 5 4 25 92 
89 21 0 -4 -5 -5 -5 -5 -5 -5 -5 -5 -5 -5 -5 -5 -5 -5 -5 -5 -5 -5 -5 -5 -5 -5 -5 -4 -1 11 53 109 81 22 0 -4 -5 -5 -5 -5 -5 -5 -5 -5 -5 -4 -3 6 46 125 94 21 0 -4 -5 -5 -5 -5 -5 -5 -5 -5 -5 -5 -5 -5 -5 -5 -5 -5 -5 -5 -5 -5 -5 -5 -5 -5 -5 -5 -5 -5 -5 -5 -5 -5 -5 -4 -1 16 74 109 45 6 -3 -4 -5 -5 -5 -5 -4 0 27 95 86 21 0 0 21 89 
88 21 -1 -5 -5 -5 -5 -5 -5 -5 -5 -5 -5 -5 -5 -5 -5 -5 -5 -5 -5 -5 -5 -5 -5 -5 -5 -3 5 39 101 101 39 5 -3 -5 -5 -5 -5 -5 -5 -5 -5 -5 -5 -4 0 20 85 153 95 21 -1 -5 -5 -5 -5 -5 -5 -5 -5 -5 -5 -5 -5 -5 -5 -5 -5 -5 -5 -5 -5 -5 -5 -5 -5 -5 -5 -5 -5 -5 -5 -5 -5 -5 -5 -4 0 25 92 92 25 0 -4 -5 -5 -5 -5 -5 -4 5 43 109 73 15 -1 0 21 88 
88 21 -1 -5 -5 -5 -5 -5 -5 -5 -5 -5 -5 -5 -5 -5 -5 -5 -5 -5 -5 -5 -5 -5 -5 -5 -4 0 22 80 109 52 11 -2 -5 -5 -5 -5 -5 -5 -5 -5 -5 -5 -5 -3 5 44 117 148 94 21 -1 -5 -5 -5 -5 -5 -5 -5 -5 -5 -5 -5 -5 -5 -5 -5 -5 -5 -5 -5 -5 -5 -5 -5 -5 -5 -5 -5 -5 -5 -5 -5 -5 -5 -5 -3 6 45 109 74 15 -2 -5 -5 -5 -5 -5 -5 -2 15 73 109 43 5 -3 0 21 88 
88 21 -1 -5 -5 -5 -5 -5 -5 -5 -5 -5 -5 -5 -5 -5 -5 -5 -5 -5 -5 -5 -5 -5 -5 -5 -2 11 52 109 80 22 0 -4 -5 -5 -5 -5 -5 -5 -5 -5 -5 -5 -5 0 20 82 125 126 92 22 0 -5 -5 -5 -5 -5 -5 -5 -5 -5 -5 -5 -5 -5 -5 -5 -5 -5 -5 -5 -5 -5 -5 -5 -5 -5 -5 -5 -5 -5 -5 -5 -5 -5 -5 0 20 81 107 42 5 -4 -5 -5 -5 -5 -5 -5 -1 20 86 94 26 0 -4 -1 21 88 
88 21 -1 -5 -5 -5 -5 -5 -5 -5 -5 -5 -5 -5 -5 -5 -5 -5 -5 -5 -5 -5 -5 -5 -5 -3 5 39 101 101 39 5 -3 -5 -5 -5 -5 -5 -5 -5 -5 -5 -5 -5 -3 6 44 109 102 106 96 26 0 -4 -5 -5 -5 -5 -5 -5 -5 -5 -5 -5 -5 -5 -5 -5 -5 -5 -5 -5 -5 -5 -5 -5 -5 -5 -5 -5 -5 -5 -5 -5 -5 -5 -4 5 42 107 81 20 0 -5 -5 -5 -5 -5 -5 -4 0 26 94 86 20 -1 -4 -1 21 88 
88 21 -1 -5 -5 -5 -5 -5 -5 -5 -5 -5 -5 -5 -5 -5 -5 -5 -5 -5 -5 -5 -5 -5 -4 0 22 80 109 52 11 -2 -5 -5 -5 -5 -5 -5 -5 -5 -5 -5 -5 -4 0 22 81 110 63 82 110 43 5 -4 -5 -5 -5 -5 -5 -5 -5 -5 -5 -5 -5 -5 -5 -5 -5 -5 -5 -5 -5 -5 -5 -5 -5 -5 -5 -5 -5 -5 -5 -5 -5 -5 -2 15 74 109 45 6 -3 -5 -5 -5 -5 -5 -5 -4 5 43 109 73 15 -2 -4 -1 21 88 
88 21 -1 -5 -5 -5 -5 -5 -5 -5 -5 -5 -5 -5 -5 -5 -5 -5 -5 -5 -5 -5 -5 -5 -2 11 52 109 80 22 0 -4 -5 -5 -5 -5 -5 -5 -5 -5 -5 -5 -5 -2 11 53 109 81 31 48 110 72 14 -2 -5 -5 -5 -5 -5 -5 -5 -5 -5 -5 -5 -5 -5 -5 -5 -5 -5 -5 -5 -5 -5 -5 -5 -5 -5 -5 -5 -5 -5 -5 -5 -4 0 25 92 92 25 0 -4 -5 -5 -5 -5 -5 -5 -2 15 73 109 43 5 -4 -4 -1 21 88 
88 21 -1 -5 -5 -5 -5 -5 -5 -5 -5 -5 -5 -5 -5 -5 -5 -5 -5 -5 -5 -5 -5 -3 5 39 101 101 39 5 -3 -5 -5 -5 -5 -5 -5 -5 -5 -5 -5 -5 -3 5 39 101 101 40 11 28 95 85 19 -1 -5 -5 -5 -5 -5 -5 -5 -5 -5 -5 -5 -5 -5 -5 -5 -5 -5 -5 -5 -5 -5 -5 -5 -5 -5 -5 -5 -5 -5 -5 -5 -3 6 45 109 74 15 -2 -5 -5 -5 -5 -5 -5 -5 -1 20 86 94 26 0 -4 -5 -1 21 88 
89 21 -1 -5 -5 -5 -5 -5 -5 -5 -5 -5 -5 -5 -5 -5 -5 -5 -5 -5 -5 -5 -4 0 22 80 109 52 11 -2 -5 -5 -5 -5 -5 -5 -5 -5 -5 -5 -5 -5 0 20 80 109 53 11 2 22 90 88 21 -1 -5 -5 -5 -5 -5 -5 -5 -5 -5 -5 -5 -5 -5 -5 -5 -5 -5 -5 -5 -5 -5 -5 -5 -5 -5 -5 -5 -5 -5 -5 -5 0 20 81 107 42 5 -4 -5 -5 -5 -5 -5 -5 -4 0 26 94 86 20 -1 -5 -5 -1 21 88 
90 22 0 -5 -5 -5 -5 -5 -5 -5 -5 -5 -5 -5 -5 -5 -5 -5 -5 -5 -5 -5 -2 11 52 109 80 22 0 -4 -5 -5 -5 -5 -5 -5 -5 -5 -5 -5 -5 -3 5 44 108 81 22 0 0 21 89 89 21 -1 -5 -5 -5 -5 -5 -5 -5 -5 -5 -5 -5 -5 -5 -5 -5 -5 -5 -5 -5 -5 -5 -5 -5 -5 -5 -5 -5 -5 -5 -5 -4 5 42 107 81 20 0 -5 -5 -5 -5 -5 -5 -5 -4 5 43 109 73 15 -2 -5 -5 -1 21 89 
99 29 1 -4 -5 -5 -5 -5 -5 -5 -5 -5 -5 -5 -5 -5 -5 -5 -5 -5 -5 -3 5 39 101 101 39 5 -3 -5 -5 -5 -5 -5 -5 -5 -5 -5 -5 -5 -5 0 20 81 108 44 6 -3 0 21 88 90 22 0 -5 -5 -5 -5 -5 -5 -5 -5 -5 -5 -5 -5 -5 -5 -5 -5 -5 -5 -5 -5 -5 -5 -5 -5 -5 -5 -5 -5 -5 -5 -2 15 74 109 45 6 -3 -5 -5 -5 -5 -5 -5 -5 -2 15 73 109 43 5 -4 -5 -5 -1 21 90 
128 56 13 -1 -4 -5 -5 -5 -5 -5 -5 -5 -5 -5 -5 -5 -5 -5 -5 -5 -4 0 22 80 109 52 11 -2 -5 -5 -5 -5 -5 -5 -5 -5 -5 -5 -5 -5 -3 6 44 108 81 20 0 -4 -1 19 85 95 26 0 -4 -5 -5 -5 -5 -5 -5 -5 -5 -5 -5 -5 -5 -5 -5 -5 -5 -5 -5 -5 -5 -5 -5 -5 -5 -5 -5 -5 -5 -4 0 25 92 92 25 0 -4 -5 -5 -5 -5 -5 -5 -5 -1 20 86 94 26 0 -4 -5 -5 -1 21 93 
154 112 49 11 -1 -5 -5 -5 -5 -5 -5 -5 -5 -5 -5 -5 -5 -5 -5 -5 -2 11 52 109 80 22 0 -4 -5 -5 -5 -5 -5 -5 -5 -5 -5 -5 -5 -4 0 22 81 108 44 5 -3 -5 -2 14 72 109 43 5 -4 -5 -5 -5 -5 -5 -5 -5 -5 -5 -5 -5 -5 -5 -5 -5 -5 -5 -5 -5 -5 -5 -5 -5 -5 -5 -5 -5 -5 -3 6 45 109 74 15 -2 -5 -5 -5 -5 -5 -5 -5 -4 0 26 94 86 20 -1 -5 -5 -5 -1 21 95 
129 122 104 48 10 -2 -5 -5 -5 -5 -5 -5 -5 -5 -5 -5 -5 -5 -5 -3 5 39 101 101 39 5 -3 -5 -5 -5 -5 -5 -5 -5 -5 -5 -5 -5 -5 -2 11 53 109 80 20 0 -5 -5 -4 5 43 109 72 14 -2 -5 -5 -5 -5 -5 -5 -5 -5 -5 -5 -5 -5 -5 -5 -5 -5 -5 -5 -5 -5 -5 -5 -5 -5 -5 -5 -5 -5 0 20 81 107 42 5 -4 -5 -5 -5 -5 -5 -5 -5 -4 5 43 109 73 15 -2 -5 -5 -5 -1 21 92 
103 74 106 101 39 5 -3 -5 -5 -5 -5 -5 -5 -5 -5 -5 -5 -5 -4 0 22 80 109 52 11 -2 -5 -5 -5 -5 -5 -5 -5 -5 -5 -5 -5 -5 -3 5 39 101 101 39 5 -3 -5 -5 -4 0 26 95 85 19 -1 -5 -5 -5 -5 -5 -5 -5 -5 -5 -5 -5 -5 -5 -5 -5 -5 -5 -5 -5 -5 -5 -5 -5 -5 -5 -5 -5 -4 5 42 107 81 20 0 -5 -5 -5 -5 -5 -5 -5 -5 -2 15 73 109 43 5 -4 -5 -5 -5 -1 21 89 
92 39 57 109 80 22 0 -4 -5 -5 -5 -5 -5 -5 -5 -5 -5 -5 -2 11 52 109 80 22 0 -4 -5 -5 -5 -5 -5 -5 -5 -5 -5 -5 -5 -5 0 20 80 109 53 11 -2 -5 -5 -5 -5 0 22 90 88 21 -1 -5 -5 -5 -5 -5 -5 -5 -5 -5 -5 -5 -5 -5 -5 -5 -5 -5 -5 -5 -5 -5 -5 -5 -5 -5 -5 -5 -2 15 74 109 45 6 -3 -5 -5 -5 -5 -5 -5 -5 -5 -1 20 86 94 26 0 -4 -5 -5 -5 -1 21 89 
89 27 26 81 109 53 12 -1 -4 -5 -5 -5 -5 -5 -5 -5 -5 -3 5 39 101 101 39 5 -3 -5 -5 -5 -5 -5 -5 -5 -5 -5 -5 -5 -5 -3 5 44 108 81 22 0 -4 -5 -5 -5 -5 -1 21 89 89 21 -1 -5 -5 -5 -5 -5 -5 -5 -5 -5 -5 -5 -5 -5 -5 -5 -5 -5 -5 -5 -5 -5 -5 -5 -5 -5 -5 -4 0 25 92 92 25 0 -4 -5 -5 -5 -5 -5 -5 -5 -4 0 26 94 86 20 -1 -5 -5 -5 -5 -1 21 88 
89 23 9 40 101 103 49 12 -1 -4 -5 -5 -5 -5 -5 -5 -4 0 22 80 109 52 11 -2 -5 -5 -5 -5 -5 -5 -5 -5 -5 -5 -5 -5 -5 0 20 81 108 44 6 -3 -5 -5 -5 -5 -5 -1 21 88 90 22 0 -5 -5 -5 -5 -5 -5 -5 -5 -5 -5 -5 -5 -5 -5 -5 -5 -5 -5 -5 -5 -5 -5 -5 -5 -5 -5 -3 6 45 109 74 15 -2 -5 -5 -5 -5 -5 -5 -5 -5 -4 5 43 109 73 15 -2 -5 -5 -5 -5 -1 21 88 
88 21 2 10 48 103 103 49 12 -1 -4 -5 -5 -5 -5 -5 -2 11 52 109 80 22 0 -4 -5 -5 -5 -5 -5 -5 -5 -5 -5 -5 -5 -5 -3 6 44 108 81 20 0 -5 -5 -5 -5 -5 -5 -1 19 85 95 26 0 -4 -5 -5 -5 -5 -5 -5 -5 -5 -5 -5 -5 -5 -5 -5 -5 -5 -5 -5 -5 -5 -5 -5 -5 -5 -5 0 20 81 107 42 5 -4 -5 -5 -5 -5 -5 -5 -5 -5 -2 15 73 109 43 5 -4 -5 -5 -5 -5 -1 21 88 
88 21 0 -1 12 49 103 103 49 12 -1 -4 -5 -5 -5 -3 5 39 101 101 39 5 -3 -5 -5 -5 -5 -5 -5 -5 -5 -5 -5 -5 -5 -4 0 22 81 108 44 5 -3 -5 -5 -5 -5 -5 -5 -2 14 72 109 43 5 -4 -5 -5 -5 -5 -5 -5 -5 -5 -5 -5 -5 -5 -5 -5 -5 -5 -5 -5 -5 -5 -5 -5 -5 -5 -4 5 42 107 81 20 0 -5 -5 -5 -5 -5 -5 -5 -5 -5 -1 20 86 94 26 0 -4 -5 -5 -5 -5 -1 21 88 
88 21 -1 -4 -1 12 49 103 103 49 12 -1 -4 -5 -4 0 22 80 109 52 11 -2 -5 -5 -5 -5 -5 -5 -5 -5 -5 -5 -5 -5 -5 -2 11 53 109 80 20 0 -5 -5 -5 -5 -5 -5 -5 -4 5 43 109 72 14 -2 -5 -5 -5 -5 -5 -5 -5 -5 -5 -5 -5 -5 -5 -5 -5 -5 -5 -5 -5 -5 -5 -5 -5 -5 -2 15 74 109 45 6 -3 -5 -5 -5 -5 -5 -5 -5 -5 -4 0 26 94 86 20 -1 -5 -5 -5 -5 -5 -1 21 88 
88 21 -1 -5 -4 -1 12 49 103 103 49 12 -1 -4 -2 11 52 109 80 22 0 -4 -5 -5 -5 -5 -5 -5 -5 -5 -5 -5 -5 -5 -3 5 39 101 101 39 5 -3 -5 -5 -5 -5 -5 -5 -5 -4 0 26 95 85 19 -1 -5 -5 -5 -5 -5 -5 -5 -5 -5 -5 -5 -5 -5 -5 -5 -5 -5 -5 -5 -5 -5 -5 -5 -4 0 25 92 92 25 0 -4 -5 -5 -5 -5 -5 -5 -5 -5 -4 5 43 109 73 15 -2 -5 -5 -5 -5 -5 -1 21 88 
88 21 -1 -5 -5 -4 -1 12 49 103 103 49 12 0 6 39 101 101 39 5 -3 -5 -5 -5 -5 -5 -5 -5 -5 -5 -5 -5 -5 -5 0 20 80 109 53 11 -2 -5 -5 -5 -5 -5 -5 -5 -5 -5 0 22 90 88 21 -1 -5 -5 -5 -5 -5 -5 -5 -5 -5 -5 -5 -5 -5 -5 -5 -5 -5 -5 -5 -5 -5 -5 -5 -3 6 45 109 74 15 -2 -5 -5 -5 -5 -5 -5 -5 -5 -5 -2 15 73 109 43 5 -4 -5 -5 -5 -5 -5 -1 21 88 
88 21 -1 -5 -5 -5 -4 -1 12 49 103 103 50 17 26 81 109 52 11 -2 -5 -5 -5 -5 -5 -5 -5 -5 -5 -5 -5 -5 -5 -3 5 44 108 81 22 0 -4 -5 -5 -5 -5 -5 -5 -5 -5 -5 -1 21 88 90 22 0 -5 -5 -5 -5 -5 -5 -5 -5 -5 -5 -5 -5 -5 -5 -5 -5 -5 -5 -5 -5 -5 -5 -5 0 20 81 107 42 5 -4 -5 -5 -5 -5 -5 -5 -5 -5 -5 -1 20 86 94 26 0 -4 -5 -5 -5 -5 -5 -1 21 88 
88 21 -1 -5 -5 -5 -5 -4 -1 12 49 103 105 64 67 111 81 22 0 -4 -5 -5 -5 -5 -5 -5 -5 -5 -5 -5 -5 -5 -5 0 20 81 108 44 6 -3 -5 -5 -5 -5 -5 -5 -5 -5 -5 -5 -1 19 85 95 26 0 -4 -5 -5 -5 -5 -5 -5 -5 -5 -5 -5 -5 -5 -5 -5 -5 -5 -5 -5 -5 -5 -5 -4 5 42 107 81 20 0 -5 -5 -5 -5 -5 -5 -5 -5 -5 -4 0 26 94 86 20 -1 -5 -5 -5 -5 -5 -5 -1 21 88 
88 21 -1 -5 -5 -5 -5 -5 -4 -1 12 49 107 131 131 104 39 5 -3 -5 -5 -5 -5 -5 -5 -5 -5 -5 -5 -5 -5 -5 -3 6 44 108 81 20 0 -5 -5 -5 -5 -5 -5 -5 -5 -5 -5 -5 -2 14 72 109 43 5 -4 -5 -5 -5 -5 -5 -5 -5 -5 -5 -5 -5 -5 -5 -5 -5 -5 -5 -5 -5 -5 -5 -2 15 74 109 45 6 -3 -5 -5 -5 -5 -5 -5 -5 -5 -5 -4 5 43 109 73 15 -2 -5 -5 -5 -5 -5 -5 -1 21 88 
88 21 -1 -5 -5 -5 -5 -5 -5 -4 -1 13 56 131 131 55 11 -2 -5 -5 -5 -5 -5 -5 -5 -5 -5 -5 -5 -5 -5 -4 0 22 81 108 44 5 -3 -5 -5 -5 -5 -5 -5 -5 -5 -5 -5 -5 -4 5 43 109 72 14 -2 -5 -5 -5 -5 -5 -5 -5 -5 -5 -5 -5 -5 -5 -5 -5 -5 -5 -5 -5 -5 -4 0 25 92 92 25 0 -4 -5 -5 -5 -5 -5 -5 -5 -5 -5 -2 15 73 109 43 5 -4 -5 -5 -5 -5 -5 -5 -1 21 88 
88 21 -1 -5 -5 -5 -5 -5 -5 -5 -4 1 29 100 102 30 1 -4 -5 -5 -5 -5 -5 -5 -5 -5 -5 -5 -5 -5 -5 -2 11 53 109 80 20 0 -5 -5 -5 -5 -5 -5 -5 -5 -5 -5 -5 -5 -4 0 26 95 85 19 -1 -5 -5 -5 -5 -5 -5 -5 -5 -5 -5 -5 -5 -5 -5 -5 -5 -5 -5 -5 -5 -3 6 45 109 74 15 -2 -5 -5 -5 -5 -5 -5 -5 -5 -5 -5 -1 20 86 94 26 0 -4 -5 -5 -5 -5 -5 -5 -1 21 88 
88 21 -1 -5 -5 -5 -5 -5 -5 -5 -5 -1 21 87 97 28 0 -4 -5 -5 -5 -5 -5 -5 -5 -5 -5 -5 -5 -5 -3 5 39 101 101 39 5 -3 -5 -5 -5 -5 -5 -5 -5 -5 -5 -5 -5 -5 -5 0 22 90 88 21 -1 -5 -5 -5 -5 -5 -5 -5 -5 -5 -5 -5 -5 -5 -5 -5 -5 -5 -5 -5 -5 0 20 81 107 42 5 -4 -5 -5 -5 -5 -5 -5 -5 -5 -5 -4 0 26 94 86 20 -1 -5 -5 -5 -5 -5 -5 -5 -1 21 88 
88 21 -1 -5 -5 -5 -5 -5 -5 -5 -5 -2 15 73 109 43 5 -4 -5 -5 -5 -5 -5 -5 -5 -5 -5 -5 -5 -5 0 20 80 109 53 11 -2 -5 -5 -5 -5 -5 -5 -5 -5 -5 -5 -5 -5 -5 -5 -1 21 89 89 21 -1 -5 -5 -5 -5 -5 -5 -5 -5 -5 -5 -5 -5 -5 -5 -5 -5 -5 -5 -5 -4 5 42 107 81 20 0 -5 -5 -5 -5 -5 -5 -5 -5 -5 -5 -4 5 43 109 73 15 -2 -5 -5 -5 -5 -5 -5 -5 -1 21 88 
88 21 -1 -5 -5 -5 -5 -5 -5 -5 -5 -4 5 43 109 72 14 -2 -5 -5 -5 -5 -5 -5 -5 -5 -5 -5 -5 -3 5 44 108 81 22 0 -4 -5 -5 -5 -5 -5 -5 -5 -5 -5 -5 -5 -5 -5 -5 -1 21 88 90 22 0 -5 -5 -5 -5 -5 -5 -5 -5 -5 -5 -5 -5 -5 -5 -5 -5 -5 -5 -5 -2 15 74 109 45 6 -3 -5 -5 -5 -5 -5 -5 -5 -5 -5 -5 -2 15 73 109 43 5 -4 -5 -5 -5 -5 -5 -5 -5 -1 21 88 
88 21 -1 -5 -5 -5 -5 -5 -5 -5 -5 -4 0 26 95 85 19 -1 -5 -5 -5 -5 -5 -5 -5 -5 -5 -5 -5 0 20 81 108 44 6 -3 -5 -5 -5 -5 -5 -5 -5 -5 -5 -5 -5 -5 -5 -5 -5 -1 19 85 95 26 0 -4 -5 -5 -5 -5 -5 -5 -5 -5 -5 -5 -5 -5 -5 -5 -5 -5 -5 -4 0 25 92 92 25 0 -4 -5 -5 -5 -5 -5 -5 -5 -5 -5 -5 -1 20 86 94 26 0 -4 -5 -5 -5 -5 -5 -5 -5 -1 21 89 
89 21 -1 -5 -5 -5 -5 -5 -5 -5 -5 -5 0 22 89 89 22 0 -5 -5 -5 -5 -5 -5 -5 -5 -5 -5 -3 6 44 108 81 20 0 -5 -5 -5 -5 -5 -5 -5 -5 -5 -5 -5 -5 -5 -5 -5 -5 -2 14 72 109 43 5 -4 -5 -5 -5 -5 -5 -5 -5 -5 -5 -5 -5 -5 -5 -5 -5 -5 -5 -3 6 45 109 74 15 -2 -5 -5 -5 -5 -5 -5 -5 -5 -5 -5 -4 0 26 94 86 20 -1 -5 -5 -5 -5 -5 -5 -5 -5 0 22 90 
90 21 -1 -5 -5 -5 -5 -5 -5 -5 -5 -5 -1 19 85 95 26 0 -4 -5 -5 -5 -5 -5 -5 -5 -5 -4 0 22 81 108 44 5 -3 -5 -5 -5 -5 -5 -5 -5 -5 -5 -5 -5 -5 -5 -5 -5 -5 -4 5 43 109 72 14 -2 -5 -5 -5 -5 -5 -5 -5 -5 -5 -5 -5 -5 -5 -5 -5 -5 -5 0 20 81 107 42 5 -4 -5 -5 -5 -5 -5 -5 -5 -5 -5 -5 -4 5 43 109 73 15 -2 -5 -5 -5 -5 -5 -5 -5 -4 0 27 98 
93 21 -1 -5 -5 -5 -5 -5 -5 -5 -5 -5 -2 14 72 109 43 5 -4 -5 -5 -5 -5 -5 -5 -5 -5 -2 11 53 109 80 20 0 -5 -5 -5 -5 -5 -5 -5 -5 -5 -5 -5 -5 -5 -5 -5 -5 -5 -4 0 26 95 85 19 -1 -5 -5 -5 -5 -5 -5 -5 -5 -5 -5 -5 -5 -5 -5 -5 -5 -4 5 42 107 81 20 0 -5 -5 -5 -5 -5 -5 -5 -5 -5 -5 -5 -2 15 73 109 43 5 -4 -5 -5 -5 -5 -5 -5 -5 -3 6 46 125 
95 21 -1 -5 -5 -5 -5 -5 -5 -5 -5 -5 -4 5 43 109 72 14 -2 -5 -5 -5 -5 -5 -5 -5 -3 5 39 101 101 39 5 -3 -5 -5 -5 -5 -5 -5 -5 -5 -5 -5 -5 -5 -5 -5 -5 -5 -5 -5 0 22 90 88 21 -1 -5 -5 -5 -5 -5 -5 -5 -5 -5 -5 -5 -5 -5 -5 -5 -5 -2 15 74 109 45 6 -3 -5 -5 -5 -5 -5 -5 -5 -5 -5 -5 -5 -1 20 86 94 26 0 -4 -5 -5 -5 -5 -5 -5 -4 0 22 86 153 
94 21 -1 -5 -5 -5 -5 -5 -5 -5 -5 -5 -4 0 26 95 85 19 -1 -5 -5 -5 -5 -5 -5 -5 0 20 80 109 53 11 -2 -5 -5 -5 -5 -5 -5 -5 -5 -5 -5 -5 -5 -5 -5 -5 -5 -5 -5 -5 -1 21 89 89 21 -1 -5 -5 -5 -5 -5 -5 -5 -5 -5 -5 -5 -5 -5 -5 -5 -4 0 25 92 92 25 0 -4 -5 -5 -5 -5 -5 -5 -5 -5 -5 -5 -4 0 26 94 86 20 -1 -5 -5 -5 -5 -5 -5 -5 -2 11 53 119 148 
91 21 -1 -5 -5 -5 -5 -5 -5 -5 -5 -5 -5 0 22 89 89 22 0 -5 -5 -5 -5 -5 -5 -3 5 44 108 81 22 0 -4 -5 -5 -5 -5 -5 -5 -5 -5 -5 -5 -5 -5 -5 -5 -5 -5 -5 -5 -5 -1 21 88 90 22 0 -5 -5 -5 -5 -5 -5 -5 -5 -5 -5 -5 -5 -5 -5 -5 -3 6 45 109 74 15 -2 -5 -5 -5 -5 -5 -5 -5 -5 -5 -5 -5 -4 5 43 109 73 15 -2 -5 -5 -5 -5 -5 -5 -3 5 39 103 120 123 
89 21 -1 -5 -5 -5 -5 -5 -5 -5 -5 -5 -5 -1 19 85 95 26 0 -4 -5 -5 -5 -5 -5 0 20 81 108 44 6 -3 -5 -5 -5 -5 -5 -5 -5 -5 -5 -5 -5 -5 -5 -5 -5 -5 -5 -5 -5 -5 -1 19 85 95 26 0 -4 -5 -5 -5 -5 -5 -5 -5 -5 -5 -5 -5 -5 -5 -5 0 20 81 107 42 5 -4 -5 -5 -5 -5 -5 -5 -5 -5 -5 -5 -5 -2 15 73 109 43 5 -4 -5 -5 -5 -5 -5 -4 0 22 81 112 77 102 
89 21 -1 -5 -5 -5 -5 -5 -5 -5 -5 -5 -5 -2 14 72 109 43 5 -4 -5 -5 -5 -5 -3 6 44 108 81 20 0 -5 -5 -5 -5 -5 -5 -5 -5 -5 -5 -5 -5 -5 -5 -5 -5 -5 -5 -5 -5 -5 -2 14 72 109 43 5 -4 -5 -5 -5 -5 -5 -5 -5 -5 -5 -5 -5 -5 -5 -4 5 42 107 81 20 0 -5 -5 -5 -5 -5 -5 -5 -5 -5 -5 -5 -5 -1 20 86 94 26 0 -4 -5 -5 -5 -5 -5 -2 11 52 109 84 48 93 
88 21 -1 -5 -5 -5 -5 -5 -5 -5 -5 -5 -5 -4 5 43 109 72 14 -2 -5 -5 -5 -4 0 22 81 108 44 5 -3 -5 -5 -5 -5 -5 -5 -5 -5 -5 -5 -5 -5 -5 -5 -5 -5 -5 -5 -5 -5 -5 -4 5 43 109 73 15 -1 -4 -5 -5 -5 -5 -5 -5 -5 -5 -5 -5 -5 -5 -2 15 74 109 45 6 -3 -5 -5 -5 -5 -5 -5 -5 -5 -5 -5 -5 -4 0 26 94 86 20 -1 -5 -5 -5 -5 -5 -3 5 39 101 102 44 31 90 
88 21 -1 -5 -5 -5 -5 -5 -5 -5 -5 -5 -5 -4 0 26 95 85 19 -1 -5 -5 -5 -2 11 53 109 80 20 0 -5 -5 -5 -5 -5 -5 -5 -5 -5 -5 -5 -5 -5 -5 -5 -5 -5 -5 -5 -5 -5 -5 -4 0 28 97 88 24 3 0 -1 -2 -4 -4 -5 -5 -5 -5 -5 -5 -5 -4 0 25 92 92 25 0 -4 -5 -5 -5 -5 -5 -5 -5 -5 -5 -5 -5 -4 5 43 109 73 15 -2 -5 -5 -5 -5 -4 0 22 80 109 53 15 24 89 
88 21 -1 -5 -5 -5 -5 -5 -5 -5 -5 -5 -5 -5 0 22 89 89 22 0 -5 -5 -3 5 39 101 101 39 5 -3 -5 -5 -5 -5 -5 -5 -5 -5 -5 -5 -5 -5 -5 -5 -5 -5 -5 -5 -5 -5 -5 -5 -3 3 31 102 105 45 25 21 19 14 5 0 0 -1 -1 -1 -2 -4 -4 -3 6 45 109 74 15 -2 -5 -5 -5 -5 -5 -5 -5 -5 -5 -5 -5 -5 -2 15 73 109 43 5 -4 -5 -5 -5 -5 -2 11 52 109 80 23 4 22 89 
88 21 -1 -5 -5 -5 -5 -5 -5 -5 -5 -5 -5 -5 -1 19 85 95 26 0 -4 -4 0 20 80 109 53 11 -2 -5 -5 -5 -5 -5 -5 -5 -5 -5 -5 -5 -5 -5 -5 -5 -5 -5 -5 -5 -5 -5 -4 -2 5 23 61 132 142 105 91 88 85 72 43 26 22 21 21 19 14 5 1 3 24 82 108 42 5 -4 -5 -5 -5 -5 -5 -5 -5 -5 -5 -5 -5 -5 -1 20 86 94 26 0 -4 -5 -5 -5 -3 5 39 101 101 39 5 0 21 88 
88 21 -1 -5 -5 -5 -5 -5 -5 -5 -5 -5 -5 -5 -2 14 72 109 43 5 -3 -3 5 44 108 81 22 0 -4 -5 -5 -5 -5 -5 -5 -5 -5 -5 -5 -5 -5 -5 -5 -5 -5 -5 -5 -5 -5 -3 0 11 39 81 113 121 104 92 89 90 95 109 109 95 90 89 88 85 72 43 28 31 61 114 82 20 0 -5 -5 -5 -5 -5 -5 -5 -5 -5 -5 -5 -5 -4 0 26 94 86 20 -1 -5 -5 -5 -4 0 22 80 109 52 11 -1 0 21 88 
88 21 -1 -5 -5 -5 -5 -5 -5 -5 -5 -5 -5 -5 -4 5 43 109 72 15 -1 0 20 81 108 44 6 -3 -5 -5 -5 -5 -5 -5 -5 -5 -5 -5 -5 -5 -5 -5 -5 -5 -5 -5 -5 -4 -2 5 22 52 101 109 82 46 27 22 21 22 26 43 72 85 88 89 90 95 109 109 97 102 132 129 51 7 -3 -5 -5 -5 -5 -5 -5 -5 -5 -5 -5 -5 -5 -4 5 43 109 73 15 -2 -5 -5 -5 -2 11 52 109 80 22 0 -4 -1 21 88 
88 21 -1 -5 -5 -5 -5 -5 -5 -5 -5 -5 -5 -5 -4 0 26 95 85 20 0 6 44 108 81 20 0 -5 -5 -5 -5 -5 -5 -5 -5 -5 -5 -5 -5 -5 -5 -5 -5 -5 -5 -5 -3 0 11 39 80 109 101 53 22 6 0 0 -1 0 0 5 14 19 21 21 22 26 43 73 87 100 131 129 52 8 -3 -5 -5 -5 -5 -5 -5 -5 -5 -5 -5 -5 -5 -2 15 73 109 43 5 -4 -5 -5 -3 5 39 101 101 39 5 -3 -4 -1 21 88 
88 21 -1 -5 -5 -5 -5 -5 -5 -5 -5 -5 -5 -5 -5 0 22 89 89 22 4 23 81 108 44 5 -3 -5 -5 -5 -5 -5 -5 -5 -5 -5 -5 -5 -5 -5 -5 -5 -5 -5 -5 -2 5 22 52 101 109 80 39 11 0 -3 -4 -5 -5 -5 -4 -4 -2 -1 -1 -1 0 0 5 15 21 29 61 114 83 23 0 -4 -5 -5 -5 -5 -5 -5 -5 -5 -5 -5 -5 -1 20 86 94 26 0 -4 -5 -4 0 22 80 109 52 11 -2 -5 -5 -1 21 88 
88 21 -1 -5 -5 -5 -5 -5 -5 -5 -5 -5 -5 -5 -5 -1 19 85 95 30 17 53 109 80 20 0 -5 -5 -5 -5 -5 -5 -5 -5 -5 -5 -5 -5 -5 -5 -5 -5 -5 -4 -1 10 39 80 109 101 52 22 5 -2 -4 -5 -5 -5 -5 -5 -5 -5 -5 -5 -5 -5 -5 -4 -4 -2 0 3 23 81 110 54 13 0 -3 -4 -5 -5 -5 -5 -5 -5 -5 -5 -4 0 27 95 86 20 -1 -5 -5 -2 11 52 109 80 22 0 -4 -5 -5 -1 21 88 
88 21 -1 -5 -5 -5 -5 -5 -5 -5 -5 -5 -5 -5 -5 -2 14 73 110 53 50 102 101 39 5 -3 -5 -5 -5 -5 -5 -5 -5 -5 -5 -5 -5 -5 -5 -5 -5 -5 -3 0 12 48 101 109 80 39 11 0 -3 -5 -5 -5 -5 -5 -5 -5 -5 -5 -5 -5 -5 -5 -5 -5 -5 -5 -4 -3 5 39 102 106 55 23 6 0 0 -1 -1 -1 -1 -1 -1 0 0 9 46 111 74 15 -2 -4 -3 5 39 101 101 39 5 -3 -5 -5 -5 -1 21 88 
88 21 -1 -5 -5 -5 -5 -5 -5 -5 -5 -5 -5 -5 -5 -4 5 43 111 95 97 111 53 11 -2 -5 -5 -5 -5 -5 -5 -5 -5 -5 -5 -5 -5 -5 -5 -5 -4 -2 5 22 53 103 103 53 22 5 -2 -4 -5 -5 -5 -5 -5 -5 -5 -5 -5 -5 -5 -5 -5 -5 -5 -5 -5 -5 -5 -5 -2 11 55 123 127 85 45 27 22 21 21 21 21 21 21 21 24 39 91 121 52 9 -2 -3 0 22 80 109 52 11 -2 -5 -5 -5 -5 -1 21 88 
88 21 -1 -5 -5 -5 -5 -5 -5 -5 -5 -5 -5 -5 -5 -4 0 26 98 123 124 82 22 0 -4 -5 -5 -5 -5 -5 -5 -5 -5 -5 -5 -5 -5 -5 -5 -3 0 11 39 80 109 101 48 12 0 -3 -5 -5 -5 -5 -5 -5 -5 -5 -5 -5 -5 -5 -5 -5 -5 -5 -5 -5 -5 -5 -5 -5 -4 1 30 106 146 124 111 95 90 89 88 88 88 88 88 89 91 103 139 137 66 25 7 2 12 53 109 80 22 0 -4 -5 -5 -5 -5 -1 21 88 
88 21 -1 -5 -5 -5 -5 -5 -5 -5 -5 -5 -5 -5 -5 -5 0 22 95 148 117 44 6 -3 -5 -5 -5 -5 -5 -5 -5 -5 -5 -5 -5 -5 -5 -4 -2 5 22 52 101 109 80 39 10 -1 -4 -5 -5 -5 -5 -5 -5 -5 -5 -5 -5 -5 -5 -5 -5 -5 -5 -5 -5 -5 -5 -5 -5 -5 -4 0 28 99 106 66 76 85 88 88 88 88 88 88 88 88 89 92 104 122 113 82 45 30 48 103 102 39 5 -3 -5 -5 -5 -5 -5 -1 21 88 
88 21 -1 -5 -5 -5 -5 -5 -5 -5 -5 -5 -5 -5 -5 -5 -1 21 96 153 85 20 0 -5 -5 -5 -5 -5 -5 -5 -5 -5 -5 -5 -5 -5 -3 0 11 39 80 109 101 53 22 5 -2 -5 -5 -5 -5 -5 -5 -5 -5 -5 -5 -5 -5 -5 -5 -5 -5 -5 -5 -5 -5 -5 -5 -5 -5 -5 -4 5 43 110 77 25 18 20 21 21 21 21 21 21 21 21 21 22 27 46 81 108 110 97 109 118 55 11 -2 -5 -5 -5 -5 -5 -5 -1 21 88 
88 21 -1 -5 -5 -5 -5 -5 -5 -5 -5 -5 -5 -5 -5 -5 -1 21 93 125 46 6 -3 -5 -5 -5 -5 -5 -5 -5 -5 -5 -5 -5 -4 -2 5 22 53 102 110 81 40 11 0 -3 -5 -5 -5 -5 -5 -5 -5 -5 -5 -5 -5 -5 -5 -5 -5 -5 -5 -5 -5 -5 -5 -5 -5 -5 -5 -5 -2 14 72 109 44 6 0 -1 -1 -1 -1 -1 -1 -1 -1 -1 -1 0 0 6 20 44 82 118 152 114 36 3 -4 -5 -5 -5 -5 -5 -5 -1 21 88 
88 21 -1 -5 -5 -5 -5 -5 -5 -5 -5 -5 -5 -5 -5 -5 -1 21 90 98 27 0 -4 -5 -5 -5 -5 -5 -5 -5 -5 -5 -4 -1 1 11 40 84 117 109 58 27 9 0 -3 -4 -5 -5 -5 -5 -5 -5 -5 -5 -5 -5 -5 -5 -5 -5 -5 -5 -5 -5 -5 -5 -5 -5 -5 -5 -5 -5 -1 19 85 95 27 0 -4 -5 -5 -5 -5 -5 -5 -5 -5 -5 -5 -5 -4 -3 0 6 22 55 116 122 56 11 -2 -5 -5 -5 -5 -5 -5 -1 21 88 
88 21 -1 -5 -5 -5 -5 -5 -5 -5 -5 -5 -5 -5 -5 -5 0 22 90 90 22 0 -5 -5 -5 -5 -5 -5 -5 -5 -3 0 5 16 27 55 112 152 139 85 43 27 21 15 5 0 -1 -2 -4 -4 -5 -5 -5 -5 -5 -5 -5 -5 -5 -5 -5 -5 -5 -5 -5 -5 -5 -5 -5 -5 -5 -5 -1 21 88 90 22 0 -5 -5 -5 -5 -5 -5 -5 -5 -5 -5 -5 -5 -5 -5 -5 -3 0 12 50 105 102 39 5 -3 -5 -5 -5 -5 -5 -1 21 88 
88 21 -1 -5 -5 -5 -5 -5 -5 -5 -5 -5 -5 -5 -5 -4 0 26 95 85 19 -1 -5 -5 -5 -5 -5 -4 -3 0 5 20 42 74 93 113 120 112 120 116 97 90 85 73 43 26 20 15 5 0 0 -1 -2 -4 -4 -5 -5 -5 -5 -5 -5 -5 -5 -5 -5 -5 -5 -5 -5 -5 -5 -5 0 22 90 88 21 -1 -5 -5 -5 -5 -5 -5 -5 -5 -5 -5 -5 -5 -5 -5 -5 -5 -4 -1 12 53 109 80 22 0 -4 -5 -5 -5 -5 -1 21 88 
88 21 -1 -5 -5 -5 -5 -5 -5 -5 -5 -5 -5 -5 -5 -4 5 43 109 72 14 -2 -5 -5 -5 -4 -2 0 6 20 44 81 107 109 92 74 45 32 44 73 85 89 95 109 109 94 86 73 43 26 22 19 14 5 0 -1 -2 -4 -4 -5 -5 -5 -5 -5 -5 -5 -5 -5 -5 -5 -5 -4 0 26 95 85 19 -1 -5 -5 -5 -5 -5 -5 -5 -5 -5 -5 -5 -5 -5 -5 -5 -5 -5 -4 0 22 80 109 52 11 -2 -5 -5 -5 -5 -1 21 88 
88 21 -1 -5 -5 -5 -5 -5 -5 -5 -5 -5 -5 -5 -5 -2 14 72 109 43 5 -3 -4 -3 0 5 15 25 45 81 108 108 81 45 25 15 5 1 5 14 19 22 26 43 73 86 94 109 109 95 89 85 72 43 26 20 15 5 0 0 -1 -2 -4 -4 -5 -5 -5 -5 -5 -5 -5 -4 5 43 109 72 14 -2 -5 -5 -5 -5 -5 -5 -5 -5 -5 -5 -5 -5 -5 -5 -5 -5 -5 -5 -3 5 39 101 101 39 5 -3 -5 -5 -5 -1 21 88 
88 21 -1 -5 -5 -5 -5 -5 -5 -5 -5 -5 -5 -5 -5 -1 19 85 95 27 1 -3 0 5 20 42 74 92 109 107 81 44 20 6 0 -2 -4 -4 -4 -2 -1 0 0 5 15 20 26 43 72 85 89 95 109 109 94 86 73 43 26 22 19 14 5 0 -1 -2 -4 -4 -5 -5 -4 -2 15 72 109 43 5 -4 -5 -5 -5 -5 -5 -5 -5 -5 -5 -5 -5 -5 -5 -5 -5 -5 -5 -5 -5 -2 11 52 109 80 22 0 -4 -5 -5 -1 21 88 
88 21 -1 -5 -5 -5 -5 -5 -5 -5 -5 -5 -5 -5 -5 0 22 89 90 23 4 6 20 44 81 107 109 92 74 42 20 5 0 -3 -4 -5 -5 -5 -5 -5 -5 -5 -4 -4 -2 -1 0 5 14 19 22 26 43 73 86 94 109 109 95 89 85 72 43 26 20 15 5 0 0 -1 -1 0 20 85 95 26 0 -4 -5 -5 -5 -5 -5 -5 -5 -5 -5 -5 -5 -5 -5 -5 -5 -5 -5 -5 -5 -4 0 22 80 109 53 12 -1 -4 -5 -1 21 88 
88 21 -1 -5 -5 -5 -5 -5 -5 -5 -5 -5 -5 -5 -4 0 27 96 90 31 25 44 81 108 108 81 45 25 15 5 0 -3 -5 -5 -5 -5 -5 -5 -5 -5 -5 -5 -5 -5 -5 -5 -4 -4 -2 -1 0 0 5 15 20 26 43 72 85 89 95 109 109 94 86 73 43 26 22 19 15 9 26 91 90 22 0 -5 -5 -5 -5 -5 -5 -5 -5 -5 -5 -5 -5 -5 -5 -5 -5 -5 -5 -5 -5 -5 -3 5 39 101 103 48 10 -2 -4 -1 21 88 
88 21 -1 -5 -5 -5 -5 -5 -5 -5 -5 -5 -5 -5 -3 6 46 118 99 64 84 108 108 81 44 20 6 0 -2 -4 -5 -5 -5 -5 -5 -5 -5 -5 -5 -5 -5 -5 -5 -5 -5 -5 -5 -5 -5 -5 -5 -4 -4 -2 -1 0 5 14 19 22 26 43 73 86 94 109 109 95 89 85 73 47 51 105 90 21 -1 -5 -5 -5 -5 -5 -5 -5 -5 -5 -5 -5 -5 -5 -5 -5 -5 -5 -5 -5 -5 -5 -5 -2 10 48 103 101 39 5 -3 0 21 88 
88 21 -1 -5 -5 -5 -5 -5 -5 -5 -5 -5 -5 -5 0 21 86 150 128 116 108 81 44 20 5 0 -3 -4 -5 -5 -5 -5 -5 -5 -5 -5 -5 -5 -5 -5 -5 -5 -5 -5 -5 -5 -5 -5 -5 -5 -5 -5 -5 -5 -5 -4 -4 -2 -1 0 0 5 15 20 26 43 72 85 89 95 109 112 112 142 94 21 -1 -5 -5 -5 -5 -5 -5 -5 -5 -5 -5 -5 -5 -5 -5 -5 -5 -5 -5 -5 -5 -5 -5 -5 -1 12 53 109 80 22 1 0 21 88 
88 21 -1 -5 -5 -5 -5 -5 -5 -5 -5 -5 -5 -3 6 44 117 130 98 75 42 20 5 0 -3 -5 -5 -5 -5 -5 -5 -5 -5 -5 -5 -5 -5 -5 -5 -5 -5 -5 -5 -5 -5 -5 -5 -5 -5 -5 -5 -5 -5 -5 -5 -5 -5 -5 -5 -5 -4 -4 -2 -1 0 5 14 19 22 26 44 76 103 141 94 21 -1 -5 -5 -5 -5 -5 -5 -5 -5 -5 -5 -5 -5 -5 -5 -5 -5 -5 -5 -5 -5 -5 -5 -5 -4 0 22 80 109 53 13 2 22 89 
88 21 -1 -5 -5 -5 -5 -5 -5 -5 -5 -5 -4 0 22 82 112 60 28 16 5 0 -3 -5 -5 -5 -5 -5 -5 -5 -5 -5 -5 -5 -5 -5 -5 -5 -5 -5 -5 -5 -5 -5 -5 -5 -5 -5 -5 -5 -5 -5 -5 -5 -5 -5 -5 -5 -5 -5 -5 -5 -5 -5 -4 -4 -2 -1 0 0 5 19 44 104 90 21 -1 -5 -5 -5 -5 -5 -5 -5 -5 -5 -5 -5 -5 -5 -5 -5 -5 -5 -5 -5 -5 -5 -5 -5 -5 -3 5 39 101 103 49 14 24 89 
88 21 -1 -5 -5 -5 -5 -5 -5 -5 -5 -5 -2 11 53 109 81 23 3 -1 -4 -5 -5 -5 -5 -5 -5 -5 -5 -5 -5 -5 -5 -5 -5 -5 -5 -5 -5 -5 -5 -5 -5 -5 -5 -5 -5 -5 -5 -5 -5 -5 -5 -5 -5 -5 -5 -5 -5 -5 -5 -5 -5 -5 -5 -5 -5 -5 -5 -4 -3 2 25 91 89 21 -1 -5 -5 -5 -5 -5 -5 -5 -5 -5 -5 -5 -5 -5 -5 -5 -5 -5 -5 -5 -5 -5 -5 -5 -5 -5 -2 10 48 103 101 43 31 90 
89 21 -1 -5 -5 -5 -5 -5 -5 -5 -5 -3 5 39 101 101 39 5 -3 -5 -5 -5 -5 -5 -5 -5 -5 -5 -5 -5 -5 -5 -5 -5 -5 -5 -5 -5 -5 -5 -5 -5 -5 -5 -5 -5 -5 -5 -5 -5 -5 -5 -5 -5 -5 -5 -5 -5 -5 -5 -5 -5 -5 -5 -5 -5 -5 -5 -5 -5 -4 0 21 89 89 21 -1 -5 -5 -5 -5 -5 -5 -5 -5 -5 -5 -5 -5 -5 -5 -5 -5 -5 -5 -5 -5 -5 -5 -5 -5 -5 -5 -1 12 53 109 84 48 93 
89 21 -1 -5 -5 -5 -5 -5 -5 -5 -4 0 22 80 109 53 11 -2 -5 -5 -5 -5 -5 -5 -5 -5 -5 -5 -5 -5 -5 -5 -5 -5 -5 -5 -5 -5 -5 -5 -5 -5 -5 -5 -5 -5 -5 -5 -5 -5 -5 -5 -5 -5 -5 -5 -5 -5 -5 -5 -5 -5 -5 -5 -5 -5 -5 -5 -5 -5 -5 -1 21 88 90 22 0 -5 -5 -5 -5 -5 -5 -5 -5 -5 -5 -5 -5 -5 -5 -5 -5 -5 -5 -5 -5 -5 -5 -5 -5 -5 -5 -4 0 22 81 112 77 102 
91 21 -1 -5 -5 -5 -5 -5 -5 -4 -1 12 53 109 81 22 0 -4 -5 -5 -5 -5 -5 -5 -5 -5 -5 -5 -5 -5 -5 -5 -5 -5 -5 -5 -5 -5 -5 -5 -5 -5 -5 -5 -5 -5 -5 -5 -5 -5 -5 -5 -5 -5 -5 -5 -5 -5 -5 -5 -5 -5 -5 -5 -5 -5 -5 -5 -5 -5 -4 0 21 88 97 29 1 -4 -5 -5 -5 -5 -5 -5 -5 -5 -5 -5 -5 -5 -5 -5 -5 -5 -5 -5 -5 -5 -5 -5 -5 -5 -5 -5 -3 5 39 103 120 123 
94 21 -1 -5 -5 -5 -5 -5 -4 -1 12 49 105 104 43 9 0 -3 -4 -5 -5 -5 -5 -5 -5 -5 -5 -5 -5 -5 -5 -5 -5 -5 -5 -5 -5 -5 -5 -5 -5 -5 -5 -5 -5 -5 -5 -5 -5 -5 -5 -5 -5 -5 -5 -5 -5 -5 -5 -5 -5 -5 -5 -5 -5 -5 -5 -5 -5 -5 -3 2 25 89 120 56 14 0 -3 -5 -5 -5 -5 -5 -5 -5 -5 -5 -5 -5 -5 -5 -5 -5 -5 -5 -5 -5 -5 -5 -5 -5 -5 -5 -5 -2 11 53 119 148 
95 21 -1 -5 -5 -5 -5 -4 -1 12 50 110 121 73 36 22 15 5 0 0 -1 -1 -1 -1 -1 -1 -1 -1 -2 -4 -4 -5 -5 -5 -5 -5 -5 -5 -5 -5 -5 -5 -5 -5 -5 -5 -5 -5 -5 -5 -5 -5 -5 -5 -5 -5 -5 -5 -5 -5 -5 -5 -5 -5 -5 -5 -5 -5 -4 -2 5 21 51 108 152 117 55 22 6 0 -3 -5 -5 -5 -5 -5 -5 -5 -5 -5 -5 -5 -5 -5 -5 -5 -5 -5 -5 -5 -5 -5 -5 -5 -5 -4 0 22 86 153 
93 21 -1 -5 -5 -5 -4 -1 12 50 115 153 129 102 91 85 73 43 26 22 21 21 21 21 21 21 21 19 14 5 0 0 -1 -1 -1 -1 -1 -1 -1 -2 -4 -4 -5 -5 -5 -5 -5 -5 -5 -5 -5 -5 -5 -5 -5 -5 -5 -5 -5 -5 -5 -5 -5 -5 -5 -5 -5 -3 0 11 39 80 109 116 113 120 112 82 44 20 5 -2 -4 -5 -5 -5 -5 -5 -5 -5 -5 -5 -5 -5 -5 -5 -5 -5 -5 -5 -5 -5 -5 -5 -5 -5 -3 6 46 125 
90 21 -1 -5 -5 -4 -1 12 49 105 121 105 94 90 90 95 109 109 95 90 89 88 88 88 88 88 88 85 72 43 26 22 21 21 21 21 21 21 19 14 5 0 0 -1 -1 -1 -1 -1 -1 -1 -1 -2 -4 -4 -5 -5 -5 -5 -5 -5 -5 -5 -5 -5 -5 -3 0 6 22 53 101 109 82 46 33 46 81 108 108 80 39 11 0 -3 -5 -5 -5 -5 -5 -5 -5 -5 -5 -5 -5 -5 -5 -5 -5 -5 -5 -5 -5 -5 -5 -5 -4 0 27 98 
89 21 -1 -4 -4 -1 12 49 103 104 55 29 22 21 22 26 43 72 85 88 88 88 88 88 88 89 90 95 109 109 95 90 89 88 88 88 88 88 85 72 43 26 22 21 21 21 21 21 21 21 19 14 5 0 0 -1 -1 -1 -1 -1 -1 -1 -2 -3 -2 5 20 44 81 109 101 53 22 6 2 6 21 44 81 109 101 53 22 6 0 -3 -5 -5 -5 -5 -5 -5 -5 -5 -5 -5 -5 -5 -5 -5 -5 -5 -5 -5 -5 -5 -5 0 22 90 
88 21 0 -3 0 12 49 103 103 49 13 1 0 -1 0 0 5 14 19 21 21 21 21 21 21 21 22 26 43 72 85 88 88 88 88 88 89 90 95 109 109 95 90 89 88 88 88 88 88 88 85 72 43 26 22 21 21 21 21 21 21 19 15 7 12 40 80 108 108 80 39 11 0 -3 -4 -3 0 6 22 53 101 109 81 44 20 5 -2 -4 -5 -5 -5 -5 -5 -5 -5 -5 -5 -5 -5 -5 -5 -5 -5 -5 -5 -5 -5 -1 21 89 
89 22 2 5 22 53 103 103 49 12 -1 -4 -5 -5 -5 -4 -4 -2 -1 -1 -1 -1 -1 -1 -1 -1 0 0 5 14 19 21 21 21 21 21 21 22 26 43 72 85 88 88 88 88 88 88 89 90 95 109 109 95 90 89 88 88 88 88 88 85 74 51 60 103 109 81 44 20 5 -2 -4 -5 -5 -5 -5 -3 0 11 39 80 108 108 80 39 11 0 -3 -5 -5 -5 -5 -5 -5 -5 -5 -5 -5 -5 -5 -5 -5 -5 -5 -5 -5 -1 21 88 
89 25 14 40 80 109 101 48 11 -1 -4 -5 -5 -5 -5 -5 -5 -5 -5 -5 -5 -5 -5 -5 -5 -5 -5 -4 -4 -2 -1 -1 -1 -1 -1 -1 -1 0 0 5 14 19 21 21 21 21 21 21 21 22 26 43 72 85 88 88 88 88 88 89 90 96 115 129 130 107 54 22 6 0 -3 -5 -5 -5 -5 -5 -5 -5 -4 -2 5 20 44 81 109 101 53 22 6 0 -3 -5 -5 -5 -5 -5 -5 -5 -5 -5 -5 -5 -5 -5 -5 -5 -5 -1 21 88 
92 38 52 101 109 80 39 10 -1 -4 -5 -5 -5 -5 -5 -5 -5 -5 -5 -5 -5 -5 -5 -5 -5 -5 -5 -5 -5 -5 -5 -5 -5 -5 -5 -5 -5 -5 -4 -4 -2 -1 -1 -1 -1 -1 -1 -1 -1 0 0 5 14 19 21 21 21 21 21 21 22 30 62 132 131 56 14 0 -3 -5 -5 -5 -5 -5 -5 -5 -5 -5 -5 -5 -3 0 6 22 53 101 109 81 44 20 5 -2 -4 -5 -5 -5 -5 -5 -5 -5 -5 -5 -5 -5 -5 -5 -5 -1 21 89 
103 74 106 103 53 22 5 -2 -5 -5 -5 -5 -5 -5 -5 -5 -5 -5 -5 -5 -5 -5 -5 -5 -5 -5 -5 -5 -5 -5 -5 -5 -5 -5 -5 -5 -5 -5 -5 -5 -5 -5 -5 -5 -5 -5 -5 -5 -5 -5 -4 -4 -2 -1 -1 -1 -1 -1 -1 -1 0 4 30 101 101 29 1 -4 -5 -5 -5 -5 -5 -5 -5 -5 -5 -5 -5 -5 -5 -5 -3 0 11 39 80 108 108 80 39 11 0 -3 -5 -5 -5 -5 -5 -5 -5 -5 -5 -5 -5 -5 -5 -1 21 89 
129 122 104 49 12 0 -3 -5 -5 -5 -5 -5 -5 -5 -5 -5 -5 -5 -5 -5 -5 -5 -5 -5 -5 -5 -5 -5 -5 -5 -5 -5 -5 -5 -5 -5 -5 -5 -5 -5 -5 -5 -5 -5 -5 -5 -5 -5 -5 -5 -5 -5 -5 -5 -5 -5 -5 -5 -5 -5 -4 0 22 91 91 22 0 -5 -5 -5 -5 -5 -5 -5 -5 -5 -5 -5 -5 -5 -5 -5 -5 -4 -2 5 20 44 81 109 101 53 22 6 0 -3 -5 -5 -5 -5 -5 -5 -5 -5 -5 -5 -5 -1 21 92 
154 112 49 12 -1 -4 -5 -5 -5 -5 -5 -5 -5 -5 -5 -5 -5 -5 -5 -5 -5 -5 -5 -5 -5 -5 -5 -5 -5 -5 -5 -5 -5 -5 -5 -5 -5 -5 -5 -5 -5 -5 -5 -5 -5 -5 -5 -5 -5 -5 -5 -5 -5 -5 -5 -5 -5 -5 -5 -5 -5 -1 21 89 89 21 -1 -5 -5 -5 -5 -5 -5 -5 -5 -5 -5 -5 -5 -5 -5 -5 -5 -5 -5 -3 0 6 22 53 101 109 81 44 20 5 0 -3 -5 -5 -5 -5 -5 -5 -5 -5 -5 -1 21 95 
128 56 13 -1 -4 -5 -5 -5 -5 -5 -5 -5 -5 -5 -5 -5 -5 -5 -5 -5 -5 -5 -5 -5 -5 -5 -5 -5 -5 -5 -5 -5 -5 -5 -5 -5 -5 -5 -5 -5 -5 -5 -5 -5 -5 -5 -5 -5 -5 -5 -5 -5 -5 -5 -5 -5 -5 -5 -5 -5 -5 -1 21 88 88 21 -1 -5 -5 -5 -5 -5 -5 -5 -5 -5 -5 -5 -5 -5 -5 -5 -5 -5 -5 -5 -5 -3 0 11 39 80 108 108 81 44 20 5 -2 -4 -5 -5 -5 -5 -5 -5 -5 -1 21 93 
99 29 1 -4 -5 -5 -5 -5 -5 -5 -5 -5 -5 -5 -5 -5 -5 -5 -5 -5 -5 -5 -5 -5 -5 -5 -5 -5 -5 -5 -5 -5 -5 -5 -5 -5 -5 -5 -5 -5 -5 -5 -5 -5 -5 -5 -5 -5 -5 -5 -5 -5 -5 -5 -5 -5 -5 -5 -5 -5 -5 -1 21 88 88 21 -1 -5 -5 -5 -5 -5 -5 -5 -5 -5 -5 -5 -5 -5 -5 -5 -5 -5 -5 -5 -5 -5 -4 -2 5 20 44 81 108 108 80 39 11 0 -3 -4 -5 -5 -5 -5 -5 -1 21 90 
90 22 0 -5 -5 -5 -5 -5 -5 -5 -5 -5 -5 -5 -5 -5 -5 -5 -5 -5 -5 -5 -5 -5 -5 -5 -5 -5 -5 -5 -5 -5 -5 -5 -5 -5 -5 -5 -5 -5 -5 -5 -5 -5 -5 -5 -5 -5 -5 -5 -5 -5 -5 -5 -5 -5 -5 -5 -5 -5 -5 -1 21 88 88 21 -1 -5 -5 -5 -5 -5 -5 -5 -5 -5 -5 -5 -5 -5 -5 -5 -5 -5 -5 -5 -5 -5 -5 -5 -3 0 5 20 44 81 109 101 53 22 6 0 -1 -2 -4 -4 -4 0 21 89 
89 21 -1 -5 -5 -5 -5 -5 -5 -5 -5 -5 -5 -5 -5 -5 -5 -5 -5 -5 -5 -5 -5 -5 -5 -5 -5 -5 -5 -5 -5 -5 -5 -5 -5 -5 -5 -5 -5 -5 -5 -5 -5 -5 -5 -5 -5 -5 -5 -5 -5 -5 -5 -5 -5 -5 -5 -5 -5 -5 -5 -1 21 88 88 21 -1 -5 -5 -5 -5 -5 -5 -5 -5 -5 -5 -5 -5 -5 -5 -5 -5 -5 -5 -5 -5 -5 -5 -5 -5 -5 -3 0 6 23 54 105 113 85 46 27 20 15 5 0 0 2 22 89 
89 21 -1 -5 -5 -5 -5 -5 -5 -5 -5 -5 -5 -5 -5 -5 -5 -5 -5 -5 -5 -5 -5 -5 -5 -5 -5 -5 -5 -5 -5 -5 -5 -5 -5 -5 -5 -5 -5 -5 -5 -5 -5 -5 -5 -5 -5 -5 -5 -5 -5 -5 -5 -5 -5 -5 -5 -5 -5 -5 -5 -1 21 88 88 21 -1 -5 -5 -5 -5 -5 -5 -5 -5 -5 -5 -5 -5 -5 -5 -5 -5 -5 -5 -5 -5 -5 -5 -5 -5 -5 -4 -3 0 6 22 64 119 150 126 98 87 73 43 26 21 19 31 92 
91 21 0 -4 -5 -5 -5 -5 -5 -5 -5 -5 -5 -5 -5 -5 -5 -5 -5 -5 -5 -5 -5 -5 -5 -5 -5 -5 -5 -5 -5 -5 -5 -5 -5 -5 -5 -5 -5 -5 -5 -5 -5 -5 -5 -5 -5 -5 -5 -5 -5 -5 -5 -5 -5 -5 -5 -5 -5 -5 -5 -1 21 88 88 21 -1 -5 -5 -5 -5 -5 -5 -5 -5 -5 -5 -5 -5 -5 -5 -5 -5 -5 -5 -5 -5 -5 -5 -5 -4 -3 0 5 16 26 48 90 125 125 103 93 95 109 109 94 86 76 67 109 
98 25 3 0 -1 -1 -1 -1 -2 -4 -4 -5 -5 -5 -5 -5 -5 -5 -5 -5 -5 -5 -5 -5 -5 -5 -5 -5 -5 -5 -5 -5 -5 -5 -5 -5 -5 -5 -5 -5 -5 -5 -5 -5 -5 -5 -5 -5 -5 -5 -5 -5 -5 -5 -5 -5 -5 -5 -5 -5 -5 -1 21 88 88 21 -1 -5 -5 -5 -5 -5 -5 -5 -5 -5 -5 -5 -5 -5 -5 -5 -5 -5 -5 -5 -5 -5 -4 -2 0 6 20 42 74 92 109 108 82 46 27 23 27 43 73 86 95 111 125 146 
111 46 25 21 21 21 21 19 14 5 0 0 -1 -1 -1 -1 -2 -4 -4 -5 -5 -5 -5 -5 -5 -5 -5 -5 -5 -5 -5 -5 -5 -5 -5 -5 -5 -5 -5 -5 -5 -5 -5 -5 -5 -5 -5 -5 -5 -5 -5 -5 -5 -5 -5 -5 -5 -5 -5 -5 -5 -1 21 88 88 21 -1 -5 -5 -5 -5 -5 -5 -5 -5 -5 -5 -5 -5 -5 -5 -5 -5 -5 -5 -4 -3 0 5 15 25 45 81 107 109 92 74 42 20 6 0 0 0 5 15 20 27 46 91 141 
144 106 92 89 88 88 88 85 72 43 26 22 21 21 21 19 14 5 0 0 -1 -1 -1 -1 -1 -2 -4 -4 -5 -5 -5 -5 -5 -5 -5 -5 -5 -5 -5 -5 -5 -5 -5 -5 -5 -5 -5 -5 -5 -5 -5 -5 -5 -5 -5 -5 -5 -5 -5 -5 -5 -1 21 88 88 21 -1 -5 -5 -5 -5 -5 -5 -5 -5 -5 -5 -5 -5 -5 -5 -5 -5 -4 -2 0 6 20 42 74 92 109 107 81 45 25 15 5 0 -3 -4 -5 -4 -4 -2 -1 0 9 40 109 
142 106 92 89 88 89 90 95 109 109 95 90 89 88 88 85 72 43 26 22 21 21 21 21 19 14 5 0 0 -1 -1 -1 -1 -2 -4 -4 -5 -5 -5 -5 -5 -5 -5 -5 -5 -5 -5 -5 -5 -5 -5 -5 -5 -5 -5 -5 -5 -5 -5 -5 -5 -1 21 88 88 21 -1 -5 -5 -5 -5 -5 -5 -5 -5 -5 -5 -5 -5 -5 -5 -3 0 5 15 25 45 81 107 109 92 74 42 20 6 0 -2 -4 -5 -5 -5 -5 -5 -5 -5 -5 -4 0 24 97 
104 46 25 21 21 21 22 26 43 72 85 88 88 89 90 95 109 109 95 90 89 88 88 88 85 72 43 26 22 21 21 21 19 14 5 0 0 -1 -1 -1 -1 -1 -2 -4 -4 -5 -5 -5 -5 -5 -5 -5 -5 -5 -5 -5 -5 -5 -5 -5 -5 -1 21 88 88 21 -1 -5 -5 -5 -5 -5 -5 -5 -5 -5 -5 -5 -4 -3 0 5 20 42 74 92 109 107 81 45 25 15 5 0 -3 -4 -5 -5 -5 -5 -5 -5 -5 -5 -5 -5 -5 0 21 91 
91 25 3 0 -1 -1 0 0 5 14 19 21 21 21 22 26 43 72 85 88 88 88 89 90 95 109 109 95 90 89 88 88 85 72 43 26 22 21 21 21 21 19 14 5 0 0 -1 -1 -1 -1 -2 -4 -4 -5 -5 -5 -5 -5 -5 -5 -4 -1 21 88 88 21 -1 -5 -5 -5 -5 -5 -5 -5 -5 -5 -4 -2 0 6 20 44 81 107 109 92 74 42 20 6 0 -2 -4 -5 -5 -5 -5 -5 -5 -5 -5 -5 -5 -5 -5 -5 -5 -1 21 89 
89 21 0 -4 -5 -5 -5 -4 -4 -2 -1 -1 -1 -1 0 0 5 14 19 21 21 21 21 22 26 43 72 85 88 88 89 90 95 109 109 95 90 89 88 88 88 85 72 43 26 22 21 21 21 19 14 5 0 0 -1 -1 -1 -1 -1 -2 -3 0 21 89 89 21 -1 -5 -5 -5 -5 -5 -5 -4 -3 0 5 15 25 45 81 108 108 81 45 25 15 5 0 -3 -4 -5 -5 -5 -5 -5 -5 -5 -5 -5 -5 -5 -5 -5 -5 -5 -5 -1 21 88 
88 21 -1 -5 -5 -5 -5 -5 -5 -5 -5 -5 -5 -5 -5 -4 -4 -2 -1 -1 -1 -1 -1 0 0 5 14 19 21 21 21 22 26 43 72 85 88 88 88 89 90 95 109 109 95 90 89 88 88 85 72 43 26 22 21 21 21 21 19 15 5 4 25 91 91 22 0 -5 -5 -5 -5 -4 -2 0 6 20 42 74 92 109 107 81 44 20 6 0 -2 -4 -5 -5 -5 -5 -5 -5 -5 -5 -5 -5 -5 -5 -5 -5 -5 -5 -5 -5 -5 -1 21 88 
88 21 -1 -5 -5 -5 -5 -5 -5 -5 -5 -5 -5 -5 -5 -5 -5 -5 -5 -5 -5 -5 -5 -5 -4 -4 -2 -1 -1 -1 -1 0 0 5 14 19 21 21 21 21 22 26 43 72 85 88 88 89 90 95 109 109 95 90 89 88 88 88 85 72 44 31 46 106 101 29 1 -4 -4 -3 0 5 15 25 45 81 107 109 92 74 42 20 5 0 -3 -4 -5 -5 -5 -5 -5 -5 -5 -5 -5 -5 -5 -5 -5 -5 -5 -5 -5 -5 -5 -5 -5 -1 21 88 
88 21 -1 -5 -5 -5 -5 -5 -5 -5 -5 -5 -5 -5 -5 -5 -5 -5 -5 -5 -5 -5 -5 -5 -5 -5 -5 -5 -5 -5 -5 -5 -4 -4 -2 -1 -1 -1 -1 -1 0 0 5 14 19 21 21 21 22 26 43 72 85 88 88 88 89 90 95 109 109 98 106 142 131 56 14 2 0 6 20 42 74 92 109 107 81 45 25 15 5 0 -3 -5 -5 -5 -5 -5 -5 -5 -5 -5 -5 -5 -5 -5 -5 -5 -5 -5 -5 -5 -5 -5 -5 -5 -5 -1 21 88 
88 21 -1 -5 -5 -5 -5 -5 -5 -5 -5 -5 -5 -5 -5 -5 -5 -5 -5 -5 -5 -5 -5 -5 -5 -5 -5 -5 -5 -5 -5 -5 -5 -5 -5 -5 -5 -5 -5 -5 -5 -4 -4 -2 -1 -1 -1 -1 0 0 5 14 19 21 21 21 21 22 26 43 72 85 91 105 123 107 56 30 28 45 81 107 109 92 74 42 20 6 0 -2 -4 -5 -5 -5 -5 -5 -5 -5 -5 -5 -5 -5 -5 -5 -5 -5 -5 -5 -5 -5 -5 -5 -5 -5 -5 -5 -5 -1 21 88 
88 21 -1 -5 -5 -5 -5 -5 -5 -5 -5 -5 -5 -5 -5 -5 -5 -5 -5 -5 -5 -5 -5 -5 -5 -5 -5 -5 -5 -5 -5 -5 -5 -5 -5 -5 -5 -5 -5 -5 -5 -5 -5 -5 -5 -5 -5 -5 -5 -4 -4 -2 -1 -1 -1 -1 -1 0 0 5 14 19 22 29 56 107 123 106 99 110 108 81 45 25 15 5 0 -3 -4 -5 -5 -5 -5 -5 -5 -5 -5 -5 -5 -5 -5 -5 -5 -5 -5 -5 -5 -5 -5 -5 -5 -5 -5 -5 -5 -5 -5 -1 21 88 
88 21 -1 -5 -5 -5 -5 -5 -5 -5 -5 -5 -5 -5 -5 -5 -5 -5 -5 -5 -5 -5 -5 -5 -5 -5 -5 -5 -5 -5 -5 -5 -5 -5 -5 -5 -5 -5 -5 -5 -5 -5 -5 -5 -5 -5 -5 -5 -5 -5 -5 -5 -5 -5 -5 -5 -5 -5 -4 -4 -2 -1 0 1 14 56 131 142 101 75 42 20 6 0 -2 -4 -5 -5 -5 -5 -5 -5 -5 -5 -5 -5 -5 -5 -5 -5 -5 -5 -5 -5 -5 -5 -5 -5 -5 -5 -5 -5 -5 -5 -5 -5 -5 -1 21 88 
88 21 -1 -5 -5 -5 -5 -5 -5 -5 -5 -5 -5 -5 -5 -5 -5 -5 -5 -5 -5 -5 -5 -5 -5 -5 -5 -5 -5 -5 -5 -5 -5 -5 -5 -5 -5 -5 -5 -5 -5 -5 -5 -5 -5 -5 -5 -5 -5 -5 -5 -5 -5 -5 -5 -5 -5 -5 -5 -5 -5 -5 -4 -4 1 29 101 106 44 19 5 0 -3 -4 -5 -5 -5 -5 -5 -5 -5 -5 -5 -5 -5 -5 -5 -5 -5 -5 -5 -5 -5 -5 -5 -5 -5 -5 -5 -5 -5 -5 -5 -5 -5 -5 -5 -1 21 88 
89 21 0 -4 -5 -5 -5 -5 -5 -5 -5 -5 -5 -5 -5 -5 -5 -5 -5 -5 -5 -5 -5 -5 -5 -5 -5 -5 -5 -5 -5 -5 -5 -5 -5 -5 -5 -5 -5 -5 -5 -5 -5 -5 -5 -5 -5 -5 -5 -5 -5 -5 -5 -5 -5 -5 -5 -5 -5 -5 -5 -5 -5 -4 0 23 91 92 25 2 -2 -4 -4 -5 -5 -5 -5 -5 -5 -5 -5 -5 -5 -5 -5 -5 -5 -5 -5 -5 -5 -5 -5 -5 -5 -5 -5 -5 -5 -5 -5 -5 -5 -5 -5 -5 -4 0 21 89 
92 25 3 0 -1 -1 -1 -1 -1 -1 -1 -1 -1 -1 -1 -1 -1 -1 -1 -1 -1 -1 -1 -1 -1 -1 -1 -1 -1 -1 -1 -1 -1 -1 -1 -1 -1 -1 -1 -1 -1 -1 -1 -1 -1 -1 -1 -1 -1 -1 -1 -1 -1 -1 -1 -1 -1 -1 -1 -1 -1 -1 -1 0 3 25 92 92 26 3 0 -1 -1 -1 -1 -1 -1 -1 -1 -1 -1 -1 -1 -1 -1 -1 -1 -1 -1 -1 -1 -1 -1 -1 -1 -1 -1 -1 -1 -1 -1 -1 -1 -1 -1 -1 0 3 25 92 
106 46 25 21 21 21 21 21 21 21 21 21 21 21 21 21 21 21 21 21 21 21 21 21 21 21 21 21 21 21 21 21 21 21 21 21 21 21 21 21 21 21 21 21 21 21 21 21 21 21 21 21 21 21 21 21 21 21 21 21 21 21 21 21 25 46 106 106 46 25 21 21 21 21 21 21 21 21 21 21 21 21 21 21 21 21 21 21 21 21 21 21 21 21 21 21 21 21 21 21 21 21 21 21 21 21 21 25 46 106 
149 106 92 89 88 88 88 88 88 88 88 88 88 88 88 88 88 88 88 88 88 88 88 88 88 88 88 88 88 88 89 89 92 95 93 90 89 88 88 88 88 88 88 88 88 88 88 89 90 94 94 90 89 88 88 88 88 88 88 88 88 88 88 89 91 104 141 141 104 91 89 88 88 88 88 88 88 88 88 88 88 88 88 88 88 88 88 88 88 89 89 92 95 94 90 89 88 88 88 88 88 89 89 91 95 94 90 92 106 149 
