P2
110 110
255
154 124 105 98 96 96 95 95 95 95 95 95 95 95 95 95 95 95 95 95 95 95 95 95 95 95 95 96 96 98 105 120 139 142 126 108 99 96 96 95 95 95 95 95 96 96 97 103 119 141 140 118 103 97 96 96 95 95 95 95 95 95 95 96 97 99 103 103 99 97 96 95 95 95 95 95 95 95 95 95 95 95 95 95 95 95 95 96 97 102 114 135 144 128 109 100 96 96 96 96 97 101 112 133 144 129 112 109 125 154 
124 83 56 46 44 43 43 43 43 43 43 43 43 43 43 43 43 43 43 43 43 43 43 43 43 43 43 44 46 52 68 101 130 119 84 58 48 44 43 43 43 43 43 43 43 44 47 57 86 126 124 82 56 46 44 43 43 43 43 43 43 43 43 43 43 43 43 43 43 43 43 43 43 43 43 43 43 43 43 43 43 43 43 43 43 43 43 44 47 58 85 123 126 90 61 48 44 43 43 44 46 54 76 116 129 95 65 61 84 125 
105 56 25 14 12 11 11 11 11 11 11 11 11 11 11 11 11 11 11 11 11 11 11 11 11 11 11 12 17 29 58 100 113 78 40 21 14 12 11 11 11 11 11 11 11 12 16 30 66 115 107 56 25 14 12 11 11 11 11 11 11 11 11 11 11 11 11 11 11 11 11 11 11 11 11 11 11 11 11 11 11 11 11 11 11 11 11 13 18 36 75 114 96 51 24 14 12 11 11 12 15 25 55 103 108 62 31 29 57 105 
98 46 14 4 1 0 0 0 0 0 0 0 0 0 0 0 0 0 0 0 0 0 0 0 0 0 1 4 13 35 76 108 89 45 17 5 1 0 0 0 0 0 0 0 1 2 9 28 73 122 102 46 14 3 1 0 0 0 0 0 0 0 0 0 0 0 0 0 0 0 0 0 0 0 0 0 0 0 0 0 0 0 0 0 0 0 1 3 12 38 85 108 69 27 8 2 0 0 0 1 5 19 55 103 94 44 17 18 47 98 
96 44 12 1 -1 -2 -2 -2 -2 -2 -2 -2 -2 -2 -2 -2 -2 -2 -2 -2 -2 -2 -2 -2 -2 -1 0 6 23 60 100 100 59 23 5 0 -1 -2 -2 -2 -2 -2 -2 -2 -1 2 13 42 95 136 103 43 11 1 -1 -2 -2 -2 -2 -2 -2 -2 -2 -2 -2 -2 -2 -2 -2 -2 -2 -2 -2 -2 -2 -2 -2 -2 -2 -2 -2 -2 -2 -2 -2 -1 -1 2 16 50 98 97 49 15 2 -1 -1 -2 -1 0 5 23 66 106 81 33 11 14 44 96 
96 43 11 0 -2 -2 -2 -2 -2 -2 -2 -2 -2 -2 -2 -2 -2 -2 -2 -2 -2 -2 -2 -2 -2 -1 2 15 44 88 106 73 32 9 0 -1 -2 -2 -2 -2 -2 -2 -2 -2 0 5 24 65 119 143 103 43 11 0 -2 -2 -2 -2 -2 -2 -2 -2 -2 -2 -2 -2 -2 -2 -2 -2 -2 -2 -2 -2 -2 -2 -2 -2 -2 -2 -2 -2 -2 -2 -2 -2 0 5 25 68 106 82 34 8 0 -2 -2 -2 -2 0 7 32 81 106 65 23 7 13 44 96 
95 43 11 0 -2 -2 -2 -2 -2 -2 -2 -2 -2 -2 -2 -2 -2 -2 -2 -2 -2 -2 -2 -2 -2 0 9 32 73 106 88 44 15 2 -1 -2 -2 -2 -2 -2 -2 -2 -2 -1 1 12 42 91 130 138 104 46 12 1 -2 -2 -2 -2 -2 -2 -2 -2 -2 -2 -2 -2 -2 -2 -2 -2 -2 -2 -2 -2 -2 -2 -2 -2 -2 -2 -2 -2 -2 -2 -2 -1 1 12 41 89 104 62 22 4 -1 -2 -2 -2 -2 0 11 41 92 100 51 16 5 12 43 95 
95 43 11 0 -2 -2 -2 -2 -2 -2 -2 -2 -2 -2 -2 -2 -2 -2 -2 -2 -2 -2 -2 -2 0 5 22 59 100 100 59 22 5 0 -2 -2 -2 -2 -2 -2 -2 -2 -2 0 6 25 65 110 121 124 107 53 16 2 -1 -2 -2 -2 -2 -2 -2 -2 -2 -2 -2 -2 -2 -2 -2 -2 -2 -2 -2 -2 -2 -2 -2 -2 -2 -2 -2 -2 -2 -2 -2 -1 4 21 62 104 89 41 12 1 -2 -2 -2 -2 -1 1 15 51 100 92 41 11 4 12 43 95 
95 43 11 0 -2 -2 -2 -2 -2 -2 -2 -2 -2 -2 -2 -2 -2 -2 -2 -2 -2 -2 -2 -1 2 15 44 88 106 73 32 9 0 -2 -2 -2 -2 -2 -2 -2 -2 -2 -1 2 15 45 91 111 96 104 110 65 22 4 -1 -2 -2 -2 -2 -2 -2 -2 -2 -2 -2 -2 -2 -2 -2 -2 -2 -2 -2 -2 -2 -2 -2 -2 -2 -2 -2 -2 -2 -2 -2 0 8 34 82 106 68 25 5 0 -2 -2 -2 -2 -1 4 22 65 106 81 32 8 3 11 43 95 
95 43 11 0 -2 -2 -2 -2 -2 -2 -2 -2 -2 -2 -2 -2 -2 -2 -2 -2 -2 -2 -2 0 9 32 73 106 88 44 15 2 -1 -2 -2 -2 -2 -2 -2 -2 -2 -2 0 9 32 73 107 93 66 80 109 80 31 7 0 -2 -2 -2 -2 -2 -2 -2 -2 -2 -2 -2 -2 -2 -2 -2 -2 -2 -2 -2 -2 -2 -2 -2 -2 -2 -2 -2 -2 -2 -1 2 15 49 97 97 49 15 2 -1 -2 -2 -2 -2 0 7 32 81 106 65 23 5 2 11 43 95 
96 43 11 0 -2 -2 -2 -2 -2 -2 -2 -2 -2 -2 -2 -2 -2 -2 -2 -2 -2 -2 0 5 22 59 100 100 59 22 5 0 -2 -2 -2 -2 -2 -2 -2 -2 -2 0 4 22 58 100 100 63 41 60 103 89 38 9 0 -2 -2 -2 -2 -2 -2 -2 -2 -2 -2 -2 -2 -2 -2 -2 -2 -2 -2 -2 -2 -2 -2 -2 -2 -2 -2 -2 -2 -2 0 5 25 68 106 82 34 8 0 -2 -2 -2 -2 -2 0 11 41 92 100 51 15 2 1 11 43 95 
96 44 12 0 -2 -2 -2 -2 -2 -2 -2 -2 -2 -2 -2 -2 -2 -2 -2 -2 -2 -1 2 15 44 88 106 73 32 9 0 -2 -2 -2 -2 -2 -2 -2 -2 -2 -1 1 12 41 86 106 74 36 25 50 98 94 42 10 0 -2 -2 -2 -2 -2 -2 -2 -2 -2 -2 -2 -2 -2 -2 -2 -2 -2 -2 -2 -2 -2 -2 -2 -2 -2 -2 -2 -2 -2 1 12 41 89 104 62 21 4 -1 -2 -2 -2 -2 -1 1 15 51 100 92 41 11 1 1 11 43 96 
99 48 13 1 -1 -2 -2 -2 -2 -2 -2 -2 -2 -2 -2 -2 -2 -2 -2 -2 -2 0 9 32 73 106 88 44 15 2 -1 -2 -2 -2 -2 -2 -2 -2 -2 -2 0 5 24 64 104 90 46 18 17 45 96 96 44 11 0 -2 -2 -2 -2 -2 -2 -2 -2 -2 -2 -2 -2 -2 -2 -2 -2 -2 -2 -2 -2 -2 -2 -2 -2 -2 -2 -2 -2 -1 4 21 62 104 89 41 12 1 -2 -2 -2 -2 -2 -1 4 22 65 106 81 32 7 0 1 11 43 96 
108 58 20 4 0 -2 -2 -2 -2 -2 -2 -2 -2 -2 -2 -2 -2 -2 -2 -2 0 5 22 59 100 100 59 22 5 0 -2 -2 -2 -2 -2 -2 -2 -2 -2 -1 1 13 42 89 105 66 26 9 13 42 94 97 46 13 1 -2 -2 -2 -2 -2 -2 -2 -2 -2 -2 -2 -2 -2 -2 -2 -2 -2 -2 -2 -2 -2 -2 -2 -2 -2 -2 -2 -2 0 8 34 82 106 68 25 5 0 -2 -2 -2 -2 -2 0 7 32 81 106 65 22 4 0 0 11 43 98 
126 82 37 13 2 -1 -2 -2 -2 -2 -2 -2 -2 -2 -2 -2 -2 -2 -2 -1 2 15 44 88 106 73 32 9 0 -2 -2 -2 -2 -2 -2 -2 -2 -2 -2 0 6 25 65 105 89 42 13 4 10 38 89 101 53 16 2 -1 -2 -2 -2 -2 -2 -2 -2 -2 -2 -2 -2 -2 -2 -2 -2 -2 -2 -2 -2 -2 -2 -2 -2 -2 -2 -2 -1 2 15 49 97 97 49 15 2 -1 -2 -2 -2 -2 -2 0 11 41 92 100 51 15 2 -1 0 11 43 101 
142 117 70 33 11 1 -1 -2 -2 -2 -2 -2 -2 -2 -2 -2 -2 -2 -2 0 9 32 73 106 88 44 15 2 -1 -2 -2 -2 -2 -2 -2 -2 -2 -2 -1 2 15 45 90 104 64 24 6 1 7 31 80 106 65 22 4 -1 -2 -2 -2 -2 -2 -2 -2 -2 -2 -2 -2 -2 -2 -2 -2 -2 -2 -2 -2 -2 -2 -2 -2 -2 -2 -2 0 5 25 68 106 82 34 8 0 -2 -2 -2 -2 -2 -1 1 15 51 100 92 41 11 0 -1 0 11 42 103 
140 131 106 66 29 8 0 -2 -2 -2 -2 -2 -2 -2 -2 -2 -2 -2 0 5 22 59 100 100 59 22 5 0 -2 -2 -2 -2 -2 -2 -2 -2 -2 -2 0 9 32 73 106 86 41 12 1 0 4 22 65 106 80 31 7 0 -2 -2 -2 -2 -2 -2 -2 -2 -2 -2 -2 -2 -2 -2 -2 -2 -2 -2 -2 -2 -2 -2 -2 -2 -2 -2 1 12 41 89 104 62 21 4 -1 -2 -2 -2 -2 -2 -1 4 22 65 106 81 32 7 0 -1 0 11 43 102 
123 111 113 99 58 22 5 0 -2 -2 -2 -2 -2 -2 -2 -2 -2 -1 2 15 44 88 106 73 32 9 0 -2 -2 -2 -2 -2 -2 -2 -2 -2 -2 0 4 22 58 100 100 58 22 4 0 -1 2 16 53 101 89 38 9 0 -2 -2 -2 -2 -2 -2 -2 -2 -2 -2 -2 -2 -2 -2 -2 -2 -2 -2 -2 -2 -2 -2 -2 -2 -2 -1 4 21 62 104 89 41 12 1 -2 -2 -2 -2 -2 -2 0 7 32 81 106 65 22 4 -1 -1 0 11 43 99 
108 81 88 108 88 45 16 3 -1 -2 -2 -2 -2 -2 -2 -2 -2 0 9 32 73 106 88 44 15 2 -1 -2 -2 -2 -2 -2 -2 -2 -2 -2 -1 1 12 41 86 106 73 32 9 0 -1 -1 1 13 46 97 94 42 10 0 -2 -2 -2 -2 -2 -2 -2 -2 -2 -2 -2 -2 -2 -2 -2 -2 -2 -2 -2 -2 -2 -2 -2 -2 -2 0 8 34 82 106 68 25 5 0 -2 -2 -2 -2 -2 -2 0 11 41 92 100 51 15 2 -1 -2 0 11 43 97 
101 62 59 91 106 75 36 13 2 -1 -2 -2 -2 -2 -2 -2 0 5 22 59 100 100 59 22 5 0 -2 -2 -2 -2 -2 -2 -2 -2 -2 -2 0 5 24 64 104 90 45 15 2 -1 -2 -2 0 11 44 96 96 44 11 0 -2 -2 -2 -2 -2 -2 -2 -2 -2 -2 -2 -2 -2 -2 -2 -2 -2 -2 -2 -2 -2 -2 -2 -2 -1 2 15 49 97 97 49 15 2 -1 -2 -2 -2 -2 -2 -1 1 15 51 100 92 41 11 0 -2 -2 0 11 43 96 
97 52 36 61 99 103 70 34 12 2 -1 -2 -2 -2 -2 -1 2 15 44 88 106 73 32 9 0 -2 -2 -2 -2 -2 -2 -2 -2 -2 -2 -1 1 13 42 89 105 65 25 6 0 -2 -2 -2 0 10 42 94 97 46 13 1 -2 -2 -2 -2 -2 -2 -2 -2 -2 -2 -2 -2 -2 -2 -2 -2 -2 -2 -2 -2 -2 -2 -2 -2 0 5 25 68 106 82 34 8 0 -2 -2 -2 -2 -2 -2 -1 4 22 65 106 81 32 7 0 -2 -2 0 11 43 96 
96 47 23 32 67 101 102 69 33 12 2 -1 -2 -2 -1 0 9 32 73 106 88 44 15 2 -1 -2 -2 -2 -2 -2 -2 -2 -2 -2 -2 0 6 25 65 105 89 42 13 1 -1 -2 -2 -2 0 9 38 89 101 53 16 2 -1 -2 -2 -2 -2 -2 -2 -2 -2 -2 -2 -2 -2 -2 -2 -2 -2 -2 -2 -2 -2 -2 -2 -2 1 12 41 89 104 62 21 4 -1 -2 -2 -2 -2 -2 -2 0 7 32 81 106 65 22 4 -1 -2 -2 0 11 43 95 
96 44 16 14 33 68 101 102 68 33 12 2 -1 -1 0 5 22 59 100 100 59 22 5 0 -2 -2 -2 -2 -2 -2 -2 -2 -2 -2 -1 2 15 45 90 104 64 24 5 0 -2 -2 -2 -2 0 7 31 80 106 65 22 4 -1 -2 -2 -2 -2 -2 -2 -2 -2 -2 -2 -2 -2 -2 -2 -2 -2 -2 -2 -2 -2 -2 -2 -1 4 21 62 104 89 41 12 1 -2 -2 -2 -2 -2 -2 -2 0 11 41 92 100 51 15 1 -1 -2 -2 0 11 43 95 
95 44 13 5 12 33 68 102 102 68 33 12 2 0 3 15 44 88 106 73 32 9 0 -2 -2 -2 -2 -2 -2 -2 -2 -2 -2 -2 0 9 32 73 106 86 41 12 1 -1 -2 -2 -2 -2 -1 4 22 65 106 80 31 7 0 -2 -2 -2 -2 -2 -2 -2 -2 -2 -2 -2 -2 -2 -2 -2 -2 -2 -2 -2 -2 -2 -2 0 8 34 82 106 68 25 5 0 -2 -2 -2 -2 -2 -2 -1 1 15 51 100 92 41 11 0 -2 -2 -2 0 11 43 95 
95 43 11 2 3 12 33 68 102 102 68 33 13 6 11 32 73 106 88 44 15 2 -1 -2 -2 -2 -2 -2 -2 -2 -2 -2 -2 0 4 22 58 100 100 58 22 4 0 -2 -2 -2 -2 -2 -1 2 16 53 101 89 38 9 0 -2 -2 -2 -2 -2 -2 -2 -2 -2 -2 -2 -2 -2 -2 -2 -2 -2 -2 -2 -2 -2 -1 2 15 49 97 97 49 15 2 -1 -2 -2 -2 -2 -2 -2 -1 4 22 65 106 81 32 7 0 -2 -2 -2 0 11 43 95 
95 43 11 1 0 2 12 33 68 102 102 69 36 20 28 60 100 100 59 22 5 0 -2 -2 -2 -2 -2 -2 -2 -2 -2 -2 -1 1 12 41 86 106 73 32 9 0 -2 -2 -2 -2 -2 -2 -2 1 12 46 97 94 42 11 0 -2 -2 -2 -2 -2 -2 -2 -2 -2 -2 -2 -2 -2 -2 -2 -2 -2 -2 -2 -2 -2 0 5 25 68 106 82 34 8 0 -2 -2 -2 -2 -2 -2 -2 0 7 32 81 106 65 22 4 -1 -2 -2 -2 0 11 43 95 
95 43 11 0 -1 -1 2 12 33 68 102 103 73 51 58 92 106 73 32 9 0 -2 -2 -2 -2 -2 -2 -2 -2 -2 -2 -2 0 5 24 64 104 90 45 15 2 -1 -2 -2 -2 -2 -2 -2 -2 0 11 42 94 97 46 12 1 -2 -2 -2 -2 -2 -2 -2 -2 -2 -2 -2 -2 -2 -2 -2 -2 -2 -2 -2 -2 -2 1 12 41 89 104 62 21 4 -1 -2 -2 -2 -2 -2 -2 -2 0 11 41 92 100 51 15 1 -1 -2 -2 -2 0 11 43 95 
95 43 11 0 -2 -2 -1 2 12 33 69 103 110 98 101 113 89 44 15 2 -1 -2 -2 -2 -2 -2 -2 -2 -2 -2 -2 -1 1 13 42 89 105 65 25 6 0 -2 -2 -2 -2 -2 -2 -2 -2 0 9 38 89 101 53 16 2 -1 -2 -2 -2 -2 -2 -2 -2 -2 -2 -2 -2 -2 -2 -2 -2 -2 -2 -2 -2 -1 4 21 62 104 89 41 12 1 -2 -2 -2 -2 -2 -2 -2 -1 1 15 51 100 92 41 11 0 -2 -2 -2 -2 0 11 43 95 
95 43 11 0 -2 -2 -2 -1 2 12 34 70 112 136 136 108 59 22 5 0 -2 -2 -2 -2 -2 -2 -2 -2 -2 -2 -2 0 6 25 65 105 89 42 13 1 -1 -2 -2 -2 -2 -2 -2 -2 -2 0 7 31 80 106 65 22 4 -1 -2 -2 -2 -2 -2 -2 -2 -2 -2 -2 -2 -2 -2 -2 -2 -2 -2 -2 -2 0 8 34 82 106 68 25 5 0 -2 -2 -2 -2 -2 -2 -2 -1 4 22 65 106 81 32 7 0 -2 -2 -2 -2 0 11 43 95 
95 43 11 0 -2 -2 -2 -2 -1 2 13 37 82 132 132 81 34 9 0 -2 -2 -2 -2 -2 -2 -2 -2 -2 -2 -2 -1 2 15 45 90 104 64 24 5 0 -2 -2 -2 -2 -2 -2 -2 -2 -2 -1 4 22 65 106 80 31 7 0 -2 -2 -2 -2 -2 -2 -2 -2 -2 -2 -2 -2 -2 -2 -2 -2 -2 -2 -1 2 15 49 97 97 49 15 2 -1 -2 -2 -2 -2 -2 -2 -2 0 7 32 81 106 65 22 4 -1 -2 -2 -2 -2 0 11 43 95 
95 43 11 0 -2 -2 -2 -2 -2 0 4 19 57 110 114 61 20 4 -1 -2 -2 -2 -2 -2 -2 -2 -2 -2 -2 -2 0 9 32 73 106 86 41 12 1 -1 -2 -2 -2 -2 -2 -2 -2 -2 -2 -1 2 16 53 101 89 38 9 0 -2 -2 -2 -2 -2 -2 -2 -2 -2 -2 -2 -2 -2 -2 -2 -2 -2 -2 0 5 25 68 106 82 34 8 0 -2 -2 -2 -2 -2 -2 -2 -2 0 11 41 92 100 51 15 1 -1 -2 -2 -2 -2 0 11 43 95 
95 43 11 0 -2 -2 -2 -2 -2 -1 1 12 42 94 106 57 18 2 -1 -2 -2 -2 -2 -2 -2 -2 -2 -2 -2 0 4 22 58 100 100 58 22 4 0 -2 -2 -2 -2 -2 -2 -2 -2 -2 -2 -2 1 13 46 97 94 42 10 0 -2 -2 -2 -2 -2 -2 -2 -2 -2 -2 -2 -2 -2 -2 -2 -2 -2 -2 1 12 41 89 104 62 21 4 -1 -2 -2 -2 -2 -2 -2 -2 -1 1 15 51 100 92 41 11 0 -2 -2 -2 -2 -2 0 11 43 95 
95 43 11 0 -2 -2 -2 -2 -2 -2 0 7 32 81 107 66 23 4 -1 -2 -2 -2 -2 -2 -2 -2 -2 -2 -1 1 12 41 86 106 73 32 9 0 -2 -2 -2 -2 -2 -2 -2 -2 -2 -2 -2 -2 0 11 44 96 96 44 11 0 -2 -2 -2 -2 -2 -2 -2 -2 -2 -2 -2 -2 -2 -2 -2 -2 -2 -1 4 21 62 104 89 41 12 1 -2 -2 -2 -2 -2 -2 -2 -2 -1 4 22 65 106 81 32 7 0 -2 -2 -2 -2 -2 0 11 43 95 
95 43 11 0 -2 -2 -2 -2 -2 -2 -1 4 23 65 106 80 32 7 0 -2 -2 -2 -2 -2 -2 -2 -2 -2 0 5 24 64 104 90 45 15 2 -1 -2 -2 -2 -2 -2 -2 -2 -2 -2 -2 -2 -2 0 10 42 94 97 46 13 1 -2 -2 -2 -2 -2 -2 -2 -2 -2 -2 -2 -2 -2 -2 -2 -2 -2 0 8 34 82 106 68 25 5 0 -2 -2 -2 -2 -2 -2 -2 -2 0 7 32 81 106 65 22 4 -1 -2 -2 -2 -2 -2 0 11 43 96 
96 43 11 0 -2 -2 -2 -2 -2 -2 -1 2 16 52 101 90 39 10 0 -2 -2 -2 -2 -2 -2 -2 -2 -1 1 13 42 89 105 65 25 6 0 -2 -2 -2 -2 -2 -2 -2 -2 -2 -2 -2 -2 -2 0 9 38 89 101 53 16 2 -1 -2 -2 -2 -2 -2 -2 -2 -2 -2 -2 -2 -2 -2 -2 -2 -1 2 15 49 97 97 49 15 2 -1 -2 -2 -2 -2 -2 -2 -2 -2 0 11 41 92 100 51 15 1 -1 -2 -2 -2 -2 -2 0 11 44 96 
96 43 11 0 -2 -2 -2 -2 -2 -2 -2 0 12 45 96 96 45 12 0 -2 -2 -2 -2 -2 -2 -2 -2 0 6 25 65 105 89 42 13 1 -1 -2 -2 -2 -2 -2 -2 -2 -2 -2 -2 -2 -2 -2 0 7 31 80 106 65 22 4 -1 -2 -2 -2 -2 -2 -2 -2 -2 -2 -2 -2 -2 -2 -2 -2 0 5 25 68 106 82 34 8 0 -2 -2 -2 -2 -2 -2 -2 -2 -1 1 15 51 100 92 41 11 0 -2 -2 -2 -2 -2 -2 1 13 46 99 
98 43 11 0 -2 -2 -2 -2 -2 -2 -2 0 10 39 90 101 52 16 2 -1 -2 -2 -2 -2 -2 -2 -1 2 15 45 90 104 64 24 5 0 -2 -2 -2 -2 -2 -2 -2 -2 -2 -2 -2 -2 -2 -2 -1 4 22 65 106 80 31 7 0 -2 -2 -2 -2 -2 -2 -2 -2 -2 -2 -2 -2 -2 -2 -2 1 12 41 89 104 62 21 4 -1 -2 -2 -2 -2 -2 -2 -2 -2 -1 4 22 65 106 81 32 7 0 -2 -2 -2 -2 -2 -1 2 16 54 106 
100 42 11 0 -2 -2 -2 -2 -2 -2 -2 0 7 31 80 106 65 22 4 -1 -2 -2 -2 -2 -2 -2 0 9 32 73 106 86 41 12 1 -1 -2 -2 -2 -2 -2 -2 -2 -2 -2 -2 -2 -2 -2 -2 -1 2 16 53 101 89 38 9 0 -2 -2 -2 -2 -2 -2 -2 -2 -2 -2 -2 -2 -2 -2 -1 4 21 62 104 89 41 12 1 -2 -2 -2 -2 -2 -2 -2 -2 -2 0 7 32 81 106 65 22 4 -1 -2 -2 -2 -2 -2 0 6 26 71 120 
102 42 10 0 -2 -2 -2 -2 -2 -2 -2 -1 4 22 65 106 80 31 7 0 -2 -2 -2 -2 -2 0 4 22 58 100 100 58 22 4 0 -2 -2 -2 -2 -2 -2 -2 -2 -2 -2 -2 -2 -2 -2 -2 -2 1 13 46 97 94 42 10 0 -2 -2 -2 -2 -2 -2 -2 -2 -2 -2 -2 -2 -2 -2 0 8 34 82 106 68 25 5 0 -2 -2 -2 -2 -2 -2 -2 -2 -2 0 11 41 92 100 51 15 1 -1 -2 -2 -2 -2 -1 2 15 45 97 136 
102 42 10 0 -2 -2 -2 -2 -2 -2 -2 -1 2 16 52 101 90 39 10 0 -2 -2 -2 -2 -1 1 12 41 86 106 73 32 9 0 -2 -2 -2 -2 -2 -2 -2 -2 -2 -2 -2 -2 -2 -2 -2 -2 -2 0 11 44 96 96 44 11 0 -2 -2 -2 -2 -2 -2 -2 -2 -2 -2 -2 -2 -2 -1 2 15 49 97 97 49 15 2 -1 -2 -2 -2 -2 -2 -2 -2 -2 -1 1 15 51 100 92 41 11 0 -2 -2 -2 -2 -2 0 9 32 74 123 143 
101 43 11 0 -2 -2 -2 -2 -2 -2 -2 -2 0 12 45 96 96 45 12 0 -2 -2 -2 -2 0 5 24 64 104 90 45 15 2 -1 -2 -2 -2 -2 -2 -2 -2 -2 -2 -2 -2 -2 -2 -2 -2 -2 -2 0 10 42 94 97 46 13 1 -2 -2 -2 -2 -2 -2 -2 -2 -2 -2 -2 -2 -2 0 5 25 68 106 82 34 8 0 -2 -2 -2 -2 -2 -2 -2 -2 -2 -1 4 22 65 106 81 32 7 0 -2 -2 -2 -2 0 5 22 59 104 130 136 
99 43 11 0 -2 -2 -2 -2 -2 -2 -2 -2 0 10 39 90 101 52 16 2 -1 -2 -2 -1 1 13 42 89 105 65 25 6 0 -2 -2 -2 -2 -2 -2 -2 -2 -2 -2 -2 -2 -2 -2 -2 -2 -2 -2 0 9 38 89 101 53 16 2 -1 -2 -2 -2 -2 -2 -2 -2 -2 -2 -2 -2 -2 1 12 41 89 104 62 21 4 -1 -2 -2 -2 -2 -2 -2 -2 -2 -2 0 7 32 81 106 65 22 4 -1 -2 -2 -2 -1 2 15 44 89 115 113 122 
97 43 11 0 -2 -2 -2 -2 -2 -2 -2 -2 0 7 31 80 106 65 22 4 -1 -2 -2 0 6 25 65 105 89 42 13 1 -1 -2 -2 -2 -2 -2 -2 -2 -2 -2 -2 -2 -2 -2 -2 -2 -2 -2 -2 0 7 31 80 106 66 23 4 0 -1 -2 -2 -2 -2 -2 -2 -2 -2 -2 -2 -1 4 22 62 104 89 41 12 1 -2 -2 -2 -2 -2 -2 -2 -2 -2 -2 0 11 41 92 100 51 15 1 -1 -2 -2 -2 0 9 32 73 107 100 88 110 
96 43 11 0 -2 -2 -2 -2 -2 -2 -2 -2 -1 4 22 65 106 80 31 7 0 -2 -1 2 15 45 90 104 64 24 5 0 -2 -2 -2 -2 -2 -2 -2 -2 -2 -2 -2 -2 -2 -2 -2 -2 -2 -2 -2 -1 4 23 66 108 82 34 10 2 0 0 -1 -1 -2 -2 -2 -2 -2 -2 -2 0 8 34 82 106 68 25 5 0 -2 -2 -2 -2 -2 -2 -2 -2 -2 -1 1 15 51 100 92 41 11 0 -2 -2 -2 0 5 22 59 100 102 72 68 102 
96 43 11 0 -2 -2 -2 -2 -2 -2 -2 -2 -1 2 16 52 101 90 39 10 0 -1 0 9 32 73 106 86 41 12 1 -1 -2 -2 -2 -2 -2 -2 -2 -2 -2 -2 -2 -2 -2 -2 -2 -2 -2 -2 -2 -1 3 19 58 107 99 51 23 13 10 7 4 2 1 0 0 0 0 -1 0 2 15 49 97 97 49 15 2 -1 -2 -2 -2 -2 -2 -2 -2 -2 -2 -1 4 22 65 106 81 32 7 0 -2 -2 -1 2 15 44 88 106 76 46 55 98 
96 43 11 0 -2 -2 -2 -2 -2 -2 -2 -2 -2 0 12 45 96 96 45 12 1 0 4 22 58 100 100 58 22 4 0 -2 -2 -2 -2 -2 -2 -2 -2 -2 -2 -2 -2 -2 -2 -2 -2 -2 -2 -2 -1 1 8 25 64 117 121 81 55 45 39 31 22 16 13 11 10 9 7 4 4 9 28 69 106 82 34 8 0 -2 -2 -2 -2 -2 -2 -2 -2 -2 -2 0 7 32 81 106 65 22 4 -1 -2 -1 0 9 32 73 106 89 47 29 49 97 
95 43 11 0 -2 -2 -2 -2 -2 -2 -2 -2 -2 0 10 39 90 101 52 16 3 2 12 41 86 106 73 32 9 0 -2 -2 -2 -2 -2 -2 -2 -2 -2 -2 -2 -2 -2 -2 -2 -2 -2 -2 -2 0 2 9 24 50 90 134 142 119 103 96 90 80 65 53 46 44 42 38 31 23 19 26 51 94 106 62 22 4 -1 -2 -2 -2 -2 -2 -2 -2 -2 -2 -2 0 11 41 92 100 51 15 2 -1 -2 0 5 22 59 100 100 60 26 19 45 96 
95 43 11 0 -2 -2 -2 -2 -2 -2 -2 -2 -2 0 7 31 80 106 65 23 6 7 24 64 104 90 45 15 2 -1 -2 -2 -2 -2 -2 -2 -2 -2 -2 -2 -2 -2 -2 -2 -2 -2 -2 -1 0 5 15 32 59 91 115 123 115 104 98 98 101 106 106 101 97 96 94 89 80 66 58 64 91 117 94 43 12 1 -1 -2 -2 -2 -2 -2 -2 -2 -2 -2 -1 1 15 51 100 92 41 11 0 -1 -1 2 15 44 88 106 73 33 12 15 44 96 
95 43 11 0 -2 -2 -2 -2 -2 -2 -2 -2 -2 -1 4 22 65 106 80 32 11 15 43 89 105 65 25 6 0 -2 -2 -2 -2 -2 -2 -2 -2 -2 -2 -2 -2 -2 -2 -2 -2 -2 0 2 9 22 44 73 100 107 93 71 54 47 45 47 53 65 80 89 94 96 97 101 106 107 107 115 135 132 81 31 7 0 -2 -2 -2 -2 -2 -2 -2 -2 -2 -2 -1 4 22 65 106 81 32 7 0 -1 0 9 32 73 106 88 44 15 6 12 44 95 
95 43 11 0 -2 -2 -2 -2 -2 -2 -2 -2 -2 -1 2 16 52 101 90 41 19 28 66 105 89 42 13 1 -1 -2 -2 -2 -2 -2 -2 -2 -2 -2 -2 -2 -2 -2 -2 -2 -1 0 5 15 32 59 88 106 100 73 46 27 16 13 12 13 16 22 31 38 42 44 46 53 65 81 95 111 134 132 82 32 8 0 -1 -2 -2 -2 -2 -2 -2 -2 -2 -2 0 7 32 81 106 65 22 4 0 0 5 23 59 100 100 59 23 6 2 12 43 95 
95 43 11 0 -2 -2 -2 -2 -2 -2 -2 -2 -2 -2 0 12 45 96 97 50 30 49 91 104 64 24 5 0 -2 -2 -2 -2 -2 -2 -2 -2 -2 -2 -2 -2 -2 -2 -2 -1 1 8 22 44 73 100 106 88 59 32 15 6 2 1 0 1 2 4 7 9 10 11 13 16 23 32 43 59 89 117 96 49 17 4 0 -1 -2 -2 -2 -2 -2 -2 -2 -1 1 11 42 92 100 51 15 2 0 2 15 44 88 106 73 32 9 1 1 11 43 95 
95 43 11 0 -2 -2 -2 -2 -2 -2 -2 -2 -2 -2 0 10 39 90 104 64 51 78 107 86 41 12 1 -1 -2 -2 -2 -2 -2 -2 -2 -2 -2 -2 -2 -2 -2 -1 0 3 11 29 58 88 106 100 73 44 23 9 2 0 -1 -2 -2 -2 -1 -1 0 0 0 0 1 2 4 8 13 23 49 91 109 78 39 17 6 2 1 0 0 0 0 0 0 1 5 18 54 101 93 42 11 1 1 9 32 73 106 88 44 15 2 0 0 11 43 95 
95 43 11 0 -2 -2 -2 -2 -2 -2 -2 -2 -2 -2 0 7 31 80 111 89 83 105 100 58 22 4 0 -2 -2 -2 -2 -2 -2 -2 -2 -2 -2 -2 -2 -2 -1 0 5 15 35 67 98 106 88 59 32 15 5 0 -1 -2 -2 -2 -2 -2 -2 -2 -2 -2 -2 -2 -2 -1 -1 0 1 7 24 60 103 110 79 47 27 17 13 11 11 11 11 11 11 13 18 35 75 112 86 36 10 2 6 23 59 100 100 59 22 5 0 -1 0 11 43 95 
95 43 11 0 -2 -2 -2 -2 -2 -2 -2 -2 -2 -2 -1 4 22 65 113 117 115 111 73 32 9 0 -2 -2 -2 -2 -2 -2 -2 -2 -2 -2 -2 -2 -2 0 2 9 23 45 75 102 102 75 45 23 9 2 0 -2 -2 -2 -2 -2 -2 -2 -2 -2 -2 -2 -2 -2 -2 -2 -2 -2 -1 1 10 34 80 125 126 97 71 54 47 44 43 43 43 43 44 45 52 71 108 125 83 36 13 8 17 45 88 106 73 32 9 0 -1 -2 0 11 43 95 
95 43 11 0 -2 -2 -2 -2 -2 -2 -2 -2 -2 -2 -1 2 15 52 110 137 129 93 45 15 2 -1 -2 -2 -2 -2 -2 -2 -2 -2 -2 -2 -2 -1 0 5 15 32 59 88 106 98 67 35 15 5 0 -1 -2 -2 -2 -2 -2 -2 -2 -2 -2 -2 -2 -2 -2 -2 -2 -2 -2 -2 -2 -1 4 20 61 120 144 128 113 103 98 96 96 95 95 95 96 97 102 116 139 139 99 56 31 25 39 75 107 88 44 15 2 -1 -2 -2 0 11 43 95 
95 43 11 0 -2 -2 -2 -2 -2 -2 -2 -2 -2 -2 -2 0 12 46 106 143 119 66 25 6 0 -2 -2 -2 -2 -2 -2 -2 -2 -2 -2 -2 0 2 9 22 44 73 100 106 88 58 29 11 3 0 -1 -2 -2 -2 -2 -2 -2 -2 -2 -2 -2 -2 -2 -2 -2 -2 -2 -2 -2 -2 -2 -1 2 18 57 112 122 98 90 92 94 95 95 95 95 95 96 96 98 103 114 124 117 95 72 63 78 107 103 60 23 5 0 -2 -2 -2 0 11 43 95 
95 43 11 0 -2 -2 -2 -2 -2 -2 -2 -2 -2 -2 -2 0 11 43 103 136 95 42 12 1 -1 -2 -2 -2 -2 -2 -2 -2 -2 -2 -1 0 5 14 32 59 88 106 100 73 44 22 9 1 -1 -2 -2 -2 -2 -2 -2 -2 -2 -2 -2 -2 -2 -2 -2 -2 -2 -2 -2 -2 -2 -2 -2 -1 4 23 66 110 93 55 41 40 42 43 43 43 43 43 43 43 44 46 54 70 91 107 111 113 125 124 82 36 10 1 -1 -2 -2 -2 0 11 43 95 
95 43 11 0 -2 -2 -2 -2 -2 -2 -2 -2 -2 -2 -2 0 11 43 100 120 70 25 5 0 -2 -2 -2 -2 -2 -2 -2 -2 -1 0 3 9 22 43 73 102 109 91 62 34 16 6 1 -1 -2 -2 -2 -2 -2 -2 -2 -2 -2 -2 -2 -2 -2 -2 -2 -2 -2 -2 -2 -2 -2 -2 -2 0 7 31 80 107 69 29 14 11 11 11 11 11 11 11 11 11 11 12 16 26 43 66 93 121 143 127 72 27 6 0 -2 -2 -2 -2 0 11 43 95 
95 43 11 0 -2 -2 -2 -2 -2 -2 -2 -2 -2 -2 -2 0 11 44 98 105 53 16 2 -1 -2 -2 -2 -2 -2 -1 0 1 4 9 17 32 59 92 119 118 90 59 35 19 9 4 1 0 -1 -1 -2 -2 -2 -2 -2 -2 -2 -2 -2 -2 -2 -2 -2 -2 -2 -2 -2 -2 -2 -2 -2 0 9 38 89 102 54 17 4 1 0 0 0 0 0 0 0 0 0 1 2 5 13 25 46 78 116 124 83 36 10 1 -1 -2 -2 -2 0 11 43 95 
95 43 11 0 -2 -2 -2 -2 -2 -2 -2 -2 -2 -2 -2 1 12 46 98 97 45 12 0 -2 -2 -2 -2 -1 0 1 5 12 22 35 52 77 109 136 142 119 86 62 47 35 24 16 11 7 4 2 0 0 0 -1 -1 -2 -2 -2 -2 -2 -2 -2 -2 -2 -2 -2 -2 -2 -2 -2 -2 0 11 42 94 97 46 13 1 -1 -2 -2 -2 -2 -2 -2 -2 -2 -2 -2 -1 0 1 6 16 36 72 108 103 60 23 5 0 -2 -2 -2 0 11 43 95 
95 43 11 0 -2 -2 -2 -2 -2 -2 -2 -2 -2 -2 -1 2 16 53 102 90 39 10 0 -1 -1 -1 0 2 5 12 24 41 62 83 99 112 119 122 125 122 110 100 92 81 65 51 41 32 23 16 12 10 7 4 1 0 0 -1 -1 -2 -2 -2 -2 -2 -2 -2 -2 -2 -2 -2 -2 1 12 46 97 94 42 11 0 -2 -2 -2 -2 -2 -2 -2 -2 -2 -2 -2 -2 -2 -1 0 3 13 36 75 107 88 44 15 2 -1 -2 -2 0 11 43 95 
95 43 11 0 -2 -2 -2 -2 -2 -2 -2 -2 -2 -2 -1 4 22 65 106 80 32 7 0 0 1 4 8 15 25 42 65 88 104 106 98 84 70 63 69 82 91 96 101 106 106 100 92 81 65 52 45 39 31 22 15 11 7 4 2 0 0 0 -1 -1 -2 -2 -2 -2 -2 -2 -1 2 16 53 101 89 38 9 0 -2 -2 -2 -2 -2 -2 -2 -2 -2 -2 -2 -2 -2 -2 -2 0 3 16 45 88 106 73 32 9 0 -1 -2 0 11 43 95 
95 43 11 0 -2 -2 -2 -2 -2 -2 -2 -2 -2 -2 0 7 31 80 106 66 23 6 3 5 12 21 34 49 68 89 105 105 89 68 49 35 24 20 23 32 39 45 52 65 81 92 100 106 106 101 96 90 80 65 51 41 32 23 16 12 10 7 4 1 0 0 -1 -1 -2 -1 0 4 23 65 106 80 31 7 0 -2 -2 -2 -2 -2 -2 -2 -2 -2 -2 -2 -2 -2 -2 -2 -2 0 5 23 59 100 100 59 23 5 0 -1 0 11 43 95 
95 43 11 0 -2 -2 -2 -2 -2 -2 -2 -2 -2 -2 0 10 39 90 102 55 20 10 13 24 41 62 82 97 106 104 88 65 42 25 15 9 5 3 4 7 10 12 16 23 32 41 51 65 80 90 96 101 106 106 100 92 81 65 52 45 39 31 22 15 11 7 4 2 0 0 1 8 32 80 106 65 22 4 -1 -2 -2 -2 -2 -2 -2 -2 -2 -2 -2 -2 -2 -2 -2 -2 -2 -1 0 9 32 73 106 88 45 16 3 0 0 11 43 95 
95 43 11 0 -2 -2 -2 -2 -2 -2 -2 -2 -2 -2 0 12 45 97 100 54 28 28 43 65 88 104 106 97 82 62 41 24 12 5 2 0 -1 -1 -1 0 0 0 2 4 7 11 15 22 31 39 45 52 65 81 92 100 106 106 101 96 90 80 65 51 41 32 23 16 12 10 10 16 43 92 102 53 16 2 -1 -2 -2 -2 -2 -2 -2 -2 -2 -2 -2 -2 -2 -2 -2 -2 -2 -2 -1 2 15 44 88 106 75 35 12 2 1 11 43 95 
95 43 11 0 -2 -2 -2 -2 -2 -2 -2 -2 -2 -1 2 16 53 105 105 67 55 68 89 105 105 89 68 49 34 21 12 5 1 0 -1 -2 -2 -2 -2 -2 -2 -2 -1 -1 0 0 1 4 7 10 12 16 23 32 41 51 65 80 90 96 101 106 106 100 92 81 65 52 45 40 35 36 59 103 99 46 12 1 -2 -2 -2 -2 -2 -2 -2 -2 -2 -2 -2 -2 -2 -2 -2 -2 -2 -2 -2 0 5 22 58 98 102 67 30 9 4 12 43 95 
95 43 11 0 -2 -2 -2 -2 -2 -2 -2 -2 -2 0 5 25 70 122 122 99 98 106 105 89 65 42 25 15 8 4 1 0 -1 -2 -2 -2 -2 -2 -2 -2 -2 -2 -2 -2 -2 -2 -1 -1 0 0 0 2 4 7 11 15 22 31 39 45 52 65 81 92 100 106 106 101 96 91 83 77 91 120 100 44 11 0 -2 -2 -2 -2 -2 -2 -2 -2 -2 -2 -2 -2 -2 -2 -2 -2 -2 -2 -2 -2 0 8 29 67 102 98 58 23 9 13 44 96 
95 43 11 0 -2 -2 -2 -2 -2 -2 -2 -2 -1 1 12 42 95 140 138 121 107 89 65 42 24 12 5 2 0 -1 -2 -2 -2 -2 -2 -2 -2 -2 -2 -2 -2 -2 -2 -2 -2 -2 -2 -2 -2 -2 -2 -1 -1 0 0 1 4 7 10 12 16 23 32 41 51 65 80 90 96 101 108 115 128 141 103 43 11 0 -2 -2 -2 -2 -2 -2 -2 -2 -2 -2 -2 -2 -2 -2 -2 -2 -2 -2 -2 -2 -1 1 11 35 75 106 88 45 19 17 45 96 
96 43 11 0 -2 -2 -2 -2 -2 -2 -2 -2 0 6 25 66 115 129 109 85 62 41 24 12 5 1 0 -1 -2 -2 -2 -2 -2 -2 -2 -2 -2 -2 -2 -2 -2 -2 -2 -2 -2 -2 -2 -2 -2 -2 -2 -2 -2 -2 -2 -1 -1 0 0 0 2 4 7 11 15 22 31 39 45 53 68 90 118 139 103 43 11 0 -2 -2 -2 -2 -2 -2 -2 -2 -2 -2 -2 -2 -2 -2 -2 -2 -2 -2 -2 -2 -2 -1 3 15 45 88 106 75 39 26 48 96 
96 43 11 0 -2 -2 -2 -2 -2 -2 -2 -1 2 15 45 91 113 87 56 36 22 12 5 1 0 -1 -2 -2 -2 -2 -2 -2 -2 -2 -2 -2 -2 -2 -2 -2 -2 -2 -2 -2 -2 -2 -2 -2 -2 -2 -2 -2 -2 -2 -2 -2 -2 -2 -2 -2 -1 -1 0 0 1 4 7 10 12 16 26 44 78 117 99 43 11 0 -2 -2 -2 -2 -2 -2 -2 -2 -2 -2 -2 -2 -2 -2 -2 -2 -2 -2 -2 -2 -2 -2 0 5 22 58 98 103 70 44 55 98 
96 43 11 0 -2 -2 -2 -2 -2 -2 -1 0 9 32 73 107 90 49 22 10 4 1 0 -1 -2 -2 -2 -2 -2 -2 -2 -2 -2 -2 -2 -2 -2 -2 -2 -2 -2 -2 -2 -2 -2 -2 -2 -2 -2 -2 -2 -2 -2 -2 -2 -2 -2 -2 -2 -2 -2 -2 -2 -2 -1 -1 0 0 1 2 7 21 54 103 97 43 11 0 -2 -2 -2 -2 -2 -2 -2 -2 -2 -2 -2 -2 -2 -2 -2 -2 -2 -2 -2 -2 -2 -2 -2 0 8 29 67 103 101 71 68 102 
97 43 11 0 -2 -2 -2 -2 -2 -2 0 5 23 59 100 100 59 24 7 1 0 -1 -2 -2 -2 -2 -2 -2 -2 -2 -2 -2 -2 -2 -2 -2 -2 -2 -2 -2 -2 -2 -2 -2 -2 -2 -2 -2 -2 -2 -2 -2 -2 -2 -2 -2 -2 -2 -2 -2 -2 -2 -2 -2 -2 -2 -2 -2 -1 -1 2 13 46 97 97 44 12 0 -2 -2 -2 -2 -2 -2 -2 -2 -2 -2 -2 -2 -2 -2 -2 -2 -2 -2 -2 -2 -2 -2 -2 -1 1 11 35 75 108 100 88 110 
99 43 11 0 -2 -2 -2 -2 -2 -1 3 16 45 88 106 73 32 10 1 -1 -2 -2 -2 -2 -2 -2 -2 -2 -2 -2 -2 -2 -2 -2 -2 -2 -2 -2 -2 -2 -2 -2 -2 -2 -2 -2 -2 -2 -2 -2 -2 -2 -2 -2 -2 -2 -2 -2 -2 -2 -2 -2 -2 -2 -2 -2 -2 -2 -2 -1 1 12 44 96 99 48 14 1 -1 -2 -2 -2 -2 -2 -2 -2 -2 -2 -2 -2 -2 -2 -2 -2 -2 -2 -2 -2 -2 -2 -2 -2 -1 3 15 45 89 115 113 122 
101 43 11 0 -2 -2 -2 -2 -1 2 12 36 75 108 91 47 17 4 0 -1 -2 -2 -2 -2 -2 -2 -2 -2 -2 -2 -2 -2 -2 -2 -2 -2 -2 -2 -2 -2 -2 -2 -2 -2 -2 -2 -2 -2 -2 -2 -2 -2 -2 -2 -2 -2 -2 -2 -2 -2 -2 -2 -2 -2 -2 -2 -2 -2 -2 -1 2 13 45 97 107 58 21 5 0 -1 -2 -2 -2 -2 -2 -2 -2 -2 -2 -2 -2 -2 -2 -2 -2 -2 -2 -2 -2 -2 -2 -2 -2 0 5 23 59 104 130 136 
102 42 10 0 -2 -2 -2 -1 2 11 33 70 108 109 71 35 15 6 2 1 0 0 0 0 0 0 0 0 0 -1 -1 -2 -2 -2 -2 -2 -2 -2 -2 -2 -2 -2 -2 -2 -2 -2 -2 -2 -2 -2 -2 -2 -2 -2 -2 -2 -2 -2 -2 -2 -2 -2 -2 -2 -2 -2 -2 -2 -1 1 7 21 54 105 125 84 40 17 6 1 0 -2 -2 -2 -2 -2 -2 -2 -2 -2 -2 -2 -2 -2 -2 -2 -2 -2 -2 -2 -2 -2 -2 -2 0 9 32 74 123 143 
102 42 10 0 -2 -2 -1 2 11 32 69 113 130 107 73 50 35 23 16 13 11 11 11 11 11 11 10 9 7 4 2 1 0 0 0 0 0 0 0 0 -1 -1 -2 -2 -2 -2 -2 -2 -2 -2 -2 -2 -2 -2 -2 -2 -2 -2 -2 -2 -2 -2 -2 -2 -2 -2 -1 0 2 9 23 46 81 124 144 119 79 46 25 12 4 0 -1 -2 -2 -2 -2 -2 -2 -2 -2 -2 -2 -2 -2 -2 -2 -2 -2 -2 -2 -2 -2 -2 -1 2 15 45 97 136 
100 42 11 0 -1 -1 2 12 33 69 112 141 140 122 105 93 81 65 53 46 44 43 43 43 43 43 42 38 31 22 16 13 11 11 11 11 11 10 9 7 4 2 1 0 0 0 0 0 0 0 0 0 -1 -1 -2 -2 -2 -2 -2 -2 -2 -2 -2 -2 -1 0 1 6 15 32 59 89 111 122 124 122 112 91 65 41 22 9 2 0 -1 -2 -2 -2 -2 -2 -2 -2 -2 -2 -2 -2 -2 -2 -2 -2 -2 -2 -2 -2 -2 0 6 26 71 120 
98 43 11 1 0 2 12 33 68 105 121 116 107 101 99 102 106 106 101 98 96 96 95 95 95 95 93 89 80 65 53 46 44 43 43 43 43 42 38 31 22 16 13 11 11 11 11 11 11 10 9 7 4 2 1 0 0 0 0 0 0 0 0 0 1 5 12 25 45 73 100 107 93 74 65 73 92 106 105 86 58 32 15 6 1 0 -2 -2 -2 -2 -2 -2 -2 -2 -2 -2 -2 -2 -2 -2 -2 -2 -2 -2 -2 -1 2 16 54 106 
96 43 12 3 4 13 34 69 102 105 81 58 47 45 47 53 65 80 89 93 95 95 95 95 96 96 98 101 106 106 101 98 96 96 95 95 95 93 89 80 65 53 46 44 43 43 43 43 43 42 38 31 22 16 13 11 11 11 11 11 10 9 8 7 11 22 41 65 90 106 100 73 46 28 22 27 43 66 90 106 100 73 45 25 12 4 0 -1 -2 -2 -2 -2 -2 -2 -2 -2 -2 -2 -2 -2 -2 -2 -2 -2 -2 -2 1 13 46 99 
96 44 14 9 16 36 70 102 102 70 38 20 13 12 13 16 22 31 38 42 43 43 43 43 43 44 46 53 65 80 89 93 95 95 95 96 96 98 101 106 106 101 98 96 96 95 95 95 95 93 89 80 65 53 46 44 43 43 43 43 42 39 33 30 38 60 87 104 104 86 58 32 15 7 4 6 13 25 45 73 100 106 90 65 41 22 9 2 0 -1 -2 -2 -2 -2 -2 -2 -2 -2 -2 -2 -2 -2 -2 -2 -2 -2 0 11 44 96 
97 48 23 26 45 75 103 101 68 34 13 4 1 0 1 2 4 7 9 10 11 11 11 11 11 11 13 16 22 31 38 42 43 43 43 43 44 46 53 65 80 89 93 95 95 95 95 96 96 98 101 106 106 101 98 96 96 95 95 95 94 91 85 80 88 105 108 91 65 41 22 9 2 0 -1 0 1 6 15 32 58 86 104 104 86 58 32 15 6 1 0 -2 -2 -2 -2 -2 -2 -2 -2 -2 -2 -2 -2 -2 -2 -2 0 11 43 96 
100 57 43 61 89 106 98 66 32 12 2 0 -1 -2 -2 -1 -1 0 0 0 0 0 0 0 0 0 1 2 4 7 9 10 11 11 11 11 11 13 16 22 31 38 42 43 43 43 43 43 44 46 53 65 80 89 93 95 95 95 96 96 99 106 119 132 133 113 78 46 25 12 4 0 -1 -2 -2 -2 -1 0 2 9 22 41 65 90 106 100 73 45 25 12 4 0 -1 -2 -2 -2 -2 -2 -2 -2 -2 -2 -2 -2 -2 -2 0 11 43 96 
107 78 79 101 106 88 58 29 11 2 -1 -2 -2 -2 -2 -2 -2 -2 -2 -2 -2 -2 -2 -2 -2 -2 -2 -1 -1 0 0 0 0 0 0 0 0 1 2 4 7 9 10 11 11 11 11 11 11 13 16 22 31 38 42 43 43 43 44 45 49 62 94 135 132 84 40 17 6 1 0 -2 -2 -2 -2 -2 -2 -2 -1 0 4 12 25 45 73 100 106 90 65 41 22 9 2 0 -1 -2 -2 -2 -2 -2 -2 -2 -2 -2 -2 -2 0 11 43 97 
122 109 112 104 75 45 22 8 1 -1 -2 -2 -2 -2 -2 -2 -2 -2 -2 -2 -2 -2 -2 -2 -2 -2 -2 -2 -2 -2 -2 -2 -2 -2 -2 -2 -2 -2 -1 -1 0 0 0 0 0 0 0 0 0 1 2 4 7 9 10 11 11 11 11 12 16 29 63 114 112 59 21 5 0 -1 -2 -2 -2 -2 -2 -2 -2 -2 -2 -2 0 1 6 15 32 58 86 104 104 86 58 32 15 6 1 0 -1 -2 -2 -2 -2 -2 -2 -2 -2 -2 0 11 43 99 
139 131 107 70 36 16 5 0 -1 -2 -2 -2 -2 -2 -2 -2 -2 -2 -2 -2 -2 -2 -2 -2 -2 -2 -2 -2 -2 -2 -2 -2 -2 -2 -2 -2 -2 -2 -2 -2 -2 -2 -2 -2 -2 -2 -2 -2 -2 -2 -1 -1 0 0 0 0 0 0 0 1 4 16 49 101 101 48 14 1 -1 -2 -2 -2 -2 -2 -2 -2 -2 -2 -2 -2 -2 -1 0 2 9 22 41 65 90 106 100 73 45 25 13 5 1 0 -2 -2 -2 -2 -2 -2 -2 -2 0 11 43 102 
142 117 71 34 13 3 0 -2 -2 -2 -2 -2 -2 -2 -2 -2 -2 -2 -2 -2 -2 -2 -2 -2 -2 -2 -2 -2 -2 -2 -2 -2 -2 -2 -2 -2 -2 -2 -2 -2 -2 -2 -2 -2 -2 -2 -2 -2 -2 -2 -2 -2 -2 -2 -2 -2 -2 -2 -2 -1 1 12 45 97 97 44 12 0 -2 -2 -2 -2 -2 -2 -2 -2 -2 -2 -2 -2 -2 -2 -2 -1 0 4 12 25 45 73 100 106 90 65 42 24 12 4 0 -1 -2 -2 -2 -2 -2 -2 0 10 42 103 
126 82 37 13 2 0 -2 -2 -2 -2 -2 -2 -2 -2 -2 -2 -2 -2 -2 -2 -2 -2 -2 -2 -2 -2 -2 -2 -2 -2 -2 -2 -2 -2 -2 -2 -2 -2 -2 -2 -2 -2 -2 -2 -2 -2 -2 -2 -2 -2 -2 -2 -2 -2 -2 -2 -2 -2 -2 -2 0 11 43 96 96 43 11 0 -2 -2 -2 -2 -2 -2 -2 -2 -2 -2 -2 -2 -2 -2 -2 -2 -2 0 1 6 15 32 58 86 104 105 89 64 41 22 9 2 0 -1 -2 -2 -2 -2 0 11 43 101 
108 58 20 4 0 -2 -2 -2 -2 -2 -2 -2 -2 -2 -2 -2 -2 -2 -2 -2 -2 -2 -2 -2 -2 -2 -2 -2 -2 -2 -2 -2 -2 -2 -2 -2 -2 -2 -2 -2 -2 -2 -2 -2 -2 -2 -2 -2 -2 -2 -2 -2 -2 -2 -2 -2 -2 -2 -2 -2 0 11 43 95 95 43 11 0 -2 -2 -2 -2 -2 -2 -2 -2 -2 -2 -2 -2 -2 -2 -2 -2 -2 -2 -1 0 2 9 22 41 64 89 105 104 86 58 32 15 6 2 0 0 -1 -1 1 11 43 98 
100 48 13 1 -1 -2 -2 -2 -2 -2 -2 -2 -2 -2 -2 -2 -2 -2 -2 -2 -2 -2 -2 -2 -2 -2 -2 -2 -2 -2 -2 -2 -2 -2 -2 -2 -2 -2 -2 -2 -2 -2 -2 -2 -2 -2 -2 -2 -2 -2 -2 -2 -2 -2 -2 -2 -2 -2 -2 -2 0 11 43 95 95 43 11 0 -2 -2 -2 -2 -2 -2 -2 -2 -2 -2 -2 -2 -2 -2 -2 -2 -2 -2 -2 -2 -1 0 4 12 24 42 66 91 107 101 74 45 26 16 11 7 4 2 4 13 45 97 
97 44 12 0 -2 -2 -2 -2 -2 -2 -2 -2 -2 -2 -2 -2 -2 -2 -2 -2 -2 -2 -2 -2 -2 -2 -2 -2 -2 -2 -2 -2 -2 -2 -2 -2 -2 -2 -2 -2 -2 -2 -2 -2 -2 -2 -2 -2 -2 -2 -2 -2 -2 -2 -2 -2 -2 -2 -2 -2 0 11 43 95 95 43 11 0 -2 -2 -2 -2 -2 -2 -2 -2 -2 -2 -2 -2 -2 -2 -2 -2 -2 -2 -2 -2 -2 -1 0 1 6 14 28 50 81 111 117 97 71 52 41 32 23 16 14 22 50 99 
98 44 12 1 -1 -2 -2 -2 -2 -2 -2 -2 -2 -2 -2 -2 -2 -2 -2 -2 -2 -2 -2 -2 -2 -2 -2 -2 -2 -2 -2 -2 -2 -2 -2 -2 -2 -2 -2 -2 -2 -2 -2 -2 -2 -2 -2 -2 -2 -2 -2 -2 -2 -2 -2 -2 -2 -2 -2 -2 0 11 43 95 95 43 11 0 -2 -2 -2 -2 -2 -2 -2 -2 -2 -2 -2 -2 -2 -2 -2 -2 -2 -2 -2 -2 -2 -2 -1 0 3 8 18 33 61 100 134 140 123 105 93 81 65 52 45 46 67 107 
102 46 14 3 1 0 0 0 0 -1 -1 -2 -2 -2 -2 -2 -2 -2 -2 -2 -2 -2 -2 -2 -2 -2 -2 -2 -2 -2 -2 -2 -2 -2 -2 -2 -2 -2 -2 -2 -2 -2 -2 -2 -2 -2 -2 -2 -2 -2 -2 -2 -2 -2 -2 -2 -2 -2 -2 -2 0 11 43 95 95 43 11 0 -2 -2 -2 -2 -2 -2 -2 -2 -2 -2 -2 -2 -2 -2 -2 -2 -2 -2 -2 -2 -1 0 2 5 12 23 37 54 79 110 130 127 113 104 103 107 106 101 95 92 103 126 
112 55 25 14 12 11 10 9 7 4 2 1 0 0 0 0 0 -1 -1 -2 -2 -2 -2 -2 -2 -2 -2 -2 -2 -2 -2 -2 -2 -2 -2 -2 -2 -2 -2 -2 -2 -2 -2 -2 -2 -2 -2 -2 -2 -2 -2 -2 -2 -2 -2 -2 -2 -2 -2 -2 0 11 43 95 95 43 11 0 -2 -2 -2 -2 -2 -2 -2 -2 -2 -2 -2 -2 -2 -2 -2 -2 -2 -1 0 1 4 8 15 25 42 62 82 98 108 107 92 70 55 50 54 66 81 92 102 114 132 146 
128 83 56 46 44 43 42 38 31 22 16 13 11 11 10 9 7 4 2 1 0 0 0 0 0 0 -1 -1 -2 -2 -2 -2 -2 -2 -2 -2 -2 -2 -2 -2 -2 -2 -2 -2 -2 -2 -2 -2 -2 -2 -2 -2 -2 -2 -2 -2 -2 -2 -2 -2 0 11 43 95 95 43 11 0 -2 -2 -2 -2 -2 -2 -2 -2 -2 -2 -2 -2 -2 -2 -2 -1 0 2 5 12 21 34 49 68 89 104 106 97 82 62 41 25 17 14 16 23 32 42 54 74 109 143 
146 124 105 98 96 95 93 89 80 65 53 46 44 43 42 38 31 22 16 13 11 11 11 10 9 7 4 2 1 0 0 0 0 0 -1 -1 -2 -2 -2 -2 -2 -2 -2 -2 -2 -2 -2 -2 -2 -2 -2 -2 -2 -2 -2 -2 -2 -2 -2 -2 0 11 43 95 95 43 11 0 -2 -2 -2 -2 -2 -2 -2 -2 -2 -2 -2 -2 -1 0 1 4 8 15 25 41 62 82 97 106 104 89 68 49 34 21 12 5 2 1 2 4 7 11 18 35 71 125 
142 124 105 98 96 96 98 101 106 106 101 98 96 95 93 89 80 65 53 46 44 43 43 42 38 31 22 16 13 11 11 10 9 7 4 2 1 0 0 0 0 0 0 -1 -1 -2 -2 -2 -2 -2 -2 -2 -2 -2 -2 -2 -2 -2 -2 -2 0 11 43 95 95 43 11 0 -2 -2 -2 -2 -2 -2 -2 -2 -2 -2 -1 0 1 5 12 21 34 49 68 89 104 106 97 82 62 41 25 15 8 4 1 0 -1 -1 -1 -1 0 1 5 17 51 110 
119 83 56 46 44 44 46 53 65 80 89 93 95 96 98 101 106 106 101 98 96 95 95 93 89 80 65 53 46 44 43 42 38 31 22 16 13 11 11 11 10 9 7 4 2 1 0 0 0 0 0 -1 -1 -2 -2 -2 -2 -2 -2 -1 0 11 43 96 95 43 11 0 -2 -2 -2 -2 -2 -2 -2 -2 -1 0 2 5 12 24 41 62 82 97 106 104 89 68 49 34 21 12 5 2 0 -1 -2 -2 -2 -2 -2 -2 -2 -1 1 12 45 101 
103 56 25 14 12 12 13 16 22 31 38 42 43 44 46 53 65 80 89 93 95 95 96 98 101 106 106 101 98 96 95 93 89 80 65 53 46 44 43 43 42 38 31 22 16 13 11 11 10 9 7 4 2 1 0 0 0 0 0 0 2 12 44 96 96 43 11 0 -2 -2 -2 -2 -2 -1 0 1 4 8 15 25 42 65 88 104 106 97 82 62 41 25 15 8 4 1 0 -1 -2 -2 -2 -2 -2 -2 -2 -2 -2 -2 0 11 43 97 
97 46 14 4 1 0 1 2 4 7 9 10 11 11 13 16 22 31 38 42 43 43 44 46 53 65 80 89 93 95 96 98 101 106 106 101 98 96 95 95 93 89 80 65 53 46 44 43 42 38 31 22 16 13 11 11 11 10 9 8 7 16 47 98 97 44 12 0 -1 -2 -1 -1 0 2 5 12 21 34 49 68 89 105 105 89 68 49 34 21 12 5 2 0 -1 -2 -2 -2 -2 -2 -2 -2 -2 -2 -2 -2 -2 -2 0 11 43 96 
96 44 12 1 -1 -2 -2 -1 -1 0 0 0 0 0 1 2 4 7 9 10 11 11 11 13 16 22 31 38 42 43 44 46 53 65 80 89 93 95 95 96 98 101 106 106 101 98 96 95 93 89 80 65 53 46 44 43 43 42 38 32 26 30 57 105 101 48 14 2 0 0 1 4 8 15 25 41 62 82 97 106 104 88 65 42 25 15 8 4 1 0 -1 -2 -2 -2 -2 -2 -2 -2 -2 -2 -2 -2 -2 -2 -2 -2 0 11 43 96 
96 43 11 0 -2 -2 -2 -2 -2 -2 -2 -2 -2 -2 -2 -1 -1 0 0 0 0 0 0 1 2 4 7 9 10 11 11 13 16 22 31 38 42 43 43 44 46 53 65 80 89 93 95 96 98 101 106 106 101 98 96 95 95 93 89 80 68 65 86 123 114 59 21 7 3 6 12 22 34 49 68 89 104 106 97 82 62 41 24 12 5 2 0 -1 -2 -2 -2 -2 -2 -2 -2 -2 -2 -2 -2 -2 -2 -2 -2 -2 -2 -2 0 11 43 95 
95 43 11 0 -2 -2 -2 -2 -2 -2 -2 -2 -2 -2 -2 -2 -2 -2 -2 -2 -2 -2 -2 -2 -1 -1 0 0 0 0 0 1 2 4 7 9 10 11 11 11 13 16 22 31 38 42 43 44 46 53 65 80 89 93 95 95 96 98 101 106 108 109 121 142 133 84 42 23 19 26 42 62 82 97 106 104 89 68 49 34 21 12 5 1 0 -1 -2 -2 -2 -2 -2 -2 -2 -2 -2 -2 -2 -2 -2 -2 -2 -2 -2 -2 -2 -2 0 11 43 95 
95 43 11 0 -2 -2 -2 -2 -2 -2 -2 -2 -2 -2 -2 -2 -2 -2 -2 -2 -2 -2 -2 -2 -2 -2 -2 -2 -2 -2 -2 -2 -1 -1 0 0 0 0 0 0 1 2 4 7 9 10 11 11 13 16 22 31 38 42 43 43 44 46 53 65 80 91 102 116 127 114 84 62 59 70 90 104 106 97 82 62 41 25 15 8 4 1 0 -1 -2 -2 -2 -2 -2 -2 -2 -2 -2 -2 -2 -2 -2 -2 -2 -2 -2 -2 -2 -2 -2 -2 0 11 43 95 
95 43 11 0 -2 -2 -2 -2 -2 -2 -2 -2 -2 -2 -2 -2 -2 -2 -2 -2 -2 -2 -2 -2 -2 -2 -2 -2 -2 -2 -2 -2 -2 -2 -2 -2 -2 -2 -2 -2 -2 -1 -1 0 0 0 0 0 1 2 4 7 9 10 11 11 11 13 16 22 31 39 46 58 83 114 128 120 112 110 105 89 68 49 34 22 12 5 2 0 -1 -1 -2 -2 -2 -2 -2 -2 -2 -2 -2 -2 -2 -2 -2 -2 -2 -2 -2 -2 -2 -2 -2 -2 -2 -2 0 11 43 95 
96 43 11 0 -2 -2 -2 -2 -2 -2 -2 -2 -2 -2 -2 -2 -2 -2 -2 -2 -2 -2 -2 -2 -2 -2 -2 -2 -2 -2 -2 -2 -2 -2 -2 -2 -2 -2 -2 -2 -2 -2 -2 -2 -2 -2 -2 -2 -1 -1 -1 0 0 0 0 0 0 1 2 4 7 10 13 21 42 84 133 142 115 88 63 42 25 15 8 4 1 0 -1 -2 -2 -2 -2 -2 -2 -2 -2 -2 -2 -2 -2 -2 -2 -2 -2 -2 -2 -2 -2 -2 -2 -2 -2 -2 -2 -2 0 11 43 96 
96 44 12 1 -1 -2 -2 -2 -2 -2 -2 -2 -2 -2 -2 -2 -2 -2 -2 -2 -2 -2 -2 -2 -2 -2 -2 -2 -2 -2 -2 -2 -2 -2 -2 -2 -2 -2 -2 -2 -2 -2 -2 -2 -2 -2 -2 -2 -2 -2 -1 -1 -1 -1 -1 -1 -1 -1 -1 0 0 1 2 7 22 59 114 121 78 44 24 13 6 2 0 0 -1 -1 -1 -2 -2 -2 -2 -2 -2 -2 -2 -2 -2 -2 -2 -2 -2 -2 -2 -2 -2 -2 -2 -2 -2 -2 -2 -2 -2 -1 1 12 44 96 
98 46 14 4 1 0 0 0 0 0 0 0 0 0 0 0 0 0 0 0 0 0 0 0 0 0 0 0 0 0 0 0 0 0 0 0 0 0 0 0 0 0 0 0 0 0 0 0 0 0 0 0 0 0 0 0 0 0 0 0 1 1 2 5 17 51 104 106 57 24 10 5 2 1 1 0 0 0 0 0 0 0 0 0 0 0 0 0 0 0 0 0 0 0 0 0 0 0 0 0 0 0 0 0 0 1 3 14 46 98 
105 56 25 14 12 11 11 11 11 11 11 11 11 11 11 11 11 11 11 11 11 11 11 11 11 11 11 11 11 11 11 11 11 10 11 11 11 11 11 11 11 11 11 11 11 11 11 11 11 11 11 11 11 11 11 11 11 11 11 11 11 11 12 15 26 57 106 107 59 27 16 13 12 11 11 11 11 11 11 11 11 11 11 11 11 11 11 11 11 11 11 11 10 11 11 11 11 11 11 11 11 11 11 11 11 11 14 25 56 105 
124 83 56 46 44 43 43 43 43 43 43 43 43 43 43 43 43 43 43 43 43 43 43 43 43 43 43 43 43 43 43 43 43 42 43 43 43 43 43 43 43 43 43 43 43 43 43 43 43 43 43 43 43 43 43 43 43 43 43 43 43 43 44 46 56 83 124 124 83 56 47 44 43 43 43 43 43 43 43 43 43 43 43 43 43 43 43 43 43 43 43 43 42 43 43 43 43 43 43 43 43 43 43 43 43 43 46 56 83 124 
154 124 105 98 96 96 95 95 95 95 95 95 95 95 95 95 95 95 95 95 95 95 95 95 95 95 95 95 96 96 97 99 102 103 101 98 96 96 95 95 95 95 95 95 95 95 96 97 99 103 103 99 97 96 95 95 95 95 95 95 95 96 96 97 103 118 140 140 119 103 97 96 96 95 95 95 95 95 95 95 95 95 95 95 95 95 95 95 96 96 98 101 103 101 98 96 96 95 95 95 96 96 98 101 104 102 100 106 125 154 
