P2
110 110
255
144 99 86 84 84 84 84 84 84 84 84 84 84 84 84 84 84 84 84 84 84 84 84 84 84 84 84 84 84 84 86 94 121 154 126 94 86 84 84 84 84 84 84 84 84 84 84 86 98 138 138 98 86 84 84 84 84 84 84 84 84 84 84 84 84 86 89 89 86 84 84 84 84 84 84 84 84 84 84 84 84 84 84 84 84 84 84 84 84 85 91 115 154 126 94 86 84 84 84 84 84 85 90 114 154 126 94 88 99 144 
99 36 18 16 15 15 15 15 15 15 15 15 15 15 15 15 15 15 15 15 15 15 15 15 15 15 15 15 15 16 23 54 116 109 48 21 16 15 15 15 15 15 15 15 15 15 16 18 37 100 99 36 18 16 15 15 15 15 15 15 15 15 15 15 15 15 15 15 15 15 15 15 15 15 15 15 15 15 15 15 15 15 15 15 15 15 15 15 16 19 36 95 116 51 22 16 15 15 15 15 16 18 32 88 118 52 22 19 36 99 
86 18 0 -2 -3 -3 -3 -3 -3 -3 -3 -3 -3 -3 -3 -3 -3 -3 -3 -3 -3 -3 -3 -3 -3 -3 -3 -3 -2 0 19 79 109 46 8 -1 -3 -3 -3 -3 -3 -3 -3 -3 -3 -3 -2 0 23 95 87 18 0 -2 -3 -3 -3 -3 -3 -3 -3 -3 -3 -3 -3 -3 -3 -3 -3 -3 -3 -3 -3 -3 -3 -3 -3 -3 -3 -3 -3 -3 -3 -3 -3 -3 -3 -3 -2 4 38 109 78 17 0 -2 -3 -3 -3 -3 -2 0 18 85 91 22 1 0 18 86 
84 16 -2 -5 -6 -6 -6 -6 -6 -6 -6 -6 -6 -6 -6 -6 -6 -6 -6 -6 -6 -6 -6 -6 -6 -6 -6 -5 -3 6 45 108 77 16 -2 -5 -6 -6 -6 -6 -6 -6 -6 -6 -6 -5 -4 2 39 123 89 16 -2 -5 -6 -6 -6 -6 -6 -6 -6 -6 -6 -6 -6 -6 -6 -6 -6 -6 -6 -6 -6 -6 -6 -6 -6 -6 -6 -6 -6 -6 -6 -6 -6 -6 -6 -5 -3 11 71 108 38 2 -4 -5 -6 -6 -6 -6 -5 -1 20 90 82 15 -2 -2 16 84 
84 15 -3 -6 -6 -6 -6 -6 -6 -6 -6 -6 -6 -6 -6 -6 -6 -6 -6 -6 -6 -6 -6 -6 -6 -6 -6 -5 1 33 100 100 33 1 -5 -6 -6 -6 -6 -6 -6 -6 -6 -6 -6 -5 -2 15 80 155 90 15 -3 -6 -6 -6 -6 -6 -6 -6 -6 -6 -6 -6 -6 -6 -6 -6 -6 -6 -6 -6 -6 -6 -6 -6 -6 -6 -6 -6 -6 -6 -6 -6 -6 -6 -6 -5 -2 19 88 88 19 -2 -5 -6 -6 -6 -6 -6 -5 1 36 108 69 11 -3 -2 15 84 
84 15 -3 -6 -6 -6 -6 -6 -6 -6 -6 -6 -6 -6 -6 -6 -6 -6 -6 -6 -6 -6 -6 -6 -6 -6 -5 -2 16 77 108 45 6 -4 -6 -6 -6 -6 -6 -6 -6 -6 -6 -6 -6 -5 2 37 114 145 88 15 -3 -6 -6 -6 -6 -6 -6 -6 -6 -6 -6 -6 -6 -6 -6 -6 -6 -6 -6 -6 -6 -6 -6 -6 -6 -6 -6 -6 -6 -6 -6 -6 -6 -6 -6 -5 2 37 108 70 11 -3 -6 -6 -6 -6 -6 -6 -3 10 69 108 36 1 -5 -3 15 84 
84 15 -3 -6 -6 -6 -6 -6 -6 -6 -6 -6 -6 -6 -6 -6 -6 -6 -6 -6 -6 -6 -6 -6 -6 -6 -4 6 45 108 77 16 -2 -5 -6 -6 -6 -6 -6 -6 -6 -6 -6 -6 -5 -2 15 77 122 118 87 16 -3 -6 -6 -6 -6 -6 -6 -6 -6 -6 -6 -6 -6 -6 -6 -6 -6 -6 -6 -6 -6 -6 -6 -6 -6 -6 -6 -6 -6 -6 -6 -6 -6 -6 -5 -2 15 77 107 35 1 -5 -6 -6 -6 -6 -6 -6 -3 15 82 90 20 -2 -5 -3 15 84 
84 15 -3 -6 -6 -6 -6 -6 -6 -6 -6 -6 -6 -6 -6 -6 -6 -6 -6 -6 -6 -6 -6 -6 -6 -5 1 33 100 100 33 1 -5 -6 -6 -6 -6 -6 -6 -6 -6 -6 -6 -6 -5 2 37 108 94 99 91 20 -2 -5 -6 -6 -6 -6 -6 -6 -6 -6 -6 -6 -6 -6 -6 -6 -6 -6 -6 -6 -6 -6 -6 -6 -6 -6 -6 -6 -6 -6 -6 -6 -6 -6 -5 1 35 107 77 15 -2 -5 -6 -6 -6 -6 -6 -5 -2 20 90 82 15 -3 -5 -3 15 84 
84 15 -3 -6 -6 -6 -6 -6 -6 -6 -6 -6 -6 -6 -6 -6 -6 -6 -6 -6 -6 -6 -6 -6 -5 -2 16 77 108 45 6 -4 -6 -6 -6 -6 -6 -6 -6 -6 -6 -6 -6 -5 -2 16 77 108 53 77 109 36 1 -5 -6 -6 -6 -6 -6 -6 -6 -6 -6 -6 -6 -6 -6 -6 -6 -6 -6 -6 -6 -6 -6 -6 -6 -6 -6 -6 -6 -6 -6 -6 -6 -6 -3 11 70 108 37 2 -5 -6 -6 -6 -6 -6 -6 -5 1 36 108 69 10 -3 -5 -3 15 84 
84 15 -3 -6 -6 -6 -6 -6 -6 -6 -6 -6 -6 -6 -6 -6 -6 -6 -6 -6 -6 -6 -6 -6 -4 6 45 108 77 16 -2 -5 -6 -6 -6 -6 -6 -6 -6 -6 -6 -6 -6 -4 6 45 108 77 23 39 108 69 10 -3 -6 -6 -6 -6 -6 -6 -6 -6 -6 -6 -6 -6 -6 -6 -6 -6 -6 -6 -6 -6 -6 -6 -6 -6 -6 -6 -6 -6 -6 -6 -6 -5 -2 19 88 88 19 -2 -5 -6 -6 -6 -6 -6 -6 -3 10 69 108 36 1 -5 -5 -3 15 84 
84 15 -3 -6 -6 -6 -6 -6 -6 -6 -6 -6 -6 -6 -6 -6 -6 -6 -6 -6 -6 -6 -6 -5 1 33 100 100 33 1 -5 -6 -6 -6 -6 -6 -6 -6 -6 -6 -6 -6 -5 1 33 100 100 33 5 21 91 81 14 -3 -6 -6 -6 -6 -6 -6 -6 -6 -6 -6 -6 -6 -6 -6 -6 -6 -6 -6 -6 -6 -6 -6 -6 -6 -6 -6 -6 -6 -6 -6 -6 -5 2 37 108 70 11 -3 -6 -6 -6 -6 -6 -6 -6 -3 15 82 90 20 -2 -5 -6 -3 15 84 
84 15 -3 -6 -6 -6 -6 -6 -6 -6 -6 -6 -6 -6 -6 -6 -6 -6 -6 -6 -6 -6 -5 -2 16 77 108 45 6 -4 -6 -6 -6 -6 -6 -6 -6 -6 -6 -6 -6 -5 -2 15 76 108 45 6 -1 16 85 84 15 -3 -6 -6 -6 -6 -6 -6 -6 -6 -6 -6 -6 -6 -6 -6 -6 -6 -6 -6 -6 -6 -6 -6 -6 -6 -6 -6 -6 -6 -6 -6 -5 -2 15 77 107 35 1 -5 -6 -6 -6 -6 -6 -6 -5 -2 20 90 82 15 -3 -6 -6 -3 15 84 
86 16 -3 -6 -6 -6 -6 -6 -6 -6 -6 -6 -6 -6 -6 -6 -6 -6 -6 -6 -6 -6 -4 6 45 108 77 16 -2 -5 -6 -6 -6 -6 -6 -6 -6 -6 -6 -6 -6 -5 2 37 107 77 16 -1 -2 15 84 84 15 -3 -6 -6 -6 -6 -6 -6 -6 -6 -6 -6 -6 -6 -6 -6 -6 -6 -6 -6 -6 -6 -6 -6 -6 -6 -6 -6 -6 -6 -6 -6 -5 1 35 107 77 15 -2 -5 -6 -6 -6 -6 -6 -6 -5 1 36 108 69 10 -3 -6 -6 -3 15 84 
94 21 -1 -5 -6 -6 -6 -6 -6 -6 -6 -6 -6 -6 -6 -6 -6 -6 -6 -6 -6 -5 1 33 100 100 33 1 -5 -6 -6 -6 -6 -6 -6 -6 -6 -6 -6 -6 -5 -2 15 77 107 37 2 -4 -3 15 84 85 16 -3 -6 -6 -6 -6 -6 -6 -6 -6 -6 -6 -6 -6 -6 -6 -6 -6 -6 -6 -6 -6 -6 -6 -6 -6 -6 -6 -6 -6 -6 -6 -3 11 70 108 37 2 -5 -6 -6 -6 -6 -6 -6 -6 -3 10 69 108 36 1 -5 -6 -6 -3 15 85 
126 48 7 -3 -5 -6 -6 -6 -6 -6 -6 -6 -6 -6 -6 -6 -6 -6 -6 -6 -5 -2 16 77 108 45 6 -4 -6 -6 -6 -6 -6 -6 -6 -6 -6 -6 -6 -6 -5 2 37 107 77 15 -2 -5 -3 14 81 91 20 -2 -5 -6 -6 -6 -6 -6 -6 -6 -6 -6 -6 -6 -6 -6 -6 -6 -6 -6 -6 -6 -6 -6 -6 -6 -6 -6 -6 -6 -6 -5 -2 19 88 88 19 -2 -5 -6 -6 -6 -6 -6 -6 -6 -3 15 82 90 20 -2 -5 -6 -6 -3 15 89 
154 108 42 7 -3 -6 -6 -6 -6 -6 -6 -6 -6 -6 -6 -6 -6 -6 -6 -6 -4 6 45 108 77 16 -2 -5 -6 -6 -6 -6 -6 -6 -6 -6 -6 -6 -6 -5 -2 16 77 107 37 2 -5 -6 -3 10 69 108 36 1 -5 -6 -6 -6 -6 -6 -6 -6 -6 -6 -6 -6 -6 -6 -6 -6 -6 -6 -6 -6 -6 -6 -6 -6 -6 -6 -6 -6 -6 -5 2 37 108 70 11 -3 -6 -6 -6 -6 -6 -6 -6 -5 -2 20 90 82 15 -3 -6 -6 -6 -3 15 90 
122 117 102 41 5 -4 -6 -6 -6 -6 -6 -6 -6 -6 -6 -6 -6 -6 -6 -5 1 33 100 100 33 1 -5 -6 -6 -6 -6 -6 -6 -6 -6 -6 -6 -6 -6 -4 6 45 108 76 15 -2 -5 -6 -5 1 36 108 69 10 -3 -6 -6 -6 -6 -6 -6 -6 -6 -6 -6 -6 -6 -6 -6 -6 -6 -6 -6 -6 -6 -6 -6 -6 -6 -6 -6 -6 -5 -2 15 77 107 35 1 -5 -6 -6 -6 -6 -6 -6 -6 -5 1 36 108 69 10 -3 -6 -6 -6 -3 15 87 
95 63 104 100 33 1 -5 -6 -6 -6 -6 -6 -6 -6 -6 -6 -6 -6 -5 -2 16 77 108 45 6 -4 -6 -6 -6 -6 -6 -6 -6 -6 -6 -6 -6 -6 -5 1 33 100 100 33 1 -5 -6 -6 -5 -2 20 91 81 14 -3 -6 -6 -6 -6 -6 -6 -6 -6 -6 -6 -6 -6 -6 -6 -6 -6 -6 -6 -6 -6 -6 -6 -6 -6 -6 -6 -6 -5 1 35 107 77 15 -2 -5 -6 -6 -6 -6 -6 -6 -6 -3 10 69 108 36 1 -5 -6 -6 -6 -3 15 85 
87 29 48 108 77 16 -2 -5 -6 -6 -6 -6 -6 -6 -6 -6 -6 -6 -4 6 45 108 77 16 -2 -5 -6 -6 -6 -6 -6 -6 -6 -6 -6 -6 -6 -5 -2 15 76 108 45 6 -4 -6 -6 -6 -6 -3 16 85 84 15 -3 -6 -6 -6 -6 -6 -6 -6 -6 -6 -6 -6 -6 -6 -6 -6 -6 -6 -6 -6 -6 -6 -6 -6 -6 -6 -6 -6 -3 11 70 108 37 2 -5 -6 -6 -6 -6 -6 -6 -6 -6 -3 15 82 90 20 -2 -5 -6 -6 -6 -3 15 84 
85 19 19 77 108 46 7 -3 -5 -6 -6 -6 -6 -6 -6 -6 -6 -5 1 33 100 100 33 1 -5 -6 -6 -6 -6 -6 -6 -6 -6 -6 -6 -6 -6 -5 2 37 107 77 16 -2 -5 -6 -6 -6 -6 -3 15 84 84 15 -3 -6 -6 -6 -6 -6 -6 -6 -6 -6 -6 -6 -6 -6 -6 -6 -6 -6 -6 -6 -6 -6 -6 -6 -6 -6 -6 -5 -2 19 88 88 19 -2 -5 -6 -6 -6 -6 -6 -6 -6 -5 -2 20 90 82 15 -3 -6 -6 -6 -6 -3 15 84 
84 16 4 33 100 102 42 7 -3 -5 -6 -6 -6 -6 -6 -6 -5 -2 16 77 108 45 6 -4 -6 -6 -6 -6 -6 -6 -6 -6 -6 -6 -6 -6 -5 -2 15 77 107 37 2 -5 -6 -6 -6 -6 -6 -3 15 84 85 16 -3 -6 -6 -6 -6 -6 -6 -6 -6 -6 -6 -6 -6 -6 -6 -6 -6 -6 -6 -6 -6 -6 -6 -6 -6 -6 -6 -5 2 37 108 70 11 -3 -6 -6 -6 -6 -6 -6 -6 -6 -5 1 36 108 69 10 -3 -6 -6 -6 -6 -3 15 84 
84 16 -1 6 41 101 101 42 7 -3 -5 -6 -6 -6 -6 -6 -4 6 45 108 77 16 -2 -5 -6 -6 -6 -6 -6 -6 -6 -6 -6 -6 -6 -6 -5 2 37 107 77 15 -2 -5 -6 -6 -6 -6 -6 -3 14 81 91 20 -2 -5 -6 -6 -6 -6 -6 -6 -6 -6 -6 -6 -6 -6 -6 -6 -6 -6 -6 -6 -6 -6 -6 -6 -6 -6 -5 -2 15 77 107 35 1 -5 -6 -6 -6 -6 -6 -6 -6 -6 -3 10 69 108 36 1 -5 -6 -6 -6 -6 -3 15 84 
84 15 -2 -3 7 42 101 101 42 7 -3 -5 -6 -6 -6 -5 1 33 100 100 33 1 -5 -6 -6 -6 -6 -6 -6 -6 -6 -6 -6 -6 -6 -5 -2 16 77 107 37 2 -5 -6 -6 -6 -6 -6 -6 -3 10 69 108 36 1 -5 -6 -6 -6 -6 -6 -6 -6 -6 -6 -6 -6 -6 -6 -6 -6 -6 -6 -6 -6 -6 -6 -6 -6 -6 -5 1 35 107 77 15 -2 -5 -6 -6 -6 -6 -6 -6 -6 -6 -3 15 82 90 20 -2 -5 -6 -6 -6 -6 -3 15 84 
84 15 -3 -5 -3 7 42 101 101 42 7 -3 -5 -6 -5 -2 16 77 108 45 6 -4 -6 -6 -6 -6 -6 -6 -6 -6 -6 -6 -6 -6 -6 -4 6 45 108 76 15 -2 -5 -6 -6 -6 -6 -6 -6 -5 1 36 108 69 10 -3 -6 -6 -6 -6 -6 -6 -6 -6 -6 -6 -6 -6 -6 -6 -6 -6 -6 -6 -6 -6 -6 -6 -6 -6 -3 11 70 108 37 2 -5 -6 -6 -6 -6 -6 -6 -6 -6 -5 -2 20 90 82 15 -3 -6 -6 -6 -6 -6 -3 15 84 
84 15 -3 -5 -5 -3 7 42 101 101 42 7 -3 -5 -4 6 45 108 77 16 -2 -5 -6 -6 -6 -6 -6 -6 -6 -6 -6 -6 -6 -6 -5 1 33 100 100 33 1 -5 -6 -6 -6 -6 -6 -6 -6 -5 -2 20 91 81 14 -3 -6 -6 -6 -6 -6 -6 -6 -6 -6 -6 -6 -6 -6 -6 -6 -6 -6 -6 -6 -6 -6 -6 -6 -5 -2 19 88 88 19 -2 -5 -6 -6 -6 -6 -6 -6 -6 -6 -5 1 36 108 69 10 -3 -6 -6 -6 -6 -6 -3 15 84 
84 15 -3 -6 -6 -5 -3 7 42 101 101 42 7 -2 2 33 100 100 33 1 -5 -6 -6 -6 -6 -6 -6 -6 -6 -6 -6 -6 -6 -5 -2 15 76 108 45 6 -4 -6 -6 -6 -6 -6 -6 -6 -6 -6 -3 16 85 84 15 -3 -6 -6 -6 -6 -6 -6 -6 -6 -6 -6 -6 -6 -6 -6 -6 -6 -6 -6 -6 -6 -6 -6 -6 -5 2 37 108 70 11 -3 -6 -6 -6 -6 -6 -6 -6 -6 -6 -3 10 69 108 36 1 -5 -6 -6 -6 -6 -6 -3 15 84 
84 15 -3 -6 -6 -6 -5 -3 7 42 101 101 42 11 19 77 108 45 6 -4 -6 -6 -6 -6 -6 -6 -6 -6 -6 -6 -6 -6 -6 -5 2 37 107 77 16 -2 -5 -6 -6 -6 -6 -6 -6 -6 -6 -6 -3 15 84 85 16 -3 -6 -6 -6 -6 -6 -6 -6 -6 -6 -6 -6 -6 -6 -6 -6 -6 -6 -6 -6 -6 -6 -6 -5 -2 15 77 107 35 1 -5 -6 -6 -6 -6 -6 -6 -6 -6 -6 -3 15 82 90 20 -2 -5 -6 -6 -6 -6 -6 -3 15 84 
84 15 -3 -6 -6 -6 -6 -5 -3 7 42 102 103 53 56 109 77 16 -2 -5 -6 -6 -6 -6 -6 -6 -6 -6 -6 -6 -6 -6 -5 -2 15 77 107 37 2 -5 -6 -6 -6 -6 -6 -6 -6 -6 -6 -6 -3 14 81 91 20 -2 -5 -6 -6 -6 -6 -6 -6 -6 -6 -6 -6 -6 -6 -6 -6 -6 -6 -6 -6 -6 -6 -6 -5 1 35 107 77 15 -2 -5 -6 -6 -6 -6 -6 -6 -6 -6 -5 -2 20 90 82 15 -3 -6 -6 -6 -6 -6 -6 -3 15 84 
84 15 -3 -6 -6 -6 -6 -6 -5 -3 7 42 104 127 127 102 33 1 -5 -6 -6 -6 -6 -6 -6 -6 -6 -6 -6 -6 -6 -6 -5 2 37 107 77 15 -2 -5 -6 -6 -6 -6 -6 -6 -6 -6 -6 -6 -3 10 69 108 36 1 -5 -6 -6 -6 -6 -6 -6 -6 -6 -6 -6 -6 -6 -6 -6 -6 -6 -6 -6 -6 -6 -6 -3 11 70 108 37 2 -5 -6 -6 -6 -6 -6 -6 -6 -6 -6 -5 1 36 108 69 10 -3 -6 -6 -6 -6 -6 -6 -3 15 84 
84 15 -3 -6 -6 -6 -6 -6 -6 -5 -3 7 48 127 128 47 6 -4 -6 -6 -6 -6 -6 -6 -6 -6 -6 -6 -6 -6 -6 -5 -2 16 77 107 37 2 -5 -6 -6 -6 -6 -6 -6 -6 -6 -6 -6 -6 -5 1 36 108 69 10 -3 -6 -6 -6 -6 -6 -6 -6 -6 -6 -6 -6 -6 -6 -6 -6 -6 -6 -6 -6 -6 -5 -2 19 88 88 19 -2 -5 -6 -6 -6 -6 -6 -6 -6 -6 -6 -3 10 69 108 36 1 -5 -6 -6 -6 -6 -6 -6 -3 15 84 
84 15 -3 -6 -6 -6 -6 -6 -6 -6 -5 -1 21 94 96 22 -1 -5 -6 -6 -6 -6 -6 -6 -6 -6 -6 -6 -6 -6 -6 -4 6 45 108 76 15 -2 -5 -6 -6 -6 -6 -6 -6 -6 -6 -6 -6 -6 -5 -2 20 91 81 14 -3 -6 -6 -6 -6 -6 -6 -6 -6 -6 -6 -6 -6 -6 -6 -6 -6 -6 -6 -6 -6 -5 2 37 108 70 11 -3 -6 -6 -6 -6 -6 -6 -6 -6 -6 -6 -3 15 82 90 20 -2 -5 -6 -6 -6 -6 -6 -6 -3 15 84 
84 15 -3 -6 -6 -6 -6 -6 -6 -6 -6 -3 15 83 92 21 -2 -5 -6 -6 -6 -6 -6 -6 -6 -6 -6 -6 -6 -6 -5 1 33 100 100 33 1 -5 -6 -6 -6 -6 -6 -6 -6 -6 -6 -6 -6 -6 -6 -3 16 85 84 15 -3 -6 -6 -6 -6 -6 -6 -6 -6 -6 -6 -6 -6 -6 -6 -6 -6 -6 -6 -6 -5 -2 15 77 107 35 1 -5 -6 -6 -6 -6 -6 -6 -6 -6 -6 -5 -2 20 90 82 15 -3 -6 -6 -6 -6 -6 -6 -6 -3 15 84 
84 15 -3 -6 -6 -6 -6 -6 -6 -6 -6 -3 10 69 108 36 1 -5 -6 -6 -6 -6 -6 -6 -6 -6 -6 -6 -6 -5 -2 15 76 108 45 6 -4 -6 -6 -6 -6 -6 -6 -6 -6 -6 -6 -6 -6 -6 -6 -3 15 84 84 15 -3 -6 -6 -6 -6 -6 -6 -6 -6 -6 -6 -6 -6 -6 -6 -6 -6 -6 -6 -6 -5 1 35 107 77 15 -2 -5 -6 -6 -6 -6 -6 -6 -6 -6 -6 -5 1 36 108 69 10 -3 -6 -6 -6 -6 -6 -6 -6 -3 15 84 
84 15 -3 -6 -6 -6 -6 -6 -6 -6 -6 -5 1 36 108 69 10 -3 -6 -6 -6 -6 -6 -6 -6 -6 -6 -6 -6 -5 2 37 107 77 16 -2 -5 -6 -6 -6 -6 -6 -6 -6 -6 -6 -6 -6 -6 -6 -6 -3 15 84 85 16 -3 -6 -6 -6 -6 -6 -6 -6 -6 -6 -6 -6 -6 -6 -6 -6 -6 -6 -6 -6 -3 11 70 108 37 2 -5 -6 -6 -6 -6 -6 -6 -6 -6 -6 -6 -3 10 69 108 36 1 -5 -6 -6 -6 -6 -6 -6 -6 -3 15 84 
84 15 -3 -6 -6 -6 -6 -6 -6 -6 -6 -5 -2 20 91 81 14 -3 -6 -6 -6 -6 -6 -6 -6 -6 -6 -6 -5 -2 15 77 107 37 2 -5 -6 -6 -6 -6 -6 -6 -6 -6 -6 -6 -6 -6 -6 -6 -6 -3 14 81 91 20 -2 -5 -6 -6 -6 -6 -6 -6 -6 -6 -6 -6 -6 -6 -6 -6 -6 -6 -6 -5 -2 19 88 88 19 -2 -5 -6 -6 -6 -6 -6 -6 -6 -6 -6 -6 -3 15 82 90 20 -2 -5 -6 -6 -6 -6 -6 -6 -6 -3 15 84 
84 15 -3 -6 -6 -6 -6 -6 -6 -6 -6 -6 -3 16 85 85 16 -3 -6 -6 -6 -6 -6 -6 -6 -6 -6 -6 -5 2 37 107 77 15 -2 -5 -6 -6 -6 -6 -6 -6 -6 -6 -6 -6 -6 -6 -6 -6 -6 -3 10 69 108 36 1 -5 -6 -6 -6 -6 -6 -6 -6 -6 -6 -6 -6 -6 -6 -6 -6 -6 -6 -5 2 37 108 70 11 -3 -6 -6 -6 -6 -6 -6 -6 -6 -6 -6 -5 -2 20 90 82 15 -3 -6 -6 -6 -6 -6 -6 -6 -6 -3 16 86 
85 15 -3 -6 -6 -6 -6 -6 -6 -6 -6 -6 -3 14 81 91 20 -2 -5 -6 -6 -6 -6 -6 -6 -6 -6 -5 -2 16 77 107 37 2 -5 -6 -6 -6 -6 -6 -6 -6 -6 -6 -6 -6 -6 -6 -6 -6 -6 -5 1 36 108 69 10 -3 -6 -6 -6 -6 -6 -6 -6 -6 -6 -6 -6 -6 -6 -6 -6 -6 -5 -2 15 77 107 35 1 -5 -6 -6 -6 -6 -6 -6 -6 -6 -6 -6 -5 1 36 108 69 10 -3 -6 -6 -6 -6 -6 -6 -6 -5 -2 20 93 
88 15 -3 -6 -6 -6 -6 -6 -6 -6 -6 -6 -3 10 69 108 36 1 -5 -6 -6 -6 -6 -6 -6 -6 -6 -4 6 45 108 76 15 -2 -5 -6 -6 -6 -6 -6 -6 -6 -6 -6 -6 -6 -6 -6 -6 -6 -6 -5 -2 20 91 81 14 -3 -6 -6 -6 -6 -6 -6 -6 -6 -6 -6 -6 -6 -6 -6 -6 -6 -5 1 35 107 77 15 -2 -5 -6 -6 -6 -6 -6 -6 -6 -6 -6 -6 -3 10 69 108 36 1 -5 -6 -6 -6 -6 -6 -6 -6 -5 2 38 123 
90 15 -3 -6 -6 -6 -6 -6 -6 -6 -6 -6 -5 1 36 108 69 10 -3 -6 -6 -6 -6 -6 -6 -6 -5 1 33 100 100 33 1 -5 -6 -6 -6 -6 -6 -6 -6 -6 -6 -6 -6 -6 -6 -6 -6 -6 -6 -6 -3 16 85 84 15 -3 -6 -6 -6 -6 -6 -6 -6 -6 -6 -6 -6 -6 -6 -6 -6 -6 -3 11 70 108 37 2 -5 -6 -6 -6 -6 -6 -6 -6 -6 -6 -6 -6 -3 15 82 90 20 -2 -5 -6 -6 -6 -6 -6 -6 -5 -2 16 81 155 
88 15 -3 -6 -6 -6 -6 -6 -6 -6 -6 -6 -5 -2 20 91 81 14 -3 -6 -6 -6 -6 -6 -6 -5 -2 15 76 108 45 6 -4 -6 -6 -6 -6 -6 -6 -6 -6 -6 -6 -6 -6 -6 -6 -6 -6 -6 -6 -6 -3 15 84 84 15 -3 -6 -6 -6 -6 -6 -6 -6 -6 -6 -6 -6 -6 -6 -6 -6 -5 -2 19 88 88 19 -2 -5 -6 -6 -6 -6 -6 -6 -6 -6 -6 -6 -5 -2 20 90 82 15 -3 -6 -6 -6 -6 -6 -6 -6 -4 6 45 116 144 
86 15 -3 -6 -6 -6 -6 -6 -6 -6 -6 -6 -6 -3 16 85 85 16 -3 -6 -6 -6 -6 -6 -6 -5 2 37 107 77 16 -2 -5 -6 -6 -6 -6 -6 -6 -6 -6 -6 -6 -6 -6 -6 -6 -6 -6 -6 -6 -6 -3 15 84 85 16 -3 -6 -6 -6 -6 -6 -6 -6 -6 -6 -6 -6 -6 -6 -6 -6 -5 2 37 108 70 11 -3 -6 -6 -6 -6 -6 -6 -6 -6 -6 -6 -6 -5 1 36 108 69 10 -3 -6 -6 -6 -6 -6 -6 -5 1 33 101 116 116 
85 15 -3 -6 -6 -6 -6 -6 -6 -6 -6 -6 -6 -3 14 81 91 20 -2 -5 -6 -6 -6 -6 -5 -2 15 77 107 37 2 -5 -6 -6 -6 -6 -6 -6 -6 -6 -6 -6 -6 -6 -6 -6 -6 -6 -6 -6 -6 -6 -3 14 81 91 20 -2 -5 -6 -6 -6 -6 -6 -6 -6 -6 -6 -6 -6 -6 -6 -5 -2 15 77 107 35 1 -5 -6 -6 -6 -6 -6 -6 -6 -6 -6 -6 -6 -3 10 69 108 36 1 -5 -6 -6 -6 -6 -6 -5 -2 16 77 110 65 94 
84 15 -3 -6 -6 -6 -6 -6 -6 -6 -6 -6 -6 -3 10 69 108 36 1 -5 -6 -6 -6 -6 -5 2 37 107 77 15 -2 -5 -6 -6 -6 -6 -6 -6 -6 -6 -6 -6 -6 -6 -6 -6 -6 -6 -6 -6 -6 -6 -3 10 69 108 36 1 -5 -6 -6 -6 -6 -6 -6 -6 -6 -6 -6 -6 -6 -6 -5 1 35 107 77 15 -2 -5 -6 -6 -6 -6 -6 -6 -6 -6 -6 -6 -6 -3 15 82 90 20 -2 -5 -6 -6 -6 -6 -6 -4 6 45 108 79 38 88 
84 15 -3 -6 -6 -6 -6 -6 -6 -6 -6 -6 -6 -5 1 36 108 69 10 -3 -6 -6 -6 -5 -2 16 77 107 37 2 -5 -6 -6 -6 -6 -6 -6 -6 -6 -6 -6 -6 -6 -6 -6 -6 -6 -6 -6 -6 -6 -6 -5 1 36 108 69 11 -3 -5 -6 -6 -6 -6 -6 -6 -6 -6 -6 -6 -6 -6 -3 11 70 108 37 2 -5 -6 -6 -6 -6 -6 -6 -6 -6 -6 -6 -6 -5 -2 20 90 82 15 -3 -6 -6 -6 -6 -6 -5 1 33 100 100 36 23 85 
84 15 -3 -6 -6 -6 -6 -6 -6 -6 -6 -6 -6 -5 -2 20 91 81 14 -3 -6 -6 -6 -4 6 45 108 76 15 -2 -5 -6 -6 -6 -6 -6 -6 -6 -6 -6 -6 -6 -6 -6 -6 -6 -6 -6 -6 -6 -6 -6 -5 -1 21 92 83 17 0 -2 -3 -3 -5 -5 -6 -6 -6 -6 -6 -6 -6 -5 -2 19 88 88 19 -2 -5 -6 -6 -6 -6 -6 -6 -6 -6 -6 -6 -6 -5 1 36 108 69 10 -3 -6 -6 -6 -6 -5 -2 16 77 108 45 9 17 84 
84 15 -3 -6 -6 -6 -6 -6 -6 -6 -6 -6 -6 -6 -3 16 85 85 16 -3 -6 -6 -5 1 33 100 100 33 1 -5 -6 -6 -6 -6 -6 -6 -6 -6 -6 -6 -6 -6 -6 -6 -6 -6 -6 -6 -6 -6 -6 -6 -4 0 23 96 99 36 18 15 14 10 1 -2 -3 -3 -3 -3 -3 -5 -5 -4 2 37 108 70 11 -3 -6 -6 -6 -6 -6 -6 -6 -6 -6 -6 -6 -6 -3 10 69 108 36 1 -5 -6 -6 -6 -6 -4 6 45 108 77 17 0 16 84 
84 15 -3 -6 -6 -6 -6 -6 -6 -6 -6 -6 -6 -6 -3 14 81 91 20 -2 -5 -5 -2 15 76 108 45 6 -4 -6 -6 -6 -6 -6 -6 -6 -6 -6 -6 -6 -6 -6 -6 -6 -6 -6 -6 -6 -6 -6 -5 -4 1 17 51 128 138 98 86 84 81 69 36 20 16 15 15 14 10 1 -1 0 17 78 107 35 1 -5 -6 -6 -6 -6 -6 -6 -6 -6 -6 -6 -6 -6 -3 15 82 90 20 -2 -5 -6 -6 -6 -5 1 33 100 100 33 2 -2 15 84 
84 15 -3 -6 -6 -6 -6 -6 -6 -6 -6 -6 -6 -6 -3 10 69 108 36 1 -5 -5 2 37 107 77 16 -2 -5 -6 -6 -6 -6 -6 -6 -6 -6 -6 -6 -6 -6 -6 -6 -6 -6 -6 -6 -6 -6 -5 -2 6 33 77 111 118 98 87 85 85 91 108 108 91 85 84 84 81 69 36 21 23 51 111 78 15 -2 -5 -6 -6 -6 -6 -6 -6 -6 -6 -6 -6 -6 -5 -2 20 90 82 15 -3 -6 -6 -6 -5 -2 16 77 108 45 6 -3 -2 15 84 
84 15 -3 -6 -6 -6 -6 -6 -6 -6 -6 -6 -6 -6 -5 1 36 108 69 10 -3 -2 15 77 107 37 2 -5 -6 -6 -6 -6 -6 -6 -6 -6 -6 -6 -6 -6 -6 -6 -6 -6 -6 -6 -6 -5 -4 1 16 45 100 108 78 38 20 16 15 16 20 36 69 81 84 84 85 91 108 108 92 96 128 125 42 3 -5 -6 -6 -6 -6 -6 -6 -6 -6 -6 -6 -6 -6 -5 1 36 108 69 10 -3 -6 -6 -6 -4 6 45 108 77 16 -2 -5 -3 15 84 
84 15 -3 -6 -6 -6 -6 -6 -6 -6 -6 -6 -6 -6 -5 -2 20 91 81 15 -2 2 37 107 77 15 -2 -5 -6 -6 -6 -6 -6 -6 -6 -6 -6 -6 -6 -6 -6 -6 -6 -6 -6 -6 -5 -2 6 33 77 108 100 45 16 2 -2 -3 -3 -3 -2 1 10 14 15 15 16 20 36 69 83 95 128 125 42 3 -4 -6 -6 -6 -6 -6 -6 -6 -6 -6 -6 -6 -6 -3 10 69 108 36 1 -5 -6 -6 -5 1 33 100 100 33 1 -5 -5 -3 15 84 
84 15 -3 -6 -6 -6 -6 -6 -6 -6 -6 -6 -6 -6 -6 -3 16 85 85 16 0 17 77 107 37 2 -5 -6 -6 -6 -6 -6 -6 -6 -6 -6 -6 -6 -6 -6 -6 -6 -6 -6 -6 -4 1 16 45 100 108 77 33 6 -2 -5 -5 -6 -6 -6 -5 -5 -3 -3 -3 -3 -3 -2 1 10 15 22 51 111 78 17 -2 -5 -6 -6 -6 -6 -6 -6 -6 -6 -6 -6 -6 -3 15 82 90 20 -2 -5 -6 -5 -2 16 77 108 45 6 -4 -6 -6 -3 15 84 
84 15 -3 -6 -6 -6 -6 -6 -6 -6 -6 -6 -6 -6 -6 -3 14 81 91 22 10 45 108 76 15 -2 -5 -6 -6 -6 -6 -6 -6 -6 -6 -6 -6 -6 -6 -6 -6 -6 -6 -5 -3 5 33 77 108 100 45 16 1 -4 -5 -6 -6 -6 -6 -6 -6 -6 -6 -6 -6 -6 -6 -5 -5 -3 -3 0 17 77 108 46 8 -2 -5 -5 -6 -6 -6 -6 -6 -6 -6 -6 -5 -1 20 90 82 15 -3 -6 -6 -4 6 45 108 77 16 -2 -5 -6 -6 -3 15 84 
84 15 -3 -6 -6 -6 -6 -6 -6 -6 -6 -6 -6 -6 -6 -3 10 69 109 44 41 101 100 33 1 -5 -6 -6 -6 -6 -6 -6 -6 -6 -6 -6 -6 -6 -6 -6 -6 -6 -5 -2 7 42 100 108 77 33 6 -2 -5 -6 -6 -6 -6 -6 -6 -6 -6 -6 -6 -6 -6 -6 -6 -6 -6 -6 -5 -4 1 33 101 104 47 17 2 -2 -3 -3 -3 -3 -3 -3 -3 -3 -2 4 38 109 70 11 -3 -5 -5 1 33 100 100 33 1 -5 -6 -6 -6 -3 15 84 
84 15 -3 -6 -6 -6 -6 -6 -6 -6 -6 -6 -6 -6 -6 -5 1 36 109 88 91 109 45 6 -4 -6 -6 -6 -6 -6 -6 -6 -6 -6 -6 -6 -6 -6 -6 -6 -5 -4 1 16 46 102 102 46 16 1 -4 -5 -6 -6 -6 -6 -6 -6 -6 -6 -6 -6 -6 -6 -6 -6 -6 -6 -6 -6 -6 -6 -4 6 46 119 125 80 38 20 16 15 15 15 15 15 15 16 18 31 85 118 43 4 -4 -5 -2 16 77 108 45 6 -4 -6 -6 -6 -6 -3 15 84 
84 15 -3 -6 -6 -6 -6 -6 -6 -6 -6 -6 -6 -6 -6 -5 -2 20 93 116 121 78 16 -2 -5 -6 -6 -6 -6 -6 -6 -6 -6 -6 -6 -6 -6 -6 -6 -5 -2 6 33 77 108 100 42 7 -2 -5 -6 -6 -6 -6 -6 -6 -6 -6 -6 -6 -6 -6 -6 -6 -6 -6 -6 -6 -6 -6 -6 -6 -5 -1 22 100 143 121 109 91 85 84 84 84 84 84 84 84 86 97 136 133 55 18 2 0 7 45 108 77 16 -2 -5 -6 -6 -6 -6 -3 15 84 
84 15 -3 -6 -6 -6 -6 -6 -6 -6 -6 -6 -6 -6 -6 -6 -3 16 89 144 114 37 2 -5 -6 -6 -6 -6 -6 -6 -6 -6 -6 -6 -6 -6 -6 -5 -4 1 16 45 100 108 77 33 5 -3 -5 -6 -6 -6 -6 -6 -6 -6 -6 -6 -6 -6 -6 -6 -6 -6 -6 -6 -6 -6 -6 -6 -6 -6 -5 -2 21 94 99 55 72 82 84 84 84 84 84 84 84 84 85 87 98 118 111 78 38 22 39 101 100 33 1 -5 -6 -6 -6 -6 -6 -3 15 84 
84 15 -3 -6 -6 -6 -6 -6 -6 -6 -6 -6 -6 -6 -6 -6 -3 15 91 155 80 15 -2 -5 -6 -6 -6 -6 -6 -6 -6 -6 -6 -6 -6 -6 -5 -2 6 33 77 108 100 45 16 1 -4 -6 -6 -6 -6 -6 -6 -6 -6 -6 -6 -6 -6 -6 -6 -6 -6 -6 -6 -6 -6 -6 -6 -6 -6 -6 -5 1 36 109 72 18 13 15 15 15 15 15 15 15 15 15 15 16 20 38 77 107 108 91 102 115 47 6 -4 -6 -6 -6 -6 -6 -6 -3 15 84 
84 15 -3 -6 -6 -6 -6 -6 -6 -6 -6 -6 -6 -6 -6 -6 -3 15 88 123 38 2 -5 -6 -6 -6 -6 -6 -6 -6 -6 -6 -6 -6 -5 -4 1 16 45 100 108 77 33 6 -2 -5 -6 -6 -6 -6 -6 -6 -6 -6 -6 -6 -6 -6 -6 -6 -6 -6 -6 -6 -6 -6 -6 -6 -6 -6 -6 -6 -3 10 69 108 36 2 -2 -3 -3 -3 -3 -3 -3 -3 -3 -3 -3 -3 -2 2 15 37 78 115 152 107 27 0 -5 -6 -6 -6 -6 -6 -6 -3 15 84 
84 15 -3 -6 -6 -6 -6 -6 -6 -6 -6 -6 -6 -6 -6 -6 -3 15 85 93 20 -2 -5 -6 -6 -6 -6 -6 -6 -6 -6 -5 -5 -3 -1 6 34 80 114 106 49 19 4 -1 -4 -5 -6 -6 -6 -6 -6 -6 -6 -6 -6 -6 -6 -6 -6 -6 -6 -6 -6 -6 -6 -6 -6 -6 -6 -6 -6 -6 -3 14 81 91 20 -2 -5 -6 -6 -6 -6 -6 -6 -6 -6 -6 -6 -6 -5 -5 -2 2 17 47 114 119 47 6 -4 -6 -6 -6 -6 -6 -6 -3 15 84 
84 15 -3 -6 -6 -6 -6 -6 -6 -6 -6 -6 -6 -6 -6 -6 -3 16 85 85 16 -3 -6 -6 -6 -6 -6 -6 -6 -5 -5 -2 1 11 20 47 111 153 135 73 32 20 15 11 1 -2 -3 -3 -5 -5 -6 -6 -6 -6 -6 -6 -6 -6 -6 -6 -6 -6 -6 -6 -6 -6 -6 -6 -6 -6 -6 -6 -3 15 84 85 16 -3 -6 -6 -6 -6 -6 -6 -6 -6 -6 -6 -6 -6 -6 -6 -5 -5 -2 7 43 103 101 33 1 -5 -6 -6 -6 -6 -6 -3 15 84 
84 15 -3 -6 -6 -6 -6 -6 -6 -6 -6 -6 -6 -6 -6 -5 -2 20 91 81 14 -3 -6 -6 -6 -6 -6 -5 -5 -2 2 15 35 70 88 111 117 106 117 114 92 85 82 69 36 20 15 10 1 -2 -3 -3 -3 -5 -5 -6 -6 -6 -6 -6 -6 -6 -6 -6 -6 -6 -6 -6 -6 -6 -6 -6 -3 16 85 84 15 -3 -6 -6 -6 -6 -6 -6 -6 -6 -6 -6 -6 -6 -6 -6 -6 -6 -5 -3 7 46 108 77 16 -2 -5 -6 -6 -6 -6 -3 15 84 
84 15 -3 -6 -6 -6 -6 -6 -6 -6 -6 -6 -6 -6 -6 -5 1 36 108 69 10 -3 -6 -6 -5 -5 -3 -2 2 15 37 77 107 108 88 71 37 24 37 69 81 85 91 108 108 90 82 69 36 20 16 14 10 1 -2 -3 -3 -5 -5 -6 -6 -6 -6 -6 -6 -6 -6 -6 -6 -6 -6 -5 -2 20 91 81 14 -3 -6 -6 -6 -6 -6 -6 -6 -6 -6 -6 -6 -6 -6 -6 -6 -6 -6 -5 -2 16 77 108 45 6 -4 -6 -6 -6 -6 -3 15 84 
84 15 -3 -6 -6 -6 -6 -6 -6 -6 -6 -6 -6 -6 -6 -3 10 69 108 36 1 -5 -5 -5 -2 1 11 19 37 77 107 107 77 37 19 11 1 -1 1 10 14 16 20 36 69 82 90 108 108 91 85 81 69 36 20 15 10 1 -2 -3 -3 -3 -5 -5 -6 -6 -6 -6 -6 -6 -6 -5 1 36 108 69 10 -3 -6 -6 -6 -6 -6 -6 -6 -6 -6 -6 -6 -6 -6 -6 -6 -6 -6 -6 -5 1 33 100 100 33 1 -5 -6 -6 -6 -3 15 84 
84 15 -3 -6 -6 -6 -6 -6 -6 -6 -6 -6 -6 -6 -6 -3 14 81 91 20 -1 -4 -2 2 15 35 70 88 108 107 77 37 15 2 -2 -3 -5 -5 -5 -3 -3 -3 -2 1 10 15 20 36 69 81 85 91 108 108 90 82 69 36 20 16 14 10 1 -2 -3 -3 -5 -5 -6 -6 -5 -3 10 69 108 36 1 -5 -6 -6 -6 -6 -6 -6 -6 -6 -6 -6 -6 -6 -6 -6 -6 -6 -6 -6 -6 -4 6 45 108 77 16 -2 -5 -6 -6 -3 15 84 
84 15 -3 -6 -6 -6 -6 -6 -6 -6 -6 -6 -6 -6 -6 -3 16 85 85 17 0 2 15 37 77 107 108 88 70 35 15 2 -2 -5 -5 -6 -6 -6 -6 -6 -6 -6 -5 -5 -3 -3 -2 1 10 14 16 20 36 69 82 90 108 108 91 85 81 69 36 20 15 10 1 -2 -3 -3 -3 -2 15 82 91 20 -2 -5 -6 -6 -6 -6 -6 -6 -6 -6 -6 -6 -6 -6 -6 -6 -6 -6 -6 -6 -6 -5 -2 16 77 108 46 7 -3 -5 -6 -3 15 84 
84 15 -3 -6 -6 -6 -6 -6 -6 -6 -6 -6 -6 -6 -5 -2 20 91 85 23 18 37 77 107 107 77 37 19 11 1 -2 -5 -5 -6 -6 -6 -6 -6 -6 -6 -6 -6 -6 -6 -6 -6 -5 -5 -3 -3 -3 -2 1 10 15 20 36 69 81 85 91 108 108 90 82 69 36 20 16 14 11 4 19 86 85 16 -3 -6 -6 -6 -6 -6 -6 -6 -6 -6 -6 -6 -6 -6 -6 -6 -6 -6 -6 -6 -6 -6 -5 1 33 100 102 42 5 -4 -5 -3 15 84 
84 15 -3 -6 -6 -6 -6 -6 -6 -6 -6 -6 -6 -6 -5 2 38 115 91 54 79 107 107 77 37 15 2 -2 -3 -5 -5 -6 -6 -6 -6 -6 -6 -6 -6 -6 -6 -6 -6 -6 -6 -6 -6 -6 -6 -6 -6 -5 -5 -3 -3 -2 1 10 14 16 20 36 69 82 90 108 108 91 85 81 70 39 40 98 86 15 -3 -6 -6 -6 -6 -6 -6 -6 -6 -6 -6 -6 -6 -6 -6 -6 -6 -6 -6 -6 -6 -6 -6 -4 5 42 102 100 33 1 -4 -3 15 84 
84 15 -3 -6 -6 -6 -6 -6 -6 -6 -6 -6 -6 -5 -2 15 82 150 120 113 107 77 37 15 2 -2 -5 -5 -6 -6 -6 -6 -6 -6 -6 -6 -6 -6 -6 -6 -6 -6 -6 -6 -6 -6 -6 -6 -6 -6 -6 -6 -6 -6 -6 -5 -5 -3 -3 -3 -2 1 10 15 20 36 69 81 85 91 108 110 105 139 89 15 -3 -6 -6 -6 -6 -6 -6 -6 -6 -6 -6 -6 -6 -6 -6 -6 -6 -6 -6 -6 -6 -6 -6 -6 -3 7 46 108 77 16 -1 -2 15 84 
84 15 -3 -6 -6 -6 -6 -6 -6 -6 -6 -6 -6 -5 2 37 115 127 93 71 35 15 2 -2 -5 -5 -6 -6 -6 -6 -6 -6 -6 -6 -6 -6 -6 -6 -6 -6 -6 -6 -6 -6 -6 -6 -6 -6 -6 -6 -6 -6 -6 -6 -6 -6 -6 -6 -6 -6 -5 -5 -3 -3 -2 1 10 14 16 20 36 71 96 138 89 15 -3 -6 -6 -6 -6 -6 -6 -6 -6 -6 -6 -6 -6 -6 -6 -6 -6 -6 -6 -6 -6 -6 -6 -6 -5 -2 16 77 108 46 8 0 16 84 
84 15 -3 -6 -6 -6 -6 -6 -6 -6 -6 -6 -5 -2 16 77 110 51 21 11 1 -2 -5 -5 -6 -6 -6 -6 -6 -6 -6 -6 -6 -6 -6 -6 -6 -6 -6 -6 -6 -6 -6 -6 -6 -6 -6 -6 -6 -6 -6 -6 -6 -6 -6 -6 -6 -6 -6 -6 -6 -6 -6 -6 -5 -5 -3 -3 -3 -2 1 13 35 98 86 15 -3 -6 -6 -6 -6 -6 -6 -6 -6 -6 -6 -6 -6 -6 -6 -6 -6 -6 -6 -6 -6 -6 -6 -6 -6 -5 1 33 100 102 42 8 17 84 
84 15 -3 -6 -6 -6 -6 -6 -6 -6 -6 -6 -4 6 45 108 77 17 0 -3 -5 -5 -6 -6 -6 -6 -6 -6 -6 -6 -6 -6 -6 -6 -6 -6 -6 -6 -6 -6 -6 -6 -6 -6 -6 -6 -6 -6 -6 -6 -6 -6 -6 -6 -6 -6 -6 -6 -6 -6 -6 -6 -6 -6 -6 -6 -6 -6 -6 -5 -5 0 18 86 84 15 -3 -6 -6 -6 -6 -6 -6 -6 -6 -6 -6 -6 -6 -6 -6 -6 -6 -6 -6 -6 -6 -6 -6 -6 -6 -6 -4 5 42 102 100 36 23 85 
84 15 -3 -6 -6 -6 -6 -6 -6 -6 -6 -5 1 33 100 100 33 1 -4 -6 -6 -6 -6 -6 -6 -6 -6 -6 -6 -6 -6 -6 -6 -6 -6 -6 -6 -6 -6 -6 -6 -6 -6 -6 -6 -6 -6 -6 -6 -6 -6 -6 -6 -6 -6 -6 -6 -6 -6 -6 -6 -6 -6 -6 -6 -6 -6 -6 -6 -6 -5 -2 16 84 84 15 -3 -6 -6 -6 -6 -6 -6 -6 -6 -6 -6 -6 -6 -6 -6 -6 -6 -6 -6 -6 -6 -6 -6 -6 -6 -6 -6 -3 7 46 108 79 38 88 
85 15 -3 -6 -6 -6 -6 -6 -6 -6 -5 -2 16 77 108 45 6 -4 -6 -6 -6 -6 -6 -6 -6 -6 -6 -6 -6 -6 -6 -6 -6 -6 -6 -6 -6 -6 -6 -6 -6 -6 -6 -6 -6 -6 -6 -6 -6 -6 -6 -6 -6 -6 -6 -6 -6 -6 -6 -6 -6 -6 -6 -6 -6 -6 -6 -6 -6 -6 -6 -3 15 84 85 16 -3 -6 -6 -6 -6 -6 -6 -6 -6 -6 -6 -6 -6 -6 -6 -6 -6 -6 -6 -6 -6 -6 -6 -6 -6 -6 -6 -5 -2 16 77 110 65 94 
86 15 -3 -6 -6 -6 -6 -6 -6 -5 -3 7 46 108 77 17 -2 -5 -6 -6 -6 -6 -6 -6 -6 -6 -6 -6 -6 -6 -6 -6 -6 -6 -6 -6 -6 -6 -6 -6 -6 -6 -6 -6 -6 -6 -6 -6 -6 -6 -6 -6 -6 -6 -6 -6 -6 -6 -6 -6 -6 -6 -6 -6 -6 -6 -6 -6 -6 -6 -5 -2 15 83 92 21 -1 -5 -6 -6 -6 -6 -6 -6 -6 -6 -6 -6 -6 -6 -6 -6 -6 -6 -6 -6 -6 -6 -6 -6 -6 -6 -6 -6 -5 1 33 101 116 116 
88 15 -3 -6 -6 -6 -6 -6 -5 -3 7 42 103 102 36 4 -2 -5 -5 -6 -6 -6 -6 -6 -6 -6 -6 -6 -6 -6 -6 -6 -6 -6 -6 -6 -6 -6 -6 -6 -6 -6 -6 -6 -6 -6 -6 -6 -6 -6 -6 -6 -6 -6 -6 -6 -6 -6 -6 -6 -6 -6 -6 -6 -6 -6 -6 -6 -6 -6 -5 0 18 83 117 48 8 -2 -5 -5 -6 -6 -6 -6 -6 -6 -6 -6 -6 -6 -6 -6 -6 -6 -6 -6 -6 -6 -6 -6 -6 -6 -6 -6 -6 -4 6 45 116 144 
90 15 -3 -6 -6 -6 -6 -5 -3 7 43 108 117 62 27 16 11 1 -2 -3 -3 -3 -3 -3 -3 -3 -3 -3 -3 -5 -5 -6 -6 -6 -6 -6 -6 -6 -6 -6 -6 -6 -6 -6 -6 -6 -6 -6 -6 -6 -6 -6 -6 -6 -6 -6 -6 -6 -6 -6 -6 -6 -6 -6 -6 -6 -6 -6 -5 -4 1 16 42 101 152 115 46 17 2 -2 -5 -6 -6 -6 -6 -6 -6 -6 -6 -6 -6 -6 -6 -6 -6 -6 -6 -6 -6 -6 -6 -6 -6 -6 -6 -5 -2 16 81 155 
88 15 -3 -6 -6 -6 -5 -3 7 43 113 154 122 95 86 82 69 36 20 16 15 15 15 15 15 15 15 14 10 1 -2 -3 -3 -3 -3 -3 -3 -3 -3 -3 -5 -5 -6 -6 -6 -6 -6 -6 -6 -6 -6 -6 -6 -6 -6 -6 -6 -6 -6 -6 -6 -6 -6 -6 -6 -6 -5 -5 -2 6 33 76 108 113 106 118 110 77 37 15 1 -4 -5 -6 -6 -6 -6 -6 -6 -6 -6 -6 -6 -6 -6 -6 -6 -6 -6 -6 -6 -6 -6 -6 -6 -6 -5 2 38 123 
85 15 -3 -6 -6 -5 -3 7 42 103 118 99 88 85 85 91 108 108 91 85 84 84 84 84 84 84 84 81 69 36 20 16 15 15 15 15 15 15 14 10 1 -2 -3 -3 -3 -3 -3 -3 -3 -3 -3 -3 -5 -5 -6 -6 -6 -6 -6 -6 -6 -6 -6 -6 -6 -5 -2 2 16 45 100 108 77 38 25 38 77 107 107 76 33 6 -2 -5 -5 -6 -6 -6 -6 -6 -6 -6 -6 -6 -6 -6 -6 -6 -6 -6 -6 -6 -6 -6 -6 -6 -5 -2 20 93 
84 15 -3 -5 -5 -3 7 42 101 102 47 22 16 15 16 20 36 69 81 84 84 84 84 84 84 84 85 91 108 108 91 85 84 84 84 84 84 84 81 69 36 20 16 15 15 15 15 15 15 15 14 10 1 -2 -3 -3 -3 -3 -3 -3 -3 -3 -3 -5 -4 1 15 37 77 108 100 45 16 2 -1 2 15 37 77 108 100 45 16 2 -2 -5 -6 -6 -6 -6 -6 -6 -6 -6 -6 -6 -6 -6 -6 -6 -6 -6 -6 -6 -6 -6 -6 -3 16 86 
84 15 -2 -4 -2 7 42 101 101 42 7 -1 -3 -3 -3 -2 1 10 14 15 15 15 15 15 15 15 16 20 36 69 81 84 84 84 84 84 84 85 91 108 108 91 85 84 84 84 84 84 84 84 81 69 36 20 16 15 15 15 15 15 15 14 11 3 7 33 76 107 107 76 33 6 -2 -5 -5 -5 -2 2 16 45 100 108 77 37 15 1 -4 -5 -6 -6 -6 -6 -6 -6 -6 -6 -6 -6 -6 -6 -6 -6 -6 -6 -6 -6 -6 -3 15 84 
84 16 -1 2 16 46 102 101 42 7 -3 -5 -6 -6 -6 -5 -5 -3 -3 -3 -3 -3 -3 -3 -3 -3 -3 -2 1 10 14 15 15 15 15 15 15 16 20 36 69 81 84 84 84 84 84 84 84 85 91 108 108 91 85 84 84 84 84 84 84 81 70 42 51 101 108 77 37 15 1 -4 -5 -6 -6 -6 -5 -5 -2 6 33 76 107 107 76 33 6 -2 -5 -5 -6 -6 -6 -6 -6 -6 -6 -6 -6 -6 -6 -6 -6 -6 -6 -6 -6 -3 15 84 
85 18 8 33 77 108 100 41 7 -3 -5 -6 -6 -6 -6 -6 -6 -6 -6 -6 -6 -6 -6 -6 -6 -6 -6 -5 -5 -3 -3 -3 -3 -3 -3 -3 -3 -3 -2 1 10 14 15 15 15 15 15 15 15 16 20 36 69 81 84 84 84 84 84 84 85 91 113 125 126 105 46 16 2 -2 -5 -6 -6 -6 -6 -6 -6 -6 -5 -4 1 15 37 77 108 100 45 16 2 -2 -5 -6 -6 -6 -6 -6 -6 -6 -6 -6 -6 -6 -6 -6 -6 -6 -6 -3 15 84 
86 28 44 100 108 77 33 5 -3 -5 -6 -6 -6 -6 -6 -6 -6 -6 -6 -6 -6 -6 -6 -6 -6 -6 -6 -6 -6 -6 -6 -6 -6 -6 -6 -6 -6 -6 -5 -5 -3 -3 -3 -3 -3 -3 -3 -3 -3 -3 -2 1 10 14 15 15 15 15 15 15 16 22 52 128 128 48 8 -2 -5 -5 -6 -6 -6 -6 -6 -6 -6 -6 -6 -6 -5 -2 2 16 45 100 108 77 37 15 1 -4 -5 -6 -6 -6 -6 -6 -6 -6 -6 -6 -6 -6 -6 -6 -6 -3 15 84 
95 62 104 102 46 16 1 -4 -6 -6 -6 -6 -6 -6 -6 -6 -6 -6 -6 -6 -6 -6 -6 -6 -6 -6 -6 -6 -6 -6 -6 -6 -6 -6 -6 -6 -6 -6 -6 -6 -6 -6 -6 -6 -6 -6 -6 -6 -6 -6 -5 -5 -3 -3 -3 -3 -3 -3 -3 -3 -2 0 22 95 95 21 -1 -5 -6 -6 -6 -6 -6 -6 -6 -6 -6 -6 -6 -6 -6 -5 -5 -2 6 33 76 107 107 76 33 6 -2 -5 -5 -6 -6 -6 -6 -6 -6 -6 -6 -6 -6 -6 -6 -3 15 85 
122 117 103 42 7 -2 -5 -6 -6 -6 -6 -6 -6 -6 -6 -6 -6 -6 -6 -6 -6 -6 -6 -6 -6 -6 -6 -6 -6 -6 -6 -6 -6 -6 -6 -6 -6 -6 -6 -6 -6 -6 -6 -6 -6 -6 -6 -6 -6 -6 -6 -6 -6 -6 -6 -6 -6 -6 -6 -6 -5 -2 16 86 86 16 -3 -6 -6 -6 -6 -6 -6 -6 -6 -6 -6 -6 -6 -6 -6 -6 -6 -5 -4 1 15 37 77 108 100 45 16 2 -2 -5 -5 -6 -6 -6 -6 -6 -6 -6 -6 -6 -6 -3 15 87 
154 108 42 7 -3 -5 -6 -6 -6 -6 -6 -6 -6 -6 -6 -6 -6 -6 -6 -6 -6 -6 -6 -6 -6 -6 -6 -6 -6 -6 -6 -6 -6 -6 -6 -6 -6 -6 -6 -6 -6 -6 -6 -6 -6 -6 -6 -6 -6 -6 -6 -6 -6 -6 -6 -6 -6 -6 -6 -6 -6 -3 15 84 84 15 -3 -6 -6 -6 -6 -6 -6 -6 -6 -6 -6 -6 -6 -6 -6 -6 -6 -6 -6 -5 -2 2 16 45 100 108 77 37 15 2 -2 -5 -6 -6 -6 -6 -6 -6 -6 -6 -6 -3 15 90 
126 48 7 -3 -5 -6 -6 -6 -6 -6 -6 -6 -6 -6 -6 -6 -6 -6 -6 -6 -6 -6 -6 -6 -6 -6 -6 -6 -6 -6 -6 -6 -6 -6 -6 -6 -6 -6 -6 -6 -6 -6 -6 -6 -6 -6 -6 -6 -6 -6 -6 -6 -6 -6 -6 -6 -6 -6 -6 -6 -6 -3 15 84 84 15 -3 -6 -6 -6 -6 -6 -6 -6 -6 -6 -6 -6 -6 -6 -6 -6 -6 -6 -6 -6 -5 -5 -2 6 33 76 107 107 77 37 15 1 -4 -5 -6 -6 -6 -6 -6 -6 -6 -3 15 89 
94 21 -1 -5 -6 -6 -6 -6 -6 -6 -6 -6 -6 -6 -6 -6 -6 -6 -6 -6 -6 -6 -6 -6 -6 -6 -6 -6 -6 -6 -6 -6 -6 -6 -6 -6 -6 -6 -6 -6 -6 -6 -6 -6 -6 -6 -6 -6 -6 -6 -6 -6 -6 -6 -6 -6 -6 -6 -6 -6 -6 -3 15 84 84 15 -3 -6 -6 -6 -6 -6 -6 -6 -6 -6 -6 -6 -6 -6 -6 -6 -6 -6 -6 -6 -6 -6 -5 -4 1 15 37 77 107 107 76 33 6 -2 -5 -5 -6 -6 -6 -6 -6 -3 15 85 
86 16 -3 -6 -6 -6 -6 -6 -6 -6 -6 -6 -6 -6 -6 -6 -6 -6 -6 -6 -6 -6 -6 -6 -6 -6 -6 -6 -6 -6 -6 -6 -6 -6 -6 -6 -6 -6 -6 -6 -6 -6 -6 -6 -6 -6 -6 -6 -6 -6 -6 -6 -6 -6 -6 -6 -6 -6 -6 -6 -6 -3 15 84 84 15 -3 -6 -6 -6 -6 -6 -6 -6 -6 -6 -6 -6 -6 -6 -6 -6 -6 -6 -6 -6 -6 -6 -6 -6 -5 -2 2 15 37 77 108 100 45 16 2 -2 -3 -3 -5 -5 -5 -2 15 84 
84 15 -3 -6 -6 -6 -6 -6 -6 -6 -6 -6 -6 -6 -6 -6 -6 -6 -6 -6 -6 -6 -6 -6 -6 -6 -6 -6 -6 -6 -6 -6 -6 -6 -6 -6 -6 -6 -6 -6 -6 -6 -6 -6 -6 -6 -6 -6 -6 -6 -6 -6 -6 -6 -6 -6 -6 -6 -6 -6 -6 -3 15 84 84 15 -3 -6 -6 -6 -6 -6 -6 -6 -6 -6 -6 -6 -6 -6 -6 -6 -6 -6 -6 -6 -6 -6 -6 -6 -6 -5 -5 -2 2 17 46 103 111 80 38 20 15 10 1 -2 -2 0 16 85 
84 15 -3 -6 -6 -6 -6 -6 -6 -6 -6 -6 -6 -6 -6 -6 -6 -6 -6 -6 -6 -6 -6 -6 -6 -6 -6 -6 -6 -6 -6 -6 -6 -6 -6 -6 -6 -6 -6 -6 -6 -6 -6 -6 -6 -6 -6 -6 -6 -6 -6 -6 -6 -6 -6 -6 -6 -6 -6 -6 -6 -3 15 84 84 15 -3 -6 -6 -6 -6 -6 -6 -6 -6 -6 -6 -6 -6 -6 -6 -6 -6 -6 -6 -6 -6 -6 -6 -6 -6 -6 -5 -4 -2 1 14 54 111 150 124 93 83 69 36 20 15 14 23 87 
86 16 -2 -5 -6 -6 -6 -6 -6 -6 -6 -6 -6 -6 -6 -6 -6 -6 -6 -6 -6 -6 -6 -6 -6 -6 -6 -6 -6 -6 -6 -6 -6 -6 -6 -6 -6 -6 -6 -6 -6 -6 -6 -6 -6 -6 -6 -6 -6 -6 -6 -6 -6 -6 -6 -6 -6 -6 -6 -6 -6 -3 15 84 84 15 -3 -6 -6 -6 -6 -6 -6 -6 -6 -6 -6 -6 -6 -6 -6 -6 -6 -6 -6 -6 -6 -6 -6 -6 -5 -5 -2 1 11 19 39 84 121 122 97 88 91 108 108 90 83 72 56 101 
91 18 0 -2 -3 -3 -3 -3 -3 -5 -5 -6 -6 -6 -6 -6 -6 -6 -6 -6 -6 -6 -6 -6 -6 -6 -6 -6 -6 -6 -6 -6 -6 -6 -6 -6 -6 -6 -6 -6 -6 -6 -6 -6 -6 -6 -6 -6 -6 -6 -6 -6 -6 -6 -6 -6 -6 -6 -6 -6 -6 -3 15 84 84 15 -3 -6 -6 -6 -6 -6 -6 -6 -6 -6 -6 -6 -6 -6 -6 -6 -6 -6 -6 -6 -6 -5 -5 -3 -2 2 15 35 70 88 108 107 78 38 20 17 20 36 69 82 90 110 121 143 
103 36 18 16 15 15 15 14 10 1 -2 -3 -3 -3 -3 -3 -3 -5 -5 -6 -6 -6 -6 -6 -6 -6 -6 -6 -6 -6 -6 -6 -6 -6 -6 -6 -6 -6 -6 -6 -6 -6 -6 -6 -6 -6 -6 -6 -6 -6 -6 -6 -6 -6 -6 -6 -6 -6 -6 -6 -6 -3 15 84 84 15 -3 -6 -6 -6 -6 -6 -6 -6 -6 -6 -6 -6 -6 -6 -6 -6 -6 -6 -6 -5 -5 -2 1 11 19 37 77 107 108 88 70 35 15 2 -2 -2 -2 1 10 15 20 38 85 137 
140 99 86 84 84 84 84 81 69 36 20 16 15 15 15 14 10 1 -2 -3 -3 -3 -3 -3 -3 -3 -5 -5 -6 -6 -6 -6 -6 -6 -6 -6 -6 -6 -6 -6 -6 -6 -6 -6 -6 -6 -6 -6 -6 -6 -6 -6 -6 -6 -6 -6 -6 -6 -6 -6 -6 -3 15 84 84 15 -3 -6 -6 -6 -6 -6 -6 -6 -6 -6 -6 -6 -6 -6 -6 -6 -5 -5 -3 -2 2 15 35 70 88 108 107 77 37 19 11 1 -2 -5 -5 -6 -5 -5 -3 -3 -1 4 31 102 
138 99 86 84 84 84 85 91 108 108 91 85 84 84 84 81 69 36 20 16 15 15 15 15 14 10 1 -2 -3 -3 -3 -3 -3 -3 -5 -5 -6 -6 -6 -6 -6 -6 -6 -6 -6 -6 -6 -6 -6 -6 -6 -6 -6 -6 -6 -6 -6 -6 -6 -6 -6 -3 15 84 84 15 -3 -6 -6 -6 -6 -6 -6 -6 -6 -6 -6 -6 -6 -6 -5 -5 -2 1 11 19 37 77 107 108 88 70 35 15 2 -2 -3 -5 -5 -6 -6 -6 -6 -6 -6 -6 -5 -2 18 91 
98 36 18 16 15 15 16 20 36 69 81 84 84 84 85 91 108 108 91 85 84 84 84 84 81 69 36 20 16 15 15 15 14 10 1 -2 -3 -3 -3 -3 -3 -3 -3 -5 -5 -6 -6 -6 -6 -6 -6 -6 -6 -6 -6 -6 -6 -6 -6 -6 -6 -3 15 84 84 15 -3 -6 -6 -6 -6 -6 -6 -6 -6 -6 -6 -6 -5 -5 -2 2 15 35 70 88 108 107 77 37 19 11 1 -2 -5 -5 -6 -6 -6 -6 -6 -6 -6 -6 -6 -6 -6 -3 16 86 
86 18 0 -2 -3 -3 -3 -2 1 10 14 15 15 15 16 20 36 69 81 84 84 84 84 85 91 108 108 91 85 84 84 84 81 69 36 20 16 15 15 15 15 14 10 1 -2 -3 -3 -3 -3 -3 -3 -5 -5 -6 -6 -6 -6 -6 -6 -6 -5 -3 15 84 84 15 -3 -6 -6 -6 -6 -6 -6 -6 -6 -5 -5 -3 -2 2 15 37 77 107 108 88 70 35 15 2 -2 -3 -5 -5 -6 -6 -6 -6 -6 -6 -6 -6 -6 -6 -6 -6 -6 -3 15 84 
84 16 -2 -5 -6 -6 -6 -5 -5 -3 -3 -3 -3 -3 -3 -2 1 10 14 15 15 15 15 16 20 36 69 81 84 84 84 85 91 108 108 91 85 84 84 84 84 81 69 36 20 16 15 15 15 14 10 1 -2 -3 -3 -3 -3 -3 -3 -3 -5 -2 16 84 84 15 -3 -6 -6 -6 -6 -6 -6 -5 -5 -2 1 11 19 37 77 107 107 77 37 19 11 1 -2 -5 -5 -6 -6 -6 -6 -6 -6 -6 -6 -6 -6 -6 -6 -6 -6 -6 -6 -3 15 84 
84 15 -3 -6 -6 -6 -6 -6 -6 -6 -6 -6 -6 -6 -6 -5 -5 -3 -3 -3 -3 -3 -3 -3 -2 1 10 14 15 15 15 16 20 36 69 81 84 84 84 84 85 91 108 108 91 85 84 84 84 81 69 36 20 16 15 15 15 15 14 10 1 0 18 86 86 16 -3 -5 -6 -6 -5 -5 -3 -2 2 15 35 70 88 108 107 77 37 15 2 -2 -3 -5 -5 -6 -6 -6 -6 -6 -6 -6 -6 -6 -6 -6 -6 -6 -6 -6 -6 -6 -6 -3 15 84 
84 15 -3 -6 -6 -6 -6 -6 -6 -6 -6 -6 -6 -6 -6 -6 -6 -6 -6 -6 -6 -6 -6 -6 -5 -5 -3 -3 -3 -3 -3 -3 -2 1 10 14 15 15 15 15 16 20 36 69 81 84 84 84 85 91 108 108 91 85 84 84 84 84 81 69 36 23 37 99 95 22 -1 -5 -5 -5 -2 1 11 19 37 77 107 108 88 70 35 15 2 -2 -5 -5 -6 -6 -6 -6 -6 -6 -6 -6 -6 -6 -6 -6 -6 -6 -6 -6 -6 -6 -6 -6 -6 -3 15 84 
84 15 -3 -6 -6 -6 -6 -6 -6 -6 -6 -6 -6 -6 -6 -6 -6 -6 -6 -6 -6 -6 -6 -6 -6 -6 -6 -6 -6 -6 -6 -6 -5 -5 -3 -3 -3 -3 -3 -3 -3 -2 1 10 14 15 15 15 16 20 36 69 81 84 84 84 84 85 91 108 108 92 99 138 128 48 8 -1 -1 2 15 35 70 88 108 107 77 37 19 11 1 -2 -5 -5 -6 -6 -6 -6 -6 -6 -6 -6 -6 -6 -6 -6 -6 -6 -6 -6 -6 -6 -6 -6 -6 -6 -6 -3 15 84 
84 15 -3 -6 -6 -6 -6 -6 -6 -6 -6 -6 -6 -6 -6 -6 -6 -6 -6 -6 -6 -6 -6 -6 -6 -6 -6 -6 -6 -6 -6 -6 -6 -6 -6 -6 -6 -6 -6 -6 -6 -5 -5 -3 -3 -3 -3 -3 -3 -2 1 10 14 15 15 15 15 16 20 36 69 82 87 98 120 105 47 22 21 38 77 107 108 88 70 35 15 2 -2 -3 -5 -5 -6 -6 -6 -6 -6 -6 -6 -6 -6 -6 -6 -6 -6 -6 -6 -6 -6 -6 -6 -6 -6 -6 -6 -6 -6 -3 15 84 
84 15 -3 -6 -6 -6 -6 -6 -6 -6 -6 -6 -6 -6 -6 -6 -6 -6 -6 -6 -6 -6 -6 -6 -6 -6 -6 -6 -6 -6 -6 -6 -6 -6 -6 -6 -6 -6 -6 -6 -6 -6 -6 -6 -6 -6 -6 -6 -6 -5 -5 -3 -3 -3 -3 -3 -3 -3 -2 1 10 14 16 22 47 105 120 100 93 109 107 77 37 19 11 1 -2 -5 -5 -6 -6 -6 -6 -6 -6 -6 -6 -6 -6 -6 -6 -6 -6 -6 -6 -6 -6 -6 -6 -6 -6 -6 -6 -6 -6 -6 -6 -3 15 84 
84 15 -3 -6 -6 -6 -6 -6 -6 -6 -6 -6 -6 -6 -6 -6 -6 -6 -6 -6 -6 -6 -6 -6 -6 -6 -6 -6 -6 -6 -6 -6 -6 -6 -6 -6 -6 -6 -6 -6 -6 -6 -6 -6 -6 -6 -6 -6 -6 -6 -6 -6 -6 -6 -6 -6 -6 -6 -5 -5 -3 -3 -3 -1 8 48 128 138 95 71 35 15 2 -2 -3 -5 -5 -6 -6 -6 -6 -6 -6 -6 -6 -6 -6 -6 -6 -6 -6 -6 -6 -6 -6 -6 -6 -6 -6 -6 -6 -6 -6 -6 -6 -6 -6 -3 15 84 
84 15 -3 -6 -6 -6 -6 -6 -6 -6 -6 -6 -6 -6 -6 -6 -6 -6 -6 -6 -6 -6 -6 -6 -6 -6 -6 -6 -6 -6 -6 -6 -6 -6 -6 -6 -6 -6 -6 -6 -6 -6 -6 -6 -6 -6 -6 -6 -6 -6 -6 -6 -6 -6 -6 -6 -6 -6 -6 -6 -6 -6 -5 -5 -1 22 95 99 35 13 1 -2 -5 -5 -6 -6 -6 -6 -6 -6 -6 -6 -6 -6 -6 -6 -6 -6 -6 -6 -6 -6 -6 -6 -6 -6 -6 -6 -6 -6 -6 -6 -6 -6 -6 -6 -6 -3 15 84 
84 16 -2 -5 -6 -6 -6 -6 -6 -6 -6 -6 -6 -6 -6 -6 -6 -6 -6 -6 -6 -6 -6 -6 -6 -6 -6 -6 -6 -6 -6 -6 -6 -6 -6 -6 -6 -6 -6 -6 -6 -6 -6 -6 -6 -6 -6 -6 -6 -6 -6 -6 -6 -6 -6 -6 -6 -6 -6 -6 -6 -6 -5 -5 -2 16 86 87 18 0 -4 -5 -5 -6 -6 -6 -6 -6 -6 -6 -6 -6 -6 -6 -6 -6 -6 -6 -6 -6 -6 -6 -6 -6 -6 -6 -6 -6 -6 -6 -6 -6 -6 -6 -6 -6 -5 -2 16 84 
86 18 0 -2 -3 -3 -3 -3 -3 -3 -3 -3 -3 -3 -3 -3 -3 -3 -3 -3 -3 -3 -3 -3 -3 -3 -3 -3 -3 -3 -3 -3 -3 -3 -3 -3 -3 -3 -3 -3 -3 -3 -3 -3 -3 -3 -3 -3 -3 -3 -3 -3 -3 -3 -3 -3 -3 -3 -3 -3 -3 -3 -3 -2 0 18 87 87 19 0 -2 -3 -3 -3 -3 -3 -3 -3 -3 -3 -3 -3 -3 -3 -3 -3 -3 -3 -3 -3 -3 -3 -3 -3 -3 -3 -3 -3 -3 -3 -3 -3 -3 -3 -3 -3 -2 0 18 86 
99 36 18 16 15 15 15 15 15 15 15 15 15 15 15 15 15 15 15 15 15 15 15 15 15 15 15 15 15 15 15 15 15 15 15 15 15 15 15 15 15 15 15 15 15 15 15 15 15 15 15 15 15 15 15 15 15 15 15 15 15 15 15 16 18 36 99 99 36 18 16 15 15 15 15 15 15 15 15 15 15 15 15 15 15 15 15 15 15 15 15 15 15 15 15 15 15 15 15 15 15 15 15 15 15 15 16 18 36 99 
144 99 86 84 84 84 84 84 84 84 84 84 84 84 84 84 84 84 84 84 84 84 84 84 84 84 84 84 84 84 84 85 87 90 89 85 84 84 84 84 84 84 84 84 84 84 84 84 86 89 89 86 84 84 84 84 84 84 84 84 84 84 84 84 86 98 138 138 98 86 84 84 84 84 84 84 84 84 84 84 84 84 84 84 84 84 84 84 84 84 85 86 90 89 85 84 84 84 84 84 84 84 85 86 90 89 86 87 99 144 
