P2
110 110
255
153 115 98 93 93 93 93 93 93 93 93 93 93 93 93 93 93 93 93 93 93 93 93 93 93 93 93 93 93 94 97 110 136 152 129 104 95 93 93 93 93 93 93 93 93 93 93 97 112 144 143 112 97 93 93 93 93 93 93 93 93 93 93 93 93 95 100 100 95 93 93 93 93 93 93 93 93 93 93 93 93 93 93 93 93 93 93 93 93 95 105 130 152 130 105 95 93 93 93 93 93 95 104 129 152 131 106 100 115 153 
115 60 36 30 29 29 29 29 29 29 29 29 29 29 29 29 29 29 29 29 29 29 29 29 29 29 29 29 30 33 45 79 125 116 68 40 31 30 29 29 29 29 29 29 29 29 30 36 61 117 115 60 36 30 29 29 29 29 29 29 29 29 29 29 29 29 29 29 29 29 29 29 29 29 29 29 29 29 29 29 29 29 29 29 29 29 29 29 31 37 61 111 123 73 41 32 30 29 29 29 30 34 54 104 126 76 43 38 60 115 
98 36 9 3 2 2 2 2 2 2 2 2 2 2 2 2 2 2 2 2 2 2 2 2 2 2 2 2 4 12 38 91 112 64 23 7 3 2 2 2 2 2 2 2 2 2 4 12 44 108 99 36 9 3 2 2 2 2 2 2 2 2 2 2 2 2 2 2 2 2 2 2 2 2 2 2 2 2 2 2 2 2 2 2 2 2 2 3 5 18 58 112 88 33 9 3 2 2 2 2 3 9 35 96 102 41 12 11 36 98 
93 30 3 -2 -3 -3 -3 -3 -3 -3 -3 -3 -3 -3 -3 -3 -3 -3 -3 -3 -3 -3 -3 -3 -3 -3 -3 -2 2 19 63 110 85 31 5 -1 -3 -3 -3 -3 -3 -3 -3 -3 -3 -2 0 13 57 126 99 30 3 -2 -3 -3 -3 -3 -3 -3 -3 -3 -3 -3 -3 -3 -3 -3 -3 -3 -3 -3 -3 -3 -3 -3 -3 -3 -3 -3 -3 -3 -3 -3 -3 -3 -3 -2 2 23 79 110 55 13 0 -3 -3 -3 -3 -3 -1 6 37 99 90 29 4 4 30 93 
93 29 2 -3 -4 -4 -4 -4 -4 -4 -4 -4 -4 -4 -4 -4 -4 -4 -4 -4 -4 -4 -4 -4 -4 -4 -3 -1 11 48 102 102 48 11 -1 -4 -4 -4 -4 -4 -4 -4 -4 -4 -4 -3 3 29 90 149 101 29 2 -3 -4 -4 -4 -4 -4 -4 -4 -4 -4 -4 -4 -4 -4 -4 -4 -4 -4 -4 -4 -4 -4 -4 -4 -4 -4 -4 -4 -4 -4 -4 -4 -4 -4 -2 4 35 96 95 34 4 -2 -4 -4 -4 -4 -4 -1 11 53 109 76 21 2 3 29 93 
93 29 2 -3 -4 -4 -4 -4 -4 -4 -4 -4 -4 -4 -4 -4 -4 -4 -4 -4 -4 -4 -4 -4 -4 -4 -2 4 30 85 109 62 18 1 -3 -4 -4 -4 -4 -4 -4 -4 -4 -4 -4 -1 12 53 120 149 99 29 2 -3 -4 -4 -4 -4 -4 -4 -4 -4 -4 -4 -4 -4 -4 -4 -4 -4 -4 -4 -4 -4 -4 -4 -4 -4 -4 -4 -4 -4 -4 -4 -4 -4 -4 -1 12 55 109 78 22 1 -3 -4 -4 -4 -4 -3 0 21 76 109 53 11 0 3 29 93 
93 29 2 -3 -4 -4 -4 -4 -4 -4 -4 -4 -4 -4 -4 -4 -4 -4 -4 -4 -4 -4 -4 -4 -4 -3 1 18 62 109 84 30 4 -2 -4 -4 -4 -4 -4 -4 -4 -4 -4 -4 -3 3 28 86 129 134 98 31 3 -3 -4 -4 -4 -4 -4 -4 -4 -4 -4 -4 -4 -4 -4 -4 -4 -4 -4 -4 -4 -4 -4 -4 -4 -4 -4 -4 -4 -4 -4 -4 -4 -4 -3 3 28 85 107 51 10 -1 -4 -4 -4 -4 -4 -3 2 28 90 98 36 5 -1 2 29 93 
93 29 2 -3 -4 -4 -4 -4 -4 -4 -4 -4 -4 -4 -4 -4 -4 -4 -4 -4 -4 -4 -4 -4 -4 -1 11 48 101 101 48 11 -1 -4 -4 -4 -4 -4 -4 -4 -4 -4 -4 -4 0 12 53 110 110 115 102 37 5 -3 -4 -4 -4 -4 -4 -4 -4 -4 -4 -4 -4 -4 -4 -4 -4 -4 -4 -4 -4 -4 -4 -4 -4 -4 -4 -4 -4 -4 -4 -4 -4 -4 -1 10 51 107 85 28 3 -3 -4 -4 -4 -4 -4 -3 5 36 98 90 28 2 -2 2 29 93 
93 29 2 -3 -4 -4 -4 -4 -4 -4 -4 -4 -4 -4 -4 -4 -4 -4 -4 -4 -4 -4 -4 -4 -2 4 30 84 109 62 18 1 -3 -4 -4 -4 -4 -4 -4 -4 -4 -4 -4 -2 4 31 86 111 76 91 111 53 11 -1 -4 -4 -4 -4 -4 -4 -4 -4 -4 -4 -4 -4 -4 -4 -4 -4 -4 -4 -4 -4 -4 -4 -4 -4 -4 -4 -4 -4 -4 -4 -4 -3 1 22 78 109 55 12 -1 -4 -4 -4 -4 -4 -4 -1 11 53 109 76 21 0 -2 2 29 93 
93 29 2 -3 -4 -4 -4 -4 -4 -4 -4 -4 -4 -4 -4 -4 -4 -4 -4 -4 -4 -4 -4 -3 1 18 62 109 84 30 4 -2 -4 -4 -4 -4 -4 -4 -4 -4 -4 -4 -3 1 18 62 109 86 43 60 110 76 21 0 -3 -4 -4 -4 -4 -4 -4 -4 -4 -4 -4 -4 -4 -4 -4 -4 -4 -4 -4 -4 -4 -4 -4 -4 -4 -4 -4 -4 -4 -4 -4 -3 4 34 95 95 34 4 -3 -4 -4 -4 -4 -4 -3 0 21 76 109 53 11 -1 -3 2 29 93 
93 29 2 -3 -4 -4 -4 -4 -4 -4 -4 -4 -4 -4 -4 -4 -4 -4 -4 -4 -4 -4 -4 -1 11 48 101 101 48 11 -1 -4 -4 -4 -4 -4 -4 -4 -4 -4 -4 -4 -1 10 47 101 102 49 20 40 100 88 27 2 -3 -4 -4 -4 -4 -4 -4 -4 -4 -4 -4 -4 -4 -4 -4 -4 -4 -4 -4 -4 -4 -4 -4 -4 -4 -4 -4 -4 -4 -4 -4 -1 12 55 109 78 22 1 -3 -4 -4 -4 -4 -4 -3 2 28 90 98 36 5 -2 -3 2 29 93 
93 30 2 -3 -4 -4 -4 -4 -4 -4 -4 -4 -4 -4 -4 -4 -4 -4 -4 -4 -4 -4 -2 4 30 84 109 62 18 1 -3 -4 -4 -4 -4 -4 -4 -4 -4 -4 -4 -3 3 28 84 109 62 19 8 32 94 92 29 2 -3 -4 -4 -4 -4 -4 -4 -4 -4 -4 -4 -4 -4 -4 -4 -4 -4 -4 -4 -4 -4 -4 -4 -4 -4 -4 -4 -4 -4 -4 -3 3 28 85 107 51 10 -1 -4 -4 -4 -4 -4 -4 -3 5 36 98 90 28 2 -3 -3 2 29 93 
95 31 3 -3 -4 -4 -4 -4 -4 -4 -4 -4 -4 -4 -4 -4 -4 -4 -4 -4 -4 -3 1 18 62 109 84 30 4 -2 -4 -4 -4 -4 -4 -4 -4 -4 -4 -4 -4 -1 12 53 107 86 31 6 4 30 93 93 29 2 -3 -4 -4 -4 -4 -4 -4 -4 -4 -4 -4 -4 -4 -4 -4 -4 -4 -4 -4 -4 -4 -4 -4 -4 -4 -4 -4 -4 -4 -4 -1 10 51 107 85 28 3 -3 -4 -4 -4 -4 -4 -4 -1 11 53 109 76 21 0 -3 -3 2 29 93 
104 40 7 -2 -4 -4 -4 -4 -4 -4 -4 -4 -4 -4 -4 -4 -4 -4 -4 -4 -4 -1 11 48 101 101 48 11 -1 -4 -4 -4 -4 -4 -4 -4 -4 -4 -4 -4 -3 3 29 85 108 53 12 0 3 29 92 94 31 3 -3 -4 -4 -4 -4 -4 -4 -4 -4 -4 -4 -4 -4 -4 -4 -4 -4 -4 -4 -4 -4 -4 -4 -4 -4 -4 -4 -4 -4 -3 1 22 78 109 55 12 -1 -4 -4 -4 -4 -4 -4 -3 0 21 76 109 53 11 -1 -4 -3 2 29 95 
129 68 21 2 -2 -4 -4 -4 -4 -4 -4 -4 -4 -4 -4 -4 -4 -4 -4 -4 -2 4 30 84 109 62 18 1 -3 -4 -4 -4 -4 -4 -4 -4 -4 -4 -4 -4 0 12 53 108 85 29 3 -2 2 27 88 99 37 5 -3 -4 -4 -4 -4 -4 -4 -4 -4 -4 -4 -4 -4 -4 -4 -4 -4 -4 -4 -4 -4 -4 -4 -4 -4 -4 -4 -4 -4 -3 4 34 95 95 34 4 -3 -4 -4 -4 -4 -4 -4 -3 2 28 90 98 36 5 -3 -4 -3 2 29 98 
152 115 58 19 2 -3 -4 -4 -4 -4 -4 -4 -4 -4 -4 -4 -4 -4 -4 -3 1 18 62 109 84 30 4 -2 -4 -4 -4 -4 -4 -4 -4 -4 -4 -4 -4 -2 4 31 86 107 53 12 -1 -3 0 21 76 109 53 11 -1 -4 -4 -4 -4 -4 -4 -4 -4 -4 -4 -4 -4 -4 -4 -4 -4 -4 -4 -4 -4 -4 -4 -4 -4 -4 -4 -4 -4 -1 12 55 109 78 22 1 -3 -4 -4 -4 -4 -4 -4 -3 5 36 98 90 28 2 -3 -4 -3 2 29 101 
137 127 106 56 17 0 -3 -4 -4 -4 -4 -4 -4 -4 -4 -4 -4 -4 -4 -1 11 48 101 101 48 11 -1 -4 -4 -4 -4 -4 -4 -4 -4 -4 -4 -4 -3 1 18 62 109 84 28 3 -3 -4 -1 11 53 109 76 21 0 -3 -4 -4 -4 -4 -4 -4 -4 -4 -4 -4 -4 -4 -4 -4 -4 -4 -4 -4 -4 -4 -4 -4 -4 -4 -4 -4 -3 3 28 85 107 51 10 -1 -4 -4 -4 -4 -4 -4 -4 -1 11 53 109 76 21 0 -3 -4 -3 2 29 98 
112 89 109 101 47 11 -1 -4 -4 -4 -4 -4 -4 -4 -4 -4 -4 -4 -2 4 30 84 109 62 18 1 -3 -4 -4 -4 -4 -4 -4 -4 -4 -4 -4 -4 -1 10 47 101 101 47 10 -1 -4 -4 -3 5 37 99 88 27 2 -3 -4 -4 -4 -4 -4 -4 -4 -4 -4 -4 -4 -4 -4 -4 -4 -4 -4 -4 -4 -4 -4 -4 -4 -4 -4 -4 -1 10 51 107 85 28 3 -3 -4 -4 -4 -4 -4 -4 -3 0 21 76 109 53 11 -1 -4 -4 -3 2 29 94 
99 54 70 110 85 31 5 -2 -4 -4 -4 -4 -4 -4 -4 -4 -4 -3 1 18 62 109 84 30 4 -2 -4 -4 -4 -4 -4 -4 -4 -4 -4 -4 -4 -3 3 28 84 109 62 18 1 -3 -4 -4 -3 3 31 94 92 29 2 -3 -4 -4 -4 -4 -4 -4 -4 -4 -4 -4 -4 -4 -4 -4 -4 -4 -4 -4 -4 -4 -4 -4 -4 -4 -4 -3 1 22 78 109 55 12 -1 -4 -4 -4 -4 -4 -4 -4 -3 2 28 90 98 36 5 -3 -4 -4 -3 2 29 93 
94 39 38 85 109 63 21 2 -2 -4 -4 -4 -4 -4 -4 -4 -4 -1 11 48 101 101 48 11 -1 -4 -4 -4 -4 -4 -4 -4 -4 -4 -4 -4 -4 -1 12 53 107 86 31 4 -2 -4 -4 -4 -3 2 29 93 93 29 2 -3 -4 -4 -4 -4 -4 -4 -4 -4 -4 -4 -4 -4 -4 -4 -4 -4 -4 -4 -4 -4 -4 -4 -4 -4 -4 -3 4 34 95 95 34 4 -3 -4 -4 -4 -4 -4 -4 -4 -3 5 36 98 90 28 2 -3 -4 -4 -3 2 29 93 
93 33 18 48 101 104 58 19 2 -2 -4 -4 -4 -4 -4 -4 -2 4 30 84 109 62 18 1 -3 -4 -4 -4 -4 -4 -4 -4 -4 -4 -4 -4 -3 3 29 85 108 53 12 0 -4 -4 -4 -4 -3 2 29 92 94 31 3 -3 -4 -4 -4 -4 -4 -4 -4 -4 -4 -4 -4 -4 -4 -4 -4 -4 -4 -4 -4 -4 -4 -4 -4 -4 -4 -1 12 55 109 78 22 1 -3 -4 -4 -4 -4 -4 -4 -4 -1 11 53 109 76 21 0 -3 -4 -4 -3 2 29 93 
93 30 8 18 56 103 103 58 19 2 -2 -4 -4 -4 -4 -3 1 18 62 109 84 30 4 -2 -4 -4 -4 -4 -4 -4 -4 -4 -4 -4 -4 -4 0 12 53 108 85 29 3 -3 -4 -4 -4 -4 -3 2 27 88 99 37 5 -3 -4 -4 -4 -4 -4 -4 -4 -4 -4 -4 -4 -4 -4 -4 -4 -4 -4 -4 -4 -4 -4 -4 -4 -4 -3 3 28 85 107 51 10 -1 -4 -4 -4 -4 -4 -4 -4 -3 0 21 76 109 53 11 -1 -4 -4 -4 -3 2 29 93 
93 29 4 3 19 58 103 103 58 19 2 -2 -4 -4 -4 -1 11 48 101 101 48 11 -1 -4 -4 -4 -4 -4 -4 -4 -4 -4 -4 -4 -4 -2 4 31 86 107 53 12 -1 -4 -4 -4 -4 -4 -3 0 21 76 109 53 11 -1 -4 -4 -4 -4 -4 -4 -4 -4 -4 -4 -4 -4 -4 -4 -4 -4 -4 -4 -4 -4 -4 -4 -4 -4 -1 10 51 107 85 28 3 -3 -4 -4 -4 -4 -4 -4 -4 -3 2 28 90 98 36 5 -3 -4 -4 -4 -3 2 29 93 
93 29 2 -1 2 19 58 103 103 58 19 2 -2 -4 -2 4 30 84 109 62 18 1 -3 -4 -4 -4 -4 -4 -4 -4 -4 -4 -4 -4 -3 1 18 62 109 84 28 3 -3 -4 -4 -4 -4 -4 -4 -1 11 53 109 76 21 0 -3 -4 -4 -4 -4 -4 -4 -4 -4 -4 -4 -4 -4 -4 -4 -4 -4 -4 -4 -4 -4 -4 -4 -3 1 22 78 109 55 12 -1 -4 -4 -4 -4 -4 -4 -4 -4 -3 5 36 98 90 28 2 -3 -4 -4 -4 -3 2 29 93 
93 29 2 -3 -2 2 19 58 103 103 58 19 2 -1 1 18 62 109 84 30 4 -2 -4 -4 -4 -4 -4 -4 -4 -4 -4 -4 -4 -4 -1 10 47 101 101 47 10 -1 -4 -4 -4 -4 -4 -4 -4 -3 5 36 99 88 27 2 -3 -4 -4 -4 -4 -4 -4 -4 -4 -4 -4 -4 -4 -4 -4 -4 -4 -4 -4 -4 -4 -4 -4 -3 4 34 95 95 34 4 -3 -4 -4 -4 -4 -4 -4 -4 -4 -1 11 53 109 76 21 0 -3 -4 -4 -4 -3 2 29 93 
93 29 2 -3 -4 -2 2 19 58 103 103 58 20 6 13 48 102 101 48 11 -1 -4 -4 -4 -4 -4 -4 -4 -4 -4 -4 -4 -4 -3 3 28 84 109 62 18 1 -3 -4 -4 -4 -4 -4 -4 -4 -3 3 31 94 92 29 2 -3 -4 -4 -4 -4 -4 -4 -4 -4 -4 -4 -4 -4 -4 -4 -4 -4 -4 -4 -4 -4 -4 -4 -1 12 55 109 78 22 1 -3 -4 -4 -4 -4 -4 -4 -4 -3 0 21 76 109 53 11 -1 -4 -4 -4 -4 -3 2 29 93 
93 29 2 -3 -4 -4 -2 2 19 58 103 103 59 29 37 86 109 62 18 1 -3 -4 -4 -4 -4 -4 -4 -4 -4 -4 -4 -4 -4 -1 12 53 107 86 31 4 -2 -4 -4 -4 -4 -4 -4 -4 -4 -3 2 29 92 94 31 3 -3 -4 -4 -4 -4 -4 -4 -4 -4 -4 -4 -4 -4 -4 -4 -4 -4 -4 -4 -4 -4 -4 -3 3 28 85 107 51 10 -1 -4 -4 -4 -4 -4 -4 -4 -4 -3 2 28 90 98 36 5 -3 -4 -4 -4 -4 -3 2 29 93 
93 29 2 -3 -4 -4 -4 -2 2 19 58 104 107 78 82 113 85 30 4 -2 -4 -4 -4 -4 -4 -4 -4 -4 -4 -4 -4 -4 -3 3 29 85 108 53 12 0 -4 -4 -4 -4 -4 -4 -4 -4 -4 -3 2 27 88 99 36 5 -3 -4 -4 -4 -4 -4 -4 -4 -4 -4 -4 -4 -4 -4 -4 -4 -4 -4 -4 -4 -4 -4 -1 10 51 107 85 28 3 -3 -4 -4 -4 -4 -4 -4 -4 -4 -3 5 36 98 90 28 2 -3 -4 -4 -4 -4 -3 2 29 93 
93 29 2 -3 -4 -4 -4 -4 -2 2 19 58 109 135 135 106 48 11 -1 -4 -4 -4 -4 -4 -4 -4 -4 -4 -4 -4 -4 -4 0 12 53 108 85 29 3 -3 -4 -4 -4 -4 -4 -4 -4 -4 -4 -3 0 21 76 109 53 11 -1 -4 -4 -4 -4 -4 -4 -4 -4 -4 -4 -4 -4 -4 -4 -4 -4 -4 -4 -4 -4 -3 1 22 78 109 55 12 -1 -4 -4 -4 -4 -4 -4 -4 -4 -4 -1 11 53 109 76 21 0 -3 -4 -4 -4 -4 -3 2 29 93 
93 29 2 -3 -4 -4 -4 -4 -4 -2 2 21 67 133 133 66 19 1 -3 -4 -4 -4 -4 -4 -4 -4 -4 -4 -4 -4 -4 -2 4 31 86 107 53 12 -1 -4 -4 -4 -4 -4 -4 -4 -4 -4 -4 -4 -1 11 53 109 76 21 0 -3 -4 -4 -4 -4 -4 -4 -4 -4 -4 -4 -4 -4 -4 -4 -4 -4 -4 -4 -4 -3 4 34 95 95 34 4 -3 -4 -4 -4 -4 -4 -4 -4 -4 -3 0 21 76 109 53 11 -1 -4 -4 -4 -4 -4 -3 2 29 93 
93 29 2 -3 -4 -4 -4 -4 -4 -4 -2 7 39 106 108 41 7 -2 -4 -4 -4 -4 -4 -4 -4 -4 -4 -4 -4 -4 -3 1 18 62 109 84 28 3 -3 -4 -4 -4 -4 -4 -4 -4 -4 -4 -4 -4 -3 5 37 99 88 27 2 -3 -4 -4 -4 -4 -4 -4 -4 -4 -4 -4 -4 -4 -4 -4 -4 -4 -4 -4 -4 -1 12 55 109 78 22 1 -3 -4 -4 -4 -4 -4 -4 -4 -4 -3 2 28 90 98 36 5 -3 -4 -4 -4 -4 -4 -3 2 29 93 
93 29 2 -3 -4 -4 -4 -4 -4 -4 -3 2 29 91 102 39 5 -2 -4 -4 -4 -4 -4 -4 -4 -4 -4 -4 -4 -4 -1 10 47 101 101 47 10 -1 -4 -4 -4 -4 -4 -4 -4 -4 -4 -4 -4 -4 -3 3 31 94 92 29 2 -3 -4 -4 -4 -4 -4 -4 -4 -4 -4 -4 -4 -4 -4 -4 -4 -4 -4 -4 -3 3 28 85 107 51 10 -1 -4 -4 -4 -4 -4 -4 -4 -4 -4 -3 5 36 98 90 28 2 -3 -4 -4 -4 -4 -4 -3 2 29 93 
93 29 2 -3 -4 -4 -4 -4 -4 -4 -3 0 21 77 110 53 11 -1 -4 -4 -4 -4 -4 -4 -4 -4 -4 -4 -4 -3 3 28 84 109 62 18 1 -3 -4 -4 -4 -4 -4 -4 -4 -4 -4 -4 -4 -4 -3 2 29 93 93 29 2 -3 -4 -4 -4 -4 -4 -4 -4 -4 -4 -4 -4 -4 -4 -4 -4 -4 -4 -4 -1 10 51 107 85 28 3 -3 -4 -4 -4 -4 -4 -4 -4 -4 -4 -1 11 53 109 76 21 0 -3 -4 -4 -4 -4 -4 -3 2 29 93 
93 29 2 -3 -4 -4 -4 -4 -4 -4 -4 -1 11 53 109 76 21 0 -3 -4 -4 -4 -4 -4 -4 -4 -4 -4 -4 -1 12 53 107 86 31 4 -2 -4 -4 -4 -4 -4 -4 -4 -4 -4 -4 -4 -4 -4 -3 2 29 92 94 31 3 -3 -4 -4 -4 -4 -4 -4 -4 -4 -4 -4 -4 -4 -4 -4 -4 -4 -4 -3 1 22 78 109 55 12 -1 -4 -4 -4 -4 -4 -4 -4 -4 -4 -3 0 21 76 109 53 11 -1 -4 -4 -4 -4 -4 -4 -3 2 29 93 
93 29 2 -3 -4 -4 -4 -4 -4 -4 -4 -3 5 36 99 88 27 2 -3 -4 -4 -4 -4 -4 -4 -4 -4 -4 -3 3 29 85 108 53 12 0 -4 -4 -4 -4 -4 -4 -4 -4 -4 -4 -4 -4 -4 -4 -3 2 27 88 99 37 5 -3 -4 -4 -4 -4 -4 -4 -4 -4 -4 -4 -4 -4 -4 -4 -4 -4 -4 -3 4 34 95 95 34 4 -3 -4 -4 -4 -4 -4 -4 -4 -4 -4 -3 2 28 90 98 36 5 -3 -4 -4 -4 -4 -4 -4 -3 2 29 93 
93 29 2 -3 -4 -4 -4 -4 -4 -4 -4 -3 3 30 93 93 30 3 -3 -4 -4 -4 -4 -4 -4 -4 -4 -4 0 12 53 108 85 29 3 -3 -4 -4 -4 -4 -4 -4 -4 -4 -4 -4 -4 -4 -4 -4 -3 0 21 76 109 53 11 -1 -4 -4 -4 -4 -4 -4 -4 -4 -4 -4 -4 -4 -4 -4 -4 -4 -4 -1 12 55 109 78 22 1 -3 -4 -4 -4 -4 -4 -4 -4 -4 -4 -3 5 36 98 90 28 2 -3 -4 -4 -4 -4 -4 -4 -3 3 31 95 
94 29 2 -3 -4 -4 -4 -4 -4 -4 -4 -3 2 27 88 99 36 5 -3 -4 -4 -4 -4 -4 -4 -4 -4 -2 4 31 86 107 53 12 -1 -4 -4 -4 -4 -4 -4 -4 -4 -4 -4 -4 -4 -4 -4 -4 -4 -1 11 53 109 76 21 0 -3 -4 -4 -4 -4 -4 -4 -4 -4 -4 -4 -4 -4 -4 -4 -4 -3 3 28 85 107 51 10 -1 -4 -4 -4 -4 -4 -4 -4 -4 -4 -4 -1 11 53 109 76 21 0 -3 -4 -4 -4 -4 -4 -4 -2 5 37 103 
98 29 2 -3 -4 -4 -4 -4 -4 -4 -4 -3 0 21 76 109 53 11 -1 -4 -4 -4 -4 -4 -4 -4 -3 1 18 62 109 84 28 3 -3 -4 -4 -4 -4 -4 -4 -4 -4 -4 -4 -4 -4 -4 -4 -4 -4 -3 5 37 99 88 27 2 -3 -4 -4 -4 -4 -4 -4 -4 -4 -4 -4 -4 -4 -4 -4 -4 -1 10 51 107 85 28 3 -3 -4 -4 -4 -4 -4 -4 -4 -4 -4 -3 0 21 76 109 53 11 -1 -4 -4 -4 -4 -4 -4 -4 0 13 56 125 
100 29 2 -3 -4 -4 -4 -4 -4 -4 -4 -4 -1 11 53 109 76 21 0 -3 -4 -4 -4 -4 -4 -4 -1 10 47 101 101 47 10 -1 -4 -4 -4 -4 -4 -4 -4 -4 -4 -4 -4 -4 -4 -4 -4 -4 -4 -3 3 31 94 92 29 2 -3 -4 -4 -4 -4 -4 -4 -4 -4 -4 -4 -4 -4 -4 -4 -3 1 22 78 109 55 12 -1 -4 -4 -4 -4 -4 -4 -4 -4 -4 -4 -3 2 28 90 98 36 5 -3 -4 -4 -4 -4 -4 -4 -2 4 31 91 149 
99 29 2 -3 -4 -4 -4 -4 -4 -4 -4 -4 -3 5 36 99 88 27 2 -3 -4 -4 -4 -4 -4 -3 3 28 84 109 62 18 1 -3 -4 -4 -4 -4 -4 -4 -4 -4 -4 -4 -4 -4 -4 -4 -4 -4 -4 -3 2 29 93 93 29 2 -3 -4 -4 -4 -4 -4 -4 -4 -4 -4 -4 -4 -4 -4 -4 -3 4 34 95 95 34 4 -3 -4 -4 -4 -4 -4 -4 -4 -4 -4 -4 -3 5 36 98 90 28 2 -3 -4 -4 -4 -4 -4 -3 1 18 62 122 149 
96 29 2 -3 -4 -4 -4 -4 -4 -4 -4 -4 -3 3 30 93 93 30 3 -3 -4 -4 -4 -4 -4 -1 12 53 107 86 31 4 -2 -4 -4 -4 -4 -4 -4 -4 -4 -4 -4 -4 -4 -4 -4 -4 -4 -4 -4 -3 2 29 92 94 31 3 -3 -4 -4 -4 -4 -4 -4 -4 -4 -4 -4 -4 -4 -4 -4 -1 12 55 109 78 22 1 -3 -4 -4 -4 -4 -4 -4 -4 -4 -4 -4 -1 11 53 109 76 21 0 -3 -4 -4 -4 -4 -4 -1 11 48 104 125 131 
94 29 2 -3 -4 -4 -4 -4 -4 -4 -4 -4 -3 2 27 88 99 36 5 -3 -4 -4 -4 -4 -3 3 29 85 108 53 12 0 -4 -4 -4 -4 -4 -4 -4 -4 -4 -4 -4 -4 -4 -4 -4 -4 -4 -4 -4 -3 2 27 88 99 37 5 -3 -4 -4 -4 -4 -4 -4 -4 -4 -4 -4 -4 -4 -4 -3 3 28 85 107 51 10 -1 -4 -4 -4 -4 -4 -4 -4 -4 -4 -4 -3 0 21 76 109 53 11 -1 -4 -4 -4 -4 -4 -2 4 30 85 114 92 111 
93 29 2 -3 -4 -4 -4 -4 -4 -4 -4 -4 -3 0 21 76 109 53 11 -1 -4 -4 -4 -4 0 12 53 108 85 29 3 -3 -4 -4 -4 -4 -4 -4 -4 -4 -4 -4 -4 -4 -4 -4 -4 -4 -4 -4 -4 -3 0 21 76 109 53 11 -1 -4 -4 -4 -4 -4 -4 -4 -4 -4 -4 -4 -4 -4 -1 10 51 107 85 28 3 -3 -4 -4 -4 -4 -4 -4 -4 -4 -4 -4 -3 2 28 90 98 36 5 -3 -4 -4 -4 -4 -3 1 18 62 109 91 63 100 
93 29 2 -3 -4 -4 -4 -4 -4 -4 -4 -4 -4 -1 11 53 109 76 21 0 -3 -4 -4 -2 4 31 86 107 53 12 -1 -4 -4 -4 -4 -4 -4 -4 -4 -4 -4 -4 -4 -4 -4 -4 -4 -4 -4 -4 -4 -4 -1 11 53 110 77 22 1 -2 -3 -3 -4 -4 -4 -4 -4 -4 -4 -4 -4 -3 1 22 78 109 55 12 -1 -4 -4 -4 -4 -4 -4 -4 -4 -4 -4 -4 -3 5 36 98 90 28 2 -3 -4 -4 -4 -4 -1 11 48 102 102 54 45 95 
93 29 2 -3 -4 -4 -4 -4 -4 -4 -4 -4 -4 -3 5 36 99 88 27 2 -3 -4 -3 1 18 62 109 84 28 3 -3 -4 -4 -4 -4 -4 -4 -4 -4 -4 -4 -4 -4 -4 -4 -4 -4 -4 -4 -4 -4 -4 -2 6 39 102 93 33 9 3 2 0 -1 -3 -3 -3 -3 -3 -3 -4 -4 -2 4 34 95 95 34 4 -3 -4 -4 -4 -4 -4 -4 -4 -4 -4 -4 -4 -1 11 53 109 76 21 0 -3 -4 -4 -4 -2 4 30 84 109 63 25 35 94 
93 29 2 -3 -4 -4 -4 -4 -4 -4 -4 -4 -4 -3 3 30 93 93 30 3 -3 -4 -1 10 47 101 101 47 10 -1 -4 -4 -4 -4 -4 -4 -4 -4 -4 -4 -4 -4 -4 -4 -4 -4 -4 -4 -4 -4 -4 -3 0 10 43 109 113 59 36 30 27 21 11 5 3 2 2 2 0 -1 -2 0 13 55 109 78 22 1 -3 -4 -4 -4 -4 -4 -4 -4 -4 -4 -4 -3 0 21 76 109 53 11 -1 -4 -4 -4 -3 1 18 62 109 85 32 12 31 93 
93 29 2 -3 -4 -4 -4 -4 -4 -4 -4 -4 -4 -3 2 27 88 99 36 5 -2 -3 3 28 84 109 62 18 1 -3 -4 -4 -4 -4 -4 -4 -4 -4 -4 -4 -4 -4 -4 -4 -4 -4 -4 -4 -4 -4 -2 1 11 33 73 134 144 112 97 92 88 76 53 37 31 29 29 27 21 11 6 10 33 87 108 51 10 -1 -4 -4 -4 -4 -4 -4 -4 -4 -4 -4 -4 -3 2 28 90 98 36 5 -3 -4 -4 -4 -1 11 48 101 101 48 12 6 30 93 
93 29 2 -3 -4 -4 -4 -4 -4 -4 -4 -4 -4 -3 0 21 76 109 53 11 -1 0 12 53 107 86 31 4 -2 -4 -4 -4 -4 -4 -4 -4 -4 -4 -4 -4 -4 -4 -4 -4 -4 -4 -4 -4 -3 -1 4 18 48 85 115 124 110 98 94 94 99 109 109 99 94 93 92 88 76 53 39 43 73 116 87 29 3 -3 -4 -4 -4 -4 -4 -4 -4 -4 -4 -4 -4 -3 5 36 98 90 28 2 -3 -4 -4 -2 4 30 84 109 62 18 2 3 29 93 
93 29 2 -3 -4 -4 -4 -4 -4 -4 -4 -4 -4 -4 -1 11 53 109 76 21 2 4 29 85 108 53 12 0 -4 -4 -4 -4 -4 -4 -4 -4 -4 -4 -4 -4 -4 -4 -4 -4 -4 -4 -4 -2 1 11 30 62 102 109 87 56 37 31 30 31 37 53 76 88 92 93 94 99 109 110 102 109 134 132 64 15 0 -4 -4 -4 -4 -4 -4 -4 -4 -4 -4 -4 -4 -1 11 53 109 76 21 0 -3 -4 -3 1 18 62 109 84 30 4 -1 2 29 93 
93 29 2 -3 -4 -4 -4 -4 -4 -4 -4 -4 -4 -4 -3 5 36 99 88 27 5 13 53 108 85 29 3 -3 -4 -4 -4 -4 -4 -4 -4 -4 -4 -4 -4 -4 -4 -4 -4 -4 -4 -3 -1 4 18 48 84 109 101 62 31 13 5 3 2 3 5 11 21 27 29 29 31 37 53 77 91 106 134 132 64 16 0 -3 -4 -4 -4 -4 -4 -4 -4 -4 -4 -4 -3 0 21 76 109 53 11 -1 -4 -4 -1 11 48 101 101 48 11 -1 -2 2 29 93 
93 29 2 -3 -4 -4 -4 -4 -4 -4 -4 -4 -4 -4 -3 3 30 93 93 32 12 32 86 107 53 12 -1 -4 -4 -4 -4 -4 -4 -4 -4 -4 -4 -4 -4 -4 -4 -4 -4 -4 -3 0 11 30 62 101 109 84 48 18 4 0 -2 -3 -3 -3 -3 -1 0 2 2 2 3 5 11 21 29 41 73 116 88 32 5 -2 -3 -4 -4 -4 -4 -4 -4 -4 -4 -4 -3 2 28 90 98 36 5 -2 -4 -2 4 30 84 109 62 18 1 -3 -3 2 29 93 
93 29 2 -3 -4 -4 -4 -4 -4 -4 -4 -4 -4 -4 -3 2 27 88 100 42 28 63 109 84 28 3 -3 -4 -4 -4 -4 -4 -4 -4 -4 -4 -4 -4 -4 -4 -4 -4 -4 -2 2 17 47 84 109 101 62 30 11 1 -2 -4 -4 -4 -4 -4 -4 -4 -3 -3 -3 -3 -3 -3 -1 0 3 9 33 86 110 64 22 5 0 -2 -3 -3 -3 -3 -3 -3 -3 -3 -1 6 37 99 90 28 2 -3 -3 1 18 62 109 84 30 4 -2 -4 -3 2 29 93 
93 29 2 -3 -4 -4 -4 -4 -4 -4 -4 -4 -4 -4 -3 0 21 76 111 67 62 104 102 47 10 -1 -4 -4 -4 -4 -4 -4 -4 -4 -4 -4 -4 -4 -4 -4 -4 -3 -1 5 21 57 101 109 85 48 18 4 -1 -3 -4 -4 -4 -4 -4 -4 -4 -4 -4 -4 -4 -4 -4 -4 -4 -3 -3 0 11 48 103 109 65 31 13 5 3 2 2 2 2 2 2 3 5 17 58 112 79 22 1 -3 -1 11 48 101 101 48 11 -1 -4 -4 -3 2 29 93 
93 29 2 -3 -4 -4 -4 -4 -4 -4 -4 -4 -4 -4 -4 -1 11 53 113 104 105 111 62 18 1 -3 -4 -4 -4 -4 -4 -4 -4 -4 -4 -4 -4 -4 -4 -4 -2 1 11 31 63 104 104 63 31 11 1 -2 -4 -4 -4 -4 -4 -4 -4 -4 -4 -4 -4 -4 -4 -4 -4 -4 -4 -4 -4 -3 1 19 65 125 129 91 56 37 31 29 29 29 29 29 29 30 34 52 98 124 65 18 2 0 5 31 85 109 62 18 1 -3 -4 -4 -3 2 29 93 
93 29 2 -3 -4 -4 -4 -4 -4 -4 -4 -4 -4 -4 -4 -3 5 36 104 132 128 87 31 4 -2 -4 -4 -4 -4 -4 -4 -4 -4 -4 -4 -4 -4 -4 -3 -1 4 18 48 85 109 101 57 21 5 -1 -3 -4 -4 -4 -4 -4 -4 -4 -4 -4 -4 -4 -4 -4 -4 -4 -4 -4 -4 -4 -4 -4 -2 7 41 113 148 127 113 100 94 93 93 93 93 93 93 93 97 110 141 140 80 36 14 9 21 62 109 85 30 4 -2 -4 -4 -4 -3 2 29 93 
93 29 2 -3 -4 -4 -4 -4 -4 -4 -4 -4 -4 -4 -4 -3 3 31 101 149 120 53 12 0 -4 -4 -4 -4 -4 -4 -4 -4 -4 -4 -4 -4 -4 -2 1 11 30 62 101 109 84 47 17 2 -2 -4 -4 -4 -4 -4 -4 -4 -4 -4 -4 -4 -4 -4 -4 -4 -4 -4 -4 -4 -4 -4 -4 -4 -2 5 39 106 114 79 82 89 92 92 93 93 93 93 93 93 94 98 110 124 116 88 56 42 60 105 102 48 11 -1 -4 -4 -4 -4 -3 2 29 93 
93 29 2 -3 -4 -4 -4 -4 -4 -4 -4 -4 -4 -4 -4 -3 2 29 101 148 90 28 3 -3 -4 -4 -4 -4 -4 -4 -4 -4 -4 -4 -4 -3 -1 4 18 48 85 109 102 62 30 11 0 -3 -4 -4 -4 -4 -4 -4 -4 -4 -4 -4 -4 -4 -4 -4 -4 -4 -4 -4 -4 -4 -4 -4 -4 -4 -1 11 53 111 83 36 26 27 29 29 29 29 29 29 29 29 29 31 37 56 86 108 111 104 117 121 67 20 1 -3 -4 -4 -4 -4 -3 2 29 93 
93 29 2 -3 -4 -4 -4 -4 -4 -4 -4 -4 -4 -4 -4 -3 2 29 98 125 56 12 -1 -4 -4 -4 -4 -4 -4 -4 -4 -4 -4 -3 -2 1 11 30 62 103 110 86 49 19 5 0 -3 -4 -4 -4 -4 -4 -4 -4 -4 -4 -4 -4 -4 -4 -4 -4 -4 -4 -4 -4 -4 -4 -4 -4 -4 -3 0 21 76 109 54 14 3 2 2 2 2 2 2 2 2 2 2 3 5 12 29 53 87 121 150 121 50 11 -1 -4 -4 -4 -4 -4 -3 2 29 93 
93 29 2 -3 -4 -4 -4 -4 -4 -4 -4 -4 -4 -4 -4 -3 2 29 95 103 37 5 -2 -4 -4 -4 -4 -4 -4 -4 -4 -3 -1 1 6 18 48 89 119 113 71 38 18 6 0 -2 -3 -3 -4 -4 -4 -4 -4 -4 -4 -4 -4 -4 -4 -4 -4 -4 -4 -4 -4 -4 -4 -4 -4 -4 -4 -3 2 27 88 99 37 5 -2 -3 -3 -3 -3 -3 -3 -3 -3 -3 -3 -3 -2 -1 3 12 31 65 117 125 67 20 1 -3 -4 -4 -4 -4 -3 2 29 93 
93 29 2 -3 -4 -4 -4 -4 -4 -4 -4 -4 -4 -4 -4 -3 3 31 95 94 30 3 -3 -4 -4 -4 -4 -4 -4 -3 -1 3 10 23 37 65 112 147 143 100 59 39 30 22 11 5 2 0 -1 -3 -3 -3 -3 -4 -4 -4 -4 -4 -4 -4 -4 -4 -4 -4 -4 -4 -4 -4 -4 -4 -4 -3 2 29 92 94 31 3 -3 -4 -4 -4 -4 -4 -4 -4 -4 -4 -4 -4 -4 -4 -3 0 5 21 59 107 103 48 11 -1 -4 -4 -4 -4 -3 2 29 93 
93 29 2 -3 -4 -4 -4 -4 -4 -4 -4 -4 -4 -4 -4 -3 5 37 99 88 27 2 -3 -4 -4 -4 -3 -3 -1 3 12 28 51 78 97 114 121 119 124 119 104 95 89 76 52 36 28 21 11 5 3 2 0 -1 -3 -3 -3 -4 -4 -4 -4 -4 -4 -4 -4 -4 -4 -4 -4 -4 -4 -3 3 31 94 92 29 2 -3 -4 -4 -4 -4 -4 -4 -4 -4 -4 -4 -4 -4 -4 -4 -4 -2 3 21 63 109 85 30 4 -2 -4 -4 -4 -3 2 29 93 
93 29 2 -3 -4 -4 -4 -4 -4 -4 -4 -4 -4 -4 -4 -1 11 53 109 76 21 0 -3 -4 -3 -1 1 4 12 29 53 85 107 109 96 79 55 44 55 77 89 93 99 109 109 98 90 76 53 36 30 27 21 11 5 2 0 -1 -3 -3 -3 -3 -4 -4 -4 -4 -4 -4 -4 -4 -4 -3 5 36 99 88 27 2 -3 -4 -4 -4 -4 -4 -4 -4 -4 -4 -4 -4 -4 -4 -4 -4 -4 -2 5 31 85 109 62 18 1 -3 -4 -4 -3 2 29 93 
93 29 2 -3 -4 -4 -4 -4 -4 -4 -4 -4 -4 -4 -3 0 21 76 109 53 11 -1 -2 -1 3 10 22 34 55 85 108 108 85 55 34 22 11 7 11 21 27 30 36 53 76 90 98 109 109 99 93 88 76 52 36 28 21 11 5 3 2 0 -1 -3 -3 -3 -4 -4 -4 -4 -4 -1 11 53 109 76 21 0 -3 -4 -4 -4 -4 -4 -4 -4 -4 -4 -4 -4 -4 -4 -4 -4 -4 -4 -1 11 48 101 101 48 11 -1 -4 -4 -3 2 29 93 
93 29 2 -3 -4 -4 -4 -4 -4 -4 -4 -4 -4 -4 -3 2 27 88 99 37 6 0 3 12 28 51 78 95 109 107 85 53 29 12 4 1 -1 -2 -1 0 2 3 5 11 21 28 36 52 76 88 93 99 109 109 98 90 76 53 36 30 27 21 11 5 2 0 -1 -3 -3 -3 -3 1 21 76 109 53 11 -1 -4 -4 -4 -4 -4 -4 -4 -4 -4 -4 -4 -4 -4 -4 -4 -4 -4 -4 -3 1 18 62 109 85 31 5 -2 -4 -3 2 29 93 
93 29 2 -3 -4 -4 -4 -4 -4 -4 -4 -4 -4 -4 -3 3 30 94 95 34 11 13 29 53 85 107 109 95 78 51 28 12 3 -1 -3 -3 -4 -4 -4 -3 -3 -3 -3 -1 0 2 5 11 21 27 30 36 53 76 90 98 109 109 99 93 88 76 52 36 28 21 11 5 3 2 1 5 28 89 99 37 5 -3 -4 -4 -4 -4 -4 -4 -4 -4 -4 -4 -4 -4 -4 -4 -4 -4 -4 -4 -4 -2 4 30 84 109 63 21 2 -3 -3 2 29 93 
93 29 2 -3 -4 -4 -4 -4 -4 -4 -4 -4 -4 -4 -2 5 37 101 96 44 35 54 85 108 108 85 55 34 22 10 3 -1 -3 -4 -4 -4 -4 -4 -4 -4 -4 -4 -4 -4 -3 -3 -3 -1 0 2 3 5 11 21 28 36 52 76 88 93 99 109 109 98 90 76 53 36 30 27 22 18 38 96 95 31 3 -3 -4 -4 -4 -4 -4 -4 -4 -4 -4 -4 -4 -4 -4 -4 -4 -4 -4 -4 -4 -4 -1 11 47 101 104 57 17 0 -2 2 29 93 
93 29 2 -3 -4 -4 -4 -4 -4 -4 -4 -4 -4 -4 -1 12 56 120 109 78 90 108 108 85 53 29 12 4 1 -1 -3 -4 -4 -4 -4 -4 -4 -4 -4 -4 -4 -4 -4 -4 -4 -4 -4 -4 -3 -3 -3 -3 -1 0 2 5 11 21 27 30 36 53 76 90 98 109 109 99 93 88 77 59 67 113 96 29 2 -3 -4 -4 -4 -4 -4 -4 -4 -4 -4 -4 -4 -4 -4 -4 -4 -4 -4 -4 -4 -4 -3 0 17 57 104 101 47 11 0 3 29 93 
93 29 2 -3 -4 -4 -4 -4 -4 -4 -4 -4 -4 -3 3 29 91 148 135 119 108 85 53 28 12 3 -1 -3 -3 -4 -4 -4 -4 -4 -4 -4 -4 -4 -4 -4 -4 -4 -4 -4 -4 -4 -4 -4 -4 -4 -4 -4 -4 -3 -3 -3 -1 0 2 3 5 11 21 28 36 52 76 88 93 99 110 114 120 144 100 29 2 -3 -4 -4 -4 -4 -4 -4 -4 -4 -4 -4 -4 -4 -4 -4 -4 -4 -4 -4 -4 -4 -4 -3 2 21 63 109 84 31 6 4 30 93 
93 29 2 -3 -4 -4 -4 -4 -4 -4 -4 -4 -4 0 12 54 118 132 104 79 51 28 12 3 -1 -3 -4 -4 -4 -4 -4 -4 -4 -4 -4 -4 -4 -4 -4 -4 -4 -4 -4 -4 -4 -4 -4 -4 -4 -4 -4 -4 -4 -4 -4 -4 -4 -3 -3 -3 -3 -1 0 2 5 11 21 27 30 37 53 81 110 143 100 29 2 -3 -4 -4 -4 -4 -4 -4 -4 -4 -4 -4 -4 -4 -4 -4 -4 -4 -4 -4 -4 -4 -4 -4 -2 5 31 84 109 63 22 9 31 93 
93 29 2 -3 -4 -4 -4 -4 -4 -4 -4 -4 -2 4 31 86 114 72 39 23 10 3 -1 -3 -4 -4 -4 -4 -4 -4 -4 -4 -4 -4 -4 -4 -4 -4 -4 -4 -4 -4 -4 -4 -4 -4 -4 -4 -4 -4 -4 -4 -4 -4 -4 -4 -4 -4 -4 -4 -4 -4 -3 -3 -3 -1 0 2 3 5 12 27 57 111 95 29 2 -3 -4 -4 -4 -4 -4 -4 -4 -4 -4 -4 -4 -4 -4 -4 -4 -4 -4 -4 -4 -4 -4 -4 -4 -1 11 47 101 104 58 24 35 94 
93 29 2 -3 -4 -4 -4 -4 -4 -4 -4 -3 1 18 62 109 85 33 9 1 -1 -3 -4 -4 -4 -4 -4 -4 -4 -4 -4 -4 -4 -4 -4 -4 -4 -4 -4 -4 -4 -4 -4 -4 -4 -4 -4 -4 -4 -4 -4 -4 -4 -4 -4 -4 -4 -4 -4 -4 -4 -4 -4 -4 -4 -4 -3 -3 -3 -2 0 7 35 97 93 29 2 -3 -4 -4 -4 -4 -4 -4 -4 -4 -4 -4 -4 -4 -4 -4 -4 -4 -4 -4 -4 -4 -4 -4 -4 -3 0 17 57 104 102 54 44 95 
93 29 2 -3 -4 -4 -4 -4 -4 -4 -4 -1 11 48 101 102 48 11 0 -3 -4 -4 -4 -4 -4 -4 -4 -4 -4 -4 -4 -4 -4 -4 -4 -4 -4 -4 -4 -4 -4 -4 -4 -4 -4 -4 -4 -4 -4 -4 -4 -4 -4 -4 -4 -4 -4 -4 -4 -4 -4 -4 -4 -4 -4 -4 -4 -4 -4 -4 -3 3 30 93 93 30 2 -3 -4 -4 -4 -4 -4 -4 -4 -4 -4 -4 -4 -4 -4 -4 -4 -4 -4 -4 -4 -4 -4 -4 -4 -4 -3 2 21 63 110 91 63 100 
94 29 2 -3 -4 -4 -4 -4 -4 -4 -2 5 31 85 109 62 18 1 -3 -4 -4 -4 -4 -4 -4 -4 -4 -4 -4 -4 -4 -4 -4 -4 -4 -4 -4 -4 -4 -4 -4 -4 -4 -4 -4 -4 -4 -4 -4 -4 -4 -4 -4 -4 -4 -4 -4 -4 -4 -4 -4 -4 -4 -4 -4 -4 -4 -4 -4 -4 -3 2 29 92 95 31 3 -3 -4 -4 -4 -4 -4 -4 -4 -4 -4 -4 -4 -4 -4 -4 -4 -4 -4 -4 -4 -4 -4 -4 -4 -4 -4 -2 5 31 85 114 92 111 
96 29 2 -3 -4 -4 -4 -4 -4 -2 2 21 63 110 85 31 5 -2 -4 -4 -4 -4 -4 -4 -4 -4 -4 -4 -4 -4 -4 -4 -4 -4 -4 -4 -4 -4 -4 -4 -4 -4 -4 -4 -4 -4 -4 -4 -4 -4 -4 -4 -4 -4 -4 -4 -4 -4 -4 -4 -4 -4 -4 -4 -4 -4 -4 -4 -4 -4 -3 3 29 92 102 40 7 -1 -3 -4 -4 -4 -4 -4 -4 -4 -4 -4 -4 -4 -4 -4 -4 -4 -4 -4 -4 -4 -4 -4 -4 -4 -4 -4 -1 11 48 104 125 131 
99 29 2 -3 -4 -4 -4 -4 -2 2 19 58 107 106 54 17 4 -1 -2 -3 -3 -3 -3 -3 -3 -3 -3 -3 -3 -4 -4 -4 -4 -4 -4 -4 -4 -4 -4 -4 -4 -4 -4 -4 -4 -4 -4 -4 -4 -4 -4 -4 -4 -4 -4 -4 -4 -4 -4 -4 -4 -4 -4 -4 -4 -4 -4 -4 -4 -3 0 8 35 96 123 68 23 5 0 -3 -4 -4 -4 -4 -4 -4 -4 -4 -4 -4 -4 -4 -4 -4 -4 -4 -4 -4 -4 -4 -4 -4 -4 -4 -3 1 18 62 122 149 
100 29 2 -3 -4 -4 -4 -2 2 19 59 113 126 87 50 32 22 11 5 3 2 2 2 2 2 2 2 2 0 -1 -3 -3 -3 -3 -3 -3 -3 -3 -3 -3 -4 -4 -4 -4 -4 -4 -4 -4 -4 -4 -4 -4 -4 -4 -4 -4 -4 -4 -4 -4 -4 -4 -4 -4 -4 -4 -4 -4 -2 1 11 30 63 116 150 119 65 31 12 3 -1 -3 -4 -4 -4 -4 -4 -4 -4 -4 -4 -4 -4 -4 -4 -4 -4 -4 -4 -4 -4 -4 -4 -4 -4 -2 4 31 91 149 
98 29 2 -3 -4 -4 -2 2 19 58 116 151 137 112 97 89 76 53 37 31 29 29 29 29 29 29 29 27 21 11 5 3 2 2 2 2 2 2 2 0 -1 -3 -3 -3 -3 -3 -3 -3 -3 -3 -3 -3 -4 -4 -4 -4 -4 -4 -4 -4 -4 -4 -4 -4 -4 -4 -3 0 4 18 47 84 111 119 119 123 113 86 53 28 10 1 -2 -4 -4 -4 -4 -4 -4 -4 -4 -4 -4 -4 -4 -4 -4 -4 -4 -4 -4 -4 -4 -4 -4 -4 0 13 56 125 
95 29 2 -3 -4 -2 2 19 58 106 122 112 100 95 95 99 109 109 99 94 93 93 93 93 93 92 92 88 76 53 37 31 29 29 29 29 29 29 27 21 11 5 3 2 2 2 2 2 2 2 2 0 -1 -3 -3 -3 -3 -3 -3 -3 -3 -3 -3 -4 -3 -1 3 12 31 62 101 109 87 57 45 57 86 108 108 84 47 18 4 0 -3 -4 -4 -4 -4 -4 -4 -4 -4 -4 -4 -4 -4 -4 -4 -4 -4 -4 -4 -4 -4 -4 -2 5 37 103 
93 29 2 -2 -2 2 19 58 103 105 66 40 31 30 31 37 53 76 88 92 92 93 93 93 93 93 94 99 109 109 99 94 93 93 93 93 92 92 88 76 53 37 31 29 29 29 29 29 29 29 27 21 11 5 3 2 2 2 2 2 2 2 0 0 1 10 28 53 86 109 101 62 31 13 8 13 29 53 86 109 101 62 31 12 3 -1 -3 -4 -4 -4 -4 -4 -4 -4 -4 -4 -4 -4 -4 -4 -4 -4 -4 -4 -4 -4 -3 3 31 95 
93 29 3 0 5 21 58 103 103 58 21 7 3 2 3 5 11 21 27 29 29 29 29 29 29 29 31 37 53 76 88 92 92 93 93 93 93 94 99 109 109 99 94 93 93 93 93 93 92 92 88 76 53 37 31 29 29 29 29 29 29 27 21 15 21 48 84 108 107 84 47 18 4 0 -2 0 3 12 31 62 101 109 86 53 28 10 1 -2 -4 -4 -4 -4 -4 -4 -4 -4 -4 -4 -4 -4 -4 -4 -4 -4 -4 -4 -3 2 29 93 
93 31 8 12 31 63 104 103 58 19 3 -2 -3 -3 -3 -3 -1 0 2 2 2 2 2 2 2 2 3 5 11 21 27 29 29 29 29 29 29 31 37 53 76 88 92 92 93 93 93 93 93 94 99 109 109 99 94 93 93 93 93 92 92 88 79 63 72 104 110 86 53 28 10 1 -2 -4 -4 -4 -3 0 4 18 47 84 107 107 84 47 18 4 0 -3 -4 -4 -4 -4 -4 -4 -4 -4 -4 -4 -4 -4 -4 -4 -4 -4 -3 2 29 93 
94 36 24 48 85 109 101 56 19 2 -2 -4 -4 -4 -4 -4 -4 -3 -3 -3 -3 -3 -3 -3 -3 -3 -3 -3 -1 0 2 2 2 2 2 2 2 3 5 11 21 27 29 29 29 29 29 29 29 31 37 53 76 88 92 92 93 93 93 93 95 101 118 132 133 110 64 31 12 3 -1 -3 -4 -4 -4 -4 -4 -4 -2 1 10 28 53 86 109 101 62 31 12 3 -1 -3 -4 -4 -4 -4 -4 -4 -4 -4 -4 -4 -4 -4 -4 -4 -3 2 29 93 
99 53 63 101 109 84 47 17 2 -2 -4 -4 -4 -4 -4 -4 -4 -4 -4 -4 -4 -4 -4 -4 -4 -4 -4 -4 -4 -3 -3 -3 -3 -3 -3 -3 -3 -3 -3 -1 0 2 2 2 2 2 2 2 2 3 5 11 21 27 29 29 29 29 29 30 32 42 75 134 133 68 23 5 0 -3 -4 -4 -4 -4 -4 -4 -4 -4 -4 -3 -1 3 12 31 62 101 109 86 53 28 10 1 -2 -4 -4 -4 -4 -4 -4 -4 -4 -4 -4 -4 -4 -4 -3 2 29 93 
112 89 108 104 63 31 11 0 -3 -4 -4 -4 -4 -4 -4 -4 -4 -4 -4 -4 -4 -4 -4 -4 -4 -4 -4 -4 -4 -4 -4 -4 -4 -4 -4 -4 -4 -4 -4 -4 -3 -3 -3 -3 -3 -3 -3 -3 -3 -3 -3 -1 0 2 2 2 2 2 2 2 4 11 42 107 107 40 7 -1 -3 -4 -4 -4 -4 -4 -4 -4 -4 -4 -4 -4 -4 -3 0 4 18 47 84 107 107 84 47 18 4 0 -3 -4 -4 -4 -4 -4 -4 -4 -4 -4 -4 -4 -3 2 29 94 
137 127 106 58 21 5 -1 -3 -4 -4 -4 -4 -4 -4 -4 -4 -4 -4 -4 -4 -4 -4 -4 -4 -4 -4 -4 -4 -4 -4 -4 -4 -4 -4 -4 -4 -4 -4 -4 -4 -4 -4 -4 -4 -4 -4 -4 -4 -4 -4 -4 -4 -3 -3 -3 -3 -3 -3 -3 -3 -2 4 32 96 96 31 3 -3 -4 -4 -4 -4 -4 -4 -4 -4 -4 -4 -4 -4 -4 -4 -4 -2 1 10 28 53 86 109 101 62 31 12 3 -1 -3 -4 -4 -4 -4 -4 -4 -4 -4 -4 -3 2 29 98 
152 115 59 20 2 -2 -4 -4 -4 -4 -4 -4 -4 -4 -4 -4 -4 -4 -4 -4 -4 -4 -4 -4 -4 -4 -4 -4 -4 -4 -4 -4 -4 -4 -4 -4 -4 -4 -4 -4 -4 -4 -4 -4 -4 -4 -4 -4 -4 -4 -4 -4 -4 -4 -4 -4 -4 -4 -4 -4 -3 2 30 93 93 30 2 -3 -4 -4 -4 -4 -4 -4 -4 -4 -4 -4 -4 -4 -4 -4 -4 -4 -3 -1 3 12 31 62 101 109 86 53 29 12 3 -1 -3 -4 -4 -4 -4 -4 -4 -4 -3 2 29 101 
129 68 21 2 -2 -4 -4 -4 -4 -4 -4 -4 -4 -4 -4 -4 -4 -4 -4 -4 -4 -4 -4 -4 -4 -4 -4 -4 -4 -4 -4 -4 -4 -4 -4 -4 -4 -4 -4 -4 -4 -4 -4 -4 -4 -4 -4 -4 -4 -4 -4 -4 -4 -4 -4 -4 -4 -4 -4 -4 -3 2 29 93 93 29 2 -3 -4 -4 -4 -4 -4 -4 -4 -4 -4 -4 -4 -4 -4 -4 -4 -4 -4 -4 -3 0 4 18 47 84 107 108 85 53 28 10 1 -2 -4 -4 -4 -4 -4 -4 -3 2 29 98 
104 40 7 -2 -4 -4 -4 -4 -4 -4 -4 -4 -4 -4 -4 -4 -4 -4 -4 -4 -4 -4 -4 -4 -4 -4 -4 -4 -4 -4 -4 -4 -4 -4 -4 -4 -4 -4 -4 -4 -4 -4 -4 -4 -4 -4 -4 -4 -4 -4 -4 -4 -4 -4 -4 -4 -4 -4 -4 -4 -3 2 29 93 93 29 2 -3 -4 -4 -4 -4 -4 -4 -4 -4 -4 -4 -4 -4 -4 -4 -4 -4 -4 -4 -4 -4 -2 1 10 28 53 85 108 107 84 47 18 4 0 -2 -3 -3 -4 -4 -3 2 29 95 
95 31 3 -3 -4 -4 -4 -4 -4 -4 -4 -4 -4 -4 -4 -4 -4 -4 -4 -4 -4 -4 -4 -4 -4 -4 -4 -4 -4 -4 -4 -4 -4 -4 -4 -4 -4 -4 -4 -4 -4 -4 -4 -4 -4 -4 -4 -4 -4 -4 -4 -4 -4 -4 -4 -4 -4 -4 -4 -4 -3 2 29 93 93 29 2 -3 -4 -4 -4 -4 -4 -4 -4 -4 -4 -4 -4 -4 -4 -4 -4 -4 -4 -4 -4 -4 -4 -3 -1 3 12 29 53 86 109 102 62 31 13 5 2 0 -1 -2 -2 3 30 93 
93 30 2 -3 -4 -4 -4 -4 -4 -4 -4 -4 -4 -4 -4 -4 -4 -4 -4 -4 -4 -4 -4 -4 -4 -4 -4 -4 -4 -4 -4 -4 -4 -4 -4 -4 -4 -4 -4 -4 -4 -4 -4 -4 -4 -4 -4 -4 -4 -4 -4 -4 -4 -4 -4 -4 -4 -4 -4 -4 -3 2 29 93 93 29 2 -3 -4 -4 -4 -4 -4 -4 -4 -4 -4 -4 -4 -4 -4 -4 -4 -4 -4 -4 -4 -4 -4 -4 -4 -3 0 3 13 33 65 107 116 91 56 37 28 21 11 5 3 8 32 94 
94 29 2 -3 -4 -4 -4 -4 -4 -4 -4 -4 -4 -4 -4 -4 -4 -4 -4 -4 -4 -4 -4 -4 -4 -4 -4 -4 -4 -4 -4 -4 -4 -4 -4 -4 -4 -4 -4 -4 -4 -4 -4 -4 -4 -4 -4 -4 -4 -4 -4 -4 -4 -4 -4 -4 -4 -4 -4 -4 -3 2 29 93 93 29 2 -3 -4 -4 -4 -4 -4 -4 -4 -4 -4 -4 -4 -4 -4 -4 -4 -4 -4 -4 -4 -4 -4 -4 -4 -3 -2 0 4 14 35 79 127 148 127 103 90 76 53 36 29 28 44 99 
97 30 3 -2 -3 -3 -3 -3 -3 -4 -4 -4 -4 -4 -4 -4 -4 -4 -4 -4 -4 -4 -4 -4 -4 -4 -4 -4 -4 -4 -4 -4 -4 -4 -4 -4 -4 -4 -4 -4 -4 -4 -4 -4 -4 -4 -4 -4 -4 -4 -4 -4 -4 -4 -4 -4 -4 -4 -4 -4 -3 2 29 93 93 29 2 -3 -4 -4 -4 -4 -4 -4 -4 -4 -4 -4 -4 -4 -4 -4 -4 -4 -4 -4 -4 -4 -4 -3 -3 -1 3 11 23 36 60 98 128 128 109 99 100 109 109 98 91 82 82 117 
105 36 9 3 2 2 2 2 0 -1 -3 -3 -3 -3 -3 -3 -3 -4 -4 -4 -4 -4 -4 -4 -4 -4 -4 -4 -4 -4 -4 -4 -4 -4 -4 -4 -4 -4 -4 -4 -4 -4 -4 -4 -4 -4 -4 -4 -4 -4 -4 -4 -4 -4 -4 -4 -4 -4 -4 -4 -3 2 29 93 93 29 2 -3 -4 -4 -4 -4 -4 -4 -4 -4 -4 -4 -4 -4 -4 -4 -4 -4 -4 -4 -4 -3 -1 1 4 12 28 51 78 96 110 109 87 56 38 33 37 53 76 90 99 113 129 148 
119 60 36 30 29 29 29 27 21 11 5 3 2 2 2 2 0 -1 -3 -3 -3 -3 -3 -3 -3 -3 -4 -4 -4 -4 -4 -4 -4 -4 -4 -4 -4 -4 -4 -4 -4 -4 -4 -4 -4 -4 -4 -4 -4 -4 -4 -4 -4 -4 -4 -4 -4 -4 -4 -4 -3 2 29 93 93 29 2 -3 -4 -4 -4 -4 -4 -4 -4 -4 -4 -4 -4 -4 -4 -4 -4 -4 -3 -3 -1 3 10 22 34 55 85 107 109 95 78 51 28 12 5 3 5 11 21 28 37 58 99 144 
147 115 98 93 93 92 92 88 76 53 37 31 29 29 29 27 21 11 5 3 2 2 2 2 2 0 -1 -3 -3 -3 -3 -3 -3 -3 -4 -4 -4 -4 -4 -4 -4 -4 -4 -4 -4 -4 -4 -4 -4 -4 -4 -4 -4 -4 -4 -4 -4 -4 -4 -4 -3 2 29 93 93 29 2 -3 -4 -4 -4 -4 -4 -4 -4 -4 -4 -4 -4 -4 -4 -4 -3 -1 1 4 12 28 51 78 95 109 107 85 55 34 22 10 3 -1 -2 -3 -3 -1 0 2 6 17 52 118 
144 114 98 93 93 93 94 99 109 109 99 94 93 93 92 88 76 53 37 31 29 29 29 29 27 21 11 5 3 2 2 2 2 0 -1 -3 -3 -3 -3 -3 -3 -3 -3 -4 -4 -4 -4 -4 -4 -4 -4 -4 -4 -4 -4 -4 -4 -4 -4 -4 -3 2 29 93 93 29 2 -3 -4 -4 -4 -4 -4 -4 -4 -4 -4 -4 -4 -4 -3 -1 3 10 22 34 55 85 107 109 95 78 51 28 12 4 1 -1 -3 -4 -4 -4 -4 -4 -3 -3 -1 5 34 104 
112 60 36 30 29 29 31 37 53 76 88 92 93 93 94 99 109 109 99 94 93 93 92 92 88 76 53 37 31 29 29 29 27 21 11 5 3 2 2 2 2 2 0 -1 -3 -3 -3 -3 -3 -3 -3 -4 -4 -4 -4 -4 -4 -4 -4 -4 -3 2 29 93 93 29 2 -3 -4 -4 -4 -4 -4 -4 -4 -4 -4 -3 -3 -1 3 12 28 51 78 95 109 107 85 55 34 22 10 3 -1 -3 -3 -4 -4 -4 -4 -4 -4 -4 -4 -4 -3 3 30 96 
97 36 9 3 2 2 3 5 11 21 27 29 29 29 31 37 53 76 88 92 92 93 93 94 99 109 109 99 94 93 93 92 88 76 53 37 31 29 29 29 29 27 21 11 5 3 2 2 2 2 0 -1 -3 -3 -3 -3 -3 -3 -3 -3 -3 2 29 93 93 29 2 -3 -4 -4 -4 -4 -4 -4 -4 -3 -1 1 4 12 29 53 85 107 109 95 78 51 28 12 4 1 -1 -3 -4 -4 -4 -4 -4 -4 -4 -4 -4 -4 -4 -4 -3 2 29 93 
93 30 3 -2 -3 -3 -3 -3 -1 0 2 2 2 2 3 5 11 21 27 29 29 29 29 31 37 53 76 88 92 93 93 94 99 109 109 99 94 93 93 92 92 88 76 53 37 31 29 29 29 27 21 11 5 3 2 2 2 2 2 0 0 4 30 93 93 30 2 -3 -4 -4 -4 -4 -3 -3 -1 3 10 22 34 55 85 108 108 85 55 34 22 10 3 -1 -3 -3 -4 -4 -4 -4 -4 -4 -4 -4 -4 -4 -4 -4 -4 -4 -3 2 29 93 
93 29 2 -3 -4 -4 -4 -4 -4 -3 -3 -3 -3 -3 -3 -3 -1 0 2 2 2 2 2 3 5 11 21 27 29 29 29 31 37 53 76 88 92 92 93 93 94 99 109 109 99 94 93 93 92 88 76 53 37 31 29 29 29 29 27 21 12 12 36 97 96 31 3 -3 -4 -4 -3 -1 1 4 12 28 51 78 95 109 107 85 53 29 12 4 1 -1 -3 -4 -4 -4 -4 -4 -4 -4 -4 -4 -4 -4 -4 -4 -4 -4 -4 -4 -3 2 29 93 
93 29 2 -3 -4 -4 -4 -4 -4 -4 -4 -4 -4 -4 -4 -4 -4 -3 -3 -3 -3 -3 -3 -3 -3 -1 0 2 2 2 2 3 5 11 21 27 29 29 29 29 31 37 53 76 88 92 93 93 94 99 109 109 99 94 93 93 92 92 88 76 54 43 61 114 107 40 7 -1 -2 -1 3 10 22 34 55 85 107 109 95 78 51 28 12 3 -1 -3 -3 -4 -4 -4 -4 -4 -4 -4 -4 -4 -4 -4 -4 -4 -4 -4 -4 -4 -4 -4 -3 2 29 93 
93 29 2 -3 -4 -4 -4 -4 -4 -4 -4 -4 -4 -4 -4 -4 -4 -4 -4 -4 -4 -4 -4 -4 -4 -4 -3 -3 -3 -3 -3 -3 -3 -1 0 2 2 2 2 2 3 5 11 21 27 29 29 29 31 37 53 76 88 92 92 93 93 94 99 109 110 103 113 144 133 68 24 8 6 12 28 51 78 95 109 107 85 55 34 22 10 3 -1 -3 -4 -4 -4 -4 -4 -4 -4 -4 -4 -4 -4 -4 -4 -4 -4 -4 -4 -4 -4 -4 -4 -4 -3 2 29 93 
93 29 2 -3 -4 -4 -4 -4 -4 -4 -4 -4 -4 -4 -4 -4 -4 -4 -4 -4 -4 -4 -4 -4 -4 -4 -4 -4 -4 -4 -4 -4 -4 -4 -3 -3 -3 -3 -3 -3 -3 -3 -1 0 2 2 2 2 3 5 11 21 27 29 29 29 29 31 37 53 76 89 97 111 126 110 67 42 39 55 85 107 109 95 78 51 28 12 4 1 -1 -3 -4 -4 -4 -4 -4 -4 -4 -4 -4 -4 -4 -4 -4 -4 -4 -4 -4 -4 -4 -4 -4 -4 -4 -4 -3 2 29 93 
93 29 2 -3 -4 -4 -4 -4 -4 -4 -4 -4 -4 -4 -4 -4 -4 -4 -4 -4 -4 -4 -4 -4 -4 -4 -4 -4 -4 -4 -4 -4 -4 -4 -4 -4 -4 -4 -4 -4 -4 -4 -4 -3 -3 -3 -3 -3 -3 -3 -1 0 2 2 2 2 2 3 5 11 21 27 31 40 67 110 126 113 105 111 107 85 55 34 22 10 3 -1 -3 -3 -4 -4 -4 -4 -4 -4 -4 -4 -4 -4 -4 -4 -4 -4 -4 -4 -4 -4 -4 -4 -4 -4 -4 -4 -4 -4 -3 2 29 93 
93 29 2 -3 -4 -4 -4 -4 -4 -4 -4 -4 -4 -4 -4 -4 -4 -4 -4 -4 -4 -4 -4 -4 -4 -4 -4 -4 -4 -4 -4 -4 -4 -4 -4 -4 -4 -4 -4 -4 -4 -4 -4 -4 -4 -4 -4 -4 -4 -4 -4 -3 -3 -3 -3 -3 -3 -3 -3 -1 0 2 3 7 23 68 133 144 108 80 51 28 12 4 1 -1 -3 -4 -4 -4 -4 -4 -4 -4 -4 -4 -4 -4 -4 -4 -4 -4 -4 -4 -4 -4 -4 -4 -4 -4 -4 -4 -4 -4 -4 -4 -3 2 29 93 
93 29 2 -3 -4 -4 -4 -4 -4 -4 -4 -4 -4 -4 -4 -4 -4 -4 -4 -4 -4 -4 -4 -4 -4 -4 -4 -4 -4 -4 -4 -4 -4 -4 -4 -4 -4 -4 -4 -4 -4 -4 -4 -4 -4 -4 -4 -4 -4 -4 -4 -4 -4 -4 -4 -4 -4 -4 -4 -4 -3 -3 -3 -1 7 40 108 113 57 27 11 3 0 -2 -3 -4 -4 -4 -4 -4 -4 -4 -4 -4 -4 -4 -4 -4 -4 -4 -4 -4 -4 -4 -4 -4 -4 -4 -4 -4 -4 -4 -4 -4 -4 -4 -3 2 29 93 
93 30 3 -2 -3 -3 -3 -3 -3 -3 -3 -3 -3 -3 -3 -3 -3 -3 -3 -3 -3 -3 -3 -3 -3 -3 -3 -3 -3 -3 -3 -3 -3 -3 -3 -3 -3 -3 -3 -3 -3 -3 -3 -3 -3 -3 -3 -3 -3 -3 -3 -3 -3 -3 -3 -3 -3 -3 -3 -3 -3 -3 -3 -2 4 32 97 98 36 9 0 -2 -2 -3 -3 -3 -3 -3 -3 -3 -3 -3 -3 -3 -3 -3 -3 -3 -3 -3 -3 -3 -3 -3 -3 -3 -3 -3 -3 -3 -3 -3 -3 -3 -3 -3 -2 3 30 93 
98 36 9 3 2 2 2 2 2 2 2 2 2 2 2 2 2 2 2 2 2 2 2 2 2 2 2 2 2 2 2 2 2 2 2 2 2 2 2 2 2 2 2 2 2 2 2 2 2 2 2 2 2 2 2 2 2 2 2 2 2 2 2 3 10 36 98 98 37 10 4 2 2 2 2 2 2 2 2 2 2 2 2 2 2 2 2 2 2 2 2 2 2 2 2 2 2 2 2 2 2 2 2 2 2 2 3 9 36 98 
115 60 36 30 29 29 29 29 29 29 29 29 29 29 29 29 29 29 29 29 29 29 29 29 29 29 29 29 29 29 29 29 29 29 29 29 29 29 29 29 29 29 29 29 29 29 29 29 29 29 29 29 29 29 29 29 29 29 29 29 29 29 29 30 36 60 114 114 60 36 30 29 29 29 29 29 29 29 29 29 29 29 29 29 29 29 29 29 29 29 29 29 29 29 29 29 29 29 29 29 29 29 29 29 29 29 30 36 60 115 
153 115 98 93 93 93 93 93 93 93 93 93 93 93 93 93 93 93 93 93 93 93 93 93 93 93 93 93 93 93 93 94 98 101 98 95 93 93 93 93 93 93 93 93 93 93 93 93 95 100 100 95 93 93 93 93 93 93 93 93 93 93 93 93 97 112 143 143 112 97 93 93 93 93 93 93 93 93 93 93 93 93 93 93 93 93 93 93 93 93 94 97 101 99 95 93 93 93 93 93 93 93 94 97 101 99 95 98 115 153 
