P2
110 110
255
123 76 68 68 68 68 68 68 68 68 68 68 68 68 68 68 68 68 68 68 68 68 68 68 68 68 68 68 68 68 68 71 93 145 111 74 68 68 68 68 68 68 68 68 68 68 68 68 75 120 120 75 68 68 68 68 68 68 68 68 68 68 68 68 68 68 70 70 68 68 68 68 68 68 68 68 68 68 68 68 68 68 68 68 68 68 68 68 68 68 70 88 144 111 74 68 68 68 68 68 68 68 70 87 144 111 74 69 76 123 
76 13 4 3 3 3 3 3 3 3 3 3 3 3 3 3 3 3 3 3 3 3 3 3 3 3 3 3 3 3 5 26 100 96 24 5 3 3 3 3 3 3 3 3 3 3 3 4 13 76 76 13 4 3 3 3 3 3 3 3 3 3 3 3 3 3 3 3 3 3 3 3 3 3 3 3 3 3 3 3 3 3 3 3 3 3 3 3 3 4 13 72 102 25 5 3 3 3 3 3 3 3 12 67 103 25 5 4 13 76 
68 4 -6 -6 -6 -6 -6 -6 -6 -6 -6 -6 -6 -6 -6 -6 -6 -6 -6 -6 -6 -6 -6 -6 -6 -6 -6 -6 -6 -5 4 63 99 23 -2 -6 -6 -6 -6 -6 -6 -6 -6 -6 -6 -6 -6 -5 5 74 69 4 -6 -6 -6 -6 -6 -6 -6 -6 -6 -6 -6 -6 -6 -6 -6 -6 -6 -6 -6 -6 -6 -6 -6 -6 -6 -6 -6 -6 -6 -6 -6 -6 -6 -6 -6 -6 -6 -4 17 99 63 3 -6 -6 -6 -6 -6 -6 -6 -6 3 68 73 5 -5 -6 4 68 
68 3 -6 -7 -7 -7 -7 -7 -7 -7 -7 -7 -7 -7 -7 -7 -7 -7 -7 -7 -7 -7 -7 -7 -7 -7 -7 -7 -7 -3 23 99 62 3 -6 -7 -7 -7 -7 -7 -7 -7 -7 -7 -7 -7 -7 -4 17 110 70 3 -6 -7 -7 -7 -7 -7 -7 -7 -7 -7 -7 -7 -7 -7 -7 -7 -7 -7 -7 -7 -7 -7 -7 -7 -7 -7 -7 -7 -7 -7 -7 -7 -7 -7 -7 -7 -7 1 58 99 17 -4 -7 -7 -7 -7 -7 -7 -7 -6 4 72 67 3 -6 -6 3 68 
68 3 -6 -7 -7 -7 -7 -7 -7 -7 -7 -7 -7 -7 -7 -7 -7 -7 -7 -7 -7 -7 -7 -7 -7 -7 -7 -7 -5 15 92 92 15 -5 -7 -7 -7 -7 -7 -7 -7 -7 -7 -7 -7 -7 -6 3 64 148 71 3 -6 -7 -7 -7 -7 -7 -7 -7 -7 -7 -7 -7 -7 -7 -7 -7 -7 -7 -7 -7 -7 -7 -7 -7 -7 -7 -7 -7 -7 -7 -7 -7 -7 -7 -7 -7 -6 4 71 71 4 -6 -7 -7 -7 -7 -7 -7 -7 -5 17 99 57 1 -7 -6 3 68 
68 3 -6 -7 -7 -7 -7 -7 -7 -7 -7 -7 -7 -7 -7 -7 -7 -7 -7 -7 -7 -7 -7 -7 -7 -7 -7 -6 3 62 99 23 -3 -7 -7 -7 -7 -7 -7 -7 -7 -7 -7 -7 -7 -7 -5 17 101 125 69 3 -6 -7 -7 -7 -7 -7 -7 -7 -7 -7 -7 -7 -7 -7 -7 -7 -7 -7 -7 -7 -7 -7 -7 -7 -7 -7 -7 -7 -7 -7 -7 -7 -7 -7 -7 -7 -4 17 99 58 1 -7 -7 -7 -7 -7 -7 -7 -7 1 57 99 17 -5 -7 -6 3 68 
68 3 -6 -7 -7 -7 -7 -7 -7 -7 -7 -7 -7 -7 -7 -7 -7 -7 -7 -7 -7 -7 -7 -7 -7 -7 -7 -3 23 99 62 3 -6 -7 -7 -7 -7 -7 -7 -7 -7 -7 -7 -7 -7 -6 3 63 106 89 69 3 -6 -7 -7 -7 -7 -7 -7 -7 -7 -7 -7 -7 -7 -7 -7 -7 -7 -7 -7 -7 -7 -7 -7 -7 -7 -7 -7 -7 -7 -7 -7 -7 -7 -7 -7 -6 3 62 98 16 -5 -7 -7 -7 -7 -7 -7 -7 -6 3 67 72 4 -6 -7 -6 3 68 
68 3 -6 -7 -7 -7 -7 -7 -7 -7 -7 -7 -7 -7 -7 -7 -7 -7 -7 -7 -7 -7 -7 -7 -7 -7 -5 15 92 92 15 -5 -7 -7 -7 -7 -7 -7 -7 -7 -7 -7 -7 -7 -7 -4 17 99 72 76 73 4 -6 -7 -7 -7 -7 -7 -7 -7 -7 -7 -7 -7 -7 -7 -7 -7 -7 -7 -7 -7 -7 -7 -7 -7 -7 -7 -7 -7 -7 -7 -7 -7 -7 -7 -7 -5 16 98 62 3 -6 -7 -7 -7 -7 -7 -7 -7 -6 4 72 67 3 -6 -7 -6 3 68 
68 3 -6 -7 -7 -7 -7 -7 -7 -7 -7 -7 -7 -7 -7 -7 -7 -7 -7 -7 -7 -7 -7 -7 -7 -6 3 62 99 23 -3 -7 -7 -7 -7 -7 -7 -7 -7 -7 -7 -7 -7 -7 -6 3 63 99 26 60 99 17 -5 -7 -7 -7 -7 -7 -7 -7 -7 -7 -7 -7 -7 -7 -7 -7 -7 -7 -7 -7 -7 -7 -7 -7 -7 -7 -7 -7 -7 -7 -7 -7 -7 -7 -7 1 58 99 17 -4 -7 -7 -7 -7 -7 -7 -7 -7 -5 17 99 57 1 -7 -7 -6 3 68 
68 3 -6 -7 -7 -7 -7 -7 -7 -7 -7 -7 -7 -7 -7 -7 -7 -7 -7 -7 -7 -7 -7 -7 -7 -3 23 99 62 3 -6 -7 -7 -7 -7 -7 -7 -7 -7 -7 -7 -7 -7 -7 -3 23 99 62 5 18 99 57 1 -7 -7 -7 -7 -7 -7 -7 -7 -7 -7 -7 -7 -7 -7 -7 -7 -7 -7 -7 -7 -7 -7 -7 -7 -7 -7 -7 -7 -7 -7 -7 -7 -7 -6 4 71 71 4 -6 -7 -7 -7 -7 -7 -7 -7 -7 1 57 99 17 -5 -7 -7 -6 3 68 
68 3 -6 -7 -7 -7 -7 -7 -7 -7 -7 -7 -7 -7 -7 -7 -7 -7 -7 -7 -7 -7 -7 -7 -5 15 92 92 15 -5 -7 -7 -7 -7 -7 -7 -7 -7 -7 -7 -7 -7 -7 -5 15 92 92 15 -4 5 73 67 2 -6 -7 -7 -7 -7 -7 -7 -7 -7 -7 -7 -7 -7 -7 -7 -7 -7 -7 -7 -7 -7 -7 -7 -7 -7 -7 -7 -7 -7 -7 -7 -7 -7 -4 17 99 58 1 -7 -7 -7 -7 -7 -7 -7 -7 -6 3 67 72 4 -6 -7 -7 -6 3 68 
68 3 -6 -7 -7 -7 -7 -7 -7 -7 -7 -7 -7 -7 -7 -7 -7 -7 -7 -7 -7 -7 -7 -6 3 62 99 23 -3 -7 -7 -7 -7 -7 -7 -7 -7 -7 -7 -7 -7 -7 -6 3 62 99 23 -3 -6 3 68 68 3 -6 -7 -7 -7 -7 -7 -7 -7 -7 -7 -7 -7 -7 -7 -7 -7 -7 -7 -7 -7 -7 -7 -7 -7 -7 -7 -7 -7 -7 -7 -7 -7 -6 3 62 98 16 -5 -7 -7 -7 -7 -7 -7 -7 -7 -6 4 72 67 3 -6 -7 -7 -6 3 68 
68 3 -6 -7 -7 -7 -7 -7 -7 -7 -7 -7 -7 -7 -7 -7 -7 -7 -7 -7 -7 -7 -7 -3 23 99 62 3 -6 -7 -7 -7 -7 -7 -7 -7 -7 -7 -7 -7 -7 -7 -5 17 98 63 3 -6 -6 3 68 68 3 -6 -7 -7 -7 -7 -7 -7 -7 -7 -7 -7 -7 -7 -7 -7 -7 -7 -7 -7 -7 -7 -7 -7 -7 -7 -7 -7 -7 -7 -7 -7 -7 -5 16 98 62 3 -6 -7 -7 -7 -7 -7 -7 -7 -7 -5 17 99 57 1 -7 -7 -7 -6 3 68 
74 5 -6 -7 -7 -7 -7 -7 -7 -7 -7 -7 -7 -7 -7 -7 -7 -7 -7 -7 -7 -7 -5 15 92 92 15 -5 -7 -7 -7 -7 -7 -7 -7 -7 -7 -7 -7 -7 -7 -6 3 62 98 17 -4 -7 -6 3 68 68 3 -6 -7 -7 -7 -7 -7 -7 -7 -7 -7 -7 -7 -7 -7 -7 -7 -7 -7 -7 -7 -7 -7 -7 -7 -7 -7 -7 -7 -7 -7 -7 -7 1 58 99 17 -4 -7 -7 -7 -7 -7 -7 -7 -7 -7 1 57 99 17 -5 -7 -7 -7 -6 3 68 
111 24 -2 -7 -7 -7 -7 -7 -7 -7 -7 -7 -7 -7 -7 -7 -7 -7 -7 -7 -7 -6 3 62 99 23 -3 -7 -7 -7 -7 -7 -7 -7 -7 -7 -7 -7 -7 -7 -7 -4 17 98 62 3 -6 -7 -6 2 67 73 4 -6 -7 -7 -7 -7 -7 -7 -7 -7 -7 -7 -7 -7 -7 -7 -7 -7 -7 -7 -7 -7 -7 -7 -7 -7 -7 -7 -7 -7 -7 -7 -6 4 71 71 4 -6 -7 -7 -7 -7 -7 -7 -7 -7 -6 3 67 72 4 -6 -7 -7 -7 -6 3 70 
145 96 22 -2 -7 -7 -7 -7 -7 -7 -7 -7 -7 -7 -7 -7 -7 -7 -7 -7 -7 -3 23 99 62 3 -6 -7 -7 -7 -7 -7 -7 -7 -7 -7 -7 -7 -7 -7 -6 3 63 98 17 -5 -7 -7 -7 1 57 99 17 -5 -7 -7 -7 -7 -7 -7 -7 -7 -7 -7 -7 -7 -7 -7 -7 -7 -7 -7 -7 -7 -7 -7 -7 -7 -7 -7 -7 -7 -7 -7 -4 17 99 58 1 -7 -7 -7 -7 -7 -7 -7 -7 -7 -6 4 72 67 3 -6 -7 -7 -7 -6 3 71 
93 101 93 22 -3 -7 -7 -7 -7 -7 -7 -7 -7 -7 -7 -7 -7 -7 -7 -7 -5 15 92 92 15 -5 -7 -7 -7 -7 -7 -7 -7 -7 -7 -7 -7 -7 -7 -7 -3 23 99 62 3 -6 -7 -7 -7 -5 17 99 57 1 -7 -7 -7 -7 -7 -7 -7 -7 -7 -7 -7 -7 -7 -7 -7 -7 -7 -7 -7 -7 -7 -7 -7 -7 -7 -7 -7 -7 -7 -6 3 62 98 16 -5 -7 -7 -7 -7 -7 -7 -7 -7 -7 -5 17 99 57 1 -7 -7 -7 -7 -6 3 69 
72 32 94 92 15 -5 -7 -7 -7 -7 -7 -7 -7 -7 -7 -7 -7 -7 -7 -6 3 62 99 23 -3 -7 -7 -7 -7 -7 -7 -7 -7 -7 -7 -7 -7 -7 -7 -5 15 92 92 15 -5 -7 -7 -7 -7 -6 4 73 67 2 -6 -7 -7 -7 -7 -7 -7 -7 -7 -7 -7 -7 -7 -7 -7 -7 -7 -7 -7 -7 -7 -7 -7 -7 -7 -7 -7 -7 -7 -5 16 98 62 3 -6 -7 -7 -7 -7 -7 -7 -7 -7 -7 1 57 99 17 -5 -7 -7 -7 -7 -6 3 68 
68 8 24 99 62 3 -6 -7 -7 -7 -7 -7 -7 -7 -7 -7 -7 -7 -7 -3 23 99 62 3 -6 -7 -7 -7 -7 -7 -7 -7 -7 -7 -7 -7 -7 -7 -6 3 62 99 23 -3 -7 -7 -7 -7 -7 -6 3 68 68 3 -6 -7 -7 -7 -7 -7 -7 -7 -7 -7 -7 -7 -7 -7 -7 -7 -7 -7 -7 -7 -7 -7 -7 -7 -7 -7 -7 -7 -7 1 58 99 17 -4 -7 -7 -7 -7 -7 -7 -7 -7 -7 -6 3 67 72 4 -6 -7 -7 -7 -7 -6 3 68 
68 4 4 62 99 23 -2 -7 -7 -7 -7 -7 -7 -7 -7 -7 -7 -7 -5 15 92 92 15 -5 -7 -7 -7 -7 -7 -7 -7 -7 -7 -7 -7 -7 -7 -7 -5 17 98 63 3 -6 -7 -7 -7 -7 -7 -6 3 68 68 3 -6 -7 -7 -7 -7 -7 -7 -7 -7 -7 -7 -7 -7 -7 -7 -7 -7 -7 -7 -7 -7 -7 -7 -7 -7 -7 -7 -7 -6 4 71 71 4 -6 -7 -7 -7 -7 -7 -7 -7 -7 -7 -6 4 72 67 3 -6 -7 -7 -7 -7 -6 3 68 
68 3 -4 15 92 93 22 -2 -7 -7 -7 -7 -7 -7 -7 -7 -7 -6 3 62 99 23 -3 -7 -7 -7 -7 -7 -7 -7 -7 -7 -7 -7 -7 -7 -7 -6 3 62 98 17 -4 -7 -7 -7 -7 -7 -7 -6 3 68 68 3 -6 -7 -7 -7 -7 -7 -7 -7 -7 -7 -7 -7 -7 -7 -7 -7 -7 -7 -7 -7 -7 -7 -7 -7 -7 -7 -7 -7 -4 17 99 58 1 -7 -7 -7 -7 -7 -7 -7 -7 -7 -7 -5 17 99 57 1 -7 -7 -7 -7 -7 -6 3 68 
68 3 -6 -3 22 93 93 22 -2 -7 -7 -7 -7 -7 -7 -7 -7 -3 23 99 62 3 -6 -7 -7 -7 -7 -7 -7 -7 -7 -7 -7 -7 -7 -7 -7 -4 17 98 62 3 -6 -7 -7 -7 -7 -7 -7 -6 2 67 73 4 -6 -7 -7 -7 -7 -7 -7 -7 -7 -7 -7 -7 -7 -7 -7 -7 -7 -7 -7 -7 -7 -7 -7 -7 -7 -7 -7 -6 3 62 98 16 -5 -7 -7 -7 -7 -7 -7 -7 -7 -7 -7 1 57 99 17 -5 -7 -7 -7 -7 -7 -6 3 68 
68 3 -6 -7 -2 22 93 93 22 -2 -7 -7 -7 -7 -7 -7 -5 15 92 92 15 -5 -7 -7 -7 -7 -7 -7 -7 -7 -7 -7 -7 -7 -7 -7 -6 3 63 98 17 -5 -7 -7 -7 -7 -7 -7 -7 -7 1 57 99 17 -5 -7 -7 -7 -7 -7 -7 -7 -7 -7 -7 -7 -7 -7 -7 -7 -7 -7 -7 -7 -7 -7 -7 -7 -7 -7 -7 -5 16 98 62 3 -6 -7 -7 -7 -7 -7 -7 -7 -7 -7 -6 3 67 72 4 -6 -7 -7 -7 -7 -7 -6 3 68 
68 3 -6 -7 -7 -2 22 93 93 22 -2 -7 -7 -7 -7 -6 3 62 99 23 -3 -7 -7 -7 -7 -7 -7 -7 -7 -7 -7 -7 -7 -7 -7 -7 -3 23 99 62 3 -6 -7 -7 -7 -7 -7 -7 -7 -7 -5 17 99 57 1 -7 -7 -7 -7 -7 -7 -7 -7 -7 -7 -7 -7 -7 -7 -7 -7 -7 -7 -7 -7 -7 -7 -7 -7 -7 -7 1 58 99 17 -4 -7 -7 -7 -7 -7 -7 -7 -7 -7 -7 -6 4 72 67 3 -6 -7 -7 -7 -7 -7 -6 3 68 
68 3 -6 -7 -7 -7 -2 22 93 93 22 -2 -7 -7 -7 -3 23 99 62 3 -6 -7 -7 -7 -7 -7 -7 -7 -7 -7 -7 -7 -7 -7 -7 -5 15 92 92 15 -5 -7 -7 -7 -7 -7 -7 -7 -7 -7 -6 4 73 67 2 -6 -7 -7 -7 -7 -7 -7 -7 -7 -7 -7 -7 -7 -7 -7 -7 -7 -7 -7 -7 -7 -7 -7 -7 -7 -6 4 71 71 4 -6 -7 -7 -7 -7 -7 -7 -7 -7 -7 -7 -5 17 99 57 1 -7 -7 -7 -7 -7 -7 -6 3 68 
68 3 -6 -7 -7 -7 -7 -2 22 93 93 22 -2 -7 -5 15 92 92 15 -5 -7 -7 -7 -7 -7 -7 -7 -7 -7 -7 -7 -7 -7 -7 -6 3 62 99 23 -3 -7 -7 -7 -7 -7 -7 -7 -7 -7 -7 -6 3 68 68 3 -6 -7 -7 -7 -7 -7 -7 -7 -7 -7 -7 -7 -7 -7 -7 -7 -7 -7 -7 -7 -7 -7 -7 -7 -7 -4 17 99 58 1 -7 -7 -7 -7 -7 -7 -7 -7 -7 -7 -7 1 57 99 17 -5 -7 -7 -7 -7 -7 -7 -6 3 68 
68 3 -6 -7 -7 -7 -7 -7 -2 22 93 93 22 -1 4 62 99 23 -3 -7 -7 -7 -7 -7 -7 -7 -7 -7 -7 -7 -7 -7 -7 -7 -5 17 98 63 3 -6 -7 -7 -7 -7 -7 -7 -7 -7 -7 -7 -6 3 68 68 3 -6 -7 -7 -7 -7 -7 -7 -7 -7 -7 -7 -7 -7 -7 -7 -7 -7 -7 -7 -7 -7 -7 -7 -7 -6 3 62 98 16 -5 -7 -7 -7 -7 -7 -7 -7 -7 -7 -7 -6 3 67 72 4 -6 -7 -7 -7 -7 -7 -7 -6 3 68 
68 3 -6 -7 -7 -7 -7 -7 -7 -2 22 93 93 26 27 99 62 3 -6 -7 -7 -7 -7 -7 -7 -7 -7 -7 -7 -7 -7 -7 -7 -6 3 62 98 17 -4 -7 -7 -7 -7 -7 -7 -7 -7 -7 -7 -7 -6 2 67 73 4 -6 -7 -7 -7 -7 -7 -7 -7 -7 -7 -7 -7 -7 -7 -7 -7 -7 -7 -7 -7 -7 -7 -7 -7 -5 16 98 62 3 -6 -7 -7 -7 -7 -7 -7 -7 -7 -7 -7 -6 4 72 67 3 -6 -7 -7 -7 -7 -7 -7 -6 3 68 
68 3 -6 -7 -7 -7 -7 -7 -7 -7 -2 22 94 110 110 93 15 -5 -7 -7 -7 -7 -7 -7 -7 -7 -7 -7 -7 -7 -7 -7 -7 -4 17 98 62 3 -6 -7 -7 -7 -7 -7 -7 -7 -7 -7 -7 -7 -7 1 57 99 17 -5 -7 -7 -7 -7 -7 -7 -7 -7 -7 -7 -7 -7 -7 -7 -7 -7 -7 -7 -7 -7 -7 -7 -7 1 58 99 17 -4 -7 -7 -7 -7 -7 -7 -7 -7 -7 -7 -7 -5 17 99 57 1 -7 -7 -7 -7 -7 -7 -7 -6 3 68 
68 3 -6 -7 -7 -7 -7 -7 -7 -7 -7 -2 24 112 112 24 -3 -7 -7 -7 -7 -7 -7 -7 -7 -7 -7 -7 -7 -7 -7 -7 -6 3 63 98 17 -5 -7 -7 -7 -7 -7 -7 -7 -7 -7 -7 -7 -7 -7 -5 17 99 57 1 -7 -7 -7 -7 -7 -7 -7 -7 -7 -7 -7 -7 -7 -7 -7 -7 -7 -7 -7 -7 -7 -7 -6 4 71 71 4 -6 -7 -7 -7 -7 -7 -7 -7 -7 -7 -7 -7 1 57 99 17 -5 -7 -7 -7 -7 -7 -7 -7 -6 3 68 
68 3 -6 -7 -7 -7 -7 -7 -7 -7 -7 -6 5 74 75 5 -6 -7 -7 -7 -7 -7 -7 -7 -7 -7 -7 -7 -7 -7 -7 -7 -3 23 99 62 3 -6 -7 -7 -7 -7 -7 -7 -7 -7 -7 -7 -7 -7 -7 -6 4 73 67 2 -6 -7 -7 -7 -7 -7 -7 -7 -7 -7 -7 -7 -7 -7 -7 -7 -7 -7 -7 -7 -7 -7 -4 17 99 58 1 -7 -7 -7 -7 -7 -7 -7 -7 -7 -7 -7 -6 3 67 72 4 -6 -7 -7 -7 -7 -7 -7 -7 -6 3 68 
68 3 -6 -7 -7 -7 -7 -7 -7 -7 -7 -6 3 67 73 5 -6 -7 -7 -7 -7 -7 -7 -7 -7 -7 -7 -7 -7 -7 -7 -5 15 92 92 15 -5 -7 -7 -7 -7 -7 -7 -7 -7 -7 -7 -7 -7 -7 -7 -6 3 68 68 3 -6 -7 -7 -7 -7 -7 -7 -7 -7 -7 -7 -7 -7 -7 -7 -7 -7 -7 -7 -7 -7 -6 3 62 98 16 -5 -7 -7 -7 -7 -7 -7 -7 -7 -7 -7 -7 -6 4 72 67 3 -6 -7 -7 -7 -7 -7 -7 -7 -6 3 68 
68 3 -6 -7 -7 -7 -7 -7 -7 -7 -7 -7 1 57 99 17 -5 -7 -7 -7 -7 -7 -7 -7 -7 -7 -7 -7 -7 -7 -6 3 62 99 23 -3 -7 -7 -7 -7 -7 -7 -7 -7 -7 -7 -7 -7 -7 -7 -7 -6 3 68 68 3 -6 -7 -7 -7 -7 -7 -7 -7 -7 -7 -7 -7 -7 -7 -7 -7 -7 -7 -7 -7 -7 -5 16 98 62 3 -6 -7 -7 -7 -7 -7 -7 -7 -7 -7 -7 -7 -5 17 99 57 1 -7 -7 -7 -7 -7 -7 -7 -7 -6 3 68 
68 3 -6 -7 -7 -7 -7 -7 -7 -7 -7 -7 -5 17 99 57 1 -7 -7 -7 -7 -7 -7 -7 -7 -7 -7 -7 -7 -7 -5 17 98 63 3 -6 -7 -7 -7 -7 -7 -7 -7 -7 -7 -7 -7 -7 -7 -7 -7 -6 3 68 68 3 -6 -7 -7 -7 -7 -7 -7 -7 -7 -7 -7 -7 -7 -7 -7 -7 -7 -7 -7 -7 -7 1 58 99 17 -4 -7 -7 -7 -7 -7 -7 -7 -7 -7 -7 -7 -7 1 57 99 17 -5 -7 -7 -7 -7 -7 -7 -7 -7 -6 3 68 
68 3 -6 -7 -7 -7 -7 -7 -7 -7 -7 -7 -6 4 73 67 2 -6 -7 -7 -7 -7 -7 -7 -7 -7 -7 -7 -7 -6 3 62 98 17 -4 -7 -7 -7 -7 -7 -7 -7 -7 -7 -7 -7 -7 -7 -7 -7 -7 -6 2 67 73 4 -6 -7 -7 -7 -7 -7 -7 -7 -7 -7 -7 -7 -7 -7 -7 -7 -7 -7 -7 -7 -6 4 71 71 4 -6 -7 -7 -7 -7 -7 -7 -7 -7 -7 -7 -7 -6 3 67 72 4 -6 -7 -7 -7 -7 -7 -7 -7 -7 -6 3 68 
68 3 -6 -7 -7 -7 -7 -7 -7 -7 -7 -7 -6 3 68 68 3 -6 -7 -7 -7 -7 -7 -7 -7 -7 -7 -7 -7 -4 17 98 62 3 -6 -7 -7 -7 -7 -7 -7 -7 -7 -7 -7 -7 -7 -7 -7 -7 -7 -7 1 57 99 17 -5 -7 -7 -7 -7 -7 -7 -7 -7 -7 -7 -7 -7 -7 -7 -7 -7 -7 -7 -7 -4 17 99 58 1 -7 -7 -7 -7 -7 -7 -7 -7 -7 -7 -7 -7 -6 4 72 67 3 -6 -7 -7 -7 -7 -7 -7 -7 -7 -6 3 68 
68 3 -6 -7 -7 -7 -7 -7 -7 -7 -7 -7 -6 2 67 73 4 -6 -7 -7 -7 -7 -7 -7 -7 -7 -7 -7 -6 3 63 98 17 -5 -7 -7 -7 -7 -7 -7 -7 -7 -7 -7 -7 -7 -7 -7 -7 -7 -7 -7 -5 17 99 57 1 -7 -7 -7 -7 -7 -7 -7 -7 -7 -7 -7 -7 -7 -7 -7 -7 -7 -7 -6 3 62 98 16 -5 -7 -7 -7 -7 -7 -7 -7 -7 -7 -7 -7 -7 -5 17 99 57 1 -7 -7 -7 -7 -7 -7 -7 -7 -7 -6 4 74 
70 3 -6 -7 -7 -7 -7 -7 -7 -7 -7 -7 -7 1 57 99 17 -5 -7 -7 -7 -7 -7 -7 -7 -7 -7 -7 -3 23 99 62 3 -6 -7 -7 -7 -7 -7 -7 -7 -7 -7 -7 -7 -7 -7 -7 -7 -7 -7 -7 -6 4 73 67 2 -6 -7 -7 -7 -7 -7 -7 -7 -7 -7 -7 -7 -7 -7 -7 -7 -7 -7 -5 16 98 62 3 -6 -7 -7 -7 -7 -7 -7 -7 -7 -7 -7 -7 -7 1 57 99 17 -5 -7 -7 -7 -7 -7 -7 -7 -7 -7 -4 17 110 
71 3 -6 -7 -7 -7 -7 -7 -7 -7 -7 -7 -7 -5 17 99 57 1 -7 -7 -7 -7 -7 -7 -7 -7 -7 -5 15 92 92 15 -5 -7 -7 -7 -7 -7 -7 -7 -7 -7 -7 -7 -7 -7 -7 -7 -7 -7 -7 -7 -6 3 68 68 3 -6 -7 -7 -7 -7 -7 -7 -7 -7 -7 -7 -7 -7 -7 -7 -7 -7 -7 1 58 99 17 -4 -7 -7 -7 -7 -7 -7 -7 -7 -7 -7 -7 -7 -6 3 67 72 4 -6 -7 -7 -7 -7 -7 -7 -7 -7 -6 3 64 148 
69 3 -6 -7 -7 -7 -7 -7 -7 -7 -7 -7 -7 -6 4 73 67 2 -6 -7 -7 -7 -7 -7 -7 -7 -6 3 62 99 23 -3 -7 -7 -7 -7 -7 -7 -7 -7 -7 -7 -7 -7 -7 -7 -7 -7 -7 -7 -7 -7 -6 3 68 68 3 -6 -7 -7 -7 -7 -7 -7 -7 -7 -7 -7 -7 -7 -7 -7 -7 -7 -6 4 71 71 4 -6 -7 -7 -7 -7 -7 -7 -7 -7 -7 -7 -7 -7 -6 4 72 67 3 -6 -7 -7 -7 -7 -7 -7 -7 -7 -3 23 102 125 
68 3 -6 -7 -7 -7 -7 -7 -7 -7 -7 -7 -7 -6 3 68 68 3 -6 -7 -7 -7 -7 -7 -7 -7 -5 17 98 63 3 -6 -7 -7 -7 -7 -7 -7 -7 -7 -7 -7 -7 -7 -7 -7 -7 -7 -7 -7 -7 -7 -6 3 68 68 3 -6 -7 -7 -7 -7 -7 -7 -7 -7 -7 -7 -7 -7 -7 -7 -7 -7 -4 17 99 58 1 -7 -7 -7 -7 -7 -7 -7 -7 -7 -7 -7 -7 -7 -5 17 99 57 1 -7 -7 -7 -7 -7 -7 -7 -7 -5 15 92 101 88 
68 3 -6 -7 -7 -7 -7 -7 -7 -7 -7 -7 -7 -6 2 67 73 4 -6 -7 -7 -7 -7 -7 -7 -6 3 62 98 17 -4 -7 -7 -7 -7 -7 -7 -7 -7 -7 -7 -7 -7 -7 -7 -7 -7 -7 -7 -7 -7 -7 -6 2 67 73 4 -6 -7 -7 -7 -7 -7 -7 -7 -7 -7 -7 -7 -7 -7 -7 -7 -6 3 62 98 16 -5 -7 -7 -7 -7 -7 -7 -7 -7 -7 -7 -7 -7 -7 1 57 99 17 -5 -7 -7 -7 -7 -7 -7 -7 -6 3 62 100 33 72 
68 3 -6 -7 -7 -7 -7 -7 -7 -7 -7 -7 -7 -7 1 57 99 17 -5 -7 -7 -7 -7 -7 -7 -4 17 98 62 3 -6 -7 -7 -7 -7 -7 -7 -7 -7 -7 -7 -7 -7 -7 -7 -7 -7 -7 -7 -7 -7 -7 -7 1 57 99 17 -5 -7 -7 -7 -7 -7 -7 -7 -7 -7 -7 -7 -7 -7 -7 -7 -5 16 98 62 3 -6 -7 -7 -7 -7 -7 -7 -7 -7 -7 -7 -7 -7 -6 3 67 72 4 -6 -7 -7 -7 -7 -7 -7 -7 -3 23 99 63 14 69 
68 3 -6 -7 -7 -7 -7 -7 -7 -7 -7 -7 -7 -7 -5 17 99 57 1 -7 -7 -7 -7 -7 -6 3 63 98 17 -5 -7 -7 -7 -7 -7 -7 -7 -7 -7 -7 -7 -7 -7 -7 -7 -7 -7 -7 -7 -7 -7 -7 -7 -5 17 99 57 1 -7 -7 -7 -7 -7 -7 -7 -7 -7 -7 -7 -7 -7 -7 -7 1 58 99 17 -4 -7 -7 -7 -7 -7 -7 -7 -7 -7 -7 -7 -7 -7 -6 4 72 67 3 -6 -7 -7 -7 -7 -7 -7 -5 15 92 92 16 5 68 
68 3 -6 -7 -7 -7 -7 -7 -7 -7 -7 -7 -7 -7 -6 4 73 67 2 -6 -7 -7 -7 -7 -3 23 99 62 3 -6 -7 -7 -7 -7 -7 -7 -7 -7 -7 -7 -7 -7 -7 -7 -7 -7 -7 -7 -7 -7 -7 -7 -7 -6 5 73 67 3 -6 -6 -6 -7 -7 -7 -7 -7 -7 -7 -7 -7 -7 -7 -6 4 71 71 4 -6 -7 -7 -7 -7 -7 -7 -7 -7 -7 -7 -7 -7 -7 -5 17 99 57 1 -7 -7 -7 -7 -7 -7 -6 3 62 99 23 -2 3 68 
68 3 -6 -7 -7 -7 -7 -7 -7 -7 -7 -7 -7 -7 -6 3 68 68 3 -6 -7 -7 -7 -5 15 92 92 15 -5 -7 -7 -7 -7 -7 -7 -7 -7 -7 -7 -7 -7 -7 -7 -7 -7 -7 -7 -7 -7 -7 -7 -7 -7 -6 5 75 76 13 4 3 2 1 -5 -6 -6 -6 -6 -6 -7 -7 -7 -7 -4 17 99 58 1 -7 -7 -7 -7 -7 -7 -7 -7 -7 -7 -7 -7 -7 -7 1 57 99 17 -5 -7 -7 -7 -7 -7 -7 -3 23 99 62 3 -5 3 68 
68 3 -6 -7 -7 -7 -7 -7 -7 -7 -7 -7 -7 -7 -6 2 67 73 4 -6 -7 -7 -6 3 62 99 23 -3 -7 -7 -7 -7 -7 -7 -7 -7 -7 -7 -7 -7 -7 -7 -7 -7 -7 -7 -7 -7 -7 -7 -7 -7 -5 3 25 112 120 76 68 68 67 57 17 4 3 3 3 2 1 -5 -6 -6 3 63 98 16 -5 -7 -7 -7 -7 -7 -7 -7 -7 -7 -7 -7 -7 -7 -6 3 67 72 4 -6 -7 -7 -7 -7 -7 -5 15 92 92 15 -5 -6 3 68 
68 3 -6 -7 -7 -7 -7 -7 -7 -7 -7 -7 -7 -7 -7 1 57 99 17 -5 -7 -7 -5 17 98 63 3 -6 -7 -7 -7 -7 -7 -7 -7 -7 -7 -7 -7 -7 -7 -7 -7 -7 -7 -7 -7 -7 -7 -7 -6 -3 15 62 100 104 76 69 68 68 73 99 99 73 68 68 68 67 57 17 5 5 25 100 63 3 -6 -7 -7 -7 -7 -7 -7 -7 -7 -7 -7 -7 -7 -7 -6 4 72 67 3 -6 -7 -7 -7 -7 -6 3 62 99 23 -3 -7 -6 3 68 
68 3 -6 -7 -7 -7 -7 -7 -7 -7 -7 -7 -7 -7 -7 -5 17 99 57 1 -7 -6 3 62 98 17 -4 -7 -7 -7 -7 -7 -7 -7 -7 -7 -7 -7 -7 -7 -7 -7 -7 -7 -7 -7 -7 -7 -7 -5 3 23 92 99 63 17 4 3 3 3 4 17 57 67 68 68 68 73 99 99 73 75 112 109 19 -4 -7 -7 -7 -7 -7 -7 -7 -7 -7 -7 -7 -7 -7 -7 -5 17 99 57 1 -7 -7 -7 -7 -7 -3 23 99 62 3 -6 -7 -6 3 68 
68 3 -6 -7 -7 -7 -7 -7 -7 -7 -7 -7 -7 -7 -7 -6 4 73 67 2 -6 -4 17 98 62 3 -6 -7 -7 -7 -7 -7 -7 -7 -7 -7 -7 -7 -7 -7 -7 -7 -7 -7 -7 -7 -7 -6 -3 15 62 99 92 23 3 -4 -6 -6 -6 -6 -6 -5 1 2 3 3 3 4 17 57 67 74 112 109 19 -4 -7 -7 -7 -7 -7 -7 -7 -7 -7 -7 -7 -7 -7 -7 1 57 99 17 -5 -7 -7 -7 -7 -5 15 92 92 15 -5 -7 -7 -6 3 68 
68 3 -6 -7 -7 -7 -7 -7 -7 -7 -7 -7 -7 -7 -7 -6 3 68 68 3 -5 3 63 98 17 -5 -7 -7 -7 -7 -7 -7 -7 -7 -7 -7 -7 -7 -7 -7 -7 -7 -7 -7 -7 -7 -5 3 23 92 99 62 15 -3 -6 -7 -7 -7 -7 -7 -7 -7 -7 -6 -6 -6 -6 -6 -5 1 3 5 25 100 63 3 -6 -7 -7 -7 -7 -7 -7 -7 -7 -7 -7 -7 -7 -6 3 67 72 4 -6 -7 -7 -7 -6 3 62 99 23 -3 -7 -7 -7 -6 3 68 
68 3 -6 -7 -7 -7 -7 -7 -7 -7 -7 -7 -7 -7 -7 -6 2 67 73 5 -2 23 99 62 3 -6 -7 -7 -7 -7 -7 -7 -7 -7 -7 -7 -7 -7 -7 -7 -7 -7 -7 -7 -7 -3 15 62 99 92 23 3 -5 -7 -7 -7 -7 -7 -7 -7 -7 -7 -7 -7 -7 -7 -7 -7 -7 -7 -6 -6 3 62 99 23 -2 -6 -7 -7 -7 -7 -7 -7 -7 -7 -7 -7 -7 -6 4 72 67 3 -6 -7 -7 -7 -3 23 99 62 3 -6 -7 -7 -7 -6 3 68 
68 3 -6 -7 -7 -7 -7 -7 -7 -7 -7 -7 -7 -7 -7 -7 1 57 99 19 18 92 92 15 -5 -7 -7 -7 -7 -7 -7 -7 -7 -7 -7 -7 -7 -7 -7 -7 -7 -7 -7 -6 -2 22 92 99 62 15 -3 -6 -7 -7 -7 -7 -7 -7 -7 -7 -7 -7 -7 -7 -7 -7 -7 -7 -7 -7 -7 -7 -5 15 92 94 24 3 -4 -6 -6 -6 -6 -6 -6 -6 -6 -6 -6 -4 17 99 57 1 -7 -7 -7 -5 15 92 92 15 -5 -7 -7 -7 -7 -6 3 68 
68 3 -6 -7 -7 -7 -7 -7 -7 -7 -7 -7 -7 -7 -7 -7 -5 17 99 67 70 99 23 -3 -7 -7 -7 -7 -7 -7 -7 -7 -7 -7 -7 -7 -7 -7 -7 -7 -7 -7 -5 3 23 93 93 23 3 -5 -7 -7 -7 -7 -7 -7 -7 -7 -7 -7 -7 -7 -7 -7 -7 -7 -7 -7 -7 -7 -7 -7 -7 -3 23 104 110 64 17 4 3 3 3 3 3 3 3 3 3 11 65 105 19 -4 -7 -7 -6 3 62 99 23 -3 -7 -7 -7 -7 -7 -6 3 68 
68 3 -6 -7 -7 -7 -7 -7 -7 -7 -7 -7 -7 -7 -7 -7 -6 4 73 88 106 63 3 -6 -7 -7 -7 -7 -7 -7 -7 -7 -7 -7 -7 -7 -7 -7 -7 -7 -6 -3 15 62 99 92 22 -2 -6 -7 -7 -7 -7 -7 -7 -7 -7 -7 -7 -7 -7 -7 -7 -7 -7 -7 -7 -7 -7 -7 -7 -7 -7 -6 5 77 124 106 99 73 68 68 68 68 68 68 68 68 68 75 119 116 27 4 -4 -6 -3 23 99 62 3 -6 -7 -7 -7 -7 -7 -6 3 68 
68 3 -6 -7 -7 -7 -7 -7 -7 -7 -7 -7 -7 -7 -7 -7 -6 3 70 125 101 17 -4 -7 -7 -7 -7 -7 -7 -7 -7 -7 -7 -7 -7 -7 -7 -7 -7 -5 3 23 92 99 62 15 -3 -7 -7 -7 -7 -7 -7 -7 -7 -7 -7 -7 -7 -7 -7 -7 -7 -7 -7 -7 -7 -7 -7 -7 -7 -7 -7 -6 5 73 76 27 58 67 68 68 68 68 68 68 68 68 68 69 76 104 100 63 17 5 18 92 92 15 -5 -7 -7 -7 -7 -7 -7 -6 3 68 
68 3 -6 -7 -7 -7 -7 -7 -7 -7 -7 -7 -7 -7 -7 -7 -6 3 71 148 64 3 -6 -7 -7 -7 -7 -7 -7 -7 -7 -7 -7 -7 -7 -7 -7 -6 -3 15 62 99 92 23 3 -5 -7 -7 -7 -7 -7 -7 -7 -7 -7 -7 -7 -7 -7 -7 -7 -7 -7 -7 -7 -7 -7 -7 -7 -7 -7 -7 -7 -5 17 99 58 3 2 2 3 3 3 3 3 3 3 3 3 3 4 17 62 98 99 70 78 101 23 -3 -7 -7 -7 -7 -7 -7 -7 -6 3 68 
68 3 -6 -7 -7 -7 -7 -7 -7 -7 -7 -7 -7 -7 -7 -7 -6 3 70 110 17 -4 -7 -7 -7 -7 -7 -7 -7 -7 -7 -7 -7 -7 -7 -7 -5 3 23 92 99 62 15 -3 -6 -7 -7 -7 -7 -7 -7 -7 -7 -7 -7 -7 -7 -7 -7 -7 -7 -7 -7 -7 -7 -7 -7 -7 -7 -7 -7 -7 -7 1 57 99 17 -4 -6 -6 -6 -6 -6 -6 -6 -6 -6 -6 -6 -6 -6 -4 3 17 63 102 143 82 7 -6 -7 -7 -7 -7 -7 -7 -7 -6 3 68 
68 3 -6 -7 -7 -7 -7 -7 -7 -7 -7 -7 -7 -7 -7 -7 -6 3 68 74 4 -6 -7 -7 -7 -7 -7 -7 -7 -7 -7 -7 -7 -7 -6 -3 16 64 102 94 24 4 -4 -6 -7 -7 -7 -7 -7 -7 -7 -7 -7 -7 -7 -7 -7 -7 -7 -7 -7 -7 -7 -7 -7 -7 -7 -7 -7 -7 -7 -7 -6 2 67 73 4 -6 -7 -7 -7 -7 -7 -7 -7 -7 -7 -7 -7 -7 -7 -7 -6 -4 3 23 102 104 23 -3 -7 -7 -7 -7 -7 -7 -7 -6 3 68 
68 3 -6 -7 -7 -7 -7 -7 -7 -7 -7 -7 -7 -7 -7 -7 -6 3 68 68 3 -6 -7 -7 -7 -7 -7 -7 -7 -7 -7 -6 -5 1 5 23 101 147 117 39 9 4 3 1 -5 -6 -6 -7 -7 -7 -7 -7 -7 -7 -7 -7 -7 -7 -7 -7 -7 -7 -7 -7 -7 -7 -7 -7 -7 -7 -7 -7 -6 3 68 68 3 -6 -7 -7 -7 -7 -7 -7 -7 -7 -7 -7 -7 -7 -7 -7 -7 -7 -6 -2 22 94 92 15 -5 -7 -7 -7 -7 -7 -7 -6 3 68 
68 3 -6 -7 -7 -7 -7 -7 -7 -7 -7 -7 -7 -7 -7 -7 -6 4 73 67 2 -6 -7 -7 -7 -7 -7 -7 -7 -6 -5 3 16 58 71 100 104 82 103 101 73 68 67 57 17 4 3 1 -5 -6 -6 -6 -7 -7 -7 -7 -7 -7 -7 -7 -7 -7 -7 -7 -7 -7 -7 -7 -7 -7 -7 -7 -6 3 68 68 3 -6 -7 -7 -7 -7 -7 -7 -7 -7 -7 -7 -7 -7 -7 -7 -7 -7 -7 -7 -2 23 99 62 3 -6 -7 -7 -7 -7 -7 -6 3 68 
68 3 -6 -7 -7 -7 -7 -7 -7 -7 -7 -7 -7 -7 -7 -7 -5 17 99 57 1 -7 -7 -7 -7 -7 -7 -6 -4 3 17 62 98 99 71 58 17 6 17 57 67 68 73 99 99 72 67 57 17 4 3 2 1 -5 -6 -6 -7 -7 -7 -7 -7 -7 -7 -7 -7 -7 -7 -7 -7 -7 -7 -7 -6 4 73 67 2 -6 -7 -7 -7 -7 -7 -7 -7 -7 -7 -7 -7 -7 -7 -7 -7 -7 -7 -7 -6 3 62 99 23 -3 -7 -7 -7 -7 -7 -6 3 68 
68 3 -6 -7 -7 -7 -7 -7 -7 -7 -7 -7 -7 -7 -7 -7 1 57 99 17 -5 -7 -7 -7 -6 -5 1 4 17 62 98 98 62 17 4 1 -5 -6 -5 1 2 3 4 17 57 67 72 99 99 73 68 67 57 17 4 3 1 -5 -6 -6 -6 -7 -7 -7 -7 -7 -7 -7 -7 -7 -7 -7 -5 17 99 57 1 -7 -7 -7 -7 -7 -7 -7 -7 -7 -7 -7 -7 -7 -7 -7 -7 -7 -7 -7 -7 -5 15 92 92 15 -5 -7 -7 -7 -7 -6 3 68 
68 3 -6 -7 -7 -7 -7 -7 -7 -7 -7 -7 -7 -7 -7 -6 2 67 73 4 -6 -7 -6 -5 3 16 58 71 99 98 62 17 3 -4 -6 -7 -7 -7 -7 -7 -6 -6 -6 -5 1 3 4 17 57 67 68 73 99 99 72 67 57 17 4 3 2 1 -5 -6 -6 -7 -7 -7 -7 -7 -7 -7 1 57 99 17 -5 -7 -7 -7 -7 -7 -7 -7 -7 -7 -7 -7 -7 -7 -7 -7 -7 -7 -7 -7 -7 -7 -3 23 99 62 3 -6 -7 -7 -7 -6 3 68 
68 3 -6 -7 -7 -7 -7 -7 -7 -7 -7 -7 -7 -7 -7 -6 3 68 68 3 -5 -4 3 17 62 98 99 71 58 16 3 -5 -6 -7 -7 -7 -7 -7 -7 -7 -7 -7 -7 -7 -7 -6 -6 -5 1 2 3 4 17 57 67 72 99 99 73 68 67 57 17 4 3 1 -5 -6 -6 -6 -7 -6 3 67 73 4 -6 -7 -7 -7 -7 -7 -7 -7 -7 -7 -7 -7 -7 -7 -7 -7 -7 -7 -7 -7 -7 -7 -6 3 62 99 23 -2 -7 -7 -7 -6 3 68 
68 3 -6 -7 -7 -7 -7 -7 -7 -7 -7 -7 -7 -7 -7 -6 4 73 67 5 3 17 62 98 98 62 17 4 1 -5 -6 -7 -7 -7 -7 -7 -7 -7 -7 -7 -7 -7 -7 -7 -7 -7 -7 -7 -7 -6 -6 -6 -5 1 3 4 17 57 67 68 73 99 99 72 67 57 17 4 3 2 1 -4 4 68 68 3 -6 -7 -7 -7 -7 -7 -7 -7 -7 -7 -7 -7 -7 -7 -7 -7 -7 -7 -7 -7 -7 -7 -7 -5 15 92 93 22 -3 -7 -7 -6 3 68 
68 3 -6 -7 -7 -7 -7 -7 -7 -7 -7 -7 -7 -7 -7 -4 17 102 68 26 63 98 98 62 17 3 -4 -6 -7 -7 -7 -7 -7 -7 -7 -7 -7 -7 -7 -7 -7 -7 -7 -7 -7 -7 -7 -7 -7 -7 -7 -7 -7 -7 -6 -6 -5 1 2 3 4 17 57 67 72 99 99 73 68 67 57 17 15 76 68 3 -6 -7 -7 -7 -7 -7 -7 -7 -7 -7 -7 -7 -7 -7 -7 -7 -7 -7 -7 -7 -7 -7 -7 -7 -3 22 93 92 15 -5 -7 -6 3 68 
68 3 -6 -7 -7 -7 -7 -7 -7 -7 -7 -7 -7 -7 -6 3 65 142 92 101 98 62 17 3 -5 -6 -7 -7 -7 -7 -7 -7 -7 -7 -7 -7 -7 -7 -7 -7 -7 -7 -7 -7 -7 -7 -7 -7 -7 -7 -7 -7 -7 -7 -7 -7 -7 -7 -6 -6 -6 -5 1 3 4 17 57 67 68 73 99 100 80 120 70 3 -6 -7 -7 -7 -7 -7 -7 -7 -7 -7 -7 -7 -7 -7 -7 -7 -7 -7 -7 -7 -7 -7 -7 -7 -7 -2 23 99 62 3 -6 -6 3 68 
68 3 -6 -7 -7 -7 -7 -7 -7 -7 -7 -7 -7 -7 -4 17 102 111 73 58 16 3 -5 -6 -7 -7 -7 -7 -7 -7 -7 -7 -7 -7 -7 -7 -7 -7 -7 -7 -7 -7 -7 -7 -7 -7 -7 -7 -7 -7 -7 -7 -7 -7 -7 -7 -7 -7 -7 -7 -7 -7 -7 -6 -6 -5 1 2 3 4 17 58 75 120 70 3 -6 -7 -7 -7 -7 -7 -7 -7 -7 -7 -7 -7 -7 -7 -7 -7 -7 -7 -7 -7 -7 -7 -7 -7 -7 -6 3 62 99 23 -2 -6 3 68 
68 3 -6 -7 -7 -7 -7 -7 -7 -7 -7 -7 -7 -6 3 63 100 25 5 1 -5 -6 -7 -7 -7 -7 -7 -7 -7 -7 -7 -7 -7 -7 -7 -7 -7 -7 -7 -7 -7 -7 -7 -7 -7 -7 -7 -7 -7 -7 -7 -7 -7 -7 -7 -7 -7 -7 -7 -7 -7 -7 -7 -7 -7 -7 -7 -6 -6 -6 -5 2 13 75 68 3 -6 -7 -7 -7 -7 -7 -7 -7 -7 -7 -7 -7 -7 -7 -7 -7 -7 -7 -7 -7 -7 -7 -7 -7 -7 -7 -5 15 92 93 22 -2 3 68 
68 3 -6 -7 -7 -7 -7 -7 -7 -7 -7 -7 -7 -3 23 99 62 3 -6 -7 -7 -7 -7 -7 -7 -7 -7 -7 -7 -7 -7 -7 -7 -7 -7 -7 -7 -7 -7 -7 -7 -7 -7 -7 -7 -7 -7 -7 -7 -7 -7 -7 -7 -7 -7 -7 -7 -7 -7 -7 -7 -7 -7 -7 -7 -7 -7 -7 -7 -7 -7 -6 3 68 68 3 -6 -7 -7 -7 -7 -7 -7 -7 -7 -7 -7 -7 -7 -7 -7 -7 -7 -7 -7 -7 -7 -7 -7 -7 -7 -7 -7 -3 22 93 92 16 5 68 
68 3 -6 -7 -7 -7 -7 -7 -7 -7 -7 -7 -5 15 92 92 15 -5 -7 -7 -7 -7 -7 -7 -7 -7 -7 -7 -7 -7 -7 -7 -7 -7 -7 -7 -7 -7 -7 -7 -7 -7 -7 -7 -7 -7 -7 -7 -7 -7 -7 -7 -7 -7 -7 -7 -7 -7 -7 -7 -7 -7 -7 -7 -7 -7 -7 -7 -7 -7 -7 -6 3 68 68 3 -6 -7 -7 -7 -7 -7 -7 -7 -7 -7 -7 -7 -7 -7 -7 -7 -7 -7 -7 -7 -7 -7 -7 -7 -7 -7 -7 -7 -2 23 99 63 14 69 
68 3 -6 -7 -7 -7 -7 -7 -7 -7 -7 -6 3 62 99 23 -3 -7 -7 -7 -7 -7 -7 -7 -7 -7 -7 -7 -7 -7 -7 -7 -7 -7 -7 -7 -7 -7 -7 -7 -7 -7 -7 -7 -7 -7 -7 -7 -7 -7 -7 -7 -7 -7 -7 -7 -7 -7 -7 -7 -7 -7 -7 -7 -7 -7 -7 -7 -7 -7 -7 -6 3 68 68 3 -6 -7 -7 -7 -7 -7 -7 -7 -7 -7 -7 -7 -7 -7 -7 -7 -7 -7 -7 -7 -7 -7 -7 -7 -7 -7 -7 -7 -6 3 62 100 33 72 
68 3 -6 -7 -7 -7 -7 -7 -7 -7 -7 -2 23 99 62 3 -6 -7 -7 -7 -7 -7 -7 -7 -7 -7 -7 -7 -7 -7 -7 -7 -7 -7 -7 -7 -7 -7 -7 -7 -7 -7 -7 -7 -7 -7 -7 -7 -7 -7 -7 -7 -7 -7 -7 -7 -7 -7 -7 -7 -7 -7 -7 -7 -7 -7 -7 -7 -7 -7 -7 -6 3 67 73 5 -6 -7 -7 -7 -7 -7 -7 -7 -7 -7 -7 -7 -7 -7 -7 -7 -7 -7 -7 -7 -7 -7 -7 -7 -7 -7 -7 -7 -7 -5 15 92 101 88 
69 3 -6 -7 -7 -7 -7 -7 -7 -7 -2 22 93 93 16 -4 -6 -7 -7 -7 -7 -7 -7 -7 -7 -7 -7 -7 -7 -7 -7 -7 -7 -7 -7 -7 -7 -7 -7 -7 -7 -7 -7 -7 -7 -7 -7 -7 -7 -7 -7 -7 -7 -7 -7 -7 -7 -7 -7 -7 -7 -7 -7 -7 -7 -7 -7 -7 -7 -7 -7 -6 3 65 103 24 -2 -6 -7 -7 -7 -7 -7 -7 -7 -7 -7 -7 -7 -7 -7 -7 -7 -7 -7 -7 -7 -7 -7 -7 -7 -7 -7 -7 -7 -7 -3 23 102 125 
71 3 -6 -7 -7 -7 -7 -7 -7 -2 22 96 101 32 7 3 1 -5 -6 -6 -6 -6 -6 -6 -6 -6 -6 -6 -7 -7 -7 -7 -7 -7 -7 -7 -7 -7 -7 -7 -7 -7 -7 -7 -7 -7 -7 -7 -7 -7 -7 -7 -7 -7 -7 -7 -7 -7 -7 -7 -7 -7 -7 -7 -7 -7 -7 -7 -7 -7 -5 3 19 77 143 102 23 3 -4 -6 -7 -7 -7 -7 -7 -7 -7 -7 -7 -7 -7 -7 -7 -7 -7 -7 -7 -7 -7 -7 -7 -7 -7 -7 -7 -7 -6 3 64 148 
70 3 -6 -7 -7 -7 -7 -7 -2 22 102 144 93 72 68 67 57 17 4 3 3 3 3 3 3 3 3 2 1 -5 -6 -6 -6 -6 -6 -6 -6 -6 -6 -7 -7 -7 -7 -7 -7 -7 -7 -7 -7 -7 -7 -7 -7 -7 -7 -7 -7 -7 -7 -7 -7 -7 -7 -7 -7 -7 -7 -7 -6 -3 15 62 98 101 82 104 100 63 17 3 -5 -7 -7 -7 -7 -7 -7 -7 -7 -7 -7 -7 -7 -7 -7 -7 -7 -7 -7 -7 -7 -7 -7 -7 -7 -7 -7 -4 17 110 
68 3 -6 -7 -7 -7 -7 -2 22 93 104 77 69 68 68 73 99 99 73 68 68 68 68 68 68 68 68 67 57 17 4 3 3 3 3 3 3 3 2 1 -5 -6 -6 -6 -6 -6 -6 -6 -6 -6 -6 -7 -7 -7 -7 -7 -7 -7 -7 -7 -7 -7 -7 -7 -7 -7 -6 -4 3 23 92 99 63 17 6 17 62 98 98 62 15 -3 -6 -7 -7 -7 -7 -7 -7 -7 -7 -7 -7 -7 -7 -7 -7 -7 -7 -7 -7 -7 -7 -7 -7 -7 -7 -6 4 74 
68 3 -6 -7 -7 -7 -2 22 93 93 23 5 3 3 3 4 17 57 67 68 68 68 68 68 68 68 68 73 99 99 73 68 68 68 68 68 68 68 67 57 17 4 3 3 3 3 3 3 3 3 2 1 -5 -6 -6 -6 -6 -6 -6 -6 -6 -6 -7 -7 -7 -5 3 17 63 99 92 23 3 -4 -6 -4 3 17 63 99 92 23 3 -4 -6 -7 -7 -7 -7 -7 -7 -7 -7 -7 -7 -7 -7 -7 -7 -7 -7 -7 -7 -7 -7 -7 -7 -6 3 68 
68 3 -6 -7 -6 -2 22 93 93 22 -2 -6 -6 -6 -6 -6 -5 1 2 3 3 3 3 3 3 3 3 4 17 57 67 68 68 68 68 68 68 68 73 99 99 73 68 68 68 68 68 68 68 68 67 57 17 4 3 3 3 3 3 3 3 2 1 -4 -3 15 62 98 98 62 15 -3 -6 -7 -7 -7 -6 -4 3 23 92 99 63 17 3 -5 -7 -7 -7 -7 -7 -7 -7 -7 -7 -7 -7 -7 -7 -7 -7 -7 -7 -7 -7 -7 -7 -6 3 68 
68 3 -6 -5 3 23 93 93 22 -2 -7 -7 -7 -7 -7 -7 -7 -7 -6 -6 -6 -6 -6 -6 -6 -6 -6 -6 -5 1 2 3 3 3 3 3 3 3 4 17 57 67 68 68 68 68 68 68 68 68 73 99 99 73 68 68 68 68 68 68 68 67 57 19 25 92 99 63 17 3 -5 -7 -7 -7 -7 -7 -7 -7 -6 -3 15 62 98 98 62 15 -3 -6 -7 -7 -7 -7 -7 -7 -7 -7 -7 -7 -7 -7 -7 -7 -7 -7 -7 -7 -7 -6 3 68 
68 3 -2 15 62 99 92 22 -2 -7 -7 -7 -7 -7 -7 -7 -7 -7 -7 -7 -7 -7 -7 -7 -7 -7 -7 -7 -7 -7 -6 -6 -6 -6 -6 -6 -6 -6 -6 -5 1 2 3 3 3 3 3 3 3 3 4 17 57 67 68 68 68 68 68 68 68 73 101 109 109 94 23 3 -4 -6 -7 -7 -7 -7 -7 -7 -7 -7 -7 -7 -5 3 17 63 99 92 23 3 -4 -6 -7 -7 -7 -7 -7 -7 -7 -7 -7 -7 -7 -7 -7 -7 -7 -7 -7 -6 3 68 
68 7 22 92 99 62 15 -3 -7 -7 -7 -7 -7 -7 -7 -7 -7 -7 -7 -7 -7 -7 -7 -7 -7 -7 -7 -7 -7 -7 -7 -7 -7 -7 -7 -7 -7 -7 -7 -7 -7 -6 -6 -6 -6 -6 -6 -6 -6 -6 -6 -5 1 2 3 3 3 3 3 3 3 5 25 112 112 24 -2 -6 -7 -7 -7 -7 -7 -7 -7 -7 -7 -7 -7 -7 -7 -6 -4 3 23 92 99 63 17 3 -5 -7 -7 -7 -7 -7 -7 -7 -7 -7 -7 -7 -7 -7 -7 -7 -7 -6 3 68 
72 32 94 93 23 3 -5 -7 -7 -7 -7 -7 -7 -7 -7 -7 -7 -7 -7 -7 -7 -7 -7 -7 -7 -7 -7 -7 -7 -7 -7 -7 -7 -7 -7 -7 -7 -7 -7 -7 -7 -7 -7 -7 -7 -7 -7 -7 -7 -7 -7 -7 -7 -6 -6 -6 -6 -6 -6 -6 -6 -5 5 74 74 5 -6 -7 -7 -7 -7 -7 -7 -7 -7 -7 -7 -7 -7 -7 -7 -7 -7 -6 -3 15 62 98 98 62 15 -3 -6 -7 -7 -7 -7 -7 -7 -7 -7 -7 -7 -7 -7 -7 -7 -6 3 68 
93 101 93 22 -2 -6 -7 -7 -7 -7 -7 -7 -7 -7 -7 -7 -7 -7 -7 -7 -7 -7 -7 -7 -7 -7 -7 -7 -7 -7 -7 -7 -7 -7 -7 -7 -7 -7 -7 -7 -7 -7 -7 -7 -7 -7 -7 -7 -7 -7 -7 -7 -7 -7 -7 -7 -7 -7 -7 -7 -7 -6 3 68 68 3 -6 -7 -7 -7 -7 -7 -7 -7 -7 -7 -7 -7 -7 -7 -7 -7 -7 -7 -7 -5 3 17 63 99 92 23 3 -4 -6 -7 -7 -7 -7 -7 -7 -7 -7 -7 -7 -7 -7 -6 3 69 
145 96 22 -2 -7 -7 -7 -7 -7 -7 -7 -7 -7 -7 -7 -7 -7 -7 -7 -7 -7 -7 -7 -7 -7 -7 -7 -7 -7 -7 -7 -7 -7 -7 -7 -7 -7 -7 -7 -7 -7 -7 -7 -7 -7 -7 -7 -7 -7 -7 -7 -7 -7 -7 -7 -7 -7 -7 -7 -7 -7 -6 3 68 68 3 -6 -7 -7 -7 -7 -7 -7 -7 -7 -7 -7 -7 -7 -7 -7 -7 -7 -7 -7 -7 -6 -4 3 23 92 99 63 17 3 -5 -6 -7 -7 -7 -7 -7 -7 -7 -7 -7 -7 -6 3 71 
111 24 -2 -7 -7 -7 -7 -7 -7 -7 -7 -7 -7 -7 -7 -7 -7 -7 -7 -7 -7 -7 -7 -7 -7 -7 -7 -7 -7 -7 -7 -7 -7 -7 -7 -7 -7 -7 -7 -7 -7 -7 -7 -7 -7 -7 -7 -7 -7 -7 -7 -7 -7 -7 -7 -7 -7 -7 -7 -7 -7 -6 3 68 68 3 -6 -7 -7 -7 -7 -7 -7 -7 -7 -7 -7 -7 -7 -7 -7 -7 -7 -7 -7 -7 -7 -7 -6 -3 15 62 98 98 62 17 3 -5 -7 -7 -7 -7 -7 -7 -7 -7 -7 -6 3 70 
74 5 -6 -7 -7 -7 -7 -7 -7 -7 -7 -7 -7 -7 -7 -7 -7 -7 -7 -7 -7 -7 -7 -7 -7 -7 -7 -7 -7 -7 -7 -7 -7 -7 -7 -7 -7 -7 -7 -7 -7 -7 -7 -7 -7 -7 -7 -7 -7 -7 -7 -7 -7 -7 -7 -7 -7 -7 -7 -7 -7 -6 3 68 68 3 -6 -7 -7 -7 -7 -7 -7 -7 -7 -7 -7 -7 -7 -7 -7 -7 -7 -7 -7 -7 -7 -7 -7 -7 -5 3 17 62 98 98 62 15 -3 -6 -7 -7 -7 -7 -7 -7 -7 -6 3 68 
68 3 -6 -7 -7 -7 -7 -7 -7 -7 -7 -7 -7 -7 -7 -7 -7 -7 -7 -7 -7 -7 -7 -7 -7 -7 -7 -7 -7 -7 -7 -7 -7 -7 -7 -7 -7 -7 -7 -7 -7 -7 -7 -7 -7 -7 -7 -7 -7 -7 -7 -7 -7 -7 -7 -7 -7 -7 -7 -7 -7 -6 3 68 68 3 -6 -7 -7 -7 -7 -7 -7 -7 -7 -7 -7 -7 -7 -7 -7 -7 -7 -7 -7 -7 -7 -7 -7 -7 -7 -6 -5 3 17 63 99 92 23 3 -4 -6 -6 -7 -7 -7 -7 -6 3 68 
68 3 -6 -7 -7 -7 -7 -7 -7 -7 -7 -7 -7 -7 -7 -7 -7 -7 -7 -7 -7 -7 -7 -7 -7 -7 -7 -7 -7 -7 -7 -7 -7 -7 -7 -7 -7 -7 -7 -7 -7 -7 -7 -7 -7 -7 -7 -7 -7 -7 -7 -7 -7 -7 -7 -7 -7 -7 -7 -7 -7 -6 3 68 68 3 -6 -7 -7 -7 -7 -7 -7 -7 -7 -7 -7 -7 -7 -7 -7 -7 -7 -7 -7 -7 -7 -7 -7 -7 -7 -7 -7 -6 -4 3 23 93 100 64 17 4 3 1 -5 -6 -6 -6 3 68 
68 3 -6 -7 -7 -7 -7 -7 -7 -7 -7 -7 -7 -7 -7 -7 -7 -7 -7 -7 -7 -7 -7 -7 -7 -7 -7 -7 -7 -7 -7 -7 -7 -7 -7 -7 -7 -7 -7 -7 -7 -7 -7 -7 -7 -7 -7 -7 -7 -7 -7 -7 -7 -7 -7 -7 -7 -7 -7 -7 -7 -6 3 68 68 3 -6 -7 -7 -7 -7 -7 -7 -7 -7 -7 -7 -7 -7 -7 -7 -7 -7 -7 -7 -7 -7 -7 -7 -7 -7 -7 -7 -7 -6 -5 0 26 84 142 110 74 67 57 17 4 3 2 5 69 
68 3 -6 -7 -7 -7 -7 -7 -7 -7 -7 -7 -7 -7 -7 -7 -7 -7 -7 -7 -7 -7 -7 -7 -7 -7 -7 -7 -7 -7 -7 -7 -7 -7 -7 -7 -7 -7 -7 -7 -7 -7 -7 -7 -7 -7 -7 -7 -7 -7 -7 -7 -7 -7 -7 -7 -7 -7 -7 -7 -7 -6 3 68 68 3 -6 -7 -7 -7 -7 -7 -7 -7 -7 -7 -7 -7 -7 -7 -7 -7 -7 -7 -7 -7 -7 -7 -7 -7 -7 -7 -6 -5 1 4 18 65 106 106 76 69 73 99 99 72 67 58 27 77 
71 4 -6 -6 -6 -6 -6 -6 -7 -7 -7 -7 -7 -7 -7 -7 -7 -7 -7 -7 -7 -7 -7 -7 -7 -7 -7 -7 -7 -7 -7 -7 -7 -7 -7 -7 -7 -7 -7 -7 -7 -7 -7 -7 -7 -7 -7 -7 -7 -7 -7 -7 -7 -7 -7 -7 -7 -7 -7 -7 -7 -6 3 68 68 3 -6 -7 -7 -7 -7 -7 -7 -7 -7 -7 -7 -7 -7 -7 -7 -7 -7 -7 -7 -7 -7 -7 -7 -7 -6 -4 3 16 58 71 99 98 63 17 4 3 4 17 57 67 72 99 106 124 
78 13 4 3 3 3 3 2 1 -5 -6 -6 -6 -6 -6 -6 -7 -7 -7 -7 -7 -7 -7 -7 -7 -7 -7 -7 -7 -7 -7 -7 -7 -7 -7 -7 -7 -7 -7 -7 -7 -7 -7 -7 -7 -7 -7 -7 -7 -7 -7 -7 -7 -7 -7 -7 -7 -7 -7 -7 -7 -6 3 68 68 3 -6 -7 -7 -7 -7 -7 -7 -7 -7 -7 -7 -7 -7 -7 -7 -7 -7 -7 -7 -7 -7 -6 -5 1 4 17 62 98 99 71 58 16 3 -4 -6 -6 -6 -5 1 3 4 17 65 119 
120 76 68 68 68 68 68 67 57 17 4 3 3 3 3 2 1 -5 -6 -6 -6 -6 -6 -6 -6 -7 -7 -7 -7 -7 -7 -7 -7 -7 -7 -7 -7 -7 -7 -7 -7 -7 -7 -7 -7 -7 -7 -7 -7 -7 -7 -7 -7 -7 -7 -7 -7 -7 -7 -7 -7 -6 3 68 68 3 -6 -7 -7 -7 -7 -7 -7 -7 -7 -7 -7 -7 -7 -7 -7 -7 -7 -7 -7 -6 -4 3 16 58 71 99 98 62 17 4 1 -5 -6 -7 -7 -7 -7 -7 -7 -6 -6 -4 12 78 
120 76 68 68 68 68 68 73 99 99 73 68 68 68 68 67 57 17 4 3 3 3 3 3 2 1 -5 -6 -6 -6 -6 -6 -6 -7 -7 -7 -7 -7 -7 -7 -7 -7 -7 -7 -7 -7 -7 -7 -7 -7 -7 -7 -7 -7 -7 -7 -7 -7 -7 -7 -7 -6 3 68 68 3 -6 -7 -7 -7 -7 -7 -7 -7 -7 -7 -7 -7 -7 -7 -7 -7 -6 -5 1 4 17 62 98 99 71 58 16 3 -4 -6 -7 -7 -7 -7 -7 -7 -7 -7 -7 -7 -7 -6 3 71 
75 13 4 3 3 3 3 4 17 57 67 68 68 68 68 73 99 99 73 68 68 68 68 68 67 57 17 4 3 3 3 3 2 1 -5 -6 -6 -6 -6 -6 -6 -6 -7 -7 -7 -7 -7 -7 -7 -7 -7 -7 -7 -7 -7 -7 -7 -7 -7 -7 -7 -6 3 68 68 3 -6 -7 -7 -7 -7 -7 -7 -7 -7 -7 -7 -7 -7 -7 -6 -5 3 16 58 71 99 98 62 17 4 1 -5 -6 -7 -7 -7 -7 -7 -7 -7 -7 -7 -7 -7 -7 -7 -6 3 68 
68 4 -6 -6 -6 -6 -6 -6 -5 1 2 3 3 3 3 4 17 57 67 68 68 68 68 68 73 99 99 73 68 68 68 68 67 57 17 4 3 3 3 3 3 2 1 -5 -6 -6 -6 -6 -6 -6 -7 -7 -7 -7 -7 -7 -7 -7 -7 -7 -7 -6 3 68 68 3 -6 -7 -7 -7 -7 -7 -7 -7 -7 -7 -7 -7 -6 -4 3 17 62 98 99 71 58 16 3 -4 -6 -7 -7 -7 -7 -7 -7 -7 -7 -7 -7 -7 -7 -7 -7 -7 -7 -6 3 68 
68 3 -6 -7 -7 -7 -7 -7 -7 -7 -6 -6 -6 -6 -6 -6 -5 1 2 3 3 3 3 3 4 17 57 67 68 68 68 68 73 99 99 73 68 68 68 68 68 67 57 17 4 3 3 3 3 2 1 -5 -6 -6 -6 -6 -6 -6 -6 -7 -7 -6 3 68 68 3 -6 -7 -7 -7 -7 -7 -7 -7 -7 -6 -5 1 4 17 62 98 98 62 17 4 1 -5 -6 -7 -7 -7 -7 -7 -7 -7 -7 -7 -7 -7 -7 -7 -7 -7 -7 -7 -7 -6 3 68 
68 3 -6 -7 -7 -7 -7 -7 -7 -7 -7 -7 -7 -7 -7 -7 -7 -7 -6 -6 -6 -6 -6 -6 -6 -5 1 2 3 3 3 3 4 17 57 67 68 68 68 68 68 73 99 99 73 68 68 68 68 67 57 17 4 3 3 3 3 3 2 1 -5 -5 4 68 68 3 -6 -7 -7 -7 -7 -7 -7 -6 -4 3 16 58 71 99 98 62 17 3 -4 -6 -7 -7 -7 -7 -7 -7 -7 -7 -7 -7 -7 -7 -7 -7 -7 -7 -7 -7 -7 -7 -7 -6 3 68 
68 3 -6 -7 -7 -7 -7 -7 -7 -7 -7 -7 -7 -7 -7 -7 -7 -7 -7 -7 -7 -7 -7 -7 -7 -7 -7 -6 -6 -6 -6 -6 -6 -5 1 2 3 3 3 3 3 4 17 57 67 68 68 68 68 73 99 99 73 68 68 68 68 68 67 57 17 5 13 76 74 5 -6 -7 -7 -7 -6 -5 1 4 17 62 98 99 71 58 16 3 -5 -6 -7 -7 -7 -7 -7 -7 -7 -7 -7 -7 -7 -7 -7 -7 -7 -7 -7 -7 -7 -7 -7 -7 -7 -6 3 68 
68 3 -6 -7 -7 -7 -7 -7 -7 -7 -7 -7 -7 -7 -7 -7 -7 -7 -7 -7 -7 -7 -7 -7 -7 -7 -7 -7 -7 -7 -7 -7 -7 -7 -7 -6 -6 -6 -6 -6 -6 -6 -5 1 2 3 3 3 3 4 17 57 67 68 68 68 68 68 73 99 99 73 76 120 112 24 -2 -6 -6 -4 3 16 58 71 99 98 62 17 4 1 -5 -6 -7 -7 -7 -7 -7 -7 -7 -7 -7 -7 -7 -7 -7 -7 -7 -7 -7 -7 -7 -7 -7 -7 -7 -7 -7 -6 3 68 
68 3 -6 -7 -7 -7 -7 -7 -7 -7 -7 -7 -7 -7 -7 -7 -7 -7 -7 -7 -7 -7 -7 -7 -7 -7 -7 -7 -7 -7 -7 -7 -7 -7 -7 -7 -7 -7 -7 -7 -7 -7 -7 -7 -6 -6 -6 -6 -6 -6 -5 1 2 3 3 3 3 3 4 17 57 67 69 76 104 94 23 5 5 17 62 98 99 71 58 16 3 -4 -6 -7 -7 -7 -7 -7 -7 -7 -7 -7 -7 -7 -7 -7 -7 -7 -7 -7 -7 -7 -7 -7 -7 -7 -7 -7 -7 -7 -7 -6 3 68 
68 3 -6 -7 -7 -7 -7 -7 -7 -7 -7 -7 -7 -7 -7 -7 -7 -7 -7 -7 -7 -7 -7 -7 -7 -7 -7 -7 -7 -7 -7 -7 -7 -7 -7 -7 -7 -7 -7 -7 -7 -7 -7 -7 -7 -7 -7 -7 -7 -7 -7 -7 -6 -6 -6 -6 -6 -6 -6 -5 1 2 3 5 23 94 105 77 73 99 98 62 17 4 1 -5 -6 -7 -7 -7 -7 -7 -7 -7 -7 -7 -7 -7 -7 -7 -7 -7 -7 -7 -7 -7 -7 -7 -7 -7 -7 -7 -7 -7 -7 -7 -7 -6 3 68 
68 3 -6 -7 -7 -7 -7 -7 -7 -7 -7 -7 -7 -7 -7 -7 -7 -7 -7 -7 -7 -7 -7 -7 -7 -7 -7 -7 -7 -7 -7 -7 -7 -7 -7 -7 -7 -7 -7 -7 -7 -7 -7 -7 -7 -7 -7 -7 -7 -7 -7 -7 -7 -7 -7 -7 -7 -7 -7 -7 -7 -6 -6 -6 -2 24 112 120 74 58 16 3 -4 -6 -7 -7 -7 -7 -7 -7 -7 -7 -7 -7 -7 -7 -7 -7 -7 -7 -7 -7 -7 -7 -7 -7 -7 -7 -7 -7 -7 -7 -7 -7 -7 -7 -7 -6 3 68 
68 3 -6 -7 -7 -7 -7 -7 -7 -7 -7 -7 -7 -7 -7 -7 -7 -7 -7 -7 -7 -7 -7 -7 -7 -7 -7 -7 -7 -7 -7 -7 -7 -7 -7 -7 -7 -7 -7 -7 -7 -7 -7 -7 -7 -7 -7 -7 -7 -7 -7 -7 -7 -7 -7 -7 -7 -7 -7 -7 -7 -7 -7 -7 -6 5 74 76 13 2 -5 -6 -7 -7 -7 -7 -7 -7 -7 -7 -7 -7 -7 -7 -7 -7 -7 -7 -7 -7 -7 -7 -7 -7 -7 -7 -7 -7 -7 -7 -7 -7 -7 -7 -7 -7 -7 -6 3 68 
68 3 -6 -7 -7 -7 -7 -7 -7 -7 -7 -7 -7 -7 -7 -7 -7 -7 -7 -7 -7 -7 -7 -7 -7 -7 -7 -7 -7 -7 -7 -7 -7 -7 -7 -7 -7 -7 -7 -7 -7 -7 -7 -7 -7 -7 -7 -7 -7 -7 -7 -7 -7 -7 -7 -7 -7 -7 -7 -7 -7 -7 -7 -7 -6 3 68 68 4 -6 -7 -7 -7 -7 -7 -7 -7 -7 -7 -7 -7 -7 -7 -7 -7 -7 -7 -7 -7 -7 -7 -7 -7 -7 -7 -7 -7 -7 -7 -7 -7 -7 -7 -7 -7 -7 -7 -6 3 68 
68 4 -6 -6 -6 -6 -6 -6 -6 -6 -6 -6 -6 -6 -6 -6 -6 -6 -6 -6 -6 -6 -6 -6 -6 -6 -6 -6 -6 -6 -6 -6 -6 -6 -6 -6 -6 -6 -6 -6 -6 -6 -6 -6 -6 -6 -6 -6 -6 -6 -6 -6 -6 -6 -6 -6 -6 -6 -6 -6 -6 -6 -6 -6 -6 4 68 68 4 -6 -6 -6 -6 -6 -6 -6 -6 -6 -6 -6 -6 -6 -6 -6 -6 -6 -6 -6 -6 -6 -6 -6 -6 -6 -6 -6 -6 -6 -6 -6 -6 -6 -6 -6 -6 -6 -6 -6 4 68 
76 13 4 3 3 3 3 3 3 3 3 3 3 3 3 3 3 3 3 3 3 3 3 3 3 3 3 3 3 3 3 3 3 3 3 3 3 3 3 3 3 3 3 3 3 3 3 3 3 3 3 3 3 3 3 3 3 3 3 3 3 3 3 3 4 13 76 76 13 4 3 3 3 3 3 3 3 3 3 3 3 3 3 3 3 3 3 3 3 3 3 3 3 3 3 3 3 3 3 3 3 3 3 3 3 3 3 4 13 76 
123 76 68 68 68 68 68 68 68 68 68 68 68 68 68 68 68 68 68 68 68 68 68 68 68 68 68 68 68 68 68 68 68 71 70 68 68 68 68 68 68 68 68 68 68 68 68 68 68 70 70 68 68 68 68 68 68 68 68 68 68 68 68 68 68 75 120 120 75 68 68 68 68 68 68 68 68 68 68 68 68 68 68 68 68 68 68 68 68 68 68 68 71 70 68 68 68 68 68 68 68 68 68 68 71 70 68 68 76 123 
