P2
110 110
255
145 101 88 85 85 85 85 85 85 85 85 85 85 85 85 85 85 85 85 85 85 85 85 85 85 85 85 85 85 85 87 96 123 154 126 95 87 85 85 85 85 85 85 85 85 85 85 87 99 139 139 99 87 85 85 85 85 85 85 85 85 85 85 85 85 87 90 90 87 85 85 85 85 85 85 85 85 85 85 85 85 85 85 85 85 85 85 85 85 86 92 117 154 127 95 87 85 85 85 85 85 86 92 116 154 127 95 89 101 145 
101 38 20 17 16 16 16 16 16 16 16 16 16 16 16 16 16 16 16 16 16 16 16 16 16 16 16 16 17 18 25 56 117 110 50 23 17 17 16 16 16 16 16 16 16 17 17 20 39 102 101 38 20 17 16 16 16 16 16 16 16 16 16 16 16 16 17 17 16 16 16 16 16 16 16 16 16 16 16 16 16 16 16 16 16 16 16 17 17 20 38 96 117 53 24 17 17 16 16 16 17 19 34 89 119 54 24 21 38 101 
88 20 0 -2 -2 -2 -2 -2 -2 -2 -2 -2 -2 -2 -2 -2 -2 -2 -2 -2 -2 -2 -2 -2 -2 -2 -2 -2 -2 1 21 80 110 48 9 0 -2 -2 -2 -2 -2 -2 -2 -2 -2 -2 -2 1 25 97 89 20 0 -2 -2 -2 -2 -2 -2 -2 -2 -2 -2 -2 -2 -2 -2 -2 -2 -2 -2 -2 -2 -2 -2 -2 -2 -2 -2 -2 -2 -2 -2 -2 -2 -2 -2 -2 -1 5 40 109 79 19 0 -2 -2 -2 -2 -2 -2 0 19 86 93 24 1 1 20 88 
85 17 -2 -5 -5 -5 -5 -5 -5 -5 -5 -5 -5 -5 -5 -5 -5 -5 -5 -5 -5 -5 -5 -5 -5 -5 -5 -5 -3 7 47 109 78 18 -1 -5 -5 -5 -5 -5 -5 -5 -5 -5 -5 -5 -4 3 40 124 90 17 -2 -5 -5 -5 -5 -5 -5 -5 -5 -5 -5 -5 -5 -5 -5 -5 -5 -5 -5 -5 -5 -5 -5 -5 -5 -5 -5 -5 -5 -5 -5 -5 -5 -5 -5 -5 -3 12 71 109 39 3 -4 -5 -5 -5 -5 -5 -5 -1 21 91 83 16 -2 -2 17 85 
85 16 -2 -5 -6 -6 -6 -6 -6 -6 -6 -6 -6 -6 -6 -6 -6 -6 -6 -6 -6 -6 -6 -6 -6 -6 -6 -4 2 34 100 100 34 2 -4 -6 -6 -6 -6 -6 -6 -6 -6 -6 -6 -5 -2 16 81 155 92 17 -2 -5 -6 -6 -6 -6 -6 -6 -6 -6 -6 -6 -6 -6 -6 -6 -6 -6 -6 -6 -6 -6 -6 -6 -6 -6 -6 -6 -6 -6 -6 -6 -6 -6 -6 -5 -1 20 89 89 20 -1 -5 -6 -6 -6 -6 -6 -5 2 38 108 70 11 -3 -2 17 85 
85 16 -2 -5 -6 -6 -6 -6 -6 -6 -6 -6 -6 -6 -6 -6 -6 -6 -6 -6 -6 -6 -6 -6 -6 -6 -5 -1 17 78 108 47 7 -3 -5 -6 -6 -6 -6 -6 -6 -6 -6 -6 -6 -4 2 38 115 145 90 17 -2 -5 -6 -6 -6 -6 -6 -6 -6 -6 -6 -6 -6 -6 -6 -6 -6 -6 -6 -6 -6 -6 -6 -6 -6 -6 -6 -6 -6 -6 -6 -6 -6 -6 -6 -4 3 39 108 71 12 -3 -5 -6 -6 -6 -6 -5 -3 11 70 108 38 2 -4 -2 16 85 
85 16 -2 -5 -6 -6 -6 -6 -6 -6 -6 -6 -6 -6 -6 -6 -6 -6 -6 -6 -6 -6 -6 -6 -6 -5 -3 7 47 108 78 17 -1 -5 -6 -6 -6 -6 -6 -6 -6 -6 -6 -6 -5 -2 16 78 122 120 88 17 -2 -5 -6 -6 -6 -6 -6 -6 -6 -6 -6 -6 -6 -6 -6 -6 -6 -6 -6 -6 -6 -6 -6 -6 -6 -6 -6 -6 -6 -6 -6 -6 -6 -6 -5 -2 16 78 107 37 2 -5 -6 -6 -6 -6 -6 -5 -2 16 83 91 21 -1 -5 -2 16 85 
85 16 -2 -5 -6 -6 -6 -6 -6 -6 -6 -6 -6 -6 -6 -6 -6 -6 -6 -6 -6 -6 -6 -6 -6 -4 2 34 100 100 34 2 -4 -6 -6 -6 -6 -6 -6 -6 -6 -6 -6 -6 -4 3 38 108 96 101 93 21 -1 -5 -6 -6 -6 -6 -6 -6 -6 -6 -6 -6 -6 -6 -6 -6 -6 -6 -6 -6 -6 -6 -6 -6 -6 -6 -6 -6 -6 -6 -6 -6 -6 -6 -5 2 37 107 78 16 -2 -5 -6 -6 -6 -6 -6 -5 -1 21 91 83 16 -2 -5 -2 16 85 
85 16 -2 -5 -6 -6 -6 -6 -6 -6 -6 -6 -6 -6 -6 -6 -6 -6 -6 -6 -6 -6 -6 -6 -5 -1 17 78 108 47 7 -3 -5 -6 -6 -6 -6 -6 -6 -6 -6 -6 -6 -5 -1 18 78 109 55 78 109 38 2 -5 -6 -6 -6 -6 -6 -6 -6 -6 -6 -6 -6 -6 -6 -6 -6 -6 -6 -6 -6 -6 -6 -6 -6 -6 -6 -6 -6 -6 -6 -6 -6 -5 -3 12 71 108 39 3 -4 -6 -6 -6 -6 -6 -6 -5 2 38 108 70 11 -3 -5 -2 16 85 
85 16 -2 -5 -6 -6 -6 -6 -6 -6 -6 -6 -6 -6 -6 -6 -6 -6 -6 -6 -6 -6 -6 -5 -3 7 47 108 78 17 -1 -5 -6 -6 -6 -6 -6 -6 -6 -6 -6 -6 -5 -3 7 47 108 78 24 41 109 70 11 -3 -5 -6 -6 -6 -6 -6 -6 -6 -6 -6 -6 -6 -6 -6 -6 -6 -6 -6 -6 -6 -6 -6 -6 -6 -6 -6 -6 -6 -6 -6 -6 -5 -1 20 89 89 20 -1 -5 -6 -6 -6 -6 -6 -5 -3 11 70 108 38 2 -5 -5 -2 16 85 
85 16 -2 -5 -6 -6 -6 -6 -6 -6 -6 -6 -6 -6 -6 -6 -6 -6 -6 -6 -6 -6 -6 -4 2 34 100 100 34 2 -4 -6 -6 -6 -6 -6 -6 -6 -6 -6 -6 -6 -5 2 34 100 100 35 6 22 92 82 15 -2 -5 -6 -6 -6 -6 -6 -6 -6 -6 -6 -6 -6 -6 -6 -6 -6 -6 -6 -6 -6 -6 -6 -6 -6 -6 -6 -6 -6 -6 -6 -6 -4 3 39 108 71 12 -3 -5 -6 -6 -6 -6 -6 -5 -2 16 83 91 21 -1 -5 -5 -2 16 85 
85 17 -2 -5 -6 -6 -6 -6 -6 -6 -6 -6 -6 -6 -6 -6 -6 -6 -6 -6 -6 -6 -5 -1 17 78 108 47 7 -3 -5 -6 -6 -6 -6 -6 -6 -6 -6 -6 -6 -5 -2 16 77 108 47 7 0 17 86 85 16 -2 -5 -6 -6 -6 -6 -6 -6 -6 -6 -6 -6 -6 -6 -6 -6 -6 -6 -6 -6 -6 -6 -6 -6 -6 -6 -6 -6 -6 -6 -6 -5 -2 16 78 107 37 2 -5 -6 -6 -6 -6 -6 -6 -5 -1 21 91 83 16 -2 -5 -5 -2 16 85 
87 17 -2 -5 -6 -6 -6 -6 -6 -6 -6 -6 -6 -6 -6 -6 -6 -6 -6 -6 -6 -5 -3 7 47 108 78 17 -1 -5 -6 -6 -6 -6 -6 -6 -6 -6 -6 -6 -6 -4 2 38 107 78 18 -1 -2 17 85 85 17 -2 -5 -6 -6 -6 -6 -6 -6 -6 -6 -6 -6 -6 -6 -6 -6 -6 -6 -6 -6 -6 -6 -6 -6 -6 -6 -6 -6 -6 -6 -6 -5 2 37 107 78 16 -2 -5 -6 -6 -6 -6 -6 -6 -5 2 38 108 70 11 -3 -5 -5 -2 16 85 
95 23 0 -5 -6 -6 -6 -6 -6 -6 -6 -6 -6 -6 -6 -6 -6 -6 -6 -6 -6 -4 2 34 100 100 34 2 -4 -6 -6 -6 -6 -6 -6 -6 -6 -6 -6 -6 -5 -2 16 78 107 38 3 -4 -2 16 85 86 17 -2 -5 -6 -6 -6 -6 -6 -6 -6 -6 -6 -6 -6 -6 -6 -6 -6 -6 -6 -6 -6 -6 -6 -6 -6 -6 -6 -6 -6 -6 -5 -3 12 71 108 39 3 -4 -6 -6 -6 -6 -6 -6 -5 -3 11 70 108 38 2 -5 -6 -5 -2 16 86 
126 50 8 -3 -5 -6 -6 -6 -6 -6 -6 -6 -6 -6 -6 -6 -6 -6 -6 -6 -5 -1 17 78 108 47 7 -3 -5 -6 -6 -6 -6 -6 -6 -6 -6 -6 -6 -6 -4 3 38 107 78 16 -2 -5 -2 15 82 92 21 -1 -5 -6 -6 -6 -6 -6 -6 -6 -6 -6 -6 -6 -6 -6 -6 -6 -6 -6 -6 -6 -6 -6 -6 -6 -6 -6 -6 -6 -6 -5 -1 20 89 89 20 -1 -5 -6 -6 -6 -6 -6 -6 -5 -2 16 83 91 21 -1 -5 -6 -5 -2 17 90 
154 109 44 8 -3 -5 -6 -6 -6 -6 -6 -6 -6 -6 -6 -6 -6 -6 -6 -5 -3 7 47 108 78 17 -1 -5 -6 -6 -6 -6 -6 -6 -6 -6 -6 -6 -6 -5 -1 18 78 107 38 2 -4 -5 -3 11 70 108 38 2 -5 -6 -6 -6 -6 -6 -6 -6 -6 -6 -6 -6 -6 -6 -6 -6 -6 -6 -6 -6 -6 -6 -6 -6 -6 -6 -6 -6 -6 -4 3 39 108 71 12 -3 -5 -6 -6 -6 -6 -6 -6 -5 -1 21 91 83 16 -2 -5 -6 -5 -2 16 91 
124 118 103 43 6 -4 -5 -6 -6 -6 -6 -6 -6 -6 -6 -6 -6 -6 -6 -4 2 34 100 100 34 2 -4 -6 -6 -6 -6 -6 -6 -6 -6 -6 -6 -6 -5 -3 7 47 108 77 16 -2 -5 -6 -5 2 38 108 70 11 -3 -5 -6 -6 -6 -6 -6 -6 -6 -6 -6 -6 -6 -6 -6 -6 -6 -6 -6 -6 -6 -6 -6 -6 -6 -6 -6 -6 -5 -2 16 78 107 37 2 -5 -6 -6 -6 -6 -6 -6 -6 -5 2 38 108 70 11 -3 -5 -6 -5 -2 16 88 
97 65 105 100 34 2 -4 -6 -6 -6 -6 -6 -6 -6 -6 -6 -6 -6 -5 -1 17 78 108 47 7 -3 -5 -6 -6 -6 -6 -6 -6 -6 -6 -6 -6 -6 -5 2 34 100 100 34 2 -5 -6 -6 -5 -1 21 92 82 15 -2 -5 -6 -6 -6 -6 -6 -6 -6 -6 -6 -6 -6 -6 -6 -6 -6 -6 -6 -6 -6 -6 -6 -6 -6 -6 -6 -6 -5 2 37 107 78 16 -2 -5 -6 -6 -6 -6 -6 -6 -5 -3 11 70 108 38 2 -5 -6 -6 -5 -2 16 86 
88 31 50 109 78 18 -1 -5 -6 -6 -6 -6 -6 -6 -6 -6 -6 -5 -3 7 47 108 78 17 -1 -5 -6 -6 -6 -6 -6 -6 -6 -6 -6 -6 -6 -5 -2 16 77 108 47 7 -3 -5 -6 -6 -5 -2 17 86 85 16 -2 -5 -6 -6 -6 -6 -6 -6 -6 -6 -6 -6 -6 -6 -6 -6 -6 -6 -6 -6 -6 -6 -6 -6 -6 -6 -6 -5 -3 12 71 108 39 3 -4 -6 -6 -6 -6 -6 -6 -6 -5 -2 16 83 91 21 -1 -5 -6 -6 -5 -2 16 85 
86 21 21 78 108 47 8 -3 -5 -6 -6 -6 -6 -6 -6 -6 -6 -4 2 34 100 100 34 2 -4 -6 -6 -6 -6 -6 -6 -6 -6 -6 -6 -6 -6 -4 2 38 107 78 18 -1 -5 -6 -6 -6 -5 -2 17 85 85 17 -2 -5 -6 -6 -6 -6 -6 -6 -6 -6 -6 -6 -6 -6 -6 -6 -6 -6 -6 -6 -6 -6 -6 -6 -6 -6 -6 -5 -1 20 89 89 20 -1 -5 -6 -6 -6 -6 -6 -6 -6 -5 -1 21 91 83 16 -2 -5 -6 -6 -5 -2 16 85 
85 18 5 35 100 102 44 8 -3 -5 -6 -6 -6 -6 -6 -6 -5 -1 17 78 108 47 7 -3 -5 -6 -6 -6 -6 -6 -6 -6 -6 -6 -6 -6 -5 -2 16 78 107 38 3 -4 -6 -6 -6 -6 -5 -2 16 85 86 17 -2 -5 -6 -6 -6 -6 -6 -6 -6 -6 -6 -6 -6 -6 -6 -6 -6 -6 -6 -6 -6 -6 -6 -6 -6 -6 -6 -4 3 39 108 71 12 -3 -5 -6 -6 -6 -6 -6 -6 -6 -5 2 38 108 70 11 -3 -5 -6 -6 -5 -2 16 85 
85 17 0 6 43 102 102 44 8 -3 -5 -6 -6 -6 -6 -5 -3 7 47 108 78 17 -1 -5 -6 -6 -6 -6 -6 -6 -6 -6 -6 -6 -6 -6 -4 3 38 107 78 16 -2 -5 -6 -6 -6 -6 -5 -2 15 82 92 21 -1 -5 -6 -6 -6 -6 -6 -6 -6 -6 -6 -6 -6 -6 -6 -6 -6 -6 -6 -6 -6 -6 -6 -6 -6 -6 -5 -2 16 78 107 37 2 -5 -6 -6 -6 -6 -6 -6 -6 -5 -3 11 70 108 38 2 -5 -6 -6 -6 -5 -2 16 85 
85 17 -2 -3 8 44 102 102 44 8 -3 -5 -6 -6 -6 -4 2 34 100 100 34 2 -4 -6 -6 -6 -6 -6 -6 -6 -6 -6 -6 -6 -6 -5 -1 18 78 107 38 2 -4 -6 -6 -6 -6 -6 -5 -3 11 70 108 38 2 -5 -6 -6 -6 -6 -6 -6 -6 -6 -6 -6 -6 -6 -6 -6 -6 -6 -6 -6 -6 -6 -6 -6 -6 -6 -5 2 37 107 78 16 -2 -5 -6 -6 -6 -6 -6 -6 -6 -5 -2 16 83 91 21 -1 -5 -6 -6 -6 -5 -2 16 85 
85 16 -2 -5 -3 8 44 102 102 44 8 -3 -5 -6 -5 -1 17 78 108 47 7 -3 -5 -6 -6 -6 -6 -6 -6 -6 -6 -6 -6 -6 -5 -3 7 47 108 77 16 -2 -5 -6 -6 -6 -6 -6 -6 -5 2 38 108 70 11 -3 -5 -6 -6 -6 -6 -6 -6 -6 -6 -6 -6 -6 -6 -6 -6 -6 -6 -6 -6 -6 -6 -6 -6 -5 -3 12 71 108 39 3 -4 -6 -6 -6 -6 -6 -6 -6 -6 -5 -1 21 91 83 16 -2 -5 -6 -6 -6 -5 -2 16 85 
85 16 -2 -5 -5 -3 8 44 102 102 44 8 -3 -5 -3 7 47 108 78 17 -1 -5 -6 -6 -6 -6 -6 -6 -6 -6 -6 -6 -6 -6 -5 2 34 100 100 34 2 -5 -6 -6 -6 -6 -6 -6 -6 -5 -1 21 92 82 15 -2 -5 -6 -6 -6 -6 -6 -6 -6 -6 -6 -6 -6 -6 -6 -6 -6 -6 -6 -6 -6 -6 -6 -6 -5 -1 20 89 89 20 -1 -5 -6 -6 -6 -6 -6 -6 -6 -6 -5 2 38 108 70 11 -3 -5 -6 -6 -6 -5 -2 16 85 
85 16 -2 -5 -6 -5 -3 8 44 102 102 44 8 -1 2 34 100 100 34 2 -4 -6 -6 -6 -6 -6 -6 -6 -6 -6 -6 -6 -6 -5 -2 16 77 108 47 7 -3 -5 -6 -6 -6 -6 -6 -6 -6 -5 -2 17 86 85 16 -2 -5 -6 -6 -6 -6 -6 -6 -6 -6 -6 -6 -6 -6 -6 -6 -6 -6 -6 -6 -6 -6 -6 -6 -4 3 39 108 71 12 -3 -5 -6 -6 -6 -6 -6 -6 -6 -5 -3 11 70 108 38 2 -5 -6 -6 -6 -6 -5 -2 16 85 
85 16 -2 -5 -6 -6 -5 -3 8 44 102 102 44 12 20 78 108 47 7 -3 -5 -6 -6 -6 -6 -6 -6 -6 -6 -6 -6 -6 -6 -4 2 38 107 78 18 -1 -5 -6 -6 -6 -6 -6 -6 -6 -6 -5 -2 16 85 86 17 -2 -5 -6 -6 -6 -6 -6 -6 -6 -6 -6 -6 -6 -6 -6 -6 -6 -6 -6 -6 -6 -6 -6 -5 -2 16 78 107 37 2 -5 -6 -6 -6 -6 -6 -6 -6 -6 -5 -2 16 83 91 21 -1 -5 -6 -6 -6 -6 -5 -2 16 85 
85 16 -2 -5 -6 -6 -6 -5 -3 8 44 102 103 55 59 110 78 17 -1 -5 -6 -6 -6 -6 -6 -6 -6 -6 -6 -6 -6 -6 -5 -2 16 78 107 38 3 -4 -6 -6 -6 -6 -6 -6 -6 -6 -6 -5 -2 15 82 92 21 -1 -5 -6 -6 -6 -6 -6 -6 -6 -6 -6 -6 -6 -6 -6 -6 -6 -6 -6 -6 -6 -6 -6 -5 2 37 107 78 16 -2 -5 -6 -6 -6 -6 -6 -6 -6 -6 -5 -1 21 91 83 16 -2 -5 -6 -6 -6 -6 -5 -2 16 85 
85 16 -2 -5 -6 -6 -6 -6 -5 -3 8 44 105 128 128 103 35 2 -4 -6 -6 -6 -6 -6 -6 -6 -6 -6 -6 -6 -6 -6 -4 3 38 107 78 16 -2 -5 -6 -6 -6 -6 -6 -6 -6 -6 -6 -5 -3 11 70 108 38 2 -5 -6 -6 -6 -6 -6 -6 -6 -6 -6 -6 -6 -6 -6 -6 -6 -6 -6 -6 -6 -6 -5 -3 12 71 108 39 3 -4 -6 -6 -6 -6 -6 -6 -6 -6 -6 -5 2 38 108 70 11 -3 -5 -6 -6 -6 -6 -5 -2 16 85 
85 16 -2 -5 -6 -6 -6 -6 -6 -5 -3 8 49 128 128 49 7 -3 -5 -6 -6 -6 -6 -6 -6 -6 -6 -6 -6 -6 -6 -5 -1 18 78 107 38 2 -4 -6 -6 -6 -6 -6 -6 -6 -6 -6 -6 -6 -5 2 38 108 70 11 -3 -5 -6 -6 -6 -6 -6 -6 -6 -6 -6 -6 -6 -6 -6 -6 -6 -6 -6 -6 -6 -5 -1 20 89 89 20 -1 -5 -6 -6 -6 -6 -6 -6 -6 -6 -5 -3 11 70 108 38 2 -5 -6 -6 -6 -6 -6 -5 -2 16 85 
85 16 -2 -5 -6 -6 -6 -6 -6 -6 -5 0 23 96 97 24 0 -5 -6 -6 -6 -6 -6 -6 -6 -6 -6 -6 -6 -6 -5 -3 7 47 108 77 16 -2 -5 -6 -6 -6 -6 -6 -6 -6 -6 -6 -6 -6 -5 -1 21 92 82 15 -2 -5 -6 -6 -6 -6 -6 -6 -6 -6 -6 -6 -6 -6 -6 -6 -6 -6 -6 -6 -6 -4 3 39 108 71 12 -3 -5 -6 -6 -6 -6 -6 -6 -6 -6 -5 -2 16 83 91 21 -1 -5 -6 -6 -6 -6 -6 -5 -2 16 85 
85 16 -2 -5 -6 -6 -6 -6 -6 -6 -5 -2 16 84 93 22 -1 -5 -6 -6 -6 -6 -6 -6 -6 -6 -6 -6 -6 -6 -5 2 34 100 100 34 2 -5 -6 -6 -6 -6 -6 -6 -6 -6 -6 -6 -6 -6 -5 -2 17 86 85 16 -2 -5 -6 -6 -6 -6 -6 -6 -6 -6 -6 -6 -6 -6 -6 -6 -6 -6 -6 -6 -5 -2 16 78 107 37 2 -5 -6 -6 -6 -6 -6 -6 -6 -6 -6 -5 -1 21 91 83 16 -2 -5 -6 -6 -6 -6 -6 -5 -2 16 85 
85 16 -2 -5 -6 -6 -6 -6 -6 -6 -5 -3 11 70 109 38 2 -5 -6 -6 -6 -6 -6 -6 -6 -6 -6 -6 -6 -5 -2 16 77 108 47 7 -3 -5 -6 -6 -6 -6 -6 -6 -6 -6 -6 -6 -6 -6 -5 -2 17 85 85 17 -2 -5 -6 -6 -6 -6 -6 -6 -6 -6 -6 -6 -6 -6 -6 -6 -6 -6 -6 -6 -5 2 37 107 78 16 -2 -5 -6 -6 -6 -6 -6 -6 -6 -6 -6 -5 2 38 108 70 11 -3 -5 -6 -6 -6 -6 -6 -5 -2 16 85 
85 16 -2 -5 -6 -6 -6 -6 -6 -6 -6 -5 2 38 108 70 11 -3 -5 -6 -6 -6 -6 -6 -6 -6 -6 -6 -6 -4 2 38 107 78 18 -1 -5 -6 -6 -6 -6 -6 -6 -6 -6 -6 -6 -6 -6 -6 -5 -2 16 85 86 17 -2 -5 -6 -6 -6 -6 -6 -6 -6 -6 -6 -6 -6 -6 -6 -6 -6 -6 -6 -5 -3 12 71 108 39 3 -4 -6 -6 -6 -6 -6 -6 -6 -6 -6 -5 -3 11 70 108 38 2 -5 -6 -6 -6 -6 -6 -6 -5 -2 16 85 
85 16 -2 -5 -6 -6 -6 -6 -6 -6 -6 -5 -1 21 92 82 15 -2 -5 -6 -6 -6 -6 -6 -6 -6 -6 -6 -5 -2 16 78 107 38 3 -4 -6 -6 -6 -6 -6 -6 -6 -6 -6 -6 -6 -6 -6 -6 -5 -2 15 82 92 21 -1 -5 -6 -6 -6 -6 -6 -6 -6 -6 -6 -6 -6 -6 -6 -6 -6 -6 -6 -5 -1 20 89 89 20 -1 -5 -6 -6 -6 -6 -6 -6 -6 -6 -6 -5 -2 16 83 91 21 -1 -5 -6 -6 -6 -6 -6 -6 -5 -2 17 85 
85 16 -2 -5 -6 -6 -6 -6 -6 -6 -6 -5 -2 17 86 86 17 -2 -5 -6 -6 -6 -6 -6 -6 -6 -6 -6 -4 3 38 107 78 16 -2 -5 -6 -6 -6 -6 -6 -6 -6 -6 -6 -6 -6 -6 -6 -6 -5 -3 11 70 108 38 2 -5 -6 -6 -6 -6 -6 -6 -6 -6 -6 -6 -6 -6 -6 -6 -6 -6 -6 -4 3 39 108 71 12 -3 -5 -6 -6 -6 -6 -6 -6 -6 -6 -6 -5 -1 21 91 83 16 -2 -5 -6 -6 -6 -6 -6 -6 -5 -2 17 87 
86 16 -2 -5 -6 -6 -6 -6 -6 -6 -6 -5 -2 15 82 92 21 -1 -5 -6 -6 -6 -6 -6 -6 -6 -6 -5 -1 18 78 107 38 2 -4 -6 -6 -6 -6 -6 -6 -6 -6 -6 -6 -6 -6 -6 -6 -6 -6 -5 2 38 108 70 11 -3 -5 -6 -6 -6 -6 -6 -6 -6 -6 -6 -6 -6 -6 -6 -6 -6 -5 -2 16 78 107 37 2 -5 -6 -6 -6 -6 -6 -6 -6 -6 -6 -6 -5 2 38 108 70 11 -3 -5 -6 -6 -6 -6 -6 -6 -5 -1 21 94 
90 16 -2 -5 -6 -6 -6 -6 -6 -6 -6 -5 -3 11 70 108 38 2 -5 -6 -6 -6 -6 -6 -6 -6 -5 -3 7 47 108 77 16 -2 -5 -6 -6 -6 -6 -6 -6 -6 -6 -6 -6 -6 -6 -6 -6 -6 -6 -5 -1 21 92 82 15 -2 -5 -6 -6 -6 -6 -6 -6 -6 -6 -6 -6 -6 -6 -6 -6 -6 -5 2 37 107 78 16 -2 -5 -6 -6 -6 -6 -6 -6 -6 -6 -6 -5 -3 11 70 108 38 2 -5 -6 -6 -6 -6 -6 -6 -6 -4 3 40 123 
92 16 -2 -5 -6 -6 -6 -6 -6 -6 -6 -6 -5 2 38 108 70 11 -3 -5 -6 -6 -6 -6 -6 -6 -5 2 34 100 100 34 2 -5 -6 -6 -6 -6 -6 -6 -6 -6 -6 -6 -6 -6 -6 -6 -6 -6 -6 -5 -2 17 86 85 16 -2 -5 -6 -6 -6 -6 -6 -6 -6 -6 -6 -6 -6 -6 -6 -6 -5 -3 12 71 108 39 3 -4 -6 -6 -6 -6 -6 -6 -6 -6 -6 -6 -5 -2 16 83 91 21 -1 -5 -6 -6 -6 -6 -6 -6 -5 -1 18 82 155 
90 16 -2 -5 -6 -6 -6 -6 -6 -6 -6 -6 -5 -1 21 92 82 15 -2 -5 -6 -6 -6 -6 -6 -5 -2 16 77 108 47 7 -3 -5 -6 -6 -6 -6 -6 -6 -6 -6 -6 -6 -6 -6 -6 -6 -6 -6 -6 -5 -2 17 85 85 17 -2 -5 -6 -6 -6 -6 -6 -6 -6 -6 -6 -6 -6 -6 -6 -6 -5 -1 20 89 89 20 -1 -5 -6 -6 -6 -6 -6 -6 -6 -6 -6 -6 -5 -1 21 91 83 16 -2 -5 -6 -6 -6 -6 -6 -5 -3 7 47 117 145 
87 16 -2 -5 -6 -6 -6 -6 -6 -6 -6 -6 -5 -2 17 86 86 17 -2 -5 -6 -6 -6 -6 -6 -4 2 38 107 78 18 -1 -5 -6 -6 -6 -6 -6 -6 -6 -6 -6 -6 -6 -6 -6 -6 -6 -6 -6 -6 -5 -2 16 85 86 17 -2 -5 -6 -6 -6 -6 -6 -6 -6 -6 -6 -6 -6 -6 -6 -6 -4 3 39 108 71 12 -3 -5 -6 -6 -6 -6 -6 -6 -6 -6 -6 -6 -5 2 38 108 70 11 -3 -5 -6 -6 -6 -6 -6 -4 2 34 101 117 117 
86 16 -2 -5 -6 -6 -6 -6 -6 -6 -6 -6 -5 -2 15 82 92 21 -1 -5 -6 -6 -6 -6 -5 -2 16 78 107 38 3 -4 -6 -6 -6 -6 -6 -6 -6 -6 -6 -6 -6 -6 -6 -6 -6 -6 -6 -6 -6 -5 -2 15 82 92 21 -1 -5 -6 -6 -6 -6 -6 -6 -6 -6 -6 -6 -6 -6 -6 -5 -2 16 78 107 37 2 -5 -6 -6 -6 -6 -6 -6 -6 -6 -6 -6 -5 -3 11 70 108 38 2 -5 -6 -6 -6 -6 -6 -5 -1 17 78 111 68 96 
85 16 -2 -5 -6 -6 -6 -6 -6 -6 -6 -6 -5 -3 11 70 108 38 2 -5 -6 -6 -6 -6 -4 3 38 107 78 16 -2 -5 -6 -6 -6 -6 -6 -6 -6 -6 -6 -6 -6 -6 -6 -6 -6 -6 -6 -6 -6 -5 -3 11 70 108 38 2 -5 -6 -6 -6 -6 -6 -6 -6 -6 -6 -6 -6 -6 -6 -5 2 37 107 78 16 -2 -5 -6 -6 -6 -6 -6 -6 -6 -6 -6 -6 -5 -2 16 83 91 21 -1 -5 -6 -6 -6 -6 -5 -3 7 47 108 80 40 89 
85 16 -2 -5 -6 -6 -6 -6 -6 -6 -6 -6 -6 -5 2 38 108 70 11 -3 -5 -6 -6 -5 -1 18 78 107 38 2 -4 -6 -6 -6 -6 -6 -6 -6 -6 -6 -6 -6 -6 -6 -6 -6 -6 -6 -6 -6 -6 -6 -5 2 38 109 70 12 -3 -5 -5 -5 -6 -6 -6 -6 -6 -6 -6 -6 -6 -5 -3 12 71 108 39 3 -4 -6 -6 -6 -6 -6 -6 -6 -6 -6 -6 -6 -5 -1 21 91 83 16 -2 -5 -6 -6 -6 -6 -4 2 34 100 101 38 25 86 
85 16 -2 -5 -6 -6 -6 -6 -6 -6 -6 -6 -6 -5 -1 21 92 82 15 -2 -5 -6 -5 -3 7 47 108 77 16 -2 -5 -6 -6 -6 -6 -6 -6 -6 -6 -6 -6 -6 -6 -6 -6 -6 -6 -6 -6 -6 -6 -6 -5 -1 22 93 84 19 0 -2 -2 -3 -5 -5 -5 -5 -5 -5 -5 -6 -6 -5 -1 20 89 89 20 -1 -5 -6 -6 -6 -6 -6 -6 -6 -6 -6 -6 -6 -5 2 38 108 70 11 -3 -5 -6 -6 -6 -5 -1 17 78 108 47 10 19 85 
85 16 -2 -5 -6 -6 -6 -6 -6 -6 -6 -6 -6 -5 -2 17 86 86 17 -2 -5 -6 -5 2 34 100 100 34 2 -5 -6 -6 -6 -6 -6 -6 -6 -6 -6 -6 -6 -6 -6 -6 -6 -6 -6 -6 -6 -6 -6 -5 -4 0 24 98 100 38 20 17 15 11 2 -1 -2 -2 -2 -2 -3 -5 -5 -4 3 39 108 71 12 -3 -5 -6 -6 -6 -6 -6 -6 -6 -6 -6 -6 -5 -3 11 70 108 38 2 -5 -6 -6 -6 -5 -3 7 47 108 78 18 1 17 85 
85 16 -2 -5 -6 -6 -6 -6 -6 -6 -6 -6 -6 -5 -2 15 82 92 21 -1 -5 -5 -2 16 77 108 47 7 -3 -5 -6 -6 -6 -6 -6 -6 -6 -6 -6 -6 -6 -6 -6 -6 -6 -6 -6 -6 -6 -6 -5 -3 2 18 53 129 139 99 87 85 82 70 38 21 17 17 16 15 11 2 -1 0 19 79 107 37 2 -5 -6 -6 -6 -6 -6 -6 -6 -6 -6 -6 -6 -5 -2 16 83 91 21 -1 -5 -6 -6 -6 -4 2 34 100 100 34 2 -1 17 85 
85 16 -2 -5 -6 -6 -6 -6 -6 -6 -6 -6 -6 -5 -3 11 70 108 38 2 -4 -4 2 38 107 78 18 -1 -5 -6 -6 -6 -6 -6 -6 -6 -6 -6 -6 -6 -6 -6 -6 -6 -6 -6 -6 -6 -5 -4 -1 7 34 78 111 119 99 88 86 86 92 108 108 92 86 85 85 82 70 38 22 24 53 112 79 16 -2 -5 -6 -6 -6 -6 -6 -6 -6 -6 -6 -6 -6 -5 -1 21 91 83 16 -2 -5 -6 -6 -5 -1 17 78 108 47 7 -3 -2 16 85 
85 16 -2 -5 -6 -6 -6 -6 -6 -6 -6 -6 -6 -6 -5 2 38 108 70 11 -3 -2 16 78 107 38 3 -4 -6 -6 -6 -6 -6 -6 -6 -6 -6 -6 -6 -6 -6 -6 -6 -6 -6 -6 -6 -5 -3 2 17 47 100 108 79 40 22 17 17 17 21 38 70 82 85 85 86 92 108 109 93 97 129 126 44 4 -4 -6 -6 -6 -6 -6 -6 -6 -6 -6 -6 -6 -6 -5 2 38 108 70 11 -3 -5 -6 -5 -3 7 47 108 78 17 -1 -5 -2 16 85 
85 16 -2 -5 -6 -6 -6 -6 -6 -6 -6 -6 -6 -6 -5 -1 21 92 82 16 -1 3 38 107 78 16 -2 -5 -6 -6 -6 -6 -6 -6 -6 -6 -6 -6 -6 -6 -6 -6 -6 -6 -6 -5 -4 -1 7 34 78 108 100 47 18 3 -1 -2 -2 -2 -1 2 11 15 16 17 17 21 38 70 84 96 129 126 44 4 -4 -6 -6 -6 -6 -6 -6 -6 -6 -6 -6 -6 -5 -3 11 70 108 38 2 -5 -6 -6 -4 2 34 100 100 34 2 -4 -5 -2 16 85 
85 16 -2 -5 -6 -6 -6 -6 -6 -6 -6 -6 -6 -6 -5 -2 17 86 86 18 1 18 78 107 38 2 -4 -6 -6 -6 -6 -6 -6 -6 -6 -6 -6 -6 -6 -6 -6 -6 -6 -6 -5 -4 2 17 47 100 108 78 34 7 -1 -4 -5 -5 -5 -5 -5 -5 -3 -2 -2 -2 -2 -1 2 11 16 24 53 112 79 18 -1 -5 -6 -6 -6 -6 -6 -6 -6 -6 -6 -6 -5 -2 16 83 91 21 -1 -5 -6 -5 -1 17 78 108 47 7 -3 -5 -5 -2 16 85 
85 16 -2 -5 -6 -6 -6 -6 -6 -6 -6 -6 -6 -6 -5 -2 15 82 92 23 11 47 108 77 16 -2 -5 -6 -6 -6 -6 -6 -6 -6 -6 -6 -6 -6 -6 -6 -6 -6 -6 -5 -3 6 34 78 108 100 47 17 2 -3 -5 -6 -6 -6 -6 -6 -6 -6 -5 -5 -5 -5 -5 -5 -5 -3 -2 0 18 78 109 47 9 -1 -4 -5 -5 -5 -5 -5 -5 -5 -5 -5 -5 -1 21 91 83 16 -2 -5 -5 -3 7 47 108 78 17 -1 -5 -6 -5 -2 16 85 
85 16 -2 -5 -6 -6 -6 -6 -6 -6 -6 -6 -6 -6 -5 -3 11 70 109 46 43 101 100 34 2 -5 -6 -6 -6 -6 -6 -6 -6 -6 -6 -6 -6 -6 -6 -6 -6 -5 -4 -1 8 43 100 108 78 34 7 -1 -4 -5 -6 -6 -6 -6 -6 -6 -6 -6 -6 -6 -6 -6 -6 -6 -6 -5 -5 -4 2 34 101 105 48 18 3 -1 -2 -2 -2 -2 -2 -2 -2 -2 -1 5 40 110 71 12 -3 -5 -4 2 34 100 100 34 2 -4 -6 -6 -5 -2 16 85 
85 16 -2 -5 -6 -6 -6 -6 -6 -6 -6 -6 -6 -6 -6 -5 2 38 110 89 92 109 47 7 -3 -5 -6 -6 -6 -6 -6 -6 -6 -6 -6 -6 -6 -6 -6 -6 -5 -3 2 18 47 102 102 47 18 2 -3 -5 -6 -6 -6 -6 -6 -6 -6 -6 -6 -6 -6 -6 -6 -6 -6 -6 -6 -6 -6 -5 -3 7 48 120 126 81 39 21 17 17 16 16 16 16 16 17 19 33 86 119 45 5 -3 -5 -1 18 78 108 47 7 -3 -5 -6 -6 -5 -2 16 85 
85 16 -2 -5 -6 -6 -6 -6 -6 -6 -6 -6 -6 -6 -6 -5 -1 21 94 118 122 79 18 -1 -5 -6 -6 -6 -6 -6 -6 -6 -6 -6 -6 -6 -6 -6 -5 -4 -1 7 34 78 108 100 43 8 -1 -4 -5 -6 -6 -6 -6 -6 -6 -6 -6 -6 -6 -6 -6 -6 -6 -6 -6 -6 -6 -6 -6 -6 -5 0 24 101 144 122 110 92 86 85 85 85 85 85 85 85 87 99 137 134 58 20 3 0 8 47 108 78 17 -1 -5 -6 -6 -6 -5 -2 16 85 
85 16 -2 -5 -6 -6 -6 -6 -6 -6 -6 -6 -6 -6 -6 -5 -2 17 91 145 115 38 3 -4 -6 -6 -6 -6 -6 -6 -6 -6 -6 -6 -6 -6 -6 -5 -3 2 17 47 100 108 78 34 6 -3 -5 -6 -6 -6 -6 -6 -6 -6 -6 -6 -6 -6 -6 -6 -6 -6 -6 -6 -6 -6 -6 -6 -6 -6 -5 -1 22 95 100 57 73 82 85 85 85 85 85 85 85 85 86 88 99 119 112 79 39 24 41 102 101 34 2 -4 -6 -6 -6 -6 -5 -2 16 85 
85 16 -2 -5 -6 -6 -6 -6 -6 -6 -6 -6 -6 -6 -6 -5 -2 17 92 155 81 16 -2 -5 -6 -6 -6 -6 -6 -6 -6 -6 -6 -6 -6 -5 -4 -1 7 34 78 108 100 47 18 2 -4 -5 -6 -6 -6 -6 -6 -6 -6 -6 -6 -6 -6 -6 -6 -6 -6 -6 -6 -6 -6 -6 -6 -6 -6 -6 -5 2 38 109 73 20 14 16 16 16 16 16 16 16 16 16 17 17 22 40 78 107 109 92 104 115 49 7 -3 -5 -6 -6 -6 -6 -5 -2 16 85 
85 16 -2 -5 -6 -6 -6 -6 -6 -6 -6 -6 -6 -6 -6 -5 -2 17 90 123 40 3 -4 -6 -6 -6 -6 -6 -6 -6 -6 -6 -6 -5 -5 -3 2 17 47 101 109 78 35 7 -1 -4 -5 -6 -6 -6 -6 -6 -6 -6 -6 -6 -6 -6 -6 -6 -6 -6 -6 -6 -6 -6 -6 -6 -6 -6 -6 -5 -3 11 70 108 38 3 -2 -2 -2 -2 -2 -2 -2 -2 -2 -2 -2 -2 -1 3 16 38 79 116 152 108 29 0 -5 -6 -6 -6 -6 -6 -5 -2 16 85 
85 16 -2 -5 -6 -6 -6 -6 -6 -6 -6 -6 -6 -6 -6 -5 -2 17 86 94 21 -1 -5 -6 -6 -6 -6 -6 -6 -6 -6 -5 -5 -3 -1 7 35 81 115 107 51 21 5 -1 -4 -5 -5 -5 -6 -6 -6 -6 -6 -6 -6 -6 -6 -6 -6 -6 -6 -6 -6 -6 -6 -6 -6 -6 -6 -6 -6 -5 -2 15 82 92 21 -1 -5 -5 -5 -5 -5 -5 -5 -5 -5 -5 -5 -5 -5 -4 -2 3 18 48 115 120 49 7 -3 -5 -6 -6 -6 -6 -5 -2 16 85 
85 16 -2 -5 -6 -6 -6 -6 -6 -6 -6 -6 -6 -6 -6 -5 -2 17 86 86 17 -2 -5 -6 -6 -6 -6 -6 -6 -5 -4 -2 2 12 22 48 111 153 136 76 34 21 17 12 2 -1 -2 -3 -5 -5 -5 -5 -5 -6 -6 -6 -6 -6 -6 -6 -6 -6 -6 -6 -6 -6 -6 -6 -6 -6 -6 -5 -2 16 85 86 17 -2 -5 -6 -6 -6 -6 -6 -6 -6 -6 -6 -6 -6 -6 -6 -5 -4 -1 8 44 104 101 34 2 -4 -6 -6 -6 -6 -5 -2 16 85 
85 16 -2 -5 -6 -6 -6 -6 -6 -6 -6 -6 -6 -6 -6 -5 -1 21 92 82 15 -2 -5 -6 -6 -6 -5 -5 -4 -2 2 16 37 71 89 112 118 108 118 114 93 86 82 70 38 21 16 11 2 -1 -2 -2 -3 -5 -5 -5 -5 -6 -6 -6 -6 -6 -6 -6 -6 -6 -6 -6 -6 -6 -6 -5 -2 17 86 85 16 -2 -5 -6 -6 -6 -6 -6 -6 -6 -6 -6 -6 -6 -6 -6 -6 -6 -5 -3 8 47 108 78 17 -1 -5 -6 -6 -6 -5 -2 16 85 
85 16 -2 -5 -6 -6 -6 -6 -6 -6 -6 -6 -6 -6 -6 -5 2 38 108 70 11 -3 -5 -6 -5 -5 -3 -1 3 16 38 78 107 108 89 71 39 26 38 70 82 86 92 108 108 91 83 70 38 21 17 15 11 2 -1 -2 -3 -5 -5 -5 -5 -5 -6 -6 -6 -6 -6 -6 -6 -6 -6 -5 -1 21 92 82 15 -2 -5 -6 -6 -6 -6 -6 -6 -6 -6 -6 -6 -6 -6 -6 -6 -6 -6 -5 -1 18 78 108 47 7 -3 -5 -6 -6 -5 -2 16 85 
85 16 -2 -5 -6 -6 -6 -6 -6 -6 -6 -6 -6 -6 -5 -3 11 70 108 38 2 -4 -5 -4 -2 2 12 20 39 78 107 107 78 39 20 12 2 0 2 11 15 17 21 38 70 83 91 108 108 92 86 82 70 38 21 16 11 2 -1 -2 -2 -3 -5 -5 -5 -5 -6 -6 -6 -6 -6 -5 2 38 108 70 11 -3 -5 -6 -6 -6 -6 -6 -6 -6 -6 -6 -6 -6 -6 -6 -6 -6 -6 -6 -4 2 34 100 100 34 2 -4 -6 -6 -5 -2 16 85 
85 16 -2 -5 -6 -6 -6 -6 -6 -6 -6 -6 -6 -6 -5 -2 15 82 92 21 -1 -4 -2 2 16 37 71 89 108 107 78 38 16 3 -1 -3 -5 -5 -5 -3 -2 -2 -1 2 11 16 21 38 70 82 86 92 108 108 91 83 70 38 21 17 15 11 2 -1 -2 -3 -5 -5 -5 -5 -5 -3 11 70 108 38 2 -5 -6 -6 -6 -6 -6 -6 -6 -6 -6 -6 -6 -6 -6 -6 -6 -6 -6 -6 -5 -3 7 47 108 78 18 -1 -5 -6 -5 -2 16 85 
85 16 -2 -5 -6 -6 -6 -6 -6 -6 -6 -6 -6 -6 -5 -2 17 86 86 18 1 3 16 38 78 107 108 89 71 37 16 2 -2 -4 -5 -5 -6 -6 -6 -5 -5 -5 -5 -5 -3 -2 -1 2 11 15 17 21 38 70 83 91 108 108 92 86 82 70 38 21 16 11 2 -1 -2 -2 -3 -1 16 82 92 21 -1 -5 -6 -6 -6 -6 -6 -6 -6 -6 -6 -6 -6 -6 -6 -6 -6 -6 -6 -6 -6 -5 -1 17 78 108 47 8 -3 -5 -5 -2 16 85 
85 16 -2 -5 -6 -6 -6 -6 -6 -6 -6 -6 -6 -6 -5 -1 21 92 86 25 19 39 78 107 107 78 39 20 12 2 -2 -4 -5 -6 -6 -6 -6 -6 -6 -6 -6 -6 -6 -6 -5 -5 -5 -5 -3 -2 -2 -1 2 11 16 21 38 70 82 86 92 108 108 91 83 70 38 21 17 15 12 5 21 87 86 17 -2 -5 -6 -6 -6 -6 -6 -6 -6 -6 -6 -6 -6 -6 -6 -6 -6 -6 -6 -6 -6 -6 -4 2 34 100 102 43 6 -3 -5 -2 16 85 
85 16 -2 -5 -6 -6 -6 -6 -6 -6 -6 -6 -6 -6 -4 3 40 115 93 56 80 107 107 78 38 16 3 -1 -3 -5 -5 -6 -6 -6 -6 -6 -6 -6 -6 -6 -6 -6 -6 -6 -6 -6 -6 -6 -5 -5 -5 -5 -5 -3 -2 -1 2 11 15 17 21 38 70 83 91 108 108 92 86 82 70 41 42 100 87 17 -2 -5 -6 -6 -6 -6 -6 -6 -6 -6 -6 -6 -6 -6 -6 -6 -6 -6 -6 -6 -6 -6 -5 -4 6 43 102 100 34 2 -4 -2 16 85 
85 16 -2 -5 -6 -6 -6 -6 -6 -6 -6 -6 -6 -5 -2 16 83 151 122 114 107 78 38 16 2 -2 -4 -5 -5 -6 -6 -6 -6 -6 -6 -6 -6 -6 -6 -6 -6 -6 -6 -6 -6 -6 -6 -6 -6 -6 -6 -6 -6 -5 -5 -5 -5 -3 -2 -2 -1 2 11 16 21 38 70 82 86 92 109 110 107 140 91 17 -2 -5 -6 -6 -6 -6 -6 -6 -6 -6 -6 -6 -6 -6 -6 -6 -6 -6 -6 -6 -6 -6 -6 -5 -3 8 47 108 78 18 -1 -2 17 85 
85 16 -2 -5 -6 -6 -6 -6 -6 -6 -6 -6 -6 -4 3 39 115 128 94 72 37 16 2 -2 -4 -5 -6 -6 -6 -6 -6 -6 -6 -6 -6 -6 -6 -6 -6 -6 -6 -6 -6 -6 -6 -6 -6 -6 -6 -6 -6 -6 -6 -6 -6 -6 -6 -5 -5 -5 -5 -5 -3 -2 -1 2 11 15 17 21 38 72 98 139 90 17 -2 -5 -6 -6 -6 -6 -6 -6 -6 -6 -6 -6 -6 -6 -6 -6 -6 -6 -6 -6 -6 -6 -6 -6 -5 -1 18 78 108 47 9 0 17 85 
85 16 -2 -5 -6 -6 -6 -6 -6 -6 -6 -6 -5 -1 18 78 111 53 23 12 2 -2 -4 -5 -6 -6 -6 -6 -6 -6 -6 -6 -6 -6 -6 -6 -6 -6 -6 -6 -6 -6 -6 -6 -6 -6 -6 -6 -6 -6 -6 -6 -6 -6 -6 -6 -6 -6 -6 -6 -6 -6 -5 -5 -5 -5 -3 -2 -2 -1 2 14 37 99 87 16 -2 -5 -6 -6 -6 -6 -6 -6 -6 -6 -6 -6 -6 -6 -6 -6 -6 -6 -6 -6 -6 -6 -6 -6 -6 -4 2 34 100 102 43 9 19 85 
85 16 -2 -5 -6 -6 -6 -6 -6 -6 -6 -5 -3 7 47 108 78 18 0 -3 -5 -5 -6 -6 -6 -6 -6 -6 -6 -6 -6 -6 -6 -6 -6 -6 -6 -6 -6 -6 -6 -6 -6 -6 -6 -6 -6 -6 -6 -6 -6 -6 -6 -6 -6 -6 -6 -6 -6 -6 -6 -6 -6 -6 -6 -6 -5 -5 -5 -5 -4 0 19 87 85 16 -2 -5 -6 -6 -6 -6 -6 -6 -6 -6 -6 -6 -6 -6 -6 -6 -6 -6 -6 -6 -6 -6 -6 -6 -6 -5 -4 6 43 102 100 38 25 86 
85 16 -2 -5 -6 -6 -6 -6 -6 -6 -6 -4 2 34 100 100 34 2 -4 -5 -6 -6 -6 -6 -6 -6 -6 -6 -6 -6 -6 -6 -6 -6 -6 -6 -6 -6 -6 -6 -6 -6 -6 -6 -6 -6 -6 -6 -6 -6 -6 -6 -6 -6 -6 -6 -6 -6 -6 -6 -6 -6 -6 -6 -6 -6 -6 -6 -6 -6 -5 -2 17 85 85 17 -2 -5 -6 -6 -6 -6 -6 -6 -6 -6 -6 -6 -6 -6 -6 -6 -6 -6 -6 -6 -6 -6 -6 -6 -6 -6 -5 -3 8 47 109 80 40 89 
86 16 -2 -5 -6 -6 -6 -6 -6 -6 -5 -1 18 78 108 47 7 -3 -5 -6 -6 -6 -6 -6 -6 -6 -6 -6 -6 -6 -6 -6 -6 -6 -6 -6 -6 -6 -6 -6 -6 -6 -6 -6 -6 -6 -6 -6 -6 -6 -6 -6 -6 -6 -6 -6 -6 -6 -6 -6 -6 -6 -6 -6 -6 -6 -6 -6 -6 -6 -5 -2 16 85 86 17 -2 -5 -6 -6 -6 -6 -6 -6 -6 -6 -6 -6 -6 -6 -6 -6 -6 -6 -6 -6 -6 -6 -6 -6 -6 -6 -6 -5 -1 18 78 111 68 96 
87 16 -2 -5 -6 -6 -6 -6 -6 -5 -3 8 47 109 78 18 -1 -5 -6 -6 -6 -6 -6 -6 -6 -6 -6 -6 -6 -6 -6 -6 -6 -6 -6 -6 -6 -6 -6 -6 -6 -6 -6 -6 -6 -6 -6 -6 -6 -6 -6 -6 -6 -6 -6 -6 -6 -6 -6 -6 -6 -6 -6 -6 -6 -6 -6 -6 -6 -6 -5 -2 16 84 93 23 0 -5 -6 -6 -6 -6 -6 -6 -6 -6 -6 -6 -6 -6 -6 -6 -6 -6 -6 -6 -6 -6 -6 -6 -6 -6 -6 -6 -4 2 34 101 117 117 
90 16 -2 -5 -6 -6 -6 -6 -5 -3 8 44 103 102 37 5 -2 -4 -5 -5 -5 -5 -5 -5 -5 -5 -5 -5 -5 -6 -6 -6 -6 -6 -6 -6 -6 -6 -6 -6 -6 -6 -6 -6 -6 -6 -6 -6 -6 -6 -6 -6 -6 -6 -6 -6 -6 -6 -6 -6 -6 -6 -6 -6 -6 -6 -6 -6 -6 -5 -4 0 19 85 118 49 9 -1 -4 -5 -6 -6 -6 -6 -6 -6 -6 -6 -6 -6 -6 -6 -6 -6 -6 -6 -6 -6 -6 -6 -6 -6 -6 -6 -5 -3 7 47 117 145 
92 16 -2 -5 -6 -6 -6 -5 -3 8 44 108 118 64 29 18 12 2 -1 -2 -2 -2 -2 -2 -2 -2 -2 -2 -3 -5 -5 -5 -5 -5 -5 -5 -5 -5 -5 -5 -6 -6 -6 -6 -6 -6 -6 -6 -6 -6 -6 -6 -6 -6 -6 -6 -6 -6 -6 -6 -6 -6 -6 -6 -6 -6 -6 -6 -5 -3 2 17 44 103 152 115 48 18 3 -2 -5 -5 -6 -6 -6 -6 -6 -6 -6 -6 -6 -6 -6 -6 -6 -6 -6 -6 -6 -6 -6 -6 -6 -6 -6 -5 -1 18 82 155 
90 16 -2 -5 -6 -6 -5 -3 8 44 114 154 124 97 87 82 70 38 21 17 17 16 16 16 16 16 16 15 11 2 -1 -2 -2 -2 -2 -2 -2 -2 -2 -3 -5 -5 -5 -5 -5 -5 -5 -5 -5 -5 -5 -5 -6 -6 -6 -6 -6 -6 -6 -6 -6 -6 -6 -6 -6 -6 -5 -4 -1 7 34 77 108 114 108 118 110 78 38 16 2 -3 -5 -6 -6 -6 -6 -6 -6 -6 -6 -6 -6 -6 -6 -6 -6 -6 -6 -6 -6 -6 -6 -6 -6 -6 -4 3 40 123 
86 16 -2 -5 -6 -5 -3 8 44 103 119 101 89 86 86 92 108 108 92 86 85 85 85 85 85 85 85 82 70 38 21 17 17 16 16 16 16 16 15 11 2 -1 -2 -2 -2 -2 -2 -2 -2 -2 -2 -3 -5 -5 -5 -5 -5 -5 -5 -5 -5 -5 -5 -6 -5 -5 -2 3 18 47 100 108 78 40 26 40 78 107 107 77 34 7 -1 -4 -5 -6 -6 -6 -6 -6 -6 -6 -6 -6 -6 -6 -6 -6 -6 -6 -6 -6 -6 -6 -6 -6 -5 -1 21 94 
85 16 -2 -5 -5 -3 8 44 102 103 49 23 17 17 17 21 38 70 82 85 85 85 85 85 85 85 86 92 108 108 92 86 85 85 85 85 85 85 82 70 38 21 17 17 16 16 16 16 16 16 15 11 2 -1 -2 -2 -2 -2 -2 -2 -2 -2 -3 -4 -3 2 16 38 78 108 100 47 18 3 0 3 16 38 78 108 100 47 18 3 -2 -5 -5 -6 -6 -6 -6 -6 -6 -6 -6 -6 -6 -6 -6 -6 -6 -6 -6 -6 -6 -6 -5 -2 17 87 
85 17 -2 -4 -1 8 44 102 102 44 8 0 -2 -2 -2 -1 2 11 15 16 16 16 16 16 16 17 17 21 38 70 82 85 85 85 85 85 85 86 92 108 108 92 86 85 85 85 85 85 85 85 82 70 38 21 17 17 16 16 16 16 16 15 11 4 8 35 77 107 107 77 34 7 -1 -4 -5 -4 -2 3 18 47 100 108 78 38 16 2 -3 -5 -6 -6 -6 -6 -6 -6 -6 -6 -6 -6 -6 -6 -6 -6 -6 -6 -6 -6 -5 -2 17 85 
85 17 0 2 18 47 102 102 44 8 -3 -5 -5 -5 -5 -5 -5 -3 -2 -2 -2 -2 -2 -2 -2 -2 -2 -1 2 11 15 16 16 16 16 16 17 17 21 38 70 82 85 85 85 85 85 85 85 86 92 108 108 92 86 85 85 85 85 85 85 82 71 44 53 101 109 78 38 16 2 -3 -5 -6 -6 -6 -5 -4 -1 7 34 77 107 107 77 34 7 -1 -4 -5 -6 -6 -6 -6 -6 -6 -6 -6 -6 -6 -6 -6 -6 -6 -6 -6 -5 -2 16 85 
86 19 9 35 78 108 100 43 8 -3 -5 -6 -6 -6 -6 -6 -6 -5 -5 -5 -5 -5 -5 -5 -5 -5 -5 -5 -5 -3 -2 -2 -2 -2 -2 -2 -2 -2 -1 2 11 15 16 16 16 16 16 16 17 17 21 38 70 82 85 85 85 85 85 85 86 92 113 126 127 105 47 18 3 -2 -5 -5 -6 -6 -6 -6 -6 -6 -5 -3 2 16 38 78 108 100 47 18 3 -2 -5 -5 -6 -6 -6 -6 -6 -6 -6 -6 -6 -6 -6 -6 -6 -6 -5 -2 16 85 
88 30 46 100 108 78 34 6 -3 -5 -6 -6 -6 -6 -6 -6 -6 -6 -6 -6 -6 -6 -6 -6 -6 -6 -6 -6 -6 -5 -5 -5 -5 -5 -5 -5 -5 -5 -5 -5 -3 -2 -2 -2 -2 -2 -2 -2 -2 -2 -1 2 11 15 16 16 16 16 16 17 17 24 54 129 128 50 9 -1 -4 -5 -6 -6 -6 -6 -6 -6 -6 -6 -6 -5 -5 -2 3 18 47 100 108 78 38 16 2 -3 -5 -6 -6 -6 -6 -6 -6 -6 -6 -6 -6 -6 -6 -6 -5 -2 16 85 
97 65 104 102 47 18 2 -4 -5 -6 -6 -6 -6 -6 -6 -6 -6 -6 -6 -6 -6 -6 -6 -6 -6 -6 -6 -6 -6 -6 -6 -6 -6 -6 -6 -6 -6 -6 -6 -6 -5 -5 -5 -5 -5 -5 -5 -5 -5 -5 -5 -5 -3 -2 -2 -2 -2 -2 -2 -2 -2 1 24 96 96 23 0 -5 -6 -6 -6 -6 -6 -6 -6 -6 -6 -6 -6 -6 -6 -5 -4 -1 7 34 77 107 107 77 34 7 -1 -4 -5 -6 -6 -6 -6 -6 -6 -6 -6 -6 -6 -6 -5 -2 16 86 
124 118 103 44 8 -1 -4 -5 -6 -6 -6 -6 -6 -6 -6 -6 -6 -6 -6 -6 -6 -6 -6 -6 -6 -6 -6 -6 -6 -6 -6 -6 -6 -6 -6 -6 -6 -6 -6 -6 -6 -6 -6 -6 -6 -6 -6 -6 -6 -6 -6 -6 -5 -5 -5 -5 -5 -5 -5 -5 -5 -2 17 87 87 17 -2 -5 -6 -6 -6 -6 -6 -6 -6 -6 -6 -6 -6 -6 -6 -6 -6 -5 -3 2 16 38 78 108 100 47 18 3 -2 -4 -5 -6 -6 -6 -6 -6 -6 -6 -6 -6 -5 -2 16 88 
154 109 44 8 -3 -5 -6 -6 -6 -6 -6 -6 -6 -6 -6 -6 -6 -6 -6 -6 -6 -6 -6 -6 -6 -6 -6 -6 -6 -6 -6 -6 -6 -6 -6 -6 -6 -6 -6 -6 -6 -6 -6 -6 -6 -6 -6 -6 -6 -6 -6 -6 -6 -6 -6 -6 -6 -6 -6 -6 -5 -2 17 85 85 17 -2 -5 -6 -6 -6 -6 -6 -6 -6 -6 -6 -6 -6 -6 -6 -6 -6 -6 -5 -5 -2 3 18 47 100 108 78 38 16 2 -2 -5 -5 -6 -6 -6 -6 -6 -6 -6 -5 -2 16 91 
126 50 8 -3 -5 -6 -6 -6 -6 -6 -6 -6 -6 -6 -6 -6 -6 -6 -6 -6 -6 -6 -6 -6 -6 -6 -6 -6 -6 -6 -6 -6 -6 -6 -6 -6 -6 -6 -6 -6 -6 -6 -6 -6 -6 -6 -6 -6 -6 -6 -6 -6 -6 -6 -6 -6 -6 -6 -6 -6 -5 -2 16 85 85 16 -2 -5 -6 -6 -6 -6 -6 -6 -6 -6 -6 -6 -6 -6 -6 -6 -6 -6 -6 -6 -5 -4 -1 7 34 77 107 107 78 38 16 2 -3 -5 -6 -6 -6 -6 -6 -6 -5 -2 17 90 
95 23 0 -5 -6 -6 -6 -6 -6 -6 -6 -6 -6 -6 -6 -6 -6 -6 -6 -6 -6 -6 -6 -6 -6 -6 -6 -6 -6 -6 -6 -6 -6 -6 -6 -6 -6 -6 -6 -6 -6 -6 -6 -6 -6 -6 -6 -6 -6 -6 -6 -6 -6 -6 -6 -6 -6 -6 -6 -6 -5 -2 16 85 85 16 -2 -5 -6 -6 -6 -6 -6 -6 -6 -6 -6 -6 -6 -6 -6 -6 -6 -6 -6 -6 -6 -6 -5 -3 2 16 38 78 107 107 77 34 7 -1 -4 -5 -5 -5 -6 -6 -5 -2 16 86 
87 17 -2 -5 -6 -6 -6 -6 -6 -6 -6 -6 -6 -6 -6 -6 -6 -6 -6 -6 -6 -6 -6 -6 -6 -6 -6 -6 -6 -6 -6 -6 -6 -6 -6 -6 -6 -6 -6 -6 -6 -6 -6 -6 -6 -6 -6 -6 -6 -6 -6 -6 -6 -6 -6 -6 -6 -6 -6 -6 -5 -2 16 85 85 16 -2 -5 -6 -6 -6 -6 -6 -6 -6 -6 -6 -6 -6 -6 -6 -6 -6 -6 -6 -6 -6 -6 -6 -5 -5 -2 2 16 38 78 108 100 47 18 3 -1 -2 -3 -5 -5 -5 -2 17 85 
85 17 -2 -5 -6 -6 -6 -6 -6 -6 -6 -6 -6 -6 -6 -6 -6 -6 -6 -6 -6 -6 -6 -6 -6 -6 -6 -6 -6 -6 -6 -6 -6 -6 -6 -6 -6 -6 -6 -6 -6 -6 -6 -6 -6 -6 -6 -6 -6 -6 -6 -6 -6 -6 -6 -6 -6 -6 -6 -6 -5 -2 16 85 85 16 -2 -5 -6 -6 -6 -6 -6 -6 -6 -6 -6 -6 -6 -6 -6 -6 -6 -6 -6 -6 -6 -6 -6 -6 -6 -5 -4 -2 3 18 48 103 112 81 40 21 16 11 2 -1 -2 0 18 86 
86 17 -2 -5 -6 -6 -6 -6 -6 -6 -6 -6 -6 -6 -6 -6 -6 -6 -6 -6 -6 -6 -6 -6 -6 -6 -6 -6 -6 -6 -6 -6 -6 -6 -6 -6 -6 -6 -6 -6 -6 -6 -6 -6 -6 -6 -6 -6 -6 -6 -6 -6 -6 -6 -6 -6 -6 -6 -6 -6 -5 -2 16 85 85 16 -2 -5 -6 -6 -6 -6 -6 -6 -6 -6 -6 -6 -6 -6 -6 -6 -6 -6 -6 -6 -6 -6 -6 -6 -6 -6 -5 -4 -2 2 16 56 113 150 124 94 84 70 38 21 16 15 25 88 
87 17 -2 -5 -5 -5 -5 -5 -5 -6 -6 -6 -6 -6 -6 -6 -6 -6 -6 -6 -6 -6 -6 -6 -6 -6 -6 -6 -6 -6 -6 -6 -6 -6 -6 -6 -6 -6 -6 -6 -6 -6 -6 -6 -6 -6 -6 -6 -6 -6 -6 -6 -6 -6 -6 -6 -6 -6 -6 -6 -5 -2 16 85 85 16 -2 -5 -6 -6 -6 -6 -6 -6 -6 -6 -6 -6 -6 -6 -6 -6 -6 -6 -6 -6 -6 -6 -6 -5 -5 -4 -2 2 12 21 41 85 122 123 99 89 92 108 108 91 83 73 58 103 
93 20 0 -2 -2 -2 -2 -2 -3 -5 -5 -5 -5 -5 -5 -5 -5 -6 -6 -6 -6 -6 -6 -6 -6 -6 -6 -6 -6 -6 -6 -6 -6 -6 -6 -6 -6 -6 -6 -6 -6 -6 -6 -6 -6 -6 -6 -6 -6 -6 -6 -6 -6 -6 -6 -6 -6 -6 -6 -6 -5 -2 16 85 85 16 -2 -5 -6 -6 -6 -6 -6 -6 -6 -6 -6 -6 -6 -6 -6 -6 -6 -6 -6 -6 -6 -5 -5 -3 -1 3 16 37 71 89 109 107 79 40 22 18 21 38 70 83 91 110 122 144 
105 38 20 17 16 16 16 15 11 2 -1 -2 -2 -2 -2 -2 -3 -5 -5 -5 -5 -5 -5 -5 -5 -5 -6 -6 -6 -6 -6 -6 -6 -6 -6 -6 -6 -6 -6 -6 -6 -6 -6 -6 -6 -6 -6 -6 -6 -6 -6 -6 -6 -6 -6 -6 -6 -6 -6 -6 -5 -2 16 85 85 16 -2 -5 -6 -6 -6 -6 -6 -6 -6 -6 -6 -6 -6 -6 -6 -6 -6 -6 -5 -5 -4 -2 2 12 20 39 78 107 108 89 71 37 16 3 -1 -2 -1 2 11 16 21 40 86 138 
141 101 88 85 85 85 85 82 70 38 21 17 17 16 16 15 11 2 -1 -2 -2 -2 -2 -2 -2 -3 -5 -5 -5 -5 -5 -5 -5 -5 -6 -6 -6 -6 -6 -6 -6 -6 -6 -6 -6 -6 -6 -6 -6 -6 -6 -6 -6 -6 -6 -6 -6 -6 -6 -6 -5 -2 16 85 85 16 -2 -5 -6 -6 -6 -6 -6 -6 -6 -6 -6 -6 -6 -6 -6 -6 -5 -5 -3 -1 3 16 37 71 89 108 107 78 39 20 12 2 -2 -4 -5 -5 -5 -5 -3 -2 -1 5 33 104 
139 101 88 85 85 85 86 92 108 108 92 86 85 85 85 82 70 38 21 17 17 16 16 16 15 11 2 -1 -2 -2 -2 -2 -2 -3 -5 -5 -5 -5 -5 -5 -5 -5 -5 -6 -6 -6 -6 -6 -6 -6 -6 -6 -6 -6 -6 -6 -6 -6 -6 -6 -5 -2 16 85 85 16 -2 -5 -6 -6 -6 -6 -6 -6 -6 -6 -6 -6 -6 -6 -5 -4 -2 2 12 20 39 78 107 108 89 71 37 16 3 -1 -3 -5 -5 -6 -6 -6 -6 -6 -5 -5 -5 -1 19 93 
99 38 20 17 17 17 17 21 38 70 82 85 85 85 86 92 108 108 92 86 85 85 85 85 82 70 38 21 17 17 16 16 15 11 2 -1 -2 -2 -2 -2 -2 -2 -3 -5 -5 -5 -5 -5 -5 -5 -5 -6 -6 -6 -6 -6 -6 -6 -6 -6 -5 -2 16 85 85 16 -2 -5 -6 -6 -6 -6 -6 -6 -6 -6 -6 -5 -5 -4 -2 2 16 37 71 89 108 107 78 39 20 12 2 -2 -4 -5 -5 -6 -6 -6 -6 -6 -6 -6 -6 -6 -5 -2 17 87 
87 20 0 -2 -2 -2 -2 -1 2 11 15 16 16 17 17 21 38 70 82 85 85 85 85 86 92 108 108 92 86 85 85 85 82 70 38 21 17 17 16 16 16 15 11 2 -1 -2 -2 -2 -2 -2 -3 -5 -5 -5 -5 -5 -5 -5 -5 -5 -5 -2 17 85 85 16 -2 -5 -6 -6 -6 -6 -6 -6 -6 -5 -5 -3 -1 3 16 38 78 107 108 89 71 37 16 3 -1 -3 -5 -5 -6 -6 -6 -6 -6 -6 -6 -6 -6 -6 -6 -6 -5 -2 16 85 
85 17 -2 -5 -5 -5 -5 -5 -5 -3 -2 -2 -2 -2 -2 -1 2 11 15 16 16 16 17 17 21 38 70 82 85 85 85 86 92 108 108 92 86 85 85 85 85 82 70 38 21 17 17 16 16 15 11 2 -1 -2 -2 -2 -2 -2 -2 -3 -4 -2 17 85 85 17 -2 -5 -6 -6 -6 -6 -5 -5 -4 -2 2 12 20 39 78 107 107 78 39 20 12 2 -2 -4 -5 -5 -6 -6 -6 -6 -6 -6 -6 -6 -6 -6 -6 -6 -6 -6 -5 -2 16 85 
85 16 -2 -5 -6 -6 -6 -6 -6 -5 -5 -5 -5 -5 -5 -5 -5 -3 -2 -2 -2 -2 -2 -2 -1 2 11 15 16 16 17 17 21 38 70 82 85 85 85 85 86 92 108 108 92 86 85 85 85 82 70 38 21 17 17 16 16 16 15 11 2 1 20 88 87 17 -2 -5 -6 -6 -5 -5 -3 -1 3 16 37 71 89 108 107 78 38 16 3 -1 -3 -5 -5 -6 -6 -6 -6 -6 -6 -6 -6 -6 -6 -6 -6 -6 -6 -6 -6 -6 -5 -2 16 85 
85 16 -2 -5 -6 -6 -6 -6 -6 -6 -6 -6 -6 -6 -6 -6 -6 -5 -5 -5 -5 -5 -5 -5 -5 -5 -3 -2 -2 -2 -2 -2 -1 2 11 15 16 16 16 17 17 21 38 70 82 85 85 85 86 92 108 108 92 86 85 85 85 85 82 70 38 24 39 100 96 23 0 -5 -5 -4 -2 2 12 20 39 78 107 108 89 71 37 16 2 -2 -4 -5 -5 -6 -6 -6 -6 -6 -6 -6 -6 -6 -6 -6 -6 -6 -6 -6 -6 -6 -6 -6 -5 -2 16 85 
85 16 -2 -5 -6 -6 -6 -6 -6 -6 -6 -6 -6 -6 -6 -6 -6 -6 -6 -6 -6 -6 -6 -6 -6 -6 -5 -5 -5 -5 -5 -5 -5 -5 -3 -2 -2 -2 -2 -2 -2 -1 2 11 15 16 16 17 17 21 38 70 82 85 85 85 85 86 92 108 109 94 100 139 128 50 9 0 -1 3 16 37 71 89 108 107 78 39 20 12 2 -2 -4 -5 -6 -6 -6 -6 -6 -6 -6 -6 -6 -6 -6 -6 -6 -6 -6 -6 -6 -6 -6 -6 -6 -6 -5 -2 16 85 
85 16 -2 -5 -6 -6 -6 -6 -6 -6 -6 -6 -6 -6 -6 -6 -6 -6 -6 -6 -6 -6 -6 -6 -6 -6 -6 -6 -6 -6 -6 -6 -6 -6 -5 -5 -5 -5 -5 -5 -5 -5 -5 -3 -2 -2 -2 -2 -2 -1 2 11 15 16 16 16 17 17 21 38 70 83 88 100 120 105 49 24 22 39 78 107 108 89 71 37 16 3 -1 -3 -5 -5 -6 -6 -6 -6 -6 -6 -6 -6 -6 -6 -6 -6 -6 -6 -6 -6 -6 -6 -6 -6 -6 -6 -6 -6 -5 -2 16 85 
85 16 -2 -5 -6 -6 -6 -6 -6 -6 -6 -6 -6 -6 -6 -6 -6 -6 -6 -6 -6 -6 -6 -6 -6 -6 -6 -6 -6 -6 -6 -6 -6 -6 -6 -6 -6 -6 -6 -6 -6 -6 -6 -5 -5 -5 -5 -5 -5 -5 -5 -3 -2 -2 -2 -2 -2 -2 -1 2 11 15 17 23 49 105 120 101 95 109 107 78 39 20 12 2 -2 -4 -5 -5 -6 -6 -6 -6 -6 -6 -6 -6 -6 -6 -6 -6 -6 -6 -6 -6 -6 -6 -6 -6 -6 -6 -6 -6 -6 -6 -5 -2 16 85 
85 16 -2 -5 -6 -6 -6 -6 -6 -6 -6 -6 -6 -6 -6 -6 -6 -6 -6 -6 -6 -6 -6 -6 -6 -6 -6 -6 -6 -6 -6 -6 -6 -6 -6 -6 -6 -6 -6 -6 -6 -6 -6 -6 -6 -6 -6 -6 -6 -6 -6 -5 -5 -5 -5 -5 -5 -5 -5 -5 -3 -2 -2 0 9 50 128 139 97 72 37 16 3 -1 -3 -5 -5 -6 -6 -6 -6 -6 -6 -6 -6 -6 -6 -6 -6 -6 -6 -6 -6 -6 -6 -6 -6 -6 -6 -6 -6 -6 -6 -6 -6 -6 -5 -2 16 85 
85 16 -2 -5 -6 -6 -6 -6 -6 -6 -6 -6 -6 -6 -6 -6 -6 -6 -6 -6 -6 -6 -6 -6 -6 -6 -6 -6 -6 -6 -6 -6 -6 -6 -6 -6 -6 -6 -6 -6 -6 -6 -6 -6 -6 -6 -6 -6 -6 -6 -6 -6 -6 -6 -6 -6 -6 -6 -6 -6 -5 -5 -5 -5 0 23 96 100 37 14 2 -2 -4 -5 -5 -6 -6 -6 -6 -6 -6 -6 -6 -6 -6 -6 -6 -6 -6 -6 -6 -6 -6 -6 -6 -6 -6 -6 -6 -6 -6 -6 -6 -6 -6 -6 -5 -2 16 85 
85 17 -2 -5 -5 -5 -5 -5 -5 -5 -5 -5 -5 -5 -5 -5 -5 -5 -5 -5 -5 -5 -5 -5 -5 -5 -5 -5 -5 -5 -5 -5 -5 -5 -5 -5 -5 -5 -5 -5 -5 -5 -5 -5 -5 -5 -5 -5 -5 -5 -5 -5 -5 -5 -5 -5 -5 -5 -5 -5 -5 -5 -5 -5 -2 18 87 88 20 0 -4 -5 -5 -5 -5 -5 -5 -5 -5 -5 -5 -5 -5 -5 -5 -5 -5 -5 -5 -5 -5 -5 -5 -5 -5 -5 -5 -5 -5 -5 -5 -5 -5 -5 -5 -5 -5 -2 17 85 
88 20 0 -2 -2 -2 -2 -2 -2 -2 -2 -2 -2 -2 -2 -2 -2 -2 -2 -2 -2 -2 -2 -2 -2 -2 -2 -2 -2 -2 -2 -2 -2 -2 -2 -2 -2 -2 -2 -2 -2 -2 -2 -2 -2 -2 -2 -2 -2 -2 -2 -2 -2 -2 -2 -2 -2 -2 -2 -2 -2 -2 -2 -2 0 20 88 88 20 0 -2 -2 -2 -2 -2 -2 -2 -2 -2 -2 -2 -2 -2 -2 -2 -2 -2 -2 -2 -2 -2 -2 -2 -2 -2 -2 -2 -2 -2 -2 -2 -2 -2 -2 -2 -2 -2 0 20 88 
101 38 20 17 16 16 16 16 16 16 16 16 16 16 16 16 16 16 16 16 16 16 16 16 16 16 16 16 16 16 16 16 16 16 17 16 16 16 16 16 16 16 16 16 16 16 16 16 16 17 17 16 16 16 16 16 16 16 16 16 16 16 16 17 20 38 101 101 38 20 17 17 16 16 16 16 16 16 16 16 16 16 16 16 16 16 16 16 16 16 16 16 16 17 16 16 16 16 16 16 16 16 16 16 16 17 17 20 38 101 
145 101 88 85 85 85 85 85 85 85 85 85 85 85 85 85 85 85 85 85 85 85 85 85 85 85 85 85 85 85 85 86 88 91 90 86 85 85 85 85 85 85 85 85 85 85 85 85 87 90 90 87 85 85 85 85 85 85 85 85 85 85 85 85 87 99 139 139 99 87 85 85 85 85 85 85 85 85 85 85 85 85 85 85 85 85 85 85 85 85 86 88 91 90 86 85 85 85 85 85 85 85 86 88 91 90 87 88 101 145 
