P2
110 110
255
153 125 105 98 96 96 95 95 95 95 95 95 95 95 95 95 95 95 95 95 95 95 95 95 95 95 95 96 96 99 105 120 138 141 125 108 100 96 96 95 95 95 95 95 96 96 98 104 119 140 140 119 103 98 96 96 95 95 95 95 95 95 95 96 97 99 103 103 99 97 96 95 95 95 95 95 95 95 95 95 95 95 95 95 95 95 96 96 97 102 115 135 143 128 109 100 97 96 96 96 97 101 112 133 143 129 112 110 126 153 
125 85 58 48 45 45 44 44 44 44 44 44 44 44 44 44 44 44 44 44 44 44 44 44 44 44 45 45 47 53 70 103 130 119 85 60 49 46 45 44 44 44 44 44 45 45 48 59 88 127 124 84 58 48 45 45 44 44 44 44 44 44 44 44 44 44 44 44 44 44 44 44 44 44 44 44 44 44 44 44 44 44 44 44 44 44 45 45 49 60 87 123 126 91 62 50 46 45 45 45 47 55 78 117 129 96 67 63 86 125 
105 58 27 16 13 12 12 12 12 12 12 12 12 12 12 12 12 12 12 12 12 12 12 12 12 12 12 14 18 31 60 101 113 79 42 22 15 13 12 12 12 12 12 12 12 13 18 32 68 116 108 57 26 16 13 12 12 12 12 12 12 12 12 12 12 12 11 11 12 12 12 12 12 12 12 12 12 12 12 12 12 12 12 12 12 12 12 14 20 38 77 114 96 52 26 16 13 12 12 13 16 27 57 104 108 63 33 31 59 105 
98 48 16 4 1 1 1 1 1 1 1 1 1 1 1 1 1 1 1 1 1 1 1 1 1 1 2 4 14 37 77 108 89 46 18 6 2 1 1 1 1 1 1 1 1 3 10 30 74 121 103 47 15 4 1 1 1 1 1 1 1 1 1 1 1 0 0 0 0 1 1 1 1 1 1 1 1 1 1 1 1 1 1 1 1 1 1 4 13 39 86 108 70 29 9 3 1 1 1 2 6 20 56 103 94 46 19 19 49 98 
96 45 13 1 -1 -1 -1 -1 -1 -1 -1 -1 -1 -1 -1 -1 -1 -1 -1 -1 -1 -1 -1 -1 -1 -1 0 7 24 60 100 100 60 24 6 0 -1 -1 -1 -1 -1 -1 -1 -1 0 2 14 43 95 135 103 44 12 1 -1 -1 -1 -1 -1 -1 -1 -1 -1 -1 -1 -1 -1 -1 -1 -1 -1 -1 -1 -1 -1 -1 -1 -1 -1 -1 -1 -1 -1 -1 -1 -1 0 3 17 51 98 97 50 16 3 0 -1 -1 -1 0 5 24 67 106 81 34 12 15 46 96 
96 45 12 1 -1 -2 -2 -2 -2 -2 -2 -2 -2 -2 -2 -2 -2 -2 -2 -2 -2 -2 -2 -2 -2 0 3 16 45 88 105 73 33 10 1 -1 -2 -2 -2 -2 -2 -2 -2 -2 0 6 25 66 119 142 103 44 12 1 -1 -2 -2 -2 -2 -2 -2 -2 -2 -2 -2 -2 -2 -2 -2 -2 -2 -2 -2 -2 -2 -2 -2 -2 -2 -2 -2 -2 -2 -2 -2 -2 0 6 27 69 106 82 35 9 0 -1 -2 -2 -2 0 8 33 81 106 66 24 8 14 45 96 
95 44 12 1 -1 -2 -2 -2 -2 -2 -2 -2 -2 -2 -2 -2 -2 -2 -2 -2 -2 -2 -2 -2 -1 1 10 33 73 105 88 45 16 3 -1 -2 -2 -2 -2 -2 -2 -2 -2 -1 2 13 43 91 130 138 104 47 13 1 -1 -2 -2 -2 -2 -2 -2 -2 -2 -2 -2 -2 -2 -2 -2 -2 -2 -2 -2 -2 -2 -2 -2 -2 -2 -2 -2 -2 -2 -2 -2 -1 1 13 43 89 104 62 23 4 0 -2 -2 -2 -1 1 12 42 92 100 53 17 6 13 45 95 
95 44 12 1 -1 -2 -2 -2 -2 -2 -2 -2 -2 -2 -2 -2 -2 -2 -2 -2 -2 -2 -2 -2 0 6 24 60 99 99 60 24 6 0 -2 -2 -2 -2 -2 -2 -2 -2 -2 0 6 26 66 110 122 125 107 54 17 2 -1 -2 -2 -2 -2 -2 -2 -2 -2 -2 -2 -2 -2 -2 -2 -2 -2 -2 -2 -2 -2 -2 -2 -2 -2 -2 -2 -2 -2 -2 -2 0 4 23 62 104 89 43 13 1 -1 -2 -2 -2 -1 2 16 52 100 92 43 12 4 13 45 95 
95 44 12 1 -1 -2 -2 -2 -2 -2 -2 -2 -2 -2 -2 -2 -2 -2 -2 -2 -2 -2 -2 -1 3 16 45 88 105 73 33 10 1 -1 -2 -2 -2 -2 -2 -2 -2 -2 -1 3 16 46 91 111 98 105 110 66 23 4 0 -2 -2 -2 -2 -2 -2 -2 -2 -2 -2 -2 -2 -2 -2 -2 -2 -2 -2 -2 -2 -2 -2 -2 -2 -2 -2 -2 -2 -2 -2 0 9 35 82 106 69 26 6 0 -2 -2 -2 -2 0 5 24 66 105 81 33 9 3 12 45 95 
95 44 12 1 -1 -2 -2 -2 -2 -2 -2 -2 -2 -2 -2 -2 -2 -2 -2 -2 -2 -2 -1 1 10 33 73 105 88 45 16 3 -1 -2 -2 -2 -2 -2 -2 -2 -2 -1 1 10 33 74 106 93 68 81 109 80 32 7 0 -2 -2 -2 -2 -2 -2 -2 -2 -2 -2 -2 -2 -2 -2 -2 -2 -2 -2 -2 -2 -2 -2 -2 -2 -2 -2 -2 -2 -2 -1 2 16 50 97 97 50 16 2 -1 -2 -2 -2 -2 0 8 33 81 105 66 24 5 2 12 44 95 
96 45 12 1 -1 -2 -2 -2 -2 -2 -2 -2 -2 -2 -2 -2 -2 -2 -2 -2 -2 -2 0 6 24 60 99 99 60 24 6 0 -2 -2 -2 -2 -2 -2 -2 -2 -2 0 5 23 59 99 100 64 43 62 103 89 39 10 0 -2 -2 -2 -2 -2 -2 -2 -2 -2 -2 -2 -2 -2 -2 -2 -2 -2 -2 -2 -2 -2 -2 -2 -2 -2 -2 -2 -2 -2 0 6 26 69 106 82 35 9 0 -2 -2 -2 -2 -1 1 12 42 92 100 52 16 3 2 12 44 95 
96 46 13 1 -1 -2 -2 -2 -2 -2 -2 -2 -2 -2 -2 -2 -2 -2 -2 -2 -2 -1 3 16 45 88 105 73 33 10 1 -1 -2 -2 -2 -2 -2 -2 -2 -2 -1 1 13 42 86 106 75 37 26 51 98 94 43 11 0 -1 -2 -2 -2 -2 -2 -2 -2 -2 -2 -2 -2 -2 -2 -2 -2 -2 -2 -2 -2 -2 -2 -2 -2 -2 -2 -2 -2 -1 1 13 43 89 104 62 23 4 0 -2 -2 -2 -2 -1 2 16 52 100 92 42 12 1 1 12 44 96 
100 49 15 2 -1 -2 -2 -2 -2 -2 -2 -2 -2 -2 -2 -2 -2 -2 -2 -2 -1 1 10 33 73 105 88 45 16 3 -1 -2 -2 -2 -2 -2 -2 -2 -2 -2 0 6 25 65 104 91 47 20 18 46 96 96 45 12 1 -1 -2 -2 -2 -2 -2 -2 -2 -2 -2 -2 -2 -2 -2 -2 -2 -2 -2 -2 -2 -2 -2 -2 -2 -2 -2 -2 -2 0 4 23 62 104 89 43 13 1 -1 -2 -2 -2 -2 0 5 24 66 105 81 33 8 0 1 12 44 96 
108 59 21 5 0 -2 -2 -2 -2 -2 -2 -2 -2 -2 -2 -2 -2 -2 -2 -2 0 6 24 60 99 99 60 24 6 0 -2 -2 -2 -2 -2 -2 -2 -2 -2 -1 2 13 43 89 104 66 27 10 14 43 94 98 48 14 1 -1 -2 -2 -2 -2 -2 -2 -2 -2 -2 -2 -2 -2 -2 -2 -2 -2 -2 -2 -2 -2 -2 -2 -2 -2 -2 -2 -2 0 9 35 82 106 69 26 6 0 -2 -2 -2 -2 -2 0 8 33 81 105 66 24 5 0 1 12 44 98 
125 83 39 14 3 0 -2 -2 -2 -2 -2 -2 -2 -2 -2 -2 -2 -2 -2 -1 3 16 45 88 105 73 33 10 1 -1 -2 -2 -2 -2 -2 -2 -2 -2 -2 0 7 26 66 104 89 43 14 5 11 39 89 101 54 17 2 -1 -2 -2 -2 -2 -2 -2 -2 -2 -2 -2 -2 -2 -2 -2 -2 -2 -2 -2 -2 -2 -2 -2 -2 -2 -2 -2 -1 2 16 50 97 97 50 16 2 -1 -2 -2 -2 -2 -1 1 12 42 92 100 52 16 2 0 1 11 44 101 
141 116 71 34 12 2 -1 -2 -2 -2 -2 -2 -2 -2 -2 -2 -2 -2 -1 1 10 33 73 105 88 45 16 3 -1 -2 -2 -2 -2 -2 -2 -2 -2 -2 -1 3 16 47 90 104 65 25 6 2 8 32 80 106 66 24 4 0 -2 -2 -2 -2 -2 -2 -2 -2 -2 -2 -2 -2 -2 -2 -2 -2 -2 -2 -2 -2 -2 -2 -2 -2 -2 -2 0 6 26 69 106 82 35 9 0 -2 -2 -2 -2 -2 -1 2 16 52 100 92 42 12 1 -1 1 11 43 103 
139 131 106 67 30 9 1 -1 -2 -2 -2 -2 -2 -2 -2 -2 -2 -2 0 6 24 60 99 99 60 24 6 0 -2 -2 -2 -2 -2 -2 -2 -2 -2 -1 1 10 33 74 106 86 42 13 2 0 5 24 66 106 80 32 7 0 -2 -2 -2 -2 -2 -2 -2 -2 -2 -2 -2 -2 -2 -2 -2 -2 -2 -2 -2 -2 -2 -2 -2 -2 -2 -1 1 13 43 89 104 62 23 4 0 -2 -2 -2 -2 -2 0 5 24 66 105 81 33 8 0 -1 1 11 44 102 
123 112 113 99 58 23 6 0 -2 -2 -2 -2 -2 -2 -2 -2 -2 -1 3 16 45 88 105 73 33 10 1 -1 -2 -2 -2 -2 -2 -2 -2 -2 -2 0 5 23 59 99 99 59 23 5 0 -1 2 17 54 101 89 39 10 0 -2 -2 -2 -2 -2 -2 -2 -2 -2 -2 -2 -2 -2 -2 -2 -2 -2 -2 -2 -2 -2 -2 -2 -2 -2 0 4 23 62 104 89 43 13 1 -1 -2 -2 -2 -2 -2 0 8 33 81 105 66 24 5 0 -1 1 12 44 99 
109 83 90 108 88 46 17 4 0 -2 -2 -2 -2 -2 -2 -2 -1 1 10 33 73 105 88 45 16 3 -1 -2 -2 -2 -2 -2 -2 -2 -2 -2 -1 1 13 42 86 106 74 33 10 1 -1 -1 1 14 48 98 94 43 11 0 -1 -2 -2 -2 -2 -2 -2 -2 -2 -2 -2 -2 -2 -2 -2 -2 -2 -2 -2 -2 -2 -2 -2 -2 -2 0 9 35 82 106 69 26 6 0 -2 -2 -2 -2 -2 -1 1 12 42 92 100 52 16 2 -1 -1 1 12 44 97 
101 64 61 91 106 76 37 14 3 0 -2 -2 -2 -2 -2 -2 0 6 24 60 99 99 60 24 6 0 -2 -2 -2 -2 -2 -2 -2 -2 -2 -2 0 6 25 65 104 90 47 16 3 -1 -2 -1 1 12 45 95 95 45 12 1 -1 -2 -2 -2 -2 -2 -2 -2 -2 -2 -2 -2 -2 -2 -2 -2 -2 -2 -2 -2 -2 -2 -2 -2 -1 2 16 50 97 97 50 16 2 -1 -2 -2 -2 -2 -2 -1 2 16 52 100 92 42 12 1 -1 -1 1 12 44 96 
98 53 38 62 98 103 70 35 13 3 0 -2 -2 -2 -2 -1 3 16 45 88 105 73 33 10 1 -1 -2 -2 -2 -2 -2 -2 -2 -2 -2 -1 2 13 43 89 104 66 26 7 0 -2 -2 -1 0 11 43 94 98 48 14 1 -1 -2 -2 -2 -2 -2 -2 -2 -2 -2 -2 -2 -2 -2 -2 -2 -2 -2 -2 -2 -2 -2 -2 -2 0 6 26 69 106 82 35 9 0 -2 -2 -2 -2 -2 -2 0 5 24 66 105 81 33 8 0 -2 -1 1 12 44 96 
96 48 24 34 67 101 101 69 34 13 3 0 -2 -2 -1 1 10 33 73 105 88 45 16 3 -1 -2 -2 -2 -2 -2 -2 -2 -2 -2 -2 0 7 26 66 104 89 43 13 2 -1 -2 -2 -2 0 10 39 89 101 54 17 2 -1 -2 -2 -2 -2 -2 -2 -2 -2 -2 -2 -2 -2 -2 -2 -2 -2 -2 -2 -2 -2 -2 -2 -1 1 13 43 89 104 62 23 4 0 -2 -2 -2 -2 -2 -2 0 8 33 81 105 66 24 5 0 -2 -1 1 12 44 95 
96 46 17 15 34 69 101 101 69 34 13 3 0 -1 0 6 24 60 99 99 60 24 6 0 -2 -2 -2 -2 -2 -2 -2 -2 -2 -2 -1 3 16 47 90 104 65 25 6 0 -2 -2 -2 -2 0 7 32 80 106 66 24 4 0 -2 -2 -2 -2 -2 -2 -2 -2 -2 -2 -2 -2 -2 -2 -2 -2 -2 -2 -2 -2 -2 -2 0 4 23 62 104 89 43 13 1 -1 -2 -2 -2 -2 -2 -1 1 12 42 92 100 52 16 2 -1 -2 -1 1 12 44 95 
96 45 14 6 13 34 69 101 101 69 34 13 3 0 3 16 45 88 105 73 33 10 1 -1 -2 -2 -2 -2 -2 -2 -2 -2 -2 -1 1 10 33 74 106 86 42 13 1 -1 -2 -2 -2 -2 0 4 23 66 106 80 32 8 0 -2 -2 -2 -2 -2 -2 -2 -2 -2 -2 -2 -2 -2 -2 -2 -2 -2 -2 -2 -2 -2 -2 0 9 35 82 106 69 26 6 0 -2 -2 -2 -2 -2 -2 -1 2 16 52 100 92 42 12 1 -1 -2 -1 1 12 44 95 
95 45 12 2 3 13 34 69 101 101 69 35 14 7 12 34 74 105 88 45 16 3 -1 -2 -2 -2 -2 -2 -2 -2 -2 -2 -2 0 5 23 59 99 99 59 23 5 0 -2 -2 -2 -2 -2 -1 2 17 54 101 89 39 10 0 -2 -2 -2 -2 -2 -2 -2 -2 -2 -2 -2 -2 -2 -2 -2 -2 -2 -2 -2 -2 -2 -1 2 16 50 97 97 50 16 2 -1 -2 -2 -2 -2 -2 -2 0 5 24 66 105 81 33 8 0 -2 -2 -1 1 12 44 95 
95 44 12 1 0 3 13 34 69 101 101 70 37 22 29 61 100 99 60 24 6 0 -2 -2 -2 -2 -2 -2 -2 -2 -2 -2 -1 1 13 42 86 106 74 33 10 1 -1 -2 -2 -2 -2 -2 -1 1 13 47 97 94 43 12 1 -1 -2 -2 -2 -2 -2 -2 -2 -2 -2 -2 -2 -2 -2 -2 -2 -2 -2 -2 -2 -2 0 6 26 69 106 82 35 9 0 -2 -2 -2 -2 -2 -2 -2 0 8 33 81 105 66 24 5 0 -2 -2 -1 1 12 44 95 
95 44 12 1 -1 0 3 13 34 69 101 102 75 53 60 93 106 73 33 10 1 -1 -2 -2 -2 -2 -2 -2 -2 -2 -2 -2 0 6 25 65 104 90 47 16 3 -1 -2 -2 -2 -2 -2 -2 -1 1 12 43 94 97 47 13 1 -1 -2 -2 -2 -2 -2 -2 -2 -2 -2 -2 -2 -2 -2 -2 -2 -2 -2 -2 -2 -1 1 13 43 89 104 62 23 4 0 -2 -2 -2 -2 -2 -2 -1 1 12 42 92 100 52 16 2 -1 -2 -2 -1 1 12 44 95 
95 44 12 1 -1 -2 0 3 13 34 69 103 110 99 103 113 89 45 16 3 -1 -2 -2 -2 -2 -2 -2 -2 -2 -2 -2 -1 2 13 43 89 104 66 26 7 0 -2 -2 -2 -2 -2 -2 -2 -2 0 10 39 89 101 54 17 2 -1 -2 -2 -2 -2 -2 -2 -2 -2 -2 -2 -2 -2 -2 -2 -2 -2 -2 -2 -2 0 4 23 62 104 89 43 13 1 -1 -2 -2 -2 -2 -2 -2 -1 2 16 52 100 92 42 12 1 -1 -2 -2 -1 1 12 44 95 
95 44 12 1 -1 -2 -2 0 3 13 35 71 112 135 135 107 60 24 6 0 -2 -2 -2 -2 -2 -2 -2 -2 -2 -2 -2 0 7 26 66 104 89 43 13 2 -1 -2 -2 -2 -2 -2 -2 -2 -2 0 8 32 80 106 66 23 4 0 -2 -2 -2 -2 -2 -2 -2 -2 -2 -2 -2 -2 -2 -2 -2 -2 -2 -2 -2 0 9 35 82 106 69 26 6 0 -2 -2 -2 -2 -2 -2 -2 0 5 24 66 105 81 33 8 0 -2 -2 -2 -1 1 12 44 95 
95 44 12 1 -1 -2 -2 -2 0 3 14 39 83 131 131 82 35 10 1 -1 -2 -2 -2 -2 -2 -2 -2 -2 -2 -2 -1 3 16 47 90 104 65 25 6 0 -2 -2 -2 -2 -2 -2 -2 -2 -2 0 4 24 66 106 80 32 7 0 -2 -2 -2 -2 -2 -2 -2 -2 -2 -2 -2 -2 -2 -2 -2 -2 -2 -2 -1 2 16 50 97 97 50 16 2 -1 -2 -2 -2 -2 -2 -2 -2 0 8 33 81 105 66 24 5 0 -2 -2 -2 -1 1 12 44 95 
95 44 12 1 -1 -2 -2 -2 -2 0 5 21 58 110 114 62 22 4 0 -2 -2 -2 -2 -2 -2 -2 -2 -2 -2 -1 1 10 33 74 106 86 42 13 1 -1 -2 -2 -2 -2 -2 -2 -2 -2 -2 -1 2 17 54 101 89 39 10 0 -2 -2 -2 -2 -2 -2 -2 -2 -2 -2 -2 -2 -2 -2 -2 -2 -2 -2 0 6 26 69 106 82 35 9 0 -2 -2 -2 -2 -2 -2 -2 -1 1 12 42 92 100 52 16 2 -1 -2 -2 -2 -1 1 12 44 95 
95 44 12 1 -1 -2 -2 -2 -2 -1 1 13 44 95 106 59 19 3 -1 -2 -2 -2 -2 -2 -2 -2 -2 -2 -2 0 5 23 59 99 99 59 23 5 0 -2 -2 -2 -2 -2 -2 -2 -2 -2 -2 -1 1 14 48 98 94 43 11 0 -1 -2 -2 -2 -2 -2 -2 -2 -2 -2 -2 -2 -2 -2 -2 -2 -2 -1 1 13 43 89 104 62 23 4 0 -2 -2 -2 -2 -2 -2 -2 -1 2 16 52 100 92 42 12 1 -1 -2 -2 -2 -1 1 12 44 95 
95 44 12 1 -1 -2 -2 -2 -2 -2 0 8 33 81 107 67 24 5 0 -2 -2 -2 -2 -2 -2 -2 -2 -2 -1 1 13 42 86 106 74 33 10 1 -1 -2 -2 -2 -2 -2 -2 -2 -2 -2 -2 -1 1 12 45 95 95 45 12 1 -1 -2 -2 -2 -2 -2 -2 -2 -2 -2 -2 -2 -2 -2 -2 -2 -2 0 4 23 62 104 89 43 13 1 -1 -2 -2 -2 -2 -2 -2 -2 0 5 24 66 105 81 33 8 0 -2 -2 -2 -2 -1 1 12 44 95 
95 44 12 1 -1 -2 -2 -2 -2 -2 0 5 24 66 106 80 33 8 0 -2 -2 -2 -2 -2 -2 -2 -2 -2 0 6 25 65 104 90 47 16 3 -1 -2 -2 -2 -2 -2 -2 -2 -2 -2 -2 -2 -1 0 11 43 94 98 48 14 1 -1 -2 -2 -2 -2 -2 -2 -2 -2 -2 -2 -2 -2 -2 -2 -2 -2 0 9 35 82 106 69 26 6 0 -2 -2 -2 -2 -2 -2 -2 -2 0 8 33 81 105 66 24 5 0 -2 -2 -2 -2 -1 1 12 45 96 
96 44 12 1 -1 -2 -2 -2 -2 -2 -1 2 17 54 101 90 40 10 0 -2 -2 -2 -2 -2 -2 -2 -2 -1 2 13 43 89 104 66 26 7 0 -2 -2 -2 -2 -2 -2 -2 -2 -2 -2 -2 -2 -2 0 10 39 89 101 54 17 2 -1 -2 -2 -2 -2 -2 -2 -2 -2 -2 -2 -2 -2 -2 -2 -2 -1 2 16 50 97 97 50 16 2 -1 -2 -2 -2 -2 -2 -2 -2 -1 1 12 42 92 100 52 16 2 -1 -2 -2 -2 -2 -1 1 12 45 96 
96 44 12 1 -1 -2 -2 -2 -2 -2 -1 1 13 46 96 96 46 13 1 -1 -2 -2 -2 -2 -2 -2 -2 0 7 26 66 104 89 43 13 2 -1 -2 -2 -2 -2 -2 -2 -2 -2 -2 -2 -2 -2 -2 0 7 32 80 106 66 24 4 0 -2 -2 -2 -2 -2 -2 -2 -2 -2 -2 -2 -2 -2 -2 -2 0 6 26 69 106 82 35 9 0 -2 -2 -2 -2 -2 -2 -2 -2 -1 2 16 52 100 92 42 12 1 -1 -2 -2 -2 -2 -1 1 14 48 99 
97 44 12 0 -1 -2 -2 -2 -2 -2 -2 0 10 40 90 101 54 17 2 -1 -2 -2 -2 -2 -2 -2 -1 3 16 47 90 104 65 25 6 0 -2 -2 -2 -2 -2 -2 -2 -2 -2 -2 -2 -2 -2 -2 0 4 24 66 106 80 32 7 0 -2 -2 -2 -2 -2 -2 -2 -2 -2 -2 -2 -2 -2 -2 -1 1 13 43 89 104 62 23 4 0 -2 -2 -2 -2 -2 -2 -2 -2 0 5 24 66 105 81 33 8 0 -2 -2 -2 -2 -2 -1 3 18 55 106 
100 43 11 0 -1 -2 -2 -2 -2 -2 -2 0 8 32 80 106 66 24 4 0 -2 -2 -2 -2 -2 -1 1 10 33 74 106 86 42 13 1 -1 -2 -2 -2 -2 -2 -2 -2 -2 -2 -2 -2 -2 -2 -2 -1 2 17 54 101 89 39 10 0 -2 -2 -2 -2 -2 -2 -2 -2 -2 -2 -2 -2 -2 -2 0 4 23 62 104 89 43 13 1 -1 -2 -2 -2 -2 -2 -2 -2 -2 0 8 33 81 105 66 24 5 0 -2 -2 -2 -2 -2 0 7 27 71 119 
102 43 11 0 -1 -2 -2 -2 -2 -2 -2 0 4 24 66 106 80 32 8 0 -2 -2 -2 -2 -2 0 5 23 59 99 99 59 23 5 0 -2 -2 -2 -2 -2 -2 -2 -2 -2 -2 -2 -2 -2 -2 -2 -1 1 14 48 98 94 43 11 0 -1 -2 -2 -2 -2 -2 -2 -2 -2 -2 -2 -2 -2 -2 0 9 35 82 106 69 26 6 0 -2 -2 -2 -2 -2 -2 -2 -2 -1 1 12 42 92 100 52 16 2 -1 -2 -2 -2 -2 -1 3 16 46 97 135 
102 43 11 0 -1 -2 -2 -2 -2 -2 -2 -1 2 17 54 101 90 40 10 0 -2 -2 -2 -2 -1 1 13 42 86 106 74 33 10 1 -1 -2 -2 -2 -2 -2 -2 -2 -2 -2 -2 -2 -2 -2 -2 -2 -1 1 12 45 95 95 45 12 1 -1 -2 -2 -2 -2 -2 -2 -2 -2 -2 -2 -2 -2 -1 2 16 50 97 97 50 16 2 -1 -2 -2 -2 -2 -2 -2 -2 -2 -1 2 16 52 100 92 42 12 1 -1 -2 -2 -2 -1 1 10 33 75 122 142 
101 44 12 0 -1 -2 -2 -2 -2 -2 -2 -1 1 13 46 96 96 46 13 1 -1 -2 -2 -2 0 6 25 65 104 90 47 16 3 -1 -2 -2 -2 -2 -2 -2 -2 -2 -2 -2 -2 -2 -2 -2 -2 -2 -1 0 11 43 94 98 48 14 1 -1 -2 -2 -2 -2 -2 -2 -2 -2 -2 -2 -2 -2 0 6 26 69 106 82 35 9 0 -2 -2 -2 -2 -2 -2 -2 -2 -2 0 5 24 66 105 81 33 8 0 -2 -2 -2 -2 0 6 23 60 104 130 136 
99 44 12 0 -1 -2 -2 -2 -2 -2 -2 -2 0 10 40 90 101 54 17 2 -1 -2 -2 -1 2 13 43 89 104 66 26 7 0 -2 -2 -2 -2 -2 -2 -2 -2 -2 -2 -2 -2 -2 -2 -2 -2 -2 -2 0 10 39 89 101 54 17 2 -1 -2 -2 -2 -2 -2 -2 -2 -2 -2 -2 -2 -1 1 13 43 89 104 62 23 4 0 -2 -2 -2 -2 -2 -2 -2 -2 -2 0 8 33 81 105 66 24 5 0 -2 -2 -2 -1 3 16 45 89 115 115 122 
97 44 12 1 -1 -2 -2 -2 -2 -2 -2 -2 0 8 32 80 106 66 24 4 0 -2 -2 0 7 26 66 104 89 43 13 2 -1 -2 -2 -2 -2 -2 -2 -2 -2 -2 -2 -2 -2 -2 -2 -2 -2 -2 -2 0 8 32 80 106 67 24 5 0 -1 -2 -2 -2 -2 -2 -2 -2 -2 -2 -2 0 4 23 62 104 89 43 13 1 -1 -2 -2 -2 -2 -2 -2 -2 -2 -1 1 12 42 92 100 52 16 2 -1 -2 -2 -1 1 10 33 73 107 101 90 110 
96 44 12 1 -1 -2 -2 -2 -2 -2 -2 -2 0 4 24 66 106 80 32 8 0 -1 -1 3 16 47 90 104 65 25 6 0 -2 -2 -2 -2 -2 -2 -2 -2 -2 -2 -2 -2 -2 -2 -2 -2 -2 -2 -2 0 5 24 67 107 83 36 11 3 1 0 0 -1 -1 -1 -1 -2 -2 -2 -1 0 9 35 82 106 69 26 6 0 -2 -2 -2 -2 -2 -2 -2 -2 -2 -1 2 16 52 100 92 42 12 1 -1 -2 -2 0 6 24 60 100 102 74 70 103 
96 44 12 1 -1 -2 -2 -2 -2 -2 -2 -2 -1 2 17 54 101 90 40 10 0 -1 1 10 33 74 106 86 42 13 1 -1 -2 -2 -2 -2 -2 -2 -2 -2 -2 -2 -2 -2 -2 -2 -2 -2 -2 -2 -2 0 4 21 59 108 99 52 25 14 11 8 4 2 1 1 0 0 0 0 0 3 16 50 97 97 50 16 2 -1 -2 -2 -2 -2 -2 -2 -2 -2 -2 0 5 24 66 105 81 33 8 0 -2 -2 -1 3 16 45 88 106 77 48 57 99 
96 44 12 1 -1 -2 -2 -2 -2 -2 -2 -2 -1 1 13 46 96 96 46 13 1 0 5 23 59 99 99 59 23 5 0 -2 -2 -2 -2 -2 -2 -2 -2 -2 -2 -2 -2 -2 -2 -2 -2 -2 -2 -2 -1 1 9 27 66 117 121 83 57 46 40 32 24 17 14 12 11 10 8 5 4 10 29 70 106 82 35 9 0 -2 -2 -2 -2 -2 -2 -2 -2 -2 -2 0 8 33 81 105 66 24 5 0 -2 -1 1 10 33 73 105 89 49 31 50 97 
95 44 12 1 -1 -2 -2 -2 -2 -2 -2 -2 -2 0 10 40 90 101 54 17 3 3 13 42 86 106 74 33 10 1 -1 -2 -2 -2 -2 -2 -2 -2 -2 -2 -2 -2 -2 -2 -2 -2 -2 -2 -1 0 3 10 25 51 91 134 141 120 103 96 90 80 66 54 48 45 43 39 32 24 21 27 53 94 105 63 23 4 0 -2 -2 -2 -2 -2 -2 -2 -2 -2 -1 1 12 42 92 100 52 16 2 -1 -1 0 6 24 60 99 100 60 27 21 47 96 
95 44 12 1 -1 -2 -2 -2 -2 -2 -2 -2 -2 0 8 32 80 106 66 24 7 8 26 65 104 90 47 16 3 -1 -2 -2 -2 -2 -2 -2 -2 -2 -2 -2 -2 -2 -2 -2 -2 -2 -2 -1 1 6 16 33 60 91 115 123 115 104 99 98 101 106 106 101 98 95 94 89 80 67 59 66 92 117 94 44 13 1 -1 -2 -2 -2 -2 -2 -2 -2 -2 -2 -1 2 16 52 100 92 42 12 1 -1 0 3 16 45 88 105 74 34 14 16 45 96 
95 44 12 1 -1 -2 -2 -2 -2 -2 -2 -2 -2 0 4 24 66 106 80 34 12 16 44 89 104 66 26 7 0 -2 -2 -2 -2 -2 -2 -2 -2 -2 -2 -2 -2 -2 -2 -2 -2 -1 0 3 10 24 45 73 100 107 93 72 56 48 46 48 54 66 80 89 94 95 98 101 106 107 107 116 134 132 82 33 8 0 -1 -2 -2 -2 -2 -2 -2 -2 -2 -2 0 5 24 66 105 81 33 8 0 -1 1 10 33 73 105 88 45 16 6 14 45 95 
95 44 12 1 -1 -2 -2 -2 -2 -2 -2 -2 -2 -1 2 17 54 101 90 43 20 30 67 104 89 43 13 2 -1 -2 -2 -2 -2 -2 -2 -2 -2 -2 -2 -2 -2 -2 -2 -2 -1 1 6 16 33 60 88 105 100 74 47 28 18 14 13 14 17 24 32 39 43 45 48 54 66 81 95 112 133 132 83 34 9 1 -1 -2 -2 -2 -2 -2 -2 -2 -2 -2 0 8 33 81 105 66 24 5 0 0 6 24 60 99 99 60 24 7 3 13 45 95 
95 44 12 1 -1 -2 -2 -2 -2 -2 -2 -2 -2 -1 1 13 46 96 97 52 32 51 91 104 65 25 6 0 -2 -2 -2 -2 -2 -2 -2 -2 -2 -2 -2 -2 -2 -2 -2 0 2 9 23 45 73 99 105 88 60 33 16 7 3 1 1 1 2 4 7 10 11 12 14 17 24 33 44 61 90 117 97 50 19 5 0 -1 -1 -1 -1 -1 -1 -1 -1 -1 1 12 43 92 100 53 16 2 0 3 16 45 88 105 73 33 10 1 2 12 44 95 
95 44 12 1 -1 -2 -2 -2 -2 -2 -2 -2 -2 -2 0 10 40 90 104 66 53 79 106 86 42 13 1 -1 -2 -2 -2 -2 -2 -2 -2 -2 -2 -2 -2 -2 -2 -1 0 3 12 31 58 88 105 99 73 45 24 10 3 0 -1 -1 -1 -1 -1 0 0 0 0 1 1 2 5 8 14 25 51 91 109 78 40 18 7 3 1 1 1 1 1 1 1 2 6 20 55 101 93 43 12 2 2 10 33 73 105 88 45 16 3 0 1 12 44 95 
95 44 12 1 -1 -2 -2 -2 -2 -2 -2 -2 -2 -2 0 8 32 80 111 90 85 105 100 59 23 5 0 -2 -2 -2 -2 -2 -2 -2 -2 -2 -2 -2 -2 -2 -1 1 6 17 36 68 98 106 88 60 33 16 6 1 -1 -2 -2 -2 -2 -2 -2 -2 -2 -2 -1 -1 -1 -1 0 0 2 8 25 61 103 110 80 48 28 18 14 12 12 12 12 12 12 14 19 37 76 112 86 37 11 3 7 24 60 99 99 60 24 6 0 -1 1 12 44 95 
95 44 12 1 -1 -2 -2 -2 -2 -2 -2 -2 -2 -2 0 4 23 66 113 118 116 111 74 33 10 1 -1 -2 -2 -2 -2 -2 -2 -2 -2 -2 -2 -2 -1 0 3 10 24 46 76 102 102 76 46 24 10 3 0 -1 -2 -2 -2 -2 -2 -2 -2 -2 -2 -2 -2 -2 -2 -2 -2 -2 -1 1 11 35 81 124 126 98 72 55 48 45 45 44 44 44 45 47 53 73 109 125 85 38 15 9 18 46 88 105 73 33 10 1 -1 -1 1 12 44 95 
95 44 12 1 -1 -2 -2 -2 -2 -2 -2 -2 -2 -2 -1 2 17 54 110 137 129 93 46 16 3 -1 -2 -2 -2 -2 -2 -2 -2 -2 -2 -2 -2 -1 1 6 16 33 60 88 106 98 68 36 17 6 1 -1 -2 -2 -2 -2 -2 -2 -2 -2 -2 -2 -2 -2 -2 -2 -2 -2 -2 -2 -2 0 4 22 62 120 143 128 113 103 98 96 96 95 95 95 96 97 102 116 138 139 100 58 33 26 41 76 106 89 45 16 3 -1 -2 -1 1 12 44 95 
95 44 12 1 -1 -2 -2 -2 -2 -2 -2 -2 -2 -2 -1 1 13 47 106 142 118 66 26 6 0 -2 -2 -2 -2 -2 -2 -2 -2 -2 -2 -1 0 3 10 23 45 73 100 105 88 59 31 12 3 0 -1 -2 -2 -2 -2 -2 -2 -2 -2 -2 -2 -2 -2 -2 -2 -2 -2 -2 -2 -2 -2 -1 3 19 59 112 123 100 91 92 94 95 95 95 95 95 96 96 98 103 114 124 117 96 74 65 80 107 103 61 24 6 0 -2 -2 -1 1 12 44 95 
95 44 12 1 -1 -2 -2 -2 -2 -2 -2 -2 -2 -2 -1 1 12 44 103 135 95 43 13 2 -1 -2 -2 -2 -2 -2 -2 -2 -2 -1 -1 1 5 15 33 60 88 106 100 74 45 23 9 2 0 -2 -2 -2 -2 -2 -2 -2 -2 -2 -2 -2 -2 -2 -2 -2 -2 -2 -2 -2 -2 -2 -2 0 5 24 67 110 94 57 43 42 43 44 44 44 44 44 44 45 45 48 55 71 92 107 111 114 125 124 84 37 11 1 -1 -2 -2 -1 1 12 44 95 
95 44 12 1 -1 -2 -2 -2 -2 -2 -2 -2 -2 -2 -1 0 12 44 100 119 71 26 6 0 -2 -2 -2 -2 -2 -2 -2 -1 0 0 3 10 23 44 74 102 109 92 63 36 17 7 1 0 -1 -2 -2 -2 -2 -2 -2 -2 -2 -2 -2 -2 -2 -2 -2 -2 -2 -2 -2 -2 -2 -2 -2 0 8 32 80 107 70 31 15 12 12 12 12 12 12 12 12 12 12 13 17 27 44 66 93 121 142 127 73 29 7 0 -2 -2 -2 -1 1 12 44 95 
95 44 12 1 -1 -2 -2 -2 -2 -2 -2 -2 -2 -2 -1 1 12 45 98 105 54 17 2 -1 -2 -2 -2 -2 -2 -1 0 1 5 10 18 34 60 92 119 119 92 61 37 21 10 5 2 0 0 -1 -1 -2 -2 -2 -2 -2 -2 -2 -2 -2 -2 -2 -2 -2 -2 -2 -2 -2 -2 -2 -2 0 10 39 89 102 55 19 5 1 1 1 1 1 1 1 1 1 1 1 3 6 14 26 47 78 116 124 84 37 11 1 -1 -2 -2 -1 1 12 44 95 
95 44 12 1 -1 -2 -2 -2 -2 -2 -2 -2 -2 -2 -1 1 13 48 98 97 46 13 1 -1 -2 -2 -2 -1 0 1 6 13 23 36 53 77 109 135 141 121 88 64 49 36 25 17 12 8 5 2 1 0 0 0 -1 -1 -2 -2 -2 -2 -2 -2 -2 -2 -2 -2 -2 -2 -2 -2 -1 1 12 43 94 97 47 14 2 -1 -1 -1 -1 -1 -1 -1 -1 -1 -1 -1 -1 0 2 7 17 37 72 107 103 61 24 6 0 -2 -2 -1 1 12 44 95 
95 44 12 1 -1 -2 -2 -2 -2 -2 -2 -2 -2 -2 -1 2 17 54 102 90 40 10 0 -1 -1 0 0 2 6 13 25 42 63 83 99 112 119 122 125 122 111 101 92 81 66 53 42 33 24 17 13 10 8 4 2 1 0 0 -1 -1 -2 -2 -2 -2 -2 -2 -2 -2 -2 -2 -1 1 13 47 97 94 43 12 1 -1 -2 -2 -2 -2 -2 -2 -2 -2 -2 -2 -2 -2 -1 0 4 14 37 76 106 89 45 16 3 -1 -2 -1 1 12 44 95 
95 44 12 1 -1 -2 -2 -2 -2 -2 -2 -2 -2 -2 0 4 24 66 106 80 33 8 1 0 1 4 9 16 27 44 66 88 104 106 98 85 71 64 70 82 91 96 101 106 105 100 92 81 66 54 46 40 32 23 16 12 8 5 2 1 0 0 0 -1 -1 -2 -2 -2 -2 -2 -1 2 17 54 101 89 39 10 0 -2 -2 -2 -2 -2 -2 -2 -2 -2 -2 -2 -2 -2 -2 -1 0 4 17 46 89 105 73 33 10 1 -1 -1 1 12 44 95 
95 44 12 1 -1 -2 -2 -2 -2 -2 -2 -2 -2 -2 0 8 32 80 106 67 25 7 3 6 13 22 35 50 69 90 104 104 90 69 50 36 26 21 25 32 40 46 54 66 81 92 100 105 106 101 96 90 80 66 52 42 33 24 17 13 10 8 4 2 1 0 0 -1 -1 -1 0 5 24 66 106 80 32 8 0 -2 -2 -2 -2 -2 -2 -2 -2 -2 -2 -2 -2 -2 -2 -2 -1 0 6 24 60 99 99 60 24 6 0 -1 1 12 44 95 
95 44 12 1 -1 -2 -2 -2 -2 -2 -2 -2 -2 -2 0 10 40 90 102 56 21 11 14 25 42 62 82 97 106 103 88 66 44 27 16 9 5 4 5 8 10 13 17 24 33 42 52 66 80 90 96 101 106 105 100 92 81 66 54 46 40 32 23 16 12 8 5 2 1 1 2 9 33 81 106 66 24 4 0 -2 -2 -2 -2 -2 -2 -2 -2 -2 -2 -2 -2 -2 -2 -2 -2 -1 1 10 33 73 105 88 46 17 4 0 1 12 44 95 
95 44 12 1 -1 -2 -2 -2 -2 -2 -2 -2 -2 -1 1 13 46 97 100 55 30 30 44 66 88 103 106 97 82 62 42 25 13 6 2 0 0 -1 0 0 0 1 2 5 8 12 16 23 32 40 46 54 66 81 92 100 105 106 101 96 90 80 66 52 42 33 24 17 13 11 11 18 44 92 102 54 17 2 -1 -2 -2 -2 -2 -2 -2 -2 -2 -2 -2 -2 -2 -2 -2 -2 -2 -2 -1 3 16 45 88 106 76 37 13 3 2 12 44 95 
95 44 12 1 -1 -2 -2 -2 -2 -2 -2 -2 -2 -1 3 17 55 106 106 70 57 69 89 104 104 90 69 50 35 22 12 6 1 0 -1 -2 -2 -2 -2 -2 -2 -1 -1 0 0 1 2 4 8 10 13 17 24 33 42 52 66 80 90 96 101 106 105 100 92 81 66 54 46 41 36 38 61 103 99 48 13 1 -1 -2 -2 -2 -2 -2 -2 -2 -2 -2 -2 -2 -2 -2 -2 -2 -2 -2 -2 0 6 23 58 98 102 68 31 10 4 13 45 95 
95 44 12 1 -1 -2 -2 -2 -2 -2 -2 -2 -2 0 6 26 71 122 123 101 99 106 104 89 66 44 27 16 9 4 1 0 -1 -2 -2 -2 -2 -2 -2 -2 -2 -2 -2 -2 -2 -1 -1 0 0 0 1 2 5 8 12 16 23 32 40 46 54 66 81 92 100 105 106 101 96 91 83 79 93 121 100 45 12 1 -1 -2 -2 -2 -2 -2 -2 -2 -2 -2 -2 -2 -2 -2 -2 -2 -2 -2 -2 -1 1 9 31 68 102 98 59 24 10 15 45 96 
95 44 12 1 -1 -2 -2 -2 -2 -2 -2 -2 -1 2 13 43 95 139 138 120 107 89 65 43 25 13 6 2 0 0 -1 -2 -2 -2 -2 -2 -2 -2 -2 -2 -2 -2 -2 -2 -2 -2 -2 -2 -2 -2 -1 -1 0 0 1 2 4 8 10 13 17 24 33 42 52 66 80 90 96 101 108 115 129 141 103 44 12 0 -1 -2 -2 -2 -2 -2 -2 -2 -2 -2 -2 -2 -2 -2 -2 -2 -2 -2 -2 -2 -1 2 12 36 76 105 88 47 20 19 46 96 
96 44 12 1 -1 -2 -2 -2 -2 -2 -2 -2 0 6 26 67 115 128 109 85 63 42 25 13 6 2 0 -1 -2 -2 -2 -2 -2 -2 -2 -2 -2 -2 -2 -2 -2 -2 -2 -2 -2 -2 -2 -2 -2 -2 -2 -2 -2 -2 -1 -1 0 0 0 1 2 5 8 12 16 23 32 40 46 54 69 90 118 138 103 44 11 0 -1 -2 -2 -2 -2 -2 -2 -2 -2 -2 -2 -2 -2 -2 -2 -2 -2 -2 -2 -2 -2 0 3 17 46 88 106 76 40 27 49 97 
96 44 12 1 -1 -2 -2 -2 -2 -2 -2 -1 3 16 46 92 112 88 57 37 23 12 6 1 0 -1 -2 -2 -2 -2 -2 -2 -2 -2 -2 -2 -2 -2 -2 -2 -2 -2 -2 -2 -2 -2 -2 -2 -2 -2 -2 -2 -2 -2 -2 -2 -2 -2 -2 -1 -1 0 0 1 2 4 8 10 13 17 27 46 79 117 99 44 12 0 -1 -2 -2 -2 -2 -2 -2 -2 -2 -2 -2 -2 -2 -2 -2 -2 -2 -2 -2 -2 -2 -2 0 6 23 59 98 103 71 45 56 98 
96 44 12 1 -1 -2 -2 -2 -2 -2 -1 1 10 33 74 106 90 50 23 11 5 1 0 -1 -2 -2 -2 -2 -2 -2 -2 -2 -2 -2 -2 -2 -2 -2 -2 -2 -2 -2 -2 -2 -2 -2 -2 -2 -2 -2 -2 -2 -2 -2 -2 -2 -2 -2 -2 -2 -2 -2 -2 -1 -1 0 0 0 1 3 8 22 56 103 97 44 12 1 -1 -2 -2 -2 -2 -2 -2 -2 -2 -2 -2 -2 -2 -2 -2 -2 -2 -2 -2 -2 -2 -2 -1 1 9 31 68 102 101 73 70 103 
97 44 12 1 -1 -2 -2 -2 -2 -2 0 6 24 60 100 100 60 25 8 1 0 -1 -2 -2 -2 -2 -2 -2 -2 -2 -2 -2 -2 -2 -2 -2 -2 -2 -2 -2 -2 -2 -2 -2 -2 -2 -2 -2 -2 -2 -2 -2 -2 -2 -2 -2 -2 -2 -2 -2 -2 -2 -2 -2 -2 -2 -2 -1 -1 0 2 14 47 97 97 46 13 1 -1 -2 -2 -2 -2 -2 -2 -2 -2 -2 -2 -2 -2 -2 -2 -2 -2 -2 -2 -2 -2 -2 -2 -1 2 12 36 76 107 101 90 110 
99 44 12 0 -1 -2 -2 -2 -2 0 4 17 46 89 106 74 34 11 1 -1 -2 -2 -2 -2 -2 -2 -2 -2 -2 -2 -2 -2 -2 -2 -2 -2 -2 -2 -2 -2 -2 -2 -2 -2 -2 -2 -2 -2 -2 -2 -2 -2 -2 -2 -2 -2 -2 -2 -2 -2 -2 -2 -2 -2 -2 -2 -2 -2 -2 -1 1 13 45 96 99 49 15 2 -1 -2 -2 -2 -2 -2 -2 -2 -2 -2 -2 -2 -2 -2 -2 -2 -2 -2 -2 -2 -2 -2 -2 -2 0 3 17 46 89 115 114 122 
101 44 12 0 -1 -2 -2 -2 0 3 13 37 76 107 91 48 18 5 0 -1 -1 -1 -1 -1 -1 -1 -1 -2 -2 -2 -2 -2 -2 -2 -2 -2 -2 -2 -2 -2 -2 -2 -2 -2 -2 -2 -2 -2 -2 -2 -2 -2 -2 -2 -2 -2 -2 -2 -2 -2 -2 -2 -2 -2 -2 -2 -2 -2 -2 -1 2 14 46 97 107 60 22 6 0 -1 -2 -2 -2 -2 -2 -2 -2 -2 -2 -2 -2 -2 -2 -2 -2 -2 -2 -2 -2 -2 -2 -2 -2 0 6 24 60 104 130 136 
102 43 11 0 -1 -2 -2 0 2 12 34 71 108 109 72 36 16 7 3 1 1 1 1 1 1 0 0 0 0 0 -1 -1 -1 -1 -1 -1 -1 -1 -2 -2 -2 -2 -2 -2 -2 -2 -2 -2 -2 -2 -2 -2 -2 -2 -2 -2 -2 -2 -2 -2 -2 -2 -2 -2 -2 -2 -2 -2 -1 1 7 23 55 106 125 85 42 18 7 2 0 -1 -2 -2 -2 -2 -2 -2 -2 -2 -2 -2 -2 -2 -2 -2 -2 -2 -2 -2 -2 -2 -2 -1 1 10 33 75 122 142 
102 43 11 0 -1 -2 0 3 12 33 70 112 130 109 75 51 36 25 17 14 12 12 12 12 12 12 11 10 7 4 2 1 1 1 1 1 0 0 0 0 0 -1 -1 -1 -1 -1 -1 -1 -1 -1 -2 -2 -2 -2 -2 -2 -2 -2 -2 -2 -2 -2 -2 -2 -2 -2 -1 0 3 10 24 47 82 124 143 119 80 48 26 13 5 1 -1 -2 -2 -2 -2 -2 -2 -2 -2 -2 -2 -2 -2 -2 -2 -2 -2 -2 -2 -2 -2 -2 -1 3 16 46 97 135 
100 43 11 1 -1 0 3 13 34 69 112 140 140 122 106 94 81 66 54 48 45 45 44 44 44 44 43 39 32 24 17 14 12 12 12 12 12 11 10 7 4 2 1 1 1 1 1 1 0 0 0 0 0 -1 -1 -1 -1 -1 -1 -1 -1 -2 -2 -2 -1 0 2 6 16 33 60 89 111 122 124 122 112 92 66 42 23 10 3 0 -1 -2 -2 -2 -2 -2 -2 -2 -2 -2 -2 -2 -2 -2 -2 -2 -2 -2 -2 -2 -2 0 7 27 71 119 
97 44 12 1 0 3 13 34 69 105 120 116 107 101 100 102 106 106 101 98 96 96 95 95 95 95 93 89 80 66 54 48 45 45 44 44 44 43 39 32 24 17 14 12 12 12 12 12 12 11 10 7 4 2 1 1 1 1 1 0 0 0 0 0 1 5 13 26 46 74 100 106 93 75 67 75 92 105 104 87 59 33 16 6 2 0 -1 -2 -2 -2 -2 -2 -2 -2 -2 -2 -2 -2 -2 -2 -2 -2 -2 -2 -2 -1 3 18 55 106 
96 45 13 3 4 14 35 69 102 105 82 59 49 46 48 54 66 80 89 93 95 95 95 95 96 96 98 101 106 106 101 98 96 96 95 95 95 93 89 80 66 54 48 45 45 44 44 44 44 43 39 32 24 17 14 12 12 12 12 12 11 10 8 8 12 23 42 66 90 106 99 74 48 30 24 29 44 67 91 106 99 74 46 26 13 5 1 -1 -2 -2 -2 -2 -2 -2 -2 -2 -2 -2 -2 -2 -2 -2 -2 -2 -2 -1 1 14 48 99 
96 46 16 10 18 37 70 101 102 71 39 21 14 13 14 17 24 32 39 43 44 44 44 44 45 45 48 54 66 80 89 93 95 95 95 96 96 98 101 106 106 101 98 96 96 95 95 95 95 93 89 80 66 54 48 45 45 44 44 44 43 40 35 32 40 61 87 104 104 87 59 33 16 8 5 7 14 26 47 74 99 106 90 66 42 23 10 3 0 -1 -2 -2 -2 -2 -2 -2 -2 -2 -2 -2 -2 -2 -2 -2 -2 -1 1 12 45 96 
97 49 24 27 47 76 103 101 69 35 14 5 2 1 1 2 4 7 10 11 12 12 12 12 12 12 14 17 24 32 39 43 44 44 44 45 45 48 54 66 80 89 93 95 95 95 95 96 96 98 101 106 106 101 98 96 96 95 95 95 94 91 85 81 89 105 107 91 66 42 23 10 3 0 0 0 2 7 16 33 59 87 104 104 87 59 33 16 6 2 0 -1 -2 -2 -2 -2 -2 -2 -2 -2 -2 -2 -2 -2 -2 -1 1 12 45 96 
100 59 45 62 89 106 98 66 34 13 3 0 -1 -1 -1 -1 0 0 0 0 0 1 1 1 1 1 1 2 4 7 10 11 12 12 12 12 12 14 17 24 32 39 43 44 44 44 44 45 45 48 54 66 80 89 93 95 95 95 96 96 99 106 119 132 133 113 79 48 26 13 5 1 -1 -2 -2 -2 -1 0 3 10 23 42 66 90 106 99 74 46 26 13 5 1 -1 -2 -2 -2 -2 -2 -2 -2 -2 -2 -2 -2 -2 -1 1 12 44 96 
108 80 81 101 106 88 58 30 12 2 0 -2 -2 -2 -2 -2 -2 -2 -2 -1 -1 -1 -1 -1 -1 -1 -1 -1 0 0 0 0 0 1 1 1 1 1 2 4 7 10 11 12 12 12 12 12 12 14 17 24 32 39 43 44 44 44 45 46 50 64 96 135 132 85 42 18 7 2 0 -1 -2 -2 -2 -2 -2 -2 -1 1 5 13 26 46 74 99 106 90 66 42 23 10 3 0 -1 -2 -2 -2 -2 -2 -2 -2 -2 -2 -2 -1 1 12 44 97 
123 111 112 104 76 46 23 9 2 -1 -2 -2 -2 -2 -2 -2 -2 -2 -2 -2 -2 -2 -2 -2 -2 -2 -2 -2 -2 -2 -2 -1 -1 -1 -1 -1 -1 -1 -1 0 0 0 0 0 1 1 1 1 1 1 2 4 7 10 11 12 12 12 12 13 17 30 65 114 113 60 22 6 0 -1 -2 -2 -2 -2 -2 -2 -2 -2 -2 -1 0 2 6 16 33 59 87 104 104 87 59 33 16 7 2 0 -1 -2 -2 -2 -2 -2 -2 -2 -2 -1 0 12 44 99 
139 131 107 71 37 17 6 1 -1 -2 -2 -2 -2 -2 -2 -2 -2 -2 -2 -2 -2 -2 -2 -2 -2 -2 -2 -2 -2 -2 -2 -2 -2 -2 -2 -2 -2 -2 -2 -2 -2 -2 -1 -1 -1 -1 -1 -1 -1 -1 -1 0 0 0 0 0 1 1 1 1 5 17 50 101 101 49 15 2 -1 -2 -2 -2 -2 -2 -2 -2 -2 -2 -2 -2 -2 -1 0 3 10 23 42 66 90 106 99 74 47 26 13 6 1 0 -1 -2 -2 -2 -2 -2 -2 -1 0 11 44 102 
141 117 72 35 14 4 0 -1 -2 -2 -2 -2 -2 -2 -2 -2 -2 -2 -2 -2 -2 -2 -2 -2 -2 -2 -2 -2 -2 -2 -2 -2 -2 -2 -2 -2 -2 -2 -2 -2 -2 -2 -2 -2 -2 -2 -2 -2 -2 -2 -2 -2 -2 -2 -1 -1 -1 -1 -1 -1 1 13 46 97 97 46 13 1 -1 -2 -2 -2 -2 -2 -2 -2 -2 -2 -2 -2 -2 -2 -2 -1 1 5 13 26 46 74 99 106 90 66 43 25 13 5 1 -1 -2 -2 -2 -2 -2 -1 0 11 43 103 
125 83 39 14 3 0 -2 -2 -2 -2 -2 -2 -2 -2 -2 -2 -2 -2 -2 -2 -2 -2 -2 -2 -2 -2 -2 -2 -2 -2 -2 -2 -2 -2 -2 -2 -2 -2 -2 -2 -2 -2 -2 -2 -2 -2 -2 -2 -2 -2 -2 -2 -2 -2 -2 -2 -2 -2 -2 -1 1 12 45 96 96 45 12 1 -1 -2 -2 -2 -2 -2 -2 -2 -2 -2 -2 -2 -2 -2 -2 -2 -1 0 2 6 16 33 59 86 104 104 89 65 42 23 10 3 0 -1 -1 -2 -2 -1 1 12 44 101 
108 59 21 5 0 -2 -2 -2 -2 -2 -2 -2 -2 -2 -2 -2 -2 -2 -2 -2 -2 -2 -2 -2 -2 -2 -2 -2 -2 -2 -2 -2 -2 -2 -2 -2 -2 -2 -2 -2 -2 -2 -2 -2 -2 -2 -2 -2 -2 -2 -2 -2 -2 -2 -2 -2 -2 -2 -2 -1 1 12 44 95 95 44 12 1 -1 -2 -2 -2 -2 -2 -2 -2 -2 -2 -2 -2 -2 -2 -2 -2 -2 -2 -1 0 3 10 23 42 65 89 104 104 87 59 33 16 7 3 1 0 0 0 1 12 44 98 
100 49 15 2 -1 -2 -2 -2 -2 -2 -2 -2 -2 -2 -2 -2 -2 -2 -2 -2 -2 -2 -2 -2 -2 -2 -2 -2 -2 -2 -2 -2 -2 -2 -2 -2 -2 -2 -2 -2 -2 -2 -2 -2 -2 -2 -2 -2 -2 -2 -2 -2 -2 -2 -2 -2 -2 -2 -2 -1 1 12 44 95 95 44 12 1 -1 -2 -2 -2 -2 -2 -2 -2 -2 -2 -2 -2 -2 -2 -2 -2 -2 -2 -2 -2 -1 1 5 13 25 44 67 92 107 101 74 46 27 17 12 8 5 3 4 15 46 97 
97 46 13 1 -1 -2 -2 -2 -2 -2 -2 -2 -2 -2 -2 -2 -2 -2 -2 -2 -2 -2 -2 -2 -2 -2 -2 -2 -2 -2 -2 -2 -2 -2 -2 -2 -2 -2 -2 -2 -2 -2 -2 -2 -2 -2 -2 -2 -2 -2 -2 -2 -2 -2 -2 -2 -2 -2 -2 -1 1 12 44 95 95 44 12 1 -1 -2 -2 -2 -2 -2 -2 -2 -2 -2 -2 -2 -2 -2 -2 -2 -2 -2 -2 -2 -2 -1 0 2 7 15 30 52 83 111 117 97 72 53 42 33 24 17 15 23 52 99 
98 45 13 1 -1 -1 -1 -2 -2 -2 -2 -2 -2 -2 -2 -2 -2 -2 -2 -2 -2 -2 -2 -2 -2 -2 -2 -2 -2 -2 -2 -2 -2 -2 -2 -2 -2 -2 -2 -2 -2 -2 -2 -2 -2 -2 -2 -2 -2 -2 -2 -2 -2 -2 -2 -2 -2 -2 -2 -1 1 12 44 95 95 44 12 1 -1 -2 -2 -2 -2 -2 -2 -2 -2 -2 -2 -2 -2 -2 -2 -2 -2 -2 -2 -2 -2 -1 0 0 4 9 19 35 63 102 134 139 123 105 93 81 66 53 46 48 69 107 
103 47 15 4 1 1 0 0 0 0 -1 -1 -1 -1 -1 -2 -2 -2 -2 -2 -2 -2 -2 -2 -2 -2 -2 -2 -2 -2 -2 -2 -2 -2 -2 -2 -2 -2 -2 -2 -2 -2 -2 -2 -2 -2 -2 -2 -2 -2 -2 -2 -2 -2 -2 -2 -2 -2 -2 -1 1 12 44 95 95 44 12 1 -1 -2 -2 -2 -2 -2 -2 -2 -2 -2 -2 -2 -2 -2 -2 -2 -2 -2 -2 -1 0 0 2 6 13 24 38 56 81 111 130 127 113 104 103 106 106 100 95 93 104 126 
112 57 26 16 13 12 11 10 7 4 2 1 1 1 0 0 0 0 -1 -1 -1 -1 -1 -1 -2 -2 -2 -2 -2 -2 -2 -2 -2 -2 -2 -2 -2 -2 -2 -2 -2 -2 -2 -2 -2 -2 -2 -2 -2 -2 -2 -2 -2 -2 -2 -2 -2 -2 -2 -1 1 12 44 95 95 44 12 1 -1 -2 -2 -2 -2 -2 -2 -2 -2 -2 -2 -2 -2 -2 -2 -2 -2 -1 0 1 4 9 16 26 43 63 83 98 108 107 92 71 56 51 55 67 81 92 102 114 132 145 
128 84 57 48 45 44 43 39 32 24 17 14 12 12 11 10 7 4 2 1 1 1 0 0 0 0 0 -1 -1 -1 -1 -1 -2 -2 -2 -2 -2 -2 -2 -2 -2 -2 -2 -2 -2 -2 -2 -2 -2 -2 -2 -2 -2 -2 -2 -2 -2 -2 -2 -1 1 12 44 95 95 44 12 1 -1 -2 -2 -2 -2 -2 -2 -2 -2 -2 -2 -2 -2 -2 -1 0 0 2 6 13 23 35 50 69 89 104 106 97 82 62 42 26 18 15 17 24 33 43 55 76 110 142 
146 124 105 98 96 95 93 89 80 66 54 48 45 44 43 39 32 24 17 14 12 12 12 11 10 7 4 2 1 1 1 0 0 0 0 -1 -1 -1 -1 -1 -1 -2 -2 -2 -2 -2 -2 -2 -2 -2 -2 -2 -2 -2 -2 -2 -2 -2 -2 -1 1 12 44 95 95 44 12 1 -1 -2 -2 -2 -2 -2 -2 -2 -2 -2 -2 -2 -1 0 1 4 9 16 26 43 62 82 97 106 104 89 69 50 35 22 13 6 3 2 2 5 8 12 20 36 73 125 
142 124 105 98 96 96 98 101 106 106 101 98 96 95 93 89 80 66 54 48 45 44 44 43 39 32 24 17 14 12 12 11 10 7 4 2 1 1 1 0 0 0 0 0 -1 -1 -1 -1 -1 -2 -2 -2 -2 -2 -2 -2 -2 -2 -2 -1 1 12 44 95 95 44 12 1 -1 -2 -2 -2 -2 -2 -2 -2 -2 -2 -1 0 1 6 12 22 35 50 69 89 104 106 97 82 62 43 26 16 9 4 1 0 -1 -1 -1 0 0 1 6 19 53 111 
119 84 58 48 45 45 48 54 66 80 89 93 95 96 98 101 106 106 101 98 96 95 95 93 89 80 66 54 48 45 44 43 39 32 24 17 14 12 12 12 11 10 7 4 2 1 1 1 0 0 0 0 -1 -1 -1 -1 -1 -1 -1 -1 1 12 45 96 95 44 12 1 -1 -2 -2 -2 -2 -2 -2 -1 0 0 2 6 13 25 42 62 82 97 106 104 89 69 50 35 23 13 6 2 0 0 -1 -2 -2 -2 -2 -2 -2 -1 2 13 46 101 
104 58 27 16 13 13 14 17 24 32 39 43 44 45 48 54 66 80 89 93 95 95 96 98 101 106 106 101 98 96 95 93 89 80 66 54 48 45 44 44 43 39 32 24 17 14 12 12 11 10 7 4 2 1 1 1 0 0 0 0 2 13 45 96 96 45 12 1 -1 -2 -2 -2 -2 -1 0 1 4 9 16 27 44 66 88 103 106 97 82 62 43 26 16 9 4 1 0 -1 -2 -2 -2 -2 -2 -2 -2 -2 -2 -1 1 12 45 97 
98 48 16 4 1 1 1 2 4 7 10 11 12 12 14 17 24 32 39 43 44 44 45 48 54 66 80 89 93 95 96 98 101 106 106 101 98 96 95 95 93 89 80 66 54 48 45 44 43 39 32 24 17 14 12 12 12 11 10 8 8 17 48 98 97 46 13 1 -1 -2 -1 0 0 2 6 13 23 35 50 69 90 104 104 90 69 50 35 23 13 6 2 0 0 -1 -2 -2 -2 -2 -2 -2 -2 -2 -2 -2 -2 -1 1 12 44 96 
96 45 13 1 -1 -1 -1 -1 0 0 0 0 1 1 1 2 4 7 10 11 12 12 12 14 17 24 32 39 43 44 45 48 54 66 80 89 93 95 95 96 98 101 106 106 101 98 96 95 93 89 80 66 54 48 45 44 44 43 39 33 27 32 59 105 102 49 15 2 0 0 1 4 9 16 26 43 62 82 97 106 103 88 66 44 27 16 9 4 1 0 -1 -2 -2 -2 -2 -2 -2 -2 -2 -2 -2 -2 -2 -2 -2 -1 1 12 44 96 
96 45 12 1 -1 -2 -2 -2 -2 -2 -2 -1 -1 -1 -1 -1 0 0 0 0 0 1 1 1 2 4 7 10 11 12 12 14 17 24 32 39 43 44 44 45 48 54 66 80 89 93 95 96 98 101 106 106 101 98 96 95 95 93 89 81 69 67 87 123 114 60 23 8 4 6 13 23 35 50 69 89 104 106 97 82 62 42 25 13 6 2 0 0 -1 -2 -2 -2 -2 -2 -2 -2 -2 -2 -2 -2 -2 -2 -2 -2 -2 -1 1 12 44 95 
95 44 12 1 -1 -2 -2 -2 -2 -2 -2 -2 -2 -2 -2 -2 -2 -2 -2 -1 -1 -1 -1 -1 -1 0 0 0 0 1 1 1 2 4 7 10 11 12 12 12 14 17 24 32 39 43 44 45 48 54 66 80 89 93 95 95 96 98 101 106 107 109 122 142 132 85 44 24 21 28 43 63 82 97 106 104 89 69 50 35 22 12 6 1 0 -1 -2 -2 -2 -2 -2 -2 -2 -2 -2 -2 -2 -2 -2 -2 -2 -2 -2 -2 -2 -1 1 12 44 95 
95 44 12 1 -1 -2 -2 -2 -2 -2 -2 -2 -2 -2 -2 -2 -2 -2 -2 -2 -2 -2 -2 -2 -2 -2 -2 -2 -1 -1 -1 -1 -1 0 0 0 0 0 1 1 1 2 4 7 10 11 12 12 14 17 24 32 39 43 44 44 45 48 54 66 80 91 102 116 126 115 85 64 60 71 90 104 106 97 82 62 43 26 16 9 4 1 0 -1 -2 -2 -2 -2 -2 -2 -2 -2 -2 -2 -2 -2 -2 -2 -2 -2 -2 -2 -2 -2 -2 -1 1 12 44 95 
95 44 12 1 -1 -2 -2 -2 -2 -2 -2 -2 -2 -2 -2 -2 -2 -2 -2 -2 -2 -2 -2 -2 -2 -2 -2 -2 -2 -2 -2 -2 -2 -2 -2 -2 -1 -1 -1 -1 -1 -1 0 0 0 0 1 1 1 2 4 8 10 11 12 12 12 14 17 24 32 40 47 60 84 114 127 120 112 110 104 89 69 50 35 23 13 6 2 0 0 -1 -2 -2 -2 -2 -2 -2 -2 -2 -2 -2 -2 -2 -2 -2 -2 -2 -2 -2 -2 -2 -2 -2 -2 -1 1 12 44 95 
96 45 12 1 -1 -2 -2 -2 -2 -2 -2 -2 -2 -2 -2 -2 -2 -2 -2 -2 -2 -2 -2 -2 -2 -2 -2 -2 -2 -2 -2 -2 -2 -2 -2 -2 -2 -2 -2 -2 -2 -2 -2 -2 -1 -1 -1 -1 -1 -1 0 0 0 1 1 1 1 1 2 5 8 11 14 22 44 86 132 141 115 88 64 43 27 16 9 5 1 0 -1 -1 -2 -2 -2 -2 -2 -2 -2 -2 -2 -2 -2 -2 -2 -2 -2 -2 -2 -2 -2 -2 -2 -2 -2 -2 -2 -1 1 12 45 96 
96 45 13 1 -1 -1 -1 -1 -1 -1 -1 -1 -1 -1 -1 -1 -1 -1 -1 -1 -1 -1 -1 -1 -1 -1 -1 -1 -1 -1 -1 -1 -1 -1 -1 -1 -1 -1 -1 -1 -1 -1 -1 -1 -1 -1 -1 -1 -1 -1 -1 -1 -1 -1 -1 -1 -1 -1 0 0 0 1 3 8 23 61 114 122 80 46 26 14 7 3 1 0 0 -1 -1 -1 -1 -1 -1 -1 -1 -1 -1 -1 -1 -1 -1 -1 -1 -1 -1 -1 -1 -1 -1 -1 -1 -1 -1 -1 -1 -1 1 13 45 96 
98 48 16 4 1 1 1 1 1 1 1 1 1 1 1 1 1 1 1 1 1 1 1 1 1 1 1 1 1 1 1 0 0 0 0 0 1 1 1 1 1 1 1 1 1 1 1 1 1 0 0 1 1 1 1 1 1 1 1 1 1 1 2 6 19 52 104 107 59 26 11 6 3 2 1 1 1 1 1 1 1 1 1 1 1 1 1 1 1 1 0 0 0 0 0 1 1 1 1 1 1 1 1 0 1 1 4 16 48 98 
105 58 27 16 13 12 12 12 12 12 12 12 12 12 12 12 12 12 12 12 12 12 12 12 12 12 12 12 12 12 12 12 11 11 11 12 12 12 12 12 12 12 12 12 12 12 12 12 12 11 11 12 12 12 12 12 12 12 12 12 12 12 13 16 27 59 107 108 61 29 17 14 13 12 12 12 12 12 12 12 12 12 12 12 12 12 12 12 12 12 12 12 11 11 12 12 12 12 12 12 12 12 12 12 11 12 15 26 58 105 
125 85 58 48 45 45 44 44 44 44 44 44 44 44 44 44 44 44 44 44 44 44 44 44 44 44 44 44 44 44 44 44 44 43 44 44 44 44 44 44 44 44 44 44 44 44 44 44 44 44 44 44 44 44 44 44 44 44 44 44 44 45 45 48 58 85 124 124 85 58 48 45 45 44 44 44 44 44 44 44 44 44 44 44 44 44 44 44 44 44 44 44 43 44 44 44 44 44 44 44 44 44 44 44 44 44 47 57 84 125 
153 125 105 98 96 96 95 95 95 95 95 95 95 95 95 95 95 95 95 95 95 95 95 95 95 95 95 95 96 96 97 99 102 103 101 98 96 96 95 95 95 95 95 95 95 95 96 97 100 103 103 99 97 96 95 95 95 95 95 95 95 96 96 98 103 119 140 140 119 104 98 96 96 95 95 95 95 95 95 95 95 95 95 95 95 95 95 95 96 96 98 101 103 101 98 96 96 95 95 95 96 96 98 101 103 102 101 106 125 153 
