P2
110 110
255
151 110 94 91 90 90 90 90 90 90 90 90 90 90 90 90 90 90 90 90 90 90 90 90 90 90 90 90 90 91 93 104 132 154 129 101 92 90 90 90 90 90 90 90 90 90 91 94 107 143 142 107 93 91 90 90 90 90 90 90 90 90 90 90 91 92 97 97 92 91 90 90 90 90 90 90 90 90 90 90 90 90 90 90 90 90 90 90 90 92 100 126 153 130 102 92 91 90 90 90 90 92 99 124 153 130 102 96 110 151 
110 51 29 25 24 24 24 24 24 24 24 24 24 24 24 24 24 24 24 24 24 24 24 24 24 24 24 24 24 26 36 70 122 114 61 33 25 24 24 24 24 24 24 24 24 24 25 29 52 111 110 51 29 25 24 24 24 24 24 24 24 24 24 24 24 24 24 24 24 24 24 24 24 24 24 24 24 24 24 24 24 24 24 24 24 24 24 24 25 30 52 106 121 66 34 26 24 24 24 24 24 28 46 98 123 67 35 31 51 110 
94 29 5 0 0 0 0 0 0 0 0 0 0 0 0 0 0 0 0 0 0 0 0 0 0 0 0 0 1 7 30 87 112 58 17 3 0 0 0 0 0 0 0 0 0 0 1 7 36 104 95 29 5 0 0 0 0 0 0 0 0 0 0 0 0 0 0 0 0 0 0 0 0 0 0 0 0 0 0 0 0 0 0 0 0 0 0 0 2 12 50 111 85 27 5 0 0 0 0 0 0 5 28 92 99 34 7 6 29 94 
91 25 0 -3 -4 -4 -4 -4 -4 -4 -4 -4 -4 -4 -4 -4 -4 -4 -4 -4 -4 -4 -4 -4 -4 -4 -4 -3 0 14 57 110 82 25 2 -3 -4 -4 -4 -4 -4 -4 -4 -4 -4 -4 -2 9 50 125 96 25 0 -3 -4 -4 -4 -4 -4 -4 -4 -4 -4 -4 -4 -4 -4 -4 -4 -4 -4 -4 -4 -4 -4 -4 -4 -4 -4 -4 -4 -4 -4 -4 -4 -4 -4 -4 0 19 76 110 49 8 -2 -4 -4 -4 -4 -4 -3 2 31 97 88 24 1 1 25 91 
90 24 0 -4 -5 -5 -5 -5 -5 -5 -5 -5 -5 -5 -5 -5 -5 -5 -5 -5 -5 -5 -5 -5 -5 -5 -4 -2 7 43 101 101 42 7 -2 -4 -5 -5 -5 -5 -5 -5 -5 -5 -5 -4 0 23 87 152 98 24 0 -4 -5 -5 -5 -5 -5 -5 -5 -5 -5 -5 -5 -5 -5 -5 -5 -5 -5 -5 -5 -5 -5 -5 -5 -5 -5 -5 -5 -5 -5 -5 -5 -5 -5 -4 1 29 93 93 29 1 -4 -5 -5 -5 -5 -5 -3 7 47 109 74 17 0 0 24 90 
90 24 0 -4 -5 -5 -5 -5 -5 -5 -5 -5 -5 -5 -5 -5 -5 -5 -5 -5 -5 -5 -5 -5 -5 -5 -4 1 25 82 109 56 13 -1 -4 -5 -5 -5 -5 -5 -5 -5 -5 -5 -5 -2 8 47 118 149 96 24 0 -4 -5 -5 -5 -5 -5 -5 -5 -5 -5 -5 -5 -5 -5 -5 -5 -5 -5 -5 -5 -5 -5 -5 -5 -5 -5 -5 -5 -5 -5 -5 -5 -5 -5 -2 8 49 109 75 18 0 -4 -5 -5 -5 -5 -4 -1 17 74 109 47 7 -2 0 24 90 
90 24 0 -4 -5 -5 -5 -5 -5 -5 -5 -5 -5 -5 -5 -5 -5 -5 -5 -5 -5 -5 -5 -5 -5 -4 -1 13 56 109 82 25 1 -4 -5 -5 -5 -5 -5 -5 -5 -5 -5 -5 -4 0 23 84 127 129 95 25 0 -4 -5 -5 -5 -5 -5 -5 -5 -5 -5 -5 -5 -5 -5 -5 -5 -5 -5 -5 -5 -5 -5 -5 -5 -5 -5 -5 -5 -5 -5 -5 -5 -5 -4 0 23 83 108 45 7 -3 -5 -5 -5 -5 -5 -4 0 23 88 96 30 1 -3 0 24 90 
90 24 0 -4 -5 -5 -5 -5 -5 -5 -5 -5 -5 -5 -5 -5 -5 -5 -5 -5 -5 -5 -5 -5 -5 -2 7 42 101 101 42 7 -2 -5 -5 -5 -5 -5 -5 -5 -5 -5 -5 -5 -2 8 47 110 105 109 99 30 1 -4 -5 -5 -5 -5 -5 -5 -5 -5 -5 -5 -5 -5 -5 -5 -5 -5 -5 -5 -5 -5 -5 -5 -5 -5 -5 -5 -5 -5 -5 -5 -5 -5 -3 7 45 108 83 23 0 -4 -5 -5 -5 -5 -5 -4 1 30 96 88 23 0 -3 0 24 90 
90 24 0 -4 -5 -5 -5 -5 -5 -5 -5 -5 -5 -5 -5 -5 -5 -5 -5 -5 -5 -5 -5 -5 -4 1 25 82 109 56 13 -1 -4 -5 -5 -5 -5 -5 -5 -5 -5 -5 -5 -4 1 25 83 111 68 85 110 47 7 -3 -5 -5 -5 -5 -5 -5 -5 -5 -5 -5 -5 -5 -5 -5 -5 -5 -5 -5 -5 -5 -5 -5 -5 -5 -5 -5 -5 -5 -5 -5 -5 -4 0 18 75 109 49 8 -2 -5 -5 -5 -5 -5 -5 -3 7 47 109 74 17 -1 -4 0 24 90 
90 24 0 -4 -5 -5 -5 -5 -5 -5 -5 -5 -5 -5 -5 -5 -5 -5 -5 -5 -5 -5 -5 -4 -1 13 56 109 82 25 1 -4 -5 -5 -5 -5 -5 -5 -5 -5 -5 -5 -4 -1 13 56 109 83 35 52 110 74 17 -1 -4 -5 -5 -5 -5 -5 -5 -5 -5 -5 -5 -5 -5 -5 -5 -5 -5 -5 -5 -5 -5 -5 -5 -5 -5 -5 -5 -5 -5 -5 -5 -4 1 29 93 93 29 1 -4 -5 -5 -5 -5 -5 -4 -1 17 74 109 47 7 -3 -4 0 24 90 
90 24 0 -4 -5 -5 -5 -5 -5 -5 -5 -5 -5 -5 -5 -5 -5 -5 -5 -5 -5 -5 -5 -2 7 42 101 101 42 7 -2 -5 -5 -5 -5 -5 -5 -5 -5 -5 -5 -5 -3 7 42 101 101 43 14 32 97 86 22 0 -4 -5 -5 -5 -5 -5 -5 -5 -5 -5 -5 -5 -5 -5 -5 -5 -5 -5 -5 -5 -5 -5 -5 -5 -5 -5 -5 -5 -5 -5 -5 -2 8 49 109 75 18 0 -4 -5 -5 -5 -5 -5 -4 0 23 88 96 30 1 -4 -4 0 24 90 
90 24 0 -4 -5 -5 -5 -5 -5 -5 -5 -5 -5 -5 -5 -5 -5 -5 -5 -5 -5 -5 -4 1 25 82 109 56 13 -1 -4 -5 -5 -5 -5 -5 -5 -5 -5 -5 -5 -4 0 23 81 109 56 14 4 26 92 89 24 0 -4 -5 -5 -5 -5 -5 -5 -5 -5 -5 -5 -5 -5 -5 -5 -5 -5 -5 -5 -5 -5 -5 -5 -5 -5 -5 -5 -5 -5 -5 -4 0 23 83 108 45 7 -3 -5 -5 -5 -5 -5 -5 -4 1 30 96 88 23 0 -4 -4 0 24 90 
92 25 0 -4 -5 -5 -5 -5 -5 -5 -5 -5 -5 -5 -5 -5 -5 -5 -5 -5 -5 -4 -1 13 56 109 82 25 1 -4 -5 -5 -5 -5 -5 -5 -5 -5 -5 -5 -5 -2 8 47 108 83 25 2 1 24 90 90 24 0 -4 -5 -5 -5 -5 -5 -5 -5 -5 -5 -5 -5 -5 -5 -5 -5 -5 -5 -5 -5 -5 -5 -5 -5 -5 -5 -5 -5 -5 -5 -3 7 45 108 83 23 0 -4 -5 -5 -5 -5 -5 -5 -3 7 47 109 74 17 -1 -4 -4 0 24 91 
101 33 3 -3 -5 -5 -5 -5 -5 -5 -5 -5 -5 -5 -5 -5 -5 -5 -5 -5 -5 -2 7 42 101 101 42 7 -2 -5 -5 -5 -5 -5 -5 -5 -5 -5 -5 -5 -4 0 23 82 108 47 8 -2 0 24 89 92 25 0 -4 -5 -5 -5 -5 -5 -5 -5 -5 -5 -5 -5 -5 -5 -5 -5 -5 -5 -5 -5 -5 -5 -5 -5 -5 -5 -5 -5 -5 -4 0 18 75 109 49 8 -2 -5 -5 -5 -5 -5 -5 -4 -1 17 74 109 47 7 -3 -5 -4 0 24 92 
129 61 16 0 -4 -5 -5 -5 -5 -5 -5 -5 -5 -5 -5 -5 -5 -5 -5 -5 -4 1 25 82 109 56 13 -1 -4 -5 -5 -5 -5 -5 -5 -5 -5 -5 -5 -5 -2 8 47 108 82 23 0 -3 0 22 86 97 30 1 -4 -5 -5 -5 -5 -5 -5 -5 -5 -5 -5 -5 -5 -5 -5 -5 -5 -5 -5 -5 -5 -5 -5 -5 -5 -5 -5 -5 -5 -4 1 29 93 93 29 1 -4 -5 -5 -5 -5 -5 -5 -4 0 23 88 96 30 1 -4 -5 -4 0 24 96 
154 113 53 14 0 -4 -5 -5 -5 -5 -5 -5 -5 -5 -5 -5 -5 -5 -5 -4 -1 13 56 109 82 25 1 -4 -5 -5 -5 -5 -5 -5 -5 -5 -5 -5 -5 -4 1 25 83 108 47 8 -2 -4 -1 17 74 109 47 7 -3 -5 -5 -5 -5 -5 -5 -5 -5 -5 -5 -5 -5 -5 -5 -5 -5 -5 -5 -5 -5 -5 -5 -5 -5 -5 -5 -5 -5 -2 8 49 109 75 18 0 -4 -5 -5 -5 -5 -5 -5 -4 1 30 96 88 23 0 -4 -5 -4 0 24 98 
132 124 105 51 12 -1 -4 -5 -5 -5 -5 -5 -5 -5 -5 -5 -5 -5 -5 -2 7 42 101 101 42 7 -2 -5 -5 -5 -5 -5 -5 -5 -5 -5 -5 -5 -4 -1 13 56 109 81 23 0 -4 -5 -3 7 47 109 74 17 -1 -4 -5 -5 -5 -5 -5 -5 -5 -5 -5 -5 -5 -5 -5 -5 -5 -5 -5 -5 -5 -5 -5 -5 -5 -5 -5 -5 -4 0 23 83 108 45 7 -3 -5 -5 -5 -5 -5 -5 -5 -3 7 47 109 74 17 -1 -4 -5 -4 0 24 94 
106 79 108 101 42 7 -2 -5 -5 -5 -5 -5 -5 -5 -5 -5 -5 -5 -4 1 25 82 109 56 13 -1 -4 -5 -5 -5 -5 -5 -5 -5 -5 -5 -5 -5 -3 7 42 101 101 42 7 -3 -5 -5 -4 1 30 97 86 22 0 -4 -5 -5 -5 -5 -5 -5 -5 -5 -5 -5 -5 -5 -5 -5 -5 -5 -5 -5 -5 -5 -5 -5 -5 -5 -5 -5 -3 7 45 108 83 23 0 -4 -5 -5 -5 -5 -5 -5 -4 -1 17 74 109 47 7 -3 -5 -5 -4 0 24 91 
95 44 62 110 82 25 2 -3 -5 -5 -5 -5 -5 -5 -5 -5 -5 -4 -1 13 56 109 82 25 1 -4 -5 -5 -5 -5 -5 -5 -5 -5 -5 -5 -5 -4 0 23 81 109 56 13 -1 -4 -5 -5 -4 0 25 92 89 24 0 -4 -5 -5 -5 -5 -5 -5 -5 -5 -5 -5 -5 -5 -5 -5 -5 -5 -5 -5 -5 -5 -5 -5 -5 -5 -5 -4 0 18 75 109 49 8 -2 -5 -5 -5 -5 -5 -5 -5 -4 0 23 88 96 30 1 -4 -5 -5 -4 0 24 90 
91 31 30 83 109 57 15 0 -4 -5 -5 -5 -5 -5 -5 -5 -5 -2 7 42 101 101 42 7 -2 -5 -5 -5 -5 -5 -5 -5 -5 -5 -5 -5 -5 -2 8 47 108 83 25 1 -4 -5 -5 -5 -4 0 24 90 90 24 0 -4 -5 -5 -5 -5 -5 -5 -5 -5 -5 -5 -5 -5 -5 -5 -5 -5 -5 -5 -5 -5 -5 -5 -5 -5 -5 -4 1 29 93 93 29 1 -4 -5 -5 -5 -5 -5 -5 -5 -4 1 30 96 88 23 0 -4 -5 -5 -4 0 24 90 
91 26 12 43 101 104 53 14 0 -4 -5 -5 -5 -5 -5 -5 -4 1 25 82 109 56 13 -1 -4 -5 -5 -5 -5 -5 -5 -5 -5 -5 -5 -5 -4 0 23 82 108 47 8 -2 -5 -5 -5 -5 -4 0 24 89 92 25 0 -4 -5 -5 -5 -5 -5 -5 -5 -5 -5 -5 -5 -5 -5 -5 -5 -5 -5 -5 -5 -5 -5 -5 -5 -5 -5 -2 8 49 109 75 18 0 -4 -5 -5 -5 -5 -5 -5 -5 -3 7 47 109 74 17 -1 -4 -5 -5 -4 0 24 90 
90 24 4 13 51 103 103 52 14 0 -4 -5 -5 -5 -5 -4 -1 13 56 109 82 25 1 -4 -5 -5 -5 -5 -5 -5 -5 -5 -5 -5 -5 -5 -2 8 47 108 82 23 0 -4 -5 -5 -5 -5 -4 0 22 86 97 30 1 -4 -5 -5 -5 -5 -5 -5 -5 -5 -5 -5 -5 -5 -5 -5 -5 -5 -5 -5 -5 -5 -5 -5 -5 -5 -4 0 23 83 108 45 7 -3 -5 -5 -5 -5 -5 -5 -5 -4 -1 17 74 109 47 7 -3 -5 -5 -5 -4 0 24 90 
90 24 1 0 14 52 103 103 52 14 0 -4 -5 -5 -5 -2 7 42 101 101 42 7 -2 -5 -5 -5 -5 -5 -5 -5 -5 -5 -5 -5 -5 -4 1 25 83 108 47 8 -2 -5 -5 -5 -5 -5 -4 -1 17 74 109 47 7 -3 -5 -5 -5 -5 -5 -5 -5 -5 -5 -5 -5 -5 -5 -5 -5 -5 -5 -5 -5 -5 -5 -5 -5 -5 -3 7 45 108 83 23 0 -4 -5 -5 -5 -5 -5 -5 -5 -4 0 23 88 96 30 1 -4 -5 -5 -5 -4 0 24 90 
90 24 0 -3 0 14 52 103 103 52 14 0 -4 -5 -4 1 25 82 109 56 13 -1 -4 -5 -5 -5 -5 -5 -5 -5 -5 -5 -5 -5 -4 -1 13 56 109 81 23 0 -4 -5 -5 -5 -5 -5 -5 -3 7 47 109 74 17 -1 -4 -5 -5 -5 -5 -5 -5 -5 -5 -5 -5 -5 -5 -5 -5 -5 -5 -5 -5 -5 -5 -5 -5 -4 0 18 75 109 49 8 -2 -5 -5 -5 -5 -5 -5 -5 -5 -4 1 30 96 88 23 0 -4 -5 -5 -5 -4 0 24 90 
90 24 0 -4 -4 0 14 52 103 103 52 14 0 -3 -1 13 56 109 82 25 1 -4 -5 -5 -5 -5 -5 -5 -5 -5 -5 -5 -5 -5 -3 7 42 101 101 42 7 -3 -5 -5 -5 -5 -5 -5 -5 -4 1 30 97 86 22 0 -4 -5 -5 -5 -5 -5 -5 -5 -5 -5 -5 -5 -5 -5 -5 -5 -5 -5 -5 -5 -5 -5 -5 -4 1 29 93 93 29 1 -4 -5 -5 -5 -5 -5 -5 -5 -5 -3 7 47 109 74 17 -1 -4 -5 -5 -5 -4 0 24 90 
90 24 0 -4 -5 -4 0 14 52 103 103 52 15 2 8 43 101 101 42 7 -2 -5 -5 -5 -5 -5 -5 -5 -5 -5 -5 -5 -5 -4 0 23 81 109 56 13 -1 -4 -5 -5 -5 -5 -5 -5 -5 -4 0 25 91 90 24 0 -4 -5 -5 -5 -5 -5 -5 -5 -5 -5 -5 -5 -5 -5 -5 -5 -5 -5 -5 -5 -5 -5 -5 -2 8 49 109 75 18 0 -4 -5 -5 -5 -5 -5 -5 -5 -4 -1 17 74 109 47 7 -3 -5 -5 -5 -5 -4 0 24 90 
90 24 0 -4 -5 -5 -4 0 14 52 103 103 53 21 30 83 109 56 13 -1 -4 -5 -5 -5 -5 -5 -5 -5 -5 -5 -5 -5 -5 -2 8 47 108 83 25 1 -4 -5 -5 -5 -5 -5 -5 -5 -5 -4 0 24 90 91 25 0 -4 -5 -5 -5 -5 -5 -5 -5 -5 -5 -5 -5 -5 -5 -5 -5 -5 -5 -5 -5 -5 -5 -4 0 23 83 108 45 7 -3 -5 -5 -5 -5 -5 -5 -5 -5 -4 0 23 88 96 30 1 -4 -5 -5 -5 -5 -4 0 24 90 
90 24 0 -4 -5 -5 -5 -4 0 14 52 103 106 69 72 112 82 25 1 -4 -5 -5 -5 -5 -5 -5 -5 -5 -5 -5 -5 -5 -4 0 23 82 108 47 8 -2 -5 -5 -5 -5 -5 -5 -5 -5 -5 -4 0 22 86 97 30 1 -4 -5 -5 -5 -5 -5 -5 -5 -5 -5 -5 -5 -5 -5 -5 -5 -5 -5 -5 -5 -5 -5 -3 7 45 108 83 23 0 -4 -5 -5 -5 -5 -5 -5 -5 -5 -4 1 30 96 88 23 0 -4 -5 -5 -5 -5 -4 0 24 90 
90 24 0 -4 -5 -5 -5 -5 -4 0 14 53 108 132 133 105 43 7 -2 -5 -5 -5 -5 -5 -5 -5 -5 -5 -5 -5 -5 -5 -2 8 47 108 82 23 0 -4 -5 -5 -5 -5 -5 -5 -5 -5 -5 -4 -1 17 74 109 47 7 -3 -5 -5 -5 -5 -5 -5 -5 -5 -5 -5 -5 -5 -5 -5 -5 -5 -5 -5 -5 -5 -4 0 18 75 109 49 8 -2 -5 -5 -5 -5 -5 -5 -5 -5 -5 -3 7 47 109 74 17 -1 -4 -5 -5 -5 -5 -4 0 24 90 
90 24 0 -4 -5 -5 -5 -5 -5 -4 0 16 60 132 132 60 14 -1 -4 -5 -5 -5 -5 -5 -5 -5 -5 -5 -5 -5 -5 -4 1 25 83 108 47 8 -2 -5 -5 -5 -5 -5 -5 -5 -5 -5 -5 -5 -3 7 47 109 74 17 -1 -4 -5 -5 -5 -5 -5 -5 -5 -5 -5 -5 -5 -5 -5 -5 -5 -5 -5 -5 -5 -4 1 29 93 93 29 1 -4 -5 -5 -5 -5 -5 -5 -5 -5 -4 -1 17 74 109 47 7 -3 -5 -5 -5 -5 -5 -4 0 24 90 
90 24 0 -4 -5 -5 -5 -5 -5 -5 -3 3 32 102 104 34 3 -3 -5 -5 -5 -5 -5 -5 -5 -5 -5 -5 -5 -5 -4 -1 13 56 109 81 23 0 -4 -5 -5 -5 -5 -5 -5 -5 -5 -5 -5 -5 -4 1 30 97 86 22 0 -4 -5 -5 -5 -5 -5 -5 -5 -5 -5 -5 -5 -5 -5 -5 -5 -5 -5 -5 -5 -2 8 49 109 75 18 0 -4 -5 -5 -5 -5 -5 -5 -5 -5 -4 0 23 88 96 30 1 -4 -5 -5 -5 -5 -5 -4 0 24 90 
90 24 0 -4 -5 -5 -5 -5 -5 -5 -4 0 23 89 99 32 2 -4 -5 -5 -5 -5 -5 -5 -5 -5 -5 -5 -5 -5 -3 7 42 101 101 42 7 -3 -5 -5 -5 -5 -5 -5 -5 -5 -5 -5 -5 -5 -4 0 25 92 89 24 0 -4 -5 -5 -5 -5 -5 -5 -5 -5 -5 -5 -5 -5 -5 -5 -5 -5 -5 -5 -4 0 23 83 108 45 7 -3 -5 -5 -5 -5 -5 -5 -5 -5 -5 -4 1 30 96 88 23 0 -4 -5 -5 -5 -5 -5 -4 0 24 90 
90 24 0 -4 -5 -5 -5 -5 -5 -5 -4 -1 17 74 110 47 7 -3 -5 -5 -5 -5 -5 -5 -5 -5 -5 -5 -5 -4 0 23 81 109 56 13 -1 -4 -5 -5 -5 -5 -5 -5 -5 -5 -5 -5 -5 -5 -4 0 24 90 90 24 0 -4 -5 -5 -5 -5 -5 -5 -5 -5 -5 -5 -5 -5 -5 -5 -5 -5 -5 -5 -3 7 45 108 83 23 0 -4 -5 -5 -5 -5 -5 -5 -5 -5 -5 -3 7 47 109 74 17 -1 -4 -5 -5 -5 -5 -5 -4 0 24 90 
90 24 0 -4 -5 -5 -5 -5 -5 -5 -5 -3 7 47 109 74 17 -1 -4 -5 -5 -5 -5 -5 -5 -5 -5 -5 -5 -2 8 47 108 83 25 1 -4 -5 -5 -5 -5 -5 -5 -5 -5 -5 -5 -5 -5 -5 -4 0 24 89 92 25 0 -4 -5 -5 -5 -5 -5 -5 -5 -5 -5 -5 -5 -5 -5 -5 -5 -5 -5 -4 0 18 75 109 49 8 -2 -5 -5 -5 -5 -5 -5 -5 -5 -5 -4 -1 17 74 109 47 7 -3 -5 -5 -5 -5 -5 -5 -4 0 24 90 
90 24 0 -4 -5 -5 -5 -5 -5 -5 -5 -4 1 30 97 86 22 0 -4 -5 -5 -5 -5 -5 -5 -5 -5 -5 -4 0 23 82 108 47 8 -2 -5 -5 -5 -5 -5 -5 -5 -5 -5 -5 -5 -5 -5 -5 -4 0 22 86 97 30 1 -4 -5 -5 -5 -5 -5 -5 -5 -5 -5 -5 -5 -5 -5 -5 -5 -5 -5 -4 1 29 93 93 29 1 -4 -5 -5 -5 -5 -5 -5 -5 -5 -5 -4 0 23 88 96 30 1 -4 -5 -5 -5 -5 -5 -5 -4 0 24 90 
91 24 0 -4 -5 -5 -5 -5 -5 -5 -5 -4 0 25 91 91 25 0 -4 -5 -5 -5 -5 -5 -5 -5 -5 -5 -2 8 47 108 82 23 0 -4 -5 -5 -5 -5 -5 -5 -5 -5 -5 -5 -5 -5 -5 -5 -4 -1 17 74 109 47 7 -3 -5 -5 -5 -5 -5 -5 -5 -5 -5 -5 -5 -5 -5 -5 -5 -5 -5 -2 8 49 109 75 18 0 -4 -5 -5 -5 -5 -5 -5 -5 -5 -5 -4 1 30 96 88 23 0 -4 -5 -5 -5 -5 -5 -5 -4 0 25 92 
92 24 0 -4 -5 -5 -5 -5 -5 -5 -5 -4 0 22 86 97 30 1 -4 -5 -5 -5 -5 -5 -5 -5 -5 -4 1 25 83 108 47 8 -2 -5 -5 -5 -5 -5 -5 -5 -5 -5 -5 -5 -5 -5 -5 -5 -5 -3 7 47 109 74 17 -1 -4 -5 -5 -5 -5 -5 -5 -5 -5 -5 -5 -5 -5 -5 -5 -5 -4 0 23 83 108 45 7 -3 -5 -5 -5 -5 -5 -5 -5 -5 -5 -5 -3 7 47 109 74 17 -1 -4 -5 -5 -5 -5 -5 -5 -4 2 31 100 
95 24 0 -4 -5 -5 -5 -5 -5 -5 -5 -4 -1 17 74 109 47 7 -3 -5 -5 -5 -5 -5 -5 -5 -4 -1 13 56 109 81 23 0 -4 -5 -5 -5 -5 -5 -5 -5 -5 -5 -5 -5 -5 -5 -5 -5 -5 -4 1 30 97 86 22 0 -4 -5 -5 -5 -5 -5 -5 -5 -5 -5 -5 -5 -5 -5 -5 -5 -3 7 45 108 83 23 0 -4 -5 -5 -5 -5 -5 -5 -5 -5 -5 -4 -1 17 74 109 47 7 -3 -5 -5 -5 -5 -5 -5 -5 -2 8 50 125 
98 24 0 -4 -5 -5 -5 -5 -5 -5 -5 -5 -3 7 47 109 74 17 -1 -4 -5 -5 -5 -5 -5 -5 -3 7 42 101 101 42 7 -3 -5 -5 -5 -5 -5 -5 -5 -5 -5 -5 -5 -5 -5 -5 -5 -5 -5 -4 0 25 92 89 24 0 -4 -5 -5 -5 -5 -5 -5 -5 -5 -5 -5 -5 -5 -5 -5 -4 0 18 75 109 49 8 -2 -5 -5 -5 -5 -5 -5 -5 -5 -5 -5 -4 0 23 88 96 30 1 -4 -5 -5 -5 -5 -5 -5 -4 1 25 88 152 
96 24 0 -4 -5 -5 -5 -5 -5 -5 -5 -5 -4 1 30 97 86 22 0 -4 -5 -5 -5 -5 -5 -4 0 23 81 109 56 13 -1 -4 -5 -5 -5 -5 -5 -5 -5 -5 -5 -5 -5 -5 -5 -5 -5 -5 -5 -4 0 24 90 90 24 0 -4 -5 -5 -5 -5 -5 -5 -5 -5 -5 -5 -5 -5 -5 -5 -4 1 29 93 93 29 1 -4 -5 -5 -5 -5 -5 -5 -5 -5 -5 -5 -4 1 30 96 88 23 0 -4 -5 -5 -5 -5 -5 -4 -1 13 57 120 149 
93 24 0 -4 -5 -5 -5 -5 -5 -5 -5 -5 -4 0 25 91 91 25 0 -4 -5 -5 -5 -5 -5 -2 8 47 108 83 25 1 -4 -5 -5 -5 -5 -5 -5 -5 -5 -5 -5 -5 -5 -5 -5 -5 -5 -5 -5 -4 0 24 89 92 25 0 -4 -5 -5 -5 -5 -5 -5 -5 -5 -5 -5 -5 -5 -5 -5 -2 8 49 109 75 18 0 -4 -5 -5 -5 -5 -5 -5 -5 -5 -5 -5 -3 7 47 109 74 17 -1 -4 -5 -5 -5 -5 -5 -2 7 42 103 122 127 
91 24 0 -4 -5 -5 -5 -5 -5 -5 -5 -5 -4 0 22 86 97 30 1 -4 -5 -5 -5 -5 -4 0 23 82 108 47 8 -2 -5 -5 -5 -5 -5 -5 -5 -5 -5 -5 -5 -5 -5 -5 -5 -5 -5 -5 -5 -4 0 22 86 97 30 1 -4 -5 -5 -5 -5 -5 -5 -5 -5 -5 -5 -5 -5 -5 -4 0 23 83 108 45 7 -3 -5 -5 -5 -5 -5 -5 -5 -5 -5 -5 -4 -1 17 74 109 47 7 -3 -5 -5 -5 -5 -5 -4 1 25 82 113 83 105 
91 24 0 -4 -5 -5 -5 -5 -5 -5 -5 -5 -4 -1 17 74 109 47 7 -3 -5 -5 -5 -5 -2 8 47 108 82 23 0 -4 -5 -5 -5 -5 -5 -5 -5 -5 -5 -5 -5 -5 -5 -5 -5 -5 -5 -5 -5 -4 -1 17 74 109 47 7 -3 -5 -5 -5 -5 -5 -5 -5 -5 -5 -5 -5 -5 -5 -3 7 45 108 83 23 0 -4 -5 -5 -5 -5 -5 -5 -5 -5 -5 -5 -4 0 23 88 96 30 1 -4 -5 -5 -5 -5 -4 -1 13 56 110 87 53 96 
90 24 0 -4 -5 -5 -5 -5 -5 -5 -5 -5 -5 -3 7 47 109 74 17 -1 -4 -5 -5 -4 1 25 83 108 47 8 -2 -5 -5 -5 -5 -5 -5 -5 -5 -5 -5 -5 -5 -5 -5 -5 -5 -5 -5 -5 -5 -5 -3 7 47 110 74 17 0 -4 -4 -4 -5 -5 -5 -5 -5 -5 -5 -5 -5 -4 0 18 75 109 49 8 -2 -5 -5 -5 -5 -5 -5 -5 -5 -5 -5 -5 -4 1 30 96 88 23 0 -4 -5 -5 -5 -5 -2 7 42 101 102 48 36 92 
90 24 0 -4 -5 -5 -5 -5 -5 -5 -5 -5 -5 -4 1 30 97 86 22 0 -4 -5 -4 -1 13 56 109 81 23 0 -4 -5 -5 -5 -5 -5 -5 -5 -5 -5 -5 -5 -5 -5 -5 -5 -5 -5 -5 -5 -5 -5 -3 2 32 99 90 27 5 0 0 -1 -3 -4 -4 -4 -4 -4 -4 -5 -5 -4 1 29 93 93 29 1 -4 -5 -5 -5 -5 -5 -5 -5 -5 -5 -5 -5 -3 7 47 109 74 17 -1 -4 -5 -5 -5 -4 1 25 82 109 57 19 28 91 
90 24 0 -4 -5 -5 -5 -5 -5 -5 -5 -5 -5 -4 0 25 91 91 25 0 -4 -4 -3 7 42 101 101 42 7 -3 -5 -5 -5 -5 -5 -5 -5 -5 -5 -5 -5 -5 -5 -5 -5 -5 -5 -5 -5 -5 -5 -4 -2 5 35 105 108 50 29 24 22 17 7 1 0 0 0 0 -1 -3 -3 -2 8 49 109 75 18 0 -4 -5 -5 -5 -5 -5 -5 -5 -5 -5 -5 -4 -1 17 74 109 47 7 -3 -5 -5 -5 -4 -1 13 56 109 82 26 7 25 90 
90 24 0 -4 -5 -5 -5 -5 -5 -5 -5 -5 -5 -4 0 22 86 97 30 1 -4 -4 0 23 81 109 56 13 -1 -4 -5 -5 -5 -5 -5 -5 -5 -5 -5 -5 -5 -5 -5 -5 -5 -5 -5 -5 -5 -5 -4 -1 7 27 65 133 143 108 93 90 86 74 47 30 25 24 24 22 17 7 2 6 27 84 108 45 7 -3 -5 -5 -5 -5 -5 -5 -5 -5 -5 -5 -5 -4 0 23 88 96 30 1 -4 -5 -5 -5 -2 7 42 101 101 43 8 2 24 90 
90 24 0 -4 -5 -5 -5 -5 -5 -5 -5 -5 -5 -4 -1 17 74 109 47 7 -2 -2 8 47 108 83 25 1 -4 -5 -5 -5 -5 -5 -5 -5 -5 -5 -5 -5 -5 -5 -5 -5 -5 -5 -5 -5 -4 -2 1 13 43 83 114 122 107 94 91 92 97 109 109 97 92 90 89 86 74 47 32 35 66 115 84 23 0 -4 -5 -5 -5 -5 -5 -5 -5 -5 -5 -5 -5 -4 1 30 96 88 23 0 -4 -5 -5 -4 1 25 82 109 56 13 0 0 24 90 
90 24 0 -4 -5 -5 -5 -5 -5 -5 -5 -5 -5 -5 -3 7 47 109 74 17 0 1 23 82 108 47 8 -2 -5 -5 -5 -5 -5 -5 -5 -5 -5 -5 -5 -5 -5 -5 -5 -5 -5 -5 -5 -4 -1 7 25 56 101 109 84 50 31 25 24 25 30 47 74 86 89 90 92 97 109 110 99 105 133 130 56 10 -2 -5 -5 -5 -5 -5 -5 -5 -5 -5 -5 -5 -5 -3 7 47 109 74 17 -1 -4 -5 -4 -1 13 56 109 82 25 1 -3 0 24 90 
90 24 0 -4 -5 -5 -5 -5 -5 -5 -5 -5 -5 -5 -4 1 30 97 86 22 2 9 47 108 82 23 0 -4 -5 -5 -5 -5 -5 -5 -5 -5 -5 -5 -5 -5 -5 -5 -5 -5 -5 -4 -2 1 13 42 82 109 101 56 25 8 2 0 0 0 1 7 17 22 24 24 25 30 47 74 89 103 133 130 56 10 -2 -4 -5 -5 -5 -5 -5 -5 -5 -5 -5 -5 -4 -1 17 74 109 47 7 -3 -5 -5 -2 7 42 101 101 42 7 -2 -4 0 24 90 
90 24 0 -4 -5 -5 -5 -5 -5 -5 -5 -5 -5 -5 -4 0 25 91 91 26 7 26 83 108 47 8 -2 -5 -5 -5 -5 -5 -5 -5 -5 -5 -5 -5 -5 -5 -5 -5 -5 -5 -4 -1 7 25 56 101 109 82 42 13 1 -2 -4 -4 -4 -4 -4 -3 -1 0 0 0 0 1 7 17 24 34 65 115 85 26 2 -3 -4 -5 -5 -5 -5 -5 -5 -5 -5 -5 -4 0 23 88 96 30 1 -4 -5 -4 1 25 82 109 56 13 -1 -4 -4 0 24 90 
90 24 0 -4 -5 -5 -5 -5 -5 -5 -5 -5 -5 -5 -4 0 22 86 97 34 20 57 109 81 23 0 -4 -5 -5 -5 -5 -5 -5 -5 -5 -5 -5 -5 -5 -5 -5 -5 -5 -4 0 12 42 82 109 101 56 25 7 -1 -4 -5 -5 -5 -5 -5 -5 -5 -4 -4 -4 -4 -4 -4 -3 -1 0 5 27 83 110 58 17 2 -2 -4 -4 -4 -4 -4 -4 -4 -4 -4 -3 2 30 96 88 23 0 -4 -4 -1 13 56 109 82 25 1 -4 -5 -4 0 24 90 
90 24 0 -4 -5 -5 -5 -5 -5 -5 -5 -5 -5 -5 -4 -1 17 74 111 58 54 103 101 42 7 -3 -5 -5 -5 -5 -5 -5 -5 -5 -5 -5 -5 -5 -5 -5 -5 -4 -2 2 15 52 101 109 82 42 13 1 -2 -4 -5 -5 -5 -5 -5 -5 -5 -5 -5 -5 -5 -5 -5 -5 -5 -4 -4 -2 7 43 102 107 59 26 8 2 0 0 0 0 0 0 0 0 2 12 51 111 76 18 0 -4 -2 7 42 101 101 42 7 -2 -5 -5 -4 0 24 90 
90 24 0 -4 -5 -5 -5 -5 -5 -5 -5 -5 -5 -5 -5 -3 7 47 112 98 100 111 56 13 -1 -4 -5 -5 -5 -5 -5 -5 -5 -5 -5 -5 -5 -5 -5 -5 -4 -1 7 25 57 104 104 57 25 7 -1 -4 -5 -5 -5 -5 -5 -5 -5 -5 -5 -5 -5 -5 -5 -5 -5 -5 -5 -5 -5 -4 -1 14 59 124 128 87 49 30 25 24 24 24 24 24 24 24 28 44 94 122 57 12 0 -2 2 25 82 109 56 13 -1 -4 -5 -5 -4 0 24 90 
90 24 0 -4 -5 -5 -5 -5 -5 -5 -5 -5 -5 -5 -5 -4 1 30 101 127 126 84 25 1 -4 -5 -5 -5 -5 -5 -5 -5 -5 -5 -5 -5 -5 -5 -4 -2 1 13 42 82 109 101 52 15 2 -2 -4 -5 -5 -5 -5 -5 -5 -5 -5 -5 -5 -5 -5 -5 -5 -5 -5 -5 -5 -5 -5 -5 -3 3 34 109 147 126 112 97 92 90 90 90 90 90 90 91 93 106 140 138 71 29 9 4 15 57 109 82 25 1 -4 -5 -5 -5 -4 0 24 90 
90 24 0 -4 -5 -5 -5 -5 -5 -5 -5 -5 -5 -5 -5 -4 0 25 97 149 118 48 8 -2 -5 -5 -5 -5 -5 -5 -5 -5 -5 -5 -5 -5 -5 -4 -1 7 25 56 101 109 82 42 12 0 -4 -5 -5 -5 -5 -5 -5 -5 -5 -5 -5 -5 -5 -5 -5 -5 -5 -5 -5 -5 -5 -5 -5 -5 -4 2 32 102 109 71 78 87 90 90 90 90 90 90 90 90 91 94 107 123 114 84 49 34 52 104 102 43 7 -2 -5 -5 -5 -5 -4 0 24 90 
90 24 0 -4 -5 -5 -5 -5 -5 -5 -5 -5 -5 -5 -5 -4 0 24 98 152 87 23 0 -4 -5 -5 -5 -5 -5 -5 -5 -5 -5 -5 -5 -4 -3 1 13 42 82 109 101 56 25 7 -1 -4 -5 -5 -5 -5 -5 -5 -5 -5 -5 -5 -5 -5 -5 -5 -5 -5 -5 -5 -5 -5 -5 -5 -5 -5 -3 7 47 110 79 29 21 22 24 24 24 24 24 24 24 24 24 25 31 49 83 108 111 100 112 119 59 14 -1 -4 -5 -5 -5 -5 -4 0 24 90 
90 24 0 -4 -5 -5 -5 -5 -5 -5 -5 -5 -5 -5 -5 -4 0 24 95 125 50 8 -2 -5 -5 -5 -5 -5 -5 -5 -5 -5 -5 -4 -4 -1 7 25 56 102 110 83 43 14 2 -2 -4 -5 -5 -5 -5 -5 -5 -5 -5 -5 -5 -5 -5 -5 -5 -5 -5 -5 -5 -5 -5 -5 -5 -5 -5 -4 -1 17 74 110 48 9 0 0 0 0 0 0 0 0 0 0 0 0 2 8 23 47 84 119 152 117 41 6 -3 -5 -5 -5 -5 -5 -4 0 24 90 
90 24 0 -4 -5 -5 -5 -5 -5 -5 -5 -5 -5 -5 -5 -4 0 24 92 100 31 2 -4 -5 -5 -5 -5 -5 -5 -5 -5 -4 -3 0 2 13 43 86 118 111 63 31 12 2 -2 -3 -4 -4 -5 -5 -5 -5 -5 -5 -5 -5 -5 -5 -5 -5 -5 -5 -5 -5 -5 -5 -5 -5 -5 -5 -5 -4 0 22 86 97 30 2 -3 -4 -4 -4 -4 -4 -4 -4 -4 -4 -4 -4 -4 -2 0 8 26 59 117 123 60 14 -1 -4 -5 -5 -5 -5 -4 0 24 90 
90 24 0 -4 -5 -5 -5 -5 -5 -5 -5 -5 -5 -5 -5 -4 0 25 92 91 25 0 -4 -5 -5 -5 -5 -5 -5 -4 -2 0 7 18 31 58 113 150 141 91 48 32 24 17 7 1 0 -1 -3 -4 -4 -4 -4 -5 -5 -5 -5 -5 -5 -5 -5 -5 -5 -5 -5 -5 -5 -5 -5 -5 -5 -4 0 24 90 91 25 0 -4 -5 -5 -5 -5 -5 -5 -5 -5 -5 -5 -5 -5 -5 -4 -2 2 15 54 106 102 43 7 -2 -5 -5 -5 -5 -4 0 24 90 
90 24 0 -4 -5 -5 -5 -5 -5 -5 -5 -5 -5 -5 -5 -4 1 30 97 86 22 0 -4 -5 -5 -5 -4 -4 -2 0 8 23 45 75 94 114 120 115 122 118 100 92 87 74 47 30 23 17 7 1 0 0 -1 -3 -4 -4 -4 -5 -5 -5 -5 -5 -5 -5 -5 -5 -5 -5 -5 -5 -5 -4 0 25 91 90 24 0 -4 -5 -5 -5 -5 -5 -5 -5 -5 -5 -5 -5 -5 -5 -5 -5 -3 0 15 57 109 82 25 1 -4 -5 -5 -5 -4 0 24 90 
90 24 0 -4 -5 -5 -5 -5 -5 -5 -5 -5 -5 -5 -5 -3 7 47 109 74 17 -1 -4 -5 -4 -3 0 1 8 23 47 82 108 109 94 76 49 37 48 74 87 91 97 109 109 96 88 74 47 30 25 22 17 7 1 0 -1 -3 -4 -4 -4 -4 -5 -5 -5 -5 -5 -5 -5 -5 -5 -4 1 30 97 86 22 0 -4 -5 -5 -5 -5 -5 -5 -5 -5 -5 -5 -5 -5 -5 -5 -5 -5 -3 2 25 82 109 56 13 -1 -4 -5 -5 -4 0 24 90 
90 24 0 -4 -5 -5 -5 -5 -5 -5 -5 -5 -5 -5 -4 -1 17 74 109 47 7 -2 -4 -2 0 7 18 29 49 83 108 108 83 49 29 18 7 3 7 17 22 25 30 47 74 88 96 109 109 97 91 86 74 47 30 23 17 7 1 0 0 -1 -3 -4 -4 -4 -5 -5 -5 -5 -5 -3 7 47 109 74 17 -1 -4 -5 -5 -5 -5 -5 -5 -5 -5 -5 -5 -5 -5 -5 -5 -5 -5 -5 -2 7 42 101 101 42 7 -2 -5 -5 -4 0 24 90 
90 24 0 -4 -5 -5 -5 -5 -5 -5 -5 -5 -5 -5 -4 0 22 86 97 30 2 -1 0 8 23 45 75 93 109 108 82 47 23 8 1 0 -3 -3 -3 -1 0 0 1 7 17 23 30 47 74 86 91 97 109 109 96 88 74 47 30 25 22 17 7 1 0 -1 -3 -4 -4 -4 -4 -1 17 74 109 47 7 -3 -5 -5 -5 -5 -5 -5 -5 -5 -5 -5 -5 -5 -5 -5 -5 -5 -5 -5 -4 -1 13 56 109 82 25 2 -3 -5 -4 0 24 90 
90 24 0 -4 -5 -5 -5 -5 -5 -5 -5 -5 -5 -5 -4 0 25 91 92 27 6 8 23 47 82 108 109 93 75 45 23 8 0 -2 -4 -4 -5 -5 -5 -4 -4 -4 -4 -3 -1 0 1 7 17 22 25 30 47 74 88 96 109 109 97 91 86 74 47 30 23 17 7 1 0 0 0 1 23 87 97 30 1 -4 -5 -5 -5 -5 -5 -5 -5 -5 -5 -5 -5 -5 -5 -5 -5 -5 -5 -5 -5 -4 1 25 82 109 57 15 0 -4 -4 0 24 90 
90 24 0 -4 -5 -5 -5 -5 -5 -5 -5 -5 -5 -5 -4 2 30 98 92 36 28 48 82 108 108 83 49 29 18 7 0 -2 -4 -5 -5 -5 -5 -5 -5 -5 -5 -5 -5 -5 -4 -4 -4 -3 -1 0 0 1 7 17 23 30 47 74 86 91 97 109 109 96 88 74 47 30 25 22 17 12 30 93 92 25 0 -4 -5 -5 -5 -5 -5 -5 -5 -5 -5 -5 -5 -5 -5 -5 -5 -5 -5 -5 -5 -5 -2 7 42 101 104 52 12 -1 -3 0 24 90 
90 24 0 -4 -5 -5 -5 -5 -5 -5 -5 -5 -5 -5 -2 8 49 119 103 69 86 108 108 82 47 23 8 1 0 -3 -4 -5 -5 -5 -5 -5 -5 -5 -5 -5 -5 -5 -5 -5 -5 -5 -5 -5 -4 -4 -4 -4 -3 -1 0 1 7 17 22 25 30 47 74 88 96 109 109 97 91 86 75 52 57 108 93 24 0 -4 -5 -5 -5 -5 -5 -5 -5 -5 -5 -5 -5 -5 -5 -5 -5 -5 -5 -5 -5 -5 -4 -1 12 52 104 101 42 7 -2 0 24 90 
90 24 0 -4 -5 -5 -5 -5 -5 -5 -5 -5 -5 -4 0 23 88 150 131 117 108 82 47 23 8 0 -2 -4 -4 -5 -5 -5 -5 -5 -5 -5 -5 -5 -5 -5 -5 -5 -5 -5 -5 -5 -5 -5 -5 -5 -5 -5 -5 -4 -4 -4 -3 -1 0 0 1 7 17 23 30 47 74 86 91 97 110 113 115 143 97 24 0 -4 -5 -5 -5 -5 -5 -5 -5 -5 -5 -5 -5 -5 -5 -5 -5 -5 -5 -5 -5 -5 -5 -4 0 15 57 109 82 25 2 1 24 90 
90 24 0 -4 -5 -5 -5 -5 -5 -5 -5 -5 -5 -2 8 48 117 131 101 77 45 23 8 0 -2 -4 -5 -5 -5 -5 -5 -5 -5 -5 -5 -5 -5 -5 -5 -5 -5 -5 -5 -5 -5 -5 -5 -5 -5 -5 -5 -5 -5 -5 -5 -5 -5 -4 -4 -4 -4 -3 -1 0 1 7 17 22 25 30 47 78 106 142 97 24 0 -4 -5 -5 -5 -5 -5 -5 -5 -5 -5 -5 -5 -5 -5 -5 -5 -5 -5 -5 -5 -5 -5 -5 -4 2 25 82 109 57 16 5 25 90 
90 24 0 -4 -5 -5 -5 -5 -5 -5 -5 -5 -4 1 25 84 113 65 32 18 7 0 -2 -4 -5 -5 -5 -5 -5 -5 -5 -5 -5 -5 -5 -5 -5 -5 -5 -5 -5 -5 -5 -5 -5 -5 -5 -5 -5 -5 -5 -5 -5 -5 -5 -5 -5 -5 -5 -5 -5 -5 -4 -4 -4 -3 -1 0 0 2 7 22 49 107 92 24 0 -4 -5 -5 -5 -5 -5 -5 -5 -5 -5 -5 -5 -5 -5 -5 -5 -5 -5 -5 -5 -5 -5 -5 -5 -2 7 42 101 104 52 18 28 91 
90 24 0 -4 -5 -5 -5 -5 -5 -5 -5 -4 -1 13 56 109 83 27 5 0 -3 -4 -5 -5 -5 -5 -5 -5 -5 -5 -5 -5 -5 -5 -5 -5 -5 -5 -5 -5 -5 -5 -5 -5 -5 -5 -5 -5 -5 -5 -5 -5 -5 -5 -5 -5 -5 -5 -5 -5 -5 -5 -5 -5 -5 -5 -4 -4 -4 -4 -2 4 29 93 91 24 0 -4 -5 -5 -5 -5 -5 -5 -5 -5 -5 -5 -5 -5 -5 -5 -5 -5 -5 -5 -5 -5 -5 -5 -5 -4 -1 12 52 104 101 47 36 92 
91 24 0 -4 -5 -5 -5 -5 -5 -5 -5 -2 7 42 101 101 43 7 -2 -4 -5 -5 -5 -5 -5 -5 -5 -5 -5 -5 -5 -5 -5 -5 -5 -5 -5 -5 -5 -5 -5 -5 -5 -5 -5 -5 -5 -5 -5 -5 -5 -5 -5 -5 -5 -5 -5 -5 -5 -5 -5 -5 -5 -5 -5 -5 -5 -5 -5 -5 -4 0 24 91 90 24 0 -4 -5 -5 -5 -5 -5 -5 -5 -5 -5 -5 -5 -5 -5 -5 -5 -5 -5 -5 -5 -5 -5 -5 -5 -5 -4 0 15 57 110 87 53 96 
91 24 0 -4 -5 -5 -5 -5 -5 -5 -3 2 25 82 109 56 13 -1 -4 -5 -5 -5 -5 -5 -5 -5 -5 -5 -5 -5 -5 -5 -5 -5 -5 -5 -5 -5 -5 -5 -5 -5 -5 -5 -5 -5 -5 -5 -5 -5 -5 -5 -5 -5 -5 -5 -5 -5 -5 -5 -5 -5 -5 -5 -5 -5 -5 -5 -5 -5 -4 0 24 90 92 25 0 -4 -5 -5 -5 -5 -5 -5 -5 -5 -5 -5 -5 -5 -5 -5 -5 -5 -5 -5 -5 -5 -5 -5 -5 -5 -5 -4 2 25 82 113 83 105 
93 24 0 -4 -5 -5 -5 -5 -5 -4 0 15 57 110 83 26 2 -3 -5 -5 -5 -5 -5 -5 -5 -5 -5 -5 -5 -5 -5 -5 -5 -5 -5 -5 -5 -5 -5 -5 -5 -5 -5 -5 -5 -5 -5 -5 -5 -5 -5 -5 -5 -5 -5 -5 -5 -5 -5 -5 -5 -5 -5 -5 -5 -5 -5 -5 -5 -5 -4 0 24 89 99 33 3 -3 -4 -5 -5 -5 -5 -5 -5 -5 -5 -5 -5 -5 -5 -5 -5 -5 -5 -5 -5 -5 -5 -5 -5 -5 -5 -5 -2 7 42 103 122 127 
96 24 0 -4 -5 -5 -5 -5 -4 0 14 53 106 105 47 12 1 -2 -4 -4 -4 -4 -4 -4 -4 -4 -4 -4 -4 -5 -5 -5 -5 -5 -5 -5 -5 -5 -5 -5 -5 -5 -5 -5 -5 -5 -5 -5 -5 -5 -5 -5 -5 -5 -5 -5 -5 -5 -5 -5 -5 -5 -5 -5 -5 -5 -5 -5 -5 -4 -2 4 28 92 122 61 17 2 -2 -4 -5 -5 -5 -5 -5 -5 -5 -5 -5 -5 -5 -5 -5 -5 -5 -5 -5 -5 -5 -5 -5 -5 -5 -5 -4 -1 13 57 120 149 
98 24 0 -4 -5 -5 -5 -4 0 14 53 111 123 78 41 26 17 7 1 0 0 0 0 0 0 0 0 0 -1 -3 -4 -4 -4 -4 -4 -4 -4 -4 -4 -4 -5 -5 -5 -5 -5 -5 -5 -5 -5 -5 -5 -5 -5 -5 -5 -5 -5 -5 -5 -5 -5 -5 -5 -5 -5 -5 -5 -5 -4 -1 7 25 56 112 152 118 59 26 8 0 -3 -4 -5 -5 -5 -5 -5 -5 -5 -5 -5 -5 -5 -5 -5 -5 -5 -5 -5 -5 -5 -5 -5 -5 -5 -4 1 25 88 152 
95 24 0 -4 -5 -5 -4 0 14 53 115 153 133 106 94 87 74 47 30 25 24 24 24 24 24 24 23 22 17 7 1 0 0 0 0 0 0 0 0 -1 -3 -4 -4 -4 -4 -4 -4 -4 -4 -4 -4 -4 -5 -5 -5 -5 -5 -5 -5 -5 -5 -5 -5 -5 -5 -5 -4 -2 1 13 42 82 110 118 115 121 112 83 47 23 7 -1 -4 -5 -5 -5 -5 -5 -5 -5 -5 -5 -5 -5 -5 -5 -5 -5 -5 -5 -5 -5 -5 -5 -5 -5 -2 8 50 125 
92 24 0 -4 -5 -4 0 14 52 105 122 108 96 92 92 97 109 109 97 92 90 90 90 90 90 90 89 86 74 47 30 25 24 24 24 24 24 23 22 17 7 1 0 0 0 0 0 0 0 0 0 -1 -3 -4 -4 -4 -4 -4 -4 -4 -4 -4 -4 -5 -4 -3 0 8 25 56 101 109 84 50 37 51 83 108 108 81 42 13 1 -2 -4 -5 -5 -5 -5 -5 -5 -5 -5 -5 -5 -5 -5 -5 -5 -5 -5 -5 -5 -5 -5 -5 -4 2 31 100 
91 24 0 -4 -3 0 14 52 103 104 59 33 25 24 25 30 47 74 86 89 90 90 90 90 90 90 92 97 109 109 97 92 90 90 90 90 90 89 86 74 47 30 25 24 24 24 24 24 24 23 22 17 7 1 0 0 0 0 0 0 0 0 -1 -2 0 7 23 47 83 109 101 56 25 9 4 8 23 47 83 109 101 56 25 8 0 -3 -4 -5 -5 -5 -5 -5 -5 -5 -5 -5 -5 -5 -5 -5 -5 -5 -5 -5 -5 -5 -4 0 25 92 
90 24 0 -2 2 15 53 103 103 53 16 3 0 0 0 1 7 17 22 23 24 24 24 24 24 24 25 30 47 74 86 89 90 90 90 90 90 92 97 109 109 97 92 90 90 90 90 90 90 89 86 74 47 30 25 24 24 24 24 24 24 22 17 10 15 43 81 108 108 81 42 13 1 -2 -3 -2 0 8 25 56 101 109 83 47 23 7 -1 -4 -5 -5 -5 -5 -5 -5 -5 -5 -5 -5 -5 -5 -5 -5 -5 -5 -5 -5 -4 0 24 90 
90 25 4 8 25 57 104 103 52 14 0 -3 -4 -4 -4 -4 -3 -1 0 0 0 0 0 0 0 0 0 1 7 17 22 23 24 24 24 24 24 25 30 47 74 86 89 90 90 90 90 90 90 92 97 109 109 97 92 90 90 90 90 90 89 86 76 56 65 103 110 83 47 23 7 -1 -4 -5 -5 -5 -4 -2 1 13 42 81 108 108 81 42 13 1 -2 -4 -5 -5 -5 -5 -5 -5 -5 -5 -5 -5 -5 -5 -5 -5 -5 -5 -4 0 24 90 
91 29 18 43 82 109 101 51 14 0 -4 -5 -5 -5 -5 -5 -5 -4 -4 -4 -4 -4 -4 -4 -4 -4 -4 -4 -3 -1 0 0 0 0 0 0 0 0 1 7 17 22 23 24 24 24 24 24 24 25 30 47 74 86 89 90 90 90 90 90 92 98 116 130 132 108 58 26 8 0 -3 -4 -5 -5 -5 -5 -5 -5 -4 -1 7 23 47 83 109 101 56 25 8 0 -3 -4 -5 -5 -5 -5 -5 -5 -5 -5 -5 -5 -5 -5 -5 -5 -4 0 24 90 
94 43 56 101 109 82 42 12 0 -4 -5 -5 -5 -5 -5 -5 -5 -5 -5 -5 -5 -5 -5 -5 -5 -5 -5 -5 -5 -4 -4 -4 -4 -4 -4 -4 -4 -4 -4 -3 -1 0 0 0 0 0 0 0 0 0 1 7 17 22 23 24 24 24 24 24 26 34 67 133 132 61 17 2 -2 -4 -5 -5 -5 -5 -5 -5 -5 -5 -5 -4 -3 0 8 25 56 101 109 83 47 23 7 -1 -4 -5 -5 -5 -5 -5 -5 -5 -5 -5 -5 -5 -5 -5 -4 0 24 90 
106 79 107 104 57 25 7 -1 -4 -5 -5 -5 -5 -5 -5 -5 -5 -5 -5 -5 -5 -5 -5 -5 -5 -5 -5 -5 -5 -5 -5 -5 -5 -5 -5 -5 -5 -5 -5 -5 -4 -4 -4 -4 -4 -4 -4 -4 -4 -4 -4 -3 -1 0 0 0 0 0 0 0 1 7 34 103 103 33 3 -3 -4 -5 -5 -5 -5 -5 -5 -5 -5 -5 -5 -5 -5 -4 -2 1 13 42 81 108 108 81 42 13 1 -2 -4 -5 -5 -5 -5 -5 -5 -5 -5 -5 -5 -5 -4 0 24 91 
132 124 105 53 15 2 -2 -4 -5 -5 -5 -5 -5 -5 -5 -5 -5 -5 -5 -5 -5 -5 -5 -5 -5 -5 -5 -5 -5 -5 -5 -5 -5 -5 -5 -5 -5 -5 -5 -5 -5 -5 -5 -5 -5 -5 -5 -5 -5 -5 -5 -5 -4 -4 -4 -4 -4 -4 -4 -4 -3 1 26 93 93 25 0 -4 -5 -5 -5 -5 -5 -5 -5 -5 -5 -5 -5 -5 -5 -5 -5 -4 -1 7 23 47 83 109 101 56 25 8 0 -2 -4 -5 -5 -5 -5 -5 -5 -5 -5 -5 -4 0 24 94 
154 113 53 14 0 -3 -5 -5 -5 -5 -5 -5 -5 -5 -5 -5 -5 -5 -5 -5 -5 -5 -5 -5 -5 -5 -5 -5 -5 -5 -5 -5 -5 -5 -5 -5 -5 -5 -5 -5 -5 -5 -5 -5 -5 -5 -5 -5 -5 -5 -5 -5 -5 -5 -5 -5 -5 -5 -5 -5 -4 0 24 91 91 24 0 -4 -5 -5 -5 -5 -5 -5 -5 -5 -5 -5 -5 -5 -5 -5 -5 -5 -4 -3 0 8 25 56 101 109 83 47 23 8 0 -3 -4 -5 -5 -5 -5 -5 -5 -5 -4 0 24 98 
129 61 16 0 -4 -5 -5 -5 -5 -5 -5 -5 -5 -5 -5 -5 -5 -5 -5 -5 -5 -5 -5 -5 -5 -5 -5 -5 -5 -5 -5 -5 -5 -5 -5 -5 -5 -5 -5 -5 -5 -5 -5 -5 -5 -5 -5 -5 -5 -5 -5 -5 -5 -5 -5 -5 -5 -5 -5 -5 -4 0 24 90 90 24 0 -4 -5 -5 -5 -5 -5 -5 -5 -5 -5 -5 -5 -5 -5 -5 -5 -5 -5 -5 -4 -2 1 13 42 81 108 108 82 47 23 7 -1 -4 -5 -5 -5 -5 -5 -5 -4 0 24 96 
101 33 3 -3 -5 -5 -5 -5 -5 -5 -5 -5 -5 -5 -5 -5 -5 -5 -5 -5 -5 -5 -5 -5 -5 -5 -5 -5 -5 -5 -5 -5 -5 -5 -5 -5 -5 -5 -5 -5 -5 -5 -5 -5 -5 -5 -5 -5 -5 -5 -5 -5 -5 -5 -5 -5 -5 -5 -5 -5 -4 0 24 90 90 24 0 -4 -5 -5 -5 -5 -5 -5 -5 -5 -5 -5 -5 -5 -5 -5 -5 -5 -5 -5 -5 -5 -4 -1 7 23 47 82 108 108 81 42 13 1 -2 -4 -4 -4 -5 -5 -4 0 24 92 
92 25 0 -4 -5 -5 -5 -5 -5 -5 -5 -5 -5 -5 -5 -5 -5 -5 -5 -5 -5 -5 -5 -5 -5 -5 -5 -5 -5 -5 -5 -5 -5 -5 -5 -5 -5 -5 -5 -5 -5 -5 -5 -5 -5 -5 -5 -5 -5 -5 -5 -5 -5 -5 -5 -5 -5 -5 -5 -5 -4 0 24 90 90 24 0 -4 -5 -5 -5 -5 -5 -5 -5 -5 -5 -5 -5 -5 -5 -5 -5 -5 -5 -5 -5 -5 -5 -4 -3 0 8 23 47 83 109 102 56 25 8 2 0 -1 -3 -4 -3 0 24 91 
91 24 0 -4 -5 -5 -5 -5 -5 -5 -5 -5 -5 -5 -5 -5 -5 -5 -5 -5 -5 -5 -5 -5 -5 -5 -5 -5 -5 -5 -5 -5 -5 -5 -5 -5 -5 -5 -5 -5 -5 -5 -5 -5 -5 -5 -5 -5 -5 -5 -5 -5 -5 -5 -5 -5 -5 -5 -5 -5 -4 0 24 90 90 24 0 -4 -5 -5 -5 -5 -5 -5 -5 -5 -5 -5 -5 -5 -5 -5 -5 -5 -5 -5 -5 -5 -5 -5 -5 -4 -2 1 9 26 58 106 114 87 50 30 23 17 7 1 0 4 26 91 
91 24 0 -4 -5 -5 -5 -5 -5 -5 -5 -5 -5 -5 -5 -5 -5 -5 -5 -5 -5 -5 -5 -5 -5 -5 -5 -5 -5 -5 -5 -5 -5 -5 -5 -5 -5 -5 -5 -5 -5 -5 -5 -5 -5 -5 -5 -5 -5 -5 -5 -5 -5 -5 -5 -5 -5 -5 -5 -5 -4 0 24 90 90 24 0 -4 -5 -5 -5 -5 -5 -5 -5 -5 -5 -5 -5 -5 -5 -5 -5 -5 -5 -5 -5 -5 -5 -5 -5 -4 -4 -2 1 8 27 70 122 150 126 100 88 74 47 30 24 22 36 95 
93 25 0 -3 -4 -4 -4 -4 -4 -5 -5 -5 -5 -5 -5 -5 -5 -5 -5 -5 -5 -5 -5 -5 -5 -5 -5 -5 -5 -5 -5 -5 -5 -5 -5 -5 -5 -5 -5 -5 -5 -5 -5 -5 -5 -5 -5 -5 -5 -5 -5 -5 -5 -5 -5 -5 -5 -5 -5 -5 -4 0 24 90 90 24 0 -4 -5 -5 -5 -5 -5 -5 -5 -5 -5 -5 -5 -5 -5 -5 -5 -5 -5 -5 -5 -5 -5 -4 -4 -2 0 7 18 30 52 93 126 126 106 95 97 109 109 96 88 79 73 112 
100 29 5 0 0 0 0 0 -1 -3 -4 -4 -4 -4 -4 -4 -4 -5 -5 -5 -5 -5 -5 -5 -5 -5 -5 -5 -5 -5 -5 -5 -5 -5 -5 -5 -5 -5 -5 -5 -5 -5 -5 -5 -5 -5 -5 -5 -5 -5 -5 -5 -5 -5 -5 -5 -5 -5 -5 -5 -4 0 24 90 90 24 0 -4 -5 -5 -5 -5 -5 -5 -5 -5 -5 -5 -5 -5 -5 -5 -5 -5 -5 -5 -5 -4 -3 0 1 8 23 45 75 94 110 108 84 50 31 26 30 47 74 88 96 112 127 148 
114 51 29 25 24 24 23 22 17 7 1 0 0 0 0 0 -1 -3 -4 -4 -4 -4 -4 -4 -4 -4 -5 -5 -5 -5 -5 -5 -5 -5 -5 -5 -5 -5 -5 -5 -5 -5 -5 -5 -5 -5 -5 -5 -5 -5 -5 -5 -5 -5 -5 -5 -5 -5 -5 -5 -4 0 24 90 90 24 0 -4 -5 -5 -5 -5 -5 -5 -5 -5 -5 -5 -5 -5 -5 -5 -5 -5 -4 -4 -2 0 7 18 29 49 83 108 109 93 75 45 23 8 2 0 2 7 17 23 30 51 94 142 
145 109 94 91 90 90 89 86 74 47 30 25 24 24 24 22 17 7 1 0 0 0 0 0 0 -1 -3 -4 -4 -4 -4 -4 -4 -4 -5 -5 -5 -5 -5 -5 -5 -5 -5 -5 -5 -5 -5 -5 -5 -5 -5 -5 -5 -5 -5 -5 -5 -5 -5 -5 -4 0 24 90 90 24 0 -4 -5 -5 -5 -5 -5 -5 -5 -5 -5 -5 -5 -5 -5 -5 -4 -3 0 1 8 23 45 75 93 109 108 83 49 29 18 7 0 -2 -4 -4 -4 -3 -1 0 2 12 44 113 
143 109 94 91 90 90 92 97 109 109 97 92 90 90 89 86 74 47 30 25 24 24 24 23 22 17 7 1 0 0 0 0 0 -1 -3 -4 -4 -4 -4 -4 -4 -4 -4 -5 -5 -5 -5 -5 -5 -5 -5 -5 -5 -5 -5 -5 -5 -5 -5 -5 -4 0 24 90 90 24 0 -4 -5 -5 -5 -5 -5 -5 -5 -5 -5 -5 -5 -5 -4 -2 0 7 18 29 49 83 108 109 93 75 45 23 8 1 0 -3 -4 -5 -5 -5 -5 -5 -4 -4 -3 2 28 100 
107 51 29 25 24 24 25 30 47 74 86 89 90 90 92 97 109 109 97 92 90 90 90 89 86 74 47 30 25 24 24 24 22 17 7 1 0 0 0 0 0 0 -1 -3 -4 -4 -4 -4 -4 -4 -4 -5 -5 -5 -5 -5 -5 -5 -5 -5 -4 0 24 90 90 24 0 -4 -5 -5 -5 -5 -5 -5 -5 -5 -5 -4 -4 -2 0 8 23 45 75 93 109 108 83 49 29 18 7 0 -2 -4 -4 -5 -5 -5 -5 -5 -5 -5 -5 -5 -4 0 24 93 
93 29 5 0 0 0 0 1 7 17 22 24 24 24 25 30 47 74 86 89 90 90 90 92 97 109 109 97 92 90 90 89 86 74 47 30 25 24 24 24 23 22 17 7 1 0 0 0 0 0 -1 -3 -4 -4 -4 -4 -4 -4 -4 -4 -4 0 24 90 90 24 0 -4 -5 -5 -5 -5 -5 -5 -5 -4 -3 0 1 8 23 47 82 108 109 93 75 45 23 8 1 0 -3 -4 -5 -5 -5 -5 -5 -5 -5 -5 -5 -5 -5 -5 -4 0 24 91 
91 25 0 -3 -4 -4 -4 -4 -3 -1 0 0 0 0 0 1 7 17 22 23 24 24 24 25 30 47 74 86 89 90 90 92 97 109 109 97 92 90 90 90 89 86 74 47 30 25 24 24 24 22 17 7 1 0 0 0 0 0 0 -1 -2 1 25 91 91 24 0 -4 -5 -5 -5 -5 -4 -4 -2 0 7 18 29 49 83 108 108 83 49 29 18 7 0 -2 -4 -4 -5 -5 -5 -5 -5 -5 -5 -5 -5 -5 -5 -5 -5 -5 -4 0 24 90 
90 24 0 -4 -5 -5 -5 -5 -5 -4 -4 -4 -4 -4 -4 -4 -3 -1 0 0 0 0 0 0 1 7 17 22 24 24 24 25 30 47 74 86 89 90 90 90 92 97 109 109 97 92 90 90 89 86 74 47 30 25 24 24 24 23 22 17 7 7 29 94 93 25 0 -4 -5 -5 -4 -3 0 1 8 23 45 75 93 109 108 82 47 23 8 1 0 -3 -4 -5 -5 -5 -5 -5 -5 -5 -5 -5 -5 -5 -5 -5 -5 -5 -5 -5 -4 0 24 90 
90 24 0 -4 -5 -5 -5 -5 -5 -5 -5 -5 -5 -5 -5 -5 -5 -4 -4 -4 -4 -4 -4 -4 -4 -3 -1 0 0 0 0 0 1 7 17 22 23 24 24 24 25 30 47 74 86 89 90 90 92 97 109 109 97 92 90 90 90 89 86 74 47 35 52 109 104 33 3 -3 -4 -2 0 7 18 29 49 83 108 109 93 75 45 23 8 0 -2 -4 -4 -5 -5 -5 -5 -5 -5 -5 -5 -5 -5 -5 -5 -5 -5 -5 -5 -5 -5 -5 -4 0 24 90 
90 24 0 -4 -5 -5 -5 -5 -5 -5 -5 -5 -5 -5 -5 -5 -5 -5 -5 -5 -5 -5 -5 -5 -5 -5 -4 -4 -4 -4 -4 -4 -4 -3 -1 0 0 0 0 0 0 1 7 17 22 24 24 24 25 30 47 74 86 89 90 90 90 92 97 109 110 100 109 143 132 61 17 4 2 8 23 45 75 93 109 108 83 49 29 18 7 0 -2 -4 -5 -5 -5 -5 -5 -5 -5 -5 -5 -5 -5 -5 -5 -5 -5 -5 -5 -5 -5 -5 -5 -5 -4 0 24 90 
90 24 0 -4 -5 -5 -5 -5 -5 -5 -5 -5 -5 -5 -5 -5 -5 -5 -5 -5 -5 -5 -5 -5 -5 -5 -5 -5 -5 -5 -5 -5 -5 -5 -4 -4 -4 -4 -4 -4 -4 -4 -3 -1 0 0 0 0 0 1 7 17 22 23 24 24 24 25 30 47 74 87 94 107 124 109 60 34 32 49 83 108 109 93 75 45 23 8 1 0 -3 -4 -5 -5 -5 -5 -5 -5 -5 -5 -5 -5 -5 -5 -5 -5 -5 -5 -5 -5 -5 -5 -5 -5 -5 -5 -4 0 24 90 
90 24 0 -4 -5 -5 -5 -5 -5 -5 -5 -5 -5 -5 -5 -5 -5 -5 -5 -5 -5 -5 -5 -5 -5 -5 -5 -5 -5 -5 -5 -5 -5 -5 -5 -5 -5 -5 -5 -5 -5 -5 -5 -4 -4 -4 -4 -4 -4 -4 -3 -1 0 0 0 0 0 0 1 7 17 22 25 33 60 109 124 109 101 111 108 83 49 29 18 7 0 -2 -4 -4 -5 -5 -5 -5 -5 -5 -5 -5 -5 -5 -5 -5 -5 -5 -5 -5 -5 -5 -5 -5 -5 -5 -5 -5 -5 -5 -4 0 24 90 
90 24 0 -4 -5 -5 -5 -5 -5 -5 -5 -5 -5 -5 -5 -5 -5 -5 -5 -5 -5 -5 -5 -5 -5 -5 -5 -5 -5 -5 -5 -5 -5 -5 -5 -5 -5 -5 -5 -5 -5 -5 -5 -5 -5 -5 -5 -5 -5 -5 -5 -4 -4 -4 -4 -4 -4 -4 -4 -3 -1 0 0 3 17 61 132 143 104 77 46 23 8 1 0 -3 -4 -5 -5 -5 -5 -5 -5 -5 -5 -5 -5 -5 -5 -5 -5 -5 -5 -5 -5 -5 -5 -5 -5 -5 -5 -5 -5 -5 -5 -5 -4 0 24 90 
90 24 0 -4 -5 -5 -5 -5 -5 -5 -5 -5 -5 -5 -5 -5 -5 -5 -5 -5 -5 -5 -5 -5 -5 -5 -5 -5 -5 -5 -5 -5 -5 -5 -5 -5 -5 -5 -5 -5 -5 -5 -5 -5 -5 -5 -5 -5 -5 -5 -5 -5 -5 -5 -5 -5 -5 -5 -5 -5 -4 -4 -4 -3 3 33 104 109 49 22 7 0 -2 -4 -4 -5 -5 -5 -5 -5 -5 -5 -5 -5 -5 -5 -5 -5 -5 -5 -5 -5 -5 -5 -5 -5 -5 -5 -5 -5 -5 -5 -5 -5 -5 -5 -4 0 24 90 
91 25 0 -3 -4 -4 -4 -4 -4 -4 -4 -4 -4 -4 -4 -4 -4 -4 -4 -4 -4 -4 -4 -4 -4 -4 -4 -4 -4 -4 -4 -4 -4 -4 -4 -4 -4 -4 -4 -4 -4 -4 -4 -4 -4 -4 -4 -4 -4 -4 -4 -4 -4 -4 -4 -4 -4 -4 -4 -4 -4 -4 -4 -3 1 26 93 94 29 4 -1 -3 -4 -4 -4 -4 -4 -4 -4 -4 -4 -4 -4 -4 -4 -4 -4 -4 -4 -4 -4 -4 -4 -4 -4 -4 -4 -4 -4 -4 -4 -4 -4 -4 -4 -4 -3 0 25 91 
94 29 5 0 0 0 0 0 0 0 0 0 0 0 0 0 0 0 0 0 0 0 0 0 0 0 0 0 0 0 0 0 0 0 0 0 0 0 0 0 0 0 0 0 0 0 0 0 0 0 0 0 0 0 0 0 0 0 0 0 0 0 0 0 5 29 94 94 30 6 1 0 0 0 0 0 0 0 0 0 0 0 0 0 0 0 0 0 0 0 0 0 0 0 0 0 0 0 0 0 0 0 0 0 0 0 0 5 29 94 
110 51 29 25 24 24 24 24 24 24 24 24 24 24 24 24 24 24 24 24 24 24 24 24 24 24 24 24 24 24 24 24 24 24 24 24 24 24 24 24 24 24 24 24 24 24 24 24 24 24 24 24 24 24 24 24 24 24 24 24 24 24 24 25 29 51 109 109 51 29 25 24 24 24 24 24 24 24 24 24 24 24 24 24 24 24 24 24 24 24 24 24 24 24 24 24 24 24 24 24 24 24 24 24 24 24 25 29 51 110 
151 110 94 91 90 90 90 90 90 90 90 90 90 90 90 90 90 90 90 90 90 90 90 90 90 90 90 90 90 90 90 91 94 98 96 92 91 90 90 90 90 90 90 90 90 90 90 91 92 97 97 92 91 90 90 90 90 90 90 90 90 90 90 91 93 107 142 142 107 93 91 90 90 90 90 90 90 90 90 90 90 90 90 90 90 90 90 90 90 90 91 94 98 96 92 91 90 90 90 90 90 90 91 94 98 96 92 94 110 151 
