P2
110 110
255
146 102 89 86 86 86 86 86 86 86 86 86 86 86 86 86 86 86 86 86 86 86 86 86 86 86 86 86 86 86 88 97 125 154 127 96 88 86 86 86 86 86 86 86 86 86 86 88 101 140 140 101 88 86 86 86 86 86 86 86 86 86 86 86 86 88 92 92 88 86 86 86 86 86 86 86 86 86 86 86 86 86 86 86 86 86 86 86 86 87 94 119 154 127 96 88 86 86 86 86 86 87 93 117 154 127 97 90 103 146 
102 40 21 18 18 18 18 18 18 18 18 18 18 18 18 18 18 18 18 18 18 18 18 18 18 18 18 18 18 19 27 58 118 110 51 24 19 18 18 18 18 18 18 18 18 18 18 21 41 104 102 40 21 18 18 18 18 18 18 18 18 18 18 18 18 18 18 18 18 18 18 18 18 18 18 18 18 18 18 18 18 18 18 18 18 18 18 18 18 21 40 98 118 55 25 19 18 18 18 18 18 20 36 91 120 56 26 22 40 102 
89 21 1 -2 -2 -2 -2 -2 -2 -2 -2 -2 -2 -2 -2 -2 -2 -2 -2 -2 -2 -2 -2 -2 -2 -2 -2 -2 -1 2 22 81 110 49 10 0 -2 -2 -2 -2 -2 -2 -2 -2 -2 -2 -1 2 26 98 90 21 1 -2 -2 -2 -2 -2 -2 -2 -2 -2 -2 -2 -2 -2 -2 -2 -2 -2 -2 -2 -2 -2 -2 -2 -2 -2 -2 -2 -2 -2 -2 -2 -2 -2 -2 -2 -1 6 42 110 80 20 1 -1 -2 -2 -2 -2 -1 1 21 87 94 25 2 1 21 89 
86 18 -2 -5 -5 -5 -5 -5 -5 -5 -5 -5 -5 -5 -5 -5 -5 -5 -5 -5 -5 -5 -5 -5 -5 -5 -5 -5 -3 8 49 109 78 19 -1 -5 -5 -5 -5 -5 -5 -5 -5 -5 -5 -5 -4 4 42 124 91 18 -2 -5 -5 -5 -5 -5 -5 -5 -5 -5 -5 -5 -5 -5 -5 -5 -5 -5 -5 -5 -5 -5 -5 -5 -5 -5 -5 -5 -5 -5 -5 -5 -5 -5 -5 -5 -2 13 72 109 41 4 -4 -5 -5 -5 -5 -5 -5 0 23 92 84 17 -1 -1 18 86 
86 18 -2 -5 -6 -6 -6 -6 -6 -6 -6 -6 -6 -6 -6 -6 -6 -6 -6 -6 -6 -6 -6 -6 -6 -6 -5 -4 3 36 101 101 36 3 -4 -5 -6 -6 -6 -6 -6 -6 -6 -6 -6 -5 -1 17 82 154 93 18 -2 -5 -6 -6 -6 -6 -6 -6 -6 -6 -6 -6 -6 -6 -6 -6 -6 -6 -6 -6 -6 -6 -6 -6 -6 -6 -6 -6 -6 -6 -6 -6 -6 -6 -6 -5 -1 22 90 90 22 -1 -5 -6 -6 -6 -6 -5 -4 3 39 109 71 12 -2 -2 18 86 
86 18 -2 -5 -6 -6 -6 -6 -6 -6 -6 -6 -6 -6 -6 -6 -6 -6 -6 -6 -6 -6 -6 -6 -6 -6 -5 -1 19 78 109 48 8 -3 -5 -6 -6 -6 -6 -6 -6 -6 -6 -6 -5 -4 3 40 116 146 91 18 -2 -5 -6 -6 -6 -6 -6 -6 -6 -6 -6 -6 -6 -6 -6 -6 -6 -6 -6 -6 -6 -6 -6 -6 -6 -6 -6 -6 -6 -6 -6 -6 -6 -6 -5 -4 3 41 109 72 13 -3 -5 -6 -6 -6 -6 -5 -3 12 71 109 39 3 -4 -2 18 86 
86 18 -2 -5 -6 -6 -6 -6 -6 -6 -6 -6 -6 -6 -6 -6 -6 -6 -6 -6 -6 -6 -6 -6 -6 -5 -3 8 48 109 78 19 -1 -5 -6 -6 -6 -6 -6 -6 -6 -6 -6 -6 -5 -2 17 79 123 121 89 18 -2 -5 -6 -6 -6 -6 -6 -6 -6 -6 -6 -6 -6 -6 -6 -6 -6 -6 -6 -6 -6 -6 -6 -6 -6 -6 -6 -6 -6 -6 -6 -6 -6 -6 -5 -2 17 79 107 38 2 -4 -5 -6 -6 -6 -6 -5 -2 17 84 92 22 -1 -5 -2 18 86 
86 18 -2 -5 -6 -6 -6 -6 -6 -6 -6 -6 -6 -6 -6 -6 -6 -6 -6 -6 -6 -6 -6 -6 -5 -4 3 36 101 101 36 3 -4 -5 -6 -6 -6 -6 -6 -6 -6 -6 -6 -5 -4 3 40 109 97 102 94 23 -1 -5 -6 -6 -6 -6 -6 -6 -6 -6 -6 -6 -6 -6 -6 -6 -6 -6 -6 -6 -6 -6 -6 -6 -6 -6 -6 -6 -6 -6 -6 -6 -6 -5 -4 2 38 107 79 17 -2 -5 -6 -6 -6 -6 -6 -5 -1 22 92 84 17 -2 -5 -2 18 86 
86 18 -2 -5 -6 -6 -6 -6 -6 -6 -6 -6 -6 -6 -6 -6 -6 -6 -6 -6 -6 -6 -6 -6 -5 -1 19 78 109 48 8 -3 -5 -6 -6 -6 -6 -6 -6 -6 -6 -6 -6 -5 -1 19 79 109 57 79 109 39 3 -4 -5 -6 -6 -6 -6 -6 -6 -6 -6 -6 -6 -6 -6 -6 -6 -6 -6 -6 -6 -6 -6 -6 -6 -6 -6 -6 -6 -6 -6 -6 -6 -5 -3 13 72 109 41 3 -4 -5 -6 -6 -6 -6 -5 -4 3 39 109 71 12 -3 -5 -2 18 86 
86 18 -2 -5 -6 -6 -6 -6 -6 -6 -6 -6 -6 -6 -6 -6 -6 -6 -6 -6 -6 -6 -6 -5 -3 8 48 109 78 19 -1 -5 -6 -6 -6 -6 -6 -6 -6 -6 -6 -6 -5 -3 8 48 109 79 26 43 109 71 12 -3 -5 -6 -6 -6 -6 -6 -6 -6 -6 -6 -6 -6 -6 -6 -6 -6 -6 -6 -6 -6 -6 -6 -6 -6 -6 -6 -6 -6 -6 -6 -6 -5 -1 22 90 90 22 -1 -5 -6 -6 -6 -6 -6 -5 -3 12 71 109 39 3 -4 -5 -2 18 86 
86 18 -2 -5 -6 -6 -6 -6 -6 -6 -6 -6 -6 -6 -6 -6 -6 -6 -6 -6 -6 -6 -5 -4 3 36 101 101 36 3 -4 -5 -6 -6 -6 -6 -6 -6 -6 -6 -6 -5 -4 2 36 101 101 36 7 24 93 83 16 -2 -5 -6 -6 -6 -6 -6 -6 -6 -6 -6 -6 -6 -6 -6 -6 -6 -6 -6 -6 -6 -6 -6 -6 -6 -6 -6 -6 -6 -6 -6 -5 -4 3 41 109 72 13 -3 -5 -6 -6 -6 -6 -6 -5 -2 17 84 92 22 -1 -5 -5 -2 18 86 
86 18 -2 -5 -6 -6 -6 -6 -6 -6 -6 -6 -6 -6 -6 -6 -6 -6 -6 -6 -6 -6 -5 -1 19 78 109 48 8 -3 -5 -6 -6 -6 -6 -6 -6 -6 -6 -6 -6 -5 -2 17 78 109 48 8 0 19 87 86 17 -2 -5 -6 -6 -6 -6 -6 -6 -6 -6 -6 -6 -6 -6 -6 -6 -6 -6 -6 -6 -6 -6 -6 -6 -6 -6 -6 -6 -6 -6 -6 -5 -2 17 79 107 38 2 -4 -5 -6 -6 -6 -6 -6 -5 -1 22 92 84 17 -2 -5 -5 -2 18 86 
88 19 -2 -5 -6 -6 -6 -6 -6 -6 -6 -6 -6 -6 -6 -6 -6 -6 -6 -6 -6 -5 -3 8 48 109 78 19 -1 -5 -6 -6 -6 -6 -6 -6 -6 -6 -6 -6 -5 -4 3 40 107 79 19 0 -1 18 86 86 18 -2 -5 -6 -6 -6 -6 -6 -6 -6 -6 -6 -6 -6 -6 -6 -6 -6 -6 -6 -6 -6 -6 -6 -6 -6 -6 -6 -6 -6 -6 -5 -4 2 38 107 79 17 -2 -5 -6 -6 -6 -6 -6 -5 -4 3 39 109 71 12 -3 -5 -5 -2 18 86 
96 24 0 -5 -6 -6 -6 -6 -6 -6 -6 -6 -6 -6 -6 -6 -6 -6 -6 -6 -5 -4 3 36 101 101 36 3 -4 -5 -6 -6 -6 -6 -6 -6 -6 -6 -6 -6 -5 -2 17 79 107 40 3 -4 -2 17 86 87 18 -2 -5 -6 -6 -6 -6 -6 -6 -6 -6 -6 -6 -6 -6 -6 -6 -6 -6 -6 -6 -6 -6 -6 -6 -6 -6 -6 -6 -6 -6 -5 -3 13 72 109 41 3 -4 -5 -6 -6 -6 -6 -6 -5 -3 12 71 109 39 3 -4 -5 -5 -2 18 87 
127 51 10 -2 -5 -6 -6 -6 -6 -6 -6 -6 -6 -6 -6 -6 -6 -6 -6 -6 -5 -1 19 78 109 48 8 -3 -5 -6 -6 -6 -6 -6 -6 -6 -6 -6 -6 -5 -4 3 40 107 79 17 -1 -5 -2 16 83 93 23 -1 -5 -6 -6 -6 -6 -6 -6 -6 -6 -6 -6 -6 -6 -6 -6 -6 -6 -6 -6 -6 -6 -6 -6 -6 -6 -6 -6 -6 -6 -5 -1 22 90 90 22 -1 -5 -6 -6 -6 -6 -6 -6 -5 -2 17 84 92 22 -1 -5 -6 -5 -2 18 91 
154 110 45 9 -2 -5 -6 -6 -6 -6 -6 -6 -6 -6 -6 -6 -6 -6 -6 -5 -3 8 48 109 78 19 -1 -5 -6 -6 -6 -6 -6 -6 -6 -6 -6 -6 -6 -5 -1 19 79 107 40 3 -4 -5 -3 12 71 109 39 3 -4 -5 -6 -6 -6 -6 -6 -6 -6 -6 -6 -6 -6 -6 -6 -6 -6 -6 -6 -6 -6 -6 -6 -6 -6 -6 -6 -6 -5 -4 3 41 109 72 13 -3 -5 -6 -6 -6 -6 -6 -6 -5 -1 22 92 84 17 -2 -5 -6 -5 -2 18 93 
125 119 103 44 7 -3 -5 -6 -6 -6 -6 -6 -6 -6 -6 -6 -6 -6 -5 -4 3 36 101 101 36 3 -4 -5 -6 -6 -6 -6 -6 -6 -6 -6 -6 -6 -5 -3 8 48 109 78 17 -2 -5 -5 -4 3 39 109 71 12 -3 -5 -6 -6 -6 -6 -6 -6 -6 -6 -6 -6 -6 -6 -6 -6 -6 -6 -6 -6 -6 -6 -6 -6 -6 -6 -6 -6 -5 -2 17 79 107 38 2 -4 -5 -6 -6 -6 -6 -6 -5 -4 3 39 109 71 12 -3 -5 -6 -5 -2 18 89 
98 67 105 100 36 3 -4 -5 -6 -6 -6 -6 -6 -6 -6 -6 -6 -6 -5 -1 19 78 109 48 8 -3 -5 -6 -6 -6 -6 -6 -6 -6 -6 -6 -6 -5 -4 2 36 101 101 36 2 -4 -5 -6 -5 -1 23 93 83 16 -2 -5 -6 -6 -6 -6 -6 -6 -6 -6 -6 -6 -6 -6 -6 -6 -6 -6 -6 -6 -6 -6 -6 -6 -6 -6 -6 -5 -4 2 38 107 79 17 -2 -5 -6 -6 -6 -6 -6 -6 -5 -3 12 71 109 39 3 -4 -5 -6 -5 -2 18 87 
89 33 52 109 78 19 -1 -5 -6 -6 -6 -6 -6 -6 -6 -6 -6 -5 -3 8 48 109 78 19 -1 -5 -6 -6 -6 -6 -6 -6 -6 -6 -6 -6 -6 -5 -2 17 78 109 48 8 -3 -5 -6 -6 -5 -2 18 87 86 17 -2 -5 -6 -6 -6 -6 -6 -6 -6 -6 -6 -6 -6 -6 -6 -6 -6 -6 -6 -6 -6 -6 -6 -6 -6 -6 -6 -5 -3 13 72 109 41 3 -4 -5 -6 -6 -6 -6 -6 -6 -5 -2 17 84 92 22 -1 -5 -6 -6 -5 -2 18 86 
87 22 22 79 109 49 9 -2 -5 -6 -6 -6 -6 -6 -6 -6 -5 -4 3 36 101 101 36 3 -4 -5 -6 -6 -6 -6 -6 -6 -6 -6 -6 -6 -5 -4 3 40 107 79 19 -1 -5 -6 -6 -6 -5 -2 18 86 86 18 -2 -5 -6 -6 -6 -6 -6 -6 -6 -6 -6 -6 -6 -6 -6 -6 -6 -6 -6 -6 -6 -6 -6 -6 -6 -6 -6 -5 -1 22 90 90 22 -1 -5 -6 -6 -6 -6 -6 -6 -6 -5 -1 22 92 84 17 -2 -5 -6 -6 -5 -2 18 86 
86 19 6 36 100 102 45 9 -2 -5 -6 -6 -6 -6 -6 -6 -5 -1 19 78 109 48 8 -3 -5 -6 -6 -6 -6 -6 -6 -6 -6 -6 -6 -6 -5 -2 17 79 107 40 3 -4 -5 -6 -6 -6 -5 -2 17 86 87 18 -2 -5 -6 -6 -6 -6 -6 -6 -6 -6 -6 -6 -6 -6 -6 -6 -6 -6 -6 -6 -6 -6 -6 -6 -6 -6 -5 -4 3 41 109 72 13 -3 -5 -6 -6 -6 -6 -6 -6 -5 -4 3 39 109 71 12 -3 -5 -6 -6 -5 -2 18 86 
86 18 0 7 44 102 102 45 9 -2 -5 -6 -6 -6 -6 -5 -3 8 48 109 78 19 -1 -5 -6 -6 -6 -6 -6 -6 -6 -6 -6 -6 -6 -5 -4 3 40 107 79 17 -2 -5 -6 -6 -6 -6 -5 -2 16 83 93 23 -1 -5 -6 -6 -6 -6 -6 -6 -6 -6 -6 -6 -6 -6 -6 -6 -6 -6 -6 -6 -6 -6 -6 -6 -6 -6 -5 -2 17 79 107 38 2 -4 -5 -6 -6 -6 -6 -6 -6 -5 -3 12 71 109 39 3 -4 -5 -6 -6 -5 -2 18 86 
86 18 -1 -2 9 45 102 102 45 9 -2 -5 -6 -6 -5 -4 3 36 101 101 36 3 -4 -5 -6 -6 -6 -6 -6 -6 -6 -6 -6 -6 -6 -5 -1 19 79 107 40 3 -4 -5 -6 -6 -6 -6 -5 -3 12 71 109 39 3 -4 -5 -6 -6 -6 -6 -6 -6 -6 -6 -6 -6 -6 -6 -6 -6 -6 -6 -6 -6 -6 -6 -6 -6 -5 -4 2 38 107 79 17 -2 -5 -6 -6 -6 -6 -6 -6 -6 -5 -2 17 84 92 22 -1 -5 -6 -6 -6 -5 -2 18 86 
86 18 -2 -5 -2 9 45 102 102 45 9 -2 -5 -5 -5 -1 19 78 109 48 8 -3 -5 -6 -6 -6 -6 -6 -6 -6 -6 -6 -6 -6 -5 -3 8 48 109 78 17 -2 -5 -6 -6 -6 -6 -6 -5 -4 3 39 109 71 12 -3 -5 -6 -6 -6 -6 -6 -6 -6 -6 -6 -6 -6 -6 -6 -6 -6 -6 -6 -6 -6 -6 -6 -6 -5 -3 13 72 109 41 3 -4 -5 -6 -6 -6 -6 -6 -6 -6 -5 -1 22 92 84 17 -2 -5 -6 -6 -6 -5 -2 18 86 
86 18 -2 -5 -5 -2 9 45 102 102 45 9 -2 -5 -3 8 48 109 78 19 -1 -5 -6 -6 -6 -6 -6 -6 -6 -6 -6 -6 -6 -5 -4 2 36 101 101 36 2 -4 -5 -6 -6 -6 -6 -6 -6 -5 -1 23 93 83 16 -2 -5 -6 -6 -6 -6 -6 -6 -6 -6 -6 -6 -6 -6 -6 -6 -6 -6 -6 -6 -6 -6 -6 -6 -5 -1 22 90 90 22 -1 -5 -6 -6 -6 -6 -6 -6 -6 -5 -4 3 39 109 71 12 -3 -5 -6 -6 -6 -5 -2 18 86 
86 18 -2 -5 -5 -5 -2 9 45 102 102 45 9 -1 3 36 101 101 36 3 -4 -5 -6 -6 -6 -6 -6 -6 -6 -6 -6 -6 -6 -5 -2 17 78 109 48 8 -3 -5 -6 -6 -6 -6 -6 -6 -6 -5 -2 18 87 86 18 -2 -5 -6 -6 -6 -6 -6 -6 -6 -6 -6 -6 -6 -6 -6 -6 -6 -6 -6 -6 -6 -6 -6 -5 -4 3 41 109 72 13 -3 -5 -6 -6 -6 -6 -6 -6 -6 -5 -3 12 71 109 39 3 -4 -5 -6 -6 -6 -5 -2 18 86 
86 18 -2 -5 -6 -6 -5 -2 9 45 102 102 46 13 22 79 109 48 8 -3 -5 -6 -6 -6 -6 -6 -6 -6 -6 -6 -6 -6 -5 -4 3 40 107 79 19 -1 -5 -6 -6 -6 -6 -6 -6 -6 -6 -5 -2 18 86 87 18 -2 -5 -6 -6 -6 -6 -6 -6 -6 -6 -6 -6 -6 -6 -6 -6 -6 -6 -6 -6 -6 -6 -6 -5 -2 17 79 107 38 2 -4 -5 -6 -6 -6 -6 -6 -6 -6 -5 -2 17 84 92 22 -1 -5 -6 -6 -6 -6 -5 -2 18 86 
86 18 -2 -5 -6 -6 -6 -5 -2 9 45 102 104 58 61 110 78 19 -1 -5 -6 -6 -6 -6 -6 -6 -6 -6 -6 -6 -6 -6 -5 -2 17 79 107 40 3 -4 -5 -6 -6 -6 -6 -6 -6 -6 -6 -5 -2 16 83 93 23 -1 -5 -6 -6 -6 -6 -6 -6 -6 -6 -6 -6 -6 -6 -6 -6 -6 -6 -6 -6 -6 -6 -5 -4 2 38 107 79 17 -2 -5 -6 -6 -6 -6 -6 -6 -6 -6 -5 -1 22 92 84 17 -2 -5 -6 -6 -6 -6 -5 -2 18 86 
86 18 -2 -5 -6 -6 -6 -6 -5 -2 9 45 105 129 129 103 36 3 -4 -5 -6 -6 -6 -6 -6 -6 -6 -6 -6 -6 -6 -5 -4 3 40 107 79 17 -2 -5 -6 -6 -6 -6 -6 -6 -6 -6 -6 -5 -3 12 71 109 39 3 -4 -5 -6 -6 -6 -6 -6 -6 -6 -6 -6 -6 -6 -6 -6 -6 -6 -6 -6 -6 -6 -5 -3 13 72 109 41 3 -4 -5 -6 -6 -6 -6 -6 -6 -6 -5 -4 3 39 109 71 12 -3 -5 -6 -6 -6 -6 -5 -2 18 86 
86 18 -2 -5 -6 -6 -6 -6 -6 -5 -2 10 51 129 129 51 8 -3 -5 -6 -6 -6 -6 -6 -6 -6 -6 -6 -6 -6 -6 -5 -1 19 79 107 40 3 -4 -5 -6 -6 -6 -6 -6 -6 -6 -6 -6 -5 -4 3 39 109 71 12 -3 -5 -6 -6 -6 -6 -6 -6 -6 -6 -6 -6 -6 -6 -6 -6 -6 -6 -6 -6 -6 -5 -1 22 90 90 22 -1 -5 -6 -6 -6 -6 -6 -6 -6 -6 -5 -3 12 71 109 39 3 -4 -5 -6 -6 -6 -6 -5 -2 18 86 
86 18 -2 -5 -6 -6 -6 -6 -6 -6 -5 0 24 97 98 25 0 -5 -6 -6 -6 -6 -6 -6 -6 -6 -6 -6 -6 -6 -5 -3 8 48 109 78 17 -2 -5 -6 -6 -6 -6 -6 -6 -6 -6 -6 -6 -6 -5 -1 23 93 83 16 -2 -5 -6 -6 -6 -6 -6 -6 -6 -6 -6 -6 -6 -6 -6 -6 -6 -6 -6 -6 -5 -4 3 41 109 72 13 -3 -5 -6 -6 -6 -6 -6 -6 -6 -6 -5 -2 17 84 92 22 -1 -5 -6 -6 -6 -6 -6 -5 -2 18 86 
86 18 -2 -5 -6 -6 -6 -6 -6 -6 -5 -2 17 85 94 23 0 -5 -6 -6 -6 -6 -6 -6 -6 -6 -6 -6 -6 -5 -4 2 36 101 101 36 2 -4 -5 -6 -6 -6 -6 -6 -6 -6 -6 -6 -6 -6 -5 -2 18 87 86 17 -2 -5 -6 -6 -6 -6 -6 -6 -6 -6 -6 -6 -6 -6 -6 -6 -6 -6 -6 -6 -5 -2 17 79 107 38 2 -4 -5 -6 -6 -6 -6 -6 -6 -6 -6 -5 -1 22 92 84 17 -2 -5 -6 -6 -6 -6 -6 -5 -2 18 86 
86 18 -2 -5 -6 -6 -6 -6 -6 -6 -5 -3 12 71 109 39 3 -4 -5 -6 -6 -6 -6 -6 -6 -6 -6 -6 -6 -5 -2 17 78 109 48 8 -3 -5 -6 -6 -6 -6 -6 -6 -6 -6 -6 -6 -6 -6 -5 -2 18 86 86 18 -2 -5 -6 -6 -6 -6 -6 -6 -6 -6 -6 -6 -6 -6 -6 -6 -6 -6 -6 -5 -4 2 38 107 79 17 -2 -5 -6 -6 -6 -6 -6 -6 -6 -6 -5 -4 3 39 109 71 12 -3 -5 -6 -6 -6 -6 -6 -5 -2 18 86 
86 18 -2 -5 -6 -6 -6 -6 -6 -6 -5 -4 3 39 109 71 12 -3 -5 -6 -6 -6 -6 -6 -6 -6 -6 -6 -5 -4 3 40 107 79 19 -1 -5 -6 -6 -6 -6 -6 -6 -6 -6 -6 -6 -6 -6 -6 -5 -2 17 86 87 18 -2 -5 -6 -6 -6 -6 -6 -6 -6 -6 -6 -6 -6 -6 -6 -6 -6 -6 -6 -5 -3 13 72 109 41 3 -4 -5 -6 -6 -6 -6 -6 -6 -6 -6 -5 -3 12 71 109 39 3 -4 -5 -6 -6 -6 -6 -6 -5 -2 18 86 
86 18 -2 -5 -6 -6 -6 -6 -6 -6 -6 -5 -1 22 93 83 16 -2 -5 -6 -6 -6 -6 -6 -6 -6 -6 -6 -5 -2 17 79 107 40 3 -4 -5 -6 -6 -6 -6 -6 -6 -6 -6 -6 -6 -6 -6 -6 -5 -2 16 83 93 23 -1 -5 -6 -6 -6 -6 -6 -6 -6 -6 -6 -6 -6 -6 -6 -6 -6 -6 -6 -5 -1 22 90 90 22 -1 -5 -6 -6 -6 -6 -6 -6 -6 -6 -6 -5 -2 17 84 92 22 -1 -5 -6 -6 -6 -6 -6 -6 -5 -2 18 86 
86 18 -2 -5 -6 -6 -6 -6 -6 -6 -6 -5 -2 18 87 87 18 -2 -5 -6 -6 -6 -6 -6 -6 -6 -6 -5 -4 3 40 107 79 17 -2 -5 -6 -6 -6 -6 -6 -6 -6 -6 -6 -6 -6 -6 -6 -6 -5 -3 12 71 109 39 3 -4 -5 -6 -6 -6 -6 -6 -6 -6 -6 -6 -6 -6 -6 -6 -6 -6 -5 -4 3 41 109 72 13 -3 -5 -6 -6 -6 -6 -6 -6 -6 -6 -6 -5 -1 22 92 84 17 -2 -5 -6 -6 -6 -6 -6 -6 -5 -2 18 88 
87 18 -2 -5 -6 -6 -6 -6 -6 -6 -6 -5 -2 16 83 93 22 -1 -5 -6 -6 -6 -6 -6 -6 -6 -6 -5 -1 19 79 107 40 3 -4 -5 -6 -6 -6 -6 -6 -6 -6 -6 -6 -6 -6 -6 -6 -6 -5 -4 3 39 109 71 12 -3 -5 -6 -6 -6 -6 -6 -6 -6 -6 -6 -6 -6 -6 -6 -6 -6 -5 -2 17 79 107 38 2 -4 -5 -6 -6 -6 -6 -6 -6 -6 -6 -5 -4 3 39 109 71 12 -3 -5 -6 -6 -6 -6 -6 -6 -5 -1 23 96 
91 18 -2 -5 -6 -6 -6 -6 -6 -6 -6 -5 -3 12 71 109 39 3 -4 -5 -6 -6 -6 -6 -6 -6 -5 -3 8 48 109 78 17 -2 -5 -6 -6 -6 -6 -6 -6 -6 -6 -6 -6 -6 -6 -6 -6 -6 -6 -5 -1 23 93 83 16 -2 -5 -6 -6 -6 -6 -6 -6 -6 -6 -6 -6 -6 -6 -6 -6 -5 -4 2 38 107 79 17 -2 -5 -6 -6 -6 -6 -6 -6 -6 -6 -6 -5 -3 12 71 109 39 3 -4 -5 -6 -6 -6 -6 -6 -5 -4 4 42 124 
93 18 -2 -5 -6 -6 -6 -6 -6 -6 -6 -5 -4 3 39 109 71 12 -3 -5 -6 -6 -6 -6 -6 -5 -4 2 36 101 101 36 2 -4 -5 -6 -6 -6 -6 -6 -6 -6 -6 -6 -6 -6 -6 -6 -6 -6 -6 -5 -2 18 87 86 17 -2 -5 -6 -6 -6 -6 -6 -6 -6 -6 -6 -6 -6 -6 -6 -6 -5 -3 13 72 109 41 3 -4 -5 -6 -6 -6 -6 -6 -6 -6 -6 -6 -5 -2 17 84 92 22 -1 -5 -6 -6 -6 -6 -6 -6 -5 -1 19 83 154 
91 18 -2 -5 -6 -6 -6 -6 -6 -6 -6 -6 -5 -1 22 93 83 16 -2 -5 -6 -6 -6 -6 -6 -5 -2 17 78 109 48 8 -3 -5 -6 -6 -6 -6 -6 -6 -6 -6 -6 -6 -6 -6 -6 -6 -6 -6 -6 -5 -2 18 86 86 18 -2 -5 -6 -6 -6 -6 -6 -6 -6 -6 -6 -6 -6 -6 -6 -6 -5 -1 22 90 90 22 -1 -5 -6 -6 -6 -6 -6 -6 -6 -6 -6 -6 -5 -1 22 92 84 17 -2 -5 -6 -6 -6 -6 -6 -5 -3 8 49 117 146 
88 18 -2 -5 -6 -6 -6 -6 -6 -6 -6 -6 -5 -2 18 87 87 18 -2 -5 -6 -6 -6 -6 -5 -4 3 40 107 79 19 -1 -5 -6 -6 -6 -6 -6 -6 -6 -6 -6 -6 -6 -6 -6 -6 -6 -6 -6 -6 -5 -2 17 86 87 18 -2 -5 -6 -6 -6 -6 -6 -6 -6 -6 -6 -6 -6 -6 -6 -5 -4 3 41 109 72 13 -3 -5 -6 -6 -6 -6 -6 -6 -6 -6 -6 -5 -4 3 39 109 71 12 -3 -5 -6 -6 -6 -6 -5 -4 3 36 102 118 119 
87 18 -2 -5 -6 -6 -6 -6 -6 -6 -6 -6 -5 -2 16 83 93 22 -1 -5 -6 -6 -6 -6 -5 -2 17 79 107 40 3 -4 -5 -6 -6 -6 -6 -6 -6 -6 -6 -6 -6 -6 -6 -6 -6 -6 -6 -6 -6 -5 -2 16 83 93 23 -1 -5 -6 -6 -6 -6 -6 -6 -6 -6 -6 -6 -6 -6 -6 -5 -2 17 79 107 38 2 -4 -5 -6 -6 -6 -6 -6 -6 -6 -6 -6 -5 -3 12 71 109 39 3 -4 -5 -6 -6 -6 -6 -5 -1 19 78 111 70 98 
86 18 -2 -5 -6 -6 -6 -6 -6 -6 -6 -6 -5 -3 12 71 109 39 3 -4 -5 -6 -6 -5 -4 3 40 107 79 17 -2 -5 -6 -6 -6 -6 -6 -6 -6 -6 -6 -6 -6 -6 -6 -6 -6 -6 -6 -6 -6 -5 -3 12 71 109 39 3 -4 -5 -6 -6 -6 -6 -6 -6 -6 -6 -6 -6 -6 -5 -4 2 38 107 79 17 -2 -5 -6 -6 -6 -6 -6 -6 -6 -6 -6 -6 -5 -2 17 84 92 22 -1 -5 -6 -6 -6 -6 -5 -3 8 48 109 81 42 90 
86 18 -2 -5 -6 -6 -6 -6 -6 -6 -6 -6 -5 -4 3 39 109 71 12 -3 -5 -6 -6 -5 -1 19 79 107 40 3 -4 -5 -6 -6 -6 -6 -6 -6 -6 -6 -6 -6 -6 -6 -6 -6 -6 -6 -6 -6 -6 -5 -4 3 39 109 71 12 -2 -5 -5 -5 -5 -6 -6 -6 -6 -6 -6 -6 -6 -5 -3 13 72 109 41 3 -4 -5 -6 -6 -6 -6 -6 -6 -6 -6 -6 -6 -5 -1 22 92 84 17 -2 -5 -6 -6 -6 -5 -4 3 36 101 101 39 27 87 
86 18 -2 -5 -6 -6 -6 -6 -6 -6 -6 -6 -6 -5 -1 22 93 83 16 -2 -5 -6 -5 -3 8 48 109 78 17 -2 -5 -6 -6 -6 -6 -6 -6 -6 -6 -6 -6 -6 -6 -6 -6 -6 -6 -6 -6 -6 -6 -6 -5 0 24 94 85 20 1 -2 -2 -3 -4 -5 -5 -5 -5 -5 -5 -5 -6 -5 -1 22 90 90 22 -1 -5 -6 -6 -6 -6 -6 -6 -6 -6 -6 -6 -5 -4 3 39 109 71 12 -3 -5 -6 -6 -6 -5 -1 19 78 109 49 11 20 86 
86 18 -2 -5 -6 -6 -6 -6 -6 -6 -6 -6 -6 -5 -2 18 87 87 18 -2 -5 -5 -4 2 36 101 101 36 2 -4 -5 -6 -6 -6 -6 -6 -6 -6 -6 -6 -6 -6 -6 -6 -6 -6 -6 -6 -6 -6 -6 -5 -4 1 26 99 101 40 21 18 16 12 3 -1 -2 -2 -2 -2 -3 -4 -5 -4 4 41 109 72 13 -3 -5 -6 -6 -6 -6 -6 -6 -6 -6 -6 -6 -5 -3 12 71 109 39 3 -4 -5 -6 -6 -5 -3 8 48 109 78 19 2 18 86 
86 18 -2 -5 -6 -6 -6 -6 -6 -6 -6 -6 -6 -5 -2 16 83 93 22 -1 -5 -5 -2 17 78 109 48 8 -3 -5 -6 -6 -6 -6 -6 -6 -6 -6 -6 -6 -6 -6 -6 -6 -6 -6 -6 -6 -6 -5 -5 -3 3 20 55 130 140 101 88 86 83 71 39 23 18 18 17 16 12 3 0 1 20 80 107 38 2 -4 -5 -6 -6 -6 -6 -6 -6 -6 -6 -6 -6 -5 -2 17 84 92 22 -1 -5 -6 -6 -5 -4 3 36 101 101 36 3 0 18 86 
86 18 -2 -5 -6 -6 -6 -6 -6 -6 -6 -6 -6 -5 -3 12 71 109 39 3 -4 -4 3 40 107 79 19 -1 -5 -6 -6 -6 -6 -6 -6 -6 -6 -6 -6 -6 -6 -6 -6 -6 -6 -6 -6 -6 -5 -4 -1 8 36 79 112 119 101 89 87 87 93 109 109 93 87 86 86 83 71 39 24 26 55 112 80 17 -2 -5 -6 -6 -6 -6 -6 -6 -6 -6 -6 -6 -6 -5 -1 22 92 84 17 -2 -5 -6 -6 -5 -1 19 78 109 48 8 -3 -2 18 86 
86 18 -2 -5 -6 -6 -6 -6 -6 -6 -6 -6 -6 -5 -4 3 39 109 71 12 -2 -1 17 79 107 40 3 -4 -5 -6 -6 -6 -6 -6 -6 -6 -6 -6 -6 -6 -6 -6 -6 -6 -6 -6 -5 -5 -3 3 19 48 101 109 79 41 23 18 18 18 23 39 71 83 86 86 87 93 109 109 94 99 130 127 46 5 -4 -5 -6 -6 -6 -6 -6 -6 -6 -6 -6 -6 -5 -4 3 39 109 71 12 -3 -5 -6 -5 -3 8 48 109 78 19 -1 -5 -2 18 86 
86 18 -2 -5 -6 -6 -6 -6 -6 -6 -6 -6 -6 -6 -5 -1 22 93 83 17 -1 4 40 107 79 17 -2 -5 -6 -6 -6 -6 -6 -6 -6 -6 -6 -6 -6 -6 -6 -6 -6 -6 -6 -5 -4 -1 8 36 78 109 101 48 19 4 -1 -2 -2 -2 -1 3 12 16 17 18 18 23 39 71 85 97 130 127 46 5 -4 -5 -6 -6 -6 -6 -6 -6 -6 -6 -6 -6 -5 -3 12 71 109 39 3 -4 -5 -5 -4 3 36 101 101 36 3 -4 -5 -2 18 86 
86 18 -2 -5 -6 -6 -6 -6 -6 -6 -6 -6 -6 -6 -5 -2 18 87 87 19 2 19 79 107 40 3 -4 -5 -6 -6 -6 -6 -6 -6 -6 -6 -6 -6 -6 -6 -6 -6 -6 -6 -5 -3 3 19 48 101 109 78 36 8 -1 -4 -5 -5 -5 -5 -5 -4 -3 -2 -2 -2 -2 -1 3 12 17 25 55 112 80 19 -1 -5 -5 -6 -6 -6 -6 -6 -6 -6 -6 -6 -5 -2 17 84 92 22 -1 -5 -5 -5 -1 19 78 109 48 8 -3 -5 -5 -2 18 86 
86 18 -2 -5 -6 -6 -6 -6 -6 -6 -6 -6 -6 -6 -5 -2 16 83 93 25 13 49 109 78 17 -2 -5 -6 -6 -6 -6 -6 -6 -6 -6 -6 -6 -6 -6 -6 -6 -6 -5 -5 -2 7 36 78 109 101 48 19 3 -3 -5 -5 -6 -6 -6 -6 -6 -5 -5 -5 -5 -5 -5 -5 -4 -3 -2 1 20 79 109 49 10 -1 -4 -5 -5 -5 -5 -5 -5 -5 -5 -5 -5 0 23 92 84 17 -2 -5 -5 -3 8 48 109 78 19 -1 -5 -6 -5 -2 18 86 
86 18 -2 -5 -6 -6 -6 -6 -6 -6 -6 -6 -6 -6 -5 -3 12 71 110 48 44 102 101 36 2 -4 -5 -6 -6 -6 -6 -6 -6 -6 -6 -6 -6 -6 -6 -6 -6 -5 -4 -1 9 44 100 109 78 36 8 -1 -4 -5 -6 -6 -6 -6 -6 -6 -6 -6 -6 -6 -6 -6 -6 -6 -5 -5 -5 -4 3 36 101 105 50 19 4 -1 -2 -2 -2 -2 -2 -2 -2 -2 -1 6 42 110 72 13 -3 -5 -4 3 36 101 101 36 3 -4 -5 -6 -5 -2 18 86 
86 18 -2 -5 -6 -6 -6 -6 -6 -6 -6 -6 -6 -6 -5 -4 3 39 110 91 93 110 48 8 -3 -5 -6 -6 -6 -6 -6 -6 -6 -6 -6 -6 -6 -6 -6 -5 -5 -3 3 19 49 102 102 49 19 3 -3 -5 -5 -6 -6 -6 -6 -6 -6 -6 -6 -6 -6 -6 -6 -6 -6 -6 -6 -6 -6 -5 -3 8 50 121 126 82 41 23 18 18 18 18 18 18 18 18 20 35 87 120 47 6 -3 -4 -1 19 78 109 48 8 -3 -5 -6 -6 -5 -2 18 86 
86 18 -2 -5 -6 -6 -6 -6 -6 -6 -6 -6 -6 -6 -6 -5 -1 23 95 119 122 80 19 -1 -5 -6 -6 -6 -6 -6 -6 -6 -6 -6 -6 -6 -6 -6 -5 -4 -1 8 36 78 109 100 44 9 -1 -4 -5 -6 -6 -6 -6 -6 -6 -6 -6 -6 -6 -6 -6 -6 -6 -6 -6 -6 -6 -6 -6 -6 -5 0 25 103 144 122 110 93 87 86 86 86 86 86 86 86 88 100 138 135 60 21 4 0 9 48 109 78 19 -1 -5 -6 -6 -6 -5 -2 18 86 
86 18 -2 -5 -6 -6 -6 -6 -6 -6 -6 -6 -6 -6 -6 -5 -2 18 92 146 116 40 3 -4 -5 -6 -6 -6 -6 -6 -6 -6 -6 -6 -6 -6 -5 -5 -3 3 19 48 101 109 78 36 7 -2 -5 -5 -6 -6 -6 -6 -6 -6 -6 -6 -6 -6 -6 -6 -6 -6 -6 -6 -6 -6 -6 -6 -6 -6 -5 0 24 96 102 59 74 83 86 86 86 86 86 86 86 86 87 89 101 120 112 80 41 25 43 102 101 36 3 -4 -5 -6 -6 -6 -5 -2 18 86 
86 18 -2 -5 -6 -6 -6 -6 -6 -6 -6 -6 -6 -6 -6 -5 -2 18 93 154 82 17 -2 -5 -6 -6 -6 -6 -6 -6 -6 -6 -6 -6 -6 -5 -4 -1 8 36 78 109 101 48 19 3 -3 -5 -6 -6 -6 -6 -6 -6 -6 -6 -6 -6 -6 -6 -6 -6 -6 -6 -6 -6 -6 -6 -6 -6 -6 -5 -4 3 39 109 74 21 15 17 17 18 18 18 18 18 18 18 18 18 23 41 79 108 109 93 105 116 50 8 -3 -5 -6 -6 -6 -6 -5 -2 18 86 
86 18 -2 -5 -6 -6 -6 -6 -6 -6 -6 -6 -6 -6 -6 -5 -2 18 91 124 41 3 -4 -5 -6 -6 -6 -6 -6 -6 -6 -6 -5 -5 -5 -3 3 19 48 101 109 79 36 8 -1 -4 -5 -6 -6 -6 -6 -6 -6 -6 -6 -6 -6 -6 -6 -6 -6 -6 -6 -6 -6 -6 -6 -6 -6 -6 -6 -5 -3 12 71 109 40 4 -2 -2 -2 -2 -2 -2 -2 -2 -2 -2 -2 -2 -1 3 17 40 80 117 152 110 31 1 -4 -5 -6 -6 -6 -6 -5 -2 18 86 
86 18 -2 -5 -6 -6 -6 -6 -6 -6 -6 -6 -6 -6 -6 -5 -2 18 87 95 23 -1 -5 -6 -6 -6 -6 -6 -6 -6 -5 -5 -4 -3 0 8 36 82 115 107 53 22 6 0 -4 -5 -5 -5 -5 -6 -6 -6 -6 -6 -6 -6 -6 -6 -6 -6 -6 -6 -6 -6 -6 -6 -6 -6 -6 -6 -6 -5 -2 16 83 93 23 -1 -5 -5 -5 -5 -5 -5 -5 -5 -5 -5 -5 -5 -5 -4 -2 3 19 50 115 120 51 8 -3 -5 -6 -6 -6 -6 -5 -2 18 86 
86 18 -2 -5 -6 -6 -6 -6 -6 -6 -6 -6 -6 -6 -6 -5 -2 18 87 87 18 -2 -5 -6 -6 -6 -6 -6 -5 -5 -4 -2 3 13 23 50 112 153 137 78 36 23 18 12 3 -1 -2 -3 -4 -5 -5 -5 -5 -5 -6 -6 -6 -6 -6 -6 -6 -6 -6 -6 -6 -6 -6 -6 -6 -6 -6 -5 -2 18 86 87 18 -2 -5 -6 -6 -6 -6 -6 -6 -6 -6 -6 -6 -6 -6 -5 -5 -4 -1 9 46 104 101 36 3 -4 -5 -6 -6 -6 -5 -2 18 86 
86 18 -2 -5 -6 -6 -6 -6 -6 -6 -6 -6 -6 -6 -6 -5 -1 23 93 83 16 -2 -5 -6 -6 -5 -5 -5 -4 -2 3 17 38 72 90 112 118 109 118 115 94 87 83 71 39 22 17 12 3 -1 -2 -2 -3 -4 -5 -5 -5 -5 -6 -6 -6 -6 -6 -6 -6 -6 -6 -6 -6 -6 -6 -5 -2 18 87 86 18 -2 -5 -6 -6 -6 -6 -6 -6 -6 -6 -6 -6 -6 -6 -6 -6 -5 -5 -2 9 49 109 78 19 -1 -5 -6 -6 -6 -5 -2 18 86 
86 18 -2 -5 -6 -6 -6 -6 -6 -6 -6 -6 -6 -6 -5 -4 3 39 109 71 12 -3 -5 -5 -5 -4 -3 -1 3 17 40 79 107 109 90 72 40 28 40 71 83 87 93 109 109 92 84 71 39 22 18 16 12 3 -1 -2 -3 -4 -5 -5 -5 -5 -5 -6 -6 -6 -6 -6 -6 -6 -6 -5 -1 23 93 83 16 -2 -5 -6 -6 -6 -6 -6 -6 -6 -6 -6 -6 -6 -6 -6 -6 -6 -6 -5 -1 19 78 109 48 8 -3 -5 -6 -6 -5 -2 18 86 
86 18 -2 -5 -6 -6 -6 -6 -6 -6 -6 -6 -6 -6 -5 -3 12 71 109 39 3 -4 -5 -4 -2 2 13 22 41 79 107 107 79 41 22 13 3 0 3 12 16 18 22 39 71 84 92 109 109 93 87 83 71 39 22 17 12 3 -1 -2 -2 -3 -4 -5 -5 -5 -5 -6 -6 -6 -5 -4 3 39 109 71 12 -3 -5 -6 -6 -6 -6 -6 -6 -6 -6 -6 -6 -6 -6 -6 -6 -6 -6 -5 -4 3 36 101 101 36 3 -4 -5 -6 -5 -2 18 86 
86 18 -2 -5 -6 -6 -6 -6 -6 -6 -6 -6 -6 -6 -5 -2 16 83 93 23 0 -4 -1 3 17 38 72 90 109 107 79 40 17 3 -1 -3 -4 -5 -4 -3 -2 -2 -1 3 12 17 22 39 71 83 87 93 109 109 92 84 71 39 22 18 16 12 3 -1 -2 -3 -4 -5 -5 -5 -5 -3 12 71 109 39 3 -4 -5 -6 -6 -6 -6 -6 -6 -6 -6 -6 -6 -6 -6 -6 -6 -6 -6 -6 -5 -3 8 48 109 78 19 -1 -5 -5 -5 -2 18 86 
86 18 -2 -5 -6 -6 -6 -6 -6 -6 -6 -6 -6 -6 -5 -2 18 87 87 20 1 4 17 40 79 107 109 90 72 38 17 3 -2 -4 -5 -5 -5 -6 -5 -5 -5 -5 -5 -4 -3 -2 -1 3 12 16 18 22 39 71 84 92 109 109 93 87 83 71 39 22 17 12 3 -1 -2 -2 -2 -1 17 83 93 23 -1 -5 -6 -6 -6 -6 -6 -6 -6 -6 -6 -6 -6 -6 -6 -6 -6 -6 -6 -6 -6 -5 -1 19 78 109 49 9 -2 -5 -5 -2 18 86 
86 18 -2 -5 -6 -6 -6 -6 -6 -6 -6 -6 -6 -6 -5 -1 23 93 87 26 21 40 79 107 107 79 41 22 13 2 -2 -4 -5 -5 -6 -6 -6 -6 -6 -6 -6 -6 -6 -5 -5 -5 -5 -4 -3 -2 -2 -1 3 12 17 22 39 71 83 87 93 109 109 92 84 71 39 22 18 17 12 6 22 88 87 18 -2 -5 -6 -6 -6 -6 -6 -6 -6 -6 -6 -6 -6 -6 -6 -6 -6 -6 -6 -6 -6 -5 -4 3 36 100 102 44 7 -3 -5 -2 18 86 
86 18 -2 -5 -6 -6 -6 -6 -6 -6 -6 -6 -6 -5 -4 3 41 116 95 58 81 108 107 79 40 17 3 -1 -3 -4 -5 -5 -6 -6 -6 -6 -6 -6 -6 -6 -6 -6 -6 -6 -6 -6 -6 -5 -5 -5 -5 -5 -4 -3 -2 -1 3 12 16 18 22 39 71 84 92 109 109 93 87 83 71 42 45 101 88 18 -2 -5 -6 -6 -6 -6 -6 -6 -6 -6 -6 -6 -6 -6 -6 -6 -6 -6 -6 -6 -6 -6 -5 -3 7 44 102 100 36 3 -4 -2 18 86 
86 18 -2 -5 -6 -6 -6 -6 -6 -6 -6 -6 -6 -5 -2 17 84 151 124 115 108 79 40 17 3 -2 -4 -5 -5 -5 -6 -6 -6 -6 -6 -6 -6 -6 -6 -6 -6 -6 -6 -6 -6 -6 -6 -6 -6 -6 -6 -6 -5 -5 -5 -5 -4 -3 -2 -2 -1 3 12 17 22 39 71 83 87 93 109 111 108 140 92 18 -2 -5 -6 -6 -6 -6 -6 -6 -6 -6 -6 -6 -6 -6 -6 -6 -6 -6 -6 -6 -6 -6 -6 -5 -2 9 49 109 78 19 0 -1 18 86 
86 18 -2 -5 -6 -6 -6 -6 -6 -6 -6 -6 -5 -4 3 40 116 128 96 73 38 17 3 -2 -4 -5 -5 -6 -6 -6 -6 -6 -6 -6 -6 -6 -6 -6 -6 -6 -6 -6 -6 -6 -6 -6 -6 -6 -6 -6 -6 -6 -6 -6 -6 -6 -5 -5 -5 -5 -5 -4 -3 -2 -1 3 12 16 18 23 39 73 99 139 92 18 -2 -5 -6 -6 -6 -6 -6 -6 -6 -6 -6 -6 -6 -6 -6 -6 -6 -6 -6 -6 -6 -6 -6 -6 -5 -1 19 78 109 49 10 0 18 86 
86 18 -2 -5 -6 -6 -6 -6 -6 -6 -6 -6 -5 -1 19 79 111 55 24 13 3 -2 -4 -5 -5 -6 -6 -6 -6 -6 -6 -6 -6 -6 -6 -6 -6 -6 -6 -6 -6 -6 -6 -6 -6 -6 -6 -6 -6 -6 -6 -6 -6 -6 -6 -6 -6 -6 -6 -6 -6 -5 -5 -5 -5 -4 -3 -2 -2 -1 3 16 39 101 88 18 -2 -5 -6 -6 -6 -6 -6 -6 -6 -6 -6 -6 -6 -6 -6 -6 -6 -6 -6 -6 -6 -6 -6 -6 -5 -4 3 36 100 102 45 11 20 86 
86 18 -2 -5 -6 -6 -6 -6 -6 -6 -6 -5 -3 8 48 109 79 20 1 -2 -4 -5 -5 -6 -6 -6 -6 -6 -6 -6 -6 -6 -6 -6 -6 -6 -6 -6 -6 -6 -6 -6 -6 -6 -6 -6 -6 -6 -6 -6 -6 -6 -6 -6 -6 -6 -6 -6 -6 -6 -6 -6 -6 -6 -6 -5 -5 -5 -5 -5 -4 0 21 88 86 18 -2 -5 -6 -6 -6 -6 -6 -6 -6 -6 -6 -6 -6 -6 -6 -6 -6 -6 -6 -6 -6 -6 -6 -6 -6 -5 -3 7 44 102 100 39 27 87 
86 18 -2 -5 -6 -6 -6 -6 -6 -6 -5 -4 3 36 101 101 36 3 -4 -5 -5 -6 -6 -6 -6 -6 -6 -6 -6 -6 -6 -6 -6 -6 -6 -6 -6 -6 -6 -6 -6 -6 -6 -6 -6 -6 -6 -6 -6 -6 -6 -6 -6 -6 -6 -6 -6 -6 -6 -6 -6 -6 -6 -6 -6 -6 -6 -6 -6 -6 -5 -2 18 86 86 18 -2 -5 -6 -6 -6 -6 -6 -6 -6 -6 -6 -6 -6 -6 -6 -6 -6 -6 -6 -6 -6 -6 -6 -6 -6 -6 -5 -2 9 49 109 81 42 90 
87 18 -2 -5 -6 -6 -6 -6 -6 -6 -5 -1 19 78 109 48 8 -3 -5 -6 -6 -6 -6 -6 -6 -6 -6 -6 -6 -6 -6 -6 -6 -6 -6 -6 -6 -6 -6 -6 -6 -6 -6 -6 -6 -6 -6 -6 -6 -6 -6 -6 -6 -6 -6 -6 -6 -6 -6 -6 -6 -6 -6 -6 -6 -6 -6 -6 -6 -6 -5 -2 18 86 87 19 -2 -5 -6 -6 -6 -6 -6 -6 -6 -6 -6 -6 -6 -6 -6 -6 -6 -6 -6 -6 -6 -6 -6 -6 -6 -6 -6 -5 -1 19 78 111 70 98 
88 18 -2 -5 -6 -6 -6 -6 -6 -5 -2 9 49 109 79 19 -1 -5 -5 -6 -6 -6 -6 -6 -6 -6 -6 -6 -6 -6 -6 -6 -6 -6 -6 -6 -6 -6 -6 -6 -6 -6 -6 -6 -6 -6 -6 -6 -6 -6 -6 -6 -6 -6 -6 -6 -6 -6 -6 -6 -6 -6 -6 -6 -6 -6 -6 -6 -6 -6 -5 -2 18 85 94 24 0 -5 -5 -6 -6 -6 -6 -6 -6 -6 -6 -6 -6 -6 -6 -6 -6 -6 -6 -6 -6 -6 -6 -6 -6 -6 -6 -5 -4 3 36 102 118 119 
91 18 -2 -5 -6 -6 -6 -6 -5 -2 9 45 104 103 39 6 -1 -4 -5 -5 -5 -5 -5 -5 -5 -5 -5 -5 -5 -5 -6 -6 -6 -6 -6 -6 -6 -6 -6 -6 -6 -6 -6 -6 -6 -6 -6 -6 -6 -6 -6 -6 -6 -6 -6 -6 -6 -6 -6 -6 -6 -6 -6 -6 -6 -6 -6 -6 -6 -5 -4 0 21 86 118 51 10 -1 -4 -5 -5 -6 -6 -6 -6 -6 -6 -6 -6 -6 -6 -6 -6 -6 -6 -6 -6 -6 -6 -6 -6 -6 -6 -6 -5 -3 8 49 117 146 
93 18 -2 -5 -6 -6 -6 -5 -2 9 46 109 119 67 31 19 12 3 -1 -2 -2 -2 -2 -2 -2 -2 -2 -2 -3 -4 -5 -5 -5 -5 -5 -5 -5 -5 -5 -5 -5 -6 -6 -6 -6 -6 -6 -6 -6 -6 -6 -6 -6 -6 -6 -6 -6 -6 -6 -6 -6 -6 -6 -6 -6 -6 -6 -5 -5 -3 3 18 46 105 152 116 50 19 3 -2 -4 -5 -6 -6 -6 -6 -6 -6 -6 -6 -6 -6 -6 -6 -6 -6 -6 -6 -6 -6 -6 -6 -6 -6 -6 -5 -1 19 83 154 
91 18 -2 -5 -6 -6 -5 -2 9 46 114 154 125 98 88 83 71 39 23 18 18 18 18 18 18 18 17 16 12 3 -1 -2 -2 -2 -2 -2 -2 -2 -2 -3 -4 -5 -5 -5 -5 -5 -5 -5 -5 -5 -5 -5 -5 -6 -6 -6 -6 -6 -6 -6 -6 -6 -6 -6 -6 -5 -5 -4 -1 8 36 78 109 115 109 119 111 79 40 17 2 -3 -5 -5 -6 -6 -6 -6 -6 -6 -6 -6 -6 -6 -6 -6 -6 -6 -6 -6 -6 -6 -6 -6 -6 -5 -4 4 42 124 
87 18 -2 -5 -5 -5 -2 9 45 104 119 102 91 87 87 93 109 109 93 87 86 86 86 86 86 86 86 83 71 39 23 18 18 18 18 18 18 17 16 12 3 -1 -2 -2 -2 -2 -2 -2 -2 -2 -2 -3 -4 -5 -5 -5 -5 -5 -5 -5 -5 -5 -5 -5 -5 -4 -2 3 19 48 101 109 79 42 28 42 79 107 107 78 36 8 -1 -4 -5 -5 -6 -6 -6 -6 -6 -6 -6 -6 -6 -6 -6 -6 -6 -6 -6 -6 -6 -6 -6 -6 -5 -1 23 96 
86 18 -2 -5 -5 -2 9 45 102 103 50 25 19 18 18 23 39 71 83 86 86 86 86 86 86 86 87 93 109 109 93 87 86 86 86 86 86 86 83 71 39 23 18 18 18 18 18 18 18 17 16 12 3 -1 -2 -2 -2 -2 -2 -2 -2 -2 -3 -4 -3 3 17 40 79 109 101 48 19 4 0 4 17 40 79 109 101 48 19 3 -2 -4 -5 -6 -6 -6 -6 -6 -6 -6 -6 -6 -6 -6 -6 -6 -6 -6 -6 -6 -6 -6 -5 -2 18 88 
86 18 -2 -4 -1 9 45 102 102 45 10 0 -2 -2 -2 -1 3 12 16 17 18 18 18 18 18 18 18 23 39 71 83 86 86 86 86 86 86 87 93 109 109 93 87 86 86 86 86 86 86 86 83 71 39 23 18 18 18 18 18 18 17 16 12 5 9 36 78 107 107 78 36 8 -1 -4 -5 -4 -1 3 19 48 101 109 79 40 17 2 -3 -5 -5 -6 -6 -6 -6 -6 -6 -6 -6 -6 -6 -6 -6 -6 -6 -6 -6 -6 -5 -2 18 86 
86 18 0 3 19 49 102 102 45 9 -2 -5 -5 -5 -5 -5 -4 -3 -2 -2 -2 -2 -2 -2 -2 -2 -2 -1 3 12 16 17 18 18 18 18 18 18 23 39 71 83 86 86 86 86 86 86 86 87 93 109 109 93 87 86 86 86 86 86 86 83 72 46 55 102 109 79 40 17 2 -3 -5 -5 -6 -5 -5 -4 -1 8 36 78 107 107 78 36 8 -1 -4 -5 -5 -6 -6 -6 -6 -6 -6 -6 -6 -6 -6 -6 -6 -6 -6 -6 -5 -2 18 86 
87 21 11 36 78 109 100 44 9 -2 -5 -6 -6 -6 -6 -6 -5 -5 -5 -5 -5 -5 -5 -5 -5 -5 -5 -5 -4 -3 -2 -2 -2 -2 -2 -2 -2 -2 -1 3 12 16 17 18 18 18 18 18 18 18 23 39 71 83 86 86 86 86 86 86 87 93 114 127 128 106 49 19 3 -2 -4 -5 -6 -6 -6 -6 -6 -5 -5 -3 2 17 40 79 109 101 48 19 3 -2 -4 -5 -6 -6 -6 -6 -6 -6 -6 -6 -6 -6 -6 -6 -6 -6 -5 -2 18 86 
89 32 48 100 109 78 36 7 -2 -5 -6 -6 -6 -6 -6 -6 -6 -6 -6 -6 -6 -6 -6 -6 -6 -6 -6 -6 -5 -5 -5 -5 -5 -5 -5 -5 -5 -5 -5 -4 -3 -2 -2 -2 -2 -2 -2 -2 -2 -2 -1 3 12 16 17 18 18 18 18 18 19 25 56 130 129 51 10 -1 -4 -5 -5 -6 -6 -6 -6 -6 -6 -6 -6 -5 -4 -2 3 19 48 101 109 79 40 17 2 -3 -5 -5 -6 -6 -6 -6 -6 -6 -6 -6 -6 -6 -6 -6 -5 -2 18 86 
98 67 105 103 49 19 3 -3 -5 -6 -6 -6 -6 -6 -6 -6 -6 -6 -6 -6 -6 -6 -6 -6 -6 -6 -6 -6 -6 -6 -6 -6 -6 -6 -6 -6 -6 -6 -6 -5 -5 -5 -5 -5 -5 -5 -5 -5 -5 -5 -5 -4 -3 -2 -2 -2 -2 -2 -2 -2 -1 2 25 98 97 25 0 -5 -5 -6 -6 -6 -6 -6 -6 -6 -6 -6 -6 -6 -5 -5 -4 -1 8 36 78 107 107 78 36 8 -1 -4 -5 -5 -6 -6 -6 -6 -6 -6 -6 -6 -6 -6 -5 -2 18 87 
125 119 103 45 9 -1 -4 -5 -6 -6 -6 -6 -6 -6 -6 -6 -6 -6 -6 -6 -6 -6 -6 -6 -6 -6 -6 -6 -6 -6 -6 -6 -6 -6 -6 -6 -6 -6 -6 -6 -6 -6 -6 -6 -6 -6 -6 -6 -6 -6 -6 -5 -5 -5 -5 -5 -5 -5 -5 -5 -5 -1 19 88 88 19 -2 -5 -6 -6 -6 -6 -6 -6 -6 -6 -6 -6 -6 -6 -6 -6 -5 -5 -3 2 17 40 79 109 101 48 19 3 -2 -4 -5 -5 -6 -6 -6 -6 -6 -6 -6 -6 -5 -2 18 89 
154 110 45 9 -2 -5 -5 -6 -6 -6 -6 -6 -6 -6 -6 -6 -6 -6 -6 -6 -6 -6 -6 -6 -6 -6 -6 -6 -6 -6 -6 -6 -6 -6 -6 -6 -6 -6 -6 -6 -6 -6 -6 -6 -6 -6 -6 -6 -6 -6 -6 -6 -6 -6 -6 -6 -6 -6 -6 -6 -5 -2 18 86 86 18 -2 -5 -6 -6 -6 -6 -6 -6 -6 -6 -6 -6 -6 -6 -6 -6 -6 -6 -5 -4 -2 3 19 48 101 109 79 40 17 3 -2 -4 -5 -6 -6 -6 -6 -6 -6 -6 -5 -2 18 93 
127 51 10 -2 -5 -6 -6 -6 -6 -6 -6 -6 -6 -6 -6 -6 -6 -6 -6 -6 -6 -6 -6 -6 -6 -6 -6 -6 -6 -6 -6 -6 -6 -6 -6 -6 -6 -6 -6 -6 -6 -6 -6 -6 -6 -6 -6 -6 -6 -6 -6 -6 -6 -6 -6 -6 -6 -6 -6 -6 -5 -2 18 86 86 18 -2 -5 -6 -6 -6 -6 -6 -6 -6 -6 -6 -6 -6 -6 -6 -6 -6 -6 -6 -5 -5 -4 -1 8 36 78 107 107 79 40 17 2 -3 -5 -5 -6 -6 -6 -6 -6 -5 -2 18 91 
96 24 0 -5 -6 -6 -6 -6 -6 -6 -6 -6 -6 -6 -6 -6 -6 -6 -6 -6 -6 -6 -6 -6 -6 -6 -6 -6 -6 -6 -6 -6 -6 -6 -6 -6 -6 -6 -6 -6 -6 -6 -6 -6 -6 -6 -6 -6 -6 -6 -6 -6 -6 -6 -6 -6 -6 -6 -6 -6 -5 -2 18 86 86 18 -2 -5 -6 -6 -6 -6 -6 -6 -6 -6 -6 -6 -6 -6 -6 -6 -6 -6 -6 -6 -6 -5 -5 -3 2 17 40 79 107 107 78 36 8 -1 -4 -5 -5 -5 -5 -6 -5 -2 18 87 
88 19 -2 -5 -6 -6 -6 -6 -6 -6 -6 -6 -6 -6 -6 -6 -6 -6 -6 -6 -6 -6 -6 -6 -6 -6 -6 -6 -6 -6 -6 -6 -6 -6 -6 -6 -6 -6 -6 -6 -6 -6 -6 -6 -6 -6 -6 -6 -6 -6 -6 -6 -6 -6 -6 -6 -6 -6 -6 -6 -5 -2 18 86 86 18 -2 -5 -6 -6 -6 -6 -6 -6 -6 -6 -6 -6 -6 -6 -6 -6 -6 -6 -6 -6 -6 -6 -6 -5 -4 -2 3 17 40 79 109 101 48 19 4 -1 -2 -3 -4 -5 -5 -2 18 86 
86 18 -2 -5 -6 -6 -6 -6 -6 -6 -6 -6 -6 -6 -6 -6 -6 -6 -6 -6 -6 -6 -6 -6 -6 -6 -6 -6 -6 -6 -6 -6 -6 -6 -6 -6 -6 -6 -6 -6 -6 -6 -6 -6 -6 -6 -6 -6 -6 -6 -6 -6 -6 -6 -6 -6 -6 -6 -6 -6 -5 -2 18 86 86 18 -2 -5 -6 -6 -6 -6 -6 -6 -6 -6 -6 -6 -6 -6 -6 -6 -6 -6 -6 -6 -6 -6 -6 -6 -5 -5 -4 -1 4 19 50 104 112 82 42 23 17 12 3 -1 -2 0 19 87 
86 18 -2 -5 -6 -6 -6 -6 -6 -6 -6 -6 -6 -6 -6 -6 -6 -6 -6 -6 -6 -6 -6 -6 -6 -6 -6 -6 -6 -6 -6 -6 -6 -6 -6 -6 -6 -6 -6 -6 -6 -6 -6 -6 -6 -6 -6 -6 -6 -6 -6 -6 -6 -6 -6 -6 -6 -6 -6 -6 -5 -2 18 86 86 18 -2 -5 -6 -6 -6 -6 -6 -6 -6 -6 -6 -6 -6 -6 -6 -6 -6 -6 -6 -6 -6 -6 -6 -6 -6 -5 -5 -4 -1 3 18 58 114 150 125 95 84 71 39 22 18 16 26 89 
88 18 -2 -5 -5 -5 -5 -5 -5 -5 -6 -6 -6 -6 -6 -6 -6 -6 -6 -6 -6 -6 -6 -6 -6 -6 -6 -6 -6 -6 -6 -6 -6 -6 -6 -6 -6 -6 -6 -6 -6 -6 -6 -6 -6 -6 -6 -6 -6 -6 -6 -6 -6 -6 -6 -6 -6 -6 -6 -6 -5 -2 18 86 86 18 -2 -5 -6 -6 -6 -6 -6 -6 -6 -6 -6 -6 -6 -6 -6 -6 -6 -6 -6 -6 -6 -6 -5 -5 -5 -4 -2 3 13 22 43 86 123 123 100 90 93 109 109 92 84 74 61 105 
94 21 1 -2 -2 -2 -2 -2 -3 -4 -5 -5 -5 -5 -5 -5 -5 -5 -6 -6 -6 -6 -6 -6 -6 -6 -6 -6 -6 -6 -6 -6 -6 -6 -6 -6 -6 -6 -6 -6 -6 -6 -6 -6 -6 -6 -6 -6 -6 -6 -6 -6 -6 -6 -6 -6 -6 -6 -6 -6 -5 -2 18 86 86 18 -2 -5 -6 -6 -6 -6 -6 -6 -6 -6 -6 -6 -6 -6 -6 -6 -6 -6 -6 -6 -5 -5 -4 -3 -1 3 17 38 72 90 109 108 79 41 23 19 23 39 71 84 92 110 123 145 
106 40 21 18 18 18 17 16 12 3 -1 -2 -2 -2 -2 -2 -3 -4 -5 -5 -5 -5 -5 -5 -5 -5 -5 -6 -6 -6 -6 -6 -6 -6 -6 -6 -6 -6 -6 -6 -6 -6 -6 -6 -6 -6 -6 -6 -6 -6 -6 -6 -6 -6 -6 -6 -6 -6 -6 -6 -5 -2 18 86 86 18 -2 -5 -6 -6 -6 -6 -6 -6 -6 -6 -6 -6 -6 -6 -6 -6 -6 -5 -5 -5 -4 -2 2 13 22 41 79 107 109 90 72 38 17 3 -1 -2 -1 3 12 17 23 42 87 139 
141 102 89 86 86 86 86 83 71 39 23 18 18 18 17 16 12 3 -1 -2 -2 -2 -2 -2 -2 -3 -4 -5 -5 -5 -5 -5 -5 -5 -5 -6 -6 -6 -6 -6 -6 -6 -6 -6 -6 -6 -6 -6 -6 -6 -6 -6 -6 -6 -6 -6 -6 -6 -6 -6 -5 -2 18 86 86 18 -2 -5 -6 -6 -6 -6 -6 -6 -6 -6 -6 -6 -6 -6 -6 -5 -5 -4 -3 -1 3 17 38 72 90 109 107 79 41 22 13 2 -2 -4 -5 -5 -5 -4 -3 -2 0 6 35 105 
140 102 89 86 86 86 87 93 109 109 93 87 86 86 86 83 71 39 23 18 18 18 18 17 16 12 3 -1 -2 -2 -2 -2 -2 -3 -4 -5 -5 -5 -5 -5 -5 -5 -5 -5 -6 -6 -6 -6 -6 -6 -6 -6 -6 -6 -6 -6 -6 -6 -6 -6 -5 -2 18 86 86 18 -2 -5 -6 -6 -6 -6 -6 -6 -6 -6 -6 -6 -6 -5 -5 -4 -2 2 13 22 41 79 107 109 90 72 38 17 3 -1 -3 -4 -5 -5 -6 -6 -6 -5 -5 -5 -5 -1 20 94 
101 40 21 18 18 18 18 23 39 71 83 86 86 86 87 93 109 109 93 87 86 86 86 86 83 71 39 23 18 18 18 17 16 12 3 -1 -2 -2 -2 -2 -2 -2 -3 -4 -5 -5 -5 -5 -5 -5 -5 -5 -6 -6 -6 -6 -6 -6 -6 -6 -5 -2 18 86 86 18 -2 -5 -6 -6 -6 -6 -6 -6 -6 -6 -5 -5 -5 -4 -2 3 17 38 72 90 109 107 79 41 22 13 2 -2 -4 -5 -5 -5 -6 -6 -6 -6 -6 -6 -6 -6 -5 -2 18 88 
88 21 1 -2 -2 -2 -2 -1 3 12 16 17 18 18 18 23 39 71 83 86 86 86 86 87 93 109 109 93 87 86 86 86 83 71 39 23 18 18 18 18 17 16 12 3 -1 -2 -2 -2 -2 -2 -3 -4 -5 -5 -5 -5 -5 -5 -5 -5 -5 -2 18 86 86 18 -2 -5 -6 -6 -6 -6 -6 -6 -5 -5 -4 -3 -1 3 17 40 79 107 109 90 72 38 17 3 -1 -3 -4 -5 -5 -6 -6 -6 -6 -6 -6 -6 -6 -6 -6 -6 -5 -2 18 86 
86 18 -2 -5 -5 -5 -5 -5 -4 -3 -2 -2 -2 -2 -2 -1 3 12 16 17 18 18 18 18 23 39 71 83 86 86 86 87 93 109 109 93 87 86 86 86 86 83 71 39 23 18 18 18 17 16 12 3 -1 -2 -2 -2 -2 -2 -2 -3 -4 -1 18 86 86 18 -2 -5 -6 -6 -6 -5 -5 -5 -4 -2 2 13 22 41 79 107 107 79 41 22 13 2 -2 -4 -5 -5 -5 -6 -6 -6 -6 -6 -6 -6 -6 -6 -6 -6 -6 -6 -5 -2 18 86 
86 18 -2 -5 -6 -6 -6 -6 -5 -5 -5 -5 -5 -5 -5 -5 -4 -3 -2 -2 -2 -2 -2 -2 -1 3 12 16 17 18 18 18 23 39 71 83 86 86 86 86 87 93 109 109 93 87 86 86 86 83 71 39 23 18 18 18 18 17 16 12 3 2 21 89 88 19 -2 -5 -6 -5 -5 -4 -3 -1 3 17 38 72 90 109 107 79 40 17 3 -1 -3 -4 -5 -5 -6 -6 -6 -6 -6 -6 -6 -6 -6 -6 -6 -6 -6 -6 -6 -6 -5 -2 18 86 
86 18 -2 -5 -6 -6 -6 -6 -6 -6 -6 -6 -6 -6 -6 -6 -5 -5 -5 -5 -5 -5 -5 -5 -5 -4 -3 -2 -2 -2 -2 -2 -1 3 12 16 17 18 18 18 18 23 39 71 83 86 86 86 87 93 109 109 93 87 86 86 86 86 83 71 39 26 41 102 98 25 0 -4 -5 -4 -2 2 13 22 41 79 107 109 90 72 38 17 3 -2 -4 -5 -5 -5 -6 -6 -6 -6 -6 -6 -6 -6 -6 -6 -6 -6 -6 -6 -6 -6 -6 -6 -5 -2 18 86 
86 18 -2 -5 -6 -6 -6 -6 -6 -6 -6 -6 -6 -6 -6 -6 -6 -6 -6 -6 -6 -6 -6 -6 -6 -5 -5 -5 -5 -5 -5 -5 -5 -4 -3 -2 -2 -2 -2 -2 -2 -1 3 12 16 17 18 18 18 23 39 71 83 86 86 86 86 87 93 109 109 95 102 140 129 51 10 0 0 3 17 38 72 90 109 107 79 41 22 13 2 -2 -4 -5 -5 -6 -6 -6 -6 -6 -6 -6 -6 -6 -6 -6 -6 -6 -6 -6 -6 -6 -6 -6 -6 -6 -5 -2 18 86 
86 18 -2 -5 -6 -6 -6 -6 -6 -6 -6 -6 -6 -6 -6 -6 -6 -6 -6 -6 -6 -6 -6 -6 -6 -6 -6 -6 -6 -6 -6 -6 -6 -5 -5 -5 -5 -5 -5 -5 -5 -5 -4 -3 -2 -2 -2 -2 -2 -1 3 12 16 17 18 18 18 18 23 39 71 83 89 101 121 106 51 25 24 41 79 107 109 90 72 38 17 3 -1 -3 -4 -5 -5 -6 -6 -6 -6 -6 -6 -6 -6 -6 -6 -6 -6 -6 -6 -6 -6 -6 -6 -6 -6 -6 -6 -6 -5 -2 18 86 
86 18 -2 -5 -6 -6 -6 -6 -6 -6 -6 -6 -6 -6 -6 -6 -6 -6 -6 -6 -6 -6 -6 -6 -6 -6 -6 -6 -6 -6 -6 -6 -6 -6 -6 -6 -6 -6 -6 -6 -6 -6 -5 -5 -5 -5 -5 -5 -5 -5 -4 -3 -2 -2 -2 -2 -2 -2 -1 3 12 17 18 25 51 106 121 102 96 109 107 79 41 22 13 2 -2 -4 -5 -5 -5 -6 -6 -6 -6 -6 -6 -6 -6 -6 -6 -6 -6 -6 -6 -6 -6 -6 -6 -6 -6 -6 -6 -6 -6 -6 -5 -2 18 86 
86 18 -2 -5 -6 -6 -6 -6 -6 -6 -6 -6 -6 -6 -6 -6 -6 -6 -6 -6 -6 -6 -6 -6 -6 -6 -6 -6 -6 -6 -6 -6 -6 -6 -6 -6 -6 -6 -6 -6 -6 -6 -6 -6 -6 -6 -6 -6 -6 -6 -5 -5 -5 -5 -5 -5 -5 -5 -5 -4 -3 -2 -2 0 10 51 129 140 98 73 38 17 3 -1 -3 -4 -5 -5 -6 -6 -6 -6 -6 -6 -6 -6 -6 -6 -6 -6 -6 -6 -6 -6 -6 -6 -6 -6 -6 -6 -6 -6 -6 -6 -6 -6 -5 -2 18 86 
86 18 -2 -5 -6 -6 -6 -6 -6 -6 -6 -6 -6 -6 -6 -6 -6 -6 -6 -6 -6 -6 -6 -6 -6 -6 -6 -6 -6 -6 -6 -6 -6 -6 -6 -6 -6 -6 -6 -6 -6 -6 -6 -6 -6 -6 -6 -6 -6 -6 -6 -6 -6 -6 -6 -6 -6 -6 -6 -5 -5 -5 -5 -4 0 25 98 102 39 16 3 -2 -4 -5 -5 -5 -6 -6 -6 -6 -6 -6 -6 -6 -6 -6 -6 -6 -6 -6 -6 -6 -6 -6 -6 -6 -6 -6 -6 -6 -6 -6 -6 -6 -6 -6 -5 -2 18 86 
86 18 -2 -5 -5 -5 -5 -5 -5 -5 -5 -5 -5 -5 -5 -5 -5 -5 -5 -5 -5 -5 -5 -5 -5 -5 -5 -5 -5 -5 -5 -5 -5 -5 -5 -5 -5 -5 -5 -5 -5 -5 -5 -5 -5 -5 -5 -5 -5 -5 -5 -5 -5 -5 -5 -5 -5 -5 -5 -5 -5 -5 -5 -5 -1 19 88 89 21 0 -4 -5 -5 -5 -5 -5 -5 -5 -5 -5 -5 -5 -5 -5 -5 -5 -5 -5 -5 -5 -5 -5 -5 -5 -5 -5 -5 -5 -5 -5 -5 -5 -5 -5 -5 -5 -5 -2 18 86 
89 21 1 -2 -2 -2 -2 -2 -2 -2 -2 -2 -2 -2 -2 -2 -2 -2 -2 -2 -2 -2 -2 -2 -2 -2 -2 -2 -2 -2 -2 -2 -2 -2 -2 -2 -2 -2 -2 -2 -2 -2 -2 -2 -2 -2 -2 -2 -2 -2 -2 -2 -2 -2 -2 -2 -2 -2 -2 -2 -2 -2 -2 -1 1 21 89 89 21 1 -1 -2 -2 -2 -2 -2 -2 -2 -2 -2 -2 -2 -2 -2 -2 -2 -2 -2 -2 -2 -2 -2 -2 -2 -2 -2 -2 -2 -2 -2 -2 -2 -2 -2 -2 -2 -2 1 21 89 
102 40 21 18 18 18 18 18 18 18 18 18 18 18 18 18 18 18 18 18 18 18 18 18 18 18 18 18 18 18 18 18 18 18 18 18 18 18 18 18 18 18 18 18 18 18 18 18 18 18 18 18 18 18 18 18 18 18 18 18 18 18 18 18 21 40 102 102 40 21 18 18 18 18 18 18 18 18 18 18 18 18 18 18 18 18 18 18 18 18 18 18 18 18 18 18 18 18 18 18 18 18 18 18 18 18 18 21 40 102 
146 102 89 86 86 86 86 86 86 86 86 86 86 86 86 86 86 86 86 86 86 86 86 86 86 86 86 86 86 86 86 87 89 93 91 87 86 86 86 86 86 86 86 86 86 86 86 86 88 92 92 88 86 86 86 86 86 86 86 86 86 86 86 86 88 101 140 140 101 88 86 86 86 86 86 86 86 86 86 86 86 86 86 86 86 86 86 86 86 86 87 89 93 91 87 86 86 86 86 86 86 86 87 89 93 91 88 89 102 146 
