P2
110 110
255
141 96 84 82 82 82 82 82 82 82 82 82 82 82 82 82 82 82 82 82 82 82 82 82 82 82 82 82 82 82 83 91 117 154 124 91 83 82 82 82 82 82 82 82 82 82 82 84 95 136 136 95 84 82 82 82 82 82 82 82 82 82 82 82 82 83 87 87 83 82 82 82 82 82 82 82 82 82 82 82 82 82 82 82 82 82 82 82 82 83 88 111 153 124 91 83 82 82 82 82 82 83 87 110 153 124 91 85 96 141 
96 32 15 13 13 13 13 13 13 13 13 13 13 13 13 13 13 13 13 13 13 13 13 13 13 13 13 13 13 14 20 49 114 107 44 18 14 13 13 13 13 13 13 13 13 13 13 15 32 97 96 32 15 13 13 13 13 13 13 13 13 13 13 13 13 13 13 13 13 13 13 13 13 13 13 13 13 13 13 13 13 13 13 13 13 13 13 13 13 16 32 91 115 47 19 14 13 13 13 13 13 15 28 84 116 48 19 16 32 96 
84 15 -1 -3 -4 -4 -4 -4 -4 -4 -4 -4 -4 -4 -4 -4 -4 -4 -4 -4 -4 -4 -4 -4 -4 -4 -4 -4 -3 0 16 77 108 42 6 -2 -3 -4 -4 -4 -4 -4 -4 -4 -4 -4 -3 0 19 92 85 15 -1 -3 -4 -4 -4 -4 -4 -4 -4 -4 -4 -4 -4 -4 -4 -4 -4 -4 -4 -4 -4 -4 -4 -4 -4 -4 -4 -4 -4 -4 -4 -4 -4 -4 -4 -3 -3 2 35 108 76 15 -1 -3 -4 -4 -4 -4 -3 -1 15 82 89 19 0 -1 15 84 
82 13 -3 -6 -6 -6 -6 -6 -6 -6 -6 -6 -6 -6 -6 -6 -6 -6 -6 -6 -6 -6 -6 -6 -6 -6 -6 -6 -4 4 42 107 75 14 -3 -6 -6 -6 -6 -6 -6 -6 -6 -6 -6 -6 -5 0 35 122 86 13 -3 -6 -6 -6 -6 -6 -6 -6 -6 -6 -6 -6 -6 -6 -6 -6 -6 -6 -6 -6 -6 -6 -6 -6 -6 -6 -6 -6 -6 -6 -6 -6 -6 -6 -6 -6 -4 9 69 107 34 0 -5 -6 -6 -6 -6 -6 -6 -3 17 88 80 13 -3 -3 13 82 
82 13 -4 -6 -6 -6 -6 -6 -6 -6 -6 -6 -6 -6 -6 -6 -6 -6 -6 -6 -6 -6 -6 -6 -6 -6 -6 -5 0 30 99 99 30 0 -5 -6 -6 -6 -6 -6 -6 -6 -6 -6 -6 -6 -3 13 78 155 88 13 -4 -6 -6 -6 -6 -6 -6 -6 -6 -6 -6 -6 -6 -6 -6 -6 -6 -6 -6 -6 -6 -6 -6 -6 -6 -6 -6 -6 -6 -6 -6 -6 -6 -6 -6 -6 -3 16 86 86 16 -3 -6 -6 -6 -6 -6 -6 -5 0 33 107 68 9 -4 -3 13 82 
82 13 -4 -6 -6 -6 -6 -6 -6 -6 -6 -6 -6 -6 -6 -6 -6 -6 -6 -6 -6 -6 -6 -6 -6 -6 -6 -3 14 75 107 41 4 -5 -6 -6 -6 -6 -6 -6 -6 -6 -6 -6 -6 -5 0 33 113 142 86 13 -4 -6 -6 -6 -6 -6 -6 -6 -6 -6 -6 -6 -6 -6 -6 -6 -6 -6 -6 -6 -6 -6 -6 -6 -6 -6 -6 -6 -6 -6 -6 -6 -6 -6 -6 -5 0 34 107 69 9 -4 -6 -6 -6 -6 -6 -6 -4 9 68 107 33 0 -5 -3 13 82 
82 13 -4 -6 -6 -6 -6 -6 -6 -6 -6 -6 -6 -6 -6 -6 -6 -6 -6 -6 -6 -6 -6 -6 -6 -6 -5 4 41 107 75 14 -3 -6 -6 -6 -6 -6 -6 -6 -6 -6 -6 -6 -6 -3 13 75 120 114 84 13 -3 -6 -6 -6 -6 -6 -6 -6 -6 -6 -6 -6 -6 -6 -6 -6 -6 -6 -6 -6 -6 -6 -6 -6 -6 -6 -6 -6 -6 -6 -6 -6 -6 -6 -6 -3 13 75 106 32 0 -5 -6 -6 -6 -6 -6 -6 -4 13 80 88 17 -3 -6 -4 13 82 
82 13 -4 -6 -6 -6 -6 -6 -6 -6 -6 -6 -6 -6 -6 -6 -6 -6 -6 -6 -6 -6 -6 -6 -6 -5 0 30 99 99 30 0 -5 -6 -6 -6 -6 -6 -6 -6 -6 -6 -6 -6 -5 0 33 107 91 96 89 17 -3 -6 -6 -6 -6 -6 -6 -6 -6 -6 -6 -6 -6 -6 -6 -6 -6 -6 -6 -6 -6 -6 -6 -6 -6 -6 -6 -6 -6 -6 -6 -6 -6 -6 -5 0 32 106 75 13 -3 -6 -6 -6 -6 -6 -6 -6 -3 17 88 80 13 -4 -6 -4 13 82 
82 13 -4 -6 -6 -6 -6 -6 -6 -6 -6 -6 -6 -6 -6 -6 -6 -6 -6 -6 -6 -6 -6 -6 -6 -3 14 75 107 41 4 -5 -6 -6 -6 -6 -6 -6 -6 -6 -6 -6 -6 -6 -3 14 75 107 48 74 108 33 0 -5 -6 -6 -6 -6 -6 -6 -6 -6 -6 -6 -6 -6 -6 -6 -6 -6 -6 -6 -6 -6 -6 -6 -6 -6 -6 -6 -6 -6 -6 -6 -6 -6 -4 9 69 107 34 0 -5 -6 -6 -6 -6 -6 -6 -5 0 33 107 68 9 -4 -6 -4 13 82 
82 13 -4 -6 -6 -6 -6 -6 -6 -6 -6 -6 -6 -6 -6 -6 -6 -6 -6 -6 -6 -6 -6 -6 -5 4 41 107 75 14 -3 -6 -6 -6 -6 -6 -6 -6 -6 -6 -6 -6 -6 -5 4 41 107 75 19 35 107 68 9 -4 -6 -6 -6 -6 -6 -6 -6 -6 -6 -6 -6 -6 -6 -6 -6 -6 -6 -6 -6 -6 -6 -6 -6 -6 -6 -6 -6 -6 -6 -6 -6 -6 -3 16 86 86 16 -3 -6 -6 -6 -6 -6 -6 -6 -4 9 68 107 33 0 -5 -6 -4 13 82 
82 13 -4 -6 -6 -6 -6 -6 -6 -6 -6 -6 -6 -6 -6 -6 -6 -6 -6 -6 -6 -6 -6 -5 0 30 99 99 30 0 -5 -6 -6 -6 -6 -6 -6 -6 -6 -6 -6 -6 -5 0 30 99 99 30 3 18 88 79 12 -4 -6 -6 -6 -6 -6 -6 -6 -6 -6 -6 -6 -6 -6 -6 -6 -6 -6 -6 -6 -6 -6 -6 -6 -6 -6 -6 -6 -6 -6 -6 -6 -5 0 34 107 69 9 -4 -6 -6 -6 -6 -6 -6 -6 -4 13 80 88 17 -3 -6 -6 -4 13 82 
82 13 -4 -6 -6 -6 -6 -6 -6 -6 -6 -6 -6 -6 -6 -6 -6 -6 -6 -6 -6 -6 -6 -3 14 75 107 41 4 -5 -6 -6 -6 -6 -6 -6 -6 -6 -6 -6 -6 -6 -3 13 74 107 41 4 -2 14 83 82 13 -4 -6 -6 -6 -6 -6 -6 -6 -6 -6 -6 -6 -6 -6 -6 -6 -6 -6 -6 -6 -6 -6 -6 -6 -6 -6 -6 -6 -6 -6 -6 -6 -3 13 75 106 32 0 -5 -6 -6 -6 -6 -6 -6 -6 -3 17 88 80 13 -4 -6 -6 -4 13 82 
83 14 -3 -6 -6 -6 -6 -6 -6 -6 -6 -6 -6 -6 -6 -6 -6 -6 -6 -6 -6 -6 -5 4 41 107 75 14 -3 -6 -6 -6 -6 -6 -6 -6 -6 -6 -6 -6 -6 -5 0 33 106 75 14 -3 -3 13 82 82 13 -4 -6 -6 -6 -6 -6 -6 -6 -6 -6 -6 -6 -6 -6 -6 -6 -6 -6 -6 -6 -6 -6 -6 -6 -6 -6 -6 -6 -6 -6 -6 -5 0 32 106 75 13 -3 -6 -6 -6 -6 -6 -6 -6 -5 0 33 107 68 9 -4 -6 -6 -4 13 82 
91 18 -2 -6 -6 -6 -6 -6 -6 -6 -6 -6 -6 -6 -6 -6 -6 -6 -6 -6 -6 -5 0 30 99 99 30 0 -5 -6 -6 -6 -6 -6 -6 -6 -6 -6 -6 -6 -6 -3 13 75 106 33 0 -5 -3 13 82 83 13 -3 -6 -6 -6 -6 -6 -6 -6 -6 -6 -6 -6 -6 -6 -6 -6 -6 -6 -6 -6 -6 -6 -6 -6 -6 -6 -6 -6 -6 -6 -6 -4 9 69 107 34 0 -5 -6 -6 -6 -6 -6 -6 -6 -4 9 68 107 33 0 -5 -6 -6 -4 13 83 
124 44 5 -4 -6 -6 -6 -6 -6 -6 -6 -6 -6 -6 -6 -6 -6 -6 -6 -6 -6 -3 14 75 107 41 4 -5 -6 -6 -6 -6 -6 -6 -6 -6 -6 -6 -6 -6 -5 0 33 106 75 13 -3 -6 -4 12 79 88 17 -3 -6 -6 -6 -6 -6 -6 -6 -6 -6 -6 -6 -6 -6 -6 -6 -6 -6 -6 -6 -6 -6 -6 -6 -6 -6 -6 -6 -6 -6 -6 -3 16 86 86 16 -3 -6 -6 -6 -6 -6 -6 -6 -6 -4 13 80 88 17 -3 -6 -6 -6 -4 13 86 
154 107 39 5 -4 -6 -6 -6 -6 -6 -6 -6 -6 -6 -6 -6 -6 -6 -6 -6 -5 4 41 107 75 14 -3 -6 -6 -6 -6 -6 -6 -6 -6 -6 -6 -6 -6 -6 -3 14 75 106 33 0 -5 -6 -4 9 68 107 33 0 -5 -6 -6 -6 -6 -6 -6 -6 -6 -6 -6 -6 -6 -6 -6 -6 -6 -6 -6 -6 -6 -6 -6 -6 -6 -6 -6 -6 -6 -5 0 34 107 69 9 -4 -6 -6 -6 -6 -6 -6 -6 -6 -3 17 88 80 13 -4 -6 -6 -6 -4 13 88 
118 115 101 38 3 -5 -6 -6 -6 -6 -6 -6 -6 -6 -6 -6 -6 -6 -6 -5 0 30 99 99 30 0 -5 -6 -6 -6 -6 -6 -6 -6 -6 -6 -6 -6 -6 -5 4 41 107 74 13 -3 -6 -6 -5 0 33 107 68 9 -4 -6 -6 -6 -6 -6 -6 -6 -6 -6 -6 -6 -6 -6 -6 -6 -6 -6 -6 -6 -6 -6 -6 -6 -6 -6 -6 -6 -6 -3 13 75 106 32 0 -5 -6 -6 -6 -6 -6 -6 -6 -5 0 33 107 68 9 -4 -6 -6 -6 -4 13 84 
92 57 103 99 30 0 -5 -6 -6 -6 -6 -6 -6 -6 -6 -6 -6 -6 -6 -3 14 75 107 41 4 -5 -6 -6 -6 -6 -6 -6 -6 -6 -6 -6 -6 -6 -5 0 30 99 99 30 0 -5 -6 -6 -6 -3 17 88 79 12 -4 -6 -6 -6 -6 -6 -6 -6 -6 -6 -6 -6 -6 -6 -6 -6 -6 -6 -6 -6 -6 -6 -6 -6 -6 -6 -6 -6 -5 0 32 106 75 13 -3 -6 -6 -6 -6 -6 -6 -6 -6 -4 9 68 107 33 0 -5 -6 -6 -6 -4 13 82 
84 25 44 107 75 14 -3 -6 -6 -6 -6 -6 -6 -6 -6 -6 -6 -6 -5 4 41 107 75 14 -3 -6 -6 -6 -6 -6 -6 -6 -6 -6 -6 -6 -6 -6 -3 13 74 107 41 4 -5 -6 -6 -6 -6 -3 13 83 82 13 -4 -6 -6 -6 -6 -6 -6 -6 -6 -6 -6 -6 -6 -6 -6 -6 -6 -6 -6 -6 -6 -6 -6 -6 -6 -6 -6 -6 -4 9 69 107 34 0 -5 -6 -6 -6 -6 -6 -6 -6 -6 -4 13 80 88 17 -3 -6 -6 -6 -6 -4 13 82 
82 16 16 75 107 42 5 -4 -6 -6 -6 -6 -6 -6 -6 -6 -6 -5 0 30 99 99 30 0 -5 -6 -6 -6 -6 -6 -6 -6 -6 -6 -6 -6 -6 -5 0 33 106 75 14 -3 -6 -6 -6 -6 -6 -4 13 82 82 13 -4 -6 -6 -6 -6 -6 -6 -6 -6 -6 -6 -6 -6 -6 -6 -6 -6 -6 -6 -6 -6 -6 -6 -6 -6 -6 -6 -6 -3 16 86 86 16 -3 -6 -6 -6 -6 -6 -6 -6 -6 -6 -3 17 88 80 13 -4 -6 -6 -6 -6 -4 13 82 
82 14 2 30 99 101 39 5 -4 -6 -6 -6 -6 -6 -6 -6 -6 -3 14 75 107 41 4 -5 -6 -6 -6 -6 -6 -6 -6 -6 -6 -6 -6 -6 -6 -3 13 75 106 33 0 -5 -6 -6 -6 -6 -6 -4 13 82 83 13 -3 -6 -6 -6 -6 -6 -6 -6 -6 -6 -6 -6 -6 -6 -6 -6 -6 -6 -6 -6 -6 -6 -6 -6 -6 -6 -6 -5 0 34 107 69 9 -4 -6 -6 -6 -6 -6 -6 -6 -6 -5 0 33 107 68 9 -4 -6 -6 -6 -6 -4 13 82 
82 13 -2 4 38 101 101 39 5 -4 -6 -6 -6 -6 -6 -6 -5 4 41 107 75 14 -3 -6 -6 -6 -6 -6 -6 -6 -6 -6 -6 -6 -6 -6 -5 0 33 106 75 13 -3 -6 -6 -6 -6 -6 -6 -4 12 79 88 17 -3 -6 -6 -6 -6 -6 -6 -6 -6 -6 -6 -6 -6 -6 -6 -6 -6 -6 -6 -6 -6 -6 -6 -6 -6 -6 -6 -3 13 75 106 32 0 -5 -6 -6 -6 -6 -6 -6 -6 -6 -4 9 68 107 33 0 -5 -6 -6 -6 -6 -4 13 82 
82 13 -3 -4 5 39 101 101 39 5 -4 -6 -6 -6 -6 -5 0 30 99 99 30 0 -5 -6 -6 -6 -6 -6 -6 -6 -6 -6 -6 -6 -6 -6 -3 14 75 106 33 0 -5 -6 -6 -6 -6 -6 -6 -4 9 68 107 33 0 -5 -6 -6 -6 -6 -6 -6 -6 -6 -6 -6 -6 -6 -6 -6 -6 -6 -6 -6 -6 -6 -6 -6 -6 -6 -5 0 32 106 75 13 -3 -6 -6 -6 -6 -6 -6 -6 -6 -6 -4 13 80 88 17 -3 -6 -6 -6 -6 -6 -4 13 82 
82 13 -4 -6 -4 5 39 101 101 39 5 -4 -6 -6 -6 -3 14 75 107 41 4 -5 -6 -6 -6 -6 -6 -6 -6 -6 -6 -6 -6 -6 -6 -5 4 41 107 74 13 -3 -6 -6 -6 -6 -6 -6 -6 -5 0 33 107 68 9 -4 -6 -6 -6 -6 -6 -6 -6 -6 -6 -6 -6 -6 -6 -6 -6 -6 -6 -6 -6 -6 -6 -6 -6 -6 -4 9 69 107 34 0 -5 -6 -6 -6 -6 -6 -6 -6 -6 -6 -3 17 88 80 13 -4 -6 -6 -6 -6 -6 -4 13 82 
82 13 -4 -6 -6 -4 5 39 101 101 39 5 -4 -6 -4 4 41 107 75 14 -3 -6 -6 -6 -6 -6 -6 -6 -6 -6 -6 -6 -6 -6 -5 0 30 99 99 30 0 -5 -6 -6 -6 -6 -6 -6 -6 -6 -3 17 88 79 12 -4 -6 -6 -6 -6 -6 -6 -6 -6 -6 -6 -6 -6 -6 -6 -6 -6 -6 -6 -6 -6 -6 -6 -6 -6 -3 16 86 86 16 -3 -6 -6 -6 -6 -6 -6 -6 -6 -6 -5 0 33 107 68 9 -4 -6 -6 -6 -6 -6 -4 13 82 
82 13 -4 -6 -6 -6 -4 5 39 101 101 39 5 -3 0 30 99 99 30 0 -5 -6 -6 -6 -6 -6 -6 -6 -6 -6 -6 -6 -6 -6 -3 13 74 107 41 4 -5 -6 -6 -6 -6 -6 -6 -6 -6 -6 -3 13 83 82 13 -4 -6 -6 -6 -6 -6 -6 -6 -6 -6 -6 -6 -6 -6 -6 -6 -6 -6 -6 -6 -6 -6 -6 -6 -5 0 34 107 69 9 -4 -6 -6 -6 -6 -6 -6 -6 -6 -6 -4 9 68 107 33 0 -5 -6 -6 -6 -6 -6 -4 13 82 
82 13 -4 -6 -6 -6 -6 -4 5 39 101 101 39 8 16 75 107 41 4 -5 -6 -6 -6 -6 -6 -6 -6 -6 -6 -6 -6 -6 -6 -5 0 33 106 75 14 -3 -6 -6 -6 -6 -6 -6 -6 -6 -6 -6 -4 13 82 83 13 -3 -6 -6 -6 -6 -6 -6 -6 -6 -6 -6 -6 -6 -6 -6 -6 -6 -6 -6 -6 -6 -6 -6 -6 -3 13 75 106 32 0 -5 -6 -6 -6 -6 -6 -6 -6 -6 -6 -4 13 80 88 17 -3 -6 -6 -6 -6 -6 -6 -4 13 82 
82 13 -4 -6 -6 -6 -6 -6 -4 5 39 101 102 49 51 108 75 14 -3 -6 -6 -6 -6 -6 -6 -6 -6 -6 -6 -6 -6 -6 -6 -3 13 75 106 33 0 -5 -6 -6 -6 -6 -6 -6 -6 -6 -6 -6 -4 12 79 88 17 -3 -6 -6 -6 -6 -6 -6 -6 -6 -6 -6 -6 -6 -6 -6 -6 -6 -6 -6 -6 -6 -6 -6 -5 0 32 106 75 13 -3 -6 -6 -6 -6 -6 -6 -6 -6 -6 -6 -3 17 88 80 13 -4 -6 -6 -6 -6 -6 -6 -4 13 82 
82 13 -4 -6 -6 -6 -6 -6 -6 -4 5 39 103 125 125 101 30 0 -5 -6 -6 -6 -6 -6 -6 -6 -6 -6 -6 -6 -6 -6 -5 0 33 106 75 13 -3 -6 -6 -6 -6 -6 -6 -6 -6 -6 -6 -6 -4 9 68 107 33 0 -5 -6 -6 -6 -6 -6 -6 -6 -6 -6 -6 -6 -6 -6 -6 -6 -6 -6 -6 -6 -6 -6 -4 9 69 107 34 0 -5 -6 -6 -6 -6 -6 -6 -6 -6 -6 -5 0 33 107 68 9 -4 -6 -6 -6 -6 -6 -6 -4 13 82 
82 13 -4 -6 -6 -6 -6 -6 -6 -6 -4 5 44 126 126 43 4 -4 -6 -6 -6 -6 -6 -6 -6 -6 -6 -6 -6 -6 -6 -6 -3 14 75 106 33 0 -5 -6 -6 -6 -6 -6 -6 -6 -6 -6 -6 -6 -5 0 33 107 68 9 -4 -6 -6 -6 -6 -6 -6 -6 -6 -6 -6 -6 -6 -6 -6 -6 -6 -6 -6 -6 -6 -6 -3 16 86 86 16 -3 -6 -6 -6 -6 -6 -6 -6 -6 -6 -6 -4 9 68 107 33 0 -5 -6 -6 -6 -6 -6 -6 -4 13 82 
82 13 -4 -6 -6 -6 -6 -6 -6 -6 -6 -2 18 92 93 19 -2 -6 -6 -6 -6 -6 -6 -6 -6 -6 -6 -6 -6 -6 -6 -5 4 41 107 74 13 -3 -6 -6 -6 -6 -6 -6 -6 -6 -6 -6 -6 -6 -6 -3 17 88 79 12 -4 -6 -6 -6 -6 -6 -6 -6 -6 -6 -6 -6 -6 -6 -6 -6 -6 -6 -6 -6 -6 -5 0 34 107 69 9 -4 -6 -6 -6 -6 -6 -6 -6 -6 -6 -6 -4 13 80 88 17 -3 -6 -6 -6 -6 -6 -6 -6 -4 13 82 
82 13 -4 -6 -6 -6 -6 -6 -6 -6 -6 -3 13 81 89 17 -3 -6 -6 -6 -6 -6 -6 -6 -6 -6 -6 -6 -6 -6 -5 0 30 99 99 30 0 -5 -6 -6 -6 -6 -6 -6 -6 -6 -6 -6 -6 -6 -6 -3 13 83 82 13 -4 -6 -6 -6 -6 -6 -6 -6 -6 -6 -6 -6 -6 -6 -6 -6 -6 -6 -6 -6 -6 -3 13 75 106 32 0 -5 -6 -6 -6 -6 -6 -6 -6 -6 -6 -6 -3 17 88 80 13 -4 -6 -6 -6 -6 -6 -6 -6 -4 13 82 
82 13 -4 -6 -6 -6 -6 -6 -6 -6 -6 -4 9 68 107 33 0 -5 -6 -6 -6 -6 -6 -6 -6 -6 -6 -6 -6 -6 -3 13 74 107 41 4 -5 -6 -6 -6 -6 -6 -6 -6 -6 -6 -6 -6 -6 -6 -6 -4 13 82 82 13 -4 -6 -6 -6 -6 -6 -6 -6 -6 -6 -6 -6 -6 -6 -6 -6 -6 -6 -6 -6 -5 0 32 106 75 13 -3 -6 -6 -6 -6 -6 -6 -6 -6 -6 -6 -5 0 33 107 68 9 -4 -6 -6 -6 -6 -6 -6 -6 -4 13 82 
82 13 -4 -6 -6 -6 -6 -6 -6 -6 -6 -5 0 33 107 68 9 -4 -6 -6 -6 -6 -6 -6 -6 -6 -6 -6 -6 -5 0 33 106 75 14 -3 -6 -6 -6 -6 -6 -6 -6 -6 -6 -6 -6 -6 -6 -6 -6 -4 13 82 83 13 -3 -6 -6 -6 -6 -6 -6 -6 -6 -6 -6 -6 -6 -6 -6 -6 -6 -6 -6 -6 -4 9 69 107 34 0 -5 -6 -6 -6 -6 -6 -6 -6 -6 -6 -6 -4 9 68 107 33 0 -5 -6 -6 -6 -6 -6 -6 -6 -4 13 82 
82 13 -4 -6 -6 -6 -6 -6 -6 -6 -6 -6 -3 17 88 79 12 -4 -6 -6 -6 -6 -6 -6 -6 -6 -6 -6 -6 -3 13 75 106 33 0 -5 -6 -6 -6 -6 -6 -6 -6 -6 -6 -6 -6 -6 -6 -6 -6 -4 12 79 88 17 -3 -6 -6 -6 -6 -6 -6 -6 -6 -6 -6 -6 -6 -6 -6 -6 -6 -6 -6 -6 -3 16 86 86 16 -3 -6 -6 -6 -6 -6 -6 -6 -6 -6 -6 -6 -4 13 80 88 17 -3 -6 -6 -6 -6 -6 -6 -6 -6 -4 13 82 
82 13 -4 -6 -6 -6 -6 -6 -6 -6 -6 -6 -3 13 83 83 13 -3 -6 -6 -6 -6 -6 -6 -6 -6 -6 -6 -5 0 33 106 75 13 -3 -6 -6 -6 -6 -6 -6 -6 -6 -6 -6 -6 -6 -6 -6 -6 -6 -4 9 68 107 33 0 -5 -6 -6 -6 -6 -6 -6 -6 -6 -6 -6 -6 -6 -6 -6 -6 -6 -6 -5 0 34 107 69 9 -4 -6 -6 -6 -6 -6 -6 -6 -6 -6 -6 -6 -3 17 88 80 13 -4 -6 -6 -6 -6 -6 -6 -6 -6 -3 13 83 
83 13 -4 -6 -6 -6 -6 -6 -6 -6 -6 -6 -4 12 79 88 17 -3 -6 -6 -6 -6 -6 -6 -6 -6 -6 -6 -3 14 75 106 33 0 -5 -6 -6 -6 -6 -6 -6 -6 -6 -6 -6 -6 -6 -6 -6 -6 -6 -5 0 33 107 68 9 -4 -6 -6 -6 -6 -6 -6 -6 -6 -6 -6 -6 -6 -6 -6 -6 -6 -6 -3 13 75 106 32 0 -5 -6 -6 -6 -6 -6 -6 -6 -6 -6 -6 -5 0 33 107 68 9 -4 -6 -6 -6 -6 -6 -6 -6 -6 -3 17 91 
86 13 -4 -6 -6 -6 -6 -6 -6 -6 -6 -6 -4 9 68 107 33 0 -5 -6 -6 -6 -6 -6 -6 -6 -6 -5 4 41 107 74 13 -3 -6 -6 -6 -6 -6 -6 -6 -6 -6 -6 -6 -6 -6 -6 -6 -6 -6 -6 -3 17 88 79 12 -4 -6 -6 -6 -6 -6 -6 -6 -6 -6 -6 -6 -6 -6 -6 -6 -6 -5 0 32 106 75 13 -3 -6 -6 -6 -6 -6 -6 -6 -6 -6 -6 -6 -4 9 68 107 33 0 -5 -6 -6 -6 -6 -6 -6 -6 -5 0 35 122 
88 13 -4 -6 -6 -6 -6 -6 -6 -6 -6 -6 -5 0 33 107 68 9 -4 -6 -6 -6 -6 -6 -6 -6 -5 0 30 99 99 30 0 -5 -6 -6 -6 -6 -6 -6 -6 -6 -6 -6 -6 -6 -6 -6 -6 -6 -6 -6 -3 13 83 82 13 -4 -6 -6 -6 -6 -6 -6 -6 -6 -6 -6 -6 -6 -6 -6 -6 -6 -4 9 69 107 34 0 -5 -6 -6 -6 -6 -6 -6 -6 -6 -6 -6 -6 -4 13 80 88 17 -3 -6 -6 -6 -6 -6 -6 -6 -6 -3 14 78 155 
86 13 -4 -6 -6 -6 -6 -6 -6 -6 -6 -6 -6 -3 17 88 79 12 -4 -6 -6 -6 -6 -6 -6 -6 -3 13 74 107 41 4 -5 -6 -6 -6 -6 -6 -6 -6 -6 -6 -6 -6 -6 -6 -6 -6 -6 -6 -6 -6 -4 13 82 82 13 -4 -6 -6 -6 -6 -6 -6 -6 -6 -6 -6 -6 -6 -6 -6 -6 -6 -3 16 86 86 16 -3 -6 -6 -6 -6 -6 -6 -6 -6 -6 -6 -6 -6 -3 17 88 80 13 -4 -6 -6 -6 -6 -6 -6 -6 -5 4 42 114 142 
83 13 -4 -6 -6 -6 -6 -6 -6 -6 -6 -6 -6 -3 13 83 83 13 -3 -6 -6 -6 -6 -6 -6 -5 0 33 106 75 14 -3 -6 -6 -6 -6 -6 -6 -6 -6 -6 -6 -6 -6 -6 -6 -6 -6 -6 -6 -6 -6 -4 13 82 83 13 -3 -6 -6 -6 -6 -6 -6 -6 -6 -6 -6 -6 -6 -6 -6 -6 -5 0 34 107 69 9 -4 -6 -6 -6 -6 -6 -6 -6 -6 -6 -6 -6 -5 0 33 107 68 9 -4 -6 -6 -6 -6 -6 -6 -5 0 30 100 114 112 
82 13 -4 -6 -6 -6 -6 -6 -6 -6 -6 -6 -6 -4 12 79 88 17 -3 -6 -6 -6 -6 -6 -6 -3 13 75 106 33 0 -5 -6 -6 -6 -6 -6 -6 -6 -6 -6 -6 -6 -6 -6 -6 -6 -6 -6 -6 -6 -6 -4 12 79 88 17 -3 -6 -6 -6 -6 -6 -6 -6 -6 -6 -6 -6 -6 -6 -6 -6 -3 13 75 106 32 0 -5 -6 -6 -6 -6 -6 -6 -6 -6 -6 -6 -6 -4 9 68 107 33 0 -5 -6 -6 -6 -6 -6 -6 -3 14 75 109 60 91 
82 13 -4 -6 -6 -6 -6 -6 -6 -6 -6 -6 -6 -4 9 68 107 33 0 -5 -6 -6 -6 -6 -5 0 33 106 75 13 -3 -6 -6 -6 -6 -6 -6 -6 -6 -6 -6 -6 -6 -6 -6 -6 -6 -6 -6 -6 -6 -6 -4 9 68 107 33 0 -5 -6 -6 -6 -6 -6 -6 -6 -6 -6 -6 -6 -6 -6 -5 0 32 106 75 13 -3 -6 -6 -6 -6 -6 -6 -6 -6 -6 -6 -6 -6 -4 13 80 88 17 -3 -6 -6 -6 -6 -6 -6 -5 4 41 107 77 33 85 
82 13 -4 -6 -6 -6 -6 -6 -6 -6 -6 -6 -6 -5 0 33 107 68 9 -4 -6 -6 -6 -6 -3 14 75 106 33 0 -5 -6 -6 -6 -6 -6 -6 -6 -6 -6 -6 -6 -6 -6 -6 -6 -6 -6 -6 -6 -6 -6 -5 0 33 107 68 9 -4 -6 -6 -6 -6 -6 -6 -6 -6 -6 -6 -6 -6 -6 -4 9 69 107 34 0 -5 -6 -6 -6 -6 -6 -6 -6 -6 -6 -6 -6 -6 -3 17 88 80 13 -4 -6 -6 -6 -6 -6 -5 0 30 99 99 33 20 83 
82 13 -4 -6 -6 -6 -6 -6 -6 -6 -6 -6 -6 -6 -3 17 88 79 12 -4 -6 -6 -6 -5 4 41 107 74 13 -3 -6 -6 -6 -6 -6 -6 -6 -6 -6 -6 -6 -6 -6 -6 -6 -6 -6 -6 -6 -6 -6 -6 -6 -2 17 89 81 15 -1 -3 -4 -4 -5 -6 -6 -6 -6 -6 -6 -6 -6 -6 -3 16 86 86 16 -3 -6 -6 -6 -6 -6 -6 -6 -6 -6 -6 -6 -6 -5 0 33 107 68 9 -4 -6 -6 -6 -6 -6 -3 14 75 107 42 6 15 82 
82 13 -4 -6 -6 -6 -6 -6 -6 -6 -6 -6 -6 -6 -3 13 83 83 13 -3 -6 -6 -5 0 30 99 99 30 0 -5 -6 -6 -6 -6 -6 -6 -6 -6 -6 -6 -6 -6 -6 -6 -6 -6 -6 -6 -6 -6 -6 -6 -5 -1 19 93 95 32 15 13 12 9 0 -3 -3 -4 -4 -4 -4 -5 -6 -5 0 34 107 69 9 -4 -6 -6 -6 -6 -6 -6 -6 -6 -6 -6 -6 -6 -4 9 68 107 33 0 -5 -6 -6 -6 -6 -5 4 41 107 75 14 0 13 82 
82 13 -4 -6 -6 -6 -6 -6 -6 -6 -6 -6 -6 -6 -4 12 79 88 17 -3 -6 -6 -3 13 74 107 41 4 -5 -6 -6 -6 -6 -6 -6 -6 -6 -6 -6 -6 -6 -6 -6 -6 -6 -6 -6 -6 -6 -6 -6 -5 0 14 47 126 136 95 84 82 79 68 33 17 13 13 13 12 9 0 -2 -1 15 75 106 32 0 -5 -6 -6 -6 -6 -6 -6 -6 -6 -6 -6 -6 -6 -4 13 80 88 17 -3 -6 -6 -6 -6 -5 0 30 99 99 30 0 -3 13 82 
82 13 -4 -6 -6 -6 -6 -6 -6 -6 -6 -6 -6 -6 -4 9 68 107 33 0 -5 -5 0 33 106 75 14 -3 -6 -6 -6 -6 -6 -6 -6 -6 -6 -6 -6 -6 -6 -6 -6 -6 -6 -6 -6 -6 -6 -5 -3 4 30 75 109 116 95 84 82 83 88 107 107 88 83 82 82 79 68 33 17 19 47 110 76 13 -3 -6 -6 -6 -6 -6 -6 -6 -6 -6 -6 -6 -6 -6 -3 17 88 80 13 -4 -6 -6 -6 -6 -3 14 75 107 41 4 -4 -3 13 82 
82 13 -4 -6 -6 -6 -6 -6 -6 -6 -6 -6 -6 -6 -5 0 33 107 68 9 -4 -3 13 75 106 33 0 -5 -6 -6 -6 -6 -6 -6 -6 -6 -6 -6 -6 -6 -6 -6 -6 -6 -6 -6 -6 -6 -5 0 14 41 99 107 75 34 17 13 13 13 17 33 68 79 82 82 83 88 107 107 89 93 126 123 38 1 -5 -6 -6 -6 -6 -6 -6 -6 -6 -6 -6 -6 -6 -5 0 33 107 68 9 -4 -6 -6 -6 -5 4 41 107 75 14 -3 -6 -4 13 82 
82 13 -4 -6 -6 -6 -6 -6 -6 -6 -6 -6 -6 -6 -6 -3 17 88 79 12 -3 1 33 106 75 13 -3 -6 -6 -6 -6 -6 -6 -6 -6 -6 -6 -6 -6 -6 -6 -6 -6 -6 -6 -6 -5 -3 4 30 75 107 99 41 14 0 -3 -3 -4 -3 -3 0 9 12 13 13 13 17 33 68 81 92 126 123 38 1 -5 -6 -6 -6 -6 -6 -6 -6 -6 -6 -6 -6 -6 -4 9 68 107 33 0 -5 -6 -6 -5 0 30 99 99 30 0 -5 -6 -4 13 82 
82 13 -4 -6 -6 -6 -6 -6 -6 -6 -6 -6 -6 -6 -6 -3 13 83 83 14 0 14 75 106 33 0 -5 -6 -6 -6 -6 -6 -6 -6 -6 -6 -6 -6 -6 -6 -6 -6 -6 -6 -6 -5 0 14 41 99 107 75 30 4 -3 -5 -6 -6 -6 -6 -6 -5 -4 -4 -4 -4 -3 -3 0 9 13 19 47 110 76 14 -3 -6 -6 -6 -6 -6 -6 -6 -6 -6 -6 -6 -6 -4 13 80 88 17 -3 -6 -6 -6 -3 14 75 107 41 4 -5 -6 -6 -4 13 82 
82 13 -4 -6 -6 -6 -6 -6 -6 -6 -6 -6 -6 -6 -6 -4 12 79 88 18 7 42 107 74 13 -3 -6 -6 -6 -6 -6 -6 -6 -6 -6 -6 -6 -6 -6 -6 -6 -6 -6 -6 -4 3 30 75 107 99 41 14 0 -5 -6 -6 -6 -6 -6 -6 -6 -6 -6 -6 -6 -6 -6 -6 -5 -4 -3 -1 14 75 107 42 6 -3 -5 -6 -6 -6 -6 -6 -6 -6 -6 -6 -6 -3 17 88 80 13 -4 -6 -6 -5 4 41 107 75 14 -3 -6 -6 -6 -4 13 82 
82 13 -4 -6 -6 -6 -6 -6 -6 -6 -6 -6 -6 -6 -6 -4 9 68 108 39 37 100 99 30 0 -5 -6 -6 -6 -6 -6 -6 -6 -6 -6 -6 -6 -6 -6 -6 -6 -6 -5 -3 5 38 99 107 75 30 4 -3 -5 -6 -6 -6 -6 -6 -6 -6 -6 -6 -6 -6 -6 -6 -6 -6 -6 -6 -6 -5 0 30 100 103 43 14 0 -3 -3 -4 -4 -4 -4 -4 -4 -3 -3 2 35 108 68 9 -4 -6 -5 0 30 99 99 30 0 -5 -6 -6 -6 -4 13 82 
82 13 -4 -6 -6 -6 -6 -6 -6 -6 -6 -6 -6 -6 -6 -5 0 33 108 84 88 108 41 4 -5 -6 -6 -6 -6 -6 -6 -6 -6 -6 -6 -6 -6 -6 -6 -6 -6 -5 0 14 42 101 101 42 14 0 -5 -6 -6 -6 -6 -6 -6 -6 -6 -6 -6 -6 -6 -6 -6 -6 -6 -6 -6 -6 -6 -6 -4 4 43 118 123 78 34 17 13 13 13 13 13 13 13 13 15 28 82 117 39 2 -4 -5 -3 14 75 107 41 4 -5 -6 -6 -6 -6 -4 13 82 
82 13 -4 -6 -6 -6 -6 -6 -6 -6 -6 -6 -6 -6 -6 -6 -3 17 90 112 119 76 14 -3 -6 -6 -6 -6 -6 -6 -6 -6 -6 -6 -6 -6 -6 -6 -6 -5 -3 4 30 75 107 99 38 5 -3 -5 -6 -6 -6 -6 -6 -6 -6 -6 -6 -6 -6 -6 -6 -6 -6 -6 -6 -6 -6 -6 -6 -6 -6 -2 19 96 141 119 108 88 83 82 82 82 82 82 82 82 84 94 134 131 50 15 1 -2 5 42 107 75 14 -3 -6 -6 -6 -6 -6 -4 13 82 
82 13 -4 -6 -6 -6 -6 -6 -6 -6 -6 -6 -6 -6 -6 -6 -3 13 87 142 113 33 0 -5 -6 -6 -6 -6 -6 -6 -6 -6 -6 -6 -6 -6 -6 -6 -5 0 14 41 99 107 75 30 3 -4 -6 -6 -6 -6 -6 -6 -6 -6 -6 -6 -6 -6 -6 -6 -6 -6 -6 -6 -6 -6 -6 -6 -6 -6 -6 -3 17 91 95 50 70 80 82 82 82 82 82 82 82 82 82 84 95 117 110 76 34 19 35 100 99 30 0 -5 -6 -6 -6 -6 -6 -4 13 82 
82 13 -4 -6 -6 -6 -6 -6 -6 -6 -6 -6 -6 -6 -6 -6 -4 13 88 155 78 13 -3 -6 -6 -6 -6 -6 -6 -6 -6 -6 -6 -6 -6 -6 -5 -3 4 30 75 107 99 41 14 0 -5 -6 -6 -6 -6 -6 -6 -6 -6 -6 -6 -6 -6 -6 -6 -6 -6 -6 -6 -6 -6 -6 -6 -6 -6 -6 -5 0 33 108 70 15 11 12 13 13 13 13 13 13 13 13 13 13 17 34 75 106 107 88 98 113 43 4 -4 -6 -6 -6 -6 -6 -6 -4 13 82 
82 13 -4 -6 -6 -6 -6 -6 -6 -6 -6 -6 -6 -6 -6 -6 -4 13 86 122 35 0 -5 -6 -6 -6 -6 -6 -6 -6 -6 -6 -6 -6 -6 -5 0 14 42 100 107 75 30 4 -3 -5 -6 -6 -6 -6 -6 -6 -6 -6 -6 -6 -6 -6 -6 -6 -6 -6 -6 -6 -6 -6 -6 -6 -6 -6 -6 -6 -4 9 68 107 33 1 -3 -4 -4 -4 -4 -4 -4 -4 -4 -4 -4 -3 -3 0 13 33 76 114 152 103 24 -1 -6 -6 -6 -6 -6 -6 -6 -4 13 82 
82 13 -4 -6 -6 -6 -6 -6 -6 -6 -6 -6 -6 -6 -6 -6 -4 13 83 91 17 -3 -6 -6 -6 -6 -6 -6 -6 -6 -6 -6 -5 -4 -2 4 31 77 113 104 45 16 2 -2 -5 -6 -6 -6 -6 -6 -6 -6 -6 -6 -6 -6 -6 -6 -6 -6 -6 -6 -6 -6 -6 -6 -6 -6 -6 -6 -6 -6 -4 12 79 88 17 -3 -6 -6 -6 -6 -6 -6 -6 -6 -6 -6 -6 -6 -6 -5 -3 0 14 43 113 117 43 4 -4 -6 -6 -6 -6 -6 -6 -4 13 82 
82 13 -4 -6 -6 -6 -6 -6 -6 -6 -6 -6 -6 -6 -6 -6 -3 13 83 83 13 -3 -6 -6 -6 -6 -6 -6 -6 -6 -5 -3 0 9 17 43 110 153 133 68 27 17 13 9 0 -3 -4 -4 -5 -6 -6 -6 -6 -6 -6 -6 -6 -6 -6 -6 -6 -6 -6 -6 -6 -6 -6 -6 -6 -6 -6 -6 -4 13 82 83 13 -3 -6 -6 -6 -6 -6 -6 -6 -6 -6 -6 -6 -6 -6 -6 -6 -5 -3 5 39 102 100 30 0 -5 -6 -6 -6 -6 -6 -4 13 82 
82 13 -4 -6 -6 -6 -6 -6 -6 -6 -6 -6 -6 -6 -6 -6 -3 17 88 80 12 -4 -6 -6 -6 -6 -6 -6 -5 -3 0 13 32 69 86 110 115 103 115 112 89 83 80 68 33 17 13 9 0 -3 -3 -4 -4 -5 -6 -6 -6 -6 -6 -6 -6 -6 -6 -6 -6 -6 -6 -6 -6 -6 -6 -6 -3 13 83 82 13 -4 -6 -6 -6 -6 -6 -6 -6 -6 -6 -6 -6 -6 -6 -6 -6 -6 -6 -4 5 42 107 75 14 -3 -6 -6 -6 -6 -6 -4 13 82 
82 13 -4 -6 -6 -6 -6 -6 -6 -6 -6 -6 -6 -6 -6 -5 0 33 107 68 9 -4 -6 -6 -6 -5 -4 -3 0 13 33 75 106 107 86 69 34 21 33 68 80 83 88 107 107 88 80 68 33 17 13 12 9 0 -3 -4 -4 -5 -6 -6 -6 -6 -6 -6 -6 -6 -6 -6 -6 -6 -6 -6 -3 17 88 79 12 -4 -6 -6 -6 -6 -6 -6 -6 -6 -6 -6 -6 -6 -6 -6 -6 -6 -6 -6 -3 14 75 107 41 4 -5 -6 -6 -6 -6 -4 13 82 
82 13 -4 -6 -6 -6 -6 -6 -6 -6 -6 -6 -6 -6 -6 -4 9 68 107 33 0 -5 -6 -5 -3 0 9 16 34 75 106 106 75 34 16 9 0 -2 0 9 12 13 17 33 68 80 88 107 107 88 83 79 68 33 17 13 9 0 -3 -3 -4 -4 -5 -6 -6 -6 -6 -6 -6 -6 -6 -5 0 33 107 68 9 -4 -6 -6 -6 -6 -6 -6 -6 -6 -6 -6 -6 -6 -6 -6 -6 -6 -6 -6 -5 0 30 99 99 30 0 -5 -6 -6 -6 -4 13 82 
82 13 -4 -6 -6 -6 -6 -6 -6 -6 -6 -6 -6 -6 -6 -4 12 79 88 17 -2 -5 -3 0 13 32 69 86 107 106 75 33 13 0 -3 -4 -5 -6 -5 -4 -4 -3 -3 0 9 13 17 33 68 79 83 88 107 107 88 80 68 33 17 13 12 9 0 -3 -4 -4 -5 -6 -6 -6 -6 -4 9 68 107 33 0 -5 -6 -6 -6 -6 -6 -6 -6 -6 -6 -6 -6 -6 -6 -6 -6 -6 -6 -6 -6 -5 4 41 107 75 14 -3 -6 -6 -6 -4 13 82 
82 13 -4 -6 -6 -6 -6 -6 -6 -6 -6 -6 -6 -6 -6 -3 13 83 83 14 -1 0 13 33 75 106 107 86 69 32 13 0 -3 -5 -6 -6 -6 -6 -6 -6 -6 -6 -6 -5 -4 -4 -3 0 9 12 13 17 33 68 80 88 107 107 88 83 79 68 33 17 13 9 0 -3 -3 -4 -4 -3 12 80 88 17 -3 -6 -6 -6 -6 -6 -6 -6 -6 -6 -6 -6 -6 -6 -6 -6 -6 -6 -6 -6 -6 -6 -3 14 75 107 42 5 -4 -6 -6 -4 13 82 
82 13 -4 -6 -6 -6 -6 -6 -6 -6 -6 -6 -6 -6 -6 -3 17 89 82 19 15 34 75 106 106 75 34 16 9 0 -3 -5 -6 -6 -6 -6 -6 -6 -6 -6 -6 -6 -6 -6 -6 -6 -6 -5 -4 -4 -3 -3 0 9 13 17 33 68 79 83 88 107 107 88 80 68 33 17 13 12 9 2 16 83 83 13 -3 -6 -6 -6 -6 -6 -6 -6 -6 -6 -6 -6 -6 -6 -6 -6 -6 -6 -6 -6 -6 -6 -5 0 30 99 101 38 3 -5 -6 -4 13 82 
82 13 -4 -6 -6 -6 -6 -6 -6 -6 -6 -6 -6 -6 -5 0 34 113 87 49 77 106 106 75 33 13 0 -3 -4 -5 -6 -6 -6 -6 -6 -6 -6 -6 -6 -6 -6 -6 -6 -6 -6 -6 -6 -6 -6 -6 -6 -6 -5 -4 -4 -3 0 9 12 13 17 33 68 80 88 107 107 88 83 79 68 35 35 95 83 13 -4 -6 -6 -6 -6 -6 -6 -6 -6 -6 -6 -6 -6 -6 -6 -6 -6 -6 -6 -6 -6 -6 -6 -5 3 38 101 99 30 0 -5 -3 13 82 
82 13 -4 -6 -6 -6 -6 -6 -6 -6 -6 -6 -6 -6 -3 13 79 150 116 112 106 75 33 13 0 -3 -5 -6 -6 -6 -6 -6 -6 -6 -6 -6 -6 -6 -6 -6 -6 -6 -6 -6 -6 -6 -6 -6 -6 -6 -6 -6 -6 -6 -6 -6 -5 -4 -4 -3 -3 0 9 13 17 33 68 79 83 88 107 109 101 137 87 13 -4 -6 -6 -6 -6 -6 -6 -6 -6 -6 -6 -6 -6 -6 -6 -6 -6 -6 -6 -6 -6 -6 -6 -6 -4 5 42 107 75 14 -2 -3 13 82 
82 13 -4 -6 -6 -6 -6 -6 -6 -6 -6 -6 -6 -5 0 34 113 125 90 69 32 13 0 -3 -5 -6 -6 -6 -6 -6 -6 -6 -6 -6 -6 -6 -6 -6 -6 -6 -6 -6 -6 -6 -6 -6 -6 -6 -6 -6 -6 -6 -6 -6 -6 -6 -6 -6 -6 -6 -6 -5 -4 -4 -3 0 9 12 13 17 33 69 93 136 87 13 -4 -6 -6 -6 -6 -6 -6 -6 -6 -6 -6 -6 -6 -6 -6 -6 -6 -6 -6 -6 -6 -6 -6 -6 -6 -3 14 75 107 42 5 -1 13 82 
82 13 -4 -6 -6 -6 -6 -6 -6 -6 -6 -6 -6 -3 14 75 109 47 18 9 0 -3 -5 -6 -6 -6 -6 -6 -6 -6 -6 -6 -6 -6 -6 -6 -6 -6 -6 -6 -6 -6 -6 -6 -6 -6 -6 -6 -6 -6 -6 -6 -6 -6 -6 -6 -6 -6 -6 -6 -6 -6 -6 -6 -6 -5 -4 -4 -3 -3 0 11 31 95 83 13 -4 -6 -6 -6 -6 -6 -6 -6 -6 -6 -6 -6 -6 -6 -6 -6 -6 -6 -6 -6 -6 -6 -6 -6 -6 -5 0 30 99 101 39 6 14 82 
82 13 -4 -6 -6 -6 -6 -6 -6 -6 -6 -6 -5 4 41 107 75 14 -1 -4 -5 -6 -6 -6 -6 -6 -6 -6 -6 -6 -6 -6 -6 -6 -6 -6 -6 -6 -6 -6 -6 -6 -6 -6 -6 -6 -6 -6 -6 -6 -6 -6 -6 -6 -6 -6 -6 -6 -6 -6 -6 -6 -6 -6 -6 -6 -6 -6 -6 -6 -5 -2 15 84 82 13 -4 -6 -6 -6 -6 -6 -6 -6 -6 -6 -6 -6 -6 -6 -6 -6 -6 -6 -6 -6 -6 -6 -6 -6 -6 -6 -5 3 38 101 99 32 20 83 
82 13 -4 -6 -6 -6 -6 -6 -6 -6 -6 -5 0 30 99 99 30 0 -5 -6 -6 -6 -6 -6 -6 -6 -6 -6 -6 -6 -6 -6 -6 -6 -6 -6 -6 -6 -6 -6 -6 -6 -6 -6 -6 -6 -6 -6 -6 -6 -6 -6 -6 -6 -6 -6 -6 -6 -6 -6 -6 -6 -6 -6 -6 -6 -6 -6 -6 -6 -6 -3 13 82 82 13 -4 -6 -6 -6 -6 -6 -6 -6 -6 -6 -6 -6 -6 -6 -6 -6 -6 -6 -6 -6 -6 -6 -6 -6 -6 -6 -6 -4 5 42 107 77 33 85 
82 13 -4 -6 -6 -6 -6 -6 -6 -6 -6 -3 14 75 107 41 4 -4 -6 -6 -6 -6 -6 -6 -6 -6 -6 -6 -6 -6 -6 -6 -6 -6 -6 -6 -6 -6 -6 -6 -6 -6 -6 -6 -6 -6 -6 -6 -6 -6 -6 -6 -6 -6 -6 -6 -6 -6 -6 -6 -6 -6 -6 -6 -6 -6 -6 -6 -6 -6 -6 -4 13 82 83 14 -3 -6 -6 -6 -6 -6 -6 -6 -6 -6 -6 -6 -6 -6 -6 -6 -6 -6 -6 -6 -6 -6 -6 -6 -6 -6 -6 -6 -3 14 75 109 60 91 
83 13 -4 -6 -6 -6 -6 -6 -6 -6 -4 5 42 107 75 14 -3 -6 -6 -6 -6 -6 -6 -6 -6 -6 -6 -6 -6 -6 -6 -6 -6 -6 -6 -6 -6 -6 -6 -6 -6 -6 -6 -6 -6 -6 -6 -6 -6 -6 -6 -6 -6 -6 -6 -6 -6 -6 -6 -6 -6 -6 -6 -6 -6 -6 -6 -6 -6 -6 -6 -3 13 81 89 18 -2 -6 -6 -6 -6 -6 -6 -6 -6 -6 -6 -6 -6 -6 -6 -6 -6 -6 -6 -6 -6 -6 -6 -6 -6 -6 -6 -6 -5 0 30 100 114 112 
86 13 -4 -6 -6 -6 -6 -6 -6 -4 5 39 102 101 32 2 -3 -5 -6 -6 -6 -6 -6 -6 -6 -6 -6 -6 -6 -6 -6 -6 -6 -6 -6 -6 -6 -6 -6 -6 -6 -6 -6 -6 -6 -6 -6 -6 -6 -6 -6 -6 -6 -6 -6 -6 -6 -6 -6 -6 -6 -6 -6 -6 -6 -6 -6 -6 -6 -6 -5 -1 15 81 115 44 6 -3 -5 -6 -6 -6 -6 -6 -6 -6 -6 -6 -6 -6 -6 -6 -6 -6 -6 -6 -6 -6 -6 -6 -6 -6 -6 -6 -6 -5 4 42 114 142 
88 13 -4 -6 -6 -6 -6 -6 -4 5 39 106 115 57 23 14 9 0 -3 -3 -4 -4 -4 -4 -4 -4 -4 -4 -4 -5 -6 -6 -6 -6 -6 -6 -6 -6 -6 -6 -6 -6 -6 -6 -6 -6 -6 -6 -6 -6 -6 -6 -6 -6 -6 -6 -6 -6 -6 -6 -6 -6 -6 -6 -6 -6 -6 -6 -6 -5 0 13 38 98 152 113 43 14 0 -3 -5 -6 -6 -6 -6 -6 -6 -6 -6 -6 -6 -6 -6 -6 -6 -6 -6 -6 -6 -6 -6 -6 -6 -6 -6 -6 -3 14 78 155 
86 13 -4 -6 -6 -6 -6 -4 5 39 112 153 118 92 83 80 68 33 17 13 13 13 13 13 13 13 13 12 9 0 -3 -3 -4 -4 -4 -4 -4 -4 -4 -4 -5 -6 -6 -6 -6 -6 -6 -6 -6 -6 -6 -6 -6 -6 -6 -6 -6 -6 -6 -6 -6 -6 -6 -6 -6 -6 -6 -5 -3 4 30 75 107 112 103 116 109 75 33 13 0 -5 -6 -6 -6 -6 -6 -6 -6 -6 -6 -6 -6 -6 -6 -6 -6 -6 -6 -6 -6 -6 -6 -6 -6 -6 -5 0 35 122 
83 13 -4 -6 -6 -6 -4 5 39 102 116 96 85 83 83 88 107 107 88 83 82 82 82 82 82 82 82 79 68 33 17 13 13 13 13 13 13 13 12 9 0 -3 -3 -4 -4 -4 -4 -4 -4 -4 -4 -4 -5 -6 -6 -6 -6 -6 -6 -6 -6 -6 -6 -6 -6 -5 -3 0 14 41 99 107 75 35 21 35 75 106 106 74 30 4 -3 -5 -6 -6 -6 -6 -6 -6 -6 -6 -6 -6 -6 -6 -6 -6 -6 -6 -6 -6 -6 -6 -6 -6 -6 -3 17 91 
82 13 -4 -6 -6 -4 5 39 101 101 43 18 14 13 13 17 33 68 79 82 82 82 82 82 82 82 83 88 107 107 88 83 82 82 82 82 82 82 79 68 33 17 13 13 13 13 13 13 13 13 12 9 0 -3 -3 -4 -4 -4 -4 -4 -4 -4 -4 -5 -4 0 13 33 75 107 99 41 14 1 -2 0 13 33 75 107 99 41 14 0 -3 -5 -6 -6 -6 -6 -6 -6 -6 -6 -6 -6 -6 -6 -6 -6 -6 -6 -6 -6 -6 -6 -6 -3 13 83 
82 13 -3 -5 -3 5 39 101 101 39 5 -2 -3 -4 -3 -3 0 9 12 13 13 13 13 13 13 13 13 17 33 68 79 82 82 82 82 82 82 83 88 107 107 88 83 82 82 82 82 82 82 82 79 68 33 17 13 13 13 13 13 13 13 12 9 1 5 30 74 106 106 74 30 4 -3 -5 -6 -5 -3 0 14 41 99 107 75 33 13 0 -5 -6 -6 -6 -6 -6 -6 -6 -6 -6 -6 -6 -6 -6 -6 -6 -6 -6 -6 -6 -6 -4 13 82 
82 13 -2 0 14 42 101 101 39 5 -4 -6 -6 -6 -6 -6 -5 -4 -4 -4 -4 -4 -4 -4 -4 -4 -3 -3 0 9 12 13 13 13 13 13 13 13 17 33 68 79 82 82 82 82 82 82 82 83 88 107 107 88 83 82 82 82 82 82 82 79 68 38 46 100 107 75 33 13 0 -5 -6 -6 -6 -6 -6 -5 -3 4 30 74 106 106 74 30 4 -3 -5 -6 -6 -6 -6 -6 -6 -6 -6 -6 -6 -6 -6 -6 -6 -6 -6 -6 -6 -4 13 82 
82 15 6 30 75 107 99 38 5 -4 -6 -6 -6 -6 -6 -6 -6 -6 -6 -6 -6 -6 -6 -6 -6 -6 -6 -6 -5 -4 -4 -4 -4 -4 -4 -4 -4 -3 -3 0 9 12 13 13 13 13 13 13 13 13 17 33 68 79 82 82 82 82 82 82 83 89 111 123 124 103 42 14 0 -3 -5 -6 -6 -6 -6 -6 -6 -6 -6 -5 0 13 33 75 107 99 41 14 0 -3 -5 -6 -6 -6 -6 -6 -6 -6 -6 -6 -6 -6 -6 -6 -6 -6 -6 -4 13 82 
84 24 41 99 107 75 30 3 -4 -6 -6 -6 -6 -6 -6 -6 -6 -6 -6 -6 -6 -6 -6 -6 -6 -6 -6 -6 -6 -6 -6 -6 -6 -6 -6 -6 -6 -6 -6 -5 -4 -4 -4 -4 -4 -4 -4 -4 -4 -3 -3 0 9 12 13 13 13 13 13 13 14 19 47 126 126 44 6 -3 -5 -6 -6 -6 -6 -6 -6 -6 -6 -6 -6 -6 -5 -3 0 14 41 99 107 75 33 13 0 -5 -6 -6 -6 -6 -6 -6 -6 -6 -6 -6 -6 -6 -6 -6 -6 -4 13 82 
92 57 102 101 42 14 0 -5 -6 -6 -6 -6 -6 -6 -6 -6 -6 -6 -6 -6 -6 -6 -6 -6 -6 -6 -6 -6 -6 -6 -6 -6 -6 -6 -6 -6 -6 -6 -6 -6 -6 -6 -6 -6 -6 -6 -6 -6 -6 -6 -6 -5 -4 -4 -4 -4 -4 -4 -4 -4 -3 0 19 92 92 18 -2 -6 -6 -6 -6 -6 -6 -6 -6 -6 -6 -6 -6 -6 -6 -6 -5 -3 4 30 74 106 106 74 30 4 -3 -5 -6 -6 -6 -6 -6 -6 -6 -6 -6 -6 -6 -6 -6 -4 13 82 
118 115 101 39 5 -3 -5 -6 -6 -6 -6 -6 -6 -6 -6 -6 -6 -6 -6 -6 -6 -6 -6 -6 -6 -6 -6 -6 -6 -6 -6 -6 -6 -6 -6 -6 -6 -6 -6 -6 -6 -6 -6 -6 -6 -6 -6 -6 -6 -6 -6 -6 -6 -6 -6 -6 -6 -6 -6 -6 -6 -3 14 83 83 14 -3 -6 -6 -6 -6 -6 -6 -6 -6 -6 -6 -6 -6 -6 -6 -6 -6 -6 -5 0 13 33 75 107 99 41 14 0 -3 -5 -6 -6 -6 -6 -6 -6 -6 -6 -6 -6 -6 -4 13 84 
154 107 39 5 -4 -6 -6 -6 -6 -6 -6 -6 -6 -6 -6 -6 -6 -6 -6 -6 -6 -6 -6 -6 -6 -6 -6 -6 -6 -6 -6 -6 -6 -6 -6 -6 -6 -6 -6 -6 -6 -6 -6 -6 -6 -6 -6 -6 -6 -6 -6 -6 -6 -6 -6 -6 -6 -6 -6 -6 -6 -4 13 82 82 13 -4 -6 -6 -6 -6 -6 -6 -6 -6 -6 -6 -6 -6 -6 -6 -6 -6 -6 -6 -5 -3 0 14 41 99 107 75 33 13 0 -3 -5 -6 -6 -6 -6 -6 -6 -6 -6 -6 -4 13 88 
124 44 5 -4 -6 -6 -6 -6 -6 -6 -6 -6 -6 -6 -6 -6 -6 -6 -6 -6 -6 -6 -6 -6 -6 -6 -6 -6 -6 -6 -6 -6 -6 -6 -6 -6 -6 -6 -6 -6 -6 -6 -6 -6 -6 -6 -6 -6 -6 -6 -6 -6 -6 -6 -6 -6 -6 -6 -6 -6 -6 -4 13 82 82 13 -4 -6 -6 -6 -6 -6 -6 -6 -6 -6 -6 -6 -6 -6 -6 -6 -6 -6 -6 -6 -6 -5 -3 4 30 74 106 106 75 33 13 0 -5 -6 -6 -6 -6 -6 -6 -6 -6 -4 13 86 
91 18 -2 -6 -6 -6 -6 -6 -6 -6 -6 -6 -6 -6 -6 -6 -6 -6 -6 -6 -6 -6 -6 -6 -6 -6 -6 -6 -6 -6 -6 -6 -6 -6 -6 -6 -6 -6 -6 -6 -6 -6 -6 -6 -6 -6 -6 -6 -6 -6 -6 -6 -6 -6 -6 -6 -6 -6 -6 -6 -6 -4 13 82 82 13 -4 -6 -6 -6 -6 -6 -6 -6 -6 -6 -6 -6 -6 -6 -6 -6 -6 -6 -6 -6 -6 -6 -6 -5 0 13 33 75 106 106 74 30 4 -3 -5 -6 -6 -6 -6 -6 -6 -4 13 83 
83 14 -3 -6 -6 -6 -6 -6 -6 -6 -6 -6 -6 -6 -6 -6 -6 -6 -6 -6 -6 -6 -6 -6 -6 -6 -6 -6 -6 -6 -6 -6 -6 -6 -6 -6 -6 -6 -6 -6 -6 -6 -6 -6 -6 -6 -6 -6 -6 -6 -6 -6 -6 -6 -6 -6 -6 -6 -6 -6 -6 -4 13 82 82 13 -4 -6 -6 -6 -6 -6 -6 -6 -6 -6 -6 -6 -6 -6 -6 -6 -6 -6 -6 -6 -6 -6 -6 -6 -5 -3 0 13 33 75 107 99 42 14 0 -3 -4 -4 -5 -6 -6 -3 13 82 
82 13 -4 -6 -6 -6 -6 -6 -6 -6 -6 -6 -6 -6 -6 -6 -6 -6 -6 -6 -6 -6 -6 -6 -6 -6 -6 -6 -6 -6 -6 -6 -6 -6 -6 -6 -6 -6 -6 -6 -6 -6 -6 -6 -6 -6 -6 -6 -6 -6 -6 -6 -6 -6 -6 -6 -6 -6 -6 -6 -6 -4 13 82 82 13 -4 -6 -6 -6 -6 -6 -6 -6 -6 -6 -6 -6 -6 -6 -6 -6 -6 -6 -6 -6 -6 -6 -6 -6 -6 -6 -5 -3 1 14 42 101 110 78 35 17 13 9 0 -3 -3 -2 14 82 
82 13 -4 -6 -6 -6 -6 -6 -6 -6 -6 -6 -6 -6 -6 -6 -6 -6 -6 -6 -6 -6 -6 -6 -6 -6 -6 -6 -6 -6 -6 -6 -6 -6 -6 -6 -6 -6 -6 -6 -6 -6 -6 -6 -6 -6 -6 -6 -6 -6 -6 -6 -6 -6 -6 -6 -6 -6 -6 -6 -6 -4 13 82 82 13 -4 -6 -6 -6 -6 -6 -6 -6 -6 -6 -6 -6 -6 -6 -6 -6 -6 -6 -6 -6 -6 -6 -6 -6 -6 -6 -6 -5 -3 0 11 49 107 150 122 90 81 68 33 17 13 11 20 84 
83 13 -3 -6 -6 -6 -6 -6 -6 -6 -6 -6 -6 -6 -6 -6 -6 -6 -6 -6 -6 -6 -6 -6 -6 -6 -6 -6 -6 -6 -6 -6 -6 -6 -6 -6 -6 -6 -6 -6 -6 -6 -6 -6 -6 -6 -6 -6 -6 -6 -6 -6 -6 -6 -6 -6 -6 -6 -6 -6 -6 -4 13 82 82 13 -4 -6 -6 -6 -6 -6 -6 -6 -6 -6 -6 -6 -6 -6 -6 -6 -6 -6 -6 -6 -6 -6 -6 -6 -6 -5 -3 0 9 17 36 81 119 120 94 85 88 107 107 88 80 70 51 98 
88 15 -1 -3 -4 -4 -4 -4 -4 -5 -6 -6 -6 -6 -6 -6 -6 -6 -6 -6 -6 -6 -6 -6 -6 -6 -6 -6 -6 -6 -6 -6 -6 -6 -6 -6 -6 -6 -6 -6 -6 -6 -6 -6 -6 -6 -6 -6 -6 -6 -6 -6 -6 -6 -6 -6 -6 -6 -6 -6 -6 -4 13 82 82 13 -4 -6 -6 -6 -6 -6 -6 -6 -6 -6 -6 -6 -6 -6 -6 -6 -6 -6 -6 -6 -6 -6 -5 -4 -3 0 13 32 69 86 107 106 75 34 17 14 17 33 68 80 88 108 119 141 
99 32 15 13 13 13 13 12 9 0 -3 -3 -4 -4 -4 -4 -4 -5 -6 -6 -6 -6 -6 -6 -6 -6 -6 -6 -6 -6 -6 -6 -6 -6 -6 -6 -6 -6 -6 -6 -6 -6 -6 -6 -6 -6 -6 -6 -6 -6 -6 -6 -6 -6 -6 -6 -6 -6 -6 -6 -6 -4 13 82 82 13 -4 -6 -6 -6 -6 -6 -6 -6 -6 -6 -6 -6 -6 -6 -6 -6 -6 -6 -6 -6 -5 -3 0 9 16 34 75 106 107 86 69 32 13 0 -3 -3 -3 0 9 13 17 35 82 135 
137 96 84 82 82 82 82 79 68 33 17 13 13 13 13 12 9 0 -3 -3 -4 -4 -4 -4 -4 -4 -5 -6 -6 -6 -6 -6 -6 -6 -6 -6 -6 -6 -6 -6 -6 -6 -6 -6 -6 -6 -6 -6 -6 -6 -6 -6 -6 -6 -6 -6 -6 -6 -6 -6 -6 -4 13 82 82 13 -4 -6 -6 -6 -6 -6 -6 -6 -6 -6 -6 -6 -6 -6 -6 -6 -6 -5 -4 -3 0 13 32 69 86 107 106 75 34 16 9 0 -3 -5 -6 -6 -6 -5 -4 -4 -3 2 28 99 
136 96 84 82 82 82 83 88 107 107 88 83 82 82 82 79 68 33 17 13 13 13 13 13 12 9 0 -3 -3 -4 -4 -4 -4 -4 -5 -6 -6 -6 -6 -6 -6 -6 -6 -6 -6 -6 -6 -6 -6 -6 -6 -6 -6 -6 -6 -6 -6 -6 -6 -6 -6 -4 13 82 82 13 -4 -6 -6 -6 -6 -6 -6 -6 -6 -6 -6 -6 -6 -6 -6 -5 -3 0 9 16 34 75 106 107 86 69 32 13 0 -3 -4 -5 -6 -6 -6 -6 -6 -6 -6 -6 -6 -3 15 88 
95 32 15 13 13 13 13 17 33 68 79 82 82 82 83 88 107 107 88 83 82 82 82 82 79 68 33 17 13 13 13 13 12 9 0 -3 -3 -4 -4 -4 -4 -4 -4 -5 -6 -6 -6 -6 -6 -6 -6 -6 -6 -6 -6 -6 -6 -6 -6 -6 -6 -4 13 82 82 13 -4 -6 -6 -6 -6 -6 -6 -6 -6 -6 -6 -6 -6 -5 -3 0 13 32 69 86 107 106 75 34 16 9 0 -3 -5 -6 -6 -6 -6 -6 -6 -6 -6 -6 -6 -6 -6 -3 13 83 
84 15 -1 -3 -4 -4 -3 -3 0 9 12 13 13 13 13 17 33 68 79 82 82 82 82 83 88 107 107 88 83 82 82 82 79 68 33 17 13 13 13 13 13 12 9 0 -3 -3 -4 -4 -4 -4 -4 -5 -6 -6 -6 -6 -6 -6 -6 -6 -6 -4 13 82 82 13 -4 -6 -6 -6 -6 -6 -6 -6 -6 -6 -5 -4 -3 0 13 33 75 106 107 86 69 32 13 0 -3 -4 -5 -6 -6 -6 -6 -6 -6 -6 -6 -6 -6 -6 -6 -6 -6 -4 13 82 
82 13 -3 -6 -6 -6 -6 -6 -5 -4 -4 -4 -4 -4 -3 -3 0 9 12 13 13 13 13 13 17 33 68 79 82 82 82 83 88 107 107 88 83 82 82 82 82 79 68 33 17 13 13 13 13 12 9 0 -3 -3 -4 -4 -4 -4 -4 -4 -5 -3 13 82 82 13 -4 -6 -6 -6 -6 -6 -6 -6 -5 -3 0 9 16 34 75 106 106 75 34 16 9 0 -3 -5 -6 -6 -6 -6 -6 -6 -6 -6 -6 -6 -6 -6 -6 -6 -6 -6 -6 -4 13 82 
82 13 -4 -6 -6 -6 -6 -6 -6 -6 -6 -6 -6 -6 -6 -6 -5 -4 -4 -4 -4 -4 -4 -3 -3 0 9 12 13 13 13 13 17 33 68 79 82 82 82 82 83 88 107 107 88 83 82 82 82 79 68 33 17 13 13 13 13 13 12 9 0 0 15 84 83 14 -3 -6 -6 -6 -6 -5 -4 -3 0 13 32 69 86 107 106 75 33 13 0 -3 -4 -5 -6 -6 -6 -6 -6 -6 -6 -6 -6 -6 -6 -6 -6 -6 -6 -6 -6 -6 -6 -4 13 82 
82 13 -4 -6 -6 -6 -6 -6 -6 -6 -6 -6 -6 -6 -6 -6 -6 -6 -6 -6 -6 -6 -6 -6 -6 -5 -4 -4 -4 -4 -4 -3 -3 0 9 12 13 13 13 13 13 17 33 68 79 82 82 82 83 88 107 107 88 83 82 82 82 82 79 68 33 19 32 95 92 18 -2 -5 -6 -5 -3 0 9 16 34 75 106 107 86 69 32 13 0 -3 -5 -6 -6 -6 -6 -6 -6 -6 -6 -6 -6 -6 -6 -6 -6 -6 -6 -6 -6 -6 -6 -6 -6 -4 13 82 
82 13 -4 -6 -6 -6 -6 -6 -6 -6 -6 -6 -6 -6 -6 -6 -6 -6 -6 -6 -6 -6 -6 -6 -6 -6 -6 -6 -6 -6 -6 -6 -6 -5 -4 -4 -4 -4 -4 -4 -3 -3 0 9 12 13 13 13 13 17 33 68 79 82 82 82 82 83 88 107 107 90 95 136 126 44 6 -2 -3 0 13 32 69 86 107 106 75 34 16 9 0 -3 -5 -6 -6 -6 -6 -6 -6 -6 -6 -6 -6 -6 -6 -6 -6 -6 -6 -6 -6 -6 -6 -6 -6 -6 -6 -4 13 82 
82 13 -4 -6 -6 -6 -6 -6 -6 -6 -6 -6 -6 -6 -6 -6 -6 -6 -6 -6 -6 -6 -6 -6 -6 -6 -6 -6 -6 -6 -6 -6 -6 -6 -6 -6 -6 -6 -6 -6 -6 -6 -5 -4 -4 -4 -4 -4 -3 -3 0 9 12 13 13 13 13 13 17 33 68 80 84 95 118 103 43 19 18 34 75 106 107 86 69 32 13 0 -3 -4 -5 -6 -6 -6 -6 -6 -6 -6 -6 -6 -6 -6 -6 -6 -6 -6 -6 -6 -6 -6 -6 -6 -6 -6 -6 -6 -6 -4 13 82 
82 13 -4 -6 -6 -6 -6 -6 -6 -6 -6 -6 -6 -6 -6 -6 -6 -6 -6 -6 -6 -6 -6 -6 -6 -6 -6 -6 -6 -6 -6 -6 -6 -6 -6 -6 -6 -6 -6 -6 -6 -6 -6 -6 -6 -6 -6 -6 -6 -6 -5 -4 -4 -4 -4 -4 -4 -3 -3 0 9 12 13 18 43 103 118 96 91 108 106 75 34 16 9 0 -3 -5 -6 -6 -6 -6 -6 -6 -6 -6 -6 -6 -6 -6 -6 -6 -6 -6 -6 -6 -6 -6 -6 -6 -6 -6 -6 -6 -6 -6 -6 -4 13 82 
82 13 -4 -6 -6 -6 -6 -6 -6 -6 -6 -6 -6 -6 -6 -6 -6 -6 -6 -6 -6 -6 -6 -6 -6 -6 -6 -6 -6 -6 -6 -6 -6 -6 -6 -6 -6 -6 -6 -6 -6 -6 -6 -6 -6 -6 -6 -6 -6 -6 -6 -6 -6 -6 -6 -6 -6 -6 -6 -5 -4 -4 -3 -2 6 44 126 136 92 69 32 13 0 -3 -4 -5 -6 -6 -6 -6 -6 -6 -6 -6 -6 -6 -6 -6 -6 -6 -6 -6 -6 -6 -6 -6 -6 -6 -6 -6 -6 -6 -6 -6 -6 -6 -6 -4 13 82 
82 13 -4 -6 -6 -6 -6 -6 -6 -6 -6 -6 -6 -6 -6 -6 -6 -6 -6 -6 -6 -6 -6 -6 -6 -6 -6 -6 -6 -6 -6 -6 -6 -6 -6 -6 -6 -6 -6 -6 -6 -6 -6 -6 -6 -6 -6 -6 -6 -6 -6 -6 -6 -6 -6 -6 -6 -6 -6 -6 -6 -6 -6 -5 -2 18 92 95 31 11 0 -3 -5 -6 -6 -6 -6 -6 -6 -6 -6 -6 -6 -6 -6 -6 -6 -6 -6 -6 -6 -6 -6 -6 -6 -6 -6 -6 -6 -6 -6 -6 -6 -6 -6 -6 -6 -4 13 82 
82 13 -3 -6 -6 -6 -6 -6 -6 -6 -6 -6 -6 -6 -6 -6 -6 -6 -6 -6 -6 -6 -6 -6 -6 -6 -6 -6 -6 -6 -6 -6 -6 -6 -6 -6 -6 -6 -6 -6 -6 -6 -6 -6 -6 -6 -6 -6 -6 -6 -6 -6 -6 -6 -6 -6 -6 -6 -6 -6 -6 -6 -6 -6 -3 14 84 84 16 -1 -5 -6 -6 -6 -6 -6 -6 -6 -6 -6 -6 -6 -6 -6 -6 -6 -6 -6 -6 -6 -6 -6 -6 -6 -6 -6 -6 -6 -6 -6 -6 -6 -6 -6 -6 -6 -6 -3 13 82 
84 15 -1 -3 -4 -4 -4 -4 -4 -4 -4 -4 -4 -4 -4 -4 -4 -4 -4 -4 -4 -4 -4 -4 -4 -4 -4 -4 -4 -4 -4 -4 -4 -4 -4 -4 -4 -4 -4 -4 -4 -4 -4 -4 -4 -4 -4 -4 -4 -4 -4 -4 -4 -4 -4 -4 -4 -4 -4 -4 -4 -4 -4 -3 -1 15 84 84 16 -1 -3 -3 -4 -4 -4 -4 -4 -4 -4 -4 -4 -4 -4 -4 -4 -4 -4 -4 -4 -4 -4 -4 -4 -4 -4 -4 -4 -4 -4 -4 -4 -4 -4 -4 -4 -4 -3 -1 15 84 
96 32 15 13 13 13 13 13 13 13 13 13 13 13 13 13 13 13 13 13 13 13 13 13 13 13 13 13 13 13 13 13 13 13 13 13 13 13 13 13 13 13 13 13 13 13 13 13 13 13 13 13 13 13 13 13 13 13 13 13 13 13 13 13 15 32 96 96 32 15 13 13 13 13 13 13 13 13 13 13 13 13 13 13 13 13 13 13 13 13 13 13 13 13 13 13 13 13 13 13 13 13 13 13 13 13 13 15 32 96 
141 96 84 82 82 82 82 82 82 82 82 82 82 82 82 82 82 82 82 82 82 82 82 82 82 82 82 82 82 82 82 82 84 88 86 83 82 82 82 82 82 82 82 82 82 82 82 82 83 87 87 83 82 82 82 82 82 82 82 82 82 82 82 82 84 95 136 136 95 84 82 82 82 82 82 82 82 82 82 82 82 82 82 82 82 82 82 82 82 82 82 84 87 86 83 82 82 82 82 82 82 82 82 84 87 86 83 84 96 141 
