P2
110 110
255
154 123 104 97 96 95 95 95 95 95 95 95 95 95 95 95 95 95 95 95 95 95 95 95 95 95 95 95 96 98 104 119 139 144 127 108 99 96 96 95 95 95 95 95 95 96 97 103 118 142 141 118 102 97 96 95 95 95 95 95 95 95 95 96 97 99 103 103 99 97 96 95 95 95 95 95 95 95 95 95 95 95 95 95 95 95 95 96 97 101 113 135 145 129 109 99 96 96 95 96 96 100 111 133 146 130 111 108 124 154 
123 79 53 44 42 41 41 41 41 41 41 41 41 41 41 41 41 41 41 41 41 41 41 41 41 41 41 41 43 48 65 98 129 119 81 55 45 42 41 41 41 41 41 41 41 42 44 54 82 125 123 79 53 44 42 41 41 41 41 41 41 41 41 41 41 41 41 41 41 41 41 41 41 41 41 41 41 41 41 41 41 41 41 41 41 41 41 42 44 54 81 121 126 88 58 46 42 41 41 41 43 50 73 114 129 92 62 57 80 124 
104 53 22 12 10 9 9 9 9 9 9 9 9 9 9 9 9 9 9 9 9 9 9 9 9 9 10 11 14 26 55 99 113 76 37 18 12 10 9 9 9 9 9 9 10 10 14 27 63 114 106 52 22 12 10 9 9 9 9 9 9 9 9 9 9 9 9 9 9 9 9 9 9 9 9 9 9 9 9 9 9 9 9 9 9 9 10 11 16 33 73 114 95 48 22 12 10 9 9 10 12 22 52 102 107 58 28 26 53 104 
97 44 12 2 0 0 0 0 0 0 0 0 0 0 0 0 0 0 0 0 0 0 0 0 0 0 0 2 10 33 74 108 89 43 14 3 0 0 0 0 0 0 0 0 0 1 7 26 71 123 102 43 12 2 0 0 0 0 0 0 0 0 0 0 0 0 0 0 0 0 0 0 0 0 0 0 0 0 0 0 0 0 0 0 0 0 0 2 10 35 84 108 67 25 6 1 0 0 0 0 3 16 52 102 93 42 15 15 44 97 
96 42 10 0 -2 -2 -2 -2 -2 -2 -2 -2 -2 -2 -2 -2 -2 -2 -2 -2 -2 -2 -2 -2 -2 -2 0 4 21 58 101 100 57 21 4 0 -2 -2 -2 -2 -2 -2 -2 -2 -1 1 11 40 95 138 103 41 10 0 -2 -2 -2 -2 -2 -2 -2 -2 -2 -2 -2 -2 -2 -2 -2 -2 -2 -2 -2 -2 -2 -2 -2 -2 -2 -2 -2 -2 -2 -2 -2 -2 -1 1 13 47 98 97 47 13 1 -1 -2 -2 -2 -1 3 21 64 107 80 31 9 12 42 96 
95 41 9 0 -2 -3 -3 -3 -3 -3 -3 -3 -3 -3 -3 -3 -3 -3 -3 -3 -3 -3 -3 -3 -2 -1 1 13 42 88 107 71 30 7 0 -2 -3 -3 -3 -3 -3 -3 -3 -2 -1 4 22 63 120 145 103 41 9 0 -2 -3 -3 -3 -3 -3 -3 -3 -3 -3 -3 -3 -3 -3 -3 -3 -3 -3 -3 -3 -3 -3 -3 -3 -3 -3 -3 -3 -3 -3 -3 -2 -1 4 23 66 107 82 32 7 0 -2 -3 -3 -2 0 6 30 80 107 63 21 6 11 41 95 
95 41 9 0 -2 -3 -3 -3 -3 -3 -3 -3 -3 -3 -3 -3 -3 -3 -3 -3 -3 -3 -3 -3 -2 0 7 30 71 106 88 42 13 1 -2 -2 -3 -3 -3 -3 -3 -3 -3 -2 0 11 40 91 130 138 104 43 10 0 -2 -3 -3 -3 -3 -3 -3 -3 -3 -3 -3 -3 -3 -3 -3 -3 -3 -3 -3 -3 -3 -3 -3 -3 -3 -3 -3 -3 -3 -3 -3 -2 0 10 39 89 105 60 20 3 -1 -2 -3 -3 -2 0 9 39 92 100 49 14 3 10 41 95 
95 41 9 0 -2 -3 -3 -3 -3 -3 -3 -3 -3 -3 -3 -3 -3 -3 -3 -3 -3 -3 -3 -2 -1 4 21 57 100 100 57 21 4 -1 -2 -3 -3 -3 -3 -3 -3 -3 -2 -1 4 23 64 110 120 123 106 50 14 1 -2 -3 -3 -3 -3 -3 -3 -3 -3 -3 -3 -3 -3 -3 -3 -3 -3 -3 -3 -3 -3 -3 -3 -3 -3 -3 -3 -3 -3 -3 -2 -1 3 20 60 105 89 39 10 0 -2 -3 -3 -3 -2 0 13 49 100 92 39 10 2 10 41 95 
95 41 9 0 -2 -3 -3 -3 -3 -3 -3 -3 -3 -3 -3 -3 -3 -3 -3 -3 -3 -3 -2 -2 1 13 42 88 106 71 30 7 0 -2 -3 -3 -3 -3 -3 -3 -3 -2 -2 1 13 43 90 111 93 102 110 64 20 3 -1 -2 -3 -3 -3 -3 -3 -3 -3 -3 -3 -3 -3 -3 -3 -3 -3 -3 -3 -3 -3 -3 -3 -3 -3 -3 -3 -3 -3 -3 -2 0 7 32 82 107 66 23 4 -1 -2 -3 -3 -2 -1 3 20 63 107 80 30 6 1 10 41 95 
95 41 9 0 -2 -3 -3 -3 -3 -3 -3 -3 -3 -3 -3 -3 -3 -3 -3 -3 -3 -3 -2 0 7 30 71 106 88 42 13 1 -2 -2 -3 -3 -3 -3 -3 -3 -3 -2 0 7 30 72 107 92 62 77 109 79 30 6 -1 -2 -3 -3 -3 -3 -3 -3 -3 -3 -3 -3 -3 -3 -3 -3 -3 -3 -3 -3 -3 -3 -3 -3 -3 -3 -3 -3 -3 -3 -2 1 13 47 97 97 47 13 1 -2 -3 -3 -3 -2 -1 6 30 80 107 63 21 3 1 10 41 95 
96 41 9 0 -2 -3 -3 -3 -3 -3 -3 -3 -3 -3 -3 -3 -3 -3 -3 -3 -3 -2 -1 4 21 57 100 100 57 21 4 -1 -2 -3 -3 -3 -3 -3 -3 -3 -2 -1 3 20 57 100 101 61 37 57 103 89 36 8 0 -2 -3 -3 -3 -3 -3 -3 -3 -3 -3 -3 -3 -3 -3 -3 -3 -3 -3 -3 -3 -3 -3 -3 -3 -3 -3 -3 -3 -2 -1 4 23 66 107 82 32 7 0 -2 -3 -3 -3 -2 0 9 39 92 100 49 13 1 0 9 41 95 
96 42 10 0 -2 -3 -3 -3 -3 -3 -3 -3 -3 -3 -3 -3 -3 -3 -3 -3 -2 -2 1 13 42 88 106 71 30 7 0 -2 -3 -3 -3 -3 -3 -3 -3 -3 -2 0 10 39 86 107 72 33 22 47 98 94 40 9 0 -2 -3 -3 -3 -3 -3 -3 -3 -3 -3 -3 -3 -3 -3 -3 -3 -3 -3 -3 -3 -3 -3 -3 -3 -3 -3 -3 -3 -2 0 10 39 89 105 60 20 3 -1 -2 -3 -3 -3 -2 0 13 49 100 92 39 9 0 0 9 41 96 
99 45 11 0 -2 -3 -3 -3 -3 -3 -3 -3 -3 -3 -3 -3 -3 -3 -3 -3 -2 0 7 30 71 106 88 42 13 1 -2 -2 -3 -3 -3 -3 -3 -3 -3 -2 -1 4 22 63 105 90 44 16 14 43 96 95 41 10 0 -2 -3 -3 -3 -3 -3 -3 -3 -3 -3 -3 -3 -3 -3 -3 -3 -3 -3 -3 -3 -3 -3 -3 -3 -3 -3 -3 -2 -1 3 20 60 105 89 39 10 0 -2 -3 -3 -3 -2 -1 3 20 63 107 80 30 6 0 0 9 41 96 
108 55 18 3 -1 -2 -3 -3 -3 -3 -3 -3 -3 -3 -3 -3 -3 -3 -3 -2 -1 4 21 57 100 100 57 21 4 -1 -2 -3 -3 -3 -3 -3 -3 -3 -3 -2 0 11 40 88 105 64 23 7 11 40 94 97 44 11 0 -2 -3 -3 -3 -3 -3 -3 -3 -3 -3 -3 -3 -3 -3 -3 -3 -3 -3 -3 -3 -3 -3 -3 -3 -3 -3 -3 -2 0 7 32 82 107 66 23 4 -1 -2 -3 -3 -3 -2 -1 6 30 80 107 63 20 3 -1 0 9 41 98 
127 80 35 11 1 -1 -2 -3 -3 -3 -3 -3 -3 -3 -3 -3 -3 -3 -2 -2 1 13 42 88 106 71 30 7 0 -2 -3 -3 -3 -3 -3 -3 -3 -3 -2 -1 4 23 64 105 88 40 11 3 9 37 89 101 50 14 1 -2 -3 -3 -3 -3 -3 -3 -3 -3 -3 -3 -3 -3 -3 -3 -3 -3 -3 -3 -3 -3 -3 -3 -3 -3 -3 -3 -2 1 13 47 97 97 47 13 1 -2 -3 -3 -3 -3 -2 0 9 39 92 100 49 13 1 -1 0 9 41 101 
144 117 69 30 9 0 -2 -3 -3 -3 -3 -3 -3 -3 -3 -3 -3 -3 -2 0 7 30 71 106 88 42 13 1 -2 -2 -3 -3 -3 -3 -3 -3 -3 -2 -2 1 13 43 90 105 63 22 4 0 6 30 79 107 63 20 3 -1 -2 -3 -3 -3 -3 -3 -3 -3 -3 -3 -3 -3 -3 -3 -3 -3 -3 -3 -3 -3 -3 -3 -3 -3 -3 -2 -1 4 23 66 107 82 32 7 0 -2 -3 -3 -3 -3 -2 0 13 49 100 92 39 9 0 -2 0 9 40 103 
140 131 106 65 27 7 0 -2 -3 -3 -3 -3 -3 -3 -3 -3 -3 -2 -1 4 21 57 100 100 57 21 4 -1 -2 -3 -3 -3 -3 -3 -3 -3 -3 -2 0 7 30 72 107 86 39 10 0 -1 3 20 63 107 79 30 6 -1 -2 -3 -3 -3 -3 -3 -3 -3 -3 -3 -3 -3 -3 -3 -3 -3 -3 -3 -3 -3 -3 -3 -3 -3 -3 -2 0 10 39 89 105 60 20 3 -1 -2 -3 -3 -3 -2 -1 3 20 63 107 80 30 6 0 -2 0 9 41 102 
121 108 112 100 56 20 4 -1 -2 -3 -3 -3 -3 -3 -3 -3 -2 -2 1 13 42 88 106 71 30 7 0 -2 -3 -3 -3 -3 -3 -3 -3 -3 -2 -1 3 20 57 100 100 57 20 3 -1 -2 1 14 50 101 89 36 8 0 -2 -3 -3 -3 -3 -3 -3 -3 -3 -3 -3 -3 -3 -3 -3 -3 -3 -3 -3 -3 -3 -3 -3 -3 -2 -1 3 20 60 105 89 39 10 0 -2 -3 -3 -3 -3 -2 -1 6 30 80 107 63 20 3 -1 -2 0 9 41 99 
107 77 85 109 88 43 14 2 -1 -2 -3 -3 -3 -3 -3 -3 -2 0 7 30 71 106 88 42 13 1 -2 -2 -3 -3 -3 -3 -3 -3 -3 -3 -2 0 10 39 86 107 72 30 7 0 -2 -2 0 11 44 97 94 40 9 0 -2 -3 -3 -3 -3 -3 -3 -3 -3 -3 -3 -3 -3 -3 -3 -3 -3 -3 -3 -3 -3 -3 -3 -3 -2 0 7 32 82 107 66 23 4 -1 -2 -3 -3 -3 -3 -2 0 9 39 92 100 49 13 0 -2 -2 0 9 41 97 
100 58 55 90 107 74 34 11 1 -1 -2 -3 -3 -3 -3 -2 -1 4 21 57 100 100 57 21 4 -1 -2 -3 -3 -3 -3 -3 -3 -3 -3 -2 -1 4 22 63 105 90 43 13 1 -2 -2 -2 0 10 41 95 95 41 10 0 -2 -3 -3 -3 -3 -3 -3 -3 -3 -3 -3 -3 -3 -3 -3 -3 -3 -3 -3 -3 -3 -3 -3 -3 -2 1 13 47 97 97 47 13 1 -2 -3 -3 -3 -3 -3 -2 0 13 49 100 92 39 9 0 -2 -2 0 9 41 96 
97 48 33 59 99 103 68 31 10 1 -1 -2 -3 -3 -2 -2 1 13 42 88 106 71 30 7 0 -2 -3 -3 -3 -3 -3 -3 -3 -3 -3 -2 0 11 40 88 105 64 23 4 -1 -2 -3 -2 0 9 40 94 97 44 11 0 -2 -3 -3 -3 -3 -3 -3 -3 -3 -3 -3 -3 -3 -3 -3 -3 -3 -3 -3 -3 -3 -3 -3 -2 -1 4 23 66 107 82 32 7 0 -2 -3 -3 -3 -3 -2 -1 3 20 63 107 80 30 6 -1 -2 -2 0 9 41 95 
96 44 20 30 65 102 102 67 31 10 1 -1 -2 -3 -2 0 7 30 71 106 88 42 13 1 -2 -2 -3 -3 -3 -3 -3 -3 -3 -3 -2 -1 4 23 64 105 88 40 11 0 -2 -3 -3 -2 0 8 36 89 101 50 14 1 -2 -3 -3 -3 -3 -3 -3 -3 -3 -3 -3 -3 -3 -3 -3 -3 -3 -3 -3 -3 -3 -3 -3 -2 0 10 39 89 105 60 20 3 -1 -2 -3 -3 -3 -3 -2 -1 6 30 80 107 63 20 3 -1 -2 -2 0 9 41 95 
96 42 13 12 31 67 102 102 67 31 10 1 -1 -2 -1 4 21 57 100 100 57 21 4 -1 -2 -3 -3 -3 -3 -3 -3 -3 -3 -2 -2 1 13 43 90 105 63 22 4 -1 -2 -3 -3 -2 -1 6 30 79 107 63 20 3 -1 -2 -3 -3 -3 -3 -3 -3 -3 -3 -3 -3 -3 -3 -3 -3 -3 -3 -3 -3 -3 -3 -2 -1 3 20 60 105 89 39 10 0 -2 -3 -3 -3 -3 -3 -2 0 9 39 92 100 49 13 0 -2 -2 -2 0 9 41 95 
95 41 11 4 10 31 67 102 102 67 31 10 1 0 1 13 42 88 106 71 30 7 0 -2 -3 -3 -3 -3 -3 -3 -3 -3 -3 -2 0 7 30 72 107 86 39 10 0 -2 -3 -3 -3 -2 -1 3 20 63 107 79 30 6 -1 -2 -3 -3 -3 -3 -3 -3 -3 -3 -3 -3 -3 -3 -3 -3 -3 -3 -3 -3 -3 -3 -2 0 7 32 82 107 66 23 4 -1 -2 -3 -3 -3 -3 -3 -2 0 13 49 100 92 39 9 0 -2 -3 -2 0 9 41 95 
95 41 10 1 1 10 31 67 102 102 67 31 11 4 9 30 71 106 88 42 13 1 -2 -2 -3 -3 -3 -3 -3 -3 -3 -3 -2 -1 3 20 57 100 100 57 20 3 -1 -2 -3 -3 -3 -3 -2 1 14 50 101 90 36 8 0 -2 -3 -3 -3 -3 -3 -3 -3 -3 -3 -3 -3 -3 -3 -3 -3 -3 -3 -3 -3 -3 -2 1 13 47 97 97 47 13 1 -2 -3 -3 -3 -3 -3 -2 -1 3 20 63 107 80 30 6 -1 -2 -3 -2 0 9 41 95 
95 41 9 0 -1 1 10 31 67 102 102 67 33 18 25 59 100 100 57 21 4 -1 -2 -3 -3 -3 -3 -3 -3 -3 -3 -3 -2 0 10 39 86 107 72 30 7 0 -2 -3 -3 -3 -3 -3 -2 0 11 44 97 94 40 9 0 -2 -3 -3 -3 -3 -3 -3 -3 -3 -3 -3 -3 -3 -3 -3 -3 -3 -3 -3 -3 -2 -1 4 23 66 107 82 32 7 0 -2 -3 -3 -3 -3 -3 -2 -1 6 30 80 107 63 20 3 -1 -2 -3 -2 0 9 41 95 
95 41 9 0 -2 -1 1 10 31 67 102 103 71 47 55 91 107 71 30 7 0 -2 -3 -3 -3 -3 -3 -3 -3 -3 -3 -2 -1 4 22 63 105 90 43 13 1 -2 -2 -3 -3 -3 -3 -3 -2 0 9 40 94 97 44 11 0 -2 -3 -3 -3 -3 -3 -3 -3 -3 -3 -3 -3 -3 -3 -3 -3 -3 -3 -3 -3 -2 0 10 39 89 105 60 20 3 -1 -2 -3 -3 -3 -3 -3 -2 0 9 39 92 100 49 13 0 -2 -3 -3 -2 0 9 41 95 
95 41 9 0 -2 -2 -1 1 10 31 67 103 110 95 99 113 88 42 13 1 -2 -2 -3 -3 -3 -3 -3 -3 -3 -3 -3 -2 0 11 40 88 105 64 23 4 -1 -2 -3 -3 -3 -3 -3 -3 -2 0 8 36 90 101 50 14 1 -2 -3 -3 -3 -3 -3 -3 -3 -3 -3 -3 -3 -3 -3 -3 -3 -3 -3 -3 -2 -1 3 20 60 105 89 39 10 0 -2 -3 -3 -3 -3 -3 -3 -2 0 13 49 100 92 39 9 0 -2 -3 -3 -2 0 9 41 95 
95 41 9 0 -2 -3 -2 -1 1 10 31 69 111 136 136 108 58 21 4 -1 -2 -3 -3 -3 -3 -3 -3 -3 -3 -3 -2 -1 4 23 64 105 88 40 11 0 -2 -3 -3 -3 -3 -3 -3 -3 -2 -1 6 30 79 107 63 20 3 -1 -2 -3 -3 -3 -3 -3 -3 -3 -3 -3 -3 -3 -3 -3 -3 -3 -3 -3 -2 0 7 32 82 107 66 23 4 -1 -2 -3 -3 -3 -3 -3 -2 -1 3 20 63 107 80 30 6 -1 -2 -3 -3 -2 0 9 41 95 
95 41 9 0 -2 -3 -3 -2 -1 1 11 35 80 132 133 79 31 8 0 -2 -3 -3 -3 -3 -3 -3 -3 -3 -3 -2 -2 1 13 43 90 105 63 22 4 -1 -2 -3 -3 -3 -3 -3 -3 -3 -2 -1 3 20 63 107 79 30 6 -1 -2 -3 -3 -3 -3 -3 -3 -3 -3 -3 -3 -3 -3 -3 -3 -3 -3 -3 -2 1 13 47 97 97 47 13 1 -2 -3 -3 -3 -3 -3 -3 -2 -1 6 30 80 107 63 20 3 -1 -2 -3 -3 -2 0 9 41 95 
95 41 9 0 -2 -3 -3 -3 -2 -1 3 17 54 110 113 58 18 2 -1 -2 -3 -3 -3 -3 -3 -3 -3 -3 -3 -2 0 7 30 72 107 86 39 10 0 -2 -3 -3 -3 -3 -3 -3 -3 -3 -3 -2 1 14 50 101 89 36 8 0 -2 -3 -3 -3 -3 -3 -3 -3 -3 -3 -3 -3 -3 -3 -3 -3 -3 -2 -1 4 23 66 107 82 32 7 0 -2 -3 -3 -3 -3 -3 -3 -2 0 9 39 92 100 49 13 0 -2 -3 -3 -3 -2 0 9 41 95 
95 41 9 0 -2 -3 -3 -3 -3 -2 0 10 40 94 106 54 16 1 -2 -3 -3 -3 -3 -3 -3 -3 -3 -3 -2 -1 3 20 57 100 100 57 20 3 -1 -2 -3 -3 -3 -3 -3 -3 -3 -3 -3 -2 0 11 44 97 94 40 9 0 -2 -3 -3 -3 -3 -3 -3 -3 -3 -3 -3 -3 -3 -3 -3 -3 -3 -2 0 10 39 89 105 60 20 3 -1 -2 -3 -3 -3 -3 -3 -3 -2 0 13 49 100 92 39 9 0 -2 -3 -3 -3 -2 0 9 41 95 
95 41 9 0 -2 -3 -3 -3 -3 -2 0 6 30 80 108 64 21 3 -1 -2 -3 -3 -3 -3 -3 -3 -3 -3 -2 0 10 39 86 107 72 30 7 0 -2 -3 -3 -3 -3 -3 -3 -3 -3 -3 -3 -2 0 10 41 95 95 41 10 0 -2 -3 -3 -3 -3 -3 -3 -3 -3 -3 -3 -3 -3 -3 -3 -3 -2 -1 3 20 60 105 89 39 10 0 -2 -3 -3 -3 -3 -3 -3 -2 -1 3 20 63 107 80 30 6 -1 -2 -3 -3 -3 -2 0 9 41 95 
95 41 9 0 -2 -3 -3 -3 -3 -2 -1 3 21 64 107 80 30 6 -1 -2 -3 -3 -3 -3 -3 -3 -3 -2 -1 4 22 63 105 90 43 13 1 -2 -2 -3 -3 -3 -3 -3 -3 -3 -3 -3 -3 -2 0 9 40 94 97 44 11 0 -2 -3 -3 -3 -3 -3 -3 -3 -3 -3 -3 -3 -3 -3 -3 -3 -2 0 7 32 82 107 66 23 4 -1 -2 -3 -3 -3 -3 -3 -3 -2 -1 6 30 80 107 63 20 3 -1 -2 -3 -3 -3 -2 0 9 41 95 
95 41 9 0 -2 -3 -3 -3 -3 -3 -2 1 14 50 101 90 37 8 0 -2 -3 -3 -3 -3 -3 -3 -3 -2 0 11 40 88 105 64 23 4 -1 -2 -3 -3 -3 -3 -3 -3 -3 -3 -3 -3 -3 -2 0 8 36 89 101 50 14 1 -2 -3 -3 -3 -3 -3 -3 -3 -3 -3 -3 -3 -3 -3 -3 -3 -2 1 13 47 97 97 47 13 1 -2 -3 -3 -3 -3 -3 -3 -3 -2 0 9 39 92 100 49 13 0 -2 -3 -3 -3 -3 -2 0 10 42 96 
96 41 9 0 -2 -3 -3 -3 -3 -3 -2 0 10 43 96 96 43 10 0 -2 -3 -3 -3 -3 -3 -3 -2 -1 4 23 64 105 88 40 11 0 -2 -3 -3 -3 -3 -3 -3 -3 -3 -3 -3 -3 -3 -2 -1 6 30 79 107 63 20 3 -1 -2 -3 -3 -3 -3 -3 -3 -3 -3 -3 -3 -3 -3 -3 -2 -1 4 23 66 107 82 32 7 0 -2 -3 -3 -3 -3 -3 -3 -3 -2 0 13 49 100 92 39 9 0 -2 -3 -3 -3 -3 -2 0 11 44 99 
97 41 9 0 -2 -3 -3 -3 -3 -3 -2 0 8 37 90 101 50 14 1 -2 -3 -3 -3 -3 -3 -2 -2 1 13 43 90 105 63 22 4 -1 -2 -3 -3 -3 -3 -3 -3 -3 -3 -3 -3 -3 -3 -2 -1 3 20 63 107 79 30 6 -1 -2 -3 -3 -3 -3 -3 -3 -3 -3 -3 -3 -3 -3 -3 -2 0 10 39 89 105 60 20 3 -1 -2 -3 -3 -3 -3 -3 -3 -2 -1 3 20 63 107 80 30 6 -1 -2 -3 -3 -3 -3 -2 1 14 51 106 
100 40 9 0 -2 -3 -3 -3 -3 -3 -2 -1 6 30 79 107 63 20 3 -1 -2 -3 -3 -3 -3 -2 0 7 30 72 107 86 39 10 0 -2 -3 -3 -3 -3 -3 -3 -3 -3 -3 -3 -3 -3 -3 -3 -2 1 14 50 101 89 36 8 0 -2 -3 -3 -3 -3 -3 -3 -3 -3 -3 -3 -3 -3 -2 -1 3 20 60 105 89 39 10 0 -2 -3 -3 -3 -3 -3 -3 -3 -2 -1 6 30 80 107 63 20 3 -1 -2 -3 -3 -3 -2 -1 4 24 69 121 
103 40 9 0 -2 -3 -3 -3 -3 -3 -2 -1 3 20 63 107 79 30 6 -1 -2 -3 -3 -3 -2 -1 3 20 57 100 100 57 20 3 -1 -2 -3 -3 -3 -3 -3 -3 -3 -3 -3 -3 -3 -3 -3 -3 -2 0 11 44 97 94 40 9 0 -2 -3 -3 -3 -3 -3 -3 -3 -3 -3 -3 -3 -3 -2 0 7 32 82 107 66 23 4 -1 -2 -3 -3 -3 -3 -3 -3 -3 -2 0 9 39 92 100 49 13 0 -2 -3 -3 -3 -2 -2 1 13 43 96 139 
103 40 9 0 -2 -3 -3 -3 -3 -3 -3 -2 1 14 50 101 90 37 8 0 -2 -3 -3 -3 -2 0 10 39 86 107 72 30 7 0 -2 -3 -3 -3 -3 -3 -3 -3 -3 -3 -3 -3 -3 -3 -3 -3 -2 0 10 41 95 95 41 10 0 -2 -3 -3 -3 -3 -3 -3 -3 -3 -3 -3 -3 -3 -2 1 13 47 97 97 47 13 1 -2 -3 -3 -3 -3 -3 -3 -3 -3 -2 0 13 49 100 92 39 9 0 -2 -3 -3 -3 -2 0 7 29 73 123 145 
101 41 9 0 -2 -3 -3 -3 -3 -3 -3 -2 0 10 43 96 96 43 10 0 -2 -3 -3 -2 -1 4 22 63 105 90 43 13 1 -2 -2 -3 -3 -3 -3 -3 -3 -3 -3 -3 -3 -3 -3 -3 -3 -3 -2 0 9 40 94 97 44 11 0 -2 -3 -3 -3 -3 -3 -3 -3 -3 -3 -3 -3 -2 -1 4 23 66 107 82 32 7 0 -2 -3 -3 -3 -3 -3 -3 -3 -2 -1 3 20 63 107 80 30 6 -1 -2 -3 -3 -2 -1 4 20 57 104 130 136 
98 41 9 0 -2 -3 -3 -3 -3 -3 -3 -2 0 8 37 90 101 50 14 1 -2 -3 -3 -2 0 11 40 88 105 64 23 4 -1 -2 -3 -3 -3 -3 -3 -3 -3 -3 -3 -3 -3 -3 -3 -3 -3 -3 -2 0 8 36 89 101 50 14 1 -2 -2 -3 -3 -3 -3 -3 -3 -3 -3 -3 -3 -2 0 10 39 89 105 60 20 3 -1 -2 -3 -3 -3 -3 -3 -3 -3 -2 -1 6 30 80 107 63 20 3 -1 -2 -3 -2 -2 1 13 42 88 115 110 120 
97 41 9 0 -2 -3 -3 -3 -3 -3 -3 -2 -1 6 30 79 107 63 20 3 -1 -2 -2 -1 4 23 64 105 88 40 11 0 -2 -3 -3 -3 -3 -3 -3 -3 -3 -3 -3 -3 -3 -3 -3 -3 -3 -3 -2 -1 6 30 80 107 64 21 3 -1 -2 -2 -2 -3 -3 -3 -3 -3 -3 -3 -2 -1 3 20 60 105 89 39 10 0 -2 -3 -3 -3 -3 -3 -3 -3 -3 -2 0 9 39 92 100 49 13 0 -2 -3 -3 -2 0 7 30 71 108 99 85 108 
96 41 9 0 -2 -3 -3 -3 -3 -3 -3 -2 -1 3 20 63 107 79 30 6 -1 -2 -2 1 13 43 90 105 63 22 4 -1 -2 -3 -3 -3 -3 -3 -3 -3 -3 -3 -3 -3 -3 -3 -3 -3 -3 -3 -2 -1 3 21 64 108 81 32 8 1 0 -1 -1 -2 -2 -2 -2 -2 -2 -2 -2 0 7 32 82 107 66 23 4 -1 -2 -3 -3 -3 -3 -3 -3 -3 -3 -2 0 13 49 100 92 39 9 0 -2 -3 -2 -1 4 21 57 100 102 69 64 101 
96 41 9 0 -2 -3 -3 -3 -3 -3 -3 -3 -2 1 14 50 101 90 37 8 0 -2 0 7 30 72 107 86 39 10 0 -2 -3 -3 -3 -3 -3 -3 -3 -3 -3 -3 -3 -3 -3 -3 -3 -3 -3 -3 -2 -1 2 17 55 107 98 48 20 11 8 6 3 1 0 0 0 0 -1 -1 -1 1 13 47 97 97 47 13 1 -2 -3 -3 -3 -3 -3 -3 -3 -3 -2 -1 3 20 63 107 80 30 6 -1 -2 -2 -2 1 13 42 88 107 74 42 52 98 
95 41 9 0 -2 -3 -3 -3 -3 -3 -3 -3 -2 0 10 43 96 96 43 10 0 0 3 20 57 100 100 57 20 3 -1 -2 -3 -3 -3 -3 -3 -3 -3 -3 -3 -3 -3 -3 -3 -3 -3 -3 -3 -2 -1 0 6 23 61 116 120 78 52 42 37 30 20 14 11 10 9 8 6 3 2 7 25 67 107 82 32 7 0 -2 -3 -3 -3 -3 -3 -3 -3 -3 -2 -1 6 30 80 107 63 20 3 -1 -2 -2 0 7 30 71 107 88 45 26 46 96 
95 41 9 0 -2 -3 -3 -3 -3 -3 -3 -3 -2 0 8 37 90 101 50 14 1 1 10 39 86 107 72 30 7 0 -2 -3 -3 -3 -3 -3 -3 -3 -3 -3 -3 -3 -3 -3 -3 -3 -3 -2 -2 -1 1 8 22 47 88 135 143 119 102 95 90 79 63 50 44 41 40 36 30 21 17 23 48 93 106 61 20 3 -1 -2 -3 -3 -3 -3 -3 -3 -3 -3 -2 0 9 39 92 100 49 13 0 -2 -2 -1 4 21 57 100 100 58 23 17 43 96 
95 41 9 0 -2 -3 -3 -3 -3 -3 -3 -3 -2 -1 6 30 79 107 64 21 4 5 22 63 105 90 43 13 1 -2 -2 -3 -3 -3 -3 -3 -3 -3 -3 -3 -3 -3 -3 -3 -3 -3 -2 -2 0 4 13 30 58 90 115 124 115 103 98 98 101 107 107 101 97 95 94 89 80 64 55 61 89 117 93 41 11 0 -2 -3 -3 -3 -3 -3 -3 -3 -3 -3 -2 0 13 49 100 92 39 9 0 -2 -1 1 13 42 88 106 72 30 10 12 42 95 
95 41 9 0 -2 -3 -3 -3 -3 -3 -3 -3 -2 -1 3 20 63 107 80 31 9 13 40 88 105 64 23 4 -1 -2 -3 -3 -3 -3 -3 -3 -3 -3 -3 -3 -3 -3 -3 -3 -3 -2 -1 1 7 21 42 71 100 108 92 69 52 44 42 44 50 63 79 89 94 95 97 101 107 108 106 115 135 132 79 29 6 0 -2 -3 -3 -3 -3 -3 -3 -3 -3 -2 -1 3 20 63 107 80 30 6 0 -2 0 7 30 71 106 88 42 13 4 11 41 95 
95 41 9 0 -2 -3 -3 -3 -3 -3 -3 -3 -3 -2 1 14 50 101 90 39 16 26 64 105 88 40 11 0 -2 -3 -3 -3 -3 -3 -3 -3 -3 -3 -3 -3 -3 -3 -3 -2 -2 0 4 13 30 57 88 106 100 72 43 24 14 11 10 11 14 20 30 36 40 41 44 50 64 81 95 111 134 132 79 30 7 0 -2 -2 -3 -3 -3 -3 -3 -3 -3 -2 0 6 30 80 107 63 20 3 -1 -1 4 21 57 100 100 57 21 4 1 10 41 95 
95 41 9 0 -2 -3 -3 -3 -3 -3 -3 -3 -3 -2 0 10 43 96 97 47 27 46 90 105 63 22 4 -1 -2 -3 -3 -3 -3 -3 -3 -3 -3 -3 -3 -3 -3 -3 -2 -1 0 7 20 42 71 100 106 88 57 30 13 5 1 0 0 0 1 3 6 8 9 10 11 14 21 31 41 57 87 117 95 46 15 3 0 -2 -2 -2 -2 -2 -2 -2 -2 -2 0 10 40 92 100 49 13 1 -1 1 13 42 88 106 71 30 8 0 0 9 41 95 
95 41 9 0 -2 -3 -3 -3 -3 -3 -3 -3 -3 -2 0 8 37 90 103 61 47 76 107 86 39 10 0 -2 -3 -3 -3 -3 -3 -3 -3 -3 -3 -3 -3 -3 -2 -2 -1 2 10 27 56 88 106 100 71 42 21 7 1 -1 -2 -2 -2 -2 -2 -1 -1 0 0 0 0 1 3 6 11 21 47 90 109 76 36 14 5 1 0 0 0 0 0 0 0 0 3 16 51 101 93 40 10 0 0 8 30 71 106 88 42 13 1 -1 0 9 41 95 
95 41 9 0 -2 -3 -3 -3 -3 -3 -3 -3 -3 -2 -1 6 30 80 111 85 80 105 101 57 20 3 -1 -2 -3 -3 -3 -3 -3 -3 -3 -3 -3 -3 -3 -2 -2 0 4 14 33 66 99 107 88 57 30 13 4 0 -2 -2 -3 -3 -3 -3 -3 -2 -2 -2 -2 -2 -2 -2 -1 0 0 6 22 58 103 110 77 44 24 15 11 10 9 9 9 9 10 11 15 32 72 112 85 33 8 1 4 21 57 100 100 57 21 4 -1 -2 0 9 41 95 
95 41 9 0 -2 -3 -3 -3 -3 -3 -3 -3 -3 -2 -1 3 20 64 113 115 114 111 72 30 7 0 -2 -3 -3 -3 -3 -3 -3 -3 -3 -3 -3 -2 -2 -1 1 7 21 43 73 103 103 73 43 21 7 1 -1 -2 -2 -3 -3 -3 -3 -3 -3 -3 -3 -3 -3 -3 -3 -3 -2 -2 -2 0 8 32 78 125 127 97 68 51 44 42 41 41 41 41 41 43 49 68 107 125 80 33 11 6 14 43 88 107 71 30 7 0 -2 -2 0 9 41 95 
95 41 9 0 -2 -3 -3 -3 -3 -3 -3 -3 -3 -3 -2 1 14 50 109 137 129 92 43 13 1 -2 -2 -3 -3 -3 -3 -3 -3 -3 -3 -3 -2 -2 0 4 13 30 57 88 107 99 66 33 14 4 0 -2 -2 -3 -3 -3 -3 -3 -3 -3 -3 -3 -3 -3 -3 -3 -3 -3 -3 -3 -2 -1 2 18 58 119 145 129 113 103 98 96 95 95 95 95 96 97 101 116 139 140 96 53 28 22 36 74 107 88 42 13 1 -2 -2 -2 0 9 41 95 
95 41 9 0 -2 -3 -3 -3 -3 -3 -3 -3 -3 -3 -2 0 10 43 106 145 119 64 23 4 -1 -2 -3 -3 -3 -3 -3 -3 -3 -3 -2 -2 -1 1 7 20 42 71 100 107 88 56 27 10 2 -1 -2 -2 -3 -3 -3 -3 -3 -3 -3 -3 -3 -3 -3 -3 -3 -3 -3 -3 -3 -3 -3 -2 1 16 54 111 121 96 89 91 94 95 95 95 95 95 95 96 97 103 114 125 117 94 70 59 75 107 103 58 21 4 -1 -2 -3 -2 0 9 41 95 
95 41 9 0 -2 -3 -3 -3 -3 -3 -3 -3 -3 -3 -2 0 9 41 103 138 94 40 11 0 -2 -3 -3 -3 -3 -3 -3 -3 -2 -2 -1 0 4 12 29 57 88 107 101 72 42 20 7 0 -1 -2 -3 -3 -3 -3 -3 -3 -3 -3 -3 -3 -3 -3 -3 -3 -3 -3 -3 -3 -3 -3 -2 -1 3 21 64 110 91 52 39 38 40 41 41 41 41 41 41 41 42 44 52 68 91 107 111 112 124 124 80 33 9 0 -2 -3 -3 -2 0 9 41 95 
95 41 9 0 -2 -3 -3 -3 -3 -3 -3 -3 -3 -3 -2 0 9 41 101 121 68 23 4 -1 -2 -3 -3 -3 -3 -3 -2 -2 -1 0 2 7 20 41 72 102 109 91 60 32 14 5 0 -1 -2 -2 -3 -3 -3 -3 -3 -3 -3 -3 -3 -3 -3 -3 -3 -3 -3 -3 -3 -3 -3 -3 -2 -1 6 30 80 108 67 27 12 9 9 9 9 9 9 9 9 9 10 11 14 23 40 64 92 121 145 127 68 24 5 -1 -2 -3 -3 -2 0 9 41 95 
95 41 9 0 -2 -3 -3 -3 -3 -3 -3 -3 -3 -3 -2 0 10 42 98 106 51 14 1 -2 -3 -3 -3 -3 -2 -2 -1 0 3 7 15 30 57 92 119 118 87 56 32 17 7 2 0 0 -1 -2 -2 -2 -2 -2 -3 -3 -3 -3 -3 -3 -3 -3 -3 -3 -3 -3 -3 -3 -3 -3 -2 0 8 37 90 102 51 15 3 0 0 0 0 0 0 0 0 0 0 0 1 4 11 23 43 76 117 125 80 33 9 0 -2 -3 -3 -2 0 9 41 95 
95 41 9 0 -2 -3 -3 -3 -3 -3 -3 -3 -3 -3 -2 0 11 44 98 97 43 10 0 -2 -2 -2 -2 -2 -1 0 4 10 20 33 50 75 110 138 142 117 82 59 44 33 21 14 9 6 3 1 0 0 -1 -1 -2 -2 -2 -2 -3 -3 -3 -3 -3 -3 -3 -3 -3 -3 -3 -3 -2 0 9 40 94 97 44 11 0 -2 -2 -2 -2 -2 -2 -2 -2 -2 -2 -2 -2 -1 0 4 14 33 70 108 103 58 21 4 -1 -2 -3 -2 0 9 41 95 
95 41 9 0 -2 -3 -3 -3 -3 -3 -3 -3 -3 -3 -2 1 14 50 102 90 37 8 0 -2 -2 -1 0 1 4 11 22 39 60 82 99 113 120 122 125 121 109 100 92 80 63 49 39 30 21 14 10 8 6 3 0 0 -1 -1 -2 -2 -2 -2 -2 -3 -3 -3 -3 -3 -3 -3 -2 0 11 44 97 94 40 9 0 -2 -3 -3 -3 -3 -3 -3 -3 -3 -3 -3 -3 -2 -2 -1 2 11 34 74 107 88 42 13 1 -2 -2 -2 0 9 41 95 
95 41 9 0 -2 -3 -3 -3 -3 -3 -3 -3 -3 -2 -1 3 20 64 107 80 30 6 0 -1 0 3 7 13 23 40 63 88 105 107 98 84 68 60 67 81 91 96 101 107 107 100 92 80 64 50 43 37 30 20 13 9 6 3 1 0 0 -1 -1 -2 -2 -2 -2 -3 -3 -2 -2 1 14 50 101 90 36 8 0 -2 -3 -3 -3 -3 -3 -3 -3 -3 -3 -3 -3 -3 -3 -2 -1 2 14 43 88 107 71 30 7 0 -2 -2 0 9 41 95 
95 41 9 0 -2 -3 -3 -3 -3 -3 -3 -3 -3 -2 -1 6 30 80 107 64 21 4 1 4 10 20 32 47 66 89 105 105 89 66 47 33 22 18 21 30 37 43 50 64 80 92 100 107 107 101 96 90 79 63 49 39 30 21 14 10 8 6 3 0 0 -1 -1 -2 -2 -2 -1 3 21 64 107 79 30 6 -1 -2 -3 -3 -3 -3 -3 -3 -3 -3 -3 -3 -3 -3 -3 -3 -2 -1 4 21 57 100 100 57 21 4 -1 -2 0 9 41 95 
95 41 9 0 -2 -3 -3 -3 -3 -3 -3 -3 -3 -2 0 8 37 90 102 52 17 8 11 22 39 60 82 97 107 105 88 63 40 23 13 7 3 2 3 6 8 10 14 21 30 39 49 63 79 90 96 101 107 107 100 92 80 64 50 43 37 30 20 13 9 6 3 1 0 0 0 7 30 80 107 63 20 3 -1 -2 -3 -3 -3 -3 -3 -3 -3 -3 -3 -3 -3 -3 -3 -3 -3 -2 0 7 30 71 106 88 43 14 2 -1 0 9 41 95 
95 41 9 0 -2 -3 -3 -3 -3 -3 -3 -3 -3 -2 0 10 43 97 99 50 25 25 41 63 88 105 107 97 82 60 39 22 11 4 1 0 -1 -2 -1 -1 0 0 1 3 6 9 13 20 30 37 43 50 64 80 92 100 107 107 101 96 90 79 63 49 39 30 21 14 10 9 8 14 40 91 102 50 14 1 -2 -3 -3 -3 -3 -3 -3 -3 -3 -3 -3 -3 -3 -3 -3 -3 -3 -2 -2 1 13 42 88 107 73 33 10 1 0 10 41 95 
95 41 9 0 -2 -3 -3 -3 -3 -3 -3 -3 -3 -2 1 14 51 105 104 64 52 66 89 105 105 89 66 47 32 20 10 4 0 -1 -2 -2 -2 -3 -2 -2 -2 -2 -2 -1 -1 0 0 3 6 8 10 14 21 30 39 49 63 79 90 96 101 107 107 100 92 80 64 50 43 38 32 33 55 102 99 44 11 0 -2 -3 -3 -3 -3 -3 -3 -3 -3 -3 -3 -3 -3 -3 -3 -3 -3 -3 -2 -1 4 20 56 99 103 66 28 7 2 10 41 95 
95 41 9 0 -2 -3 -3 -3 -3 -3 -3 -3 -2 -1 4 23 68 122 121 96 97 107 105 88 63 40 23 13 7 3 0 -1 -2 -2 -3 -3 -3 -3 -3 -3 -3 -3 -3 -2 -2 -2 -2 -1 -1 0 0 1 3 6 9 13 20 30 37 43 50 64 80 92 100 107 107 101 96 90 82 75 87 120 100 42 9 0 -2 -3 -3 -3 -3 -3 -3 -3 -3 -3 -3 -3 -3 -3 -3 -3 -3 -3 -3 -2 0 7 27 66 103 99 56 21 7 11 42 95 
95 41 9 0 -2 -3 -3 -3 -3 -3 -3 -3 -2 0 11 40 95 142 138 121 107 88 63 40 22 11 4 1 0 -1 -2 -2 -3 -3 -3 -3 -3 -3 -3 -3 -3 -3 -3 -3 -3 -3 -3 -2 -2 -2 -2 -2 -1 -1 0 0 3 6 8 10 14 21 30 39 49 63 79 90 96 101 108 115 128 142 103 41 9 0 -2 -3 -3 -3 -3 -3 -3 -3 -3 -3 -3 -3 -3 -3 -3 -3 -3 -3 -3 -3 -2 0 10 33 73 107 88 43 16 15 42 96 
95 41 9 0 -2 -3 -3 -3 -3 -3 -3 -2 -1 4 23 64 116 130 109 84 60 39 22 11 4 0 -1 -2 -2 -2 -3 -3 -3 -3 -3 -3 -3 -3 -3 -3 -3 -3 -3 -3 -3 -3 -3 -3 -3 -3 -3 -3 -2 -2 -2 -2 -1 -1 0 0 1 3 6 9 13 20 30 37 43 50 66 88 117 140 103 41 9 0 -2 -3 -3 -3 -3 -3 -3 -3 -3 -3 -3 -3 -3 -3 -3 -3 -3 -3 -3 -3 -2 -1 2 14 43 88 107 74 36 23 45 96 
96 41 9 0 -2 -3 -3 -3 -3 -3 -2 -2 1 13 43 91 113 85 53 33 20 10 4 0 -1 -2 -2 -3 -3 -3 -3 -3 -3 -3 -3 -3 -3 -3 -3 -3 -3 -3 -3 -3 -3 -3 -3 -3 -3 -3 -3 -3 -3 -3 -3 -3 -2 -2 -2 -2 -2 -1 -1 0 0 3 6 8 10 14 23 41 75 117 99 41 9 0 -2 -3 -3 -3 -3 -3 -3 -3 -3 -3 -3 -3 -3 -3 -3 -3 -3 -3 -3 -3 -3 -2 -1 4 20 56 99 103 68 40 51 98 
96 41 9 0 -2 -3 -3 -3 -3 -3 -2 0 8 30 72 107 90 46 20 8 3 0 -1 -2 -2 -3 -3 -3 -3 -3 -3 -3 -3 -3 -3 -3 -3 -3 -3 -3 -3 -3 -3 -3 -3 -3 -3 -3 -3 -3 -3 -3 -3 -3 -3 -3 -3 -3 -3 -3 -3 -2 -2 -2 -2 -1 -1 0 0 1 6 18 51 102 97 41 9 0 -2 -3 -3 -3 -3 -3 -3 -3 -3 -3 -3 -3 -3 -3 -3 -3 -3 -3 -3 -3 -3 -3 -2 0 7 27 66 103 101 69 64 101 
97 41 9 0 -2 -3 -3 -3 -3 -2 -1 4 21 57 100 100 58 21 5 0 -1 -2 -2 -3 -3 -3 -3 -3 -3 -3 -3 -3 -3 -3 -3 -3 -3 -3 -3 -3 -3 -3 -3 -3 -3 -3 -3 -3 -3 -3 -3 -3 -3 -3 -3 -3 -3 -3 -3 -3 -3 -3 -3 -3 -3 -2 -2 -2 -2 -1 1 11 43 97 96 42 10 0 -2 -3 -3 -3 -3 -3 -3 -3 -3 -3 -3 -3 -3 -3 -3 -3 -3 -3 -3 -3 -3 -3 -3 -2 0 10 33 73 108 98 84 108 
98 41 9 0 -2 -3 -3 -3 -2 -1 2 14 43 88 107 72 30 8 0 -2 -2 -2 -3 -3 -3 -3 -3 -3 -3 -3 -3 -3 -3 -3 -3 -3 -3 -3 -3 -3 -3 -3 -3 -3 -3 -3 -3 -3 -3 -3 -3 -3 -3 -3 -3 -3 -3 -3 -3 -3 -3 -3 -3 -3 -3 -3 -3 -3 -2 -2 0 10 41 96 99 45 12 0 -2 -2 -3 -3 -3 -3 -3 -3 -3 -3 -3 -3 -3 -3 -3 -3 -3 -3 -3 -3 -3 -3 -3 -2 -1 2 14 43 89 115 110 120 
101 41 9 0 -2 -3 -3 -2 -1 1 10 33 74 108 90 44 15 2 -1 -2 -2 -2 -2 -2 -2 -2 -2 -2 -2 -2 -3 -3 -3 -3 -3 -3 -3 -3 -3 -3 -3 -3 -3 -3 -3 -3 -3 -3 -3 -3 -3 -3 -3 -3 -3 -3 -3 -3 -3 -3 -3 -3 -3 -3 -3 -3 -3 -3 -2 -2 1 11 42 97 107 55 18 4 0 -2 -2 -3 -3 -3 -3 -3 -3 -3 -3 -3 -3 -3 -3 -3 -3 -3 -3 -3 -3 -3 -3 -3 -2 -1 4 21 57 104 130 136 
103 40 9 0 -2 -3 -2 -1 1 10 31 68 108 109 68 32 13 5 1 0 0 0 0 0 0 0 0 0 -1 -1 -2 -2 -2 -2 -2 -2 -2 -2 -2 -2 -2 -3 -3 -3 -3 -3 -3 -3 -3 -3 -3 -3 -3 -3 -3 -3 -3 -3 -3 -3 -3 -3 -3 -3 -3 -3 -3 -2 -2 0 5 19 51 104 125 81 37 15 5 0 -1 -2 -2 -3 -3 -3 -3 -3 -3 -3 -3 -3 -3 -3 -3 -3 -3 -3 -3 -3 -3 -3 -3 -2 0 7 29 73 123 145 
103 40 9 0 -2 -2 -1 1 10 30 68 113 130 105 70 47 32 21 14 11 10 9 9 9 9 9 9 8 6 3 1 0 0 0 0 0 0 0 0 -1 -1 -2 -2 -2 -2 -2 -2 -2 -2 -2 -2 -2 -2 -3 -3 -3 -3 -3 -3 -3 -3 -3 -3 -3 -3 -2 -2 -1 1 8 21 43 78 123 145 120 77 44 23 11 3 0 -2 -2 -3 -3 -3 -3 -3 -3 -3 -3 -3 -3 -3 -3 -3 -3 -3 -3 -3 -3 -3 -2 -2 1 13 43 96 139 
100 40 9 0 -2 -1 1 10 31 68 113 143 140 121 104 93 80 64 50 44 42 41 41 41 41 41 40 36 30 20 14 11 10 9 9 9 9 9 8 6 3 1 0 0 0 0 0 0 0 0 0 -1 -1 -2 -2 -2 -2 -2 -2 -2 -2 -2 -2 -2 -2 -1 0 4 13 30 57 88 111 122 124 123 113 91 64 39 20 7 1 -1 -2 -2 -3 -3 -3 -3 -3 -3 -3 -3 -3 -3 -3 -3 -3 -3 -3 -3 -3 -3 -2 -1 4 24 69 121 
97 41 9 0 -1 1 10 31 67 106 121 116 106 100 99 102 107 107 101 97 96 95 95 95 95 95 94 89 79 63 50 44 42 41 41 41 41 40 36 30 20 14 11 10 9 9 9 9 9 9 8 6 3 1 0 0 0 0 0 0 0 0 0 -1 0 3 11 23 43 72 100 107 92 71 62 71 91 106 105 86 57 30 13 4 0 -1 -2 -2 -3 -3 -3 -3 -3 -3 -3 -3 -3 -3 -3 -3 -3 -3 -3 -3 -3 -2 1 14 51 106 
96 41 10 1 2 11 31 67 102 105 79 55 45 42 44 50 63 79 89 94 95 95 95 95 95 96 97 101 107 107 101 97 96 95 95 95 95 94 89 79 63 50 44 42 41 41 41 41 41 40 36 30 20 14 11 10 9 9 9 9 9 8 6 5 9 20 39 63 90 107 100 72 44 26 19 25 41 64 90 107 100 72 43 23 10 3 0 -2 -2 -3 -3 -3 -3 -3 -3 -3 -3 -3 -3 -3 -3 -3 -3 -3 -3 -2 0 11 44 99 
96 42 12 7 14 34 68 102 102 68 35 18 11 10 11 14 20 30 36 40 41 41 41 41 41 42 44 50 63 79 89 94 95 95 95 95 96 97 101 107 107 101 97 96 95 95 95 95 95 94 89 79 63 50 44 42 41 41 41 41 40 37 31 28 35 58 87 105 105 86 57 30 13 5 3 5 11 23 43 72 100 107 90 63 39 20 7 1 -1 -2 -2 -3 -3 -3 -3 -3 -3 -3 -3 -3 -3 -3 -3 -3 -3 -2 0 10 42 96 
96 45 20 23 43 74 103 102 67 31 11 3 0 0 0 1 3 6 8 9 9 9 9 9 9 10 11 14 20 30 36 40 41 41 41 41 42 44 50 63 79 89 94 95 95 95 95 95 96 97 101 107 107 101 97 96 95 95 95 95 94 91 84 78 86 105 108 90 63 39 20 7 1 -1 -1 -1 0 4 13 30 57 86 105 105 86 57 30 13 4 0 -1 -2 -2 -3 -3 -3 -3 -3 -3 -3 -3 -3 -3 -3 -3 -2 0 9 41 96 
99 54 40 59 88 107 99 65 30 10 1 -1 -2 -2 -2 -2 -1 -1 0 0 0 0 0 0 0 0 0 1 3 6 8 9 9 9 9 9 10 11 14 20 30 36 40 41 41 41 41 41 42 44 50 63 79 89 94 95 95 95 95 96 98 105 119 133 133 113 76 44 23 11 3 0 -2 -2 -2 -2 -2 -1 1 7 20 39 63 90 107 100 72 43 23 10 3 0 -2 -2 -3 -3 -3 -3 -3 -3 -3 -3 -3 -3 -3 -2 0 9 41 96 
106 74 77 101 107 88 56 27 9 1 -1 -2 -3 -3 -3 -3 -2 -2 -2 -2 -2 -2 -2 -2 -2 -2 -2 -2 -1 -1 0 0 0 0 0 0 0 0 1 3 6 8 9 9 9 9 9 9 10 11 14 20 30 36 40 41 41 41 41 42 46 59 92 135 133 82 38 15 5 0 -1 -2 -2 -3 -3 -3 -3 -2 -2 0 3 10 23 43 72 100 107 90 63 39 20 7 1 -1 -2 -2 -3 -3 -3 -3 -3 -3 -3 -3 -3 -2 0 9 41 97 
121 107 111 104 74 43 20 7 0 -1 -2 -3 -3 -3 -3 -3 -3 -3 -3 -3 -3 -3 -3 -3 -3 -3 -3 -3 -2 -2 -2 -2 -2 -2 -2 -2 -2 -2 -2 -1 -1 0 0 0 0 0 0 0 0 0 1 3 6 8 9 9 9 9 9 10 13 25 60 113 112 56 18 4 0 -2 -2 -3 -3 -3 -3 -3 -3 -3 -2 -2 -1 0 4 13 30 57 86 105 105 86 57 30 13 4 0 -1 -2 -2 -3 -3 -3 -3 -3 -3 -3 -2 0 9 41 99 
140 131 107 68 34 14 4 0 -2 -2 -3 -3 -3 -3 -3 -3 -3 -3 -3 -3 -3 -3 -3 -3 -3 -3 -3 -3 -3 -3 -3 -3 -3 -3 -3 -3 -3 -3 -3 -2 -2 -2 -2 -2 -2 -2 -2 -2 -2 -2 -2 -1 -1 0 0 0 0 0 0 0 3 13 46 100 100 45 12 0 -2 -2 -3 -3 -3 -3 -3 -3 -3 -3 -3 -3 -2 -2 -1 1 7 20 39 63 90 107 100 72 43 23 11 4 0 -1 -2 -2 -3 -3 -3 -3 -3 -2 0 9 41 102 
144 117 69 31 11 2 -1 -2 -3 -3 -3 -3 -3 -3 -3 -3 -3 -3 -3 -3 -3 -3 -3 -3 -3 -3 -3 -3 -3 -3 -3 -3 -3 -3 -3 -3 -3 -3 -3 -3 -3 -3 -3 -3 -3 -3 -3 -3 -3 -3 -3 -2 -2 -2 -2 -2 -2 -2 -2 -2 0 10 42 97 96 42 10 0 -2 -3 -3 -3 -3 -3 -3 -3 -3 -3 -3 -3 -3 -3 -2 -2 0 3 10 23 43 72 100 107 90 64 40 22 10 3 0 -2 -2 -3 -3 -3 -3 -2 0 9 40 103 
127 80 35 11 1 -1 -2 -3 -3 -3 -3 -3 -3 -3 -3 -3 -3 -3 -3 -3 -3 -3 -3 -3 -3 -3 -3 -3 -3 -3 -3 -3 -3 -3 -3 -3 -3 -3 -3 -3 -3 -3 -3 -3 -3 -3 -3 -3 -3 -3 -3 -3 -3 -3 -3 -3 -3 -3 -3 -2 0 9 41 96 96 41 9 0 -2 -3 -3 -3 -3 -3 -3 -3 -3 -3 -3 -3 -3 -3 -3 -2 -2 -1 0 4 13 30 57 86 105 105 88 63 39 20 7 1 -1 -2 -2 -2 -2 -2 0 9 41 101 
108 55 18 3 -1 -2 -3 -3 -3 -3 -3 -3 -3 -3 -3 -3 -3 -3 -3 -3 -3 -3 -3 -3 -3 -3 -3 -3 -3 -3 -3 -3 -3 -3 -3 -3 -3 -3 -3 -3 -3 -3 -3 -3 -3 -3 -3 -3 -3 -3 -3 -3 -3 -3 -3 -3 -3 -3 -3 -2 0 9 41 95 95 41 9 0 -2 -3 -3 -3 -3 -3 -3 -3 -3 -3 -3 -3 -3 -3 -3 -3 -3 -2 -2 -1 1 7 20 39 63 88 105 105 86 57 30 13 4 1 0 -1 -1 -1 0 10 41 98 
99 45 11 0 -2 -3 -3 -3 -3 -3 -3 -3 -3 -3 -3 -3 -3 -3 -3 -3 -3 -3 -3 -3 -3 -3 -3 -3 -3 -3 -3 -3 -3 -3 -3 -3 -3 -3 -3 -3 -3 -3 -3 -3 -3 -3 -3 -3 -3 -3 -3 -3 -3 -3 -3 -3 -3 -3 -3 -2 0 9 41 95 95 41 9 0 -2 -3 -3 -3 -3 -3 -3 -3 -3 -3 -3 -3 -3 -3 -3 -3 -3 -3 -3 -2 -2 0 3 10 22 40 64 91 108 101 72 43 24 14 9 6 3 1 2 11 42 97 
97 42 10 0 -2 -3 -3 -3 -3 -3 -3 -3 -3 -3 -3 -3 -3 -3 -3 -3 -3 -3 -3 -3 -3 -3 -3 -3 -3 -3 -3 -3 -3 -3 -3 -3 -3 -3 -3 -3 -3 -3 -3 -3 -3 -3 -3 -3 -3 -3 -3 -3 -3 -3 -3 -3 -3 -3 -3 -2 0 9 41 95 95 41 9 0 -2 -3 -3 -3 -3 -3 -3 -3 -3 -3 -3 -3 -3 -3 -3 -3 -3 -3 -3 -3 -2 -2 -1 0 4 12 25 47 79 111 117 96 69 50 39 30 21 14 12 19 47 98 
97 42 10 0 -2 -2 -2 -2 -2 -2 -3 -3 -3 -3 -3 -3 -3 -3 -3 -3 -3 -3 -3 -3 -3 -3 -3 -3 -3 -3 -3 -3 -3 -3 -3 -3 -3 -3 -3 -3 -3 -3 -3 -3 -3 -3 -3 -3 -3 -3 -3 -3 -3 -3 -3 -3 -3 -3 -3 -2 0 9 41 95 95 41 9 0 -2 -3 -3 -3 -3 -3 -3 -3 -3 -3 -3 -3 -3 -3 -3 -3 -3 -3 -3 -3 -2 -2 -1 0 2 6 15 30 56 97 134 142 124 105 93 80 63 50 42 43 63 106 
102 43 12 2 0 0 0 0 -1 -1 -2 -2 -2 -2 -2 -2 -2 -2 -3 -3 -3 -3 -3 -3 -3 -3 -3 -3 -3 -3 -3 -3 -3 -3 -3 -3 -3 -3 -3 -3 -3 -3 -3 -3 -3 -3 -3 -3 -3 -3 -3 -3 -3 -3 -3 -3 -3 -3 -3 -2 0 9 41 95 95 41 9 0 -2 -3 -3 -3 -3 -3 -3 -3 -3 -3 -3 -3 -3 -3 -3 -3 -3 -3 -2 -2 -1 0 1 4 10 20 34 52 77 108 130 128 113 103 103 107 107 101 94 91 100 125 
111 52 22 12 10 9 9 8 6 3 1 0 0 0 0 0 -1 -1 -2 -2 -2 -2 -2 -2 -2 -2 -2 -3 -3 -3 -3 -3 -3 -3 -3 -3 -3 -3 -3 -3 -3 -3 -3 -3 -3 -3 -3 -3 -3 -3 -3 -3 -3 -3 -3 -3 -3 -3 -3 -2 0 9 41 95 95 41 9 0 -2 -3 -3 -3 -3 -3 -3 -3 -3 -3 -3 -3 -3 -3 -3 -2 -2 -2 -1 0 3 7 13 23 39 60 82 98 109 108 92 68 52 47 51 64 80 92 102 114 132 147 
127 79 52 44 41 41 40 36 30 20 14 11 10 9 9 8 6 3 1 0 0 0 0 0 0 -1 -1 -2 -2 -2 -2 -2 -2 -2 -2 -3 -3 -3 -3 -3 -3 -3 -3 -3 -3 -3 -3 -3 -3 -3 -3 -3 -3 -3 -3 -3 -3 -3 -3 -2 0 9 41 95 95 41 9 0 -2 -3 -3 -3 -3 -3 -3 -3 -3 -3 -3 -3 -3 -2 -2 -1 0 1 4 10 20 32 47 66 89 105 107 97 82 60 39 23 14 12 14 21 30 40 51 72 108 143 
147 123 104 97 96 95 94 89 79 63 50 44 42 41 40 36 30 20 14 11 10 9 9 9 8 6 3 1 0 0 0 0 0 -1 -1 -2 -2 -2 -2 -2 -2 -2 -2 -2 -3 -3 -3 -3 -3 -3 -3 -3 -3 -3 -3 -3 -3 -3 -3 -2 0 9 41 95 95 41 9 0 -2 -3 -3 -3 -3 -3 -3 -3 -3 -3 -3 -2 -2 -1 0 3 7 13 23 39 60 82 97 107 105 89 66 47 32 20 10 4 1 0 1 3 6 10 16 32 68 124 
143 123 104 97 96 96 97 101 107 107 101 97 96 95 94 89 79 63 50 44 42 41 41 40 36 30 20 14 11 10 9 9 8 6 3 1 0 0 0 0 0 0 -1 -1 -2 -2 -2 -2 -2 -2 -2 -2 -3 -3 -3 -3 -3 -3 -3 -2 0 9 41 95 95 41 9 0 -2 -3 -3 -3 -3 -3 -3 -3 -2 -2 -2 -1 0 4 10 20 32 47 66 89 105 107 97 82 60 39 23 13 7 3 0 -1 -2 -2 -2 -1 0 0 3 15 49 110 
118 79 53 44 42 42 44 50 63 79 89 94 95 96 97 101 107 107 101 97 96 95 95 94 89 79 63 50 44 42 41 40 36 30 20 14 11 10 9 9 9 8 6 3 1 0 0 0 0 0 -1 -1 -2 -2 -2 -2 -2 -2 -2 -2 0 10 41 95 95 41 9 0 -2 -3 -3 -3 -3 -3 -2 -2 -1 0 1 4 11 22 39 60 82 97 107 105 89 66 47 32 20 10 4 1 0 -1 -2 -2 -3 -3 -3 -2 -2 -2 0 10 43 101 
102 53 22 12 10 10 11 14 20 30 36 40 41 42 44 50 63 79 89 94 95 95 96 97 101 107 107 101 97 96 95 94 89 79 63 50 44 42 41 41 40 36 30 20 14 11 10 9 9 8 6 3 1 0 0 0 0 0 0 0 1 10 42 96 96 41 9 0 -2 -3 -3 -2 -2 -2 -1 0 3 7 13 23 40 63 88 105 107 97 82 60 39 23 13 7 3 0 -1 -2 -2 -2 -3 -3 -3 -3 -3 -3 -3 -2 0 10 41 97 
97 44 12 2 0 0 0 1 3 6 8 9 9 10 11 14 20 30 36 40 41 41 42 44 50 63 79 89 94 95 96 97 101 107 107 101 97 96 95 95 94 89 79 63 50 44 42 41 40 36 30 20 14 11 10 9 9 9 8 6 6 14 44 97 97 42 10 0 -2 -2 -2 -1 0 1 4 10 20 32 47 66 89 105 105 89 66 47 32 20 10 4 1 0 -1 -2 -2 -3 -3 -3 -3 -3 -3 -3 -3 -3 -3 -2 0 9 41 96 
96 42 10 0 -2 -2 -2 -2 -1 -1 0 0 0 0 0 1 3 6 8 9 9 9 10 11 14 20 30 36 40 41 42 44 50 63 79 89 94 95 95 96 97 101 107 107 101 97 96 95 94 89 79 63 50 44 42 41 41 40 36 30 23 26 54 104 101 45 12 1 -1 -1 0 3 7 13 23 39 60 82 97 107 105 88 63 40 23 13 7 3 0 -1 -2 -2 -2 -3 -3 -3 -3 -3 -3 -3 -3 -3 -3 -3 -3 -2 0 9 41 95 
95 41 9 0 -2 -3 -3 -3 -2 -2 -2 -2 -2 -2 -2 -2 -1 -1 0 0 0 0 0 0 1 3 6 8 9 9 10 11 14 20 30 36 40 41 41 42 44 50 63 79 89 94 95 96 97 101 107 107 101 97 96 95 95 94 89 80 66 62 82 122 113 56 19 5 2 4 10 20 32 47 66 89 105 107 97 82 60 39 22 11 4 1 0 -1 -2 -2 -3 -3 -3 -3 -3 -3 -3 -3 -3 -3 -3 -3 -3 -3 -3 -2 0 9 41 95 
95 41 9 0 -2 -3 -3 -3 -3 -3 -3 -3 -3 -3 -3 -3 -2 -2 -2 -2 -2 -2 -2 -2 -2 -1 -1 0 0 0 0 0 1 3 6 8 9 9 9 10 11 14 20 30 36 40 41 42 44 50 63 79 89 94 95 95 96 97 101 107 108 108 121 143 133 82 39 20 17 24 40 60 82 97 107 105 89 66 47 32 20 10 4 0 -1 -2 -2 -2 -3 -3 -3 -3 -3 -3 -3 -3 -3 -3 -3 -3 -3 -3 -3 -3 -3 -2 0 9 41 95 
95 41 9 0 -2 -3 -3 -3 -3 -3 -3 -3 -3 -3 -3 -3 -3 -3 -3 -3 -3 -3 -3 -3 -3 -2 -2 -2 -2 -2 -2 -2 -2 -1 -1 0 0 0 0 0 0 1 3 6 8 9 9 10 11 14 20 30 36 40 41 41 42 44 50 64 80 91 102 116 127 114 82 59 56 68 89 105 107 97 82 60 39 23 13 7 3 0 -1 -2 -2 -3 -3 -3 -3 -3 -3 -3 -3 -3 -3 -3 -3 -3 -3 -3 -3 -3 -3 -3 -3 -2 0 9 41 95 
95 41 9 0 -2 -3 -3 -3 -3 -3 -3 -3 -3 -3 -3 -3 -3 -3 -3 -3 -3 -3 -3 -3 -3 -3 -3 -3 -3 -3 -3 -3 -3 -2 -2 -2 -2 -2 -2 -2 -2 -2 -1 -1 0 0 0 0 0 1 3 6 8 9 9 9 10 11 14 20 30 37 44 56 81 114 128 119 111 110 105 89 66 47 32 20 10 4 1 0 -1 -2 -2 -3 -3 -3 -3 -3 -3 -3 -3 -3 -3 -3 -3 -3 -3 -3 -3 -3 -3 -3 -3 -3 -3 -2 0 9 41 95 
95 41 9 0 -2 -3 -3 -3 -3 -3 -3 -3 -3 -3 -3 -3 -3 -3 -3 -3 -3 -3 -3 -3 -3 -3 -3 -3 -3 -3 -3 -3 -3 -3 -3 -3 -3 -3 -3 -3 -3 -2 -2 -2 -2 -2 -2 -2 -2 -2 -1 -1 0 0 0 0 0 0 1 3 6 8 11 18 39 82 133 142 114 87 61 40 23 13 7 3 0 -1 -2 -2 -2 -3 -3 -3 -3 -3 -3 -3 -3 -3 -3 -3 -3 -3 -3 -3 -3 -3 -3 -3 -3 -3 -3 -3 -3 -2 0 9 41 95 
96 42 10 0 -2 -2 -2 -2 -2 -2 -2 -2 -2 -2 -2 -2 -2 -2 -2 -2 -2 -2 -2 -2 -2 -2 -2 -2 -2 -2 -2 -2 -2 -2 -2 -2 -2 -2 -2 -2 -2 -2 -2 -2 -2 -2 -2 -2 -2 -2 -2 -2 -2 -2 -2 -2 -2 -2 -1 -1 0 0 1 5 19 56 113 121 75 41 22 11 4 1 0 -1 -1 -2 -2 -2 -2 -2 -2 -2 -2 -2 -2 -2 -2 -2 -2 -2 -2 -2 -2 -2 -2 -2 -2 -2 -2 -2 -2 -2 -2 -2 0 10 42 96 
97 44 12 2 0 0 0 0 0 0 0 0 0 0 0 0 0 0 0 0 0 0 0 0 0 0 0 0 0 0 0 0 0 0 0 0 0 0 0 0 0 0 0 0 0 0 0 0 0 0 0 0 0 0 0 0 0 0 0 0 0 0 0 3 15 48 103 105 54 21 8 3 1 0 0 0 0 0 0 0 0 0 0 0 0 0 0 0 0 0 0 0 0 0 0 0 0 0 0 0 0 0 0 0 0 0 2 12 44 97 
104 53 22 12 10 9 9 9 9 9 9 9 9 9 9 9 9 9 9 9 9 9 9 9 9 9 9 9 9 9 9 9 9 9 9 9 9 9 9 9 9 9 9 9 9 9 9 9 9 9 9 9 9 9 9 9 9 9 9 9 9 10 10 12 23 54 105 106 55 24 14 11 10 10 9 9 9 9 9 9 9 9 9 9 9 9 9 9 9 9 9 9 9 9 9 9 9 9 9 9 9 9 9 9 9 10 12 22 53 104 
123 79 53 44 42 41 41 41 41 41 41 41 41 41 41 41 41 41 41 41 41 41 41 41 41 41 41 41 41 41 41 41 41 40 41 41 41 41 41 41 41 41 41 41 41 41 41 41 41 41 41 41 41 41 41 41 41 41 41 41 41 41 42 44 53 79 123 123 80 53 44 42 41 41 41 41 41 41 41 41 41 41 41 41 41 41 41 41 41 41 41 41 40 41 41 41 41 41 41 41 41 41 41 41 41 41 43 52 79 123 
154 123 104 97 96 95 95 95 95 95 95 95 95 95 95 95 95 95 95 95 95 95 95 95 95 95 95 95 95 96 96 98 102 103 101 98 96 96 95 95 95 95 95 95 95 95 96 97 99 103 103 99 97 96 95 95 95 95 95 95 95 95 96 97 102 118 141 141 118 102 97 96 95 95 95 95 95 95 95 95 95 95 95 95 95 95 95 95 96 96 98 101 104 101 98 96 96 95 95 95 95 96 98 101 104 102 100 105 124 154 
