P2
110 110
255
55 26 25 25 25 25 25 25 25 25 25 25 25 25 25 25 25 25 25 25 25 25 25 25 25 25 25 25 25 25 25 25 29 80 53 26 25 25 25 25 25 25 25 25 25 25 25 25 26 55 55 26 25 25 25 25 25 25 25 25 25 25 25 25 25 25 25 25 25 25 25 25 25 25 25 25 25 25 25 25 25 25 25 25 25 25 25 25 25 25 25 28 80 53 26 25 25 25 25 25 25 25 25 28 80 53 26 25 26 55 
26 -7 -8 -8 -8 -8 -8 -8 -8 -8 -8 -8 -8 -8 -8 -8 -8 -8 -8 -8 -8 -8 -8 -8 -8 -8 -8 -8 -8 -8 -8 -5 50 50 -5 -8 -8 -8 -8 -8 -8 -8 -8 -8 -8 -8 -8 -8 -7 26 26 -7 -8 -8 -8 -8 -8 -8 -8 -8 -8 -8 -8 -8 -8 -8 -8 -8 -8 -8 -8 -8 -8 -8 -8 -8 -8 -8 -8 -8 -8 -8 -8 -8 -8 -8 -8 -8 -8 -8 -7 25 51 -5 -8 -8 -8 -8 -8 -8 -8 -8 -7 24 51 -5 -8 -8 -7 26 
25 -8 -9 -9 -9 -9 -9 -9 -9 -9 -9 -9 -9 -9 -9 -9 -9 -9 -9 -9 -9 -9 -9 -9 -9 -9 -9 -9 -9 -9 -8 24 51 -5 -9 -9 -9 -9 -9 -9 -9 -9 -9 -9 -9 -9 -9 -9 -8 26 25 -8 -9 -9 -9 -9 -9 -9 -9 -9 -9 -9 -9 -9 -9 -9 -9 -9 -9 -9 -9 -9 -9 -9 -9 -9 -9 -9 -9 -9 -9 -9 -9 -9 -9 -9 -9 -9 -9 -9 -6 51 24 -8 -9 -9 -9 -9 -9 -9 -9 -9 -8 25 26 -8 -9 -9 -8 25 
25 -8 -9 -9 -9 -9 -9 -9 -9 -9 -9 -9 -9 -9 -9 -9 -9 -9 -9 -9 -9 -9 -9 -9 -9 -9 -9 -9 -9 -9 -5 51 24 -8 -9 -9 -9 -9 -9 -9 -9 -9 -9 -9 -9 -9 -9 -9 -6 53 25 -8 -9 -9 -9 -9 -9 -9 -9 -9 -9 -9 -9 -9 -9 -9 -9 -9 -9 -9 -9 -9 -9 -9 -9 -9 -9 -9 -9 -9 -9 -9 -9 -9 -9 -9 -9 -9 -9 -8 23 51 -6 -9 -9 -9 -9 -9 -9 -9 -9 -9 -8 26 25 -8 -9 -9 -8 25 
25 -8 -9 -9 -9 -9 -9 -9 -9 -9 -9 -9 -9 -9 -9 -9 -9 -9 -9 -9 -9 -9 -9 -9 -9 -9 -9 -9 -9 -6 49 49 -6 -9 -9 -9 -9 -9 -9 -9 -9 -9 -9 -9 -9 -9 -9 -8 24 81 25 -8 -9 -9 -9 -9 -9 -9 -9 -9 -9 -9 -9 -9 -9 -9 -9 -9 -9 -9 -9 -9 -9 -9 -9 -9 -9 -9 -9 -9 -9 -9 -9 -9 -9 -9 -9 -9 -9 -8 25 25 -8 -9 -9 -9 -9 -9 -9 -9 -9 -9 -6 51 23 -8 -9 -9 -8 25 
25 -8 -9 -9 -9 -9 -9 -9 -9 -9 -9 -9 -9 -9 -9 -9 -9 -9 -9 -9 -9 -9 -9 -9 -9 -9 -9 -9 -8 24 51 -5 -9 -9 -9 -9 -9 -9 -9 -9 -9 -9 -9 -9 -9 -9 -9 -6 51 56 25 -8 -9 -9 -9 -9 -9 -9 -9 -9 -9 -9 -9 -9 -9 -9 -9 -9 -9 -9 -9 -9 -9 -9 -9 -9 -9 -9 -9 -9 -9 -9 -9 -9 -9 -9 -9 -9 -9 -6 51 23 -8 -9 -9 -9 -9 -9 -9 -9 -9 -8 23 51 -6 -9 -9 -9 -8 25 
25 -8 -9 -9 -9 -9 -9 -9 -9 -9 -9 -9 -9 -9 -9 -9 -9 -9 -9 -9 -9 -9 -9 -9 -9 -9 -9 -9 -5 51 24 -8 -9 -9 -9 -9 -9 -9 -9 -9 -9 -9 -9 -9 -9 -9 -8 24 52 28 25 -8 -9 -9 -9 -9 -9 -9 -9 -9 -9 -9 -9 -9 -9 -9 -9 -9 -9 -9 -9 -9 -9 -9 -9 -9 -9 -9 -9 -9 -9 -9 -9 -9 -9 -9 -9 -9 -8 24 51 -6 -9 -9 -9 -9 -9 -9 -9 -9 -9 -8 25 26 -8 -9 -9 -9 -8 25 
25 -8 -9 -9 -9 -9 -9 -9 -9 -9 -9 -9 -9 -9 -9 -9 -9 -9 -9 -9 -9 -9 -9 -9 -9 -9 -9 -6 49 49 -6 -9 -9 -9 -9 -9 -9 -9 -9 -9 -9 -9 -9 -9 -9 -9 -6 51 25 26 26 -8 -9 -9 -9 -9 -9 -9 -9 -9 -9 -9 -9 -9 -9 -9 -9 -9 -9 -9 -9 -9 -9 -9 -9 -9 -9 -9 -9 -9 -9 -9 -9 -9 -9 -9 -9 -9 -6 51 24 -8 -9 -9 -9 -9 -9 -9 -9 -9 -9 -8 26 25 -8 -9 -9 -9 -8 25 
25 -8 -9 -9 -9 -9 -9 -9 -9 -9 -9 -9 -9 -9 -9 -9 -9 -9 -9 -9 -9 -9 -9 -9 -9 -9 -8 24 51 -5 -9 -9 -9 -9 -9 -9 -9 -9 -9 -9 -9 -9 -9 -9 -9 -8 24 51 -5 23 51 -6 -9 -9 -9 -9 -9 -9 -9 -9 -9 -9 -9 -9 -9 -9 -9 -9 -9 -9 -9 -9 -9 -9 -9 -9 -9 -9 -9 -9 -9 -9 -9 -9 -9 -9 -9 -8 23 51 -6 -9 -9 -9 -9 -9 -9 -9 -9 -9 -9 -6 51 23 -8 -9 -9 -9 -8 25 
25 -8 -9 -9 -9 -9 -9 -9 -9 -9 -9 -9 -9 -9 -9 -9 -9 -9 -9 -9 -9 -9 -9 -9 -9 -9 -5 51 24 -8 -9 -9 -9 -9 -9 -9 -9 -9 -9 -9 -9 -9 -9 -9 -9 -5 51 24 -8 -6 51 23 -8 -9 -9 -9 -9 -9 -9 -9 -9 -9 -9 -9 -9 -9 -9 -9 -9 -9 -9 -9 -9 -9 -9 -9 -9 -9 -9 -9 -9 -9 -9 -9 -9 -9 -9 -8 25 25 -8 -9 -9 -9 -9 -9 -9 -9 -9 -9 -8 23 51 -6 -9 -9 -9 -9 -8 25 
25 -8 -9 -9 -9 -9 -9 -9 -9 -9 -9 -9 -9 -9 -9 -9 -9 -9 -9 -9 -9 -9 -9 -9 -9 -6 49 49 -6 -9 -9 -9 -9 -9 -9 -9 -9 -9 -9 -9 -9 -9 -9 -9 -6 49 49 -6 -9 -8 26 25 -8 -9 -9 -9 -9 -9 -9 -9 -9 -9 -9 -9 -9 -9 -9 -9 -9 -9 -9 -9 -9 -9 -9 -9 -9 -9 -9 -9 -9 -9 -9 -9 -9 -9 -9 -6 51 23 -8 -9 -9 -9 -9 -9 -9 -9 -9 -9 -8 25 26 -8 -9 -9 -9 -9 -8 25 
25 -8 -9 -9 -9 -9 -9 -9 -9 -9 -9 -9 -9 -9 -9 -9 -9 -9 -9 -9 -9 -9 -9 -9 -8 24 51 -5 -9 -9 -9 -9 -9 -9 -9 -9 -9 -9 -9 -9 -9 -9 -9 -8 24 51 -5 -9 -9 -8 25 25 -8 -9 -9 -9 -9 -9 -9 -9 -9 -9 -9 -9 -9 -9 -9 -9 -9 -9 -9 -9 -9 -9 -9 -9 -9 -9 -9 -9 -9 -9 -9 -9 -9 -9 -8 24 51 -6 -9 -9 -9 -9 -9 -9 -9 -9 -9 -9 -8 26 25 -8 -9 -9 -9 -9 -8 25 
25 -8 -9 -9 -9 -9 -9 -9 -9 -9 -9 -9 -9 -9 -9 -9 -9 -9 -9 -9 -9 -9 -9 -9 -5 51 24 -8 -9 -9 -9 -9 -9 -9 -9 -9 -9 -9 -9 -9 -9 -9 -9 -6 51 24 -8 -9 -9 -8 25 25 -8 -9 -9 -9 -9 -9 -9 -9 -9 -9 -9 -9 -9 -9 -9 -9 -9 -9 -9 -9 -9 -9 -9 -9 -9 -9 -9 -9 -9 -9 -9 -9 -9 -9 -6 51 24 -8 -9 -9 -9 -9 -9 -9 -9 -9 -9 -9 -6 51 23 -8 -9 -9 -9 -9 -8 25 
26 -8 -9 -9 -9 -9 -9 -9 -9 -9 -9 -9 -9 -9 -9 -9 -9 -9 -9 -9 -9 -9 -9 -6 49 49 -6 -9 -9 -9 -9 -9 -9 -9 -9 -9 -9 -9 -9 -9 -9 -9 -8 24 51 -6 -9 -9 -9 -8 25 25 -8 -9 -9 -9 -9 -9 -9 -9 -9 -9 -9 -9 -9 -9 -9 -9 -9 -9 -9 -9 -9 -9 -9 -9 -9 -9 -9 -9 -9 -9 -9 -9 -9 -8 23 51 -6 -9 -9 -9 -9 -9 -9 -9 -9 -9 -9 -8 23 51 -6 -9 -9 -9 -9 -9 -8 25 
53 -5 -9 -9 -9 -9 -9 -9 -9 -9 -9 -9 -9 -9 -9 -9 -9 -9 -9 -9 -9 -9 -8 24 51 -5 -9 -9 -9 -9 -9 -9 -9 -9 -9 -9 -9 -9 -9 -9 -9 -9 -6 51 24 -8 -9 -9 -9 -8 25 26 -8 -9 -9 -9 -9 -9 -9 -9 -9 -9 -9 -9 -9 -9 -9 -9 -9 -9 -9 -9 -9 -9 -9 -9 -9 -9 -9 -9 -9 -9 -9 -9 -9 -8 25 25 -8 -9 -9 -9 -9 -9 -9 -9 -9 -9 -9 -8 25 26 -8 -9 -9 -9 -9 -9 -8 25 
80 50 -5 -9 -9 -9 -9 -9 -9 -9 -9 -9 -9 -9 -9 -9 -9 -9 -9 -9 -9 -9 -5 51 24 -8 -9 -9 -9 -9 -9 -9 -9 -9 -9 -9 -9 -9 -9 -9 -9 -8 24 51 -6 -9 -9 -9 -9 -8 23 51 -6 -9 -9 -9 -9 -9 -9 -9 -9 -9 -9 -9 -9 -9 -9 -9 -9 -9 -9 -9 -9 -9 -9 -9 -9 -9 -9 -9 -9 -9 -9 -9 -9 -6 51 23 -8 -9 -9 -9 -9 -9 -9 -9 -9 -9 -9 -8 26 25 -8 -9 -9 -9 -9 -9 -8 25 
29 50 49 -5 -9 -9 -9 -9 -9 -9 -9 -9 -9 -9 -9 -9 -9 -9 -9 -9 -9 -6 49 49 -6 -9 -9 -9 -9 -9 -9 -9 -9 -9 -9 -9 -9 -9 -9 -9 -9 -5 51 24 -8 -9 -9 -9 -9 -9 -6 51 23 -8 -9 -9 -9 -9 -9 -9 -9 -9 -9 -9 -9 -9 -9 -9 -9 -9 -9 -9 -9 -9 -9 -9 -9 -9 -9 -9 -9 -9 -9 -9 -8 24 51 -6 -9 -9 -9 -9 -9 -9 -9 -9 -9 -9 -9 -6 51 23 -8 -9 -9 -9 -9 -9 -8 25 
25 -4 49 49 -6 -9 -9 -9 -9 -9 -9 -9 -9 -9 -9 -9 -9 -9 -9 -9 -8 24 51 -5 -9 -9 -9 -9 -9 -9 -9 -9 -9 -9 -9 -9 -9 -9 -9 -9 -6 49 49 -6 -9 -9 -9 -9 -9 -9 -8 26 25 -8 -9 -9 -9 -9 -9 -9 -9 -9 -9 -9 -9 -9 -9 -9 -9 -9 -9 -9 -9 -9 -9 -9 -9 -9 -9 -9 -9 -9 -9 -9 -6 51 24 -8 -9 -9 -9 -9 -9 -9 -9 -9 -9 -9 -8 23 51 -6 -9 -9 -9 -9 -9 -9 -8 25 
25 -8 -5 51 24 -8 -9 -9 -9 -9 -9 -9 -9 -9 -9 -9 -9 -9 -9 -9 -5 51 24 -8 -9 -9 -9 -9 -9 -9 -9 -9 -9 -9 -9 -9 -9 -9 -9 -8 24 51 -5 -9 -9 -9 -9 -9 -9 -9 -8 25 25 -8 -9 -9 -9 -9 -9 -9 -9 -9 -9 -9 -9 -9 -9 -9 -9 -9 -9 -9 -9 -9 -9 -9 -9 -9 -9 -9 -9 -9 -9 -8 23 51 -6 -9 -9 -9 -9 -9 -9 -9 -9 -9 -9 -9 -8 25 26 -8 -9 -9 -9 -9 -9 -9 -8 25 
25 -8 -8 24 51 -5 -9 -9 -9 -9 -9 -9 -9 -9 -9 -9 -9 -9 -9 -6 49 49 -6 -9 -9 -9 -9 -9 -9 -9 -9 -9 -9 -9 -9 -9 -9 -9 -9 -6 51 24 -8 -9 -9 -9 -9 -9 -9 -9 -8 25 25 -8 -9 -9 -9 -9 -9 -9 -9 -9 -9 -9 -9 -9 -9 -9 -9 -9 -9 -9 -9 -9 -9 -9 -9 -9 -9 -9 -9 -9 -9 -8 25 25 -8 -9 -9 -9 -9 -9 -9 -9 -9 -9 -9 -9 -8 26 25 -8 -9 -9 -9 -9 -9 -9 -8 25 
25 -8 -9 -6 49 49 -5 -9 -9 -9 -9 -9 -9 -9 -9 -9 -9 -9 -8 24 51 -5 -9 -9 -9 -9 -9 -9 -9 -9 -9 -9 -9 -9 -9 -9 -9 -9 -8 24 51 -6 -9 -9 -9 -9 -9 -9 -9 -9 -8 25 25 -8 -9 -9 -9 -9 -9 -9 -9 -9 -9 -9 -9 -9 -9 -9 -9 -9 -9 -9 -9 -9 -9 -9 -9 -9 -9 -9 -9 -9 -9 -6 51 23 -8 -9 -9 -9 -9 -9 -9 -9 -9 -9 -9 -9 -6 51 23 -8 -9 -9 -9 -9 -9 -9 -8 25 
25 -8 -9 -9 -5 49 49 -5 -9 -9 -9 -9 -9 -9 -9 -9 -9 -9 -5 51 24 -8 -9 -9 -9 -9 -9 -9 -9 -9 -9 -9 -9 -9 -9 -9 -9 -9 -6 51 24 -8 -9 -9 -9 -9 -9 -9 -9 -9 -8 25 26 -8 -9 -9 -9 -9 -9 -9 -9 -9 -9 -9 -9 -9 -9 -9 -9 -9 -9 -9 -9 -9 -9 -9 -9 -9 -9 -9 -9 -9 -8 24 51 -6 -9 -9 -9 -9 -9 -9 -9 -9 -9 -9 -9 -8 23 51 -6 -9 -9 -9 -9 -9 -9 -9 -8 25 
25 -8 -9 -9 -9 -5 49 49 -5 -9 -9 -9 -9 -9 -9 -9 -9 -6 49 49 -6 -9 -9 -9 -9 -9 -9 -9 -9 -9 -9 -9 -9 -9 -9 -9 -9 -8 24 51 -6 -9 -9 -9 -9 -9 -9 -9 -9 -9 -8 23 51 -6 -9 -9 -9 -9 -9 -9 -9 -9 -9 -9 -9 -9 -9 -9 -9 -9 -9 -9 -9 -9 -9 -9 -9 -9 -9 -9 -9 -9 -6 51 24 -8 -9 -9 -9 -9 -9 -9 -9 -9 -9 -9 -9 -8 25 26 -8 -9 -9 -9 -9 -9 -9 -9 -8 25 
25 -8 -9 -9 -9 -9 -5 49 49 -5 -9 -9 -9 -9 -9 -9 -8 24 51 -5 -9 -9 -9 -9 -9 -9 -9 -9 -9 -9 -9 -9 -9 -9 -9 -9 -9 -5 51 24 -8 -9 -9 -9 -9 -9 -9 -9 -9 -9 -9 -6 51 23 -8 -9 -9 -9 -9 -9 -9 -9 -9 -9 -9 -9 -9 -9 -9 -9 -9 -9 -9 -9 -9 -9 -9 -9 -9 -9 -9 -8 23 51 -6 -9 -9 -9 -9 -9 -9 -9 -9 -9 -9 -9 -9 -8 26 25 -8 -9 -9 -9 -9 -9 -9 -9 -8 25 
25 -8 -9 -9 -9 -9 -9 -5 49 49 -5 -9 -9 -9 -9 -9 -5 51 24 -8 -9 -9 -9 -9 -9 -9 -9 -9 -9 -9 -9 -9 -9 -9 -9 -9 -6 49 49 -6 -9 -9 -9 -9 -9 -9 -9 -9 -9 -9 -9 -8 26 25 -8 -9 -9 -9 -9 -9 -9 -9 -9 -9 -9 -9 -9 -9 -9 -9 -9 -9 -9 -9 -9 -9 -9 -9 -9 -9 -9 -8 25 25 -8 -9 -9 -9 -9 -9 -9 -9 -9 -9 -9 -9 -9 -6 51 23 -8 -9 -9 -9 -9 -9 -9 -9 -8 25 
25 -8 -9 -9 -9 -9 -9 -9 -5 49 49 -5 -9 -9 -9 -6 49 49 -6 -9 -9 -9 -9 -9 -9 -9 -9 -9 -9 -9 -9 -9 -9 -9 -9 -8 24 51 -5 -9 -9 -9 -9 -9 -9 -9 -9 -9 -9 -9 -9 -8 25 25 -8 -9 -9 -9 -9 -9 -9 -9 -9 -9 -9 -9 -9 -9 -9 -9 -9 -9 -9 -9 -9 -9 -9 -9 -9 -9 -9 -6 51 23 -8 -9 -9 -9 -9 -9 -9 -9 -9 -9 -9 -9 -8 23 51 -6 -9 -9 -9 -9 -9 -9 -9 -9 -8 25 
25 -8 -9 -9 -9 -9 -9 -9 -9 -5 49 49 -5 -9 -8 24 51 -5 -9 -9 -9 -9 -9 -9 -9 -9 -9 -9 -9 -9 -9 -9 -9 -9 -9 -6 51 24 -8 -9 -9 -9 -9 -9 -9 -9 -9 -9 -9 -9 -9 -8 25 25 -8 -9 -9 -9 -9 -9 -9 -9 -9 -9 -9 -9 -9 -9 -9 -9 -9 -9 -9 -9 -9 -9 -9 -9 -9 -9 -8 24 51 -6 -9 -9 -9 -9 -9 -9 -9 -9 -9 -9 -9 -9 -8 25 26 -8 -9 -9 -9 -9 -9 -9 -9 -9 -8 25 
25 -8 -9 -9 -9 -9 -9 -9 -9 -9 -5 49 49 -5 -5 51 24 -8 -9 -9 -9 -9 -9 -9 -9 -9 -9 -9 -9 -9 -9 -9 -9 -9 -8 24 51 -6 -9 -9 -9 -9 -9 -9 -9 -9 -9 -9 -9 -9 -9 -8 25 26 -8 -9 -9 -9 -9 -9 -9 -9 -9 -9 -9 -9 -9 -9 -9 -9 -9 -9 -9 -9 -9 -9 -9 -9 -9 -9 -6 51 24 -8 -9 -9 -9 -9 -9 -9 -9 -9 -9 -9 -9 -9 -8 26 25 -8 -9 -9 -9 -9 -9 -9 -9 -9 -8 25 
25 -8 -9 -9 -9 -9 -9 -9 -9 -9 -9 -5 49 52 52 49 -6 -9 -9 -9 -9 -9 -9 -9 -9 -9 -9 -9 -9 -9 -9 -9 -9 -9 -6 51 24 -8 -9 -9 -9 -9 -9 -9 -9 -9 -9 -9 -9 -9 -9 -8 23 51 -6 -9 -9 -9 -9 -9 -9 -9 -9 -9 -9 -9 -9 -9 -9 -9 -9 -9 -9 -9 -9 -9 -9 -9 -9 -8 23 51 -6 -9 -9 -9 -9 -9 -9 -9 -9 -9 -9 -9 -9 -9 -6 51 23 -8 -9 -9 -9 -9 -9 -9 -9 -9 -8 25 
25 -8 -9 -9 -9 -9 -9 -9 -9 -9 -9 -9 -5 53 53 -5 -9 -9 -9 -9 -9 -9 -9 -9 -9 -9 -9 -9 -9 -9 -9 -9 -9 -8 24 51 -6 -9 -9 -9 -9 -9 -9 -9 -9 -9 -9 -9 -9 -9 -9 -9 -6 51 23 -8 -9 -9 -9 -9 -9 -9 -9 -9 -9 -9 -9 -9 -9 -9 -9 -9 -9 -9 -9 -9 -9 -9 -9 -8 25 25 -8 -9 -9 -9 -9 -9 -9 -9 -9 -9 -9 -9 -9 -8 23 51 -6 -9 -9 -9 -9 -9 -9 -9 -9 -9 -8 25 
25 -8 -9 -9 -9 -9 -9 -9 -9 -9 -9 -9 -8 26 26 -8 -9 -9 -9 -9 -9 -9 -9 -9 -9 -9 -9 -9 -9 -9 -9 -9 -9 -5 51 24 -8 -9 -9 -9 -9 -9 -9 -9 -9 -9 -9 -9 -9 -9 -9 -9 -8 26 25 -8 -9 -9 -9 -9 -9 -9 -9 -9 -9 -9 -9 -9 -9 -9 -9 -9 -9 -9 -9 -9 -9 -9 -9 -6 51 23 -8 -9 -9 -9 -9 -9 -9 -9 -9 -9 -9 -9 -9 -8 25 26 -8 -9 -9 -9 -9 -9 -9 -9 -9 -9 -8 25 
25 -8 -9 -9 -9 -9 -9 -9 -9 -9 -9 -9 -8 25 26 -8 -9 -9 -9 -9 -9 -9 -9 -9 -9 -9 -9 -9 -9 -9 -9 -9 -6 49 49 -6 -9 -9 -9 -9 -9 -9 -9 -9 -9 -9 -9 -9 -9 -9 -9 -9 -8 25 25 -8 -9 -9 -9 -9 -9 -9 -9 -9 -9 -9 -9 -9 -9 -9 -9 -9 -9 -9 -9 -9 -9 -9 -8 24 51 -6 -9 -9 -9 -9 -9 -9 -9 -9 -9 -9 -9 -9 -9 -8 26 25 -8 -9 -9 -9 -9 -9 -9 -9 -9 -9 -8 25 
25 -8 -9 -9 -9 -9 -9 -9 -9 -9 -9 -9 -8 23 51 -6 -9 -9 -9 -9 -9 -9 -9 -9 -9 -9 -9 -9 -9 -9 -9 -8 24 51 -5 -9 -9 -9 -9 -9 -9 -9 -9 -9 -9 -9 -9 -9 -9 -9 -9 -9 -8 25 25 -8 -9 -9 -9 -9 -9 -9 -9 -9 -9 -9 -9 -9 -9 -9 -9 -9 -9 -9 -9 -9 -9 -9 -6 51 24 -8 -9 -9 -9 -9 -9 -9 -9 -9 -9 -9 -9 -9 -9 -6 51 23 -8 -9 -9 -9 -9 -9 -9 -9 -9 -9 -8 25 
25 -8 -9 -9 -9 -9 -9 -9 -9 -9 -9 -9 -9 -6 51 23 -8 -9 -9 -9 -9 -9 -9 -9 -9 -9 -9 -9 -9 -9 -9 -6 51 24 -8 -9 -9 -9 -9 -9 -9 -9 -9 -9 -9 -9 -9 -9 -9 -9 -9 -9 -8 25 25 -8 -9 -9 -9 -9 -9 -9 -9 -9 -9 -9 -9 -9 -9 -9 -9 -9 -9 -9 -9 -9 -9 -8 23 51 -6 -9 -9 -9 -9 -9 -9 -9 -9 -9 -9 -9 -9 -9 -8 23 51 -6 -9 -9 -9 -9 -9 -9 -9 -9 -9 -9 -8 25 
25 -8 -9 -9 -9 -9 -9 -9 -9 -9 -9 -9 -9 -8 26 25 -8 -9 -9 -9 -9 -9 -9 -9 -9 -9 -9 -9 -9 -9 -8 24 51 -6 -9 -9 -9 -9 -9 -9 -9 -9 -9 -9 -9 -9 -9 -9 -9 -9 -9 -9 -8 25 26 -8 -9 -9 -9 -9 -9 -9 -9 -9 -9 -9 -9 -9 -9 -9 -9 -9 -9 -9 -9 -9 -9 -8 25 25 -8 -9 -9 -9 -9 -9 -9 -9 -9 -9 -9 -9 -9 -9 -8 25 26 -8 -9 -9 -9 -9 -9 -9 -9 -9 -9 -9 -8 25 
25 -8 -9 -9 -9 -9 -9 -9 -9 -9 -9 -9 -9 -8 25 25 -8 -9 -9 -9 -9 -9 -9 -9 -9 -9 -9 -9 -9 -9 -6 51 24 -8 -9 -9 -9 -9 -9 -9 -9 -9 -9 -9 -9 -9 -9 -9 -9 -9 -9 -9 -8 23 51 -6 -9 -9 -9 -9 -9 -9 -9 -9 -9 -9 -9 -9 -9 -9 -9 -9 -9 -9 -9 -9 -9 -6 51 23 -8 -9 -9 -9 -9 -9 -9 -9 -9 -9 -9 -9 -9 -9 -8 26 25 -8 -9 -9 -9 -9 -9 -9 -9 -9 -9 -9 -8 25 
25 -8 -9 -9 -9 -9 -9 -9 -9 -9 -9 -9 -9 -8 25 26 -8 -9 -9 -9 -9 -9 -9 -9 -9 -9 -9 -9 -9 -8 24 51 -6 -9 -9 -9 -9 -9 -9 -9 -9 -9 -9 -9 -9 -9 -9 -9 -9 -9 -9 -9 -9 -6 51 23 -8 -9 -9 -9 -9 -9 -9 -9 -9 -9 -9 -9 -9 -9 -9 -9 -9 -9 -9 -9 -8 24 51 -6 -9 -9 -9 -9 -9 -9 -9 -9 -9 -9 -9 -9 -9 -9 -6 51 23 -8 -9 -9 -9 -9 -9 -9 -9 -9 -9 -9 -8 26 
25 -8 -9 -9 -9 -9 -9 -9 -9 -9 -9 -9 -9 -8 23 51 -6 -9 -9 -9 -9 -9 -9 -9 -9 -9 -9 -9 -9 -5 51 24 -8 -9 -9 -9 -9 -9 -9 -9 -9 -9 -9 -9 -9 -9 -9 -9 -9 -9 -9 -9 -9 -8 26 25 -8 -9 -9 -9 -9 -9 -9 -9 -9 -9 -9 -9 -9 -9 -9 -9 -9 -9 -9 -9 -6 51 24 -8 -9 -9 -9 -9 -9 -9 -9 -9 -9 -9 -9 -9 -9 -8 23 51 -6 -9 -9 -9 -9 -9 -9 -9 -9 -9 -9 -9 -6 53 
25 -8 -9 -9 -9 -9 -9 -9 -9 -9 -9 -9 -9 -9 -6 51 23 -8 -9 -9 -9 -9 -9 -9 -9 -9 -9 -9 -6 49 49 -6 -9 -9 -9 -9 -9 -9 -9 -9 -9 -9 -9 -9 -9 -9 -9 -9 -9 -9 -9 -9 -9 -8 25 25 -8 -9 -9 -9 -9 -9 -9 -9 -9 -9 -9 -9 -9 -9 -9 -9 -9 -9 -9 -8 23 51 -6 -9 -9 -9 -9 -9 -9 -9 -9 -9 -9 -9 -9 -9 -9 -8 25 26 -8 -9 -9 -9 -9 -9 -9 -9 -9 -9 -9 -8 24 81 
25 -8 -9 -9 -9 -9 -9 -9 -9 -9 -9 -9 -9 -9 -8 26 25 -8 -9 -9 -9 -9 -9 -9 -9 -9 -9 -8 24 51 -5 -9 -9 -9 -9 -9 -9 -9 -9 -9 -9 -9 -9 -9 -9 -9 -9 -9 -9 -9 -9 -9 -9 -8 25 25 -8 -9 -9 -9 -9 -9 -9 -9 -9 -9 -9 -9 -9 -9 -9 -9 -9 -9 -9 -8 25 25 -8 -9 -9 -9 -9 -9 -9 -9 -9 -9 -9 -9 -9 -9 -9 -8 26 25 -8 -9 -9 -9 -9 -9 -9 -9 -9 -9 -9 -5 51 56 
25 -8 -9 -9 -9 -9 -9 -9 -9 -9 -9 -9 -9 -9 -8 25 25 -8 -9 -9 -9 -9 -9 -9 -9 -9 -9 -6 51 24 -8 -9 -9 -9 -9 -9 -9 -9 -9 -9 -9 -9 -9 -9 -9 -9 -9 -9 -9 -9 -9 -9 -9 -8 25 25 -8 -9 -9 -9 -9 -9 -9 -9 -9 -9 -9 -9 -9 -9 -9 -9 -9 -9 -9 -6 51 23 -8 -9 -9 -9 -9 -9 -9 -9 -9 -9 -9 -9 -9 -9 -9 -6 51 23 -8 -9 -9 -9 -9 -9 -9 -9 -9 -9 -6 49 50 28 
25 -8 -9 -9 -9 -9 -9 -9 -9 -9 -9 -9 -9 -9 -8 25 26 -8 -9 -9 -9 -9 -9 -9 -9 -9 -8 24 51 -6 -9 -9 -9 -9 -9 -9 -9 -9 -9 -9 -9 -9 -9 -9 -9 -9 -9 -9 -9 -9 -9 -9 -9 -8 25 26 -8 -9 -9 -9 -9 -9 -9 -9 -9 -9 -9 -9 -9 -9 -9 -9 -9 -9 -8 24 51 -6 -9 -9 -9 -9 -9 -9 -9 -9 -9 -9 -9 -9 -9 -9 -8 23 51 -6 -9 -9 -9 -9 -9 -9 -9 -9 -9 -8 24 51 -4 25 
25 -8 -9 -9 -9 -9 -9 -9 -9 -9 -9 -9 -9 -9 -8 23 51 -6 -9 -9 -9 -9 -9 -9 -9 -9 -6 51 24 -8 -9 -9 -9 -9 -9 -9 -9 -9 -9 -9 -9 -9 -9 -9 -9 -9 -9 -9 -9 -9 -9 -9 -9 -8 23 51 -6 -9 -9 -9 -9 -9 -9 -9 -9 -9 -9 -9 -9 -9 -9 -9 -9 -9 -6 51 24 -8 -9 -9 -9 -9 -9 -9 -9 -9 -9 -9 -9 -9 -9 -9 -8 25 26 -8 -9 -9 -9 -9 -9 -9 -9 -9 -9 -5 51 24 -7 25 
25 -8 -9 -9 -9 -9 -9 -9 -9 -9 -9 -9 -9 -9 -9 -6 51 23 -8 -9 -9 -9 -9 -9 -9 -8 24 51 -6 -9 -9 -9 -9 -9 -9 -9 -9 -9 -9 -9 -9 -9 -9 -9 -9 -9 -9 -9 -9 -9 -9 -9 -9 -9 -6 51 23 -8 -9 -9 -9 -9 -9 -9 -9 -9 -9 -9 -9 -9 -9 -9 -9 -8 23 51 -6 -9 -9 -9 -9 -9 -9 -9 -9 -9 -9 -9 -9 -9 -9 -9 -8 26 25 -8 -9 -9 -9 -9 -9 -9 -9 -9 -6 49 49 -6 -8 25 
25 -8 -9 -9 -9 -9 -9 -9 -9 -9 -9 -9 -9 -9 -9 -8 26 25 -8 -9 -9 -9 -9 -9 -9 -5 51 24 -8 -9 -9 -9 -9 -9 -9 -9 -9 -9 -9 -9 -9 -9 -9 -9 -9 -9 -9 -9 -9 -9 -9 -9 -9 -9 -8 26 25 -8 -9 -9 -9 -9 -9 -9 -9 -9 -9 -9 -9 -9 -9 -9 -9 -8 25 25 -8 -9 -9 -9 -9 -9 -9 -9 -9 -9 -9 -9 -9 -9 -9 -9 -6 51 23 -8 -9 -9 -9 -9 -9 -9 -9 -8 24 51 -5 -9 -8 25 
25 -8 -9 -9 -9 -9 -9 -9 -9 -9 -9 -9 -9 -9 -9 -8 25 25 -8 -9 -9 -9 -9 -9 -6 49 49 -6 -9 -9 -9 -9 -9 -9 -9 -9 -9 -9 -9 -9 -9 -9 -9 -9 -9 -9 -9 -9 -9 -9 -9 -9 -9 -9 -8 26 26 -7 -8 -8 -8 -8 -9 -9 -9 -9 -9 -9 -9 -9 -9 -9 -9 -6 51 23 -8 -9 -9 -9 -9 -9 -9 -9 -9 -9 -9 -9 -9 -9 -9 -8 23 51 -6 -9 -9 -9 -9 -9 -9 -9 -9 -5 51 24 -8 -9 -8 25 
25 -8 -9 -9 -9 -9 -9 -9 -9 -9 -9 -9 -9 -9 -9 -8 25 26 -8 -9 -9 -9 -9 -8 24 51 -5 -9 -9 -9 -9 -9 -9 -9 -9 -9 -9 -9 -9 -9 -9 -9 -9 -9 -9 -9 -9 -9 -9 -9 -9 -9 -9 -8 -5 53 55 26 25 25 25 23 -6 -8 -8 -8 -8 -8 -8 -9 -9 -9 -8 24 51 -6 -9 -9 -9 -9 -9 -9 -9 -9 -9 -9 -9 -9 -9 -9 -9 -8 25 26 -8 -9 -9 -9 -9 -9 -9 -9 -6 49 49 -6 -9 -9 -8 25 
25 -8 -9 -9 -9 -9 -9 -9 -9 -9 -9 -9 -9 -9 -9 -8 23 51 -6 -9 -9 -9 -9 -6 51 24 -8 -9 -9 -9 -9 -9 -9 -9 -9 -9 -9 -9 -9 -9 -9 -9 -9 -9 -9 -9 -9 -9 -9 -9 -9 -9 -6 24 51 51 26 25 25 25 26 51 51 26 25 25 25 25 23 -6 -8 -8 -5 51 24 -8 -9 -9 -9 -9 -9 -9 -9 -9 -9 -9 -9 -9 -9 -9 -9 -8 26 25 -8 -9 -9 -9 -9 -9 -9 -8 24 51 -5 -9 -9 -9 -8 25 
25 -8 -9 -9 -9 -9 -9 -9 -9 -9 -9 -9 -9 -9 -9 -9 -6 51 23 -8 -9 -9 -8 24 51 -6 -9 -9 -9 -9 -9 -9 -9 -9 -9 -9 -9 -9 -9 -9 -9 -9 -9 -9 -9 -9 -9 -9 -9 -9 -8 -5 49 51 24 -6 -8 -8 -8 -8 -8 -6 23 25 25 25 25 26 51 51 26 26 53 52 -6 -9 -9 -9 -9 -9 -9 -9 -9 -9 -9 -9 -9 -9 -9 -9 -9 -6 51 23 -8 -9 -9 -9 -9 -9 -9 -5 51 24 -8 -9 -9 -9 -8 25 
25 -8 -9 -9 -9 -9 -9 -9 -9 -9 -9 -9 -9 -9 -9 -9 -8 26 25 -8 -9 -9 -6 51 24 -8 -9 -9 -9 -9 -9 -9 -9 -9 -9 -9 -9 -9 -9 -9 -9 -9 -9 -9 -9 -9 -9 -9 -9 -6 24 51 49 -5 -8 -9 -9 -9 -9 -9 -9 -9 -8 -8 -8 -8 -8 -8 -6 23 25 26 53 52 -6 -9 -9 -9 -9 -9 -9 -9 -9 -9 -9 -9 -9 -9 -9 -9 -8 23 51 -6 -9 -9 -9 -9 -9 -9 -6 49 49 -6 -9 -9 -9 -9 -8 25 
25 -8 -9 -9 -9 -9 -9 -9 -9 -9 -9 -9 -9 -9 -9 -9 -8 25 25 -8 -9 -8 24 51 -6 -9 -9 -9 -9 -9 -9 -9 -9 -9 -9 -9 -9 -9 -9 -9 -9 -9 -9 -9 -9 -9 -9 -8 -5 49 51 24 -6 -9 -9 -9 -9 -9 -9 -9 -9 -9 -9 -9 -9 -9 -9 -9 -9 -8 -8 -8 -5 51 24 -8 -9 -9 -9 -9 -9 -9 -9 -9 -9 -9 -9 -9 -9 -9 -8 25 26 -8 -9 -9 -9 -9 -9 -8 24 51 -5 -9 -9 -9 -9 -9 -8 25 
25 -8 -9 -9 -9 -9 -9 -9 -9 -9 -9 -9 -9 -9 -9 -9 -8 25 26 -8 -9 -5 51 24 -8 -9 -9 -9 -9 -9 -9 -9 -9 -9 -9 -9 -9 -9 -9 -9 -9 -9 -9 -9 -9 -9 -6 24 51 49 -5 -8 -9 -9 -9 -9 -9 -9 -9 -9 -9 -9 -9 -9 -9 -9 -9 -9 -9 -9 -9 -9 -8 24 51 -5 -9 -9 -9 -9 -9 -9 -9 -9 -9 -9 -9 -9 -9 -9 -8 26 25 -8 -9 -9 -9 -9 -9 -5 51 24 -8 -9 -9 -9 -9 -9 -8 25 
25 -8 -9 -9 -9 -9 -9 -9 -9 -9 -9 -9 -9 -9 -9 -9 -8 23 51 -6 -6 49 49 -6 -9 -9 -9 -9 -9 -9 -9 -9 -9 -9 -9 -9 -9 -9 -9 -9 -9 -9 -9 -9 -9 -5 49 51 24 -6 -9 -9 -9 -9 -9 -9 -9 -9 -9 -9 -9 -9 -9 -9 -9 -9 -9 -9 -9 -9 -9 -9 -9 -6 49 49 -5 -8 -9 -9 -9 -9 -9 -9 -9 -9 -9 -9 -9 -9 -6 51 23 -8 -9 -9 -9 -9 -6 49 49 -6 -9 -9 -9 -9 -9 -9 -8 25 
25 -8 -9 -9 -9 -9 -9 -9 -9 -9 -9 -9 -9 -9 -9 -9 -9 -6 51 24 25 51 -5 -9 -9 -9 -9 -9 -9 -9 -9 -9 -9 -9 -9 -9 -9 -9 -9 -9 -9 -9 -9 -8 -5 49 49 -5 -8 -9 -9 -9 -9 -9 -9 -9 -9 -9 -9 -9 -9 -9 -9 -9 -9 -9 -9 -9 -9 -9 -9 -9 -9 -9 -5 51 53 24 -6 -8 -8 -8 -8 -8 -8 -8 -8 -8 -8 -7 24 52 -6 -9 -9 -9 -9 -8 24 51 -5 -9 -9 -9 -9 -9 -9 -9 -8 25 
25 -8 -9 -9 -9 -9 -9 -9 -9 -9 -9 -9 -9 -9 -9 -9 -9 -8 26 28 52 24 -8 -9 -9 -9 -9 -9 -9 -9 -9 -9 -9 -9 -9 -9 -9 -9 -9 -9 -9 -9 -6 24 51 49 -5 -9 -9 -9 -9 -9 -9 -9 -9 -9 -9 -9 -9 -9 -9 -9 -9 -9 -9 -9 -9 -9 -9 -9 -9 -9 -9 -9 -8 26 56 52 51 26 25 25 25 25 25 25 25 25 25 26 55 54 -5 -8 -9 -9 -9 -5 51 24 -8 -9 -9 -9 -9 -9 -9 -9 -8 25 
25 -8 -9 -9 -9 -9 -9 -9 -9 -9 -9 -9 -9 -9 -9 -9 -9 -8 25 56 51 -6 -9 -9 -9 -9 -9 -9 -9 -9 -9 -9 -9 -9 -9 -9 -9 -9 -9 -9 -8 -5 49 51 24 -6 -9 -9 -9 -9 -9 -9 -9 -9 -9 -9 -9 -9 -9 -9 -9 -9 -9 -9 -9 -9 -9 -9 -9 -9 -9 -9 -9 -9 -8 26 26 -5 23 25 25 25 25 25 25 25 25 25 25 25 26 51 51 24 -6 -8 -6 49 49 -6 -9 -9 -9 -9 -9 -9 -9 -9 -8 25 
25 -8 -9 -9 -9 -9 -9 -9 -9 -9 -9 -9 -9 -9 -9 -9 -9 -8 25 81 24 -8 -9 -9 -9 -9 -9 -9 -9 -9 -9 -9 -9 -9 -9 -9 -9 -9 -9 -6 24 51 49 -5 -8 -9 -9 -9 -9 -9 -9 -9 -9 -9 -9 -9 -9 -9 -9 -9 -9 -9 -9 -9 -9 -9 -9 -9 -9 -9 -9 -9 -9 -9 -6 51 23 -8 -8 -8 -8 -8 -8 -8 -8 -8 -8 -8 -8 -8 -8 -6 24 51 51 25 26 51 -5 -9 -9 -9 -9 -9 -9 -9 -9 -9 -8 25 
25 -8 -9 -9 -9 -9 -9 -9 -9 -9 -9 -9 -9 -9 -9 -9 -9 -8 25 53 -6 -9 -9 -9 -9 -9 -9 -9 -9 -9 -9 -9 -9 -9 -9 -9 -9 -8 -5 49 51 24 -6 -9 -9 -9 -9 -9 -9 -9 -9 -9 -9 -9 -9 -9 -9 -9 -9 -9 -9 -9 -9 -9 -9 -9 -9 -9 -9 -9 -9 -9 -9 -8 23 51 -6 -9 -9 -9 -9 -9 -9 -9 -9 -9 -9 -9 -9 -9 -9 -9 -8 -6 24 51 79 27 -8 -9 -9 -9 -9 -9 -9 -9 -9 -9 -8 25 
25 -8 -9 -9 -9 -9 -9 -9 -9 -9 -9 -9 -9 -9 -9 -9 -9 -8 25 26 -8 -9 -9 -9 -9 -9 -9 -9 -9 -9 -9 -9 -9 -9 -9 -9 -6 24 51 49 -5 -8 -9 -9 -9 -9 -9 -9 -9 -9 -9 -9 -9 -9 -9 -9 -9 -9 -9 -9 -9 -9 -9 -9 -9 -9 -9 -9 -9 -9 -9 -9 -9 -8 25 26 -8 -9 -9 -9 -9 -9 -9 -9 -9 -9 -9 -9 -9 -9 -9 -9 -9 -9 -8 -5 52 51 -5 -9 -9 -9 -9 -9 -9 -9 -9 -9 -8 25 
25 -8 -9 -9 -9 -9 -9 -9 -9 -9 -9 -9 -9 -9 -9 -9 -9 -8 25 25 -8 -9 -9 -9 -9 -9 -9 -9 -9 -9 -9 -9 -9 -8 -8 -5 52 81 54 -3 -8 -8 -8 -8 -9 -9 -9 -9 -9 -9 -9 -9 -9 -9 -9 -9 -9 -9 -9 -9 -9 -9 -9 -9 -9 -9 -9 -9 -9 -9 -9 -9 -9 -8 25 25 -8 -9 -9 -9 -9 -9 -9 -9 -9 -9 -9 -9 -9 -9 -9 -9 -9 -9 -9 -9 -5 49 49 -6 -9 -9 -9 -9 -9 -9 -9 -9 -8 25 
25 -8 -9 -9 -9 -9 -9 -9 -9 -9 -9 -9 -9 -9 -9 -9 -9 -8 26 25 -8 -9 -9 -9 -9 -9 -9 -9 -9 -9 -9 -8 -6 23 25 51 51 27 51 51 26 25 25 23 -6 -8 -8 -8 -9 -9 -9 -9 -9 -9 -9 -9 -9 -9 -9 -9 -9 -9 -9 -9 -9 -9 -9 -9 -9 -9 -9 -9 -9 -8 25 25 -8 -9 -9 -9 -9 -9 -9 -9 -9 -9 -9 -9 -9 -9 -9 -9 -9 -9 -9 -9 -9 -5 51 24 -8 -9 -9 -9 -9 -9 -9 -9 -8 25 
25 -8 -9 -9 -9 -9 -9 -9 -9 -9 -9 -9 -9 -9 -9 -9 -9 -6 51 23 -8 -9 -9 -9 -9 -9 -9 -9 -9 -8 -6 24 51 51 25 23 -6 -8 -6 23 25 25 26 51 51 26 25 23 -6 -8 -8 -8 -8 -9 -9 -9 -9 -9 -9 -9 -9 -9 -9 -9 -9 -9 -9 -9 -9 -9 -9 -9 -9 -8 26 25 -8 -9 -9 -9 -9 -9 -9 -9 -9 -9 -9 -9 -9 -9 -9 -9 -9 -9 -9 -9 -9 -8 24 51 -5 -9 -9 -9 -9 -9 -9 -9 -8 25 
25 -8 -9 -9 -9 -9 -9 -9 -9 -9 -9 -9 -9 -9 -9 -9 -8 23 51 -6 -9 -9 -9 -9 -9 -9 -8 -8 -6 24 51 51 24 -6 -8 -8 -9 -9 -9 -8 -8 -8 -8 -6 23 25 26 51 51 26 25 25 23 -6 -8 -8 -8 -9 -9 -9 -9 -9 -9 -9 -9 -9 -9 -9 -9 -9 -9 -9 -9 -6 51 23 -8 -9 -9 -9 -9 -9 -9 -9 -9 -9 -9 -9 -9 -9 -9 -9 -9 -9 -9 -9 -9 -9 -6 49 49 -6 -9 -9 -9 -9 -9 -9 -8 25 
25 -8 -9 -9 -9 -9 -9 -9 -9 -9 -9 -9 -9 -9 -9 -9 -8 25 26 -8 -9 -9 -9 -9 -8 -6 23 25 51 51 24 -6 -8 -9 -9 -9 -9 -9 -9 -9 -9 -9 -9 -9 -8 -8 -8 -6 23 25 25 26 51 51 26 25 23 -6 -8 -8 -8 -8 -9 -9 -9 -9 -9 -9 -9 -9 -9 -9 -8 23 51 -6 -9 -9 -9 -9 -9 -9 -9 -9 -9 -9 -9 -9 -9 -9 -9 -9 -9 -9 -9 -9 -9 -9 -9 -5 51 24 -8 -9 -9 -9 -9 -9 -8 25 
25 -8 -9 -9 -9 -9 -9 -9 -9 -9 -9 -9 -9 -9 -9 -9 -8 25 25 -8 -9 -9 -8 -6 24 51 51 25 23 -6 -8 -9 -9 -9 -9 -9 -9 -9 -9 -9 -9 -9 -9 -9 -9 -9 -9 -9 -8 -8 -8 -8 -6 23 25 26 51 51 26 25 25 23 -6 -8 -8 -8 -9 -9 -9 -9 -9 -9 -8 25 26 -8 -9 -9 -9 -9 -9 -9 -9 -9 -9 -9 -9 -9 -9 -9 -9 -9 -9 -9 -9 -9 -9 -9 -9 -8 24 51 -5 -9 -9 -9 -9 -9 -8 25 
25 -8 -9 -9 -9 -9 -9 -9 -9 -9 -9 -9 -9 -9 -9 -9 -8 26 25 -8 -8 -6 24 51 51 24 -6 -8 -8 -9 -9 -9 -9 -9 -9 -9 -9 -9 -9 -9 -9 -9 -9 -9 -9 -9 -9 -9 -9 -9 -9 -9 -9 -8 -8 -8 -6 23 25 25 26 51 51 26 25 23 -6 -8 -8 -8 -8 -9 -8 25 25 -8 -9 -9 -9 -9 -9 -9 -9 -9 -9 -9 -9 -9 -9 -9 -9 -9 -9 -9 -9 -9 -9 -9 -9 -9 -6 49 49 -5 -9 -9 -9 -9 -8 25 
25 -8 -9 -9 -9 -9 -9 -9 -9 -9 -9 -9 -9 -9 -9 -9 -6 51 24 -5 24 51 51 24 -6 -8 -9 -9 -9 -9 -9 -9 -9 -9 -9 -9 -9 -9 -9 -9 -9 -9 -9 -9 -9 -9 -9 -9 -9 -9 -9 -9 -9 -9 -9 -9 -9 -8 -8 -8 -8 -6 23 25 26 51 51 26 25 25 23 -6 -7 26 25 -8 -9 -9 -9 -9 -9 -9 -9 -9 -9 -9 -9 -9 -9 -9 -9 -9 -9 -9 -9 -9 -9 -9 -9 -9 -9 -5 49 49 -6 -9 -9 -9 -8 25 
25 -8 -9 -9 -9 -9 -9 -9 -9 -9 -9 -9 -9 -9 -9 -8 24 79 28 51 51 24 -6 -8 -9 -9 -9 -9 -9 -9 -9 -9 -9 -9 -9 -9 -9 -9 -9 -9 -9 -9 -9 -9 -9 -9 -9 -9 -9 -9 -9 -9 -9 -9 -9 -9 -9 -9 -9 -9 -9 -9 -8 -8 -8 -6 23 25 25 26 51 51 27 55 25 -8 -9 -9 -9 -9 -9 -9 -9 -9 -9 -9 -9 -9 -9 -9 -9 -9 -9 -9 -9 -9 -9 -9 -9 -9 -9 -9 -5 51 24 -8 -9 -9 -8 25 
25 -8 -9 -9 -9 -9 -9 -9 -9 -9 -9 -9 -9 -9 -9 -6 51 53 26 23 -6 -8 -9 -9 -9 -9 -9 -9 -9 -9 -9 -9 -9 -9 -9 -9 -9 -9 -9 -9 -9 -9 -9 -9 -9 -9 -9 -9 -9 -9 -9 -9 -9 -9 -9 -9 -9 -9 -9 -9 -9 -9 -9 -9 -9 -9 -8 -8 -8 -8 -6 23 26 55 25 -8 -9 -9 -9 -9 -9 -9 -9 -9 -9 -9 -9 -9 -9 -9 -9 -9 -9 -9 -9 -9 -9 -9 -9 -9 -9 -9 -8 24 51 -5 -9 -9 -8 25 
25 -8 -9 -9 -9 -9 -9 -9 -9 -9 -9 -9 -9 -9 -8 24 51 -5 -8 -8 -9 -9 -9 -9 -9 -9 -9 -9 -9 -9 -9 -9 -9 -9 -9 -9 -9 -9 -9 -9 -9 -9 -9 -9 -9 -9 -9 -9 -9 -9 -9 -9 -9 -9 -9 -9 -9 -9 -9 -9 -9 -9 -9 -9 -9 -9 -9 -9 -9 -9 -9 -8 -7 26 25 -8 -9 -9 -9 -9 -9 -9 -9 -9 -9 -9 -9 -9 -9 -9 -9 -9 -9 -9 -9 -9 -9 -9 -9 -9 -9 -9 -9 -6 49 49 -5 -9 -8 25 
25 -8 -9 -9 -9 -9 -9 -9 -9 -9 -9 -9 -9 -9 -5 51 24 -8 -9 -9 -9 -9 -9 -9 -9 -9 -9 -9 -9 -9 -9 -9 -9 -9 -9 -9 -9 -9 -9 -9 -9 -9 -9 -9 -9 -9 -9 -9 -9 -9 -9 -9 -9 -9 -9 -9 -9 -9 -9 -9 -9 -9 -9 -9 -9 -9 -9 -9 -9 -9 -9 -9 -8 25 25 -8 -9 -9 -9 -9 -9 -9 -9 -9 -9 -9 -9 -9 -9 -9 -9 -9 -9 -9 -9 -9 -9 -9 -9 -9 -9 -9 -9 -9 -5 49 49 -6 -8 25 
25 -8 -9 -9 -9 -9 -9 -9 -9 -9 -9 -9 -9 -6 49 49 -6 -9 -9 -9 -9 -9 -9 -9 -9 -9 -9 -9 -9 -9 -9 -9 -9 -9 -9 -9 -9 -9 -9 -9 -9 -9 -9 -9 -9 -9 -9 -9 -9 -9 -9 -9 -9 -9 -9 -9 -9 -9 -9 -9 -9 -9 -9 -9 -9 -9 -9 -9 -9 -9 -9 -9 -8 25 25 -8 -9 -9 -9 -9 -9 -9 -9 -9 -9 -9 -9 -9 -9 -9 -9 -9 -9 -9 -9 -9 -9 -9 -9 -9 -9 -9 -9 -9 -9 -5 51 24 -7 25 
25 -8 -9 -9 -9 -9 -9 -9 -9 -9 -9 -9 -8 24 51 -5 -9 -9 -9 -9 -9 -9 -9 -9 -9 -9 -9 -9 -9 -9 -9 -9 -9 -9 -9 -9 -9 -9 -9 -9 -9 -9 -9 -9 -9 -9 -9 -9 -9 -9 -9 -9 -9 -9 -9 -9 -9 -9 -9 -9 -9 -9 -9 -9 -9 -9 -9 -9 -9 -9 -9 -9 -8 25 25 -8 -9 -9 -9 -9 -9 -9 -9 -9 -9 -9 -9 -9 -9 -9 -9 -9 -9 -9 -9 -9 -9 -9 -9 -9 -9 -9 -9 -9 -9 -8 24 51 -4 25 
25 -8 -9 -9 -9 -9 -9 -9 -9 -9 -9 -9 -5 51 24 -8 -9 -9 -9 -9 -9 -9 -9 -9 -9 -9 -9 -9 -9 -9 -9 -9 -9 -9 -9 -9 -9 -9 -9 -9 -9 -9 -9 -9 -9 -9 -9 -9 -9 -9 -9 -9 -9 -9 -9 -9 -9 -9 -9 -9 -9 -9 -9 -9 -9 -9 -9 -9 -9 -9 -9 -9 -8 25 26 -8 -9 -9 -9 -9 -9 -9 -9 -9 -9 -9 -9 -9 -9 -9 -9 -9 -9 -9 -9 -9 -9 -9 -9 -9 -9 -9 -9 -9 -9 -9 -6 49 50 28 
25 -8 -9 -9 -9 -9 -9 -9 -9 -9 -9 -5 49 49 -6 -9 -9 -9 -9 -9 -9 -9 -9 -9 -9 -9 -9 -9 -9 -9 -9 -9 -9 -9 -9 -9 -9 -9 -9 -9 -9 -9 -9 -9 -9 -9 -9 -9 -9 -9 -9 -9 -9 -9 -9 -9 -9 -9 -9 -9 -9 -9 -9 -9 -9 -9 -9 -9 -9 -9 -9 -9 -8 24 51 -5 -9 -9 -9 -9 -9 -9 -9 -9 -9 -9 -9 -9 -9 -9 -9 -9 -9 -9 -9 -9 -9 -9 -9 -9 -9 -9 -9 -9 -9 -9 -9 -5 51 56 
25 -8 -9 -9 -9 -9 -9 -9 -9 -9 -5 50 50 -4 -8 -8 -8 -9 -9 -9 -9 -9 -9 -9 -9 -9 -9 -9 -9 -9 -9 -9 -9 -9 -9 -9 -9 -9 -9 -9 -9 -9 -9 -9 -9 -9 -9 -9 -9 -9 -9 -9 -9 -9 -9 -9 -9 -9 -9 -9 -9 -9 -9 -9 -9 -9 -9 -9 -9 -9 -9 -8 -6 26 79 52 -5 -8 -9 -9 -9 -9 -9 -9 -9 -9 -9 -9 -9 -9 -9 -9 -9 -9 -9 -9 -9 -9 -9 -9 -9 -9 -9 -9 -9 -9 -9 -8 24 81 
25 -8 -9 -9 -9 -9 -9 -9 -9 -5 52 80 29 25 25 25 23 -6 -8 -8 -8 -8 -8 -8 -8 -8 -8 -8 -8 -9 -9 -9 -9 -9 -9 -9 -9 -9 -9 -9 -9 -9 -9 -9 -9 -9 -9 -9 -9 -9 -9 -9 -9 -9 -9 -9 -9 -9 -9 -9 -9 -9 -9 -9 -9 -9 -9 -9 -9 -9 -6 24 51 51 27 51 51 24 -6 -8 -9 -9 -9 -9 -9 -9 -9 -9 -9 -9 -9 -9 -9 -9 -9 -9 -9 -9 -9 -9 -9 -9 -9 -9 -9 -9 -9 -9 -6 53 
25 -8 -9 -9 -9 -9 -9 -9 -5 49 51 26 25 25 25 26 51 51 26 25 25 25 25 25 25 25 25 25 23 -6 -8 -8 -8 -8 -8 -8 -8 -8 -8 -8 -9 -9 -9 -9 -9 -9 -9 -9 -9 -9 -9 -9 -9 -9 -9 -9 -9 -9 -9 -9 -9 -9 -9 -9 -9 -9 -9 -9 -8 -5 49 51 24 -6 -8 -6 24 51 51 24 -6 -9 -9 -9 -9 -9 -9 -9 -9 -9 -9 -9 -9 -9 -9 -9 -9 -9 -9 -9 -9 -9 -9 -9 -9 -9 -9 -9 -8 26 
25 -8 -9 -9 -9 -9 -9 -5 49 49 -5 -8 -8 -8 -8 -8 -6 23 25 25 25 25 25 25 25 25 25 26 51 51 26 25 25 25 25 25 25 25 25 23 -6 -8 -8 -8 -8 -8 -8 -8 -8 -8 -8 -8 -9 -9 -9 -9 -9 -9 -9 -9 -9 -9 -9 -9 -9 -9 -8 -6 24 51 49 -5 -8 -9 -9 -9 -8 -6 24 51 49 -5 -8 -9 -9 -9 -9 -9 -9 -9 -9 -9 -9 -9 -9 -9 -9 -9 -9 -9 -9 -9 -9 -9 -9 -9 -9 -9 -8 25 
25 -8 -9 -9 -9 -9 -5 49 49 -5 -9 -9 -9 -9 -9 -9 -9 -8 -8 -8 -8 -8 -8 -8 -8 -8 -8 -8 -6 23 25 25 25 25 25 25 25 25 26 51 51 26 25 25 25 25 25 25 25 25 25 23 -6 -8 -8 -8 -8 -8 -8 -8 -8 -8 -8 -9 -9 -6 24 51 51 24 -6 -9 -9 -9 -9 -9 -9 -9 -8 -5 49 51 24 -6 -8 -9 -9 -9 -9 -9 -9 -9 -9 -9 -9 -9 -9 -9 -9 -9 -9 -9 -9 -9 -9 -9 -9 -9 -8 25 
25 -8 -9 -9 -8 -5 49 49 -5 -9 -9 -9 -9 -9 -9 -9 -9 -9 -9 -9 -9 -9 -9 -9 -9 -9 -9 -9 -9 -8 -8 -8 -8 -8 -8 -8 -8 -8 -8 -6 23 25 25 25 25 25 25 25 25 25 26 51 51 26 25 25 25 25 25 25 25 25 23 -6 -5 49 51 24 -6 -8 -9 -9 -9 -9 -9 -9 -9 -9 -9 -9 -6 24 51 51 24 -6 -9 -9 -9 -9 -9 -9 -9 -9 -9 -9 -9 -9 -9 -9 -9 -9 -9 -9 -9 -9 -9 -9 -8 25 
25 -8 -9 -6 24 51 49 -5 -9 -9 -9 -9 -9 -9 -9 -9 -9 -9 -9 -9 -9 -9 -9 -9 -9 -9 -9 -9 -9 -9 -9 -9 -9 -9 -9 -9 -9 -9 -9 -9 -8 -8 -8 -8 -8 -8 -8 -8 -8 -8 -8 -6 23 25 25 25 25 25 25 25 25 26 51 52 52 49 -5 -8 -9 -9 -9 -9 -9 -9 -9 -9 -9 -9 -9 -9 -9 -8 -6 24 51 49 -5 -8 -9 -9 -9 -9 -9 -9 -9 -9 -9 -9 -9 -9 -9 -9 -9 -9 -9 -9 -9 -9 -8 25 
25 -8 -5 49 51 24 -6 -9 -9 -9 -9 -9 -9 -9 -9 -9 -9 -9 -9 -9 -9 -9 -9 -9 -9 -9 -9 -9 -9 -9 -9 -9 -9 -9 -9 -9 -9 -9 -9 -9 -9 -9 -9 -9 -9 -9 -9 -9 -9 -9 -9 -9 -8 -8 -8 -8 -8 -8 -8 -8 -8 -8 -5 53 53 -5 -9 -9 -9 -9 -9 -9 -9 -9 -9 -9 -9 -9 -9 -9 -9 -9 -9 -8 -5 49 51 24 -6 -8 -9 -9 -9 -9 -9 -9 -9 -9 -9 -9 -9 -9 -9 -9 -9 -9 -9 -9 -8 25 
25 -4 49 49 -5 -8 -9 -9 -9 -9 -9 -9 -9 -9 -9 -9 -9 -9 -9 -9 -9 -9 -9 -9 -9 -9 -9 -9 -9 -9 -9 -9 -9 -9 -9 -9 -9 -9 -9 -9 -9 -9 -9 -9 -9 -9 -9 -9 -9 -9 -9 -9 -9 -9 -9 -9 -9 -9 -9 -9 -9 -9 -8 26 26 -8 -9 -9 -9 -9 -9 -9 -9 -9 -9 -9 -9 -9 -9 -9 -9 -9 -9 -9 -9 -6 24 51 51 24 -6 -9 -9 -9 -9 -9 -9 -9 -9 -9 -9 -9 -9 -9 -9 -9 -9 -9 -8 25 
29 50 49 -5 -9 -9 -9 -9 -9 -9 -9 -9 -9 -9 -9 -9 -9 -9 -9 -9 -9 -9 -9 -9 -9 -9 -9 -9 -9 -9 -9 -9 -9 -9 -9 -9 -9 -9 -9 -9 -9 -9 -9 -9 -9 -9 -9 -9 -9 -9 -9 -9 -9 -9 -9 -9 -9 -9 -9 -9 -9 -9 -8 25 25 -8 -9 -9 -9 -9 -9 -9 -9 -9 -9 -9 -9 -9 -9 -9 -9 -9 -9 -9 -9 -9 -8 -6 24 51 49 -5 -8 -9 -9 -9 -9 -9 -9 -9 -9 -9 -9 -9 -9 -9 -9 -9 -8 25 
80 50 -5 -9 -9 -9 -9 -9 -9 -9 -9 -9 -9 -9 -9 -9 -9 -9 -9 -9 -9 -9 -9 -9 -9 -9 -9 -9 -9 -9 -9 -9 -9 -9 -9 -9 -9 -9 -9 -9 -9 -9 -9 -9 -9 -9 -9 -9 -9 -9 -9 -9 -9 -9 -9 -9 -9 -9 -9 -9 -9 -9 -8 25 25 -8 -9 -9 -9 -9 -9 -9 -9 -9 -9 -9 -9 -9 -9 -9 -9 -9 -9 -9 -9 -9 -9 -9 -8 -5 49 51 24 -6 -8 -9 -9 -9 -9 -9 -9 -9 -9 -9 -9 -9 -9 -9 -8 25 
53 -5 -9 -9 -9 -9 -9 -9 -9 -9 -9 -9 -9 -9 -9 -9 -9 -9 -9 -9 -9 -9 -9 -9 -9 -9 -9 -9 -9 -9 -9 -9 -9 -9 -9 -9 -9 -9 -9 -9 -9 -9 -9 -9 -9 -9 -9 -9 -9 -9 -9 -9 -9 -9 -9 -9 -9 -9 -9 -9 -9 -9 -8 25 25 -8 -9 -9 -9 -9 -9 -9 -9 -9 -9 -9 -9 -9 -9 -9 -9 -9 -9 -9 -9 -9 -9 -9 -9 -9 -6 24 51 51 24 -6 -8 -9 -9 -9 -9 -9 -9 -9 -9 -9 -9 -9 -8 25 
26 -8 -9 -9 -9 -9 -9 -9 -9 -9 -9 -9 -9 -9 -9 -9 -9 -9 -9 -9 -9 -9 -9 -9 -9 -9 -9 -9 -9 -9 -9 -9 -9 -9 -9 -9 -9 -9 -9 -9 -9 -9 -9 -9 -9 -9 -9 -9 -9 -9 -9 -9 -9 -9 -9 -9 -9 -9 -9 -9 -9 -9 -8 25 25 -8 -9 -9 -9 -9 -9 -9 -9 -9 -9 -9 -9 -9 -9 -9 -9 -9 -9 -9 -9 -9 -9 -9 -9 -9 -9 -8 -6 24 51 51 24 -6 -9 -9 -9 -9 -9 -9 -9 -9 -9 -9 -8 25 
25 -8 -9 -9 -9 -9 -9 -9 -9 -9 -9 -9 -9 -9 -9 -9 -9 -9 -9 -9 -9 -9 -9 -9 -9 -9 -9 -9 -9 -9 -9 -9 -9 -9 -9 -9 -9 -9 -9 -9 -9 -9 -9 -9 -9 -9 -9 -9 -9 -9 -9 -9 -9 -9 -9 -9 -9 -9 -9 -9 -9 -9 -8 25 25 -8 -9 -9 -9 -9 -9 -9 -9 -9 -9 -9 -9 -9 -9 -9 -9 -9 -9 -9 -9 -9 -9 -9 -9 -9 -9 -9 -9 -8 -6 24 51 49 -5 -8 -9 -9 -9 -9 -9 -9 -9 -9 -8 25 
25 -8 -9 -9 -9 -9 -9 -9 -9 -9 -9 -9 -9 -9 -9 -9 -9 -9 -9 -9 -9 -9 -9 -9 -9 -9 -9 -9 -9 -9 -9 -9 -9 -9 -9 -9 -9 -9 -9 -9 -9 -9 -9 -9 -9 -9 -9 -9 -9 -9 -9 -9 -9 -9 -9 -9 -9 -9 -9 -9 -9 -9 -8 25 25 -8 -9 -9 -9 -9 -9 -9 -9 -9 -9 -9 -9 -9 -9 -9 -9 -9 -9 -9 -9 -9 -9 -9 -9 -9 -9 -9 -9 -9 -9 -8 -5 49 51 24 -6 -8 -8 -8 -9 -9 -9 -9 -8 25 
25 -8 -9 -9 -9 -9 -9 -9 -9 -9 -9 -9 -9 -9 -9 -9 -9 -9 -9 -9 -9 -9 -9 -9 -9 -9 -9 -9 -9 -9 -9 -9 -9 -9 -9 -9 -9 -9 -9 -9 -9 -9 -9 -9 -9 -9 -9 -9 -9 -9 -9 -9 -9 -9 -9 -9 -9 -9 -9 -9 -9 -9 -8 25 25 -8 -9 -9 -9 -9 -9 -9 -9 -9 -9 -9 -9 -9 -9 -9 -9 -9 -9 -9 -9 -9 -9 -9 -9 -9 -9 -9 -9 -9 -9 -9 -9 -5 27 79 53 26 25 23 -6 -8 -8 -8 -8 25 
25 -8 -9 -9 -9 -9 -9 -9 -9 -9 -9 -9 -9 -9 -9 -9 -9 -9 -9 -9 -9 -9 -9 -9 -9 -9 -9 -9 -9 -9 -9 -9 -9 -9 -9 -9 -9 -9 -9 -9 -9 -9 -9 -9 -9 -9 -9 -9 -9 -9 -9 -9 -9 -9 -9 -9 -9 -9 -9 -9 -9 -9 -8 25 25 -8 -9 -9 -9 -9 -9 -9 -9 -9 -9 -9 -9 -9 -9 -9 -9 -9 -9 -9 -9 -9 -9 -9 -9 -9 -9 -9 -9 -9 -8 -8 -6 24 52 51 26 25 26 51 51 26 25 23 -5 26 
25 -8 -9 -9 -9 -9 -9 -9 -9 -9 -9 -9 -9 -9 -9 -9 -9 -9 -9 -9 -9 -9 -9 -9 -9 -9 -9 -9 -9 -9 -9 -9 -9 -9 -9 -9 -9 -9 -9 -9 -9 -9 -9 -9 -9 -9 -9 -9 -9 -9 -9 -9 -9 -9 -9 -9 -9 -9 -9 -9 -9 -9 -8 25 25 -8 -9 -9 -9 -9 -9 -9 -9 -9 -9 -9 -9 -9 -9 -9 -9 -9 -9 -9 -9 -9 -9 -9 -9 -9 -9 -9 -8 -6 23 25 51 51 24 -6 -8 -8 -8 -6 23 25 26 51 52 56 
26 -7 -8 -8 -8 -8 -8 -8 -8 -9 -9 -9 -9 -9 -9 -9 -9 -9 -9 -9 -9 -9 -9 -9 -9 -9 -9 -9 -9 -9 -9 -9 -9 -9 -9 -9 -9 -9 -9 -9 -9 -9 -9 -9 -9 -9 -9 -9 -9 -9 -9 -9 -9 -9 -9 -9 -9 -9 -9 -9 -9 -9 -8 25 25 -8 -9 -9 -9 -9 -9 -9 -9 -9 -9 -9 -9 -9 -9 -9 -9 -9 -9 -9 -9 -9 -9 -9 -9 -8 -8 -6 24 51 51 25 23 -6 -8 -9 -9 -9 -9 -9 -8 -8 -8 -6 24 55 
55 26 25 25 25 25 25 25 23 -6 -8 -8 -8 -8 -8 -8 -8 -9 -9 -9 -9 -9 -9 -9 -9 -9 -9 -9 -9 -9 -9 -9 -9 -9 -9 -9 -9 -9 -9 -9 -9 -9 -9 -9 -9 -9 -9 -9 -9 -9 -9 -9 -9 -9 -9 -9 -9 -9 -9 -9 -9 -9 -8 25 25 -8 -9 -9 -9 -9 -9 -9 -9 -9 -9 -9 -9 -9 -9 -9 -9 -9 -9 -9 -9 -9 -9 -8 -6 23 25 51 51 24 -6 -8 -8 -9 -9 -9 -9 -9 -9 -9 -9 -9 -9 -9 -7 26 
55 26 25 25 25 25 25 26 51 51 26 25 25 25 25 25 23 -6 -8 -8 -8 -8 -8 -8 -8 -8 -9 -9 -9 -9 -9 -9 -9 -9 -9 -9 -9 -9 -9 -9 -9 -9 -9 -9 -9 -9 -9 -9 -9 -9 -9 -9 -9 -9 -9 -9 -9 -9 -9 -9 -9 -9 -8 25 25 -8 -9 -9 -9 -9 -9 -9 -9 -9 -9 -9 -9 -9 -9 -9 -9 -9 -9 -9 -8 -8 -6 24 51 51 25 23 -6 -8 -9 -9 -9 -9 -9 -9 -9 -9 -9 -9 -9 -9 -9 -9 -8 25 
26 -7 -8 -8 -8 -8 -8 -8 -6 23 25 25 25 25 25 26 51 51 26 25 25 25 25 25 25 23 -6 -8 -8 -8 -8 -8 -8 -8 -9 -9 -9 -9 -9 -9 -9 -9 -9 -9 -9 -9 -9 -9 -9 -9 -9 -9 -9 -9 -9 -9 -9 -9 -9 -9 -9 -9 -8 25 25 -8 -9 -9 -9 -9 -9 -9 -9 -9 -9 -9 -9 -9 -9 -9 -9 -9 -8 -6 23 25 51 51 24 -6 -8 -8 -9 -9 -9 -9 -9 -9 -9 -9 -9 -9 -9 -9 -9 -9 -9 -9 -8 25 
25 -8 -9 -9 -9 -9 -9 -9 -9 -8 -8 -8 -8 -8 -8 -8 -6 23 25 25 25 25 25 25 26 51 51 26 25 25 25 25 25 23 -6 -8 -8 -8 -8 -8 -8 -8 -8 -9 -9 -9 -9 -9 -9 -9 -9 -9 -9 -9 -9 -9 -9 -9 -9 -9 -9 -9 -8 25 25 -8 -9 -9 -9 -9 -9 -9 -9 -9 -9 -9 -9 -9 -9 -9 -8 -6 24 51 51 25 23 -6 -8 -9 -9 -9 -9 -9 -9 -9 -9 -9 -9 -9 -9 -9 -9 -9 -9 -9 -9 -9 -8 25 
25 -8 -9 -9 -9 -9 -9 -9 -9 -9 -9 -9 -9 -9 -9 -9 -9 -8 -8 -8 -8 -8 -8 -8 -8 -6 23 25 25 25 25 25 26 51 51 26 25 25 25 25 25 25 23 -6 -8 -8 -8 -8 -8 -8 -8 -9 -9 -9 -9 -9 -9 -9 -9 -9 -9 -9 -8 25 25 -8 -9 -9 -9 -9 -9 -9 -9 -9 -9 -9 -9 -8 -8 -6 24 51 51 24 -6 -8 -8 -9 -9 -9 -9 -9 -9 -9 -9 -9 -9 -9 -9 -9 -9 -9 -9 -9 -9 -9 -9 -9 -8 25 
25 -8 -9 -9 -9 -9 -9 -9 -9 -9 -9 -9 -9 -9 -9 -9 -9 -9 -9 -9 -9 -9 -9 -9 -9 -9 -8 -8 -8 -8 -8 -8 -8 -6 23 25 25 25 25 25 25 26 51 51 26 25 25 25 25 25 23 -6 -8 -8 -8 -8 -8 -8 -8 -8 -9 -9 -8 25 25 -8 -9 -9 -9 -9 -9 -9 -9 -9 -9 -8 -6 23 25 51 51 24 -6 -8 -9 -9 -9 -9 -9 -9 -9 -9 -9 -9 -9 -9 -9 -9 -9 -9 -9 -9 -9 -9 -9 -9 -9 -9 -8 25 
25 -8 -9 -9 -9 -9 -9 -9 -9 -9 -9 -9 -9 -9 -9 -9 -9 -9 -9 -9 -9 -9 -9 -9 -9 -9 -9 -9 -9 -9 -9 -9 -9 -9 -8 -8 -8 -8 -8 -8 -8 -8 -6 23 25 25 25 25 25 26 51 51 26 25 25 25 25 25 25 23 -6 -8 -7 26 26 -8 -9 -9 -9 -9 -9 -9 -8 -8 -6 24 51 51 25 23 -6 -8 -9 -9 -9 -9 -9 -9 -9 -9 -9 -9 -9 -9 -9 -9 -9 -9 -9 -9 -9 -9 -9 -9 -9 -9 -9 -9 -8 25 
25 -8 -9 -9 -9 -9 -9 -9 -9 -9 -9 -9 -9 -9 -9 -9 -9 -9 -9 -9 -9 -9 -9 -9 -9 -9 -9 -9 -9 -9 -9 -9 -9 -9 -9 -9 -9 -9 -9 -9 -9 -9 -9 -8 -8 -8 -8 -8 -8 -8 -6 23 25 25 25 25 25 25 26 51 51 26 26 55 53 -5 -9 -9 -9 -9 -8 -6 23 25 51 51 24 -6 -8 -8 -9 -9 -9 -9 -9 -9 -9 -9 -9 -9 -9 -9 -9 -9 -9 -9 -9 -9 -9 -9 -9 -9 -9 -9 -9 -9 -9 -9 -8 25 
25 -8 -9 -9 -9 -9 -9 -9 -9 -9 -9 -9 -9 -9 -9 -9 -9 -9 -9 -9 -9 -9 -9 -9 -9 -9 -9 -9 -9 -9 -9 -9 -9 -9 -9 -9 -9 -9 -9 -9 -9 -9 -9 -9 -9 -9 -9 -9 -9 -9 -9 -8 -8 -8 -8 -8 -8 -8 -8 -6 23 25 25 26 51 49 -5 -8 -8 -6 24 51 51 25 23 -6 -8 -9 -9 -9 -9 -9 -9 -9 -9 -9 -9 -9 -9 -9 -9 -9 -9 -9 -9 -9 -9 -9 -9 -9 -9 -9 -9 -9 -9 -9 -9 -9 -8 25 
25 -8 -9 -9 -9 -9 -9 -9 -9 -9 -9 -9 -9 -9 -9 -9 -9 -9 -9 -9 -9 -9 -9 -9 -9 -9 -9 -9 -9 -9 -9 -9 -9 -9 -9 -9 -9 -9 -9 -9 -9 -9 -9 -9 -9 -9 -9 -9 -9 -9 -9 -9 -9 -9 -9 -9 -9 -9 -9 -9 -8 -8 -8 -8 -5 49 51 26 26 51 51 24 -6 -8 -8 -9 -9 -9 -9 -9 -9 -9 -9 -9 -9 -9 -9 -9 -9 -9 -9 -9 -9 -9 -9 -9 -9 -9 -9 -9 -9 -9 -9 -9 -9 -9 -9 -9 -8 25 
25 -8 -9 -9 -9 -9 -9 -9 -9 -9 -9 -9 -9 -9 -9 -9 -9 -9 -9 -9 -9 -9 -9 -9 -9 -9 -9 -9 -9 -9 -9 -9 -9 -9 -9 -9 -9 -9 -9 -9 -9 -9 -9 -9 -9 -9 -9 -9 -9 -9 -9 -9 -9 -9 -9 -9 -9 -9 -9 -9 -9 -9 -9 -9 -9 -5 53 55 26 23 -6 -8 -9 -9 -9 -9 -9 -9 -9 -9 -9 -9 -9 -9 -9 -9 -9 -9 -9 -9 -9 -9 -9 -9 -9 -9 -9 -9 -9 -9 -9 -9 -9 -9 -9 -9 -9 -9 -8 25 
25 -8 -9 -9 -9 -9 -9 -9 -9 -9 -9 -9 -9 -9 -9 -9 -9 -9 -9 -9 -9 -9 -9 -9 -9 -9 -9 -9 -9 -9 -9 -9 -9 -9 -9 -9 -9 -9 -9 -9 -9 -9 -9 -9 -9 -9 -9 -9 -9 -9 -9 -9 -9 -9 -9 -9 -9 -9 -9 -9 -9 -9 -9 -9 -9 -8 26 26 -7 -8 -9 -9 -9 -9 -9 -9 -9 -9 -9 -9 -9 -9 -9 -9 -9 -9 -9 -9 -9 -9 -9 -9 -9 -9 -9 -9 -9 -9 -9 -9 -9 -9 -9 -9 -9 -9 -9 -9 -8 25 
25 -8 -9 -9 -9 -9 -9 -9 -9 -9 -9 -9 -9 -9 -9 -9 -9 -9 -9 -9 -9 -9 -9 -9 -9 -9 -9 -9 -9 -9 -9 -9 -9 -9 -9 -9 -9 -9 -9 -9 -9 -9 -9 -9 -9 -9 -9 -9 -9 -9 -9 -9 -9 -9 -9 -9 -9 -9 -9 -9 -9 -9 -9 -9 -9 -8 25 25 -8 -9 -9 -9 -9 -9 -9 -9 -9 -9 -9 -9 -9 -9 -9 -9 -9 -9 -9 -9 -9 -9 -9 -9 -9 -9 -9 -9 -9 -9 -9 -9 -9 -9 -9 -9 -9 -9 -9 -9 -8 25 
25 -8 -9 -9 -9 -9 -9 -9 -9 -9 -9 -9 -9 -9 -9 -9 -9 -9 -9 -9 -9 -9 -9 -9 -9 -9 -9 -9 -9 -9 -9 -9 -9 -9 -9 -9 -9 -9 -9 -9 -9 -9 -9 -9 -9 -9 -9 -9 -9 -9 -9 -9 -9 -9 -9 -9 -9 -9 -9 -9 -9 -9 -9 -9 -9 -8 25 25 -8 -9 -9 -9 -9 -9 -9 -9 -9 -9 -9 -9 -9 -9 -9 -9 -9 -9 -9 -9 -9 -9 -9 -9 -9 -9 -9 -9 -9 -9 -9 -9 -9 -9 -9 -9 -9 -9 -9 -9 -8 25 
26 -7 -8 -8 -8 -8 -8 -8 -8 -8 -8 -8 -8 -8 -8 -8 -8 -8 -8 -8 -8 -8 -8 -8 -8 -8 -8 -8 -8 -8 -8 -8 -8 -8 -8 -8 -8 -8 -8 -8 -8 -8 -8 -8 -8 -8 -8 -8 -8 -8 -8 -8 -8 -8 -8 -8 -8 -8 -8 -8 -8 -8 -8 -8 -8 -7 26 26 -7 -8 -8 -8 -8 -8 -8 -8 -8 -8 -8 -8 -8 -8 -8 -8 -8 -8 -8 -8 -8 -8 -8 -8 -8 -8 -8 -8 -8 -8 -8 -8 -8 -8 -8 -8 -8 -8 -8 -8 -7 26 
55 26 25 25 25 25 25 25 25 25 25 25 25 25 25 25 25 25 25 25 25 25 25 25 25 25 25 25 25 25 25 25 25 25 25 25 25 25 25 25 25 25 25 25 25 25 25 25 25 25 25 25 25 25 25 25 25 25 25 25 25 25 25 25 25 26 55 55 26 25 25 25 25 25 25 25 25 25 25 25 25 25 25 25 25 25 25 25 25 25 25 25 25 25 25 25 25 25 25 25 25 25 25 25 25 25 25 25 26 55 
