P2
110 110
255
148 105 91 88 88 88 88 88 88 88 88 88 88 88 88 88 88 88 88 88 88 88 88 88 88 88 88 88 88 88 90 100 128 154 128 98 89 88 88 88 88 88 88 88 88 88 88 90 103 141 141 103 90 88 88 88 88 88 88 88 88 88 88 88 88 89 94 94 89 88 88 88 88 88 88 88 88 88 88 88 88 88 88 88 88 88 88 88 88 89 96 121 154 128 98 89 88 88 88 88 88 89 95 120 154 128 99 92 105 148 
105 44 24 20 20 20 20 20 20 20 20 20 20 20 20 20 20 20 20 20 20 20 20 20 20 20 20 20 20 21 30 62 119 112 55 27 21 20 20 20 20 20 20 20 20 20 20 24 45 106 105 44 24 20 20 20 20 20 20 20 20 20 20 20 20 20 20 20 20 20 20 20 20 20 20 20 20 20 20 20 20 20 20 20 20 20 20 20 20 24 44 101 119 59 28 21 20 20 20 20 20 23 39 93 121 60 29 25 44 105 
91 24 2 -1 -1 -1 -1 -1 -1 -1 -1 -1 -1 -1 -1 -1 -1 -1 -1 -1 -1 -1 -1 -1 -1 -1 -1 -1 0 3 25 83 111 52 13 1 -1 -1 -1 -1 -1 -1 -1 -1 -1 -1 0 4 29 100 92 24 2 -1 -1 -1 -1 -1 -1 -1 -1 -1 -1 -1 -1 -1 -1 -1 -1 -1 -1 -1 -1 -1 -1 -1 -1 -1 -1 -1 -1 -1 -1 -1 -1 -1 -1 -1 0 8 45 110 82 22 2 0 -1 -1 -1 -1 -1 2 23 89 96 28 4 3 24 91 
88 20 -1 -4 -5 -5 -5 -5 -5 -5 -5 -5 -5 -5 -5 -5 -5 -5 -5 -5 -5 -5 -5 -5 -5 -5 -5 -4 -2 10 52 109 80 21 0 -4 -5 -5 -5 -5 -5 -5 -5 -5 -5 -5 -3 5 45 125 93 20 -1 -4 -5 -5 -5 -5 -5 -5 -5 -5 -5 -5 -5 -5 -5 -5 -5 -5 -5 -5 -5 -5 -5 -5 -5 -5 -5 -5 -5 -5 -5 -5 -5 -5 -5 -4 -1 15 74 109 44 5 -3 -5 -5 -5 -5 -5 -4 0 25 94 86 20 0 0 20 88 
88 20 -1 -5 -5 -5 -5 -5 -5 -5 -5 -5 -5 -5 -5 -5 -5 -5 -5 -5 -5 -5 -5 -5 -5 -5 -5 -4 4 38 101 101 38 4 -4 -5 -5 -5 -5 -5 -5 -5 -5 -5 -5 -5 -1 19 84 154 95 20 -1 -5 -5 -5 -5 -5 -5 -5 -5 -5 -5 -5 -5 -5 -5 -5 -5 -5 -5 -5 -5 -5 -5 -5 -5 -5 -5 -5 -5 -5 -5 -5 -5 -5 -5 -5 0 24 91 91 24 0 -5 -5 -5 -5 -5 -5 -4 4 42 109 72 14 -2 -1 20 88 
88 20 -1 -5 -5 -5 -5 -5 -5 -5 -5 -5 -5 -5 -5 -5 -5 -5 -5 -5 -5 -5 -5 -5 -5 -5 -5 0 21 80 109 51 10 -2 -5 -5 -5 -5 -5 -5 -5 -5 -5 -5 -5 -4 5 43 117 147 93 20 -1 -5 -5 -5 -5 -5 -5 -5 -5 -5 -5 -5 -5 -5 -5 -5 -5 -5 -5 -5 -5 -5 -5 -5 -5 -5 -5 -5 -5 -5 -5 -5 -5 -5 -5 -4 5 43 109 73 15 -2 -5 -5 -5 -5 -5 -5 -2 14 72 109 42 4 -3 -1 20 88 
88 20 -1 -5 -5 -5 -5 -5 -5 -5 -5 -5 -5 -5 -5 -5 -5 -5 -5 -5 -5 -5 -5 -5 -5 -5 -2 10 51 109 80 21 0 -5 -5 -5 -5 -5 -5 -5 -5 -5 -5 -5 -5 -1 19 81 125 124 91 21 -1 -5 -5 -5 -5 -5 -5 -5 -5 -5 -5 -5 -5 -5 -5 -5 -5 -5 -5 -5 -5 -5 -5 -5 -5 -5 -5 -5 -5 -5 -5 -5 -5 -5 -5 -1 19 80 107 41 4 -4 -5 -5 -5 -5 -5 -5 -1 19 85 94 25 0 -4 -1 20 88 
88 20 -1 -5 -5 -5 -5 -5 -5 -5 -5 -5 -5 -5 -5 -5 -5 -5 -5 -5 -5 -5 -5 -5 -5 -4 4 38 101 101 38 4 -4 -5 -5 -5 -5 -5 -5 -5 -5 -5 -5 -5 -4 5 43 109 100 105 96 25 0 -5 -5 -5 -5 -5 -5 -5 -5 -5 -5 -5 -5 -5 -5 -5 -5 -5 -5 -5 -5 -5 -5 -5 -5 -5 -5 -5 -5 -5 -5 -5 -5 -5 -4 4 41 107 80 19 -1 -5 -5 -5 -5 -5 -5 -5 0 25 94 85 19 -1 -4 -1 20 88 
88 20 -1 -5 -5 -5 -5 -5 -5 -5 -5 -5 -5 -5 -5 -5 -5 -5 -5 -5 -5 -5 -5 -5 -5 0 21 80 109 51 10 -2 -5 -5 -5 -5 -5 -5 -5 -5 -5 -5 -5 -5 0 21 81 110 61 81 110 42 4 -4 -5 -5 -5 -5 -5 -5 -5 -5 -5 -5 -5 -5 -5 -5 -5 -5 -5 -5 -5 -5 -5 -5 -5 -5 -5 -5 -5 -5 -5 -5 -5 -5 -2 15 73 109 43 5 -4 -5 -5 -5 -5 -5 -5 -4 4 42 109 72 14 -2 -4 -1 20 88 
88 20 -1 -5 -5 -5 -5 -5 -5 -5 -5 -5 -5 -5 -5 -5 -5 -5 -5 -5 -5 -5 -5 -5 -2 10 51 109 80 21 0 -5 -5 -5 -5 -5 -5 -5 -5 -5 -5 -5 -5 -2 10 51 109 81 29 46 109 72 14 -2 -5 -5 -5 -5 -5 -5 -5 -5 -5 -5 -5 -5 -5 -5 -5 -5 -5 -5 -5 -5 -5 -5 -5 -5 -5 -5 -5 -5 -5 -5 -5 -5 0 24 91 91 24 0 -5 -5 -5 -5 -5 -5 -5 -2 14 72 109 42 4 -4 -5 -1 20 88 
88 20 -1 -5 -5 -5 -5 -5 -5 -5 -5 -5 -5 -5 -5 -5 -5 -5 -5 -5 -5 -5 -5 -4 4 38 101 101 38 4 -4 -5 -5 -5 -5 -5 -5 -5 -5 -5 -5 -5 -4 4 38 101 101 39 10 27 94 84 18 -1 -5 -5 -5 -5 -5 -5 -5 -5 -5 -5 -5 -5 -5 -5 -5 -5 -5 -5 -5 -5 -5 -5 -5 -5 -5 -5 -5 -5 -5 -5 -5 -4 5 43 109 73 15 -2 -5 -5 -5 -5 -5 -5 -5 -1 19 85 94 25 0 -5 -5 -1 20 88 
88 20 -1 -5 -5 -5 -5 -5 -5 -5 -5 -5 -5 -5 -5 -5 -5 -5 -5 -5 -5 -5 -5 0 21 80 109 51 10 -2 -5 -5 -5 -5 -5 -5 -5 -5 -5 -5 -5 -5 -1 19 79 109 51 10 1 21 89 87 20 -1 -5 -5 -5 -5 -5 -5 -5 -5 -5 -5 -5 -5 -5 -5 -5 -5 -5 -5 -5 -5 -5 -5 -5 -5 -5 -5 -5 -5 -5 -5 -5 -1 19 80 107 41 4 -4 -5 -5 -5 -5 -5 -5 -5 0 25 94 85 19 -1 -5 -5 -1 20 88 
89 21 -1 -5 -5 -5 -5 -5 -5 -5 -5 -5 -5 -5 -5 -5 -5 -5 -5 -5 -5 -5 -2 10 51 109 80 21 0 -5 -5 -5 -5 -5 -5 -5 -5 -5 -5 -5 -5 -4 5 42 108 81 21 0 0 20 88 88 20 -1 -5 -5 -5 -5 -5 -5 -5 -5 -5 -5 -5 -5 -5 -5 -5 -5 -5 -5 -5 -5 -5 -5 -5 -5 -5 -5 -5 -5 -5 -5 -4 4 41 107 80 19 -1 -5 -5 -5 -5 -5 -5 -5 -4 4 42 109 72 14 -2 -5 -5 -1 20 88 
98 27 0 -4 -5 -5 -5 -5 -5 -5 -5 -5 -5 -5 -5 -5 -5 -5 -5 -5 -5 -4 4 38 101 101 38 4 -4 -5 -5 -5 -5 -5 -5 -5 -5 -5 -5 -5 -5 -1 19 80 108 43 5 -3 -1 20 87 89 21 -1 -5 -5 -5 -5 -5 -5 -5 -5 -5 -5 -5 -5 -5 -5 -5 -5 -5 -5 -5 -5 -5 -5 -5 -5 -5 -5 -5 -5 -5 -5 -2 15 73 109 43 5 -4 -5 -5 -5 -5 -5 -5 -5 -2 14 72 109 42 4 -4 -5 -5 -1 20 89 
128 55 12 -1 -5 -5 -5 -5 -5 -5 -5 -5 -5 -5 -5 -5 -5 -5 -5 -5 -5 0 21 80 109 51 10 -2 -5 -5 -5 -5 -5 -5 -5 -5 -5 -5 -5 -5 -4 5 43 108 80 19 -1 -4 -1 18 84 94 25 0 -5 -5 -5 -5 -5 -5 -5 -5 -5 -5 -5 -5 -5 -5 -5 -5 -5 -5 -5 -5 -5 -5 -5 -5 -5 -5 -5 -5 -5 -5 0 24 91 91 24 0 -5 -5 -5 -5 -5 -5 -5 -5 -1 19 85 94 25 0 -5 -5 -5 -1 20 93 
154 111 48 11 -2 -5 -5 -5 -5 -5 -5 -5 -5 -5 -5 -5 -5 -5 -5 -5 -2 10 51 109 80 21 0 -5 -5 -5 -5 -5 -5 -5 -5 -5 -5 -5 -5 -5 0 21 81 108 42 5 -4 -5 -2 14 72 109 42 4 -4 -5 -5 -5 -5 -5 -5 -5 -5 -5 -5 -5 -5 -5 -5 -5 -5 -5 -5 -5 -5 -5 -5 -5 -5 -5 -5 -5 -5 -4 5 43 109 73 15 -2 -5 -5 -5 -5 -5 -5 -5 -5 0 25 94 85 19 -1 -5 -5 -5 -1 20 95 
128 121 104 47 9 -2 -5 -5 -5 -5 -5 -5 -5 -5 -5 -5 -5 -5 -5 -4 4 38 101 101 38 4 -4 -5 -5 -5 -5 -5 -5 -5 -5 -5 -5 -5 -5 -2 10 51 109 79 19 -1 -5 -5 -4 4 42 109 72 14 -2 -5 -5 -5 -5 -5 -5 -5 -5 -5 -5 -5 -5 -5 -5 -5 -5 -5 -5 -5 -5 -5 -5 -5 -5 -5 -5 -5 -5 -1 19 80 107 41 4 -4 -5 -5 -5 -5 -5 -5 -5 -4 4 42 109 72 14 -2 -5 -5 -5 -1 20 91 
101 72 106 101 38 4 -4 -5 -5 -5 -5 -5 -5 -5 -5 -5 -5 -5 -5 0 21 80 109 51 10 -2 -5 -5 -5 -5 -5 -5 -5 -5 -5 -5 -5 -5 -4 4 38 101 101 38 4 -4 -5 -5 -5 0 25 94 84 18 -1 -5 -5 -5 -5 -5 -5 -5 -5 -5 -5 -5 -5 -5 -5 -5 -5 -5 -5 -5 -5 -5 -5 -5 -5 -5 -5 -5 -4 4 41 107 80 19 -1 -5 -5 -5 -5 -5 -5 -5 -5 -2 14 72 109 42 4 -4 -5 -5 -5 -1 20 89 
91 37 56 109 80 21 0 -4 -5 -5 -5 -5 -5 -5 -5 -5 -5 -5 -2 10 51 109 80 21 0 -5 -5 -5 -5 -5 -5 -5 -5 -5 -5 -5 -5 -5 -1 19 79 109 51 10 -2 -5 -5 -5 -5 -1 21 89 87 20 -1 -5 -5 -5 -5 -5 -5 -5 -5 -5 -5 -5 -5 -5 -5 -5 -5 -5 -5 -5 -5 -5 -5 -5 -5 -5 -5 -5 -2 15 73 109 43 5 -4 -5 -5 -5 -5 -5 -5 -5 -5 -1 19 85 94 25 0 -5 -5 -5 -5 -1 20 88 
89 25 25 80 109 52 11 -1 -5 -5 -5 -5 -5 -5 -5 -5 -5 -4 4 38 101 101 38 4 -4 -5 -5 -5 -5 -5 -5 -5 -5 -5 -5 -5 -5 -4 5 42 108 81 21 0 -5 -5 -5 -5 -5 -1 20 88 88 20 -1 -5 -5 -5 -5 -5 -5 -5 -5 -5 -5 -5 -5 -5 -5 -5 -5 -5 -5 -5 -5 -5 -5 -5 -5 -5 -5 -5 0 24 91 91 24 0 -5 -5 -5 -5 -5 -5 -5 -5 -5 0 25 94 85 19 -1 -5 -5 -5 -5 -1 20 88 
88 21 8 38 100 103 48 11 -1 -5 -5 -5 -5 -5 -5 -5 -5 0 21 80 109 51 10 -2 -5 -5 -5 -5 -5 -5 -5 -5 -5 -5 -5 -5 -5 -1 19 80 108 43 5 -4 -5 -5 -5 -5 -5 -1 20 87 89 21 -1 -5 -5 -5 -5 -5 -5 -5 -5 -5 -5 -5 -5 -5 -5 -5 -5 -5 -5 -5 -5 -5 -5 -5 -5 -5 -5 -4 5 43 109 73 15 -2 -5 -5 -5 -5 -5 -5 -5 -5 -4 4 42 109 72 14 -2 -5 -5 -5 -5 -1 20 88 
88 20 1 9 47 102 103 48 11 -1 -5 -5 -5 -5 -5 -5 -2 10 51 109 80 21 0 -5 -5 -5 -5 -5 -5 -5 -5 -5 -5 -5 -5 -5 -4 5 43 108 80 19 -1 -5 -5 -5 -5 -5 -5 -1 18 84 94 25 0 -5 -5 -5 -5 -5 -5 -5 -5 -5 -5 -5 -5 -5 -5 -5 -5 -5 -5 -5 -5 -5 -5 -5 -5 -5 -5 -1 19 80 107 41 4 -4 -5 -5 -5 -5 -5 -5 -5 -5 -2 14 72 109 42 4 -4 -5 -5 -5 -5 -1 20 88 
88 20 0 -1 11 48 103 103 48 11 -1 -5 -5 -5 -5 -4 4 38 101 101 38 4 -4 -5 -5 -5 -5 -5 -5 -5 -5 -5 -5 -5 -5 -5 0 21 81 108 42 5 -4 -5 -5 -5 -5 -5 -5 -2 14 72 109 42 4 -4 -5 -5 -5 -5 -5 -5 -5 -5 -5 -5 -5 -5 -5 -5 -5 -5 -5 -5 -5 -5 -5 -5 -5 -5 -4 4 41 107 80 19 -1 -5 -5 -5 -5 -5 -5 -5 -5 -5 -1 19 85 94 25 0 -5 -5 -5 -5 -5 -1 20 88 
88 20 -1 -4 -1 11 48 103 103 48 11 -1 -5 -5 -5 0 21 80 109 51 10 -2 -5 -5 -5 -5 -5 -5 -5 -5 -5 -5 -5 -5 -5 -2 10 51 109 79 19 -1 -5 -5 -5 -5 -5 -5 -5 -4 4 42 109 72 14 -2 -5 -5 -5 -5 -5 -5 -5 -5 -5 -5 -5 -5 -5 -5 -5 -5 -5 -5 -5 -5 -5 -5 -5 -5 -2 15 73 109 43 5 -4 -5 -5 -5 -5 -5 -5 -5 -5 -5 0 25 94 85 19 -1 -5 -5 -5 -5 -5 -1 20 88 
88 20 -1 -5 -5 -1 11 48 103 103 48 11 -1 -4 -2 10 51 109 80 21 0 -5 -5 -5 -5 -5 -5 -5 -5 -5 -5 -5 -5 -5 -4 4 38 101 101 38 4 -4 -5 -5 -5 -5 -5 -5 -5 -5 0 25 94 84 18 -1 -5 -5 -5 -5 -5 -5 -5 -5 -5 -5 -5 -5 -5 -5 -5 -5 -5 -5 -5 -5 -5 -5 -5 -5 0 24 91 91 24 0 -5 -5 -5 -5 -5 -5 -5 -5 -5 -4 4 42 109 72 14 -2 -5 -5 -5 -5 -5 -1 20 88 
88 20 -1 -5 -5 -5 -1 11 48 103 103 48 11 0 5 38 101 101 38 4 -4 -5 -5 -5 -5 -5 -5 -5 -5 -5 -5 -5 -5 -5 -1 19 79 109 51 10 -2 -5 -5 -5 -5 -5 -5 -5 -5 -5 -1 21 89 87 20 -1 -5 -5 -5 -5 -5 -5 -5 -5 -5 -5 -5 -5 -5 -5 -5 -5 -5 -5 -5 -5 -5 -5 -5 -4 5 43 109 73 15 -2 -5 -5 -5 -5 -5 -5 -5 -5 -5 -2 14 72 109 42 4 -4 -5 -5 -5 -5 -5 -1 20 88 
88 20 -1 -5 -5 -5 -5 -1 11 48 103 103 48 16 25 80 109 51 10 -2 -5 -5 -5 -5 -5 -5 -5 -5 -5 -5 -5 -5 -5 -4 5 42 108 81 21 0 -5 -5 -5 -5 -5 -5 -5 -5 -5 -5 -1 20 87 89 21 -1 -5 -5 -5 -5 -5 -5 -5 -5 -5 -5 -5 -5 -5 -5 -5 -5 -5 -5 -5 -5 -5 -5 -5 -1 19 80 107 41 4 -4 -5 -5 -5 -5 -5 -5 -5 -5 -5 -1 19 85 94 25 0 -5 -5 -5 -5 -5 -5 -1 20 88 
88 20 -1 -5 -5 -5 -5 -5 -1 11 48 103 105 62 65 111 80 21 0 -5 -5 -5 -5 -5 -5 -5 -5 -5 -5 -5 -5 -5 -5 -1 19 80 108 43 5 -4 -5 -5 -5 -5 -5 -5 -5 -5 -5 -5 -1 18 84 94 25 0 -5 -5 -5 -5 -5 -5 -5 -5 -5 -5 -5 -5 -5 -5 -5 -5 -5 -5 -5 -5 -5 -5 -4 4 41 107 80 19 -1 -5 -5 -5 -5 -5 -5 -5 -5 -5 -5 0 25 94 85 19 -1 -5 -5 -5 -5 -5 -5 -1 20 88 
88 20 -1 -5 -5 -5 -5 -5 -5 -1 11 48 106 130 130 104 38 4 -4 -5 -5 -5 -5 -5 -5 -5 -5 -5 -5 -5 -5 -5 -4 5 43 108 80 19 -1 -5 -5 -5 -5 -5 -5 -5 -5 -5 -5 -5 -2 14 72 109 42 4 -4 -5 -5 -5 -5 -5 -5 -5 -5 -5 -5 -5 -5 -5 -5 -5 -5 -5 -5 -5 -5 -5 -2 15 73 109 43 5 -4 -5 -5 -5 -5 -5 -5 -5 -5 -5 -4 4 42 109 72 14 -2 -5 -5 -5 -5 -5 -5 -1 20 88 
88 20 -1 -5 -5 -5 -5 -5 -5 -5 -1 12 55 130 130 54 10 -2 -5 -5 -5 -5 -5 -5 -5 -5 -5 -5 -5 -5 -5 -5 0 21 81 108 42 5 -4 -5 -5 -5 -5 -5 -5 -5 -5 -5 -5 -5 -4 4 42 109 72 14 -2 -5 -5 -5 -5 -5 -5 -5 -5 -5 -5 -5 -5 -5 -5 -5 -5 -5 -5 -5 -5 -5 0 24 91 91 24 0 -5 -5 -5 -5 -5 -5 -5 -5 -5 -5 -2 14 72 109 42 4 -4 -5 -5 -5 -5 -5 -5 -1 20 88 
88 20 -1 -5 -5 -5 -5 -5 -5 -5 -4 0 27 99 101 28 0 -4 -5 -5 -5 -5 -5 -5 -5 -5 -5 -5 -5 -5 -5 -2 10 51 109 79 19 -1 -5 -5 -5 -5 -5 -5 -5 -5 -5 -5 -5 -5 -5 0 25 94 84 18 -1 -5 -5 -5 -5 -5 -5 -5 -5 -5 -5 -5 -5 -5 -5 -5 -5 -5 -5 -5 -5 -4 5 43 109 73 15 -2 -5 -5 -5 -5 -5 -5 -5 -5 -5 -5 -1 19 85 94 25 0 -5 -5 -5 -5 -5 -5 -5 -1 20 88 
88 20 -1 -5 -5 -5 -5 -5 -5 -5 -5 -1 20 86 96 26 0 -5 -5 -5 -5 -5 -5 -5 -5 -5 -5 -5 -5 -5 -4 4 38 101 101 38 4 -4 -5 -5 -5 -5 -5 -5 -5 -5 -5 -5 -5 -5 -5 -1 21 89 87 20 -1 -5 -5 -5 -5 -5 -5 -5 -5 -5 -5 -5 -5 -5 -5 -5 -5 -5 -5 -5 -5 -1 19 80 107 41 4 -4 -5 -5 -5 -5 -5 -5 -5 -5 -5 -5 0 25 94 85 19 -1 -5 -5 -5 -5 -5 -5 -5 -1 20 88 
88 20 -1 -5 -5 -5 -5 -5 -5 -5 -5 -2 14 72 109 42 4 -4 -5 -5 -5 -5 -5 -5 -5 -5 -5 -5 -5 -5 -1 19 79 109 51 10 -2 -5 -5 -5 -5 -5 -5 -5 -5 -5 -5 -5 -5 -5 -5 -1 20 88 88 20 -1 -5 -5 -5 -5 -5 -5 -5 -5 -5 -5 -5 -5 -5 -5 -5 -5 -5 -5 -5 -4 4 41 107 80 19 -1 -5 -5 -5 -5 -5 -5 -5 -5 -5 -5 -4 4 42 109 72 14 -2 -5 -5 -5 -5 -5 -5 -5 -1 20 88 
88 20 -1 -5 -5 -5 -5 -5 -5 -5 -5 -4 4 42 109 72 14 -2 -5 -5 -5 -5 -5 -5 -5 -5 -5 -5 -5 -4 5 42 108 81 21 0 -5 -5 -5 -5 -5 -5 -5 -5 -5 -5 -5 -5 -5 -5 -5 -1 20 87 89 21 -1 -5 -5 -5 -5 -5 -5 -5 -5 -5 -5 -5 -5 -5 -5 -5 -5 -5 -5 -5 -2 15 73 109 43 5 -4 -5 -5 -5 -5 -5 -5 -5 -5 -5 -5 -2 14 72 109 42 4 -4 -5 -5 -5 -5 -5 -5 -5 -1 20 88 
88 20 -1 -5 -5 -5 -5 -5 -5 -5 -5 -5 0 25 94 84 18 -1 -5 -5 -5 -5 -5 -5 -5 -5 -5 -5 -5 -1 19 80 108 43 5 -4 -5 -5 -5 -5 -5 -5 -5 -5 -5 -5 -5 -5 -5 -5 -5 -1 18 84 94 25 0 -5 -5 -5 -5 -5 -5 -5 -5 -5 -5 -5 -5 -5 -5 -5 -5 -5 -5 -5 0 24 91 91 24 0 -5 -5 -5 -5 -5 -5 -5 -5 -5 -5 -5 -1 19 85 94 25 0 -5 -5 -5 -5 -5 -5 -5 -5 -1 20 88 
88 20 -1 -5 -5 -5 -5 -5 -5 -5 -5 -5 -1 20 88 88 20 -1 -5 -5 -5 -5 -5 -5 -5 -5 -5 -5 -4 5 43 108 80 19 -1 -5 -5 -5 -5 -5 -5 -5 -5 -5 -5 -5 -5 -5 -5 -5 -5 -2 14 72 109 42 4 -4 -5 -5 -5 -5 -5 -5 -5 -5 -5 -5 -5 -5 -5 -5 -5 -5 -5 -4 5 43 109 73 15 -2 -5 -5 -5 -5 -5 -5 -5 -5 -5 -5 -5 0 25 94 85 19 -1 -5 -5 -5 -5 -5 -5 -5 -5 -1 21 89 
89 20 -1 -5 -5 -5 -5 -5 -5 -5 -5 -5 -1 18 84 94 25 0 -5 -5 -5 -5 -5 -5 -5 -5 -5 -5 0 21 81 108 42 5 -4 -5 -5 -5 -5 -5 -5 -5 -5 -5 -5 -5 -5 -5 -5 -5 -5 -4 4 42 109 72 14 -2 -5 -5 -5 -5 -5 -5 -5 -5 -5 -5 -5 -5 -5 -5 -5 -5 -5 -1 19 80 107 41 4 -4 -5 -5 -5 -5 -5 -5 -5 -5 -5 -5 -4 4 42 109 72 14 -2 -5 -5 -5 -5 -5 -5 -5 -5 0 26 97 
92 20 -1 -5 -5 -5 -5 -5 -5 -5 -5 -5 -2 14 72 109 42 4 -4 -5 -5 -5 -5 -5 -5 -5 -5 -2 10 51 109 79 19 -1 -5 -5 -5 -5 -5 -5 -5 -5 -5 -5 -5 -5 -5 -5 -5 -5 -5 -5 0 25 94 84 18 -1 -5 -5 -5 -5 -5 -5 -5 -5 -5 -5 -5 -5 -5 -5 -5 -5 -4 4 41 107 80 19 -1 -5 -5 -5 -5 -5 -5 -5 -5 -5 -5 -5 -2 14 72 109 42 4 -4 -5 -5 -5 -5 -5 -5 -5 -4 5 45 124 
95 20 -1 -5 -5 -5 -5 -5 -5 -5 -5 -5 -4 4 42 109 72 14 -2 -5 -5 -5 -5 -5 -5 -5 -4 4 38 101 101 38 4 -4 -5 -5 -5 -5 -5 -5 -5 -5 -5 -5 -5 -5 -5 -5 -5 -5 -5 -5 -1 21 89 87 20 -1 -5 -5 -5 -5 -5 -5 -5 -5 -5 -5 -5 -5 -5 -5 -5 -5 -2 15 73 109 43 5 -4 -5 -5 -5 -5 -5 -5 -5 -5 -5 -5 -5 -1 19 85 94 25 0 -5 -5 -5 -5 -5 -5 -5 -5 0 21 85 154 
93 20 -1 -5 -5 -5 -5 -5 -5 -5 -5 -5 -5 0 25 94 84 18 -1 -5 -5 -5 -5 -5 -5 -5 -1 19 79 109 51 10 -2 -5 -5 -5 -5 -5 -5 -5 -5 -5 -5 -5 -5 -5 -5 -5 -5 -5 -5 -5 -1 20 88 88 20 -1 -5 -5 -5 -5 -5 -5 -5 -5 -5 -5 -5 -5 -5 -5 -5 -5 0 24 91 91 24 0 -5 -5 -5 -5 -5 -5 -5 -5 -5 -5 -5 -5 0 25 94 85 19 -1 -5 -5 -5 -5 -5 -5 -5 -2 10 51 119 147 
90 20 -1 -5 -5 -5 -5 -5 -5 -5 -5 -5 -5 -1 20 88 88 20 -1 -5 -5 -5 -5 -5 -5 -4 5 42 108 81 21 0 -5 -5 -5 -5 -5 -5 -5 -5 -5 -5 -5 -5 -5 -5 -5 -5 -5 -5 -5 -5 -1 20 87 89 21 -1 -5 -5 -5 -5 -5 -5 -5 -5 -5 -5 -5 -5 -5 -5 -5 -4 5 43 109 73 15 -2 -5 -5 -5 -5 -5 -5 -5 -5 -5 -5 -5 -4 4 42 109 72 14 -2 -5 -5 -5 -5 -5 -5 -4 4 38 102 120 122 
88 20 -1 -5 -5 -5 -5 -5 -5 -5 -5 -5 -5 -1 18 84 94 25 0 -5 -5 -5 -5 -5 -5 -1 19 80 108 43 5 -4 -5 -5 -5 -5 -5 -5 -5 -5 -5 -5 -5 -5 -5 -5 -5 -5 -5 -5 -5 -5 -1 18 84 94 25 0 -5 -5 -5 -5 -5 -5 -5 -5 -5 -5 -5 -5 -5 -5 -5 -1 19 80 107 41 4 -4 -5 -5 -5 -5 -5 -5 -5 -5 -5 -5 -5 -2 14 72 109 42 4 -4 -5 -5 -5 -5 -5 -5 0 21 80 112 75 100 
88 20 -1 -5 -5 -5 -5 -5 -5 -5 -5 -5 -5 -2 14 72 109 42 4 -4 -5 -5 -5 -5 -4 5 43 108 80 19 -1 -5 -5 -5 -5 -5 -5 -5 -5 -5 -5 -5 -5 -5 -5 -5 -5 -5 -5 -5 -5 -5 -2 14 72 109 42 4 -4 -5 -5 -5 -5 -5 -5 -5 -5 -5 -5 -5 -5 -5 -4 4 41 107 80 19 -1 -5 -5 -5 -5 -5 -5 -5 -5 -5 -5 -5 -5 -1 19 85 94 25 0 -5 -5 -5 -5 -5 -5 -2 10 51 109 83 46 92 
88 20 -1 -5 -5 -5 -5 -5 -5 -5 -5 -5 -5 -4 4 42 109 72 14 -2 -5 -5 -5 -5 0 21 81 108 42 5 -4 -5 -5 -5 -5 -5 -5 -5 -5 -5 -5 -5 -5 -5 -5 -5 -5 -5 -5 -5 -5 -5 -4 4 42 109 72 14 -2 -4 -5 -5 -5 -5 -5 -5 -5 -5 -5 -5 -5 -5 -2 15 73 109 43 5 -4 -5 -5 -5 -5 -5 -5 -5 -5 -5 -5 -5 -5 0 25 94 85 19 -1 -5 -5 -5 -5 -5 -4 4 38 101 101 42 30 89 
88 20 -1 -5 -5 -5 -5 -5 -5 -5 -5 -5 -5 -5 0 25 94 84 18 -1 -5 -5 -5 -2 10 51 109 79 19 -1 -5 -5 -5 -5 -5 -5 -5 -5 -5 -5 -5 -5 -5 -5 -5 -5 -5 -5 -5 -5 -5 -5 -4 0 26 96 87 22 2 -1 -1 -2 -4 -5 -5 -5 -5 -5 -5 -5 -5 -5 0 24 91 91 24 0 -5 -5 -5 -5 -5 -5 -5 -5 -5 -5 -5 -5 -4 4 42 109 72 14 -2 -5 -5 -5 -5 -5 0 21 80 109 52 14 23 88 
88 20 -1 -5 -5 -5 -5 -5 -5 -5 -5 -5 -5 -5 -1 20 88 88 20 -1 -5 -5 -4 4 38 101 101 38 4 -4 -5 -5 -5 -5 -5 -5 -5 -5 -5 -5 -5 -5 -5 -5 -5 -5 -5 -5 -5 -5 -5 -5 -3 3 29 101 104 44 24 20 18 14 4 0 -1 -1 -1 -1 -2 -4 -4 -3 5 44 109 73 15 -2 -5 -5 -5 -5 -5 -5 -5 -5 -5 -5 -5 -5 -2 14 72 109 42 4 -4 -5 -5 -5 -5 -2 10 51 109 80 21 3 21 88 
88 20 -1 -5 -5 -5 -5 -5 -5 -5 -5 -5 -5 -5 -1 18 84 94 25 0 -5 -5 -1 19 79 109 51 10 -2 -5 -5 -5 -5 -5 -5 -5 -5 -5 -5 -5 -5 -5 -5 -5 -5 -5 -5 -5 -5 -5 -5 -2 4 22 59 131 141 103 90 87 84 72 42 25 21 20 20 18 14 4 0 3 22 81 108 41 4 -4 -5 -5 -5 -5 -5 -5 -5 -5 -5 -5 -5 -5 -1 19 85 94 25 0 -5 -5 -5 -5 -4 4 38 101 101 38 5 0 20 88 
88 20 -1 -5 -5 -5 -5 -5 -5 -5 -5 -5 -5 -5 -2 14 72 109 42 4 -4 -3 5 42 108 81 21 0 -5 -5 -5 -5 -5 -5 -5 -5 -5 -5 -5 -5 -5 -5 -5 -5 -5 -5 -5 -5 -5 -4 0 10 38 80 112 121 103 91 88 89 94 109 109 94 89 88 87 84 72 42 26 29 59 113 81 19 -1 -5 -5 -5 -5 -5 -5 -5 -5 -5 -5 -5 -5 -5 0 25 94 85 19 -1 -5 -5 -5 -5 0 21 80 109 51 10 -2 -1 20 88 
88 20 -1 -5 -5 -5 -5 -5 -5 -5 -5 -5 -5 -5 -4 4 42 109 72 14 -1 0 19 80 108 43 5 -4 -5 -5 -5 -5 -5 -5 -5 -5 -5 -5 -5 -5 -5 -5 -5 -5 -5 -5 -5 -5 -2 4 21 51 101 109 81 44 26 21 20 21 25 42 72 84 87 88 89 94 109 109 96 101 131 128 50 6 -3 -5 -5 -5 -5 -5 -5 -5 -5 -5 -5 -5 -5 -4 4 42 109 72 14 -2 -5 -5 -5 -2 10 51 109 80 21 0 -4 -1 20 88 
88 20 -1 -5 -5 -5 -5 -5 -5 -5 -5 -5 -5 -5 -5 0 25 94 84 19 0 5 43 108 80 19 -1 -5 -5 -5 -5 -5 -5 -5 -5 -5 -5 -5 -5 -5 -5 -5 -5 -5 -5 -5 -4 0 10 38 80 109 101 51 21 5 0 -1 -1 -1 0 4 14 18 20 20 21 25 42 72 86 99 131 128 50 7 -3 -5 -5 -5 -5 -5 -5 -5 -5 -5 -5 -5 -5 -2 14 72 109 42 4 -4 -5 -5 -4 4 38 101 101 38 4 -4 -5 -1 20 88 
88 20 -1 -5 -5 -5 -5 -5 -5 -5 -5 -5 -5 -5 -5 -1 20 88 88 21 4 22 81 108 42 5 -4 -5 -5 -5 -5 -5 -5 -5 -5 -5 -5 -5 -5 -5 -5 -5 -5 -5 -5 -2 4 21 51 101 109 80 38 10 0 -4 -5 -5 -5 -5 -5 -4 -2 -1 -1 -1 -1 0 4 14 20 28 59 113 82 21 0 -4 -5 -5 -5 -5 -5 -5 -5 -5 -5 -5 -5 -1 19 85 94 25 0 -5 -5 -5 0 21 80 109 51 10 -2 -5 -5 -1 20 88 
88 20 -1 -5 -5 -5 -5 -5 -5 -5 -5 -5 -5 -5 -5 -1 18 84 94 28 15 52 109 79 19 -1 -5 -5 -5 -5 -5 -5 -5 -5 -5 -5 -5 -5 -5 -5 -5 -5 -5 -4 -2 9 38 80 109 101 51 21 4 -2 -5 -5 -5 -5 -5 -5 -5 -5 -5 -5 -5 -5 -5 -5 -4 -2 -1 2 22 80 109 52 12 0 -3 -5 -5 -5 -5 -5 -5 -5 -5 -5 -4 0 25 94 86 19 -1 -5 -5 -2 10 51 109 80 21 0 -5 -5 -5 -1 20 88 
88 20 -1 -5 -5 -5 -5 -5 -5 -5 -5 -5 -5 -5 -5 -2 14 72 110 51 48 102 101 38 4 -4 -5 -5 -5 -5 -5 -5 -5 -5 -5 -5 -5 -5 -5 -5 -5 -5 -4 0 11 47 100 109 80 38 10 0 -4 -5 -5 -5 -5 -5 -5 -5 -5 -5 -5 -5 -5 -5 -5 -5 -5 -5 -5 -3 4 38 102 106 53 21 5 0 -1 -1 -1 -1 -1 -1 -1 -1 0 8 45 111 73 14 -2 -5 -4 4 38 101 101 38 4 -4 -5 -5 -5 -1 20 88 
88 20 -1 -5 -5 -5 -5 -5 -5 -5 -5 -5 -5 -5 -5 -4 4 42 111 94 96 110 51 10 -2 -5 -5 -5 -5 -5 -5 -5 -5 -5 -5 -5 -5 -5 -5 -5 -5 -2 4 21 52 103 103 52 21 4 -2 -5 -5 -5 -5 -5 -5 -5 -5 -5 -5 -5 -5 -5 -5 -5 -5 -5 -5 -5 -5 -5 -2 10 53 122 127 84 44 25 21 20 20 20 20 20 20 20 23 38 90 121 50 8 -2 -4 0 21 80 109 51 10 -2 -5 -5 -5 -5 -1 20 88 
88 20 -1 -5 -5 -5 -5 -5 -5 -5 -5 -5 -5 -5 -5 -5 0 25 97 122 124 81 21 0 -5 -5 -5 -5 -5 -5 -5 -5 -5 -5 -5 -5 -5 -5 -5 -4 0 10 38 80 109 100 47 11 0 -4 -5 -5 -5 -5 -5 -5 -5 -5 -5 -5 -5 -5 -5 -5 -5 -5 -5 -5 -5 -5 -5 -5 -4 0 28 105 145 124 111 94 89 88 88 88 88 88 88 88 90 102 139 136 64 24 6 1 11 51 109 80 21 0 -5 -5 -5 -5 -5 -1 20 88 
88 20 -1 -5 -5 -5 -5 -5 -5 -5 -5 -5 -5 -5 -5 -5 -1 21 94 147 117 43 5 -4 -5 -5 -5 -5 -5 -5 -5 -5 -5 -5 -5 -5 -5 -5 -2 4 21 51 101 109 80 38 9 -2 -4 -5 -5 -5 -5 -5 -5 -5 -5 -5 -5 -5 -5 -5 -5 -5 -5 -5 -5 -5 -5 -5 -5 -5 -5 0 26 98 104 64 75 85 87 88 88 88 88 88 88 88 88 91 103 121 113 81 44 28 46 103 101 38 4 -4 -5 -5 -5 -5 -5 -1 20 88 
88 20 -1 -5 -5 -5 -5 -5 -5 -5 -5 -5 -5 -5 -5 -5 -1 20 95 154 84 19 -1 -5 -5 -5 -5 -5 -5 -5 -5 -5 -5 -5 -5 -5 -4 0 10 38 80 109 101 51 21 4 -2 -5 -5 -5 -5 -5 -5 -5 -5 -5 -5 -5 -5 -5 -5 -5 -5 -5 -5 -5 -5 -5 -5 -5 -5 -5 -4 4 42 110 76 24 17 19 20 20 20 20 20 20 20 20 20 21 26 44 81 108 110 96 108 117 54 10 -2 -5 -5 -5 -5 -5 -5 -1 20 88 
88 20 -1 -5 -5 -5 -5 -5 -5 -5 -5 -5 -5 -5 -5 -5 -1 20 92 124 45 5 -4 -5 -5 -5 -5 -5 -5 -5 -5 -5 -5 -5 -4 -2 4 21 51 101 109 80 39 10 0 -4 -5 -5 -5 -5 -5 -5 -5 -5 -5 -5 -5 -5 -5 -5 -5 -5 -5 -5 -5 -5 -5 -5 -5 -5 -5 -5 -2 14 72 109 42 5 -1 -1 -1 -1 -1 -1 -1 -1 -1 -1 -1 -1 0 5 19 43 81 118 152 112 35 3 -4 -5 -5 -5 -5 -5 -5 -1 20 88 
88 20 -1 -5 -5 -5 -5 -5 -5 -5 -5 -5 -5 -5 -5 -5 -1 20 89 97 26 0 -5 -5 -5 -5 -5 -5 -5 -5 -5 -5 -4 -2 0 10 39 83 116 109 56 25 8 0 -3 -4 -5 -5 -5 -5 -5 -5 -5 -5 -5 -5 -5 -5 -5 -5 -5 -5 -5 -5 -5 -5 -5 -5 -5 -5 -5 -5 -1 18 84 94 25 0 -4 -5 -5 -5 -5 -5 -5 -5 -5 -5 -5 -5 -5 -4 -1 5 21 53 116 122 54 10 -2 -5 -5 -5 -5 -5 -5 -1 20 88 
88 20 -1 -5 -5 -5 -5 -5 -5 -5 -5 -5 -5 -5 -5 -5 -1 21 89 89 20 -1 -5 -5 -5 -5 -5 -5 -5 -5 -4 -1 4 15 26 53 112 152 139 83 41 26 20 14 4 0 -1 -2 -4 -5 -5 -5 -5 -5 -5 -5 -5 -5 -5 -5 -5 -5 -5 -5 -5 -5 -5 -5 -5 -5 -5 -5 -1 20 87 89 21 -1 -5 -5 -5 -5 -5 -5 -5 -5 -5 -5 -5 -5 -5 -5 -5 -4 0 11 49 105 102 38 4 -4 -5 -5 -5 -5 -5 -1 20 88 
88 20 -1 -5 -5 -5 -5 -5 -5 -5 -5 -5 -5 -5 -5 -5 0 25 94 84 18 -1 -5 -5 -5 -5 -5 -5 -4 -1 5 19 41 73 92 113 119 111 120 116 97 89 85 72 42 25 19 14 4 0 -1 -1 -2 -4 -5 -5 -5 -5 -5 -5 -5 -5 -5 -5 -5 -5 -5 -5 -5 -5 -5 -5 -1 21 89 87 20 -1 -5 -5 -5 -5 -5 -5 -5 -5 -5 -5 -5 -5 -5 -5 -5 -5 -4 -1 11 52 109 80 21 0 -5 -5 -5 -5 -5 -1 20 88 
88 20 -1 -5 -5 -5 -5 -5 -5 -5 -5 -5 -5 -5 -5 -4 4 42 109 72 14 -2 -5 -5 -5 -4 -2 0 5 19 42 80 107 109 91 74 43 31 43 72 84 88 94 109 109 94 85 72 42 25 20 18 14 4 0 -1 -2 -4 -5 -5 -5 -5 -5 -5 -5 -5 -5 -5 -5 -5 -5 -5 0 25 94 84 18 -1 -5 -5 -5 -5 -5 -5 -5 -5 -5 -5 -5 -5 -5 -5 -5 -5 -5 -4 0 21 80 109 51 10 -2 -5 -5 -5 -5 -1 20 88 
88 20 -1 -5 -5 -5 -5 -5 -5 -5 -5 -5 -5 -5 -5 -2 14 72 109 42 4 -4 -5 -4 -1 4 15 24 43 80 108 108 80 43 24 15 4 1 4 14 18 20 25 42 72 85 94 109 109 94 88 84 72 42 25 19 14 4 0 -1 -1 -2 -4 -5 -5 -5 -5 -5 -5 -5 -5 -4 4 42 109 72 14 -2 -5 -5 -5 -5 -5 -5 -5 -5 -5 -5 -5 -5 -5 -5 -5 -5 -5 -5 -4 4 38 101 101 38 4 -4 -5 -5 -5 -1 20 88 
88 20 -1 -5 -5 -5 -5 -5 -5 -5 -5 -5 -5 -5 -5 -1 18 84 94 25 0 -3 -1 5 19 41 73 91 109 107 80 42 19 5 0 -2 -4 -4 -4 -2 -1 -1 0 4 14 19 25 42 72 84 88 94 109 109 94 85 72 42 25 20 18 14 4 0 -1 -2 -4 -5 -5 -5 -5 -2 14 72 109 42 4 -4 -5 -5 -5 -5 -5 -5 -5 -5 -5 -5 -5 -5 -5 -5 -5 -5 -5 -5 -5 -2 10 51 109 80 21 0 -4 -5 -5 -1 20 88 
88 20 -1 -5 -5 -5 -5 -5 -5 -5 -5 -5 -5 -5 -5 -1 20 88 89 22 3 5 19 42 80 107 109 91 73 41 19 5 -1 -4 -5 -5 -5 -5 -5 -5 -5 -5 -5 -4 -2 -1 0 4 14 18 20 25 42 72 85 94 109 109 94 88 84 72 42 25 19 14 4 0 -1 -1 -2 0 19 85 94 25 0 -5 -5 -5 -5 -5 -5 -5 -5 -5 -5 -5 -5 -5 -5 -5 -5 -5 -5 -5 -5 -5 0 21 80 109 52 11 -2 -5 -5 -1 20 88 
88 20 -1 -5 -5 -5 -5 -5 -5 -5 -5 -5 -5 -5 -5 0 25 95 89 29 23 43 80 108 108 80 43 24 15 4 -1 -4 -5 -5 -5 -5 -5 -5 -5 -5 -5 -5 -5 -5 -5 -5 -5 -4 -2 -1 -1 0 4 14 19 25 42 72 84 88 94 109 109 94 85 72 42 25 20 19 14 8 25 90 89 21 -1 -5 -5 -5 -5 -5 -5 -5 -5 -5 -5 -5 -5 -5 -5 -5 -5 -5 -5 -5 -5 -5 -4 4 38 100 103 47 9 -2 -4 -1 20 88 
88 20 -1 -5 -5 -5 -5 -5 -5 -5 -5 -5 -5 -5 -4 5 44 117 98 62 83 108 108 80 42 19 5 0 -2 -4 -5 -5 -5 -5 -5 -5 -5 -5 -5 -5 -5 -5 -5 -5 -5 -5 -5 -5 -5 -5 -5 -5 -4 -2 -1 0 4 14 18 20 25 42 72 85 94 109 109 94 88 84 72 46 49 104 90 20 -1 -5 -5 -5 -5 -5 -5 -5 -5 -5 -5 -5 -5 -5 -5 -5 -5 -5 -5 -5 -5 -5 -5 -2 9 47 103 100 38 4 -3 -1 20 88 
88 20 -1 -5 -5 -5 -5 -5 -5 -5 -5 -5 -5 -5 -1 20 86 150 126 116 108 80 42 19 5 -1 -4 -5 -5 -5 -5 -5 -5 -5 -5 -5 -5 -5 -5 -5 -5 -5 -5 -5 -5 -5 -5 -5 -5 -5 -5 -5 -5 -5 -5 -5 -4 -2 -1 -1 0 4 14 19 25 42 72 84 88 94 109 112 111 142 94 20 -1 -5 -5 -5 -5 -5 -5 -5 -5 -5 -5 -5 -5 -5 -5 -5 -5 -5 -5 -5 -5 -5 -5 -5 -2 11 52 109 80 21 0 0 20 88 
88 20 -1 -5 -5 -5 -5 -5 -5 -5 -5 -5 -5 -4 5 43 116 129 98 74 41 19 5 -1 -4 -5 -5 -5 -5 -5 -5 -5 -5 -5 -5 -5 -5 -5 -5 -5 -5 -5 -5 -5 -5 -5 -5 -5 -5 -5 -5 -5 -5 -5 -5 -5 -5 -5 -5 -5 -5 -4 -2 -1 0 4 14 18 20 25 42 75 102 140 94 20 -1 -5 -5 -5 -5 -5 -5 -5 -5 -5 -5 -5 -5 -5 -5 -5 -5 -5 -5 -5 -5 -5 -5 -5 -4 0 21 80 109 52 12 2 20 88 
88 20 -1 -5 -5 -5 -5 -5 -5 -5 -5 -5 -5 0 21 81 112 58 27 15 4 -1 -4 -5 -5 -5 -5 -5 -5 -5 -5 -5 -5 -5 -5 -5 -5 -5 -5 -5 -5 -5 -5 -5 -5 -5 -5 -5 -5 -5 -5 -5 -5 -5 -5 -5 -5 -5 -5 -5 -5 -5 -5 -5 -5 -4 -2 -1 -1 0 4 18 42 103 89 20 -1 -5 -5 -5 -5 -5 -5 -5 -5 -5 -5 -5 -5 -5 -5 -5 -5 -5 -5 -5 -5 -5 -5 -5 -5 -4 4 38 100 103 48 13 23 88 
88 20 -1 -5 -5 -5 -5 -5 -5 -5 -5 -5 -2 10 51 109 80 22 2 -2 -4 -5 -5 -5 -5 -5 -5 -5 -5 -5 -5 -5 -5 -5 -5 -5 -5 -5 -5 -5 -5 -5 -5 -5 -5 -5 -5 -5 -5 -5 -5 -5 -5 -5 -5 -5 -5 -5 -5 -5 -5 -5 -5 -5 -5 -5 -5 -5 -5 -5 -3 1 24 90 88 20 -1 -5 -5 -5 -5 -5 -5 -5 -5 -5 -5 -5 -5 -5 -5 -5 -5 -5 -5 -5 -5 -5 -5 -5 -5 -5 -2 9 47 103 101 42 30 89 
88 20 -1 -5 -5 -5 -5 -5 -5 -5 -5 -4 4 38 101 101 38 4 -3 -5 -5 -5 -5 -5 -5 -5 -5 -5 -5 -5 -5 -5 -5 -5 -5 -5 -5 -5 -5 -5 -5 -5 -5 -5 -5 -5 -5 -5 -5 -5 -5 -5 -5 -5 -5 -5 -5 -5 -5 -5 -5 -5 -5 -5 -5 -5 -5 -5 -5 -5 -5 -1 20 88 88 20 -1 -5 -5 -5 -5 -5 -5 -5 -5 -5 -5 -5 -5 -5 -5 -5 -5 -5 -5 -5 -5 -5 -5 -5 -5 -5 -5 -2 11 52 109 83 46 92 
88 20 -1 -5 -5 -5 -5 -5 -5 -5 -4 0 21 80 109 51 10 -2 -5 -5 -5 -5 -5 -5 -5 -5 -5 -5 -5 -5 -5 -5 -5 -5 -5 -5 -5 -5 -5 -5 -5 -5 -5 -5 -5 -5 -5 -5 -5 -5 -5 -5 -5 -5 -5 -5 -5 -5 -5 -5 -5 -5 -5 -5 -5 -5 -5 -5 -5 -5 -5 -1 20 88 89 21 -1 -5 -5 -5 -5 -5 -5 -5 -5 -5 -5 -5 -5 -5 -5 -5 -5 -5 -5 -5 -5 -5 -5 -5 -5 -5 -5 -4 0 21 80 112 75 100 
90 20 -1 -5 -5 -5 -5 -5 -5 -5 -1 11 52 109 80 21 0 -4 -5 -5 -5 -5 -5 -5 -5 -5 -5 -5 -5 -5 -5 -5 -5 -5 -5 -5 -5 -5 -5 -5 -5 -5 -5 -5 -5 -5 -5 -5 -5 -5 -5 -5 -5 -5 -5 -5 -5 -5 -5 -5 -5 -5 -5 -5 -5 -5 -5 -5 -5 -5 -5 -1 20 87 96 27 1 -4 -5 -5 -5 -5 -5 -5 -5 -5 -5 -5 -5 -5 -5 -5 -5 -5 -5 -5 -5 -5 -5 -5 -5 -5 -5 -5 -4 4 38 102 120 122 
93 20 -1 -5 -5 -5 -5 -5 -5 -1 11 48 104 104 42 8 0 -4 -5 -5 -5 -5 -5 -5 -5 -5 -5 -5 -5 -5 -5 -5 -5 -5 -5 -5 -5 -5 -5 -5 -5 -5 -5 -5 -5 -5 -5 -5 -5 -5 -5 -5 -5 -5 -5 -5 -5 -5 -5 -5 -5 -5 -5 -5 -5 -5 -5 -5 -5 -5 -3 1 23 88 120 55 13 0 -3 -5 -5 -5 -5 -5 -5 -5 -5 -5 -5 -5 -5 -5 -5 -5 -5 -5 -5 -5 -5 -5 -5 -5 -5 -5 -5 -2 10 51 119 147 
95 20 -1 -5 -5 -5 -5 -5 -1 11 49 110 121 71 34 21 14 4 0 -1 -1 -1 -1 -1 -1 -1 -1 -1 -2 -4 -5 -5 -5 -5 -5 -5 -5 -5 -5 -5 -5 -5 -5 -5 -5 -5 -5 -5 -5 -5 -5 -5 -5 -5 -5 -5 -5 -5 -5 -5 -5 -5 -5 -5 -5 -5 -5 -5 -5 -2 4 20 49 107 152 117 53 21 5 -1 -4 -5 -5 -5 -5 -5 -5 -5 -5 -5 -5 -5 -5 -5 -5 -5 -5 -5 -5 -5 -5 -5 -5 -5 -5 -5 0 21 85 154 
92 20 -1 -5 -5 -5 -5 -1 11 48 115 154 128 101 90 85 72 42 25 21 20 20 20 20 20 20 20 18 14 4 0 -1 -1 -1 -1 -1 -1 -1 -1 -2 -4 -5 -5 -5 -5 -5 -5 -5 -5 -5 -5 -5 -5 -5 -5 -5 -5 -5 -5 -5 -5 -5 -5 -5 -5 -5 -5 -4 0 10 38 80 109 116 111 120 112 81 42 19 4 -2 -5 -5 -5 -5 -5 -5 -5 -5 -5 -5 -5 -5 -5 -5 -5 -5 -5 -5 -5 -5 -5 -5 -5 -5 -4 5 45 124 
89 20 -1 -5 -5 -5 -1 11 48 105 120 104 93 89 89 94 109 109 94 89 88 88 88 88 88 88 87 84 72 42 25 21 20 20 20 20 20 20 18 14 4 0 -1 -1 -1 -1 -1 -1 -1 -1 -1 -2 -4 -5 -5 -5 -5 -5 -5 -5 -5 -5 -5 -5 -5 -4 -1 5 21 51 101 109 81 45 31 45 81 108 108 79 38 10 0 -4 -5 -5 -5 -5 -5 -5 -5 -5 -5 -5 -5 -5 -5 -5 -5 -5 -5 -5 -5 -5 -5 -5 -5 0 26 97 
88 20 -1 -5 -4 -1 11 48 103 104 54 27 21 20 21 25 42 72 84 87 88 88 88 88 88 88 89 94 109 109 94 89 88 88 88 88 88 87 84 72 42 25 21 20 20 20 20 20 20 20 18 14 4 0 -1 -1 -1 -1 -1 -1 -1 -1 -2 -3 -2 4 19 42 81 109 101 51 21 5 1 5 19 43 81 109 101 51 21 5 -1 -4 -5 -5 -5 -5 -5 -5 -5 -5 -5 -5 -5 -5 -5 -5 -5 -5 -5 -5 -5 -5 -5 -1 21 89 
88 20 -1 -3 0 11 48 103 103 48 12 0 -1 -1 -1 0 4 14 18 20 20 20 20 20 20 20 21 25 42 72 84 87 88 88 88 88 88 89 94 109 109 94 89 88 88 88 88 88 88 87 84 72 42 25 21 20 20 20 20 20 20 18 14 6 11 38 79 108 108 79 38 10 0 -3 -4 -4 -1 5 21 51 101 109 81 42 19 4 -2 -5 -5 -5 -5 -5 -5 -5 -5 -5 -5 -5 -5 -5 -5 -5 -5 -5 -5 -5 -5 -1 20 88 
88 20 1 5 21 52 103 102 48 11 -1 -4 -5 -5 -5 -5 -4 -2 -1 -1 -1 -1 -1 -1 -1 -1 -1 0 4 14 18 20 20 20 20 20 20 21 25 42 72 84 87 88 88 88 88 88 88 89 94 109 109 94 89 88 88 88 88 88 87 84 73 50 58 102 109 81 42 19 4 -2 -5 -5 -5 -5 -5 -4 0 10 38 79 108 108 79 38 10 0 -4 -5 -5 -5 -5 -5 -5 -5 -5 -5 -5 -5 -5 -5 -5 -5 -5 -5 -5 -1 20 88 
88 23 13 38 80 109 100 47 11 -1 -5 -5 -5 -5 -5 -5 -5 -5 -5 -5 -5 -5 -5 -5 -5 -5 -5 -5 -4 -2 -1 -1 -1 -1 -1 -1 -1 -1 0 4 14 18 20 20 20 20 20 20 20 21 25 42 72 84 87 88 88 88 88 88 89 95 115 128 129 107 52 21 5 -1 -4 -5 -5 -5 -5 -5 -5 -5 -5 -2 4 19 42 81 109 101 51 21 5 -1 -4 -5 -5 -5 -5 -5 -5 -5 -5 -5 -5 -5 -5 -5 -5 -5 -5 -1 20 88 
91 36 51 101 109 80 38 9 -2 -5 -5 -5 -5 -5 -5 -5 -5 -5 -5 -5 -5 -5 -5 -5 -5 -5 -5 -5 -5 -5 -5 -5 -5 -5 -5 -5 -5 -5 -5 -4 -2 -1 -1 -1 -1 -1 -1 -1 -1 -1 0 4 14 18 20 20 20 20 20 20 21 28 60 131 130 55 13 0 -3 -5 -5 -5 -5 -5 -5 -5 -5 -5 -5 -5 -4 -1 5 21 51 101 109 81 42 19 4 -2 -5 -5 -5 -5 -5 -5 -5 -5 -5 -5 -5 -5 -5 -5 -5 -1 20 88 
101 71 106 103 52 21 4 -2 -5 -5 -5 -5 -5 -5 -5 -5 -5 -5 -5 -5 -5 -5 -5 -5 -5 -5 -5 -5 -5 -5 -5 -5 -5 -5 -5 -5 -5 -5 -5 -5 -5 -5 -5 -5 -5 -5 -5 -5 -5 -5 -5 -4 -2 -1 -1 -1 -1 -1 -1 -1 0 3 28 100 100 27 1 -4 -5 -5 -5 -5 -5 -5 -5 -5 -5 -5 -5 -5 -5 -5 -4 0 10 38 79 108 108 79 38 10 0 -4 -5 -5 -5 -5 -5 -5 -5 -5 -5 -5 -5 -5 -5 -1 20 89 
128 121 104 48 11 0 -4 -5 -5 -5 -5 -5 -5 -5 -5 -5 -5 -5 -5 -5 -5 -5 -5 -5 -5 -5 -5 -5 -5 -5 -5 -5 -5 -5 -5 -5 -5 -5 -5 -5 -5 -5 -5 -5 -5 -5 -5 -5 -5 -5 -5 -5 -5 -5 -5 -5 -5 -5 -5 -5 -4 0 21 90 90 21 -1 -5 -5 -5 -5 -5 -5 -5 -5 -5 -5 -5 -5 -5 -5 -5 -5 -5 -2 4 19 42 81 109 101 51 21 5 -1 -4 -5 -5 -5 -5 -5 -5 -5 -5 -5 -5 -5 -1 20 91 
154 111 48 11 -1 -4 -5 -5 -5 -5 -5 -5 -5 -5 -5 -5 -5 -5 -5 -5 -5 -5 -5 -5 -5 -5 -5 -5 -5 -5 -5 -5 -5 -5 -5 -5 -5 -5 -5 -5 -5 -5 -5 -5 -5 -5 -5 -5 -5 -5 -5 -5 -5 -5 -5 -5 -5 -5 -5 -5 -5 -1 20 88 88 20 -1 -5 -5 -5 -5 -5 -5 -5 -5 -5 -5 -5 -5 -5 -5 -5 -5 -5 -5 -4 -1 5 21 51 101 109 81 43 19 5 -1 -4 -5 -5 -5 -5 -5 -5 -5 -5 -5 -1 20 95 
128 55 12 -1 -5 -5 -5 -5 -5 -5 -5 -5 -5 -5 -5 -5 -5 -5 -5 -5 -5 -5 -5 -5 -5 -5 -5 -5 -5 -5 -5 -5 -5 -5 -5 -5 -5 -5 -5 -5 -5 -5 -5 -5 -5 -5 -5 -5 -5 -5 -5 -5 -5 -5 -5 -5 -5 -5 -5 -5 -5 -1 20 88 88 20 -1 -5 -5 -5 -5 -5 -5 -5 -5 -5 -5 -5 -5 -5 -5 -5 -5 -5 -5 -5 -5 -4 0 10 38 79 108 108 80 42 19 4 -2 -5 -5 -5 -5 -5 -5 -5 -5 -1 20 93 
98 27 0 -4 -5 -5 -5 -5 -5 -5 -5 -5 -5 -5 -5 -5 -5 -5 -5 -5 -5 -5 -5 -5 -5 -5 -5 -5 -5 -5 -5 -5 -5 -5 -5 -5 -5 -5 -5 -5 -5 -5 -5 -5 -5 -5 -5 -5 -5 -5 -5 -5 -5 -5 -5 -5 -5 -5 -5 -5 -5 -1 20 88 88 20 -1 -5 -5 -5 -5 -5 -5 -5 -5 -5 -5 -5 -5 -5 -5 -5 -5 -5 -5 -5 -5 -5 -5 -2 4 19 42 80 108 108 79 38 10 0 -4 -5 -5 -5 -5 -5 -5 -1 20 89 
89 21 -1 -5 -5 -5 -5 -5 -5 -5 -5 -5 -5 -5 -5 -5 -5 -5 -5 -5 -5 -5 -5 -5 -5 -5 -5 -5 -5 -5 -5 -5 -5 -5 -5 -5 -5 -5 -5 -5 -5 -5 -5 -5 -5 -5 -5 -5 -5 -5 -5 -5 -5 -5 -5 -5 -5 -5 -5 -5 -5 -1 20 88 88 20 -1 -5 -5 -5 -5 -5 -5 -5 -5 -5 -5 -5 -5 -5 -5 -5 -5 -5 -5 -5 -5 -5 -5 -5 -4 -1 5 19 43 81 109 101 51 21 5 0 -1 -2 -4 -5 -4 -1 20 88 
88 20 -1 -5 -5 -5 -5 -5 -5 -5 -5 -5 -5 -5 -5 -5 -5 -5 -5 -5 -5 -5 -5 -5 -5 -5 -5 -5 -5 -5 -5 -5 -5 -5 -5 -5 -5 -5 -5 -5 -5 -5 -5 -5 -5 -5 -5 -5 -5 -5 -5 -5 -5 -5 -5 -5 -5 -5 -5 -5 -5 -1 20 88 88 20 -1 -5 -5 -5 -5 -5 -5 -5 -5 -5 -5 -5 -5 -5 -5 -5 -5 -5 -5 -5 -5 -5 -5 -5 -5 -5 -4 0 5 22 53 104 113 84 45 25 19 14 4 0 -1 1 21 88 
88 20 -1 -5 -5 -5 -5 -5 -5 -5 -5 -5 -5 -5 -5 -5 -5 -5 -5 -5 -5 -5 -5 -5 -5 -5 -5 -5 -5 -5 -5 -5 -5 -5 -5 -5 -5 -5 -5 -5 -5 -5 -5 -5 -5 -5 -5 -5 -5 -5 -5 -5 -5 -5 -5 -5 -5 -5 -5 -5 -5 -1 20 88 88 20 -1 -5 -5 -5 -5 -5 -5 -5 -5 -5 -5 -5 -5 -5 -5 -5 -5 -5 -5 -5 -5 -5 -5 -5 -5 -5 -5 -3 0 5 21 62 117 150 125 97 86 72 42 25 20 18 30 91 
90 20 -1 -4 -5 -5 -5 -5 -5 -5 -5 -5 -5 -5 -5 -5 -5 -5 -5 -5 -5 -5 -5 -5 -5 -5 -5 -5 -5 -5 -5 -5 -5 -5 -5 -5 -5 -5 -5 -5 -5 -5 -5 -5 -5 -5 -5 -5 -5 -5 -5 -5 -5 -5 -5 -5 -5 -5 -5 -5 -5 -1 20 88 88 20 -1 -5 -5 -5 -5 -5 -5 -5 -5 -5 -5 -5 -5 -5 -5 -5 -5 -5 -5 -5 -5 -5 -5 -5 -5 -4 -1 4 15 25 46 89 124 125 102 92 95 109 109 94 86 76 65 107 
96 24 2 -1 -1 -1 -1 -1 -2 -4 -5 -5 -5 -5 -5 -5 -5 -5 -5 -5 -5 -5 -5 -5 -5 -5 -5 -5 -5 -5 -5 -5 -5 -5 -5 -5 -5 -5 -5 -5 -5 -5 -5 -5 -5 -5 -5 -5 -5 -5 -5 -5 -5 -5 -5 -5 -5 -5 -5 -5 -5 -1 20 88 88 20 -1 -5 -5 -5 -5 -5 -5 -5 -5 -5 -5 -5 -5 -5 -5 -5 -5 -5 -5 -5 -5 -5 -4 -2 0 5 19 41 73 91 109 108 81 44 26 22 25 42 72 85 94 111 124 146 
109 44 24 20 20 20 20 18 14 4 0 -1 -1 -1 -1 -1 -2 -4 -5 -5 -5 -5 -5 -5 -5 -5 -5 -5 -5 -5 -5 -5 -5 -5 -5 -5 -5 -5 -5 -5 -5 -5 -5 -5 -5 -5 -5 -5 -5 -5 -5 -5 -5 -5 -5 -5 -5 -5 -5 -5 -5 -1 20 88 88 20 -1 -5 -5 -5 -5 -5 -5 -5 -5 -5 -5 -5 -5 -5 -5 -5 -5 -5 -5 -5 -4 -1 4 15 24 43 80 107 109 91 73 41 19 5 0 -1 0 4 14 19 25 45 90 140 
143 105 91 88 88 88 87 84 72 42 25 21 20 20 20 18 14 4 0 -1 -1 -1 -1 -1 -1 -2 -4 -5 -5 -5 -5 -5 -5 -5 -5 -5 -5 -5 -5 -5 -5 -5 -5 -5 -5 -5 -5 -5 -5 -5 -5 -5 -5 -5 -5 -5 -5 -5 -5 -5 -5 -1 20 88 88 20 -1 -5 -5 -5 -5 -5 -5 -5 -5 -5 -5 -5 -5 -5 -5 -5 -5 -4 -2 0 5 19 41 73 91 109 107 80 43 24 15 4 -1 -4 -5 -5 -5 -4 -2 -1 0 8 38 108 
141 105 91 88 88 88 89 94 109 109 94 89 88 88 87 84 72 42 25 21 20 20 20 20 18 14 4 0 -1 -1 -1 -1 -1 -2 -4 -5 -5 -5 -5 -5 -5 -5 -5 -5 -5 -5 -5 -5 -5 -5 -5 -5 -5 -5 -5 -5 -5 -5 -5 -5 -5 -1 20 88 88 20 -1 -5 -5 -5 -5 -5 -5 -5 -5 -5 -5 -5 -5 -5 -5 -4 -1 4 15 24 43 80 107 109 91 73 41 19 5 0 -2 -4 -5 -5 -5 -5 -5 -5 -5 -5 -4 0 23 96 
103 44 24 20 20 20 21 25 42 72 84 87 88 88 89 94 109 109 94 89 88 88 88 87 84 72 42 25 21 20 20 20 18 14 4 0 -1 -1 -1 -1 -1 -1 -2 -4 -5 -5 -5 -5 -5 -5 -5 -5 -5 -5 -5 -5 -5 -5 -5 -5 -5 -1 20 88 88 20 -1 -5 -5 -5 -5 -5 -5 -5 -5 -5 -5 -5 -5 -4 -1 5 19 41 73 91 109 107 80 43 24 15 4 -1 -4 -5 -5 -5 -5 -5 -5 -5 -5 -5 -5 -5 -5 -1 20 90 
90 24 2 -1 -1 -1 -1 0 4 14 18 20 20 20 21 25 42 72 84 87 88 88 88 89 94 109 109 94 89 88 88 87 84 72 42 25 21 20 20 20 20 18 14 4 0 -1 -1 -1 -1 -1 -2 -4 -5 -5 -5 -5 -5 -5 -5 -5 -5 -1 20 88 88 20 -1 -5 -5 -5 -5 -5 -5 -5 -5 -5 -4 -2 0 5 19 42 80 107 109 91 73 41 19 5 0 -2 -4 -5 -5 -5 -5 -5 -5 -5 -5 -5 -5 -5 -5 -5 -5 -1 20 88 
88 20 -1 -4 -5 -5 -5 -5 -4 -2 -1 -1 -1 -1 -1 0 4 14 18 20 20 20 20 21 25 42 72 84 87 88 88 89 94 109 109 94 89 88 88 88 87 84 72 42 25 21 20 20 20 18 14 4 0 -1 -1 -1 -1 -1 -1 -2 -3 0 20 88 88 20 -1 -5 -5 -5 -5 -5 -5 -5 -4 -1 4 15 24 43 80 108 108 80 43 24 15 4 -1 -4 -5 -5 -5 -5 -5 -5 -5 -5 -5 -5 -5 -5 -5 -5 -5 -5 -5 -1 20 88 
88 20 -1 -5 -5 -5 -5 -5 -5 -5 -5 -5 -5 -5 -5 -5 -4 -2 -1 -1 -1 -1 -1 -1 0 4 14 18 20 20 20 21 25 42 72 84 87 88 88 88 89 94 109 109 94 89 88 88 87 84 72 42 25 21 20 20 20 20 18 14 5 4 24 91 90 21 -1 -5 -5 -5 -5 -4 -2 0 5 19 41 73 91 109 107 80 42 19 5 0 -2 -4 -5 -5 -5 -5 -5 -5 -5 -5 -5 -5 -5 -5 -5 -5 -5 -5 -5 -5 -5 -1 20 88 
88 20 -1 -5 -5 -5 -5 -5 -5 -5 -5 -5 -5 -5 -5 -5 -5 -5 -5 -5 -5 -5 -5 -5 -5 -4 -2 -1 -1 -1 -1 -1 0 4 14 18 20 20 20 20 21 25 42 72 84 87 88 88 89 94 109 109 94 89 88 88 88 87 84 72 42 29 45 105 100 27 1 -4 -4 -4 -1 4 15 24 43 80 107 109 91 73 41 19 5 -1 -4 -5 -5 -5 -5 -5 -5 -5 -5 -5 -5 -5 -5 -5 -5 -5 -5 -5 -5 -5 -5 -5 -5 -1 20 88 
88 20 -1 -5 -5 -5 -5 -5 -5 -5 -5 -5 -5 -5 -5 -5 -5 -5 -5 -5 -5 -5 -5 -5 -5 -5 -5 -5 -5 -5 -5 -5 -5 -4 -2 -1 -1 -1 -1 -1 -1 0 4 14 18 20 20 20 21 25 42 72 84 87 88 88 88 89 94 109 109 97 104 141 130 55 13 1 0 5 19 41 73 91 109 107 80 43 24 15 4 -1 -4 -5 -5 -5 -5 -5 -5 -5 -5 -5 -5 -5 -5 -5 -5 -5 -5 -5 -5 -5 -5 -5 -5 -5 -5 -1 20 88 
88 20 -1 -5 -5 -5 -5 -5 -5 -5 -5 -5 -5 -5 -5 -5 -5 -5 -5 -5 -5 -5 -5 -5 -5 -5 -5 -5 -5 -5 -5 -5 -5 -5 -5 -5 -5 -5 -5 -5 -5 -5 -4 -2 -1 -1 -1 -1 -1 0 4 14 18 20 20 20 20 21 25 42 72 85 91 104 122 107 54 28 27 44 80 107 109 91 73 41 19 5 0 -2 -4 -5 -5 -5 -5 -5 -5 -5 -5 -5 -5 -5 -5 -5 -5 -5 -5 -5 -5 -5 -5 -5 -5 -5 -5 -5 -5 -1 20 88 
88 20 -1 -5 -5 -5 -5 -5 -5 -5 -5 -5 -5 -5 -5 -5 -5 -5 -5 -5 -5 -5 -5 -5 -5 -5 -5 -5 -5 -5 -5 -5 -5 -5 -5 -5 -5 -5 -5 -5 -5 -5 -5 -5 -5 -5 -5 -5 -5 -5 -4 -2 -1 -1 -1 -1 -1 -1 0 4 14 18 21 27 54 107 123 105 98 110 107 80 43 24 15 4 -1 -4 -5 -5 -5 -5 -5 -5 -5 -5 -5 -5 -5 -5 -5 -5 -5 -5 -5 -5 -5 -5 -5 -5 -5 -5 -5 -5 -5 -5 -5 -1 20 88 
88 20 -1 -5 -5 -5 -5 -5 -5 -5 -5 -5 -5 -5 -5 -5 -5 -5 -5 -5 -5 -5 -5 -5 -5 -5 -5 -5 -5 -5 -5 -5 -5 -5 -5 -5 -5 -5 -5 -5 -5 -5 -5 -5 -5 -5 -5 -5 -5 -5 -5 -5 -5 -5 -5 -5 -5 -5 -5 -4 -2 -1 -1 1 13 55 130 141 100 75 41 19 5 0 -2 -4 -5 -5 -5 -5 -5 -5 -5 -5 -5 -5 -5 -5 -5 -5 -5 -5 -5 -5 -5 -5 -5 -5 -5 -5 -5 -5 -5 -5 -5 -5 -5 -1 20 88 
88 20 -1 -5 -5 -5 -5 -5 -5 -5 -5 -5 -5 -5 -5 -5 -5 -5 -5 -5 -5 -5 -5 -5 -5 -5 -5 -5 -5 -5 -5 -5 -5 -5 -5 -5 -5 -5 -5 -5 -5 -5 -5 -5 -5 -5 -5 -5 -5 -5 -5 -5 -5 -5 -5 -5 -5 -5 -5 -5 -5 -5 -5 -4 1 28 100 104 42 18 4 -1 -4 -5 -5 -5 -5 -5 -5 -5 -5 -5 -5 -5 -5 -5 -5 -5 -5 -5 -5 -5 -5 -5 -5 -5 -5 -5 -5 -5 -5 -5 -5 -5 -5 -5 -5 -1 20 88 
88 20 -1 -4 -5 -5 -5 -5 -5 -5 -5 -5 -5 -5 -5 -5 -5 -5 -5 -5 -5 -5 -5 -5 -5 -5 -5 -5 -5 -5 -5 -5 -5 -5 -5 -5 -5 -5 -5 -5 -5 -5 -5 -5 -5 -5 -5 -5 -5 -5 -5 -5 -5 -5 -5 -5 -5 -5 -5 -5 -5 -5 -5 -4 0 21 90 91 24 2 -3 -4 -5 -5 -5 -5 -5 -5 -5 -5 -5 -5 -5 -5 -5 -5 -5 -5 -5 -5 -5 -5 -5 -5 -5 -5 -5 -5 -5 -5 -5 -5 -5 -5 -5 -5 -4 -1 20 88 
91 24 2 -1 -1 -1 -1 -1 -1 -1 -1 -1 -1 -1 -1 -1 -1 -1 -1 -1 -1 -1 -1 -1 -1 -1 -1 -1 -1 -1 -1 -1 -1 -1 -1 -1 -1 -1 -1 -1 -1 -1 -1 -1 -1 -1 -1 -1 -1 -1 -1 -1 -1 -1 -1 -1 -1 -1 -1 -1 -1 -1 -1 -1 2 24 91 91 24 3 0 -1 -1 -1 -1 -1 -1 -1 -1 -1 -1 -1 -1 -1 -1 -1 -1 -1 -1 -1 -1 -1 -1 -1 -1 -1 -1 -1 -1 -1 -1 -1 -1 -1 -1 -1 -1 2 24 91 
105 44 24 20 20 20 20 20 20 20 20 20 20 20 20 20 20 20 20 20 20 20 20 20 20 20 20 20 20 20 20 20 20 20 20 20 20 20 20 20 20 20 20 20 20 20 20 20 20 20 20 20 20 20 20 20 20 20 20 20 20 20 20 20 24 44 105 105 44 24 20 20 20 20 20 20 20 20 20 20 20 20 20 20 20 20 20 20 20 20 20 20 20 20 20 20 20 20 20 20 20 20 20 20 20 20 20 24 44 105 
148 105 91 88 88 88 88 88 88 88 88 88 88 88 88 88 88 88 88 88 88 88 88 88 88 88 88 88 88 88 88 89 91 95 93 89 88 88 88 88 88 88 88 88 88 88 88 88 89 94 94 89 88 88 88 88 88 88 88 88 88 88 88 88 90 103 141 141 103 90 88 88 88 88 88 88 88 88 88 88 88 88 88 88 88 88 88 88 88 88 88 91 94 93 89 88 88 88 88 88 88 88 88 91 94 93 89 91 105 148 
