P2
110 110
255
140 94 82 81 81 81 81 81 81 81 81 81 81 81 81 81 81 81 81 81 81 81 81 81 81 81 81 81 81 81 82 89 115 153 123 89 82 81 81 81 81 81 81 81 81 81 81 82 93 135 135 93 82 81 81 81 81 81 81 81 81 81 81 81 81 82 85 85 82 81 81 81 81 81 81 81 81 81 81 81 81 81 81 81 81 81 81 81 81 81 86 109 153 123 90 82 81 81 81 81 81 81 86 108 153 123 90 83 94 140 
94 30 14 12 12 12 12 12 12 12 12 12 12 12 12 12 12 12 12 12 12 12 12 12 12 12 12 12 12 12 18 46 112 106 42 17 12 12 12 12 12 12 12 12 12 12 12 14 30 95 94 30 14 12 12 12 12 12 12 12 12 12 12 12 12 12 12 12 12 12 12 12 12 12 12 12 12 12 12 12 12 12 12 12 12 12 12 12 12 14 30 89 113 45 17 12 12 12 12 12 12 14 26 83 115 45 17 15 30 94 
82 14 -2 -4 -4 -4 -4 -4 -4 -4 -4 -4 -4 -4 -4 -4 -4 -4 -4 -4 -4 -4 -4 -4 -4 -4 -4 -4 -4 -1 15 76 108 40 5 -3 -4 -4 -4 -4 -4 -4 -4 -4 -4 -4 -4 -1 18 91 83 14 -2 -4 -4 -4 -4 -4 -4 -4 -4 -4 -4 -4 -4 -4 -4 -4 -4 -4 -4 -4 -4 -4 -4 -4 -4 -4 -4 -4 -4 -4 -4 -4 -4 -4 -4 -4 -3 1 33 107 75 13 -1 -4 -4 -4 -4 -4 -4 -2 14 81 87 17 -1 -1 14 82 
81 12 -4 -6 -6 -6 -6 -6 -6 -6 -6 -6 -6 -6 -6 -6 -6 -6 -6 -6 -6 -6 -6 -6 -6 -6 -6 -6 -5 3 40 107 74 13 -3 -6 -6 -6 -6 -6 -6 -6 -6 -6 -6 -6 -5 0 33 121 85 12 -4 -6 -6 -6 -6 -6 -6 -6 -6 -6 -6 -6 -6 -6 -6 -6 -6 -6 -6 -6 -6 -6 -6 -6 -6 -6 -6 -6 -6 -6 -6 -6 -6 -6 -6 -6 -4 8 68 107 32 0 -5 -6 -6 -6 -6 -6 -6 -3 15 87 79 12 -4 -4 12 81 
81 12 -4 -6 -6 -6 -6 -6 -6 -6 -6 -6 -6 -6 -6 -6 -6 -6 -6 -6 -6 -6 -6 -6 -6 -6 -6 -5 0 29 99 99 29 0 -5 -6 -6 -6 -6 -6 -6 -6 -6 -6 -6 -6 -4 12 77 155 86 12 -4 -6 -6 -6 -6 -6 -6 -6 -6 -6 -6 -6 -6 -6 -6 -6 -6 -6 -6 -6 -6 -6 -6 -6 -6 -6 -6 -6 -6 -6 -6 -6 -6 -6 -6 -6 -3 15 85 85 15 -3 -6 -6 -6 -6 -6 -6 -6 0 31 107 67 8 -4 -4 12 81 
81 12 -4 -6 -6 -6 -6 -6 -6 -6 -6 -6 -6 -6 -6 -6 -6 -6 -6 -6 -6 -6 -6 -6 -6 -6 -6 -3 13 74 107 40 3 -5 -6 -6 -6 -6 -6 -6 -6 -6 -6 -6 -6 -6 0 32 112 141 84 12 -4 -6 -6 -6 -6 -6 -6 -6 -6 -6 -6 -6 -6 -6 -6 -6 -6 -6 -6 -6 -6 -6 -6 -6 -6 -6 -6 -6 -6 -6 -6 -6 -6 -6 -6 -5 0 32 107 68 8 -4 -6 -6 -6 -6 -6 -6 -4 8 67 107 31 0 -5 -4 12 81 
81 12 -4 -6 -6 -6 -6 -6 -6 -6 -6 -6 -6 -6 -6 -6 -6 -6 -6 -6 -6 -6 -6 -6 -6 -6 -5 3 40 107 74 13 -3 -6 -6 -6 -6 -6 -6 -6 -6 -6 -6 -6 -6 -4 12 74 118 111 83 12 -4 -6 -6 -6 -6 -6 -6 -6 -6 -6 -6 -6 -6 -6 -6 -6 -6 -6 -6 -6 -6 -6 -6 -6 -6 -6 -6 -6 -6 -6 -6 -6 -6 -6 -6 -4 11 74 105 30 0 -6 -6 -6 -6 -6 -6 -6 -4 11 79 86 15 -3 -6 -4 12 81 
81 12 -4 -6 -6 -6 -6 -6 -6 -6 -6 -6 -6 -6 -6 -6 -6 -6 -6 -6 -6 -6 -6 -6 -6 -6 0 29 99 99 29 0 -6 -6 -6 -6 -6 -6 -6 -6 -6 -6 -6 -6 -5 0 32 106 89 94 87 15 -3 -6 -6 -6 -6 -6 -6 -6 -6 -6 -6 -6 -6 -6 -6 -6 -6 -6 -6 -6 -6 -6 -6 -6 -6 -6 -6 -6 -6 -6 -6 -6 -6 -6 -6 0 30 105 74 11 -4 -6 -6 -6 -6 -6 -6 -6 -3 15 86 79 11 -4 -6 -4 12 81 
81 12 -4 -6 -6 -6 -6 -6 -6 -6 -6 -6 -6 -6 -6 -6 -6 -6 -6 -6 -6 -6 -6 -6 -6 -3 13 74 107 40 3 -5 -6 -6 -6 -6 -6 -6 -6 -6 -6 -6 -6 -6 -3 13 74 107 46 72 107 31 0 -6 -6 -6 -6 -6 -6 -6 -6 -6 -6 -6 -6 -6 -6 -6 -6 -6 -6 -6 -6 -6 -6 -6 -6 -6 -6 -6 -6 -6 -6 -6 -6 -6 -4 8 68 107 32 0 -6 -6 -6 -6 -6 -6 -6 -6 0 31 107 67 8 -4 -6 -4 12 81 
81 12 -4 -6 -6 -6 -6 -6 -6 -6 -6 -6 -6 -6 -6 -6 -6 -6 -6 -6 -6 -6 -6 -6 -5 3 40 107 74 13 -3 -6 -6 -6 -6 -6 -6 -6 -6 -6 -6 -6 -6 -5 3 40 107 74 18 33 107 67 8 -4 -6 -6 -6 -6 -6 -6 -6 -6 -6 -6 -6 -6 -6 -6 -6 -6 -6 -6 -6 -6 -6 -6 -6 -6 -6 -6 -6 -6 -6 -6 -6 -6 -3 15 85 85 15 -3 -6 -6 -6 -6 -6 -6 -6 -4 8 67 107 31 0 -6 -6 -4 12 81 
81 12 -4 -6 -6 -6 -6 -6 -6 -6 -6 -6 -6 -6 -6 -6 -6 -6 -6 -6 -6 -6 -6 -6 0 29 99 99 29 0 -6 -6 -6 -6 -6 -6 -6 -6 -6 -6 -6 -6 -6 0 29 99 99 29 2 16 87 78 11 -4 -6 -6 -6 -6 -6 -6 -6 -6 -6 -6 -6 -6 -6 -6 -6 -6 -6 -6 -6 -6 -6 -6 -6 -6 -6 -6 -6 -6 -6 -6 -6 -6 0 32 107 68 8 -4 -6 -6 -6 -6 -6 -6 -6 -4 11 79 86 15 -3 -6 -6 -4 12 81 
81 12 -4 -6 -6 -6 -6 -6 -6 -6 -6 -6 -6 -6 -6 -6 -6 -6 -6 -6 -6 -6 -6 -3 13 74 107 40 3 -5 -6 -6 -6 -6 -6 -6 -6 -6 -6 -6 -6 -6 -4 11 73 107 40 3 -2 12 82 80 12 -4 -6 -6 -6 -6 -6 -6 -6 -6 -6 -6 -6 -6 -6 -6 -6 -6 -6 -6 -6 -6 -6 -6 -6 -6 -6 -6 -6 -6 -6 -6 -6 -4 11 74 105 30 0 -6 -6 -6 -6 -6 -6 -6 -6 -3 15 86 79 11 -4 -6 -6 -4 12 81 
82 12 -4 -6 -6 -6 -6 -6 -6 -6 -6 -6 -6 -6 -6 -6 -6 -6 -6 -6 -6 -6 -5 3 40 107 74 13 -3 -6 -6 -6 -6 -6 -6 -6 -6 -6 -6 -6 -6 -6 0 32 106 74 13 -3 -4 12 81 81 12 -4 -6 -6 -6 -6 -6 -6 -6 -6 -6 -6 -6 -6 -6 -6 -6 -6 -6 -6 -6 -6 -6 -6 -6 -6 -6 -6 -6 -6 -6 -6 -6 0 30 105 74 11 -4 -6 -6 -6 -6 -6 -6 -6 -6 0 31 107 67 8 -4 -6 -6 -4 12 81 
89 17 -3 -6 -6 -6 -6 -6 -6 -6 -6 -6 -6 -6 -6 -6 -6 -6 -6 -6 -6 -6 0 29 99 99 29 0 -6 -6 -6 -6 -6 -6 -6 -6 -6 -6 -6 -6 -6 -4 12 74 106 32 0 -5 -4 12 80 82 12 -4 -6 -6 -6 -6 -6 -6 -6 -6 -6 -6 -6 -6 -6 -6 -6 -6 -6 -6 -6 -6 -6 -6 -6 -6 -6 -6 -6 -6 -6 -6 -4 8 68 107 32 0 -6 -6 -6 -6 -6 -6 -6 -6 -4 8 67 107 31 0 -6 -6 -6 -4 12 82 
123 41 4 -4 -6 -6 -6 -6 -6 -6 -6 -6 -6 -6 -6 -6 -6 -6 -6 -6 -6 -3 13 74 107 40 3 -5 -6 -6 -6 -6 -6 -6 -6 -6 -6 -6 -6 -6 -5 0 32 106 74 12 -4 -6 -4 11 78 87 15 -3 -6 -6 -6 -6 -6 -6 -6 -6 -6 -6 -6 -6 -6 -6 -6 -6 -6 -6 -6 -6 -6 -6 -6 -6 -6 -6 -6 -6 -6 -6 -3 15 85 85 15 -3 -6 -6 -6 -6 -6 -6 -6 -6 -4 11 79 86 15 -3 -6 -6 -6 -4 12 85 
153 106 37 4 -4 -6 -6 -6 -6 -6 -6 -6 -6 -6 -6 -6 -6 -6 -6 -6 -5 3 40 107 74 13 -3 -6 -6 -6 -6 -6 -6 -6 -6 -6 -6 -6 -6 -6 -3 13 74 106 32 0 -5 -6 -4 8 67 107 31 0 -6 -6 -6 -6 -6 -6 -6 -6 -6 -6 -6 -6 -6 -6 -6 -6 -6 -6 -6 -6 -6 -6 -6 -6 -6 -6 -6 -6 -6 -6 0 32 107 68 8 -4 -6 -6 -6 -6 -6 -6 -6 -6 -3 15 86 79 11 -4 -6 -6 -6 -4 12 86 
115 114 101 37 2 -5 -6 -6 -6 -6 -6 -6 -6 -6 -6 -6 -6 -6 -6 -6 0 29 99 99 29 0 -6 -6 -6 -6 -6 -6 -6 -6 -6 -6 -6 -6 -6 -5 3 40 107 73 11 -4 -6 -6 -6 0 31 107 67 8 -4 -6 -6 -6 -6 -6 -6 -6 -6 -6 -6 -6 -6 -6 -6 -6 -6 -6 -6 -6 -6 -6 -6 -6 -6 -6 -6 -6 -6 -4 11 74 105 30 0 -6 -6 -6 -6 -6 -6 -6 -6 -6 0 31 107 67 8 -4 -6 -6 -6 -4 12 83 
90 55 102 99 28 0 -5 -6 -6 -6 -6 -6 -6 -6 -6 -6 -6 -6 -6 -3 13 74 107 40 3 -5 -6 -6 -6 -6 -6 -6 -6 -6 -6 -6 -6 -6 -6 0 29 99 99 29 0 -6 -6 -6 -6 -3 15 87 78 11 -4 -6 -6 -6 -6 -6 -6 -6 -6 -6 -6 -6 -6 -6 -6 -6 -6 -6 -6 -6 -6 -6 -6 -6 -6 -6 -6 -6 -6 0 30 105 74 11 -4 -6 -6 -6 -6 -6 -6 -6 -6 -4 8 67 107 31 0 -6 -6 -6 -6 -4 12 81 
82 23 42 107 74 13 -3 -6 -6 -6 -6 -6 -6 -6 -6 -6 -6 -6 -5 3 40 107 74 13 -3 -6 -6 -6 -6 -6 -6 -6 -6 -6 -6 -6 -6 -6 -4 11 73 107 40 3 -5 -6 -6 -6 -6 -4 12 82 80 12 -4 -6 -6 -6 -6 -6 -6 -6 -6 -6 -6 -6 -6 -6 -6 -6 -6 -6 -6 -6 -6 -6 -6 -6 -6 -6 -6 -6 -4 8 68 107 32 0 -6 -6 -6 -6 -6 -6 -6 -6 -6 -4 11 79 86 15 -3 -6 -6 -6 -6 -4 12 81 
81 15 15 74 107 40 4 -4 -6 -6 -6 -6 -6 -6 -6 -6 -6 -6 0 29 99 99 29 0 -6 -6 -6 -6 -6 -6 -6 -6 -6 -6 -6 -6 -6 -6 0 32 106 74 13 -3 -6 -6 -6 -6 -6 -4 12 81 81 12 -4 -6 -6 -6 -6 -6 -6 -6 -6 -6 -6 -6 -6 -6 -6 -6 -6 -6 -6 -6 -6 -6 -6 -6 -6 -6 -6 -6 -3 15 85 85 15 -3 -6 -6 -6 -6 -6 -6 -6 -6 -6 -3 15 86 79 11 -4 -6 -6 -6 -6 -4 12 81 
81 12 1 29 99 100 37 4 -4 -6 -6 -6 -6 -6 -6 -6 -6 -3 13 74 107 40 3 -5 -6 -6 -6 -6 -6 -6 -6 -6 -6 -6 -6 -6 -6 -4 12 74 106 32 0 -5 -6 -6 -6 -6 -6 -4 12 80 82 12 -4 -6 -6 -6 -6 -6 -6 -6 -6 -6 -6 -6 -6 -6 -6 -6 -6 -6 -6 -6 -6 -6 -6 -6 -6 -6 -6 -6 0 32 107 68 8 -4 -6 -6 -6 -6 -6 -6 -6 -6 -6 0 31 107 67 8 -4 -6 -6 -6 -6 -4 12 81 
81 12 -3 3 37 100 100 37 4 -4 -6 -6 -6 -6 -6 -6 -5 3 40 107 74 13 -3 -6 -6 -6 -6 -6 -6 -6 -6 -6 -6 -6 -6 -6 -5 0 32 106 74 12 -4 -6 -6 -6 -6 -6 -6 -4 11 78 87 15 -3 -6 -6 -6 -6 -6 -6 -6 -6 -6 -6 -6 -6 -6 -6 -6 -6 -6 -6 -6 -6 -6 -6 -6 -6 -6 -6 -4 11 74 105 30 0 -6 -6 -6 -6 -6 -6 -6 -6 -6 -4 8 67 107 31 0 -6 -6 -6 -6 -6 -4 12 81 
81 12 -4 -4 4 37 100 100 37 4 -4 -6 -6 -6 -6 -6 0 29 99 99 29 0 -6 -6 -6 -6 -6 -6 -6 -6 -6 -6 -6 -6 -6 -6 -3 13 74 106 32 0 -6 -6 -6 -6 -6 -6 -6 -4 8 67 107 31 0 -6 -6 -6 -6 -6 -6 -6 -6 -6 -6 -6 -6 -6 -6 -6 -6 -6 -6 -6 -6 -6 -6 -6 -6 -6 -6 0 30 105 74 11 -4 -6 -6 -6 -6 -6 -6 -6 -6 -6 -4 11 79 86 15 -3 -6 -6 -6 -6 -6 -4 12 81 
81 12 -4 -6 -4 4 37 100 100 37 4 -4 -6 -6 -6 -3 13 74 107 40 3 -5 -6 -6 -6 -6 -6 -6 -6 -6 -6 -6 -6 -6 -6 -5 3 40 107 73 11 -4 -6 -6 -6 -6 -6 -6 -6 -6 0 31 107 67 8 -4 -6 -6 -6 -6 -6 -6 -6 -6 -6 -6 -6 -6 -6 -6 -6 -6 -6 -6 -6 -6 -6 -6 -6 -6 -4 8 68 107 32 0 -6 -6 -6 -6 -6 -6 -6 -6 -6 -6 -3 15 86 79 11 -4 -6 -6 -6 -6 -6 -4 12 81 
81 12 -4 -6 -6 -4 4 37 100 100 37 4 -4 -6 -5 3 40 107 74 13 -3 -6 -6 -6 -6 -6 -6 -6 -6 -6 -6 -6 -6 -6 -6 0 29 99 99 29 0 -6 -6 -6 -6 -6 -6 -6 -6 -6 -3 15 87 78 11 -4 -6 -6 -6 -6 -6 -6 -6 -6 -6 -6 -6 -6 -6 -6 -6 -6 -6 -6 -6 -6 -6 -6 -6 -6 -3 15 85 85 15 -3 -6 -6 -6 -6 -6 -6 -6 -6 -6 -6 0 31 107 67 8 -4 -6 -6 -6 -6 -6 -4 12 81 
81 12 -4 -6 -6 -6 -4 4 37 100 100 37 4 -4 0 29 99 99 29 0 -6 -6 -6 -6 -6 -6 -6 -6 -6 -6 -6 -6 -6 -6 -4 11 73 107 40 3 -5 -6 -6 -6 -6 -6 -6 -6 -6 -6 -4 12 81 81 12 -4 -6 -6 -6 -6 -6 -6 -6 -6 -6 -6 -6 -6 -6 -6 -6 -6 -6 -6 -6 -6 -6 -6 -6 -6 0 32 107 68 8 -4 -6 -6 -6 -6 -6 -6 -6 -6 -6 -4 8 67 107 31 0 -6 -6 -6 -6 -6 -6 -4 12 81 
81 12 -4 -6 -6 -6 -6 -4 4 37 100 100 37 7 14 74 107 40 3 -5 -6 -6 -6 -6 -6 -6 -6 -6 -6 -6 -6 -6 -6 -6 0 32 106 74 13 -3 -6 -6 -6 -6 -6 -6 -6 -6 -6 -6 -4 12 81 81 12 -4 -6 -6 -6 -6 -6 -6 -6 -6 -6 -6 -6 -6 -6 -6 -6 -6 -6 -6 -6 -6 -6 -6 -6 -4 11 74 105 30 0 -6 -6 -6 -6 -6 -6 -6 -6 -6 -6 -4 11 79 86 15 -3 -6 -6 -6 -6 -6 -6 -4 12 81 
81 12 -4 -6 -6 -6 -6 -6 -4 4 37 100 101 46 49 108 74 13 -3 -6 -6 -6 -6 -6 -6 -6 -6 -6 -6 -6 -6 -6 -6 -4 12 74 106 32 0 -5 -6 -6 -6 -6 -6 -6 -6 -6 -6 -6 -4 11 78 87 15 -3 -6 -6 -6 -6 -6 -6 -6 -6 -6 -6 -6 -6 -6 -6 -6 -6 -6 -6 -6 -6 -6 -6 -6 0 30 105 74 11 -4 -6 -6 -6 -6 -6 -6 -6 -6 -6 -6 -3 15 86 79 11 -4 -6 -6 -6 -6 -6 -6 -4 12 81 
81 12 -4 -6 -6 -6 -6 -6 -6 -4 4 37 102 123 124 101 29 0 -6 -6 -6 -6 -6 -6 -6 -6 -6 -6 -6 -6 -6 -6 -5 0 32 106 74 12 -4 -6 -6 -6 -6 -6 -6 -6 -6 -6 -6 -6 -4 8 67 107 31 0 -6 -6 -6 -6 -6 -6 -6 -6 -6 -6 -6 -6 -6 -6 -6 -6 -6 -6 -6 -6 -6 -6 -4 8 68 107 32 0 -6 -6 -6 -6 -6 -6 -6 -6 -6 -6 -6 0 31 107 67 8 -4 -6 -6 -6 -6 -6 -6 -4 12 81 
81 12 -4 -6 -6 -6 -6 -6 -6 -6 -4 4 41 124 125 41 3 -5 -6 -6 -6 -6 -6 -6 -6 -6 -6 -6 -6 -6 -6 -6 -3 13 74 106 32 0 -6 -6 -6 -6 -6 -6 -6 -6 -6 -6 -6 -6 -6 0 31 107 67 8 -4 -6 -6 -6 -6 -6 -6 -6 -6 -6 -6 -6 -6 -6 -6 -6 -6 -6 -6 -6 -6 -6 -3 15 85 85 15 -3 -6 -6 -6 -6 -6 -6 -6 -6 -6 -6 -4 8 67 107 31 0 -6 -6 -6 -6 -6 -6 -6 -4 12 81 
81 12 -4 -6 -6 -6 -6 -6 -6 -6 -6 -3 17 90 91 17 -3 -6 -6 -6 -6 -6 -6 -6 -6 -6 -6 -6 -6 -6 -6 -5 3 40 107 73 11 -4 -6 -6 -6 -6 -6 -6 -6 -6 -6 -6 -6 -6 -6 -3 15 87 78 11 -4 -6 -6 -6 -6 -6 -6 -6 -6 -6 -6 -6 -6 -6 -6 -6 -6 -6 -6 -6 -6 -6 0 32 107 68 8 -4 -6 -6 -6 -6 -6 -6 -6 -6 -6 -6 -4 11 79 86 15 -3 -6 -6 -6 -6 -6 -6 -6 -4 12 81 
81 12 -4 -6 -6 -6 -6 -6 -6 -6 -6 -4 12 80 88 16 -3 -6 -6 -6 -6 -6 -6 -6 -6 -6 -6 -6 -6 -6 -6 0 29 99 99 29 0 -6 -6 -6 -6 -6 -6 -6 -6 -6 -6 -6 -6 -6 -6 -4 12 82 80 12 -4 -6 -6 -6 -6 -6 -6 -6 -6 -6 -6 -6 -6 -6 -6 -6 -6 -6 -6 -6 -6 -4 11 74 105 30 0 -6 -6 -6 -6 -6 -6 -6 -6 -6 -6 -6 -3 15 86 79 11 -4 -6 -6 -6 -6 -6 -6 -6 -4 12 81 
81 12 -4 -6 -6 -6 -6 -6 -6 -6 -6 -4 8 67 107 31 0 -6 -6 -6 -6 -6 -6 -6 -6 -6 -6 -6 -6 -6 -4 11 73 107 40 3 -5 -6 -6 -6 -6 -6 -6 -6 -6 -6 -6 -6 -6 -6 -6 -4 12 81 81 12 -4 -6 -6 -6 -6 -6 -6 -6 -6 -6 -6 -6 -6 -6 -6 -6 -6 -6 -6 -6 -6 0 30 105 74 11 -4 -6 -6 -6 -6 -6 -6 -6 -6 -6 -6 -6 0 31 107 67 8 -4 -6 -6 -6 -6 -6 -6 -6 -4 12 81 
81 12 -4 -6 -6 -6 -6 -6 -6 -6 -6 -6 0 31 107 67 8 -4 -6 -6 -6 -6 -6 -6 -6 -6 -6 -6 -6 -6 0 32 106 74 13 -3 -6 -6 -6 -6 -6 -6 -6 -6 -6 -6 -6 -6 -6 -6 -6 -4 12 80 82 12 -4 -6 -6 -6 -6 -6 -6 -6 -6 -6 -6 -6 -6 -6 -6 -6 -6 -6 -6 -6 -4 8 68 107 32 0 -6 -6 -6 -6 -6 -6 -6 -6 -6 -6 -6 -4 8 67 107 31 0 -6 -6 -6 -6 -6 -6 -6 -6 -4 12 81 
81 12 -4 -6 -6 -6 -6 -6 -6 -6 -6 -6 -3 15 87 78 11 -4 -6 -6 -6 -6 -6 -6 -6 -6 -6 -6 -6 -4 12 74 106 32 0 -5 -6 -6 -6 -6 -6 -6 -6 -6 -6 -6 -6 -6 -6 -6 -6 -4 11 78 87 15 -3 -6 -6 -6 -6 -6 -6 -6 -6 -6 -6 -6 -6 -6 -6 -6 -6 -6 -6 -6 -3 15 85 85 15 -3 -6 -6 -6 -6 -6 -6 -6 -6 -6 -6 -6 -4 11 79 86 15 -3 -6 -6 -6 -6 -6 -6 -6 -6 -4 12 81 
81 12 -4 -6 -6 -6 -6 -6 -6 -6 -6 -6 -4 12 81 81 12 -4 -6 -6 -6 -6 -6 -6 -6 -6 -6 -6 -5 0 32 106 74 12 -4 -6 -6 -6 -6 -6 -6 -6 -6 -6 -6 -6 -6 -6 -6 -6 -6 -4 8 67 107 31 0 -6 -6 -6 -6 -6 -6 -6 -6 -6 -6 -6 -6 -6 -6 -6 -6 -6 -6 -6 0 32 107 68 8 -4 -6 -6 -6 -6 -6 -6 -6 -6 -6 -6 -6 -3 15 86 79 11 -4 -6 -6 -6 -6 -6 -6 -6 -6 -4 12 82 
82 12 -4 -6 -6 -6 -6 -6 -6 -6 -6 -6 -4 11 78 87 15 -3 -6 -6 -6 -6 -6 -6 -6 -6 -6 -6 -3 13 74 106 32 0 -6 -6 -6 -6 -6 -6 -6 -6 -6 -6 -6 -6 -6 -6 -6 -6 -6 -6 0 31 107 67 8 -4 -6 -6 -6 -6 -6 -6 -6 -6 -6 -6 -6 -6 -6 -6 -6 -6 -6 -4 11 74 105 30 0 -6 -6 -6 -6 -6 -6 -6 -6 -6 -6 -6 -6 0 31 107 67 8 -4 -6 -6 -6 -6 -6 -6 -6 -6 -3 16 89 
84 12 -4 -6 -6 -6 -6 -6 -6 -6 -6 -6 -4 8 67 107 31 0 -6 -6 -6 -6 -6 -6 -6 -6 -6 -5 3 40 107 73 11 -4 -6 -6 -6 -6 -6 -6 -6 -6 -6 -6 -6 -6 -6 -6 -6 -6 -6 -6 -3 15 87 78 11 -4 -6 -6 -6 -6 -6 -6 -6 -6 -6 -6 -6 -6 -6 -6 -6 -6 -6 0 30 105 74 11 -4 -6 -6 -6 -6 -6 -6 -6 -6 -6 -6 -6 -4 8 67 107 31 0 -6 -6 -6 -6 -6 -6 -6 -6 -5 0 33 121 
86 12 -4 -6 -6 -6 -6 -6 -6 -6 -6 -6 -6 0 31 107 67 8 -4 -6 -6 -6 -6 -6 -6 -6 -6 0 29 99 99 29 0 -6 -6 -6 -6 -6 -6 -6 -6 -6 -6 -6 -6 -6 -6 -6 -6 -6 -6 -6 -4 12 82 80 12 -4 -6 -6 -6 -6 -6 -6 -6 -6 -6 -6 -6 -6 -6 -6 -6 -6 -4 8 68 107 32 0 -6 -6 -6 -6 -6 -6 -6 -6 -6 -6 -6 -6 -4 11 79 86 15 -3 -6 -6 -6 -6 -6 -6 -6 -6 -3 13 77 155 
84 12 -4 -6 -6 -6 -6 -6 -6 -6 -6 -6 -6 -3 15 87 78 11 -4 -6 -6 -6 -6 -6 -6 -6 -4 11 73 107 40 3 -5 -6 -6 -6 -6 -6 -6 -6 -6 -6 -6 -6 -6 -6 -6 -6 -6 -6 -6 -6 -4 12 81 81 12 -4 -6 -6 -6 -6 -6 -6 -6 -6 -6 -6 -6 -6 -6 -6 -6 -6 -3 15 85 85 15 -3 -6 -6 -6 -6 -6 -6 -6 -6 -6 -6 -6 -6 -3 15 86 79 11 -4 -6 -6 -6 -6 -6 -6 -6 -5 3 40 113 141 
82 12 -4 -6 -6 -6 -6 -6 -6 -6 -6 -6 -6 -4 12 81 81 12 -4 -6 -6 -6 -6 -6 -6 -6 0 32 106 74 13 -3 -6 -6 -6 -6 -6 -6 -6 -6 -6 -6 -6 -6 -6 -6 -6 -6 -6 -6 -6 -6 -4 12 80 82 12 -4 -6 -6 -6 -6 -6 -6 -6 -6 -6 -6 -6 -6 -6 -6 -6 -6 0 32 107 68 8 -4 -6 -6 -6 -6 -6 -6 -6 -6 -6 -6 -6 -6 0 31 107 67 8 -4 -6 -6 -6 -6 -6 -6 -6 0 29 100 113 109 
81 12 -4 -6 -6 -6 -6 -6 -6 -6 -6 -6 -6 -4 11 78 87 15 -3 -6 -6 -6 -6 -6 -6 -4 12 74 106 32 0 -5 -6 -6 -6 -6 -6 -6 -6 -6 -6 -6 -6 -6 -6 -6 -6 -6 -6 -6 -6 -6 -4 11 78 87 15 -3 -6 -6 -6 -6 -6 -6 -6 -6 -6 -6 -6 -6 -6 -6 -6 -4 11 74 105 30 0 -6 -6 -6 -6 -6 -6 -6 -6 -6 -6 -6 -6 -4 8 67 107 31 0 -6 -6 -6 -6 -6 -6 -6 -3 13 74 108 57 89 
81 12 -4 -6 -6 -6 -6 -6 -6 -6 -6 -6 -6 -4 8 67 107 31 0 -6 -6 -6 -6 -6 -5 0 32 106 74 12 -4 -6 -6 -6 -6 -6 -6 -6 -6 -6 -6 -6 -6 -6 -6 -6 -6 -6 -6 -6 -6 -6 -4 8 67 107 31 0 -6 -6 -6 -6 -6 -6 -6 -6 -6 -6 -6 -6 -6 -6 -6 0 30 105 74 11 -4 -6 -6 -6 -6 -6 -6 -6 -6 -6 -6 -6 -6 -4 11 79 86 15 -3 -6 -6 -6 -6 -6 -6 -5 3 40 107 76 31 83 
81 12 -4 -6 -6 -6 -6 -6 -6 -6 -6 -6 -6 -6 0 31 107 67 8 -4 -6 -6 -6 -6 -3 13 74 106 32 0 -6 -6 -6 -6 -6 -6 -6 -6 -6 -6 -6 -6 -6 -6 -6 -6 -6 -6 -6 -6 -6 -6 -6 0 31 107 67 8 -4 -6 -6 -6 -6 -6 -6 -6 -6 -6 -6 -6 -6 -6 -4 8 68 107 32 0 -6 -6 -6 -6 -6 -6 -6 -6 -6 -6 -6 -6 -6 -3 15 86 79 11 -4 -6 -6 -6 -6 -6 -6 0 29 99 99 31 18 81 
81 12 -4 -6 -6 -6 -6 -6 -6 -6 -6 -6 -6 -6 -3 15 87 78 11 -4 -6 -6 -6 -5 3 40 107 73 11 -4 -6 -6 -6 -6 -6 -6 -6 -6 -6 -6 -6 -6 -6 -6 -6 -6 -6 -6 -6 -6 -6 -6 -6 -3 16 88 80 13 -2 -4 -4 -4 -6 -6 -6 -6 -6 -6 -6 -6 -6 -6 -3 15 85 85 15 -3 -6 -6 -6 -6 -6 -6 -6 -6 -6 -6 -6 -6 -6 0 31 107 67 8 -4 -6 -6 -6 -6 -6 -3 13 74 107 40 5 13 81 
81 12 -4 -6 -6 -6 -6 -6 -6 -6 -6 -6 -6 -6 -4 12 81 81 12 -4 -6 -6 -6 0 29 99 99 29 0 -6 -6 -6 -6 -6 -6 -6 -6 -6 -6 -6 -6 -6 -6 -6 -6 -6 -6 -6 -6 -6 -6 -6 -5 -1 18 91 93 29 14 12 11 8 0 -3 -4 -4 -4 -4 -4 -6 -6 -5 0 32 107 68 8 -4 -6 -6 -6 -6 -6 -6 -6 -6 -6 -6 -6 -6 -4 8 67 107 31 0 -6 -6 -6 -6 -6 -5 3 40 107 74 13 -1 12 81 
81 12 -4 -6 -6 -6 -6 -6 -6 -6 -6 -6 -6 -6 -4 11 78 87 15 -3 -6 -6 -4 11 73 107 40 3 -5 -6 -6 -6 -6 -6 -6 -6 -6 -6 -6 -6 -6 -6 -6 -6 -6 -6 -6 -6 -6 -6 -6 -5 0 13 44 125 135 93 82 81 78 67 31 15 12 12 12 11 8 0 -3 -1 13 74 105 31 0 -6 -6 -6 -6 -6 -6 -6 -6 -6 -6 -6 -6 -6 -4 11 79 86 15 -3 -6 -6 -6 -6 -6 0 29 99 99 29 0 -3 12 81 
81 12 -4 -6 -6 -6 -6 -6 -6 -6 -6 -6 -6 -6 -4 8 67 107 31 0 -6 -5 0 32 106 74 13 -3 -6 -6 -6 -6 -6 -6 -6 -6 -6 -6 -6 -6 -6 -6 -6 -6 -6 -6 -6 -6 -6 -6 -3 3 29 74 109 115 93 83 81 82 87 107 107 87 82 81 80 78 67 31 16 18 44 109 74 11 -4 -6 -6 -6 -6 -6 -6 -6 -6 -6 -6 -6 -6 -6 -3 15 86 79 11 -4 -6 -6 -6 -6 -3 13 74 107 40 3 -5 -4 12 81 
81 12 -4 -6 -6 -6 -6 -6 -6 -6 -6 -6 -6 -6 -6 0 31 107 67 8 -4 -4 12 74 106 32 0 -5 -6 -6 -6 -6 -6 -6 -6 -6 -6 -6 -6 -6 -6 -6 -6 -6 -6 -6 -6 -6 -5 0 13 40 99 107 74 32 16 12 12 12 15 31 67 78 80 81 82 87 107 107 88 91 125 122 36 0 -5 -6 -6 -6 -6 -6 -6 -6 -6 -6 -6 -6 -6 -6 0 31 107 67 8 -4 -6 -6 -6 -5 3 40 107 74 13 -3 -6 -4 12 81 
81 12 -4 -6 -6 -6 -6 -6 -6 -6 -6 -6 -6 -6 -6 -3 15 87 78 11 -3 0 32 106 74 12 -4 -6 -6 -6 -6 -6 -6 -6 -6 -6 -6 -6 -6 -6 -6 -6 -6 -6 -6 -6 -6 -3 3 29 74 107 99 40 13 0 -3 -4 -4 -4 -3 0 8 11 12 12 12 15 31 67 80 90 125 122 36 0 -5 -6 -6 -6 -6 -6 -6 -6 -6 -6 -6 -6 -6 -4 8 67 107 31 0 -6 -6 -6 -6 0 29 99 99 29 0 -5 -6 -4 12 81 
81 12 -4 -6 -6 -6 -6 -6 -6 -6 -6 -6 -6 -6 -6 -4 12 81 81 12 -1 13 74 106 32 0 -6 -6 -6 -6 -6 -6 -6 -6 -6 -6 -6 -6 -6 -6 -6 -6 -6 -6 -6 -5 0 13 40 99 107 74 29 3 -3 -5 -6 -6 -6 -6 -6 -6 -4 -4 -4 -4 -4 -3 0 8 12 17 44 109 75 13 -3 -6 -6 -6 -6 -6 -6 -6 -6 -6 -6 -6 -6 -4 11 79 86 15 -3 -6 -6 -6 -3 13 74 107 40 3 -5 -6 -6 -4 12 81 
81 12 -4 -6 -6 -6 -6 -6 -6 -6 -6 -6 -6 -6 -6 -4 11 78 87 17 6 40 107 73 11 -4 -6 -6 -6 -6 -6 -6 -6 -6 -6 -6 -6 -6 -6 -6 -6 -6 -6 -6 -4 2 28 74 107 99 40 13 0 -5 -6 -6 -6 -6 -6 -6 -6 -6 -6 -6 -6 -6 -6 -6 -6 -4 -4 -1 13 74 107 40 4 -3 -5 -6 -6 -6 -6 -6 -6 -6 -6 -6 -6 -3 15 87 79 11 -4 -6 -6 -5 3 40 107 74 13 -3 -6 -6 -6 -4 12 81 
81 12 -4 -6 -6 -6 -6 -6 -6 -6 -6 -6 -6 -6 -6 -4 8 67 107 37 35 99 99 29 0 -6 -6 -6 -6 -6 -6 -6 -6 -6 -6 -6 -6 -6 -6 -6 -6 -6 -5 -3 4 37 99 107 74 29 3 -3 -6 -6 -6 -6 -6 -6 -6 -6 -6 -6 -6 -6 -6 -6 -6 -6 -6 -6 -6 -5 0 29 99 102 41 13 0 -3 -4 -4 -4 -4 -4 -4 -4 -4 -3 1 33 108 67 8 -4 -6 -5 0 29 99 99 29 0 -6 -6 -6 -6 -4 12 81 
81 12 -4 -6 -6 -6 -6 -6 -6 -6 -6 -6 -6 -6 -6 -6 0 31 108 83 86 107 40 3 -5 -6 -6 -6 -6 -6 -6 -6 -6 -6 -6 -6 -6 -6 -6 -6 -6 -5 0 13 40 100 100 40 13 0 -5 -6 -6 -6 -6 -6 -6 -6 -6 -6 -6 -6 -6 -6 -6 -6 -6 -6 -6 -6 -6 -6 -5 3 41 116 122 77 32 15 12 12 12 12 12 12 12 12 13 26 80 116 36 1 -5 -6 -3 13 74 107 40 3 -5 -6 -6 -6 -6 -4 12 81 
81 12 -4 -6 -6 -6 -6 -6 -6 -6 -6 -6 -6 -6 -6 -6 -3 15 88 110 118 74 13 -3 -6 -6 -6 -6 -6 -6 -6 -6 -6 -6 -6 -6 -6 -6 -6 -6 -3 3 29 74 107 99 37 4 -3 -5 -6 -6 -6 -6 -6 -6 -6 -6 -6 -6 -6 -6 -6 -6 -6 -6 -6 -6 -6 -6 -6 -6 -6 -3 17 94 139 118 108 87 82 81 81 81 81 81 81 81 82 92 133 130 48 14 0 -2 3 40 107 74 13 -3 -6 -6 -6 -6 -6 -4 12 81 
81 12 -4 -6 -6 -6 -6 -6 -6 -6 -6 -6 -6 -6 -6 -6 -4 12 85 141 112 32 0 -5 -6 -6 -6 -6 -6 -6 -6 -6 -6 -6 -6 -6 -6 -6 -5 0 13 40 99 107 74 28 2 -4 -6 -6 -6 -6 -6 -6 -6 -6 -6 -6 -6 -6 -6 -6 -6 -6 -6 -6 -6 -6 -6 -6 -6 -6 -6 -3 16 89 94 48 69 78 80 81 81 81 81 81 81 81 81 83 93 116 109 74 32 17 33 100 99 29 0 -6 -6 -6 -6 -6 -6 -4 12 81 
81 12 -4 -6 -6 -6 -6 -6 -6 -6 -6 -6 -6 -6 -6 -6 -4 12 86 155 77 12 -4 -6 -6 -6 -6 -6 -6 -6 -6 -6 -6 -6 -6 -6 -6 -3 3 29 74 107 99 40 13 0 -5 -6 -6 -6 -6 -6 -6 -6 -6 -6 -6 -6 -6 -6 -6 -6 -6 -6 -6 -6 -6 -6 -6 -6 -6 -6 -6 0 31 107 69 14 10 11 12 12 12 12 12 12 12 12 12 12 16 32 74 106 107 86 97 112 41 3 -5 -6 -6 -6 -6 -6 -6 -4 12 81 
81 12 -4 -6 -6 -6 -6 -6 -6 -6 -6 -6 -6 -6 -6 -6 -4 12 84 121 33 0 -5 -6 -6 -6 -6 -6 -6 -6 -6 -6 -6 -6 -6 -5 0 13 40 99 107 74 29 3 -3 -5 -6 -6 -6 -6 -6 -6 -6 -6 -6 -6 -6 -6 -6 -6 -6 -6 -6 -6 -6 -6 -6 -6 -6 -6 -6 -6 -4 8 67 107 31 0 -4 -4 -4 -4 -4 -4 -4 -4 -4 -4 -4 -4 -3 0 12 32 74 113 151 101 22 -2 -6 -6 -6 -6 -6 -6 -6 -4 12 81 
81 12 -4 -6 -6 -6 -6 -6 -6 -6 -6 -6 -6 -6 -6 -6 -4 12 82 89 15 -3 -6 -6 -6 -6 -6 -6 -6 -6 -6 -6 -6 -4 -3 3 29 76 112 104 42 15 1 -3 -5 -6 -6 -6 -6 -6 -6 -6 -6 -6 -6 -6 -6 -6 -6 -6 -6 -6 -6 -6 -6 -6 -6 -6 -6 -6 -6 -6 -4 11 78 87 15 -3 -6 -6 -6 -6 -6 -6 -6 -6 -6 -6 -6 -6 -6 -5 -4 0 13 41 112 116 41 3 -5 -6 -6 -6 -6 -6 -6 -4 12 81 
81 12 -4 -6 -6 -6 -6 -6 -6 -6 -6 -6 -6 -6 -6 -6 -4 12 82 82 12 -4 -6 -6 -6 -6 -6 -6 -6 -6 -6 -4 0 8 16 41 110 153 132 65 25 15 12 8 0 -3 -4 -4 -6 -6 -6 -6 -6 -6 -6 -6 -6 -6 -6 -6 -6 -6 -6 -6 -6 -6 -6 -6 -6 -6 -6 -6 -4 12 81 81 12 -4 -6 -6 -6 -6 -6 -6 -6 -6 -6 -6 -6 -6 -6 -6 -6 -5 -3 4 38 102 99 29 0 -6 -6 -6 -6 -6 -6 -4 12 81 
81 12 -4 -6 -6 -6 -6 -6 -6 -6 -6 -6 -6 -6 -6 -6 -3 15 87 78 11 -4 -6 -6 -6 -6 -6 -6 -5 -4 0 11 30 68 85 109 115 101 114 111 88 81 78 67 31 15 11 8 0 -3 -4 -4 -4 -6 -6 -6 -6 -6 -6 -6 -6 -6 -6 -6 -6 -6 -6 -6 -6 -6 -6 -6 -4 12 81 81 12 -4 -6 -6 -6 -6 -6 -6 -6 -6 -6 -6 -6 -6 -6 -6 -6 -6 -6 -4 4 40 107 74 13 -3 -6 -6 -6 -6 -6 -4 12 81 
81 12 -4 -6 -6 -6 -6 -6 -6 -6 -6 -6 -6 -6 -6 -6 0 31 107 67 8 -4 -6 -6 -6 -6 -4 -3 0 12 32 74 105 107 85 68 32 19 32 67 78 81 87 107 107 86 79 67 31 15 12 11 8 0 -3 -4 -4 -6 -6 -6 -6 -6 -6 -6 -6 -6 -6 -6 -6 -6 -6 -6 -3 15 87 78 11 -4 -6 -6 -6 -6 -6 -6 -6 -6 -6 -6 -6 -6 -6 -6 -6 -6 -6 -6 -3 13 74 107 40 3 -5 -6 -6 -6 -6 -4 12 81 
81 12 -4 -6 -6 -6 -6 -6 -6 -6 -6 -6 -6 -6 -6 -4 8 67 107 31 0 -6 -6 -6 -4 0 8 15 32 74 106 106 74 32 15 8 0 -3 0 8 11 12 15 31 67 79 86 107 107 87 81 78 67 31 15 11 8 0 -3 -4 -4 -4 -6 -6 -6 -6 -6 -6 -6 -6 -6 -6 0 31 107 67 8 -4 -6 -6 -6 -6 -6 -6 -6 -6 -6 -6 -6 -6 -6 -6 -6 -6 -6 -6 -5 0 29 99 99 29 0 -5 -6 -6 -6 -4 12 81 
81 12 -4 -6 -6 -6 -6 -6 -6 -6 -6 -6 -6 -6 -6 -4 11 78 87 15 -3 -5 -4 0 11 30 68 85 107 105 74 32 12 0 -3 -4 -6 -6 -6 -4 -4 -4 -3 0 8 11 15 31 67 78 81 87 107 107 86 79 67 31 15 12 11 8 0 -3 -4 -4 -6 -6 -6 -6 -6 -4 8 67 107 31 0 -6 -6 -6 -6 -6 -6 -6 -6 -6 -6 -6 -6 -6 -6 -6 -6 -6 -6 -6 -6 -5 3 40 107 74 13 -3 -6 -6 -6 -4 12 81 
81 12 -4 -6 -6 -6 -6 -6 -6 -6 -6 -6 -6 -6 -6 -4 12 81 81 13 -1 0 12 32 74 105 107 85 68 30 11 0 -4 -5 -6 -6 -6 -6 -6 -6 -6 -6 -6 -6 -4 -4 -3 0 8 11 12 15 31 67 79 86 107 107 87 81 78 67 31 15 11 8 0 -3 -4 -4 -4 -3 11 78 87 15 -3 -6 -6 -6 -6 -6 -6 -6 -6 -6 -6 -6 -6 -6 -6 -6 -6 -6 -6 -6 -6 -6 -3 13 74 107 40 4 -4 -6 -6 -4 12 81 
81 12 -4 -6 -6 -6 -6 -6 -6 -6 -6 -6 -6 -6 -6 -3 15 87 81 18 14 32 74 106 106 74 32 15 8 0 -4 -6 -6 -6 -6 -6 -6 -6 -6 -6 -6 -6 -6 -6 -6 -6 -6 -6 -4 -4 -4 -3 0 8 11 15 31 67 78 81 87 107 107 86 79 67 31 15 12 11 8 1 15 82 82 12 -4 -6 -6 -6 -6 -6 -6 -6 -6 -6 -6 -6 -6 -6 -6 -6 -6 -6 -6 -6 -6 -6 -6 0 28 99 100 37 2 -5 -6 -4 12 81 
81 12 -4 -6 -6 -6 -6 -6 -6 -6 -6 -6 -6 -6 -5 0 32 112 85 46 75 106 106 74 32 12 0 -3 -4 -6 -6 -6 -6 -6 -6 -6 -6 -6 -6 -6 -6 -6 -6 -6 -6 -6 -6 -6 -6 -6 -6 -6 -6 -4 -4 -3 0 8 11 12 15 31 67 79 86 107 107 87 81 78 67 33 33 93 82 12 -4 -6 -6 -6 -6 -6 -6 -6 -6 -6 -6 -6 -6 -6 -6 -6 -6 -6 -6 -6 -6 -6 -6 -5 2 37 100 99 28 0 -5 -4 12 81 
81 12 -4 -6 -6 -6 -6 -6 -6 -6 -6 -6 -6 -6 -4 12 78 150 114 111 106 74 32 12 0 -4 -5 -6 -6 -6 -6 -6 -6 -6 -6 -6 -6 -6 -6 -6 -6 -6 -6 -6 -6 -6 -6 -6 -6 -6 -6 -6 -6 -6 -6 -6 -6 -4 -4 -4 -3 0 8 11 15 31 67 78 81 87 107 108 99 135 85 12 -4 -6 -6 -6 -6 -6 -6 -6 -6 -6 -6 -6 -6 -6 -6 -6 -6 -6 -6 -6 -6 -6 -6 -6 -4 4 40 107 74 13 -3 -4 12 81 
81 12 -4 -6 -6 -6 -6 -6 -6 -6 -6 -6 -6 -5 0 32 113 124 89 68 31 11 0 -4 -6 -6 -6 -6 -6 -6 -6 -6 -6 -6 -6 -6 -6 -6 -6 -6 -6 -6 -6 -6 -6 -6 -6 -6 -6 -6 -6 -6 -6 -6 -6 -6 -6 -6 -6 -6 -6 -6 -4 -4 -3 0 8 11 12 15 31 68 91 134 85 12 -4 -6 -6 -6 -6 -6 -6 -6 -6 -6 -6 -6 -6 -6 -6 -6 -6 -6 -6 -6 -6 -6 -6 -6 -6 -3 13 74 107 40 4 -2 12 81 
81 12 -4 -6 -6 -6 -6 -6 -6 -6 -6 -6 -6 -3 13 74 108 44 16 8 0 -4 -6 -6 -6 -6 -6 -6 -6 -6 -6 -6 -6 -6 -6 -6 -6 -6 -6 -6 -6 -6 -6 -6 -6 -6 -6 -6 -6 -6 -6 -6 -6 -6 -6 -6 -6 -6 -6 -6 -6 -6 -6 -6 -6 -6 -4 -4 -4 -3 0 10 29 93 82 12 -4 -6 -6 -6 -6 -6 -6 -6 -6 -6 -6 -6 -6 -6 -6 -6 -6 -6 -6 -6 -6 -6 -6 -6 -6 -5 0 28 99 100 37 5 13 81 
81 12 -4 -6 -6 -6 -6 -6 -6 -6 -6 -6 -5 3 40 107 74 13 -2 -4 -6 -6 -6 -6 -6 -6 -6 -6 -6 -6 -6 -6 -6 -6 -6 -6 -6 -6 -6 -6 -6 -6 -6 -6 -6 -6 -6 -6 -6 -6 -6 -6 -6 -6 -6 -6 -6 -6 -6 -6 -6 -6 -6 -6 -6 -6 -6 -6 -6 -6 -5 -2 14 82 81 12 -4 -6 -6 -6 -6 -6 -6 -6 -6 -6 -6 -6 -6 -6 -6 -6 -6 -6 -6 -6 -6 -6 -6 -6 -6 -6 -5 2 37 100 99 31 18 81 
81 12 -4 -6 -6 -6 -6 -6 -6 -6 -6 -5 0 29 99 99 29 0 -5 -6 -6 -6 -6 -6 -6 -6 -6 -6 -6 -6 -6 -6 -6 -6 -6 -6 -6 -6 -6 -6 -6 -6 -6 -6 -6 -6 -6 -6 -6 -6 -6 -6 -6 -6 -6 -6 -6 -6 -6 -6 -6 -6 -6 -6 -6 -6 -6 -6 -6 -6 -6 -4 12 81 81 12 -4 -6 -6 -6 -6 -6 -6 -6 -6 -6 -6 -6 -6 -6 -6 -6 -6 -6 -6 -6 -6 -6 -6 -6 -6 -6 -6 -4 4 40 107 76 31 83 
81 12 -4 -6 -6 -6 -6 -6 -6 -6 -6 -3 13 74 107 40 3 -5 -6 -6 -6 -6 -6 -6 -6 -6 -6 -6 -6 -6 -6 -6 -6 -6 -6 -6 -6 -6 -6 -6 -6 -6 -6 -6 -6 -6 -6 -6 -6 -6 -6 -6 -6 -6 -6 -6 -6 -6 -6 -6 -6 -6 -6 -6 -6 -6 -6 -6 -6 -6 -6 -4 12 81 82 12 -4 -6 -6 -6 -6 -6 -6 -6 -6 -6 -6 -6 -6 -6 -6 -6 -6 -6 -6 -6 -6 -6 -6 -6 -6 -6 -6 -6 -3 13 74 108 57 89 
82 12 -4 -6 -6 -6 -6 -6 -6 -6 -4 4 40 107 74 13 -3 -6 -6 -6 -6 -6 -6 -6 -6 -6 -6 -6 -6 -6 -6 -6 -6 -6 -6 -6 -6 -6 -6 -6 -6 -6 -6 -6 -6 -6 -6 -6 -6 -6 -6 -6 -6 -6 -6 -6 -6 -6 -6 -6 -6 -6 -6 -6 -6 -6 -6 -6 -6 -6 -6 -4 12 80 88 17 -3 -6 -6 -6 -6 -6 -6 -6 -6 -6 -6 -6 -6 -6 -6 -6 -6 -6 -6 -6 -6 -6 -6 -6 -6 -6 -6 -6 -5 0 29 100 113 109 
84 12 -4 -6 -6 -6 -6 -6 -6 -4 4 37 101 100 31 1 -4 -6 -6 -6 -6 -6 -6 -6 -6 -6 -6 -6 -6 -6 -6 -6 -6 -6 -6 -6 -6 -6 -6 -6 -6 -6 -6 -6 -6 -6 -6 -6 -6 -6 -6 -6 -6 -6 -6 -6 -6 -6 -6 -6 -6 -6 -6 -6 -6 -6 -6 -6 -6 -6 -5 -2 14 79 114 41 5 -3 -5 -6 -6 -6 -6 -6 -6 -6 -6 -6 -6 -6 -6 -6 -6 -6 -6 -6 -6 -6 -6 -6 -6 -6 -6 -6 -6 -5 3 40 113 141 
86 12 -4 -6 -6 -6 -6 -6 -4 4 38 105 114 54 21 12 8 0 -3 -4 -4 -4 -4 -4 -4 -4 -4 -4 -4 -6 -6 -6 -6 -6 -6 -6 -6 -6 -6 -6 -6 -6 -6 -6 -6 -6 -6 -6 -6 -6 -6 -6 -6 -6 -6 -6 -6 -6 -6 -6 -6 -6 -6 -6 -6 -6 -6 -6 -6 -5 0 12 36 96 151 112 41 13 0 -4 -6 -6 -6 -6 -6 -6 -6 -6 -6 -6 -6 -6 -6 -6 -6 -6 -6 -6 -6 -6 -6 -6 -6 -6 -6 -6 -3 13 77 155 
84 12 -4 -6 -6 -6 -6 -4 4 37 111 153 116 90 82 78 67 31 15 12 12 12 12 12 12 12 12 11 8 0 -3 -4 -4 -4 -4 -4 -4 -4 -4 -4 -6 -6 -6 -6 -6 -6 -6 -6 -6 -6 -6 -6 -6 -6 -6 -6 -6 -6 -6 -6 -6 -6 -6 -6 -6 -6 -6 -5 -3 3 29 73 106 111 101 115 108 74 32 11 0 -5 -6 -6 -6 -6 -6 -6 -6 -6 -6 -6 -6 -6 -6 -6 -6 -6 -6 -6 -6 -6 -6 -6 -6 -6 -5 0 33 121 
82 12 -4 -6 -6 -6 -4 4 37 101 115 94 84 81 82 87 107 107 87 82 81 81 81 81 81 81 80 78 67 31 15 12 12 12 12 12 12 12 11 8 0 -3 -4 -4 -4 -4 -4 -4 -4 -4 -4 -4 -6 -6 -6 -6 -6 -6 -6 -6 -6 -6 -6 -6 -6 -6 -4 0 13 40 99 107 74 33 19 33 74 106 106 73 29 3 -3 -5 -6 -6 -6 -6 -6 -6 -6 -6 -6 -6 -6 -6 -6 -6 -6 -6 -6 -6 -6 -6 -6 -6 -6 -3 16 89 
81 12 -4 -6 -6 -4 4 37 100 101 41 17 12 12 12 15 31 67 78 80 81 81 81 81 81 81 82 87 107 107 87 82 81 81 81 81 81 80 78 67 31 15 12 12 12 12 12 12 12 12 11 8 0 -3 -4 -4 -4 -4 -4 -4 -4 -4 -4 -5 -5 0 11 32 74 107 99 40 13 0 -2 0 12 32 74 107 99 40 13 0 -4 -6 -6 -6 -6 -6 -6 -6 -6 -6 -6 -6 -6 -6 -6 -6 -6 -6 -6 -6 -6 -6 -6 -4 12 82 
81 12 -4 -5 -3 4 37 100 100 37 4 -3 -4 -4 -4 -3 0 8 11 12 12 12 12 12 12 12 12 15 31 67 78 80 81 81 81 81 81 82 87 107 107 87 82 81 81 81 81 81 81 80 78 67 31 15 12 12 12 12 12 12 12 11 8 0 4 29 73 106 106 73 29 3 -3 -5 -6 -5 -4 0 13 40 99 107 74 32 11 0 -5 -6 -6 -6 -6 -6 -6 -6 -6 -6 -6 -6 -6 -6 -6 -6 -6 -6 -6 -6 -6 -4 12 81 
81 12 -3 0 13 40 100 100 37 4 -4 -6 -6 -6 -6 -6 -6 -4 -4 -4 -4 -4 -4 -4 -4 -4 -4 -3 0 8 11 12 12 12 12 12 12 12 15 31 67 78 80 81 81 81 81 81 81 82 87 107 107 87 82 81 81 81 81 81 80 78 67 36 44 99 107 74 32 11 0 -5 -6 -6 -6 -6 -6 -5 -3 3 29 73 106 106 73 29 3 -3 -5 -6 -6 -6 -6 -6 -6 -6 -6 -6 -6 -6 -6 -6 -6 -6 -6 -6 -6 -4 12 81 
81 13 5 29 74 107 99 37 4 -4 -6 -6 -6 -6 -6 -6 -6 -6 -6 -6 -6 -6 -6 -6 -6 -6 -6 -6 -6 -4 -4 -4 -4 -4 -4 -4 -4 -4 -3 0 8 11 12 12 12 12 12 12 12 12 15 31 67 78 80 81 81 81 81 81 82 87 110 122 123 102 40 13 0 -4 -6 -6 -6 -6 -6 -6 -6 -6 -6 -5 0 11 32 74 107 99 40 13 0 -4 -6 -6 -6 -6 -6 -6 -6 -6 -6 -6 -6 -6 -6 -6 -6 -6 -6 -4 12 81 
82 22 39 99 107 74 28 2 -4 -6 -6 -6 -6 -6 -6 -6 -6 -6 -6 -6 -6 -6 -6 -6 -6 -6 -6 -6 -6 -6 -6 -6 -6 -6 -6 -6 -6 -6 -6 -6 -4 -4 -4 -4 -4 -4 -4 -4 -4 -4 -3 0 8 11 12 12 12 12 12 12 12 17 45 125 124 41 5 -3 -5 -6 -6 -6 -6 -6 -6 -6 -6 -6 -6 -6 -6 -4 0 13 40 99 107 74 32 11 0 -5 -6 -6 -6 -6 -6 -6 -6 -6 -6 -6 -6 -6 -6 -6 -6 -4 12 81 
90 54 102 100 40 13 0 -5 -6 -6 -6 -6 -6 -6 -6 -6 -6 -6 -6 -6 -6 -6 -6 -6 -6 -6 -6 -6 -6 -6 -6 -6 -6 -6 -6 -6 -6 -6 -6 -6 -6 -6 -6 -6 -6 -6 -6 -6 -6 -6 -6 -6 -4 -4 -4 -4 -4 -4 -4 -4 -4 -1 17 90 90 17 -3 -6 -6 -6 -6 -6 -6 -6 -6 -6 -6 -6 -6 -6 -6 -6 -5 -3 3 29 73 106 106 73 29 3 -3 -5 -6 -6 -6 -6 -6 -6 -6 -6 -6 -6 -6 -6 -6 -4 12 81 
115 114 101 37 4 -3 -5 -6 -6 -6 -6 -6 -6 -6 -6 -6 -6 -6 -6 -6 -6 -6 -6 -6 -6 -6 -6 -6 -6 -6 -6 -6 -6 -6 -6 -6 -6 -6 -6 -6 -6 -6 -6 -6 -6 -6 -6 -6 -6 -6 -6 -6 -6 -6 -6 -6 -6 -6 -6 -6 -6 -4 12 82 82 12 -4 -6 -6 -6 -6 -6 -6 -6 -6 -6 -6 -6 -6 -6 -6 -6 -6 -6 -5 0 11 32 74 107 99 40 13 0 -4 -6 -6 -6 -6 -6 -6 -6 -6 -6 -6 -6 -6 -4 12 83 
153 106 37 4 -4 -6 -6 -6 -6 -6 -6 -6 -6 -6 -6 -6 -6 -6 -6 -6 -6 -6 -6 -6 -6 -6 -6 -6 -6 -6 -6 -6 -6 -6 -6 -6 -6 -6 -6 -6 -6 -6 -6 -6 -6 -6 -6 -6 -6 -6 -6 -6 -6 -6 -6 -6 -6 -6 -6 -6 -6 -4 12 81 81 12 -4 -6 -6 -6 -6 -6 -6 -6 -6 -6 -6 -6 -6 -6 -6 -6 -6 -6 -6 -6 -4 0 13 40 99 107 74 32 12 0 -4 -6 -6 -6 -6 -6 -6 -6 -6 -6 -6 -4 12 86 
123 41 4 -4 -6 -6 -6 -6 -6 -6 -6 -6 -6 -6 -6 -6 -6 -6 -6 -6 -6 -6 -6 -6 -6 -6 -6 -6 -6 -6 -6 -6 -6 -6 -6 -6 -6 -6 -6 -6 -6 -6 -6 -6 -6 -6 -6 -6 -6 -6 -6 -6 -6 -6 -6 -6 -6 -6 -6 -6 -6 -4 12 81 81 12 -4 -6 -6 -6 -6 -6 -6 -6 -6 -6 -6 -6 -6 -6 -6 -6 -6 -6 -6 -6 -6 -5 -3 3 29 73 106 106 74 32 11 0 -5 -6 -6 -6 -6 -6 -6 -6 -6 -4 12 85 
89 17 -3 -6 -6 -6 -6 -6 -6 -6 -6 -6 -6 -6 -6 -6 -6 -6 -6 -6 -6 -6 -6 -6 -6 -6 -6 -6 -6 -6 -6 -6 -6 -6 -6 -6 -6 -6 -6 -6 -6 -6 -6 -6 -6 -6 -6 -6 -6 -6 -6 -6 -6 -6 -6 -6 -6 -6 -6 -6 -6 -4 12 81 81 12 -4 -6 -6 -6 -6 -6 -6 -6 -6 -6 -6 -6 -6 -6 -6 -6 -6 -6 -6 -6 -6 -6 -6 -5 0 11 32 74 106 106 73 29 3 -3 -5 -6 -6 -6 -6 -6 -6 -4 12 82 
82 12 -4 -6 -6 -6 -6 -6 -6 -6 -6 -6 -6 -6 -6 -6 -6 -6 -6 -6 -6 -6 -6 -6 -6 -6 -6 -6 -6 -6 -6 -6 -6 -6 -6 -6 -6 -6 -6 -6 -6 -6 -6 -6 -6 -6 -6 -6 -6 -6 -6 -6 -6 -6 -6 -6 -6 -6 -6 -6 -6 -4 12 81 81 12 -4 -6 -6 -6 -6 -6 -6 -6 -6 -6 -6 -6 -6 -6 -6 -6 -6 -6 -6 -6 -6 -6 -6 -6 -6 -4 0 12 32 74 107 99 40 13 0 -3 -4 -4 -6 -6 -6 -4 12 81 
81 12 -4 -6 -6 -6 -6 -6 -6 -6 -6 -6 -6 -6 -6 -6 -6 -6 -6 -6 -6 -6 -6 -6 -6 -6 -6 -6 -6 -6 -6 -6 -6 -6 -6 -6 -6 -6 -6 -6 -6 -6 -6 -6 -6 -6 -6 -6 -6 -6 -6 -6 -6 -6 -6 -6 -6 -6 -6 -6 -6 -4 12 81 81 12 -4 -6 -6 -6 -6 -6 -6 -6 -6 -6 -6 -6 -6 -6 -6 -6 -6 -6 -6 -6 -6 -6 -6 -6 -6 -6 -5 -4 0 13 40 101 109 76 33 15 11 8 0 -3 -4 -2 12 81 
81 12 -4 -6 -6 -6 -6 -6 -6 -6 -6 -6 -6 -6 -6 -6 -6 -6 -6 -6 -6 -6 -6 -6 -6 -6 -6 -6 -6 -6 -6 -6 -6 -6 -6 -6 -6 -6 -6 -6 -6 -6 -6 -6 -6 -6 -6 -6 -6 -6 -6 -6 -6 -6 -6 -6 -6 -6 -6 -6 -6 -4 12 81 81 12 -4 -6 -6 -6 -6 -6 -6 -6 -6 -6 -6 -6 -6 -6 -6 -6 -6 -6 -6 -6 -6 -6 -6 -6 -6 -6 -6 -5 -4 0 10 46 105 150 121 89 79 67 31 15 12 10 18 83 
82 12 -4 -6 -6 -6 -6 -6 -6 -6 -6 -6 -6 -6 -6 -6 -6 -6 -6 -6 -6 -6 -6 -6 -6 -6 -6 -6 -6 -6 -6 -6 -6 -6 -6 -6 -6 -6 -6 -6 -6 -6 -6 -6 -6 -6 -6 -6 -6 -6 -6 -6 -6 -6 -6 -6 -6 -6 -6 -6 -6 -4 12 81 81 12 -4 -6 -6 -6 -6 -6 -6 -6 -6 -6 -6 -6 -6 -6 -6 -6 -6 -6 -6 -6 -6 -6 -6 -6 -6 -5 -4 0 8 15 33 79 118 118 93 83 87 107 107 86 79 69 48 96 
87 14 -2 -4 -4 -4 -4 -4 -4 -6 -6 -6 -6 -6 -6 -6 -6 -6 -6 -6 -6 -6 -6 -6 -6 -6 -6 -6 -6 -6 -6 -6 -6 -6 -6 -6 -6 -6 -6 -6 -6 -6 -6 -6 -6 -6 -6 -6 -6 -6 -6 -6 -6 -6 -6 -6 -6 -6 -6 -6 -6 -4 12 81 81 12 -4 -6 -6 -6 -6 -6 -6 -6 -6 -6 -6 -6 -6 -6 -6 -6 -6 -6 -6 -6 -6 -6 -6 -4 -3 0 11 30 68 85 107 106 74 33 16 13 15 31 67 79 87 108 118 139 
97 30 14 12 12 12 12 11 8 0 -3 -4 -4 -4 -4 -4 -4 -6 -6 -6 -6 -6 -6 -6 -6 -6 -6 -6 -6 -6 -6 -6 -6 -6 -6 -6 -6 -6 -6 -6 -6 -6 -6 -6 -6 -6 -6 -6 -6 -6 -6 -6 -6 -6 -6 -6 -6 -6 -6 -6 -6 -4 12 81 81 12 -4 -6 -6 -6 -6 -6 -6 -6 -6 -6 -6 -6 -6 -6 -6 -6 -6 -6 -6 -6 -6 -4 0 8 15 32 74 105 107 85 68 30 11 0 -3 -4 -3 0 8 11 15 33 80 134 
136 94 82 81 81 81 80 78 67 31 15 12 12 12 12 11 8 0 -3 -4 -4 -4 -4 -4 -4 -4 -6 -6 -6 -6 -6 -6 -6 -6 -6 -6 -6 -6 -6 -6 -6 -6 -6 -6 -6 -6 -6 -6 -6 -6 -6 -6 -6 -6 -6 -6 -6 -6 -6 -6 -6 -4 12 81 81 12 -4 -6 -6 -6 -6 -6 -6 -6 -6 -6 -6 -6 -6 -6 -6 -6 -6 -6 -4 -3 0 11 30 68 85 107 105 74 32 15 8 0 -4 -6 -6 -6 -6 -6 -4 -4 -3 1 26 97 
135 94 82 81 81 81 82 87 107 107 87 82 81 81 80 78 67 31 15 12 12 12 12 12 11 8 0 -3 -4 -4 -4 -4 -4 -4 -6 -6 -6 -6 -6 -6 -6 -6 -6 -6 -6 -6 -6 -6 -6 -6 -6 -6 -6 -6 -6 -6 -6 -6 -6 -6 -6 -4 12 81 81 12 -4 -6 -6 -6 -6 -6 -6 -6 -6 -6 -6 -6 -6 -6 -6 -6 -4 0 8 15 32 74 105 107 85 68 30 11 0 -3 -4 -6 -6 -6 -6 -6 -6 -6 -6 -6 -6 -3 13 87 
93 30 14 12 12 12 12 15 31 67 78 80 81 81 82 87 107 107 87 82 81 81 81 80 78 67 31 15 12 12 12 12 11 8 0 -3 -4 -4 -4 -4 -4 -4 -4 -6 -6 -6 -6 -6 -6 -6 -6 -6 -6 -6 -6 -6 -6 -6 -6 -6 -6 -4 12 81 81 12 -4 -6 -6 -6 -6 -6 -6 -6 -6 -6 -6 -6 -6 -5 -4 0 11 30 68 85 107 105 74 32 15 8 0 -4 -6 -6 -6 -6 -6 -6 -6 -6 -6 -6 -6 -6 -6 -4 12 82 
82 14 -2 -4 -4 -4 -4 -3 0 8 11 12 12 12 12 15 31 67 78 80 81 81 81 82 87 107 107 87 82 81 81 80 78 67 31 15 12 12 12 12 12 11 8 0 -3 -4 -4 -4 -4 -4 -4 -6 -6 -6 -6 -6 -6 -6 -6 -6 -6 -4 12 81 81 12 -4 -6 -6 -6 -6 -6 -6 -6 -6 -6 -6 -4 -3 0 12 32 74 105 107 85 68 30 11 0 -3 -4 -6 -6 -6 -6 -6 -6 -6 -6 -6 -6 -6 -6 -6 -6 -6 -4 12 81 
81 12 -4 -6 -6 -6 -6 -6 -6 -4 -4 -4 -4 -4 -4 -3 0 8 11 12 12 12 12 12 15 31 67 78 80 81 81 82 87 107 107 87 82 81 81 81 80 78 67 31 15 12 12 12 12 11 8 0 -3 -4 -4 -4 -4 -4 -4 -4 -5 -4 12 81 81 12 -4 -6 -6 -6 -6 -6 -6 -6 -6 -4 0 8 15 32 74 106 106 74 32 15 8 0 -4 -6 -6 -6 -6 -6 -6 -6 -6 -6 -6 -6 -6 -6 -6 -6 -6 -6 -6 -4 12 81 
81 12 -4 -6 -6 -6 -6 -6 -6 -6 -6 -6 -6 -6 -6 -6 -6 -4 -4 -4 -4 -4 -4 -4 -3 0 8 11 12 12 12 12 15 31 67 78 80 81 81 81 82 87 107 107 87 82 81 81 80 78 67 31 15 12 12 12 12 12 11 8 0 -1 14 82 82 12 -4 -6 -6 -6 -6 -6 -4 -3 0 11 30 68 85 107 105 74 32 12 0 -3 -4 -6 -6 -6 -6 -6 -6 -6 -6 -6 -6 -6 -6 -6 -6 -6 -6 -6 -6 -6 -6 -4 12 81 
81 12 -4 -6 -6 -6 -6 -6 -6 -6 -6 -6 -6 -6 -6 -6 -6 -6 -6 -6 -6 -6 -6 -6 -6 -6 -4 -4 -4 -4 -4 -4 -3 0 8 11 12 12 12 12 12 15 31 67 78 80 81 81 82 87 107 107 87 82 81 81 81 80 78 67 31 18 30 94 90 17 -3 -6 -6 -5 -4 0 8 15 32 74 105 107 85 68 30 11 0 -4 -5 -6 -6 -6 -6 -6 -6 -6 -6 -6 -6 -6 -6 -6 -6 -6 -6 -6 -6 -6 -6 -6 -6 -4 12 81 
81 12 -4 -6 -6 -6 -6 -6 -6 -6 -6 -6 -6 -6 -6 -6 -6 -6 -6 -6 -6 -6 -6 -6 -6 -6 -6 -6 -6 -6 -6 -6 -6 -6 -4 -4 -4 -4 -4 -4 -4 -3 0 8 11 12 12 12 12 15 31 67 78 80 81 81 81 82 87 107 107 88 94 135 125 41 5 -3 -3 0 11 30 68 85 107 105 74 32 15 8 0 -4 -6 -6 -6 -6 -6 -6 -6 -6 -6 -6 -6 -6 -6 -6 -6 -6 -6 -6 -6 -6 -6 -6 -6 -6 -6 -4 12 81 
81 12 -4 -6 -6 -6 -6 -6 -6 -6 -6 -6 -6 -6 -6 -6 -6 -6 -6 -6 -6 -6 -6 -6 -6 -6 -6 -6 -6 -6 -6 -6 -6 -6 -6 -6 -6 -6 -6 -6 -6 -6 -6 -4 -4 -4 -4 -4 -4 -3 0 8 11 12 12 12 12 12 15 31 67 79 83 94 117 102 41 17 16 32 74 105 107 85 68 30 11 0 -3 -4 -6 -6 -6 -6 -6 -6 -6 -6 -6 -6 -6 -6 -6 -6 -6 -6 -6 -6 -6 -6 -6 -6 -6 -6 -6 -6 -6 -4 12 81 
81 12 -4 -6 -6 -6 -6 -6 -6 -6 -6 -6 -6 -6 -6 -6 -6 -6 -6 -6 -6 -6 -6 -6 -6 -6 -6 -6 -6 -6 -6 -6 -6 -6 -6 -6 -6 -6 -6 -6 -6 -6 -6 -6 -6 -6 -6 -6 -6 -6 -6 -4 -4 -4 -4 -4 -4 -4 -3 0 8 11 12 17 41 102 117 94 89 107 105 74 32 15 8 0 -4 -6 -6 -6 -6 -6 -6 -6 -6 -6 -6 -6 -6 -6 -6 -6 -6 -6 -6 -6 -6 -6 -6 -6 -6 -6 -6 -6 -6 -6 -6 -4 12 81 
81 12 -4 -6 -6 -6 -6 -6 -6 -6 -6 -6 -6 -6 -6 -6 -6 -6 -6 -6 -6 -6 -6 -6 -6 -6 -6 -6 -6 -6 -6 -6 -6 -6 -6 -6 -6 -6 -6 -6 -6 -6 -6 -6 -6 -6 -6 -6 -6 -6 -6 -6 -6 -6 -6 -6 -6 -6 -6 -6 -4 -4 -4 -3 5 41 125 135 91 68 31 11 0 -3 -4 -6 -6 -6 -6 -6 -6 -6 -6 -6 -6 -6 -6 -6 -6 -6 -6 -6 -6 -6 -6 -6 -6 -6 -6 -6 -6 -6 -6 -6 -6 -6 -6 -4 12 81 
81 12 -4 -6 -6 -6 -6 -6 -6 -6 -6 -6 -6 -6 -6 -6 -6 -6 -6 -6 -6 -6 -6 -6 -6 -6 -6 -6 -6 -6 -6 -6 -6 -6 -6 -6 -6 -6 -6 -6 -6 -6 -6 -6 -6 -6 -6 -6 -6 -6 -6 -6 -6 -6 -6 -6 -6 -6 -6 -6 -6 -6 -6 -6 -3 17 90 94 29 10 0 -4 -5 -6 -6 -6 -6 -6 -6 -6 -6 -6 -6 -6 -6 -6 -6 -6 -6 -6 -6 -6 -6 -6 -6 -6 -6 -6 -6 -6 -6 -6 -6 -6 -6 -6 -6 -4 12 81 
81 12 -4 -6 -6 -6 -6 -6 -6 -6 -6 -6 -6 -6 -6 -6 -6 -6 -6 -6 -6 -6 -6 -6 -6 -6 -6 -6 -6 -6 -6 -6 -6 -6 -6 -6 -6 -6 -6 -6 -6 -6 -6 -6 -6 -6 -6 -6 -6 -6 -6 -6 -6 -6 -6 -6 -6 -6 -6 -6 -6 -6 -6 -6 -4 12 82 82 14 -2 -5 -6 -6 -6 -6 -6 -6 -6 -6 -6 -6 -6 -6 -6 -6 -6 -6 -6 -6 -6 -6 -6 -6 -6 -6 -6 -6 -6 -6 -6 -6 -6 -6 -6 -6 -6 -6 -4 12 81 
82 14 -2 -4 -4 -4 -4 -4 -4 -4 -4 -4 -4 -4 -4 -4 -4 -4 -4 -4 -4 -4 -4 -4 -4 -4 -4 -4 -4 -4 -4 -4 -4 -4 -4 -4 -4 -4 -4 -4 -4 -4 -4 -4 -4 -4 -4 -4 -4 -4 -4 -4 -4 -4 -4 -4 -4 -4 -4 -4 -4 -4 -4 -4 -2 14 82 83 14 -1 -4 -4 -4 -4 -4 -4 -4 -4 -4 -4 -4 -4 -4 -4 -4 -4 -4 -4 -4 -4 -4 -4 -4 -4 -4 -4 -4 -4 -4 -4 -4 -4 -4 -4 -4 -4 -4 -2 14 82 
94 30 14 12 12 12 12 12 12 12 12 12 12 12 12 12 12 12 12 12 12 12 12 12 12 12 12 12 12 12 12 12 12 12 12 12 12 12 12 12 12 12 12 12 12 12 12 12 12 12 12 12 12 12 12 12 12 12 12 12 12 12 12 12 14 30 94 94 30 14 12 12 12 12 12 12 12 12 12 12 12 12 12 12 12 12 12 12 12 12 12 12 12 12 12 12 12 12 12 12 12 12 12 12 12 12 12 14 30 94 
140 94 82 81 81 81 81 81 81 81 81 81 81 81 81 81 81 81 81 81 81 81 81 81 81 81 81 81 81 81 81 81 83 86 85 82 81 81 81 81 81 81 81 81 81 81 81 81 82 85 85 82 81 81 81 81 81 81 81 81 81 81 81 81 82 93 135 135 93 82 81 81 81 81 81 81 81 81 81 81 81 81 81 81 81 81 81 81 81 81 81 82 86 85 82 81 81 81 81 81 81 81 81 82 86 85 82 82 94 140 
