P2
110 110
255
152 126 107 98 96 95 95 95 95 95 95 95 95 95 95 95 95 95 95 95 95 95 95 95 95 95 95 95 96 99 107 121 137 138 123 108 100 96 95 95 95 95 95 95 95 96 98 105 120 138 137 119 104 98 96 95 95 95 95 95 95 95 95 96 97 99 102 102 99 97 96 95 95 95 95 95 95 95 95 95 95 95 95 95 95 95 95 96 98 103 116 134 139 126 109 100 97 96 95 96 97 102 113 132 140 128 113 112 127 152 
126 90 63 52 49 48 48 48 48 48 48 48 48 48 48 48 48 48 48 48 48 48 48 48 48 48 48 49 51 59 77 107 130 119 88 64 53 49 48 48 48 48 48 48 48 49 53 65 93 128 125 89 63 52 49 48 48 48 48 48 48 48 48 48 47 47 47 47 47 47 48 48 48 48 48 48 48 48 48 48 48 48 48 48 48 48 48 49 54 66 93 125 126 95 67 54 50 48 48 49 52 61 84 119 129 100 74 70 92 126 
107 63 32 20 16 15 15 15 15 15 15 15 15 15 15 15 15 15 15 15 15 15 15 15 15 15 16 17 23 37 66 103 113 81 46 27 19 16 15 15 15 15 15 15 15 17 22 38 74 116 109 63 32 20 16 15 15 15 15 15 15 15 15 15 15 14 14 14 14 15 15 15 15 15 15 15 15 15 15 15 15 15 15 15 15 15 16 18 24 44 81 114 98 57 31 20 16 15 15 16 20 32 63 106 109 69 40 38 64 107 
98 52 20 7 3 2 2 2 2 2 2 2 2 2 2 2 2 2 2 2 2 2 2 2 2 3 4 7 18 42 80 107 90 50 22 9 4 3 2 2 2 2 2 2 3 5 13 35 77 120 102 51 19 7 3 2 2 2 2 2 2 2 2 2 2 2 2 2 2 2 2 2 2 2 2 2 2 2 2 2 2 2 2 2 2 2 3 6 17 44 87 107 73 33 13 5 3 2 3 4 9 25 61 103 94 50 24 24 53 99 
96 49 16 3 0 0 0 -1 -1 -1 -1 -1 -1 -1 -1 -1 -1 -1 -1 -1 -1 -1 -1 0 0 0 2 9 28 63 99 99 62 27 9 2 0 0 0 -1 -1 -1 0 0 0 4 17 47 96 131 102 47 15 3 0 0 0 -1 -1 -1 -1 -1 -1 -1 -1 -1 -1 -1 -1 -1 -1 -1 -1 -1 -1 -1 -1 -1 -1 -1 -1 -1 -1 -1 0 0 0 5 20 55 97 97 54 20 5 0 0 0 0 1 8 28 69 105 82 38 16 20 50 96 
95 48 15 2 0 -1 -1 -1 -1 -1 -1 -1 -1 -1 -1 -1 -1 -1 -1 -1 -1 -1 -1 -1 -1 0 5 19 49 89 104 75 37 13 3 0 -1 -1 -1 -1 -1 -1 -1 -1 1 8 28 68 117 138 103 47 15 2 0 -1 -1 -1 -1 -1 -1 -1 -1 -1 -1 -1 -1 -1 -1 -1 -1 -1 -1 -1 -1 -1 -1 -1 -1 -1 -1 -1 -1 -1 -1 -1 1 9 30 71 104 83 39 12 2 0 -1 -1 -1 1 11 36 82 104 69 28 12 18 49 95 
95 48 15 2 0 -1 -2 -2 -2 -2 -2 -2 -2 -2 -2 -2 -2 -2 -2 -2 -2 -2 -2 -1 0 2 13 37 75 104 88 48 19 5 0 -1 -2 -2 -2 -2 -2 -2 -1 0 4 16 46 92 129 137 104 51 16 3 0 -1 -2 -2 -2 -2 -2 -2 -2 -2 -2 -2 -2 -2 -2 -2 -2 -2 -2 -2 -2 -2 -2 -2 -2 -2 -2 -2 -2 -2 -1 0 3 16 46 89 102 65 26 7 0 -1 -1 -1 0 2 15 46 92 99 56 21 9 17 48 95 
95 48 15 2 -1 -1 -2 -2 -2 -2 -2 -2 -2 -2 -2 -2 -2 -2 -2 -2 -2 -2 -1 -1 1 8 27 62 98 98 62 27 8 1 -1 -1 -2 -2 -2 -2 -2 -1 -1 1 9 30 69 109 123 126 107 57 20 4 0 -1 -2 -2 -2 -2 -2 -2 -2 -2 -2 -2 -2 -2 -2 -2 -2 -2 -2 -2 -2 -2 -2 -2 -2 -2 -2 -2 -2 -2 -1 0 7 26 65 102 89 46 16 3 0 -1 -2 -1 0 4 20 56 99 92 46 16 7 16 48 95 
95 48 15 2 -1 -1 -2 -2 -2 -2 -2 -2 -2 -2 -2 -2 -2 -2 -2 -2 -2 -2 -1 0 5 19 48 88 104 75 37 13 2 0 -1 -2 -2 -2 -2 -2 -2 -1 0 5 19 50 92 111 102 108 109 68 27 7 0 -1 -2 -2 -2 -2 -2 -2 -2 -2 -2 -2 -2 -2 -2 -2 -2 -2 -2 -2 -2 -2 -2 -2 -2 -2 -2 -2 -2 -1 -1 2 12 39 83 104 71 30 9 0 -1 -1 -2 -1 0 7 27 68 104 81 36 12 6 16 48 95 
95 48 15 2 -1 -1 -2 -2 -2 -2 -2 -2 -2 -2 -2 -2 -2 -2 -2 -2 -2 -1 0 2 13 37 75 104 88 48 19 5 0 -1 -2 -2 -2 -2 -2 -2 -1 0 2 13 37 76 105 95 74 86 108 80 35 10 1 -1 -2 -2 -2 -2 -2 -2 -2 -2 -2 -2 -2 -2 -2 -2 -2 -2 -2 -2 -2 -2 -2 -2 -2 -2 -2 -2 -2 -1 0 4 19 53 96 96 53 19 4 0 -1 -2 -1 -1 1 10 36 81 104 68 27 8 5 16 48 95 
95 48 15 2 -1 -1 -2 -2 -2 -2 -2 -2 -2 -2 -2 -2 -2 -2 -2 -2 -1 -1 1 8 27 62 98 98 62 27 8 1 -1 -1 -2 -2 -2 -2 -2 -2 -1 0 7 26 61 98 100 68 49 68 103 89 42 12 1 -1 -1 -2 -2 -2 -2 -2 -2 -2 -2 -2 -2 -2 -2 -2 -2 -2 -2 -2 -2 -2 -2 -2 -2 -2 -2 -2 -2 -1 0 9 30 71 104 83 39 12 2 -1 -1 -2 -1 0 2 15 46 92 99 56 20 5 4 15 48 95 
96 49 16 3 0 -1 -2 -2 -2 -2 -2 -2 -2 -2 -2 -2 -2 -2 -2 -2 -1 0 5 19 48 88 104 75 37 13 2 0 -1 -2 -2 -2 -2 -2 -2 -1 0 3 16 45 86 104 77 42 32 56 98 93 46 14 2 -1 -1 -2 -2 -2 -2 -2 -2 -2 -2 -2 -2 -2 -2 -2 -2 -2 -2 -2 -2 -2 -2 -2 -2 -2 -2 -2 -1 0 3 16 46 89 102 65 26 7 0 -1 -2 -2 -1 0 4 20 56 99 92 46 15 3 3 15 48 95 
100 53 18 4 0 -1 -2 -2 -2 -2 -2 -2 -2 -2 -2 -2 -2 -2 -2 -1 0 2 13 37 75 104 88 48 19 5 0 -1 -2 -2 -2 -2 -2 -2 -2 -1 1 8 29 67 102 91 51 24 23 51 96 95 48 15 2 0 -1 -2 -2 -2 -2 -2 -2 -2 -2 -2 -2 -2 -2 -2 -2 -2 -2 -2 -2 -2 -2 -2 -2 -2 -2 -2 -1 0 7 26 65 102 89 46 16 3 0 -1 -2 -2 -1 0 7 27 68 104 81 36 11 2 3 15 48 96 
108 64 25 7 1 -1 -1 -2 -2 -2 -2 -2 -2 -2 -2 -2 -2 -2 -1 -1 1 8 27 62 98 98 62 27 8 1 -1 -1 -2 -2 -2 -2 -2 -2 -1 0 4 17 47 89 103 69 31 14 18 47 93 97 52 17 3 0 -1 -2 -2 -2 -2 -2 -2 -2 -2 -2 -2 -2 -2 -2 -2 -2 -2 -2 -2 -2 -2 -2 -2 -2 -2 -1 -1 2 12 39 83 104 71 30 9 0 -1 -2 -2 -2 -1 1 10 36 81 104 68 27 7 1 3 15 47 97 
123 86 43 17 5 0 -1 -2 -2 -2 -2 -2 -2 -2 -2 -2 -2 -2 -1 0 5 19 48 88 104 75 37 13 2 0 -1 -2 -2 -2 -2 -2 -2 -1 -1 1 9 30 69 103 89 47 18 8 14 42 89 101 58 21 4 0 -1 -2 -2 -2 -2 -2 -2 -2 -2 -2 -2 -2 -2 -2 -2 -2 -2 -2 -2 -2 -2 -2 -2 -2 -2 -1 0 4 19 53 96 96 53 19 4 0 -1 -2 -2 -1 0 2 15 46 92 99 56 20 4 0 2 14 47 100 
137 116 73 37 14 4 0 -1 -2 -2 -2 -2 -2 -2 -2 -2 -2 -1 0 2 13 37 75 104 88 48 19 5 0 -1 -2 -2 -2 -2 -2 -2 -2 -1 0 5 19 50 91 102 67 29 9 4 11 35 80 104 69 27 7 0 -1 -2 -2 -2 -2 -2 -2 -2 -2 -2 -2 -2 -2 -2 -2 -2 -2 -2 -2 -2 -2 -2 -2 -2 -2 -1 0 9 30 71 104 83 39 12 2 -1 -1 -2 -2 -1 0 4 20 56 99 92 46 15 2 0 2 14 46 102 
137 131 105 68 33 12 2 0 -1 -2 -2 -2 -2 -2 -2 -2 -1 -1 1 8 27 62 98 98 62 27 8 1 -1 -1 -2 -2 -2 -2 -2 -2 -1 0 2 13 37 76 104 86 45 16 4 1 7 27 69 104 80 35 10 1 -1 -2 -2 -2 -2 -2 -2 -2 -2 -2 -2 -2 -2 -2 -2 -2 -2 -2 -2 -2 -2 -2 -2 -2 -1 0 3 16 46 89 102 65 26 7 0 -1 -2 -2 -2 -1 0 7 27 68 104 81 36 10 1 0 2 14 47 101 
124 117 114 98 60 27 8 1 -1 -1 -2 -2 -2 -2 -2 -2 -1 0 5 19 48 88 104 75 37 13 2 0 -1 -2 -2 -2 -2 -2 -2 -2 -1 0 7 26 61 98 98 61 26 7 1 0 4 21 58 101 89 42 12 1 -1 -1 -2 -2 -2 -2 -2 -2 -2 -2 -2 -2 -2 -2 -2 -2 -2 -2 -2 -2 -2 -2 -2 -2 -1 0 7 26 65 102 89 46 16 3 0 -1 -2 -2 -2 -1 1 10 36 81 104 68 27 7 0 0 2 15 47 99 
111 90 94 107 89 49 20 6 0 -1 -1 -2 -2 -2 -2 -1 0 2 13 37 75 104 88 48 19 5 0 -1 -2 -2 -2 -2 -2 -2 -2 -1 0 3 16 45 86 104 76 37 13 2 0 0 3 17 52 97 93 46 14 2 -1 -1 -2 -2 -2 -2 -2 -2 -2 -2 -2 -2 -2 -2 -2 -2 -2 -2 -2 -2 -2 -2 -2 -1 -1 2 12 39 83 104 71 30 9 0 -1 -2 -2 -2 -1 0 2 15 46 92 99 56 20 4 0 0 2 15 47 97 
102 70 67 92 105 78 41 17 5 0 -1 -1 -2 -2 -1 -1 1 8 27 62 98 98 62 27 8 1 -1 -1 -2 -2 -2 -2 -2 -2 -2 -1 1 8 29 67 102 91 50 19 5 0 -1 0 2 15 48 95 95 48 15 2 0 -1 -2 -2 -2 -2 -2 -2 -2 -2 -2 -2 -2 -2 -2 -2 -2 -2 -2 -2 -2 -2 -2 -1 0 4 19 53 96 96 53 19 4 0 -1 -2 -2 -2 -1 0 4 20 56 99 92 46 15 2 0 0 2 15 48 96 
98 59 44 65 97 102 73 39 16 5 0 -1 -1 -1 -1 0 5 19 48 88 104 75 37 13 2 0 -1 -2 -2 -2 -2 -2 -2 -2 -1 0 4 17 47 89 103 69 30 9 1 -1 -1 -1 2 14 46 93 97 52 17 3 0 -1 -2 -2 -2 -2 -2 -2 -2 -2 -2 -2 -2 -2 -2 -2 -2 -2 -2 -2 -2 -2 -2 -1 0 9 30 71 104 83 39 12 2 -1 -1 -2 -2 -2 -1 0 7 27 68 104 81 36 10 1 -1 0 2 15 48 95 
96 53 29 38 69 100 100 71 38 16 5 0 -1 -1 0 2 13 37 75 104 88 48 19 5 0 -1 -2 -2 -2 -2 -2 -2 -2 -1 -1 1 9 30 69 103 89 47 17 4 0 -1 -1 -1 1 12 42 89 101 58 21 4 0 -1 -2 -2 -2 -2 -2 -2 -2 -2 -2 -2 -2 -2 -2 -2 -2 -2 -2 -2 -2 -2 -1 0 3 16 46 89 102 65 26 7 0 -1 -2 -2 -2 -2 -1 1 10 36 81 104 68 27 7 0 -1 0 2 15 48 95 
96 50 21 19 38 71 100 100 71 38 16 5 0 0 1 8 27 62 98 98 62 27 8 1 -1 -1 -2 -2 -2 -2 -2 -2 -2 -1 0 5 19 50 91 102 67 29 8 1 -1 -1 -1 -1 1 10 35 80 104 69 27 7 0 -1 -2 -2 -2 -2 -2 -2 -2 -2 -2 -2 -2 -2 -2 -2 -2 -2 -2 -2 -2 -2 -1 0 7 26 65 102 89 46 16 3 0 -1 -2 -2 -2 -1 0 2 15 46 92 99 56 20 4 0 -1 0 2 15 48 95 
95 49 17 9 17 38 71 100 100 71 38 16 5 2 6 19 49 88 104 75 37 13 2 0 -1 -2 -2 -2 -2 -2 -2 -2 -1 0 2 13 37 76 104 86 45 16 3 0 -1 -2 -2 -1 0 7 27 69 104 80 35 10 1 -1 -2 -2 -2 -2 -2 -2 -2 -2 -2 -2 -2 -2 -2 -2 -2 -2 -2 -2 -2 -1 -1 2 12 39 83 104 71 30 9 0 -1 -2 -2 -2 -2 -1 0 4 20 56 99 92 46 15 2 0 -1 0 2 15 48 95 
95 48 16 5 6 16 38 71 100 100 71 38 17 10 16 38 75 104 88 48 19 5 0 -1 -2 -2 -2 -2 -2 -2 -2 -2 -1 0 7 26 61 98 98 61 26 7 0 -1 -2 -2 -2 -1 0 4 21 58 101 89 42 13 2 -1 -1 -2 -2 -2 -2 -2 -2 -2 -2 -2 -2 -2 -2 -2 -2 -2 -2 -2 -2 -1 0 4 19 53 96 96 53 19 4 0 -1 -2 -2 -2 -2 -1 0 7 27 68 104 81 36 10 1 -1 -1 -1 2 15 48 95 
95 48 15 3 1 5 16 38 71 100 100 72 42 27 35 65 99 98 62 27 8 1 -1 -1 -2 -2 -2 -2 -2 -2 -2 -1 0 3 16 45 86 104 76 37 13 2 0 -1 -2 -2 -2 -1 0 3 17 51 97 94 47 15 2 -1 -1 -2 -2 -2 -2 -2 -2 -2 -2 -2 -2 -2 -2 -2 -2 -2 -2 -2 -2 -1 0 9 30 71 104 83 39 12 2 -1 -1 -2 -2 -2 -2 -1 1 10 36 81 104 68 27 7 0 -1 -1 -1 2 15 48 95 
95 48 15 2 0 0 5 16 38 71 100 102 78 59 66 94 105 75 37 13 2 0 -1 -2 -2 -2 -2 -2 -2 -2 -2 -1 1 8 29 67 102 91 50 19 5 0 -1 -2 -2 -2 -2 -1 -1 2 15 47 94 97 51 17 3 0 -1 -2 -2 -2 -2 -2 -2 -2 -2 -2 -2 -2 -2 -2 -2 -2 -2 -2 -1 0 3 16 46 89 102 65 26 7 0 -1 -2 -2 -2 -2 -1 0 2 15 46 92 99 56 20 4 0 -1 -1 -1 2 15 48 95 
95 48 15 2 0 -1 0 5 16 38 71 102 110 103 107 113 89 48 19 5 0 -1 -2 -2 -2 -2 -2 -2 -2 -2 -1 0 4 17 47 89 103 69 30 9 1 -1 -1 -2 -2 -2 -2 -1 -1 2 13 42 89 101 58 21 4 0 -1 -2 -2 -2 -2 -2 -2 -2 -2 -2 -2 -2 -2 -2 -2 -2 -2 -2 -1 0 7 26 65 102 89 46 16 3 0 -1 -2 -2 -2 -2 -1 0 4 20 56 99 92 46 15 2 0 -1 -1 -1 2 15 48 95 
95 48 15 2 0 -1 -1 0 5 16 39 74 111 134 134 107 63 27 8 1 -1 -1 -2 -2 -2 -2 -2 -2 -2 -1 -1 1 9 30 69 103 89 47 17 4 0 -1 -2 -2 -2 -2 -2 -2 -1 1 10 35 80 104 69 27 7 0 -1 -2 -2 -2 -2 -2 -2 -2 -2 -2 -2 -2 -2 -2 -2 -2 -2 -1 -1 2 12 39 83 104 71 30 9 0 -1 -2 -2 -2 -2 -2 -1 0 7 27 68 104 81 36 10 1 -1 -1 -1 -1 2 15 48 95 
95 48 15 2 -1 -1 -1 -1 0 5 17 43 86 129 130 84 39 13 3 0 -1 -2 -2 -2 -2 -2 -2 -2 -2 -1 0 5 19 50 91 102 67 29 8 1 -1 -2 -2 -2 -2 -2 -2 -2 -1 0 7 27 69 104 80 35 10 1 -1 -2 -2 -2 -2 -2 -2 -2 -2 -2 -2 -2 -2 -2 -2 -2 -2 -1 0 4 19 53 96 96 53 19 4 0 -1 -2 -2 -2 -2 -2 -1 1 10 36 81 104 68 27 7 0 -1 -2 -1 -1 2 15 48 95 
95 48 15 2 -1 -1 -2 -1 -1 1 7 25 62 110 114 67 26 7 0 -1 -2 -2 -2 -2 -2 -2 -2 -2 -1 0 2 13 37 76 104 86 45 16 3 0 -1 -2 -2 -2 -2 -2 -2 -2 -1 0 4 21 58 101 89 42 12 1 -1 -1 -2 -2 -2 -2 -2 -2 -2 -2 -2 -2 -2 -2 -2 -2 -2 -1 0 9 30 71 104 83 39 12 2 -1 -1 -2 -2 -2 -2 -1 0 2 15 46 92 99 56 20 4 0 -1 -2 -1 -1 2 15 48 95 
95 48 15 2 -1 -1 -2 -2 -1 0 3 16 47 95 106 63 24 6 0 -1 -2 -2 -2 -2 -2 -2 -2 -2 -1 0 7 26 61 98 98 61 26 7 0 -1 -2 -2 -2 -2 -2 -2 -2 -2 -1 0 3 17 52 97 93 46 14 2 -1 -1 -2 -2 -2 -2 -2 -2 -2 -2 -2 -2 -2 -2 -2 -2 -1 0 3 16 46 89 102 65 26 7 0 -1 -2 -2 -2 -2 -2 -1 0 4 20 56 99 92 46 15 2 0 -1 -2 -1 -1 2 15 48 95 
95 48 15 2 -1 -1 -2 -2 -1 -1 1 11 36 82 106 70 28 7 0 -1 -2 -2 -2 -2 -2 -2 -2 -1 0 3 16 45 86 104 76 37 13 2 0 -1 -2 -2 -2 -2 -2 -2 -2 -2 -1 0 2 15 48 95 95 48 15 2 0 -1 -2 -2 -2 -2 -2 -2 -2 -2 -2 -2 -2 -2 -2 -2 -1 0 7 26 65 102 89 46 16 3 0 -1 -2 -2 -2 -2 -2 -1 0 7 27 68 104 81 36 10 1 -1 -2 -2 -1 -1 2 15 48 95 
95 48 15 2 -1 -1 -2 -2 -2 -1 0 7 27 69 104 81 36 10 1 -1 -2 -2 -2 -2 -2 -2 -2 -1 1 8 29 67 102 91 50 19 5 0 -1 -2 -2 -2 -2 -2 -2 -2 -2 -2 -1 -1 2 14 46 93 97 52 17 3 0 -1 -2 -2 -2 -2 -2 -2 -2 -2 -2 -2 -2 -2 -2 -1 -1 2 12 39 83 104 71 30 9 0 -1 -2 -2 -2 -2 -2 -2 -1 1 10 36 81 104 68 27 7 0 -1 -2 -2 -1 -1 2 15 48 95 
95 48 15 2 -1 -1 -2 -2 -2 -1 0 4 20 57 100 90 43 13 2 -1 -1 -2 -2 -2 -2 -2 -1 0 4 17 47 89 103 69 30 9 1 -1 -1 -2 -2 -2 -2 -2 -2 -2 -2 -2 -1 -1 1 12 42 89 101 58 21 4 0 -1 -2 -2 -2 -2 -2 -2 -2 -2 -2 -2 -2 -2 -2 -1 0 4 19 53 96 96 53 19 4 0 -1 -2 -2 -2 -2 -2 -1 0 2 15 46 92 99 56 20 4 0 -1 -2 -2 -1 0 2 16 49 96 
96 48 15 2 -1 -1 -2 -2 -2 -1 0 3 16 49 95 95 49 16 3 0 -1 -2 -2 -2 -2 -1 -1 1 9 30 69 103 89 47 17 4 0 -1 -2 -2 -2 -2 -2 -2 -2 -2 -2 -2 -2 -1 1 10 35 80 104 69 27 7 0 -1 -2 -2 -2 -2 -2 -2 -2 -2 -2 -2 -2 -2 -2 -1 0 9 30 71 104 83 39 12 2 -1 -1 -2 -2 -2 -2 -2 -1 0 4 20 56 99 92 46 15 2 0 -1 -2 -2 -1 0 3 17 52 99 
97 47 15 2 -1 -1 -2 -2 -2 -1 -1 2 13 43 90 100 57 20 4 0 -1 -2 -2 -2 -2 -1 0 5 19 50 91 102 67 29 8 1 -1 -2 -2 -2 -2 -2 -2 -2 -2 -2 -2 -2 -2 -1 0 7 27 69 104 80 35 10 1 -1 -2 -2 -2 -2 -2 -2 -2 -2 -2 -2 -2 -2 -1 0 3 16 46 89 102 65 26 7 0 -1 -2 -2 -2 -2 -2 -2 -1 0 7 27 68 104 81 36 10 1 -1 -2 -2 -2 -1 0 5 21 59 105 
99 46 14 2 -1 -1 -2 -2 -2 -2 -1 1 10 35 81 104 68 27 7 0 -1 -2 -2 -2 -1 0 2 13 37 76 104 86 45 16 3 0 -1 -2 -2 -2 -2 -2 -2 -2 -2 -2 -2 -2 -2 -1 0 4 21 58 101 89 42 12 1 -1 -1 -2 -2 -2 -2 -2 -2 -2 -2 -2 -2 -2 -1 0 7 26 65 102 89 46 16 3 0 -1 -2 -2 -2 -2 -2 -2 -1 1 10 36 81 104 68 27 7 0 -1 -2 -2 -1 -1 1 9 31 74 117 
101 46 14 2 -1 -1 -2 -2 -2 -2 -1 0 7 27 68 104 81 35 10 1 -1 -2 -2 -2 -1 0 7 26 61 98 98 61 26 7 0 -1 -2 -2 -2 -2 -2 -2 -2 -2 -2 -2 -2 -2 -2 -1 0 3 17 52 97 93 46 14 2 -1 -1 -2 -2 -2 -2 -2 -2 -2 -2 -2 -2 -1 -1 2 12 39 83 104 71 30 9 0 -1 -2 -2 -2 -2 -2 -2 -1 0 2 15 46 92 99 56 20 4 0 -1 -2 -2 -1 0 5 19 49 97 131 
101 46 14 2 -1 -1 -2 -2 -2 -2 -1 0 4 20 57 100 90 43 13 2 -1 -1 -2 -1 0 3 16 45 86 104 76 37 13 2 0 -1 -2 -2 -2 -2 -2 -2 -2 -2 -2 -2 -2 -2 -2 -1 0 2 15 48 95 95 48 15 2 0 -1 -2 -2 -2 -2 -2 -2 -2 -2 -2 -2 -1 0 4 19 53 96 96 53 19 4 0 -1 -2 -2 -2 -2 -2 -2 -1 0 4 20 56 99 92 46 15 2 0 -1 -2 -1 0 2 13 36 76 121 139 
100 47 14 2 -1 -1 -2 -2 -2 -2 -1 0 3 16 49 95 95 49 16 3 0 -1 -1 -1 1 8 29 67 102 91 50 19 5 0 -1 -2 -2 -2 -2 -2 -2 -2 -2 -2 -2 -2 -2 -2 -2 -1 -1 2 14 46 93 97 52 17 3 0 -1 -2 -2 -2 -2 -2 -2 -2 -2 -2 -2 -1 0 9 30 71 104 83 39 12 2 -1 -1 -2 -2 -2 -2 -2 -2 -1 0 7 27 68 104 81 36 10 1 -1 -1 -1 -1 1 8 27 62 104 130 135 
99 47 15 2 -1 -1 -2 -2 -2 -2 -1 -1 2 13 43 90 100 57 20 4 0 -1 -1 0 4 17 47 89 103 69 30 9 1 -1 -1 -2 -2 -2 -2 -2 -2 -2 -2 -2 -2 -2 -2 -2 -2 -1 -1 1 12 42 89 101 58 21 5 0 -1 -1 -2 -2 -2 -2 -2 -2 -2 -2 -1 0 3 16 46 89 102 65 26 7 0 -1 -2 -2 -2 -2 -2 -2 -2 -1 1 10 36 81 104 68 27 7 0 -1 -1 -1 0 5 19 48 89 115 118 124 
97 47 15 2 -1 -1 -2 -2 -2 -2 -2 -1 1 10 35 81 104 68 27 7 0 -1 -1 1 9 30 69 103 89 47 17 4 0 -1 -2 -2 -2 -2 -2 -2 -2 -2 -2 -2 -2 -2 -2 -2 -2 -2 -1 1 10 35 81 105 69 28 8 1 0 -1 -1 -1 -1 -1 -1 -1 -2 -1 -1 0 7 26 65 102 89 46 16 3 0 -1 -2 -2 -2 -2 -2 -2 -1 0 2 15 46 92 99 56 20 4 0 -1 -1 0 2 13 37 75 106 103 97 112 
96 48 15 2 -1 -1 -2 -2 -2 -2 -2 -1 0 7 27 68 104 81 35 10 1 0 0 5 19 50 91 102 67 29 8 1 -1 -2 -2 -2 -2 -2 -2 -2 -2 -2 -2 -2 -2 -2 -2 -2 -2 -2 -1 0 7 28 70 106 84 39 15 5 2 1 0 0 0 0 -1 -1 -1 -1 0 2 12 39 83 104 71 30 9 0 -1 -2 -2 -2 -2 -2 -2 -2 -1 0 4 20 56 99 92 46 15 2 0 -1 -1 1 8 27 62 99 102 79 77 104 
96 48 15 2 -1 -1 -2 -2 -2 -2 -2 -1 0 4 20 57 100 90 43 13 2 0 2 13 37 76 104 86 45 16 3 0 -1 -2 -2 -2 -2 -2 -2 -2 -2 -2 -2 -2 -2 -2 -2 -2 -2 -1 -1 0 7 25 64 108 100 57 29 18 13 10 7 4 3 2 2 1 1 0 1 5 20 54 97 96 53 19 4 0 -1 -2 -2 -2 -2 -2 -2 -2 -1 0 7 27 68 104 81 36 10 1 -1 -1 0 5 19 48 88 105 80 54 63 99 
95 48 15 2 -1 -1 -2 -2 -2 -2 -2 -1 0 3 16 49 95 95 49 16 3 2 8 26 61 98 98 61 26 7 0 -1 -2 -2 -2 -2 -2 -2 -2 -2 -2 -2 -2 -2 -2 -2 -2 -2 -1 -1 0 3 12 32 71 118 122 87 62 50 43 35 27 21 17 15 14 12 10 7 7 14 34 73 105 83 39 12 2 -1 -1 -2 -2 -2 -2 -2 -2 -2 -1 1 10 36 81 104 68 27 7 0 -1 0 2 13 37 75 104 89 53 36 55 97 
95 48 15 2 -1 -1 -2 -2 -2 -2 -2 -1 -1 2 13 43 90 100 57 21 6 5 16 45 86 104 76 37 13 2 0 -1 -2 -2 -2 -2 -2 -2 -2 -2 -2 -2 -2 -2 -2 -2 -1 -1 0 1 5 13 29 56 95 133 139 120 104 96 89 80 69 58 52 48 46 42 35 28 25 33 58 96 104 65 26 7 0 -1 -2 -2 -2 -2 -2 -2 -2 -1 0 2 15 46 92 99 56 20 4 0 0 1 8 27 62 98 99 63 32 26 51 96 
95 48 15 2 -1 -1 -2 -2 -2 -2 -2 -2 -1 1 10 35 81 104 69 28 10 11 29 67 102 91 50 19 5 0 -1 -2 -2 -2 -2 -2 -2 -2 -2 -2 -2 -2 -2 -2 -2 -1 -1 0 2 8 19 37 63 92 114 122 114 104 99 98 101 104 104 101 97 95 93 89 81 70 64 72 96 117 95 48 17 3 0 -1 -2 -2 -2 -2 -2 -2 -2 -1 0 4 20 56 99 92 46 15 2 0 0 5 19 48 88 104 75 38 18 20 49 95 
95 48 15 2 -1 -1 -2 -2 -2 -2 -2 -2 -1 0 7 27 68 104 81 37 16 20 47 89 103 69 30 9 1 -1 -1 -2 -2 -2 -2 -2 -2 -2 -2 -2 -2 -2 -2 -1 -1 0 1 5 13 27 49 75 99 106 94 75 60 52 50 52 58 69 80 89 93 95 97 101 104 106 107 116 133 130 86 38 12 2 -1 -1 -2 -2 -2 -2 -2 -2 -2 -1 0 7 27 68 104 81 36 11 1 0 3 13 37 75 104 88 49 20 10 17 48 95 
95 48 15 2 -1 -1 -2 -2 -2 -2 -2 -2 -1 0 4 20 57 100 90 47 25 34 70 103 89 47 17 4 0 -1 -2 -2 -2 -2 -2 -2 -2 -2 -2 -2 -2 -2 -1 -1 0 2 8 19 37 62 88 104 99 76 51 32 21 17 16 17 21 27 35 42 46 48 52 58 69 82 95 112 132 130 87 39 13 3 0 -1 -1 -1 -1 -1 -1 -1 -1 -1 1 11 36 81 104 68 27 7 1 1 8 27 62 98 98 62 27 9 6 16 48 95 
95 48 15 2 -1 -1 -2 -2 -2 -2 -2 -2 -1 0 3 16 49 96 97 57 38 55 92 102 67 29 8 1 -1 -2 -2 -2 -2 -2 -2 -2 -2 -2 -2 -2 -2 -1 -1 0 4 12 26 48 75 98 104 88 62 37 20 10 5 3 3 3 4 7 10 12 14 15 17 21 27 37 48 65 93 116 98 55 23 8 2 0 0 0 -1 -1 -1 0 0 0 3 16 46 92 100 56 20 5 1 5 19 49 88 104 75 37 13 4 4 15 48 95 
95 48 15 2 -1 -1 -2 -2 -2 -2 -2 -2 -1 -1 2 13 43 90 104 72 60 82 105 86 45 16 3 0 -1 -2 -2 -2 -2 -2 -2 -2 -2 -2 -2 -1 -1 0 1 6 16 34 61 88 104 98 75 48 27 13 5 1 0 0 0 0 0 0 1 1 2 2 3 4 7 11 17 29 55 92 108 81 45 22 10 5 3 2 2 2 2 2 3 4 9 24 59 101 93 47 16 4 4 13 37 75 104 88 48 19 5 1 3 15 48 95 
95 48 15 2 -1 -1 -2 -2 -2 -2 -2 -2 -2 -1 1 10 35 81 110 95 90 106 99 61 26 7 0 -1 -2 -2 -2 -2 -2 -2 -2 -2 -2 -2 -1 -1 0 3 9 20 40 70 97 104 89 62 37 19 8 2 0 -1 -1 -1 -1 -1 -1 -1 -1 -1 -1 0 0 0 0 1 4 11 29 64 103 110 82 52 32 22 17 16 15 15 15 15 15 17 24 42 80 112 88 41 14 6 10 27 62 98 98 62 27 8 1 0 2 15 48 95 
95 48 15 2 -1 -1 -2 -2 -2 -2 -2 -2 -2 -1 0 7 27 68 113 120 118 110 76 36 13 2 0 -1 -2 -2 -2 -2 -2 -2 -2 -2 -1 -1 0 1 5 13 27 49 78 101 101 78 49 27 13 5 1 0 -1 -1 -2 -2 -2 -2 -2 -2 -2 -1 -1 -1 -1 -1 -1 -1 0 3 14 40 83 123 124 99 75 60 52 49 48 48 48 48 49 51 58 78 111 125 89 44 19 13 22 50 89 104 75 37 13 2 0 0 2 15 48 95 
95 48 15 2 -1 -1 -2 -2 -2 -2 -2 -2 -2 -1 0 4 20 57 110 136 128 93 49 19 5 0 -1 -2 -2 -2 -2 -2 -2 -2 -2 -1 -1 0 2 8 19 37 62 89 104 97 70 40 20 9 3 0 -1 -1 -2 -2 -2 -2 -2 -2 -2 -2 -2 -2 -2 -2 -2 -2 -2 -1 -1 0 7 26 67 120 141 127 112 103 98 96 95 95 95 95 96 97 103 116 136 137 104 64 39 32 46 79 105 89 49 19 5 0 -1 0 2 15 48 95 
95 48 15 2 -1 -1 -2 -2 -2 -2 -2 -2 -2 -1 0 3 16 50 106 139 117 68 29 9 1 -1 -1 -2 -2 -2 -2 -2 -2 -1 -1 0 1 5 13 27 48 75 99 104 88 61 34 16 6 1 0 -1 -1 -2 -2 -2 -2 -2 -2 -2 -2 -2 -2 -2 -2 -2 -2 -2 -2 -2 -1 0 6 23 63 113 123 103 92 92 94 95 95 95 95 95 95 96 98 103 114 123 117 98 78 70 84 108 102 64 28 8 1 -1 -1 0 2 15 48 95 
95 48 15 2 -1 -1 -2 -2 -2 -2 -2 -2 -2 -1 -1 2 15 47 102 130 95 46 16 3 0 -1 -2 -2 -2 -2 -2 -1 -1 0 0 2 8 18 36 62 89 104 99 76 49 27 12 4 0 -1 -1 -2 -2 -2 -2 -2 -2 -2 -2 -2 -2 -2 -2 -2 -2 -2 -2 -2 -2 -2 -1 0 7 28 70 109 96 63 47 45 46 47 48 48 48 48 48 48 49 52 59 74 92 106 111 115 126 124 87 42 15 3 0 -1 -1 -1 2 15 48 95 
95 48 15 2 -1 -1 -2 -2 -2 -2 -2 -2 -2 -1 -1 2 15 47 99 116 73 30 9 1 -1 -1 -2 -2 -2 -1 -1 0 0 2 6 13 26 47 75 101 108 93 66 40 21 10 3 0 0 -1 -1 -1 -2 -2 -2 -2 -2 -2 -2 -2 -2 -2 -2 -2 -2 -2 -2 -2 -2 -2 -1 1 10 35 81 106 74 36 19 15 15 15 15 15 15 15 15 15 15 17 21 31 47 69 94 119 139 127 78 34 11 1 -1 -1 -1 -1 2 15 48 95 
95 48 15 2 -1 -1 -2 -2 -2 -2 -2 -2 -2 -1 0 2 15 48 98 104 58 21 5 0 -1 -1 -1 -1 -1 0 0 3 7 13 22 37 62 92 117 119 97 67 43 25 14 7 4 1 0 0 0 -1 -1 -1 -1 -1 -2 -2 -2 -2 -2 -2 -2 -2 -2 -2 -2 -2 -2 -1 -1 2 13 42 89 101 59 23 8 3 2 2 2 2 2 2 2 2 2 3 5 9 17 30 50 80 115 123 87 42 15 3 0 -1 -1 -1 2 15 48 95 
95 48 15 2 -1 -1 -2 -2 -2 -2 -2 -2 -2 -1 0 3 17 51 98 97 49 16 3 0 -1 -1 -1 0 1 3 8 15 26 40 57 79 107 131 139 124 95 71 54 40 29 21 15 11 7 4 3 2 1 0 0 0 -1 -1 -1 -1 -1 -2 -2 -2 -2 -2 -2 -2 -2 -1 -1 2 15 47 94 97 51 17 4 0 0 -1 -1 -1 -1 -1 -1 -1 0 0 0 1 4 9 20 41 75 107 103 64 28 8 1 -1 -1 0 2 15 48 95 
95 48 15 2 -1 -1 -2 -2 -2 -2 -2 -2 -2 -1 0 4 21 58 101 90 43 13 2 0 0 0 2 4 9 17 29 45 65 83 99 110 117 120 124 121 112 102 93 82 69 56 46 36 27 20 16 13 10 7 4 2 1 0 0 0 -1 -1 -1 -1 -1 -2 -2 -2 -2 -1 0 3 17 51 97 94 47 15 2 0 -1 -1 -1 -1 -1 -1 -1 -1 -1 -1 -1 -1 0 1 6 17 41 78 105 89 49 19 5 0 -1 0 2 15 48 95 
95 48 15 2 -1 -1 -2 -2 -2 -2 -2 -2 -2 -1 0 7 27 69 104 81 36 11 2 1 3 7 12 19 31 47 68 88 102 104 97 86 74 68 72 83 91 96 101 104 104 99 92 82 69 57 49 43 35 27 20 15 10 7 4 3 2 1 0 0 0 -1 -1 -1 -1 -1 0 4 21 58 101 89 42 13 2 -1 -1 -2 -2 -2 -2 -2 -2 -2 -2 -2 -2 -1 -1 0 1 6 20 49 89 104 75 37 13 3 0 0 2 15 48 95 
95 48 15 2 -1 -1 -2 -2 -2 -2 -2 -2 -2 -1 1 10 35 81 104 69 29 10 6 9 16 26 39 53 71 90 103 103 90 71 54 40 30 26 28 35 43 49 57 69 82 92 99 104 104 100 95 90 80 68 56 46 36 27 20 16 13 10 7 4 2 1 0 0 0 0 1 7 27 69 104 80 35 10 1 -1 -2 -2 -2 -2 -2 -2 -2 -2 -2 -2 -2 -2 -2 -1 -1 1 9 27 62 98 98 62 27 9 1 0 2 15 48 95 
95 48 15 2 -1 -1 -2 -2 -2 -2 -2 -2 -1 -1 2 13 43 90 102 61 26 15 18 29 45 64 83 96 104 102 88 68 47 31 19 12 8 6 7 10 13 16 20 27 36 46 56 68 80 90 95 100 104 104 99 92 82 69 57 49 43 35 27 20 15 10 7 4 3 2 4 12 37 81 104 69 27 7 0 -1 -2 -2 -2 -2 -2 -2 -2 -2 -2 -2 -2 -2 -2 -2 -1 0 3 13 37 75 104 89 49 20 6 1 3 15 48 95 
95 48 15 2 -1 -1 -2 -2 -2 -2 -2 -2 -1 0 3 16 49 97 101 61 36 34 48 68 88 102 104 96 83 64 45 29 17 9 4 2 0 0 0 1 2 3 4 7 10 15 20 27 35 43 49 57 69 82 92 99 104 104 100 95 90 80 68 56 46 36 27 20 16 14 14 22 48 92 101 58 21 4 0 -1 -2 -2 -2 -2 -2 -2 -2 -2 -2 -2 -2 -2 -2 -2 -2 -1 0 5 19 48 88 104 78 40 16 5 4 15 48 95 
95 48 15 2 -1 -1 -2 -2 -2 -2 -2 -2 -1 0 5 21 58 106 108 76 63 72 90 103 103 90 71 53 39 26 15 8 3 1 0 -1 -1 -1 -1 -1 -1 0 0 0 1 2 4 7 10 13 16 20 27 36 46 56 68 80 90 95 100 104 104 99 92 82 69 57 50 44 40 43 66 104 100 51 17 3 0 -1 -2 -2 -2 -2 -2 -2 -2 -2 -2 -2 -2 -2 -2 -2 -2 -1 -1 1 8 26 61 97 101 70 34 13 7 16 48 95 
95 48 15 2 -1 -1 -2 -2 -2 -2 -2 -1 -1 1 9 30 74 121 125 106 101 105 103 89 68 47 31 19 12 7 3 0 0 -1 -1 -1 -2 -2 -2 -2 -1 -1 -1 -1 -1 0 0 0 1 2 3 4 7 10 15 20 27 35 43 49 57 69 82 92 99 104 104 100 96 91 85 83 98 121 100 48 15 2 0 -1 -2 -2 -2 -2 -2 -2 -2 -2 -2 -2 -2 -2 -2 -2 -2 -2 -1 0 2 12 34 70 101 97 61 28 13 19 49 95 
95 48 15 2 -1 -1 -2 -2 -2 -2 -2 -1 0 3 16 46 95 136 136 120 106 89 68 46 29 17 9 4 2 0 0 -1 -1 -2 -2 -2 -2 -2 -2 -2 -2 -2 -2 -2 -2 -1 -1 -1 -1 -1 0 0 0 1 2 4 7 10 13 16 20 27 36 46 56 68 80 90 96 101 107 115 129 138 103 47 14 2 -1 -1 -2 -2 -2 -2 -2 -2 -2 -2 -2 -2 -2 -2 -2 -2 -2 -2 -2 -1 0 4 16 40 77 104 88 50 25 23 51 96 
95 48 15 2 -1 -1 -2 -2 -2 -2 -1 -1 1 9 29 69 113 126 109 86 64 45 28 16 8 3 1 0 -1 -1 -1 -2 -2 -2 -2 -2 -2 -2 -2 -2 -2 -2 -2 -2 -2 -2 -2 -2 -2 -1 -1 -1 -1 -1 0 0 0 1 2 3 4 7 10 15 20 27 35 43 50 58 72 92 119 136 102 47 14 2 -1 -1 -2 -2 -2 -2 -2 -2 -2 -2 -2 -2 -2 -2 -2 -2 -2 -2 -2 -1 -1 0 6 20 49 88 104 79 45 33 54 97 
96 48 15 2 -1 -1 -2 -2 -2 -2 -1 0 5 19 50 92 111 90 61 40 26 15 8 3 0 0 -1 -1 -1 -2 -2 -2 -2 -2 -2 -2 -2 -2 -2 -2 -2 -2 -2 -2 -2 -2 -2 -2 -2 -2 -2 -2 -2 -2 -1 -1 -1 -1 -1 0 0 0 1 2 4 7 10 13 16 21 31 51 84 117 99 47 14 2 -1 -1 -2 -2 -2 -2 -2 -2 -2 -2 -2 -2 -2 -2 -2 -2 -2 -2 -2 -2 -1 -1 1 8 27 61 97 102 74 51 62 99 
96 48 15 2 -1 -1 -2 -2 -2 -1 0 3 13 37 76 105 91 54 27 14 7 3 0 0 -1 -1 -2 -2 -2 -2 -2 -2 -2 -2 -2 -2 -2 -2 -2 -2 -2 -2 -2 -2 -2 -2 -2 -2 -2 -2 -2 -2 -2 -2 -2 -2 -2 -2 -1 -1 -1 -1 -1 0 0 0 1 2 3 5 11 27 61 104 97 48 15 2 -1 -1 -2 -2 -2 -2 -2 -2 -2 -2 -2 -2 -2 -2 -2 -2 -2 -2 -2 -2 -2 -1 0 2 12 34 70 101 101 77 76 104 
97 47 15 2 -1 -1 -2 -2 -1 -1 1 9 27 62 99 99 63 29 11 3 0 0 -1 -1 -1 -2 -2 -2 -2 -2 -2 -2 -2 -2 -2 -2 -2 -2 -2 -2 -2 -2 -2 -2 -2 -2 -2 -2 -2 -2 -2 -2 -2 -2 -2 -2 -2 -2 -2 -2 -2 -2 -2 -1 -1 -1 -1 -1 0 0 5 18 51 98 97 49 16 3 0 -1 -2 -2 -2 -2 -2 -2 -2 -2 -2 -2 -2 -2 -2 -2 -2 -2 -2 -2 -2 -2 -1 0 4 16 40 78 106 103 96 112 
99 47 15 2 -1 -1 -2 -1 -1 0 6 20 49 89 105 76 38 14 3 0 -1 -1 -1 -1 -1 -1 -1 -1 -2 -2 -2 -2 -2 -2 -2 -2 -2 -2 -2 -2 -2 -2 -2 -2 -2 -2 -2 -2 -2 -2 -2 -2 -2 -2 -2 -2 -2 -2 -2 -2 -2 -2 -2 -2 -2 -2 -2 -1 -1 0 3 16 49 96 99 53 19 4 0 -1 -1 -2 -2 -2 -2 -2 -2 -2 -2 -2 -2 -2 -2 -2 -2 -2 -2 -2 -2 -2 -1 -1 0 6 20 49 90 115 118 124 
100 47 14 2 -1 -1 -1 -1 0 5 16 41 78 106 92 53 22 7 1 0 0 0 0 -1 -1 -1 -1 -1 -1 -1 -1 -1 -1 -1 -1 -1 -1 -1 -1 -2 -2 -2 -2 -2 -2 -2 -2 -2 -2 -2 -2 -2 -2 -2 -2 -2 -2 -2 -2 -2 -2 -2 -2 -2 -2 -2 -2 -1 -1 0 4 18 50 98 108 64 27 9 2 0 -1 -1 -2 -2 -2 -2 -2 -2 -2 -2 -2 -2 -2 -2 -2 -2 -2 -2 -2 -2 -2 -1 -1 1 8 27 62 104 130 135 
101 46 14 2 -1 -1 -1 0 4 15 37 73 108 110 77 42 21 10 5 3 3 2 2 2 2 2 2 1 1 0 0 0 0 -1 -1 -1 -1 -1 -1 -1 -1 -1 -1 -1 -1 -1 -1 -1 -1 -1 -1 -2 -2 -2 -2 -2 -2 -2 -2 -2 -2 -2 -2 -2 -2 -2 -1 -1 0 3 10 27 60 108 124 88 47 22 10 4 0 0 -1 -1 -2 -2 -2 -2 -2 -2 -2 -2 -2 -2 -2 -2 -2 -2 -2 -2 -2 -2 -1 0 2 13 36 76 121 139 
101 46 14 2 0 -1 0 5 15 37 71 111 130 113 81 57 40 28 21 17 16 15 15 15 15 15 14 12 10 7 4 3 2 2 2 2 2 2 1 1 0 0 0 0 -1 -1 -1 -1 -1 -1 -1 -1 -1 -1 -1 -1 -1 -1 -1 -1 -1 -1 -1 -1 -1 -1 0 1 5 13 28 51 86 124 140 119 82 51 30 16 7 2 0 -1 -1 -2 -2 -2 -2 -2 -2 -2 -2 -2 -2 -2 -2 -2 -2 -2 -2 -2 -2 -1 0 5 19 49 97 131 
99 47 14 2 0 0 5 16 37 71 109 136 138 124 107 94 82 69 58 52 49 48 48 48 48 47 45 42 35 27 21 17 16 15 15 15 15 14 12 10 7 4 3 2 2 2 2 2 2 2 1 1 0 0 0 0 -1 -1 -1 -1 -1 -1 -1 -1 0 0 3 9 19 37 62 89 111 121 124 121 111 92 68 45 26 13 5 1 0 -1 -1 -2 -2 -2 -2 -2 -2 -2 -2 -2 -2 -2 -2 -2 -2 -2 -2 -1 -1 1 9 31 74 117 
97 47 15 3 1 5 16 38 71 104 118 115 107 102 100 102 104 104 101 98 96 95 95 95 95 94 93 89 80 69 58 52 49 48 48 48 47 45 42 35 27 21 17 16 15 15 15 15 15 14 12 10 7 4 3 2 2 2 2 2 2 2 1 1 3 8 16 30 50 76 99 105 94 79 71 78 93 104 103 87 61 37 19 9 3 0 0 -1 -1 -2 -2 -2 -2 -2 -2 -2 -2 -2 -2 -2 -2 -2 -2 -2 -1 0 5 21 59 105 
96 48 16 6 7 17 39 71 101 104 84 64 53 50 52 58 69 80 89 93 94 95 95 95 95 96 98 101 104 104 101 98 96 95 95 95 94 93 89 80 69 58 52 49 48 48 48 48 47 45 42 35 27 21 17 16 15 15 15 15 14 13 11 11 15 27 45 68 91 104 98 76 52 35 28 33 48 69 91 104 98 76 50 30 16 7 2 0 -1 -1 -2 -2 -2 -2 -2 -2 -2 -2 -2 -2 -2 -2 -2 -2 -1 0 3 17 52 99 
96 50 20 13 21 42 73 100 101 73 44 26 18 16 17 21 27 35 42 45 47 48 48 48 48 49 52 58 69 80 89 93 94 95 95 95 96 98 101 104 104 101 98 96 95 95 95 95 94 93 89 80 69 58 52 49 48 48 48 47 46 42 38 36 44 64 87 103 102 87 61 37 20 11 8 10 17 30 50 76 98 104 91 68 45 26 13 5 1 0 -1 -1 -2 -2 -2 -2 -2 -2 -2 -2 -2 -2 -2 -2 -1 0 2 16 49 96 
97 54 30 32 51 78 102 99 71 39 18 8 4 3 3 4 7 10 12 14 15 15 15 15 15 16 17 21 27 35 42 45 47 48 48 48 49 52 58 69 80 89 93 94 95 95 95 95 96 98 101 104 104 101 98 96 95 95 95 95 93 90 86 84 92 105 106 91 68 45 26 13 5 1 0 1 4 9 19 37 61 87 102 102 87 61 37 19 9 3 0 0 -1 -1 -2 -2 -2 -2 -2 -2 -2 -2 -2 -2 -1 -1 2 15 48 96 
101 65 51 65 89 104 96 68 37 16 5 1 0 0 0 0 0 1 1 2 2 2 2 2 2 2 3 4 7 10 12 14 15 15 15 15 16 17 21 27 35 42 45 47 48 48 48 48 49 52 58 69 80 89 93 94 95 95 95 96 99 106 119 130 131 113 81 52 30 16 7 2 0 -1 -1 -1 0 1 5 13 26 45 68 91 104 98 76 50 30 16 7 2 0 -1 -1 -2 -2 -2 -2 -2 -2 -2 -2 -2 -1 -1 2 15 48 96 
110 87 85 100 105 88 60 33 15 4 0 -1 -1 -1 -1 -1 -1 -1 -1 -1 -1 -1 -1 -1 -1 0 0 0 0 1 1 2 2 2 2 2 2 3 4 7 10 12 14 15 15 15 15 15 16 17 21 27 35 42 45 47 48 48 48 50 55 70 99 133 131 88 47 22 10 4 0 0 -1 -1 -2 -1 -1 -1 0 2 7 16 30 50 76 98 104 91 68 45 26 13 5 1 0 -1 -1 -2 -2 -2 -2 -2 -2 -2 -1 -1 2 15 48 97 
124 115 112 104 78 49 27 12 4 0 -1 -1 -2 -2 -2 -2 -2 -2 -1 -1 -1 -1 -1 -1 -1 -1 -1 -1 -1 -1 -1 -1 -1 -1 -1 -1 0 0 0 0 1 1 2 2 2 2 2 2 2 3 4 7 10 12 14 15 15 15 15 17 21 36 70 114 113 65 27 9 2 0 -1 -1 -2 -2 -2 -2 -2 -1 -1 0 0 3 9 19 37 61 87 102 102 87 61 37 19 9 4 1 0 -1 -1 -2 -2 -2 -2 -2 -1 -1 2 15 47 99 
137 131 107 73 41 20 8 2 0 -1 -1 -2 -2 -2 -2 -2 -2 -2 -2 -2 -2 -2 -2 -2 -2 -2 -2 -2 -2 -2 -1 -1 -1 -1 -1 -1 -1 -1 -1 -1 -1 -1 -1 -1 -1 -1 -1 -1 0 0 0 0 1 1 2 2 2 2 2 4 8 21 55 102 101 53 18 4 0 -1 -1 -2 -2 -2 -2 -2 -2 -2 -2 -1 -1 0 1 5 13 26 45 68 91 104 98 76 50 30 17 8 3 0 0 -1 -1 -2 -2 -2 -1 -1 2 14 47 101 
137 116 74 39 17 6 1 0 -1 -2 -2 -2 -2 -2 -2 -2 -2 -2 -2 -2 -2 -2 -2 -2 -2 -2 -2 -2 -2 -2 -2 -2 -2 -2 -2 -2 -2 -2 -2 -2 -2 -1 -1 -1 -1 -1 -1 -1 -1 -1 -1 -1 -1 -1 -1 -1 -1 0 0 0 4 17 50 97 97 49 16 3 0 -1 -2 -2 -2 -2 -2 -2 -2 -2 -2 -2 -2 -1 -1 0 2 7 16 30 50 76 98 104 91 69 47 29 16 7 2 0 -1 -1 -1 -1 -1 -1 2 14 46 102 
123 86 43 17 5 0 -1 -1 -2 -2 -2 -2 -2 -2 -2 -2 -2 -2 -2 -2 -2 -2 -2 -2 -2 -2 -2 -2 -2 -2 -2 -2 -2 -2 -2 -2 -2 -2 -2 -2 -2 -2 -2 -2 -2 -2 -2 -2 -2 -2 -2 -2 -2 -1 -1 -1 -1 -1 -1 0 2 15 48 96 96 48 15 2 0 -1 -2 -2 -2 -2 -2 -2 -2 -2 -2 -2 -2 -2 -1 -1 0 0 3 9 19 37 61 86 102 103 89 67 45 26 12 5 1 0 0 -1 -1 0 2 14 47 100 
108 64 26 7 1 -1 -1 -2 -2 -2 -2 -2 -2 -2 -2 -2 -2 -2 -2 -2 -2 -2 -2 -2 -2 -2 -2 -2 -2 -2 -2 -2 -2 -2 -2 -2 -2 -2 -2 -2 -2 -2 -2 -2 -2 -2 -2 -2 -2 -2 -2 -2 -2 -2 -2 -2 -2 -2 -1 0 2 15 48 95 95 48 15 2 -1 -1 -2 -2 -2 -2 -2 -2 -2 -2 -2 -2 -2 -2 -2 -2 -1 -1 0 1 5 13 26 45 67 89 103 102 87 61 36 19 9 5 2 1 0 0 3 15 48 98 
100 53 18 4 0 -1 -2 -2 -2 -2 -2 -2 -2 -2 -2 -2 -2 -2 -2 -2 -2 -2 -2 -2 -2 -2 -2 -2 -2 -2 -2 -2 -2 -2 -2 -2 -2 -2 -2 -2 -2 -2 -2 -2 -2 -2 -2 -2 -2 -2 -2 -2 -2 -2 -2 -2 -2 -2 -1 -1 2 15 48 95 95 48 15 2 -1 -1 -2 -2 -2 -2 -2 -2 -2 -2 -2 -2 -2 -2 -2 -2 -2 -2 -1 -1 0 2 7 16 29 47 70 92 106 100 76 50 31 20 15 10 7 5 7 18 50 97 
97 49 16 3 0 -1 -1 -1 -2 -2 -2 -2 -2 -2 -2 -2 -2 -2 -2 -2 -2 -2 -2 -2 -2 -2 -2 -2 -2 -2 -2 -2 -2 -2 -2 -2 -2 -2 -2 -2 -2 -2 -2 -2 -2 -2 -2 -2 -2 -2 -2 -2 -2 -2 -2 -2 -2 -2 -1 -1 2 15 48 95 95 48 15 2 -1 -1 -2 -2 -2 -2 -2 -2 -2 -2 -2 -2 -2 -2 -2 -2 -2 -2 -2 -1 -1 0 1 4 10 19 34 57 87 112 116 98 74 57 46 36 27 21 19 28 57 100 
98 49 16 3 0 0 -1 -1 -1 -1 -1 -1 -1 -1 -1 -1 -2 -2 -2 -2 -2 -2 -2 -2 -2 -2 -2 -2 -2 -2 -2 -2 -2 -2 -2 -2 -2 -2 -2 -2 -2 -2 -2 -2 -2 -2 -2 -2 -2 -2 -2 -2 -2 -2 -2 -2 -2 -2 -1 -1 2 15 48 95 95 48 15 2 -1 -1 -2 -2 -2 -2 -2 -2 -2 -2 -2 -2 -2 -2 -2 -2 -2 -2 -2 -1 -1 0 0 2 6 13 24 42 70 107 134 136 120 105 93 82 68 57 51 53 75 109 
103 52 19 7 3 2 2 1 1 0 0 0 0 -1 -1 -1 -1 -1 -1 -1 -1 -1 -1 -1 -1 -2 -2 -2 -2 -2 -2 -2 -2 -2 -2 -2 -2 -2 -2 -2 -2 -2 -2 -2 -2 -2 -2 -2 -2 -2 -2 -2 -2 -2 -2 -2 -2 -2 -1 -1 2 15 48 95 95 48 15 2 -1 -1 -2 -2 -2 -2 -2 -2 -2 -2 -2 -2 -2 -2 -2 -2 -1 -1 -1 0 0 2 4 9 16 28 42 61 86 113 129 125 112 104 103 105 104 100 96 96 108 126 
113 62 31 20 16 15 14 12 10 7 4 3 2 2 2 1 1 0 0 0 0 -1 -1 -1 -1 -1 -1 -1 -1 -1 -1 -1 -1 -2 -2 -2 -2 -2 -2 -2 -2 -2 -2 -2 -2 -2 -2 -2 -2 -2 -2 -2 -2 -2 -2 -2 -2 -2 -1 -1 2 15 48 95 95 48 15 2 -1 -1 -2 -2 -2 -2 -2 -2 -2 -2 -2 -2 -2 -2 -1 -1 -1 0 0 3 7 12 19 30 46 65 84 98 107 106 93 74 60 55 59 69 82 92 102 114 132 143 
129 89 63 52 49 47 46 42 35 27 21 17 16 15 14 12 10 7 4 3 2 2 2 2 1 1 0 0 0 0 -1 -1 -1 -1 -1 -1 -1 -1 -1 -1 -1 -1 -2 -2 -2 -2 -2 -2 -2 -2 -2 -2 -2 -2 -2 -2 -2 -2 -1 -1 2 15 48 95 95 48 15 2 -1 -1 -2 -2 -2 -2 -2 -2 -2 -2 -2 -2 -1 -1 0 0 2 4 9 16 26 39 53 71 89 102 104 97 83 64 45 30 22 19 21 27 36 46 59 80 111 140 
144 125 107 98 96 95 93 89 80 69 58 52 49 47 46 42 35 27 21 17 16 15 15 14 12 10 7 4 3 2 2 2 1 1 0 0 0 0 -1 -1 -1 -1 -1 -1 -1 -1 -1 -1 -1 -1 -2 -2 -2 -2 -2 -2 -2 -2 -1 -1 2 15 48 95 95 48 15 2 -1 -1 -2 -2 -2 -2 -2 -2 -2 -1 -1 -1 0 0 3 7 12 19 30 46 65 83 96 104 102 89 71 53 38 26 15 8 5 4 5 7 11 16 24 42 77 125 
140 125 107 99 96 96 98 101 104 104 101 97 96 95 93 89 80 69 58 52 49 48 47 45 42 35 27 21 17 16 15 14 12 10 7 4 3 2 2 2 2 1 1 0 0 0 0 -1 -1 -1 -1 -1 -1 -1 -1 -1 -1 -1 -1 0 2 15 48 95 95 48 15 2 -1 -1 -2 -2 -2 -2 -2 -1 -1 -1 0 1 3 8 15 26 39 53 71 89 102 104 96 83 65 46 30 19 12 7 3 1 0 0 0 0 1 3 9 23 57 111 
120 90 63 52 49 49 52 58 69 80 89 93 95 96 97 101 104 104 101 98 96 95 94 93 89 80 69 58 52 49 47 46 42 35 27 21 17 16 15 15 14 12 10 7 4 3 2 2 2 1 1 0 0 0 0 -1 -1 -1 0 0 3 15 48 95 95 48 15 2 -1 -1 -2 -2 -1 -1 -1 0 0 2 4 9 17 29 45 64 83 96 104 102 89 71 53 39 26 16 9 4 2 0 0 -1 -1 -1 -1 -1 -1 0 4 17 50 102 
104 63 32 20 16 16 17 21 27 35 42 46 47 49 52 58 69 80 89 93 94 95 96 98 101 104 104 101 97 96 95 93 89 80 69 58 52 49 48 47 45 42 35 27 21 17 16 15 14 12 10 7 4 3 2 2 2 2 2 2 5 17 49 96 96 48 15 2 0 -1 -1 -1 -1 0 0 3 7 12 19 31 47 68 88 102 104 96 83 65 46 30 19 12 7 3 0 0 -1 -1 -1 -2 -2 -2 -2 -2 -1 0 3 15 48 97 
98 52 20 7 3 3 3 4 7 10 12 14 15 16 17 21 27 35 42 45 47 48 49 52 58 69 80 89 93 95 96 97 101 104 104 101 98 96 95 94 93 89 80 69 58 52 49 47 46 42 35 27 21 17 16 15 15 14 13 11 12 22 53 98 97 49 16 3 0 -1 0 0 2 4 9 16 26 39 53 71 90 103 103 90 71 53 39 26 16 9 4 2 0 0 -1 -1 -1 -2 -2 -2 -2 -2 -2 -2 -1 0 2 15 48 96 
96 49 16 3 0 0 0 0 0 1 1 2 2 2 3 4 7 10 12 14 15 15 16 17 21 27 35 42 46 47 49 52 58 69 80 89 93 94 95 96 98 101 104 104 101 97 96 95 93 89 80 69 58 52 49 48 47 46 42 36 32 38 65 106 102 53 19 5 1 1 3 7 12 19 30 46 65 83 96 104 102 88 68 47 31 19 12 7 3 0 0 -1 -1 -1 -2 -2 -2 -2 -2 -2 -2 -2 -2 -2 -1 -1 2 15 48 95 
95 48 15 2 0 -1 -1 -1 -1 -1 -1 -1 -1 0 0 0 0 1 1 2 2 2 2 3 4 7 10 12 14 15 16 17 21 27 35 42 45 47 48 49 52 58 69 80 89 93 95 96 97 101 104 104 101 98 96 95 94 93 89 81 73 73 93 124 114 65 27 11 7 9 16 26 39 53 71 89 102 104 96 83 64 45 29 17 9 4 2 0 0 -1 -1 -1 -2 -2 -2 -2 -2 -2 -2 -2 -2 -2 -2 -2 -1 -1 2 15 48 95 
95 48 15 2 0 -1 -2 -2 -2 -2 -1 -1 -1 -1 -1 -1 -1 -1 -1 -1 -1 -1 0 0 0 0 1 1 2 2 2 3 4 7 10 12 14 15 15 16 17 21 27 35 42 46 47 49 52 58 69 80 89 93 94 95 96 98 101 104 106 109 122 140 131 89 50 30 25 32 46 65 83 96 104 102 89 71 53 39 26 15 8 3 1 0 -1 -1 -1 -2 -2 -2 -2 -2 -2 -2 -2 -2 -2 -2 -2 -2 -2 -2 -1 -1 2 15 48 95 
95 48 15 2 -1 -1 -2 -2 -2 -2 -2 -2 -2 -2 -2 -2 -2 -2 -1 -1 -1 -1 -1 -1 -1 -1 -1 -1 -1 -1 0 0 0 0 1 1 2 2 2 2 3 4 7 10 12 14 15 16 17 21 27 35 42 46 47 48 49 52 58 69 81 91 102 116 125 115 89 69 65 75 90 102 104 96 83 65 46 30 19 12 7 3 0 0 -1 -1 -1 -2 -2 -2 -2 -2 -2 -2 -2 -2 -2 -2 -2 -2 -2 -2 -2 -2 -1 -1 2 15 48 95 
95 48 15 2 0 -1 -2 -2 -2 -2 -2 -2 -2 -2 -2 -2 -2 -2 -2 -2 -2 -2 -2 -2 -2 -2 -1 -1 -1 -1 -1 -1 -1 -1 -1 -1 -1 -1 0 0 0 0 0 1 2 2 2 2 3 4 7 10 12 14 15 15 16 17 21 27 35 43 51 64 88 115 127 121 113 109 103 90 71 53 39 26 16 9 4 2 0 0 -1 -1 -1 -2 -2 -2 -2 -2 -2 -2 -2 -2 -2 -2 -2 -2 -2 -2 -2 -2 -2 -2 -1 0 2 15 48 95 
95 48 15 2 0 -1 -1 -1 -1 -1 -1 -1 -1 -1 -1 -1 -1 -1 -1 -1 -1 -1 -1 -1 -1 -1 -1 -1 -1 -1 -1 -1 -1 -1 -1 -1 -1 -1 -1 -1 -1 -1 -1 -1 0 0 0 0 0 0 0 1 2 2 2 2 3 3 5 7 10 13 18 27 49 89 131 139 116 90 67 47 30 19 12 7 3 1 0 0 -1 -1 -1 -1 -1 -1 -1 -1 -1 -1 -1 -1 -1 -1 -1 -1 -1 -1 -1 -1 -1 -1 -1 -1 -1 0 2 15 48 95 
96 49 16 3 0 0 0 -1 -1 -1 -1 -1 -1 -1 -1 -1 -1 -1 -1 -1 -1 -1 -1 -1 -1 -1 -1 -1 -1 -1 -1 -1 -1 -1 -1 -1 -1 0 0 0 0 0 0 0 0 0 0 0 0 0 0 0 0 0 0 0 0 0 0 1 2 3 5 11 28 66 115 122 85 51 30 17 10 5 3 1 0 0 0 0 0 0 -1 -1 -1 -1 -1 -1 -1 -1 -1 -1 -1 -1 -1 -1 -1 -1 -1 -1 -1 -1 -1 -1 0 0 3 16 49 96 
98 52 20 7 3 2 2 2 2 2 2 2 2 2 2 2 2 2 2 2 2 2 2 2 2 2 2 2 2 2 2 2 2 2 2 2 2 2 2 2 2 2 2 2 2 2 2 2 2 2 2 2 2 2 2 2 2 2 3 3 3 4 5 9 23 58 105 109 65 31 16 9 6 4 3 3 3 2 2 2 2 2 2 2 2 2 2 2 2 2 2 2 2 2 2 2 2 2 2 2 2 2 2 2 2 3 7 20 52 98 
107 63 32 20 16 15 15 15 15 15 15 15 15 15 15 15 15 15 15 15 15 15 15 15 15 15 15 15 15 15 15 15 14 14 14 15 15 15 15 15 15 15 15 15 15 15 15 15 14 14 14 14 15 15 15 15 15 15 15 15 15 15 16 20 33 65 109 110 67 35 22 17 16 15 15 15 15 15 15 15 15 15 15 15 15 15 15 15 15 15 15 14 14 14 15 15 15 15 15 15 15 15 15 14 14 15 19 32 63 107 
126 90 63 52 49 48 48 48 48 48 48 48 48 48 48 48 48 48 48 48 48 48 48 48 48 48 48 48 48 48 48 47 47 46 47 47 48 48 48 48 48 48 48 48 48 48 48 47 47 47 47 47 47 48 48 48 48 48 48 48 48 48 49 52 63 90 125 125 90 64 53 49 48 48 48 48 48 48 48 48 48 48 48 48 48 48 48 48 48 48 47 47 46 47 47 48 48 48 48 48 48 48 47 47 47 48 51 63 90 126 
152 126 107 98 96 95 95 95 95 95 95 95 95 95 95 95 95 95 95 95 95 95 95 95 95 95 95 95 95 96 97 99 101 102 100 97 96 95 95 95 95 95 95 95 95 95 96 97 99 102 102 99 97 96 95 95 95 95 95 95 95 95 96 98 104 119 137 137 119 104 98 96 95 95 95 95 95 95 95 95 95 95 95 95 95 95 95 95 95 96 98 101 102 100 98 96 95 95 95 95 95 96 98 101 103 101 101 107 126 152 
