P2
110 110
255
154 124 105 98 96 96 95 95 95 95 95 95 95 95 95 95 95 95 95 95 95 95 95 95 95 95 95 96 96 98 105 120 139 143 126 108 99 96 96 95 95 95 95 95 95 96 97 103 119 141 141 118 103 97 96 95 95 95 95 95 95 95 95 96 97 99 103 103 99 97 96 95 95 95 95 95 95 95 95 95 95 95 95 95 95 95 95 96 97 102 114 135 144 128 109 100 96 96 96 96 97 100 112 133 144 130 112 109 125 154 
124 82 55 46 43 43 43 43 43 43 43 43 43 43 43 43 43 43 43 43 43 43 43 43 43 43 43 43 45 51 68 100 130 119 83 58 47 44 43 43 43 43 43 43 43 44 46 57 85 126 124 82 55 46 43 43 43 43 43 43 43 43 43 43 43 42 42 42 42 43 43 43 43 43 43 43 43 43 43 43 43 43 43 43 43 43 43 44 47 57 84 122 126 90 60 48 44 43 43 43 45 53 76 116 129 94 65 60 83 124 
105 55 24 14 11 11 11 11 11 11 11 11 11 11 11 11 11 11 11 11 11 11 11 11 11 11 11 12 16 28 58 100 113 78 40 20 13 11 11 11 11 11 11 11 11 12 16 30 66 115 107 55 24 14 11 11 11 11 11 11 11 11 11 11 11 10 10 10 10 11 11 11 11 11 11 11 11 11 11 11 11 11 11 11 11 11 11 12 18 35 75 114 95 50 24 14 11 11 11 11 14 25 55 103 107 61 31 29 56 105 
98 46 14 3 1 0 0 0 0 0 0 0 0 0 0 0 0 0 0 0 0 0 0 0 0 0 1 3 12 35 76 108 89 45 16 5 1 0 0 0 0 0 0 0 0 2 8 28 72 122 102 45 14 3 1 0 0 0 0 0 0 0 0 0 0 0 0 0 0 0 0 0 0 0 0 0 0 0 0 0 0 0 0 0 0 0 1 3 11 37 85 108 69 27 8 2 0 0 0 1 5 18 54 103 94 44 17 17 46 98 
96 43 11 1 -1 -2 -2 -2 -2 -2 -2 -2 -2 -2 -2 -2 -2 -2 -2 -2 -2 -2 -2 -2 -2 -1 0 5 23 59 100 100 59 22 5 0 -1 -2 -2 -2 -2 -2 -2 -2 -1 1 12 42 95 137 103 43 11 0 -1 -2 -2 -2 -2 -2 -2 -2 -2 -2 -2 -2 -2 -2 -2 -2 -2 -2 -2 -2 -2 -2 -2 -2 -2 -2 -2 -2 -2 -2 -2 -2 -1 2 15 49 98 97 49 15 2 -1 -2 -2 -1 0 4 23 65 106 81 33 11 14 44 96 
96 43 11 0 -2 -2 -2 -2 -2 -2 -2 -2 -2 -2 -2 -2 -2 -2 -2 -2 -2 -2 -2 -2 -2 -1 2 14 44 88 106 73 32 9 0 -2 -2 -2 -2 -2 -2 -2 -2 -2 0 5 23 65 119 144 103 43 11 0 -2 -2 -2 -2 -2 -2 -2 -2 -2 -2 -2 -2 -2 -2 -2 -2 -2 -2 -2 -2 -2 -2 -2 -2 -2 -2 -2 -2 -2 -2 -2 -2 0 5 25 67 106 82 34 8 0 -2 -2 -2 -2 0 7 32 81 106 65 23 7 12 43 96 
95 43 11 0 -2 -2 -2 -2 -2 -2 -2 -2 -2 -2 -2 -2 -2 -2 -2 -2 -2 -2 -2 -2 -2 0 9 32 73 106 88 44 14 2 -1 -2 -2 -2 -2 -2 -2 -2 -2 -1 1 12 41 91 130 138 104 45 12 0 -2 -2 -2 -2 -2 -2 -2 -2 -2 -2 -2 -2 -2 -2 -2 -2 -2 -2 -2 -2 -2 -2 -2 -2 -2 -2 -2 -2 -2 -2 -2 -2 0 11 41 89 104 61 21 4 -1 -2 -2 -2 -2 0 10 41 92 100 51 16 5 12 43 95 
95 43 11 0 -2 -2 -2 -2 -2 -2 -2 -2 -2 -2 -2 -2 -2 -2 -2 -2 -2 -2 -2 -2 0 5 22 59 100 100 59 22 5 0 -2 -2 -2 -2 -2 -2 -2 -2 -2 0 5 25 65 110 121 124 107 52 15 1 -1 -2 -2 -2 -2 -2 -2 -2 -2 -2 -2 -2 -2 -2 -2 -2 -2 -2 -2 -2 -2 -2 -2 -2 -2 -2 -2 -2 -2 -2 -2 -1 4 21 61 104 89 41 11 0 -2 -2 -2 -2 -1 1 15 51 100 92 41 11 3 11 43 95 
95 43 11 0 -2 -2 -2 -2 -2 -2 -2 -2 -2 -2 -2 -2 -2 -2 -2 -2 -2 -2 -2 -1 2 14 44 88 106 73 32 9 0 -2 -2 -2 -2 -2 -2 -2 -2 -2 -1 2 15 45 91 111 96 103 110 65 22 4 -1 -2 -2 -2 -2 -2 -2 -2 -2 -2 -2 -2 -2 -2 -2 -2 -2 -2 -2 -2 -2 -2 -2 -2 -2 -2 -2 -2 -2 -2 -2 0 8 34 82 106 67 25 5 0 -2 -2 -2 -2 -1 4 22 65 106 80 32 8 2 11 43 95 
95 43 11 0 -2 -2 -2 -2 -2 -2 -2 -2 -2 -2 -2 -2 -2 -2 -2 -2 -2 -2 -2 0 9 32 73 106 88 44 14 2 -1 -2 -2 -2 -2 -2 -2 -2 -2 -2 0 9 31 73 107 92 65 79 109 80 31 7 0 -2 -2 -2 -2 -2 -2 -2 -2 -2 -2 -2 -2 -2 -2 -2 -2 -2 -2 -2 -2 -2 -2 -2 -2 -2 -2 -2 -2 -2 -1 1 14 49 97 97 49 14 1 -1 -2 -2 -2 -2 0 7 32 80 106 65 22 4 2 11 43 95 
96 43 11 0 -2 -2 -2 -2 -2 -2 -2 -2 -2 -2 -2 -2 -2 -2 -2 -2 -2 -2 0 5 22 59 100 100 59 22 5 0 -2 -2 -2 -2 -2 -2 -2 -2 -2 -1 4 21 58 100 101 63 40 60 103 89 38 9 0 -2 -2 -2 -2 -2 -2 -2 -2 -2 -2 -2 -2 -2 -2 -2 -2 -2 -2 -2 -2 -2 -2 -2 -2 -2 -2 -2 -2 -2 0 5 25 67 106 82 34 8 0 -2 -2 -2 -2 -2 0 10 41 92 100 51 15 2 1 11 43 95 
96 44 11 0 -2 -2 -2 -2 -2 -2 -2 -2 -2 -2 -2 -2 -2 -2 -2 -2 -2 -1 2 14 44 88 106 73 32 9 0 -2 -2 -2 -2 -2 -2 -2 -2 -2 -2 1 12 40 86 106 74 35 24 49 98 94 41 10 0 -2 -2 -2 -2 -2 -2 -2 -2 -2 -2 -2 -2 -2 -2 -2 -2 -2 -2 -2 -2 -2 -2 -2 -2 -2 -2 -2 -2 -2 0 11 41 89 104 61 21 4 -1 -2 -2 -2 -2 -1 1 15 51 100 92 41 11 1 1 11 43 96 
99 47 13 1 -1 -2 -2 -2 -2 -2 -2 -2 -2 -2 -2 -2 -2 -2 -2 -2 -2 0 9 32 73 106 88 44 14 2 -1 -2 -2 -2 -2 -2 -2 -2 -2 -2 0 5 24 64 104 90 46 18 16 45 96 96 43 11 0 -2 -2 -2 -2 -2 -2 -2 -2 -2 -2 -2 -2 -2 -2 -2 -2 -2 -2 -2 -2 -2 -2 -2 -2 -2 -2 -2 -2 -1 4 21 61 104 89 41 11 0 -2 -2 -2 -2 -2 -1 4 22 65 106 80 32 7 0 0 11 43 96 
108 57 19 4 0 -2 -2 -2 -2 -2 -2 -2 -2 -2 -2 -2 -2 -2 -2 -2 0 5 22 59 100 100 59 22 5 0 -2 -2 -2 -2 -2 -2 -2 -2 -2 -1 1 12 42 89 105 65 25 9 13 42 94 97 46 12 0 -2 -2 -2 -2 -2 -2 -2 -2 -2 -2 -2 -2 -2 -2 -2 -2 -2 -2 -2 -2 -2 -2 -2 -2 -2 -2 -2 -2 0 8 34 82 106 67 25 5 0 -2 -2 -2 -2 -2 0 7 32 80 106 65 22 4 0 0 11 42 98 
126 82 37 12 2 -1 -2 -2 -2 -2 -2 -2 -2 -2 -2 -2 -2 -2 -2 -1 2 14 44 88 106 73 32 9 0 -2 -2 -2 -2 -2 -2 -2 -2 -2 -2 0 5 25 65 105 89 42 13 4 10 38 89 101 52 15 1 -1 -2 -2 -2 -2 -2 -2 -2 -2 -2 -2 -2 -2 -2 -2 -2 -2 -2 -2 -2 -2 -2 -2 -2 -2 -2 -2 -1 1 14 49 97 97 49 14 1 -1 -2 -2 -2 -2 -2 0 10 41 92 100 51 15 1 -1 0 10 42 101 
143 117 70 32 10 1 -1 -2 -2 -2 -2 -2 -2 -2 -2 -2 -2 -2 -2 0 9 32 73 106 88 44 14 2 -1 -2 -2 -2 -2 -2 -2 -2 -2 -2 -1 2 15 45 90 104 64 24 5 1 7 31 80 106 65 22 4 -1 -2 -2 -2 -2 -2 -2 -2 -2 -2 -2 -2 -2 -2 -2 -2 -2 -2 -2 -2 -2 -2 -2 -2 -2 -2 -2 0 5 25 67 106 82 34 8 0 -2 -2 -2 -2 -2 -1 1 15 51 100 92 41 10 0 -1 0 10 42 103 
140 131 106 66 29 8 0 -2 -2 -2 -2 -2 -2 -2 -2 -2 -2 -2 0 5 22 59 100 100 59 22 5 0 -2 -2 -2 -2 -2 -2 -2 -2 -2 -2 0 9 31 73 106 86 40 12 1 0 4 22 65 106 80 31 7 0 -2 -2 -2 -2 -2 -2 -2 -2 -2 -2 -2 -2 -2 -2 -2 -2 -2 -2 -2 -2 -2 -2 -2 -2 -2 -2 0 11 41 89 104 61 21 4 -1 -2 -2 -2 -2 -2 -1 4 22 65 106 80 32 7 0 -1 0 10 42 102 
122 110 113 99 57 22 5 0 -2 -2 -2 -2 -2 -2 -2 -2 -2 -1 2 14 44 88 106 73 32 9 0 -2 -2 -2 -2 -2 -2 -2 -2 -2 -2 -1 4 21 58 100 100 58 21 4 0 -1 1 15 52 101 89 38 9 0 -2 -2 -2 -2 -2 -2 -2 -2 -2 -2 -2 -2 -2 -2 -2 -2 -2 -2 -2 -2 -2 -2 -2 -2 -2 -1 4 21 61 104 89 41 11 0 -2 -2 -2 -2 -2 -2 0 7 32 80 106 65 22 4 -1 -1 0 10 42 99 
108 80 88 108 88 44 15 3 -1 -2 -2 -2 -2 -2 -2 -2 -2 0 9 32 73 106 88 44 14 2 -1 -2 -2 -2 -2 -2 -2 -2 -2 -2 -2 1 12 40 86 106 73 31 9 0 -2 -2 0 12 46 97 94 41 10 0 -2 -2 -2 -2 -2 -2 -2 -2 -2 -2 -2 -2 -2 -2 -2 -2 -2 -2 -2 -2 -2 -2 -2 -2 -2 0 8 34 82 106 67 25 5 0 -2 -2 -2 -2 -2 -2 0 10 41 92 100 51 15 1 -1 -2 0 11 43 97 
100 61 58 91 106 75 36 12 2 -1 -2 -2 -2 -2 -2 -2 0 5 22 59 100 100 59 22 5 0 -2 -2 -2 -2 -2 -2 -2 -2 -2 -2 0 5 24 64 104 90 45 15 2 -1 -2 -2 0 11 43 96 96 43 11 0 -2 -2 -2 -2 -2 -2 -2 -2 -2 -2 -2 -2 -2 -2 -2 -2 -2 -2 -2 -2 -2 -2 -2 -2 -1 1 14 49 97 97 49 14 1 -1 -2 -2 -2 -2 -2 -1 1 15 51 100 92 41 10 0 -2 -2 0 11 43 96 
97 51 36 61 99 103 69 33 12 2 -1 -2 -2 -2 -2 -1 2 14 44 88 106 73 32 9 0 -2 -2 -2 -2 -2 -2 -2 -2 -2 -2 -1 1 12 42 89 105 65 25 5 0 -2 -2 -2 0 10 41 94 97 46 12 0 -2 -2 -2 -2 -2 -2 -2 -2 -2 -2 -2 -2 -2 -2 -2 -2 -2 -2 -2 -2 -2 -2 -2 -2 0 5 25 67 106 82 34 8 0 -2 -2 -2 -2 -2 -2 -1 4 22 65 106 80 32 7 0 -2 -2 0 11 43 96 
96 46 22 32 66 101 102 68 33 11 2 -1 -2 -2 -2 0 9 32 73 106 88 44 14 2 -1 -2 -2 -2 -2 -2 -2 -2 -2 -2 -2 0 5 25 65 105 89 42 12 1 -1 -2 -2 -2 0 9 38 89 101 52 15 1 -1 -2 -2 -2 -2 -2 -2 -2 -2 -2 -2 -2 -2 -2 -2 -2 -2 -2 -2 -2 -2 -2 -2 -2 0 11 41 89 104 61 21 4 -1 -2 -2 -2 -2 -2 -2 0 7 32 80 106 65 22 4 -1 -2 -2 0 11 43 95 
96 44 15 14 33 68 102 102 68 33 11 2 -1 -2 0 5 22 59 100 100 59 22 5 0 -2 -2 -2 -2 -2 -2 -2 -2 -2 -2 -1 2 15 45 90 104 64 24 5 0 -2 -2 -2 -2 0 7 31 80 106 65 22 4 -1 -2 -2 -2 -2 -2 -2 -2 -2 -2 -2 -2 -2 -2 -2 -2 -2 -2 -2 -2 -2 -2 -2 -1 4 21 61 104 89 41 11 0 -2 -2 -2 -2 -2 -2 -2 0 10 41 92 100 51 15 1 -1 -2 -2 0 11 43 95 
95 43 12 5 12 33 68 102 102 68 33 12 2 0 2 14 44 88 106 73 32 9 0 -2 -2 -2 -2 -2 -2 -2 -2 -2 -2 -2 0 9 31 73 106 86 40 12 1 -2 -2 -2 -2 -2 -1 4 22 65 106 80 31 7 0 -2 -2 -2 -2 -2 -2 -2 -2 -2 -2 -2 -2 -2 -2 -2 -2 -2 -2 -2 -2 -2 -2 0 8 34 82 106 67 25 5 0 -2 -2 -2 -2 -2 -2 -1 1 15 51 100 92 41 10 0 -2 -2 -2 0 11 43 95 
95 43 11 1 2 12 33 68 102 102 68 33 12 5 10 32 73 106 88 44 14 2 -1 -2 -2 -2 -2 -2 -2 -2 -2 -2 -2 -1 4 21 58 100 100 58 21 4 -1 -2 -2 -2 -2 -2 -1 1 15 52 101 89 38 9 0 -2 -2 -2 -2 -2 -2 -2 -2 -2 -2 -2 -2 -2 -2 -2 -2 -2 -2 -2 -2 -2 -1 1 14 49 97 97 49 14 1 -1 -2 -2 -2 -2 -2 -2 -1 4 22 65 106 80 32 7 0 -2 -2 -2 0 11 43 95 
95 43 11 0 0 2 11 33 68 102 102 69 35 20 27 60 100 100 59 22 5 0 -2 -2 -2 -2 -2 -2 -2 -2 -2 -2 -2 1 12 40 86 106 73 31 9 0 -2 -2 -2 -2 -2 -2 -2 0 12 46 97 94 42 10 0 -2 -2 -2 -2 -2 -2 -2 -2 -2 -2 -2 -2 -2 -2 -2 -2 -2 -2 -2 -2 -2 0 5 25 67 106 82 34 8 0 -2 -2 -2 -2 -2 -2 -2 0 7 32 80 106 65 22 4 -1 -2 -2 -2 0 11 43 95 
95 43 11 0 -1 -1 2 11 33 68 102 103 73 50 58 92 106 73 31 9 0 -2 -2 -2 -2 -2 -2 -2 -2 -2 -2 -2 0 5 24 64 104 90 45 15 2 -1 -2 -2 -2 -2 -2 -2 -2 0 10 42 94 97 46 12 0 -2 -2 -2 -2 -2 -2 -2 -2 -2 -2 -2 -2 -2 -2 -2 -2 -2 -2 -2 -2 -2 0 11 41 89 104 61 21 4 -1 -2 -2 -2 -2 -2 -2 -2 0 10 41 92 100 51 15 1 -1 -2 -2 -2 0 11 43 95 
95 43 11 0 -2 -2 -1 2 11 33 68 103 110 97 101 113 89 44 14 2 -1 -2 -2 -2 -2 -2 -2 -2 -2 -2 -2 -1 1 12 42 89 105 65 25 5 0 -2 -2 -2 -2 -2 -2 -2 -2 0 9 38 89 101 52 15 1 -1 -2 -2 -2 -2 -2 -2 -2 -2 -2 -2 -2 -2 -2 -2 -2 -2 -2 -2 -2 -1 4 21 61 104 89 41 11 0 -2 -2 -2 -2 -2 -2 -2 -1 1 15 51 100 92 41 10 0 -2 -2 -2 -2 0 11 43 95 
95 43 11 0 -2 -2 -2 -1 2 12 33 70 111 136 136 108 59 22 5 0 -2 -2 -2 -2 -2 -2 -2 -2 -2 -2 -2 0 5 25 65 105 89 42 12 1 -1 -2 -2 -2 -2 -2 -2 -2 -2 0 7 31 80 106 65 22 4 -1 -2 -2 -2 -2 -2 -2 -2 -2 -2 -2 -2 -2 -2 -2 -2 -2 -2 -2 -2 0 8 34 82 106 67 25 5 0 -2 -2 -2 -2 -2 -2 -2 -1 4 22 65 106 80 32 7 0 -2 -2 -2 -2 0 11 43 95 
95 43 11 0 -2 -2 -2 -2 -1 2 12 37 82 132 132 80 33 9 0 -2 -2 -2 -2 -2 -2 -2 -2 -2 -2 -2 -1 2 15 45 90 104 64 24 5 0 -2 -2 -2 -2 -2 -2 -2 -2 -2 -1 4 22 65 106 80 31 7 0 -2 -2 -2 -2 -2 -2 -2 -2 -2 -2 -2 -2 -2 -2 -2 -2 -2 -2 -1 1 14 49 97 97 49 14 1 -1 -2 -2 -2 -2 -2 -2 -2 0 7 32 80 106 65 22 4 -1 -2 -2 -2 -2 0 11 43 95 
95 43 11 0 -2 -2 -2 -2 -2 0 4 19 56 110 114 60 20 3 -1 -2 -2 -2 -2 -2 -2 -2 -2 -2 -2 -2 0 9 31 73 106 86 40 12 1 -2 -2 -2 -2 -2 -2 -2 -2 -2 -2 -1 1 15 52 101 89 38 9 0 -2 -2 -2 -2 -2 -2 -2 -2 -2 -2 -2 -2 -2 -2 -2 -2 -2 -2 0 5 25 67 106 82 34 8 0 -2 -2 -2 -2 -2 -2 -2 -2 0 10 41 92 100 51 15 1 -1 -2 -2 -2 -2 0 11 43 95 
95 43 11 0 -2 -2 -2 -2 -2 -2 0 11 42 94 106 56 18 2 -1 -2 -2 -2 -2 -2 -2 -2 -2 -2 -2 -1 4 21 58 100 100 58 21 4 -1 -2 -2 -2 -2 -2 -2 -2 -2 -2 -2 -2 0 12 46 97 94 41 10 0 -2 -2 -2 -2 -2 -2 -2 -2 -2 -2 -2 -2 -2 -2 -2 -2 -2 -2 0 11 41 89 104 61 21 4 -1 -2 -2 -2 -2 -2 -2 -2 -1 1 15 51 100 92 41 10 0 -2 -2 -2 -2 -2 0 11 43 95 
95 43 11 0 -2 -2 -2 -2 -2 -2 0 7 32 81 107 66 23 4 -1 -2 -2 -2 -2 -2 -2 -2 -2 -2 -2 1 12 40 86 106 73 31 9 0 -2 -2 -2 -2 -2 -2 -2 -2 -2 -2 -2 -2 0 11 43 96 96 43 11 0 -2 -2 -2 -2 -2 -2 -2 -2 -2 -2 -2 -2 -2 -2 -2 -2 -2 -1 4 21 61 104 89 41 11 0 -2 -2 -2 -2 -2 -2 -2 -2 -1 4 22 65 106 80 32 7 0 -2 -2 -2 -2 -2 0 11 43 95 
95 43 11 0 -2 -2 -2 -2 -2 -2 -1 4 22 65 106 80 31 7 0 -2 -2 -2 -2 -2 -2 -2 -2 -2 0 5 24 64 104 90 45 15 2 -1 -2 -2 -2 -2 -2 -2 -2 -2 -2 -2 -2 -2 0 10 41 94 97 46 12 0 -2 -2 -2 -2 -2 -2 -2 -2 -2 -2 -2 -2 -2 -2 -2 -2 -2 0 8 34 82 106 67 25 5 0 -2 -2 -2 -2 -2 -2 -2 -2 0 7 32 80 106 65 22 4 -1 -2 -2 -2 -2 -2 0 11 43 96 
96 43 11 0 -2 -2 -2 -2 -2 -2 -1 1 15 52 101 90 39 9 0 -2 -2 -2 -2 -2 -2 -2 -2 -1 1 12 42 89 105 65 25 5 0 -2 -2 -2 -2 -2 -2 -2 -2 -2 -2 -2 -2 -2 0 9 38 89 101 52 15 1 -1 -2 -2 -2 -2 -2 -2 -2 -2 -2 -2 -2 -2 -2 -2 -2 -1 1 14 49 97 97 49 14 1 -1 -2 -2 -2 -2 -2 -2 -2 -2 0 10 41 92 100 51 15 1 -1 -2 -2 -2 -2 -2 0 11 44 96 
96 43 11 0 -2 -2 -2 -2 -2 -2 -2 0 12 44 96 96 44 12 0 -2 -2 -2 -2 -2 -2 -2 -2 0 5 25 65 105 89 42 12 1 -1 -2 -2 -2 -2 -2 -2 -2 -2 -2 -2 -2 -2 -2 0 7 31 80 106 65 22 4 -1 -2 -2 -2 -2 -2 -2 -2 -2 -2 -2 -2 -2 -2 -2 -2 0 5 25 67 106 82 34 8 0 -2 -2 -2 -2 -2 -2 -2 -2 -1 1 15 51 100 92 41 10 0 -2 -2 -2 -2 -2 -2 0 12 46 99 
98 42 10 0 -2 -2 -2 -2 -2 -2 -2 0 9 39 90 101 52 15 1 -1 -2 -2 -2 -2 -2 -2 -1 2 15 45 90 104 64 24 5 0 -2 -2 -2 -2 -2 -2 -2 -2 -2 -2 -2 -2 -2 -2 -1 4 22 65 106 80 31 7 0 -2 -2 -2 -2 -2 -2 -2 -2 -2 -2 -2 -2 -2 -2 -2 0 11 41 89 104 61 21 4 -1 -2 -2 -2 -2 -2 -2 -2 -2 -1 4 22 65 106 80 32 7 0 -2 -2 -2 -2 -2 -1 2 16 53 106 
100 42 10 0 -2 -2 -2 -2 -2 -2 -2 0 7 31 80 106 65 22 4 -1 -2 -2 -2 -2 -2 -2 0 9 31 73 106 86 40 12 1 -2 -2 -2 -2 -2 -2 -2 -2 -2 -2 -2 -2 -2 -2 -2 -1 1 15 52 101 89 38 9 0 -2 -2 -2 -2 -2 -2 -2 -2 -2 -2 -2 -2 -2 -2 -1 4 21 61 104 89 41 11 0 -2 -2 -2 -2 -2 -2 -2 -2 -2 0 7 32 80 106 65 22 4 -1 -2 -2 -2 -2 -2 0 6 26 70 120 
102 42 10 0 -2 -2 -2 -2 -2 -2 -2 -1 4 22 65 106 80 31 7 0 -2 -2 -2 -2 -2 -1 4 21 58 100 100 58 21 4 -1 -2 -2 -2 -2 -2 -2 -2 -2 -2 -2 -2 -2 -2 -2 -2 -2 0 12 46 97 94 41 10 0 -2 -2 -2 -2 -2 -2 -2 -2 -2 -2 -2 -2 -2 -2 0 8 34 82 106 67 25 5 0 -2 -2 -2 -2 -2 -2 -2 -2 -2 0 10 41 92 100 51 15 1 -1 -2 -2 -2 -2 -1 2 14 45 97 137 
103 42 10 0 -2 -2 -2 -2 -2 -2 -2 -1 1 15 52 101 90 39 9 0 -2 -2 -2 -2 -2 1 12 40 86 106 73 31 9 0 -2 -2 -2 -2 -2 -2 -2 -2 -2 -2 -2 -2 -2 -2 -2 -2 -2 0 11 43 96 96 43 11 0 -2 -2 -2 -2 -2 -2 -2 -2 -2 -2 -2 -2 -2 -1 1 14 49 97 97 49 14 1 -1 -2 -2 -2 -2 -2 -2 -2 -2 -1 1 15 51 100 92 41 10 0 -2 -2 -2 -2 -2 0 9 31 74 123 144 
101 42 10 0 -2 -2 -2 -2 -2 -2 -2 -2 0 12 44 96 96 44 12 0 -2 -2 -2 -2 0 5 24 64 104 90 45 15 2 -1 -2 -2 -2 -2 -2 -2 -2 -2 -2 -2 -2 -2 -2 -2 -2 -2 -2 0 10 41 94 97 46 12 0 -2 -2 -2 -2 -2 -2 -2 -2 -2 -2 -2 -2 -2 0 5 25 67 106 82 34 8 0 -2 -2 -2 -2 -2 -2 -2 -2 -2 -1 4 22 65 106 80 32 7 0 -2 -2 -2 -2 0 5 22 58 104 130 136 
98 42 11 0 -2 -2 -2 -2 -2 -2 -2 -2 0 9 39 90 101 52 15 1 -1 -2 -2 -1 1 12 42 89 105 65 25 5 0 -2 -2 -2 -2 -2 -2 -2 -2 -2 -2 -2 -2 -2 -2 -2 -2 -2 -2 0 9 38 89 101 52 15 2 -1 -2 -2 -2 -2 -2 -2 -2 -2 -2 -2 -2 -2 0 11 41 89 104 61 21 4 -1 -2 -2 -2 -2 -2 -2 -2 -2 -2 0 7 32 80 106 65 22 4 -1 -2 -2 -2 -1 2 14 44 89 115 113 121 
97 43 11 0 -2 -2 -2 -2 -2 -2 -2 -2 0 7 31 80 106 65 22 4 -1 -2 -2 0 5 25 65 105 89 42 12 1 -1 -2 -2 -2 -2 -2 -2 -2 -2 -2 -2 -2 -2 -2 -2 -2 -2 -2 -2 0 7 31 80 106 65 23 4 0 -2 -2 -2 -2 -2 -2 -2 -2 -2 -2 -2 -1 4 21 61 104 89 41 11 0 -2 -2 -2 -2 -2 -2 -2 -2 -2 -2 0 10 41 92 100 51 15 1 -1 -2 -2 -2 0 9 31 73 108 100 88 109 
96 43 11 0 -2 -2 -2 -2 -2 -2 -2 -2 -1 4 22 65 106 80 31 7 0 -2 -1 2 15 45 90 104 64 24 5 0 -2 -2 -2 -2 -2 -2 -2 -2 -2 -2 -2 -2 -2 -2 -2 -2 -2 -2 -2 -1 4 23 66 108 82 34 10 2 0 0 -1 -1 -2 -2 -2 -2 -2 -2 -2 0 8 34 82 106 67 25 5 0 -2 -2 -2 -2 -2 -2 -2 -2 -2 -1 1 15 51 100 92 41 10 0 -2 -2 -2 0 5 22 59 100 102 72 67 102 
96 43 11 0 -2 -2 -2 -2 -2 -2 -2 -2 -1 1 15 52 101 90 39 9 0 -1 0 9 31 73 106 86 40 12 1 -2 -2 -2 -2 -2 -2 -2 -2 -2 -2 -2 -2 -2 -2 -2 -2 -2 -2 -2 -2 -1 3 19 57 107 98 50 23 13 9 7 4 1 0 0 0 0 0 -1 0 2 15 49 97 97 49 14 1 -1 -2 -2 -2 -2 -2 -2 -2 -2 -2 -1 4 22 65 106 80 32 7 0 -2 -2 -1 2 14 44 88 106 76 45 55 98 
96 43 11 0 -2 -2 -2 -2 -2 -2 -2 -2 -2 0 12 44 96 96 44 12 1 0 4 21 58 100 100 58 21 4 -1 -2 -2 -2 -2 -2 -2 -2 -2 -2 -2 -2 -2 -2 -2 -2 -2 -2 -2 -2 -1 1 7 25 64 117 120 80 54 44 38 31 22 15 12 11 10 9 7 4 3 8 27 69 107 82 34 8 0 -2 -2 -2 -2 -2 -2 -2 -2 -2 -2 0 7 32 80 106 65 22 4 -1 -2 -2 0 9 32 73 106 89 47 28 48 97 
95 43 11 0 -2 -2 -2 -2 -2 -2 -2 -2 -2 0 9 39 90 101 52 15 2 2 12 40 86 106 73 31 9 0 -2 -2 -2 -2 -2 -2 -2 -2 -2 -2 -2 -2 -2 -2 -2 -2 -2 -2 -2 0 2 9 23 49 90 134 142 119 103 95 90 80 65 52 46 43 41 38 31 23 19 25 51 94 106 62 21 4 -1 -2 -2 -2 -2 -2 -2 -2 -2 -2 -2 0 10 41 92 100 51 15 1 -1 -2 0 5 22 59 100 100 59 25 19 45 96 
95 43 11 0 -2 -2 -2 -2 -2 -2 -2 -2 -2 0 7 31 80 106 65 22 6 6 24 64 104 90 45 15 2 -1 -2 -2 -2 -2 -2 -2 -2 -2 -2 -2 -2 -2 -2 -2 -2 -2 -2 -1 0 5 14 32 59 91 115 123 115 104 98 98 101 106 106 101 97 96 94 89 80 66 57 64 90 117 94 43 12 1 -2 -2 -2 -2 -2 -2 -2 -2 -2 -2 -1 1 15 51 100 92 41 10 0 -1 -1 2 14 44 88 106 73 32 12 14 44 96 
95 43 11 0 -2 -2 -2 -2 -2 -2 -2 -2 -2 -1 4 22 65 106 80 32 11 15 42 89 105 65 25 5 0 -2 -2 -2 -2 -2 -2 -2 -2 -2 -2 -2 -2 -2 -2 -2 -2 -2 0 2 9 22 44 73 100 107 93 71 54 46 44 46 52 65 80 89 94 96 97 101 106 107 107 115 135 132 81 31 7 0 -2 -2 -2 -2 -2 -2 -2 -2 -2 -2 -1 4 22 65 106 80 32 7 0 -1 0 9 32 73 106 88 44 15 5 12 43 95 
95 43 11 0 -2 -2 -2 -2 -2 -2 -2 -2 -2 -1 1 15 52 101 90 41 18 28 66 105 89 42 12 1 -1 -2 -2 -2 -2 -2 -2 -2 -2 -2 -2 -2 -2 -2 -2 -2 -1 0 5 14 31 59 88 106 100 73 45 26 16 12 11 12 15 22 31 38 41 43 46 52 65 81 95 111 134 132 81 32 8 0 -2 -2 -2 -2 -2 -2 -2 -2 -2 -2 0 7 32 81 106 65 22 4 0 0 5 22 59 100 100 59 22 5 2 11 43 95 
95 43 11 0 -2 -2 -2 -2 -2 -2 -2 -2 -2 -2 0 12 44 96 97 50 30 49 91 104 64 24 5 0 -2 -2 -2 -2 -2 -2 -2 -2 -2 -2 -2 -2 -2 -2 -2 -1 1 8 22 44 73 100 106 88 59 32 15 6 2 0 0 0 1 4 7 9 10 11 12 15 22 32 43 59 89 117 96 48 17 4 0 -1 -2 -2 -2 -2 -2 -2 -2 -1 1 11 41 92 100 51 15 2 0 2 14 44 88 106 73 32 9 1 1 11 43 95 
95 43 11 0 -2 -2 -2 -2 -2 -2 -2 -2 -2 -2 0 9 39 90 104 64 50 77 107 86 40 12 1 -2 -2 -2 -2 -2 -2 -2 -2 -2 -2 -2 -2 -2 -2 -2 0 3 11 29 57 88 106 100 73 44 22 9 2 0 -1 -2 -2 -2 -1 -1 0 0 0 0 0 1 4 7 12 23 49 91 109 77 38 16 6 2 0 0 0 0 0 0 0 1 5 18 53 101 93 42 11 1 1 9 32 73 106 88 44 14 2 0 0 11 43 95 
95 43 11 0 -2 -2 -2 -2 -2 -2 -2 -2 -2 -2 0 7 31 80 111 88 82 105 100 58 21 4 -1 -2 -2 -2 -2 -2 -2 -2 -2 -2 -2 -2 -2 -2 -1 0 5 15 35 67 98 106 88 59 32 14 5 0 -1 -2 -2 -2 -2 -2 -2 -2 -2 -2 -2 -2 -2 -1 -1 0 1 7 23 60 103 110 78 46 26 16 12 11 11 11 11 11 11 12 17 35 74 112 85 35 9 2 6 22 59 100 100 59 22 5 0 -1 0 11 43 95 
95 43 11 0 -2 -2 -2 -2 -2 -2 -2 -2 -2 -2 -1 4 22 65 113 117 115 111 73 31 9 0 -2 -2 -2 -2 -2 -2 -2 -2 -2 -2 -2 -2 -2 0 2 9 22 44 75 102 102 75 44 22 9 2 0 -2 -2 -2 -2 -2 -2 -2 -2 -2 -2 -2 -2 -2 -2 -2 -2 -2 -1 1 9 34 79 125 127 97 70 54 46 44 43 43 43 43 43 45 51 71 108 125 83 36 13 7 16 44 88 106 73 32 9 0 -2 -2 0 11 43 95 
95 43 11 0 -2 -2 -2 -2 -2 -2 -2 -2 -2 -2 -1 1 15 52 109 137 129 93 45 14 2 -1 -2 -2 -2 -2 -2 -2 -2 -2 -2 -2 -2 -1 0 5 14 32 59 88 106 98 67 35 15 5 0 -1 -2 -2 -2 -2 -2 -2 -2 -2 -2 -2 -2 -2 -2 -2 -2 -2 -2 -2 -2 -1 3 20 60 119 144 128 113 103 98 96 96 95 95 95 96 97 102 116 139 139 98 55 30 24 38 75 107 88 44 14 2 -1 -2 -2 0 11 43 95 
95 43 11 0 -2 -2 -2 -2 -2 -2 -2 -2 -2 -2 -2 0 12 45 106 144 119 65 24 5 0 -2 -2 -2 -2 -2 -2 -2 -2 -2 -2 -2 0 2 9 22 44 73 100 106 88 57 29 11 3 0 -2 -2 -2 -2 -2 -2 -2 -2 -2 -2 -2 -2 -2 -2 -2 -2 -2 -2 -2 -2 -2 -1 2 17 57 112 122 98 90 92 94 95 95 95 95 95 96 96 98 103 114 124 117 95 72 62 78 107 103 60 22 5 0 -2 -2 -2 0 11 43 95 
95 43 11 0 -2 -2 -2 -2 -2 -2 -2 -2 -2 -2 -2 0 11 43 103 136 95 41 12 1 -1 -2 -2 -2 -2 -2 -2 -2 -2 -2 -1 0 5 14 31 58 88 106 100 73 44 22 8 1 -1 -2 -2 -2 -2 -2 -2 -2 -2 -2 -2 -2 -2 -2 -2 -2 -2 -2 -2 -2 -2 -2 -2 -1 4 22 66 110 93 55 41 40 42 42 43 43 43 43 43 43 44 46 54 70 91 107 111 113 125 124 82 35 10 0 -2 -2 -2 -2 0 11 43 95 
95 43 11 0 -2 -2 -2 -2 -2 -2 -2 -2 -2 -2 -2 0 10 42 100 120 69 25 5 0 -2 -2 -2 -2 -2 -2 -2 -2 -1 0 2 9 21 43 73 102 109 91 61 34 16 6 1 -1 -2 -2 -2 -2 -2 -2 -2 -2 -2 -2 -2 -2 -2 -2 -2 -2 -2 -2 -2 -2 -2 -2 -2 0 7 31 80 107 69 29 14 11 10 11 11 11 11 11 11 11 11 12 16 25 42 65 93 121 143 127 71 27 6 0 -2 -2 -2 -2 0 11 43 95 
95 43 11 0 -2 -2 -2 -2 -2 -2 -2 -2 -2 -2 -2 0 11 43 98 105 53 16 2 -1 -2 -2 -2 -2 -2 -2 0 0 4 9 17 32 59 92 119 118 90 58 35 19 9 3 1 0 -1 -1 -2 -2 -2 -2 -2 -2 -2 -2 -2 -2 -2 -2 -2 -2 -2 -2 -2 -2 -2 -2 -2 0 9 38 90 102 53 17 4 1 0 0 0 0 0 0 0 0 0 0 2 5 12 25 45 77 116 124 82 35 10 0 -2 -2 -2 -2 0 11 43 95 
95 43 11 0 -2 -2 -2 -2 -2 -2 -2 -2 -2 -2 -2 0 12 46 98 97 44 12 0 -2 -2 -2 -2 -1 0 1 5 11 21 35 52 76 109 136 142 119 85 62 47 35 23 15 11 7 4 1 0 0 0 -1 -1 -2 -2 -2 -2 -2 -2 -2 -2 -2 -2 -2 -2 -2 -2 -2 -2 0 10 42 94 97 46 12 1 -1 -2 -2 -2 -2 -2 -2 -2 -2 -2 -2 -1 0 1 6 15 35 71 108 103 60 22 5 0 -2 -2 -2 0 11 43 95 
95 43 11 0 -2 -2 -2 -2 -2 -2 -2 -2 -2 -2 -1 1 15 52 102 90 39 9 0 -1 -2 -1 0 1 5 12 24 41 62 82 99 112 119 122 125 122 110 100 92 81 65 51 41 32 22 15 12 9 7 4 1 0 0 -1 -1 -2 -2 -2 -2 -2 -2 -2 -2 -2 -2 -2 -2 0 12 46 97 94 42 11 0 -2 -2 -2 -2 -2 -2 -2 -2 -2 -2 -2 -2 -2 -1 0 3 13 36 75 107 88 44 14 2 -1 -2 -2 0 11 43 95 
95 43 11 0 -2 -2 -2 -2 -2 -2 -2 -2 -2 -2 -1 4 22 65 106 80 31 7 0 0 1 4 8 14 25 42 64 88 104 106 98 84 69 62 68 81 91 96 101 106 106 100 92 81 65 52 44 39 31 22 15 10 7 4 1 0 0 0 -1 -1 -2 -2 -2 -2 -2 -2 -1 1 15 52 101 89 38 9 0 -2 -2 -2 -2 -2 -2 -2 -2 -2 -2 -2 -2 -2 -2 -2 0 3 15 44 88 106 73 32 9 0 -1 -2 0 11 43 95 
95 43 11 0 -2 -2 -2 -2 -2 -2 -2 -2 -2 -2 0 7 31 80 106 65 23 6 2 5 11 21 34 49 68 89 105 105 89 68 49 35 24 20 23 31 39 44 52 65 81 92 100 106 106 101 96 90 80 65 51 41 32 22 15 12 9 7 4 1 0 0 -1 -1 -2 -2 0 4 22 65 106 80 31 7 0 -2 -2 -2 -2 -2 -2 -2 -2 -2 -2 -2 -2 -2 -2 -2 -2 0 5 22 59 100 100 59 22 5 0 -1 0 11 43 95 
95 43 11 0 -2 -2 -2 -2 -2 -2 -2 -2 -2 -2 0 9 39 90 102 54 19 10 13 24 41 61 82 97 106 104 88 64 42 25 15 8 4 3 4 7 9 12 15 22 32 41 51 65 80 90 96 101 106 106 100 92 81 65 52 44 39 31 22 15 10 7 4 1 0 0 1 8 32 80 106 65 22 4 -1 -2 -2 -2 -2 -2 -2 -2 -2 -2 -2 -2 -2 -2 -2 -2 -2 -2 0 9 32 73 106 88 44 15 3 0 0 11 43 95 
95 43 11 0 -2 -2 -2 -2 -2 -2 -2 -2 -2 -2 0 12 44 97 100 53 27 28 42 64 88 104 106 97 82 61 41 24 12 5 1 0 -1 -1 -1 0 0 0 1 4 7 10 15 22 31 39 44 52 65 81 92 100 106 106 101 96 90 80 65 51 41 32 22 15 12 10 10 16 42 92 102 52 15 1 -1 -2 -2 -2 -2 -2 -2 -2 -2 -2 -2 -2 -2 -2 -2 -2 -2 -2 -1 2 14 44 88 106 75 35 11 2 1 11 43 95 
95 43 11 0 -2 -2 -2 -2 -2 -2 -2 -2 -2 -1 2 16 53 105 105 67 55 68 89 105 105 89 68 49 34 21 11 5 1 0 -1 -2 -2 -2 -2 -2 -2 -2 -1 -1 0 0 1 4 7 9 12 15 22 32 41 51 65 80 90 96 101 106 106 100 92 81 65 52 44 39 34 35 58 102 99 46 12 0 -2 -2 -2 -2 -2 -2 -2 -2 -2 -2 -2 -2 -2 -2 -2 -2 -2 -2 -2 0 5 22 57 98 102 67 29 9 3 12 43 95 
95 43 11 0 -2 -2 -2 -2 -2 -2 -2 -2 -2 0 5 25 70 122 122 99 98 106 105 89 65 42 25 14 8 4 0 0 -2 -2 -2 -2 -2 -2 -2 -2 -2 -2 -2 -2 -2 -2 -1 -1 0 0 0 1 4 7 10 15 22 31 39 44 52 65 81 92 100 106 106 101 96 91 83 77 90 120 100 43 11 0 -2 -2 -2 -2 -2 -2 -2 -2 -2 -2 -2 -2 -2 -2 -2 -2 -2 -2 -2 -2 0 8 29 67 102 98 58 23 8 13 43 96 
95 43 11 0 -2 -2 -2 -2 -2 -2 -2 -2 -1 1 12 42 95 140 138 121 107 88 64 42 24 12 5 1 0 -1 -2 -2 -2 -2 -2 -2 -2 -2 -2 -2 -2 -2 -2 -2 -2 -2 -2 -2 -2 -2 -2 -1 -1 0 0 1 4 7 9 12 15 22 32 41 51 65 80 90 96 101 108 115 128 142 103 42 10 0 -2 -2 -2 -2 -2 -2 -2 -2 -2 -2 -2 -2 -2 -2 -2 -2 -2 -2 -2 -2 -1 1 11 35 75 106 88 45 18 17 44 96 
96 43 11 0 -2 -2 -2 -2 -2 -2 -2 -2 0 5 24 65 115 129 109 85 62 41 24 12 5 1 0 -1 -2 -2 -2 -2 -2 -2 -2 -2 -2 -2 -2 -2 -2 -2 -2 -2 -2 -2 -2 -2 -2 -2 -2 -2 -2 -2 -2 -1 -1 0 0 0 1 4 7 10 15 22 31 39 44 52 67 89 118 139 103 42 10 0 -2 -2 -2 -2 -2 -2 -2 -2 -2 -2 -2 -2 -2 -2 -2 -2 -2 -2 -2 -2 -2 -1 3 15 44 88 106 75 38 25 47 96 
96 43 11 0 -2 -2 -2 -2 -2 -2 -2 -1 2 15 45 91 113 87 55 35 21 11 5 1 0 -2 -2 -2 -2 -2 -2 -2 -2 -2 -2 -2 -2 -2 -2 -2 -2 -2 -2 -2 -2 -2 -2 -2 -2 -2 -2 -2 -2 -2 -2 -2 -2 -2 -2 -2 -1 -1 0 0 1 4 7 9 12 16 25 44 77 117 99 42 10 0 -2 -2 -2 -2 -2 -2 -2 -2 -2 -2 -2 -2 -2 -2 -2 -2 -2 -2 -2 -2 -2 -2 0 5 22 58 98 103 70 43 54 98 
96 43 11 0 -2 -2 -2 -2 -2 -2 -2 0 9 32 73 107 90 48 21 10 4 0 0 -2 -2 -2 -2 -2 -2 -2 -2 -2 -2 -2 -2 -2 -2 -2 -2 -2 -2 -2 -2 -2 -2 -2 -2 -2 -2 -2 -2 -2 -2 -2 -2 -2 -2 -2 -2 -2 -2 -2 -2 -2 -1 -1 0 0 0 2 7 20 54 103 97 43 11 0 -2 -2 -2 -2 -2 -2 -2 -2 -2 -2 -2 -2 -2 -2 -2 -2 -2 -2 -2 -2 -2 -2 -2 0 8 29 67 103 101 71 67 102 
97 43 11 0 -2 -2 -2 -2 -2 -2 0 5 22 59 100 100 59 23 7 1 -1 -2 -2 -2 -2 -2 -2 -2 -2 -2 -2 -2 -2 -2 -2 -2 -2 -2 -2 -2 -2 -2 -2 -2 -2 -2 -2 -2 -2 -2 -2 -2 -2 -2 -2 -2 -2 -2 -2 -2 -2 -2 -2 -2 -2 -2 -2 -2 -2 -1 2 13 45 97 97 44 11 0 -2 -2 -2 -2 -2 -2 -2 -2 -2 -2 -2 -2 -2 -2 -2 -2 -2 -2 -2 -2 -2 -2 -2 -1 1 11 35 75 108 100 88 109 
98 42 11 0 -2 -2 -2 -2 -2 -1 3 15 44 88 106 73 32 9 1 -1 -2 -2 -2 -2 -2 -2 -2 -2 -2 -2 -2 -2 -2 -2 -2 -2 -2 -2 -2 -2 -2 -2 -2 -2 -2 -2 -2 -2 -2 -2 -2 -2 -2 -2 -2 -2 -2 -2 -2 -2 -2 -2 -2 -2 -2 -2 -2 -2 -2 -1 0 11 43 96 99 47 13 1 -1 -2 -2 -2 -2 -2 -2 -2 -2 -2 -2 -2 -2 -2 -2 -2 -2 -2 -2 -2 -2 -2 -2 -2 -1 3 15 44 89 115 113 121 
101 42 10 0 -2 -2 -2 -2 -1 2 12 35 75 108 91 47 17 4 0 -1 -2 -2 -2 -2 -2 -2 -2 -2 -2 -2 -2 -2 -2 -2 -2 -2 -2 -2 -2 -2 -2 -2 -2 -2 -2 -2 -2 -2 -2 -2 -2 -2 -2 -2 -2 -2 -2 -2 -2 -2 -2 -2 -2 -2 -2 -2 -2 -2 -2 -1 1 13 44 97 107 58 20 5 0 -1 -2 -2 -2 -2 -2 -2 -2 -2 -2 -2 -2 -2 -2 -2 -2 -2 -2 -2 -2 -2 -2 -2 -2 0 5 22 59 104 130 136 
103 42 10 0 -2 -2 -2 -1 2 11 32 70 108 109 70 34 15 6 2 0 0 0 0 0 0 0 0 0 0 -1 -1 -2 -2 -2 -2 -2 -2 -2 -2 -2 -2 -2 -2 -2 -2 -2 -2 -2 -2 -2 -2 -2 -2 -2 -2 -2 -2 -2 -2 -2 -2 -2 -2 -2 -2 -2 -2 -2 -1 0 6 21 53 105 125 83 40 16 6 1 -1 -2 -2 -2 -2 -2 -2 -2 -2 -2 -2 -2 -2 -2 -2 -2 -2 -2 -2 -2 -2 -2 -2 -2 0 9 31 74 123 144 
102 42 10 0 -2 -2 -1 2 11 32 69 113 130 107 73 49 34 23 16 12 11 11 11 11 11 11 10 9 7 4 1 0 0 0 0 0 0 0 0 0 -1 -1 -2 -2 -2 -2 -2 -2 -2 -2 -2 -2 -2 -2 -2 -2 -2 -2 -2 -2 -2 -2 -2 -2 -2 -2 -1 0 2 9 22 45 80 123 144 119 78 46 25 12 4 0 -1 -2 -2 -2 -2 -2 -2 -2 -2 -2 -2 -2 -2 -2 -2 -2 -2 -2 -2 -2 -2 -2 -1 2 14 45 97 137 
100 42 10 0 -1 -1 2 11 32 69 112 141 140 122 105 93 81 65 52 46 44 43 43 43 43 42 41 38 31 22 15 12 11 11 11 11 11 10 9 7 4 1 0 0 0 0 0 0 0 0 0 0 -1 -1 -2 -2 -2 -2 -2 -2 -2 -2 -2 -2 -2 0 1 5 15 32 58 88 111 122 124 123 112 91 65 41 21 9 2 0 -1 -2 -2 -2 -2 -2 -2 -2 -2 -2 -2 -2 -2 -2 -2 -2 -2 -2 -2 -2 -2 0 6 26 70 120 
98 42 11 0 0 2 12 33 68 105 121 116 107 101 99 102 106 106 101 98 96 96 95 95 95 95 94 89 80 65 52 46 44 43 43 43 42 41 38 31 22 15 12 11 11 11 11 11 11 10 9 7 4 1 0 0 0 0 0 0 0 0 0 0 0 4 12 25 45 73 100 107 93 73 65 73 91 106 105 86 58 31 15 5 1 -1 -2 -2 -2 -2 -2 -2 -2 -2 -2 -2 -2 -2 -2 -2 -2 -2 -2 -2 -2 -1 2 16 53 106 
96 43 11 2 3 12 33 68 102 105 80 57 47 44 46 52 65 80 89 94 95 95 95 95 96 96 98 101 106 106 101 98 96 96 95 95 95 94 89 80 65 52 46 44 43 43 43 43 42 41 38 31 22 15 12 11 11 11 11 11 10 9 7 7 10 22 41 65 90 106 100 73 46 28 22 27 43 65 90 106 100 73 45 25 12 4 0 -1 -2 -2 -2 -2 -2 -2 -2 -2 -2 -2 -2 -2 -2 -2 -2 -2 -2 -2 0 12 46 99 
96 44 14 8 16 36 69 102 102 70 37 19 13 11 12 15 22 31 38 41 42 43 43 43 43 44 46 52 65 80 89 94 95 95 95 96 96 98 101 106 106 101 98 96 96 95 95 95 95 94 89 80 65 52 46 44 43 43 43 42 41 38 33 30 38 60 87 105 104 86 58 32 15 6 4 6 12 25 45 73 100 106 90 65 41 21 9 2 0 -1 -2 -2 -2 -2 -2 -2 -2 -2 -2 -2 -2 -2 -2 -2 -2 -2 0 11 44 96 
97 47 22 25 45 75 103 101 68 33 13 4 1 0 0 1 4 7 9 10 11 11 11 11 11 11 12 15 22 31 38 41 42 43 43 43 44 46 52 65 80 89 94 95 95 95 95 96 96 98 101 106 106 101 98 96 96 95 95 95 94 91 85 80 88 105 108 91 65 41 21 9 2 0 -1 0 1 5 15 31 58 86 104 104 86 58 31 15 5 1 -1 -2 -2 -2 -2 -2 -2 -2 -2 -2 -2 -2 -2 -2 -2 -2 0 11 43 96 
100 56 43 61 89 106 98 66 32 11 2 0 -1 -2 -2 -1 -1 0 0 0 0 0 0 0 0 0 0 1 4 7 9 10 11 11 11 11 11 12 15 22 31 38 41 42 43 43 43 43 44 46 52 65 80 89 94 95 95 95 96 96 99 106 119 132 133 113 77 46 25 12 4 0 -1 -2 -2 -2 -1 0 2 9 21 41 65 90 106 100 73 45 25 12 4 0 -1 -2 -2 -2 -2 -2 -2 -2 -2 -2 -2 -2 -2 -2 0 11 43 96 
107 77 79 101 106 88 57 29 10 2 -1 -2 -2 -2 -2 -2 -2 -2 -2 -2 -2 -2 -2 -2 -2 -2 -2 -1 -1 0 0 0 0 0 0 0 0 0 1 4 7 9 10 11 11 11 11 11 11 12 15 22 31 38 41 42 43 43 43 44 48 62 94 135 133 83 40 17 6 1 -1 -2 -2 -2 -2 -2 -2 -2 -1 0 4 12 25 45 73 100 106 90 65 41 21 9 2 0 -1 -2 -2 -2 -2 -2 -2 -2 -2 -2 -2 -2 0 11 43 97 
122 109 112 104 75 44 22 8 1 -1 -2 -2 -2 -2 -2 -2 -2 -2 -2 -2 -2 -2 -2 -2 -2 -2 -2 -2 -2 -2 -2 -2 -2 -2 -2 -2 -2 -2 -1 -1 0 0 0 0 0 0 0 0 0 0 1 4 7 9 10 11 11 11 11 12 15 28 62 114 112 58 20 5 0 -1 -2 -2 -2 -2 -2 -2 -2 -2 -2 -2 -1 1 5 15 31 58 86 104 104 86 58 31 15 5 1 0 -2 -2 -2 -2 -2 -2 -2 -2 -2 -2 0 10 42 99 
140 131 107 70 36 15 5 0 -1 -2 -2 -2 -2 -2 -2 -2 -2 -2 -2 -2 -2 -2 -2 -2 -2 -2 -2 -2 -2 -2 -2 -2 -2 -2 -2 -2 -2 -2 -2 -2 -2 -2 -2 -2 -2 -2 -2 -2 -2 -2 -1 -1 0 0 0 0 0 0 0 1 4 15 48 101 101 47 13 1 -1 -2 -2 -2 -2 -2 -2 -2 -2 -2 -2 -2 -2 -1 0 2 9 21 41 65 90 106 100 73 45 25 12 5 1 -1 -2 -2 -2 -2 -2 -2 -2 -2 0 10 42 102 
143 117 71 33 12 3 0 -2 -2 -2 -2 -2 -2 -2 -2 -2 -2 -2 -2 -2 -2 -2 -2 -2 -2 -2 -2 -2 -2 -2 -2 -2 -2 -2 -2 -2 -2 -2 -2 -2 -2 -2 -2 -2 -2 -2 -2 -2 -2 -2 -2 -2 -2 -2 -2 -2 -2 -2 -2 -1 1 12 44 97 97 44 11 0 -2 -2 -2 -2 -2 -2 -2 -2 -2 -2 -2 -2 -2 -2 -2 -1 0 4 12 25 45 73 100 106 90 65 42 24 12 4 0 -1 -2 -2 -2 -2 -2 -2 0 10 42 103 
126 82 37 12 2 -1 -2 -2 -2 -2 -2 -2 -2 -2 -2 -2 -2 -2 -2 -2 -2 -2 -2 -2 -2 -2 -2 -2 -2 -2 -2 -2 -2 -2 -2 -2 -2 -2 -2 -2 -2 -2 -2 -2 -2 -2 -2 -2 -2 -2 -2 -2 -2 -2 -2 -2 -2 -2 -2 -2 0 11 43 96 96 43 11 0 -2 -2 -2 -2 -2 -2 -2 -2 -2 -2 -2 -2 -2 -2 -2 -2 -2 -1 1 5 15 31 58 86 104 105 89 64 40 21 9 2 0 -1 -2 -2 -2 -2 0 10 42 101 
108 57 19 4 0 -2 -2 -2 -2 -2 -2 -2 -2 -2 -2 -2 -2 -2 -2 -2 -2 -2 -2 -2 -2 -2 -2 -2 -2 -2 -2 -2 -2 -2 -2 -2 -2 -2 -2 -2 -2 -2 -2 -2 -2 -2 -2 -2 -2 -2 -2 -2 -2 -2 -2 -2 -2 -2 -2 -2 0 11 43 95 95 43 11 0 -2 -2 -2 -2 -2 -2 -2 -2 -2 -2 -2 -2 -2 -2 -2 -2 -2 -2 -1 0 2 9 21 40 64 89 105 104 86 58 31 14 6 2 0 0 -1 -1 1 11 43 98 
99 47 13 1 -1 -2 -2 -2 -2 -2 -2 -2 -2 -2 -2 -2 -2 -2 -2 -2 -2 -2 -2 -2 -2 -2 -2 -2 -2 -2 -2 -2 -2 -2 -2 -2 -2 -2 -2 -2 -2 -2 -2 -2 -2 -2 -2 -2 -2 -2 -2 -2 -2 -2 -2 -2 -2 -2 -2 -2 0 11 43 95 95 43 11 0 -2 -2 -2 -2 -2 -2 -2 -2 -2 -2 -2 -2 -2 -2 -2 -2 -2 -2 -2 -2 -1 0 4 12 24 42 66 91 107 101 73 45 26 15 10 7 4 2 3 13 44 97 
97 44 11 0 -2 -2 -2 -2 -2 -2 -2 -2 -2 -2 -2 -2 -2 -2 -2 -2 -2 -2 -2 -2 -2 -2 -2 -2 -2 -2 -2 -2 -2 -2 -2 -2 -2 -2 -2 -2 -2 -2 -2 -2 -2 -2 -2 -2 -2 -2 -2 -2 -2 -2 -2 -2 -2 -2 -2 -2 0 11 43 95 95 43 11 0 -2 -2 -2 -2 -2 -2 -2 -2 -2 -2 -2 -2 -2 -2 -2 -2 -2 -2 -2 -2 -2 -2 0 1 6 14 28 50 81 111 117 97 70 52 41 32 22 16 14 21 50 99 
98 43 11 1 -1 -2 -2 -2 -2 -2 -2 -2 -2 -2 -2 -2 -2 -2 -2 -2 -2 -2 -2 -2 -2 -2 -2 -2 -2 -2 -2 -2 -2 -2 -2 -2 -2 -2 -2 -2 -2 -2 -2 -2 -2 -2 -2 -2 -2 -2 -2 -2 -2 -2 -2 -2 -2 -2 -2 -2 0 11 43 95 95 43 11 0 -2 -2 -2 -2 -2 -2 -2 -2 -2 -2 -2 -2 -2 -2 -2 -2 -2 -2 -2 -2 -2 -2 -1 0 3 8 17 33 60 100 134 141 123 105 93 81 65 52 44 45 66 107 
102 46 14 3 1 0 0 0 0 -1 -1 -2 -2 -2 -2 -2 -2 -2 -2 -2 -2 -2 -2 -2 -2 -2 -2 -2 -2 -2 -2 -2 -2 -2 -2 -2 -2 -2 -2 -2 -2 -2 -2 -2 -2 -2 -2 -2 -2 -2 -2 -2 -2 -2 -2 -2 -2 -2 -2 -2 0 11 43 95 95 43 11 0 -2 -2 -2 -2 -2 -2 -2 -2 -2 -2 -2 -2 -2 -2 -2 -2 -2 -2 -2 -2 -1 0 1 5 12 22 36 54 79 110 130 127 113 104 103 107 106 101 95 92 102 125 
112 55 24 14 11 11 10 9 7 4 1 0 0 0 0 0 0 -1 -1 -2 -2 -2 -2 -2 -2 -2 -2 -2 -2 -2 -2 -2 -2 -2 -2 -2 -2 -2 -2 -2 -2 -2 -2 -2 -2 -2 -2 -2 -2 -2 -2 -2 -2 -2 -2 -2 -2 -2 -2 -2 0 11 43 95 95 43 11 0 -2 -2 -2 -2 -2 -2 -2 -2 -2 -2 -2 -2 -2 -2 -2 -2 -2 -1 0 0 4 8 14 25 41 62 82 98 108 107 92 70 54 49 53 65 81 92 102 114 132 146 
128 82 55 46 43 42 41 38 31 22 15 12 11 11 10 9 7 4 1 0 0 0 0 0 0 0 -1 -1 -2 -2 -2 -2 -2 -2 -2 -2 -2 -2 -2 -2 -2 -2 -2 -2 -2 -2 -2 -2 -2 -2 -2 -2 -2 -2 -2 -2 -2 -2 -2 -2 0 11 43 95 95 43 11 0 -2 -2 -2 -2 -2 -2 -2 -2 -2 -2 -2 -2 -2 -2 -2 -1 0 1 5 11 21 34 49 67 89 104 106 97 82 61 41 25 16 14 16 22 32 41 53 74 109 143 
146 124 105 98 96 95 94 89 80 65 52 46 44 43 41 38 31 22 15 12 11 11 11 10 9 7 4 1 0 0 0 0 0 0 -1 -1 -2 -2 -2 -2 -2 -2 -2 -2 -2 -2 -2 -2 -2 -2 -2 -2 -2 -2 -2 -2 -2 -2 -2 -2 0 11 43 95 95 43 11 0 -2 -2 -2 -2 -2 -2 -2 -2 -2 -2 -2 -2 -2 0 0 4 8 14 25 41 61 82 97 106 104 89 67 49 34 21 11 5 2 1 2 4 7 11 18 34 71 125 
143 123 105 98 96 96 98 101 106 106 101 98 96 95 94 89 80 65 52 46 44 43 42 41 38 31 22 15 12 11 11 10 9 7 4 1 0 0 0 0 0 0 0 -1 -1 -2 -2 -2 -2 -2 -2 -2 -2 -2 -2 -2 -2 -2 -2 -2 0 11 43 95 95 43 11 0 -2 -2 -2 -2 -2 -2 -2 -2 -2 -2 -1 0 1 5 11 21 34 49 67 89 104 106 97 82 61 41 25 14 8 4 0 0 -1 -2 -1 -1 0 1 4 17 51 110 
119 82 55 46 44 44 46 52 65 80 89 94 95 96 98 101 106 106 101 98 96 95 95 94 89 80 65 52 46 44 43 41 38 31 22 15 12 11 11 11 10 9 7 4 1 0 0 0 0 0 0 -1 -1 -2 -2 -2 -2 -2 -2 -1 0 11 43 96 95 43 11 0 -2 -2 -2 -2 -2 -2 -2 -2 -1 0 1 5 12 24 41 61 82 97 106 104 89 67 49 34 21 11 5 1 0 -1 -2 -2 -2 -2 -2 -2 -2 -1 1 12 45 101 
103 55 24 14 11 11 12 15 22 31 38 41 43 44 46 52 65 80 89 94 95 95 96 98 101 106 106 101 98 96 95 94 89 80 65 52 46 44 43 42 41 38 31 22 15 12 11 11 10 9 7 4 1 0 0 0 0 0 0 0 1 12 44 96 96 43 11 0 -2 -2 -2 -2 -2 -1 0 0 4 8 14 25 42 64 88 104 106 97 82 61 41 25 14 8 4 0 0 -1 -2 -2 -2 -2 -2 -2 -2 -2 -2 -2 0 11 43 97 
97 46 14 3 1 0 0 1 4 7 9 10 11 11 12 15 22 31 38 41 42 43 44 46 52 65 80 89 94 95 96 98 101 106 106 101 98 96 95 95 94 89 80 65 52 46 44 43 41 38 31 22 15 12 11 11 11 10 9 7 7 15 46 98 97 44 11 0 -2 -2 -2 -1 0 1 5 11 21 34 49 68 89 105 105 89 68 49 34 21 11 5 1 0 -1 -2 -2 -2 -2 -2 -2 -2 -2 -2 -2 -2 -2 -2 0 11 43 96 
96 43 11 1 -1 -2 -2 -1 -1 0 0 0 0 0 0 1 4 7 9 10 11 11 11 12 15 22 31 38 41 43 44 46 52 65 80 89 94 95 95 96 98 101 106 106 101 98 96 95 94 89 80 65 52 46 44 43 42 41 38 32 25 29 57 104 101 47 13 1 0 0 0 4 8 14 25 41 61 82 97 106 104 88 64 42 25 14 8 4 0 0 -1 -2 -2 -2 -2 -2 -2 -2 -2 -2 -2 -2 -2 -2 -2 -2 0 11 43 95 
95 43 11 0 -2 -2 -2 -2 -2 -2 -2 -2 -2 -2 -2 -1 -1 0 0 0 0 0 0 0 1 4 7 9 10 11 11 12 15 22 31 38 41 42 43 44 46 52 65 80 89 94 95 96 98 101 106 106 101 98 96 95 95 94 89 80 68 65 85 122 114 58 21 6 3 5 11 21 34 49 67 89 104 106 97 82 61 41 24 12 5 1 0 -1 -2 -2 -2 -2 -2 -2 -2 -2 -2 -2 -2 -2 -2 -2 -2 -2 -2 -2 0 11 43 95 
95 43 11 0 -2 -2 -2 -2 -2 -2 -2 -2 -2 -2 -2 -2 -2 -2 -2 -2 -2 -2 -2 -2 -1 -1 0 0 0 0 0 0 1 4 7 9 10 11 11 11 12 15 22 31 38 41 43 44 46 52 65 80 89 94 95 95 96 98 101 106 108 109 121 143 133 84 42 22 19 26 41 62 82 97 106 104 89 67 49 34 21 11 5 1 0 -1 -2 -2 -2 -2 -2 -2 -2 -2 -2 -2 -2 -2 -2 -2 -2 -2 -2 -2 -2 -2 0 11 43 95 
95 43 11 0 -2 -2 -2 -2 -2 -2 -2 -2 -2 -2 -2 -2 -2 -2 -2 -2 -2 -2 -2 -2 -2 -2 -2 -2 -2 -2 -2 -2 -1 -1 0 0 0 0 0 0 0 1 4 7 9 10 11 11 12 15 22 31 38 41 42 43 44 46 52 65 80 91 102 116 127 114 84 62 58 70 90 104 106 97 82 61 41 25 14 8 4 0 0 -2 -2 -2 -2 -2 -2 -2 -2 -2 -2 -2 -2 -2 -2 -2 -2 -2 -2 -2 -2 -2 -2 -2 0 11 43 95 
95 43 11 0 -2 -2 -2 -2 -2 -2 -2 -2 -2 -2 -2 -2 -2 -2 -2 -2 -2 -2 -2 -2 -2 -2 -2 -2 -2 -2 -2 -2 -2 -2 -2 -2 -2 -2 -2 -2 -2 -1 -1 0 0 0 0 0 0 1 4 7 9 10 11 11 11 12 15 22 31 39 45 58 83 114 128 120 111 110 105 89 67 49 34 21 11 5 1 0 -1 -2 -2 -2 -2 -2 -2 -2 -2 -2 -2 -2 -2 -2 -2 -2 -2 -2 -2 -2 -2 -2 -2 -2 -2 -2 0 11 43 95 
96 43 11 0 -2 -2 -2 -2 -2 -2 -2 -2 -2 -2 -2 -2 -2 -2 -2 -2 -2 -2 -2 -2 -2 -2 -2 -2 -2 -2 -2 -2 -2 -2 -2 -2 -2 -2 -2 -2 -2 -2 -2 -2 -2 -2 -2 -2 -2 -1 -1 0 0 0 0 0 0 0 2 4 7 10 13 20 42 84 133 142 115 87 63 41 25 15 8 4 1 0 -1 -2 -2 -2 -2 -2 -2 -2 -2 -2 -2 -2 -2 -2 -2 -2 -2 -2 -2 -2 -2 -2 -2 -2 -2 -2 -2 -2 0 11 43 96 
96 43 11 1 -1 -2 -2 -2 -2 -2 -2 -2 -2 -2 -2 -2 -2 -2 -2 -2 -2 -2 -2 -2 -2 -2 -2 -2 -2 -2 -2 -2 -2 -2 -2 -2 -2 -2 -2 -2 -2 -2 -2 -2 -2 -2 -2 -2 -2 -2 -2 -1 -1 -1 -1 -1 -1 -1 -1 0 0 0 2 6 21 59 114 121 78 44 24 13 6 2 0 0 -1 -1 -2 -2 -2 -2 -2 -2 -2 -2 -2 -2 -2 -2 -2 -2 -2 -2 -2 -2 -2 -2 -2 -2 -2 -2 -2 -2 -2 -1 1 11 43 96 
98 46 14 3 1 0 0 0 0 0 0 0 0 0 0 0 0 0 0 0 0 0 0 0 0 0 0 0 0 0 0 0 0 0 0 0 0 0 0 0 0 0 0 0 0 0 0 0 0 0 0 0 0 0 0 0 0 0 0 0 0 1 1 5 17 50 103 106 57 24 10 4 2 1 1 0 0 0 0 0 0 0 0 0 0 0 0 0 0 0 0 0 0 0 0 0 0 0 0 0 0 0 0 0 0 0 3 14 46 98 
105 55 24 14 11 11 11 11 11 11 11 11 11 11 11 11 11 11 11 11 11 11 11 11 11 11 11 11 11 11 11 10 10 10 10 10 11 11 11 11 11 11 11 11 11 11 11 11 10 10 10 10 11 11 11 11 11 11 11 11 11 11 11 14 25 56 106 107 58 27 15 12 11 11 11 11 11 11 11 11 11 11 11 11 11 11 11 11 11 11 11 10 10 10 10 11 11 11 11 11 11 11 11 10 10 11 14 24 55 105 
124 82 55 46 43 43 43 43 43 43 43 43 43 43 43 43 43 43 43 43 43 43 43 43 43 43 43 43 43 43 43 42 42 42 42 42 43 43 43 43 43 43 43 43 43 43 43 43 42 42 42 42 43 43 43 43 43 43 43 43 43 43 43 46 55 82 123 124 82 56 46 44 43 43 43 43 43 43 43 43 43 43 43 43 43 43 43 43 43 43 43 42 42 42 42 43 43 43 43 43 43 43 43 42 42 43 45 55 82 124 
154 124 105 98 96 96 95 95 95 95 95 95 95 95 95 95 95 95 95 95 95 95 95 95 95 95 95 95 96 96 97 99 102 103 101 98 96 96 95 95 95 95 95 95 95 95 96 97 99 103 103 99 97 96 95 95 95 95 95 95 95 95 96 97 103 118 140 140 118 103 97 96 96 95 95 95 95 95 95 95 95 95 95 95 95 95 95 95 96 96 98 101 103 101 98 96 96 95 95 95 96 96 98 101 104 102 100 105 124 154 
