P2
110 110
255
154 117 99 94 94 93 93 93 93 93 93 93 93 93 93 93 93 93 93 93 93 93 93 93 93 93 93 94 94 95 99 112 137 151 129 106 96 94 94 93 93 93 93 93 93 94 94 98 113 144 143 113 98 94 94 93 93 93 93 93 93 93 93 94 94 96 101 101 96 94 94 93 93 93 93 93 93 93 93 93 93 93 93 93 93 93 93 94 94 97 107 132 151 130 106 96 94 94 93 94 94 96 105 130 151 131 107 102 117 154 
117 64 39 33 32 32 32 32 32 32 32 32 32 32 32 32 32 32 32 32 32 32 32 32 32 32 32 32 32 36 48 83 126 117 71 43 34 32 32 32 32 32 32 32 32 32 33 40 66 119 117 64 39 33 32 32 32 32 32 32 32 32 32 32 32 31 31 31 31 32 32 32 32 32 32 32 32 32 32 32 32 32 32 32 32 32 32 32 33 40 65 114 124 77 45 34 32 32 32 32 33 37 58 106 127 79 47 42 64 117 
99 39 12 5 4 3 3 3 3 3 3 3 3 3 3 3 3 3 3 3 3 3 3 3 3 3 3 4 6 14 41 92 113 67 26 9 4 4 3 3 3 3 3 3 3 4 6 15 47 110 101 39 12 5 4 3 3 3 3 3 3 3 3 3 3 3 3 3 3 3 3 3 3 3 3 3 3 3 3 3 3 3 3 3 3 3 3 4 7 20 61 113 90 36 12 5 4 3 3 4 5 12 38 97 103 45 15 13 39 99 
94 33 5 -1 -2 -3 -3 -3 -3 -3 -3 -3 -3 -3 -3 -3 -3 -3 -3 -3 -3 -3 -3 -3 -3 -3 -2 -1 3 22 65 110 86 33 7 0 -2 -2 -3 -3 -3 -3 -3 -3 -2 -2 1 16 60 125 100 33 5 -1 -2 -3 -3 -3 -3 -3 -3 -3 -3 -3 -3 -3 -3 -3 -3 -3 -3 -3 -3 -3 -3 -3 -3 -3 -3 -3 -3 -3 -3 -3 -3 -3 -2 -1 3 26 80 110 58 15 1 -2 -2 -3 -3 -2 0 8 40 100 91 32 6 6 33 94 
94 32 4 -2 -4 -4 -4 -4 -4 -4 -4 -4 -4 -4 -4 -4 -4 -4 -4 -4 -4 -4 -4 -4 -4 -4 -3 0 13 50 102 101 50 13 0 -3 -4 -4 -4 -4 -4 -4 -4 -4 -3 -2 4 31 91 147 101 32 3 -2 -4 -4 -4 -4 -4 -4 -4 -4 -4 -4 -4 -4 -4 -4 -4 -4 -4 -4 -4 -4 -4 -4 -4 -4 -4 -4 -4 -4 -4 -4 -4 -4 -3 -2 6 37 96 96 37 6 -2 -3 -4 -4 -4 -3 0 13 55 109 77 23 3 5 32 94 
93 32 3 -3 -4 -4 -4 -4 -4 -4 -4 -4 -4 -4 -4 -4 -4 -4 -4 -4 -4 -4 -4 -4 -4 -4 -2 6 33 85 109 64 20 2 -3 -4 -4 -4 -4 -4 -4 -4 -4 -4 -3 0 14 55 120 149 101 32 3 -3 -4 -4 -4 -4 -4 -4 -4 -4 -4 -4 -4 -4 -4 -4 -4 -4 -4 -4 -4 -4 -4 -4 -4 -4 -4 -4 -4 -4 -4 -4 -4 -4 -3 0 14 57 109 79 24 2 -3 -4 -4 -4 -4 -3 1 23 77 109 55 13 0 4 32 94 
93 32 3 -3 -4 -4 -4 -4 -4 -4 -4 -4 -4 -4 -4 -4 -4 -4 -4 -4 -4 -4 -4 -4 -4 -3 2 20 64 109 85 33 6 -2 -4 -4 -4 -4 -4 -4 -4 -4 -4 -4 -2 4 31 87 129 135 100 33 4 -2 -4 -4 -4 -4 -4 -4 -4 -4 -4 -4 -4 -4 -4 -4 -4 -4 -4 -4 -4 -4 -4 -4 -4 -4 -4 -4 -4 -4 -4 -4 -4 -4 -2 4 30 86 107 53 12 0 -3 -4 -4 -4 -4 -3 3 30 90 99 39 6 0 4 32 93 
93 32 3 -3 -4 -4 -4 -4 -4 -4 -4 -4 -4 -4 -4 -4 -4 -4 -4 -4 -4 -4 -4 -4 -3 0 13 50 101 101 50 13 0 -3 -4 -4 -4 -4 -4 -4 -4 -4 -4 -3 0 14 55 111 113 117 103 39 6 -2 -4 -4 -4 -4 -4 -4 -4 -4 -4 -4 -4 -4 -4 -4 -4 -4 -4 -4 -4 -4 -4 -4 -4 -4 -4 -4 -4 -4 -4 -4 -4 -3 0 12 53 107 86 30 4 -2 -4 -4 -4 -4 -4 -2 6 39 99 90 30 3 -1 4 32 93 
93 32 3 -3 -4 -4 -4 -4 -4 -4 -4 -4 -4 -4 -4 -4 -4 -4 -4 -4 -4 -4 -4 -4 -2 6 33 85 109 64 20 2 -3 -4 -4 -4 -4 -4 -4 -4 -4 -4 -4 -2 6 33 87 111 80 93 111 55 12 0 -3 -4 -4 -4 -4 -4 -4 -4 -4 -4 -4 -4 -4 -4 -4 -4 -4 -4 -4 -4 -4 -4 -4 -4 -4 -4 -4 -4 -4 -4 -4 -3 2 24 79 109 57 14 0 -3 -4 -4 -4 -4 -3 0 12 55 109 77 23 1 -1 4 32 93 
93 32 3 -3 -4 -4 -4 -4 -4 -4 -4 -4 -4 -4 -4 -4 -4 -4 -4 -4 -4 -4 -4 -3 2 20 64 109 85 33 6 -2 -4 -4 -4 -4 -4 -4 -4 -4 -4 -4 -3 2 20 64 109 87 47 63 110 77 22 1 -3 -4 -4 -4 -4 -4 -4 -4 -4 -4 -4 -4 -4 -4 -4 -4 -4 -4 -4 -4 -4 -4 -4 -4 -4 -4 -4 -4 -4 -4 -4 -2 6 37 96 96 37 6 -2 -4 -4 -4 -4 -4 -3 1 23 77 109 55 12 0 -2 3 32 93 
94 32 3 -3 -4 -4 -4 -4 -4 -4 -4 -4 -4 -4 -4 -4 -4 -4 -4 -4 -4 -4 -3 0 13 50 101 101 50 13 0 -3 -4 -4 -4 -4 -4 -4 -4 -4 -4 -3 0 12 49 101 102 51 23 43 100 89 29 3 -3 -4 -4 -4 -4 -4 -4 -4 -4 -4 -4 -4 -4 -4 -4 -4 -4 -4 -4 -4 -4 -4 -4 -4 -4 -4 -4 -4 -4 -4 -3 0 14 57 109 79 24 2 -3 -4 -4 -4 -4 -4 -3 3 30 90 99 39 6 -2 -2 3 32 93 
94 32 4 -2 -4 -4 -4 -4 -4 -4 -4 -4 -4 -4 -4 -4 -4 -4 -4 -4 -4 -4 -2 6 33 85 109 64 20 2 -3 -4 -4 -4 -4 -4 -4 -4 -4 -4 -4 -2 4 30 84 109 64 22 11 35 95 92 31 3 -3 -4 -4 -4 -4 -4 -4 -4 -4 -4 -4 -4 -4 -4 -4 -4 -4 -4 -4 -4 -4 -4 -4 -4 -4 -4 -4 -4 -4 -4 -2 4 30 86 107 53 12 0 -3 -4 -4 -4 -4 -4 -2 6 39 99 90 30 3 -2 -2 3 32 94 
96 34 4 -2 -4 -4 -4 -4 -4 -4 -4 -4 -4 -4 -4 -4 -4 -4 -4 -4 -4 -3 2 20 64 109 85 33 6 -2 -4 -4 -4 -4 -4 -4 -4 -4 -4 -4 -3 0 14 55 107 87 33 7 6 32 94 94 32 3 -3 -4 -4 -4 -4 -4 -4 -4 -4 -4 -4 -4 -4 -4 -4 -4 -4 -4 -4 -4 -4 -4 -4 -4 -4 -4 -4 -4 -4 -3 0 12 53 107 86 30 4 -2 -4 -4 -4 -4 -4 -3 0 12 55 109 77 23 1 -3 -2 3 32 94 
106 43 9 -1 -3 -4 -4 -4 -4 -4 -4 -4 -4 -4 -4 -4 -4 -4 -4 -4 -3 0 13 50 101 101 50 13 0 -3 -4 -4 -4 -4 -4 -4 -4 -4 -4 -4 -2 4 31 86 107 55 14 1 4 31 92 95 33 4 -2 -4 -4 -4 -4 -4 -4 -4 -4 -4 -4 -4 -4 -4 -4 -4 -4 -4 -4 -4 -4 -4 -4 -4 -4 -4 -4 -4 -4 -3 2 24 79 109 57 14 0 -3 -4 -4 -4 -4 -4 -3 1 23 77 109 55 12 0 -3 -2 3 31 96 
129 70 24 4 -2 -4 -4 -4 -4 -4 -4 -4 -4 -4 -4 -4 -4 -4 -4 -4 -2 6 33 85 109 64 20 2 -3 -4 -4 -4 -4 -4 -4 -4 -4 -4 -4 -3 0 14 55 107 86 31 5 -1 3 29 89 100 39 6 -2 -4 -4 -4 -4 -4 -4 -4 -4 -4 -4 -4 -4 -4 -4 -4 -4 -4 -4 -4 -4 -4 -4 -4 -4 -4 -4 -4 -4 -2 6 37 96 96 37 6 -2 -4 -4 -4 -4 -4 -4 -3 3 30 90 99 39 6 -2 -3 -3 3 31 99 
151 115 61 21 3 -2 -4 -4 -4 -4 -4 -4 -4 -4 -4 -4 -4 -4 -4 -3 2 20 64 109 85 33 6 -2 -4 -4 -4 -4 -4 -4 -4 -4 -4 -4 -4 -2 6 33 87 107 55 14 0 -2 1 22 77 109 55 12 0 -3 -4 -4 -4 -4 -4 -4 -4 -4 -4 -4 -4 -4 -4 -4 -4 -4 -4 -4 -4 -4 -4 -4 -4 -4 -4 -4 -3 0 14 57 109 79 24 2 -3 -4 -4 -4 -4 -4 -4 -2 6 39 99 90 30 3 -2 -4 -3 3 31 102 
138 128 106 58 19 1 -3 -4 -4 -4 -4 -4 -4 -4 -4 -4 -4 -4 -3 0 13 50 101 101 50 13 0 -3 -4 -4 -4 -4 -4 -4 -4 -4 -4 -4 -3 2 20 64 109 84 30 4 -2 -3 0 12 55 109 77 22 1 -3 -4 -4 -4 -4 -4 -4 -4 -4 -4 -4 -4 -4 -4 -4 -4 -4 -4 -4 -4 -4 -4 -4 -4 -4 -4 -4 -2 4 30 86 107 53 12 0 -3 -4 -4 -4 -4 -4 -3 0 12 55 109 77 23 1 -3 -4 -3 3 31 99 
114 93 110 101 49 12 0 -3 -4 -4 -4 -4 -4 -4 -4 -4 -4 -4 -2 6 33 85 109 64 20 2 -3 -4 -4 -4 -4 -4 -4 -4 -4 -4 -4 -3 0 12 49 101 101 49 12 0 -3 -4 -2 6 39 100 89 29 3 -3 -4 -4 -4 -4 -4 -4 -4 -4 -4 -4 -4 -4 -4 -4 -4 -4 -4 -4 -4 -4 -4 -4 -4 -4 -4 -3 0 12 53 107 86 30 4 -2 -4 -4 -4 -4 -4 -4 -3 1 23 77 109 55 12 0 -3 -4 -3 3 31 96 
100 59 73 110 85 33 6 -1 -3 -4 -4 -4 -4 -4 -4 -4 -4 -3 2 20 64 109 85 33 6 -2 -4 -4 -4 -4 -4 -4 -4 -4 -4 -4 -4 -2 4 30 84 109 64 20 2 -3 -4 -4 -2 4 33 95 92 31 3 -3 -4 -4 -4 -4 -4 -4 -4 -4 -4 -4 -4 -4 -4 -4 -4 -4 -4 -4 -4 -4 -4 -4 -4 -4 -4 -3 2 24 79 109 57 14 0 -3 -4 -4 -4 -4 -4 -4 -3 3 30 90 99 39 6 -2 -4 -4 -3 3 32 94 
96 42 41 87 109 65 23 4 -2 -3 -4 -4 -4 -4 -4 -4 -3 0 13 50 101 101 50 13 0 -3 -4 -4 -4 -4 -4 -4 -4 -4 -4 -4 -3 0 14 55 107 87 33 6 -2 -4 -4 -4 -3 3 32 94 94 32 3 -3 -4 -4 -4 -4 -4 -4 -4 -4 -4 -4 -4 -4 -4 -4 -4 -4 -4 -4 -4 -4 -4 -4 -4 -4 -4 -2 6 37 96 96 37 6 -2 -4 -4 -4 -4 -4 -4 -4 -2 6 39 99 90 30 3 -3 -4 -4 -3 3 32 94 
94 36 21 50 101 104 60 22 4 -2 -3 -4 -4 -4 -4 -4 -2 6 33 85 109 64 20 2 -3 -4 -4 -4 -4 -4 -4 -4 -4 -4 -4 -4 -2 4 31 86 107 55 14 0 -3 -4 -4 -4 -3 3 31 92 95 33 4 -2 -4 -4 -4 -4 -4 -4 -4 -4 -4 -4 -4 -4 -4 -4 -4 -4 -4 -4 -4 -4 -4 -4 -4 -4 -3 0 14 57 109 79 24 2 -3 -4 -4 -4 -4 -4 -4 -3 0 12 55 109 77 23 1 -3 -4 -4 -3 3 32 94 
94 33 10 20 58 103 103 60 22 4 -2 -3 -4 -4 -4 -3 2 20 64 109 85 33 6 -2 -4 -4 -4 -4 -4 -4 -4 -4 -4 -4 -4 -3 0 14 55 107 86 31 4 -2 -4 -4 -4 -4 -3 3 29 89 100 39 6 -2 -4 -4 -4 -4 -4 -4 -4 -4 -4 -4 -4 -4 -4 -4 -4 -4 -4 -4 -4 -4 -4 -4 -4 -4 -2 4 30 86 107 53 12 0 -3 -4 -4 -4 -4 -4 -4 -3 1 23 77 109 55 12 0 -3 -4 -4 -3 3 32 93 
94 32 5 4 22 60 103 103 60 22 4 -2 -3 -4 -3 0 13 50 101 101 50 13 0 -3 -4 -4 -4 -4 -4 -4 -4 -4 -4 -4 -4 -2 6 33 87 107 55 14 0 -3 -4 -4 -4 -4 -3 1 22 77 109 55 12 0 -3 -4 -4 -4 -4 -4 -4 -4 -4 -4 -4 -4 -4 -4 -4 -4 -4 -4 -4 -4 -4 -4 -4 -3 0 12 53 107 86 30 4 -2 -4 -4 -4 -4 -4 -4 -4 -3 3 30 90 99 39 6 -2 -4 -4 -4 -3 3 32 93 
93 32 4 0 4 22 60 103 103 60 22 4 -2 -3 -2 6 33 85 109 64 20 2 -3 -4 -4 -4 -4 -4 -4 -4 -4 -4 -4 -4 -3 2 20 64 109 84 30 4 -2 -4 -4 -4 -4 -4 -3 0 12 55 109 77 22 1 -3 -4 -4 -4 -4 -4 -4 -4 -4 -4 -4 -4 -4 -4 -4 -4 -4 -4 -4 -4 -4 -4 -4 -3 2 24 79 109 57 14 0 -3 -4 -4 -4 -4 -4 -4 -4 -2 6 39 99 90 30 3 -3 -4 -4 -4 -3 3 32 93 
93 32 3 -2 -2 4 22 60 103 103 60 22 4 0 2 20 64 109 85 33 6 -2 -4 -4 -4 -4 -4 -4 -4 -4 -4 -4 -4 -3 0 12 49 101 101 49 12 0 -3 -4 -4 -4 -4 -4 -4 -2 6 39 100 89 29 3 -3 -4 -4 -4 -4 -4 -4 -4 -4 -4 -4 -4 -4 -4 -4 -4 -4 -4 -4 -4 -4 -4 -4 -2 6 37 96 96 37 6 -2 -4 -4 -4 -4 -4 -4 -4 -3 0 12 55 109 77 23 1 -3 -4 -4 -4 -3 3 32 93 
93 32 3 -2 -3 -2 4 22 60 103 103 60 22 8 15 50 101 101 50 13 0 -3 -4 -4 -4 -4 -4 -4 -4 -4 -4 -4 -4 -2 4 30 84 109 64 20 2 -3 -4 -4 -4 -4 -4 -4 -4 -2 4 33 95 93 31 3 -3 -4 -4 -4 -4 -4 -4 -4 -4 -4 -4 -4 -4 -4 -4 -4 -4 -4 -4 -4 -4 -4 -3 0 14 57 109 79 24 2 -3 -4 -4 -4 -4 -4 -4 -4 -3 1 23 77 109 55 12 0 -3 -4 -4 -4 -3 3 32 93 
93 32 3 -3 -4 -3 -2 4 22 60 103 103 62 32 41 87 109 64 20 2 -3 -4 -4 -4 -4 -4 -4 -4 -4 -4 -4 -4 -3 0 14 55 107 87 33 6 -2 -4 -4 -4 -4 -4 -4 -4 -4 -3 3 31 93 95 33 4 -2 -4 -4 -4 -4 -4 -4 -4 -4 -4 -4 -4 -4 -4 -4 -4 -4 -4 -4 -4 -4 -4 -2 4 30 86 107 53 12 0 -3 -4 -4 -4 -4 -4 -4 -4 -3 3 30 90 99 39 6 -2 -4 -4 -4 -4 -3 3 32 93 
93 32 3 -3 -4 -4 -3 -2 4 22 60 104 108 81 85 113 86 33 6 -2 -4 -4 -4 -4 -4 -4 -4 -4 -4 -4 -4 -4 -2 4 31 86 107 55 14 0 -3 -4 -4 -4 -4 -4 -4 -4 -4 -3 3 29 89 100 39 6 -2 -4 -4 -4 -4 -4 -4 -4 -4 -4 -4 -4 -4 -4 -4 -4 -4 -4 -4 -4 -4 -3 0 12 53 107 86 30 4 -2 -4 -4 -4 -4 -4 -4 -4 -4 -2 6 39 99 90 30 3 -3 -4 -4 -4 -4 -3 3 32 93 
93 32 3 -3 -4 -4 -4 -3 -2 4 22 61 110 135 135 107 50 13 0 -3 -4 -4 -4 -4 -4 -4 -4 -4 -4 -4 -4 -3 0 14 55 107 86 31 4 -2 -4 -4 -4 -4 -4 -4 -4 -4 -4 -3 1 22 77 109 55 12 0 -3 -4 -4 -4 -4 -4 -4 -4 -4 -4 -4 -4 -4 -4 -4 -4 -4 -4 -4 -4 -3 2 24 79 109 57 14 0 -3 -4 -4 -4 -4 -4 -4 -4 -3 0 12 55 109 77 23 1 -3 -4 -4 -4 -4 -3 3 32 93 
93 32 3 -3 -4 -4 -4 -4 -3 -2 4 24 70 133 133 69 21 2 -3 -4 -4 -4 -4 -4 -4 -4 -4 -4 -4 -4 -4 -2 6 33 87 107 55 14 0 -3 -4 -4 -4 -4 -4 -4 -4 -4 -4 -3 0 12 55 109 77 22 1 -3 -4 -4 -4 -4 -4 -4 -4 -4 -4 -4 -4 -4 -4 -4 -4 -4 -4 -4 -4 -2 6 37 96 96 37 6 -2 -4 -4 -4 -4 -4 -4 -4 -4 -3 1 23 77 109 55 12 0 -3 -4 -4 -4 -4 -3 3 32 93 
93 32 3 -3 -4 -4 -4 -4 -4 -3 -1 8 42 107 110 45 9 -1 -3 -4 -4 -4 -4 -4 -4 -4 -4 -4 -4 -4 -3 2 20 64 109 84 30 4 -2 -4 -4 -4 -4 -4 -4 -4 -4 -4 -4 -4 -2 6 39 100 89 29 3 -3 -4 -4 -4 -4 -4 -4 -4 -4 -4 -4 -4 -4 -4 -4 -4 -4 -4 -4 -3 0 14 57 109 79 24 2 -3 -4 -4 -4 -4 -4 -4 -4 -4 -3 3 30 90 99 39 6 -2 -4 -4 -4 -4 -4 -3 3 32 93 
93 32 3 -3 -4 -4 -4 -4 -4 -4 -2 4 31 92 103 42 7 -2 -4 -4 -4 -4 -4 -4 -4 -4 -4 -4 -4 -3 0 12 49 101 101 49 12 0 -3 -4 -4 -4 -4 -4 -4 -4 -4 -4 -4 -4 -2 4 33 95 92 31 3 -3 -4 -4 -4 -4 -4 -4 -4 -4 -4 -4 -4 -4 -4 -4 -4 -4 -4 -4 -2 4 30 86 107 53 12 0 -3 -4 -4 -4 -4 -4 -4 -4 -4 -2 6 39 99 90 30 3 -3 -4 -4 -4 -4 -4 -3 3 32 93 
93 32 3 -3 -4 -4 -4 -4 -4 -4 -3 1 23 77 109 55 13 0 -3 -4 -4 -4 -4 -4 -4 -4 -4 -4 -4 -2 4 30 84 109 64 20 2 -3 -4 -4 -4 -4 -4 -4 -4 -4 -4 -4 -4 -4 -3 3 32 94 94 32 3 -3 -4 -4 -4 -4 -4 -4 -4 -4 -4 -4 -4 -4 -4 -4 -4 -4 -4 -3 0 12 53 107 86 30 4 -2 -4 -4 -4 -4 -4 -4 -4 -4 -3 0 12 55 109 77 23 1 -3 -4 -4 -4 -4 -4 -3 3 32 93 
93 32 3 -3 -4 -4 -4 -4 -4 -4 -3 0 12 55 109 77 22 1 -3 -4 -4 -4 -4 -4 -4 -4 -4 -4 -3 0 14 55 107 87 33 6 -2 -4 -4 -4 -4 -4 -4 -4 -4 -4 -4 -4 -4 -4 -3 3 31 92 95 33 4 -2 -4 -4 -4 -4 -4 -4 -4 -4 -4 -4 -4 -4 -4 -4 -4 -4 -4 -3 2 24 79 109 57 14 0 -3 -4 -4 -4 -4 -4 -4 -4 -4 -3 1 23 77 109 55 12 0 -3 -4 -4 -4 -4 -4 -3 3 32 94 
94 32 3 -3 -4 -4 -4 -4 -4 -4 -4 -2 6 39 100 89 29 3 -3 -4 -4 -4 -4 -4 -4 -4 -4 -4 -2 4 31 86 107 55 14 0 -3 -4 -4 -4 -4 -4 -4 -4 -4 -4 -4 -4 -4 -4 -3 3 29 89 100 39 6 -2 -4 -4 -4 -4 -4 -4 -4 -4 -4 -4 -4 -4 -4 -4 -4 -4 -4 -2 6 37 96 96 37 6 -2 -4 -4 -4 -4 -4 -4 -4 -4 -4 -3 3 30 90 99 39 6 -2 -4 -4 -4 -4 -4 -4 -3 3 32 94 
94 32 3 -3 -4 -4 -4 -4 -4 -4 -4 -2 4 33 94 94 33 4 -2 -4 -4 -4 -4 -4 -4 -4 -4 -3 0 14 55 107 86 31 4 -2 -4 -4 -4 -4 -4 -4 -4 -4 -4 -4 -4 -4 -4 -4 -3 1 22 77 109 55 12 0 -3 -4 -4 -4 -4 -4 -4 -4 -4 -4 -4 -4 -4 -4 -4 -4 -3 0 14 57 109 79 24 2 -3 -4 -4 -4 -4 -4 -4 -4 -4 -4 -2 6 39 99 90 30 3 -3 -4 -4 -4 -4 -4 -4 -2 4 33 96 
95 31 3 -3 -4 -4 -4 -4 -4 -4 -4 -3 3 29 89 100 39 6 -2 -4 -4 -4 -4 -4 -4 -4 -4 -2 6 33 87 107 55 14 0 -3 -4 -4 -4 -4 -4 -4 -4 -4 -4 -4 -4 -4 -4 -4 -3 0 12 55 109 77 22 1 -3 -4 -4 -4 -4 -4 -4 -4 -4 -4 -4 -4 -4 -4 -4 -4 -2 4 30 86 107 53 12 0 -3 -4 -4 -4 -4 -4 -4 -4 -4 -3 0 12 55 109 77 23 1 -3 -4 -4 -4 -4 -4 -4 -2 7 40 104 
99 31 3 -3 -4 -4 -4 -4 -4 -4 -4 -3 1 22 77 109 55 12 0 -3 -4 -4 -4 -4 -4 -4 -3 2 20 64 109 84 30 4 -2 -4 -4 -4 -4 -4 -4 -4 -4 -4 -4 -4 -4 -4 -4 -4 -4 -2 6 39 100 89 29 3 -3 -4 -4 -4 -4 -4 -4 -4 -4 -4 -4 -4 -4 -4 -4 -3 0 12 53 107 86 30 4 -2 -4 -4 -4 -4 -4 -4 -4 -4 -4 -3 1 23 77 109 55 12 0 -3 -4 -4 -4 -4 -4 -3 0 15 59 124 
101 31 3 -3 -4 -4 -4 -4 -4 -4 -4 -3 0 12 55 109 77 22 1 -3 -4 -4 -4 -4 -4 -3 0 12 49 101 101 49 12 0 -3 -4 -4 -4 -4 -4 -4 -4 -4 -4 -4 -4 -4 -4 -4 -4 -4 -2 4 33 95 92 31 3 -3 -4 -4 -4 -4 -4 -4 -4 -4 -4 -4 -4 -4 -4 -4 -3 2 24 79 109 57 14 0 -3 -4 -4 -4 -4 -4 -4 -4 -4 -4 -3 3 30 90 99 39 6 -2 -4 -4 -4 -4 -4 -4 -2 6 33 93 147 
100 31 3 -3 -4 -4 -4 -4 -4 -4 -4 -4 -2 6 39 100 89 29 3 -3 -4 -4 -4 -4 -4 -2 4 30 84 109 64 20 2 -3 -4 -4 -4 -4 -4 -4 -4 -4 -4 -4 -4 -4 -4 -4 -4 -4 -4 -3 3 32 94 94 32 3 -3 -4 -4 -4 -4 -4 -4 -4 -4 -4 -4 -4 -4 -4 -4 -2 6 37 96 96 37 6 -2 -4 -4 -4 -4 -4 -4 -4 -4 -4 -4 -2 6 39 99 90 30 3 -3 -4 -4 -4 -4 -4 -3 2 20 65 123 149 
98 31 3 -3 -4 -4 -4 -4 -4 -4 -4 -4 -2 4 33 94 94 33 4 -2 -4 -4 -4 -4 -3 0 14 55 107 87 33 6 -2 -4 -4 -4 -4 -4 -4 -4 -4 -4 -4 -4 -4 -4 -4 -4 -4 -4 -4 -3 3 31 92 95 33 4 -2 -4 -4 -4 -4 -4 -4 -4 -4 -4 -4 -4 -4 -4 -3 0 14 57 109 79 24 2 -3 -4 -4 -4 -4 -4 -4 -4 -4 -4 -3 0 12 55 109 77 23 1 -3 -4 -4 -4 -4 -3 0 13 50 104 127 133 
95 31 3 -3 -4 -4 -4 -4 -4 -4 -4 -4 -3 3 29 89 100 39 6 -2 -4 -4 -4 -4 -2 4 31 86 107 55 14 0 -3 -4 -4 -4 -4 -4 -4 -4 -4 -4 -4 -4 -4 -4 -4 -4 -4 -4 -4 -3 3 29 89 100 39 6 -2 -4 -4 -4 -4 -4 -4 -4 -4 -4 -4 -4 -4 -4 -2 4 30 86 107 53 12 0 -3 -4 -4 -4 -4 -4 -4 -4 -4 -4 -3 1 23 77 109 55 12 0 -3 -4 -4 -4 -4 -2 6 33 86 114 96 113 
94 32 3 -3 -4 -4 -4 -4 -4 -4 -4 -4 -3 1 22 77 109 55 12 0 -3 -4 -4 -3 0 14 55 107 86 31 4 -2 -4 -4 -4 -4 -4 -4 -4 -4 -4 -4 -4 -4 -4 -4 -4 -4 -4 -4 -4 -3 1 22 77 109 55 13 0 -3 -4 -4 -4 -4 -4 -4 -4 -4 -4 -4 -4 -3 0 12 53 107 86 30 4 -2 -4 -4 -4 -4 -4 -4 -4 -4 -4 -4 -3 3 30 90 99 39 6 -2 -4 -4 -4 -4 -3 2 20 64 109 92 67 102 
94 32 3 -3 -4 -4 -4 -4 -4 -4 -4 -4 -3 0 12 55 109 77 22 1 -3 -4 -4 -2 6 33 87 107 55 14 0 -3 -4 -4 -4 -4 -4 -4 -4 -4 -4 -4 -4 -4 -4 -4 -4 -4 -4 -4 -4 -3 0 13 55 109 78 24 2 -2 -3 -3 -3 -4 -4 -4 -4 -4 -4 -4 -4 -3 2 24 79 109 57 14 0 -3 -4 -4 -4 -4 -4 -4 -4 -4 -4 -4 -2 6 39 99 90 30 3 -3 -4 -4 -4 -3 0 13 50 101 102 57 48 97 
94 32 3 -3 -4 -4 -4 -4 -4 -4 -4 -4 -4 -2 6 39 100 89 29 3 -3 -4 -3 2 20 64 109 84 30 4 -2 -4 -4 -4 -4 -4 -4 -4 -4 -4 -4 -4 -4 -4 -4 -4 -4 -4 -4 -4 -4 -3 -1 8 42 104 94 36 11 4 3 1 0 -2 -2 -3 -3 -3 -3 -3 -3 -2 6 37 96 96 37 6 -2 -4 -4 -4 -4 -4 -4 -4 -4 -4 -4 -3 0 12 55 109 77 23 1 -3 -4 -4 -4 -2 6 33 85 109 65 29 38 95 
93 32 3 -3 -4 -4 -4 -4 -4 -4 -4 -4 -4 -2 4 33 94 94 33 4 -2 -3 0 12 49 101 101 49 12 0 -3 -4 -4 -4 -4 -4 -4 -4 -4 -4 -4 -4 -4 -4 -4 -4 -4 -4 -4 -4 -4 -2 0 12 46 111 115 63 39 32 29 22 12 6 4 3 3 3 1 0 -1 1 15 58 109 79 24 2 -3 -4 -4 -4 -4 -4 -4 -4 -4 -4 -4 -3 1 23 77 109 55 12 0 -3 -4 -4 -3 2 20 64 109 86 34 14 34 94 
93 32 3 -3 -4 -4 -4 -4 -4 -4 -4 -4 -4 -3 3 29 89 100 39 6 -2 -2 4 30 84 109 64 20 2 -3 -4 -4 -4 -4 -4 -4 -4 -4 -4 -4 -4 -4 -4 -4 -4 -4 -4 -4 -4 -3 -2 2 13 36 76 135 144 114 98 93 89 77 55 39 33 32 31 29 22 13 8 12 36 88 108 53 12 0 -3 -4 -4 -4 -4 -4 -4 -4 -4 -4 -4 -3 3 30 90 99 39 6 -2 -4 -4 -3 0 13 50 101 101 50 14 7 32 94 
93 32 3 -3 -4 -4 -4 -4 -4 -4 -4 -4 -4 -3 1 22 77 109 55 13 0 0 14 55 107 87 33 6 -2 -4 -4 -4 -4 -4 -4 -4 -4 -4 -4 -4 -4 -4 -4 -4 -4 -4 -4 -4 -3 0 6 20 50 86 115 124 112 99 95 95 100 109 109 100 95 94 92 89 77 55 42 47 77 116 89 31 4 -2 -4 -4 -4 -4 -4 -4 -4 -4 -4 -4 -4 -2 6 39 99 90 30 3 -3 -4 -4 -2 6 33 85 109 64 21 3 5 32 94 
93 32 3 -3 -4 -4 -4 -4 -4 -4 -4 -4 -4 -3 0 12 55 109 77 23 3 5 31 86 107 55 14 0 -3 -4 -4 -4 -4 -4 -4 -4 -4 -4 -4 -4 -4 -4 -4 -4 -4 -4 -3 -2 2 13 33 64 101 109 88 59 40 34 32 33 39 55 77 89 92 94 95 100 109 109 103 110 135 132 67 18 0 -3 -4 -4 -4 -4 -4 -4 -4 -4 -4 -4 -3 0 12 55 109 77 23 1 -3 -4 -3 2 20 64 109 85 33 6 0 4 32 93 
93 32 3 -3 -4 -4 -4 -4 -4 -4 -4 -4 -4 -4 -2 6 39 100 89 30 7 15 56 107 86 31 4 -2 -4 -4 -4 -4 -4 -4 -4 -4 -4 -4 -4 -4 -4 -4 -4 -4 -4 -3 0 6 20 50 85 109 101 64 33 15 7 4 4 4 6 12 22 29 31 32 33 39 55 77 92 107 134 132 67 18 1 -3 -4 -4 -4 -4 -4 -4 -4 -4 -4 -4 -3 1 23 77 109 55 12 0 -3 -3 0 13 50 101 101 50 13 0 -2 3 32 93 
93 32 3 -3 -4 -4 -4 -4 -4 -4 -4 -4 -4 -4 -2 4 33 94 94 35 15 35 87 107 55 14 0 -3 -4 -4 -4 -4 -4 -4 -4 -4 -4 -4 -4 -4 -4 -4 -4 -3 -2 1 12 33 64 101 109 85 50 20 6 0 -2 -2 -2 -2 -2 0 1 3 3 3 4 6 12 23 31 44 76 116 90 35 7 -1 -3 -4 -4 -4 -4 -4 -4 -4 -4 -4 -2 3 31 90 99 39 6 -2 -3 -2 6 33 85 109 64 20 2 -2 -2 3 32 93 
93 32 3 -3 -4 -4 -4 -4 -4 -4 -4 -4 -4 -4 -3 3 29 89 101 46 31 66 109 84 30 4 -2 -4 -4 -4 -4 -4 -4 -4 -4 -4 -4 -4 -4 -4 -4 -4 -3 -1 3 19 49 85 109 101 64 33 13 2 -2 -3 -4 -4 -4 -4 -4 -3 -3 -3 -3 -3 -2 -2 0 1 4 11 35 87 110 66 25 7 0 -2 -2 -3 -3 -3 -3 -3 -3 -2 0 7 40 100 91 31 3 -2 -2 2 20 64 109 85 33 6 -2 -3 -2 3 32 93 
93 32 3 -3 -4 -4 -4 -4 -4 -4 -4 -4 -4 -4 -3 1 22 77 111 71 66 104 102 49 12 0 -3 -4 -4 -4 -4 -4 -4 -4 -4 -4 -4 -4 -4 -4 -4 -3 0 6 23 59 100 109 85 50 20 6 0 -3 -4 -4 -4 -4 -4 -4 -4 -4 -4 -4 -4 -4 -4 -4 -3 -3 -2 0 13 50 103 109 68 34 15 7 4 3 3 3 3 3 3 4 7 20 61 112 80 24 2 -2 0 13 50 101 101 50 13 0 -3 -4 -3 3 32 93 
93 32 3 -3 -4 -4 -4 -4 -4 -4 -4 -4 -4 -4 -3 0 12 55 113 107 107 112 64 20 2 -3 -4 -4 -4 -4 -4 -4 -4 -4 -4 -4 -4 -4 -4 -3 -2 2 13 33 65 104 104 65 33 13 2 -2 -3 -4 -4 -4 -4 -4 -4 -4 -4 -4 -4 -4 -4 -4 -4 -4 -4 -4 -4 -2 2 21 68 126 129 92 58 40 33 32 32 32 32 32 32 32 37 55 100 124 68 21 3 0 6 33 85 109 64 20 2 -3 -4 -4 -3 3 32 93 
93 32 3 -3 -4 -4 -4 -4 -4 -4 -4 -4 -4 -4 -4 -2 6 39 105 133 128 88 33 6 -2 -4 -4 -4 -4 -4 -4 -4 -4 -4 -4 -4 -4 -4 -3 0 6 20 50 85 109 100 59 23 6 0 -3 -4 -4 -4 -4 -4 -4 -4 -4 -4 -4 -4 -4 -4 -4 -4 -4 -4 -4 -4 -4 -3 -1 9 45 115 148 128 113 101 95 94 94 93 93 93 94 94 98 112 141 140 84 39 17 11 24 65 109 85 33 6 -2 -4 -4 -4 -3 3 32 93 
93 32 3 -3 -4 -4 -4 -4 -4 -4 -4 -4 -4 -4 -4 -2 4 33 102 149 120 56 14 0 -3 -4 -4 -4 -4 -4 -4 -4 -4 -4 -4 -4 -3 -2 2 13 33 64 101 109 85 49 19 3 -1 -3 -4 -4 -4 -4 -4 -4 -4 -4 -4 -4 -4 -4 -4 -4 -4 -4 -4 -4 -4 -4 -4 -4 -2 7 42 107 116 83 83 90 92 93 93 93 93 93 94 94 95 99 111 125 116 89 59 45 63 105 103 50 13 0 -3 -4 -4 -4 -3 3 32 93 
93 32 3 -3 -4 -4 -4 -4 -4 -4 -4 -4 -4 -4 -4 -3 3 32 102 147 91 31 4 -2 -4 -4 -4 -4 -4 -4 -4 -4 -4 -4 -4 -3 0 6 20 50 85 109 102 64 33 12 1 -2 -3 -4 -4 -4 -4 -4 -4 -4 -4 -4 -4 -4 -4 -4 -4 -4 -4 -4 -4 -4 -4 -4 -4 -3 0 13 55 111 85 39 28 30 31 31 32 32 32 32 32 32 32 33 40 59 87 108 111 106 119 122 69 22 2 -3 -4 -4 -4 -4 -3 3 32 93 
93 32 3 -3 -4 -4 -4 -4 -4 -4 -4 -4 -4 -4 -4 -3 3 31 99 124 59 14 0 -3 -4 -4 -4 -4 -4 -4 -4 -4 -3 -3 -1 2 12 32 64 103 110 87 51 21 6 0 -2 -3 -4 -4 -4 -4 -4 -4 -4 -4 -4 -4 -4 -4 -4 -4 -4 -4 -4 -4 -4 -4 -4 -4 -4 -3 1 22 77 109 57 16 5 3 3 3 3 3 3 3 3 3 3 4 6 14 31 55 88 121 149 123 54 13 0 -3 -4 -4 -4 -4 -3 3 32 93 
93 32 3 -3 -4 -4 -4 -4 -4 -4 -4 -4 -4 -4 -4 -3 3 32 96 104 40 6 -2 -4 -4 -4 -4 -4 -4 -4 -3 -2 0 2 7 21 50 90 119 114 74 41 20 8 1 -1 -2 -3 -3 -4 -4 -4 -4 -4 -4 -4 -4 -4 -4 -4 -4 -4 -4 -4 -4 -4 -4 -4 -4 -4 -4 -3 3 29 89 100 40 7 -1 -2 -3 -3 -3 -3 -3 -3 -3 -3 -3 -2 -2 0 4 14 34 67 118 125 70 22 2 -3 -4 -4 -4 -4 -3 3 32 93 
93 32 3 -3 -4 -4 -4 -4 -4 -4 -4 -4 -4 -4 -4 -2 4 33 96 95 33 4 -2 -4 -4 -4 -4 -4 -3 -2 0 4 12 25 39 67 112 146 143 104 63 43 33 24 13 6 3 1 0 -2 -2 -3 -3 -3 -4 -4 -4 -4 -4 -4 -4 -4 -4 -4 -4 -4 -4 -4 -4 -4 -4 -3 3 31 93 95 33 4 -2 -4 -4 -4 -4 -4 -4 -4 -4 -4 -4 -4 -4 -3 -2 0 6 23 62 108 103 50 13 0 -3 -4 -4 -4 -3 3 32 93 
93 32 3 -3 -4 -4 -4 -4 -4 -4 -4 -4 -4 -4 -4 -2 6 39 100 89 29 3 -3 -4 -4 -3 -3 -2 0 4 14 30 53 79 97 114 121 120 124 120 105 96 89 77 55 39 30 23 12 6 4 3 1 0 -2 -3 -3 -3 -4 -4 -4 -4 -4 -4 -4 -4 -4 -4 -4 -4 -4 -2 4 33 95 93 31 3 -3 -4 -4 -4 -4 -4 -4 -4 -4 -4 -4 -4 -4 -4 -4 -3 -1 4 23 66 109 85 33 6 -2 -4 -4 -4 -3 3 32 93 
93 32 3 -3 -4 -4 -4 -4 -4 -4 -4 -4 -4 -4 -3 0 12 55 109 77 22 1 -3 -3 -2 0 2 6 14 31 55 86 107 109 96 80 58 47 57 78 89 94 100 109 109 99 90 77 55 39 33 29 22 12 6 3 1 0 -2 -2 -3 -3 -3 -4 -4 -4 -4 -4 -4 -4 -4 -2 6 39 100 89 29 3 -3 -4 -4 -4 -4 -4 -4 -4 -4 -4 -4 -4 -4 -4 -4 -4 -3 -1 6 33 85 109 64 20 2 -3 -4 -4 -3 3 32 93 
93 32 3 -3 -4 -4 -4 -4 -4 -4 -4 -4 -4 -4 -3 1 22 77 109 55 13 0 -2 0 4 12 24 37 57 86 107 107 86 57 37 24 13 9 13 22 29 33 39 55 77 90 99 109 109 100 94 89 77 55 39 30 23 12 6 4 3 1 0 -2 -3 -3 -3 -4 -4 -4 -3 0 12 55 109 77 22 1 -3 -4 -4 -4 -4 -4 -4 -4 -4 -4 -4 -4 -4 -4 -4 -4 -4 -3 0 13 50 101 101 50 13 0 -3 -4 -3 3 32 93 
93 32 3 -3 -4 -4 -4 -4 -4 -4 -4 -4 -4 -4 -3 3 29 89 100 40 8 1 5 14 30 53 79 96 109 107 86 55 31 14 6 2 0 -1 0 1 3 4 6 12 23 30 39 55 77 89 94 100 109 109 99 90 77 55 39 33 29 22 12 6 3 1 0 -2 -2 -3 -2 2 23 77 109 55 12 0 -3 -4 -4 -4 -4 -4 -4 -4 -4 -4 -4 -4 -4 -4 -4 -4 -4 -4 -3 2 20 64 109 85 33 6 -1 -3 -2 3 32 93 
93 32 3 -3 -4 -4 -4 -4 -4 -4 -4 -4 -4 -4 -2 4 33 94 96 37 13 15 31 55 86 107 109 96 79 53 30 14 4 0 -2 -3 -3 -4 -3 -3 -3 -2 -2 0 1 3 6 12 22 29 33 39 55 77 90 99 109 109 100 94 89 77 55 39 30 23 12 6 4 3 2 6 31 90 100 39 6 -2 -4 -4 -4 -4 -4 -4 -4 -4 -4 -4 -4 -4 -4 -4 -4 -4 -4 -4 -4 -2 6 33 85 109 65 23 3 -2 -2 3 32 93 
93 32 3 -3 -4 -4 -4 -4 -4 -4 -4 -4 -4 -4 -2 6 40 102 98 48 38 56 86 107 107 86 57 37 24 12 4 0 -2 -3 -4 -4 -4 -4 -4 -4 -4 -4 -4 -3 -3 -3 -2 0 1 3 4 6 12 23 30 39 55 77 89 94 100 109 109 99 90 77 55 39 33 29 24 20 41 98 96 33 4 -2 -4 -4 -4 -4 -4 -4 -4 -4 -4 -4 -4 -4 -4 -4 -4 -4 -4 -4 -4 -3 0 12 49 100 104 59 19 2 -1 4 32 93 
93 32 3 -3 -4 -4 -4 -4 -4 -4 -4 -4 -4 -3 0 14 59 121 112 82 91 108 107 86 55 31 14 6 2 0 -2 -3 -4 -4 -4 -4 -4 -4 -4 -4 -4 -4 -4 -4 -4 -4 -4 -3 -3 -3 -2 -2 0 1 3 6 12 22 29 33 39 55 77 90 99 109 109 100 94 89 78 62 71 114 97 32 3 -3 -4 -4 -4 -4 -4 -4 -4 -4 -4 -4 -4 -4 -4 -4 -4 -4 -4 -4 -4 -4 -3 1 19 59 104 100 49 13 1 4 32 93 
93 32 3 -3 -4 -4 -4 -4 -4 -4 -4 -4 -4 -2 4 31 92 147 136 119 108 86 55 31 14 4 0 -2 -3 -3 -4 -4 -4 -4 -4 -4 -4 -4 -4 -4 -4 -4 -4 -4 -4 -4 -4 -4 -4 -4 -4 -4 -3 -3 -3 -2 0 1 3 4 6 12 23 30 39 55 77 89 94 100 110 114 122 144 101 32 3 -3 -4 -4 -4 -4 -4 -4 -4 -4 -4 -4 -4 -4 -4 -4 -4 -4 -4 -4 -4 -4 -4 -2 3 23 65 109 85 33 8 6 32 94 
93 32 3 -3 -4 -4 -4 -4 -4 -4 -4 -4 -3 0 14 56 118 132 106 80 53 30 14 4 0 -2 -3 -4 -4 -4 -4 -4 -4 -4 -4 -4 -4 -4 -4 -4 -4 -4 -4 -4 -4 -4 -4 -4 -4 -4 -4 -4 -4 -4 -4 -4 -3 -3 -3 -2 -2 0 1 3 6 12 22 29 33 39 56 83 112 143 101 31 3 -3 -4 -4 -4 -4 -4 -4 -4 -4 -4 -4 -4 -4 -4 -4 -4 -4 -4 -4 -4 -4 -4 -3 -1 6 33 85 109 65 24 12 33 94 
94 32 3 -3 -4 -4 -4 -4 -4 -4 -4 -4 -2 6 33 87 114 75 42 25 12 4 0 -2 -3 -4 -4 -4 -4 -4 -4 -4 -4 -4 -4 -4 -4 -4 -4 -4 -4 -4 -4 -4 -4 -4 -4 -4 -4 -4 -4 -4 -4 -4 -4 -4 -4 -4 -4 -4 -4 -3 -3 -3 -2 0 1 3 4 6 14 30 61 113 96 31 3 -3 -4 -4 -4 -4 -4 -4 -4 -4 -4 -4 -4 -4 -4 -4 -4 -4 -4 -4 -4 -4 -4 -4 -3 0 12 49 100 104 60 27 38 95 
94 32 3 -3 -4 -4 -4 -4 -4 -4 -4 -3 2 20 64 109 86 35 11 3 0 -2 -3 -4 -4 -4 -4 -4 -4 -4 -4 -4 -4 -4 -4 -4 -4 -4 -4 -4 -4 -4 -4 -4 -4 -4 -4 -4 -4 -4 -4 -4 -4 -4 -4 -4 -4 -4 -4 -4 -4 -4 -4 -4 -4 -3 -3 -3 -2 -2 0 9 38 98 94 32 3 -3 -4 -4 -4 -4 -4 -4 -4 -4 -4 -4 -4 -4 -4 -4 -4 -4 -4 -4 -4 -4 -4 -4 -4 -3 1 19 59 104 101 57 48 97 
94 32 3 -3 -4 -4 -4 -4 -4 -4 -3 0 13 50 101 101 50 13 0 -2 -3 -4 -4 -4 -4 -4 -4 -4 -4 -4 -4 -4 -4 -4 -4 -4 -4 -4 -4 -4 -4 -4 -4 -4 -4 -4 -4 -4 -4 -4 -4 -4 -4 -4 -4 -4 -4 -4 -4 -4 -4 -4 -4 -4 -4 -4 -4 -4 -4 -3 -2 4 33 94 94 32 4 -2 -4 -4 -4 -4 -4 -4 -4 -4 -4 -4 -4 -4 -4 -4 -4 -4 -4 -4 -4 -4 -4 -4 -4 -4 -2 3 23 65 109 92 67 102 
95 31 3 -3 -4 -4 -4 -4 -4 -3 -1 6 33 85 109 64 21 2 -2 -4 -4 -4 -4 -4 -4 -4 -4 -4 -4 -4 -4 -4 -4 -4 -4 -4 -4 -4 -4 -4 -4 -4 -4 -4 -4 -4 -4 -4 -4 -4 -4 -4 -4 -4 -4 -4 -4 -4 -4 -4 -4 -4 -4 -4 -4 -4 -4 -4 -4 -4 -2 4 32 93 96 34 4 -2 -4 -4 -4 -4 -4 -4 -4 -4 -4 -4 -4 -4 -4 -4 -4 -4 -4 -4 -4 -4 -4 -4 -4 -4 -3 -1 6 33 86 114 96 113 
98 31 3 -3 -4 -4 -4 -4 -3 -2 4 23 66 109 86 34 7 -1 -3 -4 -4 -4 -4 -4 -4 -4 -4 -4 -4 -4 -4 -4 -4 -4 -4 -4 -4 -4 -4 -4 -4 -4 -4 -4 -4 -4 -4 -4 -4 -4 -4 -4 -4 -4 -4 -4 -4 -4 -4 -4 -4 -4 -4 -4 -4 -4 -4 -4 -4 -4 -2 4 32 93 103 43 9 0 -3 -4 -4 -4 -4 -4 -4 -4 -4 -4 -4 -4 -4 -4 -4 -4 -4 -4 -4 -4 -4 -4 -4 -4 -4 -3 0 13 50 104 127 133 
100 31 3 -3 -4 -4 -4 -3 -2 3 22 61 107 107 57 20 5 0 -2 -2 -3 -3 -3 -3 -3 -3 -3 -3 -3 -3 -4 -4 -4 -4 -4 -4 -4 -4 -4 -4 -4 -4 -4 -4 -4 -4 -4 -4 -4 -4 -4 -4 -4 -4 -4 -4 -4 -4 -4 -4 -4 -4 -4 -4 -4 -4 -4 -4 -4 -2 0 10 38 98 124 71 26 7 0 -2 -3 -4 -4 -4 -4 -4 -4 -4 -4 -4 -4 -4 -4 -4 -4 -4 -4 -4 -4 -4 -4 -4 -4 -4 -3 2 20 65 123 149 
101 31 3 -3 -4 -4 -3 -2 3 21 61 113 127 91 54 35 24 13 6 4 3 3 3 3 3 3 3 3 1 0 -2 -2 -3 -3 -3 -3 -3 -3 -3 -3 -3 -4 -4 -4 -4 -4 -4 -4 -4 -4 -4 -4 -4 -4 -4 -4 -4 -4 -4 -4 -4 -4 -4 -4 -4 -4 -4 -3 -2 2 13 33 66 118 150 119 68 34 14 4 0 -3 -4 -4 -4 -4 -4 -4 -4 -4 -4 -4 -4 -4 -4 -4 -4 -4 -4 -4 -4 -4 -4 -4 -4 -2 6 33 93 147 
99 31 3 -3 -4 -3 -2 3 22 61 115 150 138 114 99 90 77 55 39 33 32 32 32 32 32 31 31 29 22 12 6 4 3 3 3 3 3 3 3 1 0 -2 -2 -3 -3 -3 -3 -3 -3 -3 -3 -3 -3 -4 -4 -4 -4 -4 -4 -4 -4 -4 -4 -4 -4 -3 -2 0 6 20 49 85 111 120 121 123 113 87 55 30 12 2 -2 -3 -4 -4 -4 -4 -4 -4 -4 -4 -4 -4 -4 -4 -4 -4 -4 -4 -4 -4 -4 -4 -4 -3 0 15 59 124 
95 31 3 -2 -3 -2 4 22 60 106 123 113 102 96 96 100 109 109 100 95 94 94 93 93 93 93 92 89 77 55 39 33 32 32 32 32 31 31 29 22 12 6 4 3 3 3 3 3 3 3 3 1 0 -2 -2 -3 -3 -3 -3 -3 -3 -3 -3 -3 -2 0 4 14 33 64 101 109 88 60 49 60 87 108 107 84 49 20 6 0 -2 -3 -4 -4 -4 -4 -4 -4 -4 -4 -4 -4 -4 -4 -4 -4 -4 -4 -4 -4 -4 -4 -2 7 40 104 
94 32 4 -2 -1 4 22 60 103 105 69 43 34 32 33 39 55 77 89 92 93 93 93 93 94 94 95 100 109 109 100 95 94 94 93 93 93 92 89 77 55 39 33 32 32 32 32 32 31 31 29 22 12 6 4 3 3 3 3 3 3 3 1 0 2 12 30 55 87 109 101 64 34 16 10 15 31 55 87 109 101 64 33 14 4 0 -3 -4 -4 -4 -4 -4 -4 -4 -4 -4 -4 -4 -4 -4 -4 -4 -4 -4 -4 -4 -2 4 33 96 
94 32 5 1 7 23 60 103 103 60 24 9 4 4 4 6 12 22 29 31 31 32 32 32 32 32 33 39 55 77 89 92 93 93 93 94 94 95 100 109 109 100 95 94 94 93 93 93 93 92 89 77 55 39 33 32 32 32 32 31 31 29 23 17 24 50 84 107 107 84 49 20 6 0 -1 0 4 14 33 64 101 109 87 55 30 12 2 -2 -3 -4 -4 -4 -4 -4 -4 -4 -4 -4 -4 -4 -4 -4 -4 -4 -4 -4 -3 3 32 94 
94 33 10 14 33 65 104 103 60 22 4 -1 -2 -2 -2 -2 0 1 3 3 3 3 3 3 3 3 4 6 12 22 29 31 31 32 32 32 32 33 39 55 77 89 92 93 93 93 93 94 94 95 100 109 109 100 95 94 94 93 93 93 92 89 80 66 75 104 109 87 55 30 12 2 -2 -3 -3 -3 -2 0 6 20 49 84 107 107 84 49 20 6 0 -2 -3 -4 -4 -4 -4 -4 -4 -4 -4 -4 -4 -4 -4 -4 -4 -4 -3 3 32 94 
95 39 27 50 86 109 100 58 21 3 -2 -3 -4 -4 -4 -4 -3 -3 -3 -3 -3 -3 -3 -3 -3 -3 -2 -2 0 1 3 3 3 3 3 3 3 4 6 12 22 29 31 31 32 32 32 32 32 33 39 55 77 89 92 93 93 93 94 94 96 102 118 132 134 111 66 34 14 4 0 -3 -4 -4 -4 -4 -4 -3 -2 2 12 30 55 87 109 101 64 33 14 4 0 -3 -4 -4 -4 -4 -4 -4 -4 -4 -4 -4 -4 -4 -4 -4 -3 3 32 94 
100 57 66 101 109 85 49 19 3 -2 -3 -4 -4 -4 -4 -4 -4 -4 -4 -4 -4 -4 -4 -4 -4 -4 -4 -4 -3 -3 -3 -3 -3 -3 -3 -3 -3 -2 -2 0 1 3 3 3 3 3 3 3 3 4 6 12 22 29 31 31 32 32 32 32 34 45 79 135 134 71 26 7 0 -2 -3 -4 -4 -4 -4 -4 -4 -4 -4 -3 0 4 14 33 64 101 109 87 55 30 12 2 -2 -3 -4 -4 -4 -4 -4 -4 -4 -4 -4 -4 -4 -4 -3 3 32 94 
114 92 109 105 65 33 12 1 -2 -4 -4 -4 -4 -4 -4 -4 -4 -4 -4 -4 -4 -4 -4 -4 -4 -4 -4 -4 -4 -4 -4 -4 -4 -4 -4 -4 -4 -4 -4 -3 -3 -3 -3 -3 -3 -3 -3 -3 -3 -2 -2 0 1 3 3 3 3 3 3 4 5 14 45 109 108 43 9 0 -3 -4 -4 -4 -4 -4 -4 -4 -4 -4 -4 -4 -3 -2 0 6 20 49 84 107 107 84 49 20 6 0 -2 -3 -4 -4 -4 -4 -4 -4 -4 -4 -4 -4 -3 3 31 96 
138 128 106 60 23 6 0 -3 -4 -4 -4 -4 -4 -4 -4 -4 -4 -4 -4 -4 -4 -4 -4 -4 -4 -4 -4 -4 -4 -4 -4 -4 -4 -4 -4 -4 -4 -4 -4 -4 -4 -4 -4 -4 -4 -4 -4 -4 -4 -4 -4 -3 -3 -3 -3 -3 -3 -3 -3 -2 -1 5 34 97 97 34 4 -2 -4 -4 -4 -4 -4 -4 -4 -4 -4 -4 -4 -4 -4 -4 -3 -2 2 12 30 55 87 109 101 64 33 14 4 0 -2 -3 -4 -4 -4 -4 -4 -4 -4 -4 -3 3 31 99 
151 115 61 22 4 -1 -3 -4 -4 -4 -4 -4 -4 -4 -4 -4 -4 -4 -4 -4 -4 -4 -4 -4 -4 -4 -4 -4 -4 -4 -4 -4 -4 -4 -4 -4 -4 -4 -4 -4 -4 -4 -4 -4 -4 -4 -4 -4 -4 -4 -4 -4 -4 -4 -4 -4 -4 -4 -4 -4 -2 4 32 94 94 32 4 -2 -4 -4 -4 -4 -4 -4 -4 -4 -4 -4 -4 -4 -4 -4 -4 -4 -3 0 4 14 33 64 101 109 87 55 31 14 4 0 -3 -4 -4 -4 -4 -4 -4 -4 -3 3 31 102 
129 70 24 4 -2 -3 -4 -4 -4 -4 -4 -4 -4 -4 -4 -4 -4 -4 -4 -4 -4 -4 -4 -4 -4 -4 -4 -4 -4 -4 -4 -4 -4 -4 -4 -4 -4 -4 -4 -4 -4 -4 -4 -4 -4 -4 -4 -4 -4 -4 -4 -4 -4 -4 -4 -4 -4 -4 -4 -4 -3 3 32 94 94 32 3 -3 -4 -4 -4 -4 -4 -4 -4 -4 -4 -4 -4 -4 -4 -4 -4 -4 -4 -3 -2 0 6 20 49 84 107 107 86 55 30 12 2 -2 -3 -4 -4 -4 -4 -4 -3 3 31 99 
106 43 9 -1 -3 -4 -4 -4 -4 -4 -4 -4 -4 -4 -4 -4 -4 -4 -4 -4 -4 -4 -4 -4 -4 -4 -4 -4 -4 -4 -4 -4 -4 -4 -4 -4 -4 -4 -4 -4 -4 -4 -4 -4 -4 -4 -4 -4 -4 -4 -4 -4 -4 -4 -4 -4 -4 -4 -4 -4 -3 3 32 93 93 32 3 -3 -4 -4 -4 -4 -4 -4 -4 -4 -4 -4 -4 -4 -4 -4 -4 -4 -4 -4 -4 -3 -2 2 12 30 55 86 107 107 84 49 20 6 0 -2 -3 -3 -3 -3 -2 3 32 96 
96 34 4 -2 -4 -4 -4 -4 -4 -4 -4 -4 -4 -4 -4 -4 -4 -4 -4 -4 -4 -4 -4 -4 -4 -4 -4 -4 -4 -4 -4 -4 -4 -4 -4 -4 -4 -4 -4 -4 -4 -4 -4 -4 -4 -4 -4 -4 -4 -4 -4 -4 -4 -4 -4 -4 -4 -4 -4 -4 -3 3 32 93 93 32 3 -3 -4 -4 -4 -4 -4 -4 -4 -4 -4 -4 -4 -4 -4 -4 -4 -4 -4 -4 -4 -4 -4 -3 0 4 14 31 56 87 109 102 64 33 15 6 3 1 0 -2 -1 4 32 94 
94 32 4 -2 -4 -4 -4 -4 -4 -4 -4 -4 -4 -4 -4 -4 -4 -4 -4 -4 -4 -4 -4 -4 -4 -4 -4 -4 -4 -4 -4 -4 -4 -4 -4 -4 -4 -4 -4 -4 -4 -4 -4 -4 -4 -4 -4 -4 -4 -4 -4 -4 -4 -4 -4 -4 -4 -4 -4 -4 -3 3 32 93 93 32 3 -3 -4 -4 -4 -4 -4 -4 -4 -4 -4 -4 -4 -4 -4 -4 -4 -4 -4 -4 -4 -4 -4 -4 -3 -2 0 5 15 35 68 108 116 92 59 39 30 23 12 6 5 9 35 95 
95 32 4 -2 -4 -4 -4 -4 -4 -4 -4 -4 -4 -4 -4 -4 -4 -4 -4 -4 -4 -4 -4 -4 -4 -4 -4 -4 -4 -4 -4 -4 -4 -4 -4 -4 -4 -4 -4 -4 -4 -4 -4 -4 -4 -4 -4 -4 -4 -4 -4 -4 -4 -4 -4 -4 -4 -4 -4 -4 -3 3 32 93 93 32 3 -3 -4 -4 -4 -4 -4 -4 -4 -4 -4 -4 -4 -4 -4 -4 -4 -4 -4 -4 -4 -4 -4 -4 -4 -3 -2 0 6 17 39 82 129 147 127 104 91 77 55 39 32 31 48 100 
98 33 5 -1 -2 -3 -3 -3 -3 -3 -4 -4 -4 -4 -4 -4 -4 -4 -4 -4 -4 -4 -4 -4 -4 -4 -4 -4 -4 -4 -4 -4 -4 -4 -4 -4 -4 -4 -4 -4 -4 -4 -4 -4 -4 -4 -4 -4 -4 -4 -4 -4 -4 -4 -4 -4 -4 -4 -4 -4 -3 3 32 93 93 32 3 -3 -4 -4 -4 -4 -4 -4 -4 -4 -4 -4 -4 -4 -4 -4 -4 -4 -4 -4 -4 -4 -3 -3 -2 0 4 12 25 39 63 100 129 128 110 100 101 109 109 99 92 84 86 119 
106 39 11 5 4 3 3 3 1 0 -2 -2 -3 -3 -3 -3 -3 -3 -4 -4 -4 -4 -4 -4 -4 -4 -4 -4 -4 -4 -4 -4 -4 -4 -4 -4 -4 -4 -4 -4 -4 -4 -4 -4 -4 -4 -4 -4 -4 -4 -4 -4 -4 -4 -4 -4 -4 -4 -4 -4 -3 3 32 93 93 32 3 -3 -4 -4 -4 -4 -4 -4 -4 -4 -4 -4 -4 -4 -4 -4 -4 -4 -4 -4 -3 -2 0 2 6 14 30 53 79 96 110 109 88 59 40 35 40 55 77 90 100 113 130 149 
121 64 39 33 32 31 31 29 22 12 6 4 3 3 3 3 1 0 -2 -2 -3 -3 -3 -3 -3 -3 -3 -4 -4 -4 -4 -4 -4 -4 -4 -4 -4 -4 -4 -4 -4 -4 -4 -4 -4 -4 -4 -4 -4 -4 -4 -4 -4 -4 -4 -4 -4 -4 -4 -4 -3 3 32 93 93 32 3 -3 -4 -4 -4 -4 -4 -4 -4 -4 -4 -4 -4 -4 -4 -4 -4 -3 -3 -2 0 4 12 24 37 57 86 107 109 96 79 53 30 14 7 5 6 12 23 31 40 61 101 144 
147 116 99 94 94 93 92 89 77 55 39 33 32 31 31 29 22 12 6 4 3 3 3 3 3 1 0 -2 -2 -3 -3 -3 -3 -3 -3 -4 -4 -4 -4 -4 -4 -4 -4 -4 -4 -4 -4 -4 -4 -4 -4 -4 -4 -4 -4 -4 -4 -4 -4 -4 -3 3 32 93 93 32 3 -3 -4 -4 -4 -4 -4 -4 -4 -4 -4 -4 -4 -4 -4 -3 -2 0 2 6 14 30 53 79 96 109 107 86 57 37 24 12 4 0 -2 -2 -2 0 1 3 7 20 55 119 
144 116 99 94 94 94 95 100 109 109 100 95 94 93 92 89 77 55 39 33 32 32 31 31 29 22 12 6 4 3 3 3 3 1 0 -2 -2 -3 -3 -3 -3 -3 -3 -3 -4 -4 -4 -4 -4 -4 -4 -4 -4 -4 -4 -4 -4 -4 -4 -4 -3 3 32 93 93 32 3 -3 -4 -4 -4 -4 -4 -4 -4 -4 -4 -4 -4 -3 -2 0 4 12 24 37 57 86 107 109 96 79 53 30 14 6 2 0 -2 -3 -4 -4 -4 -3 -3 -2 0 7 37 105 
113 64 39 33 32 32 33 39 55 77 89 92 93 94 95 100 109 109 100 95 94 93 93 92 89 77 55 39 33 32 31 31 29 22 12 6 4 3 3 3 3 3 1 0 -2 -2 -3 -3 -3 -3 -3 -3 -4 -4 -4 -4 -4 -4 -4 -4 -2 3 32 93 93 32 3 -3 -4 -4 -4 -4 -4 -4 -4 -4 -3 -3 -2 0 4 14 30 53 79 96 109 107 86 57 37 24 12 4 0 -2 -3 -3 -4 -4 -4 -4 -4 -4 -4 -4 -2 4 32 97 
98 39 12 5 4 4 4 6 12 22 29 31 31 32 33 39 55 77 89 92 93 93 94 95 100 109 109 100 95 94 93 92 89 77 55 39 33 32 32 31 31 29 22 12 6 4 3 3 3 3 1 0 -2 -2 -3 -3 -3 -3 -3 -3 -2 4 32 94 94 32 3 -3 -4 -4 -4 -4 -4 -4 -3 -2 0 2 6 14 31 55 86 107 109 96 79 53 30 14 6 2 0 -2 -3 -4 -4 -4 -4 -4 -4 -4 -4 -4 -4 -4 -3 3 32 94 
94 33 5 -1 -2 -2 -2 -2 0 1 3 3 3 3 4 6 12 22 29 31 31 32 32 33 39 55 77 89 92 93 94 95 100 109 109 100 95 94 93 93 92 89 77 55 39 33 32 31 31 29 22 12 6 4 3 3 3 3 3 1 0 5 33 94 94 32 4 -2 -4 -4 -4 -3 -3 -2 0 4 12 24 37 57 86 107 107 86 57 37 24 12 4 0 -2 -3 -3 -4 -4 -4 -4 -4 -4 -4 -4 -4 -4 -4 -4 -4 -3 3 32 94 
94 32 4 -2 -4 -4 -4 -4 -3 -3 -3 -3 -3 -3 -2 -2 0 1 3 3 3 3 3 4 6 12 22 29 31 31 32 33 39 55 77 89 92 93 93 94 95 100 109 109 100 95 94 93 92 89 77 55 39 33 32 32 31 31 29 22 14 14 40 99 97 34 4 -2 -3 -3 -2 0 2 6 14 30 53 79 96 109 107 86 55 31 14 6 2 0 -2 -3 -4 -4 -4 -4 -4 -4 -4 -4 -4 -4 -4 -4 -4 -4 -4 -4 -3 3 32 93 
93 32 3 -3 -4 -4 -4 -4 -4 -4 -4 -4 -4 -4 -4 -4 -3 -3 -3 -3 -3 -3 -3 -2 -2 0 1 3 3 3 3 4 6 12 22 29 31 31 32 32 33 39 55 77 89 92 93 94 95 100 109 109 100 95 94 93 93 92 89 77 56 47 65 116 109 43 9 0 -1 0 4 12 24 37 57 86 107 109 96 79 53 30 14 4 0 -2 -3 -3 -4 -4 -4 -4 -4 -4 -4 -4 -4 -4 -4 -4 -4 -4 -4 -4 -4 -4 -3 3 32 93 
93 32 3 -3 -4 -4 -4 -4 -4 -4 -4 -4 -4 -4 -4 -4 -4 -4 -4 -4 -4 -4 -4 -4 -4 -3 -3 -3 -3 -3 -3 -2 -2 0 1 3 3 3 3 3 4 6 12 22 29 31 31 32 33 39 55 77 89 92 93 93 94 95 100 109 110 105 115 145 134 71 26 10 8 15 30 53 79 96 109 107 86 57 37 24 12 4 0 -2 -3 -4 -4 -4 -4 -4 -4 -4 -4 -4 -4 -4 -4 -4 -4 -4 -4 -4 -4 -4 -4 -4 -3 3 32 93 
93 32 3 -3 -4 -4 -4 -4 -4 -4 -4 -4 -4 -4 -4 -4 -4 -4 -4 -4 -4 -4 -4 -4 -4 -4 -4 -4 -4 -4 -4 -4 -4 -3 -3 -3 -3 -3 -3 -3 -2 -2 0 1 3 3 3 3 4 6 12 22 29 31 31 32 32 33 39 55 77 90 98 113 126 111 70 45 42 58 86 107 109 96 79 53 30 14 6 2 0 -2 -3 -4 -4 -4 -4 -4 -4 -4 -4 -4 -4 -4 -4 -4 -4 -4 -4 -4 -4 -4 -4 -4 -4 -4 -3 3 32 93 
93 32 3 -3 -4 -4 -4 -4 -4 -4 -4 -4 -4 -4 -4 -4 -4 -4 -4 -4 -4 -4 -4 -4 -4 -4 -4 -4 -4 -4 -4 -4 -4 -4 -4 -4 -4 -4 -4 -4 -4 -4 -3 -3 -3 -3 -3 -3 -2 -2 0 1 3 3 3 3 3 4 6 12 22 29 33 43 70 111 127 115 107 111 107 86 57 37 24 12 4 0 -2 -3 -3 -4 -4 -4 -4 -4 -4 -4 -4 -4 -4 -4 -4 -4 -4 -4 -4 -4 -4 -4 -4 -4 -4 -4 -4 -4 -3 3 32 93 
93 32 3 -3 -4 -4 -4 -4 -4 -4 -4 -4 -4 -4 -4 -4 -4 -4 -4 -4 -4 -4 -4 -4 -4 -4 -4 -4 -4 -4 -4 -4 -4 -4 -4 -4 -4 -4 -4 -4 -4 -4 -4 -4 -4 -4 -4 -4 -4 -4 -3 -3 -3 -3 -3 -3 -2 -2 -2 0 1 3 4 9 26 71 134 144 110 82 53 30 14 6 2 0 -2 -3 -4 -4 -4 -4 -4 -4 -4 -4 -4 -4 -4 -4 -4 -4 -4 -4 -4 -4 -4 -4 -4 -4 -4 -4 -4 -4 -4 -4 -3 3 32 93 
94 32 4 -2 -4 -4 -4 -4 -4 -4 -4 -4 -4 -4 -4 -4 -4 -4 -4 -4 -4 -4 -4 -4 -4 -4 -4 -4 -4 -4 -4 -4 -4 -4 -4 -4 -4 -4 -4 -4 -4 -4 -4 -4 -4 -4 -4 -4 -4 -4 -4 -4 -4 -4 -4 -4 -4 -4 -3 -3 -3 -2 -2 0 9 43 109 115 61 30 13 4 0 -2 -3 -3 -4 -4 -4 -4 -4 -4 -4 -4 -4 -4 -4 -4 -4 -4 -4 -4 -4 -4 -4 -4 -4 -4 -4 -4 -4 -4 -4 -4 -4 -4 -2 4 32 94 
94 33 5 -1 -2 -3 -3 -3 -3 -3 -3 -3 -3 -3 -3 -3 -3 -3 -3 -3 -3 -3 -3 -3 -3 -3 -3 -3 -3 -3 -3 -3 -3 -3 -3 -3 -3 -3 -3 -3 -3 -3 -3 -3 -3 -3 -3 -3 -3 -3 -3 -3 -3 -3 -3 -3 -3 -3 -3 -2 -2 -2 -2 -1 6 35 98 100 40 11 1 -1 -2 -2 -2 -2 -3 -3 -3 -3 -3 -3 -3 -3 -3 -3 -3 -3 -3 -3 -3 -3 -3 -3 -3 -3 -3 -3 -3 -3 -3 -3 -3 -3 -3 -2 -1 5 33 94 
99 39 12 5 4 3 3 3 3 3 3 3 3 3 3 3 3 3 3 3 3 3 3 3 3 3 3 3 3 3 3 3 3 3 3 3 3 3 3 3 3 3 3 3 3 3 3 3 3 3 3 3 3 3 3 3 3 3 3 3 3 3 4 5 12 39 100 100 40 13 5 4 3 3 3 3 3 3 3 3 3 3 3 3 3 3 3 3 3 3 3 3 3 3 3 3 3 3 3 3 3 3 3 3 3 3 5 12 39 99 
117 64 39 33 32 32 32 32 32 32 32 32 32 32 32 32 32 32 32 32 32 32 32 32 32 32 32 32 32 32 32 31 31 31 31 31 32 32 32 32 32 32 32 32 32 32 32 32 31 31 31 31 32 32 32 32 32 32 32 32 32 32 32 33 39 64 116 116 64 39 33 32 32 32 32 32 32 32 32 32 32 32 32 32 32 32 32 32 32 32 31 31 31 31 31 32 32 32 32 32 32 32 31 31 31 32 33 39 64 117 
154 117 99 94 94 93 93 93 93 93 93 93 93 93 93 93 93 93 93 93 93 93 93 93 93 93 93 93 93 94 94 95 99 102 99 96 94 94 93 93 93 93 93 93 93 93 94 94 96 101 101 96 94 94 93 93 93 93 93 93 93 93 94 94 98 113 143 143 113 98 94 94 93 93 93 93 93 93 93 93 93 93 93 93 93 93 93 93 94 94 95 98 102 99 96 94 94 93 93 93 94 94 95 98 102 100 97 99 117 154 
