P2
110 110
255
154 123 103 97 96 95 95 95 95 95 95 95 95 95 95 95 95 95 95 95 95 95 95 95 95 95 95 95 96 97 103 118 139 146 127 108 99 96 95 95 95 95 95 95 95 96 97 102 118 142 142 117 102 97 95 95 95 95 95 95 95 95 95 95 96 99 103 103 99 96 95 95 95 95 95 95 95 95 95 95 95 95 95 95 95 95 95 95 96 100 112 135 146 129 109 99 96 95 95 95 96 99 110 133 147 130 111 107 123 155 
123 77 50 42 40 40 40 40 40 40 40 40 40 40 40 40 40 40 40 40 40 40 40 40 40 40 40 40 41 46 62 96 129 119 80 54 43 40 40 40 40 40 40 40 40 40 42 52 79 124 122 77 50 42 40 40 40 40 40 40 40 40 40 40 40 39 39 39 39 40 40 40 40 40 40 40 40 40 40 40 40 40 40 40 40 40 40 40 43 52 79 120 126 86 56 44 40 40 40 40 42 48 71 113 129 90 59 55 78 123 
103 50 20 11 9 8 8 8 8 8 8 8 8 8 8 8 8 8 8 8 8 8 8 8 8 8 9 9 13 24 53 98 113 75 35 17 10 9 8 8 8 8 8 8 8 9 12 25 60 114 105 50 20 11 9 8 8 8 8 8 8 8 8 8 8 8 8 8 8 8 8 8 8 8 8 8 8 8 8 8 8 8 8 8 8 8 9 10 14 31 71 113 94 46 20 11 9 8 8 9 11 20 50 101 106 56 26 24 51 103 
97 42 11 1 0 0 0 0 0 0 0 0 0 0 0 0 0 0 0 0 0 0 0 0 0 0 0 1 9 31 73 109 88 41 13 3 0 0 0 0 0 0 0 0 0 0 6 24 69 123 102 42 11 1 0 0 0 0 0 0 0 0 0 0 0 0 0 0 0 0 0 0 0 0 0 0 0 0 0 0 0 0 0 0 0 0 0 1 9 34 84 109 66 23 5 0 0 0 0 0 3 15 50 102 93 40 13 14 42 97 
96 40 9 0 -2 -2 -2 -2 -2 -2 -2 -2 -2 -2 -2 -2 -2 -2 -2 -2 -2 -2 -2 -2 -2 -2 -1 3 20 57 101 101 56 19 3 -1 -2 -2 -2 -2 -2 -2 -2 -2 -2 0 10 39 94 140 103 39 8 0 -2 -2 -2 -2 -2 -2 -2 -2 -2 -2 -2 -2 -2 -2 -2 -2 -2 -2 -2 -2 -2 -2 -2 -2 -2 -2 -2 -2 -2 -2 -2 -2 -2 0 12 46 97 97 46 12 0 -2 -2 -2 -2 -1 2 20 63 107 80 30 8 11 40 96 
95 40 8 0 -2 -3 -3 -3 -3 -3 -3 -3 -3 -3 -3 -3 -3 -3 -3 -3 -3 -3 -3 -3 -3 -2 0 12 41 88 107 70 28 6 0 -2 -3 -3 -3 -3 -3 -3 -3 -3 -1 3 20 62 120 146 103 40 8 0 -2 -3 -3 -3 -3 -3 -3 -3 -3 -3 -3 -3 -3 -3 -3 -3 -3 -3 -3 -3 -3 -3 -3 -3 -3 -3 -3 -3 -3 -3 -3 -3 -1 3 22 65 107 81 31 6 -1 -2 -3 -3 -3 -1 5 29 80 107 62 20 5 10 40 95 
95 40 8 0 -2 -3 -3 -3 -3 -3 -3 -3 -3 -3 -3 -3 -3 -3 -3 -3 -3 -3 -3 -3 -2 0 6 28 70 107 88 41 12 0 -2 -3 -3 -3 -3 -3 -3 -3 -3 -2 0 10 38 90 130 138 103 42 9 0 -2 -3 -3 -3 -3 -3 -3 -3 -3 -3 -3 -3 -3 -3 -3 -3 -3 -3 -3 -3 -3 -3 -3 -3 -3 -3 -3 -3 -3 -3 -3 -2 0 9 38 88 105 59 18 2 -2 -3 -3 -3 -2 0 8 38 92 100 48 13 3 9 40 95 
95 40 8 0 -2 -3 -3 -3 -3 -3 -3 -3 -3 -3 -3 -3 -3 -3 -3 -3 -3 -3 -3 -3 -1 3 19 56 100 100 56 19 3 -1 -3 -3 -3 -3 -3 -3 -3 -3 -3 -1 3 21 63 110 119 122 106 49 12 0 -2 -3 -3 -3 -3 -3 -3 -3 -3 -3 -3 -3 -3 -3 -3 -3 -3 -3 -3 -3 -3 -3 -3 -3 -3 -3 -3 -3 -3 -3 -3 -2 2 18 59 105 88 38 9 0 -2 -3 -3 -3 -2 0 12 48 100 92 38 9 1 9 40 95 
95 40 8 0 -2 -3 -3 -3 -3 -3 -3 -3 -3 -3 -3 -3 -3 -3 -3 -3 -3 -3 -3 -2 0 12 41 88 107 70 28 6 0 -2 -3 -3 -3 -3 -3 -3 -3 -3 -2 0 12 42 90 111 91 100 110 62 19 2 -2 -3 -3 -3 -3 -3 -3 -3 -3 -3 -3 -3 -3 -3 -3 -3 -3 -3 -3 -3 -3 -3 -3 -3 -3 -3 -3 -3 -3 -3 -3 -1 6 31 81 107 65 22 3 -1 -3 -3 -3 -3 -2 2 19 62 107 80 29 6 1 9 40 95 
95 40 8 0 -2 -3 -3 -3 -3 -3 -3 -3 -3 -3 -3 -3 -3 -3 -3 -3 -3 -3 -2 0 6 28 70 107 88 41 12 0 -2 -3 -3 -3 -3 -3 -3 -3 -3 -2 0 6 28 71 108 91 60 75 109 79 28 5 -1 -3 -3 -3 -3 -3 -3 -3 -3 -3 -3 -3 -3 -3 -3 -3 -3 -3 -3 -3 -3 -3 -3 -3 -3 -3 -3 -3 -3 -3 -2 0 12 45 97 97 45 12 0 -2 -3 -3 -3 -3 -1 5 29 80 107 62 19 2 0 9 40 95 
95 40 8 0 -2 -3 -3 -3 -3 -3 -3 -3 -3 -3 -3 -3 -3 -3 -3 -3 -3 -3 -1 3 19 56 100 100 56 19 3 -1 -3 -3 -3 -3 -3 -3 -3 -3 -3 -1 2 18 56 100 101 59 35 55 102 89 35 7 -1 -3 -3 -3 -3 -3 -3 -3 -3 -3 -3 -3 -3 -3 -3 -3 -3 -3 -3 -3 -3 -3 -3 -3 -3 -3 -3 -3 -3 -3 -1 3 22 65 107 81 31 6 -1 -3 -3 -3 -3 -2 0 8 38 92 100 48 12 0 0 8 40 95 
96 40 9 0 -2 -3 -3 -3 -3 -3 -3 -3 -3 -3 -3 -3 -3 -3 -3 -3 -3 -2 0 12 41 88 107 70 28 6 0 -2 -3 -3 -3 -3 -3 -3 -3 -3 -2 0 9 37 86 107 71 31 20 45 98 94 38 8 0 -2 -3 -3 -3 -3 -3 -3 -3 -3 -3 -3 -3 -3 -3 -3 -3 -3 -3 -3 -3 -3 -3 -3 -3 -3 -3 -3 -3 -2 0 9 38 88 105 59 18 2 -2 -3 -3 -3 -3 -2 0 12 48 100 92 38 8 0 0 8 40 95 
99 43 10 0 -2 -3 -3 -3 -3 -3 -3 -3 -3 -3 -3 -3 -3 -3 -3 -3 -2 0 6 28 70 107 88 41 12 0 -2 -3 -3 -3 -3 -3 -3 -3 -3 -3 -1 3 21 62 105 90 42 14 13 41 95 95 40 8 0 -2 -3 -3 -3 -3 -3 -3 -3 -3 -3 -3 -3 -3 -3 -3 -3 -3 -3 -3 -3 -3 -3 -3 -3 -3 -3 -3 -3 -2 2 18 59 105 88 38 9 0 -2 -3 -3 -3 -3 -2 2 19 62 107 80 29 5 -1 0 8 40 96 
108 53 16 2 -1 -3 -3 -3 -3 -3 -3 -3 -3 -3 -3 -3 -3 -3 -3 -3 -1 3 19 56 100 100 56 19 3 -1 -3 -3 -3 -3 -3 -3 -3 -3 -3 -2 0 10 39 88 106 63 22 6 10 39 94 97 42 10 0 -2 -3 -3 -3 -3 -3 -3 -3 -3 -3 -3 -3 -3 -3 -3 -3 -3 -3 -3 -3 -3 -3 -3 -3 -3 -3 -3 -3 -1 6 31 81 107 65 22 3 -1 -3 -3 -3 -3 -3 -1 5 29 80 107 62 19 2 -1 0 8 39 98 
127 79 33 9 0 -2 -3 -3 -3 -3 -3 -3 -3 -3 -3 -3 -3 -3 -3 -2 0 12 41 88 107 70 28 6 0 -2 -3 -3 -3 -3 -3 -3 -3 -3 -3 -1 3 22 63 106 88 39 10 2 8 35 89 101 49 12 0 -2 -3 -3 -3 -3 -3 -3 -3 -3 -3 -3 -3 -3 -3 -3 -3 -3 -3 -3 -3 -3 -3 -3 -3 -3 -3 -3 -2 0 12 45 97 97 45 12 0 -2 -3 -3 -3 -3 -2 0 8 38 92 100 48 12 0 -2 0 8 39 101 
145 117 68 29 8 0 -2 -3 -3 -3 -3 -3 -3 -3 -3 -3 -3 -3 -2 0 6 28 70 107 88 41 12 0 -2 -3 -3 -3 -3 -3 -3 -3 -3 -3 -2 0 12 42 90 105 62 21 3 0 5 28 79 107 62 19 2 -2 -3 -3 -3 -3 -3 -3 -3 -3 -3 -3 -3 -3 -3 -3 -3 -3 -3 -3 -3 -3 -3 -3 -3 -3 -3 -3 -1 3 22 65 107 81 31 6 -1 -3 -3 -3 -3 -3 -2 0 12 48 100 92 38 8 0 -2 0 8 39 103 
140 131 106 64 26 6 0 -2 -3 -3 -3 -3 -3 -3 -3 -3 -3 -3 -1 3 19 56 100 100 56 19 3 -1 -3 -3 -3 -3 -3 -3 -3 -3 -3 -2 0 6 28 71 107 86 38 9 0 -1 2 19 62 107 79 28 5 -1 -3 -3 -3 -3 -3 -3 -3 -3 -3 -3 -3 -3 -3 -3 -3 -3 -3 -3 -3 -3 -3 -3 -3 -3 -3 -2 0 9 38 88 105 59 18 2 -2 -3 -3 -3 -3 -3 -2 2 19 62 107 80 29 5 -1 -2 0 8 39 102 
120 105 112 100 55 19 3 -1 -3 -3 -3 -3 -3 -3 -3 -3 -3 -2 0 12 41 88 107 70 28 6 0 -2 -3 -3 -3 -3 -3 -3 -3 -3 -3 -1 2 18 56 100 100 56 18 2 -1 -2 0 12 49 101 89 35 7 -1 -3 -3 -3 -3 -3 -3 -3 -3 -3 -3 -3 -3 -3 -3 -3 -3 -3 -3 -3 -3 -3 -3 -3 -3 -3 -2 2 18 59 105 88 38 9 0 -2 -3 -3 -3 -3 -3 -1 5 29 80 107 62 19 2 -2 -2 0 8 39 98 
106 74 83 109 88 41 12 1 -2 -3 -3 -3 -3 -3 -3 -3 -2 0 6 28 70 107 88 41 12 0 -2 -3 -3 -3 -3 -3 -3 -3 -3 -3 -2 0 9 37 86 107 71 28 6 0 -2 -2 0 10 42 97 94 38 8 0 -2 -3 -3 -3 -3 -3 -3 -3 -3 -3 -3 -3 -3 -3 -3 -3 -3 -3 -3 -3 -3 -3 -3 -3 -3 -1 6 31 81 107 65 22 3 -1 -3 -3 -3 -3 -3 -2 0 8 38 92 100 48 12 0 -2 -2 0 8 40 96 
99 55 53 90 107 72 32 9 0 -2 -3 -3 -3 -3 -3 -3 -1 3 19 56 100 100 56 19 3 -1 -3 -3 -3 -3 -3 -3 -3 -3 -3 -3 -1 3 21 62 105 90 42 12 0 -2 -3 -2 0 8 40 95 95 40 8 0 -2 -3 -3 -3 -3 -3 -3 -3 -3 -3 -3 -3 -3 -3 -3 -3 -3 -3 -3 -3 -3 -3 -3 -3 -2 0 12 45 97 97 45 12 0 -2 -3 -3 -3 -3 -3 -2 0 12 48 100 92 38 8 0 -2 -2 0 8 40 96 
97 46 31 58 99 103 67 30 9 0 -2 -3 -3 -3 -3 -2 0 12 41 88 107 70 28 6 0 -2 -3 -3 -3 -3 -3 -3 -3 -3 -3 -2 0 10 39 88 106 63 22 3 -1 -3 -3 -2 0 8 38 94 97 42 10 0 -2 -3 -3 -3 -3 -3 -3 -3 -3 -3 -3 -3 -3 -3 -3 -3 -3 -3 -3 -3 -3 -3 -3 -3 -1 3 22 65 107 81 31 6 -1 -3 -3 -3 -3 -3 -3 -2 2 19 62 107 80 29 5 -1 -3 -2 0 8 40 95 
96 42 18 28 64 102 102 66 30 9 0 -2 -3 -3 -2 0 6 28 70 107 88 41 12 0 -2 -3 -3 -3 -3 -3 -3 -3 -3 -3 -3 -1 3 22 63 106 88 39 10 0 -2 -3 -3 -3 -1 7 35 89 101 49 12 0 -2 -3 -3 -3 -3 -3 -3 -3 -3 -3 -3 -3 -3 -3 -3 -3 -3 -3 -3 -3 -3 -3 -3 -2 0 9 38 88 105 59 18 2 -2 -3 -3 -3 -3 -3 -3 -1 5 29 80 107 62 19 2 -2 -3 -2 0 8 40 95 
95 40 12 11 29 66 102 102 66 30 9 0 -2 -2 -1 3 19 56 100 100 56 19 3 -1 -3 -3 -3 -3 -3 -3 -3 -3 -3 -3 -2 0 12 42 90 105 62 21 3 -1 -3 -3 -3 -3 -1 5 28 79 107 62 19 2 -2 -3 -3 -3 -3 -3 -3 -3 -3 -3 -3 -3 -3 -3 -3 -3 -3 -3 -3 -3 -3 -3 -3 -2 2 18 59 105 88 38 9 0 -2 -3 -3 -3 -3 -3 -2 0 8 38 92 100 48 12 0 -2 -3 -2 0 8 40 95 
95 40 9 3 9 30 66 102 102 66 30 9 0 -1 1 12 41 88 107 70 28 6 0 -2 -3 -3 -3 -3 -3 -3 -3 -3 -3 -2 0 6 28 71 107 86 37 9 0 -2 -3 -3 -3 -3 -2 2 19 62 107 79 28 5 -1 -3 -3 -3 -3 -3 -3 -3 -3 -3 -3 -3 -3 -3 -3 -3 -3 -3 -3 -3 -3 -3 -3 -1 6 31 81 107 65 22 3 -1 -3 -3 -3 -3 -3 -3 -2 0 12 48 100 92 38 8 0 -2 -3 -2 0 8 40 95 
95 40 9 0 1 9 30 66 102 102 66 30 10 3 8 29 70 107 88 41 12 0 -2 -3 -3 -3 -3 -3 -3 -3 -3 -3 -3 -1 2 18 56 100 100 56 18 2 -1 -3 -3 -3 -3 -3 -2 0 12 49 101 89 35 7 -1 -3 -3 -3 -3 -3 -3 -3 -3 -3 -3 -3 -3 -3 -3 -3 -3 -3 -3 -3 -3 -3 -2 0 12 45 97 97 45 12 0 -2 -3 -3 -3 -3 -3 -3 -2 2 19 62 107 80 29 5 -1 -3 -3 -2 0 8 40 95 
95 40 8 0 -1 0 9 30 66 102 102 66 31 16 23 57 101 100 56 19 3 -1 -3 -3 -3 -3 -3 -3 -3 -3 -3 -3 -2 0 9 37 86 107 71 28 6 0 -2 -3 -3 -3 -3 -3 -2 0 9 42 97 94 39 8 0 -2 -3 -3 -3 -3 -3 -3 -3 -3 -3 -3 -3 -3 -3 -3 -3 -3 -3 -3 -3 -3 -1 3 22 65 107 81 31 6 -1 -3 -3 -3 -3 -3 -3 -3 -1 5 29 80 107 62 19 2 -2 -3 -3 -2 0 8 40 95 
95 40 8 0 -2 -2 0 9 30 66 102 103 70 45 53 91 107 70 28 6 0 -2 -3 -3 -3 -3 -3 -3 -3 -3 -3 -3 -1 3 21 62 105 90 42 12 0 -2 -3 -3 -3 -3 -3 -3 -2 0 8 39 94 97 42 9 0 -2 -3 -3 -3 -3 -3 -3 -3 -3 -3 -3 -3 -3 -3 -3 -3 -3 -3 -3 -3 -2 0 9 38 88 105 59 18 2 -2 -3 -3 -3 -3 -3 -3 -2 0 8 38 92 100 48 12 0 -2 -3 -3 -2 0 8 40 95 
95 40 8 0 -2 -3 -2 0 9 30 66 103 109 93 97 113 88 41 12 0 -2 -3 -3 -3 -3 -3 -3 -3 -3 -3 -3 -2 0 10 39 88 106 63 22 3 -1 -3 -3 -3 -3 -3 -3 -3 -3 -1 7 35 89 101 49 12 0 -2 -3 -3 -3 -3 -3 -3 -3 -3 -3 -3 -3 -3 -3 -3 -3 -3 -3 -3 -3 -2 2 18 59 105 88 38 9 0 -2 -3 -3 -3 -3 -3 -3 -2 0 12 48 100 92 38 8 0 -2 -3 -3 -2 0 8 40 95 
95 40 8 0 -2 -3 -3 -2 0 9 30 68 111 136 136 107 57 19 3 -1 -3 -3 -3 -3 -3 -3 -3 -3 -3 -3 -3 -1 3 22 63 106 88 39 10 0 -2 -3 -3 -3 -3 -3 -3 -3 -3 -1 5 28 79 107 62 19 2 -2 -3 -3 -3 -3 -3 -3 -3 -3 -3 -3 -3 -3 -3 -3 -3 -3 -3 -3 -3 -1 6 31 81 107 65 22 3 -1 -3 -3 -3 -3 -3 -3 -3 -2 2 19 62 107 80 29 5 -1 -3 -3 -3 -2 0 8 40 95 
95 40 8 0 -2 -3 -3 -3 -2 0 10 33 79 133 133 78 30 7 0 -2 -3 -3 -3 -3 -3 -3 -3 -3 -3 -3 -2 0 12 42 90 105 62 21 3 -1 -3 -3 -3 -3 -3 -3 -3 -3 -3 -2 2 19 62 107 79 28 5 -1 -3 -3 -3 -3 -3 -3 -3 -3 -3 -3 -3 -3 -3 -3 -3 -3 -3 -3 -2 0 12 45 97 97 45 12 0 -2 -3 -3 -3 -3 -3 -3 -3 -1 5 29 80 107 62 19 2 -2 -3 -3 -3 -2 0 8 40 95 
95 40 8 0 -2 -3 -3 -3 -3 -1 2 16 52 110 113 56 16 2 -2 -3 -3 -3 -3 -3 -3 -3 -3 -3 -3 -2 0 6 28 71 107 86 37 9 0 -2 -3 -3 -3 -3 -3 -3 -3 -3 -3 -2 0 12 49 101 89 35 7 -1 -3 -3 -3 -3 -3 -3 -3 -3 -3 -3 -3 -3 -3 -3 -3 -3 -3 -3 -1 3 22 65 107 81 31 6 -1 -3 -3 -3 -3 -3 -3 -3 -2 0 8 38 92 100 48 12 0 -2 -3 -3 -3 -2 0 8 40 95 
95 40 8 0 -2 -3 -3 -3 -3 -2 0 9 39 94 106 52 14 1 -2 -3 -3 -3 -3 -3 -3 -3 -3 -3 -3 -1 2 18 56 100 100 56 18 2 -1 -3 -3 -3 -3 -3 -3 -3 -3 -3 -3 -2 0 10 42 97 94 38 8 0 -2 -3 -3 -3 -3 -3 -3 -3 -3 -3 -3 -3 -3 -3 -3 -3 -3 -2 0 9 38 88 105 59 18 2 -2 -3 -3 -3 -3 -3 -3 -3 -2 0 12 48 100 92 38 8 0 -2 -3 -3 -3 -2 0 8 40 95 
95 40 8 0 -2 -3 -3 -3 -3 -3 -1 5 29 80 108 63 19 2 -2 -3 -3 -3 -3 -3 -3 -3 -3 -3 -2 0 9 37 86 107 71 28 6 0 -2 -3 -3 -3 -3 -3 -3 -3 -3 -3 -3 -2 0 8 40 95 95 40 8 0 -2 -3 -3 -3 -3 -3 -3 -3 -3 -3 -3 -3 -3 -3 -3 -3 -3 -2 2 18 59 105 88 38 9 0 -2 -3 -3 -3 -3 -3 -3 -3 -2 2 19 62 107 80 29 5 -1 -3 -3 -3 -3 -2 0 8 40 95 
95 40 8 0 -2 -3 -3 -3 -3 -3 -2 2 19 62 107 79 29 5 -1 -3 -3 -3 -3 -3 -3 -3 -3 -3 -1 3 21 62 105 90 42 12 0 -2 -3 -3 -3 -3 -3 -3 -3 -3 -3 -3 -3 -2 0 8 38 94 97 42 10 0 -2 -3 -3 -3 -3 -3 -3 -3 -3 -3 -3 -3 -3 -3 -3 -3 -3 -1 6 31 81 107 65 22 3 -1 -3 -3 -3 -3 -3 -3 -3 -3 -1 5 29 80 107 62 19 2 -2 -3 -3 -3 -3 -2 0 8 40 95 
95 40 8 0 -2 -3 -3 -3 -3 -3 -2 0 12 48 101 90 36 7 -1 -2 -3 -3 -3 -3 -3 -3 -3 -2 0 10 39 88 106 63 22 3 -1 -3 -3 -3 -3 -3 -3 -3 -3 -3 -3 -3 -3 -3 -1 7 35 89 101 49 12 0 -2 -3 -3 -3 -3 -3 -3 -3 -3 -3 -3 -3 -3 -3 -3 -3 -2 0 12 45 97 97 45 12 0 -2 -3 -3 -3 -3 -3 -3 -3 -2 0 8 38 92 100 48 12 0 -2 -3 -3 -3 -3 -2 0 9 40 96 
96 40 8 0 -2 -3 -3 -3 -3 -3 -2 0 9 41 96 96 41 9 0 -2 -3 -3 -3 -3 -3 -3 -3 -1 3 22 63 106 88 39 10 0 -2 -3 -3 -3 -3 -3 -3 -3 -3 -3 -3 -3 -3 -3 -1 5 28 79 107 62 19 2 -2 -3 -3 -3 -3 -3 -3 -3 -3 -3 -3 -3 -3 -3 -3 -3 -1 3 22 65 107 81 31 6 -1 -3 -3 -3 -3 -3 -3 -3 -3 -2 0 12 48 100 92 38 8 0 -2 -3 -3 -3 -3 -2 0 10 42 98 
97 39 8 0 -2 -3 -3 -3 -3 -3 -2 -1 7 36 90 101 48 12 0 -2 -3 -3 -3 -3 -3 -3 -2 0 12 42 90 105 62 21 3 -1 -3 -3 -3 -3 -3 -3 -3 -3 -3 -3 -3 -3 -3 -3 -2 2 19 62 107 79 28 5 -1 -3 -3 -3 -3 -3 -3 -3 -3 -3 -3 -3 -3 -3 -3 -2 0 9 38 88 105 59 18 2 -2 -3 -3 -3 -3 -3 -3 -3 -3 -2 2 19 62 107 80 29 5 -1 -3 -3 -3 -3 -3 -2 0 13 50 106 
100 39 8 0 -2 -3 -3 -3 -3 -3 -3 -1 5 29 79 107 62 19 2 -2 -3 -3 -3 -3 -3 -2 0 6 28 71 107 86 37 9 0 -2 -3 -3 -3 -3 -3 -3 -3 -3 -3 -3 -3 -3 -3 -3 -2 0 12 49 101 89 35 7 -1 -3 -3 -3 -3 -3 -3 -3 -3 -3 -3 -3 -3 -3 -3 -2 2 18 59 105 88 38 9 0 -2 -3 -3 -3 -3 -3 -3 -3 -3 -1 5 29 80 107 62 19 2 -2 -3 -3 -3 -3 -3 -1 4 22 67 122 
103 39 8 0 -2 -3 -3 -3 -3 -3 -3 -2 2 19 62 107 79 29 5 -1 -3 -3 -3 -3 -3 -1 2 18 56 100 100 56 18 2 -1 -3 -3 -3 -3 -3 -3 -3 -3 -3 -3 -3 -3 -3 -3 -3 -2 0 10 42 97 94 38 8 0 -2 -3 -3 -3 -3 -3 -3 -3 -3 -3 -3 -3 -3 -3 -1 6 31 81 107 65 22 3 -1 -3 -3 -3 -3 -3 -3 -3 -3 -2 0 8 38 92 100 48 12 0 -2 -3 -3 -3 -3 -2 0 12 41 96 140 
102 39 8 0 -2 -3 -3 -3 -3 -3 -3 -2 0 12 48 101 90 36 7 -1 -2 -3 -3 -3 -2 0 9 37 86 107 71 28 6 0 -2 -3 -3 -3 -3 -3 -3 -3 -3 -3 -3 -3 -3 -3 -3 -3 -2 0 8 40 95 95 40 8 0 -2 -3 -3 -3 -3 -3 -3 -3 -3 -3 -3 -3 -3 -2 0 12 45 97 97 45 12 0 -2 -3 -3 -3 -3 -3 -3 -3 -3 -2 0 12 48 100 92 38 8 0 -2 -3 -3 -3 -2 0 6 28 72 123 146 
100 39 8 0 -2 -3 -3 -3 -3 -3 -3 -2 0 9 41 96 96 41 9 0 -2 -3 -3 -3 -1 3 21 62 105 90 42 12 0 -2 -3 -3 -3 -3 -3 -3 -3 -3 -3 -3 -3 -3 -3 -3 -3 -3 -2 0 8 38 94 97 42 10 0 -2 -3 -3 -3 -3 -3 -3 -3 -3 -3 -3 -3 -3 -1 3 22 65 107 81 31 6 -1 -3 -3 -3 -3 -3 -3 -3 -3 -3 -2 2 19 62 107 80 29 5 -1 -3 -3 -3 -3 -1 3 19 56 104 130 136 
98 39 8 0 -2 -3 -3 -3 -3 -3 -3 -2 -1 7 36 90 101 48 12 0 -2 -3 -3 -2 0 10 39 88 106 63 22 3 -1 -3 -3 -3 -3 -3 -3 -3 -3 -3 -3 -3 -3 -3 -3 -3 -3 -3 -3 -1 7 35 89 101 49 13 0 -2 -3 -3 -3 -3 -3 -3 -3 -3 -3 -3 -3 -2 0 9 38 88 105 59 18 2 -2 -3 -3 -3 -3 -3 -3 -3 -3 -3 -1 5 29 80 107 62 19 2 -2 -3 -3 -3 -2 0 12 41 88 115 108 120 
96 40 8 0 -2 -3 -3 -3 -3 -3 -3 -3 -1 5 29 79 107 62 19 2 -2 -3 -3 -1 3 22 63 106 88 39 10 0 -2 -3 -3 -3 -3 -3 -3 -3 -3 -3 -3 -3 -3 -3 -3 -3 -3 -3 -3 -1 5 28 79 107 63 20 2 -1 -2 -3 -3 -3 -3 -3 -3 -3 -3 -3 -3 -2 2 18 59 105 88 38 9 0 -2 -3 -3 -3 -3 -3 -3 -3 -3 -2 0 8 38 92 100 48 12 0 -2 -3 -3 -2 0 6 28 70 108 98 82 107 
96 40 8 0 -2 -3 -3 -3 -3 -3 -3 -3 -2 2 19 62 107 79 29 5 -1 -2 -2 0 12 42 90 105 62 21 3 -1 -3 -3 -3 -3 -3 -3 -3 -3 -3 -3 -3 -3 -3 -3 -3 -3 -3 -3 -3 -2 2 20 63 108 81 31 7 1 0 -1 -2 -2 -2 -2 -2 -3 -3 -3 -2 -1 6 31 81 107 65 22 3 -1 -3 -3 -3 -3 -3 -3 -3 -3 -3 -2 0 12 48 100 92 38 8 0 -2 -3 -3 -1 3 19 56 101 102 68 62 101 
95 40 8 0 -2 -3 -3 -3 -3 -3 -3 -3 -2 0 12 48 101 90 36 7 0 -2 0 6 28 71 107 86 37 9 0 -2 -3 -3 -3 -3 -3 -3 -3 -3 -3 -3 -3 -3 -3 -3 -3 -3 -3 -3 -3 -2 1 15 53 107 97 46 19 10 7 5 2 0 0 0 0 -1 -1 -2 -1 0 12 46 97 97 45 12 0 -2 -3 -3 -3 -3 -3 -3 -3 -3 -3 -2 2 19 62 107 80 29 5 -1 -3 -3 -2 0 12 41 88 107 73 40 50 97 
95 40 8 0 -2 -3 -3 -3 -3 -3 -3 -3 -2 0 9 41 96 96 41 9 0 -1 2 18 56 100 100 56 18 2 -1 -3 -3 -3 -3 -3 -3 -3 -3 -3 -3 -3 -3 -3 -3 -3 -3 -3 -3 -3 -2 0 5 21 59 115 119 76 50 41 36 28 19 12 10 8 8 7 5 2 1 6 23 66 107 81 31 6 -1 -3 -3 -3 -3 -3 -3 -3 -3 -3 -3 -1 5 29 80 107 62 19 2 -2 -3 -2 0 6 28 70 107 88 43 24 44 96 
95 40 8 0 -2 -3 -3 -3 -3 -3 -3 -3 -2 -1 7 36 90 101 48 13 1 0 9 38 86 107 71 28 6 0 -2 -3 -3 -3 -3 -3 -3 -3 -3 -3 -3 -3 -3 -3 -3 -3 -3 -3 -2 -1 0 7 20 45 86 135 143 118 102 95 90 79 62 49 42 40 38 35 28 20 15 21 46 92 106 60 18 2 -2 -3 -3 -3 -3 -3 -3 -3 -3 -3 -2 0 8 38 92 100 48 12 0 -2 -2 -1 3 19 56 100 101 57 22 15 41 95 
95 40 8 0 -2 -3 -3 -3 -3 -3 -3 -3 -3 -1 5 29 79 107 62 19 4 4 21 62 105 90 42 12 0 -2 -3 -3 -3 -3 -3 -3 -3 -3 -3 -3 -3 -3 -3 -3 -3 -3 -3 -2 0 3 12 28 57 90 115 124 114 103 98 98 101 107 107 101 97 95 94 89 79 63 53 59 87 117 92 39 9 0 -2 -3 -3 -3 -3 -3 -3 -3 -3 -3 -2 0 12 48 100 92 38 8 0 -2 -2 0 12 41 88 107 71 29 9 11 40 95 
95 40 8 0 -2 -3 -3 -3 -3 -3 -3 -3 -3 -2 2 19 62 107 79 29 8 12 39 88 106 63 22 3 -1 -3 -3 -3 -3 -3 -3 -3 -3 -3 -3 -3 -3 -3 -3 -3 -3 -2 -1 0 6 19 41 70 101 108 92 67 50 43 41 42 49 62 79 89 94 95 97 101 107 108 106 114 135 132 77 27 5 -1 -3 -3 -3 -3 -3 -3 -3 -3 -3 -3 -2 2 19 62 107 80 29 5 -1 -2 0 6 28 70 107 88 41 12 3 9 40 95 
95 40 8 0 -2 -3 -3 -3 -3 -3 -3 -3 -3 -2 0 12 48 101 90 38 15 24 63 106 88 39 10 0 -2 -3 -3 -3 -3 -3 -3 -3 -3 -3 -3 -3 -3 -3 -3 -3 -2 0 3 12 28 56 88 107 101 71 42 23 13 10 9 10 12 19 28 35 38 40 42 49 62 80 94 111 134 132 78 28 5 0 -2 -3 -3 -3 -3 -3 -3 -3 -3 -3 -1 5 29 80 107 62 19 2 -1 -1 3 19 56 100 100 56 19 3 0 9 40 95 
95 40 8 0 -2 -3 -3 -3 -3 -3 -3 -3 -3 -2 0 9 41 96 96 45 25 44 90 105 62 21 3 -1 -3 -3 -3 -3 -3 -3 -3 -3 -3 -3 -3 -3 -3 -3 -3 -2 0 6 19 41 70 100 107 88 56 28 12 4 0 0 0 0 0 2 5 7 8 8 10 12 19 29 39 55 86 117 94 44 14 2 -1 -2 -2 -2 -2 -2 -2 -2 -2 -2 0 9 38 92 100 48 12 0 -1 0 12 41 88 107 70 28 7 0 0 8 40 95 
95 40 8 0 -2 -3 -3 -3 -3 -3 -3 -3 -3 -2 -1 7 36 90 103 58 44 74 108 86 37 9 0 -2 -3 -3 -3 -3 -3 -3 -3 -3 -3 -3 -3 -3 -3 -2 -1 1 9 26 55 87 107 100 70 41 19 6 0 -1 -2 -2 -2 -2 -2 -2 -1 -1 0 0 0 0 2 5 10 19 45 90 109 74 34 13 4 0 0 0 0 0 0 0 0 0 2 14 49 101 93 39 9 0 0 7 28 70 107 88 41 12 0 -1 0 8 40 95 
95 40 8 0 -2 -3 -3 -3 -3 -3 -3 -3 -3 -3 -1 5 28 79 111 83 78 105 101 56 18 2 -1 -3 -3 -3 -3 -3 -3 -3 -3 -3 -3 -3 -3 -3 -2 0 3 12 31 65 99 107 88 56 28 12 3 0 -2 -3 -3 -3 -3 -3 -3 -3 -3 -3 -2 -2 -2 -2 -2 -1 0 5 20 57 103 110 76 43 23 13 10 9 8 8 8 8 9 9 14 30 70 112 84 32 7 0 4 19 56 100 100 56 19 3 -1 -2 0 8 40 95 
95 40 8 0 -2 -3 -3 -3 -3 -3 -3 -3 -3 -3 -2 2 19 62 113 114 113 111 71 28 6 0 -2 -3 -3 -3 -3 -3 -3 -3 -3 -3 -3 -3 -2 -1 0 6 19 41 72 103 103 72 41 19 6 0 -1 -2 -3 -3 -3 -3 -3 -3 -3 -3 -3 -3 -3 -3 -3 -3 -3 -3 -2 0 7 30 76 126 128 96 67 50 42 40 40 40 40 40 40 41 47 66 106 125 79 31 9 5 13 41 88 107 70 28 6 0 -2 -2 0 8 40 95 
95 40 8 0 -2 -3 -3 -3 -3 -3 -3 -3 -3 -3 -2 0 12 49 109 137 129 92 41 12 0 -2 -3 -3 -3 -3 -3 -3 -3 -3 -3 -3 -3 -2 0 3 12 28 56 88 107 99 65 31 12 3 0 -2 -3 -3 -3 -3 -3 -3 -3 -3 -3 -3 -3 -3 -3 -3 -3 -3 -3 -3 -3 -2 2 16 56 119 146 129 113 102 97 96 95 95 95 95 95 97 101 115 140 140 95 50 26 20 34 72 107 88 41 12 0 -2 -3 -2 0 8 40 95 
95 40 8 0 -2 -3 -3 -3 -3 -3 -3 -3 -3 -3 -2 0 9 42 105 146 120 63 21 3 -1 -3 -3 -3 -3 -3 -3 -3 -3 -3 -3 -2 -1 0 6 19 41 70 100 107 87 55 26 9 1 -1 -2 -3 -3 -3 -3 -3 -3 -3 -3 -3 -3 -3 -3 -3 -3 -3 -3 -3 -3 -3 -3 -2 1 14 52 111 121 94 88 91 94 95 95 95 95 95 95 96 97 102 114 125 117 93 68 57 74 107 103 57 19 3 -1 -3 -3 -2 0 8 40 95 
95 40 8 0 -2 -3 -3 -3 -3 -3 -3 -3 -3 -3 -2 0 8 40 103 140 94 38 9 0 -2 -3 -3 -3 -3 -3 -3 -3 -3 -2 -2 0 3 11 28 56 88 107 101 71 41 19 6 0 -2 -3 -3 -3 -3 -3 -3 -3 -3 -3 -3 -3 -3 -3 -3 -3 -3 -3 -3 -3 -3 -3 -3 -2 2 19 63 110 90 50 37 37 39 39 40 40 40 40 40 40 40 42 50 67 90 107 111 111 123 124 79 31 7 0 -2 -3 -3 -2 0 8 40 95 
95 40 8 0 -2 -3 -3 -3 -3 -3 -3 -3 -3 -3 -2 0 8 39 101 122 67 21 3 -1 -3 -3 -3 -3 -3 -3 -3 -2 -2 0 1 6 19 40 71 102 109 90 58 30 13 4 0 -2 -2 -3 -3 -3 -3 -3 -3 -3 -3 -3 -3 -3 -3 -3 -3 -3 -3 -3 -3 -3 -3 -3 -3 -1 5 28 79 108 65 25 11 8 8 8 8 8 8 8 8 8 9 9 13 22 39 63 92 121 146 126 66 22 4 -1 -3 -3 -3 -2 0 8 40 95 
95 40 8 0 -2 -3 -3 -3 -3 -3 -3 -3 -3 -3 -2 0 8 40 98 105 49 13 0 -2 -3 -3 -3 -3 -3 -2 -1 0 2 7 14 29 56 92 120 117 85 53 30 15 6 2 0 -1 -2 -2 -2 -2 -3 -3 -3 -3 -3 -3 -3 -3 -3 -3 -3 -3 -3 -3 -3 -3 -3 -3 -3 -1 7 35 90 101 49 14 2 0 0 0 0 0 0 0 0 0 0 0 0 3 10 21 42 75 117 125 79 31 7 0 -2 -3 -3 -2 0 8 40 95 
95 40 8 0 -2 -3 -3 -3 -3 -3 -3 -3 -3 -3 -2 0 9 42 98 97 41 9 0 -2 -3 -3 -3 -2 -1 0 3 9 19 32 48 74 110 139 143 115 79 56 42 31 20 12 8 5 2 0 0 -1 -1 -2 -2 -2 -3 -3 -3 -3 -3 -3 -3 -3 -3 -3 -3 -3 -3 -3 -2 0 8 39 94 97 42 10 0 -2 -2 -2 -2 -2 -2 -2 -2 -2 -2 -2 -2 -1 0 4 12 32 69 108 103 57 19 3 -1 -3 -3 -2 0 8 40 95 
95 40 8 0 -2 -3 -3 -3 -3 -3 -3 -3 -3 -3 -2 0 12 49 102 90 36 7 0 -2 -2 -2 -1 0 3 10 21 38 59 82 99 113 120 122 125 121 109 99 91 80 62 48 38 29 19 12 9 7 5 2 0 0 -1 -2 -2 -2 -2 -3 -3 -3 -3 -3 -3 -3 -3 -3 -2 0 9 42 97 94 39 8 0 -2 -3 -3 -3 -3 -3 -3 -3 -3 -3 -3 -3 -3 -2 -1 1 10 32 73 108 88 41 12 0 -2 -3 -2 0 8 40 95 
95 40 8 0 -2 -3 -3 -3 -3 -3 -3 -3 -3 -3 -2 2 19 62 107 79 29 5 0 -1 0 2 6 12 22 39 62 88 105 107 98 83 66 58 65 81 91 96 101 107 107 100 92 80 62 48 41 36 29 19 12 8 5 2 0 0 -1 -1 -2 -2 -2 -3 -3 -3 -3 -3 -2 0 12 49 101 89 35 7 -1 -3 -3 -3 -3 -3 -3 -3 -3 -3 -3 -3 -3 -3 -3 -2 -1 1 12 41 88 107 70 28 6 0 -2 -2 0 8 40 95 
95 40 8 0 -2 -3 -3 -3 -3 -3 -3 -3 -3 -3 -1 5 29 79 107 63 20 3 1 3 9 18 31 45 65 89 106 106 89 65 45 32 21 16 20 29 36 41 48 62 80 92 100 107 107 101 96 90 79 62 47 38 29 19 12 9 7 5 2 0 0 -1 -2 -2 -2 -2 -1 2 19 62 107 79 28 5 -1 -3 -3 -3 -3 -3 -3 -3 -3 -3 -3 -3 -3 -3 -3 -3 -3 -1 3 19 56 100 100 56 19 3 -1 -2 0 8 40 95 
95 40 8 0 -2 -3 -3 -3 -3 -3 -3 -3 -3 -2 0 7 36 90 102 50 16 7 10 21 38 59 81 97 107 105 88 62 39 22 12 6 3 1 2 5 7 9 12 19 29 38 47 62 79 90 96 101 107 107 100 92 80 62 48 41 36 29 19 12 8 5 2 0 0 0 0 6 29 79 107 62 19 2 -2 -3 -3 -3 -3 -3 -3 -3 -3 -3 -3 -3 -3 -3 -3 -3 -3 -2 0 6 28 70 107 88 41 12 1 -1 0 8 40 95 
95 40 8 0 -2 -3 -3 -3 -3 -3 -3 -3 -3 -2 0 9 41 96 99 48 23 24 39 62 88 105 107 97 81 59 38 21 10 3 0 -1 -2 -2 -2 -1 -1 0 0 2 5 8 12 19 29 36 41 48 62 80 92 100 107 107 101 96 90 79 62 47 38 29 19 12 9 8 7 13 39 91 102 49 12 0 -2 -3 -3 -3 -3 -3 -3 -3 -3 -3 -3 -3 -3 -3 -3 -3 -3 -3 -2 0 12 41 87 107 72 31 9 0 0 8 40 95 
95 40 8 0 -2 -3 -3 -3 -3 -3 -3 -3 -3 -2 0 13 49 105 103 61 50 64 88 106 106 89 65 45 31 18 9 3 0 -1 -2 -3 -3 -3 -3 -3 -2 -2 -2 -2 -1 0 0 2 5 7 9 12 19 29 38 47 62 79 90 96 101 107 107 100 92 80 62 48 41 36 31 31 53 101 99 42 9 0 -2 -3 -3 -3 -3 -3 -3 -3 -3 -3 -3 -3 -3 -3 -3 -3 -3 -3 -3 -1 3 19 55 99 103 65 26 6 1 9 40 95 
95 40 8 0 -2 -3 -3 -3 -3 -3 -3 -3 -3 -1 3 22 67 122 119 94 96 107 106 88 62 39 22 12 6 2 0 -1 -2 -3 -3 -3 -3 -3 -3 -3 -3 -3 -3 -3 -3 -2 -2 -2 -1 -1 0 0 2 5 8 12 19 29 36 41 48 62 80 92 100 107 107 101 96 90 81 73 85 119 100 40 8 0 -2 -3 -3 -3 -3 -3 -3 -3 -3 -3 -3 -3 -3 -3 -3 -3 -3 -3 -3 -2 0 6 26 65 103 99 55 20 6 10 40 95 
95 40 8 0 -2 -3 -3 -3 -3 -3 -3 -3 -2 0 9 39 95 143 138 121 108 88 62 38 21 10 3 0 -1 -2 -2 -3 -3 -3 -3 -3 -3 -3 -3 -3 -3 -3 -3 -3 -3 -3 -3 -3 -3 -2 -2 -2 -2 -1 0 0 2 5 7 9 12 19 29 38 47 62 79 90 96 101 109 115 127 143 103 39 8 0 -2 -3 -3 -3 -3 -3 -3 -3 -3 -3 -3 -3 -3 -3 -3 -3 -3 -3 -3 -3 -2 0 9 31 72 107 88 42 15 13 41 95 
95 40 8 0 -2 -3 -3 -3 -3 -3 -3 -3 -1 3 21 63 116 130 108 84 59 38 21 9 3 0 -1 -2 -3 -3 -3 -3 -3 -3 -3 -3 -3 -3 -3 -3 -3 -3 -3 -3 -3 -3 -3 -3 -3 -3 -3 -3 -3 -3 -2 -2 -2 -1 -1 0 0 2 5 8 12 19 29 36 41 49 64 87 116 141 103 39 8 0 -2 -3 -3 -3 -3 -3 -3 -3 -3 -3 -3 -3 -3 -3 -3 -3 -3 -3 -3 -3 -3 -2 1 12 41 87 107 73 34 21 43 96 
95 40 8 0 -2 -3 -3 -3 -3 -3 -3 -2 0 12 42 90 113 84 51 32 18 9 3 0 -1 -2 -3 -3 -3 -3 -3 -3 -3 -3 -3 -3 -3 -3 -3 -3 -3 -3 -3 -3 -3 -3 -3 -3 -3 -3 -3 -3 -3 -3 -3 -3 -3 -3 -2 -2 -2 -2 -1 0 0 2 5 7 9 13 22 39 73 116 99 39 8 0 -2 -3 -3 -3 -3 -3 -3 -3 -3 -3 -3 -3 -3 -3 -3 -3 -3 -3 -3 -3 -3 -3 -1 3 19 55 99 103 67 38 49 97 
96 40 8 0 -2 -3 -3 -3 -3 -3 -2 0 7 28 71 108 89 44 18 7 2 0 -1 -2 -3 -3 -3 -3 -3 -3 -3 -3 -3 -3 -3 -3 -3 -3 -3 -3 -3 -3 -3 -3 -3 -3 -3 -3 -3 -3 -3 -3 -3 -3 -3 -3 -3 -3 -3 -3 -3 -3 -3 -2 -2 -2 -1 0 0 0 5 17 49 102 96 40 8 0 -2 -3 -3 -3 -3 -3 -3 -3 -3 -3 -3 -3 -3 -3 -3 -3 -3 -3 -3 -3 -3 -3 -2 0 6 26 65 103 101 67 62 101 
96 40 8 0 -2 -3 -3 -3 -3 -3 -1 3 19 56 101 101 57 20 4 0 -2 -2 -3 -3 -3 -3 -3 -3 -3 -3 -3 -3 -3 -3 -3 -3 -3 -3 -3 -3 -3 -3 -3 -3 -3 -3 -3 -3 -3 -3 -3 -3 -3 -3 -3 -3 -3 -3 -3 -3 -3 -3 -3 -3 -3 -3 -3 -2 -2 -2 0 10 42 97 96 40 9 0 -2 -3 -3 -3 -3 -3 -3 -3 -3 -3 -3 -3 -3 -3 -3 -3 -3 -3 -3 -3 -3 -3 -3 -2 0 9 31 72 108 98 82 107 
98 39 8 0 -2 -3 -3 -3 -3 -2 1 12 41 88 107 71 29 7 0 -2 -3 -3 -3 -3 -3 -3 -3 -3 -3 -3 -3 -3 -3 -3 -3 -3 -3 -3 -3 -3 -3 -3 -3 -3 -3 -3 -3 -3 -3 -3 -3 -3 -3 -3 -3 -3 -3 -3 -3 -3 -3 -3 -3 -3 -3 -3 -3 -3 -3 -2 0 9 40 95 98 43 10 0 -2 -3 -3 -3 -3 -3 -3 -3 -3 -3 -3 -3 -3 -3 -3 -3 -3 -3 -3 -3 -3 -3 -3 -3 -2 1 12 41 88 115 108 120 
100 39 8 0 -2 -3 -3 -3 -2 0 9 32 73 108 90 43 13 2 -1 -2 -2 -2 -2 -2 -2 -2 -2 -3 -3 -3 -3 -3 -3 -3 -3 -3 -3 -3 -3 -3 -3 -3 -3 -3 -3 -3 -3 -3 -3 -3 -3 -3 -3 -3 -3 -3 -3 -3 -3 -3 -3 -3 -3 -3 -3 -3 -3 -3 -3 -2 0 10 41 96 106 53 17 3 -1 -2 -3 -3 -3 -3 -3 -3 -3 -3 -3 -3 -3 -3 -3 -3 -3 -3 -3 -3 -3 -3 -3 -3 -3 -1 3 19 56 104 130 136 
102 39 8 0 -2 -3 -3 -2 0 9 29 67 108 108 67 30 12 4 0 0 0 0 0 0 0 0 0 -1 -1 -2 -2 -2 -2 -2 -2 -2 -2 -2 -3 -3 -3 -3 -3 -3 -3 -3 -3 -3 -3 -3 -3 -3 -3 -3 -3 -3 -3 -3 -3 -3 -3 -3 -3 -3 -3 -3 -3 -3 -2 0 4 17 49 104 125 80 36 13 4 0 -1 -2 -3 -3 -3 -3 -3 -3 -3 -3 -3 -3 -3 -3 -3 -3 -3 -3 -3 -3 -3 -3 -3 -2 0 6 28 72 123 146 
103 39 8 0 -2 -3 -2 0 9 29 67 113 130 103 67 45 31 20 13 10 9 8 8 8 8 8 8 7 5 2 0 0 0 0 0 0 0 0 -1 -1 -2 -2 -2 -2 -2 -2 -2 -2 -2 -2 -3 -3 -3 -3 -3 -3 -3 -3 -3 -3 -3 -3 -3 -3 -3 -3 -2 -1 0 7 19 42 77 122 146 120 75 42 22 9 2 0 -2 -3 -3 -3 -3 -3 -3 -3 -3 -3 -3 -3 -3 -3 -3 -3 -3 -3 -3 -3 -3 -3 -2 0 12 41 96 140 
100 39 8 0 -2 -2 0 9 29 67 114 144 140 120 103 92 80 62 49 42 40 40 40 40 40 39 38 35 28 19 12 10 9 8 8 8 8 8 7 5 2 0 0 0 0 0 0 0 0 0 -1 -1 -2 -2 -2 -2 -2 -2 -2 -2 -2 -3 -3 -3 -2 -1 0 3 12 28 56 88 111 122 124 123 113 90 62 38 18 6 0 -1 -2 -3 -3 -3 -3 -3 -3 -3 -3 -3 -3 -3 -3 -3 -3 -3 -3 -3 -3 -3 -3 -1 4 22 67 122 
97 39 8 0 -1 0 9 30 66 106 122 115 106 100 99 102 107 107 101 97 96 95 95 95 95 95 94 89 79 62 49 42 40 40 40 40 39 38 35 28 19 12 10 9 8 8 8 8 8 8 7 5 2 0 0 0 0 0 0 0 0 -1 -1 -1 0 3 9 21 42 71 100 108 91 70 60 70 90 106 106 86 56 28 12 3 0 -1 -2 -3 -3 -3 -3 -3 -3 -3 -3 -3 -3 -3 -3 -3 -3 -3 -3 -3 -3 -2 0 13 50 106 
96 40 9 1 2 10 30 66 103 106 77 53 43 41 42 49 62 79 89 94 95 95 95 95 95 96 97 101 107 107 101 97 96 95 95 95 95 94 89 79 62 49 42 40 40 40 40 40 39 38 35 28 19 12 10 9 8 8 8 8 8 7 5 4 8 19 38 62 89 107 100 71 42 24 18 23 39 63 90 107 100 71 42 21 9 2 0 -2 -3 -3 -3 -3 -3 -3 -3 -3 -3 -3 -3 -3 -3 -3 -3 -3 -3 -2 0 10 42 98 
96 40 11 6 13 32 67 102 103 67 33 16 10 9 10 12 19 28 35 38 39 40 40 40 40 40 42 49 62 79 89 94 95 95 95 95 96 97 101 107 107 101 97 96 95 95 95 95 95 94 89 79 62 49 42 40 40 40 40 39 38 36 30 26 34 57 86 106 105 86 56 28 12 4 2 4 10 22 42 71 100 107 89 62 38 18 6 0 -1 -2 -3 -3 -3 -3 -3 -3 -3 -3 -3 -3 -3 -3 -3 -3 -3 -2 0 9 40 96 
96 43 18 22 42 73 103 102 66 30 10 2 0 0 0 0 2 5 7 8 8 8 8 8 8 9 10 12 19 28 35 38 39 40 40 40 40 42 49 62 79 89 94 95 95 95 95 95 96 97 101 107 107 101 97 96 95 95 95 95 94 90 83 76 85 105 108 90 62 38 18 6 0 -1 -2 -1 0 3 12 28 56 86 105 105 86 56 28 12 3 0 -1 -2 -3 -3 -3 -3 -3 -3 -3 -3 -3 -3 -3 -3 -3 -2 0 8 40 95 
98 51 38 58 88 107 99 64 29 9 0 -1 -2 -2 -2 -2 -2 -1 -1 0 0 0 0 0 0 0 0 0 2 5 7 8 8 8 8 8 9 10 12 19 28 35 38 39 40 40 40 40 40 42 49 62 79 89 94 95 95 95 95 96 98 105 119 133 134 112 74 42 22 9 2 0 -2 -3 -3 -3 -2 -1 0 6 18 38 62 89 107 100 71 42 21 9 2 0 -2 -3 -3 -3 -3 -3 -3 -3 -3 -3 -3 -3 -3 -2 0 8 40 96 
105 71 75 101 107 87 55 26 8 0 -2 -3 -3 -3 -3 -3 -3 -3 -3 -2 -2 -2 -2 -2 -2 -2 -2 -2 -2 -1 -1 0 0 0 0 0 0 0 0 2 5 7 8 8 8 8 8 8 9 10 12 19 28 35 38 39 40 40 40 41 44 57 90 135 133 80 36 13 4 0 -1 -2 -3 -3 -3 -3 -3 -3 -2 0 2 9 21 42 71 100 107 89 62 38 18 6 0 -1 -2 -3 -3 -3 -3 -3 -3 -3 -3 -3 -3 -2 0 8 40 96 
120 105 111 104 73 41 19 6 0 -2 -3 -3 -3 -3 -3 -3 -3 -3 -3 -3 -3 -3 -3 -3 -3 -3 -3 -3 -3 -3 -3 -2 -2 -2 -2 -2 -2 -2 -2 -2 -1 -1 0 0 0 0 0 0 0 0 0 2 5 7 8 8 8 8 8 9 12 23 57 112 112 54 17 3 -1 -2 -3 -3 -3 -3 -3 -3 -3 -3 -3 -2 -1 0 3 12 28 56 86 105 105 86 56 28 12 3 0 -1 -2 -3 -3 -3 -3 -3 -3 -3 -3 -2 0 8 39 98 
140 131 107 67 32 12 3 0 -2 -3 -3 -3 -3 -3 -3 -3 -3 -3 -3 -3 -3 -3 -3 -3 -3 -3 -3 -3 -3 -3 -3 -3 -3 -3 -3 -3 -3 -3 -3 -3 -3 -3 -2 -2 -2 -2 -2 -2 -2 -2 -2 -2 -1 -1 0 0 0 0 0 0 2 12 44 100 100 43 10 0 -2 -3 -3 -3 -3 -3 -3 -3 -3 -3 -3 -3 -3 -2 -1 0 6 18 38 62 89 107 100 71 42 22 10 3 0 -1 -2 -3 -3 -3 -3 -3 -3 -2 0 8 39 102 
145 117 68 30 9 1 -1 -2 -3 -3 -3 -3 -3 -3 -3 -3 -3 -3 -3 -3 -3 -3 -3 -3 -3 -3 -3 -3 -3 -3 -3 -3 -3 -3 -3 -3 -3 -3 -3 -3 -3 -3 -3 -3 -3 -3 -3 -3 -3 -3 -3 -3 -3 -3 -2 -2 -2 -2 -2 -2 0 9 41 96 96 40 9 0 -2 -3 -3 -3 -3 -3 -3 -3 -3 -3 -3 -3 -3 -3 -3 -2 0 2 9 21 42 71 100 107 90 63 39 21 9 2 0 -2 -3 -3 -3 -3 -3 -2 0 8 39 103 
127 79 33 10 0 -2 -3 -3 -3 -3 -3 -3 -3 -3 -3 -3 -3 -3 -3 -3 -3 -3 -3 -3 -3 -3 -3 -3 -3 -3 -3 -3 -3 -3 -3 -3 -3 -3 -3 -3 -3 -3 -3 -3 -3 -3 -3 -3 -3 -3 -3 -3 -3 -3 -3 -3 -3 -3 -3 -2 0 8 40 95 95 40 8 0 -2 -3 -3 -3 -3 -3 -3 -3 -3 -3 -3 -3 -3 -3 -3 -3 -2 -1 0 3 12 28 56 86 105 106 88 62 37 18 6 0 -1 -2 -2 -3 -3 -2 0 8 39 101 
108 53 16 2 -1 -3 -3 -3 -3 -3 -3 -3 -3 -3 -3 -3 -3 -3 -3 -3 -3 -3 -3 -3 -3 -3 -3 -3 -3 -3 -3 -3 -3 -3 -3 -3 -3 -3 -3 -3 -3 -3 -3 -3 -3 -3 -3 -3 -3 -3 -3 -3 -3 -3 -3 -3 -3 -3 -3 -2 0 8 40 95 95 40 8 0 -2 -3 -3 -3 -3 -3 -3 -3 -3 -3 -3 -3 -3 -3 -3 -3 -3 -3 -2 -1 0 6 18 38 62 88 106 105 86 56 28 12 4 0 0 -1 -2 -2 0 9 40 98 
99 43 10 0 -2 -3 -3 -3 -3 -3 -3 -3 -3 -3 -3 -3 -3 -3 -3 -3 -3 -3 -3 -3 -3 -3 -3 -3 -3 -3 -3 -3 -3 -3 -3 -3 -3 -3 -3 -3 -3 -3 -3 -3 -3 -3 -3 -3 -3 -3 -3 -3 -3 -3 -3 -3 -3 -3 -3 -2 0 8 40 95 95 40 8 0 -2 -3 -3 -3 -3 -3 -3 -3 -3 -3 -3 -3 -3 -3 -3 -3 -3 -3 -3 -3 -2 0 2 9 21 39 63 90 108 101 71 42 22 13 8 5 2 0 1 10 41 96 
96 40 9 0 -2 -3 -3 -3 -3 -3 -3 -3 -3 -3 -3 -3 -3 -3 -3 -3 -3 -3 -3 -3 -3 -3 -3 -3 -3 -3 -3 -3 -3 -3 -3 -3 -3 -3 -3 -3 -3 -3 -3 -3 -3 -3 -3 -3 -3 -3 -3 -3 -3 -3 -3 -3 -3 -3 -3 -2 0 8 40 95 95 40 8 0 -2 -3 -3 -3 -3 -3 -3 -3 -3 -3 -3 -3 -3 -3 -3 -3 -3 -3 -3 -3 -3 -2 -1 0 4 11 24 45 77 110 117 96 67 48 38 29 19 13 11 17 45 98 
97 40 9 0 -2 -2 -2 -3 -3 -3 -3 -3 -3 -3 -3 -3 -3 -3 -3 -3 -3 -3 -3 -3 -3 -3 -3 -3 -3 -3 -3 -3 -3 -3 -3 -3 -3 -3 -3 -3 -3 -3 -3 -3 -3 -3 -3 -3 -3 -3 -3 -3 -3 -3 -3 -3 -3 -3 -3 -2 0 8 40 95 95 40 8 0 -2 -3 -3 -3 -3 -3 -3 -3 -3 -3 -3 -3 -3 -3 -3 -3 -3 -3 -3 -3 -3 -2 -2 -1 1 5 13 27 54 95 133 143 125 105 93 80 62 48 41 41 61 105 
101 42 11 1 0 0 0 -1 -1 -2 -2 -2 -2 -2 -2 -3 -3 -3 -3 -3 -3 -3 -3 -3 -3 -3 -3 -3 -3 -3 -3 -3 -3 -3 -3 -3 -3 -3 -3 -3 -3 -3 -3 -3 -3 -3 -3 -3 -3 -3 -3 -3 -3 -3 -3 -3 -3 -3 -3 -2 0 8 40 95 95 40 8 0 -2 -3 -3 -3 -3 -3 -3 -3 -3 -3 -3 -3 -3 -3 -3 -3 -3 -3 -3 -2 -2 -1 0 3 9 19 33 50 75 107 130 128 113 103 103 108 107 100 94 90 98 124 
111 50 20 11 9 8 8 7 5 2 0 0 0 0 0 -1 -1 -2 -2 -2 -2 -2 -2 -2 -3 -3 -3 -3 -3 -3 -3 -3 -3 -3 -3 -3 -3 -3 -3 -3 -3 -3 -3 -3 -3 -3 -3 -3 -3 -3 -3 -3 -3 -3 -3 -3 -3 -3 -3 -2 0 8 40 95 95 40 8 0 -2 -3 -3 -3 -3 -3 -3 -3 -3 -3 -3 -3 -3 -3 -3 -3 -3 -2 -1 0 2 6 12 22 38 59 81 98 109 108 91 67 50 45 49 63 80 92 102 114 132 147 
127 77 50 42 40 39 38 35 28 19 12 10 9 8 8 7 5 2 0 0 0 0 0 0 -1 -1 -2 -2 -2 -2 -2 -2 -3 -3 -3 -3 -3 -3 -3 -3 -3 -3 -3 -3 -3 -3 -3 -3 -3 -3 -3 -3 -3 -3 -3 -3 -3 -3 -3 -2 0 8 40 95 95 40 8 0 -2 -3 -3 -3 -3 -3 -3 -3 -3 -3 -3 -3 -3 -3 -2 -2 -1 0 3 9 18 31 45 65 88 105 107 97 81 59 38 22 13 11 13 19 29 38 49 70 107 144 
147 122 103 97 95 95 94 89 79 62 49 42 40 39 38 35 28 19 12 10 9 8 8 8 7 5 2 0 0 0 0 0 -1 -1 -2 -2 -2 -2 -2 -2 -2 -3 -3 -3 -3 -3 -3 -3 -3 -3 -3 -3 -3 -3 -3 -3 -3 -3 -3 -2 0 8 40 95 95 40 8 0 -2 -3 -3 -3 -3 -3 -3 -3 -3 -3 -3 -3 -2 -1 0 2 6 12 22 38 59 81 97 107 105 88 65 45 31 18 9 3 0 0 0 2 5 9 14 30 66 124 
144 122 103 97 96 96 97 101 107 107 101 97 96 95 94 89 79 62 49 42 40 40 39 38 35 28 19 12 10 9 8 8 7 5 2 0 0 0 0 0 0 -1 -1 -2 -2 -2 -2 -2 -2 -3 -3 -3 -3 -3 -3 -3 -3 -3 -3 -2 0 8 40 95 95 40 8 0 -2 -3 -3 -3 -3 -3 -3 -3 -3 -3 -2 -1 0 3 9 18 31 45 65 88 105 107 97 81 59 38 22 12 6 2 0 -1 -2 -2 -2 -2 -1 0 2 14 47 109 
118 77 50 42 40 40 42 49 62 79 89 94 95 96 97 101 107 107 101 97 96 95 95 94 89 79 62 49 42 40 39 38 35 28 19 12 10 9 8 8 8 7 5 2 0 0 0 0 0 -1 -1 -2 -2 -2 -2 -2 -2 -2 -2 -2 0 8 40 95 95 40 8 0 -2 -3 -3 -3 -3 -3 -3 -2 -2 -1 0 3 10 21 38 59 81 97 107 105 88 65 45 31 18 9 3 0 -1 -2 -2 -3 -3 -3 -3 -3 -3 -2 0 9 41 100 
102 50 20 11 9 9 10 12 19 28 35 38 39 40 42 49 62 79 89 94 95 95 96 97 101 107 107 101 97 96 95 94 89 79 62 49 42 40 40 39 38 35 28 19 12 10 9 8 8 7 5 2 0 0 0 0 0 0 -1 -1 0 9 40 96 95 40 8 0 -2 -3 -3 -3 -3 -2 -1 0 2 6 12 22 39 62 88 105 107 97 81 59 38 22 12 6 2 0 -1 -2 -3 -3 -3 -3 -3 -3 -3 -3 -3 -2 0 8 40 97 
97 42 11 1 0 0 0 0 2 5 7 8 8 9 10 12 19 28 35 38 39 40 40 42 49 62 79 89 94 95 96 97 101 107 107 101 97 96 95 95 94 89 79 62 49 42 40 39 38 35 28 19 12 10 9 8 8 8 7 5 5 12 42 97 96 40 9 0 -2 -3 -2 -2 -1 0 3 9 18 31 45 65 89 106 106 89 65 45 31 18 9 3 0 -1 -2 -2 -3 -3 -3 -3 -3 -3 -3 -3 -3 -3 -3 -2 0 8 40 95 
95 40 9 0 -2 -2 -2 -2 -2 -1 -1 0 0 0 0 0 2 5 7 8 8 8 9 10 12 19 28 35 38 39 40 42 49 62 79 89 94 95 95 96 97 101 107 107 101 97 96 95 94 89 79 62 49 42 40 40 39 38 35 29 22 24 52 103 100 43 10 0 -1 -1 0 2 6 12 22 38 59 81 97 107 105 88 62 39 22 12 6 2 0 -1 -2 -3 -3 -3 -3 -3 -3 -3 -3 -3 -3 -3 -3 -3 -3 -2 0 8 40 95 
95 40 8 0 -2 -3 -3 -3 -3 -3 -3 -2 -2 -2 -2 -2 -2 -1 -1 0 0 0 0 0 0 2 5 7 8 8 9 10 12 19 28 35 38 39 40 40 42 49 62 79 89 94 95 96 97 101 107 107 101 97 96 95 95 94 89 79 65 59 79 121 113 54 17 4 1 3 9 18 31 45 65 88 105 107 97 81 59 38 21 10 3 0 -1 -2 -2 -3 -3 -3 -3 -3 -3 -3 -3 -3 -3 -3 -3 -3 -3 -3 -3 -2 0 8 40 95 
95 40 8 0 -2 -3 -3 -3 -3 -3 -3 -3 -3 -3 -3 -3 -3 -3 -3 -2 -2 -2 -2 -2 -2 -2 -1 -1 0 0 0 0 0 2 5 7 8 8 8 9 10 12 19 28 35 38 39 40 42 49 62 79 89 94 95 95 96 97 101 107 108 108 120 144 133 80 37 18 15 22 38 59 81 97 107 105 88 65 45 31 18 9 3 0 -1 -2 -3 -3 -3 -3 -3 -3 -3 -3 -3 -3 -3 -3 -3 -3 -3 -3 -3 -3 -3 -2 0 8 40 95 
95 40 8 0 -2 -3 -3 -3 -3 -3 -3 -3 -3 -3 -3 -3 -3 -3 -3 -3 -3 -3 -3 -3 -3 -3 -3 -3 -2 -2 -2 -2 -2 -2 -1 -1 0 0 0 0 0 0 2 5 7 8 8 9 10 12 19 28 35 38 39 40 40 42 49 62 79 91 101 116 127 113 80 57 53 67 89 105 107 97 81 59 38 22 12 6 2 0 -1 -2 -3 -3 -3 -3 -3 -3 -3 -3 -3 -3 -3 -3 -3 -3 -3 -3 -3 -3 -3 -3 -3 -2 0 8 40 95 
95 40 8 0 -2 -3 -3 -3 -3 -3 -3 -3 -3 -3 -3 -3 -3 -3 -3 -3 -3 -3 -3 -3 -3 -3 -3 -3 -3 -3 -3 -3 -3 -3 -3 -3 -2 -2 -2 -2 -2 -2 -2 -1 -1 0 0 0 0 0 2 5 7 8 8 8 9 10 12 19 29 36 42 54 79 113 128 119 110 110 106 88 65 45 31 18 9 3 0 -1 -2 -2 -3 -3 -3 -3 -3 -3 -3 -3 -3 -3 -3 -3 -3 -3 -3 -3 -3 -3 -3 -3 -3 -3 -3 -2 0 8 40 95 
95 40 8 0 -2 -3 -3 -3 -3 -3 -3 -3 -3 -3 -3 -3 -3 -3 -3 -3 -3 -3 -3 -3 -3 -3 -3 -3 -3 -3 -3 -3 -3 -3 -3 -3 -3 -3 -3 -3 -3 -3 -3 -3 -2 -2 -2 -2 -2 -2 -2 -1 -1 0 0 0 0 0 0 2 5 7 10 17 37 80 133 143 114 86 60 38 22 12 6 2 0 -1 -2 -2 -3 -3 -3 -3 -3 -3 -3 -3 -3 -3 -3 -3 -3 -3 -3 -3 -3 -3 -3 -3 -3 -3 -3 -3 -3 -2 0 8 40 95 
96 40 9 0 -2 -2 -2 -2 -2 -2 -2 -2 -2 -2 -2 -2 -2 -2 -2 -2 -2 -2 -2 -2 -2 -2 -2 -2 -2 -2 -2 -2 -2 -2 -2 -2 -2 -2 -2 -2 -2 -2 -2 -2 -2 -2 -2 -2 -2 -2 -2 -2 -2 -2 -2 -2 -2 -2 -2 -1 -1 0 0 4 17 54 113 120 73 39 21 10 4 0 0 -1 -2 -2 -2 -2 -2 -2 -2 -2 -2 -2 -2 -2 -2 -2 -2 -2 -2 -2 -2 -2 -2 -2 -2 -2 -2 -2 -2 -2 -2 -2 0 9 40 96 
97 42 11 1 0 0 0 0 0 0 0 0 0 0 0 0 0 0 0 0 0 0 0 0 0 0 0 0 0 0 0 0 0 0 0 0 0 0 0 0 0 0 0 0 0 0 0 0 0 0 0 0 0 0 0 0 0 0 0 0 0 0 0 2 13 46 102 104 51 19 7 2 0 0 0 0 0 0 0 0 0 0 0 0 0 0 0 0 0 0 0 0 0 0 0 0 0 0 0 0 0 0 0 0 0 0 1 11 42 97 
103 50 20 11 9 8 8 8 8 8 8 8 8 8 8 8 8 8 8 8 8 8 8 8 8 8 8 8 8 8 8 8 8 8 8 8 8 8 8 8 8 8 8 8 8 8 8 8 8 8 8 8 8 8 8 8 8 8 8 8 8 8 9 11 21 51 104 105 53 22 12 9 9 8 8 8 8 8 8 8 8 8 8 8 8 8 8 8 8 8 8 8 8 8 8 8 8 8 8 8 8 8 8 8 8 9 11 20 50 103 
123 77 50 42 40 40 40 40 40 40 40 40 40 40 40 40 40 40 40 40 40 40 40 40 40 40 40 40 40 40 40 39 39 39 39 39 40 40 40 40 40 40 40 40 40 40 40 40 39 39 39 39 40 40 40 40 40 40 40 40 40 40 40 42 50 77 122 122 77 51 42 40 40 40 40 40 40 40 40 40 40 40 40 40 40 40 40 40 40 40 39 39 39 39 39 40 40 40 40 40 40 40 39 39 39 40 42 50 77 123 
154 123 103 97 96 95 95 95 95 95 95 95 95 95 95 95 95 95 95 95 95 95 95 95 95 95 95 95 95 95 96 98 101 103 101 98 96 95 95 95 95 95 95 95 95 95 95 96 99 103 103 99 96 95 95 95 95 95 95 95 95 95 95 97 102 117 142 142 117 102 97 95 95 95 95 95 95 95 95 95 95 95 95 95 95 95 95 95 95 96 98 101 103 101 98 96 95 95 95 95 95 96 97 101 104 102 100 104 123 154 
