P2
110 110
255
152 126 106 98 96 95 95 95 95 95 95 95 95 95 95 95 95 95 95 95 95 95 95 95 95 95 95 95 96 99 107 121 137 138 123 108 100 96 95 95 95 95 95 95 95 96 98 105 120 138 137 119 104 98 96 95 95 95 95 95 95 95 95 96 97 99 102 102 99 97 96 95 95 95 95 95 95 95 95 95 95 95 95 95 95 95 95 96 98 103 116 134 139 126 109 100 97 96 95 96 97 102 113 132 140 128 113 111 127 152 
126 89 63 52 49 48 48 48 48 48 48 48 48 48 48 48 48 48 48 48 48 48 48 48 48 48 48 49 51 58 76 107 130 119 87 64 53 49 48 48 48 48 48 48 48 49 53 65 93 128 125 89 63 52 49 48 48 48 48 48 48 48 48 47 47 47 46 46 47 47 47 48 48 48 48 48 48 48 48 48 48 48 48 48 48 48 48 49 53 65 92 125 126 94 67 54 49 48 48 48 51 60 84 119 129 100 73 69 91 126 
106 63 32 19 16 15 15 15 15 15 15 15 15 15 15 15 15 15 15 15 15 15 15 15 15 15 15 17 22 36 66 103 113 81 46 26 18 16 15 15 15 15 15 15 15 17 22 38 74 116 109 62 31 19 16 15 15 15 15 15 15 15 15 15 14 14 14 14 14 14 15 15 15 15 15 15 15 15 15 15 15 15 15 15 15 15 15 17 24 43 81 114 98 57 30 19 16 15 15 16 20 32 63 105 109 68 39 37 64 107 
98 52 19 7 3 2 2 2 2 2 2 2 2 2 2 2 2 2 2 2 2 2 2 2 2 2 3 7 17 41 80 107 90 50 21 8 4 3 2 2 2 2 2 2 3 5 13 34 77 120 102 51 19 7 3 2 2 2 2 2 2 2 2 2 2 2 2 2 2 2 2 2 2 2 2 2 2 2 2 2 2 2 2 2 2 2 3 6 17 43 87 107 73 33 12 5 3 2 2 4 9 24 60 103 94 50 23 24 53 99 
96 49 16 3 0 0 -1 -1 -1 -1 -1 -1 -1 -1 -1 -1 -1 -1 -1 -1 -1 -1 -1 -1 0 0 2 9 28 63 99 99 62 27 9 2 0 0 -1 -1 -1 -1 -1 0 0 4 17 46 96 131 102 47 15 3 0 0 -1 -1 -1 -1 -1 -1 -1 -1 -1 -1 -1 -1 -1 -1 -1 -1 -1 -1 -1 -1 -1 -1 -1 -1 -1 -1 -1 -1 -1 0 0 5 20 54 97 97 54 20 5 0 0 0 0 1 8 28 69 105 82 38 16 19 49 96 
95 48 15 2 0 -1 -1 -2 -2 -2 -2 -2 -2 -2 -2 -2 -2 -2 -2 -2 -2 -2 -1 -1 -1 0 5 19 48 89 104 75 36 13 2 0 -1 -1 -1 -2 -2 -1 -1 -1 1 8 28 67 117 139 103 47 15 2 0 -1 -1 -2 -2 -2 -2 -2 -2 -2 -2 -2 -2 -2 -2 -2 -2 -2 -2 -2 -2 -2 -2 -2 -2 -2 -2 -2 -2 -1 -1 -1 1 9 30 71 104 83 38 12 2 0 -1 -1 -1 1 10 36 82 104 68 28 12 17 48 95 
95 48 15 2 -1 -1 -2 -2 -2 -2 -2 -2 -2 -2 -2 -2 -2 -2 -2 -2 -2 -2 -2 -1 0 2 13 36 75 104 88 48 19 5 0 -1 -2 -2 -2 -2 -2 -2 -1 0 3 16 46 92 129 137 104 50 16 3 0 -1 -2 -2 -2 -2 -2 -2 -2 -2 -2 -2 -2 -2 -2 -2 -2 -2 -2 -2 -2 -2 -2 -2 -2 -2 -2 -2 -2 -2 -1 0 3 15 46 89 102 64 26 6 0 -1 -2 -1 -1 2 14 45 92 99 56 21 9 16 48 95 
95 48 15 2 -1 -2 -2 -2 -2 -2 -2 -2 -2 -2 -2 -2 -2 -2 -2 -2 -2 -2 -2 -1 1 8 27 62 99 99 62 27 8 1 -1 -2 -2 -2 -2 -2 -2 -2 -1 1 9 30 68 109 123 126 107 57 20 4 0 -1 -2 -2 -2 -2 -2 -2 -2 -2 -2 -2 -2 -2 -2 -2 -2 -2 -2 -2 -2 -2 -2 -2 -2 -2 -2 -2 -2 -2 -1 0 6 26 64 102 89 46 15 3 0 -1 -2 -1 0 4 19 56 99 92 46 15 7 16 48 95 
95 48 15 2 -1 -2 -2 -2 -2 -2 -2 -2 -2 -2 -2 -2 -2 -2 -2 -2 -2 -2 -1 0 5 19 48 88 104 75 36 13 2 0 -1 -2 -2 -2 -2 -2 -2 -1 0 5 19 50 92 111 102 108 109 68 26 6 0 -1 -2 -2 -2 -2 -2 -2 -2 -2 -2 -2 -2 -2 -2 -2 -2 -2 -2 -2 -2 -2 -2 -2 -2 -2 -2 -2 -2 -2 -1 1 12 38 83 104 71 30 8 0 -1 -2 -2 -1 0 7 27 68 104 81 36 11 6 16 48 95 
95 48 15 2 -1 -2 -2 -2 -2 -2 -2 -2 -2 -2 -2 -2 -2 -2 -2 -2 -2 -1 0 2 13 36 75 104 88 48 19 5 0 -1 -2 -2 -2 -2 -2 -2 -1 0 2 12 36 76 105 95 74 86 108 80 35 10 1 -1 -2 -2 -2 -2 -2 -2 -2 -2 -2 -2 -2 -2 -2 -2 -2 -2 -2 -2 -2 -2 -2 -2 -2 -2 -2 -2 -2 -1 0 4 19 53 96 96 53 19 4 0 -1 -2 -2 -1 1 10 36 81 104 68 27 8 4 15 48 95 
95 48 15 2 -1 -1 -2 -2 -2 -2 -2 -2 -2 -2 -2 -2 -2 -2 -2 -2 -2 -1 1 8 27 62 99 99 62 27 8 1 -1 -2 -2 -2 -2 -2 -2 -2 -1 0 7 26 61 99 100 68 49 67 103 89 41 12 1 -1 -2 -2 -2 -2 -2 -2 -2 -2 -2 -2 -2 -2 -2 -2 -2 -2 -2 -2 -2 -2 -2 -2 -2 -2 -2 -2 -2 -1 0 8 30 71 104 83 38 12 1 -1 -2 -2 -1 -1 2 14 45 92 99 56 20 5 4 15 48 95 
96 49 16 2 0 -1 -2 -2 -2 -2 -2 -2 -2 -2 -2 -2 -2 -2 -2 -2 -1 0 5 19 48 88 104 75 36 13 2 0 -1 -2 -2 -2 -2 -2 -2 -1 0 3 16 45 86 104 77 42 32 56 98 93 46 14 2 -1 -2 -2 -2 -2 -2 -2 -2 -2 -2 -2 -2 -2 -2 -2 -2 -2 -2 -2 -2 -2 -2 -2 -2 -2 -2 -2 -1 0 3 15 46 89 102 64 26 6 0 -1 -2 -2 -1 0 4 19 56 99 92 45 15 3 3 15 48 95 
100 53 18 4 0 -1 -2 -2 -2 -2 -2 -2 -2 -2 -2 -2 -2 -2 -2 -1 0 2 13 36 75 104 88 48 19 5 0 -1 -2 -2 -2 -2 -2 -2 -2 -1 0 8 28 67 102 91 51 24 22 50 96 95 48 15 2 -1 -1 -2 -2 -2 -2 -2 -2 -2 -2 -2 -2 -2 -2 -2 -2 -2 -2 -2 -2 -2 -2 -2 -2 -2 -2 -2 -1 0 6 26 64 102 89 46 15 3 0 -1 -2 -2 -1 0 7 27 68 104 81 36 10 2 3 15 47 96 
108 63 25 7 0 -1 -1 -2 -2 -2 -2 -2 -2 -2 -2 -2 -2 -2 -2 -1 1 8 27 62 99 99 62 27 8 1 -1 -2 -2 -2 -2 -2 -2 -2 -1 0 3 16 46 89 103 69 31 13 17 46 93 97 51 17 3 0 -1 -2 -2 -2 -2 -2 -2 -2 -2 -2 -2 -2 -2 -2 -2 -2 -2 -2 -2 -2 -2 -2 -2 -2 -2 -2 -1 1 12 38 83 104 71 30 8 0 -1 -2 -2 -2 -1 1 10 36 81 104 68 27 7 1 3 14 47 98 
123 86 42 17 4 0 -1 -2 -2 -2 -2 -2 -2 -2 -2 -2 -2 -2 -1 0 5 19 48 88 104 75 36 13 2 0 -1 -2 -2 -2 -2 -2 -2 -2 -1 1 9 30 68 103 89 47 17 7 14 42 89 101 58 20 4 0 -1 -2 -2 -2 -2 -2 -2 -2 -2 -2 -2 -2 -2 -2 -2 -2 -2 -2 -2 -2 -2 -2 -2 -2 -2 -1 0 4 19 53 96 96 53 19 4 0 -1 -2 -2 -1 -1 2 14 45 92 99 56 19 4 0 2 14 46 100 
137 116 73 37 14 3 0 -1 -2 -2 -2 -2 -2 -2 -2 -2 -2 -1 0 2 13 36 75 104 88 48 19 5 0 -1 -2 -2 -2 -2 -2 -2 -2 -1 0 5 19 50 91 102 67 29 9 4 10 35 80 104 68 27 7 0 -1 -2 -2 -2 -2 -2 -2 -2 -2 -2 -2 -2 -2 -2 -2 -2 -2 -2 -2 -2 -2 -2 -2 -2 -2 -1 0 8 30 71 104 83 38 12 1 -1 -2 -2 -2 -1 0 4 19 56 99 92 45 14 2 0 2 14 46 102 
138 131 106 68 33 12 2 0 -1 -2 -2 -2 -2 -2 -2 -2 -2 -1 1 8 27 62 99 99 62 27 8 1 -1 -2 -2 -2 -2 -2 -2 -2 -1 0 2 12 36 76 104 86 45 16 4 1 7 27 68 104 80 35 10 1 -1 -2 -2 -2 -2 -2 -2 -2 -2 -2 -2 -2 -2 -2 -2 -2 -2 -2 -2 -2 -2 -2 -2 -2 -1 0 3 15 46 89 102 64 26 6 0 -1 -2 -2 -2 -1 0 7 27 68 104 81 36 10 1 0 2 14 46 101 
124 116 114 98 60 26 8 1 -1 -1 -2 -2 -2 -2 -2 -2 -1 0 5 19 48 88 104 75 36 13 2 0 -1 -2 -2 -2 -2 -2 -2 -2 -1 0 7 26 61 98 98 61 26 7 1 0 4 20 58 101 89 42 12 1 -1 -2 -2 -2 -2 -2 -2 -2 -2 -2 -2 -2 -2 -2 -2 -2 -2 -2 -2 -2 -2 -2 -2 -2 -1 0 6 26 64 102 89 46 15 3 0 -1 -2 -2 -2 -1 1 10 36 81 104 68 27 7 0 0 2 14 47 99 
110 90 94 107 88 49 20 6 0 -1 -1 -2 -2 -2 -2 -1 0 2 13 36 75 104 88 48 19 5 0 -1 -2 -2 -2 -2 -2 -2 -2 -1 0 3 16 45 86 104 76 36 12 2 0 0 3 17 51 97 93 46 14 2 -1 -2 -2 -2 -2 -2 -2 -2 -2 -2 -2 -2 -2 -2 -2 -2 -2 -2 -2 -2 -2 -2 -2 -2 -1 1 12 38 83 104 71 30 8 0 -1 -2 -2 -2 -1 -1 2 14 45 92 99 56 19 4 0 0 2 15 47 97 
102 70 66 92 105 78 41 17 5 0 -1 -1 -2 -2 -2 -1 1 8 27 62 99 99 62 27 8 1 -1 -2 -2 -2 -2 -2 -2 -2 -2 -1 0 8 28 67 102 91 50 19 5 0 -1 0 2 15 48 95 95 48 15 2 -1 -1 -2 -2 -2 -2 -2 -2 -2 -2 -2 -2 -2 -2 -2 -2 -2 -2 -2 -2 -2 -2 -2 -1 0 4 19 53 96 96 53 19 4 0 -1 -2 -2 -2 -1 0 4 19 56 99 92 45 14 2 0 0 2 15 47 96 
98 58 44 65 97 102 72 38 16 5 0 -1 -1 -2 -1 0 5 19 48 88 104 75 36 13 2 0 -1 -2 -2 -2 -2 -2 -2 -2 -1 0 3 16 46 89 103 68 30 9 1 -1 -1 -1 2 14 46 93 97 51 17 3 0 -1 -2 -2 -2 -2 -2 -2 -2 -2 -2 -2 -2 -2 -2 -2 -2 -2 -2 -2 -2 -2 -2 -1 0 8 30 71 104 83 38 12 1 -1 -2 -2 -2 -2 -1 0 7 27 68 104 81 36 10 1 -1 0 2 15 48 95 
96 52 29 38 69 100 100 71 38 16 5 0 -1 -1 0 2 13 36 75 104 88 48 19 5 0 -1 -2 -2 -2 -2 -2 -2 -2 -2 -1 1 9 30 68 103 89 46 16 3 0 -1 -1 -1 1 12 42 89 101 58 20 4 0 -1 -2 -2 -2 -2 -2 -2 -2 -2 -2 -2 -2 -2 -2 -2 -2 -2 -2 -2 -2 -2 -1 0 3 15 46 89 102 64 26 6 0 -1 -2 -2 -2 -2 -1 1 10 36 81 104 68 27 7 0 -1 -1 2 15 48 95 
96 50 21 19 38 71 100 100 71 38 16 5 0 0 1 8 27 62 99 99 62 27 8 1 -1 -2 -2 -2 -2 -2 -2 -2 -2 -1 0 5 19 50 91 102 67 28 8 0 -1 -2 -2 -1 1 10 35 80 104 68 27 7 0 -1 -2 -2 -2 -2 -2 -2 -2 -2 -2 -2 -2 -2 -2 -2 -2 -2 -2 -2 -2 -2 -1 0 6 26 64 102 89 46 15 3 0 -1 -2 -2 -2 -1 -1 2 14 45 92 99 56 19 4 0 -1 -1 2 15 48 95 
95 48 17 9 17 38 71 100 100 71 38 16 5 2 6 19 48 88 104 75 36 13 2 0 -1 -2 -2 -2 -2 -2 -2 -2 -1 0 2 12 36 76 104 86 45 16 3 0 -1 -2 -2 -1 0 6 27 68 104 80 35 10 1 -1 -2 -2 -2 -2 -2 -2 -2 -2 -2 -2 -2 -2 -2 -2 -2 -2 -2 -2 -2 -2 -1 1 12 38 83 104 71 30 8 0 -1 -2 -2 -2 -2 -1 0 4 19 56 99 92 45 14 2 -1 -1 -1 2 15 48 95 
95 48 15 5 6 16 38 71 100 100 71 38 17 10 15 37 75 104 88 48 19 5 0 -1 -2 -2 -2 -2 -2 -2 -2 -2 -1 0 7 26 61 98 98 61 26 7 0 -1 -2 -2 -2 -1 0 4 20 58 101 89 42 12 1 -1 -2 -2 -2 -2 -2 -2 -2 -2 -2 -2 -2 -2 -2 -2 -2 -2 -2 -2 -2 -1 0 4 19 53 96 96 53 19 4 0 -1 -2 -2 -2 -2 -1 0 7 27 68 104 81 36 10 1 -1 -1 -1 2 15 48 95 
95 48 15 3 1 5 16 38 71 100 100 72 41 27 34 64 99 99 62 27 8 1 -1 -2 -2 -2 -2 -2 -2 -2 -2 -1 0 3 16 45 86 104 76 36 12 2 0 -1 -2 -2 -2 -1 0 3 16 51 97 94 46 14 2 -1 -2 -2 -2 -2 -2 -2 -2 -2 -2 -2 -2 -2 -2 -2 -2 -2 -2 -2 -2 -1 0 8 30 71 104 83 38 12 1 -1 -2 -2 -2 -2 -2 -1 1 10 36 81 104 68 27 7 0 -1 -1 -1 2 15 48 95 
95 48 15 2 0 0 5 16 38 71 100 102 78 59 66 94 105 75 36 13 2 0 -1 -2 -2 -2 -2 -2 -2 -2 -2 -1 0 8 28 67 102 91 50 19 5 0 -1 -2 -2 -2 -2 -2 -1 2 14 46 94 97 51 16 3 0 -1 -2 -2 -2 -2 -2 -2 -2 -2 -2 -2 -2 -2 -2 -2 -2 -2 -2 -1 0 3 15 46 89 102 64 26 6 0 -1 -2 -2 -2 -2 -1 -1 2 14 45 92 99 56 19 4 0 -1 -1 -1 2 15 48 95 
95 48 15 2 0 -1 0 5 16 38 71 102 110 103 106 113 89 48 19 5 0 -1 -2 -2 -2 -2 -2 -2 -2 -2 -1 0 3 16 46 89 103 68 30 9 1 -1 -2 -2 -2 -2 -2 -2 -1 1 12 42 89 101 58 20 4 0 -1 -2 -2 -2 -2 -2 -2 -2 -2 -2 -2 -2 -2 -2 -2 -2 -2 -2 -1 0 6 26 64 102 89 46 15 3 0 -1 -2 -2 -2 -2 -1 0 4 19 56 99 92 45 14 2 -1 -1 -1 -1 2 15 48 95 
95 48 15 2 -1 -1 -1 0 5 16 38 74 111 134 134 107 63 27 8 1 -1 -2 -2 -2 -2 -2 -2 -2 -2 -2 -1 1 9 30 68 103 89 46 16 3 0 -1 -2 -2 -2 -2 -2 -2 -1 1 10 35 80 104 68 27 6 0 -1 -2 -2 -2 -2 -2 -2 -2 -2 -2 -2 -2 -2 -2 -2 -2 -2 -2 -1 1 12 38 83 104 71 30 8 0 -1 -2 -2 -2 -2 -2 -1 0 7 27 68 104 81 36 10 1 -1 -2 -1 -1 2 15 48 95 
95 48 15 2 -1 -1 -1 -1 0 5 17 43 86 129 130 84 39 13 2 0 -1 -2 -2 -2 -2 -2 -2 -2 -2 -1 0 5 19 50 91 102 67 28 8 0 -1 -2 -2 -2 -2 -2 -2 -2 -1 0 7 27 68 104 80 35 10 1 -1 -2 -2 -2 -2 -2 -2 -2 -2 -2 -2 -2 -2 -2 -2 -2 -2 -1 0 4 19 53 96 96 53 19 4 0 -1 -2 -2 -2 -2 -2 -1 1 10 36 81 104 68 27 7 0 -1 -2 -1 -1 2 15 48 95 
95 48 15 2 -1 -1 -2 -1 -1 0 7 24 61 110 114 66 26 7 0 -1 -2 -2 -2 -2 -2 -2 -2 -2 -1 0 2 12 36 76 104 86 45 16 3 0 -1 -2 -2 -2 -2 -2 -2 -2 -1 0 4 20 58 101 89 42 12 1 -1 -2 -2 -2 -2 -2 -2 -2 -2 -2 -2 -2 -2 -2 -2 -2 -2 -1 0 8 30 71 104 83 38 12 1 -1 -2 -2 -2 -2 -2 -1 -1 2 14 45 92 99 56 19 4 0 -1 -2 -1 -1 2 15 48 95 
95 48 15 2 -1 -2 -2 -2 -1 0 3 15 47 95 106 63 23 5 0 -1 -2 -2 -2 -2 -2 -2 -2 -2 -1 0 7 26 61 98 98 61 26 7 0 -1 -2 -2 -2 -2 -2 -2 -2 -2 -1 0 3 17 51 97 93 46 14 2 -1 -2 -2 -2 -2 -2 -2 -2 -2 -2 -2 -2 -2 -2 -2 -2 -1 0 3 15 46 89 102 64 26 6 0 -1 -2 -2 -2 -2 -2 -1 0 4 19 56 99 92 45 14 2 -1 -1 -2 -2 -1 2 15 48 95 
95 48 15 2 -1 -2 -2 -2 -2 -1 1 10 36 82 106 70 28 7 0 -1 -2 -2 -2 -2 -2 -2 -2 -1 0 3 16 45 86 104 76 36 12 2 0 -1 -2 -2 -2 -2 -2 -2 -2 -2 -1 -1 2 15 48 95 95 48 15 2 -1 -1 -2 -2 -2 -2 -2 -2 -2 -2 -2 -2 -2 -2 -2 -2 -1 0 6 26 64 102 89 46 15 3 0 -1 -2 -2 -2 -2 -2 -1 0 7 27 68 104 81 36 10 1 -1 -2 -2 -2 -1 2 15 48 95 
95 48 15 2 -1 -2 -2 -2 -2 -1 0 7 27 69 105 81 35 10 1 -1 -2 -2 -2 -2 -2 -2 -2 -1 0 8 28 67 102 91 50 19 5 0 -1 -2 -2 -2 -2 -2 -2 -2 -2 -2 -2 -1 2 14 46 93 97 51 17 3 0 -1 -2 -2 -2 -2 -2 -2 -2 -2 -2 -2 -2 -2 -2 -2 -1 1 12 38 83 104 71 30 8 0 -1 -2 -2 -2 -2 -2 -2 -1 1 10 36 81 104 68 27 7 0 -1 -2 -2 -2 -1 2 15 48 95 
95 48 15 2 -1 -2 -2 -2 -2 -1 0 4 20 57 100 90 43 13 2 -1 -2 -2 -2 -2 -2 -2 -1 0 3 16 46 89 103 68 30 9 1 -1 -2 -2 -2 -2 -2 -2 -2 -2 -2 -2 -2 -1 1 12 42 89 101 58 20 4 0 -1 -2 -2 -2 -2 -2 -2 -2 -2 -2 -2 -2 -2 -2 -1 0 4 19 53 96 96 53 19 4 0 -1 -2 -2 -2 -2 -2 -1 -1 2 14 45 92 99 56 19 4 0 -1 -2 -2 -1 -1 2 15 49 96 
96 47 15 2 -1 -2 -2 -2 -2 -1 0 3 16 49 95 95 49 16 3 0 -1 -2 -2 -2 -2 -2 -1 1 9 30 68 103 89 46 16 3 0 -1 -2 -2 -2 -2 -2 -2 -2 -2 -2 -2 -2 -1 1 10 35 80 104 68 27 7 0 -1 -2 -2 -2 -2 -2 -2 -2 -2 -2 -2 -2 -2 -2 -1 0 8 30 71 104 83 38 12 1 -1 -2 -2 -2 -2 -2 -2 -1 0 4 19 56 99 92 45 14 2 -1 -1 -2 -2 -1 0 3 17 51 99 
97 47 14 2 -1 -2 -2 -2 -2 -2 -1 2 13 43 90 100 57 20 4 0 -1 -2 -2 -2 -2 -1 0 5 19 50 91 102 67 28 8 0 -1 -2 -2 -2 -2 -2 -2 -2 -2 -2 -2 -2 -2 -1 0 7 27 68 104 80 35 10 1 -1 -2 -2 -2 -2 -2 -2 -2 -2 -2 -2 -2 -2 -1 0 3 15 46 89 102 64 26 6 0 -1 -2 -2 -2 -2 -2 -2 -1 0 7 27 68 104 81 36 10 1 -1 -2 -2 -2 -1 0 5 21 59 105 
99 46 14 2 -1 -2 -2 -2 -2 -2 -1 1 10 35 81 104 68 27 7 0 -1 -2 -2 -2 -1 0 2 12 36 76 104 86 45 16 3 0 -1 -2 -2 -2 -2 -2 -2 -2 -2 -2 -2 -2 -2 -1 0 4 20 58 101 89 42 12 1 -1 -2 -2 -2 -2 -2 -2 -2 -2 -2 -2 -2 -2 -1 0 6 26 64 102 89 46 15 3 0 -1 -2 -2 -2 -2 -2 -2 -1 1 10 36 81 104 68 27 7 0 -1 -2 -2 -1 -1 1 9 31 74 117 
101 46 14 2 -1 -2 -2 -2 -2 -2 -1 0 7 27 68 104 81 35 10 1 -1 -2 -2 -2 -1 0 7 26 61 98 98 61 26 7 0 -1 -2 -2 -2 -2 -2 -2 -2 -2 -2 -2 -2 -2 -2 -1 0 3 17 51 97 93 46 14 2 -1 -2 -2 -2 -2 -2 -2 -2 -2 -2 -2 -2 -2 -1 1 12 38 83 104 71 30 8 0 -1 -2 -2 -2 -2 -2 -2 -1 -1 2 14 45 92 99 56 19 4 0 -1 -2 -2 -1 0 5 19 49 97 131 
102 46 14 2 -1 -2 -2 -2 -2 -2 -1 0 4 20 57 100 90 43 13 2 -1 -2 -2 -1 0 3 16 45 86 104 76 36 12 2 0 -1 -2 -2 -2 -2 -2 -2 -2 -2 -2 -2 -2 -2 -2 -1 -1 2 15 48 95 95 48 15 2 -1 -1 -2 -2 -2 -2 -2 -2 -2 -2 -2 -2 -1 0 4 19 53 96 96 53 19 4 0 -1 -2 -2 -2 -2 -2 -2 -1 0 4 19 56 99 92 45 14 2 -1 -1 -2 -1 0 2 12 36 76 121 139 
101 46 14 2 -1 -2 -2 -2 -2 -2 -1 0 3 16 49 95 95 49 16 3 0 -1 -2 -1 0 8 28 67 102 91 50 19 5 0 -1 -2 -2 -2 -2 -2 -2 -2 -2 -2 -2 -2 -2 -2 -2 -2 -1 2 14 46 93 97 51 17 3 0 -1 -2 -2 -2 -2 -2 -2 -2 -2 -2 -2 -1 0 8 30 71 104 83 38 12 1 -1 -2 -2 -2 -2 -2 -2 -2 -1 0 7 27 68 104 81 36 10 1 -1 -2 -1 -1 1 8 26 62 104 130 135 
99 47 14 2 -1 -2 -2 -2 -2 -2 -2 -1 2 13 43 90 100 57 20 4 0 -1 -1 0 3 16 46 89 103 68 30 9 1 -1 -2 -2 -2 -2 -2 -2 -2 -2 -2 -2 -2 -2 -2 -2 -2 -2 -1 1 12 42 89 101 58 20 4 0 -1 -2 -2 -2 -2 -2 -2 -2 -2 -2 -1 0 3 15 46 89 102 64 26 6 0 -1 -2 -2 -2 -2 -2 -2 -2 -1 1 10 36 81 104 68 27 7 0 -1 -1 -1 0 5 19 48 89 115 118 124 
97 47 15 2 -1 -2 -2 -2 -2 -2 -2 -1 1 10 35 81 104 68 27 7 0 -1 -1 1 9 30 68 103 89 46 16 3 0 -1 -2 -2 -2 -2 -2 -2 -2 -2 -2 -2 -2 -2 -2 -2 -2 -2 -1 1 10 35 81 105 69 28 8 1 0 -1 -1 -1 -1 -1 -2 -2 -2 -2 -1 0 6 26 64 102 89 46 15 3 0 -1 -2 -2 -2 -2 -2 -2 -1 -1 2 14 45 92 99 56 19 4 0 -1 -1 0 2 13 36 75 106 103 96 112 
96 47 15 2 -1 -2 -2 -2 -2 -2 -2 -1 0 7 27 68 104 81 35 10 1 0 0 5 19 50 91 102 67 28 8 0 -1 -2 -2 -2 -2 -2 -2 -2 -2 -2 -2 -2 -2 -2 -2 -2 -2 -2 -1 0 7 28 70 106 84 39 14 5 2 1 0 0 0 -1 -1 -1 -1 -1 0 2 12 38 83 104 71 30 8 0 -1 -2 -2 -2 -2 -2 -2 -2 -1 0 4 19 56 99 92 45 14 2 -1 -1 -1 1 8 27 62 99 102 78 76 104 
96 48 15 2 -1 -2 -2 -2 -2 -2 -2 -1 0 4 20 57 100 90 43 13 2 0 2 12 36 76 104 86 45 16 3 0 -1 -2 -2 -2 -2 -2 -2 -2 -2 -2 -2 -2 -2 -2 -2 -2 -2 -1 -1 0 7 25 64 108 100 57 29 18 13 10 7 4 3 2 2 1 1 0 1 5 20 54 97 97 53 19 4 0 -1 -2 -2 -2 -2 -2 -2 -2 -1 0 7 27 68 104 81 36 10 1 -1 -1 0 5 19 48 88 105 79 54 63 99 
95 48 15 2 -1 -2 -2 -2 -2 -2 -2 -1 0 3 16 49 95 95 49 16 3 1 7 26 61 98 98 61 26 7 0 -1 -2 -2 -2 -2 -2 -2 -2 -2 -2 -2 -2 -2 -2 -2 -2 -2 -1 -1 0 3 12 32 71 118 122 87 61 49 42 35 27 20 17 15 14 12 10 7 7 13 33 73 105 83 38 12 1 -1 -2 -2 -2 -2 -2 -2 -2 -2 -1 1 10 36 81 104 68 27 7 0 -1 0 2 13 36 75 104 89 53 36 55 97 
95 48 15 2 -1 -2 -2 -2 -2 -2 -2 -2 -1 2 13 43 90 100 57 20 6 5 16 45 86 104 76 36 12 2 0 -1 -2 -2 -2 -2 -2 -2 -2 -2 -2 -2 -2 -2 -2 -2 -2 -1 0 1 5 13 29 55 94 133 139 120 104 96 89 80 68 58 51 48 46 42 35 28 25 32 58 96 104 65 26 7 0 -1 -2 -2 -2 -2 -2 -2 -2 -1 -1 2 14 45 92 99 56 19 4 0 0 1 8 27 62 99 99 63 31 25 51 96 
95 48 15 2 -1 -2 -2 -2 -2 -2 -2 -2 -1 1 10 35 81 104 68 28 10 10 29 67 102 91 50 19 5 0 -1 -2 -2 -2 -2 -2 -2 -2 -2 -2 -2 -2 -2 -2 -2 -1 -1 0 2 8 19 37 63 92 114 122 114 104 99 98 101 104 104 101 97 95 93 89 81 70 64 71 95 117 95 48 16 3 0 -1 -2 -2 -2 -2 -2 -2 -2 -1 0 4 19 56 99 92 45 14 2 0 0 5 19 48 88 104 75 38 17 20 49 95 
95 48 15 2 -1 -2 -2 -2 -2 -2 -2 -2 -1 0 7 27 68 104 81 37 16 20 47 89 103 68 30 9 1 -1 -2 -2 -2 -2 -2 -2 -2 -2 -2 -2 -2 -2 -2 -2 -1 0 1 5 13 27 48 75 99 106 94 75 59 52 50 52 58 68 80 89 93 95 97 101 105 106 107 116 133 130 86 37 11 1 -1 -1 -2 -2 -2 -2 -2 -2 -2 -1 0 7 27 68 104 81 36 10 1 0 2 13 36 75 104 88 48 20 9 17 48 95 
95 48 15 2 -1 -2 -2 -2 -2 -2 -2 -2 -1 0 4 20 57 100 90 46 25 34 69 103 89 46 16 3 0 -1 -2 -2 -2 -2 -2 -2 -2 -2 -2 -2 -2 -2 -1 -1 0 2 8 19 36 62 88 104 99 76 50 32 21 17 16 17 20 27 35 42 46 48 51 58 69 82 95 112 132 130 86 39 13 2 0 -1 -1 -1 -2 -2 -2 -1 -1 -1 1 10 36 81 104 68 27 7 1 1 8 27 62 99 99 62 27 9 5 16 48 95 
95 48 15 2 -1 -2 -2 -2 -2 -2 -2 -2 -1 0 3 16 49 96 97 57 38 55 92 103 67 28 8 0 -1 -2 -2 -2 -2 -2 -2 -2 -2 -2 -2 -2 -2 -1 -1 0 4 12 26 48 75 99 104 88 62 37 19 9 5 3 2 3 4 7 10 12 14 15 17 20 27 36 48 65 93 117 98 54 22 7 2 0 0 -1 -1 -1 -1 -1 0 0 3 15 46 92 100 56 20 5 1 5 19 48 88 104 75 36 13 3 3 15 48 95 
95 48 15 2 -1 -2 -2 -2 -2 -2 -2 -2 -2 -1 2 13 43 90 104 72 59 82 105 86 44 16 3 0 -1 -2 -2 -2 -2 -2 -2 -2 -2 -2 -2 -2 -1 0 1 5 15 34 60 88 104 99 75 48 27 13 5 1 0 0 0 0 0 0 1 1 2 2 3 4 7 11 17 29 54 92 108 81 44 21 10 5 3 2 2 2 2 2 2 4 9 24 59 101 93 47 15 4 4 13 36 75 104 88 48 19 5 1 3 15 48 95 
95 48 15 2 -1 -2 -2 -2 -2 -2 -2 -2 -2 -1 1 10 35 81 111 95 89 106 99 61 26 7 0 -1 -2 -2 -2 -2 -2 -2 -2 -2 -2 -2 -1 -1 0 2 8 20 40 69 97 104 89 62 36 19 8 2 0 -1 -1 -1 -1 -1 -1 -1 -1 -1 -1 -1 0 0 0 1 4 11 29 64 103 110 82 52 32 22 17 15 15 15 15 15 15 17 23 42 79 112 88 41 14 6 10 27 62 99 99 62 27 8 1 0 2 15 48 95 
95 48 15 2 -1 -2 -2 -2 -2 -2 -2 -2 -2 -1 0 6 26 68 113 120 117 110 76 36 12 2 0 -1 -2 -2 -2 -2 -2 -2 -2 -2 -2 -1 0 1 5 13 27 49 77 101 101 77 49 27 13 5 1 0 -1 -1 -2 -2 -2 -2 -2 -2 -2 -2 -2 -1 -1 -1 -1 -1 0 3 14 39 83 123 124 99 74 59 52 49 48 48 48 48 48 50 58 77 111 125 88 43 19 13 22 49 89 104 75 36 13 2 0 0 2 15 48 95 
95 48 15 2 -1 -2 -2 -2 -2 -2 -2 -2 -2 -1 0 4 20 57 110 136 128 93 49 19 5 0 -1 -2 -2 -2 -2 -2 -2 -2 -2 -1 -1 0 2 8 19 36 62 89 104 97 69 40 20 8 2 0 -1 -1 -2 -2 -2 -2 -2 -2 -2 -2 -2 -2 -2 -2 -2 -2 -2 -1 -1 0 7 26 67 120 141 127 112 103 98 96 95 95 95 95 96 97 103 116 136 137 103 63 38 31 45 79 105 89 48 19 5 0 -1 0 2 15 48 95 
95 48 15 2 -1 -2 -2 -2 -2 -2 -2 -2 -2 -1 0 3 16 50 106 139 117 68 29 9 1 -1 -2 -2 -2 -2 -2 -2 -2 -1 -1 0 1 4 12 27 48 75 99 104 88 60 34 15 5 1 0 -1 -2 -2 -2 -2 -2 -2 -2 -2 -2 -2 -2 -2 -2 -2 -2 -2 -2 -2 -1 0 5 23 63 113 123 103 92 92 94 95 95 95 95 95 95 96 98 103 114 123 117 98 77 70 84 108 102 64 27 8 1 -1 -1 -1 2 15 48 95 
95 48 15 2 -1 -2 -2 -2 -2 -2 -2 -2 -2 -1 -1 2 14 47 102 131 95 46 16 3 0 -1 -2 -2 -2 -2 -2 -1 -1 -1 0 2 8 18 36 62 89 105 99 76 49 27 12 4 0 -1 -1 -2 -2 -2 -2 -2 -2 -2 -2 -2 -2 -2 -2 -2 -2 -2 -2 -2 -2 -2 -1 0 7 27 70 110 96 62 47 45 46 47 47 48 48 48 48 48 48 51 59 74 92 106 111 115 125 124 87 42 15 3 0 -1 -1 -1 2 15 48 95 
95 48 15 2 -1 -2 -2 -2 -2 -2 -2 -2 -2 -2 -1 2 14 47 100 117 73 30 8 0 -1 -2 -2 -2 -2 -1 -1 0 0 2 5 12 26 47 75 101 108 93 66 40 21 10 3 0 0 -1 -1 -1 -2 -2 -2 -2 -2 -2 -2 -2 -2 -2 -2 -2 -2 -2 -2 -2 -2 -2 -1 1 10 35 81 106 74 36 19 15 14 14 15 15 15 15 15 15 15 17 21 30 47 69 94 120 140 127 78 34 10 1 -1 -1 -1 -1 2 15 48 95 
95 48 15 2 -1 -2 -2 -2 -2 -2 -2 -2 -2 -1 -1 2 15 48 98 105 58 20 4 0 -1 -2 -1 -1 -1 0 0 3 7 12 21 37 61 92 117 119 96 67 42 25 14 7 3 1 0 0 0 -1 -1 -1 -1 -1 -2 -2 -2 -2 -2 -2 -2 -2 -2 -2 -2 -2 -2 -2 -1 1 12 42 89 101 59 23 7 3 2 2 2 2 2 2 2 2 2 3 5 9 16 30 50 80 115 123 87 42 15 3 0 -1 -1 -1 2 15 48 95 
95 48 15 2 -1 -2 -2 -2 -2 -2 -2 -2 -2 -1 0 3 17 51 98 97 49 16 3 0 -1 -1 -1 0 0 3 8 15 26 39 56 79 107 131 139 123 95 70 53 40 29 20 15 10 7 4 3 2 1 0 0 -1 -1 -1 -1 -1 -2 -2 -2 -2 -2 -2 -2 -2 -2 -1 -1 2 14 46 94 97 51 17 4 0 0 -1 -1 -1 -1 -1 -1 -1 -1 0 0 1 3 9 20 41 74 107 103 64 27 8 1 -1 -1 -1 2 15 48 95 
95 48 15 2 -1 -2 -2 -2 -2 -2 -2 -2 -2 -1 0 4 20 58 101 90 43 13 2 0 0 0 1 4 9 16 28 45 64 83 99 110 117 121 124 121 112 102 93 82 68 56 46 36 27 20 16 13 10 6 4 2 1 0 0 0 -1 -1 -1 -1 -1 -2 -2 -2 -2 -1 0 3 16 51 97 94 47 14 2 0 -1 -1 -2 -2 -2 -2 -2 -2 -1 -1 -1 -1 0 1 6 17 41 78 105 89 48 19 5 0 -1 0 2 15 48 95 
95 48 15 2 -1 -2 -2 -2 -2 -2 -2 -2 -2 -1 0 7 27 68 104 81 35 11 2 1 3 6 12 19 30 47 68 88 102 104 97 86 73 68 72 82 91 96 101 104 104 99 92 81 69 57 49 43 35 26 19 14 10 7 4 3 2 1 0 0 -1 -1 -1 -1 -1 -1 0 4 20 58 101 89 42 12 1 -1 -2 -2 -2 -2 -2 -2 -2 -2 -2 -2 -2 -2 -1 -1 0 6 20 49 89 104 75 36 13 2 0 0 2 15 48 95 
95 48 15 2 -1 -2 -2 -2 -2 -2 -2 -2 -2 -1 1 10 35 81 104 69 28 10 6 8 15 25 38 53 71 90 103 103 90 71 54 40 29 25 28 35 43 49 57 69 81 92 99 104 104 100 95 90 80 68 56 45 36 27 20 16 13 10 6 4 2 1 0 0 0 0 0 7 27 69 104 80 35 10 1 -1 -2 -2 -2 -2 -2 -2 -2 -2 -2 -2 -2 -2 -2 -1 -1 1 8 27 62 99 99 62 27 8 1 0 2 15 48 95 
95 48 15 2 -1 -2 -2 -2 -2 -2 -2 -2 -2 -1 2 13 43 90 102 60 26 15 18 29 45 64 83 96 104 102 88 68 47 30 19 12 8 6 7 10 13 16 20 27 36 45 56 68 80 90 95 100 104 104 99 92 81 69 57 49 43 35 26 19 14 10 7 4 3 2 4 12 36 81 104 68 27 7 0 -1 -2 -2 -2 -2 -2 -2 -2 -2 -2 -2 -2 -2 -2 -2 -1 0 2 13 36 75 104 89 49 20 6 1 3 15 48 95 
95 48 15 2 -1 -2 -2 -2 -2 -2 -2 -2 -1 0 3 16 49 97 101 61 35 34 47 68 88 102 104 96 83 64 45 28 16 9 4 2 0 0 0 1 2 3 4 7 10 14 19 26 35 43 49 57 69 81 92 99 104 104 100 95 90 80 68 56 45 36 27 20 16 14 14 21 48 92 102 58 20 4 0 -1 -2 -2 -2 -2 -2 -2 -2 -2 -2 -2 -2 -2 -2 -2 -2 -1 0 5 19 48 88 104 77 40 16 5 4 15 48 95 
95 48 15 2 -1 -2 -2 -2 -2 -2 -2 -2 -1 0 4 21 58 106 108 76 63 72 90 103 103 90 71 53 38 25 15 8 3 0 0 -1 -1 -1 -1 -1 -1 0 0 0 1 2 4 6 10 13 16 20 27 36 45 56 68 80 90 95 100 104 104 99 92 81 69 57 49 44 40 43 66 104 100 51 17 3 0 -1 -2 -2 -2 -2 -2 -2 -2 -2 -2 -2 -2 -2 -2 -2 -2 -2 -1 1 8 26 60 97 101 70 34 13 7 16 48 95 
95 48 15 2 -1 -2 -2 -2 -2 -2 -2 -2 -1 0 8 30 73 121 125 105 101 105 103 89 68 47 30 19 12 6 3 0 0 -1 -1 -2 -2 -2 -2 -2 -2 -1 -1 -1 -1 -1 0 0 1 2 3 4 7 10 14 19 26 35 43 49 57 69 81 92 99 104 104 100 96 91 85 83 98 121 101 48 15 2 -1 -1 -2 -2 -2 -2 -2 -2 -2 -2 -2 -2 -2 -2 -2 -2 -2 -2 -1 0 2 12 34 69 101 97 61 28 13 18 49 95 
95 48 15 2 -1 -2 -2 -2 -2 -2 -2 -1 0 3 16 46 95 136 136 120 106 89 67 46 29 16 9 4 1 0 0 -1 -1 -2 -2 -2 -2 -2 -2 -2 -2 -2 -2 -2 -2 -1 -1 -1 -1 -1 0 0 0 1 2 4 6 10 13 16 20 27 36 45 56 68 80 90 96 101 107 115 129 138 103 47 14 2 -1 -2 -2 -2 -2 -2 -2 -2 -2 -2 -2 -2 -2 -2 -2 -2 -2 -2 -2 -1 0 4 15 40 77 104 88 50 24 23 50 96 
95 48 15 2 -1 -2 -2 -2 -2 -2 -2 -1 1 9 29 69 113 126 109 86 64 45 28 16 8 3 0 0 -1 -1 -1 -2 -2 -2 -2 -2 -2 -2 -2 -2 -2 -2 -2 -2 -2 -2 -2 -2 -2 -2 -1 -1 -1 -1 -1 0 0 1 2 3 4 7 10 14 19 26 35 43 49 58 72 92 119 136 102 46 14 2 -1 -2 -2 -2 -2 -2 -2 -2 -2 -2 -2 -2 -2 -2 -2 -2 -2 -2 -2 -2 -1 0 5 20 49 88 104 78 45 33 54 97 
96 48 15 2 -1 -2 -2 -2 -2 -2 -1 0 5 19 50 92 111 90 60 40 26 15 8 3 0 0 -1 -1 -2 -2 -2 -2 -2 -2 -2 -2 -2 -2 -2 -2 -2 -2 -2 -2 -2 -2 -2 -2 -2 -2 -2 -2 -2 -2 -1 -1 -1 -1 -1 0 0 0 1 2 4 6 10 13 16 21 31 50 84 117 99 47 14 2 -1 -2 -2 -2 -2 -2 -2 -2 -2 -2 -2 -2 -2 -2 -2 -2 -2 -2 -2 -2 -1 -1 1 8 26 61 97 102 74 51 62 99 
96 47 15 2 -1 -2 -2 -2 -2 -1 0 2 13 37 76 105 91 54 27 14 7 3 0 0 -1 -1 -2 -2 -2 -2 -2 -2 -2 -2 -2 -2 -2 -2 -2 -2 -2 -2 -2 -2 -2 -2 -2 -2 -2 -2 -2 -2 -2 -2 -2 -2 -2 -2 -2 -1 -1 -1 -1 -1 0 0 1 2 3 5 11 27 60 104 97 48 15 2 -1 -1 -2 -2 -2 -2 -2 -2 -2 -2 -2 -2 -2 -2 -2 -2 -2 -2 -2 -2 -2 -1 0 2 12 34 69 101 101 77 76 104 
97 47 15 2 -1 -2 -2 -2 -1 -1 1 8 27 62 99 99 63 28 10 3 0 0 -1 -1 -2 -2 -2 -2 -2 -2 -2 -2 -2 -2 -2 -2 -2 -2 -2 -2 -2 -2 -2 -2 -2 -2 -2 -2 -2 -2 -2 -2 -2 -2 -2 -2 -2 -2 -2 -2 -2 -2 -2 -1 -1 -1 -1 -1 0 0 5 18 51 98 97 49 16 3 0 -1 -2 -2 -2 -2 -2 -2 -2 -2 -2 -2 -2 -2 -2 -2 -2 -2 -2 -2 -2 -2 -1 0 4 15 40 77 107 103 96 112 
99 47 14 2 -1 -1 -2 -1 -1 0 6 20 49 89 105 76 37 13 3 0 -1 -1 -1 -1 -1 -1 -2 -2 -2 -2 -2 -2 -2 -2 -2 -2 -2 -2 -2 -2 -2 -2 -2 -2 -2 -2 -2 -2 -2 -2 -2 -2 -2 -2 -2 -2 -2 -2 -2 -2 -2 -2 -2 -2 -2 -2 -2 -1 -1 0 3 16 48 96 99 53 18 4 0 -1 -2 -2 -2 -2 -2 -2 -2 -2 -2 -2 -2 -2 -2 -2 -2 -2 -2 -2 -2 -2 -2 -1 0 5 20 49 90 115 118 124 
101 46 14 2 -1 -1 -1 -1 0 5 16 40 78 107 92 52 22 7 1 0 0 -1 -1 -1 -1 -1 -1 -1 -1 -1 -1 -1 -1 -2 -2 -2 -2 -2 -2 -2 -2 -2 -2 -2 -2 -2 -2 -2 -2 -2 -2 -2 -2 -2 -2 -2 -2 -2 -2 -2 -2 -2 -2 -2 -2 -2 -2 -1 -1 0 4 18 50 98 108 64 26 9 2 0 -1 -1 -2 -2 -2 -2 -2 -2 -2 -2 -2 -2 -2 -2 -2 -2 -2 -2 -2 -2 -2 -1 -1 1 8 27 62 104 130 135 
102 46 14 2 -1 -1 -1 0 4 15 37 73 108 110 77 41 20 10 5 3 2 2 2 2 2 2 2 1 1 0 0 0 -1 -1 -1 -1 -1 -1 -1 -1 -1 -1 -1 -1 -2 -2 -2 -2 -2 -2 -2 -2 -2 -2 -2 -2 -2 -2 -2 -2 -2 -2 -2 -2 -2 -2 -1 -1 0 3 10 27 60 107 124 88 46 22 9 3 0 0 -1 -2 -2 -2 -2 -2 -2 -2 -2 -2 -2 -2 -2 -2 -2 -2 -2 -2 -2 -2 -1 0 2 12 36 76 121 139 
101 46 14 2 0 -1 0 4 15 36 71 111 130 112 81 56 40 28 21 17 15 15 15 15 15 14 14 12 10 7 4 3 2 2 2 2 2 2 1 1 0 0 0 -1 -1 -1 -1 -1 -1 -1 -1 -1 -1 -1 -1 -1 -2 -2 -2 -2 -2 -2 -2 -2 -1 -1 0 1 5 13 27 51 85 124 141 119 82 51 30 16 7 2 0 -1 -1 -2 -2 -2 -2 -2 -2 -2 -2 -2 -2 -2 -2 -2 -2 -2 -2 -2 -2 -1 0 5 19 49 97 131 
99 46 14 2 0 0 5 15 37 71 110 136 138 124 107 94 82 69 58 51 49 48 48 48 47 47 45 41 35 27 20 17 15 15 15 15 14 14 12 10 7 4 3 2 2 2 2 2 2 2 1 1 0 0 0 -1 -1 -1 -1 -1 -1 -1 -1 -1 0 0 3 9 19 37 62 89 111 121 124 121 111 92 68 45 26 12 5 1 0 -1 -1 -2 -2 -2 -2 -2 -2 -2 -2 -2 -2 -2 -2 -2 -2 -2 -2 -2 -1 1 9 31 74 117 
97 47 15 3 1 5 16 38 71 104 118 115 107 102 100 102 105 104 101 98 96 95 95 95 95 94 93 89 80 68 58 51 49 48 48 47 47 45 41 35 27 20 17 15 15 15 15 15 14 14 12 10 7 4 3 2 2 2 2 2 2 1 1 1 3 7 16 30 50 76 99 105 94 78 71 78 93 104 103 87 61 36 19 9 3 0 0 -1 -2 -2 -2 -2 -2 -2 -2 -2 -2 -2 -2 -2 -2 -2 -2 -2 -1 0 5 21 59 105 
96 48 16 6 7 17 38 71 101 105 84 63 53 50 52 58 68 80 89 93 94 95 95 95 95 96 98 101 104 104 101 98 96 95 95 95 94 93 89 80 68 58 51 49 48 48 48 47 47 45 41 35 27 20 17 15 15 15 15 14 14 13 11 11 15 27 45 68 91 104 98 76 51 34 28 33 48 69 91 104 98 76 50 30 16 7 2 0 -1 -1 -2 -2 -2 -2 -2 -2 -2 -2 -2 -2 -2 -2 -2 -2 -1 0 3 17 51 99 
96 49 20 13 21 41 72 101 101 73 43 25 18 16 17 20 27 35 41 45 47 47 48 48 48 49 51 58 68 80 89 93 94 95 95 95 96 98 101 104 104 101 98 96 95 95 95 95 94 93 89 80 68 58 51 49 48 48 47 47 45 42 38 36 44 64 87 103 103 87 61 37 20 10 7 10 17 30 50 76 98 104 91 68 45 26 12 5 1 0 -1 -1 -2 -2 -2 -2 -2 -2 -2 -2 -2 -2 -2 -2 -1 -1 2 15 49 96 
97 54 29 31 50 78 102 100 71 38 17 7 4 3 3 4 7 10 12 14 14 15 15 15 15 15 17 20 27 35 41 45 47 47 48 48 49 51 58 68 80 89 93 94 95 95 95 95 96 98 101 104 104 101 98 96 95 95 95 95 93 90 86 84 92 105 107 91 68 45 26 12 5 1 0 1 4 9 19 36 61 87 103 103 87 61 36 19 9 3 0 0 -1 -2 -2 -2 -2 -2 -2 -2 -2 -2 -2 -2 -2 -1 2 15 48 96 
101 65 51 65 89 104 97 68 37 16 5 0 0 0 0 0 0 1 1 2 2 2 2 2 2 2 3 4 7 10 12 14 14 15 15 15 15 17 20 27 35 41 45 47 47 48 48 48 49 51 58 68 80 89 93 94 95 95 95 96 99 106 119 131 131 113 81 51 30 16 7 2 0 -1 -1 -1 0 1 5 12 26 45 68 91 104 98 76 50 30 16 7 2 0 -1 -1 -2 -2 -2 -2 -2 -2 -2 -2 -2 -2 -1 2 15 48 96 
110 86 85 100 105 88 60 33 14 4 0 -1 -1 -1 -1 -1 -1 -1 -1 -1 -1 -1 -1 -1 -1 -1 0 0 0 1 1 2 2 2 2 2 2 3 4 7 10 12 14 14 15 15 15 15 15 17 20 27 35 41 45 47 47 48 48 50 55 69 99 133 131 88 47 22 10 3 0 0 -1 -1 -2 -2 -1 -1 0 2 7 16 30 50 76 98 104 91 68 45 26 12 5 1 0 -1 -1 -2 -2 -2 -2 -2 -2 -2 -2 -1 2 15 47 97 
124 115 112 104 78 49 26 12 3 0 -1 -1 -2 -2 -2 -2 -2 -2 -2 -2 -2 -2 -2 -2 -2 -1 -1 -1 -1 -1 -1 -1 -1 -1 -1 -1 -1 0 0 0 1 1 2 2 2 2 2 2 2 3 4 7 10 12 14 14 15 15 15 16 21 36 70 114 113 64 26 9 2 0 -1 -1 -2 -2 -2 -2 -2 -2 -1 0 0 3 9 19 36 61 87 103 103 87 61 36 19 9 3 0 0 -1 -1 -2 -2 -2 -2 -2 -2 -1 2 14 47 99 
138 131 107 73 41 20 8 2 0 -1 -2 -2 -2 -2 -2 -2 -2 -2 -2 -2 -2 -2 -2 -2 -2 -2 -2 -2 -2 -2 -2 -2 -2 -2 -2 -2 -1 -1 -1 -1 -1 -1 -1 -1 -1 -1 -1 -1 -1 0 0 0 1 1 2 2 2 2 2 3 7 21 55 102 101 53 18 4 0 -1 -2 -2 -2 -2 -2 -2 -2 -2 -2 -1 -1 0 1 5 12 26 45 68 91 104 98 76 50 30 16 8 3 0 0 -1 -2 -2 -2 -2 -1 -1 2 14 46 101 
137 116 74 38 17 6 1 0 -1 -2 -2 -2 -2 -2 -2 -2 -2 -2 -2 -2 -2 -2 -2 -2 -2 -2 -2 -2 -2 -2 -2 -2 -2 -2 -2 -2 -2 -2 -2 -2 -2 -2 -2 -2 -2 -2 -2 -2 -1 -1 -1 -1 -1 -1 -1 -1 -1 -1 0 0 3 16 49 97 97 49 16 3 0 -1 -2 -2 -2 -2 -2 -2 -2 -2 -2 -2 -2 -1 -1 0 2 7 16 30 50 76 98 104 91 68 46 28 16 7 2 0 -1 -1 -1 -2 -1 -1 2 14 46 102 
123 86 43 17 5 0 -1 -1 -2 -2 -2 -2 -2 -2 -2 -2 -2 -2 -2 -2 -2 -2 -2 -2 -2 -2 -2 -2 -2 -2 -2 -2 -2 -2 -2 -2 -2 -2 -2 -2 -2 -2 -2 -2 -2 -2 -2 -2 -2 -2 -2 -2 -2 -2 -2 -2 -2 -1 -1 0 2 15 48 96 96 48 15 2 -1 -1 -2 -2 -2 -2 -2 -2 -2 -2 -2 -2 -2 -2 -2 -1 0 0 3 9 19 36 61 86 102 103 89 67 44 25 12 5 1 0 -1 -1 -1 0 2 14 46 100 
108 63 25 7 1 -1 -1 -2 -2 -2 -2 -2 -2 -2 -2 -2 -2 -2 -2 -2 -2 -2 -2 -2 -2 -2 -2 -2 -2 -2 -2 -2 -2 -2 -2 -2 -2 -2 -2 -2 -2 -2 -2 -2 -2 -2 -2 -2 -2 -2 -2 -2 -2 -2 -2 -2 -2 -2 -1 -1 2 15 48 95 95 48 15 2 -1 -2 -2 -2 -2 -2 -2 -2 -2 -2 -2 -2 -2 -2 -2 -2 -1 -1 0 1 5 12 26 45 67 89 103 103 87 61 36 19 9 4 2 1 0 0 3 15 47 98 
100 53 18 4 0 -1 -2 -2 -2 -2 -2 -2 -2 -2 -2 -2 -2 -2 -2 -2 -2 -2 -2 -2 -2 -2 -2 -2 -2 -2 -2 -2 -2 -2 -2 -2 -2 -2 -2 -2 -2 -2 -2 -2 -2 -2 -2 -2 -2 -2 -2 -2 -2 -2 -2 -2 -2 -2 -2 -1 2 15 48 95 95 48 15 2 -1 -2 -2 -2 -2 -2 -2 -2 -2 -2 -2 -2 -2 -2 -2 -2 -2 -2 -1 -1 0 2 7 16 29 47 69 92 106 100 76 50 31 20 14 10 7 5 7 18 50 97 
97 49 16 3 0 -1 -1 -2 -2 -2 -2 -2 -2 -2 -2 -2 -2 -2 -2 -2 -2 -2 -2 -2 -2 -2 -2 -2 -2 -2 -2 -2 -2 -2 -2 -2 -2 -2 -2 -2 -2 -2 -2 -2 -2 -2 -2 -2 -2 -2 -2 -2 -2 -2 -2 -2 -2 -2 -2 -1 2 15 48 95 95 48 15 2 -1 -2 -2 -2 -2 -2 -2 -2 -2 -2 -2 -2 -2 -2 -2 -2 -2 -2 -2 -1 -1 0 1 4 9 19 34 57 86 112 116 98 74 57 45 36 27 21 19 28 56 100 
98 49 16 3 0 0 -1 -1 -1 -1 -1 -1 -1 -2 -2 -2 -2 -2 -2 -2 -2 -2 -2 -2 -2 -2 -2 -2 -2 -2 -2 -2 -2 -2 -2 -2 -2 -2 -2 -2 -2 -2 -2 -2 -2 -2 -2 -2 -2 -2 -2 -2 -2 -2 -2 -2 -2 -2 -2 -1 2 15 48 95 95 48 15 2 -1 -2 -2 -2 -2 -2 -2 -2 -2 -2 -2 -2 -2 -2 -2 -2 -2 -2 -2 -1 -1 0 0 2 6 13 23 41 69 106 134 136 121 105 93 82 68 57 50 53 75 109 
103 51 19 7 3 2 2 1 1 0 0 0 -1 -1 -1 -1 -1 -1 -1 -1 -1 -2 -2 -2 -2 -2 -2 -2 -2 -2 -2 -2 -2 -2 -2 -2 -2 -2 -2 -2 -2 -2 -2 -2 -2 -2 -2 -2 -2 -2 -2 -2 -2 -2 -2 -2 -2 -2 -2 -1 2 15 48 95 95 48 15 2 -1 -2 -2 -2 -2 -2 -2 -2 -2 -2 -2 -2 -2 -2 -2 -2 -2 -1 -1 0 0 1 4 9 16 27 42 61 86 113 129 125 112 104 103 105 104 100 96 96 108 126 
113 62 31 19 16 15 14 12 10 7 4 3 2 2 2 1 1 0 0 0 -1 -1 -1 -1 -1 -1 -1 -1 -1 -1 -2 -2 -2 -2 -2 -2 -2 -2 -2 -2 -2 -2 -2 -2 -2 -2 -2 -2 -2 -2 -2 -2 -2 -2 -2 -2 -2 -2 -2 -1 2 15 48 95 95 48 15 2 -1 -2 -2 -2 -2 -2 -2 -2 -2 -2 -2 -2 -2 -2 -1 -1 -1 0 0 3 6 12 19 30 46 65 84 98 107 106 93 74 60 55 59 69 82 92 102 114 132 143 
129 89 62 52 48 47 45 41 35 27 20 17 15 15 14 12 10 7 4 3 2 2 2 2 1 1 0 0 0 -1 -1 -1 -1 -1 -1 -1 -1 -1 -2 -2 -2 -2 -2 -2 -2 -2 -2 -2 -2 -2 -2 -2 -2 -2 -2 -2 -2 -2 -2 -1 2 15 48 95 95 48 15 2 -1 -2 -2 -2 -2 -2 -2 -2 -2 -2 -2 -2 -1 -1 0 0 1 4 8 15 26 38 53 71 89 102 104 97 83 64 45 30 21 19 21 27 36 46 59 79 111 141 
144 125 106 98 96 95 93 89 80 68 58 51 49 47 45 41 35 27 20 17 15 15 14 14 12 10 7 4 3 2 2 2 1 1 0 0 0 -1 -1 -1 -1 -1 -1 -1 -1 -1 -1 -2 -2 -2 -2 -2 -2 -2 -2 -2 -2 -2 -1 -1 2 15 48 95 95 48 15 2 -1 -2 -2 -2 -2 -2 -2 -2 -2 -2 -1 -1 0 0 3 6 12 19 30 46 64 83 96 104 102 89 71 53 38 25 15 8 5 4 4 7 10 15 23 41 77 125 
140 125 107 99 96 96 98 101 104 104 101 97 96 95 93 89 80 68 58 51 49 48 47 45 41 35 27 20 17 15 15 14 12 10 7 4 3 2 2 2 2 1 1 0 0 0 -1 -1 -1 -1 -1 -1 -1 -1 -1 -2 -2 -1 -1 0 2 15 48 95 95 48 15 2 -1 -2 -2 -2 -2 -2 -2 -1 -1 -1 0 0 3 8 15 25 38 53 71 89 102 104 96 83 64 46 30 19 12 6 3 0 0 0 0 0 1 3 8 23 57 111 
120 89 63 52 49 49 51 58 68 80 89 93 95 96 97 101 104 104 101 98 96 95 94 93 89 80 68 58 51 49 47 45 41 35 27 20 17 15 15 14 14 12 10 7 4 3 2 2 2 1 1 0 0 0 -1 -1 -1 -1 -1 0 3 15 48 95 95 48 15 2 -1 -1 -2 -2 -2 -1 -1 0 0 1 4 9 16 28 45 64 83 96 104 102 89 71 53 38 26 15 8 4 1 0 0 -1 -1 -1 -1 -1 -1 0 4 17 50 102 
104 63 32 19 16 16 17 20 27 35 41 45 47 49 51 58 68 80 89 93 94 95 96 98 101 104 104 101 97 96 95 93 89 80 68 58 51 49 48 47 45 41 35 27 20 17 15 15 14 12 10 7 4 3 2 2 2 2 2 2 4 16 49 96 96 48 15 2 -1 -1 -1 -1 -1 0 0 3 6 12 19 30 47 68 88 102 104 96 83 64 46 30 19 12 6 3 0 0 -1 -1 -1 -2 -2 -2 -2 -2 -1 0 2 15 48 97 
98 52 19 7 3 3 3 4 7 10 12 14 15 15 17 20 27 35 41 45 47 48 49 51 58 68 80 89 93 95 96 97 101 104 104 101 98 96 95 94 93 89 80 68 58 51 49 47 45 41 35 27 20 17 15 15 14 14 12 11 11 21 53 98 97 49 16 3 0 -1 0 0 1 4 8 15 26 38 53 71 90 103 103 90 71 53 38 26 15 8 4 1 0 0 -1 -1 -2 -2 -2 -2 -2 -2 -2 -2 -1 -1 2 15 48 96 
96 49 16 3 0 0 0 0 0 1 1 2 2 2 3 4 7 10 12 14 14 15 15 17 20 27 35 41 45 47 49 51 58 68 80 89 93 94 95 96 98 101 104 104 101 97 96 95 93 89 80 68 58 51 49 48 47 45 42 36 31 37 65 106 102 53 18 4 1 1 3 6 12 19 30 46 64 83 96 104 102 88 68 47 30 19 12 6 3 0 0 -1 -1 -1 -2 -2 -2 -2 -2 -2 -2 -2 -2 -2 -2 -1 2 15 48 95 
95 48 15 2 0 -1 -1 -1 -1 -1 -1 -1 -1 -1 0 0 0 1 1 2 2 2 2 3 4 7 10 12 14 15 15 17 20 27 35 41 45 47 48 49 51 58 68 80 89 93 95 96 97 101 104 104 101 98 96 95 95 93 89 81 72 73 93 124 114 65 27 11 7 9 16 26 38 53 71 89 102 104 96 83 64 45 28 16 9 4 1 0 0 -1 -1 -2 -2 -2 -2 -2 -2 -2 -2 -2 -2 -2 -2 -2 -2 -1 2 15 48 95 
95 48 15 2 -1 -1 -2 -2 -2 -2 -2 -2 -2 -1 -1 -1 -1 -1 -1 -1 -1 -1 -1 0 0 0 1 1 2 2 2 3 4 7 10 12 14 14 15 15 17 20 27 35 41 45 47 49 51 58 68 80 89 93 94 95 96 98 101 105 106 109 122 140 131 89 49 29 25 32 46 65 83 96 104 102 89 71 53 38 25 15 8 3 0 0 -1 -1 -1 -2 -2 -2 -2 -2 -2 -2 -2 -2 -2 -2 -2 -2 -2 -2 -2 -1 2 15 48 95 
95 48 15 2 -1 -1 -2 -2 -2 -2 -2 -2 -2 -2 -2 -2 -2 -2 -2 -2 -2 -1 -1 -1 -1 -1 -1 -1 -1 -1 -1 0 0 0 1 1 2 2 2 2 3 4 7 10 12 14 15 15 17 20 27 35 41 45 47 48 49 51 58 68 81 91 102 116 126 115 89 69 65 74 90 102 104 96 83 64 46 30 19 12 6 3 0 0 -1 -1 -2 -2 -2 -2 -2 -2 -2 -2 -2 -2 -2 -2 -2 -2 -2 -2 -2 -2 -2 -1 2 15 48 95 
95 48 15 2 -1 -1 -2 -2 -2 -2 -2 -2 -2 -2 -2 -2 -2 -2 -2 -2 -2 -2 -2 -2 -2 -2 -2 -2 -1 -1 -1 -1 -1 -1 -1 -1 -1 -1 -1 -1 0 0 0 1 1 2 2 2 3 4 7 10 12 14 14 15 15 17 20 27 35 43 50 64 88 115 127 121 113 109 103 90 71 53 38 26 15 8 4 1 0 0 -1 -1 -2 -2 -2 -2 -2 -2 -2 -2 -2 -2 -2 -2 -2 -2 -2 -2 -2 -2 -2 -2 -1 -1 2 15 48 95 
95 48 15 2 0 -1 -1 -2 -2 -2 -2 -2 -2 -2 -2 -2 -2 -2 -2 -2 -2 -2 -2 -2 -1 -1 -1 -1 -1 -1 -1 -1 -1 -1 -1 -1 -1 -1 -1 -1 -1 -1 -1 -1 -1 0 0 0 0 0 0 1 2 2 2 2 3 3 4 7 10 13 17 27 49 89 131 139 116 90 67 46 30 19 12 7 3 1 0 0 -1 -1 -1 -1 -1 -1 -2 -2 -2 -2 -2 -2 -2 -2 -2 -2 -2 -2 -2 -2 -2 -2 -2 -1 -1 0 2 15 48 95 
96 49 16 3 0 0 -1 -1 -1 -1 -1 -1 -1 -1 -1 -1 -1 -1 -1 -1 -1 -1 -1 -1 -1 -1 -1 -1 -1 -1 -1 -1 -1 -1 -1 -1 -1 -1 -1 -1 -1 -1 -1 0 0 0 0 0 0 0 0 0 0 0 0 0 0 0 0 1 2 3 5 11 28 66 115 122 85 50 30 17 10 5 3 1 0 0 0 0 0 -1 -1 -1 -1 -1 -1 -1 -1 -1 -1 -1 -1 -1 -1 -1 -1 -1 -1 -1 -1 -1 -1 -1 0 0 3 16 49 96 
98 52 19 7 3 2 2 2 2 2 2 2 2 2 2 2 2 2 2 2 2 2 2 2 2 2 2 2 2 2 2 2 2 2 2 2 2 2 2 2 2 2 2 2 2 2 2 2 2 2 2 2 2 2 2 2 2 2 2 3 3 3 5 9 23 57 105 108 65 31 15 8 5 4 3 3 2 2 2 2 2 2 2 2 2 2 2 2 2 2 2 2 2 2 2 2 2 2 2 2 2 2 2 2 2 3 7 19 52 98 
106 63 32 19 16 15 15 15 15 15 15 15 15 15 15 15 15 15 15 15 15 15 15 15 15 15 15 15 15 15 15 14 14 14 14 14 15 15 15 15 15 15 15 15 15 15 15 14 14 14 14 14 14 15 15 15 15 15 15 15 15 15 16 20 33 64 109 109 66 35 22 17 16 15 15 15 15 15 15 15 15 15 15 15 15 15 15 15 15 15 14 14 14 14 14 15 15 15 15 15 15 15 14 14 14 15 19 31 63 106 
126 89 63 52 49 48 48 48 48 48 48 48 48 48 48 48 48 48 48 48 48 48 48 48 48 48 48 48 48 47 47 47 46 46 46 47 47 48 48 48 48 48 48 48 48 48 47 47 47 46 46 47 47 47 48 48 48 48 48 48 48 48 49 52 63 90 125 125 90 63 52 49 48 48 48 48 48 48 48 48 48 48 48 48 48 48 48 48 48 47 47 46 46 46 47 47 48 48 48 48 48 47 47 47 46 47 51 62 89 126 
152 126 106 98 96 95 95 95 95 95 95 95 95 95 95 95 95 95 95 95 95 95 95 95 95 95 95 95 95 96 97 99 101 102 100 98 96 95 95 95 95 95 95 95 95 95 96 97 99 102 102 99 97 96 95 95 95 95 95 95 95 95 96 98 104 119 137 137 119 104 98 96 95 95 95 95 95 95 95 95 95 95 95 95 95 95 95 95 95 96 98 101 102 101 98 96 95 95 95 95 95 96 98 101 103 101 101 107 126 152 
