P2
110 110
255
155 122 103 97 95 95 95 95 95 95 95 95 95 95 95 95 95 95 95 95 95 95 95 95 95 95 95 95 96 97 103 117 139 146 128 108 99 96 95 95 95 95 95 95 95 95 97 102 118 142 142 117 102 97 95 95 95 95 95 95 95 95 95 95 96 99 103 103 99 96 95 95 95 95 95 95 95 95 95 95 95 95 95 95 95 95 95 95 96 100 112 134 147 130 109 99 96 95 95 95 96 99 110 133 147 130 111 107 123 155 
122 76 50 41 39 39 39 39 39 39 39 39 39 39 39 39 39 39 39 39 39 39 39 39 39 39 39 39 41 46 61 95 129 118 79 53 43 40 39 39 39 39 39 39 39 40 42 51 79 124 122 76 50 41 40 39 39 39 39 39 39 39 39 39 39 39 39 39 39 39 39 39 39 39 39 39 39 39 39 39 39 39 39 39 39 39 39 40 42 51 78 120 126 86 55 43 40 39 39 39 41 48 70 113 129 90 59 54 77 122 
103 50 20 10 8 8 8 8 8 8 8 8 8 8 8 8 8 8 8 8 8 8 8 8 8 8 8 9 12 23 52 97 113 74 35 16 10 8 8 8 8 8 8 8 8 9 12 24 59 114 105 50 20 10 8 8 8 8 8 8 8 8 8 8 8 8 8 8 8 8 8 8 8 8 8 8 8 8 8 8 8 8 8 8 8 8 8 9 14 30 70 113 94 45 19 11 8 8 8 8 11 20 49 101 106 55 25 23 50 103 
97 41 10 1 0 0 0 0 0 0 0 0 0 0 0 0 0 0 0 0 0 0 0 0 0 0 0 1 9 30 72 109 88 41 13 2 0 0 0 0 0 0 0 0 0 0 5 23 68 124 102 41 10 1 0 0 0 0 0 0 0 0 0 0 0 0 0 0 0 0 0 0 0 0 0 0 0 0 0 0 0 0 0 0 0 0 0 1 8 33 83 109 65 23 5 0 0 0 0 0 2 14 49 102 93 40 13 13 42 97 
95 39 8 0 -2 -2 -3 -3 -3 -3 -3 -3 -3 -3 -3 -3 -3 -3 -3 -3 -3 -3 -3 -3 -2 -2 -1 3 19 56 101 101 56 19 3 -1 -2 -3 -3 -3 -3 -3 -3 -2 -2 0 9 38 94 140 103 39 8 0 -2 -2 -3 -3 -3 -3 -3 -3 -3 -3 -3 -3 -3 -3 -3 -3 -3 -3 -3 -3 -3 -3 -3 -3 -3 -3 -3 -3 -3 -3 -3 -2 -2 0 12 45 97 97 45 12 0 -2 -2 -3 -2 -1 2 19 62 108 80 29 8 10 40 95 
95 39 8 0 -2 -3 -3 -3 -3 -3 -3 -3 -3 -3 -3 -3 -3 -3 -3 -3 -3 -3 -3 -3 -3 -2 0 11 40 87 107 70 28 6 0 -2 -3 -3 -3 -3 -3 -3 -3 -3 -1 3 20 62 120 146 103 39 8 0 -2 -3 -3 -3 -3 -3 -3 -3 -3 -3 -3 -3 -3 -3 -3 -3 -3 -3 -3 -3 -3 -3 -3 -3 -3 -3 -3 -3 -3 -3 -3 -3 -1 3 21 64 107 81 31 6 -1 -3 -3 -3 -3 -1 5 29 80 107 62 19 4 9 39 95 
95 39 8 0 -3 -3 -3 -3 -3 -3 -3 -3 -3 -3 -3 -3 -3 -3 -3 -3 -3 -3 -3 -3 -2 0 6 28 70 107 87 40 11 0 -2 -3 -3 -3 -3 -3 -3 -3 -3 -2 0 9 38 90 130 138 103 41 9 0 -2 -3 -3 -3 -3 -3 -3 -3 -3 -3 -3 -3 -3 -3 -3 -3 -3 -3 -3 -3 -3 -3 -3 -3 -3 -3 -3 -3 -3 -3 -3 -2 0 9 38 88 105 59 18 2 -2 -3 -3 -3 -3 0 8 37 92 100 47 12 2 9 39 95 
95 39 8 0 -3 -3 -3 -3 -3 -3 -3 -3 -3 -3 -3 -3 -3 -3 -3 -3 -3 -3 -3 -3 -1 3 19 56 101 101 56 19 3 -1 -3 -3 -3 -3 -3 -3 -3 -3 -3 -1 3 21 62 110 119 122 106 48 12 0 -2 -3 -3 -3 -3 -3 -3 -3 -3 -3 -3 -3 -3 -3 -3 -3 -3 -3 -3 -3 -3 -3 -3 -3 -3 -3 -3 -3 -3 -3 -3 -2 2 18 59 105 88 38 9 0 -2 -3 -3 -3 -2 0 12 47 100 92 38 8 1 8 39 95 
95 39 8 0 -3 -3 -3 -3 -3 -3 -3 -3 -3 -3 -3 -3 -3 -3 -3 -3 -3 -3 -3 -2 0 11 40 87 107 70 28 6 0 -2 -3 -3 -3 -3 -3 -3 -3 -3 -2 0 11 41 90 111 91 100 110 62 19 2 -2 -3 -3 -3 -3 -3 -3 -3 -3 -3 -3 -3 -3 -3 -3 -3 -3 -3 -3 -3 -3 -3 -3 -3 -3 -3 -3 -3 -3 -3 -3 -1 6 31 81 107 64 21 3 -2 -3 -3 -3 -3 -2 2 19 62 107 80 29 5 0 8 39 95 
95 39 8 0 -3 -3 -3 -3 -3 -3 -3 -3 -3 -3 -3 -3 -3 -3 -3 -3 -3 -3 -2 0 6 28 70 107 87 40 11 0 -2 -3 -3 -3 -3 -3 -3 -3 -3 -2 0 6 28 70 108 91 59 74 109 79 28 5 -1 -3 -3 -3 -3 -3 -3 -3 -3 -3 -3 -3 -3 -3 -3 -3 -3 -3 -3 -3 -3 -3 -3 -3 -3 -3 -3 -3 -3 -3 -2 0 11 45 97 97 45 11 0 -2 -3 -3 -3 -3 -1 5 29 80 107 62 19 2 0 8 39 95 
95 39 8 0 -3 -3 -3 -3 -3 -3 -3 -3 -3 -3 -3 -3 -3 -3 -3 -3 -3 -3 -1 3 19 56 101 101 56 19 3 -1 -3 -3 -3 -3 -3 -3 -3 -3 -3 -2 2 18 55 101 101 59 34 54 102 89 35 7 -1 -3 -3 -3 -3 -3 -3 -3 -3 -3 -3 -3 -3 -3 -3 -3 -3 -3 -3 -3 -3 -3 -3 -3 -3 -3 -3 -3 -3 -3 -2 3 21 64 107 81 31 6 -1 -3 -3 -3 -3 -3 0 8 37 92 100 47 12 0 0 8 39 95 
96 40 8 0 -3 -3 -3 -3 -3 -3 -3 -3 -3 -3 -3 -3 -3 -3 -3 -3 -3 -2 0 11 40 87 107 70 28 6 0 -2 -3 -3 -3 -3 -3 -3 -3 -3 -2 0 9 37 86 107 71 31 19 44 97 94 38 8 -1 -3 -3 -3 -3 -3 -3 -3 -3 -3 -3 -3 -3 -3 -3 -3 -3 -3 -3 -3 -3 -3 -3 -3 -3 -3 -3 -3 -3 -2 0 9 38 88 105 59 18 2 -2 -3 -3 -3 -3 -2 0 12 47 100 92 37 8 0 0 8 39 95 
99 43 10 0 -2 -3 -3 -3 -3 -3 -3 -3 -3 -3 -3 -3 -3 -3 -3 -3 -2 0 6 28 70 107 87 40 11 0 -2 -3 -3 -3 -3 -3 -3 -3 -3 -3 -2 3 20 61 106 89 42 14 12 40 95 95 39 8 0 -3 -3 -3 -3 -3 -3 -3 -3 -3 -3 -3 -3 -3 -3 -3 -3 -3 -3 -3 -3 -3 -3 -3 -3 -3 -3 -3 -3 -2 2 18 59 105 88 38 9 0 -2 -3 -3 -3 -3 -2 2 19 62 107 80 29 5 -1 0 8 39 96 
108 53 15 2 -2 -3 -3 -3 -3 -3 -3 -3 -3 -3 -3 -3 -3 -3 -3 -3 -1 3 19 56 101 101 56 19 3 -1 -3 -3 -3 -3 -3 -3 -3 -3 -3 -2 0 9 38 88 106 62 21 6 9 38 94 97 42 9 0 -2 -3 -3 -3 -3 -3 -3 -3 -3 -3 -3 -3 -3 -3 -3 -3 -3 -3 -3 -3 -3 -3 -3 -3 -3 -3 -3 -3 -1 6 31 81 107 64 21 3 -2 -3 -3 -3 -3 -3 -1 5 29 80 107 62 19 2 -1 0 8 39 98 
127 78 32 9 0 -2 -3 -3 -3 -3 -3 -3 -3 -3 -3 -3 -3 -3 -3 -2 0 11 40 87 107 70 28 6 0 -2 -3 -3 -3 -3 -3 -3 -3 -3 -3 -1 3 21 62 106 88 38 10 2 7 35 89 101 48 12 0 -2 -3 -3 -3 -3 -3 -3 -3 -3 -3 -3 -3 -3 -3 -3 -3 -3 -3 -3 -3 -3 -3 -3 -3 -3 -3 -3 -2 0 11 45 97 97 45 11 0 -2 -3 -3 -3 -3 -3 0 8 37 92 100 47 12 0 -2 0 8 39 101 
146 117 67 29 8 0 -2 -3 -3 -3 -3 -3 -3 -3 -3 -3 -3 -3 -2 0 6 28 70 107 87 40 11 0 -2 -3 -3 -3 -3 -3 -3 -3 -3 -3 -2 0 11 41 89 106 61 20 3 0 5 28 79 107 62 19 2 -2 -3 -3 -3 -3 -3 -3 -3 -3 -3 -3 -3 -3 -3 -3 -3 -3 -3 -3 -3 -3 -3 -3 -3 -3 -3 -3 -2 3 21 64 107 81 31 6 -1 -3 -3 -3 -3 -3 -2 0 12 47 100 92 37 8 0 -2 0 8 39 103 
140 130 106 64 25 6 0 -2 -3 -3 -3 -3 -3 -3 -3 -3 -3 -3 -1 3 19 56 101 101 56 19 3 -1 -3 -3 -3 -3 -3 -3 -3 -3 -3 -2 0 6 28 70 107 86 37 9 0 -1 2 19 62 107 79 28 5 -1 -3 -3 -3 -3 -3 -3 -3 -3 -3 -3 -3 -3 -3 -3 -3 -3 -3 -3 -3 -3 -3 -3 -3 -3 -3 -2 0 9 38 88 105 59 18 2 -2 -3 -3 -3 -3 -3 -2 2 19 62 107 80 29 5 -1 -2 0 8 39 101 
120 105 112 100 55 19 3 -1 -3 -3 -3 -3 -3 -3 -3 -3 -3 -2 0 11 40 87 107 70 28 6 0 -2 -3 -3 -3 -3 -3 -3 -3 -3 -3 -2 2 18 55 100 100 55 18 2 -1 -2 0 12 48 101 89 35 7 -1 -3 -3 -3 -3 -3 -3 -3 -3 -3 -3 -3 -3 -3 -3 -3 -3 -3 -3 -3 -3 -3 -3 -3 -3 -3 -2 2 18 59 105 88 38 9 0 -2 -3 -3 -3 -3 -3 -1 5 29 80 107 62 19 2 -2 -2 0 8 39 98 
106 73 83 109 87 41 12 1 -2 -3 -3 -3 -3 -3 -3 -3 -2 0 6 28 70 107 87 40 11 0 -2 -3 -3 -3 -3 -3 -3 -3 -3 -3 -2 0 9 37 86 107 70 28 6 0 -2 -2 0 9 42 97 94 38 8 -1 -3 -3 -3 -3 -3 -3 -3 -3 -3 -3 -3 -3 -3 -3 -3 -3 -3 -3 -3 -3 -3 -3 -3 -3 -3 -1 6 31 81 107 64 21 3 -2 -3 -3 -3 -3 -3 -3 0 8 37 92 100 47 12 0 -2 -2 0 8 39 96 
99 55 52 89 107 72 31 9 0 -2 -3 -3 -3 -3 -3 -3 -1 3 19 56 101 101 56 19 3 -1 -3 -3 -3 -3 -3 -3 -3 -3 -3 -3 -2 3 20 61 106 89 41 11 0 -2 -3 -3 0 8 39 95 95 39 8 0 -3 -3 -3 -3 -3 -3 -3 -3 -3 -3 -3 -3 -3 -3 -3 -3 -3 -3 -3 -3 -3 -3 -3 -3 -2 0 11 45 97 97 45 11 0 -2 -3 -3 -3 -3 -3 -2 0 12 47 100 92 37 8 0 -2 -2 0 8 39 96 
97 46 30 57 99 104 67 29 9 0 -2 -3 -3 -3 -3 -2 0 11 40 87 107 70 28 6 0 -2 -3 -3 -3 -3 -3 -3 -3 -3 -3 -2 0 9 38 88 106 62 21 3 -1 -3 -3 -3 -1 8 38 94 97 42 9 0 -2 -3 -3 -3 -3 -3 -3 -3 -3 -3 -3 -3 -3 -3 -3 -3 -3 -3 -3 -3 -3 -3 -3 -3 -2 3 21 64 107 81 31 6 -1 -3 -3 -3 -3 -3 -3 -2 2 19 62 107 80 29 5 -1 -3 -3 0 8 39 95 
96 42 17 28 64 102 102 66 29 9 0 -2 -3 -3 -2 0 6 28 70 107 87 40 11 0 -2 -3 -3 -3 -3 -3 -3 -3 -3 -3 -3 -1 3 21 62 106 88 38 9 0 -2 -3 -3 -3 -1 7 35 89 101 48 12 0 -2 -3 -3 -3 -3 -3 -3 -3 -3 -3 -3 -3 -3 -3 -3 -3 -3 -3 -3 -3 -3 -3 -3 -2 0 9 38 88 105 59 18 2 -2 -3 -3 -3 -3 -3 -3 -1 5 29 80 107 62 19 2 -2 -3 -3 0 8 39 95 
95 40 11 10 29 66 102 102 66 29 9 0 -2 -2 -1 3 19 56 101 101 56 19 3 -1 -3 -3 -3 -3 -3 -3 -3 -3 -3 -3 -2 0 11 41 89 106 61 20 3 -2 -3 -3 -3 -3 -1 5 28 79 107 62 19 2 -2 -3 -3 -3 -3 -3 -3 -3 -3 -3 -3 -3 -3 -3 -3 -3 -3 -3 -3 -3 -3 -3 -3 -2 2 18 59 105 88 38 9 0 -2 -3 -3 -3 -3 -3 -3 0 8 37 92 100 47 12 0 -2 -3 -3 0 8 39 95 
95 39 9 2 9 29 66 102 102 66 29 9 0 -1 0 11 40 87 107 70 28 6 0 -2 -3 -3 -3 -3 -3 -3 -3 -3 -3 -2 0 6 28 70 107 86 37 9 0 -2 -3 -3 -3 -3 -2 2 19 62 107 79 28 5 -1 -3 -3 -3 -3 -3 -3 -3 -3 -3 -3 -3 -3 -3 -3 -3 -3 -3 -3 -3 -3 -3 -3 -1 6 31 81 107 64 21 3 -2 -3 -3 -3 -3 -3 -3 -2 0 12 47 100 92 37 8 0 -3 -3 -3 0 8 39 95 
95 39 8 0 0 9 29 66 102 102 66 29 9 3 7 28 70 107 87 40 11 0 -2 -3 -3 -3 -3 -3 -3 -3 -3 -3 -3 -2 2 18 55 100 100 55 18 2 -2 -3 -3 -3 -3 -3 -2 0 12 48 101 89 35 7 -1 -3 -3 -3 -3 -3 -3 -3 -3 -3 -3 -3 -3 -3 -3 -3 -3 -3 -3 -3 -3 -3 -2 0 11 45 97 97 45 11 0 -2 -3 -3 -3 -3 -3 -3 -2 2 19 62 107 80 29 5 -1 -3 -3 -3 0 8 39 95 
95 39 8 0 -1 0 9 29 66 102 102 66 31 15 23 57 101 101 56 19 3 -1 -3 -3 -3 -3 -3 -3 -3 -3 -3 -3 -2 0 9 37 86 107 70 28 6 0 -2 -3 -3 -3 -3 -3 -2 0 9 41 97 94 38 8 0 -3 -3 -3 -3 -3 -3 -3 -3 -3 -3 -3 -3 -3 -3 -3 -3 -3 -3 -3 -3 -3 -2 3 21 64 107 81 31 6 -1 -3 -3 -3 -3 -3 -3 -3 -1 5 29 80 107 62 19 2 -2 -3 -3 -3 0 8 39 95 
95 39 8 0 -2 -2 0 9 29 66 102 103 69 44 52 90 107 70 28 6 0 -2 -3 -3 -3 -3 -3 -3 -3 -3 -3 -3 -2 3 20 61 106 89 41 11 0 -2 -3 -3 -3 -3 -3 -3 -3 0 8 38 94 97 41 9 0 -2 -3 -3 -3 -3 -3 -3 -3 -3 -3 -3 -3 -3 -3 -3 -3 -3 -3 -3 -3 -2 0 9 38 88 105 59 18 2 -2 -3 -3 -3 -3 -3 -3 -3 0 8 37 92 100 47 12 0 -2 -3 -3 -3 0 8 39 95 
95 39 8 0 -2 -3 -2 0 9 29 66 103 109 92 96 113 88 40 11 0 -2 -3 -3 -3 -3 -3 -3 -3 -3 -3 -3 -2 0 9 38 88 106 62 21 3 -1 -3 -3 -3 -3 -3 -3 -3 -3 -1 7 35 89 101 48 12 0 -2 -3 -3 -3 -3 -3 -3 -3 -3 -3 -3 -3 -3 -3 -3 -3 -3 -3 -3 -3 -2 2 18 59 105 88 38 9 0 -2 -3 -3 -3 -3 -3 -3 -2 0 12 47 100 92 37 8 0 -3 -3 -3 -3 0 8 39 95 
95 39 8 0 -3 -3 -3 -2 0 9 29 67 111 136 136 107 56 19 3 -1 -3 -3 -3 -3 -3 -3 -3 -3 -3 -3 -3 -1 3 21 62 106 88 38 9 0 -2 -3 -3 -3 -3 -3 -3 -3 -3 -1 5 28 79 107 62 19 2 -2 -3 -3 -3 -3 -3 -3 -3 -3 -3 -3 -3 -3 -3 -3 -3 -3 -3 -3 -3 -1 6 31 81 107 64 21 3 -2 -3 -3 -3 -3 -3 -3 -3 -2 2 19 62 107 80 29 5 -1 -3 -3 -3 -3 0 8 39 95 
95 39 8 0 -3 -3 -3 -3 -2 0 9 32 78 133 133 77 29 6 0 -2 -3 -3 -3 -3 -3 -3 -3 -3 -3 -3 -2 0 11 41 89 106 61 20 3 -2 -3 -3 -3 -3 -3 -3 -3 -3 -3 -2 2 19 62 107 79 28 5 -1 -3 -3 -3 -3 -3 -3 -3 -3 -3 -3 -3 -3 -3 -3 -3 -3 -3 -3 -2 0 11 45 97 97 45 11 0 -2 -3 -3 -3 -3 -3 -3 -3 -1 5 29 80 107 62 19 2 -2 -3 -3 -3 -3 0 8 39 95 
95 39 8 0 -3 -3 -3 -3 -3 -2 1 15 52 110 113 55 16 1 -2 -3 -3 -3 -3 -3 -3 -3 -3 -3 -3 -2 0 6 28 70 107 86 37 9 0 -2 -3 -3 -3 -3 -3 -3 -3 -3 -3 -2 0 12 48 101 89 35 7 -1 -3 -3 -3 -3 -3 -3 -3 -3 -3 -3 -3 -3 -3 -3 -3 -3 -3 -3 -2 3 21 64 107 81 31 6 -1 -3 -3 -3 -3 -3 -3 -3 -3 0 8 37 92 100 47 12 0 -2 -3 -3 -3 -3 0 8 39 95 
95 39 8 0 -3 -3 -3 -3 -3 -2 0 8 38 94 106 52 14 0 -2 -3 -3 -3 -3 -3 -3 -3 -3 -3 -3 -2 2 18 55 100 100 55 18 2 -2 -3 -3 -3 -3 -3 -3 -3 -3 -3 -3 -2 0 9 42 97 94 38 8 -1 -3 -3 -3 -3 -3 -3 -3 -3 -3 -3 -3 -3 -3 -3 -3 -3 -3 -2 0 9 38 88 105 59 18 2 -2 -3 -3 -3 -3 -3 -3 -3 -2 0 12 47 100 92 37 8 0 -3 -3 -3 -3 -3 0 8 39 95 
95 39 8 0 -3 -3 -3 -3 -3 -3 -1 5 29 80 108 63 19 2 -2 -3 -3 -3 -3 -3 -3 -3 -3 -3 -2 0 9 37 86 107 70 28 6 0 -2 -3 -3 -3 -3 -3 -3 -3 -3 -3 -3 -3 0 8 39 95 95 39 8 0 -3 -3 -3 -3 -3 -3 -3 -3 -3 -3 -3 -3 -3 -3 -3 -3 -3 -2 2 18 59 105 88 38 9 0 -2 -3 -3 -3 -3 -3 -3 -3 -2 2 19 62 107 80 29 5 -1 -3 -3 -3 -3 -3 0 8 39 95 
95 39 8 0 -3 -3 -3 -3 -3 -3 -2 2 19 62 107 79 28 5 -1 -3 -3 -3 -3 -3 -3 -3 -3 -3 -2 3 20 61 106 89 41 11 0 -2 -3 -3 -3 -3 -3 -3 -3 -3 -3 -3 -3 -3 -1 8 38 94 97 42 9 0 -2 -3 -3 -3 -3 -3 -3 -3 -3 -3 -3 -3 -3 -3 -3 -3 -3 -1 6 31 81 107 64 21 3 -2 -3 -3 -3 -3 -3 -3 -3 -3 -1 5 29 80 107 62 19 2 -2 -3 -3 -3 -3 -3 0 8 39 95 
95 39 8 0 -3 -3 -3 -3 -3 -3 -2 0 12 48 101 90 35 7 -1 -3 -3 -3 -3 -3 -3 -3 -3 -2 0 9 38 88 106 62 21 3 -1 -3 -3 -3 -3 -3 -3 -3 -3 -3 -3 -3 -3 -3 -1 7 35 89 101 48 12 0 -2 -3 -3 -3 -3 -3 -3 -3 -3 -3 -3 -3 -3 -3 -3 -3 -2 0 11 45 97 97 45 11 0 -2 -3 -3 -3 -3 -3 -3 -3 -3 0 8 37 92 100 47 12 0 -2 -3 -3 -3 -3 -3 0 8 40 96 
96 39 8 0 -3 -3 -3 -3 -3 -3 -2 0 9 40 96 96 40 9 0 -2 -3 -3 -3 -3 -3 -3 -3 -1 3 21 62 106 88 38 9 0 -2 -3 -3 -3 -3 -3 -3 -3 -3 -3 -3 -3 -3 -3 -1 5 28 79 107 62 19 2 -2 -3 -3 -3 -3 -3 -3 -3 -3 -3 -3 -3 -3 -3 -3 -3 -2 3 21 64 107 81 31 6 -1 -3 -3 -3 -3 -3 -3 -3 -3 -2 0 12 47 100 92 37 8 0 -3 -3 -3 -3 -3 -2 0 9 42 98 
97 39 8 0 -3 -3 -3 -3 -3 -3 -3 -1 7 35 90 101 48 12 0 -2 -3 -3 -3 -3 -3 -3 -2 0 11 41 89 106 61 20 3 -2 -3 -3 -3 -3 -3 -3 -3 -3 -3 -3 -3 -3 -3 -3 -2 2 19 62 107 79 28 5 -1 -3 -3 -3 -3 -3 -3 -3 -3 -3 -3 -3 -3 -3 -3 -2 0 9 38 88 105 59 18 2 -2 -3 -3 -3 -3 -3 -3 -3 -3 -2 2 19 62 107 80 29 5 -1 -3 -3 -3 -3 -3 -2 0 13 49 106 
100 39 8 0 -3 -3 -3 -3 -3 -3 -3 -1 5 28 79 107 62 19 2 -2 -3 -3 -3 -3 -3 -2 0 6 28 70 107 86 37 9 0 -2 -3 -3 -3 -3 -3 -3 -3 -3 -3 -3 -3 -3 -3 -3 -2 0 12 48 101 89 35 7 -1 -3 -3 -3 -3 -3 -3 -3 -3 -3 -3 -3 -3 -3 -3 -2 2 18 59 105 88 38 9 0 -2 -3 -3 -3 -3 -3 -3 -3 -3 -1 5 29 80 107 62 19 2 -2 -3 -3 -3 -3 -3 -1 3 22 67 122 
103 38 8 -1 -3 -3 -3 -3 -3 -3 -3 -2 2 19 62 107 79 28 5 -1 -3 -3 -3 -3 -3 -2 2 18 55 100 100 55 18 2 -2 -3 -3 -3 -3 -3 -3 -3 -3 -3 -3 -3 -3 -3 -3 -3 -2 0 9 42 97 94 38 8 -1 -3 -3 -3 -3 -3 -3 -3 -3 -3 -3 -3 -3 -3 -3 -1 6 31 81 107 64 21 3 -2 -3 -3 -3 -3 -3 -3 -3 -3 -3 0 8 37 92 100 47 12 0 -2 -3 -3 -3 -3 -2 0 11 41 96 140 
102 38 8 0 -3 -3 -3 -3 -3 -3 -3 -2 0 12 48 101 90 35 7 -1 -3 -3 -3 -3 -2 0 9 37 86 107 70 28 6 0 -2 -3 -3 -3 -3 -3 -3 -3 -3 -3 -3 -3 -3 -3 -3 -3 -3 0 8 39 95 95 39 8 0 -3 -3 -3 -3 -3 -3 -3 -3 -3 -3 -3 -3 -3 -2 0 11 45 97 97 45 11 0 -2 -3 -3 -3 -3 -3 -3 -3 -3 -2 0 12 47 100 92 37 8 0 -3 -3 -3 -3 -2 0 6 28 71 123 146 
100 39 8 0 -3 -3 -3 -3 -3 -3 -3 -2 0 9 40 96 96 40 9 0 -2 -3 -3 -3 -2 3 20 61 106 89 41 11 0 -2 -3 -3 -3 -3 -3 -3 -3 -3 -3 -3 -3 -3 -3 -3 -3 -3 -3 -1 8 38 94 97 42 9 0 -2 -3 -3 -3 -3 -3 -3 -3 -3 -3 -3 -3 -3 -2 3 21 64 107 81 31 6 -1 -3 -3 -3 -3 -3 -3 -3 -3 -3 -2 2 19 62 107 80 29 5 -1 -3 -3 -3 -3 -1 3 19 56 104 130 136 
98 39 8 0 -3 -3 -3 -3 -3 -3 -3 -3 -1 7 35 90 101 48 12 0 -2 -3 -3 -2 0 9 38 88 106 62 21 3 -1 -3 -3 -3 -3 -3 -3 -3 -3 -3 -3 -3 -3 -3 -3 -3 -3 -3 -3 -1 7 35 89 101 48 12 0 -2 -3 -3 -3 -3 -3 -3 -3 -3 -3 -3 -3 -2 0 9 38 88 105 59 18 2 -2 -3 -3 -3 -3 -3 -3 -3 -3 -3 -1 5 29 80 107 62 19 2 -2 -3 -3 -3 -2 0 11 40 88 115 108 119 
96 39 8 0 -3 -3 -3 -3 -3 -3 -3 -3 -1 5 28 79 107 62 19 2 -2 -3 -3 -1 3 21 62 106 88 38 9 0 -2 -3 -3 -3 -3 -3 -3 -3 -3 -3 -3 -3 -3 -3 -3 -3 -3 -3 -3 -1 5 28 79 107 62 19 2 -1 -2 -3 -3 -3 -3 -3 -3 -3 -3 -3 -3 -2 2 18 59 105 88 38 9 0 -2 -3 -3 -3 -3 -3 -3 -3 -3 -3 0 8 37 92 100 47 12 0 -2 -3 -3 -2 0 6 28 70 108 97 81 107 
96 39 8 0 -3 -3 -3 -3 -3 -3 -3 -3 -2 2 19 62 107 79 28 5 -1 -3 -2 0 11 41 89 106 61 20 3 -2 -3 -3 -3 -3 -3 -3 -3 -3 -3 -3 -3 -3 -3 -3 -3 -3 -3 -3 -3 -2 2 19 63 108 81 30 7 0 0 -1 -2 -2 -2 -3 -3 -3 -3 -3 -2 -1 6 31 81 107 64 21 3 -2 -3 -3 -3 -3 -3 -3 -3 -3 -3 -2 0 12 47 100 92 37 8 0 -3 -3 -3 -1 3 19 56 101 102 67 61 100 
95 39 8 0 -3 -3 -3 -3 -3 -3 -3 -3 -2 0 12 48 101 90 35 7 -1 -2 0 6 28 70 107 86 37 9 0 -2 -3 -3 -3 -3 -3 -3 -3 -3 -3 -3 -3 -3 -3 -3 -3 -3 -3 -3 -3 -2 1 15 52 106 97 45 18 10 7 5 2 0 0 0 -1 -1 -1 -2 -2 0 12 45 97 97 45 11 0 -2 -3 -3 -3 -3 -3 -3 -3 -3 -3 -2 2 19 62 107 80 29 5 -1 -3 -3 -2 0 11 40 87 107 72 39 49 97 
95 39 8 0 -3 -3 -3 -3 -3 -3 -3 -3 -2 0 9 40 96 96 40 9 0 -1 2 18 55 100 100 55 18 2 -2 -3 -3 -3 -3 -3 -3 -3 -3 -3 -3 -3 -3 -3 -3 -3 -3 -3 -3 -3 -2 0 5 20 58 115 119 75 49 40 35 28 19 12 9 8 8 7 5 2 1 5 23 65 108 81 31 6 -1 -3 -3 -3 -3 -3 -3 -3 -3 -3 -3 -1 5 29 80 107 62 19 2 -2 -3 -2 0 6 28 70 107 88 43 23 43 96 
95 39 8 0 -3 -3 -3 -3 -3 -3 -3 -3 -3 -1 7 35 90 101 48 12 0 0 9 37 86 107 70 28 6 0 -2 -3 -3 -3 -3 -3 -3 -3 -3 -3 -3 -3 -3 -3 -3 -3 -3 -3 -2 -1 0 6 20 45 86 135 143 118 101 95 90 79 62 48 42 39 38 35 28 19 15 20 46 92 106 59 18 2 -2 -3 -3 -3 -3 -3 -3 -3 -3 -3 -3 0 8 37 92 100 47 12 0 -2 -3 -1 3 19 56 101 101 56 21 15 41 95 
95 39 8 0 -3 -3 -3 -3 -3 -3 -3 -3 -3 -1 5 28 79 107 62 19 3 4 20 61 106 89 41 11 0 -2 -3 -3 -3 -3 -3 -3 -3 -3 -3 -3 -3 -3 -3 -3 -3 -3 -3 -2 0 3 11 28 56 89 115 124 114 102 98 98 101 107 107 101 97 95 94 89 79 63 52 58 86 117 92 39 9 0 -2 -3 -3 -3 -3 -3 -3 -3 -3 -3 -2 0 12 47 100 92 37 8 0 -2 -2 0 11 40 87 107 70 28 9 11 40 95 
95 39 8 0 -3 -3 -3 -3 -3 -3 -3 -3 -3 -2 2 19 62 107 79 29 8 11 38 88 106 62 21 3 -1 -3 -3 -3 -3 -3 -3 -3 -3 -3 -3 -3 -3 -3 -3 -3 -3 -2 -1 0 6 19 40 70 101 108 91 67 49 42 40 42 48 62 79 89 94 95 97 101 107 108 106 114 135 132 76 26 4 -1 -3 -3 -3 -3 -3 -3 -3 -3 -3 -3 -2 2 19 62 107 80 29 5 -1 -2 0 6 28 70 107 87 40 12 3 9 39 95 
95 39 8 0 -3 -3 -3 -3 -3 -3 -3 -3 -3 -2 0 12 48 101 90 37 14 23 63 106 88 38 9 0 -2 -3 -3 -3 -3 -3 -3 -3 -3 -3 -3 -3 -3 -3 -3 -3 -2 0 3 11 28 56 87 107 101 70 41 22 13 9 8 9 12 19 28 35 38 39 42 48 62 80 94 111 134 132 77 27 5 -1 -2 -3 -3 -3 -3 -3 -3 -3 -3 -3 -1 5 29 80 107 62 19 2 -2 -1 3 19 56 101 101 56 19 3 0 8 39 95 
95 39 8 0 -3 -3 -3 -3 -3 -3 -3 -3 -3 -2 0 9 40 96 96 45 24 44 90 106 61 20 3 -2 -3 -3 -3 -3 -3 -3 -3 -3 -3 -3 -3 -3 -3 -3 -3 -2 0 6 19 40 70 101 107 87 56 28 11 3 0 0 0 0 0 2 5 7 8 8 9 12 19 29 39 54 85 117 94 43 13 2 -1 -2 -2 -3 -3 -3 -3 -3 -2 -2 0 8 38 92 100 47 12 0 -1 0 11 40 87 107 70 28 6 0 0 8 39 95 
95 39 8 0 -3 -3 -3 -3 -3 -3 -3 -3 -3 -3 -1 7 35 90 103 58 43 74 108 86 37 9 0 -2 -3 -3 -3 -3 -3 -3 -3 -3 -3 -3 -3 -3 -3 -2 -1 1 8 26 55 87 107 101 70 40 19 6 0 -1 -2 -2 -3 -2 -2 -2 -1 -1 -1 0 0 0 2 5 9 19 44 90 109 74 34 13 4 0 0 0 0 0 0 0 0 0 2 14 49 101 93 38 8 0 0 6 28 70 107 87 40 11 0 -2 0 8 39 95 
95 39 8 0 -3 -3 -3 -3 -3 -3 -3 -3 -3 -3 -1 5 28 79 111 82 77 105 101 55 18 2 -2 -3 -3 -3 -3 -3 -3 -3 -3 -3 -3 -3 -3 -3 -2 0 3 12 31 64 99 107 88 56 28 11 3 0 -2 -3 -3 -3 -3 -3 -3 -3 -3 -3 -3 -3 -2 -2 -2 -1 0 4 20 57 103 110 75 42 22 13 9 8 8 8 8 8 8 9 13 29 70 112 84 31 6 0 3 19 56 101 101 56 19 3 -1 -2 0 8 39 95 
95 39 8 0 -3 -3 -3 -3 -3 -3 -3 -3 -3 -3 -2 2 19 62 113 114 112 111 70 28 6 0 -2 -3 -3 -3 -3 -3 -3 -3 -3 -3 -3 -3 -2 -1 0 6 19 41 72 103 103 72 41 19 6 0 -1 -2 -3 -3 -3 -3 -3 -3 -3 -3 -3 -3 -3 -3 -3 -3 -3 -3 -2 0 7 29 76 126 128 96 66 49 42 40 39 39 39 39 39 41 46 66 106 125 78 30 9 4 13 41 88 107 70 28 6 0 -2 -2 0 8 39 95 
95 39 8 0 -3 -3 -3 -3 -3 -3 -3 -3 -3 -3 -2 0 12 48 109 136 129 92 41 11 0 -2 -3 -3 -3 -3 -3 -3 -3 -3 -3 -3 -3 -2 0 3 11 28 56 88 107 99 64 31 12 3 0 -2 -3 -3 -3 -3 -3 -3 -3 -3 -3 -3 -3 -3 -3 -3 -3 -3 -3 -3 -3 -2 1 16 55 118 146 129 113 102 97 96 95 95 95 95 95 96 101 115 140 140 94 50 25 19 33 72 108 88 40 11 0 -2 -3 -3 0 8 39 95 
95 39 8 0 -3 -3 -3 -3 -3 -3 -3 -3 -3 -3 -2 0 9 41 105 146 120 62 21 3 -1 -3 -3 -3 -3 -3 -3 -3 -3 -3 -3 -2 -1 0 6 19 40 70 101 107 87 55 26 8 1 -1 -2 -3 -3 -3 -3 -3 -3 -3 -3 -3 -3 -3 -3 -3 -3 -3 -3 -3 -3 -3 -3 -2 0 14 52 111 120 93 88 91 94 95 95 95 95 95 95 96 97 102 114 125 117 93 67 56 73 107 103 57 19 3 -1 -3 -3 -3 0 8 39 95 
95 39 8 0 -3 -3 -3 -3 -3 -3 -3 -3 -3 -3 -3 0 8 39 103 140 94 38 9 0 -2 -3 -3 -3 -3 -3 -3 -3 -3 -3 -2 0 3 11 28 56 88 107 101 70 40 19 6 0 -2 -3 -3 -3 -3 -3 -3 -3 -3 -3 -3 -3 -3 -3 -3 -3 -3 -3 -3 -3 -3 -3 -3 -2 2 19 63 111 90 49 36 37 38 39 39 39 39 39 39 39 40 42 49 67 90 108 111 111 123 124 78 31 7 0 -2 -3 -3 -3 0 8 39 95 
95 39 8 0 -3 -3 -3 -3 -3 -3 -3 -3 -3 -3 -3 0 8 39 100 122 66 21 3 -1 -3 -3 -3 -3 -3 -3 -3 -2 -2 -1 1 6 18 40 71 102 110 90 58 30 12 3 0 -2 -3 -3 -3 -3 -3 -3 -3 -3 -3 -3 -3 -3 -3 -3 -3 -3 -3 -3 -3 -3 -3 -3 -3 -1 5 28 79 108 65 24 10 8 8 8 8 8 8 8 8 8 8 9 12 21 38 62 92 121 146 126 65 22 3 -1 -3 -3 -3 -3 0 8 39 95 
95 39 8 0 -3 -3 -3 -3 -3 -3 -3 -3 -3 -3 -3 0 8 39 98 105 49 12 0 -2 -3 -3 -3 -3 -3 -2 -2 0 2 6 13 28 56 92 120 117 85 52 29 15 6 1 0 -1 -2 -2 -2 -3 -3 -3 -3 -3 -3 -3 -3 -3 -3 -3 -3 -3 -3 -3 -3 -3 -3 -3 -3 -1 7 35 90 101 49 13 2 0 0 0 0 0 0 0 0 0 0 0 0 3 9 21 41 74 117 125 78 31 7 0 -2 -3 -3 -3 0 8 39 95 
95 39 8 0 -3 -3 -3 -3 -3 -3 -3 -3 -3 -3 -2 0 9 42 98 97 41 9 0 -2 -3 -3 -3 -2 -1 0 3 9 18 31 48 74 111 140 143 115 78 55 42 31 20 12 8 5 2 0 0 -1 -1 -2 -2 -3 -3 -3 -3 -3 -3 -3 -3 -3 -3 -3 -3 -3 -3 -3 -3 0 8 38 94 97 42 9 0 -2 -2 -3 -3 -3 -3 -3 -3 -3 -3 -2 -2 -1 0 3 12 31 68 108 103 57 19 3 -1 -3 -3 -3 0 8 39 95 
95 39 8 0 -3 -3 -3 -3 -3 -3 -3 -3 -3 -3 -2 0 12 48 101 90 35 7 -1 -2 -2 -2 -1 0 3 9 20 37 59 81 99 113 120 122 125 121 109 99 91 80 62 47 37 29 19 12 9 7 5 2 0 0 -1 -2 -2 -2 -3 -3 -3 -3 -3 -3 -3 -3 -3 -3 -2 0 9 41 97 94 38 8 0 -2 -3 -3 -3 -3 -3 -3 -3 -3 -3 -3 -3 -3 -2 -1 1 9 31 72 108 88 40 11 0 -2 -3 -3 0 8 39 95 
95 39 8 0 -3 -3 -3 -3 -3 -3 -3 -3 -3 -3 -2 2 19 62 107 79 28 5 -1 -1 0 2 6 11 21 38 62 88 105 107 98 83 66 57 65 80 91 96 101 107 107 100 92 80 62 48 40 35 28 19 12 8 5 2 0 0 -1 -1 -2 -2 -3 -3 -3 -3 -3 -3 -2 0 12 48 101 89 35 7 -1 -3 -3 -3 -3 -3 -3 -3 -3 -3 -3 -3 -3 -3 -3 -3 -2 1 12 41 88 107 70 28 6 0 -2 -2 0 8 39 95 
95 39 8 0 -3 -3 -3 -3 -3 -3 -3 -3 -3 -3 -1 5 28 79 107 62 19 3 0 3 9 18 31 45 64 89 106 106 89 64 45 31 20 16 20 28 35 40 48 62 80 92 100 107 107 101 96 90 79 62 47 37 29 19 12 9 7 5 2 0 0 -1 -2 -2 -2 -2 -2 2 19 62 107 79 28 5 -1 -3 -3 -3 -3 -3 -3 -3 -3 -3 -3 -3 -3 -3 -3 -3 -3 -1 3 19 56 101 101 56 19 3 -1 -2 0 8 39 95 
95 39 8 0 -3 -3 -3 -3 -3 -3 -3 -3 -3 -3 -1 7 35 90 102 49 15 6 10 20 37 59 81 97 107 105 88 62 38 21 11 6 2 1 2 5 7 9 12 19 29 37 47 62 79 90 96 101 107 107 100 92 80 62 48 40 35 28 19 12 8 5 2 0 0 0 0 6 29 79 107 62 19 2 -2 -3 -3 -3 -3 -3 -3 -3 -3 -3 -3 -3 -3 -3 -3 -3 -3 -2 0 6 28 70 107 88 41 12 1 -1 0 8 39 95 
95 39 8 0 -3 -3 -3 -3 -3 -3 -3 -3 -3 -2 0 9 41 96 99 47 22 23 38 62 88 105 107 97 81 59 37 20 9 3 0 -1 -2 -2 -2 -1 -1 0 0 2 5 8 12 19 28 35 40 48 62 80 92 100 107 107 101 96 90 79 62 47 37 29 19 12 9 7 7 12 38 91 102 48 12 0 -2 -3 -3 -3 -3 -3 -3 -3 -3 -3 -3 -3 -3 -3 -3 -3 -3 -3 -2 0 11 40 87 107 72 31 8 0 0 8 39 95 
95 39 8 0 -3 -3 -3 -3 -3 -3 -3 -3 -3 -2 0 12 49 105 103 60 49 64 88 106 106 89 64 45 31 18 9 3 0 -1 -2 -3 -3 -3 -3 -3 -3 -2 -2 -2 -1 0 0 2 5 7 9 12 19 29 37 47 62 79 90 96 101 107 107 100 92 80 62 48 41 36 31 30 52 101 98 42 9 0 -2 -3 -3 -3 -3 -3 -3 -3 -3 -3 -3 -3 -3 -3 -3 -3 -3 -3 -3 -1 3 19 55 99 103 64 26 6 1 9 39 95 
95 39 8 0 -3 -3 -3 -3 -3 -3 -3 -3 -3 -1 3 21 66 122 119 94 96 107 106 88 62 38 21 11 6 2 0 -2 -2 -3 -3 -3 -3 -3 -3 -3 -3 -3 -3 -3 -3 -3 -2 -2 -1 -1 0 0 2 5 8 12 19 28 35 40 48 62 80 92 100 107 107 101 96 90 81 72 84 119 100 39 8 0 -3 -3 -3 -3 -3 -3 -3 -3 -3 -3 -3 -3 -3 -3 -3 -3 -3 -3 -3 -2 0 6 26 64 103 99 55 19 5 10 39 95 
95 39 8 0 -3 -3 -3 -3 -3 -3 -3 -3 -2 0 9 38 95 143 138 121 108 88 62 38 20 9 3 0 -1 -2 -2 -3 -3 -3 -3 -3 -3 -3 -3 -3 -3 -3 -3 -3 -3 -3 -3 -3 -3 -3 -2 -2 -2 -1 0 0 2 5 7 9 12 19 29 37 47 62 79 90 96 101 109 115 127 143 103 39 8 0 -3 -3 -3 -3 -3 -3 -3 -3 -3 -3 -3 -3 -3 -3 -3 -3 -3 -3 -3 -3 -2 0 8 31 72 107 87 41 14 13 40 95 
95 39 8 0 -3 -3 -3 -3 -3 -3 -3 -3 -1 3 21 63 117 131 108 83 59 37 20 9 3 0 -1 -2 -3 -3 -3 -3 -3 -3 -3 -3 -3 -3 -3 -3 -3 -3 -3 -3 -3 -3 -3 -3 -3 -3 -3 -3 -3 -3 -3 -2 -2 -1 -1 0 0 2 5 8 12 19 28 35 41 48 64 87 116 141 103 39 8 0 -3 -3 -3 -3 -3 -3 -3 -3 -3 -3 -3 -3 -3 -3 -3 -3 -3 -3 -3 -3 -3 -2 1 12 41 87 107 72 33 20 42 96 
95 39 8 0 -3 -3 -3 -3 -3 -3 -3 -2 0 11 41 90 113 83 51 32 18 9 3 0 -2 -2 -3 -3 -3 -3 -3 -3 -3 -3 -3 -3 -3 -3 -3 -3 -3 -3 -3 -3 -3 -3 -3 -3 -3 -3 -3 -3 -3 -3 -3 -3 -3 -3 -3 -2 -2 -2 -1 0 0 2 5 7 9 12 21 39 72 116 99 39 8 0 -3 -3 -3 -3 -3 -3 -3 -3 -3 -3 -3 -3 -3 -3 -3 -3 -3 -3 -3 -3 -3 -3 -1 3 19 55 99 103 67 37 48 97 
96 39 8 0 -3 -3 -3 -3 -3 -3 -2 0 6 28 70 108 89 44 18 7 2 0 -2 -2 -3 -3 -3 -3 -3 -3 -3 -3 -3 -3 -3 -3 -3 -3 -3 -3 -3 -3 -3 -3 -3 -3 -3 -3 -3 -3 -3 -3 -3 -3 -3 -3 -3 -3 -3 -3 -3 -3 -3 -3 -2 -2 -1 -1 0 0 4 16 48 101 96 39 8 0 -3 -3 -3 -3 -3 -3 -3 -3 -3 -3 -3 -3 -3 -3 -3 -3 -3 -3 -3 -3 -3 -3 -2 0 6 26 64 103 101 66 61 100 
96 39 8 0 -3 -3 -3 -3 -3 -3 -1 3 19 56 101 101 56 20 4 0 -2 -2 -3 -3 -3 -3 -3 -3 -3 -3 -3 -3 -3 -3 -3 -3 -3 -3 -3 -3 -3 -3 -3 -3 -3 -3 -3 -3 -3 -3 -3 -3 -3 -3 -3 -3 -3 -3 -3 -3 -3 -3 -3 -3 -3 -3 -3 -3 -2 -2 0 10 41 96 96 40 8 0 -2 -3 -3 -3 -3 -3 -3 -3 -3 -3 -3 -3 -3 -3 -3 -3 -3 -3 -3 -3 -3 -3 -3 -2 0 8 31 72 108 97 81 107 
98 39 8 0 -3 -3 -3 -3 -3 -2 1 12 41 88 107 70 28 6 0 -2 -3 -3 -3 -3 -3 -3 -3 -3 -3 -3 -3 -3 -3 -3 -3 -3 -3 -3 -3 -3 -3 -3 -3 -3 -3 -3 -3 -3 -3 -3 -3 -3 -3 -3 -3 -3 -3 -3 -3 -3 -3 -3 -3 -3 -3 -3 -3 -3 -3 -2 0 8 39 95 98 43 10 0 -2 -3 -3 -3 -3 -3 -3 -3 -3 -3 -3 -3 -3 -3 -3 -3 -3 -3 -3 -3 -3 -3 -3 -3 -2 1 12 41 88 115 108 119 
100 39 8 0 -3 -3 -3 -3 -2 0 9 31 72 108 89 42 13 1 -1 -2 -2 -3 -3 -3 -3 -3 -3 -3 -3 -3 -3 -3 -3 -3 -3 -3 -3 -3 -3 -3 -3 -3 -3 -3 -3 -3 -3 -3 -3 -3 -3 -3 -3 -3 -3 -3 -3 -3 -3 -3 -3 -3 -3 -3 -3 -3 -3 -3 -3 -2 0 10 40 96 106 53 16 2 -1 -2 -3 -3 -3 -3 -3 -3 -3 -3 -3 -3 -3 -3 -3 -3 -3 -3 -3 -3 -3 -3 -3 -3 -3 -1 3 19 56 104 130 136 
102 38 8 0 -3 -3 -3 -2 0 8 29 67 108 108 66 29 11 3 0 0 0 0 0 0 0 0 -1 -1 -1 -2 -2 -2 -3 -3 -3 -3 -3 -3 -3 -3 -3 -3 -3 -3 -3 -3 -3 -3 -3 -3 -3 -3 -3 -3 -3 -3 -3 -3 -3 -3 -3 -3 -3 -3 -3 -3 -3 -3 -2 0 4 17 48 103 125 79 35 13 3 0 -2 -2 -3 -3 -3 -3 -3 -3 -3 -3 -3 -3 -3 -3 -3 -3 -3 -3 -3 -3 -3 -3 -3 -2 0 6 28 71 123 146 
103 38 8 0 -2 -3 -2 0 8 29 67 113 130 102 66 44 31 19 12 9 8 8 8 8 8 8 8 7 5 2 0 0 0 0 0 0 0 -1 -1 -1 -2 -2 -2 -3 -3 -3 -3 -3 -3 -3 -3 -3 -3 -3 -3 -3 -3 -3 -3 -3 -3 -3 -3 -3 -3 -3 -2 -1 0 6 19 41 76 122 146 120 75 42 21 9 2 0 -2 -3 -3 -3 -3 -3 -3 -3 -3 -3 -3 -3 -3 -3 -3 -3 -3 -3 -3 -3 -3 -3 -2 0 11 41 96 140 
100 39 8 0 -2 -2 0 8 29 66 114 145 140 119 103 92 80 62 48 42 40 39 39 39 39 39 38 35 28 19 12 9 8 8 8 8 8 8 7 5 2 0 0 0 0 0 0 0 0 -1 -1 -1 -2 -2 -2 -3 -3 -3 -3 -3 -3 -3 -3 -3 -2 -2 0 3 11 28 56 87 111 121 123 123 113 90 62 37 18 6 0 -1 -2 -3 -3 -3 -3 -3 -3 -3 -3 -3 -3 -3 -3 -3 -3 -3 -3 -3 -3 -3 -3 -1 3 22 67 122 
97 39 8 0 -1 0 9 29 66 106 122 115 105 100 98 102 107 107 101 97 96 95 95 95 95 95 94 89 79 62 48 42 40 39 39 39 39 38 35 28 19 12 9 8 8 8 8 8 8 8 7 5 2 0 0 0 0 0 0 0 -1 -1 -1 -1 0 2 9 21 41 70 101 108 91 69 59 69 90 107 106 86 55 28 11 3 0 -2 -2 -3 -3 -3 -3 -3 -3 -3 -3 -3 -3 -3 -3 -3 -3 -3 -3 -3 -3 -2 0 13 49 106 
96 39 8 0 1 9 29 66 103 106 77 53 43 40 42 48 62 79 89 94 95 95 95 95 95 96 97 101 107 107 101 97 96 95 95 95 95 94 89 79 62 48 42 40 39 39 39 39 39 38 35 28 19 12 9 8 8 8 8 8 8 7 5 4 7 18 37 62 89 107 100 70 42 23 17 23 39 62 89 107 100 70 41 21 9 2 0 -2 -3 -3 -3 -3 -3 -3 -3 -3 -3 -3 -3 -3 -3 -3 -3 -3 -3 -2 0 9 42 98 
95 40 10 5 12 31 67 103 103 67 33 15 10 9 9 12 19 28 35 38 39 39 39 39 39 40 42 48 62 79 89 94 95 95 95 95 96 97 101 107 107 101 97 96 95 95 95 95 95 94 89 79 62 48 42 40 39 39 39 39 38 35 30 25 33 57 86 106 106 86 55 28 12 4 1 3 9 21 41 70 100 107 89 62 37 18 6 0 -1 -2 -3 -3 -3 -3 -3 -3 -3 -3 -3 -3 -3 -3 -3 -3 -3 -3 0 8 40 96 
96 42 18 21 41 72 103 102 66 29 9 2 0 0 0 0 2 5 7 8 8 8 8 8 8 8 9 12 19 28 35 38 39 39 39 39 40 42 48 62 79 89 94 95 95 95 95 95 96 97 101 107 107 101 97 96 95 95 95 95 94 90 83 76 84 105 109 90 62 37 18 6 0 -1 -2 -1 0 3 11 28 55 86 106 106 86 55 28 11 3 0 -2 -2 -3 -3 -3 -3 -3 -3 -3 -3 -3 -3 -3 -3 -3 -3 0 8 39 95 
98 50 37 57 88 107 99 64 28 8 0 -2 -2 -3 -2 -2 -2 -1 -1 -1 0 0 0 0 0 0 0 0 2 5 7 8 8 8 8 8 8 9 12 19 28 35 38 39 39 39 39 39 40 42 48 62 79 89 94 95 95 95 95 96 98 105 119 133 134 112 74 42 21 9 2 0 -2 -3 -3 -3 -2 -1 0 6 18 37 62 89 107 100 70 41 21 9 2 0 -2 -3 -3 -3 -3 -3 -3 -3 -3 -3 -3 -3 -3 -3 0 8 39 95 
105 70 75 101 107 87 55 25 8 0 -2 -3 -3 -3 -3 -3 -3 -3 -3 -3 -3 -3 -3 -3 -3 -3 -2 -2 -2 -1 -1 -1 0 0 0 0 0 0 0 2 5 7 8 8 8 8 8 8 8 9 12 19 28 35 38 39 39 39 39 40 43 56 89 135 133 80 35 13 3 0 -2 -2 -3 -3 -3 -3 -3 -3 -2 0 2 9 21 41 70 100 107 89 62 37 18 6 0 -1 -2 -3 -3 -3 -3 -3 -3 -3 -3 -3 -3 -3 0 8 39 96 
120 104 111 105 72 41 19 6 0 -2 -3 -3 -3 -3 -3 -3 -3 -3 -3 -3 -3 -3 -3 -3 -3 -3 -3 -3 -3 -3 -3 -3 -3 -3 -3 -3 -3 -2 -2 -2 -1 -1 -1 0 0 0 0 0 0 0 0 2 5 7 8 8 8 8 8 9 11 23 57 112 111 53 16 2 -1 -2 -3 -3 -3 -3 -3 -3 -3 -3 -3 -2 -2 0 3 11 28 55 86 106 106 86 55 28 11 3 0 -2 -2 -3 -3 -3 -3 -3 -3 -3 -3 -3 0 8 39 98 
140 130 107 67 31 12 3 0 -2 -3 -3 -3 -3 -3 -3 -3 -3 -3 -3 -3 -3 -3 -3 -3 -3 -3 -3 -3 -3 -3 -3 -3 -3 -3 -3 -3 -3 -3 -3 -3 -3 -3 -3 -3 -3 -3 -3 -3 -3 -2 -2 -2 -1 -1 -1 0 0 0 0 0 1 11 44 100 100 43 10 0 -2 -3 -3 -3 -3 -3 -3 -3 -3 -3 -3 -3 -3 -2 -1 0 6 18 37 62 89 107 100 70 41 21 9 3 0 -2 -2 -3 -3 -3 -3 -3 -3 -3 0 8 39 101 
146 117 68 29 9 1 -1 -2 -3 -3 -3 -3 -3 -3 -3 -3 -3 -3 -3 -3 -3 -3 -3 -3 -3 -3 -3 -3 -3 -3 -3 -3 -3 -3 -3 -3 -3 -3 -3 -3 -3 -3 -3 -3 -3 -3 -3 -3 -3 -3 -3 -3 -3 -3 -3 -3 -3 -3 -2 -2 0 9 40 96 96 40 8 0 -2 -3 -3 -3 -3 -3 -3 -3 -3 -3 -3 -3 -3 -3 -3 -2 0 2 9 21 41 70 100 107 89 62 38 20 9 2 0 -2 -3 -3 -3 -3 -3 -3 0 8 39 103 
127 79 32 9 0 -2 -3 -3 -3 -3 -3 -3 -3 -3 -3 -3 -3 -3 -3 -3 -3 -3 -3 -3 -3 -3 -3 -3 -3 -3 -3 -3 -3 -3 -3 -3 -3 -3 -3 -3 -3 -3 -3 -3 -3 -3 -3 -3 -3 -3 -3 -3 -3 -3 -3 -3 -3 -3 -3 -2 0 8 39 95 95 39 8 0 -3 -3 -3 -3 -3 -3 -3 -3 -3 -3 -3 -3 -3 -3 -3 -3 -2 -2 0 3 11 28 55 86 106 106 88 61 37 18 6 0 -1 -2 -3 -3 -3 -2 0 8 39 101 
108 53 15 2 -2 -3 -3 -3 -3 -3 -3 -3 -3 -3 -3 -3 -3 -3 -3 -3 -3 -3 -3 -3 -3 -3 -3 -3 -3 -3 -3 -3 -3 -3 -3 -3 -3 -3 -3 -3 -3 -3 -3 -3 -3 -3 -3 -3 -3 -3 -3 -3 -3 -3 -3 -3 -3 -3 -3 -3 0 8 39 95 95 39 8 0 -3 -3 -3 -3 -3 -3 -3 -3 -3 -3 -3 -3 -3 -3 -3 -3 -3 -3 -2 -1 0 6 18 37 61 88 106 106 86 55 28 11 3 0 0 -1 -2 -2 0 8 39 98 
99 43 10 0 -2 -3 -3 -3 -3 -3 -3 -3 -3 -3 -3 -3 -3 -3 -3 -3 -3 -3 -3 -3 -3 -3 -3 -3 -3 -3 -3 -3 -3 -3 -3 -3 -3 -3 -3 -3 -3 -3 -3 -3 -3 -3 -3 -3 -3 -3 -3 -3 -3 -3 -3 -3 -3 -3 -3 -3 0 8 39 95 95 39 8 0 -3 -3 -3 -3 -3 -3 -3 -3 -3 -3 -3 -3 -3 -3 -3 -3 -3 -3 -3 -3 -2 0 2 9 20 38 63 90 108 102 71 41 22 12 8 5 2 0 1 10 40 96 
96 40 8 0 -2 -3 -3 -3 -3 -3 -3 -3 -3 -3 -3 -3 -3 -3 -3 -3 -3 -3 -3 -3 -3 -3 -3 -3 -3 -3 -3 -3 -3 -3 -3 -3 -3 -3 -3 -3 -3 -3 -3 -3 -3 -3 -3 -3 -3 -3 -3 -3 -3 -3 -3 -3 -3 -3 -3 -3 0 8 39 95 95 39 8 0 -3 -3 -3 -3 -3 -3 -3 -3 -3 -3 -3 -3 -3 -3 -3 -3 -3 -3 -3 -3 -3 -2 -1 0 3 10 23 45 77 110 117 95 67 48 38 29 19 12 10 17 44 98 
97 40 8 0 -2 -2 -3 -3 -3 -3 -3 -3 -3 -3 -3 -3 -3 -3 -3 -3 -3 -3 -3 -3 -3 -3 -3 -3 -3 -3 -3 -3 -3 -3 -3 -3 -3 -3 -3 -3 -3 -3 -3 -3 -3 -3 -3 -3 -3 -3 -3 -3 -3 -3 -3 -3 -3 -3 -3 -3 0 8 39 95 95 39 8 0 -3 -3 -3 -3 -3 -3 -3 -3 -3 -3 -3 -3 -3 -3 -3 -3 -3 -3 -3 -3 -3 -3 -2 -1 1 5 13 27 53 94 133 143 125 105 93 80 62 47 40 40 60 105 
101 41 10 1 0 0 -1 -1 -1 -2 -2 -2 -3 -3 -3 -3 -3 -3 -3 -3 -3 -3 -3 -3 -3 -3 -3 -3 -3 -3 -3 -3 -3 -3 -3 -3 -3 -3 -3 -3 -3 -3 -3 -3 -3 -3 -3 -3 -3 -3 -3 -3 -3 -3 -3 -3 -3 -3 -3 -3 0 8 39 95 95 39 8 0 -3 -3 -3 -3 -3 -3 -3 -3 -3 -3 -3 -3 -3 -3 -3 -3 -3 -3 -3 -2 -2 -1 0 3 9 19 32 49 74 107 130 128 113 103 103 108 107 100 94 89 97 124 
110 49 19 10 8 8 8 7 5 2 0 0 0 0 -1 -1 -1 -2 -2 -2 -3 -3 -3 -3 -3 -3 -3 -3 -3 -3 -3 -3 -3 -3 -3 -3 -3 -3 -3 -3 -3 -3 -3 -3 -3 -3 -3 -3 -3 -3 -3 -3 -3 -3 -3 -3 -3 -3 -3 -3 0 8 39 95 95 39 8 0 -3 -3 -3 -3 -3 -3 -3 -3 -3 -3 -3 -3 -3 -3 -3 -3 -3 -2 -2 0 2 6 11 21 38 59 81 98 109 108 91 67 50 44 49 62 80 92 101 114 131 147 
126 76 50 41 39 39 38 35 28 19 12 9 8 8 8 7 5 2 0 0 0 0 0 -1 -1 -1 -2 -2 -2 -3 -3 -3 -3 -3 -3 -3 -3 -3 -3 -3 -3 -3 -3 -3 -3 -3 -3 -3 -3 -3 -3 -3 -3 -3 -3 -3 -3 -3 -3 -3 0 8 39 95 95 39 8 0 -3 -3 -3 -3 -3 -3 -3 -3 -3 -3 -3 -3 -3 -3 -2 -2 -1 0 3 9 18 31 45 64 88 105 107 97 81 59 37 21 13 10 12 19 29 38 49 70 106 144 
147 122 103 97 95 95 94 89 79 62 48 42 40 39 38 35 28 19 12 9 8 8 8 8 7 5 2 0 0 0 0 -1 -1 -1 -2 -2 -2 -3 -3 -3 -3 -3 -3 -3 -3 -3 -3 -3 -3 -3 -3 -3 -3 -3 -3 -3 -3 -3 -3 -3 0 8 39 95 95 39 8 0 -3 -3 -3 -3 -3 -3 -3 -3 -3 -3 -3 -3 -2 -2 0 2 6 11 21 38 59 81 97 107 105 88 64 45 31 18 9 3 0 0 0 2 5 8 14 29 66 123 
144 122 103 97 96 96 97 101 107 107 101 97 96 95 94 89 79 62 48 42 40 39 39 38 35 28 19 12 9 8 8 8 7 5 2 0 0 0 0 0 -1 -1 -1 -2 -2 -2 -3 -3 -3 -3 -3 -3 -3 -3 -3 -3 -3 -3 -3 -3 0 8 39 95 95 39 8 0 -3 -3 -3 -3 -3 -3 -3 -3 -3 -3 -2 -1 0 3 9 18 31 45 64 88 105 107 97 81 59 38 21 11 6 2 0 -2 -2 -2 -2 -2 -1 0 2 13 46 109 
118 76 50 41 40 40 42 48 62 79 89 94 95 96 97 101 107 107 101 97 96 95 95 94 89 79 62 48 42 40 39 38 35 28 19 12 9 8 8 8 8 7 5 2 0 0 0 0 -1 -1 -1 -2 -2 -2 -3 -3 -3 -3 -3 -2 0 8 39 95 95 39 8 0 -3 -3 -3 -3 -3 -3 -3 -2 -2 -1 0 3 9 20 37 59 81 97 107 105 88 64 45 31 18 9 3 0 -1 -2 -2 -3 -3 -3 -3 -3 -3 -2 0 9 40 100 
102 50 20 10 8 8 9 12 19 28 35 38 39 40 42 48 62 79 89 94 95 95 96 97 101 107 107 101 97 96 95 94 89 79 62 48 42 40 39 39 38 35 28 19 12 9 8 8 8 7 5 2 0 0 0 0 0 -1 -1 -1 0 9 40 95 95 39 8 0 -3 -3 -3 -3 -3 -2 -2 0 2 6 11 21 38 62 88 105 107 97 81 59 38 21 11 6 2 0 -2 -2 -3 -3 -3 -3 -3 -3 -3 -3 -3 -2 0 8 39 96 
97 41 10 1 0 0 0 0 2 5 7 8 8 8 9 12 19 28 35 38 39 39 40 42 48 62 79 89 94 95 96 97 101 107 107 101 97 96 95 95 94 89 79 62 48 42 40 39 38 35 28 19 12 9 8 8 8 8 7 5 4 12 42 97 96 40 8 0 -2 -3 -2 -2 -1 0 3 9 18 31 45 64 89 106 106 89 64 45 31 18 9 3 0 -1 -2 -2 -3 -3 -3 -3 -3 -3 -3 -3 -3 -3 -3 -3 0 8 39 95 
95 40 8 0 -2 -2 -2 -2 -2 -1 -1 -1 0 0 0 0 2 5 7 8 8 8 8 9 12 19 28 35 38 39 40 42 48 62 79 89 94 95 95 96 97 101 107 107 101 97 96 95 94 89 79 62 48 42 40 39 39 38 35 28 21 24 51 103 100 43 10 0 -2 -1 0 2 6 11 21 38 59 81 97 107 105 88 62 38 21 11 6 2 0 -2 -2 -3 -3 -3 -3 -3 -3 -3 -3 -3 -3 -3 -3 -3 -3 -3 0 8 39 95 
95 39 8 0 -2 -3 -3 -3 -3 -3 -3 -3 -3 -3 -2 -2 -2 -1 -1 -1 0 0 0 0 0 2 5 7 8 8 8 9 12 19 28 35 38 39 39 40 42 48 62 79 89 94 95 96 97 101 107 107 101 97 96 95 95 94 89 79 64 59 78 121 113 53 16 3 1 3 9 18 31 45 64 88 105 107 97 81 59 37 20 9 3 0 -1 -2 -2 -3 -3 -3 -3 -3 -3 -3 -3 -3 -3 -3 -3 -3 -3 -3 -3 -3 0 8 39 95 
95 39 8 0 -3 -3 -3 -3 -3 -3 -3 -3 -3 -3 -3 -3 -3 -3 -3 -3 -3 -3 -3 -2 -2 -2 -1 -1 -1 0 0 0 0 2 5 7 8 8 8 8 9 12 19 28 35 38 39 40 42 48 62 79 89 94 95 95 96 97 101 107 108 108 120 144 133 80 36 18 15 22 38 59 81 97 107 105 88 64 45 31 18 9 3 0 -1 -2 -3 -3 -3 -3 -3 -3 -3 -3 -3 -3 -3 -3 -3 -3 -3 -3 -3 -3 -3 -3 0 8 39 95 
95 39 8 0 -3 -3 -3 -3 -3 -3 -3 -3 -3 -3 -3 -3 -3 -3 -3 -3 -3 -3 -3 -3 -3 -3 -3 -3 -3 -3 -3 -2 -2 -2 -1 -1 -1 0 0 0 0 0 2 5 7 8 8 8 9 12 19 28 35 38 39 39 40 42 48 62 79 91 101 116 127 113 80 56 53 66 89 105 107 97 81 59 38 21 11 6 2 0 -2 -2 -3 -3 -3 -3 -3 -3 -3 -3 -3 -3 -3 -3 -3 -3 -3 -3 -3 -3 -3 -3 -3 -3 0 8 39 95 
95 39 8 0 -3 -3 -3 -3 -3 -3 -3 -3 -3 -3 -3 -3 -3 -3 -3 -3 -3 -3 -3 -3 -3 -3 -3 -3 -3 -3 -3 -3 -3 -3 -3 -3 -3 -3 -3 -3 -2 -2 -2 -1 -1 -1 0 0 0 0 2 5 7 8 8 8 8 9 12 19 28 35 41 53 79 113 128 119 110 110 106 88 64 45 31 18 9 3 0 -1 -2 -2 -3 -3 -3 -3 -3 -3 -3 -3 -3 -3 -3 -3 -3 -3 -3 -3 -3 -3 -3 -3 -3 -3 -3 -3 0 8 39 95 
95 39 8 0 -2 -3 -3 -3 -3 -3 -3 -3 -3 -3 -3 -3 -3 -3 -3 -3 -3 -3 -3 -3 -3 -3 -3 -3 -3 -3 -3 -3 -3 -3 -3 -3 -3 -3 -3 -3 -3 -3 -3 -3 -3 -2 -2 -2 -2 -2 -2 -1 -1 0 0 0 0 0 0 2 5 7 10 16 36 80 133 143 114 86 60 38 21 11 6 2 0 -1 -2 -3 -3 -3 -3 -3 -3 -3 -3 -3 -3 -3 -3 -3 -3 -3 -3 -3 -3 -3 -3 -3 -3 -3 -3 -3 -3 -2 0 8 39 95 
95 39 8 0 -2 -2 -3 -3 -3 -3 -3 -3 -3 -3 -3 -3 -3 -3 -3 -3 -3 -3 -3 -3 -3 -3 -3 -3 -3 -3 -3 -3 -3 -3 -3 -3 -3 -3 -3 -3 -3 -3 -3 -3 -2 -2 -2 -2 -2 -2 -2 -2 -2 -2 -2 -2 -2 -2 -2 -1 -1 0 0 4 17 54 113 120 72 39 20 9 3 0 0 -1 -2 -2 -2 -2 -3 -3 -3 -3 -3 -3 -3 -3 -3 -3 -3 -3 -3 -3 -3 -3 -3 -3 -3 -3 -3 -3 -3 -3 -2 -2 0 8 39 95 
97 41 10 1 0 0 0 0 0 0 0 0 0 0 0 0 0 0 0 0 0 0 0 0 0 0 0 0 0 0 0 0 0 0 0 0 0 0 0 0 0 0 0 0 0 0 0 0 0 0 0 0 0 0 0 0 0 0 0 0 0 0 0 2 12 45 102 104 51 19 6 2 0 0 0 0 0 0 0 0 0 0 0 0 0 0 0 0 0 0 0 0 0 0 0 0 0 0 0 0 0 0 0 0 0 0 1 10 41 97 
103 50 20 10 8 8 8 8 8 8 8 8 8 8 8 8 8 8 8 8 8 8 8 8 8 8 8 8 8 8 8 8 8 8 8 8 8 8 8 8 8 8 8 8 8 8 8 8 8 8 8 8 8 8 8 8 8 8 8 8 8 8 9 11 20 50 104 105 52 21 12 9 8 8 8 8 8 8 8 8 8 8 8 8 8 8 8 8 8 8 8 8 8 8 8 8 8 8 8 8 8 8 8 8 8 8 10 20 50 103 
122 76 50 41 39 39 39 39 39 39 39 39 39 39 39 39 39 39 39 39 39 39 39 39 39 39 39 39 39 39 39 39 39 39 39 39 39 39 39 39 39 39 39 39 39 39 39 39 39 39 39 39 39 39 39 39 39 39 39 39 39 39 40 41 50 76 122 122 76 50 42 40 39 39 39 39 39 39 39 39 39 39 39 39 39 39 39 39 39 39 39 39 39 39 39 39 39 39 39 39 39 39 39 39 39 39 41 50 76 122 
154 122 103 97 95 95 95 95 95 95 95 95 95 95 95 95 95 95 95 95 95 95 95 95 95 95 95 95 95 95 96 98 101 103 101 98 96 95 95 95 95 95 95 95 95 95 95 96 99 103 103 99 96 95 95 95 95 95 95 95 95 95 95 97 102 117 142 142 117 102 97 95 95 95 95 95 95 95 95 95 95 95 95 95 95 95 95 95 95 96 97 101 103 101 98 96 95 95 95 95 95 96 97 101 103 102 99 104 122 155 
