P2
110 110
255
129 82 73 72 72 72 72 72 72 72 72 72 72 72 72 72 72 72 72 72 72 72 72 72 72 72 72 72 72 72 73 77 100 148 116 79 73 72 72 72 72 72 72 72 72 72 72 73 81 126 126 81 73 72 72 72 72 72 72 72 72 72 72 72 72 73 75 75 73 72 72 72 72 72 72 72 72 72 72 72 72 72 72 72 72 72 72 72 72 73 75 95 148 116 79 73 72 72 72 72 72 73 75 94 148 116 79 74 82 129 
82 18 6 5 5 5 5 5 5 5 5 5 5 5 5 5 5 5 5 5 5 5 5 5 5 5 5 5 5 6 9 32 105 100 29 8 6 5 5 5 5 5 5 5 5 5 5 7 18 83 82 18 6 5 5 5 5 5 5 5 5 5 5 5 5 5 5 5 5 5 5 5 5 5 5 5 5 5 5 5 5 5 5 5 5 5 5 5 5 7 18 78 106 31 9 6 5 5 5 5 5 6 16 72 107 32 9 7 18 82 
73 6 -5 -6 -6 -6 -6 -6 -6 -6 -6 -6 -6 -6 -6 -6 -6 -6 -6 -6 -6 -6 -6 -6 -6 -6 -6 -6 -6 -4 7 67 103 29 0 -5 -6 -6 -6 -6 -6 -6 -6 -6 -6 -6 -6 -4 9 80 74 6 -5 -6 -6 -6 -6 -6 -6 -6 -6 -6 -6 -6 -6 -6 -6 -6 -6 -6 -6 -6 -6 -6 -6 -6 -6 -6 -6 -6 -6 -6 -6 -6 -6 -6 -6 -6 -5 -2 22 102 67 6 -4 -6 -6 -6 -6 -6 -6 -5 6 72 78 9 -4 -4 6 73 
72 5 -6 -7 -7 -7 -7 -7 -7 -7 -7 -7 -7 -7 -7 -7 -7 -7 -7 -7 -7 -7 -7 -7 -7 -7 -7 -7 -6 -1 28 102 66 6 -5 -7 -7 -7 -7 -7 -7 -7 -7 -7 -7 -7 -7 -3 22 114 75 5 -6 -7 -7 -7 -7 -7 -7 -7 -7 -7 -7 -7 -7 -7 -7 -7 -7 -7 -7 -7 -7 -7 -7 -7 -7 -7 -7 -7 -7 -7 -7 -7 -7 -7 -7 -7 -6 3 61 102 22 -3 -7 -7 -7 -7 -7 -7 -7 -5 8 78 71 5 -6 -6 5 72 
72 5 -6 -7 -7 -7 -7 -7 -7 -7 -7 -7 -7 -7 -7 -7 -7 -7 -7 -7 -7 -7 -7 -7 -7 -7 -7 -7 -3 20 95 95 20 -3 -7 -7 -7 -7 -7 -7 -7 -7 -7 -7 -7 -7 -6 5 68 151 76 5 -6 -7 -7 -7 -7 -7 -7 -7 -7 -7 -7 -7 -7 -7 -7 -7 -7 -7 -7 -7 -7 -7 -7 -7 -7 -7 -7 -7 -7 -7 -7 -7 -7 -7 -7 -7 -5 7 76 76 7 -5 -7 -7 -7 -7 -7 -7 -7 -3 21 102 61 3 -6 -6 5 72 
72 5 -6 -7 -7 -7 -7 -7 -7 -7 -7 -7 -7 -7 -7 -7 -7 -7 -7 -7 -7 -7 -7 -7 -7 -7 -7 -5 6 66 102 28 -1 -6 -7 -7 -7 -7 -7 -7 -7 -7 -7 -7 -7 -7 -3 22 105 131 75 5 -6 -7 -7 -7 -7 -7 -7 -7 -7 -7 -7 -7 -7 -7 -7 -7 -7 -7 -7 -7 -7 -7 -7 -7 -7 -7 -7 -7 -7 -7 -7 -7 -7 -7 -7 -7 -3 22 102 61 3 -6 -7 -7 -7 -7 -7 -7 -6 3 61 102 21 -3 -7 -6 5 72 
72 5 -6 -7 -7 -7 -7 -7 -7 -7 -7 -7 -7 -7 -7 -7 -7 -7 -7 -7 -7 -7 -7 -7 -7 -7 -6 -1 28 102 66 6 -5 -7 -7 -7 -7 -7 -7 -7 -7 -7 -7 -7 -7 -6 5 67 111 97 74 5 -6 -7 -7 -7 -7 -7 -7 -7 -7 -7 -7 -7 -7 -7 -7 -7 -7 -7 -7 -7 -7 -7 -7 -7 -7 -7 -7 -7 -7 -7 -7 -7 -7 -7 -7 -6 5 66 101 21 -3 -7 -7 -7 -7 -7 -7 -7 -6 5 71 77 8 -5 -7 -6 5 72 
72 5 -6 -7 -7 -7 -7 -7 -7 -7 -7 -7 -7 -7 -7 -7 -7 -7 -7 -7 -7 -7 -7 -7 -7 -7 -3 20 95 95 20 -3 -7 -7 -7 -7 -7 -7 -7 -7 -7 -7 -7 -7 -7 -3 22 102 77 82 78 8 -5 -7 -7 -7 -7 -7 -7 -7 -7 -7 -7 -7 -7 -7 -7 -7 -7 -7 -7 -7 -7 -7 -7 -7 -7 -7 -7 -7 -7 -7 -7 -7 -7 -7 -7 -3 21 101 66 5 -6 -7 -7 -7 -7 -7 -7 -7 -5 8 77 71 5 -6 -7 -6 5 72 
72 5 -6 -7 -7 -7 -7 -7 -7 -7 -7 -7 -7 -7 -7 -7 -7 -7 -7 -7 -7 -7 -7 -7 -7 -5 6 66 102 28 -1 -6 -7 -7 -7 -7 -7 -7 -7 -7 -7 -7 -7 -7 -5 6 67 102 32 64 102 21 -3 -7 -7 -7 -7 -7 -7 -7 -7 -7 -7 -7 -7 -7 -7 -7 -7 -7 -7 -7 -7 -7 -7 -7 -7 -7 -7 -7 -7 -7 -7 -7 -7 -7 -6 3 61 102 22 -3 -7 -7 -7 -7 -7 -7 -7 -7 -3 21 102 61 3 -6 -7 -6 5 72 
72 5 -6 -7 -7 -7 -7 -7 -7 -7 -7 -7 -7 -7 -7 -7 -7 -7 -7 -7 -7 -7 -7 -7 -6 -1 28 102 66 6 -5 -7 -7 -7 -7 -7 -7 -7 -7 -7 -7 -7 -7 -6 -1 28 102 66 9 22 102 61 3 -6 -7 -7 -7 -7 -7 -7 -7 -7 -7 -7 -7 -7 -7 -7 -7 -7 -7 -7 -7 -7 -7 -7 -7 -7 -7 -7 -7 -7 -7 -7 -7 -7 -5 7 76 76 7 -5 -7 -7 -7 -7 -7 -7 -7 -6 3 61 102 21 -3 -7 -7 -6 5 72 
72 5 -6 -7 -7 -7 -7 -7 -7 -7 -7 -7 -7 -7 -7 -7 -7 -7 -7 -7 -7 -7 -7 -7 -3 20 95 95 20 -3 -7 -7 -7 -7 -7 -7 -7 -7 -7 -7 -7 -7 -7 -3 20 95 95 20 -2 8 78 71 5 -6 -7 -7 -7 -7 -7 -7 -7 -7 -7 -7 -7 -7 -7 -7 -7 -7 -7 -7 -7 -7 -7 -7 -7 -7 -7 -7 -7 -7 -7 -7 -7 -7 -3 22 102 61 3 -6 -7 -7 -7 -7 -7 -7 -7 -6 5 71 77 8 -5 -7 -7 -6 5 72 
72 5 -6 -7 -7 -7 -7 -7 -7 -7 -7 -7 -7 -7 -7 -7 -7 -7 -7 -7 -7 -7 -7 -5 6 66 102 28 -1 -6 -7 -7 -7 -7 -7 -7 -7 -7 -7 -7 -7 -7 -6 5 66 102 28 -1 -5 6 73 72 5 -6 -7 -7 -7 -7 -7 -7 -7 -7 -7 -7 -7 -7 -7 -7 -7 -7 -7 -7 -7 -7 -7 -7 -7 -7 -7 -7 -7 -7 -7 -7 -7 -6 5 66 101 21 -3 -7 -7 -7 -7 -7 -7 -7 -7 -5 8 77 71 5 -6 -7 -7 -6 5 72 
73 6 -6 -7 -7 -7 -7 -7 -7 -7 -7 -7 -7 -7 -7 -7 -7 -7 -7 -7 -7 -7 -6 -1 28 102 66 6 -5 -7 -7 -7 -7 -7 -7 -7 -7 -7 -7 -7 -7 -7 -3 22 101 67 6 -5 -6 5 72 72 5 -6 -7 -7 -7 -7 -7 -7 -7 -7 -7 -7 -7 -7 -7 -7 -7 -7 -7 -7 -7 -7 -7 -7 -7 -7 -7 -7 -7 -7 -7 -7 -7 -3 21 101 66 5 -6 -7 -7 -7 -7 -7 -7 -7 -7 -3 21 102 61 3 -6 -7 -7 -6 5 72 
79 8 -5 -7 -7 -7 -7 -7 -7 -7 -7 -7 -7 -7 -7 -7 -7 -7 -7 -7 -7 -7 -3 20 95 95 20 -3 -7 -7 -7 -7 -7 -7 -7 -7 -7 -7 -7 -7 -7 -6 5 66 101 22 -3 -7 -6 5 72 73 5 -6 -7 -7 -7 -7 -7 -7 -7 -7 -7 -7 -7 -7 -7 -7 -7 -7 -7 -7 -7 -7 -7 -7 -7 -7 -7 -7 -7 -7 -7 -7 -6 3 61 102 22 -3 -7 -7 -7 -7 -7 -7 -7 -7 -6 3 61 102 21 -3 -7 -7 -7 -6 5 73 
116 29 0 -6 -7 -7 -7 -7 -7 -7 -7 -7 -7 -7 -7 -7 -7 -7 -7 -7 -7 -5 6 66 102 28 -1 -6 -7 -7 -7 -7 -7 -7 -7 -7 -7 -7 -7 -7 -7 -3 22 101 66 5 -6 -7 -6 5 71 78 8 -5 -7 -7 -7 -7 -7 -7 -7 -7 -7 -7 -7 -7 -7 -7 -7 -7 -7 -7 -7 -7 -7 -7 -7 -7 -7 -7 -7 -7 -7 -7 -5 7 76 76 7 -5 -7 -7 -7 -7 -7 -7 -7 -7 -6 5 71 77 8 -5 -7 -7 -7 -6 5 75 
148 100 27 -1 -6 -7 -7 -7 -7 -7 -7 -7 -7 -7 -7 -7 -7 -7 -7 -7 -6 -1 28 102 66 6 -5 -7 -7 -7 -7 -7 -7 -7 -7 -7 -7 -7 -7 -7 -5 6 67 101 22 -3 -7 -7 -6 3 61 102 21 -3 -7 -7 -7 -7 -7 -7 -7 -7 -7 -7 -7 -7 -7 -7 -7 -7 -7 -7 -7 -7 -7 -7 -7 -7 -7 -7 -7 -7 -7 -7 -3 22 102 61 3 -6 -7 -7 -7 -7 -7 -7 -7 -7 -5 8 77 71 5 -6 -7 -7 -7 -6 5 76 
101 106 96 26 -1 -6 -7 -7 -7 -7 -7 -7 -7 -7 -7 -7 -7 -7 -7 -7 -3 20 95 95 20 -3 -7 -7 -7 -7 -7 -7 -7 -7 -7 -7 -7 -7 -7 -6 -1 28 102 66 5 -6 -7 -7 -7 -3 21 102 61 3 -6 -7 -7 -7 -7 -7 -7 -7 -7 -7 -7 -7 -7 -7 -7 -7 -7 -7 -7 -7 -7 -7 -7 -7 -7 -7 -7 -7 -7 -6 5 66 101 21 -3 -7 -7 -7 -7 -7 -7 -7 -7 -7 -3 21 102 61 3 -6 -7 -7 -7 -6 5 73 
78 39 97 95 20 -3 -7 -7 -7 -7 -7 -7 -7 -7 -7 -7 -7 -7 -7 -5 6 66 102 28 -1 -6 -7 -7 -7 -7 -7 -7 -7 -7 -7 -7 -7 -7 -7 -3 20 95 95 20 -3 -7 -7 -7 -7 -5 8 78 71 5 -6 -7 -7 -7 -7 -7 -7 -7 -7 -7 -7 -7 -7 -7 -7 -7 -7 -7 -7 -7 -7 -7 -7 -7 -7 -7 -7 -7 -7 -3 21 101 66 5 -6 -7 -7 -7 -7 -7 -7 -7 -7 -6 3 61 102 21 -3 -7 -7 -7 -7 -6 5 73 
73 12 30 102 66 6 -5 -7 -7 -7 -7 -7 -7 -7 -7 -7 -7 -7 -6 -1 28 102 66 6 -5 -7 -7 -7 -7 -7 -7 -7 -7 -7 -7 -7 -7 -7 -6 5 66 102 28 -1 -6 -7 -7 -7 -7 -6 5 73 72 5 -6 -7 -7 -7 -7 -7 -7 -7 -7 -7 -7 -7 -7 -7 -7 -7 -7 -7 -7 -7 -7 -7 -7 -7 -7 -7 -7 -7 -6 3 61 102 22 -3 -7 -7 -7 -7 -7 -7 -7 -7 -7 -6 5 71 77 8 -5 -7 -7 -7 -7 -6 5 72 
72 7 7 66 102 28 0 -6 -7 -7 -7 -7 -7 -7 -7 -7 -7 -7 -3 20 95 95 20 -3 -7 -7 -7 -7 -7 -7 -7 -7 -7 -7 -7 -7 -7 -7 -3 22 101 67 6 -5 -7 -7 -7 -7 -7 -6 5 72 72 5 -6 -7 -7 -7 -7 -7 -7 -7 -7 -7 -7 -7 -7 -7 -7 -7 -7 -7 -7 -7 -7 -7 -7 -7 -7 -7 -7 -7 -5 7 76 76 7 -5 -7 -7 -7 -7 -7 -7 -7 -7 -7 -5 8 77 71 5 -6 -7 -7 -7 -7 -6 5 72 
72 6 -2 20 95 96 27 0 -6 -7 -7 -7 -7 -7 -7 -7 -7 -5 6 66 102 28 -1 -6 -7 -7 -7 -7 -7 -7 -7 -7 -7 -7 -7 -7 -7 -6 5 66 101 22 -3 -7 -7 -7 -7 -7 -7 -6 5 72 73 5 -6 -7 -7 -7 -7 -7 -7 -7 -7 -7 -7 -7 -7 -7 -7 -7 -7 -7 -7 -7 -7 -7 -7 -7 -7 -7 -7 -7 -3 22 102 61 3 -6 -7 -7 -7 -7 -7 -7 -7 -7 -7 -3 21 102 61 3 -6 -7 -7 -7 -7 -6 5 72 
72 5 -5 -1 26 96 96 27 0 -6 -7 -7 -7 -7 -7 -7 -6 -1 28 102 66 6 -5 -7 -7 -7 -7 -7 -7 -7 -7 -7 -7 -7 -7 -7 -7 -3 22 101 66 5 -6 -7 -7 -7 -7 -7 -7 -6 5 71 78 8 -5 -7 -7 -7 -7 -7 -7 -7 -7 -7 -7 -7 -7 -7 -7 -7 -7 -7 -7 -7 -7 -7 -7 -7 -7 -7 -7 -6 5 66 101 21 -3 -7 -7 -7 -7 -7 -7 -7 -7 -7 -6 3 61 102 21 -3 -7 -7 -7 -7 -7 -6 5 72 
72 5 -6 -6 0 27 96 96 27 0 -6 -7 -7 -7 -7 -7 -3 20 95 95 20 -3 -7 -7 -7 -7 -7 -7 -7 -7 -7 -7 -7 -7 -7 -7 -5 6 67 101 22 -3 -7 -7 -7 -7 -7 -7 -7 -6 3 61 102 21 -3 -7 -7 -7 -7 -7 -7 -7 -7 -7 -7 -7 -7 -7 -7 -7 -7 -7 -7 -7 -7 -7 -7 -7 -7 -7 -7 -3 21 101 66 5 -6 -7 -7 -7 -7 -7 -7 -7 -7 -7 -6 5 71 77 8 -5 -7 -7 -7 -7 -7 -6 5 72 
72 5 -6 -7 -6 0 27 96 96 27 0 -6 -7 -7 -7 -5 6 66 102 28 -1 -6 -7 -7 -7 -7 -7 -7 -7 -7 -7 -7 -7 -7 -7 -6 -1 28 102 66 5 -6 -7 -7 -7 -7 -7 -7 -7 -7 -3 21 102 61 3 -6 -7 -7 -7 -7 -7 -7 -7 -7 -7 -7 -7 -7 -7 -7 -7 -7 -7 -7 -7 -7 -7 -7 -7 -7 -6 3 61 102 22 -3 -7 -7 -7 -7 -7 -7 -7 -7 -7 -7 -5 8 77 71 5 -6 -7 -7 -7 -7 -7 -6 5 72 
72 5 -6 -7 -7 -6 0 27 96 96 27 0 -6 -7 -6 -1 28 102 66 6 -5 -7 -7 -7 -7 -7 -7 -7 -7 -7 -7 -7 -7 -7 -7 -3 20 95 95 20 -3 -7 -7 -7 -7 -7 -7 -7 -7 -7 -5 8 78 71 5 -6 -7 -7 -7 -7 -7 -7 -7 -7 -7 -7 -7 -7 -7 -7 -7 -7 -7 -7 -7 -7 -7 -7 -7 -7 -5 7 76 76 7 -5 -7 -7 -7 -7 -7 -7 -7 -7 -7 -7 -3 21 102 61 3 -6 -7 -7 -7 -7 -7 -6 5 72 
72 5 -6 -7 -7 -7 -6 0 27 96 96 27 0 -6 -3 20 95 95 20 -3 -7 -7 -7 -7 -7 -7 -7 -7 -7 -7 -7 -7 -7 -7 -6 5 66 102 28 -1 -6 -7 -7 -7 -7 -7 -7 -7 -7 -7 -6 5 73 72 5 -6 -7 -7 -7 -7 -7 -7 -7 -7 -7 -7 -7 -7 -7 -7 -7 -7 -7 -7 -7 -7 -7 -7 -7 -7 -3 22 102 61 3 -6 -7 -7 -7 -7 -7 -7 -7 -7 -7 -6 3 61 102 21 -3 -7 -7 -7 -7 -7 -7 -6 5 72 
72 5 -6 -7 -7 -7 -7 -6 0 27 96 96 27 0 7 66 102 28 -1 -6 -7 -7 -7 -7 -7 -7 -7 -7 -7 -7 -7 -7 -7 -7 -3 22 101 67 6 -5 -7 -7 -7 -7 -7 -7 -7 -7 -7 -7 -6 5 72 73 5 -6 -7 -7 -7 -7 -7 -7 -7 -7 -7 -7 -7 -7 -7 -7 -7 -7 -7 -7 -7 -7 -7 -7 -7 -6 5 66 101 21 -3 -7 -7 -7 -7 -7 -7 -7 -7 -7 -7 -6 5 71 77 8 -5 -7 -7 -7 -7 -7 -7 -6 5 72 
72 5 -6 -7 -7 -7 -7 -7 -6 0 27 96 96 32 34 103 66 6 -5 -7 -7 -7 -7 -7 -7 -7 -7 -7 -7 -7 -7 -7 -7 -6 5 66 101 22 -3 -7 -7 -7 -7 -7 -7 -7 -7 -7 -7 -7 -6 5 71 78 8 -5 -7 -7 -7 -7 -7 -7 -7 -7 -7 -7 -7 -7 -7 -7 -7 -7 -7 -7 -7 -7 -7 -7 -7 -3 21 101 66 5 -6 -7 -7 -7 -7 -7 -7 -7 -7 -7 -7 -5 8 77 71 5 -6 -7 -7 -7 -7 -7 -7 -6 5 72 
72 5 -6 -7 -7 -7 -7 -7 -7 -6 0 27 97 115 115 96 20 -3 -7 -7 -7 -7 -7 -7 -7 -7 -7 -7 -7 -7 -7 -7 -7 -3 22 101 66 5 -6 -7 -7 -7 -7 -7 -7 -7 -7 -7 -7 -7 -6 3 61 102 21 -3 -7 -7 -7 -7 -7 -7 -7 -7 -7 -7 -7 -7 -7 -7 -7 -7 -7 -7 -7 -7 -7 -7 -6 3 61 102 22 -3 -7 -7 -7 -7 -7 -7 -7 -7 -7 -7 -7 -3 21 102 61 3 -6 -7 -7 -7 -7 -7 -7 -6 5 72 
72 5 -6 -7 -7 -7 -7 -7 -7 -7 -6 0 29 116 116 29 -1 -6 -7 -7 -7 -7 -7 -7 -7 -7 -7 -7 -7 -7 -7 -7 -5 6 67 101 22 -3 -7 -7 -7 -7 -7 -7 -7 -7 -7 -7 -7 -7 -7 -3 21 102 61 3 -6 -7 -7 -7 -7 -7 -7 -7 -7 -7 -7 -7 -7 -7 -7 -7 -7 -7 -7 -7 -7 -7 -5 7 76 76 7 -5 -7 -7 -7 -7 -7 -7 -7 -7 -7 -7 -6 3 61 102 21 -3 -7 -7 -7 -7 -7 -7 -7 -6 5 72 
72 5 -6 -7 -7 -7 -7 -7 -7 -7 -7 -5 8 80 80 9 -5 -7 -7 -7 -7 -7 -7 -7 -7 -7 -7 -7 -7 -7 -7 -6 -1 28 102 66 5 -6 -7 -7 -7 -7 -7 -7 -7 -7 -7 -7 -7 -7 -7 -5 8 78 71 5 -6 -7 -7 -7 -7 -7 -7 -7 -7 -7 -7 -7 -7 -7 -7 -7 -7 -7 -7 -7 -7 -7 -3 22 102 61 3 -6 -7 -7 -7 -7 -7 -7 -7 -7 -7 -7 -6 5 71 77 8 -5 -7 -7 -7 -7 -7 -7 -7 -6 5 72 
72 5 -6 -7 -7 -7 -7 -7 -7 -7 -7 -6 5 71 78 8 -5 -7 -7 -7 -7 -7 -7 -7 -7 -7 -7 -7 -7 -7 -7 -3 20 95 95 20 -3 -7 -7 -7 -7 -7 -7 -7 -7 -7 -7 -7 -7 -7 -7 -6 5 73 72 5 -6 -7 -7 -7 -7 -7 -7 -7 -7 -7 -7 -7 -7 -7 -7 -7 -7 -7 -7 -7 -7 -6 5 66 101 21 -3 -7 -7 -7 -7 -7 -7 -7 -7 -7 -7 -7 -5 8 77 71 5 -6 -7 -7 -7 -7 -7 -7 -7 -6 5 72 
72 5 -6 -7 -7 -7 -7 -7 -7 -7 -7 -6 3 61 102 21 -3 -7 -7 -7 -7 -7 -7 -7 -7 -7 -7 -7 -7 -7 -6 5 66 102 28 -1 -6 -7 -7 -7 -7 -7 -7 -7 -7 -7 -7 -7 -7 -7 -7 -6 5 72 72 5 -6 -7 -7 -7 -7 -7 -7 -7 -7 -7 -7 -7 -7 -7 -7 -7 -7 -7 -7 -7 -7 -3 21 101 66 5 -6 -7 -7 -7 -7 -7 -7 -7 -7 -7 -7 -7 -3 21 102 61 3 -6 -7 -7 -7 -7 -7 -7 -7 -6 5 72 
72 5 -6 -7 -7 -7 -7 -7 -7 -7 -7 -7 -3 21 102 61 3 -6 -7 -7 -7 -7 -7 -7 -7 -7 -7 -7 -7 -7 -3 22 101 67 6 -5 -7 -7 -7 -7 -7 -7 -7 -7 -7 -7 -7 -7 -7 -7 -7 -6 5 72 73 5 -6 -7 -7 -7 -7 -7 -7 -7 -7 -7 -7 -7 -7 -7 -7 -7 -7 -7 -7 -7 -6 3 61 102 22 -3 -7 -7 -7 -7 -7 -7 -7 -7 -7 -7 -7 -6 3 61 102 21 -3 -7 -7 -7 -7 -7 -7 -7 -7 -6 5 72 
72 5 -6 -7 -7 -7 -7 -7 -7 -7 -7 -7 -5 8 78 71 5 -6 -7 -7 -7 -7 -7 -7 -7 -7 -7 -7 -7 -6 5 66 101 22 -3 -7 -7 -7 -7 -7 -7 -7 -7 -7 -7 -7 -7 -7 -7 -7 -7 -6 5 71 78 8 -5 -7 -7 -7 -7 -7 -7 -7 -7 -7 -7 -7 -7 -7 -7 -7 -7 -7 -7 -7 -5 7 76 76 7 -5 -7 -7 -7 -7 -7 -7 -7 -7 -7 -7 -7 -6 5 71 77 8 -5 -7 -7 -7 -7 -7 -7 -7 -7 -6 5 72 
72 5 -6 -7 -7 -7 -7 -7 -7 -7 -7 -7 -6 5 73 73 5 -6 -7 -7 -7 -7 -7 -7 -7 -7 -7 -7 -7 -3 22 101 66 5 -6 -7 -7 -7 -7 -7 -7 -7 -7 -7 -7 -7 -7 -7 -7 -7 -7 -6 3 61 102 21 -3 -7 -7 -7 -7 -7 -7 -7 -7 -7 -7 -7 -7 -7 -7 -7 -7 -7 -7 -7 -3 22 102 61 3 -6 -7 -7 -7 -7 -7 -7 -7 -7 -7 -7 -7 -5 8 77 71 5 -6 -7 -7 -7 -7 -7 -7 -7 -7 -6 5 73 
73 5 -6 -7 -7 -7 -7 -7 -7 -7 -7 -7 -6 5 71 78 8 -5 -7 -7 -7 -7 -7 -7 -7 -7 -7 -7 -5 6 67 101 22 -3 -7 -7 -7 -7 -7 -7 -7 -7 -7 -7 -7 -7 -7 -7 -7 -7 -7 -7 -3 21 102 61 3 -6 -7 -7 -7 -7 -7 -7 -7 -7 -7 -7 -7 -7 -7 -7 -7 -7 -7 -6 5 66 101 21 -3 -7 -7 -7 -7 -7 -7 -7 -7 -7 -7 -7 -7 -3 21 102 61 3 -6 -7 -7 -7 -7 -7 -7 -7 -7 -5 8 79 
75 5 -6 -7 -7 -7 -7 -7 -7 -7 -7 -7 -6 3 61 102 21 -3 -7 -7 -7 -7 -7 -7 -7 -7 -7 -6 -1 28 102 66 5 -6 -7 -7 -7 -7 -7 -7 -7 -7 -7 -7 -7 -7 -7 -7 -7 -7 -7 -7 -5 8 78 71 5 -6 -7 -7 -7 -7 -7 -7 -7 -7 -7 -7 -7 -7 -7 -7 -7 -7 -7 -3 21 101 66 5 -6 -7 -7 -7 -7 -7 -7 -7 -7 -7 -7 -7 -6 3 61 102 21 -3 -7 -7 -7 -7 -7 -7 -7 -7 -7 -3 22 114 
76 5 -6 -7 -7 -7 -7 -7 -7 -7 -7 -7 -7 -3 21 102 61 3 -6 -7 -7 -7 -7 -7 -7 -7 -7 -3 20 95 95 20 -3 -7 -7 -7 -7 -7 -7 -7 -7 -7 -7 -7 -7 -7 -7 -7 -7 -7 -7 -7 -6 5 73 72 5 -6 -7 -7 -7 -7 -7 -7 -7 -7 -7 -7 -7 -7 -7 -7 -7 -7 -6 3 61 102 22 -3 -7 -7 -7 -7 -7 -7 -7 -7 -7 -7 -7 -7 -6 5 71 77 8 -5 -7 -7 -7 -7 -7 -7 -7 -7 -5 6 68 151 
75 5 -6 -7 -7 -7 -7 -7 -7 -7 -7 -7 -7 -5 8 78 71 5 -6 -7 -7 -7 -7 -7 -7 -7 -6 5 66 102 28 -1 -6 -7 -7 -7 -7 -7 -7 -7 -7 -7 -7 -7 -7 -7 -7 -7 -7 -7 -7 -7 -6 5 72 72 5 -6 -7 -7 -7 -7 -7 -7 -7 -7 -7 -7 -7 -7 -7 -7 -7 -7 -5 7 76 76 7 -5 -7 -7 -7 -7 -7 -7 -7 -7 -7 -7 -7 -7 -5 8 77 71 5 -6 -7 -7 -7 -7 -7 -7 -7 -6 -1 28 106 131 
73 5 -6 -7 -7 -7 -7 -7 -7 -7 -7 -7 -7 -6 5 73 73 5 -6 -7 -7 -7 -7 -7 -7 -7 -3 22 101 67 6 -5 -7 -7 -7 -7 -7 -7 -7 -7 -7 -7 -7 -7 -7 -7 -7 -7 -7 -7 -7 -7 -6 5 72 73 5 -6 -7 -7 -7 -7 -7 -7 -7 -7 -7 -7 -7 -7 -7 -7 -7 -7 -3 22 102 61 3 -6 -7 -7 -7 -7 -7 -7 -7 -7 -7 -7 -7 -7 -3 21 102 61 3 -6 -7 -7 -7 -7 -7 -7 -7 -3 20 95 105 95 
72 5 -6 -7 -7 -7 -7 -7 -7 -7 -7 -7 -7 -6 5 71 78 8 -5 -7 -7 -7 -7 -7 -7 -6 5 66 101 22 -3 -7 -7 -7 -7 -7 -7 -7 -7 -7 -7 -7 -7 -7 -7 -7 -7 -7 -7 -7 -7 -7 -6 5 71 78 8 -5 -7 -7 -7 -7 -7 -7 -7 -7 -7 -7 -7 -7 -7 -7 -7 -6 5 66 101 21 -3 -7 -7 -7 -7 -7 -7 -7 -7 -7 -7 -7 -7 -6 3 61 102 21 -3 -7 -7 -7 -7 -7 -7 -7 -5 6 66 103 41 77 
72 5 -6 -7 -7 -7 -7 -7 -7 -7 -7 -7 -7 -6 3 61 102 21 -3 -7 -7 -7 -7 -7 -7 -3 22 101 66 5 -6 -7 -7 -7 -7 -7 -7 -7 -7 -7 -7 -7 -7 -7 -7 -7 -7 -7 -7 -7 -7 -7 -6 3 61 102 21 -3 -7 -7 -7 -7 -7 -7 -7 -7 -7 -7 -7 -7 -7 -7 -7 -3 21 101 66 5 -6 -7 -7 -7 -7 -7 -7 -7 -7 -7 -7 -7 -7 -6 5 71 77 8 -5 -7 -7 -7 -7 -7 -7 -6 -1 28 102 67 19 74 
72 5 -6 -7 -7 -7 -7 -7 -7 -7 -7 -7 -7 -7 -3 21 102 61 3 -6 -7 -7 -7 -7 -5 6 67 101 22 -3 -7 -7 -7 -7 -7 -7 -7 -7 -7 -7 -7 -7 -7 -7 -7 -7 -7 -7 -7 -7 -7 -7 -7 -3 21 102 61 3 -6 -7 -7 -7 -7 -7 -7 -7 -7 -7 -7 -7 -7 -7 -6 3 61 102 22 -3 -7 -7 -7 -7 -7 -7 -7 -7 -7 -7 -7 -7 -7 -5 8 77 71 5 -6 -7 -7 -7 -7 -7 -7 -3 20 95 95 21 9 73 
72 5 -6 -7 -7 -7 -7 -7 -7 -7 -7 -7 -7 -7 -5 8 78 71 5 -6 -7 -7 -7 -6 -1 28 102 66 5 -6 -7 -7 -7 -7 -7 -7 -7 -7 -7 -7 -7 -7 -7 -7 -7 -7 -7 -7 -7 -7 -7 -7 -7 -5 8 78 72 6 -5 -6 -6 -6 -7 -7 -7 -7 -7 -7 -7 -7 -7 -7 -5 7 76 76 7 -5 -7 -7 -7 -7 -7 -7 -7 -7 -7 -7 -7 -7 -7 -3 21 102 61 3 -6 -7 -7 -7 -7 -7 -5 6 66 102 28 0 6 72 
72 5 -6 -7 -7 -7 -7 -7 -7 -7 -7 -7 -7 -7 -6 5 73 73 5 -6 -7 -7 -7 -3 20 95 95 20 -3 -7 -7 -7 -7 -7 -7 -7 -7 -7 -7 -7 -7 -7 -7 -7 -7 -7 -7 -7 -7 -7 -7 -7 -7 -4 9 80 82 18 6 5 5 3 -3 -5 -6 -6 -6 -6 -6 -7 -7 -7 -3 22 102 61 3 -6 -7 -7 -7 -7 -7 -7 -7 -7 -7 -7 -7 -7 -6 3 61 102 21 -3 -7 -7 -7 -7 -7 -6 -1 28 102 66 6 -4 5 72 
72 5 -6 -7 -7 -7 -7 -7 -7 -7 -7 -7 -7 -7 -6 5 71 78 8 -5 -7 -7 -6 5 66 102 28 -1 -6 -7 -7 -7 -7 -7 -7 -7 -7 -7 -7 -7 -7 -7 -7 -7 -7 -7 -7 -7 -7 -7 -7 -6 -3 6 31 117 126 81 73 72 71 61 21 8 5 5 5 5 3 -3 -5 -4 6 67 101 21 -3 -7 -7 -7 -7 -7 -7 -7 -7 -7 -7 -7 -7 -7 -6 5 71 77 8 -5 -7 -7 -7 -7 -7 -3 20 95 95 20 -3 -5 5 72 
72 5 -6 -7 -7 -7 -7 -7 -7 -7 -7 -7 -7 -7 -6 3 61 102 21 -3 -7 -7 -3 22 101 67 6 -5 -7 -7 -7 -7 -7 -7 -7 -7 -7 -7 -7 -7 -7 -7 -7 -7 -7 -7 -7 -7 -7 -7 -5 -1 20 66 103 108 82 74 72 73 78 102 102 78 73 72 72 71 61 21 8 9 31 103 67 5 -6 -7 -7 -7 -7 -7 -7 -7 -7 -7 -7 -7 -7 -7 -5 8 77 71 5 -6 -7 -7 -7 -7 -5 6 66 102 28 -1 -6 -6 5 72 
72 5 -6 -7 -7 -7 -7 -7 -7 -7 -7 -7 -7 -7 -7 -3 21 102 61 3 -6 -6 5 66 101 22 -3 -7 -7 -7 -7 -7 -7 -7 -7 -7 -7 -7 -7 -7 -7 -7 -7 -7 -7 -7 -7 -7 -6 -3 6 28 95 102 67 22 8 6 5 5 8 21 61 71 72 72 73 78 102 102 78 80 117 114 24 -3 -7 -7 -7 -7 -7 -7 -7 -7 -7 -7 -7 -7 -7 -7 -3 21 102 61 3 -6 -7 -7 -7 -6 -1 28 102 66 6 -5 -7 -6 5 72 
72 5 -6 -7 -7 -7 -7 -7 -7 -7 -7 -7 -7 -7 -7 -5 8 78 71 5 -5 -3 22 101 66 5 -6 -7 -7 -7 -7 -7 -7 -7 -7 -7 -7 -7 -7 -7 -7 -7 -7 -7 -7 -7 -7 -5 -1 20 66 102 95 28 6 -3 -5 -6 -6 -6 -5 -3 3 5 5 5 5 8 21 61 71 80 117 114 24 -3 -7 -7 -7 -7 -7 -7 -7 -7 -7 -7 -7 -7 -7 -6 3 61 102 21 -3 -7 -7 -7 -7 -3 20 95 95 20 -3 -7 -7 -6 5 72 
72 5 -6 -7 -7 -7 -7 -7 -7 -7 -7 -7 -7 -7 -7 -6 5 73 73 6 -4 6 67 101 22 -3 -7 -7 -7 -7 -7 -7 -7 -7 -7 -7 -7 -7 -7 -7 -7 -7 -7 -7 -7 -6 -3 6 28 95 102 66 20 -1 -5 -7 -7 -7 -7 -7 -7 -7 -6 -6 -6 -6 -6 -5 -3 3 5 9 31 103 67 6 -5 -7 -7 -7 -7 -7 -7 -7 -7 -7 -7 -7 -7 -6 5 71 77 8 -5 -7 -7 -7 -5 6 66 102 28 -1 -6 -7 -7 -6 5 72 
72 5 -6 -7 -7 -7 -7 -7 -7 -7 -7 -7 -7 -7 -7 -6 5 71 78 8 0 28 102 66 5 -6 -7 -7 -7 -7 -7 -7 -7 -7 -7 -7 -7 -7 -7 -7 -7 -7 -7 -7 -6 -1 20 66 102 95 28 6 -3 -6 -7 -7 -7 -7 -7 -7 -7 -7 -7 -7 -7 -7 -7 -7 -7 -6 -6 -4 6 66 102 28 0 -5 -7 -7 -7 -7 -7 -7 -7 -7 -7 -7 -7 -5 8 77 71 5 -6 -7 -7 -6 -1 28 102 66 6 -5 -7 -7 -7 -6 5 72 
72 5 -6 -7 -7 -7 -7 -7 -7 -7 -7 -7 -7 -7 -7 -6 3 61 102 25 23 95 95 20 -3 -7 -7 -7 -7 -7 -7 -7 -7 -7 -7 -7 -7 -7 -7 -7 -7 -7 -7 -5 0 26 95 102 66 20 -1 -5 -7 -7 -7 -7 -7 -7 -7 -7 -7 -7 -7 -7 -7 -7 -7 -7 -7 -7 -7 -7 -3 20 95 97 29 6 -3 -5 -6 -6 -6 -6 -6 -6 -6 -6 -5 -2 22 103 61 3 -6 -7 -7 -3 20 95 95 20 -3 -7 -7 -7 -7 -6 5 72 
72 5 -6 -7 -7 -7 -7 -7 -7 -7 -7 -7 -7 -7 -7 -7 -3 21 103 72 75 102 28 -1 -6 -7 -7 -7 -7 -7 -7 -7 -7 -7 -7 -7 -7 -7 -7 -7 -7 -6 -3 6 28 96 96 28 6 -3 -6 -7 -7 -7 -7 -7 -7 -7 -7 -7 -7 -7 -7 -7 -7 -7 -7 -7 -7 -7 -7 -7 -6 -1 29 109 115 68 22 8 5 5 5 5 5 5 5 5 6 16 70 109 24 -2 -6 -7 -5 6 66 102 28 -1 -6 -7 -7 -7 -7 -6 5 72 
72 5 -6 -7 -7 -7 -7 -7 -7 -7 -7 -7 -7 -7 -7 -7 -5 8 78 95 110 67 6 -5 -7 -7 -7 -7 -7 -7 -7 -7 -7 -7 -7 -7 -7 -7 -7 -7 -5 -1 20 66 102 95 26 0 -5 -7 -7 -7 -7 -7 -7 -7 -7 -7 -7 -7 -7 -7 -7 -7 -7 -7 -7 -7 -7 -7 -7 -7 -7 -5 9 83 130 111 103 78 73 72 72 72 72 72 72 72 73 81 124 121 33 6 -3 -5 -1 28 102 66 6 -5 -7 -7 -7 -7 -7 -6 5 72 
72 5 -6 -7 -7 -7 -7 -7 -7 -7 -7 -7 -7 -7 -7 -7 -6 5 75 131 105 22 -3 -7 -7 -7 -7 -7 -7 -7 -7 -7 -7 -7 -7 -7 -7 -7 -6 -3 6 28 95 102 66 20 -1 -6 -7 -7 -7 -7 -7 -7 -7 -7 -7 -7 -7 -7 -7 -7 -7 -7 -7 -7 -7 -7 -7 -7 -7 -7 -7 -5 8 79 82 33 62 71 72 72 72 72 72 72 72 72 72 74 82 108 103 67 22 9 22 95 95 20 -3 -7 -7 -7 -7 -7 -7 -6 5 72 
72 5 -6 -7 -7 -7 -7 -7 -7 -7 -7 -7 -7 -7 -7 -7 -6 5 76 151 68 5 -6 -7 -7 -7 -7 -7 -7 -7 -7 -7 -7 -7 -7 -7 -7 -5 -1 20 66 102 95 28 6 -3 -6 -7 -7 -7 -7 -7 -7 -7 -7 -7 -7 -7 -7 -7 -7 -7 -7 -7 -7 -7 -7 -7 -7 -7 -7 -7 -7 -3 21 102 62 6 4 5 5 5 5 5 5 5 5 5 5 6 8 22 67 101 102 76 84 105 29 -1 -6 -7 -7 -7 -7 -7 -7 -6 5 72 
72 5 -6 -7 -7 -7 -7 -7 -7 -7 -7 -7 -7 -7 -7 -7 -6 5 75 114 22 -3 -7 -7 -7 -7 -7 -7 -7 -7 -7 -7 -7 -7 -7 -6 -3 6 28 95 102 66 20 -1 -5 -7 -7 -7 -7 -7 -7 -7 -7 -7 -7 -7 -7 -7 -7 -7 -7 -7 -7 -7 -7 -7 -7 -7 -7 -7 -7 -7 -6 3 61 102 21 -3 -6 -6 -6 -6 -6 -6 -6 -6 -6 -6 -6 -6 -5 -3 5 22 67 106 147 89 11 -5 -7 -7 -7 -7 -7 -7 -7 -6 5 72 
72 5 -6 -7 -7 -7 -7 -7 -7 -7 -7 -7 -7 -7 -7 -7 -6 5 73 79 8 -5 -7 -7 -7 -7 -7 -7 -7 -7 -7 -7 -7 -6 -5 -1 20 68 106 98 30 7 -2 -5 -7 -7 -7 -7 -7 -7 -7 -7 -7 -7 -7 -7 -7 -7 -7 -7 -7 -7 -7 -7 -7 -7 -7 -7 -7 -7 -7 -7 -6 5 71 78 8 -5 -7 -7 -7 -7 -7 -7 -7 -7 -7 -7 -7 -7 -7 -7 -6 -3 6 29 106 109 29 -1 -6 -7 -7 -7 -7 -7 -7 -6 5 72 
72 5 -6 -7 -7 -7 -7 -7 -7 -7 -7 -7 -7 -7 -7 -7 -6 5 73 73 5 -6 -7 -7 -7 -7 -7 -7 -7 -7 -7 -6 -3 3 8 29 105 150 122 47 13 7 5 3 -3 -5 -6 -6 -7 -7 -7 -7 -7 -7 -7 -7 -7 -7 -7 -7 -7 -7 -7 -7 -7 -7 -7 -7 -7 -7 -7 -7 -6 5 72 73 5 -6 -7 -7 -7 -7 -7 -7 -7 -7 -7 -7 -7 -7 -7 -7 -7 -7 -5 0 27 97 95 20 -3 -7 -7 -7 -7 -7 -7 -6 5 72 
72 5 -6 -7 -7 -7 -7 -7 -7 -7 -7 -7 -7 -7 -7 -7 -5 8 78 71 5 -6 -7 -7 -7 -7 -7 -7 -7 -6 -3 5 21 61 76 104 108 88 107 105 78 73 71 61 21 8 5 3 -3 -5 -6 -6 -6 -7 -7 -7 -7 -7 -7 -7 -7 -7 -7 -7 -7 -7 -7 -7 -7 -7 -7 -7 -6 5 73 72 5 -6 -7 -7 -7 -7 -7 -7 -7 -7 -7 -7 -7 -7 -7 -7 -7 -7 -7 -6 0 28 102 66 6 -5 -7 -7 -7 -7 -7 -6 5 72 
72 5 -6 -7 -7 -7 -7 -7 -7 -7 -7 -7 -7 -7 -7 -7 -3 21 102 61 3 -6 -7 -7 -7 -7 -6 -5 -3 5 22 66 101 102 76 61 21 10 21 61 71 73 78 102 102 77 71 61 21 8 5 5 3 -3 -5 -6 -6 -7 -7 -7 -7 -7 -7 -7 -7 -7 -7 -7 -7 -7 -7 -7 -5 8 78 71 5 -6 -7 -7 -7 -7 -7 -7 -7 -7 -7 -7 -7 -7 -7 -7 -7 -7 -7 -7 -5 6 66 102 28 -1 -6 -7 -7 -7 -7 -6 5 72 
72 5 -6 -7 -7 -7 -7 -7 -7 -7 -7 -7 -7 -7 -7 -6 3 61 102 21 -3 -7 -7 -7 -6 -3 3 7 22 66 101 101 66 22 7 3 -3 -5 -3 3 5 5 8 21 61 71 77 102 102 78 73 71 61 21 8 5 3 -3 -5 -6 -6 -6 -7 -7 -7 -7 -7 -7 -7 -7 -7 -7 -3 21 102 61 3 -6 -7 -7 -7 -7 -7 -7 -7 -7 -7 -7 -7 -7 -7 -7 -7 -7 -7 -7 -7 -3 20 95 95 20 -3 -7 -7 -7 -7 -6 5 72 
72 5 -6 -7 -7 -7 -7 -7 -7 -7 -7 -7 -7 -7 -7 -6 5 71 78 8 -5 -7 -6 -3 5 21 61 76 102 101 66 22 5 -3 -5 -6 -7 -7 -7 -6 -6 -6 -5 -3 3 5 8 21 61 71 73 78 102 102 77 71 61 21 8 5 5 3 -3 -5 -6 -6 -7 -7 -7 -7 -7 -6 3 61 102 21 -3 -7 -7 -7 -7 -7 -7 -7 -7 -7 -7 -7 -7 -7 -7 -7 -7 -7 -7 -7 -7 -6 -1 28 102 66 6 -5 -7 -7 -7 -6 5 72 
72 5 -6 -7 -7 -7 -7 -7 -7 -7 -7 -7 -7 -7 -7 -6 5 73 73 6 -4 -3 5 22 66 101 102 76 61 21 5 -3 -6 -7 -7 -7 -7 -7 -7 -7 -7 -7 -7 -7 -6 -6 -5 -3 3 5 5 8 21 61 71 77 102 102 78 73 71 61 21 8 5 3 -3 -5 -6 -6 -6 -6 5 71 78 8 -5 -7 -7 -7 -7 -7 -7 -7 -7 -7 -7 -7 -7 -7 -7 -7 -7 -7 -7 -7 -7 -7 -5 6 66 102 28 0 -6 -7 -7 -6 5 72 
72 5 -6 -7 -7 -7 -7 -7 -7 -7 -7 -7 -7 -7 -7 -5 8 78 72 9 6 22 66 101 101 66 22 7 3 -3 -6 -7 -7 -7 -7 -7 -7 -7 -7 -7 -7 -7 -7 -7 -7 -7 -7 -7 -6 -6 -6 -5 -3 3 5 8 21 61 71 73 78 102 102 77 71 61 21 8 5 5 3 -2 7 73 73 5 -6 -7 -7 -7 -7 -7 -7 -7 -7 -7 -7 -7 -7 -7 -7 -7 -7 -7 -7 -7 -7 -7 -7 -3 20 95 96 26 -1 -6 -7 -6 5 72 
72 5 -6 -7 -7 -7 -7 -7 -7 -7 -7 -7 -7 -7 -7 -3 22 106 74 32 67 101 101 66 22 5 -3 -5 -6 -7 -7 -7 -7 -7 -7 -7 -7 -7 -7 -7 -7 -7 -7 -7 -7 -7 -7 -7 -7 -7 -7 -7 -7 -6 -6 -5 -3 3 5 5 8 21 61 71 77 102 102 78 73 71 61 22 20 82 73 5 -6 -7 -7 -7 -7 -7 -7 -7 -7 -7 -7 -7 -7 -7 -7 -7 -7 -7 -7 -7 -7 -7 -7 -6 -1 26 96 95 20 -3 -7 -6 5 72 
72 5 -6 -7 -7 -7 -7 -7 -7 -7 -7 -7 -7 -7 -6 5 70 146 100 105 101 66 22 5 -3 -6 -7 -7 -7 -7 -7 -7 -7 -7 -7 -7 -7 -7 -7 -7 -7 -7 -7 -7 -7 -7 -7 -7 -7 -7 -7 -7 -7 -7 -7 -7 -7 -6 -6 -6 -5 -3 3 5 8 21 61 71 73 78 102 103 87 126 75 5 -6 -7 -7 -7 -7 -7 -7 -7 -7 -7 -7 -7 -7 -7 -7 -7 -7 -7 -7 -7 -7 -7 -7 -7 -6 0 28 102 66 6 -5 -6 5 72 
72 5 -6 -7 -7 -7 -7 -7 -7 -7 -7 -7 -7 -7 -3 22 106 116 79 61 21 5 -3 -6 -7 -7 -7 -7 -7 -7 -7 -7 -7 -7 -7 -7 -7 -7 -7 -7 -7 -7 -7 -7 -7 -7 -7 -7 -7 -7 -7 -7 -7 -7 -7 -7 -7 -7 -7 -7 -7 -7 -6 -6 -5 -3 3 5 5 8 21 61 80 125 75 5 -6 -7 -7 -7 -7 -7 -7 -7 -7 -7 -7 -7 -7 -7 -7 -7 -7 -7 -7 -7 -7 -7 -7 -7 -7 -5 6 66 102 28 0 -5 5 72 
72 5 -6 -7 -7 -7 -7 -7 -7 -7 -7 -7 -7 -5 6 67 103 31 8 3 -3 -6 -7 -7 -7 -7 -7 -7 -7 -7 -7 -7 -7 -7 -7 -7 -7 -7 -7 -7 -7 -7 -7 -7 -7 -7 -7 -7 -7 -7 -7 -7 -7 -7 -7 -7 -7 -7 -7 -7 -7 -7 -7 -7 -7 -7 -6 -6 -6 -5 -3 4 18 81 73 5 -6 -7 -7 -7 -7 -7 -7 -7 -7 -7 -7 -7 -7 -7 -7 -7 -7 -7 -7 -7 -7 -7 -7 -7 -7 -7 -3 20 95 96 26 0 6 72 
72 5 -6 -7 -7 -7 -7 -7 -7 -7 -7 -7 -6 -1 28 102 66 6 -5 -6 -7 -7 -7 -7 -7 -7 -7 -7 -7 -7 -7 -7 -7 -7 -7 -7 -7 -7 -7 -7 -7 -7 -7 -7 -7 -7 -7 -7 -7 -7 -7 -7 -7 -7 -7 -7 -7 -7 -7 -7 -7 -7 -7 -7 -7 -7 -7 -7 -7 -7 -7 -5 6 73 72 5 -6 -7 -7 -7 -7 -7 -7 -7 -7 -7 -7 -7 -7 -7 -7 -7 -7 -7 -7 -7 -7 -7 -7 -7 -7 -7 -6 -1 26 96 95 21 9 73 
72 5 -6 -7 -7 -7 -7 -7 -7 -7 -7 -7 -3 20 95 95 20 -3 -7 -7 -7 -7 -7 -7 -7 -7 -7 -7 -7 -7 -7 -7 -7 -7 -7 -7 -7 -7 -7 -7 -7 -7 -7 -7 -7 -7 -7 -7 -7 -7 -7 -7 -7 -7 -7 -7 -7 -7 -7 -7 -7 -7 -7 -7 -7 -7 -7 -7 -7 -7 -7 -6 5 72 72 5 -6 -7 -7 -7 -7 -7 -7 -7 -7 -7 -7 -7 -7 -7 -7 -7 -7 -7 -7 -7 -7 -7 -7 -7 -7 -7 -7 -6 0 28 102 67 19 74 
72 5 -6 -7 -7 -7 -7 -7 -7 -7 -7 -5 6 66 102 28 -1 -6 -7 -7 -7 -7 -7 -7 -7 -7 -7 -7 -7 -7 -7 -7 -7 -7 -7 -7 -7 -7 -7 -7 -7 -7 -7 -7 -7 -7 -7 -7 -7 -7 -7 -7 -7 -7 -7 -7 -7 -7 -7 -7 -7 -7 -7 -7 -7 -7 -7 -7 -7 -7 -7 -6 5 72 73 6 -6 -7 -7 -7 -7 -7 -7 -7 -7 -7 -7 -7 -7 -7 -7 -7 -7 -7 -7 -7 -7 -7 -7 -7 -7 -7 -7 -7 -5 6 66 103 41 77 
73 5 -6 -7 -7 -7 -7 -7 -7 -7 -6 0 28 102 66 6 -5 -7 -7 -7 -7 -7 -7 -7 -7 -7 -7 -7 -7 -7 -7 -7 -7 -7 -7 -7 -7 -7 -7 -7 -7 -7 -7 -7 -7 -7 -7 -7 -7 -7 -7 -7 -7 -7 -7 -7 -7 -7 -7 -7 -7 -7 -7 -7 -7 -7 -7 -7 -7 -7 -7 -6 5 72 78 8 -5 -7 -7 -7 -7 -7 -7 -7 -7 -7 -7 -7 -7 -7 -7 -7 -7 -7 -7 -7 -7 -7 -7 -7 -7 -7 -7 -7 -7 -3 20 95 105 95 
75 5 -6 -7 -7 -7 -7 -7 -7 -6 0 27 96 96 21 -2 -6 -7 -7 -7 -7 -7 -7 -7 -7 -7 -7 -7 -7 -7 -7 -7 -7 -7 -7 -7 -7 -7 -7 -7 -7 -7 -7 -7 -7 -7 -7 -7 -7 -7 -7 -7 -7 -7 -7 -7 -7 -7 -7 -7 -7 -7 -7 -7 -7 -7 -7 -7 -7 -7 -7 -5 6 70 107 29 0 -5 -7 -7 -7 -7 -7 -7 -7 -7 -7 -7 -7 -7 -7 -7 -7 -7 -7 -7 -7 -7 -7 -7 -7 -7 -7 -7 -7 -6 -1 28 106 131 
76 5 -6 -7 -7 -7 -7 -7 -6 0 27 99 106 39 11 6 3 -3 -5 -6 -6 -6 -6 -6 -6 -6 -6 -6 -6 -7 -7 -7 -7 -7 -7 -7 -7 -7 -7 -7 -7 -7 -7 -7 -7 -7 -7 -7 -7 -7 -7 -7 -7 -7 -7 -7 -7 -7 -7 -7 -7 -7 -7 -7 -7 -7 -7 -7 -7 -6 -3 5 24 84 147 106 29 6 -3 -6 -7 -7 -7 -7 -7 -7 -7 -7 -7 -7 -7 -7 -7 -7 -7 -7 -7 -7 -7 -7 -7 -7 -7 -7 -7 -7 -5 6 68 151 
75 5 -6 -7 -7 -7 -7 -6 0 27 106 148 101 78 73 71 61 21 8 5 5 5 5 5 5 5 5 5 3 -3 -5 -6 -6 -6 -6 -6 -6 -6 -6 -6 -7 -7 -7 -7 -7 -7 -7 -7 -7 -7 -7 -7 -7 -7 -7 -7 -7 -7 -7 -7 -7 -7 -7 -7 -7 -7 -7 -7 -5 -1 20 66 102 104 88 108 103 67 22 5 -3 -6 -7 -7 -7 -7 -7 -7 -7 -7 -7 -7 -7 -7 -7 -7 -7 -7 -7 -7 -7 -7 -7 -7 -7 -7 -7 -3 22 114 
73 5 -6 -7 -7 -7 -6 0 27 96 108 83 74 73 73 78 102 102 78 73 72 72 72 72 72 72 72 71 61 21 8 5 5 5 5 5 5 5 5 3 -3 -5 -6 -6 -6 -6 -6 -6 -6 -6 -6 -6 -7 -7 -7 -7 -7 -7 -7 -7 -7 -7 -7 -7 -7 -7 -6 -3 6 28 95 102 67 22 10 22 67 101 101 66 20 -1 -5 -7 -7 -7 -7 -7 -7 -7 -7 -7 -7 -7 -7 -7 -7 -7 -7 -7 -7 -7 -7 -7 -7 -7 -7 -5 8 79 
72 5 -6 -7 -7 -6 0 27 96 96 29 8 6 5 5 8 21 61 71 72 72 72 72 72 72 72 73 78 102 102 78 73 72 72 72 72 72 72 71 61 21 8 5 5 5 5 5 5 5 5 5 3 -3 -5 -6 -6 -6 -6 -6 -6 -6 -6 -6 -7 -6 -3 5 22 67 102 95 28 6 -3 -5 -3 5 22 67 102 95 28 6 -3 -6 -7 -7 -7 -7 -7 -7 -7 -7 -7 -7 -7 -7 -7 -7 -7 -7 -7 -7 -7 -7 -7 -7 -6 5 73 
72 5 -6 -7 -5 0 27 96 96 27 0 -5 -6 -6 -6 -5 -3 3 5 5 5 5 5 5 5 5 5 8 21 61 71 72 72 72 72 72 72 73 78 102 102 78 73 72 72 72 72 72 72 72 71 61 21 8 5 5 5 5 5 5 5 5 3 -3 -1 20 66 101 101 66 20 -1 -5 -7 -7 -7 -6 -3 6 28 95 102 67 22 5 -3 -6 -7 -7 -7 -7 -7 -7 -7 -7 -7 -7 -7 -7 -7 -7 -7 -7 -7 -7 -7 -7 -6 5 72 
72 5 -5 -3 6 28 96 96 27 0 -6 -7 -7 -7 -7 -7 -7 -6 -6 -6 -6 -6 -6 -6 -6 -6 -6 -5 -3 3 5 5 5 5 5 5 5 5 8 21 61 71 72 72 72 72 72 72 72 73 78 102 102 78 73 72 72 72 72 72 72 71 61 24 31 95 102 67 22 5 -3 -6 -7 -7 -7 -7 -7 -7 -5 -1 20 66 101 101 66 20 -1 -5 -7 -7 -7 -7 -7 -7 -7 -7 -7 -7 -7 -7 -7 -7 -7 -7 -7 -7 -7 -6 5 72 
72 6 0 20 66 102 95 26 -1 -6 -7 -7 -7 -7 -7 -7 -7 -7 -7 -7 -7 -7 -7 -7 -7 -7 -7 -7 -7 -6 -6 -6 -6 -6 -6 -6 -6 -6 -5 -3 3 5 5 5 5 5 5 5 5 5 8 21 61 71 72 72 72 72 72 72 73 78 104 114 114 97 28 6 -3 -6 -7 -7 -7 -7 -7 -7 -7 -7 -7 -6 -3 5 22 67 102 95 28 6 -3 -6 -7 -7 -7 -7 -7 -7 -7 -7 -7 -7 -7 -7 -7 -7 -7 -7 -7 -6 5 72 
73 12 28 95 102 66 20 -1 -6 -7 -7 -7 -7 -7 -7 -7 -7 -7 -7 -7 -7 -7 -7 -7 -7 -7 -7 -7 -7 -7 -7 -7 -7 -7 -7 -7 -7 -7 -7 -7 -6 -6 -6 -6 -6 -6 -6 -6 -6 -6 -5 -3 3 5 5 5 5 5 5 5 6 9 31 117 116 29 0 -5 -7 -7 -7 -7 -7 -7 -7 -7 -7 -7 -7 -7 -7 -6 -3 6 28 95 102 67 22 5 -3 -6 -7 -7 -7 -7 -7 -7 -7 -7 -7 -7 -7 -7 -7 -7 -7 -6 5 72 
78 39 97 96 28 6 -3 -6 -7 -7 -7 -7 -7 -7 -7 -7 -7 -7 -7 -7 -7 -7 -7 -7 -7 -7 -7 -7 -7 -7 -7 -7 -7 -7 -7 -7 -7 -7 -7 -7 -7 -7 -7 -7 -7 -7 -7 -7 -7 -7 -7 -7 -6 -6 -6 -6 -6 -6 -6 -6 -6 -4 9 80 80 8 -5 -7 -7 -7 -7 -7 -7 -7 -7 -7 -7 -7 -7 -7 -7 -7 -7 -5 -1 20 66 101 101 66 20 -1 -5 -7 -7 -7 -7 -7 -7 -7 -7 -7 -7 -7 -7 -7 -7 -6 5 73 
101 106 96 27 0 -5 -7 -7 -7 -7 -7 -7 -7 -7 -7 -7 -7 -7 -7 -7 -7 -7 -7 -7 -7 -7 -7 -7 -7 -7 -7 -7 -7 -7 -7 -7 -7 -7 -7 -7 -7 -7 -7 -7 -7 -7 -7 -7 -7 -7 -7 -7 -7 -7 -7 -7 -7 -7 -7 -7 -7 -6 6 73 73 6 -6 -7 -7 -7 -7 -7 -7 -7 -7 -7 -7 -7 -7 -7 -7 -7 -7 -7 -6 -3 5 22 67 102 95 28 6 -3 -6 -7 -7 -7 -7 -7 -7 -7 -7 -7 -7 -7 -7 -6 5 73 
148 100 27 0 -6 -7 -7 -7 -7 -7 -7 -7 -7 -7 -7 -7 -7 -7 -7 -7 -7 -7 -7 -7 -7 -7 -7 -7 -7 -7 -7 -7 -7 -7 -7 -7 -7 -7 -7 -7 -7 -7 -7 -7 -7 -7 -7 -7 -7 -7 -7 -7 -7 -7 -7 -7 -7 -7 -7 -7 -7 -6 5 72 72 5 -6 -7 -7 -7 -7 -7 -7 -7 -7 -7 -7 -7 -7 -7 -7 -7 -7 -7 -7 -7 -6 -3 6 28 95 102 67 22 5 -3 -6 -7 -7 -7 -7 -7 -7 -7 -7 -7 -7 -6 5 76 
116 29 0 -6 -7 -7 -7 -7 -7 -7 -7 -7 -7 -7 -7 -7 -7 -7 -7 -7 -7 -7 -7 -7 -7 -7 -7 -7 -7 -7 -7 -7 -7 -7 -7 -7 -7 -7 -7 -7 -7 -7 -7 -7 -7 -7 -7 -7 -7 -7 -7 -7 -7 -7 -7 -7 -7 -7 -7 -7 -7 -6 5 72 72 5 -6 -7 -7 -7 -7 -7 -7 -7 -7 -7 -7 -7 -7 -7 -7 -7 -7 -7 -7 -7 -7 -7 -5 -1 20 66 101 101 66 22 5 -3 -6 -7 -7 -7 -7 -7 -7 -7 -7 -6 5 75 
79 8 -5 -7 -7 -7 -7 -7 -7 -7 -7 -7 -7 -7 -7 -7 -7 -7 -7 -7 -7 -7 -7 -7 -7 -7 -7 -7 -7 -7 -7 -7 -7 -7 -7 -7 -7 -7 -7 -7 -7 -7 -7 -7 -7 -7 -7 -7 -7 -7 -7 -7 -7 -7 -7 -7 -7 -7 -7 -7 -7 -6 5 72 72 5 -6 -7 -7 -7 -7 -7 -7 -7 -7 -7 -7 -7 -7 -7 -7 -7 -7 -7 -7 -7 -7 -7 -7 -6 -3 5 22 66 101 101 66 20 -1 -5 -7 -7 -7 -7 -7 -7 -7 -6 5 73 
73 6 -6 -7 -7 -7 -7 -7 -7 -7 -7 -7 -7 -7 -7 -7 -7 -7 -7 -7 -7 -7 -7 -7 -7 -7 -7 -7 -7 -7 -7 -7 -7 -7 -7 -7 -7 -7 -7 -7 -7 -7 -7 -7 -7 -7 -7 -7 -7 -7 -7 -7 -7 -7 -7 -7 -7 -7 -7 -7 -7 -6 5 72 72 5 -6 -7 -7 -7 -7 -7 -7 -7 -7 -7 -7 -7 -7 -7 -7 -7 -7 -7 -7 -7 -7 -7 -7 -7 -7 -6 -3 5 22 67 102 95 28 6 -3 -5 -6 -6 -7 -7 -7 -6 5 72 
72 5 -6 -7 -7 -7 -7 -7 -7 -7 -7 -7 -7 -7 -7 -7 -7 -7 -7 -7 -7 -7 -7 -7 -7 -7 -7 -7 -7 -7 -7 -7 -7 -7 -7 -7 -7 -7 -7 -7 -7 -7 -7 -7 -7 -7 -7 -7 -7 -7 -7 -7 -7 -7 -7 -7 -7 -7 -7 -7 -7 -6 5 72 72 5 -6 -7 -7 -7 -7 -7 -7 -7 -7 -7 -7 -7 -7 -7 -7 -7 -7 -7 -7 -7 -7 -7 -7 -7 -7 -7 -7 -6 -3 6 29 96 103 68 22 8 5 3 -3 -5 -6 -5 6 72 
72 5 -6 -7 -7 -7 -7 -7 -7 -7 -7 -7 -7 -7 -7 -7 -7 -7 -7 -7 -7 -7 -7 -7 -7 -7 -7 -7 -7 -7 -7 -7 -7 -7 -7 -7 -7 -7 -7 -7 -7 -7 -7 -7 -7 -7 -7 -7 -7 -7 -7 -7 -7 -7 -7 -7 -7 -7 -7 -7 -7 -6 5 72 72 5 -6 -7 -7 -7 -7 -7 -7 -7 -7 -7 -7 -7 -7 -7 -7 -7 -7 -7 -7 -7 -7 -7 -7 -7 -7 -7 -7 -7 -6 -4 2 32 91 146 114 79 71 61 21 8 5 4 9 73 
73 5 -6 -7 -7 -7 -7 -7 -7 -7 -7 -7 -7 -7 -7 -7 -7 -7 -7 -7 -7 -7 -7 -7 -7 -7 -7 -7 -7 -7 -7 -7 -7 -7 -7 -7 -7 -7 -7 -7 -7 -7 -7 -7 -7 -7 -7 -7 -7 -7 -7 -7 -7 -7 -7 -7 -7 -7 -7 -7 -7 -6 5 72 72 5 -6 -7 -7 -7 -7 -7 -7 -7 -7 -7 -7 -7 -7 -7 -7 -7 -7 -7 -7 -7 -7 -7 -7 -7 -7 -7 -6 -3 3 7 22 70 111 110 82 74 78 102 102 77 71 62 33 83 
76 7 -5 -6 -6 -6 -6 -6 -6 -7 -7 -7 -7 -7 -7 -7 -7 -7 -7 -7 -7 -7 -7 -7 -7 -7 -7 -7 -7 -7 -7 -7 -7 -7 -7 -7 -7 -7 -7 -7 -7 -7 -7 -7 -7 -7 -7 -7 -7 -7 -7 -7 -7 -7 -7 -7 -7 -7 -7 -7 -7 -6 5 72 72 5 -6 -7 -7 -7 -7 -7 -7 -7 -7 -7 -7 -7 -7 -7 -7 -7 -7 -7 -7 -7 -7 -7 -7 -6 -5 -3 5 21 61 76 102 101 67 22 8 6 8 21 61 71 77 103 111 130 
84 18 6 5 5 5 5 5 3 -3 -5 -6 -6 -6 -6 -6 -6 -7 -7 -7 -7 -7 -7 -7 -7 -7 -7 -7 -7 -7 -7 -7 -7 -7 -7 -7 -7 -7 -7 -7 -7 -7 -7 -7 -7 -7 -7 -7 -7 -7 -7 -7 -7 -7 -7 -7 -7 -7 -7 -7 -7 -6 5 72 72 5 -6 -7 -7 -7 -7 -7 -7 -7 -7 -7 -7 -7 -7 -7 -7 -7 -7 -7 -7 -7 -7 -6 -3 3 7 22 66 101 102 76 61 21 5 -3 -5 -6 -5 -3 3 5 8 22 70 125 
126 82 73 72 72 72 72 71 61 21 8 5 5 5 5 5 3 -3 -5 -6 -6 -6 -6 -6 -6 -6 -7 -7 -7 -7 -7 -7 -7 -7 -7 -7 -7 -7 -7 -7 -7 -7 -7 -7 -7 -7 -7 -7 -7 -7 -7 -7 -7 -7 -7 -7 -7 -7 -7 -7 -7 -6 5 72 72 5 -6 -7 -7 -7 -7 -7 -7 -7 -7 -7 -7 -7 -7 -7 -7 -7 -7 -7 -6 -5 -3 5 21 61 76 102 101 66 22 7 3 -3 -6 -7 -7 -7 -7 -7 -6 -6 -5 -2 16 84 
126 82 73 72 72 72 73 78 102 102 78 73 72 72 72 71 61 21 8 5 5 5 5 5 5 3 -3 -5 -6 -6 -6 -6 -6 -6 -7 -7 -7 -7 -7 -7 -7 -7 -7 -7 -7 -7 -7 -7 -7 -7 -7 -7 -7 -7 -7 -7 -7 -7 -7 -7 -7 -6 5 72 72 5 -6 -7 -7 -7 -7 -7 -7 -7 -7 -7 -7 -7 -7 -7 -7 -7 -6 -3 3 7 22 66 101 102 76 61 21 5 -3 -5 -6 -7 -7 -7 -7 -7 -7 -7 -7 -7 -7 -5 6 76 
81 18 6 5 5 5 5 8 21 61 71 72 72 72 73 78 102 102 78 73 72 72 72 72 71 61 21 8 5 5 5 5 5 3 -3 -5 -6 -6 -6 -6 -6 -6 -6 -7 -7 -7 -7 -7 -7 -7 -7 -7 -7 -7 -7 -7 -7 -7 -7 -7 -7 -6 5 72 72 5 -6 -7 -7 -7 -7 -7 -7 -7 -7 -7 -7 -7 -7 -7 -6 -3 5 21 61 76 102 101 66 22 7 3 -3 -6 -7 -7 -7 -7 -7 -7 -7 -7 -7 -7 -7 -7 -7 -6 5 73 
73 6 -5 -6 -6 -6 -6 -5 -3 3 5 5 5 5 5 8 21 61 71 72 72 72 72 73 78 102 102 78 73 72 72 72 71 61 21 8 5 5 5 5 5 5 3 -3 -5 -6 -6 -6 -6 -6 -6 -7 -7 -7 -7 -7 -7 -7 -7 -7 -7 -6 5 72 72 5 -6 -7 -7 -7 -7 -7 -7 -7 -7 -7 -7 -6 -5 -3 5 22 66 101 102 76 61 21 5 -3 -5 -6 -7 -7 -7 -7 -7 -7 -7 -7 -7 -7 -7 -7 -7 -7 -7 -6 5 72 
72 5 -6 -7 -7 -7 -7 -7 -7 -6 -6 -6 -6 -6 -6 -5 -3 3 5 5 5 5 5 5 8 21 61 71 72 72 72 73 78 102 102 78 73 72 72 72 72 71 61 21 8 5 5 5 5 5 3 -3 -5 -6 -6 -6 -6 -6 -6 -6 -7 -6 5 72 72 5 -6 -7 -7 -7 -7 -7 -7 -7 -7 -6 -3 3 7 22 66 101 101 66 22 7 3 -3 -6 -7 -7 -7 -7 -7 -7 -7 -7 -7 -7 -7 -7 -7 -7 -7 -7 -7 -7 -6 5 72 
72 5 -6 -7 -7 -7 -7 -7 -7 -7 -7 -7 -7 -7 -7 -7 -7 -6 -6 -6 -6 -6 -6 -6 -5 -3 3 5 5 5 5 5 8 21 61 71 72 72 72 72 73 78 102 102 78 73 72 72 72 71 61 21 8 5 5 5 5 5 5 3 -3 -4 7 73 73 6 -6 -7 -7 -7 -7 -7 -6 -5 -3 5 21 61 76 102 101 66 22 5 -3 -5 -6 -7 -7 -7 -7 -7 -7 -7 -7 -7 -7 -7 -7 -7 -7 -7 -7 -7 -7 -7 -7 -6 5 72 
72 5 -6 -7 -7 -7 -7 -7 -7 -7 -7 -7 -7 -7 -7 -7 -7 -7 -7 -7 -7 -7 -7 -7 -7 -7 -6 -6 -6 -6 -6 -6 -5 -3 3 5 5 5 5 5 5 8 21 61 71 72 72 72 73 78 102 102 78 73 72 72 72 72 71 61 21 9 18 82 80 8 -5 -7 -7 -7 -6 -3 3 7 22 66 101 102 76 61 21 5 -3 -6 -7 -7 -7 -7 -7 -7 -7 -7 -7 -7 -7 -7 -7 -7 -7 -7 -7 -7 -7 -7 -7 -7 -7 -6 5 72 
72 5 -6 -7 -7 -7 -7 -7 -7 -7 -7 -7 -7 -7 -7 -7 -7 -7 -7 -7 -7 -7 -7 -7 -7 -7 -7 -7 -7 -7 -7 -7 -7 -7 -6 -6 -6 -6 -6 -6 -6 -5 -3 3 5 5 5 5 5 8 21 61 71 72 72 72 72 73 78 102 102 78 82 126 116 29 0 -5 -5 -3 5 21 61 76 102 101 66 22 7 3 -3 -6 -7 -7 -7 -7 -7 -7 -7 -7 -7 -7 -7 -7 -7 -7 -7 -7 -7 -7 -7 -7 -7 -7 -7 -7 -7 -6 5 72 
72 5 -6 -7 -7 -7 -7 -7 -7 -7 -7 -7 -7 -7 -7 -7 -7 -7 -7 -7 -7 -7 -7 -7 -7 -7 -7 -7 -7 -7 -7 -7 -7 -7 -7 -7 -7 -7 -7 -7 -7 -7 -7 -6 -6 -6 -6 -6 -6 -5 -3 3 5 5 5 5 5 5 8 21 61 71 73 82 109 97 29 9 8 22 66 101 102 76 61 21 5 -3 -5 -6 -7 -7 -7 -7 -7 -7 -7 -7 -7 -7 -7 -7 -7 -7 -7 -7 -7 -7 -7 -7 -7 -7 -7 -7 -7 -7 -7 -6 5 72 
72 5 -6 -7 -7 -7 -7 -7 -7 -7 -7 -7 -7 -7 -7 -7 -7 -7 -7 -7 -7 -7 -7 -7 -7 -7 -7 -7 -7 -7 -7 -7 -7 -7 -7 -7 -7 -7 -7 -7 -7 -7 -7 -7 -7 -7 -7 -7 -7 -7 -7 -6 -6 -6 -6 -6 -6 -6 -5 -3 3 5 6 8 29 97 109 83 79 102 101 66 22 7 3 -3 -6 -7 -7 -7 -7 -7 -7 -7 -7 -7 -7 -7 -7 -7 -7 -7 -7 -7 -7 -7 -7 -7 -7 -7 -7 -7 -7 -7 -7 -7 -7 -6 5 72 
72 5 -6 -7 -7 -7 -7 -7 -7 -7 -7 -7 -7 -7 -7 -7 -7 -7 -7 -7 -7 -7 -7 -7 -7 -7 -7 -7 -7 -7 -7 -7 -7 -7 -7 -7 -7 -7 -7 -7 -7 -7 -7 -7 -7 -7 -7 -7 -7 -7 -7 -7 -7 -7 -7 -7 -7 -7 -7 -7 -6 -6 -6 -5 0 29 116 125 80 61 21 5 -3 -5 -6 -7 -7 -7 -7 -7 -7 -7 -7 -7 -7 -7 -7 -7 -7 -7 -7 -7 -7 -7 -7 -7 -7 -7 -7 -7 -7 -7 -7 -7 -7 -7 -7 -6 5 72 
72 5 -6 -7 -7 -7 -7 -7 -7 -7 -7 -7 -7 -7 -7 -7 -7 -7 -7 -7 -7 -7 -7 -7 -7 -7 -7 -7 -7 -7 -7 -7 -7 -7 -7 -7 -7 -7 -7 -7 -7 -7 -7 -7 -7 -7 -7 -7 -7 -7 -7 -7 -7 -7 -7 -7 -7 -7 -7 -7 -7 -7 -7 -7 -5 8 80 82 18 4 -3 -6 -7 -7 -7 -7 -7 -7 -7 -7 -7 -7 -7 -7 -7 -7 -7 -7 -7 -7 -7 -7 -7 -7 -7 -7 -7 -7 -7 -7 -7 -7 -7 -7 -7 -7 -7 -6 5 72 
72 5 -6 -7 -7 -7 -7 -7 -7 -7 -7 -7 -7 -7 -7 -7 -7 -7 -7 -7 -7 -7 -7 -7 -7 -7 -7 -7 -7 -7 -7 -7 -7 -7 -7 -7 -7 -7 -7 -7 -7 -7 -7 -7 -7 -7 -7 -7 -7 -7 -7 -7 -7 -7 -7 -7 -7 -7 -7 -7 -7 -7 -7 -7 -6 6 73 73 7 -5 -7 -7 -7 -7 -7 -7 -7 -7 -7 -7 -7 -7 -7 -7 -7 -7 -7 -7 -7 -7 -7 -7 -7 -7 -7 -7 -7 -7 -7 -7 -7 -7 -7 -7 -7 -7 -7 -6 5 72 
73 6 -5 -6 -6 -6 -6 -6 -6 -6 -6 -6 -6 -6 -6 -6 -6 -6 -6 -6 -6 -6 -6 -6 -6 -6 -6 -6 -6 -6 -6 -6 -6 -6 -6 -6 -6 -6 -6 -6 -6 -6 -6 -6 -6 -6 -6 -6 -6 -6 -6 -6 -6 -6 -6 -6 -6 -6 -6 -6 -6 -6 -6 -6 -5 7 73 73 7 -4 -6 -6 -6 -6 -6 -6 -6 -6 -6 -6 -6 -6 -6 -6 -6 -6 -6 -6 -6 -6 -6 -6 -6 -6 -6 -6 -6 -6 -6 -6 -6 -6 -6 -6 -6 -6 -6 -5 6 73 
82 18 6 5 5 5 5 5 5 5 5 5 5 5 5 5 5 5 5 5 5 5 5 5 5 5 5 5 5 5 5 5 5 5 5 5 5 5 5 5 5 5 5 5 5 5 5 5 5 5 5 5 5 5 5 5 5 5 5 5 5 5 5 5 6 18 82 82 18 6 5 5 5 5 5 5 5 5 5 5 5 5 5 5 5 5 5 5 5 5 5 5 5 5 5 5 5 5 5 5 5 5 5 5 5 5 5 6 18 82 
129 82 73 72 72 72 72 72 72 72 72 72 72 72 72 72 72 72 72 72 72 72 72 72 72 72 72 72 72 72 72 72 73 76 75 73 72 72 72 72 72 72 72 72 72 72 72 72 73 75 75 73 72 72 72 72 72 72 72 72 72 72 72 72 73 81 126 126 81 73 72 72 72 72 72 72 72 72 72 72 72 72 72 72 72 72 72 72 72 72 72 73 76 75 73 72 72 72 72 72 72 72 72 73 76 75 73 73 82 129 
