P2
110 110
255
92 51 47 47 47 47 47 47 47 47 47 47 47 47 47 47 47 47 47 47 47 47 47 47 47 47 47 47 47 47 47 48 60 120 87 50 47 47 47 47 47 47 47 47 47 47 47 47 51 92 92 51 47 47 47 47 47 47 47 47 47 47 47 47 47 47 48 48 47 47 47 47 47 47 47 47 47 47 47 47 47 47 47 47 47 47 47 47 47 47 48 57 120 87 50 47 47 47 47 47 47 47 48 57 120 87 50 48 51 92 
51 0 -4 -4 -4 -4 -4 -4 -4 -4 -4 -4 -4 -4 -4 -4 -4 -4 -4 -4 -4 -4 -4 -4 -4 -4 -4 -4 -4 -4 -3 6 79 77 5 -3 -4 -4 -4 -4 -4 -4 -4 -4 -4 -4 -4 -4 0 51 51 0 -4 -4 -4 -4 -4 -4 -4 -4 -4 -4 -4 -4 -4 -4 -4 -4 -4 -4 -4 -4 -4 -4 -4 -4 -4 -4 -4 -4 -4 -4 -4 -4 -4 -4 -4 -4 -4 -4 0 48 81 6 -3 -4 -4 -4 -4 -4 -4 -4 0 46 81 6 -3 -4 0 51 
47 -4 -8 -8 -8 -8 -8 -8 -8 -8 -8 -8 -8 -8 -8 -8 -8 -8 -8 -8 -8 -8 -8 -8 -8 -8 -8 -8 -8 -8 -4 45 80 5 -7 -8 -8 -8 -8 -8 -8 -8 -8 -8 -8 -8 -8 -8 -3 51 48 -4 -8 -8 -8 -8 -8 -8 -8 -8 -8 -8 -8 -8 -8 -8 -8 -8 -8 -8 -8 -8 -8 -8 -8 -8 -8 -8 -8 -8 -8 -8 -8 -8 -8 -8 -8 -8 -8 -8 2 80 44 -4 -8 -8 -8 -8 -8 -8 -8 -8 -4 47 50 -3 -8 -8 -4 47 
47 -4 -8 -8 -8 -8 -8 -8 -8 -8 -8 -8 -8 -8 -8 -8 -8 -8 -8 -8 -8 -8 -8 -8 -8 -8 -8 -8 -8 -7 5 80 44 -4 -8 -8 -8 -8 -8 -8 -8 -8 -8 -8 -8 -8 -8 -8 2 86 48 -4 -8 -8 -8 -8 -8 -8 -8 -8 -8 -8 -8 -8 -8 -8 -8 -8 -8 -8 -8 -8 -8 -8 -8 -8 -8 -8 -8 -8 -8 -8 -8 -8 -8 -8 -8 -8 -8 -4 42 80 2 -8 -8 -8 -8 -8 -8 -8 -8 -8 -4 50 47 -4 -8 -8 -4 47 
47 -4 -8 -8 -8 -8 -8 -8 -8 -8 -8 -8 -8 -8 -8 -8 -8 -8 -8 -8 -8 -8 -8 -8 -8 -8 -8 -8 -8 2 76 76 2 -8 -8 -8 -8 -8 -8 -8 -8 -8 -8 -8 -8 -8 -8 -4 45 123 48 -4 -8 -8 -8 -8 -8 -8 -8 -8 -8 -8 -8 -8 -8 -8 -8 -8 -8 -8 -8 -8 -8 -8 -8 -8 -8 -8 -8 -8 -8 -8 -8 -8 -8 -8 -8 -8 -8 -4 50 50 -4 -8 -8 -8 -8 -8 -8 -8 -8 -8 2 80 42 -4 -8 -8 -4 47 
47 -4 -8 -8 -8 -8 -8 -8 -8 -8 -8 -8 -8 -8 -8 -8 -8 -8 -8 -8 -8 -8 -8 -8 -8 -8 -8 -8 -4 44 80 5 -7 -8 -8 -8 -8 -8 -8 -8 -8 -8 -8 -8 -8 -8 -8 2 81 94 48 -4 -8 -8 -8 -8 -8 -8 -8 -8 -8 -8 -8 -8 -8 -8 -8 -8 -8 -8 -8 -8 -8 -8 -8 -8 -8 -8 -8 -8 -8 -8 -8 -8 -8 -8 -8 -8 -8 2 80 42 -4 -8 -8 -8 -8 -8 -8 -8 -8 -4 42 80 2 -8 -8 -8 -4 47 
47 -4 -8 -8 -8 -8 -8 -8 -8 -8 -8 -8 -8 -8 -8 -8 -8 -8 -8 -8 -8 -8 -8 -8 -8 -8 -8 -7 5 80 44 -4 -8 -8 -8 -8 -8 -8 -8 -8 -8 -8 -8 -8 -8 -8 -4 44 83 57 47 -4 -8 -8 -8 -8 -8 -8 -8 -8 -8 -8 -8 -8 -8 -8 -8 -8 -8 -8 -8 -8 -8 -8 -8 -8 -8 -8 -8 -8 -8 -8 -8 -8 -8 -8 -8 -8 -4 44 80 2 -8 -8 -8 -8 -8 -8 -8 -8 -8 -4 47 50 -4 -8 -8 -8 -4 47 
47 -4 -8 -8 -8 -8 -8 -8 -8 -8 -8 -8 -8 -8 -8 -8 -8 -8 -8 -8 -8 -8 -8 -8 -8 -8 -8 2 76 76 2 -8 -8 -8 -8 -8 -8 -8 -8 -8 -8 -8 -8 -8 -8 -8 2 80 48 51 50 -4 -8 -8 -8 -8 -8 -8 -8 -8 -8 -8 -8 -8 -8 -8 -8 -8 -8 -8 -8 -8 -8 -8 -8 -8 -8 -8 -8 -8 -8 -8 -8 -8 -8 -8 -8 -8 2 80 44 -4 -8 -8 -8 -8 -8 -8 -8 -8 -8 -4 50 47 -4 -8 -8 -8 -4 47 
47 -4 -8 -8 -8 -8 -8 -8 -8 -8 -8 -8 -8 -8 -8 -8 -8 -8 -8 -8 -8 -8 -8 -8 -8 -8 -4 44 80 5 -7 -8 -8 -8 -8 -8 -8 -8 -8 -8 -8 -8 -8 -8 -8 -4 44 80 6 42 80 2 -8 -8 -8 -8 -8 -8 -8 -8 -8 -8 -8 -8 -8 -8 -8 -8 -8 -8 -8 -8 -8 -8 -8 -8 -8 -8 -8 -8 -8 -8 -8 -8 -8 -8 -8 -4 42 80 2 -8 -8 -8 -8 -8 -8 -8 -8 -8 -8 2 80 42 -4 -8 -8 -8 -4 47 
47 -4 -8 -8 -8 -8 -8 -8 -8 -8 -8 -8 -8 -8 -8 -8 -8 -8 -8 -8 -8 -8 -8 -8 -8 -7 5 80 44 -4 -8 -8 -8 -8 -8 -8 -8 -8 -8 -8 -8 -8 -8 -8 -7 5 80 44 -3 2 80 42 -4 -8 -8 -8 -8 -8 -8 -8 -8 -8 -8 -8 -8 -8 -8 -8 -8 -8 -8 -8 -8 -8 -8 -8 -8 -8 -8 -8 -8 -8 -8 -8 -8 -8 -8 -4 50 50 -4 -8 -8 -8 -8 -8 -8 -8 -8 -8 -4 42 80 2 -8 -8 -8 -8 -4 47 
47 -4 -8 -8 -8 -8 -8 -8 -8 -8 -8 -8 -8 -8 -8 -8 -8 -8 -8 -8 -8 -8 -8 -8 -8 2 76 76 2 -8 -8 -8 -8 -8 -8 -8 -8 -8 -8 -8 -8 -8 -8 -8 2 76 76 2 -8 -4 50 47 -4 -8 -8 -8 -8 -8 -8 -8 -8 -8 -8 -8 -8 -8 -8 -8 -8 -8 -8 -8 -8 -8 -8 -8 -8 -8 -8 -8 -8 -8 -8 -8 -8 -8 -8 2 80 42 -4 -8 -8 -8 -8 -8 -8 -8 -8 -8 -4 47 50 -4 -8 -8 -8 -8 -4 47 
47 -4 -8 -8 -8 -8 -8 -8 -8 -8 -8 -8 -8 -8 -8 -8 -8 -8 -8 -8 -8 -8 -8 -8 -4 44 80 5 -7 -8 -8 -8 -8 -8 -8 -8 -8 -8 -8 -8 -8 -8 -8 -4 44 80 5 -7 -8 -4 47 47 -4 -8 -8 -8 -8 -8 -8 -8 -8 -8 -8 -8 -8 -8 -8 -8 -8 -8 -8 -8 -8 -8 -8 -8 -8 -8 -8 -8 -8 -8 -8 -8 -8 -8 -4 44 80 2 -8 -8 -8 -8 -8 -8 -8 -8 -8 -8 -4 50 47 -4 -8 -8 -8 -8 -4 47 
47 -4 -8 -8 -8 -8 -8 -8 -8 -8 -8 -8 -8 -8 -8 -8 -8 -8 -8 -8 -8 -8 -8 -7 5 80 44 -4 -8 -8 -8 -8 -8 -8 -8 -8 -8 -8 -8 -8 -8 -8 -8 2 80 44 -4 -8 -8 -4 47 47 -4 -8 -8 -8 -8 -8 -8 -8 -8 -8 -8 -8 -8 -8 -8 -8 -8 -8 -8 -8 -8 -8 -8 -8 -8 -8 -8 -8 -8 -8 -8 -8 -8 -8 2 80 44 -4 -8 -8 -8 -8 -8 -8 -8 -8 -8 -8 2 80 42 -4 -8 -8 -8 -8 -4 47 
50 -3 -8 -8 -8 -8 -8 -8 -8 -8 -8 -8 -8 -8 -8 -8 -8 -8 -8 -8 -8 -8 -8 2 76 76 2 -8 -8 -8 -8 -8 -8 -8 -8 -8 -8 -8 -8 -8 -8 -8 -4 44 80 2 -8 -8 -8 -4 47 47 -4 -8 -8 -8 -8 -8 -8 -8 -8 -8 -8 -8 -8 -8 -8 -8 -8 -8 -8 -8 -8 -8 -8 -8 -8 -8 -8 -8 -8 -8 -8 -8 -8 -4 42 80 2 -8 -8 -8 -8 -8 -8 -8 -8 -8 -8 -4 42 80 2 -8 -8 -8 -8 -8 -4 47 
87 5 -7 -8 -8 -8 -8 -8 -8 -8 -8 -8 -8 -8 -8 -8 -8 -8 -8 -8 -8 -8 -4 44 80 5 -7 -8 -8 -8 -8 -8 -8 -8 -8 -8 -8 -8 -8 -8 -8 -8 2 80 44 -4 -8 -8 -8 -4 47 50 -4 -8 -8 -8 -8 -8 -8 -8 -8 -8 -8 -8 -8 -8 -8 -8 -8 -8 -8 -8 -8 -8 -8 -8 -8 -8 -8 -8 -8 -8 -8 -8 -8 -4 50 50 -4 -8 -8 -8 -8 -8 -8 -8 -8 -8 -8 -4 47 50 -4 -8 -8 -8 -8 -8 -4 48 
120 77 5 -7 -8 -8 -8 -8 -8 -8 -8 -8 -8 -8 -8 -8 -8 -8 -8 -8 -8 -7 5 80 44 -4 -8 -8 -8 -8 -8 -8 -8 -8 -8 -8 -8 -8 -8 -8 -8 -4 44 80 2 -8 -8 -8 -8 -4 42 80 2 -8 -8 -8 -8 -8 -8 -8 -8 -8 -8 -8 -8 -8 -8 -8 -8 -8 -8 -8 -8 -8 -8 -8 -8 -8 -8 -8 -8 -8 -8 -8 -8 2 80 42 -4 -8 -8 -8 -8 -8 -8 -8 -8 -8 -8 -4 50 47 -4 -8 -8 -8 -8 -8 -4 48 
60 80 76 5 -7 -8 -8 -8 -8 -8 -8 -8 -8 -8 -8 -8 -8 -8 -8 -8 -8 2 76 76 2 -8 -8 -8 -8 -8 -8 -8 -8 -8 -8 -8 -8 -8 -8 -8 -7 5 80 44 -4 -8 -8 -8 -8 -8 2 80 42 -4 -8 -8 -8 -8 -8 -8 -8 -8 -8 -8 -8 -8 -8 -8 -8 -8 -8 -8 -8 -8 -8 -8 -8 -8 -8 -8 -8 -8 -8 -8 -4 44 80 2 -8 -8 -8 -8 -8 -8 -8 -8 -8 -8 -8 2 80 42 -4 -8 -8 -8 -8 -8 -4 47 
48 9 76 76 2 -8 -8 -8 -8 -8 -8 -8 -8 -8 -8 -8 -8 -8 -8 -8 -4 44 80 5 -7 -8 -8 -8 -8 -8 -8 -8 -8 -8 -8 -8 -8 -8 -8 -8 2 76 76 2 -8 -8 -8 -8 -8 -8 -4 50 47 -4 -8 -8 -8 -8 -8 -8 -8 -8 -8 -8 -8 -8 -8 -8 -8 -8 -8 -8 -8 -8 -8 -8 -8 -8 -8 -8 -8 -8 -8 -8 2 80 44 -4 -8 -8 -8 -8 -8 -8 -8 -8 -8 -8 -4 42 80 2 -8 -8 -8 -8 -8 -8 -4 47 
47 -3 6 80 44 -4 -8 -8 -8 -8 -8 -8 -8 -8 -8 -8 -8 -8 -8 -7 5 80 44 -4 -8 -8 -8 -8 -8 -8 -8 -8 -8 -8 -8 -8 -8 -8 -8 -4 44 80 5 -7 -8 -8 -8 -8 -8 -8 -4 47 47 -4 -8 -8 -8 -8 -8 -8 -8 -8 -8 -8 -8 -8 -8 -8 -8 -8 -8 -8 -8 -8 -8 -8 -8 -8 -8 -8 -8 -8 -8 -4 42 80 2 -8 -8 -8 -8 -8 -8 -8 -8 -8 -8 -8 -4 47 50 -4 -8 -8 -8 -8 -8 -8 -4 47 
47 -4 -4 44 80 5 -7 -8 -8 -8 -8 -8 -8 -8 -8 -8 -8 -8 -8 2 76 76 2 -8 -8 -8 -8 -8 -8 -8 -8 -8 -8 -8 -8 -8 -8 -8 -8 2 80 44 -4 -8 -8 -8 -8 -8 -8 -8 -4 47 47 -4 -8 -8 -8 -8 -8 -8 -8 -8 -8 -8 -8 -8 -8 -8 -8 -8 -8 -8 -8 -8 -8 -8 -8 -8 -8 -8 -8 -8 -8 -4 50 50 -4 -8 -8 -8 -8 -8 -8 -8 -8 -8 -8 -8 -4 50 47 -4 -8 -8 -8 -8 -8 -8 -4 47 
47 -4 -8 2 76 76 5 -7 -8 -8 -8 -8 -8 -8 -8 -8 -8 -8 -4 44 80 5 -7 -8 -8 -8 -8 -8 -8 -8 -8 -8 -8 -8 -8 -8 -8 -8 -4 44 80 2 -8 -8 -8 -8 -8 -8 -8 -8 -4 47 47 -4 -8 -8 -8 -8 -8 -8 -8 -8 -8 -8 -8 -8 -8 -8 -8 -8 -8 -8 -8 -8 -8 -8 -8 -8 -8 -8 -8 -8 -8 2 80 42 -4 -8 -8 -8 -8 -8 -8 -8 -8 -8 -8 -8 2 80 42 -4 -8 -8 -8 -8 -8 -8 -4 47 
47 -4 -8 -7 5 76 76 5 -7 -8 -8 -8 -8 -8 -8 -8 -8 -7 5 80 44 -4 -8 -8 -8 -8 -8 -8 -8 -8 -8 -8 -8 -8 -8 -8 -8 -8 2 80 44 -4 -8 -8 -8 -8 -8 -8 -8 -8 -4 47 50 -4 -8 -8 -8 -8 -8 -8 -8 -8 -8 -8 -8 -8 -8 -8 -8 -8 -8 -8 -8 -8 -8 -8 -8 -8 -8 -8 -8 -8 -4 44 80 2 -8 -8 -8 -8 -8 -8 -8 -8 -8 -8 -8 -4 42 80 2 -8 -8 -8 -8 -8 -8 -8 -4 47 
47 -4 -8 -8 -7 5 76 76 5 -7 -8 -8 -8 -8 -8 -8 -8 2 76 76 2 -8 -8 -8 -8 -8 -8 -8 -8 -8 -8 -8 -8 -8 -8 -8 -8 -4 44 80 2 -8 -8 -8 -8 -8 -8 -8 -8 -8 -4 42 80 2 -8 -8 -8 -8 -8 -8 -8 -8 -8 -8 -8 -8 -8 -8 -8 -8 -8 -8 -8 -8 -8 -8 -8 -8 -8 -8 -8 -8 2 80 44 -4 -8 -8 -8 -8 -8 -8 -8 -8 -8 -8 -8 -4 47 50 -4 -8 -8 -8 -8 -8 -8 -8 -4 47 
47 -4 -8 -8 -8 -7 5 76 76 5 -7 -8 -8 -8 -8 -8 -4 44 80 5 -7 -8 -8 -8 -8 -8 -8 -8 -8 -8 -8 -8 -8 -8 -8 -8 -7 5 80 44 -4 -8 -8 -8 -8 -8 -8 -8 -8 -8 -8 2 80 42 -4 -8 -8 -8 -8 -8 -8 -8 -8 -8 -8 -8 -8 -8 -8 -8 -8 -8 -8 -8 -8 -8 -8 -8 -8 -8 -8 -4 42 80 2 -8 -8 -8 -8 -8 -8 -8 -8 -8 -8 -8 -8 -4 50 47 -4 -8 -8 -8 -8 -8 -8 -8 -4 47 
47 -4 -8 -8 -8 -8 -7 5 76 76 5 -7 -8 -8 -8 -7 5 80 44 -4 -8 -8 -8 -8 -8 -8 -8 -8 -8 -8 -8 -8 -8 -8 -8 -8 2 76 76 2 -8 -8 -8 -8 -8 -8 -8 -8 -8 -8 -8 -4 50 47 -4 -8 -8 -8 -8 -8 -8 -8 -8 -8 -8 -8 -8 -8 -8 -8 -8 -8 -8 -8 -8 -8 -8 -8 -8 -8 -8 -4 50 50 -4 -8 -8 -8 -8 -8 -8 -8 -8 -8 -8 -8 -8 2 80 42 -4 -8 -8 -8 -8 -8 -8 -8 -4 47 
47 -4 -8 -8 -8 -8 -8 -7 5 76 76 5 -7 -8 -8 2 76 76 2 -8 -8 -8 -8 -8 -8 -8 -8 -8 -8 -8 -8 -8 -8 -8 -8 -4 44 80 5 -7 -8 -8 -8 -8 -8 -8 -8 -8 -8 -8 -8 -4 47 47 -4 -8 -8 -8 -8 -8 -8 -8 -8 -8 -8 -8 -8 -8 -8 -8 -8 -8 -8 -8 -8 -8 -8 -8 -8 -8 -8 2 80 42 -4 -8 -8 -8 -8 -8 -8 -8 -8 -8 -8 -8 -4 42 80 2 -8 -8 -8 -8 -8 -8 -8 -8 -4 47 
47 -4 -8 -8 -8 -8 -8 -8 -7 5 76 76 5 -7 -4 44 80 5 -7 -8 -8 -8 -8 -8 -8 -8 -8 -8 -8 -8 -8 -8 -8 -8 -8 2 80 44 -4 -8 -8 -8 -8 -8 -8 -8 -8 -8 -8 -8 -8 -4 47 47 -4 -8 -8 -8 -8 -8 -8 -8 -8 -8 -8 -8 -8 -8 -8 -8 -8 -8 -8 -8 -8 -8 -8 -8 -8 -8 -4 44 80 2 -8 -8 -8 -8 -8 -8 -8 -8 -8 -8 -8 -8 -4 47 50 -4 -8 -8 -8 -8 -8 -8 -8 -8 -4 47 
47 -4 -8 -8 -8 -8 -8 -8 -8 -7 5 76 76 6 6 80 44 -4 -8 -8 -8 -8 -8 -8 -8 -8 -8 -8 -8 -8 -8 -8 -8 -8 -4 44 80 2 -8 -8 -8 -8 -8 -8 -8 -8 -8 -8 -8 -8 -8 -4 47 50 -4 -8 -8 -8 -8 -8 -8 -8 -8 -8 -8 -8 -8 -8 -8 -8 -8 -8 -8 -8 -8 -8 -8 -8 -8 -8 2 80 44 -4 -8 -8 -8 -8 -8 -8 -8 -8 -8 -8 -8 -8 -4 50 47 -4 -8 -8 -8 -8 -8 -8 -8 -8 -4 47 
47 -4 -8 -8 -8 -8 -8 -8 -8 -8 -7 5 76 85 85 76 2 -8 -8 -8 -8 -8 -8 -8 -8 -8 -8 -8 -8 -8 -8 -8 -8 -8 2 80 44 -4 -8 -8 -8 -8 -8 -8 -8 -8 -8 -8 -8 -8 -8 -4 42 80 2 -8 -8 -8 -8 -8 -8 -8 -8 -8 -8 -8 -8 -8 -8 -8 -8 -8 -8 -8 -8 -8 -8 -8 -8 -4 42 80 2 -8 -8 -8 -8 -8 -8 -8 -8 -8 -8 -8 -8 -8 2 80 42 -4 -8 -8 -8 -8 -8 -8 -8 -8 -4 47 
47 -4 -8 -8 -8 -8 -8 -8 -8 -8 -8 -7 5 87 87 5 -7 -8 -8 -8 -8 -8 -8 -8 -8 -8 -8 -8 -8 -8 -8 -8 -8 -4 44 80 2 -8 -8 -8 -8 -8 -8 -8 -8 -8 -8 -8 -8 -8 -8 -8 2 80 42 -4 -8 -8 -8 -8 -8 -8 -8 -8 -8 -8 -8 -8 -8 -8 -8 -8 -8 -8 -8 -8 -8 -8 -8 -4 50 50 -4 -8 -8 -8 -8 -8 -8 -8 -8 -8 -8 -8 -8 -4 42 80 2 -8 -8 -8 -8 -8 -8 -8 -8 -8 -4 47 
47 -4 -8 -8 -8 -8 -8 -8 -8 -8 -8 -8 -3 50 51 -3 -8 -8 -8 -8 -8 -8 -8 -8 -8 -8 -8 -8 -8 -8 -8 -8 -7 5 80 44 -4 -8 -8 -8 -8 -8 -8 -8 -8 -8 -8 -8 -8 -8 -8 -8 -4 50 47 -4 -8 -8 -8 -8 -8 -8 -8 -8 -8 -8 -8 -8 -8 -8 -8 -8 -8 -8 -8 -8 -8 -8 -8 2 80 42 -4 -8 -8 -8 -8 -8 -8 -8 -8 -8 -8 -8 -8 -4 47 50 -4 -8 -8 -8 -8 -8 -8 -8 -8 -8 -4 47 
47 -4 -8 -8 -8 -8 -8 -8 -8 -8 -8 -8 -4 47 50 -4 -8 -8 -8 -8 -8 -8 -8 -8 -8 -8 -8 -8 -8 -8 -8 -8 2 76 76 2 -8 -8 -8 -8 -8 -8 -8 -8 -8 -8 -8 -8 -8 -8 -8 -8 -4 47 47 -4 -8 -8 -8 -8 -8 -8 -8 -8 -8 -8 -8 -8 -8 -8 -8 -8 -8 -8 -8 -8 -8 -8 -4 44 80 2 -8 -8 -8 -8 -8 -8 -8 -8 -8 -8 -8 -8 -8 -4 50 47 -4 -8 -8 -8 -8 -8 -8 -8 -8 -8 -4 47 
47 -4 -8 -8 -8 -8 -8 -8 -8 -8 -8 -8 -4 42 80 2 -8 -8 -8 -8 -8 -8 -8 -8 -8 -8 -8 -8 -8 -8 -8 -4 44 80 5 -7 -8 -8 -8 -8 -8 -8 -8 -8 -8 -8 -8 -8 -8 -8 -8 -8 -4 47 47 -4 -8 -8 -8 -8 -8 -8 -8 -8 -8 -8 -8 -8 -8 -8 -8 -8 -8 -8 -8 -8 -8 -8 2 80 44 -4 -8 -8 -8 -8 -8 -8 -8 -8 -8 -8 -8 -8 -8 2 80 42 -4 -8 -8 -8 -8 -8 -8 -8 -8 -8 -4 47 
47 -4 -8 -8 -8 -8 -8 -8 -8 -8 -8 -8 -8 2 80 42 -4 -8 -8 -8 -8 -8 -8 -8 -8 -8 -8 -8 -8 -8 -8 2 80 44 -4 -8 -8 -8 -8 -8 -8 -8 -8 -8 -8 -8 -8 -8 -8 -8 -8 -8 -4 47 47 -4 -8 -8 -8 -8 -8 -8 -8 -8 -8 -8 -8 -8 -8 -8 -8 -8 -8 -8 -8 -8 -8 -4 42 80 2 -8 -8 -8 -8 -8 -8 -8 -8 -8 -8 -8 -8 -8 -4 42 80 2 -8 -8 -8 -8 -8 -8 -8 -8 -8 -8 -4 47 
47 -4 -8 -8 -8 -8 -8 -8 -8 -8 -8 -8 -8 -4 50 47 -4 -8 -8 -8 -8 -8 -8 -8 -8 -8 -8 -8 -8 -8 -4 44 80 2 -8 -8 -8 -8 -8 -8 -8 -8 -8 -8 -8 -8 -8 -8 -8 -8 -8 -8 -4 47 50 -4 -8 -8 -8 -8 -8 -8 -8 -8 -8 -8 -8 -8 -8 -8 -8 -8 -8 -8 -8 -8 -8 -4 50 50 -4 -8 -8 -8 -8 -8 -8 -8 -8 -8 -8 -8 -8 -8 -4 47 50 -4 -8 -8 -8 -8 -8 -8 -8 -8 -8 -8 -4 47 
47 -4 -8 -8 -8 -8 -8 -8 -8 -8 -8 -8 -8 -4 47 47 -4 -8 -8 -8 -8 -8 -8 -8 -8 -8 -8 -8 -8 -8 2 80 44 -4 -8 -8 -8 -8 -8 -8 -8 -8 -8 -8 -8 -8 -8 -8 -8 -8 -8 -8 -4 42 80 2 -8 -8 -8 -8 -8 -8 -8 -8 -8 -8 -8 -8 -8 -8 -8 -8 -8 -8 -8 -8 -8 2 80 42 -4 -8 -8 -8 -8 -8 -8 -8 -8 -8 -8 -8 -8 -8 -4 50 47 -4 -8 -8 -8 -8 -8 -8 -8 -8 -8 -8 -4 47 
47 -4 -8 -8 -8 -8 -8 -8 -8 -8 -8 -8 -8 -4 47 50 -4 -8 -8 -8 -8 -8 -8 -8 -8 -8 -8 -8 -8 -4 44 80 2 -8 -8 -8 -8 -8 -8 -8 -8 -8 -8 -8 -8 -8 -8 -8 -8 -8 -8 -8 -8 2 80 42 -4 -8 -8 -8 -8 -8 -8 -8 -8 -8 -8 -8 -8 -8 -8 -8 -8 -8 -8 -8 -4 44 80 2 -8 -8 -8 -8 -8 -8 -8 -8 -8 -8 -8 -8 -8 -8 2 80 42 -4 -8 -8 -8 -8 -8 -8 -8 -8 -8 -8 -4 50 
48 -4 -8 -8 -8 -8 -8 -8 -8 -8 -8 -8 -8 -4 42 80 2 -8 -8 -8 -8 -8 -8 -8 -8 -8 -8 -8 -7 5 80 44 -4 -8 -8 -8 -8 -8 -8 -8 -8 -8 -8 -8 -8 -8 -8 -8 -8 -8 -8 -8 -8 -4 50 47 -4 -8 -8 -8 -8 -8 -8 -8 -8 -8 -8 -8 -8 -8 -8 -8 -8 -8 -8 -8 2 80 44 -4 -8 -8 -8 -8 -8 -8 -8 -8 -8 -8 -8 -8 -8 -4 42 80 2 -8 -8 -8 -8 -8 -8 -8 -8 -8 -8 -8 2 86 
48 -4 -8 -8 -8 -8 -8 -8 -8 -8 -8 -8 -8 -8 2 80 42 -4 -8 -8 -8 -8 -8 -8 -8 -8 -8 -8 2 76 76 2 -8 -8 -8 -8 -8 -8 -8 -8 -8 -8 -8 -8 -8 -8 -8 -8 -8 -8 -8 -8 -8 -4 47 47 -4 -8 -8 -8 -8 -8 -8 -8 -8 -8 -8 -8 -8 -8 -8 -8 -8 -8 -8 -4 42 80 2 -8 -8 -8 -8 -8 -8 -8 -8 -8 -8 -8 -8 -8 -8 -4 47 50 -4 -8 -8 -8 -8 -8 -8 -8 -8 -8 -8 -4 45 123 
48 -4 -8 -8 -8 -8 -8 -8 -8 -8 -8 -8 -8 -8 -4 50 47 -4 -8 -8 -8 -8 -8 -8 -8 -8 -8 -4 44 80 5 -7 -8 -8 -8 -8 -8 -8 -8 -8 -8 -8 -8 -8 -8 -8 -8 -8 -8 -8 -8 -8 -8 -4 47 47 -4 -8 -8 -8 -8 -8 -8 -8 -8 -8 -8 -8 -8 -8 -8 -8 -8 -8 -8 -4 50 50 -4 -8 -8 -8 -8 -8 -8 -8 -8 -8 -8 -8 -8 -8 -8 -4 50 47 -4 -8 -8 -8 -8 -8 -8 -8 -8 -8 -7 5 81 94 
47 -4 -8 -8 -8 -8 -8 -8 -8 -8 -8 -8 -8 -8 -4 47 47 -4 -8 -8 -8 -8 -8 -8 -8 -8 -8 2 80 44 -4 -8 -8 -8 -8 -8 -8 -8 -8 -8 -8 -8 -8 -8 -8 -8 -8 -8 -8 -8 -8 -8 -8 -4 47 47 -4 -8 -8 -8 -8 -8 -8 -8 -8 -8 -8 -8 -8 -8 -8 -8 -8 -8 -8 2 80 42 -4 -8 -8 -8 -8 -8 -8 -8 -8 -8 -8 -8 -8 -8 -8 2 80 42 -4 -8 -8 -8 -8 -8 -8 -8 -8 -8 2 76 79 57 
47 -4 -8 -8 -8 -8 -8 -8 -8 -8 -8 -8 -8 -8 -4 47 50 -4 -8 -8 -8 -8 -8 -8 -8 -8 -4 44 80 2 -8 -8 -8 -8 -8 -8 -8 -8 -8 -8 -8 -8 -8 -8 -8 -8 -8 -8 -8 -8 -8 -8 -8 -4 47 50 -4 -8 -8 -8 -8 -8 -8 -8 -8 -8 -8 -8 -8 -8 -8 -8 -8 -8 -4 44 80 2 -8 -8 -8 -8 -8 -8 -8 -8 -8 -8 -8 -8 -8 -8 -4 42 80 2 -8 -8 -8 -8 -8 -8 -8 -8 -8 -4 44 80 10 48 
47 -4 -8 -8 -8 -8 -8 -8 -8 -8 -8 -8 -8 -8 -4 42 80 2 -8 -8 -8 -8 -8 -8 -8 -8 2 80 44 -4 -8 -8 -8 -8 -8 -8 -8 -8 -8 -8 -8 -8 -8 -8 -8 -8 -8 -8 -8 -8 -8 -8 -8 -4 42 80 2 -8 -8 -8 -8 -8 -8 -8 -8 -8 -8 -8 -8 -8 -8 -8 -8 -8 2 80 44 -4 -8 -8 -8 -8 -8 -8 -8 -8 -8 -8 -8 -8 -8 -8 -4 47 50 -4 -8 -8 -8 -8 -8 -8 -8 -8 -7 5 80 45 0 47 
47 -4 -8 -8 -8 -8 -8 -8 -8 -8 -8 -8 -8 -8 -8 2 80 42 -4 -8 -8 -8 -8 -8 -8 -4 44 80 2 -8 -8 -8 -8 -8 -8 -8 -8 -8 -8 -8 -8 -8 -8 -8 -8 -8 -8 -8 -8 -8 -8 -8 -8 -8 2 80 42 -4 -8 -8 -8 -8 -8 -8 -8 -8 -8 -8 -8 -8 -8 -8 -8 -4 42 80 2 -8 -8 -8 -8 -8 -8 -8 -8 -8 -8 -8 -8 -8 -8 -8 -4 50 47 -4 -8 -8 -8 -8 -8 -8 -8 -8 2 76 76 2 -3 47 
47 -4 -8 -8 -8 -8 -8 -8 -8 -8 -8 -8 -8 -8 -8 -4 50 47 -4 -8 -8 -8 -8 -8 -7 5 80 44 -4 -8 -8 -8 -8 -8 -8 -8 -8 -8 -8 -8 -8 -8 -8 -8 -8 -8 -8 -8 -8 -8 -8 -8 -8 -8 -4 50 47 -4 -8 -8 -8 -8 -8 -8 -8 -8 -8 -8 -8 -8 -8 -8 -8 -4 50 50 -4 -8 -8 -8 -8 -8 -8 -8 -8 -8 -8 -8 -8 -8 -8 -8 2 80 42 -4 -8 -8 -8 -8 -8 -8 -8 -4 44 80 5 -7 -4 47 
47 -4 -8 -8 -8 -8 -8 -8 -8 -8 -8 -8 -8 -8 -8 -4 47 47 -4 -8 -8 -8 -8 -8 2 76 76 2 -8 -8 -8 -8 -8 -8 -8 -8 -8 -8 -8 -8 -8 -8 -8 -8 -8 -8 -8 -8 -8 -8 -8 -8 -8 -8 -3 51 51 0 -4 -4 -4 -4 -8 -8 -8 -8 -8 -8 -8 -8 -8 -8 -8 2 80 42 -4 -8 -8 -8 -8 -8 -8 -8 -8 -8 -8 -8 -8 -8 -8 -4 42 80 2 -8 -8 -8 -8 -8 -8 -8 -7 5 80 44 -4 -8 -4 47 
47 -4 -8 -8 -8 -8 -8 -8 -8 -8 -8 -8 -8 -8 -8 -4 47 50 -4 -8 -8 -8 -8 -4 44 80 5 -7 -8 -8 -8 -8 -8 -8 -8 -8 -8 -8 -8 -8 -8 -8 -8 -8 -8 -8 -8 -8 -8 -8 -8 -8 -8 -4 6 87 92 51 47 47 47 42 2 -4 -4 -4 -4 -4 -4 -8 -8 -8 -4 44 80 2 -8 -8 -8 -8 -8 -8 -8 -8 -8 -8 -8 -8 -8 -8 -8 -4 47 50 -4 -8 -8 -8 -8 -8 -8 -8 2 76 76 2 -8 -8 -4 47 
47 -4 -8 -8 -8 -8 -8 -8 -8 -8 -8 -8 -8 -8 -8 -4 42 80 2 -8 -8 -8 -8 2 80 44 -4 -8 -8 -8 -8 -8 -8 -8 -8 -8 -8 -8 -8 -8 -8 -8 -8 -8 -8 -8 -8 -8 -8 -8 -8 -7 2 44 80 82 51 47 47 47 50 80 80 50 47 47 47 47 42 2 -4 -3 6 80 44 -4 -8 -8 -8 -8 -8 -8 -8 -8 -8 -8 -8 -8 -8 -8 -8 -4 50 47 -4 -8 -8 -8 -8 -8 -8 -4 44 80 5 -7 -8 -8 -4 47 
47 -4 -8 -8 -8 -8 -8 -8 -8 -8 -8 -8 -8 -8 -8 -8 2 80 42 -4 -8 -8 -4 44 80 2 -8 -8 -8 -8 -8 -8 -8 -8 -8 -8 -8 -8 -8 -8 -8 -8 -8 -8 -8 -8 -8 -8 -8 -8 -4 5 76 80 44 2 -4 -4 -4 -4 -4 2 42 47 47 47 47 50 80 80 50 51 87 84 3 -8 -8 -8 -8 -8 -8 -8 -8 -8 -8 -8 -8 -8 -8 -8 -8 2 80 42 -4 -8 -8 -8 -8 -8 -7 5 80 44 -4 -8 -8 -8 -4 47 
47 -4 -8 -8 -8 -8 -8 -8 -8 -8 -8 -8 -8 -8 -8 -8 -4 50 47 -4 -8 -8 2 80 44 -4 -8 -8 -8 -8 -8 -8 -8 -8 -8 -8 -8 -8 -8 -8 -8 -8 -8 -8 -8 -8 -8 -8 -7 2 44 80 76 5 -4 -8 -8 -8 -8 -8 -8 -8 -4 -4 -4 -4 -4 -4 2 42 47 50 87 84 3 -8 -8 -8 -8 -8 -8 -8 -8 -8 -8 -8 -8 -8 -8 -8 -4 42 80 2 -8 -8 -8 -8 -8 -8 2 76 76 2 -8 -8 -8 -8 -4 47 
47 -4 -8 -8 -8 -8 -8 -8 -8 -8 -8 -8 -8 -8 -8 -8 -4 47 47 -4 -8 -4 44 80 2 -8 -8 -8 -8 -8 -8 -8 -8 -8 -8 -8 -8 -8 -8 -8 -8 -8 -8 -8 -8 -8 -8 -4 5 76 80 44 2 -7 -8 -8 -8 -8 -8 -8 -8 -8 -8 -8 -8 -8 -8 -8 -8 -4 -4 -3 6 80 44 -4 -8 -8 -8 -8 -8 -8 -8 -8 -8 -8 -8 -8 -8 -8 -4 47 50 -4 -8 -8 -8 -8 -8 -4 44 80 5 -7 -8 -8 -8 -8 -4 47 
47 -4 -8 -8 -8 -8 -8 -8 -8 -8 -8 -8 -8 -8 -8 -8 -4 47 50 -3 -7 5 80 44 -4 -8 -8 -8 -8 -8 -8 -8 -8 -8 -8 -8 -8 -8 -8 -8 -8 -8 -8 -8 -8 -7 2 44 80 76 5 -4 -8 -8 -8 -8 -8 -8 -8 -8 -8 -8 -8 -8 -8 -8 -8 -8 -8 -8 -8 -8 -4 44 80 5 -7 -8 -8 -8 -8 -8 -8 -8 -8 -8 -8 -8 -8 -8 -4 50 47 -4 -8 -8 -8 -8 -7 5 80 44 -4 -8 -8 -8 -8 -8 -4 47 
47 -4 -8 -8 -8 -8 -8 -8 -8 -8 -8 -8 -8 -8 -8 -8 -4 42 80 3 2 76 76 2 -8 -8 -8 -8 -8 -8 -8 -8 -8 -8 -8 -8 -8 -8 -8 -8 -8 -8 -8 -8 -7 5 76 80 44 2 -7 -8 -8 -8 -8 -8 -8 -8 -8 -8 -8 -8 -8 -8 -8 -8 -8 -8 -8 -8 -8 -8 -8 2 76 76 5 -4 -8 -8 -8 -8 -8 -8 -8 -8 -8 -8 -8 -8 2 80 42 -4 -8 -8 -8 -8 2 76 76 2 -8 -8 -8 -8 -8 -8 -4 47 
47 -4 -8 -8 -8 -8 -8 -8 -8 -8 -8 -8 -8 -8 -8 -8 -8 2 80 46 48 80 5 -7 -8 -8 -8 -8 -8 -8 -8 -8 -8 -8 -8 -8 -8 -8 -8 -8 -8 -8 -8 -4 5 76 76 5 -4 -8 -8 -8 -8 -8 -8 -8 -8 -8 -8 -8 -8 -8 -8 -8 -8 -8 -8 -8 -8 -8 -8 -8 -8 -7 5 82 86 45 2 -4 -4 -4 -4 -4 -4 -4 -4 -4 -4 0 45 83 3 -8 -8 -8 -8 -4 44 80 5 -7 -8 -8 -8 -8 -8 -8 -4 47 
47 -4 -8 -8 -8 -8 -8 -8 -8 -8 -8 -8 -8 -8 -8 -8 -8 -4 50 57 83 44 -4 -8 -8 -8 -8 -8 -8 -8 -8 -8 -8 -8 -8 -8 -8 -8 -8 -8 -8 -7 2 44 80 76 5 -7 -8 -8 -8 -8 -8 -8 -8 -8 -8 -8 -8 -8 -8 -8 -8 -8 -8 -8 -8 -8 -8 -8 -8 -8 -8 -8 -3 51 94 83 80 50 47 47 47 47 47 47 47 47 47 51 91 89 6 -4 -8 -8 -7 5 80 44 -4 -8 -8 -8 -8 -8 -8 -8 -4 47 
47 -4 -8 -8 -8 -8 -8 -8 -8 -8 -8 -8 -8 -8 -8 -8 -8 -4 48 94 81 2 -8 -8 -8 -8 -8 -8 -8 -8 -8 -8 -8 -8 -8 -8 -8 -8 -8 -8 -4 5 76 80 44 2 -7 -8 -8 -8 -8 -8 -8 -8 -8 -8 -8 -8 -8 -8 -8 -8 -8 -8 -8 -8 -8 -8 -8 -8 -8 -8 -8 -8 -4 50 51 6 42 47 47 47 47 47 47 47 47 47 47 47 51 82 80 44 2 -3 2 76 76 2 -8 -8 -8 -8 -8 -8 -8 -8 -4 47 
47 -4 -8 -8 -8 -8 -8 -8 -8 -8 -8 -8 -8 -8 -8 -8 -8 -4 48 123 45 -4 -8 -8 -8 -8 -8 -8 -8 -8 -8 -8 -8 -8 -8 -8 -8 -8 -7 2 44 80 76 5 -4 -8 -8 -8 -8 -8 -8 -8 -8 -8 -8 -8 -8 -8 -8 -8 -8 -8 -8 -8 -8 -8 -8 -8 -8 -8 -8 -8 -8 -8 2 80 42 -4 -4 -4 -4 -4 -4 -4 -4 -4 -4 -4 -4 -4 -4 2 44 80 80 48 52 81 5 -7 -8 -8 -8 -8 -8 -8 -8 -8 -4 47 
47 -4 -8 -8 -8 -8 -8 -8 -8 -8 -8 -8 -8 -8 -8 -8 -8 -4 48 86 2 -8 -8 -8 -8 -8 -8 -8 -8 -8 -8 -8 -8 -8 -8 -8 -8 -4 5 76 80 44 2 -7 -8 -8 -8 -8 -8 -8 -8 -8 -8 -8 -8 -8 -8 -8 -8 -8 -8 -8 -8 -8 -8 -8 -8 -8 -8 -8 -8 -8 -8 -4 42 80 2 -8 -8 -8 -8 -8 -8 -8 -8 -8 -8 -8 -8 -8 -8 -8 -4 2 44 81 120 54 -3 -8 -8 -8 -8 -8 -8 -8 -8 -8 -4 47 
47 -4 -8 -8 -8 -8 -8 -8 -8 -8 -8 -8 -8 -8 -8 -8 -8 -4 47 50 -4 -8 -8 -8 -8 -8 -8 -8 -8 -8 -8 -8 -8 -8 -8 -7 2 45 81 76 6 -4 -8 -8 -8 -8 -8 -8 -8 -8 -8 -8 -8 -8 -8 -8 -8 -8 -8 -8 -8 -8 -8 -8 -8 -8 -8 -8 -8 -8 -8 -8 -8 -4 47 50 -4 -8 -8 -8 -8 -8 -8 -8 -8 -8 -8 -8 -8 -8 -8 -8 -8 -8 -4 5 82 82 5 -7 -8 -8 -8 -8 -8 -8 -8 -8 -4 47 
47 -4 -8 -8 -8 -8 -8 -8 -8 -8 -8 -8 -8 -8 -8 -8 -8 -4 47 47 -4 -8 -8 -8 -8 -8 -8 -8 -8 -8 -8 -8 -8 -4 -3 5 81 123 89 13 -2 -4 -4 -4 -8 -8 -8 -8 -8 -8 -8 -8 -8 -8 -8 -8 -8 -8 -8 -8 -8 -8 -8 -8 -8 -8 -8 -8 -8 -8 -8 -8 -8 -4 47 47 -4 -8 -8 -8 -8 -8 -8 -8 -8 -8 -8 -8 -8 -8 -8 -8 -8 -8 -8 -7 5 76 76 2 -8 -8 -8 -8 -8 -8 -8 -8 -4 47 
47 -4 -8 -8 -8 -8 -8 -8 -8 -8 -8 -8 -8 -8 -8 -8 -8 -4 50 47 -4 -8 -8 -8 -8 -8 -8 -8 -8 -8 -8 -4 2 42 50 80 82 54 81 81 50 47 47 42 2 -4 -4 -4 -8 -8 -8 -8 -8 -8 -8 -8 -8 -8 -8 -8 -8 -8 -8 -8 -8 -8 -8 -8 -8 -8 -8 -8 -8 -4 47 47 -4 -8 -8 -8 -8 -8 -8 -8 -8 -8 -8 -8 -8 -8 -8 -8 -8 -8 -8 -8 -7 5 80 44 -4 -8 -8 -8 -8 -8 -8 -8 -4 47 
47 -4 -8 -8 -8 -8 -8 -8 -8 -8 -8 -8 -8 -8 -8 -8 -8 2 80 42 -4 -8 -8 -8 -8 -8 -8 -8 -8 -4 2 44 80 80 50 42 2 -3 2 42 47 47 50 80 80 50 47 42 2 -4 -4 -4 -4 -8 -8 -8 -8 -8 -8 -8 -8 -8 -8 -8 -8 -8 -8 -8 -8 -8 -8 -8 -8 -4 50 47 -4 -8 -8 -8 -8 -8 -8 -8 -8 -8 -8 -8 -8 -8 -8 -8 -8 -8 -8 -8 -8 -4 44 80 5 -7 -8 -8 -8 -8 -8 -8 -4 47 
47 -4 -8 -8 -8 -8 -8 -8 -8 -8 -8 -8 -8 -8 -8 -8 -4 42 80 2 -8 -8 -8 -8 -8 -8 -4 -4 2 44 80 80 44 2 -4 -4 -8 -8 -8 -4 -4 -4 -4 2 42 47 50 80 80 50 47 47 42 2 -4 -4 -4 -8 -8 -8 -8 -8 -8 -8 -8 -8 -8 -8 -8 -8 -8 -8 -8 2 80 42 -4 -8 -8 -8 -8 -8 -8 -8 -8 -8 -8 -8 -8 -8 -8 -8 -8 -8 -8 -8 -8 -8 2 76 76 2 -8 -8 -8 -8 -8 -8 -4 47 
47 -4 -8 -8 -8 -8 -8 -8 -8 -8 -8 -8 -8 -8 -8 -8 -4 47 50 -4 -8 -8 -8 -8 -4 2 42 50 80 80 44 2 -4 -8 -8 -8 -8 -8 -8 -8 -8 -8 -8 -8 -4 -4 -4 2 42 47 47 50 80 80 50 47 42 2 -4 -4 -4 -4 -8 -8 -8 -8 -8 -8 -8 -8 -8 -8 -4 42 80 2 -8 -8 -8 -8 -8 -8 -8 -8 -8 -8 -8 -8 -8 -8 -8 -8 -8 -8 -8 -8 -8 -8 -7 5 80 44 -4 -8 -8 -8 -8 -8 -4 47 
47 -4 -8 -8 -8 -8 -8 -8 -8 -8 -8 -8 -8 -8 -8 -8 -4 47 47 -4 -8 -8 -4 2 44 80 80 50 42 2 -4 -8 -8 -8 -8 -8 -8 -8 -8 -8 -8 -8 -8 -8 -8 -8 -8 -8 -4 -4 -4 -4 2 42 47 50 80 80 50 47 47 42 2 -4 -4 -4 -8 -8 -8 -8 -8 -8 -4 47 50 -4 -8 -8 -8 -8 -8 -8 -8 -8 -8 -8 -8 -8 -8 -8 -8 -8 -8 -8 -8 -8 -8 -8 -8 -4 44 80 5 -7 -8 -8 -8 -8 -4 47 
47 -4 -8 -8 -8 -8 -8 -8 -8 -8 -8 -8 -8 -8 -8 -8 -4 50 47 -3 -4 2 44 80 80 44 2 -4 -4 -8 -8 -8 -8 -8 -8 -8 -8 -8 -8 -8 -8 -8 -8 -8 -8 -8 -8 -8 -8 -8 -8 -8 -8 -4 -4 -4 2 42 47 47 50 80 80 50 47 42 2 -4 -4 -4 -4 -8 -4 47 47 -4 -8 -8 -8 -8 -8 -8 -8 -8 -8 -8 -8 -8 -8 -8 -8 -8 -8 -8 -8 -8 -8 -8 -8 -8 2 76 76 5 -7 -8 -8 -8 -4 47 
47 -4 -8 -8 -8 -8 -8 -8 -8 -8 -8 -8 -8 -8 -8 -8 2 81 46 6 45 80 80 44 2 -4 -8 -8 -8 -8 -8 -8 -8 -8 -8 -8 -8 -8 -8 -8 -8 -8 -8 -8 -8 -8 -8 -8 -8 -8 -8 -8 -8 -8 -8 -8 -8 -4 -4 -4 -4 2 42 47 50 80 80 50 47 47 42 2 0 51 47 -4 -8 -8 -8 -8 -8 -8 -8 -8 -8 -8 -8 -8 -8 -8 -8 -8 -8 -8 -8 -8 -8 -8 -8 -8 -7 5 76 76 2 -8 -8 -8 -4 47 
47 -4 -8 -8 -8 -8 -8 -8 -8 -8 -8 -8 -8 -8 -8 -4 45 119 60 81 80 44 2 -4 -8 -8 -8 -8 -8 -8 -8 -8 -8 -8 -8 -8 -8 -8 -8 -8 -8 -8 -8 -8 -8 -8 -8 -8 -8 -8 -8 -8 -8 -8 -8 -8 -8 -8 -8 -8 -8 -8 -4 -4 -4 2 42 47 47 50 80 80 54 92 48 -4 -8 -8 -8 -8 -8 -8 -8 -8 -8 -8 -8 -8 -8 -8 -8 -8 -8 -8 -8 -8 -8 -8 -8 -8 -8 -7 5 80 44 -4 -8 -8 -4 47 
47 -4 -8 -8 -8 -8 -8 -8 -8 -8 -8 -8 -8 -8 -8 2 81 87 50 42 2 -4 -8 -8 -8 -8 -8 -8 -8 -8 -8 -8 -8 -8 -8 -8 -8 -8 -8 -8 -8 -8 -8 -8 -8 -8 -8 -8 -8 -8 -8 -8 -8 -8 -8 -8 -8 -8 -8 -8 -8 -8 -8 -8 -8 -8 -4 -4 -4 -4 2 42 51 92 48 -4 -8 -8 -8 -8 -8 -8 -8 -8 -8 -8 -8 -8 -8 -8 -8 -8 -8 -8 -8 -8 -8 -8 -8 -8 -8 -8 -4 44 80 5 -7 -8 -4 47 
47 -4 -8 -8 -8 -8 -8 -8 -8 -8 -8 -8 -8 -8 -4 44 80 6 -3 -4 -8 -8 -8 -8 -8 -8 -8 -8 -8 -8 -8 -8 -8 -8 -8 -8 -8 -8 -8 -8 -8 -8 -8 -8 -8 -8 -8 -8 -8 -8 -8 -8 -8 -8 -8 -8 -8 -8 -8 -8 -8 -8 -8 -8 -8 -8 -8 -8 -8 -8 -8 -4 0 51 47 -4 -8 -8 -8 -8 -8 -8 -8 -8 -8 -8 -8 -8 -8 -8 -8 -8 -8 -8 -8 -8 -8 -8 -8 -8 -8 -8 -8 2 76 76 5 -7 -4 47 
47 -4 -8 -8 -8 -8 -8 -8 -8 -8 -8 -8 -8 -7 5 80 44 -4 -8 -8 -8 -8 -8 -8 -8 -8 -8 -8 -8 -8 -8 -8 -8 -8 -8 -8 -8 -8 -8 -8 -8 -8 -8 -8 -8 -8 -8 -8 -8 -8 -8 -8 -8 -8 -8 -8 -8 -8 -8 -8 -8 -8 -8 -8 -8 -8 -8 -8 -8 -8 -8 -8 -4 47 47 -4 -8 -8 -8 -8 -8 -8 -8 -8 -8 -8 -8 -8 -8 -8 -8 -8 -8 -8 -8 -8 -8 -8 -8 -8 -8 -8 -8 -7 5 76 76 2 -3 47 
47 -4 -8 -8 -8 -8 -8 -8 -8 -8 -8 -8 -8 2 76 76 2 -8 -8 -8 -8 -8 -8 -8 -8 -8 -8 -8 -8 -8 -8 -8 -8 -8 -8 -8 -8 -8 -8 -8 -8 -8 -8 -8 -8 -8 -8 -8 -8 -8 -8 -8 -8 -8 -8 -8 -8 -8 -8 -8 -8 -8 -8 -8 -8 -8 -8 -8 -8 -8 -8 -8 -4 47 47 -4 -8 -8 -8 -8 -8 -8 -8 -8 -8 -8 -8 -8 -8 -8 -8 -8 -8 -8 -8 -8 -8 -8 -8 -8 -8 -8 -8 -8 -7 5 80 45 0 47 
47 -4 -8 -8 -8 -8 -8 -8 -8 -8 -8 -8 -4 44 80 5 -7 -8 -8 -8 -8 -8 -8 -8 -8 -8 -8 -8 -8 -8 -8 -8 -8 -8 -8 -8 -8 -8 -8 -8 -8 -8 -8 -8 -8 -8 -8 -8 -8 -8 -8 -8 -8 -8 -8 -8 -8 -8 -8 -8 -8 -8 -8 -8 -8 -8 -8 -8 -8 -8 -8 -8 -4 47 47 -4 -8 -8 -8 -8 -8 -8 -8 -8 -8 -8 -8 -8 -8 -8 -8 -8 -8 -8 -8 -8 -8 -8 -8 -8 -8 -8 -8 -8 -8 -4 44 80 10 48 
47 -4 -8 -8 -8 -8 -8 -8 -8 -8 -8 -7 5 80 44 -4 -8 -8 -8 -8 -8 -8 -8 -8 -8 -8 -8 -8 -8 -8 -8 -8 -8 -8 -8 -8 -8 -8 -8 -8 -8 -8 -8 -8 -8 -8 -8 -8 -8 -8 -8 -8 -8 -8 -8 -8 -8 -8 -8 -8 -8 -8 -8 -8 -8 -8 -8 -8 -8 -8 -8 -8 -4 47 50 -3 -8 -8 -8 -8 -8 -8 -8 -8 -8 -8 -8 -8 -8 -8 -8 -8 -8 -8 -8 -8 -8 -8 -8 -8 -8 -8 -8 -8 -8 -8 2 76 79 57 
48 -4 -8 -8 -8 -8 -8 -8 -8 -8 -7 5 76 76 2 -8 -8 -8 -8 -8 -8 -8 -8 -8 -8 -8 -8 -8 -8 -8 -8 -8 -8 -8 -8 -8 -8 -8 -8 -8 -8 -8 -8 -8 -8 -8 -8 -8 -8 -8 -8 -8 -8 -8 -8 -8 -8 -8 -8 -8 -8 -8 -8 -8 -8 -8 -8 -8 -8 -8 -8 -8 -4 45 81 5 -7 -8 -8 -8 -8 -8 -8 -8 -8 -8 -8 -8 -8 -8 -8 -8 -8 -8 -8 -8 -8 -8 -8 -8 -8 -8 -8 -8 -8 -8 -7 5 81 94 
48 -4 -8 -8 -8 -8 -8 -8 -8 -7 5 77 80 9 -3 -4 -4 -8 -8 -8 -8 -8 -8 -8 -8 -8 -8 -8 -8 -8 -8 -8 -8 -8 -8 -8 -8 -8 -8 -8 -8 -8 -8 -8 -8 -8 -8 -8 -8 -8 -8 -8 -8 -8 -8 -8 -8 -8 -8 -8 -8 -8 -8 -8 -8 -8 -8 -8 -8 -8 -8 -4 3 52 120 82 5 -4 -8 -8 -8 -8 -8 -8 -8 -8 -8 -8 -8 -8 -8 -8 -8 -8 -8 -8 -8 -8 -8 -8 -8 -8 -8 -8 -8 -8 -8 -4 45 123 
48 -4 -8 -8 -8 -8 -8 -8 -7 5 82 120 60 48 47 47 42 2 -4 -4 -4 -4 -4 -4 -4 -4 -4 -4 -4 -8 -8 -8 -8 -8 -8 -8 -8 -8 -8 -8 -8 -8 -8 -8 -8 -8 -8 -8 -8 -8 -8 -8 -8 -8 -8 -8 -8 -8 -8 -8 -8 -8 -8 -8 -8 -8 -8 -8 -8 -7 2 44 80 80 54 82 80 44 2 -4 -8 -8 -8 -8 -8 -8 -8 -8 -8 -8 -8 -8 -8 -8 -8 -8 -8 -8 -8 -8 -8 -8 -8 -8 -8 -8 -8 -8 2 86 
47 -4 -8 -8 -8 -8 -8 -7 5 76 82 51 48 47 47 50 80 80 50 47 47 47 47 47 47 47 47 47 42 2 -4 -4 -4 -4 -4 -4 -4 -4 -4 -4 -8 -8 -8 -8 -8 -8 -8 -8 -8 -8 -8 -8 -8 -8 -8 -8 -8 -8 -8 -8 -8 -8 -8 -8 -8 -8 -8 -8 -4 5 76 80 44 2 -3 2 44 80 80 44 2 -7 -8 -8 -8 -8 -8 -8 -8 -8 -8 -8 -8 -8 -8 -8 -8 -8 -8 -8 -8 -8 -8 -8 -8 -8 -8 -8 -4 50 
47 -4 -8 -8 -8 -8 -7 5 76 76 5 -3 -4 -4 -4 -4 2 42 47 47 47 47 47 47 47 47 47 50 80 80 50 47 47 47 47 47 47 47 47 42 2 -4 -4 -4 -4 -4 -4 -4 -4 -4 -4 -4 -8 -8 -8 -8 -8 -8 -8 -8 -8 -8 -8 -8 -8 -8 -4 2 44 80 76 5 -4 -8 -8 -8 -4 2 44 80 76 5 -4 -8 -8 -8 -8 -8 -8 -8 -8 -8 -8 -8 -8 -8 -8 -8 -8 -8 -8 -8 -8 -8 -8 -8 -8 -8 -4 47 
47 -4 -8 -8 -8 -7 5 76 76 5 -7 -8 -8 -8 -8 -8 -8 -4 -4 -4 -4 -4 -4 -4 -4 -4 -4 -4 2 42 47 47 47 47 47 47 47 47 50 80 80 50 47 47 47 47 47 47 47 47 47 42 2 -4 -4 -4 -4 -4 -4 -4 -4 -4 -4 -8 -7 2 44 80 80 44 2 -7 -8 -8 -8 -8 -8 -8 -4 5 76 80 44 2 -4 -8 -8 -8 -8 -8 -8 -8 -8 -8 -8 -8 -8 -8 -8 -8 -8 -8 -8 -8 -8 -8 -8 -8 -4 47 
47 -4 -8 -8 -4 5 76 76 5 -7 -8 -8 -8 -8 -8 -8 -8 -8 -8 -8 -8 -8 -8 -8 -8 -8 -8 -8 -8 -4 -4 -4 -4 -4 -4 -4 -4 -4 -4 2 42 47 47 47 47 47 47 47 47 47 50 80 80 50 47 47 47 47 47 47 47 47 42 3 6 76 80 44 2 -4 -8 -8 -8 -8 -8 -8 -8 -8 -8 -7 2 44 80 80 44 2 -7 -8 -8 -8 -8 -8 -8 -8 -8 -8 -8 -8 -8 -8 -8 -8 -8 -8 -8 -8 -8 -8 -4 47 
47 -4 -7 2 44 80 76 5 -7 -8 -8 -8 -8 -8 -8 -8 -8 -8 -8 -8 -8 -8 -8 -8 -8 -8 -8 -8 -8 -8 -8 -8 -8 -8 -8 -8 -8 -8 -8 -8 -4 -4 -4 -4 -4 -4 -4 -4 -4 -4 -4 2 42 47 47 47 47 47 47 47 47 50 81 84 85 76 5 -4 -8 -8 -8 -8 -8 -8 -8 -8 -8 -8 -8 -8 -8 -4 2 44 80 76 5 -4 -8 -8 -8 -8 -8 -8 -8 -8 -8 -8 -8 -8 -8 -8 -8 -8 -8 -8 -8 -8 -4 47 
47 -3 5 76 80 44 2 -7 -8 -8 -8 -8 -8 -8 -8 -8 -8 -8 -8 -8 -8 -8 -8 -8 -8 -8 -8 -8 -8 -8 -8 -8 -8 -8 -8 -8 -8 -8 -8 -8 -8 -8 -8 -8 -8 -8 -8 -8 -8 -8 -8 -8 -4 -4 -4 -4 -4 -4 -4 -4 -4 -3 6 87 87 5 -7 -8 -8 -8 -8 -8 -8 -8 -8 -8 -8 -8 -8 -8 -8 -8 -8 -4 5 76 80 44 2 -4 -8 -8 -8 -8 -8 -8 -8 -8 -8 -8 -8 -8 -8 -8 -8 -8 -8 -8 -4 47 
48 9 76 76 5 -4 -8 -8 -8 -8 -8 -8 -8 -8 -8 -8 -8 -8 -8 -8 -8 -8 -8 -8 -8 -8 -8 -8 -8 -8 -8 -8 -8 -8 -8 -8 -8 -8 -8 -8 -8 -8 -8 -8 -8 -8 -8 -8 -8 -8 -8 -8 -8 -8 -8 -8 -8 -8 -8 -8 -8 -8 -3 50 50 -3 -8 -8 -8 -8 -8 -8 -8 -8 -8 -8 -8 -8 -8 -8 -8 -8 -8 -8 -7 2 44 80 80 44 2 -7 -8 -8 -8 -8 -8 -8 -8 -8 -8 -8 -8 -8 -8 -8 -8 -8 -4 47 
60 80 76 5 -7 -8 -8 -8 -8 -8 -8 -8 -8 -8 -8 -8 -8 -8 -8 -8 -8 -8 -8 -8 -8 -8 -8 -8 -8 -8 -8 -8 -8 -8 -8 -8 -8 -8 -8 -8 -8 -8 -8 -8 -8 -8 -8 -8 -8 -8 -8 -8 -8 -8 -8 -8 -8 -8 -8 -8 -8 -8 -4 47 47 -4 -8 -8 -8 -8 -8 -8 -8 -8 -8 -8 -8 -8 -8 -8 -8 -8 -8 -8 -8 -8 -4 2 44 80 76 5 -4 -8 -8 -8 -8 -8 -8 -8 -8 -8 -8 -8 -8 -8 -8 -8 -4 47 
120 77 5 -7 -8 -8 -8 -8 -8 -8 -8 -8 -8 -8 -8 -8 -8 -8 -8 -8 -8 -8 -8 -8 -8 -8 -8 -8 -8 -8 -8 -8 -8 -8 -8 -8 -8 -8 -8 -8 -8 -8 -8 -8 -8 -8 -8 -8 -8 -8 -8 -8 -8 -8 -8 -8 -8 -8 -8 -8 -8 -8 -4 47 47 -4 -8 -8 -8 -8 -8 -8 -8 -8 -8 -8 -8 -8 -8 -8 -8 -8 -8 -8 -8 -8 -8 -8 -4 5 76 80 44 2 -4 -8 -8 -8 -8 -8 -8 -8 -8 -8 -8 -8 -8 -8 -4 48 
87 5 -7 -8 -8 -8 -8 -8 -8 -8 -8 -8 -8 -8 -8 -8 -8 -8 -8 -8 -8 -8 -8 -8 -8 -8 -8 -8 -8 -8 -8 -8 -8 -8 -8 -8 -8 -8 -8 -8 -8 -8 -8 -8 -8 -8 -8 -8 -8 -8 -8 -8 -8 -8 -8 -8 -8 -8 -8 -8 -8 -8 -4 47 47 -4 -8 -8 -8 -8 -8 -8 -8 -8 -8 -8 -8 -8 -8 -8 -8 -8 -8 -8 -8 -8 -8 -8 -8 -7 2 44 80 80 44 2 -4 -8 -8 -8 -8 -8 -8 -8 -8 -8 -8 -8 -4 48 
50 -3 -8 -8 -8 -8 -8 -8 -8 -8 -8 -8 -8 -8 -8 -8 -8 -8 -8 -8 -8 -8 -8 -8 -8 -8 -8 -8 -8 -8 -8 -8 -8 -8 -8 -8 -8 -8 -8 -8 -8 -8 -8 -8 -8 -8 -8 -8 -8 -8 -8 -8 -8 -8 -8 -8 -8 -8 -8 -8 -8 -8 -4 47 47 -4 -8 -8 -8 -8 -8 -8 -8 -8 -8 -8 -8 -8 -8 -8 -8 -8 -8 -8 -8 -8 -8 -8 -8 -8 -8 -4 2 44 80 80 44 2 -7 -8 -8 -8 -8 -8 -8 -8 -8 -8 -4 47 
47 -4 -8 -8 -8 -8 -8 -8 -8 -8 -8 -8 -8 -8 -8 -8 -8 -8 -8 -8 -8 -8 -8 -8 -8 -8 -8 -8 -8 -8 -8 -8 -8 -8 -8 -8 -8 -8 -8 -8 -8 -8 -8 -8 -8 -8 -8 -8 -8 -8 -8 -8 -8 -8 -8 -8 -8 -8 -8 -8 -8 -8 -4 47 47 -4 -8 -8 -8 -8 -8 -8 -8 -8 -8 -8 -8 -8 -8 -8 -8 -8 -8 -8 -8 -8 -8 -8 -8 -8 -8 -8 -8 -4 2 44 80 76 5 -4 -8 -8 -8 -8 -8 -8 -8 -8 -4 47 
47 -4 -8 -8 -8 -8 -8 -8 -8 -8 -8 -8 -8 -8 -8 -8 -8 -8 -8 -8 -8 -8 -8 -8 -8 -8 -8 -8 -8 -8 -8 -8 -8 -8 -8 -8 -8 -8 -8 -8 -8 -8 -8 -8 -8 -8 -8 -8 -8 -8 -8 -8 -8 -8 -8 -8 -8 -8 -8 -8 -8 -8 -4 47 47 -4 -8 -8 -8 -8 -8 -8 -8 -8 -8 -8 -8 -8 -8 -8 -8 -8 -8 -8 -8 -8 -8 -8 -8 -8 -8 -8 -8 -8 -8 -4 5 76 80 45 2 -4 -4 -4 -8 -8 -8 -8 -4 47 
47 -4 -8 -8 -8 -8 -8 -8 -8 -8 -8 -8 -8 -8 -8 -8 -8 -8 -8 -8 -8 -8 -8 -8 -8 -8 -8 -8 -8 -8 -8 -8 -8 -8 -8 -8 -8 -8 -8 -8 -8 -8 -8 -8 -8 -8 -8 -8 -8 -8 -8 -8 -8 -8 -8 -8 -8 -8 -8 -8 -8 -8 -4 47 47 -4 -8 -8 -8 -8 -8 -8 -8 -8 -8 -8 -8 -8 -8 -8 -8 -8 -8 -8 -8 -8 -8 -8 -8 -8 -8 -8 -8 -8 -8 -8 -7 6 55 119 86 50 47 42 2 -4 -4 -4 -3 47 
47 -4 -8 -8 -8 -8 -8 -8 -8 -8 -8 -8 -8 -8 -8 -8 -8 -8 -8 -8 -8 -8 -8 -8 -8 -8 -8 -8 -8 -8 -8 -8 -8 -8 -8 -8 -8 -8 -8 -8 -8 -8 -8 -8 -8 -8 -8 -8 -8 -8 -8 -8 -8 -8 -8 -8 -8 -8 -8 -8 -8 -8 -4 47 47 -4 -8 -8 -8 -8 -8 -8 -8 -8 -8 -8 -8 -8 -8 -8 -8 -8 -8 -8 -8 -8 -8 -8 -8 -8 -8 -8 -8 -8 -4 -4 2 45 83 82 51 48 50 80 80 50 47 42 6 51 
48 -4 -8 -8 -8 -8 -8 -8 -8 -8 -8 -8 -8 -8 -8 -8 -8 -8 -8 -8 -8 -8 -8 -8 -8 -8 -8 -8 -8 -8 -8 -8 -8 -8 -8 -8 -8 -8 -8 -8 -8 -8 -8 -8 -8 -8 -8 -8 -8 -8 -8 -8 -8 -8 -8 -8 -8 -8 -8 -8 -8 -8 -4 47 47 -4 -8 -8 -8 -8 -8 -8 -8 -8 -8 -8 -8 -8 -8 -8 -8 -8 -8 -8 -8 -8 -8 -8 -8 -8 -8 -8 -4 2 42 50 80 80 44 2 -4 -4 -4 2 42 47 50 80 83 94 
52 0 -4 -4 -4 -4 -4 -4 -4 -8 -8 -8 -8 -8 -8 -8 -8 -8 -8 -8 -8 -8 -8 -8 -8 -8 -8 -8 -8 -8 -8 -8 -8 -8 -8 -8 -8 -8 -8 -8 -8 -8 -8 -8 -8 -8 -8 -8 -8 -8 -8 -8 -8 -8 -8 -8 -8 -8 -8 -8 -8 -8 -4 47 47 -4 -8 -8 -8 -8 -8 -8 -8 -8 -8 -8 -8 -8 -8 -8 -8 -8 -8 -8 -8 -8 -8 -8 -8 -4 -4 2 44 80 80 50 42 2 -4 -8 -8 -8 -8 -8 -4 -4 -4 2 45 91 
92 51 47 47 47 47 47 47 42 2 -4 -4 -4 -4 -4 -4 -4 -8 -8 -8 -8 -8 -8 -8 -8 -8 -8 -8 -8 -8 -8 -8 -8 -8 -8 -8 -8 -8 -8 -8 -8 -8 -8 -8 -8 -8 -8 -8 -8 -8 -8 -8 -8 -8 -8 -8 -8 -8 -8 -8 -8 -8 -4 47 47 -4 -8 -8 -8 -8 -8 -8 -8 -8 -8 -8 -8 -8 -8 -8 -8 -8 -8 -8 -8 -8 -8 -4 2 42 50 80 80 44 2 -4 -4 -8 -8 -8 -8 -8 -8 -8 -8 -8 -8 -8 0 52 
92 51 47 47 47 47 47 50 80 80 50 47 47 47 47 47 42 2 -4 -4 -4 -4 -4 -4 -4 -4 -8 -8 -8 -8 -8 -8 -8 -8 -8 -8 -8 -8 -8 -8 -8 -8 -8 -8 -8 -8 -8 -8 -8 -8 -8 -8 -8 -8 -8 -8 -8 -8 -8 -8 -8 -8 -4 47 47 -4 -8 -8 -8 -8 -8 -8 -8 -8 -8 -8 -8 -8 -8 -8 -8 -8 -8 -8 -4 -4 2 44 80 80 50 42 2 -4 -8 -8 -8 -8 -8 -8 -8 -8 -8 -8 -8 -8 -8 -8 -4 48 
51 0 -4 -4 -4 -4 -4 -4 2 42 47 47 47 47 47 50 80 80 50 47 47 47 47 47 47 42 2 -4 -4 -4 -4 -4 -4 -4 -8 -8 -8 -8 -8 -8 -8 -8 -8 -8 -8 -8 -8 -8 -8 -8 -8 -8 -8 -8 -8 -8 -8 -8 -8 -8 -8 -8 -4 47 47 -4 -8 -8 -8 -8 -8 -8 -8 -8 -8 -8 -8 -8 -8 -8 -8 -8 -4 2 42 50 80 80 44 2 -4 -4 -8 -8 -8 -8 -8 -8 -8 -8 -8 -8 -8 -8 -8 -8 -8 -8 -4 47 
47 -4 -8 -8 -8 -8 -8 -8 -8 -4 -4 -4 -4 -4 -4 -4 2 42 47 47 47 47 47 47 50 80 80 50 47 47 47 47 47 42 2 -4 -4 -4 -4 -4 -4 -4 -4 -8 -8 -8 -8 -8 -8 -8 -8 -8 -8 -8 -8 -8 -8 -8 -8 -8 -8 -8 -4 47 47 -4 -8 -8 -8 -8 -8 -8 -8 -8 -8 -8 -8 -8 -8 -8 -4 2 44 80 80 50 42 2 -4 -8 -8 -8 -8 -8 -8 -8 -8 -8 -8 -8 -8 -8 -8 -8 -8 -8 -8 -8 -4 47 
47 -4 -8 -8 -8 -8 -8 -8 -8 -8 -8 -8 -8 -8 -8 -8 -8 -4 -4 -4 -4 -4 -4 -4 -4 2 42 47 47 47 47 47 50 80 80 50 47 47 47 47 47 47 42 2 -4 -4 -4 -4 -4 -4 -4 -8 -8 -8 -8 -8 -8 -8 -8 -8 -8 -8 -4 47 47 -4 -8 -8 -8 -8 -8 -8 -8 -8 -8 -8 -8 -4 -4 2 44 80 80 44 2 -4 -4 -8 -8 -8 -8 -8 -8 -8 -8 -8 -8 -8 -8 -8 -8 -8 -8 -8 -8 -8 -8 -8 -4 47 
47 -4 -8 -8 -8 -8 -8 -8 -8 -8 -8 -8 -8 -8 -8 -8 -8 -8 -8 -8 -8 -8 -8 -8 -8 -8 -4 -4 -4 -4 -4 -4 -4 2 42 47 47 47 47 47 47 50 80 80 50 47 47 47 47 47 42 2 -4 -4 -4 -4 -4 -4 -4 -4 -8 -8 -4 47 47 -4 -8 -8 -8 -8 -8 -8 -8 -8 -8 -4 2 42 50 80 80 44 2 -4 -8 -8 -8 -8 -8 -8 -8 -8 -8 -8 -8 -8 -8 -8 -8 -8 -8 -8 -8 -8 -8 -8 -8 -8 -4 47 
47 -4 -8 -8 -8 -8 -8 -8 -8 -8 -8 -8 -8 -8 -8 -8 -8 -8 -8 -8 -8 -8 -8 -8 -8 -8 -8 -8 -8 -8 -8 -8 -8 -8 -4 -4 -4 -4 -4 -4 -4 -4 2 42 47 47 47 47 47 50 80 80 50 47 47 47 47 47 47 42 2 -3 0 51 50 -3 -8 -8 -8 -8 -8 -8 -4 -4 2 44 80 80 50 42 2 -4 -8 -8 -8 -8 -8 -8 -8 -8 -8 -8 -8 -8 -8 -8 -8 -8 -8 -8 -8 -8 -8 -8 -8 -8 -8 -8 -4 47 
47 -4 -8 -8 -8 -8 -8 -8 -8 -8 -8 -8 -8 -8 -8 -8 -8 -8 -8 -8 -8 -8 -8 -8 -8 -8 -8 -8 -8 -8 -8 -8 -8 -8 -8 -8 -8 -8 -8 -8 -8 -8 -8 -4 -4 -4 -4 -4 -4 -4 2 42 47 47 47 47 47 47 50 80 80 50 51 92 87 5 -7 -8 -8 -8 -4 2 42 50 80 80 44 2 -4 -4 -8 -8 -8 -8 -8 -8 -8 -8 -8 -8 -8 -8 -8 -8 -8 -8 -8 -8 -8 -8 -8 -8 -8 -8 -8 -8 -8 -8 -4 47 
47 -4 -8 -8 -8 -8 -8 -8 -8 -8 -8 -8 -8 -8 -8 -8 -8 -8 -8 -8 -8 -8 -8 -8 -8 -8 -8 -8 -8 -8 -8 -8 -8 -8 -8 -8 -8 -8 -8 -8 -8 -8 -8 -8 -8 -8 -8 -8 -8 -8 -8 -4 -4 -4 -4 -4 -4 -4 -4 2 42 47 47 51 82 76 5 -3 -3 2 44 80 80 50 42 2 -4 -8 -8 -8 -8 -8 -8 -8 -8 -8 -8 -8 -8 -8 -8 -8 -8 -8 -8 -8 -8 -8 -8 -8 -8 -8 -8 -8 -8 -8 -8 -8 -4 47 
47 -4 -8 -8 -8 -8 -8 -8 -8 -8 -8 -8 -8 -8 -8 -8 -8 -8 -8 -8 -8 -8 -8 -8 -8 -8 -8 -8 -8 -8 -8 -8 -8 -8 -8 -8 -8 -8 -8 -8 -8 -8 -8 -8 -8 -8 -8 -8 -8 -8 -8 -8 -8 -8 -8 -8 -8 -8 -8 -8 -4 -4 -4 -3 5 76 82 51 50 80 80 44 2 -4 -4 -8 -8 -8 -8 -8 -8 -8 -8 -8 -8 -8 -8 -8 -8 -8 -8 -8 -8 -8 -8 -8 -8 -8 -8 -8 -8 -8 -8 -8 -8 -8 -8 -8 -4 47 
47 -4 -8 -8 -8 -8 -8 -8 -8 -8 -8 -8 -8 -8 -8 -8 -8 -8 -8 -8 -8 -8 -8 -8 -8 -8 -8 -8 -8 -8 -8 -8 -8 -8 -8 -8 -8 -8 -8 -8 -8 -8 -8 -8 -8 -8 -8 -8 -8 -8 -8 -8 -8 -8 -8 -8 -8 -8 -8 -8 -8 -8 -8 -8 -7 5 87 92 50 42 2 -4 -8 -8 -8 -8 -8 -8 -8 -8 -8 -8 -8 -8 -8 -8 -8 -8 -8 -8 -8 -8 -8 -8 -8 -8 -8 -8 -8 -8 -8 -8 -8 -8 -8 -8 -8 -8 -4 47 
47 -4 -8 -8 -8 -8 -8 -8 -8 -8 -8 -8 -8 -8 -8 -8 -8 -8 -8 -8 -8 -8 -8 -8 -8 -8 -8 -8 -8 -8 -8 -8 -8 -8 -8 -8 -8 -8 -8 -8 -8 -8 -8 -8 -8 -8 -8 -8 -8 -8 -8 -8 -8 -8 -8 -8 -8 -8 -8 -8 -8 -8 -8 -8 -8 -3 50 51 0 -4 -8 -8 -8 -8 -8 -8 -8 -8 -8 -8 -8 -8 -8 -8 -8 -8 -8 -8 -8 -8 -8 -8 -8 -8 -8 -8 -8 -8 -8 -8 -8 -8 -8 -8 -8 -8 -8 -8 -4 47 
47 -4 -8 -8 -8 -8 -8 -8 -8 -8 -8 -8 -8 -8 -8 -8 -8 -8 -8 -8 -8 -8 -8 -8 -8 -8 -8 -8 -8 -8 -8 -8 -8 -8 -8 -8 -8 -8 -8 -8 -8 -8 -8 -8 -8 -8 -8 -8 -8 -8 -8 -8 -8 -8 -8 -8 -8 -8 -8 -8 -8 -8 -8 -8 -8 -4 47 47 -4 -8 -8 -8 -8 -8 -8 -8 -8 -8 -8 -8 -8 -8 -8 -8 -8 -8 -8 -8 -8 -8 -8 -8 -8 -8 -8 -8 -8 -8 -8 -8 -8 -8 -8 -8 -8 -8 -8 -8 -4 47 
47 -4 -8 -8 -8 -8 -8 -8 -8 -8 -8 -8 -8 -8 -8 -8 -8 -8 -8 -8 -8 -8 -8 -8 -8 -8 -8 -8 -8 -8 -8 -8 -8 -8 -8 -8 -8 -8 -8 -8 -8 -8 -8 -8 -8 -8 -8 -8 -8 -8 -8 -8 -8 -8 -8 -8 -8 -8 -8 -8 -8 -8 -8 -8 -8 -4 47 47 -4 -8 -8 -8 -8 -8 -8 -8 -8 -8 -8 -8 -8 -8 -8 -8 -8 -8 -8 -8 -8 -8 -8 -8 -8 -8 -8 -8 -8 -8 -8 -8 -8 -8 -8 -8 -8 -8 -8 -8 -4 47 
51 0 -4 -4 -4 -4 -4 -4 -4 -4 -4 -4 -4 -4 -4 -4 -4 -4 -4 -4 -4 -4 -4 -4 -4 -4 -4 -4 -4 -4 -4 -4 -4 -4 -4 -4 -4 -4 -4 -4 -4 -4 -4 -4 -4 -4 -4 -4 -4 -4 -4 -4 -4 -4 -4 -4 -4 -4 -4 -4 -4 -4 -4 -4 -4 0 51 51 0 -4 -4 -4 -4 -4 -4 -4 -4 -4 -4 -4 -4 -4 -4 -4 -4 -4 -4 -4 -4 -4 -4 -4 -4 -4 -4 -4 -4 -4 -4 -4 -4 -4 -4 -4 -4 -4 -4 -4 0 51 
92 51 47 47 47 47 47 47 47 47 47 47 47 47 47 47 47 47 47 47 47 47 47 47 47 47 47 47 47 47 47 47 47 48 48 47 47 47 47 47 47 47 47 47 47 47 47 47 47 48 48 47 47 47 47 47 47 47 47 47 47 47 47 47 47 51 92 92 51 47 47 47 47 47 47 47 47 47 47 47 47 47 47 47 47 47 47 47 47 47 47 47 48 48 47 47 47 47 47 47 47 47 47 47 48 48 47 47 51 92 
