P2
110 110
255
155 122 103 97 95 95 95 95 95 95 95 95 95 95 95 95 95 95 95 95 95 95 95 95 95 95 95 95 96 97 103 117 139 146 128 108 99 96 95 95 95 95 95 95 95 95 97 102 117 143 142 117 101 96 95 95 95 95 95 95 95 95 95 95 96 99 103 103 99 96 95 95 95 95 95 95 95 95 95 95 95 95 95 95 95 95 95 95 96 100 112 134 147 130 108 99 96 95 95 95 96 99 110 132 147 131 110 106 123 155 
122 75 49 41 39 39 39 39 39 39 39 39 39 39 39 39 39 39 39 39 39 39 39 39 39 39 39 39 40 45 60 94 129 118 79 52 42 39 39 39 39 39 39 39 39 39 41 50 78 124 122 75 49 41 39 39 39 39 39 39 39 39 39 39 38 38 38 38 38 38 39 39 39 39 39 39 39 39 39 39 39 39 39 39 39 39 39 39 41 51 77 120 126 85 54 43 39 39 39 39 40 47 69 112 129 89 58 53 76 122 
103 49 19 10 8 8 8 8 8 8 8 8 8 8 8 8 8 8 8 8 8 8 8 8 8 8 8 9 12 22 51 97 113 74 34 15 9 8 8 8 8 8 8 8 8 8 11 23 59 113 105 49 19 10 8 8 8 8 8 8 8 8 8 8 8 7 7 7 7 8 8 8 8 8 8 8 8 8 8 8 8 8 8 8 8 8 8 9 13 29 69 113 93 45 19 10 8 8 8 8 10 19 48 101 106 55 24 22 49 103 
97 41 10 1 0 -1 -1 -1 -1 -1 -1 -1 -1 -1 -1 -1 -1 -1 -1 -1 -1 -1 -1 -1 -1 -1 0 1 8 30 72 109 88 40 12 2 0 0 -1 -1 -1 -1 -1 -1 0 0 5 23 68 124 102 40 10 1 0 -1 -1 -1 -1 -1 -1 -1 -1 -1 -1 -1 -1 -1 -1 -1 -1 -1 -1 -1 -1 -1 -1 -1 -1 -1 -1 -1 -1 -1 -1 -1 0 0 8 33 83 109 65 22 5 0 0 -1 -1 0 2 14 49 102 93 39 12 12 41 97 
95 39 8 0 -2 -3 -3 -3 -3 -3 -3 -3 -3 -3 -3 -3 -3 -3 -3 -3 -3 -3 -3 -3 -3 -2 -1 3 19 56 101 101 55 18 3 -1 -2 -3 -3 -3 -3 -3 -3 -3 -2 0 9 38 94 141 103 38 8 0 -2 -3 -3 -3 -3 -3 -3 -3 -3 -3 -3 -3 -3 -3 -3 -3 -3 -3 -3 -3 -3 -3 -3 -3 -3 -3 -3 -3 -3 -3 -3 -3 -2 0 11 45 97 97 44 11 0 -2 -3 -3 -2 -2 2 19 62 108 80 29 7 10 39 95 
95 39 8 -1 -3 -3 -3 -3 -3 -3 -3 -3 -3 -3 -3 -3 -3 -3 -3 -3 -3 -3 -3 -3 -3 -2 0 11 40 87 107 70 27 6 -1 -2 -3 -3 -3 -3 -3 -3 -3 -3 -2 2 20 62 120 147 103 39 8 -1 -3 -3 -3 -3 -3 -3 -3 -3 -3 -3 -3 -3 -3 -3 -3 -3 -3 -3 -3 -3 -3 -3 -3 -3 -3 -3 -3 -3 -3 -3 -3 -3 -2 3 21 64 107 81 30 5 -1 -3 -3 -3 -3 -1 5 28 79 107 61 19 4 9 39 95 
95 39 8 -1 -3 -3 -3 -3 -3 -3 -3 -3 -3 -3 -3 -3 -3 -3 -3 -3 -3 -3 -3 -3 -3 -1 6 27 70 107 87 40 11 0 -2 -3 -3 -3 -3 -3 -3 -3 -3 -2 0 9 37 90 130 138 103 41 9 0 -3 -3 -3 -3 -3 -3 -3 -3 -3 -3 -3 -3 -3 -3 -3 -3 -3 -3 -3 -3 -3 -3 -3 -3 -3 -3 -3 -3 -3 -3 -3 -3 0 8 37 88 105 58 18 1 -2 -3 -3 -3 -3 -1 7 37 92 100 46 12 2 8 39 95 
95 39 8 -1 -3 -3 -3 -3 -3 -3 -3 -3 -3 -3 -3 -3 -3 -3 -3 -3 -3 -3 -3 -3 -2 2 18 55 101 101 55 18 2 -2 -3 -3 -3 -3 -3 -3 -3 -3 -3 -1 3 20 62 110 118 122 106 47 11 0 -2 -3 -3 -3 -3 -3 -3 -3 -3 -3 -3 -3 -3 -3 -3 -3 -3 -3 -3 -3 -3 -3 -3 -3 -3 -3 -3 -3 -3 -3 -3 -2 1 18 58 105 88 37 8 0 -3 -3 -3 -3 -2 0 11 46 100 92 37 8 1 8 39 95 
95 39 8 -1 -3 -3 -3 -3 -3 -3 -3 -3 -3 -3 -3 -3 -3 -3 -3 -3 -3 -3 -3 -2 0 11 40 87 107 70 27 6 -1 -3 -3 -3 -3 -3 -3 -3 -3 -3 -2 0 11 40 90 111 90 99 111 61 18 1 -2 -3 -3 -3 -3 -3 -3 -3 -3 -3 -3 -3 -3 -3 -3 -3 -3 -3 -3 -3 -3 -3 -3 -3 -3 -3 -3 -3 -3 -3 -3 -1 5 30 81 107 64 21 2 -2 -3 -3 -3 -3 -2 1 18 61 107 79 28 5 0 8 39 95 
95 39 8 -1 -3 -3 -3 -3 -3 -3 -3 -3 -3 -3 -3 -3 -3 -3 -3 -3 -3 -3 -3 -1 6 27 70 107 87 40 11 0 -2 -3 -3 -3 -3 -3 -3 -3 -3 -3 -1 6 27 70 108 91 58 73 109 79 28 4 -1 -3 -3 -3 -3 -3 -3 -3 -3 -3 -3 -3 -3 -3 -3 -3 -3 -3 -3 -3 -3 -3 -3 -3 -3 -3 -3 -3 -3 -3 -2 0 11 44 97 97 44 11 0 -2 -3 -3 -3 -3 -1 5 28 79 107 61 18 2 0 8 39 95 
95 39 8 -1 -3 -3 -3 -3 -3 -3 -3 -3 -3 -3 -3 -3 -3 -3 -3 -3 -3 -3 -2 2 18 55 101 101 55 18 2 -2 -3 -3 -3 -3 -3 -3 -3 -3 -3 -2 2 18 55 101 101 58 33 53 102 89 34 6 -1 -3 -3 -3 -3 -3 -3 -3 -3 -3 -3 -3 -3 -3 -3 -3 -3 -3 -3 -3 -3 -3 -3 -3 -3 -3 -3 -3 -3 -3 -2 2 21 64 107 81 30 5 -1 -3 -3 -3 -3 -3 -1 7 37 92 100 46 11 0 0 8 39 95 
96 39 8 0 -3 -3 -3 -3 -3 -3 -3 -3 -3 -3 -3 -3 -3 -3 -3 -3 -3 -2 0 11 40 87 107 70 27 6 -1 -3 -3 -3 -3 -3 -3 -3 -3 -3 -2 0 9 37 86 107 70 30 18 43 97 94 37 7 -1 -3 -3 -3 -3 -3 -3 -3 -3 -3 -3 -3 -3 -3 -3 -3 -3 -3 -3 -3 -3 -3 -3 -3 -3 -3 -3 -3 -3 -3 0 8 37 88 105 58 18 1 -2 -3 -3 -3 -3 -2 0 11 46 100 92 37 7 0 0 8 39 95 
99 42 9 0 -2 -3 -3 -3 -3 -3 -3 -3 -3 -3 -3 -3 -3 -3 -3 -3 -3 -1 6 27 70 107 87 40 11 0 -2 -3 -3 -3 -3 -3 -3 -3 -3 -3 -2 2 20 61 106 89 41 13 12 40 95 95 39 8 -1 -3 -3 -3 -3 -3 -3 -3 -3 -3 -3 -3 -3 -3 -3 -3 -3 -3 -3 -3 -3 -3 -3 -3 -3 -3 -3 -3 -3 -2 1 18 58 105 88 37 8 0 -3 -3 -3 -3 -3 -2 1 18 61 107 79 28 5 -1 0 8 38 96 
108 52 15 1 -2 -3 -3 -3 -3 -3 -3 -3 -3 -3 -3 -3 -3 -3 -3 -3 -2 2 18 55 101 101 55 18 2 -2 -3 -3 -3 -3 -3 -3 -3 -3 -3 -2 0 9 38 88 106 62 21 5 9 38 94 97 41 9 0 -3 -3 -3 -3 -3 -3 -3 -3 -3 -3 -3 -3 -3 -3 -3 -3 -3 -3 -3 -3 -3 -3 -3 -3 -3 -3 -3 -3 -1 5 30 81 107 64 21 2 -2 -3 -3 -3 -3 -3 -1 5 28 79 107 61 18 2 -2 0 8 38 98 
128 78 32 9 0 -2 -3 -3 -3 -3 -3 -3 -3 -3 -3 -3 -3 -3 -3 -2 0 11 40 87 107 70 27 6 -1 -3 -3 -3 -3 -3 -3 -3 -3 -3 -3 -1 3 20 62 106 88 38 9 1 7 34 89 101 48 12 0 -2 -3 -3 -3 -3 -3 -3 -3 -3 -3 -3 -3 -3 -3 -3 -3 -3 -3 -3 -3 -3 -3 -3 -3 -3 -3 -3 -2 0 11 44 97 97 44 11 0 -2 -3 -3 -3 -3 -3 -1 7 37 92 100 46 11 0 -2 -1 7 38 101 
146 117 67 28 7 0 -2 -3 -3 -3 -3 -3 -3 -3 -3 -3 -3 -3 -3 -1 6 27 70 107 87 40 11 0 -2 -3 -3 -3 -3 -3 -3 -3 -3 -3 -2 0 11 41 89 106 61 20 3 0 5 28 79 107 61 18 1 -2 -3 -3 -3 -3 -3 -3 -3 -3 -3 -3 -3 -3 -3 -3 -3 -3 -3 -3 -3 -3 -3 -3 -3 -3 -3 -3 -2 2 21 64 107 81 30 5 -1 -3 -3 -3 -3 -3 -2 0 11 46 100 92 37 7 -1 -2 -1 7 38 103 
140 130 106 63 25 5 -1 -3 -3 -3 -3 -3 -3 -3 -3 -3 -3 -3 -2 2 18 55 101 101 55 18 2 -2 -3 -3 -3 -3 -3 -3 -3 -3 -3 -3 -1 6 27 70 107 86 37 9 0 -1 2 18 61 107 79 28 4 -1 -3 -3 -3 -3 -3 -3 -3 -3 -3 -3 -3 -3 -3 -3 -3 -3 -3 -3 -3 -3 -3 -3 -3 -3 -3 -3 0 8 37 88 105 58 18 1 -2 -3 -3 -3 -3 -3 -2 1 18 61 107 79 28 5 -1 -2 -1 7 38 101 
120 104 112 100 55 18 2 -1 -3 -3 -3 -3 -3 -3 -3 -3 -3 -2 0 11 40 87 107 70 27 6 -1 -3 -3 -3 -3 -3 -3 -3 -3 -3 -3 -2 2 18 55 101 101 55 18 2 -2 -2 0 12 48 101 89 34 6 -1 -3 -3 -3 -3 -3 -3 -3 -3 -3 -3 -3 -3 -3 -3 -3 -3 -3 -3 -3 -3 -3 -3 -3 -3 -3 -2 1 18 58 105 88 37 8 0 -3 -3 -3 -3 -3 -3 -1 5 28 79 107 61 18 1 -2 -2 -1 8 38 98 
105 72 82 109 87 40 12 1 -2 -3 -3 -3 -3 -3 -3 -3 -3 -1 6 27 70 107 87 40 11 0 -2 -3 -3 -3 -3 -3 -3 -3 -3 -3 -2 0 9 37 86 107 70 27 6 -1 -3 -2 0 9 41 97 94 37 7 -1 -3 -3 -3 -3 -3 -3 -3 -3 -3 -3 -3 -3 -3 -3 -3 -3 -3 -3 -3 -3 -3 -3 -3 -3 -3 -1 5 30 81 107 64 21 2 -2 -3 -3 -3 -3 -3 -3 -1 7 37 92 100 46 11 0 -2 -3 -1 8 38 96 
99 54 51 89 108 72 31 9 0 -2 -3 -3 -3 -3 -3 -3 -2 2 18 55 101 101 55 18 2 -2 -3 -3 -3 -3 -3 -3 -3 -3 -3 -3 -2 2 20 61 106 89 41 11 0 -2 -3 -3 -1 8 39 95 95 39 8 -1 -3 -3 -3 -3 -3 -3 -3 -3 -3 -3 -3 -3 -3 -3 -3 -3 -3 -3 -3 -3 -3 -3 -3 -3 -2 0 11 44 97 97 44 11 0 -2 -3 -3 -3 -3 -3 -2 0 11 46 100 92 37 7 -1 -3 -3 -1 8 39 95 
96 45 30 57 100 104 66 29 8 0 -2 -3 -3 -3 -3 -2 0 11 40 87 107 70 27 6 -1 -3 -3 -3 -3 -3 -3 -3 -3 -3 -3 -2 0 9 38 88 106 62 20 3 -1 -3 -3 -3 -1 7 37 94 97 41 9 0 -3 -3 -3 -3 -3 -3 -3 -3 -3 -3 -3 -3 -3 -3 -3 -3 -3 -3 -3 -3 -3 -3 -3 -3 -2 2 21 64 107 81 30 5 -1 -3 -3 -3 -3 -3 -3 -2 1 18 61 107 79 28 5 -1 -3 -3 -1 8 39 95 
95 41 17 27 64 102 103 65 29 8 0 -2 -3 -3 -3 -1 6 27 70 107 87 40 11 0 -2 -3 -3 -3 -3 -3 -3 -3 -3 -3 -3 -1 3 20 62 106 88 38 9 0 -2 -3 -3 -3 -1 6 34 89 101 48 12 0 -2 -3 -3 -3 -3 -3 -3 -3 -3 -3 -3 -3 -3 -3 -3 -3 -3 -3 -3 -3 -3 -3 -3 -3 0 8 37 88 105 58 18 1 -2 -3 -3 -3 -3 -3 -3 -1 5 28 79 107 61 18 1 -2 -3 -3 -1 8 39 95 
95 39 11 10 28 65 102 102 65 29 8 0 -2 -3 -1 2 18 55 101 101 55 18 2 -2 -3 -3 -3 -3 -3 -3 -3 -3 -3 -3 -2 0 11 41 89 106 61 20 2 -2 -3 -3 -3 -3 -1 4 28 79 107 61 18 1 -2 -3 -3 -3 -3 -3 -3 -3 -3 -3 -3 -3 -3 -3 -3 -3 -3 -3 -3 -3 -3 -3 -3 -2 1 18 58 105 88 37 8 0 -3 -3 -3 -3 -3 -3 -3 -1 7 37 92 100 46 11 0 -2 -3 -3 -1 8 39 95 
95 39 9 2 8 29 65 102 102 65 29 8 0 -1 0 11 40 87 107 70 27 6 -1 -3 -3 -3 -3 -3 -3 -3 -3 -3 -3 -3 -1 6 27 70 107 86 37 9 0 -2 -3 -3 -3 -3 -2 1 18 61 107 79 28 4 -1 -3 -3 -3 -3 -3 -3 -3 -3 -3 -3 -3 -3 -3 -3 -3 -3 -3 -3 -3 -3 -3 -3 -1 5 30 81 107 64 21 2 -2 -3 -3 -3 -3 -3 -3 -2 0 11 46 100 92 37 7 -1 -3 -3 -3 -1 8 39 95 
95 39 8 0 0 8 29 65 102 102 65 29 9 2 7 27 70 107 87 40 11 0 -2 -3 -3 -3 -3 -3 -3 -3 -3 -3 -3 -2 2 18 55 101 101 55 18 2 -2 -3 -3 -3 -3 -3 -2 0 12 47 101 89 34 6 -1 -3 -3 -3 -3 -3 -3 -3 -3 -3 -3 -3 -3 -3 -3 -3 -3 -3 -3 -3 -3 -3 -2 0 11 44 97 97 44 11 0 -2 -3 -3 -3 -3 -3 -3 -2 1 18 61 107 79 28 5 -1 -3 -3 -3 -1 8 39 95 
95 39 8 0 -2 0 8 29 65 102 103 66 30 15 22 56 101 101 55 18 2 -2 -3 -3 -3 -3 -3 -3 -3 -3 -3 -3 -2 0 9 37 86 107 70 27 6 -1 -3 -3 -3 -3 -3 -3 -3 0 9 41 97 94 38 7 -1 -3 -3 -3 -3 -3 -3 -3 -3 -3 -3 -3 -3 -3 -3 -3 -3 -3 -3 -3 -3 -3 -2 2 21 64 107 81 30 5 -1 -3 -3 -3 -3 -3 -3 -3 -1 5 28 79 107 61 18 1 -2 -3 -3 -3 -1 8 39 95 
95 39 8 -1 -2 -2 0 8 29 65 103 103 69 43 51 90 108 70 27 6 -1 -3 -3 -3 -3 -3 -3 -3 -3 -3 -3 -3 -2 2 20 61 106 89 41 11 0 -2 -3 -3 -3 -3 -3 -3 -3 -1 7 38 94 97 41 9 0 -3 -3 -3 -3 -3 -3 -3 -3 -3 -3 -3 -3 -3 -3 -3 -3 -3 -3 -3 -3 -3 0 8 37 88 105 58 18 1 -2 -3 -3 -3 -3 -3 -3 -3 -1 7 37 92 100 46 11 0 -2 -3 -3 -3 -1 8 39 95 
95 39 8 -1 -3 -3 -2 0 8 29 65 103 109 92 95 113 88 40 11 0 -2 -3 -3 -3 -3 -3 -3 -3 -3 -3 -3 -2 0 9 38 88 106 62 20 3 -1 -3 -3 -3 -3 -3 -3 -3 -3 -1 6 34 89 101 47 12 0 -2 -3 -3 -3 -3 -3 -3 -3 -3 -3 -3 -3 -3 -3 -3 -3 -3 -3 -3 -3 -2 1 18 58 105 88 37 8 0 -3 -3 -3 -3 -3 -3 -3 -2 0 11 46 100 92 37 7 -1 -3 -3 -3 -3 -1 8 39 95 
95 39 8 -1 -3 -3 -3 -2 0 8 29 67 111 136 136 107 56 18 2 -2 -3 -3 -3 -3 -3 -3 -3 -3 -3 -3 -3 -1 3 20 62 106 88 38 9 0 -2 -3 -3 -3 -3 -3 -3 -3 -3 -1 4 28 79 107 61 18 1 -2 -3 -3 -3 -3 -3 -3 -3 -3 -3 -3 -3 -3 -3 -3 -3 -3 -3 -3 -3 -1 5 30 81 107 64 21 2 -2 -3 -3 -3 -3 -3 -3 -3 -2 1 18 61 107 79 28 5 -1 -3 -3 -3 -3 -1 8 39 95 
95 39 8 -1 -3 -3 -3 -3 -2 0 9 32 78 133 133 77 29 6 -1 -3 -3 -3 -3 -3 -3 -3 -3 -3 -3 -3 -2 0 11 41 89 106 61 20 2 -2 -3 -3 -3 -3 -3 -3 -3 -3 -3 -2 1 18 61 107 79 28 4 -1 -3 -3 -3 -3 -3 -3 -3 -3 -3 -3 -3 -3 -3 -3 -3 -3 -3 -3 -2 0 11 44 97 97 44 11 0 -2 -3 -3 -3 -3 -3 -3 -3 -1 5 28 79 107 61 18 1 -2 -3 -3 -3 -3 -1 8 39 95 
95 39 8 -1 -3 -3 -3 -3 -3 -2 1 15 51 109 113 54 15 1 -2 -3 -3 -3 -3 -3 -3 -3 -3 -3 -3 -3 -1 6 27 70 107 86 37 9 0 -2 -3 -3 -3 -3 -3 -3 -3 -3 -3 -2 0 12 48 101 89 34 6 -1 -3 -3 -3 -3 -3 -3 -3 -3 -3 -3 -3 -3 -3 -3 -3 -3 -3 -3 -2 2 21 64 107 81 30 5 -1 -3 -3 -3 -3 -3 -3 -3 -3 -1 7 37 92 100 46 11 0 -2 -3 -3 -3 -3 -1 8 39 95 
95 39 8 -1 -3 -3 -3 -3 -3 -3 0 8 38 94 106 51 13 0 -2 -3 -3 -3 -3 -3 -3 -3 -3 -3 -3 -2 2 18 55 101 101 55 18 2 -2 -3 -3 -3 -3 -3 -3 -3 -3 -3 -3 -3 0 9 41 97 94 37 7 -1 -3 -3 -3 -3 -3 -3 -3 -3 -3 -3 -3 -3 -3 -3 -3 -3 -3 -3 0 8 37 88 105 58 18 1 -2 -3 -3 -3 -3 -3 -3 -3 -2 0 11 46 100 92 37 7 -1 -3 -3 -3 -3 -3 -1 8 39 95 
95 39 8 -1 -3 -3 -3 -3 -3 -3 -1 5 28 80 108 62 19 2 -2 -3 -3 -3 -3 -3 -3 -3 -3 -3 -2 0 9 37 86 107 70 27 6 -1 -3 -3 -3 -3 -3 -3 -3 -3 -3 -3 -3 -3 -1 8 39 95 95 39 8 -1 -3 -3 -3 -3 -3 -3 -3 -3 -3 -3 -3 -3 -3 -3 -3 -3 -3 -2 1 18 58 105 88 37 8 0 -3 -3 -3 -3 -3 -3 -3 -3 -2 1 18 61 107 79 28 5 -1 -3 -3 -3 -3 -3 -1 8 39 95 
95 39 8 -1 -3 -3 -3 -3 -3 -3 -2 2 18 62 108 79 28 4 -1 -3 -3 -3 -3 -3 -3 -3 -3 -3 -2 2 20 61 106 89 41 11 0 -2 -3 -3 -3 -3 -3 -3 -3 -3 -3 -3 -3 -3 -1 7 37 94 97 41 9 0 -3 -3 -3 -3 -3 -3 -3 -3 -3 -3 -3 -3 -3 -3 -3 -3 -3 -1 5 30 81 107 64 21 2 -2 -3 -3 -3 -3 -3 -3 -3 -3 -1 5 28 79 107 61 18 1 -2 -3 -3 -3 -3 -3 -1 8 39 95 
95 39 8 -1 -3 -3 -3 -3 -3 -3 -2 0 12 47 101 90 35 7 -1 -3 -3 -3 -3 -3 -3 -3 -3 -2 0 9 38 88 106 62 20 3 -1 -3 -3 -3 -3 -3 -3 -3 -3 -3 -3 -3 -3 -3 -1 6 34 89 101 48 12 0 -2 -3 -3 -3 -3 -3 -3 -3 -3 -3 -3 -3 -3 -3 -3 -3 -2 0 11 44 97 97 44 11 0 -2 -3 -3 -3 -3 -3 -3 -3 -3 -1 7 37 92 100 46 11 0 -2 -3 -3 -3 -3 -3 -1 8 39 96 
96 38 8 -1 -3 -3 -3 -3 -3 -3 -3 0 8 40 96 96 40 8 0 -3 -3 -3 -3 -3 -3 -3 -3 -1 3 20 62 106 88 38 9 0 -2 -3 -3 -3 -3 -3 -3 -3 -3 -3 -3 -3 -3 -3 -1 4 28 79 107 61 18 1 -2 -3 -3 -3 -3 -3 -3 -3 -3 -3 -3 -3 -3 -3 -3 -3 -2 2 21 64 107 81 30 5 -1 -3 -3 -3 -3 -3 -3 -3 -3 -2 0 11 46 100 92 37 7 -1 -3 -3 -3 -3 -3 -3 0 9 41 98 
97 38 7 -1 -3 -3 -3 -3 -3 -3 -3 -1 7 35 90 101 47 12 0 -2 -3 -3 -3 -3 -3 -3 -2 0 11 41 89 106 61 20 2 -2 -3 -3 -3 -3 -3 -3 -3 -3 -3 -3 -3 -3 -3 -3 -2 1 18 61 107 79 28 4 -1 -3 -3 -3 -3 -3 -3 -3 -3 -3 -3 -3 -3 -3 -3 -3 0 8 37 88 105 58 18 1 -2 -3 -3 -3 -3 -3 -3 -3 -3 -2 1 18 61 107 79 28 5 -1 -3 -3 -3 -3 -3 -2 0 12 48 106 
100 38 7 -1 -3 -3 -3 -3 -3 -3 -3 -1 4 28 79 107 61 18 1 -2 -3 -3 -3 -3 -3 -3 -1 6 27 70 107 86 37 9 0 -2 -3 -3 -3 -3 -3 -3 -3 -3 -3 -3 -3 -3 -3 -3 -2 0 12 48 101 89 34 6 -1 -3 -3 -3 -3 -3 -3 -3 -3 -3 -3 -3 -3 -3 -3 -2 1 18 58 105 88 37 8 0 -3 -3 -3 -3 -3 -3 -3 -3 -3 -1 5 28 79 107 61 18 1 -2 -3 -3 -3 -3 -3 -1 3 21 66 122 
103 38 7 -1 -3 -3 -3 -3 -3 -3 -3 -2 1 18 61 107 79 28 4 -1 -3 -3 -3 -3 -3 -2 2 18 55 101 101 55 18 2 -2 -3 -3 -3 -3 -3 -3 -3 -3 -3 -3 -3 -3 -3 -3 -3 -3 0 9 41 97 94 37 7 -1 -3 -3 -3 -3 -3 -3 -3 -3 -3 -3 -3 -3 -3 -3 -1 5 30 81 107 64 21 2 -2 -3 -3 -3 -3 -3 -3 -3 -3 -3 -1 7 37 92 100 46 11 0 -2 -3 -3 -3 -3 -2 0 11 40 96 141 
102 38 7 -1 -3 -3 -3 -3 -3 -3 -3 -2 0 12 47 101 90 35 7 -1 -3 -3 -3 -3 -2 0 9 37 86 107 70 27 6 -1 -3 -3 -3 -3 -3 -3 -3 -3 -3 -3 -3 -3 -3 -3 -3 -3 -3 -1 8 39 95 95 39 8 -1 -3 -3 -3 -3 -3 -3 -3 -3 -3 -3 -3 -3 -3 -2 0 11 44 97 97 44 11 0 -2 -3 -3 -3 -3 -3 -3 -3 -3 -2 0 11 46 100 92 37 7 -1 -3 -3 -3 -3 -3 -1 6 27 71 123 146 
100 38 7 -1 -3 -3 -3 -3 -3 -3 -3 -3 0 8 40 96 96 40 8 0 -3 -3 -3 -3 -2 2 20 61 106 89 41 11 0 -2 -3 -3 -3 -3 -3 -3 -3 -3 -3 -3 -3 -3 -3 -3 -3 -3 -3 -1 7 37 94 97 41 9 0 -3 -3 -3 -3 -3 -3 -3 -3 -3 -3 -3 -3 -3 -2 2 21 64 107 81 30 5 -1 -3 -3 -3 -3 -3 -3 -3 -3 -3 -2 1 18 61 107 79 28 5 -1 -3 -3 -3 -3 -2 2 18 55 104 129 136 
98 38 8 -1 -3 -3 -3 -3 -3 -3 -3 -3 -1 7 35 90 101 47 12 0 -2 -3 -3 -2 0 9 38 88 106 62 20 3 -1 -3 -3 -3 -3 -3 -3 -3 -3 -3 -3 -3 -3 -3 -3 -3 -3 -3 -3 -1 6 34 89 101 48 12 0 -2 -3 -3 -3 -3 -3 -3 -3 -3 -3 -3 -3 -3 0 8 37 88 105 58 18 1 -2 -3 -3 -3 -3 -3 -3 -3 -3 -3 -1 5 28 79 107 61 18 1 -2 -3 -3 -3 -2 0 11 40 88 115 107 119 
96 38 8 -1 -3 -3 -3 -3 -3 -3 -3 -3 -1 4 28 79 107 61 18 1 -2 -3 -3 -1 3 20 62 106 88 38 9 0 -2 -3 -3 -3 -3 -3 -3 -3 -3 -3 -3 -3 -3 -3 -3 -3 -3 -3 -3 -1 4 28 79 108 62 19 2 -2 -3 -3 -3 -3 -3 -3 -3 -3 -3 -3 -3 -2 1 18 58 105 88 37 8 0 -3 -3 -3 -3 -3 -3 -3 -3 -3 -3 -1 7 37 92 100 46 11 0 -2 -3 -3 -3 -1 6 27 70 108 97 80 107 
96 39 8 -1 -3 -3 -3 -3 -3 -3 -3 -3 -2 1 18 61 107 79 28 4 -1 -3 -2 0 11 41 89 106 61 20 2 -2 -3 -3 -3 -3 -3 -3 -3 -3 -3 -3 -3 -3 -3 -3 -3 -3 -3 -3 -3 -2 2 19 62 109 80 30 7 0 -1 -1 -2 -2 -3 -3 -3 -3 -3 -3 -3 -1 5 30 81 107 64 21 2 -2 -3 -3 -3 -3 -3 -3 -3 -3 -3 -2 0 11 46 100 92 37 7 -1 -3 -3 -3 -2 2 18 55 101 102 66 60 100 
95 39 8 -1 -3 -3 -3 -3 -3 -3 -3 -3 -2 0 12 47 101 90 35 7 -1 -2 -1 6 27 70 107 86 37 9 0 -2 -3 -3 -3 -3 -3 -3 -3 -3 -3 -3 -3 -3 -3 -3 -3 -3 -3 -3 -3 -2 1 14 52 106 97 45 18 9 7 4 1 0 0 -1 -1 -1 -1 -2 -2 0 11 44 97 97 44 11 0 -2 -3 -3 -3 -3 -3 -3 -3 -3 -3 -2 1 18 61 107 79 28 5 -1 -3 -3 -2 0 11 40 87 107 72 39 48 97 
95 39 8 -1 -3 -3 -3 -3 -3 -3 -3 -3 -3 0 8 40 96 96 40 8 0 -1 2 18 55 101 101 55 18 2 -2 -3 -3 -3 -3 -3 -3 -3 -3 -3 -3 -3 -3 -3 -3 -3 -3 -3 -3 -3 -2 0 4 20 57 115 119 74 48 39 35 28 18 12 9 8 7 6 4 2 1 5 22 65 108 81 30 5 -1 -3 -3 -3 -3 -3 -3 -3 -3 -3 -3 -1 5 28 79 107 61 18 1 -2 -3 -3 -1 6 27 70 107 88 42 22 42 96 
95 39 8 -1 -3 -3 -3 -3 -3 -3 -3 -3 -3 -1 7 35 90 101 47 12 0 0 9 37 86 107 70 27 6 -1 -3 -3 -3 -3 -3 -3 -3 -3 -3 -3 -3 -3 -3 -3 -3 -3 -3 -3 -3 -2 0 6 19 44 85 135 143 118 101 95 90 79 61 48 41 39 37 34 28 19 14 20 45 92 107 59 18 1 -2 -3 -3 -3 -3 -3 -3 -3 -3 -3 -3 -1 7 37 92 100 46 11 0 -2 -3 -2 2 18 55 101 101 56 21 14 40 95 
95 39 8 -1 -3 -3 -3 -3 -3 -3 -3 -3 -3 -1 4 28 79 107 61 18 3 3 20 61 106 89 41 11 0 -2 -3 -3 -3 -3 -3 -3 -3 -3 -3 -3 -3 -3 -3 -3 -3 -3 -3 -2 -1 2 11 27 56 89 115 124 114 102 97 97 101 107 107 101 97 95 94 89 79 62 52 57 86 117 92 38 9 0 -2 -3 -3 -3 -3 -3 -3 -3 -3 -3 -2 0 11 46 100 92 37 7 -1 -2 -2 0 11 40 87 107 70 28 8 10 39 95 
95 39 8 -1 -3 -3 -3 -3 -3 -3 -3 -3 -3 -2 1 18 61 107 79 28 7 11 38 88 106 62 20 3 -1 -3 -3 -3 -3 -3 -3 -3 -3 -3 -3 -3 -3 -3 -3 -3 -3 -3 -2 0 6 18 40 70 101 108 91 66 49 41 40 41 48 61 79 89 94 95 97 101 108 108 106 114 135 133 76 25 4 -1 -3 -3 -3 -3 -3 -3 -3 -3 -3 -3 -2 1 18 61 107 79 28 5 -1 -2 -1 6 27 70 107 87 40 11 2 8 39 95 
95 39 8 -1 -3 -3 -3 -3 -3 -3 -3 -3 -3 -2 0 12 47 101 90 36 13 23 62 106 88 38 9 0 -2 -3 -3 -3 -3 -3 -3 -3 -3 -3 -3 -3 -3 -3 -3 -3 -2 -1 2 11 27 55 87 107 101 70 41 22 12 9 8 9 12 18 28 34 37 39 41 48 62 80 94 110 135 132 76 26 5 -1 -3 -3 -3 -3 -3 -3 -3 -3 -3 -3 -1 5 28 79 107 61 18 2 -2 -1 2 18 55 101 101 55 18 3 0 8 39 95 
95 39 8 -1 -3 -3 -3 -3 -3 -3 -3 -3 -3 -3 0 8 40 96 96 44 23 43 90 106 61 20 2 -2 -3 -3 -3 -3 -3 -3 -3 -3 -3 -3 -3 -3 -3 -3 -3 -2 0 5 18 40 70 101 107 87 55 27 11 3 0 0 0 0 0 1 4 6 7 8 9 12 18 28 38 53 85 117 94 43 13 1 -1 -2 -3 -3 -3 -3 -3 -3 -3 -2 0 8 37 92 100 46 11 0 -2 0 11 40 87 107 70 27 6 0 0 8 39 95 
95 39 8 -1 -3 -3 -3 -3 -3 -3 -3 -3 -3 -3 -1 7 35 90 103 57 43 73 108 86 37 9 0 -2 -3 -3 -3 -3 -3 -3 -3 -3 -3 -3 -3 -3 -3 -3 -1 0 8 25 55 87 107 101 70 40 18 6 0 -1 -2 -3 -3 -3 -2 -2 -1 -1 -1 -1 0 0 2 5 9 18 44 89 109 73 33 12 3 0 0 -1 -1 -1 -1 -1 -1 0 2 13 48 101 92 37 8 0 0 6 27 70 107 87 40 11 0 -2 0 8 39 95 
95 39 8 -1 -3 -3 -3 -3 -3 -3 -3 -3 -3 -3 -1 4 28 79 111 82 76 105 101 55 18 2 -2 -3 -3 -3 -3 -3 -3 -3 -3 -3 -3 -3 -3 -3 -2 -1 3 11 30 64 99 107 87 55 27 11 2 -1 -2 -3 -3 -3 -3 -3 -3 -3 -3 -3 -3 -3 -3 -2 -2 -1 0 4 19 56 103 110 75 42 22 12 9 8 8 8 8 8 8 9 13 29 69 112 83 31 6 0 3 18 55 101 101 55 18 2 -1 -2 -1 8 39 95 
95 39 8 -1 -3 -3 -3 -3 -3 -3 -3 -3 -3 -3 -2 1 18 62 113 113 112 111 70 27 6 -1 -3 -3 -3 -3 -3 -3 -3 -3 -3 -3 -3 -3 -3 -2 0 6 18 40 71 103 103 71 40 18 6 0 -2 -3 -3 -3 -3 -3 -3 -3 -3 -3 -3 -3 -3 -3 -3 -3 -3 -3 -2 0 6 29 75 126 128 96 66 48 41 39 39 39 39 39 39 40 46 65 105 125 77 29 8 4 12 40 87 107 70 27 6 -1 -2 -3 -1 8 39 95 
95 39 8 -1 -3 -3 -3 -3 -3 -3 -3 -3 -3 -3 -2 0 11 47 108 136 129 91 40 11 0 -2 -3 -3 -3 -3 -3 -3 -3 -3 -3 -3 -3 -2 -1 2 11 27 55 87 107 99 64 30 11 3 -1 -2 -3 -3 -3 -3 -3 -3 -3 -3 -3 -3 -3 -3 -3 -3 -3 -3 -3 -3 -3 -2 1 15 54 118 146 129 113 102 97 96 95 95 95 95 95 96 101 115 140 140 93 49 25 18 32 71 108 87 40 11 0 -2 -3 -3 -1 8 39 95 
95 39 8 -1 -3 -3 -3 -3 -3 -3 -3 -3 -3 -3 -3 0 8 41 105 147 120 62 20 3 -1 -3 -3 -3 -3 -3 -3 -3 -3 -3 -3 -3 -2 0 6 18 40 70 101 107 87 55 25 8 0 -1 -3 -3 -3 -3 -3 -3 -3 -3 -3 -3 -3 -3 -3 -3 -3 -3 -3 -3 -3 -3 -3 -2 0 13 51 110 120 93 87 91 94 95 95 95 95 95 95 95 97 102 114 125 117 93 67 56 72 106 103 56 18 2 -2 -3 -3 -3 -1 8 39 95 
95 39 8 -1 -3 -3 -3 -3 -3 -3 -3 -3 -3 -3 -3 -1 8 39 103 141 94 37 9 0 -2 -3 -3 -3 -3 -3 -3 -3 -3 -3 -2 -1 2 11 27 55 87 107 101 70 40 18 5 0 -2 -3 -3 -3 -3 -3 -3 -3 -3 -3 -3 -3 -3 -3 -3 -3 -3 -3 -3 -3 -3 -3 -3 -2 2 18 62 111 90 49 36 36 38 38 39 39 39 39 39 39 39 41 49 66 90 108 111 111 123 124 78 30 7 0 -3 -3 -3 -3 -1 8 39 95 
95 39 8 -1 -3 -3 -3 -3 -3 -3 -3 -3 -3 -3 -3 -1 7 38 100 122 66 20 3 -2 -3 -3 -3 -3 -3 -3 -3 -3 -2 -1 0 6 18 39 70 103 110 90 57 29 12 3 0 -2 -3 -3 -3 -3 -3 -3 -3 -3 -3 -3 -3 -3 -3 -3 -3 -3 -3 -3 -3 -3 -3 -3 -3 -1 4 28 79 108 64 24 10 7 7 8 8 8 8 8 8 8 8 9 12 21 38 62 91 121 146 126 65 21 3 -1 -3 -3 -3 -3 -1 8 39 95 
95 39 8 -1 -3 -3 -3 -3 -3 -3 -3 -3 -3 -3 -3 -1 8 39 98 105 48 12 0 -2 -3 -3 -3 -3 -3 -2 -2 0 2 6 13 28 56 92 120 117 84 52 29 14 5 1 0 -1 -2 -2 -3 -3 -3 -3 -3 -3 -3 -3 -3 -3 -3 -3 -3 -3 -3 -3 -3 -3 -3 -3 -3 -1 6 34 89 101 48 13 1 0 -1 -1 -1 -1 -1 -1 -1 -1 -1 0 0 3 9 20 41 74 117 125 78 30 7 0 -3 -3 -3 -3 -1 8 39 95 
95 39 8 -1 -3 -3 -3 -3 -3 -3 -3 -3 -3 -3 -3 0 9 41 98 97 40 8 0 -3 -3 -3 -3 -2 -2 0 2 8 18 31 47 73 111 140 143 114 77 54 41 30 19 12 8 5 1 0 0 -1 -1 -2 -2 -3 -3 -3 -3 -3 -3 -3 -3 -3 -3 -3 -3 -3 -3 -3 -3 -1 7 38 94 97 41 9 0 -2 -3 -3 -3 -3 -3 -3 -3 -3 -3 -3 -2 -2 0 3 12 31 68 108 103 56 18 2 -2 -3 -3 -3 -1 8 39 95 
95 39 8 -1 -3 -3 -3 -3 -3 -3 -3 -3 -3 -3 -2 0 12 48 101 90 35 7 -1 -2 -2 -2 -1 0 3 9 20 37 59 81 99 113 120 122 125 121 108 99 91 79 61 46 37 28 18 12 8 7 4 1 0 -1 -1 -2 -2 -3 -3 -3 -3 -3 -3 -3 -3 -3 -3 -3 -3 0 9 41 97 94 38 8 -1 -3 -3 -3 -3 -3 -3 -3 -3 -3 -3 -3 -3 -3 -2 -1 1 9 31 72 108 87 40 11 0 -2 -3 -3 -1 8 39 95 
95 39 8 -1 -3 -3 -3 -3 -3 -3 -3 -3 -3 -3 -2 1 18 61 107 79 28 5 -1 -1 0 1 5 11 21 38 61 88 105 108 98 83 65 57 64 80 91 96 101 107 107 100 92 79 61 47 40 35 28 18 11 7 5 1 0 0 -1 -1 -2 -2 -3 -3 -3 -3 -3 -3 -2 0 12 47 101 89 34 6 -1 -3 -3 -3 -3 -3 -3 -3 -3 -3 -3 -3 -3 -3 -3 -3 -2 1 12 40 88 107 70 27 6 -1 -2 -3 -1 8 39 95 
95 39 8 -1 -3 -3 -3 -3 -3 -3 -3 -3 -3 -3 -1 4 28 79 108 62 19 3 0 2 8 18 30 44 64 88 106 106 88 64 44 31 20 15 19 28 35 40 47 61 79 92 100 107 107 101 96 90 79 61 46 37 28 18 12 8 7 4 1 0 -1 -1 -2 -2 -3 -2 -2 2 18 61 107 79 28 4 -1 -3 -3 -3 -3 -3 -3 -3 -3 -3 -3 -3 -3 -3 -3 -3 -3 -1 3 18 55 101 101 55 18 3 -1 -2 -1 8 39 95 
95 39 8 -1 -3 -3 -3 -3 -3 -3 -3 -3 -3 -3 -1 7 35 90 102 49 15 6 9 20 37 58 81 97 107 105 88 61 38 21 11 6 2 1 2 4 7 8 12 18 28 37 46 61 79 90 96 101 107 107 100 92 79 61 47 40 35 28 18 11 7 5 1 0 0 -1 0 5 28 79 108 61 18 1 -2 -3 -3 -3 -3 -3 -3 -3 -3 -3 -3 -3 -3 -3 -3 -3 -3 -3 -1 6 27 70 107 87 40 11 0 -2 0 8 39 95 
95 39 8 -1 -3 -3 -3 -3 -3 -3 -3 -3 -3 -3 0 8 40 96 99 46 21 22 38 61 88 105 107 97 81 58 37 20 9 3 0 -1 -2 -2 -2 -1 -1 0 0 1 5 7 11 18 28 35 40 47 61 79 92 100 107 107 101 96 90 79 61 46 37 28 18 12 8 7 6 12 38 91 102 48 12 0 -2 -3 -3 -3 -3 -3 -3 -3 -3 -3 -3 -3 -3 -3 -3 -3 -3 -3 -2 0 11 40 87 107 71 30 8 0 0 8 39 95 
95 39 8 -1 -3 -3 -3 -3 -3 -3 -3 -3 -3 -2 0 12 48 104 102 59 48 63 88 106 106 88 64 44 30 18 8 2 0 -2 -2 -3 -3 -3 -3 -3 -3 -3 -2 -2 -1 -1 0 1 4 7 8 12 18 28 37 46 61 79 90 96 101 107 107 100 92 79 61 47 40 35 30 29 51 101 98 41 9 0 -3 -3 -3 -3 -3 -3 -3 -3 -3 -3 -3 -3 -3 -3 -3 -3 -3 -3 -3 -2 2 18 55 99 103 64 25 6 1 8 39 95 
95 39 8 -1 -3 -3 -3 -3 -3 -3 -3 -3 -3 -2 3 21 66 122 119 93 96 107 106 88 61 38 21 11 5 1 0 -2 -2 -3 -3 -3 -3 -3 -3 -3 -3 -3 -3 -3 -3 -3 -2 -2 -1 -1 0 0 1 5 7 11 18 28 35 40 47 61 79 92 100 107 107 101 96 90 81 71 83 119 99 39 8 -1 -3 -3 -3 -3 -3 -3 -3 -3 -3 -3 -3 -3 -3 -3 -3 -3 -3 -3 -3 -3 -1 5 25 64 103 99 55 19 5 9 39 95 
95 39 8 -1 -3 -3 -3 -3 -3 -3 -3 -3 -2 0 9 38 95 143 138 120 108 88 61 37 20 9 3 0 -1 -2 -3 -3 -3 -3 -3 -3 -3 -3 -3 -3 -3 -3 -3 -3 -3 -3 -3 -3 -3 -3 -3 -2 -2 -1 -1 0 1 4 7 8 12 18 28 37 46 61 79 90 96 101 109 115 126 143 103 38 7 -1 -3 -3 -3 -3 -3 -3 -3 -3 -3 -3 -3 -3 -3 -3 -3 -3 -3 -3 -3 -3 -2 0 8 30 71 107 87 40 14 12 40 95 
95 39 8 -1 -3 -3 -3 -3 -3 -3 -3 -3 -1 3 20 62 117 131 108 83 59 37 20 9 2 0 -2 -2 -3 -3 -3 -3 -3 -3 -3 -3 -3 -3 -3 -3 -3 -3 -3 -3 -3 -3 -3 -3 -3 -3 -3 -3 -3 -3 -3 -2 -2 -1 -1 0 0 1 5 7 11 18 28 35 40 48 63 87 116 141 103 38 7 -1 -3 -3 -3 -3 -3 -3 -3 -3 -3 -3 -3 -3 -3 -3 -3 -3 -3 -3 -3 -3 -3 -2 0 11 40 87 107 72 33 19 42 96 
95 39 8 -1 -3 -3 -3 -3 -3 -3 -3 -2 0 11 40 90 114 83 50 31 18 8 2 0 -2 -2 -3 -3 -3 -3 -3 -3 -3 -3 -3 -3 -3 -3 -3 -3 -3 -3 -3 -3 -3 -3 -3 -3 -3 -3 -3 -3 -3 -3 -3 -3 -3 -3 -3 -3 -2 -2 -1 -1 0 1 4 7 8 12 20 38 71 116 99 38 7 -1 -3 -3 -3 -3 -3 -3 -3 -3 -3 -3 -3 -3 -3 -3 -3 -3 -3 -3 -3 -3 -3 -3 -1 2 18 55 99 104 66 37 48 97 
96 39 8 -1 -3 -3 -3 -3 -3 -3 -3 -1 6 27 70 108 89 43 17 7 2 0 -2 -2 -3 -3 -3 -3 -3 -3 -3 -3 -3 -3 -3 -3 -3 -3 -3 -3 -3 -3 -3 -3 -3 -3 -3 -3 -3 -3 -3 -3 -3 -3 -3 -3 -3 -3 -3 -3 -3 -3 -3 -3 -2 -2 -1 -1 0 0 4 16 48 101 96 39 8 -1 -3 -3 -3 -3 -3 -3 -3 -3 -3 -3 -3 -3 -3 -3 -3 -3 -3 -3 -3 -3 -3 -3 -3 -1 5 25 64 103 101 65 60 100 
96 38 8 -1 -3 -3 -3 -3 -3 -3 -1 3 18 55 101 101 56 19 4 0 -2 -2 -3 -3 -3 -3 -3 -3 -3 -3 -3 -3 -3 -3 -3 -3 -3 -3 -3 -3 -3 -3 -3 -3 -3 -3 -3 -3 -3 -3 -3 -3 -3 -3 -3 -3 -3 -3 -3 -3 -3 -3 -3 -3 -3 -3 -3 -3 -3 -2 0 9 40 96 96 39 8 0 -3 -3 -3 -3 -3 -3 -3 -3 -3 -3 -3 -3 -3 -3 -3 -3 -3 -3 -3 -3 -3 -3 -3 -2 0 8 30 72 109 97 80 107 
98 38 8 -1 -3 -3 -3 -3 -3 -2 1 12 40 88 107 70 28 6 0 -2 -3 -3 -3 -3 -3 -3 -3 -3 -3 -3 -3 -3 -3 -3 -3 -3 -3 -3 -3 -3 -3 -3 -3 -3 -3 -3 -3 -3 -3 -3 -3 -3 -3 -3 -3 -3 -3 -3 -3 -3 -3 -3 -3 -3 -3 -3 -3 -3 -3 -2 0 8 39 95 98 42 10 0 -2 -3 -3 -3 -3 -3 -3 -3 -3 -3 -3 -3 -3 -3 -3 -3 -3 -3 -3 -3 -3 -3 -3 -3 -2 0 11 40 88 115 107 119 
100 38 7 -1 -3 -3 -3 -3 -2 0 9 31 72 109 89 42 12 1 -1 -2 -3 -3 -3 -3 -3 -3 -3 -3 -3 -3 -3 -3 -3 -3 -3 -3 -3 -3 -3 -3 -3 -3 -3 -3 -3 -3 -3 -3 -3 -3 -3 -3 -3 -3 -3 -3 -3 -3 -3 -3 -3 -3 -3 -3 -3 -3 -3 -3 -3 -2 0 9 39 96 106 52 16 2 -1 -2 -3 -3 -3 -3 -3 -3 -3 -3 -3 -3 -3 -3 -3 -3 -3 -3 -3 -3 -3 -3 -3 -3 -3 -1 2 18 55 104 129 136 
102 38 7 -1 -3 -3 -3 -2 0 8 28 67 108 108 65 28 11 3 0 0 -1 -1 -1 -1 -1 -1 -1 -1 -1 -2 -2 -3 -3 -3 -3 -3 -3 -3 -3 -3 -3 -3 -3 -3 -3 -3 -3 -3 -3 -3 -3 -3 -3 -3 -3 -3 -3 -3 -3 -3 -3 -3 -3 -3 -3 -3 -3 -3 -2 0 4 16 47 103 125 79 34 12 3 0 -2 -3 -3 -3 -3 -3 -3 -3 -3 -3 -3 -3 -3 -3 -3 -3 -3 -3 -3 -3 -3 -3 -3 -3 -1 6 27 71 123 146 
103 38 7 -1 -3 -3 -2 0 8 28 66 113 130 101 65 44 30 19 12 9 8 8 8 8 8 8 7 6 4 1 0 0 -1 -1 -1 -1 -1 -1 -1 -1 -2 -2 -3 -3 -3 -3 -3 -3 -3 -3 -3 -3 -3 -3 -3 -3 -3 -3 -3 -3 -3 -3 -3 -3 -3 -3 -2 -1 0 6 18 41 75 122 147 120 75 41 21 9 2 -1 -2 -3 -3 -3 -3 -3 -3 -3 -3 -3 -3 -3 -3 -3 -3 -3 -3 -3 -3 -3 -3 -3 -2 0 11 40 96 141 
100 38 7 -1 -2 -2 0 8 28 66 114 145 140 119 103 92 80 62 48 41 39 39 39 39 39 38 37 34 28 18 12 9 8 8 8 8 8 7 6 4 1 0 0 -1 -1 -1 -1 -1 -1 -1 -1 -1 -2 -2 -3 -3 -3 -3 -3 -3 -3 -3 -3 -3 -3 -2 0 3 11 27 55 87 111 121 123 123 113 90 62 37 18 6 0 -1 -2 -3 -3 -3 -3 -3 -3 -3 -3 -3 -3 -3 -3 -3 -3 -3 -3 -3 -3 -3 -3 -1 3 21 66 122 
97 38 8 0 -1 0 8 28 65 106 122 115 105 99 98 102 108 107 101 97 96 95 95 95 95 95 93 89 79 61 48 41 39 39 39 39 38 37 34 28 18 12 9 8 8 8 8 8 8 7 6 4 1 0 0 -1 -1 -1 -1 -1 -1 -1 -1 -1 0 2 9 20 41 70 101 108 91 69 59 68 90 107 106 86 55 27 11 3 0 -2 -3 -3 -3 -3 -3 -3 -3 -3 -3 -3 -3 -3 -3 -3 -3 -3 -3 -3 -3 -2 0 12 48 106 
96 39 8 0 1 9 29 65 103 106 76 52 42 40 41 48 61 79 89 93 95 95 95 95 95 96 97 101 107 107 101 97 96 95 95 95 95 93 89 79 61 48 41 39 39 39 39 39 38 37 34 28 18 12 9 8 8 8 8 8 7 6 5 4 7 18 37 61 89 107 101 70 41 23 17 22 38 62 89 107 101 70 41 20 9 2 -1 -2 -3 -3 -3 -3 -3 -3 -3 -3 -3 -3 -3 -3 -3 -3 -3 -3 -3 -3 0 9 41 98 
95 39 10 5 12 31 66 103 103 66 32 15 9 8 9 12 18 28 34 37 38 39 39 39 39 39 41 48 61 79 89 93 95 95 95 95 96 97 101 107 107 101 97 96 95 95 95 95 95 93 89 79 61 48 41 39 39 39 39 38 37 35 29 25 32 56 86 106 106 86 55 27 11 3 1 3 9 21 41 70 101 107 89 61 37 18 6 0 -1 -2 -3 -3 -3 -3 -3 -3 -3 -3 -3 -3 -3 -3 -3 -3 -3 -3 -1 8 39 96 
96 42 17 21 40 72 104 102 65 29 9 1 0 0 0 0 1 4 6 7 8 8 8 8 8 8 9 12 18 28 34 37 38 39 39 39 39 41 48 61 79 89 93 95 95 95 95 95 96 97 101 107 107 101 97 96 95 95 95 95 94 90 83 75 84 105 109 89 62 37 18 6 0 -1 -2 -2 0 3 11 27 55 86 106 106 86 55 27 11 3 0 -2 -3 -3 -3 -3 -3 -3 -3 -3 -3 -3 -3 -3 -3 -3 -3 -1 8 39 95 
98 50 36 57 88 107 99 63 28 8 0 -2 -2 -3 -3 -2 -2 -1 -1 -1 -1 -1 -1 -1 -1 -1 0 0 1 4 6 7 8 8 8 8 8 9 12 18 28 34 37 38 39 39 39 39 39 41 48 61 79 89 93 95 95 95 95 96 98 105 119 133 134 112 73 41 21 9 2 -1 -2 -3 -3 -3 -2 -1 0 6 18 37 61 89 107 101 70 41 20 9 2 -1 -2 -3 -3 -3 -3 -3 -3 -3 -3 -3 -3 -3 -3 -3 -1 8 39 95 
105 69 74 101 108 87 55 25 7 0 -2 -3 -3 -3 -3 -3 -3 -3 -3 -3 -3 -3 -3 -3 -3 -3 -3 -2 -2 -1 -1 -1 -1 -1 -1 -1 -1 0 0 1 4 6 7 8 8 8 8 8 8 9 12 18 28 34 37 38 39 39 39 39 43 55 89 135 133 79 34 13 3 0 -2 -3 -3 -3 -3 -3 -3 -3 -2 -1 2 9 20 41 70 101 107 89 61 37 18 6 0 -1 -2 -3 -3 -3 -3 -3 -3 -3 -3 -3 -3 -3 -1 8 38 96 
120 103 111 105 72 40 18 5 0 -2 -3 -3 -3 -3 -3 -3 -3 -3 -3 -3 -3 -3 -3 -3 -3 -3 -3 -3 -3 -3 -3 -3 -3 -3 -3 -3 -3 -3 -2 -2 -1 -1 -1 -1 -1 -1 -1 -1 -1 0 0 1 4 6 7 8 8 8 8 8 11 22 56 112 111 52 16 2 -1 -2 -3 -3 -3 -3 -3 -3 -3 -3 -3 -3 -2 0 3 11 27 55 86 106 106 86 55 27 11 3 0 -2 -2 -3 -3 -3 -3 -3 -3 -3 -3 -3 -1 8 38 98 
140 130 107 66 31 12 2 -1 -2 -3 -3 -3 -3 -3 -3 -3 -3 -3 -3 -3 -3 -3 -3 -3 -3 -3 -3 -3 -3 -3 -3 -3 -3 -3 -3 -3 -3 -3 -3 -3 -3 -3 -3 -3 -3 -3 -3 -3 -3 -3 -2 -2 -1 -1 -1 -1 -1 -1 -1 0 1 11 43 100 100 42 9 0 -2 -3 -3 -3 -3 -3 -3 -3 -3 -3 -3 -3 -3 -2 -1 0 6 18 37 61 89 107 101 70 41 20 9 2 0 -2 -3 -3 -3 -3 -3 -3 -3 -3 -1 7 38 101 
146 117 67 29 9 1 -1 -3 -3 -3 -3 -3 -3 -3 -3 -3 -3 -3 -3 -3 -3 -3 -3 -3 -3 -3 -3 -3 -3 -3 -3 -3 -3 -3 -3 -3 -3 -3 -3 -3 -3 -3 -3 -3 -3 -3 -3 -3 -3 -3 -3 -3 -3 -3 -3 -3 -3 -3 -3 -2 0 8 39 96 96 39 8 0 -3 -3 -3 -3 -3 -3 -3 -3 -3 -3 -3 -3 -3 -3 -3 -2 -1 2 9 20 41 70 101 107 89 62 38 20 9 2 -1 -2 -3 -3 -3 -3 -3 -3 -1 7 38 103 
128 78 32 9 0 -2 -3 -3 -3 -3 -3 -3 -3 -3 -3 -3 -3 -3 -3 -3 -3 -3 -3 -3 -3 -3 -3 -3 -3 -3 -3 -3 -3 -3 -3 -3 -3 -3 -3 -3 -3 -3 -3 -3 -3 -3 -3 -3 -3 -3 -3 -3 -3 -3 -3 -3 -3 -3 -3 -3 -1 8 39 95 95 39 8 -1 -3 -3 -3 -3 -3 -3 -3 -3 -3 -3 -3 -3 -3 -3 -3 -3 -3 -2 0 3 11 27 55 86 106 106 88 61 37 18 6 0 -1 -2 -3 -3 -3 -3 -1 7 38 101 
108 52 15 1 -2 -3 -3 -3 -3 -3 -3 -3 -3 -3 -3 -3 -3 -3 -3 -3 -3 -3 -3 -3 -3 -3 -3 -3 -3 -3 -3 -3 -3 -3 -3 -3 -3 -3 -3 -3 -3 -3 -3 -3 -3 -3 -3 -3 -3 -3 -3 -3 -3 -3 -3 -3 -3 -3 -3 -3 -1 8 39 95 95 39 8 -1 -3 -3 -3 -3 -3 -3 -3 -3 -3 -3 -3 -3 -3 -3 -3 -3 -3 -3 -2 -1 0 6 18 37 61 88 106 106 86 55 27 11 3 0 -1 -1 -2 -2 0 8 39 98 
99 42 9 0 -2 -3 -3 -3 -3 -3 -3 -3 -3 -3 -3 -3 -3 -3 -3 -3 -3 -3 -3 -3 -3 -3 -3 -3 -3 -3 -3 -3 -3 -3 -3 -3 -3 -3 -3 -3 -3 -3 -3 -3 -3 -3 -3 -3 -3 -3 -3 -3 -3 -3 -3 -3 -3 -3 -3 -3 -1 8 39 95 95 39 8 -1 -3 -3 -3 -3 -3 -3 -3 -3 -3 -3 -3 -3 -3 -3 -3 -3 -3 -3 -3 -3 -2 -1 2 9 20 38 62 90 108 102 70 41 21 12 7 5 2 0 1 9 40 96 
96 39 8 0 -3 -3 -3 -3 -3 -3 -3 -3 -3 -3 -3 -3 -3 -3 -3 -3 -3 -3 -3 -3 -3 -3 -3 -3 -3 -3 -3 -3 -3 -3 -3 -3 -3 -3 -3 -3 -3 -3 -3 -3 -3 -3 -3 -3 -3 -3 -3 -3 -3 -3 -3 -3 -3 -3 -3 -3 -1 8 39 95 95 39 8 -1 -3 -3 -3 -3 -3 -3 -3 -3 -3 -3 -3 -3 -3 -3 -3 -3 -3 -3 -3 -3 -3 -3 -2 0 3 10 23 44 76 110 117 95 66 47 37 28 18 12 10 16 44 98 
97 39 8 0 -2 -3 -3 -3 -3 -3 -3 -3 -3 -3 -3 -3 -3 -3 -3 -3 -3 -3 -3 -3 -3 -3 -3 -3 -3 -3 -3 -3 -3 -3 -3 -3 -3 -3 -3 -3 -3 -3 -3 -3 -3 -3 -3 -3 -3 -3 -3 -3 -3 -3 -3 -3 -3 -3 -3 -3 -1 8 39 95 95 39 8 -1 -3 -3 -3 -3 -3 -3 -3 -3 -3 -3 -3 -3 -3 -3 -3 -3 -3 -3 -3 -3 -3 -3 -2 -1 0 5 12 26 52 93 133 143 125 105 93 80 61 47 39 39 59 105 
101 41 10 1 0 -1 -1 -1 -1 -2 -2 -3 -3 -3 -3 -3 -3 -3 -3 -3 -3 -3 -3 -3 -3 -3 -3 -3 -3 -3 -3 -3 -3 -3 -3 -3 -3 -3 -3 -3 -3 -3 -3 -3 -3 -3 -3 -3 -3 -3 -3 -3 -3 -3 -3 -3 -3 -3 -3 -3 -1 8 39 95 95 39 8 -1 -3 -3 -3 -3 -3 -3 -3 -3 -3 -3 -3 -3 -3 -3 -3 -3 -3 -3 -3 -3 -2 -1 0 3 9 18 32 48 73 106 130 128 112 103 103 108 107 100 94 89 96 124 
110 49 19 10 8 8 7 6 4 1 0 0 -1 -1 -1 -1 -1 -2 -2 -3 -3 -3 -3 -3 -3 -3 -3 -3 -3 -3 -3 -3 -3 -3 -3 -3 -3 -3 -3 -3 -3 -3 -3 -3 -3 -3 -3 -3 -3 -3 -3 -3 -3 -3 -3 -3 -3 -3 -3 -3 -1 8 39 95 95 39 8 -1 -3 -3 -3 -3 -3 -3 -3 -3 -3 -3 -3 -3 -3 -3 -3 -3 -3 -2 -2 0 1 5 11 21 37 59 81 98 109 108 91 66 49 44 48 62 80 92 101 114 131 148 
126 75 49 41 39 38 37 34 28 18 12 9 8 8 7 6 4 1 0 0 -1 -1 -1 -1 -1 -1 -2 -2 -3 -3 -3 -3 -3 -3 -3 -3 -3 -3 -3 -3 -3 -3 -3 -3 -3 -3 -3 -3 -3 -3 -3 -3 -3 -3 -3 -3 -3 -3 -3 -3 -1 8 39 95 95 39 8 -1 -3 -3 -3 -3 -3 -3 -3 -3 -3 -3 -3 -3 -3 -3 -3 -2 -1 0 2 8 18 30 44 64 88 105 107 97 81 59 37 21 12 10 12 18 28 37 48 69 106 144 
147 121 103 97 95 95 93 89 79 61 48 41 39 38 37 34 28 18 12 9 8 8 8 7 6 4 1 0 0 -1 -1 -1 -1 -1 -2 -2 -3 -3 -3 -3 -3 -3 -3 -3 -3 -3 -3 -3 -3 -3 -3 -3 -3 -3 -3 -3 -3 -3 -3 -3 -1 8 39 95 95 39 8 -1 -3 -3 -3 -3 -3 -3 -3 -3 -3 -3 -3 -3 -2 -2 0 1 5 11 21 37 58 81 97 107 105 88 64 44 30 17 8 2 0 0 0 2 5 8 13 28 65 123 
144 121 103 97 95 96 97 101 107 107 101 97 95 95 93 89 79 61 48 41 39 39 38 37 34 28 18 12 9 8 8 7 6 4 1 0 0 -1 -1 -1 -1 -1 -1 -2 -2 -3 -3 -3 -3 -3 -3 -3 -3 -3 -3 -3 -3 -3 -3 -3 -1 8 39 95 95 39 8 -1 -3 -3 -3 -3 -3 -3 -3 -3 -3 -3 -2 -2 0 2 8 18 30 44 64 88 105 107 97 81 58 37 21 11 5 1 0 -2 -2 -3 -2 -2 -1 0 2 13 45 109 
117 75 49 41 39 39 41 48 61 79 89 93 95 95 97 101 107 107 101 97 96 95 95 93 89 79 61 48 41 39 38 37 34 28 18 12 9 8 8 8 7 6 4 1 0 0 -1 -1 -1 -1 -1 -2 -2 -3 -3 -3 -3 -3 -3 -2 0 8 39 95 95 39 8 -1 -3 -3 -3 -3 -3 -3 -3 -3 -2 -1 0 3 9 20 37 58 81 97 107 105 88 64 44 30 18 8 2 0 -1 -2 -3 -3 -3 -3 -3 -3 -3 -2 0 9 40 100 
102 49 19 10 8 8 9 12 18 28 34 37 38 39 41 48 61 79 89 93 95 95 96 97 101 107 107 101 97 95 95 93 89 79 61 48 41 39 39 38 37 34 28 18 12 9 8 8 7 6 4 1 0 0 -1 -1 -1 -1 -1 -1 0 8 39 95 95 39 8 -1 -3 -3 -3 -3 -3 -2 -2 0 1 5 11 21 38 61 88 105 107 97 81 58 37 21 11 5 1 0 -2 -2 -3 -3 -3 -3 -3 -3 -3 -3 -3 -3 -1 8 39 96 
96 41 10 1 0 0 0 0 1 4 6 7 8 8 9 12 18 28 34 37 38 39 39 41 48 61 79 89 93 95 95 97 101 107 107 101 97 96 95 95 93 89 79 61 48 41 39 38 37 34 28 18 12 9 8 8 8 7 6 5 4 11 41 97 96 39 8 0 -3 -3 -3 -2 -1 0 2 8 18 30 44 64 88 106 106 88 64 44 30 18 8 2 0 -1 -2 -3 -3 -3 -3 -3 -3 -3 -3 -3 -3 -3 -3 -3 -1 8 39 95 
95 39 8 0 -2 -3 -3 -2 -2 -1 -1 -1 -1 -1 0 0 1 4 6 7 8 8 8 9 12 18 28 34 37 38 39 41 48 61 79 89 93 95 95 96 97 101 107 107 101 97 95 95 93 89 79 61 48 41 39 39 38 37 34 28 21 23 50 103 100 42 10 0 -2 -2 0 1 5 11 21 37 58 81 97 107 105 88 61 38 21 11 5 1 0 -2 -2 -3 -3 -3 -3 -3 -3 -3 -3 -3 -3 -3 -3 -3 -3 -3 -1 8 39 95 
95 39 8 -1 -3 -3 -3 -3 -3 -3 -3 -3 -3 -3 -3 -2 -2 -1 -1 -1 -1 -1 -1 0 0 1 4 6 7 8 8 9 12 18 28 34 37 38 39 39 41 48 61 79 89 93 95 95 97 101 107 107 101 97 96 95 95 93 89 79 63 58 78 120 112 53 16 3 1 3 8 18 30 44 64 88 105 107 97 81 58 37 20 9 3 0 -1 -2 -3 -3 -3 -3 -3 -3 -3 -3 -3 -3 -3 -3 -3 -3 -3 -3 -3 -3 -1 8 39 95 
95 39 8 -1 -3 -3 -3 -3 -3 -3 -3 -3 -3 -3 -3 -3 -3 -3 -3 -3 -3 -3 -3 -3 -2 -2 -1 -1 -1 -1 -1 0 0 1 4 6 7 8 8 8 9 12 18 28 34 37 38 39 41 48 61 79 89 93 95 95 96 97 101 108 109 107 119 144 133 79 36 17 14 21 37 59 81 97 107 105 88 64 44 30 18 8 2 0 -2 -2 -3 -3 -3 -3 -3 -3 -3 -3 -3 -3 -3 -3 -3 -3 -3 -3 -3 -3 -3 -3 -1 8 39 95 
95 39 8 -1 -3 -3 -3 -3 -3 -3 -3 -3 -3 -3 -3 -3 -3 -3 -3 -3 -3 -3 -3 -3 -3 -3 -3 -3 -3 -3 -3 -3 -2 -2 -1 -1 -1 -1 -1 -1 0 0 1 4 6 7 8 8 9 12 18 28 34 37 38 39 39 41 48 61 79 91 101 116 127 113 79 55 52 66 88 105 107 97 81 58 37 21 11 5 1 0 -2 -2 -3 -3 -3 -3 -3 -3 -3 -3 -3 -3 -3 -3 -3 -3 -3 -3 -3 -3 -3 -3 -3 -3 -1 8 39 95 
95 39 8 -1 -3 -3 -3 -3 -3 -3 -3 -3 -3 -3 -3 -3 -3 -3 -3 -3 -3 -3 -3 -3 -3 -3 -3 -3 -3 -3 -3 -3 -3 -3 -3 -3 -3 -3 -3 -3 -3 -2 -2 -1 -1 -1 -1 -1 0 0 1 4 6 7 8 8 8 9 12 18 28 35 41 52 78 113 128 118 110 111 106 88 64 44 30 18 8 2 0 -1 -2 -3 -3 -3 -3 -3 -3 -3 -3 -3 -3 -3 -3 -3 -3 -3 -3 -3 -3 -3 -3 -3 -3 -3 -3 -3 -1 8 39 95 
95 39 8 -1 -3 -3 -3 -3 -3 -3 -3 -3 -3 -3 -3 -3 -3 -3 -3 -3 -3 -3 -3 -3 -3 -3 -3 -3 -3 -3 -3 -3 -3 -3 -3 -3 -3 -3 -3 -3 -3 -3 -3 -3 -3 -3 -3 -3 -3 -2 -2 -1 -1 -1 -1 -1 0 0 0 2 4 7 9 16 36 79 134 143 113 85 59 37 21 11 5 1 0 -2 -2 -3 -3 -3 -3 -3 -3 -3 -3 -3 -3 -3 -3 -3 -3 -3 -3 -3 -3 -3 -3 -3 -3 -3 -3 -3 -3 -3 -1 8 39 95 
95 39 8 0 -2 -3 -3 -3 -3 -3 -3 -3 -3 -3 -3 -3 -3 -3 -3 -3 -3 -3 -3 -3 -3 -3 -3 -3 -3 -3 -3 -3 -3 -3 -3 -3 -3 -3 -3 -3 -3 -3 -3 -3 -3 -3 -3 -3 -3 -3 -2 -2 -2 -2 -2 -2 -2 -2 -2 -2 -1 0 0 3 16 53 113 119 72 38 20 9 3 0 -1 -2 -2 -2 -3 -3 -3 -3 -3 -3 -3 -3 -3 -3 -3 -3 -3 -3 -3 -3 -3 -3 -3 -3 -3 -3 -3 -3 -3 -3 -3 -2 0 8 39 95 
97 41 10 1 0 -1 -1 -1 -1 -1 -1 -1 -1 -1 -1 -1 -1 -1 -1 -1 -1 -1 -1 -1 -1 -1 -1 -1 -1 -1 -1 -1 -1 -1 -1 -1 -1 -1 -1 -1 -1 -1 -1 -1 -1 -1 -1 -1 -1 -1 -1 -1 -1 -1 -1 -1 -1 -1 -1 0 0 0 0 2 12 44 102 104 50 18 6 2 0 0 0 0 -1 -1 -1 -1 -1 -1 -1 -1 -1 -1 -1 -1 -1 -1 -1 -1 -1 -1 -1 -1 -1 -1 -1 -1 -1 -1 -1 -1 -1 0 1 10 41 97 
103 49 19 10 8 8 8 8 8 8 8 8 8 8 8 8 8 8 8 8 8 8 8 8 8 8 8 8 8 8 8 8 7 7 7 7 8 8 8 8 8 8 8 8 8 8 8 8 7 7 7 7 8 8 8 8 8 8 8 8 8 8 8 10 19 50 104 104 51 21 11 9 8 8 8 8 8 8 8 8 8 8 8 8 8 8 8 8 8 8 8 7 7 7 7 8 8 8 8 8 8 8 8 7 7 8 10 19 49 103 
122 75 49 41 39 39 39 39 39 39 39 39 39 39 39 39 39 39 39 39 39 39 39 39 39 39 39 39 39 39 38 38 38 38 38 38 38 39 39 39 39 39 39 39 39 39 39 38 38 38 38 38 38 39 39 39 39 39 39 39 39 39 39 41 49 75 121 121 76 49 41 39 39 39 39 39 39 39 39 39 39 39 39 39 39 39 39 39 39 39 38 38 38 38 38 38 39 39 39 39 39 39 38 38 38 39 41 49 75 122 
155 122 103 97 95 95 95 95 95 95 95 95 95 95 95 95 95 95 95 95 95 95 95 95 95 95 95 95 95 95 96 98 101 103 101 98 96 95 95 95 95 95 95 95 95 95 95 96 99 103 103 99 96 95 95 95 95 95 95 95 95 95 95 96 101 117 142 142 117 101 96 95 95 95 95 95 95 95 95 95 95 95 95 95 95 95 95 95 95 96 97 101 103 101 98 96 95 95 95 95 95 96 97 101 103 102 99 103 122 155 
