P2
110 110
255
153 125 106 98 96 95 95 95 95 95 95 95 95 95 95 95 95 95 95 95 95 95 95 95 95 95 95 96 96 99 106 121 138 140 125 108 100 97 96 95 95 95 95 95 95 96 98 104 120 139 139 119 104 98 96 95 95 95 95 95 95 95 95 96 97 99 103 103 99 97 96 95 95 95 95 95 95 95 95 95 95 95 95 95 95 95 95 96 97 103 115 134 141 127 109 100 97 96 95 96 97 101 113 132 142 129 113 111 127 153 
125 87 60 49 47 46 46 46 46 46 46 46 46 46 46 46 46 46 46 46 46 46 46 46 46 46 46 47 49 56 73 104 130 119 86 62 51 47 46 46 46 46 46 46 46 47 50 62 90 127 125 86 60 50 47 46 46 46 46 46 46 46 46 46 46 45 45 45 45 46 46 46 46 46 46 46 46 46 46 46 46 46 46 46 46 46 46 47 51 62 89 124 126 93 64 52 47 46 46 47 49 57 81 118 129 98 70 66 88 126 
106 60 29 17 14 13 13 13 13 13 13 13 13 13 13 13 13 13 13 13 13 13 13 13 13 13 14 15 20 33 62 102 113 80 44 24 16 14 13 13 13 13 13 13 13 15 19 34 70 116 108 59 28 17 14 13 13 13 13 13 13 13 13 13 13 13 12 12 13 13 13 13 13 13 13 13 13 13 13 13 13 13 13 13 13 13 14 15 21 40 79 114 97 54 28 17 14 13 13 14 17 29 60 105 108 65 36 34 61 106 
98 49 17 5 2 1 1 1 1 1 1 1 1 1 1 1 1 1 1 1 1 1 1 1 1 1 2 6 15 39 78 108 90 48 19 7 3 2 1 1 1 1 1 1 2 4 11 32 75 121 102 49 17 5 2 1 1 1 1 1 1 1 1 1 1 1 1 1 1 1 1 1 1 1 1 1 1 1 1 1 1 1 1 1 1 1 2 5 14 41 86 107 71 31 11 4 2 1 1 3 7 22 58 103 94 47 21 21 50 98 
96 47 14 2 0 -1 -1 -1 -1 -1 -1 -1 -1 -1 -1 -1 -1 -1 -1 -1 -1 -1 -1 -1 -1 0 1 8 26 62 100 99 61 25 7 1 0 -1 -1 -1 -1 -1 -1 -1 0 3 15 45 95 133 102 45 13 2 0 -1 -1 -1 -1 -1 -1 -1 -1 -1 -1 -1 -1 -1 -1 -1 -1 -1 -1 -1 -1 -1 -1 -1 -1 -1 -1 -1 -1 -1 -1 -1 0 4 18 52 98 97 52 18 4 0 -1 -1 -1 0 6 26 68 106 82 36 14 17 47 96 
95 46 13 1 -1 -2 -2 -2 -2 -2 -2 -2 -2 -2 -2 -2 -2 -2 -2 -2 -2 -2 -2 -2 -1 0 4 17 47 88 105 74 35 11 1 -1 -2 -2 -2 -2 -2 -2 -2 -1 0 7 26 66 118 141 103 46 13 1 -1 -2 -2 -2 -2 -2 -2 -2 -2 -2 -2 -2 -2 -2 -2 -2 -2 -2 -2 -2 -2 -2 -2 -2 -2 -2 -2 -2 -2 -2 -2 -1 0 7 28 70 105 82 37 10 1 -1 -2 -2 -1 0 9 35 81 105 67 26 10 15 46 96 
95 46 13 1 -1 -2 -2 -2 -2 -2 -2 -2 -2 -2 -2 -2 -2 -2 -2 -2 -2 -2 -2 -2 -1 1 11 35 74 105 88 47 17 4 0 -2 -2 -2 -2 -2 -2 -2 -2 -1 2 15 44 91 130 138 104 48 14 2 -1 -2 -2 -2 -2 -2 -2 -2 -2 -2 -2 -2 -2 -2 -2 -2 -2 -2 -2 -2 -2 -2 -2 -2 -2 -2 -2 -2 -2 -2 -2 -1 2 14 44 89 103 63 24 5 0 -2 -2 -2 -1 1 13 44 92 100 54 19 7 14 46 95 
95 46 13 1 -1 -2 -2 -2 -2 -2 -2 -2 -2 -2 -2 -2 -2 -2 -2 -2 -2 -2 -2 -1 0 7 25 61 99 99 61 25 7 0 -1 -2 -2 -2 -2 -2 -2 -2 -1 0 7 28 67 110 122 125 107 55 18 3 -1 -2 -2 -2 -2 -2 -2 -2 -2 -2 -2 -2 -2 -2 -2 -2 -2 -2 -2 -2 -2 -2 -2 -2 -2 -2 -2 -2 -2 -2 -2 0 5 24 63 103 89 44 14 2 -1 -2 -2 -2 -1 3 18 54 100 92 44 14 5 14 46 95 
95 46 13 1 -1 -2 -2 -2 -2 -2 -2 -2 -2 -2 -2 -2 -2 -2 -2 -2 -2 -2 -2 0 4 17 47 88 105 74 35 11 1 -1 -2 -2 -2 -2 -2 -2 -2 -2 0 4 17 48 91 111 100 106 110 67 25 5 0 -2 -2 -2 -2 -2 -2 -2 -2 -2 -2 -2 -2 -2 -2 -2 -2 -2 -2 -2 -2 -2 -2 -2 -2 -2 -2 -2 -2 -2 -1 1 10 37 82 105 70 28 7 0 -1 -2 -2 -2 0 5 25 67 105 81 35 10 4 14 46 95 
95 46 13 1 -1 -2 -2 -2 -2 -2 -2 -2 -2 -2 -2 -2 -2 -2 -2 -2 -2 -2 -1 1 11 35 74 105 88 47 17 4 0 -2 -2 -2 -2 -2 -2 -2 -2 -1 1 11 34 75 106 94 70 83 108 80 33 8 0 -1 -2 -2 -2 -2 -2 -2 -2 -2 -2 -2 -2 -2 -2 -2 -2 -2 -2 -2 -2 -2 -2 -2 -2 -2 -2 -2 -2 -2 -1 3 17 51 97 97 51 17 3 -1 -2 -2 -2 -1 0 9 34 81 105 67 25 6 3 14 46 95 
96 46 13 1 -1 -2 -2 -2 -2 -2 -2 -2 -2 -2 -2 -2 -2 -2 -2 -2 -2 -1 0 7 25 61 99 99 61 25 7 0 -1 -2 -2 -2 -2 -2 -2 -2 -1 0 6 24 60 99 100 66 45 64 103 89 40 11 1 -1 -2 -2 -2 -2 -2 -2 -2 -2 -2 -2 -2 -2 -2 -2 -2 -2 -2 -2 -2 -2 -2 -2 -2 -2 -2 -2 -2 -1 0 7 28 70 105 82 37 10 1 -1 -2 -2 -2 -1 1 13 44 92 100 54 18 4 3 13 46 95 
97 47 14 1 -1 -2 -2 -2 -2 -2 -2 -2 -2 -2 -2 -2 -2 -2 -2 -2 -2 0 4 17 47 88 105 74 35 11 1 -1 -2 -2 -2 -2 -2 -2 -2 -2 -1 2 14 43 86 105 76 39 29 53 98 93 44 12 1 -1 -2 -2 -2 -2 -2 -2 -2 -2 -2 -2 -2 -2 -2 -2 -2 -2 -2 -2 -2 -2 -2 -2 -2 -2 -2 -2 -2 -1 2 14 44 89 103 63 24 5 0 -2 -2 -2 -2 -1 3 18 54 100 92 44 13 2 2 13 46 96 
100 51 16 2 -1 -2 -2 -2 -2 -2 -2 -2 -2 -2 -2 -2 -2 -2 -2 -2 -1 1 11 35 74 105 88 47 17 4 0 -2 -2 -2 -2 -2 -2 -2 -2 -1 0 7 27 66 103 91 49 22 20 48 96 95 46 13 1 -1 -2 -2 -2 -2 -2 -2 -2 -2 -2 -2 -2 -2 -2 -2 -2 -2 -2 -2 -2 -2 -2 -2 -2 -2 -2 -2 -2 0 5 24 63 103 89 44 14 2 -1 -2 -2 -2 -2 0 5 25 67 105 81 34 9 1 2 13 46 96 
108 61 23 6 0 -1 -2 -2 -2 -2 -2 -2 -2 -2 -2 -2 -2 -2 -2 -1 0 7 25 61 99 99 61 25 7 0 -1 -2 -2 -2 -2 -2 -2 -2 -2 -1 2 15 45 89 104 67 29 12 15 45 93 98 49 15 2 -1 -2 -2 -2 -2 -2 -2 -2 -2 -2 -2 -2 -2 -2 -2 -2 -2 -2 -2 -2 -2 -2 -2 -2 -2 -2 -2 -1 1 10 37 82 105 70 28 7 0 -1 -2 -2 -2 -1 0 9 34 81 105 67 25 6 0 2 13 45 98 
124 84 40 15 3 0 -1 -2 -2 -2 -2 -2 -2 -2 -2 -2 -2 -2 -2 0 4 17 47 88 105 74 35 11 1 -1 -2 -2 -2 -2 -2 -2 -2 -2 -1 0 8 28 67 104 89 45 16 6 12 40 89 101 56 18 3 -1 -2 -2 -2 -2 -2 -2 -2 -2 -2 -2 -2 -2 -2 -2 -2 -2 -2 -2 -2 -2 -2 -2 -2 -2 -2 -2 -1 3 17 51 97 97 51 17 3 -1 -2 -2 -2 -2 -1 1 13 44 92 100 54 18 3 0 1 13 45 101 
140 116 72 35 13 2 0 -2 -2 -2 -2 -2 -2 -2 -2 -2 -2 -2 -1 1 11 35 74 105 88 47 17 4 0 -2 -2 -2 -2 -2 -2 -2 -2 -2 0 4 17 48 91 103 66 27 7 3 9 33 80 105 67 25 5 0 -2 -2 -2 -2 -2 -2 -2 -2 -2 -2 -2 -2 -2 -2 -2 -2 -2 -2 -2 -2 -2 -2 -2 -2 -2 -1 0 7 28 70 105 82 37 10 1 -1 -2 -2 -2 -2 -1 3 18 54 100 92 44 13 1 0 1 12 45 103 
139 131 106 67 31 10 1 -1 -2 -2 -2 -2 -2 -2 -2 -2 -2 -1 0 7 25 61 99 99 61 25 7 0 -1 -2 -2 -2 -2 -2 -2 -2 -2 -1 1 11 34 75 105 86 43 14 3 0 6 25 67 105 80 33 8 0 -1 -2 -2 -2 -2 -2 -2 -2 -2 -2 -2 -2 -2 -2 -2 -2 -2 -2 -2 -2 -2 -2 -2 -2 -2 -1 2 14 44 89 103 63 24 5 0 -2 -2 -2 -2 -2 0 5 25 67 105 81 34 9 0 0 1 13 45 102 
124 114 113 99 59 25 7 0 -1 -2 -2 -2 -2 -2 -2 -2 -2 0 4 17 47 88 105 74 35 11 1 -1 -2 -2 -2 -2 -2 -2 -2 -2 -1 0 6 24 60 99 99 60 24 6 0 0 3 18 56 101 89 40 11 1 -1 -2 -2 -2 -2 -2 -2 -2 -2 -2 -2 -2 -2 -2 -2 -2 -2 -2 -2 -2 -2 -2 -2 -2 -2 0 5 24 63 103 89 44 14 2 -1 -2 -2 -2 -2 -1 0 9 34 81 105 67 25 5 0 -1 1 13 45 99 
109 86 91 108 88 47 18 5 0 -1 -2 -2 -2 -2 -2 -2 -1 1 11 35 74 105 88 47 17 4 0 -2 -2 -2 -2 -2 -2 -2 -2 -2 -1 2 14 43 86 105 75 34 11 1 -1 -1 2 15 49 97 93 44 12 1 -1 -2 -2 -2 -2 -2 -2 -2 -2 -2 -2 -2 -2 -2 -2 -2 -2 -2 -2 -2 -2 -2 -2 -2 -1 1 10 37 82 105 70 28 7 0 -1 -2 -2 -2 -2 -1 1 13 44 92 100 54 18 3 0 -1 1 13 46 97 
101 66 63 92 105 77 39 15 4 0 -1 -2 -2 -2 -2 -1 0 7 25 61 99 99 61 25 7 0 -1 -2 -2 -2 -2 -2 -2 -2 -2 -1 0 7 27 66 103 91 48 17 4 0 -1 -1 1 13 46 95 95 46 13 1 -1 -2 -2 -2 -2 -2 -2 -2 -2 -2 -2 -2 -2 -2 -2 -2 -2 -2 -2 -2 -2 -2 -2 -2 -1 3 17 51 97 97 51 17 3 -1 -2 -2 -2 -2 -2 -1 3 18 54 100 92 44 13 1 -1 -1 1 13 46 96 
98 55 41 63 98 102 71 36 14 3 0 -1 -2 -2 -2 0 4 17 47 88 105 74 35 11 1 -1 -2 -2 -2 -2 -2 -2 -2 -2 -2 -1 2 15 45 89 104 67 28 8 0 -1 -2 -1 1 12 44 93 97 49 15 2 -1 -2 -2 -2 -2 -2 -2 -2 -2 -2 -2 -2 -2 -2 -2 -2 -2 -2 -2 -2 -2 -2 -2 -1 0 7 28 70 105 82 37 10 1 -1 -2 -2 -2 -2 -2 0 5 25 67 105 81 34 9 0 -1 -1 1 13 46 96 
96 50 26 36 68 100 101 70 36 14 3 0 -1 -2 -1 1 11 35 74 105 88 47 17 4 0 -2 -2 -2 -2 -2 -2 -2 -2 -2 -1 0 8 28 67 104 89 45 15 2 -1 -2 -2 -1 1 11 40 89 101 56 18 3 -1 -2 -2 -2 -2 -2 -2 -2 -2 -2 -2 -2 -2 -2 -2 -2 -2 -2 -2 -2 -2 -2 -2 -1 2 14 44 89 103 63 24 5 0 -2 -2 -2 -2 -2 -1 0 9 34 81 105 67 25 5 0 -1 -1 1 13 46 95 
96 47 18 17 36 70 101 101 70 36 14 3 0 -1 0 7 25 61 99 99 61 25 7 0 -1 -2 -2 -2 -2 -2 -2 -2 -2 -2 0 4 17 48 91 103 66 27 7 0 -1 -2 -2 -1 0 8 33 80 105 67 25 5 0 -2 -2 -2 -2 -2 -2 -2 -2 -2 -2 -2 -2 -2 -2 -2 -2 -2 -2 -2 -2 -2 -2 0 5 24 63 103 89 44 14 2 -1 -2 -2 -2 -2 -2 -1 1 13 44 92 100 54 18 3 -1 -2 -1 1 13 46 95 
95 46 15 7 15 36 70 101 101 70 36 14 4 1 4 17 47 88 105 74 35 11 1 -1 -2 -2 -2 -2 -2 -2 -2 -2 -2 -1 1 11 34 75 105 86 43 14 2 -1 -2 -2 -2 -2 0 5 25 67 105 80 33 8 0 -1 -2 -2 -2 -2 -2 -2 -2 -2 -2 -2 -2 -2 -2 -2 -2 -2 -2 -2 -2 -2 -1 1 10 37 82 105 70 28 7 0 -1 -2 -2 -2 -2 -2 -1 3 18 54 100 92 44 13 1 -1 -2 -1 1 13 46 95 
95 46 14 3 4 14 36 70 101 101 70 36 15 8 13 35 74 105 88 47 17 4 0 -2 -2 -2 -2 -2 -2 -2 -2 -2 -1 0 6 24 60 99 99 60 24 6 0 -1 -2 -2 -2 -2 -1 3 18 56 101 89 40 11 1 -1 -2 -2 -2 -2 -2 -2 -2 -2 -2 -2 -2 -2 -2 -2 -2 -2 -2 -2 -2 -2 -1 3 17 51 97 97 51 17 3 -1 -2 -2 -2 -2 -2 -2 0 5 25 67 105 81 34 9 0 -1 -2 -1 1 13 46 95 
95 46 13 2 0 4 14 36 70 101 101 71 39 24 31 63 100 99 61 25 7 0 -1 -2 -2 -2 -2 -2 -2 -2 -2 -2 -1 2 14 43 86 105 75 34 11 1 -1 -2 -2 -2 -2 -2 -1 2 15 49 97 94 45 13 1 -1 -2 -2 -2 -2 -2 -2 -2 -2 -2 -2 -2 -2 -2 -2 -2 -2 -2 -2 -2 -1 0 7 28 70 105 82 37 10 1 -1 -2 -2 -2 -2 -2 -1 0 9 34 81 105 67 25 5 0 -2 -2 -1 1 13 46 95 
95 46 13 1 0 0 3 14 36 70 101 102 76 55 63 93 106 74 35 11 1 -1 -2 -2 -2 -2 -2 -2 -2 -2 -2 -1 0 7 27 66 103 91 48 17 4 0 -2 -2 -2 -2 -2 -2 -1 1 13 45 94 97 49 15 2 -1 -2 -2 -2 -2 -2 -2 -2 -2 -2 -2 -2 -2 -2 -2 -2 -2 -2 -2 -2 -1 2 14 44 89 103 63 24 5 0 -2 -2 -2 -2 -2 -2 -1 1 13 44 92 100 54 18 3 -1 -2 -2 -1 1 13 46 95 
95 46 13 1 -1 -1 0 3 14 36 70 103 110 101 104 113 89 46 17 4 0 -2 -2 -2 -2 -2 -2 -2 -2 -2 -2 -1 2 15 45 89 104 67 28 8 0 -1 -2 -2 -2 -2 -2 -2 -1 1 11 40 89 101 56 18 3 -1 -2 -2 -2 -2 -2 -2 -2 -2 -2 -2 -2 -2 -2 -2 -2 -2 -2 -2 -2 0 5 24 63 103 89 44 14 2 -1 -2 -2 -2 -2 -2 -2 -1 3 18 54 100 92 44 13 1 -1 -2 -2 -1 1 13 46 95 
95 46 13 1 -1 -2 -1 0 3 14 36 72 112 135 135 107 61 25 7 0 -1 -2 -2 -2 -2 -2 -2 -2 -2 -2 -1 0 8 28 67 104 89 45 15 2 -1 -2 -2 -2 -2 -2 -2 -2 -1 0 8 33 80 105 67 25 5 0 -2 -2 -2 -2 -2 -2 -2 -2 -2 -2 -2 -2 -2 -2 -2 -2 -2 -2 -1 1 10 37 82 105 70 28 7 0 -1 -2 -2 -2 -2 -2 -2 0 5 25 67 105 81 34 9 0 -1 -2 -2 -1 1 13 46 95 
95 46 13 1 -1 -2 -2 -1 0 4 15 40 84 130 131 83 37 12 1 -1 -2 -2 -2 -2 -2 -2 -2 -2 -2 -2 0 4 17 48 91 103 66 27 7 0 -1 -2 -2 -2 -2 -2 -2 -2 -2 0 5 25 67 105 80 33 8 0 -1 -2 -2 -2 -2 -2 -2 -2 -2 -2 -2 -2 -2 -2 -2 -2 -2 -2 -1 3 17 51 97 97 51 17 3 -1 -2 -2 -2 -2 -2 -2 -1 0 9 34 81 105 67 25 5 0 -2 -2 -2 -1 1 13 46 95 
95 46 13 1 -1 -2 -2 -2 -1 0 6 22 59 110 114 64 24 5 0 -1 -2 -2 -2 -2 -2 -2 -2 -2 -2 -1 1 11 34 75 105 86 43 14 2 -1 -2 -2 -2 -2 -2 -2 -2 -2 -2 -1 3 18 56 101 89 40 11 1 -1 -2 -2 -2 -2 -2 -2 -2 -2 -2 -2 -2 -2 -2 -2 -2 -2 -1 0 7 28 70 105 82 37 10 1 -1 -2 -2 -2 -2 -2 -2 -1 1 13 44 92 100 54 18 3 -1 -2 -2 -2 -1 1 13 46 95 
95 46 13 1 -1 -2 -2 -2 -2 -1 2 14 45 95 107 60 21 4 0 -2 -2 -2 -2 -2 -2 -2 -2 -2 -1 0 6 24 60 99 99 60 24 6 0 -1 -2 -2 -2 -2 -2 -2 -2 -2 -2 -1 2 15 49 97 93 44 12 1 -1 -2 -2 -2 -2 -2 -2 -2 -2 -2 -2 -2 -2 -2 -2 -2 -2 -1 2 14 44 89 103 63 24 5 0 -2 -2 -2 -2 -2 -2 -2 -1 3 18 54 100 92 44 13 1 -1 -2 -2 -2 -1 1 13 46 95 
95 46 13 1 -1 -2 -2 -2 -2 -1 0 9 35 82 106 68 26 6 0 -2 -2 -2 -2 -2 -2 -2 -2 -2 -1 2 14 43 86 105 75 34 11 1 -1 -2 -2 -2 -2 -2 -2 -2 -2 -2 -2 -1 1 13 46 95 95 46 13 1 -1 -2 -2 -2 -2 -2 -2 -2 -2 -2 -2 -2 -2 -2 -2 -2 -2 0 5 24 63 103 89 44 14 2 -1 -2 -2 -2 -2 -2 -2 -2 0 5 25 67 105 81 34 9 0 -1 -2 -2 -2 -1 1 13 46 95 
95 46 13 1 -1 -2 -2 -2 -2 -2 0 5 25 67 105 81 34 9 0 -1 -2 -2 -2 -2 -2 -2 -2 -1 0 7 27 66 103 91 48 17 4 0 -2 -2 -2 -2 -2 -2 -2 -2 -2 -2 -2 -1 1 12 44 93 97 49 15 2 -1 -2 -2 -2 -2 -2 -2 -2 -2 -2 -2 -2 -2 -2 -2 -2 -1 1 10 37 82 105 70 28 7 0 -1 -2 -2 -2 -2 -2 -2 -1 0 9 34 81 105 67 25 5 0 -2 -2 -2 -2 -1 1 13 46 96 
96 46 13 1 -1 -2 -2 -2 -2 -2 -1 3 18 55 101 90 41 11 1 -1 -2 -2 -2 -2 -2 -2 -2 -1 2 15 45 89 104 67 28 8 0 -1 -2 -2 -2 -2 -2 -2 -2 -2 -2 -2 -2 -1 1 11 40 89 101 56 18 3 -1 -2 -2 -2 -2 -2 -2 -2 -2 -2 -2 -2 -2 -2 -2 -2 -1 3 17 51 97 97 51 17 3 -1 -2 -2 -2 -2 -2 -2 -2 -1 1 13 44 92 100 54 18 3 -1 -2 -2 -2 -2 -1 1 14 47 96 
96 46 13 1 -1 -2 -2 -2 -2 -2 -1 2 14 47 96 96 47 14 2 -1 -2 -2 -2 -2 -2 -2 -1 0 8 28 67 104 89 45 15 2 -1 -2 -2 -2 -2 -2 -2 -2 -2 -2 -2 -2 -2 -1 0 8 33 80 105 67 25 5 0 -2 -2 -2 -2 -2 -2 -2 -2 -2 -2 -2 -2 -2 -2 -1 0 7 28 70 105 82 37 10 1 -1 -2 -2 -2 -2 -2 -2 -2 -1 3 18 54 100 92 44 13 1 -1 -2 -2 -2 -2 -1 2 15 49 99 
97 45 13 1 -1 -2 -2 -2 -2 -2 -1 1 11 41 90 101 55 18 3 -1 -2 -2 -2 -2 -2 -2 0 4 17 48 91 103 66 27 7 0 -1 -2 -2 -2 -2 -2 -2 -2 -2 -2 -2 -2 -2 -2 0 5 25 67 105 80 33 8 0 -1 -2 -2 -2 -2 -2 -2 -2 -2 -2 -2 -2 -2 -2 -1 2 14 44 89 103 63 24 5 0 -2 -2 -2 -2 -2 -2 -2 -2 0 5 25 67 105 81 34 9 0 -1 -2 -2 -2 -2 0 4 19 57 106 
100 45 12 1 -1 -2 -2 -2 -2 -2 -1 0 8 34 80 105 67 25 5 0 -2 -2 -2 -2 -2 -1 1 11 34 75 105 86 43 14 2 -1 -2 -2 -2 -2 -2 -2 -2 -2 -2 -2 -2 -2 -2 -2 -1 3 18 56 101 89 40 11 1 -1 -2 -2 -2 -2 -2 -2 -2 -2 -2 -2 -2 -2 -2 0 5 24 63 103 89 44 14 2 -1 -2 -2 -2 -2 -2 -2 -2 -1 0 9 34 81 105 67 25 5 0 -2 -2 -2 -2 -1 0 8 29 73 118 
102 44 12 1 -1 -2 -2 -2 -2 -2 -2 0 5 25 67 105 80 34 8 0 -1 -2 -2 -2 -1 0 6 24 60 99 99 60 24 6 0 -1 -2 -2 -2 -2 -2 -2 -2 -2 -2 -2 -2 -2 -2 -2 -1 2 15 49 97 93 44 12 1 -1 -2 -2 -2 -2 -2 -2 -2 -2 -2 -2 -2 -2 -1 1 10 37 82 105 70 28 7 0 -1 -2 -2 -2 -2 -2 -2 -2 -1 1 13 44 92 100 54 18 3 -1 -2 -2 -2 -2 0 4 17 47 97 133 
102 44 12 1 -1 -2 -2 -2 -2 -2 -2 -1 3 18 55 101 90 41 11 1 -1 -2 -2 -2 -1 2 14 43 86 105 75 34 11 1 -1 -2 -2 -2 -2 -2 -2 -2 -2 -2 -2 -2 -2 -2 -2 -2 -1 1 13 46 95 95 46 13 1 -1 -2 -2 -2 -2 -2 -2 -2 -2 -2 -2 -2 -2 -1 3 17 51 97 97 51 17 3 -1 -2 -2 -2 -2 -2 -2 -2 -2 -1 3 18 54 100 92 44 13 1 -1 -2 -2 -2 -1 1 11 34 75 122 141 
101 45 13 1 -1 -2 -2 -2 -2 -2 -2 -1 2 14 47 96 96 47 14 2 -1 -2 -2 -1 0 7 27 66 103 91 48 17 4 0 -2 -2 -2 -2 -2 -2 -2 -2 -2 -2 -2 -2 -2 -2 -2 -2 -1 1 12 44 93 98 49 15 2 -1 -2 -2 -2 -2 -2 -2 -2 -2 -2 -2 -2 -1 0 7 28 70 105 82 37 10 1 -1 -2 -2 -2 -2 -2 -2 -2 -2 0 5 25 67 105 81 34 9 0 -1 -2 -2 -1 0 7 25 60 104 131 136 
99 45 13 1 -1 -2 -2 -2 -2 -2 -2 -1 1 11 41 90 101 55 18 3 -1 -2 -2 -1 2 15 45 89 104 67 28 8 0 -1 -2 -2 -2 -2 -2 -2 -2 -2 -2 -2 -2 -2 -2 -2 -2 -2 -1 1 11 40 89 101 56 18 3 0 -2 -2 -2 -2 -2 -2 -2 -2 -2 -2 -2 -1 2 14 44 89 103 63 24 5 0 -2 -2 -2 -2 -2 -2 -2 -2 -1 0 9 34 81 105 67 25 5 0 -2 -2 -2 0 4 17 46 89 115 116 123 
97 46 13 1 -1 -2 -2 -2 -2 -2 -2 -1 0 8 34 80 105 67 25 5 0 -1 -1 0 8 28 67 104 89 45 15 2 -1 -2 -2 -2 -2 -2 -2 -2 -2 -2 -2 -2 -2 -2 -2 -2 -2 -2 -1 0 8 34 80 105 68 26 6 0 -1 -1 -2 -2 -2 -2 -2 -2 -2 -2 -2 0 5 24 63 103 89 44 14 2 -1 -2 -2 -2 -2 -2 -2 -2 -2 -1 1 13 44 92 100 54 18 3 -1 -2 -2 -1 1 11 34 74 107 102 93 111 
96 46 13 1 -1 -2 -2 -2 -2 -2 -2 -2 0 5 25 67 105 80 34 9 0 -1 0 4 17 48 91 103 66 27 7 0 -1 -2 -2 -2 -2 -2 -2 -2 -2 -2 -2 -2 -2 -2 -2 -2 -2 -2 -1 0 6 26 69 107 83 37 12 4 1 0 0 -1 -1 -1 -1 -1 -1 -1 -1 1 10 37 82 105 70 28 7 0 -1 -2 -2 -2 -2 -2 -2 -2 -2 -1 3 18 54 100 92 44 13 1 -1 -2 -1 0 7 25 61 99 102 76 73 103 
96 46 13 1 -1 -2 -2 -2 -2 -2 -2 -2 -1 3 18 55 101 90 41 11 1 0 1 11 34 75 105 86 43 14 2 -1 -2 -2 -2 -2 -2 -2 -2 -2 -2 -2 -2 -2 -2 -2 -2 -2 -2 -2 -1 0 5 22 61 108 99 54 26 16 12 9 5 3 2 1 1 1 0 0 0 4 18 52 97 97 51 17 3 -1 -2 -2 -2 -2 -2 -2 -2 -2 -2 0 5 25 67 105 81 34 9 0 -1 -1 0 4 17 47 88 105 78 50 59 99 
95 46 13 1 -1 -2 -2 -2 -2 -2 -2 -2 -1 2 14 47 96 96 47 14 2 1 6 24 60 99 99 60 24 6 0 -1 -2 -2 -2 -2 -2 -2 -2 -2 -2 -2 -2 -2 -2 -2 -2 -2 -2 -1 0 2 10 29 68 118 121 85 59 47 41 33 25 18 15 13 12 11 8 6 5 11 31 71 106 83 37 10 1 -1 -2 -2 -2 -2 -2 -2 -2 -2 -1 0 9 34 81 105 67 25 5 0 -1 -1 1 11 35 74 105 89 51 33 52 97 
95 46 13 1 -1 -2 -2 -2 -2 -2 -2 -2 -1 1 11 41 90 101 55 18 4 3 14 43 86 105 75 34 11 1 -1 -2 -2 -2 -2 -2 -2 -2 -2 -2 -2 -2 -2 -2 -2 -2 -2 -2 -1 0 4 11 27 53 93 134 140 120 104 96 90 80 67 56 49 46 44 40 34 26 22 30 55 95 105 64 24 5 0 -2 -2 -2 -2 -2 -2 -2 -2 -2 -1 1 13 44 92 100 54 18 3 0 -1 0 7 25 61 99 99 61 29 23 49 96 
95 46 13 1 -1 -2 -2 -2 -2 -2 -2 -2 -1 0 8 34 80 105 67 26 8 9 27 66 103 91 48 17 4 0 -2 -2 -2 -2 -2 -2 -2 -2 -2 -2 -2 -2 -2 -2 -2 -2 -1 0 1 7 17 35 61 91 115 123 115 104 99 98 101 105 105 101 97 95 93 89 80 69 61 68 94 117 95 46 15 2 -1 -2 -2 -2 -2 -2 -2 -2 -2 -2 -1 3 18 54 100 92 44 13 1 -1 0 4 17 47 88 105 74 35 15 17 47 96 
95 46 13 1 -1 -2 -2 -2 -2 -2 -2 -2 -2 0 5 25 67 105 81 35 14 18 45 89 104 67 28 8 0 -1 -2 -2 -2 -2 -2 -2 -2 -2 -2 -2 -2 -2 -2 -2 -2 -1 0 4 11 25 47 74 99 106 94 73 57 50 48 50 56 67 80 89 93 95 98 101 105 107 107 116 134 131 84 35 10 1 -1 -2 -2 -2 -2 -2 -2 -2 -2 -2 0 5 25 67 105 81 34 9 0 0 1 11 35 74 105 88 47 18 8 15 46 95 
95 46 13 1 -1 -2 -2 -2 -2 -2 -2 -2 -2 -1 3 18 55 101 90 44 22 32 68 104 89 45 15 2 -1 -2 -2 -2 -2 -2 -2 -2 -2 -2 -2 -2 -2 -2 -2 -1 0 1 7 17 35 61 88 105 99 75 49 29 19 15 14 15 18 25 33 40 44 46 49 56 67 82 95 112 133 131 85 36 11 1 -1 -2 -2 -2 -2 -2 -2 -2 -2 -1 0 9 34 81 105 67 25 6 0 0 7 25 61 99 99 61 25 8 4 14 46 95 
95 46 13 1 -1 -2 -2 -2 -2 -2 -2 -2 -2 -1 2 14 47 96 97 54 34 52 92 103 66 27 7 0 -1 -2 -2 -2 -2 -2 -2 -2 -2 -2 -2 -2 -2 -2 -1 0 3 10 24 46 74 99 105 88 61 35 17 8 4 2 2 2 3 5 8 11 12 13 15 18 25 35 46 63 92 117 97 52 20 6 1 0 -1 -1 -1 -1 -1 -1 -1 0 2 14 44 92 100 54 18 3 0 4 17 47 88 105 74 35 11 2 2 13 46 95 
95 46 13 1 -1 -2 -2 -2 -2 -2 -2 -2 -2 -1 1 11 41 90 104 69 56 80 106 87 43 14 2 -1 -2 -2 -2 -2 -2 -2 -2 -2 -2 -2 -2 -2 -2 -1 0 4 14 32 59 88 105 99 74 47 25 11 4 0 0 -1 -1 -1 -1 0 0 1 1 1 2 3 6 9 15 26 52 92 108 80 42 19 8 4 2 1 1 1 1 1 1 3 7 21 57 101 93 45 14 3 2 11 35 74 105 88 47 17 4 0 2 13 46 95 
95 46 13 1 -1 -2 -2 -2 -2 -2 -2 -2 -2 -1 0 8 33 81 111 92 87 105 100 60 24 6 0 -1 -2 -2 -2 -2 -2 -2 -2 -2 -2 -2 -2 -1 0 1 7 18 38 69 98 105 89 61 35 17 7 1 0 -1 -2 -2 -2 -2 -2 -2 -1 -1 -1 -1 -1 -1 0 0 3 9 27 62 103 110 81 50 30 20 15 14 13 13 13 13 13 15 21 39 77 112 87 39 12 4 8 25 61 99 99 61 25 7 0 0 1 13 46 95 
95 46 13 1 -1 -2 -2 -2 -2 -2 -2 -2 -2 -2 0 5 25 67 113 119 116 110 75 34 11 1 -1 -2 -2 -2 -2 -2 -2 -2 -2 -2 -2 -2 -1 0 4 11 25 47 76 102 102 76 47 25 11 4 0 -1 -2 -2 -2 -2 -2 -2 -2 -2 -2 -2 -2 -2 -2 -2 -2 -1 0 2 12 37 82 124 125 98 73 57 50 47 46 46 46 46 46 48 55 75 110 125 86 40 16 10 20 47 89 105 74 35 11 1 -1 -1 1 13 46 95 
95 46 13 1 -1 -2 -2 -2 -2 -2 -2 -2 -2 -2 -1 3 18 55 110 137 128 93 47 17 4 0 -2 -2 -2 -2 -2 -2 -2 -2 -2 -2 -1 0 1 7 17 35 61 89 105 98 69 38 18 7 1 0 -1 -2 -2 -2 -2 -2 -2 -2 -2 -2 -2 -2 -2 -2 -2 -2 -2 -2 -1 0 6 24 64 120 142 128 112 103 98 96 96 95 95 95 96 97 103 116 137 138 101 60 35 28 43 77 106 89 47 17 4 0 -1 -1 1 13 46 95 
95 46 13 1 -1 -2 -2 -2 -2 -2 -2 -2 -2 -2 -1 2 14 48 106 141 118 67 27 7 0 -1 -2 -2 -2 -2 -2 -2 -2 -2 -2 -1 0 3 11 25 46 74 99 105 88 59 32 14 4 0 -1 -2 -2 -2 -2 -2 -2 -2 -2 -2 -2 -2 -2 -2 -2 -2 -2 -2 -2 -2 -2 0 4 21 60 113 123 101 91 92 94 95 95 95 95 95 95 96 98 103 114 124 117 97 75 67 81 108 103 62 25 7 0 -1 -2 -1 1 13 46 95 
95 46 13 1 -1 -2 -2 -2 -2 -2 -2 -2 -2 -2 -1 1 13 45 103 133 95 44 14 2 -1 -2 -2 -2 -2 -2 -2 -2 -2 -1 0 1 6 16 34 60 89 105 100 75 47 25 10 3 0 -1 -2 -2 -2 -2 -2 -2 -2 -2 -2 -2 -2 -2 -2 -2 -2 -2 -2 -2 -2 -2 -2 0 6 25 68 110 95 59 44 43 44 45 46 46 46 46 46 46 47 49 57 72 92 106 111 114 125 124 85 39 13 2 -1 -2 -2 -1 1 13 46 95 
95 46 13 1 -1 -2 -2 -2 -2 -2 -2 -2 -2 -2 -1 1 13 45 100 118 72 28 7 0 -1 -2 -2 -2 -2 -2 -1 -1 0 1 4 11 24 45 75 102 109 92 64 37 19 8 2 0 -1 -2 -2 -2 -2 -2 -2 -2 -2 -2 -2 -2 -2 -2 -2 -2 -2 -2 -2 -2 -2 -2 -1 0 8 33 80 107 72 33 17 13 13 13 13 13 13 13 13 13 13 15 19 28 45 67 93 120 141 127 75 31 9 0 -1 -2 -2 -1 1 13 46 95 
95 46 13 1 -1 -2 -2 -2 -2 -2 -2 -2 -2 -2 -1 1 13 46 98 105 56 19 3 0 -2 -2 -2 -2 -1 -1 0 2 5 11 20 35 60 92 118 119 94 63 39 23 12 6 2 0 0 -1 -1 -1 -1 -2 -2 -2 -2 -2 -2 -2 -2 -2 -2 -2 -2 -2 -2 -2 -2 -2 -1 1 11 40 89 101 57 20 6 2 1 1 1 1 1 1 1 1 1 2 3 7 15 28 48 79 115 124 85 39 13 2 -1 -2 -2 -1 1 13 46 95 
95 46 13 1 -1 -2 -2 -2 -2 -2 -2 -2 -2 -2 -1 2 15 49 98 97 47 14 2 -1 -2 -2 -1 -1 0 2 7 14 24 37 55 78 108 133 141 122 91 67 51 38 27 18 13 9 5 3 2 1 0 0 -1 -1 -1 -2 -2 -2 -2 -2 -2 -2 -2 -2 -2 -2 -2 -2 -1 1 13 45 94 97 49 15 2 0 -1 -1 -1 -1 -1 -1 -1 -1 -1 -1 0 0 2 8 18 39 73 107 103 62 25 7 0 -1 -2 -1 1 13 46 95 
95 46 13 1 -1 -2 -2 -2 -2 -2 -2 -2 -2 -2 -1 3 18 56 101 90 41 12 1 -1 -1 0 1 3 7 15 26 43 63 83 99 111 118 121 124 121 111 101 92 81 67 54 44 34 25 18 14 11 8 5 3 1 0 0 -1 -1 -1 -1 -2 -2 -2 -2 -2 -2 -2 -2 -1 2 15 49 97 94 45 13 1 -1 -2 -2 -2 -2 -2 -2 -2 -2 -2 -2 -2 -1 -1 0 5 15 39 77 106 89 47 17 4 0 -1 -1 1 13 46 95 
95 46 13 1 -1 -2 -2 -2 -2 -2 -2 -2 -2 -2 0 5 25 67 105 80 34 9 1 0 2 5 10 17 28 45 66 88 103 105 98 85 72 66 71 82 91 96 101 105 105 100 92 81 67 55 47 41 34 25 18 13 9 5 3 2 1 0 0 -1 -1 -1 -2 -2 -2 -2 0 3 18 56 101 89 40 11 1 -1 -2 -2 -2 -2 -2 -2 -2 -2 -2 -2 -2 -2 -2 -1 0 5 18 47 89 105 74 35 11 1 -1 -1 1 13 46 95 
95 46 13 1 -1 -2 -2 -2 -2 -2 -2 -2 -2 -1 0 8 34 80 105 68 26 8 4 7 14 24 37 51 70 90 104 104 90 70 52 38 27 23 26 34 41 47 55 67 81 92 100 105 105 101 96 90 80 67 54 44 34 25 18 14 11 8 5 3 1 0 0 -1 -1 -1 0 6 25 67 105 80 33 8 0 -1 -2 -2 -2 -2 -2 -2 -2 -2 -2 -2 -2 -2 -2 -2 -1 0 7 25 61 99 99 61 25 7 0 0 1 13 46 95 
95 46 13 1 -1 -2 -2 -2 -2 -2 -2 -2 -2 -1 1 11 41 90 102 58 23 13 16 27 43 63 82 97 105 103 88 66 45 28 17 11 6 5 6 9 11 14 18 25 34 44 54 67 80 90 96 101 105 105 100 92 81 67 55 47 41 34 25 18 13 9 5 3 2 1 3 10 35 81 105 67 25 5 0 -2 -2 -2 -2 -2 -2 -2 -2 -2 -2 -2 -2 -2 -2 -2 -2 -1 1 11 35 74 105 89 47 18 4 0 2 13 46 95 
95 46 13 1 -1 -2 -2 -2 -2 -2 -2 -2 -2 -1 2 14 47 97 101 58 32 31 45 67 88 103 105 97 82 63 43 26 15 7 3 1 0 0 0 0 1 2 3 5 9 13 18 25 34 41 47 55 67 81 92 100 105 105 101 96 90 80 67 54 44 34 25 18 14 12 12 19 46 92 102 56 18 3 -1 -2 -2 -2 -2 -2 -2 -2 -2 -2 -2 -2 -2 -2 -2 -2 -2 -2 0 4 17 46 88 105 76 38 14 4 3 13 46 95 
95 46 13 1 -1 -2 -2 -2 -2 -2 -2 -2 -2 0 3 19 56 106 107 72 59 70 90 104 104 90 70 51 37 24 14 7 2 0 -1 -1 -1 -2 -2 -1 -1 -1 -1 0 0 1 3 5 8 11 14 18 25 34 44 54 67 80 90 96 101 105 105 100 92 81 67 55 48 42 37 40 63 103 99 49 15 2 -1 -2 -2 -2 -2 -2 -2 -2 -2 -2 -2 -2 -2 -2 -2 -2 -2 -2 -1 0 7 24 59 98 102 69 32 11 5 14 46 95 
95 46 13 1 -1 -2 -2 -2 -2 -2 -2 -2 -1 0 7 28 72 121 124 103 100 106 104 89 67 45 28 17 10 5 2 0 -1 -1 -2 -2 -2 -2 -2 -2 -2 -2 -2 -2 -1 -1 -1 0 0 1 2 3 5 9 13 18 25 34 41 47 55 67 81 92 100 105 105 101 96 91 84 81 95 121 101 46 13 1 -1 -2 -2 -2 -2 -2 -2 -2 -2 -2 -2 -2 -2 -2 -2 -2 -2 -2 -2 -1 1 10 32 69 102 98 60 26 11 16 47 96 
95 46 13 1 -1 -2 -2 -2 -2 -2 -2 -2 -1 2 14 44 96 138 137 120 106 89 66 44 27 15 7 3 1 0 -1 -1 -2 -2 -2 -2 -2 -2 -2 -2 -2 -2 -2 -2 -2 -2 -2 -2 -1 -1 -1 -1 0 0 1 3 5 8 11 14 18 25 34 44 54 67 80 90 96 101 108 115 129 140 103 45 13 1 -1 -2 -2 -2 -2 -2 -2 -2 -2 -2 -2 -2 -2 -2 -2 -2 -2 -2 -2 -2 0 3 14 38 76 105 88 48 22 20 48 96 
95 46 13 1 -1 -2 -2 -2 -2 -2 -2 -1 0 7 27 67 114 128 109 85 63 43 26 14 7 2 0 -1 -1 -2 -2 -2 -2 -2 -2 -2 -2 -2 -2 -2 -2 -2 -2 -2 -2 -2 -2 -2 -2 -2 -2 -2 -2 -1 -1 -1 0 0 1 2 3 5 9 13 18 25 34 41 47 56 70 91 119 137 103 45 13 1 -1 -2 -2 -2 -2 -2 -2 -2 -2 -2 -2 -2 -2 -2 -2 -2 -2 -2 -2 -2 -1 0 4 18 47 88 105 77 42 30 51 97 
96 46 13 1 -1 -2 -2 -2 -2 -2 -2 0 4 17 48 92 112 89 58 38 24 14 7 2 0 -1 -1 -2 -2 -2 -2 -2 -2 -2 -2 -2 -2 -2 -2 -2 -2 -2 -2 -2 -2 -2 -2 -2 -2 -2 -2 -2 -2 -2 -2 -2 -2 -1 -1 -1 -1 0 0 1 3 5 8 11 14 19 29 48 81 117 99 45 13 1 -1 -2 -2 -2 -2 -2 -2 -2 -2 -2 -2 -2 -2 -2 -2 -2 -2 -2 -2 -2 -2 -1 0 7 25 59 98 102 72 48 59 99 
96 46 13 1 -1 -2 -2 -2 -2 -2 -1 1 11 35 75 106 91 52 25 12 6 2 0 -1 -1 -2 -2 -2 -2 -2 -2 -2 -2 -2 -2 -2 -2 -2 -2 -2 -2 -2 -2 -2 -2 -2 -2 -2 -2 -2 -2 -2 -2 -2 -2 -2 -2 -2 -2 -2 -2 -2 -1 -1 -1 0 0 1 2 4 9 24 58 103 97 46 13 1 -1 -2 -2 -2 -2 -2 -2 -2 -2 -2 -2 -2 -2 -2 -2 -2 -2 -2 -2 -2 -2 -2 -1 1 10 32 69 102 101 75 72 103 
97 46 13 1 -1 -2 -2 -2 -2 -1 0 7 25 61 99 99 61 26 9 2 0 -1 -1 -2 -2 -2 -2 -2 -2 -2 -2 -2 -2 -2 -2 -2 -2 -2 -2 -2 -2 -2 -2 -2 -2 -2 -2 -2 -2 -2 -2 -2 -2 -2 -2 -2 -2 -2 -2 -2 -2 -2 -2 -2 -2 -2 -1 -1 -1 0 3 16 49 97 97 47 14 2 -1 -2 -2 -2 -2 -2 -2 -2 -2 -2 -2 -2 -2 -2 -2 -2 -2 -2 -2 -2 -2 -2 -2 0 3 14 38 76 107 102 93 111 
99 45 13 1 -1 -2 -2 -2 -1 0 4 18 47 89 105 75 35 12 2 0 -1 -2 -2 -2 -2 -2 -2 -2 -2 -2 -2 -2 -2 -2 -2 -2 -2 -2 -2 -2 -2 -2 -2 -2 -2 -2 -2 -2 -2 -2 -2 -2 -2 -2 -2 -2 -2 -2 -2 -2 -2 -2 -2 -2 -2 -2 -2 -2 -2 -1 2 14 46 96 99 51 16 3 0 -2 -2 -2 -2 -2 -2 -2 -2 -2 -2 -2 -2 -2 -2 -2 -2 -2 -2 -2 -2 -2 -2 -1 0 4 18 47 89 115 116 123 
101 45 13 1 -1 -2 -2 -1 0 3 14 38 77 107 91 50 20 6 0 0 -1 -1 -1 -1 -1 -1 -1 -1 -1 -2 -2 -2 -2 -2 -2 -2 -2 -2 -2 -2 -2 -2 -2 -2 -2 -2 -2 -2 -2 -2 -2 -2 -2 -2 -2 -2 -2 -2 -2 -2 -2 -2 -2 -2 -2 -2 -2 -2 -1 0 3 16 48 98 107 62 24 7 1 -1 -1 -2 -2 -2 -2 -2 -2 -2 -2 -2 -2 -2 -2 -2 -2 -2 -2 -2 -2 -2 -2 -2 -1 0 7 25 61 104 131 136 
102 44 12 1 -1 -2 -1 0 3 13 35 72 108 110 74 39 18 8 4 2 1 1 1 1 1 1 1 1 0 0 -1 -1 -1 -1 -1 -1 -1 -1 -1 -1 -2 -2 -2 -2 -2 -2 -2 -2 -2 -2 -2 -2 -2 -2 -2 -2 -2 -2 -2 -2 -2 -2 -2 -2 -2 -2 -2 -1 0 2 9 24 57 107 124 86 44 20 8 2 0 -1 -2 -2 -2 -2 -2 -2 -2 -2 -2 -2 -2 -2 -2 -2 -2 -2 -2 -2 -2 -2 -2 -1 1 11 34 75 122 141 
102 44 12 1 -1 -1 0 3 13 35 70 112 130 110 78 53 38 26 19 15 14 13 13 13 13 13 12 11 8 5 3 2 1 1 1 1 1 1 1 0 0 -1 -1 -1 -1 -1 -1 -1 -1 -1 -1 -1 -2 -2 -2 -2 -2 -2 -2 -2 -2 -2 -2 -2 -2 -1 -1 0 4 11 25 49 84 124 142 119 81 49 28 14 6 1 0 -1 -2 -2 -2 -2 -2 -2 -2 -2 -2 -2 -2 -2 -2 -2 -2 -2 -2 -2 -2 -2 0 4 17 47 97 133 
100 45 13 1 0 0 3 14 35 70 111 138 139 123 106 94 82 68 56 49 47 46 46 46 46 45 44 40 33 25 18 15 14 13 13 13 13 12 11 8 5 3 2 1 1 1 1 1 1 1 1 0 0 -1 -1 -1 -1 -1 -1 -1 -1 -1 -1 -1 -1 0 2 7 17 35 61 89 111 122 124 122 112 92 67 43 24 11 4 0 -1 -1 -2 -2 -2 -2 -2 -2 -2 -2 -2 -2 -2 -2 -2 -2 -2 -2 -2 -2 -1 0 8 29 73 118 
97 45 13 2 0 4 14 36 70 104 119 116 107 101 100 102 105 105 101 98 96 96 95 95 95 95 93 89 80 67 56 49 47 46 46 46 45 44 40 33 25 18 15 14 13 13 13 13 13 12 11 8 5 3 2 1 1 1 1 1 1 1 0 0 2 6 14 28 48 75 99 106 94 77 69 76 92 105 104 87 60 34 17 7 2 0 -1 -2 -2 -2 -2 -2 -2 -2 -2 -2 -2 -2 -2 -2 -2 -2 -2 -2 -2 0 4 19 57 106 
96 46 14 4 5 15 36 70 101 105 83 61 50 48 49 56 67 80 89 93 95 95 95 95 96 96 98 101 105 105 101 98 96 96 95 95 95 93 89 80 67 56 49 47 46 46 46 46 45 44 40 33 25 18 15 14 13 13 13 13 12 11 9 9 13 25 43 67 91 105 99 75 49 32 25 31 46 68 91 105 99 75 48 28 14 6 1 0 -1 -2 -2 -2 -2 -2 -2 -2 -2 -2 -2 -2 -2 -2 -2 -2 -2 -1 2 15 49 99 
96 47 17 11 19 39 71 101 101 72 41 23 16 14 15 18 25 33 40 44 45 46 46 46 46 47 49 56 67 80 89 93 95 95 95 96 96 98 101 105 105 101 98 96 96 95 95 95 95 93 89 80 67 56 49 47 46 46 46 45 44 41 36 33 41 62 87 104 103 87 60 35 18 9 6 8 15 28 48 75 99 105 91 67 43 24 11 4 0 -1 -1 -2 -2 -2 -2 -2 -2 -2 -2 -2 -2 -2 -2 -2 -2 -1 1 14 47 96 
97 51 26 29 48 77 102 100 70 36 15 6 2 2 2 3 5 8 11 12 13 13 13 13 13 14 15 18 25 33 40 44 45 46 46 46 47 49 56 67 80 89 93 95 95 95 95 96 96 98 101 105 105 101 98 96 96 95 95 95 94 91 86 83 90 105 107 91 67 43 24 11 4 0 0 0 2 8 17 34 60 87 103 103 87 60 34 17 7 2 0 -1 -2 -2 -2 -2 -2 -2 -2 -2 -2 -2 -2 -2 -2 -1 1 13 46 96 
100 61 47 63 89 105 97 67 35 14 4 0 -1 -1 -1 -1 0 0 1 1 1 1 1 1 1 1 2 3 5 8 11 12 13 13 13 13 14 15 18 25 33 40 44 45 46 46 46 46 47 49 56 67 80 89 93 95 95 95 96 96 99 106 119 131 132 113 80 49 28 14 6 1 0 -1 -1 -1 -1 0 4 11 24 43 67 91 105 99 75 48 28 14 6 1 0 -1 -2 -2 -2 -2 -2 -2 -2 -2 -2 -2 -2 -1 1 13 46 96 
109 83 82 101 105 88 59 31 13 3 0 -1 -2 -2 -2 -2 -2 -1 -1 -1 -1 -1 -1 -1 -1 -1 -1 -1 0 0 1 1 1 1 1 1 1 2 3 5 8 11 12 13 13 13 13 13 14 15 18 25 33 40 44 45 46 46 46 47 52 66 97 134 132 86 44 20 8 2 0 -1 -2 -2 -2 -2 -2 -1 0 1 6 14 28 48 75 99 105 91 67 43 24 11 4 0 -1 -1 -2 -2 -2 -2 -2 -2 -2 -2 -2 -1 1 13 46 97 
123 113 112 104 77 47 25 10 2 0 -1 -2 -2 -2 -2 -2 -2 -2 -2 -2 -2 -2 -2 -2 -2 -2 -2 -2 -2 -1 -1 -1 -1 -1 -1 -1 -1 -1 -1 0 0 1 1 1 1 1 1 1 1 2 3 5 8 11 12 13 13 13 13 14 19 32 67 114 113 62 24 7 1 0 -1 -2 -2 -2 -2 -2 -2 -2 -2 -1 0 2 7 17 34 60 87 103 103 87 60 34 17 8 2 0 -1 -1 -2 -2 -2 -2 -2 -2 -2 -1 1 13 45 99 
139 131 107 72 39 18 7 1 0 -1 -2 -2 -2 -2 -2 -2 -2 -2 -2 -2 -2 -2 -2 -2 -2 -2 -2 -2 -2 -2 -2 -2 -2 -2 -2 -2 -2 -2 -2 -2 -1 -1 -1 -1 -1 -1 -1 -1 -1 -1 -1 0 0 1 1 1 1 1 1 2 6 19 52 102 101 51 16 3 0 -2 -2 -2 -2 -2 -2 -2 -2 -2 -2 -2 -1 -1 0 4 11 24 43 67 91 105 99 75 48 28 15 7 2 0 -1 -2 -2 -2 -2 -2 -2 -1 1 13 45 102 
140 116 73 36 15 5 0 -1 -2 -2 -2 -2 -2 -2 -2 -2 -2 -2 -2 -2 -2 -2 -2 -2 -2 -2 -2 -2 -2 -2 -2 -2 -2 -2 -2 -2 -2 -2 -2 -2 -2 -2 -2 -2 -2 -2 -2 -2 -2 -2 -2 -2 -1 -1 -1 -1 -1 -1 -1 0 2 14 47 97 97 47 14 2 -1 -2 -2 -2 -2 -2 -2 -2 -2 -2 -2 -2 -2 -2 -1 0 1 6 14 28 48 75 99 105 91 67 45 27 14 6 1 0 -1 -2 -2 -2 -2 -1 1 12 45 103 
124 84 40 15 4 0 -1 -2 -2 -2 -2 -2 -2 -2 -2 -2 -2 -2 -2 -2 -2 -2 -2 -2 -2 -2 -2 -2 -2 -2 -2 -2 -2 -2 -2 -2 -2 -2 -2 -2 -2 -2 -2 -2 -2 -2 -2 -2 -2 -2 -2 -2 -2 -2 -2 -2 -2 -2 -2 -1 1 13 46 96 96 46 13 1 -1 -2 -2 -2 -2 -2 -2 -2 -2 -2 -2 -2 -2 -2 -2 -2 -1 0 2 7 17 34 60 86 103 104 89 66 43 24 11 4 0 0 -1 -1 -1 -1 1 13 45 101 
108 61 23 6 0 -1 -2 -2 -2 -2 -2 -2 -2 -2 -2 -2 -2 -2 -2 -2 -2 -2 -2 -2 -2 -2 -2 -2 -2 -2 -2 -2 -2 -2 -2 -2 -2 -2 -2 -2 -2 -2 -2 -2 -2 -2 -2 -2 -2 -2 -2 -2 -2 -2 -2 -2 -2 -2 -2 -1 1 13 46 95 95 46 13 1 -1 -2 -2 -2 -2 -2 -2 -2 -2 -2 -2 -2 -2 -2 -2 -2 -2 -1 -1 0 4 11 24 43 66 89 104 103 87 60 34 17 8 3 1 0 0 0 2 13 46 98 
100 51 16 2 -1 -2 -2 -2 -2 -2 -2 -2 -2 -2 -2 -2 -2 -2 -2 -2 -2 -2 -2 -2 -2 -2 -2 -2 -2 -2 -2 -2 -2 -2 -2 -2 -2 -2 -2 -2 -2 -2 -2 -2 -2 -2 -2 -2 -2 -2 -2 -2 -2 -2 -2 -2 -2 -2 -2 -1 1 13 46 95 95 46 13 1 -1 -2 -2 -2 -2 -2 -2 -2 -2 -2 -2 -2 -2 -2 -2 -2 -2 -2 -2 -1 0 1 6 14 27 45 68 92 107 101 75 48 29 18 13 9 6 4 5 16 48 97 
97 47 14 2 -1 -2 -2 -2 -2 -2 -2 -2 -2 -2 -2 -2 -2 -2 -2 -2 -2 -2 -2 -2 -2 -2 -2 -2 -2 -2 -2 -2 -2 -2 -2 -2 -2 -2 -2 -2 -2 -2 -2 -2 -2 -2 -2 -2 -2 -2 -2 -2 -2 -2 -2 -2 -2 -2 -2 -1 1 13 46 95 95 46 13 1 -1 -2 -2 -2 -2 -2 -2 -2 -2 -2 -2 -2 -2 -2 -2 -2 -2 -2 -2 -2 -1 -1 0 3 8 17 31 54 84 112 117 97 73 55 44 34 25 19 17 25 54 99 
98 47 14 2 0 -1 -1 -1 -1 -2 -2 -2 -2 -2 -2 -2 -2 -2 -2 -2 -2 -2 -2 -2 -2 -2 -2 -2 -2 -2 -2 -2 -2 -2 -2 -2 -2 -2 -2 -2 -2 -2 -2 -2 -2 -2 -2 -2 -2 -2 -2 -2 -2 -2 -2 -2 -2 -2 -2 -1 1 13 46 95 95 46 13 1 -1 -2 -2 -2 -2 -2 -2 -2 -2 -2 -2 -2 -2 -2 -2 -2 -2 -2 -2 -2 -1 -1 0 1 4 11 21 38 66 104 134 138 122 105 93 81 67 55 48 50 71 108 
103 49 17 5 2 1 1 1 0 0 -1 -1 -1 -1 -1 -1 -1 -2 -2 -2 -2 -2 -2 -2 -2 -2 -2 -2 -2 -2 -2 -2 -2 -2 -2 -2 -2 -2 -2 -2 -2 -2 -2 -2 -2 -2 -2 -2 -2 -2 -2 -2 -2 -2 -2 -2 -2 -2 -2 -1 1 13 46 95 95 46 13 1 -1 -2 -2 -2 -2 -2 -2 -2 -2 -2 -2 -2 -2 -2 -2 -2 -2 -2 -1 -1 0 1 3 7 14 25 40 58 83 112 130 126 113 104 103 106 105 100 95 94 106 126 
113 59 28 17 14 13 12 11 8 5 3 2 1 1 1 1 0 0 -1 -1 -1 -1 -1 -1 -1 -1 -2 -2 -2 -2 -2 -2 -2 -2 -2 -2 -2 -2 -2 -2 -2 -2 -2 -2 -2 -2 -2 -2 -2 -2 -2 -2 -2 -2 -2 -2 -2 -2 -2 -1 1 13 46 95 95 46 13 1 -1 -2 -2 -2 -2 -2 -2 -2 -2 -2 -2 -2 -2 -2 -2 -2 -1 -1 0 2 5 10 17 28 44 64 83 98 108 107 93 72 58 53 57 68 81 92 102 114 132 144 
129 86 59 49 46 45 44 40 33 25 18 15 14 13 12 11 8 5 3 2 1 1 1 1 1 0 0 -1 -1 -1 -1 -1 -1 -1 -2 -2 -2 -2 -2 -2 -2 -2 -2 -2 -2 -2 -2 -2 -2 -2 -2 -2 -2 -2 -2 -2 -2 -2 -2 -1 1 13 46 95 95 46 13 1 -1 -2 -2 -2 -2 -2 -2 -2 -2 -2 -2 -2 -2 -1 -1 0 1 3 7 14 24 37 51 70 89 103 105 97 83 63 44 28 19 17 19 25 35 44 57 77 110 142 
145 125 106 98 96 95 93 89 80 67 56 49 47 45 44 40 33 25 18 15 14 13 13 12 11 8 5 3 2 1 1 1 1 0 0 -1 -1 -1 -1 -1 -1 -1 -1 -2 -2 -2 -2 -2 -2 -2 -2 -2 -2 -2 -2 -2 -2 -2 -2 -1 1 13 46 95 95 46 13 1 -1 -2 -2 -2 -2 -2 -2 -2 -2 -2 -2 -1 -1 0 2 5 10 17 28 44 63 82 97 105 103 89 70 51 37 24 14 7 3 2 3 5 9 14 21 38 74 125 
141 125 106 98 96 96 98 101 105 105 101 98 96 95 93 89 80 67 56 49 47 46 45 44 40 33 25 18 15 14 13 12 11 8 5 3 2 1 1 1 1 1 0 0 -1 -1 -1 -1 -1 -1 -1 -2 -2 -2 -2 -2 -2 -2 -2 -1 1 13 46 95 95 46 13 1 -1 -2 -2 -2 -2 -2 -2 -2 -2 -1 -1 0 2 7 14 24 37 51 70 89 103 105 97 82 63 44 28 17 10 5 2 0 0 -1 -1 0 0 2 7 20 55 111 
120 87 60 50 47 47 49 56 67 80 89 93 95 96 98 101 105 105 101 98 96 95 95 93 89 80 67 56 49 47 45 44 40 33 25 18 15 14 13 13 12 11 8 5 3 2 1 1 1 1 0 0 -1 -1 -1 -1 -1 -1 -1 0 2 13 46 95 95 46 13 1 -1 -2 -2 -2 -2 -2 -1 -1 0 1 3 7 15 26 43 63 82 97 105 103 89 70 51 37 24 14 7 3 1 0 -1 -1 -2 -2 -2 -2 -1 0 2 15 48 102 
104 60 29 17 14 14 15 18 25 33 40 44 45 47 49 56 67 80 89 93 95 95 96 98 101 105 105 101 98 96 95 93 89 80 67 56 49 47 46 45 44 40 33 25 18 15 14 13 12 11 8 5 3 2 1 1 1 1 1 1 3 14 47 96 96 46 13 1 -1 -2 -2 -2 -1 -1 0 2 5 10 17 28 45 66 88 103 105 97 82 63 44 28 17 10 5 2 0 -1 -1 -2 -2 -2 -2 -2 -2 -2 -2 -1 1 13 46 97 
98 50 17 5 2 2 2 3 5 8 11 12 13 14 15 18 25 33 40 44 45 46 47 49 56 67 80 89 93 95 96 98 101 105 105 101 98 96 95 95 93 89 80 67 56 49 47 45 44 40 33 25 18 15 14 13 13 12 11 9 10 19 50 98 97 47 14 2 -1 -1 -1 0 1 3 7 14 24 37 51 70 90 104 104 90 70 51 37 24 14 7 3 1 0 -1 -1 -2 -2 -2 -2 -2 -2 -2 -2 -2 -2 -1 1 13 46 96 
96 47 14 2 0 -1 -1 -1 0 0 1 1 1 1 2 3 5 8 11 12 13 13 14 15 18 25 33 40 44 45 47 49 56 67 80 89 93 95 95 96 98 101 105 105 101 98 96 95 93 89 80 67 56 49 47 46 45 44 40 34 29 34 62 106 102 51 16 3 0 0 2 5 10 17 28 44 63 82 97 105 103 88 66 45 28 17 10 5 2 0 -1 -1 -2 -2 -2 -2 -2 -2 -2 -2 -2 -2 -2 -2 -2 -1 1 13 46 95 
95 46 13 1 -1 -2 -2 -2 -2 -1 -1 -1 -1 -1 -1 -1 0 0 1 1 1 1 1 2 3 5 8 11 12 13 14 15 18 25 33 40 44 45 46 47 49 56 67 80 89 93 95 96 98 101 105 105 101 98 96 95 95 93 89 81 71 69 90 124 114 62 25 9 5 8 14 24 37 51 70 89 103 105 97 82 63 43 26 15 7 3 1 0 -1 -1 -2 -2 -2 -2 -2 -2 -2 -2 -2 -2 -2 -2 -2 -2 -2 -1 1 13 46 95 
95 46 13 1 -1 -2 -2 -2 -2 -2 -2 -2 -2 -2 -2 -2 -2 -1 -1 -1 -1 -1 -1 -1 -1 0 0 1 1 1 1 2 3 5 8 11 12 13 13 14 15 18 25 33 40 44 45 47 49 56 67 80 89 93 95 95 96 98 101 105 107 109 122 141 132 87 46 26 22 29 44 63 82 97 105 103 89 70 51 37 24 14 7 2 0 -1 -1 -2 -2 -2 -2 -2 -2 -2 -2 -2 -2 -2 -2 -2 -2 -2 -2 -2 -2 -1 1 13 46 95 
95 46 13 1 -1 -2 -2 -2 -2 -2 -2 -2 -2 -2 -2 -2 -2 -2 -2 -2 -2 -2 -2 -2 -2 -2 -1 -1 -1 -1 -1 -1 -1 0 0 1 1 1 1 1 2 3 5 8 11 12 13 14 15 18 25 33 40 44 45 46 47 49 56 67 81 91 102 116 126 115 87 66 62 73 90 103 105 97 82 63 44 28 17 10 5 2 0 -1 -1 -2 -2 -2 -2 -2 -2 -2 -2 -2 -2 -2 -2 -2 -2 -2 -2 -2 -2 -2 -2 -1 1 13 46 95 
95 46 13 1 -1 -2 -2 -2 -2 -2 -2 -2 -2 -2 -2 -2 -2 -2 -2 -2 -2 -2 -2 -2 -2 -2 -2 -2 -2 -2 -2 -2 -2 -2 -1 -1 -1 -1 -1 -1 -1 -1 0 0 1 1 1 1 2 3 5 8 11 12 13 13 14 15 18 25 34 41 49 61 86 115 127 120 112 110 104 90 70 51 37 24 14 7 3 1 0 -1 -1 -2 -2 -2 -2 -2 -2 -2 -2 -2 -2 -2 -2 -2 -2 -2 -2 -2 -2 -2 -2 -2 -2 -1 1 13 46 95 
95 46 13 1 -1 -2 -2 -2 -2 -2 -2 -2 -2 -2 -2 -2 -2 -2 -2 -2 -2 -2 -2 -2 -2 -2 -2 -2 -2 -2 -2 -2 -2 -2 -2 -2 -2 -2 -2 -2 -2 -2 -1 -1 -1 -1 -1 -1 -1 0 0 0 1 1 1 1 2 2 3 6 9 12 15 24 46 87 132 140 116 89 65 44 28 17 10 5 2 0 0 -1 -1 -2 -2 -2 -2 -2 -2 -2 -2 -2 -2 -2 -2 -2 -2 -2 -2 -2 -2 -2 -2 -2 -2 -2 -2 -1 1 13 46 95 
96 47 14 2 0 -1 -1 -1 -1 -1 -1 -1 -1 -1 -1 -1 -1 -1 -1 -1 -1 -1 -1 -1 -1 -1 -1 -1 -1 -1 -1 -1 -1 -1 -1 -1 -1 -1 -1 -1 -1 -1 -1 -1 -1 -1 -1 -1 -1 -1 -1 0 0 0 0 0 0 0 0 0 1 2 4 9 25 63 115 122 82 48 27 15 8 4 1 0 0 0 -1 -1 -1 -1 -1 -1 -1 -1 -1 -1 -1 -1 -1 -1 -1 -1 -1 -1 -1 -1 -1 -1 -1 -1 -1 -1 -1 0 2 14 47 96 
98 49 17 5 2 1 1 1 1 1 1 1 1 1 1 1 1 1 1 1 1 1 1 1 1 1 1 1 1 1 1 1 1 1 1 1 1 1 1 1 1 1 1 1 1 1 1 1 1 1 1 1 1 1 1 1 1 1 1 2 2 2 3 7 20 55 105 108 61 28 13 7 4 3 2 2 1 1 1 1 1 1 1 1 1 1 1 1 1 1 1 1 1 1 1 1 1 1 1 1 1 1 1 1 1 2 5 17 49 98 
106 60 29 17 14 13 13 13 13 13 13 13 13 13 13 13 13 13 13 13 13 13 13 13 13 13 13 13 13 13 13 13 13 12 13 13 13 13 13 13 13 13 13 13 13 13 13 13 13 13 13 13 13 13 13 13 13 13 13 13 13 13 14 18 30 61 108 108 63 32 19 15 14 13 13 13 13 13 13 13 13 13 13 13 13 13 13 13 13 13 13 13 12 13 13 13 13 13 13 13 13 13 13 13 13 13 17 29 60 106 
125 87 60 49 47 46 46 46 46 46 46 46 46 46 46 46 46 46 46 46 46 46 46 46 46 46 46 46 46 46 46 45 45 45 45 45 46 46 46 46 46 46 46 46 46 46 46 46 45 45 45 45 46 46 46 46 46 46 46 46 46 46 47 50 60 87 125 125 87 60 50 47 46 46 46 46 46 46 46 46 46 46 46 46 46 46 46 46 46 46 45 45 45 45 45 46 46 46 46 46 46 46 45 45 45 46 49 59 87 125 
153 125 106 98 96 95 95 95 95 95 95 95 95 95 95 95 95 95 95 95 95 95 95 95 95 95 95 95 95 96 97 99 102 103 101 98 96 96 95 95 95 95 95 95 95 95 96 97 100 103 103 99 97 96 95 95 95 95 95 95 95 95 96 98 104 119 139 139 119 104 98 96 95 95 95 95 95 95 95 95 95 95 95 95 95 95 95 95 96 96 98 101 103 101 98 96 96 95 95 95 96 96 98 101 103 102 101 107 126 153 
