P2
110 110
255
148 126 108 99 95 95 94 94 94 94 94 94 94 94 94 94 94 94 94 94 94 94 94 94 94 94 94 95 96 100 108 122 133 132 119 107 99 96 95 94 94 94 94 94 95 95 98 106 119 133 133 118 105 98 95 94 94 94 94 94 94 94 94 95 96 98 100 100 98 96 95 94 94 94 94 94 94 94 94 94 94 94 94 94 94 94 94 95 98 104 117 131 134 122 108 100 96 95 95 95 97 102 114 129 135 125 114 113 128 149 
126 95 70 58 54 52 52 52 52 52 52 52 52 52 52 52 52 52 52 52 52 52 52 52 52 52 52 54 57 66 85 112 129 117 90 69 58 54 53 52 52 52 52 52 53 54 59 73 99 128 125 95 70 58 54 52 52 52 52 52 52 52 52 52 51 50 50 50 50 51 52 52 52 52 52 52 52 52 52 52 52 52 52 52 52 52 53 54 60 73 99 126 124 97 73 60 54 53 52 53 57 68 91 121 128 104 81 78 98 127 
108 70 39 25 21 19 19 19 19 19 19 19 19 19 19 19 19 19 19 19 19 19 19 19 19 19 20 23 29 45 74 106 112 84 52 32 24 20 19 19 19 19 19 19 20 22 29 46 81 117 109 69 39 25 21 19 19 19 19 19 19 19 19 19 19 18 18 18 18 19 19 19 19 19 19 19 19 19 19 19 19 19 19 19 19 19 20 23 31 52 87 114 99 63 37 25 21 20 20 21 26 40 70 107 109 75 49 47 72 108 
99 58 25 11 6 5 5 5 5 5 5 5 5 5 5 5 5 5 5 5 5 5 5 5 5 5 7 12 24 48 83 106 90 54 27 13 7 5 5 5 5 5 5 5 6 9 19 41 81 117 101 56 24 11 6 5 5 5 5 5 5 5 5 5 4 4 4 4 4 4 5 5 5 5 5 5 5 5 5 5 5 5 5 5 5 5 6 11 23 50 89 106 76 39 18 9 6 5 5 7 14 31 66 103 95 56 31 32 59 99 
95 54 21 6 2 0 0 0 0 0 0 0 0 0 0 0 0 0 0 0 0 0 0 0 0 1 5 14 33 66 98 97 65 32 13 4 1 0 0 0 0 0 0 1 2 8 21 50 95 124 100 51 20 6 2 0 0 0 0 0 0 0 0 0 0 0 0 0 0 0 0 0 0 0 0 0 0 0 0 0 0 0 0 0 0 1 3 9 26 59 97 96 58 25 9 2 1 0 1 3 12 33 73 103 83 43 22 26 55 96 
95 52 19 5 0 0 0 -1 -1 -1 -1 -1 -1 -1 -1 -1 -1 -1 -1 -1 -1 -1 0 0 0 2 8 24 53 89 102 77 41 17 5 1 0 0 -1 -1 -1 0 0 0 3 12 32 69 113 132 101 51 19 5 0 0 0 -1 -1 -1 -1 -1 -1 -1 -1 -1 -1 -1 -1 -1 -1 -1 -1 -1 -1 -1 -1 -1 -1 -1 -1 -1 -1 0 0 0 3 13 35 74 102 83 43 16 4 0 0 0 0 3 14 41 82 102 71 33 17 23 53 95 
94 52 19 5 0 0 -1 -1 -1 -1 -1 -1 -1 -1 -1 -1 -1 -1 -1 -1 -1 -1 -1 0 0 5 17 41 77 102 88 52 23 8 1 0 -1 -1 -1 -1 -1 -1 0 1 6 20 49 91 126 134 103 54 21 5 0 0 -1 -1 -1 -1 -1 -1 -1 -1 -1 -1 -1 -1 -1 -1 -1 -1 -1 -1 -1 -1 -1 -1 -1 -1 -1 -1 -1 -1 0 0 6 20 50 89 100 67 30 10 2 0 -1 0 0 5 19 50 91 98 60 26 14 22 53 94 
94 52 19 5 0 -1 -1 -1 -1 -1 -1 -1 -1 -1 -1 -1 -1 -1 -1 -1 -1 -1 -1 0 3 12 31 65 97 97 65 31 12 3 0 -1 -1 -1 -1 -1 -1 -1 0 3 13 34 71 107 124 127 106 61 25 7 1 0 -1 -1 -1 -1 -1 -1 -1 -1 -1 -1 -1 -1 -1 -1 -1 -1 -1 -1 -1 -1 -1 -1 -1 -1 -1 -1 -1 -1 0 2 10 30 67 100 89 50 20 5 0 0 -1 0 1 7 24 60 98 91 50 20 11 21 52 94 
94 52 19 5 0 -1 -1 -1 -1 -1 -1 -1 -1 -1 -1 -1 -1 -1 -1 -1 -1 -1 0 1 8 23 52 88 101 77 41 17 5 0 0 -1 -1 -1 -1 -1 -1 0 1 8 24 54 92 110 107 111 108 71 31 10 2 0 -1 -1 -1 -1 -1 -1 -1 -1 -1 -1 -1 -1 -1 -1 -1 -1 -1 -1 -1 -1 -1 -1 -1 -1 -1 -1 -1 -1 0 4 16 43 83 102 73 35 12 3 0 -1 -1 0 2 10 31 71 102 82 41 16 10 20 52 94 
94 52 19 5 0 -1 -1 -1 -1 -1 -1 -1 -1 -1 -1 -1 -1 -1 -1 -1 -1 0 0 5 17 41 77 101 88 52 23 8 1 0 -1 -1 -1 -1 -1 -1 0 0 5 16 41 77 104 97 82 92 107 80 38 13 3 0 -1 -1 -1 -1 -1 -1 -1 -1 -1 -1 -1 -1 -1 -1 -1 -1 -1 -1 -1 -1 -1 -1 -1 -1 -1 -1 -1 0 1 7 24 57 95 95 57 24 7 1 0 -1 -1 0 3 14 40 82 102 71 32 12 8 20 52 94 
95 53 19 5 0 -1 -1 -1 -1 -1 -1 -1 -1 -1 -1 -1 -1 -1 -1 -1 -1 0 3 12 31 65 97 97 65 31 12 3 0 -1 -1 -1 -1 -1 -1 -1 0 2 11 30 63 97 99 73 58 75 103 88 45 16 4 0 -1 -1 -1 -1 -1 -1 -1 -1 -1 -1 -1 -1 -1 -1 -1 -1 -1 -1 -1 -1 -1 -1 -1 -1 -1 -1 -1 0 3 12 35 73 102 83 43 16 4 0 -1 -1 0 0 5 18 50 91 98 60 25 9 7 20 52 94 
96 54 20 5 0 0 -1 -1 -1 -1 -1 -1 -1 -1 -1 -1 -1 -1 -1 -1 0 1 8 23 52 88 101 77 41 17 5 0 0 -1 -1 -1 -1 -1 -1 0 0 6 20 48 86 102 79 49 40 63 98 92 49 18 4 0 -1 -1 -1 -1 -1 -1 -1 -1 -1 -1 -1 -1 -1 -1 -1 -1 -1 -1 -1 -1 -1 -1 -1 -1 -1 -1 0 0 5 20 50 89 100 67 30 10 2 0 -1 -1 0 1 7 24 60 98 91 50 19 6 6 19 52 94 
99 58 23 7 1 0 -1 -1 -1 -1 -1 -1 -1 -1 -1 -1 -1 -1 -1 0 0 5 17 41 77 101 88 52 23 8 1 0 -1 -1 -1 -1 -1 -1 -1 0 3 12 33 69 100 91 56 31 30 56 95 94 52 19 5 0 -1 -1 -1 -1 -1 -1 -1 -1 -1 -1 -1 -1 -1 -1 -1 -1 -1 -1 -1 -1 -1 -1 -1 -1 -1 -1 0 2 10 30 67 100 89 50 20 5 0 0 -1 -1 0 2 10 31 71 102 82 40 14 5 6 19 51 95 
107 68 31 11 3 0 0 -1 -1 -1 -1 -1 -1 -1 -1 -1 -1 -1 -1 0 3 12 31 65 97 97 65 31 12 3 0 -1 -1 -1 -1 -1 -1 -1 0 1 6 21 51 89 101 72 37 19 23 51 92 97 56 22 6 0 0 -1 -1 -1 -1 -1 -1 -1 -1 -1 -1 -1 -1 -1 -1 -1 -1 -1 -1 -1 -1 -1 -1 -1 -1 -1 0 4 16 43 83 102 73 35 12 3 0 -1 -1 -1 0 3 14 40 82 102 71 32 10 3 5 18 51 96 
119 88 47 21 8 2 0 -1 -1 -1 -1 -1 -1 -1 -1 -1 -1 -1 0 1 8 23 52 88 101 77 41 17 5 0 0 -1 -1 -1 -1 -1 -1 -1 0 3 13 35 71 101 89 51 22 12 18 46 88 99 62 25 7 1 0 -1 -1 -1 -1 -1 -1 -1 -1 -1 -1 -1 -1 -1 -1 -1 -1 -1 -1 -1 -1 -1 -1 -1 -1 0 1 7 24 57 95 95 57 24 7 1 0 -1 -1 -1 0 5 18 50 91 98 60 24 7 2 5 18 50 98 
131 114 75 41 18 6 1 0 -1 -1 -1 -1 -1 -1 -1 -1 -1 0 0 5 17 41 77 101 88 52 23 8 1 0 -1 -1 -1 -1 -1 -1 -1 0 1 8 24 54 91 100 69 33 13 7 14 39 81 102 71 31 10 2 0 -1 -1 -1 -1 -1 -1 -1 -1 -1 -1 -1 -1 -1 -1 -1 -1 -1 -1 -1 -1 -1 -1 -1 -1 0 3 12 35 73 102 83 43 16 4 0 -1 -1 -1 0 1 7 24 60 98 91 50 19 5 2 5 18 49 99 
134 129 104 69 37 15 5 0 0 -1 -1 -1 -1 -1 -1 -1 -1 0 3 12 31 65 97 97 65 31 12 3 0 -1 -1 -1 -1 -1 -1 -1 0 0 5 16 41 77 102 86 48 20 7 4 11 32 71 102 80 39 13 3 0 -1 -1 -1 -1 -1 -1 -1 -1 -1 -1 -1 -1 -1 -1 -1 -1 -1 -1 -1 -1 -1 -1 -1 0 0 5 20 50 89 100 67 30 10 2 0 -1 -1 -1 0 2 10 31 71 102 82 40 14 3 1 5 18 49 99 
125 121 114 96 62 31 12 3 0 0 -1 -1 -1 -1 -1 -1 0 1 8 23 52 88 101 77 41 17 5 0 0 -1 -1 -1 -1 -1 -1 -1 0 2 11 30 64 97 97 64 30 11 3 2 8 26 62 99 88 45 16 4 0 -1 -1 -1 -1 -1 -1 -1 -1 -1 -1 -1 -1 -1 -1 -1 -1 -1 -1 -1 -1 -1 -1 -1 0 2 10 30 67 100 89 50 20 5 0 0 -1 -1 -1 0 3 14 40 82 102 71 31 10 2 1 5 18 50 98 
113 99 99 106 88 53 25 9 2 0 0 -1 -1 -1 -1 0 0 5 17 41 77 101 88 52 23 8 1 0 -1 -1 -1 -1 -1 -1 -1 0 0 6 20 48 86 102 77 41 16 5 1 1 6 22 56 97 92 49 18 4 0 -1 -1 -1 -1 -1 -1 -1 -1 -1 -1 -1 -1 -1 -1 -1 -1 -1 -1 -1 -1 -1 -1 -1 0 4 16 43 83 102 73 35 12 3 0 -1 -1 -1 -1 0 5 18 50 91 98 60 24 7 1 0 5 19 51 96 
104 79 74 94 103 80 46 22 8 2 0 0 -1 -1 -1 0 3 12 31 65 97 97 65 31 12 3 0 -1 -1 -1 -1 -1 -1 -1 -1 0 3 12 33 69 100 91 54 24 8 1 0 0 5 19 52 94 94 52 19 5 0 -1 -1 -1 -1 -1 -1 -1 -1 -1 -1 -1 -1 -1 -1 -1 -1 -1 -1 -1 -1 -1 -1 0 1 7 24 57 95 95 57 24 7 1 0 -1 -1 -1 0 1 7 24 60 98 91 50 18 5 0 0 5 19 51 95 
99 66 52 69 96 100 75 43 20 8 2 0 0 -1 0 1 8 23 52 88 101 77 41 17 5 0 0 -1 -1 -1 -1 -1 -1 -1 0 1 6 21 51 89 101 71 35 13 3 0 0 0 4 18 49 92 97 56 22 6 0 0 -1 -1 -1 -1 -1 -1 -1 -1 -1 -1 -1 -1 -1 -1 -1 -1 -1 -1 -1 -1 -1 0 3 12 35 73 102 83 43 16 4 0 -1 -1 -1 -1 0 2 10 31 71 102 82 40 14 3 0 0 5 19 52 95 
96 59 37 44 71 98 99 73 42 20 8 2 0 0 1 5 17 41 77 101 88 52 23 8 1 0 -1 -1 -1 -1 -1 -1 -1 -1 0 3 13 35 71 101 89 51 21 6 1 0 0 0 4 16 45 88 99 62 25 7 1 0 -1 -1 -1 -1 -1 -1 -1 -1 -1 -1 -1 -1 -1 -1 -1 -1 -1 -1 -1 -1 0 0 5 20 50 89 100 67 30 10 2 0 -1 -1 -1 -1 0 3 14 40 82 102 71 31 10 2 0 0 5 19 52 94 
95 55 27 25 43 73 98 98 73 42 20 8 2 1 3 12 31 65 97 97 65 31 12 3 0 -1 -1 -1 -1 -1 -1 -1 -1 0 1 8 24 54 91 100 69 33 12 3 0 -1 -1 0 3 13 39 80 102 71 31 10 2 0 -1 -1 -1 -1 -1 -1 -1 -1 -1 -1 -1 -1 -1 -1 -1 -1 -1 -1 -1 -1 0 2 10 30 67 100 89 50 20 5 0 0 -1 -1 -1 -1 0 5 18 50 91 98 60 24 7 1 0 0 5 19 52 94 
95 53 23 14 21 42 73 98 98 73 42 20 9 5 9 24 52 88 101 77 41 17 5 0 0 -1 -1 -1 -1 -1 -1 -1 0 0 5 16 41 77 102 86 48 20 6 0 0 -1 -1 0 2 10 31 71 102 81 39 13 3 0 -1 -1 -1 -1 -1 -1 -1 -1 -1 -1 -1 -1 -1 -1 -1 -1 -1 -1 -1 -1 0 4 16 43 83 102 73 35 12 3 0 -1 -1 -1 -1 0 1 7 24 60 98 91 50 18 5 0 0 0 5 19 52 94 
94 52 20 8 10 21 42 73 98 98 73 43 23 15 21 43 77 102 88 52 23 8 1 0 -1 -1 -1 -1 -1 -1 -1 -1 0 2 11 30 64 97 97 64 30 11 2 0 -1 -1 -1 0 1 7 25 62 99 88 45 16 4 0 -1 -1 -1 -1 -1 -1 -1 -1 -1 -1 -1 -1 -1 -1 -1 -1 -1 -1 -1 0 1 7 24 57 95 95 57 24 7 1 0 -1 -1 -1 -1 0 2 10 31 71 102 82 40 14 3 0 0 0 5 19 52 94 
94 52 19 6 4 8 20 42 73 98 99 75 48 34 42 69 98 97 65 31 12 3 0 -1 -1 -1 -1 -1 -1 -1 -1 0 0 6 20 48 86 102 77 41 16 5 0 0 -1 -1 -1 0 0 6 21 55 96 93 50 19 5 0 -1 -1 -1 -1 -1 -1 -1 -1 -1 -1 -1 -1 -1 -1 -1 -1 -1 -1 -1 0 3 12 35 73 102 83 43 16 4 0 -1 -1 -1 -1 -1 0 3 14 40 82 102 71 31 10 2 0 0 0 5 19 52 94 
94 52 19 5 1 2 8 20 42 73 99 101 82 67 74 96 103 77 41 17 5 0 0 -1 -1 -1 -1 -1 -1 -1 -1 0 3 12 33 69 100 91 54 24 8 1 0 -1 -1 -1 -1 -1 0 5 19 50 93 96 55 21 6 0 0 -1 -1 -1 -1 -1 -1 -1 -1 -1 -1 -1 -1 -1 -1 -1 -1 -1 0 0 5 20 50 89 100 67 30 10 2 0 -1 -1 -1 -1 -1 0 5 18 50 91 98 60 24 7 1 0 0 0 5 19 52 94 
94 52 19 5 0 0 2 8 20 42 73 101 111 108 110 112 89 52 23 8 1 0 -1 -1 -1 -1 -1 -1 -1 -1 0 1 6 21 51 89 101 71 35 13 3 0 -1 -1 -1 -1 -1 -1 0 4 16 45 88 99 62 25 7 1 0 -1 -1 -1 -1 -1 -1 -1 -1 -1 -1 -1 -1 -1 -1 -1 -1 -1 0 2 10 30 67 100 89 50 20 5 0 0 -1 -1 -1 -1 0 1 7 24 60 98 91 50 18 5 0 0 0 0 5 19 52 94 
94 52 19 5 0 0 0 2 8 20 43 76 110 132 131 106 66 31 12 3 0 -1 -1 -1 -1 -1 -1 -1 -1 -1 0 3 13 35 71 101 89 51 21 6 1 0 -1 -1 -1 -1 -1 -1 0 3 13 39 81 102 71 31 10 2 0 -1 -1 -1 -1 -1 -1 -1 -1 -1 -1 -1 -1 -1 -1 -1 -1 -1 0 4 16 43 83 102 73 35 12 3 0 -1 -1 -1 -1 -1 0 2 10 31 71 102 82 40 14 3 0 -1 0 0 5 19 52 94 
94 52 19 5 0 0 0 0 2 8 22 48 88 126 126 87 44 18 5 0 0 -1 -1 -1 -1 -1 -1 -1 -1 0 1 8 24 54 91 100 69 33 12 3 0 -1 -1 -1 -1 -1 -1 -1 0 2 10 31 71 102 80 39 13 3 0 -1 -1 -1 -1 -1 -1 -1 -1 -1 -1 -1 -1 -1 -1 -1 -1 0 1 7 24 57 95 95 57 24 7 1 0 -1 -1 -1 -1 -1 0 3 14 40 82 102 71 31 10 2 0 -1 0 0 5 19 52 94 
94 52 19 5 0 0 -1 0 0 3 11 30 66 109 113 72 32 11 2 0 -1 -1 -1 -1 -1 -1 -1 -1 0 0 5 16 41 77 102 86 48 20 6 0 0 -1 -1 -1 -1 -1 -1 -1 0 1 7 25 62 99 88 45 16 4 0 -1 -1 -1 -1 -1 -1 -1 -1 -1 -1 -1 -1 -1 -1 -1 -1 0 3 12 35 73 102 83 43 16 4 0 -1 -1 -1 -1 -1 -1 0 5 18 50 91 98 60 24 7 1 0 -1 -1 0 5 19 52 94 
94 52 19 5 0 -1 -1 -1 0 1 6 20 51 94 106 68 29 9 1 0 -1 -1 -1 -1 -1 -1 -1 -1 0 2 11 30 64 97 97 64 30 11 2 0 -1 -1 -1 -1 -1 -1 -1 -1 0 0 6 22 56 97 92 49 18 4 0 -1 -1 -1 -1 -1 -1 -1 -1 -1 -1 -1 -1 -1 -1 -1 0 0 5 20 50 89 100 67 30 10 2 0 -1 -1 -1 -1 -1 0 1 7 24 60 98 91 50 18 5 0 0 -1 -1 0 5 19 52 94 
94 52 19 5 0 -1 -1 -1 -1 0 3 14 40 82 104 73 33 10 2 0 -1 -1 -1 -1 -1 -1 -1 0 0 6 20 48 86 102 77 41 16 5 0 0 -1 -1 -1 -1 -1 -1 -1 -1 -1 0 5 19 52 94 94 52 19 5 0 -1 -1 -1 -1 -1 -1 -1 -1 -1 -1 -1 -1 -1 -1 -1 0 2 10 30 67 100 89 50 20 5 0 0 -1 -1 -1 -1 -1 0 2 10 31 71 102 82 40 14 3 0 -1 -1 -1 0 5 19 52 94 
94 52 19 5 0 -1 -1 -1 -1 0 2 10 32 71 102 81 39 13 3 0 -1 -1 -1 -1 -1 -1 -1 0 3 12 33 69 100 91 54 24 8 1 0 -1 -1 -1 -1 -1 -1 -1 -1 -1 -1 0 4 18 49 92 97 56 22 6 0 0 -1 -1 -1 -1 -1 -1 -1 -1 -1 -1 -1 -1 -1 -1 0 4 16 43 83 102 73 35 12 3 0 -1 -1 -1 -1 -1 -1 0 3 14 40 82 102 71 31 10 2 0 -1 -1 -1 0 5 19 52 95 
94 52 19 5 0 -1 -1 -1 -1 0 1 7 25 61 99 89 47 17 4 0 -1 -1 -1 -1 -1 -1 0 1 6 21 51 89 101 71 35 13 3 0 -1 -1 -1 -1 -1 -1 -1 -1 -1 -1 -1 0 4 16 45 88 99 62 25 7 1 0 -1 -1 -1 -1 -1 -1 -1 -1 -1 -1 -1 -1 -1 0 1 7 24 57 95 95 57 24 7 1 0 -1 -1 -1 -1 -1 -1 0 5 18 50 91 98 60 24 7 1 0 -1 -1 0 0 5 20 53 96 
95 51 19 5 0 -1 -1 -1 -1 0 0 5 20 53 94 94 53 20 5 0 0 -1 -1 -1 -1 -1 0 3 13 35 71 101 89 51 21 6 1 0 -1 -1 -1 -1 -1 -1 -1 -1 -1 -1 -1 0 3 13 39 80 102 71 31 10 2 0 -1 -1 -1 -1 -1 -1 -1 -1 -1 -1 -1 -1 -1 0 3 12 35 73 102 83 43 16 4 0 -1 -1 -1 -1 -1 -1 0 1 7 24 60 98 91 50 18 5 0 -1 -1 -1 0 0 6 22 56 98 
95 51 18 4 0 -1 -1 -1 -1 -1 0 4 17 46 89 99 61 25 7 1 0 -1 -1 -1 -1 0 1 8 24 54 91 100 69 33 12 3 0 -1 -1 -1 -1 -1 -1 -1 -1 -1 -1 -1 -1 0 2 10 31 71 102 80 39 13 3 0 -1 -1 -1 -1 -1 -1 -1 -1 -1 -1 -1 -1 0 0 5 20 50 89 100 67 30 10 2 0 -1 -1 -1 -1 -1 -1 0 2 10 31 71 102 82 40 14 3 0 -1 -1 -1 0 1 8 26 63 104 
97 50 18 4 0 -1 -1 -1 -1 -1 0 3 13 39 81 102 71 31 10 2 0 -1 -1 -1 0 0 5 16 41 77 102 86 48 20 6 0 0 -1 -1 -1 -1 -1 -1 -1 -1 -1 -1 -1 -1 0 1 7 25 62 99 88 45 16 4 0 -1 -1 -1 -1 -1 -1 -1 -1 -1 -1 -1 -1 0 2 10 30 67 100 89 50 20 5 0 0 -1 -1 -1 -1 -1 -1 0 3 14 40 82 102 71 31 10 2 0 -1 -1 0 0 3 13 36 77 113 
98 49 17 4 0 -1 -1 -1 -1 -1 0 2 10 31 71 102 81 39 13 3 0 -1 -1 -1 0 2 11 30 64 97 97 64 30 11 2 0 -1 -1 -1 -1 -1 -1 -1 -1 -1 -1 -1 -1 -1 0 0 6 22 56 97 92 49 18 4 0 -1 -1 -1 -1 -1 -1 -1 -1 -1 -1 -1 -1 0 4 16 43 83 102 73 35 12 3 0 -1 -1 -1 -1 -1 -1 -1 0 5 18 50 91 98 60 24 7 1 0 -1 -1 0 1 8 23 53 96 124 
99 49 17 4 0 -1 -1 -1 -1 -1 0 1 7 25 61 99 89 46 17 4 0 -1 -1 0 0 6 20 48 86 102 77 41 16 5 0 0 -1 -1 -1 -1 -1 -1 -1 -1 -1 -1 -1 -1 -1 -1 0 5 19 52 94 94 52 19 5 0 -1 -1 -1 -1 -1 -1 -1 -1 -1 -1 -1 0 1 7 24 57 95 95 57 24 7 1 0 -1 -1 -1 -1 -1 -1 0 1 7 24 60 98 91 50 18 5 0 0 -1 0 0 5 16 40 77 118 132 
99 49 18 4 0 -1 -1 -1 -1 -1 0 0 5 20 53 94 94 53 20 5 0 0 0 0 3 12 33 69 100 91 54 24 8 1 0 -1 -1 -1 -1 -1 -1 -1 -1 -1 -1 -1 -1 -1 -1 -1 0 4 18 49 92 97 56 22 6 0 0 -1 -1 -1 -1 -1 -1 -1 -1 -1 -1 0 3 12 35 73 102 83 43 16 4 0 -1 -1 -1 -1 -1 -1 -1 0 2 10 31 71 102 82 40 14 3 0 -1 0 0 3 11 31 64 102 129 132 
98 50 18 4 0 -1 -1 -1 -1 -1 -1 0 4 17 46 89 99 61 25 7 1 0 0 1 6 21 51 89 101 71 35 13 3 0 -1 -1 -1 -1 -1 -1 -1 -1 -1 -1 -1 -1 -1 -1 -1 -1 0 4 16 45 88 100 63 26 8 1 0 -1 -1 -1 -1 -1 -1 -1 -1 -1 0 0 5 20 50 89 100 67 30 10 2 0 -1 -1 -1 -1 -1 -1 -1 0 3 14 40 82 102 71 31 10 2 0 0 0 1 8 23 52 89 114 122 124 
96 51 19 5 0 -1 -1 -1 -1 -1 -1 0 3 13 39 81 102 71 31 10 2 0 0 3 13 35 71 101 89 51 21 6 1 0 -1 -1 -1 -1 -1 -1 -1 -1 -1 -1 -1 -1 -1 -1 -1 -1 0 3 13 39 81 103 72 33 12 3 0 0 0 0 0 -1 -1 -1 -1 -1 0 2 10 30 67 100 89 50 20 5 0 0 -1 -1 -1 -1 -1 -1 -1 0 5 18 50 91 98 60 24 7 1 0 0 0 5 17 41 77 105 106 104 114 
95 51 19 5 0 -1 -1 -1 -1 -1 -1 0 2 10 31 71 102 81 39 13 3 0 2 8 24 54 91 100 69 33 12 3 0 -1 -1 -1 -1 -1 -1 -1 -1 -1 -1 -1 -1 -1 -1 -1 -1 -1 0 2 11 33 73 105 85 45 19 9 5 3 2 1 0 0 0 0 0 0 0 4 16 43 83 102 73 35 12 3 0 -1 -1 -1 -1 -1 -1 -1 0 1 7 24 60 98 91 50 18 5 0 0 0 3 12 31 65 97 102 85 85 105 
95 52 19 5 0 -1 -1 -1 -1 -1 -1 0 1 7 25 61 99 89 46 17 5 2 5 16 41 77 102 86 48 20 6 0 0 -1 -1 -1 -1 -1 -1 -1 -1 -1 -1 -1 -1 -1 -1 -1 -1 0 0 3 11 31 70 108 101 63 36 23 17 13 10 7 6 5 4 4 3 2 3 9 25 58 96 95 57 24 7 1 0 -1 -1 -1 -1 -1 -1 -1 0 2 10 31 71 102 82 40 14 3 0 0 1 8 23 52 88 103 83 62 71 100 
94 52 19 5 0 -1 -1 -1 -1 -1 -1 0 0 5 20 53 94 94 54 21 7 4 11 30 64 97 97 64 30 11 2 0 -1 -1 -1 -1 -1 -1 -1 -1 -1 -1 -1 -1 -1 -1 -1 -1 0 0 2 7 17 39 77 118 121 93 68 54 46 39 31 25 22 19 18 16 13 11 12 19 40 76 103 83 43 16 4 0 -1 -1 -1 -1 -1 -1 -1 -1 0 3 14 40 82 102 71 31 10 2 0 1 5 17 41 77 102 90 59 44 62 97 
94 52 19 5 0 -1 -1 -1 -1 -1 -1 -1 0 4 17 46 89 99 61 26 10 9 20 48 86 102 77 41 16 5 0 0 -1 -1 -1 -1 -1 -1 -1 -1 -1 -1 -1 -1 -1 -1 -1 0 0 3 8 18 34 61 98 130 135 120 104 95 89 81 71 62 56 52 49 45 39 33 32 40 64 97 103 68 30 10 2 0 -1 -1 -1 -1 -1 -1 -1 -1 0 5 18 50 91 98 60 24 7 1 0 3 12 31 65 97 97 66 38 33 57 96 
94 52 19 5 0 -1 -1 -1 -1 -1 -1 -1 0 3 13 39 81 102 71 33 14 15 34 69 100 91 54 24 8 1 0 -1 -1 -1 -1 -1 -1 -1 -1 -1 -1 -1 -1 -1 -1 0 0 1 5 12 23 41 66 93 113 119 113 104 99 98 100 102 102 99 97 94 92 88 81 73 70 78 99 116 96 53 21 6 0 0 -1 -1 -1 -1 -1 -1 -1 0 1 7 24 60 98 91 50 19 5 1 2 8 23 52 88 102 77 43 23 26 54 95 
94 52 19 5 0 -1 -1 -1 -1 -1 -1 -1 0 2 10 31 71 102 82 42 22 26 52 89 101 71 35 13 3 0 -1 -1 -1 -1 -1 -1 -1 -1 -1 -1 -1 -1 -1 -1 0 0 3 8 17 31 52 77 97 104 94 78 64 56 55 57 62 71 80 88 92 94 97 99 102 104 107 116 131 128 89 44 16 4 0 0 -1 -1 -1 -1 -1 -1 -1 0 2 10 31 71 102 82 40 14 4 2 5 17 41 77 101 88 53 25 14 22 53 94 
94 52 19 5 0 -1 -1 -1 -1 -1 -1 -1 0 1 7 25 61 99 90 52 32 41 73 101 89 51 21 6 1 0 -1 -1 -1 -1 -1 -1 -1 -1 -1 -1 -1 -1 0 0 1 5 11 23 41 65 88 102 97 78 55 37 26 22 21 22 25 31 39 45 49 52 56 62 72 83 95 111 129 128 91 46 18 6 1 0 0 0 -1 -1 -1 0 0 0 3 14 40 82 102 71 32 10 3 4 12 31 65 97 97 65 32 14 10 21 52 94 
94 52 19 5 0 -1 -1 -1 -1 -1 -1 -1 0 0 5 20 53 95 97 64 47 62 93 100 69 33 12 3 0 -1 -1 -1 -1 -1 -1 -1 -1 -1 -1 -1 -1 0 0 2 7 16 31 52 77 97 101 88 65 41 24 14 8 6 5 6 7 10 13 16 18 19 22 26 32 41 52 70 96 115 100 60 28 12 4 2 0 0 0 0 0 0 0 2 6 20 51 92 98 60 25 8 4 9 23 52 88 101 77 41 17 7 7 20 52 94 
94 52 19 5 0 -1 -1 -1 -1 -1 -1 -1 -1 0 4 17 46 89 104 80 69 86 103 86 48 20 6 0 0 -1 -1 -1 -1 -1 -1 -1 -1 -1 -1 -1 0 0 3 9 20 38 63 88 101 97 77 52 31 17 8 3 1 0 0 0 1 2 3 4 4 5 6 7 10 15 21 35 60 93 107 84 50 27 14 9 6 5 5 5 5 5 5 7 13 30 64 101 93 52 20 8 7 17 41 77 101 88 52 23 8 3 6 19 52 94 
94 52 19 5 0 -1 -1 -1 -1 -1 -1 -1 -1 0 3 13 39 81 110 101 96 106 98 63 30 10 2 0 -1 -1 -1 -1 -1 -1 -1 -1 -1 -1 0 0 1 5 12 25 45 71 95 102 89 65 41 23 12 5 1 0 0 0 0 0 0 0 0 0 0 0 0 1 2 4 7 15 34 67 102 109 84 56 38 27 22 20 19 19 19 19 20 22 30 49 84 111 90 47 20 10 14 32 65 97 97 65 31 12 3 1 5 19 52 94 
94 52 19 5 0 -1 -1 -1 -1 -1 -1 -1 -1 0 2 10 31 70 111 122 119 109 77 40 16 5 0 0 -1 -1 -1 -1 -1 -1 -1 -1 -1 0 0 3 8 17 32 53 79 99 99 79 53 32 17 8 3 0 0 0 -1 -1 -1 -1 -1 -1 -1 -1 -1 -1 0 0 0 0 2 6 19 45 86 121 121 99 78 64 57 54 52 52 52 52 53 56 64 83 112 124 93 51 26 19 28 54 89 102 77 41 17 5 1 1 5 19 52 94 
94 52 19 5 0 -1 -1 -1 -1 -1 -1 -1 -1 0 1 7 24 60 108 134 125 93 53 23 8 1 0 -1 -1 -1 -1 -1 -1 -1 -1 0 0 1 5 12 23 41 65 89 102 95 71 45 25 12 5 1 0 0 -1 -1 -1 -1 -1 -1 -1 -1 -1 -1 -1 -1 -1 -1 -1 0 0 3 11 32 72 119 137 125 111 102 97 95 95 94 94 94 95 97 103 116 132 134 107 71 46 40 53 82 103 89 53 23 8 2 0 0 5 19 52 94 
94 52 19 5 0 -1 -1 -1 -1 -1 -1 -1 -1 0 0 5 20 54 104 133 114 70 33 12 3 0 -1 -1 -1 -1 -1 -1 -1 0 0 0 3 7 16 31 52 77 97 102 88 63 38 20 9 3 0 0 -1 -1 -1 -1 -1 -1 -1 -1 -1 -1 -1 -1 -1 -1 -1 -1 -1 -1 0 2 9 29 68 113 123 106 95 92 93 93 94 94 94 94 94 95 97 103 112 120 116 100 83 77 89 108 102 67 32 12 3 0 0 0 5 19 52 94 
94 52 19 5 0 -1 -1 -1 -1 -1 -1 -1 -1 -1 0 5 18 51 100 124 94 49 20 6 1 0 -1 -1 -1 -1 -1 0 0 0 2 5 11 22 40 64 88 102 98 78 53 31 16 7 2 0 0 -1 -1 -1 -1 -1 -1 -1 -1 -1 -1 -1 -1 -1 -1 -1 -1 -1 -1 -1 0 2 10 32 73 108 99 70 53 49 50 51 52 52 52 52 52 52 53 56 63 77 93 105 110 116 125 123 91 48 20 6 1 0 0 0 5 19 52 94 
94 52 19 5 0 -1 -1 -1 -1 -1 -1 -1 -1 -1 0 5 18 51 98 112 75 34 12 3 0 -1 -1 -1 -1 0 0 0 2 4 9 16 29 50 76 100 107 95 71 46 27 14 7 2 0 0 0 -1 -1 -1 -1 -1 -1 -1 -1 -1 -1 -1 -1 -1 -1 -1 -1 -1 -1 -1 0 3 13 39 81 105 78 43 25 19 19 19 19 19 19 19 19 19 20 21 26 35 51 71 94 117 135 126 84 41 16 4 0 0 0 0 5 19 52 94 
94 52 19 5 0 -1 -1 -1 -1 -1 -1 -1 -1 -1 0 5 19 52 97 103 62 25 8 1 0 -1 0 0 0 1 2 5 10 16 26 41 63 91 114 120 102 75 51 32 20 12 7 4 2 1 0 0 0 0 0 -1 -1 -1 -1 -1 -1 -1 -1 -1 -1 -1 -1 -1 -1 -1 0 4 16 45 88 100 64 29 12 6 5 5 5 5 5 5 5 5 5 6 8 12 21 34 54 82 112 121 90 48 20 6 1 0 0 0 5 19 52 94 
94 52 19 5 0 -1 -1 -1 -1 -1 -1 -1 -1 0 0 6 21 56 98 95 53 20 6 0 0 0 0 1 3 6 11 19 30 44 60 81 104 125 135 126 103 79 61 46 34 26 19 14 10 7 5 4 3 2 1 0 0 0 0 0 -1 -1 -1 -1 -1 -1 -1 -1 -1 -1 0 5 19 50 93 96 56 22 7 2 0 0 0 0 0 0 0 0 0 0 1 3 6 13 25 45 77 105 102 67 32 12 3 0 0 0 5 19 52 94 
94 52 19 5 0 -1 -1 -1 -1 -1 -1 -1 -1 0 1 7 25 62 100 89 46 17 5 1 1 2 4 7 12 21 33 49 67 84 98 108 114 118 121 120 112 103 93 83 71 60 50 40 32 25 20 17 13 10 7 5 3 2 1 0 0 0 0 0 -1 -1 -1 -1 -1 0 0 6 21 55 96 93 51 19 5 0 0 0 -1 -1 -1 -1 -1 -1 -1 0 0 0 1 4 9 22 46 80 103 89 53 23 8 2 0 0 5 19 52 94 
94 52 19 5 0 -1 -1 -1 -1 -1 -1 -1 -1 0 2 10 31 71 102 81 40 15 5 4 6 10 16 24 35 51 70 88 100 102 97 87 77 72 75 83 90 95 99 102 102 98 91 82 71 61 53 46 39 31 24 18 14 10 7 5 4 3 2 1 0 0 0 0 0 0 1 7 25 62 99 88 45 16 4 0 -1 -1 -1 -1 -1 -1 -1 -1 -1 -1 -1 -1 0 0 3 9 25 53 89 102 77 41 17 5 1 1 5 19 52 94 
94 52 19 5 0 -1 -1 -1 -1 -1 -1 -1 -1 0 3 13 39 81 102 72 34 14 10 12 19 30 43 57 74 90 101 101 90 74 58 44 35 31 33 39 46 53 61 71 82 91 98 102 102 99 94 89 81 70 59 50 40 32 25 20 17 13 10 7 5 3 2 1 0 1 3 11 32 71 102 81 39 13 3 0 -1 -1 -1 -1 -1 -1 -1 -1 -1 -1 -1 -1 -1 0 0 3 12 32 65 97 97 65 32 12 4 2 5 19 52 94 
94 52 19 5 0 -1 -1 -1 -1 -1 -1 -1 -1 0 4 17 46 89 101 66 33 21 23 33 49 66 83 95 102 100 88 70 51 35 24 16 12 10 11 13 17 20 25 32 40 50 59 70 81 89 94 99 102 102 98 91 82 71 61 53 46 39 31 24 18 14 10 7 6 5 7 17 41 82 102 71 31 10 2 0 -1 -1 -1 -1 -1 -1 -1 -1 -1 -1 -1 -1 -1 -1 0 0 5 17 41 77 101 89 53 25 9 4 6 19 52 94 
94 52 19 5 0 -1 -1 -1 -1 -1 -1 -1 0 0 5 20 53 96 102 69 44 41 52 70 88 100 102 95 83 66 49 33 21 12 7 4 2 2 2 3 4 5 7 10 14 18 24 31 39 46 53 61 71 82 91 98 102 102 99 94 89 81 70 59 50 40 32 25 21 18 19 28 54 93 100 62 25 7 1 0 -1 -1 -1 -1 -1 -1 -1 -1 -1 -1 -1 -1 -1 -1 -1 0 1 8 23 52 88 102 79 45 20 8 8 20 52 94 
94 52 19 5 0 -1 -1 -1 -1 -1 -1 -1 0 1 8 26 62 105 111 84 71 76 90 101 101 90 74 57 42 30 19 11 6 3 1 0 0 0 0 0 0 0 1 2 3 5 7 10 13 17 20 25 32 40 50 59 70 81 89 94 99 102 102 98 91 82 71 62 54 48 45 51 73 105 99 56 21 6 0 0 -1 -1 -1 -1 -1 -1 -1 -1 -1 -1 -1 -1 -1 -1 -1 -1 0 3 11 31 63 95 99 72 38 18 11 21 53 94 
94 52 19 5 0 -1 -1 -1 -1 -1 -1 -1 0 3 12 35 76 119 126 111 103 104 101 89 70 51 35 24 16 10 5 2 1 0 0 -1 -1 -1 -1 -1 -1 0 0 0 0 0 1 2 3 4 5 7 10 14 18 24 31 39 46 53 61 71 82 91 98 102 102 99 95 90 86 88 104 121 100 52 19 5 0 -1 -1 -1 -1 -1 -1 -1 -1 -1 -1 -1 -1 -1 -1 -1 -1 -1 0 0 5 16 38 71 99 95 63 33 19 24 54 95 
94 52 19 5 0 -1 -1 -1 -1 -1 -1 0 1 6 20 50 95 131 133 118 104 88 70 50 33 21 12 7 4 2 0 0 0 -1 -1 -1 -1 -1 -1 -1 -1 -1 -1 -1 -1 -1 0 0 0 0 0 1 2 3 5 7 10 13 17 20 25 32 40 50 59 70 81 89 95 100 106 115 129 134 101 50 18 4 0 -1 -1 -1 -1 -1 -1 -1 -1 -1 -1 -1 -1 -1 -1 -1 -1 -1 -1 0 1 7 20 45 79 102 88 55 31 30 56 95 
94 52 19 5 0 -1 -1 -1 -1 -1 -1 0 3 13 34 71 110 122 107 86 66 48 33 20 12 6 3 1 0 0 0 -1 -1 -1 -1 -1 -1 -1 -1 -1 -1 -1 -1 -1 -1 -1 -1 -1 -1 -1 0 0 0 0 0 1 2 3 4 5 7 10 14 18 24 31 39 46 54 63 75 95 119 131 100 50 18 4 0 -1 -1 -1 -1 -1 -1 -1 -1 -1 -1 -1 -1 -1 -1 -1 -1 -1 -1 -1 0 2 9 24 53 88 102 81 51 41 61 97 
95 52 19 5 0 -1 -1 -1 -1 -1 0 1 8 24 54 92 109 92 65 44 30 19 11 6 3 1 0 0 -1 -1 -1 -1 -1 -1 -1 -1 -1 -1 -1 -1 -1 -1 -1 -1 -1 -1 -1 -1 -1 -1 -1 -1 -1 -1 -1 0 0 0 0 0 1 2 3 5 7 10 13 17 21 27 37 57 89 116 98 50 18 4 0 -1 -1 -1 -1 -1 -1 -1 -1 -1 -1 -1 -1 -1 -1 -1 -1 -1 -1 -1 0 0 3 12 31 63 95 100 78 59 70 100 
95 51 19 5 0 -1 -1 -1 -1 0 0 5 17 41 78 103 92 59 32 18 10 5 2 0 0 0 -1 -1 -1 -1 -1 -1 -1 -1 -1 -1 -1 -1 -1 -1 -1 -1 -1 -1 -1 -1 -1 -1 -1 -1 -1 -1 -1 -1 -1 -1 -1 -1 -1 0 0 0 0 0 1 2 3 4 6 9 16 33 67 104 96 52 19 5 0 -1 -1 -1 -1 -1 -1 -1 -1 -1 -1 -1 -1 -1 -1 -1 -1 -1 -1 -1 -1 0 0 5 16 38 71 100 100 83 84 105 
96 51 19 5 0 -1 -1 -1 0 0 3 12 32 65 97 98 66 34 15 6 2 0 0 0 -1 -1 -1 -1 -1 -1 -1 -1 -1 -1 -1 -1 -1 -1 -1 -1 -1 -1 -1 -1 -1 -1 -1 -1 -1 -1 -1 -1 -1 -1 -1 -1 -1 -1 -1 -1 -1 -1 -1 -1 0 0 0 0 1 3 8 24 57 98 96 54 20 5 0 0 -1 -1 -1 -1 -1 -1 -1 -1 -1 -1 -1 -1 -1 -1 -1 -1 -1 -1 -1 -1 0 1 7 20 45 79 105 106 104 114 
98 50 18 4 0 -1 -1 0 0 2 9 24 53 89 103 78 43 18 7 2 0 0 0 0 0 -1 -1 -1 -1 -1 -1 -1 -1 -1 -1 -1 -1 -1 -1 -1 -1 -1 -1 -1 -1 -1 -1 -1 -1 -1 -1 -1 -1 -1 -1 -1 -1 -1 -1 -1 -1 -1 -1 -1 -1 -1 -1 0 0 1 6 21 53 96 99 59 24 7 1 0 -1 -1 -1 -1 -1 -1 -1 -1 -1 -1 -1 -1 -1 -1 -1 -1 -1 -1 -1 -1 -1 0 2 9 24 53 89 114 122 124 
99 49 18 4 0 0 0 0 2 8 20 45 80 105 93 58 28 12 4 1 0 0 0 0 0 0 0 0 0 0 0 0 -1 -1 -1 -1 -1 -1 -1 -1 -1 -1 -1 -1 -1 -1 -1 -1 -1 -1 -1 -1 -1 -1 -1 -1 -1 -1 -1 -1 -1 -1 -1 -1 -1 -1 -1 0 0 2 8 23 55 99 107 70 33 13 5 1 0 0 -1 -1 -1 -1 -1 -1 -1 -1 -1 -1 -1 -1 -1 -1 -1 -1 -1 -1 -1 0 0 3 12 31 64 102 129 132 
99 49 17 4 0 0 0 2 7 19 41 74 107 111 82 49 27 15 9 6 5 5 5 5 5 4 4 4 3 2 1 0 0 0 0 0 0 0 0 0 0 0 0 -1 -1 -1 -1 -1 -1 -1 -1 -1 -1 -1 -1 -1 -1 -1 -1 -1 -1 -1 -1 -1 -1 -1 0 0 2 6 15 33 66 109 122 91 53 27 14 6 2 0 0 -1 -1 -1 -1 -1 -1 -1 -1 -1 -1 -1 -1 -1 -1 -1 -1 -1 -1 -1 0 0 5 16 40 77 118 132 
98 49 17 4 0 0 2 7 19 40 72 108 128 116 88 63 46 34 26 22 20 19 19 19 19 18 17 16 13 10 7 6 5 5 5 5 4 4 4 3 2 1 0 0 0 0 0 0 0 0 0 0 0 0 0 -1 -1 -1 -1 -1 -1 -1 -1 -1 0 0 1 3 8 17 33 57 89 123 136 117 85 56 35 20 11 5 1 0 0 -1 -1 -1 -1 -1 -1 -1 -1 -1 -1 -1 -1 -1 -1 -1 -1 -1 -1 0 1 8 23 53 96 124 
97 50 18 5 1 2 8 20 41 72 106 130 135 124 109 95 83 72 63 57 54 52 52 52 52 51 49 45 39 31 25 22 20 19 19 19 18 17 16 13 10 7 6 5 5 5 5 5 4 4 4 3 2 1 0 0 0 0 0 0 0 0 0 0 0 2 6 13 24 41 65 90 110 120 122 119 109 92 71 49 30 16 8 3 1 0 0 -1 -1 -1 -1 -1 -1 -1 -1 -1 -1 -1 -1 -1 -1 -1 -1 -1 0 3 13 36 77 113 
95 51 19 6 4 9 20 42 72 101 115 113 107 102 100 101 102 102 99 97 95 95 94 94 94 93 91 87 80 71 62 57 54 52 52 52 51 49 45 39 31 25 22 20 19 19 19 19 18 17 16 13 10 7 6 5 5 5 5 4 4 4 3 4 6 11 20 34 54 77 97 103 95 83 77 82 93 102 101 86 64 41 24 13 6 2 0 0 -1 -1 -1 -1 -1 -1 -1 -1 -1 -1 -1 -1 -1 -1 -1 -1 0 1 8 26 63 104 
95 52 21 10 11 22 43 73 99 103 87 68 58 54 56 62 71 80 87 91 93 94 94 94 95 95 97 99 102 102 99 97 95 95 94 94 93 91 87 80 71 62 57 54 52 52 52 52 51 49 45 39 31 25 22 20 19 19 19 18 18 16 15 15 20 31 49 70 91 102 97 78 56 41 35 39 53 72 91 102 97 77 54 34 20 11 5 1 0 0 -1 -1 -1 -1 -1 -1 -1 -1 -1 -1 -1 -1 -1 -1 0 0 6 22 56 98 
95 55 26 19 27 47 75 99 99 76 49 31 23 21 22 25 31 38 45 49 51 52 52 52 52 54 57 62 71 80 87 91 93 94 94 95 95 97 99 102 102 99 97 95 95 94 94 94 93 91 87 80 71 62 57 54 52 52 52 51 49 46 42 42 50 67 87 101 100 86 64 41 25 15 12 14 22 35 54 77 97 102 91 70 49 30 16 8 3 1 0 0 -1 -1 -1 -1 -1 -1 -1 -1 -1 -1 -1 -1 0 0 5 20 53 96 
97 60 37 38 55 80 100 97 73 43 22 11 7 6 6 7 10 13 16 17 18 19 19 19 19 20 22 25 31 39 45 49 51 52 52 52 54 57 62 71 80 87 91 93 94 94 94 95 95 97 99 102 102 99 97 95 95 94 94 93 92 90 87 87 94 104 105 92 71 49 30 16 8 4 3 3 7 13 24 41 64 86 100 100 86 64 41 24 13 6 2 0 0 -1 -1 -1 -1 -1 -1 -1 -1 -1 -1 -1 -1 0 5 19 52 95 
102 73 59 69 90 102 95 69 41 20 8 3 1 0 0 1 2 3 4 4 4 5 5 5 5 5 6 7 10 13 16 17 18 19 19 19 20 22 25 31 39 45 49 51 52 52 52 52 54 57 62 71 80 87 91 93 94 94 95 96 99 106 117 128 128 112 84 57 35 20 11 5 1 0 0 0 1 3 8 16 30 49 70 91 102 97 77 54 34 20 11 5 1 0 0 -1 -1 -1 -1 -1 -1 -1 -1 -1 -1 0 5 19 52 95 
111 94 90 100 103 88 63 37 18 7 2 0 0 0 0 0 0 0 0 0 0 0 0 0 0 0 0 1 2 3 4 4 4 5 5 5 5 6 7 10 13 16 17 18 19 19 19 19 20 22 25 31 39 45 49 51 52 52 53 55 61 76 103 131 128 91 53 28 14 6 2 0 0 0 -1 -1 0 0 1 5 11 20 34 54 77 97 102 91 70 49 30 16 8 3 1 0 0 -1 -1 -1 -1 -1 -1 -1 -1 0 5 19 51 96 
124 119 113 103 80 53 31 15 6 2 0 0 -1 -1 -1 -1 -1 -1 -1 -1 -1 -1 -1 -1 -1 -1 0 0 0 0 0 0 0 0 0 0 0 0 1 2 3 4 4 4 5 5 5 5 5 6 7 10 13 16 17 18 19 19 20 22 28 44 77 115 112 70 33 13 5 1 0 0 -1 -1 -1 -1 -1 -1 0 0 2 6 13 24 41 64 86 100 100 86 64 41 24 13 6 3 0 0 0 -1 -1 -1 -1 -1 -1 0 4 18 50 98 
134 129 106 75 46 25 12 5 1 0 -1 -1 -1 -1 -1 -1 -1 -1 -1 -1 -1 -1 -1 -1 -1 -1 -1 -1 -1 -1 -1 -1 -1 -1 -1 -1 -1 0 0 0 0 0 0 0 0 0 0 0 0 0 1 2 3 4 4 4 5 5 5 7 12 27 61 102 101 58 24 7 1 0 -1 -1 -1 -1 -1 -1 -1 -1 -1 0 0 1 3 8 16 30 49 70 91 102 97 77 54 35 21 12 6 2 0 0 -1 -1 -1 -1 -1 0 4 18 49 99 
131 114 76 43 21 9 3 0 0 -1 -1 -1 -1 -1 -1 -1 -1 -1 -1 -1 -1 -1 -1 -1 -1 -1 -1 -1 -1 -1 -1 -1 -1 -1 -1 -1 -1 -1 -1 -1 -1 -1 -1 -1 -1 -1 -1 -1 -1 0 0 0 0 0 0 0 0 0 0 2 7 21 55 97 96 54 20 5 0 0 -1 -1 -1 -1 -1 -1 -1 -1 -1 -1 -1 0 0 1 5 11 20 34 54 77 97 102 91 71 51 33 20 10 5 1 0 0 0 -1 0 0 4 18 49 99 
119 88 48 22 9 2 0 0 -1 -1 -1 -1 -1 -1 -1 -1 -1 -1 -1 -1 -1 -1 -1 -1 -1 -1 -1 -1 -1 -1 -1 -1 -1 -1 -1 -1 -1 -1 -1 -1 -1 -1 -1 -1 -1 -1 -1 -1 -1 -1 -1 -1 -1 -1 -1 -1 -1 0 0 0 5 20 53 95 95 52 19 5 0 -1 -1 -1 -1 -1 -1 -1 -1 -1 -1 -1 -1 -1 -1 0 0 2 6 13 24 41 64 86 100 101 89 69 48 30 16 8 3 1 0 0 0 0 5 18 50 98 
107 68 31 11 3 0 0 -1 -1 -1 -1 -1 -1 -1 -1 -1 -1 -1 -1 -1 -1 -1 -1 -1 -1 -1 -1 -1 -1 -1 -1 -1 -1 -1 -1 -1 -1 -1 -1 -1 -1 -1 -1 -1 -1 -1 -1 -1 -1 -1 -1 -1 -1 -1 -1 -1 -1 -1 0 0 5 19 52 94 94 52 19 5 0 -1 -1 -1 -1 -1 -1 -1 -1 -1 -1 -1 -1 -1 -1 -1 0 0 1 3 8 16 30 48 69 89 101 100 86 63 40 23 13 8 5 3 2 2 6 20 52 97 
100 58 23 7 1 0 -1 -1 -1 -1 -1 -1 -1 -1 -1 -1 -1 -1 -1 -1 -1 -1 -1 -1 -1 -1 -1 -1 -1 -1 -1 -1 -1 -1 -1 -1 -1 -1 -1 -1 -1 -1 -1 -1 -1 -1 -1 -1 -1 -1 -1 -1 -1 -1 -1 -1 -1 -1 -1 0 5 19 52 94 94 52 19 5 0 -1 -1 -1 -1 -1 -1 -1 -1 -1 -1 -1 -1 -1 -1 -1 -1 -1 0 0 1 5 11 20 34 52 73 93 105 99 78 53 36 25 18 14 10 9 11 24 55 97 
97 54 21 6 1 0 0 -1 -1 -1 -1 -1 -1 -1 -1 -1 -1 -1 -1 -1 -1 -1 -1 -1 -1 -1 -1 -1 -1 -1 -1 -1 -1 -1 -1 -1 -1 -1 -1 -1 -1 -1 -1 -1 -1 -1 -1 -1 -1 -1 -1 -1 -1 -1 -1 -1 -1 -1 -1 0 5 19 52 94 94 52 19 5 0 -1 -1 -1 -1 -1 -1 -1 -1 -1 -1 -1 -1 -1 -1 -1 -1 -1 -1 0 0 1 3 7 14 25 41 64 91 113 114 97 76 60 49 40 32 26 25 35 63 100 
98 53 21 7 2 0 0 0 0 0 0 0 -1 -1 -1 -1 -1 -1 -1 -1 -1 -1 -1 -1 -1 -1 -1 -1 -1 -1 -1 -1 -1 -1 -1 -1 -1 -1 -1 -1 -1 -1 -1 -1 -1 -1 -1 -1 -1 -1 -1 -1 -1 -1 -1 -1 -1 -1 -1 0 5 19 52 94 94 52 19 5 0 -1 -1 -1 -1 -1 -1 -1 -1 -1 -1 -1 -1 -1 -1 -1 -1 -1 -1 0 0 0 2 5 10 18 31 51 79 112 133 131 117 103 92 82 71 61 56 61 83 110 
103 56 25 11 6 5 4 4 3 2 1 0 0 0 0 0 0 0 0 0 -1 -1 -1 -1 -1 -1 -1 -1 -1 -1 -1 -1 -1 -1 -1 -1 -1 -1 -1 -1 -1 -1 -1 -1 -1 -1 -1 -1 -1 -1 -1 -1 -1 -1 -1 -1 -1 -1 -1 0 5 19 52 94 94 52 19 5 0 -1 -1 -1 -1 -1 -1 -1 -1 -1 -1 -1 -1 -1 -1 -1 -1 0 0 0 2 4 7 13 21 33 48 68 92 115 127 122 111 104 102 103 102 99 96 99 113 126 
113 68 38 25 21 19 18 16 13 10 7 6 5 5 4 4 3 2 1 0 0 0 0 0 0 0 0 0 0 -1 -1 -1 -1 -1 -1 -1 -1 -1 -1 -1 -1 -1 -1 -1 -1 -1 -1 -1 -1 -1 -1 -1 -1 -1 -1 -1 -1 -1 -1 0 5 19 52 94 94 52 19 5 0 -1 -1 -1 -1 -1 -1 -1 -1 -1 -1 -1 -1 -1 0 0 0 1 3 5 10 16 24 35 50 68 84 98 106 105 93 76 64 60 64 72 82 92 101 114 130 139 
128 95 69 57 53 51 49 45 39 31 25 22 20 19 18 16 13 10 7 6 5 5 4 4 4 3 2 1 0 0 0 0 0 0 0 0 0 -1 -1 -1 -1 -1 -1 -1 -1 -1 -1 -1 -1 -1 -1 -1 -1 -1 -1 -1 -1 -1 -1 0 5 19 52 94 94 52 19 5 0 -1 -1 -1 -1 -1 -1 -1 -1 -1 -1 -1 0 0 0 2 4 7 12 20 30 43 57 73 89 100 102 96 83 66 49 35 27 24 26 32 41 51 64 84 112 137 
141 125 108 99 95 93 91 87 80 71 62 56 53 51 49 45 39 31 25 22 20 19 19 18 16 13 10 7 6 5 5 4 4 3 2 1 0 0 0 0 0 0 0 0 0 0 -1 -1 -1 -1 -1 -1 -1 -1 -1 -1 -1 -1 0 0 5 19 52 94 94 52 19 5 0 -1 -1 -1 -1 -1 -1 -1 -1 -1 0 0 1 2 5 10 16 24 35 50 67 83 95 102 100 89 73 57 42 29 19 12 8 7 8 10 14 20 29 48 82 124 
137 125 108 99 96 96 97 99 102 102 99 97 95 94 91 87 80 71 62 57 54 52 51 49 45 39 31 25 22 20 19 18 16 13 10 7 6 5 5 4 4 4 3 2 1 0 0 0 0 0 0 0 0 0 -1 -1 -1 0 0 0 5 19 52 94 94 52 19 5 0 -1 -1 -1 -1 -1 -1 0 0 0 1 3 6 11 19 30 42 57 73 89 100 102 95 83 67 50 35 24 16 10 5 3 1 1 1 2 3 6 13 29 62 110 
120 96 70 58 54 54 57 62 71 80 87 91 94 95 97 99 102 102 99 97 95 94 93 91 87 80 71 62 56 53 51 49 45 39 31 25 22 20 19 19 18 16 13 10 7 6 5 5 4 4 3 2 1 0 0 0 0 0 0 1 6 20 52 95 94 52 19 5 0 0 -1 -1 -1 0 0 0 2 4 7 12 21 33 49 66 83 95 102 100 89 73 57 43 30 20 12 7 4 2 0 0 0 0 0 0 0 2 7 21 54 101 
105 70 40 26 21 20 22 26 31 39 45 49 51 53 56 62 71 80 87 91 93 94 95 97 99 102 102 99 97 95 94 91 87 80 71 62 57 54 52 51 49 45 39 31 25 22 20 19 18 16 13 10 7 6 5 5 5 4 4 4 8 22 54 96 95 52 19 5 0 0 0 0 0 1 3 5 10 16 24 35 51 70 88 100 102 95 83 67 50 35 24 16 10 5 3 1 0 0 0 -1 -1 -1 -1 -1 0 0 5 19 52 97 
98 58 26 11 7 6 6 7 10 13 16 18 19 20 22 25 31 39 45 49 51 52 54 57 62 71 80 87 91 94 95 97 99 102 102 99 97 95 94 93 91 87 80 71 62 56 53 51 49 45 39 31 25 22 20 19 19 18 16 15 17 28 59 99 97 54 20 6 1 0 0 2 4 7 12 20 30 43 57 74 90 101 101 90 74 57 43 30 20 12 7 4 2 0 0 0 -1 -1 -1 -1 -1 -1 -1 -1 0 0 5 19 52 95 
95 54 21 6 2 0 0 1 2 3 4 4 5 5 6 7 10 13 16 18 19 19 20 22 25 31 39 45 49 51 53 56 62 71 80 87 91 93 94 95 97 99 102 102 99 97 95 94 91 87 80 71 62 57 54 52 51 49 45 40 38 46 73 108 102 58 24 8 3 3 6 10 16 24 35 50 67 83 95 102 100 88 70 51 35 24 16 10 5 3 1 0 0 0 -1 -1 -1 -1 -1 -1 -1 -1 -1 -1 -1 0 5 19 52 94 
94 52 19 5 0 0 0 0 0 0 0 0 0 0 0 1 2 3 4 4 4 5 5 6 7 10 13 16 18 19 20 22 25 31 39 45 49 51 52 54 57 62 71 80 87 91 94 95 97 99 102 102 99 97 95 94 93 91 88 82 77 80 100 124 114 70 34 16 11 13 20 30 43 57 73 89 100 102 95 83 66 49 33 21 12 7 4 2 0 0 0 -1 -1 -1 -1 -1 -1 -1 -1 -1 -1 -1 -1 -1 -1 0 5 19 52 94 
94 52 19 5 0 0 -1 -1 -1 -1 -1 -1 -1 -1 0 0 0 0 0 0 0 0 0 0 1 2 3 4 4 5 5 6 7 10 13 16 18 19 19 20 22 25 31 39 45 49 51 53 56 62 71 80 87 91 93 94 95 97 100 102 105 110 122 136 128 92 56 37 32 38 51 67 83 95 102 100 89 73 57 42 30 19 11 6 3 1 0 0 0 -1 -1 -1 -1 -1 -1 -1 -1 -1 -1 -1 -1 -1 -1 -1 -1 0 5 19 52 94 
94 52 19 5 0 -1 -1 -1 -1 -1 -1 -1 -1 -1 -1 -1 -1 -1 -1 -1 -1 -1 0 0 0 0 0 0 0 0 0 0 1 2 3 4 4 5 5 5 6 7 10 13 16 18 19 20 22 25 31 39 45 49 51 52 54 57 62 71 81 91 101 115 123 115 93 75 71 78 91 100 102 95 83 67 50 35 24 16 10 5 2 1 0 0 -1 -1 -1 -1 -1 -1 -1 -1 -1 -1 -1 -1 -1 -1 -1 -1 -1 -1 -1 0 5 19 52 94 
94 52 19 5 0 0 -1 -1 -1 -1 -1 -1 -1 -1 -1 -1 -1 -1 -1 -1 -1 -1 -1 -1 -1 -1 -1 -1 0 0 0 0 0 0 0 0 0 0 0 0 0 1 2 3 4 4 5 5 6 7 10 13 16 18 19 19 20 22 26 31 39 46 55 69 91 115 125 120 113 108 102 90 74 57 43 30 20 12 7 4 2 0 0 0 -1 -1 -1 -1 -1 -1 -1 -1 -1 -1 -1 -1 -1 -1 -1 -1 -1 -1 -1 -1 0 0 5 19 52 94 
95 52 19 5 0 0 0 -1 -1 -1 -1 -1 -1 -1 -1 -1 -1 -1 -1 -1 -1 -1 -1 -1 -1 0 0 0 0 0 0 0 0 0 0 0 0 0 0 0 0 0 0 0 0 0 0 0 1 1 2 3 4 5 5 5 5 6 8 10 14 17 22 33 56 92 129 136 116 92 70 51 35 24 16 10 6 3 1 0 0 0 0 0 0 -1 -1 -1 -1 -1 -1 -1 -1 -1 -1 -1 -1 -1 -1 -1 -1 -1 -1 0 0 0 5 19 52 95 
95 54 21 6 2 0 0 0 0 0 0 0 0 0 0 0 0 0 0 0 0 0 0 0 0 0 0 0 0 0 0 0 0 0 0 0 0 0 0 0 0 0 0 0 0 0 0 0 0 0 1 1 1 1 2 2 2 2 3 3 5 6 9 17 35 72 115 123 90 57 36 23 14 9 6 4 2 1 1 0 0 0 0 0 0 0 0 0 0 0 0 0 0 0 0 0 0 0 0 0 0 0 0 0 0 2 6 21 54 95 
99 58 25 11 6 5 5 5 5 5 5 5 5 5 5 5 5 5 5 5 5 5 5 5 5 5 5 5 5 5 5 4 4 4 4 4 5 5 5 5 5 5 5 5 5 5 5 5 4 4 4 5 5 5 5 5 5 5 5 6 6 7 9 15 30 64 107 110 73 39 22 14 10 7 6 6 5 5 5 5 5 5 5 5 5 5 5 5 5 5 4 4 4 4 4 5 5 5 5 5 5 5 4 4 5 6 11 25 58 99 
108 70 39 25 21 19 19 19 19 19 19 19 19 19 19 19 19 19 19 19 19 19 19 19 19 19 19 19 19 19 19 18 18 17 18 18 19 19 19 19 19 19 19 19 19 19 19 19 18 18 18 18 19 19 19 19 19 19 19 19 19 20 21 27 41 72 111 112 75 44 29 23 21 20 19 19 19 19 19 19 19 19 19 19 19 19 19 19 19 19 18 18 18 18 18 19 19 19 19 19 19 19 18 18 18 20 25 39 70 108 
126 95 70 58 54 52 52 52 52 52 52 52 52 52 52 52 52 52 52 52 52 52 52 52 52 52 52 52 52 52 51 50 49 49 50 50 51 52 52 52 52 52 52 52 52 52 52 51 50 50 50 50 51 52 52 52 52 52 52 52 52 52 54 58 70 96 126 126 97 71 59 54 53 52 52 52 52 52 52 52 52 52 52 52 52 52 52 52 52 51 50 50 49 50 50 51 52 52 52 52 52 51 51 50 50 51 56 69 95 126 
148 126 108 99 95 95 94 94 94 94 94 94 94 94 94 94 94 94 94 94 94 94 94 94 94 94 94 94 94 95 96 98 99 100 98 96 95 94 94 94 94 94 94 94 94 94 95 96 98 100 100 98 96 95 94 94 94 94 94 94 94 94 95 98 105 118 133 133 119 105 98 95 95 94 94 94 94 94 94 94 94 94 94 94 94 94 94 94 95 95 97 99 100 98 96 95 94 94 94 94 95 95 97 99 100 100 101 108 127 148 
