P2
110 110
255
150 108 92 90 89 89 89 89 89 89 89 89 89 89 89 89 89 89 89 89 89 89 89 89 89 89 89 89 89 90 92 102 130 154 128 100 91 89 89 89 89 89 89 89 89 89 89 92 105 142 142 105 92 89 89 89 89 89 89 89 89 89 89 89 89 91 95 95 91 89 89 89 89 89 89 89 89 89 89 89 89 89 89 89 89 89 89 89 89 91 98 124 154 129 100 91 89 89 89 89 89 90 97 122 154 129 100 94 108 150 
108 47 26 22 22 22 22 22 22 22 22 22 22 22 22 22 22 22 22 22 22 22 22 22 22 22 22 22 22 24 33 66 121 113 58 30 23 22 22 22 22 22 22 22 22 22 23 27 48 109 107 47 26 22 22 22 22 22 22 22 22 22 22 22 22 22 22 22 22 22 22 22 22 22 22 22 22 22 22 22 22 22 22 22 22 22 22 22 23 27 48 103 120 63 31 23 22 22 22 22 22 25 42 96 122 64 32 28 48 108 
92 26 4 0 0 0 0 0 0 0 0 0 0 0 0 0 0 0 0 0 0 0 0 0 0 0 0 0 0 5 28 85 111 55 15 2 0 0 0 0 0 0 0 0 0 0 0 5 33 102 94 26 4 0 0 0 0 0 0 0 0 0 0 0 0 0 0 0 0 0 0 0 0 0 0 0 0 0 0 0 0 0 0 0 0 0 0 0 1 10 48 111 83 25 4 0 0 0 0 0 0 4 26 91 97 31 6 4 26 92 
90 22 0 -4 -4 -4 -4 -4 -4 -4 -4 -4 -4 -4 -4 -4 -4 -4 -4 -4 -4 -4 -4 -4 -4 -4 -4 -4 -1 12 54 110 81 23 1 -4 -4 -4 -4 -4 -4 -4 -4 -4 -4 -4 -2 7 48 125 94 22 0 -4 -4 -4 -4 -4 -4 -4 -4 -4 -4 -4 -4 -4 -5 -5 -4 -4 -4 -4 -4 -4 -4 -4 -4 -4 -4 -4 -4 -4 -4 -4 -4 -4 -4 -4 -1 17 75 109 46 7 -2 -4 -4 -4 -4 -4 -4 1 28 96 87 22 0 0 23 90 
89 22 0 -4 -5 -5 -5 -5 -5 -5 -5 -5 -5 -5 -5 -5 -5 -5 -5 -5 -5 -5 -5 -5 -5 -5 -5 -3 6 40 101 101 40 6 -3 -5 -5 -5 -5 -5 -5 -5 -5 -5 -5 -4 0 21 86 153 96 22 0 -4 -5 -5 -5 -5 -5 -5 -5 -5 -5 -5 -5 -5 -5 -5 -5 -5 -5 -5 -5 -5 -5 -5 -5 -5 -5 -5 -5 -5 -5 -5 -5 -5 -5 -4 0 26 92 92 26 0 -4 -5 -5 -5 -5 -5 -3 5 44 109 73 15 -1 0 22 89 
89 22 0 -4 -5 -5 -5 -5 -5 -5 -5 -5 -5 -5 -5 -5 -5 -5 -5 -5 -5 -5 -5 -5 -5 -5 -4 0 23 81 109 54 11 -2 -5 -5 -5 -5 -5 -5 -5 -5 -5 -5 -5 -3 6 45 118 148 95 22 0 -4 -5 -5 -5 -5 -5 -5 -5 -5 -5 -5 -5 -5 -5 -5 -5 -5 -5 -5 -5 -5 -5 -5 -5 -5 -5 -5 -5 -5 -5 -5 -5 -5 -5 -3 6 46 109 74 16 -1 -5 -5 -5 -5 -5 -5 -1 15 73 109 44 5 -3 0 22 89 
89 22 0 -4 -5 -5 -5 -5 -5 -5 -5 -5 -5 -5 -5 -5 -5 -5 -5 -5 -5 -5 -5 -5 -5 -5 -2 11 54 109 81 23 0 -4 -5 -5 -5 -5 -5 -5 -5 -5 -5 -5 -4 0 21 82 126 127 93 23 0 -4 -5 -5 -5 -5 -5 -5 -5 -5 -5 -5 -5 -5 -5 -5 -5 -5 -5 -5 -5 -5 -5 -5 -5 -5 -5 -5 -5 -5 -5 -5 -5 -5 -4 0 21 81 108 43 5 -3 -5 -5 -5 -5 -5 -4 0 21 87 95 27 0 -4 0 22 89 
89 22 0 -4 -5 -5 -5 -5 -5 -5 -5 -5 -5 -5 -5 -5 -5 -5 -5 -5 -5 -5 -5 -5 -5 -3 5 40 101 101 40 5 -3 -5 -5 -5 -5 -5 -5 -5 -5 -5 -5 -5 -3 6 45 110 103 107 97 28 0 -4 -5 -5 -5 -5 -5 -5 -5 -5 -5 -5 -5 -5 -5 -5 -5 -5 -5 -5 -5 -5 -5 -5 -5 -5 -5 -5 -5 -5 -5 -5 -5 -5 -3 5 43 108 81 21 0 -4 -5 -5 -5 -5 -5 -4 0 27 95 87 21 0 -4 0 22 89 
89 22 0 -4 -5 -5 -5 -5 -5 -5 -5 -5 -5 -5 -5 -5 -5 -5 -5 -5 -5 -5 -5 -5 -4 0 23 81 109 54 11 -2 -5 -5 -5 -5 -5 -5 -5 -5 -5 -5 -5 -4 0 23 82 110 65 84 110 44 5 -3 -5 -5 -5 -5 -5 -5 -5 -5 -5 -5 -5 -5 -5 -5 -5 -5 -5 -5 -5 -5 -5 -5 -5 -5 -5 -5 -5 -5 -5 -5 -5 -5 -1 16 74 109 46 6 -3 -5 -5 -5 -5 -5 -5 -3 5 44 109 73 15 -1 -4 0 22 89 
89 22 0 -4 -5 -5 -5 -5 -5 -5 -5 -5 -5 -5 -5 -5 -5 -5 -5 -5 -5 -5 -5 -5 -2 11 54 109 81 23 0 -4 -5 -5 -5 -5 -5 -5 -5 -5 -5 -5 -5 -2 11 54 109 82 32 49 110 73 15 -1 -5 -5 -5 -5 -5 -5 -5 -5 -5 -5 -5 -5 -5 -5 -5 -5 -5 -5 -5 -5 -5 -5 -5 -5 -5 -5 -5 -5 -5 -5 -5 -4 0 26 92 92 26 0 -4 -5 -5 -5 -5 -5 -5 -1 15 73 109 44 5 -3 -4 0 22 89 
89 22 0 -4 -5 -5 -5 -5 -5 -5 -5 -5 -5 -5 -5 -5 -5 -5 -5 -5 -5 -5 -5 -3 5 40 101 101 40 5 -3 -5 -5 -5 -5 -5 -5 -5 -5 -5 -5 -5 -3 5 40 101 101 41 12 30 96 85 20 -1 -5 -5 -5 -5 -5 -5 -5 -5 -5 -5 -5 -5 -5 -5 -5 -5 -5 -5 -5 -5 -5 -5 -5 -5 -5 -5 -5 -5 -5 -5 -5 -3 6 46 109 74 16 -1 -5 -5 -5 -5 -5 -5 -4 0 21 87 95 27 0 -4 -4 0 22 89 
89 22 0 -4 -5 -5 -5 -5 -5 -5 -5 -5 -5 -5 -5 -5 -5 -5 -5 -5 -5 -5 -4 0 23 81 109 54 11 -2 -5 -5 -5 -5 -5 -5 -5 -5 -5 -5 -5 -4 0 21 80 109 54 12 3 23 90 88 22 0 -5 -5 -5 -5 -5 -5 -5 -5 -5 -5 -5 -5 -5 -5 -5 -5 -5 -5 -5 -5 -5 -5 -5 -5 -5 -5 -5 -5 -5 -5 -4 0 21 81 108 43 5 -3 -5 -5 -5 -5 -5 -5 -4 0 27 95 87 21 0 -4 -4 0 22 89 
91 23 0 -4 -5 -5 -5 -5 -5 -5 -5 -5 -5 -5 -5 -5 -5 -5 -5 -5 -5 -5 -2 11 54 109 81 23 0 -4 -5 -5 -5 -5 -5 -5 -5 -5 -5 -5 -5 -3 6 45 108 82 23 1 0 22 89 89 22 0 -4 -5 -5 -5 -5 -5 -5 -5 -5 -5 -5 -5 -5 -5 -5 -5 -5 -5 -5 -5 -5 -5 -5 -5 -5 -5 -5 -5 -5 -5 -3 5 43 108 81 21 0 -4 -5 -5 -5 -5 -5 -5 -3 5 44 109 73 15 -1 -5 -4 0 22 89 
100 30 2 -4 -5 -5 -5 -5 -5 -5 -5 -5 -5 -5 -5 -5 -5 -5 -5 -5 -5 -3 5 40 101 101 40 5 -3 -5 -5 -5 -5 -5 -5 -5 -5 -5 -5 -5 -4 0 21 81 108 45 7 -2 0 22 88 90 23 0 -4 -5 -5 -5 -5 -5 -5 -5 -5 -5 -5 -5 -5 -5 -5 -5 -5 -5 -5 -5 -5 -5 -5 -5 -5 -5 -5 -5 -5 -5 -1 16 74 109 46 6 -3 -5 -5 -5 -5 -5 -5 -5 -1 15 73 109 44 5 -3 -5 -4 0 22 91 
128 58 14 0 -4 -5 -5 -5 -5 -5 -5 -5 -5 -5 -5 -5 -5 -5 -5 -5 -4 0 23 81 109 54 11 -2 -5 -5 -5 -5 -5 -5 -5 -5 -5 -5 -5 -5 -3 6 45 108 81 21 0 -4 0 20 85 96 28 0 -4 -5 -5 -5 -5 -5 -5 -5 -5 -5 -5 -5 -5 -5 -5 -5 -5 -5 -5 -5 -5 -5 -5 -5 -5 -5 -5 -5 -5 -4 0 26 92 92 26 0 -4 -5 -5 -5 -5 -5 -5 -4 0 21 87 95 27 0 -4 -5 -4 0 22 94 
154 112 51 12 -1 -4 -5 -5 -5 -5 -5 -5 -5 -5 -5 -5 -5 -5 -5 -5 -2 11 54 109 81 23 0 -4 -5 -5 -5 -5 -5 -5 -5 -5 -5 -5 -5 -4 0 23 82 108 45 6 -3 -4 -1 15 73 109 44 5 -3 -5 -5 -5 -5 -5 -5 -5 -5 -5 -5 -5 -5 -5 -5 -5 -5 -5 -5 -5 -5 -5 -5 -5 -5 -5 -5 -5 -5 -3 6 46 109 74 16 -1 -5 -5 -5 -5 -5 -5 -5 -4 0 27 95 87 21 0 -4 -5 -4 0 22 96 
130 122 104 49 10 -2 -5 -5 -5 -5 -5 -5 -5 -5 -5 -5 -5 -5 -5 -3 5 40 101 101 40 5 -3 -5 -5 -5 -5 -5 -5 -5 -5 -5 -5 -5 -5 -2 11 54 109 80 21 0 -4 -5 -3 5 44 109 73 15 -1 -5 -5 -5 -5 -5 -5 -5 -5 -5 -5 -5 -5 -5 -5 -5 -5 -5 -5 -5 -5 -5 -5 -5 -5 -5 -5 -5 -4 0 21 81 108 43 5 -3 -5 -5 -5 -5 -5 -5 -5 -3 5 44 109 73 15 -1 -5 -5 -4 0 22 93 
104 76 107 101 40 5 -3 -5 -5 -5 -5 -5 -5 -5 -5 -5 -5 -5 -4 0 23 81 109 54 11 -2 -5 -5 -5 -5 -5 -5 -5 -5 -5 -5 -5 -5 -3 5 40 101 101 40 5 -3 -5 -5 -4 0 28 96 85 20 -1 -5 -5 -5 -5 -5 -5 -5 -5 -5 -5 -5 -5 -5 -5 -5 -5 -5 -5 -5 -5 -5 -5 -5 -5 -5 -5 -5 -3 5 43 108 81 21 0 -4 -5 -5 -5 -5 -5 -5 -5 -1 15 73 109 44 5 -3 -5 -5 -4 0 22 90 
93 41 59 110 81 23 0 -4 -5 -5 -5 -5 -5 -5 -5 -5 -5 -5 -2 11 54 109 81 23 0 -4 -5 -5 -5 -5 -5 -5 -5 -5 -5 -5 -5 -4 0 21 80 109 54 11 -2 -5 -5 -5 -4 0 23 90 88 22 0 -5 -5 -5 -5 -5 -5 -5 -5 -5 -5 -5 -5 -5 -5 -5 -5 -5 -5 -5 -5 -5 -5 -5 -5 -5 -5 -5 -1 16 74 109 46 6 -3 -5 -5 -5 -5 -5 -5 -5 -4 0 21 87 95 27 0 -4 -5 -5 -4 0 22 89 
90 28 28 82 109 55 13 0 -4 -5 -5 -5 -5 -5 -5 -5 -5 -3 5 40 101 101 40 5 -3 -5 -5 -5 -5 -5 -5 -5 -5 -5 -5 -5 -5 -3 6 45 108 82 23 0 -4 -5 -5 -5 -4 0 22 89 89 22 0 -4 -5 -5 -5 -5 -5 -5 -5 -5 -5 -5 -5 -5 -5 -5 -5 -5 -5 -5 -5 -5 -5 -5 -5 -5 -5 -4 0 26 92 92 26 0 -4 -5 -5 -5 -5 -5 -5 -5 -4 0 27 95 87 21 0 -4 -5 -5 -4 0 22 89 
89 24 10 41 101 103 50 13 0 -4 -5 -5 -5 -5 -5 -5 -4 0 23 81 109 54 11 -2 -5 -5 -5 -5 -5 -5 -5 -5 -5 -5 -5 -5 -4 0 21 81 108 45 6 -3 -5 -5 -5 -5 -5 0 22 88 90 23 0 -4 -5 -5 -5 -5 -5 -5 -5 -5 -5 -5 -5 -5 -5 -5 -5 -5 -5 -5 -5 -5 -5 -5 -5 -5 -5 -3 6 46 109 74 16 -1 -5 -5 -5 -5 -5 -5 -5 -5 -3 5 44 109 73 15 -1 -5 -5 -5 -4 0 22 89 
89 22 2 11 49 103 103 50 13 0 -4 -5 -5 -5 -5 -5 -2 11 54 109 81 23 0 -4 -5 -5 -5 -5 -5 -5 -5 -5 -5 -5 -5 -5 -3 6 45 108 81 21 0 -4 -5 -5 -5 -5 -5 -1 20 85 96 28 0 -4 -5 -5 -5 -5 -5 -5 -5 -5 -5 -5 -5 -5 -5 -5 -5 -5 -5 -5 -5 -5 -5 -5 -5 -5 -4 0 21 81 108 43 5 -3 -5 -5 -5 -5 -5 -5 -5 -5 -1 15 73 109 44 5 -3 -5 -5 -5 -4 0 22 89 
89 22 0 0 12 50 103 103 50 13 0 -4 -5 -5 -5 -3 5 40 101 101 40 5 -3 -5 -5 -5 -5 -5 -5 -5 -5 -5 -5 -5 -5 -4 0 23 82 108 45 6 -3 -5 -5 -5 -5 -5 -5 -1 15 73 109 44 5 -3 -5 -5 -5 -5 -5 -5 -5 -5 -5 -5 -5 -5 -5 -5 -5 -5 -5 -5 -5 -5 -5 -5 -5 -5 -3 5 43 108 81 21 0 -4 -5 -5 -5 -5 -5 -5 -5 -4 0 21 87 95 27 0 -4 -5 -5 -5 -4 0 22 89 
89 22 0 -4 0 13 50 103 103 50 13 0 -4 -5 -4 0 23 81 109 54 11 -2 -5 -5 -5 -5 -5 -5 -5 -5 -5 -5 -5 -5 -5 -2 11 54 109 80 21 0 -4 -5 -5 -5 -5 -5 -5 -3 5 44 109 73 15 -1 -5 -5 -5 -5 -5 -5 -5 -5 -5 -5 -5 -5 -5 -5 -5 -5 -5 -5 -5 -5 -5 -5 -5 -5 -1 16 74 109 46 6 -3 -5 -5 -5 -5 -5 -5 -5 -5 -4 0 27 95 87 21 0 -4 -5 -5 -5 -4 0 22 89 
89 22 0 -4 -4 0 13 50 103 103 50 13 0 -4 -1 11 54 109 81 23 0 -4 -5 -5 -5 -5 -5 -5 -5 -5 -5 -5 -5 -5 -3 5 40 101 101 40 5 -3 -5 -5 -5 -5 -5 -5 -5 -4 0 28 96 85 20 -1 -5 -5 -5 -5 -5 -5 -5 -5 -5 -5 -5 -5 -5 -5 -5 -5 -5 -5 -5 -5 -5 -5 -5 -4 0 26 92 92 26 0 -4 -5 -5 -5 -5 -5 -5 -5 -5 -3 5 44 109 73 15 -1 -5 -5 -5 -5 -4 0 22 89 
89 22 0 -4 -5 -4 0 13 50 103 103 50 13 1 6 41 101 101 40 5 -3 -5 -5 -5 -5 -5 -5 -5 -5 -5 -5 -5 -5 -4 0 21 80 109 54 11 -2 -5 -5 -5 -5 -5 -5 -5 -5 -4 0 23 90 89 22 0 -4 -5 -5 -5 -5 -5 -5 -5 -5 -5 -5 -5 -5 -5 -5 -5 -5 -5 -5 -5 -5 -5 -5 -3 6 46 109 74 16 -1 -5 -5 -5 -5 -5 -5 -5 -5 -5 -1 15 73 109 44 5 -3 -5 -5 -5 -5 -4 0 22 89 
89 22 0 -4 -5 -5 -4 0 13 50 103 103 51 19 27 82 109 54 11 -2 -5 -5 -5 -5 -5 -5 -5 -5 -5 -5 -5 -5 -5 -3 6 45 108 82 23 0 -4 -5 -5 -5 -5 -5 -5 -5 -5 -4 0 22 89 90 23 0 -4 -5 -5 -5 -5 -5 -5 -5 -5 -5 -5 -5 -5 -5 -5 -5 -5 -5 -5 -5 -5 -5 -4 0 21 81 108 43 5 -3 -5 -5 -5 -5 -5 -5 -5 -5 -4 0 21 87 95 27 0 -4 -5 -5 -5 -5 -4 0 22 89 
89 22 0 -4 -5 -5 -5 -4 0 13 50 103 105 65 69 111 81 23 0 -4 -5 -5 -5 -5 -5 -5 -5 -5 -5 -5 -5 -5 -4 0 21 81 108 45 6 -3 -5 -5 -5 -5 -5 -5 -5 -5 -5 -5 -1 20 85 96 28 0 -4 -5 -5 -5 -5 -5 -5 -5 -5 -5 -5 -5 -5 -5 -5 -5 -5 -5 -5 -5 -5 -5 -3 5 43 108 81 21 0 -4 -5 -5 -5 -5 -5 -5 -5 -5 -4 0 27 95 87 21 0 -4 -5 -5 -5 -5 -4 0 22 89 
89 22 0 -4 -5 -5 -5 -5 -4 0 13 50 107 131 132 105 41 5 -3 -5 -5 -5 -5 -5 -5 -5 -5 -5 -5 -5 -5 -5 -3 6 45 108 81 21 0 -4 -5 -5 -5 -5 -5 -5 -5 -5 -5 -5 -1 15 73 109 44 5 -3 -5 -5 -5 -5 -5 -5 -5 -5 -5 -5 -5 -5 -5 -5 -5 -5 -5 -5 -5 -5 -5 -1 16 74 109 46 6 -3 -5 -5 -5 -5 -5 -5 -5 -5 -5 -3 5 44 109 73 15 -1 -5 -5 -5 -5 -5 -4 0 22 89 
89 22 0 -4 -5 -5 -5 -5 -5 -4 0 14 58 131 131 57 12 -2 -5 -5 -5 -5 -5 -5 -5 -5 -5 -5 -5 -5 -5 -4 0 23 82 108 45 6 -3 -5 -5 -5 -5 -5 -5 -5 -5 -5 -5 -5 -3 5 44 109 73 15 -1 -5 -5 -5 -5 -5 -5 -5 -5 -5 -5 -5 -5 -5 -5 -5 -5 -5 -5 -5 -5 -4 0 26 92 92 26 0 -4 -5 -5 -5 -5 -5 -5 -5 -5 -5 -1 15 73 109 44 5 -3 -5 -5 -5 -5 -5 -4 0 22 89 
89 22 0 -4 -5 -5 -5 -5 -5 -5 -4 2 30 101 103 31 2 -4 -5 -5 -5 -5 -5 -5 -5 -5 -5 -5 -5 -5 -5 -2 11 54 109 80 21 0 -4 -5 -5 -5 -5 -5 -5 -5 -5 -5 -5 -5 -4 0 28 96 85 20 -1 -5 -5 -5 -5 -5 -5 -5 -5 -5 -5 -5 -5 -5 -5 -5 -5 -5 -5 -5 -5 -3 6 46 109 74 16 -1 -5 -5 -5 -5 -5 -5 -5 -5 -5 -4 0 21 87 95 27 0 -4 -5 -5 -5 -5 -5 -4 0 22 89 
89 22 0 -4 -5 -5 -5 -5 -5 -5 -4 0 22 87 98 29 1 -4 -5 -5 -5 -5 -5 -5 -5 -5 -5 -5 -5 -5 -3 5 40 101 101 40 5 -3 -5 -5 -5 -5 -5 -5 -5 -5 -5 -5 -5 -5 -4 0 23 90 88 22 0 -5 -5 -5 -5 -5 -5 -5 -5 -5 -5 -5 -5 -5 -5 -5 -5 -5 -5 -5 -4 0 21 81 108 43 5 -3 -5 -5 -5 -5 -5 -5 -5 -5 -5 -4 0 27 95 87 21 0 -4 -5 -5 -5 -5 -5 -4 0 22 89 
89 22 0 -4 -5 -5 -5 -5 -5 -5 -5 -1 15 73 109 45 5 -3 -5 -5 -5 -5 -5 -5 -5 -5 -5 -5 -5 -4 0 21 80 109 54 11 -2 -5 -5 -5 -5 -5 -5 -5 -5 -5 -5 -5 -5 -5 -4 0 22 89 89 22 0 -4 -5 -5 -5 -5 -5 -5 -5 -5 -5 -5 -5 -5 -5 -5 -5 -5 -5 -5 -3 5 43 108 81 21 0 -4 -5 -5 -5 -5 -5 -5 -5 -5 -5 -3 5 44 109 73 15 -1 -5 -5 -5 -5 -5 -5 -4 0 22 89 
89 22 0 -4 -5 -5 -5 -5 -5 -5 -5 -3 5 44 109 73 15 -1 -5 -5 -5 -5 -5 -5 -5 -5 -5 -5 -5 -3 6 45 108 82 23 0 -4 -5 -5 -5 -5 -5 -5 -5 -5 -5 -5 -5 -5 -5 -5 0 22 88 90 23 0 -4 -5 -5 -5 -5 -5 -5 -5 -5 -5 -5 -5 -5 -5 -5 -5 -5 -5 -5 -1 16 74 109 46 6 -3 -5 -5 -5 -5 -5 -5 -5 -5 -5 -5 -1 15 73 109 44 5 -3 -5 -5 -5 -5 -5 -5 -4 0 22 89 
89 22 0 -4 -5 -5 -5 -5 -5 -5 -5 -4 0 28 96 85 20 -1 -5 -5 -5 -5 -5 -5 -5 -5 -5 -5 -4 0 21 81 108 45 6 -3 -5 -5 -5 -5 -5 -5 -5 -5 -5 -5 -5 -5 -5 -5 -5 -1 20 85 96 28 0 -4 -5 -5 -5 -5 -5 -5 -5 -5 -5 -5 -5 -5 -5 -5 -5 -5 -5 -4 0 26 92 92 26 0 -4 -5 -5 -5 -5 -5 -5 -5 -5 -5 -4 0 21 87 95 27 0 -4 -5 -5 -5 -5 -5 -5 -4 0 22 89 
89 22 0 -4 -5 -5 -5 -5 -5 -5 -5 -4 0 23 90 90 23 0 -4 -5 -5 -5 -5 -5 -5 -5 -5 -5 -3 6 45 108 81 21 0 -4 -5 -5 -5 -5 -5 -5 -5 -5 -5 -5 -5 -5 -5 -5 -5 -1 15 73 109 44 5 -3 -5 -5 -5 -5 -5 -5 -5 -5 -5 -5 -5 -5 -5 -5 -5 -5 -5 -3 6 46 109 74 16 -1 -5 -5 -5 -5 -5 -5 -5 -5 -5 -5 -4 0 27 95 87 21 0 -4 -5 -5 -5 -5 -5 -5 -4 0 23 91 
90 22 0 -4 -5 -5 -5 -5 -5 -5 -5 -5 -1 20 85 96 28 0 -4 -5 -5 -5 -5 -5 -5 -5 -5 -4 0 23 82 108 45 6 -3 -5 -5 -5 -5 -5 -5 -5 -5 -5 -5 -5 -5 -5 -5 -5 -5 -3 5 44 109 73 15 -1 -5 -5 -5 -5 -5 -5 -5 -5 -5 -5 -5 -5 -5 -5 -5 -5 -4 0 21 81 108 43 5 -3 -5 -5 -5 -5 -5 -5 -5 -5 -5 -5 -3 5 44 109 73 15 -1 -5 -5 -5 -5 -5 -5 -5 -4 1 28 99 
94 22 0 -5 -5 -5 -5 -5 -5 -5 -5 -5 -1 15 73 109 44 5 -3 -5 -5 -5 -5 -5 -5 -5 -5 -2 11 54 109 80 21 0 -4 -5 -5 -5 -5 -5 -5 -5 -5 -5 -5 -5 -5 -5 -5 -5 -5 -4 0 28 96 85 20 -1 -5 -5 -5 -5 -5 -5 -5 -5 -5 -5 -5 -5 -5 -5 -5 -5 -3 5 43 108 81 21 0 -4 -5 -5 -5 -5 -5 -5 -5 -5 -5 -5 -1 15 73 109 44 5 -3 -5 -5 -5 -5 -5 -5 -5 -3 7 47 125 
96 22 0 -5 -5 -5 -5 -5 -5 -5 -5 -5 -3 5 44 109 73 15 -1 -5 -5 -5 -5 -5 -5 -5 -3 5 40 101 101 40 5 -3 -5 -5 -5 -5 -5 -5 -5 -5 -5 -5 -5 -5 -5 -5 -5 -5 -5 -4 0 23 90 88 22 0 -5 -5 -5 -5 -5 -5 -5 -5 -5 -5 -5 -5 -5 -5 -5 -5 -1 16 74 109 46 6 -3 -5 -5 -5 -5 -5 -5 -5 -5 -5 -5 -4 0 21 87 95 27 0 -4 -5 -5 -5 -5 -5 -5 -4 0 23 86 153 
94 22 0 -5 -5 -5 -5 -5 -5 -5 -5 -5 -4 0 28 96 85 20 -1 -5 -5 -5 -5 -5 -5 -4 0 21 80 109 54 11 -2 -5 -5 -5 -5 -5 -5 -5 -5 -5 -5 -5 -5 -5 -5 -5 -5 -5 -5 -4 0 22 89 89 22 0 -4 -5 -5 -5 -5 -5 -5 -5 -5 -5 -5 -5 -5 -5 -5 -4 0 26 92 92 26 0 -4 -5 -5 -5 -5 -5 -5 -5 -5 -5 -5 -4 0 27 95 87 21 0 -4 -5 -5 -5 -5 -5 -5 -2 11 54 120 148 
92 22 0 -4 -5 -5 -5 -5 -5 -5 -5 -5 -4 0 23 90 90 23 0 -4 -5 -5 -5 -5 -5 -3 6 45 108 82 23 0 -4 -5 -5 -5 -5 -5 -5 -5 -5 -5 -5 -5 -5 -5 -5 -5 -5 -5 -5 -5 0 22 88 90 23 0 -4 -5 -5 -5 -5 -5 -5 -5 -5 -5 -5 -5 -5 -5 -5 -3 6 46 109 74 16 -1 -5 -5 -5 -5 -5 -5 -5 -5 -5 -5 -5 -3 5 44 109 73 15 -1 -5 -5 -5 -5 -5 -5 -3 5 40 103 121 124 
90 22 0 -4 -5 -5 -5 -5 -5 -5 -5 -5 -5 -1 20 85 96 28 0 -4 -5 -5 -5 -5 -4 0 21 81 108 45 6 -3 -5 -5 -5 -5 -5 -5 -5 -5 -5 -5 -5 -5 -5 -5 -5 -5 -5 -5 -5 -5 -1 20 85 96 28 0 -4 -5 -5 -5 -5 -5 -5 -5 -5 -5 -5 -5 -5 -5 -4 0 21 81 108 43 5 -3 -5 -5 -5 -5 -5 -5 -5 -5 -5 -5 -5 -1 15 73 109 44 5 -3 -5 -5 -5 -5 -5 -4 0 23 81 112 79 103 
89 22 0 -4 -5 -5 -5 -5 -5 -5 -5 -5 -5 -1 15 73 109 44 5 -3 -5 -5 -5 -5 -3 6 45 108 81 21 0 -4 -5 -5 -5 -5 -5 -5 -5 -5 -5 -5 -5 -5 -5 -5 -5 -5 -5 -5 -5 -5 -1 15 73 109 44 5 -3 -5 -5 -5 -5 -5 -5 -5 -5 -5 -5 -5 -5 -5 -3 5 43 108 81 21 0 -4 -5 -5 -5 -5 -5 -5 -5 -5 -5 -5 -4 0 21 87 95 27 0 -4 -5 -5 -5 -5 -5 -2 11 54 109 85 50 94 
89 22 0 -4 -5 -5 -5 -5 -5 -5 -5 -5 -5 -3 5 44 109 73 15 -1 -5 -5 -5 -4 0 23 82 108 45 6 -3 -5 -5 -5 -5 -5 -5 -5 -5 -5 -5 -5 -5 -5 -5 -5 -5 -5 -5 -5 -5 -5 -3 5 45 109 73 16 -1 -4 -4 -5 -5 -5 -5 -5 -5 -5 -5 -5 -5 -5 -1 16 74 109 46 6 -3 -5 -5 -5 -5 -5 -5 -5 -5 -5 -5 -5 -4 0 27 95 87 21 0 -4 -5 -5 -5 -5 -3 5 40 101 102 45 33 91 
89 22 0 -4 -5 -5 -5 -5 -5 -5 -5 -5 -5 -4 0 28 96 85 20 -1 -5 -5 -5 -2 11 54 109 80 21 0 -4 -5 -5 -5 -5 -5 -5 -5 -5 -5 -5 -5 -5 -5 -5 -5 -5 -5 -5 -5 -5 -5 -4 1 29 98 89 25 3 0 0 -1 -3 -4 -4 -4 -5 -5 -5 -5 -5 -4 0 26 92 92 26 0 -4 -5 -5 -5 -5 -5 -5 -5 -5 -5 -5 -5 -3 5 44 109 73 15 -1 -5 -5 -5 -5 -4 0 23 81 109 54 16 25 90 
89 22 0 -4 -5 -5 -5 -5 -5 -5 -5 -5 -5 -4 0 23 90 90 23 0 -4 -5 -3 5 40 101 101 40 5 -3 -5 -5 -5 -5 -5 -5 -5 -5 -5 -5 -5 -5 -5 -5 -5 -5 -5 -5 -5 -5 -5 -5 -3 4 32 103 106 47 26 22 20 15 5 0 0 0 0 -1 -1 -3 -4 -2 7 46 109 74 16 -1 -5 -5 -5 -5 -5 -5 -5 -5 -5 -5 -5 -5 -1 15 73 109 44 5 -3 -5 -5 -5 -5 -2 11 54 109 81 24 5 23 89 
89 22 0 -4 -5 -5 -5 -5 -5 -5 -5 -5 -5 -5 -1 20 85 96 28 0 -4 -4 0 21 80 109 54 11 -2 -5 -5 -5 -5 -5 -5 -5 -5 -5 -5 -5 -5 -5 -5 -5 -5 -5 -5 -5 -5 -5 -4 -2 6 24 62 132 142 106 92 89 85 73 44 28 23 22 22 20 15 5 1 4 25 83 108 43 5 -3 -5 -5 -5 -5 -5 -5 -5 -5 -5 -5 -5 -4 0 21 87 95 27 0 -4 -5 -5 -5 -3 5 40 101 101 40 6 1 22 89 
89 22 0 -4 -5 -5 -5 -5 -5 -5 -5 -5 -5 -5 -1 15 73 109 44 5 -3 -3 6 45 108 82 23 0 -4 -5 -5 -5 -5 -5 -5 -5 -5 -5 -5 -5 -5 -5 -5 -5 -5 -5 -5 -5 -5 -3 0 11 40 82 113 121 105 93 90 90 96 109 109 96 90 89 88 85 73 45 29 32 62 114 83 22 0 -4 -5 -5 -5 -5 -5 -5 -5 -5 -5 -5 -5 -4 0 27 95 87 21 0 -4 -5 -5 -4 0 23 81 109 54 12 -1 0 22 89 
89 22 0 -4 -5 -5 -5 -5 -5 -5 -5 -5 -5 -5 -3 5 44 109 73 15 -1 0 21 81 108 45 6 -3 -5 -5 -5 -5 -5 -5 -5 -5 -5 -5 -5 -5 -5 -5 -5 -5 -5 -5 -5 -4 -2 5 23 54 101 109 83 47 28 23 22 23 28 44 73 85 88 89 90 96 109 109 98 103 132 129 53 8 -3 -5 -5 -5 -5 -5 -5 -5 -5 -5 -5 -5 -5 -3 5 44 109 73 15 -1 -5 -5 -5 -2 11 54 109 81 23 0 -3 0 22 89 
89 22 0 -4 -5 -5 -5 -5 -5 -5 -5 -5 -5 -5 -4 0 28 96 85 21 1 7 45 108 81 21 0 -4 -5 -5 -5 -5 -5 -5 -5 -5 -5 -5 -5 -5 -5 -5 -5 -5 -5 -5 -3 0 11 40 81 109 101 54 23 7 1 0 0 0 0 5 15 20 22 22 23 28 44 73 88 101 132 129 53 9 -3 -5 -5 -5 -5 -5 -5 -5 -5 -5 -5 -5 -5 -1 15 73 109 44 5 -3 -5 -5 -3 5 40 101 101 40 6 -3 -4 0 22 89 
89 22 0 -4 -5 -5 -5 -5 -5 -5 -5 -5 -5 -5 -4 0 23 90 90 24 5 24 82 108 45 6 -3 -5 -5 -5 -5 -5 -5 -5 -5 -5 -5 -5 -5 -5 -5 -5 -5 -5 -4 -2 5 23 54 101 109 81 40 11 0 -3 -4 -4 -4 -4 -4 -3 -1 -1 0 0 0 0 5 15 22 31 62 114 84 24 1 -4 -5 -5 -5 -5 -5 -5 -5 -5 -5 -5 -4 0 21 87 95 27 0 -4 -5 -4 0 23 81 109 54 11 -2 -5 -4 0 22 89 
89 22 0 -4 -5 -5 -5 -5 -5 -5 -5 -5 -5 -5 -5 -1 20 85 96 31 18 55 109 80 21 0 -4 -5 -5 -5 -5 -5 -5 -5 -5 -5 -5 -5 -5 -5 -5 -5 -5 -4 -1 11 40 81 109 101 54 23 5 -2 -4 -5 -5 -5 -5 -5 -5 -5 -5 -5 -5 -4 -4 -4 -3 -1 0 4 24 82 110 55 14 1 -3 -4 -4 -4 -4 -4 -4 -4 -4 -4 -4 1 28 95 87 21 0 -4 -5 -2 11 54 109 81 23 0 -4 -5 -4 0 22 89 
89 22 0 -4 -5 -5 -5 -5 -5 -5 -5 -5 -5 -5 -5 -1 15 73 110 55 51 103 101 40 5 -3 -5 -5 -5 -5 -5 -5 -5 -5 -5 -5 -5 -5 -5 -5 -5 -5 -3 0 13 49 101 109 81 40 11 0 -3 -5 -5 -5 -5 -5 -5 -5 -5 -5 -5 -5 -5 -5 -5 -5 -5 -5 -4 -3 6 41 102 107 56 24 7 1 0 0 0 0 0 0 0 0 1 10 48 111 75 16 -1 -4 -3 6 40 101 101 40 5 -3 -5 -5 -4 0 22 89 
89 22 0 -4 -5 -5 -5 -5 -5 -5 -5 -5 -5 -5 -5 -3 5 44 111 96 98 111 54 11 -2 -5 -5 -5 -5 -5 -5 -5 -5 -5 -5 -5 -5 -5 -5 -5 -4 -2 6 23 55 103 103 55 23 6 -2 -4 -5 -5 -5 -5 -5 -5 -5 -5 -5 -5 -5 -5 -5 -5 -5 -5 -5 -5 -5 -5 -2 12 56 123 128 86 47 28 23 22 22 22 22 22 22 22 25 41 92 121 53 10 -1 -3 0 23 81 109 54 11 -2 -5 -5 -5 -4 0 22 89 
89 22 0 -4 -5 -5 -5 -5 -5 -5 -5 -5 -5 -5 -5 -4 0 28 99 125 125 83 23 0 -4 -5 -5 -5 -5 -5 -5 -5 -5 -5 -5 -5 -5 -5 -5 -3 0 11 40 81 109 101 49 13 0 -3 -5 -5 -5 -5 -5 -5 -5 -5 -5 -5 -5 -5 -5 -5 -5 -5 -5 -5 -5 -5 -5 -5 -4 2 31 107 146 125 111 96 90 89 89 89 89 89 89 89 92 104 140 138 68 26 7 3 13 54 109 81 23 0 -4 -5 -5 -5 -4 0 22 89 
89 22 0 -4 -5 -5 -5 -5 -5 -5 -5 -5 -5 -5 -5 -4 0 23 96 148 118 45 6 -3 -5 -5 -5 -5 -5 -5 -5 -5 -5 -5 -5 -5 -5 -4 -2 5 23 54 101 109 81 40 11 -1 -4 -5 -5 -5 -5 -5 -5 -5 -5 -5 -5 -5 -5 -5 -5 -5 -5 -5 -5 -5 -5 -5 -5 -5 -4 1 29 100 107 67 77 86 88 89 89 89 89 89 89 89 90 93 105 122 114 83 47 31 49 103 102 41 6 -3 -5 -5 -5 -5 -4 0 22 89 
89 22 0 -4 -5 -5 -5 -5 -5 -5 -5 -5 -5 -5 -5 -4 0 22 96 153 86 21 0 -4 -5 -5 -5 -5 -5 -5 -5 -5 -5 -5 -5 -5 -3 0 11 40 81 109 101 54 23 5 -2 -4 -5 -5 -5 -5 -5 -5 -5 -5 -5 -5 -5 -5 -5 -5 -5 -5 -5 -5 -5 -5 -5 -5 -5 -5 -3 5 45 110 78 26 19 21 22 22 22 22 22 22 22 22 22 23 28 47 82 108 110 98 110 118 57 12 -1 -5 -5 -5 -5 -5 -4 0 22 89 
89 22 0 -4 -5 -5 -5 -5 -5 -5 -5 -5 -5 -5 -5 -5 0 22 94 125 47 6 -3 -5 -5 -5 -5 -5 -5 -5 -5 -5 -5 -5 -4 -2 5 23 54 102 110 82 41 12 0 -3 -5 -5 -5 -5 -5 -5 -5 -5 -5 -5 -5 -5 -5 -5 -5 -5 -5 -5 -5 -5 -5 -5 -5 -5 -5 -5 -1 15 73 109 45 7 0 0 0 0 0 0 0 0 0 0 0 0 1 6 21 45 83 119 152 115 38 4 -3 -5 -5 -5 -5 -5 -4 0 22 89 
89 22 0 -4 -5 -5 -5 -5 -5 -5 -5 -5 -5 -5 -5 -4 0 22 91 99 28 0 -4 -5 -5 -5 -5 -5 -5 -5 -5 -4 -3 -1 1 12 41 85 117 110 60 28 10 1 -2 -4 -4 -5 -5 -5 -5 -5 -5 -5 -5 -5 -5 -5 -5 -5 -5 -5 -5 -5 -5 -5 -5 -5 -5 -5 -5 -5 -1 20 85 96 28 1 -4 -4 -4 -4 -4 -4 -4 -4 -4 -4 -4 -4 -4 -3 0 6 23 56 116 123 57 12 -1 -5 -5 -5 -5 -5 -4 0 22 89 
89 22 0 -4 -5 -5 -5 -5 -5 -5 -5 -5 -5 -5 -5 -4 0 23 91 90 23 0 -4 -5 -5 -5 -5 -5 -5 -4 -3 0 5 16 28 56 112 151 140 87 45 29 22 16 6 0 0 -1 -3 -4 -4 -5 -5 -5 -5 -5 -5 -5 -5 -5 -5 -5 -5 -5 -5 -5 -5 -5 -5 -5 -5 -4 0 22 89 90 23 0 -4 -5 -5 -5 -5 -5 -5 -5 -5 -5 -5 -5 -5 -5 -4 -3 0 13 51 106 102 41 6 -3 -5 -5 -5 -5 -4 0 22 89 
89 22 0 -4 -5 -5 -5 -5 -5 -5 -5 -5 -5 -5 -5 -4 0 28 96 86 20 -1 -5 -5 -5 -5 -5 -4 -3 0 6 21 43 74 93 113 120 113 121 117 98 90 86 73 44 27 21 15 5 0 0 -1 -1 -3 -4 -4 -5 -5 -5 -5 -5 -5 -5 -5 -5 -5 -5 -5 -5 -5 -5 -4 0 23 90 89 22 0 -4 -5 -5 -5 -5 -5 -5 -5 -5 -5 -5 -5 -5 -5 -5 -5 -4 0 14 55 109 81 23 0 -4 -5 -5 -5 -4 0 22 89 
89 22 0 -4 -5 -5 -5 -5 -5 -5 -5 -5 -5 -5 -5 -3 5 44 109 73 15 -1 -5 -5 -4 -3 -1 0 6 21 45 81 108 109 93 75 46 34 46 73 86 90 96 109 109 95 87 73 44 28 23 20 15 5 0 0 -1 -3 -4 -4 -5 -5 -5 -5 -5 -5 -5 -5 -5 -5 -5 -4 0 28 96 85 20 -1 -5 -5 -5 -5 -5 -5 -5 -5 -5 -5 -5 -5 -5 -5 -5 -5 -5 -4 0 23 81 109 54 11 -2 -5 -5 -5 -4 0 22 89 
89 22 0 -4 -5 -5 -5 -5 -5 -5 -5 -5 -5 -5 -5 -1 15 73 109 44 5 -3 -4 -3 0 5 16 26 46 81 108 108 81 46 26 16 6 2 6 15 20 23 28 44 73 87 95 109 109 96 90 85 73 44 27 21 15 5 0 0 -1 -1 -3 -4 -4 -5 -5 -5 -5 -5 -5 -3 5 44 109 73 15 -1 -5 -5 -5 -5 -5 -5 -5 -5 -5 -5 -5 -5 -5 -5 -5 -5 -5 -5 -3 6 40 101 101 40 6 -3 -5 -5 -4 0 22 89 
89 22 0 -4 -5 -5 -5 -5 -5 -5 -5 -5 -5 -5 -5 -1 20 85 96 28 1 -2 0 6 21 43 74 92 109 108 81 45 21 6 0 -1 -3 -4 -3 -1 -1 0 0 5 15 21 27 44 73 85 90 96 109 109 95 87 73 44 28 23 20 15 5 0 0 -1 -3 -4 -4 -4 -4 -1 15 73 109 44 5 -3 -5 -5 -5 -5 -5 -5 -5 -5 -5 -5 -5 -5 -5 -5 -5 -5 -5 -5 -5 -2 11 54 109 81 23 0 -4 -5 -4 0 22 89 
89 22 0 -4 -5 -5 -5 -5 -5 -5 -5 -5 -5 -5 -4 0 23 90 90 25 4 7 21 45 81 108 109 92 74 43 21 6 0 -3 -4 -5 -5 -5 -5 -5 -5 -4 -4 -3 -1 0 0 5 15 20 23 28 44 73 87 95 109 109 96 90 85 73 44 27 21 15 5 0 0 0 -1 0 21 86 96 28 0 -4 -5 -5 -5 -5 -5 -5 -5 -5 -5 -5 -5 -5 -5 -5 -5 -5 -5 -5 -5 -4 0 23 81 109 55 13 -1 -4 -4 0 22 89 
89 22 0 -4 -5 -5 -5 -5 -5 -5 -5 -5 -5 -5 -4 1 28 97 91 33 26 45 81 108 108 81 46 26 16 5 0 -3 -4 -5 -5 -5 -5 -5 -5 -5 -5 -5 -5 -5 -5 -4 -4 -3 -1 -1 0 0 5 15 21 27 44 73 85 90 96 109 109 95 87 73 44 28 23 20 16 10 28 92 91 23 0 -4 -5 -5 -5 -5 -5 -5 -5 -5 -5 -5 -5 -5 -5 -5 -5 -5 -5 -5 -5 -5 -3 5 40 101 103 49 11 -2 -4 0 22 89 
89 22 0 -4 -5 -5 -5 -5 -5 -5 -5 -5 -5 -5 -3 6 47 118 100 66 85 108 108 81 45 21 6 0 -1 -3 -4 -5 -5 -5 -5 -5 -5 -5 -5 -5 -5 -5 -5 -5 -5 -5 -5 -5 -5 -5 -4 -4 -3 -1 0 0 5 15 20 23 28 44 73 87 95 109 109 96 90 86 73 49 53 106 91 22 0 -4 -5 -5 -5 -5 -5 -5 -5 -5 -5 -5 -5 -5 -5 -5 -5 -5 -5 -5 -5 -5 -5 -2 11 49 103 101 40 6 -2 0 22 89 
89 22 0 -4 -5 -5 -5 -5 -5 -5 -5 -5 -5 -4 0 22 87 150 129 117 108 81 45 21 6 0 -3 -4 -5 -5 -5 -5 -5 -5 -5 -5 -5 -5 -5 -5 -5 -5 -5 -5 -5 -5 -5 -5 -5 -5 -5 -5 -5 -5 -4 -4 -3 -1 -1 0 0 5 15 21 27 44 73 85 90 96 110 112 113 143 95 22 0 -5 -5 -5 -5 -5 -5 -5 -5 -5 -5 -5 -5 -5 -5 -5 -5 -5 -5 -5 -5 -5 -5 -4 -1 13 55 109 81 23 1 0 22 89 
89 22 0 -4 -5 -5 -5 -5 -5 -5 -5 -5 -5 -3 6 45 117 130 99 75 43 21 6 0 -3 -4 -5 -5 -5 -5 -5 -5 -5 -5 -5 -5 -5 -5 -5 -5 -5 -5 -5 -5 -5 -5 -5 -5 -5 -5 -5 -5 -5 -5 -5 -5 -5 -5 -5 -4 -4 -3 -1 0 0 5 15 20 23 28 45 76 104 141 95 22 0 -5 -5 -5 -5 -5 -5 -5 -5 -5 -5 -5 -5 -5 -5 -5 -5 -5 -5 -5 -5 -5 -5 -5 -4 0 23 81 109 55 14 3 23 89 
89 22 0 -4 -5 -5 -5 -5 -5 -5 -5 -5 -4 0 23 82 113 62 29 17 5 0 -3 -4 -5 -5 -5 -5 -5 -5 -5 -5 -5 -5 -5 -5 -5 -5 -5 -5 -5 -5 -5 -5 -5 -5 -5 -5 -5 -5 -5 -5 -5 -5 -5 -5 -5 -5 -5 -5 -5 -5 -5 -4 -4 -3 -1 -1 0 0 6 20 46 105 91 22 0 -4 -5 -5 -5 -5 -5 -5 -5 -5 -5 -5 -5 -5 -5 -5 -5 -5 -5 -5 -5 -5 -5 -5 -5 -3 5 40 101 103 50 15 25 89 
89 22 0 -4 -5 -5 -5 -5 -5 -5 -5 -5 -2 11 54 109 82 24 3 -1 -3 -4 -5 -5 -5 -5 -5 -5 -5 -5 -5 -5 -5 -5 -5 -5 -5 -5 -5 -5 -5 -5 -5 -5 -5 -5 -5 -5 -5 -5 -5 -5 -5 -5 -5 -5 -5 -5 -5 -5 -5 -5 -5 -5 -5 -5 -5 -5 -4 -4 -3 2 26 92 89 22 0 -4 -5 -5 -5 -5 -5 -5 -5 -5 -5 -5 -5 -5 -5 -5 -5 -5 -5 -5 -5 -5 -5 -5 -5 -5 -2 11 49 103 101 45 33 91 
89 22 0 -4 -5 -5 -5 -5 -5 -5 -5 -3 6 40 101 101 40 6 -3 -4 -5 -5 -5 -5 -5 -5 -5 -5 -5 -5 -5 -5 -5 -5 -5 -5 -5 -5 -5 -5 -5 -5 -5 -5 -5 -5 -5 -5 -5 -5 -5 -5 -5 -5 -5 -5 -5 -5 -5 -5 -5 -5 -5 -5 -5 -5 -5 -5 -5 -5 -4 0 22 89 89 22 0 -4 -5 -5 -5 -5 -5 -5 -5 -5 -5 -5 -5 -5 -5 -5 -5 -5 -5 -5 -5 -5 -5 -5 -5 -5 -4 -1 13 55 109 85 50 94 
90 22 0 -4 -5 -5 -5 -5 -5 -5 -4 0 23 81 109 54 12 -2 -5 -5 -5 -5 -5 -5 -5 -5 -5 -5 -5 -5 -5 -5 -5 -5 -5 -5 -5 -5 -5 -5 -5 -5 -5 -5 -5 -5 -5 -5 -5 -5 -5 -5 -5 -5 -5 -5 -5 -5 -5 -5 -5 -5 -5 -5 -5 -5 -5 -5 -5 -5 -4 0 22 89 91 23 0 -4 -5 -5 -5 -5 -5 -5 -5 -5 -5 -5 -5 -5 -5 -5 -5 -5 -5 -5 -5 -5 -5 -5 -5 -5 -5 -4 0 23 81 112 79 103 
92 22 0 -4 -5 -5 -5 -5 -5 -4 0 13 55 109 82 24 1 -4 -5 -5 -5 -5 -5 -5 -5 -5 -5 -5 -5 -5 -5 -5 -5 -5 -5 -5 -5 -5 -5 -5 -5 -5 -5 -5 -5 -5 -5 -5 -5 -5 -5 -5 -5 -5 -5 -5 -5 -5 -5 -5 -5 -5 -5 -5 -5 -5 -5 -5 -5 -5 -4 0 22 88 97 30 2 -4 -5 -5 -5 -5 -5 -5 -5 -5 -5 -5 -5 -5 -5 -5 -5 -5 -5 -5 -5 -5 -5 -5 -5 -5 -5 -5 -3 6 40 103 121 124 
94 22 0 -5 -5 -5 -5 -5 -4 -1 13 51 105 104 45 10 0 -3 -4 -4 -4 -4 -4 -4 -4 -4 -5 -5 -5 -5 -5 -5 -5 -5 -5 -5 -5 -5 -5 -5 -5 -5 -5 -5 -5 -5 -5 -5 -5 -5 -5 -5 -5 -5 -5 -5 -5 -5 -5 -5 -5 -5 -5 -5 -5 -5 -5 -5 -5 -5 -3 3 26 90 121 58 15 1 -3 -4 -5 -5 -5 -5 -5 -5 -5 -5 -5 -5 -5 -5 -5 -5 -5 -5 -5 -5 -5 -5 -5 -5 -5 -5 -5 -2 11 54 120 148 
96 22 0 -5 -5 -5 -5 -4 -1 12 51 111 122 75 38 24 16 5 0 0 0 0 0 0 0 0 0 -1 -1 -3 -4 -4 -4 -4 -4 -4 -4 -5 -5 -5 -5 -5 -5 -5 -5 -5 -5 -5 -5 -5 -5 -5 -5 -5 -5 -5 -5 -5 -5 -5 -5 -5 -5 -5 -5 -5 -5 -5 -4 -2 5 23 53 110 152 117 56 23 6 0 -3 -5 -5 -5 -5 -5 -5 -5 -5 -5 -5 -5 -5 -5 -5 -5 -5 -5 -5 -5 -5 -5 -5 -5 -5 -4 0 23 86 153 
94 22 0 -4 -5 -5 -4 0 13 51 115 153 131 104 92 86 73 44 28 23 22 22 22 22 22 22 22 20 15 5 0 0 0 0 0 0 0 0 -1 -1 -3 -4 -4 -4 -4 -4 -4 -4 -4 -5 -5 -5 -5 -5 -5 -5 -5 -5 -5 -5 -5 -5 -5 -5 -5 -5 -4 -3 0 11 40 81 110 117 114 121 112 82 45 21 5 -2 -4 -5 -5 -5 -5 -5 -5 -5 -5 -5 -5 -5 -5 -5 -5 -5 -5 -5 -5 -5 -5 -5 -5 -5 -3 7 47 125 
90 22 0 -4 -5 -4 0 13 50 105 121 106 95 91 91 96 109 109 96 90 89 89 89 89 89 89 88 85 73 44 28 23 22 22 22 22 22 22 20 15 5 0 0 0 0 0 0 0 0 0 -1 -1 -3 -4 -4 -4 -4 -4 -4 -4 -5 -5 -5 -5 -5 -3 0 6 23 54 101 109 82 48 34 48 82 108 108 80 40 11 0 -3 -4 -5 -5 -5 -5 -5 -5 -5 -5 -5 -5 -5 -5 -5 -5 -5 -5 -5 -5 -5 -5 -5 -4 1 28 99 
89 22 0 -4 -4 0 13 50 103 104 57 30 23 22 23 28 44 73 85 88 89 89 89 89 89 89 90 96 109 109 96 90 89 89 89 89 89 88 85 73 44 28 23 22 22 22 22 22 22 22 20 15 5 0 0 0 0 0 0 0 0 -1 -1 -3 -1 5 21 45 82 109 101 54 23 7 2 7 22 45 82 109 101 54 23 6 0 -3 -5 -5 -5 -5 -5 -5 -5 -5 -5 -5 -5 -5 -5 -5 -5 -5 -5 -5 -5 -5 -4 0 23 91 
89 22 0 -2 1 14 50 103 103 50 14 2 0 0 0 0 5 15 20 22 22 22 22 22 22 22 23 28 44 73 85 88 89 89 89 89 89 90 96 109 109 96 90 89 89 89 89 89 89 88 85 73 44 28 23 22 22 22 22 22 22 20 16 8 13 41 80 108 108 80 40 11 0 -3 -4 -3 0 6 23 54 101 109 82 45 21 5 -2 -4 -5 -5 -5 -5 -5 -5 -5 -5 -5 -5 -5 -5 -5 -5 -5 -5 -5 -5 -4 0 22 89 
89 23 2 6 23 55 103 103 50 13 0 -4 -4 -4 -4 -4 -3 -1 -1 0 0 0 0 0 0 0 0 0 5 15 20 22 22 22 22 22 22 23 28 44 73 85 88 89 89 89 89 89 89 90 96 109 109 96 90 89 89 89 89 89 88 86 74 53 62 103 109 82 45 21 5 -2 -4 -5 -5 -5 -4 -3 0 11 40 80 108 108 80 40 11 0 -3 -4 -5 -5 -5 -5 -5 -5 -5 -5 -5 -5 -5 -5 -5 -5 -5 -5 -4 0 22 89 
90 26 15 41 81 109 101 49 12 0 -4 -5 -5 -5 -5 -5 -5 -5 -5 -5 -4 -4 -4 -4 -4 -4 -4 -4 -3 -1 -1 0 0 0 0 0 0 0 0 5 15 20 22 22 22 22 22 22 22 23 28 44 73 85 88 89 89 89 89 89 90 97 116 129 131 108 55 23 6 0 -3 -5 -5 -5 -5 -5 -5 -5 -4 -2 5 21 45 82 109 101 54 23 6 0 -3 -5 -5 -5 -5 -5 -5 -5 -5 -5 -5 -5 -5 -5 -5 -5 -4 0 22 89 
93 40 54 101 109 81 40 11 -1 -4 -5 -5 -5 -5 -5 -5 -5 -5 -5 -5 -5 -5 -5 -5 -5 -5 -5 -5 -5 -5 -5 -5 -4 -4 -4 -4 -4 -4 -4 -3 -1 -1 0 0 0 0 0 0 0 0 0 5 15 20 22 22 22 22 22 22 23 31 64 132 131 58 15 1 -3 -4 -5 -5 -5 -5 -5 -5 -5 -5 -5 -5 -3 0 6 23 54 101 109 82 45 21 5 -2 -4 -5 -5 -5 -5 -5 -5 -5 -5 -5 -5 -5 -5 -5 -4 0 22 89 
104 75 106 104 55 23 5 -2 -4 -5 -5 -5 -5 -5 -5 -5 -5 -5 -5 -5 -5 -5 -5 -5 -5 -5 -5 -5 -5 -5 -5 -5 -5 -5 -5 -5 -5 -5 -5 -5 -5 -5 -5 -4 -4 -4 -4 -4 -4 -4 -4 -3 -1 -1 0 0 0 0 0 0 0 5 31 102 101 30 2 -4 -5 -5 -5 -5 -5 -5 -5 -5 -5 -5 -5 -5 -5 -4 -3 0 11 40 80 108 108 80 40 11 0 -3 -4 -5 -5 -5 -5 -5 -5 -5 -5 -5 -5 -5 -4 0 22 90 
130 122 105 50 13 0 -3 -5 -5 -5 -5 -5 -5 -5 -5 -5 -5 -5 -5 -5 -5 -5 -5 -5 -5 -5 -5 -5 -5 -5 -5 -5 -5 -5 -5 -5 -5 -5 -5 -5 -5 -5 -5 -5 -5 -5 -5 -5 -5 -5 -5 -5 -5 -5 -5 -4 -4 -4 -4 -4 -4 0 23 91 91 23 0 -4 -5 -5 -5 -5 -5 -5 -5 -5 -5 -5 -5 -5 -5 -5 -5 -4 -2 5 21 45 82 109 101 54 23 6 0 -3 -4 -5 -5 -5 -5 -5 -5 -5 -5 -5 -5 0 22 93 
154 112 51 13 0 -4 -5 -5 -5 -5 -5 -5 -5 -5 -5 -5 -5 -5 -5 -5 -5 -5 -5 -5 -5 -5 -5 -5 -5 -5 -5 -5 -5 -5 -5 -5 -5 -5 -5 -5 -5 -5 -5 -5 -5 -5 -5 -5 -5 -5 -5 -5 -5 -5 -5 -5 -5 -5 -5 -5 -4 0 22 89 89 22 0 -4 -5 -5 -5 -5 -5 -5 -5 -5 -5 -5 -5 -5 -5 -5 -5 -5 -5 -3 0 6 23 54 101 109 82 45 21 6 0 -3 -5 -5 -5 -5 -5 -5 -5 -5 -5 0 22 96 
128 58 14 0 -4 -5 -5 -5 -5 -5 -5 -5 -5 -5 -5 -5 -5 -5 -5 -5 -5 -5 -5 -5 -5 -5 -5 -5 -5 -5 -5 -5 -5 -5 -5 -5 -5 -5 -5 -5 -5 -5 -5 -5 -5 -5 -5 -5 -5 -5 -5 -5 -5 -5 -5 -5 -5 -5 -5 -5 -4 0 22 89 89 22 0 -4 -5 -5 -5 -5 -5 -5 -5 -5 -5 -5 -5 -5 -5 -5 -5 -5 -5 -5 -4 -3 0 11 40 80 108 108 81 45 21 5 -2 -4 -5 -5 -5 -5 -5 -5 -4 0 22 94 
100 30 2 -4 -5 -5 -5 -5 -5 -5 -5 -5 -5 -5 -5 -5 -5 -5 -5 -5 -5 -5 -5 -5 -5 -5 -5 -5 -5 -5 -5 -5 -5 -5 -5 -5 -5 -5 -5 -5 -5 -5 -5 -5 -5 -5 -5 -5 -5 -5 -5 -5 -5 -5 -5 -5 -5 -5 -5 -5 -4 0 22 89 89 22 0 -4 -5 -5 -5 -5 -5 -5 -5 -5 -5 -5 -5 -5 -5 -5 -5 -5 -5 -5 -5 -5 -4 -2 5 21 45 81 108 108 80 40 11 0 -3 -4 -4 -5 -5 -5 -4 0 22 91 
91 23 0 -4 -5 -5 -5 -5 -5 -5 -5 -5 -5 -5 -5 -5 -5 -5 -5 -5 -5 -5 -5 -5 -5 -5 -5 -5 -5 -5 -5 -5 -5 -5 -5 -5 -5 -5 -5 -5 -5 -5 -5 -5 -5 -5 -5 -5 -5 -5 -5 -5 -5 -5 -5 -5 -5 -5 -5 -5 -4 0 22 89 89 22 0 -4 -5 -5 -5 -5 -5 -5 -5 -5 -5 -5 -5 -5 -5 -5 -5 -5 -5 -5 -5 -5 -5 -5 -3 0 6 21 45 82 109 101 54 23 7 0 0 -1 -3 -4 -4 0 22 89 
89 22 0 -4 -5 -5 -5 -5 -5 -5 -5 -5 -5 -5 -5 -5 -5 -5 -5 -5 -5 -5 -5 -5 -5 -5 -5 -5 -5 -5 -5 -5 -5 -5 -5 -5 -5 -5 -5 -5 -5 -5 -5 -5 -5 -5 -5 -5 -5 -5 -5 -5 -5 -5 -5 -5 -5 -5 -5 -5 -4 0 22 89 89 22 0 -4 -5 -5 -5 -5 -5 -5 -5 -5 -5 -5 -5 -5 -5 -5 -5 -5 -5 -5 -5 -5 -5 -5 -5 -4 -3 0 7 24 56 105 114 86 47 28 21 15 5 0 0 2 24 90 
90 22 0 -4 -5 -5 -5 -5 -5 -5 -5 -5 -5 -5 -5 -5 -5 -5 -5 -5 -5 -5 -5 -5 -5 -5 -5 -5 -5 -5 -5 -5 -5 -5 -5 -5 -5 -5 -5 -5 -5 -5 -5 -5 -5 -5 -5 -5 -5 -5 -5 -5 -5 -5 -5 -5 -5 -5 -5 -5 -4 0 22 89 89 22 0 -4 -5 -5 -5 -5 -5 -5 -5 -5 -5 -5 -5 -5 -5 -5 -5 -5 -5 -5 -5 -5 -5 -5 -5 -5 -4 -3 0 7 24 66 120 150 126 99 87 73 44 27 22 20 33 93 
92 22 0 -4 -4 -4 -5 -5 -5 -5 -5 -5 -5 -5 -5 -5 -5 -5 -5 -5 -5 -5 -5 -5 -5 -5 -5 -5 -5 -5 -5 -5 -5 -5 -5 -5 -5 -5 -5 -5 -5 -5 -5 -5 -5 -5 -5 -5 -5 -5 -5 -5 -5 -5 -5 -5 -5 -5 -5 -5 -4 0 22 89 89 22 0 -4 -5 -5 -5 -5 -5 -5 -5 -5 -5 -5 -5 -5 -5 -5 -5 -5 -5 -5 -5 -5 -5 -5 -4 -3 0 5 17 27 49 91 125 126 104 94 96 109 109 95 87 77 69 110 
99 26 4 0 0 0 0 -1 -1 -3 -4 -4 -4 -4 -5 -5 -5 -5 -5 -5 -5 -5 -5 -5 -5 -5 -5 -5 -5 -5 -5 -5 -5 -5 -5 -5 -5 -5 -5 -5 -5 -5 -5 -5 -5 -5 -5 -5 -5 -5 -5 -5 -5 -5 -5 -5 -5 -5 -5 -5 -4 0 22 89 89 22 0 -4 -5 -5 -5 -5 -5 -5 -5 -5 -5 -5 -5 -5 -5 -5 -5 -5 -5 -5 -5 -4 -3 -1 0 6 21 43 74 93 110 108 82 47 28 24 28 44 73 87 95 112 126 147 
112 47 26 22 22 22 22 20 15 5 0 0 0 0 0 -1 -1 -3 -4 -4 -4 -4 -4 -5 -5 -5 -5 -5 -5 -5 -5 -5 -5 -5 -5 -5 -5 -5 -5 -5 -5 -5 -5 -5 -5 -5 -5 -5 -5 -5 -5 -5 -5 -5 -5 -5 -5 -5 -5 -5 -4 0 22 89 89 22 0 -4 -5 -5 -5 -5 -5 -5 -5 -5 -5 -5 -5 -5 -5 -5 -5 -5 -5 -4 -3 0 5 16 26 46 81 108 109 92 74 43 21 6 1 0 0 5 15 21 28 48 92 141 
144 107 92 90 89 89 88 85 73 44 28 23 22 22 22 20 15 5 0 0 0 0 0 0 -1 -1 -3 -4 -4 -4 -4 -5 -5 -5 -5 -5 -5 -5 -5 -5 -5 -5 -5 -5 -5 -5 -5 -5 -5 -5 -5 -5 -5 -5 -5 -5 -5 -5 -5 -5 -4 0 22 89 89 22 0 -4 -5 -5 -5 -5 -5 -5 -5 -5 -5 -5 -5 -5 -5 -5 -4 -3 -1 0 6 21 43 74 92 109 108 81 46 26 16 5 0 -3 -4 -4 -4 -3 -1 0 1 10 41 111 
142 107 92 90 89 89 90 96 109 109 96 90 89 89 88 85 73 44 28 23 22 22 22 22 20 15 5 0 0 0 0 0 -1 -1 -3 -4 -4 -4 -4 -4 -5 -5 -5 -5 -5 -5 -5 -5 -5 -5 -5 -5 -5 -5 -5 -5 -5 -5 -5 -5 -4 0 22 89 89 22 0 -4 -5 -5 -5 -5 -5 -5 -5 -5 -5 -5 -5 -5 -4 -3 0 5 16 26 46 81 108 109 92 74 43 21 6 0 -1 -3 -4 -5 -5 -5 -5 -5 -5 -4 -4 1 25 98 
105 47 26 22 22 22 23 28 44 73 85 88 89 89 90 96 109 109 96 90 89 89 89 88 85 73 44 28 23 22 22 22 20 15 5 0 0 0 0 0 0 -1 -1 -3 -4 -4 -4 -4 -5 -5 -5 -5 -5 -5 -5 -5 -5 -5 -5 -5 -4 0 22 89 89 22 0 -4 -5 -5 -5 -5 -5 -5 -5 -5 -5 -5 -4 -3 0 6 21 43 74 92 109 108 81 46 26 16 5 0 -3 -4 -5 -5 -5 -5 -5 -5 -5 -5 -5 -5 -4 0 22 91 
92 26 4 0 0 0 0 0 5 15 20 22 22 22 23 28 44 73 85 88 89 89 89 90 96 109 109 96 90 89 89 88 85 73 44 28 23 22 22 22 22 20 15 5 0 0 0 0 0 -1 -1 -3 -4 -4 -4 -4 -4 -5 -5 -5 -4 0 22 89 89 22 0 -4 -5 -5 -5 -5 -5 -5 -5 -4 -3 -1 0 6 21 45 81 108 109 92 74 43 21 6 0 -1 -3 -4 -5 -5 -5 -5 -5 -5 -5 -5 -5 -5 -5 -5 -4 0 22 89 
89 22 0 -4 -4 -4 -4 -4 -3 -1 -1 0 0 0 0 0 5 15 20 22 22 22 22 23 28 44 73 85 88 89 89 90 96 109 109 96 90 89 89 89 88 85 73 44 28 23 22 22 22 20 15 5 0 0 0 0 0 0 -1 -1 -3 0 23 89 89 22 0 -4 -5 -5 -5 -5 -5 -4 -3 0 5 16 26 46 81 108 108 81 46 26 16 5 0 -3 -4 -5 -5 -5 -5 -5 -5 -5 -5 -5 -5 -5 -5 -5 -5 -5 -4 0 22 89 
89 22 0 -4 -5 -5 -5 -5 -5 -5 -5 -5 -4 -4 -4 -4 -3 -1 -1 0 0 0 0 0 0 5 15 20 22 22 22 23 28 44 73 85 88 89 89 89 90 96 109 109 96 90 89 89 88 85 73 44 28 23 22 22 22 22 20 15 6 5 27 92 91 23 0 -4 -5 -5 -4 -3 -1 0 6 21 43 74 92 109 108 81 45 21 6 0 -1 -3 -4 -5 -5 -5 -5 -5 -5 -5 -5 -5 -5 -5 -5 -5 -5 -5 -5 -5 -4 0 22 89 
89 22 0 -4 -5 -5 -5 -5 -5 -5 -5 -5 -5 -5 -5 -5 -5 -5 -5 -5 -4 -4 -4 -4 -4 -3 -1 -1 0 0 0 0 0 5 15 20 22 22 22 22 23 28 44 73 85 88 89 89 90 96 109 109 96 90 89 89 89 88 85 73 45 32 48 107 102 30 2 -3 -4 -3 0 5 16 26 46 81 108 109 92 74 43 21 6 0 -3 -4 -5 -5 -5 -5 -5 -5 -5 -5 -5 -5 -5 -5 -5 -5 -5 -5 -5 -5 -5 -5 -4 0 22 89 
89 22 0 -4 -5 -5 -5 -5 -5 -5 -5 -5 -5 -5 -5 -5 -5 -5 -5 -5 -5 -5 -5 -5 -5 -5 -5 -5 -5 -4 -4 -4 -4 -3 -1 -1 0 0 0 0 0 0 5 15 20 22 22 22 23 28 44 73 85 88 89 89 89 90 96 109 110 98 107 142 131 58 15 2 1 7 21 43 74 92 109 108 81 46 26 16 5 0 -3 -4 -5 -5 -5 -5 -5 -5 -5 -5 -5 -5 -5 -5 -5 -5 -5 -5 -5 -5 -5 -5 -5 -5 -4 0 22 89 
89 22 0 -4 -5 -5 -5 -5 -5 -5 -5 -5 -5 -5 -5 -5 -5 -5 -5 -5 -5 -5 -5 -5 -5 -5 -5 -5 -5 -5 -5 -5 -5 -5 -5 -5 -5 -4 -4 -4 -4 -4 -3 -1 -1 0 0 0 0 0 5 15 20 22 22 22 22 23 28 44 73 86 92 106 123 108 57 31 29 47 81 108 109 92 74 43 21 6 0 -1 -3 -4 -5 -5 -5 -5 -5 -5 -5 -5 -5 -5 -5 -5 -5 -5 -5 -5 -5 -5 -5 -5 -5 -5 -5 -5 -4 0 22 89 
89 22 0 -4 -5 -5 -5 -5 -5 -5 -5 -5 -5 -5 -5 -5 -5 -5 -5 -5 -5 -5 -5 -5 -5 -5 -5 -5 -5 -5 -5 -5 -5 -5 -5 -5 -5 -5 -5 -5 -5 -5 -5 -5 -5 -5 -4 -4 -4 -4 -3 -1 -1 0 0 0 0 0 0 5 15 20 23 30 57 108 124 107 100 110 108 81 46 26 16 5 0 -3 -4 -5 -5 -5 -5 -5 -5 -5 -5 -5 -5 -5 -5 -5 -5 -5 -5 -5 -5 -5 -5 -5 -5 -5 -5 -5 -5 -5 -4 0 22 89 
89 22 0 -4 -5 -5 -5 -5 -5 -5 -5 -5 -5 -5 -5 -5 -5 -5 -5 -5 -5 -5 -5 -5 -5 -5 -5 -5 -5 -5 -5 -5 -5 -5 -5 -5 -5 -5 -5 -5 -5 -5 -5 -5 -5 -5 -5 -5 -5 -5 -5 -5 -5 -4 -4 -4 -4 -4 -4 -3 -1 0 0 2 15 58 131 142 102 76 43 21 6 0 -1 -3 -4 -5 -5 -5 -5 -5 -5 -5 -5 -5 -5 -5 -5 -5 -5 -5 -5 -5 -5 -5 -5 -5 -5 -5 -5 -5 -5 -5 -5 -5 -4 0 22 89 
89 22 0 -4 -5 -5 -5 -5 -5 -5 -5 -5 -5 -5 -5 -5 -5 -5 -5 -5 -5 -5 -5 -5 -5 -5 -5 -5 -5 -5 -5 -5 -5 -5 -5 -5 -5 -5 -5 -5 -5 -5 -5 -5 -5 -5 -5 -5 -5 -5 -5 -5 -5 -5 -5 -5 -5 -5 -5 -5 -5 -4 -4 -3 2 30 102 107 46 20 6 0 -3 -4 -5 -5 -5 -5 -5 -5 -5 -5 -5 -5 -5 -5 -5 -5 -5 -5 -5 -5 -5 -5 -5 -5 -5 -5 -5 -5 -5 -5 -5 -5 -5 -5 -4 0 22 89 
90 22 0 -4 -4 -4 -4 -4 -4 -4 -4 -4 -4 -4 -4 -4 -4 -4 -4 -4 -4 -4 -4 -4 -4 -4 -4 -4 -4 -4 -4 -4 -5 -5 -5 -4 -4 -4 -4 -4 -4 -4 -4 -4 -4 -4 -4 -4 -4 -5 -5 -4 -4 -4 -4 -4 -4 -4 -4 -4 -4 -4 -4 -4 0 24 92 93 27 3 -2 -4 -4 -4 -4 -4 -4 -4 -4 -4 -4 -4 -4 -4 -4 -4 -4 -4 -4 -4 -4 -5 -5 -5 -4 -4 -4 -4 -4 -4 -4 -4 -4 -5 -4 -4 -4 0 22 90 
92 26 4 0 0 0 0 0 0 0 0 0 0 0 0 0 0 0 0 0 0 0 0 0 0 0 0 0 0 0 0 0 0 0 0 0 0 0 0 0 0 0 0 0 0 0 0 0 0 0 0 0 0 0 0 0 0 0 0 0 0 0 0 0 4 27 93 93 27 4 0 0 0 0 0 0 0 0 0 0 0 0 0 0 0 0 0 0 0 0 0 0 0 0 0 0 0 0 0 0 0 0 0 0 0 0 0 4 26 92 
108 47 26 22 22 22 22 22 22 22 22 22 22 22 22 22 22 22 22 22 22 22 22 22 22 22 22 22 22 22 22 22 22 22 22 22 22 22 22 22 22 22 22 22 22 22 22 22 22 22 22 22 22 22 22 22 22 22 22 22 22 22 22 22 26 47 107 107 47 26 22 22 22 22 22 22 22 22 22 22 22 22 22 22 22 22 22 22 22 22 22 22 22 22 22 22 22 22 22 22 22 22 22 22 22 22 22 26 47 108 
150 108 92 90 89 89 89 89 89 89 89 89 89 89 89 89 89 89 89 89 89 89 89 89 89 89 89 89 89 89 89 90 93 96 94 91 89 89 89 89 89 89 89 89 89 89 89 89 91 95 95 91 89 89 89 89 89 89 89 89 89 89 89 89 92 105 142 142 105 92 89 89 89 89 89 89 89 89 89 89 89 89 89 89 89 89 89 89 89 89 90 92 96 94 91 89 89 89 89 89 89 89 90 92 96 94 91 93 108 150 
