P2
110 110
255
151 111 95 91 91 91 91 91 91 91 91 91 91 91 91 91 91 91 91 91 91 91 91 91 91 91 91 91 91 91 94 106 133 153 129 102 93 91 91 91 91 91 91 91 91 91 91 94 108 143 143 108 94 91 91 91 91 91 91 91 91 91 91 91 91 93 97 97 93 91 91 91 91 91 91 91 91 91 91 91 91 91 91 91 91 91 91 91 91 93 101 127 153 130 102 93 91 91 91 91 91 92 100 125 153 130 103 97 111 151 
111 52 30 26 25 25 25 25 25 25 25 25 25 25 25 25 25 25 25 25 25 25 25 25 25 25 25 25 25 27 38 72 122 114 62 34 26 25 25 25 25 25 25 25 25 25 26 30 54 112 111 52 30 26 25 25 25 25 25 25 25 25 25 25 25 25 25 25 25 25 25 25 25 25 25 25 25 25 25 25 25 25 25 25 25 25 25 25 26 31 53 107 122 67 35 27 25 25 25 25 25 29 47 99 124 69 36 32 53 111 
95 30 6 1 0 0 0 0 0 0 0 0 0 0 0 0 0 0 0 0 0 0 0 0 0 0 0 0 1 8 32 87 112 59 18 4 1 0 0 0 0 0 0 0 0 0 1 8 37 105 96 30 6 1 0 0 0 0 0 0 0 0 0 0 0 0 0 0 0 0 0 0 0 0 0 0 0 0 0 0 0 0 0 0 0 0 0 0 2 13 52 111 85 28 6 1 0 0 0 0 1 6 30 93 99 35 8 7 30 95 
91 26 1 -3 -4 -4 -4 -4 -4 -4 -4 -4 -4 -4 -4 -4 -4 -4 -4 -4 -4 -4 -4 -4 -4 -4 -4 -3 0 15 58 110 83 26 2 -3 -4 -4 -4 -4 -4 -4 -4 -4 -4 -4 -1 9 52 126 96 26 1 -3 -4 -4 -4 -4 -4 -4 -4 -4 -4 -4 -4 -4 -4 -4 -4 -4 -4 -4 -4 -4 -4 -4 -4 -4 -4 -4 -4 -4 -4 -4 -4 -4 -4 -3 0 19 77 110 50 9 -1 -4 -4 -4 -4 -4 -3 3 32 97 88 25 2 2 26 91 
91 25 0 -4 -5 -5 -5 -5 -5 -5 -5 -5 -5 -5 -5 -5 -5 -5 -5 -5 -5 -5 -5 -5 -5 -5 -4 -2 8 43 101 101 43 8 -2 -4 -5 -5 -5 -5 -5 -5 -5 -5 -5 -4 1 24 88 151 98 25 0 -4 -5 -5 -5 -5 -5 -5 -5 -5 -5 -5 -5 -5 -5 -5 -5 -5 -5 -5 -5 -5 -5 -5 -5 -5 -5 -5 -5 -5 -5 -5 -5 -5 -5 -4 2 30 94 94 30 2 -4 -5 -5 -5 -5 -4 -2 8 48 109 75 18 0 1 25 91 
91 25 0 -4 -5 -5 -5 -5 -5 -5 -5 -5 -5 -5 -5 -5 -5 -5 -5 -5 -5 -5 -5 -5 -5 -5 -3 2 26 83 109 57 14 0 -4 -5 -5 -5 -5 -5 -5 -5 -5 -5 -4 -2 8 48 119 149 97 25 0 -4 -5 -5 -5 -5 -5 -5 -5 -5 -5 -5 -5 -5 -5 -5 -5 -5 -5 -5 -5 -5 -5 -5 -5 -5 -5 -5 -5 -5 -5 -5 -5 -5 -4 -2 9 50 109 76 19 0 -4 -5 -5 -5 -5 -4 0 18 75 109 48 8 -2 0 25 91 
91 25 0 -4 -5 -5 -5 -5 -5 -5 -5 -5 -5 -5 -5 -5 -5 -5 -5 -5 -5 -5 -5 -5 -5 -4 0 14 57 109 83 26 2 -3 -5 -5 -5 -5 -5 -5 -5 -5 -5 -5 -4 1 24 84 127 130 95 26 0 -4 -5 -5 -5 -5 -5 -5 -5 -5 -5 -5 -5 -5 -5 -5 -5 -5 -5 -5 -5 -5 -5 -5 -5 -5 -5 -5 -5 -5 -5 -5 -5 -5 -4 1 24 83 108 46 7 -3 -4 -5 -5 -5 -5 -4 0 24 88 97 31 2 -3 0 25 91 
91 25 0 -4 -5 -5 -5 -5 -5 -5 -5 -5 -5 -5 -5 -5 -5 -5 -5 -5 -5 -5 -5 -5 -4 -2 8 43 101 101 43 8 -2 -4 -5 -5 -5 -5 -5 -5 -5 -5 -5 -4 -2 9 48 110 106 110 99 31 2 -4 -5 -5 -5 -5 -5 -5 -5 -5 -5 -5 -5 -5 -5 -5 -5 -5 -5 -5 -5 -5 -5 -5 -5 -5 -5 -5 -5 -5 -5 -5 -5 -4 -3 7 46 108 83 24 1 -4 -5 -5 -5 -5 -5 -4 2 31 97 88 24 0 -3 0 25 91 
91 25 0 -4 -5 -5 -5 -5 -5 -5 -5 -5 -5 -5 -5 -5 -5 -5 -5 -5 -5 -5 -5 -5 -3 2 26 83 109 57 14 0 -4 -5 -5 -5 -5 -5 -5 -5 -5 -5 -5 -3 2 26 84 111 69 86 110 48 7 -3 -4 -5 -5 -5 -5 -5 -5 -5 -5 -5 -5 -5 -5 -5 -5 -5 -5 -5 -5 -5 -5 -5 -5 -5 -5 -5 -5 -5 -5 -5 -5 -4 0 19 76 109 50 9 -2 -4 -5 -5 -5 -5 -4 -3 7 48 109 75 18 0 -3 0 25 91 
91 25 0 -4 -5 -5 -5 -5 -5 -5 -5 -5 -5 -5 -5 -5 -5 -5 -5 -5 -5 -5 -5 -4 0 14 57 109 83 26 2 -3 -5 -5 -5 -5 -5 -5 -5 -5 -5 -5 -4 0 14 57 109 84 37 54 110 74 17 0 -4 -5 -5 -5 -5 -5 -5 -5 -5 -5 -5 -5 -5 -5 -5 -5 -5 -5 -5 -5 -5 -5 -5 -5 -5 -5 -5 -5 -5 -5 -5 -4 2 30 94 94 30 2 -4 -5 -5 -5 -5 -5 -4 0 18 75 109 48 7 -2 -4 0 25 91 
91 25 0 -4 -5 -5 -5 -5 -5 -5 -5 -5 -5 -5 -5 -5 -5 -5 -5 -5 -5 -5 -4 -2 8 43 101 101 43 8 -2 -4 -5 -5 -5 -5 -5 -5 -5 -5 -5 -4 -2 7 43 101 102 44 15 34 98 87 23 0 -4 -5 -5 -5 -5 -5 -5 -5 -5 -5 -5 -5 -5 -5 -5 -5 -5 -5 -5 -5 -5 -5 -5 -5 -5 -5 -5 -5 -5 -5 -4 -2 9 50 109 76 19 0 -4 -5 -5 -5 -5 -5 -4 0 24 88 97 31 2 -4 -4 0 25 91 
91 25 0 -4 -5 -5 -5 -5 -5 -5 -5 -5 -5 -5 -5 -5 -5 -5 -5 -5 -5 -5 -3 2 26 83 109 57 14 0 -4 -5 -5 -5 -5 -5 -5 -5 -5 -5 -5 -4 1 24 82 109 57 15 5 27 92 90 24 0 -4 -5 -5 -5 -5 -5 -5 -5 -5 -5 -5 -5 -5 -5 -5 -5 -5 -5 -5 -5 -5 -5 -5 -5 -5 -5 -5 -5 -5 -5 -4 1 24 83 108 46 7 -3 -4 -5 -5 -5 -5 -5 -4 2 31 97 88 24 0 -4 -4 0 25 91 
93 26 1 -4 -5 -5 -5 -5 -5 -5 -5 -5 -5 -5 -5 -5 -5 -5 -5 -5 -5 -4 0 14 57 109 83 26 2 -3 -5 -5 -5 -5 -5 -5 -5 -5 -5 -5 -4 -2 8 48 108 84 26 3 1 25 91 91 25 0 -4 -5 -5 -5 -5 -5 -5 -5 -5 -5 -5 -5 -5 -5 -5 -5 -5 -5 -5 -5 -5 -5 -5 -5 -5 -5 -5 -5 -5 -4 -3 7 46 108 83 24 1 -4 -5 -5 -5 -5 -5 -4 -3 7 48 109 75 18 0 -4 -4 0 25 91 
102 34 4 -3 -5 -5 -5 -5 -5 -5 -5 -5 -5 -5 -5 -5 -5 -5 -5 -5 -4 -2 8 43 101 101 43 8 -2 -4 -5 -5 -5 -5 -5 -5 -5 -5 -5 -5 -4 1 24 83 108 48 9 -1 0 24 90 92 26 0 -4 -5 -5 -5 -5 -5 -5 -5 -5 -5 -5 -5 -5 -5 -5 -5 -5 -5 -5 -5 -5 -5 -5 -5 -5 -5 -5 -5 -5 -4 0 19 76 109 50 9 -2 -4 -5 -5 -5 -5 -5 -4 0 18 75 109 48 7 -3 -4 -4 0 25 92 
129 62 17 0 -4 -5 -5 -5 -5 -5 -5 -5 -5 -5 -5 -5 -5 -5 -5 -5 -3 2 26 83 109 57 14 0 -4 -5 -5 -5 -5 -5 -5 -5 -5 -5 -5 -4 -2 9 48 108 83 24 1 -3 0 23 87 97 31 2 -4 -5 -5 -5 -5 -5 -5 -5 -5 -5 -5 -5 -5 -5 -5 -5 -5 -5 -5 -5 -5 -5 -5 -5 -5 -5 -5 -5 -5 -4 2 30 94 94 30 2 -4 -5 -5 -5 -5 -5 -5 -4 0 24 88 97 31 2 -4 -5 -4 0 25 96 
153 113 54 15 0 -4 -5 -5 -5 -5 -5 -5 -5 -5 -5 -5 -5 -5 -5 -4 0 14 57 109 83 26 2 -3 -5 -5 -5 -5 -5 -5 -5 -5 -5 -5 -5 -3 2 26 84 108 48 8 -2 -4 0 17 74 109 48 7 -3 -4 -5 -5 -5 -5 -5 -5 -5 -5 -5 -5 -5 -5 -5 -5 -5 -5 -5 -5 -5 -5 -5 -5 -5 -5 -5 -5 -4 -2 9 50 109 76 19 0 -4 -5 -5 -5 -5 -5 -5 -4 2 31 97 88 24 0 -4 -5 -4 0 25 98 
133 124 105 52 13 -1 -4 -5 -5 -5 -5 -5 -5 -5 -5 -5 -5 -5 -4 -2 8 43 101 101 43 8 -2 -4 -5 -5 -5 -5 -5 -5 -5 -5 -5 -5 -4 0 14 57 109 82 24 1 -4 -4 -3 7 48 109 74 17 0 -4 -5 -5 -5 -5 -5 -5 -5 -5 -5 -5 -5 -5 -5 -5 -5 -5 -5 -5 -5 -5 -5 -5 -5 -5 -5 -5 -4 1 24 83 108 46 7 -3 -4 -5 -5 -5 -5 -5 -4 -3 7 48 109 75 18 0 -4 -5 -4 0 25 95 
107 81 108 101 43 8 -2 -4 -5 -5 -5 -5 -5 -5 -5 -5 -5 -5 -3 2 26 83 109 57 14 0 -4 -5 -5 -5 -5 -5 -5 -5 -5 -5 -5 -4 -2 7 43 101 101 43 7 -2 -4 -5 -4 2 31 97 87 23 0 -4 -5 -5 -5 -5 -5 -5 -5 -5 -5 -5 -5 -5 -5 -5 -5 -5 -5 -5 -5 -5 -5 -5 -5 -5 -5 -4 -3 7 46 108 83 24 1 -4 -5 -5 -5 -5 -5 -5 -4 0 18 75 109 48 7 -3 -4 -5 -4 0 25 92 
95 46 63 110 83 26 2 -3 -5 -5 -5 -5 -5 -5 -5 -5 -5 -4 0 14 57 109 83 26 2 -3 -5 -5 -5 -5 -5 -5 -5 -5 -5 -5 -5 -4 1 24 82 109 57 14 0 -4 -5 -5 -4 0 26 92 90 24 0 -4 -5 -5 -5 -5 -5 -5 -5 -5 -5 -5 -5 -5 -5 -5 -5 -5 -5 -5 -5 -5 -5 -5 -5 -5 -5 -4 0 19 76 109 50 9 -2 -4 -5 -5 -5 -5 -5 -5 -4 0 24 88 97 31 2 -4 -5 -5 -4 0 25 91 
92 32 32 83 109 58 16 0 -4 -5 -5 -5 -5 -5 -5 -5 -4 -2 8 43 101 101 43 8 -2 -4 -5 -5 -5 -5 -5 -5 -5 -5 -5 -5 -4 -2 8 48 108 84 26 2 -3 -5 -5 -5 -4 0 25 91 91 25 0 -4 -5 -5 -5 -5 -5 -5 -5 -5 -5 -5 -5 -5 -5 -5 -5 -5 -5 -5 -5 -5 -5 -5 -5 -5 -5 -4 2 30 94 94 30 2 -4 -5 -5 -5 -5 -5 -5 -5 -4 2 31 97 88 24 0 -4 -5 -5 -4 0 25 91 
91 27 13 44 101 104 54 15 0 -4 -5 -5 -5 -5 -5 -5 -3 2 26 83 109 57 14 0 -4 -5 -5 -5 -5 -5 -5 -5 -5 -5 -5 -5 -4 1 24 83 108 48 9 -2 -4 -5 -5 -5 -4 0 24 90 92 26 0 -4 -5 -5 -5 -5 -5 -5 -5 -5 -5 -5 -5 -5 -5 -5 -5 -5 -5 -5 -5 -5 -5 -5 -5 -5 -4 -2 9 50 109 76 19 0 -4 -5 -5 -5 -5 -5 -5 -4 -3 7 48 109 75 18 0 -4 -5 -5 -4 0 25 91 
91 25 4 14 52 103 103 53 15 0 -4 -5 -5 -5 -5 -4 0 14 57 109 83 26 2 -3 -5 -5 -5 -5 -5 -5 -5 -5 -5 -5 -5 -4 -2 9 48 108 83 24 1 -4 -5 -5 -5 -5 -4 0 23 87 97 31 2 -4 -5 -5 -5 -5 -5 -5 -5 -5 -5 -5 -5 -5 -5 -5 -5 -5 -5 -5 -5 -5 -5 -5 -5 -5 -4 1 24 83 108 46 7 -3 -4 -5 -5 -5 -5 -5 -5 -4 0 18 75 109 48 7 -3 -4 -5 -5 -4 0 25 91 
91 25 1 0 15 53 103 103 53 15 0 -4 -5 -5 -4 -2 8 43 101 101 43 8 -2 -4 -5 -5 -5 -5 -5 -5 -5 -5 -5 -5 -5 -3 2 26 84 108 48 8 -2 -4 -5 -5 -5 -5 -4 0 17 74 109 48 7 -3 -4 -5 -5 -5 -5 -5 -5 -5 -5 -5 -5 -5 -5 -5 -5 -5 -5 -5 -5 -5 -5 -5 -5 -4 -3 7 46 108 83 24 1 -4 -5 -5 -5 -5 -5 -5 -5 -4 0 24 88 97 31 2 -4 -5 -5 -5 -4 0 25 91 
91 25 0 -3 0 15 53 103 103 53 15 0 -4 -4 -3 2 26 83 109 57 14 0 -4 -5 -5 -5 -5 -5 -5 -5 -5 -5 -5 -5 -4 0 14 57 109 82 24 1 -4 -5 -5 -5 -5 -5 -4 -3 7 48 109 74 17 0 -4 -5 -5 -5 -5 -5 -5 -5 -5 -5 -5 -5 -5 -5 -5 -5 -5 -5 -5 -5 -5 -5 -5 -4 0 19 76 109 50 9 -2 -4 -5 -5 -5 -5 -5 -5 -5 -4 2 31 97 88 24 0 -4 -5 -5 -5 -4 0 25 91 
91 25 0 -4 -3 0 15 53 103 103 53 15 0 -3 0 14 57 109 83 26 2 -3 -5 -5 -5 -5 -5 -5 -5 -5 -5 -5 -5 -4 -2 7 43 101 101 43 7 -2 -4 -5 -5 -5 -5 -5 -5 -4 2 31 97 87 23 0 -4 -5 -5 -5 -5 -5 -5 -5 -5 -5 -5 -5 -5 -5 -5 -5 -5 -5 -5 -5 -5 -5 -5 -4 2 30 94 94 30 2 -4 -5 -5 -5 -5 -5 -5 -5 -4 -3 7 48 109 75 18 0 -4 -5 -5 -5 -4 0 25 91 
91 25 0 -4 -4 -4 0 15 53 103 103 53 16 2 9 44 101 101 43 8 -2 -4 -5 -5 -5 -5 -5 -5 -5 -5 -5 -5 -5 -4 1 24 82 109 57 14 0 -4 -5 -5 -5 -5 -5 -5 -5 -4 0 26 92 90 25 0 -4 -5 -5 -5 -5 -5 -5 -5 -5 -5 -5 -5 -5 -5 -5 -5 -5 -5 -5 -5 -5 -5 -4 -2 9 50 109 76 19 0 -4 -5 -5 -5 -5 -5 -5 -5 -4 0 18 75 109 48 7 -3 -4 -5 -5 -5 -4 0 25 91 
91 25 0 -4 -5 -5 -4 0 15 53 103 103 54 23 31 83 109 57 14 0 -4 -5 -5 -5 -5 -5 -5 -5 -5 -5 -5 -5 -4 -2 8 48 108 84 26 2 -3 -5 -5 -5 -5 -5 -5 -5 -5 -4 0 25 90 92 26 0 -4 -5 -5 -5 -5 -5 -5 -5 -5 -5 -5 -5 -5 -5 -5 -5 -5 -5 -5 -5 -5 -5 -4 1 24 83 108 46 7 -3 -4 -5 -5 -5 -5 -5 -5 -5 -4 0 24 88 97 31 2 -4 -5 -5 -5 -5 -4 0 25 91 
91 25 0 -4 -5 -5 -5 -4 0 15 53 103 106 71 74 112 83 26 2 -3 -5 -5 -5 -5 -5 -5 -5 -5 -5 -5 -5 -5 -4 1 24 83 108 48 9 -2 -4 -5 -5 -5 -5 -5 -5 -5 -5 -4 0 23 87 97 31 2 -4 -5 -5 -5 -5 -5 -5 -5 -5 -5 -5 -5 -5 -5 -5 -5 -5 -5 -5 -5 -5 -4 -3 7 46 108 83 24 1 -4 -5 -5 -5 -5 -5 -5 -5 -5 -4 2 31 97 88 24 0 -4 -5 -5 -5 -5 -4 0 25 91 
91 25 0 -4 -5 -5 -5 -5 -4 0 15 54 108 133 133 106 44 8 -2 -4 -5 -5 -5 -5 -5 -5 -5 -5 -5 -5 -5 -4 -2 9 48 108 83 24 1 -4 -5 -5 -5 -5 -5 -5 -5 -5 -5 -4 0 17 74 109 48 7 -3 -4 -5 -5 -5 -5 -5 -5 -5 -5 -5 -5 -5 -5 -5 -5 -5 -5 -5 -5 -5 -4 0 19 76 109 50 9 -2 -4 -5 -5 -5 -5 -5 -5 -5 -4 -3 7 48 109 75 18 0 -4 -5 -5 -5 -5 -4 0 25 91 
91 25 0 -4 -5 -5 -5 -5 -5 -4 0 17 62 132 132 61 15 0 -4 -5 -5 -5 -5 -5 -5 -5 -5 -5 -5 -5 -5 -3 2 26 84 108 48 8 -2 -4 -5 -5 -5 -5 -5 -5 -5 -5 -5 -4 -3 7 48 109 74 17 0 -4 -5 -5 -5 -5 -5 -5 -5 -5 -5 -5 -5 -5 -5 -5 -5 -5 -5 -5 -5 -4 2 30 94 94 30 2 -4 -5 -5 -5 -5 -5 -5 -5 -5 -4 0 18 75 109 48 7 -3 -4 -5 -5 -5 -5 -4 0 25 91 
91 25 0 -4 -5 -5 -5 -5 -5 -5 -3 4 34 103 105 35 4 -3 -5 -5 -5 -5 -5 -5 -5 -5 -5 -5 -5 -5 -4 0 14 57 109 82 24 1 -4 -5 -5 -5 -5 -5 -5 -5 -5 -5 -5 -5 -4 2 31 97 87 23 0 -4 -5 -5 -5 -5 -5 -5 -5 -5 -5 -5 -5 -5 -5 -5 -5 -5 -5 -5 -4 -2 9 50 109 76 19 0 -4 -5 -5 -5 -5 -5 -5 -5 -5 -4 0 24 88 97 31 2 -4 -5 -5 -5 -5 -5 -4 0 25 91 
91 25 0 -4 -5 -5 -5 -5 -5 -5 -4 0 24 89 100 33 3 -3 -5 -5 -5 -5 -5 -5 -5 -5 -5 -5 -5 -4 -2 7 43 101 101 43 7 -2 -4 -5 -5 -5 -5 -5 -5 -5 -5 -5 -5 -5 -4 0 26 92 90 24 0 -4 -5 -5 -5 -5 -5 -5 -5 -5 -5 -5 -5 -5 -5 -5 -5 -5 -5 -5 -4 1 24 83 108 46 7 -3 -4 -5 -5 -5 -5 -5 -5 -5 -5 -4 2 31 97 88 24 0 -4 -5 -5 -5 -5 -5 -4 0 25 91 
91 25 0 -4 -5 -5 -5 -5 -5 -5 -4 0 18 75 110 48 7 -3 -4 -5 -5 -5 -5 -5 -5 -5 -5 -5 -5 -4 1 24 82 109 57 14 0 -4 -5 -5 -5 -5 -5 -5 -5 -5 -5 -5 -5 -5 -4 0 25 91 91 25 0 -4 -5 -5 -5 -5 -5 -5 -5 -5 -5 -5 -5 -5 -5 -5 -5 -5 -5 -4 -3 7 46 108 83 24 1 -4 -5 -5 -5 -5 -5 -5 -5 -5 -4 -3 7 48 109 75 18 0 -4 -5 -5 -5 -5 -5 -4 0 25 91 
91 25 0 -4 -5 -5 -5 -5 -5 -5 -4 -3 7 48 109 74 17 0 -4 -5 -5 -5 -5 -5 -5 -5 -5 -5 -4 -2 8 48 108 84 26 2 -3 -5 -5 -5 -5 -5 -5 -5 -5 -5 -5 -5 -5 -5 -4 0 24 90 92 26 0 -4 -5 -5 -5 -5 -5 -5 -5 -5 -5 -5 -5 -5 -5 -5 -5 -5 -5 -4 0 19 76 109 50 9 -2 -4 -5 -5 -5 -5 -5 -5 -5 -5 -4 0 18 75 109 48 7 -3 -4 -5 -5 -5 -5 -5 -4 0 25 91 
91 25 0 -4 -5 -5 -5 -5 -5 -5 -5 -4 2 31 97 87 23 0 -4 -5 -5 -5 -5 -5 -5 -5 -5 -5 -4 1 24 83 108 48 9 -2 -4 -5 -5 -5 -5 -5 -5 -5 -5 -5 -5 -5 -5 -5 -4 0 23 87 97 31 2 -4 -5 -5 -5 -5 -5 -5 -5 -5 -5 -5 -5 -5 -5 -5 -5 -5 -5 -4 2 30 94 94 30 2 -4 -5 -5 -5 -5 -5 -5 -5 -5 -5 -4 0 24 88 97 31 2 -4 -5 -5 -5 -5 -5 -5 -4 0 25 91 
91 25 0 -4 -5 -5 -5 -5 -5 -5 -5 -4 0 26 91 91 26 0 -4 -5 -5 -5 -5 -5 -5 -5 -5 -4 -2 9 48 108 83 24 1 -4 -5 -5 -5 -5 -5 -5 -5 -5 -5 -5 -5 -5 -5 -5 -4 0 17 74 109 48 7 -3 -4 -5 -5 -5 -5 -5 -5 -5 -5 -5 -5 -5 -5 -5 -5 -5 -4 -2 9 50 109 76 19 0 -4 -5 -5 -5 -5 -5 -5 -5 -5 -5 -4 2 31 97 88 24 0 -4 -5 -5 -5 -5 -5 -5 -4 0 26 93 
92 25 0 -4 -5 -5 -5 -5 -5 -5 -5 -4 0 23 87 97 31 2 -4 -5 -5 -5 -5 -5 -5 -5 -5 -3 2 26 84 108 48 8 -2 -4 -5 -5 -5 -5 -5 -5 -5 -5 -5 -5 -5 -5 -5 -5 -4 -3 7 48 109 74 17 0 -4 -5 -5 -5 -5 -5 -5 -5 -5 -5 -5 -5 -5 -5 -5 -5 -4 1 24 83 108 46 7 -3 -4 -5 -5 -5 -5 -5 -5 -5 -5 -4 -3 7 48 109 75 18 0 -4 -5 -5 -5 -5 -5 -5 -4 2 32 101 
96 25 0 -4 -5 -5 -5 -5 -5 -5 -5 -4 0 17 74 109 48 7 -3 -4 -5 -5 -5 -5 -5 -5 -4 0 14 57 109 82 24 1 -4 -5 -5 -5 -5 -5 -5 -5 -5 -5 -5 -5 -5 -5 -5 -5 -5 -4 2 31 97 87 23 0 -4 -5 -5 -5 -5 -5 -5 -5 -5 -5 -5 -5 -5 -5 -5 -4 -3 7 46 108 83 24 1 -4 -5 -5 -5 -5 -5 -5 -5 -5 -5 -4 0 18 75 109 48 7 -3 -4 -5 -5 -5 -5 -5 -4 -2 9 51 125 
98 25 0 -4 -5 -5 -5 -5 -5 -5 -5 -4 -3 7 48 109 74 17 0 -4 -5 -5 -5 -5 -5 -4 -2 7 43 101 101 43 7 -2 -4 -5 -5 -5 -5 -5 -5 -5 -5 -5 -5 -5 -5 -5 -5 -5 -5 -4 0 26 92 90 24 0 -4 -5 -5 -5 -5 -5 -5 -5 -5 -5 -5 -5 -5 -5 -5 -4 0 19 76 109 50 9 -2 -4 -5 -5 -5 -5 -5 -5 -5 -5 -5 -4 0 24 88 97 31 2 -4 -5 -5 -5 -5 -5 -5 -3 2 26 89 151 
96 25 0 -4 -5 -5 -5 -5 -5 -5 -5 -5 -4 2 31 97 87 23 0 -4 -5 -5 -5 -5 -5 -4 1 24 82 109 57 14 0 -4 -5 -5 -5 -5 -5 -5 -5 -5 -5 -5 -5 -5 -5 -5 -5 -5 -5 -4 0 25 91 91 25 0 -4 -5 -5 -5 -5 -5 -5 -5 -5 -5 -5 -5 -5 -5 -5 -4 2 30 94 94 30 2 -4 -5 -5 -5 -5 -5 -5 -5 -5 -5 -5 -4 2 31 97 88 24 0 -4 -5 -5 -5 -5 -5 -4 0 14 58 121 149 
94 25 0 -4 -5 -5 -5 -5 -5 -5 -5 -5 -4 0 26 91 91 26 0 -4 -5 -5 -5 -5 -4 -2 8 48 108 84 26 2 -3 -5 -5 -5 -5 -5 -5 -5 -5 -5 -5 -5 -5 -5 -5 -5 -5 -5 -5 -4 0 24 90 92 26 0 -4 -5 -5 -5 -5 -5 -5 -5 -5 -5 -5 -5 -5 -5 -4 -2 9 50 109 76 19 0 -4 -5 -5 -5 -5 -5 -5 -5 -5 -5 -4 -3 7 48 109 75 18 0 -4 -5 -5 -5 -5 -4 -2 8 43 103 123 127 
92 25 0 -4 -5 -5 -5 -5 -5 -5 -5 -5 -4 0 23 87 97 31 2 -4 -5 -5 -5 -5 -4 1 24 83 108 48 9 -2 -4 -5 -5 -5 -5 -5 -5 -5 -5 -5 -5 -5 -5 -5 -5 -5 -5 -5 -5 -4 0 23 87 97 31 2 -4 -5 -5 -5 -5 -5 -5 -5 -5 -5 -5 -5 -5 -5 -4 1 24 83 108 46 7 -3 -4 -5 -5 -5 -5 -5 -5 -5 -5 -5 -4 0 18 75 109 48 7 -3 -4 -5 -5 -5 -5 -3 2 26 83 113 84 106 
91 25 0 -4 -5 -5 -5 -5 -5 -5 -5 -5 -4 0 17 74 109 48 7 -3 -4 -5 -5 -4 -2 9 48 108 83 24 1 -4 -5 -5 -5 -5 -5 -5 -5 -5 -5 -5 -5 -5 -5 -5 -5 -5 -5 -5 -5 -4 0 17 74 109 48 7 -2 -4 -5 -5 -5 -5 -5 -5 -5 -5 -5 -5 -5 -4 -3 7 46 108 83 24 1 -4 -5 -5 -5 -5 -5 -5 -5 -5 -5 -5 -4 0 24 88 97 31 2 -4 -5 -5 -5 -5 -4 0 14 57 110 87 55 97 
91 25 0 -4 -5 -5 -5 -5 -5 -5 -5 -5 -4 -3 7 48 109 74 17 0 -4 -5 -5 -3 2 26 84 108 48 8 -2 -4 -5 -5 -5 -5 -5 -5 -5 -5 -5 -5 -5 -5 -5 -5 -5 -5 -5 -5 -5 -4 -2 8 48 110 75 18 0 -3 -4 -4 -4 -5 -5 -5 -5 -5 -5 -5 -5 -4 0 19 76 109 50 9 -2 -4 -5 -5 -5 -5 -5 -5 -5 -5 -5 -5 -4 2 31 97 88 24 0 -4 -5 -5 -5 -4 -2 8 43 101 102 49 38 93 
91 25 0 -4 -5 -5 -5 -5 -5 -5 -5 -5 -5 -4 2 31 97 87 23 0 -4 -5 -4 0 14 57 109 82 24 1 -4 -5 -5 -5 -5 -5 -5 -5 -5 -5 -5 -5 -5 -5 -5 -5 -5 -5 -5 -5 -5 -5 -3 3 33 100 90 28 5 1 0 0 -3 -4 -4 -4 -4 -4 -4 -4 -4 -3 2 30 94 94 30 2 -4 -5 -5 -5 -5 -5 -5 -5 -5 -5 -5 -4 -3 7 48 109 75 18 0 -4 -5 -5 -5 -3 2 26 83 109 58 20 29 91 
91 25 0 -4 -5 -5 -5 -5 -5 -5 -5 -5 -5 -4 0 26 91 91 26 0 -4 -4 -2 7 43 101 101 43 7 -2 -4 -5 -5 -5 -5 -5 -5 -5 -5 -5 -5 -5 -5 -5 -5 -5 -5 -5 -5 -5 -5 -4 -2 6 36 106 109 52 30 25 23 17 7 2 0 0 0 0 0 -2 -3 -1 9 50 109 76 19 0 -4 -5 -5 -5 -5 -5 -5 -5 -5 -5 -5 -4 0 18 75 109 48 7 -3 -4 -5 -5 -4 0 14 57 109 83 27 8 26 91 
91 25 0 -4 -5 -5 -5 -5 -5 -5 -5 -5 -5 -4 0 23 87 97 31 2 -3 -4 1 24 82 109 57 14 0 -4 -5 -5 -5 -5 -5 -5 -5 -5 -5 -5 -5 -5 -5 -5 -5 -5 -5 -5 -5 -4 -3 0 8 28 67 133 143 108 94 90 87 74 48 31 26 25 24 23 17 8 3 6 28 85 108 46 7 -3 -4 -5 -5 -5 -5 -5 -5 -5 -5 -5 -5 -4 0 24 88 97 31 2 -4 -5 -5 -4 -2 8 43 101 101 43 8 3 25 91 
91 25 0 -4 -5 -5 -5 -5 -5 -5 -5 -5 -5 -4 0 17 74 109 48 7 -2 -2 8 48 108 84 26 2 -3 -5 -5 -5 -5 -5 -5 -5 -5 -5 -5 -5 -5 -5 -5 -5 -5 -5 -5 -5 -4 -2 2 14 43 83 114 122 107 95 92 92 97 109 109 97 92 91 90 87 74 48 33 36 67 115 85 24 1 -4 -5 -5 -5 -5 -5 -5 -5 -5 -5 -5 -5 -4 2 31 97 88 24 0 -4 -5 -5 -3 2 26 83 109 57 14 0 1 25 91 
91 25 0 -4 -5 -5 -5 -5 -5 -5 -5 -5 -5 -4 -3 7 48 109 74 17 0 1 24 83 108 48 9 -2 -4 -5 -5 -5 -5 -5 -5 -5 -5 -5 -5 -5 -5 -5 -5 -5 -5 -5 -4 -3 0 8 26 57 101 109 84 51 32 26 25 26 31 48 74 87 90 91 92 97 109 110 100 105 133 130 57 11 -2 -4 -5 -5 -5 -5 -5 -5 -5 -5 -5 -5 -4 -3 7 48 109 75 18 0 -4 -5 -4 0 14 57 109 83 26 2 -3 0 25 91 
91 25 0 -4 -5 -5 -5 -5 -5 -5 -5 -5 -5 -5 -4 2 31 97 87 23 2 9 48 108 83 24 1 -4 -5 -5 -5 -5 -5 -5 -5 -5 -5 -5 -5 -5 -5 -5 -5 -5 -5 -4 -2 2 14 43 83 109 101 57 26 9 2 0 0 0 2 7 17 23 24 25 26 31 48 75 89 103 133 130 58 11 -1 -4 -5 -5 -5 -5 -5 -5 -5 -5 -5 -5 -4 0 18 75 109 48 7 -3 -4 -4 -2 8 43 101 101 43 8 -2 -4 0 25 91 
91 25 0 -4 -5 -5 -5 -5 -5 -5 -5 -5 -5 -5 -4 0 26 91 91 27 8 27 84 108 48 8 -2 -4 -5 -5 -5 -5 -5 -5 -5 -5 -5 -5 -5 -5 -5 -5 -5 -5 -4 -1 7 26 57 101 109 83 43 14 2 -2 -4 -4 -4 -4 -4 -3 0 0 0 0 0 2 7 18 25 35 67 115 86 27 2 -3 -4 -5 -5 -5 -5 -5 -5 -5 -5 -5 -4 0 24 88 97 31 2 -4 -4 -3 2 26 83 109 57 14 0 -4 -4 0 25 91 
91 25 0 -4 -5 -5 -5 -5 -5 -5 -5 -5 -5 -5 -4 0 23 87 98 35 22 58 109 82 24 1 -4 -5 -5 -5 -5 -5 -5 -5 -5 -5 -5 -5 -5 -5 -5 -5 -4 -3 0 13 43 83 109 101 57 26 8 0 -3 -4 -5 -5 -5 -5 -5 -4 -4 -4 -4 -4 -4 -4 -3 0 1 6 28 83 110 59 18 2 -2 -4 -4 -4 -4 -4 -4 -4 -4 -4 -3 3 31 97 88 24 0 -4 -4 0 14 57 109 83 26 2 -3 -5 -4 0 25 91 
91 25 0 -4 -5 -5 -5 -5 -5 -5 -5 -5 -5 -5 -4 0 17 74 111 60 56 103 102 43 7 -2 -4 -5 -5 -5 -5 -5 -5 -5 -5 -5 -5 -5 -5 -5 -5 -4 -2 2 16 52 101 109 83 43 14 2 -2 -4 -5 -5 -5 -5 -5 -5 -5 -5 -5 -5 -5 -5 -5 -5 -4 -4 -4 -2 8 44 102 108 60 27 9 2 0 0 0 0 0 0 0 0 2 13 52 112 76 18 0 -4 -2 8 43 101 101 43 8 -2 -4 -5 -4 0 25 91 
91 25 0 -4 -5 -5 -5 -5 -5 -5 -5 -5 -5 -5 -4 -3 7 48 112 100 101 111 57 14 0 -4 -5 -5 -5 -5 -5 -5 -5 -5 -5 -5 -5 -5 -5 -4 -3 0 8 26 58 104 104 58 26 8 0 -3 -4 -5 -5 -5 -5 -5 -5 -5 -5 -5 -5 -5 -5 -5 -5 -5 -5 -5 -5 -4 0 15 60 124 128 88 50 32 26 25 25 25 25 25 25 25 29 45 94 123 58 13 0 -2 2 26 83 109 57 14 0 -4 -5 -5 -4 0 25 91 
91 25 0 -4 -5 -5 -5 -5 -5 -5 -5 -5 -5 -5 -5 -4 2 31 101 128 126 85 26 2 -3 -5 -5 -5 -5 -5 -5 -5 -5 -5 -5 -5 -5 -5 -4 -2 2 14 43 83 109 101 52 16 2 -2 -4 -5 -5 -5 -5 -5 -5 -5 -5 -5 -5 -5 -5 -5 -5 -5 -5 -5 -5 -5 -5 -5 -3 4 35 110 147 126 112 98 92 91 91 91 91 91 91 91 94 107 141 139 73 30 10 5 16 58 109 83 26 2 -3 -5 -5 -5 -4 0 25 91 
91 25 0 -4 -5 -5 -5 -5 -5 -5 -5 -5 -5 -5 -5 -4 0 26 98 149 119 49 9 -2 -4 -5 -5 -5 -5 -5 -5 -5 -5 -5 -5 -5 -4 -3 0 8 26 57 101 109 83 43 13 0 -3 -4 -5 -5 -5 -5 -5 -5 -5 -5 -5 -5 -5 -5 -5 -5 -5 -5 -5 -5 -5 -5 -5 -5 -3 3 33 102 110 72 79 87 90 91 91 91 91 91 91 91 91 95 107 123 115 85 50 35 53 104 102 44 8 -2 -4 -5 -5 -5 -4 0 25 91 
91 25 0 -4 -5 -5 -5 -5 -5 -5 -5 -5 -5 -5 -5 -4 0 25 98 151 88 24 1 -4 -5 -5 -5 -5 -5 -5 -5 -5 -5 -5 -5 -4 -2 2 14 43 83 109 101 57 26 7 -1 -4 -5 -5 -5 -5 -5 -5 -5 -5 -5 -5 -5 -5 -5 -5 -5 -5 -5 -5 -5 -5 -5 -5 -5 -4 -3 7 48 110 80 30 22 23 24 25 25 25 25 25 25 25 25 26 32 51 84 108 111 101 113 120 61 15 0 -4 -5 -5 -5 -5 -4 0 25 91 
91 25 0 -4 -5 -5 -5 -5 -5 -5 -5 -5 -5 -5 -5 -4 0 25 96 125 51 9 -2 -4 -5 -5 -5 -5 -5 -5 -5 -5 -4 -4 -3 0 7 26 57 102 110 83 44 15 2 -2 -4 -5 -5 -5 -5 -5 -5 -5 -5 -5 -5 -5 -5 -5 -5 -5 -5 -5 -5 -5 -5 -5 -5 -5 -5 -4 0 17 74 110 49 10 1 0 0 0 0 0 0 0 0 0 0 0 2 9 24 48 85 120 152 118 43 7 -2 -4 -5 -5 -5 -5 -4 0 25 91 
91 25 0 -4 -5 -5 -5 -5 -5 -5 -5 -5 -5 -5 -5 -4 0 25 93 101 32 2 -4 -5 -5 -5 -5 -5 -5 -5 -4 -4 -3 0 3 14 44 87 118 111 64 32 13 3 -1 -3 -4 -4 -4 -5 -5 -5 -5 -5 -5 -5 -5 -5 -5 -5 -5 -5 -5 -5 -5 -5 -5 -5 -5 -5 -5 -4 0 23 87 97 31 2 -3 -4 -4 -4 -4 -4 -4 -4 -4 -4 -4 -4 -4 -2 1 9 27 60 117 124 61 15 0 -4 -5 -5 -5 -5 -4 0 25 91 
91 25 0 -4 -5 -5 -5 -5 -5 -5 -5 -5 -5 -5 -5 -4 0 26 92 92 26 0 -4 -5 -5 -5 -5 -5 -4 -4 -2 0 7 19 32 60 113 150 141 93 50 33 25 18 8 2 0 0 -3 -4 -4 -4 -4 -4 -5 -5 -5 -5 -5 -5 -5 -5 -5 -5 -5 -5 -5 -5 -5 -5 -5 -4 0 25 90 92 26 0 -4 -5 -5 -5 -5 -5 -5 -5 -5 -5 -5 -5 -5 -4 -4 -2 2 16 55 106 102 44 8 -2 -4 -5 -5 -5 -4 0 25 91 
91 25 0 -4 -5 -5 -5 -5 -5 -5 -5 -5 -5 -5 -5 -4 2 31 97 87 23 0 -4 -5 -5 -4 -4 -4 -2 1 8 24 46 76 95 114 121 116 122 118 101 92 87 74 48 31 24 18 7 2 0 0 0 -3 -4 -4 -4 -4 -5 -5 -5 -5 -5 -5 -5 -5 -5 -5 -5 -5 -5 -4 0 26 92 90 25 0 -4 -5 -5 -5 -5 -5 -5 -5 -5 -5 -5 -5 -5 -5 -5 -4 -3 0 16 58 109 83 26 2 -3 -5 -5 -5 -4 0 25 91 
91 25 0 -4 -5 -5 -5 -5 -5 -5 -5 -5 -5 -5 -4 -3 7 48 109 74 17 0 -4 -4 -4 -3 0 2 9 24 48 83 108 109 94 77 50 38 49 75 87 91 97 109 109 97 88 75 48 31 26 23 17 7 2 0 0 -3 -4 -4 -4 -4 -4 -5 -5 -5 -5 -5 -5 -5 -5 -4 2 31 97 87 23 0 -4 -5 -5 -5 -5 -5 -5 -5 -5 -5 -5 -5 -5 -5 -5 -5 -4 -3 2 26 83 109 57 14 0 -4 -5 -5 -4 0 25 91 
91 25 0 -4 -5 -5 -5 -5 -5 -5 -5 -5 -5 -5 -4 0 17 74 109 48 8 -2 -3 -2 0 7 19 30 50 83 108 108 83 50 30 19 8 4 8 17 23 26 31 48 75 88 97 109 109 97 91 87 74 48 31 24 18 7 2 0 0 0 -3 -4 -4 -4 -4 -5 -5 -5 -4 -2 7 48 109 74 17 0 -4 -5 -5 -5 -5 -5 -5 -5 -5 -5 -5 -5 -5 -5 -5 -5 -5 -4 -2 8 43 101 101 43 8 -2 -4 -5 -4 0 25 91 
91 25 0 -4 -5 -5 -5 -5 -5 -5 -5 -5 -5 -5 -4 0 23 87 97 32 3 -1 1 8 24 46 76 94 109 108 83 48 24 9 2 0 -2 -3 -2 0 0 0 2 7 18 24 31 48 74 87 91 97 109 109 97 88 75 48 31 26 23 17 7 2 0 0 -3 -4 -4 -4 -4 0 17 74 109 48 7 -3 -4 -5 -5 -5 -5 -5 -5 -5 -5 -5 -5 -5 -5 -5 -5 -5 -5 -5 -4 0 14 57 109 83 26 2 -3 -4 -4 0 25 91 
91 25 0 -4 -5 -5 -5 -5 -5 -5 -5 -5 -5 -5 -4 0 26 91 92 28 7 9 24 48 83 108 109 94 76 46 24 8 1 -2 -4 -4 -4 -5 -4 -4 -4 -4 -4 -3 0 0 2 7 17 23 26 31 48 75 88 97 109 109 97 91 87 74 48 31 24 18 7 2 0 0 0 2 24 87 97 31 2 -4 -5 -5 -5 -5 -5 -5 -5 -5 -5 -5 -5 -5 -5 -5 -5 -5 -5 -5 -5 -3 2 26 83 109 58 16 0 -4 -4 0 25 91 
91 25 0 -4 -5 -5 -5 -5 -5 -5 -5 -5 -5 -5 -4 2 32 99 93 37 30 49 83 108 108 83 50 30 19 7 0 -2 -4 -4 -5 -5 -5 -5 -5 -5 -5 -5 -5 -4 -4 -4 -4 -3 0 0 0 2 7 18 24 31 48 74 87 91 97 109 109 97 88 75 48 31 26 23 18 13 32 94 93 26 0 -4 -5 -5 -5 -5 -5 -5 -5 -5 -5 -5 -5 -5 -5 -5 -5 -5 -5 -5 -5 -4 -2 7 43 101 104 52 13 0 -3 0 25 91 
91 25 0 -4 -5 -5 -5 -5 -5 -5 -5 -5 -5 -4 -2 9 51 119 104 71 87 108 108 83 48 24 9 2 0 -3 -4 -4 -5 -5 -5 -5 -5 -5 -5 -5 -5 -5 -5 -5 -5 -5 -5 -4 -4 -4 -4 -4 -3 0 0 2 7 17 23 26 31 48 75 88 97 109 109 97 91 87 75 53 58 109 93 25 0 -4 -5 -5 -5 -5 -5 -5 -5 -5 -5 -5 -5 -5 -5 -5 -5 -5 -5 -5 -5 -5 -4 -1 13 52 104 101 43 8 -1 0 25 91 
91 25 0 -4 -5 -5 -5 -5 -5 -5 -5 -5 -5 -4 1 24 89 149 132 118 108 83 48 24 8 1 -2 -4 -4 -4 -5 -5 -5 -5 -5 -5 -5 -5 -5 -5 -5 -5 -5 -5 -5 -5 -5 -5 -5 -5 -5 -5 -4 -4 -4 -4 -3 0 0 0 2 7 18 24 31 48 74 87 91 97 110 113 116 144 97 25 0 -4 -5 -5 -5 -5 -5 -5 -5 -5 -5 -5 -5 -5 -5 -5 -5 -5 -5 -5 -5 -5 -5 -4 0 16 58 109 83 26 3 2 25 91 
91 25 0 -4 -5 -5 -5 -5 -5 -5 -5 -5 -4 -2 9 49 118 131 102 77 46 24 8 1 -2 -4 -4 -5 -5 -5 -5 -5 -5 -5 -5 -5 -5 -5 -5 -5 -5 -5 -5 -5 -5 -5 -5 -5 -5 -5 -5 -5 -5 -5 -5 -5 -4 -4 -4 -4 -4 -3 0 0 2 7 17 23 26 31 48 78 106 142 97 25 0 -4 -5 -5 -5 -5 -5 -5 -5 -5 -5 -5 -5 -5 -5 -5 -5 -5 -5 -5 -5 -5 -5 -5 -3 2 26 83 109 58 17 5 26 91 
91 25 0 -4 -5 -5 -5 -5 -5 -5 -5 -5 -3 2 26 84 113 66 33 19 7 0 -2 -4 -4 -5 -5 -5 -5 -5 -5 -5 -5 -5 -5 -5 -5 -5 -5 -5 -5 -5 -5 -5 -5 -5 -5 -5 -5 -5 -5 -5 -5 -5 -5 -5 -5 -5 -5 -5 -5 -4 -4 -4 -4 -3 0 0 0 2 8 23 50 108 93 25 0 -4 -5 -5 -5 -5 -5 -5 -5 -5 -5 -5 -5 -5 -5 -5 -5 -5 -5 -5 -5 -5 -5 -5 -4 -2 8 43 101 104 53 19 29 91 
91 25 0 -4 -5 -5 -5 -5 -5 -5 -5 -4 0 14 57 109 83 28 5 0 -2 -4 -4 -5 -5 -5 -5 -5 -5 -5 -5 -5 -5 -5 -5 -5 -5 -5 -5 -5 -5 -5 -5 -5 -5 -5 -5 -5 -5 -5 -5 -5 -5 -5 -5 -5 -5 -5 -5 -5 -5 -5 -5 -5 -5 -4 -4 -4 -4 -3 -2 4 30 94 91 25 0 -4 -5 -5 -5 -5 -5 -5 -5 -5 -5 -5 -5 -5 -5 -5 -5 -5 -5 -5 -5 -5 -5 -5 -5 -4 -1 13 52 104 101 48 38 93 
91 25 0 -4 -5 -5 -5 -5 -5 -5 -4 -2 8 43 101 101 43 8 -2 -4 -4 -5 -5 -5 -5 -5 -5 -5 -5 -5 -5 -5 -5 -5 -5 -5 -5 -5 -5 -5 -5 -5 -5 -5 -5 -5 -5 -5 -5 -5 -5 -5 -5 -5 -5 -5 -5 -5 -5 -5 -5 -5 -5 -5 -5 -5 -5 -5 -5 -5 -4 1 25 91 91 25 0 -4 -5 -5 -5 -5 -5 -5 -5 -5 -5 -5 -5 -5 -5 -5 -5 -5 -5 -5 -5 -5 -5 -5 -5 -5 -4 0 16 58 110 87 55 97 
92 25 0 -4 -5 -5 -5 -5 -5 -5 -3 2 26 83 109 57 14 0 -4 -5 -5 -5 -5 -5 -5 -5 -5 -5 -5 -5 -5 -5 -5 -5 -5 -5 -5 -5 -5 -5 -5 -5 -5 -5 -5 -5 -5 -5 -5 -5 -5 -5 -5 -5 -5 -5 -5 -5 -5 -5 -5 -5 -5 -5 -5 -5 -5 -5 -5 -5 -4 0 25 90 92 26 1 -4 -5 -5 -5 -5 -5 -5 -5 -5 -5 -5 -5 -5 -5 -5 -5 -5 -5 -5 -5 -5 -5 -5 -5 -5 -5 -3 2 26 83 113 84 106 
94 25 0 -4 -5 -5 -5 -5 -5 -4 0 16 58 110 83 27 2 -3 -4 -5 -5 -5 -5 -5 -5 -5 -5 -5 -5 -5 -5 -5 -5 -5 -5 -5 -5 -5 -5 -5 -5 -5 -5 -5 -5 -5 -5 -5 -5 -5 -5 -5 -5 -5 -5 -5 -5 -5 -5 -5 -5 -5 -5 -5 -5 -5 -5 -5 -5 -5 -4 1 25 90 99 34 4 -3 -4 -5 -5 -5 -5 -5 -5 -5 -5 -5 -5 -5 -5 -5 -5 -5 -5 -5 -5 -5 -5 -5 -5 -5 -5 -4 -2 8 43 103 123 127 
96 25 0 -4 -5 -5 -5 -5 -4 0 15 54 106 105 48 13 1 -2 -4 -4 -4 -4 -4 -4 -4 -4 -4 -4 -4 -4 -5 -5 -5 -5 -5 -5 -5 -5 -5 -5 -5 -5 -5 -5 -5 -5 -5 -5 -5 -5 -5 -5 -5 -5 -5 -5 -5 -5 -5 -5 -5 -5 -5 -5 -5 -5 -5 -5 -5 -4 -2 5 30 93 122 62 18 2 -2 -4 -4 -5 -5 -5 -5 -5 -5 -5 -5 -5 -5 -5 -5 -5 -5 -5 -5 -5 -5 -5 -5 -5 -5 -5 -4 0 14 58 121 149 
98 25 0 -4 -5 -5 -5 -4 0 15 54 112 124 80 42 27 18 8 2 0 0 0 0 0 0 0 0 0 0 -3 -4 -4 -4 -4 -4 -4 -4 -4 -4 -4 -4 -5 -5 -5 -5 -5 -5 -5 -5 -5 -5 -5 -5 -5 -5 -5 -5 -5 -5 -5 -5 -5 -5 -5 -5 -5 -5 -4 -3 0 7 26 57 113 152 118 60 27 9 1 -2 -4 -5 -5 -5 -5 -5 -5 -5 -5 -5 -5 -5 -5 -5 -5 -5 -5 -5 -5 -5 -5 -5 -5 -5 -3 2 26 89 151 
96 25 0 -4 -5 -5 -4 0 15 54 116 152 134 107 94 87 74 48 31 26 25 25 25 25 25 25 24 23 17 7 2 0 0 0 0 0 0 0 0 0 -3 -4 -4 -4 -4 -4 -4 -4 -4 -4 -4 -4 -4 -5 -5 -5 -5 -5 -5 -5 -5 -5 -5 -5 -5 -4 -4 -2 2 14 43 82 110 118 116 122 113 84 48 24 7 0 -3 -4 -5 -5 -5 -5 -5 -5 -5 -5 -5 -5 -5 -5 -5 -5 -5 -5 -5 -5 -5 -5 -5 -4 -2 9 51 125 
92 25 0 -4 -4 -4 0 15 53 106 122 109 97 93 92 97 109 109 97 92 91 91 91 91 91 91 90 87 74 48 31 26 25 25 25 25 25 24 23 17 7 2 0 0 0 0 0 0 0 0 0 0 -3 -4 -4 -4 -4 -4 -4 -4 -4 -4 -4 -4 -4 -2 1 9 26 57 101 109 84 52 39 52 84 108 108 82 43 14 2 -2 -4 -4 -5 -5 -5 -5 -5 -5 -5 -5 -5 -5 -5 -5 -5 -5 -5 -5 -5 -5 -5 -5 -4 2 32 101 
91 25 0 -4 -3 0 15 53 103 105 61 34 26 25 26 31 48 74 87 90 91 91 91 91 91 91 92 97 109 109 97 92 91 91 91 91 91 90 87 74 48 31 26 25 25 25 25 25 25 24 23 17 7 2 0 0 0 0 0 0 0 0 0 -2 0 7 24 48 84 109 101 57 26 9 4 9 24 48 84 109 101 57 26 9 1 -2 -4 -5 -5 -5 -5 -5 -5 -5 -5 -5 -5 -5 -5 -5 -5 -5 -5 -5 -5 -5 -4 0 26 93 
91 25 1 -1 2 16 54 103 103 54 17 4 1 0 0 2 7 17 23 24 25 25 25 25 25 25 26 31 48 74 87 90 91 91 91 91 91 92 97 109 109 97 92 91 91 91 91 91 91 90 87 74 48 31 26 25 25 25 25 25 24 23 18 11 16 44 82 108 108 82 43 14 2 -2 -3 -2 1 9 26 57 101 109 84 48 24 7 0 -3 -4 -5 -5 -5 -5 -5 -5 -5 -5 -5 -5 -5 -5 -5 -5 -5 -5 -5 -4 0 25 91 
91 26 4 8 26 58 104 103 53 15 0 -3 -4 -4 -4 -4 -3 0 0 0 0 0 0 0 0 0 0 2 7 17 23 24 25 25 25 25 25 26 31 48 74 87 90 91 91 91 91 91 91 92 97 109 109 97 92 91 91 91 91 91 90 87 76 57 66 103 110 84 48 24 7 0 -3 -4 -5 -4 -4 -2 2 14 43 82 108 108 82 43 14 2 -2 -4 -4 -5 -5 -5 -5 -5 -5 -5 -5 -5 -5 -5 -5 -5 -5 -5 -4 0 25 91 
92 30 19 44 83 109 101 52 15 0 -4 -5 -5 -5 -5 -5 -4 -4 -4 -4 -4 -4 -4 -4 -4 -4 -4 -4 -3 0 0 0 0 0 0 0 0 0 2 7 17 23 24 25 25 25 25 25 25 26 31 48 74 87 90 91 91 91 91 91 92 99 117 131 132 109 59 27 9 1 -2 -4 -5 -5 -5 -5 -5 -4 -3 0 7 24 48 84 109 101 57 26 9 1 -2 -4 -5 -5 -5 -5 -5 -5 -5 -5 -5 -5 -5 -5 -5 -5 -4 0 25 91 
95 45 58 101 109 83 43 13 0 -4 -5 -5 -5 -5 -5 -5 -5 -5 -5 -5 -5 -5 -5 -5 -5 -5 -5 -5 -4 -4 -4 -4 -4 -4 -4 -4 -4 -4 -4 -3 0 0 0 0 0 0 0 0 0 0 2 7 17 23 24 25 25 25 25 25 27 35 69 133 132 62 18 2 -2 -4 -4 -5 -5 -5 -5 -5 -5 -5 -5 -4 -2 1 9 26 57 101 109 84 48 24 7 0 -3 -4 -5 -5 -5 -5 -5 -5 -5 -5 -5 -5 -5 -5 -4 0 25 91 
107 81 107 104 58 26 8 -1 -4 -5 -5 -5 -5 -5 -5 -5 -5 -5 -5 -5 -5 -5 -5 -5 -5 -5 -5 -5 -5 -5 -5 -5 -5 -5 -5 -5 -5 -5 -5 -4 -4 -4 -4 -4 -4 -4 -4 -4 -4 -4 -4 -3 0 0 0 0 0 0 0 0 1 7 36 104 104 34 4 -3 -4 -5 -5 -5 -5 -5 -5 -5 -5 -5 -5 -5 -4 -4 -2 2 14 43 82 108 108 82 43 14 2 -2 -4 -4 -5 -5 -5 -5 -5 -5 -5 -5 -5 -5 -4 0 25 92 
133 124 105 54 16 2 -2 -4 -5 -5 -5 -5 -5 -5 -5 -5 -5 -5 -5 -5 -5 -5 -5 -5 -5 -5 -5 -5 -5 -5 -5 -5 -5 -5 -5 -5 -5 -5 -5 -5 -5 -5 -5 -5 -5 -5 -5 -5 -5 -5 -5 -4 -4 -4 -4 -4 -4 -4 -4 -4 -3 1 27 93 93 26 1 -4 -5 -5 -5 -5 -5 -5 -5 -5 -5 -5 -5 -5 -5 -5 -4 -3 0 7 24 48 84 109 101 57 26 9 1 -2 -4 -4 -5 -5 -5 -5 -5 -5 -5 -5 -4 0 25 95 
153 113 54 15 0 -3 -4 -5 -5 -5 -5 -5 -5 -5 -5 -5 -5 -5 -5 -5 -5 -5 -5 -5 -5 -5 -5 -5 -5 -5 -5 -5 -5 -5 -5 -5 -5 -5 -5 -5 -5 -5 -5 -5 -5 -5 -5 -5 -5 -5 -5 -5 -5 -5 -5 -5 -5 -5 -5 -5 -4 0 25 91 91 25 0 -4 -5 -5 -5 -5 -5 -5 -5 -5 -5 -5 -5 -5 -5 -5 -5 -5 -4 -2 1 9 26 57 101 109 84 48 24 8 1 -2 -4 -5 -5 -5 -5 -5 -5 -5 -4 0 25 98 
129 62 17 0 -4 -5 -5 -5 -5 -5 -5 -5 -5 -5 -5 -5 -5 -5 -5 -5 -5 -5 -5 -5 -5 -5 -5 -5 -5 -5 -5 -5 -5 -5 -5 -5 -5 -5 -5 -5 -5 -5 -5 -5 -5 -5 -5 -5 -5 -5 -5 -5 -5 -5 -5 -5 -5 -5 -5 -5 -4 0 25 91 91 25 0 -4 -5 -5 -5 -5 -5 -5 -5 -5 -5 -5 -5 -5 -5 -5 -5 -5 -5 -4 -4 -2 2 14 43 82 108 108 83 48 24 7 0 -3 -4 -5 -5 -5 -5 -5 -4 0 25 96 
102 34 4 -3 -5 -5 -5 -5 -5 -5 -5 -5 -5 -5 -5 -5 -5 -5 -5 -5 -5 -5 -5 -5 -5 -5 -5 -5 -5 -5 -5 -5 -5 -5 -5 -5 -5 -5 -5 -5 -5 -5 -5 -5 -5 -5 -5 -5 -5 -5 -5 -5 -5 -5 -5 -5 -5 -5 -5 -5 -4 0 25 91 91 25 0 -4 -5 -5 -5 -5 -5 -5 -5 -5 -5 -5 -5 -5 -5 -5 -5 -5 -5 -5 -5 -4 -3 0 7 24 48 83 108 108 82 43 14 2 -2 -4 -4 -4 -4 -5 -4 0 25 92 
93 26 1 -4 -5 -5 -5 -5 -5 -5 -5 -5 -5 -5 -5 -5 -5 -5 -5 -5 -5 -5 -5 -5 -5 -5 -5 -5 -5 -5 -5 -5 -5 -5 -5 -5 -5 -5 -5 -5 -5 -5 -5 -5 -5 -5 -5 -5 -5 -5 -5 -5 -5 -5 -5 -5 -5 -5 -5 -5 -4 0 25 91 91 25 0 -4 -5 -5 -5 -5 -5 -5 -5 -5 -5 -5 -5 -5 -5 -5 -5 -5 -5 -5 -5 -5 -5 -4 -2 1 8 24 48 84 110 102 57 26 9 2 0 0 -3 -4 -3 1 25 91 
91 25 0 -4 -5 -5 -5 -5 -5 -5 -5 -5 -5 -5 -5 -5 -5 -5 -5 -5 -5 -5 -5 -5 -5 -5 -5 -5 -5 -5 -5 -5 -5 -5 -5 -5 -5 -5 -5 -5 -5 -5 -5 -5 -5 -5 -5 -5 -5 -5 -5 -5 -5 -5 -5 -5 -5 -5 -5 -5 -4 0 25 91 91 25 0 -4 -5 -5 -5 -5 -5 -5 -5 -5 -5 -5 -5 -5 -5 -5 -5 -5 -5 -5 -5 -5 -5 -5 -4 -4 -2 1 9 27 60 106 115 88 51 31 24 18 7 2 1 4 27 92 
91 25 0 -4 -5 -5 -5 -5 -5 -5 -5 -5 -5 -5 -5 -5 -5 -5 -5 -5 -5 -5 -5 -5 -5 -5 -5 -5 -5 -5 -5 -5 -5 -5 -5 -5 -5 -5 -5 -5 -5 -5 -5 -5 -5 -5 -5 -5 -5 -5 -5 -5 -5 -5 -5 -5 -5 -5 -5 -5 -4 0 25 91 91 25 0 -4 -5 -5 -5 -5 -5 -5 -5 -5 -5 -5 -5 -5 -5 -5 -5 -5 -5 -5 -5 -5 -5 -5 -5 -4 -3 -1 2 9 28 71 123 149 127 101 89 75 48 31 25 23 37 96 
94 26 1 -3 -4 -4 -4 -4 -4 -4 -5 -5 -5 -5 -5 -5 -5 -5 -5 -5 -5 -5 -5 -5 -5 -5 -5 -5 -5 -5 -5 -5 -5 -5 -5 -5 -5 -5 -5 -5 -5 -5 -5 -5 -5 -5 -5 -5 -5 -5 -5 -5 -5 -5 -5 -5 -5 -5 -5 -5 -4 0 25 91 91 25 0 -4 -5 -5 -5 -5 -5 -5 -5 -5 -5 -5 -5 -5 -5 -5 -5 -5 -5 -5 -5 -5 -4 -4 -4 -2 1 7 19 31 54 94 127 127 106 96 98 109 109 97 89 79 74 113 
101 30 6 1 0 0 0 0 0 -3 -4 -4 -4 -4 -4 -4 -4 -4 -5 -5 -5 -5 -5 -5 -5 -5 -5 -5 -5 -5 -5 -5 -5 -5 -5 -5 -5 -5 -5 -5 -5 -5 -5 -5 -5 -5 -5 -5 -5 -5 -5 -5 -5 -5 -5 -5 -5 -5 -5 -5 -4 0 25 91 91 25 0 -4 -5 -5 -5 -5 -5 -5 -5 -5 -5 -5 -5 -5 -5 -5 -5 -5 -5 -5 -4 -4 -3 0 2 9 24 46 76 94 110 109 84 51 32 27 31 48 75 88 97 112 127 148 
115 52 30 26 25 25 24 23 17 7 2 0 0 0 0 0 0 -3 -4 -4 -4 -4 -4 -4 -4 -4 -4 -5 -5 -5 -5 -5 -5 -5 -5 -5 -5 -5 -5 -5 -5 -5 -5 -5 -5 -5 -5 -5 -5 -5 -5 -5 -5 -5 -5 -5 -5 -5 -5 -5 -4 0 25 91 91 25 0 -4 -5 -5 -5 -5 -5 -5 -5 -5 -5 -5 -5 -5 -5 -5 -5 -4 -4 -4 -2 1 7 19 30 50 83 108 109 94 76 46 24 9 2 1 2 7 18 24 31 52 95 142 
145 110 95 91 91 91 90 87 74 48 31 26 25 25 24 23 17 7 2 0 0 0 0 0 0 0 -3 -4 -4 -4 -4 -4 -4 -4 -4 -5 -5 -5 -5 -5 -5 -5 -5 -5 -5 -5 -5 -5 -5 -5 -5 -5 -5 -5 -5 -5 -5 -5 -5 -5 -4 0 25 91 91 25 0 -4 -5 -5 -5 -5 -5 -5 -5 -5 -5 -5 -5 -5 -5 -4 -4 -3 0 2 9 24 46 76 94 109 108 83 50 30 19 7 0 -2 -4 -4 -4 -3 0 0 3 13 45 114 
143 110 95 91 91 91 92 97 109 109 97 92 91 91 90 87 74 48 31 26 25 25 25 24 23 17 7 2 0 0 0 0 0 0 -3 -4 -4 -4 -4 -4 -4 -4 -4 -4 -5 -5 -5 -5 -5 -5 -5 -5 -5 -5 -5 -5 -5 -5 -5 -5 -4 0 25 91 91 25 0 -4 -5 -5 -5 -5 -5 -5 -5 -5 -5 -5 -5 -4 -4 -2 0 7 19 30 50 83 108 109 94 76 46 24 9 2 0 -3 -4 -4 -5 -5 -5 -4 -4 -4 -3 2 29 101 
108 52 30 26 25 25 26 31 48 74 87 90 91 91 92 97 109 109 97 92 91 91 91 90 87 74 48 31 26 25 25 24 23 17 7 2 0 0 0 0 0 0 0 -3 -4 -4 -4 -4 -4 -4 -4 -4 -5 -5 -5 -5 -5 -5 -5 -5 -4 0 25 91 91 25 0 -4 -5 -5 -5 -5 -5 -5 -5 -5 -4 -4 -4 -2 1 8 24 46 76 94 109 108 83 50 30 19 7 1 -2 -4 -4 -4 -5 -5 -5 -5 -5 -5 -5 -5 -4 0 25 93 
94 30 6 1 0 0 0 2 7 17 23 24 25 25 26 31 48 74 87 90 91 91 91 92 97 109 109 97 92 91 91 90 87 74 48 31 26 25 25 25 24 23 17 7 2 0 0 0 0 0 0 -3 -4 -4 -4 -4 -4 -4 -4 -4 -4 0 25 91 91 25 0 -4 -5 -5 -5 -5 -5 -5 -4 -4 -3 0 2 9 24 48 83 108 109 94 76 46 24 9 2 0 -3 -4 -4 -5 -5 -5 -5 -5 -5 -5 -5 -5 -5 -5 -4 0 25 91 
91 26 1 -3 -4 -4 -4 -4 -3 0 0 0 0 0 0 2 7 17 23 24 25 25 25 26 31 48 74 87 90 91 91 92 97 109 109 97 92 91 91 91 90 87 74 48 31 26 25 25 24 23 17 7 2 0 0 0 0 0 0 0 -2 1 26 91 91 25 0 -4 -5 -5 -5 -4 -4 -4 -2 1 7 19 30 50 83 108 108 83 50 30 19 7 1 -2 -4 -4 -4 -5 -5 -5 -5 -5 -5 -5 -5 -5 -5 -5 -5 -5 -4 0 25 91 
91 25 0 -4 -5 -5 -5 -5 -4 -4 -4 -4 -4 -4 -4 -4 -3 0 0 0 0 0 0 0 2 7 17 23 24 25 25 26 31 48 74 87 90 91 91 91 92 97 109 109 97 92 91 91 90 87 74 48 31 26 25 25 25 24 23 17 8 8 30 95 93 26 1 -4 -5 -4 -4 -3 0 2 9 24 46 76 94 109 108 83 48 24 9 2 0 -3 -4 -4 -5 -5 -5 -5 -5 -5 -5 -5 -5 -5 -5 -5 -5 -5 -5 -5 -4 0 25 91 
91 25 0 -4 -5 -5 -5 -5 -5 -5 -5 -5 -5 -5 -5 -5 -4 -4 -4 -4 -4 -4 -4 -4 -4 -3 0 0 0 0 0 0 2 7 17 23 24 25 25 25 26 31 48 74 87 90 91 91 92 97 109 109 97 92 91 91 91 90 87 74 49 37 54 110 104 34 4 -2 -3 -2 1 7 19 30 50 83 108 109 94 76 46 24 8 1 -2 -4 -4 -4 -5 -5 -5 -5 -5 -5 -5 -5 -5 -5 -5 -5 -5 -5 -5 -5 -5 -5 -4 0 25 91 
91 25 0 -4 -5 -5 -5 -5 -5 -5 -5 -5 -5 -5 -5 -5 -5 -5 -5 -5 -5 -5 -5 -5 -5 -4 -4 -4 -4 -4 -4 -4 -4 -3 0 0 0 0 0 0 0 2 7 17 23 24 25 25 26 31 48 74 87 90 91 91 91 92 97 109 110 101 110 144 132 62 18 4 3 9 24 46 76 94 109 108 83 50 30 19 7 0 -2 -4 -4 -5 -5 -5 -5 -5 -5 -5 -5 -5 -5 -5 -5 -5 -5 -5 -5 -5 -5 -5 -5 -5 -4 0 25 91 
91 25 0 -4 -5 -5 -5 -5 -5 -5 -5 -5 -5 -5 -5 -5 -5 -5 -5 -5 -5 -5 -5 -5 -5 -5 -5 -5 -5 -5 -5 -5 -5 -4 -4 -4 -4 -4 -4 -4 -4 -4 -3 0 0 0 0 0 0 2 7 17 23 24 25 25 25 26 31 48 74 87 94 108 125 109 61 36 33 50 83 108 109 94 76 46 24 9 2 0 -3 -4 -4 -5 -5 -5 -5 -5 -5 -5 -5 -5 -5 -5 -5 -5 -5 -5 -5 -5 -5 -5 -5 -5 -5 -5 -4 0 25 91 
91 25 0 -4 -5 -5 -5 -5 -5 -5 -5 -5 -5 -5 -5 -5 -5 -5 -5 -5 -5 -5 -5 -5 -5 -5 -5 -5 -5 -5 -5 -5 -5 -5 -5 -5 -5 -5 -5 -5 -5 -5 -4 -4 -4 -4 -4 -4 -4 -4 -3 0 0 0 0 0 0 0 2 7 17 23 26 34 61 109 125 110 102 111 108 83 50 30 19 7 1 -2 -4 -4 -4 -5 -5 -5 -5 -5 -5 -5 -5 -5 -5 -5 -5 -5 -5 -5 -5 -5 -5 -5 -5 -5 -5 -5 -5 -5 -4 0 25 91 
91 25 0 -4 -5 -5 -5 -5 -5 -5 -5 -5 -5 -5 -5 -5 -5 -5 -5 -5 -5 -5 -5 -5 -5 -5 -5 -5 -5 -5 -5 -5 -5 -5 -5 -5 -5 -5 -5 -5 -5 -5 -5 -5 -5 -5 -5 -5 -5 -5 -4 -4 -4 -4 -4 -4 -4 -4 -4 -3 0 0 1 4 18 62 132 143 105 78 47 24 9 2 0 -3 -4 -4 -5 -5 -5 -5 -5 -5 -5 -5 -5 -5 -5 -5 -5 -5 -5 -5 -5 -5 -5 -5 -5 -5 -5 -5 -5 -5 -5 -5 -4 0 25 91 
91 25 0 -4 -5 -5 -5 -5 -5 -5 -5 -5 -5 -5 -5 -5 -5 -5 -5 -5 -5 -5 -5 -5 -5 -5 -5 -5 -5 -5 -5 -5 -5 -5 -5 -5 -5 -5 -5 -5 -5 -5 -5 -5 -5 -5 -5 -5 -5 -5 -5 -5 -5 -5 -5 -5 -5 -5 -5 -4 -4 -4 -4 -2 4 34 104 110 51 23 8 1 -2 -4 -4 -4 -5 -5 -5 -5 -5 -5 -5 -5 -5 -5 -5 -5 -5 -5 -5 -5 -5 -5 -5 -5 -5 -5 -5 -5 -5 -5 -5 -5 -5 -5 -4 0 25 91 
91 26 1 -3 -4 -4 -4 -4 -4 -4 -4 -4 -4 -4 -4 -4 -4 -4 -4 -4 -4 -4 -4 -4 -4 -4 -4 -4 -4 -4 -4 -4 -4 -4 -4 -4 -4 -4 -4 -4 -4 -4 -4 -4 -4 -4 -4 -4 -4 -4 -4 -4 -4 -4 -4 -4 -4 -4 -4 -4 -4 -4 -4 -3 1 27 94 95 30 5 -1 -3 -4 -4 -4 -4 -4 -4 -4 -4 -4 -4 -4 -4 -4 -4 -4 -4 -4 -4 -4 -4 -4 -4 -4 -4 -4 -4 -4 -4 -4 -4 -4 -4 -4 -4 -3 1 26 91 
95 30 6 1 0 0 0 0 0 0 0 0 0 0 0 0 0 0 0 0 0 0 0 0 0 0 0 0 0 0 0 0 0 0 0 0 0 0 0 0 0 0 0 0 0 0 0 0 0 0 0 0 0 0 0 0 0 0 0 0 0 0 0 1 6 30 95 95 31 6 1 0 0 0 0 0 0 0 0 0 0 0 0 0 0 0 0 0 0 0 0 0 0 0 0 0 0 0 0 0 0 0 0 0 0 0 1 6 30 95 
111 52 30 26 25 25 25 25 25 25 25 25 25 25 25 25 25 25 25 25 25 25 25 25 25 25 25 25 25 25 25 25 25 25 25 25 25 25 25 25 25 25 25 25 25 25 25 25 25 25 25 25 25 25 25 25 25 25 25 25 25 25 25 26 30 52 110 110 52 30 26 25 25 25 25 25 25 25 25 25 25 25 25 25 25 25 25 25 25 25 25 25 25 25 25 25 25 25 25 25 25 25 25 25 25 25 26 30 52 111 
151 111 95 91 91 91 91 91 91 91 91 91 91 91 91 91 91 91 91 91 91 91 91 91 91 91 91 91 91 91 91 92 95 98 96 92 91 91 91 91 91 91 91 91 91 91 91 91 93 97 97 93 91 91 91 91 91 91 91 91 91 91 91 91 94 108 143 143 108 94 91 91 91 91 91 91 91 91 91 91 91 91 91 91 91 91 91 91 91 91 92 94 98 96 92 91 91 91 91 91 91 91 92 94 98 96 93 95 111 151 
