P2
110 110
255
76 39 37 37 37 37 37 37 37 37 37 37 37 37 37 37 37 37 37 37 37 37 37 37 37 37 37 37 37 37 37 38 45 104 73 39 37 37 37 37 37 37 37 37 37 37 37 37 39 76 76 39 37 37 37 37 37 37 37 37 37 37 37 37 37 37 38 38 37 37 37 37 37 37 37 37 37 37 37 37 37 37 37 37 37 37 37 37 37 37 37 43 103 73 39 37 37 37 37 37 37 37 37 43 103 73 39 37 39 76 
39 -4 -6 -6 -6 -6 -6 -6 -6 -6 -6 -6 -6 -6 -6 -6 -6 -6 -6 -6 -6 -6 -6 -6 -6 -6 -6 -6 -6 -6 -6 0 67 66 0 -6 -6 -6 -6 -6 -6 -6 -6 -6 -6 -6 -6 -6 -4 39 39 -4 -6 -6 -6 -6 -6 -6 -6 -6 -6 -6 -6 -6 -6 -6 -6 -6 -6 -6 -6 -6 -6 -6 -6 -6 -6 -6 -6 -6 -6 -6 -6 -6 -6 -6 -6 -6 -6 -6 -4 38 69 0 -6 -6 -6 -6 -6 -6 -6 -6 -4 36 69 0 -6 -6 -4 39 
37 -6 -9 -9 -9 -9 -9 -9 -9 -9 -9 -9 -9 -9 -9 -9 -9 -9 -9 -9 -9 -9 -9 -9 -9 -9 -9 -9 -9 -9 -6 35 68 0 -8 -9 -9 -9 -9 -9 -9 -9 -9 -9 -9 -9 -9 -9 -6 39 37 -6 -9 -9 -9 -9 -9 -9 -9 -9 -9 -9 -9 -9 -9 -9 -9 -9 -9 -9 -9 -9 -9 -9 -9 -9 -9 -9 -9 -9 -9 -9 -9 -9 -9 -9 -9 -9 -9 -8 -2 68 35 -6 -9 -9 -9 -9 -9 -9 -9 -9 -6 37 39 -6 -9 -9 -6 37 
37 -6 -9 -9 -9 -9 -9 -9 -9 -9 -9 -9 -9 -9 -9 -9 -9 -9 -9 -9 -9 -9 -9 -9 -9 -9 -9 -9 -9 -8 0 68 35 -6 -9 -9 -9 -9 -9 -9 -9 -9 -9 -9 -9 -9 -9 -9 -2 72 38 -6 -9 -9 -9 -9 -9 -9 -9 -9 -9 -9 -9 -9 -9 -9 -9 -9 -9 -9 -9 -9 -9 -9 -9 -9 -9 -9 -9 -9 -9 -9 -9 -9 -9 -9 -9 -9 -9 -6 34 68 -2 -9 -9 -9 -9 -9 -9 -9 -9 -9 -6 39 37 -6 -9 -9 -6 37 
37 -6 -9 -9 -9 -9 -9 -9 -9 -9 -9 -9 -9 -9 -9 -9 -9 -9 -9 -9 -9 -9 -9 -9 -9 -9 -9 -9 -9 -2 65 65 -2 -9 -9 -9 -9 -9 -9 -9 -9 -9 -9 -9 -9 -9 -9 -6 36 106 38 -6 -9 -9 -9 -9 -9 -9 -9 -9 -9 -9 -9 -9 -9 -9 -9 -9 -9 -9 -9 -9 -9 -9 -9 -9 -9 -9 -9 -9 -9 -9 -9 -9 -9 -9 -9 -9 -9 -6 39 39 -6 -9 -9 -9 -9 -9 -9 -9 -9 -9 -2 68 33 -6 -9 -9 -6 37 
37 -6 -9 -9 -9 -9 -9 -9 -9 -9 -9 -9 -9 -9 -9 -9 -9 -9 -9 -9 -9 -9 -9 -9 -9 -9 -9 -9 -6 35 68 0 -8 -9 -9 -9 -9 -9 -9 -9 -9 -9 -9 -9 -9 -9 -9 -2 68 78 37 -6 -9 -9 -9 -9 -9 -9 -9 -9 -9 -9 -9 -9 -9 -9 -9 -9 -9 -9 -9 -9 -9 -9 -9 -9 -9 -9 -9 -9 -9 -9 -9 -9 -9 -9 -9 -9 -9 -2 68 34 -6 -9 -9 -9 -9 -9 -9 -9 -9 -6 33 68 -2 -9 -9 -9 -6 37 
37 -6 -9 -9 -9 -9 -9 -9 -9 -9 -9 -9 -9 -9 -9 -9 -9 -9 -9 -9 -9 -9 -9 -9 -9 -9 -9 -8 0 68 35 -6 -9 -9 -9 -9 -9 -9 -9 -9 -9 -9 -9 -9 -9 -9 -6 35 70 44 37 -6 -9 -9 -9 -9 -9 -9 -9 -9 -9 -9 -9 -9 -9 -9 -9 -9 -9 -9 -9 -9 -9 -9 -9 -9 -9 -9 -9 -9 -9 -9 -9 -9 -9 -9 -9 -9 -6 35 68 -2 -9 -9 -9 -9 -9 -9 -9 -9 -9 -6 37 39 -6 -9 -9 -9 -6 37 
37 -6 -9 -9 -9 -9 -9 -9 -9 -9 -9 -9 -9 -9 -9 -9 -9 -9 -9 -9 -9 -9 -9 -9 -9 -9 -9 -2 65 65 -2 -9 -9 -9 -9 -9 -9 -9 -9 -9 -9 -9 -9 -9 -9 -9 -2 68 38 39 39 -6 -9 -9 -9 -9 -9 -9 -9 -9 -9 -9 -9 -9 -9 -9 -9 -9 -9 -9 -9 -9 -9 -9 -9 -9 -9 -9 -9 -9 -9 -9 -9 -9 -9 -9 -9 -9 -2 68 35 -6 -9 -9 -9 -9 -9 -9 -9 -9 -9 -6 39 37 -6 -9 -9 -9 -6 37 
37 -6 -9 -9 -9 -9 -9 -9 -9 -9 -9 -9 -9 -9 -9 -9 -9 -9 -9 -9 -9 -9 -9 -9 -9 -9 -6 35 68 0 -8 -9 -9 -9 -9 -9 -9 -9 -9 -9 -9 -9 -9 -9 -9 -6 35 68 0 34 68 -2 -9 -9 -9 -9 -9 -9 -9 -9 -9 -9 -9 -9 -9 -9 -9 -9 -9 -9 -9 -9 -9 -9 -9 -9 -9 -9 -9 -9 -9 -9 -9 -9 -9 -9 -9 -6 34 68 -2 -9 -9 -9 -9 -9 -9 -9 -9 -9 -9 -2 68 33 -6 -9 -9 -9 -6 37 
37 -6 -9 -9 -9 -9 -9 -9 -9 -9 -9 -9 -9 -9 -9 -9 -9 -9 -9 -9 -9 -9 -9 -9 -9 -8 0 68 35 -6 -9 -9 -9 -9 -9 -9 -9 -9 -9 -9 -9 -9 -9 -9 -8 0 68 35 -6 -2 68 33 -6 -9 -9 -9 -9 -9 -9 -9 -9 -9 -9 -9 -9 -9 -9 -9 -9 -9 -9 -9 -9 -9 -9 -9 -9 -9 -9 -9 -9 -9 -9 -9 -9 -9 -9 -6 39 39 -6 -9 -9 -9 -9 -9 -9 -9 -9 -9 -6 33 68 -2 -9 -9 -9 -9 -6 37 
37 -6 -9 -9 -9 -9 -9 -9 -9 -9 -9 -9 -9 -9 -9 -9 -9 -9 -9 -9 -9 -9 -9 -9 -9 -2 65 65 -2 -9 -9 -9 -9 -9 -9 -9 -9 -9 -9 -9 -9 -9 -9 -9 -2 65 65 -2 -8 -6 39 37 -6 -9 -9 -9 -9 -9 -9 -9 -9 -9 -9 -9 -9 -9 -9 -9 -9 -9 -9 -9 -9 -9 -9 -9 -9 -9 -9 -9 -9 -9 -9 -9 -9 -9 -9 -2 68 34 -6 -9 -9 -9 -9 -9 -9 -9 -9 -9 -6 37 39 -6 -9 -9 -9 -9 -6 37 
37 -6 -9 -9 -9 -9 -9 -9 -9 -9 -9 -9 -9 -9 -9 -9 -9 -9 -9 -9 -9 -9 -9 -9 -6 35 68 0 -8 -9 -9 -9 -9 -9 -9 -9 -9 -9 -9 -9 -9 -9 -9 -6 35 68 0 -8 -9 -6 37 37 -6 -9 -9 -9 -9 -9 -9 -9 -9 -9 -9 -9 -9 -9 -9 -9 -9 -9 -9 -9 -9 -9 -9 -9 -9 -9 -9 -9 -9 -9 -9 -9 -9 -9 -6 35 68 -2 -9 -9 -9 -9 -9 -9 -9 -9 -9 -9 -6 39 37 -6 -9 -9 -9 -9 -6 37 
37 -6 -9 -9 -9 -9 -9 -9 -9 -9 -9 -9 -9 -9 -9 -9 -9 -9 -9 -9 -9 -9 -9 -8 0 68 35 -6 -9 -9 -9 -9 -9 -9 -9 -9 -9 -9 -9 -9 -9 -9 -9 -2 68 35 -6 -9 -9 -6 37 37 -6 -9 -9 -9 -9 -9 -9 -9 -9 -9 -9 -9 -9 -9 -9 -9 -9 -9 -9 -9 -9 -9 -9 -9 -9 -9 -9 -9 -9 -9 -9 -9 -9 -9 -2 68 35 -6 -9 -9 -9 -9 -9 -9 -9 -9 -9 -9 -2 68 33 -6 -9 -9 -9 -9 -6 37 
39 -6 -9 -9 -9 -9 -9 -9 -9 -9 -9 -9 -9 -9 -9 -9 -9 -9 -9 -9 -9 -9 -9 -2 65 65 -2 -9 -9 -9 -9 -9 -9 -9 -9 -9 -9 -9 -9 -9 -9 -9 -6 35 68 -2 -9 -9 -9 -6 37 37 -6 -9 -9 -9 -9 -9 -9 -9 -9 -9 -9 -9 -9 -9 -9 -9 -9 -9 -9 -9 -9 -9 -9 -9 -9 -9 -9 -9 -9 -9 -9 -9 -9 -6 34 68 -2 -9 -9 -9 -9 -9 -9 -9 -9 -9 -9 -6 33 68 -2 -9 -9 -9 -9 -9 -6 37 
73 0 -8 -9 -9 -9 -9 -9 -9 -9 -9 -9 -9 -9 -9 -9 -9 -9 -9 -9 -9 -9 -6 35 68 0 -8 -9 -9 -9 -9 -9 -9 -9 -9 -9 -9 -9 -9 -9 -9 -9 -2 68 35 -6 -9 -9 -9 -6 37 39 -6 -9 -9 -9 -9 -9 -9 -9 -9 -9 -9 -9 -9 -9 -9 -9 -9 -9 -9 -9 -9 -9 -9 -9 -9 -9 -9 -9 -9 -9 -9 -9 -9 -6 39 39 -6 -9 -9 -9 -9 -9 -9 -9 -9 -9 -9 -6 37 39 -6 -9 -9 -9 -9 -9 -6 38 
104 66 0 -8 -9 -9 -9 -9 -9 -9 -9 -9 -9 -9 -9 -9 -9 -9 -9 -9 -9 -8 0 68 35 -6 -9 -9 -9 -9 -9 -9 -9 -9 -9 -9 -9 -9 -9 -9 -9 -6 35 68 -2 -9 -9 -9 -9 -6 33 68 -2 -9 -9 -9 -9 -9 -9 -9 -9 -9 -9 -9 -9 -9 -9 -9 -9 -9 -9 -9 -9 -9 -9 -9 -9 -9 -9 -9 -9 -9 -9 -9 -9 -2 68 34 -6 -9 -9 -9 -9 -9 -9 -9 -9 -9 -9 -6 39 37 -6 -9 -9 -9 -9 -9 -6 38 
45 67 65 0 -8 -9 -9 -9 -9 -9 -9 -9 -9 -9 -9 -9 -9 -9 -9 -9 -9 -2 65 65 -2 -9 -9 -9 -9 -9 -9 -9 -9 -9 -9 -9 -9 -9 -9 -9 -8 0 68 35 -6 -9 -9 -9 -9 -9 -2 68 33 -6 -9 -9 -9 -9 -9 -9 -9 -9 -9 -9 -9 -9 -9 -9 -9 -9 -9 -9 -9 -9 -9 -9 -9 -9 -9 -9 -9 -9 -9 -9 -6 35 68 -2 -9 -9 -9 -9 -9 -9 -9 -9 -9 -9 -9 -2 68 33 -6 -9 -9 -9 -9 -9 -6 37 
38 2 65 65 -2 -9 -9 -9 -9 -9 -9 -9 -9 -9 -9 -9 -9 -9 -9 -9 -6 35 68 0 -8 -9 -9 -9 -9 -9 -9 -9 -9 -9 -9 -9 -9 -9 -9 -9 -2 65 65 -2 -9 -9 -9 -9 -9 -9 -6 39 37 -6 -9 -9 -9 -9 -9 -9 -9 -9 -9 -9 -9 -9 -9 -9 -9 -9 -9 -9 -9 -9 -9 -9 -9 -9 -9 -9 -9 -9 -9 -9 -2 68 35 -6 -9 -9 -9 -9 -9 -9 -9 -9 -9 -9 -6 33 68 -2 -9 -9 -9 -9 -9 -9 -6 37 
37 -6 0 68 35 -6 -9 -9 -9 -9 -9 -9 -9 -9 -9 -9 -9 -9 -9 -8 0 68 35 -6 -9 -9 -9 -9 -9 -9 -9 -9 -9 -9 -9 -9 -9 -9 -9 -6 35 68 0 -8 -9 -9 -9 -9 -9 -9 -6 37 37 -6 -9 -9 -9 -9 -9 -9 -9 -9 -9 -9 -9 -9 -9 -9 -9 -9 -9 -9 -9 -9 -9 -9 -9 -9 -9 -9 -9 -9 -9 -6 34 68 -2 -9 -9 -9 -9 -9 -9 -9 -9 -9 -9 -9 -6 37 39 -6 -9 -9 -9 -9 -9 -9 -6 37 
37 -6 -6 35 68 0 -8 -9 -9 -9 -9 -9 -9 -9 -9 -9 -9 -9 -9 -2 65 65 -2 -9 -9 -9 -9 -9 -9 -9 -9 -9 -9 -9 -9 -9 -9 -9 -9 -2 68 35 -6 -9 -9 -9 -9 -9 -9 -9 -6 37 37 -6 -9 -9 -9 -9 -9 -9 -9 -9 -9 -9 -9 -9 -9 -9 -9 -9 -9 -9 -9 -9 -9 -9 -9 -9 -9 -9 -9 -9 -9 -6 39 39 -6 -9 -9 -9 -9 -9 -9 -9 -9 -9 -9 -9 -6 39 37 -6 -9 -9 -9 -9 -9 -9 -6 37 
37 -6 -8 -2 65 65 0 -8 -9 -9 -9 -9 -9 -9 -9 -9 -9 -9 -6 35 68 0 -8 -9 -9 -9 -9 -9 -9 -9 -9 -9 -9 -9 -9 -9 -9 -9 -6 35 68 -2 -9 -9 -9 -9 -9 -9 -9 -9 -6 37 37 -6 -9 -9 -9 -9 -9 -9 -9 -9 -9 -9 -9 -9 -9 -9 -9 -9 -9 -9 -9 -9 -9 -9 -9 -9 -9 -9 -9 -9 -9 -2 68 34 -6 -9 -9 -9 -9 -9 -9 -9 -9 -9 -9 -9 -2 68 33 -6 -9 -9 -9 -9 -9 -9 -6 37 
37 -6 -9 -8 0 65 65 0 -8 -9 -9 -9 -9 -9 -9 -9 -9 -8 0 68 35 -6 -9 -9 -9 -9 -9 -9 -9 -9 -9 -9 -9 -9 -9 -9 -9 -9 -2 68 35 -6 -9 -9 -9 -9 -9 -9 -9 -9 -6 37 39 -6 -9 -9 -9 -9 -9 -9 -9 -9 -9 -9 -9 -9 -9 -9 -9 -9 -9 -9 -9 -9 -9 -9 -9 -9 -9 -9 -9 -9 -6 35 68 -2 -9 -9 -9 -9 -9 -9 -9 -9 -9 -9 -9 -6 33 68 -2 -9 -9 -9 -9 -9 -9 -9 -6 37 
37 -6 -9 -9 -8 0 65 65 0 -8 -9 -9 -9 -9 -9 -9 -9 -2 65 65 -2 -9 -9 -9 -9 -9 -9 -9 -9 -9 -9 -9 -9 -9 -9 -9 -9 -6 35 68 -2 -9 -9 -9 -9 -9 -9 -9 -9 -9 -6 33 68 -2 -9 -9 -9 -9 -9 -9 -9 -9 -9 -9 -9 -9 -9 -9 -9 -9 -9 -9 -9 -9 -9 -9 -9 -9 -9 -9 -9 -9 -2 68 35 -6 -9 -9 -9 -9 -9 -9 -9 -9 -9 -9 -9 -6 37 39 -6 -9 -9 -9 -9 -9 -9 -9 -6 37 
37 -6 -9 -9 -9 -8 0 65 65 0 -8 -9 -9 -9 -9 -9 -6 35 68 0 -8 -9 -9 -9 -9 -9 -9 -9 -9 -9 -9 -9 -9 -9 -9 -9 -8 0 68 35 -6 -9 -9 -9 -9 -9 -9 -9 -9 -9 -9 -2 68 33 -6 -9 -9 -9 -9 -9 -9 -9 -9 -9 -9 -9 -9 -9 -9 -9 -9 -9 -9 -9 -9 -9 -9 -9 -9 -9 -9 -6 34 68 -2 -9 -9 -9 -9 -9 -9 -9 -9 -9 -9 -9 -9 -6 39 37 -6 -9 -9 -9 -9 -9 -9 -9 -6 37 
37 -6 -9 -9 -9 -9 -8 0 65 65 0 -8 -9 -9 -9 -8 0 68 35 -6 -9 -9 -9 -9 -9 -9 -9 -9 -9 -9 -9 -9 -9 -9 -9 -9 -2 65 65 -2 -9 -9 -9 -9 -9 -9 -9 -9 -9 -9 -9 -6 39 37 -6 -9 -9 -9 -9 -9 -9 -9 -9 -9 -9 -9 -9 -9 -9 -9 -9 -9 -9 -9 -9 -9 -9 -9 -9 -9 -9 -6 39 39 -6 -9 -9 -9 -9 -9 -9 -9 -9 -9 -9 -9 -9 -2 68 33 -6 -9 -9 -9 -9 -9 -9 -9 -6 37 
37 -6 -9 -9 -9 -9 -9 -8 0 65 65 0 -8 -9 -9 -2 65 65 -2 -9 -9 -9 -9 -9 -9 -9 -9 -9 -9 -9 -9 -9 -9 -9 -9 -6 35 68 0 -8 -9 -9 -9 -9 -9 -9 -9 -9 -9 -9 -9 -6 37 37 -6 -9 -9 -9 -9 -9 -9 -9 -9 -9 -9 -9 -9 -9 -9 -9 -9 -9 -9 -9 -9 -9 -9 -9 -9 -9 -9 -2 68 34 -6 -9 -9 -9 -9 -9 -9 -9 -9 -9 -9 -9 -6 33 68 -2 -9 -9 -9 -9 -9 -9 -9 -9 -6 37 
37 -6 -9 -9 -9 -9 -9 -9 -8 0 65 65 0 -8 -6 35 68 0 -8 -9 -9 -9 -9 -9 -9 -9 -9 -9 -9 -9 -9 -9 -9 -9 -9 -2 68 35 -6 -9 -9 -9 -9 -9 -9 -9 -9 -9 -9 -9 -9 -6 37 37 -6 -9 -9 -9 -9 -9 -9 -9 -9 -9 -9 -9 -9 -9 -9 -9 -9 -9 -9 -9 -9 -9 -9 -9 -9 -9 -6 35 68 -2 -9 -9 -9 -9 -9 -9 -9 -9 -9 -9 -9 -9 -6 37 39 -6 -9 -9 -9 -9 -9 -9 -9 -9 -6 37 
37 -6 -9 -9 -9 -9 -9 -9 -9 -8 0 65 65 0 0 68 35 -6 -9 -9 -9 -9 -9 -9 -9 -9 -9 -9 -9 -9 -9 -9 -9 -9 -6 35 68 -2 -9 -9 -9 -9 -9 -9 -9 -9 -9 -9 -9 -9 -9 -6 37 39 -6 -9 -9 -9 -9 -9 -9 -9 -9 -9 -9 -9 -9 -9 -9 -9 -9 -9 -9 -9 -9 -9 -9 -9 -9 -9 -2 68 35 -6 -9 -9 -9 -9 -9 -9 -9 -9 -9 -9 -9 -9 -6 39 37 -6 -9 -9 -9 -9 -9 -9 -9 -9 -6 37 
37 -6 -9 -9 -9 -9 -9 -9 -9 -9 -8 0 65 71 71 65 -2 -9 -9 -9 -9 -9 -9 -9 -9 -9 -9 -9 -9 -9 -9 -9 -9 -9 -2 68 35 -6 -9 -9 -9 -9 -9 -9 -9 -9 -9 -9 -9 -9 -9 -6 33 68 -2 -9 -9 -9 -9 -9 -9 -9 -9 -9 -9 -9 -9 -9 -9 -9 -9 -9 -9 -9 -9 -9 -9 -9 -9 -6 34 68 -2 -9 -9 -9 -9 -9 -9 -9 -9 -9 -9 -9 -9 -9 -2 68 33 -6 -9 -9 -9 -9 -9 -9 -9 -9 -6 37 
37 -6 -9 -9 -9 -9 -9 -9 -9 -9 -9 -8 0 73 73 0 -8 -9 -9 -9 -9 -9 -9 -9 -9 -9 -9 -9 -9 -9 -9 -9 -9 -6 35 68 -2 -9 -9 -9 -9 -9 -9 -9 -9 -9 -9 -9 -9 -9 -9 -9 -2 68 33 -6 -9 -9 -9 -9 -9 -9 -9 -9 -9 -9 -9 -9 -9 -9 -9 -9 -9 -9 -9 -9 -9 -9 -9 -6 39 39 -6 -9 -9 -9 -9 -9 -9 -9 -9 -9 -9 -9 -9 -6 33 68 -2 -9 -9 -9 -9 -9 -9 -9 -9 -9 -6 37 
37 -6 -9 -9 -9 -9 -9 -9 -9 -9 -9 -9 -6 39 39 -6 -9 -9 -9 -9 -9 -9 -9 -9 -9 -9 -9 -9 -9 -9 -9 -9 -8 0 68 35 -6 -9 -9 -9 -9 -9 -9 -9 -9 -9 -9 -9 -9 -9 -9 -9 -6 39 37 -6 -9 -9 -9 -9 -9 -9 -9 -9 -9 -9 -9 -9 -9 -9 -9 -9 -9 -9 -9 -9 -9 -9 -9 -2 68 34 -6 -9 -9 -9 -9 -9 -9 -9 -9 -9 -9 -9 -9 -6 37 39 -6 -9 -9 -9 -9 -9 -9 -9 -9 -9 -6 37 
37 -6 -9 -9 -9 -9 -9 -9 -9 -9 -9 -9 -6 37 39 -6 -9 -9 -9 -9 -9 -9 -9 -9 -9 -9 -9 -9 -9 -9 -9 -9 -2 65 65 -2 -9 -9 -9 -9 -9 -9 -9 -9 -9 -9 -9 -9 -9 -9 -9 -9 -6 37 37 -6 -9 -9 -9 -9 -9 -9 -9 -9 -9 -9 -9 -9 -9 -9 -9 -9 -9 -9 -9 -9 -9 -9 -6 35 68 -2 -9 -9 -9 -9 -9 -9 -9 -9 -9 -9 -9 -9 -9 -6 39 37 -6 -9 -9 -9 -9 -9 -9 -9 -9 -9 -6 37 
37 -6 -9 -9 -9 -9 -9 -9 -9 -9 -9 -9 -6 33 68 -2 -9 -9 -9 -9 -9 -9 -9 -9 -9 -9 -9 -9 -9 -9 -9 -6 35 68 0 -8 -9 -9 -9 -9 -9 -9 -9 -9 -9 -9 -9 -9 -9 -9 -9 -9 -6 37 37 -6 -9 -9 -9 -9 -9 -9 -9 -9 -9 -9 -9 -9 -9 -9 -9 -9 -9 -9 -9 -9 -9 -9 -2 68 35 -6 -9 -9 -9 -9 -9 -9 -9 -9 -9 -9 -9 -9 -9 -2 68 33 -6 -9 -9 -9 -9 -9 -9 -9 -9 -9 -6 37 
37 -6 -9 -9 -9 -9 -9 -9 -9 -9 -9 -9 -9 -2 68 33 -6 -9 -9 -9 -9 -9 -9 -9 -9 -9 -9 -9 -9 -9 -9 -2 68 35 -6 -9 -9 -9 -9 -9 -9 -9 -9 -9 -9 -9 -9 -9 -9 -9 -9 -9 -6 37 37 -6 -9 -9 -9 -9 -9 -9 -9 -9 -9 -9 -9 -9 -9 -9 -9 -9 -9 -9 -9 -9 -9 -6 34 68 -2 -9 -9 -9 -9 -9 -9 -9 -9 -9 -9 -9 -9 -9 -6 33 68 -2 -9 -9 -9 -9 -9 -9 -9 -9 -9 -9 -6 37 
37 -6 -9 -9 -9 -9 -9 -9 -9 -9 -9 -9 -9 -6 39 37 -6 -9 -9 -9 -9 -9 -9 -9 -9 -9 -9 -9 -9 -9 -6 35 68 -2 -9 -9 -9 -9 -9 -9 -9 -9 -9 -9 -9 -9 -9 -9 -9 -9 -9 -9 -6 37 39 -6 -9 -9 -9 -9 -9 -9 -9 -9 -9 -9 -9 -9 -9 -9 -9 -9 -9 -9 -9 -9 -9 -6 39 39 -6 -9 -9 -9 -9 -9 -9 -9 -9 -9 -9 -9 -9 -9 -6 37 39 -6 -9 -9 -9 -9 -9 -9 -9 -9 -9 -9 -6 37 
37 -6 -9 -9 -9 -9 -9 -9 -9 -9 -9 -9 -9 -6 37 37 -6 -9 -9 -9 -9 -9 -9 -9 -9 -9 -9 -9 -9 -9 -2 68 35 -6 -9 -9 -9 -9 -9 -9 -9 -9 -9 -9 -9 -9 -9 -9 -9 -9 -9 -9 -6 33 68 -2 -9 -9 -9 -9 -9 -9 -9 -9 -9 -9 -9 -9 -9 -9 -9 -9 -9 -9 -9 -9 -9 -2 68 34 -6 -9 -9 -9 -9 -9 -9 -9 -9 -9 -9 -9 -9 -9 -6 39 37 -6 -9 -9 -9 -9 -9 -9 -9 -9 -9 -9 -6 37 
37 -6 -9 -9 -9 -9 -9 -9 -9 -9 -9 -9 -9 -6 37 39 -6 -9 -9 -9 -9 -9 -9 -9 -9 -9 -9 -9 -9 -6 35 68 -2 -9 -9 -9 -9 -9 -9 -9 -9 -9 -9 -9 -9 -9 -9 -9 -9 -9 -9 -9 -9 -2 68 33 -6 -9 -9 -9 -9 -9 -9 -9 -9 -9 -9 -9 -9 -9 -9 -9 -9 -9 -9 -9 -6 35 68 -2 -9 -9 -9 -9 -9 -9 -9 -9 -9 -9 -9 -9 -9 -9 -2 68 33 -6 -9 -9 -9 -9 -9 -9 -9 -9 -9 -9 -6 39 
38 -6 -9 -9 -9 -9 -9 -9 -9 -9 -9 -9 -9 -6 33 68 -2 -9 -9 -9 -9 -9 -9 -9 -9 -9 -9 -9 -8 0 68 35 -6 -9 -9 -9 -9 -9 -9 -9 -9 -9 -9 -9 -9 -9 -9 -9 -9 -9 -9 -9 -9 -6 39 37 -6 -9 -9 -9 -9 -9 -9 -9 -9 -9 -9 -9 -9 -9 -9 -9 -9 -9 -9 -9 -2 68 35 -6 -9 -9 -9 -9 -9 -9 -9 -9 -9 -9 -9 -9 -9 -6 33 68 -2 -9 -9 -9 -9 -9 -9 -9 -9 -9 -9 -9 -2 72 
38 -6 -9 -9 -9 -9 -9 -9 -9 -9 -9 -9 -9 -9 -2 68 33 -6 -9 -9 -9 -9 -9 -9 -9 -9 -9 -9 -2 65 65 -2 -9 -9 -9 -9 -9 -9 -9 -9 -9 -9 -9 -9 -9 -9 -9 -9 -9 -9 -9 -9 -9 -6 37 37 -6 -9 -9 -9 -9 -9 -9 -9 -9 -9 -9 -9 -9 -9 -9 -9 -9 -9 -9 -6 34 68 -2 -9 -9 -9 -9 -9 -9 -9 -9 -9 -9 -9 -9 -9 -9 -6 37 39 -6 -9 -9 -9 -9 -9 -9 -9 -9 -9 -9 -6 36 106 
37 -6 -9 -9 -9 -9 -9 -9 -9 -9 -9 -9 -9 -9 -6 39 37 -6 -9 -9 -9 -9 -9 -9 -9 -9 -9 -6 35 68 0 -8 -9 -9 -9 -9 -9 -9 -9 -9 -9 -9 -9 -9 -9 -9 -9 -9 -9 -9 -9 -9 -9 -6 37 37 -6 -9 -9 -9 -9 -9 -9 -9 -9 -9 -9 -9 -9 -9 -9 -9 -9 -9 -9 -6 39 39 -6 -9 -9 -9 -9 -9 -9 -9 -9 -9 -9 -9 -9 -9 -9 -6 39 37 -6 -9 -9 -9 -9 -9 -9 -9 -9 -9 -8 0 69 78 
37 -6 -9 -9 -9 -9 -9 -9 -9 -9 -9 -9 -9 -9 -6 37 37 -6 -9 -9 -9 -9 -9 -9 -9 -9 -9 -2 68 35 -6 -9 -9 -9 -9 -9 -9 -9 -9 -9 -9 -9 -9 -9 -9 -9 -9 -9 -9 -9 -9 -9 -9 -6 37 37 -6 -9 -9 -9 -9 -9 -9 -9 -9 -9 -9 -9 -9 -9 -9 -9 -9 -9 -9 -2 68 34 -6 -9 -9 -9 -9 -9 -9 -9 -9 -9 -9 -9 -9 -9 -9 -2 68 33 -6 -9 -9 -9 -9 -9 -9 -9 -9 -9 -2 65 67 43 
37 -6 -9 -9 -9 -9 -9 -9 -9 -9 -9 -9 -9 -9 -6 37 39 -6 -9 -9 -9 -9 -9 -9 -9 -9 -6 35 68 -2 -9 -9 -9 -9 -9 -9 -9 -9 -9 -9 -9 -9 -9 -9 -9 -9 -9 -9 -9 -9 -9 -9 -9 -6 37 39 -6 -9 -9 -9 -9 -9 -9 -9 -9 -9 -9 -9 -9 -9 -9 -9 -9 -9 -6 35 68 -2 -9 -9 -9 -9 -9 -9 -9 -9 -9 -9 -9 -9 -9 -9 -6 33 68 -2 -9 -9 -9 -9 -9 -9 -9 -9 -9 -6 35 68 2 38 
37 -6 -9 -9 -9 -9 -9 -9 -9 -9 -9 -9 -9 -9 -6 33 68 -2 -9 -9 -9 -9 -9 -9 -9 -9 -2 68 35 -6 -9 -9 -9 -9 -9 -9 -9 -9 -9 -9 -9 -9 -9 -9 -9 -9 -9 -9 -9 -9 -9 -9 -9 -6 33 68 -2 -9 -9 -9 -9 -9 -9 -9 -9 -9 -9 -9 -9 -9 -9 -9 -9 -9 -2 68 35 -6 -9 -9 -9 -9 -9 -9 -9 -9 -9 -9 -9 -9 -9 -9 -6 37 39 -6 -9 -9 -9 -9 -9 -9 -9 -9 -8 0 68 35 -4 37 
37 -6 -9 -9 -9 -9 -9 -9 -9 -9 -9 -9 -9 -9 -9 -2 68 33 -6 -9 -9 -9 -9 -9 -9 -6 35 68 -2 -9 -9 -9 -9 -9 -9 -9 -9 -9 -9 -9 -9 -9 -9 -9 -9 -9 -9 -9 -9 -9 -9 -9 -9 -9 -2 68 33 -6 -9 -9 -9 -9 -9 -9 -9 -9 -9 -9 -9 -9 -9 -9 -9 -6 34 68 -2 -9 -9 -9 -9 -9 -9 -9 -9 -9 -9 -9 -9 -9 -9 -9 -6 39 37 -6 -9 -9 -9 -9 -9 -9 -9 -9 -2 65 65 -2 -6 37 
37 -6 -9 -9 -9 -9 -9 -9 -9 -9 -9 -9 -9 -9 -9 -6 39 37 -6 -9 -9 -9 -9 -9 -8 0 68 35 -6 -9 -9 -9 -9 -9 -9 -9 -9 -9 -9 -9 -9 -9 -9 -9 -9 -9 -9 -9 -9 -9 -9 -9 -9 -9 -6 39 37 -6 -9 -9 -9 -9 -9 -9 -9 -9 -9 -9 -9 -9 -9 -9 -9 -6 39 39 -6 -9 -9 -9 -9 -9 -9 -9 -9 -9 -9 -9 -9 -9 -9 -9 -2 68 33 -6 -9 -9 -9 -9 -9 -9 -9 -6 35 68 0 -8 -6 37 
37 -6 -9 -9 -9 -9 -9 -9 -9 -9 -9 -9 -9 -9 -9 -6 37 37 -6 -9 -9 -9 -9 -9 -2 65 65 -2 -9 -9 -9 -9 -9 -9 -9 -9 -9 -9 -9 -9 -9 -9 -9 -9 -9 -9 -9 -9 -9 -9 -9 -9 -9 -9 -6 39 39 -4 -6 -6 -6 -6 -9 -9 -9 -9 -9 -9 -9 -9 -9 -9 -9 -2 68 34 -6 -9 -9 -9 -9 -9 -9 -9 -9 -9 -9 -9 -9 -9 -9 -6 33 68 -2 -9 -9 -9 -9 -9 -9 -9 -8 0 68 35 -6 -9 -6 37 
37 -6 -9 -9 -9 -9 -9 -9 -9 -9 -9 -9 -9 -9 -9 -6 37 39 -6 -9 -9 -9 -9 -6 35 68 0 -8 -9 -9 -9 -9 -9 -9 -9 -9 -9 -9 -9 -9 -9 -9 -9 -9 -9 -9 -9 -9 -9 -9 -9 -9 -9 -6 0 73 76 39 37 37 37 33 -2 -6 -6 -6 -6 -6 -6 -9 -9 -9 -6 35 68 -2 -9 -9 -9 -9 -9 -9 -9 -9 -9 -9 -9 -9 -9 -9 -9 -6 37 39 -6 -9 -9 -9 -9 -9 -9 -9 -2 65 65 -2 -9 -9 -6 37 
37 -6 -9 -9 -9 -9 -9 -9 -9 -9 -9 -9 -9 -9 -9 -6 33 68 -2 -9 -9 -9 -9 -2 68 35 -6 -9 -9 -9 -9 -9 -9 -9 -9 -9 -9 -9 -9 -9 -9 -9 -9 -9 -9 -9 -9 -9 -9 -9 -9 -8 -2 35 68 69 40 37 37 37 39 68 68 39 37 37 37 37 33 -2 -6 -6 0 68 35 -6 -9 -9 -9 -9 -9 -9 -9 -9 -9 -9 -9 -9 -9 -9 -9 -6 39 37 -6 -9 -9 -9 -9 -9 -9 -6 35 68 0 -8 -9 -9 -6 37 
37 -6 -9 -9 -9 -9 -9 -9 -9 -9 -9 -9 -9 -9 -9 -9 -2 68 33 -6 -9 -9 -6 35 68 -2 -9 -9 -9 -9 -9 -9 -9 -9 -9 -9 -9 -9 -9 -9 -9 -9 -9 -9 -9 -9 -9 -9 -9 -9 -6 0 65 68 35 -2 -6 -6 -6 -6 -6 -2 33 37 37 37 37 39 68 68 39 39 73 71 -1 -8 -9 -9 -9 -9 -9 -9 -9 -9 -9 -9 -9 -9 -9 -9 -9 -2 68 33 -6 -9 -9 -9 -9 -9 -8 0 68 35 -6 -9 -9 -9 -6 37 
37 -6 -9 -9 -9 -9 -9 -9 -9 -9 -9 -9 -9 -9 -9 -9 -6 39 37 -6 -9 -9 -2 68 35 -6 -9 -9 -9 -9 -9 -9 -9 -9 -9 -9 -9 -9 -9 -9 -9 -9 -9 -9 -9 -9 -9 -9 -8 -2 35 68 65 0 -6 -9 -9 -9 -9 -9 -9 -9 -6 -6 -6 -6 -6 -6 -2 33 37 39 73 71 -1 -8 -9 -9 -9 -9 -9 -9 -9 -9 -9 -9 -9 -9 -9 -9 -6 33 68 -2 -9 -9 -9 -9 -9 -9 -2 65 65 -2 -9 -9 -9 -9 -6 37 
37 -6 -9 -9 -9 -9 -9 -9 -9 -9 -9 -9 -9 -9 -9 -9 -6 37 37 -6 -9 -6 35 68 -2 -9 -9 -9 -9 -9 -9 -9 -9 -9 -9 -9 -9 -9 -9 -9 -9 -9 -9 -9 -9 -9 -9 -6 0 65 68 35 -2 -8 -9 -9 -9 -9 -9 -9 -9 -9 -9 -9 -9 -9 -9 -9 -9 -6 -6 -6 0 68 35 -6 -9 -9 -9 -9 -9 -9 -9 -9 -9 -9 -9 -9 -9 -9 -6 37 39 -6 -9 -9 -9 -9 -9 -6 35 68 0 -8 -9 -9 -9 -9 -6 37 
37 -6 -9 -9 -9 -9 -9 -9 -9 -9 -9 -9 -9 -9 -9 -9 -6 37 39 -6 -8 0 68 35 -6 -9 -9 -9 -9 -9 -9 -9 -9 -9 -9 -9 -9 -9 -9 -9 -9 -9 -9 -9 -9 -8 -2 35 68 65 0 -6 -9 -9 -9 -9 -9 -9 -9 -9 -9 -9 -9 -9 -9 -9 -9 -9 -9 -9 -9 -9 -6 35 68 0 -8 -9 -9 -9 -9 -9 -9 -9 -9 -9 -9 -9 -9 -9 -6 39 37 -6 -9 -9 -9 -9 -8 0 68 35 -6 -9 -9 -9 -9 -9 -6 37 
37 -6 -9 -9 -9 -9 -9 -9 -9 -9 -9 -9 -9 -9 -9 -9 -6 33 68 -1 -2 65 65 -2 -9 -9 -9 -9 -9 -9 -9 -9 -9 -9 -9 -9 -9 -9 -9 -9 -9 -9 -9 -9 -8 0 65 68 35 -2 -8 -9 -9 -9 -9 -9 -9 -9 -9 -9 -9 -9 -9 -9 -9 -9 -9 -9 -9 -9 -9 -9 -9 -2 65 65 0 -6 -9 -9 -9 -9 -9 -9 -9 -9 -9 -9 -9 -8 -2 68 33 -6 -9 -9 -9 -9 -2 65 65 -2 -9 -9 -9 -9 -9 -9 -6 37 
37 -6 -9 -9 -9 -9 -9 -9 -9 -9 -9 -9 -9 -9 -9 -9 -9 -2 68 36 37 68 0 -8 -9 -9 -9 -9 -9 -9 -9 -9 -9 -9 -9 -9 -9 -9 -9 -9 -9 -9 -9 -6 0 65 65 0 -6 -9 -9 -9 -9 -9 -9 -9 -9 -9 -9 -9 -9 -9 -9 -9 -9 -9 -9 -9 -9 -9 -9 -9 -9 -8 0 69 72 36 -2 -6 -6 -6 -6 -6 -6 -6 -6 -6 -6 -4 36 70 -1 -8 -9 -9 -9 -6 35 68 0 -8 -9 -9 -9 -9 -9 -9 -6 37 
37 -6 -9 -9 -9 -9 -9 -9 -9 -9 -9 -9 -9 -9 -9 -9 -9 -6 39 43 70 35 -6 -9 -9 -9 -9 -9 -9 -9 -9 -9 -9 -9 -9 -9 -9 -9 -9 -9 -9 -8 -2 35 68 65 0 -8 -9 -9 -9 -9 -9 -9 -9 -9 -9 -9 -9 -9 -9 -9 -9 -9 -9 -9 -9 -9 -9 -9 -9 -9 -9 -9 -6 40 78 70 68 39 37 37 37 37 37 37 37 37 37 39 76 74 0 -6 -9 -9 -8 0 68 35 -6 -9 -9 -9 -9 -9 -9 -9 -6 37 
37 -6 -9 -9 -9 -9 -9 -9 -9 -9 -9 -9 -9 -9 -9 -9 -9 -6 37 78 68 -2 -9 -9 -9 -9 -9 -9 -9 -9 -9 -9 -9 -9 -9 -9 -9 -9 -9 -9 -6 0 65 68 35 -2 -8 -9 -9 -9 -9 -9 -9 -9 -9 -9 -9 -9 -9 -9 -9 -9 -9 -9 -9 -9 -9 -9 -9 -9 -9 -9 -9 -9 -6 39 39 0 34 37 37 37 37 37 37 37 37 37 37 37 40 69 68 35 -2 -6 -2 65 65 -2 -9 -9 -9 -9 -9 -9 -9 -9 -6 37 
37 -6 -9 -9 -9 -9 -9 -9 -9 -9 -9 -9 -9 -9 -9 -9 -9 -6 38 106 36 -6 -9 -9 -9 -9 -9 -9 -9 -9 -9 -9 -9 -9 -9 -9 -9 -9 -8 -2 35 68 65 0 -6 -9 -9 -9 -9 -9 -9 -9 -9 -9 -9 -9 -9 -9 -9 -9 -9 -9 -9 -9 -9 -9 -9 -9 -9 -9 -9 -9 -9 -9 -2 68 34 -6 -6 -6 -6 -6 -6 -6 -6 -6 -6 -6 -6 -6 -6 -2 35 68 68 37 40 68 0 -8 -9 -9 -9 -9 -9 -9 -9 -9 -6 37 
37 -6 -9 -9 -9 -9 -9 -9 -9 -9 -9 -9 -9 -9 -9 -9 -9 -6 38 72 -2 -9 -9 -9 -9 -9 -9 -9 -9 -9 -9 -9 -9 -9 -9 -9 -9 -6 0 65 68 35 -2 -8 -9 -9 -9 -9 -9 -9 -9 -9 -9 -9 -9 -9 -9 -9 -9 -9 -9 -9 -9 -9 -9 -9 -9 -9 -9 -9 -9 -9 -9 -6 33 68 -2 -9 -9 -9 -9 -9 -9 -9 -9 -9 -9 -9 -9 -9 -9 -9 -6 -2 35 69 103 42 -6 -9 -9 -9 -9 -9 -9 -9 -9 -9 -6 37 
37 -6 -9 -9 -9 -9 -9 -9 -9 -9 -9 -9 -9 -9 -9 -9 -9 -6 37 39 -6 -9 -9 -9 -9 -9 -9 -9 -9 -9 -9 -9 -9 -9 -9 -8 -2 36 69 65 0 -6 -8 -9 -9 -9 -9 -9 -9 -9 -9 -9 -9 -9 -9 -9 -9 -9 -9 -9 -9 -9 -9 -9 -9 -9 -9 -9 -9 -9 -9 -9 -9 -6 37 39 -6 -9 -9 -9 -9 -9 -9 -9 -9 -9 -9 -9 -9 -9 -9 -9 -9 -9 -6 0 69 69 0 -8 -9 -9 -9 -9 -9 -9 -9 -9 -6 37 
37 -6 -9 -9 -9 -9 -9 -9 -9 -9 -9 -9 -9 -9 -9 -9 -9 -6 37 37 -6 -9 -9 -9 -9 -9 -9 -9 -9 -9 -9 -9 -9 -6 -6 0 69 106 74 4 -6 -6 -6 -6 -9 -9 -9 -9 -9 -9 -9 -9 -9 -9 -9 -9 -9 -9 -9 -9 -9 -9 -9 -9 -9 -9 -9 -9 -9 -9 -9 -9 -9 -6 37 37 -6 -9 -9 -9 -9 -9 -9 -9 -9 -9 -9 -9 -9 -9 -9 -9 -9 -9 -9 -8 0 65 65 -2 -9 -9 -9 -9 -9 -9 -9 -9 -6 37 
37 -6 -9 -9 -9 -9 -9 -9 -9 -9 -9 -9 -9 -9 -9 -9 -9 -6 39 37 -6 -9 -9 -9 -9 -9 -9 -9 -9 -9 -9 -6 -2 34 39 68 69 42 69 68 39 37 37 33 -2 -6 -6 -6 -9 -9 -9 -9 -9 -9 -9 -9 -9 -9 -9 -9 -9 -9 -9 -9 -9 -9 -9 -9 -9 -9 -9 -9 -9 -6 37 37 -6 -9 -9 -9 -9 -9 -9 -9 -9 -9 -9 -9 -9 -9 -9 -9 -9 -9 -9 -9 -8 0 68 35 -6 -9 -9 -9 -9 -9 -9 -9 -6 37 
37 -6 -9 -9 -9 -9 -9 -9 -9 -9 -9 -9 -9 -9 -9 -9 -9 -2 68 33 -6 -9 -9 -9 -9 -9 -9 -9 -9 -6 -2 35 68 68 39 34 -2 -6 -2 33 37 37 39 68 68 39 37 33 -2 -6 -6 -6 -6 -9 -9 -9 -9 -9 -9 -9 -9 -9 -9 -9 -9 -9 -9 -9 -9 -9 -9 -9 -9 -6 39 37 -6 -9 -9 -9 -9 -9 -9 -9 -9 -9 -9 -9 -9 -9 -9 -9 -9 -9 -9 -9 -9 -6 35 68 0 -8 -9 -9 -9 -9 -9 -9 -6 37 
37 -6 -9 -9 -9 -9 -9 -9 -9 -9 -9 -9 -9 -9 -9 -9 -6 33 68 -2 -9 -9 -9 -9 -9 -9 -6 -6 -2 35 68 68 35 -2 -6 -6 -9 -9 -9 -6 -6 -6 -6 -2 33 37 39 68 68 39 37 37 33 -2 -6 -6 -6 -9 -9 -9 -9 -9 -9 -9 -9 -9 -9 -9 -9 -9 -9 -9 -9 -2 68 33 -6 -9 -9 -9 -9 -9 -9 -9 -9 -9 -9 -9 -9 -9 -9 -9 -9 -9 -9 -9 -9 -9 -2 65 65 -2 -9 -9 -9 -9 -9 -9 -6 37 
37 -6 -9 -9 -9 -9 -9 -9 -9 -9 -9 -9 -9 -9 -9 -9 -6 37 39 -6 -9 -9 -9 -9 -6 -2 34 39 68 68 35 -2 -6 -9 -9 -9 -9 -9 -9 -9 -9 -9 -9 -9 -6 -6 -6 -2 33 37 37 39 68 68 39 37 33 -2 -6 -6 -6 -6 -9 -9 -9 -9 -9 -9 -9 -9 -9 -9 -6 33 68 -2 -9 -9 -9 -9 -9 -9 -9 -9 -9 -9 -9 -9 -9 -9 -9 -9 -9 -9 -9 -9 -9 -9 -8 0 68 35 -6 -9 -9 -9 -9 -9 -6 37 
37 -6 -9 -9 -9 -9 -9 -9 -9 -9 -9 -9 -9 -9 -9 -9 -6 37 37 -6 -9 -9 -6 -2 35 68 68 39 34 -2 -6 -9 -9 -9 -9 -9 -9 -9 -9 -9 -9 -9 -9 -9 -9 -9 -9 -9 -6 -6 -6 -6 -2 33 37 39 68 68 39 37 37 33 -2 -6 -6 -6 -9 -9 -9 -9 -9 -9 -6 37 39 -6 -9 -9 -9 -9 -9 -9 -9 -9 -9 -9 -9 -9 -9 -9 -9 -9 -9 -9 -9 -9 -9 -9 -9 -6 35 68 0 -8 -9 -9 -9 -9 -6 37 
37 -6 -9 -9 -9 -9 -9 -9 -9 -9 -9 -9 -9 -9 -9 -9 -6 39 37 -6 -6 -2 35 68 68 35 -2 -6 -6 -9 -9 -9 -9 -9 -9 -9 -9 -9 -9 -9 -9 -9 -9 -9 -9 -9 -9 -9 -9 -9 -9 -9 -9 -6 -6 -6 -2 33 37 37 39 68 68 39 37 33 -2 -6 -6 -6 -6 -8 -6 37 37 -6 -9 -9 -9 -9 -9 -9 -9 -9 -9 -9 -9 -9 -9 -9 -9 -9 -9 -9 -9 -9 -9 -9 -9 -9 -2 65 65 0 -8 -9 -9 -9 -6 37 
37 -6 -9 -9 -9 -9 -9 -9 -9 -9 -9 -9 -9 -9 -9 -9 -2 69 36 0 35 68 68 35 -2 -6 -9 -9 -9 -9 -9 -9 -9 -9 -9 -9 -9 -9 -9 -9 -9 -9 -9 -9 -9 -9 -9 -9 -9 -9 -9 -9 -9 -9 -9 -9 -9 -6 -6 -6 -6 -2 33 37 39 68 68 39 37 37 33 -2 -3 39 37 -6 -9 -9 -9 -9 -9 -9 -9 -9 -9 -9 -9 -9 -9 -9 -9 -9 -9 -9 -9 -9 -9 -9 -9 -9 -8 0 65 65 -2 -9 -9 -9 -6 37 
37 -6 -9 -9 -9 -9 -9 -9 -9 -9 -9 -9 -9 -9 -9 -6 36 103 45 68 68 35 -2 -6 -9 -9 -9 -9 -9 -9 -9 -9 -9 -9 -9 -9 -9 -9 -9 -9 -9 -9 -9 -9 -9 -9 -9 -9 -9 -9 -9 -9 -9 -9 -9 -9 -9 -9 -9 -9 -9 -9 -6 -6 -6 -2 33 37 37 39 68 68 41 76 38 -6 -9 -9 -9 -9 -9 -9 -9 -9 -9 -9 -9 -9 -9 -9 -9 -9 -9 -9 -9 -9 -9 -9 -9 -9 -9 -8 0 68 35 -6 -9 -9 -6 37 
37 -6 -9 -9 -9 -9 -9 -9 -9 -9 -9 -9 -9 -9 -9 -2 69 73 39 34 -2 -6 -9 -9 -9 -9 -9 -9 -9 -9 -9 -9 -9 -9 -9 -9 -9 -9 -9 -9 -9 -9 -9 -9 -9 -9 -9 -9 -9 -9 -9 -9 -9 -9 -9 -9 -9 -9 -9 -9 -9 -9 -9 -9 -9 -9 -6 -6 -6 -6 -2 34 39 76 38 -6 -9 -9 -9 -9 -9 -9 -9 -9 -9 -9 -9 -9 -9 -9 -9 -9 -9 -9 -9 -9 -9 -9 -9 -9 -9 -9 -6 35 68 0 -8 -9 -6 37 
37 -6 -9 -9 -9 -9 -9 -9 -9 -9 -9 -9 -9 -9 -6 35 68 0 -6 -6 -9 -9 -9 -9 -9 -9 -9 -9 -9 -9 -9 -9 -9 -9 -9 -9 -9 -9 -9 -9 -9 -9 -9 -9 -9 -9 -9 -9 -9 -9 -9 -9 -9 -9 -9 -9 -9 -9 -9 -9 -9 -9 -9 -9 -9 -9 -9 -9 -9 -9 -9 -6 -4 39 37 -6 -9 -9 -9 -9 -9 -9 -9 -9 -9 -9 -9 -9 -9 -9 -9 -9 -9 -9 -9 -9 -9 -9 -9 -9 -9 -9 -9 -2 65 65 0 -8 -6 37 
37 -6 -9 -9 -9 -9 -9 -9 -9 -9 -9 -9 -9 -8 0 68 35 -6 -9 -9 -9 -9 -9 -9 -9 -9 -9 -9 -9 -9 -9 -9 -9 -9 -9 -9 -9 -9 -9 -9 -9 -9 -9 -9 -9 -9 -9 -9 -9 -9 -9 -9 -9 -9 -9 -9 -9 -9 -9 -9 -9 -9 -9 -9 -9 -9 -9 -9 -9 -9 -9 -9 -6 37 37 -6 -9 -9 -9 -9 -9 -9 -9 -9 -9 -9 -9 -9 -9 -9 -9 -9 -9 -9 -9 -9 -9 -9 -9 -9 -9 -9 -9 -8 0 65 65 -2 -6 37 
37 -6 -9 -9 -9 -9 -9 -9 -9 -9 -9 -9 -9 -2 65 65 -2 -9 -9 -9 -9 -9 -9 -9 -9 -9 -9 -9 -9 -9 -9 -9 -9 -9 -9 -9 -9 -9 -9 -9 -9 -9 -9 -9 -9 -9 -9 -9 -9 -9 -9 -9 -9 -9 -9 -9 -9 -9 -9 -9 -9 -9 -9 -9 -9 -9 -9 -9 -9 -9 -9 -9 -6 37 37 -6 -9 -9 -9 -9 -9 -9 -9 -9 -9 -9 -9 -9 -9 -9 -9 -9 -9 -9 -9 -9 -9 -9 -9 -9 -9 -9 -9 -9 -8 0 68 35 -4 37 
37 -6 -9 -9 -9 -9 -9 -9 -9 -9 -9 -9 -6 35 68 0 -8 -9 -9 -9 -9 -9 -9 -9 -9 -9 -9 -9 -9 -9 -9 -9 -9 -9 -9 -9 -9 -9 -9 -9 -9 -9 -9 -9 -9 -9 -9 -9 -9 -9 -9 -9 -9 -9 -9 -9 -9 -9 -9 -9 -9 -9 -9 -9 -9 -9 -9 -9 -9 -9 -9 -9 -6 37 37 -6 -9 -9 -9 -9 -9 -9 -9 -9 -9 -9 -9 -9 -9 -9 -9 -9 -9 -9 -9 -9 -9 -9 -9 -9 -9 -9 -9 -9 -9 -6 35 68 2 38 
37 -6 -9 -9 -9 -9 -9 -9 -9 -9 -9 -8 0 68 35 -6 -9 -9 -9 -9 -9 -9 -9 -9 -9 -9 -9 -9 -9 -9 -9 -9 -9 -9 -9 -9 -9 -9 -9 -9 -9 -9 -9 -9 -9 -9 -9 -9 -9 -9 -9 -9 -9 -9 -9 -9 -9 -9 -9 -9 -9 -9 -9 -9 -9 -9 -9 -9 -9 -9 -9 -9 -6 37 39 -6 -9 -9 -9 -9 -9 -9 -9 -9 -9 -9 -9 -9 -9 -9 -9 -9 -9 -9 -9 -9 -9 -9 -9 -9 -9 -9 -9 -9 -9 -9 -2 65 67 43 
37 -6 -9 -9 -9 -9 -9 -9 -9 -9 -8 0 65 65 -2 -8 -9 -9 -9 -9 -9 -9 -9 -9 -9 -9 -9 -9 -9 -9 -9 -9 -9 -9 -9 -9 -9 -9 -9 -9 -9 -9 -9 -9 -9 -9 -9 -9 -9 -9 -9 -9 -9 -9 -9 -9 -9 -9 -9 -9 -9 -9 -9 -9 -9 -9 -9 -9 -9 -9 -9 -9 -6 36 69 0 -8 -9 -9 -9 -9 -9 -9 -9 -9 -9 -9 -9 -9 -9 -9 -9 -9 -9 -9 -9 -9 -9 -9 -9 -9 -9 -9 -9 -9 -9 -8 0 69 78 
38 -6 -9 -9 -9 -9 -9 -9 -9 -8 0 66 67 2 -6 -6 -6 -9 -9 -9 -9 -9 -9 -9 -9 -9 -9 -9 -9 -9 -9 -9 -9 -9 -9 -9 -9 -9 -9 -9 -9 -9 -9 -9 -9 -9 -9 -9 -9 -9 -9 -9 -9 -9 -9 -9 -9 -9 -9 -9 -9 -9 -9 -9 -9 -9 -9 -9 -9 -9 -9 -6 -1 40 103 69 0 -6 -9 -9 -9 -9 -9 -9 -9 -9 -9 -9 -9 -9 -9 -9 -9 -9 -9 -9 -9 -9 -9 -9 -9 -9 -9 -9 -9 -9 -9 -6 36 106 
38 -6 -9 -9 -9 -9 -9 -9 -8 0 69 104 45 38 37 37 33 -2 -6 -6 -6 -6 -6 -6 -6 -6 -6 -6 -6 -9 -9 -9 -9 -9 -9 -9 -9 -9 -9 -9 -9 -9 -9 -9 -9 -9 -9 -9 -9 -9 -9 -9 -9 -9 -9 -9 -9 -9 -9 -9 -9 -9 -9 -9 -9 -9 -9 -9 -9 -8 -2 35 68 68 42 69 68 35 -2 -6 -9 -9 -9 -9 -9 -9 -9 -9 -9 -9 -9 -9 -9 -9 -9 -9 -9 -9 -9 -9 -9 -9 -9 -9 -9 -9 -9 -9 -2 72 
37 -6 -9 -9 -9 -9 -9 -8 0 65 69 40 37 37 37 39 68 68 39 37 37 37 37 37 37 37 37 37 33 -2 -6 -6 -6 -6 -6 -6 -6 -6 -6 -6 -9 -9 -9 -9 -9 -9 -9 -9 -9 -9 -9 -9 -9 -9 -9 -9 -9 -9 -9 -9 -9 -9 -9 -9 -9 -9 -9 -9 -6 0 65 68 35 -2 -6 -2 35 68 68 35 -2 -8 -9 -9 -9 -9 -9 -9 -9 -9 -9 -9 -9 -9 -9 -9 -9 -9 -9 -9 -9 -9 -9 -9 -9 -9 -9 -9 -6 39 
37 -6 -9 -9 -9 -9 -8 0 65 65 0 -6 -6 -6 -6 -6 -2 33 37 37 37 37 37 37 37 37 37 39 68 68 39 37 37 37 37 37 37 37 37 33 -2 -6 -6 -6 -6 -6 -6 -6 -6 -6 -6 -6 -9 -9 -9 -9 -9 -9 -9 -9 -9 -9 -9 -9 -9 -9 -6 -2 35 68 65 0 -6 -9 -9 -9 -6 -2 35 68 65 0 -6 -9 -9 -9 -9 -9 -9 -9 -9 -9 -9 -9 -9 -9 -9 -9 -9 -9 -9 -9 -9 -9 -9 -9 -9 -9 -6 37 
37 -6 -9 -9 -9 -8 0 65 65 0 -8 -9 -9 -9 -9 -9 -9 -6 -6 -6 -6 -6 -6 -6 -6 -6 -6 -6 -2 33 37 37 37 37 37 37 37 37 39 68 68 39 37 37 37 37 37 37 37 37 37 33 -2 -6 -6 -6 -6 -6 -6 -6 -6 -6 -6 -8 -8 -2 35 68 68 35 -2 -8 -9 -9 -9 -9 -9 -9 -6 0 65 68 35 -2 -6 -9 -9 -9 -9 -9 -9 -9 -9 -9 -9 -9 -9 -9 -9 -9 -9 -9 -9 -9 -9 -9 -9 -9 -6 37 
37 -6 -9 -9 -6 0 65 65 0 -8 -9 -9 -9 -9 -9 -9 -9 -9 -9 -9 -9 -9 -9 -9 -9 -9 -9 -9 -9 -6 -6 -6 -6 -6 -6 -6 -6 -6 -6 -2 33 37 37 37 37 37 37 37 37 37 39 68 68 39 37 37 37 37 37 37 37 37 33 -1 0 65 68 35 -2 -6 -9 -9 -9 -9 -9 -9 -9 -9 -9 -8 -2 35 68 68 35 -2 -8 -9 -9 -9 -9 -9 -9 -9 -9 -9 -9 -9 -9 -9 -9 -9 -9 -9 -9 -9 -9 -9 -6 37 
37 -6 -8 -2 35 68 65 0 -8 -9 -9 -9 -9 -9 -9 -9 -9 -9 -9 -9 -9 -9 -9 -9 -9 -9 -9 -9 -9 -9 -9 -9 -9 -9 -9 -9 -9 -9 -9 -9 -6 -6 -6 -6 -6 -6 -6 -6 -6 -6 -6 -2 33 37 37 37 37 37 37 37 37 39 68 71 71 65 0 -6 -9 -9 -9 -9 -9 -9 -9 -9 -9 -9 -9 -9 -9 -6 -2 35 68 65 0 -6 -9 -9 -9 -9 -9 -9 -9 -9 -9 -9 -9 -9 -9 -9 -9 -9 -9 -9 -9 -9 -6 37 
37 -6 0 65 68 35 -2 -8 -9 -9 -9 -9 -9 -9 -9 -9 -9 -9 -9 -9 -9 -9 -9 -9 -9 -9 -9 -9 -9 -9 -9 -9 -9 -9 -9 -9 -9 -9 -9 -9 -9 -9 -9 -9 -9 -9 -9 -9 -9 -9 -9 -9 -6 -6 -6 -6 -6 -6 -6 -6 -6 -6 0 73 73 0 -8 -9 -9 -9 -9 -9 -9 -9 -9 -9 -9 -9 -9 -9 -9 -9 -9 -6 0 65 68 35 -2 -6 -9 -9 -9 -9 -9 -9 -9 -9 -9 -9 -9 -9 -9 -9 -9 -9 -9 -9 -6 37 
38 2 65 65 0 -6 -9 -9 -9 -9 -9 -9 -9 -9 -9 -9 -9 -9 -9 -9 -9 -9 -9 -9 -9 -9 -9 -9 -9 -9 -9 -9 -9 -9 -9 -9 -9 -9 -9 -9 -9 -9 -9 -9 -9 -9 -9 -9 -9 -9 -9 -9 -9 -9 -9 -9 -9 -9 -9 -9 -9 -9 -6 39 39 -6 -9 -9 -9 -9 -9 -9 -9 -9 -9 -9 -9 -9 -9 -9 -9 -9 -9 -9 -8 -2 35 68 68 35 -2 -8 -9 -9 -9 -9 -9 -9 -9 -9 -9 -9 -9 -9 -9 -9 -9 -9 -6 37 
45 67 65 0 -8 -9 -9 -9 -9 -9 -9 -9 -9 -9 -9 -9 -9 -9 -9 -9 -9 -9 -9 -9 -9 -9 -9 -9 -9 -9 -9 -9 -9 -9 -9 -9 -9 -9 -9 -9 -9 -9 -9 -9 -9 -9 -9 -9 -9 -9 -9 -9 -9 -9 -9 -9 -9 -9 -9 -9 -9 -9 -6 37 37 -6 -9 -9 -9 -9 -9 -9 -9 -9 -9 -9 -9 -9 -9 -9 -9 -9 -9 -9 -9 -9 -6 -2 35 68 65 0 -6 -9 -9 -9 -9 -9 -9 -9 -9 -9 -9 -9 -9 -9 -9 -9 -6 37 
104 66 0 -8 -9 -9 -9 -9 -9 -9 -9 -9 -9 -9 -9 -9 -9 -9 -9 -9 -9 -9 -9 -9 -9 -9 -9 -9 -9 -9 -9 -9 -9 -9 -9 -9 -9 -9 -9 -9 -9 -9 -9 -9 -9 -9 -9 -9 -9 -9 -9 -9 -9 -9 -9 -9 -9 -9 -9 -9 -9 -9 -6 37 37 -6 -9 -9 -9 -9 -9 -9 -9 -9 -9 -9 -9 -9 -9 -9 -9 -9 -9 -9 -9 -9 -9 -9 -6 0 65 68 35 -2 -6 -9 -9 -9 -9 -9 -9 -9 -9 -9 -9 -9 -9 -9 -6 38 
73 0 -8 -9 -9 -9 -9 -9 -9 -9 -9 -9 -9 -9 -9 -9 -9 -9 -9 -9 -9 -9 -9 -9 -9 -9 -9 -9 -9 -9 -9 -9 -9 -9 -9 -9 -9 -9 -9 -9 -9 -9 -9 -9 -9 -9 -9 -9 -9 -9 -9 -9 -9 -9 -9 -9 -9 -9 -9 -9 -9 -9 -6 37 37 -6 -9 -9 -9 -9 -9 -9 -9 -9 -9 -9 -9 -9 -9 -9 -9 -9 -9 -9 -9 -9 -9 -9 -9 -8 -2 35 68 68 35 -2 -6 -9 -9 -9 -9 -9 -9 -9 -9 -9 -9 -9 -6 38 
39 -6 -9 -9 -9 -9 -9 -9 -9 -9 -9 -9 -9 -9 -9 -9 -9 -9 -9 -9 -9 -9 -9 -9 -9 -9 -9 -9 -9 -9 -9 -9 -9 -9 -9 -9 -9 -9 -9 -9 -9 -9 -9 -9 -9 -9 -9 -9 -9 -9 -9 -9 -9 -9 -9 -9 -9 -9 -9 -9 -9 -9 -6 37 37 -6 -9 -9 -9 -9 -9 -9 -9 -9 -9 -9 -9 -9 -9 -9 -9 -9 -9 -9 -9 -9 -9 -9 -9 -9 -9 -6 -2 35 68 68 35 -2 -8 -9 -9 -9 -9 -9 -9 -9 -9 -9 -6 37 
37 -6 -9 -9 -9 -9 -9 -9 -9 -9 -9 -9 -9 -9 -9 -9 -9 -9 -9 -9 -9 -9 -9 -9 -9 -9 -9 -9 -9 -9 -9 -9 -9 -9 -9 -9 -9 -9 -9 -9 -9 -9 -9 -9 -9 -9 -9 -9 -9 -9 -9 -9 -9 -9 -9 -9 -9 -9 -9 -9 -9 -9 -6 37 37 -6 -9 -9 -9 -9 -9 -9 -9 -9 -9 -9 -9 -9 -9 -9 -9 -9 -9 -9 -9 -9 -9 -9 -9 -9 -9 -9 -9 -6 -2 35 68 65 0 -6 -9 -9 -9 -9 -9 -9 -9 -9 -6 37 
37 -6 -9 -9 -9 -9 -9 -9 -9 -9 -9 -9 -9 -9 -9 -9 -9 -9 -9 -9 -9 -9 -9 -9 -9 -9 -9 -9 -9 -9 -9 -9 -9 -9 -9 -9 -9 -9 -9 -9 -9 -9 -9 -9 -9 -9 -9 -9 -9 -9 -9 -9 -9 -9 -9 -9 -9 -9 -9 -9 -9 -9 -6 37 37 -6 -9 -9 -9 -9 -9 -9 -9 -9 -9 -9 -9 -9 -9 -9 -9 -9 -9 -9 -9 -9 -9 -9 -9 -9 -9 -9 -9 -9 -9 -6 0 65 68 36 -2 -6 -6 -6 -9 -9 -9 -9 -6 37 
37 -6 -9 -9 -9 -9 -9 -9 -9 -9 -9 -9 -9 -9 -9 -9 -9 -9 -9 -9 -9 -9 -9 -9 -9 -9 -9 -9 -9 -9 -9 -9 -9 -9 -9 -9 -9 -9 -9 -9 -9 -9 -9 -9 -9 -9 -9 -9 -9 -9 -9 -9 -9 -9 -9 -9 -9 -9 -9 -9 -9 -9 -6 37 37 -6 -9 -9 -9 -9 -9 -9 -9 -9 -9 -9 -9 -9 -9 -9 -9 -9 -9 -9 -9 -9 -9 -9 -9 -9 -9 -9 -9 -9 -9 -9 -8 0 42 103 72 39 37 33 -2 -6 -6 -6 -6 37 
37 -6 -9 -9 -9 -9 -9 -9 -9 -9 -9 -9 -9 -9 -9 -9 -9 -9 -9 -9 -9 -9 -9 -9 -9 -9 -9 -9 -9 -9 -9 -9 -9 -9 -9 -9 -9 -9 -9 -9 -9 -9 -9 -9 -9 -9 -9 -9 -9 -9 -9 -9 -9 -9 -9 -9 -9 -9 -9 -9 -9 -9 -6 37 37 -6 -9 -9 -9 -9 -9 -9 -9 -9 -9 -9 -9 -9 -9 -9 -9 -9 -9 -9 -9 -9 -9 -9 -9 -9 -9 -9 -9 -9 -6 -6 -2 36 70 69 40 37 39 68 68 39 37 34 0 40 
38 -6 -9 -9 -9 -9 -9 -9 -9 -9 -9 -9 -9 -9 -9 -9 -9 -9 -9 -9 -9 -9 -9 -9 -9 -9 -9 -9 -9 -9 -9 -9 -9 -9 -9 -9 -9 -9 -9 -9 -9 -9 -9 -9 -9 -9 -9 -9 -9 -9 -9 -9 -9 -9 -9 -9 -9 -9 -9 -9 -9 -9 -6 37 37 -6 -9 -9 -9 -9 -9 -9 -9 -9 -9 -9 -9 -9 -9 -9 -9 -9 -9 -9 -9 -9 -9 -9 -9 -9 -9 -9 -6 -2 34 39 68 68 35 -2 -6 -6 -6 -2 33 37 39 68 70 78 
40 -4 -6 -6 -6 -6 -6 -6 -6 -9 -9 -9 -9 -9 -9 -9 -9 -9 -9 -9 -9 -9 -9 -9 -9 -9 -9 -9 -9 -9 -9 -9 -9 -9 -9 -9 -9 -9 -9 -9 -9 -9 -9 -9 -9 -9 -9 -9 -9 -9 -9 -9 -9 -9 -9 -9 -9 -9 -9 -9 -9 -9 -6 37 37 -6 -9 -9 -9 -9 -9 -9 -9 -9 -9 -9 -9 -9 -9 -9 -9 -9 -9 -9 -9 -9 -9 -9 -9 -6 -6 -2 35 68 68 39 34 -2 -6 -9 -9 -9 -9 -9 -6 -6 -6 -2 36 76 
76 39 37 37 37 37 37 37 33 -2 -6 -6 -6 -6 -6 -6 -6 -9 -9 -9 -9 -9 -9 -9 -9 -9 -9 -9 -9 -9 -9 -9 -9 -9 -9 -9 -9 -9 -9 -9 -9 -9 -9 -9 -9 -9 -9 -9 -9 -9 -9 -9 -9 -9 -9 -9 -9 -9 -9 -9 -9 -9 -6 37 37 -6 -9 -9 -9 -9 -9 -9 -9 -9 -9 -9 -9 -9 -9 -9 -9 -9 -9 -9 -9 -9 -9 -6 -2 34 39 68 68 35 -2 -6 -6 -9 -9 -9 -9 -9 -9 -9 -9 -9 -9 -8 -4 40 
76 39 37 37 37 37 37 39 68 68 39 37 37 37 37 37 33 -2 -6 -6 -6 -6 -6 -6 -6 -6 -9 -9 -9 -9 -9 -9 -9 -9 -9 -9 -9 -9 -9 -9 -9 -9 -9 -9 -9 -9 -9 -9 -9 -9 -9 -9 -9 -9 -9 -9 -9 -9 -9 -9 -9 -9 -6 37 37 -6 -9 -9 -9 -9 -9 -9 -9 -9 -9 -9 -9 -9 -9 -9 -9 -9 -9 -9 -6 -6 -2 35 68 68 39 34 -2 -6 -9 -9 -9 -9 -9 -9 -9 -9 -9 -9 -9 -9 -9 -9 -6 38 
39 -4 -6 -6 -6 -6 -6 -6 -2 33 37 37 37 37 37 39 68 68 39 37 37 37 37 37 37 33 -2 -6 -6 -6 -6 -6 -6 -6 -9 -9 -9 -9 -9 -9 -9 -9 -9 -9 -9 -9 -9 -9 -9 -9 -9 -9 -9 -9 -9 -9 -9 -9 -9 -9 -9 -9 -6 37 37 -6 -9 -9 -9 -9 -9 -9 -9 -9 -9 -9 -9 -9 -9 -9 -9 -9 -6 -2 34 39 68 68 35 -2 -6 -6 -9 -9 -9 -9 -9 -9 -9 -9 -9 -9 -9 -9 -9 -9 -9 -9 -6 37 
37 -6 -9 -9 -9 -9 -9 -9 -9 -6 -6 -6 -6 -6 -6 -6 -2 33 37 37 37 37 37 37 39 68 68 39 37 37 37 37 37 33 -2 -6 -6 -6 -6 -6 -6 -6 -6 -9 -9 -9 -9 -9 -9 -9 -9 -9 -9 -9 -9 -9 -9 -9 -9 -9 -9 -9 -6 37 37 -6 -9 -9 -9 -9 -9 -9 -9 -9 -9 -9 -9 -9 -9 -9 -6 -2 35 68 68 39 34 -2 -6 -9 -9 -9 -9 -9 -9 -9 -9 -9 -9 -9 -9 -9 -9 -9 -9 -9 -9 -9 -6 37 
37 -6 -9 -9 -9 -9 -9 -9 -9 -9 -9 -9 -9 -9 -9 -9 -9 -6 -6 -6 -6 -6 -6 -6 -6 -2 33 37 37 37 37 37 39 68 68 39 37 37 37 37 37 37 33 -2 -6 -6 -6 -6 -6 -6 -6 -9 -9 -9 -9 -9 -9 -9 -9 -9 -9 -9 -6 37 37 -6 -9 -9 -9 -9 -9 -9 -9 -9 -9 -9 -9 -6 -6 -2 35 68 68 35 -2 -6 -6 -9 -9 -9 -9 -9 -9 -9 -9 -9 -9 -9 -9 -9 -9 -9 -9 -9 -9 -9 -9 -9 -6 37 
37 -6 -9 -9 -9 -9 -9 -9 -9 -9 -9 -9 -9 -9 -9 -9 -9 -9 -9 -9 -9 -9 -9 -9 -9 -9 -6 -6 -6 -6 -6 -6 -6 -2 33 37 37 37 37 37 37 39 68 68 39 37 37 37 37 37 33 -2 -6 -6 -6 -6 -6 -6 -6 -6 -9 -9 -6 37 37 -6 -9 -9 -9 -9 -9 -9 -9 -9 -9 -6 -2 34 39 68 68 35 -2 -6 -9 -9 -9 -9 -9 -9 -9 -9 -9 -9 -9 -9 -9 -9 -9 -9 -9 -9 -9 -9 -9 -9 -9 -9 -6 37 
37 -6 -9 -9 -9 -9 -9 -9 -9 -9 -9 -9 -9 -9 -9 -9 -9 -9 -9 -9 -9 -9 -9 -9 -9 -9 -9 -9 -9 -9 -9 -9 -9 -9 -6 -6 -6 -6 -6 -6 -6 -6 -2 33 37 37 37 37 37 39 68 68 39 37 37 37 37 37 37 33 -2 -6 -4 39 39 -6 -9 -9 -9 -9 -9 -9 -6 -6 -2 35 68 68 39 34 -2 -6 -9 -9 -9 -9 -9 -9 -9 -9 -9 -9 -9 -9 -9 -9 -9 -9 -9 -9 -9 -9 -9 -9 -9 -9 -9 -9 -6 37 
37 -6 -9 -9 -9 -9 -9 -9 -9 -9 -9 -9 -9 -9 -9 -9 -9 -9 -9 -9 -9 -9 -9 -9 -9 -9 -9 -9 -9 -9 -9 -9 -9 -9 -9 -9 -9 -9 -9 -9 -9 -9 -9 -6 -6 -6 -6 -6 -6 -6 -2 33 37 37 37 37 37 37 39 68 68 39 39 76 73 0 -8 -9 -9 -9 -6 -2 34 39 68 68 35 -2 -6 -6 -9 -9 -9 -9 -9 -9 -9 -9 -9 -9 -9 -9 -9 -9 -9 -9 -9 -9 -9 -9 -9 -9 -9 -9 -9 -9 -9 -9 -6 37 
37 -6 -9 -9 -9 -9 -9 -9 -9 -9 -9 -9 -9 -9 -9 -9 -9 -9 -9 -9 -9 -9 -9 -9 -9 -9 -9 -9 -9 -9 -9 -9 -9 -9 -9 -9 -9 -9 -9 -9 -9 -9 -9 -9 -9 -9 -9 -9 -9 -9 -9 -6 -6 -6 -6 -6 -6 -6 -6 -2 33 37 37 40 69 65 0 -6 -6 -2 35 68 68 39 34 -2 -6 -9 -9 -9 -9 -9 -9 -9 -9 -9 -9 -9 -9 -9 -9 -9 -9 -9 -9 -9 -9 -9 -9 -9 -9 -9 -9 -9 -9 -9 -9 -9 -6 37 
37 -6 -9 -9 -9 -9 -9 -9 -9 -9 -9 -9 -9 -9 -9 -9 -9 -9 -9 -9 -9 -9 -9 -9 -9 -9 -9 -9 -9 -9 -9 -9 -9 -9 -9 -9 -9 -9 -9 -9 -9 -9 -9 -9 -9 -9 -9 -9 -9 -9 -9 -9 -9 -9 -9 -9 -9 -9 -9 -9 -6 -6 -6 -6 0 65 69 40 39 68 68 35 -2 -6 -6 -9 -9 -9 -9 -9 -9 -9 -9 -9 -9 -9 -9 -9 -9 -9 -9 -9 -9 -9 -9 -9 -9 -9 -9 -9 -9 -9 -9 -9 -9 -9 -9 -9 -6 37 
37 -6 -9 -9 -9 -9 -9 -9 -9 -9 -9 -9 -9 -9 -9 -9 -9 -9 -9 -9 -9 -9 -9 -9 -9 -9 -9 -9 -9 -9 -9 -9 -9 -9 -9 -9 -9 -9 -9 -9 -9 -9 -9 -9 -9 -9 -9 -9 -9 -9 -9 -9 -9 -9 -9 -9 -9 -9 -9 -9 -9 -9 -9 -9 -8 0 73 76 39 34 -2 -6 -9 -9 -9 -9 -9 -9 -9 -9 -9 -9 -9 -9 -9 -9 -9 -9 -9 -9 -9 -9 -9 -9 -9 -9 -9 -9 -9 -9 -9 -9 -9 -9 -9 -9 -9 -9 -6 37 
37 -6 -9 -9 -9 -9 -9 -9 -9 -9 -9 -9 -9 -9 -9 -9 -9 -9 -9 -9 -9 -9 -9 -9 -9 -9 -9 -9 -9 -9 -9 -9 -9 -9 -9 -9 -9 -9 -9 -9 -9 -9 -9 -9 -9 -9 -9 -9 -9 -9 -9 -9 -9 -9 -9 -9 -9 -9 -9 -9 -9 -9 -9 -9 -9 -6 39 39 -4 -6 -9 -9 -9 -9 -9 -9 -9 -9 -9 -9 -9 -9 -9 -9 -9 -9 -9 -9 -9 -9 -9 -9 -9 -9 -9 -9 -9 -9 -9 -9 -9 -9 -9 -9 -9 -9 -9 -9 -6 37 
37 -6 -9 -9 -9 -9 -9 -9 -9 -9 -9 -9 -9 -9 -9 -9 -9 -9 -9 -9 -9 -9 -9 -9 -9 -9 -9 -9 -9 -9 -9 -9 -9 -9 -9 -9 -9 -9 -9 -9 -9 -9 -9 -9 -9 -9 -9 -9 -9 -9 -9 -9 -9 -9 -9 -9 -9 -9 -9 -9 -9 -9 -9 -9 -9 -6 37 37 -6 -9 -9 -9 -9 -9 -9 -9 -9 -9 -9 -9 -9 -9 -9 -9 -9 -9 -9 -9 -9 -9 -9 -9 -9 -9 -9 -9 -9 -9 -9 -9 -9 -9 -9 -9 -9 -9 -9 -9 -6 37 
37 -6 -9 -9 -9 -9 -9 -9 -9 -9 -9 -9 -9 -9 -9 -9 -9 -9 -9 -9 -9 -9 -9 -9 -9 -9 -9 -9 -9 -9 -9 -9 -9 -9 -9 -9 -9 -9 -9 -9 -9 -9 -9 -9 -9 -9 -9 -9 -9 -9 -9 -9 -9 -9 -9 -9 -9 -9 -9 -9 -9 -9 -9 -9 -9 -6 37 37 -6 -9 -9 -9 -9 -9 -9 -9 -9 -9 -9 -9 -9 -9 -9 -9 -9 -9 -9 -9 -9 -9 -9 -9 -9 -9 -9 -9 -9 -9 -9 -9 -9 -9 -9 -9 -9 -9 -9 -9 -6 37 
39 -4 -6 -6 -6 -6 -6 -6 -6 -6 -6 -6 -6 -6 -6 -6 -6 -6 -6 -6 -6 -6 -6 -6 -6 -6 -6 -6 -6 -6 -6 -6 -6 -6 -6 -6 -6 -6 -6 -6 -6 -6 -6 -6 -6 -6 -6 -6 -6 -6 -6 -6 -6 -6 -6 -6 -6 -6 -6 -6 -6 -6 -6 -6 -6 -4 39 39 -4 -6 -6 -6 -6 -6 -6 -6 -6 -6 -6 -6 -6 -6 -6 -6 -6 -6 -6 -6 -6 -6 -6 -6 -6 -6 -6 -6 -6 -6 -6 -6 -6 -6 -6 -6 -6 -6 -6 -6 -4 39 
76 39 37 37 37 37 37 37 37 37 37 37 37 37 37 37 37 37 37 37 37 37 37 37 37 37 37 37 37 37 37 37 37 38 38 37 37 37 37 37 37 37 37 37 37 37 37 37 37 38 38 37 37 37 37 37 37 37 37 37 37 37 37 37 37 39 76 76 39 37 37 37 37 37 37 37 37 37 37 37 37 37 37 37 37 37 37 37 37 37 37 37 38 38 37 37 37 37 37 37 37 37 37 37 38 38 37 37 39 76 
