P2
110 110
255
110 65 59 59 59 59 59 59 59 59 59 59 59 59 59 59 59 59 59 59 59 59 59 59 59 59 59 59 59 59 59 61 78 136 101 64 59 59 59 59 59 59 59 59 59 59 59 59 65 108 108 65 59 59 59 59 59 59 59 59 59 59 59 59 59 59 61 61 59 59 59 59 59 59 59 59 59 59 59 59 59 59 59 59 59 59 59 59 59 59 60 74 135 101 64 59 59 59 59 59 59 59 60 74 135 101 64 60 65 110 
65 6 0 0 0 0 0 0 0 0 0 0 0 0 0 0 0 0 0 0 0 0 0 0 0 0 0 0 0 0 0 16 92 88 15 0 0 0 0 0 0 0 0 0 0 0 0 0 6 65 65 6 0 0 0 0 0 0 0 0 0 0 0 0 0 0 0 0 0 0 0 0 0 0 0 0 0 0 0 0 0 0 0 0 0 0 0 0 0 0 6 61 94 16 0 0 0 0 0 0 0 0 5 57 94 16 0 0 6 65 
59 0 -7 -7 -7 -7 -7 -7 -7 -7 -7 -7 -7 -7 -7 -7 -7 -7 -7 -7 -7 -7 -7 -7 -7 -7 -7 -7 -7 -7 0 55 92 15 -5 -7 -7 -7 -7 -7 -7 -7 -7 -7 -7 -7 -7 -7 0 64 60 0 -7 -7 -7 -7 -7 -7 -7 -7 -7 -7 -7 -7 -7 -7 -7 -7 -7 -7 -7 -7 -7 -7 -7 -7 -7 -7 -7 -7 -7 -7 -7 -7 -7 -7 -7 -7 -7 -6 10 92 55 0 -7 -7 -7 -7 -7 -7 -7 -7 0 59 63 0 -7 -7 0 59 
59 0 -7 -8 -8 -8 -8 -8 -8 -8 -8 -8 -8 -8 -8 -8 -8 -8 -8 -8 -8 -8 -8 -8 -8 -8 -8 -8 -8 -5 14 92 55 0 -7 -8 -8 -8 -8 -8 -8 -8 -8 -8 -8 -8 -8 -6 10 101 61 0 -7 -8 -8 -8 -8 -8 -8 -8 -8 -8 -8 -8 -8 -8 -8 -8 -8 -8 -8 -8 -8 -8 -8 -8 -8 -8 -8 -8 -8 -8 -8 -8 -8 -8 -8 -8 -7 -1 51 92 10 -6 -8 -8 -8 -8 -8 -8 -8 -7 0 63 59 0 -7 -7 0 59 
59 0 -7 -8 -8 -8 -8 -8 -8 -8 -8 -8 -8 -8 -8 -8 -8 -8 -8 -8 -8 -8 -8 -8 -8 -8 -8 -8 -6 9 86 86 9 -6 -8 -8 -8 -8 -8 -8 -8 -8 -8 -8 -8 -8 -7 0 56 139 61 0 -7 -8 -8 -8 -8 -8 -8 -8 -8 -8 -8 -8 -8 -8 -8 -8 -8 -8 -8 -8 -8 -8 -8 -8 -8 -8 -8 -8 -8 -8 -8 -8 -8 -8 -8 -8 -7 0 62 62 0 -7 -8 -8 -8 -8 -8 -8 -8 -6 9 92 51 -1 -7 -7 0 59 
59 0 -7 -8 -8 -8 -8 -8 -8 -8 -8 -8 -8 -8 -8 -8 -8 -8 -8 -8 -8 -8 -8 -8 -8 -8 -8 -7 0 55 92 14 -5 -8 -8 -8 -8 -8 -8 -8 -8 -8 -8 -8 -8 -8 -6 10 93 112 60 0 -7 -8 -8 -8 -8 -8 -8 -8 -8 -8 -8 -8 -8 -8 -8 -8 -8 -8 -8 -8 -8 -8 -8 -8 -8 -8 -8 -8 -8 -8 -8 -8 -8 -8 -8 -8 -6 10 92 51 -1 -7 -8 -8 -8 -8 -8 -8 -7 -1 51 92 9 -6 -8 -7 0 59 
59 0 -7 -8 -8 -8 -8 -8 -8 -8 -8 -8 -8 -8 -8 -8 -8 -8 -8 -8 -8 -8 -8 -8 -8 -8 -8 -5 14 92 55 0 -7 -8 -8 -8 -8 -8 -8 -8 -8 -8 -8 -8 -8 -7 0 55 97 75 60 0 -7 -8 -8 -8 -8 -8 -8 -8 -8 -8 -8 -8 -8 -8 -8 -8 -8 -8 -8 -8 -8 -8 -8 -8 -8 -8 -8 -8 -8 -8 -8 -8 -8 -8 -8 -7 0 55 91 9 -6 -8 -8 -8 -8 -8 -8 -8 -7 0 59 63 0 -7 -8 -7 0 59 
59 0 -7 -8 -8 -8 -8 -8 -8 -8 -8 -8 -8 -8 -8 -8 -8 -8 -8 -8 -8 -8 -8 -8 -8 -8 -6 9 86 86 9 -6 -8 -8 -8 -8 -8 -8 -8 -8 -8 -8 -8 -8 -8 -6 10 91 61 65 63 0 -7 -8 -8 -8 -8 -8 -8 -8 -8 -8 -8 -8 -8 -8 -8 -8 -8 -8 -8 -8 -8 -8 -8 -8 -8 -8 -8 -8 -8 -8 -8 -8 -8 -8 -8 -6 9 91 55 0 -7 -8 -8 -8 -8 -8 -8 -8 -7 0 63 59 0 -7 -8 -7 0 59 
59 0 -7 -8 -8 -8 -8 -8 -8 -8 -8 -8 -8 -8 -8 -8 -8 -8 -8 -8 -8 -8 -8 -8 -8 -7 0 55 92 14 -5 -8 -8 -8 -8 -8 -8 -8 -8 -8 -8 -8 -8 -8 -7 0 55 92 16 52 92 9 -6 -8 -8 -8 -8 -8 -8 -8 -8 -8 -8 -8 -8 -8 -8 -8 -8 -8 -8 -8 -8 -8 -8 -8 -8 -8 -8 -8 -8 -8 -8 -8 -8 -8 -7 -1 51 92 10 -6 -8 -8 -8 -8 -8 -8 -8 -8 -6 9 92 51 -1 -7 -8 -7 0 59 
59 0 -7 -8 -8 -8 -8 -8 -8 -8 -8 -8 -8 -8 -8 -8 -8 -8 -8 -8 -8 -8 -8 -8 -8 -5 14 92 55 0 -7 -8 -8 -8 -8 -8 -8 -8 -8 -8 -8 -8 -8 -8 -5 14 92 55 0 10 92 51 -1 -7 -8 -8 -8 -8 -8 -8 -8 -8 -8 -8 -8 -8 -8 -8 -8 -8 -8 -8 -8 -8 -8 -8 -8 -8 -8 -8 -8 -8 -8 -8 -8 -8 -7 0 62 62 0 -7 -8 -8 -8 -8 -8 -8 -8 -7 -1 51 92 9 -6 -8 -8 -7 0 59 
59 0 -7 -8 -8 -8 -8 -8 -8 -8 -8 -8 -8 -8 -8 -8 -8 -8 -8 -8 -8 -8 -8 -8 -6 9 86 86 9 -6 -8 -8 -8 -8 -8 -8 -8 -8 -8 -8 -8 -8 -8 -6 9 86 86 9 -6 0 63 58 0 -7 -8 -8 -8 -8 -8 -8 -8 -8 -8 -8 -8 -8 -8 -8 -8 -8 -8 -8 -8 -8 -8 -8 -8 -8 -8 -8 -8 -8 -8 -8 -8 -8 -6 10 92 51 -1 -7 -8 -8 -8 -8 -8 -8 -8 -7 0 59 63 0 -7 -8 -8 -7 0 59 
59 0 -7 -8 -8 -8 -8 -8 -8 -8 -8 -8 -8 -8 -8 -8 -8 -8 -8 -8 -8 -8 -8 -7 0 55 92 14 -5 -8 -8 -8 -8 -8 -8 -8 -8 -8 -8 -8 -8 -8 -7 0 55 92 14 -5 -7 0 59 59 0 -7 -8 -8 -8 -8 -8 -8 -8 -8 -8 -8 -8 -8 -8 -8 -8 -8 -8 -8 -8 -8 -8 -8 -8 -8 -8 -8 -8 -8 -8 -8 -8 -7 0 55 91 9 -6 -8 -8 -8 -8 -8 -8 -8 -8 -7 0 63 59 0 -7 -8 -8 -7 0 59 
59 0 -7 -8 -8 -8 -8 -8 -8 -8 -8 -8 -8 -8 -8 -8 -8 -8 -8 -8 -8 -8 -8 -5 14 92 55 0 -7 -8 -8 -8 -8 -8 -8 -8 -8 -8 -8 -8 -8 -8 -6 10 91 55 0 -7 -7 0 59 59 0 -7 -8 -8 -8 -8 -8 -8 -8 -8 -8 -8 -8 -8 -8 -8 -8 -8 -8 -8 -8 -8 -8 -8 -8 -8 -8 -8 -8 -8 -8 -8 -8 -6 9 91 55 0 -7 -8 -8 -8 -8 -8 -8 -8 -8 -6 9 92 51 -1 -7 -8 -8 -7 0 59 
64 0 -7 -8 -8 -8 -8 -8 -8 -8 -8 -8 -8 -8 -8 -8 -8 -8 -8 -8 -8 -8 -6 9 86 86 9 -6 -8 -8 -8 -8 -8 -8 -8 -8 -8 -8 -8 -8 -8 -7 0 55 91 10 -6 -8 -7 0 59 59 0 -7 -8 -8 -8 -8 -8 -8 -8 -8 -8 -8 -8 -8 -8 -8 -8 -8 -8 -8 -8 -8 -8 -8 -8 -8 -8 -8 -8 -8 -8 -8 -7 -1 51 92 10 -6 -8 -8 -8 -8 -8 -8 -8 -8 -7 -1 51 92 9 -6 -8 -8 -8 -7 0 59 
101 15 -5 -8 -8 -8 -8 -8 -8 -8 -8 -8 -8 -8 -8 -8 -8 -8 -8 -8 -8 -7 0 55 92 14 -5 -8 -8 -8 -8 -8 -8 -8 -8 -8 -8 -8 -8 -8 -8 -6 10 91 55 0 -7 -8 -7 0 58 63 0 -7 -8 -8 -8 -8 -8 -8 -8 -8 -8 -8 -8 -8 -8 -8 -8 -8 -8 -8 -8 -8 -8 -8 -8 -8 -8 -8 -8 -8 -8 -8 -7 0 62 62 0 -7 -8 -8 -8 -8 -8 -8 -8 -8 -7 0 59 63 0 -7 -8 -8 -8 -7 0 61 
136 88 14 -5 -8 -8 -8 -8 -8 -8 -8 -8 -8 -8 -8 -8 -8 -8 -8 -8 -8 -5 14 92 55 0 -7 -8 -8 -8 -8 -8 -8 -8 -8 -8 -8 -8 -8 -8 -7 0 55 91 10 -6 -8 -8 -7 -1 51 92 9 -6 -8 -8 -8 -8 -8 -8 -8 -8 -8 -8 -8 -8 -8 -8 -8 -8 -8 -8 -8 -8 -8 -8 -8 -8 -8 -8 -8 -8 -8 -8 -6 10 92 51 -1 -7 -8 -8 -8 -8 -8 -8 -8 -8 -7 0 63 59 0 -7 -8 -8 -8 -7 0 61 
78 92 87 14 -5 -8 -8 -8 -8 -8 -8 -8 -8 -8 -8 -8 -8 -8 -8 -8 -6 9 86 86 9 -6 -8 -8 -8 -8 -8 -8 -8 -8 -8 -8 -8 -8 -8 -8 -5 14 92 55 0 -7 -8 -8 -8 -6 9 92 51 -1 -7 -8 -8 -8 -8 -8 -8 -8 -8 -8 -8 -8 -8 -8 -8 -8 -8 -8 -8 -8 -8 -8 -8 -8 -8 -8 -8 -8 -8 -7 0 55 91 9 -6 -8 -8 -8 -8 -8 -8 -8 -8 -8 -6 9 92 51 -1 -7 -8 -8 -8 -7 0 59 
61 21 87 86 9 -6 -8 -8 -8 -8 -8 -8 -8 -8 -8 -8 -8 -8 -8 -7 0 55 92 14 -5 -8 -8 -8 -8 -8 -8 -8 -8 -8 -8 -8 -8 -8 -8 -6 9 86 86 9 -6 -8 -8 -8 -8 -7 0 63 58 0 -7 -8 -8 -8 -8 -8 -8 -8 -8 -8 -8 -8 -8 -8 -8 -8 -8 -8 -8 -8 -8 -8 -8 -8 -8 -8 -8 -8 -8 -6 9 91 55 0 -7 -8 -8 -8 -8 -8 -8 -8 -8 -7 -1 51 92 9 -6 -8 -8 -8 -8 -7 0 59 
59 2 15 92 55 0 -7 -8 -8 -8 -8 -8 -8 -8 -8 -8 -8 -8 -8 -5 14 92 55 0 -7 -8 -8 -8 -8 -8 -8 -8 -8 -8 -8 -8 -8 -8 -7 0 55 92 14 -5 -8 -8 -8 -8 -8 -7 0 59 59 0 -7 -8 -8 -8 -8 -8 -8 -8 -8 -8 -8 -8 -8 -8 -8 -8 -8 -8 -8 -8 -8 -8 -8 -8 -8 -8 -8 -8 -7 -1 51 92 10 -6 -8 -8 -8 -8 -8 -8 -8 -8 -8 -7 0 59 63 0 -7 -8 -8 -8 -8 -7 0 59 
59 0 0 55 92 14 -5 -8 -8 -8 -8 -8 -8 -8 -8 -8 -8 -8 -6 9 86 86 9 -6 -8 -8 -8 -8 -8 -8 -8 -8 -8 -8 -8 -8 -8 -8 -6 10 91 55 0 -7 -8 -8 -8 -8 -8 -7 0 59 59 0 -7 -8 -8 -8 -8 -8 -8 -8 -8 -8 -8 -8 -8 -8 -8 -8 -8 -8 -8 -8 -8 -8 -8 -8 -8 -8 -8 -8 -7 0 62 62 0 -7 -8 -8 -8 -8 -8 -8 -8 -8 -8 -7 0 63 59 0 -7 -8 -8 -8 -8 -7 0 59 
59 0 -6 9 86 87 14 -5 -8 -8 -8 -8 -8 -8 -8 -8 -8 -7 0 55 92 14 -5 -8 -8 -8 -8 -8 -8 -8 -8 -8 -8 -8 -8 -8 -8 -7 0 55 91 10 -6 -8 -8 -8 -8 -8 -8 -7 0 59 59 0 -7 -8 -8 -8 -8 -8 -8 -8 -8 -8 -8 -8 -8 -8 -8 -8 -8 -8 -8 -8 -8 -8 -8 -8 -8 -8 -8 -8 -6 10 92 51 -1 -7 -8 -8 -8 -8 -8 -8 -8 -8 -8 -6 9 92 51 -1 -7 -8 -8 -8 -8 -7 0 59 
59 0 -7 -5 14 87 87 14 -5 -8 -8 -8 -8 -8 -8 -8 -8 -5 14 92 55 0 -7 -8 -8 -8 -8 -8 -8 -8 -8 -8 -8 -8 -8 -8 -8 -6 10 91 55 0 -7 -8 -8 -8 -8 -8 -8 -7 0 58 63 0 -7 -8 -8 -8 -8 -8 -8 -8 -8 -8 -8 -8 -8 -8 -8 -8 -8 -8 -8 -8 -8 -8 -8 -8 -8 -8 -8 -7 0 55 91 9 -6 -8 -8 -8 -8 -8 -8 -8 -8 -8 -7 -1 51 92 9 -6 -8 -8 -8 -8 -8 -7 0 59 
59 0 -7 -8 -5 14 87 87 14 -5 -8 -8 -8 -8 -8 -8 -6 9 86 86 9 -6 -8 -8 -8 -8 -8 -8 -8 -8 -8 -8 -8 -8 -8 -8 -7 0 55 91 10 -6 -8 -8 -8 -8 -8 -8 -8 -7 -1 51 92 9 -6 -8 -8 -8 -8 -8 -8 -8 -8 -8 -8 -8 -8 -8 -8 -8 -8 -8 -8 -8 -8 -8 -8 -8 -8 -8 -8 -6 9 91 55 0 -7 -8 -8 -8 -8 -8 -8 -8 -8 -8 -7 0 59 63 0 -7 -8 -8 -8 -8 -8 -7 0 59 
59 0 -7 -8 -8 -5 14 87 87 14 -5 -8 -8 -8 -8 -7 0 55 92 14 -5 -8 -8 -8 -8 -8 -8 -8 -8 -8 -8 -8 -8 -8 -8 -8 -5 14 92 55 0 -7 -8 -8 -8 -8 -8 -8 -8 -8 -6 9 92 51 -1 -7 -8 -8 -8 -8 -8 -8 -8 -8 -8 -8 -8 -8 -8 -8 -8 -8 -8 -8 -8 -8 -8 -8 -8 -8 -7 -1 51 92 10 -6 -8 -8 -8 -8 -8 -8 -8 -8 -8 -8 -7 0 63 59 0 -7 -8 -8 -8 -8 -8 -7 0 59 
59 0 -7 -8 -8 -8 -5 14 87 87 14 -5 -8 -8 -8 -5 14 92 55 0 -7 -8 -8 -8 -8 -8 -8 -8 -8 -8 -8 -8 -8 -8 -8 -6 9 86 86 9 -6 -8 -8 -8 -8 -8 -8 -8 -8 -8 -7 0 63 58 0 -7 -8 -8 -8 -8 -8 -8 -8 -8 -8 -8 -8 -8 -8 -8 -8 -8 -8 -8 -8 -8 -8 -8 -8 -8 -7 0 62 62 0 -7 -8 -8 -8 -8 -8 -8 -8 -8 -8 -8 -6 9 92 51 -1 -7 -8 -8 -8 -8 -8 -7 0 59 
59 0 -7 -8 -8 -8 -8 -5 14 87 87 14 -5 -8 -6 9 86 86 9 -6 -8 -8 -8 -8 -8 -8 -8 -8 -8 -8 -8 -8 -8 -8 -7 0 55 92 14 -5 -8 -8 -8 -8 -8 -8 -8 -8 -8 -8 -7 0 59 59 0 -7 -8 -8 -8 -8 -8 -8 -8 -8 -8 -8 -8 -8 -8 -8 -8 -8 -8 -8 -8 -8 -8 -8 -8 -8 -6 10 92 51 -1 -7 -8 -8 -8 -8 -8 -8 -8 -8 -8 -7 -1 51 92 9 -6 -8 -8 -8 -8 -8 -8 -7 0 59 
59 0 -7 -8 -8 -8 -8 -8 -5 14 87 87 14 -4 0 55 92 14 -5 -8 -8 -8 -8 -8 -8 -8 -8 -8 -8 -8 -8 -8 -8 -8 -6 10 91 55 0 -7 -8 -8 -8 -8 -8 -8 -8 -8 -8 -8 -7 0 59 59 0 -7 -8 -8 -8 -8 -8 -8 -8 -8 -8 -8 -8 -8 -8 -8 -8 -8 -8 -8 -8 -8 -8 -8 -8 -7 0 55 91 9 -6 -8 -8 -8 -8 -8 -8 -8 -8 -8 -8 -7 0 59 63 0 -7 -8 -8 -8 -8 -8 -8 -7 0 59 
59 0 -7 -8 -8 -8 -8 -8 -8 -5 14 87 87 16 17 92 55 0 -7 -8 -8 -8 -8 -8 -8 -8 -8 -8 -8 -8 -8 -8 -8 -7 0 55 91 10 -6 -8 -8 -8 -8 -8 -8 -8 -8 -8 -8 -8 -7 0 58 63 0 -7 -8 -8 -8 -8 -8 -8 -8 -8 -8 -8 -8 -8 -8 -8 -8 -8 -8 -8 -8 -8 -8 -8 -8 -6 9 91 55 0 -7 -8 -8 -8 -8 -8 -8 -8 -8 -8 -8 -7 0 63 59 0 -7 -8 -8 -8 -8 -8 -8 -7 0 59 
59 0 -7 -8 -8 -8 -8 -8 -8 -8 -5 14 87 99 100 86 9 -6 -8 -8 -8 -8 -8 -8 -8 -8 -8 -8 -8 -8 -8 -8 -8 -6 10 91 55 0 -7 -8 -8 -8 -8 -8 -8 -8 -8 -8 -8 -8 -7 -1 51 92 9 -6 -8 -8 -8 -8 -8 -8 -8 -8 -8 -8 -8 -8 -8 -8 -8 -8 -8 -8 -8 -8 -8 -8 -7 -1 51 92 10 -6 -8 -8 -8 -8 -8 -8 -8 -8 -8 -8 -8 -6 9 92 51 -1 -7 -8 -8 -8 -8 -8 -8 -7 0 59 
59 0 -7 -8 -8 -8 -8 -8 -8 -8 -8 -5 15 102 102 15 -5 -8 -8 -8 -8 -8 -8 -8 -8 -8 -8 -8 -8 -8 -8 -8 -7 0 55 91 10 -6 -8 -8 -8 -8 -8 -8 -8 -8 -8 -8 -8 -8 -8 -6 9 92 51 -1 -7 -8 -8 -8 -8 -8 -8 -8 -8 -8 -8 -8 -8 -8 -8 -8 -8 -8 -8 -8 -8 -8 -7 0 62 62 0 -7 -8 -8 -8 -8 -8 -8 -8 -8 -8 -8 -7 -1 51 92 9 -6 -8 -8 -8 -8 -8 -8 -8 -7 0 59 
59 0 -7 -8 -8 -8 -8 -8 -8 -8 -8 -7 0 64 64 0 -7 -8 -8 -8 -8 -8 -8 -8 -8 -8 -8 -8 -8 -8 -8 -8 -5 14 92 55 0 -7 -8 -8 -8 -8 -8 -8 -8 -8 -8 -8 -8 -8 -8 -7 0 63 58 0 -7 -8 -8 -8 -8 -8 -8 -8 -8 -8 -8 -8 -8 -8 -8 -8 -8 -8 -8 -8 -8 -8 -6 10 92 51 -1 -7 -8 -8 -8 -8 -8 -8 -8 -8 -8 -8 -7 0 59 63 0 -7 -8 -8 -8 -8 -8 -8 -8 -7 0 59 
59 0 -7 -8 -8 -8 -8 -8 -8 -8 -8 -7 0 59 63 0 -7 -8 -8 -8 -8 -8 -8 -8 -8 -8 -8 -8 -8 -8 -8 -6 9 86 86 9 -6 -8 -8 -8 -8 -8 -8 -8 -8 -8 -8 -8 -8 -8 -8 -7 0 59 59 0 -7 -8 -8 -8 -8 -8 -8 -8 -8 -8 -8 -8 -8 -8 -8 -8 -8 -8 -8 -8 -8 -7 0 55 91 9 -6 -8 -8 -8 -8 -8 -8 -8 -8 -8 -8 -8 -7 0 63 59 0 -7 -8 -8 -8 -8 -8 -8 -8 -7 0 59 
59 0 -7 -8 -8 -8 -8 -8 -8 -8 -8 -7 -1 51 92 9 -6 -8 -8 -8 -8 -8 -8 -8 -8 -8 -8 -8 -8 -8 -7 0 55 92 14 -5 -8 -8 -8 -8 -8 -8 -8 -8 -8 -8 -8 -8 -8 -8 -8 -7 0 59 59 0 -7 -8 -8 -8 -8 -8 -8 -8 -8 -8 -8 -8 -8 -8 -8 -8 -8 -8 -8 -8 -8 -6 9 91 55 0 -7 -8 -8 -8 -8 -8 -8 -8 -8 -8 -8 -8 -6 9 92 51 -1 -7 -8 -8 -8 -8 -8 -8 -8 -7 0 59 
59 0 -7 -8 -8 -8 -8 -8 -8 -8 -8 -8 -6 9 92 51 -1 -7 -8 -8 -8 -8 -8 -8 -8 -8 -8 -8 -8 -8 -6 10 91 55 0 -7 -8 -8 -8 -8 -8 -8 -8 -8 -8 -8 -8 -8 -8 -8 -8 -7 0 59 59 0 -7 -8 -8 -8 -8 -8 -8 -8 -8 -8 -8 -8 -8 -8 -8 -8 -8 -8 -8 -8 -7 -1 51 92 10 -6 -8 -8 -8 -8 -8 -8 -8 -8 -8 -8 -8 -7 -1 51 92 9 -6 -8 -8 -8 -8 -8 -8 -8 -8 -7 0 59 
59 0 -7 -8 -8 -8 -8 -8 -8 -8 -8 -8 -7 0 63 58 0 -7 -8 -8 -8 -8 -8 -8 -8 -8 -8 -8 -8 -7 0 55 91 10 -6 -8 -8 -8 -8 -8 -8 -8 -8 -8 -8 -8 -8 -8 -8 -8 -8 -7 0 58 63 0 -7 -8 -8 -8 -8 -8 -8 -8 -8 -8 -8 -8 -8 -8 -8 -8 -8 -8 -8 -8 -7 0 62 62 0 -7 -8 -8 -8 -8 -8 -8 -8 -8 -8 -8 -8 -7 0 59 63 0 -7 -8 -8 -8 -8 -8 -8 -8 -8 -7 0 59 
59 0 -7 -8 -8 -8 -8 -8 -8 -8 -8 -8 -7 0 59 59 0 -7 -8 -8 -8 -8 -8 -8 -8 -8 -8 -8 -8 -6 10 91 55 0 -7 -8 -8 -8 -8 -8 -8 -8 -8 -8 -8 -8 -8 -8 -8 -8 -8 -7 -1 51 92 9 -6 -8 -8 -8 -8 -8 -8 -8 -8 -8 -8 -8 -8 -8 -8 -8 -8 -8 -8 -8 -6 10 92 51 -1 -7 -8 -8 -8 -8 -8 -8 -8 -8 -8 -8 -8 -7 0 63 59 0 -7 -8 -8 -8 -8 -8 -8 -8 -8 -7 0 59 
59 0 -7 -8 -8 -8 -8 -8 -8 -8 -8 -8 -7 0 58 63 0 -7 -8 -8 -8 -8 -8 -8 -8 -8 -8 -8 -7 0 55 91 10 -6 -8 -8 -8 -8 -8 -8 -8 -8 -8 -8 -8 -8 -8 -8 -8 -8 -8 -8 -6 9 92 51 -1 -7 -8 -8 -8 -8 -8 -8 -8 -8 -8 -8 -8 -8 -8 -8 -8 -8 -8 -7 0 55 91 9 -6 -8 -8 -8 -8 -8 -8 -8 -8 -8 -8 -8 -8 -6 9 92 51 -1 -7 -8 -8 -8 -8 -8 -8 -8 -8 -7 0 64 
60 0 -7 -8 -8 -8 -8 -8 -8 -8 -8 -8 -7 -1 51 92 9 -6 -8 -8 -8 -8 -8 -8 -8 -8 -8 -8 -5 14 92 55 0 -7 -8 -8 -8 -8 -8 -8 -8 -8 -8 -8 -8 -8 -8 -8 -8 -8 -8 -8 -7 0 63 58 0 -7 -8 -8 -8 -8 -8 -8 -8 -8 -8 -8 -8 -8 -8 -8 -8 -8 -8 -6 9 91 55 0 -7 -8 -8 -8 -8 -8 -8 -8 -8 -8 -8 -8 -7 -1 51 92 9 -6 -8 -8 -8 -8 -8 -8 -8 -8 -8 -6 10 101 
61 0 -7 -8 -8 -8 -8 -8 -8 -8 -8 -8 -8 -6 9 92 51 -1 -7 -8 -8 -8 -8 -8 -8 -8 -8 -6 9 86 86 9 -6 -8 -8 -8 -8 -8 -8 -8 -8 -8 -8 -8 -8 -8 -8 -8 -8 -8 -8 -8 -7 0 59 59 0 -7 -8 -8 -8 -8 -8 -8 -8 -8 -8 -8 -8 -8 -8 -8 -8 -8 -7 -1 51 92 10 -6 -8 -8 -8 -8 -8 -8 -8 -8 -8 -8 -8 -8 -7 0 59 63 0 -7 -8 -8 -8 -8 -8 -8 -8 -8 -7 0 56 139 
60 0 -7 -8 -8 -8 -8 -8 -8 -8 -8 -8 -8 -7 0 63 58 0 -7 -8 -8 -8 -8 -8 -8 -8 -7 0 55 92 14 -5 -8 -8 -8 -8 -8 -8 -8 -8 -8 -8 -8 -8 -8 -8 -8 -8 -8 -8 -8 -8 -7 0 59 59 0 -7 -8 -8 -8 -8 -8 -8 -8 -8 -8 -8 -8 -8 -8 -8 -8 -8 -7 0 62 62 0 -7 -8 -8 -8 -8 -8 -8 -8 -8 -8 -8 -8 -8 -7 0 63 59 0 -7 -8 -8 -8 -8 -8 -8 -8 -8 -5 14 94 112 
59 0 -7 -8 -8 -8 -8 -8 -8 -8 -8 -8 -8 -7 0 59 59 0 -7 -8 -8 -8 -8 -8 -8 -8 -6 10 91 55 0 -7 -8 -8 -8 -8 -8 -8 -8 -8 -8 -8 -8 -8 -8 -8 -8 -8 -8 -8 -8 -8 -7 0 59 59 0 -7 -8 -8 -8 -8 -8 -8 -8 -8 -8 -8 -8 -8 -8 -8 -8 -8 -6 10 92 51 -1 -7 -8 -8 -8 -8 -8 -8 -8 -8 -8 -8 -8 -8 -6 9 92 51 -1 -7 -8 -8 -8 -8 -8 -8 -8 -6 9 86 92 74 
59 0 -7 -8 -8 -8 -8 -8 -8 -8 -8 -8 -8 -7 0 58 63 0 -7 -8 -8 -8 -8 -8 -8 -7 0 55 91 10 -6 -8 -8 -8 -8 -8 -8 -8 -8 -8 -8 -8 -8 -8 -8 -8 -8 -8 -8 -8 -8 -8 -7 0 58 63 0 -7 -8 -8 -8 -8 -8 -8 -8 -8 -8 -8 -8 -8 -8 -8 -8 -7 0 55 91 9 -6 -8 -8 -8 -8 -8 -8 -8 -8 -8 -8 -8 -8 -7 -1 51 92 9 -6 -8 -8 -8 -8 -8 -8 -8 -7 0 55 92 22 61 
59 0 -7 -8 -8 -8 -8 -8 -8 -8 -8 -8 -8 -7 -1 51 92 9 -6 -8 -8 -8 -8 -8 -8 -6 10 91 55 0 -7 -8 -8 -8 -8 -8 -8 -8 -8 -8 -8 -8 -8 -8 -8 -8 -8 -8 -8 -8 -8 -8 -7 -1 51 92 9 -6 -8 -8 -8 -8 -8 -8 -8 -8 -8 -8 -8 -8 -8 -8 -8 -6 9 91 55 0 -7 -8 -8 -8 -8 -8 -8 -8 -8 -8 -8 -8 -8 -7 0 59 63 0 -7 -8 -8 -8 -8 -8 -8 -8 -5 14 92 55 7 60 
59 0 -7 -8 -8 -8 -8 -8 -8 -8 -8 -8 -8 -8 -6 9 92 51 -1 -7 -8 -8 -8 -8 -7 0 55 91 10 -6 -8 -8 -8 -8 -8 -8 -8 -8 -8 -8 -8 -8 -8 -8 -8 -8 -8 -8 -8 -8 -8 -8 -8 -6 9 92 51 -1 -7 -8 -8 -8 -8 -8 -8 -8 -8 -8 -8 -8 -8 -8 -7 -1 51 92 10 -6 -8 -8 -8 -8 -8 -8 -8 -8 -8 -8 -8 -8 -8 -7 0 63 59 0 -7 -8 -8 -8 -8 -8 -8 -6 9 86 86 9 0 59 
59 0 -7 -8 -8 -8 -8 -8 -8 -8 -8 -8 -8 -8 -7 0 63 58 0 -7 -8 -8 -8 -8 -5 14 92 55 0 -7 -8 -8 -8 -8 -8 -8 -8 -8 -8 -8 -8 -8 -8 -8 -8 -8 -8 -8 -8 -8 -8 -8 -8 -7 0 63 59 0 -7 -7 -7 -7 -8 -8 -8 -8 -8 -8 -8 -8 -8 -8 -7 0 62 62 0 -7 -8 -8 -8 -8 -8 -8 -8 -8 -8 -8 -8 -8 -8 -6 9 92 51 -1 -7 -8 -8 -8 -8 -8 -7 0 55 92 14 -5 0 59 
59 0 -7 -8 -8 -8 -8 -8 -8 -8 -8 -8 -8 -8 -7 0 59 59 0 -7 -8 -8 -8 -6 9 86 86 9 -6 -8 -8 -8 -8 -8 -8 -8 -8 -8 -8 -8 -8 -8 -8 -8 -8 -8 -8 -8 -8 -8 -8 -8 -8 -7 0 64 65 6 0 0 0 -1 -6 -7 -7 -7 -7 -7 -7 -8 -8 -8 -6 10 92 51 -1 -7 -8 -8 -8 -8 -8 -8 -8 -8 -8 -8 -8 -8 -7 -1 51 92 9 -6 -8 -8 -8 -8 -8 -8 -5 14 92 55 0 -7 0 59 
59 0 -7 -8 -8 -8 -8 -8 -8 -8 -8 -8 -8 -8 -7 0 58 63 0 -7 -8 -8 -7 0 55 92 14 -5 -8 -8 -8 -8 -8 -8 -8 -8 -8 -8 -8 -8 -8 -8 -8 -8 -8 -8 -8 -8 -8 -8 -8 -8 -6 0 16 102 108 65 59 59 58 51 9 0 0 0 0 0 -1 -6 -7 -7 0 55 91 9 -6 -8 -8 -8 -8 -8 -8 -8 -8 -8 -8 -8 -8 -8 -7 0 59 63 0 -7 -8 -8 -8 -8 -8 -6 9 86 86 9 -6 -7 0 59 
59 0 -7 -8 -8 -8 -8 -8 -8 -8 -8 -8 -8 -8 -7 -1 51 92 9 -6 -8 -8 -6 10 91 55 0 -7 -8 -8 -8 -8 -8 -8 -8 -8 -8 -8 -8 -8 -8 -8 -8 -8 -8 -8 -8 -8 -8 -8 -7 -5 9 55 92 95 65 60 59 59 63 92 92 63 59 59 59 58 51 9 0 0 16 92 55 0 -7 -8 -8 -8 -8 -8 -8 -8 -8 -8 -8 -8 -8 -8 -7 0 63 59 0 -7 -8 -8 -8 -8 -7 0 55 92 14 -5 -8 -7 0 59 
59 0 -7 -8 -8 -8 -8 -8 -8 -8 -8 -8 -8 -8 -8 -6 9 92 51 -1 -7 -7 0 55 91 10 -6 -8 -8 -8 -8 -8 -8 -8 -8 -8 -8 -8 -8 -8 -8 -8 -8 -8 -8 -8 -8 -8 -8 -6 0 14 86 92 55 10 0 0 0 0 0 9 51 58 59 59 59 63 92 92 63 64 102 99 11 -6 -8 -8 -8 -8 -8 -8 -8 -8 -8 -8 -8 -8 -8 -8 -6 9 92 51 -1 -7 -8 -8 -8 -8 -5 14 92 55 0 -7 -8 -7 0 59 
59 0 -7 -8 -8 -8 -8 -8 -8 -8 -8 -8 -8 -8 -8 -7 0 63 58 0 -7 -6 10 91 55 0 -7 -8 -8 -8 -8 -8 -8 -8 -8 -8 -8 -8 -8 -8 -8 -8 -8 -8 -8 -8 -8 -7 -5 9 55 92 86 14 0 -6 -7 -7 -7 -7 -7 -6 -1 0 0 0 0 0 9 51 59 64 102 99 11 -6 -8 -8 -8 -8 -8 -8 -8 -8 -8 -8 -8 -8 -8 -7 -1 51 92 9 -6 -8 -8 -8 -8 -6 9 86 86 9 -6 -8 -8 -7 0 59 
59 0 -7 -8 -8 -8 -8 -8 -8 -8 -8 -8 -8 -8 -8 -7 0 59 59 0 -7 0 55 91 10 -6 -8 -8 -8 -8 -8 -8 -8 -8 -8 -8 -8 -8 -8 -8 -8 -8 -8 -8 -8 -8 -6 0 14 86 92 55 9 -5 -7 -8 -8 -8 -8 -8 -8 -8 -7 -7 -7 -7 -7 -7 -6 -1 0 0 16 92 55 0 -7 -8 -8 -8 -8 -8 -8 -8 -8 -8 -8 -8 -8 -7 0 59 63 0 -7 -8 -8 -8 -7 0 55 92 14 -5 -8 -8 -8 -7 0 59 
59 0 -7 -8 -8 -8 -8 -8 -8 -8 -8 -8 -8 -8 -8 -7 0 58 63 0 -5 14 92 55 0 -7 -8 -8 -8 -8 -8 -8 -8 -8 -8 -8 -8 -8 -8 -8 -8 -8 -8 -8 -8 -5 9 55 92 86 14 0 -6 -8 -8 -8 -8 -8 -8 -8 -8 -8 -8 -8 -8 -8 -8 -8 -8 -7 -7 -7 0 55 92 15 -5 -7 -8 -8 -8 -8 -8 -8 -8 -8 -8 -8 -8 -7 0 63 59 0 -7 -8 -8 -8 -5 14 92 55 0 -7 -8 -8 -8 -7 0 59 
59 0 -7 -8 -8 -8 -8 -8 -8 -8 -8 -8 -8 -8 -8 -7 -1 51 92 11 10 86 86 9 -6 -8 -8 -8 -8 -8 -8 -8 -8 -8 -8 -8 -8 -8 -8 -8 -8 -8 -8 -7 -5 14 86 92 55 9 -5 -7 -8 -8 -8 -8 -8 -8 -8 -8 -8 -8 -8 -8 -8 -8 -8 -8 -8 -8 -8 -8 -6 9 86 87 15 0 -6 -7 -7 -7 -7 -7 -7 -7 -7 -7 -7 -6 10 92 51 -1 -7 -8 -8 -6 9 86 86 9 -6 -8 -8 -8 -8 -7 0 59 
59 0 -7 -8 -8 -8 -8 -8 -8 -8 -8 -8 -8 -8 -8 -8 -6 9 92 57 60 92 14 -5 -8 -8 -8 -8 -8 -8 -8 -8 -8 -8 -8 -8 -8 -8 -8 -8 -8 -8 -6 0 14 87 87 14 0 -6 -8 -8 -8 -8 -8 -8 -8 -8 -8 -8 -8 -8 -8 -8 -8 -8 -8 -8 -8 -8 -8 -8 -8 -5 15 95 101 56 10 0 0 0 0 0 0 0 0 0 0 5 57 96 11 -6 -8 -8 -7 0 55 92 14 -5 -8 -8 -8 -8 -8 -7 0 59 
59 0 -7 -8 -8 -8 -8 -8 -8 -8 -8 -8 -8 -8 -8 -8 -7 0 63 74 97 55 0 -7 -8 -8 -8 -8 -8 -8 -8 -8 -8 -8 -8 -8 -8 -8 -8 -8 -7 -5 9 55 92 86 14 -5 -7 -8 -8 -8 -8 -8 -8 -8 -8 -8 -8 -8 -8 -8 -8 -8 -8 -8 -8 -8 -8 -8 -8 -8 -8 -7 0 66 112 97 92 63 59 59 59 59 59 59 59 59 59 65 108 105 17 0 -6 -7 -5 14 92 55 0 -7 -8 -8 -8 -8 -8 -7 0 59 
59 0 -7 -8 -8 -8 -8 -8 -8 -8 -8 -8 -8 -8 -8 -8 -7 0 60 112 93 10 -6 -8 -8 -8 -8 -8 -8 -8 -8 -8 -8 -8 -8 -8 -8 -8 -8 -6 0 14 86 92 55 9 -5 -8 -8 -8 -8 -8 -8 -8 -8 -8 -8 -8 -8 -8 -8 -8 -8 -8 -8 -8 -8 -8 -8 -8 -8 -8 -8 -7 0 63 65 17 51 58 59 59 59 59 59 59 59 59 59 60 65 95 92 55 10 0 10 86 86 9 -6 -8 -8 -8 -8 -8 -8 -7 0 59 
59 0 -7 -8 -8 -8 -8 -8 -8 -8 -8 -8 -8 -8 -8 -8 -7 0 61 139 56 0 -7 -8 -8 -8 -8 -8 -8 -8 -8 -8 -8 -8 -8 -8 -8 -7 -5 9 55 92 86 14 0 -6 -8 -8 -8 -8 -8 -8 -8 -8 -8 -8 -8 -8 -8 -8 -8 -8 -8 -8 -8 -8 -8 -8 -8 -8 -8 -8 -8 -6 9 92 51 0 -1 0 0 0 0 0 0 0 0 0 0 0 0 10 55 91 92 60 66 93 15 -5 -8 -8 -8 -8 -8 -8 -8 -7 0 59 
59 0 -7 -8 -8 -8 -8 -8 -8 -8 -8 -8 -8 -8 -8 -8 -7 0 60 101 10 -6 -8 -8 -8 -8 -8 -8 -8 -8 -8 -8 -8 -8 -8 -8 -6 0 14 86 92 55 9 -5 -7 -8 -8 -8 -8 -8 -8 -8 -8 -8 -8 -8 -8 -8 -8 -8 -8 -8 -8 -8 -8 -8 -8 -8 -8 -8 -8 -8 -7 -1 51 92 9 -6 -7 -7 -7 -7 -7 -7 -7 -7 -7 -7 -7 -7 -7 -6 0 10 55 94 135 70 1 -7 -8 -8 -8 -8 -8 -8 -8 -7 0 59 
59 0 -7 -8 -8 -8 -8 -8 -8 -8 -8 -8 -8 -8 -8 -8 -7 0 59 64 0 -7 -8 -8 -8 -8 -8 -8 -8 -8 -8 -8 -8 -7 -7 -5 9 56 94 87 15 0 -6 -7 -8 -8 -8 -8 -8 -8 -8 -8 -8 -8 -8 -8 -8 -8 -8 -8 -8 -8 -8 -8 -8 -8 -8 -8 -8 -8 -8 -8 -7 0 58 63 0 -7 -8 -8 -8 -8 -8 -8 -8 -8 -8 -8 -8 -8 -8 -8 -7 -6 0 15 94 95 15 -5 -8 -8 -8 -8 -8 -8 -8 -7 0 59 
59 0 -7 -8 -8 -8 -8 -8 -8 -8 -8 -8 -8 -8 -8 -8 -7 0 59 59 0 -7 -8 -8 -8 -8 -8 -8 -8 -8 -8 -7 -6 -1 0 15 94 139 106 26 2 0 0 -1 -6 -7 -7 -7 -8 -8 -8 -8 -8 -8 -8 -8 -8 -8 -8 -8 -8 -8 -8 -8 -8 -8 -8 -8 -8 -8 -8 -8 -7 0 59 59 0 -7 -8 -8 -8 -8 -8 -8 -8 -8 -8 -8 -8 -8 -8 -8 -8 -8 -7 -5 14 87 86 9 -6 -8 -8 -8 -8 -8 -8 -7 0 59 
59 0 -7 -8 -8 -8 -8 -8 -8 -8 -8 -8 -8 -8 -8 -8 -7 0 63 58 0 -7 -8 -8 -8 -8 -8 -8 -8 -7 -6 0 9 51 62 93 95 70 94 93 63 59 58 51 9 0 0 -1 -6 -7 -7 -7 -7 -8 -8 -8 -8 -8 -8 -8 -8 -8 -8 -8 -8 -8 -8 -8 -8 -8 -8 -8 -7 0 59 59 0 -7 -8 -8 -8 -8 -8 -8 -8 -8 -8 -8 -8 -8 -8 -8 -8 -8 -8 -8 -5 15 92 55 0 -7 -8 -8 -8 -8 -8 -7 0 59 
59 0 -7 -8 -8 -8 -8 -8 -8 -8 -8 -8 -8 -8 -8 -8 -6 9 92 51 -1 -7 -8 -8 -8 -8 -7 -7 -6 0 10 55 91 92 62 51 10 1 9 51 58 59 63 92 92 63 59 51 9 0 0 0 -1 -6 -7 -7 -7 -8 -8 -8 -8 -8 -8 -8 -8 -8 -8 -8 -8 -8 -8 -8 -7 0 63 58 0 -7 -8 -8 -8 -8 -8 -8 -8 -8 -8 -8 -8 -8 -8 -8 -8 -8 -8 -8 -7 0 55 92 14 -5 -8 -8 -8 -8 -8 -7 0 59 
59 0 -7 -8 -8 -8 -8 -8 -8 -8 -8 -8 -8 -8 -8 -7 -1 51 92 9 -6 -8 -8 -8 -7 -6 -1 0 10 55 91 91 55 10 0 -1 -6 -7 -6 -1 0 0 0 9 51 59 63 92 92 63 59 58 51 9 0 0 -1 -6 -7 -7 -7 -7 -8 -8 -8 -8 -8 -8 -8 -8 -8 -8 -6 9 92 51 -1 -7 -8 -8 -8 -8 -8 -8 -8 -8 -8 -8 -8 -8 -8 -8 -8 -8 -8 -8 -8 -6 9 86 86 9 -6 -8 -8 -8 -8 -7 0 59 
59 0 -7 -8 -8 -8 -8 -8 -8 -8 -8 -8 -8 -8 -8 -7 0 58 63 0 -7 -8 -7 -6 0 9 51 62 92 91 55 10 0 -6 -7 -7 -8 -8 -8 -7 -7 -7 -7 -6 -1 0 0 9 51 58 59 63 92 92 63 59 51 9 0 0 0 -1 -6 -7 -7 -7 -8 -8 -8 -8 -8 -7 -1 51 92 9 -6 -8 -8 -8 -8 -8 -8 -8 -8 -8 -8 -8 -8 -8 -8 -8 -8 -8 -8 -8 -8 -8 -5 14 92 55 0 -7 -8 -8 -8 -7 0 59 
59 0 -7 -8 -8 -8 -8 -8 -8 -8 -8 -8 -8 -8 -8 -7 0 59 59 0 -7 -6 0 10 55 91 92 62 51 9 0 -6 -7 -8 -8 -8 -8 -8 -8 -8 -8 -8 -8 -8 -7 -7 -7 -6 -1 0 0 0 9 51 59 63 92 92 63 59 58 51 9 0 0 -1 -6 -7 -7 -7 -7 -7 0 58 63 0 -7 -8 -8 -8 -8 -8 -8 -8 -8 -8 -8 -8 -8 -8 -8 -8 -8 -8 -8 -8 -8 -8 -7 0 55 92 14 -5 -8 -8 -8 -7 0 59 
59 0 -7 -8 -8 -8 -8 -8 -8 -8 -8 -8 -8 -8 -8 -7 0 63 59 0 0 10 55 91 91 55 10 0 -1 -6 -7 -8 -8 -8 -8 -8 -8 -8 -8 -8 -8 -8 -8 -8 -8 -8 -8 -8 -7 -7 -7 -7 -6 -1 0 0 9 51 58 59 63 92 92 63 59 51 9 0 0 0 -1 -6 0 59 59 0 -7 -8 -8 -8 -8 -8 -8 -8 -8 -8 -8 -8 -8 -8 -8 -8 -8 -8 -8 -8 -8 -8 -8 -6 9 86 87 14 -5 -8 -8 -7 0 59 
59 0 -7 -8 -8 -8 -8 -8 -8 -8 -8 -8 -8 -8 -8 -6 10 94 58 16 55 91 91 55 10 0 -6 -7 -7 -8 -8 -8 -8 -8 -8 -8 -8 -8 -8 -8 -8 -8 -8 -8 -8 -8 -8 -8 -8 -8 -8 -8 -8 -7 -7 -7 -6 -1 0 0 0 9 51 59 63 92 92 63 59 58 51 10 7 65 59 0 -7 -8 -8 -8 -8 -8 -8 -8 -8 -8 -8 -8 -8 -8 -8 -8 -8 -8 -8 -8 -8 -8 -8 -8 -5 14 87 86 9 -6 -8 -7 0 59 
59 0 -7 -8 -8 -8 -8 -8 -8 -8 -8 -8 -8 -8 -7 0 57 134 78 93 91 55 10 0 -6 -7 -8 -8 -8 -8 -8 -8 -8 -8 -8 -8 -8 -8 -8 -8 -8 -8 -8 -8 -8 -8 -8 -8 -8 -8 -8 -8 -8 -8 -8 -8 -8 -7 -7 -7 -7 -6 -1 0 0 9 51 58 59 63 92 92 69 109 61 0 -7 -8 -8 -8 -8 -8 -8 -8 -8 -8 -8 -8 -8 -8 -8 -8 -8 -8 -8 -8 -8 -8 -8 -8 -8 -5 14 92 55 0 -7 -7 0 59 
59 0 -7 -8 -8 -8 -8 -8 -8 -8 -8 -8 -8 -8 -6 10 94 101 63 51 9 0 -6 -7 -8 -8 -8 -8 -8 -8 -8 -8 -8 -8 -8 -8 -8 -8 -8 -8 -8 -8 -8 -8 -8 -8 -8 -8 -8 -8 -8 -8 -8 -8 -8 -8 -8 -8 -8 -8 -8 -8 -7 -7 -7 -6 -1 0 0 0 9 51 64 108 61 0 -7 -8 -8 -8 -8 -8 -8 -8 -8 -8 -8 -8 -8 -8 -8 -8 -8 -8 -8 -8 -8 -8 -8 -8 -8 -7 0 55 92 14 -5 -7 0 59 
59 0 -7 -8 -8 -8 -8 -8 -8 -8 -8 -8 -8 -7 0 55 92 16 0 -1 -6 -7 -8 -8 -8 -8 -8 -8 -8 -8 -8 -8 -8 -8 -8 -8 -8 -8 -8 -8 -8 -8 -8 -8 -8 -8 -8 -8 -8 -8 -8 -8 -8 -8 -8 -8 -8 -8 -8 -8 -8 -8 -8 -8 -8 -8 -7 -7 -7 -7 -6 -1 6 65 59 0 -7 -8 -8 -8 -8 -8 -8 -8 -8 -8 -8 -8 -8 -8 -8 -8 -8 -8 -8 -8 -8 -8 -8 -8 -8 -8 -6 9 86 87 14 -5 0 59 
59 0 -7 -8 -8 -8 -8 -8 -8 -8 -8 -8 -8 -5 14 92 55 0 -7 -7 -8 -8 -8 -8 -8 -8 -8 -8 -8 -8 -8 -8 -8 -8 -8 -8 -8 -8 -8 -8 -8 -8 -8 -8 -8 -8 -8 -8 -8 -8 -8 -8 -8 -8 -8 -8 -8 -8 -8 -8 -8 -8 -8 -8 -8 -8 -8 -8 -8 -8 -8 -7 0 59 59 0 -7 -8 -8 -8 -8 -8 -8 -8 -8 -8 -8 -8 -8 -8 -8 -8 -8 -8 -8 -8 -8 -8 -8 -8 -8 -8 -8 -5 14 87 86 9 0 59 
59 0 -7 -8 -8 -8 -8 -8 -8 -8 -8 -8 -6 9 86 86 9 -6 -8 -8 -8 -8 -8 -8 -8 -8 -8 -8 -8 -8 -8 -8 -8 -8 -8 -8 -8 -8 -8 -8 -8 -8 -8 -8 -8 -8 -8 -8 -8 -8 -8 -8 -8 -8 -8 -8 -8 -8 -8 -8 -8 -8 -8 -8 -8 -8 -8 -8 -8 -8 -8 -7 0 59 59 0 -7 -8 -8 -8 -8 -8 -8 -8 -8 -8 -8 -8 -8 -8 -8 -8 -8 -8 -8 -8 -8 -8 -8 -8 -8 -8 -8 -8 -5 14 92 55 7 60 
59 0 -7 -8 -8 -8 -8 -8 -8 -8 -8 -7 0 55 92 14 -5 -8 -8 -8 -8 -8 -8 -8 -8 -8 -8 -8 -8 -8 -8 -8 -8 -8 -8 -8 -8 -8 -8 -8 -8 -8 -8 -8 -8 -8 -8 -8 -8 -8 -8 -8 -8 -8 -8 -8 -8 -8 -8 -8 -8 -8 -8 -8 -8 -8 -8 -8 -8 -8 -8 -7 0 59 59 0 -7 -8 -8 -8 -8 -8 -8 -8 -8 -8 -8 -8 -8 -8 -8 -8 -8 -8 -8 -8 -8 -8 -8 -8 -8 -8 -8 -8 -7 0 55 92 22 61 
59 0 -7 -8 -8 -8 -8 -8 -8 -8 -8 -5 14 92 55 0 -7 -8 -8 -8 -8 -8 -8 -8 -8 -8 -8 -8 -8 -8 -8 -8 -8 -8 -8 -8 -8 -8 -8 -8 -8 -8 -8 -8 -8 -8 -8 -8 -8 -8 -8 -8 -8 -8 -8 -8 -8 -8 -8 -8 -8 -8 -8 -8 -8 -8 -8 -8 -8 -8 -8 -7 0 59 63 0 -7 -8 -8 -8 -8 -8 -8 -8 -8 -8 -8 -8 -8 -8 -8 -8 -8 -8 -8 -8 -8 -8 -8 -8 -8 -8 -8 -8 -8 -6 9 86 92 74 
60 0 -7 -8 -8 -8 -8 -8 -8 -8 -5 14 87 86 9 -6 -7 -8 -8 -8 -8 -8 -8 -8 -8 -8 -8 -8 -8 -8 -8 -8 -8 -8 -8 -8 -8 -8 -8 -8 -8 -8 -8 -8 -8 -8 -8 -8 -8 -8 -8 -8 -8 -8 -8 -8 -8 -8 -8 -8 -8 -8 -8 -8 -8 -8 -8 -8 -8 -8 -8 -7 0 56 94 15 -5 -7 -8 -8 -8 -8 -8 -8 -8 -8 -8 -8 -8 -8 -8 -8 -8 -8 -8 -8 -8 -8 -8 -8 -8 -8 -8 -8 -8 -8 -5 14 94 112 
61 0 -7 -8 -8 -8 -8 -8 -8 -5 14 88 92 21 1 0 -1 -6 -7 -7 -7 -7 -7 -7 -7 -7 -7 -7 -7 -8 -8 -8 -8 -8 -8 -8 -8 -8 -8 -8 -8 -8 -8 -8 -8 -8 -8 -8 -8 -8 -8 -8 -8 -8 -8 -8 -8 -8 -8 -8 -8 -8 -8 -8 -8 -8 -8 -8 -8 -8 -6 0 11 66 135 94 15 0 -6 -7 -8 -8 -8 -8 -8 -8 -8 -8 -8 -8 -8 -8 -8 -8 -8 -8 -8 -8 -8 -8 -8 -8 -8 -8 -8 -8 -7 0 56 139 
60 0 -7 -8 -8 -8 -8 -8 -5 14 94 136 78 61 59 58 51 9 0 0 0 0 0 0 0 0 0 0 -1 -6 -7 -7 -7 -7 -7 -7 -7 -7 -7 -7 -8 -8 -8 -8 -8 -8 -8 -8 -8 -8 -8 -8 -8 -8 -8 -8 -8 -8 -8 -8 -8 -8 -8 -8 -8 -8 -8 -8 -7 -5 9 55 91 93 70 95 92 55 10 0 -6 -8 -8 -8 -8 -8 -8 -8 -8 -8 -8 -8 -8 -8 -8 -8 -8 -8 -8 -8 -8 -8 -8 -8 -8 -8 -8 -6 10 101 
59 0 -7 -8 -8 -8 -8 -5 14 87 95 66 60 59 59 63 92 92 63 59 59 59 59 59 59 59 59 58 51 9 0 0 0 0 0 0 0 0 0 -1 -6 -7 -7 -7 -7 -7 -7 -7 -7 -7 -7 -7 -8 -8 -8 -8 -8 -8 -8 -8 -8 -8 -8 -8 -8 -8 -7 -6 0 14 86 92 55 10 1 10 55 91 91 55 9 -5 -7 -8 -8 -8 -8 -8 -8 -8 -8 -8 -8 -8 -8 -8 -8 -8 -8 -8 -8 -8 -8 -8 -8 -8 -8 -7 0 64 
59 0 -7 -8 -8 -8 -5 14 87 87 15 0 0 0 0 0 9 51 58 59 59 59 59 59 59 59 59 63 92 92 63 59 59 59 59 59 59 59 58 51 9 0 0 0 0 0 0 0 0 0 0 -1 -6 -7 -7 -7 -7 -7 -7 -7 -7 -7 -7 -8 -8 -6 0 10 55 92 86 14 0 -6 -7 -6 0 10 55 92 86 14 0 -6 -7 -8 -8 -8 -8 -8 -8 -8 -8 -8 -8 -8 -8 -8 -8 -8 -8 -8 -8 -8 -8 -8 -8 -7 0 59 
59 0 -7 -8 -7 -5 14 87 87 14 -5 -7 -7 -7 -7 -7 -6 -1 0 0 0 0 0 0 0 0 0 0 9 51 58 59 59 59 59 59 59 59 63 92 92 63 59 59 59 59 59 59 59 59 58 51 9 0 0 0 0 0 0 0 0 0 -1 -6 -5 9 55 91 91 55 9 -5 -7 -8 -8 -8 -7 -6 0 14 86 92 55 10 0 -6 -8 -8 -8 -8 -8 -8 -8 -8 -8 -8 -8 -8 -8 -8 -8 -8 -8 -8 -8 -8 -8 -7 0 59 
59 0 -7 -6 0 14 87 87 14 -5 -8 -8 -8 -8 -8 -8 -8 -7 -7 -7 -7 -7 -7 -7 -7 -7 -7 -7 -6 -1 0 0 0 0 0 0 0 0 0 9 51 58 59 59 59 59 59 59 59 59 63 92 92 63 59 59 59 59 59 59 59 58 51 11 16 86 92 55 10 0 -6 -8 -8 -8 -8 -8 -8 -8 -7 -5 9 55 91 91 55 9 -5 -7 -8 -8 -8 -8 -8 -8 -8 -8 -8 -8 -8 -8 -8 -8 -8 -8 -8 -8 -8 -7 0 59 
59 0 -5 9 55 92 86 14 -5 -8 -8 -8 -8 -8 -8 -8 -8 -8 -8 -8 -8 -8 -8 -8 -8 -8 -8 -8 -8 -7 -7 -7 -7 -7 -7 -7 -7 -7 -7 -6 -1 0 0 0 0 0 0 0 0 0 0 9 51 58 59 59 59 59 59 59 59 63 93 99 99 87 15 0 -6 -7 -8 -8 -8 -8 -8 -8 -8 -8 -8 -8 -6 0 10 55 92 86 14 0 -6 -7 -8 -8 -8 -8 -8 -8 -8 -8 -8 -8 -8 -8 -8 -8 -8 -8 -8 -7 0 59 
59 2 14 86 92 55 9 -5 -8 -8 -8 -8 -8 -8 -8 -8 -8 -8 -8 -8 -8 -8 -8 -8 -8 -8 -8 -8 -8 -8 -8 -8 -8 -8 -8 -8 -8 -8 -8 -8 -7 -7 -7 -7 -7 -7 -7 -7 -7 -7 -7 -6 -1 0 0 0 0 0 0 0 0 0 16 102 102 15 -5 -7 -8 -8 -8 -8 -8 -8 -8 -8 -8 -8 -8 -8 -8 -7 -6 0 14 86 92 55 10 0 -6 -8 -8 -8 -8 -8 -8 -8 -8 -8 -8 -8 -8 -8 -8 -8 -8 -7 0 59 
61 21 87 87 14 0 -6 -8 -8 -8 -8 -8 -8 -8 -8 -8 -8 -8 -8 -8 -8 -8 -8 -8 -8 -8 -8 -8 -8 -8 -8 -8 -8 -8 -8 -8 -8 -8 -8 -8 -8 -8 -8 -8 -8 -8 -8 -8 -8 -8 -8 -8 -7 -7 -7 -7 -7 -7 -7 -7 -7 -7 0 64 64 0 -7 -8 -8 -8 -8 -8 -8 -8 -8 -8 -8 -8 -8 -8 -8 -8 -8 -7 -5 9 55 91 91 55 9 -5 -7 -8 -8 -8 -8 -8 -8 -8 -8 -8 -8 -8 -8 -8 -8 -7 0 59 
78 92 87 14 -5 -7 -8 -8 -8 -8 -8 -8 -8 -8 -8 -8 -8 -8 -8 -8 -8 -8 -8 -8 -8 -8 -8 -8 -8 -8 -8 -8 -8 -8 -8 -8 -8 -8 -8 -8 -8 -8 -8 -8 -8 -8 -8 -8 -8 -8 -8 -8 -8 -8 -8 -8 -8 -8 -8 -8 -8 -7 0 59 59 0 -7 -8 -8 -8 -8 -8 -8 -8 -8 -8 -8 -8 -8 -8 -8 -8 -8 -8 -8 -6 0 10 55 92 86 14 0 -6 -7 -8 -8 -8 -8 -8 -8 -8 -8 -8 -8 -8 -8 -7 0 59 
136 88 14 -5 -8 -8 -8 -8 -8 -8 -8 -8 -8 -8 -8 -8 -8 -8 -8 -8 -8 -8 -8 -8 -8 -8 -8 -8 -8 -8 -8 -8 -8 -8 -8 -8 -8 -8 -8 -8 -8 -8 -8 -8 -8 -8 -8 -8 -8 -8 -8 -8 -8 -8 -8 -8 -8 -8 -8 -8 -8 -7 0 59 59 0 -7 -8 -8 -8 -8 -8 -8 -8 -8 -8 -8 -8 -8 -8 -8 -8 -8 -8 -8 -8 -7 -6 0 14 86 92 55 10 0 -6 -7 -8 -8 -8 -8 -8 -8 -8 -8 -8 -8 -7 0 61 
101 15 -5 -8 -8 -8 -8 -8 -8 -8 -8 -8 -8 -8 -8 -8 -8 -8 -8 -8 -8 -8 -8 -8 -8 -8 -8 -8 -8 -8 -8 -8 -8 -8 -8 -8 -8 -8 -8 -8 -8 -8 -8 -8 -8 -8 -8 -8 -8 -8 -8 -8 -8 -8 -8 -8 -8 -8 -8 -8 -8 -7 0 59 59 0 -7 -8 -8 -8 -8 -8 -8 -8 -8 -8 -8 -8 -8 -8 -8 -8 -8 -8 -8 -8 -8 -8 -7 -5 9 55 91 91 55 10 0 -6 -8 -8 -8 -8 -8 -8 -8 -8 -8 -7 0 61 
64 0 -7 -8 -8 -8 -8 -8 -8 -8 -8 -8 -8 -8 -8 -8 -8 -8 -8 -8 -8 -8 -8 -8 -8 -8 -8 -8 -8 -8 -8 -8 -8 -8 -8 -8 -8 -8 -8 -8 -8 -8 -8 -8 -8 -8 -8 -8 -8 -8 -8 -8 -8 -8 -8 -8 -8 -8 -8 -8 -8 -7 0 59 59 0 -7 -8 -8 -8 -8 -8 -8 -8 -8 -8 -8 -8 -8 -8 -8 -8 -8 -8 -8 -8 -8 -8 -8 -8 -6 0 10 55 91 91 55 9 -5 -7 -8 -8 -8 -8 -8 -8 -8 -7 0 59 
59 0 -7 -8 -8 -8 -8 -8 -8 -8 -8 -8 -8 -8 -8 -8 -8 -8 -8 -8 -8 -8 -8 -8 -8 -8 -8 -8 -8 -8 -8 -8 -8 -8 -8 -8 -8 -8 -8 -8 -8 -8 -8 -8 -8 -8 -8 -8 -8 -8 -8 -8 -8 -8 -8 -8 -8 -8 -8 -8 -8 -7 0 59 59 0 -7 -8 -8 -8 -8 -8 -8 -8 -8 -8 -8 -8 -8 -8 -8 -8 -8 -8 -8 -8 -8 -8 -8 -8 -8 -7 -6 0 10 55 92 86 14 0 -6 -7 -7 -7 -8 -8 -8 -7 0 59 
59 0 -7 -8 -8 -8 -8 -8 -8 -8 -8 -8 -8 -8 -8 -8 -8 -8 -8 -8 -8 -8 -8 -8 -8 -8 -8 -8 -8 -8 -8 -8 -8 -8 -8 -8 -8 -8 -8 -8 -8 -8 -8 -8 -8 -8 -8 -8 -8 -8 -8 -8 -8 -8 -8 -8 -8 -8 -8 -8 -8 -7 0 59 59 0 -7 -8 -8 -8 -8 -8 -8 -8 -8 -8 -8 -8 -8 -8 -8 -8 -8 -8 -8 -8 -8 -8 -8 -8 -8 -8 -8 -7 -6 0 15 86 92 56 10 0 0 -1 -6 -7 -7 -7 0 59 
59 0 -7 -8 -8 -8 -8 -8 -8 -8 -8 -8 -8 -8 -8 -8 -8 -8 -8 -8 -8 -8 -8 -8 -8 -8 -8 -8 -8 -8 -8 -8 -8 -8 -8 -8 -8 -8 -8 -8 -8 -8 -8 -8 -8 -8 -8 -8 -8 -8 -8 -8 -8 -8 -8 -8 -8 -8 -8 -8 -8 -7 0 59 59 0 -7 -8 -8 -8 -8 -8 -8 -8 -8 -8 -8 -8 -8 -8 -8 -8 -8 -8 -8 -8 -8 -8 -8 -8 -8 -8 -8 -8 -7 -7 -4 16 71 134 101 64 59 51 9 0 0 -1 0 59 
59 0 -7 -8 -8 -8 -8 -8 -8 -8 -8 -8 -8 -8 -8 -8 -8 -8 -8 -8 -8 -8 -8 -8 -8 -8 -8 -8 -8 -8 -8 -8 -8 -8 -8 -8 -8 -8 -8 -8 -8 -8 -8 -8 -8 -8 -8 -8 -8 -8 -8 -8 -8 -8 -8 -8 -8 -8 -8 -8 -8 -7 0 59 59 0 -7 -8 -8 -8 -8 -8 -8 -8 -8 -8 -8 -8 -8 -8 -8 -8 -8 -8 -8 -8 -8 -8 -8 -8 -8 -8 -7 -6 -1 0 10 56 97 96 65 60 63 92 92 63 59 51 17 66 
61 0 -7 -7 -7 -7 -7 -7 -7 -8 -8 -8 -8 -8 -8 -8 -8 -8 -8 -8 -8 -8 -8 -8 -8 -8 -8 -8 -8 -8 -8 -8 -8 -8 -8 -8 -8 -8 -8 -8 -8 -8 -8 -8 -8 -8 -8 -8 -8 -8 -8 -8 -8 -8 -8 -8 -8 -8 -8 -8 -8 -7 0 59 59 0 -7 -8 -8 -8 -8 -8 -8 -8 -8 -8 -8 -8 -8 -8 -8 -8 -8 -8 -8 -8 -8 -8 -8 -7 -7 -6 0 9 51 62 92 91 55 10 0 0 0 9 51 59 63 92 97 112 
66 6 0 0 0 0 0 0 -1 -6 -7 -7 -7 -7 -7 -7 -7 -8 -8 -8 -8 -8 -8 -8 -8 -8 -8 -8 -8 -8 -8 -8 -8 -8 -8 -8 -8 -8 -8 -8 -8 -8 -8 -8 -8 -8 -8 -8 -8 -8 -8 -8 -8 -8 -8 -8 -8 -8 -8 -8 -8 -7 0 59 59 0 -7 -8 -8 -8 -8 -8 -8 -8 -8 -8 -8 -8 -8 -8 -8 -8 -8 -8 -8 -8 -8 -7 -6 -1 0 10 55 91 92 62 51 9 0 -6 -7 -7 -7 -6 -1 0 0 10 57 108 
109 65 59 59 59 59 59 58 51 9 0 0 0 0 0 0 -1 -6 -7 -7 -7 -7 -7 -7 -7 -7 -8 -8 -8 -8 -8 -8 -8 -8 -8 -8 -8 -8 -8 -8 -8 -8 -8 -8 -8 -8 -8 -8 -8 -8 -8 -8 -8 -8 -8 -8 -8 -8 -8 -8 -8 -7 0 59 59 0 -7 -8 -8 -8 -8 -8 -8 -8 -8 -8 -8 -8 -8 -8 -8 -8 -8 -8 -7 -7 -6 0 9 51 62 92 91 55 10 0 -1 -6 -7 -8 -8 -8 -8 -8 -7 -7 -7 -6 5 66 
108 65 59 59 59 59 59 63 92 92 63 59 59 59 59 58 51 9 0 0 0 0 0 0 0 -1 -6 -7 -7 -7 -7 -7 -7 -7 -8 -8 -8 -8 -8 -8 -8 -8 -8 -8 -8 -8 -8 -8 -8 -8 -8 -8 -8 -8 -8 -8 -8 -8 -8 -8 -8 -7 0 59 59 0 -7 -8 -8 -8 -8 -8 -8 -8 -8 -8 -8 -8 -8 -8 -8 -8 -7 -6 -1 0 10 55 91 92 62 51 9 0 -6 -7 -7 -8 -8 -8 -8 -8 -8 -8 -8 -8 -8 -7 0 61 
65 6 0 0 0 0 0 0 9 51 58 59 59 59 59 63 92 92 63 59 59 59 59 59 58 51 9 0 0 0 0 0 0 -1 -6 -7 -7 -7 -7 -7 -7 -7 -7 -8 -8 -8 -8 -8 -8 -8 -8 -8 -8 -8 -8 -8 -8 -8 -8 -8 -8 -7 0 59 59 0 -7 -8 -8 -8 -8 -8 -8 -8 -8 -8 -8 -8 -8 -8 -7 -6 0 9 51 62 92 91 55 10 0 -1 -6 -7 -8 -8 -8 -8 -8 -8 -8 -8 -8 -8 -8 -8 -8 -7 0 59 
59 0 -7 -7 -7 -7 -7 -7 -6 -1 0 0 0 0 0 0 9 51 58 59 59 59 59 59 63 92 92 63 59 59 59 59 58 51 9 0 0 0 0 0 0 0 -1 -6 -7 -7 -7 -7 -7 -7 -7 -8 -8 -8 -8 -8 -8 -8 -8 -8 -8 -7 0 59 59 0 -7 -8 -8 -8 -8 -8 -8 -8 -8 -8 -8 -7 -7 -6 0 10 55 91 92 62 51 9 0 -6 -7 -7 -8 -8 -8 -8 -8 -8 -8 -8 -8 -8 -8 -8 -8 -8 -8 -7 0 59 
59 0 -7 -8 -8 -8 -8 -8 -8 -7 -7 -7 -7 -7 -7 -7 -6 -1 0 0 0 0 0 0 0 9 51 58 59 59 59 59 63 92 92 63 59 59 59 59 59 58 51 9 0 0 0 0 0 0 -1 -6 -7 -7 -7 -7 -7 -7 -7 -7 -8 -7 0 59 59 0 -7 -8 -8 -8 -8 -8 -8 -8 -8 -7 -6 -1 0 10 55 91 91 55 10 0 -1 -6 -7 -8 -8 -8 -8 -8 -8 -8 -8 -8 -8 -8 -8 -8 -8 -8 -8 -8 -8 -7 0 59 
59 0 -7 -8 -8 -8 -8 -8 -8 -8 -8 -8 -8 -8 -8 -8 -8 -7 -7 -7 -7 -7 -7 -7 -7 -6 -1 0 0 0 0 0 0 9 51 58 59 59 59 59 59 63 92 92 63 59 59 59 59 58 51 9 0 0 0 0 0 0 0 -1 -6 -7 0 59 59 0 -7 -8 -8 -8 -8 -8 -7 -7 -6 0 9 51 62 92 91 55 10 0 -6 -7 -7 -8 -8 -8 -8 -8 -8 -8 -8 -8 -8 -8 -8 -8 -8 -8 -8 -8 -8 -8 -8 -7 0 59 
59 0 -7 -8 -8 -8 -8 -8 -8 -8 -8 -8 -8 -8 -8 -8 -8 -8 -8 -8 -8 -8 -8 -8 -8 -8 -7 -7 -7 -7 -7 -7 -7 -6 -1 0 0 0 0 0 0 0 9 51 58 59 59 59 59 63 92 92 63 59 59 59 59 59 58 51 9 0 6 65 64 0 -7 -8 -8 -8 -7 -6 -1 0 10 55 91 92 62 51 9 0 -6 -7 -8 -8 -8 -8 -8 -8 -8 -8 -8 -8 -8 -8 -8 -8 -8 -8 -8 -8 -8 -8 -8 -8 -8 -7 0 59 
59 0 -7 -8 -8 -8 -8 -8 -8 -8 -8 -8 -8 -8 -8 -8 -8 -8 -8 -8 -8 -8 -8 -8 -8 -8 -8 -8 -8 -8 -8 -8 -8 -8 -7 -7 -7 -7 -7 -7 -7 -7 -6 -1 0 0 0 0 0 0 9 51 58 59 59 59 59 59 63 92 92 63 65 108 102 15 -5 -7 -7 -6 0 9 51 62 92 91 55 10 0 -1 -6 -7 -8 -8 -8 -8 -8 -8 -8 -8 -8 -8 -8 -8 -8 -8 -8 -8 -8 -8 -8 -8 -8 -8 -8 -8 -8 -7 0 59 
59 0 -7 -8 -8 -8 -8 -8 -8 -8 -8 -8 -8 -8 -8 -8 -8 -8 -8 -8 -8 -8 -8 -8 -8 -8 -8 -8 -8 -8 -8 -8 -8 -8 -8 -8 -8 -8 -8 -8 -8 -8 -8 -7 -7 -7 -7 -7 -7 -7 -6 -1 0 0 0 0 0 0 0 9 51 58 59 65 95 87 15 0 0 10 55 91 92 62 51 9 0 -6 -7 -7 -8 -8 -8 -8 -8 -8 -8 -8 -8 -8 -8 -8 -8 -8 -8 -8 -8 -8 -8 -8 -8 -8 -8 -8 -8 -8 -8 -7 0 59 
59 0 -7 -8 -8 -8 -8 -8 -8 -8 -8 -8 -8 -8 -8 -8 -8 -8 -8 -8 -8 -8 -8 -8 -8 -8 -8 -8 -8 -8 -8 -8 -8 -8 -8 -8 -8 -8 -8 -8 -8 -8 -8 -8 -8 -8 -8 -8 -8 -8 -8 -7 -7 -7 -7 -7 -7 -7 -7 -6 -1 0 0 0 15 87 95 66 63 92 91 55 10 0 -1 -6 -7 -8 -8 -8 -8 -8 -8 -8 -8 -8 -8 -8 -8 -8 -8 -8 -8 -8 -8 -8 -8 -8 -8 -8 -8 -8 -8 -8 -8 -8 -8 -7 0 59 
59 0 -7 -8 -8 -8 -8 -8 -8 -8 -8 -8 -8 -8 -8 -8 -8 -8 -8 -8 -8 -8 -8 -8 -8 -8 -8 -8 -8 -8 -8 -8 -8 -8 -8 -8 -8 -8 -8 -8 -8 -8 -8 -8 -8 -8 -8 -8 -8 -8 -8 -8 -8 -8 -8 -8 -8 -8 -8 -8 -7 -7 -7 -7 -5 15 102 108 64 51 9 0 -6 -7 -7 -8 -8 -8 -8 -8 -8 -8 -8 -8 -8 -8 -8 -8 -8 -8 -8 -8 -8 -8 -8 -8 -8 -8 -8 -8 -8 -8 -8 -8 -8 -8 -8 -7 0 59 
59 0 -7 -8 -8 -8 -8 -8 -8 -8 -8 -8 -8 -8 -8 -8 -8 -8 -8 -8 -8 -8 -8 -8 -8 -8 -8 -8 -8 -8 -8 -8 -8 -8 -8 -8 -8 -8 -8 -8 -8 -8 -8 -8 -8 -8 -8 -8 -8 -8 -8 -8 -8 -8 -8 -8 -8 -8 -8 -8 -8 -8 -8 -8 -7 0 64 65 6 -1 -6 -7 -8 -8 -8 -8 -8 -8 -8 -8 -8 -8 -8 -8 -8 -8 -8 -8 -8 -8 -8 -8 -8 -8 -8 -8 -8 -8 -8 -8 -8 -8 -8 -8 -8 -8 -8 -7 0 59 
59 0 -7 -8 -8 -8 -8 -8 -8 -8 -8 -8 -8 -8 -8 -8 -8 -8 -8 -8 -8 -8 -8 -8 -8 -8 -8 -8 -8 -8 -8 -8 -8 -8 -8 -8 -8 -8 -8 -8 -8 -8 -8 -8 -8 -8 -8 -8 -8 -8 -8 -8 -8 -8 -8 -8 -8 -8 -8 -8 -8 -8 -8 -8 -7 0 59 59 0 -7 -8 -8 -8 -8 -8 -8 -8 -8 -8 -8 -8 -8 -8 -8 -8 -8 -8 -8 -8 -8 -8 -8 -8 -8 -8 -8 -8 -8 -8 -8 -8 -8 -8 -8 -8 -8 -8 -7 0 59 
59 0 -7 -7 -7 -7 -7 -7 -7 -7 -7 -7 -7 -7 -7 -7 -7 -7 -7 -7 -7 -7 -7 -7 -7 -7 -7 -7 -7 -7 -7 -7 -7 -7 -7 -7 -7 -7 -7 -7 -7 -7 -7 -7 -7 -7 -7 -7 -7 -7 -7 -7 -7 -7 -7 -7 -7 -7 -7 -7 -7 -7 -7 -7 -7 0 59 59 0 -7 -7 -7 -7 -7 -7 -7 -7 -7 -7 -7 -7 -7 -7 -7 -7 -7 -7 -7 -7 -7 -7 -7 -7 -7 -7 -7 -7 -7 -7 -7 -7 -7 -7 -7 -7 -7 -7 -7 0 59 
65 6 0 0 0 0 0 0 0 0 0 0 0 0 0 0 0 0 0 0 0 0 0 0 0 0 0 0 0 0 0 0 0 0 0 0 0 0 0 0 0 0 0 0 0 0 0 0 0 0 0 0 0 0 0 0 0 0 0 0 0 0 0 0 0 6 65 65 6 0 0 0 0 0 0 0 0 0 0 0 0 0 0 0 0 0 0 0 0 0 0 0 0 0 0 0 0 0 0 0 0 0 0 0 0 0 0 0 6 65 
110 65 59 59 59 59 59 59 59 59 59 59 59 59 59 59 59 59 59 59 59 59 59 59 59 59 59 59 59 59 59 59 59 61 61 59 59 59 59 59 59 59 59 59 59 59 59 59 59 61 61 59 59 59 59 59 59 59 59 59 59 59 59 59 59 65 108 108 65 59 59 59 59 59 59 59 59 59 59 59 59 59 59 59 59 59 59 59 59 59 59 59 61 61 59 59 59 59 59 59 59 59 59 59 61 61 59 59 65 110 
