P2
110 110
255
153 126 106 98 96 95 95 95 95 95 95 95 95 95 95 95 95 95 95 95 95 95 95 95 95 95 95 96 96 99 106 121 138 140 124 108 100 97 96 95 95 95 95 95 95 96 98 104 120 139 139 119 104 98 96 95 95 95 95 95 95 95 95 96 97 99 103 103 99 97 96 95 95 95 95 95 95 95 95 95 95 95 95 95 95 95 95 96 97 103 115 134 141 127 109 100 97 96 95 96 97 101 113 132 142 128 113 111 127 153 
126 87 60 50 47 46 46 46 46 46 46 46 46 46 46 46 46 46 46 46 46 46 46 46 46 46 46 47 49 56 74 105 130 119 86 62 51 47 46 46 46 46 46 46 46 47 51 62 90 128 125 87 60 50 47 46 46 46 46 46 46 46 46 46 46 45 45 45 45 46 46 46 46 46 46 46 46 46 46 46 46 46 46 46 46 46 46 47 51 63 90 124 126 93 65 52 48 46 46 47 49 58 81 118 129 98 70 66 89 126 
106 60 29 18 14 14 13 13 13 13 13 13 13 13 13 13 13 13 13 13 13 13 13 13 13 13 14 15 20 34 63 102 113 80 44 24 17 14 14 13 13 13 13 13 14 15 20 35 71 116 108 60 29 18 14 14 13 13 13 13 13 13 13 13 13 13 13 13 13 13 13 13 13 13 13 13 13 13 13 13 13 13 13 13 13 13 14 16 22 41 79 114 97 55 28 18 14 14 14 14 18 30 60 105 108 66 36 34 61 106 
98 50 18 6 2 1 1 1 1 1 1 1 1 1 1 1 1 1 1 1 1 1 1 1 1 2 3 6 16 39 78 107 90 48 20 7 3 2 1 1 1 1 1 1 2 4 11 32 76 121 102 49 17 5 2 1 1 1 1 1 1 1 1 1 1 1 1 1 1 1 1 1 1 1 1 1 1 1 1 1 1 1 1 1 1 1 2 5 15 41 86 107 72 31 11 4 2 1 2 3 7 22 58 103 94 48 21 22 51 98 
96 47 14 2 0 -1 -1 -1 -1 -1 -1 -1 -1 -1 -1 -1 -1 -1 -1 -1 -1 -1 -1 -1 -1 0 1 8 26 62 100 99 61 25 7 1 0 -1 -1 -1 -1 -1 -1 -1 0 3 15 45 96 133 102 46 14 2 0 -1 -1 -1 -1 -1 -1 -1 -1 -1 -1 -1 -1 -1 -1 -1 -1 -1 -1 -1 -1 -1 -1 -1 -1 -1 -1 -1 -1 -1 -1 -1 0 4 18 53 98 97 52 18 4 0 -1 -1 -1 0 7 26 68 105 82 36 14 17 48 96 
95 46 14 1 -1 -2 -2 -2 -2 -2 -2 -2 -2 -2 -2 -2 -2 -2 -2 -2 -2 -2 -2 -2 -1 0 4 17 47 88 105 74 35 11 2 -1 -2 -2 -2 -2 -2 -2 -2 -1 0 7 26 67 118 140 103 46 13 2 -1 -2 -2 -2 -2 -2 -2 -2 -2 -2 -2 -2 -2 -2 -2 -2 -2 -2 -2 -2 -2 -2 -2 -2 -2 -2 -2 -2 -2 -2 -2 -1 0 7 28 70 105 83 37 11 1 -1 -2 -2 -1 0 9 35 81 105 67 26 10 16 47 96 
95 46 13 1 -1 -2 -2 -2 -2 -2 -2 -2 -2 -2 -2 -2 -2 -2 -2 -2 -2 -2 -2 -2 -1 2 11 35 74 105 88 47 17 4 0 -1 -2 -2 -2 -2 -2 -2 -2 0 3 15 44 91 129 138 104 49 15 2 -1 -2 -2 -2 -2 -2 -2 -2 -2 -2 -2 -2 -2 -2 -2 -2 -2 -2 -2 -2 -2 -2 -2 -2 -2 -2 -2 -2 -2 -2 -2 -1 2 14 44 89 103 64 24 5 0 -1 -2 -2 -1 1 13 44 92 100 54 19 7 15 46 95 
95 46 13 1 -1 -2 -2 -2 -2 -2 -2 -2 -2 -2 -2 -2 -2 -2 -2 -2 -2 -2 -2 -1 0 7 25 61 99 99 61 25 7 0 -1 -2 -2 -2 -2 -2 -2 -2 -1 0 8 28 67 109 123 126 107 56 18 3 -1 -2 -2 -2 -2 -2 -2 -2 -2 -2 -2 -2 -2 -2 -2 -2 -2 -2 -2 -2 -2 -2 -2 -2 -2 -2 -2 -2 -2 -2 -1 0 5 24 64 103 89 44 14 2 -1 -2 -2 -2 -1 3 18 54 100 92 44 14 6 14 46 95 
95 46 13 1 -1 -2 -2 -2 -2 -2 -2 -2 -2 -2 -2 -2 -2 -2 -2 -2 -2 -2 -2 0 4 17 47 88 105 74 35 11 2 -1 -2 -2 -2 -2 -2 -2 -2 -2 0 4 18 48 91 111 100 106 110 67 25 5 0 -2 -2 -2 -2 -2 -2 -2 -2 -2 -2 -2 -2 -2 -2 -2 -2 -2 -2 -2 -2 -2 -2 -2 -2 -2 -2 -2 -2 -2 -1 1 10 37 82 105 70 28 7 0 -1 -2 -2 -2 0 6 25 67 105 81 35 10 4 14 46 95 
95 46 13 1 -1 -2 -2 -2 -2 -2 -2 -2 -2 -2 -2 -2 -2 -2 -2 -2 -2 -2 -1 2 11 35 74 105 88 47 17 4 0 -2 -2 -2 -2 -2 -2 -2 -2 -1 1 11 35 75 106 94 71 84 108 80 34 9 0 -1 -2 -2 -2 -2 -2 -2 -2 -2 -2 -2 -2 -2 -2 -2 -2 -2 -2 -2 -2 -2 -2 -2 -2 -2 -2 -2 -2 -2 0 3 17 52 97 97 52 17 3 0 -2 -2 -2 -1 0 9 35 81 105 67 25 7 3 14 46 95 
96 46 14 1 -1 -2 -2 -2 -2 -2 -2 -2 -2 -2 -2 -2 -2 -2 -2 -2 -2 -1 0 7 25 61 99 99 61 25 7 0 -1 -2 -2 -2 -2 -2 -2 -2 -1 0 6 24 60 99 100 66 46 65 103 89 40 11 1 -1 -2 -2 -2 -2 -2 -2 -2 -2 -2 -2 -2 -2 -2 -2 -2 -2 -2 -2 -2 -2 -2 -2 -2 -2 -2 -2 -2 -1 0 7 28 70 105 82 37 10 1 -1 -2 -2 -2 -1 1 13 44 92 100 54 18 4 3 14 46 95 
97 47 14 2 -1 -2 -2 -2 -2 -2 -2 -2 -2 -2 -2 -2 -2 -2 -2 -2 -2 0 4 17 47 88 105 74 35 11 2 -1 -2 -2 -2 -2 -2 -2 -2 -2 -1 2 14 43 86 105 76 40 29 54 98 93 44 13 1 -1 -2 -2 -2 -2 -2 -2 -2 -2 -2 -2 -2 -2 -2 -2 -2 -2 -2 -2 -2 -2 -2 -2 -2 -2 -2 -2 -2 -1 2 14 44 89 103 64 24 5 0 -1 -2 -2 -2 -1 3 18 54 100 92 44 13 2 2 14 46 96 
100 51 16 3 -1 -2 -2 -2 -2 -2 -2 -2 -2 -2 -2 -2 -2 -2 -2 -2 -1 2 11 35 74 105 88 47 17 4 0 -2 -2 -2 -2 -2 -2 -2 -2 -1 0 7 27 66 103 91 49 22 20 48 96 95 47 14 1 -1 -2 -2 -2 -2 -2 -2 -2 -2 -2 -2 -2 -2 -2 -2 -2 -2 -2 -2 -2 -2 -2 -2 -2 -2 -2 -2 -1 0 5 24 64 103 89 44 14 2 -1 -2 -2 -2 -2 0 6 25 67 105 81 35 9 1 2 13 46 96 
108 62 23 6 0 -1 -2 -2 -2 -2 -2 -2 -2 -2 -2 -2 -2 -2 -2 -1 0 7 25 61 99 99 61 25 7 0 -1 -2 -2 -2 -2 -2 -2 -2 -2 -1 3 15 45 89 104 68 29 12 16 45 93 97 50 15 2 -1 -2 -2 -2 -2 -2 -2 -2 -2 -2 -2 -2 -2 -2 -2 -2 -2 -2 -2 -2 -2 -2 -2 -2 -2 -2 -2 -1 1 10 37 82 105 70 28 7 0 -1 -2 -2 -2 -1 0 9 35 81 105 67 25 6 0 2 13 46 98 
124 85 41 15 4 0 -1 -2 -2 -2 -2 -2 -2 -2 -2 -2 -2 -2 -2 0 4 17 47 88 105 74 35 11 2 -1 -2 -2 -2 -2 -2 -2 -2 -2 -1 0 8 28 67 104 89 45 16 6 13 41 89 101 56 19 3 -1 -2 -2 -2 -2 -2 -2 -2 -2 -2 -2 -2 -2 -2 -2 -2 -2 -2 -2 -2 -2 -2 -2 -2 -2 -2 -2 0 3 17 52 97 97 52 17 3 0 -2 -2 -2 -2 -1 1 13 44 92 100 54 18 3 0 1 13 45 101 
139 116 72 35 13 3 0 -2 -2 -2 -2 -2 -2 -2 -2 -2 -2 -2 -1 2 11 35 74 105 88 47 17 4 0 -2 -2 -2 -2 -2 -2 -2 -2 -2 0 4 18 48 91 103 66 27 8 3 9 34 80 105 67 25 6 0 -2 -2 -2 -2 -2 -2 -2 -2 -2 -2 -2 -2 -2 -2 -2 -2 -2 -2 -2 -2 -2 -2 -2 -2 -2 -1 0 7 28 70 105 82 37 10 1 -1 -2 -2 -2 -2 -1 3 18 54 100 92 44 13 2 0 1 13 45 103 
138 131 106 67 32 10 1 -1 -2 -2 -2 -2 -2 -2 -2 -2 -2 -1 0 7 25 61 99 99 61 25 7 0 -1 -2 -2 -2 -2 -2 -2 -2 -2 -1 1 11 35 75 105 86 43 14 3 0 6 25 67 105 80 34 9 0 -1 -2 -2 -2 -2 -2 -2 -2 -2 -2 -2 -2 -2 -2 -2 -2 -2 -2 -2 -2 -2 -2 -2 -2 -2 -1 2 14 44 89 103 64 24 5 0 -1 -2 -2 -2 -2 0 6 25 67 105 81 35 9 0 0 1 13 45 102 
124 114 113 99 59 25 7 0 -1 -2 -2 -2 -2 -2 -2 -2 -2 0 4 17 47 88 105 74 35 11 2 -1 -2 -2 -2 -2 -2 -2 -2 -2 -1 0 6 24 60 99 99 60 24 6 0 0 3 19 56 101 89 40 11 1 -1 -2 -2 -2 -2 -2 -2 -2 -2 -2 -2 -2 -2 -2 -2 -2 -2 -2 -2 -2 -2 -2 -2 -2 -1 0 5 24 64 103 89 44 14 2 -1 -2 -2 -2 -2 -1 0 9 35 81 105 67 25 6 0 -1 1 13 45 99 
110 87 92 108 88 48 18 5 0 -1 -2 -2 -2 -2 -2 -2 -1 2 11 35 74 105 88 47 17 4 0 -2 -2 -2 -2 -2 -2 -2 -2 -2 -1 2 14 43 86 105 75 35 11 1 -1 -1 2 15 50 97 93 44 13 1 -1 -2 -2 -2 -2 -2 -2 -2 -2 -2 -2 -2 -2 -2 -2 -2 -2 -2 -2 -2 -2 -2 -2 -2 -1 1 10 37 82 105 70 28 7 0 -1 -2 -2 -2 -2 -1 1 13 44 92 100 54 18 3 0 -1 1 13 46 97 
102 67 63 92 105 77 39 15 4 0 -1 -2 -2 -2 -2 -1 0 7 25 61 99 99 61 25 7 0 -1 -2 -2 -2 -2 -2 -2 -2 -2 -1 0 7 27 66 103 91 48 18 4 0 -1 -1 1 14 47 95 95 47 14 1 -1 -2 -2 -2 -2 -2 -2 -2 -2 -2 -2 -2 -2 -2 -2 -2 -2 -2 -2 -2 -2 -2 -2 -2 0 3 17 52 97 97 52 17 3 0 -2 -2 -2 -2 -2 -1 3 18 54 100 92 44 13 1 -1 -1 1 13 46 96 
98 56 41 64 98 102 72 37 14 4 0 -1 -2 -2 -1 0 4 17 47 88 105 74 35 11 2 -1 -2 -2 -2 -2 -2 -2 -2 -2 -2 -1 3 15 45 89 104 67 28 8 0 -1 -2 -1 1 13 44 93 97 50 15 2 -1 -2 -2 -2 -2 -2 -2 -2 -2 -2 -2 -2 -2 -2 -2 -2 -2 -2 -2 -2 -2 -2 -2 -1 0 7 28 70 105 82 37 10 1 -1 -2 -2 -2 -2 -2 0 6 25 67 105 81 35 9 0 -1 -1 1 13 46 96 
96 50 27 36 68 100 101 70 36 14 4 0 -1 -1 -1 2 11 35 74 105 88 47 17 4 0 -2 -2 -2 -2 -2 -2 -2 -2 -2 -1 0 8 28 67 104 89 45 15 3 -1 -2 -2 -1 1 11 40 89 101 56 19 3 -1 -2 -2 -2 -2 -2 -2 -2 -2 -2 -2 -2 -2 -2 -2 -2 -2 -2 -2 -2 -2 -2 -2 -1 2 14 44 89 103 64 24 5 0 -1 -2 -2 -2 -2 -1 0 9 35 81 105 67 25 6 0 -1 -1 1 13 46 95 
96 48 19 17 36 70 101 101 70 36 14 4 0 -1 0 7 25 61 99 99 61 25 7 0 -1 -2 -2 -2 -2 -2 -2 -2 -2 -2 0 4 18 48 91 103 66 27 7 0 -1 -2 -2 -1 0 9 34 80 105 67 25 6 0 -2 -2 -2 -2 -2 -2 -2 -2 -2 -2 -2 -2 -2 -2 -2 -2 -2 -2 -2 -2 -2 -1 0 5 24 64 103 89 44 14 2 -1 -2 -2 -2 -2 -2 -1 1 13 44 92 100 54 18 3 -1 -1 -1 1 13 46 95 
95 47 15 8 15 36 70 101 101 70 36 14 4 1 4 17 47 88 105 74 35 11 2 -1 -2 -2 -2 -2 -2 -2 -2 -2 -2 -1 1 11 35 75 105 86 43 14 2 -1 -2 -2 -2 -2 0 6 25 67 105 80 34 9 0 -1 -2 -2 -2 -2 -2 -2 -2 -2 -2 -2 -2 -2 -2 -2 -2 -2 -2 -2 -2 -2 -1 1 10 37 82 105 70 28 7 0 -1 -2 -2 -2 -2 -2 -1 3 18 54 100 92 44 13 1 -1 -2 -1 1 13 46 95 
95 46 14 4 5 14 36 70 101 101 70 37 16 8 14 36 75 105 88 47 17 4 0 -2 -2 -2 -2 -2 -2 -2 -2 -2 -1 0 6 24 60 99 99 60 24 6 0 -1 -2 -2 -2 -2 -1 3 19 56 101 89 41 11 1 -1 -2 -2 -2 -2 -2 -2 -2 -2 -2 -2 -2 -2 -2 -2 -2 -2 -2 -2 -2 -2 0 3 17 52 97 97 52 17 3 0 -2 -2 -2 -2 -2 -2 0 6 25 67 105 81 35 9 0 -1 -2 -1 1 13 46 95 
95 46 14 2 0 4 14 36 70 101 101 71 39 24 32 63 99 99 61 25 7 0 -1 -2 -2 -2 -2 -2 -2 -2 -2 -2 -1 2 14 43 86 105 75 35 11 1 -1 -2 -2 -2 -2 -2 -1 2 15 49 97 94 45 13 1 -1 -2 -2 -2 -2 -2 -2 -2 -2 -2 -2 -2 -2 -2 -2 -2 -2 -2 -2 -2 -1 0 7 28 70 105 82 37 10 1 -1 -2 -2 -2 -2 -2 -1 0 9 35 81 105 67 25 6 0 -1 -2 -1 1 13 46 95 
95 46 13 2 0 0 4 14 36 70 101 102 76 56 63 93 105 74 35 11 2 -1 -2 -2 -2 -2 -2 -2 -2 -2 -2 -1 0 7 27 66 103 91 48 18 4 0 -2 -2 -2 -2 -2 -2 -1 1 13 45 94 97 49 15 2 -1 -2 -2 -2 -2 -2 -2 -2 -2 -2 -2 -2 -2 -2 -2 -2 -2 -2 -2 -2 -1 2 14 44 89 103 64 24 5 0 -1 -2 -2 -2 -2 -2 -1 1 13 44 92 100 54 18 3 -1 -2 -2 -1 1 13 46 95 
95 46 13 1 -1 -1 0 4 14 36 70 103 110 101 105 113 89 47 17 4 0 -2 -2 -2 -2 -2 -2 -2 -2 -2 -2 -1 3 15 45 89 104 67 28 8 0 -1 -2 -2 -2 -2 -2 -2 -1 1 11 41 89 101 56 19 3 -1 -2 -2 -2 -2 -2 -2 -2 -2 -2 -2 -2 -2 -2 -2 -2 -2 -2 -2 -1 0 5 24 64 103 89 44 14 2 -1 -2 -2 -2 -2 -2 -2 -1 3 18 54 100 92 44 13 1 -1 -2 -2 -1 1 13 46 95 
95 46 13 1 -1 -2 -1 0 4 14 37 73 111 135 135 107 62 25 7 0 -1 -2 -2 -2 -2 -2 -2 -2 -2 -2 -1 0 8 28 67 104 89 45 15 3 -1 -2 -2 -2 -2 -2 -2 -2 -1 0 9 34 80 105 67 25 6 0 -2 -2 -2 -2 -2 -2 -2 -2 -2 -2 -2 -2 -2 -2 -2 -2 -2 -2 -1 1 10 37 82 105 70 28 7 0 -1 -2 -2 -2 -2 -2 -2 0 6 25 67 105 81 35 9 0 -1 -2 -2 -1 1 13 46 95 
95 46 13 1 -1 -2 -2 -1 0 4 16 41 85 130 131 83 37 12 2 -1 -2 -2 -2 -2 -2 -2 -2 -2 -2 -2 0 4 18 48 91 103 66 27 7 0 -1 -2 -2 -2 -2 -2 -2 -2 -2 0 6 25 67 105 80 34 9 0 -1 -2 -2 -2 -2 -2 -2 -2 -2 -2 -2 -2 -2 -2 -2 -2 -2 -2 0 3 17 52 97 97 52 17 3 0 -2 -2 -2 -2 -2 -2 -1 0 9 35 81 105 67 25 6 0 -2 -2 -2 -1 1 13 46 95 
95 46 13 1 -1 -2 -2 -2 -1 0 6 23 60 110 114 64 24 6 0 -1 -2 -2 -2 -2 -2 -2 -2 -2 -2 -1 1 11 35 75 105 86 43 14 2 -1 -2 -2 -2 -2 -2 -2 -2 -2 -2 -1 3 19 56 101 89 40 11 1 -1 -2 -2 -2 -2 -2 -2 -2 -2 -2 -2 -2 -2 -2 -2 -2 -2 -1 0 7 28 70 105 82 37 10 1 -1 -2 -2 -2 -2 -2 -2 -1 1 13 44 92 100 54 18 3 -1 -2 -2 -2 -1 1 13 46 95 
95 46 13 1 -1 -2 -2 -2 -2 -1 2 14 45 95 107 61 21 4 0 -2 -2 -2 -2 -2 -2 -2 -2 -2 -1 0 6 24 60 99 99 60 24 6 0 -1 -2 -2 -2 -2 -2 -2 -2 -2 -2 -1 2 15 50 97 93 44 13 1 -1 -2 -2 -2 -2 -2 -2 -2 -2 -2 -2 -2 -2 -2 -2 -2 -2 -1 2 14 44 89 103 64 24 5 0 -1 -2 -2 -2 -2 -2 -2 -1 3 18 54 100 92 44 13 1 -1 -2 -2 -2 -1 1 13 46 95 
95 46 13 1 -1 -2 -2 -2 -2 -1 0 9 35 82 106 69 26 6 0 -1 -2 -2 -2 -2 -2 -2 -2 -2 -1 2 14 43 86 105 75 35 11 1 -1 -2 -2 -2 -2 -2 -2 -2 -2 -2 -2 -1 1 14 47 95 95 47 14 1 -1 -2 -2 -2 -2 -2 -2 -2 -2 -2 -2 -2 -2 -2 -2 -2 -1 0 5 24 64 103 89 44 14 2 -1 -2 -2 -2 -2 -2 -2 -2 0 6 25 67 105 81 35 9 0 -1 -2 -2 -2 -1 1 13 46 95 
95 46 13 1 -1 -2 -2 -2 -2 -1 0 6 25 68 105 81 34 9 0 -1 -2 -2 -2 -2 -2 -2 -2 -1 0 7 27 66 103 91 48 18 4 0 -2 -2 -2 -2 -2 -2 -2 -2 -2 -2 -2 -1 1 13 44 93 97 50 15 2 -1 -2 -2 -2 -2 -2 -2 -2 -2 -2 -2 -2 -2 -2 -2 -2 -1 1 10 37 82 105 70 28 7 0 -1 -2 -2 -2 -2 -2 -2 -1 0 9 35 81 105 67 25 6 0 -2 -2 -2 -2 -1 1 13 46 96 
96 46 13 1 -1 -2 -2 -2 -2 -2 -1 3 18 56 101 90 41 12 1 -1 -2 -2 -2 -2 -2 -2 -2 -1 3 15 45 89 104 67 28 8 0 -1 -2 -2 -2 -2 -2 -2 -2 -2 -2 -2 -2 -1 1 11 40 89 101 56 19 3 -1 -2 -2 -2 -2 -2 -2 -2 -2 -2 -2 -2 -2 -2 -2 -2 0 3 17 52 97 97 52 17 3 0 -2 -2 -2 -2 -2 -2 -2 -1 1 13 44 92 100 54 18 3 -1 -2 -2 -2 -2 -1 2 14 47 96 
96 46 13 1 -1 -2 -2 -2 -2 -2 -1 2 14 48 96 96 48 14 2 -1 -2 -2 -2 -2 -2 -2 -1 0 8 28 67 104 89 45 15 3 -1 -2 -2 -2 -2 -2 -2 -2 -2 -2 -2 -2 -2 -1 0 9 34 80 105 67 25 6 0 -2 -2 -2 -2 -2 -2 -2 -2 -2 -2 -2 -2 -2 -2 -1 0 7 28 70 105 82 37 10 1 -1 -2 -2 -2 -2 -2 -2 -2 -1 3 18 54 100 92 44 13 1 -1 -2 -2 -2 -2 -1 2 15 50 99 
97 46 13 1 -1 -2 -2 -2 -2 -2 -1 1 12 41 90 101 56 18 3 -1 -2 -2 -2 -2 -2 -2 0 4 18 48 91 103 66 27 7 0 -1 -2 -2 -2 -2 -2 -2 -2 -2 -2 -2 -2 -2 -2 0 6 25 67 105 80 34 9 0 -1 -2 -2 -2 -2 -2 -2 -2 -2 -2 -2 -2 -2 -2 -1 2 14 44 89 103 64 24 5 0 -1 -2 -2 -2 -2 -2 -2 -2 0 6 25 67 105 81 35 9 0 -1 -2 -2 -2 -2 0 4 19 57 106 
99 45 13 1 -1 -2 -2 -2 -2 -2 -1 0 9 34 80 105 67 25 6 0 -2 -2 -2 -2 -2 -1 1 11 35 75 105 86 43 14 2 -1 -2 -2 -2 -2 -2 -2 -2 -2 -2 -2 -2 -2 -2 -2 -1 3 19 56 101 89 40 11 1 -1 -2 -2 -2 -2 -2 -2 -2 -2 -2 -2 -2 -2 -1 0 5 24 64 103 89 44 14 2 -1 -2 -2 -2 -2 -2 -2 -2 -1 0 9 35 81 105 67 25 6 0 -2 -2 -2 -2 -1 0 8 29 73 118 
102 45 13 1 -1 -2 -2 -2 -2 -2 -2 0 6 25 67 105 80 34 9 0 -1 -2 -2 -2 -1 0 6 24 60 99 99 60 24 6 0 -1 -2 -2 -2 -2 -2 -2 -2 -2 -2 -2 -2 -2 -2 -2 -1 2 15 50 97 93 44 13 1 -1 -2 -2 -2 -2 -2 -2 -2 -2 -2 -2 -2 -2 -1 1 10 37 82 105 70 28 7 0 -1 -2 -2 -2 -2 -2 -2 -2 -1 1 13 44 92 100 54 18 3 -1 -2 -2 -2 -1 0 4 17 48 97 133 
102 45 13 1 -1 -2 -2 -2 -2 -2 -2 -1 3 18 56 101 90 41 12 1 -1 -2 -2 -2 -1 2 14 43 86 105 75 35 11 1 -1 -2 -2 -2 -2 -2 -2 -2 -2 -2 -2 -2 -2 -2 -2 -2 -1 1 14 47 95 95 47 14 1 -1 -2 -2 -2 -2 -2 -2 -2 -2 -2 -2 -2 -2 0 3 17 52 97 97 52 17 3 0 -2 -2 -2 -2 -2 -2 -2 -2 -1 3 18 54 100 92 44 13 1 -1 -2 -2 -2 -1 1 11 34 76 122 141 
101 45 13 1 -1 -2 -2 -2 -2 -2 -2 -1 2 14 48 96 96 48 14 2 -1 -2 -2 -1 0 7 27 66 103 91 48 18 4 0 -2 -2 -2 -2 -2 -2 -2 -2 -2 -2 -2 -2 -2 -2 -2 -2 -1 1 13 44 93 97 50 15 2 -1 -2 -2 -2 -2 -2 -2 -2 -2 -2 -2 -2 -1 0 7 28 70 105 82 37 10 1 -1 -2 -2 -2 -2 -2 -2 -2 -2 0 6 25 67 105 81 35 9 0 -1 -2 -2 -1 0 7 25 61 104 131 136 
99 46 13 1 -1 -2 -2 -2 -2 -2 -2 -1 1 12 41 90 101 56 18 3 -1 -2 -2 -1 3 15 45 89 104 67 28 8 0 -1 -2 -2 -2 -2 -2 -2 -2 -2 -2 -2 -2 -2 -2 -2 -2 -2 -1 1 11 40 89 101 56 19 3 0 -2 -2 -2 -2 -2 -2 -2 -2 -2 -2 -2 -1 2 14 44 89 103 64 24 5 0 -1 -2 -2 -2 -2 -2 -2 -2 -1 0 9 35 81 105 67 25 6 0 -1 -2 -1 0 4 17 47 89 115 117 123 
97 46 13 1 -1 -2 -2 -2 -2 -2 -2 -1 0 9 34 80 105 67 25 6 0 -1 -1 0 8 28 67 104 89 45 15 3 -1 -2 -2 -2 -2 -2 -2 -2 -2 -2 -2 -2 -2 -2 -2 -2 -2 -2 -1 0 9 34 80 105 68 26 6 0 -1 -1 -2 -2 -2 -2 -2 -2 -2 -2 -1 0 5 24 64 103 89 44 14 2 -1 -2 -2 -2 -2 -2 -2 -2 -2 -1 1 13 44 92 100 54 18 3 -1 -2 -2 -1 2 11 35 74 107 102 93 111 
96 46 13 1 -1 -2 -2 -2 -2 -2 -2 -2 0 6 25 67 105 80 34 9 0 -1 0 4 18 48 91 103 66 27 7 0 -1 -2 -2 -2 -2 -2 -2 -2 -2 -2 -2 -2 -2 -2 -2 -2 -2 -2 -1 0 6 26 69 107 83 37 13 4 1 0 0 0 -1 -1 -1 -1 -1 -1 -1 1 11 37 83 105 70 28 7 0 -1 -2 -2 -2 -2 -2 -2 -2 -2 -1 3 18 54 100 92 44 13 1 -1 -2 -1 0 7 25 61 99 102 76 73 103 
96 46 13 1 -1 -2 -2 -2 -2 -2 -2 -2 -1 3 18 56 101 90 41 12 1 0 2 11 35 75 105 86 43 14 2 -1 -2 -2 -2 -2 -2 -2 -2 -2 -2 -2 -2 -2 -2 -2 -2 -2 -2 -2 -1 0 5 23 62 108 99 55 27 16 12 9 6 3 2 1 1 1 0 0 0 4 18 52 97 97 52 17 3 0 -2 -2 -2 -2 -2 -2 -2 -2 -2 0 6 25 67 105 81 35 9 0 -1 -1 0 4 17 47 88 105 78 51 60 99 
95 46 13 1 -1 -2 -2 -2 -2 -2 -2 -2 -1 2 14 48 96 96 48 15 2 1 6 24 60 99 99 60 24 6 0 -1 -2 -2 -2 -2 -2 -2 -2 -2 -2 -2 -2 -2 -2 -2 -2 -2 -2 -1 0 2 10 29 69 118 121 85 59 48 41 34 25 19 15 14 13 11 9 6 6 12 31 72 105 83 37 10 1 -1 -2 -2 -2 -2 -2 -2 -2 -2 -1 0 9 35 81 105 67 25 6 0 -1 -1 2 11 35 74 105 89 51 33 53 97 
95 46 13 1 -1 -2 -2 -2 -2 -2 -2 -2 -1 1 12 41 90 101 56 19 4 4 15 43 86 105 75 35 11 1 -1 -2 -2 -2 -2 -2 -2 -2 -2 -2 -2 -2 -2 -2 -2 -2 -2 -2 -1 0 4 12 27 53 93 133 140 120 104 96 90 80 67 56 50 47 44 40 34 26 23 30 55 95 105 64 24 6 0 -1 -2 -2 -2 -2 -2 -2 -2 -2 -1 1 13 44 92 100 54 18 3 0 -1 0 7 25 61 99 99 62 29 23 49 96 
95 46 13 1 -1 -2 -2 -2 -2 -2 -2 -2 -1 0 9 34 80 105 67 26 8 9 27 66 103 91 48 18 4 0 -2 -2 -2 -2 -2 -2 -2 -2 -2 -2 -2 -2 -2 -2 -2 -2 -1 0 2 7 17 35 62 91 115 122 115 104 99 98 101 105 105 101 97 95 93 89 80 69 62 69 94 117 95 46 15 2 -1 -2 -2 -2 -2 -2 -2 -2 -2 -2 -1 3 18 54 100 92 44 13 1 -1 0 4 17 47 88 105 75 36 16 18 47 96 
95 46 13 1 -1 -2 -2 -2 -2 -2 -2 -2 -2 0 6 25 67 105 81 35 14 18 46 89 104 67 28 8 0 -1 -2 -2 -2 -2 -2 -2 -2 -2 -2 -2 -2 -2 -2 -2 -2 -1 0 4 11 25 47 74 99 106 94 73 58 50 48 50 56 67 80 89 93 95 97 101 105 106 107 116 134 131 84 35 10 1 -1 -2 -2 -2 -2 -2 -2 -2 -2 -1 0 6 25 67 105 81 35 9 0 0 2 11 35 74 105 88 47 18 8 15 47 95 
95 46 13 1 -1 -2 -2 -2 -2 -2 -2 -2 -2 -1 3 18 56 101 90 44 22 32 68 104 89 45 15 3 -1 -2 -2 -2 -2 -2 -2 -2 -2 -2 -2 -2 -2 -2 -2 -1 0 1 7 17 35 61 88 105 99 75 49 30 19 15 14 15 19 25 34 40 44 47 50 56 68 82 95 112 133 131 85 37 11 1 -1 -1 -2 -2 -2 -2 -2 -2 -2 -1 0 9 35 81 105 67 25 6 0 0 7 25 61 99 99 61 25 8 4 14 46 95 
95 46 13 1 -1 -2 -2 -2 -2 -2 -2 -2 -2 -1 2 14 48 96 97 54 35 53 92 103 66 27 7 0 -1 -2 -2 -2 -2 -2 -2 -2 -2 -2 -2 -2 -2 -2 -1 0 3 11 25 47 74 99 105 88 61 35 18 8 4 2 2 2 3 6 9 11 13 14 15 19 26 35 46 63 92 117 98 52 21 6 1 0 -1 -1 -1 -1 -1 -1 -1 0 2 14 45 92 100 54 18 4 0 4 17 47 88 105 74 35 11 2 3 14 46 95 
95 46 13 1 -1 -2 -2 -2 -2 -2 -2 -2 -2 -1 1 12 41 90 104 69 56 80 106 87 43 14 2 -1 -2 -2 -2 -2 -2 -2 -2 -2 -2 -2 -2 -2 -1 -1 0 4 14 32 60 88 105 99 74 47 25 11 4 0 0 -1 -1 -1 -1 0 0 1 1 1 2 3 6 10 15 27 53 92 108 80 42 20 9 4 2 2 1 1 1 1 2 3 7 22 57 101 93 45 14 3 3 12 35 74 105 88 47 17 4 0 2 13 46 95 
95 46 13 1 -1 -2 -2 -2 -2 -2 -2 -2 -2 -1 0 9 34 81 111 93 87 105 100 60 24 6 0 -1 -2 -2 -2 -2 -2 -2 -2 -2 -2 -2 -2 -1 0 2 7 18 38 69 97 105 89 61 35 17 7 2 0 -1 -2 -2 -2 -2 -2 -2 -1 -1 -1 -1 -1 0 0 1 3 9 27 62 103 110 81 50 30 20 15 14 13 13 13 13 14 15 21 39 78 112 87 39 12 4 8 26 61 99 99 61 25 7 0 0 1 13 46 95 
95 46 13 1 -1 -2 -2 -2 -2 -2 -2 -2 -2 -2 0 5 25 67 113 119 117 110 75 35 11 1 -1 -2 -2 -2 -2 -2 -2 -2 -2 -2 -2 -2 -1 0 4 11 25 48 77 102 102 77 48 25 11 4 0 -1 -1 -2 -2 -2 -2 -2 -2 -2 -2 -2 -2 -2 -2 -2 -1 -1 0 2 12 37 82 124 125 98 73 58 50 47 46 46 46 46 47 49 56 75 110 125 87 41 17 11 20 48 89 105 74 35 11 2 -1 -1 1 13 46 95 
95 46 13 1 -1 -2 -2 -2 -2 -2 -2 -2 -2 -2 -1 3 18 55 110 137 128 93 48 17 4 0 -2 -2 -2 -2 -2 -2 -2 -2 -2 -2 -1 0 1 7 17 35 61 89 105 97 69 38 18 7 2 0 -1 -2 -2 -2 -2 -2 -2 -2 -2 -2 -2 -2 -2 -2 -2 -2 -2 -2 -1 0 6 24 65 120 142 128 112 103 98 96 96 95 95 95 96 97 103 116 137 138 102 61 36 29 43 78 106 89 47 17 4 0 -1 -1 1 13 46 95 
95 46 13 1 -1 -2 -2 -2 -2 -2 -2 -2 -2 -2 -1 2 15 48 106 141 118 67 27 8 0 -1 -2 -2 -2 -2 -2 -2 -2 -2 -1 -1 0 4 11 25 47 74 99 105 88 60 32 14 4 0 -1 -1 -2 -2 -2 -2 -2 -2 -2 -2 -2 -2 -2 -2 -2 -2 -2 -2 -2 -2 -2 0 4 21 61 113 123 101 92 92 94 95 95 95 95 95 95 96 98 103 114 123 117 97 76 67 82 108 103 62 26 7 0 -1 -2 -1 1 13 46 95 
95 46 13 1 -1 -2 -2 -2 -2 -2 -2 -2 -2 -2 -1 1 13 46 103 133 95 44 15 2 -1 -2 -2 -2 -2 -2 -2 -2 -1 -1 0 1 7 17 34 61 89 105 100 75 47 25 11 3 0 -1 -2 -2 -2 -2 -2 -2 -2 -2 -2 -2 -2 -2 -2 -2 -2 -2 -2 -2 -2 -2 -1 0 6 26 69 110 95 60 45 43 45 46 46 46 46 46 46 46 47 50 57 73 92 106 111 114 125 124 85 40 13 2 -1 -2 -2 -1 1 13 46 95 
95 46 13 1 -1 -2 -2 -2 -2 -2 -2 -2 -2 -2 -1 1 13 46 100 118 72 28 7 0 -1 -2 -2 -2 -2 -2 -1 -1 0 1 4 11 24 46 75 102 109 92 65 38 19 8 2 0 -1 -1 -2 -2 -2 -2 -2 -2 -2 -2 -2 -2 -2 -2 -2 -2 -2 -2 -2 -2 -2 -2 -1 0 9 34 81 107 72 33 17 13 13 13 13 13 13 13 13 13 14 15 19 29 45 68 93 120 141 127 76 31 9 1 -1 -2 -2 -1 1 13 46 95 
95 46 13 1 -1 -2 -2 -2 -2 -2 -2 -2 -2 -2 -1 1 14 47 98 105 56 19 3 0 -2 -2 -2 -2 -1 -1 0 2 6 11 20 35 61 92 118 119 94 64 40 23 12 6 3 1 0 0 -1 -1 -1 -2 -2 -2 -2 -2 -2 -2 -2 -2 -2 -2 -2 -2 -2 -2 -2 -2 -1 1 11 41 89 101 57 21 6 2 1 1 1 1 1 1 1 1 1 2 4 7 15 28 49 79 115 124 85 40 13 2 -1 -2 -2 -1 1 13 46 95 
95 46 13 1 -1 -2 -2 -2 -2 -2 -2 -2 -2 -2 -1 2 15 50 98 97 48 14 2 -1 -1 -1 -1 0 0 2 7 14 24 38 55 78 108 133 140 122 92 68 51 38 27 19 13 9 6 3 2 1 0 0 -1 -1 -1 -2 -2 -2 -2 -2 -2 -2 -2 -2 -2 -2 -2 -2 -1 1 13 45 94 97 49 15 3 0 -1 -1 -1 -1 -1 -1 -1 -1 -1 -1 0 0 3 8 18 39 74 107 103 62 26 7 0 -1 -2 -1 1 13 46 95 
95 46 13 1 -1 -2 -2 -2 -2 -2 -2 -2 -2 -2 -1 3 19 56 101 90 41 12 1 0 -1 0 1 3 7 15 27 44 64 83 99 111 118 121 124 121 111 101 92 81 67 54 44 35 25 18 14 12 9 5 3 1 0 0 -1 -1 -1 -1 -2 -2 -2 -2 -2 -2 -2 -2 -1 2 15 49 97 94 45 13 1 -1 -2 -2 -2 -2 -2 -2 -2 -2 -2 -2 -2 -1 0 0 5 16 39 77 106 89 47 17 4 0 -1 -1 1 13 46 95 
95 46 13 1 -1 -2 -2 -2 -2 -2 -2 -2 -2 -2 0 6 25 67 105 81 34 9 1 0 2 5 10 18 29 45 67 88 103 105 98 85 72 66 71 82 91 96 101 105 105 100 92 81 68 56 48 41 34 25 18 13 9 6 3 2 1 0 0 -1 -1 -1 -2 -2 -2 -2 0 3 19 56 101 89 41 11 1 -1 -2 -2 -2 -2 -2 -2 -2 -2 -2 -2 -2 -2 -2 -1 0 5 18 48 89 105 74 35 11 2 -1 -1 1 13 46 95 
95 46 13 1 -1 -2 -2 -2 -2 -2 -2 -2 -2 -1 0 9 34 80 105 68 27 8 4 7 14 24 37 52 70 90 104 104 90 70 52 38 28 23 26 34 41 48 56 68 81 92 100 105 105 101 96 90 80 67 54 44 35 25 18 14 12 9 5 3 1 0 0 0 -1 -1 0 6 25 67 105 80 34 9 0 -1 -2 -2 -2 -2 -2 -2 -2 -2 -2 -2 -2 -2 -2 -2 -1 0 7 25 61 99 99 61 25 7 0 0 2 13 46 95 
95 46 13 1 -1 -2 -2 -2 -2 -2 -2 -2 -2 -1 1 12 41 90 102 58 24 13 16 27 44 63 82 97 105 103 88 67 45 29 18 11 7 5 6 9 12 14 18 25 35 44 54 67 80 90 96 101 105 105 100 92 81 68 56 48 41 34 25 18 13 9 6 3 2 2 3 11 35 81 105 67 25 6 0 -2 -2 -2 -2 -2 -2 -2 -2 -2 -2 -2 -2 -2 -2 -2 -2 -1 2 11 35 74 105 89 48 18 5 0 2 13 46 95 
95 46 13 1 -1 -2 -2 -2 -2 -2 -2 -2 -2 -1 2 15 48 97 101 58 32 32 46 67 88 103 105 97 82 63 44 27 15 7 3 1 0 0 0 0 1 2 3 6 9 13 18 25 34 41 48 56 68 81 92 100 105 105 101 96 90 80 67 54 44 35 25 19 15 12 12 20 46 92 102 56 19 3 -1 -2 -2 -2 -2 -2 -2 -2 -2 -2 -2 -2 -2 -2 -2 -2 -2 -1 0 4 17 47 88 105 77 38 14 4 3 14 46 95 
95 46 13 1 -1 -2 -2 -2 -2 -2 -2 -2 -2 0 4 19 56 106 107 73 60 71 90 104 104 90 70 52 37 24 14 7 2 0 0 -1 -1 -2 -1 -1 -1 -1 -1 0 0 1 3 5 9 12 14 18 25 35 44 54 67 80 90 96 101 105 105 100 92 81 68 56 48 42 38 40 63 103 99 49 15 2 -1 -2 -2 -2 -2 -2 -2 -2 -2 -2 -2 -2 -2 -2 -2 -2 -2 -2 -1 0 7 25 60 97 102 69 32 11 6 15 46 95 
95 46 13 1 -1 -2 -2 -2 -2 -2 -2 -2 -1 0 7 28 72 121 124 103 100 106 104 89 67 45 29 18 10 5 2 0 -1 -1 -2 -2 -2 -2 -2 -2 -2 -2 -2 -2 -1 -1 -1 0 0 1 2 3 6 9 13 18 25 34 41 48 56 68 81 92 100 105 105 101 96 91 84 81 96 121 101 47 14 1 -1 -2 -2 -2 -2 -2 -2 -2 -2 -2 -2 -2 -2 -2 -2 -2 -2 -2 -2 -1 1 11 32 69 102 97 60 26 11 16 47 95 
95 46 13 1 -1 -2 -2 -2 -2 -2 -2 -2 -1 2 15 45 96 137 137 120 106 89 67 45 27 15 7 3 1 0 -1 -1 -2 -2 -2 -2 -2 -2 -2 -2 -2 -2 -2 -2 -2 -2 -2 -2 -1 -1 -1 -1 0 0 1 3 5 9 12 14 18 25 35 44 54 67 80 90 96 101 107 115 129 140 103 45 13 1 -1 -2 -2 -2 -2 -2 -2 -2 -2 -2 -2 -2 -2 -2 -2 -2 -2 -2 -2 -2 0 3 14 38 77 105 88 48 22 21 48 96 
95 46 13 1 -1 -2 -2 -2 -2 -2 -2 -1 0 8 28 68 114 127 109 85 64 43 27 15 7 2 0 0 -1 -1 -2 -2 -2 -2 -2 -2 -2 -2 -2 -2 -2 -2 -2 -2 -2 -2 -2 -2 -2 -2 -2 -2 -2 -1 -1 -1 0 0 1 2 3 6 9 13 18 25 34 41 48 56 70 91 119 137 103 45 13 1 -1 -2 -2 -2 -2 -2 -2 -2 -2 -2 -2 -2 -2 -2 -2 -2 -2 -2 -2 -2 -1 0 4 18 47 88 105 77 43 30 52 97 
96 46 13 1 -1 -2 -2 -2 -2 -2 -1 0 4 18 48 92 112 89 59 38 24 14 7 2 0 -1 -1 -2 -2 -2 -2 -2 -2 -2 -2 -2 -2 -2 -2 -2 -2 -2 -2 -2 -2 -2 -2 -2 -2 -2 -2 -2 -2 -2 -2 -2 -2 -1 -1 -1 -1 0 0 1 3 5 9 12 15 19 29 48 82 117 99 46 13 1 -1 -2 -2 -2 -2 -2 -2 -2 -2 -2 -2 -2 -2 -2 -2 -2 -2 -2 -2 -2 -2 -1 0 7 25 60 97 102 73 48 59 99 
96 46 13 1 -1 -2 -2 -2 -2 -2 -1 2 11 35 75 106 91 52 25 12 6 2 0 -1 -1 -2 -2 -2 -2 -2 -2 -2 -2 -2 -2 -2 -2 -2 -2 -2 -2 -2 -2 -2 -2 -2 -2 -2 -2 -2 -2 -2 -2 -2 -2 -2 -2 -2 -2 -2 -2 -2 -1 -1 -1 0 0 1 2 4 10 25 58 103 97 46 13 1 -1 -2 -2 -2 -2 -2 -2 -2 -2 -2 -2 -2 -2 -2 -2 -2 -2 -2 -2 -2 -2 -2 -1 1 11 32 69 102 101 75 73 103 
97 46 13 1 -1 -2 -2 -2 -2 -1 0 7 25 61 99 99 62 27 9 2 0 -1 -1 -2 -2 -2 -2 -2 -2 -2 -2 -2 -2 -2 -2 -2 -2 -2 -2 -2 -2 -2 -2 -2 -2 -2 -2 -2 -2 -2 -2 -2 -2 -2 -2 -2 -2 -2 -2 -2 -2 -2 -2 -2 -2 -2 -1 -1 -1 0 3 16 49 97 97 47 14 2 -1 -2 -2 -2 -2 -2 -2 -2 -2 -2 -2 -2 -2 -2 -2 -2 -2 -2 -2 -2 -2 -2 -2 0 3 14 38 77 107 102 93 111 
99 46 13 1 -1 -2 -2 -2 -1 0 5 18 48 89 105 75 36 12 2 0 -1 -1 -2 -2 -2 -2 -2 -2 -2 -2 -2 -2 -2 -2 -2 -2 -2 -2 -2 -2 -2 -2 -2 -2 -2 -2 -2 -2 -2 -2 -2 -2 -2 -2 -2 -2 -2 -2 -2 -2 -2 -2 -2 -2 -2 -2 -2 -2 -1 -1 2 14 47 96 99 51 17 3 0 -1 -2 -2 -2 -2 -2 -2 -2 -2 -2 -2 -2 -2 -2 -2 -2 -2 -2 -2 -2 -2 -2 -1 0 4 18 48 89 115 116 123 
101 45 13 1 -1 -2 -2 -1 0 4 15 39 77 107 92 50 20 6 0 0 -1 -1 -1 -1 -1 -1 -1 -1 -1 -2 -2 -2 -2 -2 -2 -2 -2 -2 -2 -2 -2 -2 -2 -2 -2 -2 -2 -2 -2 -2 -2 -2 -2 -2 -2 -2 -2 -2 -2 -2 -2 -2 -2 -2 -2 -2 -2 -2 -1 0 3 16 48 98 107 62 24 7 1 0 -1 -2 -2 -2 -2 -2 -2 -2 -2 -2 -2 -2 -2 -2 -2 -2 -2 -2 -2 -2 -2 -2 -1 0 7 25 61 104 131 136 
102 45 13 1 -1 -2 -1 0 3 14 36 72 108 110 75 39 19 8 4 2 2 1 1 1 1 1 1 1 0 0 -1 -1 -1 -1 -1 -1 -1 -1 -1 -1 -2 -2 -2 -2 -2 -2 -2 -2 -2 -2 -2 -2 -2 -2 -2 -2 -2 -2 -2 -2 -2 -2 -2 -2 -2 -2 -2 -1 0 2 9 25 58 107 124 86 44 20 8 3 0 -1 -2 -2 -2 -2 -2 -2 -2 -2 -2 -2 -2 -2 -2 -2 -2 -2 -2 -2 -2 -2 -2 -1 2 11 34 76 122 141 
102 45 13 1 -1 -1 0 3 14 35 71 112 130 111 78 54 38 26 19 15 14 13 13 13 13 13 13 11 9 6 3 2 2 1 1 1 1 1 1 0 0 -1 -1 -1 -1 -1 -1 -1 -1 -1 -1 -1 -2 -2 -2 -2 -2 -2 -2 -2 -2 -2 -2 -2 -2 -1 -1 0 4 11 26 49 84 124 142 119 81 49 28 15 6 1 0 -1 -2 -2 -2 -2 -2 -2 -2 -2 -2 -2 -2 -2 -2 -2 -2 -2 -2 -2 -2 -1 0 4 17 48 97 133 
99 45 13 1 0 0 4 14 36 70 111 138 139 123 106 94 82 68 56 50 47 46 46 46 46 45 44 40 34 25 19 15 14 13 13 13 13 13 11 9 6 3 2 2 1 1 1 1 1 1 1 0 0 -1 -1 -1 -1 -1 -1 -1 -1 -1 -1 -1 -1 0 2 8 18 35 61 89 111 122 124 122 112 92 67 43 24 11 4 0 -1 -1 -2 -2 -2 -2 -2 -2 -2 -2 -2 -2 -2 -2 -2 -2 -2 -2 -2 -2 -1 0 8 29 73 118 
97 46 13 2 0 4 14 36 70 104 119 116 107 101 100 102 105 105 101 98 96 96 95 95 95 95 93 89 80 67 56 50 47 46 46 46 45 44 40 34 25 19 15 14 13 13 13 13 13 13 11 9 6 3 2 2 1 1 1 1 1 1 0 0 2 6 15 28 48 75 99 106 94 77 69 76 92 105 103 87 60 35 18 8 2 0 -1 -2 -2 -2 -2 -2 -2 -2 -2 -2 -2 -2 -2 -2 -2 -2 -2 -2 -2 0 4 19 57 106 
96 46 14 4 6 15 37 70 101 105 83 62 51 48 50 56 67 80 89 93 95 95 95 95 95 96 98 101 105 105 101 98 96 95 95 95 95 93 89 80 67 56 50 47 46 46 46 46 45 44 40 34 25 19 15 14 13 13 13 13 13 11 10 9 13 25 44 67 91 105 99 75 49 32 26 31 46 68 91 105 99 75 48 28 15 6 1 0 -1 -2 -2 -2 -2 -2 -2 -2 -2 -2 -2 -2 -2 -2 -2 -2 -2 -1 2 15 50 99 
96 48 18 11 19 40 72 101 101 72 41 23 16 14 15 19 25 34 40 44 45 46 46 46 46 47 50 56 67 80 89 93 95 95 95 95 96 98 101 105 105 101 98 96 95 95 95 95 95 93 89 80 67 56 50 47 46 46 46 46 44 41 36 34 42 63 87 103 103 87 60 35 18 9 6 8 15 28 48 75 99 105 91 67 43 24 11 4 0 -1 -1 -2 -2 -2 -2 -2 -2 -2 -2 -2 -2 -2 -2 -2 -2 -1 2 14 47 96 
97 52 27 29 49 77 102 100 70 37 16 6 3 2 2 3 6 9 11 13 13 13 13 13 13 14 15 19 25 34 40 44 45 46 46 46 47 50 56 67 80 89 93 95 95 95 95 95 96 98 101 105 105 101 98 96 95 95 95 95 94 91 86 83 91 105 107 91 67 43 24 11 4 1 0 0 3 8 18 35 60 87 103 103 87 60 35 18 8 2 0 -1 -2 -2 -2 -2 -2 -2 -2 -2 -2 -2 -2 -2 -2 -1 1 13 46 96 
101 62 48 64 89 105 97 67 35 14 4 0 -1 -1 -1 0 0 0 1 1 1 1 1 1 1 2 2 3 6 9 11 13 13 13 13 13 14 15 19 25 34 40 44 45 46 46 46 46 47 50 56 67 80 89 93 95 95 95 96 96 99 106 119 131 132 113 80 50 28 15 6 1 0 -1 -1 -1 -1 0 4 11 24 43 67 91 105 99 75 48 28 15 6 1 0 -1 -2 -2 -2 -2 -2 -2 -2 -2 -2 -2 -2 -1 1 13 46 96 
109 83 83 101 105 88 59 32 13 3 0 -1 -2 -2 -2 -2 -2 -1 -1 -1 -1 -1 -1 -1 -1 -1 -1 -1 0 0 1 1 1 1 1 1 2 2 3 6 9 11 13 13 13 13 13 13 14 15 19 25 34 40 44 45 46 46 46 48 53 67 98 134 131 87 44 20 8 3 0 -1 -2 -2 -2 -2 -2 -1 0 1 6 15 28 48 75 99 105 91 67 43 24 11 4 0 -1 -1 -2 -2 -2 -2 -2 -2 -2 -2 -2 -1 1 13 46 97 
123 113 112 104 77 48 25 10 3 0 -1 -2 -2 -2 -2 -2 -2 -2 -2 -2 -2 -2 -2 -2 -2 -2 -2 -2 -2 -1 -1 -1 -1 -1 -1 -1 -1 -1 -1 0 0 1 1 1 1 1 1 1 2 2 3 6 9 11 13 13 13 13 14 15 19 33 67 114 113 62 24 7 1 0 -1 -2 -2 -2 -2 -2 -2 -2 -2 -1 0 2 8 18 35 60 87 103 103 87 60 35 18 8 3 0 -1 -1 -2 -2 -2 -2 -2 -2 -2 -1 1 13 46 99 
138 131 107 72 39 18 7 1 0 -1 -2 -2 -2 -2 -2 -2 -2 -2 -2 -2 -2 -2 -2 -2 -2 -2 -2 -2 -2 -2 -2 -2 -2 -2 -2 -2 -2 -2 -2 -2 -1 -1 -1 -1 -1 -1 -1 -1 -1 -1 -1 0 0 1 1 1 1 1 2 2 6 19 53 102 101 51 17 3 0 -1 -2 -2 -2 -2 -2 -2 -2 -2 -2 -2 -1 -1 0 4 11 24 43 67 91 105 99 75 48 28 15 7 2 0 -1 -2 -2 -2 -2 -2 -2 -1 1 13 45 102 
139 116 73 37 15 5 0 -1 -2 -2 -2 -2 -2 -2 -2 -2 -2 -2 -2 -2 -2 -2 -2 -2 -2 -2 -2 -2 -2 -2 -2 -2 -2 -2 -2 -2 -2 -2 -2 -2 -2 -2 -2 -2 -2 -2 -2 -2 -2 -2 -2 -2 -1 -1 -1 -1 -1 -1 -1 0 2 15 48 97 97 47 14 2 -1 -2 -2 -2 -2 -2 -2 -2 -2 -2 -2 -2 -2 -2 -1 0 1 6 15 28 48 75 99 105 91 67 45 27 14 6 1 0 -1 -2 -2 -2 -2 -1 1 13 45 103 
124 85 41 15 4 0 -1 -2 -2 -2 -2 -2 -2 -2 -2 -2 -2 -2 -2 -2 -2 -2 -2 -2 -2 -2 -2 -2 -2 -2 -2 -2 -2 -2 -2 -2 -2 -2 -2 -2 -2 -2 -2 -2 -2 -2 -2 -2 -2 -2 -2 -2 -2 -2 -2 -2 -2 -2 -2 -1 2 14 46 96 96 46 14 1 -1 -2 -2 -2 -2 -2 -2 -2 -2 -2 -2 -2 -2 -2 -2 -2 -1 0 2 8 18 35 60 86 103 104 89 66 43 24 11 4 0 0 -1 -1 -1 -1 1 13 45 101 
108 62 23 6 0 -1 -2 -2 -2 -2 -2 -2 -2 -2 -2 -2 -2 -2 -2 -2 -2 -2 -2 -2 -2 -2 -2 -2 -2 -2 -2 -2 -2 -2 -2 -2 -2 -2 -2 -2 -2 -2 -2 -2 -2 -2 -2 -2 -2 -2 -2 -2 -2 -2 -2 -2 -2 -2 -2 -1 1 13 46 95 95 46 13 1 -1 -2 -2 -2 -2 -2 -2 -2 -2 -2 -2 -2 -2 -2 -2 -2 -2 -1 -1 0 4 11 24 43 66 89 104 103 87 60 35 17 8 4 1 0 0 0 2 14 46 98 
100 51 16 3 0 -2 -2 -2 -2 -2 -2 -2 -2 -2 -2 -2 -2 -2 -2 -2 -2 -2 -2 -2 -2 -2 -2 -2 -2 -2 -2 -2 -2 -2 -2 -2 -2 -2 -2 -2 -2 -2 -2 -2 -2 -2 -2 -2 -2 -2 -2 -2 -2 -2 -2 -2 -2 -2 -2 -1 1 13 46 95 95 46 13 1 -1 -2 -2 -2 -2 -2 -2 -2 -2 -2 -2 -2 -2 -2 -2 -2 -2 -2 -2 -1 0 1 6 14 27 45 68 92 107 101 75 48 29 19 13 9 6 4 6 16 48 97 
97 47 14 2 -1 -2 -2 -2 -2 -2 -2 -2 -2 -2 -2 -2 -2 -2 -2 -2 -2 -2 -2 -2 -2 -2 -2 -2 -2 -2 -2 -2 -2 -2 -2 -2 -2 -2 -2 -2 -2 -2 -2 -2 -2 -2 -2 -2 -2 -2 -2 -2 -2 -2 -2 -2 -2 -2 -2 -1 1 13 46 95 95 46 13 1 -1 -2 -2 -2 -2 -2 -2 -2 -2 -2 -2 -2 -2 -2 -2 -2 -2 -2 -2 -2 -1 -1 0 3 8 17 32 54 84 112 116 97 73 55 44 35 25 19 17 25 54 100 
98 47 14 2 0 -1 -1 -1 -1 -2 -2 -2 -2 -2 -2 -2 -2 -2 -2 -2 -2 -2 -2 -2 -2 -2 -2 -2 -2 -2 -2 -2 -2 -2 -2 -2 -2 -2 -2 -2 -2 -2 -2 -2 -2 -2 -2 -2 -2 -2 -2 -2 -2 -2 -2 -2 -2 -2 -2 -1 1 13 46 95 95 46 13 1 -1 -2 -2 -2 -2 -2 -2 -2 -2 -2 -2 -2 -2 -2 -2 -2 -2 -2 -2 -2 -1 -1 0 1 5 11 21 38 66 104 134 138 122 105 93 81 67 55 48 51 72 108 
103 49 17 6 2 1 1 1 0 0 -1 -1 -1 -1 -1 -1 -1 -2 -2 -2 -2 -2 -2 -2 -2 -2 -2 -2 -2 -2 -2 -2 -2 -2 -2 -2 -2 -2 -2 -2 -2 -2 -2 -2 -2 -2 -2 -2 -2 -2 -2 -2 -2 -2 -2 -2 -2 -2 -2 -1 1 13 46 95 95 46 13 1 -1 -2 -2 -2 -2 -2 -2 -2 -2 -2 -2 -2 -2 -2 -2 -2 -2 -2 -1 -1 0 1 3 7 15 26 40 59 83 112 130 126 113 104 103 106 105 100 95 95 106 126 
113 60 29 17 14 13 13 11 9 6 3 2 1 1 1 1 0 0 -1 -1 -1 -1 -1 -1 -1 -1 -2 -2 -2 -2 -2 -2 -2 -2 -2 -2 -2 -2 -2 -2 -2 -2 -2 -2 -2 -2 -2 -2 -2 -2 -2 -2 -2 -2 -2 -2 -2 -2 -2 -1 1 13 46 95 95 46 13 1 -1 -2 -2 -2 -2 -2 -2 -2 -2 -2 -2 -2 -2 -2 -2 -1 -1 0 0 2 5 10 17 28 44 64 83 98 108 107 93 73 58 53 57 68 81 92 102 114 132 144 
129 87 60 50 47 46 44 40 34 25 19 15 14 13 13 11 9 6 3 2 1 1 1 1 1 0 0 -1 -1 -1 -1 -1 -1 -1 -2 -2 -2 -2 -2 -2 -2 -2 -2 -2 -2 -2 -2 -2 -2 -2 -2 -2 -2 -2 -2 -2 -2 -2 -2 -1 1 13 46 95 95 46 13 1 -1 -2 -2 -2 -2 -2 -2 -2 -2 -2 -2 -2 -2 -1 -1 0 1 3 7 14 24 37 52 70 89 103 105 97 83 64 44 28 20 17 19 26 35 45 57 78 111 141 
145 125 106 98 96 95 93 89 80 67 56 50 47 46 44 40 34 25 19 15 14 13 13 13 11 9 6 3 2 1 1 1 1 0 0 -1 -1 -1 -1 -1 -1 -1 -1 -2 -2 -2 -2 -2 -2 -2 -2 -2 -2 -2 -2 -2 -2 -2 -2 -1 1 13 46 95 95 46 13 1 -1 -2 -2 -2 -2 -2 -2 -2 -2 -2 -2 -1 -1 0 2 5 10 17 28 44 64 82 97 105 103 89 70 52 37 24 14 7 4 3 3 6 9 14 22 39 75 125 
141 125 106 98 96 96 98 101 105 105 101 98 96 95 93 89 80 67 56 50 47 46 46 44 40 34 25 19 15 14 13 13 11 9 6 3 2 1 1 1 1 1 0 0 -1 -1 -1 -1 -1 -1 -1 -2 -2 -2 -2 -2 -2 -2 -2 -1 1 13 46 95 95 46 13 1 -1 -2 -2 -2 -2 -2 -2 -2 -1 -1 0 0 2 7 14 24 37 52 70 89 103 105 97 82 64 44 28 17 10 5 2 0 0 -1 0 0 0 2 7 21 55 111 
120 87 60 50 47 47 50 56 67 80 89 93 95 96 98 101 105 105 101 98 96 95 95 93 89 80 67 56 50 47 46 44 40 34 25 19 15 14 13 13 13 11 9 6 3 2 1 1 1 1 0 0 -1 -1 -1 -1 -1 -1 -1 0 2 14 46 95 95 46 13 1 -1 -2 -2 -2 -2 -2 -1 -1 0 1 3 7 15 27 44 63 82 97 105 103 89 70 52 37 24 14 7 3 1 0 -1 -1 -2 -2 -2 -1 -1 0 3 15 48 102 
104 60 29 18 14 14 15 19 25 34 40 44 46 47 50 56 67 80 89 93 95 95 96 98 101 105 105 101 98 96 95 93 89 80 67 56 50 47 46 46 44 40 34 25 19 15 14 13 13 11 9 6 3 2 1 1 1 1 1 1 3 15 47 96 96 46 14 1 -1 -2 -2 -1 -1 0 0 2 5 10 18 29 45 67 88 103 105 97 82 64 44 28 17 10 5 2 0 0 -1 -1 -2 -2 -2 -2 -2 -2 -2 -1 2 14 46 97 
98 50 18 6 2 2 2 3 6 9 11 13 13 14 15 19 25 34 40 44 46 46 47 50 56 67 80 89 93 95 96 98 101 105 105 101 98 96 95 95 93 89 80 67 56 50 47 46 44 40 34 25 19 15 14 13 13 13 11 10 10 19 51 98 97 47 14 2 -1 -1 -1 0 1 3 7 14 24 37 52 70 90 104 104 90 70 52 37 24 14 7 3 1 0 -1 -1 -2 -2 -2 -2 -2 -2 -2 -2 -2 -2 -1 1 13 46 96 
96 47 14 2 0 -1 -1 0 0 0 1 1 1 1 2 3 6 9 11 13 13 13 14 15 19 25 34 40 44 46 47 50 56 67 80 89 93 95 95 96 98 101 105 105 101 98 96 95 93 89 80 67 56 50 47 46 46 44 40 35 29 35 62 106 102 51 17 3 0 0 2 5 10 17 28 44 64 82 97 105 103 88 67 45 29 18 10 5 2 0 0 -1 -1 -2 -2 -2 -2 -2 -2 -2 -2 -2 -2 -2 -2 -1 1 13 46 95 
95 46 14 1 -1 -2 -2 -2 -2 -1 -1 -1 -1 -1 -1 -1 0 0 1 1 1 1 1 2 3 6 9 11 13 13 14 15 19 25 34 40 44 46 46 47 50 56 67 80 89 93 95 96 98 101 105 105 101 98 96 95 95 93 89 81 71 70 90 124 114 63 25 9 6 8 14 24 37 52 70 89 103 105 97 82 63 44 27 15 7 3 1 0 -1 -1 -2 -2 -2 -2 -2 -2 -2 -2 -2 -2 -2 -2 -2 -2 -2 -1 1 13 46 95 
95 46 13 1 -1 -2 -2 -2 -2 -2 -2 -2 -2 -2 -2 -2 -2 -1 -1 -1 -1 -1 -1 -1 -1 0 0 1 1 1 1 2 3 6 9 11 13 13 13 14 15 19 25 34 40 44 46 47 50 56 67 80 89 93 95 95 96 98 101 105 107 109 122 141 132 87 47 27 23 30 45 64 82 97 105 103 89 70 52 37 24 14 7 2 0 0 -1 -1 -2 -2 -2 -2 -2 -2 -2 -2 -2 -2 -2 -2 -2 -2 -2 -2 -2 -1 1 13 46 95 
95 46 13 1 -1 -2 -2 -2 -2 -2 -2 -2 -2 -2 -2 -2 -2 -2 -2 -2 -2 -2 -2 -2 -2 -2 -1 -1 -1 -1 -1 -1 0 0 0 1 1 1 1 2 2 3 6 9 11 13 13 14 15 19 25 34 40 44 46 46 47 50 56 67 81 91 102 116 126 115 87 67 63 73 90 103 105 97 82 64 44 28 17 10 5 2 0 -1 -1 -2 -2 -2 -2 -2 -2 -2 -2 -2 -2 -2 -2 -2 -2 -2 -2 -2 -2 -2 -2 -1 1 13 46 95 
95 46 13 1 -1 -2 -2 -2 -2 -2 -2 -2 -2 -2 -2 -2 -2 -2 -2 -2 -2 -2 -2 -2 -2 -2 -2 -2 -2 -2 -2 -2 -2 -1 -1 -1 -1 -1 -1 -1 -1 0 0 0 1 1 1 2 2 3 6 9 11 13 13 13 14 15 19 25 34 41 49 62 86 115 127 120 112 109 104 90 70 52 37 24 14 7 3 1 0 -1 -1 -2 -2 -2 -2 -2 -2 -2 -2 -2 -2 -2 -2 -2 -2 -2 -2 -2 -2 -2 -2 -2 -2 -1 1 13 46 95 
95 46 14 1 -1 -2 -2 -2 -2 -2 -2 -2 -2 -2 -2 -2 -2 -2 -2 -2 -2 -2 -2 -2 -2 -2 -2 -2 -2 -2 -2 -2 -2 -2 -2 -2 -2 -2 -2 -2 -2 -1 -1 -1 -1 -1 -1 -1 -1 0 0 0 1 1 1 2 2 2 3 6 9 12 16 25 46 87 132 140 116 89 65 45 28 18 11 6 2 0 0 -1 -1 -2 -2 -2 -2 -2 -2 -2 -2 -2 -2 -2 -2 -2 -2 -2 -2 -2 -2 -2 -2 -2 -2 -2 -2 -1 1 14 46 95 
96 47 14 2 0 -1 -1 -1 -1 -1 -1 -1 -1 -1 -1 -1 -1 -1 -1 -1 -1 -1 -1 -1 -1 -1 -1 -1 -1 -1 -1 -1 -1 -1 -1 -1 -1 -1 -1 -1 -1 -1 -1 -1 -1 -1 -1 -1 -1 -1 -1 0 0 0 0 0 0 0 0 0 1 2 4 9 26 63 115 122 83 48 28 16 8 4 2 0 0 0 -1 -1 -1 -1 -1 -1 -1 -1 -1 -1 -1 -1 -1 -1 -1 -1 -1 -1 -1 -1 -1 -1 -1 -1 -1 -1 -1 0 2 14 47 96 
98 50 18 6 2 1 1 1 1 1 1 1 1 1 1 1 1 1 1 1 1 1 1 1 1 1 1 1 1 1 1 1 1 1 1 1 1 1 1 1 1 1 1 1 1 1 1 1 1 1 1 1 1 1 1 1 2 2 2 2 2 2 3 7 21 55 105 108 62 28 13 7 4 3 2 2 2 1 1 1 1 1 1 1 1 1 1 1 1 1 1 1 1 1 1 1 1 1 1 1 1 1 1 1 1 2 6 18 50 98 
106 60 29 18 14 14 13 13 13 13 13 13 13 13 13 13 13 13 13 13 13 13 13 13 13 13 13 13 13 13 13 13 13 13 13 13 13 13 13 13 13 13 13 13 13 13 13 13 13 13 13 13 13 13 13 13 13 13 13 13 14 14 15 18 30 62 108 109 64 32 20 15 14 14 14 13 13 13 13 13 13 13 13 13 13 13 13 13 13 13 13 13 13 13 13 13 13 13 13 13 13 13 13 13 13 14 17 29 60 106 
126 87 60 50 47 46 46 46 46 46 46 46 46 46 46 46 46 46 46 46 46 46 46 46 46 46 46 46 46 46 46 46 45 45 45 46 46 46 46 46 46 46 46 46 46 46 46 46 45 45 45 45 46 46 46 46 46 46 46 46 46 46 47 50 61 87 125 125 88 61 50 47 46 46 46 46 46 46 46 46 46 46 46 46 46 46 46 46 46 46 46 45 45 45 46 46 46 46 46 46 46 46 46 45 45 46 49 60 87 126 
153 126 106 98 96 95 95 95 95 95 95 95 95 95 95 95 95 95 95 95 95 95 95 95 95 95 95 95 95 96 97 99 102 103 101 98 96 96 95 95 95 95 95 95 95 95 96 97 99 103 103 99 97 96 95 95 95 95 95 95 95 95 96 98 104 119 138 138 119 104 98 96 95 95 95 95 95 95 95 95 95 95 95 95 95 95 95 95 96 96 98 101 103 101 98 96 96 95 95 95 96 96 98 101 103 102 101 107 126 153 
