P2
110 110
255
154 119 101 95 94 94 94 94 94 94 94 94 94 94 94 94 94 94 94 94 94 94 94 94 94 94 94 94 95 96 100 114 138 149 129 107 97 95 94 94 94 94 94 94 94 94 95 100 115 144 143 115 100 95 94 94 94 94 94 94 94 94 94 94 95 98 102 102 98 95 94 94 94 94 94 94 94 94 94 94 94 94 94 94 94 94 94 94 95 98 109 133 150 130 107 97 95 94 94 94 95 97 107 131 150 131 109 104 120 155 
119 68 43 36 35 34 34 34 34 34 34 34 34 34 34 34 34 34 34 34 34 34 34 34 34 34 34 35 35 39 53 88 127 117 74 47 37 35 34 34 34 34 34 34 34 35 36 44 70 121 119 68 43 36 35 34 34 34 34 34 34 34 34 34 34 34 34 34 34 34 34 34 34 34 34 34 34 34 34 34 34 34 34 34 34 34 34 35 36 44 70 116 125 80 48 38 35 34 34 35 36 41 62 109 128 83 51 46 69 119 
101 43 14 7 5 5 5 5 5 5 5 5 5 5 5 5 5 5 5 5 5 5 5 5 5 5 5 6 8 17 45 94 113 70 29 11 6 5 5 5 5 5 5 5 5 5 8 18 52 111 103 43 14 7 5 5 5 5 5 5 5 5 5 5 5 5 5 5 5 5 5 5 5 5 5 5 5 5 5 5 5 5 5 5 5 5 5 6 9 24 64 113 91 40 14 7 5 5 5 5 7 14 42 99 104 49 18 17 43 101 
95 36 7 0 -2 -2 -2 -2 -2 -2 -2 -2 -2 -2 -2 -2 -2 -2 -2 -2 -2 -2 -2 -2 -2 -2 -2 0 5 25 68 109 87 36 9 0 -1 -2 -2 -2 -2 -2 -2 -2 -2 -1 2 18 63 125 101 36 7 0 -2 -2 -2 -2 -2 -2 -2 -2 -2 -2 -2 -2 -2 -2 -2 -2 -2 -2 -2 -2 -2 -2 -2 -2 -2 -2 -2 -2 -2 -2 -2 -2 -2 0 5 28 81 109 61 18 2 -1 -2 -2 -2 -1 0 10 44 101 92 35 8 8 36 96 
94 35 5 -2 -3 -3 -3 -3 -3 -3 -3 -3 -3 -3 -3 -3 -3 -3 -3 -3 -3 -3 -3 -3 -3 -3 -2 1 15 52 101 101 52 15 1 -2 -3 -3 -3 -3 -3 -3 -3 -3 -3 -1 6 34 93 145 102 34 5 -2 -3 -3 -3 -3 -3 -3 -3 -3 -3 -3 -3 -3 -3 -3 -3 -3 -3 -3 -3 -3 -3 -3 -3 -3 -3 -3 -3 -3 -3 -3 -3 -3 -3 -1 8 40 97 97 40 8 -1 -3 -3 -3 -3 -3 0 15 58 108 78 25 4 7 35 94 
94 34 5 -2 -3 -4 -4 -4 -4 -4 -4 -4 -4 -4 -4 -4 -4 -4 -4 -4 -4 -4 -4 -4 -4 -3 -1 8 36 86 108 66 23 3 -2 -3 -4 -4 -4 -4 -4 -4 -4 -3 -3 0 16 58 120 148 102 34 5 -2 -3 -4 -4 -4 -4 -4 -4 -4 -4 -4 -4 -4 -4 -4 -4 -4 -4 -4 -4 -4 -4 -4 -4 -4 -4 -4 -4 -4 -4 -4 -4 -3 -3 0 17 60 108 80 26 3 -2 -3 -4 -4 -3 -2 2 25 78 108 58 15 2 6 34 94 
94 34 5 -2 -3 -4 -4 -4 -4 -4 -4 -4 -4 -4 -4 -4 -4 -4 -4 -4 -4 -4 -4 -4 -3 -2 3 23 66 108 86 36 8 -1 -3 -4 -4 -4 -4 -4 -4 -4 -4 -3 -1 6 33 89 130 137 101 36 6 -2 -3 -4 -4 -4 -4 -4 -4 -4 -4 -4 -4 -4 -4 -4 -4 -4 -4 -4 -4 -4 -4 -4 -4 -4 -4 -4 -4 -4 -4 -4 -4 -3 -1 6 33 87 106 55 14 0 -3 -4 -4 -4 -3 -2 5 33 91 100 42 8 0 5 34 94 
94 34 5 -2 -3 -4 -4 -4 -4 -4 -4 -4 -4 -4 -4 -4 -4 -4 -4 -4 -4 -4 -4 -3 -3 0 15 52 101 101 52 15 0 -3 -3 -4 -4 -4 -4 -4 -4 -4 -3 -3 1 17 58 111 115 119 104 43 8 -1 -3 -4 -4 -4 -4 -4 -4 -4 -4 -4 -4 -4 -4 -4 -4 -4 -4 -4 -4 -4 -4 -4 -4 -4 -4 -4 -4 -4 -4 -4 -4 -3 0 14 55 106 87 33 6 -1 -3 -4 -4 -4 -3 -1 8 42 100 91 33 5 0 5 34 94 
94 34 5 -2 -3 -4 -4 -4 -4 -4 -4 -4 -4 -4 -4 -4 -4 -4 -4 -4 -4 -4 -4 -3 -1 8 36 86 108 66 23 3 -2 -3 -4 -4 -4 -4 -4 -4 -4 -4 -3 -1 8 36 88 111 84 96 111 58 15 0 -3 -4 -4 -4 -4 -4 -4 -4 -4 -4 -4 -4 -4 -4 -4 -4 -4 -4 -4 -4 -4 -4 -4 -4 -4 -4 -4 -4 -4 -4 -3 -2 3 26 80 108 60 17 0 -3 -3 -4 -4 -4 -3 0 15 58 108 78 25 3 -1 5 34 94 
94 34 5 -2 -3 -4 -4 -4 -4 -4 -4 -4 -4 -4 -4 -4 -4 -4 -4 -4 -4 -4 -3 -2 3 23 66 108 86 36 8 -1 -3 -4 -4 -4 -4 -4 -4 -4 -4 -3 -2 3 23 67 109 89 51 67 110 78 24 2 -2 -3 -4 -4 -4 -4 -4 -4 -4 -4 -4 -4 -4 -4 -4 -4 -4 -4 -4 -4 -4 -4 -4 -4 -4 -4 -4 -4 -4 -4 -3 -1 8 40 97 97 40 8 -1 -3 -4 -4 -4 -3 -2 2 25 78 108 58 15 0 -1 5 34 94 
94 34 5 -2 -3 -4 -4 -4 -4 -4 -4 -4 -4 -4 -4 -4 -4 -4 -4 -4 -4 -3 -3 0 15 52 101 101 52 15 0 -3 -3 -4 -4 -4 -4 -4 -4 -4 -3 -3 0 14 52 101 101 54 27 47 101 89 31 4 -2 -3 -4 -4 -4 -4 -4 -4 -4 -4 -4 -4 -4 -4 -4 -4 -4 -4 -4 -4 -4 -4 -4 -4 -4 -4 -4 -4 -4 -3 -3 0 17 60 108 80 26 3 -2 -3 -4 -4 -4 -3 -2 5 33 91 100 42 8 -1 -1 5 34 94 
95 35 5 -2 -3 -4 -4 -4 -4 -4 -4 -4 -4 -4 -4 -4 -4 -4 -4 -4 -4 -3 -1 8 36 86 108 66 23 3 -2 -3 -4 -4 -4 -4 -4 -4 -4 -4 -3 -1 6 33 85 108 67 25 14 38 96 93 34 5 -2 -3 -4 -4 -4 -4 -4 -4 -4 -4 -4 -4 -4 -4 -4 -4 -4 -4 -4 -4 -4 -4 -4 -4 -4 -4 -4 -4 -4 -3 -1 6 33 87 106 55 14 0 -3 -4 -4 -4 -4 -3 -1 8 42 100 91 33 5 -2 -2 5 34 94 
97 37 6 -1 -3 -4 -4 -4 -4 -4 -4 -4 -4 -4 -4 -4 -4 -4 -4 -4 -3 -2 3 23 66 108 86 36 8 -1 -3 -4 -4 -4 -4 -4 -4 -4 -4 -3 -3 0 16 58 107 88 36 10 8 35 94 94 35 5 -2 -3 -4 -4 -4 -4 -4 -4 -4 -4 -4 -4 -4 -4 -4 -4 -4 -4 -4 -4 -4 -4 -4 -4 -4 -4 -4 -4 -4 -3 0 14 55 106 87 33 6 -1 -3 -4 -4 -4 -4 -3 0 15 58 108 78 25 2 -2 -2 5 34 95 
107 47 11 0 -3 -3 -4 -4 -4 -4 -4 -4 -4 -4 -4 -4 -4 -4 -4 -3 -3 0 15 52 101 101 52 15 0 -3 -3 -4 -4 -4 -4 -4 -4 -4 -4 -3 -1 6 34 87 107 58 17 2 6 34 93 96 36 6 -2 -3 -4 -4 -4 -4 -4 -4 -4 -4 -4 -4 -4 -4 -4 -4 -4 -4 -4 -4 -4 -4 -4 -4 -4 -4 -4 -4 -3 -2 3 26 80 108 60 17 0 -3 -3 -4 -4 -4 -3 -2 2 25 78 108 58 15 0 -3 -2 5 34 97 
129 74 27 6 -1 -3 -4 -4 -4 -4 -4 -4 -4 -4 -4 -4 -4 -4 -4 -3 -1 8 36 86 108 66 23 3 -2 -3 -4 -4 -4 -4 -4 -4 -4 -4 -3 -3 1 17 58 107 87 34 6 0 4 31 89 101 43 8 -1 -3 -4 -4 -4 -4 -4 -4 -4 -4 -4 -4 -4 -4 -4 -4 -4 -4 -4 -4 -4 -4 -4 -4 -4 -4 -4 -4 -3 -1 8 40 97 97 40 8 -1 -3 -4 -4 -4 -4 -3 -2 5 33 91 100 42 8 -1 -3 -2 5 34 100 
149 116 63 24 5 -1 -3 -4 -4 -4 -4 -4 -4 -4 -4 -4 -4 -4 -3 -2 3 23 66 108 86 36 8 -1 -3 -4 -4 -4 -4 -4 -4 -4 -4 -4 -3 -1 8 36 88 107 58 16 1 -1 2 24 78 108 58 15 0 -3 -4 -4 -4 -4 -4 -4 -4 -4 -4 -4 -4 -4 -4 -4 -4 -4 -4 -4 -4 -4 -4 -4 -4 -4 -4 -3 -3 0 17 60 108 80 26 3 -2 -3 -4 -4 -4 -4 -3 -1 8 42 100 91 33 5 -2 -3 -2 5 34 102 
139 129 106 60 21 3 -2 -3 -4 -4 -4 -4 -4 -4 -4 -4 -4 -3 -3 0 15 52 101 101 52 15 0 -3 -3 -4 -4 -4 -4 -4 -4 -4 -4 -3 -2 3 23 67 108 85 33 6 -1 -2 0 15 58 108 78 24 2 -2 -3 -4 -4 -4 -4 -4 -4 -4 -4 -4 -4 -4 -4 -4 -4 -4 -4 -4 -4 -4 -4 -4 -4 -4 -4 -3 -1 6 33 87 106 55 14 0 -3 -4 -4 -4 -4 -4 -3 0 15 58 108 78 25 2 -2 -3 -2 5 34 100 
116 97 111 101 51 15 0 -3 -3 -4 -4 -4 -4 -4 -4 -4 -4 -3 -1 8 36 86 108 66 23 3 -2 -3 -4 -4 -4 -4 -4 -4 -4 -4 -3 -3 0 14 52 101 101 52 14 0 -3 -3 -1 8 43 101 89 31 4 -2 -3 -4 -4 -4 -4 -4 -4 -4 -4 -4 -4 -4 -4 -4 -4 -4 -4 -4 -4 -4 -4 -4 -4 -4 -4 -3 0 14 55 106 87 33 6 -1 -3 -4 -4 -4 -4 -3 -2 2 25 78 108 58 15 0 -3 -3 -2 5 34 97 
102 64 77 109 86 36 8 0 -3 -3 -4 -4 -4 -4 -4 -4 -3 -2 3 23 66 108 86 36 8 -1 -3 -4 -4 -4 -4 -4 -4 -4 -4 -4 -3 -1 6 33 85 108 67 23 3 -2 -3 -3 -2 6 36 96 93 34 5 -2 -3 -4 -4 -4 -4 -4 -4 -4 -4 -4 -4 -4 -4 -4 -4 -4 -4 -4 -4 -4 -4 -4 -4 -4 -3 -2 3 26 80 108 60 17 0 -3 -3 -4 -4 -4 -4 -3 -2 5 33 91 100 42 8 -1 -3 -3 -2 5 34 95 
97 47 45 88 108 68 26 6 -1 -3 -3 -4 -4 -4 -4 -3 -3 0 15 52 101 101 52 15 0 -3 -3 -4 -4 -4 -4 -4 -4 -4 -4 -3 -3 0 16 58 107 88 36 8 -1 -3 -4 -3 -2 5 35 94 94 35 5 -2 -3 -4 -4 -4 -4 -4 -4 -4 -4 -4 -4 -4 -4 -4 -4 -4 -4 -4 -4 -4 -4 -4 -4 -4 -3 -1 8 40 97 97 40 8 -1 -3 -4 -4 -4 -4 -4 -3 -1 8 42 100 91 33 5 -2 -3 -3 -2 5 34 94 
95 39 24 53 100 104 63 25 5 -1 -3 -3 -4 -4 -4 -3 -1 8 36 86 108 66 23 3 -2 -3 -4 -4 -4 -4 -4 -4 -4 -4 -4 -3 -1 6 34 87 107 58 17 1 -3 -3 -4 -3 -2 5 34 93 96 36 6 -2 -3 -4 -4 -4 -4 -4 -4 -4 -4 -4 -4 -4 -4 -4 -4 -4 -4 -4 -4 -4 -4 -4 -4 -3 -3 0 17 60 108 80 26 3 -2 -3 -4 -4 -4 -4 -4 -3 0 15 58 108 78 25 2 -2 -3 -3 -2 5 34 94 
95 36 12 23 61 103 103 62 24 5 -1 -3 -3 -4 -3 -2 3 23 66 108 86 36 8 -1 -3 -4 -4 -4 -4 -4 -4 -4 -4 -4 -3 -3 1 17 58 107 87 34 6 -1 -3 -4 -4 -3 -2 4 31 89 101 43 8 -1 -3 -4 -4 -4 -4 -4 -4 -4 -4 -4 -4 -4 -4 -4 -4 -4 -4 -4 -4 -4 -4 -4 -4 -3 -1 6 33 87 106 55 14 0 -3 -4 -4 -4 -4 -4 -3 -2 2 25 78 108 58 15 0 -3 -3 -3 -2 5 34 94 
94 35 7 6 24 62 103 103 62 24 5 -1 -3 -3 -3 0 15 52 101 101 52 15 0 -3 -3 -4 -4 -4 -4 -4 -4 -4 -4 -4 -3 -1 8 36 88 107 58 16 0 -3 -3 -4 -4 -3 -2 2 24 78 108 58 15 0 -3 -4 -4 -4 -4 -4 -4 -4 -4 -4 -4 -4 -4 -4 -4 -4 -4 -4 -4 -4 -4 -4 -4 -3 0 14 55 106 87 33 6 -1 -3 -4 -4 -4 -4 -4 -3 -2 5 33 91 100 42 8 -1 -3 -4 -3 -2 5 34 94 
94 34 6 0 5 24 62 103 103 62 24 5 -1 -2 -1 8 36 86 108 66 23 3 -2 -3 -4 -4 -4 -4 -4 -4 -4 -4 -4 -3 -2 3 23 67 108 85 33 6 -1 -3 -4 -4 -4 -4 -3 0 15 58 108 78 24 2 -2 -3 -4 -4 -4 -4 -4 -4 -4 -4 -4 -4 -4 -4 -4 -4 -4 -4 -4 -4 -4 -4 -3 -2 3 26 80 108 60 17 0 -3 -3 -4 -4 -4 -4 -4 -3 -1 8 42 100 91 33 5 -2 -3 -4 -3 -2 5 34 94 
94 34 5 -1 -1 5 24 62 103 103 62 24 6 0 4 23 66 108 86 36 8 -1 -3 -4 -4 -4 -4 -4 -4 -4 -4 -4 -3 -3 0 14 52 101 101 52 14 0 -3 -3 -4 -4 -4 -4 -3 -1 8 43 101 89 31 4 -2 -3 -4 -4 -4 -4 -4 -4 -4 -4 -4 -4 -4 -4 -4 -4 -4 -4 -4 -4 -4 -4 -3 -1 8 40 97 97 40 8 -1 -3 -4 -4 -4 -4 -4 -4 -3 0 15 58 108 78 25 2 -2 -3 -4 -3 -2 5 34 94 
94 34 5 -2 -3 -1 5 24 62 103 103 62 25 10 18 53 101 101 52 15 0 -3 -3 -4 -4 -4 -4 -4 -4 -4 -4 -4 -3 -1 6 33 85 108 67 23 3 -2 -3 -4 -4 -4 -4 -4 -3 -2 6 36 96 93 34 5 -2 -3 -4 -4 -4 -4 -4 -4 -4 -4 -4 -4 -4 -4 -4 -4 -4 -4 -4 -4 -4 -3 -3 0 17 60 108 80 26 3 -2 -3 -4 -4 -4 -4 -4 -3 -2 2 25 78 108 58 15 0 -3 -4 -4 -3 -2 5 34 94 
94 34 5 -2 -3 -3 -1 5 24 62 103 103 65 36 45 88 108 66 23 3 -2 -3 -4 -4 -4 -4 -4 -4 -4 -4 -4 -3 -3 0 16 58 107 88 36 8 -1 -3 -4 -4 -4 -4 -4 -4 -3 -2 5 34 93 96 36 6 -2 -3 -4 -4 -4 -4 -4 -4 -4 -4 -4 -4 -4 -4 -4 -4 -4 -4 -4 -4 -4 -3 -1 6 33 87 106 55 14 0 -3 -4 -4 -4 -4 -4 -4 -3 -2 5 33 91 100 42 8 -1 -3 -4 -4 -3 -2 5 34 94 
94 34 5 -2 -3 -3 -3 -1 5 24 62 104 108 86 90 113 87 35 8 -1 -3 -4 -4 -4 -4 -4 -4 -4 -4 -4 -4 -3 -1 6 34 87 107 58 17 1 -3 -3 -4 -4 -4 -4 -4 -4 -3 -2 4 31 89 101 43 8 -1 -3 -4 -4 -4 -4 -4 -4 -4 -4 -4 -4 -4 -4 -4 -4 -4 -4 -4 -4 -4 -3 0 14 55 106 87 33 6 -1 -3 -4 -4 -4 -4 -4 -4 -3 -1 8 42 100 91 33 5 -2 -3 -4 -4 -3 -2 5 34 94 
94 34 5 -2 -3 -4 -3 -3 -1 5 25 63 110 136 136 107 52 15 0 -3 -3 -4 -4 -4 -4 -4 -4 -4 -4 -4 -3 -3 1 17 58 107 87 34 6 -1 -3 -4 -4 -4 -4 -4 -4 -4 -3 -2 2 24 78 108 58 15 0 -3 -4 -4 -4 -4 -4 -4 -4 -4 -4 -4 -4 -4 -4 -4 -4 -4 -4 -4 -3 -2 3 26 80 108 60 17 0 -3 -3 -4 -4 -4 -4 -4 -4 -3 0 15 58 108 78 25 2 -2 -3 -4 -4 -3 -2 5 34 94 
94 34 5 -2 -3 -4 -4 -3 -3 -1 6 27 73 133 133 72 24 3 -2 -3 -4 -4 -4 -4 -4 -4 -4 -4 -4 -4 -3 -1 8 36 88 107 58 16 0 -3 -3 -4 -4 -4 -4 -4 -4 -4 -4 -3 0 15 58 108 78 24 2 -2 -3 -4 -4 -4 -4 -4 -4 -4 -4 -4 -4 -4 -4 -4 -4 -4 -4 -4 -3 -1 8 40 97 97 40 8 -1 -3 -4 -4 -4 -4 -4 -4 -3 -2 2 25 78 108 58 15 0 -3 -4 -4 -4 -3 -2 5 34 94 
94 34 5 -2 -3 -4 -4 -4 -3 -3 0 11 46 108 111 48 11 0 -3 -4 -4 -4 -4 -4 -4 -4 -4 -4 -4 -3 -2 3 23 67 108 85 33 6 -1 -3 -4 -4 -4 -4 -4 -4 -4 -4 -4 -3 -1 8 43 101 89 31 4 -2 -3 -4 -4 -4 -4 -4 -4 -4 -4 -4 -4 -4 -4 -4 -4 -4 -4 -3 -3 0 17 60 108 80 26 3 -2 -3 -4 -4 -4 -4 -4 -4 -3 -2 5 33 91 100 42 8 -1 -3 -4 -4 -4 -3 -2 5 34 94 
94 34 5 -2 -3 -4 -4 -4 -4 -3 -2 5 34 93 104 45 9 -1 -3 -4 -4 -4 -4 -4 -4 -4 -4 -4 -3 -3 0 14 52 101 101 52 14 0 -3 -3 -4 -4 -4 -4 -4 -4 -4 -4 -4 -3 -2 6 36 96 93 34 5 -2 -3 -4 -4 -4 -4 -4 -4 -4 -4 -4 -4 -4 -4 -4 -4 -4 -4 -3 -1 6 33 87 106 55 14 0 -3 -4 -4 -4 -4 -4 -4 -4 -3 -1 8 42 100 91 33 5 -2 -3 -4 -4 -4 -3 -2 5 34 94 
94 34 5 -2 -3 -4 -4 -4 -4 -3 -2 2 25 78 109 58 15 0 -3 -4 -4 -4 -4 -4 -4 -4 -4 -4 -3 -1 6 33 85 108 67 23 3 -2 -3 -4 -4 -4 -4 -4 -4 -4 -4 -4 -4 -3 -2 5 35 94 94 35 5 -2 -3 -4 -4 -4 -4 -4 -4 -4 -4 -4 -4 -4 -4 -4 -4 -4 -4 -3 0 14 55 106 87 33 6 -1 -3 -4 -4 -4 -4 -4 -4 -4 -3 0 15 58 108 78 25 2 -2 -3 -4 -4 -4 -3 -2 5 34 94 
94 34 5 -2 -3 -4 -4 -4 -4 -4 -3 0 15 58 108 78 24 2 -2 -3 -4 -4 -4 -4 -4 -4 -4 -3 -3 0 16 58 107 88 36 8 -1 -3 -4 -4 -4 -4 -4 -4 -4 -4 -4 -4 -4 -3 -2 5 34 93 96 36 6 -2 -3 -4 -4 -4 -4 -4 -4 -4 -4 -4 -4 -4 -4 -4 -4 -4 -3 -2 3 26 80 108 60 17 0 -3 -3 -4 -4 -4 -4 -4 -4 -3 -2 2 25 78 108 58 15 0 -3 -4 -4 -4 -4 -3 -2 5 34 94 
94 34 5 -2 -3 -4 -4 -4 -4 -4 -3 -1 8 42 100 89 31 4 -2 -3 -4 -4 -4 -4 -4 -4 -4 -3 -1 6 34 87 107 58 17 1 -3 -3 -4 -4 -4 -4 -4 -4 -4 -4 -4 -4 -4 -3 -2 4 31 89 101 43 8 -1 -3 -4 -4 -4 -4 -4 -4 -4 -4 -4 -4 -4 -4 -4 -4 -4 -3 -1 8 40 97 97 40 8 -1 -3 -4 -4 -4 -4 -4 -4 -4 -3 -2 5 33 91 100 42 8 -1 -3 -4 -4 -4 -4 -3 -2 5 35 95 
95 34 5 -2 -3 -4 -4 -4 -4 -4 -3 -2 6 36 95 95 36 6 -2 -3 -4 -4 -4 -4 -4 -4 -3 -3 1 17 58 107 87 34 6 -1 -3 -4 -4 -4 -4 -4 -4 -4 -4 -4 -4 -4 -4 -3 -2 2 24 78 108 58 15 0 -3 -4 -4 -4 -4 -4 -4 -4 -4 -4 -4 -4 -4 -4 -4 -3 -3 0 17 60 108 80 26 3 -2 -3 -4 -4 -4 -4 -4 -4 -4 -3 -1 8 42 100 91 33 5 -2 -3 -4 -4 -4 -4 -3 -2 6 37 97 
96 34 5 -2 -3 -4 -4 -4 -4 -4 -3 -2 4 31 89 100 42 8 -1 -3 -4 -4 -4 -4 -4 -4 -3 -1 8 36 88 107 58 16 0 -3 -3 -4 -4 -4 -4 -4 -4 -4 -4 -4 -4 -4 -4 -4 -3 0 15 58 108 78 24 2 -2 -3 -4 -4 -4 -4 -4 -4 -4 -4 -4 -4 -4 -4 -4 -3 -1 6 33 87 106 55 14 0 -3 -4 -4 -4 -4 -4 -4 -4 -4 -3 0 15 58 108 78 25 2 -2 -3 -4 -4 -4 -4 -3 -1 9 43 105 
100 34 5 -2 -3 -4 -4 -4 -4 -4 -3 -2 2 24 78 108 58 15 0 -3 -4 -4 -4 -4 -4 -3 -2 3 23 67 108 85 33 6 -1 -3 -4 -4 -4 -4 -4 -4 -4 -4 -4 -4 -4 -4 -4 -4 -3 -1 8 43 101 89 31 4 -2 -3 -4 -4 -4 -4 -4 -4 -4 -4 -4 -4 -4 -4 -4 -3 0 14 55 106 87 33 6 -1 -3 -4 -4 -4 -4 -4 -4 -4 -3 -2 2 25 78 108 58 15 0 -3 -4 -4 -4 -4 -3 -3 1 17 62 124 
102 34 5 -2 -3 -4 -4 -4 -4 -4 -4 -3 0 15 58 108 78 24 2 -2 -3 -4 -4 -4 -3 -3 0 14 52 101 101 52 14 0 -3 -3 -4 -4 -4 -4 -4 -4 -4 -4 -4 -4 -4 -4 -4 -4 -3 -2 6 36 96 93 34 5 -2 -3 -4 -4 -4 -4 -4 -4 -4 -4 -4 -4 -4 -4 -3 -2 3 26 80 108 60 17 0 -3 -3 -4 -4 -4 -4 -4 -4 -4 -3 -2 5 33 91 100 42 8 -1 -3 -4 -4 -4 -4 -3 -1 8 36 94 145 
101 34 5 -2 -3 -4 -4 -4 -4 -4 -4 -3 -1 8 42 100 89 31 4 -2 -3 -4 -4 -4 -3 -1 6 33 85 108 67 23 3 -2 -3 -4 -4 -4 -4 -4 -4 -4 -4 -4 -4 -4 -4 -4 -4 -4 -3 -2 5 35 94 94 35 5 -2 -3 -4 -4 -4 -4 -4 -4 -4 -4 -4 -4 -4 -4 -3 -1 8 40 97 97 40 8 -1 -3 -4 -4 -4 -4 -4 -4 -4 -4 -3 -1 8 42 100 91 33 5 -2 -3 -4 -4 -4 -3 -2 3 23 67 123 148 
99 34 5 -2 -3 -4 -4 -4 -4 -4 -4 -3 -2 6 36 95 95 36 6 -2 -3 -4 -4 -3 -3 0 16 58 107 88 36 8 -1 -3 -4 -4 -4 -4 -4 -4 -4 -4 -4 -4 -4 -4 -4 -4 -4 -4 -3 -2 5 34 93 96 36 6 -2 -3 -4 -4 -4 -4 -4 -4 -4 -4 -4 -4 -4 -3 -3 0 17 60 108 80 26 3 -2 -3 -4 -4 -4 -4 -4 -4 -4 -4 -3 0 15 58 108 78 25 2 -2 -3 -4 -4 -3 -3 0 15 52 104 128 134 
96 34 5 -2 -3 -4 -4 -4 -4 -4 -4 -3 -2 4 31 89 100 42 8 -1 -3 -4 -4 -3 -1 6 34 87 107 58 17 1 -3 -3 -4 -4 -4 -4 -4 -4 -4 -4 -4 -4 -4 -4 -4 -4 -4 -4 -3 -2 4 31 89 101 43 8 -1 -3 -4 -4 -4 -4 -4 -4 -4 -4 -4 -4 -4 -3 -1 6 33 87 106 55 14 0 -3 -4 -4 -4 -4 -4 -4 -4 -4 -3 -2 2 25 78 108 58 15 0 -3 -4 -4 -4 -3 -1 8 35 87 114 101 116 
95 34 5 -2 -3 -4 -4 -4 -4 -4 -4 -3 -2 2 24 78 108 58 15 0 -3 -3 -3 -3 1 17 58 107 87 34 6 -1 -3 -4 -4 -4 -4 -4 -4 -4 -4 -4 -4 -4 -4 -4 -4 -4 -4 -4 -3 -2 2 24 78 108 58 15 0 -3 -3 -3 -4 -4 -4 -4 -4 -4 -4 -4 -4 -3 0 14 55 106 87 33 6 -1 -3 -4 -4 -4 -4 -4 -4 -4 -4 -3 -2 5 33 91 100 42 8 -1 -3 -4 -4 -3 -2 3 23 66 109 94 73 104 
95 34 5 -2 -3 -4 -4 -4 -4 -4 -4 -4 -3 0 15 58 108 78 24 2 -2 -3 -3 -1 8 36 88 107 58 16 0 -3 -3 -4 -4 -4 -4 -4 -4 -4 -4 -4 -4 -4 -4 -4 -4 -4 -4 -4 -4 -3 0 15 58 109 79 26 4 -1 -2 -2 -3 -3 -3 -3 -3 -3 -3 -3 -3 -2 3 26 80 108 60 17 0 -3 -3 -4 -4 -4 -4 -4 -4 -4 -4 -3 -1 8 42 100 91 33 5 -2 -3 -4 -3 -3 0 15 52 101 102 61 53 98 
94 34 5 -2 -3 -4 -4 -4 -4 -4 -4 -4 -3 -1 8 42 100 89 31 4 -2 -3 -2 3 23 67 108 85 33 6 -1 -3 -4 -4 -4 -4 -4 -4 -4 -4 -4 -4 -4 -4 -4 -4 -4 -4 -4 -4 -3 -3 0 10 46 105 95 40 13 6 4 2 0 -1 -2 -2 -2 -2 -2 -3 -3 -1 8 40 97 97 40 8 -1 -3 -4 -4 -4 -4 -4 -4 -4 -4 -4 -3 0 15 58 108 78 25 2 -2 -3 -4 -3 -1 8 36 86 108 68 32 42 96 
94 34 5 -2 -3 -4 -4 -4 -4 -4 -4 -4 -3 -2 6 36 95 95 36 6 -2 -2 0 14 52 101 101 52 14 0 -3 -3 -4 -4 -4 -4 -4 -4 -4 -4 -4 -4 -4 -4 -4 -4 -4 -4 -4 -3 -3 -2 2 15 51 113 116 68 43 35 31 24 15 8 6 5 5 4 2 0 0 2 18 61 109 80 26 3 -2 -3 -4 -4 -4 -4 -4 -4 -4 -4 -3 -2 2 25 78 108 58 15 0 -3 -3 -3 -2 3 23 66 108 86 37 17 37 95 
94 34 5 -2 -3 -4 -4 -4 -4 -4 -4 -4 -3 -2 4 31 89 100 42 8 -1 -1 6 33 85 108 67 23 3 -2 -3 -4 -4 -4 -4 -4 -4 -4 -4 -4 -4 -4 -4 -4 -4 -4 -4 -4 -3 -3 -1 3 15 39 80 135 144 115 99 94 89 78 58 43 36 35 34 31 24 15 10 15 40 90 107 55 14 0 -3 -4 -4 -4 -4 -4 -4 -4 -4 -4 -3 -2 5 33 91 100 42 8 -1 -3 -3 -3 0 15 52 101 101 52 17 10 35 94 
94 34 5 -2 -3 -4 -4 -4 -4 -4 -4 -4 -3 -2 2 24 78 108 58 15 1 1 16 58 107 88 36 8 -1 -3 -4 -4 -4 -4 -4 -4 -4 -4 -4 -4 -4 -4 -4 -4 -4 -4 -3 -3 -2 0 8 23 52 88 115 124 113 101 96 96 101 108 108 101 96 94 93 89 78 58 46 51 80 117 90 34 6 -1 -3 -4 -4 -4 -4 -4 -4 -4 -4 -4 -3 -1 8 42 100 91 33 5 -2 -3 -3 -1 8 36 86 108 66 23 5 7 35 94 
94 34 5 -2 -3 -4 -4 -4 -4 -4 -4 -4 -4 -3 0 15 58 108 78 25 5 7 34 87 107 58 17 1 -3 -3 -4 -4 -4 -4 -4 -4 -4 -4 -4 -4 -4 -4 -4 -4 -4 -3 -3 -1 3 15 36 66 101 109 89 62 44 37 35 37 43 58 78 89 93 94 96 101 108 109 104 112 135 132 71 21 2 -2 -3 -4 -4 -4 -4 -4 -4 -4 -4 -4 -3 0 15 58 108 78 25 2 -2 -3 -2 3 23 66 108 86 36 8 0 6 34 94 
94 34 5 -2 -3 -4 -4 -4 -4 -4 -4 -4 -4 -3 -1 8 42 100 90 32 10 18 58 107 87 34 6 -1 -3 -4 -4 -4 -4 -4 -4 -4 -4 -4 -4 -4 -4 -4 -4 -4 -3 -2 0 8 23 52 86 108 101 67 36 17 9 6 5 6 8 15 24 31 34 35 36 43 58 78 93 109 135 132 71 21 2 -2 -3 -4 -4 -4 -4 -4 -4 -4 -4 -3 -2 2 25 78 108 58 15 0 -3 -2 0 15 52 101 101 52 15 1 -1 5 34 94 
94 34 5 -2 -3 -4 -4 -4 -4 -4 -4 -4 -4 -3 -2 6 36 95 95 38 18 38 88 107 58 16 0 -3 -3 -4 -4 -4 -4 -4 -4 -4 -4 -4 -4 -4 -4 -4 -3 -3 -1 3 15 35 66 101 108 86 52 23 8 1 -1 -2 -2 -2 -1 0 2 4 5 5 6 8 15 25 34 48 80 117 92 38 9 0 -2 -3 -3 -3 -3 -3 -3 -3 -3 -3 -2 5 33 91 100 42 8 -1 -3 -1 8 36 86 108 66 23 3 -2 -2 5 34 94 
94 34 5 -2 -3 -4 -4 -4 -4 -4 -4 -4 -4 -3 -2 4 31 89 102 50 36 69 109 85 33 6 -1 -3 -4 -4 -4 -4 -4 -4 -4 -4 -4 -4 -4 -4 -4 -3 -3 0 5 21 51 86 108 101 66 36 15 3 -1 -3 -3 -3 -3 -3 -3 -3 -2 -2 -2 -2 -2 -1 0 3 6 14 39 88 110 69 28 9 1 -1 -2 -2 -2 -2 -2 -2 -2 -1 0 10 43 100 92 33 5 -1 -2 3 23 66 108 86 36 8 -1 -3 -2 5 34 94 
94 34 5 -2 -3 -4 -4 -4 -4 -4 -4 -4 -4 -3 -2 2 24 78 111 75 70 104 101 52 14 0 -3 -3 -4 -4 -4 -4 -4 -4 -4 -4 -4 -4 -4 -3 -3 -2 0 8 26 61 100 108 86 52 23 8 0 -2 -3 -3 -4 -4 -4 -4 -4 -4 -3 -3 -3 -3 -3 -3 -3 -2 -1 2 15 53 103 110 71 37 18 9 6 5 5 5 5 5 5 6 9 23 64 112 81 27 4 -1 1 15 52 101 101 52 15 0 -3 -3 -2 5 34 94 
94 34 5 -2 -3 -4 -4 -4 -4 -4 -4 -4 -4 -4 -3 0 15 58 113 109 109 112 67 23 3 -2 -3 -4 -4 -4 -4 -4 -4 -4 -4 -4 -4 -4 -3 -3 -1 3 15 36 68 104 104 68 36 15 3 -1 -3 -3 -4 -4 -4 -4 -4 -4 -4 -4 -4 -4 -4 -4 -4 -4 -4 -3 -3 -2 4 24 71 126 129 94 62 43 37 35 34 34 34 34 35 35 40 59 102 125 72 24 5 1 9 36 86 108 66 23 3 -2 -3 -3 -2 5 34 94 
94 34 5 -2 -3 -4 -4 -4 -4 -4 -4 -4 -4 -4 -3 -1 8 43 107 135 129 90 36 8 -1 -3 -4 -4 -4 -4 -4 -4 -4 -4 -4 -4 -3 -3 -2 0 8 23 52 86 108 100 61 26 8 0 -2 -3 -3 -4 -4 -4 -4 -4 -4 -4 -4 -4 -4 -4 -4 -4 -4 -4 -4 -4 -3 -3 0 11 49 116 147 128 113 101 96 95 94 94 94 94 94 95 99 113 141 140 88 43 20 14 27 68 108 86 36 8 -1 -3 -4 -3 -2 5 34 94 
94 34 5 -2 -3 -4 -4 -4 -4 -4 -4 -4 -4 -4 -3 -2 6 36 104 148 120 58 16 1 -3 -3 -4 -4 -4 -4 -4 -4 -4 -4 -4 -3 -3 -1 3 15 35 66 101 108 86 51 21 5 0 -3 -3 -4 -4 -4 -4 -4 -4 -4 -4 -4 -4 -4 -4 -4 -4 -4 -4 -4 -4 -4 -4 -3 -1 9 46 109 118 87 85 90 93 94 94 94 94 94 94 95 96 100 113 125 117 91 62 49 67 106 103 52 15 0 -3 -3 -4 -3 -2 5 34 94 
94 34 5 -2 -3 -4 -4 -4 -4 -4 -4 -4 -4 -4 -3 -2 5 34 103 144 92 33 6 -1 -3 -4 -4 -4 -4 -4 -4 -4 -4 -3 -3 -2 0 8 23 52 86 108 101 67 36 15 3 -1 -3 -3 -4 -4 -4 -4 -4 -4 -4 -4 -4 -4 -4 -4 -4 -4 -4 -4 -4 -4 -4 -4 -4 -3 0 15 58 111 87 43 31 32 34 34 34 34 34 34 34 34 35 37 44 62 88 108 111 108 121 123 73 25 4 -2 -3 -4 -4 -3 -2 5 34 94 
94 34 5 -2 -3 -4 -4 -4 -4 -4 -4 -4 -4 -4 -3 -2 5 34 100 124 62 17 0 -3 -3 -4 -4 -4 -4 -4 -3 -3 -3 -2 0 3 14 35 67 103 110 88 54 24 8 1 -2 -3 -3 -4 -4 -4 -4 -4 -4 -4 -4 -4 -4 -4 -4 -4 -4 -4 -4 -4 -4 -4 -4 -4 -3 -2 2 24 78 109 60 19 7 5 5 5 5 5 5 5 5 5 5 6 9 17 34 58 90 121 148 124 58 16 1 -3 -3 -4 -4 -3 -2 5 34 94 
94 34 5 -2 -3 -4 -4 -4 -4 -4 -4 -4 -4 -4 -3 -2 5 35 97 105 43 8 -1 -3 -4 -4 -4 -4 -3 -3 -3 -1 0 3 9 24 52 91 120 115 78 45 23 10 3 0 -1 -2 -3 -3 -3 -3 -3 -4 -4 -4 -4 -4 -4 -4 -4 -4 -4 -4 -4 -4 -4 -4 -4 -4 -3 -2 4 31 89 101 43 9 0 -2 -2 -2 -2 -2 -2 -2 -2 -2 -2 -2 -1 1 6 17 37 70 117 125 73 25 4 -2 -3 -4 -4 -3 -2 5 34 94 
94 34 5 -2 -3 -4 -4 -4 -4 -4 -4 -4 -4 -4 -3 -2 6 36 97 96 36 6 -2 -3 -4 -4 -3 -3 -3 -1 0 6 14 27 43 70 112 144 143 108 69 47 36 26 15 8 5 2 0 -1 -2 -2 -2 -3 -3 -3 -3 -4 -4 -4 -4 -4 -4 -4 -4 -4 -4 -4 -4 -4 -3 -2 5 34 93 96 36 6 -1 -3 -3 -3 -3 -3 -3 -3 -3 -3 -3 -3 -3 -3 -1 1 8 26 64 108 103 52 15 0 -3 -3 -4 -3 -2 5 34 94 
94 34 5 -2 -3 -4 -4 -4 -4 -4 -4 -4 -4 -4 -3 -1 8 43 101 90 31 4 -2 -3 -3 -3 -2 -1 1 6 16 33 55 80 98 114 121 121 125 121 106 97 90 78 58 42 33 25 15 8 6 4 2 0 -1 -2 -2 -3 -3 -3 -3 -3 -4 -4 -4 -4 -4 -4 -4 -4 -3 -2 6 36 96 93 34 5 -2 -3 -4 -4 -4 -4 -4 -4 -4 -4 -4 -4 -4 -3 -3 -2 0 6 26 68 109 86 36 8 -1 -3 -4 -3 -2 5 34 94 
94 34 5 -2 -3 -4 -4 -4 -4 -4 -4 -4 -4 -4 -3 0 15 58 108 78 25 2 -2 -2 -1 0 3 8 17 34 58 87 106 108 97 81 61 51 60 79 90 95 101 108 108 100 91 78 58 42 36 31 24 15 8 5 2 0 -1 -2 -2 -2 -3 -3 -3 -3 -4 -4 -4 -4 -3 -1 8 43 101 89 31 4 -2 -3 -4 -4 -4 -4 -4 -4 -4 -4 -4 -4 -4 -4 -4 -3 -3 0 8 36 86 108 66 23 3 -2 -3 -3 -2 5 34 94 
94 34 5 -2 -3 -4 -4 -4 -4 -4 -4 -4 -4 -3 -2 2 24 78 108 58 15 1 -1 0 6 14 26 40 60 87 107 107 87 60 40 27 16 11 15 25 31 36 42 58 78 91 100 108 108 100 95 89 78 57 42 33 25 15 8 6 4 2 0 -1 -2 -2 -3 -3 -3 -3 -3 0 15 58 108 78 24 2 -2 -3 -4 -4 -4 -4 -4 -4 -4 -4 -4 -4 -4 -4 -4 -4 -3 -3 0 15 52 101 101 52 15 0 -2 -3 -2 5 34 94 
94 34 5 -2 -3 -4 -4 -4 -4 -4 -4 -4 -4 -3 -2 4 31 89 101 43 10 3 6 16 33 55 80 97 108 106 87 58 34 17 8 3 0 0 0 2 4 6 8 15 25 33 42 57 78 89 95 100 108 108 100 91 78 58 42 36 31 24 15 8 5 2 0 -1 -2 -2 -1 3 25 78 108 58 15 0 -3 -4 -4 -4 -4 -4 -4 -4 -4 -4 -4 -4 -4 -4 -4 -4 -4 -3 -2 3 23 66 108 86 36 8 0 -3 -2 5 34 94 
94 34 5 -2 -3 -4 -4 -4 -4 -4 -4 -4 -4 -3 -2 6 36 95 97 41 16 18 34 58 87 106 108 97 80 55 33 16 6 1 -1 -2 -3 -3 -3 -2 -2 -2 -1 0 2 5 8 15 24 31 36 42 58 78 91 100 108 108 100 95 89 78 57 42 33 25 15 8 6 4 4 8 33 90 101 43 8 -1 -3 -4 -4 -4 -4 -4 -4 -4 -4 -4 -4 -4 -4 -4 -4 -4 -4 -4 -3 -1 8 35 86 108 68 26 5 -1 -1 5 34 94 
94 34 5 -2 -3 -4 -4 -4 -4 -4 -4 -4 -4 -3 -1 9 43 103 100 52 42 59 87 107 107 87 60 40 26 14 6 0 -1 -3 -3 -3 -4 -4 -4 -3 -3 -3 -3 -3 -2 -2 -1 0 2 4 6 8 15 25 33 42 57 78 89 95 100 108 108 100 91 78 58 42 36 32 26 24 45 99 97 36 6 -2 -3 -4 -4 -4 -4 -4 -4 -4 -4 -4 -4 -4 -4 -4 -4 -4 -4 -4 -3 -3 0 15 51 100 104 61 21 3 0 5 34 94 
94 34 5 -2 -3 -4 -4 -4 -4 -4 -4 -4 -3 -3 0 17 62 121 115 87 93 108 107 87 58 34 17 8 3 0 -2 -3 -3 -3 -4 -4 -4 -4 -4 -4 -4 -4 -4 -4 -3 -3 -3 -3 -2 -2 -2 -1 0 2 5 8 15 24 31 36 42 58 78 91 100 108 108 100 95 90 79 66 76 116 98 35 5 -2 -3 -4 -4 -4 -4 -4 -4 -4 -4 -4 -4 -4 -4 -4 -4 -4 -4 -4 -4 -3 -2 3 21 61 104 100 51 15 2 6 35 94 
94 34 5 -2 -3 -4 -4 -4 -4 -4 -4 -4 -3 -1 6 34 93 146 137 120 108 87 58 33 16 6 1 -1 -2 -3 -3 -3 -4 -4 -4 -4 -4 -4 -4 -4 -4 -4 -4 -4 -4 -4 -4 -4 -3 -3 -3 -3 -3 -2 -2 -1 0 2 4 6 8 15 25 33 42 57 78 89 95 101 109 114 124 144 102 34 5 -2 -3 -4 -4 -4 -4 -4 -4 -4 -4 -4 -4 -4 -4 -4 -4 -4 -4 -4 -4 -4 -3 -1 5 26 68 108 86 36 10 8 35 94 
94 34 5 -2 -3 -4 -4 -4 -4 -4 -4 -3 -3 1 17 59 118 131 107 82 55 33 16 6 0 -1 -3 -3 -3 -4 -4 -4 -4 -4 -4 -4 -4 -4 -4 -4 -4 -4 -4 -4 -4 -4 -4 -4 -4 -4 -4 -4 -4 -3 -3 -3 -3 -2 -2 -2 -1 0 2 5 8 15 24 31 36 43 59 84 114 142 102 34 5 -2 -3 -4 -4 -4 -4 -4 -4 -4 -4 -4 -4 -4 -4 -4 -4 -4 -4 -4 -4 -4 -4 -3 0 8 36 86 108 68 28 15 37 95 
94 34 5 -2 -3 -4 -4 -4 -4 -4 -4 -3 -1 8 36 89 114 78 45 27 14 6 0 -1 -3 -3 -3 -4 -4 -4 -4 -4 -4 -4 -4 -4 -4 -4 -4 -4 -4 -4 -4 -4 -4 -4 -4 -4 -4 -4 -4 -4 -4 -4 -4 -4 -4 -3 -3 -3 -3 -3 -2 -2 -1 0 2 4 6 8 16 33 65 114 98 34 5 -2 -3 -4 -4 -4 -4 -4 -4 -4 -4 -4 -4 -4 -4 -4 -4 -4 -4 -4 -4 -4 -4 -3 -3 0 15 51 100 104 63 31 42 96 
95 34 5 -2 -3 -4 -4 -4 -4 -4 -3 -2 3 23 67 109 87 38 13 4 0 -1 -3 -3 -3 -4 -4 -4 -4 -4 -4 -4 -4 -4 -4 -4 -4 -4 -4 -4 -4 -4 -4 -4 -4 -4 -4 -4 -4 -4 -4 -4 -4 -4 -4 -4 -4 -4 -4 -4 -4 -4 -3 -3 -3 -3 -2 -2 -2 -1 1 12 42 99 95 34 5 -2 -3 -4 -4 -4 -4 -4 -4 -4 -4 -4 -4 -4 -4 -4 -4 -4 -4 -4 -4 -4 -4 -4 -3 -2 3 21 61 104 101 60 53 98 
95 34 5 -2 -3 -4 -4 -4 -4 -3 -3 0 15 52 101 101 52 15 1 -2 -3 -3 -3 -4 -4 -4 -4 -4 -4 -4 -4 -4 -4 -4 -4 -4 -4 -4 -4 -4 -4 -4 -4 -4 -4 -4 -4 -4 -4 -4 -4 -4 -4 -4 -4 -4 -4 -4 -4 -4 -4 -4 -4 -4 -4 -4 -3 -3 -3 -3 -1 6 36 95 95 35 5 -2 -3 -4 -4 -4 -4 -4 -4 -4 -4 -4 -4 -4 -4 -4 -4 -4 -4 -4 -4 -4 -4 -4 -4 -3 -1 5 26 68 109 94 72 104 
96 34 5 -2 -3 -4 -4 -4 -3 -3 0 8 36 86 108 67 23 3 -2 -3 -3 -4 -4 -4 -4 -4 -4 -4 -4 -4 -4 -4 -4 -4 -4 -4 -4 -4 -4 -4 -4 -4 -4 -4 -4 -4 -4 -4 -4 -4 -4 -4 -4 -4 -4 -4 -4 -4 -4 -4 -4 -4 -4 -4 -4 -4 -4 -4 -4 -3 -2 5 34 94 97 37 6 -1 -3 -4 -4 -4 -4 -4 -4 -4 -4 -4 -4 -4 -4 -4 -4 -4 -4 -4 -4 -4 -4 -4 -4 -4 -3 0 8 36 87 114 101 116 
99 34 5 -2 -3 -4 -4 -3 -3 -1 6 26 68 109 88 37 9 0 -3 -3 -3 -3 -3 -3 -3 -3 -3 -3 -3 -4 -4 -4 -4 -4 -4 -4 -4 -4 -4 -4 -4 -4 -4 -4 -4 -4 -4 -4 -4 -4 -4 -4 -4 -4 -4 -4 -4 -4 -4 -4 -4 -4 -4 -4 -4 -4 -4 -4 -4 -3 -1 6 35 94 104 47 11 0 -2 -3 -3 -4 -4 -4 -4 -4 -4 -4 -4 -4 -4 -4 -4 -4 -4 -4 -4 -4 -4 -4 -4 -4 -3 -3 0 15 52 104 128 134 
101 34 5 -2 -3 -4 -3 -3 -1 5 24 63 107 107 60 23 7 1 -1 -2 -2 -2 -2 -2 -2 -2 -2 -2 -2 -3 -3 -3 -3 -3 -3 -3 -3 -3 -3 -3 -4 -4 -4 -4 -4 -4 -4 -4 -4 -4 -4 -4 -4 -4 -4 -4 -4 -4 -4 -4 -4 -4 -4 -4 -4 -4 -4 -3 -3 -2 1 12 42 100 124 74 29 9 1 -1 -3 -3 -4 -4 -4 -4 -4 -4 -4 -4 -4 -4 -4 -4 -4 -4 -4 -4 -4 -4 -4 -4 -4 -3 -2 3 23 67 123 148 
102 34 5 -2 -3 -3 -3 -1 5 24 63 113 128 95 58 38 26 15 8 6 5 5 5 5 5 5 5 4 2 0 -1 -2 -2 -2 -2 -2 -2 -2 -2 -2 -3 -3 -3 -3 -3 -3 -3 -3 -3 -3 -3 -3 -4 -4 -4 -4 -4 -4 -4 -4 -4 -4 -4 -4 -4 -3 -3 -3 -1 3 15 36 70 120 149 120 70 37 17 6 0 -2 -3 -3 -4 -4 -4 -4 -4 -4 -4 -4 -4 -4 -4 -4 -4 -4 -4 -4 -4 -4 -4 -4 -3 -1 8 36 94 145 
100 34 5 -2 -3 -3 -1 5 24 63 115 148 139 116 100 91 78 58 43 36 35 34 34 34 34 34 33 31 24 15 8 6 5 5 5 5 5 5 4 2 0 -1 -2 -2 -2 -2 -2 -2 -2 -2 -2 -2 -3 -3 -3 -3 -3 -3 -3 -3 -3 -3 -3 -3 -3 -3 -1 1 8 23 52 86 111 121 122 123 113 89 58 33 14 3 -1 -3 -3 -3 -4 -4 -4 -4 -4 -4 -4 -4 -4 -4 -4 -4 -4 -4 -4 -4 -4 -4 -3 -3 1 17 62 124 
96 34 5 -2 -3 -1 5 24 62 106 123 114 103 98 97 101 108 108 101 96 95 94 94 94 94 94 93 89 78 58 43 36 35 34 34 34 34 33 31 24 15 8 6 5 5 5 5 5 5 5 4 2 0 -1 -2 -2 -2 -2 -2 -2 -2 -2 -2 -2 -2 0 6 17 36 67 101 109 89 64 53 64 88 107 107 85 52 23 8 1 -1 -3 -3 -4 -4 -4 -4 -4 -4 -4 -4 -4 -4 -4 -4 -4 -4 -4 -4 -4 -4 -3 -1 9 43 105 
95 34 5 -1 0 6 25 62 103 106 72 47 37 35 37 43 58 78 89 93 94 94 94 94 94 95 96 101 108 108 101 96 95 94 94 94 94 93 89 78 58 43 36 35 34 34 34 34 34 33 31 24 15 8 6 5 5 5 5 5 5 4 3 1 4 14 33 58 88 108 101 67 37 18 12 18 34 58 88 108 101 67 36 17 6 0 -2 -3 -3 -4 -4 -4 -4 -4 -4 -4 -4 -4 -4 -4 -4 -4 -4 -4 -4 -3 -2 6 37 97 
94 35 7 2 9 26 63 103 103 63 27 11 6 5 6 8 15 24 31 33 34 34 34 34 34 35 36 43 58 78 89 93 94 94 94 94 95 96 101 108 108 101 96 95 94 94 94 94 94 93 89 78 58 43 36 35 34 34 34 34 33 31 26 20 27 53 85 107 107 85 52 23 8 1 0 1 6 17 36 67 101 108 88 58 33 14 3 -1 -3 -3 -3 -4 -4 -4 -4 -4 -4 -4 -4 -4 -4 -4 -4 -4 -4 -3 -2 5 35 95 
95 37 12 16 36 68 104 103 62 25 6 0 -1 -2 -2 -1 0 2 4 5 5 5 5 5 5 5 6 8 15 24 31 33 34 34 34 34 35 36 43 58 78 89 93 94 94 94 94 94 95 96 101 108 108 101 96 95 94 94 94 94 93 90 81 70 79 105 109 88 58 33 14 3 -1 -2 -3 -3 -1 1 8 23 52 85 107 107 85 52 23 8 1 -1 -3 -3 -4 -4 -4 -4 -4 -4 -4 -4 -4 -4 -4 -4 -4 -3 -2 5 34 94 
96 43 31 53 86 108 100 60 24 5 -1 -3 -3 -3 -3 -3 -3 -2 -2 -2 -2 -2 -2 -2 -2 -2 -2 -1 0 2 4 5 5 5 5 5 5 6 8 15 24 31 33 34 34 34 34 34 35 36 43 58 78 89 93 94 94 94 94 95 97 103 119 133 134 111 69 37 17 6 0 -2 -3 -3 -4 -3 -3 -3 -1 3 14 33 58 88 108 101 67 36 17 6 0 -2 -3 -3 -4 -4 -4 -4 -4 -4 -4 -4 -4 -4 -4 -3 -2 5 34 94 
102 62 69 101 108 86 51 21 5 -1 -3 -3 -4 -4 -4 -4 -4 -3 -3 -3 -3 -3 -3 -3 -3 -3 -3 -3 -3 -2 -2 -2 -2 -2 -2 -2 -2 -2 -1 0 2 4 5 5 5 5 5 5 5 6 8 15 24 31 33 34 34 34 34 35 38 49 83 135 134 74 29 9 1 -1 -3 -3 -4 -4 -4 -4 -4 -3 -3 -2 0 6 17 36 67 101 108 88 58 33 14 3 -1 -3 -3 -3 -4 -4 -4 -4 -4 -4 -4 -4 -4 -3 -2 5 34 95 
116 97 110 105 68 36 15 3 -1 -3 -3 -4 -4 -4 -4 -4 -4 -4 -4 -4 -4 -4 -4 -4 -4 -4 -4 -4 -4 -3 -3 -3 -3 -3 -3 -3 -3 -3 -3 -3 -2 -2 -2 -2 -2 -2 -2 -2 -2 -2 -1 0 2 4 5 5 5 5 5 5 7 17 50 110 110 47 11 0 -2 -3 -3 -4 -4 -4 -4 -4 -4 -4 -4 -3 -3 -1 1 8 23 52 85 107 107 85 52 23 8 1 -1 -3 -3 -3 -4 -4 -4 -4 -4 -4 -4 -3 -2 5 34 97 
139 129 107 63 26 8 0 -2 -3 -4 -4 -4 -4 -4 -4 -4 -4 -4 -4 -4 -4 -4 -4 -4 -4 -4 -4 -4 -4 -4 -4 -4 -4 -4 -4 -4 -4 -4 -4 -4 -3 -3 -3 -3 -3 -3 -3 -3 -3 -3 -3 -3 -2 -2 -2 -2 -2 -2 -2 -2 0 7 38 98 98 37 6 -1 -3 -4 -4 -4 -4 -4 -4 -4 -4 -4 -4 -4 -3 -3 -3 -1 3 14 33 58 88 108 101 67 36 17 6 0 -1 -3 -3 -4 -4 -4 -4 -4 -4 -3 -2 5 34 100 
149 116 64 25 6 0 -3 -3 -4 -4 -4 -4 -4 -4 -4 -4 -4 -4 -4 -4 -4 -4 -4 -4 -4 -4 -4 -4 -4 -4 -4 -4 -4 -4 -4 -4 -4 -4 -4 -4 -4 -4 -4 -4 -4 -4 -4 -4 -4 -4 -4 -4 -3 -3 -3 -3 -3 -3 -3 -3 -2 5 35 95 95 35 5 -2 -3 -4 -4 -4 -4 -4 -4 -4 -4 -4 -4 -4 -4 -4 -3 -3 -2 0 6 17 36 67 101 108 88 58 34 16 6 0 -2 -3 -3 -4 -4 -4 -4 -3 -2 5 34 102 
129 74 27 6 -1 -3 -3 -4 -4 -4 -4 -4 -4 -4 -4 -4 -4 -4 -4 -4 -4 -4 -4 -4 -4 -4 -4 -4 -4 -4 -4 -4 -4 -4 -4 -4 -4 -4 -4 -4 -4 -4 -4 -4 -4 -4 -4 -4 -4 -4 -4 -4 -4 -4 -4 -4 -4 -4 -4 -3 -2 5 34 94 94 34 5 -2 -3 -4 -4 -4 -4 -4 -4 -4 -4 -4 -4 -4 -4 -4 -4 -4 -3 -3 -1 1 8 23 52 85 107 107 87 58 33 14 3 -1 -3 -3 -3 -3 -3 -3 -2 5 34 100 
107 47 11 0 -3 -3 -4 -4 -4 -4 -4 -4 -4 -4 -4 -4 -4 -4 -4 -4 -4 -4 -4 -4 -4 -4 -4 -4 -4 -4 -4 -4 -4 -4 -4 -4 -4 -4 -4 -4 -4 -4 -4 -4 -4 -4 -4 -4 -4 -4 -4 -4 -4 -4 -4 -4 -4 -4 -4 -3 -2 5 34 94 94 34 5 -2 -3 -4 -4 -4 -4 -4 -4 -4 -4 -4 -4 -4 -4 -4 -4 -4 -4 -3 -3 -3 -1 3 14 33 58 87 107 107 85 52 23 8 1 -1 -2 -2 -3 -3 -2 5 34 97 
97 37 6 -1 -3 -4 -4 -4 -4 -4 -4 -4 -4 -4 -4 -4 -4 -4 -4 -4 -4 -4 -4 -4 -4 -4 -4 -4 -4 -4 -4 -4 -4 -4 -4 -4 -4 -4 -4 -4 -4 -4 -4 -4 -4 -4 -4 -4 -4 -4 -4 -4 -4 -4 -4 -4 -4 -4 -4 -3 -2 5 34 94 94 34 5 -2 -3 -4 -4 -4 -4 -4 -4 -4 -4 -4 -4 -4 -4 -4 -4 -4 -4 -4 -4 -3 -3 -2 0 6 16 34 58 88 109 102 67 36 17 8 5 2 0 -1 0 6 35 95 
95 35 5 -2 -3 -4 -4 -4 -4 -4 -4 -4 -4 -4 -4 -4 -4 -4 -4 -4 -4 -4 -4 -4 -4 -4 -4 -4 -4 -4 -4 -4 -4 -4 -4 -4 -4 -4 -4 -4 -4 -4 -4 -4 -4 -4 -4 -4 -4 -4 -4 -4 -4 -4 -4 -4 -4 -4 -4 -3 -2 5 34 94 94 34 5 -2 -3 -4 -4 -4 -4 -4 -4 -4 -4 -4 -4 -4 -4 -4 -4 -4 -4 -4 -4 -4 -4 -3 -3 -1 1 7 18 39 71 109 116 93 62 43 33 25 15 8 7 12 38 96 
96 35 5 -2 -3 -3 -3 -3 -3 -4 -4 -4 -4 -4 -4 -4 -4 -4 -4 -4 -4 -4 -4 -4 -4 -4 -4 -4 -4 -4 -4 -4 -4 -4 -4 -4 -4 -4 -4 -4 -4 -4 -4 -4 -4 -4 -4 -4 -4 -4 -4 -4 -4 -4 -4 -4 -4 -4 -4 -3 -2 5 34 94 94 34 5 -2 -3 -4 -4 -4 -4 -4 -4 -4 -4 -4 -4 -4 -4 -4 -4 -4 -4 -4 -4 -4 -4 -3 -3 -2 -1 2 8 20 44 87 131 146 126 105 92 78 58 42 35 34 52 102 
99 36 7 0 -2 -2 -2 -2 -2 -3 -3 -3 -3 -3 -3 -3 -3 -4 -4 -4 -4 -4 -4 -4 -4 -4 -4 -4 -4 -4 -4 -4 -4 -4 -4 -4 -4 -4 -4 -4 -4 -4 -4 -4 -4 -4 -4 -4 -4 -4 -4 -4 -4 -4 -4 -4 -4 -4 -4 -3 -2 5 34 94 94 34 5 -2 -3 -4 -4 -4 -4 -4 -4 -4 -4 -4 -4 -4 -4 -4 -4 -4 -4 -4 -3 -3 -3 -2 -1 1 6 15 28 43 67 103 130 129 111 101 102 109 108 100 92 86 90 121 
108 43 14 7 5 5 5 4 2 0 -1 -2 -2 -2 -2 -2 -2 -3 -3 -3 -3 -3 -3 -3 -3 -3 -4 -4 -4 -4 -4 -4 -4 -4 -4 -4 -4 -4 -4 -4 -4 -4 -4 -4 -4 -4 -4 -4 -4 -4 -4 -4 -4 -4 -4 -4 -4 -4 -4 -3 -2 5 34 94 94 34 5 -2 -3 -4 -4 -4 -4 -4 -4 -4 -4 -4 -4 -4 -4 -4 -4 -4 -3 -3 -3 -1 0 3 8 17 33 55 80 97 109 108 89 62 44 39 43 58 78 91 101 114 130 148 
123 68 43 36 35 34 33 31 24 15 8 6 5 5 5 4 2 0 -1 -2 -2 -2 -2 -2 -2 -2 -3 -3 -3 -3 -3 -3 -3 -3 -4 -4 -4 -4 -4 -4 -4 -4 -4 -4 -4 -4 -4 -4 -4 -4 -4 -4 -4 -4 -4 -4 -4 -4 -4 -3 -2 5 34 94 94 34 5 -2 -3 -4 -4 -4 -4 -4 -4 -4 -4 -4 -4 -4 -4 -3 -3 -3 -2 -1 0 6 14 26 40 60 87 106 108 97 80 55 33 17 9 7 8 15 25 33 43 64 103 144 
148 119 101 95 94 94 93 89 78 58 43 36 35 34 33 31 24 15 8 6 5 5 5 5 4 2 0 -1 -2 -2 -2 -2 -2 -2 -3 -3 -3 -3 -3 -3 -3 -3 -3 -4 -4 -4 -4 -4 -4 -4 -4 -4 -4 -4 -4 -4 -4 -4 -4 -3 -2 5 34 94 94 34 5 -2 -3 -4 -4 -4 -4 -4 -4 -4 -4 -4 -4 -3 -3 -3 -2 0 3 8 17 33 55 80 97 108 106 87 60 40 26 14 6 0 -1 -1 -1 0 2 5 10 23 59 121 
144 118 101 95 95 95 96 101 108 108 101 96 95 94 93 89 78 58 43 36 35 34 34 33 31 24 15 8 6 5 5 5 4 2 0 -1 -2 -2 -2 -2 -2 -2 -2 -3 -3 -3 -3 -3 -3 -3 -3 -4 -4 -4 -4 -4 -4 -4 -4 -3 -2 5 34 94 94 34 5 -2 -3 -4 -4 -4 -4 -4 -4 -4 -4 -3 -3 -3 -1 0 6 14 26 40 60 87 106 108 97 80 55 33 17 8 3 0 -2 -3 -3 -3 -3 -3 -2 -2 0 9 40 107 
115 68 43 36 35 35 36 43 58 78 89 93 94 95 96 101 108 108 101 96 95 94 94 93 89 78 58 43 36 35 34 33 31 24 15 8 6 5 5 5 5 4 2 0 -1 -2 -2 -2 -2 -2 -2 -3 -3 -3 -3 -3 -3 -3 -3 -3 -2 5 34 94 94 34 5 -2 -3 -4 -4 -4 -4 -4 -3 -3 -3 -2 -1 1 6 16 33 55 80 97 108 106 87 60 40 26 14 6 0 -1 -2 -3 -3 -3 -4 -4 -4 -4 -3 -3 -1 6 35 98 
100 43 14 7 5 5 6 8 15 24 31 33 34 35 36 43 58 78 89 93 94 94 95 96 101 108 108 101 96 95 94 93 89 78 58 43 36 35 34 34 33 31 24 15 8 6 5 5 5 4 2 0 -1 -2 -2 -2 -2 -2 -2 -2 -1 5 35 94 94 34 5 -2 -3 -4 -4 -4 -3 -3 -3 -1 0 3 8 17 34 58 87 106 108 97 80 55 33 17 8 3 0 -1 -3 -3 -3 -4 -4 -4 -4 -4 -4 -4 -4 -3 -2 5 34 95 
95 36 7 0 -2 -2 -2 -1 0 2 4 5 5 5 6 8 15 24 31 33 34 34 35 36 43 58 78 89 93 94 95 96 101 108 108 101 96 95 94 94 93 89 78 58 43 36 35 34 33 31 24 15 8 6 5 5 5 5 4 3 1 8 36 95 95 35 5 -2 -3 -3 -3 -3 -2 -1 0 6 14 26 40 60 87 107 107 87 60 40 26 14 6 0 -1 -2 -3 -3 -3 -4 -4 -4 -4 -4 -4 -4 -4 -4 -4 -3 -2 5 34 94 
94 35 5 -2 -3 -3 -3 -3 -3 -2 -2 -2 -2 -2 -2 -1 0 2 4 5 5 5 5 6 8 15 24 31 33 34 35 36 43 58 78 89 93 94 94 95 96 101 108 108 101 96 95 94 93 89 78 58 43 36 35 34 34 33 31 25 16 18 44 100 98 37 6 -1 -3 -3 -1 0 3 8 17 33 55 80 97 108 106 87 58 34 17 8 3 0 -1 -3 -3 -3 -4 -4 -4 -4 -4 -4 -4 -4 -4 -4 -4 -4 -4 -3 -2 5 34 94 
94 34 5 -2 -3 -4 -4 -4 -4 -3 -3 -3 -3 -3 -3 -3 -3 -2 -2 -2 -2 -2 -2 -2 -1 0 2 4 5 5 5 6 8 15 24 31 33 34 34 35 36 43 58 78 89 93 94 95 96 101 108 108 101 96 95 94 94 93 89 78 59 51 70 118 110 47 12 1 0 1 6 14 26 40 60 87 106 108 97 80 55 33 16 6 1 -1 -2 -3 -3 -3 -4 -4 -4 -4 -4 -4 -4 -4 -4 -4 -4 -4 -4 -4 -4 -3 -2 5 34 94 
94 34 5 -2 -3 -4 -4 -4 -4 -4 -4 -4 -4 -4 -4 -4 -4 -3 -3 -3 -3 -3 -3 -3 -3 -3 -2 -2 -2 -2 -2 -2 -1 0 2 4 5 5 5 5 6 8 15 24 31 33 34 35 36 43 58 78 89 93 94 94 95 96 101 108 109 106 117 145 134 74 30 12 10 17 33 55 80 97 108 106 87 60 40 26 14 6 0 -1 -3 -3 -3 -4 -4 -4 -4 -4 -4 -4 -4 -4 -4 -4 -4 -4 -4 -4 -4 -4 -4 -3 -2 5 34 94 
94 34 5 -2 -3 -4 -4 -4 -4 -4 -4 -4 -4 -4 -4 -4 -4 -4 -4 -4 -4 -4 -4 -4 -4 -4 -3 -3 -3 -3 -3 -3 -3 -3 -2 -2 -2 -2 -2 -2 -2 -1 0 2 4 5 5 5 6 8 15 24 31 33 34 34 35 36 43 58 78 90 99 114 127 112 74 49 46 61 87 106 108 97 80 55 33 17 8 3 0 -2 -3 -3 -3 -4 -4 -4 -4 -4 -4 -4 -4 -4 -4 -4 -4 -4 -4 -4 -4 -4 -4 -4 -4 -3 -2 5 34 94 
94 34 5 -2 -3 -4 -4 -4 -4 -4 -4 -4 -4 -4 -4 -4 -4 -4 -4 -4 -4 -4 -4 -4 -4 -4 -4 -4 -4 -4 -4 -4 -4 -4 -3 -3 -3 -3 -3 -3 -3 -3 -3 -2 -2 -2 -2 -2 -2 -1 0 2 4 5 5 5 5 6 8 15 24 31 36 47 74 112 127 117 108 111 107 87 60 40 26 14 6 0 -1 -2 -3 -3 -3 -4 -4 -4 -4 -4 -4 -4 -4 -4 -4 -4 -4 -4 -4 -4 -4 -4 -4 -4 -4 -4 -4 -3 -2 5 34 94 
94 34 5 -2 -3 -4 -4 -4 -4 -4 -4 -4 -4 -4 -4 -4 -4 -4 -4 -4 -4 -4 -4 -4 -4 -4 -4 -4 -4 -4 -4 -4 -4 -4 -4 -4 -4 -4 -4 -4 -4 -4 -3 -3 -3 -3 -3 -3 -3 -3 -3 -2 -2 -2 -2 -2 -2 -2 -1 0 2 4 6 12 30 74 134 144 111 83 56 33 17 8 3 0 -1 -3 -3 -3 -3 -4 -4 -4 -4 -4 -4 -4 -4 -4 -4 -4 -4 -4 -4 -4 -4 -4 -4 -4 -4 -4 -4 -4 -4 -3 -2 5 34 94 
94 35 5 -2 -3 -3 -3 -3 -3 -3 -3 -3 -3 -3 -3 -3 -3 -3 -3 -3 -3 -3 -3 -3 -3 -3 -3 -3 -3 -3 -3 -3 -3 -3 -3 -3 -3 -3 -3 -3 -3 -3 -3 -3 -3 -3 -3 -3 -3 -3 -3 -3 -3 -3 -3 -3 -3 -3 -3 -3 -2 -2 -1 1 12 47 111 117 65 33 16 6 1 -1 -2 -3 -3 -3 -3 -3 -3 -3 -3 -3 -3 -3 -3 -3 -3 -3 -3 -3 -3 -3 -3 -3 -3 -3 -3 -3 -3 -3 -3 -3 -3 -3 -2 5 35 94 
95 36 7 0 -2 -2 -2 -2 -2 -2 -2 -2 -2 -2 -2 -2 -2 -2 -2 -2 -2 -2 -2 -2 -2 -2 -2 -2 -2 -2 -2 -2 -2 -2 -2 -2 -2 -2 -2 -2 -2 -2 -2 -2 -2 -2 -2 -2 -2 -2 -2 -2 -2 -2 -2 -2 -2 -2 -2 -2 -2 -2 -1 0 8 39 100 101 44 13 3 0 -1 -1 -2 -2 -2 -2 -2 -2 -2 -2 -2 -2 -2 -2 -2 -2 -2 -2 -2 -2 -2 -2 -2 -2 -2 -2 -2 -2 -2 -2 -2 -2 -2 -2 0 7 36 95 
101 43 14 7 5 5 5 5 5 5 5 5 5 5 5 5 5 5 5 5 5 5 5 5 5 5 5 5 5 5 5 5 5 5 5 5 5 5 5 5 5 5 5 5 5 5 5 5 5 5 5 5 5 5 5 5 5 5 5 5 5 5 5 7 15 43 101 102 44 16 7 6 5 5 5 5 5 5 5 5 5 5 5 5 5 5 5 5 5 5 5 5 5 5 5 5 5 5 5 5 5 5 5 5 5 5 7 14 43 101 
119 68 43 36 35 34 34 34 34 34 34 34 34 34 34 34 34 34 34 34 34 34 34 34 34 34 34 34 34 34 34 34 34 34 34 34 34 34 34 34 34 34 34 34 34 34 34 34 34 34 34 34 34 34 34 34 34 34 34 34 34 34 35 36 43 68 119 119 69 43 36 35 34 34 34 34 34 34 34 34 34 34 34 34 34 34 34 34 34 34 34 34 34 34 34 34 34 34 34 34 34 34 34 34 34 34 36 43 68 119 
154 119 101 95 94 94 94 94 94 94 94 94 94 94 94 94 94 94 94 94 94 94 94 94 94 94 94 94 94 94 95 97 100 102 100 97 95 94 94 94 94 94 94 94 94 94 94 95 98 102 102 98 95 94 94 94 94 94 94 94 94 94 94 95 100 115 143 143 115 100 95 94 94 94 94 94 94 94 94 94 94 94 94 94 94 94 94 94 94 95 96 99 103 100 97 95 94 94 94 94 94 95 96 99 103 101 98 101 119 154 
