P2
110 110
255
150 109 93 90 90 90 90 90 90 90 90 90 90 90 90 90 90 90 90 90 90 90 90 90 90 90 90 90 90 90 93 103 131 154 129 101 92 90 90 90 90 90 90 90 90 90 90 93 106 142 142 106 93 90 90 90 90 90 90 90 90 90 90 90 90 92 96 96 92 90 90 90 90 90 90 90 90 90 90 90 90 90 90 90 90 90 90 90 90 91 99 125 154 129 101 92 90 90 90 90 90 91 98 123 154 130 101 95 109 150 
109 49 28 24 23 23 23 23 23 23 23 23 23 23 23 23 23 23 23 23 23 23 23 23 23 23 23 23 23 25 35 68 121 113 59 32 24 23 23 23 23 23 23 23 23 23 24 28 50 110 109 49 28 24 23 23 23 23 23 23 23 23 23 23 23 23 23 23 23 23 23 23 23 23 23 23 23 23 23 23 23 23 23 23 23 23 23 23 24 28 50 105 121 64 32 24 23 23 23 23 23 27 44 97 123 66 33 29 49 109 
93 28 4 0 0 0 0 0 0 0 0 0 0 0 0 0 0 0 0 0 0 0 0 0 0 0 0 0 0 6 29 86 111 57 16 3 0 0 0 0 0 0 0 0 0 0 0 6 34 103 95 28 4 0 0 0 0 0 0 0 0 0 0 0 0 0 0 0 0 0 0 0 0 0 0 0 0 0 0 0 0 0 0 0 0 0 0 0 1 11 49 111 84 26 4 0 0 0 0 0 0 4 27 91 98 32 6 5 28 93 
90 24 0 -4 -4 -4 -4 -4 -4 -4 -4 -4 -4 -4 -4 -4 -4 -4 -4 -4 -4 -4 -4 -4 -4 -4 -4 -4 0 13 56 110 82 24 1 -3 -4 -4 -4 -4 -4 -4 -4 -4 -4 -4 -2 8 49 125 95 24 0 -4 -4 -4 -4 -4 -4 -4 -4 -4 -4 -4 -4 -4 -4 -4 -4 -4 -4 -4 -4 -4 -4 -4 -4 -4 -4 -4 -4 -4 -4 -4 -4 -4 -4 -4 0 18 75 110 48 8 -2 -4 -4 -4 -4 -4 -3 2 29 96 87 23 0 1 24 90 
90 23 0 -4 -5 -5 -5 -5 -5 -5 -5 -5 -5 -5 -5 -5 -5 -5 -5 -5 -5 -5 -5 -5 -5 -5 -5 -3 6 42 101 101 41 6 -3 -5 -5 -5 -5 -5 -5 -5 -5 -5 -5 -4 0 22 86 152 97 23 0 -4 -5 -5 -5 -5 -5 -5 -5 -5 -5 -5 -5 -5 -5 -5 -5 -5 -5 -5 -5 -5 -5 -5 -5 -5 -5 -5 -5 -5 -5 -5 -5 -5 -5 -4 1 28 93 93 28 1 -4 -5 -5 -5 -5 -5 -3 6 46 109 74 16 0 0 23 90 
90 23 0 -4 -5 -5 -5 -5 -5 -5 -5 -5 -5 -5 -5 -5 -5 -5 -5 -5 -5 -5 -5 -5 -5 -5 -4 1 24 82 109 55 12 -1 -4 -5 -5 -5 -5 -5 -5 -5 -5 -5 -5 -3 7 46 118 149 95 23 0 -4 -5 -5 -5 -5 -5 -5 -5 -5 -5 -5 -5 -5 -5 -5 -5 -5 -5 -5 -5 -5 -5 -5 -5 -5 -5 -5 -5 -5 -5 -5 -5 -5 -5 -3 7 47 109 75 17 -1 -4 -5 -5 -5 -5 -4 -1 16 74 109 46 6 -2 0 23 90 
90 23 0 -4 -5 -5 -5 -5 -5 -5 -5 -5 -5 -5 -5 -5 -5 -5 -5 -5 -5 -5 -5 -5 -5 -4 -1 12 55 109 82 24 1 -4 -5 -5 -5 -5 -5 -5 -5 -5 -5 -5 -4 0 22 83 126 128 94 24 0 -4 -5 -5 -5 -5 -5 -5 -5 -5 -5 -5 -5 -5 -5 -5 -5 -5 -5 -5 -5 -5 -5 -5 -5 -5 -5 -5 -5 -5 -5 -5 -5 -5 -4 0 22 82 108 44 6 -3 -5 -5 -5 -5 -5 -4 0 22 87 96 29 1 -3 0 23 90 
90 23 0 -4 -5 -5 -5 -5 -5 -5 -5 -5 -5 -5 -5 -5 -5 -5 -5 -5 -5 -5 -5 -5 -5 -3 6 41 101 101 41 6 -3 -5 -5 -5 -5 -5 -5 -5 -5 -5 -5 -5 -3 7 46 110 104 108 98 29 1 -4 -5 -5 -5 -5 -5 -5 -5 -5 -5 -5 -5 -5 -5 -5 -5 -5 -5 -5 -5 -5 -5 -5 -5 -5 -5 -5 -5 -5 -5 -5 -5 -5 -3 6 44 108 82 22 0 -4 -5 -5 -5 -5 -5 -4 1 29 96 87 22 0 -4 0 23 90 
90 23 0 -4 -5 -5 -5 -5 -5 -5 -5 -5 -5 -5 -5 -5 -5 -5 -5 -5 -5 -5 -5 -5 -4 1 24 82 109 55 12 -1 -4 -5 -5 -5 -5 -5 -5 -5 -5 -5 -5 -4 1 24 83 110 66 85 110 46 6 -3 -5 -5 -5 -5 -5 -5 -5 -5 -5 -5 -5 -5 -5 -5 -5 -5 -5 -5 -5 -5 -5 -5 -5 -5 -5 -5 -5 -5 -5 -5 -5 -4 -1 17 75 109 47 7 -3 -5 -5 -5 -5 -5 -5 -3 6 46 109 74 16 -1 -4 0 23 90 
90 23 0 -4 -5 -5 -5 -5 -5 -5 -5 -5 -5 -5 -5 -5 -5 -5 -5 -5 -5 -5 -5 -4 -1 12 55 109 82 24 1 -4 -5 -5 -5 -5 -5 -5 -5 -5 -5 -5 -4 -1 12 55 109 83 34 51 110 73 16 -1 -5 -5 -5 -5 -5 -5 -5 -5 -5 -5 -5 -5 -5 -5 -5 -5 -5 -5 -5 -5 -5 -5 -5 -5 -5 -5 -5 -5 -5 -5 -5 -4 1 27 93 93 27 1 -4 -5 -5 -5 -5 -5 -4 -1 16 74 109 46 6 -3 -4 0 23 90 
90 23 0 -4 -5 -5 -5 -5 -5 -5 -5 -5 -5 -5 -5 -5 -5 -5 -5 -5 -5 -5 -5 -3 6 41 101 101 41 6 -3 -5 -5 -5 -5 -5 -5 -5 -5 -5 -5 -5 -3 6 41 101 101 42 13 31 96 86 21 0 -4 -5 -5 -5 -5 -5 -5 -5 -5 -5 -5 -5 -5 -5 -5 -5 -5 -5 -5 -5 -5 -5 -5 -5 -5 -5 -5 -5 -5 -5 -5 -3 7 47 109 75 17 -1 -4 -5 -5 -5 -5 -5 -4 0 22 87 96 29 1 -4 -4 0 23 90 
90 23 0 -4 -5 -5 -5 -5 -5 -5 -5 -5 -5 -5 -5 -5 -5 -5 -5 -5 -5 -5 -4 1 24 82 109 55 12 -1 -4 -5 -5 -5 -5 -5 -5 -5 -5 -5 -5 -4 0 22 81 109 55 13 3 25 91 89 23 0 -4 -5 -5 -5 -5 -5 -5 -5 -5 -5 -5 -5 -5 -5 -5 -5 -5 -5 -5 -5 -5 -5 -5 -5 -5 -5 -5 -5 -5 -5 -4 0 22 82 108 44 6 -3 -5 -5 -5 -5 -5 -5 -4 1 29 96 87 22 0 -4 -4 0 23 90 
92 24 0 -4 -5 -5 -5 -5 -5 -5 -5 -5 -5 -5 -5 -5 -5 -5 -5 -5 -5 -4 -1 12 55 109 82 24 1 -4 -5 -5 -5 -5 -5 -5 -5 -5 -5 -5 -5 -3 7 46 108 83 24 1 0 23 90 90 23 0 -4 -5 -5 -5 -5 -5 -5 -5 -5 -5 -5 -5 -5 -5 -5 -5 -5 -5 -5 -5 -5 -5 -5 -5 -5 -5 -5 -5 -5 -5 -3 6 44 108 82 22 0 -4 -5 -5 -5 -5 -5 -5 -3 6 46 109 74 16 -1 -4 -4 0 23 90 
101 31 2 -4 -5 -5 -5 -5 -5 -5 -5 -5 -5 -5 -5 -5 -5 -5 -5 -5 -5 -3 6 41 101 101 41 6 -3 -5 -5 -5 -5 -5 -5 -5 -5 -5 -5 -5 -4 0 22 82 108 46 7 -2 0 23 89 91 24 0 -4 -5 -5 -5 -5 -5 -5 -5 -5 -5 -5 -5 -5 -5 -5 -5 -5 -5 -5 -5 -5 -5 -5 -5 -5 -5 -5 -5 -5 -4 -1 17 75 109 47 7 -3 -5 -5 -5 -5 -5 -5 -4 -1 16 74 109 46 6 -3 -5 -4 0 23 91 
128 59 15 0 -4 -5 -5 -5 -5 -5 -5 -5 -5 -5 -5 -5 -5 -5 -5 -5 -4 1 24 82 109 55 12 -1 -4 -5 -5 -5 -5 -5 -5 -5 -5 -5 -5 -5 -3 7 46 108 82 22 0 -3 0 21 86 96 29 1 -4 -5 -5 -5 -5 -5 -5 -5 -5 -5 -5 -5 -5 -5 -5 -5 -5 -5 -5 -5 -5 -5 -5 -5 -5 -5 -5 -5 -5 -4 1 27 93 93 27 1 -4 -5 -5 -5 -5 -5 -5 -4 0 22 87 96 29 1 -4 -5 -4 0 23 95 
154 112 52 13 0 -4 -5 -5 -5 -5 -5 -5 -5 -5 -5 -5 -5 -5 -5 -4 -1 12 55 109 82 24 1 -4 -5 -5 -5 -5 -5 -5 -5 -5 -5 -5 -5 -4 1 24 83 108 46 7 -3 -4 -1 16 73 109 46 6 -3 -5 -5 -5 -5 -5 -5 -5 -5 -5 -5 -5 -5 -5 -5 -5 -5 -5 -5 -5 -5 -5 -5 -5 -5 -5 -5 -5 -5 -3 7 47 109 75 17 -1 -4 -5 -5 -5 -5 -5 -5 -4 1 29 96 87 22 0 -4 -5 -4 0 23 97 
132 123 105 50 11 -1 -4 -5 -5 -5 -5 -5 -5 -5 -5 -5 -5 -5 -5 -3 6 41 101 101 41 6 -3 -5 -5 -5 -5 -5 -5 -5 -5 -5 -5 -5 -4 -1 12 55 109 81 22 0 -4 -5 -3 6 46 109 73 16 -1 -5 -5 -5 -5 -5 -5 -5 -5 -5 -5 -5 -5 -5 -5 -5 -5 -5 -5 -5 -5 -5 -5 -5 -5 -5 -5 -5 -4 0 22 82 108 44 6 -3 -5 -5 -5 -5 -5 -5 -5 -3 6 46 109 74 16 -1 -4 -5 -4 0 23 94 
105 78 107 101 41 6 -3 -5 -5 -5 -5 -5 -5 -5 -5 -5 -5 -5 -4 1 24 82 109 55 12 -1 -4 -5 -5 -5 -5 -5 -5 -5 -5 -5 -5 -5 -3 6 41 101 101 41 6 -3 -5 -5 -4 1 29 96 86 21 0 -4 -5 -5 -5 -5 -5 -5 -5 -5 -5 -5 -5 -5 -5 -5 -5 -5 -5 -5 -5 -5 -5 -5 -5 -5 -5 -5 -3 6 44 108 82 22 0 -4 -5 -5 -5 -5 -5 -5 -4 -1 16 74 109 46 6 -3 -5 -5 -4 0 23 91 
94 43 61 110 82 24 1 -4 -5 -5 -5 -5 -5 -5 -5 -5 -5 -4 -1 12 55 109 82 24 1 -4 -5 -5 -5 -5 -5 -5 -5 -5 -5 -5 -5 -4 0 22 81 109 55 12 -1 -4 -5 -5 -4 0 24 91 89 23 0 -4 -5 -5 -5 -5 -5 -5 -5 -5 -5 -5 -5 -5 -5 -5 -5 -5 -5 -5 -5 -5 -5 -5 -5 -5 -5 -4 -1 17 75 109 47 7 -3 -5 -5 -5 -5 -5 -5 -5 -4 0 22 87 96 29 1 -4 -5 -5 -4 0 23 90 
91 30 29 82 109 56 14 0 -4 -5 -5 -5 -5 -5 -5 -5 -5 -3 6 41 101 101 41 6 -3 -5 -5 -5 -5 -5 -5 -5 -5 -5 -5 -5 -5 -3 7 46 108 83 24 1 -4 -5 -5 -5 -4 0 23 90 90 23 0 -4 -5 -5 -5 -5 -5 -5 -5 -5 -5 -5 -5 -5 -5 -5 -5 -5 -5 -5 -5 -5 -5 -5 -5 -5 -5 -4 1 27 93 93 27 1 -4 -5 -5 -5 -5 -5 -5 -5 -4 1 29 96 87 22 0 -4 -5 -5 -4 0 23 90 
90 25 11 42 101 104 51 13 0 -4 -5 -5 -5 -5 -5 -5 -4 1 24 82 109 55 12 -1 -4 -5 -5 -5 -5 -5 -5 -5 -5 -5 -5 -5 -4 0 22 82 108 46 7 -3 -5 -5 -5 -5 -4 0 23 89 91 24 0 -4 -5 -5 -5 -5 -5 -5 -5 -5 -5 -5 -5 -5 -5 -5 -5 -5 -5 -5 -5 -5 -5 -5 -5 -5 -5 -3 7 47 109 75 17 -1 -4 -5 -5 -5 -5 -5 -5 -5 -3 6 46 109 74 16 -1 -4 -5 -5 -4 0 23 90 
90 23 3 12 50 103 103 51 13 0 -4 -5 -5 -5 -5 -4 -1 12 55 109 82 24 1 -4 -5 -5 -5 -5 -5 -5 -5 -5 -5 -5 -5 -5 -3 7 46 108 82 22 0 -4 -5 -5 -5 -5 -4 0 21 86 96 29 1 -4 -5 -5 -5 -5 -5 -5 -5 -5 -5 -5 -5 -5 -5 -5 -5 -5 -5 -5 -5 -5 -5 -5 -5 -5 -4 0 22 82 108 44 6 -3 -5 -5 -5 -5 -5 -5 -5 -4 -1 16 74 109 46 6 -3 -5 -5 -5 -4 0 23 90 
90 23 0 0 13 51 103 103 51 13 0 -4 -5 -5 -5 -3 6 41 101 101 41 6 -3 -5 -5 -5 -5 -5 -5 -5 -5 -5 -5 -5 -5 -4 1 24 83 108 46 7 -3 -5 -5 -5 -5 -5 -5 -1 16 73 109 46 6 -3 -5 -5 -5 -5 -5 -5 -5 -5 -5 -5 -5 -5 -5 -5 -5 -5 -5 -5 -5 -5 -5 -5 -5 -5 -3 6 44 108 82 22 0 -4 -5 -5 -5 -5 -5 -5 -5 -4 0 22 87 96 29 1 -4 -5 -5 -5 -4 0 23 90 
90 23 0 -3 0 13 51 103 103 51 13 0 -4 -5 -4 1 24 82 109 55 12 -1 -4 -5 -5 -5 -5 -5 -5 -5 -5 -5 -5 -5 -4 -1 12 55 109 81 22 0 -4 -5 -5 -5 -5 -5 -5 -3 6 46 109 73 16 -1 -5 -5 -5 -5 -5 -5 -5 -5 -5 -5 -5 -5 -5 -5 -5 -5 -5 -5 -5 -5 -5 -5 -5 -4 -1 17 75 109 47 7 -3 -5 -5 -5 -5 -5 -5 -5 -5 -4 1 29 96 87 22 0 -4 -5 -5 -5 -4 0 23 90 
90 23 0 -4 -4 0 13 51 103 103 51 13 0 -3 -1 12 55 109 82 24 1 -4 -5 -5 -5 -5 -5 -5 -5 -5 -5 -5 -5 -5 -3 6 41 101 101 41 6 -3 -5 -5 -5 -5 -5 -5 -5 -4 1 29 96 86 21 0 -4 -5 -5 -5 -5 -5 -5 -5 -5 -5 -5 -5 -5 -5 -5 -5 -5 -5 -5 -5 -5 -5 -5 -4 1 27 93 93 27 1 -4 -5 -5 -5 -5 -5 -5 -5 -5 -3 6 46 109 74 16 -1 -4 -5 -5 -5 -4 0 23 90 
90 23 0 -4 -5 -4 0 13 51 103 103 51 14 1 7 42 101 101 41 6 -3 -5 -5 -5 -5 -5 -5 -5 -5 -5 -5 -5 -5 -4 0 22 81 109 55 12 -1 -4 -5 -5 -5 -5 -5 -5 -5 -4 0 24 91 89 23 0 -4 -5 -5 -5 -5 -5 -5 -5 -5 -5 -5 -5 -5 -5 -5 -5 -5 -5 -5 -5 -5 -5 -5 -3 7 47 109 75 17 -1 -4 -5 -5 -5 -5 -5 -5 -5 -4 -1 16 74 109 46 6 -3 -5 -5 -5 -5 -4 0 23 90 
90 23 0 -4 -5 -5 -4 0 13 51 103 103 52 20 29 82 109 55 12 -1 -4 -5 -5 -5 -5 -5 -5 -5 -5 -5 -5 -5 -5 -3 7 46 108 83 24 1 -4 -5 -5 -5 -5 -5 -5 -5 -5 -4 0 23 89 91 24 0 -4 -5 -5 -5 -5 -5 -5 -5 -5 -5 -5 -5 -5 -5 -5 -5 -5 -5 -5 -5 -5 -5 -4 0 22 82 108 44 6 -3 -5 -5 -5 -5 -5 -5 -5 -5 -4 0 22 87 96 29 1 -4 -5 -5 -5 -5 -4 0 23 90 
90 23 0 -4 -5 -5 -5 -4 0 13 51 103 106 67 71 112 82 24 1 -4 -5 -5 -5 -5 -5 -5 -5 -5 -5 -5 -5 -5 -4 0 22 82 108 46 7 -3 -5 -5 -5 -5 -5 -5 -5 -5 -5 -4 0 21 86 96 29 1 -4 -5 -5 -5 -5 -5 -5 -5 -5 -5 -5 -5 -5 -5 -5 -5 -5 -5 -5 -5 -5 -5 -3 6 44 108 82 22 0 -4 -5 -5 -5 -5 -5 -5 -5 -5 -4 1 29 96 87 22 0 -4 -5 -5 -5 -5 -4 0 23 90 
90 23 0 -4 -5 -5 -5 -5 -4 0 14 52 107 132 132 105 42 6 -3 -5 -5 -5 -5 -5 -5 -5 -5 -5 -5 -5 -5 -5 -3 7 46 108 82 22 0 -4 -5 -5 -5 -5 -5 -5 -5 -5 -5 -5 -1 16 73 109 46 6 -3 -5 -5 -5 -5 -5 -5 -5 -5 -5 -5 -5 -5 -5 -5 -5 -5 -5 -5 -5 -5 -4 -1 17 75 109 47 7 -3 -5 -5 -5 -5 -5 -5 -5 -5 -5 -3 6 46 109 74 16 -1 -4 -5 -5 -5 -5 -4 0 23 90 
90 23 0 -4 -5 -5 -5 -5 -5 -4 0 15 59 131 132 58 13 -1 -4 -5 -5 -5 -5 -5 -5 -5 -5 -5 -5 -5 -5 -4 1 24 83 108 46 7 -3 -5 -5 -5 -5 -5 -5 -5 -5 -5 -5 -5 -3 6 46 109 73 16 -1 -5 -5 -5 -5 -5 -5 -5 -5 -5 -5 -5 -5 -5 -5 -5 -5 -5 -5 -5 -5 -4 1 27 93 93 27 1 -4 -5 -5 -5 -5 -5 -5 -5 -5 -4 -1 16 74 109 46 6 -3 -5 -5 -5 -5 -5 -4 0 23 90 
90 23 0 -4 -5 -5 -5 -5 -5 -5 -4 2 31 102 104 32 2 -4 -5 -5 -5 -5 -5 -5 -5 -5 -5 -5 -5 -5 -4 -1 12 55 109 81 22 0 -4 -5 -5 -5 -5 -5 -5 -5 -5 -5 -5 -5 -4 1 29 96 86 21 0 -4 -5 -5 -5 -5 -5 -5 -5 -5 -5 -5 -5 -5 -5 -5 -5 -5 -5 -5 -5 -3 7 47 109 75 17 -1 -4 -5 -5 -5 -5 -5 -5 -5 -5 -4 0 22 87 96 29 1 -4 -5 -5 -5 -5 -5 -4 0 23 90 
90 23 0 -4 -5 -5 -5 -5 -5 -5 -4 0 23 88 98 30 1 -4 -5 -5 -5 -5 -5 -5 -5 -5 -5 -5 -5 -5 -3 6 41 101 101 41 6 -3 -5 -5 -5 -5 -5 -5 -5 -5 -5 -5 -5 -5 -4 0 24 91 89 23 0 -4 -5 -5 -5 -5 -5 -5 -5 -5 -5 -5 -5 -5 -5 -5 -5 -5 -5 -5 -4 0 22 82 108 44 6 -3 -5 -5 -5 -5 -5 -5 -5 -5 -5 -4 1 29 96 87 22 0 -4 -5 -5 -5 -5 -5 -4 0 23 90 
90 23 0 -4 -5 -5 -5 -5 -5 -5 -4 -1 16 74 110 46 6 -3 -5 -5 -5 -5 -5 -5 -5 -5 -5 -5 -5 -4 0 22 81 109 55 12 -1 -4 -5 -5 -5 -5 -5 -5 -5 -5 -5 -5 -5 -5 -4 0 23 90 90 23 0 -4 -5 -5 -5 -5 -5 -5 -5 -5 -5 -5 -5 -5 -5 -5 -5 -5 -5 -5 -3 6 44 108 82 22 0 -4 -5 -5 -5 -5 -5 -5 -5 -5 -5 -3 6 46 109 74 16 -1 -4 -5 -5 -5 -5 -5 -4 0 23 90 
90 23 0 -4 -5 -5 -5 -5 -5 -5 -5 -3 6 46 109 73 16 -1 -5 -5 -5 -5 -5 -5 -5 -5 -5 -5 -5 -3 7 46 108 83 24 1 -4 -5 -5 -5 -5 -5 -5 -5 -5 -5 -5 -5 -5 -5 -4 0 23 89 91 24 0 -4 -5 -5 -5 -5 -5 -5 -5 -5 -5 -5 -5 -5 -5 -5 -5 -5 -5 -4 -1 17 75 109 47 7 -3 -5 -5 -5 -5 -5 -5 -5 -5 -5 -4 -1 16 74 109 46 6 -3 -5 -5 -5 -5 -5 -5 -4 0 23 90 
90 23 0 -4 -5 -5 -5 -5 -5 -5 -5 -4 1 29 96 86 21 0 -4 -5 -5 -5 -5 -5 -5 -5 -5 -5 -4 0 22 82 108 46 7 -3 -5 -5 -5 -5 -5 -5 -5 -5 -5 -5 -5 -5 -5 -5 -4 0 21 86 96 29 1 -4 -5 -5 -5 -5 -5 -5 -5 -5 -5 -5 -5 -5 -5 -5 -5 -5 -5 -4 1 27 93 93 27 1 -4 -5 -5 -5 -5 -5 -5 -5 -5 -5 -4 0 22 87 96 29 1 -4 -5 -5 -5 -5 -5 -5 -4 0 23 90 
90 23 0 -4 -5 -5 -5 -5 -5 -5 -5 -4 0 24 90 90 24 0 -4 -5 -5 -5 -5 -5 -5 -5 -5 -5 -3 7 46 108 82 22 0 -4 -5 -5 -5 -5 -5 -5 -5 -5 -5 -5 -5 -5 -5 -5 -5 -1 16 73 109 46 6 -3 -5 -5 -5 -5 -5 -5 -5 -5 -5 -5 -5 -5 -5 -5 -5 -5 -5 -3 7 47 109 75 17 -1 -4 -5 -5 -5 -5 -5 -5 -5 -5 -5 -4 1 29 96 87 22 0 -4 -5 -5 -5 -5 -5 -5 -4 0 24 92 
91 23 0 -4 -5 -5 -5 -5 -5 -5 -5 -4 0 21 86 96 29 1 -4 -5 -5 -5 -5 -5 -5 -5 -5 -4 1 24 83 108 46 7 -3 -5 -5 -5 -5 -5 -5 -5 -5 -5 -5 -5 -5 -5 -5 -5 -5 -3 6 46 109 73 16 -1 -5 -5 -5 -5 -5 -5 -5 -5 -5 -5 -5 -5 -5 -5 -5 -5 -4 0 22 82 108 44 6 -3 -5 -5 -5 -5 -5 -5 -5 -5 -5 -5 -3 6 46 109 74 16 -1 -4 -5 -5 -5 -5 -5 -5 -4 1 29 100 
95 23 0 -4 -5 -5 -5 -5 -5 -5 -5 -5 -1 16 73 109 46 6 -3 -5 -5 -5 -5 -5 -5 -5 -4 -1 12 55 109 81 22 0 -4 -5 -5 -5 -5 -5 -5 -5 -5 -5 -5 -5 -5 -5 -5 -5 -5 -4 1 29 96 86 21 0 -4 -5 -5 -5 -5 -5 -5 -5 -5 -5 -5 -5 -5 -5 -5 -5 -3 6 44 108 82 22 0 -4 -5 -5 -5 -5 -5 -5 -5 -5 -5 -4 -1 16 74 109 46 6 -3 -5 -5 -5 -5 -5 -5 -5 -3 7 49 125 
97 23 0 -4 -5 -5 -5 -5 -5 -5 -5 -5 -3 6 46 109 73 16 -1 -5 -5 -5 -5 -5 -5 -5 -3 6 41 101 101 41 6 -3 -5 -5 -5 -5 -5 -5 -5 -5 -5 -5 -5 -5 -5 -5 -5 -5 -5 -4 0 24 91 89 23 0 -4 -5 -5 -5 -5 -5 -5 -5 -5 -5 -5 -5 -5 -5 -5 -4 -1 17 75 109 47 7 -3 -5 -5 -5 -5 -5 -5 -5 -5 -5 -5 -4 0 22 87 96 29 1 -4 -5 -5 -5 -5 -5 -5 -4 1 24 87 152 
95 23 0 -4 -5 -5 -5 -5 -5 -5 -5 -5 -4 1 29 96 86 21 0 -4 -5 -5 -5 -5 -5 -4 0 22 81 109 55 12 -1 -4 -5 -5 -5 -5 -5 -5 -5 -5 -5 -5 -5 -5 -5 -5 -5 -5 -5 -4 0 23 90 90 23 0 -4 -5 -5 -5 -5 -5 -5 -5 -5 -5 -5 -5 -5 -5 -5 -4 1 27 93 93 27 1 -4 -5 -5 -5 -5 -5 -5 -5 -5 -5 -5 -4 1 29 96 87 22 0 -4 -5 -5 -5 -5 -5 -4 -1 12 55 120 148 
92 23 0 -4 -5 -5 -5 -5 -5 -5 -5 -5 -4 0 24 90 90 24 0 -4 -5 -5 -5 -5 -5 -3 7 46 108 83 24 1 -4 -5 -5 -5 -5 -5 -5 -5 -5 -5 -5 -5 -5 -5 -5 -5 -5 -5 -5 -4 0 23 89 91 24 0 -4 -5 -5 -5 -5 -5 -5 -5 -5 -5 -5 -5 -5 -5 -5 -3 7 47 109 75 17 -1 -4 -5 -5 -5 -5 -5 -5 -5 -5 -5 -5 -3 6 46 109 74 16 -1 -4 -5 -5 -5 -5 -5 -3 6 41 103 122 125 
91 23 0 -4 -5 -5 -5 -5 -5 -5 -5 -5 -4 0 21 86 96 29 1 -4 -5 -5 -5 -5 -4 0 22 82 108 46 7 -3 -5 -5 -5 -5 -5 -5 -5 -5 -5 -5 -5 -5 -5 -5 -5 -5 -5 -5 -5 -4 0 21 86 96 29 1 -4 -5 -5 -5 -5 -5 -5 -5 -5 -5 -5 -5 -5 -5 -4 0 22 82 108 44 6 -3 -5 -5 -5 -5 -5 -5 -5 -5 -5 -5 -4 -1 16 74 109 46 6 -3 -5 -5 -5 -5 -5 -4 1 24 82 113 81 104 
90 23 0 -4 -5 -5 -5 -5 -5 -5 -5 -5 -5 -1 16 73 109 46 6 -3 -5 -5 -5 -5 -3 7 46 108 82 22 0 -4 -5 -5 -5 -5 -5 -5 -5 -5 -5 -5 -5 -5 -5 -5 -5 -5 -5 -5 -5 -5 -1 16 73 109 46 6 -3 -5 -5 -5 -5 -5 -5 -5 -5 -5 -5 -5 -5 -5 -3 6 44 108 82 22 0 -4 -5 -5 -5 -5 -5 -5 -5 -5 -5 -5 -4 0 22 87 96 29 1 -4 -5 -5 -5 -5 -4 -1 12 55 109 86 52 95 
90 23 0 -4 -5 -5 -5 -5 -5 -5 -5 -5 -5 -3 6 46 109 73 16 -1 -5 -5 -5 -4 1 24 83 108 46 7 -3 -5 -5 -5 -5 -5 -5 -5 -5 -5 -5 -5 -5 -5 -5 -5 -5 -5 -5 -5 -5 -5 -3 6 46 110 74 17 0 -4 -4 -4 -5 -5 -5 -5 -5 -5 -5 -5 -5 -4 -1 17 75 109 47 7 -3 -5 -5 -5 -5 -5 -5 -5 -5 -5 -5 -5 -4 1 29 96 87 22 0 -4 -5 -5 -5 -5 -3 6 41 101 102 46 35 91 
90 23 0 -4 -5 -5 -5 -5 -5 -5 -5 -5 -5 -4 1 29 96 86 21 0 -4 -5 -4 -1 12 55 109 81 22 0 -4 -5 -5 -5 -5 -5 -5 -5 -5 -5 -5 -5 -5 -5 -5 -5 -5 -5 -5 -5 -5 -5 -4 2 30 99 89 26 4 0 0 -1 -3 -4 -4 -4 -4 -4 -5 -5 -5 -4 1 28 93 93 27 1 -4 -5 -5 -5 -5 -5 -5 -5 -5 -5 -5 -5 -3 6 46 109 74 16 -1 -4 -5 -5 -5 -4 1 24 82 109 56 17 27 90 
90 23 0 -4 -5 -5 -5 -5 -5 -5 -5 -5 -5 -4 0 24 90 90 24 0 -4 -5 -3 6 41 101 101 41 6 -3 -5 -5 -5 -5 -5 -5 -5 -5 -5 -5 -5 -5 -5 -5 -5 -5 -5 -5 -5 -5 -5 -4 -2 5 34 104 107 49 28 23 21 16 6 1 0 0 0 0 -1 -3 -4 -2 8 48 109 75 17 -1 -4 -5 -5 -5 -5 -5 -5 -5 -5 -5 -5 -4 -1 16 74 109 46 6 -3 -5 -5 -5 -4 -1 12 55 109 82 25 6 24 90 
90 23 0 -4 -5 -5 -5 -5 -5 -5 -5 -5 -5 -4 0 21 86 96 29 1 -4 -4 0 22 81 109 55 12 -1 -4 -5 -5 -5 -5 -5 -5 -5 -5 -5 -5 -5 -5 -5 -5 -5 -5 -5 -5 -5 -5 -4 -1 6 26 64 132 143 107 93 89 86 73 46 29 24 23 23 21 16 6 2 5 26 83 108 44 6 -3 -5 -5 -5 -5 -5 -5 -5 -5 -5 -5 -5 -4 0 22 87 96 29 1 -4 -5 -5 -5 -3 6 41 101 101 42 7 1 23 90 
90 23 0 -4 -5 -5 -5 -5 -5 -5 -5 -5 -5 -5 -1 16 73 109 46 6 -3 -3 7 46 108 83 24 1 -4 -5 -5 -5 -5 -5 -5 -5 -5 -5 -5 -5 -5 -5 -5 -5 -5 -5 -5 -5 -4 -3 1 12 42 82 113 122 106 94 90 91 96 109 109 96 91 90 89 86 73 46 30 34 64 114 83 23 0 -4 -5 -5 -5 -5 -5 -5 -5 -5 -5 -5 -5 -4 1 29 96 87 22 0 -4 -5 -5 -4 1 24 82 109 55 12 0 0 23 90 
90 23 0 -4 -5 -5 -5 -5 -5 -5 -5 -5 -5 -5 -3 6 46 109 73 16 0 0 22 82 108 46 7 -3 -5 -5 -5 -5 -5 -5 -5 -5 -5 -5 -5 -5 -5 -5 -5 -5 -5 -5 -5 -4 -1 6 24 55 101 109 83 48 30 24 23 24 29 46 73 86 89 90 91 96 109 110 99 104 132 130 55 9 -2 -5 -5 -5 -5 -5 -5 -5 -5 -5 -5 -5 -5 -3 6 46 109 74 16 -1 -4 -5 -4 -1 12 55 109 82 24 1 -3 0 23 90 
90 23 0 -4 -5 -5 -5 -5 -5 -5 -5 -5 -5 -5 -4 1 29 96 86 22 1 8 46 108 82 22 0 -4 -5 -5 -5 -5 -5 -5 -5 -5 -5 -5 -5 -5 -5 -5 -5 -5 -5 -4 -3 1 12 41 82 109 101 55 24 8 1 0 0 0 1 6 16 21 23 23 24 29 46 74 88 102 132 130 55 9 -2 -5 -5 -5 -5 -5 -5 -5 -5 -5 -5 -5 -4 -1 16 74 109 46 6 -3 -5 -5 -3 6 41 101 101 41 6 -3 -4 0 23 90 
90 23 0 -4 -5 -5 -5 -5 -5 -5 -5 -5 -5 -5 -4 0 24 90 90 25 6 25 83 108 46 7 -3 -5 -5 -5 -5 -5 -5 -5 -5 -5 -5 -5 -5 -5 -5 -5 -5 -5 -4 -1 6 24 55 101 109 82 41 12 1 -3 -4 -4 -4 -4 -4 -3 -1 0 0 0 0 1 6 16 23 32 64 114 84 25 1 -3 -5 -5 -5 -5 -5 -5 -5 -5 -5 -5 -4 0 22 87 96 29 1 -4 -5 -4 1 24 82 109 55 12 -1 -4 -4 0 23 90 
90 23 0 -4 -5 -5 -5 -5 -5 -5 -5 -5 -5 -5 -4 0 21 86 97 33 19 56 109 81 22 0 -4 -5 -5 -5 -5 -5 -5 -5 -5 -5 -5 -5 -5 -5 -5 -5 -5 -4 0 11 41 82 109 101 55 24 6 -1 -4 -5 -5 -5 -5 -5 -5 -5 -5 -4 -4 -4 -4 -4 -3 -1 0 4 26 82 110 56 16 1 -3 -4 -4 -4 -4 -4 -4 -4 -4 -4 -3 2 29 96 87 22 0 -4 -4 -1 12 55 109 82 24 1 -4 -5 -4 0 23 90 
90 23 0 -4 -5 -5 -5 -5 -5 -5 -5 -5 -5 -5 -5 -1 16 74 111 57 53 103 101 41 6 -3 -5 -5 -5 -5 -5 -5 -5 -5 -5 -5 -5 -5 -5 -5 -5 -4 -3 1 14 50 101 109 82 41 12 1 -3 -4 -5 -5 -5 -5 -5 -5 -5 -5 -5 -5 -5 -5 -5 -5 -5 -4 -4 -2 6 42 102 107 58 25 8 1 0 0 0 0 0 0 0 0 1 11 49 111 75 17 -1 -4 -3 6 41 101 101 41 6 -3 -5 -5 -4 0 23 90 
90 23 0 -4 -5 -5 -5 -5 -5 -5 -5 -5 -5 -5 -5 -3 6 46 112 97 99 111 55 12 -1 -4 -5 -5 -5 -5 -5 -5 -5 -5 -5 -5 -5 -5 -5 -5 -4 -1 6 24 56 103 103 56 24 6 -1 -4 -5 -5 -5 -5 -5 -5 -5 -5 -5 -5 -5 -5 -5 -5 -5 -5 -5 -5 -5 -4 -1 13 57 123 128 87 48 29 24 23 23 23 23 23 23 23 26 42 93 122 55 11 -1 -3 1 24 82 109 55 12 -1 -4 -5 -5 -4 0 23 90 
90 23 0 -4 -5 -5 -5 -5 -5 -5 -5 -5 -5 -5 -5 -4 1 29 100 126 125 84 24 1 -4 -5 -5 -5 -5 -5 -5 -5 -5 -5 -5 -5 -5 -5 -4 -3 1 12 41 82 109 101 50 14 1 -3 -4 -5 -5 -5 -5 -5 -5 -5 -5 -5 -5 -5 -5 -5 -5 -5 -5 -5 -5 -5 -5 -5 -4 2 33 108 147 125 112 96 91 90 90 90 90 90 90 90 93 105 140 138 70 28 8 3 14 55 109 82 24 1 -4 -5 -5 -5 -4 0 23 90 
90 23 0 -4 -5 -5 -5 -5 -5 -5 -5 -5 -5 -5 -5 -4 0 24 97 148 118 46 7 -3 -5 -5 -5 -5 -5 -5 -5 -5 -5 -5 -5 -5 -5 -4 -1 6 24 55 101 109 82 41 11 0 -4 -5 -5 -5 -5 -5 -5 -5 -5 -5 -5 -5 -5 -5 -5 -5 -5 -5 -5 -5 -5 -5 -5 -5 -4 1 30 101 108 69 77 86 89 90 90 90 90 90 90 90 90 94 106 122 114 84 48 33 51 104 102 42 6 -3 -5 -5 -5 -5 -4 0 23 90 
90 23 0 -4 -5 -5 -5 -5 -5 -5 -5 -5 -5 -5 -5 -4 0 23 97 152 86 22 0 -4 -5 -5 -5 -5 -5 -5 -5 -5 -5 -5 -5 -4 -3 1 12 41 82 109 101 55 24 6 -1 -4 -5 -5 -5 -5 -5 -5 -5 -5 -5 -5 -5 -5 -5 -5 -5 -5 -5 -5 -5 -5 -5 -5 -5 -5 -3 6 46 110 78 27 20 22 23 23 23 23 23 23 23 23 23 24 30 48 83 108 110 99 111 119 58 13 -1 -4 -5 -5 -5 -5 -4 0 23 90 
90 23 0 -4 -5 -5 -5 -5 -5 -5 -5 -5 -5 -5 -5 -4 0 23 95 125 49 7 -3 -5 -5 -5 -5 -5 -5 -5 -5 -5 -5 -4 -4 -1 6 24 55 102 110 82 42 13 1 -3 -4 -5 -5 -5 -5 -5 -5 -5 -5 -5 -5 -5 -5 -5 -5 -5 -5 -5 -5 -5 -5 -5 -5 -5 -5 -5 -1 16 73 109 46 8 0 0 0 0 0 0 0 0 0 0 0 0 1 7 22 46 83 119 152 116 40 5 -3 -5 -5 -5 -5 -5 -4 0 23 90 
90 23 0 -4 -5 -5 -5 -5 -5 -5 -5 -5 -5 -5 -5 -4 0 23 91 100 29 1 -4 -5 -5 -5 -5 -5 -5 -5 -5 -4 -3 -1 2 13 42 85 118 110 61 29 11 2 -2 -4 -4 -4 -5 -5 -5 -5 -5 -5 -5 -5 -5 -5 -5 -5 -5 -5 -5 -5 -5 -5 -5 -5 -5 -5 -5 -4 0 21 86 96 29 1 -3 -4 -4 -4 -4 -4 -4 -4 -4 -4 -4 -4 -4 -3 0 7 24 57 117 123 59 13 -1 -4 -5 -5 -5 -5 -4 0 23 90 
90 23 0 -4 -5 -5 -5 -5 -5 -5 -5 -5 -5 -5 -5 -4 0 24 91 91 24 0 -4 -5 -5 -5 -5 -5 -5 -4 -3 0 6 17 29 57 113 151 140 89 47 30 23 17 6 1 0 -1 -3 -4 -4 -4 -5 -5 -5 -5 -5 -5 -5 -5 -5 -5 -5 -5 -5 -5 -5 -5 -5 -5 -5 -4 0 23 89 91 24 0 -4 -5 -5 -5 -5 -5 -5 -5 -5 -5 -5 -5 -5 -5 -4 -3 1 14 53 106 102 42 6 -3 -5 -5 -5 -5 -4 0 23 90 
90 23 0 -4 -5 -5 -5 -5 -5 -5 -5 -5 -5 -5 -5 -4 1 29 96 86 21 0 -4 -5 -5 -5 -4 -4 -3 0 7 22 44 75 94 113 120 114 121 117 99 91 86 74 46 29 22 16 6 1 0 0 -1 -3 -4 -4 -4 -5 -5 -5 -5 -5 -5 -5 -5 -5 -5 -5 -5 -5 -5 -4 0 24 91 89 23 0 -4 -5 -5 -5 -5 -5 -5 -5 -5 -5 -5 -5 -5 -5 -5 -5 -4 0 14 56 109 82 24 1 -4 -5 -5 -5 -4 0 23 90 
90 23 0 -4 -5 -5 -5 -5 -5 -5 -5 -5 -5 -5 -5 -3 6 46 109 73 16 -1 -4 -5 -4 -3 -1 1 7 22 46 82 108 109 93 76 47 35 47 74 86 90 96 109 109 96 87 74 46 29 24 21 16 6 1 0 -1 -3 -4 -4 -4 -5 -5 -5 -5 -5 -5 -5 -5 -5 -5 -4 1 29 96 86 21 0 -4 -5 -5 -5 -5 -5 -5 -5 -5 -5 -5 -5 -5 -5 -5 -5 -5 -4 1 24 82 109 55 12 -1 -4 -5 -5 -4 0 23 90 
90 23 0 -4 -5 -5 -5 -5 -5 -5 -5 -5 -5 -5 -5 -1 16 73 109 46 6 -3 -4 -3 0 6 17 27 47 82 108 108 82 47 28 17 6 3 6 16 21 24 29 46 74 87 96 109 109 96 90 86 73 46 29 22 16 6 1 0 0 -1 -3 -4 -4 -4 -5 -5 -5 -5 -5 -3 6 46 109 73 16 -1 -5 -5 -5 -5 -5 -5 -5 -5 -5 -5 -5 -5 -5 -5 -5 -5 -5 -5 -3 6 41 101 101 41 6 -3 -5 -5 -4 0 23 90 
90 23 0 -4 -5 -5 -5 -5 -5 -5 -5 -5 -5 -5 -4 0 21 86 96 29 2 -2 0 7 22 44 75 93 109 108 82 46 22 7 1 -1 -3 -4 -3 -1 0 0 1 6 16 22 29 46 73 86 90 96 109 109 96 87 74 46 29 24 21 16 6 1 0 -1 -3 -4 -4 -4 -4 -1 16 73 109 46 6 -3 -5 -5 -5 -5 -5 -5 -5 -5 -5 -5 -5 -5 -5 -5 -5 -5 -5 -5 -4 -1 12 55 109 82 24 1 -4 -5 -4 0 23 90 
90 23 0 -4 -5 -5 -5 -5 -5 -5 -5 -5 -5 -5 -4 0 24 90 91 26 5 8 22 46 82 108 109 93 75 44 22 7 0 -3 -4 -4 -5 -5 -5 -5 -4 -4 -4 -3 -1 0 1 6 16 21 24 29 46 74 87 96 109 109 96 90 86 73 46 29 22 16 6 1 0 0 0 1 22 86 96 29 1 -4 -5 -5 -5 -5 -5 -5 -5 -5 -5 -5 -5 -5 -5 -5 -5 -5 -5 -5 -5 -4 1 24 82 109 56 14 0 -4 -4 0 23 90 
90 23 0 -4 -5 -5 -5 -5 -5 -5 -5 -5 -5 -5 -4 1 29 97 92 34 27 47 82 108 108 82 47 27 17 6 0 -3 -4 -5 -5 -5 -5 -5 -5 -5 -5 -5 -5 -5 -4 -4 -4 -3 -1 0 0 1 6 16 22 29 46 73 86 90 96 109 109 96 87 74 46 29 24 21 17 11 29 92 91 24 0 -4 -5 -5 -5 -5 -5 -5 -5 -5 -5 -5 -5 -5 -5 -5 -5 -5 -5 -5 -5 -5 -3 6 41 101 103 50 11 -1 -4 0 23 90 
90 23 0 -4 -5 -5 -5 -5 -5 -5 -5 -5 -5 -5 -3 7 48 118 102 68 85 108 108 82 46 22 7 1 -1 -3 -4 -5 -5 -5 -5 -5 -5 -5 -5 -5 -5 -5 -5 -5 -5 -5 -5 -5 -5 -4 -4 -4 -3 -1 0 1 6 16 21 24 29 46 74 87 96 109 109 96 90 86 74 50 55 107 92 23 0 -4 -5 -5 -5 -5 -5 -5 -5 -5 -5 -5 -5 -5 -5 -5 -5 -5 -5 -5 -5 -5 -4 -1 11 50 103 101 41 6 -2 0 23 90 
90 23 0 -4 -5 -5 -5 -5 -5 -5 -5 -5 -5 -4 0 23 88 150 130 117 108 82 46 22 7 0 -3 -4 -4 -5 -5 -5 -5 -5 -5 -5 -5 -5 -5 -5 -5 -5 -5 -5 -5 -5 -5 -5 -5 -5 -5 -5 -5 -4 -4 -4 -3 -1 0 0 1 6 16 22 29 46 73 86 90 96 110 112 114 143 96 23 0 -4 -5 -5 -5 -5 -5 -5 -5 -5 -5 -5 -5 -5 -5 -5 -5 -5 -5 -5 -5 -5 -5 -4 0 14 56 109 82 24 2 0 23 90 
90 23 0 -4 -5 -5 -5 -5 -5 -5 -5 -5 -5 -3 7 47 117 130 100 76 44 22 7 0 -3 -4 -5 -5 -5 -5 -5 -5 -5 -5 -5 -5 -5 -5 -5 -5 -5 -5 -5 -5 -5 -5 -5 -5 -5 -5 -5 -5 -5 -5 -5 -5 -5 -5 -4 -4 -4 -3 -1 0 1 6 16 21 24 29 46 77 105 142 96 23 0 -4 -5 -5 -5 -5 -5 -5 -5 -5 -5 -5 -5 -5 -5 -5 -5 -5 -5 -5 -5 -5 -5 -5 -4 1 24 82 109 56 15 4 24 90 
90 23 0 -4 -5 -5 -5 -5 -5 -5 -5 -5 -4 1 24 83 113 63 31 17 6 0 -3 -4 -5 -5 -5 -5 -5 -5 -5 -5 -5 -5 -5 -5 -5 -5 -5 -5 -5 -5 -5 -5 -5 -5 -5 -5 -5 -5 -5 -5 -5 -5 -5 -5 -5 -5 -5 -5 -5 -5 -4 -4 -4 -3 -1 0 0 1 7 21 47 106 92 23 0 -4 -5 -5 -5 -5 -5 -5 -5 -5 -5 -5 -5 -5 -5 -5 -5 -5 -5 -5 -5 -5 -5 -5 -5 -3 6 41 101 103 51 16 26 90 
90 23 0 -4 -5 -5 -5 -5 -5 -5 -5 -4 -1 12 55 109 82 25 4 0 -3 -4 -5 -5 -5 -5 -5 -5 -5 -5 -5 -5 -5 -5 -5 -5 -5 -5 -5 -5 -5 -5 -5 -5 -5 -5 -5 -5 -5 -5 -5 -5 -5 -5 -5 -5 -5 -5 -5 -5 -5 -5 -5 -5 -5 -5 -5 -4 -4 -4 -2 3 27 93 90 23 0 -4 -5 -5 -5 -5 -5 -5 -5 -5 -5 -5 -5 -5 -5 -5 -5 -5 -5 -5 -5 -5 -5 -5 -5 -4 -1 11 50 103 101 46 35 91 
90 23 0 -4 -5 -5 -5 -5 -5 -5 -5 -3 6 41 101 101 42 6 -2 -4 -5 -5 -5 -5 -5 -5 -5 -5 -5 -5 -5 -5 -5 -5 -5 -5 -5 -5 -5 -5 -5 -5 -5 -5 -5 -5 -5 -5 -5 -5 -5 -5 -5 -5 -5 -5 -5 -5 -5 -5 -5 -5 -5 -5 -5 -5 -5 -5 -5 -5 -4 0 23 90 90 23 0 -4 -5 -5 -5 -5 -5 -5 -5 -5 -5 -5 -5 -5 -5 -5 -5 -5 -5 -5 -5 -5 -5 -5 -5 -5 -4 0 14 56 110 86 52 95 
91 23 0 -4 -5 -5 -5 -5 -5 -5 -4 1 24 82 109 55 12 -1 -4 -5 -5 -5 -5 -5 -5 -5 -5 -5 -5 -5 -5 -5 -5 -5 -5 -5 -5 -5 -5 -5 -5 -5 -5 -5 -5 -5 -5 -5 -5 -5 -5 -5 -5 -5 -5 -5 -5 -5 -5 -5 -5 -5 -5 -5 -5 -5 -5 -5 -5 -5 -4 0 23 89 91 24 0 -4 -5 -5 -5 -5 -5 -5 -5 -5 -5 -5 -5 -5 -5 -5 -5 -5 -5 -5 -5 -5 -5 -5 -5 -5 -5 -4 1 24 82 113 81 104 
92 23 0 -4 -5 -5 -5 -5 -5 -4 0 14 56 110 82 25 1 -4 -5 -5 -5 -5 -5 -5 -5 -5 -5 -5 -5 -5 -5 -5 -5 -5 -5 -5 -5 -5 -5 -5 -5 -5 -5 -5 -5 -5 -5 -5 -5 -5 -5 -5 -5 -5 -5 -5 -5 -5 -5 -5 -5 -5 -5 -5 -5 -5 -5 -5 -5 -5 -4 0 23 89 98 31 3 -3 -5 -5 -5 -5 -5 -5 -5 -5 -5 -5 -5 -5 -5 -5 -5 -5 -5 -5 -5 -5 -5 -5 -5 -5 -5 -5 -3 6 41 103 122 125 
95 23 0 -4 -5 -5 -5 -5 -4 0 13 52 105 105 46 11 0 -3 -4 -4 -4 -4 -4 -4 -4 -4 -4 -4 -5 -5 -5 -5 -5 -5 -5 -5 -5 -5 -5 -5 -5 -5 -5 -5 -5 -5 -5 -5 -5 -5 -5 -5 -5 -5 -5 -5 -5 -5 -5 -5 -5 -5 -5 -5 -5 -5 -5 -5 -5 -4 -2 3 27 91 121 59 16 1 -3 -4 -5 -5 -5 -5 -5 -5 -5 -5 -5 -5 -5 -5 -5 -5 -5 -5 -5 -5 -5 -5 -5 -5 -5 -5 -4 -1 12 55 120 148 
97 23 0 -4 -5 -5 -5 -4 0 13 52 111 123 77 39 25 17 6 1 0 0 0 0 0 0 0 0 0 -1 -3 -4 -4 -4 -4 -4 -4 -4 -4 -4 -5 -5 -5 -5 -5 -5 -5 -5 -5 -5 -5 -5 -5 -5 -5 -5 -5 -5 -5 -5 -5 -5 -5 -5 -5 -5 -5 -5 -5 -4 -1 6 24 54 111 152 118 57 25 7 0 -3 -4 -5 -5 -5 -5 -5 -5 -5 -5 -5 -5 -5 -5 -5 -5 -5 -5 -5 -5 -5 -5 -5 -5 -5 -4 1 24 87 152 
95 23 0 -4 -5 -5 -4 0 13 52 115 153 132 105 93 86 74 46 29 24 23 23 23 23 23 23 23 21 16 6 1 0 0 0 0 0 0 0 0 -1 -3 -4 -4 -4 -4 -4 -4 -4 -4 -4 -4 -5 -5 -5 -5 -5 -5 -5 -5 -5 -5 -5 -5 -5 -5 -5 -4 -3 1 12 41 81 110 117 114 121 112 83 46 22 6 -1 -4 -5 -5 -5 -5 -5 -5 -5 -5 -5 -5 -5 -5 -5 -5 -5 -5 -5 -5 -5 -5 -5 -5 -5 -3 7 49 125 
91 23 0 -4 -5 -4 0 13 51 105 121 107 96 91 91 96 109 109 96 91 90 90 90 90 90 90 89 86 73 46 29 24 23 23 23 23 23 23 21 16 6 1 0 0 0 0 0 0 0 0 0 -1 -3 -4 -4 -4 -4 -4 -4 -4 -4 -4 -4 -5 -4 -3 0 7 24 55 101 109 83 49 36 49 83 108 108 81 41 12 1 -3 -4 -5 -5 -5 -5 -5 -5 -5 -5 -5 -5 -5 -5 -5 -5 -5 -5 -5 -5 -5 -5 -5 -4 1 29 100 
90 23 0 -4 -4 0 14 51 103 104 58 32 24 23 24 29 46 73 86 89 90 90 90 90 90 90 91 96 109 109 96 91 90 90 90 90 90 89 86 73 46 29 24 23 23 23 23 23 23 23 21 16 6 1 0 0 0 0 0 0 0 0 -1 -2 -1 6 22 46 83 109 101 55 24 8 3 8 23 46 83 109 101 55 24 7 0 -3 -4 -5 -5 -5 -5 -5 -5 -5 -5 -5 -5 -5 -5 -5 -5 -5 -5 -5 -5 -5 -4 0 24 92 
90 23 0 -2 1 14 51 103 103 51 15 2 0 0 0 1 6 16 21 23 23 23 23 23 23 23 24 29 46 73 86 89 90 90 90 90 90 91 96 109 109 96 91 90 90 90 90 90 90 89 86 73 46 29 24 23 23 23 23 23 23 21 16 9 14 42 81 108 108 81 41 12 1 -3 -4 -3 0 7 24 55 101 109 83 46 22 6 -1 -4 -5 -5 -5 -5 -5 -5 -5 -5 -5 -5 -5 -5 -5 -5 -5 -5 -5 -5 -4 0 23 90 
90 24 3 7 24 56 104 103 51 14 0 -4 -4 -4 -4 -4 -3 -1 0 0 0 0 0 0 0 0 0 1 6 16 21 23 23 23 23 23 23 24 29 46 73 86 89 90 90 90 90 90 90 91 96 109 109 96 91 90 90 90 90 90 89 86 75 54 63 103 110 83 46 22 6 -1 -4 -5 -5 -5 -4 -3 1 12 41 81 108 108 81 41 12 1 -3 -4 -5 -5 -5 -5 -5 -5 -5 -5 -5 -5 -5 -5 -5 -5 -5 -5 -4 0 23 90 
90 27 16 42 82 109 101 50 13 0 -4 -5 -5 -5 -5 -5 -5 -5 -4 -4 -4 -4 -4 -4 -4 -4 -4 -4 -3 -1 0 0 0 0 0 0 0 0 1 6 16 21 23 23 23 23 23 23 23 24 29 46 73 86 89 90 90 90 90 90 91 98 116 130 131 108 56 24 7 0 -3 -4 -5 -5 -5 -5 -5 -5 -4 -1 6 22 46 83 109 101 55 24 7 0 -3 -4 -5 -5 -5 -5 -5 -5 -5 -5 -5 -5 -5 -5 -5 -5 -4 0 23 90 
94 41 55 101 109 82 41 11 0 -4 -5 -5 -5 -5 -5 -5 -5 -5 -5 -5 -5 -5 -5 -5 -5 -5 -5 -5 -5 -5 -4 -4 -4 -4 -4 -4 -4 -4 -4 -3 -1 0 0 0 0 0 0 0 0 0 1 6 16 21 23 23 23 23 23 23 24 33 65 132 132 59 16 1 -3 -4 -5 -5 -5 -5 -5 -5 -5 -5 -5 -4 -3 0 7 24 55 101 109 83 46 22 6 -1 -4 -5 -5 -5 -5 -5 -5 -5 -5 -5 -5 -5 -5 -5 -4 0 23 90 
105 77 107 104 56 24 6 -1 -4 -5 -5 -5 -5 -5 -5 -5 -5 -5 -5 -5 -5 -5 -5 -5 -5 -5 -5 -5 -5 -5 -5 -5 -5 -5 -5 -5 -5 -5 -5 -5 -5 -4 -4 -4 -4 -4 -4 -4 -4 -4 -4 -3 -1 0 0 0 0 0 0 0 0 6 33 103 102 32 3 -3 -5 -5 -5 -5 -5 -5 -5 -5 -5 -5 -5 -5 -5 -4 -3 1 12 41 81 108 108 81 41 12 1 -3 -4 -5 -5 -5 -5 -5 -5 -5 -5 -5 -5 -5 -4 0 23 91 
132 123 105 51 14 1 -3 -4 -5 -5 -5 -5 -5 -5 -5 -5 -5 -5 -5 -5 -5 -5 -5 -5 -5 -5 -5 -5 -5 -5 -5 -5 -5 -5 -5 -5 -5 -5 -5 -5 -5 -5 -5 -5 -5 -5 -5 -5 -5 -5 -5 -5 -5 -4 -4 -4 -4 -4 -4 -4 -4 0 25 92 92 24 0 -4 -5 -5 -5 -5 -5 -5 -5 -5 -5 -5 -5 -5 -5 -5 -5 -4 -1 6 22 46 83 109 101 55 24 7 0 -3 -4 -5 -5 -5 -5 -5 -5 -5 -5 -5 -4 0 23 94 
154 112 52 14 0 -4 -5 -5 -5 -5 -5 -5 -5 -5 -5 -5 -5 -5 -5 -5 -5 -5 -5 -5 -5 -5 -5 -5 -5 -5 -5 -5 -5 -5 -5 -5 -5 -5 -5 -5 -5 -5 -5 -5 -5 -5 -5 -5 -5 -5 -5 -5 -5 -5 -5 -5 -5 -5 -5 -5 -4 0 23 90 90 23 0 -4 -5 -5 -5 -5 -5 -5 -5 -5 -5 -5 -5 -5 -5 -5 -5 -5 -4 -3 0 7 24 55 101 109 83 46 22 7 0 -3 -4 -5 -5 -5 -5 -5 -5 -5 -4 0 23 97 
128 59 15 0 -4 -5 -5 -5 -5 -5 -5 -5 -5 -5 -5 -5 -5 -5 -5 -5 -5 -5 -5 -5 -5 -5 -5 -5 -5 -5 -5 -5 -5 -5 -5 -5 -5 -5 -5 -5 -5 -5 -5 -5 -5 -5 -5 -5 -5 -5 -5 -5 -5 -5 -5 -5 -5 -5 -5 -5 -4 0 23 90 90 23 0 -4 -5 -5 -5 -5 -5 -5 -5 -5 -5 -5 -5 -5 -5 -5 -5 -5 -5 -5 -4 -3 1 12 41 81 108 108 82 46 22 6 -1 -4 -5 -5 -5 -5 -5 -5 -4 0 23 95 
101 31 2 -4 -5 -5 -5 -5 -5 -5 -5 -5 -5 -5 -5 -5 -5 -5 -5 -5 -5 -5 -5 -5 -5 -5 -5 -5 -5 -5 -5 -5 -5 -5 -5 -5 -5 -5 -5 -5 -5 -5 -5 -5 -5 -5 -5 -5 -5 -5 -5 -5 -5 -5 -5 -5 -5 -5 -5 -5 -4 0 23 90 90 23 0 -4 -5 -5 -5 -5 -5 -5 -5 -5 -5 -5 -5 -5 -5 -5 -5 -5 -5 -5 -5 -5 -4 -1 6 22 46 82 108 108 81 41 12 1 -3 -4 -4 -4 -5 -5 -4 0 23 91 
92 24 0 -4 -5 -5 -5 -5 -5 -5 -5 -5 -5 -5 -5 -5 -5 -5 -5 -5 -5 -5 -5 -5 -5 -5 -5 -5 -5 -5 -5 -5 -5 -5 -5 -5 -5 -5 -5 -5 -5 -5 -5 -5 -5 -5 -5 -5 -5 -5 -5 -5 -5 -5 -5 -5 -5 -5 -5 -5 -4 0 23 90 90 23 0 -4 -5 -5 -5 -5 -5 -5 -5 -5 -5 -5 -5 -5 -5 -5 -5 -5 -5 -5 -5 -5 -5 -4 -3 0 7 22 46 83 109 102 55 24 7 1 0 -1 -3 -4 -4 0 23 90 
90 23 0 -4 -5 -5 -5 -5 -5 -5 -5 -5 -5 -5 -5 -5 -5 -5 -5 -5 -5 -5 -5 -5 -5 -5 -5 -5 -5 -5 -5 -5 -5 -5 -5 -5 -5 -5 -5 -5 -5 -5 -5 -5 -5 -5 -5 -5 -5 -5 -5 -5 -5 -5 -5 -5 -5 -5 -5 -5 -4 0 23 90 90 23 0 -4 -5 -5 -5 -5 -5 -5 -5 -5 -5 -5 -5 -5 -5 -5 -5 -5 -5 -5 -5 -5 -5 -5 -5 -4 -3 0 8 25 57 105 114 86 49 29 22 16 6 1 0 3 25 90 
90 23 0 -4 -5 -5 -5 -5 -5 -5 -5 -5 -5 -5 -5 -5 -5 -5 -5 -5 -5 -5 -5 -5 -5 -5 -5 -5 -5 -5 -5 -5 -5 -5 -5 -5 -5 -5 -5 -5 -5 -5 -5 -5 -5 -5 -5 -5 -5 -5 -5 -5 -5 -5 -5 -5 -5 -5 -5 -5 -4 0 23 90 90 23 0 -4 -5 -5 -5 -5 -5 -5 -5 -5 -5 -5 -5 -5 -5 -5 -5 -5 -5 -5 -5 -5 -5 -5 -5 -5 -4 -2 1 7 25 68 121 150 126 99 88 74 46 29 23 21 34 94 
92 24 0 -4 -4 -4 -4 -4 -5 -5 -5 -5 -5 -5 -5 -5 -5 -5 -5 -5 -5 -5 -5 -5 -5 -5 -5 -5 -5 -5 -5 -5 -5 -5 -5 -5 -5 -5 -5 -5 -5 -5 -5 -5 -5 -5 -5 -5 -5 -5 -5 -5 -5 -5 -5 -5 -5 -5 -5 -5 -4 0 23 90 90 23 0 -4 -5 -5 -5 -5 -5 -5 -5 -5 -5 -5 -5 -5 -5 -5 -5 -5 -5 -5 -5 -5 -5 -4 -4 -3 0 6 17 29 51 92 126 126 105 94 97 109 109 96 88 78 71 111 
99 28 4 0 0 0 0 0 -1 -3 -4 -4 -4 -4 -4 -4 -5 -5 -5 -5 -5 -5 -5 -5 -5 -5 -5 -5 -5 -5 -5 -5 -5 -5 -5 -5 -5 -5 -5 -5 -5 -5 -5 -5 -5 -5 -5 -5 -5 -5 -5 -5 -5 -5 -5 -5 -5 -5 -5 -5 -4 0 23 90 90 23 0 -4 -5 -5 -5 -5 -5 -5 -5 -5 -5 -5 -5 -5 -5 -5 -5 -5 -5 -5 -5 -4 -3 -1 1 7 22 44 75 93 110 108 83 48 30 25 29 46 74 87 96 112 126 147 
113 49 28 24 23 23 23 21 16 6 1 0 0 0 0 0 -1 -3 -4 -4 -4 -4 -4 -4 -4 -5 -5 -5 -5 -5 -5 -5 -5 -5 -5 -5 -5 -5 -5 -5 -5 -5 -5 -5 -5 -5 -5 -5 -5 -5 -5 -5 -5 -5 -5 -5 -5 -5 -5 -5 -4 0 23 90 90 23 0 -4 -5 -5 -5 -5 -5 -5 -5 -5 -5 -5 -5 -5 -5 -5 -5 -5 -4 -4 -3 0 6 17 27 47 82 108 109 93 75 44 22 7 1 0 1 6 16 22 29 49 93 142 
145 108 93 90 90 90 89 86 73 46 29 24 23 23 23 21 16 6 1 0 0 0 0 0 0 -1 -3 -4 -4 -4 -4 -4 -4 -5 -5 -5 -5 -5 -5 -5 -5 -5 -5 -5 -5 -5 -5 -5 -5 -5 -5 -5 -5 -5 -5 -5 -5 -5 -5 -5 -4 0 23 90 90 23 0 -4 -5 -5 -5 -5 -5 -5 -5 -5 -5 -5 -5 -5 -5 -5 -4 -3 -1 1 7 22 44 75 93 109 108 82 47 27 17 6 0 -3 -4 -4 -4 -3 -1 0 2 11 43 112 
143 108 93 90 90 90 91 96 109 109 96 91 90 90 89 86 73 46 29 24 23 23 23 23 21 16 6 1 0 0 0 0 0 -1 -3 -4 -4 -4 -4 -4 -4 -4 -5 -5 -5 -5 -5 -5 -5 -5 -5 -5 -5 -5 -5 -5 -5 -5 -5 -5 -4 0 23 90 90 23 0 -4 -5 -5 -5 -5 -5 -5 -5 -5 -5 -5 -5 -5 -4 -3 0 6 17 27 47 82 108 109 93 75 44 22 7 1 -1 -3 -4 -5 -5 -5 -5 -5 -4 -4 -3 1 26 99 
106 49 28 24 23 23 24 29 46 73 86 89 90 90 91 96 109 109 96 91 90 90 90 89 86 73 46 29 24 23 23 23 21 16 6 1 0 0 0 0 0 0 -1 -3 -4 -4 -4 -4 -4 -4 -5 -5 -5 -5 -5 -5 -5 -5 -5 -5 -4 0 23 90 90 23 0 -4 -5 -5 -5 -5 -5 -5 -5 -5 -5 -4 -4 -3 0 7 22 44 75 93 109 108 82 47 27 17 6 0 -3 -4 -4 -5 -5 -5 -5 -5 -5 -5 -5 -5 -4 0 23 92 
93 28 4 0 0 0 0 1 6 16 21 23 23 23 24 29 46 73 86 89 90 90 90 91 96 109 109 96 91 90 90 89 86 73 46 29 24 23 23 23 23 21 16 6 1 0 0 0 0 0 -1 -3 -4 -4 -4 -4 -4 -4 -4 -4 -4 0 23 90 90 23 0 -4 -5 -5 -5 -5 -5 -5 -5 -4 -3 -1 1 7 22 46 82 108 109 93 75 44 22 7 1 -1 -3 -4 -5 -5 -5 -5 -5 -5 -5 -5 -5 -5 -5 -5 -4 0 23 90 
90 24 0 -4 -4 -4 -4 -4 -3 -1 0 0 0 0 0 1 6 16 21 23 23 23 23 24 29 46 73 86 89 90 90 91 96 109 109 96 91 90 90 90 89 86 73 46 29 24 23 23 23 21 16 6 1 0 0 0 0 0 0 -1 -2 0 24 90 90 23 0 -4 -5 -5 -5 -5 -4 -4 -3 0 6 17 27 47 82 108 108 82 47 27 17 6 0 -3 -4 -4 -5 -5 -5 -5 -5 -5 -5 -5 -5 -5 -5 -5 -5 -5 -4 0 23 90 
90 23 0 -4 -5 -5 -5 -5 -5 -5 -4 -4 -4 -4 -4 -4 -3 -1 0 0 0 0 0 0 1 6 16 21 23 23 23 24 29 46 73 86 89 90 90 90 91 96 109 109 96 91 90 90 89 86 73 46 29 24 23 23 23 23 21 16 7 6 28 93 92 24 0 -4 -5 -5 -4 -3 -1 1 7 22 44 75 93 109 108 82 46 22 7 1 -1 -3 -4 -5 -5 -5 -5 -5 -5 -5 -5 -5 -5 -5 -5 -5 -5 -5 -5 -5 -4 0 23 90 
90 23 0 -4 -5 -5 -5 -5 -5 -5 -5 -5 -5 -5 -5 -5 -5 -5 -4 -4 -4 -4 -4 -4 -4 -3 -1 0 0 0 0 0 1 6 16 21 23 23 23 23 24 29 46 73 86 89 90 90 91 96 109 109 96 91 90 90 90 89 86 73 46 34 50 108 103 32 3 -3 -4 -3 0 6 17 27 47 82 108 109 93 75 44 22 7 0 -3 -4 -4 -5 -5 -5 -5 -5 -5 -5 -5 -5 -5 -5 -5 -5 -5 -5 -5 -5 -5 -5 -4 0 23 90 
90 23 0 -4 -5 -5 -5 -5 -5 -5 -5 -5 -5 -5 -5 -5 -5 -5 -5 -5 -5 -5 -5 -5 -5 -5 -5 -4 -4 -4 -4 -4 -4 -3 -1 0 0 0 0 0 0 1 6 16 21 23 23 23 24 29 46 73 86 89 90 90 90 91 96 109 110 99 108 143 132 59 16 3 2 7 22 44 75 93 109 108 82 47 27 17 6 0 -3 -4 -5 -5 -5 -5 -5 -5 -5 -5 -5 -5 -5 -5 -5 -5 -5 -5 -5 -5 -5 -5 -5 -5 -4 0 23 90 
90 23 0 -4 -5 -5 -5 -5 -5 -5 -5 -5 -5 -5 -5 -5 -5 -5 -5 -5 -5 -5 -5 -5 -5 -5 -5 -5 -5 -5 -5 -5 -5 -5 -5 -4 -4 -4 -4 -4 -4 -4 -3 -1 0 0 0 0 0 1 6 16 21 23 23 23 23 24 29 46 73 86 93 107 124 108 59 33 31 48 82 108 109 93 75 44 22 7 1 -1 -3 -4 -5 -5 -5 -5 -5 -5 -5 -5 -5 -5 -5 -5 -5 -5 -5 -5 -5 -5 -5 -5 -5 -5 -5 -5 -4 0 23 90 
90 23 0 -4 -5 -5 -5 -5 -5 -5 -5 -5 -5 -5 -5 -5 -5 -5 -5 -5 -5 -5 -5 -5 -5 -5 -5 -5 -5 -5 -5 -5 -5 -5 -5 -5 -5 -5 -5 -5 -5 -5 -5 -5 -4 -4 -4 -4 -4 -4 -3 -1 0 0 0 0 0 0 1 6 16 21 24 32 59 108 124 108 101 110 108 82 47 27 17 6 0 -3 -4 -4 -5 -5 -5 -5 -5 -5 -5 -5 -5 -5 -5 -5 -5 -5 -5 -5 -5 -5 -5 -5 -5 -5 -5 -5 -5 -5 -4 0 23 90 
90 23 0 -4 -5 -5 -5 -5 -5 -5 -5 -5 -5 -5 -5 -5 -5 -5 -5 -5 -5 -5 -5 -5 -5 -5 -5 -5 -5 -5 -5 -5 -5 -5 -5 -5 -5 -5 -5 -5 -5 -5 -5 -5 -5 -5 -5 -5 -5 -5 -5 -4 -4 -4 -4 -4 -4 -4 -4 -3 -1 0 0 3 16 59 132 142 103 77 44 22 7 1 -1 -3 -4 -5 -5 -5 -5 -5 -5 -5 -5 -5 -5 -5 -5 -5 -5 -5 -5 -5 -5 -5 -5 -5 -5 -5 -5 -5 -5 -5 -5 -5 -4 0 23 90 
90 23 0 -4 -5 -5 -5 -5 -5 -5 -5 -5 -5 -5 -5 -5 -5 -5 -5 -5 -5 -5 -5 -5 -5 -5 -5 -5 -5 -5 -5 -5 -5 -5 -5 -5 -5 -5 -5 -5 -5 -5 -5 -5 -5 -5 -5 -5 -5 -5 -5 -5 -5 -5 -5 -5 -5 -5 -5 -5 -4 -4 -4 -3 3 32 103 108 47 21 6 0 -3 -4 -4 -5 -5 -5 -5 -5 -5 -5 -5 -5 -5 -5 -5 -5 -5 -5 -5 -5 -5 -5 -5 -5 -5 -5 -5 -5 -5 -5 -5 -5 -5 -5 -4 0 23 90 
90 24 0 -4 -4 -4 -4 -4 -4 -4 -4 -4 -4 -4 -4 -4 -4 -4 -4 -4 -4 -4 -4 -4 -4 -4 -4 -4 -4 -4 -4 -4 -4 -4 -4 -4 -4 -4 -4 -4 -4 -4 -4 -4 -4 -4 -4 -4 -4 -4 -4 -4 -4 -4 -4 -4 -4 -4 -4 -4 -4 -4 -4 -3 0 25 93 93 28 4 -2 -3 -4 -4 -4 -4 -4 -4 -4 -4 -4 -4 -4 -4 -4 -4 -4 -4 -4 -4 -4 -4 -4 -4 -4 -4 -4 -4 -4 -4 -4 -4 -4 -4 -4 -4 -4 0 24 90 
93 28 4 0 0 0 0 0 0 0 0 0 0 0 0 0 0 0 0 0 0 0 0 0 0 0 0 0 0 0 0 0 0 0 0 0 0 0 0 0 0 0 0 0 0 0 0 0 0 0 0 0 0 0 0 0 0 0 0 0 0 0 0 0 4 28 93 94 28 5 0 0 0 0 0 0 0 0 0 0 0 0 0 0 0 0 0 0 0 0 0 0 0 0 0 0 0 0 0 0 0 0 0 0 0 0 0 4 28 93 
109 49 28 24 23 23 23 23 23 23 23 23 23 23 23 23 23 23 23 23 23 23 23 23 23 23 23 23 23 23 23 23 23 23 23 23 23 23 23 23 23 23 23 23 23 23 23 23 23 23 23 23 23 23 23 23 23 23 23 23 23 23 23 24 28 49 108 108 49 28 24 23 23 23 23 23 23 23 23 23 23 23 23 23 23 23 23 23 23 23 23 23 23 23 23 23 23 23 23 23 23 23 23 23 23 23 24 28 49 109 
150 109 93 90 90 90 90 90 90 90 90 90 90 90 90 90 90 90 90 90 90 90 90 90 90 90 90 90 90 90 90 91 93 97 95 91 90 90 90 90 90 90 90 90 90 90 90 90 92 96 96 92 90 90 90 90 90 90 90 90 90 90 90 90 93 106 142 142 106 93 90 90 90 90 90 90 90 90 90 90 90 90 90 90 90 90 90 90 90 90 91 93 97 95 91 90 90 90 90 90 90 90 90 93 97 95 92 93 109 150 
