P2
110 110
255
150 126 107 99 96 95 95 95 95 95 95 95 95 95 95 95 95 95 95 95 95 95 95 95 95 95 95 95 96 100 108 122 135 135 122 108 100 96 95 95 95 95 95 95 95 96 98 105 120 136 136 119 105 98 96 95 95 95 95 95 95 95 95 95 96 99 101 101 99 96 95 95 95 95 95 95 95 95 95 95 95 95 95 95 95 95 95 96 98 104 116 133 137 124 109 100 96 95 95 95 97 102 114 131 138 127 113 112 128 151 
126 92 66 55 51 50 50 50 50 50 50 50 50 50 50 50 50 50 50 50 50 50 50 50 50 50 50 51 54 62 80 110 130 118 89 66 55 51 50 50 50 50 50 50 50 51 56 68 96 128 126 92 66 55 51 50 50 50 50 50 50 50 50 49 49 48 48 48 48 49 49 50 50 50 50 50 50 50 50 50 50 50 50 50 50 50 50 51 56 69 96 126 125 96 70 57 52 50 50 51 54 64 87 120 129 102 77 73 94 127 
107 66 35 22 18 17 17 17 17 17 17 17 17 17 17 17 17 17 17 17 17 17 17 17 17 17 17 19 25 40 69 105 112 83 49 29 21 18 17 17 17 17 17 17 17 19 25 42 77 117 109 65 35 22 18 17 17 17 17 17 17 17 17 16 16 16 16 16 16 16 16 17 17 17 17 17 17 17 17 17 17 17 17 17 17 17 17 20 27 47 84 114 98 60 33 22 18 17 17 18 22 36 66 106 109 71 43 42 68 107 
99 54 22 9 5 3 3 3 3 3 3 3 3 3 3 3 3 3 3 3 3 3 3 3 3 4 5 9 20 44 81 107 90 52 24 10 5 4 3 3 3 3 3 3 4 7 15 37 79 119 102 53 21 9 5 3 3 3 3 3 3 3 3 3 3 3 3 3 3 3 3 3 3 3 3 3 3 3 3 3 3 3 3 3 3 3 4 8 19 46 88 106 74 36 15 7 4 3 4 5 11 27 63 103 95 52 26 27 56 99 
96 51 18 5 0 0 0 0 0 0 0 0 0 0 0 0 0 0 0 0 0 0 0 0 0 0 3 11 30 65 99 98 63 29 10 3 0 0 0 0 0 0 0 0 1 6 19 48 95 128 101 49 17 4 0 0 0 0 0 0 0 0 0 0 0 0 0 0 0 0 0 0 0 0 0 0 0 0 0 0 0 0 0 0 0 0 1 7 22 57 97 97 56 22 6 1 0 0 0 2 9 30 71 104 83 40 19 22 52 96 
95 50 17 3 0 -1 -1 -1 -1 -1 -1 -1 -1 -1 -1 -1 -1 -1 -1 -1 -1 -1 -1 -1 0 1 6 21 50 89 103 76 38 14 4 0 -1 -1 -1 -1 -1 -1 -1 0 2 10 30 68 115 136 102 49 16 3 0 -1 -1 -1 -1 -1 -1 -1 -1 -1 -1 -1 -1 -1 -1 -1 -1 -1 -1 -1 -1 -1 -1 -1 -1 -1 -1 -1 -1 -1 -1 0 2 10 32 72 103 83 40 14 3 0 -1 -1 0 2 12 38 82 103 70 30 14 20 51 95 
95 50 17 3 0 -1 -1 -1 -1 -1 -1 -1 -1 -1 -1 -1 -1 -1 -1 -1 -1 -1 -1 -1 0 4 14 39 76 103 88 50 21 6 0 -1 -1 -1 -1 -1 -1 -1 -1 0 5 18 47 91 128 136 104 52 18 4 0 -1 -1 -1 -1 -1 -1 -1 -1 -1 -1 -1 -1 -1 -1 -1 -1 -1 -1 -1 -1 -1 -1 -1 -1 -1 -1 -1 -1 -1 -1 0 4 17 48 89 101 66 27 8 1 -1 -1 -1 0 3 16 47 92 99 58 23 11 19 50 95 
95 50 17 3 0 -1 -1 -1 -1 -1 -1 -1 -1 -1 -1 -1 -1 -1 -1 -1 -1 -1 -1 0 2 10 29 63 98 98 63 29 10 2 0 -1 -1 -1 -1 -1 -1 -1 0 2 11 32 69 108 124 126 107 59 22 5 0 -1 -1 -1 -1 -1 -1 -1 -1 -1 -1 -1 -1 -1 -1 -1 -1 -1 -1 -1 -1 -1 -1 -1 -1 -1 -1 -1 -1 -1 -1 1 8 27 66 101 89 47 17 4 0 -1 -1 -1 0 5 22 57 99 92 48 18 9 18 50 95 
95 50 17 3 0 -1 -1 -1 -1 -1 -1 -1 -1 -1 -1 -1 -1 -1 -1 -1 -1 -1 -1 0 6 21 50 88 103 76 39 14 3 0 -1 -1 -1 -1 -1 -1 -1 -1 0 6 21 52 92 111 104 109 109 69 28 8 0 -1 -1 -1 -1 -1 -1 -1 -1 -1 -1 -1 -1 -1 -1 -1 -1 -1 -1 -1 -1 -1 -1 -1 -1 -1 -1 -1 -1 -1 0 2 13 40 83 103 72 32 10 1 0 -1 -1 -1 1 8 29 69 103 82 38 13 7 18 50 95 
95 50 17 3 0 -1 -1 -1 -1 -1 -1 -1 -1 -1 -1 -1 -1 -1 -1 -1 -1 -1 0 3 14 39 76 103 88 50 21 6 0 -1 -1 -1 -1 -1 -1 -1 -1 0 3 14 38 76 105 96 77 89 107 81 36 11 1 0 -1 -1 -1 -1 -1 -1 -1 -1 -1 -1 -1 -1 -1 -1 -1 -1 -1 -1 -1 -1 -1 -1 -1 -1 -1 -1 -1 -1 0 5 21 55 96 96 55 21 5 0 -1 -1 -1 0 2 12 38 82 103 69 29 9 6 17 50 95 
95 50 17 3 0 -1 -1 -1 -1 -1 -1 -1 -1 -1 -1 -1 -1 -1 -1 -1 -1 0 2 10 29 63 98 98 63 29 10 2 0 -1 -1 -1 -1 -1 -1 -1 0 1 9 27 62 98 99 70 53 71 103 88 43 14 2 0 -1 -1 -1 -1 -1 -1 -1 -1 -1 -1 -1 -1 -1 -1 -1 -1 -1 -1 -1 -1 -1 -1 -1 -1 -1 -1 -1 0 1 10 32 72 103 83 40 13 2 0 -1 -1 -1 0 3 16 47 91 99 58 22 7 5 17 50 95 
96 51 18 4 0 -1 -1 -1 -1 -1 -1 -1 -1 -1 -1 -1 -1 -1 -1 -1 -1 0 6 21 50 88 103 76 39 14 3 0 -1 -1 -1 -1 -1 -1 -1 -1 0 4 17 46 86 103 78 45 36 59 98 93 47 16 3 0 -1 -1 -1 -1 -1 -1 -1 -1 -1 -1 -1 -1 -1 -1 -1 -1 -1 -1 -1 -1 -1 -1 -1 -1 -1 -1 -1 0 4 17 47 89 101 66 27 8 1 -1 -1 -1 -1 0 5 22 57 99 91 47 16 5 5 17 50 95 
100 55 20 5 0 -1 -1 -1 -1 -1 -1 -1 -1 -1 -1 -1 -1 -1 -1 -1 0 3 14 39 76 103 88 50 21 6 0 -1 -1 -1 -1 -1 -1 -1 -1 0 1 10 30 68 101 91 53 27 26 53 95 95 50 17 3 0 -1 -1 -1 -1 -1 -1 -1 -1 -1 -1 -1 -1 -1 -1 -1 -1 -1 -1 -1 -1 -1 -1 -1 -1 -1 -1 -1 1 8 27 66 101 89 47 17 4 0 -1 -1 -1 -1 1 8 29 69 103 82 38 12 3 4 17 49 96 
107 66 28 9 1 0 -1 -1 -1 -1 -1 -1 -1 -1 -1 -1 -1 -1 -1 0 2 10 29 63 98 98 63 29 10 2 0 -1 -1 -1 -1 -1 -1 -1 -1 0 5 18 48 89 102 70 33 16 20 48 93 97 54 19 4 0 -1 -1 -1 -1 -1 -1 -1 -1 -1 -1 -1 -1 -1 -1 -1 -1 -1 -1 -1 -1 -1 -1 -1 -1 -1 -1 0 2 13 40 83 103 72 32 10 1 0 -1 -1 -1 0 2 12 38 82 103 69 29 8 2 4 16 49 97 
121 87 45 19 6 0 0 -1 -1 -1 -1 -1 -1 -1 -1 -1 -1 -1 -1 0 6 21 50 88 103 76 39 14 3 0 -1 -1 -1 -1 -1 -1 -1 -1 0 2 11 32 70 102 89 49 20 9 16 44 88 100 60 23 5 0 -1 -1 -1 -1 -1 -1 -1 -1 -1 -1 -1 -1 -1 -1 -1 -1 -1 -1 -1 -1 -1 -1 -1 -1 -1 -1 0 5 21 55 96 96 55 21 5 0 -1 -1 -1 -1 0 3 16 47 91 99 57 22 5 1 3 16 48 99 
135 115 74 39 16 5 0 -1 -1 -1 -1 -1 -1 -1 -1 -1 -1 -1 0 3 14 39 76 103 88 50 21 6 0 -1 -1 -1 -1 -1 -1 -1 -1 -1 0 6 21 52 91 101 68 31 11 5 12 37 80 103 70 29 8 0 -1 -1 -1 -1 -1 -1 -1 -1 -1 -1 -1 -1 -1 -1 -1 -1 -1 -1 -1 -1 -1 -1 -1 -1 -1 0 1 10 32 72 103 83 40 13 2 0 -1 -1 -1 -1 0 5 22 57 99 91 47 16 3 0 3 16 48 101 
136 130 105 69 35 13 3 0 -1 -1 -1 -1 -1 -1 -1 -1 -1 0 2 10 29 63 98 98 63 29 10 2 0 -1 -1 -1 -1 -1 -1 -1 -1 0 3 14 38 76 103 86 46 18 5 2 8 29 70 103 80 37 11 1 0 -1 -1 -1 -1 -1 -1 -1 -1 -1 -1 -1 -1 -1 -1 -1 -1 -1 -1 -1 -1 -1 -1 -1 -1 0 4 17 47 89 101 66 27 8 1 -1 -1 -1 -1 -1 1 8 29 69 103 82 38 12 2 0 3 16 48 101 
125 118 114 97 61 28 10 2 0 -1 -1 -1 -1 -1 -1 -1 -1 0 6 21 50 88 103 76 39 14 3 0 -1 -1 -1 -1 -1 -1 -1 -1 0 1 9 27 62 98 98 62 27 9 2 1 6 23 60 100 88 43 14 2 0 -1 -1 -1 -1 -1 -1 -1 -1 -1 -1 -1 -1 -1 -1 -1 -1 -1 -1 -1 -1 -1 -1 -1 -1 1 8 27 66 101 89 47 17 4 0 -1 -1 -1 -1 0 2 12 38 82 103 69 29 8 1 0 3 16 48 99 
111 94 96 107 88 51 22 7 1 0 -1 -1 -1 -1 -1 -1 0 3 14 39 76 103 88 50 21 6 0 -1 -1 -1 -1 -1 -1 -1 -1 -1 0 4 17 46 86 103 76 38 14 3 0 0 4 19 54 97 93 47 16 3 0 -1 -1 -1 -1 -1 -1 -1 -1 -1 -1 -1 -1 -1 -1 -1 -1 -1 -1 -1 -1 -1 -1 -1 0 2 13 40 83 103 72 32 10 1 0 -1 -1 -1 -1 0 3 16 47 91 99 57 22 5 0 0 3 16 49 97 
103 74 70 93 104 79 43 19 6 1 0 -1 -1 -1 -1 0 2 10 29 63 98 98 63 29 10 2 0 -1 -1 -1 -1 -1 -1 -1 -1 0 1 10 30 68 101 91 52 21 6 0 0 0 3 17 50 95 95 50 17 3 0 -1 -1 -1 -1 -1 -1 -1 -1 -1 -1 -1 -1 -1 -1 -1 -1 -1 -1 -1 -1 -1 -1 -1 0 5 21 55 96 96 55 21 5 0 -1 -1 -1 -1 -1 0 5 22 57 99 91 47 16 3 0 0 3 16 49 96 
98 62 47 67 97 101 74 41 18 6 1 0 -1 -1 -1 0 6 21 50 88 103 76 39 14 3 0 -1 -1 -1 -1 -1 -1 -1 -1 -1 0 5 18 48 89 102 70 32 11 2 0 -1 0 3 16 47 93 97 54 19 4 0 -1 -1 -1 -1 -1 -1 -1 -1 -1 -1 -1 -1 -1 -1 -1 -1 -1 -1 -1 -1 -1 -1 0 1 10 32 72 103 83 40 13 2 0 -1 -1 -1 -1 -1 1 8 29 69 103 82 38 12 2 0 0 3 17 50 95 
96 55 32 40 70 99 100 72 40 18 6 1 0 -1 0 3 14 39 76 103 88 50 21 6 0 -1 -1 -1 -1 -1 -1 -1 -1 -1 0 2 11 32 70 102 89 48 18 5 0 -1 -1 0 2 14 43 88 100 60 23 5 0 -1 -1 -1 -1 -1 -1 -1 -1 -1 -1 -1 -1 -1 -1 -1 -1 -1 -1 -1 -1 -1 -1 0 4 17 47 89 101 66 27 8 1 -1 -1 -1 -1 -1 0 2 12 38 82 103 69 29 8 1 0 0 3 17 50 95 
95 52 24 22 40 72 99 99 72 40 18 6 1 0 2 10 29 63 98 98 63 29 10 2 0 -1 -1 -1 -1 -1 -1 -1 -1 -1 0 6 21 52 91 101 68 30 10 1 0 -1 -1 0 1 11 37 80 103 70 29 8 0 -1 -1 -1 -1 -1 -1 -1 -1 -1 -1 -1 -1 -1 -1 -1 -1 -1 -1 -1 -1 -1 -1 1 8 27 66 101 89 47 17 4 0 -1 -1 -1 -1 -1 0 3 16 47 91 99 57 22 5 0 -1 0 3 17 50 95 
95 50 19 11 19 40 72 99 99 72 40 18 7 3 7 21 50 88 103 76 39 14 3 0 -1 -1 -1 -1 -1 -1 -1 -1 -1 0 3 14 38 76 103 86 46 17 4 0 -1 -1 -1 -1 0 8 29 70 103 81 37 11 1 0 -1 -1 -1 -1 -1 -1 -1 -1 -1 -1 -1 -1 -1 -1 -1 -1 -1 -1 -1 -1 0 2 13 40 83 103 72 32 10 1 0 -1 -1 -1 -1 -1 0 5 22 57 99 91 47 16 3 0 -1 0 3 17 50 95 
95 50 18 6 7 18 40 72 99 99 72 40 20 12 18 40 76 103 88 50 21 6 0 -1 -1 -1 -1 -1 -1 -1 -1 -1 0 1 9 27 62 98 98 62 27 9 1 0 -1 -1 -1 -1 0 5 22 60 100 89 43 14 2 0 -1 -1 -1 -1 -1 -1 -1 -1 -1 -1 -1 -1 -1 -1 -1 -1 -1 -1 -1 -1 0 5 21 55 96 96 55 21 5 0 -1 -1 -1 -1 -1 -1 1 8 29 69 103 82 38 12 2 0 -1 0 3 17 50 95 
95 50 17 4 2 6 18 40 72 99 100 73 44 30 37 66 99 98 63 29 10 2 0 -1 -1 -1 -1 -1 -1 -1 -1 -1 0 4 17 46 86 103 76 38 14 3 0 -1 -1 -1 -1 -1 0 4 19 53 97 93 48 16 3 0 -1 -1 -1 -1 -1 -1 -1 -1 -1 -1 -1 -1 -1 -1 -1 -1 -1 -1 -1 0 1 10 32 72 103 83 40 13 2 0 -1 -1 -1 -1 -1 0 2 12 38 82 103 69 29 8 1 -1 -1 0 3 17 50 95 
95 50 17 3 0 1 6 18 40 72 100 101 80 63 69 95 104 76 38 14 3 0 -1 -1 -1 -1 -1 -1 -1 -1 -1 0 1 10 30 68 101 91 52 21 6 0 -1 -1 -1 -1 -1 -1 0 3 16 48 93 97 53 19 4 0 -1 -1 -1 -1 -1 -1 -1 -1 -1 -1 -1 -1 -1 -1 -1 -1 -1 -1 -1 0 4 17 47 89 101 66 27 8 1 -1 -1 -1 -1 -1 -1 0 3 16 47 91 99 57 22 5 0 -1 -1 0 3 17 50 95 
95 50 17 3 0 0 1 6 18 40 72 102 110 105 108 112 89 50 21 6 0 -1 -1 -1 -1 -1 -1 -1 -1 -1 -1 0 5 18 48 89 102 70 32 11 2 0 -1 -1 -1 -1 -1 -1 0 2 14 43 89 100 60 22 5 0 -1 -1 -1 -1 -1 -1 -1 -1 -1 -1 -1 -1 -1 -1 -1 -1 -1 -1 -1 1 8 27 66 101 89 47 17 4 0 -1 -1 -1 -1 -1 -1 0 5 22 57 99 91 47 16 3 0 -1 -1 0 3 17 50 95 
95 50 17 3 0 -1 0 1 6 18 40 75 111 133 133 107 64 29 10 2 0 -1 -1 -1 -1 -1 -1 -1 -1 -1 0 2 11 32 70 102 89 48 18 5 0 -1 -1 -1 -1 -1 -1 -1 0 1 11 37 81 103 70 29 8 0 -1 -1 -1 -1 -1 -1 -1 -1 -1 -1 -1 -1 -1 -1 -1 -1 -1 -1 0 2 13 40 83 103 72 32 10 1 0 -1 -1 -1 -1 -1 -1 1 8 29 69 103 82 38 12 2 0 -1 -1 0 3 17 50 95 
95 50 17 3 0 -1 -1 0 1 6 19 45 87 128 128 86 41 15 4 0 -1 -1 -1 -1 -1 -1 -1 -1 -1 -1 0 6 21 52 91 101 68 30 10 1 0 -1 -1 -1 -1 -1 -1 -1 -1 0 8 29 70 103 80 37 11 1 0 -1 -1 -1 -1 -1 -1 -1 -1 -1 -1 -1 -1 -1 -1 -1 -1 -1 0 5 21 55 96 96 55 21 5 0 -1 -1 -1 -1 -1 -1 0 2 12 38 82 103 69 29 8 1 -1 -1 -1 0 3 17 50 95 
95 50 17 3 0 -1 -1 -1 0 1 9 27 63 109 114 69 29 9 1 0 -1 -1 -1 -1 -1 -1 -1 -1 -1 0 3 14 38 76 103 86 46 17 4 0 -1 -1 -1 -1 -1 -1 -1 -1 -1 0 5 23 60 100 88 43 14 2 0 -1 -1 -1 -1 -1 -1 -1 -1 -1 -1 -1 -1 -1 -1 -1 -1 0 1 10 32 72 103 83 40 13 2 0 -1 -1 -1 -1 -1 -1 0 3 16 47 91 99 57 22 5 0 -1 -1 -1 0 3 17 50 95 
95 50 17 3 0 -1 -1 -1 -1 0 4 17 49 94 106 65 26 7 0 -1 -1 -1 -1 -1 -1 -1 -1 -1 0 1 9 27 62 98 98 62 27 9 1 0 -1 -1 -1 -1 -1 -1 -1 -1 -1 0 4 19 54 97 93 47 16 3 0 -1 -1 -1 -1 -1 -1 -1 -1 -1 -1 -1 -1 -1 -1 -1 -1 0 4 17 47 89 101 66 27 8 1 -1 -1 -1 -1 -1 -1 -1 0 5 22 57 99 91 47 16 3 0 -1 -1 -1 0 3 17 50 95 
95 50 17 3 0 -1 -1 -1 -1 0 2 12 38 82 105 71 30 8 1 -1 -1 -1 -1 -1 -1 -1 -1 -1 0 4 17 46 86 103 76 38 14 3 0 -1 -1 -1 -1 -1 -1 -1 -1 -1 -1 0 3 17 50 95 95 50 17 3 0 -1 -1 -1 -1 -1 -1 -1 -1 -1 -1 -1 -1 -1 -1 -1 -1 1 8 27 66 101 89 47 17 4 0 -1 -1 -1 -1 -1 -1 -1 1 8 29 69 103 82 38 12 2 0 -1 -1 -1 0 3 17 50 95 
95 50 17 3 0 -1 -1 -1 -1 -1 1 8 29 70 104 81 37 11 2 0 -1 -1 -1 -1 -1 -1 -1 0 1 10 30 68 101 91 52 21 6 0 -1 -1 -1 -1 -1 -1 -1 -1 -1 -1 -1 0 3 16 47 93 97 54 19 4 0 -1 -1 -1 -1 -1 -1 -1 -1 -1 -1 -1 -1 -1 -1 -1 0 2 13 40 83 103 72 32 10 1 0 -1 -1 -1 -1 -1 -1 0 2 12 38 82 103 69 29 8 1 -1 -1 -1 -1 0 3 17 50 95 
95 49 17 3 0 -1 -1 -1 -1 -1 0 5 22 59 100 89 44 15 3 0 -1 -1 -1 -1 -1 -1 -1 0 5 18 48 89 102 70 32 11 2 0 -1 -1 -1 -1 -1 -1 -1 -1 -1 -1 -1 0 2 14 43 88 100 60 23 5 0 -1 -1 -1 -1 -1 -1 -1 -1 -1 -1 -1 -1 -1 -1 -1 0 5 21 55 96 96 55 21 5 0 -1 -1 -1 -1 -1 -1 -1 0 3 16 47 91 99 57 22 5 0 -1 -1 -1 -1 0 3 17 51 96 
95 49 16 3 0 -1 -1 -1 -1 -1 0 4 18 51 95 95 51 18 4 0 -1 -1 -1 -1 -1 -1 0 2 11 32 70 102 89 48 18 5 0 -1 -1 -1 -1 -1 -1 -1 -1 -1 -1 -1 -1 0 1 11 37 80 103 70 29 8 0 -1 -1 -1 -1 -1 -1 -1 -1 -1 -1 -1 -1 -1 -1 0 1 10 32 72 103 83 40 13 2 0 -1 -1 -1 -1 -1 -1 -1 0 5 22 57 99 91 47 16 3 0 -1 -1 -1 -1 0 4 19 54 99 
96 49 16 3 0 -1 -1 -1 -1 -1 0 3 15 44 89 100 59 22 5 0 -1 -1 -1 -1 -1 -1 0 6 21 52 91 101 68 30 10 1 0 -1 -1 -1 -1 -1 -1 -1 -1 -1 -1 -1 -1 -1 0 8 29 70 103 80 37 11 1 0 -1 -1 -1 -1 -1 -1 -1 -1 -1 -1 -1 -1 -1 0 4 17 47 89 101 66 27 8 1 -1 -1 -1 -1 -1 -1 -1 -1 1 8 29 69 103 82 38 12 2 0 -1 -1 -1 -1 0 6 23 61 105 
98 48 16 3 0 -1 -1 -1 -1 -1 0 2 11 37 81 103 70 29 8 0 -1 -1 -1 -1 -1 0 3 14 38 76 103 86 46 17 4 0 -1 -1 -1 -1 -1 -1 -1 -1 -1 -1 -1 -1 -1 -1 0 5 23 60 100 88 43 14 2 0 -1 -1 -1 -1 -1 -1 -1 -1 -1 -1 -1 -1 -1 1 8 27 66 101 89 47 17 4 0 -1 -1 -1 -1 -1 -1 -1 0 2 12 38 82 103 69 29 8 1 -1 -1 -1 -1 0 2 11 33 75 115 
100 47 15 3 0 -1 -1 -1 -1 -1 -1 0 8 29 70 103 81 37 11 2 0 -1 -1 -1 0 1 9 27 62 98 98 62 27 9 1 0 -1 -1 -1 -1 -1 -1 -1 -1 -1 -1 -1 -1 -1 -1 0 4 19 54 97 93 47 16 3 0 -1 -1 -1 -1 -1 -1 -1 -1 -1 -1 -1 -1 0 2 13 40 83 103 72 32 10 1 0 -1 -1 -1 -1 -1 -1 -1 0 3 16 47 91 99 57 22 5 0 -1 -1 -1 -1 0 6 20 51 97 128 
101 47 15 3 0 -1 -1 -1 -1 -1 -1 0 5 22 59 100 89 44 15 3 0 -1 -1 -1 0 4 17 46 86 103 76 38 14 3 0 -1 -1 -1 -1 -1 -1 -1 -1 -1 -1 -1 -1 -1 -1 -1 0 3 17 50 95 95 50 17 3 0 -1 -1 -1 -1 -1 -1 -1 -1 -1 -1 -1 -1 0 5 21 55 96 96 55 21 5 0 -1 -1 -1 -1 -1 -1 -1 -1 0 5 22 57 99 91 47 16 3 0 -1 -1 -1 0 3 14 38 77 120 136 
100 48 16 3 0 -1 -1 -1 -1 -1 -1 0 4 18 51 95 95 51 18 4 0 -1 -1 0 1 10 30 68 101 91 52 21 6 0 -1 -1 -1 -1 -1 -1 -1 -1 -1 -1 -1 -1 -1 -1 -1 -1 0 3 16 47 93 97 54 19 4 0 -1 -1 -1 -1 -1 -1 -1 -1 -1 -1 -1 0 1 10 32 72 103 83 40 13 2 0 -1 -1 -1 -1 -1 -1 -1 -1 1 8 29 69 103 82 38 12 2 0 -1 -1 0 2 10 28 63 103 130 134 
98 49 16 3 0 -1 -1 -1 -1 -1 -1 0 3 15 44 89 100 59 22 5 0 -1 -1 0 5 18 48 89 102 70 32 11 2 0 -1 -1 -1 -1 -1 -1 -1 -1 -1 -1 -1 -1 -1 -1 -1 -1 0 2 14 43 88 100 60 23 6 0 -1 -1 -1 -1 -1 -1 -1 -1 -1 -1 -1 0 4 17 47 89 101 66 27 8 1 -1 -1 -1 -1 -1 -1 -1 -1 0 2 12 38 82 103 69 29 8 1 -1 -1 -1 0 6 21 50 89 114 120 124 
97 49 16 3 0 -1 -1 -1 -1 -1 -1 0 2 11 37 81 103 70 29 8 1 0 0 2 11 32 70 102 89 48 18 5 0 -1 -1 -1 -1 -1 -1 -1 -1 -1 -1 -1 -1 -1 -1 -1 -1 -1 0 2 11 37 81 104 71 30 9 2 0 0 -1 -1 -1 -1 -1 -1 -1 -1 -1 1 8 27 66 101 89 47 17 4 0 -1 -1 -1 -1 -1 -1 -1 -1 0 3 16 47 91 99 57 22 5 0 -1 -1 0 3 14 38 76 106 104 100 113 
96 49 16 3 0 -1 -1 -1 -1 -1 -1 -1 0 8 29 70 103 81 37 11 2 0 0 6 21 52 91 101 68 30 10 1 0 -1 -1 -1 -1 -1 -1 -1 -1 -1 -1 -1 -1 -1 -1 -1 -1 -1 -1 1 9 30 72 106 84 42 16 7 3 2 1 0 0 0 0 0 0 0 0 3 14 40 83 103 72 32 10 1 0 -1 -1 -1 -1 -1 -1 -1 -1 0 5 22 57 99 91 47 16 3 0 -1 0 2 10 29 63 98 102 81 80 105 
95 50 17 3 0 -1 -1 -1 -1 -1 -1 -1 0 5 22 59 100 89 44 15 3 1 3 14 38 76 103 86 46 17 4 0 -1 -1 -1 -1 -1 -1 -1 -1 -1 -1 -1 -1 -1 -1 -1 -1 -1 -1 0 1 9 28 67 108 100 60 32 20 15 11 8 5 4 3 3 2 2 1 2 7 22 56 96 96 55 21 5 0 -1 -1 -1 -1 -1 -1 -1 -1 -1 1 8 29 69 103 82 38 12 2 0 0 0 6 21 50 88 104 81 57 66 100 
95 50 17 3 0 -1 -1 -1 -1 -1 -1 -1 0 4 18 51 95 95 51 18 5 3 9 28 62 98 98 62 27 9 1 0 -1 -1 -1 -1 -1 -1 -1 -1 -1 -1 -1 -1 -1 -1 -1 -1 -1 0 1 5 14 35 74 118 122 90 64 52 44 37 29 23 19 17 16 14 11 9 9 16 36 74 104 83 40 13 2 0 -1 -1 -1 -1 -1 -1 -1 -1 0 2 12 38 82 103 69 29 8 1 0 0 3 14 39 76 103 90 56 40 58 97 
95 50 17 3 0 -1 -1 -1 -1 -1 -1 -1 0 3 15 44 89 100 59 23 7 6 18 46 86 103 76 38 14 3 0 -1 -1 -1 -1 -1 -1 -1 -1 -1 -1 -1 -1 -1 -1 -1 -1 -1 0 2 6 15 31 58 96 132 138 120 104 96 89 81 70 60 54 50 47 43 37 30 28 36 61 96 104 66 28 8 1 -1 -1 -1 -1 -1 -1 -1 -1 -1 0 3 16 47 91 99 57 22 5 0 0 2 10 29 63 98 98 64 34 29 54 96 
95 50 17 3 0 -1 -1 -1 -1 -1 -1 -1 0 2 11 37 81 103 70 30 12 13 31 68 101 91 52 21 6 0 -1 -1 -1 -1 -1 -1 -1 -1 -1 -1 -1 -1 -1 -1 -1 -1 0 0 3 10 21 39 64 92 114 121 114 104 99 98 101 103 103 100 97 95 93 88 81 72 67 74 97 117 96 50 18 4 0 -1 -1 -1 -1 -1 -1 -1 -1 -1 0 5 22 57 99 91 47 16 3 0 1 6 21 50 88 103 76 40 20 22 51 95 
95 50 17 3 0 -1 -1 -1 -1 -1 -1 -1 -1 0 8 29 70 103 81 39 18 22 49 89 102 70 32 11 2 0 -1 -1 -1 -1 -1 -1 -1 -1 -1 -1 -1 -1 -1 -1 -1 0 2 6 14 29 50 76 98 105 94 76 61 54 52 54 60 70 80 88 93 95 97 100 104 105 107 116 132 129 87 40 14 3 0 -1 -1 -1 -1 -1 -1 -1 -1 -1 1 8 29 69 103 82 38 12 2 0 4 14 39 76 103 88 50 22 12 19 50 95 
95 50 17 3 0 -1 -1 -1 -1 -1 -1 -1 -1 0 5 22 59 100 90 49 28 37 71 102 89 48 18 5 0 -1 -1 -1 -1 -1 -1 -1 -1 -1 -1 -1 -1 -1 -1 0 0 3 9 21 38 63 88 103 98 77 53 34 23 19 18 19 23 29 37 43 47 50 54 60 70 82 95 111 131 129 88 42 15 4 0 -1 -1 -1 -1 -1 -1 -1 -1 0 2 12 38 82 103 69 29 8 2 2 10 29 63 98 98 63 29 11 7 18 50 95 
95 50 17 3 0 -1 -1 -1 -1 -1 -1 -1 -1 0 4 18 51 95 97 60 42 58 92 102 68 30 10 1 0 -1 -1 -1 -1 -1 -1 -1 -1 -1 -1 -1 -1 -1 0 1 5 13 28 50 76 98 103 88 63 39 21 11 6 4 4 4 5 8 11 14 16 17 19 23 29 38 50 67 94 116 99 57 25 9 3 0 0 0 0 0 0 0 0 0 5 17 48 92 99 58 22 6 2 7 21 50 88 103 76 39 15 5 5 17 50 95 
95 50 17 3 0 -1 -1 -1 -1 -1 -1 -1 -1 0 3 14 44 90 104 76 63 84 104 86 46 17 4 0 -1 -1 -1 -1 -1 -1 -1 -1 -1 -1 -1 -1 -1 0 2 7 17 36 62 88 103 98 76 50 29 15 6 2 0 0 0 0 0 0 1 2 3 3 4 6 8 12 19 31 57 93 108 83 47 24 12 7 4 4 3 3 3 3 4 5 11 26 61 101 93 49 18 5 5 15 39 76 103 88 50 21 6 2 4 17 50 95 
95 50 17 3 0 -1 -1 -1 -1 -1 -1 -1 -1 0 2 11 37 81 110 98 93 106 99 62 27 9 1 0 -1 -1 -1 -1 -1 -1 -1 -1 -1 -1 -1 0 0 4 10 22 42 70 96 103 89 63 39 21 10 3 0 0 -1 -1 -1 -1 -1 -1 0 0 0 0 0 0 1 2 5 13 31 65 102 109 83 54 34 24 19 17 17 17 17 17 17 19 26 45 82 111 89 44 16 8 12 29 63 98 98 63 29 10 2 0 3 17 50 95 
95 50 17 3 0 -1 -1 -1 -1 -1 -1 -1 -1 -1 0 8 28 69 112 121 118 110 76 38 14 3 0 -1 -1 -1 -1 -1 -1 -1 -1 -1 -1 -1 0 2 6 14 29 51 78 100 100 78 51 29 14 6 2 0 -1 -1 -1 -1 -1 -1 -1 -1 -1 -1 -1 -1 -1 -1 -1 0 0 5 16 42 85 122 123 99 76 62 54 51 50 50 50 50 50 53 61 80 111 125 90 47 22 15 25 52 89 103 76 39 14 4 0 0 3 17 50 95 
95 50 17 3 0 -1 -1 -1 -1 -1 -1 -1 -1 -1 0 5 22 59 109 135 127 93 51 21 6 0 -1 -1 -1 -1 -1 -1 -1 -1 -1 -1 0 0 3 10 21 39 63 89 103 96 70 42 22 10 4 0 0 -1 -1 -1 -1 -1 -1 -1 -1 -1 -1 -1 -1 -1 -1 -1 -1 -1 0 1 9 29 69 119 139 127 112 103 98 96 95 95 95 95 95 97 103 116 135 136 105 66 42 35 49 80 104 89 50 21 6 0 0 0 3 17 50 95 
95 50 17 3 0 -1 -1 -1 -1 -1 -1 -1 -1 -1 0 4 18 52 105 137 116 69 31 10 2 0 -1 -1 -1 -1 -1 -1 -1 -1 -1 0 1 6 14 29 50 76 98 103 88 62 36 17 7 2 0 -1 -1 -1 -1 -1 -1 -1 -1 -1 -1 -1 -1 -1 -1 -1 -1 -1 -1 -1 -1 0 7 26 65 113 124 105 93 92 93 94 95 95 95 95 95 96 98 103 113 122 117 99 80 73 86 108 102 65 30 10 2 0 -1 0 3 17 50 95 
95 50 17 3 0 -1 -1 -1 -1 -1 -1 -1 -1 -1 0 3 16 49 101 128 94 47 18 4 0 -1 -1 -1 -1 -1 -1 -1 -1 0 0 3 9 20 38 63 89 104 99 77 51 29 14 5 1 0 -1 -1 -1 -1 -1 -1 -1 -1 -1 -1 -1 -1 -1 -1 -1 -1 -1 -1 -1 -1 -1 1 8 30 71 109 98 66 50 47 48 49 49 50 50 50 50 50 51 53 61 75 93 105 111 115 125 124 89 45 17 4 0 -1 -1 0 3 17 50 95 
95 50 17 3 0 -1 -1 -1 -1 -1 -1 -1 -1 -1 0 3 16 49 99 115 74 32 10 1 0 -1 -1 -1 -1 -1 0 0 1 3 7 14 27 48 76 101 108 94 68 42 23 12 5 1 0 -1 -1 -1 -1 -1 -1 -1 -1 -1 -1 -1 -1 -1 -1 -1 -1 -1 -1 -1 -1 -1 0 1 11 37 81 105 76 39 22 17 16 16 17 17 17 17 17 17 17 19 23 33 49 70 94 119 138 127 81 37 13 3 0 -1 -1 0 3 17 50 95 
95 50 17 3 0 -1 -1 -1 -1 -1 -1 -1 -1 -1 0 3 17 50 98 104 60 23 6 0 -1 -1 -1 -1 0 0 1 4 8 14 24 39 62 92 116 120 99 70 46 28 16 9 5 2 1 0 0 0 0 -1 -1 -1 -1 -1 -1 -1 -1 -1 -1 -1 -1 -1 -1 -1 -1 -1 0 2 14 43 89 101 61 25 9 4 3 3 3 3 3 3 3 3 3 4 6 10 18 32 52 81 114 122 88 45 17 4 0 -1 -1 0 3 17 50 95 
95 50 17 3 0 -1 -1 -1 -1 -1 -1 -1 -1 -1 0 4 19 53 98 96 51 18 4 0 -1 -1 0 0 1 4 9 17 28 41 58 80 106 129 138 125 98 74 57 43 31 23 17 12 8 5 4 3 2 0 0 0 0 -1 -1 -1 -1 -1 -1 -1 -1 -1 -1 -1 -1 -1 0 3 16 48 93 97 53 19 5 0 0 0 0 0 0 0 0 0 0 0 0 2 5 11 22 43 76 106 102 65 30 10 2 0 -1 0 3 17 50 95 
95 50 17 3 0 -1 -1 -1 -1 -1 -1 -1 -1 -1 0 5 23 60 101 90 44 15 3 0 0 1 2 5 10 18 30 47 66 84 98 109 116 119 123 121 112 102 93 82 70 58 47 38 29 22 18 15 11 8 5 3 2 1 0 0 0 0 -1 -1 -1 -1 -1 -1 -1 -1 0 4 19 53 97 93 48 16 3 0 -1 -1 -1 -1 -1 -1 -1 -1 -1 -1 -1 0 0 2 7 19 43 79 105 89 50 21 6 0 0 0 3 17 50 95 
95 50 17 3 0 -1 -1 -1 -1 -1 -1 -1 -1 -1 0 8 29 70 103 81 37 12 3 2 4 8 13 21 33 49 69 88 101 103 97 86 75 70 74 83 91 96 100 103 103 99 92 82 70 59 51 44 37 29 21 16 12 8 5 4 3 2 0 0 0 0 -1 -1 -1 -1 0 6 23 60 100 89 43 14 2 0 -1 -1 -1 -1 -1 -1 -1 -1 -1 -1 -1 -1 -1 0 1 7 22 51 89 103 76 39 15 4 0 0 3 17 50 95 
95 50 17 3 0 -1 -1 -1 -1 -1 -1 -1 -1 0 2 11 37 81 104 71 31 12 7 10 17 27 40 55 72 90 102 102 90 73 56 42 32 28 30 37 44 51 59 70 82 91 99 103 103 100 95 89 81 69 57 47 38 29 22 18 15 11 8 5 3 2 1 0 0 0 1 9 29 70 103 81 37 11 1 0 -1 -1 -1 -1 -1 -1 -1 -1 -1 -1 -1 -1 -1 -1 0 2 10 29 63 98 98 63 29 10 2 0 4 17 50 95 
95 50 17 3 0 -1 -1 -1 -1 -1 -1 -1 -1 0 3 15 44 90 101 63 29 18 20 31 47 65 83 96 103 101 88 69 49 33 21 14 9 8 9 11 14 18 22 29 38 47 57 69 81 89 95 100 103 103 99 91 82 70 59 51 44 37 29 21 16 12 8 5 4 4 5 14 39 82 103 70 29 8 0 -1 -1 -1 -1 -1 -1 -1 -1 -1 -1 -1 -1 -1 -1 -1 -1 0 4 14 39 76 103 89 51 22 7 2 4 17 50 95 
95 50 17 3 0 -1 -1 -1 -1 -1 -1 -1 -1 0 4 18 51 97 102 64 39 37 50 69 88 101 103 96 83 65 47 30 18 10 5 3 1 0 1 2 3 4 5 8 12 16 21 29 37 44 51 59 70 82 91 99 103 103 100 95 89 81 69 57 47 38 29 22 18 16 16 24 50 92 101 60 22 5 0 -1 -1 -1 -1 -1 -1 -1 -1 -1 -1 -1 -1 -1 -1 -1 -1 -1 0 6 21 50 88 103 78 42 18 6 6 17 50 95 
95 50 17 3 0 -1 -1 -1 -1 -1 -1 -1 -1 0 6 23 60 106 109 80 66 74 90 102 102 90 72 55 40 27 17 9 4 1 0 0 -1 -1 -1 0 0 0 0 1 2 3 5 8 11 15 18 22 29 38 47 57 69 81 89 95 100 103 103 99 91 82 70 59 51 46 42 46 69 104 99 53 19 4 0 -1 -1 -1 -1 -1 -1 -1 -1 -1 -1 -1 -1 -1 -1 -1 -1 -1 0 2 9 28 62 96 100 71 36 15 9 18 50 95 
95 50 17 3 0 -1 -1 -1 -1 -1 -1 -1 0 1 10 32 75 120 126 108 102 105 102 89 69 49 33 21 13 8 4 1 0 0 -1 -1 -1 -1 -1 -1 -1 -1 -1 -1 0 0 0 0 2 3 4 5 8 12 16 21 29 37 44 51 59 70 82 91 99 103 103 100 95 90 85 85 101 121 100 50 17 3 0 -1 -1 -1 -1 -1 -1 -1 -1 -1 -1 -1 -1 -1 -1 -1 -1 -1 -1 0 3 13 36 70 100 96 62 30 15 21 51 95 
95 50 17 3 0 -1 -1 -1 -1 -1 -1 -1 0 5 18 48 95 134 135 119 105 89 68 48 31 18 10 5 2 1 0 0 -1 -1 -1 -1 -1 -1 -1 -1 -1 -1 -1 -1 -1 -1 -1 -1 0 0 0 0 1 2 3 5 8 11 15 18 22 29 38 47 57 69 81 89 95 101 107 115 129 137 102 48 16 3 0 -1 -1 -1 -1 -1 -1 -1 -1 -1 -1 -1 -1 -1 -1 -1 -1 -1 -1 -1 0 5 17 42 78 103 89 52 27 26 53 96 
95 50 17 3 0 -1 -1 -1 -1 -1 -1 0 2 10 31 70 112 125 108 86 65 46 30 18 10 4 1 0 0 -1 -1 -1 -1 -1 -1 -1 -1 -1 -1 -1 -1 -1 -1 -1 -1 -1 -1 -1 -1 -1 -1 -1 -1 0 0 0 0 2 3 4 5 8 12 16 21 29 37 44 51 60 73 93 119 134 101 48 16 3 0 -1 -1 -1 -1 -1 -1 -1 -1 -1 -1 -1 -1 -1 -1 -1 -1 -1 -1 -1 0 1 7 22 51 88 103 80 48 36 57 97 
95 50 17 3 0 -1 -1 -1 -1 -1 -1 0 6 21 52 92 111 91 62 42 27 17 9 4 1 0 0 -1 -1 -1 -1 -1 -1 -1 -1 -1 -1 -1 -1 -1 -1 -1 -1 -1 -1 -1 -1 -1 -1 -1 -1 -1 -1 -1 -1 -1 -1 0 0 0 0 1 2 3 5 8 11 15 18 23 34 53 86 117 99 49 16 3 0 -1 -1 -1 -1 -1 -1 -1 -1 -1 -1 -1 -1 -1 -1 -1 -1 -1 -1 -1 -1 0 2 10 28 62 96 101 76 55 65 99 
96 49 16 3 0 -1 -1 -1 -1 -1 0 4 15 39 77 104 91 56 29 16 8 4 1 0 0 -1 -1 -1 -1 -1 -1 -1 -1 -1 -1 -1 -1 -1 -1 -1 -1 -1 -1 -1 -1 -1 -1 -1 -1 -1 -1 -1 -1 -1 -1 -1 -1 -1 -1 -1 -1 -1 0 0 0 0 2 3 4 7 13 30 63 104 97 50 17 3 0 -1 -1 -1 -1 -1 -1 -1 -1 -1 -1 -1 -1 -1 -1 -1 -1 -1 -1 -1 -1 -1 0 3 13 36 70 101 101 80 80 104 
97 49 16 3 0 -1 -1 -1 -1 0 2 10 29 63 98 98 64 31 12 4 1 0 0 -1 -1 -1 -1 -1 -1 -1 -1 -1 -1 -1 -1 -1 -1 -1 -1 -1 -1 -1 -1 -1 -1 -1 -1 -1 -1 -1 -1 -1 -1 -1 -1 -1 -1 -1 -1 -1 -1 -1 -1 -1 -1 -1 0 0 0 1 6 20 54 98 97 51 18 4 0 -1 -1 -1 -1 -1 -1 -1 -1 -1 -1 -1 -1 -1 -1 -1 -1 -1 -1 -1 -1 -1 -1 0 5 17 42 78 106 104 99 113 
98 49 16 3 0 -1 -1 -1 0 1 7 22 51 89 104 77 40 16 5 0 0 -1 -1 -1 -1 -1 -1 -1 -1 -1 -1 -1 -1 -1 -1 -1 -1 -1 -1 -1 -1 -1 -1 -1 -1 -1 -1 -1 -1 -1 -1 -1 -1 -1 -1 -1 -1 -1 -1 -1 -1 -1 -1 -1 -1 -1 -1 -1 -1 0 4 18 51 96 99 56 21 5 0 -1 -1 -1 -1 -1 -1 -1 -1 -1 -1 -1 -1 -1 -1 -1 -1 -1 -1 -1 -1 -1 -1 0 1 7 22 51 90 114 120 124 
100 48 16 3 0 -1 -1 0 1 6 18 42 79 106 93 55 25 9 3 0 0 0 0 0 0 0 0 0 0 -1 -1 -1 -1 -1 -1 -1 -1 -1 -1 -1 -1 -1 -1 -1 -1 -1 -1 -1 -1 -1 -1 -1 -1 -1 -1 -1 -1 -1 -1 -1 -1 -1 -1 -1 -1 -1 -1 -1 0 1 6 20 52 98 108 67 29 11 3 0 0 -1 -1 -1 -1 -1 -1 -1 -1 -1 -1 -1 -1 -1 -1 -1 -1 -1 -1 -1 -1 -1 0 2 10 29 63 103 130 134 
101 47 15 3 0 -1 0 1 6 17 39 73 107 110 79 45 23 12 7 4 4 3 3 3 3 3 3 2 1 0 0 0 0 0 0 0 0 0 0 0 -1 -1 -1 -1 -1 -1 -1 -1 -1 -1 -1 -1 -1 -1 -1 -1 -1 -1 -1 -1 -1 -1 -1 -1 -1 -1 -1 0 0 4 12 29 63 108 123 89 49 24 11 5 1 0 -1 -1 -1 -1 -1 -1 -1 -1 -1 -1 -1 -1 -1 -1 -1 -1 -1 -1 -1 -1 -1 0 3 14 38 77 120 136 
100 47 15 3 0 0 1 6 17 38 72 110 129 114 84 59 42 31 23 19 17 17 17 17 16 16 15 14 11 8 5 4 3 3 3 3 3 3 2 1 0 0 0 0 0 0 0 0 0 0 0 0 -1 -1 -1 -1 -1 -1 -1 -1 -1 -1 -1 -1 -1 0 0 2 6 15 30 54 87 124 139 118 83 53 32 18 9 3 0 0 -1 -1 -1 -1 -1 -1 -1 -1 -1 -1 -1 -1 -1 -1 -1 -1 -1 -1 -1 -1 0 6 20 51 97 128 
98 48 16 3 0 1 6 17 39 71 108 134 137 124 108 95 83 70 60 54 51 50 50 50 49 49 47 43 36 29 23 19 17 17 17 16 16 15 14 11 8 5 4 3 3 3 3 3 3 3 2 1 0 0 0 0 0 0 0 0 0 0 0 0 0 1 5 11 21 39 63 90 110 121 123 120 110 92 69 47 28 14 6 2 0 0 -1 -1 -1 -1 -1 -1 -1 -1 -1 -1 -1 -1 -1 -1 -1 -1 -1 -1 0 2 11 33 75 115 
96 49 17 4 2 7 18 40 72 103 117 115 107 102 100 101 104 103 100 97 96 95 95 95 95 94 92 88 80 70 60 54 51 50 50 49 49 47 43 36 29 23 19 17 17 17 17 16 16 15 14 11 8 5 4 3 3 3 3 3 3 2 2 2 4 9 18 32 52 77 98 104 95 81 74 80 93 103 102 86 62 38 21 11 5 1 0 -1 -1 -1 -1 -1 -1 -1 -1 -1 -1 -1 -1 -1 -1 -1 -1 -1 -1 0 6 23 61 105 
96 50 18 7 9 19 41 72 100 104 86 66 55 52 54 60 70 80 88 92 94 95 95 95 95 96 97 100 103 103 100 97 96 95 95 95 94 92 88 80 70 60 54 51 50 50 50 49 49 47 43 36 29 23 19 17 17 17 16 16 15 14 12 12 17 29 47 69 91 103 98 77 54 37 31 36 50 70 91 103 98 76 52 32 18 9 3 0 0 -1 -1 -1 -1 -1 -1 -1 -1 -1 -1 -1 -1 -1 -1 -1 -1 0 4 19 54 99 
96 52 22 15 24 44 74 100 100 75 46 28 20 18 19 23 29 36 43 47 49 49 50 50 50 51 54 60 70 80 88 92 94 95 95 95 96 97 100 103 103 100 97 96 95 95 95 95 94 92 88 80 70 60 54 51 50 50 49 49 47 44 40 38 47 65 87 102 102 86 62 39 22 12 9 12 19 32 52 76 98 103 91 69 47 28 14 6 2 0 0 -1 -1 -1 -1 -1 -1 -1 -1 -1 -1 -1 -1 -1 -1 0 3 17 51 96 
97 57 33 34 52 79 101 99 72 41 20 9 5 4 4 5 8 11 14 15 16 16 17 17 17 17 19 23 29 36 43 47 49 49 50 50 51 54 60 70 80 88 92 94 95 95 95 95 96 97 100 103 103 100 97 96 95 95 95 94 93 90 87 86 93 105 106 92 69 47 28 14 6 2 1 2 5 11 21 38 62 86 102 102 86 62 38 21 11 5 1 0 -1 -1 -1 -1 -1 -1 -1 -1 -1 -1 -1 -1 -1 0 3 17 50 95 
102 68 54 67 89 103 96 69 39 18 6 2 0 0 0 0 0 1 2 3 3 3 3 3 3 3 4 5 8 11 14 15 16 16 17 17 17 19 23 29 36 43 47 49 49 50 50 50 51 54 60 70 80 88 92 94 95 95 95 96 99 106 118 129 130 113 83 54 32 18 9 3 0 0 0 0 0 2 6 14 28 47 69 91 103 98 76 52 32 18 9 3 0 0 -1 -1 -1 -1 -1 -1 -1 -1 -1 -1 -1 0 3 17 49 96 
110 90 87 100 104 88 61 35 16 6 1 0 -1 -1 -1 -1 -1 0 0 0 0 0 0 0 0 0 0 0 0 1 2 3 3 3 3 3 3 4 5 8 11 14 15 16 16 17 17 17 17 19 23 29 36 43 47 49 49 50 50 52 58 72 101 133 130 90 49 25 11 5 1 0 -1 -1 -1 -1 -1 0 0 3 9 18 32 52 76 98 103 91 69 47 28 14 6 2 0 0 -1 -1 -1 -1 -1 -1 -1 -1 -1 0 3 16 49 97 
124 117 113 103 79 51 28 13 5 0 0 -1 -1 -1 -1 -1 -1 -1 -1 -1 -1 -1 -1 -1 -1 -1 -1 -1 -1 0 0 0 0 0 0 0 0 0 0 0 1 2 3 3 3 3 3 3 3 4 5 8 11 14 15 16 16 17 17 19 24 39 73 115 113 67 29 11 3 0 0 -1 -1 -1 -1 -1 -1 -1 -1 0 1 5 11 21 38 62 86 102 102 86 62 38 21 11 5 1 0 0 -1 -1 -1 -1 -1 -1 -1 0 3 16 48 99 
136 130 107 74 43 22 10 3 0 -1 -1 -1 -1 -1 -1 -1 -1 -1 -1 -1 -1 -1 -1 -1 -1 -1 -1 -1 -1 -1 -1 -1 -1 -1 -1 -1 -1 -1 -1 -1 0 0 0 0 0 0 0 0 0 0 0 0 1 2 3 3 3 3 4 5 9 24 57 102 101 55 21 5 0 -1 -1 -1 -1 -1 -1 -1 -1 -1 -1 -1 0 0 2 6 14 28 47 69 91 103 98 76 52 32 18 10 4 1 0 -1 -1 -1 -1 -1 -1 0 3 16 48 101 
135 115 75 41 19 7 2 0 -1 -1 -1 -1 -1 -1 -1 -1 -1 -1 -1 -1 -1 -1 -1 -1 -1 -1 -1 -1 -1 -1 -1 -1 -1 -1 -1 -1 -1 -1 -1 -1 -1 -1 -1 -1 -1 -1 -1 -1 -1 -1 -1 -1 0 0 0 0 0 0 0 0 5 18 52 97 97 51 18 4 0 -1 -1 -1 -1 -1 -1 -1 -1 -1 -1 -1 -1 -1 0 0 3 9 18 32 52 76 98 103 91 70 48 30 17 9 3 0 0 -1 -1 -1 -1 0 3 16 48 101 
121 87 45 19 7 1 0 -1 -1 -1 -1 -1 -1 -1 -1 -1 -1 -1 -1 -1 -1 -1 -1 -1 -1 -1 -1 -1 -1 -1 -1 -1 -1 -1 -1 -1 -1 -1 -1 -1 -1 -1 -1 -1 -1 -1 -1 -1 -1 -1 -1 -1 -1 -1 -1 -1 -1 -1 -1 0 4 17 50 95 95 50 17 3 0 -1 -1 -1 -1 -1 -1 -1 -1 -1 -1 -1 -1 -1 -1 -1 0 1 5 11 21 38 62 86 101 102 89 68 46 27 14 6 2 0 0 0 0 0 3 16 48 99 
108 66 28 9 2 0 -1 -1 -1 -1 -1 -1 -1 -1 -1 -1 -1 -1 -1 -1 -1 -1 -1 -1 -1 -1 -1 -1 -1 -1 -1 -1 -1 -1 -1 -1 -1 -1 -1 -1 -1 -1 -1 -1 -1 -1 -1 -1 -1 -1 -1 -1 -1 -1 -1 -1 -1 -1 -1 0 3 17 50 95 95 50 17 3 0 -1 -1 -1 -1 -1 -1 -1 -1 -1 -1 -1 -1 -1 -1 -1 -1 0 0 2 6 14 27 46 68 89 102 102 86 62 38 21 11 6 3 2 1 1 4 17 49 97 
100 55 20 5 0 -1 -1 -1 -1 -1 -1 -1 -1 -1 -1 -1 -1 -1 -1 -1 -1 -1 -1 -1 -1 -1 -1 -1 -1 -1 -1 -1 -1 -1 -1 -1 -1 -1 -1 -1 -1 -1 -1 -1 -1 -1 -1 -1 -1 -1 -1 -1 -1 -1 -1 -1 -1 -1 -1 0 3 17 50 95 95 50 17 3 0 -1 -1 -1 -1 -1 -1 -1 -1 -1 -1 -1 -1 -1 -1 -1 -1 -1 -1 0 0 3 9 18 31 49 71 93 106 100 77 51 33 22 16 12 8 7 9 21 52 97 
97 51 18 4 0 -1 -1 -1 -1 -1 -1 -1 -1 -1 -1 -1 -1 -1 -1 -1 -1 -1 -1 -1 -1 -1 -1 -1 -1 -1 -1 -1 -1 -1 -1 -1 -1 -1 -1 -1 -1 -1 -1 -1 -1 -1 -1 -1 -1 -1 -1 -1 -1 -1 -1 -1 -1 -1 -1 0 3 17 50 95 95 50 17 3 0 -1 -1 -1 -1 -1 -1 -1 -1 -1 -1 -1 -1 -1 -1 -1 -1 -1 -1 -1 0 0 2 5 11 21 37 60 89 113 116 98 75 58 47 38 29 23 22 31 60 100 
98 51 18 5 0 0 0 0 0 -1 -1 -1 -1 -1 -1 -1 -1 -1 -1 -1 -1 -1 -1 -1 -1 -1 -1 -1 -1 -1 -1 -1 -1 -1 -1 -1 -1 -1 -1 -1 -1 -1 -1 -1 -1 -1 -1 -1 -1 -1 -1 -1 -1 -1 -1 -1 -1 -1 -1 0 3 17 50 95 95 50 17 3 0 -1 -1 -1 -1 -1 -1 -1 -1 -1 -1 -1 -1 -1 -1 -1 -1 -1 -1 -1 0 0 1 3 8 15 27 45 74 109 134 134 119 104 93 82 70 59 53 57 78 109 
103 54 21 9 4 3 3 2 1 0 0 0 0 0 0 0 0 -1 -1 -1 -1 -1 -1 -1 -1 -1 -1 -1 -1 -1 -1 -1 -1 -1 -1 -1 -1 -1 -1 -1 -1 -1 -1 -1 -1 -1 -1 -1 -1 -1 -1 -1 -1 -1 -1 -1 -1 -1 -1 0 3 17 50 95 95 50 17 3 0 -1 -1 -1 -1 -1 -1 -1 -1 -1 -1 -1 -1 -1 -1 -1 -1 -1 0 0 1 3 6 10 18 30 45 64 88 114 128 124 112 104 103 104 103 100 96 97 110 126 
113 65 34 22 18 16 15 14 11 8 5 4 3 3 3 2 1 0 0 0 0 0 0 0 0 0 -1 -1 -1 -1 -1 -1 -1 -1 -1 -1 -1 -1 -1 -1 -1 -1 -1 -1 -1 -1 -1 -1 -1 -1 -1 -1 -1 -1 -1 -1 -1 -1 -1 0 3 17 50 95 95 50 17 3 0 -1 -1 -1 -1 -1 -1 -1 -1 -1 -1 -1 -1 -1 -1 -1 0 0 1 4 8 13 21 32 48 66 84 98 107 106 93 75 62 58 61 70 82 92 102 114 131 142 
129 92 65 54 51 49 47 43 36 29 23 19 17 16 15 14 11 8 5 4 3 3 3 3 2 1 0 0 0 0 0 0 0 0 -1 -1 -1 -1 -1 -1 -1 -1 -1 -1 -1 -1 -1 -1 -1 -1 -1 -1 -1 -1 -1 -1 -1 -1 -1 0 3 17 50 95 95 50 17 3 0 -1 -1 -1 -1 -1 -1 -1 -1 -1 -1 -1 -1 0 0 1 2 5 10 17 27 40 55 72 89 101 103 96 83 65 47 32 24 21 23 29 38 48 61 81 112 139 
143 125 107 99 96 94 92 88 80 70 60 54 51 49 47 43 36 29 23 19 17 17 16 15 14 11 8 5 4 3 3 3 2 1 0 0 0 0 0 0 0 0 0 -1 -1 -1 -1 -1 -1 -1 -1 -1 -1 -1 -1 -1 -1 -1 -1 0 3 17 50 95 95 50 17 3 0 -1 -1 -1 -1 -1 -1 -1 -1 -1 -1 0 0 1 4 8 13 21 32 47 66 83 96 103 101 89 72 55 40 27 17 10 6 5 6 8 12 17 26 44 79 125 
139 125 107 99 96 96 97 100 103 103 100 97 95 94 92 88 80 70 60 54 51 50 49 47 43 36 29 23 19 17 16 15 14 11 8 5 4 3 3 3 3 2 1 0 0 0 0 0 0 0 0 -1 -1 -1 -1 -1 -1 -1 -1 0 3 17 50 95 95 50 17 3 0 -1 -1 -1 -1 -1 -1 -1 -1 0 0 1 4 9 17 27 40 55 72 89 101 103 96 83 66 47 32 21 13 8 4 1 0 0 0 1 2 4 10 25 59 111 
120 92 66 55 51 51 54 60 70 80 88 92 94 95 97 100 103 103 100 97 96 95 94 92 88 80 70 60 54 51 49 47 43 36 29 23 19 17 17 16 15 14 11 8 5 4 3 3 3 2 1 0 0 0 0 0 0 0 0 0 4 17 50 95 95 50 17 3 0 -1 -1 -1 -1 -1 0 0 1 2 5 10 18 30 47 65 83 96 103 101 89 72 55 40 27 17 10 5 2 1 0 0 -1 -1 -1 -1 0 0 5 19 52 102 
105 66 35 22 18 18 19 23 29 36 43 47 49 51 54 60 70 80 88 92 94 95 96 97 100 103 103 100 97 95 94 92 88 80 70 60 54 51 50 49 47 43 36 29 23 19 17 16 15 14 11 8 5 4 3 3 3 3 3 3 6 19 51 96 95 50 17 3 0 -1 -1 -1 0 0 1 4 8 13 21 33 49 69 88 101 103 96 83 66 47 32 21 13 8 4 1 0 0 -1 -1 -1 -1 -1 -1 -1 -1 0 4 17 50 97 
98 55 22 9 5 4 4 5 8 11 14 15 16 17 19 23 29 36 43 47 49 50 51 54 60 70 80 88 92 94 95 97 100 103 103 100 97 96 95 94 92 88 80 70 60 54 51 49 47 43 36 29 23 19 17 17 16 15 14 12 14 24 56 99 97 51 18 4 0 0 0 1 2 5 10 17 27 40 55 72 90 102 102 90 72 55 40 27 17 10 5 2 1 0 0 -1 -1 -1 -1 -1 -1 -1 -1 -1 -1 0 3 17 50 95 
96 51 18 5 0 0 0 0 0 1 2 3 3 3 4 5 8 11 14 15 16 17 17 19 23 29 36 43 47 49 51 54 60 70 80 88 92 94 95 96 97 100 103 103 100 97 95 94 92 88 80 70 60 54 51 50 49 47 43 38 34 41 68 107 102 56 21 6 2 2 4 8 13 21 32 47 66 83 96 103 101 88 69 49 33 21 13 8 4 1 0 0 -1 -1 -1 -1 -1 -1 -1 -1 -1 -1 -1 -1 -1 0 3 17 50 95 
95 50 17 3 0 -1 -1 -1 -1 0 0 0 0 0 0 0 0 1 2 3 3 3 3 4 5 8 11 14 15 16 17 19 23 29 36 43 47 49 50 51 54 60 70 80 88 92 94 95 97 100 103 103 100 97 96 95 94 92 88 82 74 76 96 124 114 67 30 13 9 11 17 28 40 55 72 89 101 103 96 83 65 47 30 18 10 5 2 1 0 0 -1 -1 -1 -1 -1 -1 -1 -1 -1 -1 -1 -1 -1 -1 -1 0 3 17 50 95 
95 50 17 3 0 -1 -1 -1 -1 -1 -1 -1 -1 -1 -1 -1 -1 0 0 0 0 0 0 0 0 0 1 2 3 3 3 4 5 8 11 14 15 16 17 17 19 23 29 36 43 47 49 51 54 60 70 80 88 92 94 95 96 97 100 104 106 110 122 139 130 90 52 32 28 34 48 66 83 96 103 101 89 72 55 40 27 17 9 4 1 0 0 -1 -1 -1 -1 -1 -1 -1 -1 -1 -1 -1 -1 -1 -1 -1 -1 -1 -1 0 3 17 50 95 
95 50 17 3 0 -1 -1 -1 -1 -1 -1 -1 -1 -1 -1 -1 -1 -1 -1 -1 -1 -1 -1 -1 -1 -1 0 0 0 0 0 0 0 0 1 2 3 3 3 3 4 5 8 11 14 15 16 17 19 23 29 37 43 47 49 50 51 54 60 70 81 91 102 116 125 115 91 72 68 76 91 101 103 96 83 66 47 32 21 13 8 4 1 0 0 -1 -1 -1 -1 -1 -1 -1 -1 -1 -1 -1 -1 -1 -1 -1 -1 -1 -1 -1 -1 0 3 17 50 95 
95 50 17 3 0 -1 -1 -1 -1 -1 -1 -1 -1 -1 -1 -1 -1 -1 -1 -1 -1 -1 -1 -1 -1 -1 -1 -1 -1 -1 -1 -1 -1 -1 0 0 0 0 0 0 0 0 1 2 2 3 3 3 4 6 8 11 14 15 16 17 17 19 23 29 37 44 52 66 89 115 126 121 113 109 103 90 72 55 40 28 17 10 5 2 1 0 0 -1 -1 -1 -1 -1 -1 -1 -1 -1 -1 -1 -1 -1 -1 -1 -1 -1 -1 -1 -1 -1 -1 0 3 17 50 95 
95 50 17 3 0 -1 -1 -1 -1 -1 -1 -1 -1 -1 -1 -1 -1 -1 -1 -1 -1 -1 -1 -1 -1 -1 -1 -1 -1 -1 -1 -1 -1 -1 -1 -1 -1 -1 -1 -1 -1 -1 0 0 0 0 0 0 0 0 1 2 3 3 3 4 4 4 6 8 12 15 20 30 52 91 130 138 116 91 68 48 33 21 14 8 4 2 0 0 0 -1 -1 -1 -1 -1 -1 -1 -1 -1 -1 -1 -1 -1 -1 -1 -1 -1 -1 -1 -1 -1 -1 -1 -1 0 3 17 50 95 
96 51 18 5 0 0 0 0 0 0 0 0 0 0 0 0 0 0 0 0 0 0 0 0 0 0 0 0 0 0 0 0 0 0 0 0 0 0 0 0 0 0 0 0 0 0 0 0 0 0 0 0 0 0 0 0 0 1 1 2 3 4 7 13 31 68 115 123 87 54 32 20 12 7 4 2 1 0 0 0 0 0 0 0 0 0 0 0 0 0 0 0 0 0 0 0 0 0 0 0 0 0 0 0 0 0 5 18 51 96 
99 55 22 9 5 3 3 3 3 3 3 3 3 3 3 3 3 3 3 3 3 3 3 3 3 3 3 3 3 3 3 3 3 3 3 3 3 3 3 3 3 3 3 3 3 3 3 3 3 3 3 3 3 3 3 3 3 4 4 4 4 5 6 11 26 60 106 109 68 35 18 11 7 5 4 4 4 3 3 3 3 3 3 3 3 3 3 3 3 3 3 3 3 3 3 3 3 3 3 3 3 3 3 3 3 4 9 22 54 99 
107 66 35 22 18 17 17 17 17 17 17 17 17 17 17 17 17 17 17 17 17 17 17 17 17 17 17 17 17 16 16 16 16 15 16 16 16 16 17 17 17 17 17 17 17 17 16 16 16 16 16 16 16 17 17 17 17 17 17 17 17 17 18 23 36 68 109 111 70 39 25 20 18 17 17 17 17 17 17 17 17 17 17 17 17 17 17 17 17 16 16 16 16 16 16 16 16 17 17 17 17 16 16 16 16 17 21 35 66 107 
126 92 66 55 51 50 50 50 50 50 50 50 50 50 50 50 50 50 50 50 50 50 50 50 50 50 50 50 50 49 49 49 48 48 48 49 49 49 50 50 50 50 50 50 50 50 49 49 48 48 48 48 49 49 50 50 50 50 50 50 50 50 51 55 66 93 125 126 93 67 55 51 50 50 50 50 50 50 50 50 50 50 50 50 50 50 50 50 49 49 49 48 48 48 49 49 49 50 50 50 49 49 49 48 48 49 54 65 92 126 
150 126 107 99 96 95 95 95 95 95 95 95 95 95 95 95 95 95 95 95 95 95 95 95 95 95 95 95 95 95 96 99 101 101 99 97 96 95 95 95 95 95 95 95 95 95 95 96 99 102 101 99 96 95 95 95 95 95 95 95 95 95 96 98 105 119 135 135 119 105 98 96 95 95 95 95 95 95 95 95 95 95 95 95 95 95 95 95 95 96 98 100 101 100 97 96 95 95 95 95 95 96 98 100 102 101 101 108 127 150 
