P2
110 110
255
154 124 104 98 96 95 95 95 95 95 95 95 95 95 95 95 95 95 95 95 95 95 95 95 95 95 95 96 96 98 104 119 139 144 127 108 99 96 96 95 95 95 95 95 95 96 97 103 119 141 141 118 103 97 96 95 95 95 95 95 95 95 95 96 97 99 103 103 99 97 96 95 95 95 95 95 95 95 95 95 95 95 95 95 95 95 95 96 97 101 114 135 145 129 109 100 96 96 95 96 97 100 111 133 145 130 112 108 125 154 
124 81 54 45 43 42 42 42 42 42 42 42 42 42 42 42 42 42 42 42 42 42 42 42 42 42 42 42 44 50 66 99 130 119 82 57 46 43 42 42 42 42 42 42 42 43 45 55 83 126 123 81 54 45 43 42 42 42 42 42 42 42 42 42 42 42 41 41 42 42 42 42 42 42 42 42 42 42 42 42 42 42 42 42 42 42 42 43 46 56 83 122 126 89 59 47 43 42 42 42 44 52 74 115 129 93 63 59 82 124 
104 54 23 13 11 10 10 10 10 10 10 10 10 10 10 10 10 10 10 10 10 10 10 10 10 10 10 11 15 27 56 99 113 77 38 19 12 11 10 10 10 10 10 10 10 11 15 28 64 115 107 54 23 13 11 10 10 10 10 10 10 10 10 10 10 10 10 10 10 10 10 10 10 10 10 10 10 10 10 10 10 10 10 10 10 10 10 12 17 34 74 114 95 49 23 13 11 10 10 11 13 23 53 103 107 60 29 27 55 104 
98 45 13 3 0 0 0 0 0 0 0 0 0 0 0 0 0 0 0 0 0 0 0 0 0 0 0 3 11 34 75 108 89 44 15 4 1 0 0 0 0 0 0 0 0 2 8 27 72 122 102 44 13 3 0 0 0 0 0 0 0 0 0 0 0 0 0 0 0 0 0 0 0 0 0 0 0 0 0 0 0 0 0 0 0 0 0 2 11 36 85 108 68 26 7 1 0 0 0 1 4 17 53 102 94 43 16 16 45 98 
96 43 11 0 -1 -2 -2 -2 -2 -2 -2 -2 -2 -2 -2 -2 -2 -2 -2 -2 -2 -2 -2 -2 -2 -2 0 5 22 59 100 100 58 21 5 0 -2 -2 -2 -2 -2 -2 -2 -2 -1 1 12 41 95 137 103 42 10 0 -1 -2 -2 -2 -2 -2 -2 -2 -2 -2 -2 -2 -2 -2 -2 -2 -2 -2 -2 -2 -2 -2 -2 -2 -2 -2 -2 -2 -2 -2 -2 -2 -1 2 14 48 98 97 48 14 1 -1 -2 -2 -2 0 4 22 65 107 81 32 10 13 43 96 
95 42 10 0 -2 -2 -2 -2 -3 -3 -3 -3 -3 -3 -3 -3 -3 -3 -3 -3 -3 -2 -2 -2 -2 -1 2 14 43 88 106 72 31 8 0 -2 -2 -2 -2 -2 -2 -2 -2 -2 -1 4 23 64 119 144 103 42 10 0 -2 -2 -2 -2 -3 -3 -3 -3 -3 -3 -3 -3 -3 -3 -3 -3 -3 -3 -3 -3 -3 -3 -3 -3 -3 -3 -3 -3 -2 -2 -2 -2 -1 5 24 67 106 82 33 8 0 -2 -2 -2 -2 0 7 31 80 106 64 22 6 12 42 95 
95 42 10 0 -2 -2 -3 -3 -3 -3 -3 -3 -3 -3 -3 -3 -3 -3 -3 -3 -3 -3 -3 -2 -2 0 8 31 72 106 88 43 14 1 -1 -2 -3 -3 -3 -3 -3 -3 -2 -2 0 11 41 91 130 138 104 44 11 0 -2 -2 -3 -3 -3 -3 -3 -3 -3 -3 -3 -3 -3 -3 -3 -3 -3 -3 -3 -3 -3 -3 -3 -3 -3 -3 -3 -3 -3 -3 -2 -2 0 11 40 89 104 61 20 3 -1 -2 -3 -2 -2 0 10 40 92 100 50 15 4 11 42 95 
95 42 10 0 -2 -2 -3 -3 -3 -3 -3 -3 -3 -3 -3 -3 -3 -3 -3 -3 -3 -3 -3 -2 -1 4 21 58 100 100 58 21 4 -1 -2 -3 -3 -3 -3 -3 -3 -3 -2 0 5 24 64 110 121 124 106 51 14 1 -2 -2 -3 -3 -3 -3 -3 -3 -3 -3 -3 -3 -3 -3 -3 -3 -3 -3 -3 -3 -3 -3 -3 -3 -3 -3 -3 -3 -3 -3 -2 -1 3 20 61 104 89 40 11 0 -2 -2 -3 -2 -2 1 14 50 100 92 40 10 3 11 42 95 
95 42 10 0 -2 -3 -3 -3 -3 -3 -3 -3 -3 -3 -3 -3 -3 -3 -3 -3 -3 -3 -2 -1 1 14 43 88 106 72 31 8 0 -2 -2 -3 -3 -3 -3 -3 -3 -2 -1 1 14 44 91 111 95 103 110 64 21 3 -1 -2 -3 -3 -3 -3 -3 -3 -3 -3 -3 -3 -3 -3 -3 -3 -3 -3 -3 -3 -3 -3 -3 -3 -3 -3 -3 -3 -3 -3 -2 0 8 33 82 106 67 24 4 -1 -2 -3 -3 -2 -1 3 21 64 106 80 31 7 2 10 42 95 
95 42 10 0 -2 -3 -3 -3 -3 -3 -3 -3 -3 -3 -3 -3 -3 -3 -3 -3 -3 -2 -2 0 8 31 72 106 88 43 14 1 -1 -2 -3 -3 -3 -3 -3 -3 -2 -2 0 8 31 72 107 92 64 78 109 80 30 6 0 -2 -3 -3 -3 -3 -3 -3 -3 -3 -3 -3 -3 -3 -3 -3 -3 -3 -3 -3 -3 -3 -3 -3 -3 -3 -3 -3 -3 -2 -2 1 14 48 97 97 48 14 1 -2 -2 -3 -3 -2 0 6 31 80 106 64 21 4 1 10 42 95 
96 42 10 0 -2 -2 -3 -3 -3 -3 -3 -3 -3 -3 -3 -3 -3 -3 -3 -3 -3 -2 -1 4 21 58 100 100 58 21 4 -1 -2 -3 -3 -3 -3 -3 -3 -3 -2 -1 4 20 57 100 101 62 38 58 103 89 37 8 0 -2 -3 -3 -3 -3 -3 -3 -3 -3 -3 -3 -3 -3 -3 -3 -3 -3 -3 -3 -3 -3 -3 -3 -3 -3 -3 -3 -3 -2 -1 4 24 67 106 82 33 8 0 -2 -3 -3 -2 -2 0 10 40 92 100 50 14 2 1 10 42 95 
96 43 11 0 -2 -2 -3 -3 -3 -3 -3 -3 -3 -3 -3 -3 -3 -3 -3 -3 -2 -1 1 14 43 88 106 72 31 8 0 -2 -2 -3 -3 -3 -3 -3 -3 -2 -2 0 11 40 86 106 73 34 23 48 98 94 41 10 0 -2 -3 -3 -3 -3 -3 -3 -3 -3 -3 -3 -3 -3 -3 -3 -3 -3 -3 -3 -3 -3 -3 -3 -3 -3 -3 -3 -2 -2 0 11 40 89 104 61 20 3 -1 -2 -3 -3 -2 -2 1 14 50 100 92 40 10 0 0 10 42 96 
99 46 12 0 -2 -2 -3 -3 -3 -3 -3 -3 -3 -3 -3 -3 -3 -3 -3 -2 -2 0 8 31 72 106 88 43 14 1 -1 -2 -3 -3 -3 -3 -3 -3 -3 -2 -1 4 23 64 105 90 45 17 15 44 96 95 42 10 0 -2 -2 -3 -3 -3 -3 -3 -3 -3 -3 -3 -3 -3 -3 -3 -3 -3 -3 -3 -3 -3 -3 -3 -3 -3 -3 -3 -2 -1 3 20 61 104 89 40 11 0 -2 -2 -3 -3 -2 -1 3 21 64 106 80 31 7 0 0 10 42 96 
108 56 18 3 -1 -2 -3 -3 -3 -3 -3 -3 -3 -3 -3 -3 -3 -3 -3 -2 -1 4 21 58 100 100 58 21 4 -1 -2 -3 -3 -3 -3 -3 -3 -3 -2 -2 0 11 41 89 105 65 24 8 12 41 94 97 45 11 0 -2 -2 -3 -3 -3 -3 -3 -3 -3 -3 -3 -3 -3 -3 -3 -3 -3 -3 -3 -3 -3 -3 -3 -3 -3 -3 -3 -2 0 8 33 82 106 67 24 4 -1 -2 -3 -3 -3 -2 0 6 31 80 106 64 21 3 0 0 10 42 98 
126 81 36 11 1 -1 -2 -3 -3 -3 -3 -3 -3 -3 -3 -3 -3 -3 -2 -1 1 14 43 88 106 72 31 8 0 -2 -2 -3 -3 -3 -3 -3 -3 -3 -2 0 5 24 64 105 89 41 12 3 9 37 89 101 51 15 1 -2 -2 -3 -3 -3 -3 -3 -3 -3 -3 -3 -3 -3 -3 -3 -3 -3 -3 -3 -3 -3 -3 -3 -3 -3 -3 -2 -2 1 14 48 97 97 48 14 1 -2 -2 -3 -3 -2 -2 0 10 40 92 100 50 14 1 -1 0 10 41 101 
143 117 69 31 10 1 -2 -2 -3 -3 -3 -3 -3 -3 -3 -3 -3 -2 -2 0 8 31 72 106 88 43 14 1 -1 -2 -3 -3 -3 -3 -3 -3 -3 -2 -1 1 14 44 90 105 64 23 5 1 6 30 80 106 64 21 3 -1 -2 -3 -3 -3 -3 -3 -3 -3 -3 -3 -3 -3 -3 -3 -3 -3 -3 -3 -3 -3 -3 -3 -3 -3 -3 -2 -1 4 24 67 106 82 33 8 0 -2 -3 -3 -3 -2 -2 1 14 50 100 92 40 10 0 -1 0 10 41 103 
140 131 106 65 28 7 0 -2 -2 -3 -3 -3 -3 -3 -3 -3 -3 -2 -1 4 21 58 100 100 58 21 4 -1 -2 -3 -3 -3 -3 -3 -3 -3 -2 -2 0 8 31 72 106 86 40 11 1 0 3 21 64 106 80 30 6 0 -2 -3 -3 -3 -3 -3 -3 -3 -3 -3 -3 -3 -3 -3 -3 -3 -3 -3 -3 -3 -3 -3 -3 -3 -2 -2 0 11 40 89 104 61 20 3 -1 -2 -3 -3 -3 -2 -1 3 21 64 106 80 31 6 0 -2 0 10 41 102 
122 109 113 99 57 21 4 0 -2 -2 -3 -3 -3 -3 -3 -3 -2 -1 1 14 43 88 106 72 31 8 0 -2 -2 -3 -3 -3 -3 -3 -3 -3 -2 -1 4 20 57 100 100 57 20 4 -1 -1 1 15 51 101 89 37 8 0 -2 -3 -3 -3 -3 -3 -3 -3 -3 -3 -3 -3 -3 -3 -3 -3 -3 -3 -3 -3 -3 -3 -3 -3 -2 -1 3 20 61 104 89 40 11 0 -2 -2 -3 -3 -3 -2 0 6 31 80 106 64 21 3 -1 -2 0 10 42 99 
107 79 86 108 88 43 14 2 -1 -2 -3 -3 -3 -3 -3 -2 -2 0 8 31 72 106 88 43 14 1 -1 -2 -3 -3 -3 -3 -3 -3 -3 -2 -2 0 11 40 86 106 72 31 8 0 -2 -2 0 11 45 97 94 41 10 0 -2 -3 -3 -3 -3 -3 -3 -3 -3 -3 -3 -3 -3 -3 -3 -3 -3 -3 -3 -3 -3 -3 -3 -3 -2 0 8 33 82 106 67 24 4 -1 -2 -3 -3 -3 -2 -2 0 10 40 92 100 50 14 1 -2 -2 0 10 42 97 
100 59 57 91 107 74 35 11 1 -1 -2 -3 -3 -3 -3 -2 -1 4 21 58 100 100 58 21 4 -1 -2 -3 -3 -3 -3 -3 -3 -3 -3 -2 -1 4 23 64 105 90 44 14 2 -1 -2 -2 0 10 42 95 95 42 10 0 -2 -2 -3 -3 -3 -3 -3 -3 -3 -3 -3 -3 -3 -3 -3 -3 -3 -3 -3 -3 -3 -3 -3 -2 -2 1 14 48 97 97 48 14 1 -2 -2 -3 -3 -3 -2 -2 1 14 50 100 92 40 10 0 -2 -2 0 10 42 96 
97 50 35 60 99 103 69 32 11 1 -1 -2 -2 -3 -2 -1 1 14 43 88 106 72 31 8 0 -2 -2 -3 -3 -3 -3 -3 -3 -3 -2 -2 0 11 41 89 105 64 24 5 0 -2 -2 -2 0 10 41 94 97 45 11 0 -2 -2 -3 -3 -3 -3 -3 -3 -3 -3 -3 -3 -3 -3 -3 -3 -3 -3 -3 -3 -3 -3 -3 -2 -1 4 24 67 106 82 33 8 0 -2 -3 -3 -3 -3 -2 -1 3 21 64 106 80 31 6 0 -2 -2 0 10 42 96 
96 45 21 31 66 101 102 68 32 11 1 -1 -2 -2 -2 0 8 31 72 106 88 43 14 1 -1 -2 -3 -3 -3 -3 -3 -3 -3 -3 -2 0 5 24 64 105 89 41 11 0 -2 -2 -2 -2 0 8 37 89 101 51 15 1 -2 -2 -3 -3 -3 -3 -3 -3 -3 -3 -3 -3 -3 -3 -3 -3 -3 -3 -3 -3 -3 -3 -2 -2 0 11 40 89 104 61 20 3 -1 -2 -3 -3 -3 -3 -2 0 6 31 80 106 64 21 3 -1 -2 -2 0 10 42 95 
96 43 14 13 32 67 102 102 68 32 11 1 -1 -2 0 4 21 58 100 100 58 21 4 -1 -2 -3 -3 -3 -3 -3 -3 -3 -3 -2 -1 1 14 44 90 105 64 23 4 -1 -2 -3 -3 -2 0 6 30 80 106 64 21 3 -1 -2 -3 -3 -3 -3 -3 -3 -3 -3 -3 -3 -3 -3 -3 -3 -3 -3 -3 -3 -3 -3 -2 -1 3 20 61 104 89 40 11 0 -2 -2 -3 -3 -3 -2 -2 0 10 40 92 100 50 14 1 -2 -2 -2 0 10 42 95 
95 42 11 4 11 32 68 102 102 68 32 11 2 0 2 14 43 88 106 72 31 8 0 -2 -2 -3 -3 -3 -3 -3 -3 -3 -2 -2 0 8 31 72 106 86 40 11 0 -2 -2 -3 -3 -2 -1 3 21 64 106 80 30 6 0 -2 -3 -3 -3 -3 -3 -3 -3 -3 -3 -3 -3 -3 -3 -3 -3 -3 -3 -3 -3 -3 -2 0 8 33 82 106 67 24 4 -1 -2 -3 -3 -3 -3 -2 -2 1 14 50 100 92 40 10 0 -2 -2 -2 0 10 42 95 
95 42 10 1 2 11 32 68 102 102 68 32 12 5 10 31 72 106 88 43 14 1 -1 -2 -3 -3 -3 -3 -3 -3 -3 -3 -2 -1 4 20 57 100 100 57 20 4 -1 -2 -3 -3 -3 -2 -2 1 15 51 101 89 37 8 0 -2 -3 -3 -3 -3 -3 -3 -3 -3 -3 -3 -3 -3 -3 -3 -3 -3 -3 -3 -3 -2 -2 1 14 48 97 97 48 14 1 -2 -2 -3 -3 -3 -3 -2 -1 3 21 64 106 80 31 6 0 -2 -2 -2 0 10 42 95 
95 42 10 0 0 1 11 32 68 102 102 68 34 19 26 59 100 100 58 21 4 -1 -2 -3 -3 -3 -3 -3 -3 -3 -3 -2 -2 0 11 40 86 106 72 31 8 0 -2 -2 -3 -3 -3 -2 -2 0 11 45 97 94 41 10 0 -2 -2 -3 -3 -3 -3 -3 -3 -3 -3 -3 -3 -3 -3 -3 -3 -3 -3 -3 -3 -2 -1 4 24 67 106 82 33 8 0 -2 -3 -3 -3 -3 -3 -2 0 6 31 80 106 64 21 3 -1 -2 -2 -2 0 10 42 95 
95 42 10 0 -2 -1 1 11 32 68 102 103 72 49 56 92 107 72 31 8 0 -2 -2 -3 -3 -3 -3 -3 -3 -3 -3 -2 -1 4 23 64 105 90 44 14 1 -1 -2 -3 -3 -3 -3 -2 -2 0 10 41 94 97 45 11 0 -2 -2 -3 -3 -3 -3 -3 -3 -3 -3 -3 -3 -3 -3 -3 -3 -3 -3 -3 -2 -2 0 11 40 89 104 61 20 3 -1 -2 -3 -3 -3 -3 -2 -2 0 10 40 92 100 50 14 1 -2 -2 -2 -2 0 10 42 95 
95 42 10 0 -2 -2 -1 1 11 32 68 103 110 96 100 113 89 43 13 1 -1 -2 -3 -3 -3 -3 -3 -3 -3 -3 -2 -2 0 11 41 89 105 64 24 5 0 -2 -3 -3 -3 -3 -3 -3 -2 0 8 37 89 101 51 15 1 -2 -2 -3 -3 -3 -3 -3 -3 -3 -3 -3 -3 -3 -3 -3 -3 -3 -3 -3 -2 -1 3 20 61 104 89 40 11 0 -2 -2 -3 -3 -3 -3 -2 -2 1 14 50 100 92 40 10 0 -2 -2 -2 -2 0 10 42 95 
95 42 10 0 -2 -2 -2 -1 1 11 32 69 111 136 136 108 59 21 4 -1 -2 -3 -3 -3 -3 -3 -3 -3 -3 -3 -2 0 5 24 64 105 89 41 11 0 -2 -2 -3 -3 -3 -3 -3 -3 -2 0 6 30 80 106 64 21 3 -1 -2 -3 -3 -3 -3 -3 -3 -3 -3 -3 -3 -3 -3 -3 -3 -3 -3 -3 -2 0 8 33 82 106 67 24 4 -1 -2 -3 -3 -3 -3 -3 -2 -1 3 21 64 106 80 31 6 0 -2 -3 -2 -2 0 10 42 95 
95 42 10 0 -2 -2 -2 -2 -1 2 12 36 81 132 132 80 32 8 0 -2 -2 -3 -3 -3 -3 -3 -3 -3 -3 -2 -1 1 14 44 90 105 64 23 4 -1 -2 -3 -3 -3 -3 -3 -3 -3 -2 -1 3 21 64 106 80 30 6 0 -2 -3 -3 -3 -3 -3 -3 -3 -3 -3 -3 -3 -3 -3 -3 -3 -3 -2 -2 1 14 48 97 97 48 14 1 -2 -2 -3 -3 -3 -3 -3 -2 0 6 31 80 106 64 21 3 -1 -2 -3 -2 -2 0 10 42 95 
95 42 10 0 -2 -2 -3 -2 -2 -1 3 18 55 110 114 59 19 3 -1 -2 -3 -3 -3 -3 -3 -3 -3 -3 -2 -2 0 8 31 72 106 86 40 11 0 -2 -2 -3 -3 -3 -3 -3 -3 -3 -2 -2 1 15 51 101 89 37 8 0 -2 -3 -3 -3 -3 -3 -3 -3 -3 -3 -3 -3 -3 -3 -3 -3 -3 -2 -1 4 24 67 106 82 33 8 0 -2 -3 -3 -3 -3 -3 -2 -2 0 10 40 92 100 50 14 1 -2 -2 -3 -2 -2 0 10 42 95 
95 42 10 0 -2 -2 -3 -3 -2 -2 0 11 41 94 106 55 17 2 -1 -2 -3 -3 -3 -3 -3 -3 -3 -3 -2 -1 4 20 57 100 100 57 20 4 -1 -2 -3 -3 -3 -3 -3 -3 -3 -3 -2 -2 0 11 45 97 94 41 10 0 -2 -3 -3 -3 -3 -3 -3 -3 -3 -3 -3 -3 -3 -3 -3 -3 -2 -2 0 11 40 89 104 61 20 3 -1 -2 -3 -3 -3 -3 -3 -2 -2 1 14 50 100 92 40 10 0 -2 -2 -3 -2 -2 0 10 42 95 
95 42 10 0 -2 -3 -3 -3 -3 -2 0 7 31 81 108 65 22 3 -1 -2 -3 -3 -3 -3 -3 -3 -3 -2 -2 0 11 40 86 106 72 31 8 0 -2 -2 -3 -3 -3 -3 -3 -3 -3 -3 -2 -2 0 10 42 95 95 42 10 0 -2 -2 -3 -3 -3 -3 -3 -3 -3 -3 -3 -3 -3 -3 -3 -3 -2 -1 3 20 61 104 89 40 11 0 -2 -2 -3 -3 -3 -3 -3 -2 -1 3 21 64 106 80 31 6 0 -2 -3 -3 -2 -2 0 10 42 95 
95 42 10 0 -2 -3 -3 -3 -3 -2 -1 3 21 64 107 80 30 6 0 -2 -3 -3 -3 -3 -3 -3 -3 -2 -1 4 23 64 105 90 44 14 1 -1 -2 -3 -3 -3 -3 -3 -3 -3 -3 -3 -3 -2 0 10 41 94 97 45 11 0 -2 -2 -3 -3 -3 -3 -3 -3 -3 -3 -3 -3 -3 -3 -3 -3 -2 0 8 33 82 106 67 24 4 -1 -2 -3 -3 -3 -3 -3 -3 -2 0 6 31 80 106 64 21 3 -1 -2 -3 -3 -2 -2 0 10 42 96 
96 42 10 0 -2 -3 -3 -3 -3 -2 -2 1 14 51 101 90 38 9 0 -2 -3 -3 -3 -3 -3 -3 -2 -2 0 11 41 89 105 64 24 5 0 -2 -3 -3 -3 -3 -3 -3 -3 -3 -3 -3 -3 -2 0 8 37 89 101 51 15 1 -2 -2 -3 -3 -3 -3 -3 -3 -3 -3 -3 -3 -3 -3 -3 -2 -2 1 14 48 97 97 48 14 1 -2 -2 -3 -3 -3 -3 -3 -2 -2 0 10 40 92 100 50 14 1 -2 -2 -3 -3 -2 -2 0 10 43 96 
96 42 10 0 -2 -3 -3 -3 -3 -2 -2 0 11 43 96 96 43 11 0 -2 -2 -3 -3 -3 -3 -3 -2 0 5 24 64 105 89 41 11 0 -2 -2 -3 -3 -3 -3 -3 -3 -3 -3 -3 -3 -3 -2 0 6 30 80 106 64 21 3 -1 -2 -3 -3 -3 -3 -3 -3 -3 -3 -3 -3 -3 -3 -3 -2 -1 4 24 67 106 82 33 8 0 -2 -3 -3 -3 -3 -3 -3 -2 -2 1 14 50 100 92 40 10 0 -2 -2 -3 -3 -2 -2 0 11 45 99 
98 42 10 0 -2 -3 -3 -3 -3 -3 -2 0 9 38 90 101 51 14 1 -2 -2 -3 -3 -3 -3 -2 -1 1 14 44 90 105 64 23 4 -1 -2 -3 -3 -3 -3 -3 -3 -3 -3 -3 -3 -3 -3 -2 -1 3 21 64 106 80 30 6 0 -2 -3 -3 -3 -3 -3 -3 -3 -3 -3 -3 -3 -3 -2 -2 0 11 40 89 104 61 20 3 -1 -2 -3 -3 -3 -3 -3 -3 -2 -1 3 21 64 106 80 31 6 0 -2 -3 -3 -3 -2 -1 1 15 52 106 
100 41 10 0 -2 -3 -3 -3 -3 -3 -2 0 6 30 80 106 64 21 3 -1 -2 -3 -3 -3 -2 -2 0 8 31 72 106 86 40 11 0 -2 -2 -3 -3 -3 -3 -3 -3 -3 -3 -3 -3 -3 -3 -2 -2 1 15 51 101 89 37 8 0 -2 -3 -3 -3 -3 -3 -3 -3 -3 -3 -3 -3 -3 -2 -1 3 20 61 104 89 40 11 0 -2 -2 -3 -3 -3 -3 -3 -3 -2 0 6 31 80 106 64 21 3 -1 -2 -3 -3 -3 -2 0 5 25 69 121 
102 41 10 0 -2 -3 -3 -3 -3 -3 -2 -1 3 21 64 106 80 30 6 0 -2 -3 -3 -3 -2 -1 4 20 57 100 100 57 20 4 -1 -2 -3 -3 -3 -3 -3 -3 -3 -3 -3 -3 -3 -3 -3 -2 -2 0 11 45 97 94 41 10 0 -2 -3 -3 -3 -3 -3 -3 -3 -3 -3 -3 -3 -3 -2 0 8 33 82 106 67 24 4 -1 -2 -3 -3 -3 -3 -3 -3 -2 -2 0 10 40 92 100 50 14 1 -2 -2 -3 -3 -2 -1 1 14 44 97 138 
103 41 10 0 -2 -3 -3 -3 -3 -3 -2 -2 1 14 51 101 90 38 9 0 -2 -3 -3 -2 -2 0 11 40 86 106 72 31 8 0 -2 -2 -3 -3 -3 -3 -3 -3 -3 -3 -3 -3 -3 -3 -3 -2 -2 0 10 42 95 95 42 10 0 -2 -2 -3 -3 -3 -3 -3 -3 -3 -3 -3 -3 -2 -2 1 14 48 97 97 48 14 1 -2 -2 -3 -3 -3 -3 -3 -3 -2 -2 1 14 50 100 92 40 10 0 -2 -2 -3 -2 -2 0 8 30 73 123 144 
101 41 10 0 -2 -3 -3 -3 -3 -3 -2 -2 0 11 43 96 96 43 11 0 -2 -2 -3 -2 -1 4 23 64 105 90 44 14 1 -1 -2 -3 -3 -3 -3 -3 -3 -3 -3 -3 -3 -3 -3 -3 -3 -3 -2 0 10 41 94 97 45 11 0 -2 -2 -3 -3 -3 -3 -3 -3 -3 -3 -3 -3 -2 -1 4 24 67 106 82 33 8 0 -2 -3 -3 -3 -3 -3 -3 -3 -2 -1 3 21 64 106 80 31 6 0 -2 -3 -3 -2 -1 4 21 58 104 130 136 
98 42 10 0 -2 -3 -3 -3 -3 -3 -3 -2 0 9 38 90 101 51 14 1 -2 -2 -2 -2 0 11 41 89 105 64 24 5 0 -2 -3 -3 -3 -3 -3 -3 -3 -3 -3 -3 -3 -3 -3 -3 -3 -3 -2 0 8 37 89 101 51 15 1 -2 -2 -3 -3 -3 -3 -3 -3 -3 -3 -3 -2 -2 0 11 40 89 104 61 20 3 -1 -2 -3 -3 -3 -3 -3 -3 -3 -2 0 6 31 80 106 64 21 3 -1 -2 -3 -2 -1 1 13 43 89 115 111 121 
97 42 10 0 -2 -3 -3 -3 -3 -3 -3 -2 0 6 30 80 106 64 21 3 -1 -2 -2 0 5 24 64 105 89 41 11 0 -2 -2 -3 -3 -3 -3 -3 -3 -3 -3 -3 -3 -3 -3 -3 -3 -3 -3 -2 0 6 30 80 107 65 22 4 -1 -2 -2 -2 -2 -2 -2 -3 -3 -3 -3 -2 -1 3 20 61 104 89 40 11 0 -2 -2 -3 -3 -3 -3 -3 -3 -2 -2 0 10 40 92 100 50 14 1 -2 -2 -2 -2 0 8 31 72 108 99 86 109 
96 42 10 0 -2 -3 -3 -3 -3 -3 -3 -2 -1 3 21 64 106 80 30 6 0 -2 -1 2 14 44 90 105 64 23 4 -1 -2 -3 -3 -3 -3 -3 -3 -3 -3 -3 -3 -3 -3 -3 -3 -3 -3 -3 -2 -1 3 22 65 108 82 33 9 2 0 0 -1 -2 -2 -2 -2 -2 -2 -2 -2 0 8 33 82 106 67 24 4 -1 -2 -3 -3 -3 -3 -3 -3 -3 -2 -2 1 14 50 100 92 40 10 0 -2 -2 -2 -1 4 21 58 100 102 71 66 102 
96 42 10 0 -2 -3 -3 -3 -3 -3 -3 -2 -2 1 14 51 101 90 38 9 0 -1 0 8 31 72 106 86 40 11 0 -2 -2 -3 -3 -3 -3 -3 -3 -3 -3 -3 -3 -3 -3 -3 -3 -3 -3 -2 -2 -1 3 18 56 107 98 49 22 12 9 6 3 1 0 0 0 0 0 -1 -1 2 14 48 97 97 48 14 1 -2 -2 -3 -3 -3 -3 -3 -3 -3 -2 -1 3 21 64 106 80 31 6 0 -2 -2 -1 1 14 43 88 107 75 44 53 98 
95 42 10 0 -2 -3 -3 -3 -3 -3 -3 -2 -2 0 11 43 96 96 43 11 0 0 4 20 57 100 100 57 20 4 -1 -2 -3 -3 -3 -3 -3 -3 -3 -3 -3 -3 -3 -3 -3 -3 -3 -3 -2 -2 -1 0 7 24 62 116 120 79 53 43 38 30 21 15 11 10 10 8 6 3 3 8 26 68 107 82 33 8 0 -2 -3 -3 -3 -3 -3 -3 -3 -3 -2 0 6 31 80 106 64 21 3 -1 -2 -2 0 8 31 72 106 88 46 27 47 96 
95 42 10 0 -2 -3 -3 -3 -3 -3 -3 -3 -2 0 9 38 90 101 51 15 2 1 11 40 86 106 72 31 8 0 -2 -2 -3 -3 -3 -3 -3 -3 -3 -3 -3 -3 -3 -3 -3 -3 -3 -2 -2 -1 2 8 23 48 89 135 142 119 102 95 90 80 64 51 45 42 41 37 30 22 18 24 50 93 106 61 21 3 -1 -2 -3 -3 -3 -3 -3 -3 -3 -2 -2 0 10 40 92 100 50 14 1 -2 -2 -1 4 21 58 100 100 59 24 18 44 96 
95 42 10 0 -2 -3 -3 -3 -3 -3 -3 -3 -2 0 6 30 80 106 64 22 5 6 23 64 105 90 44 14 1 -1 -2 -3 -3 -3 -3 -3 -3 -3 -3 -3 -3 -3 -3 -3 -3 -2 -2 -1 0 4 14 31 58 90 115 124 115 103 98 98 101 106 106 101 97 95 94 89 80 65 56 62 90 117 93 42 11 0 -2 -2 -3 -3 -3 -3 -3 -3 -3 -2 -2 1 14 50 100 92 40 10 0 -2 -1 1 14 43 88 106 72 31 11 13 43 96 
95 42 10 0 -2 -3 -3 -3 -3 -3 -3 -3 -2 -1 3 21 64 106 80 31 10 14 41 89 105 64 24 5 0 -2 -3 -3 -3 -3 -3 -3 -3 -3 -3 -3 -3 -3 -3 -3 -2 -2 -1 1 8 21 43 72 100 107 92 70 53 45 43 45 51 64 80 89 94 95 97 101 107 108 107 115 135 132 80 30 6 0 -2 -2 -3 -3 -3 -3 -3 -3 -3 -2 -1 3 21 64 106 80 31 6 0 -1 0 8 31 72 106 88 43 14 5 11 42 95 
95 42 10 0 -2 -3 -3 -3 -3 -3 -3 -3 -2 -2 1 14 51 101 90 40 17 27 65 105 89 41 11 0 -2 -2 -3 -3 -3 -3 -3 -3 -3 -3 -3 -3 -3 -3 -2 -2 -1 0 4 13 31 58 88 106 100 72 44 25 15 11 11 11 15 21 30 37 41 42 45 51 64 81 95 111 134 132 80 31 7 0 -2 -2 -2 -2 -2 -3 -2 -2 -2 -2 0 7 31 80 106 64 21 3 -1 0 4 21 58 100 100 58 21 5 2 10 42 95 
95 42 10 0 -2 -3 -3 -3 -3 -3 -3 -3 -2 -2 0 11 43 96 97 48 28 47 91 105 64 23 4 -1 -2 -3 -3 -3 -3 -3 -3 -3 -3 -3 -3 -3 -3 -2 -2 -1 1 7 21 43 72 100 106 88 58 31 14 5 1 0 0 0 1 3 6 8 10 10 11 15 21 31 42 58 88 117 96 47 16 3 0 -1 -2 -2 -2 -2 -2 -2 -2 -1 0 10 41 92 100 50 14 1 0 2 14 43 88 106 72 31 8 0 0 10 42 95 
95 42 10 0 -2 -3 -3 -3 -3 -3 -3 -3 -3 -2 0 9 38 90 103 62 48 76 107 86 40 11 0 -2 -2 -3 -3 -3 -3 -3 -3 -3 -3 -3 -3 -3 -2 -2 0 2 10 28 57 88 106 100 72 43 21 8 2 0 -1 -2 -2 -2 -2 -1 0 0 0 0 0 1 3 7 11 22 48 91 109 76 37 15 5 2 0 0 0 0 0 0 0 0 4 17 52 101 93 41 10 1 0 8 31 72 106 88 43 14 2 -1 0 10 42 95 
95 42 10 0 -2 -3 -3 -3 -3 -3 -3 -3 -3 -2 0 6 30 80 111 87 81 105 100 57 20 4 -1 -2 -3 -3 -3 -3 -3 -3 -3 -3 -3 -3 -2 -2 -1 0 4 14 34 66 99 106 88 58 31 14 4 0 -1 -2 -2 -2 -2 -2 -2 -2 -2 -2 -2 -2 -2 -2 -1 0 1 6 23 59 103 110 78 45 25 16 12 10 10 10 10 10 10 11 16 33 73 112 85 34 9 2 5 22 58 100 100 58 21 4 0 -2 0 10 42 95 
95 42 10 0 -2 -3 -3 -3 -3 -3 -3 -3 -3 -2 -1 3 21 64 113 116 114 111 72 31 8 0 -2 -2 -3 -3 -3 -3 -3 -3 -3 -3 -3 -2 -2 -1 1 8 21 44 74 103 103 74 44 21 8 1 -1 -2 -2 -3 -3 -3 -3 -3 -3 -3 -3 -3 -3 -2 -2 -2 -2 -2 -1 0 9 33 79 125 127 97 69 53 45 43 42 42 42 42 42 44 50 70 108 125 82 34 12 7 15 44 88 106 72 31 8 0 -2 -2 0 10 42 95 
95 42 10 0 -2 -3 -3 -3 -3 -3 -3 -3 -3 -2 -2 1 14 51 109 137 129 92 44 14 1 -1 -2 -3 -3 -3 -3 -3 -3 -3 -3 -2 -2 -1 0 4 13 31 58 88 106 99 66 34 14 4 0 -1 -2 -2 -3 -3 -3 -3 -3 -3 -3 -3 -3 -3 -3 -3 -3 -3 -3 -2 -2 -1 3 19 59 119 145 129 113 103 98 96 96 95 95 95 96 97 102 116 139 140 97 54 29 23 37 74 107 88 43 14 1 -1 -2 -2 0 10 42 95 
95 42 10 0 -2 -3 -3 -3 -3 -3 -3 -3 -3 -2 -2 0 11 44 106 144 119 65 23 5 0 -2 -3 -3 -3 -3 -3 -3 -3 -2 -2 -2 -1 1 8 21 43 72 100 106 88 57 28 10 2 0 -2 -2 -3 -3 -3 -3 -3 -3 -3 -3 -3 -3 -3 -3 -3 -3 -3 -3 -3 -3 -2 -1 2 17 56 112 122 97 89 92 94 95 95 95 95 95 95 96 97 103 114 125 117 95 71 61 77 107 103 59 22 4 -1 -2 -2 -2 0 10 42 95 
95 42 10 0 -2 -3 -3 -3 -3 -3 -3 -3 -3 -2 -2 0 10 42 103 137 95 40 11 0 -2 -2 -3 -3 -3 -3 -3 -2 -2 -2 -1 0 4 13 30 58 88 107 100 72 43 21 8 1 -1 -2 -2 -3 -3 -3 -3 -3 -3 -3 -3 -3 -3 -3 -3 -3 -3 -3 -3 -3 -3 -3 -2 -1 3 22 65 110 92 54 40 39 41 42 42 42 42 42 42 42 43 45 53 69 91 107 111 113 124 124 81 34 9 0 -2 -2 -2 -2 0 10 42 95 
95 42 10 0 -2 -3 -3 -3 -3 -3 -3 -3 -3 -3 -2 0 10 42 101 120 69 24 4 -1 -2 -3 -3 -3 -3 -2 -2 -2 -1 0 2 8 21 42 72 102 109 91 61 33 15 5 0 -1 -2 -2 -2 -2 -3 -3 -3 -3 -3 -3 -3 -3 -3 -3 -3 -3 -3 -3 -3 -3 -3 -3 -2 0 6 30 80 108 68 28 13 10 10 10 10 10 10 10 10 10 10 11 15 24 41 65 92 121 144 127 70 25 5 0 -2 -2 -2 -2 0 10 42 95 
95 42 10 0 -2 -3 -3 -3 -3 -3 -3 -3 -3 -2 -2 0 10 42 98 106 52 15 1 -2 -2 -3 -3 -2 -2 -2 -1 0 3 8 16 31 58 92 119 118 89 57 34 18 8 3 0 0 -1 -2 -2 -2 -2 -2 -2 -2 -3 -3 -3 -3 -3 -3 -3 -3 -3 -3 -3 -3 -3 -3 -2 0 8 37 90 102 52 16 3 0 0 0 0 0 0 0 0 0 0 0 1 5 12 24 44 77 116 125 81 34 9 0 -2 -2 -2 -2 0 10 42 95 
95 42 10 0 -2 -3 -3 -3 -3 -3 -3 -3 -3 -2 -2 0 11 45 98 97 43 11 0 -2 -2 -2 -2 -2 -1 0 4 11 21 34 51 76 110 137 142 118 84 60 46 34 22 15 10 6 3 1 0 0 0 -1 -2 -2 -2 -2 -2 -2 -3 -3 -3 -3 -3 -3 -3 -3 -3 -2 -2 0 10 41 94 97 45 12 0 -1 -2 -2 -2 -2 -2 -2 -2 -2 -2 -2 -2 -1 1 5 14 34 71 108 103 59 22 4 -1 -2 -2 -2 0 10 42 95 
95 42 10 0 -2 -3 -3 -3 -3 -3 -3 -3 -3 -2 -2 1 15 51 102 90 38 9 0 -2 -2 -1 0 1 5 11 23 40 61 82 99 112 120 122 125 122 110 100 92 80 64 50 40 31 21 14 11 9 6 3 1 0 0 -1 -2 -2 -2 -2 -2 -2 -2 -3 -3 -3 -3 -2 -2 0 11 45 97 94 41 10 0 -2 -2 -2 -2 -3 -3 -3 -3 -2 -2 -2 -2 -2 -2 0 2 12 35 75 107 88 43 14 1 -1 -2 -2 0 10 42 95 
95 42 10 0 -2 -3 -3 -3 -3 -3 -3 -3 -3 -2 -1 3 21 64 107 80 31 7 0 0 0 3 8 14 24 41 64 88 104 107 98 84 68 61 68 81 91 96 101 107 106 100 92 80 64 51 43 38 30 21 14 10 6 3 1 0 0 0 -1 -2 -2 -2 -2 -2 -2 -2 -2 1 15 51 101 89 37 8 0 -2 -2 -3 -3 -3 -3 -3 -3 -3 -3 -3 -3 -3 -2 -2 -1 2 14 44 88 106 72 31 8 0 -2 -2 0 10 42 95 
95 42 10 0 -2 -3 -3 -3 -3 -3 -3 -3 -3 -2 0 6 30 80 107 65 22 5 2 4 11 20 33 48 67 89 105 105 89 67 48 34 23 19 22 31 38 43 51 64 80 92 100 106 106 101 96 90 80 64 50 40 31 21 14 11 9 6 3 1 0 0 -1 -2 -2 -2 -1 3 21 64 106 80 30 6 0 -2 -3 -3 -3 -3 -3 -3 -3 -3 -3 -3 -3 -3 -3 -2 -2 0 4 21 58 100 100 58 21 4 0 -1 0 10 42 95 
95 42 10 0 -2 -3 -3 -3 -3 -3 -3 -3 -3 -2 0 9 38 90 102 53 18 9 12 23 40 61 82 97 106 104 88 64 41 24 14 8 4 2 3 6 9 11 14 21 31 40 50 64 80 90 96 101 106 106 100 92 80 64 51 43 38 30 21 14 10 6 3 1 0 0 1 8 31 80 107 64 21 3 -1 -2 -3 -3 -3 -3 -3 -3 -3 -3 -3 -3 -3 -3 -3 -3 -2 -2 0 8 31 72 106 88 44 14 2 0 0 10 42 95 
95 42 10 0 -2 -3 -3 -3 -3 -3 -3 -3 -2 -2 0 11 44 97 100 52 26 26 41 64 88 104 106 97 82 61 40 23 11 5 1 0 -1 -1 -1 0 0 0 1 3 6 10 14 21 30 38 43 51 64 80 92 100 106 106 101 96 90 80 64 50 40 31 21 15 11 9 9 15 41 92 102 51 15 1 -2 -2 -3 -3 -3 -3 -3 -3 -3 -3 -3 -3 -3 -3 -3 -3 -3 -2 -1 1 13 43 88 106 74 34 11 1 1 10 42 95 
95 42 10 0 -2 -3 -3 -3 -3 -3 -3 -3 -2 -2 1 15 52 105 105 65 53 67 89 105 105 89 67 48 33 20 11 4 0 -1 -2 -2 -2 -2 -2 -2 -2 -2 -2 -1 0 0 1 3 6 9 11 14 21 31 40 50 64 80 90 96 101 106 106 100 92 80 64 51 44 38 33 34 57 102 99 45 11 0 -2 -2 -3 -3 -3 -3 -3 -3 -3 -3 -3 -3 -3 -3 -3 -3 -3 -3 -2 -1 4 21 57 99 103 66 28 8 3 11 42 95 
95 42 10 0 -2 -3 -3 -3 -3 -3 -3 -3 -2 -1 4 24 69 122 121 98 98 107 105 89 64 41 24 14 8 3 0 -1 -2 -2 -2 -3 -3 -3 -3 -3 -3 -2 -2 -2 -2 -2 -2 -1 0 0 0 1 3 6 10 14 21 30 38 43 51 64 80 92 100 106 106 101 96 91 82 76 89 120 100 42 10 0 -2 -2 -3 -3 -3 -3 -3 -3 -3 -3 -3 -3 -3 -3 -3 -3 -3 -3 -2 -2 0 7 28 66 103 99 57 22 8 12 42 95 
95 42 10 0 -2 -3 -3 -3 -3 -3 -3 -2 -2 0 11 41 95 141 138 121 107 88 64 41 23 11 5 1 0 -1 -2 -2 -2 -3 -3 -3 -3 -3 -3 -3 -3 -3 -3 -3 -3 -2 -2 -2 -2 -2 -2 -2 -1 0 0 1 3 6 9 11 14 21 31 40 50 64 80 90 96 101 108 115 128 142 103 42 10 0 -2 -3 -3 -3 -3 -3 -3 -3 -3 -3 -3 -3 -3 -3 -3 -3 -3 -3 -3 -2 -1 1 10 34 74 106 88 44 17 16 43 96 
95 42 10 0 -2 -3 -3 -3 -3 -3 -3 -2 0 5 24 65 116 130 109 84 61 40 23 11 4 0 -1 -2 -2 -2 -2 -3 -3 -3 -3 -3 -3 -3 -3 -3 -3 -3 -3 -3 -3 -3 -3 -3 -3 -3 -2 -2 -2 -2 -2 -2 -1 0 0 0 1 3 6 10 14 21 30 38 44 51 66 89 117 140 103 41 10 0 -2 -3 -3 -3 -3 -3 -3 -3 -3 -3 -3 -3 -3 -3 -3 -3 -3 -3 -3 -3 -2 -1 2 14 43 88 106 74 37 24 46 96 
96 42 10 0 -2 -3 -3 -3 -3 -3 -2 -1 2 14 44 91 113 86 54 34 20 11 4 0 -1 -2 -2 -2 -3 -3 -3 -3 -3 -3 -3 -3 -3 -3 -3 -3 -3 -3 -3 -3 -3 -3 -3 -3 -3 -3 -3 -3 -3 -3 -2 -2 -2 -2 -2 -2 -2 -1 0 0 1 3 6 9 11 15 24 42 76 117 99 42 10 0 -2 -3 -3 -3 -3 -3 -3 -3 -3 -3 -3 -3 -3 -3 -3 -3 -3 -3 -3 -3 -2 -2 0 4 21 57 99 103 69 42 53 98 
96 42 10 0 -2 -3 -3 -3 -3 -2 -2 0 8 31 72 107 90 47 21 9 3 0 -1 -2 -2 -2 -3 -3 -3 -3 -3 -3 -3 -3 -3 -3 -3 -3 -3 -3 -3 -3 -3 -3 -3 -3 -3 -3 -3 -3 -3 -3 -3 -3 -3 -3 -3 -3 -3 -2 -2 -2 -2 -2 -2 -1 0 0 0 2 6 19 52 102 97 42 10 0 -2 -2 -3 -3 -3 -3 -3 -3 -3 -3 -3 -3 -3 -3 -3 -3 -3 -3 -3 -3 -3 -2 -2 0 8 28 66 103 101 70 66 102 
97 42 10 0 -2 -3 -3 -3 -2 -2 0 4 21 58 100 100 58 22 6 0 -1 -2 -2 -2 -3 -3 -3 -3 -3 -3 -3 -3 -3 -3 -3 -3 -3 -3 -3 -3 -3 -3 -3 -3 -3 -3 -3 -3 -3 -3 -3 -3 -3 -3 -3 -3 -3 -3 -3 -3 -3 -3 -3 -2 -2 -2 -2 -2 -2 -1 1 12 44 97 96 43 11 0 -2 -2 -3 -3 -3 -3 -3 -3 -3 -3 -3 -3 -3 -3 -3 -3 -3 -3 -3 -3 -3 -3 -2 -1 1 10 34 74 108 99 86 109 
98 42 10 0 -2 -2 -3 -3 -2 -1 2 14 44 88 107 73 31 9 0 -1 -2 -2 -2 -2 -2 -2 -3 -3 -3 -3 -3 -3 -3 -3 -3 -3 -3 -3 -3 -3 -3 -3 -3 -3 -3 -3 -3 -3 -3 -3 -3 -3 -3 -3 -3 -3 -3 -3 -3 -3 -3 -3 -3 -3 -3 -3 -3 -2 -2 -2 0 11 42 96 99 46 12 1 -2 -2 -3 -3 -3 -3 -3 -3 -3 -3 -3 -3 -3 -3 -3 -3 -3 -3 -3 -3 -3 -3 -3 -2 -1 2 14 43 89 115 111 121 
101 41 10 0 -2 -2 -2 -2 -1 1 11 34 74 108 90 46 16 3 0 -2 -2 -2 -2 -2 -2 -2 -2 -2 -2 -2 -2 -2 -2 -2 -3 -3 -3 -3 -3 -3 -3 -3 -3 -3 -3 -3 -3 -3 -3 -3 -3 -3 -3 -3 -3 -3 -3 -3 -3 -3 -3 -3 -3 -3 -3 -3 -3 -2 -2 -1 1 12 43 97 107 57 19 4 0 -2 -2 -2 -3 -3 -3 -3 -3 -3 -3 -3 -3 -3 -3 -3 -3 -3 -3 -3 -3 -3 -3 -2 -2 0 4 21 58 104 130 136 
103 41 10 0 -2 -2 -2 -1 1 10 32 69 108 109 69 33 14 5 1 0 0 0 0 0 0 0 0 0 0 -1 -2 -2 -2 -2 -2 -2 -2 -2 -2 -2 -2 -2 -2 -2 -2 -3 -3 -3 -3 -3 -3 -3 -3 -3 -3 -3 -3 -3 -3 -3 -3 -3 -3 -3 -3 -3 -2 -2 -1 0 6 20 52 105 125 82 39 16 5 0 -1 -2 -2 -3 -3 -3 -3 -3 -3 -3 -3 -3 -3 -3 -3 -3 -3 -3 -3 -3 -3 -3 -2 -2 0 8 30 73 123 144 
102 41 10 0 -2 -2 -1 1 10 31 69 113 130 106 71 48 33 22 15 11 10 10 10 10 10 10 9 8 6 3 1 0 0 0 0 0 0 0 0 0 -1 -2 -2 -2 -2 -2 -2 -2 -2 -2 -2 -2 -2 -2 -2 -2 -2 -3 -3 -3 -3 -3 -3 -3 -2 -2 -2 0 2 8 22 44 79 123 145 120 78 45 24 11 4 0 -1 -2 -2 -3 -3 -3 -3 -3 -3 -3 -3 -3 -3 -3 -3 -3 -3 -3 -3 -3 -3 -2 -1 1 14 44 97 138 
100 41 10 0 -2 -1 1 11 32 68 113 142 140 121 104 93 81 64 51 45 43 42 42 42 42 42 40 37 30 21 15 11 10 10 10 10 10 9 8 6 3 1 0 0 0 0 0 0 0 0 0 0 -1 -2 -2 -2 -2 -2 -2 -2 -2 -2 -2 -2 -2 -1 0 5 14 31 58 88 111 122 124 123 112 91 64 40 20 8 1 0 -2 -2 -2 -3 -3 -3 -3 -3 -3 -3 -3 -3 -3 -3 -3 -3 -3 -3 -3 -3 -2 0 5 25 69 121 
98 42 10 0 0 2 11 32 68 105 121 116 106 100 99 102 107 106 101 97 96 96 95 95 95 95 94 89 80 64 51 45 43 42 42 42 42 40 37 30 21 15 11 10 10 10 10 10 10 9 8 6 3 1 0 0 0 0 0 0 0 0 0 0 0 4 11 24 44 72 100 107 92 72 64 72 91 106 105 86 57 31 14 5 0 -1 -2 -2 -3 -3 -3 -3 -3 -3 -3 -3 -3 -3 -3 -3 -3 -3 -3 -3 -2 -1 1 15 52 106 
96 42 11 2 3 12 32 68 102 105 80 56 46 43 45 51 64 80 89 94 95 95 95 95 96 96 97 101 106 106 101 97 96 96 95 95 95 94 89 80 64 51 45 43 42 42 42 42 42 40 37 30 21 15 11 10 10 10 10 10 10 9 7 6 10 21 40 64 90 106 100 72 45 27 21 26 42 65 90 106 100 72 44 24 11 4 0 -1 -2 -2 -3 -3 -3 -3 -3 -3 -3 -3 -3 -3 -3 -3 -3 -3 -2 -2 0 11 45 99 
96 43 13 8 15 35 69 102 102 69 36 18 12 11 11 15 21 30 37 40 42 42 42 42 42 43 45 51 64 80 89 94 95 95 95 96 96 97 101 106 106 101 97 96 96 95 95 95 95 94 89 80 64 51 45 43 42 42 42 42 40 38 32 29 37 59 87 105 105 86 57 31 14 6 3 5 12 24 44 72 100 106 90 64 40 20 8 1 0 -2 -2 -2 -3 -3 -3 -3 -3 -3 -3 -3 -3 -3 -3 -3 -2 -2 0 10 43 96 
97 46 21 24 44 74 103 101 67 32 12 3 0 0 0 1 3 6 8 9 10 10 10 10 10 10 11 15 21 30 37 40 42 42 42 42 43 45 51 64 80 89 94 95 95 95 95 96 96 97 101 106 106 101 97 96 96 95 95 95 94 91 84 79 87 105 108 90 64 40 20 8 2 0 -1 0 1 5 14 31 57 86 105 105 86 57 31 14 5 0 -1 -2 -2 -3 -3 -3 -3 -3 -3 -3 -3 -3 -3 -3 -2 -2 0 10 42 96 
99 55 41 60 88 106 98 65 31 11 2 -1 -2 -2 -2 -2 -1 0 0 0 0 0 0 0 0 0 0 1 3 6 8 9 10 10 10 10 10 11 15 21 30 37 40 42 42 42 42 42 43 45 51 64 80 89 94 95 95 95 96 96 99 106 119 132 133 113 77 45 24 11 4 0 -1 -2 -2 -2 -2 0 2 8 20 40 64 90 106 100 72 44 24 11 4 0 -1 -2 -2 -3 -3 -3 -3 -3 -3 -3 -3 -3 -3 -2 0 10 42 96 
107 76 78 101 107 88 57 28 10 1 -1 -2 -2 -2 -2 -2 -2 -2 -2 -2 -2 -2 -2 -2 -2 -2 -2 -2 -1 0 0 0 0 0 0 0 0 0 1 3 6 8 9 10 10 10 10 10 10 11 15 21 30 37 40 42 42 42 42 43 47 61 93 135 133 83 39 16 5 1 -1 -2 -2 -3 -3 -3 -2 -2 -1 0 4 11 24 44 72 100 106 90 64 40 20 8 2 0 -2 -2 -2 -3 -3 -3 -3 -3 -3 -3 -3 -2 0 10 42 97 
122 108 111 104 74 43 21 7 1 -1 -2 -2 -3 -3 -3 -3 -3 -3 -3 -3 -3 -3 -3 -3 -2 -2 -2 -2 -2 -2 -2 -2 -2 -2 -2 -2 -2 -2 -2 -1 0 0 0 0 0 0 0 0 0 0 1 3 6 8 9 10 10 10 10 11 14 27 61 113 112 57 19 4 0 -2 -2 -2 -3 -3 -3 -3 -3 -3 -2 -2 -1 0 5 14 31 57 86 105 105 86 57 31 14 5 0 -1 -2 -2 -2 -3 -3 -3 -3 -3 -3 -2 0 10 42 99 
140 131 107 69 35 14 4 0 -2 -2 -3 -3 -3 -3 -3 -3 -3 -3 -3 -3 -3 -3 -3 -3 -3 -3 -3 -3 -3 -3 -3 -3 -3 -3 -3 -2 -2 -2 -2 -2 -2 -2 -2 -2 -2 -2 -2 -2 -2 -2 -2 -1 0 0 0 0 0 0 0 0 3 14 47 101 100 46 12 1 -2 -2 -3 -3 -3 -3 -3 -3 -3 -3 -3 -2 -2 -2 0 1 8 20 40 64 90 106 100 72 44 24 11 4 0 -1 -2 -2 -3 -3 -3 -3 -2 -2 0 10 41 102 
143 117 70 32 11 2 0 -2 -2 -3 -3 -3 -3 -3 -3 -3 -3 -3 -3 -3 -3 -3 -3 -3 -3 -3 -3 -3 -3 -3 -3 -3 -3 -3 -3 -3 -3 -3 -3 -3 -3 -3 -3 -3 -3 -3 -3 -2 -2 -2 -2 -2 -2 -2 -2 -2 -2 -2 -2 -1 0 11 43 97 97 43 11 0 -2 -2 -3 -3 -3 -3 -3 -3 -3 -3 -3 -3 -3 -2 -2 -1 0 4 11 24 44 72 100 106 90 64 41 23 11 4 0 -1 -2 -2 -2 -3 -2 -2 0 10 41 103 
126 81 36 12 2 -1 -2 -2 -3 -3 -3 -3 -3 -3 -3 -3 -3 -3 -3 -3 -3 -3 -3 -3 -3 -3 -3 -3 -3 -3 -3 -3 -3 -3 -3 -3 -3 -3 -3 -3 -3 -3 -3 -3 -3 -3 -3 -3 -3 -3 -3 -3 -3 -3 -3 -3 -2 -2 -2 -2 0 10 42 96 96 42 10 0 -2 -2 -3 -3 -3 -3 -3 -3 -3 -3 -3 -3 -3 -3 -3 -2 -2 -1 0 5 14 31 57 86 105 105 89 64 40 20 8 1 0 -2 -2 -2 -2 -2 0 10 41 101 
108 56 18 3 -1 -2 -2 -3 -3 -3 -3 -3 -3 -3 -3 -3 -3 -3 -3 -3 -3 -3 -3 -3 -3 -3 -3 -3 -3 -3 -3 -3 -3 -3 -3 -3 -3 -3 -3 -3 -3 -3 -3 -3 -3 -3 -3 -3 -3 -3 -3 -3 -3 -3 -3 -3 -3 -3 -2 -2 0 10 42 95 95 42 10 0 -2 -3 -3 -3 -3 -3 -3 -3 -3 -3 -3 -3 -3 -3 -3 -3 -2 -2 -2 0 1 8 20 40 64 89 105 105 86 57 30 14 5 1 0 0 -1 -1 0 10 42 98 
99 46 12 0 -2 -2 -3 -3 -3 -3 -3 -3 -3 -3 -3 -3 -3 -3 -3 -3 -3 -3 -3 -3 -3 -3 -3 -3 -3 -3 -3 -3 -3 -3 -3 -3 -3 -3 -3 -3 -3 -3 -3 -3 -3 -3 -3 -3 -3 -3 -3 -3 -3 -3 -3 -3 -3 -3 -2 -2 0 10 42 95 95 42 10 0 -2 -3 -3 -3 -3 -3 -3 -3 -3 -3 -3 -3 -3 -3 -3 -3 -3 -3 -2 -2 -1 0 4 11 23 41 65 91 108 101 73 44 25 15 10 6 3 2 3 12 43 97 
97 43 11 0 -2 -2 -2 -3 -3 -3 -3 -3 -3 -3 -3 -3 -3 -3 -3 -3 -3 -3 -3 -3 -3 -3 -3 -3 -3 -3 -3 -3 -3 -3 -3 -3 -3 -3 -3 -3 -3 -3 -3 -3 -3 -3 -3 -3 -3 -3 -3 -3 -3 -3 -3 -3 -3 -3 -3 -2 0 10 42 95 95 42 10 0 -2 -3 -3 -3 -3 -3 -3 -3 -3 -3 -3 -3 -3 -3 -3 -3 -3 -3 -3 -2 -2 -2 -1 1 5 13 27 49 80 111 117 96 70 51 40 31 21 15 13 20 48 99 
98 43 11 0 -1 -2 -2 -2 -2 -2 -2 -2 -2 -3 -3 -3 -3 -3 -3 -3 -3 -3 -3 -3 -3 -3 -3 -3 -3 -3 -3 -3 -3 -3 -3 -3 -3 -3 -3 -3 -3 -3 -3 -3 -3 -3 -3 -3 -3 -3 -3 -3 -3 -3 -3 -3 -3 -3 -3 -2 0 10 42 95 95 42 10 0 -2 -3 -3 -3 -3 -3 -3 -3 -3 -3 -3 -3 -3 -3 -3 -3 -3 -3 -3 -2 -2 -2 -1 0 2 7 16 31 58 98 134 141 124 105 93 80 64 51 43 44 65 106 
102 45 13 3 0 0 0 0 0 -1 -2 -2 -2 -2 -2 -2 -2 -2 -2 -2 -2 -2 -3 -3 -3 -3 -3 -3 -3 -3 -3 -3 -3 -3 -3 -3 -3 -3 -3 -3 -3 -3 -3 -3 -3 -3 -3 -3 -3 -3 -3 -3 -3 -3 -3 -3 -3 -3 -3 -2 0 10 42 95 95 42 10 0 -2 -3 -3 -3 -3 -3 -3 -3 -3 -3 -3 -3 -3 -3 -3 -3 -3 -2 -2 -2 -1 0 1 5 11 21 35 53 78 109 130 128 113 104 103 107 106 101 94 91 101 125 
112 54 23 13 11 10 10 8 6 3 1 0 0 0 0 0 0 -1 -2 -2 -2 -2 -2 -2 -2 -2 -2 -2 -2 -2 -3 -3 -3 -3 -3 -3 -3 -3 -3 -3 -3 -3 -3 -3 -3 -3 -3 -3 -3 -3 -3 -3 -3 -3 -3 -3 -3 -3 -3 -2 0 10 42 95 95 42 10 0 -2 -3 -3 -3 -3 -3 -3 -3 -3 -3 -3 -3 -3 -3 -2 -2 -2 -2 -1 0 3 8 14 24 40 61 82 98 108 108 92 69 53 48 52 65 80 92 102 114 132 146 
128 81 54 45 42 42 40 37 30 21 15 11 10 10 9 8 6 3 1 0 0 0 0 0 0 0 -1 -2 -2 -2 -2 -2 -2 -2 -2 -2 -2 -2 -2 -3 -3 -3 -3 -3 -3 -3 -3 -3 -3 -3 -3 -3 -3 -3 -3 -3 -3 -3 -2 -2 0 10 42 95 95 42 10 0 -2 -3 -3 -3 -3 -3 -3 -3 -3 -3 -3 -3 -2 -2 -2 -1 0 1 4 11 20 33 48 67 89 104 106 97 82 61 40 24 15 13 15 21 31 41 52 73 108 143 
147 123 104 98 96 95 94 89 80 64 51 45 43 42 40 37 30 21 15 11 10 10 10 9 8 6 3 1 0 0 0 0 0 0 -1 -2 -2 -2 -2 -2 -2 -2 -2 -2 -2 -2 -2 -3 -3 -3 -3 -3 -3 -3 -3 -3 -3 -3 -2 -2 0 10 42 95 95 42 10 0 -2 -3 -3 -3 -3 -3 -3 -3 -3 -3 -2 -2 -2 -1 0 3 8 14 24 40 61 82 97 106 104 89 67 48 33 20 11 4 1 0 1 3 7 10 17 33 69 124 
143 123 104 98 96 96 97 101 106 106 101 97 96 95 94 89 80 64 51 45 43 42 42 40 37 30 21 15 11 10 10 9 8 6 3 1 0 0 0 0 0 0 0 -1 -2 -2 -2 -2 -2 -2 -2 -2 -2 -2 -2 -2 -2 -2 -2 -2 0 10 42 95 95 42 10 0 -2 -2 -3 -3 -3 -3 -3 -2 -2 -2 -2 -1 0 4 11 20 33 48 67 89 104 106 97 82 61 40 24 14 8 3 0 -1 -2 -2 -2 -1 0 0 4 16 50 110 
119 81 54 45 43 43 45 51 64 80 89 94 95 96 97 101 106 106 101 97 96 95 95 94 89 80 64 51 45 43 42 40 37 30 21 15 11 10 10 10 9 8 6 3 1 0 0 0 0 0 0 -1 -2 -2 -2 -2 -2 -2 -2 -2 0 10 42 95 95 42 10 0 -2 -2 -3 -3 -3 -2 -2 -2 -1 0 1 5 11 23 40 61 82 97 106 104 89 67 48 33 20 11 4 1 0 -1 -2 -2 -2 -2 -2 -2 -2 -1 0 11 44 101 
103 54 23 13 11 10 11 15 21 30 37 40 42 43 45 51 64 80 89 94 95 95 96 97 101 106 106 101 97 96 95 94 89 80 64 51 45 43 42 42 40 37 30 21 15 11 10 10 9 8 6 3 1 0 0 0 0 0 0 0 1 11 43 96 96 42 10 0 -2 -2 -2 -2 -2 -2 -1 0 3 8 14 24 41 64 88 104 106 97 82 61 40 24 14 8 3 0 -1 -2 -2 -2 -2 -3 -3 -3 -3 -3 -2 -2 0 10 42 97 
97 45 13 3 0 0 0 1 3 6 8 9 10 10 11 15 21 30 37 40 42 42 43 45 51 64 80 89 94 95 96 97 101 106 106 101 97 96 95 95 94 89 80 64 51 45 43 42 40 37 30 21 15 11 10 10 10 10 8 7 6 15 45 98 97 43 11 0 -2 -2 -2 -1 0 1 4 11 20 33 48 67 89 105 105 89 67 48 33 20 11 4 1 0 -1 -2 -2 -2 -3 -3 -3 -3 -3 -3 -3 -3 -2 -2 0 10 42 96 
96 43 11 0 -1 -2 -2 -2 -1 0 0 0 0 0 0 1 3 6 8 9 10 10 10 11 15 21 30 37 40 42 43 45 51 64 80 89 94 95 95 96 97 101 106 106 101 97 96 95 94 89 80 64 51 45 43 42 42 40 37 31 24 28 55 104 101 46 12 1 -1 -1 0 3 8 14 24 40 61 82 97 106 104 88 64 41 24 14 8 3 0 -1 -2 -2 -2 -2 -3 -3 -3 -3 -3 -3 -3 -3 -3 -3 -2 -2 0 10 42 95 
95 42 10 0 -2 -2 -2 -2 -2 -2 -2 -2 -2 -2 -2 -2 -1 0 0 0 0 0 0 0 1 3 6 8 9 10 10 11 15 21 30 37 40 42 42 43 45 51 64 80 89 94 95 96 97 101 106 106 101 97 96 95 95 94 89 80 67 63 83 122 113 57 20 6 3 5 11 20 33 48 67 89 104 106 97 82 61 40 23 11 5 1 0 -1 -2 -2 -2 -3 -3 -3 -3 -3 -3 -3 -3 -3 -3 -3 -3 -3 -3 -2 0 10 42 95 
95 42 10 0 -2 -2 -3 -3 -3 -3 -3 -3 -3 -2 -2 -2 -2 -2 -2 -2 -2 -2 -2 -2 -2 -1 0 0 0 0 0 0 1 3 6 8 9 10 10 10 11 15 21 30 37 40 42 43 45 51 64 80 89 94 95 95 96 97 101 107 108 108 121 143 133 83 41 21 18 25 40 61 82 97 106 104 89 67 48 33 20 11 4 0 -1 -2 -2 -2 -2 -3 -3 -3 -3 -3 -3 -3 -3 -3 -3 -3 -3 -3 -3 -3 -3 -2 0 10 42 95 
95 42 10 0 -2 -2 -3 -3 -3 -3 -3 -3 -3 -3 -3 -3 -3 -3 -3 -3 -2 -2 -2 -2 -2 -2 -2 -2 -2 -2 -2 -2 -2 -1 0 0 0 0 0 0 0 1 3 6 8 10 10 10 11 15 21 30 37 40 42 42 43 45 51 64 80 91 102 116 127 114 83 60 57 69 89 105 106 97 82 61 40 24 14 8 3 0 -1 -2 -2 -2 -3 -3 -3 -3 -3 -3 -3 -3 -3 -3 -3 -3 -3 -3 -3 -3 -3 -3 -2 -2 0 10 42 95 
95 42 10 0 -2 -2 -3 -3 -3 -3 -3 -3 -3 -3 -3 -3 -3 -3 -3 -3 -3 -3 -3 -3 -3 -3 -3 -2 -2 -2 -2 -2 -2 -2 -2 -2 -2 -2 -2 -2 -2 -2 -1 0 0 0 0 0 0 1 3 6 8 10 10 10 10 11 15 21 30 38 45 57 82 114 128 120 111 110 105 89 67 48 33 20 11 4 1 0 -1 -2 -2 -2 -3 -3 -3 -3 -3 -3 -3 -3 -3 -3 -3 -3 -3 -3 -3 -3 -3 -3 -3 -3 -2 -2 0 10 42 95 
95 42 10 0 -2 -2 -2 -2 -3 -3 -3 -3 -3 -3 -3 -3 -2 -2 -2 -2 -2 -2 -2 -2 -2 -2 -2 -2 -2 -2 -2 -2 -2 -2 -2 -2 -2 -2 -2 -2 -2 -2 -2 -2 -2 -2 -2 -2 -2 -2 -1 0 0 0 0 0 0 0 1 3 6 9 12 19 40 83 133 142 115 87 62 41 24 14 8 3 0 -1 -2 -2 -2 -2 -2 -2 -2 -2 -2 -2 -3 -3 -3 -3 -3 -3 -3 -3 -3 -3 -3 -3 -3 -3 -2 -2 -2 -2 0 10 42 95 
96 43 11 0 -1 -2 -2 -2 -2 -2 -2 -2 -2 -2 -2 -2 -2 -2 -2 -2 -2 -2 -2 -2 -2 -2 -2 -2 -2 -2 -2 -2 -2 -2 -2 -2 -2 -2 -2 -2 -2 -2 -2 -2 -2 -2 -2 -2 -2 -2 -2 -2 -1 -1 -1 -1 -1 -1 -1 0 0 0 1 6 20 58 114 121 77 43 23 12 5 2 0 0 -1 -2 -2 -2 -2 -2 -2 -2 -2 -2 -2 -2 -2 -2 -2 -2 -2 -2 -2 -2 -2 -2 -2 -2 -2 -2 -2 -2 -2 -1 0 11 43 96 
98 45 13 3 0 0 0 0 0 0 0 0 0 0 0 0 0 0 0 0 0 0 0 0 0 0 0 0 0 0 0 0 0 0 0 0 0 0 0 0 0 0 0 0 0 0 0 0 0 0 0 0 0 0 0 0 0 0 0 0 0 0 1 4 16 49 103 106 55 22 9 4 2 1 0 0 0 0 0 0 0 0 0 0 0 0 0 0 0 0 0 0 0 0 0 0 0 0 0 0 0 0 0 0 0 0 3 13 45 98 
104 54 23 13 11 10 10 10 10 10 10 10 10 10 10 10 10 10 10 10 10 10 10 10 10 10 10 10 10 10 10 10 10 10 10 10 10 10 10 10 10 10 10 10 10 10 10 10 10 10 10 10 10 10 10 10 10 10 10 10 10 10 11 13 24 55 106 106 56 25 15 11 10 10 10 10 10 10 10 10 10 10 10 10 10 10 10 10 10 10 10 10 10 10 10 10 10 10 10 10 10 10 10 10 10 10 13 23 54 104 
124 81 54 45 43 42 42 42 42 42 42 42 42 42 42 42 42 42 42 42 42 42 42 42 42 42 42 42 42 42 42 42 41 41 41 42 42 42 42 42 42 42 42 42 42 42 42 42 42 41 41 42 42 42 42 42 42 42 42 42 42 42 43 45 54 81 123 123 81 54 45 43 42 42 42 42 42 42 42 42 42 42 42 42 42 42 42 42 42 42 42 41 41 41 42 42 42 42 42 42 42 42 42 41 41 42 44 54 81 124 
154 124 104 98 96 95 95 95 95 95 95 95 95 95 95 95 95 95 95 95 95 95 95 95 95 95 95 95 95 96 97 99 102 103 101 98 96 96 95 95 95 95 95 95 95 95 96 97 99 103 103 99 97 96 95 95 95 95 95 95 95 95 96 97 103 118 141 141 118 103 97 96 95 95 95 95 95 95 95 95 95 95 95 95 95 95 95 95 96 96 98 101 103 101 98 96 96 95 95 95 96 96 98 101 104 102 100 105 124 154 
